%TF.GenerationSoftware,Altium Limited,Altium Designer,19.0.10 (269)*%
G04 Layer_Color=128*
%FSLAX26Y26*%
%MOIN*%
%TF.FileFunction,Paste,Bot*%
%TF.Part,Single*%
G01*
G75*
%TA.AperFunction,SMDPad,CuDef*%
%ADD12R,0.053150X0.045276*%
%ADD14R,0.045276X0.053150*%
%ADD31R,0.031496X0.035433*%
%ADD32R,0.035433X0.031496*%
D12*
X1168551Y3228551D02*
D03*
Y3297449D02*
D03*
X1862259Y3211551D02*
D03*
Y3280448D02*
D03*
X2130179Y615449D02*
D03*
Y546551D02*
D03*
X2527000Y3269449D02*
D03*
Y3200551D02*
D03*
D14*
X1495000Y3155000D02*
D03*
X1426102D02*
D03*
X1495000Y3320000D02*
D03*
X1426102D02*
D03*
X1245102Y3161000D02*
D03*
X1314000D02*
D03*
X1495000Y3237500D02*
D03*
X1426102D02*
D03*
X2188708Y3137999D02*
D03*
X2119811D02*
D03*
X2188708Y3302999D02*
D03*
X2119811D02*
D03*
X1938811Y3143999D02*
D03*
X2007708D02*
D03*
X2188708Y3220499D02*
D03*
X2119811D02*
D03*
X1803730Y689000D02*
D03*
X1872627D02*
D03*
X1803730Y524000D02*
D03*
X1872627D02*
D03*
X2053627Y683000D02*
D03*
X1984730D02*
D03*
X1803730Y606500D02*
D03*
X1872627D02*
D03*
X2853449Y3127000D02*
D03*
X2784551D02*
D03*
X2853449Y3292000D02*
D03*
X2784551D02*
D03*
Y3209500D02*
D03*
X2853449D02*
D03*
X2672449Y3133000D02*
D03*
X2603551D02*
D03*
D31*
X1241149Y3316370D02*
D03*
X1315953D02*
D03*
X1278551Y3237630D02*
D03*
X1934858Y3299369D02*
D03*
X2009661D02*
D03*
X1972259Y3220629D02*
D03*
X2599598Y3288370D02*
D03*
X2674401D02*
D03*
X2637000Y3209630D02*
D03*
X2057580Y527630D02*
D03*
X1982777D02*
D03*
X2020179Y606370D02*
D03*
D32*
X1291063Y3875725D02*
D03*
X1212323Y3913127D02*
D03*
Y3838324D02*
D03*
X956772Y3875725D02*
D03*
X878032Y3913127D02*
D03*
Y3838324D02*
D03*
X1625353Y3875725D02*
D03*
X1546613Y3913127D02*
D03*
Y3838324D02*
D03*
X3296806Y3875725D02*
D03*
X3218066Y3913127D02*
D03*
Y3838324D02*
D03*
X2962516Y3875725D02*
D03*
X2883776Y3913127D02*
D03*
Y3838324D02*
D03*
X2628225Y3875725D02*
D03*
X2549485Y3913127D02*
D03*
Y3838324D02*
D03*
X2293935Y3875725D02*
D03*
X2215194Y3913127D02*
D03*
Y3838324D02*
D03*
X1959644Y3875725D02*
D03*
X1880904Y3913127D02*
D03*
Y3838324D02*
D03*
X4299678Y3875725D02*
D03*
X4220938Y3913127D02*
D03*
Y3838324D02*
D03*
X3965388Y3875725D02*
D03*
X3886647Y3913127D02*
D03*
Y3838324D02*
D03*
X3631097Y3875725D02*
D03*
X3552357Y3913127D02*
D03*
Y3838324D02*
D03*
%TF.MD5,7417669a4ec21fd947363bcea46ea837*%
M02*
