%TF.GenerationSoftware,Altium Limited,Altium Designer,19.0.10 (269)*%
G04 Layer_Physical_Order=2*
G04 Layer_Color=16711680*
%FSLAX26Y26*%
%MOIN*%
%TF.FileFunction,Copper,L2,Bot,Signal*%
%TF.Part,Single*%
G01*
G75*
%TA.AperFunction,SMDPad,CuDef*%
%ADD12R,0.053150X0.045276*%
%ADD14R,0.045276X0.053150*%
%TA.AperFunction,Conductor*%
%ADD19C,0.010000*%
%ADD21C,0.008000*%
%TA.AperFunction,ComponentPad*%
%ADD23C,0.094488*%
%ADD24C,0.086614*%
%ADD25C,0.129921*%
%TA.AperFunction,ViaPad*%
%ADD26C,0.060000*%
%ADD27C,0.250000*%
%TA.AperFunction,ComponentPad*%
%ADD28C,0.098425*%
%ADD29C,0.078740*%
%TA.AperFunction,ViaPad*%
%ADD30C,0.050000*%
%TA.AperFunction,SMDPad,CuDef*%
%ADD31R,0.031496X0.035433*%
%ADD32R,0.035433X0.031496*%
G36*
X4984707Y15293D02*
X15293D01*
Y4184707D01*
X4984707D01*
Y15293D01*
D02*
G37*
%LPC*%
G36*
X4705000Y4035024D02*
Y3905000D01*
X4835024D01*
X4833750Y3921184D01*
X4828790Y3941846D01*
X4820658Y3961478D01*
X4809555Y3979596D01*
X4795755Y3995755D01*
X4779596Y4009555D01*
X4761478Y4020658D01*
X4741846Y4028790D01*
X4721184Y4033750D01*
X4705000Y4035024D01*
D02*
G37*
G36*
X4695000D02*
X4678816Y4033750D01*
X4658154Y4028790D01*
X4638522Y4020658D01*
X4620404Y4009555D01*
X4604245Y3995755D01*
X4590445Y3979596D01*
X4579342Y3961478D01*
X4571210Y3941846D01*
X4566250Y3921184D01*
X4564976Y3905000D01*
X4695000D01*
Y4035024D01*
D02*
G37*
G36*
X305000D02*
Y3905000D01*
X435024D01*
X433750Y3921184D01*
X428790Y3941846D01*
X420658Y3961478D01*
X409555Y3979596D01*
X395755Y3995755D01*
X379596Y4009555D01*
X361478Y4020658D01*
X341846Y4028790D01*
X321184Y4033750D01*
X305000Y4035024D01*
D02*
G37*
G36*
X295000D02*
X278816Y4033750D01*
X258154Y4028790D01*
X238522Y4020658D01*
X220404Y4009555D01*
X204245Y3995755D01*
X190445Y3979596D01*
X179342Y3961478D01*
X171210Y3941846D01*
X166250Y3921184D01*
X164976Y3905000D01*
X295000D01*
Y4035024D01*
D02*
G37*
G36*
X4220938Y4025042D02*
X4211801Y4023839D01*
X4203287Y4020313D01*
X4195976Y4014702D01*
X4190366Y4007391D01*
X4186839Y3998877D01*
X4185636Y3989740D01*
X4186839Y3980603D01*
X4190366Y3972089D01*
X4195976Y3964778D01*
X4203287Y3959168D01*
X4205644Y3958191D01*
Y3938875D01*
X4193221D01*
Y3887379D01*
X4248654D01*
Y3938875D01*
X4236232D01*
Y3958191D01*
X4238589Y3959168D01*
X4245900Y3964778D01*
X4251510Y3972089D01*
X4255037Y3980603D01*
X4256240Y3989740D01*
X4255037Y3998877D01*
X4251510Y4007391D01*
X4245900Y4014702D01*
X4238589Y4020313D01*
X4230075Y4023839D01*
X4220938Y4025042D01*
D02*
G37*
G36*
X3886647D02*
X3877511Y4023839D01*
X3868996Y4020313D01*
X3861685Y4014702D01*
X3856075Y4007391D01*
X3852548Y3998877D01*
X3851345Y3989740D01*
X3852548Y3980603D01*
X3856075Y3972089D01*
X3861685Y3964778D01*
X3868996Y3959168D01*
X3871354Y3958191D01*
Y3938875D01*
X3858931D01*
Y3887379D01*
X3914364D01*
Y3938875D01*
X3901941D01*
Y3958191D01*
X3904298Y3959168D01*
X3911610Y3964778D01*
X3917220Y3972089D01*
X3920747Y3980603D01*
X3921949Y3989740D01*
X3920747Y3998877D01*
X3917220Y4007391D01*
X3911610Y4014702D01*
X3904298Y4020313D01*
X3895784Y4023839D01*
X3886647Y4025042D01*
D02*
G37*
G36*
X3552357D02*
X3543220Y4023839D01*
X3534706Y4020313D01*
X3527394Y4014702D01*
X3521784Y4007391D01*
X3518258Y3998877D01*
X3517055Y3989740D01*
X3518258Y3980603D01*
X3521784Y3972089D01*
X3527394Y3964778D01*
X3534706Y3959168D01*
X3537063Y3958191D01*
Y3938875D01*
X3524640D01*
Y3887379D01*
X3580073D01*
Y3938875D01*
X3567651D01*
Y3958191D01*
X3570008Y3959168D01*
X3577319Y3964778D01*
X3582929Y3972089D01*
X3586456Y3980603D01*
X3587659Y3989740D01*
X3586456Y3998877D01*
X3582929Y4007391D01*
X3577319Y4014702D01*
X3570008Y4020313D01*
X3561494Y4023839D01*
X3552357Y4025042D01*
D02*
G37*
G36*
X3218066D02*
X3208929Y4023839D01*
X3200415Y4020313D01*
X3193104Y4014702D01*
X3187494Y4007391D01*
X3183967Y3998877D01*
X3182764Y3989740D01*
X3183967Y3980603D01*
X3187494Y3972089D01*
X3193104Y3964778D01*
X3200415Y3959168D01*
X3202772Y3958191D01*
Y3938875D01*
X3190350D01*
Y3887379D01*
X3245783D01*
Y3938875D01*
X3233360D01*
Y3958191D01*
X3235717Y3959168D01*
X3243028Y3964778D01*
X3248639Y3972089D01*
X3252165Y3980603D01*
X3253368Y3989740D01*
X3252165Y3998877D01*
X3248639Y4007391D01*
X3243028Y4014702D01*
X3235717Y4020313D01*
X3227203Y4023839D01*
X3218066Y4025042D01*
D02*
G37*
G36*
X2883776D02*
X2874639Y4023839D01*
X2866125Y4020313D01*
X2858813Y4014702D01*
X2853203Y4007391D01*
X2849677Y3998877D01*
X2848474Y3989740D01*
X2849677Y3980603D01*
X2853203Y3972089D01*
X2858813Y3964778D01*
X2866125Y3959168D01*
X2868482Y3958191D01*
Y3938875D01*
X2856059D01*
Y3887379D01*
X2911492D01*
Y3938875D01*
X2899070D01*
Y3958191D01*
X2901427Y3959168D01*
X2908738Y3964778D01*
X2914348Y3972089D01*
X2917875Y3980603D01*
X2919078Y3989740D01*
X2917875Y3998877D01*
X2914348Y4007391D01*
X2908738Y4014702D01*
X2901427Y4020313D01*
X2892912Y4023839D01*
X2883776Y4025042D01*
D02*
G37*
G36*
X878032D02*
X868895Y4023839D01*
X860381Y4020313D01*
X853070Y4014702D01*
X847460Y4007391D01*
X843933Y3998877D01*
X842730Y3989740D01*
X843933Y3980603D01*
X847460Y3972089D01*
X853070Y3964778D01*
X860381Y3959168D01*
X862738Y3958191D01*
Y3938875D01*
X850316D01*
Y3887379D01*
X905749D01*
Y3938875D01*
X893326D01*
Y3958191D01*
X895683Y3959168D01*
X902994Y3964778D01*
X908604Y3972089D01*
X912131Y3980603D01*
X913334Y3989740D01*
X912131Y3998877D01*
X908604Y4007391D01*
X902994Y4014702D01*
X895683Y4020313D01*
X887169Y4023839D01*
X878032Y4025042D01*
D02*
G37*
G36*
X2549485D02*
X2540348Y4023839D01*
X2531834Y4020313D01*
X2524523Y4014702D01*
X2518913Y4007391D01*
X2515386Y3998877D01*
X2514183Y3989740D01*
X2515386Y3980603D01*
X2518913Y3972089D01*
X2524523Y3964778D01*
X2531834Y3959168D01*
X2534191Y3958191D01*
Y3938875D01*
X2521769D01*
Y3887379D01*
X2577202D01*
Y3938875D01*
X2564779D01*
Y3958191D01*
X2567136Y3959168D01*
X2574447Y3964778D01*
X2580057Y3972089D01*
X2583584Y3980603D01*
X2584787Y3989740D01*
X2583584Y3998877D01*
X2580057Y4007391D01*
X2574447Y4014702D01*
X2567136Y4020313D01*
X2558622Y4023839D01*
X2549485Y4025042D01*
D02*
G37*
G36*
X2215194D02*
X2206058Y4023839D01*
X2197543Y4020313D01*
X2190232Y4014702D01*
X2184622Y4007391D01*
X2181095Y3998877D01*
X2179892Y3989740D01*
X2181095Y3980603D01*
X2184622Y3972089D01*
X2190232Y3964778D01*
X2197543Y3959168D01*
X2199901Y3958191D01*
Y3938875D01*
X2187478D01*
Y3887379D01*
X2242911D01*
Y3938875D01*
X2230488D01*
Y3958191D01*
X2232845Y3959168D01*
X2240157Y3964778D01*
X2245767Y3972089D01*
X2249294Y3980603D01*
X2250496Y3989740D01*
X2249294Y3998877D01*
X2245767Y4007391D01*
X2240157Y4014702D01*
X2232845Y4020313D01*
X2224331Y4023839D01*
X2215194Y4025042D01*
D02*
G37*
G36*
X1880904D02*
X1871767Y4023839D01*
X1863253Y4020313D01*
X1855941Y4014702D01*
X1850331Y4007391D01*
X1846805Y3998877D01*
X1845602Y3989740D01*
X1846805Y3980603D01*
X1850331Y3972089D01*
X1855941Y3964778D01*
X1863253Y3959168D01*
X1865610Y3958191D01*
Y3938875D01*
X1853187D01*
Y3887379D01*
X1908620D01*
Y3938875D01*
X1896198D01*
Y3958191D01*
X1898555Y3959168D01*
X1905866Y3964778D01*
X1911476Y3972089D01*
X1915003Y3980603D01*
X1916206Y3989740D01*
X1915003Y3998877D01*
X1911476Y4007391D01*
X1905866Y4014702D01*
X1898555Y4020313D01*
X1890041Y4023839D01*
X1880904Y4025042D01*
D02*
G37*
G36*
X1546613D02*
X1537476Y4023839D01*
X1528962Y4020313D01*
X1521651Y4014702D01*
X1516041Y4007391D01*
X1512514Y3998877D01*
X1511311Y3989740D01*
X1512514Y3980603D01*
X1516041Y3972089D01*
X1521651Y3964778D01*
X1528962Y3959168D01*
X1531319Y3958191D01*
Y3938875D01*
X1518897D01*
Y3887379D01*
X1574330D01*
Y3938875D01*
X1561907D01*
Y3958191D01*
X1564264Y3959168D01*
X1571575Y3964778D01*
X1577186Y3972089D01*
X1580712Y3980603D01*
X1581915Y3989740D01*
X1580712Y3998877D01*
X1577186Y4007391D01*
X1571575Y4014702D01*
X1564264Y4020313D01*
X1555750Y4023839D01*
X1546613Y4025042D01*
D02*
G37*
G36*
X1212323D02*
X1203186Y4023839D01*
X1194672Y4020313D01*
X1187360Y4014702D01*
X1181750Y4007391D01*
X1178224Y3998877D01*
X1177021Y3989740D01*
X1178224Y3980603D01*
X1181750Y3972089D01*
X1187360Y3964778D01*
X1194672Y3959168D01*
X1197029Y3958191D01*
Y3938875D01*
X1184606D01*
Y3887379D01*
X1240039D01*
Y3938875D01*
X1227617D01*
Y3958191D01*
X1229974Y3959168D01*
X1237285Y3964778D01*
X1242895Y3972089D01*
X1246422Y3980603D01*
X1247625Y3989740D01*
X1246422Y3998877D01*
X1242895Y4007391D01*
X1237285Y4014702D01*
X1229974Y4020313D01*
X1221459Y4023839D01*
X1212323Y4025042D01*
D02*
G37*
G36*
X602000Y3844644D02*
Y3815000D01*
X631644D01*
X631099Y3819137D01*
X627572Y3827651D01*
X621962Y3834962D01*
X614651Y3840572D01*
X606137Y3844099D01*
X602000Y3844644D01*
D02*
G37*
G36*
X592000D02*
X587863Y3844099D01*
X579349Y3840572D01*
X572038Y3834962D01*
X566428Y3827651D01*
X562901Y3819137D01*
X562356Y3815000D01*
X592000D01*
Y3844644D01*
D02*
G37*
G36*
X631644Y3805000D02*
X602000D01*
Y3775356D01*
X606137Y3775901D01*
X614651Y3779428D01*
X621962Y3785038D01*
X627572Y3792349D01*
X631099Y3800863D01*
X631644Y3805000D01*
D02*
G37*
G36*
X592000D02*
X562356D01*
X562901Y3800863D01*
X566428Y3792349D01*
X572038Y3785038D01*
X579349Y3779428D01*
X587863Y3775901D01*
X592000Y3775356D01*
Y3805000D01*
D02*
G37*
G36*
X4835024Y3895000D02*
X4705000D01*
Y3764976D01*
X4721184Y3766250D01*
X4741846Y3771210D01*
X4761478Y3779342D01*
X4779596Y3790445D01*
X4795755Y3804245D01*
X4809555Y3820404D01*
X4820658Y3838522D01*
X4828790Y3858154D01*
X4833750Y3878816D01*
X4835024Y3895000D01*
D02*
G37*
G36*
X4695000D02*
X4564976D01*
X4566250Y3878816D01*
X4571210Y3858154D01*
X4579342Y3838522D01*
X4590445Y3820404D01*
X4604245Y3804245D01*
X4620404Y3790445D01*
X4638522Y3779342D01*
X4658154Y3771210D01*
X4678816Y3766250D01*
X4695000Y3764976D01*
Y3895000D01*
D02*
G37*
G36*
X435024D02*
X305000D01*
Y3764976D01*
X321184Y3766250D01*
X341846Y3771210D01*
X361478Y3779342D01*
X379596Y3790445D01*
X395755Y3804245D01*
X409555Y3820404D01*
X420658Y3838522D01*
X428790Y3858154D01*
X433750Y3878816D01*
X435024Y3895000D01*
D02*
G37*
G36*
X295000D02*
X164976D01*
X166250Y3878816D01*
X171210Y3858154D01*
X179342Y3838522D01*
X190445Y3820404D01*
X204245Y3804245D01*
X220404Y3790445D01*
X238522Y3779342D01*
X258154Y3771210D01*
X278816Y3766250D01*
X295000Y3764976D01*
Y3895000D01*
D02*
G37*
G36*
X4248654Y3864072D02*
X4193221D01*
Y3812576D01*
X4205644D01*
Y3801867D01*
X4204271Y3801298D01*
X4196960Y3795688D01*
X4191350Y3788377D01*
X4187823Y3779862D01*
X4186620Y3770726D01*
X4187823Y3761589D01*
X4191350Y3753075D01*
X4196960Y3745763D01*
X4204271Y3740153D01*
X4212785Y3736626D01*
X4221922Y3735424D01*
X4231059Y3736626D01*
X4239573Y3740153D01*
X4246885Y3745763D01*
X4252495Y3753075D01*
X4256021Y3761589D01*
X4257224Y3770726D01*
X4256021Y3779862D01*
X4252495Y3788377D01*
X4246885Y3795688D01*
X4239573Y3801298D01*
X4236232Y3802682D01*
Y3812576D01*
X4248654D01*
Y3864072D01*
D02*
G37*
G36*
X3914364D02*
X3858931D01*
Y3812576D01*
X3871354D01*
Y3801867D01*
X3869981Y3801298D01*
X3862669Y3795688D01*
X3857059Y3788377D01*
X3853532Y3779862D01*
X3852330Y3770726D01*
X3853532Y3761589D01*
X3857059Y3753075D01*
X3862669Y3745763D01*
X3869981Y3740153D01*
X3878495Y3736626D01*
X3887632Y3735424D01*
X3896768Y3736626D01*
X3905283Y3740153D01*
X3912594Y3745763D01*
X3918204Y3753075D01*
X3921731Y3761589D01*
X3922934Y3770726D01*
X3921731Y3779862D01*
X3918204Y3788377D01*
X3912594Y3795688D01*
X3905283Y3801298D01*
X3901941Y3802682D01*
Y3812576D01*
X3914364D01*
Y3864072D01*
D02*
G37*
G36*
X3580073D02*
X3524640D01*
Y3812576D01*
X3537063D01*
Y3801867D01*
X3535690Y3801298D01*
X3528379Y3795688D01*
X3522769Y3788377D01*
X3519242Y3779862D01*
X3518039Y3770726D01*
X3519242Y3761589D01*
X3522769Y3753075D01*
X3528379Y3745763D01*
X3535690Y3740153D01*
X3544204Y3736626D01*
X3553341Y3735424D01*
X3562478Y3736626D01*
X3570992Y3740153D01*
X3578303Y3745763D01*
X3583913Y3753075D01*
X3587440Y3761589D01*
X3588643Y3770726D01*
X3587440Y3779862D01*
X3583913Y3788377D01*
X3578303Y3795688D01*
X3570992Y3801298D01*
X3567651Y3802682D01*
Y3812576D01*
X3580073D01*
Y3864072D01*
D02*
G37*
G36*
X3245783D02*
X3190350D01*
Y3812576D01*
X3202772D01*
Y3801867D01*
X3201399Y3801298D01*
X3194088Y3795688D01*
X3188478Y3788377D01*
X3184951Y3779862D01*
X3183748Y3770726D01*
X3184951Y3761589D01*
X3188478Y3753075D01*
X3194088Y3745763D01*
X3201399Y3740153D01*
X3209914Y3736626D01*
X3219050Y3735424D01*
X3228187Y3736626D01*
X3236701Y3740153D01*
X3244013Y3745763D01*
X3249623Y3753075D01*
X3253149Y3761589D01*
X3254352Y3770726D01*
X3253149Y3779862D01*
X3249623Y3788377D01*
X3244013Y3795688D01*
X3236701Y3801298D01*
X3233360Y3802682D01*
Y3812576D01*
X3245783D01*
Y3864072D01*
D02*
G37*
G36*
X2911492D02*
X2856059D01*
Y3812576D01*
X2868482D01*
Y3801867D01*
X2867109Y3801298D01*
X2859798Y3795688D01*
X2854187Y3788377D01*
X2850661Y3779862D01*
X2849458Y3770726D01*
X2850661Y3761589D01*
X2854187Y3753075D01*
X2859798Y3745763D01*
X2867109Y3740153D01*
X2875623Y3736626D01*
X2884760Y3735424D01*
X2893897Y3736626D01*
X2902411Y3740153D01*
X2909722Y3745763D01*
X2915332Y3753075D01*
X2918859Y3761589D01*
X2920062Y3770726D01*
X2918859Y3779862D01*
X2915332Y3788377D01*
X2909722Y3795688D01*
X2902411Y3801298D01*
X2899070Y3802682D01*
Y3812576D01*
X2911492D01*
Y3864072D01*
D02*
G37*
G36*
X2577202Y3864072D02*
X2521769D01*
Y3812576D01*
X2534191D01*
Y3801867D01*
X2532818Y3801298D01*
X2525507Y3795688D01*
X2519897Y3788377D01*
X2516370Y3779862D01*
X2515167Y3770726D01*
X2516370Y3761589D01*
X2519897Y3753075D01*
X2525507Y3745763D01*
X2532818Y3740153D01*
X2541332Y3736626D01*
X2550469Y3735424D01*
X2559606Y3736626D01*
X2568120Y3740153D01*
X2575432Y3745763D01*
X2581042Y3753075D01*
X2584568Y3761589D01*
X2585771Y3770726D01*
X2584568Y3779862D01*
X2581042Y3788377D01*
X2575432Y3795688D01*
X2568120Y3801298D01*
X2564779Y3802682D01*
Y3812576D01*
X2577202D01*
Y3864072D01*
D02*
G37*
G36*
X2242911D02*
X2187478D01*
Y3812576D01*
X2199901D01*
Y3801867D01*
X2198528Y3801298D01*
X2191216Y3795688D01*
X2185606Y3788377D01*
X2182079Y3779862D01*
X2180877Y3770726D01*
X2182079Y3761589D01*
X2185606Y3753075D01*
X2191216Y3745763D01*
X2198528Y3740153D01*
X2207042Y3736626D01*
X2216179Y3735424D01*
X2225315Y3736626D01*
X2233830Y3740153D01*
X2241141Y3745763D01*
X2246751Y3753075D01*
X2250278Y3761589D01*
X2251481Y3770726D01*
X2250278Y3779862D01*
X2246751Y3788377D01*
X2241141Y3795688D01*
X2233830Y3801298D01*
X2230488Y3802682D01*
Y3812576D01*
X2242911D01*
Y3864072D01*
D02*
G37*
G36*
X1908620D02*
X1853187D01*
Y3812576D01*
X1865610D01*
Y3801867D01*
X1864237Y3801298D01*
X1856926Y3795688D01*
X1851316Y3788377D01*
X1847789Y3779862D01*
X1846586Y3770726D01*
X1847789Y3761589D01*
X1851316Y3753075D01*
X1856926Y3745763D01*
X1864237Y3740153D01*
X1872751Y3736626D01*
X1881888Y3735424D01*
X1891025Y3736626D01*
X1899539Y3740153D01*
X1906850Y3745763D01*
X1912460Y3753075D01*
X1915987Y3761589D01*
X1917190Y3770726D01*
X1915987Y3779862D01*
X1912460Y3788377D01*
X1906850Y3795688D01*
X1899539Y3801298D01*
X1896198Y3802682D01*
Y3812576D01*
X1908620D01*
Y3864072D01*
D02*
G37*
G36*
X1574330D02*
X1518897D01*
Y3812576D01*
X1531319D01*
Y3801867D01*
X1529946Y3801298D01*
X1522635Y3795688D01*
X1517025Y3788377D01*
X1513498Y3779862D01*
X1512295Y3770726D01*
X1513498Y3761589D01*
X1517025Y3753075D01*
X1522635Y3745763D01*
X1529946Y3740153D01*
X1538461Y3736626D01*
X1547597Y3735424D01*
X1556734Y3736626D01*
X1565248Y3740153D01*
X1572560Y3745763D01*
X1578170Y3753075D01*
X1581697Y3761589D01*
X1582899Y3770726D01*
X1581697Y3779862D01*
X1578170Y3788377D01*
X1572560Y3795688D01*
X1565248Y3801298D01*
X1561907Y3802682D01*
Y3812576D01*
X1574330D01*
Y3864072D01*
D02*
G37*
G36*
X1240039D02*
X1184606D01*
Y3812576D01*
X1197029D01*
Y3801867D01*
X1195656Y3801298D01*
X1188344Y3795688D01*
X1182734Y3788377D01*
X1179208Y3779862D01*
X1178005Y3770726D01*
X1179208Y3761589D01*
X1182734Y3753075D01*
X1188344Y3745763D01*
X1195656Y3740153D01*
X1204170Y3736626D01*
X1213307Y3735424D01*
X1222444Y3736626D01*
X1230958Y3740153D01*
X1238269Y3745763D01*
X1243879Y3753075D01*
X1247406Y3761589D01*
X1248609Y3770726D01*
X1247406Y3779862D01*
X1243879Y3788377D01*
X1238269Y3795688D01*
X1230958Y3801298D01*
X1227617Y3802682D01*
Y3812576D01*
X1240039D01*
Y3864072D01*
D02*
G37*
G36*
X905749Y3864072D02*
X850316D01*
Y3812576D01*
X862738D01*
Y3801867D01*
X861365Y3801298D01*
X854054Y3795688D01*
X848444Y3788377D01*
X844917Y3779862D01*
X843714Y3770726D01*
X844917Y3761589D01*
X848444Y3753075D01*
X854054Y3745763D01*
X861365Y3740153D01*
X869879Y3736626D01*
X879016Y3735424D01*
X888153Y3736626D01*
X896667Y3740153D01*
X903979Y3745763D01*
X909589Y3753075D01*
X913115Y3761589D01*
X914318Y3770726D01*
X913115Y3779862D01*
X909589Y3788377D01*
X903979Y3795688D01*
X896667Y3801298D01*
X893326Y3802682D01*
Y3812576D01*
X905749D01*
Y3864072D01*
D02*
G37*
G36*
X4327395Y3901473D02*
X4271962D01*
Y3849977D01*
X4284384D01*
Y3800030D01*
X4282027Y3799054D01*
X4274716Y3793444D01*
X4269106Y3786133D01*
X4265579Y3777618D01*
X4264376Y3768482D01*
X4265579Y3759345D01*
X4269106Y3750831D01*
X4274716Y3743519D01*
X4282027Y3737909D01*
X4290541Y3734383D01*
X4299678Y3733180D01*
X4308815Y3734383D01*
X4317329Y3737909D01*
X4324641Y3743519D01*
X4330251Y3750831D01*
X4333777Y3759345D01*
X4334980Y3768482D01*
X4333777Y3777618D01*
X4330251Y3786133D01*
X4324641Y3793444D01*
X4317329Y3799054D01*
X4314972Y3800030D01*
Y3849977D01*
X4327395D01*
Y3901473D01*
D02*
G37*
G36*
X3993104D02*
X3937671D01*
Y3849977D01*
X3950094D01*
Y3800030D01*
X3947737Y3799054D01*
X3940425Y3793444D01*
X3934815Y3786133D01*
X3931289Y3777618D01*
X3930086Y3768482D01*
X3931289Y3759345D01*
X3934815Y3750831D01*
X3940425Y3743519D01*
X3947737Y3737909D01*
X3956251Y3734383D01*
X3965388Y3733180D01*
X3974524Y3734383D01*
X3983039Y3737909D01*
X3990350Y3743519D01*
X3995960Y3750831D01*
X3999487Y3759345D01*
X4000690Y3768482D01*
X3999487Y3777618D01*
X3995960Y3786133D01*
X3990350Y3793444D01*
X3983039Y3799054D01*
X3980682Y3800030D01*
Y3849977D01*
X3993104D01*
Y3901473D01*
D02*
G37*
G36*
X3658814D02*
X3603381D01*
Y3849977D01*
X3615803D01*
Y3800030D01*
X3613446Y3799054D01*
X3606135Y3793444D01*
X3600525Y3786133D01*
X3596998Y3777618D01*
X3595795Y3768482D01*
X3596998Y3759345D01*
X3600525Y3750831D01*
X3606135Y3743519D01*
X3613446Y3737909D01*
X3621960Y3734383D01*
X3631097Y3733180D01*
X3640234Y3734383D01*
X3648748Y3737909D01*
X3656059Y3743519D01*
X3661669Y3750831D01*
X3665196Y3759345D01*
X3666399Y3768482D01*
X3665196Y3777618D01*
X3661669Y3786133D01*
X3656059Y3793444D01*
X3648748Y3799054D01*
X3646391Y3800030D01*
Y3849977D01*
X3658814D01*
Y3901473D01*
D02*
G37*
G36*
X3324523D02*
X3269090D01*
Y3849977D01*
X3281512D01*
Y3800030D01*
X3279155Y3799054D01*
X3271844Y3793444D01*
X3266234Y3786133D01*
X3262707Y3777618D01*
X3261504Y3768482D01*
X3262707Y3759345D01*
X3266234Y3750831D01*
X3271844Y3743519D01*
X3279155Y3737909D01*
X3287670Y3734383D01*
X3296806Y3733180D01*
X3305943Y3734383D01*
X3314457Y3737909D01*
X3321769Y3743519D01*
X3327379Y3750831D01*
X3330905Y3759345D01*
X3332108Y3768482D01*
X3330905Y3777618D01*
X3327379Y3786133D01*
X3321769Y3793444D01*
X3314457Y3799054D01*
X3312100Y3800030D01*
Y3849977D01*
X3324523D01*
Y3901473D01*
D02*
G37*
G36*
X2990232D02*
X2934799D01*
Y3849977D01*
X2947222D01*
Y3800030D01*
X2944865Y3799054D01*
X2937553Y3793444D01*
X2931943Y3786133D01*
X2928417Y3777618D01*
X2927214Y3768482D01*
X2928417Y3759345D01*
X2931943Y3750831D01*
X2937553Y3743519D01*
X2944865Y3737909D01*
X2953379Y3734383D01*
X2962516Y3733180D01*
X2971653Y3734383D01*
X2980167Y3737909D01*
X2987478Y3743519D01*
X2993088Y3750831D01*
X2996615Y3759345D01*
X2997818Y3768482D01*
X2996615Y3777618D01*
X2993088Y3786133D01*
X2987478Y3793444D01*
X2980167Y3799054D01*
X2977810Y3800030D01*
Y3849977D01*
X2990232D01*
Y3901473D01*
D02*
G37*
G36*
X2655942Y3901473D02*
X2600509D01*
Y3849977D01*
X2612931D01*
Y3800030D01*
X2610574Y3799054D01*
X2603263Y3793444D01*
X2597653Y3786133D01*
X2594126Y3777618D01*
X2592923Y3768482D01*
X2594126Y3759345D01*
X2597653Y3750831D01*
X2603263Y3743519D01*
X2610574Y3737909D01*
X2619088Y3734383D01*
X2628225Y3733180D01*
X2637362Y3734383D01*
X2645876Y3737909D01*
X2653188Y3743519D01*
X2658798Y3750831D01*
X2662324Y3759345D01*
X2663527Y3768482D01*
X2662324Y3777618D01*
X2658798Y3786133D01*
X2653188Y3793444D01*
X2645876Y3799054D01*
X2643519Y3800030D01*
Y3849977D01*
X2655942D01*
Y3901473D01*
D02*
G37*
G36*
X2321651D02*
X2266218D01*
Y3849977D01*
X2278641D01*
Y3800030D01*
X2276284Y3799054D01*
X2268972Y3793444D01*
X2263362Y3786133D01*
X2259836Y3777618D01*
X2258633Y3768482D01*
X2259836Y3759345D01*
X2263362Y3750831D01*
X2268972Y3743519D01*
X2276284Y3737909D01*
X2284798Y3734383D01*
X2293935Y3733180D01*
X2303071Y3734383D01*
X2311586Y3737909D01*
X2318897Y3743519D01*
X2324507Y3750831D01*
X2328034Y3759345D01*
X2329237Y3768482D01*
X2328034Y3777618D01*
X2324507Y3786133D01*
X2318897Y3793444D01*
X2311586Y3799054D01*
X2309229Y3800030D01*
Y3849977D01*
X2321651D01*
Y3901473D01*
D02*
G37*
G36*
X1987361D02*
X1931928D01*
Y3849977D01*
X1944350D01*
Y3800030D01*
X1941993Y3799054D01*
X1934682Y3793444D01*
X1929072Y3786133D01*
X1925545Y3777618D01*
X1924342Y3768482D01*
X1925545Y3759345D01*
X1929072Y3750831D01*
X1934682Y3743519D01*
X1941993Y3737909D01*
X1950507Y3734383D01*
X1959644Y3733180D01*
X1968781Y3734383D01*
X1977295Y3737909D01*
X1984606Y3743519D01*
X1990216Y3750831D01*
X1993743Y3759345D01*
X1994946Y3768482D01*
X1993743Y3777618D01*
X1990216Y3786133D01*
X1984606Y3793444D01*
X1977295Y3799054D01*
X1974938Y3800030D01*
Y3849977D01*
X1987361D01*
Y3901473D01*
D02*
G37*
G36*
X1653070D02*
X1597637D01*
Y3849977D01*
X1610060D01*
Y3800030D01*
X1607702Y3799054D01*
X1600391Y3793444D01*
X1594781Y3786133D01*
X1591254Y3777618D01*
X1590051Y3768482D01*
X1591254Y3759345D01*
X1594781Y3750831D01*
X1600391Y3743519D01*
X1607702Y3737909D01*
X1616217Y3734383D01*
X1625353Y3733180D01*
X1634490Y3734383D01*
X1643004Y3737909D01*
X1650316Y3743519D01*
X1655926Y3750831D01*
X1659453Y3759345D01*
X1660655Y3768482D01*
X1659453Y3777618D01*
X1655926Y3786133D01*
X1650316Y3793444D01*
X1643004Y3799054D01*
X1640647Y3800030D01*
Y3849977D01*
X1653070D01*
Y3901473D01*
D02*
G37*
G36*
X1318779D02*
X1263346D01*
Y3849977D01*
X1275769D01*
Y3800030D01*
X1273412Y3799054D01*
X1266101Y3793444D01*
X1260490Y3786133D01*
X1256964Y3777618D01*
X1255761Y3768482D01*
X1256964Y3759345D01*
X1260490Y3750831D01*
X1266101Y3743519D01*
X1273412Y3737909D01*
X1281926Y3734383D01*
X1291063Y3733180D01*
X1300200Y3734383D01*
X1308714Y3737909D01*
X1316025Y3743519D01*
X1321635Y3750831D01*
X1325162Y3759345D01*
X1326365Y3768482D01*
X1325162Y3777618D01*
X1321635Y3786133D01*
X1316025Y3793444D01*
X1308714Y3799054D01*
X1306357Y3800030D01*
Y3849977D01*
X1318779D01*
Y3901473D01*
D02*
G37*
G36*
X984489Y3901473D02*
X929056D01*
Y3849977D01*
X941478D01*
Y3800030D01*
X939121Y3799054D01*
X931810Y3793444D01*
X926200Y3786133D01*
X922673Y3777618D01*
X921470Y3768482D01*
X922673Y3759345D01*
X926200Y3750831D01*
X931810Y3743519D01*
X939121Y3737909D01*
X947635Y3734383D01*
X956772Y3733180D01*
X965909Y3734383D01*
X974423Y3737909D01*
X981735Y3743519D01*
X987345Y3750831D01*
X990871Y3759345D01*
X992074Y3768482D01*
X990871Y3777618D01*
X987345Y3786133D01*
X981735Y3793444D01*
X974423Y3799054D01*
X972066Y3800030D01*
Y3849977D01*
X984489D01*
Y3901473D01*
D02*
G37*
G36*
X150000Y3575323D02*
X135305Y3573876D01*
X121175Y3569590D01*
X108153Y3562629D01*
X96738Y3553262D01*
X87371Y3541847D01*
X80410Y3528825D01*
X76124Y3514695D01*
X74677Y3500000D01*
X76124Y3485305D01*
X80410Y3471175D01*
X87371Y3458153D01*
X96738Y3446738D01*
X108153Y3437371D01*
X121175Y3430410D01*
X135305Y3426124D01*
X150000Y3424677D01*
X164695Y3426124D01*
X178825Y3430410D01*
X191847Y3437371D01*
X203262Y3446738D01*
X212629Y3458153D01*
X219590Y3471175D01*
X223876Y3485305D01*
X225323Y3500000D01*
X223876Y3514695D01*
X219590Y3528825D01*
X212629Y3541847D01*
X203262Y3553262D01*
X191847Y3562629D01*
X178825Y3569590D01*
X164695Y3573876D01*
X150000Y3575323D01*
D02*
G37*
G36*
X3935000Y3154644D02*
Y3125000D01*
X3964644D01*
X3964099Y3129137D01*
X3960572Y3137651D01*
X3954962Y3144962D01*
X3947651Y3150572D01*
X3939137Y3154099D01*
X3935000Y3154644D01*
D02*
G37*
G36*
X3925000D02*
X3920863Y3154099D01*
X3912349Y3150572D01*
X3905038Y3144962D01*
X3899428Y3137651D01*
X3895901Y3129137D01*
X3895356Y3125000D01*
X3925000D01*
Y3154644D01*
D02*
G37*
G36*
X3964644Y3115000D02*
X3935000D01*
Y3085356D01*
X3939137Y3085901D01*
X3947651Y3089428D01*
X3954962Y3095038D01*
X3960572Y3102349D01*
X3964099Y3110863D01*
X3964644Y3115000D01*
D02*
G37*
G36*
X3925000D02*
X3895356D01*
X3895901Y3110863D01*
X3899428Y3102349D01*
X3905038Y3095038D01*
X3912349Y3089428D01*
X3920863Y3085901D01*
X3925000Y3085356D01*
Y3115000D01*
D02*
G37*
G36*
X3425000Y3014644D02*
Y2985000D01*
X3454644D01*
X3454099Y2989137D01*
X3450572Y2997651D01*
X3444962Y3004962D01*
X3437651Y3010572D01*
X3429137Y3014099D01*
X3425000Y3014644D01*
D02*
G37*
G36*
X3415000D02*
X3410863Y3014099D01*
X3402349Y3010572D01*
X3395038Y3004962D01*
X3389428Y2997651D01*
X3385901Y2989137D01*
X3385356Y2985000D01*
X3415000D01*
Y3014644D01*
D02*
G37*
G36*
X3454644Y2975000D02*
X3425000D01*
Y2945356D01*
X3429137Y2945901D01*
X3437651Y2949428D01*
X3444962Y2955038D01*
X3450572Y2962349D01*
X3454099Y2970863D01*
X3454644Y2975000D01*
D02*
G37*
G36*
X3415000D02*
X3385356D01*
X3385901Y2970863D01*
X3389428Y2962349D01*
X3395038Y2955038D01*
X3402349Y2949428D01*
X3410863Y2945901D01*
X3415000Y2945356D01*
Y2975000D01*
D02*
G37*
G36*
X4865000Y2884644D02*
Y2855000D01*
X4894644D01*
X4894099Y2859137D01*
X4890572Y2867651D01*
X4884962Y2874962D01*
X4877651Y2880572D01*
X4869137Y2884099D01*
X4865000Y2884644D01*
D02*
G37*
G36*
X4855000D02*
X4850863Y2884099D01*
X4842349Y2880572D01*
X4835038Y2874962D01*
X4829428Y2867651D01*
X4825901Y2859137D01*
X4825356Y2855000D01*
X4855000D01*
Y2884644D01*
D02*
G37*
G36*
X4894644Y2845000D02*
X4865000D01*
Y2815356D01*
X4869137Y2815901D01*
X4877651Y2819428D01*
X4884962Y2825038D01*
X4890572Y2832349D01*
X4894099Y2840863D01*
X4894644Y2845000D01*
D02*
G37*
G36*
X4855000D02*
X4825356D01*
X4825901Y2840863D01*
X4829428Y2832349D01*
X4835038Y2825038D01*
X4842349Y2819428D01*
X4850863Y2815901D01*
X4855000Y2815356D01*
Y2845000D01*
D02*
G37*
G36*
X185000Y2803653D02*
Y2774010D01*
X214644D01*
X214099Y2778146D01*
X210572Y2786660D01*
X204962Y2793972D01*
X197651Y2799582D01*
X189137Y2803109D01*
X185000Y2803653D01*
D02*
G37*
G36*
X175000D02*
X170863Y2803109D01*
X162349Y2799582D01*
X155038Y2793972D01*
X149428Y2786660D01*
X145901Y2778146D01*
X145356Y2774010D01*
X175000D01*
Y2803653D01*
D02*
G37*
G36*
X214644Y2764010D02*
X185000D01*
Y2734366D01*
X189137Y2734910D01*
X197651Y2738437D01*
X204962Y2744047D01*
X210572Y2751358D01*
X214099Y2759873D01*
X214644Y2764010D01*
D02*
G37*
G36*
X175000D02*
X145356D01*
X145901Y2759873D01*
X149428Y2751358D01*
X155038Y2744047D01*
X162349Y2738437D01*
X170863Y2734910D01*
X175000Y2734366D01*
Y2764010D01*
D02*
G37*
G36*
X4515000Y2744644D02*
Y2715000D01*
X4544644D01*
X4544099Y2719137D01*
X4540572Y2727651D01*
X4534962Y2734962D01*
X4527651Y2740572D01*
X4519137Y2744099D01*
X4515000Y2744644D01*
D02*
G37*
G36*
X4505000D02*
X4500863Y2744099D01*
X4492349Y2740572D01*
X4485038Y2734962D01*
X4479428Y2727651D01*
X4475901Y2719137D01*
X4475356Y2715000D01*
X4505000D01*
Y2744644D01*
D02*
G37*
G36*
X4544644Y2705000D02*
X4515000D01*
Y2675356D01*
X4519137Y2675901D01*
X4527651Y2679428D01*
X4534962Y2685038D01*
X4540572Y2692349D01*
X4544099Y2700863D01*
X4544644Y2705000D01*
D02*
G37*
G36*
X4505000D02*
X4475356D01*
X4475901Y2700863D01*
X4479428Y2692349D01*
X4485038Y2685038D01*
X4492349Y2679428D01*
X4500863Y2675901D01*
X4505000Y2675356D01*
Y2705000D01*
D02*
G37*
G36*
X4010977Y3635302D02*
X4001840Y3634099D01*
X3993326Y3630572D01*
X3986015Y3624962D01*
X3980405Y3617651D01*
X3976878Y3609137D01*
X3975675Y3600000D01*
X3976878Y3590863D01*
X3980405Y3582349D01*
X3986015Y3575038D01*
X3993326Y3569428D01*
X3995683Y3568451D01*
Y2820483D01*
X3800623Y2625423D01*
X3787048Y2631046D01*
X3772104Y2633014D01*
X3757161Y2631046D01*
X3743235Y2625278D01*
X3731277Y2616103D01*
X3722102Y2604145D01*
X3716334Y2590219D01*
X3714366Y2575276D01*
X3716334Y2560332D01*
X3722102Y2546407D01*
X3731277Y2534449D01*
X3743235Y2525273D01*
X3757161Y2519505D01*
X3772104Y2517537D01*
X3787048Y2519505D01*
X3800973Y2525273D01*
X3812931Y2534449D01*
X3822107Y2546407D01*
X3827875Y2560332D01*
X3829843Y2575276D01*
X3827875Y2590219D01*
X3822252Y2603794D01*
X4021791Y2803334D01*
X4025107Y2808295D01*
X4026271Y2814148D01*
Y3568451D01*
X4028628Y3569428D01*
X4035939Y3575038D01*
X4041549Y3582349D01*
X4045076Y3590863D01*
X4046279Y3600000D01*
X4045076Y3609137D01*
X4041549Y3617651D01*
X4035939Y3624962D01*
X4028628Y3630572D01*
X4020114Y3634099D01*
X4010977Y3635302D01*
D02*
G37*
G36*
X3676686D02*
X3667550Y3634099D01*
X3659035Y3630572D01*
X3651724Y3624962D01*
X3646114Y3617651D01*
X3642587Y3609137D01*
X3641384Y3600000D01*
X3642587Y3590863D01*
X3646114Y3582349D01*
X3651724Y3575038D01*
X3659035Y3569428D01*
X3661392Y3568451D01*
Y2824801D01*
X3461739Y2625148D01*
X3448164Y2630771D01*
X3433220Y2632738D01*
X3418276Y2630771D01*
X3404351Y2625003D01*
X3392393Y2615827D01*
X3383217Y2603869D01*
X3377449Y2589944D01*
X3375482Y2575000D01*
X3377449Y2560056D01*
X3383217Y2546131D01*
X3392393Y2534173D01*
X3404351Y2524997D01*
X3418276Y2519229D01*
X3433220Y2517262D01*
X3448164Y2519229D01*
X3462089Y2524997D01*
X3474047Y2534173D01*
X3483222Y2546131D01*
X3488990Y2560056D01*
X3490958Y2575000D01*
X3488990Y2589944D01*
X3483367Y2603519D01*
X3687501Y2807652D01*
X3690816Y2812614D01*
X3691980Y2818466D01*
Y3568451D01*
X3694337Y3569428D01*
X3701649Y3575038D01*
X3707259Y3582349D01*
X3710785Y3590863D01*
X3711988Y3600000D01*
X3710785Y3609137D01*
X3707259Y3617651D01*
X3701649Y3624962D01*
X3694337Y3630572D01*
X3685823Y3634099D01*
X3676686Y3635302D01*
D02*
G37*
G36*
X3978379Y2633188D02*
X3963435Y2631220D01*
X3949510Y2625452D01*
X3937552Y2616277D01*
X3928376Y2604319D01*
X3922608Y2590393D01*
X3920640Y2575450D01*
X3922608Y2560506D01*
X3928376Y2546581D01*
X3937552Y2534623D01*
X3949510Y2525447D01*
X3963435Y2519679D01*
X3978379Y2517711D01*
X3993322Y2519679D01*
X4007248Y2525447D01*
X4019206Y2534623D01*
X4028381Y2546581D01*
X4034149Y2560506D01*
X4036117Y2575450D01*
X4034149Y2590393D01*
X4028381Y2604319D01*
X4019206Y2616277D01*
X4007248Y2625452D01*
X3993322Y2631220D01*
X3978379Y2633188D01*
D02*
G37*
G36*
X3638246Y2633014D02*
X3623302Y2631046D01*
X3609377Y2625278D01*
X3597419Y2616103D01*
X3588243Y2604145D01*
X3582475Y2590219D01*
X3580508Y2575276D01*
X3582475Y2560332D01*
X3588243Y2546407D01*
X3597419Y2534449D01*
X3609377Y2525273D01*
X3623302Y2519505D01*
X3638246Y2517537D01*
X3653190Y2519505D01*
X3667115Y2525273D01*
X3679073Y2534449D01*
X3688249Y2546407D01*
X3694017Y2560332D01*
X3695984Y2575276D01*
X3694017Y2590219D01*
X3688249Y2604145D01*
X3679073Y2616103D01*
X3667115Y2625278D01*
X3653190Y2631046D01*
X3638246Y2633014D01*
D02*
G37*
G36*
X3299361Y2632738D02*
X3284418Y2630771D01*
X3270492Y2625003D01*
X3258535Y2615827D01*
X3249359Y2603869D01*
X3243591Y2589944D01*
X3241623Y2575000D01*
X3243591Y2560056D01*
X3249359Y2546131D01*
X3258535Y2534173D01*
X3270492Y2524997D01*
X3284418Y2519229D01*
X3299361Y2517262D01*
X3314305Y2519229D01*
X3328231Y2524997D01*
X3340189Y2534173D01*
X3349364Y2546131D01*
X3355132Y2560056D01*
X3357100Y2575000D01*
X3355132Y2589944D01*
X3349364Y2603869D01*
X3340189Y2615827D01*
X3328231Y2625003D01*
X3314305Y2630771D01*
X3299361Y2632738D01*
D02*
G37*
G36*
X4344456Y3635302D02*
X4335319Y3634099D01*
X4326805Y3630572D01*
X4319493Y3624962D01*
X4313883Y3617651D01*
X4310357Y3609137D01*
X4309154Y3600000D01*
X4310357Y3590863D01*
X4313883Y3582349D01*
X4319493Y3575038D01*
X4326805Y3569428D01*
X4329162Y3568451D01*
Y2814003D01*
X4140756Y2625597D01*
X4127181Y2631220D01*
X4112237Y2633188D01*
X4097293Y2631220D01*
X4083368Y2625452D01*
X4071410Y2616277D01*
X4062234Y2604319D01*
X4056466Y2590393D01*
X4054499Y2575450D01*
X4056466Y2560506D01*
X4062234Y2546581D01*
X4071410Y2534623D01*
X4083368Y2525447D01*
X4097293Y2519679D01*
X4112237Y2517711D01*
X4127181Y2519679D01*
X4141106Y2525447D01*
X4153064Y2534623D01*
X4162240Y2546581D01*
X4168008Y2560506D01*
X4169975Y2575450D01*
X4168008Y2590393D01*
X4162385Y2603968D01*
X4345374Y2786958D01*
X4349993Y2785044D01*
Y1936058D01*
X3793363Y1379428D01*
X3788834Y1381970D01*
X3787007Y1395842D01*
X3781239Y1409767D01*
X3772064Y1421725D01*
X3760106Y1430901D01*
X3746180Y1436669D01*
X3731237Y1438637D01*
X3716293Y1436669D01*
X3702368Y1430901D01*
X3690410Y1421725D01*
X3681234Y1409767D01*
X3675466Y1395842D01*
X3673499Y1380898D01*
X3675466Y1365955D01*
X3681234Y1352029D01*
X3690097Y1340479D01*
X3689493Y1337370D01*
X3688851Y1335479D01*
X3639764D01*
X3639122Y1337370D01*
X3638518Y1340479D01*
X3647381Y1352029D01*
X3653149Y1365955D01*
X3655117Y1380898D01*
X3653149Y1395842D01*
X3647381Y1409767D01*
X3638205Y1421725D01*
X3626247Y1430901D01*
X3612322Y1436669D01*
X3597378Y1438637D01*
X3582435Y1436669D01*
X3568860Y1431046D01*
X3318566Y1681340D01*
Y1749146D01*
X3323566Y1750140D01*
X3326884Y1742131D01*
X3336059Y1730173D01*
X3348017Y1720997D01*
X3361943Y1715229D01*
X3376886Y1713262D01*
X3391830Y1715229D01*
X3405755Y1720997D01*
X3417713Y1730173D01*
X3426889Y1742131D01*
X3432657Y1756056D01*
X3434624Y1771000D01*
X3432657Y1785944D01*
X3426889Y1799869D01*
X3417713Y1811827D01*
X3405755Y1821003D01*
X3391830Y1826771D01*
X3376886Y1828738D01*
X3361943Y1826771D01*
X3348017Y1821003D01*
X3336059Y1811827D01*
X3326884Y1799869D01*
X3323566Y1791860D01*
X3318566Y1792854D01*
Y1908277D01*
X3317402Y1914130D01*
X3314086Y1919092D01*
X3111591Y2121588D01*
X3114119Y2126131D01*
X3127967Y2127954D01*
X3141892Y2133722D01*
X3153850Y2142897D01*
X3163026Y2154855D01*
X3168794Y2168781D01*
X3170761Y2183724D01*
X3168794Y2198668D01*
X3163026Y2212593D01*
X3153850Y2224551D01*
X3141892Y2233727D01*
X3127967Y2239495D01*
X3113023Y2241463D01*
X3098079Y2239495D01*
X3084154Y2233727D01*
X3073073Y2225224D01*
X3068073Y2226649D01*
Y2531351D01*
X3073073Y2532776D01*
X3084154Y2524273D01*
X3098079Y2518505D01*
X3113023Y2516537D01*
X3127967Y2518505D01*
X3141892Y2524273D01*
X3153850Y2533449D01*
X3163026Y2545407D01*
X3168794Y2559332D01*
X3170761Y2574276D01*
X3168794Y2589219D01*
X3163171Y2602794D01*
X3353210Y2792834D01*
X3356525Y2797795D01*
X3357690Y2803648D01*
Y3568451D01*
X3360047Y3569428D01*
X3367358Y3575038D01*
X3372968Y3582349D01*
X3376495Y3590863D01*
X3377698Y3600000D01*
X3376495Y3609137D01*
X3372968Y3617651D01*
X3367358Y3624962D01*
X3360047Y3630572D01*
X3351532Y3634099D01*
X3342396Y3635302D01*
X3333259Y3634099D01*
X3324745Y3630572D01*
X3317433Y3624962D01*
X3311823Y3617651D01*
X3308297Y3609137D01*
X3307094Y3600000D01*
X3308297Y3590863D01*
X3311823Y3582349D01*
X3317433Y3575038D01*
X3324745Y3569428D01*
X3327102Y3568451D01*
Y2809983D01*
X3141542Y2624423D01*
X3127967Y2630046D01*
X3113023Y2632014D01*
X3098079Y2630046D01*
X3084154Y2624278D01*
X3073073Y2615775D01*
X3068073Y2617200D01*
Y3505326D01*
X3066909Y3511179D01*
X3063593Y3516140D01*
X3023399Y3556335D01*
Y3568451D01*
X3025756Y3569428D01*
X3033067Y3575038D01*
X3038677Y3582349D01*
X3042204Y3590863D01*
X3043407Y3600000D01*
X3042204Y3609137D01*
X3038677Y3617651D01*
X3033067Y3624962D01*
X3025756Y3630572D01*
X3017242Y3634099D01*
X3008105Y3635302D01*
X2998968Y3634099D01*
X2990454Y3630572D01*
X2983143Y3624962D01*
X2977533Y3617651D01*
X2974006Y3609137D01*
X2972803Y3600000D01*
X2974006Y3590863D01*
X2977533Y3582349D01*
X2983143Y3575038D01*
X2990454Y3569428D01*
X2992811Y3568451D01*
Y3550000D01*
X2993975Y3544147D01*
X2997291Y3539186D01*
X3037485Y3498991D01*
Y3486677D01*
X3032866Y3484763D01*
X2906814Y3610814D01*
X2901853Y3614130D01*
X2896000Y3615294D01*
X2890874Y3614274D01*
X2705786D01*
X2704387Y3617651D01*
X2698777Y3624962D01*
X2691465Y3630572D01*
X2682951Y3634099D01*
X2673814Y3635302D01*
X2664678Y3634099D01*
X2656164Y3630572D01*
X2648852Y3624962D01*
X2643242Y3617651D01*
X2639715Y3609137D01*
X2638512Y3600000D01*
X2639715Y3590863D01*
X2643242Y3582349D01*
X2648852Y3575038D01*
X2656164Y3569428D01*
X2664678Y3565901D01*
X2673814Y3564698D01*
X2682951Y3565901D01*
X2691465Y3569428D01*
X2698777Y3575038D01*
X2704387Y3582349D01*
X2705786Y3585726D01*
X2888646D01*
X3012706Y3461665D01*
Y3419994D01*
X3007706Y3417923D01*
X2982814Y3442814D01*
X2977853Y3446130D01*
X2972000Y3447294D01*
X2792721D01*
X2786868Y3446130D01*
X2781906Y3442814D01*
X2736513Y3397421D01*
X2533335D01*
X2322941Y3607814D01*
X2317979Y3611130D01*
X2312127Y3612294D01*
X2307001Y3611274D01*
X867603D01*
X862140Y3610188D01*
X857509Y3607093D01*
X857509Y3607093D01*
X464262Y3213846D01*
X459468Y3216123D01*
X457841Y3228483D01*
X452469Y3241450D01*
X443925Y3252586D01*
X432789Y3261131D01*
X419821Y3266502D01*
X405906Y3268334D01*
X391990Y3266502D01*
X379022Y3261131D01*
X367886Y3252586D01*
X359342Y3241450D01*
X353971Y3228483D01*
X352138Y3214567D01*
X353971Y3200651D01*
X359342Y3187683D01*
X367886Y3176548D01*
X379022Y3168003D01*
X391990Y3162632D01*
X405906Y3160800D01*
X419821Y3162632D01*
X429749Y3166744D01*
X434749Y3163431D01*
Y3147593D01*
X429749Y3144280D01*
X419821Y3148392D01*
X405906Y3150224D01*
X391990Y3148392D01*
X379022Y3143020D01*
X367886Y3134476D01*
X359342Y3123340D01*
X353971Y3110373D01*
X352138Y3096457D01*
X353971Y3082541D01*
X359342Y3069573D01*
X367886Y3058438D01*
X376019Y3052197D01*
X376230Y3047074D01*
X340505Y3011349D01*
X337411Y3006718D01*
X336324Y3001255D01*
X336324Y3001255D01*
Y2119402D01*
X336324Y2119402D01*
X337411Y2113939D01*
X340505Y2109308D01*
X570206Y1879608D01*
X570206Y1879607D01*
X574837Y1876513D01*
X580299Y1875426D01*
X580300Y1875427D01*
X674386D01*
X1200875Y1348938D01*
Y1199018D01*
X1200875Y1199017D01*
X1201962Y1193555D01*
X1205056Y1188924D01*
X1771092Y622888D01*
Y569925D01*
X1800987D01*
Y560575D01*
X1771092D01*
Y487425D01*
X1788436D01*
Y344730D01*
X1789600Y338877D01*
X1792915Y333915D01*
X1825645Y301186D01*
X1830607Y297870D01*
X1836460Y296706D01*
X1999000D01*
X2004853Y297870D01*
X2009814Y301186D01*
X2068395Y359766D01*
X2071710Y364728D01*
X2072874Y370580D01*
Y499913D01*
X2083328D01*
Y523084D01*
X2093604D01*
Y513913D01*
X2166753D01*
Y577811D01*
X2166753Y579189D01*
Y582811D01*
X2166753Y584189D01*
Y610449D01*
X2130179D01*
X2093604D01*
Y584189D01*
X2093604Y582811D01*
Y579189D01*
X2093604Y577811D01*
Y553672D01*
X2083328D01*
Y555346D01*
X2051983D01*
X2051659Y555764D01*
X2050154Y560346D01*
X2052027Y562219D01*
X2052954Y562839D01*
X2068993Y578878D01*
X2072308Y583839D01*
X2073472Y589692D01*
Y623048D01*
X2072308Y628901D01*
X2068993Y633862D01*
X2061050Y641806D01*
X2062963Y646425D01*
X2086265D01*
Y667706D01*
X2116000D01*
X2121853Y668870D01*
X2126814Y672186D01*
X2257814Y803186D01*
X2261130Y808147D01*
X2262294Y814000D01*
Y1336946D01*
X2267294Y1338643D01*
X2272488Y1331875D01*
X2284445Y1322699D01*
X2298371Y1316931D01*
X2313314Y1314964D01*
X2328258Y1316931D01*
X2342184Y1322699D01*
X2342719Y1323111D01*
X2404923Y1260907D01*
X2404923Y1260907D01*
X2409554Y1257812D01*
X2415017Y1256726D01*
X2637087D01*
X2654702Y1239111D01*
X2654702Y1239111D01*
X2659333Y1236017D01*
X2664795Y1234930D01*
X2664796Y1234930D01*
X3785149D01*
X3785150Y1234930D01*
X3790613Y1236017D01*
X3795244Y1239111D01*
X4659093Y2102961D01*
X4659093Y2102961D01*
X4662188Y2107592D01*
X4663274Y2113055D01*
X4663274Y2113055D01*
Y3146000D01*
X4662188Y3151463D01*
X4659093Y3156093D01*
X4659093Y3156094D01*
X4642700Y3172486D01*
X4644099Y3175863D01*
X4645302Y3185000D01*
X4644099Y3194137D01*
X4640572Y3202651D01*
X4634962Y3209962D01*
X4627651Y3215572D01*
X4619137Y3219099D01*
X4610000Y3220302D01*
X4600863Y3219099D01*
X4592349Y3215572D01*
X4585038Y3209962D01*
X4579428Y3202651D01*
X4575901Y3194137D01*
X4574698Y3185000D01*
X4575901Y3175863D01*
X4579428Y3167349D01*
X4585038Y3160038D01*
X4592349Y3154428D01*
X4600863Y3150901D01*
X4610000Y3149698D01*
X4619137Y3150901D01*
X4622514Y3152300D01*
X4634726Y3140087D01*
Y3110796D01*
X4630241Y3108585D01*
X4627651Y3110572D01*
X4619137Y3114099D01*
X4610000Y3115302D01*
X4600863Y3114099D01*
X4592349Y3110572D01*
X4585038Y3104962D01*
X4579428Y3097651D01*
X4575901Y3089137D01*
X4574698Y3080000D01*
X4575901Y3070863D01*
X4579428Y3062349D01*
X4585038Y3055038D01*
X4592349Y3049428D01*
X4595726Y3048029D01*
Y2105423D01*
X4419161Y1928859D01*
X4414542Y1930772D01*
Y3179355D01*
X4597486Y3362300D01*
X4600863Y3360901D01*
X4610000Y3359698D01*
X4619137Y3360901D01*
X4627651Y3364428D01*
X4630241Y3366415D01*
X4634726Y3364204D01*
Y3334913D01*
X4622514Y3322700D01*
X4619137Y3324099D01*
X4610000Y3325302D01*
X4600863Y3324099D01*
X4592349Y3320572D01*
X4585038Y3314962D01*
X4579428Y3307651D01*
X4575901Y3299137D01*
X4574698Y3290000D01*
X4575901Y3280863D01*
X4579428Y3272349D01*
X4585038Y3265038D01*
X4592349Y3259428D01*
X4600863Y3255901D01*
X4610000Y3254698D01*
X4619137Y3255901D01*
X4627651Y3259428D01*
X4634962Y3265038D01*
X4640572Y3272349D01*
X4644099Y3280863D01*
X4645302Y3290000D01*
X4644099Y3299137D01*
X4642700Y3302514D01*
X4659093Y3318906D01*
X4659093Y3318907D01*
X4662188Y3323537D01*
X4663274Y3329000D01*
Y3516154D01*
X4663274Y3516154D01*
X4662188Y3521617D01*
X4659093Y3526248D01*
X4636248Y3549093D01*
X4631617Y3552188D01*
X4626154Y3553274D01*
X4626154Y3553274D01*
X4593846D01*
X4593846Y3553274D01*
X4588383Y3552188D01*
X4583752Y3549093D01*
X4364369Y3329710D01*
X4359750Y3331624D01*
Y3568451D01*
X4362107Y3569428D01*
X4369418Y3575038D01*
X4375028Y3582349D01*
X4378555Y3590863D01*
X4379758Y3600000D01*
X4378555Y3609137D01*
X4375028Y3617651D01*
X4369418Y3624962D01*
X4362107Y3630572D01*
X4353593Y3634099D01*
X4344456Y3635302D01*
D02*
G37*
G36*
X3865000Y2434644D02*
Y2405000D01*
X3894644D01*
X3894099Y2409137D01*
X3890572Y2417651D01*
X3884962Y2424962D01*
X3877651Y2430572D01*
X3869137Y2434099D01*
X3865000Y2434644D01*
D02*
G37*
G36*
X3855000D02*
X3850863Y2434099D01*
X3842349Y2430572D01*
X3835038Y2424962D01*
X3829428Y2417651D01*
X3825901Y2409137D01*
X3825356Y2405000D01*
X3855000D01*
Y2434644D01*
D02*
G37*
G36*
X3207201D02*
Y2405000D01*
X3236845D01*
X3236300Y2409137D01*
X3232773Y2417651D01*
X3227163Y2424962D01*
X3219852Y2430572D01*
X3211338Y2434099D01*
X3207201Y2434644D01*
D02*
G37*
G36*
X3197201D02*
X3193064Y2434099D01*
X3184550Y2430572D01*
X3177239Y2424962D01*
X3171629Y2417651D01*
X3168102Y2409137D01*
X3167557Y2405000D01*
X3197201D01*
Y2434644D01*
D02*
G37*
G36*
X169695Y2414644D02*
Y2385000D01*
X199339D01*
X198794Y2389137D01*
X195267Y2397651D01*
X189657Y2404962D01*
X182346Y2410572D01*
X173832Y2414099D01*
X169695Y2414644D01*
D02*
G37*
G36*
X159695D02*
X155558Y2414099D01*
X147044Y2410572D01*
X139732Y2404962D01*
X134122Y2397651D01*
X130596Y2389137D01*
X130051Y2385000D01*
X159695D01*
Y2414644D01*
D02*
G37*
G36*
X3894644Y2395000D02*
X3865000D01*
Y2365356D01*
X3869137Y2365901D01*
X3877651Y2369428D01*
X3884962Y2375038D01*
X3890572Y2382349D01*
X3894099Y2390863D01*
X3894644Y2395000D01*
D02*
G37*
G36*
X3855000D02*
X3825356D01*
X3825901Y2390863D01*
X3829428Y2382349D01*
X3835038Y2375038D01*
X3842349Y2369428D01*
X3850863Y2365901D01*
X3855000Y2365356D01*
Y2395000D01*
D02*
G37*
G36*
X3236845D02*
X3207201D01*
Y2365356D01*
X3211338Y2365901D01*
X3219852Y2369428D01*
X3227163Y2375038D01*
X3232773Y2382349D01*
X3236300Y2390863D01*
X3236845Y2395000D01*
D02*
G37*
G36*
X3197201D02*
X3167557D01*
X3168102Y2390863D01*
X3171629Y2382349D01*
X3177239Y2375038D01*
X3184550Y2369428D01*
X3193064Y2365901D01*
X3197201Y2365356D01*
Y2395000D01*
D02*
G37*
G36*
X199339Y2375000D02*
X169695D01*
Y2345356D01*
X173832Y2345901D01*
X182346Y2349428D01*
X189657Y2355038D01*
X195267Y2362349D01*
X198794Y2370863D01*
X199339Y2375000D01*
D02*
G37*
G36*
X159695D02*
X130051D01*
X130596Y2370863D01*
X134122Y2362349D01*
X139732Y2355038D01*
X147044Y2349428D01*
X155558Y2345901D01*
X159695Y2345356D01*
Y2375000D01*
D02*
G37*
G36*
X4112237Y2242637D02*
X4097293Y2240669D01*
X4083368Y2234901D01*
X4071410Y2225725D01*
X4062234Y2213767D01*
X4056466Y2199842D01*
X4054499Y2184898D01*
X4056466Y2169955D01*
X4062234Y2156029D01*
X4071410Y2144071D01*
X4083368Y2134896D01*
X4097293Y2129128D01*
X4112237Y2127160D01*
X4127181Y2129128D01*
X4141106Y2134896D01*
X4153064Y2144071D01*
X4162240Y2156029D01*
X4168008Y2169955D01*
X4169975Y2184898D01*
X4168008Y2199842D01*
X4162240Y2213767D01*
X4153064Y2225725D01*
X4141106Y2234901D01*
X4127181Y2240669D01*
X4112237Y2242637D01*
D02*
G37*
G36*
X3978379D02*
X3963435Y2240669D01*
X3949510Y2234901D01*
X3937552Y2225725D01*
X3928376Y2213767D01*
X3922608Y2199842D01*
X3920640Y2184898D01*
X3922608Y2169955D01*
X3928376Y2156029D01*
X3937552Y2144071D01*
X3949510Y2134896D01*
X3963435Y2129128D01*
X3978379Y2127160D01*
X3993322Y2129128D01*
X4007248Y2134896D01*
X4019206Y2144071D01*
X4028381Y2156029D01*
X4034149Y2169955D01*
X4036117Y2184898D01*
X4034149Y2199842D01*
X4028381Y2213767D01*
X4019206Y2225725D01*
X4007248Y2234901D01*
X3993322Y2240669D01*
X3978379Y2242637D01*
D02*
G37*
G36*
X3772104Y2242463D02*
X3757161Y2240495D01*
X3743235Y2234727D01*
X3731277Y2225551D01*
X3722102Y2213593D01*
X3716334Y2199668D01*
X3714366Y2184724D01*
X3716334Y2169781D01*
X3722102Y2155855D01*
X3731277Y2143897D01*
X3743235Y2134722D01*
X3757161Y2128954D01*
X3772104Y2126986D01*
X3787048Y2128954D01*
X3800973Y2134722D01*
X3812931Y2143897D01*
X3822107Y2155855D01*
X3827875Y2169781D01*
X3829843Y2184724D01*
X3827875Y2199668D01*
X3822107Y2213593D01*
X3812931Y2225551D01*
X3800973Y2234727D01*
X3787048Y2240495D01*
X3772104Y2242463D01*
D02*
G37*
G36*
X3638246D02*
X3623302Y2240495D01*
X3609377Y2234727D01*
X3597419Y2225551D01*
X3588243Y2213593D01*
X3582475Y2199668D01*
X3580508Y2184724D01*
X3582475Y2169781D01*
X3588243Y2155855D01*
X3597419Y2143897D01*
X3609377Y2134722D01*
X3623302Y2128954D01*
X3638246Y2126986D01*
X3653190Y2128954D01*
X3667115Y2134722D01*
X3679073Y2143897D01*
X3688249Y2155855D01*
X3694017Y2169781D01*
X3695984Y2184724D01*
X3694017Y2199668D01*
X3688249Y2213593D01*
X3679073Y2225551D01*
X3667115Y2234727D01*
X3653190Y2240495D01*
X3638246Y2242463D01*
D02*
G37*
G36*
X3433220Y2242187D02*
X3418276Y2240220D01*
X3404351Y2234452D01*
X3392393Y2225276D01*
X3383217Y2213318D01*
X3377449Y2199392D01*
X3375482Y2184449D01*
X3377449Y2169505D01*
X3383217Y2155580D01*
X3392393Y2143622D01*
X3404351Y2134446D01*
X3418276Y2128678D01*
X3433220Y2126711D01*
X3448164Y2128678D01*
X3462089Y2134446D01*
X3474047Y2143622D01*
X3483222Y2155580D01*
X3488990Y2169505D01*
X3490958Y2184449D01*
X3488990Y2199392D01*
X3483222Y2213318D01*
X3474047Y2225276D01*
X3462089Y2234452D01*
X3448164Y2240220D01*
X3433220Y2242187D01*
D02*
G37*
G36*
X3299361D02*
X3284418Y2240220D01*
X3270492Y2234452D01*
X3258535Y2225276D01*
X3249359Y2213318D01*
X3243591Y2199392D01*
X3241623Y2184449D01*
X3243591Y2169505D01*
X3249359Y2155580D01*
X3258535Y2143622D01*
X3270492Y2134446D01*
X3284418Y2128678D01*
X3299361Y2126711D01*
X3314305Y2128678D01*
X3328231Y2134446D01*
X3340189Y2143622D01*
X3349364Y2155580D01*
X3355132Y2169505D01*
X3357100Y2184449D01*
X3355132Y2199392D01*
X3349364Y2213318D01*
X3340189Y2225276D01*
X3328231Y2234452D01*
X3314305Y2240220D01*
X3299361Y2242187D01*
D02*
G37*
G36*
X395000Y2024644D02*
Y1995000D01*
X424644D01*
X424099Y1999137D01*
X420572Y2007651D01*
X414962Y2014962D01*
X407651Y2020572D01*
X399137Y2024099D01*
X395000Y2024644D01*
D02*
G37*
G36*
X385000D02*
X380863Y2024099D01*
X372349Y2020572D01*
X365038Y2014962D01*
X359428Y2007651D01*
X355901Y1999137D01*
X355356Y1995000D01*
X385000D01*
Y2024644D01*
D02*
G37*
G36*
X424644Y1985000D02*
X395000D01*
Y1955356D01*
X399137Y1955901D01*
X407651Y1959428D01*
X414962Y1965038D01*
X420572Y1972349D01*
X424099Y1980863D01*
X424644Y1985000D01*
D02*
G37*
G36*
X385000D02*
X355356D01*
X355901Y1980863D01*
X359428Y1972349D01*
X365038Y1965038D01*
X372349Y1959428D01*
X380863Y1955901D01*
X385000Y1955356D01*
Y1985000D01*
D02*
G37*
G36*
X150000Y2059575D02*
X135305Y2058128D01*
X121175Y2053842D01*
X108153Y2046881D01*
X96738Y2037514D01*
X87371Y2026099D01*
X80410Y2013077D01*
X76124Y1998947D01*
X74677Y1984252D01*
X76124Y1969557D01*
X80410Y1955427D01*
X87371Y1942405D01*
X96738Y1930990D01*
X108153Y1921623D01*
X121175Y1914662D01*
X135305Y1910376D01*
X150000Y1908929D01*
X164695Y1910376D01*
X178825Y1914662D01*
X191847Y1921623D01*
X203262Y1930990D01*
X212629Y1942405D01*
X219590Y1955427D01*
X223876Y1969557D01*
X225323Y1984252D01*
X223876Y1998947D01*
X219590Y2013077D01*
X212629Y2026099D01*
X203262Y2037514D01*
X191847Y2046881D01*
X178825Y2053842D01*
X164695Y2058128D01*
X150000Y2059575D01*
D02*
G37*
G36*
X3731237Y1829188D02*
X3716293Y1827220D01*
X3702368Y1821452D01*
X3690410Y1812277D01*
X3681234Y1800319D01*
X3675466Y1786393D01*
X3673499Y1771450D01*
X3675466Y1756506D01*
X3681234Y1742581D01*
X3690410Y1730623D01*
X3702368Y1721447D01*
X3716293Y1715679D01*
X3731237Y1713711D01*
X3746180Y1715679D01*
X3760106Y1721447D01*
X3772064Y1730623D01*
X3781239Y1742581D01*
X3787007Y1756506D01*
X3788975Y1771450D01*
X3787007Y1786393D01*
X3781239Y1800319D01*
X3772064Y1812277D01*
X3760106Y1821452D01*
X3746180Y1827220D01*
X3731237Y1829188D01*
D02*
G37*
G36*
X3597378D02*
X3582435Y1827220D01*
X3568509Y1821452D01*
X3556551Y1812277D01*
X3547376Y1800319D01*
X3541608Y1786393D01*
X3539640Y1771450D01*
X3541608Y1756506D01*
X3547376Y1742581D01*
X3556551Y1730623D01*
X3568509Y1721447D01*
X3582435Y1715679D01*
X3597378Y1713711D01*
X3612322Y1715679D01*
X3626247Y1721447D01*
X3638205Y1730623D01*
X3647381Y1742581D01*
X3653149Y1756506D01*
X3655117Y1771450D01*
X3653149Y1786393D01*
X3647381Y1800319D01*
X3638205Y1812277D01*
X3626247Y1821452D01*
X3612322Y1827220D01*
X3597378Y1829188D01*
D02*
G37*
G36*
X410906Y1751928D02*
Y1703819D01*
X459014D01*
X457841Y1712735D01*
X452469Y1725702D01*
X443925Y1736838D01*
X432789Y1745383D01*
X419821Y1750754D01*
X410906Y1751928D01*
D02*
G37*
G36*
X400906D02*
X391990Y1750754D01*
X379022Y1745383D01*
X367886Y1736838D01*
X359342Y1725702D01*
X353971Y1712735D01*
X352797Y1703819D01*
X400906D01*
Y1751928D01*
D02*
G37*
G36*
X459014Y1693819D02*
X410906D01*
Y1645710D01*
X419821Y1646884D01*
X432789Y1652255D01*
X443925Y1660800D01*
X452469Y1671935D01*
X457841Y1684903D01*
X459014Y1693819D01*
D02*
G37*
G36*
X400906D02*
X352797D01*
X353971Y1684903D01*
X359342Y1671935D01*
X367886Y1660800D01*
X379022Y1652255D01*
X391990Y1646884D01*
X400906Y1645710D01*
Y1693819D01*
D02*
G37*
G36*
X720866Y1752586D02*
X706950Y1750754D01*
X693983Y1745383D01*
X682847Y1736838D01*
X674302Y1725702D01*
X668931Y1712735D01*
X667099Y1698819D01*
X668931Y1684903D01*
X674302Y1671935D01*
X682847Y1660800D01*
X693983Y1652255D01*
X706950Y1646884D01*
X720866Y1645052D01*
X734782Y1646884D01*
X747750Y1652255D01*
X758885Y1660800D01*
X767430Y1671935D01*
X772801Y1684903D01*
X774633Y1698819D01*
X772801Y1712735D01*
X767430Y1725702D01*
X758885Y1736838D01*
X747750Y1745383D01*
X734782Y1750754D01*
X720866Y1752586D01*
D02*
G37*
G36*
X509331Y1692873D02*
Y1644764D01*
X557439D01*
X556266Y1653680D01*
X550894Y1666647D01*
X542350Y1677783D01*
X531214Y1686328D01*
X518247Y1691699D01*
X509331Y1692873D01*
D02*
G37*
G36*
X499331D02*
X490415Y1691699D01*
X477447Y1686328D01*
X466312Y1677783D01*
X457767Y1666647D01*
X452396Y1653680D01*
X451222Y1644764D01*
X499331D01*
Y1692873D01*
D02*
G37*
G36*
X232000Y1668922D02*
Y1639278D01*
X261644D01*
X261099Y1643415D01*
X257572Y1651929D01*
X251962Y1659241D01*
X244651Y1664851D01*
X236137Y1668377D01*
X232000Y1668922D01*
D02*
G37*
G36*
X222000D02*
X217863Y1668377D01*
X209349Y1664851D01*
X202038Y1659241D01*
X196428Y1651929D01*
X192901Y1643415D01*
X192356Y1639278D01*
X222000D01*
Y1668922D01*
D02*
G37*
G36*
X261644Y1629278D02*
X232000D01*
Y1599634D01*
X236137Y1600179D01*
X244651Y1603706D01*
X251962Y1609316D01*
X257572Y1616627D01*
X261099Y1625141D01*
X261644Y1629278D01*
D02*
G37*
G36*
X222000D02*
X192356D01*
X192901Y1625141D01*
X196428Y1616627D01*
X202038Y1609316D01*
X209349Y1603706D01*
X217863Y1600179D01*
X222000Y1599634D01*
Y1629278D01*
D02*
G37*
G36*
X557439Y1634764D02*
X509331D01*
Y1586655D01*
X518247Y1587829D01*
X531214Y1593200D01*
X542350Y1601745D01*
X550894Y1612880D01*
X556266Y1625848D01*
X557439Y1634764D01*
D02*
G37*
G36*
X499331D02*
X451222D01*
X452396Y1625848D01*
X457767Y1612880D01*
X466312Y1601745D01*
X477447Y1593200D01*
X490415Y1587829D01*
X499331Y1586655D01*
Y1634764D01*
D02*
G37*
G36*
X622441Y1693531D02*
X608525Y1691699D01*
X595557Y1686328D01*
X584422Y1677783D01*
X575877Y1666647D01*
X570506Y1653680D01*
X568674Y1639764D01*
X570506Y1625848D01*
X575877Y1612880D01*
X584422Y1601745D01*
X595557Y1593200D01*
X608525Y1587829D01*
X622441Y1585997D01*
X636357Y1587829D01*
X649324Y1593200D01*
X660460Y1601745D01*
X669005Y1612880D01*
X674376Y1625848D01*
X676208Y1639764D01*
X674376Y1653680D01*
X669005Y1666647D01*
X660460Y1677783D01*
X649324Y1686328D01*
X636357Y1691699D01*
X622441Y1693531D01*
D02*
G37*
G36*
X410906Y1633818D02*
Y1585709D01*
X459014D01*
X457841Y1594625D01*
X452469Y1607592D01*
X443925Y1618728D01*
X432789Y1627272D01*
X419821Y1632644D01*
X410906Y1633818D01*
D02*
G37*
G36*
X400906D02*
X391990Y1632644D01*
X379022Y1627272D01*
X367886Y1618728D01*
X359342Y1607592D01*
X353971Y1594625D01*
X352797Y1585709D01*
X400906D01*
Y1633818D01*
D02*
G37*
G36*
X3533000Y1587644D02*
Y1558000D01*
X3562644D01*
X3562099Y1562137D01*
X3558572Y1570651D01*
X3552962Y1577962D01*
X3545651Y1583572D01*
X3537137Y1587099D01*
X3533000Y1587644D01*
D02*
G37*
G36*
X3523000D02*
X3518863Y1587099D01*
X3510349Y1583572D01*
X3503038Y1577962D01*
X3497428Y1570651D01*
X3493901Y1562137D01*
X3493356Y1558000D01*
X3523000D01*
Y1587644D01*
D02*
G37*
G36*
X459014Y1575709D02*
X410906D01*
Y1527600D01*
X419821Y1528774D01*
X432789Y1534145D01*
X443925Y1542690D01*
X452469Y1553825D01*
X457841Y1566793D01*
X459014Y1575709D01*
D02*
G37*
G36*
X400906D02*
X352797D01*
X353971Y1566793D01*
X359342Y1553825D01*
X367886Y1542690D01*
X379022Y1534145D01*
X391990Y1528774D01*
X400906Y1527600D01*
Y1575709D01*
D02*
G37*
G36*
X720866Y1634476D02*
X706950Y1632644D01*
X693983Y1627272D01*
X682847Y1618728D01*
X674302Y1607592D01*
X668931Y1594625D01*
X667099Y1580709D01*
X668931Y1566793D01*
X674302Y1553825D01*
X682847Y1542690D01*
X693983Y1534145D01*
X706950Y1528774D01*
X720866Y1526942D01*
X734782Y1528774D01*
X747750Y1534145D01*
X758885Y1542690D01*
X767430Y1553825D01*
X772801Y1566793D01*
X774633Y1580709D01*
X772801Y1594625D01*
X767430Y1607592D01*
X758885Y1618728D01*
X747750Y1627272D01*
X734782Y1632644D01*
X720866Y1634476D01*
D02*
G37*
G36*
X509331Y1574762D02*
Y1526654D01*
X557439D01*
X556266Y1535570D01*
X550894Y1548537D01*
X542350Y1559673D01*
X531214Y1568217D01*
X518247Y1573589D01*
X509331Y1574762D01*
D02*
G37*
G36*
X499331D02*
X490415Y1573589D01*
X477447Y1568217D01*
X466312Y1559673D01*
X457767Y1548537D01*
X452396Y1535570D01*
X451222Y1526654D01*
X499331D01*
Y1574762D01*
D02*
G37*
G36*
X3562644Y1548000D02*
X3533000D01*
Y1518356D01*
X3537137Y1518901D01*
X3545651Y1522428D01*
X3552962Y1528038D01*
X3558572Y1535349D01*
X3562099Y1543863D01*
X3562644Y1548000D01*
D02*
G37*
G36*
X3523000D02*
X3493356D01*
X3493901Y1543863D01*
X3497428Y1535349D01*
X3503038Y1528038D01*
X3510349Y1522428D01*
X3518863Y1518901D01*
X3523000Y1518356D01*
Y1548000D01*
D02*
G37*
G36*
X557439Y1516654D02*
X509331D01*
Y1468545D01*
X518247Y1469719D01*
X531214Y1475090D01*
X542350Y1483634D01*
X550894Y1494770D01*
X556266Y1507738D01*
X557439Y1516654D01*
D02*
G37*
G36*
X499331D02*
X451222D01*
X452396Y1507738D01*
X457767Y1494770D01*
X466312Y1483634D01*
X477447Y1475090D01*
X490415Y1469719D01*
X499331Y1468545D01*
Y1516654D01*
D02*
G37*
G36*
X622441Y1575421D02*
X608525Y1573589D01*
X595557Y1568217D01*
X584422Y1559673D01*
X575877Y1548537D01*
X570506Y1535570D01*
X568674Y1521654D01*
X570506Y1507738D01*
X575877Y1494770D01*
X584422Y1483634D01*
X595557Y1475090D01*
X608525Y1469719D01*
X622441Y1467887D01*
X636357Y1469719D01*
X649324Y1475090D01*
X660460Y1483634D01*
X669005Y1494770D01*
X674376Y1507738D01*
X676208Y1521654D01*
X674376Y1535570D01*
X669005Y1548537D01*
X660460Y1559673D01*
X649324Y1568217D01*
X636357Y1573589D01*
X622441Y1575421D01*
D02*
G37*
G36*
X725866Y1515707D02*
Y1467599D01*
X773975D01*
X772801Y1476514D01*
X767430Y1489482D01*
X758885Y1500618D01*
X747750Y1509162D01*
X734782Y1514534D01*
X725866Y1515707D01*
D02*
G37*
G36*
X410906D02*
Y1467599D01*
X459014D01*
X457841Y1476514D01*
X452469Y1489482D01*
X443925Y1500618D01*
X432789Y1509162D01*
X419821Y1514534D01*
X410906Y1515707D01*
D02*
G37*
G36*
X715866D02*
X706950Y1514534D01*
X693983Y1509162D01*
X682847Y1500618D01*
X674302Y1489482D01*
X668931Y1476514D01*
X667757Y1467599D01*
X715866D01*
Y1515707D01*
D02*
G37*
G36*
X400906D02*
X391990Y1514534D01*
X379022Y1509162D01*
X367886Y1500618D01*
X359342Y1489482D01*
X353971Y1476514D01*
X352797Y1467599D01*
X400906D01*
Y1515707D01*
D02*
G37*
G36*
X4715000Y1454644D02*
Y1425000D01*
X4744644D01*
X4744099Y1429137D01*
X4740572Y1437651D01*
X4734962Y1444962D01*
X4727651Y1450572D01*
X4719137Y1454099D01*
X4715000Y1454644D01*
D02*
G37*
G36*
X4705000D02*
X4700863Y1454099D01*
X4692349Y1450572D01*
X4685038Y1444962D01*
X4679428Y1437651D01*
X4675901Y1429137D01*
X4675356Y1425000D01*
X4705000D01*
Y1454644D01*
D02*
G37*
G36*
X985000Y1444644D02*
Y1415000D01*
X1014644D01*
X1014099Y1419137D01*
X1010572Y1427651D01*
X1004962Y1434962D01*
X997651Y1440572D01*
X989137Y1444099D01*
X985000Y1444644D01*
D02*
G37*
G36*
X975000D02*
X970863Y1444099D01*
X962349Y1440572D01*
X955038Y1434962D01*
X949428Y1427651D01*
X945901Y1419137D01*
X945356Y1415000D01*
X975000D01*
Y1444644D01*
D02*
G37*
G36*
X773975Y1457599D02*
X725866D01*
Y1409490D01*
X734782Y1410664D01*
X747750Y1416035D01*
X758885Y1424579D01*
X767430Y1435715D01*
X772801Y1448683D01*
X773975Y1457599D01*
D02*
G37*
G36*
X459014D02*
X410906D01*
Y1409490D01*
X419821Y1410664D01*
X432789Y1416035D01*
X443925Y1424579D01*
X452469Y1435715D01*
X457841Y1448683D01*
X459014Y1457599D01*
D02*
G37*
G36*
X715866D02*
X667757D01*
X668931Y1448683D01*
X674302Y1435715D01*
X682847Y1424579D01*
X693983Y1416035D01*
X706950Y1410664D01*
X715866Y1409490D01*
Y1457599D01*
D02*
G37*
G36*
X400906D02*
X352797D01*
X353971Y1448683D01*
X359342Y1435715D01*
X367886Y1424579D01*
X379022Y1416035D01*
X391990Y1410664D01*
X400906Y1409490D01*
Y1457599D01*
D02*
G37*
G36*
X627441Y1456652D02*
Y1408543D01*
X675550D01*
X674376Y1417459D01*
X669005Y1430427D01*
X660460Y1441562D01*
X649324Y1450107D01*
X636357Y1455478D01*
X627441Y1456652D01*
D02*
G37*
G36*
X509331D02*
Y1408543D01*
X557439D01*
X556266Y1417459D01*
X550894Y1430427D01*
X542350Y1441562D01*
X531214Y1450107D01*
X518247Y1455478D01*
X509331Y1456652D01*
D02*
G37*
G36*
X617441D02*
X608525Y1455478D01*
X595557Y1450107D01*
X584422Y1441562D01*
X575877Y1430427D01*
X570506Y1417459D01*
X569332Y1408543D01*
X617441D01*
Y1456652D01*
D02*
G37*
G36*
X499331D02*
X490415Y1455478D01*
X477447Y1450107D01*
X466312Y1441562D01*
X457767Y1430427D01*
X452396Y1417459D01*
X451222Y1408543D01*
X499331D01*
Y1456652D01*
D02*
G37*
G36*
X4744644Y1415000D02*
X4715000D01*
Y1385356D01*
X4719137Y1385901D01*
X4727651Y1389428D01*
X4734962Y1395038D01*
X4740572Y1402349D01*
X4744099Y1410863D01*
X4744644Y1415000D01*
D02*
G37*
G36*
X4705000D02*
X4675356D01*
X4675901Y1410863D01*
X4679428Y1402349D01*
X4685038Y1395038D01*
X4692349Y1389428D01*
X4700863Y1385901D01*
X4705000Y1385356D01*
Y1415000D01*
D02*
G37*
G36*
X1014644Y1405000D02*
X985000D01*
Y1375356D01*
X989137Y1375901D01*
X997651Y1379428D01*
X1004962Y1385038D01*
X1010572Y1392349D01*
X1014099Y1400863D01*
X1014644Y1405000D01*
D02*
G37*
G36*
X975000D02*
X945356D01*
X945901Y1400863D01*
X949428Y1392349D01*
X955038Y1385038D01*
X962349Y1379428D01*
X970863Y1375901D01*
X975000Y1375356D01*
Y1405000D01*
D02*
G37*
G36*
X675550Y1398543D02*
X627441D01*
Y1350435D01*
X636357Y1351608D01*
X649324Y1356980D01*
X660460Y1365524D01*
X669005Y1376660D01*
X674376Y1389627D01*
X675550Y1398543D01*
D02*
G37*
G36*
X557439D02*
X509331D01*
Y1350435D01*
X518247Y1351608D01*
X531214Y1356980D01*
X542350Y1365524D01*
X550894Y1376660D01*
X556266Y1389627D01*
X557439Y1398543D01*
D02*
G37*
G36*
X617441D02*
X569332D01*
X570506Y1389627D01*
X575877Y1376660D01*
X584422Y1365524D01*
X595557Y1356980D01*
X608525Y1351608D01*
X617441Y1350435D01*
Y1398543D01*
D02*
G37*
G36*
X499331D02*
X451222D01*
X452396Y1389627D01*
X457767Y1376660D01*
X466312Y1365524D01*
X477447Y1356980D01*
X490415Y1351608D01*
X499331Y1350435D01*
Y1398543D01*
D02*
G37*
G36*
X410906Y1397597D02*
Y1349488D01*
X459014D01*
X457841Y1358404D01*
X452469Y1371372D01*
X443925Y1382507D01*
X432789Y1391052D01*
X419821Y1396423D01*
X410906Y1397597D01*
D02*
G37*
G36*
X725866D02*
Y1349488D01*
X773975D01*
X772801Y1358404D01*
X767430Y1371372D01*
X758885Y1382507D01*
X747750Y1391052D01*
X734782Y1396423D01*
X725866Y1397597D01*
D02*
G37*
G36*
X715866D02*
X706950Y1396423D01*
X693982Y1391052D01*
X682847Y1382507D01*
X674302Y1371372D01*
X668931Y1358404D01*
X667757Y1349488D01*
X715866D01*
Y1397597D01*
D02*
G37*
G36*
X400906D02*
X391990Y1396423D01*
X379022Y1391052D01*
X367886Y1382507D01*
X359342Y1371372D01*
X353971Y1358404D01*
X352797Y1349488D01*
X400906D01*
Y1397597D01*
D02*
G37*
G36*
X773975Y1339488D02*
X725866D01*
Y1291379D01*
X734782Y1292553D01*
X747750Y1297925D01*
X758885Y1306469D01*
X767430Y1317605D01*
X772801Y1330572D01*
X773975Y1339488D01*
D02*
G37*
G36*
X459014D02*
X410906D01*
Y1291379D01*
X419821Y1292553D01*
X432789Y1297925D01*
X443925Y1306469D01*
X452469Y1317605D01*
X457841Y1330572D01*
X459014Y1339488D01*
D02*
G37*
G36*
X715866D02*
X667757D01*
X668931Y1330572D01*
X674302Y1317605D01*
X682847Y1306469D01*
X693982Y1297925D01*
X706950Y1292553D01*
X715866Y1291379D01*
Y1339488D01*
D02*
G37*
G36*
X400906D02*
X352797D01*
X353971Y1330572D01*
X359342Y1317605D01*
X367886Y1306469D01*
X379022Y1297925D01*
X391990Y1292553D01*
X400906Y1291379D01*
Y1339488D01*
D02*
G37*
G36*
X622441Y1339200D02*
X608525Y1337368D01*
X595557Y1331997D01*
X584422Y1323452D01*
X575877Y1312317D01*
X570506Y1299349D01*
X568674Y1285433D01*
X570506Y1271517D01*
X575877Y1258550D01*
X584422Y1247414D01*
X595557Y1238869D01*
X608525Y1233498D01*
X622441Y1231666D01*
X636357Y1233498D01*
X649324Y1238869D01*
X660460Y1247414D01*
X669005Y1258550D01*
X674376Y1271517D01*
X676208Y1285433D01*
X674376Y1299349D01*
X669005Y1312317D01*
X660460Y1323452D01*
X649324Y1331997D01*
X636357Y1337368D01*
X622441Y1339200D01*
D02*
G37*
G36*
X504331D02*
X490415Y1337368D01*
X477447Y1331997D01*
X466312Y1323452D01*
X457767Y1312317D01*
X452396Y1299349D01*
X450564Y1285433D01*
X452396Y1271517D01*
X457767Y1258550D01*
X466312Y1247414D01*
X477447Y1238869D01*
X490415Y1233498D01*
X504331Y1231666D01*
X518247Y1233498D01*
X531214Y1238869D01*
X542350Y1247414D01*
X550894Y1258550D01*
X556266Y1271517D01*
X558098Y1285433D01*
X556266Y1299349D01*
X550894Y1312317D01*
X542350Y1323452D01*
X531214Y1331997D01*
X518247Y1337368D01*
X504331Y1339200D01*
D02*
G37*
G36*
X2606000Y1249644D02*
Y1220000D01*
X2635644D01*
X2635099Y1224137D01*
X2631572Y1232651D01*
X2625962Y1239962D01*
X2618651Y1245572D01*
X2610137Y1249099D01*
X2606000Y1249644D01*
D02*
G37*
G36*
X2596000D02*
X2591863Y1249099D01*
X2583349Y1245572D01*
X2576038Y1239962D01*
X2570428Y1232651D01*
X2566901Y1224137D01*
X2566356Y1220000D01*
X2596000D01*
Y1249644D01*
D02*
G37*
G36*
X2635644Y1210000D02*
X2606000D01*
Y1180356D01*
X2610137Y1180901D01*
X2618651Y1184428D01*
X2625962Y1190038D01*
X2631572Y1197349D01*
X2635099Y1205863D01*
X2635644Y1210000D01*
D02*
G37*
G36*
X2596000D02*
X2566356D01*
X2566901Y1205863D01*
X2570428Y1197349D01*
X2576038Y1190038D01*
X2583349Y1184428D01*
X2591863Y1180901D01*
X2596000Y1180356D01*
Y1210000D01*
D02*
G37*
G36*
X720866Y1280145D02*
X706950Y1278313D01*
X693982Y1272942D01*
X682847Y1264397D01*
X674302Y1253262D01*
X668931Y1240294D01*
X667099Y1226378D01*
X668931Y1212462D01*
X674302Y1199495D01*
X682847Y1188359D01*
X693982Y1179814D01*
X706950Y1174443D01*
X720866Y1172611D01*
X734782Y1174443D01*
X747750Y1179814D01*
X758885Y1188359D01*
X767430Y1199495D01*
X772801Y1212462D01*
X774633Y1226378D01*
X772801Y1240294D01*
X767430Y1253262D01*
X758885Y1264397D01*
X747750Y1272942D01*
X734782Y1278313D01*
X720866Y1280145D01*
D02*
G37*
G36*
X405906D02*
X391990Y1278313D01*
X379022Y1272942D01*
X367886Y1264397D01*
X359342Y1253262D01*
X353971Y1240294D01*
X352138Y1226378D01*
X353971Y1212462D01*
X359342Y1199495D01*
X367886Y1188359D01*
X379022Y1179814D01*
X391990Y1174443D01*
X405906Y1172611D01*
X419821Y1174443D01*
X432789Y1179814D01*
X443925Y1188359D01*
X452469Y1199495D01*
X457841Y1212462D01*
X459673Y1226378D01*
X457841Y1240294D01*
X452469Y1253262D01*
X443925Y1264397D01*
X432789Y1272942D01*
X419821Y1278313D01*
X405906Y1280145D01*
D02*
G37*
G36*
X622441Y1221090D02*
X608525Y1219258D01*
X595557Y1213887D01*
X584422Y1205342D01*
X575877Y1194206D01*
X570506Y1181239D01*
X568674Y1167323D01*
X570506Y1153407D01*
X575877Y1140439D01*
X584422Y1129304D01*
X595557Y1120759D01*
X608525Y1115388D01*
X622441Y1113556D01*
X636357Y1115388D01*
X649324Y1120759D01*
X660460Y1129304D01*
X669005Y1140439D01*
X674376Y1153407D01*
X676208Y1167323D01*
X674376Y1181239D01*
X669005Y1194206D01*
X660460Y1205342D01*
X649324Y1213887D01*
X636357Y1219258D01*
X622441Y1221090D01*
D02*
G37*
G36*
X504331D02*
X490415Y1219258D01*
X477447Y1213887D01*
X466312Y1205342D01*
X457767Y1194206D01*
X452396Y1181239D01*
X450564Y1167323D01*
X452396Y1153407D01*
X457767Y1140439D01*
X466312Y1129304D01*
X477447Y1120759D01*
X490415Y1115388D01*
X504331Y1113556D01*
X518247Y1115388D01*
X531214Y1120759D01*
X542350Y1129304D01*
X550894Y1140439D01*
X556266Y1153407D01*
X558098Y1167323D01*
X556266Y1181239D01*
X550894Y1194206D01*
X542350Y1205342D01*
X531214Y1213887D01*
X518247Y1219258D01*
X504331Y1221090D01*
D02*
G37*
G36*
X4145000Y1114644D02*
Y1085000D01*
X4174644D01*
X4174099Y1089137D01*
X4170572Y1097651D01*
X4164962Y1104962D01*
X4157651Y1110572D01*
X4149137Y1114099D01*
X4145000Y1114644D01*
D02*
G37*
G36*
X4135000D02*
X4130863Y1114099D01*
X4122349Y1110572D01*
X4115038Y1104962D01*
X4109428Y1097651D01*
X4105901Y1089137D01*
X4105356Y1085000D01*
X4135000D01*
Y1114644D01*
D02*
G37*
G36*
X720866Y1162035D02*
X706950Y1160203D01*
X693983Y1154831D01*
X682847Y1146287D01*
X674302Y1135151D01*
X668931Y1122184D01*
X667099Y1108268D01*
X668931Y1094352D01*
X674302Y1081384D01*
X682847Y1070249D01*
X693983Y1061704D01*
X706950Y1056333D01*
X720866Y1054501D01*
X734782Y1056333D01*
X747750Y1061704D01*
X758885Y1070249D01*
X767430Y1081384D01*
X772801Y1094352D01*
X774633Y1108268D01*
X772801Y1122184D01*
X767430Y1135151D01*
X758885Y1146287D01*
X747750Y1154831D01*
X734782Y1160203D01*
X720866Y1162035D01*
D02*
G37*
G36*
X405906D02*
X391990Y1160203D01*
X379022Y1154831D01*
X367886Y1146287D01*
X359342Y1135151D01*
X353971Y1122184D01*
X352138Y1108268D01*
X353971Y1094352D01*
X359342Y1081384D01*
X367886Y1070249D01*
X379022Y1061704D01*
X391990Y1056333D01*
X405906Y1054501D01*
X419821Y1056333D01*
X432789Y1061704D01*
X443925Y1070249D01*
X452469Y1081384D01*
X457841Y1094352D01*
X459673Y1108268D01*
X457841Y1122184D01*
X452469Y1135151D01*
X443925Y1146287D01*
X432789Y1154831D01*
X419821Y1160203D01*
X405906Y1162035D01*
D02*
G37*
G36*
X4174644Y1075000D02*
X4145000D01*
Y1045356D01*
X4149137Y1045901D01*
X4157651Y1049428D01*
X4164962Y1055038D01*
X4170572Y1062349D01*
X4174099Y1070863D01*
X4174644Y1075000D01*
D02*
G37*
G36*
X4135000D02*
X4105356D01*
X4105901Y1070863D01*
X4109428Y1062349D01*
X4115038Y1055038D01*
X4122349Y1049428D01*
X4130863Y1045901D01*
X4135000Y1045356D01*
Y1075000D01*
D02*
G37*
G36*
X925000Y1034644D02*
Y1005000D01*
X954644D01*
X954099Y1009137D01*
X950572Y1017651D01*
X944962Y1024962D01*
X937651Y1030572D01*
X929137Y1034099D01*
X925000Y1034644D01*
D02*
G37*
G36*
X915000D02*
X910863Y1034099D01*
X902349Y1030572D01*
X895038Y1024962D01*
X889428Y1017651D01*
X885901Y1009137D01*
X885356Y1005000D01*
X915000D01*
Y1034644D01*
D02*
G37*
G36*
X622441Y1102980D02*
X608525Y1101148D01*
X595557Y1095776D01*
X584422Y1087232D01*
X575877Y1076096D01*
X570506Y1063129D01*
X568674Y1049213D01*
X570506Y1035297D01*
X575877Y1022329D01*
X584422Y1011193D01*
X595557Y1002649D01*
X608525Y997278D01*
X622441Y995446D01*
X636357Y997278D01*
X649324Y1002649D01*
X660460Y1011193D01*
X669005Y1022329D01*
X674376Y1035297D01*
X676208Y1049213D01*
X674376Y1063129D01*
X669005Y1076096D01*
X660460Y1087232D01*
X649324Y1095776D01*
X636357Y1101148D01*
X622441Y1102980D01*
D02*
G37*
G36*
X504331D02*
X490415Y1101148D01*
X477447Y1095776D01*
X466312Y1087232D01*
X457767Y1076096D01*
X452396Y1063129D01*
X450564Y1049213D01*
X452396Y1035297D01*
X457767Y1022329D01*
X466312Y1011193D01*
X477447Y1002649D01*
X490415Y997278D01*
X504331Y995446D01*
X518247Y997278D01*
X531214Y1002649D01*
X542350Y1011193D01*
X550894Y1022329D01*
X556266Y1035297D01*
X558098Y1049213D01*
X556266Y1063129D01*
X550894Y1076096D01*
X542350Y1087232D01*
X531214Y1095776D01*
X518247Y1101148D01*
X504331Y1102980D01*
D02*
G37*
G36*
X954644Y995000D02*
X925000D01*
Y965356D01*
X929137Y965901D01*
X937651Y969428D01*
X944962Y975038D01*
X950572Y982349D01*
X954099Y990863D01*
X954644Y995000D01*
D02*
G37*
G36*
X915000D02*
X885356D01*
X885901Y990863D01*
X889428Y982349D01*
X895038Y975038D01*
X902349Y969428D01*
X910863Y965901D01*
X915000Y965356D01*
Y995000D01*
D02*
G37*
G36*
X720866Y1043925D02*
X706950Y1042092D01*
X693983Y1036721D01*
X682847Y1028177D01*
X674302Y1017041D01*
X668931Y1004073D01*
X667099Y990158D01*
X668931Y976242D01*
X674302Y963274D01*
X682847Y952138D01*
X693983Y943594D01*
X706950Y938222D01*
X720866Y936390D01*
X734782Y938222D01*
X747750Y943594D01*
X758885Y952138D01*
X767430Y963274D01*
X772801Y976242D01*
X774633Y990158D01*
X772801Y1004073D01*
X767430Y1017041D01*
X758885Y1028177D01*
X747750Y1036721D01*
X734782Y1042092D01*
X720866Y1043925D01*
D02*
G37*
G36*
X405906D02*
X391990Y1042092D01*
X379022Y1036721D01*
X367886Y1028177D01*
X359342Y1017041D01*
X353971Y1004073D01*
X352138Y990158D01*
X353971Y976242D01*
X359342Y963274D01*
X367886Y952138D01*
X379022Y943594D01*
X391990Y938222D01*
X405906Y936390D01*
X419821Y938222D01*
X432789Y943594D01*
X443925Y952138D01*
X452469Y963274D01*
X457841Y976242D01*
X459673Y990158D01*
X457841Y1004073D01*
X452469Y1017041D01*
X443925Y1028177D01*
X432789Y1036721D01*
X419821Y1042092D01*
X405906Y1043925D01*
D02*
G37*
G36*
X1345000Y964644D02*
Y935000D01*
X1374644D01*
X1374099Y939137D01*
X1370572Y947651D01*
X1364962Y954962D01*
X1357651Y960572D01*
X1349137Y964099D01*
X1345000Y964644D01*
D02*
G37*
G36*
X1335000D02*
X1330863Y964099D01*
X1322349Y960572D01*
X1315038Y954962D01*
X1309428Y947651D01*
X1305901Y939137D01*
X1305356Y935000D01*
X1335000D01*
Y964644D01*
D02*
G37*
G36*
X1374644Y925000D02*
X1345000D01*
Y895356D01*
X1349137Y895901D01*
X1357651Y899428D01*
X1364962Y905038D01*
X1370572Y912349D01*
X1374099Y920863D01*
X1374644Y925000D01*
D02*
G37*
G36*
X1335000D02*
X1305356D01*
X1305901Y920863D01*
X1309428Y912349D01*
X1315038Y905038D01*
X1322349Y899428D01*
X1330863Y895901D01*
X1335000Y895356D01*
Y925000D01*
D02*
G37*
G36*
X2565000Y884644D02*
Y855000D01*
X2594644D01*
X2594099Y859137D01*
X2590572Y867651D01*
X2584962Y874962D01*
X2577651Y880572D01*
X2569137Y884099D01*
X2565000Y884644D01*
D02*
G37*
G36*
X2555000D02*
X2550863Y884099D01*
X2542349Y880572D01*
X2535038Y874962D01*
X2529428Y867651D01*
X2525901Y859137D01*
X2525356Y855000D01*
X2555000D01*
Y884644D01*
D02*
G37*
G36*
X2888776Y854644D02*
Y825000D01*
X2918419D01*
X2917875Y829137D01*
X2914348Y837651D01*
X2908738Y844962D01*
X2901427Y850572D01*
X2892912Y854099D01*
X2888776Y854644D01*
D02*
G37*
G36*
X2878776D02*
X2874639Y854099D01*
X2866125Y850572D01*
X2858813Y844962D01*
X2853203Y837651D01*
X2849677Y829137D01*
X2849132Y825000D01*
X2878776D01*
Y854644D01*
D02*
G37*
G36*
X2594644Y845000D02*
X2565000D01*
Y815356D01*
X2569137Y815901D01*
X2577651Y819428D01*
X2584962Y825038D01*
X2590572Y832349D01*
X2594099Y840863D01*
X2594644Y845000D01*
D02*
G37*
G36*
X2555000D02*
X2525356D01*
X2525901Y840863D01*
X2529428Y832349D01*
X2535038Y825038D01*
X2542349Y819428D01*
X2550863Y815901D01*
X2555000Y815356D01*
Y845000D01*
D02*
G37*
G36*
X2918419Y815000D02*
X2888776D01*
Y785356D01*
X2892912Y785901D01*
X2901427Y789428D01*
X2908738Y795038D01*
X2914348Y802349D01*
X2917875Y810863D01*
X2918419Y815000D01*
D02*
G37*
G36*
X2878776D02*
X2849132D01*
X2849677Y810863D01*
X2853203Y802349D01*
X2858813Y795038D01*
X2866125Y789428D01*
X2874639Y785901D01*
X2878776Y785356D01*
Y815000D01*
D02*
G37*
G36*
X1425000Y734644D02*
Y705000D01*
X1454644D01*
X1454099Y709137D01*
X1450572Y717651D01*
X1444962Y724962D01*
X1437651Y730572D01*
X1429137Y734099D01*
X1425000Y734644D01*
D02*
G37*
G36*
X1415000D02*
X1410863Y734099D01*
X1402349Y730572D01*
X1395038Y724962D01*
X1389428Y717651D01*
X1385901Y709137D01*
X1385356Y705000D01*
X1415000D01*
Y734644D01*
D02*
G37*
G36*
X1454644Y695000D02*
X1425000D01*
Y665356D01*
X1429137Y665901D01*
X1437651Y669428D01*
X1444962Y675038D01*
X1450572Y682349D01*
X1454099Y690863D01*
X1454644Y695000D01*
D02*
G37*
G36*
X1415000D02*
X1385356D01*
X1385901Y690863D01*
X1389428Y682349D01*
X1395038Y675038D01*
X1402349Y669428D01*
X1410863Y665901D01*
X1415000Y665356D01*
Y695000D01*
D02*
G37*
G36*
X150000Y780048D02*
X135305Y778600D01*
X121175Y774314D01*
X108153Y767353D01*
X96738Y757986D01*
X87371Y746572D01*
X80410Y733549D01*
X76124Y719419D01*
X74677Y704724D01*
X76124Y690030D01*
X80410Y675899D01*
X87371Y662877D01*
X96738Y651463D01*
X108153Y642095D01*
X121175Y635135D01*
X135305Y630848D01*
X150000Y629401D01*
X164695Y630848D01*
X178825Y635135D01*
X191847Y642095D01*
X203262Y651463D01*
X212629Y662877D01*
X219590Y675899D01*
X223876Y690030D01*
X225323Y704724D01*
X223876Y719419D01*
X219590Y733549D01*
X212629Y746572D01*
X203262Y757986D01*
X191847Y767353D01*
X178825Y774314D01*
X164695Y778600D01*
X150000Y780048D01*
D02*
G37*
G36*
X2166753Y648087D02*
X2135179D01*
Y620449D01*
X2166753D01*
Y648087D01*
D02*
G37*
G36*
X2125179D02*
X2093604D01*
Y620449D01*
X2125179D01*
Y648087D01*
D02*
G37*
G36*
X4705000Y435024D02*
Y305000D01*
X4835024D01*
X4833750Y321184D01*
X4828790Y341846D01*
X4820658Y361478D01*
X4809555Y379596D01*
X4795755Y395755D01*
X4779596Y409555D01*
X4761478Y420658D01*
X4741846Y428790D01*
X4721184Y433750D01*
X4705000Y435024D01*
D02*
G37*
G36*
X4695000D02*
X4678816Y433750D01*
X4658154Y428790D01*
X4638522Y420658D01*
X4620404Y409555D01*
X4604245Y395755D01*
X4590445Y379596D01*
X4579342Y361478D01*
X4571210Y341846D01*
X4566250Y321184D01*
X4564976Y305000D01*
X4695000D01*
Y435024D01*
D02*
G37*
G36*
X305000D02*
Y305000D01*
X435024D01*
X433750Y321184D01*
X428790Y341846D01*
X420658Y361478D01*
X409555Y379596D01*
X395755Y395755D01*
X379596Y409555D01*
X361478Y420658D01*
X341846Y428790D01*
X321184Y433750D01*
X305000Y435024D01*
D02*
G37*
G36*
X295000D02*
X278816Y433750D01*
X258154Y428790D01*
X238522Y420658D01*
X220404Y409555D01*
X204245Y395755D01*
X190445Y379596D01*
X179342Y361478D01*
X171210Y341846D01*
X166250Y321184D01*
X164976Y305000D01*
X295000D01*
Y435024D01*
D02*
G37*
G36*
X3045000Y324644D02*
Y295000D01*
X3074644D01*
X3074099Y299137D01*
X3070572Y307651D01*
X3064962Y314962D01*
X3057651Y320572D01*
X3049137Y324099D01*
X3045000Y324644D01*
D02*
G37*
G36*
X3035000D02*
X3030863Y324099D01*
X3022349Y320572D01*
X3015038Y314962D01*
X3009428Y307651D01*
X3005901Y299137D01*
X3005356Y295000D01*
X3035000D01*
Y324644D01*
D02*
G37*
G36*
X3074644Y285000D02*
X3045000D01*
Y255356D01*
X3049137Y255901D01*
X3057651Y259428D01*
X3064962Y265038D01*
X3070572Y272349D01*
X3074099Y280863D01*
X3074644Y285000D01*
D02*
G37*
G36*
X3035000D02*
X3005356D01*
X3005901Y280863D01*
X3009428Y272349D01*
X3015038Y265038D01*
X3022349Y259428D01*
X3030863Y255901D01*
X3035000Y255356D01*
Y285000D01*
D02*
G37*
G36*
X1115000Y284644D02*
Y255000D01*
X1144644D01*
X1144099Y259137D01*
X1140572Y267651D01*
X1134962Y274962D01*
X1127651Y280572D01*
X1119137Y284099D01*
X1115000Y284644D01*
D02*
G37*
G36*
X1105000D02*
X1100863Y284099D01*
X1092349Y280572D01*
X1085038Y274962D01*
X1079428Y267651D01*
X1075901Y259137D01*
X1075356Y255000D01*
X1105000D01*
Y284644D01*
D02*
G37*
G36*
X1144644Y245000D02*
X1115000D01*
Y215356D01*
X1119137Y215901D01*
X1127651Y219428D01*
X1134962Y225038D01*
X1140572Y232349D01*
X1144099Y240863D01*
X1144644Y245000D01*
D02*
G37*
G36*
X1105000D02*
X1075356D01*
X1075901Y240863D01*
X1079428Y232349D01*
X1085038Y225038D01*
X1092349Y219428D01*
X1100863Y215901D01*
X1105000Y215356D01*
Y245000D01*
D02*
G37*
G36*
X4835024Y295000D02*
X4705000D01*
Y164976D01*
X4721184Y166250D01*
X4741846Y171210D01*
X4761478Y179342D01*
X4779596Y190445D01*
X4795755Y204245D01*
X4809555Y220404D01*
X4820658Y238522D01*
X4828790Y258154D01*
X4833750Y278816D01*
X4835024Y295000D01*
D02*
G37*
G36*
X4695000D02*
X4564976D01*
X4566250Y278816D01*
X4571210Y258154D01*
X4579342Y238522D01*
X4590445Y220404D01*
X4604245Y204245D01*
X4620404Y190445D01*
X4638522Y179342D01*
X4658154Y171210D01*
X4678816Y166250D01*
X4695000Y164976D01*
Y295000D01*
D02*
G37*
G36*
X435024D02*
X305000D01*
Y164976D01*
X321184Y166250D01*
X341846Y171210D01*
X361478Y179342D01*
X379596Y190445D01*
X395755Y204245D01*
X409555Y220404D01*
X420658Y238522D01*
X428790Y258154D01*
X433750Y278816D01*
X435024Y295000D01*
D02*
G37*
G36*
X295000D02*
X164976D01*
X166250Y278816D01*
X171210Y258154D01*
X179342Y238522D01*
X190445Y220404D01*
X204245Y204245D01*
X220404Y190445D01*
X238522Y179342D01*
X258154Y171210D01*
X278816Y166250D01*
X295000Y164976D01*
Y295000D01*
D02*
G37*
%LPD*%
G36*
X4634726Y3469204D02*
Y3425796D01*
X4630241Y3423585D01*
X4627651Y3425572D01*
X4619137Y3429099D01*
X4610000Y3430302D01*
X4600863Y3429099D01*
X4592349Y3425572D01*
X4585038Y3419962D01*
X4579428Y3412651D01*
X4575901Y3404137D01*
X4574698Y3395000D01*
X4575901Y3385863D01*
X4577300Y3382486D01*
X4401161Y3206348D01*
X4396542Y3208262D01*
Y3266355D01*
X4597486Y3467300D01*
X4600863Y3465901D01*
X4610000Y3464698D01*
X4619137Y3465901D01*
X4627651Y3469428D01*
X4630241Y3471415D01*
X4634726Y3469204D01*
D02*
G37*
G36*
X2985706Y3396665D02*
Y3391811D01*
X2981222Y3389600D01*
X2978651Y3391572D01*
X2970137Y3395099D01*
X2966000Y3395644D01*
Y3361000D01*
X2961000D01*
Y3356000D01*
X2926356D01*
X2926901Y3351863D01*
X2930428Y3343349D01*
X2936038Y3336038D01*
X2938864Y3333869D01*
X2937167Y3328869D01*
X2871087D01*
X2869609Y3328575D01*
X2845028D01*
X2840898Y3329396D01*
X2836768Y3328575D01*
X2822189D01*
X2820811Y3328575D01*
X2817189D01*
X2815811Y3328575D01*
X2789551D01*
Y3292000D01*
Y3255425D01*
X2815811D01*
X2817189Y3255425D01*
X2820811D01*
X2825604Y3251840D01*
Y3246576D01*
X2820811Y3246075D01*
X2817189D01*
Y3246075D01*
X2751913D01*
Y3233798D01*
X2740831D01*
X2717814Y3256814D01*
X2712853Y3260130D01*
X2707000Y3261294D01*
X2700149D01*
Y3283370D01*
X2674402D01*
X2648653D01*
Y3261294D01*
X2625346D01*
Y3295492D01*
X2626459Y3301087D01*
X2625346Y3306681D01*
Y3316087D01*
X2612643D01*
X2611165Y3316381D01*
X2610347D01*
X2608869Y3316087D01*
X2573850D01*
Y3292916D01*
X2563575D01*
Y3302087D01*
X2542294D01*
Y3366833D01*
X2742848D01*
X2748700Y3367997D01*
X2753662Y3371312D01*
X2799056Y3416706D01*
X2965665D01*
X2985706Y3396665D01*
D02*
G37*
G36*
X4575475Y3494100D02*
X4575901Y3490863D01*
X4577300Y3487486D01*
X4383161Y3293348D01*
X4378542Y3295262D01*
Y3303509D01*
X4570740Y3495707D01*
X4575475Y3494100D01*
D02*
G37*
G36*
X2446706Y3305528D02*
Y3271811D01*
X2442222Y3269600D01*
X2439651Y3271572D01*
X2431137Y3275099D01*
X2427000Y3275644D01*
Y3241000D01*
X2422000D01*
Y3236000D01*
X2387356D01*
X2387901Y3231863D01*
X2391428Y3223349D01*
X2394597Y3219218D01*
X2392131Y3214218D01*
X2221346D01*
Y3257074D01*
X2191451D01*
Y3266425D01*
X2221346D01*
Y3339574D01*
X2157448D01*
X2156070Y3339574D01*
X2152448D01*
X2151070Y3339574D01*
X2124811D01*
Y3302999D01*
Y3266425D01*
X2151070D01*
X2152448Y3266425D01*
X2156070D01*
X2160863Y3262839D01*
Y3257575D01*
X2156070Y3257074D01*
X2152448D01*
Y3257074D01*
X2087173D01*
Y3244797D01*
X2076090D01*
X2056727Y3264160D01*
X2051766Y3267476D01*
X2045913Y3268640D01*
X2039161D01*
X2035409Y3271653D01*
X2035409Y3273640D01*
Y3294370D01*
X2009661D01*
X1983913D01*
Y3273640D01*
X1983913Y3271653D01*
X1980161Y3268640D01*
X1964358D01*
X1960606Y3271653D01*
Y3306491D01*
X1961719Y3312086D01*
X1960606Y3317681D01*
Y3327086D01*
X1947903D01*
X1946425Y3327380D01*
X1945606D01*
X1944128Y3327086D01*
X1909110D01*
Y3303915D01*
X1898834D01*
Y3313086D01*
X1876534D01*
Y3368856D01*
X2383378D01*
X2446706Y3305528D01*
D02*
G37*
G36*
X1750706Y3196665D02*
Y3140494D01*
X1745706Y3139500D01*
X1743572Y3144651D01*
X1737962Y3151962D01*
X1730651Y3157572D01*
X1722137Y3161099D01*
X1713000Y3162302D01*
X1703863Y3161099D01*
X1695349Y3157572D01*
X1688038Y3151962D01*
X1682428Y3144651D01*
X1681451Y3142294D01*
X1605766D01*
X1603821Y3144240D01*
X1598859Y3147555D01*
X1593006Y3148719D01*
X1527638D01*
Y3191575D01*
X1462362D01*
X1462362Y3191575D01*
X1458740D01*
Y3191575D01*
X1457362Y3191575D01*
X1401157D01*
X1396806Y3195925D01*
X1398877Y3200925D01*
X1457362D01*
X1458740Y3200925D01*
X1462362D01*
X1463740Y3200925D01*
X1527638D01*
Y3274075D01*
X1497743D01*
Y3283425D01*
X1527638D01*
Y3304706D01*
X1642665D01*
X1750706Y3196665D01*
D02*
G37*
G36*
X880919Y3578106D02*
X657185Y3354372D01*
X654091Y3349741D01*
X653004Y3344279D01*
X653004Y3344278D01*
Y3284478D01*
X557040Y3188514D01*
X554897Y3185306D01*
X550321Y3184574D01*
X549034Y3184819D01*
X542350Y3193531D01*
X531214Y3202075D01*
X518247Y3207447D01*
X506813Y3208952D01*
X505021Y3214231D01*
X873515Y3582726D01*
X879006D01*
X880919Y3578106D01*
D02*
G37*
G36*
X2511706Y3375792D02*
Y3302087D01*
X2490425D01*
Y3238189D01*
X2490425Y3236811D01*
Y3233189D01*
X2490425Y3231811D01*
Y3205551D01*
X2563575D01*
Y3231811D01*
X2563575Y3233189D01*
Y3236811D01*
X2563575Y3238189D01*
Y3262328D01*
X2573850D01*
Y3260654D01*
X2605195D01*
X2605520Y3260236D01*
X2607025Y3255654D01*
X2605152Y3253781D01*
X2604224Y3253161D01*
X2588186Y3237122D01*
X2584870Y3232160D01*
X2583706Y3226308D01*
Y3192952D01*
X2584870Y3187099D01*
X2588186Y3182138D01*
X2596129Y3174194D01*
X2594215Y3169575D01*
X2570913D01*
Y3096425D01*
X2576992D01*
Y2951820D01*
X2578156Y2945967D01*
X2581471Y2941005D01*
X2637412Y2885064D01*
X2634762Y2880643D01*
X2630673Y2881883D01*
X2619065Y2883027D01*
X2607457Y2881883D01*
X2596296Y2878497D01*
X2586009Y2872999D01*
X2576993Y2865600D01*
X2569593Y2856583D01*
X2564095Y2846297D01*
X2560709Y2835135D01*
X2559566Y2823528D01*
X2560709Y2811920D01*
X2564095Y2800758D01*
X2569593Y2790472D01*
X2576993Y2781455D01*
X2586009Y2774056D01*
X2596296Y2768557D01*
X2607457Y2765172D01*
X2619065Y2764028D01*
X2630673Y2765172D01*
X2641834Y2768557D01*
X2652121Y2774056D01*
X2661137Y2781455D01*
X2668537Y2790472D01*
X2674035Y2800758D01*
X2675732Y2806352D01*
X2680732Y2805610D01*
Y2657007D01*
X2436534Y2412809D01*
X2433218Y2407847D01*
X2432054Y2401994D01*
Y2237350D01*
X2418829Y2231872D01*
X2389028Y2261673D01*
Y2550421D01*
X2394028Y2551416D01*
X2397345Y2543407D01*
X2406521Y2531449D01*
X2418479Y2522273D01*
X2432404Y2516505D01*
X2447348Y2514537D01*
X2462292Y2516505D01*
X2476217Y2522273D01*
X2488175Y2531449D01*
X2497351Y2543407D01*
X2503119Y2557332D01*
X2505086Y2572276D01*
X2503119Y2587219D01*
X2497351Y2601145D01*
X2488175Y2613103D01*
X2476217Y2622278D01*
X2462292Y2628046D01*
X2447348Y2630014D01*
X2432404Y2628046D01*
X2418479Y2622278D01*
X2406521Y2613103D01*
X2397345Y2601145D01*
X2394028Y2593135D01*
X2389028Y2594130D01*
Y3004205D01*
X2387863Y3010058D01*
X2384548Y3015019D01*
X2252091Y3147477D01*
X2247129Y3150792D01*
X2241276Y3151956D01*
X2221346D01*
Y3174574D01*
X2156071D01*
X2156070Y3174574D01*
X2152448D01*
Y3174574D01*
X2151070Y3174574D01*
X2108802D01*
X2104071Y3179305D01*
X2105984Y3183925D01*
X2152448D01*
X2152448Y3183924D01*
X2156071D01*
Y3183925D01*
X2157448Y3183925D01*
X2204869D01*
X2206346Y3183631D01*
X2447218D01*
X2453070Y3184795D01*
X2458032Y3188110D01*
X2472814Y3202893D01*
X2476130Y3207854D01*
X2477294Y3213707D01*
Y3311863D01*
X2476130Y3317716D01*
X2472814Y3322678D01*
X2400528Y3394964D01*
X2395566Y3398280D01*
X2389713Y3399444D01*
X1867152D01*
X1688490Y3578106D01*
X1690403Y3582726D01*
X2304772D01*
X2511706Y3375792D01*
D02*
G37*
G36*
X3012706Y3327438D02*
Y3047335D01*
X2908106Y2942735D01*
X2904791Y2937773D01*
X2903627Y2931921D01*
Y2009909D01*
X2904791Y2004056D01*
X2908106Y1999095D01*
X3227734Y1679467D01*
Y1436074D01*
X3214159Y1430451D01*
X3202201Y1421276D01*
X3193025Y1409318D01*
X3187257Y1395392D01*
X3185431Y1381520D01*
X3180901Y1378978D01*
X2718785Y1841095D01*
X2714154Y1844189D01*
X2708692Y1845276D01*
X2708691Y1845276D01*
X2586342D01*
X2312019Y2119598D01*
X2314561Y2124127D01*
X2328433Y2125954D01*
X2342359Y2131722D01*
X2354317Y2140897D01*
X2363492Y2152855D01*
X2369260Y2166781D01*
X2371228Y2181724D01*
X2369260Y2196668D01*
X2363492Y2210593D01*
X2354317Y2222551D01*
X2342359Y2231727D01*
X2328433Y2237495D01*
X2313490Y2239463D01*
X2298546Y2237495D01*
X2284621Y2231727D01*
X2272663Y2222551D01*
X2263487Y2210593D01*
X2257719Y2196668D01*
X2255893Y2182796D01*
X2251363Y2180254D01*
X2021148Y2410469D01*
X2028472Y2419394D01*
X2033970Y2429680D01*
X2037356Y2440842D01*
X2038500Y2452449D01*
X2037356Y2464057D01*
X2033970Y2475219D01*
X2028472Y2485505D01*
X2021073Y2494522D01*
X2012056Y2501921D01*
X2001770Y2507419D01*
X1990608Y2510805D01*
X1979001Y2511948D01*
X1967393Y2510805D01*
X1956231Y2507419D01*
X1945945Y2501921D01*
X1936928Y2494522D01*
X1929529Y2485505D01*
X1924031Y2475219D01*
X1920645Y2464057D01*
X1919501Y2452449D01*
X1920645Y2440842D01*
X1924031Y2429680D01*
X1929529Y2419394D01*
X1936928Y2410377D01*
X1945945Y2402978D01*
X1956231Y2397479D01*
X1967393Y2394094D01*
X1979001Y2392950D01*
X1990608Y2394094D01*
X1995627Y2395616D01*
X2565429Y1825814D01*
X2562712Y1821760D01*
X2548787Y1827528D01*
X2533843Y1829495D01*
X2518899Y1827528D01*
X2504974Y1821760D01*
X2493016Y1812584D01*
X2483840Y1800626D01*
X2478072Y1786701D01*
X2476105Y1771757D01*
X2478072Y1756813D01*
X2483840Y1742888D01*
X2493016Y1730930D01*
X2504974Y1721755D01*
X2518899Y1715986D01*
X2533843Y1714019D01*
X2548787Y1715986D01*
X2562712Y1721755D01*
X2574670Y1730930D01*
X2583846Y1742888D01*
X2589614Y1756813D01*
X2591581Y1771757D01*
X2589614Y1786701D01*
X2583846Y1800626D01*
X2574670Y1812584D01*
X2574335Y1812841D01*
X2576454Y1817518D01*
X2580429Y1816727D01*
X2624811D01*
X2626216Y1811727D01*
X2617699Y1800626D01*
X2611931Y1786701D01*
X2609963Y1771757D01*
X2611931Y1756813D01*
X2617699Y1742888D01*
X2626874Y1730930D01*
X2638832Y1721755D01*
X2652758Y1715986D01*
X2667701Y1714019D01*
X2682645Y1715986D01*
X2696570Y1721755D01*
X2708528Y1730930D01*
X2717704Y1742888D01*
X2723472Y1756813D01*
X2725439Y1771757D01*
X2723472Y1786701D01*
X2721873Y1790562D01*
X2726111Y1793395D01*
X3197408Y1322098D01*
X3195494Y1317479D01*
X3106176D01*
X3072162Y1351494D01*
X3072573Y1352029D01*
X3078341Y1365955D01*
X3080308Y1380898D01*
X3078341Y1395842D01*
X3072573Y1409767D01*
X3063397Y1421725D01*
X3051439Y1430901D01*
X3037514Y1436669D01*
X3022570Y1438637D01*
X3007626Y1436669D01*
X2993701Y1430901D01*
X2981743Y1421725D01*
X2972567Y1409767D01*
X2966799Y1395842D01*
X2964832Y1380898D01*
X2966799Y1365955D01*
X2972567Y1352029D01*
X2981743Y1340071D01*
X2993701Y1330896D01*
X3007626Y1325128D01*
X3022570Y1323160D01*
X3037514Y1325128D01*
X3051439Y1330896D01*
X3051975Y1331307D01*
X3079183Y1304098D01*
X3077270Y1299479D01*
X2769615D01*
X2717293Y1351801D01*
X2717704Y1352337D01*
X2723472Y1366262D01*
X2725439Y1381206D01*
X2723472Y1396150D01*
X2717704Y1410075D01*
X2708528Y1422033D01*
X2696570Y1431209D01*
X2682645Y1436977D01*
X2667701Y1438944D01*
X2652758Y1436977D01*
X2638832Y1431209D01*
X2626874Y1422033D01*
X2617699Y1410075D01*
X2611931Y1396150D01*
X2609963Y1381206D01*
X2611931Y1366262D01*
X2617699Y1352337D01*
X2626874Y1340379D01*
X2638832Y1331203D01*
X2652758Y1325435D01*
X2667701Y1323468D01*
X2682645Y1325435D01*
X2696570Y1331203D01*
X2697106Y1331614D01*
X2742622Y1286098D01*
X2740709Y1281479D01*
X2690708D01*
X2670093Y1302093D01*
X2665463Y1305188D01*
X2660000Y1306274D01*
X2659999Y1306274D01*
X2520913D01*
X2493421Y1333766D01*
X2496725Y1337533D01*
X2504974Y1331203D01*
X2518899Y1325435D01*
X2533843Y1323468D01*
X2548787Y1325435D01*
X2562712Y1331203D01*
X2574670Y1340379D01*
X2583846Y1352337D01*
X2589614Y1366262D01*
X2591581Y1381206D01*
X2589614Y1396150D01*
X2583846Y1410075D01*
X2574670Y1422033D01*
X2562712Y1431209D01*
X2548787Y1436977D01*
X2533843Y1438944D01*
X2518899Y1436977D01*
X2504974Y1431209D01*
X2493016Y1422033D01*
X2483840Y1410075D01*
X2478072Y1396150D01*
X2476105Y1381206D01*
X2478072Y1366262D01*
X2483840Y1352337D01*
X2490170Y1344088D01*
X2486403Y1340784D01*
X2386833Y1440354D01*
Y1787793D01*
X2386833Y1787793D01*
X2385746Y1793256D01*
X2382652Y1797887D01*
X1703996Y2476542D01*
X1699365Y2479637D01*
X1693903Y2480723D01*
X1693902Y2480723D01*
X1343547D01*
X1340970Y2489218D01*
X1335472Y2499505D01*
X1328072Y2508521D01*
X1319056Y2515921D01*
X1308770Y2521419D01*
X1297608Y2524805D01*
X1286000Y2525948D01*
X1274392Y2524805D01*
X1263231Y2521419D01*
X1252944Y2515921D01*
X1243928Y2508521D01*
X1236528Y2499505D01*
X1231030Y2489218D01*
X1227644Y2478057D01*
X1226501Y2466449D01*
X1227644Y2454841D01*
X1231030Y2443680D01*
X1236528Y2433393D01*
X1243928Y2424377D01*
X1252944Y2416977D01*
X1263231Y2411479D01*
X1274392Y2408093D01*
X1286000Y2406950D01*
X1297608Y2408093D01*
X1308770Y2411479D01*
X1319056Y2416977D01*
X1328072Y2424377D01*
X1335472Y2433393D01*
X1340970Y2443680D01*
X1343547Y2452175D01*
X1687990D01*
X2314785Y1825380D01*
X2312243Y1820850D01*
X2298371Y1819024D01*
X2284445Y1813256D01*
X2272488Y1804080D01*
X2263312Y1792122D01*
X2257544Y1778197D01*
X2255576Y1763253D01*
X2257544Y1748310D01*
X2263312Y1734384D01*
X2272488Y1722426D01*
X2284445Y1713251D01*
X2298021Y1707628D01*
Y1483649D01*
X2236186Y1421814D01*
X2232870Y1416853D01*
X2231706Y1411000D01*
Y1406856D01*
X2226706Y1405159D01*
X2220283Y1413529D01*
X2208325Y1422705D01*
X2194400Y1428473D01*
X2179456Y1430440D01*
X2164512Y1428473D01*
X2150587Y1422705D01*
X2138629Y1413529D01*
X2129454Y1401571D01*
X2123686Y1387646D01*
X2121718Y1372702D01*
X2123686Y1357758D01*
X2129454Y1343833D01*
X2138629Y1331875D01*
X2150587Y1322699D01*
X2164512Y1316931D01*
X2179456Y1314964D01*
X2194400Y1316931D01*
X2208325Y1322699D01*
X2220283Y1331875D01*
X2226706Y1340246D01*
X2231706Y1338548D01*
Y820335D01*
X2109665Y698294D01*
X2086265D01*
Y719575D01*
X2079593D01*
Y795692D01*
X2078429Y801545D01*
X2075113Y806507D01*
X2044436Y837184D01*
X2039474Y840500D01*
X2033621Y841664D01*
X1820945D01*
X1815093Y840500D01*
X1810131Y837184D01*
X1779453Y806507D01*
X1776138Y801545D01*
X1774974Y795692D01*
Y725575D01*
X1771092D01*
Y669795D01*
X1766473Y667881D01*
X1229424Y1204930D01*
Y1354850D01*
X1229424Y1354850D01*
X1228337Y1360313D01*
X1225243Y1364944D01*
X1225243Y1364944D01*
X690393Y1899794D01*
X685762Y1902889D01*
X680299Y1903975D01*
X680299Y1903975D01*
X586212D01*
X364873Y2125314D01*
Y2227676D01*
X369873Y2230142D01*
X379022Y2223121D01*
X391990Y2217750D01*
X400906Y2216576D01*
Y2269685D01*
Y2322794D01*
X391990Y2321620D01*
X379022Y2316249D01*
X369873Y2309228D01*
X364873Y2311694D01*
Y2345786D01*
X369873Y2348252D01*
X379022Y2341232D01*
X391990Y2335860D01*
X400906Y2334686D01*
Y2387795D01*
Y2440904D01*
X391990Y2439730D01*
X379022Y2434359D01*
X369873Y2427339D01*
X364873Y2429804D01*
Y2463896D01*
X369873Y2466362D01*
X379022Y2459342D01*
X391990Y2453970D01*
X400905Y2452797D01*
Y2505906D01*
Y2559014D01*
X391990Y2557840D01*
X379022Y2552469D01*
X369873Y2545449D01*
X364873Y2547914D01*
Y2582007D01*
X369873Y2584472D01*
X379022Y2577452D01*
X391990Y2572081D01*
X405906Y2570249D01*
X419821Y2572081D01*
X432789Y2577452D01*
X443925Y2585997D01*
X452469Y2597132D01*
X457841Y2610100D01*
X459673Y2624016D01*
X457841Y2637932D01*
X452469Y2650899D01*
X443925Y2662035D01*
X432789Y2670579D01*
X419821Y2675951D01*
X405906Y2677783D01*
X391990Y2675951D01*
X379022Y2670579D01*
X369873Y2663559D01*
X364873Y2666025D01*
Y2700117D01*
X369873Y2702583D01*
X379022Y2695562D01*
X391990Y2690191D01*
X405906Y2688359D01*
X419821Y2690191D01*
X432789Y2695562D01*
X443925Y2704107D01*
X452469Y2715242D01*
X457841Y2728210D01*
X459673Y2742126D01*
X457841Y2756042D01*
X452469Y2769010D01*
X443925Y2780145D01*
X432789Y2788690D01*
X419821Y2794061D01*
X405906Y2795893D01*
X391990Y2794061D01*
X379022Y2788690D01*
X369873Y2781669D01*
X364873Y2784135D01*
Y2818227D01*
X369873Y2820693D01*
X379022Y2813673D01*
X391990Y2808301D01*
X405906Y2806469D01*
X419821Y2808301D01*
X432789Y2813673D01*
X443925Y2822217D01*
X452469Y2833353D01*
X457841Y2846320D01*
X459673Y2860236D01*
X457841Y2874152D01*
X452469Y2887120D01*
X443925Y2898255D01*
X432789Y2906800D01*
X419821Y2912171D01*
X405906Y2914003D01*
X391990Y2912171D01*
X379022Y2906800D01*
X369873Y2899780D01*
X364873Y2902245D01*
Y2936338D01*
X369873Y2938803D01*
X379022Y2931783D01*
X391990Y2926412D01*
X405906Y2924579D01*
X419821Y2926412D01*
X432789Y2931783D01*
X443925Y2940327D01*
X452469Y2951463D01*
X457841Y2964431D01*
X459673Y2978347D01*
X457841Y2992262D01*
X452469Y3005230D01*
X443925Y3016366D01*
X435792Y3022606D01*
X435581Y3027729D01*
X445974Y3038123D01*
X450769Y3035846D01*
X452396Y3023486D01*
X457767Y3010518D01*
X466312Y2999383D01*
X477447Y2990838D01*
X490415Y2985467D01*
X504331Y2983635D01*
X518247Y2985467D01*
X531214Y2990838D01*
X542350Y2999383D01*
X546459Y3004737D01*
X551805Y3003491D01*
X552370Y3000647D01*
X555686Y2995686D01*
X587195Y2964177D01*
X586868Y2959187D01*
X584422Y2957310D01*
X575877Y2946175D01*
X570506Y2933207D01*
X568674Y2919291D01*
X570506Y2905375D01*
X575877Y2892408D01*
X584422Y2881272D01*
X595557Y2872728D01*
X608525Y2867356D01*
X622441Y2865524D01*
X636357Y2867356D01*
X649324Y2872728D01*
X660460Y2881272D01*
X669005Y2892408D01*
X674376Y2905375D01*
X675736Y2915706D01*
X686790Y2915706D01*
X687287Y2915805D01*
X687790Y2915739D01*
X690197Y2916383D01*
X692643Y2916870D01*
X693064Y2917152D01*
X693554Y2917283D01*
X695531Y2918800D01*
X697604Y2920185D01*
X697886Y2920607D01*
X698288Y2920916D01*
X699535Y2923075D01*
X700919Y2925147D01*
X705452Y2927032D01*
X706950Y2926412D01*
X720866Y2924579D01*
X734782Y2926412D01*
X736280Y2927032D01*
X740813Y2925147D01*
X742198Y2923075D01*
X743444Y2920916D01*
X743846Y2920607D01*
X744128Y2920185D01*
X746201Y2918800D01*
X748178Y2917283D01*
X748668Y2917152D01*
X749090Y2916870D01*
X751535Y2916384D01*
X753942Y2915739D01*
X754445Y2915805D01*
X754943Y2915706D01*
X851665Y2915706D01*
X1160185Y2607185D01*
X1165147Y2603870D01*
X1170999Y2602706D01*
X1569131Y2602706D01*
X1571909Y2598549D01*
X1569072Y2591701D01*
X1567105Y2576757D01*
X1569072Y2561814D01*
X1574840Y2547888D01*
X1584016Y2535930D01*
X1595974Y2526755D01*
X1609899Y2520986D01*
X1624843Y2519019D01*
X1639787Y2520986D01*
X1653712Y2526755D01*
X1665670Y2535930D01*
X1674846Y2547888D01*
X1680614Y2561814D01*
X1682581Y2576757D01*
X1680614Y2591701D01*
X1677777Y2598549D01*
X1680555Y2602706D01*
X1702989D01*
X1705767Y2598549D01*
X1702931Y2591701D01*
X1700963Y2576757D01*
X1702931Y2561814D01*
X1708699Y2547888D01*
X1717874Y2535930D01*
X1729832Y2526755D01*
X1743758Y2520986D01*
X1758701Y2519019D01*
X1773645Y2520986D01*
X1787570Y2526755D01*
X1799528Y2535930D01*
X1808704Y2547888D01*
X1814472Y2561814D01*
X1816439Y2576757D01*
X1814472Y2591701D01*
X1811636Y2598549D01*
X1814414Y2602706D01*
X1899665D01*
X1950186Y2552186D01*
X1955147Y2548870D01*
X1961000Y2547706D01*
X2177000D01*
X2182853Y2548870D01*
X2187814Y2552186D01*
X2263814Y2628186D01*
X2267130Y2633147D01*
X2268294Y2639000D01*
X2268294Y2746996D01*
X2267130Y2752849D01*
X2263814Y2757811D01*
X2050908Y2970717D01*
X2052821Y2975337D01*
X2169984D01*
X2175837Y2976501D01*
X2180799Y2979816D01*
X2211476Y3010494D01*
X2214792Y3015456D01*
X2215956Y3021308D01*
Y3101425D01*
X2221346D01*
Y3121369D01*
X2234941D01*
X2268054Y3088256D01*
X2266447Y3083521D01*
X2263234Y3083099D01*
X2254720Y3079572D01*
X2247409Y3073962D01*
X2241798Y3066650D01*
X2238272Y3058136D01*
X2237727Y3053999D01*
X2272371D01*
Y3048999D01*
X2277371D01*
Y3014356D01*
X2281508Y3014900D01*
X2290022Y3018427D01*
X2297333Y3024037D01*
X2302943Y3031348D01*
X2306470Y3039863D01*
X2306893Y3043075D01*
X2311628Y3044682D01*
X2358440Y2997870D01*
Y2615200D01*
X2353440Y2613775D01*
X2342359Y2622278D01*
X2328433Y2628046D01*
X2313490Y2630014D01*
X2298546Y2628046D01*
X2284621Y2622278D01*
X2272663Y2613103D01*
X2263487Y2601145D01*
X2257719Y2587219D01*
X2255752Y2572276D01*
X2257719Y2557332D01*
X2263487Y2543407D01*
X2272663Y2531449D01*
X2284621Y2522273D01*
X2298546Y2516505D01*
X2313490Y2514537D01*
X2328433Y2516505D01*
X2342359Y2522273D01*
X2353440Y2530776D01*
X2358440Y2529351D01*
Y2255339D01*
X2359604Y2249486D01*
X2362919Y2244524D01*
X2397200Y2210243D01*
X2391577Y2196668D01*
X2389610Y2181724D01*
X2391577Y2166781D01*
X2397345Y2152855D01*
X2406521Y2140897D01*
X2418479Y2131722D01*
X2432404Y2125954D01*
X2447348Y2123986D01*
X2462292Y2125954D01*
X2476217Y2131722D01*
X2488175Y2140897D01*
X2497351Y2152855D01*
X2503119Y2166781D01*
X2505086Y2181724D01*
X2503119Y2196668D01*
X2497351Y2210593D01*
X2488175Y2222551D01*
X2476217Y2231727D01*
X2462642Y2237350D01*
Y2395659D01*
X2706840Y2639858D01*
X2710155Y2644819D01*
X2711320Y2650672D01*
Y2656812D01*
X2716320Y2658064D01*
X2719200Y2652676D01*
X2726599Y2643660D01*
X2735615Y2636261D01*
X2745902Y2630762D01*
X2757064Y2627376D01*
X2768671Y2626233D01*
X2780279Y2627376D01*
X2791441Y2630762D01*
X2801727Y2636261D01*
X2810744Y2643660D01*
X2818143Y2652676D01*
X2823641Y2662963D01*
X2827027Y2674125D01*
X2828170Y2685732D01*
X2827027Y2697340D01*
X2823641Y2708502D01*
X2818143Y2718788D01*
X2810744Y2727805D01*
X2801727Y2735204D01*
X2791441Y2740702D01*
X2780279Y2744088D01*
X2768671Y2745231D01*
X2757064Y2744088D01*
X2745902Y2740702D01*
X2735615Y2735204D01*
X2726599Y2727805D01*
X2719200Y2718788D01*
X2716320Y2713400D01*
X2711320Y2714653D01*
Y2841744D01*
X2877131Y3007556D01*
X2880447Y3012518D01*
X2881611Y3018371D01*
Y3090425D01*
X2886087D01*
Y3163575D01*
X2820811D01*
Y3163575D01*
X2817189D01*
Y3163575D01*
X2759605D01*
X2755255Y3167925D01*
X2757326Y3172925D01*
X2817189D01*
X2817189Y3172925D01*
X2820811D01*
Y3172925D01*
X2822189Y3172925D01*
X2886087D01*
Y3246075D01*
X2856191D01*
Y3255425D01*
X2886087D01*
Y3298281D01*
X2970143D01*
X2975996Y3299445D01*
X2980958Y3302760D01*
X3007706Y3329509D01*
X3012706Y3327438D01*
D02*
G37*
G36*
X1193500Y3006500D02*
X1240809D01*
X1253493Y2993815D01*
X1258455Y2990500D01*
X1264308Y2989336D01*
X1490772D01*
X1496625Y2990500D01*
X1501586Y2993816D01*
X1514271Y3006500D01*
X1911336Y3006500D01*
Y2999370D01*
X1912501Y2993517D01*
X1915816Y2988555D01*
X1924555Y2979816D01*
X1929517Y2976501D01*
X1935370Y2975337D01*
X2024659D01*
X2253000Y2746996D01*
X2253000Y2639000D01*
X2177000Y2563000D01*
X1961000D01*
X1906000Y2618000D01*
X1798986D01*
X1787570Y2626760D01*
X1773645Y2632528D01*
X1758701Y2634495D01*
X1743758Y2632528D01*
X1729832Y2626760D01*
X1718416Y2618000D01*
X1665128D01*
X1653712Y2626760D01*
X1639787Y2632528D01*
X1624843Y2634495D01*
X1609899Y2632528D01*
X1595974Y2626760D01*
X1584558Y2618000D01*
X1170999Y2618000D01*
X858000Y2931000D01*
X754943Y2931000D01*
X753245Y2936000D01*
X758885Y2940327D01*
X767430Y2951463D01*
X772801Y2964431D01*
X774633Y2978347D01*
X772801Y2992262D01*
X767430Y3005230D01*
X758885Y3016366D01*
X747750Y3024910D01*
X734782Y3030282D01*
X720866Y3032114D01*
X706950Y3030282D01*
X693983Y3024910D01*
X682847Y3016366D01*
X674302Y3005230D01*
X668931Y2992262D01*
X667099Y2978347D01*
X668931Y2964431D01*
X674302Y2951463D01*
X682847Y2940327D01*
X688487Y2936000D01*
X686790Y2931000D01*
X674667Y2931000D01*
X674376Y2933207D01*
X669005Y2946175D01*
X660460Y2957310D01*
X649324Y2965855D01*
X636357Y2971226D01*
X622441Y2973058D01*
X608525Y2971226D01*
X603751Y2969249D01*
X566500Y3006500D01*
Y3020091D01*
X571500Y3021086D01*
X575877Y3010518D01*
X584422Y2999383D01*
X595557Y2990838D01*
X608525Y2985467D01*
X612441Y2984951D01*
Y3037402D01*
Y3089852D01*
X608525Y3089337D01*
X595557Y3083965D01*
X584422Y3075421D01*
X575877Y3064285D01*
X571500Y3053717D01*
X566500Y3054712D01*
Y3075500D01*
X598662Y3107662D01*
X608525Y3103577D01*
X622441Y3101745D01*
X636357Y3103577D01*
X649324Y3108948D01*
X660460Y3117493D01*
X669005Y3128628D01*
X674376Y3141596D01*
X676208Y3155512D01*
X674376Y3169428D01*
X670459Y3178884D01*
X673595Y3182519D01*
X678513Y3182196D01*
X682847Y3176548D01*
X693983Y3168003D01*
X706950Y3162632D01*
X720866Y3160800D01*
X734782Y3162632D01*
X747750Y3168003D01*
X758885Y3176548D01*
X766905Y3187000D01*
X1013000D01*
X1193500Y3006500D01*
D02*
G37*
G36*
X1847985Y3378237D02*
Y3313086D01*
X1825685D01*
Y3249189D01*
X1825685Y3247810D01*
Y3244188D01*
X1825685Y3242810D01*
Y3216551D01*
X1898834D01*
Y3242810D01*
X1898834Y3244188D01*
Y3247810D01*
X1898834Y3249189D01*
Y3273327D01*
X1909110D01*
Y3271653D01*
X1941768D01*
X1943214Y3266653D01*
X1939484Y3264160D01*
X1930697Y3255374D01*
X1927381Y3250412D01*
X1926217Y3244559D01*
Y3196700D01*
X1927381Y3190847D01*
X1930697Y3185885D01*
X1931388Y3185194D01*
X1929475Y3180574D01*
X1906173D01*
Y3107425D01*
X1911336D01*
Y3021794D01*
X1522956Y3021794D01*
Y3118131D01*
X1586671D01*
X1588617Y3116186D01*
X1593579Y3112870D01*
X1599431Y3111706D01*
X1681451D01*
X1682428Y3109349D01*
X1688038Y3102038D01*
X1695349Y3096428D01*
X1703863Y3092901D01*
X1713000Y3091698D01*
X1722137Y3092901D01*
X1725661Y3094360D01*
X1728493Y3090122D01*
X1724995Y3086624D01*
X1605878D01*
X1604902Y3088981D01*
X1599292Y3096292D01*
X1591981Y3101902D01*
X1583466Y3105429D01*
X1574330Y3106632D01*
X1565193Y3105429D01*
X1556679Y3101902D01*
X1549367Y3096292D01*
X1543757Y3088981D01*
X1540231Y3080466D01*
X1539028Y3071330D01*
X1540231Y3062193D01*
X1543757Y3053679D01*
X1549367Y3046367D01*
X1556679Y3040757D01*
X1565193Y3037231D01*
X1574330Y3036028D01*
X1583466Y3037231D01*
X1591981Y3040757D01*
X1599292Y3046367D01*
X1604902Y3053679D01*
X1605878Y3056036D01*
X1731330D01*
X1737182Y3057200D01*
X1742144Y3060515D01*
X1776814Y3095186D01*
X1780130Y3100147D01*
X1781294Y3106000D01*
Y3203000D01*
X1780130Y3208853D01*
X1776814Y3213814D01*
X1659814Y3330814D01*
X1654853Y3334130D01*
X1649000Y3335294D01*
X1527638D01*
Y3356575D01*
X1463740D01*
X1462362Y3356575D01*
X1458740D01*
X1457362Y3356575D01*
X1431102D01*
Y3320000D01*
Y3283425D01*
X1457362D01*
X1458740Y3283425D01*
X1462362D01*
X1464771Y3281623D01*
X1465132Y3275588D01*
X1463619Y3274075D01*
X1458740Y3274075D01*
X1457362Y3274075D01*
X1393465D01*
Y3261798D01*
X1382382D01*
X1359366Y3284814D01*
X1354404Y3288130D01*
X1348551Y3289294D01*
X1341701D01*
Y3311370D01*
X1315953D01*
X1290205D01*
Y3289294D01*
X1266898D01*
Y3327608D01*
X1267192Y3329087D01*
X1266898Y3330565D01*
Y3344087D01*
X1253376D01*
X1251898Y3344381D01*
X1250420Y3344087D01*
X1215401D01*
Y3320916D01*
X1205126D01*
Y3330087D01*
X1131976D01*
Y3286440D01*
X1116162Y3270625D01*
X1112847Y3265664D01*
X1111682Y3259811D01*
Y3172318D01*
X1112847Y3166465D01*
X1116162Y3161503D01*
X1123877Y3153788D01*
X1122901Y3151431D01*
X1121698Y3142294D01*
X1122901Y3133157D01*
X1126428Y3124643D01*
X1132038Y3117332D01*
X1139349Y3111722D01*
X1147863Y3108195D01*
X1157000Y3106992D01*
X1166137Y3108195D01*
X1174651Y3111722D01*
X1181962Y3117332D01*
X1187572Y3124643D01*
X1191099Y3133157D01*
X1192302Y3142294D01*
X1191099Y3151431D01*
X1187572Y3159945D01*
X1181962Y3167256D01*
X1174651Y3172866D01*
X1166137Y3176393D01*
X1157000Y3177596D01*
X1147863Y3176393D01*
X1146018Y3175629D01*
X1142270Y3178714D01*
Y3195913D01*
X1163551D01*
Y3228551D01*
X1168551D01*
Y3233551D01*
X1205126D01*
Y3261189D01*
X1205126Y3261189D01*
Y3264811D01*
X1205126D01*
X1205126Y3266189D01*
Y3290328D01*
X1215401D01*
Y3288654D01*
X1246746D01*
X1247071Y3288236D01*
X1248576Y3283654D01*
X1246703Y3281781D01*
X1245775Y3281161D01*
X1229737Y3265122D01*
X1226421Y3260160D01*
X1225257Y3254308D01*
Y3220952D01*
X1226421Y3215099D01*
X1229737Y3210138D01*
X1237680Y3202194D01*
X1235767Y3197575D01*
X1212465D01*
Y3144840D01*
X1212171Y3143362D01*
Y3101241D01*
X1208870Y3096302D01*
X1207706Y3090449D01*
Y3045938D01*
X1208870Y3040085D01*
X1212186Y3035123D01*
X1220896Y3026413D01*
X1218982Y3021794D01*
X1199835D01*
X1023814Y3197814D01*
X1018852Y3201130D01*
X1013000Y3202294D01*
X776809D01*
X773512Y3206053D01*
X774633Y3214567D01*
X772801Y3228483D01*
X767430Y3241450D01*
X758885Y3252586D01*
X747750Y3261131D01*
X734782Y3266502D01*
X720866Y3268334D01*
X706950Y3266502D01*
X693983Y3261131D01*
X682847Y3252586D01*
X674302Y3241450D01*
X668931Y3228483D01*
X667099Y3214567D01*
X668931Y3200651D01*
X666721Y3196180D01*
X665475Y3195208D01*
X663102Y3193952D01*
X660460Y3193531D01*
X649324Y3202075D01*
X636357Y3207447D01*
X624923Y3208952D01*
X623131Y3214231D01*
X677372Y3268472D01*
X677372Y3268472D01*
X680466Y3273103D01*
X681553Y3278566D01*
Y3338366D01*
X907913Y3564726D01*
X1661497D01*
X1847985Y3378237D01*
D02*
G37*
G36*
X1383713Y3165760D02*
X1388675Y3162445D01*
X1391534Y3161876D01*
X1393465Y3159946D01*
Y3118425D01*
X1428446D01*
Y3098631D01*
X1420080Y3092211D01*
X1412167Y3081898D01*
X1407192Y3069888D01*
X1405495Y3057000D01*
X1407192Y3044112D01*
X1412167Y3032102D01*
X1417675Y3024924D01*
X1415209Y3019924D01*
X1326083D01*
X1323617Y3024924D01*
X1329125Y3032102D01*
X1334100Y3044112D01*
X1335796Y3057000D01*
X1334100Y3069888D01*
X1329125Y3081898D01*
X1321211Y3092211D01*
X1311656Y3099543D01*
Y3124425D01*
X1346638D01*
Y3195765D01*
X1351453Y3198020D01*
X1383713Y3165760D01*
D02*
G37*
G36*
X2087173Y3152945D02*
Y3101425D01*
X2123155D01*
Y3085942D01*
X2113081Y3078212D01*
X2105167Y3067899D01*
X2100193Y3055889D01*
X2098496Y3043001D01*
X2100193Y3030112D01*
X2105167Y3018103D01*
X2110675Y3010924D01*
X2108209Y3005924D01*
X2019083D01*
X2016617Y3010924D01*
X2022125Y3018102D01*
X2027100Y3030112D01*
X2028797Y3043001D01*
X2027100Y3055889D01*
X2022125Y3067899D01*
X2014212Y3078212D01*
X2005364Y3085001D01*
Y3107425D01*
X2040346D01*
Y3180574D01*
X1996699D01*
X1989274Y3187999D01*
X1991188Y3192619D01*
X2047499D01*
X2087173Y3152945D01*
D02*
G37*
G36*
X2742162Y3137760D02*
X2747124Y3134445D01*
X2749983Y3133876D01*
X2751913Y3131946D01*
Y3090425D01*
X2759257D01*
Y3079459D01*
X2760421Y3073606D01*
X2763737Y3068644D01*
X2769826Y3062555D01*
X2765848Y3052951D01*
X2764151Y3040063D01*
X2765848Y3027175D01*
X2770822Y3015165D01*
X2778736Y3004852D01*
X2789049Y2996938D01*
X2801059Y2991964D01*
X2810029Y2990783D01*
X2811821Y2985504D01*
X2696026Y2869708D01*
X2607579Y2958154D01*
Y2999981D01*
X2612579Y3002446D01*
X2619758Y2996938D01*
X2631767Y2991964D01*
X2644656Y2990267D01*
X2657544Y2991964D01*
X2669554Y2996938D01*
X2679867Y3004852D01*
X2687780Y3015165D01*
X2692755Y3027175D01*
X2694452Y3040063D01*
X2692755Y3052951D01*
X2687780Y3064961D01*
X2679867Y3075274D01*
X2669554Y3083188D01*
X2668085Y3083796D01*
Y3096425D01*
X2705087D01*
Y3167765D01*
X2709902Y3170020D01*
X2742162Y3137760D01*
D02*
G37*
G36*
X3037485Y3022323D02*
Y2596130D01*
X3032485Y2595135D01*
X3029168Y2603145D01*
X3019992Y2615103D01*
X3008034Y2624278D01*
X2994109Y2630046D01*
X2979165Y2632014D01*
X2964221Y2630046D01*
X2950296Y2624278D01*
X2939215Y2615775D01*
X2934215Y2617200D01*
Y2925586D01*
X3032866Y3024237D01*
X3037485Y3022323D01*
D02*
G37*
G36*
Y2552421D02*
Y2205579D01*
X3032485Y2204584D01*
X3029168Y2212593D01*
X3019992Y2224551D01*
X3008034Y2233727D01*
X2994109Y2239495D01*
X2979165Y2241463D01*
X2964221Y2239495D01*
X2950296Y2233727D01*
X2939215Y2225224D01*
X2934215Y2226649D01*
Y2531351D01*
X2939215Y2532776D01*
X2950296Y2524273D01*
X2964221Y2518505D01*
X2979165Y2516537D01*
X2994109Y2518505D01*
X3008034Y2524273D01*
X3019992Y2533449D01*
X3029168Y2545407D01*
X3032485Y2553416D01*
X3037485Y2552421D01*
D02*
G37*
G36*
Y2161870D02*
Y2158771D01*
X3038649Y2152918D01*
X3041965Y2147956D01*
X3287978Y1901943D01*
Y1813924D01*
X3282978Y1812500D01*
X3271897Y1821003D01*
X3257972Y1826771D01*
X3243028Y1828738D01*
X3228084Y1826771D01*
X3214159Y1821003D01*
X3202201Y1811827D01*
X3193025Y1799869D01*
X3187257Y1785944D01*
X3185434Y1772096D01*
X3180891Y1769567D01*
X2934215Y2016244D01*
Y2140800D01*
X2939215Y2142225D01*
X2950296Y2133722D01*
X2964221Y2127954D01*
X2979165Y2125986D01*
X2994109Y2127954D01*
X3008034Y2133722D01*
X3019992Y2142897D01*
X3029168Y2154855D01*
X3032485Y2162865D01*
X3037485Y2161870D01*
D02*
G37*
G36*
X4634726Y3049204D02*
Y2118967D01*
X4628894Y2113135D01*
X4624274Y2115049D01*
Y3048029D01*
X4627651Y3049428D01*
X4630241Y3051415D01*
X4634726Y3049204D01*
D02*
G37*
G36*
X3287978Y1728076D02*
Y1675005D01*
X3289142Y1669152D01*
X3292458Y1664190D01*
X3547231Y1409417D01*
X3541608Y1395842D01*
X3539640Y1380898D01*
X3541608Y1365955D01*
X3547376Y1352029D01*
X3556239Y1340479D01*
X3555634Y1337370D01*
X3554992Y1335479D01*
X3419777D01*
X3418371Y1340479D01*
X3426889Y1351580D01*
X3432657Y1365505D01*
X3434624Y1380449D01*
X3432657Y1395392D01*
X3426889Y1409318D01*
X3417713Y1421276D01*
X3405755Y1430451D01*
X3391830Y1436219D01*
X3376886Y1438187D01*
X3361943Y1436219D01*
X3348017Y1430451D01*
X3336059Y1421276D01*
X3326884Y1409318D01*
X3321116Y1395392D01*
X3319148Y1380449D01*
X3321116Y1365505D01*
X3326884Y1351580D01*
X3335401Y1340479D01*
X3333996Y1335479D01*
X3285918D01*
X3284513Y1340479D01*
X3293031Y1351580D01*
X3298799Y1365505D01*
X3300766Y1380449D01*
X3298799Y1395392D01*
X3293031Y1409318D01*
X3283855Y1421276D01*
X3271897Y1430451D01*
X3258322Y1436074D01*
Y1685802D01*
X3257158Y1691655D01*
X3253842Y1696616D01*
X3241595Y1708863D01*
X3244124Y1713406D01*
X3257972Y1715229D01*
X3271897Y1720997D01*
X3282978Y1729500D01*
X3287978Y1728076D01*
D02*
G37*
G36*
X2358284Y1720363D02*
Y1434442D01*
X2358284Y1434441D01*
X2359371Y1428979D01*
X2362465Y1424348D01*
X2496919Y1289894D01*
X2495006Y1285274D01*
X2420929D01*
X2362906Y1343297D01*
X2363317Y1343833D01*
X2369085Y1357758D01*
X2371053Y1372702D01*
X2369085Y1387646D01*
X2363317Y1401571D01*
X2354142Y1413529D01*
X2342184Y1422705D01*
X2328258Y1428473D01*
X2313314Y1430440D01*
X2298371Y1428473D01*
X2289497Y1424797D01*
X2286665Y1429036D01*
X2324129Y1466500D01*
X2327444Y1471462D01*
X2328608Y1477314D01*
Y1707628D01*
X2342184Y1713251D01*
X2353284Y1721769D01*
X2358284Y1720363D01*
D02*
G37*
G36*
X1974312Y806076D02*
X1968804Y798898D01*
X1963830Y786888D01*
X1962133Y774000D01*
X1963830Y761112D01*
X1968804Y749102D01*
X1976718Y738789D01*
X1987031Y730875D01*
X1987074Y730858D01*
Y719575D01*
X1952092D01*
Y648235D01*
X1947276Y645980D01*
X1915017Y678240D01*
X1910055Y681555D01*
X1907196Y682124D01*
X1905265Y684054D01*
Y725575D01*
X1870284D01*
Y732984D01*
X1877849Y738789D01*
X1885762Y749102D01*
X1890737Y761112D01*
X1892434Y774000D01*
X1890737Y786888D01*
X1885762Y798898D01*
X1880255Y806076D01*
X1882720Y811076D01*
X1971847D01*
X1974312Y806076D01*
D02*
G37*
G36*
X1939364Y559186D02*
X1944326Y555870D01*
X1950179Y554706D01*
X1957029D01*
Y532630D01*
X2008525D01*
Y554706D01*
X2031832D01*
Y520508D01*
X2030719Y514913D01*
X2031832Y509318D01*
Y499913D01*
X2042286D01*
Y376915D01*
X1992665Y327294D01*
X1958811D01*
X1956600Y331778D01*
X1958572Y334349D01*
X1962099Y342863D01*
X1962644Y347000D01*
X1893356D01*
X1893901Y342863D01*
X1897428Y334349D01*
X1899400Y331778D01*
X1897189Y327294D01*
X1842794D01*
X1819024Y351065D01*
Y487425D01*
X1834989D01*
X1836368Y487425D01*
X1839990D01*
X1841368Y487425D01*
X1867627D01*
Y524000D01*
Y560575D01*
X1841368D01*
X1839990Y560575D01*
X1836368D01*
X1831575Y564160D01*
Y569424D01*
X1836368Y569925D01*
X1839990D01*
Y569925D01*
X1905265D01*
Y582202D01*
X1916348D01*
X1939364Y559186D01*
D02*
G37*
%LPC*%
G36*
X2956000Y3395644D02*
X2951863Y3395099D01*
X2943349Y3391572D01*
X2936038Y3385962D01*
X2930428Y3378651D01*
X2926901Y3370137D01*
X2926356Y3366000D01*
X2956000D01*
Y3395644D01*
D02*
G37*
G36*
X2779551Y3328575D02*
X2751913D01*
Y3297000D01*
X2779551D01*
Y3328575D01*
D02*
G37*
G36*
X2700149Y3316087D02*
X2679402D01*
Y3293370D01*
X2700149D01*
Y3316087D01*
D02*
G37*
G36*
X2669402D02*
X2648653D01*
Y3293370D01*
X2669402D01*
Y3316087D01*
D02*
G37*
G36*
X2779551Y3287000D02*
X2751913D01*
Y3255425D01*
X2779551D01*
Y3287000D01*
D02*
G37*
G36*
X2114811Y3339574D02*
X2087173D01*
Y3307999D01*
X2114811D01*
Y3339574D01*
D02*
G37*
G36*
X2035409Y3327086D02*
X2014661D01*
Y3304370D01*
X2035409D01*
Y3327086D01*
D02*
G37*
G36*
X2004661D02*
X1983913D01*
Y3304370D01*
X2004661D01*
Y3327086D01*
D02*
G37*
G36*
X2114811Y3297999D02*
X2087173D01*
Y3266425D01*
X2114811D01*
Y3297999D01*
D02*
G37*
G36*
X2417000Y3275644D02*
X2412863Y3275099D01*
X2404349Y3271572D01*
X2397038Y3265962D01*
X2391428Y3258651D01*
X2387901Y3250137D01*
X2387356Y3246000D01*
X2417000D01*
Y3275644D01*
D02*
G37*
G36*
X2563575Y3195551D02*
X2532000D01*
Y3167913D01*
X2563575D01*
Y3195551D01*
D02*
G37*
G36*
X2522000D02*
X2490425D01*
Y3167913D01*
X2522000D01*
Y3195551D01*
D02*
G37*
G36*
X2445000Y2919465D02*
Y2889821D01*
X2474644D01*
X2474099Y2893958D01*
X2470572Y2902472D01*
X2464962Y2909783D01*
X2457651Y2915393D01*
X2449137Y2918920D01*
X2445000Y2919465D01*
D02*
G37*
G36*
X2435000D02*
X2430863Y2918920D01*
X2422349Y2915393D01*
X2415038Y2909783D01*
X2409428Y2902472D01*
X2405901Y2893958D01*
X2405356Y2889821D01*
X2435000D01*
Y2919465D01*
D02*
G37*
G36*
X2474644Y2879821D02*
X2445000D01*
Y2850177D01*
X2449137Y2850722D01*
X2457651Y2854249D01*
X2464962Y2859859D01*
X2470572Y2867170D01*
X2474099Y2875684D01*
X2474644Y2879821D01*
D02*
G37*
G36*
X2435000D02*
X2405356D01*
X2405901Y2875684D01*
X2409428Y2867170D01*
X2415038Y2859859D01*
X2422349Y2854249D01*
X2430863Y2850722D01*
X2435000Y2850177D01*
Y2879821D01*
D02*
G37*
G36*
X2267371Y3043999D02*
X2237727D01*
X2238272Y3039863D01*
X2241798Y3031348D01*
X2247409Y3024037D01*
X2254720Y3018427D01*
X2263234Y3014900D01*
X2267371Y3014356D01*
Y3043999D01*
D02*
G37*
G36*
X504331Y2973058D02*
X490415Y2971226D01*
X477447Y2965855D01*
X466312Y2957310D01*
X457767Y2946175D01*
X452396Y2933207D01*
X450564Y2919291D01*
X452396Y2905375D01*
X457767Y2892408D01*
X466312Y2881272D01*
X477447Y2872728D01*
X490415Y2867356D01*
X504331Y2865524D01*
X518247Y2867356D01*
X531214Y2872728D01*
X542350Y2881272D01*
X550894Y2892408D01*
X556266Y2905375D01*
X558098Y2919291D01*
X556266Y2933207D01*
X550894Y2946175D01*
X542350Y2957310D01*
X531214Y2965855D01*
X518247Y2971226D01*
X504331Y2973058D01*
D02*
G37*
G36*
X720866Y2914003D02*
X706950Y2912171D01*
X693982Y2906800D01*
X682847Y2898255D01*
X674302Y2887120D01*
X668931Y2874152D01*
X667099Y2860236D01*
X668931Y2846320D01*
X674302Y2833353D01*
X682847Y2822217D01*
X693982Y2813673D01*
X706950Y2808301D01*
X720866Y2806469D01*
X734782Y2808301D01*
X747750Y2813673D01*
X758885Y2822217D01*
X767430Y2833353D01*
X772801Y2846320D01*
X774633Y2860236D01*
X772801Y2874152D01*
X767430Y2887120D01*
X758885Y2898255D01*
X747750Y2906800D01*
X734782Y2912171D01*
X720866Y2914003D01*
D02*
G37*
G36*
X627441Y2854290D02*
Y2806181D01*
X675550D01*
X674376Y2815097D01*
X669005Y2828065D01*
X660460Y2839200D01*
X649324Y2847745D01*
X636357Y2853116D01*
X627441Y2854290D01*
D02*
G37*
G36*
X617441D02*
X608525Y2853116D01*
X595557Y2847745D01*
X584422Y2839200D01*
X575877Y2828065D01*
X570506Y2815097D01*
X569332Y2806181D01*
X617441D01*
Y2854290D01*
D02*
G37*
G36*
Y2796181D02*
X569332D01*
X570506Y2787265D01*
X575877Y2774298D01*
X584422Y2763162D01*
X595557Y2754617D01*
X608525Y2749246D01*
X617441Y2748072D01*
Y2796181D01*
D02*
G37*
G36*
X675550D02*
X627441D01*
Y2748072D01*
X636357Y2749246D01*
X649324Y2754617D01*
X660460Y2763162D01*
X669005Y2774298D01*
X674376Y2787265D01*
X675550Y2796181D01*
D02*
G37*
G36*
X504331Y2854948D02*
X490415Y2853116D01*
X477447Y2847745D01*
X466312Y2839200D01*
X457767Y2828065D01*
X452396Y2815097D01*
X450564Y2801181D01*
X452396Y2787265D01*
X457767Y2774298D01*
X466312Y2763162D01*
X477447Y2754617D01*
X490415Y2749246D01*
X504331Y2747414D01*
X518247Y2749246D01*
X531214Y2754617D01*
X542350Y2763162D01*
X550894Y2774298D01*
X556266Y2787265D01*
X558098Y2801181D01*
X556266Y2815097D01*
X550894Y2828065D01*
X542350Y2839200D01*
X531214Y2847745D01*
X518247Y2853116D01*
X504331Y2854948D01*
D02*
G37*
G36*
X725866Y2795235D02*
Y2747126D01*
X773975D01*
X772801Y2756042D01*
X767430Y2769010D01*
X758885Y2780145D01*
X747750Y2788690D01*
X734782Y2794061D01*
X725866Y2795235D01*
D02*
G37*
G36*
X715866D02*
X706950Y2794061D01*
X693982Y2788690D01*
X682847Y2780145D01*
X674302Y2769010D01*
X668931Y2756042D01*
X667757Y2747126D01*
X715866D01*
Y2795235D01*
D02*
G37*
G36*
X773975Y2737126D02*
X725866D01*
Y2689017D01*
X734782Y2690191D01*
X747750Y2695562D01*
X758885Y2704107D01*
X767430Y2715242D01*
X772801Y2728210D01*
X773975Y2737126D01*
D02*
G37*
G36*
X715866D02*
X667757D01*
X668931Y2728210D01*
X674302Y2715242D01*
X682847Y2704107D01*
X693982Y2695562D01*
X706950Y2690191D01*
X715866Y2689017D01*
Y2737126D01*
D02*
G37*
G36*
X627441Y2736180D02*
Y2688071D01*
X675550D01*
X674376Y2696987D01*
X669005Y2709954D01*
X660460Y2721090D01*
X649324Y2729635D01*
X636357Y2735006D01*
X627441Y2736180D01*
D02*
G37*
G36*
X509331D02*
Y2688071D01*
X557439D01*
X556266Y2696987D01*
X550894Y2709954D01*
X542350Y2721090D01*
X531214Y2729635D01*
X518247Y2735006D01*
X509331Y2736180D01*
D02*
G37*
G36*
X617441D02*
X608525Y2735006D01*
X595557Y2729635D01*
X584422Y2721090D01*
X575877Y2709954D01*
X570506Y2696987D01*
X569332Y2688071D01*
X617441D01*
Y2736180D01*
D02*
G37*
G36*
X499331D02*
X490415Y2735006D01*
X477447Y2729635D01*
X466312Y2721090D01*
X457767Y2709954D01*
X452396Y2696987D01*
X451222Y2688071D01*
X499331D01*
Y2736180D01*
D02*
G37*
G36*
X675550Y2678071D02*
X627441D01*
Y2629962D01*
X636357Y2631136D01*
X649324Y2636507D01*
X660460Y2645052D01*
X669005Y2656187D01*
X674376Y2669155D01*
X675550Y2678071D01*
D02*
G37*
G36*
X557439D02*
X509331D01*
Y2629962D01*
X518247Y2631136D01*
X531214Y2636507D01*
X542350Y2645052D01*
X550894Y2656187D01*
X556266Y2669155D01*
X557439Y2678071D01*
D02*
G37*
G36*
X617441D02*
X569332D01*
X570506Y2669155D01*
X575877Y2656187D01*
X584422Y2645052D01*
X595557Y2636507D01*
X608525Y2631136D01*
X617441Y2629962D01*
Y2678071D01*
D02*
G37*
G36*
X499331D02*
X451222D01*
X452396Y2669155D01*
X457767Y2656187D01*
X466312Y2645052D01*
X477447Y2636507D01*
X490415Y2631136D01*
X499331Y2629962D01*
Y2678071D01*
D02*
G37*
G36*
X725866Y2677124D02*
Y2629016D01*
X773975D01*
X772801Y2637932D01*
X767430Y2650899D01*
X758885Y2662035D01*
X747750Y2670579D01*
X734782Y2675951D01*
X725866Y2677124D01*
D02*
G37*
G36*
X715866D02*
X706950Y2675951D01*
X693983Y2670579D01*
X682847Y2662035D01*
X674302Y2650899D01*
X668931Y2637932D01*
X667757Y2629016D01*
X715866D01*
Y2677124D01*
D02*
G37*
G36*
X773975Y2619016D02*
X725866D01*
Y2570907D01*
X734782Y2572081D01*
X747750Y2577452D01*
X758885Y2585997D01*
X767430Y2597132D01*
X772801Y2610100D01*
X773975Y2619016D01*
D02*
G37*
G36*
X715866D02*
X667757D01*
X668931Y2610100D01*
X674302Y2597132D01*
X682847Y2585997D01*
X693983Y2577452D01*
X706950Y2572081D01*
X715866Y2570907D01*
Y2619016D01*
D02*
G37*
G36*
X627441Y2618069D02*
Y2569961D01*
X675550D01*
X674376Y2578876D01*
X669005Y2591844D01*
X660460Y2602980D01*
X649324Y2611524D01*
X636357Y2616896D01*
X627441Y2618069D01*
D02*
G37*
G36*
X509331D02*
Y2569961D01*
X557439D01*
X556266Y2578876D01*
X550894Y2591844D01*
X542350Y2602980D01*
X531214Y2611524D01*
X518247Y2616896D01*
X509331Y2618069D01*
D02*
G37*
G36*
X617441D02*
X608525Y2616896D01*
X595557Y2611524D01*
X584422Y2602980D01*
X575877Y2591844D01*
X570506Y2578876D01*
X569332Y2569961D01*
X617441D01*
Y2618069D01*
D02*
G37*
G36*
X499331D02*
X490415Y2616896D01*
X477447Y2611524D01*
X466312Y2602980D01*
X457767Y2591844D01*
X452396Y2578876D01*
X451222Y2569961D01*
X499331D01*
Y2618069D01*
D02*
G37*
G36*
X1151000Y2564644D02*
Y2535000D01*
X1180644D01*
X1180099Y2539137D01*
X1176572Y2547651D01*
X1170962Y2554962D01*
X1163651Y2560572D01*
X1155137Y2564099D01*
X1151000Y2564644D01*
D02*
G37*
G36*
X1141000D02*
X1136863Y2564099D01*
X1128349Y2560572D01*
X1121038Y2554962D01*
X1115428Y2547651D01*
X1111901Y2539137D01*
X1111356Y2535000D01*
X1141000D01*
Y2564644D01*
D02*
G37*
G36*
X675550Y2559961D02*
X627441D01*
Y2511852D01*
X636357Y2513026D01*
X649324Y2518397D01*
X660460Y2526941D01*
X669005Y2538077D01*
X674376Y2551045D01*
X675550Y2559961D01*
D02*
G37*
G36*
X557439D02*
X509331D01*
Y2511852D01*
X518247Y2513026D01*
X531214Y2518397D01*
X542350Y2526941D01*
X550894Y2538077D01*
X556266Y2551045D01*
X557439Y2559961D01*
D02*
G37*
G36*
X617441D02*
X569332D01*
X570506Y2551045D01*
X575877Y2538077D01*
X584422Y2526941D01*
X595557Y2518397D01*
X608525Y2513026D01*
X617441Y2511852D01*
Y2559961D01*
D02*
G37*
G36*
X499331D02*
X451222D01*
X452396Y2551045D01*
X457767Y2538077D01*
X466312Y2526941D01*
X477447Y2518397D01*
X490415Y2513026D01*
X499331Y2511852D01*
Y2559961D01*
D02*
G37*
G36*
X725866Y2559014D02*
Y2510906D01*
X773975D01*
X772801Y2519821D01*
X767430Y2532789D01*
X758885Y2543925D01*
X747750Y2552469D01*
X734782Y2557840D01*
X725866Y2559014D01*
D02*
G37*
G36*
X410905D02*
Y2510906D01*
X459014D01*
X457841Y2519821D01*
X452469Y2532789D01*
X443925Y2543925D01*
X432789Y2552469D01*
X419821Y2557840D01*
X410905Y2559014D01*
D02*
G37*
G36*
X715866D02*
X706950Y2557840D01*
X693983Y2552469D01*
X682847Y2543925D01*
X674302Y2532789D01*
X668931Y2519821D01*
X667757Y2510906D01*
X715866D01*
Y2559014D01*
D02*
G37*
G36*
X1180644Y2525000D02*
X1151000D01*
Y2495356D01*
X1155137Y2495901D01*
X1163651Y2499428D01*
X1170962Y2505038D01*
X1176572Y2512349D01*
X1180099Y2520863D01*
X1180644Y2525000D01*
D02*
G37*
G36*
X1141000D02*
X1111356D01*
X1111901Y2520863D01*
X1115428Y2512349D01*
X1121038Y2505038D01*
X1128349Y2499428D01*
X1136863Y2495901D01*
X1141000Y2495356D01*
Y2525000D01*
D02*
G37*
G36*
X715866Y2500906D02*
X667757D01*
X668931Y2491990D01*
X674302Y2479022D01*
X682847Y2467886D01*
X693983Y2459342D01*
X706950Y2453970D01*
X715866Y2452797D01*
Y2500906D01*
D02*
G37*
G36*
X773975D02*
X725866D01*
Y2452797D01*
X734782Y2453970D01*
X747750Y2459342D01*
X758885Y2467886D01*
X767430Y2479022D01*
X772801Y2491990D01*
X773975Y2500906D01*
D02*
G37*
G36*
X459014D02*
X410905D01*
Y2452797D01*
X419821Y2453970D01*
X432789Y2459342D01*
X443925Y2467886D01*
X452469Y2479022D01*
X457841Y2491990D01*
X459014Y2500906D01*
D02*
G37*
G36*
X627441Y2499959D02*
Y2451850D01*
X675550D01*
X674376Y2460766D01*
X669005Y2473734D01*
X660460Y2484869D01*
X649324Y2493414D01*
X636357Y2498785D01*
X627441Y2499959D01*
D02*
G37*
G36*
X509331D02*
Y2451850D01*
X557439D01*
X556266Y2460766D01*
X550894Y2473734D01*
X542350Y2484869D01*
X531214Y2493414D01*
X518247Y2498785D01*
X509331Y2499959D01*
D02*
G37*
G36*
X617441D02*
X608525Y2498785D01*
X595557Y2493414D01*
X584422Y2484869D01*
X575877Y2473734D01*
X570506Y2460766D01*
X569332Y2451850D01*
X617441D01*
Y2499959D01*
D02*
G37*
G36*
X499331D02*
X490415Y2498785D01*
X477447Y2493414D01*
X466312Y2484869D01*
X457767Y2473734D01*
X452396Y2460766D01*
X451222Y2451850D01*
X499331D01*
Y2499959D01*
D02*
G37*
G36*
X675550Y2441850D02*
X627441D01*
Y2393742D01*
X636357Y2394915D01*
X649324Y2400287D01*
X660460Y2408831D01*
X669005Y2419967D01*
X674376Y2432934D01*
X675550Y2441850D01*
D02*
G37*
G36*
X557439D02*
X509331D01*
Y2393742D01*
X518247Y2394915D01*
X531214Y2400287D01*
X542350Y2408831D01*
X550894Y2419967D01*
X556266Y2432934D01*
X557439Y2441850D01*
D02*
G37*
G36*
X617441D02*
X569332D01*
X570506Y2432934D01*
X575877Y2419967D01*
X584422Y2408831D01*
X595557Y2400287D01*
X608525Y2394915D01*
X617441Y2393742D01*
Y2441850D01*
D02*
G37*
G36*
X499331D02*
X451222D01*
X452396Y2432934D01*
X457767Y2419967D01*
X466312Y2408831D01*
X477447Y2400287D01*
X490415Y2394915D01*
X499331Y2393742D01*
Y2441850D01*
D02*
G37*
G36*
X410906Y2440904D02*
Y2392795D01*
X459014D01*
X457841Y2401711D01*
X452469Y2414679D01*
X443925Y2425814D01*
X432789Y2434359D01*
X419821Y2439730D01*
X410906Y2440904D01*
D02*
G37*
G36*
X2644656Y2509011D02*
X2633048Y2507868D01*
X2621886Y2504482D01*
X2611600Y2498983D01*
X2602583Y2491584D01*
X2595184Y2482568D01*
X2589686Y2472281D01*
X2586300Y2461119D01*
X2585157Y2449512D01*
X2586300Y2437904D01*
X2589686Y2426742D01*
X2595184Y2416456D01*
X2602583Y2407440D01*
X2611600Y2400040D01*
X2621886Y2394542D01*
X2633048Y2391156D01*
X2644656Y2390013D01*
X2656263Y2391156D01*
X2667425Y2394542D01*
X2677711Y2400040D01*
X2686728Y2407440D01*
X2694127Y2416456D01*
X2699626Y2426742D01*
X2703011Y2437904D01*
X2704155Y2449512D01*
X2703011Y2461119D01*
X2699626Y2472281D01*
X2694127Y2482568D01*
X2686728Y2491584D01*
X2677711Y2498983D01*
X2667425Y2504482D01*
X2656263Y2507868D01*
X2644656Y2509011D01*
D02*
G37*
G36*
X459014Y2382795D02*
X410906D01*
Y2334686D01*
X419821Y2335860D01*
X432789Y2341232D01*
X443925Y2349776D01*
X452469Y2360912D01*
X457841Y2373879D01*
X459014Y2382795D01*
D02*
G37*
G36*
X720866Y2441562D02*
X706950Y2439730D01*
X693983Y2434359D01*
X682847Y2425814D01*
X674302Y2414679D01*
X668931Y2401711D01*
X667099Y2387795D01*
X668931Y2373879D01*
X674302Y2360912D01*
X682847Y2349776D01*
X693983Y2341232D01*
X706950Y2335860D01*
X720866Y2334028D01*
X734782Y2335860D01*
X747750Y2341232D01*
X758885Y2349776D01*
X767430Y2360912D01*
X772801Y2373879D01*
X774633Y2387795D01*
X772801Y2401711D01*
X767430Y2414679D01*
X758885Y2425814D01*
X747750Y2434359D01*
X734782Y2439730D01*
X720866Y2441562D01*
D02*
G37*
G36*
X509331Y2381849D02*
Y2333740D01*
X557439D01*
X556266Y2342656D01*
X550894Y2355624D01*
X542350Y2366759D01*
X531214Y2375304D01*
X518247Y2380675D01*
X509331Y2381849D01*
D02*
G37*
G36*
X499331D02*
X490415Y2380675D01*
X477447Y2375304D01*
X466312Y2366759D01*
X457767Y2355624D01*
X452396Y2342656D01*
X451222Y2333740D01*
X499331D01*
Y2381849D01*
D02*
G37*
G36*
X557439Y2323740D02*
X509331D01*
Y2275631D01*
X518247Y2276805D01*
X531214Y2282177D01*
X542350Y2290721D01*
X550894Y2301857D01*
X556266Y2314824D01*
X557439Y2323740D01*
D02*
G37*
G36*
X499331D02*
X451222D01*
X452396Y2314824D01*
X457767Y2301857D01*
X466312Y2290721D01*
X477447Y2282177D01*
X490415Y2276805D01*
X499331Y2275631D01*
Y2323740D01*
D02*
G37*
G36*
X622441Y2382507D02*
X608525Y2380675D01*
X595557Y2375304D01*
X584422Y2366759D01*
X575877Y2355624D01*
X570506Y2342656D01*
X568674Y2328740D01*
X570506Y2314824D01*
X575877Y2301857D01*
X584422Y2290721D01*
X595557Y2282177D01*
X608525Y2276805D01*
X622441Y2274973D01*
X636357Y2276805D01*
X649324Y2282177D01*
X660460Y2290721D01*
X669005Y2301857D01*
X674376Y2314824D01*
X676208Y2328740D01*
X674376Y2342656D01*
X669005Y2355624D01*
X660460Y2366759D01*
X649324Y2375304D01*
X636357Y2380675D01*
X622441Y2382507D01*
D02*
G37*
G36*
X410906Y2322794D02*
Y2274685D01*
X459014D01*
X457841Y2283601D01*
X452469Y2296568D01*
X443925Y2307704D01*
X432789Y2316249D01*
X419821Y2321620D01*
X410906Y2322794D01*
D02*
G37*
G36*
X459014Y2264685D02*
X410906D01*
Y2216576D01*
X419821Y2217750D01*
X432789Y2223121D01*
X443925Y2231666D01*
X452469Y2242802D01*
X457841Y2255769D01*
X459014Y2264685D01*
D02*
G37*
G36*
X720866Y2323452D02*
X706950Y2321620D01*
X693982Y2316249D01*
X682847Y2307704D01*
X674302Y2296568D01*
X668931Y2283601D01*
X667099Y2269685D01*
X668931Y2255769D01*
X674302Y2242802D01*
X682847Y2231666D01*
X693982Y2223121D01*
X706950Y2217750D01*
X720866Y2215918D01*
X734782Y2217750D01*
X747750Y2223121D01*
X758885Y2231666D01*
X767430Y2242802D01*
X772801Y2255769D01*
X774633Y2269685D01*
X772801Y2283601D01*
X767430Y2296568D01*
X758885Y2307704D01*
X747750Y2316249D01*
X734782Y2321620D01*
X720866Y2323452D01*
D02*
G37*
G36*
X495000Y2197596D02*
Y2167952D01*
X524644D01*
X524099Y2172089D01*
X520572Y2180604D01*
X514962Y2187915D01*
X507651Y2193525D01*
X499137Y2197052D01*
X495000Y2197596D01*
D02*
G37*
G36*
X485000D02*
X480863Y2197052D01*
X472349Y2193525D01*
X465038Y2187915D01*
X459428Y2180604D01*
X455901Y2172089D01*
X455356Y2167952D01*
X485000D01*
Y2197596D01*
D02*
G37*
G36*
X1385551Y2261518D02*
X1370608Y2259550D01*
X1356682Y2253782D01*
X1344724Y2244606D01*
X1335549Y2232649D01*
X1329781Y2218723D01*
X1327813Y2203780D01*
X1329781Y2188836D01*
X1335549Y2174910D01*
X1344724Y2162952D01*
X1356682Y2153777D01*
X1370608Y2148009D01*
X1385551Y2146041D01*
X1400495Y2148009D01*
X1414420Y2153777D01*
X1426378Y2162952D01*
X1435554Y2174910D01*
X1441322Y2188836D01*
X1443289Y2203780D01*
X1441322Y2218723D01*
X1435554Y2232649D01*
X1426378Y2244606D01*
X1414420Y2253782D01*
X1400495Y2259550D01*
X1385551Y2261518D01*
D02*
G37*
G36*
X995000D02*
X980056Y2259550D01*
X966131Y2253782D01*
X954173Y2244606D01*
X944997Y2232649D01*
X939229Y2218723D01*
X937262Y2203780D01*
X939229Y2188836D01*
X944997Y2174910D01*
X954173Y2162952D01*
X966131Y2153777D01*
X980056Y2148009D01*
X995000Y2146041D01*
X1009944Y2148009D01*
X1023869Y2153777D01*
X1035827Y2162952D01*
X1045003Y2174910D01*
X1050771Y2188836D01*
X1052738Y2203780D01*
X1050771Y2218723D01*
X1045003Y2232649D01*
X1035827Y2244606D01*
X1023869Y2253782D01*
X1009944Y2259550D01*
X995000Y2261518D01*
D02*
G37*
G36*
X1758701Y2243944D02*
X1743758Y2241977D01*
X1729832Y2236209D01*
X1717874Y2227033D01*
X1708699Y2215075D01*
X1702931Y2201150D01*
X1700963Y2186206D01*
X1702931Y2171262D01*
X1708699Y2157337D01*
X1717874Y2145379D01*
X1729832Y2136203D01*
X1743758Y2130435D01*
X1758701Y2128468D01*
X1773645Y2130435D01*
X1787570Y2136203D01*
X1799528Y2145379D01*
X1808704Y2157337D01*
X1814472Y2171262D01*
X1816439Y2186206D01*
X1814472Y2201150D01*
X1808704Y2215075D01*
X1799528Y2227033D01*
X1787570Y2236209D01*
X1773645Y2241977D01*
X1758701Y2243944D01*
D02*
G37*
G36*
X1624843D02*
X1609899Y2241977D01*
X1595974Y2236209D01*
X1584016Y2227033D01*
X1574840Y2215075D01*
X1569072Y2201150D01*
X1567105Y2186206D01*
X1569072Y2171262D01*
X1574840Y2157337D01*
X1584016Y2145379D01*
X1595974Y2136203D01*
X1609899Y2130435D01*
X1624843Y2128468D01*
X1639787Y2130435D01*
X1653712Y2136203D01*
X1665670Y2145379D01*
X1674846Y2157337D01*
X1680614Y2171262D01*
X1682581Y2186206D01*
X1680614Y2201150D01*
X1674846Y2215075D01*
X1665670Y2227033D01*
X1653712Y2236209D01*
X1639787Y2241977D01*
X1624843Y2243944D01*
D02*
G37*
G36*
X524644Y2157952D02*
X495000D01*
Y2128309D01*
X499137Y2128853D01*
X507651Y2132380D01*
X514962Y2137990D01*
X520572Y2145302D01*
X524099Y2153816D01*
X524644Y2157952D01*
D02*
G37*
G36*
X485000D02*
X455356D01*
X455901Y2153816D01*
X459428Y2145302D01*
X465038Y2137990D01*
X472349Y2132380D01*
X480863Y2128853D01*
X485000Y2128309D01*
Y2157952D01*
D02*
G37*
G36*
X1385551Y2127659D02*
X1370608Y2125692D01*
X1356682Y2119924D01*
X1344724Y2110748D01*
X1335549Y2098790D01*
X1329781Y2084865D01*
X1327813Y2069921D01*
X1329781Y2054977D01*
X1335549Y2041052D01*
X1344724Y2029094D01*
X1356682Y2019918D01*
X1370608Y2014150D01*
X1385551Y2012183D01*
X1400495Y2014150D01*
X1414420Y2019918D01*
X1426378Y2029094D01*
X1435554Y2041052D01*
X1441322Y2054977D01*
X1443289Y2069921D01*
X1441322Y2084865D01*
X1435554Y2098790D01*
X1426378Y2110748D01*
X1414420Y2119924D01*
X1400495Y2125692D01*
X1385551Y2127659D01*
D02*
G37*
G36*
X995000D02*
X980056Y2125692D01*
X966131Y2119924D01*
X954173Y2110748D01*
X944997Y2098790D01*
X939229Y2084865D01*
X937262Y2069921D01*
X939229Y2054977D01*
X944997Y2041052D01*
X954173Y2029094D01*
X966131Y2019918D01*
X980056Y2014150D01*
X995000Y2012183D01*
X1009944Y2014150D01*
X1023869Y2019918D01*
X1035827Y2029094D01*
X1045003Y2041052D01*
X1050771Y2054977D01*
X1052738Y2069921D01*
X1050771Y2084865D01*
X1045003Y2098790D01*
X1035827Y2110748D01*
X1023869Y2119924D01*
X1009944Y2125692D01*
X995000Y2127659D01*
D02*
G37*
G36*
X1175000Y2018896D02*
Y1989252D01*
X1204644D01*
X1204099Y1993389D01*
X1200572Y2001903D01*
X1194962Y2009214D01*
X1187651Y2014824D01*
X1179137Y2018351D01*
X1175000Y2018896D01*
D02*
G37*
G36*
X1165000D02*
X1160863Y2018351D01*
X1152349Y2014824D01*
X1145038Y2009214D01*
X1139428Y2001903D01*
X1135901Y1993389D01*
X1135356Y1989252D01*
X1165000D01*
Y2018896D01*
D02*
G37*
G36*
X1204644Y1979252D02*
X1175000D01*
Y1949608D01*
X1179137Y1950153D01*
X1187651Y1953680D01*
X1194962Y1959290D01*
X1200572Y1966601D01*
X1204099Y1975115D01*
X1204644Y1979252D01*
D02*
G37*
G36*
X1165000D02*
X1135356D01*
X1135901Y1975115D01*
X1139428Y1966601D01*
X1145038Y1959290D01*
X1152349Y1953680D01*
X1160863Y1950153D01*
X1165000Y1949608D01*
Y1979252D01*
D02*
G37*
G36*
X1385551Y1956596D02*
X1370608Y1954629D01*
X1356682Y1948861D01*
X1344724Y1939685D01*
X1335549Y1927727D01*
X1329781Y1913802D01*
X1327813Y1898858D01*
X1329781Y1883915D01*
X1335549Y1869989D01*
X1344724Y1858031D01*
X1356682Y1848856D01*
X1370608Y1843088D01*
X1385551Y1841120D01*
X1400495Y1843088D01*
X1414420Y1848856D01*
X1426378Y1858031D01*
X1435554Y1869989D01*
X1441322Y1883915D01*
X1443289Y1898858D01*
X1441322Y1913802D01*
X1435554Y1927727D01*
X1426378Y1939685D01*
X1414420Y1948861D01*
X1400495Y1954629D01*
X1385551Y1956596D01*
D02*
G37*
G36*
X995000D02*
X980056Y1954629D01*
X966131Y1948861D01*
X954173Y1939685D01*
X944997Y1927727D01*
X939229Y1913802D01*
X937262Y1898858D01*
X939229Y1883915D01*
X944997Y1869989D01*
X954173Y1858031D01*
X966131Y1848856D01*
X980056Y1843088D01*
X995000Y1841120D01*
X1009944Y1843088D01*
X1023869Y1848856D01*
X1035827Y1858031D01*
X1045003Y1869989D01*
X1050771Y1883915D01*
X1052738Y1898858D01*
X1050771Y1913802D01*
X1045003Y1927727D01*
X1035827Y1939685D01*
X1023869Y1948861D01*
X1009944Y1954629D01*
X995000Y1956596D01*
D02*
G37*
G36*
X3022570Y1829188D02*
X3007626Y1827220D01*
X2993701Y1821452D01*
X2981743Y1812277D01*
X2972567Y1800319D01*
X2966799Y1786393D01*
X2964832Y1771450D01*
X2966799Y1756506D01*
X2972567Y1742581D01*
X2981743Y1730623D01*
X2993701Y1721447D01*
X3007626Y1715679D01*
X3022570Y1713711D01*
X3037514Y1715679D01*
X3051439Y1721447D01*
X3063397Y1730623D01*
X3072573Y1742581D01*
X3078341Y1756506D01*
X3080308Y1771450D01*
X3078341Y1786393D01*
X3072573Y1800319D01*
X3063397Y1812277D01*
X3051439Y1821452D01*
X3037514Y1827220D01*
X3022570Y1829188D01*
D02*
G37*
G36*
X2888712D02*
X2873768Y1827220D01*
X2859843Y1821452D01*
X2847885Y1812277D01*
X2838709Y1800319D01*
X2832941Y1786393D01*
X2830974Y1771450D01*
X2832941Y1756506D01*
X2838709Y1742581D01*
X2847885Y1730623D01*
X2859843Y1721447D01*
X2873768Y1715679D01*
X2888712Y1713711D01*
X2903655Y1715679D01*
X2917581Y1721447D01*
X2929539Y1730623D01*
X2938715Y1742581D01*
X2944483Y1756506D01*
X2946450Y1771450D01*
X2944483Y1786393D01*
X2938715Y1800319D01*
X2929539Y1812277D01*
X2917581Y1821452D01*
X2903655Y1827220D01*
X2888712Y1829188D01*
D02*
G37*
G36*
X1385551Y1822738D02*
X1370608Y1820771D01*
X1356682Y1815003D01*
X1344724Y1805827D01*
X1335549Y1793869D01*
X1329781Y1779944D01*
X1327813Y1765000D01*
X1329781Y1750056D01*
X1335549Y1736131D01*
X1344724Y1724173D01*
X1356682Y1714997D01*
X1370608Y1709229D01*
X1385551Y1707262D01*
X1400495Y1709229D01*
X1414420Y1714997D01*
X1426378Y1724173D01*
X1435554Y1736131D01*
X1441322Y1750056D01*
X1443289Y1765000D01*
X1441322Y1779944D01*
X1435554Y1793869D01*
X1426378Y1805827D01*
X1414420Y1815003D01*
X1400495Y1820771D01*
X1385551Y1822738D01*
D02*
G37*
G36*
X995000D02*
X980056Y1820771D01*
X966131Y1815003D01*
X954173Y1805827D01*
X944997Y1793869D01*
X939229Y1779944D01*
X937262Y1765000D01*
X939229Y1750056D01*
X944997Y1736131D01*
X954173Y1724173D01*
X966131Y1714997D01*
X980056Y1709229D01*
X995000Y1707262D01*
X1009944Y1709229D01*
X1023869Y1714997D01*
X1035827Y1724173D01*
X1045003Y1736131D01*
X1050771Y1750056D01*
X1052738Y1765000D01*
X1050771Y1779944D01*
X1045003Y1793869D01*
X1035827Y1805827D01*
X1023869Y1815003D01*
X1009944Y1820771D01*
X995000Y1822738D01*
D02*
G37*
G36*
X2179456Y1820992D02*
X2164512Y1819024D01*
X2150587Y1813256D01*
X2138629Y1804080D01*
X2129454Y1792122D01*
X2123686Y1778197D01*
X2121718Y1763253D01*
X2123686Y1748310D01*
X2129454Y1734384D01*
X2138629Y1722426D01*
X2150587Y1713251D01*
X2164512Y1707483D01*
X2179456Y1705515D01*
X2194400Y1707483D01*
X2208325Y1713251D01*
X2220283Y1722426D01*
X2229459Y1734384D01*
X2235227Y1748310D01*
X2237194Y1763253D01*
X2235227Y1778197D01*
X2229459Y1792122D01*
X2220283Y1804080D01*
X2208325Y1813256D01*
X2194400Y1819024D01*
X2179456Y1820992D01*
D02*
G37*
G36*
X1171000Y1591687D02*
Y1557000D01*
X1205687D01*
X1204970Y1562442D01*
X1200940Y1572173D01*
X1194528Y1580528D01*
X1186173Y1586940D01*
X1176442Y1590970D01*
X1171000Y1591687D01*
D02*
G37*
G36*
X1161000D02*
X1155558Y1590970D01*
X1145827Y1586940D01*
X1137472Y1580528D01*
X1131060Y1572173D01*
X1127030Y1562442D01*
X1126313Y1557000D01*
X1161000D01*
Y1591687D01*
D02*
G37*
G36*
X2785726Y1544644D02*
Y1515000D01*
X2815370D01*
X2814825Y1519137D01*
X2811299Y1527651D01*
X2805689Y1534962D01*
X2798377Y1540572D01*
X2789863Y1544099D01*
X2785726Y1544644D01*
D02*
G37*
G36*
X2775726D02*
X2771590Y1544099D01*
X2763075Y1540572D01*
X2755764Y1534962D01*
X2750154Y1527651D01*
X2746627Y1519137D01*
X2746083Y1515000D01*
X2775726D01*
Y1544644D01*
D02*
G37*
G36*
X1205687Y1547000D02*
X1171000D01*
Y1512313D01*
X1176442Y1513030D01*
X1186173Y1517060D01*
X1194528Y1523472D01*
X1200940Y1531827D01*
X1204970Y1541558D01*
X1205687Y1547000D01*
D02*
G37*
G36*
X1161000D02*
X1126313D01*
X1127030Y1541558D01*
X1131060Y1531827D01*
X1137472Y1523472D01*
X1145827Y1517060D01*
X1155558Y1513030D01*
X1161000Y1512313D01*
Y1547000D01*
D02*
G37*
G36*
X2815370Y1505000D02*
X2785726D01*
Y1475356D01*
X2789863Y1475901D01*
X2798377Y1479428D01*
X2805689Y1485038D01*
X2811299Y1492349D01*
X2814825Y1500863D01*
X2815370Y1505000D01*
D02*
G37*
G36*
X2775726D02*
X2746083D01*
X2746627Y1500863D01*
X2750154Y1492349D01*
X2755764Y1485038D01*
X2763075Y1479428D01*
X2771590Y1475901D01*
X2775726Y1475356D01*
Y1505000D01*
D02*
G37*
G36*
X1782000Y1440687D02*
Y1406000D01*
X1816687D01*
X1815970Y1411442D01*
X1811940Y1421173D01*
X1805528Y1429528D01*
X1797173Y1435940D01*
X1787442Y1439970D01*
X1782000Y1440687D01*
D02*
G37*
G36*
X1772000D02*
X1766558Y1439970D01*
X1756827Y1435940D01*
X1748472Y1429528D01*
X1742060Y1421173D01*
X1738030Y1411442D01*
X1737313Y1406000D01*
X1772000D01*
Y1440687D01*
D02*
G37*
G36*
X1495000Y1419687D02*
Y1385000D01*
X1529687D01*
X1528970Y1390442D01*
X1524940Y1400173D01*
X1518528Y1408528D01*
X1510173Y1414940D01*
X1500442Y1418970D01*
X1495000Y1419687D01*
D02*
G37*
G36*
X1485000D02*
X1479558Y1418970D01*
X1469827Y1414940D01*
X1461472Y1408528D01*
X1455060Y1400173D01*
X1451030Y1390442D01*
X1450313Y1385000D01*
X1485000D01*
Y1419687D01*
D02*
G37*
G36*
X1816687Y1396000D02*
X1782000D01*
Y1361313D01*
X1787442Y1362030D01*
X1797173Y1366060D01*
X1805528Y1372472D01*
X1811940Y1380827D01*
X1815970Y1390558D01*
X1816687Y1396000D01*
D02*
G37*
G36*
X1772000D02*
X1737313D01*
X1738030Y1390558D01*
X1742060Y1380827D01*
X1748472Y1372472D01*
X1756827Y1366060D01*
X1766558Y1362030D01*
X1772000Y1361313D01*
Y1396000D01*
D02*
G37*
G36*
X1529687Y1375000D02*
X1495000D01*
Y1340313D01*
X1500442Y1341030D01*
X1510173Y1345060D01*
X1518528Y1351472D01*
X1524940Y1359827D01*
X1528970Y1369558D01*
X1529687Y1375000D01*
D02*
G37*
G36*
X1485000D02*
X1450313D01*
X1451030Y1369558D01*
X1455060Y1359827D01*
X1461472Y1351472D01*
X1469827Y1345060D01*
X1479558Y1341030D01*
X1485000Y1340313D01*
Y1375000D01*
D02*
G37*
G36*
X2888712Y1438637D02*
X2873768Y1436669D01*
X2859843Y1430901D01*
X2847885Y1421725D01*
X2838709Y1409767D01*
X2832941Y1395842D01*
X2830974Y1380898D01*
X2832941Y1365955D01*
X2838709Y1352029D01*
X2847885Y1340071D01*
X2859843Y1330896D01*
X2873768Y1325128D01*
X2888712Y1323160D01*
X2903655Y1325128D01*
X2917581Y1330896D01*
X2929539Y1340071D01*
X2938715Y1352029D01*
X2944483Y1365955D01*
X2946450Y1380898D01*
X2944483Y1395842D01*
X2938715Y1409767D01*
X2929539Y1421725D01*
X2917581Y1430901D01*
X2903655Y1436669D01*
X2888712Y1438637D01*
D02*
G37*
G36*
X2011929Y1424050D02*
X2000321Y1422907D01*
X1989160Y1419521D01*
X1978873Y1414023D01*
X1969857Y1406623D01*
X1962457Y1397607D01*
X1956959Y1387321D01*
X1953573Y1376159D01*
X1952430Y1364551D01*
X1953573Y1352944D01*
X1956959Y1341782D01*
X1962457Y1331495D01*
X1969857Y1322479D01*
X1978873Y1315080D01*
X1989160Y1309581D01*
X2000321Y1306195D01*
X2011929Y1305052D01*
X2023537Y1306195D01*
X2034698Y1309581D01*
X2044985Y1315080D01*
X2054001Y1322479D01*
X2061401Y1331495D01*
X2066899Y1341782D01*
X2070285Y1352944D01*
X2071428Y1364551D01*
X2070285Y1376159D01*
X2066899Y1387321D01*
X2061401Y1397607D01*
X2054001Y1406623D01*
X2044985Y1414023D01*
X2034698Y1419521D01*
X2023537Y1422907D01*
X2011929Y1424050D01*
D02*
G37*
G36*
X1887913Y1187830D02*
X1876306Y1186687D01*
X1865144Y1183301D01*
X1854857Y1177802D01*
X1845841Y1170403D01*
X1838442Y1161387D01*
X1832943Y1151100D01*
X1829557Y1139938D01*
X1828414Y1128331D01*
X1829557Y1116723D01*
X1832943Y1105561D01*
X1838442Y1095275D01*
X1845841Y1086258D01*
X1854857Y1078859D01*
X1865144Y1073361D01*
X1876306Y1069975D01*
X1887913Y1068832D01*
X1899521Y1069975D01*
X1910683Y1073361D01*
X1920969Y1078859D01*
X1929986Y1086258D01*
X1937385Y1095275D01*
X1942883Y1105561D01*
X1946269Y1116723D01*
X1947412Y1128331D01*
X1946269Y1139938D01*
X1942883Y1151100D01*
X1937385Y1161387D01*
X1929986Y1170403D01*
X1920969Y1177802D01*
X1910683Y1183301D01*
X1899521Y1186687D01*
X1887913Y1187830D01*
D02*
G37*
G36*
X2185000Y1094644D02*
Y1065000D01*
X2214644D01*
X2214099Y1069137D01*
X2210572Y1077651D01*
X2204962Y1084962D01*
X2197651Y1090572D01*
X2189137Y1094099D01*
X2185000Y1094644D01*
D02*
G37*
G36*
X2175000D02*
X2170863Y1094099D01*
X2162349Y1090572D01*
X2155038Y1084962D01*
X2149428Y1077651D01*
X2145901Y1069137D01*
X2145356Y1065000D01*
X2175000D01*
Y1094644D01*
D02*
G37*
G36*
X2214644Y1055000D02*
X2185000D01*
Y1025356D01*
X2189137Y1025901D01*
X2197651Y1029428D01*
X2204962Y1035038D01*
X2210572Y1042349D01*
X2214099Y1050863D01*
X2214644Y1055000D01*
D02*
G37*
G36*
X2175000D02*
X2145356D01*
X2145901Y1050863D01*
X2149428Y1042349D01*
X2155038Y1035038D01*
X2162349Y1029428D01*
X2170863Y1025901D01*
X2175000Y1025356D01*
Y1055000D01*
D02*
G37*
G36*
X2037520Y1050035D02*
X2025912Y1048891D01*
X2014750Y1045505D01*
X2004464Y1040007D01*
X1995447Y1032608D01*
X1988048Y1023591D01*
X1982550Y1013305D01*
X1979164Y1002143D01*
X1978021Y990535D01*
X1979164Y978928D01*
X1982550Y967766D01*
X1988048Y957480D01*
X1995447Y948463D01*
X2004464Y941064D01*
X2014750Y935566D01*
X2025912Y932180D01*
X2037520Y931036D01*
X2049127Y932180D01*
X2060289Y935566D01*
X2070575Y941064D01*
X2079592Y948463D01*
X2086991Y957480D01*
X2092490Y967766D01*
X2095875Y978928D01*
X2097019Y990535D01*
X2095875Y1002143D01*
X2092490Y1013305D01*
X2086991Y1023591D01*
X2079592Y1032608D01*
X2070575Y1040007D01*
X2060289Y1045505D01*
X2049127Y1048891D01*
X2037520Y1050035D01*
D02*
G37*
G36*
X730866Y3148907D02*
Y3106457D01*
X773317D01*
X772801Y3110373D01*
X767430Y3123340D01*
X758885Y3134476D01*
X747750Y3143020D01*
X734782Y3148392D01*
X730866Y3148907D01*
D02*
G37*
G36*
X710866Y3148907D02*
X706950Y3148392D01*
X693983Y3143020D01*
X682847Y3134476D01*
X674302Y3123340D01*
X668931Y3110373D01*
X668416Y3106457D01*
X710866D01*
Y3148907D01*
D02*
G37*
G36*
X632441Y3089852D02*
Y3047402D01*
X674891D01*
X674376Y3051318D01*
X669005Y3064285D01*
X660460Y3075421D01*
X649324Y3083965D01*
X636357Y3089337D01*
X632441Y3089852D01*
D02*
G37*
G36*
X710866Y3086457D02*
X668415D01*
X668931Y3082541D01*
X674302Y3069573D01*
X682847Y3058438D01*
X693983Y3049893D01*
X706950Y3044522D01*
X710866Y3044006D01*
Y3086457D01*
D02*
G37*
G36*
X773317D02*
X730866D01*
Y3044006D01*
X734782Y3044522D01*
X747750Y3049893D01*
X758885Y3058438D01*
X767430Y3069573D01*
X772801Y3082541D01*
X773317Y3086457D01*
D02*
G37*
G36*
X674891Y3027402D02*
X632441D01*
Y2984951D01*
X636357Y2985467D01*
X649324Y2990838D01*
X660460Y2999383D01*
X669005Y3010518D01*
X674376Y3023486D01*
X674891Y3027402D01*
D02*
G37*
G36*
X1260410Y2899964D02*
X1248802Y2898820D01*
X1237640Y2895434D01*
X1227354Y2889936D01*
X1218337Y2882537D01*
X1210938Y2873520D01*
X1205440Y2863234D01*
X1202054Y2852072D01*
X1200910Y2840465D01*
X1202054Y2828857D01*
X1205440Y2817695D01*
X1210938Y2807409D01*
X1218337Y2798392D01*
X1227354Y2790993D01*
X1237640Y2785494D01*
X1248802Y2782109D01*
X1260410Y2780965D01*
X1272017Y2782109D01*
X1283179Y2785494D01*
X1293466Y2790993D01*
X1302482Y2798392D01*
X1309881Y2807409D01*
X1315380Y2817695D01*
X1318765Y2828857D01*
X1319909Y2840465D01*
X1318765Y2852072D01*
X1315380Y2863234D01*
X1309881Y2873520D01*
X1302482Y2882537D01*
X1293466Y2889936D01*
X1283179Y2895434D01*
X1272017Y2898820D01*
X1260410Y2899964D01*
D02*
G37*
G36*
X1953410Y2885964D02*
X1941802Y2884821D01*
X1930641Y2881435D01*
X1920354Y2875937D01*
X1911338Y2868537D01*
X1903938Y2859521D01*
X1898440Y2849234D01*
X1895054Y2838073D01*
X1893911Y2826465D01*
X1895054Y2814857D01*
X1898440Y2803696D01*
X1903938Y2793409D01*
X1911338Y2784393D01*
X1920354Y2776993D01*
X1930641Y2771495D01*
X1941802Y2768109D01*
X1953410Y2766966D01*
X1965018Y2768109D01*
X1976179Y2771495D01*
X1986466Y2776993D01*
X1995482Y2784393D01*
X2002882Y2793409D01*
X2008380Y2803696D01*
X2011766Y2814857D01*
X2012909Y2826465D01*
X2011766Y2838073D01*
X2008380Y2849234D01*
X2002882Y2859521D01*
X1995482Y2868537D01*
X1986466Y2875937D01*
X1976179Y2881435D01*
X1965018Y2884821D01*
X1953410Y2885964D01*
D02*
G37*
G36*
X2113016Y2747184D02*
Y2698670D01*
X2161530D01*
X2161372Y2700278D01*
X2157986Y2711439D01*
X2152488Y2721726D01*
X2145088Y2730742D01*
X2136072Y2738142D01*
X2125785Y2743640D01*
X2114624Y2747026D01*
X2113016Y2747184D01*
D02*
G37*
G36*
X2093016Y2747184D02*
X2091409Y2747026D01*
X2080247Y2743640D01*
X2069960Y2738142D01*
X2060944Y2730742D01*
X2053544Y2721726D01*
X2048046Y2711439D01*
X2044660Y2700278D01*
X2044502Y2698670D01*
X2093016D01*
Y2747184D01*
D02*
G37*
G36*
X1410016Y2762168D02*
X1398408Y2761025D01*
X1387247Y2757639D01*
X1376960Y2752141D01*
X1367944Y2744742D01*
X1360544Y2735725D01*
X1355046Y2725439D01*
X1351660Y2714277D01*
X1350517Y2702669D01*
X1351660Y2691062D01*
X1355046Y2679900D01*
X1360544Y2669613D01*
X1367944Y2660597D01*
X1376960Y2653198D01*
X1387247Y2647699D01*
X1398408Y2644314D01*
X1410016Y2643170D01*
X1421624Y2644314D01*
X1432785Y2647699D01*
X1443072Y2653198D01*
X1452088Y2660597D01*
X1459488Y2669613D01*
X1464986Y2679900D01*
X1468372Y2691062D01*
X1469515Y2702669D01*
X1468372Y2714277D01*
X1464986Y2725439D01*
X1459488Y2735725D01*
X1452088Y2744742D01*
X1443072Y2752141D01*
X1432785Y2757639D01*
X1421624Y2761025D01*
X1410016Y2762168D01*
D02*
G37*
G36*
X2161530Y2678670D02*
X2113016D01*
Y2630156D01*
X2114624Y2630314D01*
X2125785Y2633700D01*
X2136072Y2639198D01*
X2145088Y2646598D01*
X2152488Y2655614D01*
X2157986Y2665901D01*
X2161372Y2677062D01*
X2161530Y2678670D01*
D02*
G37*
G36*
X2093016D02*
X2044502D01*
X2044660Y2677062D01*
X2048046Y2665901D01*
X2053544Y2655614D01*
X2060944Y2646598D01*
X2069960Y2639198D01*
X2080247Y2633700D01*
X2091409Y2630314D01*
X2093016Y2630156D01*
Y2678670D01*
D02*
G37*
G36*
X939000Y3558644D02*
Y3529000D01*
X968644D01*
X968099Y3533137D01*
X964572Y3541651D01*
X958962Y3548962D01*
X951651Y3554572D01*
X943137Y3558099D01*
X939000Y3558644D01*
D02*
G37*
G36*
X929000D02*
X924863Y3558099D01*
X916349Y3554572D01*
X909038Y3548962D01*
X903428Y3541651D01*
X899901Y3533137D01*
X899356Y3529000D01*
X929000D01*
Y3558644D01*
D02*
G37*
G36*
X968644Y3519000D02*
X939000D01*
Y3489356D01*
X943137Y3489901D01*
X951651Y3493428D01*
X958962Y3499038D01*
X964572Y3506349D01*
X968099Y3514863D01*
X968644Y3519000D01*
D02*
G37*
G36*
X929000D02*
X899356D01*
X899901Y3514863D01*
X903428Y3506349D01*
X909038Y3499038D01*
X916349Y3493428D01*
X924863Y3489901D01*
X929000Y3489356D01*
Y3519000D01*
D02*
G37*
G36*
X1421102Y3356575D02*
X1393465D01*
Y3325000D01*
X1421102D01*
Y3356575D01*
D02*
G37*
G36*
X1341701Y3344087D02*
X1320953D01*
Y3321370D01*
X1341701D01*
Y3344087D01*
D02*
G37*
G36*
X1310953D02*
X1290205D01*
Y3321370D01*
X1310953D01*
Y3344087D01*
D02*
G37*
G36*
X1421102Y3315000D02*
X1393465D01*
Y3283425D01*
X1421102D01*
Y3315000D01*
D02*
G37*
G36*
X1205126Y3223551D02*
X1173551D01*
Y3195913D01*
X1205126D01*
Y3223551D01*
D02*
G37*
G36*
X1898834Y3206551D02*
X1867259D01*
Y3178913D01*
X1898834D01*
Y3206551D01*
D02*
G37*
G36*
X1857259D02*
X1825685D01*
Y3178913D01*
X1857259D01*
Y3206551D01*
D02*
G37*
G36*
X2995000Y2875108D02*
Y2845465D01*
X3024644D01*
X3024099Y2849601D01*
X3020572Y2858115D01*
X3014962Y2865427D01*
X3007651Y2871037D01*
X2999137Y2874564D01*
X2995000Y2875108D01*
D02*
G37*
G36*
X2985000D02*
X2980863Y2874564D01*
X2972349Y2871037D01*
X2965038Y2865427D01*
X2959428Y2858115D01*
X2955901Y2849601D01*
X2955356Y2845465D01*
X2985000D01*
Y2875108D01*
D02*
G37*
G36*
X3024644Y2835465D02*
X2995000D01*
Y2805821D01*
X2999137Y2806365D01*
X3007651Y2809892D01*
X3014962Y2815502D01*
X3020572Y2822814D01*
X3024099Y2831328D01*
X3024644Y2835465D01*
D02*
G37*
G36*
X2985000D02*
X2955356D01*
X2955901Y2831328D01*
X2959428Y2822814D01*
X2965038Y2815502D01*
X2972349Y2809892D01*
X2980863Y2806365D01*
X2985000Y2805821D01*
Y2835465D01*
D02*
G37*
G36*
X1877627Y560575D02*
Y529000D01*
X1905265D01*
Y560575D01*
X1877627D01*
D02*
G37*
G36*
X2008525Y522630D02*
X1987777D01*
Y499913D01*
X2008525D01*
Y522630D01*
D02*
G37*
G36*
X1977777D02*
X1957029D01*
Y499913D01*
X1977777D01*
Y522630D01*
D02*
G37*
G36*
X1905265Y519000D02*
X1877627D01*
Y487425D01*
X1905265D01*
Y519000D01*
D02*
G37*
G36*
X1933000Y386644D02*
Y357000D01*
X1962644D01*
X1962099Y361137D01*
X1958572Y369651D01*
X1952962Y376962D01*
X1945651Y382572D01*
X1937137Y386099D01*
X1933000Y386644D01*
D02*
G37*
G36*
X1923000D02*
X1918863Y386099D01*
X1910349Y382572D01*
X1903038Y376962D01*
X1897428Y369651D01*
X1893901Y361137D01*
X1893356Y357000D01*
X1923000D01*
Y386644D01*
D02*
G37*
%LPD*%
D12*
X1168551Y3228551D02*
D03*
Y3297449D02*
D03*
X1862259Y3211551D02*
D03*
Y3280448D02*
D03*
X2130179Y615449D02*
D03*
Y546551D02*
D03*
X2527000Y3269449D02*
D03*
Y3200551D02*
D03*
D14*
X1495000Y3155000D02*
D03*
X1426102D02*
D03*
X1495000Y3320000D02*
D03*
X1426102D02*
D03*
X1245102Y3161000D02*
D03*
X1314000D02*
D03*
X1495000Y3237500D02*
D03*
X1426102D02*
D03*
X2188708Y3137999D02*
D03*
X2119811D02*
D03*
X2188708Y3302999D02*
D03*
X2119811D02*
D03*
X1938811Y3143999D02*
D03*
X2007708D02*
D03*
X2188708Y3220499D02*
D03*
X2119811D02*
D03*
X1803730Y689000D02*
D03*
X1872627D02*
D03*
X1803730Y524000D02*
D03*
X1872627D02*
D03*
X2053627Y683000D02*
D03*
X1984730D02*
D03*
X1803730Y606500D02*
D03*
X1872627D02*
D03*
X2853449Y3127000D02*
D03*
X2784551D02*
D03*
X2853449Y3292000D02*
D03*
X2784551D02*
D03*
Y3209500D02*
D03*
X2853449D02*
D03*
X2672449Y3133000D02*
D03*
X2603551D02*
D03*
D19*
X2176157Y3231015D02*
Y3306936D01*
X2462000Y3213707D02*
Y3311863D01*
X2389713Y3384150D02*
X2462000Y3311863D01*
X1862259Y3384150D02*
X2389713D01*
X1482449Y3248016D02*
Y3323937D01*
X1649000Y3320000D02*
X1766000Y3203000D01*
X1495000Y3320000D02*
X1649000D01*
X1766000Y3106000D02*
Y3203000D01*
X1731330Y3071330D02*
X1766000Y3106000D01*
X1574330Y3071330D02*
X1731330D01*
X1599431Y3127000D02*
X1713000D01*
X1593006Y3133425D02*
X1599431Y3127000D01*
X1512638Y3133425D02*
X1593006D01*
X1507662Y3021519D02*
Y3138401D01*
X1512638Y3133425D01*
X1816281Y520063D02*
Y595984D01*
X2057580Y370580D02*
Y527630D01*
X1999000Y312000D02*
X2057580Y370580D01*
X1836460Y312000D02*
X1999000D01*
X1803730Y344730D02*
X1836460Y312000D01*
X1803730Y344730D02*
Y524000D01*
X2840898Y3220016D02*
Y3314102D01*
X3001000Y3344432D02*
Y3403000D01*
X2972000Y3432000D02*
X3001000Y3403000D01*
X2792721Y3432000D02*
X2972000D01*
X2742848Y3382127D02*
X2792721Y3432000D01*
X2527000Y3382127D02*
X2742848D01*
X2853449Y3295937D02*
X2871087Y3313575D01*
X2970143D01*
X3001000Y3344432D01*
X2853449Y3292000D02*
Y3295937D01*
X2896000Y3600000D02*
X3028000Y3468000D01*
Y3041000D02*
Y3468000D01*
X2918921Y2931921D02*
X3028000Y3041000D01*
X2918921Y2009909D02*
Y2931921D01*
Y2009909D02*
X3243028Y1685802D01*
X2447218Y3198925D02*
X2462000Y3213707D01*
X2206346Y3198925D02*
X2447218D01*
X2188708Y3216562D02*
X2206346Y3198925D01*
X2188708Y3216562D02*
Y3220499D01*
Y3302999D02*
Y3319292D01*
X1286000Y3057000D02*
X1296362Y3067362D01*
Y3143362D01*
X1314000Y3161000D01*
X1979001Y3043001D02*
X1990070Y3054070D01*
Y3126362D01*
X2007708Y3143999D01*
X1922000Y3127189D02*
X1926630Y3122558D01*
Y2999370D02*
X1935370Y2990631D01*
X1926630Y2999370D02*
Y3122558D01*
X1922000Y3127189D02*
X1938811Y3143999D01*
X2247000Y1411000D02*
X2313314Y1477314D01*
X2247000Y814000D02*
Y1411000D01*
X2116000Y683000D02*
X2247000Y814000D01*
X2313314Y1477314D02*
Y1763253D01*
X1950298Y3253346D02*
X2045913D01*
X1941511Y3244559D02*
X1950298Y3253346D01*
X1941511Y3196700D02*
Y3244559D01*
Y3196700D02*
X1950298Y3187913D01*
X1950298D01*
X1952637Y3185574D01*
X1978976Y3207913D02*
X2053834D01*
X2045913Y3253346D02*
X2069756Y3229503D01*
X1126976Y3172318D02*
X1157000Y3142294D01*
X1126976Y3172318D02*
Y3259811D01*
X1790268Y702462D02*
X1803730Y689000D01*
X1790268Y702462D02*
Y795692D01*
X1820945Y826370D01*
X2033621D01*
X2064299Y795692D01*
Y693672D02*
Y795692D01*
X2053627Y683000D02*
X2064299Y693672D01*
X2053627Y683000D02*
X2116000D01*
X1984730Y679063D02*
X2002368Y696701D01*
Y764439D01*
X2011929Y774000D01*
X1882627Y685063D02*
Y689000D01*
X1842638Y774000D02*
X1854990Y761648D01*
Y706638D02*
Y761648D01*
Y706638D02*
X1872627Y689000D01*
X1126976Y3259811D02*
X1164614Y3297449D01*
X1168551D01*
X1227465Y3143362D02*
X1245102Y3161000D01*
X1227465Y3094914D02*
Y3143362D01*
X1223000Y3090449D02*
X1227465Y3094914D01*
X1223000Y3045938D02*
Y3090449D01*
Y3045938D02*
X1264308Y3004630D01*
X1416102Y3155000D02*
Y3158937D01*
X1443740Y3068551D02*
X1455292Y3057000D01*
X1443740Y3068551D02*
Y3137362D01*
X1426102Y3155000D02*
X1443740Y3137362D01*
X1507662Y3138401D02*
Y3142338D01*
X1264308Y3004630D02*
X1490772D01*
X1507662Y3021519D01*
X1495000Y3155000D02*
X1507662Y3142338D01*
X1483724Y3325213D02*
Y3335213D01*
X1260551Y3274000D02*
X1348551D01*
X1256898Y3270347D02*
X1260551Y3274000D01*
X1256590Y3270347D02*
X1256898D01*
X1240551Y3254308D02*
X1256590Y3270347D01*
X1348551Y3274000D02*
X1376047Y3246504D01*
X1240551Y3220952D02*
Y3254308D01*
Y3220952D02*
X1258928Y3202575D01*
X1279551Y3230630D02*
X1340473D01*
X1394528Y3176575D01*
X2241276Y3136662D02*
X2373734Y3004205D01*
X2188708Y3136662D02*
X2241276D01*
X2373734Y2255339D02*
Y3004205D01*
X2138448Y3052844D02*
Y3119362D01*
X1934858Y3299369D02*
Y3301338D01*
X2169984Y2990631D02*
X2200662Y3021308D01*
X2188708Y3137999D02*
X2200662Y3126046D01*
Y3021308D02*
Y3126046D01*
X1935370Y2990631D02*
X2169984D01*
X1938811Y3140062D02*
Y3143999D01*
X2188708Y3136662D02*
Y3137999D01*
X1816281Y595984D02*
X1821730Y601433D01*
X1922682Y597496D02*
X1950179Y570000D01*
X1890627Y597496D02*
X1922682D01*
X1950179Y570000D02*
X2038179D01*
X2041832Y573654D01*
X2042140D01*
X2058179Y589692D01*
Y623048D01*
X1984730Y679063D02*
X2022368Y641425D01*
X2039801D02*
X2058179Y623048D01*
X2022368Y641425D02*
X2039801D01*
X2046013Y514913D02*
X2046832D01*
X2057580Y525661D01*
Y527630D01*
X2068328Y538378D01*
X2122005D01*
X2130179Y546551D01*
X1904202Y667425D02*
X1958257Y613370D01*
X1900265Y667425D02*
X1904202D01*
X1958257Y613370D02*
X2019179D01*
X1882627Y685063D02*
X1900265Y667425D01*
X1477000Y3242567D02*
X1482449Y3248016D01*
X1376047Y3246504D02*
X1408102D01*
X1314000Y3161000D02*
Y3164937D01*
X1276362Y3202575D02*
X1314000Y3164937D01*
X1258928Y3202575D02*
X1276362D01*
X1241150Y3318339D02*
X1251898Y3329087D01*
X1230401Y3305622D02*
X1241149Y3316370D01*
X1176724Y3305622D02*
X1230401D01*
X1168551Y3297449D02*
X1176724Y3305622D01*
X1394528Y3176575D02*
X1398465D01*
X1416102Y3158937D01*
X2170708Y3225566D02*
X2176157Y3231015D01*
X2069756Y3229503D02*
X2101811D01*
X2007708Y3143999D02*
Y3147936D01*
X1970070Y3185574D02*
X2007708Y3147936D01*
X1952637Y3185574D02*
X1970070D01*
X1945606Y3312086D02*
X1946425D01*
X1934858Y3299369D02*
Y3301338D01*
X1945606Y3312086D01*
X1870433Y3288621D02*
X1924110D01*
X1934858Y3299369D01*
X1862259Y3280448D02*
X1870433Y3288621D01*
X2053834Y3207913D02*
X2109811Y3151936D01*
Y3137999D02*
Y3151936D01*
X1973259Y3213629D02*
X1978976Y3207913D01*
X2696026Y2650672D02*
Y2848079D01*
X2592285Y2951820D02*
X2696026Y2848079D01*
X2592285Y2951820D02*
Y3121734D01*
X2835449Y3214567D02*
X2840898Y3220016D01*
X2696026Y2848079D02*
X2866317Y3018371D01*
X2527000Y3269449D02*
Y3382127D01*
X2312127Y3597000D02*
X2527000Y3382127D01*
X2734496Y3218504D02*
X2766551D01*
X2707000Y3246000D02*
X2734496Y3218504D01*
X2774551Y3079459D02*
X2813947Y3040063D01*
X2774551Y3079459D02*
Y3127000D01*
X2866317Y3018371D02*
Y3105425D01*
X2844742Y3127000D02*
X2866317Y3105425D01*
X2610347Y3301087D02*
X2611165D01*
X2599598Y3290339D02*
X2610347Y3301087D01*
X2599598Y3288370D02*
Y3290339D01*
X2588850Y3277622D02*
X2599598Y3288370D01*
X2535173Y3277622D02*
X2588850D01*
X2527000Y3269449D02*
X2535173Y3277622D01*
X2599000Y3192952D02*
Y3226308D01*
Y3192952D02*
X2617377Y3174575D01*
X2634811D01*
X2672449Y3136937D01*
Y3133000D02*
Y3136937D01*
X2599000Y3226308D02*
X2615039Y3242347D01*
X2615347D01*
X2619000Y3246000D01*
X2707000D01*
X2698921Y3202630D02*
X2752976Y3148575D01*
X2756913D01*
X2774551Y3130937D01*
Y3127000D02*
Y3130937D01*
X2638000Y3202630D02*
X2698921D01*
X2592285Y3121734D02*
X2603551Y3133000D01*
X2447348Y2401994D02*
X2696026Y2650672D01*
X3008105Y3550000D02*
Y3600000D01*
X3303272Y1675005D02*
X3597378Y1380898D01*
X3676686Y2818466D02*
Y3600000D01*
X3433220Y2575000D02*
X3676686Y2818466D01*
X4112237Y2575450D02*
X4344456Y2807669D01*
Y3600000D01*
X3342396Y2803648D02*
Y3600000D01*
X3113023Y2574276D02*
X3342396Y2803648D01*
X3243028Y1380449D02*
Y1685802D01*
X3965388Y3768482D02*
Y3875725D01*
X3303272Y1675005D02*
Y1908277D01*
X3052779Y2158771D02*
X3303272Y1908277D01*
X3052779Y2158771D02*
Y3505326D01*
X1959644Y3768482D02*
Y3875725D01*
X1625353Y3768482D02*
Y3875725D01*
X1880904Y3771710D02*
X1881888Y3770726D01*
X2373734Y2255339D02*
X2447348Y2181724D01*
Y2401994D01*
X3008105Y3550000D02*
X3052779Y3505326D01*
X4010977Y2814148D02*
Y3600000D01*
X3772104Y2575276D02*
X4010977Y2814148D01*
X3296806Y3768482D02*
Y3875725D01*
X1291063Y3768482D02*
Y3875725D01*
X1212323Y3913127D02*
Y3989740D01*
Y3771710D02*
X1213307Y3770726D01*
X1212323Y3771710D02*
Y3838324D01*
X1546613Y3913127D02*
Y3989740D01*
Y3771710D02*
X1547597Y3770726D01*
X1546613Y3771710D02*
Y3838324D01*
X3631097Y3768482D02*
Y3875725D01*
X3552357Y3913127D02*
Y3989740D01*
Y3771710D02*
X3553341Y3770726D01*
X3552357Y3771710D02*
Y3838324D01*
X3886647Y3913127D02*
Y3989740D01*
Y3771710D02*
X3887632Y3770726D01*
X3886647Y3771710D02*
Y3838324D01*
X4299678Y3768482D02*
Y3875725D01*
X4220938Y3913127D02*
Y3989740D01*
Y3771710D02*
X4221922Y3770726D01*
X4220938Y3771710D02*
Y3838324D01*
X1880904Y3913127D02*
Y3989740D01*
Y3771710D02*
Y3838324D01*
X2293935Y3768482D02*
Y3875725D01*
X2215194Y3913127D02*
Y3989740D01*
Y3771710D02*
X2216179Y3770726D01*
X2215194Y3771710D02*
Y3838324D01*
X2628225Y3768482D02*
Y3875725D01*
X2549485Y3913127D02*
Y3989740D01*
Y3771710D02*
X2550469Y3770726D01*
X2549485Y3771710D02*
Y3838324D01*
X2962516Y3768482D02*
Y3875725D01*
X2883776Y3913127D02*
Y3989740D01*
Y3771710D02*
X2884760Y3770726D01*
X2883776Y3771710D02*
Y3838324D01*
X3218066Y3913127D02*
Y3989740D01*
Y3771710D02*
X3219050Y3770726D01*
X3218066Y3771710D02*
Y3838324D01*
X956772Y3768482D02*
Y3875725D01*
X878032Y3913127D02*
Y3989740D01*
Y3771710D02*
X879016Y3770726D01*
X878032Y3771710D02*
Y3838324D01*
D21*
X2673814Y3600000D02*
X2896000D01*
X449024Y3178421D02*
X867603Y3597000D01*
X2644656Y3040063D02*
X2653811Y3049218D01*
Y3114362D01*
X2672449Y3133000D01*
X1215150Y1199017D02*
X1803730Y610437D01*
X1215150Y1199017D02*
Y1354850D01*
X1803730Y606500D02*
Y610437D01*
X2138448Y3052844D02*
X2148292Y3043001D01*
X2119811Y3137999D02*
X2138448Y3119362D01*
X1862259Y3280448D02*
Y3384150D01*
X1667409Y3579000D02*
X1862259Y3384150D01*
X902000Y3579000D02*
X1667409D01*
X667279Y3344279D02*
X902000Y3579000D01*
X567134Y3178421D02*
X667279Y3278566D01*
Y3344279D01*
X567134Y3100205D02*
Y3178421D01*
X504331Y3037402D02*
X567134Y3100205D01*
X867603Y3597000D02*
X2312127D01*
X449024Y3132079D02*
Y3178421D01*
X2515000Y1292000D02*
X2660000D01*
X2372559Y1434441D02*
X2515000Y1292000D01*
X2372559Y1434441D02*
Y1787793D01*
X2313314Y1372702D02*
X2415017Y1271000D01*
X2643000D01*
X2664795Y1249205D01*
X3785150D01*
X4649000Y2113055D01*
X2660000Y1292000D02*
X2684795Y1267205D01*
X3777694D01*
X1979001Y2432430D02*
Y2452449D01*
X4364267Y3309422D02*
X4593846Y3539000D01*
X4364267Y1930145D02*
Y3309422D01*
X4382267Y3272267D02*
X4610000Y3500000D01*
X4382267Y1922690D02*
Y3272267D01*
X4400267Y3185267D02*
X4610000Y3395000D01*
X4400267Y1915234D02*
Y3185267D01*
X3770238Y1285205D02*
X4400267Y1915234D01*
X3762783Y1303205D02*
X4382267Y1922690D01*
X3755327Y1321205D02*
X4364267Y1930145D01*
X1979001Y2432430D02*
X2580429Y1831001D01*
X4626154Y3539000D02*
X4649000Y3516154D01*
X3100264Y1303205D02*
X3762783D01*
X3022570Y1380898D02*
X3100264Y1303205D01*
X2667701Y1381206D02*
X2763703Y1285205D01*
X3770238D01*
X2708692Y1831001D02*
X3218488Y1321205D01*
X4610000Y3290000D02*
X4649000Y3329000D01*
Y3516154D01*
X2580429Y1831001D02*
X2708692D01*
X4593846Y3539000D02*
X4626154D01*
X1693903Y2466449D02*
X2372559Y1787793D01*
X3218488Y1321205D02*
X3755327D01*
X4610000Y3185000D02*
X4649000Y3146000D01*
Y2113055D02*
Y3146000D01*
X3777694Y1267205D02*
X4610000Y2099510D01*
Y3080000D01*
X1286000Y2466449D02*
X1693903D01*
X405906Y2978347D02*
X420948Y2993389D01*
Y3033283D02*
X461213Y3073548D01*
X449024Y3132079D02*
X461213Y3119890D01*
Y3073548D02*
Y3119890D01*
X420948Y2993389D02*
Y3033283D01*
X680299Y1889701D02*
X1215150Y1354850D01*
X580299Y1889701D02*
X680299D01*
X350598Y2119402D02*
X580299Y1889701D01*
X350598Y2119402D02*
Y3001255D01*
X390863Y3041520D01*
Y3081415D01*
X405906Y3096457D01*
D23*
X1385551Y1765000D02*
D03*
X995000D02*
D03*
X1385551Y1898858D02*
D03*
X995000D02*
D03*
Y2203780D02*
D03*
X1385551D02*
D03*
X995000Y2069921D02*
D03*
X1385551D02*
D03*
X1624843Y2186206D02*
D03*
Y2576757D02*
D03*
X1758701Y2186206D02*
D03*
Y2576757D02*
D03*
X2313490Y2181724D02*
D03*
Y2572276D02*
D03*
X2447348Y2181724D02*
D03*
Y2572276D02*
D03*
X2979165Y2183724D02*
D03*
Y2574276D02*
D03*
X3113023Y2183724D02*
D03*
Y2574276D02*
D03*
X3299361Y2184449D02*
D03*
Y2575000D02*
D03*
X3433220Y2184449D02*
D03*
Y2575000D02*
D03*
X3638246Y2184724D02*
D03*
Y2575276D02*
D03*
X3772104Y2184724D02*
D03*
Y2575276D02*
D03*
X3978379Y2184898D02*
D03*
Y2575450D02*
D03*
X4112237Y2184898D02*
D03*
Y2575450D02*
D03*
X3731237Y1771450D02*
D03*
Y1380898D02*
D03*
X3597378Y1771450D02*
D03*
Y1380898D02*
D03*
X3376886Y1771000D02*
D03*
Y1380449D02*
D03*
X3243028Y1771000D02*
D03*
Y1380449D02*
D03*
X3022570Y1771450D02*
D03*
Y1380898D02*
D03*
X2888712Y1771450D02*
D03*
Y1380898D02*
D03*
X2667701Y1771757D02*
D03*
Y1381206D02*
D03*
X2533843Y1771757D02*
D03*
Y1381206D02*
D03*
X2313314Y1763253D02*
D03*
Y1372702D02*
D03*
X2179456Y1763253D02*
D03*
Y1372702D02*
D03*
D24*
X720866Y2269685D02*
D03*
Y2387795D02*
D03*
Y2505905D02*
D03*
Y2624016D02*
D03*
Y2742126D02*
D03*
Y2860236D02*
D03*
Y2978347D02*
D03*
Y3096457D02*
D03*
Y3214567D02*
D03*
X622441Y2328740D02*
D03*
Y2446850D02*
D03*
Y2564961D02*
D03*
Y2683071D02*
D03*
Y2801181D02*
D03*
Y2919291D02*
D03*
Y3037402D02*
D03*
Y3155512D02*
D03*
X504331Y2328740D02*
D03*
Y2446850D02*
D03*
Y2564961D02*
D03*
Y2683071D02*
D03*
Y2801181D02*
D03*
Y2919291D02*
D03*
Y3037402D02*
D03*
Y3155512D02*
D03*
X405906Y2269685D02*
D03*
Y2387795D02*
D03*
Y2505905D02*
D03*
Y2624016D02*
D03*
Y2742126D02*
D03*
Y2860236D02*
D03*
Y2978347D02*
D03*
Y3096457D02*
D03*
Y3214567D02*
D03*
Y1698819D02*
D03*
Y1580709D02*
D03*
Y1462599D02*
D03*
Y1344488D02*
D03*
Y1226378D02*
D03*
Y1108268D02*
D03*
Y990158D02*
D03*
X504331Y1639764D02*
D03*
Y1521654D02*
D03*
Y1403543D02*
D03*
Y1285433D02*
D03*
Y1167323D02*
D03*
Y1049213D02*
D03*
X622441Y1639764D02*
D03*
Y1521654D02*
D03*
Y1403543D02*
D03*
Y1285433D02*
D03*
Y1167323D02*
D03*
Y1049213D02*
D03*
X720866Y1698819D02*
D03*
Y1580709D02*
D03*
Y1462599D02*
D03*
Y1344488D02*
D03*
Y1226378D02*
D03*
Y1108268D02*
D03*
Y990158D02*
D03*
D25*
X150000Y704724D02*
D03*
Y1984252D02*
D03*
Y3500000D02*
D03*
D26*
X1166000Y1552000D02*
D03*
X1777000Y1401000D02*
D03*
X1490000Y1380000D02*
D03*
D27*
X4700000Y300000D02*
D03*
Y3900000D02*
D03*
X300000D02*
D03*
Y300000D02*
D03*
D28*
X2644656Y2449512D02*
D03*
X2619065Y2823528D02*
D03*
X2768671Y2685732D02*
D03*
X1979001Y2452449D02*
D03*
X1953410Y2826465D02*
D03*
X2103016Y2688670D02*
D03*
X1286000Y2466449D02*
D03*
X1260410Y2840465D02*
D03*
X1410016Y2702669D02*
D03*
X2011929Y1364551D02*
D03*
X2037520Y990535D02*
D03*
X1887913Y1128331D02*
D03*
D29*
X2813947Y3040063D02*
D03*
X2644656D02*
D03*
X2148292Y3043001D02*
D03*
X1979001D02*
D03*
X1455292Y3057000D02*
D03*
X1286000D02*
D03*
X1842638Y774000D02*
D03*
X2011929D02*
D03*
D30*
X1574330Y3071330D02*
D03*
X2961000Y3361000D02*
D03*
X2990000Y2840465D02*
D03*
X1157000Y3142294D02*
D03*
X1713000Y3127000D02*
D03*
X2422000Y3241000D02*
D03*
X934000Y3524000D02*
D03*
X3528000Y1553000D02*
D03*
X2272371Y3048999D02*
D03*
X164695Y2380000D02*
D03*
X180000Y2769010D02*
D03*
X4344456Y3600000D02*
D03*
X3342396D02*
D03*
X597000Y3810000D02*
D03*
X4860000Y2850000D02*
D03*
X227000Y1634278D02*
D03*
X490000Y2162952D02*
D03*
X390000Y1990000D02*
D03*
X3860000Y2400000D02*
D03*
X3202201D02*
D03*
X2780726Y1510000D02*
D03*
X4710000Y1420000D02*
D03*
X4510000Y2710000D02*
D03*
X3930000Y3120000D02*
D03*
X3420000Y2980000D02*
D03*
X2440000Y2884821D02*
D03*
X1170000Y1984252D02*
D03*
X1146000Y2530000D02*
D03*
X980000Y1410000D02*
D03*
X920000Y1000000D02*
D03*
X1340000Y930000D02*
D03*
X2180000Y1060000D02*
D03*
X1420000Y700000D02*
D03*
X2601000Y1215000D02*
D03*
X2560000Y850000D02*
D03*
X2883776Y820000D02*
D03*
X4140000Y1080000D02*
D03*
X3040000Y290000D02*
D03*
X1928000Y352000D02*
D03*
X1110000Y250000D02*
D03*
X3965388Y3768482D02*
D03*
X1959644D02*
D03*
X1625353D02*
D03*
X1881888Y3770726D02*
D03*
X4610000Y3080000D02*
D03*
Y3185000D02*
D03*
Y3290000D02*
D03*
Y3395000D02*
D03*
Y3500000D02*
D03*
X4010977Y3600000D02*
D03*
X3676686D02*
D03*
X3296806Y3768482D02*
D03*
X3008105Y3600000D02*
D03*
X2673814D02*
D03*
X1291063Y3768482D02*
D03*
X1212323Y3989740D02*
D03*
X1213307Y3770726D02*
D03*
X1546613Y3989740D02*
D03*
X1547597Y3770726D02*
D03*
X3631097Y3768482D02*
D03*
X3552357Y3989740D02*
D03*
X3553341Y3770726D02*
D03*
X3886647Y3989740D02*
D03*
X3887632Y3770726D02*
D03*
X4299678Y3768482D02*
D03*
X4220938Y3989740D02*
D03*
X4221922Y3770726D02*
D03*
X1880904Y3989740D02*
D03*
X2293935Y3768482D02*
D03*
X2215194Y3989740D02*
D03*
X2216179Y3770726D02*
D03*
X2628225Y3768482D02*
D03*
X2549485Y3989740D02*
D03*
X2550469Y3770726D02*
D03*
X2962516Y3768482D02*
D03*
X2883776Y3989740D02*
D03*
X2884760Y3770726D02*
D03*
X3218066Y3989740D02*
D03*
X3219050Y3770726D02*
D03*
X956772Y3768482D02*
D03*
X878032Y3989740D02*
D03*
X879016Y3770726D02*
D03*
D31*
X1241149Y3316370D02*
D03*
X1315953D02*
D03*
X1278551Y3237630D02*
D03*
X1934858Y3299369D02*
D03*
X2009661D02*
D03*
X1972259Y3220629D02*
D03*
X2599598Y3288370D02*
D03*
X2674401D02*
D03*
X2637000Y3209630D02*
D03*
X2057580Y527630D02*
D03*
X1982777D02*
D03*
X2020179Y606370D02*
D03*
D32*
X1291063Y3875725D02*
D03*
X1212323Y3913127D02*
D03*
Y3838324D02*
D03*
X956772Y3875725D02*
D03*
X878032Y3913127D02*
D03*
Y3838324D02*
D03*
X1625353Y3875725D02*
D03*
X1546613Y3913127D02*
D03*
Y3838324D02*
D03*
X3296806Y3875725D02*
D03*
X3218066Y3913127D02*
D03*
Y3838324D02*
D03*
X2962516Y3875725D02*
D03*
X2883776Y3913127D02*
D03*
Y3838324D02*
D03*
X2628225Y3875725D02*
D03*
X2549485Y3913127D02*
D03*
Y3838324D02*
D03*
X2293935Y3875725D02*
D03*
X2215194Y3913127D02*
D03*
Y3838324D02*
D03*
X1959644Y3875725D02*
D03*
X1880904Y3913127D02*
D03*
Y3838324D02*
D03*
X4299678Y3875725D02*
D03*
X4220938Y3913127D02*
D03*
Y3838324D02*
D03*
X3965388Y3875725D02*
D03*
X3886647Y3913127D02*
D03*
Y3838324D02*
D03*
X3631097Y3875725D02*
D03*
X3552357Y3913127D02*
D03*
Y3838324D02*
D03*
%TF.MD5,dcc99e6c50fb13a0c71b7b00ca84b262*%
M02*
