%TF.GenerationSoftware,Altium Limited,Altium Designer,19.0.10 (269)*%
G04 Layer_Physical_Order=1*
G04 Layer_Color=255*
%FSLAX26Y26*%
%MOIN*%
%TF.FileFunction,Copper,L1,Top,Signal*%
%TF.Part,Single*%
G01*
G75*
%TA.AperFunction,SMDPad,CuDef*%
%ADD10R,0.035433X0.039370*%
%ADD11R,0.080709X0.045276*%
%ADD12R,0.051181X0.043307*%
%ADD13R,0.043307X0.051181*%
%ADD14R,0.094488X0.029921*%
%ADD15R,0.039370X0.035433*%
%ADD16R,0.037402X0.033465*%
%ADD17R,0.011811X0.053150*%
%ADD18R,0.053150X0.011811*%
%ADD19R,0.045276X0.080709*%
%ADD20R,0.053150X0.045276*%
%ADD21R,0.035000X0.016535*%
%ADD22R,0.074803X0.074803*%
%ADD23R,0.051181X0.057087*%
%ADD24R,0.055118X0.062992*%
%ADD25R,0.053150X0.015748*%
%ADD26R,0.033465X0.037402*%
%TA.AperFunction,Conductor*%
%ADD27C,0.010000*%
%ADD28C,0.015000*%
%ADD29C,0.020000*%
%ADD30C,0.030000*%
%TA.AperFunction,ViaPad*%
%ADD31C,0.196850*%
%TA.AperFunction,ComponentPad*%
%ADD32C,0.086614*%
%ADD33C,0.129921*%
%TA.AperFunction,ViaPad*%
%ADD34C,0.030000*%
%ADD35C,0.045000*%
D10*
X2466072Y1760346D02*
D03*
X2519221D02*
D03*
X1549315Y1936074D02*
D03*
X1602464D02*
D03*
X1783425Y1975000D02*
D03*
X1836575D02*
D03*
X1785895Y2303559D02*
D03*
X1839045D02*
D03*
X1551784Y2264633D02*
D03*
X1604934D02*
D03*
D11*
X2745282Y1800346D02*
D03*
X2643646D02*
D03*
X268071Y2715000D02*
D03*
X2644631Y2654433D02*
D03*
X2755000D02*
D03*
X770000Y201339D02*
D03*
X535000Y413075D02*
D03*
X1675000Y2591377D02*
D03*
X1005000Y71098D02*
D03*
X2780000Y405000D02*
D03*
X2502442Y598228D02*
D03*
X1370000Y145000D02*
D03*
X1190984Y181571D02*
D03*
X1370000Y355000D02*
D03*
X1190984Y391572D02*
D03*
X1370000Y970000D02*
D03*
X1190984Y1006572D02*
D03*
X1370000Y1185000D02*
D03*
X1190984Y1221572D02*
D03*
X1370000Y765000D02*
D03*
X1190984Y801572D02*
D03*
X1370000Y560000D02*
D03*
X1190984Y596572D02*
D03*
X1375000Y1395000D02*
D03*
X1195984Y1431572D02*
D03*
X1370000Y1610000D02*
D03*
X1190984Y1646572D02*
D03*
X1359170Y1932153D02*
D03*
X1361640Y2260712D02*
D03*
X1216713Y2000000D02*
D03*
X1219182Y2328559D02*
D03*
X1113170Y1835000D02*
D03*
X1115640Y2163559D02*
D03*
X522677Y2715000D02*
D03*
X160000D02*
D03*
X390000Y2715002D02*
D03*
D12*
X717586Y2605276D02*
D03*
Y2514724D02*
D03*
X603582Y2607200D02*
D03*
Y2516649D02*
D03*
D13*
X3210553Y599367D02*
D03*
X3120002D02*
D03*
Y482992D02*
D03*
X3210553D02*
D03*
D14*
X3096457Y1530000D02*
D03*
X3250000D02*
D03*
X3096457Y1480000D02*
D03*
X3250000D02*
D03*
X3096457Y1430000D02*
D03*
X3250000D02*
D03*
X3096457Y1380000D02*
D03*
X3250000D02*
D03*
X3096457Y1330000D02*
D03*
X3250000D02*
D03*
D15*
X3374646Y1377835D02*
D03*
Y1324685D02*
D03*
X1380889Y1804500D02*
D03*
Y1857649D02*
D03*
X1383359Y2133059D02*
D03*
Y2186208D02*
D03*
D16*
X3096457Y1680472D02*
D03*
Y1629291D02*
D03*
X2951513Y1680472D02*
D03*
Y1629291D02*
D03*
X1477297Y2007744D02*
D03*
Y1956563D02*
D03*
X1479767Y2336303D02*
D03*
Y2285122D02*
D03*
D17*
X2784652Y1626850D02*
D03*
X2764967D02*
D03*
X2745282D02*
D03*
X2725597D02*
D03*
X2705912D02*
D03*
X2686227D02*
D03*
X2666542D02*
D03*
X2646857D02*
D03*
X2627171D02*
D03*
X2607486D02*
D03*
X2587801D02*
D03*
X2568116D02*
D03*
X2548431D02*
D03*
X2528746D02*
D03*
X2509061D02*
D03*
X2489376D02*
D03*
Y1174094D02*
D03*
X2509061D02*
D03*
X2528746D02*
D03*
X2548431D02*
D03*
X2568116D02*
D03*
X2587801D02*
D03*
X2607486D02*
D03*
X2627171D02*
D03*
X2646857D02*
D03*
X2666542D02*
D03*
X2686227D02*
D03*
X2705912D02*
D03*
X2725597D02*
D03*
X2745282D02*
D03*
X2764967D02*
D03*
X2784652D02*
D03*
D18*
X2410636Y1548110D02*
D03*
Y1528425D02*
D03*
Y1508740D02*
D03*
Y1489055D02*
D03*
Y1469370D02*
D03*
Y1449685D02*
D03*
Y1430000D02*
D03*
Y1410315D02*
D03*
Y1390630D02*
D03*
Y1370945D02*
D03*
Y1351260D02*
D03*
Y1331575D02*
D03*
Y1311890D02*
D03*
Y1292205D02*
D03*
Y1272520D02*
D03*
Y1252835D02*
D03*
X2863392D02*
D03*
Y1272520D02*
D03*
Y1292205D02*
D03*
Y1311890D02*
D03*
Y1331575D02*
D03*
Y1351260D02*
D03*
Y1370945D02*
D03*
Y1390630D02*
D03*
Y1410315D02*
D03*
Y1430000D02*
D03*
Y1449685D02*
D03*
Y1469370D02*
D03*
Y1489055D02*
D03*
Y1508740D02*
D03*
Y1528425D02*
D03*
Y1548110D02*
D03*
D19*
X3115000Y762290D02*
D03*
Y853756D02*
D03*
X1790000Y200272D02*
D03*
X1790000Y100272D02*
D03*
X1790000Y410272D02*
D03*
X1790000Y310272D02*
D03*
X1790000Y1025272D02*
D03*
X1790000Y925272D02*
D03*
X1790000Y1240272D02*
D03*
X1790000Y1140272D02*
D03*
X1790000Y820272D02*
D03*
X1790000Y720272D02*
D03*
X1790000Y615272D02*
D03*
X1790000Y515272D02*
D03*
X1795000Y1450272D02*
D03*
X1795000Y1350272D02*
D03*
X1790000Y1665272D02*
D03*
X1790000Y1565272D02*
D03*
X1825000Y1887177D02*
D03*
X1827470Y2215736D02*
D03*
X1823477Y1784596D02*
D03*
X1825947Y2113155D02*
D03*
D20*
X2835000Y944016D02*
D03*
Y1012913D02*
D03*
X2746266Y940551D02*
D03*
Y1009449D02*
D03*
D21*
X1663878Y1598186D02*
D03*
Y1623776D02*
D03*
Y1649367D02*
D03*
Y1674957D02*
D03*
X1498091Y1598186D02*
D03*
Y1623776D02*
D03*
Y1649367D02*
D03*
Y1674957D02*
D03*
X1668878Y1383186D02*
D03*
Y1408776D02*
D03*
Y1434367D02*
D03*
Y1459957D02*
D03*
X1503091Y1383186D02*
D03*
Y1408776D02*
D03*
Y1434367D02*
D03*
Y1459957D02*
D03*
X1663878Y1173186D02*
D03*
Y1198776D02*
D03*
Y1224367D02*
D03*
Y1249957D02*
D03*
X1498091Y1173186D02*
D03*
Y1198776D02*
D03*
Y1224367D02*
D03*
Y1249957D02*
D03*
X1663878Y958186D02*
D03*
Y983776D02*
D03*
Y1009367D02*
D03*
Y1034957D02*
D03*
X1498091Y958186D02*
D03*
Y983776D02*
D03*
Y1009367D02*
D03*
Y1034957D02*
D03*
X1663878Y753186D02*
D03*
Y778776D02*
D03*
Y804367D02*
D03*
Y829957D02*
D03*
X1498091Y753186D02*
D03*
Y778776D02*
D03*
Y804367D02*
D03*
Y829957D02*
D03*
X1663878Y548186D02*
D03*
Y573776D02*
D03*
Y599367D02*
D03*
Y624957D02*
D03*
X1498091Y548186D02*
D03*
Y573776D02*
D03*
Y599367D02*
D03*
Y624957D02*
D03*
X1663878Y343186D02*
D03*
Y368776D02*
D03*
Y394367D02*
D03*
Y419957D02*
D03*
X1498091Y343186D02*
D03*
Y368776D02*
D03*
Y394367D02*
D03*
Y419957D02*
D03*
Y209957D02*
D03*
Y184367D02*
D03*
Y158776D02*
D03*
Y133186D02*
D03*
X1663878Y209957D02*
D03*
Y184367D02*
D03*
Y158776D02*
D03*
Y133186D02*
D03*
X1658783Y1787688D02*
D03*
Y1813279D02*
D03*
Y1838870D02*
D03*
Y1864460D02*
D03*
X1492996Y1787688D02*
D03*
Y1813279D02*
D03*
Y1838870D02*
D03*
Y1864460D02*
D03*
X1661253Y2116248D02*
D03*
Y2141838D02*
D03*
Y2167429D02*
D03*
Y2193019D02*
D03*
X1495466Y2116248D02*
D03*
Y2141838D02*
D03*
Y2167429D02*
D03*
Y2193019D02*
D03*
D22*
X3385000Y868228D02*
D03*
Y773740D02*
D03*
D23*
Y955827D02*
D03*
Y686142D02*
D03*
D24*
X3288543Y946969D02*
D03*
Y695000D02*
D03*
D25*
X3279685Y872165D02*
D03*
Y846575D02*
D03*
Y795394D02*
D03*
Y769803D02*
D03*
Y820984D02*
D03*
D26*
X1245299Y1857649D02*
D03*
X1296480D02*
D03*
X1550299Y2011074D02*
D03*
X1601480D02*
D03*
X1552769Y2339633D02*
D03*
X1603950D02*
D03*
X1298950Y2186208D02*
D03*
X1247769D02*
D03*
D27*
X1219182Y2328559D02*
X1472023D01*
X3379961Y1330000D02*
X3445000D01*
X3374646Y1324685D02*
X3379961Y1330000D01*
X3374646Y1377835D02*
X3377599Y1380787D01*
X3445000D01*
X2646857Y1224691D02*
X2675000Y1252835D01*
X2646857Y1174094D02*
Y1224691D01*
X2627171Y1174094D02*
Y1237884D01*
X2615098Y1249957D02*
X2627171Y1237884D01*
X2615098Y1249957D02*
Y1251929D01*
X2046926Y1390630D02*
X2410636D01*
X1820562Y1769795D02*
X2120987Y1469370D01*
X1825947Y2095439D02*
X1843585Y2077801D01*
X2108272Y746261D02*
Y1001335D01*
X1790000Y200272D02*
Y217989D01*
X2389061Y817050D01*
Y1251929D01*
X2389967Y1252835D01*
X2410636D01*
X2108272Y1001335D02*
X2378677Y1271740D01*
X1790000Y410272D02*
Y427989D01*
Y632989D02*
X2090272Y933261D01*
Y1008791D01*
X1790000Y615272D02*
Y632989D01*
Y427989D02*
X2108272Y746261D01*
X2378677Y1271740D02*
X2409857D01*
X2410636Y1272520D01*
X2090272Y1008791D02*
X2372906Y1291425D01*
X2409857D01*
X2410636Y1292205D01*
X2263901Y1311890D02*
X2410636D01*
X1790000Y837989D02*
X2263901Y1311890D01*
X1730000Y804367D02*
X1734692Y809059D01*
X2078586Y1331575D02*
X2410636D01*
X1790000Y820272D02*
Y837989D01*
Y1025272D02*
Y1042989D01*
X2078586Y1331575D01*
X1730000Y1009367D02*
X1734692Y1014059D01*
X1790000Y1257989D02*
X1883271Y1351260D01*
X1730000Y1224367D02*
X1734692Y1229059D01*
X1883271Y1351260D02*
X2410636D01*
X1790000Y1240272D02*
Y1257989D01*
X1795000Y1432556D02*
Y1450272D01*
X1856611Y1370945D02*
X2410636D01*
X1795000Y1432556D02*
X1856611Y1370945D01*
X1790000Y1647556D02*
Y1665272D01*
Y1647556D02*
X2046926Y1390630D01*
X1820562Y1769795D02*
Y1787511D01*
X2120987Y1469370D02*
X2410636D01*
X2114260Y1754251D02*
X2378677Y1489835D01*
X2409856D01*
X2114260Y1754251D02*
Y1813384D01*
X1843585Y2077801D02*
X1849844D01*
X2114260Y1813384D01*
X2409856Y1489835D02*
X2410636Y1489055D01*
X1825947Y2095439D02*
Y2113155D01*
X3073587Y1539961D02*
Y1552870D01*
Y1539961D02*
X3083548Y1530000D01*
X2784652Y1132520D02*
X2813425Y1103746D01*
Y1030551D02*
Y1103746D01*
Y1030551D02*
X2831063Y1012913D01*
X2835000D01*
X2784652Y1132520D02*
Y1174094D01*
X2746266Y1009449D02*
X2747329D01*
X2764967Y1027087D01*
Y1174094D01*
X2526657Y2375163D02*
X2861657D01*
X2705912Y1668425D02*
X2709927Y1672441D01*
Y1782709D01*
X2727565Y1800346D01*
X2745282D01*
X2705912Y1626850D02*
Y1668425D01*
X2679001Y1675651D02*
X2686227Y1668425D01*
X2679001Y1675651D02*
Y1782709D01*
X2661363Y1800346D02*
X2679001Y1782709D01*
X2643646Y1800346D02*
X2661363D01*
X2686227Y1626850D02*
Y1668425D01*
X535000Y413075D02*
Y468307D01*
X470000Y533307D02*
X535000Y468307D01*
X371693Y533307D02*
X470000D01*
X305000Y600000D02*
X371693Y533307D01*
X1173347Y1664209D02*
X1190984Y1646572D01*
X1173268Y1221572D02*
X1190984D01*
X704961Y586218D02*
Y927559D01*
Y586218D02*
X1145245Y145934D01*
X1369066D01*
X1370000Y145000D01*
X704961Y1045669D02*
X796350Y954279D01*
X1173268Y181571D02*
X1190984D01*
X796350Y558489D02*
X1173268Y181571D01*
X796350Y558489D02*
Y954279D01*
X606535Y1104724D02*
X722707D01*
X816350Y684829D02*
Y1011081D01*
Y684829D02*
X1145245Y355934D01*
X1369066D01*
X1370000Y355000D01*
X722707Y1104724D02*
X816350Y1011081D01*
X836350Y728489D02*
Y1032390D01*
X1173268Y391572D02*
X1190984D01*
X836350Y728489D02*
X1173268Y391572D01*
X704961Y1163780D02*
X836350Y1032390D01*
X856350Y849829D02*
Y1089191D01*
Y849829D02*
X1145245Y560934D01*
X1369066D01*
X606535Y1222835D02*
X722707D01*
X704961Y1281890D02*
X876350Y1110500D01*
X1193780Y599367D02*
X1498091D01*
X1190984Y596572D02*
X1193780Y599367D01*
X1369066Y560934D02*
X1370000Y560000D01*
X722707Y1222835D02*
X856350Y1089191D01*
X876350Y893489D02*
Y1110500D01*
X1173268Y596572D02*
X1190984D01*
X876350Y893489D02*
X1173268Y596572D01*
X896350Y1014829D02*
Y1167302D01*
X722707Y1340945D02*
X896350Y1167302D01*
Y1014829D02*
X1145245Y765934D01*
X1369066D01*
X1370000Y765000D01*
X606535Y1340945D02*
X722707D01*
X704961Y1400000D02*
X916350Y1188610D01*
Y1058489D02*
X1173268Y801572D01*
X916350Y1058489D02*
Y1188610D01*
X1173268Y801572D02*
X1190984D01*
X1369066Y970934D02*
X1370000Y970000D01*
X1145245Y970934D02*
X1369066D01*
X936350Y1179829D02*
X1145245Y970934D01*
X936350Y1179829D02*
Y1245412D01*
X722707Y1459055D02*
X936350Y1245412D01*
X606535Y1459055D02*
X722707D01*
X1155630Y1024209D02*
Y1067441D01*
X1173268Y1006572D02*
X1190984D01*
X1155630Y1024209D02*
X1173268Y1006572D01*
X704961Y1518110D02*
X1155630Y1067441D01*
X1369066Y1185934D02*
X1370000Y1185000D01*
X1145245Y1185934D02*
X1369066D01*
X754014Y1577165D02*
X1145245Y1185934D01*
X606535Y1577165D02*
X754014D01*
X763268Y1631572D02*
X1173268Y1221572D01*
X709610Y1631572D02*
X763268D01*
X704961Y1636220D02*
X709610Y1631572D01*
X1374066Y1395934D02*
X1375000Y1395000D01*
X1035073Y1395934D02*
X1374066D01*
X735731Y1695276D02*
X1035073Y1395934D01*
X606535Y1695276D02*
X735731D01*
X1178347Y1449209D02*
X1195984Y1431572D01*
X1010082Y1449209D02*
X1178347D01*
X704961Y1754331D02*
X1010082Y1449209D01*
X1369066Y1610934D02*
X1370000Y1610000D01*
X906103Y1610934D02*
X1369066D01*
X782293Y1734744D02*
X906103Y1610934D01*
X782293Y1734744D02*
Y1753801D01*
X722707Y1813386D02*
X782293Y1753801D01*
X606535Y1813386D02*
X722707D01*
X704961Y1872441D02*
X802293Y1775109D01*
Y1743028D02*
Y1775109D01*
Y1743028D02*
X881111Y1664209D01*
X1173347D01*
X1241560Y2180000D02*
X1247769Y2186208D01*
X1134800Y2180000D02*
X1241560D01*
X1138911Y2200000D02*
X1219182Y2280272D01*
X1118359Y2163559D02*
X1134800Y2180000D01*
X875000Y2200000D02*
X1138911D01*
X1170000Y1905000D02*
X1216713Y1951713D01*
X880000Y1905000D02*
X1170000D01*
X1495466Y2141838D02*
Y2167429D01*
X1505496Y1890287D02*
X1549315Y1934106D01*
X1505496Y1867728D02*
Y1890287D01*
X1549315Y1934106D02*
Y1936074D01*
X1603950Y2265618D02*
Y2339633D01*
X1604934Y2264633D02*
Y2266602D01*
X1603950Y2265618D02*
X1604934Y2264633D01*
X1383359Y2186208D02*
Y2193019D01*
X1311108Y2133059D02*
X1383359D01*
X1844045Y2298559D02*
X1917688D01*
X1839045Y2303559D02*
X1844045Y2298559D01*
X1785895Y2301591D02*
Y2303559D01*
X1763623Y2279319D02*
X1785895Y2301591D01*
X1617651Y2279319D02*
X1763623D01*
X1604934Y2266602D02*
X1617651Y2279319D01*
X1473964D02*
X1479767Y2285122D01*
X1441322Y2279319D02*
X1473964D01*
X1487507Y2344043D02*
X1548359D01*
X1552769Y2339633D01*
X1479767Y2336303D02*
X1487507Y2344043D01*
X1472023Y2328559D02*
X1479767Y2336303D01*
X1551784Y2262665D02*
Y2264633D01*
X1507966Y2218846D02*
X1551784Y2262665D01*
X1507966Y2196287D02*
Y2218846D01*
X1504698Y2193019D02*
X1507966Y2196287D01*
X1495466Y2193019D02*
X1504698D01*
X1533851Y2180224D02*
X1552769D01*
X1625997Y2193019D02*
X1661253D01*
X1604934Y2214082D02*
X1625997Y2193019D01*
X1604934Y2214082D02*
Y2264633D01*
X1599005Y2182153D02*
X1613730Y2167429D01*
X1661253D01*
X1365721Y2260712D02*
X1383359Y2243075D01*
X1361640Y2260712D02*
X1365721D01*
X1383359Y2193019D02*
Y2243075D01*
X1219182Y2280272D02*
Y2328559D01*
X1504698Y2193019D02*
X1507966Y2196287D01*
X1593593Y2182153D02*
X1599005D01*
X1841575Y1970000D02*
X1915218D01*
X1836575Y1975000D02*
X1841575Y1970000D01*
X1783425Y1973032D02*
Y1975000D01*
X1761153Y1950759D02*
X1783425Y1973032D01*
X1615181Y1950759D02*
X1761153D01*
X1602464Y1938043D02*
X1615181Y1950759D01*
X1602464Y1936074D02*
Y1938043D01*
X1504698Y2193019D02*
X1507966Y2196287D01*
X1495466Y2141838D02*
X1533851Y2180224D01*
X1115889Y1835000D02*
X1133527Y1852638D01*
X1240287D01*
X1245299Y1857649D01*
X1216713Y1951713D02*
Y2000000D01*
X1477297Y2007744D02*
X1485037Y2015484D01*
X1469553Y2000000D02*
X1477297Y2007744D01*
X1216713Y2000000D02*
X1469553D01*
X1455858Y1674957D02*
X1498091D01*
X1441454Y1689361D02*
X1455858Y1674957D01*
X1440000Y1689361D02*
X1441454D01*
X1494823Y1594918D02*
X1498091Y1598186D01*
X1477324Y1594918D02*
X1494823D01*
X1450000Y1567594D02*
X1477324Y1594918D01*
X1683787Y1678148D02*
X1705000Y1699361D01*
X1667069Y1678148D02*
X1683787D01*
X1663878Y1674957D02*
X1667069Y1678148D01*
X1774862Y1649367D02*
X1782431Y1656936D01*
X1734692Y1649367D02*
X1774862D01*
X1730000D02*
X1734692D01*
X1730000D02*
X1734692Y1654059D01*
X1663878Y1649367D02*
X1730000D01*
X1193780D02*
X1498091D01*
X1190984Y1646572D02*
X1193780Y1649367D01*
X1725513Y1597052D02*
Y1606956D01*
X1708693Y1623776D02*
X1725513Y1606956D01*
Y1597052D02*
X1772362D01*
X1663878Y1623776D02*
X1708693D01*
X1772362Y1597052D02*
X1790000Y1579414D01*
X1460858Y1459957D02*
X1503091D01*
X1446454Y1474361D02*
X1460858Y1459957D01*
X1445000Y1474361D02*
X1446454D01*
X1499823Y1379918D02*
X1503091Y1383186D01*
X1482324Y1379918D02*
X1499823D01*
X1455000Y1352594D02*
X1482324Y1379918D01*
X1688787Y1463148D02*
X1710000Y1484361D01*
X1672069Y1463148D02*
X1688787D01*
X1668878Y1459957D02*
X1672069Y1463148D01*
X1779862Y1434367D02*
X1787431Y1441936D01*
X1739692Y1434367D02*
X1779862D01*
X1735000D02*
X1739692D01*
X1735000D02*
X1739692Y1439059D01*
X1668878Y1434367D02*
X1735000D01*
X1198780D02*
X1503091D01*
X1195984Y1431572D02*
X1198780Y1434367D01*
X1730513Y1382052D02*
Y1391956D01*
X1713693Y1408776D02*
X1730513Y1391956D01*
Y1382052D02*
X1777362D01*
X1668878Y1408776D02*
X1713693D01*
X1777362Y1382052D02*
X1795000Y1364414D01*
X1455858Y1249957D02*
X1498091D01*
X1441454Y1264361D02*
X1455858Y1249957D01*
X1440000Y1264361D02*
X1441454D01*
X1494823Y1169918D02*
X1498091Y1173186D01*
X1477324Y1169918D02*
X1494823D01*
X1450000Y1142594D02*
X1477324Y1169918D01*
X1683787Y1253148D02*
X1705000Y1274361D01*
X1667069Y1253148D02*
X1683787D01*
X1663878Y1249957D02*
X1667069Y1253148D01*
X1774862Y1224367D02*
X1782431Y1231936D01*
X1734692Y1224367D02*
X1774862D01*
X1730000D02*
X1734692D01*
X1663878D02*
X1730000D01*
X1193780D02*
X1498091D01*
X1190984Y1221572D02*
X1193780Y1224367D01*
X1725513Y1172052D02*
Y1181956D01*
X1708693Y1198776D02*
X1725513Y1181956D01*
Y1172052D02*
X1772362D01*
X1663878Y1198776D02*
X1708693D01*
X1772362Y1172052D02*
X1790000Y1154414D01*
X1455858Y1034957D02*
X1498091D01*
X1441454Y1049361D02*
X1455858Y1034957D01*
X1440000Y1049361D02*
X1441454D01*
X1494823Y954918D02*
X1498091Y958186D01*
X1477324Y954918D02*
X1494823D01*
X1450000Y927594D02*
X1477324Y954918D01*
X1683787Y1038148D02*
X1705000Y1059361D01*
X1667069Y1038148D02*
X1683787D01*
X1663878Y1034957D02*
X1667069Y1038148D01*
X1774862Y1009367D02*
X1782431Y1016936D01*
X1734692Y1009367D02*
X1774862D01*
X1730000D02*
X1734692D01*
X1663878D02*
X1730000D01*
X1193780D02*
X1498091D01*
X1190984Y1006572D02*
X1193780Y1009367D01*
X1725513Y957052D02*
Y966956D01*
X1708693Y983776D02*
X1725513Y966956D01*
Y957052D02*
X1772362D01*
X1663878Y983776D02*
X1708693D01*
X1772362Y957052D02*
X1790000Y939414D01*
X1455858Y829957D02*
X1498091D01*
X1441454Y844361D02*
X1455858Y829957D01*
X1440000Y844361D02*
X1441454D01*
X1494823Y749918D02*
X1498091Y753186D01*
X1477324Y749918D02*
X1494823D01*
X1450000Y722594D02*
X1477324Y749918D01*
X1683787Y833148D02*
X1705000Y854361D01*
X1667069Y833148D02*
X1683787D01*
X1663878Y829957D02*
X1667069Y833148D01*
X1774862Y804367D02*
X1782431Y811936D01*
X1734692Y804367D02*
X1774862D01*
X1730000D02*
X1734692D01*
X1663878D02*
X1730000D01*
X1193780D02*
X1498091D01*
X1190984Y801572D02*
X1193780Y804367D01*
X1725513Y752052D02*
Y761956D01*
X1708693Y778776D02*
X1725513Y761956D01*
Y752052D02*
X1772362D01*
X1663878Y778776D02*
X1708693D01*
X1772362Y752052D02*
X1790000Y734414D01*
X1455858Y624957D02*
X1498091D01*
X1441454Y639361D02*
X1455858Y624957D01*
X1440000Y639361D02*
X1441454D01*
X1494823Y544918D02*
X1498091Y548186D01*
X1477324Y544918D02*
X1494823D01*
X1450000Y517594D02*
X1477324Y544918D01*
X1683787Y628148D02*
X1705000Y649361D01*
X1667069Y628148D02*
X1683787D01*
X1663878Y624957D02*
X1667069Y628148D01*
X1774862Y599367D02*
X1782431Y606936D01*
X1734692Y599367D02*
X1774862D01*
X1730000D02*
X1734692D01*
X1730000D02*
X1734692Y604059D01*
X1663878Y599367D02*
X1730000D01*
X1725513Y547052D02*
Y556956D01*
X1708693Y573776D02*
X1725513Y556956D01*
Y547052D02*
X1772362D01*
X1663878Y573776D02*
X1708693D01*
X1772362Y547052D02*
X1790000Y529414D01*
X1455858Y419957D02*
X1498091D01*
X1441454Y434361D02*
X1455858Y419957D01*
X1440000Y434361D02*
X1441454D01*
X1494823Y339918D02*
X1498091Y343186D01*
X1477324Y339918D02*
X1494823D01*
X1450000Y312594D02*
X1477324Y339918D01*
X1683787Y423148D02*
X1705000Y444361D01*
X1667069Y423148D02*
X1683787D01*
X1663878Y419957D02*
X1667069Y423148D01*
X1774862Y394367D02*
X1782431Y401936D01*
X1734692Y394367D02*
X1774862D01*
X1730000D02*
X1734692D01*
X1730000D02*
X1734692Y399059D01*
X1663878Y394367D02*
X1730000D01*
X1193780D02*
X1498091D01*
X1190984Y391572D02*
X1193780Y394367D01*
X1725513Y342052D02*
Y351956D01*
X1708693Y368776D02*
X1725513Y351956D01*
Y342052D02*
X1772362D01*
X1663878Y368776D02*
X1708693D01*
X1772362Y342052D02*
X1790000Y324414D01*
X667912Y2475000D02*
X673924D01*
X713649Y2514724D01*
X717586D01*
X530000Y2445000D02*
Y2561925D01*
X506075Y2585849D02*
X530000Y2561925D01*
X506075Y2585849D02*
Y2698398D01*
X522677Y2715000D01*
X134095Y2676157D02*
X172937Y2715000D01*
X134095Y2336485D02*
Y2676157D01*
Y2336485D02*
X390000Y2080580D01*
X407717Y2715002D02*
X443937Y2678781D01*
Y2533386D02*
Y2678781D01*
Y2533386D02*
X482323Y2495000D01*
X390000Y2715002D02*
X407717D01*
X160000Y2715000D02*
X172937D01*
X390000Y1872441D02*
Y2080580D01*
X3225194Y872165D02*
X3279685D01*
X3205000Y892360D02*
X3225194Y872165D01*
X3250000Y1380000D02*
Y1430000D01*
Y1380000D02*
X3372481D01*
X3374646Y1377835D01*
X1504698Y2193019D02*
X1507966Y2196287D01*
X1492996Y1813279D02*
X1531381Y1851665D01*
X1308638Y1804500D02*
X1380889D01*
X1591124Y1853594D02*
X1596536D01*
X1611260Y1838870D01*
X1658783D01*
X1502228Y1864460D02*
X1505496Y1867728D01*
X1492996Y1864460D02*
X1502228D01*
X1380889Y1857649D02*
Y1864460D01*
Y1914515D01*
X1531381Y1851665D02*
X1550299D01*
X1190984Y181571D02*
X1193780Y184367D01*
X1498091D01*
X1471494Y1950759D02*
X1477297Y1956563D01*
X1438852Y1950759D02*
X1471494D01*
X1359170Y1932153D02*
X1363252D01*
X1380889Y1914515D01*
X1485037Y2015484D02*
X1545889D01*
X1550299Y2011074D01*
X2295000Y1759966D02*
X2465691D01*
X2466072Y1760346D01*
X2519221D02*
Y1823969D01*
X1730000Y184367D02*
X1734692Y189059D01*
X3056059Y505412D02*
X3078479Y482992D01*
X3056059Y505412D02*
Y507911D01*
X3078479Y482992D02*
X3120002D01*
X3065000Y605231D02*
Y606025D01*
Y605231D02*
X3073236Y596995D01*
X3120000D01*
X3210551D02*
X3258514D01*
X3260000Y595509D01*
X3210553Y482992D02*
X3213328Y485768D01*
X3260000D01*
X3138496Y818023D02*
X3218368D01*
X3138496Y798023D02*
X3226653D01*
X3226818Y798189D02*
X3246818D01*
X3226653Y798023D02*
X3226818Y798189D01*
X3218534Y818189D02*
X3246818D01*
X3218368Y818023D02*
X3218534Y818189D01*
X3276968Y818268D02*
X3279685Y820984D01*
X3246897Y818268D02*
X3276968D01*
X3246818Y818189D02*
X3246897Y818268D01*
X3276968Y798110D02*
X3279685Y795394D01*
X3246897Y798110D02*
X3276968D01*
X3246818Y798189D02*
X3246897Y798110D01*
X1774862Y184367D02*
X1782431Y191936D01*
X1734692Y184367D02*
X1774862D01*
X1730000D02*
X1734692D01*
X1663878D02*
X1730000D01*
X3083548Y1530000D02*
X3128740D01*
X3073587Y1552870D02*
X3096457Y1575740D01*
X2466072Y1728921D02*
Y1760346D01*
Y1728921D02*
X2501646Y1693346D01*
X2591646D01*
X2607486Y1677506D01*
Y1626850D02*
Y1677506D01*
X2521221Y1758346D02*
X2559646D01*
X2519221Y1760346D02*
X2521221Y1758346D01*
X2559646D02*
X2627171Y1690821D01*
Y1626850D02*
Y1690821D01*
Y1626850D02*
X2646857D01*
X3369331Y1330000D02*
X3374646Y1324685D01*
X3250000Y1330000D02*
X3369331D01*
X3094646Y1740827D02*
X3096457Y1739016D01*
Y1680472D02*
Y1739016D01*
X2951512Y1740827D02*
X2951513Y1740826D01*
Y1680472D02*
Y1740826D01*
X2863392Y1548425D02*
X2878730D01*
X3096457Y1575740D02*
Y1629291D01*
X2951513Y1572188D02*
X2953228Y1570472D01*
X2951513Y1572188D02*
Y1629291D01*
X1683787Y213148D02*
X1705000Y234361D01*
X1667069Y213148D02*
X1683787D01*
X1663878Y209957D02*
X1667069Y213148D01*
X1494823Y129918D02*
X1498091Y133186D01*
X1477324Y129918D02*
X1494823D01*
X1450000Y102594D02*
X1477324Y129918D01*
X1455858Y209957D02*
X1498091D01*
X1441454Y224361D02*
X1455858Y209957D01*
X1440000Y224361D02*
X1441454D01*
X1725513Y132052D02*
Y141956D01*
X1708693Y158776D02*
X1725513Y141956D01*
Y132052D02*
X1772362D01*
X1663878Y158776D02*
X1708693D01*
X1772362Y132052D02*
X1790000Y114414D01*
X3215000Y750397D02*
X3234406Y769803D01*
X3279685D01*
X2666542Y1568775D02*
Y1626850D01*
X2863392Y1508740D02*
X2863707Y1509055D01*
X2863392Y1489055D02*
X3004646D01*
X3013701Y1480000D01*
X2884967Y1529055D02*
X2967295D01*
X2884337Y1528425D02*
X2884967Y1529055D01*
X2878730Y1548425D02*
X2880305Y1550000D01*
X2863392Y1528425D02*
X2884337D01*
X2880305Y1550000D02*
X2932756D01*
X2967295Y1529055D02*
X2991109Y1552870D01*
X2932756Y1550000D02*
X2953228Y1570472D01*
X2863707Y1509055D02*
X2996109D01*
X3007526Y1520472D01*
X3011967D01*
X2991109Y1552870D02*
X3073587D01*
X3013701Y1390472D02*
X3014646D01*
X3025118Y1380000D01*
X3096457D01*
X2993228Y1348739D02*
Y1350472D01*
Y1348739D02*
X3011967Y1330000D01*
X3096457D01*
X2863392Y1430000D02*
X3096457D01*
X3013701Y1480000D02*
X3096457D01*
X1601480Y1937059D02*
X1602464Y1936074D01*
X1601480Y1937059D02*
Y2011074D01*
X1492996Y1813279D02*
Y1838870D01*
X1623527Y1864460D02*
X1658783D01*
X1602464Y1885523D02*
X1623527Y1864460D01*
X1602464Y1885523D02*
Y1936074D01*
X3132638Y818402D02*
X3138117D01*
X3115000Y836040D02*
X3132638Y818402D01*
X3115000Y836040D02*
Y853756D01*
X3097362Y818402D02*
X3115000Y836040D01*
X3138117Y818402D02*
X3138496Y818023D01*
X3091883Y818402D02*
X3097362D01*
X3061471Y828023D02*
X3066883D01*
X3076883Y818023D02*
X3091504D01*
X3066883Y828023D02*
X3076883Y818023D01*
X3091504D02*
X3091883Y818402D01*
X3138117Y797644D02*
X3138496Y798023D01*
X3132638Y797644D02*
X3138117D01*
X3115000Y780007D02*
X3132638Y797644D01*
X3097362D02*
X3115000Y780007D01*
Y762290D02*
Y780007D01*
X3091504Y798023D02*
X3091883Y797644D01*
X3076883Y798023D02*
X3091504D01*
X3091883Y797644D02*
X3097362D01*
X3066883Y788023D02*
X3076883Y798023D01*
X3061471Y788023D02*
X3066883D01*
D28*
X2775000Y410000D02*
X2780000Y405000D01*
X2775000Y410000D02*
Y495000D01*
X2510395Y590276D02*
X2585000D01*
X2502442Y598228D02*
X2510395Y590276D01*
X2746266Y749491D02*
Y940551D01*
X2595000Y598225D02*
X2746266Y749491D01*
X2843505Y780007D02*
Y935511D01*
X2835000Y944016D02*
X2843505Y935511D01*
X2775000Y711502D02*
X2843505Y780007D01*
X2775000Y495000D02*
Y711502D01*
X2732762Y2570000D02*
X2755000D01*
X2712315Y2590447D02*
X2732762Y2570000D01*
X2712315Y2590447D02*
Y2630508D01*
X2721102Y2639295D01*
X2678528D02*
X2687315Y2630508D01*
Y2591829D02*
Y2630508D01*
X2678528Y2703358D02*
X2687315Y2694571D01*
X549728Y2067182D02*
X1185904Y2703358D01*
X2687315Y2678358D02*
Y2694571D01*
X2659768Y2669571D02*
X2678528D01*
X2644631Y2654433D02*
X2659768Y2669571D01*
X2657315Y2561829D02*
X2687315Y2591829D01*
X2637014Y2561829D02*
X2657315D01*
X2721102Y2669571D02*
X2739862D01*
X2755000Y2654433D01*
X2739862Y2639295D02*
X2755000Y2654433D01*
X2712315Y2678358D02*
X2721102Y2669571D01*
X2712315Y2678358D02*
Y2704926D01*
X2721102Y2639295D02*
X2739862D01*
X2688884Y2728358D02*
X2712315Y2704926D01*
X1175548Y2728358D02*
X2688884D01*
X524728Y2077537D02*
X1175548Y2728358D01*
X524728Y1857722D02*
Y2077537D01*
X488425Y1821418D02*
X524728Y1857722D01*
X488425Y1813386D02*
Y1821418D01*
X2678528Y2669571D02*
X2687315Y2678358D01*
X1185904Y2703358D02*
X2678528D01*
X2644631Y2654433D02*
X2659768Y2639295D01*
X2678528D01*
X549728Y1769050D02*
Y2067182D01*
X488425Y1707747D02*
X549728Y1769050D01*
X488425Y1695276D02*
Y1707747D01*
X2784652Y1905583D02*
Y1913701D01*
X2778136Y1899067D02*
X2784652Y1905583D01*
X2778136Y1815484D02*
Y1899067D01*
X2762998Y1800346D02*
X2778136Y1815484D01*
X2745282Y1800346D02*
X2762998D01*
X2600000Y1911882D02*
Y1920000D01*
Y1911882D02*
X2610792Y1901090D01*
Y1815484D02*
Y1901090D01*
Y1815484D02*
X2625930Y1800346D01*
X2643646D01*
X843927Y261049D02*
X885000Y302122D01*
X843927Y257550D02*
Y261049D01*
X787717Y201339D02*
X843927Y257550D01*
X770000Y201339D02*
X787717D01*
X885000Y302122D02*
X930000D01*
X990000Y86098D02*
X1005000Y71098D01*
X990000Y86098D02*
Y137126D01*
X875000Y2031074D02*
X1046976D01*
X1115640Y2099738D01*
Y2163559D01*
X880000Y1707747D02*
X1049738D01*
X1113170Y1771179D01*
Y1835000D01*
X1383359Y2186208D02*
X1390170Y2193019D01*
X1298950Y2186208D02*
X1383359D01*
X1390170Y2193019D02*
X1495466D01*
X1661253Y2116248D02*
Y2141306D01*
X1827470Y2208157D02*
Y2215736D01*
X1812332Y2193019D02*
X1827470Y2208157D01*
X1661253Y2193019D02*
X1812332D01*
X1823032Y2116070D02*
X1825947Y2113155D01*
X1661430Y2116070D02*
X1823032D01*
X1661253Y2116248D02*
X1661430Y2116070D01*
X1661253Y2141306D02*
X1661519Y2141572D01*
X1658960Y1787511D02*
X1820562D01*
X1658783Y1787688D02*
X1658960Y1787511D01*
X1825000Y1879598D02*
Y1887177D01*
X1809862Y1864460D02*
X1825000Y1879598D01*
X1658783Y1864460D02*
X1809862D01*
X1663878Y1558757D02*
X1665513Y1557122D01*
X1663878Y1558757D02*
Y1598186D01*
X1370828Y1623776D02*
X1498091D01*
X1370000Y1622949D02*
X1370828Y1623776D01*
X1668878Y1343757D02*
X1670513Y1342122D01*
X1668878Y1343757D02*
Y1383186D01*
X1375828Y1408776D02*
X1503091D01*
X1375000Y1407949D02*
X1375828Y1408776D01*
X1663878Y1133757D02*
X1665513Y1132122D01*
X1663878Y1133757D02*
Y1173186D01*
X1370828Y1198776D02*
X1498091D01*
X1370000Y1197949D02*
X1370828Y1198776D01*
X1663878Y918757D02*
X1665513Y917122D01*
X1663878Y918757D02*
Y958186D01*
X1370828Y983776D02*
X1498091D01*
X1370000Y982949D02*
X1370828Y983776D01*
X1663878Y713757D02*
X1665513Y712122D01*
X1663878Y713757D02*
Y753186D01*
X1370828Y778776D02*
X1498091D01*
X1370000Y777949D02*
X1370828Y778776D01*
X1663878Y508757D02*
X1665513Y507122D01*
X1663878Y508757D02*
Y548186D01*
X1370828Y573776D02*
X1498091D01*
X1370000Y572949D02*
X1370828Y573776D01*
X1663878Y303757D02*
X1665513Y302122D01*
X1663878Y303757D02*
Y343186D01*
X1370828Y368776D02*
X1498091D01*
X1370000Y367949D02*
X1370828Y368776D01*
X720000Y2607690D02*
Y2675000D01*
X717586Y2605276D02*
X720000Y2607690D01*
X604353Y2607971D02*
Y2670508D01*
X603582Y2607200D02*
X604353Y2607971D01*
X600305Y2461925D02*
Y2511831D01*
X604353Y2515879D01*
X603582Y2516649D02*
X604353Y2515879D01*
X1658783Y1812747D02*
X1659049Y1813013D01*
X1658783Y1787688D02*
Y1812747D01*
X1663878Y93757D02*
X1665513Y92122D01*
X1663878Y93757D02*
Y133186D01*
X1370828Y158776D02*
X1498091D01*
X1370000Y157949D02*
X1370828Y158776D01*
X1380889Y1857649D02*
X1387700Y1864460D01*
X1296480Y1857649D02*
X1380889D01*
X1387700Y1864460D02*
X1492996D01*
D29*
X1675000Y2537341D02*
Y2591377D01*
X1611104Y2473445D02*
X1675000Y2537341D01*
D30*
X260000Y2649212D02*
X262870Y2652082D01*
Y2709799D01*
X268071Y2715000D01*
X477593Y1351777D02*
X488425Y1340945D01*
X477593Y1233667D02*
X488425Y1222835D01*
X477593Y1115557D02*
X488425Y1104724D01*
D31*
X300000Y300000D02*
D03*
Y2500000D02*
D03*
X3200000Y300000D02*
D03*
Y2500000D02*
D03*
D32*
X488425Y1695276D02*
D03*
Y1813386D02*
D03*
Y986614D02*
D03*
X606535D02*
D03*
X390000Y1872441D02*
D03*
Y1754331D02*
D03*
Y1636220D02*
D03*
Y1518110D02*
D03*
Y1400000D02*
D03*
Y1281890D02*
D03*
Y1163780D02*
D03*
Y1045669D02*
D03*
Y927559D02*
D03*
X488425Y1577165D02*
D03*
Y1459055D02*
D03*
Y1340945D02*
D03*
Y1222835D02*
D03*
Y1104724D02*
D03*
X606535Y1813386D02*
D03*
Y1695276D02*
D03*
Y1577165D02*
D03*
Y1459055D02*
D03*
Y1340945D02*
D03*
Y1222835D02*
D03*
Y1104724D02*
D03*
X704961Y1872441D02*
D03*
Y1754331D02*
D03*
Y1636220D02*
D03*
Y1518110D02*
D03*
Y1400000D02*
D03*
Y1281890D02*
D03*
Y1163780D02*
D03*
Y1045669D02*
D03*
Y927559D02*
D03*
D33*
X134095Y642126D02*
D03*
Y2157874D02*
D03*
D34*
X297603Y1937224D02*
D03*
X3445000Y1330000D02*
D03*
Y1380787D02*
D03*
X2675000Y1252835D02*
D03*
X2615098Y1251929D02*
D03*
X3096457Y1575740D02*
D03*
X2775000Y495000D02*
D03*
X2975000Y2205000D02*
D03*
X2530000Y2215736D02*
D03*
X2700000Y2485000D02*
D03*
X875000Y2200000D02*
D03*
Y2031074D02*
D03*
X880000Y1905000D02*
D03*
Y1707747D02*
D03*
X1552769Y2180224D02*
D03*
X1311108Y2133059D02*
D03*
X1917688Y2298559D02*
D03*
X1441322Y2279319D02*
D03*
X1915218Y1970000D02*
D03*
X1593593Y2182153D02*
D03*
X1440000Y1689361D02*
D03*
X1450000Y1567594D02*
D03*
X1705000Y1699361D02*
D03*
X1665513Y1557122D02*
D03*
X1734692Y1649367D02*
D03*
X1725513Y1597052D02*
D03*
X1445000Y1474361D02*
D03*
X1455000Y1352594D02*
D03*
X1710000Y1484361D02*
D03*
X1670513Y1342122D02*
D03*
X1739692Y1434367D02*
D03*
X1730513Y1382052D02*
D03*
X1440000Y1264361D02*
D03*
X1450000Y1142594D02*
D03*
X1705000Y1274361D02*
D03*
X1665513Y1132122D02*
D03*
X1734692Y1224367D02*
D03*
X1725513Y1172052D02*
D03*
X1440000Y1049361D02*
D03*
X1450000Y927594D02*
D03*
X1705000Y1059361D02*
D03*
X1665513Y917122D02*
D03*
X1734692Y1009367D02*
D03*
X1725513Y957052D02*
D03*
X1440000Y844361D02*
D03*
X1450000Y722594D02*
D03*
X1705000Y854361D02*
D03*
X1665513Y712122D02*
D03*
X1734692Y804367D02*
D03*
X1725513Y752052D02*
D03*
X1440000Y639361D02*
D03*
X1450000Y517594D02*
D03*
X1705000Y649361D02*
D03*
X1665513Y507122D02*
D03*
X1734692Y599367D02*
D03*
X1725513Y547052D02*
D03*
X1440000Y434361D02*
D03*
X1450000Y312594D02*
D03*
X1705000Y444361D02*
D03*
X1665513Y302122D02*
D03*
X1734692Y394367D02*
D03*
X1725513Y342052D02*
D03*
X604353Y2670508D02*
D03*
X530000Y2445000D02*
D03*
X2519221Y683264D02*
D03*
X2607486Y1455351D02*
D03*
X265000Y2248006D02*
D03*
X2870412Y566448D02*
D03*
X2735000Y641457D02*
D03*
X2865000Y658228D02*
D03*
X2875000Y746385D02*
D03*
X3205000Y892360D02*
D03*
X1308638Y1804500D02*
D03*
X1550299Y1851665D02*
D03*
X600305Y2461925D02*
D03*
X1438852Y1950759D02*
D03*
X2295000Y1759966D02*
D03*
X2519221Y1823969D02*
D03*
X3056059Y507911D02*
D03*
X3065000Y606025D02*
D03*
X3260000Y595509D02*
D03*
Y485768D02*
D03*
X3450000Y486257D02*
D03*
Y595000D02*
D03*
X2595000Y598225D02*
D03*
X482323Y2495000D02*
D03*
X1734692Y184367D02*
D03*
X3094646Y1740827D02*
D03*
X2951512D02*
D03*
X1705000Y234361D02*
D03*
X1450000Y102594D02*
D03*
X1440000Y224361D02*
D03*
X1665513Y92122D02*
D03*
X1725513Y132052D02*
D03*
X3215000Y750397D02*
D03*
X2839606Y708901D02*
D03*
X2666542Y1568775D02*
D03*
X3011967Y1520472D02*
D03*
X3013701Y1390472D02*
D03*
X2953228Y1570472D02*
D03*
X2993228Y1350472D02*
D03*
X1591124Y1853594D02*
D03*
X3061471Y828023D02*
D03*
Y788023D02*
D03*
X2526657Y2375163D02*
D03*
X2861657D02*
D03*
D35*
X2637014Y2561829D02*
D03*
X2755000Y2570000D02*
D03*
X2642919Y2075000D02*
D03*
X2744727Y2076266D02*
D03*
X2784652Y1913701D02*
D03*
X2600000Y1920000D02*
D03*
X1611104Y2473445D02*
D03*
X305000Y600000D02*
D03*
X990000Y137126D02*
D03*
X930000Y302122D02*
D03*
X460000Y145000D02*
D03*
X490000Y210941D02*
D03*
X560000Y564457D02*
D03*
X635000D02*
D03*
X1413852Y2610000D02*
D03*
X720000Y2675000D02*
D03*
X805000Y2597397D02*
D03*
X667912Y2475000D02*
D03*
X260000Y2649212D02*
D03*
X1107776Y2448661D02*
D03*
X1047776Y2453661D02*
D03*
X987776Y2448661D02*
D03*
%TF.MD5,220796ed2829f7a69dfc1ba44ede3e30*%
M02*
