%TF.GenerationSoftware,Altium Limited,Altium Designer,19.0.10 (269)*%
G04 Layer_Physical_Order=3*
G04 Layer_Color=16440176*
%FSLAX26Y26*%
%MOIN*%
%TF.FileFunction,Copper,L3,Inr,Signal*%
%TF.Part,Single*%
G01*
G75*
%TA.AperFunction,ViaPad*%
%ADD31C,0.196850*%
%TA.AperFunction,ComponentPad*%
%ADD32C,0.086614*%
%ADD33C,0.129921*%
%TA.AperFunction,ViaPad*%
%ADD34C,0.030000*%
%ADD35C,0.045000*%
G36*
X3424708Y2781451D02*
X3440124Y2775066D01*
X3453997Y2765796D01*
X3465796Y2753997D01*
X3475066Y2740124D01*
X3481451Y2724708D01*
X3484707Y2708343D01*
Y2700000D01*
Y100000D01*
Y91657D01*
X3481451Y75292D01*
X3475066Y59876D01*
X3465796Y46003D01*
X3453997Y34204D01*
X3440124Y24934D01*
X3424708Y18549D01*
X3408343Y15293D01*
X91657D01*
X75292Y18549D01*
X59876Y24934D01*
X46003Y34204D01*
X34204Y46003D01*
X24934Y59876D01*
X18549Y75292D01*
X15293Y91657D01*
Y100000D01*
Y2700000D01*
Y2708343D01*
X18549Y2724708D01*
X24934Y2740124D01*
X34204Y2753997D01*
X46003Y2765796D01*
X59876Y2775066D01*
X75292Y2781451D01*
X91657Y2784707D01*
X3408343D01*
X3424708Y2781451D01*
D02*
G37*
%LPC*%
G36*
X265000Y2681334D02*
Y2654212D01*
X292122D01*
X291663Y2657697D01*
X288389Y2665602D01*
X283179Y2672392D01*
X276390Y2677601D01*
X268484Y2680876D01*
X265000Y2681334D01*
D02*
G37*
G36*
X255000D02*
X251516Y2680876D01*
X243610Y2677601D01*
X236821Y2672392D01*
X231611Y2665602D01*
X228337Y2657697D01*
X227878Y2654212D01*
X255000D01*
Y2681334D01*
D02*
G37*
G36*
X604353Y2695998D02*
X594598Y2694057D01*
X586329Y2688532D01*
X580803Y2680262D01*
X578863Y2670508D01*
X580803Y2660753D01*
X586329Y2652484D01*
X594598Y2646958D01*
X604353Y2645018D01*
X614107Y2646958D01*
X622377Y2652484D01*
X627902Y2660753D01*
X629842Y2670508D01*
X627902Y2680262D01*
X622377Y2688532D01*
X614107Y2694057D01*
X604353Y2695998D01*
D02*
G37*
G36*
X720000Y2707780D02*
X711516Y2706663D01*
X703610Y2703389D01*
X696821Y2698179D01*
X691611Y2691390D01*
X688337Y2683484D01*
X687220Y2675000D01*
X688337Y2666516D01*
X691611Y2658610D01*
X696821Y2651821D01*
X703610Y2646611D01*
X711516Y2643337D01*
X720000Y2642220D01*
X728484Y2643337D01*
X736390Y2646611D01*
X743179Y2651821D01*
X748389Y2658610D01*
X751663Y2666516D01*
X752780Y2675000D01*
X751663Y2683484D01*
X748389Y2691390D01*
X743179Y2698179D01*
X736390Y2703389D01*
X728484Y2706663D01*
X720000Y2707780D01*
D02*
G37*
G36*
X292122Y2644212D02*
X265000D01*
Y2617090D01*
X268484Y2617549D01*
X276390Y2620824D01*
X283179Y2626033D01*
X288389Y2632822D01*
X291663Y2640728D01*
X292122Y2644212D01*
D02*
G37*
G36*
X255000D02*
X227878D01*
X228337Y2640728D01*
X231611Y2632822D01*
X236821Y2626033D01*
X243610Y2620824D01*
X251516Y2617549D01*
X255000Y2617090D01*
Y2644212D01*
D02*
G37*
G36*
X810000Y2629519D02*
Y2602397D01*
X837122D01*
X836663Y2605881D01*
X833389Y2613787D01*
X828179Y2620576D01*
X821390Y2625786D01*
X813484Y2629061D01*
X810000Y2629519D01*
D02*
G37*
G36*
X800000D02*
X796516Y2629061D01*
X788610Y2625786D01*
X781821Y2620576D01*
X776611Y2613787D01*
X773337Y2605881D01*
X772878Y2602397D01*
X800000D01*
Y2629519D01*
D02*
G37*
G36*
X1413852Y2642780D02*
X1405368Y2641663D01*
X1397462Y2638389D01*
X1390673Y2633179D01*
X1385463Y2626390D01*
X1382188Y2618484D01*
X1381072Y2610000D01*
X1382188Y2601516D01*
X1385463Y2593610D01*
X1390673Y2586821D01*
X1397462Y2581611D01*
X1405368Y2578337D01*
X1413852Y2577220D01*
X1422336Y2578337D01*
X1430242Y2581611D01*
X1437031Y2586821D01*
X1442241Y2593610D01*
X1445515Y2601516D01*
X1446632Y2610000D01*
X1445515Y2618484D01*
X1442241Y2626390D01*
X1437031Y2633179D01*
X1430242Y2638389D01*
X1422336Y2641663D01*
X1413852Y2642780D01*
D02*
G37*
G36*
X837122Y2592397D02*
X810000D01*
Y2565275D01*
X813484Y2565734D01*
X821390Y2569008D01*
X828179Y2574218D01*
X833389Y2581007D01*
X836663Y2588913D01*
X837122Y2592397D01*
D02*
G37*
G36*
X800000D02*
X772878D01*
X773337Y2588913D01*
X776611Y2581007D01*
X781821Y2574218D01*
X788610Y2569008D01*
X796516Y2565734D01*
X800000Y2565275D01*
Y2592397D01*
D02*
G37*
G36*
X2755000Y2602780D02*
X2746516Y2601663D01*
X2738610Y2598389D01*
X2731821Y2593179D01*
X2726611Y2586390D01*
X2723337Y2578484D01*
X2722220Y2570000D01*
X2723337Y2561516D01*
X2726611Y2553610D01*
X2731821Y2546821D01*
X2738610Y2541611D01*
X2746516Y2538337D01*
X2755000Y2537220D01*
X2763484Y2538337D01*
X2771390Y2541611D01*
X2778179Y2546821D01*
X2783389Y2553610D01*
X2786663Y2561516D01*
X2787780Y2570000D01*
X2786663Y2578484D01*
X2783389Y2586390D01*
X2778179Y2593179D01*
X2771390Y2598389D01*
X2763484Y2601663D01*
X2755000Y2602780D01*
D02*
G37*
G36*
X2637014Y2594610D02*
X2628530Y2593493D01*
X2620624Y2590218D01*
X2613835Y2585008D01*
X2608625Y2578220D01*
X2605351Y2570314D01*
X2604234Y2561829D01*
X2605351Y2553345D01*
X2608625Y2545439D01*
X2613835Y2538650D01*
X2620624Y2533441D01*
X2628530Y2530166D01*
X2637014Y2529049D01*
X2645498Y2530166D01*
X2653404Y2533441D01*
X2660193Y2538650D01*
X2665403Y2545439D01*
X2668677Y2553345D01*
X2669794Y2561829D01*
X2668677Y2570314D01*
X2665403Y2578220D01*
X2660193Y2585008D01*
X2653404Y2590218D01*
X2645498Y2593493D01*
X2637014Y2594610D01*
D02*
G37*
G36*
X482323Y2520490D02*
X472568Y2518550D01*
X464299Y2513024D01*
X458773Y2504755D01*
X456833Y2495000D01*
X458773Y2485245D01*
X464299Y2476976D01*
X472568Y2471450D01*
X482323Y2469510D01*
X492077Y2471450D01*
X500347Y2476976D01*
X505872Y2485245D01*
X507813Y2495000D01*
X505872Y2504755D01*
X500347Y2513024D01*
X492077Y2518550D01*
X482323Y2520490D01*
D02*
G37*
G36*
X1042776Y2485783D02*
X1039292Y2485325D01*
X1031386Y2482050D01*
X1024597Y2476840D01*
X1019387Y2470051D01*
X1019122Y2469411D01*
X1013398Y2468657D01*
X1010955Y2471840D01*
X1004166Y2477050D01*
X996260Y2480325D01*
X992776Y2480783D01*
Y2448661D01*
Y2416539D01*
X996260Y2416998D01*
X1004166Y2420272D01*
X1010955Y2425482D01*
X1016164Y2432271D01*
X1016430Y2432912D01*
X1022154Y2433665D01*
X1024597Y2430482D01*
X1031386Y2425272D01*
X1039292Y2421998D01*
X1042776Y2421539D01*
Y2453661D01*
Y2485783D01*
D02*
G37*
G36*
X2700000Y2510489D02*
X2690245Y2508549D01*
X2681976Y2503024D01*
X2676450Y2494754D01*
X2674510Y2485000D01*
X2676450Y2475245D01*
X2681976Y2466976D01*
X2690245Y2461450D01*
X2700000Y2459510D01*
X2709754Y2461450D01*
X2718024Y2466976D01*
X2723549Y2475245D01*
X2725489Y2485000D01*
X2723549Y2494754D01*
X2718024Y2503024D01*
X2709754Y2508549D01*
X2700000Y2510489D01*
D02*
G37*
G36*
X1112776Y2480783D02*
Y2453661D01*
X1139898D01*
X1139439Y2457145D01*
X1136164Y2465051D01*
X1130955Y2471840D01*
X1124166Y2477050D01*
X1116260Y2480325D01*
X1112776Y2480783D01*
D02*
G37*
G36*
X982776D02*
X979292Y2480325D01*
X971385Y2477050D01*
X964596Y2471840D01*
X959387Y2465051D01*
X956112Y2457145D01*
X955654Y2453661D01*
X982776D01*
Y2480783D01*
D02*
G37*
G36*
X667912Y2507780D02*
X659428Y2506663D01*
X651522Y2503389D01*
X644733Y2498179D01*
X639524Y2491390D01*
X636249Y2483484D01*
X635132Y2475000D01*
X636249Y2466516D01*
X639524Y2458610D01*
X644733Y2451821D01*
X651522Y2446611D01*
X659428Y2443337D01*
X667912Y2442220D01*
X676396Y2443337D01*
X684302Y2446611D01*
X691091Y2451821D01*
X696301Y2458610D01*
X699576Y2466516D01*
X700693Y2475000D01*
X699576Y2483484D01*
X696301Y2491390D01*
X691091Y2498179D01*
X684302Y2503389D01*
X676396Y2506663D01*
X667912Y2507780D01*
D02*
G37*
G36*
X1611104Y2506225D02*
X1602620Y2505108D01*
X1594714Y2501833D01*
X1587925Y2496624D01*
X1582715Y2489835D01*
X1579440Y2481929D01*
X1578323Y2473445D01*
X1579440Y2464960D01*
X1582715Y2457054D01*
X1587925Y2450265D01*
X1594714Y2445056D01*
X1602620Y2441781D01*
X1611104Y2440664D01*
X1619588Y2441781D01*
X1627494Y2445056D01*
X1634283Y2450265D01*
X1639493Y2457054D01*
X1642767Y2464960D01*
X1643884Y2473445D01*
X1642767Y2481929D01*
X1639493Y2489835D01*
X1634283Y2496624D01*
X1627494Y2501833D01*
X1619588Y2505108D01*
X1611104Y2506225D01*
D02*
G37*
G36*
X600305Y2487415D02*
X590551Y2485474D01*
X582281Y2479949D01*
X576756Y2471679D01*
X574815Y2461925D01*
X576756Y2452170D01*
X582281Y2443901D01*
X590551Y2438375D01*
X600305Y2436435D01*
X610060Y2438375D01*
X618329Y2443901D01*
X623855Y2452170D01*
X625795Y2461925D01*
X623855Y2471679D01*
X618329Y2479949D01*
X610060Y2485474D01*
X600305Y2487415D01*
D02*
G37*
G36*
X530000Y2470490D02*
X520245Y2468550D01*
X511976Y2463024D01*
X506450Y2454755D01*
X504510Y2445000D01*
X506450Y2435245D01*
X511976Y2426976D01*
X520245Y2421450D01*
X530000Y2419510D01*
X539755Y2421450D01*
X548024Y2426976D01*
X553549Y2435245D01*
X555490Y2445000D01*
X553549Y2454755D01*
X548024Y2463024D01*
X539755Y2468550D01*
X530000Y2470490D01*
D02*
G37*
G36*
X1139898Y2443661D02*
X1112776D01*
Y2416539D01*
X1116260Y2416998D01*
X1124166Y2420272D01*
X1130955Y2425482D01*
X1136164Y2432271D01*
X1139439Y2440177D01*
X1139898Y2443661D01*
D02*
G37*
G36*
X1052776Y2485783D02*
Y2453661D01*
Y2421539D01*
X1056260Y2421998D01*
X1064166Y2425272D01*
X1070955Y2430482D01*
X1073398Y2433665D01*
X1079122Y2432912D01*
X1079387Y2432271D01*
X1084597Y2425482D01*
X1091386Y2420272D01*
X1099292Y2416998D01*
X1102776Y2416539D01*
Y2448661D01*
Y2480783D01*
X1099292Y2480325D01*
X1091386Y2477050D01*
X1084597Y2471840D01*
X1082154Y2468657D01*
X1076430Y2469411D01*
X1076164Y2470051D01*
X1070955Y2476840D01*
X1064166Y2482050D01*
X1056260Y2485325D01*
X1052776Y2485783D01*
D02*
G37*
G36*
X982776Y2443661D02*
X955654D01*
X956112Y2440177D01*
X959387Y2432271D01*
X964596Y2425482D01*
X971385Y2420272D01*
X979292Y2416998D01*
X982776Y2416539D01*
Y2443661D01*
D02*
G37*
G36*
X3200000Y2608760D02*
X3182986Y2607421D01*
X3166391Y2603437D01*
X3150624Y2596906D01*
X3136072Y2587989D01*
X3123095Y2576905D01*
X3112011Y2563928D01*
X3103094Y2549376D01*
X3096563Y2533609D01*
X3092579Y2517014D01*
X3091240Y2500000D01*
X3092579Y2482986D01*
X3096563Y2466391D01*
X3103094Y2450624D01*
X3112011Y2436072D01*
X3123095Y2423095D01*
X3136072Y2412011D01*
X3150624Y2403094D01*
X3166391Y2396563D01*
X3182986Y2392579D01*
X3200000Y2391240D01*
X3217014Y2392579D01*
X3233609Y2396563D01*
X3249376Y2403094D01*
X3263928Y2412011D01*
X3276905Y2423095D01*
X3287989Y2436072D01*
X3296906Y2450624D01*
X3303437Y2466391D01*
X3307421Y2482986D01*
X3308760Y2500000D01*
X3307421Y2517014D01*
X3303437Y2533609D01*
X3296906Y2549376D01*
X3287989Y2563928D01*
X3276905Y2576905D01*
X3263928Y2587989D01*
X3249376Y2596906D01*
X3233609Y2603437D01*
X3217014Y2607421D01*
X3200000Y2608760D01*
D02*
G37*
G36*
X300000D02*
X282986Y2607421D01*
X266391Y2603437D01*
X250624Y2596906D01*
X236072Y2587989D01*
X223095Y2576905D01*
X212011Y2563928D01*
X203094Y2549376D01*
X196563Y2533609D01*
X192578Y2517014D01*
X191239Y2500000D01*
X192578Y2482986D01*
X196563Y2466391D01*
X203094Y2450624D01*
X212011Y2436072D01*
X223095Y2423095D01*
X236072Y2412011D01*
X250624Y2403094D01*
X266391Y2396563D01*
X282986Y2392579D01*
X300000Y2391240D01*
X317014Y2392579D01*
X333609Y2396563D01*
X349376Y2403094D01*
X363928Y2412011D01*
X376905Y2423095D01*
X387989Y2436072D01*
X396906Y2450624D01*
X403437Y2466391D01*
X407421Y2482986D01*
X408760Y2500000D01*
X407421Y2517014D01*
X403437Y2533609D01*
X396906Y2549376D01*
X387989Y2563928D01*
X376905Y2576905D01*
X363928Y2587989D01*
X349376Y2596906D01*
X333609Y2603437D01*
X317014Y2607421D01*
X300000Y2608760D01*
D02*
G37*
G36*
X2861657Y2400653D02*
X2851902Y2398713D01*
X2843633Y2393187D01*
X2838107Y2384918D01*
X2836167Y2375163D01*
X2838107Y2365409D01*
X2843633Y2357139D01*
X2851902Y2351614D01*
X2861657Y2349673D01*
X2871411Y2351614D01*
X2879680Y2357139D01*
X2885206Y2365409D01*
X2887146Y2375163D01*
X2885206Y2384918D01*
X2879680Y2393187D01*
X2871411Y2398713D01*
X2861657Y2400653D01*
D02*
G37*
G36*
X2526657D02*
X2516902Y2398713D01*
X2508633Y2393187D01*
X2503107Y2384918D01*
X2501167Y2375163D01*
X2503107Y2365409D01*
X2508633Y2357139D01*
X2516902Y2351614D01*
X2526657Y2349673D01*
X2536411Y2351614D01*
X2544680Y2357139D01*
X2550206Y2365409D01*
X2552146Y2375163D01*
X2550206Y2384918D01*
X2544680Y2393187D01*
X2536411Y2398713D01*
X2526657Y2400653D01*
D02*
G37*
G36*
X1917688Y2324049D02*
X1907933Y2322109D01*
X1899664Y2316583D01*
X1894138Y2308314D01*
X1892198Y2298559D01*
X1894138Y2288805D01*
X1899664Y2280535D01*
X1907933Y2275010D01*
X1917688Y2273069D01*
X1927442Y2275010D01*
X1935712Y2280535D01*
X1941237Y2288805D01*
X1943178Y2298559D01*
X1941237Y2308314D01*
X1935712Y2316583D01*
X1927442Y2322109D01*
X1917688Y2324049D01*
D02*
G37*
G36*
X1441322Y2304808D02*
X1431567Y2302868D01*
X1423298Y2297343D01*
X1417772Y2289073D01*
X1415832Y2279319D01*
X1417772Y2269564D01*
X1423298Y2261295D01*
X1431567Y2255769D01*
X1441322Y2253829D01*
X1451076Y2255769D01*
X1459346Y2261295D01*
X1464871Y2269564D01*
X1466812Y2279319D01*
X1464871Y2289073D01*
X1459346Y2297343D01*
X1451076Y2302868D01*
X1441322Y2304808D01*
D02*
G37*
G36*
X265000Y2273496D02*
X255245Y2271555D01*
X246976Y2266030D01*
X241451Y2257760D01*
X239510Y2248006D01*
X241451Y2238251D01*
X246976Y2229982D01*
X255245Y2224456D01*
X265000Y2222516D01*
X274755Y2224456D01*
X283024Y2229982D01*
X288550Y2238251D01*
X290490Y2248006D01*
X288550Y2257760D01*
X283024Y2266030D01*
X274755Y2271555D01*
X265000Y2273496D01*
D02*
G37*
G36*
X1588593Y2206648D02*
X1583839Y2205703D01*
X1575570Y2200177D01*
X1574281Y2198248D01*
X1570793D01*
X1562523Y2203773D01*
X1552769Y2205714D01*
X1543014Y2203773D01*
X1534745Y2198248D01*
X1529219Y2189979D01*
X1527279Y2180224D01*
X1529219Y2170470D01*
X1534745Y2162200D01*
X1543014Y2156675D01*
X1552769Y2154734D01*
X1562523Y2156675D01*
X1570793Y2162200D01*
X1572082Y2164129D01*
X1575570D01*
X1583839Y2158604D01*
X1588593Y2157658D01*
Y2182153D01*
Y2206648D01*
D02*
G37*
G36*
X2530000Y2241226D02*
X2520245Y2239285D01*
X2511976Y2233760D01*
X2506450Y2225490D01*
X2504510Y2215736D01*
X2506450Y2205981D01*
X2511976Y2197712D01*
X2520245Y2192186D01*
X2530000Y2190246D01*
X2539755Y2192186D01*
X2548024Y2197712D01*
X2553550Y2205981D01*
X2555490Y2215736D01*
X2553550Y2225490D01*
X2548024Y2233760D01*
X2539755Y2239285D01*
X2530000Y2241226D01*
D02*
G37*
G36*
X1598593Y2206648D02*
Y2187153D01*
X1618089D01*
X1617143Y2191908D01*
X1611618Y2200177D01*
X1603348Y2205703D01*
X1598593Y2206648D01*
D02*
G37*
G36*
X2975000Y2230490D02*
X2965245Y2228550D01*
X2956976Y2223024D01*
X2951450Y2214755D01*
X2949510Y2205000D01*
X2951450Y2195245D01*
X2956976Y2186976D01*
X2965245Y2181450D01*
X2975000Y2179510D01*
X2984755Y2181450D01*
X2993024Y2186976D01*
X2998550Y2195245D01*
X3000490Y2205000D01*
X2998550Y2214755D01*
X2993024Y2223024D01*
X2984755Y2228550D01*
X2975000Y2230490D01*
D02*
G37*
G36*
X875000Y2225490D02*
X865245Y2223550D01*
X856976Y2218024D01*
X851451Y2209755D01*
X849510Y2200000D01*
X851451Y2190245D01*
X856976Y2181976D01*
X865245Y2176450D01*
X875000Y2174510D01*
X884755Y2176450D01*
X893024Y2181976D01*
X898549Y2190245D01*
X900490Y2200000D01*
X898549Y2209755D01*
X893024Y2218024D01*
X884755Y2223550D01*
X875000Y2225490D01*
D02*
G37*
G36*
X1618089Y2177153D02*
X1598593D01*
Y2157658D01*
X1603348Y2158604D01*
X1611618Y2164129D01*
X1617143Y2172399D01*
X1618089Y2177153D01*
D02*
G37*
G36*
X1311108Y2158548D02*
X1301353Y2156608D01*
X1293084Y2151083D01*
X1287558Y2142813D01*
X1285618Y2133059D01*
X1287558Y2123304D01*
X1293084Y2115035D01*
X1301353Y2109509D01*
X1311108Y2107569D01*
X1320862Y2109509D01*
X1329132Y2115035D01*
X1334657Y2123304D01*
X1336598Y2133059D01*
X1334657Y2142813D01*
X1329132Y2151083D01*
X1320862Y2156608D01*
X1311108Y2158548D01*
D02*
G37*
G36*
X134095Y2233197D02*
X119400Y2231750D01*
X105269Y2227464D01*
X92247Y2220503D01*
X80833Y2211136D01*
X71466Y2199721D01*
X64505Y2186699D01*
X60218Y2172569D01*
X58771Y2157874D01*
X60218Y2143179D01*
X64505Y2129049D01*
X71466Y2116027D01*
X80833Y2104612D01*
X92247Y2095245D01*
X105269Y2088284D01*
X119400Y2083998D01*
X134095Y2082551D01*
X148789Y2083998D01*
X162919Y2088284D01*
X175942Y2095245D01*
X187356Y2104612D01*
X196724Y2116027D01*
X203684Y2129049D01*
X207970Y2143179D01*
X209418Y2157874D01*
X207970Y2172569D01*
X203684Y2186699D01*
X196724Y2199721D01*
X187356Y2211136D01*
X175942Y2220503D01*
X162919Y2227464D01*
X148789Y2231750D01*
X134095Y2233197D01*
D02*
G37*
G36*
X2647919Y2107122D02*
Y2080000D01*
X2675042D01*
X2674583Y2083484D01*
X2671308Y2091390D01*
X2666099Y2098179D01*
X2659310Y2103389D01*
X2651404Y2106663D01*
X2647919Y2107122D01*
D02*
G37*
G36*
X2637919D02*
X2634435Y2106663D01*
X2626529Y2103389D01*
X2619740Y2098179D01*
X2614531Y2091390D01*
X2611256Y2083484D01*
X2610797Y2080000D01*
X2637919D01*
Y2107122D01*
D02*
G37*
G36*
X2744727Y2109046D02*
X2736243Y2107929D01*
X2728337Y2104654D01*
X2721548Y2099445D01*
X2716339Y2092656D01*
X2713064Y2084750D01*
X2711947Y2076266D01*
X2713064Y2067782D01*
X2716339Y2059876D01*
X2721548Y2053086D01*
X2728337Y2047877D01*
X2736243Y2044602D01*
X2744727Y2043485D01*
X2753212Y2044602D01*
X2761118Y2047877D01*
X2767907Y2053086D01*
X2773116Y2059876D01*
X2776391Y2067782D01*
X2777508Y2076266D01*
X2776391Y2084750D01*
X2773116Y2092656D01*
X2767907Y2099445D01*
X2761118Y2104654D01*
X2753212Y2107929D01*
X2744727Y2109046D01*
D02*
G37*
G36*
X2675042Y2070000D02*
X2647919D01*
Y2042878D01*
X2651404Y2043337D01*
X2659310Y2046611D01*
X2666099Y2051821D01*
X2671308Y2058610D01*
X2674583Y2066516D01*
X2675042Y2070000D01*
D02*
G37*
G36*
X2637919D02*
X2610797D01*
X2611256Y2066516D01*
X2614531Y2058610D01*
X2619740Y2051821D01*
X2626529Y2046611D01*
X2634435Y2043337D01*
X2637919Y2042878D01*
Y2070000D01*
D02*
G37*
G36*
X875000Y2056564D02*
X865245Y2054624D01*
X856976Y2049098D01*
X851451Y2040829D01*
X849510Y2031074D01*
X851451Y2021320D01*
X856976Y2013050D01*
X865245Y2007525D01*
X875000Y2005585D01*
X884755Y2007525D01*
X893024Y2013050D01*
X898549Y2021320D01*
X900490Y2031074D01*
X898549Y2040829D01*
X893024Y2049098D01*
X884755Y2054624D01*
X875000Y2056564D01*
D02*
G37*
G36*
X1915218Y1995490D02*
X1905463Y1993550D01*
X1897194Y1988024D01*
X1891668Y1979755D01*
X1889728Y1970000D01*
X1891668Y1960245D01*
X1897194Y1951976D01*
X1905463Y1946450D01*
X1915218Y1944510D01*
X1924972Y1946450D01*
X1933242Y1951976D01*
X1938767Y1960245D01*
X1940708Y1970000D01*
X1938767Y1979755D01*
X1933242Y1988024D01*
X1924972Y1993550D01*
X1915218Y1995490D01*
D02*
G37*
G36*
X1438852Y1976249D02*
X1429097Y1974309D01*
X1420828Y1968784D01*
X1415302Y1960514D01*
X1413362Y1950759D01*
X1415302Y1941005D01*
X1420828Y1932736D01*
X1429097Y1927210D01*
X1438852Y1925270D01*
X1448606Y1927210D01*
X1456876Y1932736D01*
X1462401Y1941005D01*
X1464342Y1950759D01*
X1462401Y1960514D01*
X1456876Y1968784D01*
X1448606Y1974309D01*
X1438852Y1976249D01*
D02*
G37*
G36*
X297603Y1962714D02*
X287848Y1960774D01*
X279579Y1955248D01*
X274053Y1946979D01*
X272113Y1937224D01*
X274053Y1927470D01*
X279579Y1919200D01*
X287848Y1913675D01*
X297603Y1911735D01*
X307357Y1913675D01*
X315627Y1919200D01*
X321152Y1927470D01*
X323092Y1937224D01*
X321152Y1946979D01*
X315627Y1955248D01*
X307357Y1960774D01*
X297603Y1962714D01*
D02*
G37*
G36*
X2600000Y1952780D02*
X2591516Y1951663D01*
X2583610Y1948389D01*
X2576821Y1943179D01*
X2571611Y1936390D01*
X2568337Y1928484D01*
X2567220Y1920000D01*
X2568337Y1911516D01*
X2571611Y1903610D01*
X2576821Y1896821D01*
X2583610Y1891611D01*
X2591516Y1888337D01*
X2600000Y1887220D01*
X2608484Y1888337D01*
X2616390Y1891611D01*
X2623179Y1896821D01*
X2628389Y1903610D01*
X2631663Y1911516D01*
X2632780Y1920000D01*
X2631663Y1928484D01*
X2628389Y1936390D01*
X2623179Y1943179D01*
X2616390Y1948389D01*
X2608484Y1951663D01*
X2600000Y1952780D01*
D02*
G37*
G36*
X2784652Y1946481D02*
X2776168Y1945364D01*
X2768262Y1942089D01*
X2761473Y1936880D01*
X2756263Y1930091D01*
X2752988Y1922185D01*
X2751871Y1913701D01*
X2752988Y1905216D01*
X2756263Y1897311D01*
X2761473Y1890522D01*
X2768262Y1885312D01*
X2776168Y1882037D01*
X2784652Y1880920D01*
X2793136Y1882037D01*
X2801042Y1885312D01*
X2807831Y1890522D01*
X2813041Y1897311D01*
X2816315Y1905216D01*
X2817432Y1913701D01*
X2816315Y1922185D01*
X2813041Y1930091D01*
X2807831Y1936880D01*
X2801042Y1942089D01*
X2793136Y1945364D01*
X2784652Y1946481D01*
D02*
G37*
G36*
X880000Y1930490D02*
X870245Y1928550D01*
X861976Y1923024D01*
X856451Y1914755D01*
X854510Y1905000D01*
X856451Y1895245D01*
X861976Y1886976D01*
X870245Y1881450D01*
X880000Y1879510D01*
X889755Y1881450D01*
X898024Y1886976D01*
X903549Y1895245D01*
X905490Y1905000D01*
X903549Y1914755D01*
X898024Y1923024D01*
X889755Y1928550D01*
X880000Y1930490D01*
D02*
G37*
G36*
X1586124Y1878089D02*
X1581369Y1877144D01*
X1573100Y1871618D01*
X1571811Y1869689D01*
X1568323D01*
X1560053Y1875214D01*
X1550299Y1877155D01*
X1540544Y1875214D01*
X1532275Y1869689D01*
X1526749Y1861419D01*
X1524809Y1851665D01*
X1526749Y1841910D01*
X1532275Y1833641D01*
X1540544Y1828115D01*
X1550299Y1826175D01*
X1560053Y1828115D01*
X1568323Y1833641D01*
X1569612Y1835570D01*
X1573100D01*
X1581369Y1830045D01*
X1586124Y1829099D01*
Y1853594D01*
Y1878089D01*
D02*
G37*
G36*
X1596124D02*
Y1858594D01*
X1615619D01*
X1614673Y1863349D01*
X1609148Y1871618D01*
X1600878Y1877144D01*
X1596124Y1878089D01*
D02*
G37*
G36*
X1615619Y1848594D02*
X1596124D01*
Y1829099D01*
X1600878Y1830045D01*
X1609148Y1835570D01*
X1614673Y1843840D01*
X1615619Y1848594D01*
D02*
G37*
G36*
X2524221Y1848464D02*
Y1828969D01*
X2543716D01*
X2542771Y1833724D01*
X2537245Y1841993D01*
X2528976Y1847519D01*
X2524221Y1848464D01*
D02*
G37*
G36*
X2514221D02*
X2509467Y1847519D01*
X2501197Y1841993D01*
X2495672Y1833724D01*
X2494726Y1828969D01*
X2514221D01*
Y1848464D01*
D02*
G37*
G36*
X704961Y1926208D02*
X691045Y1924376D01*
X678077Y1919005D01*
X666942Y1910460D01*
X658397Y1899324D01*
X653026Y1886357D01*
X651193Y1872441D01*
X653026Y1858525D01*
X658397Y1845557D01*
X666942Y1834422D01*
X678077Y1825877D01*
X691045Y1820506D01*
X704961Y1818674D01*
X718876Y1820506D01*
X731844Y1825877D01*
X742980Y1834422D01*
X751524Y1845557D01*
X756896Y1858525D01*
X758728Y1872441D01*
X756896Y1886357D01*
X751524Y1899324D01*
X742980Y1910460D01*
X731844Y1919005D01*
X718876Y1924376D01*
X704961Y1926208D01*
D02*
G37*
G36*
X390000D02*
X376084Y1924376D01*
X363116Y1919005D01*
X351981Y1910460D01*
X343436Y1899324D01*
X338065Y1886357D01*
X336233Y1872441D01*
X338065Y1858525D01*
X343436Y1845557D01*
X351981Y1834422D01*
X363116Y1825877D01*
X376084Y1820506D01*
X390000Y1818674D01*
X403916Y1820506D01*
X416884Y1825877D01*
X428019Y1834422D01*
X436564Y1845557D01*
X441935Y1858525D01*
X443767Y1872441D01*
X441935Y1886357D01*
X436564Y1899324D01*
X428019Y1910460D01*
X416884Y1919005D01*
X403916Y1924376D01*
X390000Y1926208D01*
D02*
G37*
G36*
X2543716Y1818969D02*
X2524221D01*
Y1799474D01*
X2528976Y1800420D01*
X2537245Y1805945D01*
X2542771Y1814215D01*
X2543716Y1818969D01*
D02*
G37*
G36*
X2514221D02*
X2494726D01*
X2495672Y1814215D01*
X2501197Y1805945D01*
X2509467Y1800420D01*
X2514221Y1799474D01*
Y1818969D01*
D02*
G37*
G36*
X1308638Y1829989D02*
X1298883Y1828049D01*
X1290614Y1822524D01*
X1285088Y1814254D01*
X1283148Y1804500D01*
X1285088Y1794745D01*
X1290614Y1786476D01*
X1298883Y1780950D01*
X1308638Y1779010D01*
X1318392Y1780950D01*
X1326662Y1786476D01*
X1332187Y1794745D01*
X1334128Y1804500D01*
X1332187Y1814254D01*
X1326662Y1822524D01*
X1318392Y1828049D01*
X1308638Y1829989D01*
D02*
G37*
G36*
X606535Y1867153D02*
X592620Y1865321D01*
X579652Y1859949D01*
X568516Y1851405D01*
X559972Y1840269D01*
X554600Y1827302D01*
X552768Y1813386D01*
X554600Y1799470D01*
X559972Y1786502D01*
X568516Y1775367D01*
X579652Y1766822D01*
X592620Y1761451D01*
X606535Y1759619D01*
X620451Y1761451D01*
X633419Y1766822D01*
X644554Y1775367D01*
X653099Y1786502D01*
X658470Y1799470D01*
X660303Y1813386D01*
X658470Y1827302D01*
X653099Y1840269D01*
X644554Y1851405D01*
X633419Y1859949D01*
X620451Y1865321D01*
X606535Y1867153D01*
D02*
G37*
G36*
X488425D02*
X474509Y1865321D01*
X461542Y1859949D01*
X450406Y1851405D01*
X441861Y1840269D01*
X436490Y1827302D01*
X434658Y1813386D01*
X436490Y1799470D01*
X441861Y1786502D01*
X450406Y1775367D01*
X461542Y1766822D01*
X474509Y1761451D01*
X488425Y1759619D01*
X502341Y1761451D01*
X515309Y1766822D01*
X526444Y1775367D01*
X534989Y1786502D01*
X540360Y1799470D01*
X542192Y1813386D01*
X540360Y1827302D01*
X534989Y1840269D01*
X526444Y1851405D01*
X515309Y1859949D01*
X502341Y1865321D01*
X488425Y1867153D01*
D02*
G37*
G36*
X3099646Y1765322D02*
Y1745827D01*
X3119142D01*
X3118196Y1750581D01*
X3112670Y1758851D01*
X3104401Y1764376D01*
X3099646Y1765322D01*
D02*
G37*
G36*
X3089646D02*
X3084892Y1764376D01*
X3076622Y1758851D01*
X3071097Y1750581D01*
X3070151Y1745827D01*
X3089646D01*
Y1765322D01*
D02*
G37*
G36*
X2956512D02*
Y1745827D01*
X2976007D01*
X2975061Y1750581D01*
X2969536Y1758851D01*
X2961266Y1764376D01*
X2956512Y1765322D01*
D02*
G37*
G36*
X2946512D02*
X2941757Y1764376D01*
X2933488Y1758851D01*
X2927962Y1750581D01*
X2927017Y1745827D01*
X2946512D01*
Y1765322D01*
D02*
G37*
G36*
X2295000Y1785456D02*
X2285245Y1783516D01*
X2276976Y1777990D01*
X2271450Y1769721D01*
X2269510Y1759966D01*
X2271450Y1750212D01*
X2276976Y1741942D01*
X2285245Y1736417D01*
X2295000Y1734477D01*
X2304755Y1736417D01*
X2313024Y1741942D01*
X2318550Y1750212D01*
X2320490Y1759966D01*
X2318550Y1769721D01*
X2313024Y1777990D01*
X2304755Y1783516D01*
X2295000Y1785456D01*
D02*
G37*
G36*
X3119142Y1735827D02*
X3099646D01*
Y1716332D01*
X3104401Y1717277D01*
X3112670Y1722803D01*
X3118196Y1731072D01*
X3119142Y1735827D01*
D02*
G37*
G36*
X3089646D02*
X3070151D01*
X3071097Y1731072D01*
X3076622Y1722803D01*
X3084892Y1717277D01*
X3089646Y1716332D01*
Y1735827D01*
D02*
G37*
G36*
X2976007D02*
X2956512D01*
Y1716332D01*
X2961266Y1717277D01*
X2969536Y1722803D01*
X2975061Y1731072D01*
X2976007Y1735827D01*
D02*
G37*
G36*
X2946512D02*
X2927017D01*
X2927962Y1731072D01*
X2933488Y1722803D01*
X2941757Y1717277D01*
X2946512Y1716332D01*
Y1735827D01*
D02*
G37*
G36*
X1710000Y1723856D02*
Y1704361D01*
X1729495D01*
X1728550Y1709115D01*
X1723024Y1717385D01*
X1714755Y1722910D01*
X1710000Y1723856D01*
D02*
G37*
G36*
X1700000D02*
X1695246Y1722910D01*
X1686976Y1717385D01*
X1681451Y1709115D01*
X1680505Y1704361D01*
X1700000D01*
Y1723856D01*
D02*
G37*
G36*
X704961Y1808098D02*
X691045Y1806266D01*
X678077Y1800894D01*
X666942Y1792350D01*
X658397Y1781214D01*
X653026Y1768247D01*
X651193Y1754331D01*
X653026Y1740415D01*
X658397Y1727447D01*
X666942Y1716312D01*
X678077Y1707767D01*
X691045Y1702396D01*
X704961Y1700564D01*
X718876Y1702396D01*
X731844Y1707767D01*
X742980Y1716312D01*
X751524Y1727447D01*
X756896Y1740415D01*
X758728Y1754331D01*
X756896Y1768247D01*
X751524Y1781214D01*
X742980Y1792350D01*
X731844Y1800894D01*
X718876Y1806266D01*
X704961Y1808098D01*
D02*
G37*
G36*
X390000D02*
X376084Y1806266D01*
X363116Y1800894D01*
X351981Y1792350D01*
X343436Y1781214D01*
X338065Y1768247D01*
X336233Y1754331D01*
X338065Y1740415D01*
X343436Y1727447D01*
X351981Y1716312D01*
X363116Y1707767D01*
X376084Y1702396D01*
X390000Y1700564D01*
X403916Y1702396D01*
X416884Y1707767D01*
X428019Y1716312D01*
X436564Y1727447D01*
X441935Y1740415D01*
X443767Y1754331D01*
X441935Y1768247D01*
X436564Y1781214D01*
X428019Y1792350D01*
X416884Y1800894D01*
X403916Y1806266D01*
X390000Y1808098D01*
D02*
G37*
G36*
X880000Y1733237D02*
X870245Y1731296D01*
X861976Y1725771D01*
X856451Y1717502D01*
X854510Y1707747D01*
X856451Y1697993D01*
X861976Y1689723D01*
X870245Y1684197D01*
X880000Y1682257D01*
X889755Y1684197D01*
X898024Y1689723D01*
X903549Y1697993D01*
X905490Y1707747D01*
X903549Y1717502D01*
X898024Y1725771D01*
X889755Y1731296D01*
X880000Y1733237D01*
D02*
G37*
G36*
X1729495Y1694361D02*
X1710000D01*
Y1674866D01*
X1714755Y1675811D01*
X1723024Y1681337D01*
X1728550Y1689606D01*
X1729495Y1694361D01*
D02*
G37*
G36*
X1700000D02*
X1680505D01*
X1681451Y1689606D01*
X1686976Y1681337D01*
X1695246Y1675811D01*
X1700000Y1674866D01*
Y1694361D01*
D02*
G37*
G36*
X1440000Y1714851D02*
X1430245Y1712910D01*
X1421976Y1707385D01*
X1416450Y1699115D01*
X1414510Y1689361D01*
X1416450Y1679606D01*
X1421976Y1671337D01*
X1430245Y1665811D01*
X1440000Y1663871D01*
X1449754Y1665811D01*
X1458024Y1671337D01*
X1463549Y1679606D01*
X1465489Y1689361D01*
X1463549Y1699115D01*
X1458024Y1707385D01*
X1449754Y1712910D01*
X1440000Y1714851D01*
D02*
G37*
G36*
X606535Y1749043D02*
X592620Y1747211D01*
X579652Y1741839D01*
X568516Y1733295D01*
X559972Y1722159D01*
X554600Y1709191D01*
X552768Y1695276D01*
X554600Y1681360D01*
X559972Y1668392D01*
X568516Y1657256D01*
X579652Y1648712D01*
X592620Y1643341D01*
X606535Y1641508D01*
X620451Y1643341D01*
X633419Y1648712D01*
X644554Y1657256D01*
X653099Y1668392D01*
X658470Y1681360D01*
X660303Y1695276D01*
X658470Y1709191D01*
X653099Y1722159D01*
X644554Y1733295D01*
X633419Y1741839D01*
X620451Y1747211D01*
X606535Y1749043D01*
D02*
G37*
G36*
X488425D02*
X474509Y1747211D01*
X461542Y1741839D01*
X450406Y1733295D01*
X441861Y1722159D01*
X436490Y1709191D01*
X434658Y1695276D01*
X436490Y1681360D01*
X441861Y1668392D01*
X450406Y1657256D01*
X461542Y1648712D01*
X474509Y1643341D01*
X488425Y1641508D01*
X502341Y1643341D01*
X515309Y1648712D01*
X526444Y1657256D01*
X534989Y1668392D01*
X540360Y1681360D01*
X542192Y1695276D01*
X540360Y1709191D01*
X534989Y1722159D01*
X526444Y1733295D01*
X515309Y1741839D01*
X502341Y1747211D01*
X488425Y1749043D01*
D02*
G37*
G36*
X704961Y1689988D02*
X691045Y1688156D01*
X678077Y1682784D01*
X666942Y1674240D01*
X658397Y1663104D01*
X653026Y1650136D01*
X651193Y1636220D01*
X653026Y1622305D01*
X658397Y1609337D01*
X666942Y1598201D01*
X678077Y1589657D01*
X691045Y1584285D01*
X704961Y1582453D01*
X718876Y1584285D01*
X731844Y1589657D01*
X742980Y1598201D01*
X751524Y1609337D01*
X756896Y1622305D01*
X758728Y1636220D01*
X756896Y1650136D01*
X751524Y1663104D01*
X742980Y1674240D01*
X731844Y1682784D01*
X718876Y1688156D01*
X704961Y1689988D01*
D02*
G37*
G36*
X390000D02*
X376084Y1688156D01*
X363116Y1682784D01*
X351981Y1674240D01*
X343436Y1663104D01*
X338065Y1650136D01*
X336233Y1636220D01*
X338065Y1622305D01*
X343436Y1609337D01*
X351981Y1598201D01*
X363116Y1589657D01*
X376084Y1584285D01*
X390000Y1582453D01*
X403916Y1584285D01*
X416884Y1589657D01*
X428019Y1598201D01*
X436564Y1609337D01*
X441935Y1622305D01*
X443767Y1636220D01*
X441935Y1650136D01*
X436564Y1663104D01*
X428019Y1674240D01*
X416884Y1682784D01*
X403916Y1688156D01*
X390000Y1689988D01*
D02*
G37*
G36*
X2671542Y1593271D02*
Y1573775D01*
X2691037D01*
X2690091Y1578530D01*
X2684566Y1586799D01*
X2676296Y1592325D01*
X2671542Y1593271D01*
D02*
G37*
G36*
X2661542D02*
X2656787Y1592325D01*
X2648518Y1586799D01*
X2642992Y1578530D01*
X2642046Y1573775D01*
X2661542D01*
Y1593271D01*
D02*
G37*
G36*
X1734692Y1674857D02*
X1724938Y1672916D01*
X1716668Y1667391D01*
X1711143Y1659121D01*
X1709202Y1649367D01*
X1711143Y1639612D01*
X1716668Y1631343D01*
X1722968Y1627133D01*
X1721912Y1621825D01*
X1715759Y1620602D01*
X1707489Y1615076D01*
X1701964Y1606807D01*
X1700023Y1597052D01*
X1701964Y1587298D01*
X1707489Y1579028D01*
X1715759Y1573503D01*
X1725513Y1571562D01*
X1735268Y1573503D01*
X1743537Y1579028D01*
X1749063Y1587298D01*
X1751003Y1597052D01*
X1749063Y1606807D01*
X1743537Y1615076D01*
X1737238Y1619285D01*
X1738294Y1624593D01*
X1744447Y1625817D01*
X1752716Y1631343D01*
X1758242Y1639612D01*
X1760182Y1649367D01*
X1758242Y1659121D01*
X1752716Y1667391D01*
X1744447Y1672916D01*
X1734692Y1674857D01*
D02*
G37*
G36*
X3096457Y1601229D02*
X3086702Y1599289D01*
X3078433Y1593764D01*
X3072907Y1585494D01*
X3070967Y1575740D01*
X3072907Y1565985D01*
X3078433Y1557716D01*
X3086702Y1552190D01*
X3096457Y1550250D01*
X3106211Y1552190D01*
X3114481Y1557716D01*
X3120006Y1565985D01*
X3121947Y1575740D01*
X3120006Y1585494D01*
X3114481Y1593764D01*
X3106211Y1599289D01*
X3096457Y1601229D01*
D02*
G37*
G36*
X2953228Y1595962D02*
X2943474Y1594022D01*
X2935204Y1588496D01*
X2929679Y1580227D01*
X2927739Y1570472D01*
X2929679Y1560718D01*
X2935204Y1552448D01*
X2943474Y1546923D01*
X2953228Y1544983D01*
X2962983Y1546923D01*
X2971252Y1552448D01*
X2976778Y1560718D01*
X2978718Y1570472D01*
X2976778Y1580227D01*
X2971252Y1588496D01*
X2962983Y1594022D01*
X2953228Y1595962D01*
D02*
G37*
G36*
X2691037Y1563775D02*
X2671542D01*
Y1544280D01*
X2676296Y1545226D01*
X2684566Y1550751D01*
X2690091Y1559021D01*
X2691037Y1563775D01*
D02*
G37*
G36*
X2661542D02*
X2642046D01*
X2642992Y1559021D01*
X2648518Y1550751D01*
X2656787Y1545226D01*
X2661542Y1544280D01*
Y1563775D01*
D02*
G37*
G36*
X1450000Y1593083D02*
X1440245Y1591143D01*
X1431976Y1585618D01*
X1426450Y1577348D01*
X1424510Y1567594D01*
X1426450Y1557839D01*
X1431976Y1549570D01*
X1440245Y1544044D01*
X1450000Y1542104D01*
X1459754Y1544044D01*
X1468024Y1549570D01*
X1473549Y1557839D01*
X1475489Y1567594D01*
X1473549Y1577348D01*
X1468024Y1585618D01*
X1459754Y1591143D01*
X1450000Y1593083D01*
D02*
G37*
G36*
X1665513Y1582612D02*
X1655759Y1580671D01*
X1647489Y1575146D01*
X1641964Y1566876D01*
X1640023Y1557122D01*
X1641964Y1547367D01*
X1647489Y1539098D01*
X1655759Y1533572D01*
X1665513Y1531632D01*
X1675268Y1533572D01*
X1683537Y1539098D01*
X1689063Y1547367D01*
X1691003Y1557122D01*
X1689063Y1566876D01*
X1683537Y1575146D01*
X1675268Y1580671D01*
X1665513Y1582612D01*
D02*
G37*
G36*
X606535Y1630932D02*
X592620Y1629100D01*
X579652Y1623729D01*
X568516Y1615184D01*
X559972Y1604049D01*
X554600Y1591081D01*
X552768Y1577165D01*
X554600Y1563249D01*
X559972Y1550282D01*
X568516Y1539146D01*
X579652Y1530602D01*
X592620Y1525230D01*
X606535Y1523398D01*
X620451Y1525230D01*
X633419Y1530602D01*
X644554Y1539146D01*
X653099Y1550282D01*
X658470Y1563249D01*
X660303Y1577165D01*
X658470Y1591081D01*
X653099Y1604049D01*
X644554Y1615184D01*
X633419Y1623729D01*
X620451Y1629100D01*
X606535Y1630932D01*
D02*
G37*
G36*
X488425D02*
X474509Y1629100D01*
X461542Y1623729D01*
X450406Y1615184D01*
X441861Y1604049D01*
X436490Y1591081D01*
X434658Y1577165D01*
X436490Y1563249D01*
X441861Y1550282D01*
X450406Y1539146D01*
X461542Y1530602D01*
X474509Y1525230D01*
X488425Y1523398D01*
X502341Y1525230D01*
X515309Y1530602D01*
X526444Y1539146D01*
X534989Y1550282D01*
X540360Y1563249D01*
X542192Y1577165D01*
X540360Y1591081D01*
X534989Y1604049D01*
X526444Y1615184D01*
X515309Y1623729D01*
X502341Y1629100D01*
X488425Y1630932D01*
D02*
G37*
G36*
X3011967Y1545962D02*
X3002213Y1544022D01*
X2993943Y1538496D01*
X2988418Y1530227D01*
X2986477Y1520472D01*
X2988418Y1510718D01*
X2993943Y1502448D01*
X3002213Y1496923D01*
X3011967Y1494983D01*
X3021722Y1496923D01*
X3029991Y1502448D01*
X3035517Y1510718D01*
X3037457Y1520472D01*
X3035517Y1530227D01*
X3029991Y1538496D01*
X3021722Y1544022D01*
X3011967Y1545962D01*
D02*
G37*
G36*
X1715000Y1508856D02*
Y1489361D01*
X1734495D01*
X1733550Y1494115D01*
X1728024Y1502385D01*
X1719755Y1507910D01*
X1715000Y1508856D01*
D02*
G37*
G36*
X1705000D02*
X1700246Y1507910D01*
X1691976Y1502385D01*
X1686451Y1494115D01*
X1685505Y1489361D01*
X1705000D01*
Y1508856D01*
D02*
G37*
G36*
X3173228Y1534941D02*
X3165479Y1533921D01*
X3158258Y1530930D01*
X3152057Y1526172D01*
X3147299Y1519971D01*
X3144307Y1512749D01*
X3143287Y1505000D01*
X3144307Y1497251D01*
X3147299Y1490029D01*
X3152057Y1483828D01*
X3158258Y1479070D01*
X3165479Y1476079D01*
X3173228Y1475059D01*
X3180978Y1476079D01*
X3188199Y1479070D01*
X3194400Y1483828D01*
X3199158Y1490029D01*
X3202149Y1497251D01*
X3203170Y1505000D01*
X3202149Y1512749D01*
X3199158Y1519971D01*
X3194400Y1526172D01*
X3188199Y1530930D01*
X3180978Y1533921D01*
X3173228Y1534941D01*
D02*
G37*
G36*
X704961Y1571877D02*
X691045Y1570045D01*
X678077Y1564674D01*
X666942Y1556129D01*
X658397Y1544994D01*
X653026Y1532026D01*
X651193Y1518110D01*
X653026Y1504194D01*
X658397Y1491227D01*
X666942Y1480091D01*
X678077Y1471546D01*
X691045Y1466175D01*
X704961Y1464343D01*
X718876Y1466175D01*
X731844Y1471546D01*
X742980Y1480091D01*
X751524Y1491227D01*
X756896Y1504194D01*
X758728Y1518110D01*
X756896Y1532026D01*
X751524Y1544994D01*
X742980Y1556129D01*
X731844Y1564674D01*
X718876Y1570045D01*
X704961Y1571877D01*
D02*
G37*
G36*
X390000D02*
X376084Y1570045D01*
X363116Y1564674D01*
X351981Y1556129D01*
X343436Y1544994D01*
X338065Y1532026D01*
X336233Y1518110D01*
X338065Y1504194D01*
X343436Y1491227D01*
X351981Y1480091D01*
X363116Y1471546D01*
X376084Y1466175D01*
X390000Y1464343D01*
X403916Y1466175D01*
X416884Y1471546D01*
X428019Y1480091D01*
X436564Y1491227D01*
X441935Y1504194D01*
X443767Y1518110D01*
X441935Y1532026D01*
X436564Y1544994D01*
X428019Y1556129D01*
X416884Y1564674D01*
X403916Y1570045D01*
X390000Y1571877D01*
D02*
G37*
G36*
X1734495Y1479361D02*
X1715000D01*
Y1459866D01*
X1719755Y1460811D01*
X1728024Y1466337D01*
X1733550Y1474606D01*
X1734495Y1479361D01*
D02*
G37*
G36*
X1705000D02*
X1685505D01*
X1686451Y1474606D01*
X1691976Y1466337D01*
X1700246Y1460811D01*
X1705000Y1459866D01*
Y1479361D01*
D02*
G37*
G36*
X1445000Y1499851D02*
X1435245Y1497910D01*
X1426976Y1492385D01*
X1421450Y1484115D01*
X1419510Y1474361D01*
X1421450Y1464606D01*
X1426976Y1456337D01*
X1435245Y1450811D01*
X1445000Y1448871D01*
X1454754Y1450811D01*
X1463024Y1456337D01*
X1468549Y1464606D01*
X1470489Y1474361D01*
X1468549Y1484115D01*
X1463024Y1492385D01*
X1454754Y1497910D01*
X1445000Y1499851D01*
D02*
G37*
G36*
X2607486Y1480840D02*
X2597732Y1478900D01*
X2589463Y1473374D01*
X2583937Y1465105D01*
X2581997Y1455351D01*
X2583937Y1445596D01*
X2589463Y1437326D01*
X2597732Y1431801D01*
X2607486Y1429861D01*
X2617241Y1431801D01*
X2625510Y1437326D01*
X2631036Y1445596D01*
X2632976Y1455351D01*
X2631036Y1465105D01*
X2625510Y1473374D01*
X2617241Y1478900D01*
X2607486Y1480840D01*
D02*
G37*
G36*
X606535Y1512822D02*
X592620Y1510990D01*
X579652Y1505619D01*
X568516Y1497074D01*
X559972Y1485939D01*
X554600Y1472971D01*
X552768Y1459055D01*
X554600Y1445139D01*
X559972Y1432171D01*
X568516Y1421036D01*
X579652Y1412491D01*
X592620Y1407120D01*
X606535Y1405288D01*
X620451Y1407120D01*
X633419Y1412491D01*
X644554Y1421036D01*
X653099Y1432171D01*
X658470Y1445139D01*
X660303Y1459055D01*
X658470Y1472971D01*
X653099Y1485939D01*
X644554Y1497074D01*
X633419Y1505619D01*
X620451Y1510990D01*
X606535Y1512822D01*
D02*
G37*
G36*
X488425D02*
X474509Y1510990D01*
X461542Y1505619D01*
X450406Y1497074D01*
X441861Y1485939D01*
X436490Y1472971D01*
X434658Y1459055D01*
X436490Y1445139D01*
X441861Y1432171D01*
X450406Y1421036D01*
X461542Y1412491D01*
X474509Y1407120D01*
X488425Y1405288D01*
X502341Y1407120D01*
X515309Y1412491D01*
X526444Y1421036D01*
X534989Y1432171D01*
X540360Y1445139D01*
X542192Y1459055D01*
X540360Y1472971D01*
X534989Y1485939D01*
X526444Y1497074D01*
X515309Y1505619D01*
X502341Y1510990D01*
X488425Y1512822D01*
D02*
G37*
G36*
X1739692Y1459857D02*
X1729938Y1457916D01*
X1721668Y1452391D01*
X1716143Y1444121D01*
X1714202Y1434367D01*
X1716143Y1424612D01*
X1721668Y1416343D01*
X1727968Y1412133D01*
X1726912Y1406825D01*
X1720759Y1405602D01*
X1712489Y1400076D01*
X1706964Y1391807D01*
X1705023Y1382052D01*
X1706964Y1372298D01*
X1712489Y1364028D01*
X1720759Y1358503D01*
X1730513Y1356562D01*
X1740268Y1358503D01*
X1748537Y1364028D01*
X1754063Y1372298D01*
X1756003Y1382052D01*
X1754063Y1391807D01*
X1748537Y1400076D01*
X1742238Y1404285D01*
X1743294Y1409593D01*
X1749447Y1410817D01*
X1757716Y1416343D01*
X1763242Y1424612D01*
X1765182Y1434367D01*
X1763242Y1444121D01*
X1757716Y1452391D01*
X1749447Y1457916D01*
X1739692Y1459857D01*
D02*
G37*
G36*
X704961Y1453767D02*
X691045Y1451935D01*
X678077Y1446564D01*
X666942Y1438019D01*
X658397Y1426884D01*
X653026Y1413916D01*
X651193Y1400000D01*
X653026Y1386084D01*
X658397Y1373116D01*
X666942Y1361981D01*
X678077Y1353436D01*
X691045Y1348065D01*
X704961Y1346233D01*
X718876Y1348065D01*
X731844Y1353436D01*
X742980Y1361981D01*
X751524Y1373116D01*
X756896Y1386084D01*
X758728Y1400000D01*
X756896Y1413916D01*
X751524Y1426884D01*
X742980Y1438019D01*
X731844Y1446564D01*
X718876Y1451935D01*
X704961Y1453767D01*
D02*
G37*
G36*
X390000D02*
X376084Y1451935D01*
X363116Y1446564D01*
X351981Y1438019D01*
X343436Y1426884D01*
X338065Y1413916D01*
X336233Y1400000D01*
X338065Y1386084D01*
X343436Y1373116D01*
X351981Y1361981D01*
X363116Y1353436D01*
X376084Y1348065D01*
X390000Y1346233D01*
X403916Y1348065D01*
X416884Y1353436D01*
X428019Y1361981D01*
X436564Y1373116D01*
X441935Y1386084D01*
X443767Y1400000D01*
X441935Y1413916D01*
X436564Y1426884D01*
X428019Y1438019D01*
X416884Y1446564D01*
X403916Y1451935D01*
X390000Y1453767D01*
D02*
G37*
G36*
X3445000Y1406277D02*
X3435245Y1404337D01*
X3426976Y1398811D01*
X3421450Y1390542D01*
X3419510Y1380787D01*
X3421450Y1371033D01*
X3426976Y1362763D01*
X3433848Y1358172D01*
X3434067Y1357446D01*
Y1353341D01*
X3433848Y1352616D01*
X3426976Y1348024D01*
X3421450Y1339755D01*
X3420505Y1335000D01*
X3469495D01*
X3468550Y1339755D01*
X3463024Y1348024D01*
X3456152Y1352616D01*
X3455933Y1353341D01*
Y1357446D01*
X3456152Y1358172D01*
X3463024Y1362763D01*
X3468550Y1371033D01*
X3470490Y1380787D01*
X3468550Y1390542D01*
X3463024Y1398811D01*
X3454755Y1404337D01*
X3445000Y1406277D01*
D02*
G37*
G36*
X1455000Y1378083D02*
X1445245Y1376143D01*
X1436976Y1370618D01*
X1431450Y1362348D01*
X1429510Y1352594D01*
X1431450Y1342839D01*
X1436976Y1334570D01*
X1445245Y1329044D01*
X1455000Y1327104D01*
X1464754Y1329044D01*
X1473024Y1334570D01*
X1478549Y1342839D01*
X1480489Y1352594D01*
X1478549Y1362348D01*
X1473024Y1370618D01*
X1464754Y1376143D01*
X1455000Y1378083D01*
D02*
G37*
G36*
X3173228Y1384941D02*
X3165479Y1383921D01*
X3158258Y1380930D01*
X3152057Y1376172D01*
X3147299Y1369971D01*
X3144307Y1362749D01*
X3143287Y1355000D01*
X3144307Y1347251D01*
X3147299Y1340029D01*
X3152057Y1333828D01*
X3158258Y1329070D01*
X3165479Y1326079D01*
X3173228Y1325059D01*
X3180978Y1326079D01*
X3188199Y1329070D01*
X3194400Y1333828D01*
X3199158Y1340029D01*
X3202149Y1347251D01*
X3203170Y1355000D01*
X3202149Y1362749D01*
X3199158Y1369971D01*
X3194400Y1376172D01*
X3188199Y1380930D01*
X3180978Y1383921D01*
X3173228Y1384941D01*
D02*
G37*
G36*
X3013701Y1415962D02*
X3003946Y1414022D01*
X2995677Y1408496D01*
X2990151Y1400227D01*
X2988211Y1390472D01*
X2990151Y1380718D01*
X2990310Y1380480D01*
X2988009Y1374924D01*
X2983474Y1374022D01*
X2975204Y1368496D01*
X2969679Y1360227D01*
X2967739Y1350472D01*
X2969679Y1340718D01*
X2975204Y1332448D01*
X2983474Y1326923D01*
X2993228Y1324983D01*
X3002983Y1326923D01*
X3011252Y1332448D01*
X3016778Y1340718D01*
X3018718Y1350472D01*
X3016778Y1360227D01*
X3016619Y1360465D01*
X3018920Y1366021D01*
X3023455Y1366923D01*
X3031725Y1372448D01*
X3037250Y1380718D01*
X3039191Y1390472D01*
X3037250Y1400227D01*
X3031725Y1408496D01*
X3023455Y1414022D01*
X3013701Y1415962D01*
D02*
G37*
G36*
X1670513Y1367612D02*
X1660759Y1365671D01*
X1652489Y1360146D01*
X1646964Y1351876D01*
X1645023Y1342122D01*
X1646964Y1332367D01*
X1652489Y1324098D01*
X1660759Y1318572D01*
X1670513Y1316632D01*
X1680268Y1318572D01*
X1688537Y1324098D01*
X1694063Y1332367D01*
X1696003Y1342122D01*
X1694063Y1351876D01*
X1688537Y1360146D01*
X1680268Y1365671D01*
X1670513Y1367612D01*
D02*
G37*
G36*
X3469495Y1325000D02*
X3450000D01*
Y1305505D01*
X3454755Y1306450D01*
X3463024Y1311976D01*
X3468550Y1320245D01*
X3469495Y1325000D01*
D02*
G37*
G36*
X3440000D02*
X3420505D01*
X3421450Y1320245D01*
X3426976Y1311976D01*
X3435245Y1306450D01*
X3440000Y1305505D01*
Y1325000D01*
D02*
G37*
G36*
X606535Y1394712D02*
X592620Y1392880D01*
X579652Y1387509D01*
X568516Y1378964D01*
X559972Y1367829D01*
X554600Y1354861D01*
X552768Y1340945D01*
X554600Y1327029D01*
X559972Y1314061D01*
X568516Y1302926D01*
X579652Y1294381D01*
X592620Y1289010D01*
X606535Y1287178D01*
X620451Y1289010D01*
X633419Y1294381D01*
X644554Y1302926D01*
X653099Y1314061D01*
X658470Y1327029D01*
X660303Y1340945D01*
X658470Y1354861D01*
X653099Y1367829D01*
X644554Y1378964D01*
X633419Y1387509D01*
X620451Y1392880D01*
X606535Y1394712D01*
D02*
G37*
G36*
X488425D02*
X474509Y1392880D01*
X461542Y1387509D01*
X450406Y1378964D01*
X441861Y1367829D01*
X436490Y1354861D01*
X434658Y1340945D01*
X436490Y1327029D01*
X441861Y1314061D01*
X450406Y1302926D01*
X461542Y1294381D01*
X474509Y1289010D01*
X488425Y1287178D01*
X502341Y1289010D01*
X515309Y1294381D01*
X526444Y1302926D01*
X534989Y1314061D01*
X540360Y1327029D01*
X542192Y1340945D01*
X540360Y1354861D01*
X534989Y1367829D01*
X526444Y1378964D01*
X515309Y1387509D01*
X502341Y1392880D01*
X488425Y1394712D01*
D02*
G37*
G36*
X1710000Y1298856D02*
Y1279361D01*
X1729495D01*
X1728550Y1284115D01*
X1723024Y1292385D01*
X1714755Y1297910D01*
X1710000Y1298856D01*
D02*
G37*
G36*
X1700000D02*
X1695246Y1297910D01*
X1686976Y1292385D01*
X1681451Y1284115D01*
X1680505Y1279361D01*
X1700000D01*
Y1298856D01*
D02*
G37*
G36*
X2680000Y1277330D02*
Y1257835D01*
X2699495D01*
X2698550Y1262589D01*
X2693024Y1270859D01*
X2684755Y1276384D01*
X2680000Y1277330D01*
D02*
G37*
G36*
X2670000D02*
X2665245Y1276384D01*
X2656976Y1270859D01*
X2651450Y1262589D01*
X2650505Y1257835D01*
X2670000D01*
Y1277330D01*
D02*
G37*
G36*
X1729495Y1269361D02*
X1710000D01*
Y1249866D01*
X1714755Y1250811D01*
X1723024Y1256337D01*
X1728550Y1264606D01*
X1729495Y1269361D01*
D02*
G37*
G36*
X1700000D02*
X1680505D01*
X1681451Y1264606D01*
X1686976Y1256337D01*
X1695246Y1250811D01*
X1700000Y1249866D01*
Y1269361D01*
D02*
G37*
G36*
X1440000Y1289851D02*
X1430245Y1287910D01*
X1421976Y1282385D01*
X1416450Y1274115D01*
X1414510Y1264361D01*
X1416450Y1254606D01*
X1421976Y1246337D01*
X1430245Y1240811D01*
X1440000Y1238871D01*
X1449754Y1240811D01*
X1458024Y1246337D01*
X1463549Y1254606D01*
X1465489Y1264361D01*
X1463549Y1274115D01*
X1458024Y1282385D01*
X1449754Y1287910D01*
X1440000Y1289851D01*
D02*
G37*
G36*
X2699495Y1247835D02*
X2680000D01*
Y1228340D01*
X2684755Y1229285D01*
X2693024Y1234811D01*
X2698550Y1243080D01*
X2699495Y1247835D01*
D02*
G37*
G36*
X2670000D02*
X2650505D01*
X2651450Y1243080D01*
X2656976Y1234811D01*
X2665245Y1229285D01*
X2670000Y1228340D01*
Y1247835D01*
D02*
G37*
G36*
X704961Y1335657D02*
X691045Y1333825D01*
X678077Y1328453D01*
X666942Y1319909D01*
X658397Y1308773D01*
X653026Y1295806D01*
X651193Y1281890D01*
X653026Y1267974D01*
X658397Y1255006D01*
X666942Y1243871D01*
X678077Y1235326D01*
X691045Y1229955D01*
X704961Y1228123D01*
X718876Y1229955D01*
X731844Y1235326D01*
X742980Y1243871D01*
X751524Y1255006D01*
X756896Y1267974D01*
X758728Y1281890D01*
X756896Y1295806D01*
X751524Y1308773D01*
X742980Y1319909D01*
X731844Y1328453D01*
X718876Y1333825D01*
X704961Y1335657D01*
D02*
G37*
G36*
X390000D02*
X376084Y1333825D01*
X363116Y1328453D01*
X351981Y1319909D01*
X343436Y1308773D01*
X338065Y1295806D01*
X336233Y1281890D01*
X338065Y1267974D01*
X343436Y1255006D01*
X351981Y1243871D01*
X363116Y1235326D01*
X376084Y1229955D01*
X390000Y1228123D01*
X403916Y1229955D01*
X416884Y1235326D01*
X428019Y1243871D01*
X436564Y1255006D01*
X441935Y1267974D01*
X443767Y1281890D01*
X441935Y1295806D01*
X436564Y1308773D01*
X428019Y1319909D01*
X416884Y1328453D01*
X403916Y1333825D01*
X390000Y1335657D01*
D02*
G37*
G36*
X2615098Y1277419D02*
X2605344Y1275479D01*
X2597074Y1269953D01*
X2591549Y1261684D01*
X2589609Y1251929D01*
X2591549Y1242175D01*
X2597074Y1233905D01*
X2605344Y1228380D01*
X2615098Y1226439D01*
X2624853Y1228380D01*
X2633122Y1233905D01*
X2638648Y1242175D01*
X2640588Y1251929D01*
X2638648Y1261684D01*
X2633122Y1269953D01*
X2624853Y1275479D01*
X2615098Y1277419D01*
D02*
G37*
G36*
X606535Y1276602D02*
X592620Y1274770D01*
X579652Y1269398D01*
X568516Y1260854D01*
X559972Y1249718D01*
X554600Y1236751D01*
X552768Y1222835D01*
X554600Y1208919D01*
X559972Y1195951D01*
X568516Y1184815D01*
X579652Y1176271D01*
X592620Y1170900D01*
X606535Y1169068D01*
X620451Y1170900D01*
X633419Y1176271D01*
X644554Y1184815D01*
X653099Y1195951D01*
X658470Y1208919D01*
X660303Y1222835D01*
X658470Y1236751D01*
X653099Y1249718D01*
X644554Y1260854D01*
X633419Y1269398D01*
X620451Y1274770D01*
X606535Y1276602D01*
D02*
G37*
G36*
X488425D02*
X474509Y1274770D01*
X461542Y1269398D01*
X450406Y1260854D01*
X441861Y1249718D01*
X436490Y1236751D01*
X434658Y1222835D01*
X436490Y1208919D01*
X441861Y1195951D01*
X450406Y1184815D01*
X461542Y1176271D01*
X474509Y1170900D01*
X488425Y1169068D01*
X502341Y1170900D01*
X515309Y1176271D01*
X526444Y1184815D01*
X534989Y1195951D01*
X540360Y1208919D01*
X542192Y1222835D01*
X540360Y1236751D01*
X534989Y1249718D01*
X526444Y1260854D01*
X515309Y1269398D01*
X502341Y1274770D01*
X488425Y1276602D01*
D02*
G37*
G36*
X1734692Y1249857D02*
X1724938Y1247916D01*
X1716668Y1242391D01*
X1711143Y1234121D01*
X1709202Y1224367D01*
X1711143Y1214612D01*
X1716668Y1206343D01*
X1722968Y1202133D01*
X1721912Y1196825D01*
X1715759Y1195602D01*
X1707489Y1190076D01*
X1701964Y1181807D01*
X1700023Y1172052D01*
X1701964Y1162298D01*
X1707489Y1154028D01*
X1715759Y1148503D01*
X1725513Y1146562D01*
X1735268Y1148503D01*
X1743537Y1154028D01*
X1749063Y1162298D01*
X1751003Y1172052D01*
X1749063Y1181807D01*
X1743537Y1190076D01*
X1737238Y1194285D01*
X1738294Y1199593D01*
X1744447Y1200817D01*
X1752716Y1206343D01*
X1758242Y1214612D01*
X1760182Y1224367D01*
X1758242Y1234121D01*
X1752716Y1242391D01*
X1744447Y1247916D01*
X1734692Y1249857D01*
D02*
G37*
G36*
X1450000Y1168083D02*
X1440245Y1166143D01*
X1431976Y1160618D01*
X1426450Y1152348D01*
X1424510Y1142594D01*
X1426450Y1132839D01*
X1431976Y1124570D01*
X1440245Y1119044D01*
X1450000Y1117104D01*
X1459754Y1119044D01*
X1468024Y1124570D01*
X1473549Y1132839D01*
X1475489Y1142594D01*
X1473549Y1152348D01*
X1468024Y1160618D01*
X1459754Y1166143D01*
X1450000Y1168083D01*
D02*
G37*
G36*
X704961Y1217547D02*
X691045Y1215715D01*
X678077Y1210343D01*
X666942Y1201799D01*
X658397Y1190663D01*
X653026Y1177695D01*
X651193Y1163780D01*
X653026Y1149864D01*
X658397Y1136896D01*
X666942Y1125760D01*
X678077Y1117216D01*
X691045Y1111844D01*
X704961Y1110012D01*
X718876Y1111844D01*
X731844Y1117216D01*
X742980Y1125760D01*
X751524Y1136896D01*
X756896Y1149864D01*
X758728Y1163780D01*
X756896Y1177695D01*
X751524Y1190663D01*
X742980Y1201799D01*
X731844Y1210343D01*
X718876Y1215715D01*
X704961Y1217547D01*
D02*
G37*
G36*
X390000D02*
X376084Y1215715D01*
X363116Y1210343D01*
X351981Y1201799D01*
X343436Y1190663D01*
X338065Y1177695D01*
X336233Y1163780D01*
X338065Y1149864D01*
X343436Y1136896D01*
X351981Y1125760D01*
X363116Y1117216D01*
X376084Y1111844D01*
X390000Y1110012D01*
X403916Y1111844D01*
X416884Y1117216D01*
X428019Y1125760D01*
X436564Y1136896D01*
X441935Y1149864D01*
X443767Y1163780D01*
X441935Y1177695D01*
X436564Y1190663D01*
X428019Y1201799D01*
X416884Y1210343D01*
X403916Y1215715D01*
X390000Y1217547D01*
D02*
G37*
G36*
X1665513Y1157612D02*
X1655759Y1155671D01*
X1647489Y1150146D01*
X1641964Y1141876D01*
X1640023Y1132122D01*
X1641964Y1122367D01*
X1647489Y1114098D01*
X1655759Y1108572D01*
X1665513Y1106632D01*
X1675268Y1108572D01*
X1683537Y1114098D01*
X1689063Y1122367D01*
X1691003Y1132122D01*
X1689063Y1141876D01*
X1683537Y1150146D01*
X1675268Y1155671D01*
X1665513Y1157612D01*
D02*
G37*
G36*
X1710000Y1083856D02*
Y1064361D01*
X1729495D01*
X1728550Y1069115D01*
X1723024Y1077385D01*
X1714755Y1082910D01*
X1710000Y1083856D01*
D02*
G37*
G36*
X1700000D02*
X1695246Y1082910D01*
X1686976Y1077385D01*
X1681451Y1069115D01*
X1680505Y1064361D01*
X1700000D01*
Y1083856D01*
D02*
G37*
G36*
X606535Y1158492D02*
X592620Y1156659D01*
X579652Y1151288D01*
X568516Y1142744D01*
X559972Y1131608D01*
X554600Y1118640D01*
X552768Y1104724D01*
X554600Y1090809D01*
X559972Y1077841D01*
X568516Y1066705D01*
X579652Y1058161D01*
X592620Y1052789D01*
X606535Y1050957D01*
X620451Y1052789D01*
X633419Y1058161D01*
X644554Y1066705D01*
X653099Y1077841D01*
X658470Y1090809D01*
X660303Y1104724D01*
X658470Y1118640D01*
X653099Y1131608D01*
X644554Y1142744D01*
X633419Y1151288D01*
X620451Y1156659D01*
X606535Y1158492D01*
D02*
G37*
G36*
X488425D02*
X474509Y1156659D01*
X461542Y1151288D01*
X450406Y1142744D01*
X441861Y1131608D01*
X436490Y1118640D01*
X434658Y1104724D01*
X436490Y1090809D01*
X441861Y1077841D01*
X450406Y1066705D01*
X461542Y1058161D01*
X474509Y1052789D01*
X488425Y1050957D01*
X502341Y1052789D01*
X515309Y1058161D01*
X526444Y1066705D01*
X534989Y1077841D01*
X540360Y1090809D01*
X542192Y1104724D01*
X540360Y1118640D01*
X534989Y1131608D01*
X526444Y1142744D01*
X515309Y1151288D01*
X502341Y1156659D01*
X488425Y1158492D01*
D02*
G37*
G36*
X1729495Y1054361D02*
X1710000D01*
Y1034866D01*
X1714755Y1035811D01*
X1723024Y1041337D01*
X1728550Y1049606D01*
X1729495Y1054361D01*
D02*
G37*
G36*
X1700000D02*
X1680505D01*
X1681451Y1049606D01*
X1686976Y1041337D01*
X1695246Y1035811D01*
X1700000Y1034866D01*
Y1054361D01*
D02*
G37*
G36*
X1440000Y1074851D02*
X1430245Y1072910D01*
X1421976Y1067385D01*
X1416450Y1059115D01*
X1414510Y1049361D01*
X1416450Y1039606D01*
X1421976Y1031337D01*
X1430245Y1025811D01*
X1440000Y1023871D01*
X1449754Y1025811D01*
X1458024Y1031337D01*
X1463549Y1039606D01*
X1465489Y1049361D01*
X1463549Y1059115D01*
X1458024Y1067385D01*
X1449754Y1072910D01*
X1440000Y1074851D01*
D02*
G37*
G36*
X704961Y1099436D02*
X691045Y1097604D01*
X678077Y1092233D01*
X666942Y1083688D01*
X658397Y1072553D01*
X653026Y1059585D01*
X651193Y1045669D01*
X653026Y1031753D01*
X658397Y1018786D01*
X666942Y1007650D01*
X678077Y999106D01*
X691045Y993734D01*
X704961Y991902D01*
X718876Y993734D01*
X731844Y999106D01*
X742980Y1007650D01*
X751524Y1018786D01*
X756896Y1031753D01*
X758728Y1045669D01*
X756896Y1059585D01*
X751524Y1072553D01*
X742980Y1083688D01*
X731844Y1092233D01*
X718876Y1097604D01*
X704961Y1099436D01*
D02*
G37*
G36*
X390000D02*
X376084Y1097604D01*
X363116Y1092233D01*
X351981Y1083688D01*
X343436Y1072553D01*
X338065Y1059585D01*
X336233Y1045669D01*
X338065Y1031753D01*
X343436Y1018786D01*
X351981Y1007650D01*
X363116Y999106D01*
X376084Y993734D01*
X390000Y991902D01*
X403916Y993734D01*
X416884Y999106D01*
X428019Y1007650D01*
X436564Y1018786D01*
X441935Y1031753D01*
X443767Y1045669D01*
X441935Y1059585D01*
X436564Y1072553D01*
X428019Y1083688D01*
X416884Y1092233D01*
X403916Y1097604D01*
X390000Y1099436D01*
D02*
G37*
G36*
X606535Y1040381D02*
X592620Y1038549D01*
X579652Y1033178D01*
X568516Y1024633D01*
X559972Y1013498D01*
X554600Y1000530D01*
X552768Y986614D01*
X554600Y972698D01*
X559972Y959731D01*
X568516Y948595D01*
X579652Y940051D01*
X592620Y934679D01*
X606535Y932847D01*
X620451Y934679D01*
X633419Y940051D01*
X644554Y948595D01*
X653099Y959731D01*
X658470Y972698D01*
X660303Y986614D01*
X658470Y1000530D01*
X653099Y1013498D01*
X644554Y1024633D01*
X633419Y1033178D01*
X620451Y1038549D01*
X606535Y1040381D01*
D02*
G37*
G36*
X488425D02*
X474509Y1038549D01*
X461542Y1033178D01*
X450406Y1024633D01*
X441861Y1013498D01*
X436490Y1000530D01*
X434658Y986614D01*
X436490Y972698D01*
X441861Y959731D01*
X450406Y948595D01*
X461542Y940051D01*
X474509Y934679D01*
X488425Y932847D01*
X502341Y934679D01*
X515309Y940051D01*
X526444Y948595D01*
X534989Y959731D01*
X540360Y972698D01*
X542192Y986614D01*
X540360Y1000530D01*
X534989Y1013498D01*
X526444Y1024633D01*
X515309Y1033178D01*
X502341Y1038549D01*
X488425Y1040381D01*
D02*
G37*
G36*
X1734692Y1034857D02*
X1724938Y1032916D01*
X1716668Y1027391D01*
X1711143Y1019121D01*
X1709202Y1009367D01*
X1711143Y999612D01*
X1716668Y991343D01*
X1722968Y987134D01*
X1721912Y981826D01*
X1715759Y980602D01*
X1707489Y975076D01*
X1701964Y966807D01*
X1700023Y957052D01*
X1701964Y947298D01*
X1707489Y939028D01*
X1715759Y933503D01*
X1725513Y931562D01*
X1735268Y933503D01*
X1743537Y939028D01*
X1749063Y947298D01*
X1751003Y957052D01*
X1749063Y966807D01*
X1743537Y975076D01*
X1737238Y979285D01*
X1738294Y984593D01*
X1744447Y985817D01*
X1752716Y991343D01*
X1758242Y999612D01*
X1760182Y1009367D01*
X1758242Y1019121D01*
X1752716Y1027391D01*
X1744447Y1032916D01*
X1734692Y1034857D01*
D02*
G37*
G36*
X1450000Y953083D02*
X1440245Y951143D01*
X1431976Y945618D01*
X1426450Y937348D01*
X1424510Y927594D01*
X1426450Y917839D01*
X1431976Y909570D01*
X1440245Y904044D01*
X1450000Y902104D01*
X1459754Y904044D01*
X1468024Y909570D01*
X1473549Y917839D01*
X1475489Y927594D01*
X1473549Y937348D01*
X1468024Y945618D01*
X1459754Y951143D01*
X1450000Y953083D01*
D02*
G37*
G36*
X1665513Y942612D02*
X1655759Y940671D01*
X1647489Y935146D01*
X1641964Y926876D01*
X1640023Y917122D01*
X1641964Y907367D01*
X1647489Y899098D01*
X1655759Y893572D01*
X1665513Y891632D01*
X1675268Y893572D01*
X1683537Y899098D01*
X1689063Y907367D01*
X1691003Y917122D01*
X1689063Y926876D01*
X1683537Y935146D01*
X1675268Y940671D01*
X1665513Y942612D01*
D02*
G37*
G36*
X704961Y981326D02*
X691045Y979494D01*
X678077Y974123D01*
X666942Y965578D01*
X658397Y954443D01*
X653026Y941475D01*
X651193Y927559D01*
X653026Y913643D01*
X658397Y900675D01*
X666942Y889540D01*
X678077Y880995D01*
X691045Y875624D01*
X704961Y873792D01*
X718876Y875624D01*
X731844Y880995D01*
X742980Y889540D01*
X751524Y900675D01*
X756896Y913643D01*
X758728Y927559D01*
X756896Y941475D01*
X751524Y954443D01*
X742980Y965578D01*
X731844Y974123D01*
X718876Y979494D01*
X704961Y981326D01*
D02*
G37*
G36*
X390000D02*
X376084Y979494D01*
X363116Y974123D01*
X351981Y965578D01*
X343436Y954443D01*
X338065Y941475D01*
X336233Y927559D01*
X338065Y913643D01*
X343436Y900675D01*
X351981Y889540D01*
X363116Y880995D01*
X376084Y875624D01*
X390000Y873792D01*
X403916Y875624D01*
X416884Y880995D01*
X428019Y889540D01*
X436564Y900675D01*
X441935Y913643D01*
X443767Y927559D01*
X441935Y941475D01*
X436564Y954443D01*
X428019Y965578D01*
X416884Y974123D01*
X403916Y979494D01*
X390000Y981326D01*
D02*
G37*
G36*
X3205000Y917850D02*
X3195245Y915909D01*
X3186976Y910384D01*
X3181450Y902114D01*
X3179510Y892360D01*
X3181450Y882605D01*
X3186976Y874336D01*
X3195245Y868810D01*
X3205000Y866870D01*
X3214755Y868810D01*
X3223024Y874336D01*
X3228550Y882605D01*
X3230490Y892360D01*
X3228550Y902114D01*
X3223024Y910384D01*
X3214755Y915909D01*
X3205000Y917850D01*
D02*
G37*
G36*
X1710000Y878856D02*
Y859361D01*
X1729495D01*
X1728550Y864115D01*
X1723024Y872385D01*
X1714755Y877910D01*
X1710000Y878856D01*
D02*
G37*
G36*
X1700000D02*
X1695246Y877910D01*
X1686976Y872385D01*
X1681451Y864115D01*
X1680505Y859361D01*
X1700000D01*
Y878856D01*
D02*
G37*
G36*
X1729495Y849361D02*
X1710000D01*
Y829866D01*
X1714755Y830811D01*
X1723024Y836337D01*
X1728550Y844606D01*
X1729495Y849361D01*
D02*
G37*
G36*
X1700000D02*
X1680505D01*
X1681451Y844606D01*
X1686976Y836337D01*
X1695246Y830811D01*
X1700000Y829866D01*
Y849361D01*
D02*
G37*
G36*
X1440000Y869851D02*
X1430245Y867910D01*
X1421976Y862385D01*
X1416450Y854115D01*
X1414510Y844361D01*
X1416450Y834606D01*
X1421976Y826337D01*
X1430245Y820811D01*
X1440000Y818871D01*
X1449754Y820811D01*
X1458024Y826337D01*
X1463549Y834606D01*
X1465489Y844361D01*
X1463549Y854115D01*
X1458024Y862385D01*
X1449754Y867910D01*
X1440000Y869851D01*
D02*
G37*
G36*
X3061471Y853513D02*
X3051717Y851573D01*
X3043447Y846047D01*
X3037922Y837778D01*
X3035981Y828023D01*
X3037922Y818269D01*
X3043447Y809999D01*
Y806047D01*
X3037922Y797778D01*
X3035981Y788023D01*
X3037922Y778269D01*
X3043447Y769999D01*
X3051717Y764474D01*
X3061471Y762534D01*
X3071226Y764474D01*
X3079495Y769999D01*
X3085021Y778269D01*
X3086961Y788023D01*
X3085021Y797778D01*
X3079495Y806047D01*
Y809999D01*
X3085021Y818269D01*
X3086961Y828023D01*
X3085021Y837778D01*
X3079495Y846047D01*
X3071226Y851573D01*
X3061471Y853513D01*
D02*
G37*
G36*
X3220000Y774892D02*
Y755397D01*
X3239495D01*
X3238550Y760152D01*
X3233024Y768421D01*
X3224755Y773947D01*
X3220000Y774892D01*
D02*
G37*
G36*
X3210000D02*
X3205245Y773947D01*
X3196976Y768421D01*
X3191450Y760152D01*
X3190505Y755397D01*
X3210000D01*
Y774892D01*
D02*
G37*
G36*
X2875000Y771874D02*
X2865245Y769934D01*
X2856976Y764409D01*
X2851450Y756139D01*
X2849510Y746385D01*
X2851427Y736750D01*
X2851204Y736285D01*
X2848056Y732710D01*
X2844606Y733396D01*
Y713901D01*
X2864101D01*
X2863179Y718536D01*
X2863402Y719000D01*
X2866550Y722576D01*
X2875000Y720895D01*
X2884755Y722835D01*
X2893024Y728361D01*
X2898550Y736630D01*
X2900490Y746385D01*
X2898550Y756139D01*
X2893024Y764409D01*
X2884755Y769934D01*
X2875000Y771874D01*
D02*
G37*
G36*
X1734692Y829856D02*
X1724938Y827916D01*
X1716668Y822391D01*
X1711143Y814121D01*
X1709202Y804367D01*
X1711143Y794612D01*
X1716668Y786343D01*
X1722968Y782134D01*
X1721912Y776826D01*
X1715759Y775602D01*
X1707489Y770076D01*
X1701964Y761807D01*
X1700023Y752052D01*
X1701964Y742298D01*
X1707489Y734028D01*
X1715759Y728503D01*
X1725513Y726562D01*
X1735268Y728503D01*
X1743537Y734028D01*
X1749063Y742298D01*
X1751003Y752052D01*
X1749063Y761807D01*
X1743537Y770076D01*
X1737238Y774285D01*
X1738294Y779593D01*
X1744447Y780817D01*
X1752716Y786343D01*
X1758242Y794612D01*
X1760182Y804367D01*
X1758242Y814121D01*
X1752716Y822391D01*
X1744447Y827916D01*
X1734692Y829856D01*
D02*
G37*
G36*
X3239495Y745397D02*
X3220000D01*
Y725902D01*
X3224755Y726848D01*
X3233024Y732373D01*
X3238550Y740643D01*
X3239495Y745397D01*
D02*
G37*
G36*
X3210000D02*
X3190505D01*
X3191450Y740643D01*
X3196976Y732373D01*
X3205245Y726848D01*
X3210000Y725902D01*
Y745397D01*
D02*
G37*
G36*
X2834606Y733396D02*
X2829851Y732451D01*
X2821582Y726925D01*
X2816056Y718656D01*
X2815111Y713901D01*
X2834606D01*
Y733396D01*
D02*
G37*
G36*
X1450000Y748083D02*
X1440245Y746143D01*
X1431976Y740618D01*
X1426450Y732348D01*
X1424510Y722594D01*
X1426450Y712839D01*
X1431976Y704570D01*
X1440245Y699044D01*
X1450000Y697104D01*
X1459754Y699044D01*
X1468024Y704570D01*
X1473549Y712839D01*
X1475489Y722594D01*
X1473549Y732348D01*
X1468024Y740618D01*
X1459754Y746143D01*
X1450000Y748083D01*
D02*
G37*
G36*
X1665513Y737612D02*
X1655759Y735671D01*
X1647489Y730146D01*
X1641964Y721876D01*
X1640023Y712122D01*
X1641964Y702367D01*
X1647489Y694098D01*
X1655759Y688572D01*
X1665513Y686632D01*
X1675268Y688572D01*
X1683537Y694098D01*
X1689063Y702367D01*
X1691003Y712122D01*
X1689063Y721876D01*
X1683537Y730146D01*
X1675268Y735671D01*
X1665513Y737612D01*
D02*
G37*
G36*
X2864101Y703901D02*
X2844606D01*
Y684406D01*
X2849360Y685352D01*
X2857630Y690877D01*
X2863155Y699147D01*
X2864101Y703901D01*
D02*
G37*
G36*
X2834606D02*
X2815111D01*
X2816056Y699147D01*
X2821582Y690877D01*
X2829851Y685352D01*
X2834606Y684406D01*
Y703901D01*
D02*
G37*
G36*
X2519221Y708754D02*
X2509467Y706814D01*
X2501197Y701288D01*
X2495672Y693019D01*
X2493731Y683264D01*
X2495672Y673510D01*
X2501197Y665240D01*
X2509467Y659715D01*
X2519221Y657775D01*
X2528976Y659715D01*
X2537245Y665240D01*
X2542771Y673510D01*
X2544711Y683264D01*
X2542771Y693019D01*
X2537245Y701288D01*
X2528976Y706814D01*
X2519221Y708754D01*
D02*
G37*
G36*
X1710000Y673856D02*
Y654361D01*
X1729495D01*
X1728550Y659115D01*
X1723024Y667385D01*
X1714755Y672910D01*
X1710000Y673856D01*
D02*
G37*
G36*
X1700000D02*
X1695246Y672910D01*
X1686976Y667385D01*
X1681451Y659115D01*
X1680505Y654361D01*
X1700000D01*
Y673856D01*
D02*
G37*
G36*
X2865000Y683718D02*
X2855245Y681778D01*
X2846976Y676252D01*
X2841450Y667983D01*
X2839510Y658228D01*
X2841450Y648474D01*
X2846976Y640204D01*
X2855245Y634679D01*
X2865000Y632739D01*
X2874755Y634679D01*
X2883024Y640204D01*
X2888550Y648474D01*
X2890490Y658228D01*
X2888550Y667983D01*
X2883024Y676252D01*
X2874755Y681778D01*
X2865000Y683718D01*
D02*
G37*
G36*
X1729495Y644361D02*
X1710000D01*
Y624866D01*
X1714755Y625811D01*
X1723024Y631337D01*
X1728550Y639606D01*
X1729495Y644361D01*
D02*
G37*
G36*
X1700000D02*
X1680505D01*
X1681451Y639606D01*
X1686976Y631337D01*
X1695246Y625811D01*
X1700000Y624866D01*
Y644361D01*
D02*
G37*
G36*
X2735000Y666947D02*
X2725245Y665006D01*
X2716976Y659481D01*
X2711450Y651211D01*
X2709510Y641457D01*
X2711450Y631702D01*
X2716976Y623433D01*
X2725245Y617907D01*
X2735000Y615967D01*
X2744755Y617907D01*
X2753024Y623433D01*
X2758550Y631702D01*
X2760490Y641457D01*
X2758550Y651211D01*
X2753024Y659481D01*
X2744755Y665006D01*
X2735000Y666947D01*
D02*
G37*
G36*
X1440000Y664851D02*
X1430245Y662910D01*
X1421976Y657385D01*
X1416450Y649115D01*
X1414510Y639361D01*
X1416450Y629606D01*
X1421976Y621337D01*
X1430245Y615811D01*
X1440000Y613871D01*
X1449754Y615811D01*
X1458024Y621337D01*
X1463549Y629606D01*
X1465489Y639361D01*
X1463549Y649115D01*
X1458024Y657385D01*
X1449754Y662910D01*
X1440000Y664851D01*
D02*
G37*
G36*
X3455000Y619495D02*
Y600000D01*
X3474495D01*
X3473550Y604755D01*
X3468024Y613024D01*
X3459755Y618549D01*
X3455000Y619495D01*
D02*
G37*
G36*
X3445000D02*
X3440245Y618549D01*
X3431976Y613024D01*
X3426450Y604755D01*
X3425505Y600000D01*
X3445000D01*
Y619495D01*
D02*
G37*
G36*
X3065000Y631515D02*
X3055245Y629575D01*
X3046976Y624049D01*
X3041450Y615780D01*
X3039510Y606025D01*
X3041450Y596271D01*
X3046976Y588001D01*
X3055245Y582476D01*
X3065000Y580535D01*
X3074755Y582476D01*
X3083024Y588001D01*
X3088550Y596271D01*
X3090490Y606025D01*
X3088550Y615780D01*
X3083024Y624049D01*
X3074755Y629575D01*
X3065000Y631515D01*
D02*
G37*
G36*
X2595000Y623715D02*
X2585245Y621774D01*
X2576976Y616249D01*
X2571450Y607979D01*
X2569510Y598225D01*
X2571450Y588470D01*
X2576976Y580201D01*
X2585245Y574675D01*
X2595000Y572735D01*
X2604755Y574675D01*
X2613024Y580201D01*
X2618550Y588470D01*
X2620490Y598225D01*
X2618550Y607979D01*
X2613024Y616249D01*
X2604755Y621774D01*
X2595000Y623715D01*
D02*
G37*
G36*
X3474495Y590000D02*
X3455000D01*
Y570505D01*
X3459755Y571451D01*
X3468024Y576976D01*
X3473550Y585245D01*
X3474495Y590000D01*
D02*
G37*
G36*
X3445000D02*
X3425505D01*
X3426450Y585245D01*
X3431976Y576976D01*
X3440245Y571451D01*
X3445000Y570505D01*
Y590000D01*
D02*
G37*
G36*
X3260000Y620999D02*
X3250245Y619059D01*
X3241976Y613533D01*
X3236450Y605264D01*
X3234510Y595509D01*
X3236450Y585755D01*
X3241976Y577485D01*
X3250245Y571960D01*
X3260000Y570020D01*
X3269755Y571960D01*
X3278024Y577485D01*
X3283550Y585755D01*
X3285490Y595509D01*
X3283550Y605264D01*
X3278024Y613533D01*
X3269755Y619059D01*
X3260000Y620999D01*
D02*
G37*
G36*
X305000Y632780D02*
X296516Y631663D01*
X288610Y628389D01*
X281821Y623179D01*
X276611Y616390D01*
X273337Y608484D01*
X272220Y600000D01*
X273337Y591516D01*
X276611Y583610D01*
X281821Y576821D01*
X288610Y571611D01*
X296516Y568337D01*
X305000Y567220D01*
X313484Y568337D01*
X321390Y571611D01*
X328179Y576821D01*
X333389Y583610D01*
X336663Y591516D01*
X337780Y600000D01*
X336663Y608484D01*
X333389Y616390D01*
X328179Y623179D01*
X321390Y628389D01*
X313484Y631663D01*
X305000Y632780D01*
D02*
G37*
G36*
X134095Y717449D02*
X119400Y716002D01*
X105269Y711716D01*
X92247Y704755D01*
X80833Y695388D01*
X71466Y683973D01*
X64505Y670951D01*
X60218Y656821D01*
X58771Y642126D01*
X60218Y627431D01*
X64505Y613301D01*
X71466Y600279D01*
X80833Y588864D01*
X92247Y579497D01*
X105269Y572536D01*
X119400Y568250D01*
X134095Y566803D01*
X148789Y568250D01*
X162919Y572536D01*
X175942Y579497D01*
X187356Y588864D01*
X196724Y600279D01*
X203684Y613301D01*
X207970Y627431D01*
X209418Y642126D01*
X207970Y656821D01*
X203684Y670951D01*
X196724Y683973D01*
X187356Y695388D01*
X175942Y704755D01*
X162919Y711716D01*
X148789Y716002D01*
X134095Y717449D01*
D02*
G37*
G36*
X2870412Y591938D02*
X2860657Y589998D01*
X2852388Y584472D01*
X2846863Y576203D01*
X2844922Y566448D01*
X2846863Y556694D01*
X2852388Y548424D01*
X2860657Y542899D01*
X2870412Y540959D01*
X2880166Y542899D01*
X2888436Y548424D01*
X2893961Y556694D01*
X2895902Y566448D01*
X2893961Y576203D01*
X2888436Y584472D01*
X2880166Y589998D01*
X2870412Y591938D01*
D02*
G37*
G36*
X635000Y597237D02*
X626516Y596120D01*
X618610Y592846D01*
X611821Y587636D01*
X606611Y580847D01*
X603337Y572941D01*
X602220Y564457D01*
X603337Y555973D01*
X606611Y548067D01*
X611821Y541278D01*
X618610Y536068D01*
X626516Y532794D01*
X635000Y531677D01*
X643484Y532794D01*
X651390Y536068D01*
X658179Y541278D01*
X663389Y548067D01*
X666663Y555973D01*
X667780Y564457D01*
X666663Y572941D01*
X663389Y580847D01*
X658179Y587636D01*
X651390Y592846D01*
X643484Y596120D01*
X635000Y597237D01*
D02*
G37*
G36*
X560000D02*
X551516Y596120D01*
X543610Y592846D01*
X536821Y587636D01*
X531611Y580847D01*
X528337Y572941D01*
X527220Y564457D01*
X528337Y555973D01*
X531611Y548067D01*
X536821Y541278D01*
X543610Y536068D01*
X551516Y532794D01*
X560000Y531677D01*
X568484Y532794D01*
X576390Y536068D01*
X583179Y541278D01*
X588389Y548067D01*
X591663Y555973D01*
X592780Y564457D01*
X591663Y572941D01*
X588389Y580847D01*
X583179Y587636D01*
X576390Y592846D01*
X568484Y596120D01*
X560000Y597237D01*
D02*
G37*
G36*
X1734692Y624856D02*
X1724938Y622916D01*
X1716668Y617391D01*
X1711143Y609121D01*
X1709202Y599367D01*
X1711143Y589612D01*
X1716668Y581343D01*
X1722968Y577134D01*
X1721912Y571826D01*
X1715759Y570602D01*
X1707489Y565076D01*
X1701964Y556807D01*
X1700023Y547052D01*
X1701964Y537298D01*
X1707489Y529028D01*
X1715759Y523503D01*
X1725513Y521562D01*
X1735268Y523503D01*
X1743537Y529028D01*
X1749063Y537298D01*
X1751003Y547052D01*
X1749063Y556807D01*
X1743537Y565076D01*
X1737238Y569285D01*
X1738294Y574593D01*
X1744447Y575817D01*
X1752716Y581343D01*
X1758242Y589612D01*
X1760182Y599367D01*
X1758242Y609121D01*
X1752716Y617391D01*
X1744447Y622916D01*
X1734692Y624856D01*
D02*
G37*
G36*
X1450000Y543083D02*
X1440245Y541143D01*
X1431976Y535618D01*
X1426450Y527348D01*
X1424510Y517594D01*
X1426450Y507839D01*
X1431976Y499570D01*
X1440245Y494044D01*
X1450000Y492104D01*
X1459754Y494044D01*
X1468024Y499570D01*
X1473549Y507839D01*
X1475489Y517594D01*
X1473549Y527348D01*
X1468024Y535618D01*
X1459754Y541143D01*
X1450000Y543083D01*
D02*
G37*
G36*
X3455000Y510752D02*
Y491257D01*
X3474495D01*
X3473550Y496011D01*
X3468024Y504281D01*
X3459755Y509806D01*
X3455000Y510752D01*
D02*
G37*
G36*
X3445000D02*
X3440245Y509806D01*
X3431976Y504281D01*
X3426450Y496011D01*
X3425505Y491257D01*
X3445000D01*
Y510752D01*
D02*
G37*
G36*
X3056059Y533401D02*
X3046305Y531461D01*
X3038035Y525935D01*
X3032510Y517665D01*
X3030569Y507911D01*
X3032510Y498156D01*
X3038035Y489887D01*
X3046305Y484361D01*
X3056059Y482421D01*
X3065814Y484361D01*
X3074083Y489887D01*
X3079609Y498156D01*
X3081549Y507911D01*
X3079609Y517665D01*
X3074083Y525935D01*
X3065814Y531461D01*
X3056059Y533401D01*
D02*
G37*
G36*
X1665513Y532612D02*
X1655759Y530671D01*
X1647489Y525146D01*
X1641964Y516876D01*
X1640023Y507122D01*
X1641964Y497367D01*
X1647489Y489098D01*
X1655759Y483572D01*
X1665513Y481632D01*
X1675268Y483572D01*
X1683537Y489098D01*
X1689063Y497367D01*
X1691003Y507122D01*
X1689063Y516876D01*
X1683537Y525146D01*
X1675268Y530671D01*
X1665513Y532612D01*
D02*
G37*
G36*
X2775000Y520490D02*
X2765245Y518549D01*
X2756976Y513024D01*
X2751450Y504755D01*
X2749510Y495000D01*
X2751450Y485245D01*
X2756976Y476976D01*
X2765245Y471450D01*
X2775000Y469510D01*
X2784755Y471450D01*
X2793024Y476976D01*
X2798550Y485245D01*
X2800490Y495000D01*
X2798550Y504755D01*
X2793024Y513024D01*
X2784755Y518549D01*
X2775000Y520490D01*
D02*
G37*
G36*
X3474495Y481257D02*
X3455000D01*
Y461762D01*
X3459755Y462707D01*
X3468024Y468233D01*
X3473550Y476502D01*
X3474495Y481257D01*
D02*
G37*
G36*
X3445000D02*
X3425505D01*
X3426450Y476502D01*
X3431976Y468233D01*
X3440245Y462707D01*
X3445000Y461762D01*
Y481257D01*
D02*
G37*
G36*
X3260000Y511257D02*
X3250245Y509317D01*
X3241976Y503792D01*
X3236450Y495522D01*
X3234510Y485768D01*
X3236450Y476013D01*
X3241976Y467744D01*
X3250245Y462218D01*
X3260000Y460278D01*
X3269755Y462218D01*
X3278024Y467744D01*
X3283550Y476013D01*
X3285490Y485768D01*
X3283550Y495522D01*
X3278024Y503792D01*
X3269755Y509317D01*
X3260000Y511257D01*
D02*
G37*
G36*
X1710000Y468856D02*
Y449361D01*
X1729495D01*
X1728550Y454115D01*
X1723024Y462385D01*
X1714755Y467910D01*
X1710000Y468856D01*
D02*
G37*
G36*
X1700000D02*
X1695246Y467910D01*
X1686976Y462385D01*
X1681451Y454115D01*
X1680505Y449361D01*
X1700000D01*
Y468856D01*
D02*
G37*
G36*
X1729495Y439361D02*
X1710000D01*
Y419866D01*
X1714755Y420811D01*
X1723024Y426337D01*
X1728550Y434606D01*
X1729495Y439361D01*
D02*
G37*
G36*
X1700000D02*
X1680505D01*
X1681451Y434606D01*
X1686976Y426337D01*
X1695246Y420811D01*
X1700000Y419866D01*
Y439361D01*
D02*
G37*
G36*
X1440000Y459851D02*
X1430245Y457910D01*
X1421976Y452385D01*
X1416450Y444115D01*
X1414510Y434361D01*
X1416450Y424606D01*
X1421976Y416337D01*
X1430245Y410811D01*
X1440000Y408871D01*
X1449754Y410811D01*
X1458024Y416337D01*
X1463549Y424606D01*
X1465489Y434361D01*
X1463549Y444115D01*
X1458024Y452385D01*
X1449754Y457910D01*
X1440000Y459851D01*
D02*
G37*
G36*
X1734692Y419856D02*
X1724938Y417916D01*
X1716668Y412391D01*
X1711143Y404121D01*
X1709202Y394367D01*
X1711143Y384612D01*
X1716668Y376343D01*
X1722968Y372134D01*
X1721912Y366825D01*
X1715759Y365602D01*
X1707489Y360076D01*
X1701964Y351807D01*
X1700023Y342052D01*
X1701964Y332298D01*
X1707489Y324028D01*
X1715759Y318503D01*
X1725513Y316562D01*
X1735268Y318503D01*
X1743537Y324028D01*
X1749063Y332298D01*
X1751003Y342052D01*
X1749063Y351807D01*
X1743537Y360076D01*
X1737238Y364285D01*
X1738294Y369593D01*
X1744447Y370817D01*
X1752716Y376343D01*
X1758242Y384612D01*
X1760182Y394367D01*
X1758242Y404121D01*
X1752716Y412391D01*
X1744447Y417916D01*
X1734692Y419856D01*
D02*
G37*
G36*
X1450000Y338084D02*
X1440245Y336143D01*
X1431976Y330618D01*
X1426450Y322348D01*
X1424510Y312594D01*
X1426450Y302839D01*
X1431976Y294570D01*
X1440245Y289044D01*
X1450000Y287104D01*
X1459754Y289044D01*
X1468024Y294570D01*
X1473549Y302839D01*
X1475489Y312594D01*
X1473549Y322348D01*
X1468024Y330618D01*
X1459754Y336143D01*
X1450000Y338084D01*
D02*
G37*
G36*
X1665513Y327612D02*
X1655759Y325671D01*
X1647489Y320146D01*
X1641964Y311876D01*
X1640023Y302122D01*
X1641964Y292367D01*
X1647489Y284098D01*
X1655759Y278572D01*
X1665513Y276632D01*
X1675268Y278572D01*
X1683537Y284098D01*
X1689063Y292367D01*
X1691003Y302122D01*
X1689063Y311876D01*
X1683537Y320146D01*
X1675268Y325671D01*
X1665513Y327612D01*
D02*
G37*
G36*
X930000Y334902D02*
X921516Y333785D01*
X913610Y330511D01*
X906821Y325301D01*
X901611Y318512D01*
X898337Y310606D01*
X897220Y302122D01*
X898337Y293638D01*
X901611Y285732D01*
X906821Y278943D01*
X913610Y273733D01*
X921516Y270459D01*
X930000Y269341D01*
X938484Y270459D01*
X946390Y273733D01*
X953179Y278943D01*
X958389Y285732D01*
X961663Y293638D01*
X962780Y302122D01*
X961663Y310606D01*
X958389Y318512D01*
X953179Y325301D01*
X946390Y330511D01*
X938484Y333785D01*
X930000Y334902D01*
D02*
G37*
G36*
X1710000Y258856D02*
Y239361D01*
X1729495D01*
X1728550Y244115D01*
X1723024Y252385D01*
X1714755Y257910D01*
X1710000Y258856D01*
D02*
G37*
G36*
X1700000D02*
X1695246Y257910D01*
X1686976Y252385D01*
X1681451Y244115D01*
X1680505Y239361D01*
X1700000D01*
Y258856D01*
D02*
G37*
G36*
X1729495Y229361D02*
X1710000D01*
Y209866D01*
X1714755Y210811D01*
X1723024Y216337D01*
X1728550Y224606D01*
X1729495Y229361D01*
D02*
G37*
G36*
X1700000D02*
X1680505D01*
X1681451Y224606D01*
X1686976Y216337D01*
X1695246Y210811D01*
X1700000Y209866D01*
Y229361D01*
D02*
G37*
G36*
X1440000Y249851D02*
X1430245Y247910D01*
X1421976Y242385D01*
X1416450Y234115D01*
X1414510Y224361D01*
X1416450Y214606D01*
X1421976Y206337D01*
X1430245Y200811D01*
X1440000Y198871D01*
X1449754Y200811D01*
X1458024Y206337D01*
X1463549Y214606D01*
X1465489Y224361D01*
X1463549Y234115D01*
X1458024Y242385D01*
X1449754Y247910D01*
X1440000Y249851D01*
D02*
G37*
G36*
X3200000Y408760D02*
X3182986Y407421D01*
X3166391Y403437D01*
X3150624Y396906D01*
X3136072Y387989D01*
X3123095Y376905D01*
X3112011Y363928D01*
X3103094Y349376D01*
X3096563Y333609D01*
X3092579Y317014D01*
X3091240Y300000D01*
X3092579Y282986D01*
X3096563Y266391D01*
X3103094Y250624D01*
X3112011Y236072D01*
X3123095Y223095D01*
X3136072Y212011D01*
X3150624Y203094D01*
X3166391Y196563D01*
X3182986Y192578D01*
X3200000Y191239D01*
X3217014Y192578D01*
X3233609Y196563D01*
X3249376Y203094D01*
X3263928Y212011D01*
X3276905Y223095D01*
X3287989Y236072D01*
X3296906Y250624D01*
X3303437Y266391D01*
X3307421Y282986D01*
X3308760Y300000D01*
X3307421Y317014D01*
X3303437Y333609D01*
X3296906Y349376D01*
X3287989Y363928D01*
X3276905Y376905D01*
X3263928Y387989D01*
X3249376Y396906D01*
X3233609Y403437D01*
X3217014Y407421D01*
X3200000Y408760D01*
D02*
G37*
G36*
X300000D02*
X282986Y407421D01*
X266391Y403437D01*
X250624Y396906D01*
X236072Y387989D01*
X223095Y376905D01*
X212011Y363928D01*
X203094Y349376D01*
X196563Y333609D01*
X192578Y317014D01*
X191239Y300000D01*
X192578Y282986D01*
X196563Y266391D01*
X203094Y250624D01*
X212011Y236072D01*
X223095Y223095D01*
X236072Y212011D01*
X250624Y203094D01*
X266391Y196563D01*
X282986Y192578D01*
X300000Y191239D01*
X317014Y192578D01*
X333609Y196563D01*
X349376Y203094D01*
X363928Y212011D01*
X376905Y223095D01*
X387989Y236072D01*
X396906Y250624D01*
X403437Y266391D01*
X407421Y282986D01*
X408760Y300000D01*
X407421Y317014D01*
X403437Y333609D01*
X396906Y349376D01*
X387989Y363928D01*
X376905Y376905D01*
X363928Y387989D01*
X349376Y396906D01*
X333609Y403437D01*
X317014Y407421D01*
X300000Y408760D01*
D02*
G37*
G36*
X490000Y243722D02*
X481516Y242605D01*
X473610Y239330D01*
X466821Y234121D01*
X461611Y227332D01*
X458337Y219426D01*
X457220Y210941D01*
X458337Y202457D01*
X461611Y194551D01*
X466821Y187762D01*
X473610Y182553D01*
X481516Y179278D01*
X490000Y178161D01*
X498484Y179278D01*
X506390Y182553D01*
X513179Y187762D01*
X518389Y194551D01*
X521663Y202457D01*
X522780Y210941D01*
X521663Y219426D01*
X518389Y227332D01*
X513179Y234121D01*
X506390Y239330D01*
X498484Y242605D01*
X490000Y243722D01*
D02*
G37*
G36*
X465000Y177122D02*
Y150000D01*
X492122D01*
X491663Y153484D01*
X488389Y161390D01*
X483179Y168179D01*
X476390Y173389D01*
X468484Y176663D01*
X465000Y177122D01*
D02*
G37*
G36*
X455000D02*
X451516Y176663D01*
X443610Y173389D01*
X436821Y168179D01*
X431611Y161390D01*
X428337Y153484D01*
X427878Y150000D01*
X455000D01*
Y177122D01*
D02*
G37*
G36*
X492122Y140000D02*
X465000D01*
Y112878D01*
X468484Y113337D01*
X476390Y116611D01*
X483179Y121821D01*
X488389Y128610D01*
X491663Y136516D01*
X492122Y140000D01*
D02*
G37*
G36*
X455000D02*
X427878D01*
X428337Y136516D01*
X431611Y128610D01*
X436821Y121821D01*
X443610Y116611D01*
X451516Y113337D01*
X455000Y112878D01*
Y140000D01*
D02*
G37*
G36*
X1734692Y209857D02*
X1724938Y207916D01*
X1716668Y202391D01*
X1711143Y194121D01*
X1709202Y184367D01*
X1711143Y174612D01*
X1716668Y166343D01*
X1722968Y162133D01*
X1721912Y156826D01*
X1715759Y155602D01*
X1707489Y150076D01*
X1701964Y141807D01*
X1700023Y132052D01*
X1701964Y122298D01*
X1707489Y114028D01*
X1715759Y108503D01*
X1725513Y106562D01*
X1735268Y108503D01*
X1743537Y114028D01*
X1749063Y122298D01*
X1751003Y132052D01*
X1749063Y141807D01*
X1743537Y150076D01*
X1737238Y154285D01*
X1738294Y159593D01*
X1744447Y160817D01*
X1752716Y166343D01*
X1758242Y174612D01*
X1760182Y184367D01*
X1758242Y194121D01*
X1752716Y202391D01*
X1744447Y207916D01*
X1734692Y209857D01*
D02*
G37*
G36*
X990000Y169906D02*
X981516Y168789D01*
X973610Y165515D01*
X966821Y160305D01*
X961611Y153516D01*
X958337Y145610D01*
X957220Y137126D01*
X958337Y128642D01*
X961611Y120736D01*
X966821Y113947D01*
X973610Y108737D01*
X981516Y105463D01*
X990000Y104346D01*
X998484Y105463D01*
X1006390Y108737D01*
X1013179Y113947D01*
X1018389Y120736D01*
X1021663Y128642D01*
X1022780Y137126D01*
X1021663Y145610D01*
X1018389Y153516D01*
X1013179Y160305D01*
X1006390Y165515D01*
X998484Y168789D01*
X990000Y169906D01*
D02*
G37*
G36*
X1450000Y128083D02*
X1440245Y126143D01*
X1431976Y120618D01*
X1426450Y112348D01*
X1424510Y102594D01*
X1426450Y92839D01*
X1431976Y84570D01*
X1440245Y79044D01*
X1450000Y77104D01*
X1459754Y79044D01*
X1468024Y84570D01*
X1473549Y92839D01*
X1475489Y102594D01*
X1473549Y112348D01*
X1468024Y120618D01*
X1459754Y126143D01*
X1450000Y128083D01*
D02*
G37*
G36*
X1665513Y117612D02*
X1655759Y115671D01*
X1647489Y110146D01*
X1641964Y101876D01*
X1640023Y92122D01*
X1641964Y82367D01*
X1647489Y74098D01*
X1655759Y68572D01*
X1665513Y66632D01*
X1675268Y68572D01*
X1683537Y74098D01*
X1689063Y82367D01*
X1691003Y92122D01*
X1689063Y101876D01*
X1683537Y110146D01*
X1675268Y115671D01*
X1665513Y117612D01*
D02*
G37*
%LPD*%
D31*
X300000Y300000D02*
D03*
Y2500000D02*
D03*
X3200000Y300000D02*
D03*
Y2500000D02*
D03*
D32*
X488425Y1695276D02*
D03*
Y1813386D02*
D03*
Y986614D02*
D03*
X606535D02*
D03*
X390000Y1872441D02*
D03*
Y1754331D02*
D03*
Y1636220D02*
D03*
Y1518110D02*
D03*
Y1400000D02*
D03*
Y1281890D02*
D03*
Y1163780D02*
D03*
Y1045669D02*
D03*
Y927559D02*
D03*
X488425Y1577165D02*
D03*
Y1459055D02*
D03*
Y1340945D02*
D03*
Y1222835D02*
D03*
Y1104724D02*
D03*
X606535Y1813386D02*
D03*
Y1695276D02*
D03*
Y1577165D02*
D03*
Y1459055D02*
D03*
Y1340945D02*
D03*
Y1222835D02*
D03*
Y1104724D02*
D03*
X704961Y1872441D02*
D03*
Y1754331D02*
D03*
Y1636220D02*
D03*
Y1518110D02*
D03*
Y1400000D02*
D03*
Y1281890D02*
D03*
Y1163780D02*
D03*
Y1045669D02*
D03*
Y927559D02*
D03*
D33*
X134095Y642126D02*
D03*
Y2157874D02*
D03*
D34*
X297603Y1937224D02*
D03*
X3445000Y1330000D02*
D03*
Y1380787D02*
D03*
X2675000Y1252835D02*
D03*
X2615098Y1251929D02*
D03*
X3096457Y1575740D02*
D03*
X2775000Y495000D02*
D03*
X2975000Y2205000D02*
D03*
X2530000Y2215736D02*
D03*
X2700000Y2485000D02*
D03*
X875000Y2200000D02*
D03*
Y2031074D02*
D03*
X880000Y1905000D02*
D03*
Y1707747D02*
D03*
X1552769Y2180224D02*
D03*
X1311108Y2133059D02*
D03*
X1917688Y2298559D02*
D03*
X1441322Y2279319D02*
D03*
X1915218Y1970000D02*
D03*
X1593593Y2182153D02*
D03*
X1440000Y1689361D02*
D03*
X1450000Y1567594D02*
D03*
X1705000Y1699361D02*
D03*
X1665513Y1557122D02*
D03*
X1734692Y1649367D02*
D03*
X1725513Y1597052D02*
D03*
X1445000Y1474361D02*
D03*
X1455000Y1352594D02*
D03*
X1710000Y1484361D02*
D03*
X1670513Y1342122D02*
D03*
X1739692Y1434367D02*
D03*
X1730513Y1382052D02*
D03*
X1440000Y1264361D02*
D03*
X1450000Y1142594D02*
D03*
X1705000Y1274361D02*
D03*
X1665513Y1132122D02*
D03*
X1734692Y1224367D02*
D03*
X1725513Y1172052D02*
D03*
X1440000Y1049361D02*
D03*
X1450000Y927594D02*
D03*
X1705000Y1059361D02*
D03*
X1665513Y917122D02*
D03*
X1734692Y1009367D02*
D03*
X1725513Y957052D02*
D03*
X1440000Y844361D02*
D03*
X1450000Y722594D02*
D03*
X1705000Y854361D02*
D03*
X1665513Y712122D02*
D03*
X1734692Y804367D02*
D03*
X1725513Y752052D02*
D03*
X1440000Y639361D02*
D03*
X1450000Y517594D02*
D03*
X1705000Y649361D02*
D03*
X1665513Y507122D02*
D03*
X1734692Y599367D02*
D03*
X1725513Y547052D02*
D03*
X1440000Y434361D02*
D03*
X1450000Y312594D02*
D03*
X1705000Y444361D02*
D03*
X1665513Y302122D02*
D03*
X1734692Y394367D02*
D03*
X1725513Y342052D02*
D03*
X604353Y2670508D02*
D03*
X530000Y2445000D02*
D03*
X2519221Y683264D02*
D03*
X2607486Y1455351D02*
D03*
X265000Y2248006D02*
D03*
X2870412Y566448D02*
D03*
X2735000Y641457D02*
D03*
X2865000Y658228D02*
D03*
X2875000Y746385D02*
D03*
X3205000Y892360D02*
D03*
X1308638Y1804500D02*
D03*
X1550299Y1851665D02*
D03*
X600305Y2461925D02*
D03*
X1438852Y1950759D02*
D03*
X2295000Y1759966D02*
D03*
X2519221Y1823969D02*
D03*
X3056059Y507911D02*
D03*
X3065000Y606025D02*
D03*
X3260000Y595509D02*
D03*
Y485768D02*
D03*
X3450000Y486257D02*
D03*
Y595000D02*
D03*
X2595000Y598225D02*
D03*
X482323Y2495000D02*
D03*
X1734692Y184367D02*
D03*
X3094646Y1740827D02*
D03*
X2951512D02*
D03*
X1705000Y234361D02*
D03*
X1450000Y102594D02*
D03*
X1440000Y224361D02*
D03*
X1665513Y92122D02*
D03*
X1725513Y132052D02*
D03*
X3215000Y750397D02*
D03*
X2839606Y708901D02*
D03*
X2666542Y1568775D02*
D03*
X3011967Y1520472D02*
D03*
X3013701Y1390472D02*
D03*
X2953228Y1570472D02*
D03*
X2993228Y1350472D02*
D03*
X1591124Y1853594D02*
D03*
X3061471Y828023D02*
D03*
Y788023D02*
D03*
X2526657Y2375163D02*
D03*
X2861657D02*
D03*
D35*
X2637014Y2561829D02*
D03*
X2755000Y2570000D02*
D03*
X2642919Y2075000D02*
D03*
X2744727Y2076266D02*
D03*
X2784652Y1913701D02*
D03*
X2600000Y1920000D02*
D03*
X1611104Y2473445D02*
D03*
X305000Y600000D02*
D03*
X990000Y137126D02*
D03*
X930000Y302122D02*
D03*
X460000Y145000D02*
D03*
X490000Y210941D02*
D03*
X560000Y564457D02*
D03*
X635000D02*
D03*
X1413852Y2610000D02*
D03*
X720000Y2675000D02*
D03*
X805000Y2597397D02*
D03*
X667912Y2475000D02*
D03*
X260000Y2649212D02*
D03*
X1107776Y2448661D02*
D03*
X1047776Y2453661D02*
D03*
X987776Y2448661D02*
D03*
%TF.MD5,73c4345929b6b6bccdc980c7e6a3eedf*%
M02*
