%TF.GenerationSoftware,Altium Limited,Altium Designer,19.0.10 (269)*%
G04 Layer_Color=255*
%FSLAX26Y26*%
%MOIN*%
%TF.FileFunction,Pads,Top*%
%TF.Part,Single*%
G01*
G75*
%TA.AperFunction,SMDPad,CuDef*%
%ADD10R,0.035433X0.039370*%
%ADD11R,0.080709X0.045276*%
%ADD12R,0.051181X0.043307*%
%ADD13R,0.043307X0.051181*%
%ADD14R,0.094488X0.029921*%
%ADD15R,0.039370X0.035433*%
%ADD16R,0.037402X0.033465*%
%ADD17R,0.011811X0.053150*%
%ADD18R,0.053150X0.011811*%
%ADD19R,0.045276X0.080709*%
%ADD20R,0.053150X0.045276*%
%ADD21R,0.035000X0.016535*%
%ADD22R,0.074803X0.074803*%
%ADD23R,0.051181X0.057087*%
%ADD24R,0.055118X0.062992*%
%ADD25R,0.053150X0.015748*%
%ADD26R,0.033465X0.037402*%
%TA.AperFunction,ViaPad*%
%ADD31C,0.196850*%
%TA.AperFunction,ComponentPad*%
%ADD32C,0.086614*%
%ADD33C,0.129921*%
D10*
X2466072Y1760346D02*
D03*
X2519221D02*
D03*
X1549315Y1936074D02*
D03*
X1602464D02*
D03*
X1783425Y1975000D02*
D03*
X1836575D02*
D03*
X1785895Y2303559D02*
D03*
X1839045D02*
D03*
X1551784Y2264633D02*
D03*
X1604934D02*
D03*
D11*
X2745282Y1800346D02*
D03*
X2643646D02*
D03*
X268071Y2715000D02*
D03*
X2644631Y2654433D02*
D03*
X2755000D02*
D03*
X770000Y201339D02*
D03*
X535000Y413075D02*
D03*
X1675000Y2591377D02*
D03*
X1005000Y71098D02*
D03*
X2780000Y405000D02*
D03*
X2502442Y598228D02*
D03*
X1370000Y145000D02*
D03*
X1190984Y181571D02*
D03*
X1370000Y355000D02*
D03*
X1190984Y391572D02*
D03*
X1370000Y970000D02*
D03*
X1190984Y1006572D02*
D03*
X1370000Y1185000D02*
D03*
X1190984Y1221572D02*
D03*
X1370000Y765000D02*
D03*
X1190984Y801572D02*
D03*
X1370000Y560000D02*
D03*
X1190984Y596572D02*
D03*
X1375000Y1395000D02*
D03*
X1195984Y1431572D02*
D03*
X1370000Y1610000D02*
D03*
X1190984Y1646572D02*
D03*
X1359170Y1932153D02*
D03*
X1361640Y2260712D02*
D03*
X1216713Y2000000D02*
D03*
X1219182Y2328559D02*
D03*
X1113170Y1835000D02*
D03*
X1115640Y2163559D02*
D03*
X522677Y2715000D02*
D03*
X160000D02*
D03*
X390000Y2715002D02*
D03*
D12*
X717586Y2605276D02*
D03*
Y2514724D02*
D03*
X603582Y2607200D02*
D03*
Y2516649D02*
D03*
D13*
X3210553Y599367D02*
D03*
X3120002D02*
D03*
Y482992D02*
D03*
X3210553D02*
D03*
D14*
X3096457Y1530000D02*
D03*
X3250000D02*
D03*
X3096457Y1480000D02*
D03*
X3250000D02*
D03*
X3096457Y1430000D02*
D03*
X3250000D02*
D03*
X3096457Y1380000D02*
D03*
X3250000D02*
D03*
X3096457Y1330000D02*
D03*
X3250000D02*
D03*
D15*
X3374646Y1377835D02*
D03*
Y1324685D02*
D03*
X1380889Y1804500D02*
D03*
Y1857649D02*
D03*
X1383359Y2133059D02*
D03*
Y2186208D02*
D03*
D16*
X3096457Y1680472D02*
D03*
Y1629291D02*
D03*
X2951513Y1680472D02*
D03*
Y1629291D02*
D03*
X1477297Y2007744D02*
D03*
Y1956563D02*
D03*
X1479767Y2336303D02*
D03*
Y2285122D02*
D03*
D17*
X2784652Y1626850D02*
D03*
X2764967D02*
D03*
X2745282D02*
D03*
X2725597D02*
D03*
X2705912D02*
D03*
X2686227D02*
D03*
X2666542D02*
D03*
X2646857D02*
D03*
X2627171D02*
D03*
X2607486D02*
D03*
X2587801D02*
D03*
X2568116D02*
D03*
X2548431D02*
D03*
X2528746D02*
D03*
X2509061D02*
D03*
X2489376D02*
D03*
Y1174094D02*
D03*
X2509061D02*
D03*
X2528746D02*
D03*
X2548431D02*
D03*
X2568116D02*
D03*
X2587801D02*
D03*
X2607486D02*
D03*
X2627171D02*
D03*
X2646857D02*
D03*
X2666542D02*
D03*
X2686227D02*
D03*
X2705912D02*
D03*
X2725597D02*
D03*
X2745282D02*
D03*
X2764967D02*
D03*
X2784652D02*
D03*
D18*
X2410636Y1548110D02*
D03*
Y1528425D02*
D03*
Y1508740D02*
D03*
Y1489055D02*
D03*
Y1469370D02*
D03*
Y1449685D02*
D03*
Y1430000D02*
D03*
Y1410315D02*
D03*
Y1390630D02*
D03*
Y1370945D02*
D03*
Y1351260D02*
D03*
Y1331575D02*
D03*
Y1311890D02*
D03*
Y1292205D02*
D03*
Y1272520D02*
D03*
Y1252835D02*
D03*
X2863392D02*
D03*
Y1272520D02*
D03*
Y1292205D02*
D03*
Y1311890D02*
D03*
Y1331575D02*
D03*
Y1351260D02*
D03*
Y1370945D02*
D03*
Y1390630D02*
D03*
Y1410315D02*
D03*
Y1430000D02*
D03*
Y1449685D02*
D03*
Y1469370D02*
D03*
Y1489055D02*
D03*
Y1508740D02*
D03*
Y1528425D02*
D03*
Y1548110D02*
D03*
D19*
X3115000Y762290D02*
D03*
Y853756D02*
D03*
X1790000Y200272D02*
D03*
X1790000Y100272D02*
D03*
X1790000Y410272D02*
D03*
X1790000Y310272D02*
D03*
X1790000Y1025272D02*
D03*
X1790000Y925272D02*
D03*
X1790000Y1240272D02*
D03*
X1790000Y1140272D02*
D03*
X1790000Y820272D02*
D03*
X1790000Y720272D02*
D03*
X1790000Y615272D02*
D03*
X1790000Y515272D02*
D03*
X1795000Y1450272D02*
D03*
X1795000Y1350272D02*
D03*
X1790000Y1665272D02*
D03*
X1790000Y1565272D02*
D03*
X1825000Y1887177D02*
D03*
X1827470Y2215736D02*
D03*
X1823477Y1784596D02*
D03*
X1825947Y2113155D02*
D03*
D20*
X2835000Y944016D02*
D03*
Y1012913D02*
D03*
X2746266Y940551D02*
D03*
Y1009449D02*
D03*
D21*
X1663878Y1598186D02*
D03*
Y1623776D02*
D03*
Y1649367D02*
D03*
Y1674957D02*
D03*
X1498091Y1598186D02*
D03*
Y1623776D02*
D03*
Y1649367D02*
D03*
Y1674957D02*
D03*
X1668878Y1383186D02*
D03*
Y1408776D02*
D03*
Y1434367D02*
D03*
Y1459957D02*
D03*
X1503091Y1383186D02*
D03*
Y1408776D02*
D03*
Y1434367D02*
D03*
Y1459957D02*
D03*
X1663878Y1173186D02*
D03*
Y1198776D02*
D03*
Y1224367D02*
D03*
Y1249957D02*
D03*
X1498091Y1173186D02*
D03*
Y1198776D02*
D03*
Y1224367D02*
D03*
Y1249957D02*
D03*
X1663878Y958186D02*
D03*
Y983776D02*
D03*
Y1009367D02*
D03*
Y1034957D02*
D03*
X1498091Y958186D02*
D03*
Y983776D02*
D03*
Y1009367D02*
D03*
Y1034957D02*
D03*
X1663878Y753186D02*
D03*
Y778776D02*
D03*
Y804367D02*
D03*
Y829957D02*
D03*
X1498091Y753186D02*
D03*
Y778776D02*
D03*
Y804367D02*
D03*
Y829957D02*
D03*
X1663878Y548186D02*
D03*
Y573776D02*
D03*
Y599367D02*
D03*
Y624957D02*
D03*
X1498091Y548186D02*
D03*
Y573776D02*
D03*
Y599367D02*
D03*
Y624957D02*
D03*
X1663878Y343186D02*
D03*
Y368776D02*
D03*
Y394367D02*
D03*
Y419957D02*
D03*
X1498091Y343186D02*
D03*
Y368776D02*
D03*
Y394367D02*
D03*
Y419957D02*
D03*
Y209957D02*
D03*
Y184367D02*
D03*
Y158776D02*
D03*
Y133186D02*
D03*
X1663878Y209957D02*
D03*
Y184367D02*
D03*
Y158776D02*
D03*
Y133186D02*
D03*
X1658783Y1787688D02*
D03*
Y1813279D02*
D03*
Y1838870D02*
D03*
Y1864460D02*
D03*
X1492996Y1787688D02*
D03*
Y1813279D02*
D03*
Y1838870D02*
D03*
Y1864460D02*
D03*
X1661253Y2116248D02*
D03*
Y2141838D02*
D03*
Y2167429D02*
D03*
Y2193019D02*
D03*
X1495466Y2116248D02*
D03*
Y2141838D02*
D03*
Y2167429D02*
D03*
Y2193019D02*
D03*
D22*
X3385000Y868228D02*
D03*
Y773740D02*
D03*
D23*
Y955827D02*
D03*
Y686142D02*
D03*
D24*
X3288543Y946969D02*
D03*
Y695000D02*
D03*
D25*
X3279685Y872165D02*
D03*
Y846575D02*
D03*
Y795394D02*
D03*
Y769803D02*
D03*
Y820984D02*
D03*
D26*
X1245299Y1857649D02*
D03*
X1296480D02*
D03*
X1550299Y2011074D02*
D03*
X1601480D02*
D03*
X1552769Y2339633D02*
D03*
X1603950D02*
D03*
X1298950Y2186208D02*
D03*
X1247769D02*
D03*
D31*
X300000Y300000D02*
D03*
Y2500000D02*
D03*
X3200000Y300000D02*
D03*
Y2500000D02*
D03*
D32*
X488425Y1695276D02*
D03*
Y1813386D02*
D03*
Y986614D02*
D03*
X606535D02*
D03*
X390000Y1872441D02*
D03*
Y1754331D02*
D03*
Y1636220D02*
D03*
Y1518110D02*
D03*
Y1400000D02*
D03*
Y1281890D02*
D03*
Y1163780D02*
D03*
Y1045669D02*
D03*
Y927559D02*
D03*
X488425Y1577165D02*
D03*
Y1459055D02*
D03*
Y1340945D02*
D03*
Y1222835D02*
D03*
Y1104724D02*
D03*
X606535Y1813386D02*
D03*
Y1695276D02*
D03*
Y1577165D02*
D03*
Y1459055D02*
D03*
Y1340945D02*
D03*
Y1222835D02*
D03*
Y1104724D02*
D03*
X704961Y1872441D02*
D03*
Y1754331D02*
D03*
Y1636220D02*
D03*
Y1518110D02*
D03*
Y1400000D02*
D03*
Y1281890D02*
D03*
Y1163780D02*
D03*
Y1045669D02*
D03*
Y927559D02*
D03*
D33*
X134095Y642126D02*
D03*
Y2157874D02*
D03*
%TF.MD5,8d00f642f422ab5a24c31413056f1038*%
M02*
