%TF.GenerationSoftware,Altium Limited,Altium Designer,18.1.9 (240)*%
G04 Layer_Color=65535*
%FSLAX26Y26*%
%MOIN*%
%TF.FileFunction,Legend,Top*%
%TF.Part,Single*%
G01*
G75*
%TA.AperFunction,NonConductor*%
%ADD28C,0.003937*%
%ADD53C,0.009842*%
%ADD55C,0.007874*%
%ADD56C,0.010000*%
%ADD57C,0.005906*%
%ADD87C,0.019685*%
%ADD88C,0.011811*%
G36*
X3564876Y65632D02*
X3564820Y65576D01*
X3564765Y65465D01*
X3564598Y65299D01*
X3564376Y65021D01*
X3563877Y64355D01*
X3563211Y63578D01*
X3562489Y62746D01*
X3561768Y61969D01*
X3561102Y61247D01*
X3560824Y60914D01*
X3560547Y60692D01*
X3560602D01*
X3560713Y60637D01*
X3560880D01*
X3561102Y60581D01*
X3561435Y60526D01*
X3561768Y60415D01*
X3562600Y60248D01*
X3563599Y60026D01*
X3564654Y59804D01*
X3566929Y59194D01*
X3565764Y55475D01*
X3565708D01*
X3565597Y55531D01*
X3565375Y55642D01*
X3565098Y55697D01*
X3564765Y55864D01*
X3564321Y56030D01*
X3563433Y56363D01*
X3562434Y56752D01*
X3561435Y57196D01*
X3560491Y57640D01*
X3559714Y58028D01*
Y57973D01*
Y57806D01*
X3559770Y57584D01*
Y57251D01*
X3559825Y56863D01*
X3559881Y56419D01*
X3559936Y55420D01*
X3560047Y54365D01*
X3560158Y53255D01*
X3560214Y52312D01*
Y51868D01*
Y51479D01*
X3556440D01*
Y51535D01*
Y51590D01*
Y51757D01*
Y51923D01*
X3556495Y52534D01*
X3556551Y53255D01*
X3556662Y54199D01*
X3556717Y55364D01*
X3556884Y56641D01*
X3557050Y58028D01*
X3556995D01*
X3556939Y57973D01*
X3556773Y57917D01*
X3556551Y57806D01*
X3555996Y57529D01*
X3555274Y57196D01*
X3554386Y56807D01*
X3553332Y56363D01*
X3552166Y55919D01*
X3550890Y55475D01*
X3549669Y59194D01*
X3549724D01*
X3549835Y59249D01*
X3550002Y59305D01*
X3550224Y59360D01*
X3550557Y59471D01*
X3550890Y59582D01*
X3551722Y59804D01*
X3552721Y60026D01*
X3553831Y60304D01*
X3554997Y60526D01*
X3556218Y60692D01*
X3556162Y60748D01*
X3555940Y60970D01*
X3555552Y61303D01*
X3555052Y61802D01*
X3554386Y62524D01*
X3553665Y63356D01*
X3552721Y64411D01*
X3551722Y65632D01*
X3554830Y67796D01*
X3554886Y67685D01*
X3555108Y67408D01*
X3555441Y66964D01*
X3555885Y66353D01*
X3556384Y65521D01*
X3556995Y64577D01*
X3557716Y63467D01*
X3558438Y62246D01*
Y62302D01*
X3558493Y62413D01*
X3558604Y62579D01*
X3558771Y62857D01*
X3559104Y63523D01*
X3559548Y64300D01*
X3560103Y65188D01*
X3560658Y66131D01*
X3561268Y67019D01*
X3561823Y67796D01*
X3564876Y65632D01*
D02*
G37*
D28*
X270654Y1622716D02*
G03*
X270654Y1622716I-1968J0D01*
G01*
X3389764Y162401D02*
G03*
X3389764Y162401I-1968J0D01*
G01*
X3983386Y434961D02*
X4018150Y400197D01*
X4328386D01*
X4363228Y435039D01*
Y780118D01*
X3983307D02*
X4363228D01*
X3983386Y434961D02*
Y780039D01*
X1498622Y36968D02*
X1533386Y71732D01*
X1498622Y-273268D02*
Y36968D01*
Y-273268D02*
X1533465Y-308110D01*
X1878543D01*
Y71811D01*
X1533386Y71732D02*
X1878465D01*
X1998032Y-39370D02*
X2027559D01*
Y-196850D02*
Y-39370D01*
X1948819Y-196850D02*
X2027559D01*
X1948819D02*
Y-39370D01*
X1998032D01*
D53*
X971063Y381890D02*
G03*
X971063Y381890I-4921J0D01*
G01*
X3268701Y236220D02*
G03*
X3268701Y236220I-4921J0D01*
G01*
X3940984Y532362D02*
Y662362D01*
X1640984Y532362D02*
Y662362D01*
X1140984Y532362D02*
Y662362D01*
X640984Y532362D02*
Y662362D01*
D55*
X162401Y1414055D02*
X174213D01*
X4921D02*
Y1729016D01*
Y1414055D02*
X79724D01*
X4921Y1729016D02*
X79724D01*
X162401D02*
X174213D01*
X3542047Y83110D02*
X3703071D01*
X3542047D02*
Y153110D01*
X3703071D01*
Y83110D02*
Y153110D01*
X3129921Y169291D02*
X3157480D01*
X3129921D02*
Y208661D01*
X3220472Y169291D02*
X3248032D01*
Y208661D01*
D56*
X3941122Y663978D02*
G03*
X3941122Y530746I-95138J-66616D01*
G01*
X1641122Y663978D02*
G03*
X1641122Y530746I-95138J-66616D01*
G01*
X1141122Y663978D02*
G03*
X1141122Y530746I-95138J-66616D01*
G01*
X641122Y663978D02*
G03*
X641122Y530746I-95138J-66616D01*
G01*
X3158976Y15000D02*
X3213976D01*
X3158976D02*
X3188976Y-15000D01*
X3218976Y15000D01*
X3213976D02*
X3218976D01*
X2759449Y-49606D02*
X3078740D01*
X2759449Y-344094D02*
X3078740D01*
Y-49606D01*
X2759449Y-344094D02*
Y-49606D01*
X2120276Y3937D02*
X2182874D01*
X2268504D01*
X2086614D02*
X2120276D01*
X2377165D02*
X2562992D01*
X2086614Y-336221D02*
Y3937D01*
X2268504D02*
X2377165D01*
X2562992Y-336221D02*
Y3937D01*
X2086614Y-336221D02*
X2562992D01*
X2764146Y-14350D02*
Y45630D01*
X2794136D01*
X2804133Y35633D01*
Y15640D01*
X2794136Y5643D01*
X2764146D01*
X2864113Y-14350D02*
X2824126D01*
X2864113Y25637D01*
Y35633D01*
X2854117Y45630D01*
X2834123D01*
X2824126Y35633D01*
X4385827Y800138D02*
X4425814Y740158D01*
Y800138D02*
X4385827Y740158D01*
X4445807Y790141D02*
X4455804Y800138D01*
X4475798D01*
X4485794Y790141D01*
Y780145D01*
X4475798Y770148D01*
X4465801D01*
X4475798D01*
X4485794Y760151D01*
Y750154D01*
X4475798Y740158D01*
X4455804D01*
X4445807Y750154D01*
X1444882Y150532D02*
X1484869Y90551D01*
Y150532D02*
X1444882Y90551D01*
X1544850D02*
X1504862D01*
X1544850Y130538D01*
Y140535D01*
X1534853Y150532D01*
X1514859D01*
X1504862Y140535D01*
X2091181Y164744D02*
Y114760D01*
X2101178Y104764D01*
X2121171D01*
X2131168Y114760D01*
Y164744D01*
X2151162Y154748D02*
X2161159Y164744D01*
X2181152D01*
X2191149Y154748D01*
Y144751D01*
X2181152Y134754D01*
X2171155D01*
X2181152D01*
X2191149Y124757D01*
Y114760D01*
X2181152Y104764D01*
X2161159D01*
X2151162Y114760D01*
X3129339Y363910D02*
X3169326D01*
X3149333D01*
Y303929D01*
X3189320D02*
X3209313D01*
X3199316D01*
Y363910D01*
X3189320Y353913D01*
X3279291Y303929D02*
X3239303D01*
X3279291Y343916D01*
Y353913D01*
X3269294Y363910D01*
X3249300D01*
X3239303Y353913D01*
X3121106Y571941D02*
Y631922D01*
X3151097D01*
X3161093Y621925D01*
Y601931D01*
X3151097Y591934D01*
X3121106D01*
X3141100D02*
X3161093Y571941D01*
X3181087Y621925D02*
X3191084Y631922D01*
X3211077D01*
X3221074Y621925D01*
Y611928D01*
X3211077Y601931D01*
X3201080D01*
X3211077D01*
X3221074Y591934D01*
Y581938D01*
X3211077Y571941D01*
X3191084D01*
X3181087Y581938D01*
X3271058Y571941D02*
Y631922D01*
X3241068Y601931D01*
X3281055D01*
X3297835Y449016D02*
Y508996D01*
X3327825D01*
X3337822Y499000D01*
Y479006D01*
X3327825Y469009D01*
X3297835D01*
X3317828D02*
X3337822Y449016D01*
X3357815Y499000D02*
X3367812Y508996D01*
X3387806D01*
X3397802Y499000D01*
Y489003D01*
X3387806Y479006D01*
X3377809D01*
X3387806D01*
X3397802Y469009D01*
Y459013D01*
X3387806Y449016D01*
X3367812D01*
X3357815Y459013D01*
X3417796Y499000D02*
X3427793Y508996D01*
X3447786D01*
X3457783Y499000D01*
Y489003D01*
X3447786Y479006D01*
X3437789D01*
X3447786D01*
X3457783Y469009D01*
Y459013D01*
X3447786Y449016D01*
X3427793D01*
X3417796Y459013D01*
X727496Y659039D02*
Y719020D01*
X757487D01*
X767484Y709023D01*
Y689030D01*
X757487Y679033D01*
X727496D01*
X747490D02*
X767484Y659039D01*
X787477D02*
X807471D01*
X797474D01*
Y719020D01*
X787477Y709023D01*
X837461Y719020D02*
X877448D01*
Y709023D01*
X837461Y669036D01*
Y659039D01*
X1200342Y659051D02*
Y719032D01*
X1230333D01*
X1240330Y709035D01*
Y689042D01*
X1230333Y679045D01*
X1200342D01*
X1220336D02*
X1240330Y659051D01*
X1260323D02*
X1280317D01*
X1270320D01*
Y719032D01*
X1260323Y709035D01*
X1350294Y719032D02*
X1330300Y709035D01*
X1310307Y689042D01*
Y669048D01*
X1320304Y659051D01*
X1340297D01*
X1350294Y669048D01*
Y679045D01*
X1340297Y689042D01*
X1310307D01*
X1712153Y659051D02*
Y719032D01*
X1742144D01*
X1752141Y709035D01*
Y689042D01*
X1742144Y679045D01*
X1712153D01*
X1732147D02*
X1752141Y659051D01*
X1772134D02*
X1792128D01*
X1782131D01*
Y719032D01*
X1772134Y709035D01*
X1862105Y719032D02*
X1822118D01*
Y689042D01*
X1842111Y699038D01*
X1852108D01*
X1862105Y689042D01*
Y669048D01*
X1852108Y659051D01*
X1832115D01*
X1822118Y669048D01*
X746567Y421606D02*
Y481587D01*
X776557D01*
X786554Y471590D01*
Y451596D01*
X776557Y441600D01*
X746567D01*
X806548Y421606D02*
X826541D01*
X816544D01*
Y481587D01*
X806548Y471590D01*
X3534449Y59980D02*
Y-0D01*
X3574436D01*
X3634417Y59980D02*
X3594430D01*
Y-0D01*
X3634417D01*
X3594430Y29990D02*
X3614423D01*
X3654410Y59980D02*
Y-0D01*
X3684400D01*
X3694397Y9997D01*
Y49984D01*
X3684400Y59980D01*
X3654410D01*
X3714391Y-0D02*
X3734384D01*
X3724387D01*
Y59980D01*
X3714391Y49984D01*
X291000Y2411485D02*
Y2351504D01*
X330987D01*
X390968Y2401488D02*
X380971Y2411485D01*
X360977D01*
X350981Y2401488D01*
Y2361501D01*
X360977Y2351504D01*
X380971D01*
X390968Y2361501D01*
X410961Y2411485D02*
Y2351504D01*
X440952D01*
X450948Y2361501D01*
Y2401488D01*
X440952Y2411485D01*
X410961D01*
X470942Y2351504D02*
X490935D01*
X480939D01*
Y2411485D01*
X470942Y2401488D01*
X113570Y1825689D02*
X93576D01*
X103573D01*
Y1775706D01*
X93576Y1765709D01*
X83579D01*
X73583Y1775706D01*
X133563Y1765709D02*
X153557D01*
X143560D01*
Y1825689D01*
X133563Y1815693D01*
X1996483Y52296D02*
X1956496D01*
Y22305D01*
X1976490D01*
X1956496D01*
Y-7685D01*
X2056464Y52296D02*
X2016477D01*
Y22305D01*
X2036470Y32302D01*
X2046467D01*
X2056464Y22305D01*
Y2312D01*
X2046467Y-7685D01*
X2026474D01*
X2016477Y2312D01*
X3481000Y2325485D02*
Y2265504D01*
X3510990D01*
X3520987Y2275501D01*
Y2315488D01*
X3510990Y2325485D01*
X3481000D01*
X3580968Y2315488D02*
X3570971Y2325485D01*
X3550977D01*
X3540981Y2315488D01*
Y2305491D01*
X3550977Y2295494D01*
X3570971D01*
X3580968Y2285497D01*
Y2275501D01*
X3570971Y2265504D01*
X3550977D01*
X3540981Y2275501D01*
X3600961Y2265504D02*
X3620955D01*
X3610958D01*
Y2325485D01*
X3600961Y2315488D01*
X3292780Y263398D02*
Y203417D01*
X3322770D01*
X3332767Y213414D01*
Y253401D01*
X3322770Y263398D01*
X3292780D01*
X3352760D02*
X3392747D01*
Y253401D01*
X3352760Y213414D01*
Y203417D01*
X3062067Y-27559D02*
X3122047D01*
Y2431D01*
X3112050Y12428D01*
X3072063D01*
X3062067Y2431D01*
Y-27559D01*
Y72409D02*
X3072063Y52415D01*
X3092057Y32422D01*
X3112050D01*
X3122047Y42418D01*
Y62412D01*
X3112050Y72409D01*
X3102054D01*
X3092057Y62412D01*
Y32422D01*
X435000Y808485D02*
Y748504D01*
X464990D01*
X474987Y758501D01*
Y798488D01*
X464990Y808485D01*
X435000D01*
X534968D02*
X494981D01*
Y778494D01*
X514974Y788491D01*
X524971D01*
X534968Y778494D01*
Y758501D01*
X524971Y748504D01*
X504977D01*
X494981Y758501D01*
X935000Y808485D02*
Y748504D01*
X964990D01*
X974987Y758501D01*
Y798488D01*
X964990Y808485D01*
X935000D01*
X1024971Y748504D02*
Y808485D01*
X994981Y778494D01*
X1034968D01*
X1435000Y808485D02*
Y748504D01*
X1464990D01*
X1474987Y758501D01*
Y798488D01*
X1464990Y808485D01*
X1435000D01*
X1494981Y798488D02*
X1504977Y808485D01*
X1524971D01*
X1534968Y798488D01*
Y788491D01*
X1524971Y778494D01*
X1514974D01*
X1524971D01*
X1534968Y768497D01*
Y758501D01*
X1524971Y748504D01*
X1504977D01*
X1494981Y758501D01*
X3735324Y798066D02*
Y738085D01*
X3765315D01*
X3775311Y748082D01*
Y788069D01*
X3765315Y798066D01*
X3735324D01*
X3835292Y738085D02*
X3795305D01*
X3835292Y778072D01*
Y788069D01*
X3825295Y798066D01*
X3805302D01*
X3795305Y788069D01*
X3816389Y354456D02*
X3806392Y364453D01*
X3786398D01*
X3776402Y354456D01*
Y314469D01*
X3786398Y304472D01*
X3806392D01*
X3816389Y314469D01*
X3836382D02*
X3846379Y304472D01*
X3866372D01*
X3876369Y314469D01*
Y354456D01*
X3866372Y364453D01*
X3846379D01*
X3836382Y354456D01*
Y344459D01*
X3846379Y334463D01*
X3876369D01*
D57*
X3848425Y84646D02*
X3858268D01*
Y271654D01*
X3848425D02*
X3858268D01*
X3769685D02*
X3779528D01*
X3769685Y84646D02*
Y271654D01*
Y84646D02*
X3779528D01*
X3769685Y178150D02*
X3858268D01*
X3413386Y421260D02*
X3421260D01*
Y287402D02*
Y421260D01*
X3413386Y287402D02*
X3421260D01*
X3350394Y421260D02*
X3358268D01*
X3350394Y287402D02*
Y421260D01*
Y287402D02*
X3358268D01*
X3350394Y354331D02*
X3421260D01*
X720472Y618110D02*
Y625984D01*
X854331D01*
Y618110D02*
Y625984D01*
X720472Y555118D02*
Y562992D01*
Y555118D02*
X854331D01*
Y562992D01*
X787402Y555118D02*
Y625984D01*
X3114173Y472441D02*
X3185039D01*
X3177165Y539370D02*
X3185039D01*
Y405512D02*
Y539370D01*
X3177165Y405512D02*
X3185039D01*
X3114173Y539370D02*
X3122047D01*
X3114173Y405512D02*
Y539370D01*
Y405512D02*
X3122047D01*
X1771653Y555118D02*
Y625984D01*
X1838583Y555118D02*
Y562992D01*
X1704724Y555118D02*
X1838583D01*
X1704724D02*
Y562992D01*
X1838583Y618110D02*
Y625984D01*
X1704724D02*
X1838583D01*
X1704724Y618110D02*
Y625984D01*
X1259842Y555118D02*
Y625984D01*
X1326772Y555118D02*
Y562992D01*
X1192913Y555118D02*
X1326772D01*
X1192913D02*
Y562992D01*
X1326772Y618110D02*
Y625984D01*
X1192913D02*
X1326772D01*
X1192913Y618110D02*
Y625984D01*
D87*
X3247913Y-65000D02*
G03*
X3247913Y-65000I-3937J0D01*
G01*
X290748Y894488D02*
Y2311811D01*
Y894488D02*
X3440354D01*
Y2311811D01*
X290748D02*
X3440354D01*
D88*
X3477283Y2229921D02*
X4430039D01*
X4430039Y828346D01*
X3477284D02*
X4430039D01*
X3477283Y2229921D02*
X3477284Y828346D01*
%TF.MD5,479b4448d7fc205bc71a91a67766c952*%
M02*
