%TF.GenerationSoftware,Altium Limited,Altium Designer,18.1.7 (191)*%
G04 Layer_Color=16711935*
%FSLAX26Y26*%
%MOIN*%
%TF.FileFunction,Soldermask,Bot*%
%TF.Part,Single*%
G01*
G75*
%TA.AperFunction,SMDPad,CuDef*%
%ADD59R,0.039496X0.043433*%
%ADD60R,0.043433X0.039496*%
%ADD61R,0.061150X0.053276*%
%ADD62O,0.065087X0.031622*%
%ADD63R,0.053276X0.061150*%
%ADD64R,0.063118X0.059181*%
%ADD65R,0.047370X0.043433*%
%ADD66R,0.045402X0.041465*%
%ADD67R,0.059181X0.051307*%
%ADD68R,0.043433X0.047370*%
%ADD69O,0.072961X0.027685*%
%ADD70R,0.031622X0.047370*%
%ADD71R,0.078866X0.047370*%
%ADD72R,0.061150X0.019811*%
%ADD73R,0.019811X0.061150*%
%ADD74R,0.041465X0.045402*%
%TA.AperFunction,ComponentPad*%
%ADD75C,0.078866*%
%ADD76C,0.008000*%
%ADD77C,0.086740*%
%ADD78R,0.063118X0.063118*%
%ADD79C,0.066268*%
%TA.AperFunction,ViaPad*%
%ADD80C,0.173354*%
%TA.AperFunction,ComponentPad*%
%ADD81C,0.126110*%
%ADD82R,0.086740X0.086740*%
%ADD83C,0.047370*%
%ADD84R,0.067055X0.067055*%
%ADD85C,0.067055*%
%TA.AperFunction,ViaPad*%
%ADD86C,0.038000*%
%ADD87C,0.058000*%
%ADD88C,0.033000*%
D59*
X3488189Y1358268D02*
D03*
X3525590Y1437008D02*
D03*
X3450787D02*
D03*
D60*
X905512Y1407480D02*
D03*
X984252Y1370079D02*
D03*
Y1444882D02*
D03*
X2059055Y1228740D02*
D03*
X1980315Y1266142D02*
D03*
Y1191339D02*
D03*
X3307087Y-198819D02*
D03*
Y-273622D02*
D03*
X3228347Y-236220D02*
D03*
X1779528Y1309055D02*
D03*
Y1234252D02*
D03*
X1700787Y1271653D02*
D03*
X3307087Y789370D02*
D03*
Y864173D02*
D03*
X3385827Y826772D02*
D03*
X1535433Y273622D02*
D03*
Y198819D02*
D03*
X1456693Y236220D02*
D03*
X1468504Y1124016D02*
D03*
Y1049213D02*
D03*
X1389764Y1086614D02*
D03*
X3503937Y789370D02*
D03*
Y864173D02*
D03*
X3582677Y826772D02*
D03*
X787402Y1446850D02*
D03*
Y1372047D02*
D03*
X708661Y1409449D02*
D03*
X2598425Y942913D02*
D03*
Y1017716D02*
D03*
X2677165Y980315D02*
D03*
X2152913Y942913D02*
D03*
Y1017716D02*
D03*
X2231654Y980315D02*
D03*
D61*
X944882Y1727362D02*
D03*
Y1658465D02*
D03*
X3206245Y1203740D02*
D03*
Y1134842D02*
D03*
X1417323Y1963583D02*
D03*
Y1894685D02*
D03*
X3661417Y792323D02*
D03*
Y861221D02*
D03*
X1803150Y954724D02*
D03*
Y1023622D02*
D03*
X2019685Y945866D02*
D03*
Y1014764D02*
D03*
X3228347Y792323D02*
D03*
Y861221D02*
D03*
X3385827Y-270669D02*
D03*
Y-201772D02*
D03*
X2830709Y957677D02*
D03*
Y1026575D02*
D03*
X2381890Y941929D02*
D03*
Y1010827D02*
D03*
X822835Y1060039D02*
D03*
Y1128937D02*
D03*
X1019685Y1132874D02*
D03*
Y1063976D02*
D03*
X1618110Y953740D02*
D03*
Y1022638D02*
D03*
X1614173Y201772D02*
D03*
Y270669D02*
D03*
D62*
X3276575Y1806773D02*
D03*
Y1756773D02*
D03*
Y1706773D02*
D03*
Y1656773D02*
D03*
X3062008Y1806773D02*
D03*
Y1756773D02*
D03*
Y1706773D02*
D03*
Y1656773D02*
D03*
D63*
X2136811Y1811024D02*
D03*
X2067913D02*
D03*
X3971457Y1220472D02*
D03*
X3902559D02*
D03*
X3587598Y1889764D02*
D03*
X3656496D02*
D03*
X1969488Y1992126D02*
D03*
X2038386D02*
D03*
X3587599Y236220D02*
D03*
X3656496D02*
D03*
X3813976Y1220472D02*
D03*
X3745079D02*
D03*
X3587599D02*
D03*
X3656496D02*
D03*
X4050197Y1889764D02*
D03*
X3981299D02*
D03*
X4247047D02*
D03*
X4178150D02*
D03*
X4099409Y1220472D02*
D03*
X4168307D02*
D03*
X3853347Y1889764D02*
D03*
X3784449D02*
D03*
D64*
X944882Y1960630D02*
D03*
Y1897638D02*
D03*
D65*
X2086614Y1404528D02*
D03*
Y1351378D02*
D03*
X1181102Y1312008D02*
D03*
Y1365158D02*
D03*
X1377953Y1312008D02*
D03*
Y1365158D02*
D03*
X1220472Y1758858D02*
D03*
Y1705709D02*
D03*
X1102362Y1941929D02*
D03*
Y1995079D02*
D03*
X2695147Y1237205D02*
D03*
Y1290354D02*
D03*
X2803150Y1245079D02*
D03*
Y1298228D02*
D03*
X2521417Y1272638D02*
D03*
Y1325787D02*
D03*
X3062992Y1473425D02*
D03*
Y1526575D02*
D03*
X3279528Y1941929D02*
D03*
Y1995079D02*
D03*
X3149606Y1941929D02*
D03*
Y1995079D02*
D03*
D66*
X1614173Y1403543D02*
D03*
Y1352362D02*
D03*
X1929134Y1403543D02*
D03*
Y1352362D02*
D03*
X3275591Y1592520D02*
D03*
Y1541339D02*
D03*
X2913386Y1994094D02*
D03*
Y1942913D02*
D03*
X2992126Y1994094D02*
D03*
Y1942913D02*
D03*
D67*
X1220472Y1883858D02*
D03*
Y1974409D02*
D03*
X1062992Y1698819D02*
D03*
Y1608268D02*
D03*
D68*
X2165709Y2007874D02*
D03*
X2218858D02*
D03*
X617126Y1732284D02*
D03*
X563976D02*
D03*
D69*
X1835630Y1984016D02*
D03*
Y1957401D02*
D03*
Y1930787D02*
D03*
Y1904173D02*
D03*
Y1877559D02*
D03*
Y1850945D02*
D03*
Y1824331D02*
D03*
Y1797716D02*
D03*
Y1771102D02*
D03*
Y1744488D02*
D03*
Y1717874D02*
D03*
Y1691260D02*
D03*
Y1664646D02*
D03*
Y1638031D02*
D03*
X1550197Y1984016D02*
D03*
Y1957401D02*
D03*
Y1930787D02*
D03*
Y1904173D02*
D03*
Y1877559D02*
D03*
Y1850945D02*
D03*
Y1824331D02*
D03*
Y1797716D02*
D03*
Y1771102D02*
D03*
Y1744488D02*
D03*
Y1717874D02*
D03*
Y1691260D02*
D03*
Y1664646D02*
D03*
Y1638031D02*
D03*
D70*
X588583Y1914370D02*
D03*
X551181D02*
D03*
X513780D02*
D03*
Y2022638D02*
D03*
X588583D02*
D03*
D71*
X3149606Y-291339D02*
D03*
Y-181102D02*
D03*
X1377953Y181102D02*
D03*
Y291339D02*
D03*
X629921Y1023622D02*
D03*
Y1133858D02*
D03*
X1216535Y1019685D02*
D03*
Y1129921D02*
D03*
D72*
X2785433Y1624016D02*
D03*
Y1643701D02*
D03*
Y1663386D02*
D03*
Y1683071D02*
D03*
Y1702756D02*
D03*
Y1722441D02*
D03*
Y1742126D02*
D03*
Y1761811D02*
D03*
Y1781496D02*
D03*
Y1801181D02*
D03*
Y1820866D02*
D03*
Y1840551D02*
D03*
Y1860236D02*
D03*
Y1879921D02*
D03*
Y1899606D02*
D03*
Y1919291D02*
D03*
X2332677D02*
D03*
Y1899606D02*
D03*
Y1879921D02*
D03*
Y1860236D02*
D03*
Y1840551D02*
D03*
Y1820866D02*
D03*
Y1801181D02*
D03*
Y1781496D02*
D03*
Y1761811D02*
D03*
Y1742126D02*
D03*
Y1722441D02*
D03*
Y1702756D02*
D03*
Y1683071D02*
D03*
Y1663386D02*
D03*
Y1643701D02*
D03*
Y1624016D02*
D03*
D73*
X2706693Y1998031D02*
D03*
X2687008D02*
D03*
X2667323D02*
D03*
X2647638D02*
D03*
X2627953D02*
D03*
X2608268D02*
D03*
X2588583D02*
D03*
X2568898D02*
D03*
X2549213D02*
D03*
X2529528D02*
D03*
X2509843D02*
D03*
X2490157D02*
D03*
X2470472D02*
D03*
X2450787D02*
D03*
X2431102D02*
D03*
X2411417D02*
D03*
Y1545275D02*
D03*
X2431102D02*
D03*
X2450787D02*
D03*
X2470472D02*
D03*
X2490157D02*
D03*
X2509843D02*
D03*
X2529528D02*
D03*
X2549213D02*
D03*
X2568898D02*
D03*
X2588583D02*
D03*
X2608268D02*
D03*
X2627953D02*
D03*
X2647638D02*
D03*
X2667323D02*
D03*
X2687008D02*
D03*
X2706693D02*
D03*
D74*
X3509843Y1602362D02*
D03*
X3458661D02*
D03*
X3620079D02*
D03*
X3568898D02*
D03*
D75*
X1989921Y156890D02*
D03*
X2108032D02*
D03*
X2226142D02*
D03*
X2344252D02*
D03*
X2462362D02*
D03*
X2580472D02*
D03*
X2698583D02*
D03*
X2048976Y294685D02*
D03*
X2167087D02*
D03*
X2285197D02*
D03*
X2403307D02*
D03*
X2521417D02*
D03*
X2639528D02*
D03*
X2048976Y452165D02*
D03*
X2167087D02*
D03*
X2285197D02*
D03*
X2403307D02*
D03*
X2521417D02*
D03*
X2639528D02*
D03*
X1989921Y589961D02*
D03*
X2108032D02*
D03*
X2226142D02*
D03*
X2344252D02*
D03*
X2462362D02*
D03*
X2580472D02*
D03*
X2698583D02*
D03*
D76*
X2875748Y373425D02*
D03*
X448189Y2154528D02*
D03*
X3282835D02*
D03*
Y1052165D02*
D03*
X448189D02*
D03*
D77*
X692284Y2209646D02*
D03*
X792284D02*
D03*
X892284D02*
D03*
X992284D02*
D03*
X1092284D02*
D03*
X1192284D02*
D03*
X1292284D02*
D03*
X1392284D02*
D03*
X1492284D02*
D03*
X1592284D02*
D03*
X1692284D02*
D03*
X1792284D02*
D03*
X1892284D02*
D03*
X1992284D02*
D03*
X2092284D02*
D03*
X2192284D02*
D03*
X2292284D02*
D03*
X2392284D02*
D03*
X2492284D02*
D03*
X2592284D02*
D03*
X4232283Y725197D02*
D03*
X4114173D02*
D03*
X1823622Y-177165D02*
D03*
Y-59055D02*
D03*
X3754449Y1005512D02*
D03*
X3854449D02*
D03*
X3954449D02*
D03*
X4054449D02*
D03*
X4154449D02*
D03*
X4254449D02*
D03*
Y2103937D02*
D03*
X4154449D02*
D03*
X4054449D02*
D03*
X3954449D02*
D03*
X3854449D02*
D03*
X3754449D02*
D03*
X3654449D02*
D03*
D78*
X3361575Y1808071D02*
D03*
Y1217520D02*
D03*
Y1375000D02*
D03*
Y1650591D02*
D03*
D79*
X3795984Y597362D02*
D03*
X3895984D02*
D03*
X1595984D02*
D03*
X1495984D02*
D03*
X1095984D02*
D03*
X995984D02*
D03*
X595984D02*
D03*
X495984D02*
D03*
D80*
X4543307Y1507874D02*
D03*
X1161614Y178150D02*
D03*
X147441Y1228740D02*
D03*
X3987008Y266142D02*
D03*
D81*
X4173228Y555118D02*
D03*
X1653543Y-118110D02*
D03*
D82*
X3654449Y1005512D02*
D03*
D83*
X2834646Y-196850D02*
D03*
Y-96850D02*
D03*
Y-296850D02*
D03*
D84*
X2222835Y-236220D02*
D03*
D85*
X2322835D02*
D03*
X2422835D02*
D03*
D86*
X2153347Y1945433D02*
D03*
X3488621Y1398642D02*
D03*
X1476249Y1437008D02*
D03*
X2370074Y1574800D02*
D03*
X1880229Y406481D02*
D03*
X1244094Y496063D02*
D03*
X913386Y688976D02*
D03*
X3137795Y1195507D02*
D03*
X3275591Y1207399D02*
D03*
X2012796Y1615618D02*
D03*
X1814961Y1372695D02*
D03*
X1993519Y1358268D02*
D03*
X2139577Y1451526D02*
D03*
X1357072Y1692913D02*
D03*
X1149606Y1787402D02*
D03*
X1057721Y1308164D02*
D03*
X2551022Y2125984D02*
D03*
X2669286Y2062988D02*
D03*
X2429134Y2106299D02*
D03*
X2571089Y1293802D02*
D03*
X2781152Y1177483D02*
D03*
X2626142Y1178010D02*
D03*
X3476378Y531496D02*
D03*
X3620079Y492126D02*
D03*
X3346457Y-118110D02*
D03*
X3327802Y322835D02*
D03*
X3188976Y275591D02*
D03*
X3192913Y110236D02*
D03*
X3276386Y39559D02*
D03*
X3185039Y-338583D02*
D03*
X1578740Y837142D02*
D03*
X1299213D02*
D03*
X1448228Y637795D02*
D03*
X1389764Y1023622D02*
D03*
X787402Y1328740D02*
D03*
X1425197Y1480315D02*
D03*
X1082677Y1070866D02*
D03*
X2094042Y874016D02*
D03*
X1787402Y409449D02*
D03*
X1614173Y1299213D02*
D03*
X1216535Y964567D02*
D03*
X1047244Y799213D02*
D03*
X1037402Y974409D02*
D03*
X874016Y866142D02*
D03*
X1125984Y397638D02*
D03*
X3397638Y484252D02*
D03*
X1535433Y110236D02*
D03*
X3397638Y531496D02*
D03*
X3572047Y685039D02*
D03*
X3464567D02*
D03*
X2007874Y866142D02*
D03*
X1909449Y468504D02*
D03*
X1365551Y365551D02*
D03*
X1433071Y433071D02*
D03*
X1476378Y401575D02*
D03*
X1374016Y468504D02*
D03*
X2323036Y759842D02*
D03*
X2311023Y826772D02*
D03*
X2279528Y82677D02*
D03*
X2170514Y47244D02*
D03*
X1862205Y996063D02*
D03*
X1933071Y1459884D02*
D03*
X3656496Y1159449D02*
D03*
X3745079Y1158465D02*
D03*
X3177165Y1732284D02*
D03*
X3622047Y1669291D02*
D03*
X3433071Y1775591D02*
D03*
X3464567Y1669291D02*
D03*
X681102Y295276D02*
D03*
X1562992Y1574803D02*
D03*
X1956693Y1806102D02*
D03*
X2039366Y1566926D02*
D03*
X3525590Y1319354D02*
D03*
X3425197Y1321071D02*
D03*
X2400310Y818898D02*
D03*
X2492126Y836402D02*
D03*
X2814961Y1535433D02*
D03*
X2938650Y1775591D02*
D03*
X2888575Y1657480D02*
D03*
X2944882Y1728347D02*
D03*
X2980315Y1648459D02*
D03*
X2857638Y1696850D02*
D03*
X2839638Y1742126D02*
D03*
X2888575Y1607447D02*
D03*
X2980315Y1549213D02*
D03*
X3614173Y2015748D02*
D03*
X3748032Y2000756D02*
D03*
X3937008Y1988189D02*
D03*
X4157480Y1952756D02*
D03*
X2709286Y2061063D02*
D03*
X2763774Y2133854D02*
D03*
X2759843Y2185039D02*
D03*
X2799023Y2240157D02*
D03*
X2724409Y2251968D02*
D03*
X2795270Y2066925D02*
D03*
X2796069Y2109443D02*
D03*
X2712598Y1940945D02*
D03*
X2657480Y1909449D02*
D03*
X2602362Y1803150D02*
D03*
X2791339Y2023622D02*
D03*
X2494807Y2094488D02*
D03*
X2708661Y1425197D02*
D03*
X2659351Y2212598D02*
D03*
X2551932Y1641732D02*
D03*
X1783465Y1480315D02*
D03*
X2082677Y1574803D02*
D03*
X1869878Y1570866D02*
D03*
X2043307Y1736220D02*
D03*
X2157480Y1633858D02*
D03*
X2235338Y1685039D02*
D03*
X2212598Y1748032D02*
D03*
X2191339Y1669291D02*
D03*
X2173228Y1539370D02*
D03*
X3153543Y795276D02*
D03*
X3094488Y1157480D02*
D03*
X2877953Y1169291D02*
D03*
X2779528Y1370079D02*
D03*
X2783465Y1413386D02*
D03*
X2442274Y1748936D02*
D03*
X2477003Y1717913D02*
D03*
X2527559Y1687488D02*
D03*
X2271937Y1744488D02*
D03*
X2249220Y1780716D02*
D03*
X3574803Y1157480D02*
D03*
Y1302354D02*
D03*
X2503932Y1425194D02*
D03*
X2594488Y1389764D02*
D03*
X3807087Y1145669D02*
D03*
X3779528Y1082677D02*
D03*
X2374011Y1181107D02*
D03*
Y1374013D02*
D03*
X2397633Y1417320D02*
D03*
X2375399Y1500993D02*
D03*
X2409449Y1212598D02*
D03*
X2291334Y1535430D02*
D03*
X2307082Y1476375D02*
D03*
X2263780Y1476378D02*
D03*
X2331819Y1514640D02*
D03*
X1940945Y397638D02*
D03*
X2220468Y1330706D02*
D03*
X2295276Y1370079D02*
D03*
X1989921Y374016D02*
D03*
X2248032Y1862205D02*
D03*
X2669291Y1650591D02*
D03*
X2637795Y1771653D02*
D03*
X2566929Y1830709D02*
D03*
X2535433Y1862205D02*
D03*
Y1925197D02*
D03*
X1964567Y1614173D02*
D03*
X2748032Y1586614D02*
D03*
X2196850Y1899606D02*
D03*
X1968504Y1933071D02*
D03*
X1898701Y1974197D02*
D03*
X2003937Y1811024D02*
D03*
X1905512Y1877953D02*
D03*
X1896162Y1925197D02*
D03*
X1165354Y2035433D02*
D03*
X2842520Y2232284D02*
D03*
X2569370Y1893701D02*
D03*
D87*
X1406653Y777402D02*
D03*
X360748Y1557126D02*
D03*
X545276Y1439961D02*
D03*
X360748Y1649094D02*
D03*
X464567Y1287520D02*
D03*
Y1677402D02*
D03*
X1917323Y1687913D02*
D03*
X1661417Y1187109D02*
D03*
X1708661Y901575D02*
D03*
X2724409Y726517D02*
D03*
X2962199Y824961D02*
D03*
X2259370Y1172480D02*
D03*
X2507711Y992126D02*
D03*
X1494402Y1300706D02*
D03*
X1748032Y1607447D02*
D03*
X1669291Y1939449D02*
D03*
X795276Y2017409D02*
D03*
X586409Y2169291D02*
D03*
X744095Y1677165D02*
D03*
X625984Y1430276D02*
D03*
X303150Y1208661D02*
D03*
X196850Y929134D02*
D03*
X598425Y444882D02*
D03*
X370079Y515748D02*
D03*
X671009Y110236D02*
D03*
X1836510Y231449D02*
D03*
X1473267Y-122047D02*
D03*
X2599952Y-94266D02*
D03*
X2210103Y-110608D02*
D03*
X3000000Y468504D02*
D03*
X3015748Y208661D02*
D03*
X3483554Y118110D02*
D03*
X4322835Y491011D02*
D03*
X3876249Y830709D02*
D03*
X4318898Y1176489D02*
D03*
X4236221Y1610236D02*
D03*
X3744095Y1346529D02*
D03*
X3751811Y1610236D02*
D03*
X3184886Y1475493D02*
D03*
X3062992Y1866142D02*
D03*
X3471850Y2210669D02*
D03*
X3142795Y2128494D02*
D03*
X2912992Y2160709D02*
D03*
X3904508Y1398642D02*
D03*
X3070866Y1216535D02*
D03*
X2897638Y2078937D02*
D03*
X2448819Y1318280D02*
D03*
X2444882Y1165354D02*
D03*
X1417323Y1751968D02*
D03*
X1023622Y1941929D02*
D03*
X1338583Y1894685D02*
D03*
X1365158Y1522638D02*
D03*
X1456693Y1574803D02*
D03*
D88*
X2074213Y524212D02*
D03*
%TF.MD5,07b1699c5627f587f60b5c362f9b33b1*%
M02*
