%TF.GenerationSoftware,Altium Limited,Altium Designer,18.1.9 (240)*%
G04 Layer_Color=8421504*
%FSLAX26Y26*%
%MOIN*%
%TF.FileFunction,Paste,Top*%
%TF.Part,Single*%
G01*
G75*
%TA.AperFunction,ConnectorPad*%
%ADD10R,0.053150X0.015748*%
%ADD11R,0.055118X0.062992*%
%ADD12R,0.051181X0.057087*%
%TA.AperFunction,SMDPad,CuDef*%
%ADD13R,0.074803X0.074803*%
%ADD14R,0.070866X0.051181*%
%ADD15R,0.053150X0.045276*%
%ADD16R,0.043307X0.051181*%
%ADD17R,0.057087X0.053150*%
%ADD18R,0.029921X0.094488*%
%ADD19R,0.045276X0.053150*%
%ADD20R,0.074803X0.035433*%
%ADD21R,0.031496X0.035433*%
%ADD22R,0.070866X0.039370*%
D10*
X226378Y1622716D02*
D03*
Y1597126D02*
D03*
Y1571535D02*
D03*
Y1545945D02*
D03*
Y1520354D02*
D03*
D11*
X217520Y1697520D02*
D03*
Y1445551D02*
D03*
D12*
X121063Y1706378D02*
D03*
Y1436693D02*
D03*
D13*
Y1618780D02*
D03*
Y1524291D02*
D03*
D14*
X3813976Y121063D02*
D03*
Y235236D02*
D03*
D15*
X3385827Y388779D02*
D03*
Y319882D02*
D03*
X3149606Y506890D02*
D03*
Y437992D02*
D03*
D16*
X3576772Y118110D02*
D03*
X3667323D02*
D03*
D17*
X3188976Y58071D02*
D03*
Y-58071D02*
D03*
D18*
X966142Y312992D02*
D03*
Y159449D02*
D03*
X916142Y312992D02*
D03*
Y159449D02*
D03*
X866142Y312992D02*
D03*
Y159449D02*
D03*
X816142Y312992D02*
D03*
Y159449D02*
D03*
X766142Y312992D02*
D03*
Y159449D02*
D03*
D19*
X752953Y590551D02*
D03*
X821850D02*
D03*
X1806102D02*
D03*
X1737205D02*
D03*
X1294291D02*
D03*
X1225394D02*
D03*
D20*
X3338583Y148622D02*
D03*
Y-22638D02*
D03*
D21*
X3188976Y157480D02*
D03*
X3151575Y236220D02*
D03*
X3226378D02*
D03*
D22*
X1988189Y-173228D02*
D03*
Y-62992D02*
D03*
%TF.MD5,7643dfb916fea5ed124ba97f7a53a1b0*%
M02*
