%TF.GenerationSoftware,Altium Limited,Altium Designer,18.1.9 (240)*%
G04 Layer_Color=255*
%FSLAX26Y26*%
%MOIN*%
%TF.FileFunction,Pads,Top*%
%TF.Part,Single*%
G01*
G75*
%TA.AperFunction,ConnectorPad*%
%ADD10R,0.053150X0.015748*%
%ADD11R,0.055118X0.062992*%
%ADD12R,0.051181X0.057087*%
%TA.AperFunction,SMDPad,CuDef*%
%ADD13R,0.074803X0.074803*%
%ADD14R,0.070866X0.051181*%
%ADD15R,0.053150X0.045276*%
%ADD16R,0.043307X0.051181*%
%ADD17R,0.057087X0.053150*%
%ADD18R,0.029921X0.094488*%
%ADD19R,0.045276X0.053150*%
%ADD20R,0.074803X0.035433*%
%ADD21R,0.031496X0.035433*%
%ADD22R,0.070866X0.039370*%
%TA.AperFunction,ComponentPad*%
%ADD29R,0.055118X0.055118*%
%ADD30C,0.078740*%
%ADD31C,0.070866*%
%ADD32C,0.058268*%
%TA.AperFunction,ViaPad*%
%ADD33C,0.165354*%
%TA.AperFunction,ComponentPad*%
%ADD34C,0.118110*%
%ADD35R,0.078740X0.078740*%
%ADD36C,0.039370*%
%ADD37R,0.059055X0.059055*%
%ADD38C,0.059055*%
D10*
X226378Y1622716D02*
D03*
Y1597126D02*
D03*
Y1571535D02*
D03*
Y1545945D02*
D03*
Y1520354D02*
D03*
D11*
X217520Y1697520D02*
D03*
Y1445551D02*
D03*
D12*
X121063Y1706378D02*
D03*
Y1436693D02*
D03*
D13*
Y1618780D02*
D03*
Y1524291D02*
D03*
D14*
X3813976Y121063D02*
D03*
Y235236D02*
D03*
D15*
X3385827Y388779D02*
D03*
Y319882D02*
D03*
X3149606Y506890D02*
D03*
Y437992D02*
D03*
D16*
X3576772Y118110D02*
D03*
X3667323D02*
D03*
D17*
X3188976Y58071D02*
D03*
Y-58071D02*
D03*
D18*
X966142Y312992D02*
D03*
Y159449D02*
D03*
X916142Y312992D02*
D03*
Y159449D02*
D03*
X866142Y312992D02*
D03*
Y159449D02*
D03*
X816142Y312992D02*
D03*
Y159449D02*
D03*
X766142Y312992D02*
D03*
Y159449D02*
D03*
D19*
X752953Y590551D02*
D03*
X821850D02*
D03*
X1806102D02*
D03*
X1737205D02*
D03*
X1294291D02*
D03*
X1225394D02*
D03*
D20*
X3338583Y148622D02*
D03*
Y-22638D02*
D03*
D21*
X3188976Y157480D02*
D03*
X3151575Y236220D02*
D03*
X3226378D02*
D03*
D22*
X1988189Y-173228D02*
D03*
Y-62992D02*
D03*
D29*
X3361614Y1650394D02*
D03*
Y1374803D02*
D03*
Y1217323D02*
D03*
Y1807874D02*
D03*
D30*
X2592323Y2209449D02*
D03*
X2492323D02*
D03*
X2392323D02*
D03*
X2292323D02*
D03*
X2192323D02*
D03*
X2092323D02*
D03*
X1992323D02*
D03*
X1892323D02*
D03*
X1792323D02*
D03*
X1692323D02*
D03*
X1592323D02*
D03*
X1492323D02*
D03*
X1392323D02*
D03*
X1292323D02*
D03*
X1192323D02*
D03*
X1092323D02*
D03*
X992323D02*
D03*
X892323D02*
D03*
X792323D02*
D03*
X692323D02*
D03*
X4232283Y725197D02*
D03*
X4114173D02*
D03*
X1823622Y-177165D02*
D03*
Y-59055D02*
D03*
X3754449Y1005512D02*
D03*
X3854449D02*
D03*
X3954449D02*
D03*
X4054449D02*
D03*
X4154449D02*
D03*
X4254449D02*
D03*
Y2103937D02*
D03*
X4154449D02*
D03*
X4054449D02*
D03*
X3954449D02*
D03*
X3854449D02*
D03*
X3754449D02*
D03*
X3654449D02*
D03*
D31*
X1989921Y156890D02*
D03*
X2108032D02*
D03*
X2226142D02*
D03*
X2344252D02*
D03*
X2462362D02*
D03*
X2580472D02*
D03*
X2698583D02*
D03*
X2048976Y294685D02*
D03*
X2167087D02*
D03*
X2285197D02*
D03*
X2403307D02*
D03*
X2521417D02*
D03*
X2639528D02*
D03*
X2048976Y452165D02*
D03*
X2167087D02*
D03*
X2285197D02*
D03*
X2403307D02*
D03*
X2521417D02*
D03*
X2639528D02*
D03*
X1989921Y589961D02*
D03*
X2108032D02*
D03*
X2226142D02*
D03*
X2344252D02*
D03*
X2462362D02*
D03*
X2580472D02*
D03*
X2698583D02*
D03*
D32*
X3795984Y597362D02*
D03*
X3895984D02*
D03*
X1595984D02*
D03*
X1495984D02*
D03*
X1095984D02*
D03*
X995984D02*
D03*
X595984D02*
D03*
X495984D02*
D03*
D33*
X4543307Y1507874D02*
D03*
X1161614Y178150D02*
D03*
X158661Y928228D02*
D03*
X3987008Y266142D02*
D03*
D34*
X4173228Y555118D02*
D03*
X1653543Y-118110D02*
D03*
D35*
X3654449Y1005512D02*
D03*
D36*
X2834646Y-196850D02*
D03*
Y-96850D02*
D03*
Y-296850D02*
D03*
D37*
X2222835Y-236220D02*
D03*
D38*
X2322835D02*
D03*
X2422835D02*
D03*
%TF.MD5,8979f3764c3c798d652d226f09aea952*%
M02*
