%TF.GenerationSoftware,Altium Limited,Altium Designer,18.1.7 (191)*%
G04 Layer_Physical_Order=2*
G04 Layer_Color=16711680*
%FSLAX26Y26*%
%MOIN*%
%TF.FileFunction,Copper,L2,Bot,Signal*%
%TF.Part,Single*%
G01*
G75*
%TA.AperFunction,SMDPad,CuDef*%
%ADD15R,0.053150X0.045276*%
%ADD19R,0.045276X0.053150*%
%ADD21R,0.031496X0.035433*%
%ADD22R,0.070866X0.039370*%
%TA.AperFunction,Conductor*%
%ADD23C,0.010000*%
%ADD24C,0.008000*%
%ADD26C,0.015000*%
%TA.AperFunction,ComponentPad*%
%ADD29C,0.070866*%
%ADD30C,0.078740*%
%ADD31R,0.055118X0.055118*%
%ADD32C,0.058268*%
%TA.AperFunction,ViaPad*%
%ADD33C,0.165354*%
%TA.AperFunction,ComponentPad*%
%ADD34C,0.118110*%
%ADD35R,0.078740X0.078740*%
%ADD36C,0.039370*%
%ADD37R,0.059055X0.059055*%
%ADD38C,0.059055*%
%TA.AperFunction,ViaPad*%
%ADD39C,0.030000*%
%ADD40C,0.050000*%
%ADD41C,0.025000*%
%TA.AperFunction,SMDPad,CuDef*%
%ADD42R,0.035433X0.031496*%
%ADD43O,0.057087X0.023622*%
%ADD44R,0.055118X0.051181*%
%ADD45R,0.039370X0.035433*%
%ADD46R,0.037402X0.033465*%
%ADD47R,0.051181X0.043307*%
%ADD48R,0.035433X0.039370*%
%ADD49O,0.064961X0.019685*%
%ADD50R,0.023622X0.039370*%
%ADD51R,0.053150X0.011811*%
%ADD52R,0.011811X0.053150*%
%ADD53R,0.033465X0.037402*%
G36*
X4364173Y1860236D02*
X4688504Y1860236D01*
X4688504Y822459D01*
X4117795Y0D01*
X3467716D01*
Y-398031D01*
X1220866D01*
Y0D01*
X570866D01*
X-0Y816929D01*
Y1860236D01*
X334646D01*
Y2303150D01*
X1163258D01*
X1163849Y2297150D01*
X1158801Y2296146D01*
X1153839Y2292830D01*
X1114776Y2253767D01*
X1105172Y2257745D01*
X1092284Y2259442D01*
X1079395Y2257745D01*
X1067385Y2252770D01*
X1057072Y2244857D01*
X1049159Y2234544D01*
X1045531Y2225785D01*
X1039036D01*
X1035408Y2234544D01*
X1027495Y2244857D01*
X1017182Y2252770D01*
X1005172Y2257745D01*
X992284Y2259442D01*
X979395Y2257745D01*
X967385Y2252770D01*
X957072Y2244857D01*
X949159Y2234544D01*
X945531Y2225785D01*
X939036D01*
X935408Y2234544D01*
X927495Y2244857D01*
X917182Y2252770D01*
X905172Y2257745D01*
X892284Y2259442D01*
X879395Y2257745D01*
X869791Y2253767D01*
X837586Y2285972D01*
X832624Y2289287D01*
X826772Y2290451D01*
X424764D01*
X418911Y2289287D01*
X413949Y2285972D01*
X348438Y2220460D01*
X345122Y2215498D01*
X343958Y2209646D01*
Y1838704D01*
X341414Y1836160D01*
X250315D01*
X244462Y1834996D01*
X239500Y1831680D01*
X160650Y1752830D01*
X157335Y1747869D01*
X156171Y1742016D01*
Y1420911D01*
X21942Y1286682D01*
X18626Y1281720D01*
X17462Y1275867D01*
Y838307D01*
X18626Y832455D01*
X21942Y827493D01*
X102816Y746618D01*
Y708662D01*
X103981Y702809D01*
X107296Y697847D01*
X290808Y514334D01*
Y436772D01*
X291973Y430919D01*
X295288Y425957D01*
X575257Y145988D01*
Y65945D01*
X576422Y60092D01*
X579737Y55130D01*
X606312Y28556D01*
X611273Y25240D01*
X617126Y24076D01*
X1246579D01*
X1276990Y-6335D01*
Y-308031D01*
X1278154Y-313884D01*
X1281469Y-318846D01*
X1343768Y-381145D01*
X1348730Y-384460D01*
X1354583Y-385625D01*
X2661165D01*
X2667018Y-384460D01*
X2671980Y-381145D01*
X2827300Y-225825D01*
X2834646Y-226792D01*
X2842395Y-225771D01*
X2849616Y-222780D01*
X2855817Y-218022D01*
X2860575Y-211821D01*
X2862805Y-206438D01*
X2869110Y-204258D01*
X2966284Y-301432D01*
X2966285Y-301432D01*
X2970915Y-304526D01*
X2976378Y-305613D01*
X2976378Y-305613D01*
X3104173D01*
Y-321024D01*
X3160341D01*
X3163169Y-326315D01*
X3161490Y-328828D01*
X3159550Y-338583D01*
X3161490Y-348337D01*
X3167015Y-356607D01*
X3175285Y-362132D01*
X3185039Y-364072D01*
X3194794Y-362132D01*
X3203063Y-356607D01*
X3205569Y-352857D01*
X3242126D01*
X3242126Y-352857D01*
X3247588Y-351770D01*
X3252220Y-348676D01*
X3301526Y-299370D01*
X3334803D01*
Y-247874D01*
X3321087D01*
X3320274Y-243792D01*
X3317180Y-239161D01*
X3317180Y-239160D01*
X3308130Y-230110D01*
X3310426Y-224567D01*
X3334803D01*
Y-216046D01*
X3349252D01*
Y-234409D01*
X3349252Y-234409D01*
Y-238032D01*
X3349252D01*
X3349252Y-240410D01*
Y-303307D01*
X3422402D01*
Y-254281D01*
X3436731Y-239952D01*
X3436731Y-239952D01*
X3439825Y-235321D01*
X3440912Y-229858D01*
X3440912Y-229858D01*
Y578205D01*
X3542255Y679548D01*
X3547996Y677806D01*
X3548498Y675285D01*
X3554023Y667015D01*
X3562293Y661490D01*
X3572047Y659550D01*
X3581802Y661490D01*
X3590071Y667015D01*
X3595597Y675285D01*
X3597537Y685039D01*
X3596657Y689462D01*
X3666880Y759685D01*
X3697992D01*
Y824961D01*
X3697992D01*
Y828583D01*
X3697992D01*
Y893858D01*
X3624843D01*
Y875495D01*
X3531653D01*
Y889921D01*
X3476220D01*
Y841046D01*
X3413543D01*
Y852520D01*
X3358110D01*
Y801024D01*
X3413543D01*
Y812497D01*
X3476220D01*
Y794370D01*
X3503937D01*
X3531653D01*
Y812497D01*
X3554961D01*
Y801024D01*
X3568403D01*
Y746070D01*
X3490731Y668398D01*
X3486071Y672223D01*
X3488116Y675285D01*
X3490057Y685039D01*
X3488116Y694794D01*
X3482591Y703063D01*
X3474321Y708589D01*
X3464567Y710529D01*
X3454812Y708589D01*
X3446543Y703063D01*
X3444037Y699314D01*
X2942311D01*
X2936848Y698227D01*
X2932217Y695133D01*
X2932217Y695133D01*
X2691154Y454070D01*
X2684819Y456220D01*
X2683791Y464026D01*
X2680213Y472664D01*
X2840802Y633253D01*
X2843896Y637884D01*
X2844983Y643346D01*
X2844983Y643347D01*
Y925039D01*
X2867284D01*
Y990315D01*
X2867284D01*
Y993937D01*
X2867284D01*
Y1059213D01*
X2794134D01*
Y1031991D01*
X2626142D01*
Y1043465D01*
X2570709D01*
Y991968D01*
X2626142D01*
Y1003442D01*
X2649449D01*
Y963689D01*
X2631685Y945925D01*
X2626142Y948221D01*
Y968661D01*
X2603425D01*
Y942913D01*
X2598425D01*
Y937913D01*
X2570709D01*
Y921566D01*
X2418465D01*
Y935529D01*
X2420465D01*
X2425927Y936615D01*
X2430558Y939710D01*
X2433652Y944341D01*
X2434739Y949803D01*
Y1038435D01*
X2434739Y1038435D01*
X2433652Y1043898D01*
X2430558Y1048529D01*
X2430558Y1048529D01*
X2423529Y1055558D01*
X2418898Y1058652D01*
X2413435Y1059739D01*
X2413435Y1059739D01*
X2284267D01*
X2187503Y1156503D01*
Y1291777D01*
X2193046Y1294073D01*
X2197227Y1289892D01*
X2202189Y1286576D01*
X2208042Y1285412D01*
X2231447D01*
X2283579Y1233280D01*
X2288540Y1229965D01*
X2294393Y1228801D01*
X2383843D01*
X2386672Y1223509D01*
X2385899Y1222353D01*
X2383959Y1212598D01*
X2384345Y1210659D01*
X2379242Y1205556D01*
X2374011Y1206597D01*
X2364256Y1204657D01*
X2355987Y1199131D01*
X2350461Y1190862D01*
X2348521Y1181107D01*
X2350461Y1171353D01*
X2355987Y1163083D01*
X2358717Y1161259D01*
Y1154201D01*
X2359881Y1148348D01*
X2363197Y1143387D01*
X2410043Y1096540D01*
X2415005Y1093225D01*
X2420858Y1092060D01*
X3082845D01*
X3180407Y994499D01*
Y975576D01*
X3181571Y969723D01*
X3184886Y964761D01*
X3195431Y954217D01*
X3200392Y950902D01*
X3206245Y949738D01*
X3318927D01*
X3324779Y950902D01*
X3329741Y954217D01*
X3442907Y1067383D01*
X3759679D01*
X3761504Y1064653D01*
X3769773Y1059128D01*
X3779528Y1057187D01*
X3789282Y1059128D01*
X3797552Y1064653D01*
X3803077Y1072923D01*
X3805017Y1082677D01*
X3803077Y1092432D01*
X3802305Y1093588D01*
X3805133Y1098879D01*
X3889764D01*
X3895616Y1100043D01*
X3900578Y1103359D01*
X3981117Y1183898D01*
X4004095D01*
Y1225991D01*
X4009638Y1228287D01*
X4041238Y1196688D01*
Y1053477D01*
X4029551Y1048637D01*
X4019238Y1040723D01*
X4011324Y1030410D01*
X4007696Y1021651D01*
X4001202D01*
X3997573Y1030410D01*
X3989660Y1040723D01*
X3979347Y1048637D01*
X3967337Y1053611D01*
X3954449Y1055308D01*
X3941561Y1053611D01*
X3929551Y1048637D01*
X3919238Y1040723D01*
X3911324Y1030410D01*
X3907696Y1021651D01*
X3901202D01*
X3897573Y1030410D01*
X3889660Y1040723D01*
X3879347Y1048637D01*
X3867337Y1053611D01*
X3854449Y1055308D01*
X3841561Y1053611D01*
X3829551Y1048637D01*
X3819238Y1040723D01*
X3811324Y1030410D01*
X3807696Y1021651D01*
X3801202D01*
X3797573Y1030410D01*
X3789660Y1040723D01*
X3779347Y1048637D01*
X3767337Y1053611D01*
X3754449Y1055308D01*
X3741561Y1053611D01*
X3729551Y1048637D01*
X3719238Y1040723D01*
X3711324Y1030410D01*
X3709819Y1026776D01*
X3703819Y1027969D01*
Y1054882D01*
X3605079D01*
Y956142D01*
X3703819D01*
Y983054D01*
X3709819Y984248D01*
X3711324Y980614D01*
X3719238Y970301D01*
X3729551Y962387D01*
X3741561Y957413D01*
X3754449Y955716D01*
X3767337Y957413D01*
X3779347Y962387D01*
X3789660Y970301D01*
X3797573Y980614D01*
X3801202Y989373D01*
X3807696D01*
X3811324Y980614D01*
X3819238Y970301D01*
X3829551Y962387D01*
X3841561Y957413D01*
X3854449Y955716D01*
X3867337Y957413D01*
X3879347Y962387D01*
X3889660Y970301D01*
X3897573Y980614D01*
X3901202Y989373D01*
X3907696D01*
X3911324Y980614D01*
X3919238Y970301D01*
X3929551Y962387D01*
X3941561Y957413D01*
X3954449Y955716D01*
X3967337Y957413D01*
X3979347Y962387D01*
X3989660Y970301D01*
X3997573Y980614D01*
X4001202Y989373D01*
X4007696D01*
X4011324Y980614D01*
X4019238Y970301D01*
X4029551Y962387D01*
X4041561Y957413D01*
X4054449Y955716D01*
X4067337Y957413D01*
X4079347Y962387D01*
X4089660Y970301D01*
X4097574Y980614D01*
X4101202Y989373D01*
X4107696D01*
X4111324Y980614D01*
X4119238Y970301D01*
X4129551Y962387D01*
X4141561Y957413D01*
X4154449Y955716D01*
X4167337Y957413D01*
X4179347Y962387D01*
X4189660Y970301D01*
X4197574Y980614D01*
X4201202Y989373D01*
X4207696D01*
X4211324Y980614D01*
X4219238Y970301D01*
X4229551Y962387D01*
X4241561Y957413D01*
X4254449Y955716D01*
X4267337Y957413D01*
X4279347Y962387D01*
X4289660Y970301D01*
X4297574Y980614D01*
X4302548Y992624D01*
X4304245Y1005512D01*
X4302548Y1018400D01*
X4297574Y1030410D01*
X4289660Y1040723D01*
X4279347Y1048637D01*
X4267337Y1053611D01*
X4254449Y1055308D01*
X4241561Y1053611D01*
X4229551Y1048637D01*
X4219238Y1040723D01*
X4211324Y1030410D01*
X4207696Y1021651D01*
X4201202D01*
X4197574Y1030410D01*
X4189660Y1040723D01*
X4182581Y1046155D01*
Y1183898D01*
X4200945D01*
Y1257047D01*
X4138047D01*
X4132047Y1257047D01*
X4129669Y1257047D01*
X4084463D01*
X4054649Y1286862D01*
X4049687Y1290177D01*
X4043835Y1291341D01*
X3936807D01*
X3930954Y1290177D01*
X3925992Y1286862D01*
X3922141Y1283010D01*
X3599161D01*
X3595954Y1289010D01*
X3598353Y1292600D01*
X3600293Y1302354D01*
X3598353Y1312109D01*
X3592827Y1320378D01*
X3584558Y1325904D01*
X3574803Y1327844D01*
X3565049Y1325904D01*
X3556779Y1320378D01*
X3550575Y1321893D01*
X3549140Y1329109D01*
X3543615Y1337378D01*
X3540884Y1339203D01*
Y1409291D01*
X3551338D01*
Y1441127D01*
X3579712Y1469501D01*
X3583027Y1474462D01*
X3584191Y1480315D01*
Y1573661D01*
X3646811D01*
Y1631063D01*
X3636322D01*
Y1648762D01*
X3640071Y1651267D01*
X3645597Y1659537D01*
X3647537Y1669291D01*
X3645597Y1679046D01*
X3640071Y1687315D01*
X3631802Y1692841D01*
X3622047Y1694781D01*
X3612293Y1692841D01*
X3604023Y1687315D01*
X3598498Y1679046D01*
X3596557Y1669291D01*
X3598498Y1659537D01*
X3604023Y1651267D01*
X3607773Y1648762D01*
Y1631063D01*
X3584191D01*
Y1687291D01*
X3583027Y1693144D01*
X3579712Y1698106D01*
X3524877Y1752940D01*
X3519916Y1756256D01*
X3514063Y1757420D01*
X3458213D01*
X3455006Y1763420D01*
X3456620Y1765836D01*
X3458561Y1775591D01*
X3456620Y1785345D01*
X3451095Y1793615D01*
X3442825Y1799140D01*
X3433071Y1801080D01*
X3423316Y1799140D01*
X3415047Y1793615D01*
X3412541Y1789865D01*
X3404012D01*
X3404012Y1789865D01*
X3403772Y1789817D01*
X3399134Y1793624D01*
Y1845630D01*
X3396419D01*
X3394123Y1851173D01*
X3481121Y1938170D01*
X3484988Y1943959D01*
X3486347Y1950787D01*
X3486347Y1950788D01*
Y2055118D01*
Y2099359D01*
X3529952Y2142964D01*
X3614761D01*
X3617562Y2136964D01*
X3611324Y2128835D01*
X3606349Y2116825D01*
X3604653Y2103937D01*
X3606349Y2091049D01*
X3611061Y2079673D01*
X3572977Y2041590D01*
X3569883Y2036959D01*
X3568796Y2031496D01*
X3568797Y2031496D01*
Y1926339D01*
X3554961D01*
Y1853189D01*
X3620236D01*
Y1853189D01*
X3623858D01*
Y1853189D01*
X3689134D01*
Y1926339D01*
X3670770D01*
Y1973425D01*
X3669684Y1978888D01*
X3666589Y1983519D01*
X3666589Y1983519D01*
X3638783Y2011325D01*
X3639663Y2015748D01*
X3637723Y2025503D01*
X3632197Y2033772D01*
X3623928Y2039297D01*
X3620272Y2040025D01*
X3618297Y2046535D01*
X3631689Y2059927D01*
X3641561Y2055838D01*
X3654449Y2054141D01*
X3667337Y2055838D01*
X3679347Y2060812D01*
X3689660Y2068726D01*
X3697573Y2079039D01*
X3701202Y2087798D01*
X3707696D01*
X3711324Y2079039D01*
X3719238Y2068726D01*
X3729551Y2060812D01*
X3741561Y2055838D01*
X3754449Y2054141D01*
X3767337Y2055838D01*
X3779347Y2060812D01*
X3789660Y2068726D01*
X3797573Y2079039D01*
X3801202Y2087798D01*
X3807696D01*
X3811324Y2079039D01*
X3819238Y2068726D01*
X3829551Y2060812D01*
X3841238Y2055972D01*
Y1926339D01*
X3817087Y1926339D01*
X3814709Y1926339D01*
X3798723D01*
Y1964338D01*
X3798723Y1964339D01*
X3797637Y1969801D01*
X3794542Y1974432D01*
X3794542Y1974432D01*
X3772642Y1996333D01*
X3773521Y2000756D01*
X3771581Y2010510D01*
X3766055Y2018780D01*
X3757786Y2024305D01*
X3748032Y2026246D01*
X3738277Y2024305D01*
X3730008Y2018780D01*
X3724482Y2010510D01*
X3722542Y2000756D01*
X3724482Y1991001D01*
X3730008Y1982732D01*
X3738277Y1977206D01*
X3748032Y1975266D01*
X3752454Y1976146D01*
X3770175Y1958426D01*
Y1926339D01*
X3751811D01*
Y1853189D01*
X3814709D01*
X3820709Y1853189D01*
X3823087Y1853189D01*
X3885984D01*
X3886665Y1847471D01*
Y1429067D01*
X3879546Y1423604D01*
X3873936Y1416293D01*
X3870409Y1407778D01*
X3869206Y1398642D01*
X3870409Y1389505D01*
X3873936Y1380991D01*
X3879546Y1373679D01*
X3886857Y1368069D01*
X3895371Y1364543D01*
X3904508Y1363340D01*
X3913645Y1364543D01*
X3922159Y1368069D01*
X3929470Y1373679D01*
X3935080Y1380991D01*
X3938607Y1389505D01*
X3939810Y1398642D01*
X3938607Y1407778D01*
X3935080Y1416293D01*
X3929470Y1423604D01*
X3922351Y1429067D01*
Y1961248D01*
X3928351Y1964421D01*
X3937008Y1962699D01*
X3941431Y1963579D01*
X3967025Y1937985D01*
Y1926339D01*
X3948661D01*
Y1853189D01*
X4011559D01*
X4017559Y1853189D01*
X4019937Y1853189D01*
X4082835D01*
Y1902215D01*
X4127720Y1947100D01*
X4133462Y1945359D01*
X4133931Y1943001D01*
X4139456Y1934732D01*
X4143985Y1931706D01*
X4145512Y1926339D01*
X4145512Y1926339D01*
Y1853189D01*
X4208409D01*
X4214409Y1853189D01*
X4216788Y1853189D01*
X4279685D01*
Y1926339D01*
X4269786D01*
Y2056852D01*
X4279347Y2060812D01*
X4289660Y2068726D01*
X4297574Y2079039D01*
X4302548Y2091049D01*
X4304245Y2103937D01*
X4302548Y2116825D01*
X4297574Y2128835D01*
X4289660Y2139148D01*
X4279347Y2147062D01*
X4267337Y2152036D01*
X4254449Y2153733D01*
X4241561Y2152036D01*
X4229551Y2147062D01*
X4219238Y2139148D01*
X4211324Y2128835D01*
X4207696Y2120076D01*
X4201202D01*
X4197574Y2128835D01*
X4189660Y2139148D01*
X4179347Y2147062D01*
X4167337Y2152036D01*
X4154449Y2153733D01*
X4141561Y2152036D01*
X4129551Y2147062D01*
X4119238Y2139148D01*
X4111324Y2128835D01*
X4107696Y2120076D01*
X4101202D01*
X4097574Y2128835D01*
X4089660Y2139148D01*
X4079347Y2147062D01*
X4067337Y2152036D01*
X4054449Y2153733D01*
X4041561Y2152036D01*
X4029551Y2147062D01*
X4019238Y2139148D01*
X4011324Y2128835D01*
X4007696Y2120076D01*
X4001202D01*
X3997573Y2128835D01*
X3989660Y2139148D01*
X3979347Y2147062D01*
X3967337Y2152036D01*
X3954449Y2153733D01*
X3941561Y2152036D01*
X3935257Y2149425D01*
X3911258Y2173424D01*
X3905470Y2177292D01*
X3898642Y2178650D01*
X3522561D01*
X3515733Y2177292D01*
X3509944Y2173424D01*
X3455887Y2119367D01*
X3452019Y2113578D01*
X3450661Y2106750D01*
Y2072961D01*
X2936703D01*
X2932747Y2077472D01*
X2932940Y2078937D01*
X2931737Y2088074D01*
X2928210Y2096588D01*
X2922600Y2103899D01*
X2915289Y2109509D01*
X2906775Y2113036D01*
X2897638Y2114239D01*
X2888501Y2113036D01*
X2879987Y2109509D01*
X2872675Y2103899D01*
X2869196Y2099365D01*
X2862212Y2098230D01*
X2861357Y2098508D01*
X2859363Y2100185D01*
Y2183490D01*
X2858199Y2189343D01*
X2854884Y2194304D01*
X2847518Y2201670D01*
X2849493Y2208181D01*
X2852274Y2208734D01*
X2860544Y2214260D01*
X2866069Y2222529D01*
X2868010Y2232284D01*
X2866069Y2242038D01*
X2860544Y2250307D01*
X2852274Y2255833D01*
X2846194Y2257043D01*
X2822264Y2280972D01*
X2817303Y2284287D01*
X2811450Y2285451D01*
X2771663D01*
X2765810Y2284287D01*
X2760848Y2280972D01*
X2749450Y2269573D01*
X2742433Y2269992D01*
X2734164Y2275518D01*
X2724409Y2277458D01*
X2714655Y2275518D01*
X2706385Y2269992D01*
X2700860Y2261723D01*
X2698920Y2251968D01*
X2699061Y2251255D01*
X2693532Y2248299D01*
X2649001Y2292830D01*
X2644039Y2296146D01*
X2638992Y2297150D01*
X2639582Y2303150D01*
X4364173D01*
Y1860236D01*
D02*
G37*
G36*
X2694493Y2205727D02*
X2700345Y2204563D01*
X2735604D01*
X2738811Y2198563D01*
X2736293Y2194794D01*
X2734353Y2185039D01*
X2735233Y2180616D01*
X2727379Y2172762D01*
X2633775D01*
X2632640Y2174012D01*
X2630481Y2178327D01*
X2635408Y2184748D01*
X2637634Y2190122D01*
X2644966Y2192143D01*
X2649596Y2189049D01*
X2659351Y2187109D01*
X2669105Y2189049D01*
X2677374Y2194574D01*
X2682900Y2202844D01*
X2683621Y2206468D01*
X2687583Y2208194D01*
X2690166Y2208618D01*
X2694493Y2205727D01*
D02*
G37*
G36*
X2449159Y2184748D02*
X2457072Y2174434D01*
X2467385Y2166521D01*
X2479395Y2161546D01*
X2492284Y2159850D01*
X2505172Y2161546D01*
X2517182Y2166521D01*
X2527495Y2174434D01*
X2535408Y2184748D01*
X2539036Y2193507D01*
X2545531D01*
X2549159Y2184748D01*
X2557072Y2174434D01*
X2567385Y2166521D01*
X2579395Y2161546D01*
X2592284Y2159850D01*
X2605172Y2161546D01*
X2609403Y2163299D01*
X2612802Y2158213D01*
X2582288Y2127699D01*
X2575778Y2129674D01*
X2574571Y2135739D01*
X2569046Y2144008D01*
X2560776Y2149534D01*
X2556022Y2150479D01*
Y2125984D01*
X2551022D01*
Y2120984D01*
X2526527D01*
X2527472Y2116230D01*
X2532998Y2107960D01*
X2541267Y2102435D01*
X2549821Y2100733D01*
X2552082Y2099000D01*
X2554825Y2095133D01*
X2554623Y2094121D01*
X2554623Y2094121D01*
Y2034606D01*
X2552990D01*
Y1998031D01*
Y1961457D01*
X2689020D01*
X2692227Y1955457D01*
X2689049Y1950699D01*
X2687109Y1940945D01*
X2689049Y1931190D01*
X2694574Y1922921D01*
X2702844Y1917395D01*
X2712598Y1915455D01*
X2722353Y1917395D01*
X2730622Y1922921D01*
X2736148Y1931190D01*
X2738088Y1940945D01*
X2736148Y1950699D01*
X2730622Y1958969D01*
X2727892Y1960793D01*
Y1992126D01*
X2726728Y1997979D01*
X2723413Y2002940D01*
X2722598Y2003755D01*
Y2034606D01*
X2722599Y2034606D01*
X2722599D01*
X2723509Y2040499D01*
X2727310Y2043039D01*
X2732835Y2051309D01*
X2733191Y2053097D01*
X2739702Y2055072D01*
X2766729Y2028045D01*
X2765849Y2023622D01*
X2767789Y2013868D01*
X2773315Y2005598D01*
X2781584Y2000072D01*
X2791339Y1998132D01*
X2801093Y2000072D01*
X2809363Y2005598D01*
X2814888Y2013868D01*
X2816828Y2023622D01*
X2814888Y2033377D01*
X2809363Y2041646D01*
Y2046274D01*
X2813294Y2048901D01*
X2815144Y2051669D01*
X2823155Y2052859D01*
X2824344Y2051885D01*
Y2046716D01*
X2825508Y2040863D01*
X2828823Y2035901D01*
X2848391Y2016334D01*
Y1913341D01*
X2849555Y1907488D01*
X2852871Y1902526D01*
X2870966Y1884431D01*
Y1743530D01*
X2864966Y1742939D01*
X2863187Y1751880D01*
X2857662Y1760150D01*
X2849392Y1765675D01*
X2839638Y1767616D01*
X2829883Y1765675D01*
X2827339Y1763975D01*
X2822008Y1767629D01*
Y1785275D01*
Y1824646D01*
Y1864016D01*
Y1903386D01*
Y1935197D01*
X2748858D01*
Y1895215D01*
X2705568D01*
X2698315Y1902468D01*
X2693353Y1905783D01*
X2687501Y1906947D01*
X2685023D01*
X2682970Y1909449D01*
X2681030Y1919203D01*
X2675504Y1927473D01*
X2667235Y1932998D01*
X2657480Y1934939D01*
X2647726Y1932998D01*
X2639456Y1927473D01*
X2634446Y1919974D01*
X2628337Y1917598D01*
X2623419Y1922515D01*
X2618457Y1925831D01*
X2612605Y1926995D01*
X2606445D01*
X2597428Y1936011D01*
X2592467Y1939327D01*
X2586614Y1940491D01*
X2555281D01*
X2553457Y1943221D01*
X2545188Y1948746D01*
X2535433Y1950687D01*
X2525679Y1948746D01*
X2517409Y1943221D01*
X2511884Y1934951D01*
X2509943Y1925197D01*
X2511884Y1915442D01*
X2517409Y1907173D01*
X2525679Y1901647D01*
X2535433Y1899707D01*
X2539102Y1900437D01*
X2544205Y1895334D01*
X2543880Y1893701D01*
X2544205Y1892067D01*
X2539102Y1886965D01*
X2535433Y1887695D01*
X2525679Y1885754D01*
X2517409Y1880229D01*
X2511884Y1871959D01*
X2511720Y1871137D01*
X2505978Y1869395D01*
X2419461Y1955913D01*
X2421757Y1961457D01*
X2545435D01*
Y1998031D01*
Y2034606D01*
X2437909D01*
X2435613Y2040149D01*
X2470512Y2075049D01*
X2476783Y2076464D01*
X2485052Y2070939D01*
X2494807Y2068998D01*
X2504561Y2070939D01*
X2512831Y2076464D01*
X2518356Y2084734D01*
X2520297Y2094488D01*
X2518356Y2104243D01*
X2512831Y2112512D01*
X2504561Y2118038D01*
X2494807Y2119978D01*
X2485052Y2118038D01*
X2476783Y2112512D01*
X2474959Y2109782D01*
X2468323D01*
X2462470Y2108618D01*
X2460471Y2107282D01*
X2453909Y2109893D01*
X2452683Y2116054D01*
X2447158Y2124323D01*
X2438888Y2129849D01*
X2434134Y2130794D01*
Y2106299D01*
X2429134D01*
Y2101299D01*
X2404639D01*
X2405584Y2096545D01*
X2411110Y2088275D01*
X2419379Y2082750D01*
X2425294Y2081573D01*
X2427269Y2075063D01*
X2401383Y2049177D01*
X2398067Y2044215D01*
X2396903Y2038362D01*
Y2034606D01*
X2395512D01*
Y1987283D01*
X2389512Y1985580D01*
X2385401Y1988326D01*
X2379548Y1989491D01*
X2365568D01*
X2267686Y2087374D01*
X2262724Y2090689D01*
X2256871Y2091853D01*
X1731705D01*
X1655414Y2168144D01*
X1659378Y2172665D01*
X1667385Y2166521D01*
X1679395Y2161546D01*
X1692284Y2159850D01*
X1705172Y2161546D01*
X1717182Y2166521D01*
X1727495Y2174434D01*
X1735408Y2184748D01*
X1739036Y2193507D01*
X1745531D01*
X1749159Y2184748D01*
X1757072Y2174434D01*
X1767385Y2166521D01*
X1779395Y2161546D01*
X1792284Y2159850D01*
X1805172Y2161546D01*
X1817182Y2166521D01*
X1827495Y2174434D01*
X1835408Y2184748D01*
X1839036Y2193507D01*
X1845531D01*
X1849159Y2184748D01*
X1857072Y2174434D01*
X1867385Y2166521D01*
X1879395Y2161546D01*
X1892284Y2159850D01*
X1905172Y2161546D01*
X1917182Y2166521D01*
X1927495Y2174434D01*
X1935408Y2184748D01*
X1939036Y2193507D01*
X1945531D01*
X1949159Y2184748D01*
X1957072Y2174434D01*
X1967385Y2166521D01*
X1979395Y2161546D01*
X1992284Y2159850D01*
X2005172Y2161546D01*
X2017182Y2166521D01*
X2027495Y2174434D01*
X2035408Y2184748D01*
X2039036Y2193507D01*
X2045531D01*
X2049159Y2184748D01*
X2057072Y2174434D01*
X2067385Y2166521D01*
X2079395Y2161546D01*
X2092284Y2159850D01*
X2105172Y2161546D01*
X2117182Y2166521D01*
X2127495Y2174434D01*
X2135408Y2184748D01*
X2139036Y2193507D01*
X2145531D01*
X2149159Y2184748D01*
X2157072Y2174434D01*
X2167385Y2166521D01*
X2179395Y2161546D01*
X2192284Y2159850D01*
X2205172Y2161546D01*
X2217182Y2166521D01*
X2227495Y2174434D01*
X2235408Y2184748D01*
X2239036Y2193507D01*
X2245531D01*
X2249159Y2184748D01*
X2257072Y2174434D01*
X2267385Y2166521D01*
X2279395Y2161546D01*
X2292284Y2159850D01*
X2305172Y2161546D01*
X2317182Y2166521D01*
X2327495Y2174434D01*
X2335408Y2184748D01*
X2339036Y2193507D01*
X2345531D01*
X2349159Y2184748D01*
X2357072Y2174434D01*
X2367385Y2166521D01*
X2379395Y2161546D01*
X2392284Y2159850D01*
X2405172Y2161546D01*
X2417182Y2166521D01*
X2427495Y2174434D01*
X2435408Y2184748D01*
X2439036Y2193507D01*
X2445531D01*
X2449159Y2184748D01*
D02*
G37*
G36*
X1349159D02*
X1357072Y2174434D01*
X1367385Y2166521D01*
X1379395Y2161546D01*
X1392284Y2159850D01*
X1405172Y2161546D01*
X1414776Y2165524D01*
X1536904Y2043396D01*
X1534608Y2037853D01*
X1385705D01*
X1255414Y2168144D01*
X1259378Y2172665D01*
X1267385Y2166521D01*
X1279395Y2161546D01*
X1292284Y2159850D01*
X1305172Y2161546D01*
X1317182Y2166521D01*
X1327495Y2174434D01*
X1335408Y2184748D01*
X1339036Y2193507D01*
X1345531D01*
X1349159Y2184748D01*
D02*
G37*
G36*
X1567385Y2166521D02*
X1579395Y2161546D01*
X1592284Y2159850D01*
X1605172Y2161546D01*
X1614776Y2165524D01*
X1700904Y2079396D01*
X1698608Y2073853D01*
X1649705D01*
X1555414Y2168144D01*
X1559378Y2172665D01*
X1567385Y2166521D01*
D02*
G37*
G36*
X1467385D02*
X1479395Y2161546D01*
X1492284Y2159850D01*
X1505172Y2161546D01*
X1514776Y2165524D01*
X1618904Y2061396D01*
X1616608Y2055853D01*
X1567705D01*
X1455414Y2168144D01*
X1459378Y2172665D01*
X1467385Y2166521D01*
D02*
G37*
G36*
X4111324Y2079039D02*
X4119238Y2068726D01*
X4129551Y2060812D01*
X4141238Y2055972D01*
Y2000992D01*
X4066585Y1926339D01*
X4019937D01*
X4013937Y1926339D01*
X4011559Y1926339D01*
X3995573D01*
Y1943897D01*
X3995574Y1943898D01*
X3994487Y1949360D01*
X3991393Y1953991D01*
X3991392Y1953991D01*
X3961618Y1983766D01*
X3962498Y1988189D01*
X3960557Y1997944D01*
X3955032Y2006213D01*
X3946762Y2011738D01*
X3937008Y2013679D01*
X3928351Y2011957D01*
X3922351Y2015130D01*
Y2034912D01*
X3943076Y2055638D01*
X3954449Y2054141D01*
X3967337Y2055838D01*
X3979347Y2060812D01*
X3989660Y2068726D01*
X3997573Y2079039D01*
X4001202Y2087798D01*
X4007696D01*
X4011324Y2079039D01*
X4019238Y2068726D01*
X4029551Y2060812D01*
X4041561Y2055838D01*
X4054449Y2054141D01*
X4067337Y2055838D01*
X4079347Y2060812D01*
X4089660Y2068726D01*
X4097574Y2079039D01*
X4101202Y2087798D01*
X4107696D01*
X4111324Y2079039D01*
D02*
G37*
G36*
X2120091Y1888792D02*
X2125053Y1885476D01*
X2130906Y1884312D01*
X2172594D01*
X2173948Y1882479D01*
X2170921Y1876479D01*
X2012796D01*
X2012795Y1876479D01*
X2007333Y1875392D01*
X2002702Y1872298D01*
X2002702Y1872298D01*
X1961116Y1830712D01*
X1956693Y1831592D01*
X1946938Y1829652D01*
X1938669Y1824126D01*
X1938617Y1824048D01*
X1932617Y1825868D01*
Y1841003D01*
X1946326Y1854712D01*
X1949641Y1859674D01*
X1950806Y1865526D01*
Y1890379D01*
X1949641Y1896232D01*
X1949144Y1896976D01*
Y1908723D01*
X1955144Y1911930D01*
X1958749Y1909521D01*
X1968504Y1907581D01*
X1978258Y1909521D01*
X1986528Y1915047D01*
X1992053Y1923316D01*
X1993994Y1933071D01*
X1992053Y1942825D01*
X1987559Y1949551D01*
X1989514Y1954702D01*
X1990217Y1955551D01*
X2002126D01*
Y1955551D01*
X2005748D01*
Y1955551D01*
X2053332D01*
X2120091Y1888792D01*
D02*
G37*
G36*
X3450661Y1958178D02*
X3348958Y1856475D01*
X3345090Y1850686D01*
X3345089Y1850681D01*
X3342457Y1850074D01*
X3340827Y1850976D01*
X3337109Y1854891D01*
Y1952994D01*
X3336022Y1958457D01*
X3332928Y1963088D01*
X3332928Y1963088D01*
X3309213Y1986803D01*
Y2022795D01*
X3249843D01*
Y1967362D01*
Y1946929D01*
X3279528D01*
Y1941929D01*
X3284528D01*
Y1914213D01*
X3308560D01*
Y1858945D01*
X3278626Y1829011D01*
X3259842D01*
X3251332Y1827318D01*
X3244117Y1822498D01*
X3239297Y1815283D01*
X3237604Y1806773D01*
X3239297Y1798263D01*
X3244117Y1791048D01*
X3251332Y1786227D01*
X3258349Y1784832D01*
Y1778714D01*
X3251332Y1777318D01*
X3244117Y1772498D01*
X3239297Y1765283D01*
X3237604Y1756773D01*
X3239297Y1748263D01*
X3244117Y1741048D01*
X3251332Y1736227D01*
X3258349Y1734832D01*
Y1728714D01*
X3251332Y1727318D01*
X3244117Y1722498D01*
X3239297Y1715283D01*
X3237604Y1706773D01*
X3239297Y1698263D01*
X3244117Y1691048D01*
X3251332Y1686227D01*
X3258349Y1684832D01*
Y1678714D01*
X3251332Y1677318D01*
X3244117Y1672498D01*
X3239297Y1665283D01*
X3237604Y1656773D01*
X3239297Y1648263D01*
X3244117Y1641048D01*
X3251332Y1636227D01*
X3259842Y1634535D01*
X3261316D01*
Y1619252D01*
X3246890D01*
Y1565787D01*
Y1546339D01*
X3304291D01*
Y1565787D01*
Y1619252D01*
X3289865D01*
Y1634535D01*
X3293307D01*
X3301817Y1636227D01*
X3309032Y1641048D01*
X3313852Y1648263D01*
X3315545Y1656773D01*
X3313852Y1665283D01*
X3309032Y1672498D01*
X3301817Y1677318D01*
X3294800Y1678714D01*
Y1684832D01*
X3301817Y1686227D01*
X3309032Y1691048D01*
X3313852Y1698263D01*
X3315465Y1706367D01*
X3459295D01*
X3465394Y1700268D01*
X3462756Y1694421D01*
X3454812Y1692841D01*
X3446543Y1687315D01*
X3441017Y1679046D01*
X3439077Y1669291D01*
X3441017Y1659537D01*
X3446543Y1651267D01*
X3450293Y1648762D01*
Y1631063D01*
X3431929D01*
Y1573661D01*
X3494549D01*
Y1502398D01*
X3456875Y1464724D01*
X3425039D01*
Y1432889D01*
X3414383Y1422232D01*
X3411067Y1417270D01*
X3409903Y1411417D01*
Y1340919D01*
X3407173Y1339095D01*
X3406170Y1337594D01*
X3404962Y1337448D01*
X3399134Y1342629D01*
X3399134Y1343322D01*
X3399134Y1343324D01*
X3399134Y1343324D01*
Y1412559D01*
X3324016D01*
Y1337441D01*
X3393214D01*
X3394616Y1337441D01*
X3399328Y1336964D01*
X3399681Y1336612D01*
X3401047Y1333487D01*
X3401563Y1331388D01*
X3401647Y1330825D01*
X3401231Y1328730D01*
X3399707Y1321071D01*
X3401647Y1311316D01*
X3405395Y1305707D01*
X3402193Y1299707D01*
X3363575D01*
X3363575Y1299707D01*
X3358112Y1298621D01*
X3353481Y1295526D01*
X3351756Y1293802D01*
X3081803D01*
X3019055Y1356550D01*
X3014424Y1359644D01*
X3008962Y1360731D01*
X3008961Y1360731D01*
X2856306D01*
X2808075Y1408963D01*
X2808954Y1413386D01*
X2807014Y1423140D01*
X2803403Y1428545D01*
X2806610Y1434545D01*
X2948818D01*
X2948819Y1434544D01*
X2954281Y1435631D01*
X2958912Y1438725D01*
X2989424Y1469237D01*
X2992518Y1473868D01*
X2993605Y1479331D01*
X2993605Y1479331D01*
Y1528025D01*
X2998339Y1531189D01*
X3003865Y1539458D01*
X3005805Y1549213D01*
X3003865Y1558967D01*
X2998339Y1567237D01*
X2990942Y1572179D01*
X2988920Y1578643D01*
X3044889Y1634611D01*
X3045276Y1634535D01*
X3078740D01*
X3087250Y1636227D01*
X3094465Y1641048D01*
X3099286Y1648263D01*
X3100978Y1656773D01*
X3099286Y1665283D01*
X3094465Y1672498D01*
X3087250Y1677318D01*
X3080234Y1678714D01*
Y1684832D01*
X3087250Y1686227D01*
X3094465Y1691048D01*
X3099286Y1698263D01*
X3099984Y1701773D01*
X3062008D01*
X3024032D01*
X3024730Y1698263D01*
X3029551Y1691048D01*
X3036765Y1686227D01*
X3043782Y1684832D01*
Y1678714D01*
X3036765Y1677318D01*
X3029551Y1672498D01*
X3024730Y1665283D01*
X3023037Y1656773D01*
X3023641Y1653738D01*
X3010323Y1640420D01*
X3004794Y1643376D01*
X3005805Y1648459D01*
X3003865Y1658213D01*
X2998339Y1666483D01*
X2994589Y1668988D01*
Y1730308D01*
X3017606Y1753324D01*
X3024116Y1751349D01*
X3024730Y1748263D01*
X3029551Y1741048D01*
X3036765Y1736227D01*
X3043782Y1734832D01*
Y1728714D01*
X3036765Y1727318D01*
X3029551Y1722498D01*
X3024730Y1715283D01*
X3024032Y1711773D01*
X3062008D01*
X3099984D01*
X3099937Y1712009D01*
X3104131Y1718009D01*
X3156636D01*
X3159141Y1714259D01*
X3162891Y1711754D01*
Y1646661D01*
X3070522Y1554291D01*
X3033307D01*
Y1498858D01*
Y1478425D01*
X3092677D01*
Y1498858D01*
Y1536073D01*
X3187258Y1630654D01*
X3187259Y1630655D01*
X3190353Y1635285D01*
X3191440Y1640748D01*
X3191440Y1640748D01*
Y1711754D01*
X3195189Y1714259D01*
X3200715Y1722529D01*
X3202655Y1732284D01*
X3200715Y1742038D01*
X3195189Y1750307D01*
X3186920Y1755833D01*
X3177165Y1757773D01*
X3167411Y1755833D01*
X3159141Y1750307D01*
X3156636Y1746558D01*
X3104813D01*
X3100140Y1752558D01*
X3100978Y1756773D01*
X3099286Y1765283D01*
X3094465Y1772498D01*
X3087250Y1777318D01*
X3080234Y1778714D01*
Y1784832D01*
X3087250Y1786227D01*
X3094465Y1791048D01*
X3099286Y1798263D01*
X3100978Y1806773D01*
X3099286Y1815283D01*
X3094465Y1822498D01*
X3087250Y1827318D01*
X3079922Y1828776D01*
X3078892Y1832218D01*
X3079018Y1834896D01*
X3080643Y1835569D01*
X3087954Y1841179D01*
X3093564Y1848491D01*
X3097091Y1857005D01*
X3097636Y1861142D01*
X3028348D01*
X3028893Y1857005D01*
X3032420Y1848491D01*
X3038030Y1841179D01*
X3045341Y1835569D01*
X3046688Y1835011D01*
X3045495Y1829011D01*
X3045276D01*
X3036765Y1827318D01*
X3029551Y1822498D01*
X3024730Y1815283D01*
X3023037Y1806773D01*
X3024305Y1800398D01*
X3011944Y1788036D01*
X3006400Y1790332D01*
Y1916181D01*
X3020827D01*
Y1967362D01*
Y2020827D01*
X3011357D01*
Y2037275D01*
X3138249D01*
Y2022795D01*
X3119921D01*
Y1967362D01*
Y1946929D01*
X3179291D01*
Y1967362D01*
Y2022795D01*
X3168837D01*
Y2037275D01*
X3450661D01*
Y1958178D01*
D02*
G37*
G36*
X4211324Y2079039D02*
X4219238Y2068726D01*
X4229551Y2060812D01*
X4241238Y2055972D01*
Y1926339D01*
X4216788D01*
X4210787Y1926339D01*
X4208409Y1926339D01*
X4192424D01*
Y1932086D01*
X4192424Y1932087D01*
X4191337Y1937549D01*
X4188243Y1942180D01*
X4182090Y1948333D01*
X4182970Y1952756D01*
X4181030Y1962510D01*
X4175504Y1970780D01*
X4167235Y1976305D01*
X4164878Y1976774D01*
X4163136Y1982516D01*
X4165605Y1984985D01*
X4168699Y1989616D01*
X4169786Y1995079D01*
X4169786Y1995079D01*
Y2056852D01*
X4179347Y2060812D01*
X4189660Y2068726D01*
X4197574Y2079039D01*
X4201202Y2087798D01*
X4207696D01*
X4211324Y2079039D01*
D02*
G37*
G36*
X3911324D02*
X3913359Y2076387D01*
X3891891Y2054920D01*
X3888023Y2049131D01*
X3886665Y2042303D01*
Y1932057D01*
X3885984Y1926339D01*
X3869786D01*
Y2056852D01*
X3879347Y2060812D01*
X3889660Y2068726D01*
X3897573Y2079039D01*
X3901202Y2087798D01*
X3907696D01*
X3911324Y2079039D01*
D02*
G37*
G36*
X3604419Y1992198D02*
X3614173Y1990258D01*
X3618596Y1991138D01*
X3642222Y1967513D01*
Y1926339D01*
X3623858D01*
Y1926339D01*
X3620236D01*
Y1926339D01*
X3597345D01*
Y1990561D01*
X3602637Y1993389D01*
X3604419Y1992198D01*
D02*
G37*
G36*
X2137992Y1978189D02*
X2138053D01*
Y1965281D01*
X2135323Y1963457D01*
X2129797Y1955188D01*
X2127857Y1945433D01*
X2129797Y1935679D01*
X2135323Y1927409D01*
X2143592Y1921884D01*
X2148536Y1920900D01*
X2147945Y1914900D01*
X2137241D01*
X2071024Y1981117D01*
Y2025265D01*
X2137992D01*
Y1978189D01*
D02*
G37*
G36*
X2320150Y1940740D02*
X2317854Y1935197D01*
X2296102D01*
Y1933512D01*
X2295644Y1933421D01*
X2290683Y1930106D01*
X2269325Y1908748D01*
X2263325Y1911234D01*
Y1978701D01*
X2262161Y1984553D01*
X2258846Y1989515D01*
X2247429Y2000932D01*
X2247857Y2004575D01*
X2253981Y2006909D01*
X2320150Y1940740D01*
D02*
G37*
G36*
X2232738Y1972366D02*
Y1882053D01*
X2230008Y1880229D01*
X2227502Y1876479D01*
X2217215D01*
X2215474Y1882479D01*
X2220400Y1889852D01*
X2222340Y1899606D01*
X2220400Y1909361D01*
X2214874Y1917630D01*
X2206605Y1923156D01*
X2196850Y1925096D01*
X2187096Y1923156D01*
X2178826Y1917630D01*
X2177002Y1914900D01*
X2158748D01*
X2158157Y1920900D01*
X2163101Y1921884D01*
X2171370Y1927409D01*
X2176896Y1935679D01*
X2178836Y1945433D01*
X2176896Y1955188D01*
X2171370Y1963457D01*
X2168640Y1965281D01*
Y1978189D01*
X2226914D01*
X2232738Y1972366D01*
D02*
G37*
G36*
X2035276Y1774449D02*
X2100551D01*
Y1774449D01*
X2104173D01*
Y1774449D01*
X2121517D01*
Y1723819D01*
X2122681Y1717966D01*
X2125997Y1713005D01*
X2166490Y1672512D01*
X2165849Y1669291D01*
X2166986Y1663575D01*
X2161883Y1658472D01*
X2157480Y1659348D01*
X2147726Y1657408D01*
X2147244Y1657086D01*
X2141360Y1658257D01*
X2141162Y1658552D01*
X2141162Y1658553D01*
X2067917Y1731797D01*
X2068797Y1736220D01*
X2066857Y1745975D01*
X2061331Y1754245D01*
X2053062Y1759770D01*
X2043307Y1761710D01*
X2033553Y1759770D01*
X2025283Y1754245D01*
X2019758Y1745975D01*
X2017817Y1736220D01*
X2019758Y1726466D01*
X2025283Y1718197D01*
X2033553Y1712671D01*
X2043307Y1710731D01*
X2047730Y1711611D01*
X2114206Y1645135D01*
Y1621847D01*
X2114206Y1621846D01*
X2115293Y1616384D01*
X2118387Y1611753D01*
X2121587Y1608553D01*
X2119612Y1602042D01*
X2119513Y1602023D01*
X2105918Y1615618D01*
X2100956Y1618933D01*
X2095104Y1620097D01*
X2090508D01*
X1932617Y1777988D01*
Y1786336D01*
X1938617Y1788156D01*
X1938669Y1788078D01*
X1946938Y1782553D01*
X1956693Y1780612D01*
X1966447Y1782553D01*
X1974717Y1788078D01*
X1978351Y1793517D01*
X1985385Y1793789D01*
X1985913Y1793000D01*
X1994182Y1787474D01*
X2003937Y1785534D01*
X2013691Y1787474D01*
X2021961Y1793000D01*
X2023785Y1795730D01*
X2035276D01*
Y1774449D01*
D02*
G37*
G36*
X2980769Y2020827D02*
X2963425D01*
Y1967362D01*
Y1916181D01*
X2977852D01*
Y1781503D01*
X2969258Y1772910D01*
X2964026Y1776163D01*
X2962199Y1785345D01*
X2956674Y1793615D01*
X2948404Y1799140D01*
X2938650Y1801080D01*
X2935534Y1803638D01*
Y1905263D01*
X2935534Y1905263D01*
X2934556Y1910181D01*
X2934695Y1911128D01*
X2937609Y1915875D01*
X2938019Y1916181D01*
X2942087D01*
Y1967362D01*
Y2020827D01*
X2928680D01*
Y2037275D01*
X2980769D01*
Y2020827D01*
D02*
G37*
G36*
X670025Y2253864D02*
X667385Y2252770D01*
X657072Y2244857D01*
X649159Y2234544D01*
X644184Y2222534D01*
X643146Y2214646D01*
X692284D01*
Y2209646D01*
X697284D01*
Y2160508D01*
X705172Y2161546D01*
X714208Y2165289D01*
X717607Y2160203D01*
X609727Y2052323D01*
X566772D01*
Y1992953D01*
X610394D01*
Y2005813D01*
X612104Y2006153D01*
X617892Y2010021D01*
X772340Y2164469D01*
X779395Y2161546D01*
X792284Y2159850D01*
X805172Y2161546D01*
X814776Y2165524D01*
X865130Y2115170D01*
X870092Y2111855D01*
X875945Y2110690D01*
X965122D01*
X1072677Y2003135D01*
Y1967362D01*
Y1946929D01*
X1132047D01*
Y1967362D01*
Y1981747D01*
X1135814Y1984264D01*
X1162134Y2010584D01*
X1165354Y2009943D01*
X1175109Y2011884D01*
X1183378Y2017409D01*
X1188904Y2025679D01*
X1190844Y2035433D01*
X1188904Y2045188D01*
X1183378Y2053457D01*
X1175109Y2058983D01*
X1165354Y2060923D01*
X1155600Y2058983D01*
X1147330Y2053457D01*
X1141805Y2045188D01*
X1139864Y2035433D01*
X1140505Y2032213D01*
X1131088Y2022795D01*
X1096274D01*
X982271Y2136799D01*
X977309Y2140114D01*
X971457Y2141278D01*
X882280D01*
X855413Y2168144D01*
X859378Y2172665D01*
X867385Y2166521D01*
X879395Y2161546D01*
X892284Y2159850D01*
X905172Y2161546D01*
X917182Y2166521D01*
X927495Y2174434D01*
X935408Y2184748D01*
X939036Y2193507D01*
X945531D01*
X949159Y2184748D01*
X957072Y2174434D01*
X967385Y2166521D01*
X979395Y2161546D01*
X992284Y2159850D01*
X1005172Y2161546D01*
X1017182Y2166521D01*
X1027495Y2174434D01*
X1035408Y2184748D01*
X1039036Y2193507D01*
X1045531D01*
X1049159Y2184748D01*
X1057072Y2174434D01*
X1067385Y2166521D01*
X1079395Y2161546D01*
X1092284Y2159850D01*
X1105172Y2161546D01*
X1117182Y2166521D01*
X1127495Y2174434D01*
X1135408Y2184748D01*
X1139036Y2193507D01*
X1145531D01*
X1149159Y2184748D01*
X1157072Y2174434D01*
X1167385Y2166521D01*
X1179395Y2161546D01*
X1192284Y2159850D01*
X1205172Y2161546D01*
X1214776Y2165524D01*
X1368556Y2011745D01*
X1373517Y2008429D01*
X1379370Y2007265D01*
X1515839D01*
X1517659Y2001265D01*
X1513253Y1998321D01*
X1508868Y1991758D01*
X1507328Y1984016D01*
X1508868Y1976274D01*
X1512586Y1970709D01*
X1508868Y1965144D01*
X1507328Y1957401D01*
X1508868Y1949659D01*
X1512586Y1944094D01*
X1508868Y1938530D01*
X1508322Y1935787D01*
X1550197D01*
X1592071D01*
X1591526Y1938530D01*
X1587807Y1944094D01*
X1591526Y1949659D01*
X1593066Y1957401D01*
X1591526Y1965144D01*
X1587807Y1970709D01*
X1591526Y1976274D01*
X1593066Y1984016D01*
X1591526Y1991758D01*
X1587140Y1998321D01*
X1582734Y2001265D01*
X1584554Y2007265D01*
X1801272D01*
X1803092Y2001265D01*
X1798687Y1998321D01*
X1794301Y1991758D01*
X1792761Y1984016D01*
X1794301Y1976274D01*
X1798019Y1970709D01*
X1794301Y1965144D01*
X1792761Y1957401D01*
X1794301Y1949659D01*
X1798019Y1944094D01*
X1794301Y1938530D01*
X1792761Y1930787D01*
X1794301Y1923045D01*
X1795203Y1921695D01*
X1791996Y1915695D01*
X1788230D01*
X1782377Y1914531D01*
X1777416Y1911216D01*
X1652596Y1786396D01*
X1595802D01*
X1592007Y1792396D01*
X1592071Y1792716D01*
X1550197D01*
X1508322D01*
X1508868Y1789974D01*
X1512586Y1784409D01*
X1508868Y1778844D01*
X1507328Y1771102D01*
X1508104Y1767198D01*
X1507668Y1766695D01*
X1502648Y1763872D01*
X1499317Y1766098D01*
X1493465Y1767262D01*
X1448871D01*
X1447895Y1769620D01*
X1442285Y1776931D01*
X1434974Y1782541D01*
X1426460Y1786068D01*
X1417323Y1787271D01*
X1408186Y1786068D01*
X1399672Y1782541D01*
X1392361Y1776931D01*
X1386750Y1769620D01*
X1385774Y1767262D01*
X1269369D01*
X1263516Y1766098D01*
X1258555Y1762783D01*
X1255701Y1759929D01*
X1250157Y1762225D01*
Y1786575D01*
X1225472D01*
Y1758858D01*
X1220472D01*
Y1753858D01*
X1190787D01*
Y1731142D01*
Y1677992D01*
X1250157D01*
Y1711128D01*
X1275704Y1736675D01*
X1385774D01*
X1386750Y1734318D01*
X1392361Y1727006D01*
X1399672Y1721396D01*
X1408186Y1717869D01*
X1417323Y1716667D01*
X1426460Y1717869D01*
X1434974Y1721396D01*
X1442285Y1727006D01*
X1447895Y1734318D01*
X1448871Y1736675D01*
X1487130D01*
X1493902Y1729902D01*
X1498864Y1726587D01*
X1504716Y1725423D01*
X1506808Y1722874D01*
X1550197D01*
X1592071D01*
X1591526Y1725616D01*
X1587807Y1731181D01*
X1591526Y1736746D01*
X1593066Y1744488D01*
X1592007Y1749808D01*
X1595802Y1755808D01*
X1658931D01*
X1664784Y1756973D01*
X1669745Y1760288D01*
X1787132Y1877675D01*
X1793216Y1875273D01*
X1794301Y1869817D01*
X1798019Y1864252D01*
X1794301Y1858687D01*
X1792761Y1850945D01*
X1794301Y1843203D01*
X1798019Y1837638D01*
X1794301Y1832073D01*
X1793755Y1829331D01*
X1835630D01*
X1877504D01*
X1876959Y1832073D01*
X1873241Y1837638D01*
X1876959Y1843203D01*
X1878499Y1850945D01*
X1877441Y1856265D01*
X1880505Y1861110D01*
X1886668Y1861155D01*
X1887488Y1859929D01*
X1895757Y1854403D01*
X1903142Y1852934D01*
X1902029Y1847337D01*
Y1771654D01*
X1903193Y1765801D01*
X1906508Y1760839D01*
X2021942Y1645406D01*
X2018986Y1639876D01*
X2017796Y1640113D01*
Y1615618D01*
Y1591122D01*
X2020621Y1591684D01*
X2022962Y1586032D01*
X2021342Y1584950D01*
X2015816Y1576680D01*
X2013876Y1566926D01*
X2014880Y1561880D01*
X1937494Y1484494D01*
X1933071Y1485374D01*
X1923316Y1483433D01*
X1915047Y1477908D01*
X1909521Y1469638D01*
X1907581Y1459884D01*
X1909521Y1450129D01*
X1915047Y1441860D01*
X1923316Y1436334D01*
X1923612Y1436276D01*
X1923021Y1430276D01*
X1900433D01*
Y1376811D01*
Y1325630D01*
X1935679D01*
X1963876Y1297433D01*
X1961580Y1291890D01*
X1952598D01*
Y1271449D01*
X1947055Y1269153D01*
X1934461Y1281747D01*
X1929830Y1284841D01*
X1924368Y1285928D01*
X1924367Y1285928D01*
X1807244D01*
Y1304055D01*
X1779528D01*
X1751811D01*
Y1285928D01*
X1728504D01*
Y1297401D01*
X1673071D01*
Y1245906D01*
X1686513D01*
Y1219531D01*
X1680513Y1216572D01*
X1679068Y1217681D01*
X1670554Y1221208D01*
X1666417Y1221752D01*
Y1187109D01*
Y1152465D01*
X1670554Y1153009D01*
X1679068Y1156536D01*
X1680513Y1157645D01*
X1686513Y1154686D01*
Y1042330D01*
X1660228Y1016045D01*
X1654685Y1018341D01*
Y1055276D01*
X1605659D01*
X1526826Y1134109D01*
X1522195Y1137204D01*
X1516732Y1138290D01*
X1516732Y1138290D01*
X1496220D01*
Y1149764D01*
X1440787D01*
Y1098268D01*
X1496220D01*
Y1109742D01*
X1510820D01*
X1581535Y1039026D01*
Y990000D01*
X1581535Y990000D01*
Y986378D01*
X1581535D01*
X1581535Y984000D01*
Y921102D01*
X1654685D01*
Y970128D01*
X1710881Y1026324D01*
X1710881Y1026324D01*
X1713975Y1030955D01*
X1715062Y1036417D01*
X1715062Y1036418D01*
Y1245906D01*
X1728504D01*
Y1257379D01*
X1751811D01*
Y1208504D01*
X1785089D01*
X1788875Y1204717D01*
Y1056260D01*
X1766575D01*
Y990984D01*
X1766575Y990984D01*
Y987362D01*
X1766575D01*
X1766575Y984984D01*
Y922087D01*
X1839724D01*
Y953396D01*
X1857782Y971453D01*
X1862205Y970573D01*
X1871959Y972514D01*
X1880229Y978039D01*
X1885754Y986308D01*
X1887695Y996063D01*
X1885754Y1005817D01*
X1880229Y1014087D01*
X1871959Y1019612D01*
X1862205Y1021553D01*
X1852450Y1019612D01*
X1845724Y1015119D01*
X1839724Y1017395D01*
Y1056260D01*
X1817424D01*
Y1210630D01*
X1817424Y1210630D01*
X1816337Y1216092D01*
X1813243Y1220724D01*
X1813243Y1220724D01*
X1807244Y1226722D01*
Y1257379D01*
X1918455D01*
X1947534Y1228300D01*
X1952165Y1225206D01*
X1957628Y1224119D01*
X1957628Y1224119D01*
X2031339D01*
Y1202992D01*
X2055716D01*
X2058012Y1197449D01*
X2038428Y1177865D01*
X2008031D01*
Y1186339D01*
X1980315D01*
X1952598D01*
Y1177483D01*
X1949057Y1176778D01*
X1944426Y1173684D01*
X1944426Y1173684D01*
X1926914Y1156172D01*
X1923820Y1151541D01*
X1922734Y1146079D01*
X1922734Y1146078D01*
Y1059056D01*
X1922734Y1059055D01*
X1923820Y1053593D01*
X1926914Y1048962D01*
X1971206Y1004671D01*
X1971206Y1004670D01*
X1975837Y1001576D01*
X1981299Y1000489D01*
X1983110Y995032D01*
Y982126D01*
X1983110D01*
Y978504D01*
X1983110D01*
Y913228D01*
X1993600D01*
Y886671D01*
X1989850Y884166D01*
X1984324Y875896D01*
X1982384Y866142D01*
X1984120Y857416D01*
X1980979Y851416D01*
X1599270D01*
X1596764Y855166D01*
X1588495Y860691D01*
X1578740Y862631D01*
X1568986Y860691D01*
X1560716Y855166D01*
X1555191Y846896D01*
X1553250Y837142D01*
X1555191Y827387D01*
X1560716Y819118D01*
X1568986Y813592D01*
X1578740Y811652D01*
X1588495Y813592D01*
X1596764Y819118D01*
X1599270Y822867D01*
X2074369D01*
X2076665Y817324D01*
X1738182Y478841D01*
X1397176D01*
X1392040Y486528D01*
X1383770Y492053D01*
X1374016Y493994D01*
X1364261Y492053D01*
X1362086Y490600D01*
X1356794Y493428D01*
Y793300D01*
X1399857Y836363D01*
X1399857Y836363D01*
X1402951Y840994D01*
X1404038Y846457D01*
Y1003092D01*
X1407788Y1005598D01*
X1410293Y1009348D01*
X1442913D01*
X1442913Y1009348D01*
X1448376Y1010434D01*
X1453007Y1013529D01*
X1462943Y1023465D01*
X1496220D01*
Y1074961D01*
X1440787D01*
Y1041683D01*
X1437001Y1037896D01*
X1410293D01*
X1407788Y1041646D01*
X1399518Y1047171D01*
X1389764Y1049112D01*
X1380009Y1047171D01*
X1371740Y1041646D01*
X1366214Y1033377D01*
X1364274Y1023622D01*
X1366214Y1013867D01*
X1371740Y1005598D01*
X1375489Y1003092D01*
Y852369D01*
X1332426Y809306D01*
X1329332Y804675D01*
X1328245Y799213D01*
X1328245Y799212D01*
Y458988D01*
X1328245Y458988D01*
X1329332Y453525D01*
X1332426Y448894D01*
X1491442Y289878D01*
Y252904D01*
X1491442Y252904D01*
X1492529Y247441D01*
X1495623Y242810D01*
X1509518Y228915D01*
X1507716Y224567D01*
X1507717D01*
Y173071D01*
X1521159D01*
Y130766D01*
X1517409Y128260D01*
X1512466Y120863D01*
X1506003Y118841D01*
X1439660Y185184D01*
Y205757D01*
X1439660Y205758D01*
X1439645Y205834D01*
X1443451Y210472D01*
X1484409D01*
Y261969D01*
X1451132D01*
X1423386Y289715D01*
Y321024D01*
X1332520D01*
Y261654D01*
X1411073D01*
X1428976Y243750D01*
Y230194D01*
X1423433Y227898D01*
X1420765Y230566D01*
X1416134Y233660D01*
X1410671Y234747D01*
X1410671Y234747D01*
X1305125D01*
X1195133Y344739D01*
X1190502Y347833D01*
X1185039Y348920D01*
X1185039Y348920D01*
X1143708D01*
X1126168Y366459D01*
X1128471Y372643D01*
X1135739Y374088D01*
X1144008Y379614D01*
X1146514Y383363D01*
X1327552D01*
X1340941Y369974D01*
X1340061Y365551D01*
X1342002Y355797D01*
X1347527Y347527D01*
X1355797Y342002D01*
X1365551Y340061D01*
X1375306Y342002D01*
X1383575Y347527D01*
X1389101Y355797D01*
X1391041Y365551D01*
X1389101Y375306D01*
X1383575Y383575D01*
X1375306Y389101D01*
X1365551Y391041D01*
X1361128Y390161D01*
X1343558Y407731D01*
X1338927Y410825D01*
X1333465Y411912D01*
X1333464Y411912D01*
X1146514D01*
X1144008Y415662D01*
X1135739Y421187D01*
X1125984Y423128D01*
X1116230Y421187D01*
X1107960Y415662D01*
X1102435Y407392D01*
X1100989Y400124D01*
X1094806Y397822D01*
X1061518Y431110D01*
Y568139D01*
X1067518Y570175D01*
X1068074Y569452D01*
X1076249Y563179D01*
X1085768Y559236D01*
X1095984Y557891D01*
X1106200Y559236D01*
X1115720Y563179D01*
X1123895Y569452D01*
X1130168Y577626D01*
X1134111Y587146D01*
X1135456Y597362D01*
X1134111Y607578D01*
X1130168Y617098D01*
X1123895Y625273D01*
X1115720Y631545D01*
X1106200Y635489D01*
X1095984Y636834D01*
X1085768Y635489D01*
X1076249Y631545D01*
X1068074Y625273D01*
X1067518Y624549D01*
X1061518Y626586D01*
Y778683D01*
X1065268Y781189D01*
X1070794Y789458D01*
X1072734Y799213D01*
X1070794Y808967D01*
X1065515Y816867D01*
X1065943Y818839D01*
X1067641Y822867D01*
X1278683D01*
X1281189Y819118D01*
X1289458Y813592D01*
X1299213Y811652D01*
X1308967Y813592D01*
X1317237Y819118D01*
X1322762Y827387D01*
X1324702Y837142D01*
X1322762Y846896D01*
X1317237Y855166D01*
X1308967Y860691D01*
X1299213Y862631D01*
X1289458Y860691D01*
X1281189Y855166D01*
X1278683Y851416D01*
X1051645D01*
X859409Y1043652D01*
Y1090299D01*
X859409Y1096299D01*
X859409Y1098677D01*
Y1145325D01*
X868361Y1154276D01*
X868361Y1154277D01*
X871455Y1158908D01*
X872542Y1164370D01*
X872542Y1164371D01*
Y1377952D01*
X872542Y1377953D01*
X871455Y1383415D01*
X868361Y1388046D01*
X868361Y1388046D01*
X815118Y1441289D01*
Y1472598D01*
X759685D01*
Y1421102D01*
X794931D01*
X812238Y1403795D01*
X809753Y1397795D01*
X759685D01*
Y1346299D01*
X762703D01*
X765531Y1341008D01*
X763852Y1338495D01*
X761912Y1328740D01*
X763852Y1318986D01*
X769378Y1310716D01*
X777647Y1305191D01*
X787402Y1303250D01*
X797156Y1305191D01*
X805426Y1310716D01*
X810951Y1318986D01*
X812891Y1328740D01*
X810951Y1338495D01*
X809272Y1341008D01*
X812100Y1346299D01*
X815118D01*
Y1392430D01*
X821118Y1394915D01*
X843993Y1372040D01*
Y1170283D01*
X835285Y1161575D01*
X786260D01*
Y1098677D01*
X786260Y1092677D01*
X786260Y1090299D01*
Y1027402D01*
X835285D01*
X1034807Y827880D01*
X1035034Y824011D01*
X1034372Y820679D01*
X1029220Y817237D01*
X1023695Y808967D01*
X1021754Y799213D01*
X1023695Y789458D01*
X1029220Y781189D01*
X1032970Y778683D01*
Y623302D01*
X1026970Y621265D01*
X1023895Y625273D01*
X1015720Y631545D01*
X1006200Y635489D01*
X995984Y636834D01*
X985768Y635489D01*
X976249Y631545D01*
X968074Y625273D01*
X961801Y617098D01*
X957858Y607578D01*
X956513Y597362D01*
X957858Y587146D01*
X961801Y577626D01*
X968074Y569452D01*
X976249Y563179D01*
X981789Y560884D01*
Y161418D01*
X981789Y161417D01*
X982875Y155955D01*
X985970Y151324D01*
X1077086Y60207D01*
X1074790Y54664D01*
X623461D01*
X605845Y72280D01*
Y152323D01*
X604681Y158176D01*
X601366Y163137D01*
X321396Y443107D01*
Y520669D01*
X320232Y526522D01*
X316917Y531484D01*
X133404Y714996D01*
Y752953D01*
X132240Y758806D01*
X128925Y763767D01*
X48050Y844642D01*
Y1269532D01*
X182279Y1403762D01*
X185594Y1408723D01*
X186758Y1414576D01*
Y1735681D01*
X256650Y1805572D01*
X347749D01*
X353601Y1806736D01*
X358563Y1810052D01*
X370066Y1821555D01*
X373382Y1826517D01*
X374546Y1832369D01*
Y2203311D01*
X431099Y2259864D01*
X668831D01*
X670025Y2253864D01*
D02*
G37*
G36*
X3553604Y1680956D02*
Y1631063D01*
X3542166D01*
Y1631063D01*
X3536575D01*
Y1631063D01*
X3525136D01*
Y1677449D01*
X3523972Y1683302D01*
X3520657Y1688263D01*
X3487631Y1721289D01*
X3489927Y1726832D01*
X3507728D01*
X3553604Y1680956D01*
D02*
G37*
G36*
X2608948Y1672256D02*
X2613910Y1668941D01*
X2619763Y1667777D01*
X2644343D01*
X2647172Y1662485D01*
X2645742Y1660345D01*
X2643802Y1650591D01*
X2645742Y1640836D01*
X2649329Y1635467D01*
X2646122Y1629467D01*
X2580471D01*
X2576176Y1635467D01*
X2577422Y1641732D01*
X2575481Y1651487D01*
X2569956Y1659756D01*
X2561686Y1665282D01*
X2551932Y1667222D01*
X2551204Y1667077D01*
X2547596Y1672477D01*
X2551109Y1677734D01*
X2553049Y1687488D01*
X2551109Y1697243D01*
X2545583Y1705512D01*
X2537314Y1711038D01*
X2527559Y1712978D01*
X2517805Y1711038D01*
X2509535Y1705512D01*
X2508742Y1704325D01*
X2504448Y1704448D01*
X2500892Y1709863D01*
X2502493Y1717913D01*
X2500552Y1727668D01*
X2495027Y1735937D01*
X2486758Y1741463D01*
X2477003Y1743403D01*
X2472607Y1742529D01*
X2467505Y1747631D01*
X2467764Y1748936D01*
X2465824Y1758690D01*
X2460298Y1766960D01*
X2457568Y1768784D01*
Y1793361D01*
X2456404Y1799213D01*
X2453089Y1804175D01*
X2386213Y1871051D01*
X2381251Y1874366D01*
X2375399Y1875530D01*
X2369252D01*
Y1904113D01*
X2374795Y1906409D01*
X2608948Y1672256D01*
D02*
G37*
G36*
X2427401Y1648395D02*
X2427402Y1648395D01*
X2432033Y1645300D01*
X2437495Y1644214D01*
X2520639D01*
X2527267Y1637585D01*
X2527688Y1635467D01*
X2523393Y1629467D01*
X2373700D01*
X2369252Y1633117D01*
Y1647480D01*
Y1698059D01*
X2375252Y1700544D01*
X2427401Y1648395D01*
D02*
G37*
G36*
X2654601Y1588231D02*
Y1585429D01*
X2652414Y1582156D01*
X2652353Y1581850D01*
X2533305D01*
Y1545275D01*
X2525750D01*
Y1581850D01*
X2395512D01*
X2392308Y1586523D01*
X2388098Y1592824D01*
X2388015Y1592879D01*
X2389835Y1598879D01*
X2531742D01*
X2533653Y1597603D01*
X2539506Y1596438D01*
X2564358D01*
X2570211Y1597603D01*
X2572122Y1598879D01*
X2643953D01*
X2654601Y1588231D01*
D02*
G37*
G36*
X3553604Y1486650D02*
X3531678Y1464724D01*
X3507972D01*
X3505676Y1470268D01*
X3520657Y1485249D01*
X3523972Y1490210D01*
X3525136Y1496063D01*
Y1573661D01*
X3536575D01*
Y1573661D01*
X3542166D01*
Y1573661D01*
X3553604D01*
Y1486650D01*
D02*
G37*
G36*
X2787728Y1601534D02*
Y1548392D01*
X2787728Y1548392D01*
X2788814Y1542929D01*
X2790469Y1540452D01*
X2789471Y1535433D01*
X2791411Y1525679D01*
X2793677Y1522287D01*
X2790470Y1516287D01*
X2752200D01*
X2747651Y1519327D01*
X2741798Y1520491D01*
X2722598D01*
Y1568879D01*
X2728598Y1570699D01*
X2730008Y1568590D01*
X2738277Y1563065D01*
X2748032Y1561124D01*
X2757786Y1563065D01*
X2766055Y1568590D01*
X2771581Y1576860D01*
X2773521Y1586614D01*
X2771581Y1596369D01*
X2767745Y1602110D01*
X2770837Y1608110D01*
X2781152D01*
X2787728Y1601534D01*
D02*
G37*
G36*
X2072340Y1550652D02*
Y1432244D01*
X2056929D01*
Y1417818D01*
X1957835D01*
Y1430276D01*
X1943121D01*
X1942530Y1436276D01*
X1942825Y1436334D01*
X1951095Y1441860D01*
X1956620Y1450129D01*
X1958561Y1459884D01*
X1957681Y1464307D01*
X2035566Y1542192D01*
X2039366Y1541436D01*
X2049120Y1543377D01*
X2057390Y1548902D01*
X2060191Y1553094D01*
X2060450Y1553307D01*
X2067494Y1554430D01*
X2072340Y1550652D01*
D02*
G37*
G36*
X2870551Y1589423D02*
X2878820Y1583897D01*
X2888575Y1581957D01*
X2896877Y1583608D01*
X2900560Y1580549D01*
X2901655Y1578907D01*
X2901021Y1575722D01*
Y1539776D01*
X2877532Y1516287D01*
X2839451D01*
X2836244Y1522287D01*
X2838510Y1525679D01*
X2840450Y1535433D01*
X2838510Y1545188D01*
X2832985Y1553457D01*
X2824715Y1558983D01*
X2816276Y1560661D01*
Y1593172D01*
X2868045D01*
X2870551Y1589423D01*
D02*
G37*
G36*
X2117229Y1567383D02*
X2141227D01*
X2143138Y1566107D01*
X2148991Y1564942D01*
X2155701D01*
X2157521Y1558942D01*
X2155204Y1557394D01*
X2149679Y1549125D01*
X2147738Y1539370D01*
X2149679Y1529616D01*
X2155204Y1521346D01*
X2158954Y1518841D01*
Y1475862D01*
X2152954Y1472655D01*
X2149332Y1475075D01*
X2144577Y1476021D01*
Y1451526D01*
Y1427031D01*
X2149332Y1427976D01*
X2152954Y1430396D01*
X2158954Y1427189D01*
Y1150591D01*
X2158954Y1150591D01*
X2160041Y1145128D01*
X2163135Y1140497D01*
X2265641Y1037991D01*
X2263156Y1031991D01*
X2180630D01*
Y1043465D01*
X2125197D01*
Y991968D01*
X2180630D01*
Y1003442D01*
X2203937D01*
Y954567D01*
X2217379D01*
Y928236D01*
X2175190Y886046D01*
X2128672D01*
X2123209Y884959D01*
X2122809Y884875D01*
X2116156Y885918D01*
X2112066Y892040D01*
X2108316Y894545D01*
Y1128572D01*
X2107229Y1134035D01*
X2105482Y1136650D01*
X2114865Y1146032D01*
X2114865Y1146032D01*
X2117959Y1150663D01*
X2119046Y1156126D01*
X2119046Y1156126D01*
Y1257225D01*
X2119046Y1257226D01*
X2117959Y1262688D01*
X2114865Y1267319D01*
X2114865Y1267319D01*
X2078201Y1303983D01*
X2073570Y1307078D01*
X2068108Y1308164D01*
X2068107Y1308164D01*
X1993519D01*
X1957835Y1343848D01*
Y1389269D01*
X1984640D01*
X1990504Y1388941D01*
X1990504Y1388940D01*
X1990504D01*
X1991063Y1383269D01*
X1990232Y1383104D01*
X1983764Y1381817D01*
X1975495Y1376292D01*
X1969969Y1368022D01*
X1969024Y1363268D01*
X2018014D01*
X2017068Y1368022D01*
X2011543Y1376292D01*
X2003273Y1381817D01*
X1996806Y1383104D01*
X1995975Y1383269D01*
X1996534Y1388940D01*
X1996533D01*
X1996534Y1388941D01*
X2002398Y1389269D01*
X2056929D01*
Y1376811D01*
Y1356378D01*
X2116299D01*
Y1376811D01*
Y1430566D01*
X2120101Y1432690D01*
X2121864Y1433294D01*
X2129823Y1427976D01*
X2134577Y1427031D01*
Y1446526D01*
X2115082D01*
X2116028Y1441771D01*
X2119183Y1437050D01*
X2115178Y1432244D01*
X2100889D01*
Y1557059D01*
X2106227Y1565049D01*
X2106523Y1566537D01*
X2110236Y1568075D01*
X2112977Y1568229D01*
X2117229Y1567383D01*
D02*
G37*
G36*
X2289058Y1458351D02*
X2297327Y1452825D01*
X2307082Y1450885D01*
X2310302Y1451526D01*
X2327764Y1434065D01*
X2332725Y1430749D01*
X2338578Y1429585D01*
X2369094D01*
X2373389Y1423585D01*
X2372143Y1417320D01*
X2374084Y1407565D01*
X2375593Y1405306D01*
X2375057Y1403340D01*
X2372461Y1399194D01*
X2364256Y1397562D01*
X2355987Y1392037D01*
X2350461Y1383767D01*
X2348521Y1374013D01*
X2350461Y1364258D01*
X2355987Y1355989D01*
X2364256Y1350464D01*
X2374011Y1348523D01*
X2383765Y1350464D01*
X2392035Y1355989D01*
X2393859Y1358719D01*
X2404057D01*
X2409909Y1359883D01*
X2414871Y1363199D01*
X2434643Y1382971D01*
X2449597D01*
X2466189Y1366380D01*
X2471150Y1363064D01*
X2472521Y1362792D01*
X2474496Y1356281D01*
X2466808Y1348593D01*
X2466470Y1348852D01*
X2457956Y1352379D01*
X2448819Y1353582D01*
X2439682Y1352379D01*
X2431168Y1348852D01*
X2423857Y1343242D01*
X2418247Y1335931D01*
X2417270Y1333573D01*
X2353410D01*
X2320125Y1366858D01*
X2320765Y1370079D01*
X2318825Y1379833D01*
X2313300Y1388103D01*
X2305030Y1393628D01*
X2295276Y1395569D01*
X2285521Y1393628D01*
X2284365Y1392856D01*
X2279073Y1395684D01*
Y1456530D01*
X2281803Y1458354D01*
X2282430Y1459291D01*
X2288430D01*
X2289058Y1458351D01*
D02*
G37*
G36*
X2698907Y1401647D02*
X2708661Y1399707D01*
X2713084Y1400587D01*
X2753295Y1360376D01*
X2753660Y1359613D01*
X2753198Y1353095D01*
X2751776Y1352145D01*
X2734279Y1334648D01*
X2726896D01*
X2726070Y1335201D01*
X2720217Y1336365D01*
X2690791D01*
X2687584Y1342365D01*
X2688463Y1343681D01*
X2689550Y1349143D01*
X2689550Y1349144D01*
Y1400683D01*
X2695550Y1403890D01*
X2698907Y1401647D01*
D02*
G37*
G36*
X3463769Y1403642D02*
X3488621D01*
Y1393642D01*
X3464126D01*
X3464456Y1391984D01*
X3462441Y1385984D01*
X3462441D01*
Y1363268D01*
X3488189D01*
Y1358268D01*
X3493189D01*
Y1330551D01*
X3496338D01*
X3501134Y1324551D01*
X3500101Y1319354D01*
X3502041Y1309600D01*
X3504642Y1305707D01*
X3501435Y1299707D01*
X3448200D01*
X3444999Y1305707D01*
X3448746Y1311316D01*
X3450687Y1321071D01*
X3448746Y1330825D01*
X3443221Y1339095D01*
X3440491Y1340919D01*
Y1405082D01*
X3444700Y1409291D01*
X3459132D01*
X3463769Y1403642D01*
D02*
G37*
G36*
X2245756Y1458354D02*
X2248486Y1456530D01*
Y1354331D01*
X2249650Y1348478D01*
X2252965Y1343516D01*
X2331550Y1264932D01*
X2329254Y1259388D01*
X2300728D01*
X2246152Y1313964D01*
X2241449Y1317107D01*
X2244017Y1320951D01*
X2245958Y1330706D01*
X2244017Y1340460D01*
X2238492Y1348730D01*
X2235762Y1350554D01*
Y1462511D01*
X2241762Y1464331D01*
X2245756Y1458354D01*
D02*
G37*
G36*
X2773465Y1250079D02*
X2832835D01*
Y1252203D01*
X2838378Y1254499D01*
X2888958Y1203919D01*
X2894747Y1200051D01*
X2901575Y1198693D01*
X3040441D01*
X3045904Y1191573D01*
X3053215Y1185963D01*
X3061729Y1182436D01*
X3070866Y1181233D01*
X3075066Y1181786D01*
X3077236Y1176020D01*
X3076464Y1175504D01*
X3070939Y1167235D01*
X3068998Y1157480D01*
X3068299Y1156629D01*
X2910802D01*
X2902563Y1164868D01*
X2903443Y1169291D01*
X2901502Y1179046D01*
X2895977Y1187315D01*
X2887707Y1192841D01*
X2877953Y1194781D01*
X2868198Y1192841D01*
X2859929Y1187315D01*
X2854403Y1179046D01*
X2852463Y1169291D01*
X2854403Y1159537D01*
X2859929Y1151267D01*
X2866842Y1146648D01*
X2865392Y1140648D01*
X2482927D01*
X2479592Y1146648D01*
X2480129Y1147512D01*
X2522054D01*
X2528882Y1148870D01*
X2534670Y1152737D01*
X2659462Y1277529D01*
X2665462Y1276781D01*
Y1262638D01*
Y1242205D01*
X2724832D01*
Y1262638D01*
Y1280386D01*
X2773465D01*
Y1250079D01*
D02*
G37*
G36*
X3056061Y1253687D02*
X3054891Y1247802D01*
X3053215Y1247108D01*
X3045904Y1241498D01*
X3040441Y1234378D01*
X2908966D01*
X2835693Y1307651D01*
X2838178Y1313651D01*
X2996097D01*
X3056061Y1253687D01*
D02*
G37*
G36*
X4154033Y1055253D02*
X4141561Y1053611D01*
X4129551Y1048637D01*
X4119238Y1040723D01*
X4111324Y1030410D01*
X4107696Y1021651D01*
X4101202D01*
X4097574Y1030410D01*
X4089660Y1040723D01*
X4079347Y1048637D01*
X4069786Y1052597D01*
Y1183898D01*
X4129669D01*
X4135669Y1183898D01*
X4138047Y1183898D01*
X4154033D01*
Y1055253D01*
D02*
G37*
G36*
X2490495Y1227792D02*
X2496347Y1226627D01*
X2550254D01*
X2552550Y1221084D01*
X2514663Y1183197D01*
X2475307D01*
X2469844Y1190317D01*
X2462533Y1195927D01*
X2454019Y1199453D01*
X2444882Y1200656D01*
X2438036Y1199755D01*
X2436863Y1200474D01*
X2433942Y1203754D01*
X2433425Y1204987D01*
X2434939Y1212598D01*
X2432998Y1222353D01*
X2432226Y1223509D01*
X2435054Y1228801D01*
X2488985D01*
X2490495Y1227792D01*
D02*
G37*
G36*
X2090497Y1181721D02*
Y1162039D01*
X2075536Y1147078D01*
X2072442Y1142447D01*
X2071356Y1136984D01*
X2072442Y1131522D01*
X2075536Y1126891D01*
X2079767Y1122660D01*
Y894545D01*
X2076018Y892040D01*
X2070492Y883770D01*
X2068552Y874016D01*
X2070492Y864261D01*
X2075066Y857416D01*
X2072888Y851416D01*
X2034769D01*
X2031628Y857416D01*
X2033364Y866142D01*
X2031424Y875896D01*
X2025898Y884166D01*
X2022148Y886671D01*
Y913228D01*
X2056260D01*
Y978504D01*
X2056260D01*
Y982126D01*
X2056260D01*
Y1047402D01*
X1983110D01*
Y1040979D01*
X1977567Y1038683D01*
X1951282Y1064968D01*
Y1140166D01*
X1960432Y1149316D01*
X2044340D01*
X2044341Y1149316D01*
X2049803Y1150403D01*
X2054434Y1153497D01*
X2084954Y1184017D01*
X2090497Y1181721D01*
D02*
G37*
G36*
X3324016Y1200148D02*
X3272985Y1149117D01*
X3242820D01*
X3242820Y1171102D01*
X3242820Y1173480D01*
Y1198740D01*
X3206245D01*
X3169670D01*
Y1173480D01*
X3169670Y1167480D01*
X3169670Y1165102D01*
Y1102205D01*
X3233870D01*
X3236010Y1096205D01*
X3229251Y1087969D01*
X3223296Y1076827D01*
X3219629Y1064738D01*
X3218391Y1052165D01*
X3219629Y1039593D01*
X3222728Y1029376D01*
X3217423Y1026196D01*
X3110851Y1132768D01*
X3111439Y1138739D01*
X3112512Y1139456D01*
X3118038Y1147726D01*
X3119978Y1157480D01*
X3118038Y1167235D01*
X3112512Y1175504D01*
X3104243Y1181030D01*
X3094488Y1182970D01*
X3094467Y1182966D01*
X3091925Y1188578D01*
X3095828Y1191573D01*
X3101439Y1198884D01*
X3104965Y1207399D01*
X3106168Y1216535D01*
X3104965Y1225672D01*
X3101439Y1234186D01*
X3098091Y1238549D01*
X3101050Y1244549D01*
X3324016D01*
Y1200148D01*
D02*
G37*
G36*
X3869921Y1183898D02*
X3929374D01*
X3931859Y1177898D01*
X3883429Y1129467D01*
X3832692D01*
X3829864Y1134759D01*
X3830636Y1135915D01*
X3832576Y1145669D01*
X3830636Y1155424D01*
X3825111Y1163693D01*
X3822381Y1165517D01*
Y1183898D01*
X3846614D01*
Y1252423D01*
X3869921D01*
Y1183898D01*
D02*
G37*
G36*
X3712441D02*
X3727343D01*
X3729164Y1177898D01*
X3727055Y1176489D01*
X3721529Y1168219D01*
X3719589Y1158465D01*
X3721529Y1148710D01*
X3727055Y1140441D01*
X3734498Y1135467D01*
X3734387Y1132116D01*
X3733500Y1129467D01*
X3664669D01*
X3664078Y1135467D01*
X3666251Y1135899D01*
X3674520Y1141425D01*
X3680046Y1149694D01*
X3681986Y1159449D01*
X3680046Y1169203D01*
X3674520Y1177473D01*
X3673884Y1177898D01*
X3675704Y1183898D01*
X3689134D01*
Y1252423D01*
X3712441D01*
Y1183898D01*
D02*
G37*
G36*
X3554961D02*
X3560529D01*
Y1178010D01*
X3556779Y1175504D01*
X3551254Y1167235D01*
X3549313Y1157480D01*
X3551254Y1147726D01*
X3556779Y1139456D01*
X3562749Y1135467D01*
X3560929Y1129467D01*
X3442613D01*
X3436760Y1128303D01*
X3431798Y1124988D01*
X3352689Y1045878D01*
X3346928Y1048603D01*
X3347279Y1052165D01*
X3346041Y1064738D01*
X3342373Y1076827D01*
X3336418Y1087969D01*
X3328404Y1097734D01*
X3318638Y1105749D01*
X3307496Y1111704D01*
X3295407Y1115371D01*
X3286279Y1116270D01*
X3285798Y1117621D01*
X3285447Y1122381D01*
X3288991Y1124749D01*
X3344203Y1179961D01*
X3399134D01*
Y1252423D01*
X3554961D01*
Y1183898D01*
D02*
G37*
G36*
X2345315Y978189D02*
X2345315D01*
Y974567D01*
X2345315D01*
Y933318D01*
X2339772Y931022D01*
X2280385Y990409D01*
X2275754Y993503D01*
X2270291Y994589D01*
X2270291Y994589D01*
X2259370D01*
Y1003442D01*
X2345315D01*
Y978189D01*
D02*
G37*
G36*
X2794134Y993937D02*
X2794134D01*
Y990315D01*
X2794134D01*
Y925039D01*
X2816434D01*
Y649259D01*
X2749447Y582272D01*
X2743765Y585075D01*
X2744408Y589961D01*
X2742846Y601821D01*
X2738268Y612873D01*
X2730986Y622364D01*
X2721495Y629646D01*
X2710443Y634224D01*
X2698583Y635786D01*
X2686722Y634224D01*
X2675670Y629646D01*
X2666180Y622364D01*
X2658897Y612873D01*
X2654319Y601821D01*
X2652758Y589961D01*
X2654319Y578100D01*
X2657897Y569462D01*
X2604308Y515873D01*
X2534411D01*
X2532115Y521416D01*
X2559974Y549275D01*
X2568612Y545697D01*
X2580472Y544136D01*
X2592333Y545697D01*
X2603385Y550275D01*
X2612876Y557558D01*
X2620158Y567048D01*
X2624736Y578100D01*
X2626298Y589961D01*
X2624736Y601821D01*
X2620158Y612873D01*
X2612876Y622364D01*
X2603385Y629646D01*
X2592333Y634224D01*
X2580472Y635786D01*
X2568612Y634224D01*
X2557560Y629646D01*
X2548069Y622364D01*
X2540787Y612873D01*
X2536209Y601821D01*
X2534648Y589961D01*
X2536209Y578100D01*
X2539787Y569462D01*
X2508812Y538487D01*
X2471028D01*
X2465369Y539308D01*
X2465369Y539309D01*
X2465369D01*
X2465029Y544487D01*
X2465527Y544552D01*
X2474223Y545697D01*
X2485275Y550275D01*
X2494765Y557558D01*
X2502048Y567048D01*
X2506626Y578100D01*
X2508187Y589961D01*
X2506626Y601821D01*
X2502048Y612873D01*
X2494765Y622364D01*
X2485275Y629646D01*
X2474223Y634224D01*
X2462362Y635786D01*
X2450502Y634224D01*
X2439450Y629646D01*
X2429959Y622364D01*
X2422677Y612873D01*
X2418099Y601821D01*
X2416537Y589961D01*
X2418099Y578100D01*
X2422677Y567048D01*
X2429959Y557558D01*
X2439450Y550275D01*
X2450502Y545697D01*
X2459197Y544552D01*
X2459695Y544487D01*
X2459356Y539309D01*
X2459356D01*
X2459356Y539308D01*
X2453696Y538487D01*
X2352918D01*
X2347258Y539308D01*
X2347258Y539309D01*
X2347258D01*
X2346919Y544487D01*
X2347417Y544552D01*
X2356112Y545697D01*
X2367164Y550275D01*
X2376655Y557558D01*
X2383938Y567048D01*
X2388516Y578100D01*
X2390077Y589961D01*
X2388516Y601821D01*
X2383938Y612873D01*
X2376655Y622364D01*
X2367164Y629646D01*
X2356112Y634224D01*
X2344252Y635786D01*
X2332392Y634224D01*
X2321340Y629646D01*
X2311849Y622364D01*
X2304566Y612873D01*
X2299988Y601821D01*
X2298427Y589961D01*
X2299988Y578100D01*
X2304566Y567048D01*
X2311849Y557558D01*
X2321340Y550275D01*
X2332392Y545697D01*
X2341087Y544552D01*
X2341585Y544487D01*
X2341245Y539309D01*
X2341246D01*
X2341245Y539308D01*
X2335586Y538487D01*
X2234808D01*
X2229148Y539308D01*
X2229148Y539309D01*
X2229148D01*
X2228809Y544487D01*
X2229307Y544552D01*
X2238002Y545697D01*
X2249054Y550275D01*
X2258545Y557558D01*
X2265827Y567048D01*
X2270405Y578100D01*
X2271967Y589961D01*
X2270405Y601821D01*
X2265827Y612873D01*
X2258545Y622364D01*
X2249054Y629646D01*
X2238002Y634224D01*
X2226142Y635786D01*
X2214281Y634224D01*
X2203229Y629646D01*
X2193739Y622364D01*
X2186456Y612873D01*
X2181878Y601821D01*
X2180317Y589961D01*
X2181878Y578100D01*
X2186456Y567048D01*
X2193739Y557558D01*
X2203229Y550275D01*
X2214281Y545697D01*
X2222977Y544552D01*
X2223475Y544487D01*
X2223135Y539309D01*
X2223135D01*
X2223135Y539308D01*
X2217476Y538487D01*
X2111092D01*
X2110698Y544487D01*
X2119892Y545697D01*
X2130944Y550275D01*
X2140435Y557558D01*
X2147717Y567048D01*
X2152295Y578100D01*
X2153856Y589961D01*
X2152295Y601821D01*
X2147717Y612873D01*
X2140435Y622364D01*
X2130944Y629646D01*
X2119892Y634224D01*
X2108032Y635786D01*
X2096171Y634224D01*
X2085119Y629646D01*
X2075628Y622364D01*
X2068346Y612873D01*
X2063768Y601821D01*
X2062206Y589961D01*
X2063768Y578100D01*
X2068346Y567048D01*
X2075628Y557558D01*
X2083665Y551391D01*
X2081123Y545779D01*
X2074213Y547153D01*
X2065434Y545407D01*
X2057991Y540434D01*
X2053018Y532992D01*
X2051272Y524212D01*
X2053018Y515433D01*
X2057991Y507991D01*
X2065434Y503018D01*
X2074213Y501272D01*
X2082992Y503018D01*
X2090434Y507991D01*
X2091735Y509938D01*
X2363145D01*
X2365441Y504395D01*
X2343780Y482735D01*
X2340686Y478104D01*
X2339600Y472641D01*
X2339600Y472641D01*
Y459007D01*
X2336265Y456360D01*
X2330166Y458663D01*
X2329461Y464026D01*
X2324883Y475078D01*
X2317600Y484569D01*
X2308109Y491851D01*
X2297057Y496429D01*
X2290197Y497332D01*
Y452165D01*
X2285197D01*
Y447165D01*
X2240030D01*
X2240933Y440305D01*
X2245511Y429253D01*
X2250304Y423007D01*
X2247345Y417007D01*
X2204938D01*
X2201979Y423007D01*
X2206772Y429253D01*
X2211350Y440305D01*
X2212253Y447165D01*
X2167087D01*
X2121920D01*
X2122823Y440305D01*
X2127401Y429253D01*
X2132194Y423007D01*
X2129235Y417007D01*
X2086828D01*
X2083869Y423007D01*
X2088662Y429253D01*
X2093240Y440305D01*
X2094801Y452165D01*
X2093240Y464026D01*
X2088662Y475078D01*
X2081380Y484569D01*
X2071889Y491851D01*
X2060837Y496429D01*
X2048976Y497990D01*
X2037116Y496429D01*
X2026064Y491851D01*
X2016573Y484569D01*
X2009291Y475078D01*
X2004713Y464026D01*
X2003685Y456220D01*
X2001800Y454904D01*
X1997296Y453661D01*
X1994058Y455825D01*
X1988595Y456912D01*
X1988595Y456912D01*
X1980598D01*
X1951663Y485847D01*
X1951637Y485979D01*
X1948542Y490610D01*
X1948542Y490610D01*
X1931554Y507597D01*
X1926923Y510692D01*
X1921461Y511778D01*
X1921460Y511778D01*
X1897437D01*
X1897437Y511778D01*
X1891974Y510692D01*
X1887343Y507597D01*
X1887343Y507597D01*
X1807058Y427312D01*
X1805426Y427473D01*
X1797156Y432998D01*
X1791680Y434087D01*
X1789705Y440598D01*
X1938164Y589056D01*
X1944498Y586906D01*
X1945658Y578100D01*
X1950236Y567048D01*
X1957518Y557558D01*
X1967009Y550275D01*
X1978061Y545697D01*
X1989921Y544136D01*
X2001782Y545697D01*
X2012834Y550275D01*
X2022324Y557558D01*
X2029607Y567048D01*
X2034185Y578100D01*
X2035746Y589961D01*
X2034185Y601821D01*
X2031029Y609440D01*
X2166138Y744549D01*
X2303187D01*
X2305012Y741818D01*
X2313281Y736293D01*
X2323036Y734353D01*
X2332790Y736293D01*
X2341060Y741818D01*
X2346585Y750088D01*
X2348525Y759842D01*
X2346585Y769597D01*
X2341257Y777571D01*
X2341231Y778427D01*
X2342892Y783858D01*
X2346541Y784584D01*
X2351172Y787678D01*
X2368117Y804623D01*
X2379780D01*
X2382286Y800874D01*
X2390555Y795348D01*
X2400310Y793408D01*
X2410064Y795348D01*
X2418334Y800874D01*
X2423860Y809143D01*
X2425800Y818898D01*
X2428450Y822127D01*
X2471597D01*
X2474102Y818378D01*
X2482372Y812852D01*
X2492126Y810912D01*
X2501881Y812852D01*
X2510150Y818378D01*
X2515675Y826647D01*
X2517616Y836402D01*
X2515675Y846156D01*
X2510150Y854426D01*
X2501881Y859951D01*
X2492126Y861891D01*
X2482372Y859951D01*
X2474102Y854426D01*
X2471597Y850676D01*
X2429731D01*
X2414541Y865865D01*
X2409910Y868959D01*
X2404448Y870046D01*
X2404448Y870046D01*
X2207403D01*
X2205107Y875589D01*
X2241747Y912229D01*
X2241747Y912229D01*
X2244841Y916860D01*
X2245928Y922323D01*
X2245928Y922323D01*
Y954567D01*
X2259370D01*
Y963647D01*
X2265370Y965049D01*
X2333221Y897198D01*
X2333222Y897198D01*
X2337852Y894104D01*
X2343315Y893017D01*
X2343316Y893017D01*
X2613238D01*
X2613238Y893017D01*
X2618701Y894104D01*
X2623332Y897198D01*
X2680701Y954567D01*
X2704882D01*
Y1003442D01*
X2794134D01*
Y993937D01*
D02*
G37*
G36*
X2302017Y777497D02*
X2301853Y777169D01*
X2299656Y775136D01*
X2159803D01*
X2153950Y773972D01*
X2148989Y770657D01*
X2009400Y631068D01*
X2001782Y634224D01*
X1992976Y635384D01*
X1990826Y641718D01*
X2132605Y783497D01*
X2298312D01*
X2302017Y777497D01*
D02*
G37*
G36*
X3446543Y667015D02*
X3454812Y661490D01*
X3464567Y659550D01*
X3474321Y661490D01*
X3477383Y663536D01*
X3481208Y658875D01*
X3416544Y594212D01*
X3413450Y589581D01*
X3412363Y584118D01*
X3412363Y584118D01*
Y558391D01*
X3406363Y555250D01*
X3397638Y556986D01*
X3387883Y555046D01*
X3379614Y549520D01*
X3377108Y545770D01*
X3196851D01*
X3196851Y545770D01*
X3191388Y544684D01*
X3186757Y541590D01*
X3186757Y541589D01*
X2766898Y121731D01*
X2736434D01*
X2733475Y127731D01*
X2738268Y133977D01*
X2742846Y145029D01*
X2744408Y156890D01*
X2742846Y168750D01*
X2738268Y179802D01*
X2730986Y189293D01*
X2721495Y196575D01*
X2710443Y201153D01*
X2698583Y202715D01*
X2686722Y201153D01*
X2675670Y196575D01*
X2666180Y189293D01*
X2658897Y179802D01*
X2654319Y168750D01*
X2652758Y156890D01*
X2654319Y145029D01*
X2658897Y133977D01*
X2663690Y127731D01*
X2660731Y121731D01*
X2618324D01*
X2615365Y127731D01*
X2620158Y133977D01*
X2624736Y145029D01*
X2626298Y156890D01*
X2624736Y168750D01*
X2620158Y179802D01*
X2612876Y189293D01*
X2603385Y196575D01*
X2592333Y201153D01*
X2580472Y202715D01*
X2568612Y201153D01*
X2557560Y196575D01*
X2548069Y189293D01*
X2540787Y179802D01*
X2536209Y168750D01*
X2534648Y156890D01*
X2536209Y145029D01*
X2540787Y133977D01*
X2545580Y127731D01*
X2542621Y121731D01*
X2500214D01*
X2497255Y127731D01*
X2502048Y133977D01*
X2506626Y145029D01*
X2508187Y156890D01*
X2506626Y168750D01*
X2502048Y179802D01*
X2494765Y189293D01*
X2485275Y196575D01*
X2474223Y201153D01*
X2462362Y202715D01*
X2450502Y201153D01*
X2439450Y196575D01*
X2429959Y189293D01*
X2422677Y179802D01*
X2418099Y168750D01*
X2416537Y156890D01*
X2418099Y145029D01*
X2422677Y133977D01*
X2427470Y127731D01*
X2424511Y121731D01*
X2382104D01*
X2379145Y127731D01*
X2383938Y133977D01*
X2388516Y145029D01*
X2390077Y156890D01*
X2388516Y168750D01*
X2383938Y179802D01*
X2376655Y189293D01*
X2367164Y196575D01*
X2356112Y201153D01*
X2344252Y202715D01*
X2332392Y201153D01*
X2321340Y196575D01*
X2311849Y189293D01*
X2304566Y179802D01*
X2299988Y168750D01*
X2298961Y160944D01*
X2292626Y158794D01*
X2284437Y166983D01*
X2279806Y170077D01*
X2274343Y171164D01*
X2274343Y171164D01*
X2269405D01*
X2265827Y179802D01*
X2258545Y189293D01*
X2249054Y196575D01*
X2238002Y201153D01*
X2226142Y202715D01*
X2214281Y201153D01*
X2203229Y196575D01*
X2193739Y189293D01*
X2186456Y179802D01*
X2181878Y168750D01*
X2180317Y156890D01*
X2181878Y145029D01*
X2186456Y133977D01*
X2193739Y124487D01*
X2203229Y117204D01*
X2214281Y112626D01*
X2226142Y111065D01*
X2238002Y112626D01*
X2249054Y117204D01*
X2258545Y124487D01*
X2265827Y133977D01*
X2267053Y136937D01*
X2272938Y138108D01*
X2313682Y97364D01*
X2313683Y97363D01*
X2318314Y94269D01*
X2323776Y93182D01*
X2323777Y93182D01*
X2772811D01*
X2772811Y93182D01*
X2778274Y94269D01*
X2780686Y95881D01*
X2786686Y93045D01*
Y-128883D01*
X2592512Y-323056D01*
X1469228D01*
X1392227Y-246056D01*
Y151417D01*
X1423386D01*
Y153245D01*
X1428929Y155541D01*
X1513327Y71143D01*
X1513328Y71143D01*
X1517958Y68049D01*
X1523421Y66962D01*
X1523421Y66962D01*
X1547445D01*
X1547445Y66962D01*
X1552908Y68049D01*
X1557539Y71143D01*
X1574526Y88130D01*
X1574527Y88131D01*
X1577621Y92761D01*
X1578707Y98224D01*
X1578707Y98225D01*
Y146119D01*
X1601722Y169134D01*
X1650748D01*
Y234409D01*
X1650748D01*
Y238032D01*
X1650748D01*
Y303307D01*
X1577598D01*
Y284944D01*
X1563150D01*
Y299370D01*
X1519279D01*
X1518904Y301254D01*
X1515810Y305885D01*
X1515810Y305885D01*
X1382621Y439074D01*
X1384643Y445537D01*
X1391760Y450293D01*
X1408147D01*
X1410975Y445001D01*
X1409521Y442825D01*
X1407581Y433071D01*
X1409521Y423316D01*
X1415047Y415047D01*
X1423316Y409521D01*
X1433071Y407581D01*
X1442825Y409521D01*
X1446892Y412238D01*
X1452292Y408630D01*
X1450888Y401575D01*
X1452829Y391820D01*
X1458354Y383551D01*
X1466623Y378025D01*
X1476378Y376085D01*
X1486132Y378025D01*
X1494402Y383551D01*
X1496908Y387300D01*
X1730495D01*
X1730495Y387300D01*
X1735958Y388387D01*
X1740589Y391481D01*
X1756252Y407145D01*
X1762763Y405170D01*
X1763852Y399694D01*
X1769378Y391425D01*
X1777647Y385899D01*
X1787402Y383959D01*
X1797156Y385899D01*
X1805426Y391425D01*
X1807931Y395175D01*
X1809381D01*
X1809382Y395174D01*
X1814844Y396261D01*
X1819475Y399355D01*
X1880019Y459899D01*
X1886482Y457877D01*
X1891425Y450480D01*
X1899694Y444954D01*
X1909449Y443014D01*
X1913872Y443894D01*
X1930970Y426795D01*
X1929334Y419947D01*
X1922921Y415662D01*
X1917395Y407392D01*
X1915455Y397638D01*
X1917395Y387883D01*
X1922921Y379614D01*
X1926288Y377364D01*
X1926815Y374713D01*
X1930130Y369751D01*
X1966680Y333201D01*
X1971642Y329886D01*
X1977495Y328722D01*
X2010264D01*
X2013223Y322722D01*
X2009291Y317598D01*
X2004713Y306546D01*
X2003151Y294685D01*
X2004713Y282825D01*
X2009291Y271773D01*
X2016573Y262282D01*
X2026064Y255000D01*
X2037116Y250422D01*
X2048976Y248860D01*
X2060837Y250422D01*
X2071889Y255000D01*
X2081380Y262282D01*
X2088662Y271773D01*
X2093240Y282825D01*
X2094801Y294685D01*
X2093240Y306546D01*
X2088662Y317598D01*
X2083884Y323824D01*
X2086843Y329824D01*
X2129220D01*
X2132179Y323824D01*
X2127401Y317598D01*
X2122823Y306546D01*
X2121262Y294685D01*
X2122823Y282825D01*
X2127401Y271773D01*
X2134683Y262282D01*
X2144174Y255000D01*
X2155226Y250422D01*
X2167087Y248860D01*
X2178947Y250422D01*
X2189999Y255000D01*
X2199490Y262282D01*
X2206772Y271773D01*
X2211350Y282825D01*
X2212912Y294685D01*
X2211350Y306546D01*
X2206772Y317598D01*
X2201994Y323824D01*
X2204953Y329824D01*
X2247330D01*
X2250289Y323824D01*
X2245511Y317598D01*
X2240933Y306546D01*
X2240030Y299685D01*
X2285197D01*
X2330364D01*
X2329461Y306546D01*
X2324883Y317598D01*
X2320105Y323824D01*
X2323064Y329824D01*
X2365440D01*
X2368399Y323824D01*
X2363622Y317598D01*
X2359044Y306546D01*
X2357482Y294685D01*
X2359044Y282825D01*
X2363622Y271773D01*
X2370904Y262282D01*
X2380395Y255000D01*
X2391447Y250422D01*
X2403307Y248860D01*
X2415168Y250422D01*
X2426220Y255000D01*
X2435710Y262282D01*
X2442993Y271773D01*
X2447571Y282825D01*
X2449132Y294685D01*
X2447571Y306546D01*
X2442993Y317598D01*
X2438215Y323824D01*
X2441174Y329824D01*
X2464649D01*
X2480309Y314164D01*
X2477154Y306546D01*
X2475592Y294685D01*
X2477154Y282825D01*
X2481732Y271773D01*
X2489014Y262282D01*
X2498505Y255000D01*
X2509557Y250422D01*
X2521417Y248860D01*
X2533278Y250422D01*
X2544330Y255000D01*
X2553820Y262282D01*
X2561103Y271773D01*
X2565681Y282825D01*
X2567242Y294685D01*
X2565681Y306546D01*
X2561103Y317598D01*
X2553820Y327088D01*
X2544330Y334371D01*
X2533278Y338949D01*
X2521417Y340510D01*
X2509557Y338949D01*
X2501938Y335793D01*
X2488836Y348895D01*
X2491132Y354438D01*
X2558146D01*
X2598420Y314164D01*
X2595264Y306546D01*
X2593703Y294685D01*
X2595264Y282825D01*
X2599842Y271773D01*
X2607124Y262282D01*
X2616615Y255000D01*
X2627667Y250422D01*
X2639528Y248860D01*
X2651388Y250422D01*
X2662440Y255000D01*
X2671931Y262282D01*
X2679213Y271773D01*
X2683791Y282825D01*
X2685353Y294685D01*
X2683791Y306546D01*
X2679213Y317598D01*
X2671931Y327088D01*
X2662440Y334371D01*
X2651388Y338949D01*
X2639528Y340510D01*
X2627667Y338949D01*
X2620049Y335793D01*
X2575295Y380547D01*
X2570333Y383862D01*
X2564480Y385026D01*
X2364194D01*
X2361898Y390570D01*
X2382809Y411480D01*
X2391447Y407902D01*
X2403307Y406340D01*
X2415168Y407902D01*
X2426220Y412480D01*
X2435710Y419762D01*
X2442993Y429253D01*
X2447571Y440305D01*
X2449132Y452165D01*
X2447571Y464026D01*
X2442993Y475078D01*
X2438200Y481324D01*
X2441159Y487324D01*
X2483566D01*
X2486525Y481324D01*
X2481732Y475078D01*
X2477154Y464026D01*
X2475592Y452165D01*
X2477154Y440305D01*
X2481732Y429253D01*
X2489014Y419762D01*
X2498505Y412480D01*
X2509557Y407902D01*
X2521417Y406340D01*
X2533278Y407902D01*
X2544330Y412480D01*
X2553820Y419762D01*
X2561103Y429253D01*
X2562329Y432213D01*
X2568214Y433383D01*
X2608958Y392639D01*
X2608958Y392639D01*
X2613589Y389545D01*
X2619052Y388458D01*
X2619052Y388458D01*
X2660003D01*
X2660003Y388458D01*
X2665466Y389545D01*
X2670097Y392639D01*
X2948223Y670765D01*
X3444037D01*
X3446543Y667015D01*
D02*
G37*
G36*
X3373028Y488675D02*
X3372148Y484252D01*
X3374088Y474498D01*
X3379614Y466228D01*
X3387883Y460702D01*
X3397638Y458762D01*
X3406363Y460498D01*
X3412363Y457357D01*
Y-169134D01*
X3349252D01*
Y-187497D01*
X3334803D01*
Y-173071D01*
X3291644D01*
Y-165173D01*
X3321003Y-135814D01*
X3328433Y-136134D01*
X3336702Y-141660D01*
X3346457Y-143600D01*
X3356211Y-141660D01*
X3364481Y-136134D01*
X3370006Y-127865D01*
X3371947Y-118110D01*
X3370006Y-108356D01*
X3364481Y-100086D01*
X3356211Y-94561D01*
X3346457Y-92620D01*
X3336702Y-94561D01*
X3328433Y-100086D01*
X3325927Y-103836D01*
X3318520D01*
X3318520Y-103836D01*
X3313057Y-104922D01*
X3308426Y-108017D01*
X3308426Y-108017D01*
X3267277Y-149166D01*
X3264182Y-153797D01*
X3263096Y-159260D01*
X3263096Y-159260D01*
Y-219537D01*
X3263096Y-219537D01*
X3264182Y-225000D01*
X3267277Y-229631D01*
X3281171Y-243526D01*
X3279370Y-247874D01*
X3279370D01*
Y-281151D01*
X3236213Y-324308D01*
X3205569D01*
X3203063Y-320559D01*
X3195039Y-315197D01*
Y-267654D01*
X3195039Y-262957D01*
X3200630Y-261969D01*
X3200883Y-261969D01*
X3206019Y-261969D01*
X3206019Y-261969D01*
X3206090Y-261969D01*
X3256063D01*
Y-210472D01*
X3222785D01*
X3195039Y-182726D01*
Y-151417D01*
X3104173D01*
Y-210787D01*
X3182726D01*
X3200630Y-228691D01*
Y-255969D01*
X3200630Y-260665D01*
X3195039Y-261653D01*
X3194787Y-261653D01*
X3189651Y-261654D01*
X3189650Y-261654D01*
X3189579Y-261654D01*
X3104173D01*
Y-277064D01*
X2982291D01*
X2879217Y-173991D01*
X2878424Y-172804D01*
X2878424Y-172804D01*
X2858692Y-153072D01*
X2854061Y-149978D01*
X2848599Y-148891D01*
X2848598Y-148891D01*
X2817150D01*
X2817150Y-148891D01*
X2815137Y-149291D01*
X2813157Y-147157D01*
X2811750Y-143847D01*
X2814148Y-140258D01*
X2815235Y-134795D01*
X2815235Y-134795D01*
Y-126179D01*
X2821235Y-123426D01*
X2826896Y-125771D01*
X2829646Y-126133D01*
Y-96850D01*
Y-67567D01*
X2826896Y-67929D01*
X2821235Y-70275D01*
X2815235Y-67521D01*
Y107066D01*
X3209390Y501222D01*
X3360481D01*
X3373028Y488675D01*
D02*
G37*
G36*
X1032970Y571422D02*
Y425197D01*
X1032970Y425197D01*
X1034056Y419734D01*
X1037151Y415103D01*
X1127701Y324553D01*
X1127702Y324552D01*
X1132333Y321458D01*
X1137795Y320371D01*
X1137796Y320371D01*
X1179127D01*
X1289119Y210379D01*
X1289119Y210379D01*
X1293750Y207285D01*
X1299213Y206198D01*
X1332520D01*
Y151417D01*
X1363678D01*
Y-251968D01*
X1363678Y-251969D01*
X1364765Y-257431D01*
X1367859Y-262062D01*
X1439311Y-333513D01*
X1437014Y-339056D01*
X1406487D01*
X1323558Y-256127D01*
Y7042D01*
X1322471Y12504D01*
X1319377Y17135D01*
X1319377Y17135D01*
X1270049Y66464D01*
X1265418Y69558D01*
X1259955Y70644D01*
X1259955Y70644D01*
X1107023D01*
X1010337Y167330D01*
Y560949D01*
X1015720Y563179D01*
X1023895Y569452D01*
X1026970Y573459D01*
X1032970Y571422D01*
D02*
G37*
%LPC*%
G36*
X3476850Y2245313D02*
Y2215669D01*
X3506494D01*
X3505950Y2219806D01*
X3502423Y2228320D01*
X3496813Y2235632D01*
X3489501Y2241242D01*
X3480987Y2244768D01*
X3476850Y2245313D01*
D02*
G37*
G36*
X3466850D02*
X3462714Y2244768D01*
X3454199Y2241242D01*
X3446888Y2235632D01*
X3441278Y2228320D01*
X3437751Y2219806D01*
X3437207Y2215669D01*
X3466850D01*
Y2245313D01*
D02*
G37*
G36*
X3506494Y2205669D02*
X3476850D01*
Y2176026D01*
X3480987Y2176570D01*
X3489501Y2180097D01*
X3496813Y2185707D01*
X3502423Y2193018D01*
X3505950Y2201532D01*
X3506494Y2205669D01*
D02*
G37*
G36*
X3466850D02*
X3437207D01*
X3437751Y2201532D01*
X3441278Y2193018D01*
X3446888Y2185707D01*
X3454199Y2180097D01*
X3462714Y2176570D01*
X3466850Y2176026D01*
Y2205669D01*
D02*
G37*
G36*
X2917992Y2195352D02*
Y2165709D01*
X2947636D01*
X2947091Y2169845D01*
X2943564Y2178360D01*
X2937954Y2185671D01*
X2930643Y2191281D01*
X2922129Y2194808D01*
X2917992Y2195352D01*
D02*
G37*
G36*
X2907992D02*
X2903855Y2194808D01*
X2895341Y2191281D01*
X2888030Y2185671D01*
X2882420Y2178360D01*
X2878893Y2169845D01*
X2878348Y2165709D01*
X2907992D01*
Y2195352D01*
D02*
G37*
G36*
X3147795Y2163138D02*
Y2133494D01*
X3177439D01*
X3176894Y2137631D01*
X3173368Y2146145D01*
X3167758Y2153457D01*
X3160446Y2159067D01*
X3151932Y2162593D01*
X3147795Y2163138D01*
D02*
G37*
G36*
X3137795D02*
X3133659Y2162593D01*
X3125144Y2159067D01*
X3117833Y2153457D01*
X3112223Y2146145D01*
X3108696Y2137631D01*
X3108152Y2133494D01*
X3137795D01*
Y2163138D01*
D02*
G37*
G36*
X2947636Y2155709D02*
X2917992D01*
Y2126065D01*
X2922129Y2126610D01*
X2930643Y2130136D01*
X2937954Y2135746D01*
X2943564Y2143058D01*
X2947091Y2151572D01*
X2947636Y2155709D01*
D02*
G37*
G36*
X2907992D02*
X2878348D01*
X2878893Y2151572D01*
X2882420Y2143058D01*
X2888030Y2135746D01*
X2895341Y2130136D01*
X2903855Y2126610D01*
X2907992Y2126065D01*
Y2155709D01*
D02*
G37*
G36*
X3177439Y2123494D02*
X3147795D01*
Y2093851D01*
X3151932Y2094395D01*
X3160446Y2097922D01*
X3167758Y2103532D01*
X3173368Y2110843D01*
X3176894Y2119358D01*
X3177439Y2123494D01*
D02*
G37*
G36*
X3137795D02*
X3108152D01*
X3108696Y2119358D01*
X3112223Y2110843D01*
X3117833Y2103532D01*
X3125144Y2097922D01*
X3133659Y2094395D01*
X3137795Y2093851D01*
Y2123494D01*
D02*
G37*
G36*
X3282835Y2218972D02*
X3270262Y2217733D01*
X3258173Y2214066D01*
X3247032Y2208111D01*
X3237266Y2200097D01*
X3229251Y2190331D01*
X3223296Y2179189D01*
X3219629Y2167100D01*
X3218391Y2154528D01*
X3219629Y2141955D01*
X3223296Y2129866D01*
X3229251Y2118724D01*
X3237266Y2108959D01*
X3247032Y2100944D01*
X3258173Y2094989D01*
X3270262Y2091322D01*
X3282835Y2090084D01*
X3295407Y2091322D01*
X3307496Y2094989D01*
X3318638Y2100944D01*
X3328404Y2108959D01*
X3336418Y2118724D01*
X3342373Y2129866D01*
X3346041Y2141955D01*
X3347279Y2154528D01*
X3346041Y2167100D01*
X3342373Y2179189D01*
X3336418Y2190331D01*
X3328404Y2200097D01*
X3318638Y2208111D01*
X3307496Y2214066D01*
X3295407Y2217733D01*
X3282835Y2218972D01*
D02*
G37*
G36*
X4241221Y1644880D02*
Y1615236D01*
X4270864D01*
X4270320Y1619373D01*
X4266793Y1627887D01*
X4261183Y1635198D01*
X4253872Y1640809D01*
X4245357Y1644335D01*
X4241221Y1644880D01*
D02*
G37*
G36*
X4231221D02*
X4227084Y1644335D01*
X4218569Y1640809D01*
X4211258Y1635198D01*
X4205648Y1627887D01*
X4202121Y1619373D01*
X4201577Y1615236D01*
X4231221D01*
Y1644880D01*
D02*
G37*
G36*
X3756811D02*
Y1615236D01*
X3786455D01*
X3785910Y1619373D01*
X3782383Y1627887D01*
X3776773Y1635198D01*
X3769462Y1640809D01*
X3760948Y1644335D01*
X3756811Y1644880D01*
D02*
G37*
G36*
X3746811D02*
X3742674Y1644335D01*
X3734160Y1640809D01*
X3726849Y1635198D01*
X3721239Y1627887D01*
X3717712Y1619373D01*
X3717167Y1615236D01*
X3746811D01*
Y1644880D01*
D02*
G37*
G36*
X4270864Y1605236D02*
X4241221D01*
Y1575592D01*
X4245357Y1576137D01*
X4253872Y1579664D01*
X4261183Y1585274D01*
X4266793Y1592585D01*
X4270320Y1601099D01*
X4270864Y1605236D01*
D02*
G37*
G36*
X4231221D02*
X4201577D01*
X4202121Y1601099D01*
X4205648Y1592585D01*
X4211258Y1585274D01*
X4218569Y1579664D01*
X4227084Y1576137D01*
X4231221Y1575592D01*
Y1605236D01*
D02*
G37*
G36*
X3786455D02*
X3756811D01*
Y1575592D01*
X3760948Y1576137D01*
X3769462Y1579664D01*
X3776773Y1585274D01*
X3782383Y1592585D01*
X3785910Y1601099D01*
X3786455Y1605236D01*
D02*
G37*
G36*
X3746811D02*
X3717167D01*
X3717712Y1601099D01*
X3721239Y1592585D01*
X3726849Y1585274D01*
X3734160Y1579664D01*
X3742674Y1576137D01*
X3746811Y1575592D01*
Y1605236D01*
D02*
G37*
G36*
X4548307Y1600507D02*
Y1512874D01*
X4635940D01*
X4634643Y1526042D01*
X4629344Y1543512D01*
X4620738Y1559612D01*
X4609157Y1573724D01*
X4595045Y1585305D01*
X4578945Y1593911D01*
X4561475Y1599210D01*
X4548307Y1600507D01*
D02*
G37*
G36*
X4538307D02*
X4525139Y1599210D01*
X4507669Y1593911D01*
X4491569Y1585305D01*
X4477457Y1573724D01*
X4465876Y1559612D01*
X4457270Y1543512D01*
X4451971Y1526042D01*
X4450674Y1512874D01*
X4538307D01*
Y1600507D01*
D02*
G37*
G36*
X4635940Y1502874D02*
X4548307D01*
Y1415241D01*
X4561475Y1416538D01*
X4578945Y1421837D01*
X4595045Y1430443D01*
X4609157Y1442024D01*
X4620738Y1456136D01*
X4629344Y1472236D01*
X4634643Y1489706D01*
X4635940Y1502874D01*
D02*
G37*
G36*
X4538307D02*
X4450674D01*
X4451971Y1489706D01*
X4457270Y1472236D01*
X4465876Y1456136D01*
X4477457Y1442024D01*
X4491569Y1430443D01*
X4507669Y1421837D01*
X4525139Y1416538D01*
X4538307Y1415241D01*
Y1502874D01*
D02*
G37*
G36*
X3749095Y1381173D02*
Y1351529D01*
X3778738D01*
X3778194Y1355666D01*
X3774667Y1364180D01*
X3769057Y1371492D01*
X3761745Y1377102D01*
X3753231Y1380628D01*
X3749095Y1381173D01*
D02*
G37*
G36*
X3739095D02*
X3734958Y1380628D01*
X3726443Y1377102D01*
X3719132Y1371492D01*
X3713522Y1364180D01*
X3709995Y1355666D01*
X3709451Y1351529D01*
X3739095D01*
Y1381173D01*
D02*
G37*
G36*
X3778738Y1341529D02*
X3749095D01*
Y1311886D01*
X3753231Y1312430D01*
X3761745Y1315957D01*
X3769057Y1321567D01*
X3774667Y1328878D01*
X3778194Y1337392D01*
X3778738Y1341529D01*
D02*
G37*
G36*
X3739095D02*
X3709451D01*
X3709995Y1337392D01*
X3713522Y1328878D01*
X3719132Y1321567D01*
X3726443Y1315957D01*
X3734958Y1312430D01*
X3739095Y1311886D01*
Y1341529D01*
D02*
G37*
G36*
X4323898Y1211132D02*
Y1181489D01*
X4353541D01*
X4352997Y1185625D01*
X4349470Y1194140D01*
X4343860Y1201451D01*
X4336549Y1207061D01*
X4328034Y1210588D01*
X4323898Y1211132D01*
D02*
G37*
G36*
X4313898D02*
X4309761Y1210588D01*
X4301247Y1207061D01*
X4293935Y1201451D01*
X4288325Y1194140D01*
X4284798Y1185625D01*
X4284254Y1181489D01*
X4313898D01*
Y1211132D01*
D02*
G37*
G36*
X2264370Y1207124D02*
Y1177480D01*
X2294014D01*
X2293469Y1181617D01*
X2289943Y1190131D01*
X2284332Y1197443D01*
X2277021Y1203053D01*
X2268507Y1206580D01*
X2264370Y1207124D01*
D02*
G37*
G36*
X2254370D02*
X2250233Y1206580D01*
X2241719Y1203053D01*
X2234408Y1197443D01*
X2228798Y1190131D01*
X2225271Y1181617D01*
X2224726Y1177480D01*
X2254370D01*
Y1207124D01*
D02*
G37*
G36*
X4353541Y1171489D02*
X4323898D01*
Y1141845D01*
X4328034Y1142389D01*
X4336549Y1145916D01*
X4343860Y1151526D01*
X4349470Y1158838D01*
X4352997Y1167352D01*
X4353541Y1171489D01*
D02*
G37*
G36*
X4313898D02*
X4284254D01*
X4284798Y1167352D01*
X4288325Y1158838D01*
X4293935Y1151526D01*
X4301247Y1145916D01*
X4309761Y1142389D01*
X4313898Y1141845D01*
Y1171489D01*
D02*
G37*
G36*
X2294014Y1167480D02*
X2264370D01*
Y1137837D01*
X2268507Y1138381D01*
X2277021Y1141908D01*
X2284332Y1147518D01*
X2289943Y1154829D01*
X2293469Y1163344D01*
X2294014Y1167480D01*
D02*
G37*
G36*
X2254370D02*
X2224726D01*
X2225271Y1163344D01*
X2228798Y1154829D01*
X2234408Y1147518D01*
X2241719Y1141908D01*
X2250233Y1138381D01*
X2254370Y1137837D01*
Y1167480D01*
D02*
G37*
G36*
X2512711Y1026770D02*
Y997126D01*
X2542355D01*
X2541810Y1001263D01*
X2538283Y1009777D01*
X2532673Y1017088D01*
X2525362Y1022698D01*
X2516848Y1026225D01*
X2512711Y1026770D01*
D02*
G37*
G36*
X2502711D02*
X2498574Y1026225D01*
X2490060Y1022698D01*
X2482749Y1017088D01*
X2477139Y1009777D01*
X2473612Y1001263D01*
X2473067Y997126D01*
X2502711D01*
Y1026770D01*
D02*
G37*
G36*
X2542355Y987126D02*
X2512711D01*
Y957482D01*
X2516848Y958027D01*
X2525362Y961554D01*
X2532673Y967164D01*
X2538283Y974475D01*
X2541810Y982989D01*
X2542355Y987126D01*
D02*
G37*
G36*
X2502711D02*
X2473067D01*
X2473612Y982989D01*
X2477139Y974475D01*
X2482749Y967164D01*
X2490060Y961554D01*
X2498574Y958027D01*
X2502711Y957482D01*
Y987126D01*
D02*
G37*
G36*
X2593425Y968661D02*
X2570709D01*
Y947913D01*
X2593425D01*
Y968661D01*
D02*
G37*
G36*
X3264921Y893858D02*
X3191772D01*
Y830961D01*
X3191772Y824961D01*
X3191772Y822583D01*
Y806597D01*
X3176046D01*
X3171567Y813300D01*
X3163298Y818825D01*
X3153543Y820765D01*
X3143789Y818825D01*
X3135519Y813300D01*
X3129994Y805030D01*
X3128053Y795276D01*
X3129994Y785521D01*
X3135519Y777252D01*
X3143789Y771726D01*
X3153543Y769786D01*
X3163298Y771726D01*
X3171567Y777252D01*
X3172100Y778049D01*
X3191772D01*
Y759685D01*
X3264921D01*
Y822583D01*
X3264921Y828583D01*
X3264921Y830961D01*
Y849899D01*
X3279370D01*
Y838425D01*
X3334803D01*
Y889921D01*
X3279370D01*
Y878447D01*
X3264921D01*
Y893858D01*
D02*
G37*
G36*
X3881249Y865352D02*
Y835709D01*
X3910892D01*
X3910348Y839846D01*
X3906821Y848360D01*
X3901211Y855671D01*
X3893900Y861281D01*
X3885385Y864808D01*
X3881249Y865352D01*
D02*
G37*
G36*
X3871249D02*
X3867112Y864808D01*
X3858598Y861281D01*
X3851286Y855671D01*
X3845676Y848360D01*
X3842149Y839846D01*
X3841605Y835709D01*
X3871249D01*
Y865352D01*
D02*
G37*
G36*
X2967199Y859604D02*
Y829961D01*
X2996843D01*
X2996298Y834097D01*
X2992772Y842612D01*
X2987162Y849923D01*
X2979850Y855533D01*
X2971336Y859060D01*
X2967199Y859604D01*
D02*
G37*
G36*
X2957199D02*
X2953063Y859060D01*
X2944548Y855533D01*
X2937237Y849923D01*
X2931627Y842612D01*
X2928100Y834097D01*
X2927556Y829961D01*
X2957199D01*
Y859604D01*
D02*
G37*
G36*
X3910892Y825709D02*
X3881249D01*
Y796065D01*
X3885385Y796610D01*
X3893900Y800136D01*
X3901211Y805746D01*
X3906821Y813058D01*
X3910348Y821572D01*
X3910892Y825709D01*
D02*
G37*
G36*
X3871249D02*
X3841605D01*
X3842149Y821572D01*
X3845676Y813058D01*
X3851286Y805746D01*
X3858598Y800136D01*
X3867112Y796610D01*
X3871249Y796065D01*
Y825709D01*
D02*
G37*
G36*
X3334803Y815118D02*
X3312087D01*
Y794370D01*
X3334803D01*
Y815118D01*
D02*
G37*
G36*
X3302087D02*
X3279370D01*
Y794370D01*
X3302087D01*
Y815118D01*
D02*
G37*
G36*
X2996843Y819961D02*
X2967199D01*
Y790317D01*
X2971336Y790862D01*
X2979850Y794388D01*
X2987162Y799998D01*
X2992772Y807310D01*
X2996298Y815824D01*
X2996843Y819961D01*
D02*
G37*
G36*
X2957199D02*
X2927556D01*
X2928100Y815824D01*
X2931627Y807310D01*
X2937237Y799998D01*
X2944548Y794388D01*
X2953063Y790862D01*
X2957199Y790317D01*
Y819961D01*
D02*
G37*
G36*
X3531653Y784370D02*
X3508937D01*
Y763622D01*
X3531653D01*
Y784370D01*
D02*
G37*
G36*
X3498937D02*
X3476220D01*
Y763622D01*
X3498937D01*
Y784370D01*
D02*
G37*
G36*
X3334803Y784370D02*
X3312087D01*
Y763622D01*
X3334803D01*
Y784370D01*
D02*
G37*
G36*
X3302087D02*
X3279370D01*
Y763622D01*
X3302087D01*
Y784370D01*
D02*
G37*
G36*
X4237283Y774335D02*
Y730197D01*
X4281421D01*
X4280383Y738085D01*
X4275408Y750095D01*
X4267495Y760408D01*
X4257181Y768322D01*
X4245172Y773296D01*
X4237283Y774335D01*
D02*
G37*
G36*
X4227283D02*
X4219395Y773296D01*
X4207385Y768322D01*
X4197072Y760408D01*
X4189159Y750095D01*
X4184184Y738085D01*
X4183146Y730197D01*
X4227283D01*
Y774335D01*
D02*
G37*
G36*
X4281421Y720197D02*
X4237283D01*
Y676059D01*
X4245172Y677097D01*
X4257181Y682072D01*
X4267495Y689986D01*
X4275408Y700299D01*
X4280383Y712309D01*
X4281421Y720197D01*
D02*
G37*
G36*
X4227283D02*
X4183146D01*
X4184184Y712309D01*
X4189159Y700299D01*
X4197072Y689986D01*
X4207385Y682072D01*
X4219395Y677097D01*
X4227283Y676059D01*
Y720197D01*
D02*
G37*
G36*
X4114173Y774993D02*
X4101285Y773296D01*
X4089275Y768322D01*
X4078962Y760408D01*
X4071048Y750095D01*
X4066074Y738085D01*
X4064377Y725197D01*
X4066074Y712309D01*
X4070474Y701685D01*
X3914560Y545770D01*
X3496907D01*
X3494402Y549520D01*
X3486133Y555046D01*
X3476378Y556986D01*
X3466624Y555046D01*
X3458354Y549520D01*
X3452829Y541251D01*
X3450888Y531496D01*
X3452829Y521742D01*
X3458354Y513472D01*
X3466624Y507947D01*
X3476378Y506006D01*
X3486133Y507947D01*
X3494402Y513472D01*
X3496907Y517222D01*
X3601839D01*
X3603659Y511222D01*
X3602055Y510150D01*
X3596529Y501880D01*
X3594589Y492126D01*
X3596529Y482372D01*
X3602055Y474102D01*
X3605804Y471596D01*
Y387015D01*
X3577505Y358716D01*
X3574411Y354085D01*
X3573324Y348622D01*
X3573324Y348622D01*
Y272795D01*
X3554961D01*
Y199646D01*
X3617858D01*
X3623858Y199646D01*
X3626236Y199646D01*
X3651496D01*
Y236220D01*
Y272795D01*
X3626236D01*
X3620236Y272795D01*
X3617858Y272795D01*
X3601873D01*
Y342709D01*
X3630172Y371009D01*
X3630172Y371009D01*
X3633266Y375640D01*
X3634353Y381102D01*
Y471596D01*
X3638103Y474102D01*
X3643628Y482372D01*
X3645568Y492126D01*
X3643628Y501880D01*
X3638103Y510150D01*
X3636499Y511222D01*
X3638319Y517222D01*
X3920472D01*
X3920472Y517222D01*
X3925935Y518308D01*
X3930566Y521403D01*
X4090661Y681498D01*
X4101285Y677097D01*
X4114173Y675401D01*
X4127061Y677097D01*
X4139071Y682072D01*
X4149384Y689986D01*
X4157298Y700299D01*
X4162273Y712309D01*
X4163969Y725197D01*
X4162273Y738085D01*
X4157298Y750095D01*
X4149384Y760408D01*
X4139071Y768322D01*
X4127061Y773296D01*
X4114173Y774993D01*
D02*
G37*
G36*
X3895984Y636834D02*
X3885768Y635489D01*
X3876249Y631545D01*
X3868074Y625273D01*
X3861801Y617098D01*
X3857858Y607578D01*
X3856513Y597362D01*
X3857858Y587146D01*
X3861801Y577626D01*
X3868074Y569452D01*
X3876249Y563179D01*
X3885768Y559236D01*
X3895984Y557891D01*
X3906200Y559236D01*
X3915720Y563179D01*
X3923895Y569452D01*
X3930168Y577626D01*
X3934111Y587146D01*
X3935456Y597362D01*
X3934111Y607578D01*
X3930168Y617098D01*
X3923895Y625273D01*
X3915720Y631545D01*
X3906200Y635489D01*
X3895984Y636834D01*
D02*
G37*
G36*
X3795984D02*
X3785768Y635489D01*
X3776249Y631545D01*
X3768074Y625273D01*
X3761801Y617098D01*
X3757858Y607578D01*
X3756513Y597362D01*
X3757858Y587146D01*
X3761801Y577626D01*
X3768074Y569452D01*
X3776249Y563179D01*
X3785768Y559236D01*
X3795984Y557891D01*
X3806200Y559236D01*
X3815720Y563179D01*
X3823895Y569452D01*
X3830168Y577626D01*
X3834111Y587146D01*
X3835456Y597362D01*
X3834111Y607578D01*
X3830168Y617098D01*
X3823895Y625273D01*
X3815720Y631545D01*
X3806200Y635489D01*
X3795984Y636834D01*
D02*
G37*
G36*
X4327835Y525654D02*
Y496011D01*
X4357478D01*
X4356934Y500148D01*
X4353407Y508662D01*
X4347797Y515973D01*
X4340486Y521583D01*
X4331971Y525110D01*
X4327835Y525654D01*
D02*
G37*
G36*
X4317835D02*
X4313698Y525110D01*
X4305184Y521583D01*
X4297872Y515973D01*
X4292262Y508662D01*
X4288735Y500148D01*
X4288191Y496011D01*
X4317835D01*
Y525654D01*
D02*
G37*
G36*
X4173228Y624507D02*
X4159691Y623174D01*
X4146674Y619225D01*
X4134678Y612813D01*
X4124163Y604184D01*
X4115533Y593669D01*
X4109121Y581672D01*
X4105172Y568655D01*
X4103839Y555118D01*
X4105172Y541581D01*
X4109121Y528564D01*
X4115533Y516567D01*
X4124163Y506053D01*
X4134678Y497423D01*
X4146674Y491011D01*
X4159691Y487062D01*
X4173228Y485729D01*
X4186766Y487062D01*
X4199782Y491011D01*
X4211779Y497423D01*
X4222294Y506053D01*
X4230923Y516567D01*
X4237336Y528564D01*
X4241284Y541581D01*
X4242618Y555118D01*
X4241284Y568655D01*
X4237336Y581672D01*
X4230923Y593669D01*
X4222294Y604184D01*
X4211779Y612813D01*
X4199782Y619225D01*
X4186766Y623174D01*
X4173228Y624507D01*
D02*
G37*
G36*
X4357478Y486011D02*
X4327835D01*
Y456367D01*
X4331971Y456912D01*
X4340486Y460438D01*
X4347797Y466048D01*
X4353407Y473360D01*
X4356934Y481874D01*
X4357478Y486011D01*
D02*
G37*
G36*
X4317835D02*
X4288191D01*
X4288735Y481874D01*
X4292262Y473360D01*
X4297872Y466048D01*
X4305184Y460438D01*
X4313698Y456912D01*
X4317835Y456367D01*
Y486011D01*
D02*
G37*
G36*
X3992008Y358775D02*
Y271142D01*
X4079641D01*
X4078344Y284310D01*
X4073045Y301779D01*
X4064439Y317880D01*
X4052858Y331991D01*
X4038746Y343573D01*
X4022646Y352178D01*
X4005176Y357478D01*
X3992008Y358775D01*
D02*
G37*
G36*
X3982008D02*
X3968840Y357478D01*
X3951370Y352178D01*
X3935270Y343573D01*
X3921158Y331991D01*
X3909577Y317880D01*
X3900971Y301779D01*
X3895672Y284310D01*
X3894375Y271142D01*
X3982008D01*
Y358775D01*
D02*
G37*
G36*
X3661496Y272795D02*
Y241220D01*
X3689134D01*
Y272795D01*
X3661496D01*
D02*
G37*
G36*
X3689134Y231220D02*
X3661496D01*
Y199646D01*
X3689134D01*
Y231220D01*
D02*
G37*
G36*
X4079641Y261142D02*
X3992008D01*
Y173509D01*
X4005176Y174806D01*
X4022646Y180105D01*
X4038746Y188711D01*
X4052858Y200292D01*
X4064439Y214404D01*
X4073045Y230504D01*
X4078344Y247974D01*
X4079641Y261142D01*
D02*
G37*
G36*
X3982008D02*
X3894375D01*
X3895672Y247974D01*
X3900971Y230504D01*
X3909577Y214404D01*
X3921158Y200292D01*
X3935270Y188711D01*
X3951370Y180105D01*
X3968840Y174806D01*
X3982008Y173509D01*
Y261142D01*
D02*
G37*
G36*
X3488554Y152754D02*
Y123110D01*
X3518198D01*
X3517653Y127247D01*
X3514126Y135761D01*
X3508516Y143072D01*
X3501205Y148683D01*
X3492691Y152209D01*
X3488554Y152754D01*
D02*
G37*
G36*
X3478554D02*
X3474417Y152209D01*
X3465903Y148683D01*
X3458592Y143072D01*
X3452982Y135761D01*
X3449455Y127247D01*
X3448910Y123110D01*
X3478554D01*
Y152754D01*
D02*
G37*
G36*
X3518198Y113110D02*
X3488554D01*
Y83466D01*
X3492691Y84011D01*
X3501205Y87538D01*
X3508516Y93148D01*
X3514126Y100459D01*
X3517653Y108973D01*
X3518198Y113110D01*
D02*
G37*
G36*
X3478554D02*
X3448910D01*
X3449455Y108973D01*
X3452982Y100459D01*
X3458592Y93148D01*
X3465903Y87538D01*
X3474417Y84011D01*
X3478554Y83466D01*
Y113110D01*
D02*
G37*
G36*
X2834646Y-266909D02*
X2826896Y-267929D01*
X2819675Y-270921D01*
X2813474Y-275679D01*
X2808716Y-281880D01*
X2805725Y-289101D01*
X2804704Y-296850D01*
X2805725Y-304600D01*
X2808716Y-311821D01*
X2813474Y-318022D01*
X2819675Y-322780D01*
X2826896Y-325771D01*
X2834646Y-326792D01*
X2842395Y-325771D01*
X2849616Y-322780D01*
X2855817Y-318022D01*
X2860575Y-311821D01*
X2863567Y-304600D01*
X2864587Y-296850D01*
X2863567Y-289101D01*
X2860575Y-281880D01*
X2855817Y-275679D01*
X2849616Y-270921D01*
X2842395Y-267929D01*
X2834646Y-266909D01*
D02*
G37*
G36*
X2546022Y2150479D02*
X2541267Y2149534D01*
X2532998Y2144008D01*
X2527472Y2135739D01*
X2526527Y2130984D01*
X2546022D01*
Y2150479D01*
D02*
G37*
G36*
X2424134Y2130794D02*
X2419379Y2129849D01*
X2411110Y2124323D01*
X2405584Y2116054D01*
X2404639Y2111299D01*
X2424134D01*
Y2130794D01*
D02*
G37*
G36*
X3274528Y1936929D02*
X3249843D01*
Y1914213D01*
X3274528D01*
Y1936929D01*
D02*
G37*
G36*
X3179291D02*
X3154606D01*
Y1914213D01*
X3179291D01*
Y1936929D01*
D02*
G37*
G36*
X3144606D02*
X3119921D01*
Y1914213D01*
X3144606D01*
Y1936929D01*
D02*
G37*
G36*
X3067992Y1900785D02*
Y1871142D01*
X3097636D01*
X3097091Y1875278D01*
X3093564Y1883793D01*
X3087954Y1891104D01*
X3080643Y1896714D01*
X3072129Y1900241D01*
X3067992Y1900785D01*
D02*
G37*
G36*
X3057992D02*
X3053855Y1900241D01*
X3045341Y1896714D01*
X3038030Y1891104D01*
X3032420Y1883793D01*
X3028893Y1875278D01*
X3028348Y1871142D01*
X3057992D01*
Y1900785D01*
D02*
G37*
G36*
X3399134Y1688150D02*
X3324016D01*
Y1613032D01*
X3399134D01*
Y1688150D01*
D02*
G37*
G36*
X3304291Y1536339D02*
X3280591D01*
Y1514606D01*
X3304291D01*
Y1536339D01*
D02*
G37*
G36*
X3270591D02*
X3246890D01*
Y1514606D01*
X3270591D01*
Y1536339D01*
D02*
G37*
G36*
X3189886Y1510137D02*
Y1480493D01*
X3219530D01*
X3218985Y1484630D01*
X3215459Y1493144D01*
X3209849Y1500455D01*
X3202537Y1506065D01*
X3194023Y1509592D01*
X3189886Y1510137D01*
D02*
G37*
G36*
X3179886D02*
X3175750Y1509592D01*
X3167235Y1506065D01*
X3159924Y1500455D01*
X3154314Y1493144D01*
X3150787Y1484630D01*
X3150243Y1480493D01*
X3179886D01*
Y1510137D01*
D02*
G37*
G36*
X3092677Y1468425D02*
X3067992D01*
Y1445709D01*
X3092677D01*
Y1468425D01*
D02*
G37*
G36*
X3057992D02*
X3033307D01*
Y1445709D01*
X3057992D01*
Y1468425D01*
D02*
G37*
G36*
X3219530Y1470493D02*
X3189886D01*
Y1440849D01*
X3194023Y1441394D01*
X3202537Y1444920D01*
X3209849Y1450531D01*
X3215459Y1457842D01*
X3218985Y1466356D01*
X3219530Y1470493D01*
D02*
G37*
G36*
X3179886D02*
X3150243D01*
X3150787Y1466356D01*
X3154314Y1457842D01*
X3159924Y1450531D01*
X3167235Y1444920D01*
X3175750Y1441394D01*
X3179886Y1440849D01*
Y1470493D01*
D02*
G37*
G36*
X591409Y2203935D02*
Y2174291D01*
X621053D01*
X620509Y2178428D01*
X616982Y2186942D01*
X611372Y2194254D01*
X604060Y2199864D01*
X595546Y2203390D01*
X591409Y2203935D01*
D02*
G37*
G36*
X581409D02*
X577273Y2203390D01*
X568758Y2199864D01*
X561447Y2194254D01*
X555837Y2186942D01*
X552310Y2178428D01*
X551766Y2174291D01*
X581409D01*
Y2203935D01*
D02*
G37*
G36*
X687284Y2204646D02*
X643146D01*
X644184Y2196758D01*
X649159Y2184748D01*
X657072Y2174434D01*
X667385Y2166521D01*
X679395Y2161546D01*
X687284Y2160508D01*
Y2204646D01*
D02*
G37*
G36*
X621053Y2164291D02*
X591409D01*
Y2134648D01*
X595546Y2135192D01*
X604060Y2138719D01*
X611372Y2144329D01*
X616982Y2151640D01*
X620509Y2160155D01*
X621053Y2164291D01*
D02*
G37*
G36*
X581409D02*
X551766D01*
X552310Y2160155D01*
X555837Y2151640D01*
X561447Y2144329D01*
X568758Y2138719D01*
X577273Y2135192D01*
X581409Y2134648D01*
Y2164291D01*
D02*
G37*
G36*
X448189Y2218972D02*
X435617Y2217733D01*
X423527Y2214066D01*
X412386Y2208111D01*
X402620Y2200097D01*
X394606Y2190331D01*
X388650Y2179189D01*
X384983Y2167100D01*
X383745Y2154528D01*
X384983Y2141955D01*
X388650Y2129866D01*
X394606Y2118724D01*
X402620Y2108959D01*
X412386Y2100944D01*
X423527Y2094989D01*
X435617Y2091322D01*
X448189Y2090084D01*
X460761Y2091322D01*
X472851Y2094989D01*
X483992Y2100944D01*
X493758Y2108959D01*
X501772Y2118724D01*
X507728Y2129866D01*
X511395Y2141955D01*
X512633Y2154528D01*
X511395Y2167100D01*
X507728Y2179189D01*
X501772Y2190331D01*
X493758Y2200097D01*
X483992Y2208111D01*
X472851Y2214066D01*
X460761Y2217733D01*
X448189Y2218972D01*
D02*
G37*
G36*
X800276Y2052053D02*
Y2022409D01*
X829919D01*
X829375Y2026546D01*
X825848Y2035060D01*
X820238Y2042371D01*
X812927Y2047982D01*
X804412Y2051508D01*
X800276Y2052053D01*
D02*
G37*
G36*
X790276D02*
X786139Y2051508D01*
X777625Y2047982D01*
X770313Y2042371D01*
X764703Y2035060D01*
X761177Y2026546D01*
X760632Y2022409D01*
X790276D01*
Y2052053D01*
D02*
G37*
G36*
X535591Y2052323D02*
X491969D01*
Y1992953D01*
X535591D01*
Y2052323D01*
D02*
G37*
G36*
X829919Y2012409D02*
X800276D01*
Y1982765D01*
X804412Y1983310D01*
X812927Y1986837D01*
X820238Y1992447D01*
X825848Y1999758D01*
X829375Y2008272D01*
X829919Y2012409D01*
D02*
G37*
G36*
X790276D02*
X760632D01*
X761177Y2008272D01*
X764703Y1999758D01*
X770313Y1992447D01*
X777625Y1986837D01*
X786139Y1983310D01*
X790276Y1982765D01*
Y2012409D01*
D02*
G37*
G36*
X1674291Y1974092D02*
Y1944449D01*
X1703935D01*
X1703390Y1948586D01*
X1699864Y1957100D01*
X1694254Y1964411D01*
X1686942Y1970021D01*
X1678428Y1973548D01*
X1674291Y1974092D01*
D02*
G37*
G36*
X1664291D02*
X1660155Y1973548D01*
X1651640Y1970021D01*
X1644329Y1964411D01*
X1638719Y1957100D01*
X1635192Y1948586D01*
X1634648Y1944449D01*
X1664291D01*
Y1974092D01*
D02*
G37*
G36*
X1132047Y1936929D02*
X1107362D01*
Y1914213D01*
X1132047D01*
Y1936929D01*
D02*
G37*
G36*
X1097362D02*
X1072677D01*
Y1914213D01*
X1097362D01*
Y1936929D01*
D02*
G37*
G36*
X1592071Y1925787D02*
X1550197D01*
X1508322D01*
X1508868Y1923045D01*
X1512586Y1917480D01*
X1508868Y1911915D01*
X1508322Y1909173D01*
X1550197D01*
X1592071D01*
X1591526Y1911915D01*
X1587807Y1917480D01*
X1591526Y1923045D01*
X1592071Y1925787D01*
D02*
G37*
G36*
X1703935Y1934449D02*
X1674291D01*
Y1904805D01*
X1678428Y1905350D01*
X1686942Y1908876D01*
X1694254Y1914486D01*
X1699864Y1921798D01*
X1703390Y1930312D01*
X1703935Y1934449D01*
D02*
G37*
G36*
X1664291D02*
X1634648D01*
X1635192Y1930312D01*
X1638719Y1921798D01*
X1644329Y1914486D01*
X1651640Y1908876D01*
X1660155Y1905350D01*
X1664291Y1904805D01*
Y1934449D01*
D02*
G37*
G36*
X982441Y1892638D02*
X949882D01*
Y1862047D01*
X982441D01*
Y1892638D01*
D02*
G37*
G36*
X939882D02*
X907323D01*
Y1862047D01*
X939882D01*
Y1892638D01*
D02*
G37*
G36*
X1256063Y2006063D02*
X1184882D01*
Y1944428D01*
X1181102D01*
X1175250Y1943264D01*
X1170288Y1939948D01*
X1052178Y1821838D01*
X1048862Y1816876D01*
X1047698Y1811024D01*
Y1730472D01*
X1027402D01*
Y1667165D01*
X1098583D01*
Y1730472D01*
X1078286D01*
Y1804689D01*
X1179339Y1905741D01*
X1184882Y1903445D01*
Y1852205D01*
X1230497D01*
X1269186Y1813516D01*
X1274147Y1810201D01*
X1280000Y1809037D01*
X1504592D01*
X1508386Y1803037D01*
X1508322Y1802716D01*
X1550197D01*
X1592071D01*
X1591526Y1805459D01*
X1587807Y1811024D01*
X1591526Y1816589D01*
X1593066Y1824331D01*
X1591526Y1832073D01*
X1587807Y1837638D01*
X1591526Y1843203D01*
X1593066Y1850945D01*
X1591526Y1858687D01*
X1587807Y1864252D01*
X1591526Y1869817D01*
X1593066Y1877559D01*
X1591526Y1885301D01*
X1587807Y1890866D01*
X1591526Y1896431D01*
X1592071Y1899173D01*
X1550197D01*
X1508322D01*
X1508868Y1896431D01*
X1512586Y1890866D01*
X1508868Y1885301D01*
X1507328Y1877559D01*
X1508868Y1869817D01*
X1506641Y1863493D01*
X1506180Y1863040D01*
X1501612Y1859988D01*
X1501249Y1859625D01*
X1458894D01*
X1453898Y1862047D01*
Y1927323D01*
X1453898D01*
Y1930945D01*
X1453898D01*
Y1996220D01*
X1380748D01*
Y1978877D01*
X1256063D01*
Y2006063D01*
D02*
G37*
G36*
X1154606Y1811897D02*
Y1792402D01*
X1174101D01*
X1173156Y1797156D01*
X1167630Y1805426D01*
X1159361Y1810951D01*
X1154606Y1811897D01*
D02*
G37*
G36*
X1144606D02*
X1139852Y1810951D01*
X1131582Y1805426D01*
X1126057Y1797156D01*
X1125111Y1792402D01*
X1144606D01*
Y1811897D01*
D02*
G37*
G36*
X1215472Y1786575D02*
X1190787D01*
Y1763858D01*
X1215472D01*
Y1786575D01*
D02*
G37*
G36*
X1174101Y1782402D02*
X1154606D01*
Y1762906D01*
X1159361Y1763852D01*
X1167630Y1769378D01*
X1173156Y1777647D01*
X1174101Y1782402D01*
D02*
G37*
G36*
X1144606D02*
X1125111D01*
X1126057Y1777647D01*
X1131582Y1769378D01*
X1139852Y1763852D01*
X1144606Y1762906D01*
Y1782402D01*
D02*
G37*
G36*
X644842Y1761968D02*
X622126D01*
Y1737284D01*
X644842D01*
Y1761968D01*
D02*
G37*
G36*
Y1727284D02*
X622126D01*
Y1702599D01*
X644842D01*
Y1727284D01*
D02*
G37*
G36*
X1362072Y1717409D02*
Y1697913D01*
X1381568D01*
X1380622Y1702668D01*
X1375096Y1710937D01*
X1366827Y1716463D01*
X1362072Y1717409D01*
D02*
G37*
G36*
X1352072D02*
X1347318Y1716463D01*
X1339048Y1710937D01*
X1333523Y1702668D01*
X1332577Y1697913D01*
X1352072D01*
Y1717409D01*
D02*
G37*
G36*
X1922323Y1722557D02*
Y1692913D01*
X1951966D01*
X1951422Y1697050D01*
X1947895Y1705564D01*
X1942285Y1712876D01*
X1934974Y1718486D01*
X1926460Y1722013D01*
X1922323Y1722557D01*
D02*
G37*
G36*
X749095Y1711809D02*
Y1682165D01*
X778738D01*
X778194Y1686302D01*
X774667Y1694816D01*
X769057Y1702128D01*
X761745Y1707738D01*
X753231Y1711264D01*
X749095Y1711809D01*
D02*
G37*
G36*
X739095D02*
X734958Y1711264D01*
X726443Y1707738D01*
X719132Y1702128D01*
X713522Y1694816D01*
X709995Y1686302D01*
X709451Y1682165D01*
X739095D01*
Y1711809D01*
D02*
G37*
G36*
X1381568Y1687913D02*
X1362072D01*
Y1668418D01*
X1366827Y1669364D01*
X1375096Y1674889D01*
X1380622Y1683159D01*
X1381568Y1687913D01*
D02*
G37*
G36*
X1352072D02*
X1332577D01*
X1333523Y1683159D01*
X1339048Y1674889D01*
X1347318Y1669364D01*
X1352072Y1668418D01*
Y1687913D01*
D02*
G37*
G36*
X1951966Y1682913D02*
X1922323D01*
Y1653270D01*
X1926460Y1653814D01*
X1934974Y1657341D01*
X1942285Y1662951D01*
X1947895Y1670262D01*
X1951422Y1678777D01*
X1951966Y1682913D01*
D02*
G37*
G36*
X1877504Y1819331D02*
X1835630D01*
X1793755D01*
X1794301Y1816589D01*
X1798019Y1811024D01*
X1794301Y1805459D01*
X1792761Y1797716D01*
X1794301Y1789974D01*
X1798019Y1784409D01*
X1794301Y1778844D01*
X1792761Y1771102D01*
X1794301Y1763360D01*
X1798019Y1757795D01*
X1794301Y1752230D01*
X1792761Y1744488D01*
X1794301Y1736746D01*
X1798019Y1731181D01*
X1794301Y1725616D01*
X1792761Y1717874D01*
X1794301Y1710132D01*
X1798019Y1704567D01*
X1794301Y1699002D01*
X1792761Y1691260D01*
X1794301Y1683518D01*
X1798019Y1677953D01*
X1794301Y1672388D01*
X1792761Y1664646D01*
X1794301Y1656903D01*
X1798019Y1651339D01*
X1794301Y1645774D01*
X1792761Y1638031D01*
X1794301Y1630289D01*
X1798687Y1623726D01*
X1805250Y1619340D01*
X1812992Y1617800D01*
X1858268D01*
X1866010Y1619340D01*
X1872573Y1623726D01*
X1876959Y1630289D01*
X1878499Y1638031D01*
X1876959Y1645774D01*
X1873241Y1651339D01*
X1876959Y1656903D01*
X1878499Y1664646D01*
X1876959Y1672388D01*
X1873241Y1677953D01*
X1876615Y1683004D01*
X1878575Y1683161D01*
X1882768Y1682235D01*
X1883224Y1678777D01*
X1886750Y1670262D01*
X1892361Y1662951D01*
X1899672Y1657341D01*
X1908186Y1653814D01*
X1912323Y1653270D01*
Y1687913D01*
Y1722557D01*
X1908186Y1722013D01*
X1899672Y1718486D01*
X1892361Y1712876D01*
X1886750Y1705564D01*
X1883387Y1697443D01*
X1882826Y1697240D01*
X1877008Y1698754D01*
X1876959Y1699002D01*
X1873241Y1704567D01*
X1876959Y1710132D01*
X1878499Y1717874D01*
X1876959Y1725616D01*
X1873241Y1731181D01*
X1876959Y1736746D01*
X1878499Y1744488D01*
X1876959Y1752230D01*
X1873241Y1757795D01*
X1876959Y1763360D01*
X1878499Y1771102D01*
X1876959Y1778844D01*
X1873241Y1784409D01*
X1876959Y1789974D01*
X1878499Y1797716D01*
X1876959Y1805459D01*
X1873241Y1811024D01*
X1876959Y1816589D01*
X1877504Y1819331D01*
D02*
G37*
G36*
X778738Y1672165D02*
X749095D01*
Y1642522D01*
X753231Y1643066D01*
X761745Y1646593D01*
X769057Y1652203D01*
X774667Y1659514D01*
X778194Y1668029D01*
X778738Y1672165D01*
D02*
G37*
G36*
X739095D02*
X709451D01*
X709995Y1668029D01*
X713522Y1659514D01*
X719132Y1652203D01*
X726443Y1646593D01*
X734958Y1643066D01*
X739095Y1642522D01*
Y1672165D01*
D02*
G37*
G36*
X1592071Y1712874D02*
X1550197D01*
X1508322D01*
X1508868Y1710132D01*
X1509770Y1708782D01*
X1506563Y1702782D01*
X1450812D01*
X1444959Y1701618D01*
X1439997Y1698303D01*
X1170288Y1428593D01*
X1166973Y1423631D01*
X1165809Y1417779D01*
Y1392874D01*
X1151417D01*
Y1337441D01*
Y1317008D01*
X1181102D01*
Y1307008D01*
X1151417D01*
Y1296566D01*
X1128748D01*
X1128748Y1296566D01*
X1123285Y1295479D01*
X1118655Y1292385D01*
X1118654Y1292384D01*
X1009591Y1183322D01*
X1006497Y1178691D01*
X1005411Y1173228D01*
X1005411Y1173228D01*
Y1165512D01*
X995385D01*
Y1344331D01*
X1011968D01*
Y1395827D01*
X956535D01*
Y1344331D01*
X966836D01*
Y1098615D01*
X966836Y1098614D01*
X967923Y1093152D01*
X971017Y1088521D01*
X983110Y1076427D01*
Y1056727D01*
X977567Y1054431D01*
X919786Y1112212D01*
Y1381732D01*
X933228D01*
Y1433228D01*
X877795D01*
Y1381732D01*
X891237D01*
Y1106300D01*
X891237Y1106299D01*
X892324Y1100837D01*
X895418Y1096206D01*
X1012792Y978832D01*
X1011912Y974409D01*
X1013852Y964655D01*
X1019378Y956385D01*
X1027647Y950860D01*
X1037402Y948920D01*
X1047156Y950860D01*
X1055426Y956385D01*
X1060951Y964655D01*
X1062891Y974409D01*
X1060951Y984164D01*
X1055426Y992433D01*
X1047156Y997959D01*
X1037402Y999899D01*
X1032978Y999019D01*
X1006203Y1025795D01*
X1008499Y1031339D01*
X1056260D01*
Y1054604D01*
X1062260Y1056424D01*
X1064653Y1052842D01*
X1072923Y1047317D01*
X1082677Y1045376D01*
X1092432Y1047317D01*
X1100701Y1052842D01*
X1106227Y1061112D01*
X1108167Y1070866D01*
X1106227Y1080621D01*
X1100701Y1088890D01*
X1096951Y1091396D01*
Y1118341D01*
X1342725Y1364114D01*
X1348268Y1361818D01*
Y1337441D01*
Y1317008D01*
X1407638D01*
Y1337441D01*
Y1373214D01*
X1422674Y1388249D01*
X1585472D01*
Y1325630D01*
X1599899D01*
Y1319742D01*
X1596149Y1317237D01*
X1590624Y1308967D01*
X1588683Y1299213D01*
X1590624Y1289458D01*
X1596149Y1281189D01*
X1604419Y1275663D01*
X1614173Y1273723D01*
X1623928Y1275663D01*
X1632197Y1281189D01*
X1637723Y1289458D01*
X1639663Y1299213D01*
X1637723Y1308967D01*
X1632197Y1317237D01*
X1628447Y1319742D01*
Y1325630D01*
X1642874D01*
Y1388249D01*
X1753937D01*
X1759790Y1389414D01*
X1764751Y1392729D01*
X1961347Y1589324D01*
X1964567Y1588683D01*
X1974321Y1590624D01*
X1982591Y1596149D01*
X1985556Y1600586D01*
X1992772D01*
X1994772Y1597593D01*
X2003041Y1592068D01*
X2007796Y1591122D01*
Y1615618D01*
Y1640113D01*
X2003041Y1639167D01*
X1994772Y1633641D01*
X1991807Y1629204D01*
X1984591D01*
X1982591Y1632197D01*
X1974321Y1637723D01*
X1964567Y1639663D01*
X1954812Y1637723D01*
X1946543Y1632197D01*
X1941017Y1623928D01*
X1939077Y1614173D01*
X1939718Y1610953D01*
X1901177Y1572412D01*
X1894667Y1574387D01*
X1893427Y1580621D01*
X1887902Y1588890D01*
X1879632Y1594416D01*
X1869878Y1596356D01*
X1860123Y1594416D01*
X1851854Y1588890D01*
X1846328Y1580621D01*
X1844388Y1570866D01*
X1845268Y1566443D01*
X1784436Y1505612D01*
X1783465Y1505805D01*
X1773710Y1503864D01*
X1765441Y1498339D01*
X1759915Y1490070D01*
X1757975Y1480315D01*
X1759915Y1470561D01*
X1765441Y1462291D01*
X1773710Y1456765D01*
X1776492Y1456212D01*
X1778467Y1449702D01*
X1747602Y1418837D01*
X1642874D01*
Y1430276D01*
X1585472D01*
Y1418837D01*
X1501391D01*
X1498184Y1424837D01*
X1499798Y1427253D01*
X1500744Y1432008D01*
X1476249D01*
Y1442008D01*
X1500744D01*
X1499798Y1446762D01*
X1494273Y1455032D01*
X1486003Y1460557D01*
X1478843Y1461982D01*
X1476594Y1468218D01*
X1558569Y1550193D01*
X1562992Y1549313D01*
X1572747Y1551254D01*
X1581016Y1556779D01*
X1586542Y1565049D01*
X1588482Y1574803D01*
X1586542Y1584558D01*
X1581016Y1592827D01*
X1572747Y1598353D01*
X1562992Y1600293D01*
X1553238Y1598353D01*
X1544968Y1592827D01*
X1539443Y1584558D01*
X1537502Y1574803D01*
X1538382Y1570380D01*
X1454794Y1486792D01*
X1449052Y1488533D01*
X1448746Y1490070D01*
X1443221Y1498339D01*
X1434951Y1503864D01*
X1425197Y1505805D01*
X1415442Y1503864D01*
X1407173Y1498339D01*
X1404667Y1494589D01*
X1395315D01*
X1392356Y1500589D01*
X1395730Y1504987D01*
X1399257Y1513501D01*
X1400459Y1522638D01*
X1399257Y1531775D01*
X1395730Y1540289D01*
X1390120Y1547600D01*
X1382809Y1553210D01*
X1380451Y1554187D01*
Y1570043D01*
X1463028Y1652620D01*
X1504395D01*
X1506880Y1646620D01*
X1468187Y1607926D01*
X1465830Y1608902D01*
X1456693Y1610105D01*
X1447556Y1608902D01*
X1439042Y1605376D01*
X1431731Y1599765D01*
X1426120Y1592454D01*
X1422594Y1583940D01*
X1421391Y1574803D01*
X1422594Y1565666D01*
X1426120Y1557152D01*
X1431731Y1549841D01*
X1439042Y1544231D01*
X1447556Y1540704D01*
X1456693Y1539501D01*
X1465830Y1540704D01*
X1474344Y1544231D01*
X1481655Y1549841D01*
X1487265Y1557152D01*
X1490792Y1565666D01*
X1491995Y1574803D01*
X1490792Y1583940D01*
X1489816Y1586297D01*
X1522354Y1618835D01*
X1527559Y1617800D01*
X1572835D01*
X1580577Y1619340D01*
X1587140Y1623726D01*
X1591526Y1630289D01*
X1593066Y1638031D01*
X1591526Y1645774D01*
X1587807Y1651339D01*
X1591526Y1656903D01*
X1593066Y1664646D01*
X1591526Y1672388D01*
X1587807Y1677953D01*
X1591526Y1683518D01*
X1593066Y1691260D01*
X1591526Y1699002D01*
X1587807Y1704567D01*
X1591526Y1710132D01*
X1592071Y1712874D01*
D02*
G37*
G36*
X1753032Y1642090D02*
Y1612447D01*
X1782675D01*
X1782131Y1616583D01*
X1778604Y1625098D01*
X1772994Y1632409D01*
X1765682Y1638019D01*
X1757168Y1641546D01*
X1753032Y1642090D01*
D02*
G37*
G36*
X1743032D02*
X1738895Y1641546D01*
X1730380Y1638019D01*
X1723069Y1632409D01*
X1717459Y1625098D01*
X1713932Y1616583D01*
X1713388Y1612447D01*
X1743032D01*
Y1642090D01*
D02*
G37*
G36*
X982441Y1996220D02*
X907323D01*
Y1975924D01*
X869370D01*
X863517Y1974760D01*
X858556Y1971444D01*
X816775Y1929664D01*
X610394D01*
Y1944055D01*
X556181D01*
Y1914370D01*
X546181D01*
Y1944055D01*
X491969D01*
Y1884685D01*
X498666D01*
X499650Y1879738D01*
X502965Y1874776D01*
X508871Y1868870D01*
X513832Y1865555D01*
X519685Y1864391D01*
X571115D01*
Y1761968D01*
X536260D01*
Y1702599D01*
X548683D01*
Y1478250D01*
X545275Y1475263D01*
X536139Y1474060D01*
X527625Y1470533D01*
X520313Y1464923D01*
X514703Y1457612D01*
X511176Y1449097D01*
X509974Y1439961D01*
X511176Y1430824D01*
X514703Y1422310D01*
X520313Y1414998D01*
X527625Y1409388D01*
X536139Y1405861D01*
X545276Y1404659D01*
X554412Y1405861D01*
X562927Y1409388D01*
X570238Y1414998D01*
X575848Y1422310D01*
X579375Y1430824D01*
X580578Y1439961D01*
X579375Y1449097D01*
X577940Y1452561D01*
X578106Y1452809D01*
X579270Y1458661D01*
Y1702599D01*
X612126D01*
Y1732284D01*
Y1761968D01*
X601703D01*
Y1878621D01*
X602712Y1880131D01*
X603618Y1884685D01*
X610394D01*
Y1899076D01*
X823110D01*
X828963Y1900240D01*
X833925Y1903556D01*
X875705Y1945336D01*
X907323D01*
Y1925039D01*
Y1902638D01*
X982441D01*
Y1926635D01*
X992073D01*
X993050Y1924278D01*
X998660Y1916967D01*
X1005971Y1911357D01*
X1008328Y1910380D01*
Y1812437D01*
X955891Y1760000D01*
X908307D01*
Y1697102D01*
X908307Y1691102D01*
X908307Y1688724D01*
Y1625827D01*
X955891D01*
X984264Y1597453D01*
X989226Y1594138D01*
X995079Y1592974D01*
X1027402D01*
Y1576614D01*
X1098583D01*
Y1639921D01*
X1027402D01*
Y1623562D01*
X1001414D01*
X981457Y1643519D01*
Y1688724D01*
X981457Y1694724D01*
X981457Y1697102D01*
Y1742308D01*
X1034436Y1795288D01*
X1037752Y1800250D01*
X1038916Y1806102D01*
Y1910380D01*
X1041273Y1911357D01*
X1048584Y1916967D01*
X1054194Y1924278D01*
X1057721Y1932792D01*
X1058924Y1941929D01*
X1057721Y1951066D01*
X1054194Y1959580D01*
X1048584Y1966891D01*
X1041273Y1972502D01*
X1032759Y1976028D01*
X1023622Y1977231D01*
X1014485Y1976028D01*
X1005971Y1972502D01*
X998660Y1966891D01*
X993050Y1959580D01*
X992073Y1957223D01*
X982441D01*
Y1996220D01*
D02*
G37*
G36*
X1782675Y1602447D02*
X1753032D01*
Y1572803D01*
X1757168Y1573348D01*
X1765682Y1576874D01*
X1772994Y1582484D01*
X1778604Y1589796D01*
X1782131Y1598310D01*
X1782675Y1602447D01*
D02*
G37*
G36*
X1743032D02*
X1713388D01*
X1713932Y1598310D01*
X1717459Y1589796D01*
X1723069Y1582484D01*
X1730380Y1576874D01*
X1738895Y1573348D01*
X1743032Y1572803D01*
Y1602447D01*
D02*
G37*
G36*
X360748Y1684397D02*
X351611Y1683194D01*
X343097Y1679667D01*
X335786Y1674057D01*
X330176Y1666745D01*
X326649Y1658231D01*
X325446Y1649094D01*
X326649Y1639958D01*
X330176Y1631444D01*
X335786Y1624132D01*
X343097Y1618522D01*
X346474Y1617123D01*
Y1589097D01*
X343097Y1587698D01*
X335786Y1582088D01*
X330176Y1574777D01*
X326649Y1566263D01*
X325446Y1557126D01*
X326649Y1547989D01*
X330176Y1539475D01*
X335786Y1532164D01*
X343097Y1526554D01*
X351611Y1523027D01*
X360748Y1521824D01*
X369885Y1523027D01*
X378399Y1526554D01*
X385710Y1532164D01*
X391320Y1539475D01*
X394847Y1547989D01*
X396050Y1557126D01*
X394847Y1566263D01*
X391320Y1574777D01*
X385710Y1582088D01*
X378399Y1587698D01*
X375022Y1589097D01*
Y1617123D01*
X378399Y1618522D01*
X385710Y1624132D01*
X391320Y1631444D01*
X394847Y1639958D01*
X396050Y1649094D01*
X394847Y1658231D01*
X391320Y1666745D01*
X385710Y1674057D01*
X378399Y1679667D01*
X369885Y1683194D01*
X360748Y1684397D01*
D02*
G37*
G36*
X1011968Y1470630D02*
X989252D01*
Y1449882D01*
X1011968D01*
Y1470630D01*
D02*
G37*
G36*
X979252D02*
X956535D01*
Y1449882D01*
X979252D01*
Y1470630D01*
D02*
G37*
G36*
X630984Y1464919D02*
Y1435276D01*
X660628D01*
X660083Y1439412D01*
X656557Y1447927D01*
X650947Y1455238D01*
X643635Y1460848D01*
X635121Y1464375D01*
X630984Y1464919D01*
D02*
G37*
G36*
X620984D02*
X616847Y1464375D01*
X608333Y1460848D01*
X601022Y1455238D01*
X595412Y1447927D01*
X591885Y1439412D01*
X591341Y1435276D01*
X620984D01*
Y1464919D01*
D02*
G37*
G36*
X1011968Y1439882D02*
X989252D01*
Y1419134D01*
X1011968D01*
Y1439882D01*
D02*
G37*
G36*
X979252D02*
X956535D01*
Y1419134D01*
X979252D01*
Y1439882D01*
D02*
G37*
G36*
X660628Y1425276D02*
X630984D01*
Y1395632D01*
X635121Y1396177D01*
X643635Y1399703D01*
X650947Y1405313D01*
X656557Y1412625D01*
X660083Y1421139D01*
X660628Y1425276D01*
D02*
G37*
G36*
X620984D02*
X591341D01*
X591885Y1421139D01*
X595412Y1412625D01*
X601022Y1405313D01*
X608333Y1399703D01*
X616847Y1396177D01*
X620984Y1395632D01*
Y1425276D01*
D02*
G37*
G36*
X1819961Y1397190D02*
Y1377695D01*
X1839456D01*
X1838510Y1382450D01*
X1832985Y1390719D01*
X1824715Y1396245D01*
X1819961Y1397190D01*
D02*
G37*
G36*
X1809961D02*
X1805206Y1396245D01*
X1796937Y1390719D01*
X1791411Y1382450D01*
X1790465Y1377695D01*
X1809961D01*
Y1397190D01*
D02*
G37*
G36*
X1839456Y1367695D02*
X1819961D01*
Y1348200D01*
X1824715Y1349146D01*
X1832985Y1354671D01*
X1838510Y1362941D01*
X1839456Y1367695D01*
D02*
G37*
G36*
X1809961D02*
X1790465D01*
X1791411Y1362941D01*
X1796937Y1354671D01*
X1805206Y1349146D01*
X1809961Y1348200D01*
Y1367695D01*
D02*
G37*
G36*
X1807244Y1334803D02*
X1784528D01*
Y1314055D01*
X1807244D01*
Y1334803D01*
D02*
G37*
G36*
X1774528D02*
X1751811D01*
Y1314055D01*
X1774528D01*
Y1334803D01*
D02*
G37*
G36*
X1062721Y1332659D02*
Y1313164D01*
X1082216D01*
X1081271Y1317919D01*
X1075745Y1326188D01*
X1067476Y1331714D01*
X1062721Y1332659D01*
D02*
G37*
G36*
X1052721D02*
X1047967Y1331714D01*
X1039697Y1326188D01*
X1034172Y1317919D01*
X1033226Y1313164D01*
X1052721D01*
Y1332659D01*
D02*
G37*
G36*
X1499402Y1335350D02*
Y1305706D01*
X1529046D01*
X1528501Y1309843D01*
X1524974Y1318357D01*
X1519364Y1325668D01*
X1512053Y1331278D01*
X1503539Y1334805D01*
X1499402Y1335350D01*
D02*
G37*
G36*
X1489402D02*
X1485265Y1334805D01*
X1476751Y1331278D01*
X1469440Y1325668D01*
X1463830Y1318357D01*
X1460303Y1309843D01*
X1459758Y1305706D01*
X1489402D01*
Y1335350D01*
D02*
G37*
G36*
X1407638Y1307008D02*
X1382953D01*
Y1284291D01*
X1407638D01*
Y1307008D01*
D02*
G37*
G36*
X1372953D02*
X1348268D01*
Y1284291D01*
X1372953D01*
Y1307008D01*
D02*
G37*
G36*
X1082216Y1303164D02*
X1062721D01*
Y1283669D01*
X1067476Y1284615D01*
X1075745Y1290140D01*
X1081271Y1298410D01*
X1082216Y1303164D01*
D02*
G37*
G36*
X1052721D02*
X1033226D01*
X1034172Y1298410D01*
X1039697Y1290140D01*
X1047967Y1284615D01*
X1052721Y1283669D01*
Y1303164D01*
D02*
G37*
G36*
X1529046Y1295706D02*
X1499402D01*
Y1266062D01*
X1503539Y1266607D01*
X1512053Y1270134D01*
X1519364Y1275744D01*
X1524974Y1283055D01*
X1528501Y1291569D01*
X1529046Y1295706D01*
D02*
G37*
G36*
X1489402D02*
X1459758D01*
X1460303Y1291569D01*
X1463830Y1283055D01*
X1469440Y1275744D01*
X1476751Y1270134D01*
X1485265Y1266607D01*
X1489402Y1266062D01*
Y1295706D01*
D02*
G37*
G36*
X464567Y1712704D02*
X455430Y1711501D01*
X446916Y1707974D01*
X439605Y1702364D01*
X433995Y1695053D01*
X430468Y1686538D01*
X429265Y1677402D01*
X430468Y1668265D01*
X433995Y1659751D01*
X439605Y1652439D01*
X446916Y1646829D01*
X450293Y1645430D01*
Y1319491D01*
X446916Y1318092D01*
X439605Y1312482D01*
X433995Y1305171D01*
X430468Y1296657D01*
X429265Y1287520D01*
X430468Y1278383D01*
X433995Y1269869D01*
X439605Y1262557D01*
X446916Y1256947D01*
X455430Y1253421D01*
X464567Y1252218D01*
X473704Y1253421D01*
X482218Y1256947D01*
X489529Y1262557D01*
X495139Y1269869D01*
X498666Y1278383D01*
X499869Y1287520D01*
X498666Y1296657D01*
X495139Y1305171D01*
X489529Y1312482D01*
X482218Y1318092D01*
X478841Y1319491D01*
Y1645430D01*
X482218Y1646829D01*
X489529Y1652439D01*
X495139Y1659751D01*
X498666Y1668265D01*
X499869Y1677402D01*
X498666Y1686538D01*
X495139Y1695053D01*
X489529Y1702364D01*
X482218Y1707974D01*
X473704Y1711501D01*
X464567Y1712704D01*
D02*
G37*
G36*
X152441Y1321373D02*
Y1233740D01*
X240074D01*
X238777Y1246908D01*
X233478Y1264378D01*
X224872Y1280478D01*
X213291Y1294590D01*
X199179Y1306171D01*
X183078Y1314777D01*
X165609Y1320076D01*
X152441Y1321373D01*
D02*
G37*
G36*
X142441D02*
X129273Y1320076D01*
X111803Y1314777D01*
X95703Y1306171D01*
X81591Y1294590D01*
X70010Y1280478D01*
X61404Y1264378D01*
X56105Y1246908D01*
X54808Y1233740D01*
X142441D01*
Y1321373D01*
D02*
G37*
G36*
X308150Y1243305D02*
Y1213661D01*
X337793D01*
X337249Y1217798D01*
X333722Y1226312D01*
X328112Y1233624D01*
X320801Y1239234D01*
X312286Y1242761D01*
X308150Y1243305D01*
D02*
G37*
G36*
X298150D02*
X294013Y1242761D01*
X285499Y1239234D01*
X278187Y1233624D01*
X272577Y1226312D01*
X269050Y1217798D01*
X268506Y1213661D01*
X298150D01*
Y1243305D01*
D02*
G37*
G36*
X2008031Y1217087D02*
X1985315D01*
Y1196339D01*
X2008031D01*
Y1217087D01*
D02*
G37*
G36*
X1975315D02*
X1952598D01*
Y1196339D01*
X1975315D01*
Y1217087D01*
D02*
G37*
G36*
X1656417Y1221752D02*
X1652281Y1221208D01*
X1643766Y1217681D01*
X1636455Y1212071D01*
X1630845Y1204760D01*
X1627318Y1196245D01*
X1626774Y1192109D01*
X1656417D01*
Y1221752D01*
D02*
G37*
G36*
X337793Y1203661D02*
X308150D01*
Y1174018D01*
X312286Y1174562D01*
X320801Y1178089D01*
X328112Y1183699D01*
X333722Y1191010D01*
X337249Y1199525D01*
X337793Y1203661D01*
D02*
G37*
G36*
X298150D02*
X268506D01*
X269050Y1199525D01*
X272577Y1191010D01*
X278187Y1183699D01*
X285499Y1178089D01*
X294013Y1174562D01*
X298150Y1174018D01*
Y1203661D01*
D02*
G37*
G36*
X1656417Y1182109D02*
X1626774D01*
X1627318Y1177972D01*
X1630845Y1169458D01*
X1636455Y1162146D01*
X1643766Y1156536D01*
X1652281Y1153009D01*
X1656417Y1152465D01*
Y1182109D01*
D02*
G37*
G36*
X240074Y1223740D02*
X152441D01*
Y1136107D01*
X165609Y1137404D01*
X183078Y1142704D01*
X199179Y1151309D01*
X213291Y1162890D01*
X224872Y1177002D01*
X233478Y1193103D01*
X238777Y1210572D01*
X240074Y1223740D01*
D02*
G37*
G36*
X142441D02*
X54808D01*
X56105Y1210572D01*
X61404Y1193103D01*
X70010Y1177002D01*
X81591Y1162890D01*
X95703Y1151309D01*
X111803Y1142704D01*
X129273Y1137404D01*
X142441Y1136107D01*
Y1223740D01*
D02*
G37*
G36*
X736378Y1435197D02*
X680945D01*
Y1403888D01*
X651261Y1374204D01*
X648167Y1369573D01*
X647080Y1364110D01*
X647080Y1364110D01*
Y1163543D01*
X584488D01*
Y1104173D01*
X675354D01*
Y1148164D01*
X675629Y1149543D01*
Y1358197D01*
X701132Y1383701D01*
X736378D01*
Y1435197D01*
D02*
G37*
G36*
X1261968Y1159606D02*
X1171102D01*
Y1100236D01*
X1261968D01*
Y1115647D01*
X1340544D01*
X1362047Y1094144D01*
Y1060866D01*
X1417480D01*
Y1112362D01*
X1384203D01*
X1356550Y1140015D01*
X1351919Y1143109D01*
X1346457Y1144196D01*
X1346456Y1144196D01*
X1261968D01*
Y1159606D01*
D02*
G37*
G36*
X448189Y1116610D02*
X435617Y1115371D01*
X423527Y1111704D01*
X412386Y1105749D01*
X402620Y1097734D01*
X394606Y1087969D01*
X388650Y1076827D01*
X384983Y1064738D01*
X383745Y1052165D01*
X384983Y1039593D01*
X388650Y1027504D01*
X394606Y1016362D01*
X402620Y1006596D01*
X412386Y998582D01*
X423527Y992627D01*
X435617Y988960D01*
X448189Y987721D01*
X460761Y988960D01*
X472851Y992627D01*
X483992Y998582D01*
X493758Y1006596D01*
X501772Y1016362D01*
X507728Y1027504D01*
X511395Y1039593D01*
X512633Y1052165D01*
X511395Y1064738D01*
X507728Y1076827D01*
X501772Y1087969D01*
X493758Y1097734D01*
X483992Y1105749D01*
X472851Y1111704D01*
X460761Y1115371D01*
X448189Y1116610D01*
D02*
G37*
G36*
X1261968Y1049370D02*
X1171102D01*
Y990000D01*
X1198800D01*
X1200620Y984000D01*
X1198511Y982591D01*
X1192986Y974321D01*
X1191046Y964567D01*
X1192986Y954812D01*
X1198511Y946543D01*
X1206781Y941017D01*
X1216535Y939077D01*
X1226290Y941017D01*
X1234559Y946543D01*
X1240085Y954812D01*
X1242025Y964567D01*
X1240085Y974321D01*
X1234559Y982591D01*
X1232451Y984000D01*
X1234271Y990000D01*
X1261968D01*
Y1049370D01*
D02*
G37*
G36*
X201850Y963778D02*
Y934134D01*
X231494D01*
X230950Y938271D01*
X227423Y946785D01*
X221813Y954096D01*
X214501Y959706D01*
X205987Y963233D01*
X201850Y963778D01*
D02*
G37*
G36*
X191850D02*
X187714Y963233D01*
X179199Y959706D01*
X171888Y954096D01*
X166278Y946785D01*
X162751Y938271D01*
X162207Y934134D01*
X191850D01*
Y963778D01*
D02*
G37*
G36*
X1713661Y936218D02*
Y906575D01*
X1743305D01*
X1742761Y910712D01*
X1739234Y919226D01*
X1733624Y926537D01*
X1726312Y932147D01*
X1717798Y935674D01*
X1713661Y936218D01*
D02*
G37*
G36*
X1703661D02*
X1699525Y935674D01*
X1691010Y932147D01*
X1683699Y926537D01*
X1678089Y919226D01*
X1674562Y910712D01*
X1674018Y906575D01*
X1703661D01*
Y936218D01*
D02*
G37*
G36*
X231494Y924134D02*
X201850D01*
Y894490D01*
X205987Y895035D01*
X214501Y898562D01*
X221813Y904172D01*
X227423Y911483D01*
X230950Y919997D01*
X231494Y924134D01*
D02*
G37*
G36*
X191850D02*
X162207D01*
X162751Y919997D01*
X166278Y911483D01*
X171888Y904172D01*
X179199Y898562D01*
X187714Y895035D01*
X191850Y894490D01*
Y924134D01*
D02*
G37*
G36*
X1743305Y896575D02*
X1713661D01*
Y866931D01*
X1717798Y867476D01*
X1726312Y871002D01*
X1733624Y876612D01*
X1739234Y883924D01*
X1742761Y892438D01*
X1743305Y896575D01*
D02*
G37*
G36*
X1703661D02*
X1674018D01*
X1674562Y892438D01*
X1678089Y883924D01*
X1683699Y876612D01*
X1691010Y871002D01*
X1699525Y867476D01*
X1703661Y866931D01*
Y896575D01*
D02*
G37*
G36*
X1411653Y812045D02*
Y782402D01*
X1441297D01*
X1440753Y786538D01*
X1437226Y795053D01*
X1431616Y802364D01*
X1424304Y807974D01*
X1415790Y811501D01*
X1411653Y812045D01*
D02*
G37*
G36*
X1401653D02*
X1397517Y811501D01*
X1389003Y807974D01*
X1381691Y802364D01*
X1376081Y795053D01*
X1372554Y786538D01*
X1372010Y782402D01*
X1401653D01*
Y812045D01*
D02*
G37*
G36*
X1441297Y772402D02*
X1411653D01*
Y742758D01*
X1415790Y743303D01*
X1424304Y746829D01*
X1431616Y752439D01*
X1437226Y759751D01*
X1440753Y768265D01*
X1441297Y772402D01*
D02*
G37*
G36*
X1401653D02*
X1372010D01*
X1372554Y768265D01*
X1376081Y759751D01*
X1381691Y752439D01*
X1389003Y746829D01*
X1397517Y743303D01*
X1401653Y742758D01*
Y772402D01*
D02*
G37*
G36*
X918386Y713472D02*
Y693976D01*
X937881D01*
X936935Y698731D01*
X931410Y707000D01*
X923140Y712526D01*
X918386Y713472D01*
D02*
G37*
G36*
X908386D02*
X903631Y712526D01*
X895362Y707000D01*
X889836Y698731D01*
X888891Y693976D01*
X908386D01*
Y713472D01*
D02*
G37*
G36*
X937881Y683976D02*
X918386D01*
Y664481D01*
X923140Y665427D01*
X931410Y670952D01*
X936935Y679222D01*
X937881Y683976D01*
D02*
G37*
G36*
X908386D02*
X888891D01*
X889836Y679222D01*
X895362Y670952D01*
X903631Y665427D01*
X908386Y664481D01*
Y683976D01*
D02*
G37*
G36*
X1595984Y636834D02*
X1585768Y635489D01*
X1576249Y631545D01*
X1568074Y625273D01*
X1561801Y617098D01*
X1557858Y607578D01*
X1556513Y597362D01*
X1557858Y587146D01*
X1561801Y577626D01*
X1568074Y569452D01*
X1576249Y563179D01*
X1585768Y559236D01*
X1595984Y557891D01*
X1606200Y559236D01*
X1615720Y563179D01*
X1623895Y569452D01*
X1630168Y577626D01*
X1634111Y587146D01*
X1635456Y597362D01*
X1634111Y607578D01*
X1630168Y617098D01*
X1623895Y625273D01*
X1615720Y631545D01*
X1606200Y635489D01*
X1595984Y636834D01*
D02*
G37*
G36*
X1448228Y663285D02*
X1438474Y661345D01*
X1430204Y655819D01*
X1424679Y647550D01*
X1422738Y637795D01*
X1424679Y628041D01*
X1430204Y619771D01*
X1438474Y614246D01*
X1448228Y612306D01*
X1452651Y613185D01*
X1457975Y607861D01*
X1457858Y607578D01*
X1456513Y597362D01*
X1457858Y587146D01*
X1461801Y577626D01*
X1468074Y569452D01*
X1476249Y563179D01*
X1485768Y559236D01*
X1495984Y557891D01*
X1506200Y559236D01*
X1515720Y563179D01*
X1523895Y569452D01*
X1530168Y577626D01*
X1534111Y587146D01*
X1535456Y597362D01*
X1534111Y607578D01*
X1530168Y617098D01*
X1523895Y625273D01*
X1515720Y631545D01*
X1506200Y635489D01*
X1495984Y636834D01*
X1485768Y635489D01*
X1478803Y632604D01*
X1473485Y636621D01*
X1473718Y637795D01*
X1471778Y647550D01*
X1466252Y655819D01*
X1457983Y661345D01*
X1448228Y663285D01*
D02*
G37*
G36*
X595984Y636834D02*
X585768Y635489D01*
X576249Y631545D01*
X568074Y625273D01*
X561801Y617098D01*
X557858Y607578D01*
X556513Y597362D01*
X557858Y587146D01*
X561801Y577626D01*
X568074Y569452D01*
X576249Y563179D01*
X585768Y559236D01*
X595984Y557891D01*
X606200Y559236D01*
X615720Y563179D01*
X623895Y569452D01*
X630168Y577626D01*
X634111Y587146D01*
X635456Y597362D01*
X634111Y607578D01*
X630168Y617098D01*
X623895Y625273D01*
X615720Y631545D01*
X606200Y635489D01*
X595984Y636834D01*
D02*
G37*
G36*
X675354Y1053307D02*
X584488D01*
Y998376D01*
X485969Y899857D01*
X482875Y895226D01*
X481789Y889764D01*
X481789Y889763D01*
Y633840D01*
X476249Y631545D01*
X468074Y625273D01*
X461801Y617098D01*
X457858Y607578D01*
X456513Y597362D01*
X457858Y587146D01*
X461801Y577626D01*
X468074Y569452D01*
X476249Y563179D01*
X485768Y559236D01*
X495984Y557891D01*
X506200Y559236D01*
X515720Y563179D01*
X523895Y569452D01*
X530168Y577626D01*
X534111Y587146D01*
X535456Y597362D01*
X534111Y607578D01*
X530168Y617098D01*
X523895Y625273D01*
X515720Y631545D01*
X510337Y633775D01*
Y883851D01*
X620423Y993937D01*
X675354D01*
Y1053307D01*
D02*
G37*
G36*
X375079Y550392D02*
Y520748D01*
X404722D01*
X404178Y524885D01*
X400651Y533399D01*
X395041Y540710D01*
X387730Y546320D01*
X379216Y549847D01*
X375079Y550392D01*
D02*
G37*
G36*
X365079D02*
X360942Y549847D01*
X352428Y546320D01*
X345116Y540710D01*
X339506Y533399D01*
X335980Y524885D01*
X335435Y520748D01*
X365079D01*
Y550392D01*
D02*
G37*
G36*
X1249094Y520558D02*
Y501063D01*
X1268590D01*
X1267644Y505817D01*
X1262119Y514087D01*
X1253849Y519612D01*
X1249094Y520558D01*
D02*
G37*
G36*
X1239094D02*
X1234340Y519612D01*
X1226071Y514087D01*
X1220545Y505817D01*
X1219599Y501063D01*
X1239094D01*
Y520558D01*
D02*
G37*
G36*
X404722Y510748D02*
X375079D01*
Y481104D01*
X379216Y481649D01*
X387730Y485176D01*
X395041Y490786D01*
X400651Y498097D01*
X404178Y506611D01*
X404722Y510748D01*
D02*
G37*
G36*
X365079D02*
X335435D01*
X335980Y506611D01*
X339506Y498097D01*
X345116Y490786D01*
X352428Y485176D01*
X360942Y481649D01*
X365079Y481104D01*
Y510748D01*
D02*
G37*
G36*
X1268590Y491063D02*
X1249094D01*
Y471568D01*
X1253849Y472514D01*
X1262119Y478039D01*
X1267644Y486308D01*
X1268590Y491063D01*
D02*
G37*
G36*
X1239094D02*
X1219599D01*
X1220545Y486308D01*
X1226071Y478039D01*
X1234340Y472514D01*
X1239094Y471568D01*
Y491063D01*
D02*
G37*
G36*
X603425Y479526D02*
Y449882D01*
X633069D01*
X632524Y454019D01*
X628998Y462533D01*
X623388Y469844D01*
X616076Y475454D01*
X607562Y478981D01*
X603425Y479526D01*
D02*
G37*
G36*
X593425D02*
X589288Y478981D01*
X580774Y475454D01*
X573463Y469844D01*
X567853Y462533D01*
X564326Y454019D01*
X563782Y449882D01*
X593425D01*
Y479526D01*
D02*
G37*
G36*
X633069Y439882D02*
X603425D01*
Y410238D01*
X607562Y410783D01*
X616076Y414310D01*
X623388Y419920D01*
X628998Y427231D01*
X632524Y435745D01*
X633069Y439882D01*
D02*
G37*
G36*
X593425D02*
X563782D01*
X564326Y435745D01*
X567853Y427231D01*
X573463Y419920D01*
X580774Y414310D01*
X589288Y410783D01*
X593425Y410238D01*
Y439882D01*
D02*
G37*
G36*
X874016Y891632D02*
X864261Y889691D01*
X855992Y884166D01*
X850466Y875896D01*
X848526Y866142D01*
X850466Y856387D01*
X850530Y856292D01*
X669152Y578673D01*
X668655Y577437D01*
X667915Y576329D01*
X667626Y574878D01*
X667074Y573506D01*
X667088Y572173D01*
X666828Y570866D01*
Y315805D01*
X663078Y313300D01*
X657553Y305030D01*
X655613Y295276D01*
X657553Y285521D01*
X663078Y277252D01*
X671348Y271726D01*
X681102Y269786D01*
X690857Y271726D01*
X699126Y277252D01*
X704652Y285521D01*
X706592Y295276D01*
X704652Y305030D01*
X699126Y313300D01*
X695377Y315805D01*
Y566616D01*
X874473Y840743D01*
X883770Y842592D01*
X892040Y848118D01*
X897565Y856387D01*
X899506Y866142D01*
X897565Y875896D01*
X892040Y884166D01*
X883770Y889691D01*
X874016Y891632D01*
D02*
G37*
G36*
X941142Y266162D02*
X933392Y265142D01*
X926171Y262150D01*
X919970Y257392D01*
X915212Y251191D01*
X912221Y243970D01*
X911201Y236220D01*
X912221Y228471D01*
X915212Y221250D01*
X919970Y215049D01*
X926171Y210291D01*
X933392Y207299D01*
X941142Y206279D01*
X948891Y207299D01*
X956112Y210291D01*
X962313Y215049D01*
X967072Y221250D01*
X970063Y228471D01*
X971083Y236220D01*
X970063Y243970D01*
X967072Y251191D01*
X962313Y257392D01*
X956112Y262150D01*
X948891Y265142D01*
X941142Y266162D01*
D02*
G37*
G36*
X791142D02*
X783392Y265142D01*
X776171Y262150D01*
X769970Y257392D01*
X765212Y251191D01*
X762221Y243970D01*
X761201Y236220D01*
X762221Y228471D01*
X765212Y221250D01*
X769970Y215049D01*
X776171Y210291D01*
X783392Y207299D01*
X791142Y206279D01*
X798891Y207299D01*
X806112Y210291D01*
X812313Y215049D01*
X817072Y221250D01*
X820063Y228471D01*
X821083Y236220D01*
X820063Y243970D01*
X817072Y251191D01*
X812313Y257392D01*
X806112Y262150D01*
X798891Y265142D01*
X791142Y266162D01*
D02*
G37*
G36*
X676009Y144880D02*
Y115236D01*
X705653D01*
X705108Y119373D01*
X701581Y127887D01*
X695971Y135198D01*
X688660Y140809D01*
X680146Y144335D01*
X676009Y144880D01*
D02*
G37*
G36*
X666009D02*
X661872Y144335D01*
X653358Y140809D01*
X646047Y135198D01*
X640437Y127887D01*
X636910Y119373D01*
X636365Y115236D01*
X666009D01*
Y144880D01*
D02*
G37*
G36*
X705653Y105236D02*
X676009D01*
Y75593D01*
X680146Y76137D01*
X688660Y79664D01*
X695971Y85274D01*
X701581Y92585D01*
X705108Y101099D01*
X705653Y105236D01*
D02*
G37*
G36*
X666009D02*
X636365D01*
X636910Y101099D01*
X640437Y92585D01*
X646047Y85274D01*
X653358Y79664D01*
X661872Y76137D01*
X666009Y75593D01*
Y105236D01*
D02*
G37*
%LPD*%
G36*
X1380748Y1930945D02*
X1380748D01*
Y1927323D01*
X1380748D01*
Y1909979D01*
X1370131D01*
X1369155Y1912336D01*
X1363545Y1919647D01*
X1356234Y1925257D01*
X1347719Y1928784D01*
X1338583Y1929987D01*
X1329446Y1928784D01*
X1320932Y1925257D01*
X1313620Y1919647D01*
X1308010Y1912336D01*
X1304484Y1903822D01*
X1304208Y1901730D01*
X1298527Y1899802D01*
X1259958Y1938370D01*
X1256478Y1942289D01*
X1257359Y1948289D01*
X1380748D01*
Y1930945D01*
D02*
G37*
G36*
X1407173Y1462291D02*
X1415442Y1456765D01*
X1416978Y1456460D01*
X1418720Y1450718D01*
X1377150Y1409148D01*
X1353298D01*
X1353297Y1409149D01*
X1347835Y1408062D01*
X1343204Y1404968D01*
X1343204Y1404967D01*
X1233062Y1294826D01*
X1227062Y1297311D01*
Y1336558D01*
X1356545Y1466041D01*
X1404667D01*
X1407173Y1462291D01*
D02*
G37*
G36*
X1337416Y1543978D02*
X1334585Y1540289D01*
X1331058Y1531775D01*
X1329855Y1522638D01*
X1331058Y1513501D01*
X1334585Y1504987D01*
X1340195Y1497676D01*
X1340390Y1497526D01*
X1340535Y1490600D01*
X1340222Y1490092D01*
X1216331Y1366201D01*
X1210787Y1368497D01*
Y1392874D01*
X1196396D01*
Y1411444D01*
X1332896Y1547943D01*
X1337416Y1543978D01*
D02*
G37*
G36*
X1200253Y1262017D02*
X1072584Y1134348D01*
X1069489Y1129717D01*
X1068403Y1124254D01*
X1068403Y1124254D01*
Y1091396D01*
X1064653Y1088890D01*
X1062260Y1085308D01*
X1056260Y1087128D01*
Y1094236D01*
X1056260Y1096614D01*
X1056260D01*
Y1100236D01*
X1056260D01*
Y1165512D01*
X1040641D01*
X1038156Y1171512D01*
X1134661Y1268017D01*
X1197768D01*
X1200253Y1262017D01*
D02*
G37*
%LPC*%
G36*
X2134577Y1476021D02*
X2129823Y1475075D01*
X2121553Y1469550D01*
X2116028Y1461280D01*
X2115082Y1456526D01*
X2134577D01*
Y1476021D01*
D02*
G37*
G36*
X2018014Y1353268D02*
X1998519D01*
Y1333773D01*
X2003273Y1334718D01*
X2011543Y1340244D01*
X2017068Y1348513D01*
X2018014Y1353268D01*
D02*
G37*
G36*
X1988519D02*
X1969024D01*
X1969969Y1348513D01*
X1975495Y1340244D01*
X1983764Y1334718D01*
X1988519Y1333773D01*
Y1353268D01*
D02*
G37*
G36*
X2116299Y1346378D02*
X2091614D01*
Y1323661D01*
X2116299D01*
Y1346378D01*
D02*
G37*
G36*
X2081614D02*
X2056929D01*
Y1323661D01*
X2081614D01*
Y1346378D01*
D02*
G37*
G36*
X2180630Y968661D02*
X2157913D01*
Y947913D01*
X2180630D01*
Y968661D01*
D02*
G37*
G36*
X2147913D02*
X2125197D01*
Y947913D01*
X2147913D01*
Y968661D01*
D02*
G37*
G36*
X2180630Y937913D02*
X2157913D01*
Y917165D01*
X2180630D01*
Y937913D01*
D02*
G37*
G36*
X2147913D02*
X2125197D01*
Y917165D01*
X2147913D01*
Y937913D01*
D02*
G37*
G36*
X3483189Y1353268D02*
X3462441D01*
Y1330551D01*
X3483189D01*
Y1353268D01*
D02*
G37*
G36*
X2832835Y1240079D02*
X2808150D01*
Y1217362D01*
X2832835D01*
Y1240079D01*
D02*
G37*
G36*
X2798150D02*
X2773465D01*
Y1217362D01*
X2798150D01*
Y1240079D01*
D02*
G37*
G36*
X2724832Y1232205D02*
X2700147D01*
Y1209488D01*
X2724832D01*
Y1232205D01*
D02*
G37*
G36*
X2690147D02*
X2665462D01*
Y1209488D01*
X2690147D01*
Y1232205D01*
D02*
G37*
G36*
X2631142Y1202505D02*
Y1183010D01*
X2650637D01*
X2649691Y1187764D01*
X2644166Y1196034D01*
X2635896Y1201559D01*
X2631142Y1202505D01*
D02*
G37*
G36*
X2621142D02*
X2616387Y1201559D01*
X2608118Y1196034D01*
X2602592Y1187764D01*
X2601646Y1183010D01*
X2621142D01*
Y1202505D01*
D02*
G37*
G36*
X2650637Y1173010D02*
X2631142D01*
Y1153515D01*
X2635896Y1154460D01*
X2644166Y1159986D01*
X2649691Y1168255D01*
X2650637Y1173010D01*
D02*
G37*
G36*
X2621142D02*
X2601646D01*
X2602592Y1168255D01*
X2608118Y1159986D01*
X2616387Y1154460D01*
X2621142Y1153515D01*
Y1173010D01*
D02*
G37*
G36*
X2781152Y1202972D02*
X2771397Y1201032D01*
X2763128Y1195507D01*
X2757602Y1187237D01*
X2755662Y1177483D01*
X2757602Y1167728D01*
X2763128Y1159459D01*
X2771397Y1153933D01*
X2781152Y1151993D01*
X2790906Y1153933D01*
X2799176Y1159459D01*
X2804701Y1167728D01*
X2806641Y1177483D01*
X2804701Y1187237D01*
X2799176Y1195507D01*
X2790906Y1201032D01*
X2781152Y1202972D01*
D02*
G37*
G36*
X3280591Y1231894D02*
Y1212399D01*
X3300086D01*
X3299140Y1217153D01*
X3293615Y1225423D01*
X3285345Y1230948D01*
X3280591Y1231894D01*
D02*
G37*
G36*
X3270591D02*
X3265836Y1230948D01*
X3257567Y1225423D01*
X3252041Y1217153D01*
X3251095Y1212399D01*
X3270591D01*
Y1231894D01*
D02*
G37*
G36*
X3242820Y1236378D02*
X3211245D01*
Y1208740D01*
X3242820D01*
Y1236378D01*
D02*
G37*
G36*
X3201245D02*
X3169670D01*
Y1208740D01*
X3201245D01*
Y1236378D01*
D02*
G37*
G36*
X3142795Y1220002D02*
Y1200507D01*
X3162291D01*
X3161345Y1205261D01*
X3155819Y1213531D01*
X3147550Y1219056D01*
X3142795Y1220002D01*
D02*
G37*
G36*
X3132795D02*
X3128041Y1219056D01*
X3119771Y1213531D01*
X3114246Y1205261D01*
X3113300Y1200507D01*
X3132795D01*
Y1220002D01*
D02*
G37*
G36*
X3300086Y1202399D02*
X3280591D01*
Y1182903D01*
X3285345Y1183849D01*
X3293615Y1189375D01*
X3299140Y1197644D01*
X3300086Y1202399D01*
D02*
G37*
G36*
X3270591D02*
X3251095D01*
X3252041Y1197644D01*
X3257567Y1189375D01*
X3265836Y1183849D01*
X3270591Y1182903D01*
Y1202399D01*
D02*
G37*
G36*
X3162291Y1190507D02*
X3142795D01*
Y1171011D01*
X3147550Y1171957D01*
X3155819Y1177483D01*
X3161345Y1185752D01*
X3162291Y1190507D01*
D02*
G37*
G36*
X3132795D02*
X3113300D01*
X3114246Y1185752D01*
X3119771Y1177483D01*
X3128041Y1171957D01*
X3132795Y1171011D01*
Y1190507D01*
D02*
G37*
G36*
X2729409Y761160D02*
Y731517D01*
X2759053D01*
X2758508Y735654D01*
X2754982Y744168D01*
X2749372Y751479D01*
X2742060Y757089D01*
X2733546Y760616D01*
X2729409Y761160D01*
D02*
G37*
G36*
X2719409D02*
X2715273Y760616D01*
X2706758Y757089D01*
X2699447Y751479D01*
X2693837Y744168D01*
X2690310Y735654D01*
X2689766Y731517D01*
X2719409D01*
Y761160D01*
D02*
G37*
G36*
X2759053Y721517D02*
X2729409D01*
Y691873D01*
X2733546Y692418D01*
X2742060Y695944D01*
X2749372Y701554D01*
X2754982Y708866D01*
X2758508Y717380D01*
X2759053Y721517D01*
D02*
G37*
G36*
X2719409D02*
X2689766D01*
X2690310Y717380D01*
X2693837Y708866D01*
X2699447Y701554D01*
X2706758Y695944D01*
X2715273Y692418D01*
X2719409Y691873D01*
Y721517D01*
D02*
G37*
G36*
X2172087Y497332D02*
Y457165D01*
X2212253D01*
X2211350Y464026D01*
X2206772Y475078D01*
X2199490Y484569D01*
X2189999Y491851D01*
X2178947Y496429D01*
X2172087Y497332D01*
D02*
G37*
G36*
X2162087D02*
X2155226Y496429D01*
X2144174Y491851D01*
X2134683Y484569D01*
X2127401Y475078D01*
X2122823Y464026D01*
X2121920Y457165D01*
X2162087D01*
Y497332D01*
D02*
G37*
G36*
X2280197Y497332D02*
X2273336Y496429D01*
X2262284Y491851D01*
X2252794Y484569D01*
X2245511Y475078D01*
X2240933Y464026D01*
X2240030Y457165D01*
X2280197D01*
Y497332D01*
D02*
G37*
G36*
X3005000Y503148D02*
Y473504D01*
X3034644D01*
X3034099Y477641D01*
X3030572Y486155D01*
X3024962Y493466D01*
X3017651Y499076D01*
X3009137Y502603D01*
X3005000Y503148D01*
D02*
G37*
G36*
X2995000D02*
X2990863Y502603D01*
X2982349Y499076D01*
X2975038Y493466D01*
X2969428Y486155D01*
X2965901Y477641D01*
X2965356Y473504D01*
X2995000D01*
Y503148D01*
D02*
G37*
G36*
X3034644Y463504D02*
X3005000D01*
Y433860D01*
X3009137Y434405D01*
X3017651Y437932D01*
X3024962Y443542D01*
X3030572Y450853D01*
X3034099Y459367D01*
X3034644Y463504D01*
D02*
G37*
G36*
X2995000D02*
X2965356D01*
X2965901Y459367D01*
X2969428Y450853D01*
X2975038Y443542D01*
X2982349Y437932D01*
X2990863Y434405D01*
X2995000Y433860D01*
Y463504D01*
D02*
G37*
G36*
X1885229Y430976D02*
Y411481D01*
X1904724D01*
X1903778Y416236D01*
X1898253Y424505D01*
X1889983Y430031D01*
X1885229Y430976D01*
D02*
G37*
G36*
X1875229D02*
X1870474Y430031D01*
X1862205Y424505D01*
X1856679Y416236D01*
X1855734Y411481D01*
X1875229D01*
Y430976D01*
D02*
G37*
G36*
X1904724Y401481D02*
X1885229D01*
Y381986D01*
X1889983Y382932D01*
X1898253Y388457D01*
X1903778Y396727D01*
X1904724Y401481D01*
D02*
G37*
G36*
X1875229D02*
X1855734D01*
X1856679Y396727D01*
X1862205Y388457D01*
X1870474Y382932D01*
X1875229Y381986D01*
Y401481D01*
D02*
G37*
G36*
X2875748Y432924D02*
X2864140Y431781D01*
X2852979Y428395D01*
X2842692Y422897D01*
X2833676Y415497D01*
X2826276Y406481D01*
X2820778Y396195D01*
X2817392Y385033D01*
X2816249Y373425D01*
X2817392Y361817D01*
X2820778Y350656D01*
X2826276Y340369D01*
X2833676Y331353D01*
X2842692Y323954D01*
X2852979Y318455D01*
X2864140Y315069D01*
X2875748Y313926D01*
X2887356Y315069D01*
X2898517Y318455D01*
X2908804Y323954D01*
X2917820Y331353D01*
X2925220Y340369D01*
X2930718Y350656D01*
X2934104Y361817D01*
X2935247Y373425D01*
X2934104Y385033D01*
X2930718Y396195D01*
X2925220Y406481D01*
X2917820Y415497D01*
X2908804Y422897D01*
X2898517Y428395D01*
X2887356Y431781D01*
X2875748Y432924D01*
D02*
G37*
G36*
X2280197Y289685D02*
X2240030D01*
X2240933Y282825D01*
X2245511Y271773D01*
X2252794Y262282D01*
X2262284Y255000D01*
X2273336Y250422D01*
X2280197Y249518D01*
Y289685D01*
D02*
G37*
G36*
X2330364D02*
X2290197D01*
Y249518D01*
X2297057Y250422D01*
X2308109Y255000D01*
X2317600Y262282D01*
X2324883Y271773D01*
X2329461Y282825D01*
X2330364Y289685D01*
D02*
G37*
G36*
X1841510Y266093D02*
Y236449D01*
X1871154D01*
X1870609Y240586D01*
X1867083Y249100D01*
X1861473Y256411D01*
X1854161Y262021D01*
X1845647Y265548D01*
X1841510Y266093D01*
D02*
G37*
G36*
X1831510D02*
X1827373Y265548D01*
X1818859Y262021D01*
X1811548Y256411D01*
X1805938Y249100D01*
X1802411Y240586D01*
X1801867Y236449D01*
X1831510D01*
Y266093D01*
D02*
G37*
G36*
X1871154Y226449D02*
X1841510D01*
Y196805D01*
X1845647Y197350D01*
X1854161Y200876D01*
X1861473Y206487D01*
X1867083Y213798D01*
X1870609Y222312D01*
X1871154Y226449D01*
D02*
G37*
G36*
X1831510D02*
X1801867D01*
X1802411Y222312D01*
X1805938Y213798D01*
X1811548Y206487D01*
X1818859Y200876D01*
X1827373Y197350D01*
X1831510Y196805D01*
Y226449D01*
D02*
G37*
G36*
X2108032Y202715D02*
X2096171Y201153D01*
X2085119Y196575D01*
X2075628Y189293D01*
X2068346Y179802D01*
X2063768Y168750D01*
X2062206Y156890D01*
X2063768Y145029D01*
X2068346Y133977D01*
X2075628Y124487D01*
X2085119Y117204D01*
X2096171Y112626D01*
X2108032Y111065D01*
X2119892Y112626D01*
X2130944Y117204D01*
X2140435Y124487D01*
X2147717Y133977D01*
X2152295Y145029D01*
X2153856Y156890D01*
X2152295Y168750D01*
X2147717Y179802D01*
X2140435Y189293D01*
X2130944Y196575D01*
X2119892Y201153D01*
X2108032Y202715D01*
D02*
G37*
G36*
X1989921D02*
X1978061Y201153D01*
X1967009Y196575D01*
X1957518Y189293D01*
X1950236Y179802D01*
X1945658Y168750D01*
X1944096Y156890D01*
X1945658Y145029D01*
X1950236Y133977D01*
X1957518Y124487D01*
X1967009Y117204D01*
X1978061Y112626D01*
X1989921Y111065D01*
X2001782Y112626D01*
X2012834Y117204D01*
X2022324Y124487D01*
X2029607Y133977D01*
X2034185Y145029D01*
X2035746Y156890D01*
X2034185Y168750D01*
X2029607Y179802D01*
X2022324Y189293D01*
X2012834Y196575D01*
X2001782Y201153D01*
X1989921Y202715D01*
D02*
G37*
G36*
X2279528Y108167D02*
X2269773Y106227D01*
X2261504Y100701D01*
X2258998Y96951D01*
X2205948D01*
X2205947Y96952D01*
X2200485Y95865D01*
X2195854Y92771D01*
X2195853Y92770D01*
X2174937Y71854D01*
X2170514Y72734D01*
X2160759Y70794D01*
X2152490Y65268D01*
X2146964Y56999D01*
X2145024Y47244D01*
X2146964Y37490D01*
X2152490Y29220D01*
X2160759Y23695D01*
X2170514Y21754D01*
X2180268Y23695D01*
X2188538Y29220D01*
X2194063Y37490D01*
X2196004Y47244D01*
X2195124Y51667D01*
X2211860Y68403D01*
X2258998D01*
X2261504Y64653D01*
X2269773Y59128D01*
X2279528Y57187D01*
X2289282Y59128D01*
X2297552Y64653D01*
X2303077Y72923D01*
X2305017Y82677D01*
X2303077Y92432D01*
X2297552Y100701D01*
X2289282Y106227D01*
X2279528Y108167D01*
D02*
G37*
G36*
X2604952Y-59623D02*
Y-89266D01*
X2634595D01*
X2634051Y-85129D01*
X2630524Y-76615D01*
X2624914Y-69304D01*
X2617602Y-63694D01*
X2609088Y-60167D01*
X2604952Y-59623D01*
D02*
G37*
G36*
X2594952D02*
X2590815Y-60167D01*
X2582300Y-63694D01*
X2574989Y-69304D01*
X2569379Y-76615D01*
X2565852Y-85129D01*
X2565308Y-89266D01*
X2594952D01*
Y-59623D01*
D02*
G37*
G36*
X2215103Y-75964D02*
Y-105608D01*
X2244746D01*
X2244202Y-101471D01*
X2240675Y-92957D01*
X2235065Y-85645D01*
X2227754Y-80035D01*
X2219240Y-76508D01*
X2215103Y-75964D01*
D02*
G37*
G36*
X2205103D02*
X2200966Y-76508D01*
X2192452Y-80035D01*
X2185140Y-85645D01*
X2179530Y-92957D01*
X2176004Y-101471D01*
X2175459Y-105608D01*
X2205103D01*
Y-75964D01*
D02*
G37*
G36*
X1823622Y-9259D02*
X1810734Y-10956D01*
X1798724Y-15930D01*
X1788411Y-23844D01*
X1780497Y-34157D01*
X1775523Y-46167D01*
X1773826Y-59055D01*
X1775523Y-71943D01*
X1780497Y-83953D01*
X1788411Y-94266D01*
X1798724Y-102180D01*
X1810734Y-107154D01*
X1823622Y-108851D01*
X1836510Y-107154D01*
X1848520Y-102180D01*
X1858833Y-94266D01*
X1866747Y-83953D01*
X1871721Y-71943D01*
X1873418Y-59055D01*
X1871721Y-46167D01*
X1866747Y-34157D01*
X1858833Y-23844D01*
X1848520Y-15930D01*
X1836510Y-10956D01*
X1823622Y-9259D01*
D02*
G37*
G36*
X1478267Y-87403D02*
Y-117047D01*
X1507911D01*
X1507366Y-112910D01*
X1503840Y-104396D01*
X1498230Y-97085D01*
X1490918Y-91475D01*
X1482404Y-87948D01*
X1478267Y-87403D01*
D02*
G37*
G36*
X1468267D02*
X1464130Y-87948D01*
X1455616Y-91475D01*
X1448305Y-97085D01*
X1442695Y-104396D01*
X1439168Y-112910D01*
X1438624Y-117047D01*
X1468267D01*
Y-87403D01*
D02*
G37*
G36*
X2634595Y-99266D02*
X2604952D01*
Y-128910D01*
X2609088Y-128365D01*
X2617602Y-124839D01*
X2624914Y-119229D01*
X2630524Y-111917D01*
X2634051Y-103403D01*
X2634595Y-99266D01*
D02*
G37*
G36*
X2594952D02*
X2565308D01*
X2565852Y-103403D01*
X2569379Y-111917D01*
X2574989Y-119229D01*
X2582300Y-124839D01*
X2590815Y-128365D01*
X2594952Y-128910D01*
Y-99266D01*
D02*
G37*
G36*
X2244746Y-115608D02*
X2215103D01*
Y-145251D01*
X2219240Y-144707D01*
X2227754Y-141180D01*
X2235065Y-135570D01*
X2240675Y-128258D01*
X2244202Y-119744D01*
X2244746Y-115608D01*
D02*
G37*
G36*
X2205103D02*
X2175459D01*
X2176004Y-119744D01*
X2179530Y-128258D01*
X2185140Y-135570D01*
X2192452Y-141180D01*
X2200966Y-144707D01*
X2205103Y-145251D01*
Y-115608D01*
D02*
G37*
G36*
X1507911Y-127047D02*
X1478267D01*
Y-156691D01*
X1482404Y-156146D01*
X1490918Y-152620D01*
X1498230Y-147010D01*
X1503840Y-139698D01*
X1507366Y-131184D01*
X1507911Y-127047D01*
D02*
G37*
G36*
X1468267D02*
X1438624D01*
X1439168Y-131184D01*
X1442695Y-139698D01*
X1448305Y-147010D01*
X1455616Y-152620D01*
X1464130Y-156146D01*
X1468267Y-156691D01*
Y-127047D01*
D02*
G37*
G36*
X1828622Y-128028D02*
Y-172165D01*
X1872760D01*
X1871721Y-164277D01*
X1866747Y-152267D01*
X1858833Y-141954D01*
X1848520Y-134041D01*
X1836510Y-129066D01*
X1828622Y-128028D01*
D02*
G37*
G36*
X1818622D02*
X1810734Y-129066D01*
X1798724Y-134041D01*
X1788411Y-141954D01*
X1780497Y-152267D01*
X1775523Y-164277D01*
X1774484Y-172165D01*
X1818622D01*
Y-128028D01*
D02*
G37*
G36*
X1653543Y-48721D02*
X1640006Y-50054D01*
X1626989Y-54003D01*
X1614993Y-60415D01*
X1604478Y-69045D01*
X1595848Y-79560D01*
X1589436Y-91556D01*
X1585487Y-104573D01*
X1584154Y-118110D01*
X1585487Y-131647D01*
X1589436Y-144664D01*
X1595848Y-156661D01*
X1604478Y-167176D01*
X1614993Y-175805D01*
X1626989Y-182218D01*
X1640006Y-186166D01*
X1653543Y-187499D01*
X1667081Y-186166D01*
X1680097Y-182218D01*
X1692094Y-175805D01*
X1702609Y-167176D01*
X1711238Y-156661D01*
X1717651Y-144664D01*
X1721599Y-131647D01*
X1722932Y-118110D01*
X1721599Y-104573D01*
X1717651Y-91556D01*
X1711238Y-79560D01*
X1702609Y-69045D01*
X1692094Y-60415D01*
X1680097Y-54003D01*
X1667081Y-50054D01*
X1653543Y-48721D01*
D02*
G37*
G36*
X1872760Y-182165D02*
X1828622D01*
Y-226303D01*
X1836510Y-225265D01*
X1848520Y-220290D01*
X1858833Y-212376D01*
X1866747Y-202063D01*
X1871721Y-190054D01*
X1872760Y-182165D01*
D02*
G37*
G36*
X1818622D02*
X1774484D01*
X1775523Y-190054D01*
X1780497Y-202063D01*
X1788411Y-212376D01*
X1798724Y-220290D01*
X1810734Y-225265D01*
X1818622Y-226303D01*
Y-182165D01*
D02*
G37*
G36*
X2327835Y-197010D02*
Y-231220D01*
X2362045D01*
X2361345Y-225902D01*
X2357362Y-216286D01*
X2351026Y-208029D01*
X2342769Y-201693D01*
X2333153Y-197710D01*
X2327835Y-197010D01*
D02*
G37*
G36*
X2317835D02*
X2312516Y-197710D01*
X2302900Y-201693D01*
X2294643Y-208029D01*
X2288307Y-216286D01*
X2284325Y-225902D01*
X2283624Y-231220D01*
X2317835D01*
Y-197010D01*
D02*
G37*
G36*
X2362045Y-241220D02*
X2327835D01*
Y-275431D01*
X2333153Y-274731D01*
X2342769Y-270748D01*
X2351026Y-264412D01*
X2357362Y-256155D01*
X2361345Y-246539D01*
X2362045Y-241220D01*
D02*
G37*
G36*
X2317835D02*
X2283624D01*
X2284325Y-246539D01*
X2288307Y-256155D01*
X2294643Y-264412D01*
X2302900Y-270748D01*
X2312516Y-274731D01*
X2317835Y-275431D01*
Y-241220D01*
D02*
G37*
G36*
X2262362Y-196693D02*
X2183307D01*
Y-275748D01*
X2262362D01*
Y-196693D01*
D02*
G37*
G36*
X2422835Y-196352D02*
X2412516Y-197710D01*
X2402900Y-201693D01*
X2394643Y-208029D01*
X2388307Y-216286D01*
X2384325Y-225902D01*
X2382966Y-236220D01*
X2384325Y-246539D01*
X2388307Y-256155D01*
X2394643Y-264412D01*
X2402900Y-270748D01*
X2412516Y-274731D01*
X2422835Y-276089D01*
X2433153Y-274731D01*
X2442769Y-270748D01*
X2451026Y-264412D01*
X2457362Y-256155D01*
X2461345Y-246539D01*
X2462703Y-236220D01*
X2461345Y-225902D01*
X2457362Y-216286D01*
X2451026Y-208029D01*
X2442769Y-201693D01*
X2433153Y-197710D01*
X2422835Y-196352D01*
D02*
G37*
G36*
X3327802Y348324D02*
X3318048Y346384D01*
X3309778Y340859D01*
X3307273Y337109D01*
X3236221D01*
X3236220Y337109D01*
X3230758Y336022D01*
X3226127Y332928D01*
X3193399Y300201D01*
X3188976Y301080D01*
X3179222Y299140D01*
X3170952Y293615D01*
X3165427Y285345D01*
X3163487Y275591D01*
X3165427Y265836D01*
X3170952Y257567D01*
X3179222Y252041D01*
X3188976Y250101D01*
X3198731Y252041D01*
X3207000Y257567D01*
X3212526Y265836D01*
X3214466Y275591D01*
X3213586Y280014D01*
X3242133Y308560D01*
X3307273D01*
X3309778Y304811D01*
X3318048Y299285D01*
X3327802Y297345D01*
X3337557Y299285D01*
X3345827Y304811D01*
X3351352Y313080D01*
X3353292Y322835D01*
X3351352Y332589D01*
X3345827Y340859D01*
X3337557Y346384D01*
X3327802Y348324D01*
D02*
G37*
G36*
X3020748Y243305D02*
Y213661D01*
X3050392D01*
X3049847Y217798D01*
X3046320Y226312D01*
X3040710Y233624D01*
X3033399Y239234D01*
X3024885Y242761D01*
X3020748Y243305D01*
D02*
G37*
G36*
X3010748D02*
X3006611Y242761D01*
X2998097Y239234D01*
X2990786Y233624D01*
X2985176Y226312D01*
X2981649Y217798D01*
X2981104Y213661D01*
X3010748D01*
Y243305D01*
D02*
G37*
G36*
X3050392Y203661D02*
X3020748D01*
Y174018D01*
X3024885Y174562D01*
X3033399Y178089D01*
X3040710Y183699D01*
X3046320Y191010D01*
X3049847Y199525D01*
X3050392Y203661D01*
D02*
G37*
G36*
X3010748D02*
X2981104D01*
X2981649Y199525D01*
X2985176Y191010D01*
X2990786Y183699D01*
X2998097Y178089D01*
X3006611Y174562D01*
X3010748Y174018D01*
Y203661D01*
D02*
G37*
G36*
X3192913Y135726D02*
X3183159Y133786D01*
X3174889Y128260D01*
X3169364Y119991D01*
X3167424Y110236D01*
X3169364Y100482D01*
X3174889Y92212D01*
X3183159Y86687D01*
X3192913Y84746D01*
X3202668Y86687D01*
X3206506Y89251D01*
X3251776Y43982D01*
X3250896Y39559D01*
X3252836Y29805D01*
X3258362Y21535D01*
X3266631Y16009D01*
X3276386Y14069D01*
X3286140Y16009D01*
X3294410Y21535D01*
X3299935Y29805D01*
X3301876Y39559D01*
X3299935Y49313D01*
X3294410Y57583D01*
X3286140Y63108D01*
X3276386Y65049D01*
X3271963Y64169D01*
X3216543Y119589D01*
X3216463Y119991D01*
X3210937Y128260D01*
X3202668Y133786D01*
X3192913Y135726D01*
D02*
G37*
G36*
X2839646Y-67567D02*
Y-91850D01*
X2863929D01*
X2863567Y-89101D01*
X2860575Y-81880D01*
X2855817Y-75679D01*
X2849616Y-70921D01*
X2842395Y-67929D01*
X2839646Y-67567D01*
D02*
G37*
G36*
X2863929Y-101850D02*
X2839646D01*
Y-126133D01*
X2842395Y-125771D01*
X2849616Y-122780D01*
X2855817Y-118022D01*
X2860575Y-111821D01*
X2863567Y-104600D01*
X2863929Y-101850D01*
D02*
G37*
G36*
X1166614Y270783D02*
Y183150D01*
X1254247D01*
X1252950Y196317D01*
X1247651Y213787D01*
X1239045Y229887D01*
X1227464Y243999D01*
X1213352Y255581D01*
X1197252Y264186D01*
X1179782Y269486D01*
X1166614Y270783D01*
D02*
G37*
G36*
X1156614D02*
X1143446Y269486D01*
X1125977Y264186D01*
X1109876Y255581D01*
X1095764Y243999D01*
X1084183Y229887D01*
X1075578Y213787D01*
X1070278Y196317D01*
X1068981Y183150D01*
X1156614D01*
Y270783D01*
D02*
G37*
G36*
X1254247Y173150D02*
X1166614D01*
Y85517D01*
X1179782Y86814D01*
X1197252Y92113D01*
X1213352Y100719D01*
X1227464Y112300D01*
X1239045Y126412D01*
X1247651Y142512D01*
X1252950Y159982D01*
X1254247Y173150D01*
D02*
G37*
G36*
X1156614D02*
X1068981D01*
X1070278Y159982D01*
X1075578Y142512D01*
X1084183Y126412D01*
X1095764Y112300D01*
X1109876Y100719D01*
X1125977Y92113D01*
X1143446Y86814D01*
X1156614Y85517D01*
Y173150D01*
D02*
G37*
%LPD*%
D15*
X944882Y1727362D02*
D03*
Y1658465D02*
D03*
X3206245Y1203740D02*
D03*
Y1134842D02*
D03*
X1417323Y1963583D02*
D03*
Y1894685D02*
D03*
X3661417Y792323D02*
D03*
Y861221D02*
D03*
X1803150Y954724D02*
D03*
Y1023622D02*
D03*
X2019685Y945866D02*
D03*
Y1014764D02*
D03*
X3228347Y792323D02*
D03*
Y861221D02*
D03*
X3385827Y-270669D02*
D03*
Y-201772D02*
D03*
X2830709Y957677D02*
D03*
Y1026575D02*
D03*
X2381890Y941929D02*
D03*
Y1010827D02*
D03*
X822835Y1060039D02*
D03*
Y1128937D02*
D03*
X1019685Y1132874D02*
D03*
Y1063976D02*
D03*
X1618110Y953740D02*
D03*
Y1022638D02*
D03*
X1614173Y201772D02*
D03*
Y270669D02*
D03*
D19*
X2136811Y1811024D02*
D03*
X2067913D02*
D03*
X3971457Y1220472D02*
D03*
X3902559D02*
D03*
X3587598Y1889764D02*
D03*
X3656496D02*
D03*
X1969488Y1992126D02*
D03*
X2038386D02*
D03*
X3587599Y236220D02*
D03*
X3656496D02*
D03*
X3813976Y1220472D02*
D03*
X3745079D02*
D03*
X3587599D02*
D03*
X3656496D02*
D03*
X4050197Y1889764D02*
D03*
X3981299D02*
D03*
X4247047D02*
D03*
X4178150D02*
D03*
X4099409Y1220472D02*
D03*
X4168307D02*
D03*
X3853347Y1889764D02*
D03*
X3784449D02*
D03*
D21*
X3488189Y1358268D02*
D03*
X3525590Y1437008D02*
D03*
X3450787D02*
D03*
D22*
X3149606Y-291339D02*
D03*
Y-181102D02*
D03*
X1377953Y181102D02*
D03*
Y291339D02*
D03*
X629921Y1023622D02*
D03*
Y1133858D02*
D03*
X1216535Y1019685D02*
D03*
Y1129921D02*
D03*
D23*
X2153347Y1995512D02*
X2165709Y2007874D01*
X2153347Y1945433D02*
Y1995512D01*
X32756Y838307D02*
Y1275867D01*
Y838307D02*
X118110Y752953D01*
X32756Y1275867D02*
X171464Y1414576D01*
X250315Y1820866D02*
X347749D01*
X171464Y1742016D02*
X250315Y1820866D01*
X171464Y1414576D02*
Y1742016D01*
X2566799Y1614173D02*
X2650287D01*
X2564358Y1611732D02*
X2566799Y1614173D01*
X2539506Y1611732D02*
X2564358D01*
X2537065Y1614173D02*
X2539506Y1611732D01*
X2373700Y1614173D02*
X2537065D01*
X2650287D02*
X2669895Y1594566D01*
X2364637Y1605110D02*
X2373700Y1614173D01*
X2307012Y1567779D02*
X2329991Y1544800D01*
X2410942D01*
X2411417Y1545275D01*
X2300718Y1605110D02*
X2364637D01*
X2297718Y1608110D02*
X2300718Y1605110D01*
X2270676Y1608110D02*
X2297718D01*
X2245243Y1582677D02*
X2270676Y1608110D01*
X2255801Y1567779D02*
X2307012D01*
X2447835Y1330709D02*
X2470552D01*
X2496347Y1241921D02*
X2561635D01*
X2601089Y1281376D01*
Y1281394D02*
X2636097Y1316402D01*
X2601089Y1281376D02*
Y1281394D01*
X2636097Y1316402D02*
X2665408D01*
X2826069Y2082105D02*
Y2170685D01*
X2780786Y2215968D02*
X2826069Y2170685D01*
X2780786Y2215968D02*
X2780786D01*
X2700345Y2219857D02*
X2776897D01*
X2638187Y2282016D02*
X2700345Y2219857D01*
X1416339Y1403543D02*
X1614173D01*
X1377953Y1365158D02*
X1416339Y1403543D01*
X2220468Y1475493D02*
X2291334Y1546359D01*
X2564480Y369732D02*
X2639528Y294685D01*
X1994205Y369732D02*
X2564480D01*
X1989921Y374016D02*
X1994205Y369732D01*
X2661165Y-370331D02*
X2834646Y-196850D01*
X1292284Y-308031D02*
X1354583Y-370331D01*
X2661165D01*
X1989921Y589961D02*
X2159803Y759842D01*
X2323036D01*
X2363857Y1839772D02*
Y1840551D01*
X3436572Y1082677D02*
X3779528D01*
X3318927Y965032D02*
X3436572Y1082677D01*
X4043835Y1276047D02*
X4099409Y1220472D01*
X3936807Y1276047D02*
X4043835D01*
X3928476Y1267716D02*
X3936807Y1276047D01*
X3369900Y1267716D02*
X3928476D01*
X3509843Y1602362D02*
Y1677449D01*
X3465630Y1721661D02*
X3509843Y1677449D01*
X3291463Y1721661D02*
X3465630D01*
X3276575Y1706773D02*
X3291463Y1721661D01*
X3514063Y1742126D02*
X3568898Y1687291D01*
X3291222Y1742126D02*
X3514063D01*
X3276575Y1756773D02*
X3291222Y1742126D01*
X3002432Y1328945D02*
X3071534Y1259842D01*
X2803088Y1328945D02*
X3002432D01*
X2676400Y1298402D02*
X2692740D01*
X2609817Y1342787D02*
X2622100Y1355071D01*
X2560204Y1342787D02*
X2609817D01*
X2885827Y2020353D02*
Y2033228D01*
X2857638Y2061417D02*
X2885827Y2033228D01*
X2857638Y2061417D02*
Y2075992D01*
X2862686Y2023667D02*
X2863685D01*
X2839638Y2046716D02*
X2862686Y2023667D01*
X2839638Y2046716D02*
Y2068536D01*
X2863685Y1913341D02*
Y2023667D01*
Y1913341D02*
X2886260Y1890766D01*
X2095104Y1604803D02*
X2117229Y1582677D01*
X2146550D01*
X2084173Y1604803D02*
X2095104D01*
X1917323Y1771654D02*
X2084173Y1604803D01*
X1917323Y1771654D02*
Y1847337D01*
X1935512Y1865526D01*
X1933850Y1892041D02*
X1935512Y1890379D01*
Y1865526D02*
Y1890379D01*
X3071534Y1259842D02*
X3327566D01*
X3327802Y1260079D01*
X3509843Y1496063D02*
Y1602362D01*
X3450787Y1437008D02*
X3509843Y1496063D01*
X3425197Y1321071D02*
Y1411417D01*
X3450787Y1437008D01*
X3525590Y1319354D02*
Y1437008D01*
X3568898Y1480315D01*
Y1602362D01*
Y1687291D01*
X2622100Y1404578D02*
Y1446295D01*
Y1404578D02*
X2624488Y1402190D01*
Y1377337D02*
Y1402190D01*
X2622100Y1374949D02*
X2624488Y1377337D01*
X2622100Y1355071D02*
Y1374949D01*
X2573362Y1495033D02*
X2622100Y1446295D01*
X2190468Y1502446D02*
X2255801Y1567779D01*
X2883867Y1500993D02*
X2916315Y1533441D01*
X2746002Y1500993D02*
X2883867D01*
X2741798Y1505197D02*
X2746002Y1500993D01*
X2695907Y1505197D02*
X2741798D01*
X2687787Y1513316D02*
X2695907Y1505197D01*
X2898386Y1481819D02*
X2934315Y1517748D01*
X2739720Y1481819D02*
X2898386D01*
X2734343Y1487197D02*
X2739720Y1481819D01*
X2688451Y1487197D02*
X2734343D01*
X2669947Y1505701D02*
X2688451Y1487197D01*
X2886260Y1710655D02*
X2929134Y1667781D01*
Y1588541D02*
Y1667781D01*
X2904260Y1718111D02*
X2950315Y1672055D01*
Y1584266D02*
Y1672055D01*
X2916315Y1575722D02*
X2929134Y1588541D01*
X2934315Y1568266D02*
X2950315Y1584266D01*
X2881685Y1920796D02*
X2904260Y1898222D01*
X2886260Y1710655D02*
Y1890766D01*
X2916315Y1533441D02*
Y1575722D01*
X2934315Y1517748D02*
Y1568266D01*
X3362262Y1260079D02*
X3369900Y1267716D01*
X3327802Y1260079D02*
X3362262D01*
X2791954Y1340079D02*
X2803088Y1328945D01*
X2904260Y1718111D02*
Y1898222D01*
X2826069Y2082105D02*
X2839638Y2068536D01*
X2844069Y2089560D02*
X2857638Y2075992D01*
X2881685Y1971977D02*
X2885159Y1968504D01*
X2885159D01*
X2881685Y1965030D02*
X2885159Y1968504D01*
X2881685Y1920796D02*
Y1965030D01*
Y2016211D02*
X2885827Y2020353D01*
X2881685Y1971977D02*
Y2016211D01*
X2996063Y1998031D02*
Y2055118D01*
X2913386Y1994094D02*
Y2055118D01*
X3153543Y1999016D02*
Y2055118D01*
X2687008Y2038282D02*
X2709789Y2061063D01*
X2709286D02*
X2709789D01*
X2776897Y2219857D02*
X2780786Y2215968D01*
Y2215968D01*
X2842520Y2232284D02*
Y2239088D01*
X2753474Y2251968D02*
X2771663Y2270157D01*
X2799023Y2228536D02*
X2844069Y2183490D01*
X2811450Y2270157D02*
X2842520Y2239088D01*
X2771663Y2270157D02*
X2811450D01*
X2799023Y2228536D02*
Y2240157D01*
X2724409Y2251968D02*
X2753474D01*
X2844069Y2089560D02*
Y2183490D01*
X2712598Y1940945D02*
Y1992126D01*
X2657480Y1909449D02*
X2675276Y1891653D01*
X2612605Y1911701D02*
X2650652Y1873653D01*
X2605149Y1893701D02*
X2643196Y1855653D01*
X2569370Y1893701D02*
X2605149D01*
X2612685Y1860709D02*
X2635740Y1837653D01*
X2536929Y1860709D02*
X2612685D01*
X2614789Y1833150D02*
X2628285Y1819653D01*
X2569370Y1833150D02*
X2614789D01*
X2602362Y1803150D02*
X2603858Y1801653D01*
X2614804Y2264016D02*
X2667323Y2211497D01*
X2468323Y2094488D02*
X2494807D01*
X2687008Y1998031D02*
Y2038282D01*
X1164654Y2282016D02*
X2638187D01*
X2221086Y1699291D02*
X2235338Y1685039D01*
X2136811Y1723819D02*
X2191339Y1669291D01*
X2210150Y1699291D02*
X2221086D01*
X2177165Y1732276D02*
X2210150Y1699291D01*
X2148991Y1580236D02*
X2173844D01*
X2146550Y1582677D02*
X2148991Y1580236D01*
X2176285Y1582677D02*
X2245243D01*
X2173844Y1580236D02*
X2176285Y1582677D01*
X2177165Y1732276D02*
Y1799968D01*
X2208042Y1300706D02*
X2232894D01*
X2190468Y1318280D02*
X2208042Y1300706D01*
X2767101Y1340079D02*
X2791954D01*
X2765849Y1341331D02*
X2767101Y1340079D01*
X2762590Y1341331D02*
X2765849D01*
X2740614Y1319354D02*
X2762590Y1341331D01*
X2721934Y1319354D02*
X2740614D01*
X2370407Y1839772D02*
X2406252Y1803927D01*
X2363857Y1820866D02*
X2388252Y1796471D01*
Y1731773D02*
Y1796471D01*
X2406252Y1739229D02*
Y1803927D01*
Y1739229D02*
X2427567Y1717913D01*
X2388252Y1731773D02*
X2432537Y1687488D01*
X2427567Y1717913D02*
X2477003D01*
X2375399Y1860236D02*
X2442274Y1793361D01*
Y1748936D02*
Y1793361D01*
X2432537Y1687488D02*
X2527559D01*
X2177165Y1799968D02*
X2209402Y1832205D01*
X2249220Y1780716D02*
X2331898D01*
X2209402Y1832205D02*
X2260458D01*
X2278032Y1849778D01*
Y1895825D01*
X2687787Y1513316D02*
Y1544496D01*
X2656033Y1505701D02*
X2669947D01*
X2546214Y1377194D02*
X2551932Y1382912D01*
Y1445076D01*
X2523814Y1473194D02*
X2551932Y1445076D01*
X2506844Y1473194D02*
X2523814D01*
X2490157Y1489880D02*
X2506844Y1473194D01*
X2490157Y1489880D02*
Y1545275D01*
X2516358Y1455194D02*
X2533932Y1437620D01*
X2499388Y1455194D02*
X2516358D01*
X2483047Y1446079D02*
X2503932Y1425194D01*
X2458621Y1428079D02*
X2491506Y1395194D01*
X2516358D01*
X2428309Y1398265D02*
X2455932D01*
X2477003Y1377194D01*
X2546214D01*
X2470552Y1330709D02*
X2496347Y1356504D01*
X2546487D01*
X2490503Y1464079D02*
X2499388Y1455194D01*
X2484740Y1464079D02*
X2490503D01*
X2470472Y1478346D02*
X2484740Y1464079D01*
X2533932Y1412768D02*
Y1437620D01*
X2516358Y1395194D02*
X2533932Y1412768D01*
X2573362Y1495033D02*
Y1509631D01*
X2648417Y1513316D02*
Y1544496D01*
Y1513316D02*
X2656033Y1505701D01*
X2397633Y1417320D02*
X2397636Y1417323D01*
X2429970Y1446079D02*
X2483047D01*
X2428771Y1444879D02*
X2429970Y1446079D01*
X2437638Y1428079D02*
X2458621D01*
X2347075Y1318280D02*
X2448819D01*
X2295276Y1370079D02*
X2347075Y1318280D01*
X2447835Y1330709D02*
X2448819Y1329724D01*
Y1318280D02*
Y1329724D01*
X2488732Y1295739D02*
X2518780Y1325787D01*
X2521417D01*
X2488732Y1293102D02*
Y1295739D01*
X2463346Y1267716D02*
X2488732Y1293102D01*
X2350394Y1267716D02*
X2463346D01*
X2263780Y1354331D02*
X2350394Y1267716D01*
X2573114Y1509879D02*
X2573362Y1509631D01*
X2571583Y1509879D02*
X2573114D01*
X2568898Y1512564D02*
X2571583Y1509879D01*
X2546487Y1356504D02*
X2560204Y1342787D01*
X2568898Y1512564D02*
Y1545275D01*
X2470472Y1478346D02*
Y1545275D01*
X2450787Y1500709D02*
Y1545275D01*
X2421071Y1470993D02*
X2450787Y1500709D01*
X2430323Y1505701D02*
Y1544496D01*
X2425615Y1500993D02*
X2430323Y1505701D01*
X2665408Y1316402D02*
X2670077Y1321071D01*
X2720217D01*
X2721934Y1319354D01*
X2692740Y1298402D02*
X2692913Y1298228D01*
X2494174Y1244094D02*
X2496347Y1241921D01*
X2294393Y1244094D02*
X2494174D01*
X2235338Y1303150D02*
X2294393Y1244094D01*
X2521417Y1325787D02*
X2523319D01*
X3807087Y1213583D02*
X3813976Y1220472D01*
X3807087Y1145669D02*
Y1213583D01*
X3206245Y965032D02*
X3318927D01*
X3195701Y975576D02*
X3206245Y965032D01*
X3195701Y975576D02*
Y1000833D01*
X3089180Y1107354D02*
X3195701Y1000833D01*
X2420858Y1107354D02*
X3089180D01*
X2428313Y1125354D02*
X3096636D01*
X3213701Y1008289D01*
Y983032D02*
Y1008289D01*
X2374011Y1154201D02*
X2420858Y1107354D01*
X2374011Y1154201D02*
Y1181107D01*
X2404057Y1374013D02*
X2428309Y1398265D01*
X2374011Y1374013D02*
X2404057D01*
X2412500Y1444879D02*
X2428771D01*
X2410059Y1447320D02*
X2412500Y1444879D01*
X2385207Y1447320D02*
X2410059D01*
X2361819Y1470993D02*
X2421071D01*
X2382766Y1444879D02*
X2385207Y1447320D01*
X2338578Y1444879D02*
X2382766D01*
X2426882Y1417323D02*
X2437638Y1428079D01*
X2397636Y1417323D02*
X2426882D01*
X2307082Y1476375D02*
X2338578Y1444879D01*
X2375399Y1500993D02*
X2425615D01*
X3971457Y1195866D02*
Y1220472D01*
X3889764Y1114173D02*
X3971457Y1195866D01*
X3442613Y1114173D02*
X3889764D01*
X3311471Y983032D02*
X3442613Y1114173D01*
X3213701Y983032D02*
X3311471D01*
X2404882Y1148786D02*
X2428313Y1125354D01*
X2404882Y1148786D02*
Y1208032D01*
X2409449Y1212598D01*
X2220468Y1330706D02*
Y1475493D01*
X2291334Y1535430D02*
Y1546359D01*
X2263780Y1354331D02*
Y1476378D01*
X2190468Y1318280D02*
Y1502446D01*
X2331819Y1500993D02*
Y1514640D01*
X2470984Y345118D02*
X2521417Y294685D01*
X2028086Y345118D02*
X2470984D01*
X2026984Y344016D02*
X2028086Y345118D01*
X1977495Y344016D02*
X2026984D01*
X1940945Y380566D02*
X1977495Y344016D01*
X1940945Y380566D02*
Y397638D01*
X2232894Y1300706D02*
X2235338Y1303150D01*
X2331819Y1500993D02*
X2361819Y1470993D01*
X2136811Y1723819D02*
Y1811024D01*
X2430323Y1544496D02*
X2431102Y1545275D01*
X2332677Y1820866D02*
X2363857D01*
X2332677Y1860236D02*
X2375399D01*
X2363857Y1839772D02*
X2370407D01*
X2332677Y1840551D02*
X2363857D01*
X2548929Y1544992D02*
X2549213Y1545275D01*
X2587803Y1544496D02*
X2588583Y1545275D01*
X1417323Y1751968D02*
X1493465D01*
X1269369D02*
X1417323D01*
X2332677Y1840551D02*
X2332768Y1840460D01*
X2248032Y1862205D02*
Y1978701D01*
X2278032Y1895825D02*
X2301497Y1919291D01*
X2666543Y1576303D02*
X2669895Y1579654D01*
Y1594566D01*
X2669291Y1650591D02*
X2706693Y1613189D01*
X2619763Y1683071D02*
X2785433D01*
X2627218Y1701071D02*
X2752568D01*
X2666543Y1546055D02*
Y1576303D01*
X2301497Y1919291D02*
X2332677D01*
X2637795Y1771653D02*
X2646858Y1762591D01*
X2650652Y1873653D02*
X2680045D01*
X2643196Y1855653D02*
X2672589D01*
X2665133Y1837653D02*
X2681921Y1820866D01*
X2635740Y1837653D02*
X2665133D01*
X2657677Y1819653D02*
X2676150Y1801181D01*
X2628285Y1819653D02*
X2657677D01*
X2603858Y1801653D02*
X2650222D01*
X2706693Y1998031D02*
X2712598Y1992126D01*
X2379548Y1974197D02*
X2632084Y1721661D01*
X2372093Y1956197D02*
X2627218Y1701071D01*
X2364637Y1938197D02*
X2619763Y1683071D01*
X2566929Y1830709D02*
X2569370Y1833150D01*
X2535433Y1862205D02*
X2536929Y1860709D01*
X2535433Y1925197D02*
X2586614D01*
X2412197Y2038362D02*
X2468323Y2094488D01*
X2412197Y1998811D02*
Y2038362D01*
X2411417Y1998031D02*
X2412197Y1998811D01*
X2344322Y1938197D02*
X2364637D01*
X2331898Y1780716D02*
X2332677Y1781496D01*
X1753937Y1403543D02*
X1964567Y1614173D01*
X1614173Y1403543D02*
X1753937D01*
X2666543Y1546055D02*
X2667323Y1545275D01*
X2784654Y1642921D02*
X2785433Y1643701D01*
X2745858Y1642921D02*
X2784654D01*
X2745858Y1588787D02*
Y1642921D01*
Y1588787D02*
X2748032Y1586614D01*
X2218858Y2007874D02*
X2248032Y1978701D01*
X2130906Y1899606D02*
X2196850D01*
X2038386Y1992126D02*
X2130906Y1899606D01*
X1969488Y1934055D02*
Y1992126D01*
X1968504Y1933071D02*
X1969488Y1934055D01*
X1835630Y1984016D02*
X1839402Y1980244D01*
X1892653D01*
X1898701Y1974197D01*
X1933850Y1892041D02*
Y1987409D01*
X1898701Y2022559D02*
X1933850Y1987409D01*
X1379370Y2022559D02*
X1898701D01*
X1561370Y2040559D02*
X2241960D01*
X1643370Y2058559D02*
X2249415D01*
X1725370Y2076559D02*
X2256871D01*
X1867729Y1953630D02*
X1896162Y1925197D01*
X1839401Y1953630D02*
X1867729D01*
X1835630Y1957401D02*
X1839401Y1953630D01*
X1835630Y1877559D02*
X1905118D01*
X2004921Y1811024D02*
X2067913D01*
X588583Y1914370D02*
X823110D01*
X582284Y1879685D02*
X586409Y1883811D01*
X563976Y1732284D02*
X586409Y1754716D01*
Y1883811D01*
X588583Y1885984D01*
Y1914370D01*
X519685Y1879685D02*
X582284D01*
X513780Y1885590D02*
X519685Y1879685D01*
X1493465Y1751968D02*
X1504716Y1740716D01*
X1223109Y1705709D02*
X1269369Y1751968D01*
X1220472Y1705709D02*
X1223109D01*
X2549213Y1545275D02*
X2568898D01*
X513780Y1885590D02*
Y1914370D01*
X1125000Y1995079D02*
X1165354Y2035433D01*
X1102362Y1995079D02*
X1125000D01*
X1231299Y1963583D02*
X1417323D01*
X1220472Y1974409D02*
X1231299Y1963583D01*
X1247565Y1929134D02*
X1332369Y1844331D01*
X1181102Y1929134D02*
X1247565D01*
X1062992Y1811024D02*
X1181102Y1929134D01*
X1332369Y1844331D02*
X1507584D01*
X1280000Y1824331D02*
X1550197D01*
X1220472Y1883858D02*
X1280000Y1824331D01*
X963583Y1941929D02*
X1023622D01*
Y1806102D02*
Y1941929D01*
X944882Y1727362D02*
X1023622Y1806102D01*
X944882Y1960630D02*
X963583Y1941929D01*
X2647638Y1545275D02*
X2648417Y1544496D01*
X2646858Y1546055D02*
X2647638Y1545275D01*
X2687008D02*
X2687787Y1544496D01*
X1192284Y2209646D02*
X1379370Y2022559D01*
X1092284Y2209646D02*
X1164654Y2282016D01*
X1346654Y2264016D02*
X2614804D01*
X1292284Y2209646D02*
X1346654Y2264016D01*
X2706693Y1545275D02*
Y1613189D01*
X2699233Y1879921D02*
X2785433D01*
X2687501Y1891653D02*
X2699233Y1879921D01*
X2675276Y1891653D02*
X2687501D01*
X2784654Y1859457D02*
X2785433Y1860236D01*
X2753474Y1859457D02*
X2784654D01*
X2752568Y1858551D02*
X2753474Y1859457D01*
X2695147Y1858551D02*
X2752568D01*
X2680045Y1873653D02*
X2695147Y1858551D01*
X2600110Y1911701D02*
X2612605D01*
X2586614Y1925197D02*
X2600110Y1911701D01*
X2632084Y1721661D02*
X2784653D01*
X2687691Y1840551D02*
X2785433D01*
X2672589Y1855653D02*
X2687691Y1840551D01*
X2681921Y1820866D02*
X2785433D01*
X2676150Y1801181D02*
X2785433D01*
X2670379Y1781496D02*
X2785433D01*
X2650222Y1801653D02*
X2670379Y1781496D01*
X2784653Y1762591D02*
X2785433Y1761811D01*
X2646858Y1762591D02*
X2784653D01*
X2752568Y1701071D02*
X2753474Y1701976D01*
X2784654D01*
X2784653Y1721661D02*
X2785433Y1722441D01*
X2359234Y1974197D02*
X2379548D01*
X2256871Y2076559D02*
X2359234Y1974197D01*
X1592284Y2209646D02*
X1725370Y2076559D01*
X2784654Y1701976D02*
X2785433Y1702756D01*
X2351778Y1956197D02*
X2372093D01*
X2249415Y2058559D02*
X2351778Y1956197D01*
X1492284Y2209646D02*
X1643370Y2058559D01*
X2241960Y2040559D02*
X2344322Y1938197D01*
X1392284Y2209646D02*
X1561370Y2040559D01*
X792284Y2209646D02*
X875945Y2125984D01*
X971457D01*
X1292284Y-308031D02*
Y0D01*
X1252913Y39370D02*
X1292284Y0D01*
X617126Y39370D02*
X1252913D01*
X590551Y65945D02*
X617126Y39370D01*
X590551Y65945D02*
Y152323D01*
X306102Y436772D02*
X590551Y152323D01*
X306102Y436772D02*
Y520669D01*
X118110Y708662D02*
X306102Y520669D01*
X118110Y708662D02*
Y752953D01*
X347749Y1820866D02*
X359252Y1832369D01*
Y2209646D01*
X424764Y2275157D01*
X826772D01*
X892284Y2209646D01*
X1181102Y1365158D02*
Y1417779D01*
X1450812Y1687488D01*
X1546425D01*
X1550197Y1691260D01*
X1515773Y1666417D02*
X1548425D01*
X1515773D02*
Y1667913D01*
X1456693D02*
X1515773D01*
X1831858Y1900401D02*
X1835630Y1904173D01*
X1788230Y1900401D02*
X1831858D01*
X1658931Y1771102D02*
X1788230Y1900401D01*
X1550197Y1771102D02*
X1658931D01*
X545276Y1439961D02*
X563976Y1458661D01*
Y1732284D01*
X944882Y1658465D02*
X995079Y1608268D01*
X1062992D01*
X1550197Y1744488D02*
Y1771102D01*
X1546425Y1740716D02*
X1550197Y1744488D01*
X1504716Y1740716D02*
X1546425D01*
X1512426Y1849173D02*
X1548425D01*
X1507584Y1844331D02*
X1512426Y1849173D01*
X1062992Y1698819D02*
Y1811024D01*
X1338583Y1894685D02*
X1417323D01*
X971457Y2125984D02*
X1102362Y1995079D01*
X823110Y1914370D02*
X869370Y1960630D01*
X944882D01*
X1548425Y1849173D02*
X1550197Y1850945D01*
X1062992Y1698819D02*
X1078740D01*
X1519921Y1638031D02*
X1550197D01*
X1456693Y1574803D02*
X1519921Y1638031D01*
X1548425Y1666417D02*
X1550197Y1664646D01*
X1365158Y1576378D02*
X1456693Y1667913D01*
X1365158Y1522638D02*
Y1576378D01*
D24*
X360748Y1557126D02*
Y1649094D01*
X464567Y1287520D02*
Y1677402D01*
X2370074Y1574800D02*
X2377378D01*
X2393701Y1591122D01*
X2633265Y2158488D02*
X2733291D01*
X2568898Y2094121D02*
X2633265Y2158488D01*
X2639892Y2142488D02*
X2755140D01*
X2590362Y2092959D02*
X2639892Y2142488D01*
X2646519Y2126488D02*
X2730128D01*
X2608286Y2088255D02*
X2646519Y2126488D01*
X2653147Y2110488D02*
X2723500D01*
X2624286Y2081628D02*
X2653147Y2110488D01*
X2659774Y2094488D02*
X2716873D01*
X2640286Y2075000D02*
X2659774Y2094488D01*
X2667323Y2061025D02*
X2669286Y2062988D01*
X2640286Y2050976D02*
X2647638Y2043624D01*
Y1998031D02*
Y2043624D01*
X2624286Y2044349D02*
X2629732Y2038902D01*
Y1998031D02*
Y2038902D01*
X2608286Y2037721D02*
X2610047Y2035960D01*
Y1998031D02*
Y2035960D01*
X2640286Y2050976D02*
Y2075000D01*
X2624286Y2044349D02*
Y2081628D01*
X2608286Y2037721D02*
Y2088255D01*
X2590362Y1999811D02*
Y2092959D01*
X3955512Y2093307D02*
Y2103937D01*
X2733291Y2158488D02*
X2759843Y2185039D01*
X2755140Y2142488D02*
X2763774Y2133854D01*
X2730128Y2126488D02*
X2751762Y2104854D01*
X2723500Y2110488D02*
X2745135Y2088854D01*
X2716873Y2094488D02*
X2738507Y2072854D01*
X2521417Y1272638D02*
X2549925D01*
X2571089Y1293802D01*
X3920472Y531496D02*
X4114173Y725197D01*
X3476378Y531496D02*
X3920472D01*
X3426638Y-229858D02*
Y584118D01*
X3582677Y740158D01*
X3620079Y381102D02*
Y492126D01*
X3587599Y348622D02*
X3620079Y381102D01*
X3318520Y-118110D02*
X3346457D01*
X3277370Y-159260D02*
X3318520Y-118110D01*
X3277370Y-219537D02*
Y-159260D01*
Y-219537D02*
X3307087Y-249254D01*
Y-273622D02*
Y-249254D01*
X3385827Y-270669D02*
X3426638Y-229858D01*
X3236220Y322835D02*
X3327802D01*
X3188976Y275591D02*
X3236220Y322835D01*
X3192913Y110236D02*
X3205709D01*
X3276386Y39559D01*
X3185039Y-338583D02*
X3242126D01*
X3307087Y-273622D01*
X1389764Y846457D02*
Y1023622D01*
X1342520Y799213D02*
X1389764Y846457D01*
X2094042Y837142D02*
X2101916Y845016D01*
X1578740Y837142D02*
X2094042D01*
X1045732D02*
X1299213D01*
X1342520Y458988D02*
Y799213D01*
X1448228Y637795D02*
X1496063Y589961D01*
X1342520Y458988D02*
X1505716Y295791D01*
Y252904D02*
Y295791D01*
Y252904D02*
X1535433Y223187D01*
Y198819D02*
Y223187D01*
X1442913Y1023622D02*
X1468504Y1049213D01*
X1389764Y1023622D02*
X1442913D01*
X787402Y1328740D02*
Y1372047D01*
X789370Y1446850D02*
X858268Y1377953D01*
Y1164370D02*
Y1377953D01*
X822835Y1128937D02*
X858268Y1164370D01*
X1212787Y1289321D02*
Y1342470D01*
X1350632Y1480315D01*
X1128748Y1282291D02*
X1205758D01*
X1350632Y1480315D02*
X1425197D01*
X1019685Y1173228D02*
X1128748Y1282291D01*
X1205758D02*
X1212787Y1289321D01*
X1383063Y1394874D02*
X1562992Y1574803D01*
X1353297Y1394874D02*
X1383063D01*
X1082677Y1124254D02*
X1353297Y1394874D01*
X1082677Y1070866D02*
Y1124254D01*
X2514724Y524212D02*
X2580472Y589961D01*
X2074213Y524212D02*
X2514724D01*
X1476378Y401575D02*
X1730495D01*
X2112681Y829016D02*
X2139437Y855772D01*
X2404448D01*
X1730495Y401575D02*
X2126692Y797772D01*
X1735226Y433071D02*
X2115171Y813016D01*
X1744095Y464567D02*
X2108543Y829016D01*
X2126692Y797772D02*
X2341079D01*
X2133065Y826772D02*
X2311023D01*
X2119309Y813016D02*
X2133065Y826772D01*
X2115171Y813016D02*
X2119309D01*
X2108543Y829016D02*
X2112681D01*
X2123042Y866142D02*
X2128672Y871772D01*
X2123042Y862004D02*
Y866142D01*
X2106054Y845016D02*
X2123042Y862004D01*
X2101916Y845016D02*
X2106054D01*
X2094042Y874016D02*
Y1128572D01*
X2085630Y1136984D02*
X2094042Y1128572D01*
X2085630Y1136984D02*
X2104772Y1156126D01*
X2278354Y1045465D02*
X2413435D01*
X2173228Y1150591D02*
X2278354Y1045465D01*
X2413435D02*
X2420465Y1038435D01*
X2104772Y1156126D02*
Y1257226D01*
X2068108Y1293890D02*
X2104772Y1257226D01*
X1987606Y1293890D02*
X2068108D01*
X1929134Y1352362D02*
X1987606Y1293890D01*
X2610220Y501599D02*
X2698583Y589961D01*
X2382831Y501599D02*
X2610220D01*
X2353874Y472641D02*
X2382831Y501599D01*
X2353874Y450934D02*
Y472641D01*
X2305673Y402732D02*
X2353874Y450934D01*
X2018217Y386732D02*
X2337874D01*
X1951315Y426638D02*
X1978311D01*
X2018217Y386732D01*
X2028501Y402732D02*
X2305673D01*
X1988595Y442638D02*
X2028501Y402732D01*
X1974685Y442638D02*
X1988595D01*
X1938449Y478874D02*
X1974685Y442638D01*
X2337874Y386732D02*
X2403307Y452165D01*
X1938449Y478874D02*
Y480516D01*
X1921461Y497504D02*
X1938449Y480516D01*
X1897437Y497504D02*
X1921461D01*
X1809382Y409449D02*
X1897437Y497504D01*
X1787402Y409449D02*
X1809382D01*
X1909449Y468504D02*
X1951315Y426638D01*
X1614173Y1312008D02*
Y1352362D01*
X2231654Y922323D02*
Y980315D01*
X2181102Y871772D02*
X2231654Y922323D01*
X2128672Y871772D02*
X2181102D01*
X822835Y1060039D02*
X1045732Y837142D01*
X1047244Y425197D02*
Y799213D01*
X681102Y570866D02*
X874016Y866142D01*
X905512Y1106299D02*
X1037402Y974409D01*
X905512Y1106299D02*
Y1407480D01*
X1047244Y425197D02*
X1137795Y334646D01*
X1185039D01*
X1299213Y220472D01*
X1410671D01*
X1425386Y205758D01*
Y179271D02*
Y205758D01*
Y179271D02*
X1523421Y81236D01*
X1547445D01*
X1564433Y98224D01*
Y152032D01*
X1614173Y201772D01*
X1125984Y397638D02*
X1333465D01*
X1374016Y464567D02*
X1744095D01*
X1333465Y397638D02*
X1365551Y365551D01*
X2817150Y-163165D02*
X2848599D01*
X2868331Y-183291D02*
X2976378Y-291339D01*
X2868331Y-183291D02*
Y-182898D01*
X2848599Y-163165D02*
X2868331Y-182898D01*
X2976378Y-291339D02*
X3149606D01*
X2626984Y-353331D02*
X2817150Y-163165D01*
X1400575Y-353331D02*
X2626984D01*
X1309284Y-262039D02*
X1400575Y-353331D01*
X2598425Y-337331D02*
X2800961Y-134795D01*
X1463315Y-337331D02*
X2598425D01*
X1377953Y-251969D02*
X1463315Y-337331D01*
X1309284Y-262039D02*
Y7042D01*
X1259955Y56370D02*
X1309284Y7042D01*
X1101110Y56370D02*
X1259955D01*
X996063Y161417D02*
X1101110Y56370D01*
X996063Y161417D02*
Y589961D01*
X3366394Y515496D02*
X3397638Y484252D01*
X3203478Y515496D02*
X3366394D01*
X2800961Y112979D02*
X3203478Y515496D01*
X2800961Y-134795D02*
Y112979D01*
X1377953Y-251969D02*
Y181102D01*
X1535433Y110236D02*
Y198819D01*
X3196851Y531496D02*
X3397638D01*
X2772811Y107457D02*
X3196851Y531496D01*
X2323776Y107457D02*
X2772811D01*
X2274343Y156890D02*
X2323776Y107457D01*
X2226142Y156890D02*
X2274343D01*
X3661417Y774409D02*
Y792323D01*
X3572047Y685039D02*
X3661417Y774409D01*
X2942311Y685039D02*
X3464567D01*
X2660003Y402732D02*
X2942311Y685039D01*
X2619052Y402732D02*
X2660003D01*
X2569619Y452165D02*
X2619052Y402732D01*
X2521417Y452165D02*
X2569619D01*
X2639528D02*
X2830709Y643346D01*
Y957677D01*
X2821850Y1017716D02*
X2830709Y1026575D01*
X2598425Y1017716D02*
X2821850D01*
X2677165Y971218D02*
Y980315D01*
X2613238Y907291D02*
X2677165Y971218D01*
X2343315Y907291D02*
X2613238D01*
X2270291Y980315D02*
X2343315Y907291D01*
X2231654Y980315D02*
X2270291D01*
X2389764Y949803D02*
X2420465D01*
X2375000Y1017716D02*
X2381890Y1010827D01*
X2152913Y1017716D02*
X2375000D01*
X2381890Y941929D02*
X2389764Y949803D01*
X2420465D02*
Y1038435D01*
X2007874Y934055D02*
X2019685Y945866D01*
X2007874Y866142D02*
Y934055D01*
X1216535Y964567D02*
Y1019685D01*
X1735226Y433071D02*
X1735226Y433071D01*
X1433071Y433071D02*
X1735226D01*
X1374016Y464567D02*
Y468504D01*
X2362205Y818898D02*
X2400310D01*
X2341079Y797772D02*
X2362205Y818898D01*
X2404448Y855772D02*
X2423818Y836402D01*
X2492126D01*
X1377953Y291339D02*
X1401575D01*
X1456693Y236220D01*
X1535433Y273622D02*
X1538386Y270669D01*
X1614173D01*
X2205947Y82677D02*
X2271937D01*
X2170514Y47244D02*
X2205947Y82677D01*
X3173228Y-181102D02*
X3228347Y-236220D01*
X3149606Y-181102D02*
X3173228D01*
X3503937Y864173D02*
X3506890Y861221D01*
X3661417D01*
X3228347D02*
X3231299Y864173D01*
X3307087D01*
X3385827Y826772D02*
X3582677D01*
Y740158D02*
Y826772D01*
X3307087Y-198819D02*
X3310039Y-201772D01*
X3385827D01*
X3587599Y236220D02*
Y348622D01*
X3278898Y1134842D02*
X3361575Y1217520D01*
X3206245Y1134842D02*
X3278898D01*
X1981299Y1014764D02*
X2019685D01*
X1937008Y1059055D02*
X1981299Y1014764D01*
X1937008Y1059055D02*
Y1146079D01*
X1954520Y1163591D01*
X2044341D01*
X2088772Y1208022D01*
Y1249459D01*
X2073228Y1265002D02*
X2088772Y1249459D01*
X2073228Y1265002D02*
Y1266142D01*
X1924368Y1271653D02*
X1957628Y1238394D01*
X2049402D01*
X1980315Y1266142D02*
X2073228D01*
X2049402Y1238394D02*
X2059055Y1228740D01*
X1700787Y1271653D02*
X1924368D01*
X2039366Y1566179D02*
Y1566926D01*
X1933071Y1459884D02*
X2039366Y1566179D01*
X1779528Y1234252D02*
X1803150Y1210630D01*
Y1023622D02*
Y1210630D01*
X1618110Y953740D02*
X1700787Y1036417D01*
Y1271653D01*
X1516732Y1124016D02*
X1618110Y1022638D01*
X1468504Y1124016D02*
X1516732D01*
X1346457Y1129921D02*
X1389764Y1086614D01*
X1216535Y1129921D02*
X1346457D01*
X496063Y589961D02*
Y889764D01*
X629921Y1023622D01*
X706693Y1409449D02*
X708661D01*
X661354Y1364110D02*
X706693Y1409449D01*
X661354Y1149543D02*
Y1364110D01*
X981110Y1366937D02*
X984252Y1370079D01*
X1015748Y1063976D02*
X1019685D01*
X981110Y1098614D02*
X1015748Y1063976D01*
X981110Y1098614D02*
Y1366937D01*
X787402Y1446850D02*
X789370D01*
X629921Y1133858D02*
X645669D01*
X661354Y1149543D01*
X3656496Y1159449D02*
Y1220472D01*
X3745079Y1158465D02*
Y1220472D01*
X3905274D02*
X3943848Y1259047D01*
X3902559Y1220472D02*
X3905274D01*
X4055512Y1005512D02*
Y1202600D01*
X3999065Y1259047D02*
X4055512Y1202600D01*
X3943848Y1259047D02*
X3999065D01*
X4155512Y1005512D02*
X4168307Y1018307D01*
Y1220472D01*
X3062992Y1526575D02*
X3177165Y1640748D01*
Y1732284D01*
X3062008Y1756773D02*
X3086497Y1732284D01*
X3177165D01*
X3620079Y1602362D02*
X3622047Y1604331D01*
Y1669291D01*
X3458661Y1602362D02*
X3464567Y1608268D01*
Y1669291D01*
X3404012Y1775591D02*
X3433071D01*
X3394933Y1766512D02*
X3404012Y1775591D01*
X3317242Y1766512D02*
X3394933D01*
X3276981Y1806773D02*
X3317242Y1766512D01*
X3276575Y1806773D02*
X3276981D01*
X2590362Y1502075D02*
Y1545275D01*
X2803150Y1298228D02*
X2819882D01*
X3008962Y1346457D02*
X3075891Y1279528D01*
X2850394Y1346457D02*
X3008962D01*
X2783465Y1413386D02*
X2850394Y1346457D01*
X2616858Y1325787D02*
X2629142Y1338071D01*
X2523319Y1325787D02*
X2616858D01*
X681102Y295276D02*
Y570866D01*
X2039366Y1566926D02*
X2040113D01*
X1956693Y1806102D02*
X2012795Y1862205D01*
X2248032D01*
X3275591Y1592520D02*
Y1655789D01*
X3276575Y1806773D02*
X3322835Y1853033D01*
Y1952994D01*
X3280750Y1995079D02*
X3322835Y1952994D01*
X3279528Y1995079D02*
X3280750D01*
X3275591Y1655789D02*
X3276575Y1656773D01*
X3075891Y1279528D02*
X3357669D01*
X3363575Y1285433D01*
X3046863Y1656773D02*
X3062008D01*
X2951315Y1561225D02*
X3046863Y1656773D01*
X3050867Y1806773D02*
X3062008D01*
X2980315Y1736220D02*
X3050867Y1806773D01*
X2980315Y1648459D02*
Y1736220D01*
X2681409Y1470197D02*
X2727301D01*
X2662905Y1488701D02*
X2681409Y1470197D01*
X2918559Y1464819D02*
X2951315Y1497575D01*
X2732679Y1464819D02*
X2918559D01*
X2727301Y1470197D02*
X2732679Y1464819D01*
X2726052Y1448819D02*
X2948819D01*
X2720673Y1454197D02*
X2726052Y1448819D01*
X2696649Y1454197D02*
X2720673D01*
X2691271Y1448819D02*
X2696649Y1454197D01*
X2680160Y1448819D02*
X2691271D01*
X2948819D02*
X2979331Y1479331D01*
X2656278Y1472701D02*
X2680160Y1448819D01*
X2802002Y1548392D02*
X2814961Y1535433D01*
X2802002Y1548392D02*
Y1607447D01*
X2785433Y1624016D02*
X2802002Y1607447D01*
X2913386Y1913137D02*
Y1942913D01*
Y1913137D02*
X2921260Y1905263D01*
Y1792981D02*
Y1905263D01*
Y1792981D02*
X2938650Y1775591D01*
X2874795Y1643701D02*
X2888575Y1657480D01*
X2944882Y1728347D02*
X2992126Y1775591D01*
X2832205Y1696850D02*
X2857638D01*
X2785433Y1742126D02*
X2839638D01*
X2802002Y1607447D02*
X2888575D01*
X2992126Y1775591D02*
Y1942913D01*
X2785433Y1643701D02*
X2874795D01*
X2951315Y1497575D02*
Y1561225D01*
X2979331Y1548228D02*
X2980315Y1549213D01*
X2979331Y1479331D02*
Y1548228D01*
X2785433Y1663386D02*
X2815199D01*
X2824008Y1672195D01*
Y1688653D02*
X2832205Y1696850D01*
X2824008Y1672195D02*
Y1688653D01*
X3583071Y1894291D02*
X3587598Y1889764D01*
X3583071Y1894291D02*
Y2031496D01*
X3655512Y2103937D01*
X3853347Y1889764D02*
X3855512Y1891929D01*
Y2103937D01*
X4050197Y1889764D02*
X4155512Y1995079D01*
Y2103937D01*
X4247047Y1889764D02*
X4255512Y1898228D01*
Y2103937D01*
X3656496Y1889764D02*
Y1973425D01*
X3614173Y2015748D02*
X3656496Y1973425D01*
X3784449Y1889764D02*
Y1964339D01*
X3748032Y2000756D02*
X3784449Y1964339D01*
X3981299Y1889764D02*
Y1943898D01*
X3937008Y1988189D02*
X3981299Y1943898D01*
X4178150Y1889764D02*
Y1932087D01*
X4157480Y1952756D02*
X4178150Y1932087D01*
X2742107Y2072854D02*
X2791339Y2023622D01*
X2751762Y2104854D02*
X2791481D01*
X2796069Y2109443D01*
X2738507Y2072854D02*
X2742107D01*
X2766124Y2088854D02*
X2788053Y2066925D01*
X2745135Y2088854D02*
X2766124D01*
X2568898Y1998031D02*
Y2094121D01*
X2588583Y1998031D02*
X2590362Y1999811D01*
X2788053Y2066925D02*
X2795270D01*
X2608268Y1998031D02*
X2610047D01*
X2627953D02*
X2629732D01*
X2708661Y1425197D02*
X2763780Y1370079D01*
X2648939Y1456701D02*
X2675276Y1430365D01*
Y1349143D02*
Y1430365D01*
X2667323Y1998031D02*
Y2061025D01*
X2543307Y1641732D02*
X2551932D01*
X2526551Y1658488D02*
X2543307Y1641732D01*
X1019685Y1132874D02*
Y1173228D01*
X1783465Y1480315D02*
Y1484453D01*
X1869878Y1570866D01*
X2082677Y1574803D02*
X2086614Y1570866D01*
X2172081Y1607447D02*
X2174669Y1604858D01*
X2169492D02*
X2172081Y1607447D01*
X2145468Y1604858D02*
X2169492D01*
X2128480Y1621846D02*
X2145468Y1604858D01*
X2128480Y1621846D02*
Y1645870D01*
X2131069Y1648459D01*
X2050034Y1729494D02*
X2131069Y1648459D01*
X2174669Y1604858D02*
X2218796D01*
X2157480Y1633858D02*
X2163913Y1640291D01*
X2218796Y1604858D02*
X2277324Y1663386D01*
X2332677D01*
X2202039Y1758591D02*
X2212598Y1748032D01*
X2163913Y1640291D02*
X2231602D01*
X2264338Y1673027D02*
Y1692239D01*
X2231602Y1640291D02*
X2264338Y1673027D01*
X2086614Y1404528D02*
Y1570866D01*
X2264338Y1692239D02*
X2294540Y1722441D01*
X2332677D01*
X2173228Y1150591D02*
Y1527559D01*
X3080183Y1142354D02*
X3086614Y1148786D01*
X2904890Y1142354D02*
X3080183D01*
X2877953Y1169291D02*
X2904890Y1142354D01*
X3156496Y792323D02*
X3228347D01*
X3153543Y795276D02*
X3156496Y792323D01*
X2763780Y1370079D02*
X2779528D01*
X2437495Y1658488D02*
X2526551D01*
X2371252Y1724731D02*
X2437495Y1658488D01*
X2371252Y1724731D02*
Y1733317D01*
X2368071Y1736498D02*
X2371252Y1733317D01*
X2368071Y1736498D02*
Y1742126D01*
X2332677D02*
X2368071D01*
X1803150Y954724D02*
X1820866D01*
X1862205Y996063D01*
X2271937Y1744488D02*
X2289260Y1761811D01*
X2332677D01*
X2085630Y1403543D02*
X2086614Y1404528D01*
X1929134Y1403543D02*
X2085630D01*
X2202039Y1758591D02*
Y1774548D01*
X2237208Y1809716D01*
X2261232D01*
X2269768Y1801181D01*
X2332677D01*
X3574803Y1207677D02*
X3587599Y1220472D01*
X3574803Y1157480D02*
Y1207677D01*
X3557882Y1285433D02*
X3574803Y1302354D01*
X3363575Y1285433D02*
X3557882D01*
X2593844Y1397638D02*
Y1427206D01*
X2509843Y1511207D02*
X2593844Y1427206D01*
X2509843Y1511207D02*
Y1545275D01*
X2635736Y1456701D02*
X2648939D01*
X2590362Y1502075D02*
X2635736Y1456701D01*
X2608268Y1506797D02*
Y1545275D01*
Y1506797D02*
X2642364Y1472701D01*
X2627953Y1509739D02*
X2648991Y1488701D01*
X2627953Y1509739D02*
Y1545275D01*
X2642364Y1472701D02*
X2656278D01*
X2648991Y1488701D02*
X2662905D01*
X2664203Y1338071D02*
X2675276Y1349143D01*
X2629142Y1338071D02*
X2664203D01*
X2588583Y1545275D02*
X2590362D01*
D26*
X3898642Y2160807D02*
X3955512Y2103937D01*
X2692913Y1298228D02*
X2803150D01*
X3904508Y1398642D02*
Y2042303D01*
X3955512Y2093307D01*
X605275Y2022638D02*
X792284Y2209646D01*
X588583Y2022638D02*
X605275D01*
X2819882Y1298228D02*
X2901575Y1216535D01*
X3070866D01*
X2673900Y1295902D02*
X2676400Y1298402D01*
X2652601Y1295902D02*
X2673900D01*
X2522054Y1165354D02*
X2652601Y1295902D01*
X2444882Y1165354D02*
X2522054D01*
X3468504Y1950787D02*
Y2055118D01*
X3361575Y1843858D02*
X3468504Y1950787D01*
X3361575Y1808071D02*
Y1843858D01*
X3522561Y2160807D02*
X3898642D01*
X3468504Y2106750D02*
X3522561Y2160807D01*
X3468504Y2055118D02*
Y2106750D01*
X2897638Y2070866D02*
Y2078937D01*
Y2070866D02*
X2913386Y2055118D01*
X2996063D02*
X3153543D01*
X2913386D02*
X2996063D01*
X2992126Y1994094D02*
X2996063Y1998031D01*
X3149606Y1995079D02*
X3153543Y1999016D01*
Y2055118D02*
X3468504D01*
D29*
X1989921Y156890D02*
D03*
X2108032D02*
D03*
X2226142D02*
D03*
X2344252D02*
D03*
X2462362D02*
D03*
X2580472D02*
D03*
X2698583D02*
D03*
X2048976Y294685D02*
D03*
X2167087D02*
D03*
X2285197D02*
D03*
X2403307D02*
D03*
X2521417D02*
D03*
X2639528D02*
D03*
X2048976Y452165D02*
D03*
X2167087D02*
D03*
X2285197D02*
D03*
X2403307D02*
D03*
X2521417D02*
D03*
X2639528D02*
D03*
X1989921Y589961D02*
D03*
X2108032D02*
D03*
X2226142D02*
D03*
X2344252D02*
D03*
X2462362D02*
D03*
X2580472D02*
D03*
X2698583D02*
D03*
D30*
X692284Y2209646D02*
D03*
X792284D02*
D03*
X892284D02*
D03*
X992284D02*
D03*
X1092284D02*
D03*
X1192284D02*
D03*
X1292284D02*
D03*
X1392284D02*
D03*
X1492284D02*
D03*
X1592284D02*
D03*
X1692284D02*
D03*
X1792284D02*
D03*
X1892284D02*
D03*
X1992284D02*
D03*
X2092284D02*
D03*
X2192284D02*
D03*
X2292284D02*
D03*
X2392284D02*
D03*
X2492284D02*
D03*
X2592284D02*
D03*
X4232283Y725197D02*
D03*
X4114173D02*
D03*
X1823622Y-177165D02*
D03*
Y-59055D02*
D03*
X3754449Y1005512D02*
D03*
X3854449D02*
D03*
X3954449D02*
D03*
X4054449D02*
D03*
X4154449D02*
D03*
X4254449D02*
D03*
Y2103937D02*
D03*
X4154449D02*
D03*
X4054449D02*
D03*
X3954449D02*
D03*
X3854449D02*
D03*
X3754449D02*
D03*
X3654449D02*
D03*
D31*
X3361575Y1808071D02*
D03*
Y1217520D02*
D03*
Y1375000D02*
D03*
Y1650591D02*
D03*
D32*
X3795984Y597362D02*
D03*
X3895984D02*
D03*
X1595984D02*
D03*
X1495984D02*
D03*
X1095984D02*
D03*
X995984D02*
D03*
X595984D02*
D03*
X495984D02*
D03*
D33*
X4543307Y1507874D02*
D03*
X1161614Y178150D02*
D03*
X147441Y1228740D02*
D03*
X3987008Y266142D02*
D03*
D34*
X4173228Y555118D02*
D03*
X1653543Y-118110D02*
D03*
D35*
X3654449Y1005512D02*
D03*
D36*
X2834646Y-196850D02*
D03*
Y-96850D02*
D03*
Y-296850D02*
D03*
D37*
X2222835Y-236220D02*
D03*
D38*
X2322835D02*
D03*
X2422835D02*
D03*
D39*
X2153347Y1945433D02*
D03*
X3488621Y1398642D02*
D03*
X1476249Y1437008D02*
D03*
X2370074Y1574800D02*
D03*
X1880229Y406481D02*
D03*
X1244094Y496063D02*
D03*
X913386Y688976D02*
D03*
X3137795Y1195507D02*
D03*
X3275591Y1207399D02*
D03*
X2012796Y1615618D02*
D03*
X1814961Y1372695D02*
D03*
X1993519Y1358268D02*
D03*
X2139577Y1451526D02*
D03*
X1357072Y1692913D02*
D03*
X1149606Y1787402D02*
D03*
X1057721Y1308164D02*
D03*
X2551022Y2125984D02*
D03*
X2669286Y2062988D02*
D03*
X2429134Y2106299D02*
D03*
X2571089Y1293802D02*
D03*
X2781152Y1177483D02*
D03*
X2626142Y1178010D02*
D03*
X3476378Y531496D02*
D03*
X3620079Y492126D02*
D03*
X3346457Y-118110D02*
D03*
X3327802Y322835D02*
D03*
X3188976Y275591D02*
D03*
X3192913Y110236D02*
D03*
X3276386Y39559D02*
D03*
X3185039Y-338583D02*
D03*
X1578740Y837142D02*
D03*
X1299213D02*
D03*
X1448228Y637795D02*
D03*
X1389764Y1023622D02*
D03*
X787402Y1328740D02*
D03*
X1425197Y1480315D02*
D03*
X1082677Y1070866D02*
D03*
X2094042Y874016D02*
D03*
X1787402Y409449D02*
D03*
X1614173Y1299213D02*
D03*
X1216535Y964567D02*
D03*
X1047244Y799213D02*
D03*
X1037402Y974409D02*
D03*
X874016Y866142D02*
D03*
X1125984Y397638D02*
D03*
X3397638Y484252D02*
D03*
X1535433Y110236D02*
D03*
X3397638Y531496D02*
D03*
X3572047Y685039D02*
D03*
X3464567D02*
D03*
X2007874Y866142D02*
D03*
X1909449Y468504D02*
D03*
X1365551Y365551D02*
D03*
X1433071Y433071D02*
D03*
X1476378Y401575D02*
D03*
X1374016Y468504D02*
D03*
X2323036Y759842D02*
D03*
X2311023Y826772D02*
D03*
X2279528Y82677D02*
D03*
X2170514Y47244D02*
D03*
X1862205Y996063D02*
D03*
X1933071Y1459884D02*
D03*
X3656496Y1159449D02*
D03*
X3745079Y1158465D02*
D03*
X3177165Y1732284D02*
D03*
X3622047Y1669291D02*
D03*
X3433071Y1775591D02*
D03*
X3464567Y1669291D02*
D03*
X681102Y295276D02*
D03*
X1562992Y1574803D02*
D03*
X1956693Y1806102D02*
D03*
X2039366Y1566926D02*
D03*
X3525590Y1319354D02*
D03*
X3425197Y1321071D02*
D03*
X2400310Y818898D02*
D03*
X2492126Y836402D02*
D03*
X2814961Y1535433D02*
D03*
X2938650Y1775591D02*
D03*
X2888575Y1657480D02*
D03*
X2944882Y1728347D02*
D03*
X2980315Y1648459D02*
D03*
X2857638Y1696850D02*
D03*
X2839638Y1742126D02*
D03*
X2888575Y1607447D02*
D03*
X2980315Y1549213D02*
D03*
X3614173Y2015748D02*
D03*
X3748032Y2000756D02*
D03*
X3937008Y1988189D02*
D03*
X4157480Y1952756D02*
D03*
X2709286Y2061063D02*
D03*
X2763774Y2133854D02*
D03*
X2759843Y2185039D02*
D03*
X2799023Y2240157D02*
D03*
X2724409Y2251968D02*
D03*
X2795270Y2066925D02*
D03*
X2796069Y2109443D02*
D03*
X2712598Y1940945D02*
D03*
X2657480Y1909449D02*
D03*
X2602362Y1803150D02*
D03*
X2791339Y2023622D02*
D03*
X2494807Y2094488D02*
D03*
X2708661Y1425197D02*
D03*
X2659351Y2212598D02*
D03*
X2551932Y1641732D02*
D03*
X1783465Y1480315D02*
D03*
X2082677Y1574803D02*
D03*
X1869878Y1570866D02*
D03*
X2043307Y1736220D02*
D03*
X2157480Y1633858D02*
D03*
X2235338Y1685039D02*
D03*
X2212598Y1748032D02*
D03*
X2191339Y1669291D02*
D03*
X2173228Y1539370D02*
D03*
X3153543Y795276D02*
D03*
X3094488Y1157480D02*
D03*
X2877953Y1169291D02*
D03*
X2779528Y1370079D02*
D03*
X2783465Y1413386D02*
D03*
X2442274Y1748936D02*
D03*
X2477003Y1717913D02*
D03*
X2527559Y1687488D02*
D03*
X2271937Y1744488D02*
D03*
X2249220Y1780716D02*
D03*
X3574803Y1157480D02*
D03*
Y1302354D02*
D03*
X2503932Y1425194D02*
D03*
X2594488Y1389764D02*
D03*
X3807087Y1145669D02*
D03*
X3779528Y1082677D02*
D03*
X2374011Y1181107D02*
D03*
Y1374013D02*
D03*
X2397633Y1417320D02*
D03*
X2375399Y1500993D02*
D03*
X2409449Y1212598D02*
D03*
X2291334Y1535430D02*
D03*
X2307082Y1476375D02*
D03*
X2263780Y1476378D02*
D03*
X2331819Y1514640D02*
D03*
X1940945Y397638D02*
D03*
X2220468Y1330706D02*
D03*
X2295276Y1370079D02*
D03*
X1989921Y374016D02*
D03*
X2248032Y1862205D02*
D03*
X2669291Y1650591D02*
D03*
X2637795Y1771653D02*
D03*
X2566929Y1830709D02*
D03*
X2535433Y1862205D02*
D03*
Y1925197D02*
D03*
X1964567Y1614173D02*
D03*
X2748032Y1586614D02*
D03*
X2196850Y1899606D02*
D03*
X1968504Y1933071D02*
D03*
X1898701Y1974197D02*
D03*
X2003937Y1811024D02*
D03*
X1905512Y1877953D02*
D03*
X1896162Y1925197D02*
D03*
X1165354Y2035433D02*
D03*
X2842520Y2232284D02*
D03*
X2569370Y1893701D02*
D03*
D40*
X1406653Y777402D02*
D03*
X360748Y1557126D02*
D03*
X545276Y1439961D02*
D03*
X360748Y1649094D02*
D03*
X464567Y1287520D02*
D03*
Y1677402D02*
D03*
X1917323Y1687913D02*
D03*
X1661417Y1187109D02*
D03*
X1708661Y901575D02*
D03*
X2724409Y726517D02*
D03*
X2962199Y824961D02*
D03*
X2259370Y1172480D02*
D03*
X2507711Y992126D02*
D03*
X1494402Y1300706D02*
D03*
X1748032Y1607447D02*
D03*
X1669291Y1939449D02*
D03*
X795276Y2017409D02*
D03*
X586409Y2169291D02*
D03*
X744095Y1677165D02*
D03*
X625984Y1430276D02*
D03*
X303150Y1208661D02*
D03*
X196850Y929134D02*
D03*
X598425Y444882D02*
D03*
X370079Y515748D02*
D03*
X671009Y110236D02*
D03*
X1836510Y231449D02*
D03*
X1473267Y-122047D02*
D03*
X2599952Y-94266D02*
D03*
X2210103Y-110608D02*
D03*
X3000000Y468504D02*
D03*
X3015748Y208661D02*
D03*
X3483554Y118110D02*
D03*
X4322835Y491011D02*
D03*
X3876249Y830709D02*
D03*
X4318898Y1176489D02*
D03*
X4236221Y1610236D02*
D03*
X3744095Y1346529D02*
D03*
X3751811Y1610236D02*
D03*
X3184886Y1475493D02*
D03*
X3062992Y1866142D02*
D03*
X3471850Y2210669D02*
D03*
X3142795Y2128494D02*
D03*
X2912992Y2160709D02*
D03*
X3904508Y1398642D02*
D03*
X3070866Y1216535D02*
D03*
X2897638Y2078937D02*
D03*
X2448819Y1318280D02*
D03*
X2444882Y1165354D02*
D03*
X1417323Y1751968D02*
D03*
X1023622Y1941929D02*
D03*
X1338583Y1894685D02*
D03*
X1365158Y1522638D02*
D03*
X1456693Y1574803D02*
D03*
D41*
X2074213Y524212D02*
D03*
D42*
X905512Y1407480D02*
D03*
X984252Y1370079D02*
D03*
Y1444882D02*
D03*
X2059055Y1228740D02*
D03*
X1980315Y1266142D02*
D03*
Y1191339D02*
D03*
X3307087Y-198819D02*
D03*
Y-273622D02*
D03*
X3228347Y-236220D02*
D03*
X1779528Y1309055D02*
D03*
Y1234252D02*
D03*
X1700787Y1271653D02*
D03*
X3307087Y789370D02*
D03*
Y864173D02*
D03*
X3385827Y826772D02*
D03*
X1535433Y273622D02*
D03*
Y198819D02*
D03*
X1456693Y236220D02*
D03*
X1468504Y1124016D02*
D03*
Y1049213D02*
D03*
X1389764Y1086614D02*
D03*
X3503937Y789370D02*
D03*
Y864173D02*
D03*
X3582677Y826772D02*
D03*
X787402Y1446850D02*
D03*
Y1372047D02*
D03*
X708661Y1409449D02*
D03*
X2598425Y942913D02*
D03*
Y1017716D02*
D03*
X2677165Y980315D02*
D03*
X2152913Y942913D02*
D03*
Y1017716D02*
D03*
X2231654Y980315D02*
D03*
D43*
X3276575Y1806773D02*
D03*
Y1756773D02*
D03*
Y1706773D02*
D03*
Y1656773D02*
D03*
X3062008Y1806773D02*
D03*
Y1756773D02*
D03*
Y1706773D02*
D03*
Y1656773D02*
D03*
D44*
X944882Y1960630D02*
D03*
Y1897638D02*
D03*
D45*
X2086614Y1404528D02*
D03*
Y1351378D02*
D03*
X1181102Y1312008D02*
D03*
Y1365158D02*
D03*
X1377953Y1312008D02*
D03*
Y1365158D02*
D03*
X1220472Y1758858D02*
D03*
Y1705709D02*
D03*
X1102362Y1941929D02*
D03*
Y1995079D02*
D03*
X2695147Y1237205D02*
D03*
Y1290354D02*
D03*
X2803150Y1245079D02*
D03*
Y1298228D02*
D03*
X2521417Y1272638D02*
D03*
Y1325787D02*
D03*
X3062992Y1473425D02*
D03*
Y1526575D02*
D03*
X3279528Y1941929D02*
D03*
Y1995079D02*
D03*
X3149606Y1941929D02*
D03*
Y1995079D02*
D03*
D46*
X1614173Y1403543D02*
D03*
Y1352362D02*
D03*
X1929134Y1403543D02*
D03*
Y1352362D02*
D03*
X3275591Y1592520D02*
D03*
Y1541339D02*
D03*
X2913386Y1994094D02*
D03*
Y1942913D02*
D03*
X2992126Y1994094D02*
D03*
Y1942913D02*
D03*
D47*
X1220472Y1883858D02*
D03*
Y1974409D02*
D03*
X1062992Y1698819D02*
D03*
Y1608268D02*
D03*
D48*
X2165709Y2007874D02*
D03*
X2218858D02*
D03*
X617126Y1732284D02*
D03*
X563976D02*
D03*
D49*
X1835630Y1984016D02*
D03*
Y1957401D02*
D03*
Y1930787D02*
D03*
Y1904173D02*
D03*
Y1877559D02*
D03*
Y1850945D02*
D03*
Y1824331D02*
D03*
Y1797716D02*
D03*
Y1771102D02*
D03*
Y1744488D02*
D03*
Y1717874D02*
D03*
Y1691260D02*
D03*
Y1664646D02*
D03*
Y1638031D02*
D03*
X1550197Y1984016D02*
D03*
Y1957401D02*
D03*
Y1930787D02*
D03*
Y1904173D02*
D03*
Y1877559D02*
D03*
Y1850945D02*
D03*
Y1824331D02*
D03*
Y1797716D02*
D03*
Y1771102D02*
D03*
Y1744488D02*
D03*
Y1717874D02*
D03*
Y1691260D02*
D03*
Y1664646D02*
D03*
Y1638031D02*
D03*
D50*
X588583Y1914370D02*
D03*
X551181D02*
D03*
X513780D02*
D03*
Y2022638D02*
D03*
X588583D02*
D03*
D51*
X2785433Y1624016D02*
D03*
Y1643701D02*
D03*
Y1663386D02*
D03*
Y1683071D02*
D03*
Y1702756D02*
D03*
Y1722441D02*
D03*
Y1742126D02*
D03*
Y1761811D02*
D03*
Y1781496D02*
D03*
Y1801181D02*
D03*
Y1820866D02*
D03*
Y1840551D02*
D03*
Y1860236D02*
D03*
Y1879921D02*
D03*
Y1899606D02*
D03*
Y1919291D02*
D03*
X2332677D02*
D03*
Y1899606D02*
D03*
Y1879921D02*
D03*
Y1860236D02*
D03*
Y1840551D02*
D03*
Y1820866D02*
D03*
Y1801181D02*
D03*
Y1781496D02*
D03*
Y1761811D02*
D03*
Y1742126D02*
D03*
Y1722441D02*
D03*
Y1702756D02*
D03*
Y1683071D02*
D03*
Y1663386D02*
D03*
Y1643701D02*
D03*
Y1624016D02*
D03*
D52*
X2706693Y1998031D02*
D03*
X2687008D02*
D03*
X2667323D02*
D03*
X2647638D02*
D03*
X2627953D02*
D03*
X2608268D02*
D03*
X2588583D02*
D03*
X2568898D02*
D03*
X2549213D02*
D03*
X2529528D02*
D03*
X2509843D02*
D03*
X2490157D02*
D03*
X2470472D02*
D03*
X2450787D02*
D03*
X2431102D02*
D03*
X2411417D02*
D03*
Y1545275D02*
D03*
X2431102D02*
D03*
X2450787D02*
D03*
X2470472D02*
D03*
X2490157D02*
D03*
X2509843D02*
D03*
X2529528D02*
D03*
X2549213D02*
D03*
X2568898D02*
D03*
X2588583D02*
D03*
X2608268D02*
D03*
X2627953D02*
D03*
X2647638D02*
D03*
X2667323D02*
D03*
X2687008D02*
D03*
X2706693D02*
D03*
D53*
X3509843Y1602362D02*
D03*
X3458661D02*
D03*
X3620079D02*
D03*
X3568898D02*
D03*
%TF.MD5,a1625f169d04361bef48166f05ec07be*%
M02*
