%TF.GenerationSoftware,Altium Limited,Altium Designer,18.1.9 (240)*%
G04 Layer_Physical_Order=1*
G04 Layer_Color=255*
%FSLAX26Y26*%
%MOIN*%
%TF.FileFunction,Copper,L1,Top,Signal*%
%TF.Part,Single*%
G01*
G75*
%TA.AperFunction,ConnectorPad*%
%ADD10R,0.053150X0.015748*%
%ADD11R,0.055118X0.062992*%
%ADD12R,0.051181X0.057087*%
%TA.AperFunction,SMDPad,CuDef*%
%ADD13R,0.074803X0.074803*%
%ADD14R,0.070866X0.051181*%
%ADD15R,0.053150X0.045276*%
%ADD16R,0.043307X0.051181*%
%ADD17R,0.057087X0.053150*%
%ADD18R,0.029921X0.094488*%
%ADD19R,0.045276X0.053150*%
%ADD20R,0.074803X0.035433*%
%ADD21R,0.031496X0.035433*%
%ADD22R,0.070866X0.039370*%
%TA.AperFunction,Conductor*%
%ADD23C,0.008000*%
%ADD24C,0.010000*%
%ADD25C,0.019685*%
%ADD26C,0.015000*%
%ADD27C,0.020000*%
%TA.AperFunction,NonConductor*%
%ADD28C,0.003937*%
%TA.AperFunction,ComponentPad*%
%ADD29C,0.070866*%
%ADD30C,0.078740*%
%ADD31R,0.055118X0.055118*%
%ADD32C,0.058268*%
%TA.AperFunction,ViaPad*%
%ADD33C,0.165354*%
%TA.AperFunction,ComponentPad*%
%ADD34C,0.118110*%
%ADD35R,0.078740X0.078740*%
%ADD36C,0.039370*%
%ADD37R,0.059055X0.059055*%
%ADD38C,0.059055*%
%TA.AperFunction,ViaPad*%
%ADD39C,0.050000*%
%ADD40C,0.030000*%
D10*
X226378Y1622716D02*
D03*
Y1597126D02*
D03*
Y1571535D02*
D03*
Y1545945D02*
D03*
Y1520354D02*
D03*
D11*
X217520Y1697520D02*
D03*
Y1445551D02*
D03*
D12*
X121063Y1706378D02*
D03*
Y1436693D02*
D03*
D13*
Y1618780D02*
D03*
Y1524291D02*
D03*
D14*
X3813976Y121063D02*
D03*
Y235236D02*
D03*
D15*
X3385827Y388779D02*
D03*
Y319882D02*
D03*
X3149606Y506890D02*
D03*
Y437992D02*
D03*
D16*
X3576772Y118110D02*
D03*
X3667323D02*
D03*
D17*
X3188976Y58071D02*
D03*
Y-58071D02*
D03*
D18*
X966142Y312992D02*
D03*
Y159449D02*
D03*
X916142Y312992D02*
D03*
Y159449D02*
D03*
X866142Y312992D02*
D03*
Y159449D02*
D03*
X816142Y312992D02*
D03*
Y159449D02*
D03*
X766142Y312992D02*
D03*
Y159449D02*
D03*
D19*
X752953Y590551D02*
D03*
X821850D02*
D03*
X1806102D02*
D03*
X1737205D02*
D03*
X1294291D02*
D03*
X1225394D02*
D03*
D20*
X3338583Y148622D02*
D03*
Y-22638D02*
D03*
D21*
X3188976Y157480D02*
D03*
X3151575Y236220D02*
D03*
X3226378D02*
D03*
D22*
X1988189Y-173228D02*
D03*
Y-62992D02*
D03*
D23*
X3185039Y-62008D02*
X3299213D01*
X1790213Y-123795D02*
X1845729D01*
X1556181Y110236D02*
X1790213Y-123795D01*
X1535433Y110236D02*
X1556181D01*
X187803Y1622716D02*
X226378D01*
X187803Y1507510D02*
Y1622716D01*
Y1507510D02*
X194833Y1500480D01*
X292551D01*
X353071Y1439961D01*
X545276D01*
X226378Y1571535D02*
X232095Y1565819D01*
X352055D01*
X360748Y1557126D01*
X2485295Y2062988D02*
X2669286D01*
X3339732Y1641543D02*
X3352527Y1628748D01*
X3339732Y1641543D02*
Y1650591D01*
X2868291Y2082476D02*
X2897638D01*
X3352527Y1628748D02*
X3361575D01*
X3639437Y2000000D02*
X3748032D01*
X3929134Y1992126D02*
X3937008Y1984252D01*
X3865551Y566929D02*
X3895984Y597362D01*
X3826552Y566929D02*
X3865551D01*
X3813851Y554228D02*
X3826552Y566929D01*
X3778118Y554228D02*
X3813851D01*
X3734984Y597362D02*
X3778118Y554228D01*
X3660354Y597362D02*
X3734984D01*
X3779984Y613362D02*
X3795984Y597362D01*
X3653727Y613362D02*
X3779984D01*
X3596664Y556299D02*
X3653727Y613362D01*
X3572047Y556299D02*
X3596664D01*
X3397638Y531496D02*
X3476378D01*
X3620079Y557087D02*
X3660354Y597362D01*
X3620079Y492126D02*
Y557087D01*
X3500000Y484252D02*
X3572047Y556299D01*
X3397638Y484252D02*
X3500000D01*
X1547244Y625984D02*
X1614173Y692913D01*
X1547244Y559646D02*
Y625984D01*
Y559646D02*
X1697441Y409449D01*
X1614173Y692913D02*
Y1299213D01*
X1697441Y409449D02*
X1787402D01*
X3732284Y153543D02*
X3813976Y235236D01*
X3732284Y74803D02*
Y153543D01*
X3698102Y40622D02*
X3732284Y74803D01*
X3457525Y40622D02*
X3698102D01*
X3427882Y10979D02*
X3457525Y40622D01*
X3427882Y-76055D02*
Y10979D01*
X3385827Y-118110D02*
X3427882Y-76055D01*
X3346457Y-118110D02*
X3385827D01*
X3382874Y322835D02*
X3385827Y319882D01*
X3327802Y322835D02*
X3382874D01*
X3188976Y157480D02*
Y275591D01*
Y157480D02*
X3192913Y153543D01*
Y110236D02*
Y153543D01*
X3276386Y39559D02*
X3338583Y-22638D01*
X3299213Y-62008D02*
X3338583Y-22638D01*
X3185039Y-338583D02*
Y-62008D01*
X2929134Y-338583D02*
X3185039D01*
X2853716Y-263165D02*
X2929134Y-338583D01*
X2820693Y-263165D02*
X2853716D01*
X2796457Y-287402D02*
X2820693Y-263165D01*
X2274016Y-287402D02*
X2796457D01*
X2222835Y-236220D02*
X2274016Y-287402D01*
X1299213Y837142D02*
X1578740D01*
X1216535Y869488D02*
X1448228Y637795D01*
X1170933Y1023622D02*
X1389764D01*
X1094689Y1099866D02*
X1170933Y1023622D01*
X1016276Y1099866D02*
X1094689D01*
X787402Y1328740D02*
X1016276Y1099866D01*
X1425197Y1476378D02*
X1429134Y1480315D01*
X1425197Y1476378D02*
Y1480315D01*
X1078740Y1070866D02*
X1082677D01*
X874016Y866142D02*
X1078740Y1070866D01*
X2074213Y524212D02*
Y553871D01*
X2058598Y569485D02*
X2074213Y553871D01*
X2058598Y569485D02*
Y610437D01*
X2094042Y645880D01*
Y874016D01*
X1216535Y869488D02*
Y964567D01*
X1037402Y974409D02*
X1047244Y964567D01*
Y799213D02*
Y964567D01*
X1041339Y312992D02*
X1125984Y397638D01*
X966142Y312992D02*
X1041339D01*
X1212339Y306827D02*
X1374016Y468504D01*
X1108314Y306827D02*
X1212339D01*
X1362205Y433071D02*
X1433071D01*
X1219961Y290827D02*
X1362205Y433071D01*
X1114942Y290827D02*
X1219961D01*
X1358268Y401575D02*
X1476378D01*
X1231520Y274827D02*
X1358268Y401575D01*
X1121569Y274827D02*
X1231520D01*
X1845729Y-123795D02*
X1895162Y-173228D01*
X1988189D01*
X3464567Y685039D02*
X3572047D01*
X2007874Y823026D02*
Y866142D01*
X1922488Y737640D02*
X2007874Y823026D01*
X1922488Y564220D02*
Y737640D01*
X1909449Y551181D02*
X1922488Y564220D01*
X1909449Y468504D02*
Y551181D01*
X1806102Y562559D02*
Y590551D01*
X1736614Y589961D02*
X1737205Y590551D01*
X1596063Y589961D02*
X1736614D01*
X1224803D02*
X1225394Y590551D01*
X1096063Y589961D02*
X1224803D01*
X1365551Y365551D02*
X2048976Y294685D01*
X866142Y102362D02*
Y159449D01*
Y102362D02*
X890016Y78488D01*
X1003685D01*
X1064937Y139740D01*
Y218195D01*
X1121569Y274827D01*
X1032937Y231449D02*
X1108314Y306827D01*
X1032937Y186195D02*
Y231449D01*
X1006191Y159449D02*
X1032937Y186195D01*
X1048937Y224822D02*
X1114942Y290827D01*
X1048937Y155236D02*
Y224822D01*
X988189Y94488D02*
X1048937Y155236D01*
X916142Y119291D02*
Y159449D01*
Y119291D02*
X940945Y94488D01*
X988189D01*
X966142Y159449D02*
X1006191D01*
X2311023Y826772D02*
X2349142Y788654D01*
X2344252Y115906D02*
Y156890D01*
X2311024Y82677D02*
X2344252Y115906D01*
X2279528Y82677D02*
X2311024D01*
X2028593Y-94677D02*
X2170514Y47244D01*
X1947785Y-94677D02*
X2028593D01*
X1912163Y-59055D02*
X1947785Y-94677D01*
X1823622Y-59055D02*
X1912163D01*
X1988189Y155157D02*
X1989921Y156890D01*
X3148433Y233079D02*
X3151575Y236220D01*
X3148433Y26526D02*
Y233079D01*
Y26526D02*
X3168447Y6512D01*
X3216535D01*
X3229520Y19496D01*
Y39559D01*
X3338583Y148622D01*
X3226378Y95472D02*
Y236220D01*
X3188976Y58071D02*
X3226378Y95472D01*
Y236220D02*
Y430118D01*
X3149606Y506890D02*
X3226378Y430118D01*
X3385827Y388779D02*
X3396654D01*
X3667323Y118110D01*
X1862205Y996063D02*
Y1389018D01*
X1933071Y1459884D01*
X752362Y589961D02*
X752953Y590551D01*
X596063Y589961D02*
X752362D01*
X3655512Y1005512D02*
X3656496Y1006496D01*
Y1159449D01*
X3745079Y1015945D02*
X3755512Y1005512D01*
X3745079Y1015945D02*
Y1158465D01*
X3464567Y1669291D02*
X3622047D01*
X3433071Y1775591D02*
X3444882D01*
X3464567Y1755906D01*
Y1669291D02*
Y1755906D01*
X681102Y244488D02*
X766142Y159449D01*
X681102Y244488D02*
Y295276D01*
X1562992Y1574803D02*
X1794291Y1806102D01*
X1956693D01*
X2039366Y1566926D02*
X2049536D01*
X2049539Y1566929D01*
X3177165Y1732284D02*
X3361575D01*
X2492126Y836402D02*
X2507874Y820654D01*
X2633247D01*
X2902260Y1089667D01*
Y1152586D01*
X2906953Y1157279D01*
Y1181303D01*
X2902260Y1185996D02*
X2906953Y1181303D01*
X2902260Y1185996D02*
Y1448134D01*
X2857638Y1557441D02*
X2938953Y1476126D01*
X2646502Y788654D02*
X2938953Y1081105D01*
X2828638Y1563814D02*
X2922953Y1469499D01*
X2639874Y804654D02*
X2922953Y1087732D01*
Y1469499D01*
X2938953Y1081105D02*
Y1476126D01*
X2814961Y1535433D02*
X2902260Y1448134D01*
X2938650Y1775591D02*
X2973882Y1740359D01*
Y1692754D02*
Y1740359D01*
X2888575Y1607447D02*
X2973882Y1692754D01*
X2888575Y1657480D02*
X2944882Y1713787D01*
Y1728347D01*
X2857638Y1557441D02*
Y1696850D01*
X2839638Y1719862D02*
Y1742126D01*
X2828638Y1708862D02*
X2839638Y1719862D01*
X2828638Y1563814D02*
Y1708862D01*
X2980315Y1549213D02*
Y1634583D01*
X2400310Y818898D02*
X2414554Y804654D01*
X2639874D01*
X2349142Y788654D02*
X2646502D01*
X2796069Y2109443D02*
X2842638Y2062874D01*
X2881575Y2023937D02*
X2905764Y1999748D01*
X2874856Y2023937D02*
X2881575D01*
X2842638Y2056155D02*
X2874856Y2023937D01*
X2842638Y2056155D02*
Y2062874D01*
X2888202Y2039937D02*
X2912391Y2015748D01*
X2881483Y2039937D02*
X2888202D01*
X2858638Y2062783D02*
X2881483Y2039937D01*
X2858638Y2062783D02*
Y2069501D01*
X2825069Y2103070D02*
X2858638Y2069501D01*
X2912391Y2015748D02*
X3614173D01*
X2825069Y2103070D02*
Y2121455D01*
X3759036Y1970748D02*
X3780414Y1992126D01*
X2912136Y1970748D02*
X3759036D01*
X2890758Y1992126D02*
X2912136Y1970748D01*
X2862205Y1952756D02*
X4157480D01*
X2791339Y2023622D02*
X2862205Y1952756D01*
X3780414Y1992126D02*
X3929134D01*
X2870069D02*
X2890758D01*
X2795270Y2066925D02*
X2870069Y1992126D01*
X3626185Y1986748D02*
X3639437Y2000000D01*
X3602161Y1986748D02*
X3626185D01*
X3589161Y1999748D02*
X3602161Y1986748D01*
X2905764Y1999748D02*
X3589161D01*
X3748032Y2000000D02*
Y2000756D01*
X3937008Y1984252D02*
Y1988189D01*
X2841069Y2109697D02*
X2868291Y2082476D01*
X2841069Y2109697D02*
Y2128082D01*
X2814709Y2154443D02*
X2841069Y2128082D01*
X2790439Y2154443D02*
X2814709D01*
X2759843Y2185039D02*
X2790439Y2154443D01*
X2768363Y2138443D02*
X2808081D01*
X2763774Y2133854D02*
X2768363Y2138443D01*
X2808081D02*
X2825069Y2121455D01*
X2465807Y2082476D02*
X2485295Y2062988D01*
X2538165Y2156276D02*
X2614390D01*
X2505378Y2123488D02*
X2538165Y2156276D01*
X2482795Y2123488D02*
X2505378D01*
X2645654Y2187539D02*
Y2198901D01*
X2614390Y2156276D02*
X2645654Y2187539D01*
X2465807Y2106500D02*
X2482795Y2123488D01*
X2465807Y2082476D02*
Y2106500D01*
X2609252Y1375000D02*
X2729753D01*
X2551181Y1582677D02*
X2708661Y1425197D01*
X2594488Y1389764D02*
X2609252Y1375000D01*
X2729753D02*
X2768139Y1413386D01*
X2645654Y2198901D02*
X2659351Y2212598D01*
X2551932Y1583428D02*
Y1641732D01*
X2551181Y1582677D02*
X2551932Y1583428D01*
X1429134Y1480315D02*
X1783465D01*
X2082677Y1574803D02*
Y1624269D01*
X2111677Y1562791D02*
Y1630642D01*
X2094689Y1545803D02*
X2111677Y1562791D01*
X2070665Y1545803D02*
X2094689D01*
X1869878Y1570866D02*
X1877953D01*
X2043307Y1736220D01*
X2157480Y1633858D02*
X2173228Y1618110D01*
X2111677Y1630642D02*
X2195075Y1714039D01*
X2082677Y1624269D02*
X2206439Y1748032D01*
X2241488Y1714039D02*
X2271937Y1744488D01*
X2195075Y1714039D02*
X2241488D01*
X2206439Y1748032D02*
X2212598D01*
X2173228Y1539370D02*
Y1618110D01*
X3153543Y795276D02*
Y1098425D01*
X3094488Y1157480D02*
X3153543Y1098425D01*
X2877953Y1169291D02*
Y1271654D01*
X2779528Y1370079D02*
X2877953Y1271654D01*
X2768139Y1413386D02*
X2783465D01*
X2049539Y1566929D02*
X2070665Y1545803D01*
X3574803Y1165354D02*
Y1302354D01*
D24*
X360748Y1649094D02*
X436305D01*
X510597Y1574803D01*
X1456693D01*
X226378Y1597126D02*
X430433D01*
X504921Y1522638D01*
X464567Y1133557D02*
Y1287520D01*
X445039D02*
X464567D01*
Y1677402D02*
Y1795275D01*
X445709Y1677402D02*
X464567D01*
X2437932Y1389982D02*
Y1744594D01*
Y1389982D02*
X2488819Y1339095D01*
Y1128654D02*
Y1339095D01*
X4397579Y464508D02*
Y582618D01*
X3956693Y23622D02*
X4397579Y464508D01*
X3464567Y23622D02*
X3956693D01*
X4397579Y582618D02*
X4645669Y830709D01*
Y1783465D01*
X448189Y952126D02*
X517323Y1021260D01*
X448189Y222677D02*
Y952126D01*
Y222677D02*
X615748Y55118D01*
X2728962Y2104803D02*
X2750284Y2083481D01*
Y2013496D02*
Y2083481D01*
X2664739Y2104803D02*
X2728962D01*
X2654424Y2094488D02*
X2664739Y2104803D01*
X2911811Y-374016D02*
X3421260D01*
X2834646Y-296850D02*
X2911811Y-374016D01*
X3421260D02*
X3444882Y-350394D01*
X2041598Y537661D02*
Y617478D01*
X1989921Y485984D02*
X2041598Y537661D01*
X2057598Y633478D02*
Y1210263D01*
X2041598Y617478D02*
X2057598Y633478D01*
X2108032Y589961D02*
X2124042Y605971D01*
Y886442D01*
X2122047Y888437D02*
Y1232285D01*
Y888437D02*
X2124042Y886442D01*
X2057598Y1210263D02*
X2211979Y1364643D01*
X2122047Y1232285D02*
X2220468Y1330706D01*
X2263023Y751972D02*
Y877403D01*
X2281023Y759428D02*
Y869947D01*
X2641732Y759842D02*
X3010315Y1128425D01*
X2281023Y759428D02*
X2310609Y729842D01*
X2263023Y751972D02*
X2303153Y711842D01*
X2314763D02*
X2394685Y631921D01*
X2303153Y711842D02*
X2314763D01*
X2322219Y729842D02*
X2348865Y703196D01*
X2310609Y729842D02*
X2322219D01*
X2323036Y759842D02*
X2641732D01*
X2245023Y642402D02*
Y884859D01*
X2281023Y869947D02*
X2446509Y1035433D01*
X2263023Y877403D02*
X2506819Y1121198D01*
X2245023Y642402D02*
X2276575Y610851D01*
X2245023Y884859D02*
X2488819Y1128654D01*
X3358268Y657480D02*
X3464567Y763779D01*
X2968504Y657480D02*
X3358268D01*
X3464567Y763779D02*
Y1281701D01*
X3010315Y1128425D02*
Y1561639D01*
X3003937Y1568017D02*
X3010315Y1561639D01*
X3484567Y1278331D02*
X3525590Y1319354D01*
X3425197Y1321071D02*
X3464567Y1281701D01*
X2698583Y156890D02*
Y246716D01*
X2748347Y296480D01*
X2580472Y156890D02*
X2728347Y304764D01*
X2748347Y296480D02*
Y409039D01*
X2728347Y304764D02*
Y417323D01*
X2748347Y409039D02*
X2976788Y637480D01*
X3366552D01*
X3484567Y755495D01*
X2728347Y417323D02*
X2968504Y657480D01*
X3484567Y755495D02*
Y1278331D01*
X2750284Y2013496D02*
X3010315Y1753465D01*
Y1636032D02*
Y1753465D01*
X3003937Y1629654D02*
X3010315Y1636032D01*
X3003937Y1568017D02*
Y1629654D01*
X2709286Y2061063D02*
X2730275D01*
X2732284Y2059055D01*
X2757354Y2282016D02*
X2799023Y2240347D01*
Y2240157D02*
Y2240347D01*
X2700787Y2251968D02*
X2724409D01*
X2688740Y2264016D02*
X2700787Y2251968D01*
X2712598Y1651471D02*
Y1940945D01*
X2669907Y1939449D02*
X2687480Y1921875D01*
Y1897022D02*
Y1921875D01*
X2604614Y1909449D02*
X2657480D01*
X2612070Y1927449D02*
X2633054D01*
X2645054Y1939449D01*
X2588866Y1789653D02*
X2602362Y1803150D01*
X2516601Y1771653D02*
X2637795D01*
X2742598Y1634474D02*
Y1953371D01*
Y1634474D02*
X2778032Y1599041D01*
X2732284Y1963686D02*
Y2059055D01*
Y1963686D02*
X2742598Y1953371D01*
X2494807Y2094488D02*
X2654424D01*
X2645054Y1939449D02*
X2669907D01*
X2596322Y1943197D02*
X2612070Y1927449D01*
X2585315Y1943197D02*
X2596322D01*
X2555315Y1973197D02*
X2585315Y1943197D01*
X2515551Y1973197D02*
X2555315D01*
X2503551Y1961197D02*
X2515551Y1973197D01*
X2491020Y1961197D02*
X2503551D01*
X2392284Y2059933D02*
X2491020Y1961197D01*
X2392284Y2059933D02*
Y2209646D01*
X2642119Y1392000D02*
X2717891D01*
X2738661Y1412771D01*
X2720472Y1467559D02*
X2738661Y1449370D01*
Y1412771D02*
Y1449370D01*
X2720472Y1516629D02*
X2778032Y1574188D01*
X2720472Y1467559D02*
Y1516629D01*
X2778032Y1574188D02*
Y1599041D01*
X2521932Y1681861D02*
X2527559Y1687488D01*
X2521932Y1629306D02*
Y1681861D01*
Y1629306D02*
X2523622Y1627616D01*
Y1487310D02*
Y1627616D01*
X1941046Y1528803D02*
X2101731D01*
X1935867Y1533983D02*
X1941046Y1528803D01*
X1519685Y1533983D02*
X1935867D01*
X1514693Y1538975D02*
X1519685Y1533983D01*
X2101731Y1528803D02*
X2124833Y1505701D01*
X2043751Y1400643D02*
X2264711D01*
X1928411Y1515983D02*
X2043751Y1400643D01*
X1512229Y1515983D02*
X1928411D01*
X2235338Y1591426D02*
Y1685039D01*
X2132037Y1780716D02*
X2249220D01*
X2191339Y1622741D02*
Y1669291D01*
Y1592999D02*
X2307082Y1477256D01*
X2191339Y1592999D02*
Y1597731D01*
X2191417Y1597810D01*
Y1622663D01*
X2191339Y1622741D02*
X2191417Y1622663D01*
X2235338Y1591426D02*
X2291334Y1535430D01*
X2124833Y1505701D02*
X2234457D01*
X2263780Y1476378D01*
X2608925Y1425194D02*
X2642119Y1392000D01*
X2625377Y1638164D02*
X2639291D01*
X2575559Y1687982D02*
X2625377Y1638164D01*
X2575559Y1687982D02*
Y1707370D01*
X2547441Y1735488D02*
X2575559Y1707370D01*
X2527311Y1735488D02*
X2547441D01*
X2635495Y1602591D02*
X2739929D01*
X2557559Y1680526D02*
X2635495Y1602591D01*
X2557559Y1680526D02*
Y1699915D01*
X2639291Y1638164D02*
X2656865Y1620591D01*
X2681718D01*
X2528702Y1868936D02*
X2535433Y1862205D01*
X2488230Y1850936D02*
X2531512Y1807653D01*
X2480774Y1832936D02*
X2524057Y1789653D01*
X2473318Y1814936D02*
X2516601Y1771653D01*
X2465863Y1796936D02*
X2527311Y1735488D01*
X2458407Y1778936D02*
X2519855Y1717488D01*
X2440656Y1778936D02*
X2458407D01*
X2448112Y1796936D02*
X2465863D01*
X2455567Y1814936D02*
X2473318D01*
X2463023Y1832936D02*
X2480774D01*
X2470479Y1850936D02*
X2488230D01*
X2481458Y1868936D02*
X2528702D01*
X2187228Y2083276D02*
X2455567Y1814936D01*
X2345441Y1899606D02*
X2448112Y1796936D01*
X2213118Y2137276D02*
X2481458Y1868936D01*
X2202139Y2119276D02*
X2470479Y1850936D01*
X2194684Y2101276D02*
X2463023Y1832936D01*
X2357387Y1862205D02*
X2440656Y1778936D01*
X2437932Y1744594D02*
X2442274Y1748936D01*
X2473932Y1437620D02*
X2523622Y1487310D01*
X2455932Y1464192D02*
X2477003Y1485263D01*
X2455932Y1405312D02*
Y1464192D01*
Y1405312D02*
X2506819Y1354425D01*
X2473932Y1412768D02*
X2524819Y1361881D01*
X2473932Y1412768D02*
Y1437620D01*
X2519855Y1717488D02*
X2539985D01*
X2531512Y1807653D02*
X2543874D01*
X2524057Y1789653D02*
X2588866D01*
X2477003Y1485263D02*
Y1717913D01*
X2539985Y1717488D02*
X2557559Y1699915D01*
X2130385Y1779064D02*
X2132037Y1780716D01*
X2129921Y1779528D02*
X2130385Y1779064D01*
X1964567Y1614173D02*
X2129921Y1779528D01*
X2503932Y1425194D02*
X2608925D01*
X2404877Y1221729D02*
X2414008Y1212598D01*
X2524819Y1111433D02*
Y1361881D01*
X2506819Y1121198D02*
Y1354425D01*
X2448819Y1035433D02*
X2524819Y1111433D01*
X2404877Y1221729D02*
Y1412753D01*
X3807087Y1110236D02*
Y1133858D01*
X3779528Y1082677D02*
X3807087Y1110236D01*
X2374011Y1181107D02*
Y1374013D01*
X2326011Y1452878D02*
X2337082Y1463949D01*
X2344011Y1445422D02*
X2355082Y1456493D01*
X2344011Y1350932D02*
Y1445422D01*
X2311367Y1318288D02*
X2344011Y1350932D01*
X2326011Y1358388D02*
Y1452878D01*
X2307702Y1340079D02*
X2326011Y1358388D01*
X2355082Y1495477D02*
X2360598Y1500993D01*
X2355082Y1456493D02*
Y1495477D01*
X2360598Y1500993D02*
X2375399D01*
X1939488Y388307D02*
Y730598D01*
X2331819Y1494065D02*
Y1514640D01*
Y1494065D02*
X2337082Y1488801D01*
Y1463949D02*
Y1488801D01*
X2282849Y1340079D02*
X2307702D01*
X2400310Y1417320D02*
X2404877Y1412753D01*
X2397633Y1417320D02*
X2400310D01*
X2409449Y1212598D02*
X2414008D01*
X2307082Y1476375D02*
Y1477256D01*
X1939488Y730598D02*
X2039598Y830709D01*
Y1217719D01*
X2204523Y1382643D01*
X2244287D01*
X2265276Y1361655D01*
Y1357652D02*
Y1361655D01*
Y1357652D02*
X2282849Y1340079D01*
X2247276Y1350197D02*
X2279184Y1318288D01*
X2247276Y1350197D02*
Y1354199D01*
X2236831Y1364643D02*
X2247276Y1354199D01*
X2211979Y1364643D02*
X2236831D01*
X2279184Y1318288D02*
X2311367D01*
X2264711Y1400643D02*
X2295276Y1370079D01*
X1989921Y374016D02*
Y485984D01*
X2276575Y569071D02*
Y610851D01*
X2210103Y502599D02*
X2276575Y569071D01*
X2394685D02*
Y631921D01*
X2344252Y518638D02*
X2394685Y569071D01*
X2420450Y703196D02*
X2512795Y610851D01*
Y514866D02*
Y610851D01*
X2146197Y502599D02*
X2210103D01*
X2348865Y703196D02*
X2420450D01*
X2462362Y156890D02*
Y464433D01*
X2512795Y514866D01*
X2446509Y1035433D02*
X2448819D01*
X2344252Y156890D02*
Y518638D01*
X1982654Y2119276D02*
X2202139D01*
X1900654Y2101276D02*
X2194684D01*
X1740543Y2083276D02*
X2187228D01*
X2196850Y1899606D02*
X2345441D01*
X2248032Y1862205D02*
X2357387D01*
X2213988Y169043D02*
X2226142Y156890D01*
X2213988Y169043D02*
Y270264D01*
X2217520Y273795D01*
Y330409D01*
X2116653Y431275D02*
X2217520Y330409D01*
X2116653Y431275D02*
Y473055D01*
X2146197Y502599D01*
X2669291Y1650591D02*
Y1878833D01*
X2681718Y1620591D02*
X2712598Y1651471D01*
X2669291Y1878833D02*
X2687480Y1897022D01*
X2588866Y1925197D02*
X2604614Y1909449D01*
X2543874Y1807653D02*
X2566929Y1830709D01*
X2482149Y1893701D02*
X2569370D01*
X2476108Y1925197D02*
X2535433D01*
X2547860Y1955197D02*
X2577860Y1925197D01*
X2523007Y1955197D02*
X2547860D01*
X2511007Y1943197D02*
X2523007Y1955197D01*
X2483564Y1943197D02*
X2511007D01*
X2292284Y2134478D02*
X2483564Y1943197D01*
X615748Y55118D02*
X791339D01*
X517323Y1021260D02*
Y1080802D01*
X816142Y79921D02*
Y159449D01*
X791339Y55118D02*
X816142Y79921D01*
X464567Y1133557D02*
X517323Y1080802D01*
X464567Y1795275D02*
X824567Y2155276D01*
X1337913D01*
X1392284Y2209646D01*
X2739929Y1602591D02*
X2748032Y1594488D01*
X2220574Y2155276D02*
X2482149Y1893701D01*
X2228030Y2173276D02*
X2476108Y1925197D01*
X1939826Y1933071D02*
X1968504D01*
X1898701Y1974197D02*
X1939826Y1933071D01*
X2116142Y1899606D02*
X2157480Y1940945D01*
X1926285Y1899606D02*
X2116142D01*
X1900694Y1925197D02*
X1926285Y1899606D01*
X1896162Y1925197D02*
X1900694D01*
X1937008Y1877953D02*
X2003937Y1811024D01*
X1905512Y1877953D02*
X1937008D01*
X1417323Y1625984D02*
Y1751968D01*
Y1625984D02*
X1428504Y1614803D01*
X1473261D01*
X1496693Y1591372D01*
Y1531519D02*
Y1591372D01*
X1417323Y1751968D02*
Y1815945D01*
X1338583Y1894685D02*
X1417323Y1815945D01*
X1496693Y1531519D02*
X1512229Y1515983D01*
X1358268Y2035433D02*
X1514693Y1879008D01*
Y1538975D02*
Y1879008D01*
X1165354Y2035433D02*
X1358268D01*
X1023622Y1941929D02*
X1070866Y1894685D01*
X3207702Y2232284D02*
X3254199Y2278780D01*
X2842520Y2232284D02*
X3207702D01*
X2546654Y2264016D02*
X2688740D01*
X2486740Y2282016D02*
X2757354D01*
X2484252Y2279528D02*
X2486740Y2282016D01*
X2492284Y2209646D02*
X2546654Y2264016D01*
X3326471Y2263780D02*
X4311024D01*
X3311471Y2278780D02*
X3326471Y2263780D01*
X3254199Y2278780D02*
X3311471D01*
X4311024Y2263780D02*
X4330709Y2244095D01*
X1062165Y2279528D02*
X2484252D01*
X992284Y2209646D02*
X1062165Y2279528D01*
X3444882Y-350394D02*
Y3937D01*
X3464567Y23622D01*
X4614173Y1814961D02*
X4645669Y1783465D01*
X4350394Y1814961D02*
X4614173D01*
X4330709Y1834646D02*
X4350394Y1814961D01*
X4330709Y1834646D02*
Y2244095D01*
X2577860Y1925197D02*
X2588866D01*
X2292284Y2134478D02*
Y2209646D01*
X2192284Y2173276D02*
X2228030D01*
X2192284D02*
Y2209646D01*
X2146654Y2155276D02*
X2220574D01*
X2064654Y2137276D02*
X2213118D01*
X1992284Y2209646D02*
X2064654Y2137276D01*
X1892284Y2209646D02*
X1982654Y2119276D01*
X1792284Y2209646D02*
X1900654Y2101276D01*
X1692284Y2131535D02*
X1740543Y2083276D01*
X2092284Y2209646D02*
X2146654Y2155276D01*
X1692284Y2131535D02*
Y2209646D01*
X1070866Y1894685D02*
X1338583D01*
X504921Y1522638D02*
X1365158D01*
D25*
X3361575Y1650591D02*
Y1808071D01*
Y1217520D02*
Y1375000D01*
D26*
X3904508Y1056516D02*
X3955512Y1005512D01*
X3904508Y1056516D02*
Y1398642D01*
X3361575Y1507244D02*
Y1628748D01*
X3070866Y1216535D02*
X3361575Y1507244D01*
D27*
X2074213Y452165D02*
Y463141D01*
X2163465Y552393D01*
Y835827D01*
X2051181Y-236220D02*
X2222835D01*
X1988189Y-173228D02*
X2051181Y-236220D01*
X1988189Y-62992D02*
Y155157D01*
X2448819Y1169301D02*
Y1318280D01*
X2444877Y1165359D02*
X2448819Y1169301D01*
X2444877Y1165359D02*
X2444882Y1165354D01*
X2163465Y835827D02*
X2444882Y1117244D01*
Y1165354D01*
X2048976Y452165D02*
X2074213D01*
X2167087Y136063D02*
Y294685D01*
Y136063D02*
X2422835Y-119685D01*
Y-236220D02*
Y-119685D01*
X2048976Y294685D02*
Y452165D01*
Y294685D02*
X2167087D01*
D28*
X3983307Y780118D02*
X3983386Y780039D01*
X1878465Y71732D02*
X1878543Y71811D01*
D29*
X1989921Y156890D02*
D03*
X2108032D02*
D03*
X2226142D02*
D03*
X2344252D02*
D03*
X2462362D02*
D03*
X2580472D02*
D03*
X2698583D02*
D03*
X2048976Y294685D02*
D03*
X2167087D02*
D03*
X2285197D02*
D03*
X2403307D02*
D03*
X2521417D02*
D03*
X2639528D02*
D03*
X2048976Y452165D02*
D03*
X2167087D02*
D03*
X2285197D02*
D03*
X2403307D02*
D03*
X2521417D02*
D03*
X2639528D02*
D03*
X1989921Y589961D02*
D03*
X2108032D02*
D03*
X2226142D02*
D03*
X2344252D02*
D03*
X2462362D02*
D03*
X2580472D02*
D03*
X2698583D02*
D03*
D30*
X692284Y2209646D02*
D03*
X792284D02*
D03*
X892284D02*
D03*
X992284D02*
D03*
X1092284D02*
D03*
X1192284D02*
D03*
X1292284D02*
D03*
X1392284D02*
D03*
X1492284D02*
D03*
X1592284D02*
D03*
X1692284D02*
D03*
X1792284D02*
D03*
X1892284D02*
D03*
X1992284D02*
D03*
X2092284D02*
D03*
X2192284D02*
D03*
X2292284D02*
D03*
X2392284D02*
D03*
X2492284D02*
D03*
X2592284D02*
D03*
X4232283Y725197D02*
D03*
X4114173D02*
D03*
X1823622Y-177165D02*
D03*
Y-59055D02*
D03*
X3754449Y1005512D02*
D03*
X3854449D02*
D03*
X3954449D02*
D03*
X4054449D02*
D03*
X4154449D02*
D03*
X4254449D02*
D03*
Y2103937D02*
D03*
X4154449D02*
D03*
X4054449D02*
D03*
X3954449D02*
D03*
X3854449D02*
D03*
X3754449D02*
D03*
X3654449D02*
D03*
D31*
X3361575Y1808071D02*
D03*
Y1217520D02*
D03*
Y1375000D02*
D03*
Y1650591D02*
D03*
D32*
X3795984Y597362D02*
D03*
X3895984D02*
D03*
X1595984D02*
D03*
X1495984D02*
D03*
X1095984D02*
D03*
X995984D02*
D03*
X595984D02*
D03*
X495984D02*
D03*
D33*
X4543307Y1507874D02*
D03*
X1161614Y178150D02*
D03*
X147441Y1228740D02*
D03*
X3987008Y266142D02*
D03*
D34*
X4173228Y555118D02*
D03*
X1653543Y-118110D02*
D03*
D35*
X3654449Y1005512D02*
D03*
D36*
X2834646Y-196850D02*
D03*
Y-96850D02*
D03*
Y-296850D02*
D03*
D37*
X2222835Y-236220D02*
D03*
D38*
X2322835D02*
D03*
X2422835D02*
D03*
D39*
X360748Y1557126D02*
D03*
X545276Y1439961D02*
D03*
X360748Y1649094D02*
D03*
X464567Y1287520D02*
D03*
Y1677402D02*
D03*
X1917323Y1687913D02*
D03*
X1661417Y1187109D02*
D03*
X1708661Y901575D02*
D03*
X2724409Y726517D02*
D03*
X2962199Y824961D02*
D03*
X2259370Y1172480D02*
D03*
X2507711Y992126D02*
D03*
X1494402Y1300706D02*
D03*
X1748032Y1607447D02*
D03*
X1669291Y1939449D02*
D03*
X795276Y2017409D02*
D03*
X586409Y2169291D02*
D03*
X744095Y1677165D02*
D03*
X625984Y1430276D02*
D03*
X303150Y1208661D02*
D03*
X196850Y929134D02*
D03*
X598425Y444882D02*
D03*
X370079Y515748D02*
D03*
X671009Y110236D02*
D03*
X1836510Y231449D02*
D03*
X1473267Y-122047D02*
D03*
X2599952Y-94266D02*
D03*
X2210103Y-110608D02*
D03*
X3000000Y468504D02*
D03*
X3015748Y208661D02*
D03*
X3483554Y118110D02*
D03*
X4322835Y491011D02*
D03*
X3876249Y830709D02*
D03*
X4318898Y1176489D02*
D03*
X4236221Y1610236D02*
D03*
X3744095Y1346529D02*
D03*
X3751811Y1610236D02*
D03*
X3184886Y1475493D02*
D03*
X3062992Y1866142D02*
D03*
X3471850Y2210669D02*
D03*
X3142795Y2128494D02*
D03*
X2912992Y2160709D02*
D03*
X3904508Y1398642D02*
D03*
X3070866Y1216535D02*
D03*
X2897638Y2078937D02*
D03*
X2448819Y1318280D02*
D03*
X2444882Y1165354D02*
D03*
X1417323Y1751968D02*
D03*
X1023622Y1941929D02*
D03*
X1338583Y1894685D02*
D03*
X1365158Y1522638D02*
D03*
X1456693Y1574803D02*
D03*
D40*
X3488621Y1398642D02*
D03*
X1476249Y1437008D02*
D03*
X2370074Y1574800D02*
D03*
X1880229Y406481D02*
D03*
X1244094Y496063D02*
D03*
X913386Y688976D02*
D03*
X3137795Y1195507D02*
D03*
X3275591Y1207399D02*
D03*
X2012796Y1615618D02*
D03*
X1814961Y1372695D02*
D03*
X1993519Y1358268D02*
D03*
X2139577Y1451526D02*
D03*
X1357072Y1692913D02*
D03*
X1149606Y1787402D02*
D03*
X1057721Y1308164D02*
D03*
X2551022Y2125984D02*
D03*
X2669286Y2062988D02*
D03*
X2429134Y2106299D02*
D03*
X2571089Y1293802D02*
D03*
X2781152Y1177483D02*
D03*
X2626142Y1178010D02*
D03*
X3476378Y531496D02*
D03*
X3620079Y492126D02*
D03*
X3346457Y-118110D02*
D03*
X3327802Y322835D02*
D03*
X3188976Y275591D02*
D03*
X3192913Y110236D02*
D03*
X3276386Y39559D02*
D03*
X3185039Y-338583D02*
D03*
X1578740Y837142D02*
D03*
X1299213D02*
D03*
X1448228Y637795D02*
D03*
X1389764Y1023622D02*
D03*
X787402Y1328740D02*
D03*
X1425197Y1480315D02*
D03*
X1082677Y1070866D02*
D03*
X2074213Y524212D02*
D03*
X2094042Y874016D02*
D03*
X1787402Y409449D02*
D03*
X1614173Y1299213D02*
D03*
X1216535Y964567D02*
D03*
X1047244Y799213D02*
D03*
X1037402Y974409D02*
D03*
X874016Y866142D02*
D03*
X1125984Y397638D02*
D03*
X3397638Y484252D02*
D03*
X1535433Y110236D02*
D03*
X3397638Y531496D02*
D03*
X3572047Y685039D02*
D03*
X3464567D02*
D03*
X2007874Y866142D02*
D03*
X1909449Y468504D02*
D03*
X1365551Y365551D02*
D03*
X1433071Y433071D02*
D03*
X1476378Y401575D02*
D03*
X1374016Y468504D02*
D03*
X2323036Y759842D02*
D03*
X2311023Y826772D02*
D03*
X2279528Y82677D02*
D03*
X2170514Y47244D02*
D03*
X1862205Y996063D02*
D03*
X1933071Y1459884D02*
D03*
X3656496Y1159449D02*
D03*
X3745079Y1158465D02*
D03*
X3177165Y1732284D02*
D03*
X3622047Y1669291D02*
D03*
X3433071Y1775591D02*
D03*
X3464567Y1669291D02*
D03*
X681102Y295276D02*
D03*
X1562992Y1574803D02*
D03*
X1956693Y1806102D02*
D03*
X2039366Y1566926D02*
D03*
X3525590Y1319354D02*
D03*
X3425197Y1321071D02*
D03*
X2400310Y818898D02*
D03*
X2492126Y836402D02*
D03*
X2814961Y1535433D02*
D03*
X2938650Y1775591D02*
D03*
X2888575Y1657480D02*
D03*
X2944882Y1728347D02*
D03*
X2980315Y1648459D02*
D03*
X2857638Y1696850D02*
D03*
X2839638Y1742126D02*
D03*
X2888575Y1607447D02*
D03*
X2980315Y1549213D02*
D03*
X3614173Y2015748D02*
D03*
X3748032Y2000756D02*
D03*
X3937008Y1988189D02*
D03*
X4157480Y1952756D02*
D03*
X2709286Y2061063D02*
D03*
X2763774Y2133854D02*
D03*
X2759843Y2185039D02*
D03*
X2799023Y2240157D02*
D03*
X2724409Y2251968D02*
D03*
X2795270Y2066925D02*
D03*
X2796069Y2109443D02*
D03*
X2712598Y1940945D02*
D03*
X2657480Y1909449D02*
D03*
X2602362Y1803150D02*
D03*
X2791339Y2023622D02*
D03*
X2494807Y2094488D02*
D03*
X2708661Y1425197D02*
D03*
X2659351Y2212598D02*
D03*
X2551932Y1641732D02*
D03*
X1783465Y1480315D02*
D03*
X2082677Y1574803D02*
D03*
X1869878Y1570866D02*
D03*
X2043307Y1736220D02*
D03*
X2157480Y1633858D02*
D03*
X2235338Y1685039D02*
D03*
X2212598Y1748032D02*
D03*
X2191339Y1669291D02*
D03*
X2173228Y1539370D02*
D03*
X3153543Y795276D02*
D03*
X3094488Y1157480D02*
D03*
X2877953Y1169291D02*
D03*
X2779528Y1370079D02*
D03*
X2783465Y1413386D02*
D03*
X2442274Y1748936D02*
D03*
X2477003Y1717913D02*
D03*
X2527559Y1687488D02*
D03*
X2271937Y1744488D02*
D03*
X2249220Y1780716D02*
D03*
X3574803Y1157480D02*
D03*
Y1302354D02*
D03*
X2503932Y1425194D02*
D03*
X2594488Y1389764D02*
D03*
X3807087Y1145669D02*
D03*
X3779528Y1082677D02*
D03*
X2374011Y1181107D02*
D03*
Y1374013D02*
D03*
X2397633Y1417320D02*
D03*
X2375399Y1500993D02*
D03*
X2409449Y1212598D02*
D03*
X2291334Y1535430D02*
D03*
X2307082Y1476375D02*
D03*
X2263780Y1476378D02*
D03*
X2331819Y1514640D02*
D03*
X1940945Y397638D02*
D03*
X2220468Y1330706D02*
D03*
X2295276Y1370079D02*
D03*
X1989921Y374016D02*
D03*
X2248032Y1862205D02*
D03*
X2669291Y1650591D02*
D03*
X2637795Y1771653D02*
D03*
X2566929Y1830709D02*
D03*
X2535433Y1862205D02*
D03*
Y1925197D02*
D03*
X1964567Y1614173D02*
D03*
X2748032Y1586614D02*
D03*
X2196850Y1899606D02*
D03*
X1968504Y1933071D02*
D03*
X1898701Y1974197D02*
D03*
X2157480Y1940945D02*
D03*
X2003937Y1811024D02*
D03*
X1905512Y1877953D02*
D03*
X1896162Y1925197D02*
D03*
X1165354Y2035433D02*
D03*
X2842520Y2232284D02*
D03*
X2569370Y1893701D02*
D03*
%TF.MD5,aad13882953fff60fab8e09d08f216d6*%
M02*
