%TF.GenerationSoftware,Altium Limited,Altium Designer,18.1.9 (240)*%
G04 Layer_Physical_Order=2*
G04 Layer_Color=16711680*
%FSLAX26Y26*%
%MOIN*%
%TF.FileFunction,Copper,L2,Bot,Signal*%
%TF.Part,Single*%
G01*
G75*
%TA.AperFunction,SMDPad,CuDef*%
%ADD15R,0.053150X0.045276*%
%ADD19R,0.045276X0.053150*%
%ADD21R,0.031496X0.035433*%
%ADD22R,0.070866X0.039370*%
%TA.AperFunction,Conductor*%
%ADD23C,0.008000*%
%ADD24C,0.010000*%
%ADD26C,0.015000*%
%TA.AperFunction,ComponentPad*%
%ADD29C,0.070866*%
%ADD30C,0.078740*%
%ADD31R,0.055118X0.055118*%
%ADD32C,0.058268*%
%TA.AperFunction,ViaPad*%
%ADD33C,0.165354*%
%TA.AperFunction,ComponentPad*%
%ADD34C,0.118110*%
%ADD35R,0.078740X0.078740*%
%ADD36C,0.039370*%
%ADD37R,0.059055X0.059055*%
%ADD38C,0.059055*%
%TA.AperFunction,ViaPad*%
%ADD39C,0.050000*%
%ADD40C,0.030000*%
%TA.AperFunction,SMDPad,CuDef*%
%ADD41R,0.035433X0.031496*%
%ADD42O,0.057087X0.023622*%
%ADD43R,0.055118X0.051181*%
%ADD44R,0.039370X0.035433*%
%ADD45R,0.037402X0.033465*%
%ADD46R,0.051181X0.043307*%
%ADD47R,0.035433X0.039370*%
%ADD48O,0.064961X0.019685*%
%ADD49R,0.023622X0.039370*%
%ADD50R,0.053150X0.011811*%
%ADD51R,0.011811X0.053150*%
%ADD52R,0.033465X0.037402*%
D15*
X944882Y1727362D02*
D03*
Y1658465D02*
D03*
X3206245Y1203740D02*
D03*
Y1134842D02*
D03*
X1417323Y1963583D02*
D03*
Y1894685D02*
D03*
X3661417Y792323D02*
D03*
Y861221D02*
D03*
X1803150Y954724D02*
D03*
Y1023622D02*
D03*
X2019685Y945866D02*
D03*
Y1014764D02*
D03*
X3228347Y792323D02*
D03*
Y861221D02*
D03*
X3385827Y-270669D02*
D03*
Y-201772D02*
D03*
X2830709Y957677D02*
D03*
Y1026575D02*
D03*
X2381890Y941929D02*
D03*
Y1010827D02*
D03*
X822835Y1060039D02*
D03*
Y1128937D02*
D03*
X1019685Y1132874D02*
D03*
Y1063976D02*
D03*
X1618110Y953740D02*
D03*
Y1022638D02*
D03*
X1614173Y201772D02*
D03*
Y270669D02*
D03*
D19*
X2136811Y1811024D02*
D03*
X2067913D02*
D03*
X3971457Y1220472D02*
D03*
X3902559D02*
D03*
X3587598Y1889764D02*
D03*
X3656496D02*
D03*
X1969488Y1992126D02*
D03*
X2038386D02*
D03*
X3587599Y236220D02*
D03*
X3656496D02*
D03*
X3813976Y1220472D02*
D03*
X3745079D02*
D03*
X3587599D02*
D03*
X3656496D02*
D03*
X4050197Y1889764D02*
D03*
X3981299D02*
D03*
X4247047D02*
D03*
X4178150D02*
D03*
X4099409Y1220472D02*
D03*
X4168307D02*
D03*
X3853347Y1889764D02*
D03*
X3784449D02*
D03*
D21*
X3488189Y1358268D02*
D03*
X3525590Y1437008D02*
D03*
X3450787D02*
D03*
D22*
X3149606Y-291339D02*
D03*
Y-181102D02*
D03*
X1377953Y181102D02*
D03*
Y291339D02*
D03*
X629921Y1023622D02*
D03*
Y1133858D02*
D03*
X1216535Y1019685D02*
D03*
Y1129921D02*
D03*
D23*
X360748Y1557126D02*
Y1649094D01*
X464567Y1287520D02*
Y1677402D01*
X2370074Y1574800D02*
X2377378D01*
X2393701Y1591122D01*
X2633265Y2158488D02*
X2733291D01*
X2568898Y2094121D02*
X2633265Y2158488D01*
X2639892Y2142488D02*
X2755140D01*
X2590362Y2092959D02*
X2639892Y2142488D01*
X2646519Y2126488D02*
X2730128D01*
X2608286Y2088255D02*
X2646519Y2126488D01*
X2653147Y2110488D02*
X2723500D01*
X2624286Y2081628D02*
X2653147Y2110488D01*
X2659774Y2094488D02*
X2716873D01*
X2640286Y2075000D02*
X2659774Y2094488D01*
X2667323Y2061025D02*
X2669286Y2062988D01*
X2640286Y2050976D02*
X2647638Y2043624D01*
Y1998031D02*
Y2043624D01*
X2624286Y2044349D02*
X2629732Y2038902D01*
Y1998031D02*
Y2038902D01*
X2608286Y2037721D02*
X2610047Y2035960D01*
Y1998031D02*
Y2035960D01*
X2640286Y2050976D02*
Y2075000D01*
X2624286Y2044349D02*
Y2081628D01*
X2608286Y2037721D02*
Y2088255D01*
X2590362Y1999811D02*
Y2092959D01*
X3955512Y2093307D02*
Y2103937D01*
X2733291Y2158488D02*
X2759843Y2185039D01*
X2755140Y2142488D02*
X2763774Y2133854D01*
X2730128Y2126488D02*
X2751762Y2104854D01*
X2723500Y2110488D02*
X2745135Y2088854D01*
X2716873Y2094488D02*
X2738507Y2072854D01*
X2521417Y1272638D02*
X2549925D01*
X2571089Y1293802D01*
X3920472Y531496D02*
X4114173Y725197D01*
X3476378Y531496D02*
X3920472D01*
X3426638Y-229858D02*
Y584118D01*
X3582677Y740158D01*
X3620079Y381102D02*
Y492126D01*
X3587599Y348622D02*
X3620079Y381102D01*
X3318520Y-118110D02*
X3346457D01*
X3277370Y-159260D02*
X3318520Y-118110D01*
X3277370Y-219537D02*
Y-159260D01*
Y-219537D02*
X3307087Y-249254D01*
Y-273622D02*
Y-249254D01*
X3385827Y-270669D02*
X3426638Y-229858D01*
X3236220Y322835D02*
X3327802D01*
X3188976Y275591D02*
X3236220Y322835D01*
X3192913Y110236D02*
X3205709D01*
X3276386Y39559D01*
X3185039Y-338583D02*
X3242126D01*
X3307087Y-273622D01*
X1389764Y846457D02*
Y1023622D01*
X1342520Y799213D02*
X1389764Y846457D01*
X2094042Y837142D02*
X2101916Y845016D01*
X1578740Y837142D02*
X2094042D01*
X1045732D02*
X1299213D01*
X1342520Y458988D02*
Y799213D01*
X1448228Y637795D02*
X1496063Y589961D01*
X1342520Y458988D02*
X1505716Y295791D01*
Y252904D02*
Y295791D01*
Y252904D02*
X1535433Y223187D01*
Y198819D02*
Y223187D01*
X1442913Y1023622D02*
X1468504Y1049213D01*
X1389764Y1023622D02*
X1442913D01*
X787402Y1328740D02*
Y1372047D01*
X789370Y1446850D02*
X858268Y1377953D01*
Y1164370D02*
Y1377953D01*
X822835Y1128937D02*
X858268Y1164370D01*
X1212787Y1289321D02*
Y1342470D01*
X1350632Y1480315D01*
X1128748Y1282291D02*
X1205758D01*
X1350632Y1480315D02*
X1425197D01*
X1019685Y1173228D02*
X1128748Y1282291D01*
X1205758D02*
X1212787Y1289321D01*
X1383063Y1394874D02*
X1562992Y1574803D01*
X1353297Y1394874D02*
X1383063D01*
X1082677Y1124254D02*
X1353297Y1394874D01*
X1082677Y1070866D02*
Y1124254D01*
X2514724Y524212D02*
X2580472Y589961D01*
X2074213Y524212D02*
X2514724D01*
X1476378Y401575D02*
X1730495D01*
X2112681Y829016D02*
X2139437Y855772D01*
X2404448D01*
X1730495Y401575D02*
X2126692Y797772D01*
X1735226Y433071D02*
X2115171Y813016D01*
X1744095Y464567D02*
X2108543Y829016D01*
X2126692Y797772D02*
X2341079D01*
X2133065Y826772D02*
X2311023D01*
X2119309Y813016D02*
X2133065Y826772D01*
X2115171Y813016D02*
X2119309D01*
X2108543Y829016D02*
X2112681D01*
X2123042Y866142D02*
X2128672Y871772D01*
X2123042Y862004D02*
Y866142D01*
X2106054Y845016D02*
X2123042Y862004D01*
X2101916Y845016D02*
X2106054D01*
X2094042Y874016D02*
Y1128572D01*
X2085630Y1136984D02*
X2094042Y1128572D01*
X2085630Y1136984D02*
X2104772Y1156126D01*
X2278354Y1045465D02*
X2413435D01*
X2173228Y1150591D02*
X2278354Y1045465D01*
X2413435D02*
X2420465Y1038435D01*
X2104772Y1156126D02*
Y1257226D01*
X2068108Y1293890D02*
X2104772Y1257226D01*
X1987606Y1293890D02*
X2068108D01*
X1929134Y1352362D02*
X1987606Y1293890D01*
X2610220Y501599D02*
X2698583Y589961D01*
X2382831Y501599D02*
X2610220D01*
X2353874Y472641D02*
X2382831Y501599D01*
X2353874Y450934D02*
Y472641D01*
X2305673Y402732D02*
X2353874Y450934D01*
X2018217Y386732D02*
X2337874D01*
X1951315Y426638D02*
X1978311D01*
X2018217Y386732D01*
X2028501Y402732D02*
X2305673D01*
X1988595Y442638D02*
X2028501Y402732D01*
X1974685Y442638D02*
X1988595D01*
X1938449Y478874D02*
X1974685Y442638D01*
X2337874Y386732D02*
X2403307Y452165D01*
X1938449Y478874D02*
Y480516D01*
X1921461Y497504D02*
X1938449Y480516D01*
X1897437Y497504D02*
X1921461D01*
X1809382Y409449D02*
X1897437Y497504D01*
X1787402Y409449D02*
X1809382D01*
X1909449Y468504D02*
X1951315Y426638D01*
X1614173Y1312008D02*
Y1352362D01*
X2231654Y922323D02*
Y980315D01*
X2181102Y871772D02*
X2231654Y922323D01*
X2128672Y871772D02*
X2181102D01*
X822835Y1060039D02*
X1045732Y837142D01*
X1047244Y425197D02*
Y799213D01*
X681102Y570866D02*
X874016Y866142D01*
X905512Y1106299D02*
X1037402Y974409D01*
X905512Y1106299D02*
Y1407480D01*
X1047244Y425197D02*
X1137795Y334646D01*
X1185039D01*
X1299213Y220472D01*
X1410671D01*
X1425386Y205758D01*
Y179271D02*
Y205758D01*
Y179271D02*
X1523421Y81236D01*
X1547445D01*
X1564433Y98224D01*
Y152032D01*
X1614173Y201772D01*
X1125984Y397638D02*
X1333465D01*
X1374016Y464567D02*
X1744095D01*
X1333465Y397638D02*
X1365551Y365551D01*
X2817150Y-163165D02*
X2848599D01*
X2868331Y-183291D02*
X2976378Y-291339D01*
X2868331Y-183291D02*
Y-182898D01*
X2848599Y-163165D02*
X2868331Y-182898D01*
X2976378Y-291339D02*
X3149606D01*
X2626984Y-353331D02*
X2817150Y-163165D01*
X1400575Y-353331D02*
X2626984D01*
X1309284Y-262039D02*
X1400575Y-353331D01*
X2598425Y-337331D02*
X2800961Y-134795D01*
X1463315Y-337331D02*
X2598425D01*
X1377953Y-251969D02*
X1463315Y-337331D01*
X1309284Y-262039D02*
Y7042D01*
X1259955Y56370D02*
X1309284Y7042D01*
X1101110Y56370D02*
X1259955D01*
X996063Y161417D02*
X1101110Y56370D01*
X996063Y161417D02*
Y589961D01*
X3366394Y515496D02*
X3397638Y484252D01*
X3203478Y515496D02*
X3366394D01*
X2800961Y112979D02*
X3203478Y515496D01*
X2800961Y-134795D02*
Y112979D01*
X1377953Y-251969D02*
Y181102D01*
X1535433Y110236D02*
Y198819D01*
X3196851Y531496D02*
X3397638D01*
X2772811Y107457D02*
X3196851Y531496D01*
X2323776Y107457D02*
X2772811D01*
X2274343Y156890D02*
X2323776Y107457D01*
X2226142Y156890D02*
X2274343D01*
X3661417Y774409D02*
Y792323D01*
X3572047Y685039D02*
X3661417Y774409D01*
X2942311Y685039D02*
X3464567D01*
X2660003Y402732D02*
X2942311Y685039D01*
X2619052Y402732D02*
X2660003D01*
X2569619Y452165D02*
X2619052Y402732D01*
X2521417Y452165D02*
X2569619D01*
X2639528D02*
X2830709Y643346D01*
Y957677D01*
X2821850Y1017716D02*
X2830709Y1026575D01*
X2598425Y1017716D02*
X2821850D01*
X2677165Y971218D02*
Y980315D01*
X2613238Y907291D02*
X2677165Y971218D01*
X2343315Y907291D02*
X2613238D01*
X2270291Y980315D02*
X2343315Y907291D01*
X2231654Y980315D02*
X2270291D01*
X2389764Y949803D02*
X2420465D01*
X2375000Y1017716D02*
X2381890Y1010827D01*
X2152913Y1017716D02*
X2375000D01*
X2381890Y941929D02*
X2389764Y949803D01*
X2420465D02*
Y1038435D01*
X2007874Y934055D02*
X2019685Y945866D01*
X2007874Y866142D02*
Y934055D01*
X1216535Y964567D02*
Y1019685D01*
X1735226Y433071D02*
X1735226Y433071D01*
X1433071Y433071D02*
X1735226D01*
X1374016Y464567D02*
Y468504D01*
X2362205Y818898D02*
X2400310D01*
X2341079Y797772D02*
X2362205Y818898D01*
X2404448Y855772D02*
X2423818Y836402D01*
X2492126D01*
X1377953Y291339D02*
X1401575D01*
X1456693Y236220D01*
X1535433Y273622D02*
X1538386Y270669D01*
X1614173D01*
X2205947Y82677D02*
X2271937D01*
X2170514Y47244D02*
X2205947Y82677D01*
X3173228Y-181102D02*
X3228347Y-236220D01*
X3149606Y-181102D02*
X3173228D01*
X3503937Y864173D02*
X3506890Y861221D01*
X3661417D01*
X3228347D02*
X3231299Y864173D01*
X3307087D01*
X3385827Y826772D02*
X3582677D01*
Y740158D02*
Y826772D01*
X3307087Y-198819D02*
X3310039Y-201772D01*
X3385827D01*
X3587599Y236220D02*
Y348622D01*
X3278898Y1134842D02*
X3361575Y1217520D01*
X3206245Y1134842D02*
X3278898D01*
X1981299Y1014764D02*
X2019685D01*
X1937008Y1059055D02*
X1981299Y1014764D01*
X1937008Y1059055D02*
Y1146079D01*
X1954520Y1163591D01*
X2044341D01*
X2088772Y1208022D01*
Y1249459D01*
X2073228Y1265002D02*
X2088772Y1249459D01*
X2073228Y1265002D02*
Y1266142D01*
X1924368Y1271653D02*
X1957628Y1238394D01*
X2049402D01*
X1980315Y1266142D02*
X2073228D01*
X2049402Y1238394D02*
X2059055Y1228740D01*
X1700787Y1271653D02*
X1924368D01*
X2039366Y1566179D02*
Y1566926D01*
X1933071Y1459884D02*
X2039366Y1566179D01*
X1779528Y1234252D02*
X1803150Y1210630D01*
Y1023622D02*
Y1210630D01*
X1618110Y953740D02*
X1700787Y1036417D01*
Y1271653D01*
X1516732Y1124016D02*
X1618110Y1022638D01*
X1468504Y1124016D02*
X1516732D01*
X1346457Y1129921D02*
X1389764Y1086614D01*
X1216535Y1129921D02*
X1346457D01*
X496063Y589961D02*
Y889764D01*
X629921Y1023622D01*
X706693Y1409449D02*
X708661D01*
X661354Y1364110D02*
X706693Y1409449D01*
X661354Y1149543D02*
Y1364110D01*
X981110Y1366937D02*
X984252Y1370079D01*
X1015748Y1063976D02*
X1019685D01*
X981110Y1098614D02*
X1015748Y1063976D01*
X981110Y1098614D02*
Y1366937D01*
X787402Y1446850D02*
X789370D01*
X629921Y1133858D02*
X645669D01*
X661354Y1149543D01*
X3656496Y1159449D02*
Y1220472D01*
X3745079Y1158465D02*
Y1220472D01*
X3905274D02*
X3943848Y1259047D01*
X3902559Y1220472D02*
X3905274D01*
X4055512Y1005512D02*
Y1202600D01*
X3999065Y1259047D02*
X4055512Y1202600D01*
X3943848Y1259047D02*
X3999065D01*
X4155512Y1005512D02*
X4168307Y1018307D01*
Y1220472D01*
X3062992Y1526575D02*
X3177165Y1640748D01*
Y1732284D01*
X3062008Y1756773D02*
X3086497Y1732284D01*
X3177165D01*
X3620079Y1602362D02*
X3622047Y1604331D01*
Y1669291D01*
X3458661Y1602362D02*
X3464567Y1608268D01*
Y1669291D01*
X3404012Y1775591D02*
X3433071D01*
X3394933Y1766512D02*
X3404012Y1775591D01*
X3317242Y1766512D02*
X3394933D01*
X3276981Y1806773D02*
X3317242Y1766512D01*
X3276575Y1806773D02*
X3276981D01*
X2590362Y1502075D02*
Y1545275D01*
X2803150Y1298228D02*
X2819882D01*
X3008962Y1346457D02*
X3075891Y1279528D01*
X2850394Y1346457D02*
X3008962D01*
X2783465Y1413386D02*
X2850394Y1346457D01*
X2616858Y1325787D02*
X2629142Y1338071D01*
X2523319Y1325787D02*
X2616858D01*
X681102Y295276D02*
Y570866D01*
X2039366Y1566926D02*
X2040113D01*
X1956693Y1806102D02*
X2012795Y1862205D01*
X2248032D01*
X3275591Y1592520D02*
Y1655789D01*
X3276575Y1806773D02*
X3322835Y1853033D01*
Y1952994D01*
X3280750Y1995079D02*
X3322835Y1952994D01*
X3279528Y1995079D02*
X3280750D01*
X3275591Y1655789D02*
X3276575Y1656773D01*
X3075891Y1279528D02*
X3357669D01*
X3363575Y1285433D01*
X3046863Y1656773D02*
X3062008D01*
X2951315Y1561225D02*
X3046863Y1656773D01*
X3050867Y1806773D02*
X3062008D01*
X2980315Y1736220D02*
X3050867Y1806773D01*
X2980315Y1648459D02*
Y1736220D01*
X2681409Y1470197D02*
X2727301D01*
X2662905Y1488701D02*
X2681409Y1470197D01*
X2918559Y1464819D02*
X2951315Y1497575D01*
X2732679Y1464819D02*
X2918559D01*
X2727301Y1470197D02*
X2732679Y1464819D01*
X2726052Y1448819D02*
X2948819D01*
X2720673Y1454197D02*
X2726052Y1448819D01*
X2696649Y1454197D02*
X2720673D01*
X2691271Y1448819D02*
X2696649Y1454197D01*
X2680160Y1448819D02*
X2691271D01*
X2948819D02*
X2979331Y1479331D01*
X2656278Y1472701D02*
X2680160Y1448819D01*
X2802002Y1548392D02*
X2814961Y1535433D01*
X2802002Y1548392D02*
Y1607447D01*
X2785433Y1624016D02*
X2802002Y1607447D01*
X2913386Y1913137D02*
Y1942913D01*
Y1913137D02*
X2921260Y1905263D01*
Y1792981D02*
Y1905263D01*
Y1792981D02*
X2938650Y1775591D01*
X2874795Y1643701D02*
X2888575Y1657480D01*
X2944882Y1728347D02*
X2992126Y1775591D01*
X2832205Y1696850D02*
X2857638D01*
X2785433Y1742126D02*
X2839638D01*
X2802002Y1607447D02*
X2888575D01*
X2992126Y1775591D02*
Y1942913D01*
X2785433Y1643701D02*
X2874795D01*
X2951315Y1497575D02*
Y1561225D01*
X2979331Y1548228D02*
X2980315Y1549213D01*
X2979331Y1479331D02*
Y1548228D01*
X2785433Y1663386D02*
X2815199D01*
X2824008Y1672195D01*
Y1688653D02*
X2832205Y1696850D01*
X2824008Y1672195D02*
Y1688653D01*
X3583071Y1894291D02*
X3587598Y1889764D01*
X3583071Y1894291D02*
Y2031496D01*
X3655512Y2103937D01*
X3853347Y1889764D02*
X3855512Y1891929D01*
Y2103937D01*
X4050197Y1889764D02*
X4155512Y1995079D01*
Y2103937D01*
X4247047Y1889764D02*
X4255512Y1898228D01*
Y2103937D01*
X3656496Y1889764D02*
Y1973425D01*
X3614173Y2015748D02*
X3656496Y1973425D01*
X3784449Y1889764D02*
Y1964339D01*
X3748032Y2000756D02*
X3784449Y1964339D01*
X3981299Y1889764D02*
Y1943898D01*
X3937008Y1988189D02*
X3981299Y1943898D01*
X4178150Y1889764D02*
Y1932087D01*
X4157480Y1952756D02*
X4178150Y1932087D01*
X2742107Y2072854D02*
X2791339Y2023622D01*
X2751762Y2104854D02*
X2791481D01*
X2796069Y2109443D01*
X2738507Y2072854D02*
X2742107D01*
X2766124Y2088854D02*
X2788053Y2066925D01*
X2745135Y2088854D02*
X2766124D01*
X2568898Y1998031D02*
Y2094121D01*
X2588583Y1998031D02*
X2590362Y1999811D01*
X2788053Y2066925D02*
X2795270D01*
X2608268Y1998031D02*
X2610047D01*
X2627953D02*
X2629732D01*
X2708661Y1425197D02*
X2763780Y1370079D01*
X2648939Y1456701D02*
X2675276Y1430365D01*
Y1349143D02*
Y1430365D01*
X2667323Y1998031D02*
Y2061025D01*
X2543307Y1641732D02*
X2551932D01*
X2526551Y1658488D02*
X2543307Y1641732D01*
X1019685Y1132874D02*
Y1173228D01*
X1783465Y1480315D02*
Y1484453D01*
X1869878Y1570866D01*
X2082677Y1574803D02*
X2086614Y1570866D01*
X2172081Y1607447D02*
X2174669Y1604858D01*
X2169492D02*
X2172081Y1607447D01*
X2145468Y1604858D02*
X2169492D01*
X2128480Y1621846D02*
X2145468Y1604858D01*
X2128480Y1621846D02*
Y1645870D01*
X2131069Y1648459D01*
X2050034Y1729494D02*
X2131069Y1648459D01*
X2174669Y1604858D02*
X2218796D01*
X2157480Y1633858D02*
X2163913Y1640291D01*
X2218796Y1604858D02*
X2277324Y1663386D01*
X2332677D01*
X2202039Y1758591D02*
X2212598Y1748032D01*
X2163913Y1640291D02*
X2231602D01*
X2264338Y1673027D02*
Y1692239D01*
X2231602Y1640291D02*
X2264338Y1673027D01*
X2086614Y1404528D02*
Y1570866D01*
X2264338Y1692239D02*
X2294540Y1722441D01*
X2332677D01*
X2173228Y1150591D02*
Y1527559D01*
X3080183Y1142354D02*
X3086614Y1148786D01*
X2904890Y1142354D02*
X3080183D01*
X2877953Y1169291D02*
X2904890Y1142354D01*
X3156496Y792323D02*
X3228347D01*
X3153543Y795276D02*
X3156496Y792323D01*
X2763780Y1370079D02*
X2779528D01*
X2437495Y1658488D02*
X2526551D01*
X2371252Y1724731D02*
X2437495Y1658488D01*
X2371252Y1724731D02*
Y1733317D01*
X2368071Y1736498D02*
X2371252Y1733317D01*
X2368071Y1736498D02*
Y1742126D01*
X2332677D02*
X2368071D01*
X1803150Y954724D02*
X1820866D01*
X1862205Y996063D01*
X2271937Y1744488D02*
X2289260Y1761811D01*
X2332677D01*
X2085630Y1403543D02*
X2086614Y1404528D01*
X1929134Y1403543D02*
X2085630D01*
X2202039Y1758591D02*
Y1774548D01*
X2237208Y1809716D01*
X2261232D01*
X2269768Y1801181D01*
X2332677D01*
X3574803Y1207677D02*
X3587599Y1220472D01*
X3574803Y1157480D02*
Y1207677D01*
X3557882Y1285433D02*
X3574803Y1302354D01*
X3363575Y1285433D02*
X3557882D01*
X2593844Y1397638D02*
Y1427206D01*
X2509843Y1511207D02*
X2593844Y1427206D01*
X2509843Y1511207D02*
Y1545275D01*
X2635736Y1456701D02*
X2648939D01*
X2590362Y1502075D02*
X2635736Y1456701D01*
X2608268Y1506797D02*
Y1545275D01*
Y1506797D02*
X2642364Y1472701D01*
X2627953Y1509739D02*
X2648991Y1488701D01*
X2627953Y1509739D02*
Y1545275D01*
X2642364Y1472701D02*
X2656278D01*
X2648991Y1488701D02*
X2662905D01*
X2664203Y1338071D02*
X2675276Y1349143D01*
X2629142Y1338071D02*
X2664203D01*
X2588583Y1545275D02*
X2590362D01*
D24*
X32756Y838307D02*
Y1275867D01*
Y838307D02*
X118110Y752953D01*
X32756Y1275867D02*
X171464Y1414576D01*
X250315Y1820866D02*
X347749D01*
X171464Y1742016D02*
X250315Y1820866D01*
X171464Y1414576D02*
Y1742016D01*
X2566799Y1614173D02*
X2650287D01*
X2564358Y1611732D02*
X2566799Y1614173D01*
X2539506Y1611732D02*
X2564358D01*
X2537065Y1614173D02*
X2539506Y1611732D01*
X2373700Y1614173D02*
X2537065D01*
X2650287D02*
X2669895Y1594566D01*
X2364637Y1605110D02*
X2373700Y1614173D01*
X2307012Y1567779D02*
X2329991Y1544800D01*
X2410942D01*
X2411417Y1545275D01*
X2300718Y1605110D02*
X2364637D01*
X2297718Y1608110D02*
X2300718Y1605110D01*
X2270676Y1608110D02*
X2297718D01*
X2245243Y1582677D02*
X2270676Y1608110D01*
X2255801Y1567779D02*
X2307012D01*
X2447835Y1330709D02*
X2470552D01*
X2496347Y1241921D02*
X2561635D01*
X2601089Y1281376D01*
Y1281394D02*
X2636097Y1316402D01*
X2601089Y1281376D02*
Y1281394D01*
X2636097Y1316402D02*
X2665408D01*
X2826069Y2082105D02*
Y2170685D01*
X2780786Y2215968D02*
X2826069Y2170685D01*
X2780786Y2215968D02*
X2780786D01*
X2700345Y2219857D02*
X2776897D01*
X2638187Y2282016D02*
X2700345Y2219857D01*
X1416339Y1403543D02*
X1614173D01*
X1377953Y1365158D02*
X1416339Y1403543D01*
X2220468Y1475493D02*
X2291334Y1546359D01*
X2564480Y369732D02*
X2639528Y294685D01*
X1994205Y369732D02*
X2564480D01*
X1989921Y374016D02*
X1994205Y369732D01*
X2661165Y-370331D02*
X2834646Y-196850D01*
X1292284Y-308031D02*
X1354583Y-370331D01*
X2661165D01*
X1989921Y589961D02*
X2159803Y759842D01*
X2323036D01*
X2363857Y1839772D02*
Y1840551D01*
X3436572Y1082677D02*
X3779528D01*
X3318927Y965032D02*
X3436572Y1082677D01*
X4043835Y1276047D02*
X4099409Y1220472D01*
X3936807Y1276047D02*
X4043835D01*
X3928476Y1267716D02*
X3936807Y1276047D01*
X3369900Y1267716D02*
X3928476D01*
X3509843Y1602362D02*
Y1677449D01*
X3465630Y1721661D02*
X3509843Y1677449D01*
X3291463Y1721661D02*
X3465630D01*
X3276575Y1706773D02*
X3291463Y1721661D01*
X3514063Y1742126D02*
X3568898Y1687291D01*
X3291222Y1742126D02*
X3514063D01*
X3276575Y1756773D02*
X3291222Y1742126D01*
X3002432Y1328945D02*
X3071534Y1259842D01*
X2803088Y1328945D02*
X3002432D01*
X2676400Y1298402D02*
X2692740D01*
X2609817Y1342787D02*
X2622100Y1355071D01*
X2560204Y1342787D02*
X2609817D01*
X2885827Y2020353D02*
Y2033228D01*
X2857638Y2061417D02*
X2885827Y2033228D01*
X2857638Y2061417D02*
Y2075992D01*
X2862686Y2023667D02*
X2863685D01*
X2839638Y2046716D02*
X2862686Y2023667D01*
X2839638Y2046716D02*
Y2068536D01*
X2863685Y1913341D02*
Y2023667D01*
Y1913341D02*
X2886260Y1890766D01*
X2095104Y1604803D02*
X2117229Y1582677D01*
X2146550D01*
X2084173Y1604803D02*
X2095104D01*
X1917323Y1771654D02*
X2084173Y1604803D01*
X1917323Y1771654D02*
Y1847337D01*
X1935512Y1865526D01*
X1933850Y1892041D02*
X1935512Y1890379D01*
Y1865526D02*
Y1890379D01*
X3071534Y1259842D02*
X3327566D01*
X3327802Y1260079D01*
X3509843Y1496063D02*
Y1602362D01*
X3450787Y1437008D02*
X3509843Y1496063D01*
X3425197Y1321071D02*
Y1411417D01*
X3450787Y1437008D01*
X3525590Y1319354D02*
Y1437008D01*
X3568898Y1480315D01*
Y1602362D01*
Y1687291D01*
X2622100Y1404578D02*
Y1446295D01*
Y1404578D02*
X2624488Y1402190D01*
Y1377337D02*
Y1402190D01*
X2622100Y1374949D02*
X2624488Y1377337D01*
X2622100Y1355071D02*
Y1374949D01*
X2573362Y1495033D02*
X2622100Y1446295D01*
X2190468Y1502446D02*
X2255801Y1567779D01*
X2883867Y1500993D02*
X2916315Y1533441D01*
X2746002Y1500993D02*
X2883867D01*
X2741798Y1505197D02*
X2746002Y1500993D01*
X2695907Y1505197D02*
X2741798D01*
X2687787Y1513316D02*
X2695907Y1505197D01*
X2898386Y1481819D02*
X2934315Y1517748D01*
X2739720Y1481819D02*
X2898386D01*
X2734343Y1487197D02*
X2739720Y1481819D01*
X2688451Y1487197D02*
X2734343D01*
X2669947Y1505701D02*
X2688451Y1487197D01*
X2886260Y1710655D02*
X2929134Y1667781D01*
Y1588541D02*
Y1667781D01*
X2904260Y1718111D02*
X2950315Y1672055D01*
Y1584266D02*
Y1672055D01*
X2916315Y1575722D02*
X2929134Y1588541D01*
X2934315Y1568266D02*
X2950315Y1584266D01*
X2881685Y1920796D02*
X2904260Y1898222D01*
X2886260Y1710655D02*
Y1890766D01*
X2916315Y1533441D02*
Y1575722D01*
X2934315Y1517748D02*
Y1568266D01*
X3362262Y1260079D02*
X3369900Y1267716D01*
X3327802Y1260079D02*
X3362262D01*
X2791954Y1340079D02*
X2803088Y1328945D01*
X2904260Y1718111D02*
Y1898222D01*
X2826069Y2082105D02*
X2839638Y2068536D01*
X2844069Y2089560D02*
X2857638Y2075992D01*
X2881685Y1971977D02*
X2885159Y1968504D01*
X2885159D01*
X2881685Y1965030D02*
X2885159Y1968504D01*
X2881685Y1920796D02*
Y1965030D01*
Y2016211D02*
X2885827Y2020353D01*
X2881685Y1971977D02*
Y2016211D01*
X2996063Y1998031D02*
Y2055118D01*
X2913386Y1994094D02*
Y2055118D01*
X3153543Y1999016D02*
Y2055118D01*
X2687008Y2038282D02*
X2709789Y2061063D01*
X2709286D02*
X2709789D01*
X2776897Y2219857D02*
X2780786Y2215968D01*
Y2215968D01*
X2842520Y2232284D02*
Y2239088D01*
X2753474Y2251968D02*
X2771663Y2270157D01*
X2799023Y2228536D02*
X2844069Y2183490D01*
X2811450Y2270157D02*
X2842520Y2239088D01*
X2771663Y2270157D02*
X2811450D01*
X2799023Y2228536D02*
Y2240157D01*
X2724409Y2251968D02*
X2753474D01*
X2844069Y2089560D02*
Y2183490D01*
X2712598Y1940945D02*
Y1992126D01*
X2657480Y1909449D02*
X2675276Y1891653D01*
X2612605Y1911701D02*
X2650652Y1873653D01*
X2605149Y1893701D02*
X2643196Y1855653D01*
X2569370Y1893701D02*
X2605149D01*
X2612685Y1860709D02*
X2635740Y1837653D01*
X2536929Y1860709D02*
X2612685D01*
X2614789Y1833150D02*
X2628285Y1819653D01*
X2569370Y1833150D02*
X2614789D01*
X2602362Y1803150D02*
X2603858Y1801653D01*
X2614804Y2264016D02*
X2667323Y2211497D01*
X2468323Y2094488D02*
X2494807D01*
X2687008Y1998031D02*
Y2038282D01*
X1164654Y2282016D02*
X2638187D01*
X2221086Y1699291D02*
X2235338Y1685039D01*
X2136811Y1723819D02*
X2191339Y1669291D01*
X2210150Y1699291D02*
X2221086D01*
X2177165Y1732276D02*
X2210150Y1699291D01*
X2148991Y1580236D02*
X2173844D01*
X2146550Y1582677D02*
X2148991Y1580236D01*
X2176285Y1582677D02*
X2245243D01*
X2173844Y1580236D02*
X2176285Y1582677D01*
X2177165Y1732276D02*
Y1799968D01*
X2208042Y1300706D02*
X2232894D01*
X2190468Y1318280D02*
X2208042Y1300706D01*
X2767101Y1340079D02*
X2791954D01*
X2765849Y1341331D02*
X2767101Y1340079D01*
X2762590Y1341331D02*
X2765849D01*
X2740614Y1319354D02*
X2762590Y1341331D01*
X2721934Y1319354D02*
X2740614D01*
X2370407Y1839772D02*
X2406252Y1803927D01*
X2363857Y1820866D02*
X2388252Y1796471D01*
Y1731773D02*
Y1796471D01*
X2406252Y1739229D02*
Y1803927D01*
Y1739229D02*
X2427567Y1717913D01*
X2388252Y1731773D02*
X2432537Y1687488D01*
X2427567Y1717913D02*
X2477003D01*
X2375399Y1860236D02*
X2442274Y1793361D01*
Y1748936D02*
Y1793361D01*
X2432537Y1687488D02*
X2527559D01*
X2177165Y1799968D02*
X2209402Y1832205D01*
X2249220Y1780716D02*
X2331898D01*
X2209402Y1832205D02*
X2260458D01*
X2278032Y1849778D01*
Y1895825D01*
X2687787Y1513316D02*
Y1544496D01*
X2656033Y1505701D02*
X2669947D01*
X2546214Y1377194D02*
X2551932Y1382912D01*
Y1445076D01*
X2523814Y1473194D02*
X2551932Y1445076D01*
X2506844Y1473194D02*
X2523814D01*
X2490157Y1489880D02*
X2506844Y1473194D01*
X2490157Y1489880D02*
Y1545275D01*
X2516358Y1455194D02*
X2533932Y1437620D01*
X2499388Y1455194D02*
X2516358D01*
X2483047Y1446079D02*
X2503932Y1425194D01*
X2458621Y1428079D02*
X2491506Y1395194D01*
X2516358D01*
X2428309Y1398265D02*
X2455932D01*
X2477003Y1377194D01*
X2546214D01*
X2470552Y1330709D02*
X2496347Y1356504D01*
X2546487D01*
X2490503Y1464079D02*
X2499388Y1455194D01*
X2484740Y1464079D02*
X2490503D01*
X2470472Y1478346D02*
X2484740Y1464079D01*
X2533932Y1412768D02*
Y1437620D01*
X2516358Y1395194D02*
X2533932Y1412768D01*
X2573362Y1495033D02*
Y1509631D01*
X2648417Y1513316D02*
Y1544496D01*
Y1513316D02*
X2656033Y1505701D01*
X2397633Y1417320D02*
X2397636Y1417323D01*
X2429970Y1446079D02*
X2483047D01*
X2428771Y1444879D02*
X2429970Y1446079D01*
X2437638Y1428079D02*
X2458621D01*
X2347075Y1318280D02*
X2448819D01*
X2295276Y1370079D02*
X2347075Y1318280D01*
X2447835Y1330709D02*
X2448819Y1329724D01*
Y1318280D02*
Y1329724D01*
X2488732Y1295739D02*
X2518780Y1325787D01*
X2521417D01*
X2488732Y1293102D02*
Y1295739D01*
X2463346Y1267716D02*
X2488732Y1293102D01*
X2350394Y1267716D02*
X2463346D01*
X2263780Y1354331D02*
X2350394Y1267716D01*
X2573114Y1509879D02*
X2573362Y1509631D01*
X2571583Y1509879D02*
X2573114D01*
X2568898Y1512564D02*
X2571583Y1509879D01*
X2546487Y1356504D02*
X2560204Y1342787D01*
X2568898Y1512564D02*
Y1545275D01*
X2470472Y1478346D02*
Y1545275D01*
X2450787Y1500709D02*
Y1545275D01*
X2421071Y1470993D02*
X2450787Y1500709D01*
X2430323Y1505701D02*
Y1544496D01*
X2425615Y1500993D02*
X2430323Y1505701D01*
X2665408Y1316402D02*
X2670077Y1321071D01*
X2720217D01*
X2721934Y1319354D01*
X2692740Y1298402D02*
X2692913Y1298228D01*
X2494174Y1244094D02*
X2496347Y1241921D01*
X2294393Y1244094D02*
X2494174D01*
X2235338Y1303150D02*
X2294393Y1244094D01*
X2521417Y1325787D02*
X2523319D01*
X3807087Y1213583D02*
X3813976Y1220472D01*
X3807087Y1145669D02*
Y1213583D01*
X3206245Y965032D02*
X3318927D01*
X3195701Y975576D02*
X3206245Y965032D01*
X3195701Y975576D02*
Y1000833D01*
X3089180Y1107354D02*
X3195701Y1000833D01*
X2420858Y1107354D02*
X3089180D01*
X2428313Y1125354D02*
X3096636D01*
X3213701Y1008289D01*
Y983032D02*
Y1008289D01*
X2374011Y1154201D02*
X2420858Y1107354D01*
X2374011Y1154201D02*
Y1181107D01*
X2404057Y1374013D02*
X2428309Y1398265D01*
X2374011Y1374013D02*
X2404057D01*
X2412500Y1444879D02*
X2428771D01*
X2410059Y1447320D02*
X2412500Y1444879D01*
X2385207Y1447320D02*
X2410059D01*
X2361819Y1470993D02*
X2421071D01*
X2382766Y1444879D02*
X2385207Y1447320D01*
X2338578Y1444879D02*
X2382766D01*
X2426882Y1417323D02*
X2437638Y1428079D01*
X2397636Y1417323D02*
X2426882D01*
X2307082Y1476375D02*
X2338578Y1444879D01*
X2375399Y1500993D02*
X2425615D01*
X3971457Y1195866D02*
Y1220472D01*
X3889764Y1114173D02*
X3971457Y1195866D01*
X3442613Y1114173D02*
X3889764D01*
X3311471Y983032D02*
X3442613Y1114173D01*
X3213701Y983032D02*
X3311471D01*
X2404882Y1148786D02*
X2428313Y1125354D01*
X2404882Y1148786D02*
Y1208032D01*
X2409449Y1212598D01*
X2220468Y1330706D02*
Y1475493D01*
X2291334Y1535430D02*
Y1546359D01*
X2263780Y1354331D02*
Y1476378D01*
X2190468Y1318280D02*
Y1502446D01*
X2331819Y1500993D02*
Y1514640D01*
X2470984Y345118D02*
X2521417Y294685D01*
X2028086Y345118D02*
X2470984D01*
X2026984Y344016D02*
X2028086Y345118D01*
X1977495Y344016D02*
X2026984D01*
X1940945Y380566D02*
X1977495Y344016D01*
X1940945Y380566D02*
Y397638D01*
X2232894Y1300706D02*
X2235338Y1303150D01*
X2331819Y1500993D02*
X2361819Y1470993D01*
X2136811Y1723819D02*
Y1811024D01*
X2430323Y1544496D02*
X2431102Y1545275D01*
X2332677Y1820866D02*
X2363857D01*
X2332677Y1860236D02*
X2375399D01*
X2363857Y1839772D02*
X2370407D01*
X2332677Y1840551D02*
X2363857D01*
X2548929Y1544992D02*
X2549213Y1545275D01*
X2587803Y1544496D02*
X2588583Y1545275D01*
X1417323Y1751968D02*
X1493465D01*
X1269369D02*
X1417323D01*
X2332677Y1840551D02*
X2332768Y1840460D01*
X2248032Y1862205D02*
Y1978701D01*
X2278032Y1895825D02*
X2301497Y1919291D01*
X2666543Y1576303D02*
X2669895Y1579654D01*
Y1594566D01*
X2669291Y1650591D02*
X2706693Y1613189D01*
X2619763Y1683071D02*
X2785433D01*
X2627218Y1701071D02*
X2752568D01*
X2666543Y1546055D02*
Y1576303D01*
X2301497Y1919291D02*
X2332677D01*
X2637795Y1771653D02*
X2646858Y1762591D01*
X2650652Y1873653D02*
X2680045D01*
X2643196Y1855653D02*
X2672589D01*
X2665133Y1837653D02*
X2681921Y1820866D01*
X2635740Y1837653D02*
X2665133D01*
X2657677Y1819653D02*
X2676150Y1801181D01*
X2628285Y1819653D02*
X2657677D01*
X2603858Y1801653D02*
X2650222D01*
X2706693Y1998031D02*
X2712598Y1992126D01*
X2379548Y1974197D02*
X2632084Y1721661D01*
X2372093Y1956197D02*
X2627218Y1701071D01*
X2364637Y1938197D02*
X2619763Y1683071D01*
X2566929Y1830709D02*
X2569370Y1833150D01*
X2535433Y1862205D02*
X2536929Y1860709D01*
X2535433Y1925197D02*
X2586614D01*
X2412197Y2038362D02*
X2468323Y2094488D01*
X2412197Y1998811D02*
Y2038362D01*
X2411417Y1998031D02*
X2412197Y1998811D01*
X2344322Y1938197D02*
X2364637D01*
X2331898Y1780716D02*
X2332677Y1781496D01*
X1753937Y1403543D02*
X1964567Y1614173D01*
X1614173Y1403543D02*
X1753937D01*
X2666543Y1546055D02*
X2667323Y1545275D01*
X2784654Y1642921D02*
X2785433Y1643701D01*
X2745858Y1642921D02*
X2784654D01*
X2745858Y1588787D02*
Y1642921D01*
Y1588787D02*
X2748032Y1586614D01*
X2218858Y2007874D02*
X2248032Y1978701D01*
X2130906Y1899606D02*
X2196850D01*
X2038386Y1992126D02*
X2130906Y1899606D01*
X1969488Y1934055D02*
Y1992126D01*
X1968504Y1933071D02*
X1969488Y1934055D01*
X1835630Y1984016D02*
X1839402Y1980244D01*
X1892653D01*
X1898701Y1974197D01*
X1933850Y1892041D02*
Y1987409D01*
X1898701Y2022559D02*
X1933850Y1987409D01*
X1379370Y2022559D02*
X1898701D01*
X2157480Y1999646D02*
X2165709Y2007874D01*
X2157480Y1940945D02*
Y1999646D01*
X1561370Y2040559D02*
X2241960D01*
X1643370Y2058559D02*
X2249415D01*
X1725370Y2076559D02*
X2256871D01*
X1867729Y1953630D02*
X1896162Y1925197D01*
X1839401Y1953630D02*
X1867729D01*
X1835630Y1957401D02*
X1839401Y1953630D01*
X1835630Y1877559D02*
X1905118D01*
X2004921Y1811024D02*
X2067913D01*
X588583Y1914370D02*
X823110D01*
X582284Y1879685D02*
X586409Y1883811D01*
X563976Y1732284D02*
X586409Y1754716D01*
Y1883811D01*
X588583Y1885984D01*
Y1914370D01*
X519685Y1879685D02*
X582284D01*
X513780Y1885590D02*
X519685Y1879685D01*
X1493465Y1751968D02*
X1504716Y1740716D01*
X1223109Y1705709D02*
X1269369Y1751968D01*
X1220472Y1705709D02*
X1223109D01*
X2549213Y1545275D02*
X2568898D01*
X513780Y1885590D02*
Y1914370D01*
X1125000Y1995079D02*
X1165354Y2035433D01*
X1102362Y1995079D02*
X1125000D01*
X1231299Y1963583D02*
X1417323D01*
X1220472Y1974409D02*
X1231299Y1963583D01*
X1247565Y1929134D02*
X1332369Y1844331D01*
X1181102Y1929134D02*
X1247565D01*
X1062992Y1811024D02*
X1181102Y1929134D01*
X1332369Y1844331D02*
X1507584D01*
X1280000Y1824331D02*
X1550197D01*
X1220472Y1883858D02*
X1280000Y1824331D01*
X963583Y1941929D02*
X1023622D01*
Y1806102D02*
Y1941929D01*
X944882Y1727362D02*
X1023622Y1806102D01*
X944882Y1960630D02*
X963583Y1941929D01*
X2647638Y1545275D02*
X2648417Y1544496D01*
X2646858Y1546055D02*
X2647638Y1545275D01*
X2687008D02*
X2687787Y1544496D01*
X1192284Y2209646D02*
X1379370Y2022559D01*
X1092284Y2209646D02*
X1164654Y2282016D01*
X1346654Y2264016D02*
X2614804D01*
X1292284Y2209646D02*
X1346654Y2264016D01*
X2706693Y1545275D02*
Y1613189D01*
X2699233Y1879921D02*
X2785433D01*
X2687501Y1891653D02*
X2699233Y1879921D01*
X2675276Y1891653D02*
X2687501D01*
X2784654Y1859457D02*
X2785433Y1860236D01*
X2753474Y1859457D02*
X2784654D01*
X2752568Y1858551D02*
X2753474Y1859457D01*
X2695147Y1858551D02*
X2752568D01*
X2680045Y1873653D02*
X2695147Y1858551D01*
X2600110Y1911701D02*
X2612605D01*
X2586614Y1925197D02*
X2600110Y1911701D01*
X2632084Y1721661D02*
X2784653D01*
X2687691Y1840551D02*
X2785433D01*
X2672589Y1855653D02*
X2687691Y1840551D01*
X2681921Y1820866D02*
X2785433D01*
X2676150Y1801181D02*
X2785433D01*
X2670379Y1781496D02*
X2785433D01*
X2650222Y1801653D02*
X2670379Y1781496D01*
X2784653Y1762591D02*
X2785433Y1761811D01*
X2646858Y1762591D02*
X2784653D01*
X2752568Y1701071D02*
X2753474Y1701976D01*
X2784654D01*
X2784653Y1721661D02*
X2785433Y1722441D01*
X2359234Y1974197D02*
X2379548D01*
X2256871Y2076559D02*
X2359234Y1974197D01*
X1592284Y2209646D02*
X1725370Y2076559D01*
X2784654Y1701976D02*
X2785433Y1702756D01*
X2351778Y1956197D02*
X2372093D01*
X2249415Y2058559D02*
X2351778Y1956197D01*
X1492284Y2209646D02*
X1643370Y2058559D01*
X2241960Y2040559D02*
X2344322Y1938197D01*
X1392284Y2209646D02*
X1561370Y2040559D01*
X792284Y2209646D02*
X875945Y2125984D01*
X971457D01*
X1292284Y-308031D02*
Y0D01*
X1252913Y39370D02*
X1292284Y0D01*
X617126Y39370D02*
X1252913D01*
X590551Y65945D02*
X617126Y39370D01*
X590551Y65945D02*
Y152323D01*
X306102Y436772D02*
X590551Y152323D01*
X306102Y436772D02*
Y520669D01*
X118110Y708662D02*
X306102Y520669D01*
X118110Y708662D02*
Y752953D01*
X347749Y1820866D02*
X359252Y1832369D01*
Y2209646D01*
X424764Y2275157D01*
X826772D01*
X892284Y2209646D01*
X1181102Y1365158D02*
Y1417779D01*
X1450812Y1687488D01*
X1546425D01*
X1550197Y1691260D01*
X1515773Y1666417D02*
X1548425D01*
X1515773D02*
Y1667913D01*
X1456693D02*
X1515773D01*
X1831858Y1900401D02*
X1835630Y1904173D01*
X1788230Y1900401D02*
X1831858D01*
X1658931Y1771102D02*
X1788230Y1900401D01*
X1550197Y1771102D02*
X1658931D01*
X545276Y1439961D02*
X563976Y1458661D01*
Y1732284D01*
X944882Y1658465D02*
X995079Y1608268D01*
X1062992D01*
X1550197Y1744488D02*
Y1771102D01*
X1546425Y1740716D02*
X1550197Y1744488D01*
X1504716Y1740716D02*
X1546425D01*
X1512426Y1849173D02*
X1548425D01*
X1507584Y1844331D02*
X1512426Y1849173D01*
X1062992Y1698819D02*
Y1811024D01*
X1338583Y1894685D02*
X1417323D01*
X971457Y2125984D02*
X1102362Y1995079D01*
X823110Y1914370D02*
X869370Y1960630D01*
X944882D01*
X1548425Y1849173D02*
X1550197Y1850945D01*
X1062992Y1698819D02*
X1078740D01*
X1519921Y1638031D02*
X1550197D01*
X1456693Y1574803D02*
X1519921Y1638031D01*
X1548425Y1666417D02*
X1550197Y1664646D01*
X1365158Y1576378D02*
X1456693Y1667913D01*
X1365158Y1522638D02*
Y1576378D01*
D26*
X3898642Y2160807D02*
X3955512Y2103937D01*
X2692913Y1298228D02*
X2803150D01*
X3904508Y1398642D02*
Y2042303D01*
X3955512Y2093307D01*
X605275Y2022638D02*
X792284Y2209646D01*
X588583Y2022638D02*
X605275D01*
X2819882Y1298228D02*
X2901575Y1216535D01*
X3070866D01*
X2673900Y1295902D02*
X2676400Y1298402D01*
X2652601Y1295902D02*
X2673900D01*
X2522054Y1165354D02*
X2652601Y1295902D01*
X2444882Y1165354D02*
X2522054D01*
X3468504Y1950787D02*
Y2055118D01*
X3361575Y1843858D02*
X3468504Y1950787D01*
X3361575Y1808071D02*
Y1843858D01*
X3522561Y2160807D02*
X3898642D01*
X3468504Y2106750D02*
X3522561Y2160807D01*
X3468504Y2055118D02*
Y2106750D01*
X2897638Y2070866D02*
Y2078937D01*
Y2070866D02*
X2913386Y2055118D01*
X2996063D02*
X3153543D01*
X2913386D02*
X2996063D01*
X2992126Y1994094D02*
X2996063Y1998031D01*
X3149606Y1995079D02*
X3153543Y1999016D01*
Y2055118D02*
X3468504D01*
D29*
X1989921Y156890D02*
D03*
X2108032D02*
D03*
X2226142D02*
D03*
X2344252D02*
D03*
X2462362D02*
D03*
X2580472D02*
D03*
X2698583D02*
D03*
X2048976Y294685D02*
D03*
X2167087D02*
D03*
X2285197D02*
D03*
X2403307D02*
D03*
X2521417D02*
D03*
X2639528D02*
D03*
X2048976Y452165D02*
D03*
X2167087D02*
D03*
X2285197D02*
D03*
X2403307D02*
D03*
X2521417D02*
D03*
X2639528D02*
D03*
X1989921Y589961D02*
D03*
X2108032D02*
D03*
X2226142D02*
D03*
X2344252D02*
D03*
X2462362D02*
D03*
X2580472D02*
D03*
X2698583D02*
D03*
D30*
X692284Y2209646D02*
D03*
X792284D02*
D03*
X892284D02*
D03*
X992284D02*
D03*
X1092284D02*
D03*
X1192284D02*
D03*
X1292284D02*
D03*
X1392284D02*
D03*
X1492284D02*
D03*
X1592284D02*
D03*
X1692284D02*
D03*
X1792284D02*
D03*
X1892284D02*
D03*
X1992284D02*
D03*
X2092284D02*
D03*
X2192284D02*
D03*
X2292284D02*
D03*
X2392284D02*
D03*
X2492284D02*
D03*
X2592284D02*
D03*
X4232283Y725197D02*
D03*
X4114173D02*
D03*
X1823622Y-177165D02*
D03*
Y-59055D02*
D03*
X3754449Y1005512D02*
D03*
X3854449D02*
D03*
X3954449D02*
D03*
X4054449D02*
D03*
X4154449D02*
D03*
X4254449D02*
D03*
Y2103937D02*
D03*
X4154449D02*
D03*
X4054449D02*
D03*
X3954449D02*
D03*
X3854449D02*
D03*
X3754449D02*
D03*
X3654449D02*
D03*
D31*
X3361575Y1808071D02*
D03*
Y1217520D02*
D03*
Y1375000D02*
D03*
Y1650591D02*
D03*
D32*
X3795984Y597362D02*
D03*
X3895984D02*
D03*
X1595984D02*
D03*
X1495984D02*
D03*
X1095984D02*
D03*
X995984D02*
D03*
X595984D02*
D03*
X495984D02*
D03*
D33*
X4543307Y1507874D02*
D03*
X1161614Y178150D02*
D03*
X147441Y1228740D02*
D03*
X3987008Y266142D02*
D03*
D34*
X4173228Y555118D02*
D03*
X1653543Y-118110D02*
D03*
D35*
X3654449Y1005512D02*
D03*
D36*
X2834646Y-196850D02*
D03*
Y-96850D02*
D03*
Y-296850D02*
D03*
D37*
X2222835Y-236220D02*
D03*
D38*
X2322835D02*
D03*
X2422835D02*
D03*
D39*
X360748Y1557126D02*
D03*
X545276Y1439961D02*
D03*
X360748Y1649094D02*
D03*
X464567Y1287520D02*
D03*
Y1677402D02*
D03*
X1917323Y1687913D02*
D03*
X1661417Y1187109D02*
D03*
X1708661Y901575D02*
D03*
X2724409Y726517D02*
D03*
X2962199Y824961D02*
D03*
X2259370Y1172480D02*
D03*
X2507711Y992126D02*
D03*
X1494402Y1300706D02*
D03*
X1748032Y1607447D02*
D03*
X1669291Y1939449D02*
D03*
X795276Y2017409D02*
D03*
X586409Y2169291D02*
D03*
X744095Y1677165D02*
D03*
X625984Y1430276D02*
D03*
X303150Y1208661D02*
D03*
X196850Y929134D02*
D03*
X598425Y444882D02*
D03*
X370079Y515748D02*
D03*
X671009Y110236D02*
D03*
X1836510Y231449D02*
D03*
X1473267Y-122047D02*
D03*
X2599952Y-94266D02*
D03*
X2210103Y-110608D02*
D03*
X3000000Y468504D02*
D03*
X3015748Y208661D02*
D03*
X3483554Y118110D02*
D03*
X4322835Y491011D02*
D03*
X3876249Y830709D02*
D03*
X4318898Y1176489D02*
D03*
X4236221Y1610236D02*
D03*
X3744095Y1346529D02*
D03*
X3751811Y1610236D02*
D03*
X3184886Y1475493D02*
D03*
X3062992Y1866142D02*
D03*
X3471850Y2210669D02*
D03*
X3142795Y2128494D02*
D03*
X2912992Y2160709D02*
D03*
X3904508Y1398642D02*
D03*
X3070866Y1216535D02*
D03*
X2897638Y2078937D02*
D03*
X2448819Y1318280D02*
D03*
X2444882Y1165354D02*
D03*
X1417323Y1751968D02*
D03*
X1023622Y1941929D02*
D03*
X1338583Y1894685D02*
D03*
X1365158Y1522638D02*
D03*
X1456693Y1574803D02*
D03*
D40*
X3488621Y1398642D02*
D03*
X1476249Y1437008D02*
D03*
X2370074Y1574800D02*
D03*
X1880229Y406481D02*
D03*
X1244094Y496063D02*
D03*
X913386Y688976D02*
D03*
X3137795Y1195507D02*
D03*
X3275591Y1207399D02*
D03*
X2012796Y1615618D02*
D03*
X1814961Y1372695D02*
D03*
X1993519Y1358268D02*
D03*
X2139577Y1451526D02*
D03*
X1357072Y1692913D02*
D03*
X1149606Y1787402D02*
D03*
X1057721Y1308164D02*
D03*
X2551022Y2125984D02*
D03*
X2669286Y2062988D02*
D03*
X2429134Y2106299D02*
D03*
X2571089Y1293802D02*
D03*
X2781152Y1177483D02*
D03*
X2626142Y1178010D02*
D03*
X3476378Y531496D02*
D03*
X3620079Y492126D02*
D03*
X3346457Y-118110D02*
D03*
X3327802Y322835D02*
D03*
X3188976Y275591D02*
D03*
X3192913Y110236D02*
D03*
X3276386Y39559D02*
D03*
X3185039Y-338583D02*
D03*
X1578740Y837142D02*
D03*
X1299213D02*
D03*
X1448228Y637795D02*
D03*
X1389764Y1023622D02*
D03*
X787402Y1328740D02*
D03*
X1425197Y1480315D02*
D03*
X1082677Y1070866D02*
D03*
X2074213Y524212D02*
D03*
X2094042Y874016D02*
D03*
X1787402Y409449D02*
D03*
X1614173Y1299213D02*
D03*
X1216535Y964567D02*
D03*
X1047244Y799213D02*
D03*
X1037402Y974409D02*
D03*
X874016Y866142D02*
D03*
X1125984Y397638D02*
D03*
X3397638Y484252D02*
D03*
X1535433Y110236D02*
D03*
X3397638Y531496D02*
D03*
X3572047Y685039D02*
D03*
X3464567D02*
D03*
X2007874Y866142D02*
D03*
X1909449Y468504D02*
D03*
X1365551Y365551D02*
D03*
X1433071Y433071D02*
D03*
X1476378Y401575D02*
D03*
X1374016Y468504D02*
D03*
X2323036Y759842D02*
D03*
X2311023Y826772D02*
D03*
X2279528Y82677D02*
D03*
X2170514Y47244D02*
D03*
X1862205Y996063D02*
D03*
X1933071Y1459884D02*
D03*
X3656496Y1159449D02*
D03*
X3745079Y1158465D02*
D03*
X3177165Y1732284D02*
D03*
X3622047Y1669291D02*
D03*
X3433071Y1775591D02*
D03*
X3464567Y1669291D02*
D03*
X681102Y295276D02*
D03*
X1562992Y1574803D02*
D03*
X1956693Y1806102D02*
D03*
X2039366Y1566926D02*
D03*
X3525590Y1319354D02*
D03*
X3425197Y1321071D02*
D03*
X2400310Y818898D02*
D03*
X2492126Y836402D02*
D03*
X2814961Y1535433D02*
D03*
X2938650Y1775591D02*
D03*
X2888575Y1657480D02*
D03*
X2944882Y1728347D02*
D03*
X2980315Y1648459D02*
D03*
X2857638Y1696850D02*
D03*
X2839638Y1742126D02*
D03*
X2888575Y1607447D02*
D03*
X2980315Y1549213D02*
D03*
X3614173Y2015748D02*
D03*
X3748032Y2000756D02*
D03*
X3937008Y1988189D02*
D03*
X4157480Y1952756D02*
D03*
X2709286Y2061063D02*
D03*
X2763774Y2133854D02*
D03*
X2759843Y2185039D02*
D03*
X2799023Y2240157D02*
D03*
X2724409Y2251968D02*
D03*
X2795270Y2066925D02*
D03*
X2796069Y2109443D02*
D03*
X2712598Y1940945D02*
D03*
X2657480Y1909449D02*
D03*
X2602362Y1803150D02*
D03*
X2791339Y2023622D02*
D03*
X2494807Y2094488D02*
D03*
X2708661Y1425197D02*
D03*
X2659351Y2212598D02*
D03*
X2551932Y1641732D02*
D03*
X1783465Y1480315D02*
D03*
X2082677Y1574803D02*
D03*
X1869878Y1570866D02*
D03*
X2043307Y1736220D02*
D03*
X2157480Y1633858D02*
D03*
X2235338Y1685039D02*
D03*
X2212598Y1748032D02*
D03*
X2191339Y1669291D02*
D03*
X2173228Y1539370D02*
D03*
X3153543Y795276D02*
D03*
X3094488Y1157480D02*
D03*
X2877953Y1169291D02*
D03*
X2779528Y1370079D02*
D03*
X2783465Y1413386D02*
D03*
X2442274Y1748936D02*
D03*
X2477003Y1717913D02*
D03*
X2527559Y1687488D02*
D03*
X2271937Y1744488D02*
D03*
X2249220Y1780716D02*
D03*
X3574803Y1157480D02*
D03*
Y1302354D02*
D03*
X2503932Y1425194D02*
D03*
X2594488Y1389764D02*
D03*
X3807087Y1145669D02*
D03*
X3779528Y1082677D02*
D03*
X2374011Y1181107D02*
D03*
Y1374013D02*
D03*
X2397633Y1417320D02*
D03*
X2375399Y1500993D02*
D03*
X2409449Y1212598D02*
D03*
X2291334Y1535430D02*
D03*
X2307082Y1476375D02*
D03*
X2263780Y1476378D02*
D03*
X2331819Y1514640D02*
D03*
X1940945Y397638D02*
D03*
X2220468Y1330706D02*
D03*
X2295276Y1370079D02*
D03*
X1989921Y374016D02*
D03*
X2248032Y1862205D02*
D03*
X2669291Y1650591D02*
D03*
X2637795Y1771653D02*
D03*
X2566929Y1830709D02*
D03*
X2535433Y1862205D02*
D03*
Y1925197D02*
D03*
X1964567Y1614173D02*
D03*
X2748032Y1586614D02*
D03*
X2196850Y1899606D02*
D03*
X1968504Y1933071D02*
D03*
X1898701Y1974197D02*
D03*
X2157480Y1940945D02*
D03*
X2003937Y1811024D02*
D03*
X1905512Y1877953D02*
D03*
X1896162Y1925197D02*
D03*
X1165354Y2035433D02*
D03*
X2842520Y2232284D02*
D03*
X2569370Y1893701D02*
D03*
D41*
X905512Y1407480D02*
D03*
X984252Y1370079D02*
D03*
Y1444882D02*
D03*
X2059055Y1228740D02*
D03*
X1980315Y1266142D02*
D03*
Y1191339D02*
D03*
X3307087Y-198819D02*
D03*
Y-273622D02*
D03*
X3228347Y-236220D02*
D03*
X1779528Y1309055D02*
D03*
Y1234252D02*
D03*
X1700787Y1271653D02*
D03*
X3307087Y789370D02*
D03*
Y864173D02*
D03*
X3385827Y826772D02*
D03*
X1535433Y273622D02*
D03*
Y198819D02*
D03*
X1456693Y236220D02*
D03*
X1468504Y1124016D02*
D03*
Y1049213D02*
D03*
X1389764Y1086614D02*
D03*
X3503937Y789370D02*
D03*
Y864173D02*
D03*
X3582677Y826772D02*
D03*
X787402Y1446850D02*
D03*
Y1372047D02*
D03*
X708661Y1409449D02*
D03*
X2598425Y942913D02*
D03*
Y1017716D02*
D03*
X2677165Y980315D02*
D03*
X2152913Y942913D02*
D03*
Y1017716D02*
D03*
X2231654Y980315D02*
D03*
D42*
X3276575Y1806773D02*
D03*
Y1756773D02*
D03*
Y1706773D02*
D03*
Y1656773D02*
D03*
X3062008Y1806773D02*
D03*
Y1756773D02*
D03*
Y1706773D02*
D03*
Y1656773D02*
D03*
D43*
X944882Y1960630D02*
D03*
Y1897638D02*
D03*
D44*
X2086614Y1404528D02*
D03*
Y1351378D02*
D03*
X1181102Y1312008D02*
D03*
Y1365158D02*
D03*
X1377953Y1312008D02*
D03*
Y1365158D02*
D03*
X1220472Y1758858D02*
D03*
Y1705709D02*
D03*
X1102362Y1941929D02*
D03*
Y1995079D02*
D03*
X2695147Y1237205D02*
D03*
Y1290354D02*
D03*
X2803150Y1245079D02*
D03*
Y1298228D02*
D03*
X2521417Y1272638D02*
D03*
Y1325787D02*
D03*
X3062992Y1473425D02*
D03*
Y1526575D02*
D03*
X3279528Y1941929D02*
D03*
Y1995079D02*
D03*
X3149606Y1941929D02*
D03*
Y1995079D02*
D03*
D45*
X1614173Y1403543D02*
D03*
Y1352362D02*
D03*
X1929134Y1403543D02*
D03*
Y1352362D02*
D03*
X3275591Y1592520D02*
D03*
Y1541339D02*
D03*
X2913386Y1994094D02*
D03*
Y1942913D02*
D03*
X2992126Y1994094D02*
D03*
Y1942913D02*
D03*
D46*
X1220472Y1883858D02*
D03*
Y1974409D02*
D03*
X1062992Y1698819D02*
D03*
Y1608268D02*
D03*
D47*
X2165709Y2007874D02*
D03*
X2218858D02*
D03*
X617126Y1732284D02*
D03*
X563976D02*
D03*
D48*
X1835630Y1984016D02*
D03*
Y1957401D02*
D03*
Y1930787D02*
D03*
Y1904173D02*
D03*
Y1877559D02*
D03*
Y1850945D02*
D03*
Y1824331D02*
D03*
Y1797716D02*
D03*
Y1771102D02*
D03*
Y1744488D02*
D03*
Y1717874D02*
D03*
Y1691260D02*
D03*
Y1664646D02*
D03*
Y1638031D02*
D03*
X1550197Y1984016D02*
D03*
Y1957401D02*
D03*
Y1930787D02*
D03*
Y1904173D02*
D03*
Y1877559D02*
D03*
Y1850945D02*
D03*
Y1824331D02*
D03*
Y1797716D02*
D03*
Y1771102D02*
D03*
Y1744488D02*
D03*
Y1717874D02*
D03*
Y1691260D02*
D03*
Y1664646D02*
D03*
Y1638031D02*
D03*
D49*
X588583Y1914370D02*
D03*
X551181D02*
D03*
X513780D02*
D03*
Y2022638D02*
D03*
X588583D02*
D03*
D50*
X2785433Y1624016D02*
D03*
Y1643701D02*
D03*
Y1663386D02*
D03*
Y1683071D02*
D03*
Y1702756D02*
D03*
Y1722441D02*
D03*
Y1742126D02*
D03*
Y1761811D02*
D03*
Y1781496D02*
D03*
Y1801181D02*
D03*
Y1820866D02*
D03*
Y1840551D02*
D03*
Y1860236D02*
D03*
Y1879921D02*
D03*
Y1899606D02*
D03*
Y1919291D02*
D03*
X2332677D02*
D03*
Y1899606D02*
D03*
Y1879921D02*
D03*
Y1860236D02*
D03*
Y1840551D02*
D03*
Y1820866D02*
D03*
Y1801181D02*
D03*
Y1781496D02*
D03*
Y1761811D02*
D03*
Y1742126D02*
D03*
Y1722441D02*
D03*
Y1702756D02*
D03*
Y1683071D02*
D03*
Y1663386D02*
D03*
Y1643701D02*
D03*
Y1624016D02*
D03*
D51*
X2706693Y1998031D02*
D03*
X2687008D02*
D03*
X2667323D02*
D03*
X2647638D02*
D03*
X2627953D02*
D03*
X2608268D02*
D03*
X2588583D02*
D03*
X2568898D02*
D03*
X2549213D02*
D03*
X2529528D02*
D03*
X2509843D02*
D03*
X2490157D02*
D03*
X2470472D02*
D03*
X2450787D02*
D03*
X2431102D02*
D03*
X2411417D02*
D03*
Y1545275D02*
D03*
X2431102D02*
D03*
X2450787D02*
D03*
X2470472D02*
D03*
X2490157D02*
D03*
X2509843D02*
D03*
X2529528D02*
D03*
X2549213D02*
D03*
X2568898D02*
D03*
X2588583D02*
D03*
X2608268D02*
D03*
X2627953D02*
D03*
X2647638D02*
D03*
X2667323D02*
D03*
X2687008D02*
D03*
X2706693D02*
D03*
D52*
X3509843Y1602362D02*
D03*
X3458661D02*
D03*
X3620079D02*
D03*
X3568898D02*
D03*
%TF.MD5,de8b19db197be5646959df6633bbb4f3*%
M02*
