%TF.GenerationSoftware,Altium Limited,Altium Designer,18.1.9 (240)*%
G04 Layer_Color=128*
%FSLAX26Y26*%
%MOIN*%
%TF.FileFunction,Drillmap*%
%TF.Part,Single*%
G01*
G75*
%TA.AperFunction,NonConductor*%
%ADD117C,0.005000*%
D117*
X1964331Y156890D02*
X2015512D01*
X1989921Y131299D02*
Y182480D01*
X2082441Y156890D02*
X2133622D01*
X2108032Y131299D02*
Y182480D01*
X2200551Y156890D02*
X2251732D01*
X2226142Y131299D02*
Y182480D01*
X2318662Y156890D02*
X2369843D01*
X2344252Y131299D02*
Y182480D01*
X2436772Y156890D02*
X2487953D01*
X2462362Y131299D02*
Y182480D01*
X2554882Y156890D02*
X2606063D01*
X2580472Y131299D02*
Y182480D01*
X2672992Y156890D02*
X2724173D01*
X2698583Y131299D02*
Y182480D01*
X2023386Y294685D02*
X2074567D01*
X2048976Y269095D02*
Y320276D01*
X2141496Y294685D02*
X2192677D01*
X2167087Y269095D02*
Y320276D01*
X2259606Y294685D02*
X2310787D01*
X2285197Y269095D02*
Y320276D01*
X2377717Y294685D02*
X2428898D01*
X2403307Y269095D02*
Y320276D01*
X2495827Y294685D02*
X2547008D01*
X2521417Y269095D02*
Y320276D01*
X2613937Y294685D02*
X2665118D01*
X2639528Y269095D02*
Y320276D01*
X2023386Y452165D02*
X2074567D01*
X2048976Y426575D02*
Y477756D01*
X2141496Y452165D02*
X2192677D01*
X2167087Y426575D02*
Y477756D01*
X2259606Y452165D02*
X2310787D01*
X2285197Y426575D02*
Y477756D01*
X2377717Y452165D02*
X2428898D01*
X2403307Y426575D02*
Y477756D01*
X2495827Y452165D02*
X2547008D01*
X2521417Y426575D02*
Y477756D01*
X2613937Y452165D02*
X2665118D01*
X2639528Y426575D02*
Y477756D01*
X1964331Y589961D02*
X2015512D01*
X1989921Y564370D02*
Y615551D01*
X2082441Y589961D02*
X2133622D01*
X2108032Y564370D02*
Y615551D01*
X2200551Y589961D02*
X2251732D01*
X2226142Y564370D02*
Y615551D01*
X2318662Y589961D02*
X2369843D01*
X2344252Y564370D02*
Y615551D01*
X2436772Y589961D02*
X2487953D01*
X2462362Y564370D02*
Y615551D01*
X2554882Y589961D02*
X2606063D01*
X2580472Y564370D02*
Y615551D01*
X2672992Y589961D02*
X2724173D01*
X2698583Y564370D02*
Y615551D01*
X2826535Y373425D02*
X2924961D01*
X2875748Y324213D02*
Y422638D01*
X672598Y2209646D02*
X711968D01*
X692284Y2189961D02*
Y2229331D01*
X772598Y2209646D02*
X811968D01*
X792284Y2189961D02*
Y2229331D01*
X872598Y2209646D02*
X911968D01*
X892284Y2189961D02*
Y2229331D01*
X972598Y2209646D02*
X1011968D01*
X992284Y2189961D02*
Y2229331D01*
X1072599Y2209646D02*
X1111968D01*
X1092284Y2189961D02*
Y2229331D01*
X1172599Y2209646D02*
X1211968D01*
X1192284Y2189961D02*
Y2229331D01*
X1272599Y2209646D02*
X1311968D01*
X1292284Y2189961D02*
Y2229331D01*
X1372599Y2209646D02*
X1411968D01*
X1392284Y2189961D02*
Y2229331D01*
X1472599Y2209646D02*
X1511968D01*
X1492284Y2189961D02*
Y2229331D01*
X1572599Y2209646D02*
X1611968D01*
X1592284Y2189961D02*
Y2229331D01*
X1672599Y2209646D02*
X1711968D01*
X1692284Y2189961D02*
Y2229331D01*
X1772599Y2209646D02*
X1811968D01*
X1792284Y2189961D02*
Y2229331D01*
X1872599Y2209646D02*
X1911968D01*
X1892284Y2189961D02*
Y2229331D01*
X1972599Y2209646D02*
X2011968D01*
X1992284Y2189961D02*
Y2229331D01*
X2072599Y2209646D02*
X2111968D01*
X2092284Y2189961D02*
Y2229331D01*
X2172599Y2209646D02*
X2211968D01*
X2192284Y2189961D02*
Y2229331D01*
X2272599Y2209646D02*
X2311968D01*
X2292284Y2189961D02*
Y2229331D01*
X2372599Y2209646D02*
X2411968D01*
X2392284Y2189961D02*
Y2229331D01*
X2472599Y2209646D02*
X2511968D01*
X2492284Y2189961D02*
Y2229331D01*
X2572599Y2209646D02*
X2611968D01*
X2592284Y2189961D02*
Y2229331D01*
X394055Y2154528D02*
X502323D01*
X448189Y2100394D02*
Y2208661D01*
X3228701Y2154528D02*
X3336968D01*
X3282835Y2100394D02*
Y2208661D01*
X3228701Y1052165D02*
X3336968D01*
X3282835Y998032D02*
Y1106299D01*
X394055Y1052165D02*
X502323D01*
X448189Y998032D02*
Y1106299D01*
X3341890Y1808071D02*
X3381260D01*
X3361575Y1788386D02*
Y1827756D01*
X3341890Y1217520D02*
X3381260D01*
X3361575Y1197835D02*
Y1237205D01*
X3341890Y1375000D02*
X3381260D01*
X3361575Y1355315D02*
Y1394685D01*
X3341890Y1650591D02*
X3381260D01*
X3361575Y1630906D02*
Y1670276D01*
X3776693Y597362D02*
X3815276D01*
X3795984Y578071D02*
Y616654D01*
X3876693Y597362D02*
X3915276D01*
X3895984Y578071D02*
Y616654D01*
X4483307Y1507874D02*
X4603307D01*
X4543307Y1447874D02*
Y1567874D01*
X4212205Y725197D02*
X4252362D01*
X4232283Y705118D02*
Y745275D01*
X4094095Y725197D02*
X4134252D01*
X4114173Y705118D02*
Y745275D01*
Y555118D02*
X4232283D01*
X4173228Y496063D02*
Y614173D01*
X1803543Y-177165D02*
X1843701D01*
X1823622Y-197244D02*
Y-157087D01*
X1803543Y-59055D02*
X1843701D01*
X1823622Y-79134D02*
Y-38976D01*
X1594488Y-118110D02*
X1712598D01*
X1653543Y-177165D02*
Y-59055D01*
X3636732Y1005512D02*
X3672165D01*
X3654449Y987795D02*
Y1023228D01*
X3736732Y1005512D02*
X3772165D01*
X3754449Y987795D02*
Y1023228D01*
X3836732Y1005512D02*
X3872165D01*
X3854449Y987795D02*
Y1023228D01*
X3936732Y1005512D02*
X3972165D01*
X3954449Y987795D02*
Y1023228D01*
X4036732Y1005512D02*
X4072165D01*
X4054449Y987795D02*
Y1023228D01*
X4136732Y1005512D02*
X4172165D01*
X4154449Y987795D02*
Y1023228D01*
X4236732Y1005512D02*
X4272165D01*
X4254449Y987795D02*
Y1023228D01*
X4236732Y2103937D02*
X4272165D01*
X4254449Y2086220D02*
Y2121653D01*
X4136732Y2103937D02*
X4172165D01*
X4154449Y2086220D02*
Y2121653D01*
X4036732Y2103937D02*
X4072165D01*
X4054449Y2086220D02*
Y2121653D01*
X3936732Y2103937D02*
X3972165D01*
X3954449Y2086220D02*
Y2121653D01*
X3836732Y2103937D02*
X3872165D01*
X3854449Y2086220D02*
Y2121653D01*
X3736732Y2103937D02*
X3772165D01*
X3754449Y2086220D02*
Y2121653D01*
X3636732Y2103937D02*
X3672165D01*
X3654449Y2086220D02*
Y2121653D01*
X1101614Y178150D02*
X1221614D01*
X1161614Y118150D02*
Y238150D01*
X87441Y1228740D02*
X207441D01*
X147441Y1168740D02*
Y1288740D01*
X3927008Y266142D02*
X4047008D01*
X3987008Y206142D02*
Y326142D01*
X771457Y236220D02*
X810827D01*
X791142Y216536D02*
Y255905D01*
X921457Y236220D02*
X960827D01*
X941142Y216536D02*
Y255905D01*
X2824606Y-196850D02*
X2844685D01*
X2834646Y-206890D02*
Y-186811D01*
X2824606Y-96850D02*
X2844685D01*
X2834646Y-106890D02*
Y-86811D01*
X2824606Y-296850D02*
X2844685D01*
X2834646Y-306890D02*
Y-286811D01*
X2203150Y-236220D02*
X2242520D01*
X2222835Y-255905D02*
Y-216536D01*
X2303150Y-236220D02*
X2342520D01*
X2322835Y-255905D02*
Y-216536D01*
X2403150Y-236220D02*
X2442520D01*
X2422835Y-255905D02*
Y-216536D01*
X1576693Y597362D02*
X1615276D01*
X1595984Y578071D02*
Y616654D01*
X1476693Y597362D02*
X1515276D01*
X1495984Y578071D02*
Y616654D01*
X1076693Y597362D02*
X1115276D01*
X1095984Y578071D02*
Y616654D01*
X976693Y597362D02*
X1015276D01*
X995984Y578071D02*
Y616654D01*
X576693Y597362D02*
X615276D01*
X595984Y578071D02*
Y616654D01*
X476693Y597362D02*
X515276D01*
X495984Y578071D02*
Y616654D01*
X346748Y1557126D02*
X374748D01*
X360748Y1543126D02*
Y1571126D01*
X531276Y1439961D02*
X559276D01*
X545276Y1425961D02*
Y1453961D01*
X346748Y1649094D02*
X374748D01*
X360748Y1635094D02*
Y1663094D01*
X450567Y1287520D02*
X478567D01*
X464567Y1273520D02*
Y1301520D01*
X450567Y1677402D02*
X478567D01*
X464567Y1663402D02*
Y1691402D01*
X3481121Y1398642D02*
X3496121D01*
X3488621Y1391142D02*
Y1406142D01*
X1468749Y1437008D02*
X1483749D01*
X1476249Y1429508D02*
Y1444508D01*
X1903323Y1687913D02*
X1931323D01*
X1917323Y1673913D02*
Y1701913D01*
X2362574Y1574800D02*
X2377574D01*
X2370074Y1567300D02*
Y1582300D01*
X1647417Y1187109D02*
X1675417D01*
X1661417Y1173109D02*
Y1201109D01*
X1694661Y901575D02*
X1722661D01*
X1708661Y887575D02*
Y915575D01*
X1872729Y406481D02*
X1887729D01*
X1880229Y398981D02*
Y413981D01*
X1236594Y496063D02*
X1251594D01*
X1244094Y488563D02*
Y503563D01*
X905886Y688976D02*
X920886D01*
X913386Y681476D02*
Y696476D01*
X3130295Y1195507D02*
X3145295D01*
X3137795Y1188007D02*
Y1203007D01*
X3268091Y1207399D02*
X3283091D01*
X3275591Y1199899D02*
Y1214899D01*
X2710409Y726517D02*
X2738409D01*
X2724409Y712517D02*
Y740517D01*
X2948199Y824961D02*
X2976199D01*
X2962199Y810961D02*
Y838961D01*
X2245370Y1172480D02*
X2273370D01*
X2259370Y1158480D02*
Y1186480D01*
X2493711Y992126D02*
X2521711D01*
X2507711Y978126D02*
Y1006126D01*
X2005296Y1615618D02*
X2020296D01*
X2012796Y1608118D02*
Y1623118D01*
X1807461Y1372695D02*
X1822461D01*
X1814961Y1365195D02*
Y1380195D01*
X1986019Y1358268D02*
X2001019D01*
X1993519Y1350768D02*
Y1365768D01*
X2132077Y1451526D02*
X2147077D01*
X2139577Y1444026D02*
Y1459026D01*
X1480402Y1300706D02*
X1508402D01*
X1494402Y1286706D02*
Y1314706D01*
X1734032Y1607447D02*
X1762032D01*
X1748032Y1593447D02*
Y1621447D01*
X1349572Y1692913D02*
X1364572D01*
X1357072Y1685413D02*
Y1700413D01*
X1142106Y1787402D02*
X1157106D01*
X1149606Y1779902D02*
Y1794902D01*
X1050221Y1308164D02*
X1065221D01*
X1057721Y1300664D02*
Y1315664D01*
X1655291Y1939449D02*
X1683291D01*
X1669291Y1925449D02*
Y1953449D01*
X781276Y2017409D02*
X809276D01*
X795276Y2003409D02*
Y2031409D01*
X572409Y2169291D02*
X600409D01*
X586409Y2155291D02*
Y2183291D01*
X730095Y1677165D02*
X758095D01*
X744095Y1663165D02*
Y1691165D01*
X611984Y1430276D02*
X639984D01*
X625984Y1416276D02*
Y1444276D01*
X289150Y1208661D02*
X317150D01*
X303150Y1194661D02*
Y1222661D01*
X182850Y929134D02*
X210850D01*
X196850Y915134D02*
Y943134D01*
X584425Y444882D02*
X612425D01*
X598425Y430882D02*
Y458882D01*
X356079Y515748D02*
X384079D01*
X370079Y501748D02*
Y529748D01*
X657009Y110236D02*
X685009D01*
X671009Y96236D02*
Y124236D01*
X1822510Y231449D02*
X1850510D01*
X1836510Y217449D02*
Y245449D01*
X1459267Y-122047D02*
X1487267D01*
X1473267Y-136047D02*
Y-108047D01*
X2585952Y-94266D02*
X2613952D01*
X2599952Y-108266D02*
Y-80266D01*
X2196103Y-110608D02*
X2224103D01*
X2210103Y-124608D02*
Y-96608D01*
X2986000Y468504D02*
X3014000D01*
X3000000Y454504D02*
Y482504D01*
X3001748Y208661D02*
X3029748D01*
X3015748Y194661D02*
Y222661D01*
X3469554Y118110D02*
X3497554D01*
X3483554Y104110D02*
Y132110D01*
X4308835Y491011D02*
X4336835D01*
X4322835Y477011D02*
Y505011D01*
X3862249Y830709D02*
X3890249D01*
X3876249Y816709D02*
Y844709D01*
X4304898Y1176489D02*
X4332898D01*
X4318898Y1162489D02*
Y1190489D01*
X4222221Y1610236D02*
X4250221D01*
X4236221Y1596236D02*
Y1624236D01*
X3730095Y1346529D02*
X3758095D01*
X3744095Y1332529D02*
Y1360529D01*
X3737811Y1610236D02*
X3765811D01*
X3751811Y1596236D02*
Y1624236D01*
X3170886Y1475493D02*
X3198886D01*
X3184886Y1461493D02*
Y1489493D01*
X3048992Y1866142D02*
X3076992D01*
X3062992Y1852142D02*
Y1880142D01*
X3457850Y2210669D02*
X3485850D01*
X3471850Y2196669D02*
Y2224669D01*
X3128795Y2128494D02*
X3156795D01*
X3142795Y2114494D02*
Y2142494D01*
X2898992Y2160709D02*
X2926992D01*
X2912992Y2146709D02*
Y2174709D01*
X2543522Y2125984D02*
X2558522D01*
X2551022Y2118484D02*
Y2133484D01*
X2661786Y2062988D02*
X2676786D01*
X2669286Y2055488D02*
Y2070488D01*
X2421634Y2106299D02*
X2436634D01*
X2429134Y2098799D02*
Y2113799D01*
X2563589Y1293802D02*
X2578589D01*
X2571089Y1286302D02*
Y1301302D01*
X2773652Y1177483D02*
X2788652D01*
X2781152Y1169983D02*
Y1184983D01*
X2618642Y1178010D02*
X2633642D01*
X2626142Y1170510D02*
Y1185510D01*
X3468878Y531496D02*
X3483878D01*
X3476378Y523996D02*
Y538996D01*
X3612579Y492126D02*
X3627579D01*
X3620079Y484626D02*
Y499626D01*
X3338957Y-118110D02*
X3353957D01*
X3346457Y-125610D02*
Y-110610D01*
X3320302Y322835D02*
X3335302D01*
X3327802Y315335D02*
Y330335D01*
X3181476Y275591D02*
X3196476D01*
X3188976Y268091D02*
Y283091D01*
X3185413Y110236D02*
X3200413D01*
X3192913Y102736D02*
Y117736D01*
X3268886Y39559D02*
X3283886D01*
X3276386Y32059D02*
Y47059D01*
X3177539Y-338583D02*
X3192539D01*
X3185039Y-346083D02*
Y-331083D01*
X1571240Y837142D02*
X1586240D01*
X1578740Y829642D02*
Y844642D01*
X1291713Y837142D02*
X1306713D01*
X1299213Y829642D02*
Y844642D01*
X1440728Y637795D02*
X1455728D01*
X1448228Y630295D02*
Y645295D01*
X1382264Y1023622D02*
X1397264D01*
X1389764Y1016122D02*
Y1031122D01*
X779902Y1328740D02*
X794902D01*
X787402Y1321240D02*
Y1336240D01*
X1417697Y1480315D02*
X1432697D01*
X1425197Y1472815D02*
Y1487815D01*
X1075177Y1070866D02*
X1090177D01*
X1082677Y1063366D02*
Y1078366D01*
X2066713Y524212D02*
X2081713D01*
X2074213Y516712D02*
Y531712D01*
X2086542Y874016D02*
X2101542D01*
X2094042Y866516D02*
Y881516D01*
X1779902Y409449D02*
X1794902D01*
X1787402Y401949D02*
Y416949D01*
X1606673Y1299213D02*
X1621673D01*
X1614173Y1291713D02*
Y1306713D01*
X1209035Y964567D02*
X1224035D01*
X1216535Y957067D02*
Y972067D01*
X1039744Y799213D02*
X1054744D01*
X1047244Y791713D02*
Y806713D01*
X1029902Y974409D02*
X1044902D01*
X1037402Y966909D02*
Y981909D01*
X866516Y866142D02*
X881516D01*
X874016Y858642D02*
Y873642D01*
X1118484Y397638D02*
X1133484D01*
X1125984Y390138D02*
Y405138D01*
X3390138Y484252D02*
X3405138D01*
X3397638Y476752D02*
Y491752D01*
X1527933Y110236D02*
X1542933D01*
X1535433Y102736D02*
Y117736D01*
X3390138Y531496D02*
X3405138D01*
X3397638Y523996D02*
Y538996D01*
X3564547Y685039D02*
X3579547D01*
X3572047Y677539D02*
Y692539D01*
X3457067Y685039D02*
X3472067D01*
X3464567Y677539D02*
Y692539D01*
X2000374Y866142D02*
X2015374D01*
X2007874Y858642D02*
Y873642D01*
X1901949Y468504D02*
X1916949D01*
X1909449Y461004D02*
Y476004D01*
X1358051Y365551D02*
X1373051D01*
X1365551Y358051D02*
Y373051D01*
X1425571Y433071D02*
X1440571D01*
X1433071Y425571D02*
Y440571D01*
X1468878Y401575D02*
X1483878D01*
X1476378Y394075D02*
Y409075D01*
X1366516Y468504D02*
X1381516D01*
X1374016Y461004D02*
Y476004D01*
X2315536Y759842D02*
X2330536D01*
X2323036Y752342D02*
Y767342D01*
X2303523Y826772D02*
X2318523D01*
X2311023Y819272D02*
Y834272D01*
X2272028Y82677D02*
X2287028D01*
X2279528Y75177D02*
Y90177D01*
X2163014Y47244D02*
X2178014D01*
X2170514Y39744D02*
Y54744D01*
X1854705Y996063D02*
X1869705D01*
X1862205Y988563D02*
Y1003563D01*
X1925571Y1459884D02*
X1940571D01*
X1933071Y1452384D02*
Y1467384D01*
X3648996Y1159449D02*
X3663996D01*
X3656496Y1151949D02*
Y1166949D01*
X3737579Y1158465D02*
X3752579D01*
X3745079Y1150965D02*
Y1165965D01*
X3890508Y1398642D02*
X3918508D01*
X3904508Y1384642D02*
Y1412642D01*
X3169665Y1732284D02*
X3184665D01*
X3177165Y1724784D02*
Y1739784D01*
X3614547Y1669291D02*
X3629547D01*
X3622047Y1661791D02*
Y1676791D01*
X3425571Y1775591D02*
X3440571D01*
X3433071Y1768091D02*
Y1783091D01*
X3457067Y1669291D02*
X3472067D01*
X3464567Y1661791D02*
Y1676791D01*
X3056866Y1216535D02*
X3084866D01*
X3070866Y1202535D02*
Y1230535D01*
X673602Y295276D02*
X688602D01*
X681102Y287776D02*
Y302776D01*
X1555492Y1574803D02*
X1570492D01*
X1562992Y1567303D02*
Y1582303D01*
X1949193Y1806102D02*
X1964193D01*
X1956693Y1798602D02*
Y1813602D01*
X2031866Y1566926D02*
X2046866D01*
X2039366Y1559426D02*
Y1574426D01*
X3518090Y1319354D02*
X3533090D01*
X3525590Y1311854D02*
Y1326854D01*
X3417697Y1321071D02*
X3432697D01*
X3425197Y1313571D02*
Y1328571D01*
X2392810Y818898D02*
X2407810D01*
X2400310Y811398D02*
Y826398D01*
X2484626Y836402D02*
X2499626D01*
X2492126Y828902D02*
Y843902D01*
X2807461Y1535433D02*
X2822461D01*
X2814961Y1527933D02*
Y1542933D01*
X2931150Y1775591D02*
X2946150D01*
X2938650Y1768091D02*
Y1783091D01*
X2881075Y1657480D02*
X2896075D01*
X2888575Y1649980D02*
Y1664980D01*
X2937382Y1728347D02*
X2952382D01*
X2944882Y1720847D02*
Y1735847D01*
X2972815Y1648459D02*
X2987815D01*
X2980315Y1640959D02*
Y1655959D01*
X2850138Y1696850D02*
X2865138D01*
X2857638Y1689350D02*
Y1704350D01*
X2832138Y1742126D02*
X2847138D01*
X2839638Y1734626D02*
Y1749626D01*
X2881075Y1607447D02*
X2896075D01*
X2888575Y1599947D02*
Y1614947D01*
X2972815Y1549213D02*
X2987815D01*
X2980315Y1541713D02*
Y1556713D01*
X2883638Y2078937D02*
X2911638D01*
X2897638Y2064937D02*
Y2092937D01*
X3606673Y2015748D02*
X3621673D01*
X3614173Y2008248D02*
Y2023248D01*
X3740532Y2000756D02*
X3755532D01*
X3748032Y1993256D02*
Y2008256D01*
X3929508Y1988189D02*
X3944508D01*
X3937008Y1980689D02*
Y1995689D01*
X4149980Y1952756D02*
X4164980D01*
X4157480Y1945256D02*
Y1960256D01*
X2701786Y2061063D02*
X2716786D01*
X2709286Y2053563D02*
Y2068563D01*
X2756274Y2133854D02*
X2771274D01*
X2763774Y2126354D02*
Y2141354D01*
X2752343Y2185039D02*
X2767343D01*
X2759843Y2177539D02*
Y2192539D01*
X2791523Y2240157D02*
X2806523D01*
X2799023Y2232657D02*
Y2247657D01*
X2716909Y2251968D02*
X2731909D01*
X2724409Y2244468D02*
Y2259468D01*
X2787770Y2066925D02*
X2802770D01*
X2795270Y2059425D02*
Y2074425D01*
X2788569Y2109443D02*
X2803569D01*
X2796069Y2101943D02*
Y2116943D01*
X2705098Y1940945D02*
X2720098D01*
X2712598Y1933445D02*
Y1948445D01*
X2649980Y1909449D02*
X2664980D01*
X2657480Y1901949D02*
Y1916949D01*
X2594862Y1803150D02*
X2609862D01*
X2602362Y1795650D02*
Y1810650D01*
X2783839Y2023622D02*
X2798839D01*
X2791339Y2016122D02*
Y2031122D01*
X2487307Y2094488D02*
X2502307D01*
X2494807Y2086988D02*
Y2101988D01*
X2701161Y1425197D02*
X2716161D01*
X2708661Y1417697D02*
Y1432697D01*
X2651851Y2212598D02*
X2666851D01*
X2659351Y2205098D02*
Y2220098D01*
X2544432Y1641732D02*
X2559432D01*
X2551932Y1634232D02*
Y1649232D01*
X1775965Y1480315D02*
X1790965D01*
X1783465Y1472815D02*
Y1487815D01*
X2075177Y1574803D02*
X2090177D01*
X2082677Y1567303D02*
Y1582303D01*
X1862378Y1570866D02*
X1877378D01*
X1869878Y1563366D02*
Y1578366D01*
X2035807Y1736220D02*
X2050807D01*
X2043307Y1728720D02*
Y1743720D01*
X2149980Y1633858D02*
X2164980D01*
X2157480Y1626358D02*
Y1641358D01*
X2227838Y1685039D02*
X2242838D01*
X2235338Y1677539D02*
Y1692539D01*
X2205098Y1748032D02*
X2220098D01*
X2212598Y1740532D02*
Y1755532D01*
X2183839Y1669291D02*
X2198839D01*
X2191339Y1661791D02*
Y1676791D01*
X2165728Y1539370D02*
X2180728D01*
X2173228Y1531870D02*
Y1546870D01*
X3146043Y795276D02*
X3161043D01*
X3153543Y787776D02*
Y802776D01*
X3086988Y1157480D02*
X3101988D01*
X3094488Y1149980D02*
Y1164980D01*
X2870453Y1169291D02*
X2885453D01*
X2877953Y1161791D02*
Y1176791D01*
X2772028Y1370079D02*
X2787028D01*
X2779528Y1362579D02*
Y1377579D01*
X2775965Y1413386D02*
X2790965D01*
X2783465Y1405886D02*
Y1420886D01*
X2434774Y1748936D02*
X2449774D01*
X2442274Y1741436D02*
Y1756436D01*
X2469503Y1717913D02*
X2484503D01*
X2477003Y1710413D02*
Y1725413D01*
X2520059Y1687488D02*
X2535059D01*
X2527559Y1679988D02*
Y1694988D01*
X2264437Y1744488D02*
X2279437D01*
X2271937Y1736988D02*
Y1751988D01*
X2241720Y1780716D02*
X2256720D01*
X2249220Y1773216D02*
Y1788216D01*
X3567303Y1157480D02*
X3582303D01*
X3574803Y1149980D02*
Y1164980D01*
X3567303Y1302354D02*
X3582303D01*
X3574803Y1294854D02*
Y1309854D01*
X2496432Y1425194D02*
X2511432D01*
X2503932Y1417694D02*
Y1432694D01*
X2434819Y1318280D02*
X2462819D01*
X2448819Y1304280D02*
Y1332280D01*
X2586988Y1389764D02*
X2601988D01*
X2594488Y1382264D02*
Y1397264D01*
X3799587Y1145669D02*
X3814587D01*
X3807087Y1138169D02*
Y1153169D01*
X3772028Y1082677D02*
X3787028D01*
X3779528Y1075177D02*
Y1090177D01*
X2366511Y1181107D02*
X2381511D01*
X2374011Y1173607D02*
Y1188607D01*
X2366511Y1374013D02*
X2381511D01*
X2374011Y1366513D02*
Y1381513D01*
X2390133Y1417320D02*
X2405133D01*
X2397633Y1409820D02*
Y1424820D01*
X2367899Y1500993D02*
X2382899D01*
X2375399Y1493493D02*
Y1508493D01*
X2401949Y1212598D02*
X2416949D01*
X2409449Y1205098D02*
Y1220098D01*
X2283834Y1535430D02*
X2298834D01*
X2291334Y1527930D02*
Y1542930D01*
X2299582Y1476375D02*
X2314582D01*
X2307082Y1468875D02*
Y1483875D01*
X2256280Y1476378D02*
X2271280D01*
X2263780Y1468878D02*
Y1483878D01*
X2324319Y1514640D02*
X2339319D01*
X2331819Y1507140D02*
Y1522140D01*
X1933445Y397638D02*
X1948445D01*
X1940945Y390138D02*
Y405138D01*
X2212968Y1330706D02*
X2227968D01*
X2220468Y1323206D02*
Y1338206D01*
X2287776Y1370079D02*
X2302776D01*
X2295276Y1362579D02*
Y1377579D01*
X1982421Y374016D02*
X1997421D01*
X1989921Y366516D02*
Y381516D01*
X2430882Y1165354D02*
X2458882D01*
X2444882Y1151354D02*
Y1179354D01*
X2240532Y1862205D02*
X2255532D01*
X2248032Y1854705D02*
Y1869705D01*
X2661791Y1650591D02*
X2676791D01*
X2669291Y1643091D02*
Y1658091D01*
X2630295Y1771653D02*
X2645295D01*
X2637795Y1764153D02*
Y1779153D01*
X2559429Y1830709D02*
X2574429D01*
X2566929Y1823209D02*
Y1838209D01*
X2527933Y1862205D02*
X2542933D01*
X2535433Y1854705D02*
Y1869705D01*
X2527933Y1925197D02*
X2542933D01*
X2535433Y1917697D02*
Y1932697D01*
X1957067Y1614173D02*
X1972067D01*
X1964567Y1606673D02*
Y1621673D01*
X2740532Y1586614D02*
X2755532D01*
X2748032Y1579114D02*
Y1594114D01*
X2189350Y1899606D02*
X2204350D01*
X2196850Y1892106D02*
Y1907106D01*
X1961004Y1933071D02*
X1976004D01*
X1968504Y1925571D02*
Y1940571D01*
X1891201Y1974197D02*
X1906201D01*
X1898701Y1966697D02*
Y1981697D01*
X2149980Y1940945D02*
X2164980D01*
X2157480Y1933445D02*
Y1948445D01*
X1996437Y1811024D02*
X2011437D01*
X2003937Y1803524D02*
Y1818524D01*
X1898012Y1877953D02*
X1913012D01*
X1905512Y1870453D02*
Y1885453D01*
X1888662Y1925197D02*
X1903662D01*
X1896162Y1917697D02*
Y1932697D01*
X1403323Y1751968D02*
X1431323D01*
X1417323Y1737968D02*
Y1765968D01*
X1157854Y2035433D02*
X1172854D01*
X1165354Y2027933D02*
Y2042933D01*
X1009622Y1941929D02*
X1037622D01*
X1023622Y1927929D02*
Y1955929D01*
X2835020Y2232284D02*
X2850020D01*
X2842520Y2224784D02*
Y2239784D01*
X2561870Y1893701D02*
X2576870D01*
X2569370Y1886201D02*
Y1901201D01*
X1324583Y1894685D02*
X1352583D01*
X1338583Y1880685D02*
Y1908685D01*
X1351158Y1522638D02*
X1379158D01*
X1365158Y1508638D02*
Y1536638D01*
X1442693Y1574803D02*
X1470693D01*
X1456693Y1560803D02*
Y1588803D01*
%TF.MD5,df24c91e2a4faff5012a7e139066505b*%
M02*
