%TF.GenerationSoftware,Altium Limited,Altium Designer,18.1.9 (240)*%
G04 Layer_Color=32896*
%FSLAX26Y26*%
%MOIN*%
%TF.FileFunction,Legend,Bot*%
%TF.Part,Single*%
G01*
G75*
%TA.AperFunction,NonConductor*%
%ADD28C,0.003937*%
%ADD53C,0.009842*%
%ADD54C,0.023622*%
%ADD55C,0.007874*%
%ADD56C,0.010000*%
%ADD57C,0.005906*%
G36*
X3878106Y1801803D02*
Y1801147D01*
Y1800491D01*
X3878762Y1798523D01*
Y1795899D01*
X3879419Y1789994D01*
X3880075Y1783433D01*
X3881387Y1776216D01*
X3882043Y1770311D01*
Y1767686D01*
X3882699Y1765718D01*
Y1765062D01*
Y1764406D01*
X3883355Y1757845D01*
X3884011Y1752596D01*
X3884667Y1747347D01*
Y1743410D01*
X3885979Y1736850D01*
Y1732257D01*
X3886636Y1729632D01*
Y1728320D01*
Y1727664D01*
Y1726352D01*
X3875482D01*
Y1727664D01*
Y1728320D01*
X3874826Y1729632D01*
X3874170Y1732913D01*
X3873514Y1738162D01*
X3872858Y1743410D01*
X3872201Y1749315D01*
X3871545Y1753908D01*
X3870889Y1757189D01*
Y1758501D01*
X3870233Y1763750D01*
X3869577Y1768342D01*
X3868921Y1775559D01*
X3868265Y1781464D01*
Y1784745D01*
X3867609Y1787369D01*
Y1788681D01*
X3866953Y1787369D01*
X3866296Y1785401D01*
Y1784745D01*
X3864984Y1781464D01*
X3863672Y1777528D01*
X3863016Y1774903D01*
X3862360Y1774247D01*
Y1773591D01*
X3860392Y1768342D01*
X3858423Y1763093D01*
X3857111Y1759813D01*
X3856455Y1759157D01*
Y1758501D01*
X3845957Y1727664D01*
X3811840D01*
X3807247Y1764406D01*
X3805935Y1770967D01*
X3805279Y1776872D01*
X3804623Y1781464D01*
Y1782120D01*
Y1782776D01*
X3803967Y1788681D01*
X3803311Y1793274D01*
Y1795899D01*
Y1796555D01*
X3802655Y1799835D01*
Y1801147D01*
Y1801803D01*
X3803311Y1802459D01*
X3805279Y1803116D01*
X3813809D01*
X3814465Y1802459D01*
Y1801803D01*
Y1801147D01*
X3815121Y1797211D01*
X3815777Y1792618D01*
Y1786713D01*
X3816433Y1781464D01*
X3817089Y1776216D01*
X3817745Y1772935D01*
Y1772279D01*
Y1771623D01*
X3818401Y1766374D01*
X3819057Y1761781D01*
X3819713Y1753908D01*
X3820369Y1748659D01*
X3821026Y1745379D01*
Y1742754D01*
X3821682Y1742098D01*
Y1741442D01*
X3822338Y1742098D01*
X3822994Y1743410D01*
X3823650Y1744067D01*
Y1744723D01*
X3824306Y1748003D01*
X3824962Y1751284D01*
X3825618Y1753908D01*
X3826274Y1754564D01*
X3827587Y1759157D01*
X3829555Y1763093D01*
X3830211Y1766374D01*
X3830867Y1767686D01*
X3832179Y1772279D01*
X3834148Y1776216D01*
X3834804Y1779496D01*
X3835460Y1780808D01*
X3837428Y1785401D01*
X3838084Y1789338D01*
X3839396Y1791306D01*
Y1791962D01*
X3840052Y1794586D01*
X3840709Y1796555D01*
Y1797211D01*
X3842677Y1803116D01*
X3877450D01*
X3878106Y1801803D01*
D02*
G37*
G36*
X3764601Y1802459D02*
X3769850D01*
X3771162Y1801803D01*
X3773786D01*
X3775099Y1801147D01*
X3776411Y1800491D01*
X3777067Y1799835D01*
X3781003Y1795899D01*
X3783628Y1791962D01*
X3784940Y1788025D01*
X3785596Y1787369D01*
Y1786713D01*
Y1785401D01*
X3786252Y1782776D01*
X3786908Y1778840D01*
Y1774903D01*
X3787564Y1770967D01*
X3788221Y1767686D01*
X3788877Y1765062D01*
Y1764406D01*
X3789533Y1756533D01*
X3790189Y1750628D01*
Y1746035D01*
Y1742754D01*
Y1740130D01*
Y1738818D01*
Y1738162D01*
X3789533Y1734881D01*
X3788221Y1732913D01*
X3785596Y1729632D01*
X3782972Y1728320D01*
X3781660Y1727664D01*
X3779691Y1727008D01*
X3770506D01*
X3765257Y1726352D01*
X3727859D01*
X3724579Y1727008D01*
X3720642D01*
Y1728320D01*
X3719986Y1730945D01*
Y1734225D01*
X3719330Y1738162D01*
X3718674Y1742754D01*
Y1746035D01*
X3718018Y1748659D01*
Y1749315D01*
X3716706Y1756533D01*
X3716050Y1761781D01*
X3715394Y1765718D01*
Y1768342D01*
X3714737Y1769655D01*
Y1770967D01*
X3715394D01*
X3718018Y1771623D01*
X3756072D01*
X3756728Y1766374D01*
X3757384Y1763093D01*
Y1761125D01*
Y1760469D01*
Y1759157D01*
X3743606D01*
Y1755220D01*
X3744262Y1751284D01*
Y1748659D01*
X3744918Y1746035D01*
X3745574Y1743410D01*
X3746230Y1742754D01*
X3747542Y1740786D01*
X3748198Y1740130D01*
X3748855D01*
X3750167Y1739474D01*
X3752791Y1738818D01*
X3761977D01*
X3762633Y1740130D01*
X3763945Y1741442D01*
X3764601Y1742098D01*
Y1742754D01*
Y1744067D01*
X3763945Y1746691D01*
Y1749972D01*
X3763289Y1753908D01*
X3762633Y1757845D01*
Y1761125D01*
X3761977Y1763750D01*
Y1764406D01*
X3761320Y1771623D01*
X3760664Y1776872D01*
X3760008Y1780808D01*
X3759352Y1783433D01*
Y1785401D01*
Y1786057D01*
Y1786713D01*
X3758040Y1788681D01*
X3756728Y1789338D01*
X3756072Y1790650D01*
X3716706D01*
X3716050Y1795899D01*
X3715394Y1799179D01*
X3714737Y1801147D01*
Y1801803D01*
Y1803116D01*
X3759352D01*
X3764601Y1802459D01*
D02*
G37*
G36*
X4582758Y1801803D02*
Y1801147D01*
Y1800491D01*
X4583414Y1798523D01*
Y1795899D01*
X4584070Y1789994D01*
X4584726Y1783433D01*
X4586038Y1776216D01*
X4586694Y1770311D01*
Y1767686D01*
X4587350Y1765718D01*
Y1765062D01*
Y1764406D01*
X4588007Y1758501D01*
X4588663Y1752596D01*
X4589319Y1748003D01*
X4589975Y1744067D01*
X4590631Y1737506D01*
X4591287Y1732913D01*
X4591943Y1730289D01*
Y1728320D01*
Y1727664D01*
Y1726352D01*
X4201564D01*
X4196971Y1763750D01*
X4196315Y1770311D01*
X4195659Y1776216D01*
X4195003Y1781464D01*
X4194346Y1785401D01*
X4193690Y1791962D01*
X4193034Y1796555D01*
X4192378Y1799835D01*
Y1801147D01*
Y1801803D01*
X4191722Y1803116D01*
X4582758D01*
Y1801803D01*
D02*
G37*
G36*
X4181881D02*
Y1801147D01*
X4182537Y1799835D01*
X4183193Y1795899D01*
X4183849Y1789994D01*
X4184505Y1782776D01*
X4185817Y1776216D01*
X4186473Y1770311D01*
X4187129Y1765718D01*
Y1765062D01*
Y1764406D01*
X4187785Y1757845D01*
X4188442Y1752596D01*
X4189098Y1747347D01*
X4189754Y1743410D01*
X4190410Y1736850D01*
X4191066Y1732257D01*
X4191722Y1729632D01*
Y1728320D01*
Y1727664D01*
Y1726352D01*
X4164822D01*
Y1727008D01*
Y1727664D01*
Y1728320D01*
X4164166Y1732913D01*
Y1734225D01*
Y1734881D01*
X4163510Y1737506D01*
X4162854Y1740130D01*
X4162198Y1742098D01*
Y1742754D01*
X4161542Y1748003D01*
Y1751940D01*
X4160885Y1754564D01*
Y1756533D01*
Y1757845D01*
Y1758501D01*
X4160229Y1759157D01*
X4152356D01*
X4148419Y1744067D01*
Y1742098D01*
X4147763Y1739474D01*
X4147107Y1737506D01*
Y1736850D01*
X4146451Y1734225D01*
X4145795Y1732257D01*
X4145139Y1730945D01*
Y1730289D01*
X4144483Y1728976D01*
Y1728320D01*
X4143827Y1726352D01*
X4114302D01*
Y1727008D01*
X4114958Y1728976D01*
X4116271Y1731601D01*
X4116927Y1734881D01*
X4118239Y1737506D01*
X4119551Y1740130D01*
X4120207Y1742098D01*
Y1742754D01*
X4122176Y1748003D01*
X4123488Y1751940D01*
X4124144Y1755220D01*
X4124800Y1757189D01*
X4125456Y1758501D01*
Y1759157D01*
X4123488D01*
X4119551Y1760469D01*
X4116271Y1762437D01*
X4114958Y1763750D01*
X4114302Y1764406D01*
Y1765718D01*
X4113646Y1767686D01*
Y1772279D01*
X4112990Y1776872D01*
Y1778184D01*
Y1778840D01*
X4112334Y1784089D01*
Y1788025D01*
Y1790650D01*
Y1793274D01*
Y1794586D01*
X4112990Y1795899D01*
Y1796555D01*
X4114302Y1798523D01*
X4116271Y1800491D01*
X4118239Y1801147D01*
X4118895Y1801803D01*
X4151700D01*
X4181881Y1803116D01*
Y1801803D01*
D02*
G37*
G36*
X4065751Y1801147D02*
X4072968Y1788025D01*
X4079529Y1776872D01*
X4085434Y1767030D01*
X4090027Y1758501D01*
X4093963Y1751284D01*
X4097244Y1745379D01*
X4100524Y1740786D01*
X4102493Y1736193D01*
X4104461Y1733569D01*
X4105773Y1730945D01*
X4107085Y1727664D01*
X4107741Y1726352D01*
X4095275D01*
X4088714Y1736193D01*
X4083466Y1746691D01*
X4052629D01*
Y1746035D01*
Y1745379D01*
X4051973Y1744723D01*
X4051317Y1741442D01*
X4050661Y1737506D01*
X4050005Y1736850D01*
Y1736193D01*
X4047380Y1726352D01*
X4019168D01*
X4020480Y1732913D01*
Y1734225D01*
X4021136Y1736193D01*
X4021792Y1738162D01*
Y1738818D01*
X4023104Y1743410D01*
X4024417Y1748003D01*
X4025073Y1751940D01*
X4025729Y1752596D01*
Y1753252D01*
X4027041Y1759813D01*
X4029009Y1765718D01*
X4029665Y1768998D01*
X4030322Y1770311D01*
X4038195Y1803116D01*
X4065095D01*
X4065751Y1801147D01*
D02*
G37*
G36*
X3993580Y1801803D02*
X3996860Y1799835D01*
X4000797Y1795242D01*
X4003421Y1791306D01*
X4004077Y1789994D01*
Y1789338D01*
Y1787369D01*
X4004734Y1784089D01*
X4005390Y1780152D01*
X4006046Y1775559D01*
X4006702Y1770967D01*
Y1767686D01*
X4007358Y1765062D01*
Y1763750D01*
X4008014Y1757189D01*
X4008670Y1751284D01*
X4009326Y1747347D01*
Y1744723D01*
X4009982Y1742754D01*
Y1741442D01*
Y1740786D01*
X4008670Y1736193D01*
X4007358Y1732913D01*
X4006046Y1730945D01*
X4005390Y1730289D01*
X4003421Y1728976D01*
X4002765Y1728320D01*
X4000797Y1727664D01*
X3996860Y1727008D01*
X3992268D01*
X3987675Y1726352D01*
X3951590D01*
X3950933Y1732913D01*
X3950277Y1736193D01*
X3949621Y1738162D01*
Y1738818D01*
Y1740130D01*
X3981770D01*
X3982426Y1740786D01*
Y1741442D01*
X3983738Y1742754D01*
X3980458Y1764406D01*
X3979802Y1771623D01*
X3978490Y1777528D01*
Y1781464D01*
X3977834Y1784089D01*
X3977177Y1785401D01*
Y1786713D01*
X3976521Y1788025D01*
X3975865Y1788681D01*
X3975209Y1789338D01*
X3974553Y1789994D01*
X3972585D01*
X3969960Y1790650D01*
X3944372D01*
X3943716Y1795242D01*
Y1798523D01*
Y1801147D01*
Y1801803D01*
Y1803116D01*
X3990299D01*
X3993580Y1801803D01*
D02*
G37*
G36*
X3928626Y1765718D02*
X3929282Y1759157D01*
X3929938Y1753252D01*
X3930594Y1748659D01*
X3931250Y1744067D01*
X3932563Y1737506D01*
X3933219Y1732913D01*
Y1730289D01*
X3933875Y1728320D01*
Y1727664D01*
Y1726352D01*
X3909599D01*
X3907631Y1727008D01*
X3906319D01*
Y1727664D01*
Y1728976D01*
X3905662Y1732913D01*
X3905006Y1739474D01*
X3904350Y1746035D01*
X3903694Y1752596D01*
X3903038Y1758501D01*
X3902382Y1763093D01*
Y1763750D01*
Y1764406D01*
X3901726Y1770967D01*
X3901070Y1776872D01*
X3900414Y1781464D01*
X3899758Y1786057D01*
X3899102Y1789994D01*
Y1792618D01*
X3898445Y1797211D01*
X3897789Y1799835D01*
Y1801147D01*
Y1801803D01*
Y1803116D01*
X3924033D01*
X3928626Y1765718D01*
D02*
G37*
G36*
X4573572Y1707981D02*
Y1704701D01*
X4574228Y1702076D01*
Y1700108D01*
Y1698796D01*
Y1697484D01*
Y1696827D01*
X4596536D01*
X4597192Y1686986D01*
Y1683705D01*
X4597848Y1682393D01*
Y1681737D01*
Y1678457D01*
X4598504Y1677801D01*
Y1677144D01*
X4599160Y1675832D01*
Y1674520D01*
X4576853D01*
X4576197Y1685018D01*
X4575541Y1688954D01*
X4574885Y1692891D01*
X4574228Y1695515D01*
Y1696827D01*
X4554545D01*
X4553233Y1696171D01*
Y1695515D01*
Y1694203D01*
X4553889Y1690266D01*
X4554545Y1686986D01*
Y1685674D01*
Y1685018D01*
X4555202Y1681737D01*
Y1679113D01*
Y1677144D01*
X4555858Y1675832D01*
Y1674520D01*
X4533550D01*
X4532894Y1685674D01*
X4532238Y1689610D01*
X4531582Y1692235D01*
Y1694203D01*
X4530926Y1695515D01*
Y1696827D01*
X4509275D01*
Y1696171D01*
Y1694859D01*
X4509931Y1691579D01*
X4510587Y1687642D01*
Y1686330D01*
Y1685674D01*
X4511243Y1682393D01*
Y1679769D01*
Y1677801D01*
X4511899Y1676488D01*
Y1674520D01*
X4490248D01*
Y1675176D01*
Y1676488D01*
X4489592Y1679769D01*
X4488935Y1683705D01*
Y1684361D01*
Y1685018D01*
X4488279Y1688298D01*
Y1690922D01*
X4487623Y1692891D01*
Y1694859D01*
Y1696171D01*
X4486967D01*
X4485655Y1696827D01*
X4465972D01*
Y1697484D01*
Y1698796D01*
X4465316Y1702076D01*
X4464660Y1706013D01*
Y1706669D01*
Y1707325D01*
X4464004Y1710605D01*
Y1713230D01*
X4463347Y1715198D01*
Y1716510D01*
Y1717823D01*
X4464004D01*
X4465316Y1718479D01*
X4484999D01*
Y1717823D01*
Y1717167D01*
X4485655Y1713230D01*
X4486311Y1709949D01*
Y1708637D01*
Y1707981D01*
X4487623Y1697484D01*
X4498121D01*
X4508618Y1696827D01*
X4507962Y1707325D01*
X4507306Y1710605D01*
Y1713230D01*
X4506650Y1715198D01*
Y1716510D01*
Y1717823D01*
X4505994Y1718479D01*
X4528301D01*
Y1717823D01*
Y1717167D01*
X4528958Y1713230D01*
X4529614Y1709949D01*
Y1708637D01*
Y1707981D01*
X4530270Y1704701D01*
Y1702076D01*
Y1700108D01*
X4530926Y1698796D01*
Y1696827D01*
X4549297D01*
X4550609Y1697484D01*
X4551921D01*
Y1700108D01*
Y1702732D01*
X4551265Y1709949D01*
Y1712574D01*
X4550609Y1715198D01*
Y1717167D01*
Y1717823D01*
X4549297Y1718479D01*
X4571604D01*
X4573572Y1707981D01*
D02*
G37*
G36*
X4443008D02*
X4443664Y1704701D01*
Y1702076D01*
Y1700108D01*
X4444321Y1698796D01*
Y1697484D01*
Y1696827D01*
X4465972D01*
Y1694203D01*
X4466628Y1690922D01*
X4467284Y1683705D01*
X4467940Y1680425D01*
Y1677801D01*
X4468596Y1675832D01*
Y1675176D01*
Y1674520D01*
X4446945D01*
X4445633Y1685018D01*
X4444977Y1688298D01*
Y1690922D01*
X4444321Y1692891D01*
Y1694203D01*
Y1695515D01*
Y1696827D01*
X4423981D01*
X4422669Y1696171D01*
Y1695515D01*
Y1694203D01*
X4423325Y1690266D01*
X4423981Y1686986D01*
Y1685674D01*
Y1685018D01*
X4424638Y1681737D01*
Y1679113D01*
Y1677144D01*
X4425294Y1675832D01*
Y1674520D01*
X4402986D01*
X4402330Y1685018D01*
X4401674Y1688298D01*
X4401018Y1691579D01*
Y1693547D01*
X4400362Y1694859D01*
Y1696171D01*
Y1696827D01*
X4379367D01*
Y1696171D01*
Y1694859D01*
X4380023Y1691579D01*
X4380679Y1687642D01*
Y1686330D01*
Y1685674D01*
X4381335Y1682393D01*
Y1679769D01*
Y1677801D01*
X4381991Y1676488D01*
Y1674520D01*
X4359684D01*
Y1675176D01*
Y1677801D01*
X4359028Y1681081D01*
Y1684361D01*
Y1685018D01*
Y1685674D01*
X4358372Y1688954D01*
X4357715Y1691579D01*
X4357059Y1694859D01*
Y1696171D01*
Y1696827D01*
X4336064D01*
Y1697484D01*
X4335408Y1698140D01*
Y1699452D01*
X4334752Y1702732D01*
X4334096Y1706669D01*
Y1707325D01*
Y1707981D01*
Y1711262D01*
X4333440Y1713886D01*
Y1715198D01*
Y1716510D01*
Y1717823D01*
Y1718479D01*
X4354435D01*
Y1717823D01*
Y1717167D01*
X4355091Y1713230D01*
X4355747Y1709949D01*
Y1708637D01*
Y1707981D01*
X4356403Y1704701D01*
Y1702076D01*
Y1700108D01*
X4357059Y1698796D01*
Y1696827D01*
X4376742D01*
X4378055Y1697484D01*
X4379367D01*
Y1700108D01*
X4378711Y1703388D01*
X4378055Y1709949D01*
X4377398Y1713230D01*
Y1715198D01*
X4376742Y1717167D01*
Y1717823D01*
Y1718479D01*
X4397738D01*
Y1715854D01*
X4398394Y1713230D01*
X4399050Y1706013D01*
X4399706Y1702732D01*
Y1700108D01*
X4400362Y1698140D01*
Y1697484D01*
Y1696827D01*
X4420045D01*
X4421357Y1697484D01*
X4422669D01*
Y1698796D01*
X4422013Y1701420D01*
Y1704701D01*
X4421357Y1708637D01*
X4420701Y1711918D01*
Y1715198D01*
X4420045Y1717167D01*
Y1717823D01*
Y1718479D01*
X4441040D01*
X4443008Y1707981D01*
D02*
G37*
G36*
X4311132Y1717823D02*
Y1717167D01*
X4311788Y1716510D01*
X4312444Y1712574D01*
X4313101Y1709293D01*
Y1707981D01*
Y1707325D01*
X4313757Y1696827D01*
X4336064D01*
Y1695515D01*
X4336720Y1690266D01*
X4337376Y1685674D01*
X4338032Y1682393D01*
Y1679769D01*
X4338689Y1677801D01*
Y1676488D01*
Y1675176D01*
Y1674520D01*
X4316381D01*
Y1675176D01*
Y1675832D01*
Y1677144D01*
X4315725Y1680425D01*
Y1684361D01*
Y1685018D01*
Y1685674D01*
X4313757Y1696827D01*
X4292761D01*
Y1697484D01*
X4292105Y1702732D01*
X4291449Y1707325D01*
X4290793Y1710605D01*
X4290137Y1713886D01*
Y1715854D01*
Y1717167D01*
Y1718479D01*
X4311132D01*
Y1717823D01*
D02*
G37*
G36*
X4268486D02*
Y1716510D01*
X4269142Y1713230D01*
X4269798Y1709293D01*
Y1708637D01*
Y1707981D01*
X4270454Y1702732D01*
Y1699452D01*
Y1698140D01*
Y1697484D01*
X4271110Y1696827D01*
X4292761D01*
Y1696171D01*
Y1694859D01*
X4293418Y1690922D01*
X4294074Y1686986D01*
Y1686330D01*
Y1685674D01*
X4294730Y1682393D01*
Y1679769D01*
Y1677801D01*
X4295386Y1676488D01*
Y1675176D01*
Y1674520D01*
X4273078D01*
Y1675176D01*
Y1676488D01*
X4272422Y1680425D01*
Y1684361D01*
Y1685018D01*
Y1685674D01*
X4270454Y1696827D01*
X4249459D01*
Y1697484D01*
Y1698796D01*
X4248803Y1702732D01*
X4248147Y1706669D01*
Y1707325D01*
Y1707981D01*
X4247491Y1711262D01*
X4246834Y1713886D01*
Y1715854D01*
X4246178Y1717167D01*
Y1718479D01*
X4268486D01*
Y1717823D01*
D02*
G37*
G36*
X4225839Y1707981D02*
X4226495Y1704701D01*
Y1702076D01*
Y1700108D01*
X4227151Y1698796D01*
Y1697484D01*
X4227808Y1696827D01*
X4249459D01*
Y1696171D01*
Y1694859D01*
X4250115Y1690922D01*
X4250771Y1686986D01*
Y1686330D01*
Y1685674D01*
X4251427Y1682393D01*
Y1679769D01*
Y1677801D01*
X4252083Y1676488D01*
Y1675176D01*
Y1674520D01*
X4229776D01*
Y1675176D01*
Y1676488D01*
X4229120Y1680425D01*
X4228464Y1684361D01*
Y1685018D01*
Y1685674D01*
X4227808Y1689610D01*
Y1692235D01*
X4227151Y1694203D01*
Y1695515D01*
Y1696827D01*
X4205500D01*
X4204188Y1707325D01*
X4203532Y1711262D01*
Y1711918D01*
Y1712574D01*
X4202876Y1715854D01*
Y1716510D01*
Y1717823D01*
Y1718479D01*
X4224527D01*
X4225839Y1707981D01*
D02*
G37*
G36*
X4192378Y1717823D02*
X4194346Y1706669D01*
X4195659Y1696827D01*
X4196315Y1689610D01*
X4196971Y1683705D01*
X4197627Y1679769D01*
Y1677144D01*
Y1675832D01*
Y1675176D01*
Y1674520D01*
X3727203D01*
Y1675176D01*
X3725235Y1686330D01*
X3723923Y1695515D01*
X3723267Y1702732D01*
X3722611Y1708637D01*
X3721954Y1712574D01*
Y1715854D01*
Y1717167D01*
Y1717823D01*
X3743606D01*
X3750823Y1718479D01*
X4192378D01*
Y1717823D01*
D02*
G37*
G36*
X4559794Y1659430D02*
X4591287D01*
X4584070Y1658774D01*
X4565699D01*
X4554545Y1658118D01*
X4542079D01*
X4528301Y1657461D01*
X4513867D01*
X4498121Y1656805D01*
X4481718D01*
X4448257Y1655493D01*
X4412828Y1654837D01*
X4378055Y1654181D01*
X4344593Y1652869D01*
X4328191D01*
X4312444Y1652213D01*
X4298010D01*
X4284232Y1651556D01*
X4271766D01*
X4260613Y1650900D01*
X4242242D01*
X4235025Y1650244D01*
X4225839D01*
X3851206Y1641715D01*
X3832835Y1650244D01*
X3826930Y1653525D01*
X3822338Y1655493D01*
X3819057Y1657461D01*
X3816433Y1658118D01*
X3815121Y1658774D01*
X3814465Y1659430D01*
X3850550D01*
X3862360Y1660086D01*
X4551265D01*
X4559794Y1659430D01*
D02*
G37*
G36*
X3812496Y1650244D02*
X3817745Y1648276D01*
X3821682Y1646308D01*
X3824962Y1644995D01*
X3825618Y1644339D01*
X3828899Y1643027D01*
X3830211Y1642371D01*
X3830867Y1641715D01*
X3829555D01*
X3825618Y1641059D01*
X3822338Y1640403D01*
X3810528D01*
X3791501Y1650244D01*
X3784940Y1653525D01*
X3780347Y1655493D01*
X3776411Y1657461D01*
X3774443Y1658118D01*
X3773130Y1658774D01*
X3771818Y1659430D01*
X3772474D01*
X3773130Y1660086D01*
X3792813D01*
X3812496Y1650244D01*
D02*
G37*
G36*
X3771162D02*
X3777723Y1646964D01*
X3782316Y1644339D01*
X3785596Y1643027D01*
X3787564Y1641715D01*
X3788877Y1641059D01*
X3790189Y1640403D01*
X3783628D01*
X3780347Y1639747D01*
X3771162D01*
X3749511Y1649588D01*
X3742950Y1652869D01*
X3737701Y1655493D01*
X3734420Y1656805D01*
X3731796Y1658118D01*
X3730484Y1658774D01*
X3729172Y1659430D01*
X3729828D01*
X3730484Y1660086D01*
X3750167D01*
X3771162Y1650244D01*
D02*
G37*
G36*
X1162166Y1866595D02*
X1162388Y1865541D01*
X1162610Y1864542D01*
X1162777Y1863709D01*
X1162888Y1863376D01*
X1162943Y1863043D01*
X1162999Y1862821D01*
Y1862655D01*
X1163054Y1862543D01*
Y1862488D01*
X1163276Y1862765D01*
X1163609Y1863043D01*
X1164331Y1863709D01*
X1165108Y1864430D01*
X1165940Y1865152D01*
X1166717Y1865818D01*
X1167383Y1866318D01*
X1167661Y1866540D01*
X1167827Y1866706D01*
X1167938Y1866762D01*
X1167994Y1866817D01*
X1170158Y1863764D01*
X1169381Y1863209D01*
X1168493Y1862599D01*
X1167550Y1862044D01*
X1166662Y1861489D01*
X1165885Y1861045D01*
X1165219Y1860712D01*
X1164941Y1860545D01*
X1164775Y1860435D01*
X1164664Y1860379D01*
X1164608D01*
X1165829Y1859658D01*
X1166939Y1858936D01*
X1167883Y1858325D01*
X1168715Y1857826D01*
X1169326Y1857382D01*
X1169770Y1857049D01*
X1170047Y1856827D01*
X1170158Y1856772D01*
X1167994Y1853664D01*
X1166773Y1854662D01*
X1165718Y1855606D01*
X1164886Y1856328D01*
X1164164Y1856994D01*
X1163665Y1857493D01*
X1163332Y1857881D01*
X1163110Y1858103D01*
X1163054Y1858159D01*
X1162888Y1856938D01*
X1162666Y1855773D01*
X1162388Y1854662D01*
X1162166Y1853664D01*
X1161944Y1852831D01*
X1161833Y1852498D01*
X1161722Y1852165D01*
X1161667Y1851943D01*
X1161611Y1851776D01*
X1161556Y1851666D01*
Y1851610D01*
X1157837Y1852831D01*
X1158281Y1854108D01*
X1158725Y1855273D01*
X1159169Y1856328D01*
X1159558Y1857216D01*
X1159891Y1857937D01*
X1160168Y1858492D01*
X1160279Y1858714D01*
X1160335Y1858880D01*
X1160390Y1858936D01*
Y1858992D01*
X1159003Y1858825D01*
X1157726Y1858659D01*
X1156561Y1858603D01*
X1155617Y1858492D01*
X1154896Y1858437D01*
X1154285Y1858381D01*
X1154119D01*
X1153952D01*
X1153897D01*
X1153841D01*
Y1862155D01*
X1154230D01*
X1154674D01*
X1155617Y1862100D01*
X1156727Y1861988D01*
X1157782Y1861878D01*
X1158781Y1861822D01*
X1159225Y1861766D01*
X1159613Y1861711D01*
X1159946D01*
X1160168Y1861656D01*
X1160335D01*
X1160390D01*
X1160002Y1862432D01*
X1159558Y1863376D01*
X1159114Y1864375D01*
X1158725Y1865374D01*
X1158392Y1866262D01*
X1158226Y1866706D01*
X1158059Y1867039D01*
X1158004Y1867316D01*
X1157893Y1867539D01*
X1157837Y1867649D01*
Y1867705D01*
X1161556Y1868870D01*
X1162166Y1866595D01*
D02*
G37*
G36*
X1125627Y1732706D02*
X1125183Y1731429D01*
X1124739Y1730264D01*
X1124295Y1729209D01*
X1123907Y1728322D01*
X1123574Y1727600D01*
X1123296Y1727045D01*
X1123185Y1726823D01*
X1123130Y1726657D01*
X1123074Y1726601D01*
Y1726545D01*
X1124462Y1726712D01*
X1125738Y1726879D01*
X1126904Y1726934D01*
X1127847Y1727045D01*
X1128569Y1727101D01*
X1129179Y1727156D01*
X1129346D01*
X1129512D01*
X1129568D01*
X1129623D01*
Y1723382D01*
X1129235D01*
X1128791D01*
X1127847Y1723438D01*
X1126737Y1723549D01*
X1125683Y1723659D01*
X1124684Y1723715D01*
X1124240Y1723771D01*
X1123851Y1723826D01*
X1123518D01*
X1123296Y1723881D01*
X1123130D01*
X1123074D01*
X1123463Y1723104D01*
X1123907Y1722161D01*
X1124351Y1721162D01*
X1124739Y1720163D01*
X1125072Y1719275D01*
X1125239Y1718831D01*
X1125405Y1718498D01*
X1125461Y1718220D01*
X1125572Y1717998D01*
X1125627Y1717888D01*
Y1717832D01*
X1121909Y1716667D01*
X1121298Y1718942D01*
X1121076Y1719996D01*
X1120854Y1720995D01*
X1120688Y1721828D01*
X1120577Y1722161D01*
X1120521Y1722494D01*
X1120466Y1722716D01*
Y1722882D01*
X1120410Y1722994D01*
Y1723049D01*
X1120188Y1722772D01*
X1119855Y1722494D01*
X1119134Y1721828D01*
X1118357Y1721107D01*
X1117524Y1720385D01*
X1116747Y1719719D01*
X1116081Y1719219D01*
X1115804Y1718997D01*
X1115637Y1718831D01*
X1115526Y1718775D01*
X1115471Y1718720D01*
X1113306Y1721773D01*
X1114083Y1722328D01*
X1114971Y1722938D01*
X1115915Y1723493D01*
X1116803Y1724048D01*
X1117580Y1724492D01*
X1118246Y1724825D01*
X1118523Y1724992D01*
X1118690Y1725102D01*
X1118801Y1725158D01*
X1118856D01*
X1117635Y1725880D01*
X1116525Y1726601D01*
X1115582Y1727211D01*
X1114749Y1727711D01*
X1114139Y1728155D01*
X1113695Y1728488D01*
X1113417Y1728710D01*
X1113306Y1728765D01*
X1115471Y1731873D01*
X1116692Y1730874D01*
X1117746Y1729931D01*
X1118579Y1729209D01*
X1119300Y1728543D01*
X1119800Y1728044D01*
X1120133Y1727656D01*
X1120355Y1727434D01*
X1120410Y1727378D01*
X1120577Y1728599D01*
X1120799Y1729764D01*
X1121076Y1730874D01*
X1121298Y1731873D01*
X1121520Y1732706D01*
X1121631Y1733039D01*
X1121742Y1733372D01*
X1121798Y1733594D01*
X1121853Y1733761D01*
X1121909Y1733871D01*
Y1733927D01*
X1125627Y1732706D01*
D02*
G37*
%LPC*%
G36*
X4257988Y1788025D02*
X4238305D01*
X4233056Y1776872D01*
X4231744Y1773591D01*
X4230432Y1771623D01*
X4229120Y1768998D01*
X4228464Y1767686D01*
Y1768342D01*
X4227151Y1768998D01*
X4225183Y1772279D01*
X4223215Y1775559D01*
X4221903Y1776216D01*
Y1776872D01*
X4214686Y1788025D01*
X4205500D01*
X4206812Y1786057D01*
X4207468Y1785401D01*
X4208125Y1784745D01*
X4208781Y1784089D01*
Y1783433D01*
X4210093Y1781464D01*
X4211405Y1779496D01*
X4212061Y1778184D01*
X4212717Y1777528D01*
X4215998Y1772935D01*
X4216654Y1771623D01*
X4217310Y1770967D01*
X4227151Y1756533D01*
X4228464Y1748003D01*
X4229776Y1738818D01*
X4246178D01*
Y1739474D01*
Y1740130D01*
X4245522Y1743410D01*
Y1746691D01*
Y1747347D01*
Y1748003D01*
X4243554Y1757845D01*
X4250771Y1771623D01*
X4253395Y1776216D01*
X4254708Y1780152D01*
X4256020Y1782776D01*
X4257332Y1784745D01*
Y1786057D01*
X4257988Y1786713D01*
Y1788025D01*
D02*
G37*
G36*
X4559794D02*
X4538143D01*
X4536831Y1787369D01*
X4536175D01*
Y1786713D01*
Y1785401D01*
X4536831Y1784089D01*
Y1783433D01*
Y1782120D01*
Y1780808D01*
Y1780152D01*
X4537487D01*
X4538143Y1779496D01*
X4557170D01*
X4558482Y1778840D01*
Y1778184D01*
Y1777528D01*
Y1776216D01*
X4559138Y1773591D01*
Y1770967D01*
X4559794Y1768342D01*
Y1765718D01*
X4560450Y1764406D01*
Y1763750D01*
X4561106Y1759157D01*
Y1755876D01*
Y1753252D01*
X4561762Y1751284D01*
Y1749315D01*
Y1748659D01*
X4561106D01*
Y1748003D01*
X4559794Y1746691D01*
X4540767D01*
Y1746035D01*
Y1744067D01*
X4541423Y1742754D01*
Y1742098D01*
Y1740130D01*
Y1739474D01*
Y1738818D01*
X4572260D01*
X4574885Y1740786D01*
X4576853Y1742098D01*
X4577509Y1743410D01*
Y1744067D01*
X4578165Y1745379D01*
Y1748003D01*
Y1755220D01*
X4577509Y1758501D01*
Y1761125D01*
X4576853Y1763093D01*
Y1763750D01*
X4576197Y1768998D01*
X4575541Y1772935D01*
X4574885Y1776216D01*
X4574228Y1778184D01*
Y1780152D01*
X4573572Y1780808D01*
Y1781464D01*
X4571604Y1784089D01*
X4570292Y1786057D01*
X4568980Y1786713D01*
X4568324D01*
X4567011Y1787369D01*
X4565043D01*
X4559794Y1788025D01*
D02*
G37*
G36*
X4508618D02*
X4491560D01*
Y1786713D01*
X4490248Y1784089D01*
X4489592Y1780152D01*
X4488279Y1775559D01*
X4486967Y1770967D01*
X4486311Y1767030D01*
X4484999Y1764406D01*
Y1763093D01*
X4483030Y1755220D01*
X4481062Y1749315D01*
X4479750Y1744723D01*
X4479094Y1742098D01*
X4478438Y1740130D01*
Y1739474D01*
Y1738818D01*
X4497465D01*
X4498777Y1745379D01*
X4500745Y1752596D01*
X4521084D01*
X4524365Y1745379D01*
X4528301Y1738818D01*
X4536175D01*
X4535519Y1740130D01*
X4534206Y1742754D01*
X4532238Y1746691D01*
X4529614Y1751284D01*
X4526989Y1755220D01*
X4525021Y1759157D01*
X4523709Y1761781D01*
X4523053Y1763093D01*
X4518460Y1770967D01*
X4515179Y1776216D01*
X4512555Y1780808D01*
X4510587Y1783433D01*
X4509275Y1785401D01*
X4508618Y1786057D01*
Y1786713D01*
Y1788025D01*
D02*
G37*
G36*
X4467940D02*
X4450882D01*
Y1786713D01*
X4452850Y1776216D01*
X4454162Y1767686D01*
X4454818Y1761125D01*
X4455474Y1755220D01*
X4456130Y1751284D01*
Y1748659D01*
Y1747347D01*
Y1746691D01*
X4435791D01*
Y1746035D01*
Y1745379D01*
Y1744723D01*
Y1744067D01*
Y1742098D01*
Y1741442D01*
X4437104Y1738818D01*
X4473845D01*
Y1740130D01*
X4473189Y1743410D01*
Y1747347D01*
X4472533Y1751940D01*
X4471877Y1756533D01*
Y1759813D01*
X4471221Y1762437D01*
Y1763750D01*
X4467940Y1788025D01*
D02*
G37*
G36*
X4399706D02*
X4372806D01*
X4369525Y1787369D01*
X4365589D01*
X4364932Y1786713D01*
X4364276D01*
X4362308Y1786057D01*
X4360340Y1784745D01*
X4359684Y1784089D01*
X4359028Y1783433D01*
Y1781464D01*
Y1778840D01*
Y1776872D01*
Y1776216D01*
Y1772279D01*
X4359684Y1768998D01*
Y1767030D01*
X4360340Y1765718D01*
X4360996Y1763750D01*
X4362308Y1760469D01*
X4364932Y1758501D01*
X4366901Y1757189D01*
X4367557Y1756533D01*
X4391176D01*
Y1755876D01*
Y1755220D01*
Y1751940D01*
X4391833Y1749315D01*
Y1748659D01*
Y1748003D01*
X4392489Y1744067D01*
Y1741442D01*
Y1740130D01*
Y1738818D01*
X4409547D01*
Y1740130D01*
X4408891Y1742754D01*
X4408235Y1746035D01*
X4407579Y1750628D01*
Y1755220D01*
X4406923Y1758501D01*
X4406267Y1761125D01*
Y1762437D01*
X4404955Y1770311D01*
X4404298Y1776872D01*
X4403642Y1780808D01*
Y1784089D01*
X4402986Y1786057D01*
Y1786713D01*
Y1787369D01*
X4402330D01*
X4399706Y1788025D01*
D02*
G37*
G36*
X4334752D02*
X4308508D01*
X4307852Y1786713D01*
X4305883Y1786057D01*
X4304571Y1784745D01*
X4303915Y1784089D01*
Y1783433D01*
X4303259Y1781464D01*
Y1778840D01*
Y1771623D01*
Y1768342D01*
X4303915Y1765718D01*
Y1763750D01*
Y1763093D01*
X4304571Y1759157D01*
X4305227Y1755876D01*
Y1753908D01*
X4305883Y1751940D01*
Y1750628D01*
Y1749972D01*
X4307852Y1745379D01*
X4310476Y1742098D01*
X4312444Y1740786D01*
X4313101Y1740130D01*
X4314413Y1739474D01*
X4317037D01*
X4322942Y1738818D01*
X4340657D01*
X4343937Y1739474D01*
X4347218D01*
X4348530Y1740130D01*
X4349186D01*
X4351154Y1741442D01*
X4352467Y1743410D01*
X4353779Y1745379D01*
Y1746035D01*
Y1748003D01*
Y1748659D01*
X4353123Y1760469D01*
X4352467Y1765718D01*
X4351810Y1770311D01*
X4351154Y1773591D01*
X4350498Y1776872D01*
X4349842Y1778184D01*
Y1778840D01*
X4348530Y1782120D01*
X4347218Y1784745D01*
X4345249Y1785401D01*
X4344593Y1786057D01*
X4343281Y1786713D01*
X4341313Y1787369D01*
X4338032D01*
X4334752Y1788025D01*
D02*
G37*
G36*
X4291449D02*
X4275047D01*
Y1786713D01*
X4277015Y1776216D01*
X4278327Y1767686D01*
X4278983Y1760469D01*
X4279640Y1755220D01*
X4280296Y1751284D01*
Y1748659D01*
Y1747347D01*
Y1746691D01*
X4259957D01*
Y1746035D01*
Y1745379D01*
Y1743410D01*
X4260613Y1742098D01*
Y1741442D01*
Y1738818D01*
X4298010D01*
Y1740130D01*
X4297354Y1742754D01*
Y1746035D01*
X4296698Y1750628D01*
X4296042Y1755220D01*
Y1758501D01*
X4295386Y1761125D01*
Y1762437D01*
X4294730Y1770311D01*
X4294074Y1776872D01*
X4293418Y1780808D01*
X4292761Y1784089D01*
Y1786057D01*
Y1786713D01*
Y1787369D01*
X4292105D01*
X4291449Y1788025D01*
D02*
G37*
G36*
X4219934Y1748003D02*
X4216654D01*
X4214686Y1746691D01*
X4214029Y1744723D01*
X4214686Y1743410D01*
Y1742754D01*
X4216654Y1740130D01*
X4218622Y1738818D01*
X4220591D01*
X4221903Y1740130D01*
X4222559Y1741442D01*
X4223215Y1742098D01*
Y1742754D01*
X4222559Y1744723D01*
X4221247Y1746691D01*
X4220591Y1747347D01*
X4219934Y1748003D01*
D02*
G37*
%LPD*%
G36*
X4507306Y1774903D02*
X4508618Y1772279D01*
X4510587Y1769655D01*
X4511243Y1768998D01*
Y1768342D01*
X4515836Y1760469D01*
X4509275D01*
X4505338Y1759813D01*
X4502713D01*
Y1760469D01*
Y1761125D01*
X4503370Y1764406D01*
X4504026Y1767030D01*
X4504682Y1768342D01*
X4505338Y1770967D01*
X4505994Y1772935D01*
X4506650Y1775559D01*
Y1776216D01*
X4507306Y1774903D01*
D02*
G37*
G36*
X4387896Y1778184D02*
Y1775559D01*
X4388552Y1773591D01*
Y1772279D01*
X4389208Y1768342D01*
Y1765718D01*
Y1765062D01*
Y1764406D01*
Y1763750D01*
X4378711D01*
X4377398Y1764406D01*
Y1765718D01*
X4376742Y1767030D01*
Y1768998D01*
Y1771623D01*
Y1772279D01*
X4376086Y1775559D01*
Y1777528D01*
Y1778184D01*
Y1778840D01*
Y1779496D01*
X4387240D01*
X4387896Y1778184D01*
D02*
G37*
G36*
X4333440Y1778840D02*
X4334096Y1778184D01*
Y1776872D01*
Y1775559D01*
X4334752Y1770311D01*
X4335408Y1767686D01*
Y1765062D01*
X4336064Y1763750D01*
Y1763093D01*
X4336720Y1757845D01*
Y1753908D01*
Y1751284D01*
Y1749315D01*
Y1748003D01*
X4336064Y1747347D01*
Y1746691D01*
X4326879D01*
X4324910Y1747347D01*
X4324254D01*
X4323598Y1748003D01*
Y1748659D01*
X4322942Y1750628D01*
X4322286Y1755220D01*
X4321630Y1757845D01*
X4320974Y1760469D01*
Y1761781D01*
Y1762437D01*
X4320318Y1767030D01*
X4319662Y1770967D01*
Y1773591D01*
X4319006Y1775559D01*
Y1776872D01*
Y1777528D01*
X4319662Y1778840D01*
X4320318Y1779496D01*
X4331471D01*
X4333440Y1778840D01*
D02*
G37*
G36*
X4219278Y1746691D02*
X4221247Y1746035D01*
X4221903Y1744723D01*
X4222559Y1744067D01*
Y1743410D01*
X4221903Y1742098D01*
X4221247Y1740786D01*
X4220591Y1740130D01*
X4217310Y1740786D01*
X4216654Y1741442D01*
X4215342Y1743410D01*
Y1744067D01*
Y1745379D01*
X4215998Y1746035D01*
X4216654Y1746691D01*
X4217310Y1747347D01*
X4218622D01*
X4219278Y1746691D01*
D02*
G37*
%LPC*%
G36*
Y1746035D02*
X4217310D01*
Y1745379D01*
X4216654Y1744723D01*
Y1744067D01*
X4217310Y1743410D01*
Y1742754D01*
Y1741442D01*
X4217966D01*
Y1742098D01*
X4218622Y1742754D01*
X4219278Y1744067D01*
X4219934D01*
Y1743410D01*
Y1742098D01*
Y1741442D01*
X4220591D01*
Y1742098D01*
Y1742754D01*
Y1743410D01*
X4219934Y1744723D01*
X4219278Y1746035D01*
D02*
G37*
%LPD*%
G36*
Y1744067D02*
X4218622D01*
X4217966Y1744723D01*
Y1745379D01*
X4219278D01*
Y1744067D01*
D02*
G37*
%LPC*%
G36*
X4156949Y1789338D02*
X4139234D01*
X4138578Y1788025D01*
X4137922Y1785401D01*
X4138578Y1782776D01*
Y1782120D01*
Y1781464D01*
X4139234Y1778840D01*
Y1776872D01*
X4140546Y1774247D01*
X4141202Y1772935D01*
X4141859Y1772279D01*
X4143171D01*
X4145795Y1771623D01*
X4154980D01*
X4157605Y1772279D01*
X4158917D01*
Y1772935D01*
Y1774247D01*
X4158261Y1776872D01*
X4157605Y1780152D01*
Y1780808D01*
Y1781464D01*
X4156949Y1789338D01*
D02*
G37*
G36*
X4062470Y1785401D02*
Y1784745D01*
X4061814Y1783433D01*
X4060502Y1779496D01*
X4059190Y1774903D01*
X4058534Y1773591D01*
Y1772935D01*
X4057878Y1768998D01*
Y1767686D01*
Y1767030D01*
X4057222Y1763093D01*
X4056566Y1762437D01*
Y1761781D01*
X4055909Y1760469D01*
X4065751Y1759157D01*
X4075592D01*
X4074936Y1760469D01*
X4073624Y1762437D01*
X4072968Y1764406D01*
X4072312Y1765718D01*
X4069688Y1770967D01*
X4067719Y1774903D01*
X4066407Y1777528D01*
X4065751Y1778840D01*
X4063783Y1782776D01*
X4063126Y1784745D01*
X4062470Y1785401D01*
D02*
G37*
G36*
X4107085Y1710605D02*
X4103149D01*
X4101180Y1702076D01*
Y1698796D01*
X4100524Y1696827D01*
X4099868Y1694203D01*
X4099212Y1692891D01*
Y1698796D01*
X4098556Y1704701D01*
Y1706669D01*
X4097900Y1708637D01*
Y1709949D01*
Y1710605D01*
X4093963D01*
Y1709949D01*
Y1709293D01*
Y1707325D01*
X4094619Y1703388D01*
X4095275Y1699452D01*
Y1698140D01*
Y1697484D01*
X4095932Y1693547D01*
Y1690266D01*
Y1687642D01*
X4096588Y1686330D01*
Y1684361D01*
X4101180D01*
X4103149Y1692891D01*
X4103805Y1695515D01*
Y1697484D01*
X4104461Y1700108D01*
Y1699452D01*
X4105117Y1696827D01*
X4105773Y1694203D01*
Y1693547D01*
Y1692891D01*
X4106429Y1688954D01*
Y1686330D01*
Y1685018D01*
Y1684361D01*
X4110366D01*
Y1685018D01*
Y1686330D01*
Y1687642D01*
X4109710Y1692235D01*
X4109053Y1696171D01*
Y1697484D01*
Y1698140D01*
X4108397Y1702076D01*
Y1704701D01*
X4107741Y1707325D01*
Y1708637D01*
Y1709949D01*
X4107085Y1710605D01*
D02*
G37*
G36*
X4024417D02*
X4020480D01*
Y1709949D01*
Y1709293D01*
Y1708637D01*
X4021136Y1705357D01*
X4021792Y1701420D01*
Y1700764D01*
Y1700108D01*
Y1696827D01*
X4022448Y1694203D01*
Y1692235D01*
Y1690922D01*
Y1689610D01*
Y1688954D01*
Y1688298D01*
X4021136Y1687642D01*
X4020480D01*
X4019168Y1688298D01*
X4018512Y1688954D01*
X4017856Y1689610D01*
Y1690266D01*
Y1690922D01*
X4017200Y1694859D01*
X4016543Y1698140D01*
Y1698796D01*
Y1699452D01*
X4015887Y1702732D01*
Y1705357D01*
X4015231Y1707325D01*
Y1708637D01*
Y1709949D01*
X4014575Y1710605D01*
X4011951D01*
Y1709949D01*
Y1709293D01*
Y1708637D01*
Y1704701D01*
X4012607Y1701420D01*
Y1700108D01*
Y1699452D01*
X4013263Y1696171D01*
X4013919Y1693547D01*
X4014575Y1690266D01*
Y1688954D01*
Y1688298D01*
X4015231Y1686986D01*
X4016543Y1685674D01*
X4017200Y1685018D01*
X4017856D01*
X4019824Y1684361D01*
X4021136Y1683705D01*
X4021792Y1684361D01*
X4022448D01*
X4024417Y1685674D01*
X4025073Y1686986D01*
X4025729Y1688954D01*
Y1689610D01*
Y1698140D01*
X4025073Y1705357D01*
Y1707325D01*
X4024417Y1709293D01*
Y1709949D01*
Y1710605D01*
D02*
G37*
G36*
X4168759D02*
X4165478D01*
X4164166Y1709949D01*
X4162854Y1708637D01*
X4162198Y1707325D01*
Y1706013D01*
Y1705357D01*
Y1704701D01*
X4166134D01*
Y1705357D01*
Y1706669D01*
X4166790Y1707325D01*
X4167446D01*
X4169415Y1706669D01*
X4170071Y1705357D01*
Y1703388D01*
Y1702732D01*
X4169415Y1701420D01*
X4168759Y1699452D01*
X4168102Y1698796D01*
X4167446Y1698140D01*
X4165478Y1694859D01*
X4164166Y1692235D01*
Y1690266D01*
Y1689610D01*
X4165478Y1686330D01*
X4167446Y1685018D01*
X4169415Y1684361D01*
X4172695D01*
X4174663Y1685674D01*
X4175976Y1687642D01*
X4176632Y1688954D01*
Y1689610D01*
Y1690922D01*
X4172695D01*
Y1690266D01*
X4172039Y1688954D01*
X4171383Y1688298D01*
X4170727Y1687642D01*
X4170071D01*
X4168759Y1688298D01*
X4168102Y1688954D01*
X4167446Y1689610D01*
Y1691579D01*
Y1692891D01*
X4169415Y1694203D01*
X4170071Y1695515D01*
X4172695Y1698796D01*
X4174007Y1700764D01*
X4174663Y1702076D01*
Y1702732D01*
X4174007Y1706013D01*
X4172039Y1708637D01*
X4170727Y1709293D01*
X4170071Y1709949D01*
X4168759Y1710605D01*
D02*
G37*
G36*
X4137266D02*
X4132017D01*
Y1709949D01*
Y1708637D01*
Y1706669D01*
Y1702076D01*
Y1698140D01*
Y1696827D01*
Y1696171D01*
Y1692235D01*
X4131361Y1689610D01*
Y1687642D01*
Y1686330D01*
Y1685018D01*
Y1684361D01*
X4134641D01*
Y1685674D01*
Y1688298D01*
Y1689610D01*
Y1690266D01*
X4139234D01*
X4139890Y1688298D01*
X4140546Y1686986D01*
X4141202Y1685674D01*
Y1685018D01*
Y1684361D01*
X4143171D01*
X4144483Y1685018D01*
X4141859Y1692235D01*
X4140546Y1698140D01*
X4139234Y1702076D01*
X4137922Y1706013D01*
Y1707981D01*
X4137266Y1709293D01*
Y1710605D01*
D02*
G37*
G36*
X4054597D02*
X4050661D01*
Y1709949D01*
Y1707325D01*
Y1704044D01*
X4051317Y1700764D01*
Y1700108D01*
Y1699452D01*
X4051973Y1696171D01*
X4052629Y1693547D01*
X4053285Y1690266D01*
Y1688954D01*
Y1688298D01*
X4046068D01*
Y1687642D01*
Y1686986D01*
Y1686330D01*
X4046724Y1685674D01*
X4047380D01*
Y1684361D01*
X4057878D01*
X4057222Y1685018D01*
Y1686330D01*
Y1687642D01*
X4056566Y1692235D01*
X4055909Y1696171D01*
Y1697484D01*
Y1698140D01*
X4055253Y1701420D01*
Y1704701D01*
X4054597Y1708637D01*
Y1709949D01*
Y1710605D01*
D02*
G37*
G36*
X3990299D02*
X3987019D01*
Y1709949D01*
Y1709293D01*
Y1708637D01*
X3987675Y1707981D01*
Y1707325D01*
Y1703388D01*
X3988331Y1701420D01*
Y1700764D01*
X3988987Y1696171D01*
X3989643Y1694203D01*
Y1693547D01*
Y1690922D01*
Y1688954D01*
X3990299Y1687642D01*
Y1686986D01*
Y1685674D01*
Y1685018D01*
Y1684361D01*
X3994236D01*
Y1685018D01*
X3993580Y1686986D01*
X3992924Y1690922D01*
X3992268Y1695515D01*
Y1696827D01*
Y1697484D01*
X3991612Y1701420D01*
X3990956Y1704701D01*
Y1707325D01*
X3990299Y1708637D01*
Y1710605D01*
D02*
G37*
G36*
X3880731D02*
X3873514D01*
X3872858Y1709949D01*
X3871545Y1709293D01*
X3870889Y1708637D01*
X3869577Y1704701D01*
Y1702076D01*
X3870233Y1700108D01*
X3870889Y1699452D01*
X3872201Y1698140D01*
X3872858D01*
Y1697484D01*
X3872201D01*
X3871545Y1696827D01*
X3870889Y1696171D01*
Y1695515D01*
X3870233Y1694203D01*
Y1693547D01*
Y1692891D01*
X3871545Y1688954D01*
X3872201Y1687642D01*
Y1686986D01*
X3873514Y1685674D01*
X3874170Y1685018D01*
X3875482D01*
X3876138Y1684361D01*
X3884011D01*
Y1685018D01*
Y1686986D01*
X3883355Y1690922D01*
Y1695515D01*
Y1696827D01*
Y1697484D01*
X3882699Y1701420D01*
X3882043Y1704701D01*
Y1706669D01*
X3881387Y1708637D01*
Y1709949D01*
X3880731Y1710605D01*
D02*
G37*
G36*
X3847926D02*
X3843333D01*
X3844645Y1709949D01*
Y1709293D01*
Y1708637D01*
Y1707981D01*
Y1707325D01*
Y1703388D01*
X3845301Y1701420D01*
Y1700764D01*
Y1696171D01*
X3845957Y1694203D01*
Y1693547D01*
Y1690922D01*
Y1688954D01*
X3846613Y1687642D01*
Y1686986D01*
X3847270Y1685674D01*
Y1685018D01*
Y1684361D01*
X3850550D01*
Y1685018D01*
X3849894Y1686986D01*
X3849238Y1690922D01*
X3848582Y1695515D01*
Y1696827D01*
Y1697484D01*
Y1701420D01*
X3847926Y1704701D01*
Y1707325D01*
Y1708637D01*
Y1710605D01*
D02*
G37*
G36*
X3790189D02*
X3782316D01*
X3780347Y1709293D01*
X3779691Y1707325D01*
X3779035Y1706669D01*
Y1706013D01*
Y1703388D01*
Y1702732D01*
Y1702076D01*
X3779691Y1699452D01*
X3780347Y1697484D01*
X3781003Y1696171D01*
X3781660Y1695515D01*
X3782972Y1694203D01*
X3784940Y1693547D01*
X3788877D01*
Y1689610D01*
X3789533Y1686330D01*
Y1685018D01*
Y1684361D01*
X3792813D01*
Y1685018D01*
Y1685674D01*
Y1687642D01*
X3792157Y1691579D01*
X3791501Y1696171D01*
Y1697484D01*
Y1698140D01*
X3790189Y1710605D01*
D02*
G37*
G36*
X3754760Y1709949D02*
X3750823D01*
X3749511Y1709293D01*
X3748198Y1708637D01*
X3746886Y1707981D01*
Y1707325D01*
Y1706013D01*
Y1704701D01*
Y1700764D01*
X3747542Y1696827D01*
Y1696171D01*
Y1695515D01*
X3748855Y1690922D01*
X3749511Y1687642D01*
X3750167Y1686330D01*
X3750823Y1685674D01*
X3752791Y1684361D01*
X3757384D01*
X3758696Y1685674D01*
X3760008Y1686986D01*
Y1687642D01*
Y1688298D01*
Y1688954D01*
X3759352Y1692235D01*
Y1694859D01*
Y1696171D01*
Y1698796D01*
X3758696Y1701420D01*
Y1704044D01*
Y1705357D01*
X3757384Y1707325D01*
X3756072Y1708637D01*
X3754760Y1709949D01*
D02*
G37*
G36*
X3961431Y1710605D02*
X3958807D01*
X3958151Y1709949D01*
X3956838Y1709293D01*
X3956182Y1708637D01*
X3954870Y1707325D01*
X3954214Y1706669D01*
Y1706013D01*
Y1705357D01*
X3954870Y1704701D01*
X3958807D01*
X3959463Y1706669D01*
X3960119Y1707325D01*
X3961431D01*
X3962087Y1706669D01*
X3962743Y1705357D01*
Y1704044D01*
Y1703388D01*
X3962087Y1702076D01*
X3961431Y1700108D01*
X3960775Y1698796D01*
X3960119Y1698140D01*
X3958151Y1696171D01*
X3956838Y1694203D01*
X3956182Y1692891D01*
Y1692235D01*
X3956838Y1689610D01*
X3957494Y1687642D01*
X3958151Y1686330D01*
X3958807Y1685674D01*
X3960775Y1684361D01*
X3962743Y1683705D01*
X3964055D01*
X3965368Y1684361D01*
X3967992Y1685674D01*
X3968648Y1686986D01*
Y1688298D01*
X3969304Y1688954D01*
Y1690266D01*
Y1690922D01*
X3966024D01*
Y1690266D01*
X3964711Y1688298D01*
Y1687642D01*
X3962087D01*
X3960775Y1688298D01*
X3960119Y1689610D01*
Y1690266D01*
Y1690922D01*
X3960775Y1692235D01*
X3961431Y1694203D01*
X3962087Y1694859D01*
X3962743Y1695515D01*
X3965368Y1698796D01*
X3966024Y1699452D01*
X3966680Y1701420D01*
X3967336Y1703388D01*
X3966680Y1706013D01*
X3965368Y1707981D01*
X3964711Y1708637D01*
X3963399Y1709949D01*
X3961431Y1710605D01*
D02*
G37*
G36*
X3908943D02*
X3906319D01*
X3904350Y1709293D01*
X3903694Y1707325D01*
X3903038Y1706669D01*
Y1706013D01*
Y1705357D01*
Y1704701D01*
Y1701420D01*
X3903694Y1698796D01*
Y1698140D01*
Y1697484D01*
X3904350Y1692891D01*
Y1690266D01*
Y1688954D01*
Y1688298D01*
X3905662Y1686330D01*
X3906975Y1685018D01*
X3909599Y1683705D01*
X3912224Y1684361D01*
X3913536D01*
X3914848Y1685674D01*
X3916160Y1686986D01*
X3916816Y1687642D01*
Y1688298D01*
Y1690266D01*
X3916160Y1693547D01*
Y1696171D01*
Y1697484D01*
Y1700108D01*
X3915504Y1702076D01*
X3914848Y1704701D01*
X3914192Y1706013D01*
X3912880Y1708637D01*
X3910911Y1709949D01*
X3908943Y1710605D01*
D02*
G37*
G36*
X3818401D02*
X3815121D01*
X3814465Y1709949D01*
X3813152Y1709293D01*
X3812496Y1708637D01*
X3811840Y1706669D01*
Y1706013D01*
Y1705357D01*
Y1704701D01*
X3815121D01*
X3815777Y1706669D01*
X3816433Y1707325D01*
X3817745D01*
X3819057Y1706669D01*
X3819713Y1705357D01*
Y1704044D01*
Y1703388D01*
X3819057Y1702076D01*
X3817745Y1700108D01*
X3817089Y1698796D01*
X3816433Y1698140D01*
X3814465Y1696171D01*
X3813809Y1694203D01*
X3813152Y1692891D01*
Y1692235D01*
Y1689610D01*
X3813809Y1687642D01*
X3814465Y1686330D01*
X3815121Y1685674D01*
X3817089Y1684361D01*
X3819057Y1683705D01*
X3821026D01*
X3822338Y1684361D01*
X3824306Y1685674D01*
X3824962Y1686986D01*
Y1688298D01*
X3825618Y1688954D01*
Y1690266D01*
Y1690922D01*
X3822338D01*
Y1690266D01*
X3821682Y1688298D01*
Y1687642D01*
X3819713D01*
X3818401Y1688298D01*
X3817089Y1689610D01*
Y1690266D01*
Y1690922D01*
X3817745Y1692235D01*
X3818401Y1694203D01*
X3819057Y1694859D01*
X3819713Y1695515D01*
X3821026Y1697484D01*
X3822338Y1698796D01*
X3822994Y1699452D01*
X3823650Y1701420D01*
Y1703388D01*
X3822994Y1706013D01*
X3821682Y1707981D01*
X3821026Y1708637D01*
X3819713Y1709949D01*
X3818401Y1710605D01*
D02*
G37*
%LPD*%
G36*
X4135954Y1703388D02*
X4136610Y1701420D01*
X4137266Y1699452D01*
Y1698796D01*
X4137922Y1695515D01*
X4138578Y1694203D01*
Y1693547D01*
X4134641D01*
Y1698140D01*
Y1701420D01*
Y1703388D01*
X4135297Y1704044D01*
X4135954Y1703388D01*
D02*
G37*
G36*
X3878762Y1702732D02*
Y1700764D01*
Y1699452D01*
X3877450D01*
X3876138Y1700108D01*
X3875482D01*
X3874170Y1700764D01*
X3873514Y1702076D01*
Y1702732D01*
Y1703388D01*
Y1704701D01*
X3874170Y1705357D01*
X3874826D01*
X3875482Y1706013D01*
X3878106D01*
X3878762Y1702732D01*
D02*
G37*
G36*
Y1696171D02*
Y1695515D01*
Y1694859D01*
X3879419Y1693547D01*
X3880075Y1692891D01*
Y1692235D01*
Y1689610D01*
Y1688954D01*
Y1688298D01*
X3878762D01*
X3876794Y1688954D01*
X3875482Y1689610D01*
X3874170Y1690922D01*
Y1692891D01*
Y1694203D01*
Y1694859D01*
X3875482Y1696171D01*
X3876794Y1696827D01*
X3878106D01*
X3878762Y1696171D01*
D02*
G37*
G36*
X3787564Y1700764D02*
Y1698796D01*
Y1698140D01*
X3785596D01*
X3783628Y1698796D01*
X3782972Y1700108D01*
X3782316Y1701420D01*
Y1702076D01*
Y1704044D01*
Y1705357D01*
X3782972Y1706013D01*
X3786908D01*
X3787564Y1700764D01*
D02*
G37*
G36*
X3754103Y1706669D02*
Y1706013D01*
X3754760Y1705357D01*
X3755416Y1704044D01*
X3756072Y1701420D01*
X3756728Y1696171D01*
Y1693547D01*
Y1691579D01*
Y1690266D01*
Y1689610D01*
Y1688298D01*
X3754103Y1687642D01*
X3753447D01*
X3752791Y1688298D01*
Y1689610D01*
X3752135Y1692235D01*
X3751479Y1695515D01*
Y1696171D01*
Y1696827D01*
X3750823Y1700764D01*
X3750167Y1703388D01*
Y1704701D01*
Y1706013D01*
X3750823Y1707325D01*
X3753447D01*
X3754103Y1706669D01*
D02*
G37*
G36*
X3910911Y1705357D02*
X3911567Y1704701D01*
Y1703388D01*
X3912224Y1700764D01*
X3912880Y1698140D01*
Y1697484D01*
Y1696827D01*
Y1692235D01*
Y1689610D01*
Y1688954D01*
Y1688298D01*
X3912224Y1687642D01*
X3910911D01*
X3909599Y1688298D01*
X3908943Y1688954D01*
Y1689610D01*
Y1690266D01*
X3908287Y1690922D01*
Y1693547D01*
X3907631Y1696171D01*
Y1697484D01*
X3906975Y1700108D01*
Y1702076D01*
Y1704701D01*
Y1705357D01*
Y1706013D01*
X3907631Y1706669D01*
X3909599D01*
X3910911Y1705357D01*
D02*
G37*
D28*
X3110236Y-314961D02*
X3159449D01*
X3110236D02*
Y-157480D01*
X3188976D01*
Y-314961D02*
Y-157480D01*
X3159449Y-314961D02*
X3188976D01*
X1338583Y157480D02*
X1387795D01*
X1338583D02*
Y314961D01*
X1417323D01*
Y157480D02*
Y314961D01*
X1387795Y157480D02*
X1417323D01*
X590551Y1000000D02*
X639764D01*
X590551D02*
Y1157480D01*
X669291D01*
Y1000000D02*
Y1157480D01*
X639764Y1000000D02*
X669291D01*
X1177165Y996063D02*
X1226378D01*
X1177165D02*
Y1153543D01*
X1255906D01*
Y996063D02*
Y1153543D01*
X1226378Y996063D02*
X1255906D01*
D53*
X3418307Y1437008D02*
G03*
X3418307Y1437008I-4921J0D01*
G01*
X989173Y1482284D02*
G03*
X989173Y1482284I-4921J0D01*
G01*
X3066929Y1623308D02*
G03*
X3066929Y1623308I-4921J0D01*
G01*
X1985236Y1153937D02*
G03*
X1985236Y1153937I-4921J0D01*
G01*
X1840551Y2015512D02*
G03*
X1840551Y2015512I-4921J0D01*
G01*
X3312008Y-161417D02*
G03*
X3312008Y-161417I-4921J0D01*
G01*
X626969Y1914370D02*
G03*
X626969Y1914370I-4921J0D01*
G01*
X1784449Y1346457D02*
G03*
X1784449Y1346457I-4921J0D01*
G01*
X3312008Y751968D02*
G03*
X3312008Y751968I-4921J0D01*
G01*
X1540354Y311024D02*
G03*
X1540354Y311024I-4921J0D01*
G01*
X1473425Y1161417D02*
G03*
X1473425Y1161417I-4921J0D01*
G01*
X3508858Y751968D02*
G03*
X3508858Y751968I-4921J0D01*
G01*
X792323Y1484252D02*
G03*
X792323Y1484252I-4921J0D01*
G01*
X2603347Y905512D02*
G03*
X2603347Y905512I-4921J0D01*
G01*
X2157835D02*
G03*
X2157835Y905512I-4921J0D01*
G01*
X2739173Y1545275D02*
G03*
X2739173Y1545275I-4921J0D01*
G01*
X1180472Y1839134D02*
X1260472D01*
D54*
X3157480Y1672718D02*
G03*
X3157480Y1672718I-11811J0D01*
G01*
X1759842Y1978346D02*
G03*
X1759842Y1978346I-11811J0D01*
G01*
X2715551Y1626968D02*
G03*
X2715551Y1626968I-11811J0D01*
G01*
D55*
X3519685Y1372047D02*
X3545669D01*
Y1404134D01*
X3430709Y1372047D02*
X3456693D01*
X3430709D02*
Y1404134D01*
X917323Y1348425D02*
Y1375984D01*
Y1348425D02*
X956693D01*
X917323Y1438976D02*
Y1466535D01*
X956693D01*
X3106299Y1830198D02*
X3232283D01*
X3106299Y1633348D02*
X3232283D01*
Y1830198D01*
X3106299Y1633348D02*
Y1830198D01*
X2047244Y1260236D02*
Y1287795D01*
X2007874D02*
X2047244D01*
Y1169685D02*
Y1197244D01*
X2007874Y1169685D02*
X2047244D01*
X1185472Y1849134D02*
Y2010158D01*
Y1849134D02*
X1255472D01*
Y2010158D01*
X1185472D02*
X1255472D01*
X1097992Y1572520D02*
Y1733543D01*
X1027992D02*
X1097992D01*
X1027992Y1572520D02*
Y1733543D01*
Y1572520D02*
X1097992D01*
X1787402Y1604331D02*
Y2017716D01*
X1598425Y1604331D02*
Y2017716D01*
X1787402D01*
X1598425Y1604331D02*
X1787402D01*
X3240158Y-177165D02*
X3279528D01*
X3240158Y-204724D02*
Y-177165D01*
Y-295276D02*
X3279528D01*
X3240158D02*
Y-267716D01*
X612205Y1948819D02*
Y1988189D01*
X490158Y1948819D02*
Y1988189D01*
Y1948819D02*
X612205D01*
X490158Y1988189D02*
X612205D01*
X1712599Y1330709D02*
X1751968D01*
X1712599Y1303150D02*
Y1330709D01*
Y1212598D02*
X1751968D01*
X1712599D02*
Y1240158D01*
X3334646Y767717D02*
X3374016D01*
Y795276D01*
X3334646Y885827D02*
X3374016D01*
Y858268D02*
Y885827D01*
X1468504Y295276D02*
X1507874D01*
X1468504Y267717D02*
Y295276D01*
Y177165D02*
X1507874D01*
X1468504D02*
Y204725D01*
X1401575Y1145669D02*
X1440945D01*
X1401575Y1118110D02*
Y1145669D01*
Y1027559D02*
X1440945D01*
X1401575D02*
Y1055118D01*
X3531496Y767717D02*
X3570866D01*
Y795276D01*
X3531496Y885827D02*
X3570866D01*
Y858268D02*
Y885827D01*
X720472Y1468504D02*
X759842D01*
X720472Y1440945D02*
Y1468504D01*
Y1350394D02*
X759842D01*
X720472D02*
Y1377953D01*
X2625984Y921260D02*
X2665354D01*
Y948819D01*
X2625984Y1039370D02*
X2665354D01*
Y1011811D02*
Y1039370D01*
X2180472Y921260D02*
X2219843D01*
Y948819D01*
X2180472Y1039370D02*
X2219843D01*
Y1011811D02*
Y1039370D01*
X2375000Y1587598D02*
Y1955709D01*
X2743110Y1587598D02*
Y1955709D01*
X2375000D02*
X2743110D01*
X2375000Y1587598D02*
X2743110D01*
D56*
X1852126Y668701D02*
X3033228D01*
Y-20276D02*
Y668701D01*
X1852126Y-20276D02*
X3033228D01*
X1852126D02*
Y668701D01*
X4443543Y1560250D02*
Y1520892D01*
X4423865D01*
X4417305Y1527452D01*
Y1553690D01*
X4423865Y1560250D01*
X4443543D01*
X4384507Y1520892D02*
X4397626D01*
X4404186Y1527452D01*
Y1540571D01*
X4397626Y1547130D01*
X4384507D01*
X4377948Y1540571D01*
Y1534011D01*
X4404186D01*
X4364828Y1520892D02*
X4345150D01*
X4338590Y1527452D01*
X4345150Y1534011D01*
X4358269D01*
X4364828Y1540571D01*
X4358269Y1547130D01*
X4338590D01*
X4325471Y1520892D02*
X4312352D01*
X4318912D01*
Y1547130D01*
X4325471D01*
X4279554Y1507773D02*
X4272995D01*
X4266435Y1514333D01*
Y1547130D01*
X4286114D01*
X4292673Y1540571D01*
Y1527452D01*
X4286114Y1520892D01*
X4266435D01*
X4253316D02*
Y1547130D01*
X4233637D01*
X4227078Y1540571D01*
Y1520892D01*
X4174601Y1560250D02*
Y1520892D01*
X4154922D01*
X4148363Y1527452D01*
Y1534011D01*
X4154922Y1540571D01*
X4174601D01*
X4154922D01*
X4148363Y1547130D01*
Y1553690D01*
X4154922Y1560250D01*
X4174601D01*
X4135244Y1547130D02*
Y1527452D01*
X4128684Y1520892D01*
X4109006D01*
Y1514333D01*
X4115565Y1507773D01*
X4122125D01*
X4109006Y1520892D02*
Y1547130D01*
X4095886D02*
X4089327D01*
Y1540571D01*
X4095886D01*
Y1547130D01*
Y1527452D02*
X4089327D01*
Y1520892D01*
X4095886D01*
Y1527452D01*
X4023731Y1520892D02*
Y1547130D01*
X4010612Y1560250D01*
X3997493Y1547130D01*
Y1520892D01*
Y1540571D01*
X4023731D01*
X3984374Y1520892D02*
X3971255D01*
X3977814D01*
Y1547130D01*
X3984374D01*
X3951576Y1520892D02*
Y1560250D01*
Y1534011D02*
X3931897Y1547130D01*
X3951576Y1534011D02*
X3931897Y1520892D01*
X3912218Y1547130D02*
Y1527452D01*
X3905659Y1520892D01*
X3885980D01*
Y1547130D01*
X3807265Y1553690D02*
X3813825Y1560250D01*
X3826944D01*
X3833504Y1553690D01*
Y1547130D01*
X3826944Y1540571D01*
X3813825D01*
X3807265Y1534011D01*
Y1527452D01*
X3813825Y1520892D01*
X3826944D01*
X3833504Y1527452D01*
X3794146Y1560250D02*
Y1520892D01*
Y1540571D01*
X3787587Y1547130D01*
X3774468D01*
X3767908Y1540571D01*
Y1520892D01*
X3754789D02*
X3741670D01*
X3748229D01*
Y1547130D01*
X3754789D01*
X3721991Y1520892D02*
Y1547130D01*
X3702312D01*
X3695753Y1540571D01*
Y1520892D01*
X3676074Y1553690D02*
Y1547130D01*
X3682634D01*
X3669515D01*
X3676074D01*
Y1527452D01*
X3669515Y1520892D01*
X3643276Y1547130D02*
X3630157D01*
X3623598Y1540571D01*
Y1520892D01*
X3643276D01*
X3649836Y1527452D01*
X3643276Y1534011D01*
X3623598D01*
X3610479Y1520892D02*
Y1547130D01*
X3590800D01*
X3584240Y1540571D01*
Y1520892D01*
X3571121D02*
X3558002D01*
X3564561D01*
Y1547130D01*
X3571121D01*
X4443543Y1475902D02*
Y1436544D01*
X4417305D01*
X4397626Y1462783D02*
X4384507D01*
X4377948Y1456223D01*
Y1436544D01*
X4397626D01*
X4404186Y1443104D01*
X4397626Y1449663D01*
X4377948D01*
X4364828Y1462783D02*
Y1443104D01*
X4358269Y1436544D01*
X4338590D01*
Y1429985D01*
X4345150Y1423425D01*
X4351709D01*
X4338590Y1436544D02*
Y1462783D01*
X4318912Y1436544D02*
X4305792D01*
X4299233Y1443104D01*
Y1456223D01*
X4305792Y1462783D01*
X4318912D01*
X4325471Y1456223D01*
Y1443104D01*
X4318912Y1436544D01*
X4286114Y1462783D02*
Y1443104D01*
X4279554Y1436544D01*
X4259876D01*
Y1462783D01*
X4240197Y1469342D02*
Y1462783D01*
X4246756D01*
X4233637D01*
X4240197D01*
Y1443104D01*
X4233637Y1436544D01*
X4174601Y1475902D02*
Y1436544D01*
X4154922D01*
X4148363Y1443104D01*
Y1449663D01*
X4154922Y1456223D01*
X4174601D01*
X4154922D01*
X4148363Y1462783D01*
Y1469342D01*
X4154922Y1475902D01*
X4174601D01*
X4135244Y1462783D02*
Y1443104D01*
X4128684Y1436544D01*
X4109006D01*
Y1429985D01*
X4115565Y1423425D01*
X4122125D01*
X4109006Y1436544D02*
Y1462783D01*
X4095886D02*
X4089327D01*
Y1456223D01*
X4095886D01*
Y1462783D01*
Y1443104D02*
X4089327D01*
Y1436544D01*
X4095886D01*
Y1443104D01*
X4023731Y1436544D02*
Y1462783D01*
X4010612Y1475902D01*
X3997493Y1462783D01*
Y1436544D01*
Y1456223D01*
X4023731D01*
X3984374Y1436544D02*
Y1462783D01*
X3964695D01*
X3958135Y1456223D01*
Y1436544D01*
X3931897Y1423425D02*
X3925338D01*
X3918778Y1429985D01*
Y1462783D01*
X3938457D01*
X3945016Y1456223D01*
Y1443104D01*
X3938457Y1436544D01*
X3918778D01*
X3885980D02*
X3899099D01*
X3905659Y1443104D01*
Y1456223D01*
X3899099Y1462783D01*
X3885980D01*
X3879421Y1456223D01*
Y1449663D01*
X3905659D01*
X3866302Y1436544D02*
X3853182D01*
X3859742D01*
Y1475902D01*
X3866302D01*
X3794146D02*
Y1436544D01*
X3774468D01*
X3767908Y1443104D01*
Y1469342D01*
X3774468Y1475902D01*
X3794146D01*
X3735110Y1436544D02*
X3748229D01*
X3754789Y1443104D01*
Y1456223D01*
X3748229Y1462783D01*
X3735110D01*
X3728551Y1456223D01*
Y1449663D01*
X3754789D01*
X3715432Y1436544D02*
X3702312D01*
X3708872D01*
Y1475902D01*
X3715432D01*
X3669515Y1423425D02*
X3662955D01*
X3656396Y1429985D01*
Y1462783D01*
X3676074D01*
X3682634Y1456223D01*
Y1443104D01*
X3676074Y1436544D01*
X3656396D01*
X3636717Y1462783D02*
X3623598D01*
X3617038Y1456223D01*
Y1436544D01*
X3636717D01*
X3643276Y1443104D01*
X3636717Y1449663D01*
X3617038D01*
X3577681Y1475902D02*
Y1436544D01*
X3597359D01*
X3603919Y1443104D01*
Y1456223D01*
X3597359Y1462783D01*
X3577681D01*
X3558002Y1436544D02*
X3544883D01*
X3538323Y1443104D01*
Y1456223D01*
X3544883Y1462783D01*
X3558002D01*
X3564561Y1456223D01*
Y1443104D01*
X3558002Y1436544D01*
X2917480Y532422D02*
X2877493Y472441D01*
Y532422D02*
X2917480Y472441D01*
X2857500D02*
X2837506D01*
X2847503D01*
Y532422D01*
X2857500Y522425D01*
X1869417Y2118548D02*
Y2068564D01*
X1859420Y2058567D01*
X1839427D01*
X1829430Y2068564D01*
Y2118548D01*
X1769450D02*
X1809437D01*
Y2088557D01*
X1789443Y2098554D01*
X1779446D01*
X1769450Y2088557D01*
Y2068564D01*
X1779446Y2058567D01*
X1799440D01*
X1809437Y2068564D01*
X621638Y2142477D02*
Y2092493D01*
X611641Y2082496D01*
X591648D01*
X581651Y2092493D01*
Y2142477D01*
X531667Y2082496D02*
Y2142477D01*
X561658Y2112486D01*
X521670D01*
X2337540Y1975590D02*
X2287556D01*
X2277559Y1985587D01*
Y2005581D01*
X2287556Y2015578D01*
X2337540D01*
X2277559Y2075558D02*
Y2035571D01*
X2317546Y2075558D01*
X2327543D01*
X2337540Y2065561D01*
Y2045568D01*
X2327543Y2035571D01*
X3344203Y1894626D02*
Y1844642D01*
X3334206Y1834646D01*
X3314212D01*
X3304216Y1844642D01*
Y1894626D01*
X3284222Y1834646D02*
X3264229D01*
X3274225D01*
Y1894626D01*
X3284222Y1884630D01*
X1669882Y1378405D02*
X1709869D01*
X1689875D01*
Y1438386D01*
X1729862D02*
X1749856D01*
X1739859D01*
Y1378405D01*
X1729862Y1388402D01*
X1779846Y1438386D02*
X1799840D01*
X1789843D01*
Y1378405D01*
X1779846Y1388402D01*
X2094488Y1127303D02*
X2054501D01*
X2074495D01*
Y1067323D01*
X2034508D02*
X2014514D01*
X2024511D01*
Y1127303D01*
X2034508Y1117307D01*
X1984524D02*
X1974527Y1127303D01*
X1954534D01*
X1944537Y1117307D01*
Y1077320D01*
X1954534Y1067323D01*
X1974527D01*
X1984524Y1077320D01*
Y1117307D01*
X1495654Y1260758D02*
X1455667D01*
X1475660D01*
Y1200777D01*
X1435673Y1210774D02*
X1425676Y1200777D01*
X1405683D01*
X1395686Y1210774D01*
Y1250761D01*
X1405683Y1260758D01*
X1425676D01*
X1435673Y1250761D01*
Y1240765D01*
X1425676Y1230768D01*
X1395686D01*
X3413436Y986865D02*
X3373449D01*
X3393443D01*
Y926884D01*
X3353455Y976868D02*
X3343459Y986865D01*
X3323465D01*
X3313468Y976868D01*
Y966871D01*
X3323465Y956874D01*
X3313468Y946878D01*
Y936881D01*
X3323465Y926884D01*
X3343459D01*
X3353455Y936881D01*
Y946878D01*
X3343459Y956874D01*
X3353455Y966871D01*
Y976868D01*
X3343459Y956874D02*
X3323465D01*
X3610220Y986524D02*
X3570233D01*
X3590227D01*
Y926543D01*
X3550240Y986524D02*
X3510253D01*
Y976527D01*
X3550240Y936540D01*
Y926543D01*
X3342520Y-321164D02*
X3302533D01*
X3322526D01*
Y-381145D01*
X3242552Y-321164D02*
X3262546Y-331161D01*
X3282539Y-351155D01*
Y-371148D01*
X3272542Y-381145D01*
X3252549D01*
X3242552Y-371148D01*
Y-361152D01*
X3252549Y-351155D01*
X3282539D01*
X1008328Y1582618D02*
X968341D01*
X988335D01*
Y1522638D01*
X908360Y1582618D02*
X948347D01*
Y1552628D01*
X928354Y1562625D01*
X918357D01*
X908360Y1552628D01*
Y1532635D01*
X918357Y1522638D01*
X938351D01*
X948347Y1532635D01*
X1562749Y411309D02*
X1522762D01*
X1542755D01*
Y351329D01*
X1472778D02*
Y411309D01*
X1502768Y381319D01*
X1462781D01*
X2259197Y1140185D02*
X2219210D01*
X2239203D01*
Y1080205D01*
X2199216Y1130188D02*
X2189220Y1140185D01*
X2169226D01*
X2159229Y1130188D01*
Y1120192D01*
X2169226Y1110195D01*
X2179223D01*
X2169226D01*
X2159229Y1100198D01*
Y1090201D01*
X2169226Y1080205D01*
X2189220D01*
X2199216Y1090201D01*
X2704756Y1139973D02*
X2664769D01*
X2684762D01*
Y1079992D01*
X2604788D02*
X2644775D01*
X2604788Y1119979D01*
Y1129976D01*
X2614785Y1139973D01*
X2634778D01*
X2644775Y1129976D01*
X814507Y1584199D02*
X774520D01*
X794513D01*
Y1524218D01*
X754526D02*
X734533D01*
X744529D01*
Y1584199D01*
X754526Y1574202D01*
X1445268Y2029173D02*
Y2089154D01*
X1415277D01*
X1405281Y2079157D01*
Y2059164D01*
X1415277Y2049167D01*
X1445268D01*
X1425274D02*
X1405281Y2029173D01*
X1385287Y2079157D02*
X1375290Y2089154D01*
X1355297D01*
X1345300Y2079157D01*
Y2069160D01*
X1355297Y2059164D01*
X1365294D01*
X1355297D01*
X1345300Y2049167D01*
Y2039170D01*
X1355297Y2029173D01*
X1375290D01*
X1385287Y2039170D01*
X1325306Y2079157D02*
X1315310Y2089154D01*
X1295316D01*
X1285319Y2079157D01*
Y2069160D01*
X1295316Y2059164D01*
X1285319Y2049167D01*
Y2039170D01*
X1295316Y2029173D01*
X1315310D01*
X1325306Y2039170D01*
Y2049167D01*
X1315310Y2059164D01*
X1325306Y2069160D01*
Y2079157D01*
X1315310Y2059164D02*
X1295316D01*
X976378Y1783465D02*
Y1843445D01*
X946388D01*
X936391Y1833448D01*
Y1813455D01*
X946388Y1803458D01*
X976378D01*
X956385D02*
X936391Y1783465D01*
X916397Y1833448D02*
X906401Y1843445D01*
X886407D01*
X876410Y1833448D01*
Y1823452D01*
X886407Y1813455D01*
X896404D01*
X886407D01*
X876410Y1803458D01*
Y1793461D01*
X886407Y1783465D01*
X906401D01*
X916397Y1793461D01*
X856417Y1843445D02*
X816430D01*
Y1833448D01*
X856417Y1793461D01*
Y1783465D01*
X2163107Y1871142D02*
Y1931122D01*
X2133117D01*
X2123120Y1921126D01*
Y1901132D01*
X2133117Y1891135D01*
X2163107D01*
X2143114D02*
X2123120Y1871142D01*
X2103127Y1921126D02*
X2093130Y1931122D01*
X2073137D01*
X2063140Y1921126D01*
Y1911129D01*
X2073137Y1901132D01*
X2083133D01*
X2073137D01*
X2063140Y1891135D01*
Y1881139D01*
X2073137Y1871142D01*
X2093130D01*
X2103127Y1881139D01*
X2003159Y1931122D02*
X2023153Y1921126D01*
X2043146Y1901132D01*
Y1881139D01*
X2033149Y1871142D01*
X2013156D01*
X2003159Y1881139D01*
Y1891135D01*
X2013156Y1901132D01*
X2043146D01*
X2063803Y2060811D02*
Y2120792D01*
X2033813D01*
X2023816Y2110795D01*
Y2090801D01*
X2033813Y2080805D01*
X2063803D01*
X2043810D02*
X2023816Y2060811D01*
X2003822Y2110795D02*
X1993826Y2120792D01*
X1973832D01*
X1963835Y2110795D01*
Y2100798D01*
X1973832Y2090801D01*
X1983829D01*
X1973832D01*
X1963835Y2080805D01*
Y2070808D01*
X1973832Y2060811D01*
X1993826D01*
X2003822Y2070808D01*
X1903855Y2120792D02*
X1943842D01*
Y2090801D01*
X1923848Y2100798D01*
X1913852D01*
X1903855Y2090801D01*
Y2070808D01*
X1913852Y2060811D01*
X1933845D01*
X1943842Y2070808D01*
X3012899Y2052335D02*
Y2112315D01*
X2982909D01*
X2972912Y2102318D01*
Y2082325D01*
X2982909Y2072328D01*
X3012899D01*
X2992905D02*
X2972912Y2052335D01*
X2952918Y2102318D02*
X2942922Y2112315D01*
X2922928D01*
X2912931Y2102318D01*
Y2092322D01*
X2922928Y2082325D01*
X2932925D01*
X2922928D01*
X2912931Y2072328D01*
Y2062331D01*
X2922928Y2052335D01*
X2942922D01*
X2952918Y2062331D01*
X2852951Y2052335D02*
X2892938D01*
X2852951Y2092322D01*
Y2102318D01*
X2862948Y2112315D01*
X2882941D01*
X2892938Y2102318D01*
X2975787Y1826968D02*
Y1886949D01*
X2945797D01*
X2935800Y1876952D01*
Y1856959D01*
X2945797Y1846962D01*
X2975787D01*
X2955794D02*
X2935800Y1826968D01*
X2915807Y1876952D02*
X2905810Y1886949D01*
X2885816D01*
X2875820Y1876952D01*
Y1866956D01*
X2885816Y1856959D01*
X2895813D01*
X2885816D01*
X2875820Y1846962D01*
Y1836965D01*
X2885816Y1826968D01*
X2905810D01*
X2915807Y1836965D01*
X2855826Y1826968D02*
X2835833D01*
X2845829D01*
Y1886949D01*
X2855826Y1876952D01*
X1877953Y1086614D02*
Y1146595D01*
X1847963D01*
X1837966Y1136598D01*
Y1116604D01*
X1847963Y1106608D01*
X1877953D01*
X1857959D02*
X1837966Y1086614D01*
X1817972Y1136598D02*
X1807975Y1146595D01*
X1787982D01*
X1777985Y1136598D01*
Y1126601D01*
X1787982Y1116604D01*
X1797979D01*
X1787982D01*
X1777985Y1106608D01*
Y1096611D01*
X1787982Y1086614D01*
X1807975D01*
X1817972Y1096611D01*
X1757992Y1136598D02*
X1747995Y1146595D01*
X1728001D01*
X1718005Y1136598D01*
Y1096611D01*
X1728001Y1086614D01*
X1747995D01*
X1757992Y1096611D01*
Y1136598D01*
X1912992Y867520D02*
Y807539D01*
X1942982D01*
X1952979Y817536D01*
Y837529D01*
X1942982Y847526D01*
X1912992D01*
X1932986D02*
X1952979Y867520D01*
X2012960D02*
X1972973D01*
X2012960Y827533D01*
Y817536D01*
X2002963Y807539D01*
X1982969D01*
X1972973Y817536D01*
X2032953Y857523D02*
X2042950Y867520D01*
X2062944D01*
X2072940Y857523D01*
Y817536D01*
X2062944Y807539D01*
X2042950D01*
X2032953Y817536D01*
Y827533D01*
X2042950Y837529D01*
X2072940D01*
X1688976Y1085630D02*
Y1145611D01*
X1658986D01*
X1648989Y1135614D01*
Y1115620D01*
X1658986Y1105623D01*
X1688976D01*
X1668983D02*
X1648989Y1085630D01*
X1589009D02*
X1628996D01*
X1589009Y1125617D01*
Y1135614D01*
X1599005Y1145611D01*
X1618999D01*
X1628996Y1135614D01*
X1569015D02*
X1559018Y1145611D01*
X1539025D01*
X1529028Y1135614D01*
Y1125617D01*
X1539025Y1115620D01*
X1529028Y1105623D01*
Y1095627D01*
X1539025Y1085630D01*
X1559018D01*
X1569015Y1095627D01*
Y1105623D01*
X1559018Y1115620D01*
X1569015Y1125617D01*
Y1135614D01*
X1559018Y1115620D02*
X1539025D01*
X3133858Y982989D02*
Y923009D01*
X3163849D01*
X3173845Y933005D01*
Y952999D01*
X3163849Y962996D01*
X3133858D01*
X3153852D02*
X3173845Y982989D01*
X3233826D02*
X3193839D01*
X3233826Y943002D01*
Y933005D01*
X3223829Y923009D01*
X3203836D01*
X3193839Y933005D01*
X3253820Y923009D02*
X3293807D01*
Y933005D01*
X3253820Y972992D01*
Y982989D01*
X3730315Y678740D02*
Y738721D01*
X3700325D01*
X3690328Y728724D01*
Y708731D01*
X3700325Y698734D01*
X3730315D01*
X3710321D02*
X3690328Y678740D01*
X3630347D02*
X3670334D01*
X3630347Y718727D01*
Y728724D01*
X3640344Y738721D01*
X3660338D01*
X3670334Y728724D01*
X3570367Y738721D02*
X3590360Y728724D01*
X3610354Y708731D01*
Y688737D01*
X3600357Y678740D01*
X3580363D01*
X3570367Y688737D01*
Y698734D01*
X3580363Y708731D01*
X3610354D01*
X3440945Y-134795D02*
Y-74815D01*
X3410955D01*
X3400958Y-84811D01*
Y-104805D01*
X3410955Y-114802D01*
X3440945D01*
X3420951D02*
X3400958Y-134795D01*
X3340977D02*
X3380964D01*
X3340977Y-94808D01*
Y-84811D01*
X3350974Y-74815D01*
X3370968D01*
X3380964Y-84811D01*
X3280997Y-74815D02*
X3320984D01*
Y-104805D01*
X3300990Y-94808D01*
X3290993D01*
X3280997Y-104805D01*
Y-124799D01*
X3290993Y-134795D01*
X3310987D01*
X3320984Y-124799D01*
X991351Y998282D02*
Y938301D01*
X1021341D01*
X1031338Y948298D01*
Y968291D01*
X1021341Y978288D01*
X991351D01*
X1011344D02*
X1031338Y998282D01*
X1091318D02*
X1051331D01*
X1091318Y958294D01*
Y948298D01*
X1081322Y938301D01*
X1061328D01*
X1051331Y948298D01*
X1141302Y998282D02*
Y938301D01*
X1111312Y968291D01*
X1151299D01*
X1724409Y90551D02*
Y150532D01*
X1694419D01*
X1684422Y140535D01*
Y120541D01*
X1694419Y110545D01*
X1724409D01*
X1704416D02*
X1684422Y90551D01*
X1624442D02*
X1664429D01*
X1624442Y130538D01*
Y140535D01*
X1634438Y150532D01*
X1654432D01*
X1664429Y140535D01*
X1604448D02*
X1594451Y150532D01*
X1574458D01*
X1564461Y140535D01*
Y130538D01*
X1574458Y120541D01*
X1584455D01*
X1574458D01*
X1564461Y110545D01*
Y100548D01*
X1574458Y90551D01*
X1594451D01*
X1604448Y100548D01*
X2461220Y825394D02*
Y885374D01*
X2431230D01*
X2421233Y875378D01*
Y855384D01*
X2431230Y845387D01*
X2461220D01*
X2441227D02*
X2421233Y825394D01*
X2361253D02*
X2401240D01*
X2361253Y865381D01*
Y875378D01*
X2371250Y885374D01*
X2391243D01*
X2401240Y875378D01*
X2301272Y825394D02*
X2341259D01*
X2301272Y865381D01*
Y875378D01*
X2311269Y885374D01*
X2331262D01*
X2341259Y875378D01*
X2882874Y838583D02*
Y898563D01*
X2852884D01*
X2842887Y888567D01*
Y868573D01*
X2852884Y858576D01*
X2882874D01*
X2862881D02*
X2842887Y838583D01*
X2782906D02*
X2822894D01*
X2782906Y878570D01*
Y888567D01*
X2792903Y898563D01*
X2812897D01*
X2822894Y888567D01*
X2762913Y838583D02*
X2742919D01*
X2752916D01*
Y898563D01*
X2762913Y888567D01*
X904528Y942913D02*
Y1002894D01*
X874537D01*
X864540Y992897D01*
Y972904D01*
X874537Y962907D01*
X904528D01*
X884534D02*
X864540Y942913D01*
X804560D02*
X844547D01*
X804560Y982900D01*
Y992897D01*
X814557Y1002894D01*
X834550D01*
X844547Y992897D01*
X784566D02*
X774569Y1002894D01*
X754576D01*
X744579Y992897D01*
Y952910D01*
X754576Y942913D01*
X774569D01*
X784566Y952910D01*
Y992897D01*
X1634575Y1461724D02*
Y1521705D01*
X1604584D01*
X1594588Y1511708D01*
Y1491715D01*
X1604584Y1481718D01*
X1634575D01*
X1614581D02*
X1594588Y1461724D01*
X1574594D02*
X1554601D01*
X1564597D01*
Y1521705D01*
X1574594Y1511708D01*
X1524610Y1471721D02*
X1514614Y1461724D01*
X1494620D01*
X1484623Y1471721D01*
Y1511708D01*
X1494620Y1521705D01*
X1514614D01*
X1524610Y1511708D01*
Y1501711D01*
X1514614Y1491715D01*
X1484623D01*
X1950047Y1461677D02*
Y1521658D01*
X1920057D01*
X1910060Y1511661D01*
Y1491668D01*
X1920057Y1481671D01*
X1950047D01*
X1930054D02*
X1910060Y1461677D01*
X1890067D02*
X1870073D01*
X1880070D01*
Y1521658D01*
X1890067Y1511661D01*
X1840083D02*
X1830086Y1521658D01*
X1810093D01*
X1800096Y1511661D01*
Y1501664D01*
X1810093Y1491668D01*
X1800096Y1481671D01*
Y1471674D01*
X1810093Y1461677D01*
X1830086D01*
X1840083Y1471674D01*
Y1481671D01*
X1830086Y1491668D01*
X1840083Y1501664D01*
Y1511661D01*
X1830086Y1491668D02*
X1810093D01*
X3681504Y304221D02*
Y364201D01*
X3651514D01*
X3641517Y354204D01*
Y334211D01*
X3651514Y324214D01*
X3681504D01*
X3661511D02*
X3641517Y304221D01*
X3621524D02*
X3601530D01*
X3611527D01*
Y364201D01*
X3621524Y354204D01*
X3541550Y304221D02*
Y364201D01*
X3571540Y334211D01*
X3531553D01*
X4272173Y1958449D02*
Y2018429D01*
X4242183D01*
X4232186Y2008433D01*
Y1988439D01*
X4242183Y1978442D01*
X4272173D01*
X4252180D02*
X4232186Y1958449D01*
X4212193D02*
X4192199D01*
X4202196D01*
Y2018429D01*
X4212193Y2008433D01*
X4162209D02*
X4152212Y2018429D01*
X4132218D01*
X4122222Y2008433D01*
Y1998436D01*
X4132218Y1988439D01*
X4142215D01*
X4132218D01*
X4122222Y1978442D01*
Y1968446D01*
X4132218Y1958449D01*
X4152212D01*
X4162209Y1968446D01*
X4076055Y1958126D02*
Y2018107D01*
X4046065D01*
X4036068Y2008110D01*
Y1988116D01*
X4046065Y1978120D01*
X4076055D01*
X4056062D02*
X4036068Y1958126D01*
X4016075D02*
X3996081D01*
X4006078D01*
Y2018107D01*
X4016075Y2008110D01*
X3926104Y1958126D02*
X3966091D01*
X3926104Y1998113D01*
Y2008110D01*
X3936100Y2018107D01*
X3956094D01*
X3966091Y2008110D01*
X4193409Y1288496D02*
Y1348477D01*
X4163419D01*
X4153422Y1338480D01*
Y1318486D01*
X4163419Y1308489D01*
X4193409D01*
X4173416D02*
X4153422Y1288496D01*
X4133429D02*
X4113435D01*
X4123432D01*
Y1348477D01*
X4133429Y1338480D01*
X4083445Y1288496D02*
X4063452D01*
X4073448D01*
Y1348477D01*
X4083445Y1338480D01*
X4015748Y1291339D02*
Y1351319D01*
X3985758D01*
X3975761Y1341322D01*
Y1321329D01*
X3985758Y1311332D01*
X4015748D01*
X3995755D02*
X3975761Y1291339D01*
X3955767D02*
X3935774D01*
X3945771D01*
Y1351319D01*
X3955767Y1341322D01*
X3905784D02*
X3895787Y1351319D01*
X3875793D01*
X3865796Y1341322D01*
Y1301335D01*
X3875793Y1291339D01*
X3895787D01*
X3905784Y1301335D01*
Y1341322D01*
X3878819Y1958630D02*
Y2018611D01*
X3848829D01*
X3838832Y2008614D01*
Y1988620D01*
X3848829Y1978623D01*
X3878819D01*
X3858826D02*
X3838832Y1958630D01*
X3818839Y1968627D02*
X3808842Y1958630D01*
X3788848D01*
X3778852Y1968627D01*
Y2008614D01*
X3788848Y2018611D01*
X3808842D01*
X3818839Y2008614D01*
Y1998617D01*
X3808842Y1988620D01*
X3778852D01*
X3839079Y1288772D02*
Y1348752D01*
X3809088D01*
X3799092Y1338755D01*
Y1318762D01*
X3809088Y1308765D01*
X3839079D01*
X3819085D02*
X3799092Y1288772D01*
X3779098Y1338755D02*
X3769101Y1348752D01*
X3749108D01*
X3739111Y1338755D01*
Y1328759D01*
X3749108Y1318762D01*
X3739111Y1308765D01*
Y1298768D01*
X3749108Y1288772D01*
X3769101D01*
X3779098Y1298768D01*
Y1308765D01*
X3769101Y1318762D01*
X3779098Y1328759D01*
Y1338755D01*
X3769101Y1318762D02*
X3749108D01*
X3682000Y1958504D02*
Y2018485D01*
X3652010D01*
X3642013Y2008488D01*
Y1988494D01*
X3652010Y1978497D01*
X3682000D01*
X3662006D02*
X3642013Y1958504D01*
X3622019Y2018485D02*
X3582032D01*
Y2008488D01*
X3622019Y1968501D01*
Y1958504D01*
X3681850Y1288740D02*
Y1348721D01*
X3651860D01*
X3641863Y1338724D01*
Y1318730D01*
X3651860Y1308734D01*
X3681850D01*
X3661857D02*
X3641863Y1288740D01*
X3581883Y1348721D02*
X3601876Y1338724D01*
X3621870Y1318730D01*
Y1298737D01*
X3611873Y1288740D01*
X3591880D01*
X3581883Y1298737D01*
Y1308734D01*
X3591880Y1318730D01*
X3621870D01*
X3264316Y1260827D02*
Y1320807D01*
X3234325D01*
X3224329Y1310811D01*
Y1290817D01*
X3234325Y1280820D01*
X3264316D01*
X3244322D02*
X3224329Y1260827D01*
X3164348Y1320807D02*
X3204335D01*
Y1290817D01*
X3184342Y1300814D01*
X3174345D01*
X3164348Y1290817D01*
Y1270823D01*
X3174345Y1260827D01*
X3194338D01*
X3204335Y1270823D01*
X3335827Y1529527D02*
X3395807D01*
Y1559518D01*
X3385811Y1569515D01*
X3365817D01*
X3355820Y1559518D01*
Y1529527D01*
Y1549521D02*
X3335827Y1569515D01*
X3385811Y1589508D02*
X3395807Y1599505D01*
Y1619498D01*
X3385811Y1629495D01*
X3375814D01*
X3365817Y1619498D01*
Y1609502D01*
Y1619498D01*
X3355820Y1629495D01*
X3345824D01*
X3335827Y1619498D01*
Y1599505D01*
X3345824Y1589508D01*
X3528299Y1662791D02*
Y1722772D01*
X3498309D01*
X3488312Y1712775D01*
Y1692782D01*
X3498309Y1682785D01*
X3528299D01*
X3508306D02*
X3488312Y1662791D01*
X3428331D02*
X3468319D01*
X3428331Y1702778D01*
Y1712775D01*
X3438328Y1722772D01*
X3458322D01*
X3468319Y1712775D01*
X3638874Y1662583D02*
Y1722563D01*
X3608884D01*
X3598887Y1712566D01*
Y1692573D01*
X3608884Y1682576D01*
X3638874D01*
X3618881D02*
X3598887Y1662583D01*
X3578893D02*
X3558900D01*
X3568897D01*
Y1722563D01*
X3578893Y1712566D01*
X1207698Y1245492D02*
X1247685D01*
Y1215502D01*
X1227691D01*
X1247685D01*
Y1185512D01*
X1157714D02*
Y1245492D01*
X1187704Y1215502D01*
X1147717D01*
X3140887Y-65460D02*
X3180874D01*
Y-95451D01*
X3160881D01*
X3180874D01*
Y-125441D01*
X3120893Y-75457D02*
X3110897Y-65460D01*
X3090903D01*
X3080906Y-75457D01*
Y-85454D01*
X3090903Y-95451D01*
X3100900D01*
X3090903D01*
X3080906Y-105448D01*
Y-115444D01*
X3090903Y-125441D01*
X3110897D01*
X3120893Y-115444D01*
X1369052Y406721D02*
X1409039D01*
Y376730D01*
X1389046D01*
X1409039D01*
Y346740D01*
X1309072D02*
X1349059D01*
X1309072Y386727D01*
Y396724D01*
X1319069Y406721D01*
X1339062D01*
X1349059Y396724D01*
X620800Y1249642D02*
X660787D01*
Y1219652D01*
X640794D01*
X660787D01*
Y1189661D01*
X600807D02*
X580813D01*
X590810D01*
Y1249642D01*
X600807Y1239645D01*
X1255441Y2104421D02*
Y2044441D01*
X1225451D01*
X1215454Y2054438D01*
Y2094425D01*
X1225451Y2104421D01*
X1255441D01*
X1195460Y2054438D02*
X1185464Y2044441D01*
X1165470D01*
X1155473Y2054438D01*
Y2094425D01*
X1165470Y2104421D01*
X1185464D01*
X1195460Y2094425D01*
Y2084428D01*
X1185464Y2074431D01*
X1155473D01*
X1112315Y1838744D02*
Y1778764D01*
X1082325D01*
X1072328Y1788761D01*
Y1828747D01*
X1082325Y1838744D01*
X1112315D01*
X1052334Y1828747D02*
X1042338Y1838744D01*
X1022344D01*
X1012347Y1828747D01*
Y1818751D01*
X1022344Y1808754D01*
X1012347Y1798757D01*
Y1788761D01*
X1022344Y1778764D01*
X1042338D01*
X1052334Y1788761D01*
Y1798757D01*
X1042338Y1808754D01*
X1052334Y1818751D01*
Y1828747D01*
X1042338Y1808754D02*
X1022344D01*
X3491102Y1535217D02*
Y1475236D01*
X3461112D01*
X3451115Y1485233D01*
Y1525220D01*
X3461112Y1535217D01*
X3491102D01*
X3431122Y1475236D02*
X3411128D01*
X3421125D01*
Y1535217D01*
X3431122Y1525220D01*
X1161722Y1476220D02*
X1171719Y1486217D01*
X1191712D01*
X1201709Y1476220D01*
Y1436233D01*
X1191712Y1426236D01*
X1171719D01*
X1161722Y1436233D01*
X1141728Y1426236D02*
X1121735D01*
X1131732D01*
Y1486217D01*
X1141728Y1476220D01*
X1051757Y1486217D02*
X1091745D01*
Y1456226D01*
X1071751Y1466223D01*
X1061754D01*
X1051757Y1456226D01*
Y1436233D01*
X1061754Y1426236D01*
X1081748D01*
X1091745Y1436233D01*
X1185549Y1602182D02*
X1175553Y1592185D01*
X1155559D01*
X1145562Y1602182D01*
Y1642169D01*
X1155559Y1652165D01*
X1175553D01*
X1185549Y1642169D01*
X1205543Y1652165D02*
X1225536D01*
X1215540D01*
Y1592185D01*
X1205543Y1602182D01*
X1285517Y1652165D02*
Y1592185D01*
X1255527Y1622175D01*
X1295514D01*
X2200336Y2118642D02*
X2210333Y2128639D01*
X2230326D01*
X2240323Y2118642D01*
Y2078655D01*
X2230326Y2068659D01*
X2210333D01*
X2200336Y2078655D01*
X2180342Y2068659D02*
X2160349D01*
X2170345D01*
Y2128639D01*
X2180342Y2118642D01*
X2130358D02*
X2120362Y2128639D01*
X2100368D01*
X2090371Y2118642D01*
Y2108646D01*
X2100368Y2098649D01*
X2110365D01*
X2100368D01*
X2090371Y2088652D01*
Y2078655D01*
X2100368Y2068659D01*
X2120362D01*
X2130358Y2078655D01*
X598722Y1843007D02*
X608719Y1853004D01*
X628712D01*
X638709Y1843007D01*
Y1803020D01*
X628712Y1793024D01*
X608719D01*
X598722Y1803020D01*
X578728Y1793024D02*
X558735D01*
X568731D01*
Y1853004D01*
X578728Y1843007D01*
X488757Y1793024D02*
X528745D01*
X488757Y1833011D01*
Y1843007D01*
X498754Y1853004D01*
X518748D01*
X528745Y1843007D01*
X1082517Y2106598D02*
X1092514Y2116595D01*
X1112507D01*
X1122504Y2106598D01*
Y2066611D01*
X1112507Y2056614D01*
X1092514D01*
X1082517Y2066611D01*
X1062524Y2056614D02*
X1042530D01*
X1052527D01*
Y2116595D01*
X1062524Y2106598D01*
X1012540Y2056614D02*
X992546D01*
X1002543D01*
Y2116595D01*
X1012540Y2106598D01*
X926849Y2081480D02*
X936846Y2091477D01*
X956839D01*
X966836Y2081480D01*
Y2041493D01*
X956839Y2031496D01*
X936846D01*
X926849Y2041493D01*
X906855Y2031496D02*
X886862D01*
X896859D01*
Y2091477D01*
X906855Y2081480D01*
X856871D02*
X846875Y2091477D01*
X826881D01*
X816884Y2081480D01*
Y2041493D01*
X826881Y2031496D01*
X846875D01*
X856871Y2041493D01*
Y2081480D01*
X2510814Y1389583D02*
X2500817Y1379586D01*
X2480823D01*
X2470827Y1389583D01*
Y1429570D01*
X2480823Y1439567D01*
X2500817D01*
X2510814Y1429570D01*
X2530807Y1389583D02*
X2540804Y1379586D01*
X2560798D01*
X2570794Y1389583D01*
Y1399580D01*
X2560798Y1409577D01*
X2570794Y1419573D01*
Y1429570D01*
X2560798Y1439567D01*
X2540804D01*
X2530807Y1429570D01*
Y1419573D01*
X2540804Y1409577D01*
X2530807Y1399580D01*
Y1389583D01*
X2540804Y1409577D02*
X2560798D01*
X2698467Y1397228D02*
X2708464Y1407225D01*
X2728458D01*
X2738454Y1397228D01*
Y1357241D01*
X2728458Y1347244D01*
X2708464D01*
X2698467Y1357241D01*
X2678474Y1407225D02*
X2638487D01*
Y1397228D01*
X2678474Y1357241D01*
Y1347244D01*
X3076011Y1362812D02*
X3066014Y1352815D01*
X3046020D01*
X3036024Y1362812D01*
Y1402799D01*
X3046020Y1412795D01*
X3066014D01*
X3076011Y1402799D01*
X3135991Y1352815D02*
X3115998Y1362812D01*
X3096004Y1382805D01*
Y1402799D01*
X3106001Y1412795D01*
X3125994D01*
X3135991Y1402799D01*
Y1392802D01*
X3125994Y1382805D01*
X3096004D01*
X3130178Y2107039D02*
X3140175Y2117036D01*
X3160169D01*
X3170165Y2107039D01*
Y2067052D01*
X3160169Y2057055D01*
X3140175D01*
X3130178Y2067052D01*
X3070198Y2117036D02*
X3110185D01*
Y2087045D01*
X3090191Y2097042D01*
X3080195D01*
X3070198Y2087045D01*
Y2067052D01*
X3080195Y2057055D01*
X3100188D01*
X3110185Y2067052D01*
X1358667Y1476370D02*
X1368663Y1486366D01*
X1388657D01*
X1398654Y1476370D01*
Y1436383D01*
X1388657Y1426386D01*
X1368663D01*
X1358667Y1436383D01*
X1308683Y1426386D02*
Y1486366D01*
X1338673Y1456376D01*
X1298686D01*
X2066761Y1516346D02*
X2076758Y1526343D01*
X2096751D01*
X2106748Y1516346D01*
Y1476359D01*
X2096751Y1466362D01*
X2076758D01*
X2066761Y1476359D01*
X2046768Y1516346D02*
X2036771Y1526343D01*
X2016777D01*
X2006781Y1516346D01*
Y1506349D01*
X2016777Y1496352D01*
X2026774D01*
X2016777D01*
X2006781Y1486356D01*
Y1476359D01*
X2016777Y1466362D01*
X2036771D01*
X2046768Y1476359D01*
X3260139Y2106669D02*
X3270136Y2116666D01*
X3290129D01*
X3300126Y2106669D01*
Y2066682D01*
X3290129Y2056685D01*
X3270136D01*
X3260139Y2066682D01*
X3200158Y2056685D02*
X3240145D01*
X3200158Y2096672D01*
Y2106669D01*
X3210155Y2116666D01*
X3230149D01*
X3240145Y2106669D01*
X2809422Y1398999D02*
X2819419Y1408996D01*
X2839413D01*
X2849410Y1398999D01*
Y1359013D01*
X2839413Y1349016D01*
X2819419D01*
X2809422Y1359013D01*
X2789429Y1349016D02*
X2769435D01*
X2779432D01*
Y1408996D01*
X2789429Y1398999D01*
D57*
X909449Y1692913D02*
X980315D01*
X909449Y1759842D02*
X917323D01*
X909449Y1625984D02*
Y1759842D01*
Y1625984D02*
X917323D01*
X972441Y1759842D02*
X980315D01*
Y1625984D02*
Y1759842D01*
X972441Y1625984D02*
X980315D01*
X2102362Y1775591D02*
Y1846457D01*
X2169291Y1838583D02*
Y1846457D01*
X2035433D02*
X2169291D01*
X2035433Y1838583D02*
Y1846457D01*
X2169291Y1775591D02*
Y1783465D01*
X2035433Y1775591D02*
X2169291D01*
X2035433D02*
Y1783465D01*
X4003937Y1185039D02*
Y1192913D01*
X3870079Y1185039D02*
X4003937D01*
Y1248032D02*
Y1255906D01*
X3870079D02*
X4003937D01*
X3937008Y1185039D02*
Y1255906D01*
X3870079Y1185039D02*
Y1192913D01*
Y1248032D02*
Y1255906D01*
X909449Y1996063D02*
X925197D01*
X909449Y1862205D02*
Y1996063D01*
Y1862205D02*
X925197D01*
X964567D02*
X980315D01*
Y1996063D01*
X964567D02*
X980315D01*
X909449Y1929134D02*
X980315D01*
X3555118Y1854331D02*
Y1862205D01*
Y1854331D02*
X3688976D01*
Y1862205D01*
X3555118Y1917323D02*
Y1925197D01*
X3688976D01*
Y1917323D02*
Y1925197D01*
X3622047Y1854331D02*
Y1925197D01*
X3170812Y1236220D02*
X3178686D01*
X3170812Y1102362D02*
Y1236220D01*
Y1102362D02*
X3178686D01*
X3170812Y1169291D02*
X3241678D01*
X3233804Y1236220D02*
X3241678D01*
X3233804Y1102362D02*
X3241678D01*
Y1236220D01*
X2059055Y1433071D02*
X2070866D01*
X2059055Y1322835D02*
Y1433071D01*
Y1322835D02*
X2070866D01*
X2059055Y1377953D02*
X2114173D01*
X2102362Y1433071D02*
X2114173D01*
X2102362Y1322835D02*
X2114173D01*
Y1433071D01*
X1153543Y1283465D02*
X1165354D01*
X1153543D02*
Y1393701D01*
X1165354D01*
X1196850D02*
X1208661D01*
Y1283465D02*
Y1393701D01*
X1196850Y1283465D02*
X1208661D01*
X1153543Y1338583D02*
X1208661D01*
X1586614Y1327953D02*
X1594173D01*
X1586614D02*
Y1427953D01*
X1594173D01*
X1634173D02*
X1641732D01*
Y1327953D02*
Y1427953D01*
X1634173Y1327953D02*
X1641732D01*
X1586614Y1377953D02*
X1641732D01*
X1901575Y1327953D02*
X1909134D01*
X1901575D02*
Y1427953D01*
X1909134D01*
X1949134D02*
X1956693D01*
Y1327953D02*
Y1427953D01*
X1949134Y1327953D02*
X1956693D01*
X1901575Y1377953D02*
X1956693D01*
X1350394Y1283465D02*
X1362205D01*
X1350394D02*
Y1393701D01*
X1362205D01*
X1393701D02*
X1405512D01*
Y1283465D02*
Y1393701D01*
X1393701Y1283465D02*
X1405512D01*
X1350394Y1338583D02*
X1405512D01*
X1381890Y1996063D02*
X1389764D01*
X1381890Y1862205D02*
Y1996063D01*
Y1862205D02*
X1389764D01*
X1444882Y1996063D02*
X1452756D01*
Y1862205D02*
Y1996063D01*
X1444882Y1862205D02*
X1452756D01*
X1381890Y1929134D02*
X1452756D01*
X1236220Y1787402D02*
X1248032D01*
Y1677165D02*
Y1787402D01*
X1236220Y1677165D02*
X1248032D01*
X1192913D02*
X1204724D01*
X1192913D02*
Y1787402D01*
X1204724D01*
X1192913Y1732284D02*
X1248032D01*
X2137165Y2023622D02*
Y2035433D01*
X2247402D01*
Y2023622D02*
Y2035433D01*
Y1980315D02*
Y1992126D01*
X2137165Y1980315D02*
X2247402D01*
X2137165D02*
Y1992126D01*
X2192284Y1980315D02*
Y2035433D01*
X1937008Y1956693D02*
Y1964567D01*
Y1956693D02*
X2070866D01*
Y1964567D01*
X1937008Y2019685D02*
Y2027559D01*
X2070866D01*
Y2019685D02*
Y2027559D01*
X2003937Y1956693D02*
Y2027559D01*
X645669Y1704724D02*
Y1716535D01*
X535433Y1704724D02*
X645669D01*
X535433D02*
Y1716535D01*
Y1748032D02*
Y1759843D01*
X645669D01*
Y1748032D02*
Y1759843D01*
X590551Y1704724D02*
Y1759843D01*
X1074803Y1913386D02*
X1086614D01*
X1074803D02*
Y2023622D01*
X1086614D01*
X1118110D02*
X1129921D01*
Y1913386D02*
Y2023622D01*
X1118110Y1913386D02*
X1129921D01*
X1074803Y1968504D02*
X1129921D01*
X2667588Y1208661D02*
X2679399D01*
X2667588D02*
Y1318898D01*
X2679399D01*
X2710895D02*
X2722706D01*
Y1208661D02*
Y1318898D01*
X2710895Y1208661D02*
X2722706D01*
X2667588Y1263780D02*
X2722706D01*
X2775590Y1216535D02*
X2787402D01*
X2775590D02*
Y1326772D01*
X2787402D01*
X2818898D02*
X2830709D01*
Y1216535D02*
Y1326772D01*
X2818898Y1216535D02*
X2830709D01*
X2775590Y1271653D02*
X2830709D01*
X3248032Y1516929D02*
X3255591D01*
X3248032D02*
Y1616929D01*
X3255591D01*
X3295591D02*
X3303150D01*
Y1516929D02*
Y1616929D01*
X3295591Y1516929D02*
X3303150D01*
X3248032Y1566929D02*
X3303150D01*
X2493858Y1244094D02*
X2505669D01*
X2493858D02*
Y1354331D01*
X2505669D01*
X2537165D02*
X2548976D01*
Y1244094D02*
Y1354331D01*
X2537165Y1244094D02*
X2548976D01*
X2493858Y1299213D02*
X2548976D01*
X2885827Y1918504D02*
X2893386D01*
X2885827D02*
Y2018504D01*
X2893386D01*
X2933386D02*
X2940945D01*
Y1918504D02*
Y2018504D01*
X2933386Y1918504D02*
X2940945D01*
X2885827Y1968504D02*
X2940945D01*
X3555118Y200787D02*
Y208661D01*
Y200787D02*
X3688976D01*
Y208661D01*
X3555118Y263780D02*
Y271654D01*
X3688976D01*
Y263780D02*
Y271654D01*
X3622047Y200787D02*
Y271654D01*
X3846457Y1248032D02*
Y1255906D01*
X3712599D02*
X3846457D01*
X3712599Y1248032D02*
Y1255906D01*
X3846457Y1185039D02*
Y1192913D01*
X3712599Y1185039D02*
X3846457D01*
X3712599D02*
Y1192913D01*
X3779528Y1185039D02*
Y1255906D01*
X3555118Y1185039D02*
Y1192913D01*
Y1185039D02*
X3688976D01*
Y1192913D01*
X3555118Y1248032D02*
Y1255906D01*
X3688976D01*
Y1248032D02*
Y1255906D01*
X3622047Y1185039D02*
Y1255906D01*
X4082677Y1917323D02*
Y1925197D01*
X3948819D02*
X4082677D01*
X3948819Y1917323D02*
Y1925197D01*
X4082677Y1854331D02*
Y1862205D01*
X3948819Y1854331D02*
X4082677D01*
X3948819D02*
Y1862205D01*
X4015748Y1854331D02*
Y1925197D01*
X4279528Y1917323D02*
Y1925197D01*
X4145669D02*
X4279528D01*
X4145669Y1917323D02*
Y1925197D01*
X4279528Y1854331D02*
Y1862205D01*
X4145669Y1854331D02*
X4279528D01*
X4145669D02*
Y1862205D01*
X4212598Y1854331D02*
Y1925197D01*
X4066929Y1185039D02*
Y1192913D01*
Y1185039D02*
X4200787D01*
Y1192913D01*
X4066929Y1248032D02*
Y1255906D01*
X4200787D01*
Y1248032D02*
Y1255906D01*
X4133858Y1185039D02*
Y1255906D01*
X3885827Y1917323D02*
Y1925197D01*
X3751969D02*
X3885827D01*
X3751969Y1917323D02*
Y1925197D01*
X3885827Y1854331D02*
Y1862205D01*
X3751969Y1854331D02*
X3885827D01*
X3751969D02*
Y1862205D01*
X3818898Y1854331D02*
Y1925197D01*
X3688976Y759843D02*
X3696850D01*
Y893701D01*
X3688976D02*
X3696850D01*
X3625984Y759843D02*
X3633858D01*
X3625984D02*
Y893701D01*
X3633858D01*
X3625984Y826772D02*
X3696850D01*
X1830709Y922244D02*
X1838583D01*
Y1056102D01*
X1830709D02*
X1838583D01*
X1767716Y922244D02*
X1775591D01*
X1767716D02*
Y1056102D01*
X1775591D01*
X1767716Y989173D02*
X1838583D01*
X2047244Y913386D02*
X2055118D01*
Y1047244D01*
X2047244D02*
X2055118D01*
X1984252Y913386D02*
X1992126D01*
X1984252D02*
Y1047244D01*
X1992126D01*
X1984252Y980315D02*
X2055118D01*
X3255906Y759843D02*
X3263780D01*
Y893701D01*
X3255906D02*
X3263780D01*
X3192913Y759843D02*
X3200787D01*
X3192913D02*
Y893701D01*
X3200787D01*
X3192913Y826772D02*
X3263780D01*
X3413386Y-303150D02*
X3421260D01*
Y-169291D01*
X3413386D02*
X3421260D01*
X3350394Y-303150D02*
X3358268D01*
X3350394D02*
Y-169291D01*
X3358268D01*
X3350394Y-236220D02*
X3421260D01*
X2858268Y925197D02*
X2866142D01*
Y1059055D01*
X2858268D02*
X2866142D01*
X2795276Y925197D02*
X2803150D01*
X2795276D02*
Y1059055D01*
X2803150D01*
X2795276Y992126D02*
X2866142D01*
X2409449Y909449D02*
X2417323D01*
Y1043307D01*
X2409449D02*
X2417323D01*
X2346457Y909449D02*
X2354331D01*
X2346457D02*
Y1043307D01*
X2354331D01*
X2346457Y976378D02*
X2417323D01*
X850394Y1027559D02*
X858268D01*
Y1161417D01*
X850394D02*
X858268D01*
X787402Y1027559D02*
X795275D01*
X787402D02*
Y1161417D01*
X795275D01*
X787402Y1094488D02*
X858268D01*
X984252Y1165354D02*
X992126D01*
X984252Y1031496D02*
Y1165354D01*
Y1031496D02*
X992126D01*
X1047244Y1165354D02*
X1055118D01*
Y1031496D02*
Y1165354D01*
X1047244Y1031496D02*
X1055118D01*
X984252Y1098425D02*
X1055118D01*
X1645669Y921260D02*
X1653543D01*
Y1055118D01*
X1645669D02*
X1653543D01*
X1582677Y921260D02*
X1590551D01*
X1582677D02*
Y1055118D01*
X1590551D01*
X1582677Y988189D02*
X1653543D01*
X1641732Y169291D02*
X1649606D01*
Y303150D01*
X1641732D02*
X1649606D01*
X1578740Y169291D02*
X1586614D01*
X1578740D02*
Y303150D01*
X1586614D01*
X1578740Y236220D02*
X1649606D01*
X3434252Y1622362D02*
Y1629921D01*
X3534252D01*
Y1622362D02*
Y1629921D01*
Y1574803D02*
Y1582362D01*
X3434252Y1574803D02*
X3534252D01*
X3434252D02*
Y1582362D01*
X3484252Y1574803D02*
Y1629921D01*
X2964567Y1918504D02*
X2972126D01*
X2964567D02*
Y2018504D01*
X2972126D01*
X3012126D02*
X3019685D01*
Y1918504D02*
Y2018504D01*
X3012126Y1918504D02*
X3019685D01*
X2964567Y1968504D02*
X3019685D01*
X3035433Y1444882D02*
X3047244D01*
X3035433D02*
Y1555118D01*
X3047244D01*
X3078740D02*
X3090551D01*
Y1444882D02*
Y1555118D01*
X3078740Y1444882D02*
X3090551D01*
X3035433Y1500000D02*
X3090551D01*
X3544488Y1622362D02*
Y1629921D01*
X3644488D01*
Y1622362D02*
Y1629921D01*
Y1574803D02*
Y1582362D01*
X3544488Y1574803D02*
X3644488D01*
X3544488D02*
Y1582362D01*
X3594488Y1574803D02*
Y1629921D01*
X3251968Y1913386D02*
X3263780D01*
X3251968D02*
Y2023622D01*
X3263780D01*
X3295276D02*
X3307087D01*
Y1913386D02*
Y2023622D01*
X3295276Y1913386D02*
X3307087D01*
X3251968Y1968504D02*
X3307087D01*
X3122047Y1913386D02*
X3133858D01*
X3122047D02*
Y2023622D01*
X3133858D01*
X3165354D02*
X3177165D01*
Y1913386D02*
Y2023622D01*
X3165354Y1913386D02*
X3177165D01*
X3122047Y1968504D02*
X3177165D01*
%TF.MD5,381173efe7ae81e69bd07e050741c19b*%
M02*
