G04*
G04 #@! TF.GenerationSoftware,Altium Limited,Altium Designer,19.1.8 (144)*
G04*
G04 Layer_Physical_Order=2*
G04 Layer_Color=16711680*
%FSLAX25Y25*%
%MOIN*%
G70*
G01*
G75*
%ADD12C,0.01000*%
%ADD15R,0.03543X0.03937*%
%ADD18R,0.03937X0.03543*%
%ADD19R,0.03740X0.03347*%
%ADD23R,0.03347X0.03740*%
%ADD42C,0.03000*%
%ADD43C,0.01500*%
%ADD44C,0.08661*%
%ADD45C,0.12992*%
%ADD46C,0.19685*%
%ADD47C,0.03000*%
%ADD48C,0.04500*%
%ADD49O,0.05709X0.02362*%
%ADD50R,0.07874X0.14961*%
%ADD51R,0.07874X0.05906*%
%ADD52R,0.14961X0.07874*%
%ADD53R,0.05906X0.07874*%
%ADD54R,0.03543X0.03150*%
%ADD55R,0.05315X0.04528*%
%ADD56R,0.05315X0.05709*%
%ADD57O,0.02362X0.05709*%
%ADD58R,0.05512X0.05118*%
%ADD59R,0.04921X0.03740*%
%ADD60R,0.07480X0.03543*%
%ADD61R,0.04528X0.05315*%
%ADD62R,0.07087X0.03937*%
%ADD63C,0.01968*%
%ADD64C,0.02000*%
%ADD65C,0.04000*%
G36*
X341291Y276493D02*
X342533Y276116D01*
X343678Y275504D01*
X344681Y274681D01*
X345504Y273678D01*
X346116Y272533D01*
X346493Y271291D01*
X346615Y270047D01*
X346609Y270000D01*
Y140254D01*
X346109Y140010D01*
X345476Y140434D01*
X345000Y140528D01*
Y138079D01*
X344000D01*
Y140528D01*
X343525Y140434D01*
X342698Y139881D01*
X342145Y139054D01*
X342109Y138875D01*
X341631Y138730D01*
X328974Y151388D01*
Y156597D01*
X328819Y157371D01*
X328381Y158028D01*
X311936Y174472D01*
X311820Y175058D01*
X311267Y175885D01*
X310440Y176438D01*
X309465Y176632D01*
X308489Y176438D01*
X307993Y176106D01*
X296623D01*
X296127Y176438D01*
X295541Y176554D01*
X288267Y183827D01*
X287611Y184266D01*
X286837Y184420D01*
X269186D01*
X268897Y184920D01*
X269023Y185552D01*
Y186531D01*
X271764D01*
Y189500D01*
X272764D01*
Y186531D01*
X275036D01*
Y189849D01*
X275536Y189949D01*
X275626Y189731D01*
X276147Y189052D01*
X276826Y188531D01*
X277617Y188204D01*
X278465Y188092D01*
X279314Y188204D01*
X280104Y188531D01*
X280783Y189052D01*
X281304Y189731D01*
X281631Y190522D01*
X281743Y191370D01*
X281631Y192218D01*
X281304Y193009D01*
X280783Y193688D01*
X280104Y194209D01*
X279314Y194536D01*
X278784Y194606D01*
Y196343D01*
X279055Y196747D01*
X279224Y197598D01*
Y200945D01*
X279055Y201796D01*
X278573Y202517D01*
X277851Y202999D01*
X277000Y203169D01*
X276149Y202999D01*
X275428Y202517D01*
X274945Y201796D01*
X274776Y200945D01*
Y197598D01*
X274945Y196747D01*
X275216Y196343D01*
Y193647D01*
X275352Y192964D01*
X275072Y192482D01*
X275036Y192469D01*
X274861Y192469D01*
X273917D01*
Y196541D01*
X274055Y196747D01*
X274224Y197598D01*
Y198772D01*
X269776D01*
Y197598D01*
X269945Y196747D01*
X270348Y196145D01*
Y192469D01*
X268784D01*
Y196343D01*
X269055Y196747D01*
X269224Y197598D01*
Y200945D01*
X269055Y201796D01*
X268572Y202517D01*
X267851Y202999D01*
X267000Y203169D01*
X266149Y202999D01*
X265427Y202517D01*
X264945Y201796D01*
X264776Y200945D01*
Y197598D01*
X264945Y196747D01*
X265216Y196343D01*
Y192469D01*
X264178D01*
Y186531D01*
X264411D01*
X264618Y186031D01*
X263007Y184420D01*
X253394D01*
X252898Y184752D01*
X252312Y184868D01*
X232425Y204755D01*
Y239044D01*
X235339D01*
Y256005D01*
X225465D01*
Y249548D01*
X210535D01*
Y251477D01*
X200661D01*
Y249548D01*
X198024D01*
X197250Y249394D01*
X196594Y248955D01*
X177699Y230061D01*
X177261Y229404D01*
X177107Y228630D01*
Y222200D01*
X176775Y221704D01*
X176581Y220728D01*
X176775Y219753D01*
X177107Y219256D01*
Y185647D01*
X176607Y185528D01*
X176499Y185689D01*
X175672Y186242D01*
X174697Y186436D01*
X173721Y186242D01*
X172894Y185689D01*
X172342Y184862D01*
X172148Y183887D01*
X172342Y182912D01*
X172894Y182085D01*
X173721Y181532D01*
X174697Y181338D01*
X175672Y181532D01*
X176499Y182085D01*
X176607Y182246D01*
X177107Y182127D01*
Y176011D01*
X174508Y173412D01*
X173922Y173296D01*
X173095Y172743D01*
X172543Y171916D01*
X172349Y170941D01*
X172543Y169965D01*
X173095Y169138D01*
X173922Y168586D01*
X174508Y168469D01*
X178902Y164075D01*
Y152917D01*
X178576Y152429D01*
X178524Y152352D01*
X178035Y152262D01*
X173610Y156687D01*
X173414Y156818D01*
X173520Y157349D01*
X173527Y157350D01*
X174354Y157903D01*
X174906Y158730D01*
X175100Y159705D01*
X174906Y160681D01*
X174354Y161508D01*
X173724Y161928D01*
X173829Y162459D01*
X174445Y162582D01*
X175272Y163134D01*
X175824Y163961D01*
X176018Y164937D01*
X175824Y165912D01*
X175272Y166739D01*
X174445Y167292D01*
X173469Y167486D01*
X173365Y167465D01*
X173214Y167692D01*
X172718Y168023D01*
X172132Y168140D01*
X163823D01*
Y168889D01*
X158083D01*
X157968Y169087D01*
X152032D01*
Y163543D01*
Y158228D01*
X152891D01*
X153319Y158055D01*
Y152315D01*
X163784D01*
Y153401D01*
X165034D01*
X165402Y153474D01*
X165576Y153357D01*
X166551Y153163D01*
X167527Y153357D01*
X167951Y153641D01*
X171609D01*
X175435Y149815D01*
Y146058D01*
X175025Y145776D01*
X174935Y145794D01*
X173969Y145986D01*
X173865Y145965D01*
X173714Y146192D01*
X173218Y146523D01*
X172632Y146640D01*
X164323D01*
Y147389D01*
X158583D01*
X158468Y147587D01*
X152532D01*
Y142043D01*
Y136728D01*
X153391D01*
X153819Y136555D01*
Y130815D01*
X164284D01*
Y131901D01*
X165534D01*
X165902Y131974D01*
X166076Y131857D01*
X167051Y131663D01*
X168027Y131857D01*
X168451Y132141D01*
X172111D01*
X173966Y130286D01*
Y129583D01*
X174101Y128900D01*
X174488Y128321D01*
X174935Y127874D01*
Y125058D01*
X174525Y124776D01*
X174435Y124794D01*
X173469Y124986D01*
X173365Y124965D01*
X173214Y125192D01*
X172718Y125523D01*
X172132Y125640D01*
X163823D01*
Y126389D01*
X158083D01*
X157968Y126587D01*
X152032D01*
Y121043D01*
Y115728D01*
X152891D01*
X153319Y115555D01*
Y109815D01*
X163784D01*
Y110900D01*
X165034D01*
X165402Y110974D01*
X165576Y110857D01*
X166551Y110663D01*
X167527Y110857D01*
X167951Y111141D01*
X173466D01*
X177346Y107261D01*
Y96396D01*
X175163Y94214D01*
X174774Y94532D01*
X174906Y94730D01*
X175100Y95705D01*
X174906Y96681D01*
X174354Y97508D01*
X173724Y97929D01*
X173829Y98459D01*
X174445Y98582D01*
X175272Y99134D01*
X175824Y99961D01*
X176018Y100937D01*
X175824Y101912D01*
X175272Y102739D01*
X174445Y103292D01*
X173469Y103486D01*
X173365Y103465D01*
X173214Y103692D01*
X172718Y104023D01*
X172132Y104140D01*
X163823D01*
Y104889D01*
X158083D01*
X157968Y105087D01*
X152032D01*
Y99543D01*
Y94228D01*
X152891D01*
X153319Y94055D01*
Y88315D01*
X163784D01*
Y89401D01*
X165034D01*
X165402Y89474D01*
X165576Y89357D01*
X166551Y89163D01*
X167527Y89357D01*
X167951Y89641D01*
X174159D01*
X177716Y86084D01*
Y76653D01*
X175447Y74384D01*
X174986Y74631D01*
X175100Y75205D01*
X174906Y76181D01*
X174354Y77008D01*
X173724Y77429D01*
X173829Y77959D01*
X174445Y78082D01*
X175272Y78634D01*
X175824Y79461D01*
X176018Y80437D01*
X175824Y81412D01*
X175272Y82239D01*
X174445Y82792D01*
X173469Y82986D01*
X173365Y82965D01*
X173214Y83192D01*
X172718Y83523D01*
X172132Y83640D01*
X163823D01*
Y84389D01*
X158083D01*
X157968Y84587D01*
X152032D01*
Y79043D01*
Y73728D01*
X152891D01*
X153319Y73555D01*
Y67815D01*
X163784D01*
Y68901D01*
X165034D01*
X165402Y68974D01*
X165576Y68857D01*
X166551Y68663D01*
X167527Y68857D01*
X167951Y69141D01*
X173740D01*
X177216Y65665D01*
Y57297D01*
X175441Y55522D01*
X174952Y55612D01*
X174901Y55689D01*
X174354Y56508D01*
X173724Y56928D01*
X173829Y57459D01*
X174445Y57582D01*
X175272Y58134D01*
X175824Y58961D01*
X176018Y59937D01*
X175824Y60912D01*
X175272Y61739D01*
X174445Y62292D01*
X173469Y62486D01*
X173365Y62465D01*
X173214Y62692D01*
X172718Y63023D01*
X172132Y63140D01*
X163823D01*
Y63889D01*
X158083D01*
X157968Y64087D01*
X152032D01*
Y58543D01*
Y53228D01*
X152891D01*
X153319Y53055D01*
Y47315D01*
X163784D01*
Y48401D01*
X165034D01*
X165402Y48474D01*
X165576Y48357D01*
X166551Y48163D01*
X167527Y48357D01*
X167951Y48641D01*
X172111D01*
X177216Y43536D01*
Y35456D01*
X175522Y33762D01*
X175061Y34008D01*
X175100Y34205D01*
X174906Y35181D01*
X174354Y36008D01*
X173724Y36428D01*
X173829Y36959D01*
X174445Y37082D01*
X175272Y37634D01*
X175824Y38461D01*
X176018Y39437D01*
X175824Y40412D01*
X175272Y41239D01*
X174445Y41792D01*
X173469Y41986D01*
X173365Y41965D01*
X173214Y42192D01*
X172718Y42523D01*
X172132Y42640D01*
X163823D01*
Y43389D01*
X158083D01*
X157968Y43587D01*
X152032D01*
Y38043D01*
Y32728D01*
X152891D01*
X153319Y32555D01*
Y26815D01*
X163784D01*
Y27900D01*
X165034D01*
X165402Y27974D01*
X165576Y27857D01*
X166551Y27663D01*
X167527Y27857D01*
X167951Y28141D01*
X173470D01*
X177216Y24395D01*
Y15797D01*
X175441Y14022D01*
X174952Y14112D01*
X174901Y14189D01*
X174354Y15008D01*
X173724Y15428D01*
X173829Y15959D01*
X174445Y16082D01*
X175272Y16634D01*
X175824Y17461D01*
X176018Y18437D01*
X175824Y19412D01*
X175272Y20239D01*
X174445Y20792D01*
X173469Y20986D01*
X173365Y20965D01*
X173214Y21192D01*
X172718Y21523D01*
X172132Y21640D01*
X163823D01*
Y22389D01*
X158083D01*
X157968Y22587D01*
X152032D01*
Y17043D01*
Y11728D01*
X152891D01*
X153319Y11555D01*
Y5815D01*
X163784D01*
Y6900D01*
X164308D01*
X164846Y6541D01*
X165529Y6405D01*
X166212Y6541D01*
X166430Y6687D01*
X166551Y6663D01*
X167527Y6857D01*
X168354Y7410D01*
X168536Y7683D01*
X172293D01*
X172472Y7564D01*
X173154Y7428D01*
X173837Y7564D01*
X174015Y7683D01*
X194794D01*
X195379Y7799D01*
X195876Y8131D01*
X197338Y9593D01*
X208294D01*
X208703Y9093D01*
X208613Y8641D01*
X208782Y7790D01*
X209264Y7069D01*
X209986Y6587D01*
X210837Y6417D01*
X214183D01*
X215034Y6587D01*
X215756Y7069D01*
X216238Y7790D01*
X216407Y8641D01*
X216317Y9093D01*
X216726Y9593D01*
X224774D01*
X225360Y9709D01*
X225856Y10041D01*
X229634Y13819D01*
X230085Y13563D01*
X230239Y12790D01*
X230721Y12069D01*
X231442Y11587D01*
X232293Y11417D01*
X235640D01*
X236491Y11587D01*
X237212Y12069D01*
X237694Y12790D01*
X237864Y13641D01*
X237694Y14492D01*
X237212Y15214D01*
X236491Y15696D01*
X235640Y15865D01*
X232889D01*
X232588Y16365D01*
X232615Y16417D01*
X235640D01*
X236491Y16587D01*
X237212Y17069D01*
X237241Y17112D01*
X243667D01*
Y15869D01*
X249604D01*
Y21184D01*
Y23456D01*
X246636D01*
X243667D01*
Y20170D01*
X237241D01*
X237212Y20214D01*
X236491Y20696D01*
X235640Y20865D01*
X232293D01*
X231442Y20696D01*
X230721Y20214D01*
X230239Y19492D01*
X230069Y18641D01*
X230080Y18590D01*
X224141Y12652D01*
X216701D01*
X216309Y13152D01*
X216407Y13641D01*
X216238Y14492D01*
X215756Y15214D01*
X215034Y15696D01*
X214183Y15865D01*
X210837D01*
X210206Y15740D01*
X205968D01*
Y19101D01*
X203000D01*
X200031D01*
Y16310D01*
X197598D01*
X183834Y30074D01*
X183717Y30660D01*
X183557Y30899D01*
Y48062D01*
X183403Y48837D01*
X182965Y49493D01*
X181722Y50736D01*
X185088Y54103D01*
X185527Y54759D01*
X185681Y55533D01*
Y66343D01*
X185527Y67117D01*
X185088Y67773D01*
X182861Y70000D01*
X186141Y73279D01*
X186579Y73936D01*
X186733Y74710D01*
Y86235D01*
X186579Y87009D01*
X186141Y87665D01*
X182999Y90807D01*
X185088Y92896D01*
X185527Y93553D01*
X185681Y94327D01*
Y108131D01*
X185527Y108905D01*
X185088Y109561D01*
X183079Y111570D01*
X182930Y112321D01*
X182598Y112817D01*
Y129075D01*
X182444Y129849D01*
X182006Y130505D01*
X181582Y130929D01*
X182355Y131702D01*
X182794Y132359D01*
X182948Y133133D01*
Y149973D01*
X183280Y150469D01*
X183474Y151445D01*
X183280Y152420D01*
X182948Y152917D01*
Y164913D01*
X182794Y165688D01*
X182355Y166344D01*
X177759Y170941D01*
X180561Y173742D01*
X180999Y174399D01*
X181153Y175173D01*
Y183765D01*
Y219256D01*
X181485Y219753D01*
X181679Y220728D01*
X181485Y221704D01*
X181153Y222200D01*
Y227792D01*
X198863Y245501D01*
X200661D01*
Y243572D01*
X210535D01*
Y245501D01*
X225465D01*
Y239044D01*
X228379D01*
Y203918D01*
X228533Y203143D01*
X228971Y202487D01*
X249451Y182007D01*
X249567Y181421D01*
X250120Y180595D01*
X250947Y180042D01*
X251922Y179848D01*
X252898Y180042D01*
X253394Y180374D01*
X285999D01*
X292680Y173693D01*
X292796Y173107D01*
X293349Y172280D01*
X294176Y171728D01*
X295151Y171534D01*
X296127Y171728D01*
X296623Y172060D01*
X307993D01*
X308489Y171728D01*
X309075Y171611D01*
X324927Y155759D01*
Y150550D01*
X325081Y149775D01*
X325520Y149119D01*
X342028Y132610D01*
X342145Y132025D01*
X342698Y131198D01*
X343525Y130645D01*
X344500Y130451D01*
X345476Y130645D01*
X346109Y131068D01*
X346609Y130825D01*
Y10000D01*
X346615Y9953D01*
X346493Y8709D01*
X346116Y7467D01*
X345504Y6322D01*
X344681Y5319D01*
X343678Y4496D01*
X342533Y3884D01*
X341291Y3508D01*
X340047Y3385D01*
X340000Y3391D01*
X10000D01*
X9953Y3385D01*
X8709Y3508D01*
X7467Y3884D01*
X6322Y4496D01*
X5319Y5319D01*
X4496Y6322D01*
X3884Y7467D01*
X3508Y8709D01*
X3385Y9953D01*
X3391Y10000D01*
Y270000D01*
X3385Y270047D01*
X3508Y271291D01*
X3884Y272533D01*
X4496Y273678D01*
X5319Y274681D01*
X6322Y275504D01*
X7467Y276116D01*
X8709Y276493D01*
X9953Y276615D01*
X10000Y276609D01*
X340000D01*
X340047Y276615D01*
X341291Y276493D01*
D02*
G37*
G36*
X170920Y164937D02*
X171114Y163961D01*
X171667Y163134D01*
X172297Y162713D01*
X172191Y162182D01*
X171576Y162060D01*
X170749Y161508D01*
X170566Y161235D01*
X164656D01*
X163823Y162068D01*
Y165081D01*
X170802D01*
X170920Y164937D01*
D02*
G37*
G36*
X171420Y143437D02*
X171614Y142461D01*
X172167Y141634D01*
X172797Y141213D01*
X172691Y140682D01*
X172076Y140560D01*
X171249Y140008D01*
X171066Y139735D01*
X165156D01*
X164323Y140568D01*
Y143581D01*
X171302D01*
X171420Y143437D01*
D02*
G37*
G36*
X170920Y122437D02*
X171114Y121461D01*
X171667Y120634D01*
X172297Y120213D01*
X172191Y119683D01*
X171576Y119560D01*
X170749Y119008D01*
X170566Y118735D01*
X164656D01*
X163823Y119568D01*
Y122581D01*
X170802D01*
X170920Y122437D01*
D02*
G37*
G36*
Y100937D02*
X171114Y99961D01*
X171667Y99134D01*
X172297Y98713D01*
X172191Y98183D01*
X171576Y98060D01*
X170749Y97508D01*
X170566Y97235D01*
X164656D01*
X163823Y98068D01*
Y101081D01*
X170802D01*
X170920Y100937D01*
D02*
G37*
G36*
Y80437D02*
X171114Y79461D01*
X171667Y78634D01*
X172297Y78213D01*
X172191Y77683D01*
X171576Y77560D01*
X170749Y77008D01*
X170566Y76735D01*
X164656D01*
X163823Y77568D01*
Y80581D01*
X170802D01*
X170920Y80437D01*
D02*
G37*
G36*
Y59937D02*
X171114Y58961D01*
X171667Y58134D01*
X172297Y57713D01*
X172191Y57183D01*
X171576Y57060D01*
X170749Y56508D01*
X170566Y56235D01*
X164656D01*
X163823Y57068D01*
Y60081D01*
X170802D01*
X170920Y59937D01*
D02*
G37*
G36*
Y39437D02*
X171114Y38461D01*
X171667Y37634D01*
X172297Y37213D01*
X172191Y36683D01*
X171576Y36560D01*
X170749Y36008D01*
X170566Y35735D01*
X164656D01*
X163823Y36568D01*
Y39581D01*
X170802D01*
X170920Y39437D01*
D02*
G37*
G36*
Y18437D02*
X171114Y17461D01*
X171667Y16634D01*
X172297Y16213D01*
X172191Y15683D01*
X171576Y15560D01*
X170749Y15008D01*
X170566Y14735D01*
X164656D01*
X163823Y15568D01*
Y18581D01*
X170802D01*
X170920Y18437D01*
D02*
G37*
G36*
X179511Y32051D02*
Y31414D01*
X179007Y30660D01*
X178813Y29685D01*
X179007Y28709D01*
X179560Y27882D01*
X180387Y27330D01*
X180973Y27213D01*
X195330Y12856D01*
X195582Y12687D01*
X195536Y12117D01*
X194161Y10742D01*
X177860D01*
X177669Y11203D01*
X180262Y13796D01*
X180262Y13796D01*
X180648Y14375D01*
X180784Y15058D01*
Y25134D01*
X180648Y25817D01*
X180262Y26396D01*
X176732Y29925D01*
X179049Y32242D01*
X179511Y32051D01*
D02*
G37*
%LPC*%
G36*
X72500Y270712D02*
Y268000D01*
X75212D01*
X75166Y268348D01*
X74839Y269139D01*
X74318Y269818D01*
X73639Y270339D01*
X72848Y270666D01*
X72500Y270712D01*
D02*
G37*
G36*
X71500D02*
X71152Y270666D01*
X70361Y270339D01*
X69682Y269818D01*
X69161Y269139D01*
X68834Y268348D01*
X68788Y268000D01*
X71500D01*
Y270712D01*
D02*
G37*
G36*
X60935Y269500D02*
Y267551D01*
X62885D01*
X62790Y268026D01*
X62238Y268853D01*
X61411Y269406D01*
X60935Y269500D01*
D02*
G37*
G36*
X59935D02*
X59460Y269406D01*
X58633Y268853D01*
X58080Y268026D01*
X57986Y267551D01*
X59935D01*
Y269500D01*
D02*
G37*
G36*
X62885Y266551D02*
X60935D01*
Y264601D01*
X61411Y264696D01*
X62238Y265248D01*
X62790Y266075D01*
X62885Y266551D01*
D02*
G37*
G36*
X59935D02*
X57986D01*
X58080Y266075D01*
X58633Y265248D01*
X59460Y264696D01*
X59935Y264601D01*
Y266551D01*
D02*
G37*
G36*
X136437Y267575D02*
X133182D01*
Y264516D01*
X136437D01*
Y267575D01*
D02*
G37*
G36*
X132182D02*
X128926D01*
Y264516D01*
X132182D01*
Y267575D01*
D02*
G37*
G36*
X75212Y267000D02*
X72500D01*
Y264288D01*
X72848Y264334D01*
X73639Y264661D01*
X74318Y265182D01*
X74839Y265861D01*
X75166Y266652D01*
X75212Y267000D01*
D02*
G37*
G36*
X71500D02*
X68788D01*
X68834Y266652D01*
X69161Y265861D01*
X69682Y265182D01*
X70361Y264661D01*
X71152Y264334D01*
X71500Y264288D01*
Y267000D01*
D02*
G37*
G36*
X26000Y268199D02*
X25152Y268088D01*
X24361Y267760D01*
X23682Y267239D01*
X23161Y266560D01*
X22834Y265770D01*
X22722Y264921D01*
X22834Y264073D01*
X23161Y263282D01*
X23682Y262603D01*
X24361Y262082D01*
X25152Y261755D01*
X26000Y261643D01*
X26848Y261755D01*
X27639Y262082D01*
X28318Y262603D01*
X28839Y263282D01*
X29166Y264073D01*
X29278Y264921D01*
X29166Y265770D01*
X28839Y266560D01*
X28318Y267239D01*
X27639Y267760D01*
X26848Y268088D01*
X26000Y268199D01*
D02*
G37*
G36*
X136437Y263516D02*
X132682D01*
X128926D01*
Y260033D01*
X128464Y259841D01*
X127484Y260821D01*
X126988Y261153D01*
X126402Y261269D01*
X83384D01*
X83339Y261379D01*
X82818Y262058D01*
X82139Y262579D01*
X81348Y262906D01*
X80500Y263018D01*
X79652Y262906D01*
X78861Y262579D01*
X78182Y262058D01*
X77661Y261379D01*
X77616Y261269D01*
X75157D01*
Y262709D01*
X67843D01*
Y256319D01*
X67843Y256181D01*
Y255819D01*
X67843Y255681D01*
Y251454D01*
X67123Y250734D01*
X66791Y250778D01*
X65943Y250666D01*
X65152Y250339D01*
X64473Y249818D01*
X63952Y249139D01*
X63625Y248348D01*
X63513Y247500D01*
X63625Y246652D01*
X63952Y245861D01*
X64217Y245517D01*
X64018Y244954D01*
X63836Y244911D01*
X62575Y246171D01*
X62580Y246193D01*
X62385Y247168D01*
X61833Y247995D01*
X61006Y248547D01*
X60031Y248742D01*
X59055Y248547D01*
X58228Y247995D01*
X57676Y247168D01*
X57481Y246193D01*
X57676Y245217D01*
X58228Y244390D01*
X59055Y243837D01*
X60031Y243643D01*
X60052Y243648D01*
X62003Y241697D01*
X62581Y241310D01*
X63264Y241174D01*
X67632D01*
Y238319D01*
X67632Y238181D01*
Y237819D01*
X67632Y237681D01*
Y235840D01*
X63465D01*
Y238354D01*
X59754D01*
X55549Y242560D01*
Y244500D01*
X55355Y245476D01*
X54802Y246302D01*
X53975Y246855D01*
X53000Y247049D01*
X52025Y246855D01*
X51198Y246302D01*
X50645Y245476D01*
X50451Y244500D01*
Y241504D01*
X50645Y240528D01*
X51198Y239702D01*
X51859Y239040D01*
X51859Y238845D01*
X51369Y238354D01*
X49762D01*
Y247515D01*
X50035Y247698D01*
X50587Y248524D01*
X50781Y249500D01*
X50587Y250476D01*
X50035Y251302D01*
X49208Y251855D01*
X48232Y252049D01*
X47257Y251855D01*
X46430Y251302D01*
X45877Y250476D01*
X45683Y249500D01*
X45877Y248524D01*
X46430Y247698D01*
X46703Y247515D01*
Y238354D01*
X44535D01*
Y232809D01*
X37627Y225900D01*
X37296Y225404D01*
X37179Y224819D01*
Y222035D01*
X33819D01*
X33681Y222035D01*
X33319D01*
X33181Y222035D01*
X31416D01*
X30936Y222149D01*
X30800Y222832D01*
X30413Y223411D01*
X29045Y224779D01*
X29049Y224801D01*
X28855Y225776D01*
X28302Y226603D01*
X27476Y227155D01*
X27000Y227250D01*
Y224801D01*
X26500D01*
Y224301D01*
X24050D01*
X24145Y223825D01*
X24698Y222998D01*
X25525Y222446D01*
X26500Y222252D01*
X26791Y221881D01*
Y218878D01*
X30055D01*
Y218378D01*
X30555D01*
Y214721D01*
X33152D01*
X33319Y214721D01*
X33652Y214358D01*
Y209244D01*
X31993Y207586D01*
X31532Y207777D01*
Y209949D01*
X29260D01*
Y207374D01*
X28760D01*
Y206874D01*
X25988D01*
Y204799D01*
X28521D01*
X28788Y204299D01*
X28618Y204046D01*
X28502Y203461D01*
Y202468D01*
X25988D01*
Y198549D01*
X24406D01*
X23430Y198355D01*
X22603Y197802D01*
X19635Y194835D01*
X13760D01*
Y189291D01*
X23240D01*
Y191230D01*
X25461Y193451D01*
X27388D01*
X27645Y193039D01*
X27640Y192951D01*
X27551Y192500D01*
X32449D01*
X32355Y192975D01*
X32220Y193177D01*
X32371Y193542D01*
X32488Y193676D01*
X33268Y194198D01*
X38165Y199094D01*
X38717Y199922D01*
X38911Y200897D01*
Y201059D01*
X39406D01*
Y201085D01*
X43278D01*
X44253Y201279D01*
X45080Y201832D01*
X47392Y204144D01*
X52874D01*
Y210081D01*
X50880D01*
Y221771D01*
X59754Y230646D01*
X63465D01*
Y230742D01*
X70025D01*
X71001Y230936D01*
X71532Y231291D01*
X74947D01*
Y232006D01*
X102248D01*
X102439Y231544D01*
X96198Y225302D01*
X95645Y224476D01*
X95451Y223500D01*
Y76178D01*
X86035Y66762D01*
X84664D01*
Y66922D01*
X78727D01*
Y66762D01*
X76603D01*
X75628Y66568D01*
X74801Y66015D01*
X69194Y60408D01*
X68641Y59581D01*
X68447Y58605D01*
Y39496D01*
X66440D01*
Y29622D01*
X74346D01*
Y39496D01*
X73545D01*
Y57550D01*
X77659Y61664D01*
X78727D01*
Y59335D01*
X84664D01*
Y61664D01*
X87091D01*
X88066Y61858D01*
X88893Y62410D01*
X99802Y73319D01*
X100355Y74146D01*
X100549Y75122D01*
Y222444D01*
X110857Y232753D01*
X122367Y244262D01*
X141546D01*
Y243524D01*
X149057D01*
Y245174D01*
X182091D01*
X182871Y245330D01*
X183533Y245772D01*
X193041Y255280D01*
X200661D01*
Y252627D01*
X210535D01*
Y260532D01*
X200661D01*
Y259358D01*
X192196D01*
X191416Y259203D01*
X190754Y258761D01*
X190754Y258761D01*
X181246Y249253D01*
X149057D01*
Y252882D01*
X145301D01*
X141546D01*
Y249360D01*
X121311D01*
X120335Y249166D01*
X119509Y248613D01*
X107999Y237104D01*
X75300D01*
X74947Y237458D01*
X74947Y238181D01*
X74947Y238319D01*
Y244709D01*
X69948D01*
X69775Y244743D01*
X69272D01*
X69156Y245243D01*
X69630Y245861D01*
X69958Y246652D01*
X70069Y247500D01*
X69958Y248348D01*
X69726Y248907D01*
X70039Y249291D01*
X75157D01*
Y255681D01*
X75157Y255819D01*
Y256181D01*
X75157Y256319D01*
Y258210D01*
X77616D01*
X77661Y258101D01*
X78182Y257422D01*
X78861Y256901D01*
X79652Y256573D01*
X80500Y256462D01*
X81348Y256573D01*
X82139Y256901D01*
X82818Y257422D01*
X83339Y258101D01*
X83384Y258210D01*
X125769D01*
X127344Y256635D01*
X127840Y256304D01*
X128426Y256187D01*
X128926D01*
Y254157D01*
X136437D01*
Y257368D01*
X141370D01*
X141546Y256941D01*
X141546Y256868D01*
Y254687D01*
X141497Y254441D01*
X141546Y254195D01*
Y253882D01*
X145301D01*
X149057D01*
Y256868D01*
X149057Y256941D01*
X149233Y257368D01*
X183000D01*
X183182Y257095D01*
X184009Y256543D01*
X184984Y256349D01*
X185960Y256543D01*
X186787Y257095D01*
X187339Y257922D01*
X187533Y258898D01*
X187339Y259873D01*
X186787Y260700D01*
X185960Y261253D01*
X184984Y261447D01*
X184009Y261253D01*
X183182Y260700D01*
X183000Y260427D01*
X136437D01*
Y260457D01*
Y263516D01*
D02*
G37*
G36*
X116350Y256551D02*
Y253839D01*
X119063D01*
X119017Y254187D01*
X118689Y254978D01*
X118168Y255657D01*
X117489Y256177D01*
X116699Y256505D01*
X116350Y256551D01*
D02*
G37*
G36*
X115350D02*
X115002Y256505D01*
X114211Y256177D01*
X113532Y255657D01*
X113012Y254978D01*
X112684Y254187D01*
X112638Y253839D01*
X115350D01*
Y256551D01*
D02*
G37*
G36*
X119063Y252839D02*
X116350D01*
Y250126D01*
X116699Y250172D01*
X117489Y250500D01*
X118168Y251021D01*
X118689Y251700D01*
X119017Y252490D01*
X119063Y252839D01*
D02*
G37*
G36*
X115350D02*
X112638D01*
X112684Y252490D01*
X113012Y251700D01*
X113532Y251021D01*
X114211Y250500D01*
X115002Y250172D01*
X115350Y250126D01*
Y252839D01*
D02*
G37*
G36*
X320000Y260876D02*
X318299Y260742D01*
X316639Y260344D01*
X315062Y259691D01*
X313607Y258799D01*
X312310Y257691D01*
X311201Y256393D01*
X310309Y254938D01*
X309656Y253361D01*
X309258Y251701D01*
X309124Y250000D01*
X309258Y248299D01*
X309656Y246639D01*
X310309Y245062D01*
X311201Y243607D01*
X312310Y242309D01*
X313607Y241201D01*
X315062Y240309D01*
X316639Y239656D01*
X318299Y239258D01*
X320000Y239124D01*
X321701Y239258D01*
X323361Y239656D01*
X324938Y240309D01*
X326393Y241201D01*
X327691Y242309D01*
X328799Y243607D01*
X329691Y245062D01*
X330344Y246639D01*
X330742Y248299D01*
X330876Y250000D01*
X330742Y251701D01*
X330344Y253361D01*
X329691Y254938D01*
X328799Y256393D01*
X327691Y257691D01*
X326393Y258799D01*
X324938Y259691D01*
X323361Y260344D01*
X321701Y260742D01*
X320000Y260876D01*
D02*
G37*
G36*
X30000D02*
X28299Y260742D01*
X26639Y260344D01*
X25062Y259691D01*
X23607Y258799D01*
X22309Y257691D01*
X21201Y256393D01*
X20309Y254938D01*
X19656Y253361D01*
X19258Y251701D01*
X19124Y250000D01*
X19258Y248299D01*
X19656Y246639D01*
X20309Y245062D01*
X21201Y243607D01*
X22309Y242309D01*
X23607Y241201D01*
X25062Y240309D01*
X26639Y239656D01*
X28299Y239258D01*
X30000Y239124D01*
X31701Y239258D01*
X33361Y239656D01*
X34938Y240309D01*
X36393Y241201D01*
X37690Y242309D01*
X38799Y243607D01*
X39691Y245062D01*
X40344Y246639D01*
X40742Y248299D01*
X40876Y250000D01*
X40742Y251701D01*
X40344Y253361D01*
X39691Y254938D01*
X38799Y256393D01*
X37690Y257691D01*
X36393Y258799D01*
X34938Y259691D01*
X33361Y260344D01*
X31701Y260742D01*
X30000Y260876D01*
D02*
G37*
G36*
X263701Y259461D02*
X262853Y259349D01*
X262062Y259022D01*
X261384Y258501D01*
X260862Y257822D01*
X260535Y257031D01*
X260423Y256183D01*
X260535Y255334D01*
X260862Y254544D01*
X261384Y253865D01*
X262062Y253344D01*
X262853Y253017D01*
X263656Y252911D01*
Y245638D01*
X263772Y245053D01*
X264104Y244556D01*
X264128Y244532D01*
X263922Y244223D01*
X263806Y243638D01*
Y240434D01*
X256370D01*
Y239046D01*
X254650D01*
X254468Y239319D01*
X253641Y239871D01*
X252666Y240065D01*
X251690Y239871D01*
X250863Y239319D01*
X250311Y238492D01*
X250117Y237516D01*
X250311Y236541D01*
X250863Y235714D01*
X251690Y235161D01*
X252666Y234967D01*
X253641Y235161D01*
X254468Y235714D01*
X254650Y235987D01*
X256370D01*
Y234694D01*
X257136D01*
Y231985D01*
X253851D01*
Y229016D01*
X253351D01*
Y228516D01*
X250579D01*
Y226048D01*
X251471D01*
Y223558D01*
X251198Y223376D01*
X250645Y222549D01*
X250551Y222074D01*
X255450D01*
X255355Y222549D01*
X254802Y223376D01*
X254529Y223558D01*
Y226048D01*
X259274D01*
X260471Y224852D01*
Y224003D01*
X260427Y223974D01*
X259945Y223253D01*
X259776Y222402D01*
Y219055D01*
X259945Y218204D01*
X260427Y217483D01*
X261149Y217001D01*
X262000Y216831D01*
X262851Y217001D01*
X263573Y217483D01*
X264055Y218204D01*
X264224Y219055D01*
Y222402D01*
X264055Y223253D01*
X263573Y223974D01*
X263529Y224003D01*
Y225485D01*
X263413Y226070D01*
X263081Y226567D01*
X261437Y228211D01*
Y231985D01*
X260195D01*
Y234694D01*
X263754D01*
X265471Y232977D01*
Y224003D01*
X265427Y223974D01*
X264945Y223253D01*
X264776Y222402D01*
Y219055D01*
X264945Y218204D01*
X265427Y217483D01*
X266149Y217001D01*
X267000Y216831D01*
X267851Y217001D01*
X268572Y217483D01*
X269055Y218204D01*
X269224Y219055D01*
Y222402D01*
X269055Y223253D01*
X268572Y223974D01*
X268529Y224003D01*
Y233611D01*
X268413Y234196D01*
X268081Y234692D01*
X266835Y235939D01*
Y238589D01*
X266864Y238737D01*
Y243005D01*
X267341Y243482D01*
X267673Y243978D01*
X267789Y244563D01*
X267673Y245148D01*
X267341Y245644D01*
X266714Y246271D01*
Y253752D01*
X266598Y254338D01*
X266497Y254488D01*
X266540Y254544D01*
X266868Y255334D01*
X266979Y256183D01*
X266868Y257031D01*
X266540Y257822D01*
X266019Y258501D01*
X265340Y259022D01*
X264550Y259349D01*
X263701Y259461D01*
D02*
G37*
G36*
X210535Y242422D02*
X206098D01*
Y238969D01*
X210535D01*
Y242422D01*
D02*
G37*
G36*
X205098D02*
X200661D01*
Y238969D01*
X205098D01*
Y242422D01*
D02*
G37*
G36*
X275500Y260278D02*
X274652Y260166D01*
X273861Y259839D01*
X273182Y259318D01*
X272661Y258639D01*
X272334Y257848D01*
X272222Y257000D01*
X272334Y256152D01*
X272661Y255361D01*
X273182Y254682D01*
X273286Y254603D01*
Y246271D01*
X272659Y245644D01*
X272327Y245148D01*
X272211Y244563D01*
X272327Y243978D01*
X272659Y243482D01*
X272841Y243299D01*
Y238540D01*
X272870Y238392D01*
Y236856D01*
X270919Y234905D01*
X270587Y234408D01*
X270471Y233823D01*
Y224003D01*
X270427Y223974D01*
X269945Y223253D01*
X269776Y222402D01*
Y219055D01*
X269945Y218204D01*
X270427Y217483D01*
X271149Y217001D01*
X272000Y216831D01*
X272851Y217001D01*
X273572Y217483D01*
X274055Y218204D01*
X274224Y219055D01*
Y222402D01*
X274055Y223253D01*
X273572Y223974D01*
X273529Y224003D01*
Y233190D01*
X275033Y234694D01*
X283335D01*
Y235987D01*
X284181D01*
X284363Y235714D01*
X285190Y235161D01*
X286166Y234967D01*
X287141Y235161D01*
X287968Y235714D01*
X288521Y236541D01*
X288715Y237516D01*
X288521Y238492D01*
X287968Y239319D01*
X287141Y239871D01*
X286166Y240065D01*
X285190Y239871D01*
X284363Y239319D01*
X284181Y239046D01*
X283335D01*
Y240434D01*
X275900D01*
Y243933D01*
X275796Y244456D01*
X275896Y244556D01*
X276228Y245053D01*
X276344Y245638D01*
Y253833D01*
X276348Y253834D01*
X277139Y254161D01*
X277818Y254682D01*
X278339Y255361D01*
X278666Y256152D01*
X278778Y257000D01*
X278666Y257848D01*
X278339Y258639D01*
X277818Y259318D01*
X277139Y259839D01*
X276348Y260166D01*
X275500Y260278D01*
D02*
G37*
G36*
X210535Y237969D02*
X206098D01*
Y234517D01*
X210535D01*
Y237969D01*
D02*
G37*
G36*
X205098D02*
X200661D01*
Y234517D01*
X205098D01*
Y237969D01*
D02*
G37*
G36*
X252851Y231985D02*
X250579D01*
Y229516D01*
X252851D01*
Y231985D01*
D02*
G37*
G36*
X144632Y230381D02*
Y228432D01*
X146582D01*
X146487Y228907D01*
X145935Y229734D01*
X145108Y230287D01*
X144632Y230381D01*
D02*
G37*
G36*
X143632D02*
X143157Y230287D01*
X142330Y229734D01*
X141777Y228907D01*
X141683Y228432D01*
X143632D01*
Y230381D01*
D02*
G37*
G36*
X146582Y227432D02*
X144632D01*
Y225482D01*
X145108Y225577D01*
X145935Y226130D01*
X146487Y226956D01*
X146582Y227432D01*
D02*
G37*
G36*
X143632D02*
X141683D01*
X141777Y226956D01*
X142330Y226130D01*
X143157Y225577D01*
X143632Y225482D01*
Y227432D01*
D02*
G37*
G36*
X26000Y227250D02*
X25525Y227155D01*
X24698Y226603D01*
X24145Y225776D01*
X24050Y225301D01*
X26000D01*
Y227250D01*
D02*
G37*
G36*
X298000Y222950D02*
Y221000D01*
X299950D01*
X299855Y221476D01*
X299302Y222302D01*
X298476Y222855D01*
X298000Y222950D01*
D02*
G37*
G36*
X159359Y220764D02*
X158384Y220570D01*
X157557Y220018D01*
X157428Y219825D01*
X157079D01*
X156252Y220377D01*
X155777Y220472D01*
Y218022D01*
X155277D01*
Y217522D01*
X152827D01*
X152922Y217047D01*
X153017Y216904D01*
X152781Y216463D01*
X152407D01*
Y213995D01*
X155178D01*
Y213495D01*
X155678D01*
Y210526D01*
X163265D01*
Y216463D01*
X161726D01*
X161490Y216904D01*
X161714Y217240D01*
X161908Y218215D01*
X161714Y219191D01*
X161162Y220018D01*
X160335Y220570D01*
X159359Y220764D01*
D02*
G37*
G36*
X255450Y221074D02*
X253500D01*
Y219124D01*
X253976Y219219D01*
X254802Y219771D01*
X255355Y220598D01*
X255450Y221074D01*
D02*
G37*
G36*
X252500D02*
X250551D01*
X250645Y220598D01*
X251198Y219771D01*
X252025Y219219D01*
X252500Y219124D01*
Y221074D01*
D02*
G37*
G36*
X154777Y220472D02*
X154301Y220377D01*
X153474Y219825D01*
X152922Y218998D01*
X152827Y218522D01*
X154777D01*
Y220472D01*
D02*
G37*
G36*
X299950Y220000D02*
X298000D01*
Y218051D01*
X298476Y218145D01*
X299302Y218698D01*
X299855Y219525D01*
X299950Y220000D01*
D02*
G37*
G36*
X293934Y223370D02*
X291760D01*
Y220500D01*
Y217630D01*
X293934D01*
Y218971D01*
X295515D01*
X295698Y218698D01*
X296525Y218145D01*
X297000Y218051D01*
Y220500D01*
Y222950D01*
X296525Y222855D01*
X295698Y222302D01*
X295515Y222029D01*
X293934D01*
Y223370D01*
D02*
G37*
G36*
X277000Y224625D02*
X276149Y224456D01*
X275428Y223974D01*
X274945Y223253D01*
X274776Y222402D01*
Y219055D01*
X274945Y218204D01*
X275428Y217483D01*
X276149Y217001D01*
X277000Y216831D01*
X277851Y217001D01*
X278573Y217483D01*
X279055Y218204D01*
X279224Y219055D01*
Y219199D01*
X283469D01*
Y217630D01*
X290760D01*
Y220500D01*
Y223370D01*
X283469D01*
Y222258D01*
X279224D01*
Y222402D01*
X279055Y223253D01*
X278573Y223974D01*
X277851Y224456D01*
X277000Y224625D01*
D02*
G37*
G36*
X87500Y222549D02*
X86524Y222355D01*
X85698Y221802D01*
X85145Y220975D01*
X84951Y220000D01*
X85015Y219678D01*
X78375Y213038D01*
X78044Y212542D01*
X77927Y211957D01*
Y177347D01*
X76335Y175754D01*
X75807Y175934D01*
X75690Y176825D01*
X75152Y178121D01*
X74298Y179235D01*
X73184Y180089D01*
X71888Y180627D01*
X70496Y180810D01*
X69104Y180627D01*
X67808Y180089D01*
X66694Y179235D01*
X65840Y178121D01*
X65303Y176825D01*
X65119Y175433D01*
X65303Y174041D01*
X65840Y172745D01*
X66694Y171631D01*
X67572Y170958D01*
X67596Y170825D01*
X67524Y170374D01*
X67165Y170134D01*
X66490Y169459D01*
X66009Y169686D01*
X65847Y170919D01*
X65310Y172216D01*
X64455Y173329D01*
X63342Y174184D01*
X62045Y174721D01*
X60654Y174904D01*
X59262Y174721D01*
X57965Y174184D01*
X56852Y173329D01*
X55997Y172216D01*
X55460Y170919D01*
X55277Y169528D01*
X55460Y168136D01*
X55997Y166839D01*
X56544Y166126D01*
X56298Y165626D01*
X55223D01*
X54638Y165510D01*
X54141Y165178D01*
X51393Y162430D01*
X50234Y162910D01*
X48842Y163093D01*
X47451Y162910D01*
X46154Y162373D01*
X45041Y161518D01*
X44186Y160405D01*
X43649Y159108D01*
X43466Y157717D01*
X43649Y156325D01*
X44186Y155028D01*
X45041Y153915D01*
X46154Y153060D01*
X47451Y152523D01*
X48842Y152340D01*
X50234Y152523D01*
X51531Y153060D01*
X52644Y153915D01*
X53499Y155028D01*
X54036Y156325D01*
X54219Y157717D01*
X54036Y159108D01*
X53556Y160267D01*
X55856Y162567D01*
X57397D01*
X57567Y162067D01*
X56852Y161518D01*
X55997Y160405D01*
X55460Y159108D01*
X55277Y157717D01*
X55460Y156325D01*
X55997Y155028D01*
X56544Y154315D01*
X56298Y153815D01*
X55223D01*
X54638Y153699D01*
X54141Y153367D01*
X51393Y150619D01*
X50234Y151099D01*
X48842Y151282D01*
X47451Y151099D01*
X46154Y150562D01*
X45041Y149707D01*
X44186Y148594D01*
X43649Y147297D01*
X43466Y145905D01*
X43649Y144514D01*
X44186Y143217D01*
X45041Y142104D01*
X46154Y141249D01*
X47451Y140712D01*
X48842Y140529D01*
X50234Y140712D01*
X51531Y141249D01*
X52644Y142104D01*
X53499Y143217D01*
X54036Y144514D01*
X54219Y145905D01*
X54036Y147297D01*
X53556Y148456D01*
X55856Y150756D01*
X57397D01*
X57567Y150256D01*
X56852Y149707D01*
X55997Y148594D01*
X55460Y147297D01*
X55277Y145905D01*
X55460Y144514D01*
X55997Y143217D01*
X56544Y142504D01*
X56298Y142004D01*
X55223D01*
X54638Y141888D01*
X54141Y141556D01*
X51393Y138808D01*
X50234Y139288D01*
X48842Y139471D01*
X47451Y139288D01*
X46154Y138751D01*
X45041Y137896D01*
X44186Y136783D01*
X43649Y135486D01*
X43466Y134095D01*
X43649Y132703D01*
X44186Y131406D01*
X45041Y130293D01*
X46154Y129438D01*
X47451Y128901D01*
X48842Y128718D01*
X50234Y128901D01*
X51531Y129438D01*
X52644Y130293D01*
X53499Y131406D01*
X54036Y132703D01*
X54219Y134095D01*
X54036Y135486D01*
X53556Y136645D01*
X55856Y138945D01*
X57397D01*
X57567Y138445D01*
X56852Y137896D01*
X55997Y136783D01*
X55460Y135486D01*
X55277Y134095D01*
X55460Y132703D01*
X55997Y131406D01*
X56544Y130693D01*
X56298Y130193D01*
X55223D01*
X54638Y130077D01*
X54141Y129745D01*
X51393Y126997D01*
X50234Y127477D01*
X48842Y127660D01*
X47451Y127477D01*
X46154Y126940D01*
X45041Y126085D01*
X44186Y124972D01*
X43649Y123675D01*
X43466Y122283D01*
X43649Y120892D01*
X44186Y119595D01*
X45041Y118482D01*
X46154Y117627D01*
X47451Y117090D01*
X48842Y116907D01*
X50234Y117090D01*
X51531Y117627D01*
X52644Y118482D01*
X53499Y119595D01*
X54036Y120892D01*
X54219Y122283D01*
X54036Y123675D01*
X53556Y124834D01*
X55856Y127134D01*
X57397D01*
X57567Y126634D01*
X56852Y126085D01*
X55997Y124972D01*
X55460Y123675D01*
X55277Y122283D01*
X55460Y120892D01*
X55997Y119595D01*
X56852Y118482D01*
X57965Y117627D01*
X59262Y117090D01*
X60654Y116907D01*
X62045Y117090D01*
X63342Y117627D01*
X64455Y118482D01*
X65310Y119595D01*
X65847Y120892D01*
X66030Y122283D01*
X65847Y123675D01*
X65310Y124972D01*
X64455Y126085D01*
X63658Y126698D01*
X63782Y127232D01*
X63876Y127251D01*
X64372Y127582D01*
X64657Y127868D01*
X65185Y127688D01*
X65303Y126797D01*
X65840Y125501D01*
X66694Y124387D01*
X67808Y123533D01*
X69104Y122995D01*
X70496Y122812D01*
X71888Y122995D01*
X73184Y123533D01*
X74298Y124387D01*
X75152Y125501D01*
X75690Y126797D01*
X75873Y128189D01*
X75690Y129581D01*
X75152Y130877D01*
X74298Y131991D01*
X73420Y132664D01*
X73396Y132797D01*
X73468Y133248D01*
X73827Y133488D01*
X89081Y148742D01*
X89413Y149239D01*
X89529Y149824D01*
Y168790D01*
X89802Y168972D01*
X90355Y169799D01*
X90549Y170775D01*
X90355Y171750D01*
X89802Y172577D01*
X88976Y173130D01*
X88000Y173324D01*
X87024Y173130D01*
X86198Y172577D01*
X85645Y171750D01*
X85511Y171074D01*
X85486Y170951D01*
X85003Y170998D01*
X84986Y171052D01*
Y185323D01*
X87678Y188015D01*
X88000Y187951D01*
X88976Y188145D01*
X89802Y188698D01*
X90355Y189524D01*
X90549Y190500D01*
X90355Y191475D01*
X89802Y192302D01*
X88976Y192855D01*
X88000Y193049D01*
X87024Y192855D01*
X86198Y192302D01*
X85645Y191475D01*
X85451Y190500D01*
X85515Y190178D01*
X83448Y188111D01*
X82986Y188302D01*
Y196431D01*
X87178Y200623D01*
X87500Y200558D01*
X88476Y200752D01*
X89302Y201305D01*
X89855Y202132D01*
X90049Y203107D01*
X89855Y204083D01*
X89302Y204910D01*
X88476Y205462D01*
X87500Y205656D01*
X86524Y205462D01*
X85698Y204910D01*
X85145Y204083D01*
X84951Y203107D01*
X85015Y202785D01*
X81448Y199218D01*
X80986Y199410D01*
Y211323D01*
X87178Y217515D01*
X87500Y217451D01*
X88476Y217645D01*
X89302Y218198D01*
X89855Y219024D01*
X90049Y220000D01*
X89855Y220975D01*
X89302Y221802D01*
X88476Y222355D01*
X87500Y222549D01*
D02*
G37*
G36*
X29555Y217878D02*
X26791D01*
Y214721D01*
X29555D01*
Y217878D01*
D02*
G37*
G36*
X131611Y215755D02*
Y213806D01*
X133560D01*
X133466Y214281D01*
X132913Y215108D01*
X132086Y215661D01*
X131611Y215755D01*
D02*
G37*
G36*
X130611D02*
X130135Y215661D01*
X129308Y215108D01*
X128756Y214281D01*
X128661Y213806D01*
X130611D01*
Y215755D01*
D02*
G37*
G36*
X133560Y212806D02*
X131611D01*
Y210856D01*
X132086Y210951D01*
X132913Y211504D01*
X133466Y212330D01*
X133560Y212806D01*
D02*
G37*
G36*
X130611D02*
X128661D01*
X128756Y212330D01*
X129308Y211504D01*
X130135Y210951D01*
X130611Y210856D01*
Y212806D01*
D02*
G37*
G36*
X154678Y212995D02*
X152407D01*
Y210526D01*
X154678D01*
Y212995D01*
D02*
G37*
G36*
X13409Y223320D02*
X11940Y223175D01*
X10527Y222746D01*
X9225Y222050D01*
X8083Y221114D01*
X7147Y219972D01*
X6451Y218670D01*
X6022Y217257D01*
X5877Y215787D01*
X6022Y214318D01*
X6451Y212905D01*
X7147Y211603D01*
X8083Y210461D01*
X9225Y209524D01*
X10527Y208828D01*
X11940Y208400D01*
X13409Y208255D01*
X14879Y208400D01*
X16292Y208828D01*
X17594Y209524D01*
X18736Y210461D01*
X19672Y211603D01*
X20368Y212905D01*
X20797Y214318D01*
X20942Y215787D01*
X20797Y217257D01*
X20368Y218670D01*
X19672Y219972D01*
X18736Y221114D01*
X17594Y222050D01*
X16292Y222746D01*
X14879Y223175D01*
X13409Y223320D01*
D02*
G37*
G36*
X274973Y210839D02*
Y208127D01*
X277685D01*
X277639Y208475D01*
X277312Y209266D01*
X276791Y209945D01*
X276112Y210465D01*
X275321Y210793D01*
X274973Y210839D01*
D02*
G37*
G36*
X273973D02*
X273624Y210793D01*
X272834Y210465D01*
X272155Y209945D01*
X271634Y209266D01*
X271306Y208475D01*
X271260Y208127D01*
X273973D01*
Y210839D01*
D02*
G37*
G36*
X28260Y209949D02*
X25988D01*
Y207874D01*
X28260D01*
Y209949D01*
D02*
G37*
G36*
X277685Y207127D02*
X271260D01*
X271306Y206778D01*
X271484Y206349D01*
X270772Y205638D01*
X270386Y205059D01*
X270250Y204376D01*
Y202251D01*
X269945Y201796D01*
X269776Y200945D01*
Y199772D01*
X274224D01*
Y200945D01*
X274055Y201796D01*
X273818Y202150D01*
Y203637D01*
X274538Y204357D01*
X275321Y204460D01*
X276112Y204788D01*
X276791Y205309D01*
X277312Y205988D01*
X277639Y206778D01*
X277685Y207127D01*
D02*
G37*
G36*
X144385Y197526D02*
Y195576D01*
X146335D01*
X146240Y196051D01*
X145688Y196878D01*
X144861Y197431D01*
X144385Y197526D01*
D02*
G37*
G36*
X143385D02*
X142910Y197431D01*
X142083Y196878D01*
X141530Y196051D01*
X141436Y195576D01*
X143385D01*
Y197526D01*
D02*
G37*
G36*
X146335Y194576D02*
X144385D01*
Y192626D01*
X144861Y192721D01*
X145688Y193274D01*
X146240Y194100D01*
X146335Y194576D01*
D02*
G37*
G36*
X143385D02*
X141436D01*
X141530Y194100D01*
X142083Y193274D01*
X142910Y192721D01*
X143385Y192626D01*
Y194576D01*
D02*
G37*
G36*
X48331Y199115D02*
X46819D01*
X46383Y199057D01*
X43787D01*
Y197336D01*
X39064Y192612D01*
X39000Y192621D01*
X37608Y192438D01*
X36312Y191901D01*
X35198Y191046D01*
X34344Y189932D01*
X33806Y188636D01*
X33623Y187244D01*
X33806Y185853D01*
X34344Y184556D01*
X35198Y183442D01*
X36312Y182588D01*
X37608Y182051D01*
X39000Y181867D01*
X40392Y182051D01*
X41688Y182588D01*
X42802Y183442D01*
X43656Y184556D01*
X44194Y185853D01*
X44377Y187244D01*
X44194Y188636D01*
X44033Y189023D01*
X48072Y193063D01*
X48331D01*
X48767Y193120D01*
X52874D01*
Y199057D01*
X48767D01*
X48331Y199115D01*
D02*
G37*
G36*
X32449Y191500D02*
X30500D01*
Y189550D01*
X30975Y189645D01*
X31802Y190198D01*
X32355Y191024D01*
X32449Y191500D01*
D02*
G37*
G36*
X29500D02*
X27551D01*
X27645Y191024D01*
X28198Y190198D01*
X29024Y189645D01*
X29500Y189550D01*
Y191500D01*
D02*
G37*
G36*
X196500Y191069D02*
Y189119D01*
X198450D01*
X198355Y189595D01*
X197802Y190422D01*
X196976Y190974D01*
X196500Y191069D01*
D02*
G37*
G36*
X195500D02*
X195025Y190974D01*
X194198Y190422D01*
X193645Y189595D01*
X193551Y189119D01*
X195500D01*
Y191069D01*
D02*
G37*
G36*
X262000Y203169D02*
X261149Y202999D01*
X260427Y202517D01*
X259945Y201796D01*
X259776Y200945D01*
Y197598D01*
X259945Y196747D01*
X260051Y196590D01*
Y195386D01*
X259934Y195269D01*
X259152Y195166D01*
X258361Y194839D01*
X257682Y194318D01*
X257161Y193639D01*
X256834Y192848D01*
X256722Y192000D01*
X256834Y191152D01*
X257161Y190361D01*
X257682Y189682D01*
X258361Y189161D01*
X259152Y188834D01*
X260000Y188722D01*
X260848Y188834D01*
X261639Y189161D01*
X262318Y189682D01*
X262839Y190361D01*
X263166Y191152D01*
X263278Y192000D01*
X263166Y192848D01*
X262989Y193277D01*
X263097Y193385D01*
X263097Y193385D01*
X263484Y193964D01*
X263619Y194647D01*
Y196096D01*
X264055Y196747D01*
X264224Y197598D01*
Y200945D01*
X264055Y201796D01*
X263573Y202517D01*
X262851Y202999D01*
X262000Y203169D01*
D02*
G37*
G36*
X159112Y187908D02*
X158137Y187714D01*
X157310Y187162D01*
X157181Y186969D01*
X156832D01*
X156005Y187521D01*
X155530Y187616D01*
Y185167D01*
X155030D01*
Y184667D01*
X152580D01*
X152675Y184191D01*
X152770Y184048D01*
X152534Y183607D01*
X152160D01*
Y181139D01*
X154931D01*
Y180639D01*
X155431D01*
Y177670D01*
X163018D01*
Y183607D01*
X161479D01*
X161243Y184048D01*
X161467Y184384D01*
X161661Y185359D01*
X161467Y186335D01*
X160915Y187162D01*
X160088Y187714D01*
X159112Y187908D01*
D02*
G37*
G36*
X198450Y188119D02*
X196500D01*
Y186170D01*
X196976Y186264D01*
X197802Y186817D01*
X198355Y187644D01*
X198450Y188119D01*
D02*
G37*
G36*
X195500D02*
X193551D01*
X193645Y187644D01*
X194198Y186817D01*
X195025Y186264D01*
X195500Y186170D01*
Y188119D01*
D02*
G37*
G36*
X154530Y187616D02*
X154054Y187521D01*
X153227Y186969D01*
X152675Y186142D01*
X152580Y185667D01*
X154530D01*
Y187616D01*
D02*
G37*
G36*
X70496Y192621D02*
X69104Y192438D01*
X67808Y191901D01*
X66694Y191046D01*
X65840Y189932D01*
X65303Y188636D01*
X65119Y187244D01*
X65303Y185853D01*
X65840Y184556D01*
X66694Y183442D01*
X67808Y182588D01*
X69104Y182051D01*
X70496Y181867D01*
X71888Y182051D01*
X73184Y182588D01*
X74298Y183442D01*
X75152Y184556D01*
X75690Y185853D01*
X75873Y187244D01*
X75690Y188636D01*
X75152Y189932D01*
X74298Y191046D01*
X73184Y191901D01*
X71888Y192438D01*
X70496Y192621D01*
D02*
G37*
G36*
X131364Y182899D02*
Y180950D01*
X133313D01*
X133219Y181425D01*
X132666Y182252D01*
X131839Y182805D01*
X131364Y182899D01*
D02*
G37*
G36*
X130364D02*
X129888Y182805D01*
X129061Y182252D01*
X128509Y181425D01*
X128414Y180950D01*
X130364D01*
Y182899D01*
D02*
G37*
G36*
X133313Y179950D02*
X131364D01*
Y178000D01*
X131839Y178095D01*
X132666Y178648D01*
X133219Y179474D01*
X133313Y179950D01*
D02*
G37*
G36*
X130364D02*
X128414D01*
X128509Y179474D01*
X129061Y178648D01*
X129888Y178095D01*
X130364Y178000D01*
Y179950D01*
D02*
G37*
G36*
X154431Y180139D02*
X152160D01*
Y177670D01*
X154431D01*
Y180139D01*
D02*
G37*
G36*
X230000Y178446D02*
Y176497D01*
X231949D01*
X231855Y176972D01*
X231302Y177799D01*
X230475Y178352D01*
X230000Y178446D01*
D02*
G37*
G36*
X229000D02*
X228524Y178352D01*
X227698Y177799D01*
X227145Y176972D01*
X227050Y176497D01*
X229000D01*
Y178446D01*
D02*
G37*
G36*
X60654Y186715D02*
X59262Y186532D01*
X57965Y185995D01*
X56852Y185141D01*
X55997Y184027D01*
X55460Y182730D01*
X55277Y181339D01*
X55460Y179947D01*
X55997Y178650D01*
X56852Y177537D01*
X57965Y176682D01*
X59262Y176145D01*
X60654Y175962D01*
X62045Y176145D01*
X63342Y176682D01*
X64455Y177537D01*
X65310Y178650D01*
X65847Y179947D01*
X66030Y181339D01*
X65847Y182730D01*
X65310Y184027D01*
X64455Y185141D01*
X63342Y185995D01*
X62045Y186532D01*
X60654Y186715D01*
D02*
G37*
G36*
X48842D02*
X47451Y186532D01*
X46154Y185995D01*
X45041Y185141D01*
X44186Y184027D01*
X43649Y182730D01*
X43466Y181339D01*
X43649Y179947D01*
X44186Y178650D01*
X45041Y177537D01*
X46154Y176682D01*
X47451Y176145D01*
X48842Y175962D01*
X50234Y176145D01*
X51531Y176682D01*
X52644Y177537D01*
X53499Y178650D01*
X54036Y179947D01*
X54219Y181339D01*
X54036Y182730D01*
X53499Y184027D01*
X52644Y185141D01*
X51531Y185995D01*
X50234Y186532D01*
X48842Y186715D01*
D02*
G37*
G36*
X39500Y180744D02*
Y175933D01*
X44311D01*
X44194Y176825D01*
X43656Y178121D01*
X42802Y179235D01*
X41688Y180089D01*
X40392Y180627D01*
X39500Y180744D01*
D02*
G37*
G36*
X231949Y175497D02*
X230000D01*
Y173547D01*
X230475Y173642D01*
X231302Y174194D01*
X231855Y175021D01*
X231949Y175497D01*
D02*
G37*
G36*
X229000D02*
X227050D01*
X227145Y175021D01*
X227698Y174194D01*
X228524Y173642D01*
X229000Y173547D01*
Y175497D01*
D02*
G37*
G36*
X38500Y180744D02*
X37608Y180627D01*
X36312Y180089D01*
X35198Y179235D01*
X34397Y178191D01*
X18728D01*
X17945Y178088D01*
X17215Y177786D01*
X17115Y177709D01*
X13760D01*
Y175437D01*
X18500D01*
Y174437D01*
X13760D01*
Y172165D01*
X17352D01*
X17717Y172014D01*
X18500Y171911D01*
X19283Y172014D01*
X19586Y172140D01*
X34808D01*
X35198Y171631D01*
X36312Y170777D01*
X37608Y170240D01*
X38500Y170122D01*
Y175433D01*
Y180744D01*
D02*
G37*
G36*
X44311Y174933D02*
X39500D01*
Y170122D01*
X40392Y170240D01*
X41688Y170777D01*
X42802Y171631D01*
X43656Y172745D01*
X44194Y174041D01*
X44311Y174933D01*
D02*
G37*
G36*
X144500Y171386D02*
Y169436D01*
X146449D01*
X146355Y169912D01*
X145802Y170738D01*
X144975Y171291D01*
X144500Y171386D01*
D02*
G37*
G36*
X143500D02*
X143025Y171291D01*
X142198Y170738D01*
X141645Y169912D01*
X141550Y169436D01*
X143500D01*
Y171386D01*
D02*
G37*
G36*
X146449Y168436D02*
X144500D01*
Y166487D01*
X144975Y166581D01*
X145802Y167134D01*
X146355Y167961D01*
X146449Y168436D01*
D02*
G37*
G36*
X143500D02*
X141550D01*
X141645Y167961D01*
X142198Y167134D01*
X143025Y166581D01*
X143500Y166487D01*
Y168436D01*
D02*
G37*
G36*
X48842Y174904D02*
X47451Y174721D01*
X46154Y174184D01*
X45041Y173329D01*
X44186Y172216D01*
X43649Y170919D01*
X43466Y169528D01*
X43649Y168136D01*
X44186Y166839D01*
X45041Y165726D01*
X46154Y164871D01*
X47451Y164334D01*
X48842Y164151D01*
X50234Y164334D01*
X51531Y164871D01*
X52644Y165726D01*
X53499Y166839D01*
X54036Y168136D01*
X54219Y169528D01*
X54036Y170919D01*
X53499Y172216D01*
X52644Y173329D01*
X51531Y174184D01*
X50234Y174721D01*
X48842Y174904D01*
D02*
G37*
G36*
X39500Y168933D02*
Y164122D01*
X44311D01*
X44194Y165014D01*
X43656Y166310D01*
X42802Y167424D01*
X41688Y168278D01*
X40392Y168816D01*
X39500Y168933D01*
D02*
G37*
G36*
X38500D02*
X37608Y168816D01*
X36312Y168278D01*
X35198Y167424D01*
X34344Y166310D01*
X33806Y165014D01*
X33689Y164122D01*
X38500D01*
Y168933D01*
D02*
G37*
G36*
X44311Y163122D02*
X39500D01*
Y158311D01*
X40392Y158429D01*
X41688Y158966D01*
X42802Y159820D01*
X43656Y160934D01*
X44194Y162231D01*
X44311Y163122D01*
D02*
G37*
G36*
X38500D02*
X33689D01*
X33806Y162231D01*
X34344Y160934D01*
X35198Y159820D01*
X36312Y158966D01*
X37608Y158429D01*
X38500Y158311D01*
Y163122D01*
D02*
G37*
G36*
X145500Y159209D02*
Y157259D01*
X147450D01*
X147355Y157735D01*
X146802Y158562D01*
X145975Y159114D01*
X145500Y159209D01*
D02*
G37*
G36*
X144500D02*
X144025Y159114D01*
X143198Y158562D01*
X142645Y157735D01*
X142550Y157259D01*
X144500D01*
Y159209D01*
D02*
G37*
G36*
X147450Y156259D02*
X145500D01*
Y154310D01*
X145975Y154404D01*
X146802Y154957D01*
X147355Y155784D01*
X147450Y156259D01*
D02*
G37*
G36*
X144500D02*
X142550D01*
X142645Y155784D01*
X143198Y154957D01*
X144025Y154404D01*
X144500Y154310D01*
Y156259D01*
D02*
G37*
G36*
X39500Y157122D02*
Y152311D01*
X44311D01*
X44194Y153203D01*
X43656Y154499D01*
X42802Y155613D01*
X41688Y156467D01*
X40392Y157004D01*
X39500Y157122D01*
D02*
G37*
G36*
X20500Y151192D02*
X17539D01*
Y148822D01*
X20500D01*
Y151192D01*
D02*
G37*
G36*
X145000Y149886D02*
Y147936D01*
X146950D01*
X146855Y148412D01*
X146302Y149239D01*
X145475Y149791D01*
X145000Y149886D01*
D02*
G37*
G36*
X144000D02*
X143525Y149791D01*
X142698Y149239D01*
X142145Y148412D01*
X142050Y147936D01*
X144000D01*
Y149886D01*
D02*
G37*
G36*
X317323Y153494D02*
X316548Y153392D01*
X315826Y153093D01*
X315206Y152617D01*
X314730Y151997D01*
X314431Y151275D01*
X314329Y150500D01*
X314431Y149725D01*
X314730Y149003D01*
X315206Y148383D01*
X315826Y147907D01*
X316548Y147608D01*
X317323Y147506D01*
X318098Y147608D01*
X318820Y147907D01*
X319440Y148383D01*
X319916Y149003D01*
X320215Y149725D01*
X320317Y150500D01*
X320215Y151275D01*
X319916Y151997D01*
X319440Y152617D01*
X318820Y153093D01*
X318098Y153392D01*
X317323Y153494D01*
D02*
G37*
G36*
X38500Y157122D02*
X37608Y157004D01*
X36312Y156467D01*
X35198Y155613D01*
X34344Y154499D01*
X33864Y153340D01*
X24489D01*
X23903Y153224D01*
X23407Y152892D01*
X21879Y151364D01*
X21764Y151192D01*
X21500D01*
Y148822D01*
X24461D01*
Y149545D01*
X24479Y149639D01*
X25122Y150282D01*
X33864D01*
X34344Y149123D01*
X35198Y148009D01*
X36312Y147155D01*
X37608Y146617D01*
X38500Y146500D01*
Y151811D01*
X39000D01*
D01*
X38500D01*
Y157122D01*
D02*
G37*
G36*
X44311Y151311D02*
X39500D01*
Y146500D01*
X40392Y146617D01*
X41688Y147155D01*
X42802Y148009D01*
X43656Y149123D01*
X44194Y150419D01*
X44311Y151311D01*
D02*
G37*
G36*
X260249Y147985D02*
X259773Y147890D01*
X258946Y147337D01*
X258394Y146511D01*
X258299Y146035D01*
X260249D01*
Y147985D01*
D02*
G37*
G36*
X146950Y146936D02*
X145000D01*
Y144987D01*
X145475Y145081D01*
X146302Y145634D01*
X146855Y146461D01*
X146950Y146936D01*
D02*
G37*
G36*
X144000D02*
X142050D01*
X142145Y146461D01*
X142698Y145634D01*
X143525Y145081D01*
X144000Y144987D01*
Y146936D01*
D02*
G37*
G36*
X260249Y145035D02*
X258299D01*
X258394Y144560D01*
X258946Y143733D01*
X259773Y143180D01*
X260249Y143086D01*
Y145035D01*
D02*
G37*
G36*
X269623Y144843D02*
X267154D01*
Y142571D01*
X269623D01*
Y144843D01*
D02*
G37*
G36*
X39500Y145311D02*
Y140500D01*
X44311D01*
X44194Y141392D01*
X43656Y142688D01*
X42802Y143802D01*
X41688Y144656D01*
X40392Y145194D01*
X39500Y145311D01*
D02*
G37*
G36*
X20500Y141720D02*
X17539D01*
Y139350D01*
X20500D01*
Y141720D01*
D02*
G37*
G36*
X146000Y137709D02*
Y135759D01*
X147950D01*
X147855Y136235D01*
X147302Y137062D01*
X146475Y137614D01*
X146000Y137709D01*
D02*
G37*
G36*
X145000D02*
X144525Y137614D01*
X143698Y137062D01*
X143145Y136235D01*
X143050Y135759D01*
X145000D01*
Y137709D01*
D02*
G37*
G36*
X44311Y139500D02*
X39500D01*
Y134689D01*
X40392Y134807D01*
X41688Y135344D01*
X42802Y136198D01*
X43656Y137312D01*
X44194Y138608D01*
X44311Y139500D01*
D02*
G37*
G36*
X24461Y147822D02*
X17539D01*
Y145452D01*
X17539D01*
Y145090D01*
X17539D01*
Y142720D01*
X21000D01*
Y142220D01*
X21500D01*
Y139350D01*
X21989D01*
X22110Y139326D01*
X22110Y139326D01*
X33712D01*
X33806Y138608D01*
X34344Y137312D01*
X35198Y136198D01*
X36312Y135344D01*
X37608Y134807D01*
X38500Y134689D01*
Y140000D01*
Y145311D01*
X37608Y145194D01*
X36312Y144656D01*
X35198Y143802D01*
X34502Y142894D01*
X24461D01*
Y145090D01*
X24461D01*
Y145452D01*
X24461D01*
Y147822D01*
D02*
G37*
G36*
X266654Y159426D02*
X265679Y159232D01*
X264852Y158680D01*
X264299Y157853D01*
X264105Y156878D01*
X264299Y155902D01*
X264852Y155075D01*
X265125Y154893D01*
Y153429D01*
X263686D01*
Y146872D01*
X262862D01*
X262551Y147337D01*
X261724Y147890D01*
X261249Y147985D01*
Y145535D01*
Y143086D01*
X261724Y143180D01*
X262551Y143733D01*
X262605Y143813D01*
X263686D01*
Y142571D01*
X266154D01*
Y145343D01*
X266654D01*
Y145843D01*
X269623D01*
Y148341D01*
X270085Y148533D01*
X272525Y146092D01*
Y137530D01*
X269592Y134597D01*
X269130Y134789D01*
Y134827D01*
X261544D01*
Y131858D01*
X261044D01*
Y131358D01*
X258272D01*
Y128890D01*
X259981D01*
Y127178D01*
X259707Y126995D01*
X259155Y126168D01*
X259060Y125693D01*
X263959D01*
X263865Y126168D01*
X263312Y126995D01*
X263039Y127178D01*
Y128890D01*
X264829D01*
Y126425D01*
X264946Y125839D01*
X265035Y125706D01*
X264951Y125284D01*
X265145Y124308D01*
X265698Y123481D01*
X266525Y122929D01*
X267500Y122734D01*
X268476Y122929D01*
X269302Y123481D01*
X269855Y124308D01*
X270049Y125284D01*
X269855Y126259D01*
X269302Y127086D01*
X268476Y127638D01*
X267888Y127755D01*
Y128890D01*
X269130D01*
Y130352D01*
X269602Y130445D01*
X270098Y130777D01*
X275136Y135815D01*
X275467Y136311D01*
X275584Y136897D01*
Y146726D01*
X275467Y147311D01*
X275136Y147807D01*
X271204Y151739D01*
X270708Y152070D01*
X270123Y152187D01*
X269623D01*
Y153429D01*
X268184D01*
Y154893D01*
X268457Y155075D01*
X269009Y155902D01*
X269203Y156878D01*
X269009Y157853D01*
X268457Y158680D01*
X267630Y159232D01*
X266654Y159426D01*
D02*
G37*
G36*
X147950Y134759D02*
X146000D01*
Y132810D01*
X146475Y132904D01*
X147302Y133457D01*
X147855Y134284D01*
X147950Y134759D01*
D02*
G37*
G36*
X145000D02*
X143050D01*
X143145Y134284D01*
X143698Y133457D01*
X144525Y132904D01*
X145000Y132810D01*
Y134759D01*
D02*
G37*
G36*
X317323Y138494D02*
X316548Y138392D01*
X315826Y138093D01*
X315206Y137617D01*
X314730Y136997D01*
X314431Y136275D01*
X314329Y135500D01*
X314431Y134725D01*
X314730Y134003D01*
X315206Y133383D01*
X315826Y132907D01*
X316548Y132608D01*
X317323Y132506D01*
X318098Y132608D01*
X318820Y132907D01*
X319440Y133383D01*
X319916Y134003D01*
X320215Y134725D01*
X320317Y135500D01*
X320215Y136275D01*
X319916Y136997D01*
X319440Y137617D01*
X318820Y138093D01*
X318098Y138392D01*
X317323Y138494D01*
D02*
G37*
G36*
X295323Y159596D02*
X294347Y159402D01*
X293520Y158850D01*
X292968Y158023D01*
X292774Y157047D01*
X292968Y156072D01*
X293520Y155245D01*
X293793Y155062D01*
Y139047D01*
X293910Y138462D01*
X294241Y137966D01*
X296838Y135369D01*
X296774Y135047D01*
X296968Y134072D01*
X297520Y133245D01*
X298347Y132692D01*
X299323Y132498D01*
X300298Y132692D01*
X301125Y133245D01*
X301678Y134072D01*
X301872Y135047D01*
X301678Y136023D01*
X301662Y136047D01*
X301892Y136602D01*
X302345Y136692D01*
X303172Y137245D01*
X303725Y138072D01*
X303919Y139047D01*
X303725Y140023D01*
X303172Y140850D01*
X302900Y141032D01*
Y150178D01*
X302999Y150245D01*
X303552Y151072D01*
X303746Y152047D01*
X303552Y153023D01*
X302999Y153850D01*
X302172Y154402D01*
X301197Y154596D01*
X300221Y154402D01*
X299394Y153850D01*
X298842Y153023D01*
X298648Y152047D01*
X298842Y151072D01*
X299394Y150245D01*
X299841Y149947D01*
Y141032D01*
X299568Y140850D01*
X299015Y140023D01*
X298821Y139047D01*
X298977Y138263D01*
X298516Y138017D01*
X296852Y139681D01*
Y155062D01*
X297125Y155245D01*
X297678Y156072D01*
X297872Y157047D01*
X297678Y158023D01*
X297125Y158850D01*
X296298Y159402D01*
X295323Y159596D01*
D02*
G37*
G36*
X260544Y134827D02*
X258272D01*
Y132358D01*
X260544D01*
Y134827D01*
D02*
G37*
G36*
X39500Y133500D02*
Y128689D01*
X44311D01*
X44194Y129581D01*
X43656Y130877D01*
X42802Y131991D01*
X41688Y132845D01*
X40392Y133382D01*
X39500Y133500D01*
D02*
G37*
G36*
X38500D02*
X37608Y133382D01*
X36312Y132845D01*
X35198Y131991D01*
X34344Y130877D01*
X33806Y129581D01*
X33689Y128689D01*
X38500D01*
Y133500D01*
D02*
G37*
G36*
X144500Y128886D02*
Y126936D01*
X146449D01*
X146355Y127411D01*
X145802Y128238D01*
X144975Y128791D01*
X144500Y128886D01*
D02*
G37*
G36*
X143500D02*
X143025Y128791D01*
X142198Y128238D01*
X141645Y127411D01*
X141550Y126936D01*
X143500D01*
Y128886D01*
D02*
G37*
G36*
X146449Y125936D02*
X144500D01*
Y123987D01*
X144975Y124081D01*
X145802Y124634D01*
X146355Y125461D01*
X146449Y125936D01*
D02*
G37*
G36*
X143500D02*
X141550D01*
X141645Y125461D01*
X142198Y124634D01*
X143025Y124081D01*
X143500Y123987D01*
Y125936D01*
D02*
G37*
G36*
X44311Y127689D02*
X39500D01*
Y122878D01*
X40392Y122995D01*
X41688Y123533D01*
X42802Y124387D01*
X43656Y125501D01*
X44194Y126797D01*
X44311Y127689D01*
D02*
G37*
G36*
X38500D02*
X33689D01*
X33806Y126797D01*
X34344Y125501D01*
X35198Y124387D01*
X36312Y123533D01*
X37608Y122995D01*
X38500Y122878D01*
Y127689D01*
D02*
G37*
G36*
X263959Y124693D02*
X262010D01*
Y122743D01*
X262485Y122838D01*
X263312Y123390D01*
X263865Y124217D01*
X263959Y124693D01*
D02*
G37*
G36*
X261010D02*
X259060D01*
X259155Y124217D01*
X259707Y123390D01*
X260534Y122838D01*
X261010Y122743D01*
Y124693D01*
D02*
G37*
G36*
X145500Y116709D02*
Y114759D01*
X147450D01*
X147355Y115235D01*
X146802Y116062D01*
X145975Y116614D01*
X145500Y116709D01*
D02*
G37*
G36*
X144500D02*
X144025Y116614D01*
X143198Y116062D01*
X142645Y115235D01*
X142550Y114759D01*
X144500D01*
Y116709D01*
D02*
G37*
G36*
X147450Y113759D02*
X145500D01*
Y111810D01*
X145975Y111904D01*
X146802Y112457D01*
X147355Y113284D01*
X147450Y113759D01*
D02*
G37*
G36*
X144500D02*
X142550D01*
X142645Y113284D01*
X143198Y112457D01*
X144025Y111904D01*
X144500Y111810D01*
Y113759D01*
D02*
G37*
G36*
X70496Y121755D02*
X69104Y121572D01*
X67808Y121034D01*
X66694Y120180D01*
X65840Y119066D01*
X65303Y117770D01*
X65119Y116378D01*
X65303Y114986D01*
X65840Y113690D01*
X66694Y112576D01*
X67808Y111722D01*
X69104Y111184D01*
X70496Y111001D01*
X71888Y111184D01*
X73184Y111722D01*
X74298Y112576D01*
X75152Y113690D01*
X75690Y114986D01*
X75873Y116378D01*
X75690Y117770D01*
X75152Y119066D01*
X74298Y120180D01*
X73184Y121034D01*
X71888Y121572D01*
X70496Y121755D01*
D02*
G37*
G36*
X144500Y107386D02*
Y105436D01*
X146449D01*
X146355Y105912D01*
X145802Y106738D01*
X144975Y107291D01*
X144500Y107386D01*
D02*
G37*
G36*
X143500D02*
X143025Y107291D01*
X142198Y106738D01*
X141645Y105912D01*
X141550Y105436D01*
X143500D01*
Y107386D01*
D02*
G37*
G36*
X60654Y115849D02*
X59262Y115666D01*
X57965Y115129D01*
X56852Y114274D01*
X55997Y113161D01*
X55460Y111864D01*
X55277Y110472D01*
X55460Y109081D01*
X55997Y107784D01*
X56852Y106670D01*
X57965Y105816D01*
X59262Y105279D01*
X60654Y105096D01*
X62045Y105279D01*
X63342Y105816D01*
X64455Y106670D01*
X65310Y107784D01*
X65847Y109081D01*
X66030Y110472D01*
X65847Y111864D01*
X65310Y113161D01*
X64455Y114274D01*
X63342Y115129D01*
X62045Y115666D01*
X60654Y115849D01*
D02*
G37*
G36*
X39000Y121755D02*
X37608Y121572D01*
X36312Y121034D01*
X35198Y120180D01*
X34344Y119066D01*
X33806Y117770D01*
X33623Y116378D01*
X33806Y114986D01*
X34344Y113690D01*
X35198Y112576D01*
X36312Y111722D01*
X37608Y111184D01*
X39000Y111001D01*
X40392Y111184D01*
X41688Y111722D01*
X42123Y112055D01*
X43494Y110685D01*
X43466Y110472D01*
X43649Y109081D01*
X44186Y107784D01*
X45041Y106670D01*
X46154Y105816D01*
X47451Y105279D01*
X48842Y105096D01*
X50234Y105279D01*
X51531Y105816D01*
X52644Y106670D01*
X53499Y107784D01*
X54036Y109081D01*
X54219Y110472D01*
X54036Y111864D01*
X53499Y113161D01*
X52644Y114274D01*
X51531Y115129D01*
X50234Y115666D01*
X48842Y115849D01*
X47451Y115666D01*
X46228Y115159D01*
X44291Y117097D01*
X44281Y117103D01*
X44194Y117770D01*
X43656Y119066D01*
X42802Y120180D01*
X41688Y121034D01*
X40392Y121572D01*
X39000Y121755D01*
D02*
G37*
G36*
X146449Y104436D02*
X144500D01*
Y102487D01*
X144975Y102581D01*
X145802Y103134D01*
X146355Y103961D01*
X146449Y104436D01*
D02*
G37*
G36*
X143500D02*
X141550D01*
X141645Y103961D01*
X142198Y103134D01*
X143025Y102581D01*
X143500Y102487D01*
Y104436D01*
D02*
G37*
G36*
X70496Y109944D02*
X69104Y109760D01*
X67808Y109223D01*
X66694Y108369D01*
X65840Y107255D01*
X65303Y105958D01*
X65119Y104567D01*
X65303Y103175D01*
X65840Y101879D01*
X66694Y100765D01*
X67808Y99911D01*
X69104Y99373D01*
X70496Y99190D01*
X71888Y99373D01*
X73184Y99911D01*
X74298Y100765D01*
X75152Y101879D01*
X75690Y103175D01*
X75873Y104567D01*
X75690Y105958D01*
X75152Y107255D01*
X74298Y108369D01*
X73184Y109223D01*
X71888Y109760D01*
X70496Y109944D01*
D02*
G37*
G36*
X39000D02*
X37608Y109760D01*
X36312Y109223D01*
X35198Y108369D01*
X34344Y107255D01*
X33806Y105958D01*
X33623Y104567D01*
X33806Y103175D01*
X34344Y101879D01*
X35198Y100765D01*
X36312Y99911D01*
X37608Y99373D01*
X39000Y99190D01*
X40392Y99373D01*
X40531Y99431D01*
X42682Y97280D01*
X42352Y96903D01*
X41688Y97412D01*
X40392Y97949D01*
X39000Y98133D01*
X37608Y97949D01*
X36312Y97412D01*
X35198Y96558D01*
X34344Y95444D01*
X33806Y94147D01*
X33623Y92756D01*
X33806Y91364D01*
X34344Y90067D01*
X35198Y88954D01*
X36312Y88099D01*
X37024Y87805D01*
Y64075D01*
X36634D01*
Y58531D01*
Y56488D01*
X42571D01*
Y58754D01*
X46746D01*
X58789Y46712D01*
Y39496D01*
X57385D01*
Y29622D01*
X58789D01*
Y14693D01*
X52858D01*
Y4819D01*
X69818D01*
Y14693D01*
X63887D01*
Y29622D01*
X65291D01*
Y39496D01*
X63887D01*
Y47767D01*
X63693Y48743D01*
X63140Y49570D01*
X49605Y63106D01*
X48778Y63658D01*
X47802Y63852D01*
X42571D01*
Y64075D01*
X42122D01*
Y88432D01*
X42802Y88954D01*
X43656Y90067D01*
X44194Y91364D01*
X44209Y91480D01*
X44230Y91484D01*
X45057Y92037D01*
X46770Y93750D01*
X47451Y93468D01*
X48842Y93285D01*
X50234Y93468D01*
X51531Y94005D01*
X52644Y94859D01*
X53499Y95973D01*
X53557Y96112D01*
X55939D01*
X55997Y95973D01*
X56852Y94859D01*
X57965Y94005D01*
X59262Y93468D01*
X60654Y93285D01*
X62045Y93468D01*
X63342Y94005D01*
X64455Y94859D01*
X65310Y95973D01*
X65847Y97270D01*
X66030Y98661D01*
X65847Y100053D01*
X65310Y101350D01*
X64455Y102463D01*
X63342Y103318D01*
X62045Y103855D01*
X60654Y104038D01*
X59262Y103855D01*
X57965Y103318D01*
X56852Y102463D01*
X55997Y101350D01*
X55939Y101210D01*
X53557D01*
X53499Y101350D01*
X52644Y102463D01*
X51531Y103318D01*
X50234Y103855D01*
X48842Y104038D01*
X47451Y103855D01*
X46154Y103318D01*
X45041Y102463D01*
X44729Y102443D01*
X44136Y103036D01*
X44194Y103175D01*
X44377Y104567D01*
X44194Y105958D01*
X43656Y107255D01*
X42802Y108369D01*
X41688Y109223D01*
X40392Y109760D01*
X39000Y109944D01*
D02*
G37*
G36*
X145500Y95209D02*
Y93259D01*
X147450D01*
X147355Y93735D01*
X146802Y94562D01*
X145975Y95114D01*
X145500Y95209D01*
D02*
G37*
G36*
X144500D02*
X144025Y95114D01*
X143198Y94562D01*
X142645Y93735D01*
X142550Y93259D01*
X144500D01*
Y95209D01*
D02*
G37*
G36*
X147450Y92259D02*
X145500D01*
Y90310D01*
X145975Y90404D01*
X146802Y90957D01*
X147355Y91784D01*
X147450Y92259D01*
D02*
G37*
G36*
X144500D02*
X142550D01*
X142645Y91784D01*
X143198Y90957D01*
X144025Y90404D01*
X144500Y90310D01*
Y92259D01*
D02*
G37*
G36*
X70496Y98133D02*
X69104Y97949D01*
X67808Y97412D01*
X66694Y96558D01*
X65840Y95444D01*
X65303Y94147D01*
X65119Y92756D01*
X65303Y91364D01*
X65840Y90067D01*
X66694Y88954D01*
X67808Y88099D01*
X69104Y87562D01*
X70496Y87379D01*
X71888Y87562D01*
X73184Y88099D01*
X74298Y88954D01*
X75152Y90067D01*
X75690Y91364D01*
X75873Y92756D01*
X75690Y94147D01*
X75152Y95444D01*
X74298Y96558D01*
X73184Y97412D01*
X71888Y97949D01*
X70496Y98133D01*
D02*
G37*
G36*
X144500Y86886D02*
Y84936D01*
X146449D01*
X146355Y85412D01*
X145802Y86238D01*
X144975Y86791D01*
X144500Y86886D01*
D02*
G37*
G36*
X143500D02*
X143025Y86791D01*
X142198Y86238D01*
X141645Y85412D01*
X141550Y84936D01*
X143500D01*
Y86886D01*
D02*
G37*
G36*
X146449Y83936D02*
X144500D01*
Y81987D01*
X144975Y82081D01*
X145802Y82634D01*
X146355Y83461D01*
X146449Y83936D01*
D02*
G37*
G36*
X143500D02*
X141550D01*
X141645Y83461D01*
X142198Y82634D01*
X143025Y82081D01*
X143500Y81987D01*
Y83936D01*
D02*
G37*
G36*
X145500Y74709D02*
Y72759D01*
X147450D01*
X147355Y73235D01*
X146802Y74062D01*
X145975Y74614D01*
X145500Y74709D01*
D02*
G37*
G36*
X144500D02*
X144025Y74614D01*
X143198Y74062D01*
X142645Y73235D01*
X142550Y72759D01*
X144500D01*
Y74709D01*
D02*
G37*
G36*
X147450Y71759D02*
X145500D01*
Y69810D01*
X145975Y69904D01*
X146802Y70457D01*
X147355Y71284D01*
X147450Y71759D01*
D02*
G37*
G36*
X144500D02*
X142550D01*
X142645Y71284D01*
X143198Y70457D01*
X144025Y69904D01*
X144500Y69810D01*
Y71759D01*
D02*
G37*
G36*
Y66386D02*
Y64436D01*
X146449D01*
X146355Y64912D01*
X145802Y65738D01*
X144975Y66291D01*
X144500Y66386D01*
D02*
G37*
G36*
X143500D02*
X143025Y66291D01*
X142198Y65738D01*
X141645Y64912D01*
X141550Y64436D01*
X143500D01*
Y66386D01*
D02*
G37*
G36*
X146449Y63436D02*
X144500D01*
Y61487D01*
X144975Y61581D01*
X145802Y62134D01*
X146355Y62961D01*
X146449Y63436D01*
D02*
G37*
G36*
X143500D02*
X141550D01*
X141645Y62961D01*
X142198Y62134D01*
X143025Y61581D01*
X143500Y61487D01*
Y63436D01*
D02*
G37*
G36*
X13409Y71745D02*
X11940Y71600D01*
X10527Y71172D01*
X9225Y70476D01*
X8083Y69539D01*
X7147Y68397D01*
X6451Y67095D01*
X6022Y65682D01*
X5877Y64213D01*
X6022Y62743D01*
X6451Y61330D01*
X7147Y60028D01*
X8083Y58886D01*
X9225Y57950D01*
X10527Y57254D01*
X11940Y56825D01*
X13409Y56680D01*
X14879Y56825D01*
X16292Y57254D01*
X17594Y57950D01*
X18736Y58886D01*
X19672Y60028D01*
X20368Y61330D01*
X20797Y62743D01*
X20942Y64213D01*
X20797Y65682D01*
X20368Y67095D01*
X19672Y68397D01*
X18736Y69539D01*
X17594Y70476D01*
X16292Y71172D01*
X14879Y71600D01*
X13409Y71745D01*
D02*
G37*
G36*
X84664Y58335D02*
X82196D01*
Y56063D01*
X84664D01*
Y58335D01*
D02*
G37*
G36*
X81196D02*
X78727D01*
Y56063D01*
X81196D01*
Y58335D01*
D02*
G37*
G36*
X42571Y55488D02*
X40103D01*
Y53216D01*
X42571D01*
Y55488D01*
D02*
G37*
G36*
X39103D02*
X36634D01*
Y53216D01*
X39103D01*
Y55488D01*
D02*
G37*
G36*
X145500Y54209D02*
Y52259D01*
X147450D01*
X147355Y52735D01*
X146802Y53562D01*
X145975Y54114D01*
X145500Y54209D01*
D02*
G37*
G36*
X144500D02*
X144025Y54114D01*
X143198Y53562D01*
X142645Y52735D01*
X142550Y52259D01*
X144500D01*
Y54209D01*
D02*
G37*
G36*
X147450Y51259D02*
X145500D01*
Y49310D01*
X145975Y49404D01*
X146802Y49957D01*
X147355Y50784D01*
X147450Y51259D01*
D02*
G37*
G36*
X144500D02*
X142550D01*
X142645Y50784D01*
X143198Y49957D01*
X144025Y49404D01*
X144500Y49310D01*
Y51259D01*
D02*
G37*
G36*
Y45886D02*
Y43936D01*
X146449D01*
X146355Y44412D01*
X145802Y45239D01*
X144975Y45791D01*
X144500Y45886D01*
D02*
G37*
G36*
X143500D02*
X143025Y45791D01*
X142198Y45239D01*
X141645Y44412D01*
X141550Y43936D01*
X143500D01*
Y45886D01*
D02*
G37*
G36*
X146449Y42936D02*
X144500D01*
Y40987D01*
X144975Y41081D01*
X145802Y41634D01*
X146355Y42461D01*
X146449Y42936D01*
D02*
G37*
G36*
X143500D02*
X141550D01*
X141645Y42461D01*
X142198Y41634D01*
X143025Y41081D01*
X143500Y40987D01*
Y42936D01*
D02*
G37*
G36*
X56236Y39496D02*
X52783D01*
Y35059D01*
X56236D01*
Y39496D01*
D02*
G37*
G36*
X51783D02*
X48330D01*
Y35059D01*
X51783D01*
Y39496D01*
D02*
G37*
G36*
X220081Y36267D02*
X217809D01*
Y33799D01*
X220081D01*
Y36267D01*
D02*
G37*
G36*
X145500Y33709D02*
Y31759D01*
X147450D01*
X147355Y32235D01*
X146802Y33062D01*
X145975Y33614D01*
X145500Y33709D01*
D02*
G37*
G36*
X144500D02*
X144025Y33614D01*
X143198Y33062D01*
X142645Y32235D01*
X142550Y31759D01*
X144500D01*
Y33709D01*
D02*
G37*
G36*
X220081Y32799D02*
X217809D01*
Y30330D01*
X220081D01*
Y32799D01*
D02*
G37*
G36*
X56236Y34059D02*
X52783D01*
Y29622D01*
X56236D01*
Y34059D01*
D02*
G37*
G36*
X51783D02*
X48330D01*
Y29622D01*
X51783D01*
Y34059D01*
D02*
G37*
G36*
X147450Y30759D02*
X145500D01*
Y28810D01*
X145975Y28904D01*
X146802Y29457D01*
X147355Y30284D01*
X147450Y30759D01*
D02*
G37*
G36*
X144500D02*
X142550D01*
X142645Y30284D01*
X143198Y29457D01*
X144025Y28904D01*
X144500Y28810D01*
Y30759D01*
D02*
G37*
G36*
X249604Y26728D02*
X247136D01*
Y24456D01*
X249604D01*
Y26728D01*
D02*
G37*
G36*
X246136D02*
X243667D01*
Y24456D01*
X246136D01*
Y26728D01*
D02*
G37*
G36*
X214183Y25865D02*
X213010D01*
Y24141D01*
X216307D01*
X216238Y24492D01*
X215756Y25214D01*
X215034Y25696D01*
X214183Y25865D01*
D02*
G37*
G36*
X212010D02*
X210837D01*
X209986Y25696D01*
X209264Y25214D01*
X208782Y24492D01*
X208712Y24141D01*
X212010D01*
Y25865D01*
D02*
G37*
G36*
X144500Y24886D02*
Y22936D01*
X146449D01*
X146355Y23412D01*
X145802Y24238D01*
X144975Y24791D01*
X144500Y24886D01*
D02*
G37*
G36*
X143500D02*
X143025Y24791D01*
X142198Y24238D01*
X141645Y23412D01*
X141550Y22936D01*
X143500D01*
Y24886D01*
D02*
G37*
G36*
X228667Y36267D02*
X221081D01*
Y33299D01*
Y30330D01*
X226504D01*
X230912Y25922D01*
X230860Y25307D01*
X230721Y25214D01*
X230239Y24492D01*
X230069Y23641D01*
X230239Y22790D01*
X230721Y22069D01*
X231442Y21587D01*
X232293Y21417D01*
X235640D01*
X236491Y21587D01*
X237212Y22069D01*
X237694Y22790D01*
X237864Y23641D01*
X237694Y24492D01*
X237212Y25214D01*
X236491Y25696D01*
X235640Y25865D01*
X234205D01*
Y26322D01*
X234088Y26908D01*
X233757Y27404D01*
X228667Y32493D01*
Y36267D01*
D02*
G37*
G36*
X216307Y23141D02*
X213010D01*
Y21417D01*
X214183D01*
X215034Y21587D01*
X215756Y22069D01*
X216238Y22790D01*
X216307Y23141D01*
D02*
G37*
G36*
X212010D02*
X208712D01*
X208782Y22790D01*
X209264Y22069D01*
X209986Y21587D01*
X210837Y21417D01*
X212010D01*
Y23141D01*
D02*
G37*
G36*
X205968Y22373D02*
X203500D01*
Y20101D01*
X205968D01*
Y22373D01*
D02*
G37*
G36*
X202500D02*
X200031D01*
Y20101D01*
X202500D01*
Y22373D01*
D02*
G37*
G36*
X146449Y21936D02*
X144500D01*
Y19987D01*
X144975Y20081D01*
X145802Y20634D01*
X146355Y21461D01*
X146449Y21936D01*
D02*
G37*
G36*
X143500D02*
X141550D01*
X141645Y21461D01*
X142198Y20634D01*
X143025Y20081D01*
X143500Y19987D01*
Y21936D01*
D02*
G37*
G36*
X320000Y40876D02*
X318299Y40742D01*
X316639Y40344D01*
X315062Y39691D01*
X313607Y38799D01*
X312310Y37690D01*
X311201Y36393D01*
X310309Y34938D01*
X309656Y33361D01*
X309258Y31701D01*
X309124Y30000D01*
X309258Y28299D01*
X309656Y26639D01*
X310309Y25062D01*
X311201Y23607D01*
X312310Y22309D01*
X313607Y21201D01*
X315062Y20309D01*
X316639Y19656D01*
X318299Y19258D01*
X320000Y19124D01*
X321701Y19258D01*
X323361Y19656D01*
X324938Y20309D01*
X326393Y21201D01*
X327691Y22309D01*
X328799Y23607D01*
X329691Y25062D01*
X330344Y26639D01*
X330742Y28299D01*
X330876Y30000D01*
X330742Y31701D01*
X330344Y33361D01*
X329691Y34938D01*
X328799Y36393D01*
X327691Y37690D01*
X326393Y38799D01*
X324938Y39691D01*
X323361Y40344D01*
X321701Y40742D01*
X320000Y40876D01*
D02*
G37*
G36*
X30000D02*
X28299Y40742D01*
X26639Y40344D01*
X25062Y39691D01*
X23607Y38799D01*
X22309Y37690D01*
X21201Y36393D01*
X20309Y34938D01*
X19656Y33361D01*
X19258Y31701D01*
X19124Y30000D01*
X19258Y28299D01*
X19656Y26639D01*
X20309Y25062D01*
X21201Y23607D01*
X22309Y22309D01*
X23607Y21201D01*
X25062Y20309D01*
X26639Y19656D01*
X28299Y19258D01*
X30000Y19124D01*
X31701Y19258D01*
X33361Y19656D01*
X34938Y20309D01*
X36393Y21201D01*
X37690Y22309D01*
X38799Y23607D01*
X39691Y25062D01*
X40344Y26639D01*
X40742Y28299D01*
X40876Y30000D01*
X40742Y31701D01*
X40344Y33361D01*
X39691Y34938D01*
X38799Y36393D01*
X37690Y37690D01*
X36393Y38799D01*
X34938Y39691D01*
X33361Y40344D01*
X31701Y40742D01*
X30000Y40876D01*
D02*
G37*
G36*
X214183Y20865D02*
X210837D01*
X209986Y20696D01*
X209264Y20214D01*
X208782Y19492D01*
X208613Y18641D01*
X208782Y17790D01*
X209264Y17069D01*
X209986Y16587D01*
X210837Y16417D01*
X214183D01*
X215034Y16587D01*
X215756Y17069D01*
X216238Y17790D01*
X216407Y18641D01*
X216238Y19492D01*
X215756Y20214D01*
X215034Y20696D01*
X214183Y20865D01*
D02*
G37*
G36*
X145500Y12709D02*
Y10759D01*
X147450D01*
X147355Y11235D01*
X146802Y12062D01*
X145975Y12614D01*
X145500Y12709D01*
D02*
G37*
G36*
X144500D02*
X144025Y12614D01*
X143198Y12062D01*
X142645Y11235D01*
X142550Y10759D01*
X144500D01*
Y12709D01*
D02*
G37*
G36*
X147450Y9759D02*
X145500D01*
Y7810D01*
X145975Y7904D01*
X146802Y8457D01*
X147355Y9284D01*
X147450Y9759D01*
D02*
G37*
G36*
X144500D02*
X142550D01*
X142645Y9284D01*
X143198Y8457D01*
X144025Y7904D01*
X144500Y7810D01*
Y9759D01*
D02*
G37*
G36*
X235640Y10865D02*
X232293D01*
X231442Y10696D01*
X230721Y10214D01*
X230239Y9492D01*
X230069Y8641D01*
X230239Y7790D01*
X230721Y7069D01*
X231442Y6587D01*
X232293Y6417D01*
X235640D01*
X236491Y6587D01*
X237212Y7069D01*
X237694Y7790D01*
X237864Y8641D01*
X237694Y9492D01*
X237212Y10214D01*
X236491Y10696D01*
X235640Y10865D01*
D02*
G37*
%LPD*%
G36*
X52182Y230283D02*
X46528Y224629D01*
X45976Y223802D01*
X45782Y222827D01*
Y210081D01*
X43787D01*
Y207749D01*
X42222Y206183D01*
X39406D01*
Y206209D01*
X35596D01*
X35404Y206671D01*
X36263Y207529D01*
X36594Y208025D01*
X36711Y208610D01*
Y214721D01*
X40209D01*
Y219994D01*
X40238Y220142D01*
Y224185D01*
X46698Y230646D01*
X51838D01*
X52182Y230283D01*
D02*
G37*
G36*
X79927Y174368D02*
Y167536D01*
X76335Y163944D01*
X75807Y164123D01*
X75690Y165014D01*
X75152Y166310D01*
X74298Y167424D01*
X73485Y168048D01*
X73453Y168546D01*
X79465Y174559D01*
X79927Y174368D01*
D02*
G37*
G36*
X81927Y164557D02*
Y157725D01*
X76335Y152132D01*
X75807Y152312D01*
X75690Y153203D01*
X75152Y154499D01*
X74298Y155613D01*
X73575Y156167D01*
X73554Y156198D01*
X73541Y156824D01*
X81465Y164748D01*
X81927Y164557D01*
D02*
G37*
G36*
X85511Y170475D02*
X85645Y169799D01*
X86198Y168972D01*
X86471Y168790D01*
Y150457D01*
X76335Y140321D01*
X75807Y140501D01*
X75690Y141392D01*
X75152Y142688D01*
X74298Y143802D01*
X73420Y144475D01*
X73396Y144608D01*
X73468Y145059D01*
X73827Y145299D01*
X84538Y156010D01*
X84870Y156506D01*
X84986Y157091D01*
Y170498D01*
X85003Y170551D01*
X85486Y170599D01*
X85511Y170475D01*
D02*
G37*
D12*
X266359Y131858D02*
X269016D01*
X266359Y131858D02*
X266359Y131858D01*
X269016D02*
X274055Y136897D01*
Y146726D01*
X270123Y150657D02*
X274055Y146726D01*
X266654Y150657D02*
X270123D01*
X133863Y258898D02*
X184984D01*
X132682Y257716D02*
X133863Y258898D01*
X126402Y259740D02*
X128426Y257716D01*
X80500Y259740D02*
X126402D01*
X128426Y257716D02*
X132682D01*
X179008Y183887D02*
X179130Y183765D01*
X174697Y183887D02*
X179008D01*
X233305Y23641D02*
X233966D01*
X232675Y24270D02*
X233305Y23641D01*
X232675Y24270D02*
Y26322D01*
X225896Y33102D02*
X232675Y26322D01*
X225896Y33102D02*
Y33299D01*
X173154Y9212D02*
X194794D01*
X166551D02*
X173154D01*
X194794D02*
X196704Y11122D01*
X224774D01*
X232293Y18641D01*
X233966D01*
X246636D02*
X246636Y18641D01*
X233966Y18641D02*
X246636D01*
X266359Y126425D02*
Y131858D01*
Y126425D02*
X267500Y125284D01*
X39573Y61303D02*
X39603D01*
X35181Y216614D02*
X36945Y218378D01*
X35181Y208610D02*
Y216614D01*
X30031Y203461D02*
X35181Y208610D01*
X30031Y200969D02*
Y203461D01*
X28957Y199894D02*
X30031Y200969D01*
X28760Y199894D02*
X28957D01*
X274370Y238540D02*
X275544Y237367D01*
X79457Y176714D02*
Y211957D01*
X71796Y169053D02*
X79457Y176714D01*
X68661Y157657D02*
X72211D01*
X81457Y166902D01*
X63291Y152286D02*
X68661Y157657D01*
X68247Y169053D02*
X71796D01*
X63291Y164097D02*
X68247Y169053D01*
X55223Y140475D02*
X63291D01*
X69196Y146380D01*
X48842Y134095D02*
X55223Y140475D01*
X260749Y145535D02*
X260941Y145343D01*
X266654D01*
X274815Y245638D02*
Y255368D01*
X265185Y245638D02*
Y253752D01*
X263701Y255236D02*
Y256183D01*
Y255236D02*
X265185Y253752D01*
Y245638D02*
X266260Y244563D01*
X22961Y149692D02*
Y150283D01*
X21590Y148322D02*
X22961Y149692D01*
X21000Y148322D02*
X21590D01*
X22961Y150283D02*
X24489Y151811D01*
X39000D01*
X258666Y237186D02*
X258996Y237516D01*
X252666D02*
X258996D01*
X259044Y237564D01*
X261510Y125193D02*
Y131392D01*
X261044Y131858D02*
X261510Y131392D01*
X291261Y220500D02*
X297500D01*
X285914Y220728D02*
X286142Y220500D01*
X277000Y220728D02*
X285914D01*
X253000Y221574D02*
Y228666D01*
X253351Y229016D01*
X274370Y238540D02*
Y243933D01*
X273740Y244563D02*
X274370Y243933D01*
X275500Y256053D02*
Y257000D01*
X274815Y255368D02*
X275500Y256053D01*
X273740Y244563D02*
X274815Y245638D01*
X264162Y237564D02*
X265335Y238737D01*
Y243638D01*
X266260Y244563D01*
X272000Y233823D02*
X275544Y237367D01*
X272000Y220728D02*
Y233823D01*
X267000Y220728D02*
Y233611D01*
X264162Y236449D02*
Y237564D01*
Y236449D02*
X267000Y233611D01*
X262000Y220728D02*
Y225485D01*
X258666Y228819D02*
X262000Y225485D01*
X258666Y228819D02*
Y229016D01*
Y237186D01*
X280709Y237516D02*
X286166D01*
X280662Y237564D02*
X280709Y237516D01*
X267000Y199272D02*
Y200945D01*
X88000Y149824D02*
Y170775D01*
X72746Y134569D02*
X88000Y149824D01*
X69196Y134569D02*
X72746D01*
X63291Y128664D02*
X69196Y134569D01*
X55223Y128664D02*
X63291D01*
X48842Y122283D02*
X55223Y128664D01*
X83457Y185957D02*
X88000Y190500D01*
X83457Y157091D02*
Y185957D01*
X72746Y146380D02*
X83457Y157091D01*
X69196Y146380D02*
X72746D01*
X81457Y197064D02*
X87500Y203107D01*
X81457Y166902D02*
Y197064D01*
X55223Y152286D02*
X63291D01*
X48842Y145905D02*
X55223Y152286D01*
X79457Y211957D02*
X87500Y220000D01*
X55223Y164097D02*
X63291D01*
X48842Y157717D02*
X55223Y164097D01*
X159359Y214629D02*
X160493Y213495D01*
X155000Y156177D02*
Y161000D01*
Y156177D02*
X155992Y155185D01*
X155000Y166315D02*
X155099Y166216D01*
X160953D01*
X160855Y161000D02*
X160953Y161098D01*
X155000Y161000D02*
X160855D01*
X172132Y166523D02*
Y166610D01*
Y166523D02*
X173469Y165186D01*
Y164937D02*
Y165186D01*
X162000Y166610D02*
X172132D01*
X164023Y159705D02*
X172551D01*
X161791Y161937D02*
X164023Y159705D01*
X160953Y161098D02*
X161791Y161937D01*
X155500Y134677D02*
Y139500D01*
Y134677D02*
X156492Y133685D01*
X155500Y144815D02*
X155599Y144716D01*
X161453D01*
X161355Y139500D02*
X161453Y139598D01*
X155500Y139500D02*
X161355D01*
X172632Y145022D02*
Y145110D01*
Y145022D02*
X173969Y143686D01*
Y143437D02*
Y143686D01*
X162500Y145110D02*
X172632D01*
X164523Y138205D02*
X173051D01*
X162291Y140437D02*
X164523Y138205D01*
X161453Y139598D02*
X162291Y140437D01*
X155000Y113677D02*
Y118500D01*
Y113677D02*
X155992Y112685D01*
X155000Y123815D02*
X155099Y123716D01*
X160953D01*
X160855Y118500D02*
X160953Y118598D01*
X155000Y118500D02*
X160855D01*
X172132Y124022D02*
Y124110D01*
Y124022D02*
X173469Y122686D01*
Y122437D02*
Y122686D01*
X162000Y124110D02*
X172132D01*
X164023Y117205D02*
X172551D01*
X161791Y119437D02*
X164023Y117205D01*
X160953Y118598D02*
X161791Y119437D01*
X155000Y92177D02*
Y97000D01*
Y92177D02*
X155992Y91185D01*
X155000Y102315D02*
X155099Y102216D01*
X160953D01*
X160855Y97000D02*
X160953Y97098D01*
X155000Y97000D02*
X160855D01*
X172132Y102523D02*
Y102610D01*
Y102523D02*
X173469Y101186D01*
Y100937D02*
Y101186D01*
X162000Y102610D02*
X172132D01*
X164023Y95705D02*
X172551D01*
X161791Y97937D02*
X164023Y95705D01*
X160953Y97098D02*
X161791Y97937D01*
X155000Y71677D02*
Y76500D01*
Y71677D02*
X155992Y70685D01*
X155000Y81815D02*
X155099Y81716D01*
X160953D01*
X160855Y76500D02*
X160953Y76598D01*
X155000Y76500D02*
X160855D01*
X172132Y82023D02*
Y82110D01*
Y82023D02*
X173469Y80686D01*
Y80437D02*
Y80686D01*
X162000Y82110D02*
X172132D01*
X164023Y75205D02*
X172551D01*
X161791Y77437D02*
X164023Y75205D01*
X160953Y76598D02*
X161791Y77437D01*
X155000Y51177D02*
Y56000D01*
Y51177D02*
X155992Y50185D01*
X155000Y61315D02*
X155099Y61216D01*
X160953D01*
X160855Y56000D02*
X160953Y56098D01*
X155000Y56000D02*
X160855D01*
X172132Y61523D02*
Y61610D01*
Y61523D02*
X173469Y60186D01*
Y59937D02*
Y60186D01*
X162000Y61610D02*
X172132D01*
X164023Y54705D02*
X172551D01*
X161791Y56937D02*
X164023Y54705D01*
X160953Y56098D02*
X161791Y56937D01*
X155000Y30677D02*
Y35500D01*
Y30677D02*
X155992Y29685D01*
X155000Y40815D02*
X155099Y40716D01*
X160953D01*
X160855Y35500D02*
X160953Y35598D01*
X155000Y35500D02*
X160855D01*
X172132Y41023D02*
Y41110D01*
Y41023D02*
X173469Y39686D01*
Y39437D02*
Y39686D01*
X162000Y41110D02*
X172132D01*
X164023Y34205D02*
X172551D01*
X161791Y36437D02*
X164023Y34205D01*
X160953Y35598D02*
X161791Y36437D01*
X71795Y259740D02*
X80500D01*
X71500Y259445D02*
X71795Y259740D01*
X66791Y247500D02*
Y248240D01*
X71106Y252555D01*
X71500D01*
X36945Y218378D02*
X38709Y220142D01*
X159359Y214629D02*
Y218215D01*
X159112Y181773D02*
X160246Y180639D01*
X159112Y181773D02*
Y185359D01*
X38709Y224819D02*
X48193Y234303D01*
X38709Y220142D02*
Y224819D01*
X48193Y234303D02*
Y234500D01*
X48232Y234539D02*
Y249500D01*
X48193Y234500D02*
X48232Y234539D01*
X172132Y20022D02*
Y20110D01*
X173469Y18437D02*
Y18686D01*
X162000Y20110D02*
X172132D01*
Y20022D02*
X173469Y18686D01*
X155000Y19815D02*
X155099Y19716D01*
X160953D01*
X155000Y9677D02*
Y14500D01*
Y9677D02*
X155992Y8685D01*
X160855Y14500D02*
X160953Y14598D01*
X155000Y14500D02*
X160855D01*
X164023Y13205D02*
X172551D01*
X161791Y15437D02*
X164023Y13205D01*
X160953Y14598D02*
X161791Y15437D01*
X266654Y150657D02*
Y156878D01*
X301197Y152047D02*
X301370Y151874D01*
Y139047D02*
Y151874D01*
X295323Y139047D02*
Y157047D01*
Y139047D02*
X299323Y135047D01*
D15*
X272264Y189500D02*
D03*
X266949D02*
D03*
X253351Y229016D02*
D03*
X258666D02*
D03*
X160493Y213495D02*
D03*
X155178D02*
D03*
X160246Y180639D02*
D03*
X154931D02*
D03*
X220581Y33299D02*
D03*
X225896D02*
D03*
X261044Y131858D02*
D03*
X266359D02*
D03*
D18*
X81696Y64150D02*
D03*
Y58835D02*
D03*
X203000Y14286D02*
D03*
Y19601D02*
D03*
X246636Y18641D02*
D03*
Y23956D02*
D03*
X39603Y55988D02*
D03*
Y61303D02*
D03*
X266654Y145343D02*
D03*
Y150657D02*
D03*
X155000Y14500D02*
D03*
Y19815D02*
D03*
Y40815D02*
D03*
Y35500D02*
D03*
Y102315D02*
D03*
Y97000D02*
D03*
Y123815D02*
D03*
Y118500D02*
D03*
Y81815D02*
D03*
Y76500D02*
D03*
Y61315D02*
D03*
Y56000D02*
D03*
X155500Y144815D02*
D03*
Y139500D02*
D03*
X155000Y166315D02*
D03*
Y161000D02*
D03*
D19*
X160953Y14598D02*
D03*
Y19716D02*
D03*
Y40716D02*
D03*
Y35598D02*
D03*
Y102216D02*
D03*
Y97098D02*
D03*
Y123716D02*
D03*
Y118598D02*
D03*
Y81716D02*
D03*
Y76598D02*
D03*
Y61216D02*
D03*
Y56098D02*
D03*
X161453Y144716D02*
D03*
Y139598D02*
D03*
X160953Y166216D02*
D03*
Y161098D02*
D03*
D23*
X264162Y237564D02*
D03*
X275544D02*
D03*
X259044D02*
D03*
X280662D02*
D03*
X286142Y220500D02*
D03*
X291261D02*
D03*
X155992Y8685D02*
D03*
X161110D02*
D03*
X155992Y29685D02*
D03*
X161110D02*
D03*
X155992Y91185D02*
D03*
X161110D02*
D03*
X155992Y112685D02*
D03*
X161110D02*
D03*
X155992Y70685D02*
D03*
X161110D02*
D03*
X155992Y50185D02*
D03*
X161110D02*
D03*
X156492Y133685D02*
D03*
X161610D02*
D03*
X155992Y155185D02*
D03*
X161110D02*
D03*
D42*
X61338Y9756D02*
Y34559D01*
X47802Y61303D02*
X61338Y47767D01*
Y34559D02*
Y47767D01*
X70393Y34559D02*
X70996Y35162D01*
X42488Y115295D02*
X47311Y110472D01*
X40083Y115295D02*
X42488D01*
X47311Y110472D02*
X48842D01*
X40083Y93839D02*
X43254D01*
X48077Y98661D01*
X39000Y104567D02*
X44905Y98661D01*
X48842D02*
X60654D01*
X44905D02*
X48077D01*
X39000Y116378D02*
X40083Y115295D01*
X48077Y98661D02*
X48842D01*
X39000Y92756D02*
X40083Y93839D01*
X76603Y64213D02*
X87091D01*
X70996Y35162D02*
Y58605D01*
X59807Y233291D02*
X70025D01*
X39573Y61303D02*
Y92183D01*
X39000Y92756D02*
X39573Y92183D01*
X39603Y61303D02*
X47802D01*
X98000Y75122D02*
Y223500D01*
X87091Y64213D02*
X98000Y75122D01*
X70996Y58605D02*
X76603Y64213D01*
X48331Y207112D02*
Y222827D01*
X43278Y203634D02*
X46756Y207112D01*
X36634Y203634D02*
X43278D01*
X36437D02*
X36634D01*
X36362Y203559D02*
X36437Y203634D01*
X36362Y200897D02*
Y203559D01*
X31465Y196000D02*
X36362Y200897D01*
X24406Y196000D02*
X31465D01*
X20469Y192063D02*
X24406Y196000D01*
X18500Y192063D02*
X20469D01*
X21000Y148322D02*
Y148421D01*
Y142220D02*
Y148322D01*
X98000Y223500D02*
X109055Y234555D01*
X121311Y246811D01*
X59807Y234500D02*
Y234697D01*
Y234303D02*
Y234500D01*
X71289Y234555D02*
X109055D01*
X145030Y246811D02*
X145301Y247083D01*
X121311Y246811D02*
X145030D01*
X132682Y264016D02*
X133540Y263157D01*
X132229Y264469D02*
X132682Y264016D01*
X144046Y254441D02*
X145105Y253382D01*
X145301D01*
X53000Y241504D02*
Y244500D01*
Y241504D02*
X59807Y234697D01*
X46756Y207112D02*
X48331D01*
Y222827D02*
X59807Y234303D01*
X70025Y233291D02*
X71289Y234555D01*
X21000Y142121D02*
Y142220D01*
D43*
X267000Y191370D02*
Y199272D01*
X179000Y15058D02*
Y25134D01*
X174209Y29925D02*
X179000Y25134D01*
X173154Y9212D02*
X179000Y15058D01*
X174398Y134955D02*
X177219Y137777D01*
Y150554D01*
X172348Y155425D02*
X177219Y150554D01*
X165274Y155425D02*
X172348D01*
X174205Y112925D02*
X176719Y115440D01*
Y128613D01*
X175750Y129583D02*
X176719Y128613D01*
X175750Y129583D02*
Y131025D01*
X172850Y133925D02*
X175750Y131025D01*
X179130Y95657D02*
Y108000D01*
X174205Y112925D02*
X179130Y108000D01*
X174898Y91425D02*
X179130Y95657D01*
X179500Y75914D02*
Y86823D01*
X174898Y91425D02*
X179500Y86823D01*
X174511Y70925D02*
X179500Y75914D01*
X174511Y70893D02*
X179000Y66404D01*
X174511Y70893D02*
Y70925D01*
X179000Y56558D02*
Y66404D01*
X173898Y51455D02*
X179000Y56558D01*
X172850Y50425D02*
X179000Y44275D01*
Y34716D02*
Y44275D01*
X174209Y29925D02*
X179000Y34716D01*
X173880Y51455D02*
X173898D01*
X172850Y50425D02*
X173880Y51455D01*
X165529Y8190D02*
X166264Y8925D01*
X172850Y133925D02*
X173880Y134955D01*
X165774Y133925D02*
X172850D01*
X165274Y112925D02*
X174205D01*
X165274Y91425D02*
X174898D01*
X165274Y70925D02*
X174511D01*
X165274Y50425D02*
X172850D01*
X165274Y29925D02*
X174209D01*
X165274Y8925D02*
X166264D01*
X272034Y199238D02*
Y204376D01*
X165034Y8685D02*
X165274Y8925D01*
X155228Y217973D02*
X155277Y218022D01*
X263701Y256183D02*
X263932Y255953D01*
X21000Y142220D02*
X22110Y141110D01*
X37890D01*
X39000Y140000D01*
X275500Y257000D02*
X275522Y256978D01*
X274473Y206815D02*
Y207627D01*
X272034Y204376D02*
X274473Y206815D01*
X272034Y199238D02*
X272132Y199139D01*
X278465Y191370D02*
Y192182D01*
X277000Y193647D02*
X278465Y192182D01*
X277000Y193647D02*
Y199272D01*
X260000Y192000D02*
Y192812D01*
X261835Y194647D01*
Y199107D01*
X262000Y199272D01*
X272132Y189632D02*
X272264Y189500D01*
X272132Y189632D02*
Y199139D01*
X173880Y134955D02*
X174398D01*
X155228Y213544D02*
Y217973D01*
X155178Y213495D02*
X155228Y213544D01*
X161110Y155185D02*
X165034D01*
X161705Y166315D02*
X162000Y166610D01*
X161610Y133685D02*
X165534D01*
X162205Y144815D02*
X162500Y145110D01*
X161110Y112685D02*
X165034D01*
X161705Y123815D02*
X162000Y124110D01*
X161110Y91185D02*
X165034D01*
X161705Y102315D02*
X162000Y102610D01*
X161110Y70685D02*
X165034D01*
X161705Y81815D02*
X162000Y82110D01*
X161110Y50185D02*
X165034D01*
X161705Y61315D02*
X162000Y61610D01*
X161110Y29685D02*
X165034D01*
X161705Y40815D02*
X162000Y41110D01*
X60031Y246193D02*
X63264Y242959D01*
X69775D01*
X71289Y241445D01*
X26500Y224801D02*
X29152Y222149D01*
Y219281D02*
X30055Y218378D01*
X29152Y219281D02*
Y222149D01*
X154981Y185117D02*
X155030Y185167D01*
X154981Y180688D02*
Y185117D01*
X154931Y180639D02*
X154981Y180688D01*
X161110Y8685D02*
X165034D01*
X161705Y19815D02*
X162000Y20110D01*
D44*
X70496Y92756D02*
D03*
Y104567D02*
D03*
Y116378D02*
D03*
Y128189D02*
D03*
Y140000D02*
D03*
Y151811D02*
D03*
Y163622D02*
D03*
Y175433D02*
D03*
Y187244D02*
D03*
X60654Y110472D02*
D03*
Y122283D02*
D03*
Y134095D02*
D03*
Y145905D02*
D03*
Y157717D02*
D03*
Y169528D02*
D03*
Y181339D02*
D03*
X48842Y110472D02*
D03*
Y122283D02*
D03*
Y134095D02*
D03*
Y145905D02*
D03*
Y157717D02*
D03*
X39000Y92756D02*
D03*
Y104567D02*
D03*
Y116378D02*
D03*
Y128189D02*
D03*
Y140000D02*
D03*
Y151811D02*
D03*
Y163622D02*
D03*
Y175433D02*
D03*
Y187244D02*
D03*
X60654Y98661D02*
D03*
X48842D02*
D03*
Y181339D02*
D03*
Y169528D02*
D03*
D45*
X13409Y215787D02*
D03*
Y64213D02*
D03*
D46*
X30000Y30000D02*
D03*
Y250000D02*
D03*
X320000Y30000D02*
D03*
Y250000D02*
D03*
D47*
X184984Y258898D02*
D03*
X181362Y29685D02*
D03*
X174697Y183887D02*
D03*
X179130Y220728D02*
D03*
X174898Y170941D02*
D03*
X180925Y151445D02*
D03*
X179000Y130929D02*
D03*
X180575Y111345D02*
D03*
X180138Y90807D02*
D03*
X180000Y70000D02*
D03*
X179000Y50876D02*
D03*
X30000Y192000D02*
D03*
X260749Y145535D02*
D03*
X155277Y218022D02*
D03*
X344500Y133000D02*
D03*
Y138079D02*
D03*
X267500Y125284D02*
D03*
X261510Y125193D02*
D03*
X297500Y220500D02*
D03*
X253000Y221574D02*
D03*
X87500Y220000D02*
D03*
Y203107D02*
D03*
X88000Y190500D02*
D03*
Y170775D02*
D03*
X131111Y213306D02*
D03*
X144132Y227932D02*
D03*
X196000Y188619D02*
D03*
X159359Y218215D02*
D03*
X144000Y168936D02*
D03*
X145000Y156759D02*
D03*
X166551Y155712D02*
D03*
X173469Y164937D02*
D03*
X172551Y159705D02*
D03*
X144500Y147436D02*
D03*
X145500Y135259D02*
D03*
X167051Y134212D02*
D03*
X173969Y143437D02*
D03*
X173051Y138205D02*
D03*
X144000Y126436D02*
D03*
X145000Y114259D02*
D03*
X166551Y113212D02*
D03*
X173469Y122437D02*
D03*
X172551Y117205D02*
D03*
X144000Y104936D02*
D03*
X145000Y92759D02*
D03*
X166551Y91712D02*
D03*
X173469Y100937D02*
D03*
X172551Y95705D02*
D03*
X144000Y84436D02*
D03*
X145000Y72259D02*
D03*
X166551Y71212D02*
D03*
X173469Y80437D02*
D03*
X172551Y75205D02*
D03*
X144000Y63936D02*
D03*
X145000Y51759D02*
D03*
X166551Y50712D02*
D03*
X173469Y59937D02*
D03*
X172551Y54705D02*
D03*
X144000Y43436D02*
D03*
X145000Y31259D02*
D03*
X166551Y30212D02*
D03*
X173469Y39437D02*
D03*
X172551Y34205D02*
D03*
X60435Y267051D02*
D03*
X53000Y244500D02*
D03*
X26500Y224801D02*
D03*
X130864Y180450D02*
D03*
X155030Y185167D02*
D03*
X60031Y246193D02*
D03*
X143885Y195076D02*
D03*
X229500Y175997D02*
D03*
X251922Y182397D02*
D03*
X48232Y249500D02*
D03*
X173469Y18437D02*
D03*
X309465Y174083D02*
D03*
X295151D02*
D03*
X145000Y10259D02*
D03*
X144000Y22436D02*
D03*
X166551Y9212D02*
D03*
X172551Y13205D02*
D03*
X266654Y156878D02*
D03*
X301197Y152047D02*
D03*
X301370Y139047D02*
D03*
X295323Y157047D02*
D03*
X299323Y135047D02*
D03*
X159112Y185359D02*
D03*
X252666Y237516D02*
D03*
X286166D02*
D03*
D48*
X115850Y253339D02*
D03*
X263701Y256183D02*
D03*
X275500Y257000D02*
D03*
X274473Y207627D02*
D03*
X278465Y191370D02*
D03*
X260000Y192000D02*
D03*
X72000Y267500D02*
D03*
X80500Y259740D02*
D03*
X66791Y247500D02*
D03*
X26000Y264921D02*
D03*
D49*
X233966Y23641D02*
D03*
Y18641D02*
D03*
Y13641D02*
D03*
Y8641D02*
D03*
X212510Y23641D02*
D03*
Y18641D02*
D03*
Y13641D02*
D03*
Y8641D02*
D03*
D50*
X230402Y247524D02*
D03*
D51*
X205598Y256580D02*
D03*
Y247524D02*
D03*
Y238469D02*
D03*
D52*
X61338Y9756D02*
D03*
D53*
X70393Y34559D02*
D03*
X61338D02*
D03*
X52283D02*
D03*
D54*
X36634Y203634D02*
D03*
X28760Y199894D02*
D03*
Y207374D02*
D03*
D55*
X71289Y241445D02*
D03*
Y234555D02*
D03*
X71500Y252555D02*
D03*
Y259445D02*
D03*
D56*
X59807Y234500D02*
D03*
X48193D02*
D03*
D57*
X267000Y220728D02*
D03*
X272000D02*
D03*
X277000Y199272D02*
D03*
X272000D02*
D03*
X267000D02*
D03*
X262000D02*
D03*
X277000Y220728D02*
D03*
X262000D02*
D03*
D58*
X132682Y257716D02*
D03*
Y264016D02*
D03*
X145301Y247083D02*
D03*
Y253382D02*
D03*
D59*
X21000Y148322D02*
D03*
Y142220D02*
D03*
D60*
X18500Y174937D02*
D03*
Y192063D02*
D03*
D61*
X30055Y218378D02*
D03*
X36945D02*
D03*
D62*
X48331Y196089D02*
D03*
Y207112D02*
D03*
D63*
X326950Y150550D02*
X344500Y133000D01*
X326950Y150550D02*
Y156597D01*
X309465Y174083D02*
X326950Y156597D01*
X295151Y174083D02*
X309465D01*
X263845Y182397D02*
X286837D01*
X295151Y174083D01*
X267000Y185552D02*
Y189449D01*
X266949Y189500D02*
X267000Y189449D01*
X263845Y182397D02*
X267000Y185552D01*
X251922Y182397D02*
X263845D01*
X230402Y203918D02*
X251922Y182397D01*
X230402Y203918D02*
Y247524D01*
X203000Y14286D02*
X203570Y13716D01*
X212435D01*
X212510Y13641D01*
X196760Y14286D02*
X203000D01*
X181362Y29685D02*
X196760Y14286D01*
X181362Y29685D02*
X181534Y29857D01*
Y48062D01*
X179000Y50597D02*
X181534Y48062D01*
X179000Y50597D02*
Y50876D01*
X183658Y55533D01*
Y66343D01*
X180000Y70000D02*
X183658Y66343D01*
X180000Y70000D02*
X184710Y74710D01*
Y86235D01*
X180138Y90807D02*
X184710Y86235D01*
X180138Y90807D02*
X183658Y94327D01*
Y108131D01*
X180575Y111213D02*
X183658Y108131D01*
X180575Y111213D02*
Y111345D01*
Y129075D01*
X179000Y130650D02*
X180575Y129075D01*
X179000Y130650D02*
Y130929D01*
Y131208D01*
X180925Y133133D01*
Y151445D01*
Y164913D01*
X174898Y170941D02*
X180925Y164913D01*
X179130Y183765D02*
Y220728D01*
Y175173D02*
Y183765D01*
X174898Y170941D02*
X179130Y175173D01*
Y220728D02*
Y228630D01*
X198024Y247524D01*
X205598D01*
X230402D01*
D64*
X182091Y247214D02*
X192196Y257319D01*
X206098D01*
X145432Y247214D02*
X182091D01*
X145301Y247083D02*
X145432Y247214D01*
D65*
X18500Y174937D02*
X18728Y175165D01*
X38732D01*
X39000Y175433D01*
X46819Y196089D02*
X48331D01*
X39000Y188270D02*
X46819Y196089D01*
X39000Y187244D02*
Y188270D01*
M02*
