G04*
G04 #@! TF.GenerationSoftware,Altium Limited,Altium Designer,19.1.8 (144)*
G04*
G04 Layer_Color=65535*
%FSLAX25Y25*%
%MOIN*%
G70*
G01*
G75*
%ADD10C,0.00984*%
%ADD11C,0.02362*%
%ADD12C,0.01000*%
%ADD13C,0.00591*%
%ADD14C,0.00787*%
G36*
X262978Y83820D02*
X263105D01*
X263397Y83783D01*
X263743Y83729D01*
X264107Y83656D01*
X264490Y83565D01*
X264836Y83419D01*
X264854D01*
X264872Y83401D01*
X264982Y83346D01*
X265146Y83255D01*
X265328Y83127D01*
X265528Y82982D01*
X265729Y82800D01*
X265911Y82599D01*
X266038Y82362D01*
X266057Y82326D01*
X266093Y82235D01*
X266130Y82089D01*
X266202Y81852D01*
X266221Y81706D01*
X266257Y81561D01*
X266275Y81378D01*
X266294Y81178D01*
X266312Y80959D01*
X266330Y80722D01*
X266348Y80467D01*
Y80194D01*
Y79702D01*
X263269D01*
Y80650D01*
Y80686D01*
Y80759D01*
Y80868D01*
X263251Y80996D01*
X263214Y81287D01*
X263178Y81397D01*
X263141Y81488D01*
Y81506D01*
X263123Y81524D01*
X263050Y81597D01*
X262941Y81652D01*
X262850Y81688D01*
X262704D01*
X262595Y81652D01*
X262431Y81579D01*
X262358Y81524D01*
X262303Y81433D01*
Y81415D01*
X262285Y81397D01*
X262267Y81324D01*
X262230Y81251D01*
X262212Y81142D01*
X262176Y81014D01*
X262158Y80868D01*
Y80686D01*
Y80650D01*
Y80577D01*
X262176Y80467D01*
Y80322D01*
X262230Y80012D01*
X262267Y79848D01*
X262322Y79720D01*
X262340Y79702D01*
X262358Y79666D01*
X262413Y79593D01*
X262504Y79502D01*
X262613Y79392D01*
X262777Y79265D01*
X262996Y79119D01*
X263251Y78955D01*
X263269Y78937D01*
X263342Y78900D01*
X263451Y78828D01*
X263615Y78737D01*
X263779Y78627D01*
X263980Y78500D01*
X264435Y78190D01*
X264909Y77844D01*
X265364Y77479D01*
X265565Y77297D01*
X265765Y77133D01*
X265911Y76951D01*
X266038Y76787D01*
Y76769D01*
X266057Y76750D01*
X266093Y76696D01*
X266130Y76623D01*
X266166Y76532D01*
X266221Y76423D01*
X266275Y76295D01*
X266330Y76131D01*
X266385Y75949D01*
X266439Y75748D01*
X266494Y75530D01*
X266530Y75293D01*
X266567Y75020D01*
X266603Y74728D01*
X266621Y74418D01*
Y74072D01*
Y74054D01*
Y74018D01*
Y73945D01*
Y73853D01*
X266603Y73744D01*
Y73598D01*
X266585Y73307D01*
X266549Y72979D01*
X266476Y72651D01*
X266403Y72341D01*
X266294Y72068D01*
X266275Y72031D01*
X266239Y71959D01*
X266148Y71849D01*
X266020Y71704D01*
X265856Y71521D01*
X265638Y71339D01*
X265383Y71157D01*
X265055Y70993D01*
X265036D01*
X265018Y70975D01*
X264964Y70956D01*
X264891Y70920D01*
X264708Y70847D01*
X264453Y70774D01*
X264144Y70701D01*
X263779Y70629D01*
X263378Y70574D01*
X262941Y70556D01*
X262722D01*
X262613Y70574D01*
X262467D01*
X262158Y70610D01*
X261793Y70683D01*
X261429Y70756D01*
X261028Y70884D01*
X260664Y71048D01*
X260645D01*
X260627Y71066D01*
X260518Y71139D01*
X260354Y71248D01*
X260153Y71394D01*
X259953Y71594D01*
X259734Y71813D01*
X259570Y72068D01*
X259425Y72341D01*
Y72360D01*
X259406Y72378D01*
X259388Y72487D01*
X259333Y72669D01*
X259297Y72906D01*
X259242Y73234D01*
X259188Y73617D01*
X259170Y74054D01*
X259151Y74564D01*
Y75402D01*
X262230D01*
Y73835D01*
Y73799D01*
Y73726D01*
Y73598D01*
X262249Y73453D01*
X262267Y73289D01*
X262285Y73143D01*
X262322Y72997D01*
X262358Y72906D01*
X262376Y72870D01*
X262467Y72815D01*
X262613Y72742D01*
X262704Y72724D01*
X262813Y72706D01*
X262868D01*
X262923Y72724D01*
X262996Y72742D01*
X263160Y72815D01*
X263233Y72870D01*
X263305Y72961D01*
Y72979D01*
X263324Y73015D01*
X263360Y73070D01*
X263397Y73161D01*
X263415Y73252D01*
X263451Y73398D01*
X263470Y73544D01*
Y73726D01*
Y73744D01*
Y73781D01*
Y73835D01*
Y73908D01*
X263451Y74109D01*
X263433Y74327D01*
X263397Y74582D01*
X263342Y74819D01*
X263269Y75038D01*
X263214Y75129D01*
X263160Y75202D01*
X263141Y75220D01*
X263087Y75275D01*
X262996Y75366D01*
X262850Y75493D01*
X262650Y75639D01*
X262376Y75840D01*
X262212Y75967D01*
X262030Y76095D01*
X261830Y76222D01*
X261611Y76368D01*
X261593Y76386D01*
X261556Y76404D01*
X261502Y76441D01*
X261411Y76495D01*
X261192Y76641D01*
X260937Y76823D01*
X260664Y77024D01*
X260390Y77206D01*
X260153Y77388D01*
X260062Y77479D01*
X259971Y77552D01*
X259953Y77570D01*
X259898Y77625D01*
X259825Y77698D01*
X259734Y77825D01*
X259643Y77953D01*
X259534Y78135D01*
X259425Y78336D01*
X259315Y78572D01*
X259297Y78609D01*
X259279Y78700D01*
X259242Y78828D01*
X259188Y79028D01*
X259133Y79265D01*
X259097Y79556D01*
X259079Y79884D01*
X259060Y80249D01*
Y80267D01*
Y80322D01*
Y80395D01*
Y80486D01*
X259079Y80613D01*
Y80741D01*
X259115Y81069D01*
X259151Y81415D01*
X259206Y81761D01*
X259297Y82089D01*
X259370Y82253D01*
X259425Y82380D01*
X259443Y82417D01*
X259497Y82490D01*
X259589Y82617D01*
X259716Y82781D01*
X259880Y82945D01*
X260099Y83127D01*
X260336Y83292D01*
X260627Y83455D01*
X260645D01*
X260664Y83474D01*
X260773Y83510D01*
X260955Y83583D01*
X261192Y83656D01*
X261484Y83710D01*
X261830Y83783D01*
X262230Y83820D01*
X262650Y83838D01*
X262868D01*
X262978Y83820D01*
D02*
G37*
G36*
X310222Y81032D02*
X308254D01*
Y70829D01*
X304938D01*
Y81032D01*
X302970D01*
Y83583D01*
X310222D01*
Y81032D01*
D02*
G37*
G36*
X289397Y83565D02*
X289652D01*
X290180Y83547D01*
X290708Y83510D01*
X290945Y83492D01*
X291182Y83455D01*
X291383Y83437D01*
X291547Y83401D01*
X291583D01*
X291692Y83364D01*
X291838Y83310D01*
X292038Y83219D01*
X292257Y83091D01*
X292476Y82927D01*
X292694Y82727D01*
X292913Y82472D01*
X292931Y82435D01*
X292968Y82399D01*
X293004Y82326D01*
X293040Y82253D01*
X293077Y82144D01*
X293132Y82034D01*
X293186Y81889D01*
X293223Y81743D01*
X293277Y81561D01*
X293314Y81378D01*
X293369Y81160D01*
X293387Y80923D01*
X293423Y80668D01*
X293441Y80395D01*
Y80103D01*
Y80085D01*
Y80030D01*
Y79957D01*
Y79866D01*
X293423Y79739D01*
Y79611D01*
X293387Y79301D01*
X293350Y78955D01*
X293277Y78627D01*
X293186Y78336D01*
X293132Y78208D01*
X293059Y78099D01*
X293040Y78081D01*
X292986Y78026D01*
X292895Y77935D01*
X292749Y77825D01*
X292549Y77716D01*
X292294Y77625D01*
X291984Y77534D01*
X291601Y77479D01*
X291619D01*
X291638Y77461D01*
X291692D01*
X291765Y77443D01*
X291929Y77388D01*
X292129Y77315D01*
X292348Y77224D01*
X292567Y77097D01*
X292767Y76969D01*
X292913Y76823D01*
X292931Y76805D01*
X292968Y76750D01*
X293022Y76678D01*
X293095Y76587D01*
X293241Y76331D01*
X293314Y76204D01*
X293350Y76076D01*
Y76058D01*
X293369Y76003D01*
X293387Y75894D01*
X293405Y75712D01*
Y75603D01*
Y75457D01*
X293423Y75311D01*
Y75129D01*
X293441Y74928D01*
Y74710D01*
Y74455D01*
Y74181D01*
Y70829D01*
X290362D01*
Y75056D01*
Y75074D01*
Y75111D01*
Y75147D01*
Y75220D01*
Y75402D01*
X290344Y75603D01*
X290326Y75821D01*
X290289Y76040D01*
X290253Y76204D01*
X290235Y76277D01*
X290198Y76331D01*
Y76350D01*
X290162Y76368D01*
X290107Y76404D01*
X290034Y76459D01*
X289925Y76514D01*
X289761Y76550D01*
X289579Y76568D01*
X289342Y76587D01*
Y70829D01*
X286026D01*
Y83583D01*
X289160D01*
X289397Y83565D01*
D02*
G37*
G36*
X281744D02*
X282036D01*
X282364Y83528D01*
X282710Y83492D01*
X283056Y83437D01*
X283348Y83364D01*
X283384Y83346D01*
X283475Y83328D01*
X283603Y83273D01*
X283767Y83200D01*
X283930Y83109D01*
X284113Y83018D01*
X284295Y82891D01*
X284441Y82745D01*
X284459Y82727D01*
X284495Y82672D01*
X284568Y82581D01*
X284641Y82472D01*
X284714Y82326D01*
X284805Y82162D01*
X284878Y81980D01*
X284933Y81761D01*
Y81743D01*
X284951Y81652D01*
X284987Y81524D01*
X285005Y81324D01*
X285042Y81087D01*
X285060Y80777D01*
X285078Y80431D01*
Y80012D01*
Y78900D01*
Y78882D01*
Y78846D01*
Y78791D01*
Y78700D01*
X285060Y78481D01*
X285042Y78226D01*
X285024Y77935D01*
X284969Y77625D01*
X284914Y77352D01*
X284823Y77115D01*
X284805Y77097D01*
X284769Y77024D01*
X284714Y76915D01*
X284605Y76805D01*
X284477Y76659D01*
X284331Y76514D01*
X284131Y76386D01*
X283894Y76259D01*
X283858Y76240D01*
X283767Y76222D01*
X283621Y76168D01*
X283420Y76113D01*
X283165Y76058D01*
X282874Y76022D01*
X282509Y75985D01*
X282127Y75967D01*
X281252D01*
Y70829D01*
X277936D01*
Y83583D01*
X281598D01*
X281744Y83565D01*
D02*
G37*
G36*
X274347Y81032D02*
X272379Y81032D01*
Y70829D01*
X269063D01*
Y81032D01*
X267095D01*
Y83583D01*
X274347Y83583D01*
Y81032D01*
D02*
G37*
G36*
X258751Y70829D02*
X255380D01*
X255198Y73125D01*
X253977D01*
X253795Y70829D01*
X250388D01*
X252064Y83583D01*
X256837D01*
X258751Y70829D01*
D02*
G37*
G36*
X250333Y81032D02*
X248037D01*
Y78609D01*
X250078D01*
Y76186D01*
X248037D01*
Y70829D01*
X244721D01*
Y83583D01*
X250333D01*
Y81032D01*
D02*
G37*
G36*
X315069Y83820D02*
X315324Y83802D01*
X315597Y83747D01*
X315907Y83692D01*
X316235Y83601D01*
X316544Y83492D01*
X316563D01*
X316581Y83474D01*
X316672Y83437D01*
X316836Y83346D01*
X317018Y83237D01*
X317218Y83109D01*
X317437Y82927D01*
X317656Y82727D01*
X317856Y82490D01*
X317874Y82453D01*
X317929Y82380D01*
X318020Y82235D01*
X318111Y82052D01*
X318221Y81834D01*
X318312Y81597D01*
X318385Y81324D01*
X318439Y81032D01*
Y80996D01*
X318457Y80941D01*
Y80887D01*
Y80795D01*
X318476Y80686D01*
Y80540D01*
X318494Y80395D01*
X318512Y80212D01*
Y80012D01*
X318530Y79793D01*
Y79538D01*
Y79265D01*
X318548Y78973D01*
Y78645D01*
Y78281D01*
Y76095D01*
Y76076D01*
Y76003D01*
Y75912D01*
Y75785D01*
Y75621D01*
Y75439D01*
Y75257D01*
X318530Y75038D01*
Y74600D01*
X318512Y74145D01*
X318494Y73726D01*
X318476Y73544D01*
X318457Y73380D01*
Y73343D01*
X318439Y73252D01*
X318403Y73088D01*
X318348Y72888D01*
X318275Y72669D01*
X318166Y72414D01*
X318038Y72159D01*
X317874Y71904D01*
X317856Y71868D01*
X317783Y71795D01*
X317674Y71685D01*
X317528Y71540D01*
X317346Y71376D01*
X317127Y71212D01*
X316872Y71048D01*
X316581Y70902D01*
X316544Y70884D01*
X316435Y70847D01*
X316271Y70793D01*
X316052Y70738D01*
X315779Y70665D01*
X315451Y70610D01*
X315087Y70574D01*
X314704Y70556D01*
X314540D01*
X314340Y70574D01*
X314085Y70592D01*
X313811Y70629D01*
X313502Y70701D01*
X313174Y70774D01*
X312864Y70884D01*
X312827Y70902D01*
X312736Y70938D01*
X312572Y71029D01*
X312390Y71139D01*
X312190Y71266D01*
X311971Y71448D01*
X311753Y71649D01*
X311552Y71886D01*
X311534Y71922D01*
X311479Y71995D01*
X311388Y72141D01*
X311297Y72323D01*
X311188Y72542D01*
X311097Y72778D01*
X311024Y73052D01*
X310969Y73343D01*
Y73362D01*
Y73380D01*
Y73435D01*
X310951Y73489D01*
Y73580D01*
X310933Y73690D01*
Y73835D01*
Y73981D01*
X310914Y74163D01*
Y74364D01*
X310896Y74582D01*
Y74837D01*
X310878Y75111D01*
Y75420D01*
Y75748D01*
Y76095D01*
Y78281D01*
Y78299D01*
Y78372D01*
Y78463D01*
Y78591D01*
Y78755D01*
Y78937D01*
Y79119D01*
X310896Y79338D01*
Y79793D01*
X310914Y80230D01*
X310933Y80650D01*
Y80832D01*
X310951Y80996D01*
Y81014D01*
Y81032D01*
X310969Y81123D01*
X311005Y81287D01*
X311060Y81488D01*
X311133Y81706D01*
X311224Y81943D01*
X311352Y82198D01*
X311516Y82453D01*
X311534Y82490D01*
X311607Y82563D01*
X311716Y82690D01*
X311862Y82836D01*
X312044Y83000D01*
X312263Y83164D01*
X312518Y83328D01*
X312809Y83474D01*
X312827D01*
X312846Y83492D01*
X312955Y83528D01*
X313119Y83583D01*
X313356Y83656D01*
X313629Y83729D01*
X313957Y83783D01*
X314321Y83820D01*
X314704Y83838D01*
X314868D01*
X315069Y83820D01*
D02*
G37*
G36*
X298816D02*
X299071Y83802D01*
X299345Y83747D01*
X299654Y83692D01*
X299982Y83601D01*
X300292Y83492D01*
X300310D01*
X300328Y83474D01*
X300420Y83437D01*
X300584Y83346D01*
X300766Y83237D01*
X300966Y83109D01*
X301185Y82927D01*
X301403Y82727D01*
X301604Y82490D01*
X301622Y82453D01*
X301677Y82380D01*
X301768Y82235D01*
X301859Y82052D01*
X301968Y81834D01*
X302059Y81597D01*
X302132Y81324D01*
X302187Y81032D01*
Y80996D01*
X302205Y80941D01*
Y80887D01*
Y80795D01*
X302223Y80686D01*
Y80540D01*
X302242Y80395D01*
X302260Y80212D01*
Y80012D01*
X302278Y79793D01*
Y79538D01*
Y79265D01*
X302296Y78973D01*
Y78645D01*
Y78281D01*
Y76095D01*
Y76076D01*
Y76003D01*
Y75912D01*
Y75785D01*
Y75621D01*
Y75439D01*
Y75257D01*
X302278Y75038D01*
Y74600D01*
X302260Y74145D01*
X302242Y73726D01*
X302223Y73544D01*
X302205Y73380D01*
Y73343D01*
X302187Y73252D01*
X302151Y73088D01*
X302096Y72888D01*
X302023Y72669D01*
X301914Y72414D01*
X301786Y72159D01*
X301622Y71904D01*
X301604Y71868D01*
X301531Y71795D01*
X301422Y71685D01*
X301276Y71540D01*
X301094Y71376D01*
X300875Y71212D01*
X300620Y71048D01*
X300328Y70902D01*
X300292Y70884D01*
X300183Y70847D01*
X300019Y70793D01*
X299800Y70738D01*
X299527Y70665D01*
X299199Y70610D01*
X298834Y70574D01*
X298452Y70556D01*
X298288D01*
X298088Y70574D01*
X297832Y70592D01*
X297559Y70629D01*
X297249Y70701D01*
X296921Y70774D01*
X296612Y70884D01*
X296575Y70902D01*
X296484Y70938D01*
X296320Y71029D01*
X296138Y71139D01*
X295937Y71266D01*
X295719Y71448D01*
X295500Y71649D01*
X295300Y71886D01*
X295282Y71922D01*
X295227Y71995D01*
X295136Y72141D01*
X295045Y72323D01*
X294935Y72542D01*
X294844Y72778D01*
X294771Y73052D01*
X294717Y73343D01*
Y73362D01*
Y73380D01*
Y73435D01*
X294699Y73489D01*
Y73580D01*
X294680Y73690D01*
Y73835D01*
Y73981D01*
X294662Y74163D01*
Y74364D01*
X294644Y74582D01*
Y74837D01*
X294626Y75111D01*
Y75420D01*
Y75748D01*
Y76095D01*
Y78281D01*
Y78299D01*
Y78372D01*
Y78463D01*
Y78591D01*
Y78755D01*
Y78937D01*
Y79119D01*
X294644Y79338D01*
Y79793D01*
X294662Y80230D01*
X294680Y80650D01*
Y80832D01*
X294699Y80996D01*
Y81014D01*
Y81032D01*
X294717Y81123D01*
X294753Y81287D01*
X294808Y81488D01*
X294881Y81706D01*
X294972Y81943D01*
X295099Y82198D01*
X295263Y82453D01*
X295282Y82490D01*
X295355Y82563D01*
X295464Y82690D01*
X295609Y82836D01*
X295792Y83000D01*
X296010Y83164D01*
X296266Y83328D01*
X296557Y83474D01*
X296575D01*
X296593Y83492D01*
X296703Y83528D01*
X296867Y83583D01*
X297104Y83656D01*
X297377Y83729D01*
X297705Y83783D01*
X298069Y83820D01*
X298452Y83838D01*
X298616D01*
X298816Y83820D01*
D02*
G37*
G36*
X297395Y59132D02*
X293223D01*
Y61336D01*
X297395D01*
Y59132D01*
D02*
G37*
G36*
X280359D02*
X276187D01*
Y61336D01*
X280359D01*
Y59132D01*
D02*
G37*
G36*
X271741Y67987D02*
X271869D01*
X272160Y67968D01*
X272488Y67914D01*
X272834Y67859D01*
X273181Y67768D01*
X273491Y67641D01*
X273509D01*
X273527Y67622D01*
X273618Y67568D01*
X273782Y67495D01*
X273964Y67385D01*
X274165Y67240D01*
X274383Y67058D01*
X274584Y66857D01*
X274766Y66620D01*
X274784Y66584D01*
X274839Y66511D01*
X274912Y66365D01*
X275003Y66201D01*
X275094Y65983D01*
X275185Y65746D01*
X275258Y65491D01*
X275294Y65217D01*
Y65181D01*
Y65144D01*
X275312Y65071D01*
Y64980D01*
Y64871D01*
X275331Y64744D01*
Y64598D01*
Y64416D01*
X275349Y64215D01*
Y63978D01*
Y63723D01*
X275367Y63432D01*
Y63122D01*
Y62776D01*
Y62393D01*
Y60626D01*
Y60608D01*
Y60535D01*
Y60407D01*
Y60261D01*
Y60079D01*
Y59861D01*
Y59642D01*
Y59387D01*
X275349Y58877D01*
X275331Y58367D01*
Y58148D01*
X275312Y57929D01*
Y57729D01*
X275294Y57565D01*
Y57528D01*
X275276Y57437D01*
X275258Y57292D01*
X275203Y57091D01*
X275130Y56872D01*
X275039Y56636D01*
X274912Y56362D01*
X274748Y56107D01*
X274729Y56071D01*
X274657Y55998D01*
X274547Y55870D01*
X274401Y55725D01*
X274219Y55561D01*
X273982Y55397D01*
X273727Y55233D01*
X273436Y55087D01*
X273399Y55069D01*
X273290Y55032D01*
X273126Y54978D01*
X272889Y54923D01*
X272616Y54868D01*
X272288Y54814D01*
X271923Y54777D01*
X271523Y54759D01*
X271304D01*
X271177Y54777D01*
X271049D01*
X270739Y54814D01*
X270393Y54868D01*
X270029Y54941D01*
X269664Y55032D01*
X269318Y55178D01*
X269282Y55196D01*
X269191Y55251D01*
X269027Y55360D01*
X268844Y55488D01*
X268644Y55670D01*
X268443Y55870D01*
X268261Y56125D01*
X268097Y56399D01*
Y56417D01*
X268079Y56435D01*
X268043Y56545D01*
X267988Y56709D01*
X267915Y56945D01*
X267842Y57237D01*
X267788Y57583D01*
X267751Y57966D01*
X267733Y58403D01*
X270921D01*
Y58385D01*
Y58367D01*
Y58257D01*
Y58111D01*
Y57911D01*
Y57729D01*
Y57528D01*
X270940Y57364D01*
Y57255D01*
Y57237D01*
Y57219D01*
X270976Y57128D01*
X271031Y57000D01*
X271122Y56872D01*
X271158Y56854D01*
X271249Y56800D01*
X271377Y56745D01*
X271577Y56727D01*
X271614D01*
X271723Y56745D01*
X271832Y56781D01*
X271960Y56872D01*
X271978Y56891D01*
X272051Y56982D01*
X272106Y57091D01*
X272142Y57255D01*
Y57273D01*
Y57310D01*
X272160Y57364D01*
Y57455D01*
Y57583D01*
X272179Y57747D01*
Y57966D01*
Y58202D01*
Y60243D01*
X272160Y60225D01*
X272142Y60152D01*
X272088Y60061D01*
X271996Y59952D01*
X271905Y59824D01*
X271778Y59715D01*
X271632Y59587D01*
X271468Y59478D01*
X271450Y59460D01*
X271377Y59442D01*
X271286Y59405D01*
X271140Y59350D01*
X270976Y59296D01*
X270776Y59259D01*
X270539Y59241D01*
X270284Y59223D01*
X270138D01*
X269974Y59241D01*
X269774Y59277D01*
X269537Y59332D01*
X269282Y59423D01*
X269008Y59533D01*
X268753Y59678D01*
X268717Y59697D01*
X268644Y59769D01*
X268535Y59861D01*
X268389Y60006D01*
X268243Y60170D01*
X268116Y60352D01*
X267988Y60571D01*
X267897Y60808D01*
Y60844D01*
X267879Y60935D01*
X267842Y61081D01*
X267824Y61282D01*
X267788Y61537D01*
X267751Y61847D01*
X267733Y62211D01*
Y62612D01*
Y63632D01*
Y63650D01*
Y63687D01*
Y63760D01*
Y63851D01*
Y63960D01*
Y64088D01*
X267751Y64379D01*
Y64707D01*
X267769Y65035D01*
X267788Y65345D01*
X267824Y65618D01*
Y65654D01*
X267842Y65727D01*
X267879Y65855D01*
X267933Y66019D01*
X268006Y66201D01*
X268097Y66401D01*
X268225Y66620D01*
X268371Y66821D01*
X268389Y66839D01*
X268462Y66912D01*
X268553Y67021D01*
X268699Y67149D01*
X268863Y67276D01*
X269081Y67422D01*
X269318Y67568D01*
X269591Y67695D01*
X269610D01*
X269628Y67713D01*
X269737Y67750D01*
X269901Y67786D01*
X270120Y67859D01*
X270375Y67914D01*
X270685Y67950D01*
X271031Y67987D01*
X271413Y68005D01*
X271632D01*
X271741Y67987D01*
D02*
G37*
G36*
X310878Y59423D02*
X311789D01*
Y57255D01*
X310878D01*
Y55014D01*
X307689D01*
Y57255D01*
X303918D01*
Y59423D01*
X306651Y67768D01*
X310878D01*
Y59423D01*
D02*
G37*
G36*
X303153Y55014D02*
X299964D01*
Y61847D01*
Y61865D01*
Y61919D01*
Y61992D01*
Y62083D01*
Y62193D01*
Y62339D01*
Y62630D01*
X299946Y62922D01*
X299928Y63213D01*
Y63341D01*
X299909Y63450D01*
Y63541D01*
X299891Y63614D01*
Y63632D01*
X299873Y63669D01*
X299818Y63796D01*
X299764Y63869D01*
X299691Y63942D01*
X299600Y64015D01*
X299490Y64069D01*
X299472D01*
X299417Y64088D01*
X299326Y64124D01*
X299199Y64161D01*
X299017Y64179D01*
X298762Y64215D01*
X298470Y64233D01*
X297778D01*
Y65709D01*
X297796D01*
X297887Y65727D01*
X297996Y65764D01*
X298160Y65819D01*
X298342Y65873D01*
X298561Y65946D01*
X298816Y66055D01*
X299071Y66165D01*
X299363Y66292D01*
X299636Y66438D01*
X299928Y66602D01*
X300219Y66802D01*
X300511Y67003D01*
X300784Y67240D01*
X301039Y67495D01*
X301276Y67768D01*
X303153D01*
Y55014D01*
D02*
G37*
G36*
X292257D02*
X289069D01*
Y61847D01*
Y61865D01*
Y61919D01*
Y61992D01*
Y62083D01*
Y62193D01*
Y62339D01*
Y62630D01*
X289050Y62922D01*
X289032Y63213D01*
Y63341D01*
X289014Y63450D01*
Y63541D01*
X288996Y63614D01*
Y63632D01*
X288978Y63669D01*
X288923Y63796D01*
X288868Y63869D01*
X288795Y63942D01*
X288704Y64015D01*
X288595Y64069D01*
X288577D01*
X288522Y64088D01*
X288431Y64124D01*
X288303Y64161D01*
X288121Y64179D01*
X287866Y64215D01*
X287575Y64233D01*
X286882D01*
Y65709D01*
X286900D01*
X286992Y65727D01*
X287101Y65764D01*
X287265Y65819D01*
X287447Y65873D01*
X287666Y65946D01*
X287921Y66055D01*
X288176Y66165D01*
X288467Y66292D01*
X288741Y66438D01*
X289032Y66602D01*
X289324Y66802D01*
X289615Y67003D01*
X289889Y67240D01*
X290144Y67495D01*
X290380Y67768D01*
X292257D01*
Y55014D01*
D02*
G37*
G36*
X286117D02*
X282928D01*
Y61847D01*
Y61865D01*
Y61919D01*
Y61992D01*
Y62083D01*
Y62193D01*
Y62339D01*
Y62630D01*
X282910Y62922D01*
X282892Y63213D01*
Y63341D01*
X282874Y63450D01*
Y63541D01*
X282856Y63614D01*
Y63632D01*
X282837Y63669D01*
X282783Y63796D01*
X282728Y63869D01*
X282655Y63942D01*
X282564Y64015D01*
X282455Y64069D01*
X282436D01*
X282382Y64088D01*
X282291Y64124D01*
X282163Y64161D01*
X281981Y64179D01*
X281726Y64215D01*
X281434Y64233D01*
X280742D01*
Y65709D01*
X280760D01*
X280851Y65727D01*
X280961Y65764D01*
X281125Y65819D01*
X281307Y65873D01*
X281525Y65946D01*
X281781Y66055D01*
X282036Y66165D01*
X282327Y66292D01*
X282600Y66438D01*
X282892Y66602D01*
X283184Y66802D01*
X283475Y67003D01*
X283748Y67240D01*
X284003Y67495D01*
X284240Y67768D01*
X286117D01*
Y55014D01*
D02*
G37*
G36*
X266494Y55014D02*
X263305D01*
Y61847D01*
Y61865D01*
Y61919D01*
Y61992D01*
Y62083D01*
Y62193D01*
Y62339D01*
Y62630D01*
X263287Y62922D01*
X263269Y63213D01*
Y63341D01*
X263251Y63450D01*
Y63541D01*
X263233Y63614D01*
Y63632D01*
X263214Y63669D01*
X263160Y63796D01*
X263105Y63869D01*
X263032Y63942D01*
X262941Y64015D01*
X262832Y64069D01*
X262813D01*
X262759Y64088D01*
X262668Y64124D01*
X262540Y64161D01*
X262358Y64179D01*
X262103Y64215D01*
X261811Y64233D01*
X261119D01*
Y65709D01*
X261137D01*
X261228Y65727D01*
X261338Y65764D01*
X261502Y65819D01*
X261684Y65873D01*
X261903Y65946D01*
X262158Y66055D01*
X262413Y66165D01*
X262704Y66292D01*
X262978Y66438D01*
X263269Y66602D01*
X263561Y66802D01*
X263852Y67003D01*
X264125Y67240D01*
X264381Y67495D01*
X264617Y67768D01*
X266494D01*
Y55014D01*
D02*
G37*
G36*
X248456Y67987D02*
X248620Y67968D01*
X248802Y67950D01*
X249003Y67932D01*
X249221Y67896D01*
X249695Y67768D01*
X250169Y67604D01*
X250406Y67495D01*
X250624Y67367D01*
X250843Y67221D01*
X251025Y67058D01*
X251043Y67039D01*
X251062Y67021D01*
X251116Y66966D01*
X251171Y66894D01*
X251262Y66802D01*
X251335Y66675D01*
X251517Y66401D01*
X251699Y66055D01*
X251863Y65654D01*
X251973Y65181D01*
X251991Y64944D01*
X252009Y64671D01*
Y64652D01*
Y64616D01*
Y64561D01*
Y64488D01*
X251991Y64379D01*
X251973Y64270D01*
X251936Y63978D01*
X251863Y63632D01*
X251772Y63231D01*
X251626Y62812D01*
X251444Y62357D01*
Y62339D01*
X251408Y62302D01*
X251371Y62211D01*
X251317Y62102D01*
X251244Y61956D01*
X251134Y61755D01*
X251007Y61537D01*
X250843Y61245D01*
X250643Y60935D01*
X250424Y60553D01*
X250151Y60134D01*
X249859Y59660D01*
X249513Y59132D01*
X249130Y58549D01*
X248693Y57893D01*
X248219Y57182D01*
X251718D01*
Y55014D01*
X244721D01*
Y56836D01*
X244739Y56854D01*
X244758Y56891D01*
X244794Y56964D01*
X244849Y57055D01*
X244921Y57182D01*
X245013Y57310D01*
X245104Y57474D01*
X245213Y57656D01*
X245450Y58057D01*
X245741Y58494D01*
X246033Y59004D01*
X246343Y59514D01*
X246980Y60589D01*
X247290Y61118D01*
X247582Y61610D01*
X247855Y62083D01*
X248074Y62484D01*
X248183Y62666D01*
X248256Y62830D01*
X248347Y62976D01*
X248401Y63104D01*
Y63122D01*
X248420Y63158D01*
X248456Y63213D01*
X248493Y63304D01*
X248547Y63414D01*
X248584Y63523D01*
X248711Y63796D01*
X248821Y64106D01*
X248912Y64416D01*
X248985Y64725D01*
X249003Y64999D01*
Y65017D01*
Y65090D01*
Y65181D01*
X248985Y65290D01*
X248930Y65545D01*
X248875Y65654D01*
X248821Y65764D01*
Y65782D01*
X248784Y65800D01*
X248693Y65910D01*
X248511Y66001D01*
X248401Y66019D01*
X248274Y66037D01*
X248219D01*
X248147Y66019D01*
X248074Y66001D01*
X247983Y65964D01*
X247891Y65910D01*
X247800Y65837D01*
X247727Y65746D01*
Y65727D01*
X247709Y65691D01*
X247673Y65618D01*
X247655Y65491D01*
X247618Y65345D01*
X247582Y65144D01*
X247563Y64907D01*
Y64616D01*
Y63414D01*
X244721D01*
Y63869D01*
Y63887D01*
Y63924D01*
Y63978D01*
Y64051D01*
Y64233D01*
X244739Y64488D01*
Y64762D01*
X244776Y65035D01*
X244794Y65308D01*
X244830Y65563D01*
Y65600D01*
X244849Y65673D01*
X244885Y65800D01*
X244940Y65946D01*
X245013Y66128D01*
X245104Y66347D01*
X245213Y66566D01*
X245359Y66784D01*
X245377Y66802D01*
X245432Y66875D01*
X245541Y66985D01*
X245669Y67130D01*
X245832Y67276D01*
X246015Y67422D01*
X246233Y67568D01*
X246488Y67695D01*
X246525Y67713D01*
X246616Y67750D01*
X246762Y67786D01*
X246962Y67859D01*
X247199Y67914D01*
X247472Y67950D01*
X247800Y67987D01*
X248147Y68005D01*
X248329D01*
X248456Y67987D01*
D02*
G37*
G36*
X257001D02*
X257256Y67950D01*
X257548Y67914D01*
X257858Y67841D01*
X258186Y67750D01*
X258495Y67622D01*
X258514D01*
X258532Y67604D01*
X258641Y67549D01*
X258787Y67476D01*
X258969Y67367D01*
X259170Y67240D01*
X259370Y67094D01*
X259570Y66912D01*
X259734Y66729D01*
X259753Y66711D01*
X259807Y66638D01*
X259880Y66529D01*
X259971Y66383D01*
X260062Y66201D01*
X260153Y66001D01*
X260226Y65782D01*
X260299Y65545D01*
Y65509D01*
X260317Y65418D01*
X260354Y65254D01*
X260372Y65035D01*
X260408Y64744D01*
X260427Y64379D01*
Y64161D01*
X260445Y63942D01*
Y63705D01*
Y63432D01*
Y59186D01*
Y59168D01*
Y59132D01*
Y59041D01*
Y58950D01*
Y58840D01*
Y58694D01*
X260427Y58385D01*
X260408Y58039D01*
X260372Y57692D01*
X260336Y57364D01*
X260281Y57073D01*
Y57037D01*
X260244Y56964D01*
X260208Y56836D01*
X260135Y56672D01*
X260044Y56490D01*
X259935Y56271D01*
X259789Y56053D01*
X259625Y55834D01*
X259607Y55816D01*
X259534Y55743D01*
X259425Y55633D01*
X259297Y55524D01*
X259115Y55378D01*
X258914Y55251D01*
X258678Y55123D01*
X258422Y55014D01*
X258386Y54996D01*
X258295Y54978D01*
X258168Y54941D01*
X257967Y54905D01*
X257748Y54850D01*
X257475Y54814D01*
X257184Y54795D01*
X256874Y54777D01*
X256692D01*
X256473Y54795D01*
X256200Y54814D01*
X255908Y54832D01*
X255580Y54887D01*
X255271Y54941D01*
X254961Y55032D01*
X254924Y55050D01*
X254833Y55087D01*
X254706Y55142D01*
X254523Y55233D01*
X254341Y55342D01*
X254141Y55488D01*
X253940Y55652D01*
X253758Y55852D01*
X253740Y55870D01*
X253685Y55943D01*
X253612Y56071D01*
X253521Y56217D01*
X253412Y56399D01*
X253321Y56599D01*
X253212Y56800D01*
X253139Y57037D01*
Y57073D01*
X253102Y57146D01*
X253084Y57310D01*
X253048Y57510D01*
X253011Y57784D01*
X252993Y58130D01*
X252957Y58512D01*
Y58986D01*
Y63432D01*
Y63450D01*
Y63505D01*
Y63596D01*
Y63723D01*
X252975Y63869D01*
Y64033D01*
X252993Y64434D01*
X253029Y64853D01*
X253084Y65290D01*
X253157Y65709D01*
X253193Y65891D01*
X253248Y66074D01*
Y66092D01*
X253266Y66110D01*
X253303Y66219D01*
X253394Y66383D01*
X253521Y66584D01*
X253685Y66802D01*
X253886Y67039D01*
X254141Y67258D01*
X254451Y67476D01*
X254469D01*
X254487Y67495D01*
X254542Y67531D01*
X254615Y67568D01*
X254797Y67641D01*
X255052Y67750D01*
X255380Y67841D01*
X255744Y67932D01*
X256163Y67987D01*
X256637Y68005D01*
X256819D01*
X257001Y67987D01*
D02*
G37*
G36*
X66623Y263720D02*
X66628Y263709D01*
X66634Y263693D01*
X66640Y263671D01*
X66651Y263637D01*
X66662Y263604D01*
X66684Y263521D01*
X66706Y263421D01*
X66734Y263310D01*
X66756Y263193D01*
X66773Y263071D01*
X66778Y263077D01*
X66800Y263099D01*
X66834Y263138D01*
X66884Y263188D01*
X66956Y263254D01*
X67039Y263327D01*
X67145Y263421D01*
X67267Y263521D01*
X67483Y263210D01*
X67472Y263204D01*
X67444Y263182D01*
X67400Y263149D01*
X67339Y263104D01*
X67256Y263054D01*
X67161Y262993D01*
X67050Y262921D01*
X66928Y262849D01*
X66934D01*
X66945Y262844D01*
X66961Y262832D01*
X66989Y262816D01*
X67056Y262783D01*
X67133Y262738D01*
X67222Y262683D01*
X67317Y262627D01*
X67405Y262566D01*
X67483Y262511D01*
X67267Y262205D01*
X67261Y262211D01*
X67250Y262216D01*
X67233Y262233D01*
X67206Y262255D01*
X67139Y262305D01*
X67061Y262372D01*
X66978Y262444D01*
X66900Y262516D01*
X66828Y262583D01*
X66795Y262611D01*
X66773Y262638D01*
Y262633D01*
X66767Y262622D01*
Y262605D01*
X66762Y262583D01*
X66756Y262549D01*
X66745Y262516D01*
X66728Y262433D01*
X66706Y262333D01*
X66684Y262228D01*
X66623Y262000D01*
X66251Y262117D01*
Y262122D01*
X66256Y262133D01*
X66268Y262155D01*
X66273Y262183D01*
X66290Y262216D01*
X66307Y262261D01*
X66340Y262350D01*
X66379Y262450D01*
X66423Y262549D01*
X66467Y262644D01*
X66506Y262721D01*
X66501D01*
X66484D01*
X66462Y262716D01*
X66429D01*
X66390Y262710D01*
X66345Y262705D01*
X66245Y262699D01*
X66140Y262688D01*
X66029Y262677D01*
X65935Y262671D01*
X65890D01*
X65851D01*
Y263049D01*
X65857D01*
X65863D01*
X65879D01*
X65896D01*
X65957Y263043D01*
X66029Y263038D01*
X66123Y263027D01*
X66240Y263021D01*
X66368Y263005D01*
X66506Y262988D01*
Y262993D01*
X66501Y262999D01*
X66495Y263016D01*
X66484Y263038D01*
X66456Y263093D01*
X66423Y263165D01*
X66384Y263254D01*
X66340Y263360D01*
X66295Y263476D01*
X66251Y263604D01*
X66623Y263726D01*
Y263720D01*
D02*
G37*
G36*
X55222Y263913D02*
X55228Y263902D01*
X55234Y263885D01*
X55239Y263863D01*
X55250Y263830D01*
X55261Y263796D01*
X55284Y263713D01*
X55306Y263613D01*
X55334Y263502D01*
X55356Y263386D01*
X55372Y263264D01*
X55378Y263269D01*
X55400Y263291D01*
X55433Y263330D01*
X55483Y263380D01*
X55555Y263447D01*
X55639Y263519D01*
X55744Y263613D01*
X55866Y263713D01*
X56083Y263402D01*
X56072Y263397D01*
X56044Y263375D01*
X55999Y263341D01*
X55939Y263297D01*
X55855Y263247D01*
X55761Y263186D01*
X55650Y263114D01*
X55528Y263042D01*
X55533D01*
X55544Y263036D01*
X55561Y263025D01*
X55589Y263008D01*
X55655Y262975D01*
X55733Y262931D01*
X55822Y262875D01*
X55916Y262820D01*
X56005Y262759D01*
X56083Y262703D01*
X55866Y262398D01*
X55861Y262403D01*
X55850Y262409D01*
X55833Y262426D01*
X55805Y262448D01*
X55739Y262498D01*
X55661Y262564D01*
X55578Y262636D01*
X55500Y262709D01*
X55428Y262775D01*
X55395Y262803D01*
X55372Y262831D01*
Y262825D01*
X55367Y262814D01*
Y262797D01*
X55361Y262775D01*
X55356Y262742D01*
X55345Y262709D01*
X55328Y262625D01*
X55306Y262526D01*
X55284Y262420D01*
X55222Y262193D01*
X54851Y262309D01*
Y262315D01*
X54856Y262326D01*
X54867Y262348D01*
X54873Y262376D01*
X54890Y262409D01*
X54906Y262453D01*
X54939Y262542D01*
X54978Y262642D01*
X55023Y262742D01*
X55067Y262836D01*
X55106Y262914D01*
X55100D01*
X55084D01*
X55062Y262908D01*
X55028D01*
X54989Y262903D01*
X54945Y262897D01*
X54845Y262892D01*
X54740Y262881D01*
X54629Y262870D01*
X54534Y262864D01*
X54490D01*
X54451D01*
Y263241D01*
X54457D01*
X54462D01*
X54479D01*
X54496D01*
X54557Y263236D01*
X54629Y263230D01*
X54723Y263219D01*
X54839Y263214D01*
X54967Y263197D01*
X55106Y263180D01*
Y263186D01*
X55100Y263192D01*
X55095Y263208D01*
X55084Y263230D01*
X55056Y263286D01*
X55023Y263358D01*
X54984Y263447D01*
X54939Y263552D01*
X54895Y263669D01*
X54851Y263796D01*
X55222Y263918D01*
Y263913D01*
D02*
G37*
%LPC*%
G36*
X289542Y81397D02*
X289342D01*
Y78572D01*
X289524D01*
X289652Y78591D01*
X289907Y78627D01*
X290034Y78664D01*
X290125Y78718D01*
X290144D01*
X290162Y78755D01*
X290198Y78809D01*
X290253Y78900D01*
X290289Y79028D01*
X290326Y79192D01*
X290344Y79429D01*
X290362Y79702D01*
Y80413D01*
Y80431D01*
Y80504D01*
X290344Y80613D01*
X290326Y80741D01*
X290271Y80996D01*
X290198Y81105D01*
X290125Y81196D01*
X290107Y81214D01*
X290089Y81233D01*
X290034Y81269D01*
X289943Y81305D01*
X289834Y81342D01*
X289706Y81360D01*
X289542Y81397D01*
D02*
G37*
G36*
X281471D02*
X281252D01*
Y78153D01*
X281562D01*
X281635Y78172D01*
X281744Y78190D01*
X281944Y78245D01*
X282054Y78299D01*
X282127Y78372D01*
Y78390D01*
X282163Y78427D01*
X282181Y78481D01*
X282218Y78572D01*
X282254Y78700D01*
X282273Y78864D01*
X282309Y79064D01*
Y79301D01*
Y80340D01*
Y80376D01*
Y80449D01*
X282291Y80559D01*
Y80686D01*
X282218Y80977D01*
X282163Y81105D01*
X282090Y81196D01*
X282072Y81214D01*
X282054Y81233D01*
X281999Y81269D01*
X281908Y81305D01*
X281799Y81342D01*
X281653Y81360D01*
X281471Y81397D01*
D02*
G37*
G36*
X254596Y80741D02*
Y80722D01*
Y80704D01*
X254578Y80650D01*
Y80577D01*
X254542Y80395D01*
X254523Y80139D01*
X254487Y79830D01*
X254432Y79483D01*
X254378Y79101D01*
X254341Y78700D01*
X254287Y78263D01*
X254232Y77807D01*
X254123Y76933D01*
X254068Y76495D01*
X254031Y76095D01*
X253995Y75712D01*
X253959Y75384D01*
X255088D01*
Y75402D01*
X255070Y75475D01*
Y75603D01*
X255052Y75767D01*
X255034Y75985D01*
X254997Y76240D01*
X254979Y76532D01*
X254942Y76860D01*
X254906Y77224D01*
X254870Y77643D01*
X254815Y78081D01*
X254779Y78554D01*
X254742Y79064D01*
X254687Y79593D01*
X254651Y80158D01*
X254596Y80741D01*
D02*
G37*
G36*
X314722Y81688D02*
X314686D01*
X314577Y81670D01*
X314449Y81597D01*
X314376Y81542D01*
X314321Y81470D01*
Y81451D01*
X314303Y81415D01*
X314285Y81360D01*
X314267Y81251D01*
X314230Y81087D01*
X314212Y80887D01*
X314194Y80613D01*
Y80467D01*
Y80285D01*
Y74327D01*
Y74309D01*
Y74273D01*
Y74218D01*
Y74145D01*
Y73963D01*
X314212Y73744D01*
Y73507D01*
X314230Y73289D01*
X314249Y73088D01*
Y73015D01*
X314267Y72961D01*
Y72943D01*
X314285Y72924D01*
X314358Y72833D01*
X314413Y72778D01*
X314486Y72742D01*
X314595Y72724D01*
X314704Y72706D01*
X314759D01*
X314886Y72742D01*
X314959Y72778D01*
X315014Y72833D01*
X315087Y72906D01*
X315123Y72997D01*
Y73015D01*
X315141Y73070D01*
X315160Y73143D01*
X315178Y73289D01*
X315196Y73471D01*
X315214Y73726D01*
X315232Y74036D01*
Y74218D01*
Y74418D01*
Y80285D01*
Y80303D01*
Y80322D01*
Y80431D01*
Y80577D01*
X315214Y80759D01*
Y80959D01*
X315196Y81142D01*
X315160Y81305D01*
X315123Y81433D01*
Y81451D01*
X315105Y81470D01*
X315032Y81561D01*
X314923Y81652D01*
X314832Y81670D01*
X314722Y81688D01*
D02*
G37*
G36*
X298470D02*
X298434D01*
X298324Y81670D01*
X298197Y81597D01*
X298124Y81542D01*
X298069Y81470D01*
Y81451D01*
X298051Y81415D01*
X298033Y81360D01*
X298015Y81251D01*
X297978Y81087D01*
X297960Y80887D01*
X297942Y80613D01*
Y80467D01*
Y80285D01*
Y74327D01*
Y74309D01*
Y74273D01*
Y74218D01*
Y74145D01*
Y73963D01*
X297960Y73744D01*
Y73507D01*
X297978Y73289D01*
X297996Y73088D01*
Y73015D01*
X298015Y72961D01*
Y72943D01*
X298033Y72924D01*
X298106Y72833D01*
X298160Y72778D01*
X298233Y72742D01*
X298342Y72724D01*
X298452Y72706D01*
X298506D01*
X298634Y72742D01*
X298707Y72778D01*
X298762Y72833D01*
X298834Y72906D01*
X298871Y72997D01*
Y73015D01*
X298889Y73070D01*
X298907Y73143D01*
X298926Y73289D01*
X298944Y73471D01*
X298962Y73726D01*
X298980Y74036D01*
Y74218D01*
Y74418D01*
Y80285D01*
Y80303D01*
Y80322D01*
Y80431D01*
Y80577D01*
X298962Y80759D01*
Y80959D01*
X298944Y81142D01*
X298907Y81305D01*
X298871Y81433D01*
Y81451D01*
X298853Y81470D01*
X298780Y81561D01*
X298671Y81652D01*
X298579Y81670D01*
X298470Y81688D01*
D02*
G37*
G36*
X271541Y66037D02*
X271504D01*
X271413Y66019D01*
X271286Y65946D01*
X271195Y65891D01*
X271122Y65819D01*
Y65800D01*
X271085Y65782D01*
X271067Y65709D01*
X271031Y65618D01*
X270994Y65472D01*
X270958Y65290D01*
X270940Y65035D01*
X270921Y64744D01*
Y62357D01*
Y62320D01*
Y62229D01*
X270940Y62102D01*
Y61938D01*
X270976Y61774D01*
X271013Y61610D01*
X271049Y61464D01*
X271122Y61373D01*
X271140D01*
X271158Y61336D01*
X271249Y61282D01*
X271377Y61227D01*
X271541Y61191D01*
X271596D01*
X271650Y61209D01*
X271723Y61227D01*
X271887Y61300D01*
X271960Y61355D01*
X272015Y61427D01*
Y61446D01*
X272033Y61482D01*
X272069Y61537D01*
X272106Y61628D01*
X272124Y61755D01*
X272160Y61919D01*
X272179Y62120D01*
Y62357D01*
Y64671D01*
Y64689D01*
Y64707D01*
Y64798D01*
Y64944D01*
X272160Y65126D01*
X272142Y65308D01*
X272124Y65491D01*
X272088Y65636D01*
X272033Y65764D01*
Y65782D01*
X271996Y65800D01*
X271923Y65910D01*
X271760Y66001D01*
X271669Y66019D01*
X271541Y66037D01*
D02*
G37*
G36*
X307689Y64835D02*
X306268Y59423D01*
X307689D01*
Y64835D01*
D02*
G37*
G36*
X256710Y66037D02*
X256655D01*
X256600Y66019D01*
X256528Y66001D01*
X256455Y65964D01*
X256364Y65928D01*
X256309Y65855D01*
X256254Y65764D01*
Y65746D01*
X256236Y65709D01*
X256218Y65618D01*
X256200Y65509D01*
X256182Y65345D01*
X256163Y65126D01*
X256145Y64853D01*
Y64507D01*
Y58294D01*
Y58275D01*
Y58239D01*
Y58184D01*
Y58111D01*
Y57929D01*
X256163Y57711D01*
Y57492D01*
X256182Y57273D01*
X256200Y57091D01*
X256218Y57018D01*
X256236Y56964D01*
X256254Y56927D01*
X256327Y56854D01*
X256400Y56818D01*
X256473Y56781D01*
X256582Y56763D01*
X256692Y56745D01*
X256746D01*
X256801Y56763D01*
X256874Y56781D01*
X257038Y56854D01*
X257092Y56909D01*
X257147Y57000D01*
Y57018D01*
X257165Y57055D01*
X257184Y57128D01*
X257202Y57255D01*
X257220Y57419D01*
X257238Y57620D01*
X257256Y57893D01*
Y58202D01*
Y64507D01*
Y64525D01*
Y64543D01*
Y64598D01*
Y64671D01*
Y64835D01*
X257238Y65035D01*
Y65254D01*
X257220Y65454D01*
X257184Y65636D01*
X257147Y65764D01*
Y65782D01*
X257129Y65800D01*
X257056Y65910D01*
X257001Y65946D01*
X256928Y66001D01*
X256837Y66019D01*
X256710Y66037D01*
D02*
G37*
%LPD*%
D10*
X332382Y133000D02*
G03*
X332382Y133000I-492J0D01*
G01*
X281713Y162685D02*
G03*
X281713Y162685I-492J0D01*
G01*
X150301Y170488D02*
G03*
X150301Y170488I-492J0D01*
G01*
X150801Y148988D02*
G03*
X150801Y148988I-492J0D01*
G01*
X150301Y127988D02*
G03*
X150301Y127988I-492J0D01*
G01*
Y106488D02*
G03*
X150301Y106488I-492J0D01*
G01*
Y85988D02*
G03*
X150301Y85988I-492J0D01*
G01*
Y65488D02*
G03*
X150301Y65488I-492J0D01*
G01*
Y44988D02*
G03*
X150301Y44988I-492J0D01*
G01*
Y23988D02*
G03*
X150301Y23988I-492J0D01*
G01*
X149792Y189438D02*
G03*
X149792Y189438I-492J0D01*
G01*
X150039Y222294D02*
G03*
X150039Y222294I-492J0D01*
G01*
D11*
X279351Y154516D02*
G03*
X279351Y154516I-1181J0D01*
G01*
D12*
X80496Y50744D02*
Y229744D01*
X-4Y50744D02*
X80496D01*
X-4D02*
Y229744D01*
X80496D01*
D13*
X243753Y173279D02*
Y174460D01*
Y173279D02*
X254776D01*
Y174460D01*
Y177609D02*
Y178791D01*
X243753D02*
X254776D01*
X243753Y177609D02*
Y178791D01*
X249265Y173279D02*
Y178791D01*
X334709Y140638D02*
X335890D01*
X334709Y129614D02*
Y140638D01*
Y129614D02*
X335890D01*
X339039D02*
X340220D01*
Y140638D01*
X339039D02*
X340220D01*
X334709Y135126D02*
X340220D01*
X311646Y160488D02*
X312402D01*
Y170488D01*
X311646D02*
X312402D01*
X306890D02*
X307646D01*
X306890Y160488D02*
Y170488D01*
Y160488D02*
X307646D01*
X306890Y165488D02*
X312402D01*
X297151Y160488D02*
X297907D01*
Y170488D01*
X297151D02*
X297907D01*
X292395D02*
X293151D01*
X292395Y160488D02*
Y170488D01*
Y160488D02*
X293151D01*
X292395Y165488D02*
X297907D01*
X127089Y183009D02*
Y188521D01*
X122089Y187765D02*
Y188521D01*
X132089D01*
Y187765D02*
Y188521D01*
Y183009D02*
Y183765D01*
X122089Y183009D02*
X132089D01*
X122089D02*
Y183765D01*
X152077Y190851D02*
Y192033D01*
Y190851D02*
X163101D01*
Y192033D01*
Y195182D02*
Y196363D01*
X152077D02*
X163101D01*
X152077Y195182D02*
Y196363D01*
X157589Y190851D02*
Y196363D01*
X139664Y177596D02*
X140845D01*
Y188619D01*
X139664D02*
X140845D01*
X135333D02*
X136514D01*
X135333Y177596D02*
Y188619D01*
Y177596D02*
X136514D01*
X135333Y183107D02*
X140845D01*
X175488Y194744D02*
Y195925D01*
Y194744D02*
X186512D01*
Y195925D01*
Y199075D02*
Y200256D01*
X175488D02*
X186512D01*
X175488Y199075D02*
Y200256D01*
X181000Y194744D02*
Y200256D01*
X162589Y203107D02*
Y203863D01*
X152589D02*
X162589D01*
X152589Y203107D02*
Y203863D01*
Y198352D02*
Y199107D01*
Y198352D02*
X162589D01*
Y199107D01*
X157589Y198352D02*
Y203863D01*
X149730Y193215D02*
X150486D01*
Y203215D01*
X149730D02*
X150486D01*
X144974D02*
X145730D01*
X144974Y193215D02*
Y203215D01*
Y193215D02*
X145730D01*
X144974Y198215D02*
X150486D01*
X175735Y227600D02*
Y228781D01*
Y227600D02*
X186759D01*
Y228781D01*
Y231931D02*
Y233112D01*
X175735D02*
X186759D01*
X175735Y231931D02*
Y233112D01*
X181247Y227600D02*
Y233112D01*
X162836Y235963D02*
Y236719D01*
X152836D02*
X162836D01*
X152836Y235963D02*
Y236719D01*
Y231207D02*
Y231963D01*
Y231207D02*
X162836D01*
Y231963D01*
X157836Y231207D02*
Y236719D01*
X152324Y223707D02*
Y224888D01*
Y223707D02*
X163348D01*
Y224888D01*
Y228038D02*
Y229219D01*
X152324D02*
X163348D01*
X152324Y228038D02*
Y229219D01*
X157836Y223707D02*
Y229219D01*
X149977Y226071D02*
X150733D01*
Y236071D01*
X149977D02*
X150733D01*
X145221D02*
X145977D01*
X145221Y226071D02*
Y236071D01*
Y226071D02*
X145977D01*
X145221Y231071D02*
X150733D01*
X139911Y210452D02*
X141092D01*
Y221475D01*
X139911D02*
X141092D01*
X135580D02*
X136761D01*
X135580Y210452D02*
Y221475D01*
Y210452D02*
X136761D01*
X135580Y215963D02*
X141092D01*
X122336Y215865D02*
Y216621D01*
Y215865D02*
X132336D01*
Y216621D01*
Y220621D02*
Y221377D01*
X122336D02*
X132336D01*
X122336Y220621D02*
Y221377D01*
X127336Y215865D02*
Y221377D01*
D14*
X68259Y247898D02*
Y264000D01*
X75259D01*
Y247898D02*
Y264000D01*
X68259Y247898D02*
X75259D01*
X245296Y158453D02*
X282107D01*
X245296Y121642D02*
X282107D01*
Y158453D01*
X245296Y121642D02*
Y158453D01*
X153571Y157555D02*
X162626D01*
X153571Y169760D02*
X162626D01*
Y157555D02*
Y169760D01*
X153571Y157555D02*
Y169760D01*
X154071Y136055D02*
X163126D01*
X154071Y148259D02*
X163126D01*
Y136055D02*
Y148259D01*
X154071Y136055D02*
Y148259D01*
X153571Y115055D02*
X162626D01*
X153571Y127260D02*
X162626D01*
Y115055D02*
Y127260D01*
X153571Y115055D02*
Y127260D01*
Y93555D02*
X162626D01*
X153571Y105760D02*
X162626D01*
Y93555D02*
Y105760D01*
X153571Y93555D02*
Y105760D01*
Y73055D02*
X162626D01*
X153571Y85259D02*
X162626D01*
Y73055D02*
Y85259D01*
X153571Y73055D02*
Y85259D01*
Y52555D02*
X162626D01*
X153571Y64759D02*
X162626D01*
Y52555D02*
Y64759D01*
X153571Y52555D02*
Y64759D01*
Y32055D02*
X162626D01*
X153571Y44260D02*
X162626D01*
Y32055D02*
Y44260D01*
X153571Y32055D02*
Y44260D01*
Y11055D02*
Y23259D01*
X162626Y11055D02*
Y23259D01*
X153571D02*
X162626D01*
X153571Y11055D02*
X162626D01*
X56858Y248090D02*
Y264193D01*
X63858D01*
Y248090D02*
Y264193D01*
X56858Y248090D02*
X63858D01*
X153061Y176505D02*
X162117D01*
X153061Y188710D02*
X162117D01*
Y176505D02*
Y188710D01*
X153061Y176505D02*
Y188710D01*
X153308Y209361D02*
X162364D01*
X153308Y221566D02*
X162364D01*
Y209361D02*
Y221566D01*
X153308Y209361D02*
Y221566D01*
M02*
