M48
;Layer_Color=9474304
;FILE_FORMAT=2:5
INCH,TZ
;TYPE=PLATED
T1F00S00C0.01500
T2F00S00C0.02000
T3F00S00C0.05118
T4F00S00C0.13780
;TYPE=NON_PLATED
T5F00S00C0.03937
T6F00S00C0.12992
%
T01
X145000Y10259
X144000Y22436
X145000Y31259
X144000Y43436
X145000Y51759
X144000Y63936
X145000Y72259
X144000Y84436
X145000Y92759
X144000Y104936
X145000Y114259
X144000Y126436
X145500Y135259
X167051Y134212
X173051Y138205
X179000Y130929
X173469Y122437
X172551Y117205
X166551Y113212
X180575Y111345
X173469Y100937
X172551Y95705
X166551Y91712
X180138Y90807
X173469Y80437
X172551Y75205
X166551Y71212
X180000Y70000
X173469Y59937
X172551Y54705
X166551Y50712
X179000Y50876
X173469Y39437
X172551Y34205
X166551Y30212
X181362Y29685
X173469Y18437
X172551Y13205
X166551Y9212
X261510Y125193
X267500Y125284
X299323Y135047
X301370Y139047
X344500Y138079
Y133000
X301197Y152047
X295323Y157047
X295151Y174083
X309465
X297500Y220500
X286166Y237516
X252666
X253000Y221574
X251922Y182397
X229500Y175997
X196000Y188619
X174697Y183887
X174898Y170941
X173469Y164937
X172551Y159705
X166551Y155712
X180925Y151445
X173969Y143437
X144500Y147436
X145000Y156759
X144000Y168936
X130864Y180450
X143885Y195076
X155030Y185167
X159112Y185359
X159359Y218215
X155277Y218022
X144132Y227932
X131111Y213306
X179130Y220728
X184984Y258898
X266654Y156878
X260749Y145535
X88000Y170775
Y190500
X87500Y203107
Y220000
X60031Y246193
X53000Y244500
X48232Y249500
X60435Y267051
X26500Y224801
X30000Y192000
T02
X278465Y191370
X260000Y192000
X274473Y207627
X275500Y257000
X263701Y256183
X115850Y253339
X80500Y259740
X72000Y267500
X66791Y247500
X26000Y264921
T03
X39000Y92756
Y104567
Y116378
Y128189
X48842Y122283
X60654
Y110472
X48842
Y98661
X60654
X70496Y104567
Y116378
Y128189
X60654Y134095
X48842
X70496Y92756
Y140000
Y151811
Y163622
Y175433
Y187244
X60654Y181339
Y169528
X48842
Y181339
X39000Y175433
Y163622
Y151811
Y140000
X48842Y145905
X60654
Y157717
X48842
X39000Y187244
T04
X30000Y30000
X320000
Y250000
X30000
T05
X317323Y135500
Y150500
T06
X13409Y64213
Y215787
M30
