G04*
G04 #@! TF.GenerationSoftware,Altium Limited,Altium Designer,19.1.8 (144)*
G04*
G04 Layer_Color=255*
%FSLAX25Y25*%
%MOIN*%
G70*
G01*
G75*
%ADD15R,0.03543X0.03937*%
%ADD18R,0.03937X0.03543*%
%ADD19R,0.03740X0.03347*%
%ADD23R,0.03347X0.03740*%
%ADD44C,0.08661*%
%ADD45C,0.12992*%
%ADD46C,0.19685*%
%ADD49O,0.05709X0.02362*%
%ADD50R,0.07874X0.14961*%
%ADD51R,0.07874X0.05906*%
%ADD52R,0.14961X0.07874*%
%ADD53R,0.05906X0.07874*%
%ADD54R,0.03543X0.03150*%
%ADD55R,0.05315X0.04528*%
%ADD56R,0.05315X0.05709*%
%ADD57O,0.02362X0.05709*%
%ADD58R,0.05512X0.05118*%
%ADD59R,0.04921X0.03740*%
%ADD60R,0.07480X0.03543*%
%ADD61R,0.04528X0.05315*%
%ADD62R,0.07087X0.03937*%
D15*
X272264Y189500D02*
D03*
X266949D02*
D03*
X253351Y229016D02*
D03*
X258666D02*
D03*
X160493Y213495D02*
D03*
X155178D02*
D03*
X160246Y180639D02*
D03*
X154931D02*
D03*
X220581Y33299D02*
D03*
X225896D02*
D03*
X261044Y131858D02*
D03*
X266359D02*
D03*
D18*
X81696Y64150D02*
D03*
Y58835D02*
D03*
X203000Y14286D02*
D03*
Y19601D02*
D03*
X246636Y18641D02*
D03*
Y23956D02*
D03*
X39603Y55988D02*
D03*
Y61303D02*
D03*
X266654Y145343D02*
D03*
Y150657D02*
D03*
X155000Y14500D02*
D03*
Y19815D02*
D03*
Y40815D02*
D03*
Y35500D02*
D03*
Y102315D02*
D03*
Y97000D02*
D03*
Y123815D02*
D03*
Y118500D02*
D03*
Y81815D02*
D03*
Y76500D02*
D03*
Y61315D02*
D03*
Y56000D02*
D03*
X155500Y144815D02*
D03*
Y139500D02*
D03*
X155000Y166315D02*
D03*
Y161000D02*
D03*
D19*
X160953Y14598D02*
D03*
Y19716D02*
D03*
Y40716D02*
D03*
Y35598D02*
D03*
Y102216D02*
D03*
Y97098D02*
D03*
Y123716D02*
D03*
Y118598D02*
D03*
Y81716D02*
D03*
Y76598D02*
D03*
Y61216D02*
D03*
Y56098D02*
D03*
X161453Y144716D02*
D03*
Y139598D02*
D03*
X160953Y166216D02*
D03*
Y161098D02*
D03*
D23*
X264162Y237564D02*
D03*
X275544D02*
D03*
X259044D02*
D03*
X280662D02*
D03*
X286142Y220500D02*
D03*
X291261D02*
D03*
X155992Y8685D02*
D03*
X161110D02*
D03*
X155992Y29685D02*
D03*
X161110D02*
D03*
X155992Y91185D02*
D03*
X161110D02*
D03*
X155992Y112685D02*
D03*
X161110D02*
D03*
X155992Y70685D02*
D03*
X161110D02*
D03*
X155992Y50185D02*
D03*
X161110D02*
D03*
X156492Y133685D02*
D03*
X161610D02*
D03*
X155992Y155185D02*
D03*
X161110D02*
D03*
D44*
X70496Y92756D02*
D03*
Y104567D02*
D03*
Y116378D02*
D03*
Y128189D02*
D03*
Y140000D02*
D03*
Y151811D02*
D03*
Y163622D02*
D03*
Y175433D02*
D03*
Y187244D02*
D03*
X60654Y110472D02*
D03*
Y122283D02*
D03*
Y134095D02*
D03*
Y145905D02*
D03*
Y157717D02*
D03*
Y169528D02*
D03*
Y181339D02*
D03*
X48842Y110472D02*
D03*
Y122283D02*
D03*
Y134095D02*
D03*
Y145905D02*
D03*
Y157717D02*
D03*
X39000Y92756D02*
D03*
Y104567D02*
D03*
Y116378D02*
D03*
Y128189D02*
D03*
Y140000D02*
D03*
Y151811D02*
D03*
Y163622D02*
D03*
Y175433D02*
D03*
Y187244D02*
D03*
X60654Y98661D02*
D03*
X48842D02*
D03*
Y181339D02*
D03*
Y169528D02*
D03*
D45*
X13409Y215787D02*
D03*
Y64213D02*
D03*
D46*
X30000Y30000D02*
D03*
Y250000D02*
D03*
X320000Y30000D02*
D03*
Y250000D02*
D03*
D49*
X233966Y23641D02*
D03*
Y18641D02*
D03*
Y13641D02*
D03*
Y8641D02*
D03*
X212510Y23641D02*
D03*
Y18641D02*
D03*
Y13641D02*
D03*
Y8641D02*
D03*
D50*
X230402Y247524D02*
D03*
D51*
X205598Y256580D02*
D03*
Y247524D02*
D03*
Y238469D02*
D03*
D52*
X61338Y9756D02*
D03*
D53*
X70393Y34559D02*
D03*
X61338D02*
D03*
X52283D02*
D03*
D54*
X36634Y203634D02*
D03*
X28760Y199894D02*
D03*
Y207374D02*
D03*
D55*
X71289Y241445D02*
D03*
Y234555D02*
D03*
X71500Y252555D02*
D03*
Y259445D02*
D03*
D56*
X59807Y234500D02*
D03*
X48193D02*
D03*
D57*
X267000Y220728D02*
D03*
X272000D02*
D03*
X277000Y199272D02*
D03*
X272000D02*
D03*
X267000D02*
D03*
X262000D02*
D03*
X277000Y220728D02*
D03*
X262000D02*
D03*
D58*
X132682Y257716D02*
D03*
Y264016D02*
D03*
X145301Y247083D02*
D03*
Y253382D02*
D03*
D59*
X21000Y148322D02*
D03*
Y142220D02*
D03*
D60*
X18500Y174937D02*
D03*
Y192063D02*
D03*
D61*
X30055Y218378D02*
D03*
X36945D02*
D03*
D62*
X48331Y196089D02*
D03*
Y207112D02*
D03*
M02*
