%TF.GenerationSoftware,Altium Limited,Altium Designer,18.1.7 (191)*%
G04 Layer_Color=8388736*
%FSLAX26Y26*%
%MOIN*%
%TF.FileFunction,Soldermask,Top*%
%TF.Part,Single*%
G01*
G75*
%TA.AperFunction,ViaPad*%
%ADD35C,0.258000*%
%TA.AperFunction,ComponentPad*%
%ADD36C,0.094614*%
%ADD37C,0.137921*%
%ADD38C,0.106425*%
%ADD39C,0.086740*%
%ADD40C,0.074929*%
%TA.AperFunction,ViaPad*%
%ADD41C,0.058000*%
%TA.AperFunction,SMDPad,CuDef*%
%ADD43R,0.059181X0.051307*%
%ADD44R,0.061150X0.053276*%
%ADD45R,0.193039X0.189102*%
%ADD46R,0.035559X0.053276*%
%ADD47R,0.053276X0.061150*%
%ADD48R,0.171386X0.200913*%
%ADD49R,0.065087X0.059181*%
%ADD50R,0.065087X0.061150*%
D35*
X4700000Y300000D02*
D03*
X300000D02*
D03*
Y4700000D02*
D03*
X4700000D02*
D03*
D36*
X728346Y2253937D02*
D03*
Y2372047D02*
D03*
Y2490157D02*
D03*
Y2608268D02*
D03*
Y2726378D02*
D03*
Y2844488D02*
D03*
Y2962598D02*
D03*
Y3080709D02*
D03*
Y3198819D02*
D03*
X629921Y2312992D02*
D03*
Y2431102D02*
D03*
Y2549213D02*
D03*
Y2667323D02*
D03*
Y2785433D02*
D03*
Y2903543D02*
D03*
Y3021653D02*
D03*
Y3139764D02*
D03*
X511811Y2312992D02*
D03*
Y2431102D02*
D03*
Y2549213D02*
D03*
Y2667323D02*
D03*
Y2785433D02*
D03*
Y2903543D02*
D03*
Y3021653D02*
D03*
Y3139764D02*
D03*
X413386Y2253937D02*
D03*
Y2372047D02*
D03*
Y2490157D02*
D03*
Y2608268D02*
D03*
Y2726378D02*
D03*
Y2844488D02*
D03*
Y2962598D02*
D03*
Y3080709D02*
D03*
Y3198819D02*
D03*
Y1683071D02*
D03*
Y1564961D02*
D03*
Y1446850D02*
D03*
Y1328740D02*
D03*
Y1210630D02*
D03*
Y1092520D02*
D03*
Y974409D02*
D03*
X511811Y1624016D02*
D03*
Y1505906D02*
D03*
Y1387795D02*
D03*
Y1269685D02*
D03*
Y1151575D02*
D03*
Y1033465D02*
D03*
X629921Y1624016D02*
D03*
Y1505906D02*
D03*
Y1387795D02*
D03*
Y1269685D02*
D03*
Y1151575D02*
D03*
Y1033465D02*
D03*
X728346Y1683071D02*
D03*
Y1564961D02*
D03*
Y1446850D02*
D03*
Y1328740D02*
D03*
Y1210630D02*
D03*
Y1092520D02*
D03*
Y974409D02*
D03*
D37*
X157480Y688976D02*
D03*
Y1968504D02*
D03*
Y3484252D02*
D03*
D38*
X2317207Y1989824D02*
D03*
X2342798Y2363840D02*
D03*
X2193192Y2226045D02*
D03*
X1602873Y1989824D02*
D03*
X1628464Y2363840D02*
D03*
X1478857Y2226045D02*
D03*
X1935039Y1989824D02*
D03*
X1960630Y2363840D02*
D03*
X1811024Y2226045D02*
D03*
D39*
X2147916Y2580376D02*
D03*
X2317207D02*
D03*
X1433582D02*
D03*
X1602873D02*
D03*
X1765748D02*
D03*
X1935039D02*
D03*
D40*
X2242637Y1712659D02*
D03*
Y1322108D02*
D03*
X2108778Y1712659D02*
D03*
Y1322108D02*
D03*
X1612716Y1712659D02*
D03*
Y1322108D02*
D03*
X1478857Y1712659D02*
D03*
Y1322108D02*
D03*
X1927676Y1712659D02*
D03*
Y1322108D02*
D03*
X1793818Y1712659D02*
D03*
Y1322108D02*
D03*
X1067953Y1085630D02*
D03*
X1458504D02*
D03*
X1067953Y951772D02*
D03*
X1458504D02*
D03*
X2872558Y1712659D02*
D03*
Y1322108D02*
D03*
X2738700Y1712659D02*
D03*
Y1322108D02*
D03*
X3187519Y1712659D02*
D03*
Y1322108D02*
D03*
X3053660Y1712659D02*
D03*
Y1322108D02*
D03*
X3502479Y1712659D02*
D03*
Y1322108D02*
D03*
X3368621Y1712659D02*
D03*
Y1322108D02*
D03*
X3817440Y1712659D02*
D03*
Y1322108D02*
D03*
X3683582Y1712659D02*
D03*
Y1322108D02*
D03*
X4132401Y1712659D02*
D03*
Y1322108D02*
D03*
X3998542Y1712659D02*
D03*
Y1322108D02*
D03*
X2547244Y1712677D02*
D03*
Y1322126D02*
D03*
X2413386Y1712677D02*
D03*
Y1322126D02*
D03*
D41*
X223357Y971674D02*
D03*
Y1151575D02*
D03*
X236220Y1301857D02*
D03*
X4015748Y3740157D02*
D03*
X3598673D02*
D03*
X3225551D02*
D03*
X2834646Y3779528D02*
D03*
X2724683D02*
D03*
X2204724Y3858268D02*
D03*
X1811024D02*
D03*
X1338583D02*
D03*
X1020023Y3779528D02*
D03*
Y2598425D02*
D03*
X2052352D02*
D03*
X2088861Y2381184D02*
D03*
X1067953Y341606D02*
D03*
X3740157Y1505906D02*
D03*
X3121452D02*
D03*
X2482942D02*
D03*
X1869345D02*
D03*
X728346Y3809807D02*
D03*
X3928915Y3519571D02*
D03*
X3464567D02*
D03*
X2952756D02*
D03*
X4299431Y3073782D02*
D03*
X3976378Y3070866D02*
D03*
X3661417Y3073782D02*
D03*
X3307087Y3078959D02*
D03*
X2935495Y3081693D02*
D03*
X2598425Y3078959D02*
D03*
X2303150Y3307087D02*
D03*
X1911845D02*
D03*
X1537855D02*
D03*
X2622200Y323955D02*
D03*
X2047244D02*
D03*
X1062953Y738895D02*
D03*
X616005Y866142D02*
D03*
X2500593Y2372047D02*
D03*
X3110236D02*
D03*
X2724683Y2613371D02*
D03*
X3815982Y2363840D02*
D03*
X3503937Y2372047D02*
D03*
X4291339Y3188976D02*
D03*
X3937008D02*
D03*
X3582677D02*
D03*
X3188976D02*
D03*
X2804171Y3198819D02*
D03*
X2559055Y3503937D02*
D03*
X2165354D02*
D03*
X1811024D02*
D03*
X1458504D02*
D03*
X2724683Y3070866D02*
D03*
X3119132D02*
D03*
X3501022D02*
D03*
X3815982D02*
D03*
X4130943D02*
D03*
X2479391Y3380905D02*
D03*
X2086614D02*
D03*
X1725454D02*
D03*
X1377029D02*
D03*
X2547244Y2755905D02*
D03*
X643837Y3228346D02*
D03*
X1765748Y1850394D02*
D03*
D43*
X4015748Y4730315D02*
D03*
Y4639764D02*
D03*
X3598673Y4730315D02*
D03*
Y4639764D02*
D03*
X3225551Y4730315D02*
D03*
Y4639764D02*
D03*
X2834646Y4730315D02*
D03*
Y4639764D02*
D03*
X2425777Y4730315D02*
D03*
Y4639764D02*
D03*
X1965420Y4730315D02*
D03*
Y4639764D02*
D03*
X1535433Y4730315D02*
D03*
Y4639764D02*
D03*
X1102362Y4730315D02*
D03*
Y4639764D02*
D03*
X681072Y4730315D02*
D03*
Y4639764D02*
D03*
X2653791Y545276D02*
D03*
Y635827D02*
D03*
D44*
X2559055Y3587598D02*
D03*
Y3656496D02*
D03*
X1417323Y437992D02*
D03*
Y506890D02*
D03*
X2165354Y3656496D02*
D03*
Y3587598D02*
D03*
X2086614Y3656496D02*
D03*
Y3587598D02*
D03*
X1458504Y3656496D02*
D03*
Y3587598D02*
D03*
X1377029Y3656496D02*
D03*
Y3587598D02*
D03*
X1811024Y3656496D02*
D03*
Y3587598D02*
D03*
X1732284Y3656496D02*
D03*
Y3587598D02*
D03*
X2804171Y3341535D02*
D03*
Y3272638D02*
D03*
X2724683Y3341535D02*
D03*
Y3272638D02*
D03*
X3196477Y3343346D02*
D03*
Y3274449D02*
D03*
X3119132Y3341535D02*
D03*
Y3272638D02*
D03*
X3582677Y3341535D02*
D03*
Y3272638D02*
D03*
X3503937Y3341535D02*
D03*
Y3272638D02*
D03*
X3937008Y3341535D02*
D03*
Y3272638D02*
D03*
X3858268Y3341535D02*
D03*
Y3272638D02*
D03*
X4291339Y3341535D02*
D03*
Y3272638D02*
D03*
X4221494Y3341535D02*
D03*
Y3272638D02*
D03*
X2480315Y3656496D02*
D03*
Y3587598D02*
D03*
D45*
X1700454Y793307D02*
D03*
D46*
X1775454Y635827D02*
D03*
X1725454D02*
D03*
X1675454D02*
D03*
X1625454D02*
D03*
D47*
X2396654Y648976D02*
D03*
X2327756D02*
D03*
D48*
X2068778Y794921D02*
D03*
D49*
X2108778Y648976D02*
D03*
X2028778D02*
D03*
D50*
X1884824Y453740D02*
D03*
Y569882D02*
D03*
X2085690Y3081693D02*
D03*
Y3197834D02*
D03*
X1377029Y3081693D02*
D03*
Y3197834D02*
D03*
X1725454Y3081693D02*
D03*
Y3197834D02*
D03*
X2724683Y2738840D02*
D03*
Y2854982D02*
D03*
X3119132Y2738840D02*
D03*
Y2854982D02*
D03*
X3501022Y2738840D02*
D03*
Y2854982D02*
D03*
X3815982Y2738840D02*
D03*
Y2854982D02*
D03*
X4130943Y2738840D02*
D03*
Y2854982D02*
D03*
X2479391Y3081693D02*
D03*
Y3197834D02*
D03*
%TF.MD5,9d86610a2b6e014079b60e7b419bce09*%
M02*
