%TF.GenerationSoftware,Altium Limited,Altium Designer,18.1.9 (240)*%
G04 Layer_Color=255*
%FSLAX26Y26*%
%MOIN*%
%TF.FileFunction,Pads,Bot*%
%TF.Part,Single*%
G01*
G75*
%TA.AperFunction,ViaPad*%
%ADD20C,0.250000*%
%TA.AperFunction,ComponentPad*%
%ADD21C,0.086614*%
%ADD22C,0.129921*%
%ADD23C,0.098425*%
%ADD24C,0.078740*%
%ADD25C,0.100000*%
%TA.AperFunction,SMDPad,CuDef*%
%ADD27R,0.035433X0.031496*%
%ADD28R,0.053150X0.057087*%
D20*
X4900000Y300000D02*
D03*
X300000D02*
D03*
Y4700000D02*
D03*
X4900000D02*
D03*
D21*
X728346Y2253937D02*
D03*
Y2372047D02*
D03*
Y2490157D02*
D03*
Y2608268D02*
D03*
Y2726378D02*
D03*
Y2844488D02*
D03*
Y2962598D02*
D03*
Y3080709D02*
D03*
Y3198819D02*
D03*
X629921Y2312992D02*
D03*
Y2431102D02*
D03*
Y2549213D02*
D03*
Y2667323D02*
D03*
Y2785433D02*
D03*
Y2903543D02*
D03*
Y3021653D02*
D03*
Y3139764D02*
D03*
X511811Y2312992D02*
D03*
Y2431102D02*
D03*
Y2549213D02*
D03*
Y2667323D02*
D03*
Y2785433D02*
D03*
Y2903543D02*
D03*
Y3021653D02*
D03*
Y3139764D02*
D03*
X413386Y2253937D02*
D03*
Y2372047D02*
D03*
Y2490157D02*
D03*
Y2608268D02*
D03*
Y2726378D02*
D03*
Y2844488D02*
D03*
Y2962598D02*
D03*
Y3080709D02*
D03*
Y3198819D02*
D03*
Y1683071D02*
D03*
Y1564961D02*
D03*
Y1446850D02*
D03*
Y1328740D02*
D03*
Y1210630D02*
D03*
Y1092520D02*
D03*
Y974409D02*
D03*
X511811Y1624016D02*
D03*
Y1505906D02*
D03*
Y1387795D02*
D03*
Y1269685D02*
D03*
Y1151575D02*
D03*
Y1033465D02*
D03*
X629921Y1624016D02*
D03*
Y1505906D02*
D03*
Y1387795D02*
D03*
Y1269685D02*
D03*
Y1151575D02*
D03*
Y1033465D02*
D03*
X728346Y1683071D02*
D03*
Y1564961D02*
D03*
Y1446850D02*
D03*
Y1328740D02*
D03*
Y1210630D02*
D03*
Y1092520D02*
D03*
Y974409D02*
D03*
D22*
X157480Y688976D02*
D03*
Y1968504D02*
D03*
Y3484252D02*
D03*
D23*
X2317207Y1989824D02*
D03*
X2342798Y2363840D02*
D03*
X2193192Y2226045D02*
D03*
X1602873Y1989824D02*
D03*
X1628464Y2363840D02*
D03*
X1478857Y2226045D02*
D03*
X1935039Y1989824D02*
D03*
X1960630Y2363840D02*
D03*
X1811024Y2226045D02*
D03*
D24*
X2147916Y2580376D02*
D03*
X2317207D02*
D03*
X1433582D02*
D03*
X1602873D02*
D03*
X1765748D02*
D03*
X1935039D02*
D03*
D25*
X2242637Y1712659D02*
D03*
Y1322108D02*
D03*
X2108778Y1712659D02*
D03*
Y1322108D02*
D03*
X1612716Y1712659D02*
D03*
Y1322108D02*
D03*
X1478857Y1712659D02*
D03*
Y1322108D02*
D03*
X1927676Y1712659D02*
D03*
Y1322108D02*
D03*
X1793818Y1712659D02*
D03*
Y1322108D02*
D03*
X1067953Y1085630D02*
D03*
X1458504D02*
D03*
X1067953Y951772D02*
D03*
X1458504D02*
D03*
X2872558Y1712659D02*
D03*
Y1322108D02*
D03*
X2738700Y1712659D02*
D03*
Y1322108D02*
D03*
X3187519Y1712659D02*
D03*
Y1322108D02*
D03*
X3053660Y1712659D02*
D03*
Y1322108D02*
D03*
X3502479Y1712659D02*
D03*
Y1322108D02*
D03*
X3368621Y1712659D02*
D03*
Y1322108D02*
D03*
X3817440Y1712659D02*
D03*
Y1322108D02*
D03*
X3683582Y1712659D02*
D03*
Y1322108D02*
D03*
X4132401Y1712659D02*
D03*
Y1322108D02*
D03*
X3998542Y1712659D02*
D03*
Y1322108D02*
D03*
X2547244Y1712677D02*
D03*
Y1322126D02*
D03*
X2413386Y1712677D02*
D03*
Y1322126D02*
D03*
D27*
X1731360Y3574803D02*
D03*
Y3649606D02*
D03*
X1810100Y3612205D02*
D03*
X4221494Y3261478D02*
D03*
Y3336281D02*
D03*
X4300234Y3298880D02*
D03*
X3867163Y3261478D02*
D03*
Y3336281D02*
D03*
X3945903Y3298880D02*
D03*
X3512832Y3261478D02*
D03*
Y3336281D02*
D03*
X3591573Y3298880D02*
D03*
X3119132Y3261478D02*
D03*
Y3336281D02*
D03*
X3197872Y3298880D02*
D03*
X2725431Y3261478D02*
D03*
Y3336281D02*
D03*
X2804171Y3298880D02*
D03*
X2479391Y3574803D02*
D03*
Y3649606D02*
D03*
X2558131Y3612205D02*
D03*
X2085690Y3574803D02*
D03*
Y3649606D02*
D03*
X2164430Y3612205D02*
D03*
X1377029Y3574803D02*
D03*
Y3649606D02*
D03*
X1455769Y3612205D02*
D03*
D28*
X2167323Y2677165D02*
D03*
X2283465D02*
D03*
X1792323Y2490157D02*
D03*
X1908465D02*
D03*
X1201772Y2608268D02*
D03*
X1317913D02*
D03*
%TF.MD5,4d9f7d3eb3a3ec53eeb6b48f42c3b37b*%
M02*
