%TF.GenerationSoftware,Altium Limited,Altium Designer,18.1.7 (191)*%
G04 Layer_Color=65535*
%FSLAX26Y26*%
%MOIN*%
%TF.FileFunction,Legend,Top*%
%TF.Part,Single*%
G01*
G75*
%TA.AperFunction,NonConductor*%
%ADD29C,0.009842*%
%ADD30C,0.003937*%
%ADD31C,0.007874*%
%ADD32C,0.010000*%
%ADD42C,0.005906*%
G36*
X4322874Y786294D02*
X4323968Y785200D01*
Y784106D01*
Y781919D01*
X4322874Y776451D01*
Y775358D01*
Y770983D01*
X4321781Y763328D01*
X4320687Y753486D01*
Y752392D01*
Y751298D01*
X4319593Y743643D01*
X4318500Y733801D01*
X4316313Y722865D01*
X4308657Y661623D01*
X4251790D01*
X4234293Y713023D01*
Y714116D01*
X4233199Y715210D01*
X4231012Y720678D01*
X4227731Y729427D01*
X4224450Y738175D01*
Y739269D01*
X4223357Y740362D01*
X4222263Y744737D01*
X4220076Y751298D01*
X4217889Y756766D01*
Y757860D01*
X4216795Y761141D01*
X4215701Y763328D01*
Y761141D01*
X4214608Y756766D01*
Y751298D01*
X4213514Y741456D01*
X4212421Y729427D01*
X4211327Y721771D01*
X4210233Y713023D01*
Y710835D01*
X4209140Y705367D01*
X4208046Y697712D01*
X4206953Y687870D01*
X4205859Y679121D01*
X4204765Y670372D01*
X4203672Y664904D01*
X4202578Y662717D01*
Y661623D01*
Y659436D01*
X4183987D01*
Y661623D01*
Y662717D01*
Y664904D01*
X4185081Y669279D01*
Y676934D01*
X4187268Y687870D01*
Y694431D01*
X4188361Y703180D01*
X4189455Y711929D01*
X4190549Y722865D01*
Y723958D01*
Y725052D01*
X4191642Y728333D01*
Y732707D01*
X4192736Y742550D01*
X4194923Y754579D01*
X4196017Y765515D01*
X4197110Y775358D01*
Y779732D01*
X4198204Y783013D01*
Y784106D01*
Y785200D01*
X4199297Y787387D01*
X4257258D01*
X4260539Y777545D01*
Y776451D01*
X4261633Y773170D01*
X4262726Y768796D01*
Y767702D01*
X4264913Y764422D01*
X4266007Y757860D01*
X4269288Y750205D01*
X4270381Y748018D01*
X4271475Y742550D01*
X4274756Y735988D01*
X4276943Y728333D01*
X4278037Y726146D01*
X4279130Y720678D01*
X4282411Y714116D01*
X4284598Y706461D01*
X4285692Y705367D01*
X4286785Y700993D01*
X4287879Y695525D01*
X4288973Y690057D01*
Y688963D01*
X4290066Y687870D01*
X4291160Y685683D01*
X4292253Y684589D01*
Y685683D01*
X4293347Y686776D01*
Y691150D01*
X4294441Y696619D01*
X4295534Y705367D01*
X4296628Y718490D01*
X4297721Y726146D01*
X4298815Y734894D01*
Y735988D01*
Y737082D01*
X4299909Y742550D01*
X4301002Y751298D01*
X4302096Y760047D01*
Y769890D01*
X4303189Y777545D01*
X4304283Y784106D01*
Y785200D01*
Y786294D01*
X4305377Y787387D01*
X4319593D01*
X4322874Y786294D01*
D02*
G37*
G36*
X4470510Y785200D02*
Y784107D01*
X4469417Y780826D01*
X4468323Y775358D01*
X4467229Y766609D01*
X4401613Y766609D01*
X4400520Y764422D01*
X4398333Y763328D01*
X4396145Y760047D01*
Y758954D01*
Y757860D01*
Y754579D01*
X4395052Y750205D01*
X4393958Y743643D01*
X4392865Y734894D01*
X4391771Y722865D01*
Y721771D01*
X4390677Y717397D01*
Y711929D01*
X4389584Y705367D01*
X4388490Y698806D01*
Y693338D01*
X4387397Y688963D01*
Y686776D01*
Y685683D01*
X4388490Y684589D01*
X4390677Y682402D01*
X4391771Y680215D01*
X4407081D01*
X4411456Y681308D01*
X4413643Y682402D01*
X4414737D01*
X4415830Y683495D01*
X4418017Y686776D01*
X4419111Y687870D01*
X4420205Y692244D01*
X4421298Y696619D01*
Y700993D01*
X4422392Y707554D01*
Y714116D01*
X4399426D01*
Y716303D01*
Y717397D01*
Y720678D01*
X4400520Y726146D01*
X4401613Y734894D01*
X4465042Y734895D01*
X4469417Y733801D01*
X4470510D01*
Y731614D01*
X4469417Y729427D01*
Y725052D01*
X4468323Y718491D01*
X4467229Y709742D01*
X4465042Y697712D01*
Y696619D01*
X4463949Y692244D01*
Y686776D01*
X4462855Y679121D01*
X4461761Y672559D01*
Y667091D01*
X4460668Y662717D01*
Y660530D01*
X4454106D01*
X4448638Y659436D01*
X4386303Y659436D01*
X4377554Y660530D01*
X4362244D01*
X4358963Y661623D01*
X4356776Y662717D01*
X4352401Y664904D01*
X4348027Y670372D01*
X4345840Y673653D01*
X4344746Y679121D01*
Y680215D01*
Y682402D01*
Y686776D01*
Y692244D01*
Y699899D01*
X4345840Y709742D01*
X4346933Y722865D01*
Y723958D01*
X4348027Y728333D01*
X4349121Y733801D01*
X4350214Y740362D01*
Y746924D01*
X4351308Y753486D01*
X4352401Y757860D01*
Y760047D01*
Y761141D01*
X4353495Y762235D01*
X4355682Y768796D01*
X4360057Y775358D01*
X4366618Y781919D01*
X4367712Y783013D01*
X4369899Y784106D01*
X4372086Y785200D01*
X4376461D01*
X4378648Y786294D01*
X4387397D01*
X4396145Y787387D01*
X4470510Y787387D01*
Y785200D01*
D02*
G37*
G36*
X4165396Y785200D02*
Y784106D01*
Y781919D01*
X4164302Y777545D01*
X4163209Y769890D01*
Y765515D01*
X4162115Y758954D01*
X4161021Y751298D01*
X4159928Y743643D01*
X4158834Y733801D01*
X4157741Y722865D01*
Y721771D01*
Y720678D01*
X4156647Y713023D01*
X4155553Y703180D01*
X4154460Y692244D01*
X4153366Y681308D01*
X4152273Y670372D01*
X4151179Y663811D01*
Y661623D01*
Y660530D01*
X4148992D01*
X4145711Y659436D01*
X4105248D01*
Y661623D01*
Y662717D01*
X4106341Y665998D01*
Y670372D01*
X4107435Y678027D01*
X4109622Y688963D01*
X4110716Y696619D01*
X4111809Y704274D01*
X4112903Y714116D01*
X4113997Y725052D01*
X4121652Y787387D01*
X4165396D01*
Y785200D01*
D02*
G37*
G36*
X4088844D02*
Y784106D01*
Y779732D01*
Y774264D01*
X4087750Y766609D01*
X4045100D01*
X4040725Y765515D01*
X4037445D01*
X4036351Y764422D01*
X4035257Y763328D01*
X4034164Y762235D01*
X4033070Y760047D01*
Y757860D01*
X4031977Y755673D01*
X4030883Y751298D01*
Y744737D01*
X4028696Y734894D01*
X4027602Y722865D01*
X4022134Y686776D01*
X4024321Y684589D01*
Y683495D01*
X4025415Y682402D01*
X4079001D01*
Y680215D01*
Y679121D01*
X4077908Y675840D01*
X4076814Y670372D01*
X4075721Y659436D01*
X4015573D01*
X4007917Y660530D01*
X4000262D01*
X3993701Y661623D01*
X3990420Y662717D01*
X3989326Y663811D01*
X3986045Y665998D01*
X3984952Y667091D01*
X3982765Y670372D01*
X3980577Y675840D01*
X3978390Y683495D01*
Y684589D01*
Y686776D01*
X3979484Y690057D01*
Y694431D01*
X3980577Y700993D01*
X3981671Y710835D01*
X3982765Y721771D01*
Y723958D01*
X3983858Y728333D01*
Y733801D01*
X3984952Y741456D01*
X3986045Y749111D01*
X3987139Y755673D01*
X3988233Y761141D01*
Y764422D01*
Y765515D01*
X3989326Y767702D01*
X3993701Y774264D01*
X4000262Y781919D01*
X4005730Y785200D01*
X4011198Y787387D01*
X4088844D01*
Y785200D01*
D02*
G37*
G36*
X3944489Y732707D02*
X3945582Y730520D01*
X3946676Y725052D01*
X3949957Y715210D01*
X3952144Y704274D01*
Y703180D01*
X3953237Y702087D01*
X3954331Y695525D01*
X3956518Y687870D01*
X3958705Y680215D01*
Y679121D01*
X3959799Y675840D01*
X3960893Y672559D01*
Y670372D01*
X3963080Y659436D01*
X3916055D01*
X3911681Y675840D01*
Y676934D01*
X3910587Y678027D01*
X3909493Y684589D01*
X3908400Y690057D01*
X3907306Y691150D01*
Y692244D01*
Y693338D01*
X3855907D01*
X3847158Y675840D01*
X3836222Y659436D01*
X3815444D01*
X3816537Y661623D01*
X3818725Y667091D01*
X3820912Y671466D01*
X3824193Y675840D01*
X3827473Y683495D01*
X3832941Y691150D01*
X3838409Y700993D01*
X3844971Y713022D01*
X3852626Y727239D01*
X3862469Y743643D01*
X3873405Y762235D01*
X3885434Y784106D01*
X3886528Y787387D01*
X3931365D01*
X3944489Y732707D01*
D02*
G37*
G36*
X3742173Y785200D02*
X3796853D01*
X3797946Y784106D01*
X3801227Y783013D01*
X3804508Y779732D01*
X3806695Y776451D01*
Y775358D01*
X3807789Y773170D01*
Y770983D01*
Y766609D01*
Y762234D01*
Y755673D01*
X3806695Y746924D01*
Y745830D01*
Y743643D01*
X3805601Y735988D01*
Y728333D01*
X3804508Y725052D01*
Y722865D01*
X3803414Y721771D01*
X3801227Y719584D01*
X3795759Y716303D01*
X3789197Y714116D01*
X3785917D01*
Y713022D01*
X3787010Y710835D01*
X3788104Y707554D01*
X3789197Y702086D01*
X3791385Y695525D01*
X3794665Y686776D01*
Y685682D01*
X3795759Y682402D01*
X3797946Y678027D01*
X3800133Y673653D01*
X3801227Y668185D01*
X3803414Y663810D01*
X3804508Y660530D01*
Y659436D01*
X3755296D01*
X3754202Y662717D01*
Y663810D01*
X3753109Y665998D01*
Y667091D01*
X3752015Y669278D01*
X3750921Y672559D01*
X3749828Y676934D01*
Y678027D01*
X3748734Y681308D01*
X3747641Y685682D01*
Y688963D01*
X3741079Y714116D01*
X3727956D01*
X3726862Y713022D01*
Y711929D01*
Y709742D01*
Y706461D01*
X3725769Y702086D01*
Y695525D01*
X3724675Y686776D01*
Y685682D01*
X3723581Y682402D01*
X3722488Y678027D01*
X3721394Y673653D01*
Y672559D01*
Y670372D01*
X3720301Y662717D01*
Y661623D01*
Y660530D01*
Y659436D01*
X3675463D01*
Y661623D01*
Y662717D01*
Y664904D01*
X3676557Y669278D01*
X3677650Y676934D01*
X3678744Y687870D01*
X3679837Y694431D01*
X3680931Y703180D01*
X3682025Y711929D01*
X3683118Y722865D01*
Y723958D01*
Y725052D01*
X3684212Y732707D01*
X3685305Y742550D01*
X3687493Y753486D01*
X3688586Y765515D01*
X3689680Y775358D01*
X3690773Y781919D01*
X3691867Y784106D01*
Y785200D01*
Y787387D01*
X3742173Y785200D01*
D02*
G37*
G36*
X3674369D02*
Y784106D01*
Y781919D01*
X3673276Y776451D01*
X3672182Y768796D01*
X3671089Y757860D01*
X3669995Y751298D01*
X3668901Y742550D01*
X3667808Y732707D01*
X3666714Y721771D01*
X3659059Y659436D01*
X3008367Y659436D01*
Y661623D01*
Y662717D01*
Y665997D01*
X3009461Y670372D01*
X3010554Y678027D01*
X3011648Y688963D01*
X3012741Y695525D01*
X3013835Y703180D01*
X3014929Y713022D01*
X3016022Y722865D01*
Y723958D01*
Y725052D01*
X3017116Y728333D01*
Y732707D01*
X3018209Y742549D01*
X3020397Y754579D01*
X3021490Y765515D01*
X3022584Y775357D01*
Y779732D01*
X3023677Y783013D01*
Y784106D01*
Y785200D01*
Y787387D01*
X3675463Y787387D01*
X3674369Y785200D01*
D02*
G37*
G36*
X3584694Y644126D02*
X3583601Y641938D01*
Y638658D01*
X3582507Y634283D01*
X3581413Y628815D01*
Y627722D01*
Y626628D01*
X3580320Y620066D01*
X3579226Y613505D01*
Y611318D01*
Y610224D01*
X3544231D01*
X3540950Y591633D01*
Y590539D01*
Y589446D01*
Y582884D01*
X3539857Y576322D01*
Y574135D01*
Y573042D01*
X3502674D01*
Y574135D01*
Y576322D01*
X3503768Y578510D01*
Y581790D01*
Y586165D01*
X3504861Y591633D01*
Y592726D01*
Y593820D01*
X3505955Y600382D01*
X3507049Y606943D01*
Y609130D01*
Y610224D01*
X3472053D01*
X3468773Y591633D01*
Y590539D01*
Y589446D01*
Y582884D01*
X3467679Y577416D01*
Y575229D01*
Y574135D01*
Y573042D01*
X3430497D01*
Y574135D01*
Y576322D01*
Y578510D01*
X3431590Y581790D01*
Y586165D01*
X3432684Y591633D01*
X3433777Y599288D01*
X3434871Y608037D01*
Y610224D01*
X3399876D01*
Y609130D01*
Y606943D01*
X3398782Y601475D01*
X3397689Y597101D01*
X3396595Y591633D01*
Y590539D01*
Y589446D01*
Y583978D01*
X3395501Y578510D01*
Y574135D01*
Y573042D01*
X3358319D01*
Y576322D01*
X3359413Y578510D01*
Y581790D01*
Y586165D01*
X3360506Y591633D01*
Y592726D01*
Y594914D01*
X3361600Y601475D01*
X3362693Y606943D01*
Y609130D01*
Y610224D01*
X3327698D01*
Y609130D01*
Y606943D01*
X3326605Y604756D01*
Y601475D01*
X3325511Y596007D01*
X3324417Y590539D01*
X3323324Y573042D01*
X3286141D01*
Y575229D01*
X3287235Y577416D01*
Y580697D01*
Y585071D01*
X3288329Y590539D01*
Y591633D01*
Y593820D01*
X3289422Y599288D01*
X3290516Y605850D01*
Y608037D01*
Y609130D01*
X3288329Y610224D01*
X3254427Y610224D01*
Y608037D01*
Y605850D01*
Y603662D01*
X3253333Y600381D01*
Y596007D01*
X3252240Y590539D01*
X3250053Y573042D01*
X3213964D01*
Y574135D01*
Y575229D01*
X3215057Y578510D01*
Y582884D01*
X3216151Y588352D01*
X3217245Y600381D01*
X3218338Y605850D01*
Y610224D01*
X3254427D01*
Y611317D01*
Y613505D01*
X3255521Y615692D01*
Y618973D01*
Y623347D01*
X3256614Y628815D01*
X3259895Y646313D01*
X3294890Y646313D01*
Y645219D01*
Y644126D01*
X3293797Y640845D01*
Y635377D01*
X3292703Y629909D01*
X3291609Y623347D01*
Y617879D01*
X3290516Y613505D01*
Y611318D01*
X3292703D01*
X3294890Y610224D01*
X3327698D01*
Y611318D01*
Y612411D01*
X3328792Y615692D01*
Y620066D01*
X3329885Y625534D01*
X3330979Y637564D01*
X3332073Y641938D01*
Y646313D01*
X3367068D01*
Y645219D01*
Y644126D01*
X3365974Y640845D01*
Y637564D01*
X3364881Y632096D01*
X3363787Y621160D01*
X3362693Y615692D01*
Y611318D01*
X3364881D01*
X3367068Y610224D01*
X3399876D01*
Y613505D01*
X3400969Y615692D01*
Y618973D01*
Y623347D01*
X3402063Y628815D01*
Y629909D01*
Y632096D01*
X3403157Y637564D01*
X3404250Y644126D01*
Y645219D01*
Y646313D01*
X3439245D01*
Y645219D01*
Y643032D01*
Y640845D01*
Y638658D01*
X3438152Y634283D01*
Y628815D01*
Y627722D01*
Y626628D01*
X3437058Y620066D01*
X3435965Y614598D01*
Y612411D01*
X3434871Y611318D01*
Y610224D01*
X3472053D01*
X3473147Y627722D01*
Y628815D01*
Y631002D01*
X3474241Y636470D01*
X3475334Y643032D01*
X3476428Y644126D01*
Y645219D01*
Y646313D01*
X3511423D01*
Y644126D01*
Y641938D01*
Y638658D01*
X3510329Y633190D01*
X3509236Y627722D01*
X3508142Y620066D01*
X3507049Y611318D01*
Y610224D01*
X3543137D01*
X3544231Y611318D01*
Y612411D01*
Y614598D01*
Y620066D01*
X3545325Y628815D01*
Y629909D01*
Y631002D01*
X3546418Y637564D01*
X3547512Y643032D01*
Y645219D01*
Y646313D01*
X3584694D01*
Y644126D01*
D02*
G37*
G36*
X3221619Y645219D02*
X3222713D01*
Y643032D01*
Y640845D01*
X3221619Y637564D01*
Y633189D01*
X3220525Y627721D01*
Y626628D01*
Y625534D01*
X3219432Y618973D01*
X3218338Y613505D01*
Y611317D01*
Y610224D01*
X3185530D01*
X3183343Y609130D01*
X3182249D01*
Y606943D01*
Y603662D01*
X3181156Y600381D01*
Y596007D01*
X3180062Y590539D01*
Y589446D01*
Y588352D01*
X3178969Y581790D01*
X3177875Y576322D01*
Y574135D01*
Y573042D01*
X3141786D01*
Y576322D01*
X3142880Y578510D01*
Y581790D01*
Y586165D01*
X3143973Y591633D01*
Y592726D01*
Y594913D01*
X3145067Y601475D01*
X3146161Y606943D01*
Y609130D01*
Y610224D01*
X3110072D01*
Y608037D01*
X3108978Y605850D01*
Y602569D01*
X3107885Y598194D01*
X3106791Y591633D01*
X3105697Y573042D01*
X3068515D01*
Y575229D01*
X3069609Y577416D01*
Y580697D01*
Y585071D01*
X3070702Y590539D01*
Y591633D01*
Y593820D01*
X3071796Y599288D01*
X3072889Y605850D01*
Y608037D01*
Y609130D01*
X3070702Y610224D01*
X3037894D01*
Y611317D01*
Y613505D01*
Y615692D01*
Y618973D01*
X3038988Y623347D01*
Y628815D01*
X3042269Y646313D01*
X3079451D01*
X3077264Y645219D01*
Y644125D01*
Y640845D01*
X3076170Y636470D01*
Y632096D01*
X3075077Y620066D01*
Y615692D01*
Y611317D01*
X3077264D01*
X3079451Y610224D01*
X3110072D01*
Y613505D01*
X3111165Y615692D01*
Y618973D01*
Y623347D01*
X3112259Y628815D01*
Y629909D01*
Y632096D01*
X3113353Y637564D01*
X3114446Y644125D01*
Y645219D01*
Y646313D01*
X3151629D01*
X3150535Y645219D01*
Y643032D01*
Y640845D01*
X3149441Y637564D01*
Y633189D01*
X3148348Y627721D01*
X3147254Y610224D01*
X3164752Y611317D01*
X3182249D01*
X3184437Y628815D01*
Y629909D01*
Y632096D01*
X3185530Y637564D01*
X3186624Y644125D01*
Y645219D01*
Y646313D01*
X3219432D01*
X3221619Y645219D01*
D02*
G37*
G36*
X4422392Y645219D02*
X4458481Y645219D01*
Y644126D01*
Y641939D01*
Y636471D01*
X4457387Y629909D01*
X4456293Y620067D01*
X4455200Y608037D01*
X4453013Y592727D01*
X4449732Y574135D01*
Y573042D01*
X3665621Y573042D01*
Y574135D01*
Y575229D01*
Y577416D01*
Y581790D01*
X3666714Y588352D01*
X3667808Y598194D01*
X3668901Y610224D01*
X3671089Y626628D01*
X3674369Y645219D01*
Y646313D01*
X4410362Y646313D01*
X4422392Y645219D01*
D02*
G37*
G36*
X3656872Y645219D02*
Y643032D01*
Y641938D01*
X3655778Y636470D01*
Y635377D01*
Y634283D01*
X3654685Y627722D01*
X3652497Y610224D01*
X3616409D01*
Y608037D01*
Y605850D01*
X3615315Y602569D01*
Y598194D01*
X3614221Y591633D01*
Y590539D01*
Y589446D01*
X3613128Y582884D01*
X3612034Y576322D01*
Y574135D01*
Y573042D01*
X3574852D01*
Y574135D01*
Y576322D01*
X3575945Y578510D01*
Y581790D01*
Y586165D01*
X3577039Y591633D01*
Y592726D01*
Y593820D01*
X3578133Y600382D01*
X3579226Y606943D01*
Y609130D01*
Y610224D01*
X3615315D01*
X3616409Y611318D01*
Y613505D01*
X3617502Y615692D01*
Y618973D01*
Y623347D01*
X3618596Y628815D01*
X3620783Y646313D01*
X3656872D01*
Y645219D01*
D02*
G37*
G36*
X3037894Y608037D02*
X3036801Y603662D01*
X3035707Y597101D01*
X3034613Y590539D01*
X3033520Y573042D01*
X2996337D01*
Y575229D01*
X2997431Y577416D01*
Y578510D01*
X2998525Y579603D01*
Y585071D01*
Y586165D01*
X2999618Y588352D01*
Y593820D01*
X3000712Y610224D01*
X3037894D01*
Y608037D01*
D02*
G37*
G36*
X4244135Y547889D02*
X4304283D01*
X4303189Y546795D01*
X4301002Y545702D01*
X4296628Y544608D01*
X4291160Y541327D01*
X4283505Y538047D01*
X4273662Y532578D01*
X4243041Y518362D01*
X3618596Y532578D01*
X3603285D01*
X3591256Y533672D01*
X3560635D01*
X3542044Y534766D01*
X3521265D01*
X3498300Y535859D01*
X3474241D01*
X3447994Y536953D01*
X3420654D01*
X3364881Y539140D01*
X3306920Y540234D01*
X3247865Y541327D01*
X3192092Y543514D01*
X3164752D01*
X3138505Y544608D01*
X3114446D01*
X3091481Y545702D01*
X3070702D01*
X3052111Y546795D01*
X3021490D01*
X3009461Y547889D01*
X3061953D01*
X3076170Y548982D01*
X4224450Y548982D01*
X4244135Y547889D01*
D02*
G37*
G36*
X4374273D02*
X4375367D01*
X4373180Y546795D01*
X4370993Y545702D01*
X4367712Y544608D01*
X4361150Y541327D01*
X4353495Y538047D01*
X4342559Y532578D01*
X4310845Y516174D01*
X4291160D01*
X4285692Y517268D01*
X4279130Y518362D01*
X4276943D01*
X4278037Y519455D01*
X4280224Y520549D01*
X4285692Y522736D01*
X4286785Y523830D01*
X4292253Y526017D01*
X4298815Y529298D01*
X4307564Y532578D01*
X4340372Y548982D01*
X4373180D01*
X4374273Y547889D01*
D02*
G37*
G36*
X4445357Y547889D02*
X4446451D01*
X4444264Y546795D01*
X4442077Y545702D01*
X4437702Y543515D01*
X4432234Y541327D01*
X4423485Y536953D01*
X4412549Y531485D01*
X4376461Y515081D01*
X4361150D01*
X4355682Y516174D01*
X4344746D01*
X4346933Y517268D01*
X4349121Y518362D01*
X4352401Y520549D01*
X4357869Y522736D01*
X4365525Y527111D01*
X4376461Y532578D01*
X4411456Y548982D01*
X4444264Y548983D01*
X4445357Y547889D01*
D02*
G37*
G36*
X4070824Y4623874D02*
Y4623818D01*
X4070769Y4623707D01*
X4070658Y4623485D01*
X4070602Y4623208D01*
X4070436Y4622875D01*
X4070269Y4622431D01*
X4069936Y4621543D01*
X4069548Y4620544D01*
X4069104Y4619545D01*
X4068660Y4618601D01*
X4068271Y4617824D01*
X4068327D01*
X4068493D01*
X4068715Y4617880D01*
X4069048D01*
X4069437Y4617935D01*
X4069881Y4617991D01*
X4070880Y4618046D01*
X4071934Y4618157D01*
X4073044Y4618268D01*
X4073988Y4618324D01*
X4074432D01*
X4074820D01*
Y4614550D01*
X4074765D01*
X4074709D01*
X4074543D01*
X4074376D01*
X4073766Y4614605D01*
X4073044Y4614661D01*
X4072101Y4614772D01*
X4070935Y4614827D01*
X4069659Y4614994D01*
X4068271Y4615160D01*
Y4615105D01*
X4068327Y4615049D01*
X4068382Y4614883D01*
X4068493Y4614661D01*
X4068771Y4614106D01*
X4069104Y4613384D01*
X4069492Y4612496D01*
X4069936Y4611442D01*
X4070380Y4610276D01*
X4070824Y4609000D01*
X4067106Y4607779D01*
Y4607834D01*
X4067050Y4607945D01*
X4066995Y4608112D01*
X4066939Y4608334D01*
X4066828Y4608667D01*
X4066717Y4609000D01*
X4066495Y4609832D01*
X4066273Y4610831D01*
X4065996Y4611941D01*
X4065774Y4613107D01*
X4065607Y4614328D01*
X4065552Y4614272D01*
X4065330Y4614050D01*
X4064997Y4613662D01*
X4064497Y4613162D01*
X4063776Y4612496D01*
X4062943Y4611775D01*
X4061889Y4610831D01*
X4060668Y4609832D01*
X4058503Y4612940D01*
X4058614Y4612996D01*
X4058892Y4613218D01*
X4059336Y4613551D01*
X4059946Y4613995D01*
X4060779Y4614494D01*
X4061722Y4615105D01*
X4062832Y4615826D01*
X4064053Y4616548D01*
X4063998D01*
X4063887Y4616603D01*
X4063720Y4616714D01*
X4063443Y4616881D01*
X4062777Y4617214D01*
X4062000Y4617658D01*
X4061112Y4618213D01*
X4060168Y4618768D01*
X4059280Y4619378D01*
X4058503Y4619933D01*
X4060668Y4622986D01*
X4060723Y4622930D01*
X4060834Y4622875D01*
X4061001Y4622708D01*
X4061278Y4622486D01*
X4061944Y4621987D01*
X4062721Y4621321D01*
X4063554Y4620599D01*
X4064331Y4619878D01*
X4065052Y4619212D01*
X4065385Y4618934D01*
X4065607Y4618657D01*
Y4618712D01*
X4065663Y4618823D01*
Y4618990D01*
X4065718Y4619212D01*
X4065774Y4619545D01*
X4065885Y4619878D01*
X4066051Y4620710D01*
X4066273Y4621709D01*
X4066495Y4622764D01*
X4067106Y4625039D01*
X4070824Y4623874D01*
D02*
G37*
G36*
X3653749D02*
Y4623818D01*
X3653693Y4623707D01*
X3653582Y4623485D01*
X3653527Y4623208D01*
X3653360Y4622875D01*
X3653194Y4622431D01*
X3652861Y4621543D01*
X3652472Y4620544D01*
X3652028Y4619545D01*
X3651584Y4618601D01*
X3651196Y4617824D01*
X3651251D01*
X3651418D01*
X3651640Y4617880D01*
X3651973D01*
X3652361Y4617935D01*
X3652805Y4617991D01*
X3653804Y4618046D01*
X3654859Y4618157D01*
X3655969Y4618268D01*
X3656912Y4618324D01*
X3657356D01*
X3657745D01*
Y4614550D01*
X3657689D01*
X3657634D01*
X3657467D01*
X3657301D01*
X3656690Y4614605D01*
X3655969Y4614661D01*
X3655025Y4614772D01*
X3653860Y4614827D01*
X3652583Y4614994D01*
X3651196Y4615160D01*
Y4615105D01*
X3651251Y4615049D01*
X3651307Y4614883D01*
X3651418Y4614661D01*
X3651695Y4614106D01*
X3652028Y4613384D01*
X3652417Y4612496D01*
X3652861Y4611442D01*
X3653305Y4610276D01*
X3653749Y4609000D01*
X3650030Y4607779D01*
Y4607834D01*
X3649975Y4607945D01*
X3649919Y4608112D01*
X3649864Y4608334D01*
X3649753Y4608667D01*
X3649642Y4609000D01*
X3649420Y4609832D01*
X3649198Y4610831D01*
X3648920Y4611941D01*
X3648698Y4613107D01*
X3648532Y4614328D01*
X3648476Y4614272D01*
X3648254Y4614050D01*
X3647921Y4613662D01*
X3647422Y4613162D01*
X3646700Y4612496D01*
X3645868Y4611775D01*
X3644813Y4610831D01*
X3643592Y4609832D01*
X3641428Y4612940D01*
X3641539Y4612996D01*
X3641816Y4613218D01*
X3642260Y4613551D01*
X3642871Y4613995D01*
X3643703Y4614494D01*
X3644647Y4615105D01*
X3645757Y4615826D01*
X3646978Y4616548D01*
X3646922D01*
X3646811Y4616603D01*
X3646645Y4616714D01*
X3646367Y4616881D01*
X3645701Y4617214D01*
X3644924Y4617658D01*
X3644036Y4618213D01*
X3643093Y4618768D01*
X3642205Y4619378D01*
X3641428Y4619933D01*
X3643592Y4622986D01*
X3643648Y4622930D01*
X3643759Y4622875D01*
X3643925Y4622708D01*
X3644203Y4622486D01*
X3644869Y4621987D01*
X3645646Y4621321D01*
X3646478Y4620599D01*
X3647255Y4619878D01*
X3647977Y4619212D01*
X3648310Y4618934D01*
X3648532Y4618657D01*
Y4618712D01*
X3648587Y4618823D01*
Y4618990D01*
X3648643Y4619212D01*
X3648698Y4619545D01*
X3648809Y4619878D01*
X3648976Y4620710D01*
X3649198Y4621709D01*
X3649420Y4622764D01*
X3650030Y4625039D01*
X3653749Y4623874D01*
D02*
G37*
G36*
X3280627D02*
Y4623818D01*
X3280572Y4623707D01*
X3280461Y4623485D01*
X3280405Y4623208D01*
X3280239Y4622875D01*
X3280072Y4622431D01*
X3279739Y4621543D01*
X3279351Y4620544D01*
X3278907Y4619545D01*
X3278463Y4618601D01*
X3278074Y4617824D01*
X3278130D01*
X3278296D01*
X3278518Y4617880D01*
X3278851D01*
X3279240Y4617935D01*
X3279684Y4617991D01*
X3280683Y4618046D01*
X3281737Y4618157D01*
X3282847Y4618268D01*
X3283791Y4618324D01*
X3284235D01*
X3284623D01*
Y4614550D01*
X3284568D01*
X3284512D01*
X3284346D01*
X3284179D01*
X3283569Y4614605D01*
X3282847Y4614661D01*
X3281904Y4614772D01*
X3280738Y4614827D01*
X3279462Y4614994D01*
X3278074Y4615160D01*
Y4615105D01*
X3278130Y4615049D01*
X3278185Y4614883D01*
X3278296Y4614661D01*
X3278574Y4614106D01*
X3278907Y4613384D01*
X3279295Y4612496D01*
X3279739Y4611442D01*
X3280183Y4610276D01*
X3280627Y4609000D01*
X3276909Y4607779D01*
Y4607834D01*
X3276853Y4607945D01*
X3276798Y4608112D01*
X3276742Y4608334D01*
X3276631Y4608667D01*
X3276520Y4609000D01*
X3276298Y4609832D01*
X3276076Y4610831D01*
X3275799Y4611941D01*
X3275577Y4613107D01*
X3275410Y4614328D01*
X3275355Y4614272D01*
X3275133Y4614050D01*
X3274800Y4613662D01*
X3274300Y4613162D01*
X3273579Y4612496D01*
X3272746Y4611775D01*
X3271692Y4610831D01*
X3270471Y4609832D01*
X3268306Y4612940D01*
X3268417Y4612996D01*
X3268695Y4613218D01*
X3269139Y4613551D01*
X3269749Y4613995D01*
X3270582Y4614494D01*
X3271525Y4615105D01*
X3272635Y4615826D01*
X3273856Y4616548D01*
X3273801D01*
X3273690Y4616603D01*
X3273523Y4616714D01*
X3273246Y4616881D01*
X3272580Y4617214D01*
X3271803Y4617658D01*
X3270915Y4618213D01*
X3269971Y4618768D01*
X3269083Y4619378D01*
X3268306Y4619933D01*
X3270471Y4622986D01*
X3270526Y4622930D01*
X3270637Y4622875D01*
X3270804Y4622708D01*
X3271081Y4622486D01*
X3271747Y4621987D01*
X3272524Y4621321D01*
X3273357Y4620599D01*
X3274134Y4619878D01*
X3274855Y4619212D01*
X3275188Y4618934D01*
X3275410Y4618657D01*
Y4618712D01*
X3275466Y4618823D01*
Y4618990D01*
X3275521Y4619212D01*
X3275577Y4619545D01*
X3275688Y4619878D01*
X3275854Y4620710D01*
X3276076Y4621709D01*
X3276298Y4622764D01*
X3276909Y4625039D01*
X3280627Y4623874D01*
D02*
G37*
G36*
X2889722D02*
Y4623818D01*
X2889666Y4623707D01*
X2889555Y4623485D01*
X2889500Y4623208D01*
X2889333Y4622875D01*
X2889167Y4622431D01*
X2888834Y4621543D01*
X2888445Y4620544D01*
X2888001Y4619545D01*
X2887557Y4618601D01*
X2887169Y4617824D01*
X2887224D01*
X2887391D01*
X2887613Y4617880D01*
X2887946D01*
X2888334Y4617935D01*
X2888778Y4617991D01*
X2889777Y4618046D01*
X2890832Y4618157D01*
X2891942Y4618268D01*
X2892885Y4618324D01*
X2893329D01*
X2893718D01*
Y4614550D01*
X2893662D01*
X2893607D01*
X2893440D01*
X2893274D01*
X2892663Y4614605D01*
X2891942Y4614661D01*
X2890998Y4614772D01*
X2889833Y4614827D01*
X2888556Y4614994D01*
X2887169Y4615160D01*
Y4615105D01*
X2887224Y4615049D01*
X2887280Y4614883D01*
X2887391Y4614661D01*
X2887668Y4614106D01*
X2888001Y4613384D01*
X2888390Y4612496D01*
X2888834Y4611442D01*
X2889278Y4610276D01*
X2889722Y4609000D01*
X2886003Y4607779D01*
Y4607834D01*
X2885948Y4607945D01*
X2885892Y4608112D01*
X2885837Y4608334D01*
X2885726Y4608667D01*
X2885615Y4609000D01*
X2885393Y4609832D01*
X2885171Y4610831D01*
X2884893Y4611941D01*
X2884671Y4613107D01*
X2884505Y4614328D01*
X2884449Y4614272D01*
X2884227Y4614050D01*
X2883894Y4613662D01*
X2883395Y4613162D01*
X2882673Y4612496D01*
X2881841Y4611775D01*
X2880786Y4610831D01*
X2879565Y4609832D01*
X2877401Y4612940D01*
X2877512Y4612996D01*
X2877789Y4613218D01*
X2878233Y4613551D01*
X2878844Y4613995D01*
X2879676Y4614494D01*
X2880620Y4615105D01*
X2881730Y4615826D01*
X2882951Y4616548D01*
X2882895D01*
X2882784Y4616603D01*
X2882618Y4616714D01*
X2882340Y4616881D01*
X2881674Y4617214D01*
X2880897Y4617658D01*
X2880009Y4618213D01*
X2879066Y4618768D01*
X2878178Y4619378D01*
X2877401Y4619933D01*
X2879565Y4622986D01*
X2879621Y4622930D01*
X2879732Y4622875D01*
X2879898Y4622708D01*
X2880176Y4622486D01*
X2880842Y4621987D01*
X2881619Y4621321D01*
X2882451Y4620599D01*
X2883228Y4619878D01*
X2883950Y4619212D01*
X2884283Y4618934D01*
X2884505Y4618657D01*
Y4618712D01*
X2884560Y4618823D01*
Y4618990D01*
X2884616Y4619212D01*
X2884671Y4619545D01*
X2884782Y4619878D01*
X2884949Y4620710D01*
X2885171Y4621709D01*
X2885393Y4622764D01*
X2886003Y4625039D01*
X2889722Y4623874D01*
D02*
G37*
G36*
X2480853D02*
Y4623818D01*
X2480798Y4623707D01*
X2480686Y4623485D01*
X2480631Y4623208D01*
X2480465Y4622875D01*
X2480298Y4622431D01*
X2479965Y4621543D01*
X2479577Y4620544D01*
X2479133Y4619545D01*
X2478689Y4618601D01*
X2478300Y4617824D01*
X2478356D01*
X2478522D01*
X2478744Y4617880D01*
X2479077D01*
X2479465Y4617935D01*
X2479910Y4617991D01*
X2480909Y4618046D01*
X2481963Y4618157D01*
X2483073Y4618268D01*
X2484017Y4618324D01*
X2484461D01*
X2484849D01*
Y4614550D01*
X2484794D01*
X2484738D01*
X2484572D01*
X2484405D01*
X2483794Y4614605D01*
X2483073Y4614661D01*
X2482130Y4614772D01*
X2480964Y4614827D01*
X2479688Y4614994D01*
X2478300Y4615160D01*
Y4615105D01*
X2478356Y4615049D01*
X2478411Y4614883D01*
X2478522Y4614661D01*
X2478800Y4614106D01*
X2479133Y4613384D01*
X2479521Y4612496D01*
X2479965Y4611442D01*
X2480409Y4610276D01*
X2480853Y4609000D01*
X2477135Y4607779D01*
Y4607834D01*
X2477079Y4607945D01*
X2477023Y4608112D01*
X2476968Y4608334D01*
X2476857Y4608667D01*
X2476746Y4609000D01*
X2476524Y4609832D01*
X2476302Y4610831D01*
X2476024Y4611941D01*
X2475802Y4613107D01*
X2475636Y4614328D01*
X2475581Y4614272D01*
X2475358Y4614050D01*
X2475026Y4613662D01*
X2474526Y4613162D01*
X2473805Y4612496D01*
X2472972Y4611775D01*
X2471918Y4610831D01*
X2470697Y4609832D01*
X2468532Y4612940D01*
X2468643Y4612996D01*
X2468921Y4613218D01*
X2469365Y4613551D01*
X2469975Y4613995D01*
X2470807Y4614494D01*
X2471751Y4615105D01*
X2472861Y4615826D01*
X2474082Y4616548D01*
X2474026D01*
X2473916Y4616603D01*
X2473749Y4616714D01*
X2473472Y4616881D01*
X2472805Y4617214D01*
X2472028Y4617658D01*
X2471140Y4618213D01*
X2470197Y4618768D01*
X2469309Y4619378D01*
X2468532Y4619933D01*
X2470697Y4622986D01*
X2470752Y4622930D01*
X2470863Y4622875D01*
X2471030Y4622708D01*
X2471307Y4622486D01*
X2471973Y4621987D01*
X2472750Y4621321D01*
X2473582Y4620599D01*
X2474360Y4619878D01*
X2475081Y4619212D01*
X2475414Y4618934D01*
X2475636Y4618657D01*
Y4618712D01*
X2475691Y4618823D01*
Y4618990D01*
X2475747Y4619212D01*
X2475802Y4619545D01*
X2475914Y4619878D01*
X2476080Y4620710D01*
X2476302Y4621709D01*
X2476524Y4622764D01*
X2477135Y4625039D01*
X2480853Y4623874D01*
D02*
G37*
G36*
X2020496D02*
Y4623818D01*
X2020440Y4623707D01*
X2020329Y4623485D01*
X2020274Y4623208D01*
X2020107Y4622875D01*
X2019941Y4622431D01*
X2019608Y4621543D01*
X2019219Y4620544D01*
X2018775Y4619545D01*
X2018331Y4618601D01*
X2017943Y4617824D01*
X2017998D01*
X2018165D01*
X2018387Y4617880D01*
X2018720D01*
X2019108Y4617935D01*
X2019552Y4617991D01*
X2020551Y4618046D01*
X2021606Y4618157D01*
X2022716Y4618268D01*
X2023659Y4618324D01*
X2024103D01*
X2024492D01*
Y4614550D01*
X2024436D01*
X2024381D01*
X2024214D01*
X2024048D01*
X2023437Y4614605D01*
X2022716Y4614661D01*
X2021772Y4614772D01*
X2020607Y4614827D01*
X2019330Y4614994D01*
X2017943Y4615160D01*
Y4615105D01*
X2017998Y4615049D01*
X2018054Y4614883D01*
X2018165Y4614661D01*
X2018442Y4614106D01*
X2018775Y4613384D01*
X2019164Y4612496D01*
X2019608Y4611442D01*
X2020052Y4610276D01*
X2020496Y4609000D01*
X2016777Y4607779D01*
Y4607834D01*
X2016722Y4607945D01*
X2016666Y4608112D01*
X2016611Y4608334D01*
X2016500Y4608667D01*
X2016389Y4609000D01*
X2016167Y4609832D01*
X2015945Y4610831D01*
X2015667Y4611941D01*
X2015445Y4613107D01*
X2015279Y4614328D01*
X2015223Y4614272D01*
X2015001Y4614050D01*
X2014668Y4613662D01*
X2014169Y4613162D01*
X2013447Y4612496D01*
X2012615Y4611775D01*
X2011560Y4610831D01*
X2010339Y4609832D01*
X2008175Y4612940D01*
X2008286Y4612996D01*
X2008563Y4613218D01*
X2009007Y4613551D01*
X2009618Y4613995D01*
X2010450Y4614494D01*
X2011394Y4615105D01*
X2012504Y4615826D01*
X2013725Y4616548D01*
X2013669D01*
X2013558Y4616603D01*
X2013392Y4616714D01*
X2013114Y4616881D01*
X2012448Y4617214D01*
X2011671Y4617658D01*
X2010783Y4618213D01*
X2009840Y4618768D01*
X2008952Y4619378D01*
X2008175Y4619933D01*
X2010339Y4622986D01*
X2010395Y4622930D01*
X2010506Y4622875D01*
X2010672Y4622708D01*
X2010950Y4622486D01*
X2011616Y4621987D01*
X2012393Y4621321D01*
X2013225Y4620599D01*
X2014002Y4619878D01*
X2014724Y4619212D01*
X2015057Y4618934D01*
X2015279Y4618657D01*
Y4618712D01*
X2015334Y4618823D01*
Y4618990D01*
X2015390Y4619212D01*
X2015445Y4619545D01*
X2015556Y4619878D01*
X2015723Y4620710D01*
X2015945Y4621709D01*
X2016167Y4622764D01*
X2016777Y4625039D01*
X2020496Y4623874D01*
D02*
G37*
G36*
X1590509D02*
Y4623818D01*
X1590454Y4623707D01*
X1590343Y4623485D01*
X1590287Y4623208D01*
X1590121Y4622875D01*
X1589954Y4622431D01*
X1589621Y4621543D01*
X1589233Y4620544D01*
X1588789Y4619545D01*
X1588345Y4618601D01*
X1587956Y4617824D01*
X1588012D01*
X1588178D01*
X1588400Y4617880D01*
X1588733D01*
X1589122Y4617935D01*
X1589566Y4617991D01*
X1590565Y4618046D01*
X1591619Y4618157D01*
X1592729Y4618268D01*
X1593673Y4618324D01*
X1594117D01*
X1594505D01*
Y4614550D01*
X1594450D01*
X1594394D01*
X1594228D01*
X1594061D01*
X1593451Y4614605D01*
X1592729Y4614661D01*
X1591786Y4614772D01*
X1590620Y4614827D01*
X1589344Y4614994D01*
X1587956Y4615160D01*
Y4615105D01*
X1588012Y4615049D01*
X1588067Y4614883D01*
X1588178Y4614661D01*
X1588456Y4614106D01*
X1588789Y4613384D01*
X1589177Y4612496D01*
X1589621Y4611442D01*
X1590065Y4610276D01*
X1590509Y4609000D01*
X1586791Y4607779D01*
Y4607834D01*
X1586735Y4607945D01*
X1586680Y4608112D01*
X1586624Y4608334D01*
X1586513Y4608667D01*
X1586402Y4609000D01*
X1586180Y4609832D01*
X1585958Y4610831D01*
X1585681Y4611941D01*
X1585459Y4613107D01*
X1585292Y4614328D01*
X1585237Y4614272D01*
X1585015Y4614050D01*
X1584682Y4613662D01*
X1584182Y4613162D01*
X1583461Y4612496D01*
X1582628Y4611775D01*
X1581574Y4610831D01*
X1580353Y4609832D01*
X1578188Y4612940D01*
X1578299Y4612996D01*
X1578577Y4613218D01*
X1579021Y4613551D01*
X1579631Y4613995D01*
X1580464Y4614494D01*
X1581407Y4615105D01*
X1582517Y4615826D01*
X1583738Y4616548D01*
X1583683D01*
X1583572Y4616603D01*
X1583405Y4616714D01*
X1583128Y4616881D01*
X1582462Y4617214D01*
X1581685Y4617658D01*
X1580797Y4618213D01*
X1579853Y4618768D01*
X1578965Y4619378D01*
X1578188Y4619933D01*
X1580353Y4622986D01*
X1580408Y4622930D01*
X1580519Y4622875D01*
X1580686Y4622708D01*
X1580963Y4622486D01*
X1581629Y4621987D01*
X1582406Y4621321D01*
X1583239Y4620599D01*
X1584016Y4619878D01*
X1584737Y4619212D01*
X1585070Y4618934D01*
X1585292Y4618657D01*
Y4618712D01*
X1585348Y4618823D01*
Y4618990D01*
X1585403Y4619212D01*
X1585459Y4619545D01*
X1585570Y4619878D01*
X1585736Y4620710D01*
X1585958Y4621709D01*
X1586180Y4622764D01*
X1586791Y4625039D01*
X1590509Y4623874D01*
D02*
G37*
G36*
X1157438D02*
Y4623818D01*
X1157383Y4623707D01*
X1157272Y4623485D01*
X1157216Y4623208D01*
X1157050Y4622875D01*
X1156883Y4622431D01*
X1156550Y4621543D01*
X1156162Y4620544D01*
X1155718Y4619545D01*
X1155274Y4618601D01*
X1154885Y4617824D01*
X1154941D01*
X1155107D01*
X1155329Y4617880D01*
X1155662D01*
X1156051Y4617935D01*
X1156495Y4617991D01*
X1157494Y4618046D01*
X1158548Y4618157D01*
X1159658Y4618268D01*
X1160602Y4618324D01*
X1161046D01*
X1161434D01*
Y4614550D01*
X1161379D01*
X1161323D01*
X1161157D01*
X1160990D01*
X1160380Y4614605D01*
X1159658Y4614661D01*
X1158715Y4614772D01*
X1157549Y4614827D01*
X1156273Y4614994D01*
X1154885Y4615160D01*
Y4615105D01*
X1154941Y4615049D01*
X1154996Y4614883D01*
X1155107Y4614661D01*
X1155385Y4614106D01*
X1155718Y4613384D01*
X1156106Y4612496D01*
X1156550Y4611442D01*
X1156994Y4610276D01*
X1157438Y4609000D01*
X1153720Y4607779D01*
Y4607834D01*
X1153664Y4607945D01*
X1153609Y4608112D01*
X1153553Y4608334D01*
X1153442Y4608667D01*
X1153331Y4609000D01*
X1153109Y4609832D01*
X1152887Y4610831D01*
X1152610Y4611941D01*
X1152388Y4613107D01*
X1152221Y4614328D01*
X1152166Y4614272D01*
X1151944Y4614050D01*
X1151611Y4613662D01*
X1151111Y4613162D01*
X1150390Y4612496D01*
X1149557Y4611775D01*
X1148503Y4610831D01*
X1147282Y4609832D01*
X1145117Y4612940D01*
X1145228Y4612996D01*
X1145506Y4613218D01*
X1145950Y4613551D01*
X1146560Y4613995D01*
X1147393Y4614494D01*
X1148336Y4615105D01*
X1149446Y4615826D01*
X1150667Y4616548D01*
X1150612D01*
X1150501Y4616603D01*
X1150334Y4616714D01*
X1150057Y4616881D01*
X1149391Y4617214D01*
X1148614Y4617658D01*
X1147726Y4618213D01*
X1146782Y4618768D01*
X1145894Y4619378D01*
X1145117Y4619933D01*
X1147282Y4622986D01*
X1147337Y4622930D01*
X1147448Y4622875D01*
X1147615Y4622708D01*
X1147892Y4622486D01*
X1148558Y4621987D01*
X1149335Y4621321D01*
X1150168Y4620599D01*
X1150945Y4619878D01*
X1151666Y4619212D01*
X1151999Y4618934D01*
X1152221Y4618657D01*
Y4618712D01*
X1152277Y4618823D01*
Y4618990D01*
X1152332Y4619212D01*
X1152388Y4619545D01*
X1152499Y4619878D01*
X1152665Y4620710D01*
X1152887Y4621709D01*
X1153109Y4622764D01*
X1153720Y4625039D01*
X1157438Y4623874D01*
D02*
G37*
G36*
X736148D02*
Y4623818D01*
X736093Y4623707D01*
X735982Y4623485D01*
X735926Y4623208D01*
X735760Y4622875D01*
X735593Y4622431D01*
X735260Y4621543D01*
X734872Y4620544D01*
X734428Y4619545D01*
X733984Y4618601D01*
X733595Y4617824D01*
X733651D01*
X733817D01*
X734039Y4617880D01*
X734372D01*
X734761Y4617935D01*
X735205Y4617991D01*
X736204Y4618046D01*
X737258Y4618157D01*
X738368Y4618268D01*
X739312Y4618324D01*
X739756D01*
X740144D01*
Y4614550D01*
X740089D01*
X740033D01*
X739867D01*
X739700D01*
X739090Y4614605D01*
X738368Y4614661D01*
X737425Y4614772D01*
X736259Y4614827D01*
X734983Y4614994D01*
X733595Y4615160D01*
Y4615105D01*
X733651Y4615049D01*
X733706Y4614883D01*
X733817Y4614661D01*
X734095Y4614106D01*
X734428Y4613384D01*
X734816Y4612496D01*
X735260Y4611442D01*
X735704Y4610276D01*
X736148Y4609000D01*
X732430Y4607779D01*
Y4607834D01*
X732374Y4607945D01*
X732319Y4608112D01*
X732263Y4608334D01*
X732152Y4608667D01*
X732041Y4609000D01*
X731819Y4609832D01*
X731597Y4610831D01*
X731320Y4611941D01*
X731098Y4613107D01*
X730931Y4614328D01*
X730876Y4614272D01*
X730654Y4614050D01*
X730321Y4613662D01*
X729821Y4613162D01*
X729100Y4612496D01*
X728267Y4611775D01*
X727213Y4610831D01*
X725992Y4609832D01*
X723827Y4612940D01*
X723938Y4612996D01*
X724216Y4613218D01*
X724660Y4613551D01*
X725270Y4613995D01*
X726103Y4614494D01*
X727046Y4615105D01*
X728156Y4615826D01*
X729377Y4616548D01*
X729322D01*
X729211Y4616603D01*
X729044Y4616714D01*
X728767Y4616881D01*
X728101Y4617214D01*
X727324Y4617658D01*
X726436Y4618213D01*
X725492Y4618768D01*
X724604Y4619378D01*
X723827Y4619933D01*
X725992Y4622986D01*
X726047Y4622930D01*
X726158Y4622875D01*
X726325Y4622708D01*
X726602Y4622486D01*
X727268Y4621987D01*
X728045Y4621321D01*
X728878Y4620599D01*
X729655Y4619878D01*
X730376Y4619212D01*
X730709Y4618934D01*
X730931Y4618657D01*
Y4618712D01*
X730987Y4618823D01*
Y4618990D01*
X731042Y4619212D01*
X731098Y4619545D01*
X731209Y4619878D01*
X731375Y4620710D01*
X731597Y4621709D01*
X731819Y4622764D01*
X732430Y4625039D01*
X736148Y4623874D01*
D02*
G37*
G36*
X2708867Y529386D02*
Y529330D01*
X2708811Y529219D01*
X2708700Y528997D01*
X2708645Y528720D01*
X2708478Y528387D01*
X2708312Y527943D01*
X2707979Y527055D01*
X2707590Y526056D01*
X2707146Y525057D01*
X2706702Y524113D01*
X2706314Y523336D01*
X2706369D01*
X2706536D01*
X2706758Y523392D01*
X2707091D01*
X2707479Y523447D01*
X2707923Y523503D01*
X2708922Y523558D01*
X2709977Y523669D01*
X2711087Y523780D01*
X2712030Y523836D01*
X2712474D01*
X2712863D01*
Y520062D01*
X2712807D01*
X2712752D01*
X2712585D01*
X2712419D01*
X2711808Y520117D01*
X2711087Y520173D01*
X2710143Y520284D01*
X2708978Y520339D01*
X2707701Y520506D01*
X2706314Y520672D01*
Y520617D01*
X2706369Y520561D01*
X2706425Y520395D01*
X2706536Y520173D01*
X2706813Y519618D01*
X2707146Y518896D01*
X2707535Y518008D01*
X2707979Y516954D01*
X2708423Y515788D01*
X2708867Y514512D01*
X2705148Y513291D01*
Y513346D01*
X2705093Y513457D01*
X2705037Y513624D01*
X2704982Y513846D01*
X2704871Y514179D01*
X2704760Y514512D01*
X2704538Y515344D01*
X2704316Y516343D01*
X2704038Y517453D01*
X2703816Y518619D01*
X2703650Y519840D01*
X2703594Y519784D01*
X2703372Y519562D01*
X2703039Y519174D01*
X2702540Y518674D01*
X2701818Y518008D01*
X2700986Y517287D01*
X2699931Y516343D01*
X2698710Y515344D01*
X2696546Y518452D01*
X2696657Y518508D01*
X2696934Y518730D01*
X2697378Y519063D01*
X2697989Y519507D01*
X2698821Y520006D01*
X2699765Y520617D01*
X2700875Y521338D01*
X2702096Y522060D01*
X2702040D01*
X2701929Y522115D01*
X2701763Y522226D01*
X2701485Y522393D01*
X2700819Y522726D01*
X2700042Y523170D01*
X2699154Y523725D01*
X2698211Y524280D01*
X2697323Y524890D01*
X2696546Y525445D01*
X2698710Y528498D01*
X2698766Y528442D01*
X2698877Y528387D01*
X2699043Y528220D01*
X2699321Y527998D01*
X2699987Y527499D01*
X2700764Y526833D01*
X2701596Y526111D01*
X2702373Y525390D01*
X2703095Y524724D01*
X2703428Y524446D01*
X2703650Y524169D01*
Y524224D01*
X2703705Y524335D01*
Y524502D01*
X2703761Y524724D01*
X2703816Y525057D01*
X2703927Y525390D01*
X2704094Y526222D01*
X2704316Y527221D01*
X2704538Y528276D01*
X2705148Y530551D01*
X2708867Y529386D01*
D02*
G37*
%LPC*%
G36*
X3890902Y757860D02*
X3889809Y756766D01*
X3888715Y753486D01*
X3885434Y746924D01*
X3884341Y744737D01*
X3882153Y740362D01*
X3878873Y733801D01*
X3874498Y725052D01*
X3873405Y722865D01*
X3872311Y719584D01*
X3870124Y716303D01*
X3869030Y714116D01*
X3885434D01*
X3901838Y716303D01*
X3900745Y718490D01*
Y719584D01*
X3899651Y720678D01*
X3898557Y727239D01*
Y728333D01*
Y730520D01*
X3897464Y737082D01*
Y738175D01*
X3896370Y740362D01*
X3894183Y748018D01*
X3891996Y754579D01*
X3890902Y756766D01*
Y757860D01*
D02*
G37*
G36*
X3762951Y764422D02*
X3733424D01*
X3732330Y751298D01*
Y750205D01*
Y749111D01*
X3731237Y743643D01*
X3730143Y739269D01*
Y737082D01*
Y735988D01*
X3732330D01*
X3736705Y734894D01*
X3752015D01*
X3756389Y735988D01*
X3758577D01*
X3759670Y737082D01*
X3760764Y739269D01*
X3762951Y743643D01*
Y746924D01*
X3764045Y751298D01*
Y752392D01*
Y753486D01*
X3765138Y757860D01*
X3764045Y762234D01*
X3762951Y764422D01*
D02*
G37*
G36*
X3652497Y762234D02*
X3637187D01*
X3625157Y743643D01*
Y742550D01*
X3622970Y741456D01*
X3619689Y735988D01*
X3616409Y730520D01*
X3614221Y729426D01*
Y728333D01*
X3613128Y730520D01*
X3610941Y734894D01*
X3608753Y738175D01*
X3606566Y743643D01*
X3597817Y762234D01*
X3565009D01*
Y760047D01*
X3566103Y758954D01*
Y756766D01*
X3568290Y753486D01*
X3570477Y749111D01*
X3572665Y742550D01*
X3577039Y734894D01*
X3589069Y711929D01*
X3585788Y695525D01*
Y694431D01*
Y693338D01*
Y687870D01*
X3584694Y682402D01*
Y681308D01*
Y680214D01*
X3612034D01*
X3614221Y695525D01*
X3616409Y709742D01*
X3632813Y733801D01*
X3633906Y734894D01*
X3635000Y737082D01*
X3640468Y744737D01*
X3641561Y745830D01*
X3642655Y748018D01*
X3644842Y751298D01*
X3647029Y754579D01*
Y755673D01*
X3648123Y756766D01*
X3649217Y757860D01*
X3650310Y758954D01*
X3652497Y762234D01*
D02*
G37*
G36*
X3633906Y695525D02*
X3628438D01*
X3627345Y694431D01*
X3626251Y693338D01*
X3624064Y690057D01*
X3622970Y686776D01*
Y685682D01*
X3624064Y684589D01*
X3625157Y682402D01*
X3627345Y680214D01*
X3630625D01*
X3633906Y682402D01*
X3637187Y686776D01*
Y687870D01*
X3638281Y690057D01*
X3637187Y693338D01*
X3633906Y695525D01*
D02*
G37*
G36*
X3536576Y762234D02*
X3509236D01*
X3508142Y761141D01*
X3507049D01*
Y760047D01*
Y758954D01*
Y755673D01*
X3505955Y750205D01*
X3504861Y743643D01*
X3503768Y732707D01*
X3502674Y719584D01*
Y717397D01*
X3501581Y713022D01*
Y707554D01*
X3500487Y699899D01*
X3499393Y692244D01*
Y686776D01*
X3498300Y682402D01*
Y680214D01*
X3560635D01*
Y684589D01*
Y685682D01*
X3561729Y687870D01*
Y691150D01*
Y692244D01*
Y693338D01*
X3527827D01*
Y694431D01*
Y696618D01*
Y700993D01*
X3528921Y707554D01*
X3530014Y716303D01*
X3531108Y728333D01*
X3533295Y742550D01*
X3536576Y760047D01*
Y762234D01*
D02*
G37*
G36*
X3480802D02*
X3437058D01*
X3431590Y761141D01*
X3426122D01*
X3422841Y760047D01*
X3420654Y758954D01*
X3419561Y757860D01*
X3416280Y756766D01*
X3414093Y752392D01*
X3411905Y746924D01*
Y745830D01*
X3410812Y743643D01*
X3409718Y738175D01*
X3408625Y732707D01*
X3407531Y725052D01*
X3406437Y716303D01*
X3405344Y696618D01*
Y695525D01*
Y692244D01*
Y691150D01*
X3407531Y687870D01*
X3409718Y684589D01*
X3412999Y682402D01*
X3414093D01*
X3416280Y681308D01*
X3421748D01*
X3427216Y680214D01*
X3456743D01*
X3466585Y681308D01*
X3470960D01*
X3473147Y682402D01*
X3474241Y683495D01*
X3477521Y685682D01*
X3481896Y691150D01*
X3485177Y698806D01*
Y699899D01*
Y702086D01*
X3486270Y705367D01*
Y708648D01*
X3487364Y714116D01*
X3488457Y720678D01*
Y721771D01*
Y725052D01*
X3489551Y729426D01*
Y734894D01*
Y746924D01*
Y751298D01*
X3488457Y754579D01*
Y755673D01*
X3487364Y756766D01*
X3485177Y758954D01*
X3481896Y760047D01*
X3480802Y762234D01*
D02*
G37*
G36*
X3373629D02*
X3328792D01*
X3324417Y761141D01*
X3323324D01*
Y760047D01*
Y758954D01*
X3322230Y755673D01*
Y750205D01*
X3321137Y743643D01*
X3320043Y732707D01*
X3317856Y719584D01*
Y717397D01*
X3316762Y713022D01*
X3315669Y707554D01*
Y699899D01*
X3314575Y692244D01*
X3313481Y686776D01*
X3312388Y682402D01*
Y680214D01*
X3340821D01*
Y682402D01*
Y684589D01*
Y688963D01*
X3341915Y695525D01*
Y696618D01*
Y697712D01*
X3343009Y702086D01*
Y707554D01*
Y708648D01*
Y709742D01*
X3382378D01*
X3383472Y710835D01*
X3386753Y713022D01*
X3391127Y716303D01*
X3393314Y721771D01*
X3394408Y725052D01*
X3395501Y727239D01*
Y730520D01*
X3396595Y735988D01*
Y742550D01*
Y743643D01*
Y746924D01*
Y751298D01*
Y754579D01*
X3395501Y755673D01*
X3394408Y756766D01*
X3391127Y758954D01*
X3387846Y760047D01*
X3386753D01*
X3385659Y761141D01*
X3379097D01*
X3373629Y762234D01*
D02*
G37*
G36*
X3243491Y762234D02*
X3215057D01*
X3209589Y721771D01*
Y719584D01*
X3208496Y715210D01*
Y709741D01*
X3207402Y702086D01*
X3206309Y694431D01*
Y687870D01*
X3205215Y682402D01*
Y680214D01*
X3266457D01*
X3268644Y684589D01*
Y685682D01*
Y688963D01*
Y690057D01*
Y691150D01*
Y692244D01*
Y693337D01*
X3234742D01*
Y694431D01*
Y696618D01*
Y700993D01*
X3235836Y707554D01*
X3236929Y717397D01*
X3238023Y728333D01*
X3240210Y742549D01*
X3243491Y760047D01*
Y762234D01*
D02*
G37*
G36*
X3175688D02*
X3147254D01*
Y760047D01*
Y758953D01*
X3146161Y757860D01*
X3143973Y754579D01*
X3140693Y750205D01*
X3136318Y742549D01*
X3130850Y733801D01*
X3123195Y720678D01*
X3122101Y718490D01*
X3119914Y714116D01*
X3116633Y707554D01*
X3112259Y700993D01*
X3107885Y693337D01*
X3104604Y686776D01*
X3102417Y682402D01*
X3101323Y680214D01*
X3114446D01*
X3121008Y691150D01*
X3126476Y703180D01*
X3160377D01*
X3163658Y691150D01*
X3165845Y680214D01*
X3197560D01*
Y681308D01*
Y682402D01*
X3196466Y685682D01*
X3195373Y690057D01*
X3193185Y697712D01*
X3189905Y707554D01*
X3186624Y720678D01*
Y722865D01*
X3184437Y727239D01*
X3183343Y733801D01*
X3181156Y741456D01*
X3178969Y749111D01*
X3177875Y755673D01*
X3175688Y760047D01*
Y762234D01*
D02*
G37*
G36*
X3098042D02*
X3061953D01*
X3053205Y761141D01*
X3049924D01*
X3047737Y760047D01*
X3046643D01*
X3044456Y758953D01*
X3042269Y755673D01*
X3038988Y751298D01*
Y750205D01*
X3037894Y749111D01*
Y745830D01*
X3036801Y742549D01*
X3035707Y737082D01*
X3034613Y730520D01*
X3033520Y721771D01*
Y720678D01*
X3032426Y717397D01*
Y713022D01*
X3031333Y707554D01*
Y695525D01*
Y691150D01*
X3032426Y688963D01*
Y687870D01*
X3033520Y685682D01*
X3036801Y683495D01*
X3041175Y680214D01*
X3092574D01*
Y681308D01*
Y682402D01*
Y685682D01*
Y686776D01*
X3093668Y688963D01*
Y692244D01*
Y693337D01*
X3061953D01*
X3059766Y695525D01*
Y696618D01*
X3058673D01*
Y697712D01*
Y700993D01*
X3059766Y704274D01*
Y708648D01*
Y714116D01*
X3060860Y721771D01*
Y722865D01*
X3061953Y725052D01*
Y729426D01*
X3063047Y733801D01*
Y738175D01*
X3064141Y742549D01*
Y744737D01*
Y745830D01*
Y746924D01*
X3066328Y748018D01*
X3098042D01*
X3099136Y749111D01*
X3100229D01*
Y750205D01*
Y752392D01*
Y754579D01*
Y755673D01*
X3101323Y757860D01*
Y760047D01*
Y761141D01*
X3100229D01*
X3098042Y762234D01*
D02*
G37*
%LPD*%
G36*
X3633906Y693338D02*
X3635000Y692244D01*
X3636093Y691150D01*
Y688963D01*
Y687870D01*
X3633906Y684589D01*
X3632813Y683495D01*
X3627345Y682402D01*
X3626251Y683495D01*
X3625157Y685682D01*
X3624064Y687870D01*
Y688963D01*
X3625157Y690057D01*
X3626251Y692244D01*
X3629532Y693338D01*
X3630625Y694431D01*
X3632813D01*
X3633906Y693338D01*
D02*
G37*
%LPC*%
G36*
X3632813Y692244D02*
X3629532D01*
X3628438Y690057D01*
X3627345Y687870D01*
Y686776D01*
Y685682D01*
Y684589D01*
X3628438D01*
Y685682D01*
Y687870D01*
Y688963D01*
X3629532D01*
X3630625Y686776D01*
X3631719Y685682D01*
Y684589D01*
X3632813D01*
Y686776D01*
Y687870D01*
X3633906Y688963D01*
Y690057D01*
X3632813Y691150D01*
Y692244D01*
D02*
G37*
%LPD*%
G36*
X3631719Y690057D02*
X3630625Y688963D01*
X3629532D01*
Y691150D01*
X3631719D01*
Y690057D01*
D02*
G37*
G36*
X3462211Y746924D02*
X3463305Y744737D01*
Y743643D01*
Y741456D01*
X3462211Y738175D01*
Y733801D01*
X3461117Y727239D01*
X3460024Y719584D01*
Y718490D01*
Y716303D01*
X3458930Y711929D01*
X3457837Y707554D01*
X3456743Y699899D01*
X3455649Y696618D01*
Y695525D01*
X3454556Y694431D01*
X3453462D01*
X3450181Y693338D01*
X3434871D01*
Y694431D01*
X3433777Y695525D01*
Y697712D01*
Y700993D01*
Y705367D01*
Y711929D01*
X3434871Y720678D01*
Y721771D01*
X3435965Y723958D01*
Y728333D01*
X3437058Y732707D01*
X3438152Y741456D01*
Y743643D01*
Y745830D01*
X3439245Y746924D01*
X3442526Y748018D01*
X3461117D01*
X3462211Y746924D01*
D02*
G37*
G36*
X3368161D02*
Y745830D01*
Y744737D01*
Y741456D01*
X3367068Y735988D01*
Y734894D01*
Y730520D01*
Y727239D01*
X3365974Y725052D01*
Y722865D01*
X3363787Y721771D01*
X3346289D01*
Y722865D01*
Y723958D01*
Y725052D01*
Y729426D01*
X3347383Y735988D01*
Y738175D01*
X3348477Y741456D01*
Y745830D01*
X3349570Y748018D01*
X3368161D01*
Y746924D01*
D02*
G37*
G36*
X3150535Y741456D02*
X3151629Y737082D01*
X3152722Y733801D01*
X3153816Y729426D01*
X3154909Y727239D01*
X3156003Y722865D01*
X3157097Y717397D01*
Y716303D01*
Y715210D01*
X3152722D01*
X3146161Y716303D01*
X3135225D01*
X3142880Y729426D01*
Y730520D01*
X3143973Y731614D01*
X3147254Y735988D01*
X3149441Y740362D01*
X3150535Y742549D01*
Y741456D01*
D02*
G37*
%LPC*%
G36*
X4303189Y633190D02*
X4297721D01*
X4295534Y632096D01*
X4293347Y629909D01*
X4292253Y628815D01*
X4290066Y625534D01*
X4288973Y621160D01*
Y617879D01*
X4290066Y614598D01*
X4291160Y613505D01*
X4293347Y611318D01*
X4295534Y608037D01*
X4296628Y606943D01*
X4297721Y605850D01*
X4298815Y602569D01*
X4299909Y600382D01*
Y599288D01*
Y598194D01*
X4297721Y596007D01*
X4295534Y594914D01*
X4292253D01*
Y596007D01*
X4291160Y599288D01*
Y600382D01*
X4285692D01*
Y599288D01*
Y597101D01*
X4286785Y596007D01*
Y593820D01*
X4287879Y591633D01*
X4291160Y589446D01*
X4293347Y588352D01*
X4296628D01*
X4299909Y589446D01*
X4303189Y591633D01*
X4304283Y592726D01*
X4305377Y594914D01*
X4306470Y598194D01*
Y602569D01*
Y603663D01*
X4305377Y605850D01*
X4304283Y609130D01*
X4301002Y612411D01*
X4299909Y613505D01*
X4298815Y615692D01*
X4296628Y618973D01*
X4295534Y621160D01*
Y622254D01*
Y624441D01*
X4296628Y626628D01*
X4298815Y627722D01*
X4301002D01*
X4302096Y626628D01*
X4303189Y623347D01*
X4308657D01*
Y624441D01*
Y625534D01*
Y626628D01*
X4307564Y629909D01*
X4306470Y631003D01*
X4304283Y632096D01*
X4303189Y633190D01*
D02*
G37*
G36*
X4063691D02*
X4059317D01*
X4056036Y632096D01*
X4053849Y629909D01*
X4052755Y628815D01*
X4050568Y625534D01*
X4049474Y621160D01*
X4050568Y617879D01*
X4051661Y614598D01*
X4052755Y613505D01*
X4057129Y608037D01*
X4058223Y606943D01*
X4059317Y605850D01*
X4060410Y602569D01*
X4061504Y600382D01*
Y599288D01*
Y598194D01*
X4060410Y596007D01*
X4058223Y594914D01*
X4053849D01*
Y596007D01*
X4051661Y599288D01*
Y600382D01*
X4046193D01*
Y599288D01*
Y597101D01*
X4047287Y596007D01*
Y593820D01*
X4048381Y591633D01*
X4052755Y589446D01*
X4054942Y588352D01*
X4057129D01*
X4060410Y589446D01*
X4063691Y591633D01*
X4064785Y592726D01*
X4065878Y594914D01*
X4066972Y598194D01*
X4068065Y602569D01*
Y603663D01*
X4066972Y605850D01*
X4064785Y609130D01*
X4061504Y612411D01*
X4060410Y613505D01*
X4059317Y615692D01*
X4058223Y618973D01*
X4057129Y621160D01*
Y622254D01*
Y624441D01*
X4058223Y626628D01*
X4059317Y627722D01*
X4061504D01*
X4062597Y626628D01*
X4063691Y623347D01*
X4070253D01*
X4071346Y624441D01*
Y625534D01*
Y626628D01*
X4070253Y627722D01*
X4068065Y629909D01*
X4066972Y631003D01*
X4064785Y632096D01*
X4063691Y633190D01*
D02*
G37*
G36*
X3719207Y633190D02*
X3713739D01*
X3711552Y632096D01*
X3710458Y631002D01*
X3708271Y629909D01*
X3704990Y625534D01*
X3703897Y620066D01*
Y618973D01*
X3704990Y616786D01*
X3707177Y613505D01*
X3711552Y608037D01*
X3712645Y605850D01*
X3715926Y603662D01*
Y601475D01*
Y598194D01*
X3714833Y597101D01*
X3713739Y596007D01*
X3711552Y594914D01*
X3710458D01*
X3709365Y596007D01*
X3708271Y597101D01*
X3707177Y599288D01*
Y600382D01*
X3700616D01*
Y598194D01*
Y597101D01*
X3701709Y594914D01*
X3703897Y591633D01*
X3707177Y589446D01*
X3712645D01*
X3715926Y590539D01*
X3719207Y592726D01*
X3721394Y598194D01*
Y599288D01*
Y602569D01*
X3719207Y606943D01*
X3715926Y612411D01*
X3714833Y613505D01*
X3713739Y614598D01*
X3712645Y617879D01*
X3711552Y620066D01*
Y621160D01*
Y624441D01*
X3712645Y626628D01*
X3715926Y627722D01*
X3717020D01*
X3718113Y626628D01*
Y624441D01*
Y623347D01*
X3724675D01*
Y624441D01*
Y625534D01*
Y627722D01*
X3723581Y629909D01*
X3721394Y632096D01*
X3719207Y633190D01*
D02*
G37*
G36*
X3838409D02*
X3831848D01*
Y632096D01*
Y629909D01*
X3830754Y626628D01*
Y623347D01*
X3829661Y613505D01*
Y603662D01*
X3828567Y605850D01*
X3827473Y610224D01*
X3826380Y613505D01*
Y618973D01*
X3823099Y633190D01*
X3816537D01*
X3815444Y632096D01*
Y629909D01*
Y627722D01*
X3814350Y623347D01*
Y618973D01*
X3813257Y612411D01*
Y611318D01*
Y609130D01*
X3812163Y602569D01*
X3811069Y594914D01*
Y592726D01*
Y590539D01*
Y589446D01*
X3817631D01*
Y590539D01*
Y592726D01*
Y597101D01*
X3818725Y603662D01*
Y604756D01*
Y605850D01*
X3819818Y610224D01*
X3820912Y614598D01*
Y615692D01*
X3822005Y611318D01*
Y608037D01*
X3823099Y603662D01*
X3826380Y589446D01*
X3834035D01*
Y592726D01*
X3835129Y594914D01*
Y599288D01*
Y604756D01*
X3836222Y611318D01*
Y612411D01*
Y614598D01*
X3837316Y621160D01*
X3838409Y627722D01*
Y631002D01*
Y632096D01*
Y633190D01*
D02*
G37*
G36*
X3975109Y633190D02*
X3970735D01*
X3969641Y632096D01*
Y629909D01*
Y627722D01*
X3968548Y624441D01*
Y620067D01*
X3967454Y614598D01*
Y613505D01*
Y612411D01*
X3966361Y606943D01*
X3965267Y600382D01*
Y599288D01*
Y598194D01*
X3964173Y597101D01*
X3963080Y596007D01*
X3960893Y594914D01*
X3959799D01*
X3957612Y596007D01*
Y597101D01*
Y598194D01*
Y600382D01*
Y602569D01*
Y605850D01*
X3958705Y610224D01*
Y615692D01*
Y616786D01*
Y617879D01*
X3959799Y624441D01*
X3960893Y629909D01*
Y631003D01*
Y632096D01*
Y633190D01*
X3954331D01*
Y632096D01*
Y631003D01*
X3953237Y627722D01*
Y624441D01*
X3952144Y612411D01*
Y598194D01*
Y597101D01*
X3953237Y593820D01*
X3954331Y591633D01*
X3957612Y589446D01*
X3958705D01*
X3959799Y588352D01*
X3961986Y589446D01*
X3965267Y590539D01*
X3966361D01*
X3967454Y591633D01*
X3969641Y593820D01*
X3970735Y596007D01*
Y597101D01*
Y599288D01*
X3971829Y604756D01*
X3972922Y609130D01*
X3974016Y614598D01*
Y615692D01*
Y617879D01*
X3975109Y623347D01*
Y629909D01*
Y631003D01*
Y632096D01*
Y633190D01*
D02*
G37*
G36*
X4410362Y632096D02*
X4403801D01*
X4401613Y629909D01*
X4399426Y627722D01*
X4397239Y624441D01*
Y622254D01*
Y617879D01*
X4396145Y613505D01*
Y609130D01*
Y606943D01*
Y602569D01*
X4395052Y597101D01*
Y596007D01*
Y594914D01*
Y593820D01*
X4397239Y591633D01*
X4399426Y589446D01*
X4407081D01*
X4410362Y591633D01*
X4411456Y592726D01*
X4412549Y594914D01*
X4413643Y600382D01*
X4415830Y608037D01*
Y609130D01*
Y610224D01*
X4416924Y616786D01*
Y623347D01*
Y625534D01*
Y627722D01*
Y628815D01*
X4414737Y629909D01*
X4412549Y631003D01*
X4410362Y632096D01*
D02*
G37*
G36*
X4357869Y633190D02*
X4344746D01*
X4342559Y612411D01*
Y611318D01*
Y609130D01*
X4341465Y601475D01*
X4340372Y594914D01*
Y591633D01*
Y590539D01*
Y589446D01*
X4345840D01*
Y590539D01*
Y592726D01*
X4346933Y598194D01*
Y604756D01*
X4353495D01*
X4356776Y605850D01*
X4358963Y608037D01*
X4360057Y609130D01*
X4361150Y611318D01*
X4362244Y614598D01*
X4363337Y618973D01*
Y620067D01*
Y621160D01*
Y625534D01*
Y626628D01*
X4362244Y627722D01*
X4361150Y631003D01*
X4357869Y633190D01*
D02*
G37*
G36*
X4256165D02*
X4248509D01*
Y629909D01*
Y627722D01*
Y623347D01*
X4247416Y617879D01*
Y611318D01*
Y610224D01*
Y608037D01*
X4246322Y600382D01*
X4245229Y593820D01*
X4244135Y590539D01*
Y589446D01*
X4249603D01*
Y590539D01*
Y591633D01*
X4250697Y593820D01*
Y594914D01*
X4251790Y597101D01*
Y600382D01*
Y604756D01*
Y605850D01*
X4252884Y609130D01*
Y616786D01*
Y617879D01*
X4253977Y621160D01*
Y627722D01*
Y628815D01*
Y629909D01*
Y631003D01*
Y632096D01*
X4256165Y633190D01*
D02*
G37*
G36*
X4205859D02*
X4193829D01*
X4192736Y632096D01*
Y629909D01*
X4191642Y626628D01*
Y623347D01*
X4190549Y617879D01*
X4189455Y611318D01*
Y610224D01*
Y608037D01*
Y600382D01*
X4188361Y593820D01*
Y590539D01*
Y589446D01*
X4201485D01*
X4202578Y590539D01*
X4204765D01*
X4205859Y591633D01*
X4208046Y593820D01*
Y594914D01*
X4209140Y597101D01*
X4211327Y603663D01*
Y604756D01*
Y605850D01*
X4210233Y608037D01*
Y609130D01*
X4209140Y610224D01*
X4208046Y611318D01*
X4206953D01*
Y612411D01*
X4208046D01*
X4210233Y614598D01*
X4211327Y615692D01*
X4212421Y618973D01*
Y623347D01*
X4210233Y629909D01*
X4209140Y631003D01*
X4206953Y632096D01*
X4205859Y633190D01*
D02*
G37*
G36*
X4016666D02*
X4011198D01*
Y629909D01*
X4010105Y627722D01*
Y623347D01*
X4009011Y617879D01*
X4007917Y611318D01*
Y610224D01*
Y608037D01*
X4006824Y600382D01*
X4005730Y593820D01*
X4004637Y590539D01*
Y589446D01*
X4011198D01*
Y590539D01*
Y591633D01*
Y593820D01*
Y594914D01*
X4012292Y597101D01*
Y600382D01*
Y604756D01*
Y605850D01*
X4013385Y609130D01*
X4014479Y616786D01*
Y617879D01*
X4015573Y621160D01*
Y627722D01*
Y628815D01*
X4016666Y629909D01*
Y631003D01*
Y632096D01*
Y633190D01*
D02*
G37*
G36*
X3910587D02*
X3904025D01*
Y632096D01*
Y629909D01*
X3902932Y623347D01*
Y617879D01*
X3901838Y612411D01*
Y611318D01*
Y609130D01*
X3900745Y602569D01*
X3899651Y594914D01*
Y592726D01*
Y590539D01*
X3898557Y589446D01*
X3916055D01*
Y591633D01*
X3917149D01*
X3918242Y592726D01*
Y593820D01*
Y594914D01*
Y596007D01*
X3906213D01*
Y597101D01*
Y599288D01*
X3907306Y604756D01*
X3908400Y609130D01*
X3909493Y614598D01*
Y615692D01*
Y616786D01*
X3910587Y622254D01*
Y627722D01*
Y632096D01*
Y633190D01*
D02*
G37*
G36*
X3774981Y633190D02*
X3766232D01*
Y631002D01*
X3765138Y628815D01*
Y625534D01*
X3762951Y618973D01*
X3760764Y612411D01*
X3758577Y602569D01*
X3754202Y590539D01*
X3756389Y589446D01*
X3759670D01*
Y590539D01*
Y591633D01*
X3760764Y593820D01*
X3761857Y596007D01*
X3762951Y599288D01*
X3770606D01*
Y598194D01*
Y596007D01*
Y591633D01*
Y589446D01*
X3776074D01*
Y590539D01*
Y592726D01*
Y594914D01*
Y598194D01*
X3774981Y602569D01*
Y609130D01*
Y610224D01*
Y612411D01*
Y618973D01*
Y626628D01*
Y629909D01*
Y632096D01*
Y633190D01*
D02*
G37*
G36*
X4151179Y633190D02*
X4146805D01*
X4143524Y632096D01*
X4140243Y629909D01*
X4138056Y625534D01*
X4136962Y623347D01*
X4135869Y618973D01*
X4134775Y615692D01*
Y611318D01*
Y609130D01*
Y604756D01*
X4133681Y599288D01*
Y596007D01*
Y594914D01*
X4134775Y593820D01*
X4136962Y591633D01*
X4139149Y589446D01*
X4141337D01*
X4145711Y588352D01*
X4150085Y590539D01*
X4152273Y592726D01*
X4154460Y596007D01*
Y597101D01*
Y599288D01*
Y603663D01*
X4155553Y611318D01*
Y612411D01*
Y613505D01*
X4156647Y617879D01*
Y623347D01*
Y624441D01*
Y625534D01*
Y626628D01*
X4155553Y627722D01*
X4154460Y631003D01*
X4151179Y633190D01*
D02*
G37*
%LPD*%
G36*
X4411456Y625534D02*
Y623347D01*
Y621160D01*
X4410362Y616786D01*
X4409269Y610224D01*
Y609130D01*
Y608037D01*
X4408175Y602569D01*
X4407081Y598194D01*
Y596007D01*
X4405988Y594914D01*
X4404894D01*
X4400520Y596007D01*
Y598194D01*
Y599288D01*
Y601475D01*
Y604756D01*
Y609130D01*
X4401613Y617879D01*
X4402707Y622254D01*
X4403801Y624441D01*
X4404894Y625534D01*
Y626628D01*
X4405988Y627722D01*
X4410362D01*
X4411456Y625534D01*
D02*
G37*
G36*
X4357869Y624441D02*
Y622254D01*
Y618973D01*
Y617879D01*
X4356776Y615692D01*
X4355682Y613505D01*
X4352401Y612411D01*
X4349121D01*
Y613505D01*
Y616786D01*
X4350214Y625534D01*
X4356776D01*
X4357869Y624441D01*
D02*
G37*
G36*
X4203672D02*
X4204765D01*
X4205859Y623347D01*
Y621160D01*
Y620067D01*
Y618973D01*
X4204765Y616786D01*
X4202578Y615692D01*
X4201485D01*
X4199297Y614598D01*
X4197110D01*
Y616786D01*
Y620067D01*
X4198204Y625534D01*
X4202578D01*
X4203672Y624441D01*
D02*
G37*
G36*
X4202578Y609130D02*
X4204765Y606943D01*
Y605850D01*
Y603663D01*
Y600382D01*
X4202578Y598194D01*
X4200391Y597101D01*
X4197110Y596007D01*
X4194923D01*
Y597101D01*
Y598194D01*
Y602569D01*
Y603663D01*
X4196017Y604756D01*
X4197110Y606943D01*
Y608037D01*
Y609130D01*
X4198204Y610224D01*
X4200391D01*
X4202578Y609130D01*
D02*
G37*
G36*
X3770606Y621160D02*
Y617879D01*
Y612411D01*
Y604756D01*
X3764045D01*
Y605850D01*
X3765138Y608037D01*
X3766232Y613505D01*
Y614598D01*
X3767325Y617879D01*
X3768419Y621160D01*
X3769513Y622254D01*
X3770606Y621160D01*
D02*
G37*
G36*
X4150085Y625534D02*
Y624441D01*
Y623347D01*
Y618973D01*
Y615692D01*
X4148992Y611318D01*
Y609130D01*
X4147898Y604756D01*
Y600382D01*
X4146805Y599288D01*
Y598194D01*
Y597101D01*
X4145711Y596007D01*
X4143524Y594914D01*
X4141337D01*
X4140243Y596007D01*
Y597101D01*
Y598194D01*
Y602569D01*
Y610224D01*
Y611318D01*
Y612411D01*
X4141337Y616786D01*
X4142430Y621160D01*
Y623347D01*
X4143524Y624441D01*
X4145711Y626628D01*
X4148992D01*
X4150085Y625534D01*
D02*
G37*
D29*
X1595927Y637795D02*
G03*
X1595927Y637795I-4921J0D01*
G01*
D30*
X1963857Y637913D02*
G03*
X1963857Y637913I-1968J0D01*
G01*
X1835616Y581811D02*
G03*
X1835616Y581811I-792J0D01*
G01*
X2036483Y3209764D02*
G03*
X2036483Y3209764I-792J0D01*
G01*
X1327821Y3209764D02*
G03*
X1327821Y3209764I-792J0D01*
G01*
X1676246Y3209764D02*
G03*
X1676246Y3209764I-792J0D01*
G01*
X2675475Y2866911D02*
G03*
X2675475Y2866911I-792J0D01*
G01*
X3069924D02*
G03*
X3069924Y2866911I-792J0D01*
G01*
X3451814D02*
G03*
X3451814Y2866911I-792J0D01*
G01*
X3766774D02*
G03*
X3766774Y2866911I-792J0D01*
G01*
X4081735D02*
G03*
X4081735Y2866911I-792J0D01*
G01*
X2430183Y3209764D02*
G03*
X2430183Y3209764I-792J0D01*
G01*
X2092207Y2624824D02*
X2375672D01*
Y1939785D02*
Y2624824D01*
X2092207Y1939785D02*
X2375672D01*
X2092207D02*
Y2624824D01*
X1377873D02*
X1661338D01*
Y1939785D02*
Y2624824D01*
X1377873Y1939785D02*
X1661338D01*
X1377873D02*
Y2624824D01*
X1710039D02*
X1993504D01*
Y1939785D02*
Y2624824D01*
X1710039Y1939785D02*
X1993504D01*
X1710039D02*
Y2624824D01*
X2315708Y1197383D02*
Y1832337D01*
Y1842383D01*
X2035708D02*
X2315708D01*
X2035708Y1197383D02*
Y1842383D01*
Y1197383D02*
X2315708D01*
X1685786D02*
Y1832337D01*
Y1842383D01*
X1405786D02*
X1685786D01*
X1405786Y1197383D02*
Y1842383D01*
Y1197383D02*
X1685786D01*
X2000747D02*
Y1832337D01*
Y1842383D01*
X1720747D02*
X2000747D01*
X1720747Y1197383D02*
Y1842383D01*
Y1197383D02*
X2000747D01*
X948275Y1158701D02*
X1583228D01*
X938228D02*
X948275D01*
X938228Y878701D02*
Y1158701D01*
Y878701D02*
X1583228D01*
Y1158701D01*
X2945629Y1197383D02*
Y1832337D01*
Y1842383D01*
X2665629D02*
X2945629D01*
X2665629Y1197383D02*
Y1842383D01*
Y1197383D02*
X2945629D01*
X3260590D02*
Y1832337D01*
Y1842383D01*
X2980590D02*
X3260590D01*
X2980590Y1197383D02*
Y1842383D01*
Y1197383D02*
X3260590D01*
X3575550D02*
Y1832337D01*
Y1842383D01*
X3295550D02*
X3575550D01*
X3295550Y1197383D02*
Y1842383D01*
Y1197383D02*
X3575550D01*
X3890511D02*
Y1832337D01*
Y1842383D01*
X3610511D02*
X3890511D01*
X3610511Y1197383D02*
Y1842383D01*
Y1197383D02*
X3890511D01*
X4205471D02*
Y1832337D01*
Y1842383D01*
X3925471D02*
X4205471D01*
X3925471Y1197383D02*
Y1842383D01*
Y1197383D02*
X4205471D01*
X2620315Y1197402D02*
Y1832355D01*
Y1842402D01*
X2340315D02*
X2620315D01*
X2340315Y1197402D02*
Y1842402D01*
Y1197402D02*
X2620315D01*
D31*
X3980748Y4766063D02*
X4050748D01*
X3980748Y4605039D02*
Y4766063D01*
Y4605039D02*
X4050748D01*
Y4766063D01*
X3563673D02*
X3633673D01*
X3563673Y4605039D02*
Y4766063D01*
Y4605039D02*
X3633673D01*
Y4766063D01*
X3190551D02*
X3260551D01*
X3190551Y4605039D02*
Y4766063D01*
Y4605039D02*
X3260551D01*
Y4766063D01*
X2799646D02*
X2869646D01*
X2799646Y4605039D02*
Y4766063D01*
Y4605039D02*
X2869646D01*
Y4766063D01*
X2390777D02*
X2460777D01*
X2390777Y4605039D02*
Y4766063D01*
Y4605039D02*
X2460777D01*
Y4766063D01*
X1930420D02*
X2000420D01*
X1930420Y4605039D02*
Y4766063D01*
Y4605039D02*
X2000420D01*
Y4766063D01*
X1500433D02*
X1570433D01*
X1500433Y4605039D02*
Y4766063D01*
Y4605039D02*
X1570433D01*
Y4766063D01*
X1067362D02*
X1137362D01*
X1067362Y4605039D02*
Y4766063D01*
Y4605039D02*
X1137362D01*
Y4766063D01*
X646072D02*
X716072D01*
X646072Y4605039D02*
Y4766063D01*
Y4605039D02*
X716072D01*
Y4766063D01*
X2688791Y510551D02*
Y671575D01*
X2618791Y510551D02*
X2688791D01*
X2618791D02*
Y671575D01*
X2688791D01*
D32*
X295276Y3346457D02*
X826772D01*
X295276D02*
Y3622047D01*
X19685D02*
X295276D01*
X19685Y551181D02*
Y3622047D01*
Y551181D02*
X295276D01*
Y826772D01*
X826772D01*
Y3346457D01*
X1859824Y496811D02*
X1914824D01*
X1884824Y526811D02*
X1914824Y496811D01*
X1854824D02*
X1884824Y526811D01*
X1854824Y496811D02*
X1859824D01*
X2060690Y3124764D02*
X2115690D01*
X2085690Y3154764D02*
X2115690Y3124764D01*
X2055690D02*
X2085690Y3154764D01*
X2055690Y3124764D02*
X2060690D01*
X1352029Y3124764D02*
X1407029D01*
X1377029Y3154764D02*
X1407029Y3124764D01*
X1347029D02*
X1377029Y3154764D01*
X1347029Y3124764D02*
X1352029D01*
X1700454Y3124764D02*
X1755454D01*
X1725454Y3154764D02*
X1755454Y3124764D01*
X1695454D02*
X1725454Y3154764D01*
X1695454Y3124764D02*
X1700454D01*
X2699683Y2781911D02*
X2754683D01*
X2724683Y2811911D02*
X2754683Y2781911D01*
X2694683D02*
X2724683Y2811911D01*
X2694683Y2781911D02*
X2699683D01*
X3094132D02*
X3149132D01*
X3119132Y2811911D02*
X3149132Y2781911D01*
X3089132D02*
X3119132Y2811911D01*
X3089132Y2781911D02*
X3094132D01*
X3476022D02*
X3531022D01*
X3501022Y2811911D02*
X3531022Y2781911D01*
X3471022D02*
X3501022Y2811911D01*
X3471022Y2781911D02*
X3476022D01*
X3790982D02*
X3845982D01*
X3815982Y2811911D02*
X3845982Y2781911D01*
X3785982D02*
X3815982Y2811911D01*
X3785982Y2781911D02*
X3790982D01*
X4105943D02*
X4160943D01*
X4130943Y2811911D02*
X4160943Y2781911D01*
X4100943D02*
X4130943Y2811911D01*
X4100943Y2781911D02*
X4105943D01*
X2454391Y3124764D02*
X2509391D01*
X2479391Y3154764D02*
X2509391Y3124764D01*
X2449391D02*
X2479391Y3154764D01*
X2449391Y3124764D02*
X2454391D01*
X3435197Y343675D02*
Y304317D01*
X3454876D01*
X3461435Y310877D01*
Y337115D01*
X3454876Y343675D01*
X3435197D01*
X3494233Y304317D02*
X3481114D01*
X3474554Y310877D01*
Y323996D01*
X3481114Y330556D01*
X3494233D01*
X3500793Y323996D01*
Y317437D01*
X3474554D01*
X3513912Y304317D02*
X3533590D01*
X3540150Y310877D01*
X3533590Y317437D01*
X3520471D01*
X3513912Y323996D01*
X3520471Y330556D01*
X3540150D01*
X3553269Y304317D02*
X3566388D01*
X3559829D01*
Y330556D01*
X3553269D01*
X3599186Y291198D02*
X3605746D01*
X3612305Y297758D01*
Y330556D01*
X3592626D01*
X3586067Y323996D01*
Y310877D01*
X3592626Y304317D01*
X3612305D01*
X3625424D02*
Y330556D01*
X3645103D01*
X3651662Y323996D01*
Y304317D01*
X3730377D02*
X3723818Y310877D01*
X3717258Y304317D01*
X3710699D01*
X3704139Y310877D01*
Y317437D01*
X3710699Y323996D01*
X3704139Y330556D01*
Y337115D01*
X3710699Y343675D01*
X3717258D01*
X3723818Y337115D01*
Y330556D01*
X3717258Y323996D01*
X3723818Y317437D01*
Y310877D01*
X3730377Y323996D02*
X3723818Y317437D01*
X3710699Y323996D02*
X3717258D01*
X3782854Y343675D02*
Y304317D01*
X3809092D01*
X3828771Y330556D02*
X3841890D01*
X3848450Y323996D01*
Y304317D01*
X3828771D01*
X3822211Y310877D01*
X3828771Y317437D01*
X3848450D01*
X3861569Y330556D02*
Y310877D01*
X3868128Y304317D01*
X3887807D01*
Y297758D01*
X3881247Y291198D01*
X3874688D01*
X3887807Y304317D02*
Y330556D01*
X3907486Y304317D02*
X3920605D01*
X3927164Y310877D01*
Y323996D01*
X3920605Y330556D01*
X3907486D01*
X3900926Y323996D01*
Y310877D01*
X3907486Y304317D01*
X3940284Y330556D02*
Y310877D01*
X3946843Y304317D01*
X3966522D01*
Y330556D01*
X3986200Y337115D02*
Y330556D01*
X3979641D01*
X3992760D01*
X3986200D01*
Y310877D01*
X3992760Y304317D01*
X4051796Y343675D02*
Y304317D01*
X4071475D01*
X4078034Y310877D01*
Y317437D01*
X4071475Y323996D01*
X4051796D01*
X4071475D01*
X4078034Y330556D01*
Y337115D01*
X4071475Y343675D01*
X4051796D01*
X4091153Y330556D02*
Y310877D01*
X4097713Y304317D01*
X4117392D01*
Y297758D01*
X4110832Y291198D01*
X4104273D01*
X4117392Y304317D02*
Y330556D01*
X4130511D02*
X4137070D01*
Y323996D01*
X4130511D01*
Y330556D01*
Y310877D02*
X4137070D01*
Y304317D01*
X4130511D01*
Y310877D01*
X3435197Y219970D02*
Y246208D01*
X3448316Y259327D01*
X3461435Y246208D01*
Y219970D01*
Y239648D01*
X3435197D01*
X3474554Y219970D02*
Y246208D01*
X3494233D01*
X3500793Y239648D01*
Y219970D01*
X3527031Y206850D02*
X3533590D01*
X3540150Y213410D01*
Y246208D01*
X3520471D01*
X3513912Y239648D01*
Y226529D01*
X3520471Y219970D01*
X3540150D01*
X3572948D02*
X3559829D01*
X3553269Y226529D01*
Y239648D01*
X3559829Y246208D01*
X3572948D01*
X3579507Y239648D01*
Y233089D01*
X3553269D01*
X3592626Y219970D02*
X3605746D01*
X3599186D01*
Y259327D01*
X3592626D01*
X3664782D02*
Y219970D01*
X3684460D01*
X3691020Y226529D01*
Y252767D01*
X3684460Y259327D01*
X3664782D01*
X3723818Y219970D02*
X3710699D01*
X3704139Y226529D01*
Y239648D01*
X3710699Y246208D01*
X3723818D01*
X3730377Y239648D01*
Y233089D01*
X3704139D01*
X3743497Y219970D02*
X3756616D01*
X3750056D01*
Y259327D01*
X3743497D01*
X3789413Y206850D02*
X3795973D01*
X3802532Y213410D01*
Y246208D01*
X3782854D01*
X3776294Y239648D01*
Y226529D01*
X3782854Y219970D01*
X3802532D01*
X3822211Y246208D02*
X3835330D01*
X3841890Y239648D01*
Y219970D01*
X3822211D01*
X3815652Y226529D01*
X3822211Y233089D01*
X3841890D01*
X3881247Y259327D02*
Y219970D01*
X3861569D01*
X3855009Y226529D01*
Y239648D01*
X3861569Y246208D01*
X3881247D01*
X3900926Y219970D02*
X3914045D01*
X3920605Y226529D01*
Y239648D01*
X3914045Y246208D01*
X3900926D01*
X3894367Y239648D01*
Y226529D01*
X3900926Y219970D01*
X917464Y3304265D02*
X927461Y3314262D01*
Y3334255D01*
X917464Y3344252D01*
X907467D01*
X897471Y3334255D01*
Y3314262D01*
X887474Y3304265D01*
X877477D01*
X867480Y3314262D01*
Y3334255D01*
X877477Y3344252D01*
X927461Y3284271D02*
X877477D01*
X867480Y3274274D01*
Y3254281D01*
X877477Y3244284D01*
X927461D01*
X867480Y3224291D02*
X927461D01*
Y3194300D01*
X917464Y3184304D01*
X897471D01*
X887474Y3194300D01*
Y3224291D01*
X927461Y3124323D02*
Y3164310D01*
X867480D01*
Y3124323D01*
X897471Y3164310D02*
Y3144317D01*
X867480Y3104329D02*
X927461D01*
Y3074339D01*
X917464Y3064342D01*
X897471D01*
X887474Y3074339D01*
Y3104329D01*
Y3084336D02*
X867480Y3064342D01*
X917464Y2944381D02*
X927461Y2954378D01*
Y2974372D01*
X917464Y2984368D01*
X907467D01*
X897471Y2974372D01*
Y2954378D01*
X887474Y2944381D01*
X877477D01*
X867480Y2954378D01*
Y2974372D01*
X877477Y2984368D01*
X927461Y2884401D02*
Y2924388D01*
X867480D01*
Y2884401D01*
X897471Y2924388D02*
Y2904394D01*
X867480Y2864407D02*
X907467D01*
X927461Y2844414D01*
X907467Y2824420D01*
X867480D01*
X897471D01*
Y2864407D01*
X927461Y2804427D02*
X867480D01*
Y2764439D01*
X927461Y2644478D02*
X917464Y2664472D01*
X897471Y2684465D01*
X877477D01*
X867480Y2674468D01*
Y2654475D01*
X877477Y2644478D01*
X887474D01*
X897471Y2654475D01*
Y2684465D01*
X917464Y2624485D02*
X927461Y2614488D01*
Y2594494D01*
X917464Y2584498D01*
X877477D01*
X867480Y2594494D01*
Y2614488D01*
X877477Y2624485D01*
X917464D01*
X867480Y2564504D02*
X927461D01*
Y2534514D01*
X917464Y2524517D01*
X897471D01*
X887474Y2534514D01*
Y2564504D01*
X927461Y2474533D02*
Y2494527D01*
X917464Y2504523D01*
X877477D01*
X867480Y2494527D01*
Y2474533D01*
X877477Y2464536D01*
X917464D01*
X927461Y2474533D01*
X917464Y2404556D02*
X927461Y2414553D01*
Y2434546D01*
X917464Y2444543D01*
X907467D01*
X897471Y2434546D01*
Y2414553D01*
X887474Y2404556D01*
X877477D01*
X867480Y2414553D01*
Y2434546D01*
X877477Y2444543D01*
X2536942Y393701D02*
Y453681D01*
X2566932D01*
X2576929Y443685D01*
Y423691D01*
X2566932Y413694D01*
X2536942D01*
X2626913Y453681D02*
X2606919D01*
X2596923Y443685D01*
Y403698D01*
X2606919Y393701D01*
X2626913D01*
X2636910Y403698D01*
Y443685D01*
X2626913Y453681D01*
X2656903D02*
Y393701D01*
X2676897Y413694D01*
X2696890Y393701D01*
Y453681D01*
X2756871D02*
X2716884D01*
Y393701D01*
X2756871D01*
X2716884Y423691D02*
X2736877D01*
X2776864Y393701D02*
Y453681D01*
X2806855D01*
X2816851Y443685D01*
Y423691D01*
X2806855Y413694D01*
X2776864D01*
X2796858D02*
X2816851Y393701D01*
X4024468Y4902500D02*
X3984481D01*
Y4872510D01*
X4004474D01*
X3984481D01*
Y4842520D01*
X4084448D02*
X4044461D01*
X4084448Y4882507D01*
Y4892503D01*
X4074452Y4902500D01*
X4054458D01*
X4044461Y4892503D01*
X3600555Y4902500D02*
X3560568D01*
Y4872510D01*
X3580561D01*
X3560568D01*
Y4842520D01*
X3620548Y4892503D02*
X3630545Y4902500D01*
X3650539D01*
X3660535Y4892503D01*
Y4882507D01*
X3650539Y4872510D01*
X3640542D01*
X3650539D01*
X3660535Y4862513D01*
Y4852516D01*
X3650539Y4842520D01*
X3630545D01*
X3620548Y4852516D01*
X3226644Y4902500D02*
X3186656D01*
Y4872510D01*
X3206650D01*
X3186656D01*
Y4842520D01*
X3276627D02*
Y4902500D01*
X3246637Y4872510D01*
X3286624D01*
X2836066Y4902500D02*
X2796079D01*
Y4872510D01*
X2816072D01*
X2796079D01*
Y4842520D01*
X2896046Y4902500D02*
X2856059D01*
Y4872510D01*
X2876053Y4882507D01*
X2886050D01*
X2896046Y4872510D01*
Y4852516D01*
X2886050Y4842520D01*
X2866056D01*
X2856059Y4852516D01*
X2436916Y4902500D02*
X2396929D01*
Y4872510D01*
X2416923D01*
X2396929D01*
Y4842520D01*
X2496897Y4902500D02*
X2476903Y4892503D01*
X2456910Y4872510D01*
Y4852516D01*
X2466907Y4842520D01*
X2486900D01*
X2496897Y4852516D01*
Y4862513D01*
X2486900Y4872510D01*
X2456910D01*
X1967663Y4902500D02*
X1927676D01*
Y4872510D01*
X1947670D01*
X1927676D01*
Y4842520D01*
X1987657D02*
X2007650D01*
X1997654D01*
Y4902500D01*
X1987657Y4892503D01*
X1543528Y4902500D02*
X1503541D01*
Y4872510D01*
X1523534D01*
X1503541D01*
Y4842520D01*
X1563522D02*
X1583515D01*
X1573518D01*
Y4902500D01*
X1563522Y4892503D01*
X1613505D02*
X1623502Y4902500D01*
X1643496D01*
X1653492Y4892503D01*
Y4852516D01*
X1643496Y4842520D01*
X1623502D01*
X1613505Y4852516D01*
Y4892503D01*
X1102940Y4902500D02*
X1062953D01*
Y4872510D01*
X1082946D01*
X1062953D01*
Y4842520D01*
X1122933Y4892503D02*
X1132930Y4902500D01*
X1152924D01*
X1162920Y4892503D01*
Y4882507D01*
X1152924Y4872510D01*
X1162920Y4862513D01*
Y4852516D01*
X1152924Y4842520D01*
X1132930D01*
X1122933Y4852516D01*
Y4862513D01*
X1132930Y4872510D01*
X1122933Y4882507D01*
Y4892503D01*
X1132930Y4872510D02*
X1152924D01*
X682780Y4902500D02*
X642793D01*
Y4872510D01*
X662786D01*
X642793D01*
Y4842520D01*
X702774Y4852516D02*
X712770Y4842520D01*
X732764D01*
X742761Y4852516D01*
Y4892503D01*
X732764Y4902500D01*
X712770D01*
X702774Y4892503D01*
Y4882507D01*
X712770Y4872510D01*
X742761D01*
X128110Y3756595D02*
X168097Y3696614D01*
Y3756595D02*
X128110Y3696614D01*
X188091D02*
X208084D01*
X198088D01*
Y3756595D01*
X188091Y3746598D01*
X2061175Y1921955D02*
X2021188D01*
Y1891964D01*
X2041181D01*
X2021188D01*
Y1861974D01*
X2081169D02*
X2101162D01*
X2091165D01*
Y1921955D01*
X2081169Y1911958D01*
X2131152D02*
X2141149Y1921955D01*
X2161143D01*
X2171139Y1911958D01*
Y1871971D01*
X2161143Y1861974D01*
X2141149D01*
X2131152Y1871971D01*
Y1911958D01*
X1431214Y1921836D02*
X1391227D01*
Y1891846D01*
X1411221D01*
X1391227D01*
Y1861856D01*
X1451208Y1871853D02*
X1461205Y1861856D01*
X1481198D01*
X1491195Y1871853D01*
Y1911840D01*
X1481198Y1921836D01*
X1461205D01*
X1451208Y1911840D01*
Y1901843D01*
X1461205Y1891846D01*
X1491195D01*
X1748896Y1918467D02*
X1708909D01*
Y1888477D01*
X1728902D01*
X1708909D01*
Y1858486D01*
X1768890Y1908470D02*
X1778886Y1918467D01*
X1798880D01*
X1808877Y1908470D01*
Y1898473D01*
X1798880Y1888477D01*
X1808877Y1878480D01*
Y1868483D01*
X1798880Y1858486D01*
X1778886D01*
X1768890Y1868483D01*
Y1878480D01*
X1778886Y1888477D01*
X1768890Y1898473D01*
Y1908470D01*
X1778886Y1888477D02*
X1798880D01*
X2690844Y1922498D02*
X2650857D01*
Y1892508D01*
X2670851D01*
X2650857D01*
Y1862517D01*
X2750825Y1922498D02*
X2730831Y1912501D01*
X2710838Y1892508D01*
Y1872514D01*
X2720834Y1862517D01*
X2740828D01*
X2750825Y1872514D01*
Y1882511D01*
X2740828Y1892508D01*
X2710838D01*
X3005104Y1922624D02*
X2965117D01*
Y1892633D01*
X2985111D01*
X2965117D01*
Y1862643D01*
X3065085Y1922624D02*
X3025098D01*
Y1892633D01*
X3045091Y1902630D01*
X3055088D01*
X3065085Y1892633D01*
Y1872640D01*
X3055088Y1862643D01*
X3035095D01*
X3025098Y1872640D01*
X3320474Y1922214D02*
X3280487D01*
Y1892224D01*
X3300481D01*
X3280487D01*
Y1862234D01*
X3370458D02*
Y1922214D01*
X3340468Y1892224D01*
X3380455D01*
X3635325Y1922584D02*
X3595338D01*
Y1892594D01*
X3615331D01*
X3595338D01*
Y1862604D01*
X3655318Y1912588D02*
X3665315Y1922584D01*
X3685308D01*
X3695305Y1912588D01*
Y1902591D01*
X3685308Y1892594D01*
X3675312D01*
X3685308D01*
X3695305Y1882597D01*
Y1872601D01*
X3685308Y1862604D01*
X3665315D01*
X3655318Y1872601D01*
X3950805Y1922474D02*
X3910818D01*
Y1892484D01*
X3930811D01*
X3910818D01*
Y1862494D01*
X4010786D02*
X3970798D01*
X4010786Y1902481D01*
Y1912477D01*
X4000789Y1922474D01*
X3980795D01*
X3970798Y1912477D01*
X2365452Y1922185D02*
X2325465D01*
Y1892195D01*
X2345458D01*
X2325465D01*
Y1862205D01*
X2385445D02*
X2405439D01*
X2395442D01*
Y1922185D01*
X2385445Y1912188D01*
X1591084Y996800D02*
X1631071D01*
X1611077D01*
Y936819D01*
X1651064D02*
X1671058D01*
X1661061D01*
Y996800D01*
X1651064Y986803D01*
X1701048D02*
X1711045Y996800D01*
X1731039D01*
X1741035Y986803D01*
Y946816D01*
X1731039Y936819D01*
X1711045D01*
X1701048Y946816D01*
Y986803D01*
X2302153Y717741D02*
Y777722D01*
X2332143D01*
X2342140Y767725D01*
Y747731D01*
X2332143Y737735D01*
X2302153D01*
X2322146D02*
X2342140Y717741D01*
X2402120D02*
X2362133D01*
X2402120Y757728D01*
Y767725D01*
X2392124Y777722D01*
X2372130D01*
X2362133Y767725D01*
X2422114D02*
X2432111Y777722D01*
X2452104D01*
X2462101Y767725D01*
Y727738D01*
X2452104Y717741D01*
X2432111D01*
X2422114Y727738D01*
Y767725D01*
X1388488Y572685D02*
Y632666D01*
X1418478D01*
X1428475Y622669D01*
Y602675D01*
X1418478Y592678D01*
X1388488D01*
X1408482D02*
X1428475Y572685D01*
X1448469D02*
X1468462D01*
X1458466D01*
Y632666D01*
X1448469Y622669D01*
X1498453Y582682D02*
X1508449Y572685D01*
X1528443D01*
X1538440Y582682D01*
Y622669D01*
X1528443Y632666D01*
X1508449D01*
X1498453Y622669D01*
Y612672D01*
X1508449Y602675D01*
X1538440D01*
X2224409Y3700787D02*
X2284390D01*
Y3670797D01*
X2274393Y3660800D01*
X2254400D01*
X2244403Y3670797D01*
Y3700787D01*
Y3680794D02*
X2224409Y3660800D01*
Y3640807D02*
Y3620813D01*
Y3630810D01*
X2284390D01*
X2274393Y3640807D01*
Y3590823D02*
X2284390Y3580826D01*
Y3560833D01*
X2274393Y3550836D01*
X2264396D01*
X2254400Y3560833D01*
X2244403Y3550836D01*
X2234406D01*
X2224409Y3560833D01*
Y3580826D01*
X2234406Y3590823D01*
X2244403D01*
X2254400Y3580826D01*
X2264396Y3590823D01*
X2274393D01*
X2254400Y3580826D02*
Y3560833D01*
X1968504Y3700787D02*
X2028485D01*
Y3670797D01*
X2018488Y3660800D01*
X1998494D01*
X1988497Y3670797D01*
Y3700787D01*
Y3680794D02*
X1968504Y3660800D01*
Y3640807D02*
Y3620813D01*
Y3630810D01*
X2028485D01*
X2018488Y3640807D01*
X2028485Y3590823D02*
Y3550836D01*
X2018488D01*
X1978501Y3590823D01*
X1968504D01*
X1515748Y3700787D02*
X1575729D01*
Y3670797D01*
X1565732Y3660800D01*
X1545738D01*
X1535742Y3670797D01*
Y3700787D01*
Y3680794D02*
X1515748Y3660800D01*
Y3640807D02*
Y3620813D01*
Y3630810D01*
X1575729D01*
X1565732Y3640807D01*
X1575729Y3550836D02*
X1565732Y3570829D01*
X1545738Y3590823D01*
X1525745D01*
X1515748Y3580826D01*
Y3560833D01*
X1525745Y3550836D01*
X1535742D01*
X1545738Y3560833D01*
Y3590823D01*
X1258919Y3700787D02*
X1318899D01*
Y3670797D01*
X1308902Y3660800D01*
X1288909D01*
X1278912Y3670797D01*
Y3700787D01*
Y3680794D02*
X1258919Y3660800D01*
Y3640807D02*
Y3620813D01*
Y3630810D01*
X1318899D01*
X1308902Y3640807D01*
X1318899Y3550836D02*
Y3590823D01*
X1288909D01*
X1298906Y3570829D01*
Y3560833D01*
X1288909Y3550836D01*
X1268915D01*
X1258919Y3560833D01*
Y3580826D01*
X1268915Y3590823D01*
X1870079Y3700787D02*
X1930059D01*
Y3670797D01*
X1920062Y3660800D01*
X1900069D01*
X1890072Y3670797D01*
Y3700787D01*
Y3680794D02*
X1870079Y3660800D01*
Y3640807D02*
Y3620813D01*
Y3630810D01*
X1930059D01*
X1920062Y3640807D01*
X1870079Y3560833D02*
X1930059D01*
X1900069Y3590823D01*
Y3550836D01*
X1620079Y3700787D02*
X1680059D01*
Y3670797D01*
X1670063Y3660800D01*
X1650069D01*
X1640072Y3670797D01*
Y3700787D01*
Y3680794D02*
X1620079Y3660800D01*
Y3640807D02*
Y3620813D01*
Y3630810D01*
X1680059D01*
X1670063Y3640807D01*
Y3590823D02*
X1680059Y3580826D01*
Y3560833D01*
X1670063Y3550836D01*
X1660066D01*
X1650069Y3560833D01*
Y3570829D01*
Y3560833D01*
X1640072Y3550836D01*
X1630076D01*
X1620079Y3560833D01*
Y3580826D01*
X1630076Y3590823D01*
X2872558Y3380905D02*
X2932539D01*
Y3350915D01*
X2922542Y3340918D01*
X2902548D01*
X2892552Y3350915D01*
Y3380905D01*
Y3360912D02*
X2872558Y3340918D01*
Y3320925D02*
Y3300931D01*
Y3310928D01*
X2932539D01*
X2922542Y3320925D01*
X2872558Y3230954D02*
Y3270941D01*
X2912545Y3230954D01*
X2922542D01*
X2932539Y3240951D01*
Y3260944D01*
X2922542Y3270941D01*
X2606573Y3366142D02*
X2666553D01*
Y3336151D01*
X2656557Y3326155D01*
X2636563D01*
X2626566Y3336151D01*
Y3366142D01*
Y3346148D02*
X2606573Y3326155D01*
Y3306161D02*
Y3286168D01*
Y3296164D01*
X2666553D01*
X2656557Y3306161D01*
X2606573Y3256177D02*
Y3236184D01*
Y3246181D01*
X2666553D01*
X2656557Y3256177D01*
X3275217Y3382716D02*
X3335198D01*
Y3352726D01*
X3325201Y3342729D01*
X3305207D01*
X3295211Y3352726D01*
Y3382716D01*
Y3362723D02*
X3275217Y3342729D01*
Y3322736D02*
Y3302742D01*
Y3312739D01*
X3335198D01*
X3325201Y3322736D01*
Y3272752D02*
X3335198Y3262755D01*
Y3242762D01*
X3325201Y3232765D01*
X3285214D01*
X3275217Y3242762D01*
Y3262755D01*
X3285214Y3272752D01*
X3325201D01*
X3001022Y3366142D02*
X3061002D01*
Y3336151D01*
X3051005Y3326155D01*
X3031012D01*
X3021015Y3336151D01*
Y3366142D01*
Y3346148D02*
X3001022Y3326155D01*
X3011018Y3306161D02*
X3001022Y3296164D01*
Y3276171D01*
X3011018Y3266174D01*
X3051005D01*
X3061002Y3276171D01*
Y3296164D01*
X3051005Y3306161D01*
X3041009D01*
X3031012Y3296164D01*
Y3266174D01*
X3661417Y3366142D02*
X3721398D01*
Y3336151D01*
X3711401Y3326155D01*
X3691408D01*
X3681411Y3336151D01*
Y3366142D01*
Y3346148D02*
X3661417Y3326155D01*
X3711401Y3306161D02*
X3721398Y3296164D01*
Y3276171D01*
X3711401Y3266174D01*
X3701404D01*
X3691408Y3276171D01*
X3681411Y3266174D01*
X3671414D01*
X3661417Y3276171D01*
Y3296164D01*
X3671414Y3306161D01*
X3681411D01*
X3691408Y3296164D01*
X3701404Y3306161D01*
X3711401D01*
X3691408Y3296164D02*
Y3276171D01*
X3385827Y3361220D02*
X3445807D01*
Y3331230D01*
X3435811Y3321233D01*
X3415817D01*
X3405820Y3331230D01*
Y3361220D01*
Y3341227D02*
X3385827Y3321233D01*
X3445807Y3301240D02*
Y3261253D01*
X3435811D01*
X3395823Y3301240D01*
X3385827D01*
X3998542Y3346457D02*
X4058523D01*
Y3316466D01*
X4048526Y3306470D01*
X4028533D01*
X4018536Y3316466D01*
Y3346457D01*
Y3326463D02*
X3998542Y3306470D01*
X4058523Y3246489D02*
X4048526Y3266483D01*
X4028533Y3286476D01*
X4008539D01*
X3998542Y3276479D01*
Y3256486D01*
X4008539Y3246489D01*
X4018536D01*
X4028533Y3256486D01*
Y3286476D01*
X3740157Y3366142D02*
X3800138D01*
Y3336151D01*
X3790141Y3326155D01*
X3770148D01*
X3760151Y3336151D01*
Y3366142D01*
Y3346148D02*
X3740157Y3326155D01*
X3800138Y3266174D02*
Y3306161D01*
X3770148D01*
X3780144Y3286168D01*
Y3276171D01*
X3770148Y3266174D01*
X3750154D01*
X3740157Y3276171D01*
Y3296164D01*
X3750154Y3306161D01*
X4370079Y3361853D02*
X4430059D01*
Y3331863D01*
X4420063Y3321866D01*
X4400069D01*
X4390072Y3331863D01*
Y3361853D01*
Y3341860D02*
X4370079Y3321866D01*
Y3271882D02*
X4430059D01*
X4400069Y3301873D01*
Y3261885D01*
X4103384Y3366142D02*
X4163364D01*
Y3336151D01*
X4153368Y3326155D01*
X4133374D01*
X4123377Y3336151D01*
Y3366142D01*
Y3346148D02*
X4103384Y3326155D01*
X4153368Y3306161D02*
X4163364Y3296164D01*
Y3276171D01*
X4153368Y3266174D01*
X4143371D01*
X4133374Y3276171D01*
Y3286168D01*
Y3276171D01*
X4123377Y3266174D01*
X4113381D01*
X4103384Y3276171D01*
Y3296164D01*
X4113381Y3306161D01*
X2618110Y3700787D02*
X2678091D01*
Y3670797D01*
X2668094Y3660800D01*
X2648101D01*
X2638104Y3670797D01*
Y3700787D01*
Y3680794D02*
X2618110Y3660800D01*
Y3600820D02*
Y3640807D01*
X2658097Y3600820D01*
X2668094D01*
X2678091Y3610816D01*
Y3630810D01*
X2668094Y3640807D01*
X2363898Y3700787D02*
X2423878D01*
Y3670797D01*
X2413881Y3660800D01*
X2393888D01*
X2383891Y3670797D01*
Y3700787D01*
Y3680794D02*
X2363898Y3660800D01*
Y3640807D02*
Y3620813D01*
Y3630810D01*
X2423878D01*
X2413881Y3640807D01*
X2625165Y765516D02*
Y705535D01*
X2665152D01*
X2725133Y765516D02*
X2685145D01*
Y705535D01*
X2725133D01*
X2685145Y735526D02*
X2705139D01*
X2745126Y765516D02*
Y705535D01*
X2775116D01*
X2785113Y715532D01*
Y755519D01*
X2775116Y765516D01*
X2745126D01*
X2805107Y705535D02*
X2825100D01*
X2815103D01*
Y765516D01*
X2805107Y755519D01*
X2855090D02*
X2865087Y765516D01*
X2885081D01*
X2895077Y755519D01*
Y715532D01*
X2885081Y705535D01*
X2865087D01*
X2855090Y715532D01*
Y755519D01*
X1632933Y4527559D02*
X1692913D01*
Y4567546D01*
X1632933Y4627527D02*
Y4587540D01*
X1692913D01*
Y4627527D01*
X1662923Y4587540D02*
Y4607533D01*
X1632933Y4647520D02*
X1692913D01*
Y4677511D01*
X1682917Y4687507D01*
X1642930D01*
X1632933Y4677511D01*
Y4647520D01*
X1682917Y4707501D02*
X1692913Y4717498D01*
Y4737491D01*
X1682917Y4747488D01*
X1642930D01*
X1632933Y4737491D01*
Y4717498D01*
X1642930Y4707501D01*
X1652926D01*
X1662923Y4717498D01*
Y4747488D01*
X776089Y4527559D02*
X836070D01*
Y4567546D01*
X776089Y4627527D02*
Y4587540D01*
X836070D01*
Y4627527D01*
X806080Y4587540D02*
Y4607533D01*
X776089Y4647520D02*
X836070D01*
Y4677511D01*
X826073Y4687507D01*
X786086D01*
X776089Y4677511D01*
Y4647520D01*
X786086Y4707501D02*
X776089Y4717498D01*
Y4737491D01*
X786086Y4747488D01*
X796083D01*
X806080Y4737491D01*
X816077Y4747488D01*
X826073D01*
X836070Y4737491D01*
Y4717498D01*
X826073Y4707501D01*
X816077D01*
X806080Y4717498D01*
X796083Y4707501D01*
X786086D01*
X806080Y4717498D02*
Y4737491D01*
X1199862Y4527559D02*
X1259843D01*
Y4567546D01*
X1199862Y4627527D02*
Y4587540D01*
X1259843D01*
Y4627527D01*
X1229852Y4587540D02*
Y4607533D01*
X1199862Y4647520D02*
X1259843D01*
Y4677511D01*
X1249846Y4687507D01*
X1209859D01*
X1199862Y4677511D01*
Y4647520D01*
Y4707501D02*
Y4747488D01*
X1209859D01*
X1249846Y4707501D01*
X1259843D01*
X2523277Y4527559D02*
X2583257D01*
Y4567546D01*
X2523277Y4627527D02*
Y4587540D01*
X2583257D01*
Y4627527D01*
X2553267Y4587540D02*
Y4607533D01*
X2523277Y4647520D02*
X2583257D01*
Y4677511D01*
X2573260Y4687507D01*
X2533273D01*
X2523277Y4677511D01*
Y4647520D01*
Y4747488D02*
X2533273Y4727494D01*
X2553267Y4707501D01*
X2573260D01*
X2583257Y4717498D01*
Y4737491D01*
X2573260Y4747488D01*
X2563264D01*
X2553267Y4737491D01*
Y4707501D01*
X2941041Y4527559D02*
X3001021D01*
Y4567546D01*
X2941041Y4627527D02*
Y4587540D01*
X3001021D01*
Y4627527D01*
X2971031Y4587540D02*
Y4607533D01*
X2941041Y4647520D02*
X3001021D01*
Y4677511D01*
X2991025Y4687507D01*
X2951038D01*
X2941041Y4677511D01*
Y4647520D01*
Y4747488D02*
Y4707501D01*
X2971031D01*
X2961034Y4727494D01*
Y4737491D01*
X2971031Y4747488D01*
X2991025D01*
X3001021Y4737491D01*
Y4717498D01*
X2991025Y4707501D01*
X3317112Y4527559D02*
X3377093D01*
Y4567546D01*
X3317112Y4627527D02*
Y4587540D01*
X3377093D01*
Y4627527D01*
X3347102Y4587540D02*
Y4607533D01*
X3317112Y4647520D02*
X3377093D01*
Y4677511D01*
X3367096Y4687507D01*
X3327109D01*
X3317112Y4677511D01*
Y4647520D01*
X3377093Y4737491D02*
X3317112D01*
X3347102Y4707501D01*
Y4747488D01*
X3696172Y4527559D02*
X3756153D01*
Y4567546D01*
X3696172Y4627527D02*
Y4587540D01*
X3756153D01*
Y4627527D01*
X3726163Y4587540D02*
Y4607533D01*
X3696172Y4647520D02*
X3756153D01*
Y4677511D01*
X3746156Y4687507D01*
X3706169D01*
X3696172Y4677511D01*
Y4647520D01*
X3706169Y4707501D02*
X3696172Y4717498D01*
Y4737491D01*
X3706169Y4747488D01*
X3716166D01*
X3726163Y4737491D01*
Y4727494D01*
Y4737491D01*
X3736159Y4747488D01*
X3746156D01*
X3756153Y4737491D01*
Y4717498D01*
X3746156Y4707501D01*
X4113248Y4527559D02*
X4173228D01*
Y4567546D01*
X4113248Y4627527D02*
Y4587540D01*
X4173228D01*
Y4627527D01*
X4143238Y4587540D02*
Y4607533D01*
X4113248Y4647520D02*
X4173228D01*
Y4677511D01*
X4163232Y4687507D01*
X4123245D01*
X4113248Y4677511D01*
Y4647520D01*
X4173228Y4747488D02*
Y4707501D01*
X4133241Y4747488D01*
X4123245D01*
X4113248Y4737491D01*
Y4717498D01*
X4123245Y4707501D01*
X2054713Y4566929D02*
X2114693D01*
Y4606916D01*
X2054713Y4666897D02*
Y4626910D01*
X2114693D01*
Y4666897D01*
X2084703Y4626910D02*
Y4646903D01*
X2054713Y4686890D02*
X2114693D01*
Y4716881D01*
X2104696Y4726877D01*
X2064709D01*
X2054713Y4716881D01*
Y4686890D01*
X2114693Y4746871D02*
Y4766864D01*
Y4756868D01*
X2054713D01*
X2064709Y4746871D01*
X2100707Y2716305D02*
Y2656324D01*
Y2676318D01*
X2140695Y2716305D01*
X2110704Y2686315D01*
X2140695Y2656324D01*
X2160688Y2706308D02*
X2170685Y2716305D01*
X2190678D01*
X2200675Y2706308D01*
Y2696311D01*
X2190678Y2686315D01*
X2180682D01*
X2190678D01*
X2200675Y2676318D01*
Y2666321D01*
X2190678Y2656324D01*
X2170685D01*
X2160688Y2666321D01*
X1385778Y2716435D02*
Y2656454D01*
Y2676448D01*
X1425766Y2716435D01*
X1395775Y2686445D01*
X1425766Y2656454D01*
X1485746D02*
X1445759D01*
X1485746Y2696441D01*
Y2706438D01*
X1475749Y2716435D01*
X1455756D01*
X1445759Y2706438D01*
X1717614Y2717215D02*
Y2657234D01*
Y2677227D01*
X1757601Y2717215D01*
X1727611Y2687224D01*
X1757601Y2657234D01*
X1777595D02*
X1797588D01*
X1787592D01*
Y2717215D01*
X1777595Y2707218D01*
X997830Y1242107D02*
X957843D01*
Y1212116D01*
X977836D01*
X957843D01*
Y1182126D01*
X1017823Y1242107D02*
X1057810D01*
Y1232110D01*
X1017823Y1192123D01*
Y1182126D01*
X1968262Y985185D02*
Y925205D01*
X1998252D01*
X2008249Y935202D01*
Y975188D01*
X1998252Y985185D01*
X1968262D01*
X2028242Y925205D02*
X2048236D01*
X2038239D01*
Y985185D01*
X2028242Y975188D01*
X2108216Y925205D02*
Y985185D01*
X2078226Y955195D01*
X2118213D01*
X1842400Y695295D02*
Y635315D01*
X1872390D01*
X1882387Y645312D01*
Y685299D01*
X1872390Y695295D01*
X1842400D01*
X1902380Y635315D02*
X1922374D01*
X1912377D01*
Y695295D01*
X1902380Y685299D01*
X1952364D02*
X1962361Y695295D01*
X1982355D01*
X1992351Y685299D01*
Y675302D01*
X1982355Y665305D01*
X1972358D01*
X1982355D01*
X1992351Y655308D01*
Y645312D01*
X1982355Y635315D01*
X1962361D01*
X1952364Y645312D01*
X2027561Y3238189D02*
X1967580D01*
Y3208198D01*
X1977577Y3198202D01*
X2017564D01*
X2027561Y3208198D01*
Y3238189D01*
X1967580Y3178208D02*
Y3158215D01*
Y3168211D01*
X2027561D01*
X2017564Y3178208D01*
X1967580Y3128224D02*
Y3108231D01*
Y3118228D01*
X2027561D01*
X2017564Y3128224D01*
X1318899Y3238189D02*
X1258919D01*
Y3208199D01*
X1268915Y3198202D01*
X1308902D01*
X1318899Y3208199D01*
Y3238189D01*
X1268915Y3178208D02*
X1258919Y3168211D01*
Y3148218D01*
X1268915Y3138221D01*
X1308902D01*
X1318899Y3148218D01*
Y3168211D01*
X1308902Y3178208D01*
X1298906D01*
X1288909Y3168211D01*
Y3138221D01*
X1670671Y3238189D02*
X1610690D01*
Y3208198D01*
X1620687Y3198202D01*
X1660674D01*
X1670671Y3208198D01*
Y3238189D01*
Y3178208D02*
Y3138221D01*
X1660674D01*
X1620687Y3178208D01*
X1610690D01*
X2682132Y2980340D02*
Y2920360D01*
X2712122D01*
X2722119Y2930357D01*
Y2970344D01*
X2712122Y2980340D01*
X2682132D01*
X2782099D02*
X2762106Y2970344D01*
X2742112Y2950350D01*
Y2930357D01*
X2752109Y2920360D01*
X2772103D01*
X2782099Y2930357D01*
Y2940353D01*
X2772103Y2950350D01*
X2742112D01*
X3076250Y2980561D02*
Y2920580D01*
X3106240D01*
X3116237Y2930577D01*
Y2970564D01*
X3106240Y2980561D01*
X3076250D01*
X3176218D02*
X3136231D01*
Y2950570D01*
X3156224Y2960567D01*
X3166221D01*
X3176218Y2950570D01*
Y2930577D01*
X3166221Y2920580D01*
X3146227D01*
X3136231Y2930577D01*
X3457919Y2980561D02*
Y2920580D01*
X3487910D01*
X3497906Y2930577D01*
Y2970564D01*
X3487910Y2980561D01*
X3457919D01*
X3547890Y2920580D02*
Y2980561D01*
X3517900Y2950570D01*
X3557887D01*
X3772730Y2980758D02*
Y2920777D01*
X3802720D01*
X3812717Y2930774D01*
Y2970761D01*
X3802720Y2980758D01*
X3772730D01*
X3832711Y2970761D02*
X3842708Y2980758D01*
X3862701D01*
X3872698Y2970761D01*
Y2960764D01*
X3862701Y2950767D01*
X3852704D01*
X3862701D01*
X3872698Y2940771D01*
Y2930774D01*
X3862701Y2920777D01*
X3842708D01*
X3832711Y2930774D01*
X4088549Y2980301D02*
Y2920320D01*
X4118539D01*
X4128536Y2930317D01*
Y2970304D01*
X4118539Y2980301D01*
X4088549D01*
X4188517Y2920320D02*
X4148530D01*
X4188517Y2960307D01*
Y2970304D01*
X4178520Y2980301D01*
X4158527D01*
X4148530Y2970304D01*
X2411143Y3238189D02*
X2351163D01*
Y3208198D01*
X2361160Y3198202D01*
X2401146D01*
X2411143Y3208198D01*
Y3238189D01*
X2351163Y3178208D02*
Y3158215D01*
Y3168211D01*
X2411143D01*
X2401146Y3178208D01*
D42*
X2523622Y3555118D02*
X2531496D01*
X2523622D02*
Y3688976D01*
X2531496D01*
X2586614Y3555118D02*
X2594488D01*
Y3688976D01*
X2586614D02*
X2594488D01*
X2523622Y3622047D02*
X2594488D01*
X2362205Y613543D02*
Y684409D01*
X2429134Y613543D02*
Y621417D01*
X2295276Y613543D02*
X2429134D01*
X2295276D02*
Y621417D01*
X2429134Y676535D02*
Y684409D01*
X2295276D02*
X2429134D01*
X2295276Y676535D02*
Y684409D01*
X1381890Y472441D02*
X1452756D01*
X1381890Y405512D02*
X1389764D01*
X1381890D02*
Y539370D01*
X1389764D01*
X1444882Y405512D02*
X1452756D01*
Y539370D01*
X1444882D02*
X1452756D01*
X2129921Y3622047D02*
X2200787D01*
X2192914Y3688976D02*
X2200787D01*
Y3555118D02*
Y3688976D01*
X2192914Y3555118D02*
X2200787D01*
X2129921Y3688976D02*
X2137795D01*
X2129921Y3555118D02*
Y3688976D01*
Y3555118D02*
X2137795D01*
X2051181Y3622047D02*
X2122047D01*
X2114173Y3688976D02*
X2122047D01*
Y3555118D02*
Y3688976D01*
X2114173Y3555118D02*
X2122047D01*
X2051181Y3688976D02*
X2059055D01*
X2051181Y3555118D02*
Y3688976D01*
Y3555118D02*
X2059055D01*
X1423071Y3622047D02*
X1493937D01*
X1486063Y3688976D02*
X1493937D01*
Y3555118D02*
Y3688976D01*
X1486063Y3555118D02*
X1493937D01*
X1423071Y3688976D02*
X1430945D01*
X1423071Y3555118D02*
Y3688976D01*
Y3555118D02*
X1430945D01*
X1341596Y3622047D02*
X1412462D01*
X1404588Y3688976D02*
X1412462D01*
Y3555118D02*
Y3688976D01*
X1404588Y3555118D02*
X1412462D01*
X1341596Y3688976D02*
X1349470D01*
X1341596Y3555118D02*
Y3688976D01*
Y3555118D02*
X1349470D01*
X1775591Y3622047D02*
X1846457D01*
X1838583Y3688976D02*
X1846457D01*
Y3555118D02*
Y3688976D01*
X1838583Y3555118D02*
X1846457D01*
X1775591Y3688976D02*
X1783465D01*
X1775591Y3555118D02*
Y3688976D01*
Y3555118D02*
X1783465D01*
X1696850Y3622047D02*
X1767717D01*
X1759843Y3688976D02*
X1767717D01*
Y3555118D02*
Y3688976D01*
X1759843Y3555118D02*
X1767717D01*
X1696850Y3688976D02*
X1704724D01*
X1696850Y3555118D02*
Y3688976D01*
Y3555118D02*
X1704724D01*
X2768738Y3307087D02*
X2839604D01*
X2831730Y3374016D02*
X2839604D01*
Y3240157D02*
Y3374016D01*
X2831730Y3240157D02*
X2839604D01*
X2768738Y3374016D02*
X2776612D01*
X2768738Y3240157D02*
Y3374016D01*
Y3240157D02*
X2776612D01*
X2689250Y3307087D02*
X2760116D01*
X2752242Y3374016D02*
X2760116D01*
Y3240157D02*
Y3374016D01*
X2752242Y3240157D02*
X2760116D01*
X2689250Y3374016D02*
X2697124D01*
X2689250Y3240157D02*
Y3374016D01*
Y3240157D02*
X2697124D01*
X3161044Y3308898D02*
X3231910D01*
X3224036Y3375827D02*
X3231910D01*
Y3241968D02*
Y3375827D01*
X3224036Y3241968D02*
X3231910D01*
X3161044Y3375827D02*
X3168918D01*
X3161044Y3241968D02*
Y3375827D01*
Y3241968D02*
X3168918D01*
X3083699Y3307087D02*
X3154565D01*
X3146691Y3374016D02*
X3154565D01*
Y3240157D02*
Y3374016D01*
X3146691Y3240157D02*
X3154565D01*
X3083699Y3374016D02*
X3091573D01*
X3083699Y3240157D02*
Y3374016D01*
Y3240157D02*
X3091573D01*
X3547244Y3307087D02*
X3618110D01*
X3610236Y3374016D02*
X3618110D01*
Y3240157D02*
Y3374016D01*
X3610236Y3240157D02*
X3618110D01*
X3547244Y3374016D02*
X3555118D01*
X3547244Y3240157D02*
Y3374016D01*
Y3240157D02*
X3555118D01*
X3468504Y3307087D02*
X3539370D01*
X3531496Y3374016D02*
X3539370D01*
Y3240157D02*
Y3374016D01*
X3531496Y3240157D02*
X3539370D01*
X3468504Y3374016D02*
X3476378D01*
X3468504Y3240157D02*
Y3374016D01*
Y3240157D02*
X3476378D01*
X3901575Y3307087D02*
X3972441D01*
X3964567Y3374016D02*
X3972441D01*
Y3240157D02*
Y3374016D01*
X3964567Y3240157D02*
X3972441D01*
X3901575Y3374016D02*
X3909449D01*
X3901575Y3240157D02*
Y3374016D01*
Y3240157D02*
X3909449D01*
X3822835Y3307087D02*
X3893701D01*
X3885827Y3374016D02*
X3893701D01*
Y3240157D02*
Y3374016D01*
X3885827Y3240157D02*
X3893701D01*
X3822835Y3374016D02*
X3830709D01*
X3822835Y3240157D02*
Y3374016D01*
Y3240157D02*
X3830709D01*
X4255905Y3307087D02*
X4326772D01*
X4318898Y3374016D02*
X4326772D01*
Y3240157D02*
Y3374016D01*
X4318898Y3240157D02*
X4326772D01*
X4255905Y3374016D02*
X4263779D01*
X4255905Y3240157D02*
Y3374016D01*
Y3240157D02*
X4263779D01*
X4186061Y3307087D02*
X4256927D01*
X4249053Y3374016D02*
X4256927D01*
Y3240157D02*
Y3374016D01*
X4249053Y3240157D02*
X4256927D01*
X4186061Y3374016D02*
X4193935D01*
X4186061Y3240157D02*
Y3374016D01*
Y3240157D02*
X4193935D01*
X2444882Y3622047D02*
X2515748D01*
X2507874Y3688976D02*
X2515748D01*
Y3555118D02*
Y3688976D01*
X2507874Y3555118D02*
X2515748D01*
X2444882Y3688976D02*
X2452756D01*
X2444882Y3555118D02*
Y3688976D01*
Y3555118D02*
X2452756D01*
%TF.MD5,e6bdad6bf7f61fdc95aa0c02580dcfe3*%
M02*
