%TF.GenerationSoftware,Altium Limited,Altium Designer,18.1.9 (240)*%
G04 Layer_Color=128*
%FSLAX26Y26*%
%MOIN*%
%TF.FileFunction,Paste,Bot*%
%TF.Part,Single*%
G01*
G75*
%TA.AperFunction,SMDPad,CuDef*%
%ADD27R,0.035433X0.031496*%
%ADD28R,0.053150X0.057087*%
D27*
X1731360Y3574803D02*
D03*
Y3649606D02*
D03*
X1810100Y3612205D02*
D03*
X4221494Y3261478D02*
D03*
Y3336281D02*
D03*
X4300234Y3298880D02*
D03*
X3867163Y3261478D02*
D03*
Y3336281D02*
D03*
X3945903Y3298880D02*
D03*
X3512832Y3261478D02*
D03*
Y3336281D02*
D03*
X3591573Y3298880D02*
D03*
X3119132Y3261478D02*
D03*
Y3336281D02*
D03*
X3197872Y3298880D02*
D03*
X2725431Y3261478D02*
D03*
Y3336281D02*
D03*
X2804171Y3298880D02*
D03*
X2479391Y3574803D02*
D03*
Y3649606D02*
D03*
X2558131Y3612205D02*
D03*
X2085690Y3574803D02*
D03*
Y3649606D02*
D03*
X2164430Y3612205D02*
D03*
X1377029Y3574803D02*
D03*
Y3649606D02*
D03*
X1455769Y3612205D02*
D03*
D28*
X2167323Y2677165D02*
D03*
X2283465D02*
D03*
X1792323Y2490157D02*
D03*
X1908465D02*
D03*
X1201772Y2608268D02*
D03*
X1317913D02*
D03*
%TF.MD5,77a08d3a577e05ed4e168657b9f9634a*%
M02*
