%TF.GenerationSoftware,Altium Limited,Altium Designer,18.1.9 (240)*%
G04 Layer_Color=128*
%FSLAX26Y26*%
%MOIN*%
%TF.FileFunction,Drillmap*%
%TF.Part,Single*%
G01*
G75*
%TA.AperFunction,NonConductor*%
%ADD64C,0.005000*%
D64*
X4837500Y300000D02*
X4962500D01*
X4900000Y237500D02*
Y362500D01*
X237500Y300000D02*
X362500D01*
X300000Y237500D02*
Y362500D01*
X237500Y4700000D02*
X362500D01*
X300000Y4637500D02*
Y4762500D01*
X702756Y2253937D02*
X753937D01*
X728346Y2228346D02*
Y2279527D01*
X702756Y2372047D02*
X753937D01*
X728346Y2346457D02*
Y2397638D01*
X702756Y2490157D02*
X753937D01*
X728346Y2464567D02*
Y2515748D01*
X702756Y2608268D02*
X753937D01*
X728346Y2582677D02*
Y2633858D01*
X702756Y2726378D02*
X753937D01*
X728346Y2700787D02*
Y2751968D01*
X702756Y2844488D02*
X753937D01*
X728346Y2818898D02*
Y2870079D01*
X702756Y2962598D02*
X753937D01*
X728346Y2937008D02*
Y2988189D01*
X702756Y3080709D02*
X753937D01*
X728346Y3055118D02*
Y3106299D01*
X702756Y3198819D02*
X753937D01*
X728346Y3173228D02*
Y3224409D01*
X604331Y2312992D02*
X655512D01*
X629921Y2287402D02*
Y2338583D01*
X604331Y2431102D02*
X655512D01*
X629921Y2405512D02*
Y2456693D01*
X604331Y2549213D02*
X655512D01*
X629921Y2523622D02*
Y2574803D01*
X604331Y2667323D02*
X655512D01*
X629921Y2641732D02*
Y2692913D01*
X604331Y2785433D02*
X655512D01*
X629921Y2759843D02*
Y2811023D01*
X604331Y2903543D02*
X655512D01*
X629921Y2877953D02*
Y2929134D01*
X604331Y3021653D02*
X655512D01*
X629921Y2996063D02*
Y3047244D01*
X604331Y3139764D02*
X655512D01*
X629921Y3114173D02*
Y3165354D01*
X486221Y2312992D02*
X537402D01*
X511811Y2287402D02*
Y2338583D01*
X486221Y2431102D02*
X537402D01*
X511811Y2405512D02*
Y2456693D01*
X486221Y2549213D02*
X537402D01*
X511811Y2523622D02*
Y2574803D01*
X486221Y2667323D02*
X537402D01*
X511811Y2641732D02*
Y2692913D01*
X486221Y2785433D02*
X537402D01*
X511811Y2759843D02*
Y2811023D01*
X486221Y2903543D02*
X537402D01*
X511811Y2877953D02*
Y2929134D01*
X486221Y3021653D02*
X537402D01*
X511811Y2996063D02*
Y3047244D01*
X486221Y3139764D02*
X537402D01*
X511811Y3114173D02*
Y3165354D01*
X387795Y2253937D02*
X438976D01*
X413386Y2228346D02*
Y2279527D01*
X387795Y2372047D02*
X438976D01*
X413386Y2346457D02*
Y2397638D01*
X387795Y2490157D02*
X438976D01*
X413386Y2464567D02*
Y2515748D01*
X387795Y2608268D02*
X438976D01*
X413386Y2582677D02*
Y2633858D01*
X387795Y2726378D02*
X438976D01*
X413386Y2700787D02*
Y2751968D01*
X387795Y2844488D02*
X438976D01*
X413386Y2818898D02*
Y2870079D01*
X387795Y2962598D02*
X438976D01*
X413386Y2937008D02*
Y2988189D01*
X387795Y3080709D02*
X438976D01*
X413386Y3055118D02*
Y3106299D01*
X387795Y3198819D02*
X438976D01*
X413386Y3173228D02*
Y3224409D01*
X92520Y688976D02*
X222441D01*
X157480Y624016D02*
Y753937D01*
X387795Y1683071D02*
X438976D01*
X413386Y1657480D02*
Y1708661D01*
X387795Y1564961D02*
X438976D01*
X413386Y1539370D02*
Y1590551D01*
X387795Y1446850D02*
X438976D01*
X413386Y1421260D02*
Y1472441D01*
X387795Y1328740D02*
X438976D01*
X413386Y1303150D02*
Y1354331D01*
X387795Y1210630D02*
X438976D01*
X413386Y1185039D02*
Y1236220D01*
X387795Y1092520D02*
X438976D01*
X413386Y1066929D02*
Y1118110D01*
X387795Y974409D02*
X438976D01*
X413386Y948819D02*
Y1000000D01*
X486221Y1624016D02*
X537402D01*
X511811Y1598425D02*
Y1649606D01*
X486221Y1505906D02*
X537402D01*
X511811Y1480315D02*
Y1531496D01*
X486221Y1387795D02*
X537402D01*
X511811Y1362205D02*
Y1413386D01*
X486221Y1269685D02*
X537402D01*
X511811Y1244094D02*
Y1295275D01*
X486221Y1151575D02*
X537402D01*
X511811Y1125984D02*
Y1177165D01*
X486221Y1033465D02*
X537402D01*
X511811Y1007874D02*
Y1059055D01*
X604331Y1624016D02*
X655512D01*
X629921Y1598425D02*
Y1649606D01*
X604331Y1505906D02*
X655512D01*
X629921Y1480315D02*
Y1531496D01*
X604331Y1387795D02*
X655512D01*
X629921Y1362205D02*
Y1413386D01*
X604331Y1269685D02*
X655512D01*
X629921Y1244094D02*
Y1295275D01*
X604331Y1151575D02*
X655512D01*
X629921Y1125984D02*
Y1177165D01*
X604331Y1033465D02*
X655512D01*
X629921Y1007874D02*
Y1059055D01*
X702756Y1683071D02*
X753937D01*
X728346Y1657480D02*
Y1708661D01*
X702756Y1564961D02*
X753937D01*
X728346Y1539370D02*
Y1590551D01*
X702756Y1446850D02*
X753937D01*
X728346Y1421260D02*
Y1472441D01*
X702756Y1328740D02*
X753937D01*
X728346Y1303150D02*
Y1354331D01*
X702756Y1210630D02*
X753937D01*
X728346Y1185039D02*
Y1236220D01*
X702756Y1092520D02*
X753937D01*
X728346Y1066929D02*
Y1118110D01*
X702756Y974409D02*
X753937D01*
X728346Y948819D02*
Y1000000D01*
X92520Y1968504D02*
X222441D01*
X157480Y1903543D02*
Y2033465D01*
X92520Y3484252D02*
X222441D01*
X157480Y3419291D02*
Y3549213D01*
X4837500Y4700000D02*
X4962500D01*
X4900000Y4637500D02*
Y4762500D01*
X2289648Y1989824D02*
X2344767D01*
X2317207Y1962265D02*
Y2017383D01*
X2315239Y2363840D02*
X2370357D01*
X2342798Y2336281D02*
Y2391399D01*
X2165633Y2226045D02*
X2220751D01*
X2193192Y2198486D02*
Y2253604D01*
X2126263Y2580376D02*
X2169570D01*
X2147916Y2558722D02*
Y2602029D01*
X2295554Y2580376D02*
X2338861D01*
X2317207Y2558722D02*
Y2602029D01*
X1575314Y1989824D02*
X1630432D01*
X1602873Y1962265D02*
Y2017383D01*
X1600905Y2363840D02*
X1656023D01*
X1628464Y2336281D02*
Y2391399D01*
X1451298Y2226045D02*
X1506416D01*
X1478857Y2198486D02*
Y2253604D01*
X1411928Y2580376D02*
X1455235D01*
X1433582Y2558722D02*
Y2602029D01*
X1581219Y2580376D02*
X1624526D01*
X1602873Y2558722D02*
Y2602029D01*
X1907480Y1989824D02*
X1962598D01*
X1935039Y1962265D02*
Y2017383D01*
X1933071Y2363840D02*
X1988189D01*
X1960630Y2336281D02*
Y2391399D01*
X1783465Y2226045D02*
X1838583D01*
X1811024Y2198486D02*
Y2253604D01*
X1744095Y2580376D02*
X1787402D01*
X1765748Y2558722D02*
Y2602029D01*
X1913386Y2580376D02*
X1956693D01*
X1935039Y2558722D02*
Y2602029D01*
X2209172Y1712659D02*
X2276101D01*
X2242637Y1679195D02*
Y1746123D01*
X2209172Y1322108D02*
X2276101D01*
X2242637Y1288643D02*
Y1355572D01*
X2075314Y1712659D02*
X2142243D01*
X2108778Y1679195D02*
Y1746123D01*
X2075314Y1322108D02*
X2142243D01*
X2108778Y1288643D02*
Y1355572D01*
X1579251Y1712659D02*
X1646180D01*
X1612716Y1679195D02*
Y1746123D01*
X1579251Y1322108D02*
X1646180D01*
X1612716Y1288643D02*
Y1355572D01*
X1445393Y1712659D02*
X1512322D01*
X1478857Y1679195D02*
Y1746123D01*
X1445393Y1322108D02*
X1512322D01*
X1478857Y1288643D02*
Y1355572D01*
X1894212Y1712659D02*
X1961141D01*
X1927676Y1679195D02*
Y1746123D01*
X1894212Y1322108D02*
X1961141D01*
X1927676Y1288643D02*
Y1355572D01*
X1760353Y1712659D02*
X1827282D01*
X1793818Y1679195D02*
Y1746123D01*
X1760353Y1322108D02*
X1827282D01*
X1793818Y1288643D02*
Y1355572D01*
X1034488Y1085630D02*
X1101417D01*
X1067953Y1052165D02*
Y1119094D01*
X1425040Y1085630D02*
X1491968D01*
X1458504Y1052165D02*
Y1119094D01*
X1034488Y951772D02*
X1101417D01*
X1067953Y918307D02*
Y985236D01*
X1425040Y951772D02*
X1491968D01*
X1458504Y918307D02*
Y985236D01*
X2839093Y1712659D02*
X2906023D01*
X2872558Y1679195D02*
Y1746123D01*
X2839093Y1322108D02*
X2906023D01*
X2872558Y1288643D02*
Y1355572D01*
X2705235Y1712659D02*
X2772164D01*
X2738700Y1679195D02*
Y1746123D01*
X2705235Y1322108D02*
X2772164D01*
X2738700Y1288643D02*
Y1355572D01*
X3154054Y1712659D02*
X3220983D01*
X3187519Y1679195D02*
Y1746123D01*
X3154054Y1322108D02*
X3220983D01*
X3187519Y1288643D02*
Y1355572D01*
X3020196Y1712659D02*
X3087125D01*
X3053660Y1679195D02*
Y1746123D01*
X3020196Y1322108D02*
X3087125D01*
X3053660Y1288643D02*
Y1355572D01*
X3469015Y1712659D02*
X3535944D01*
X3502479Y1679195D02*
Y1746123D01*
X3469015Y1322108D02*
X3535944D01*
X3502479Y1288643D02*
Y1355572D01*
X3335157Y1712659D02*
X3402086D01*
X3368621Y1679195D02*
Y1746123D01*
X3335157Y1322108D02*
X3402086D01*
X3368621Y1288643D02*
Y1355572D01*
X3783975Y1712659D02*
X3850904D01*
X3817440Y1679195D02*
Y1746123D01*
X3783975Y1322108D02*
X3850904D01*
X3817440Y1288643D02*
Y1355572D01*
X3650117Y1712659D02*
X3717046D01*
X3683582Y1679195D02*
Y1746123D01*
X3650117Y1322108D02*
X3717046D01*
X3683582Y1288643D02*
Y1355572D01*
X4098936Y1712659D02*
X4165865D01*
X4132401Y1679195D02*
Y1746123D01*
X4098936Y1322108D02*
X4165865D01*
X4132401Y1288643D02*
Y1355572D01*
X3965078Y1712659D02*
X4032007D01*
X3998542Y1679195D02*
Y1746123D01*
X3965078Y1322108D02*
X4032007D01*
X3998542Y1288643D02*
Y1355572D01*
X2513780Y1712677D02*
X2580709D01*
X2547244Y1679213D02*
Y1746142D01*
X2513780Y1322126D02*
X2580709D01*
X2547244Y1288661D02*
Y1355591D01*
X2379921Y1712677D02*
X2446850D01*
X2413386Y1679213D02*
Y1746142D01*
X2379921Y1322126D02*
X2446850D01*
X2413386Y1288661D02*
Y1355591D01*
X209357Y971674D02*
X237357D01*
X223357Y957674D02*
Y985674D01*
X209357Y1151575D02*
X237357D01*
X223357Y1137575D02*
Y1165575D01*
X222220Y1301857D02*
X250220D01*
X236220Y1287857D02*
Y1315857D01*
X4001748Y3740157D02*
X4029748D01*
X4015748Y3726157D02*
Y3754157D01*
X3584673Y3740157D02*
X3612673D01*
X3598673Y3726157D02*
Y3754157D01*
X3211551Y3740157D02*
X3239551D01*
X3225551Y3726157D02*
Y3754157D01*
X2820646Y3779528D02*
X2848646D01*
X2834646Y3765528D02*
Y3793528D01*
X2710683Y3779528D02*
X2738683D01*
X2724683Y3765528D02*
Y3793528D01*
X2190724Y3858268D02*
X2218724D01*
X2204724Y3844268D02*
Y3872268D01*
X1797024Y3858268D02*
X1825024D01*
X1811024Y3844268D02*
Y3872268D01*
X1324583Y3858268D02*
X1352583D01*
X1338583Y3844268D02*
Y3872268D01*
X1006023Y3779528D02*
X1034023D01*
X1020023Y3765528D02*
Y3793528D01*
X1006023Y2598425D02*
X1034023D01*
X1020023Y2584425D02*
Y2612425D01*
X2038351Y2598425D02*
X2066352D01*
X2052352Y2584425D02*
Y2612425D01*
X2074861Y2381184D02*
X2102861D01*
X2088861Y2367184D02*
Y2395184D01*
X1053953Y341606D02*
X1081953D01*
X1067953Y327606D02*
Y355606D01*
X3726157Y1505906D02*
X3754157D01*
X3740157Y1491906D02*
Y1519906D01*
X3107452Y1505906D02*
X3135452D01*
X3121452Y1491906D02*
Y1519906D01*
X2468942Y1505906D02*
X2496942D01*
X2482942Y1491906D02*
Y1519906D01*
X1855345Y1505906D02*
X1883345D01*
X1869345Y1491906D02*
Y1519906D01*
X714346Y3809807D02*
X742346D01*
X728346Y3795807D02*
Y3823807D01*
X3914915Y3519571D02*
X3942915D01*
X3928915Y3505571D02*
Y3533571D01*
X3450567Y3519571D02*
X3478567D01*
X3464567Y3505571D02*
Y3533571D01*
X2938756Y3519571D02*
X2966756D01*
X2952756Y3505571D02*
Y3533571D01*
X4285431Y3073782D02*
X4313431D01*
X4299431Y3059782D02*
Y3087782D01*
X3962378Y3070866D02*
X3990378D01*
X3976378Y3056866D02*
Y3084866D01*
X3647417Y3073782D02*
X3675417D01*
X3661417Y3059782D02*
Y3087782D01*
X3293087Y3078959D02*
X3321087D01*
X3307087Y3064959D02*
Y3092959D01*
X2921495Y3081693D02*
X2949495D01*
X2935495Y3067693D02*
Y3095693D01*
X2584425Y3078959D02*
X2612425D01*
X2598425Y3064959D02*
Y3092959D01*
X2289150Y3307087D02*
X2317150D01*
X2303150Y3293087D02*
Y3321087D01*
X1897845Y3307087D02*
X1925845D01*
X1911845Y3293087D02*
Y3321087D01*
X1523855Y3307087D02*
X1551855D01*
X1537855Y3293087D02*
Y3321087D01*
X2608200Y323955D02*
X2636200D01*
X2622200Y309955D02*
Y337955D01*
X2033244Y323955D02*
X2061244D01*
X2047244Y309955D02*
Y337955D01*
X1048953Y738895D02*
X1076953D01*
X1062953Y724895D02*
Y752895D01*
X602005Y866142D02*
X630005D01*
X616005Y852142D02*
Y880142D01*
X2486593Y2372047D02*
X2514593D01*
X2500593Y2358047D02*
Y2386047D01*
X3096236Y2372047D02*
X3124236D01*
X3110236Y2358047D02*
Y2386047D01*
X2710683Y2613371D02*
X2738683D01*
X2724683Y2599371D02*
Y2627371D01*
X3801982Y2363840D02*
X3829982D01*
X3815982Y2349840D02*
Y2377840D01*
X3489937Y2372047D02*
X3517937D01*
X3503937Y2358047D02*
Y2386047D01*
X4277339Y3188976D02*
X4305339D01*
X4291339Y3174976D02*
Y3202976D01*
X3923008Y3188976D02*
X3951008D01*
X3937008Y3174976D02*
Y3202976D01*
X3568677Y3188976D02*
X3596677D01*
X3582677Y3174976D02*
Y3202976D01*
X3174976Y3188976D02*
X3202976D01*
X3188976Y3174976D02*
Y3202976D01*
X2790171Y3198819D02*
X2818171D01*
X2804171Y3184819D02*
Y3212819D01*
X2545055Y3503937D02*
X2573055D01*
X2559055Y3489937D02*
Y3517937D01*
X2151354Y3503937D02*
X2179354D01*
X2165354Y3489937D02*
Y3517937D01*
X1797024Y3503937D02*
X1825024D01*
X1811024Y3489937D02*
Y3517937D01*
X1444504Y3503937D02*
X1472504D01*
X1458504Y3489937D02*
Y3517937D01*
X2710683Y3070866D02*
X2738683D01*
X2724683Y3056866D02*
Y3084866D01*
X3105132Y3070866D02*
X3133132D01*
X3119132Y3056866D02*
Y3084866D01*
X3487022Y3070866D02*
X3515022D01*
X3501022Y3056866D02*
Y3084866D01*
X3801982Y3070866D02*
X3829982D01*
X3815982Y3056866D02*
Y3084866D01*
X4116943Y3070866D02*
X4144943D01*
X4130943Y3056866D02*
Y3084866D01*
X2465391Y3380905D02*
X2493391D01*
X2479391Y3366905D02*
Y3394905D01*
X2072614Y3380905D02*
X2100614D01*
X2086614Y3366905D02*
Y3394905D01*
X1711454Y3380905D02*
X1739454D01*
X1725454Y3366905D02*
Y3394905D01*
X1363029Y3380905D02*
X1391029D01*
X1377029Y3366905D02*
Y3394905D01*
X2533244Y2755905D02*
X2561244D01*
X2547244Y2741905D02*
Y2769905D01*
X629837Y3228346D02*
X657837D01*
X643837Y3214346D02*
Y3242346D01*
X1751748Y1850394D02*
X1779748D01*
X1765748Y1836394D02*
Y1864394D01*
%TF.MD5,3a27ea36f32d71e20fd6a7e5a8319e16*%
M02*
