G04*
G04 #@! TF.GenerationSoftware,Altium Limited,Altium Designer,19.0.15 (446)*
G04*
G04 Layer_Physical_Order=1*
G04 Layer_Color=255*
%FSLAX25Y25*%
%MOIN*%
G70*
G01*
G75*
%ADD12C,0.01000*%
%ADD13C,0.02362*%
%ADD64C,0.00787*%
%ADD70C,0.04724*%
%ADD72O,0.01772X0.06299*%
%ADD73R,0.15197X0.10787*%
%ADD74R,0.15000X0.16693*%
%ADD75R,0.48504X0.15059*%
%ADD76R,0.05512X0.05118*%
%ADD77R,0.04724X0.06496*%
%ADD78R,0.14961X0.09843*%
%ADD79R,0.09000X0.07000*%
%ADD80R,0.16142X0.18347*%
G04:AMPARAMS|DCode=81|XSize=33.47mil|YSize=57.09mil|CornerRadius=8.37mil|HoleSize=0mil|Usage=FLASHONLY|Rotation=90.000|XOffset=0mil|YOffset=0mil|HoleType=Round|Shape=RoundedRectangle|*
%AMROUNDEDRECTD81*
21,1,0.03347,0.04035,0,0,90.0*
21,1,0.01673,0.05709,0,0,90.0*
1,1,0.01673,0.02018,0.00837*
1,1,0.01673,0.02018,-0.00837*
1,1,0.01673,-0.02018,-0.00837*
1,1,0.01673,-0.02018,0.00837*
%
%ADD81ROUNDEDRECTD81*%
%ADD82R,0.09843X0.14961*%
%ADD83R,0.03347X0.03740*%
%ADD84C,0.32284*%
%ADD85O,0.08858X0.02559*%
%ADD86R,0.03150X0.02362*%
%ADD87R,0.24410X0.14764*%
%ADD88R,0.03150X0.03150*%
%ADD89R,0.01575X0.03150*%
%ADD90R,0.03150X0.01575*%
%ADD91R,0.03740X0.03347*%
%ADD92R,0.03543X0.03937*%
%ADD93R,0.09055X0.17913*%
%ADD94R,0.05118X0.05512*%
%ADD95R,0.03937X0.03543*%
%ADD96R,0.05118X0.04331*%
%ADD97O,0.06693X0.02362*%
%ADD98R,0.04528X0.05315*%
%ADD99R,0.10630X0.08661*%
%ADD100R,0.09252X0.12795*%
%ADD101R,0.09252X0.03937*%
%ADD102R,0.10630X0.18701*%
%ADD103R,0.05709X0.01181*%
%ADD104R,0.04724X0.03347*%
%ADD105O,0.05906X0.04724*%
%ADD106R,0.10630X0.05118*%
%ADD107R,0.07087X0.05118*%
%ADD108R,0.03937X0.02559*%
%ADD109C,0.01575*%
%ADD110C,0.03937*%
%ADD111C,0.02953*%
%ADD112C,0.07874*%
%ADD113C,0.02000*%
%ADD114C,0.01200*%
%ADD115C,0.05906*%
%ADD116C,0.07874*%
%ADD117C,0.10630*%
%ADD118O,0.11811X0.05906*%
%ADD119C,0.06000*%
%ADD120C,0.05512*%
%ADD121O,0.05906X0.07874*%
%ADD122O,0.05906X0.11811*%
%ADD123C,0.09843*%
%ADD124C,0.02362*%
%ADD125C,0.03000*%
%ADD126C,0.19685*%
G36*
X46728Y308296D02*
Y287225D01*
X4878D01*
Y308603D01*
X46303Y308720D01*
X46728Y308296D01*
D02*
G37*
G36*
X645400Y322800D02*
X664567D01*
X664567Y288976D01*
X546850Y288976D01*
X546850Y270624D01*
X546664Y269685D01*
X546850Y268746D01*
Y268110D01*
X476378Y268110D01*
Y197072D01*
X466314Y197072D01*
X436614Y197072D01*
Y268504D01*
X408661Y268504D01*
Y282527D01*
X395500Y295518D01*
Y300700D01*
X408661Y313861D01*
X408661Y337008D01*
X631192Y337008D01*
X645400Y322800D01*
D02*
G37*
G36*
X320654Y248429D02*
Y246350D01*
X324409D01*
Y245850D01*
X324909D01*
Y242291D01*
X328165D01*
Y246060D01*
X328720Y246290D01*
X339580Y235430D01*
X339580Y173832D01*
X289567D01*
Y183281D01*
X304540D01*
Y186838D01*
X304835Y187551D01*
X304971Y188583D01*
X304835Y189615D01*
X304540Y190327D01*
X304540Y224939D01*
X305140Y225089D01*
X305158Y225057D01*
X305947Y224095D01*
X306908Y223306D01*
X308005Y222719D01*
X309196Y222358D01*
X310434Y222236D01*
X311672Y222358D01*
X312862Y222719D01*
X313959Y223306D01*
X314921Y224095D01*
X315710Y225057D01*
X316296Y226153D01*
X316657Y227344D01*
X316779Y228582D01*
X316657Y229820D01*
X316296Y231010D01*
X315710Y232107D01*
X314921Y233069D01*
X313959Y233858D01*
X312862Y234444D01*
X311672Y234805D01*
X310434Y234927D01*
X309196Y234805D01*
X308005Y234444D01*
X306908Y233858D01*
X305947Y233069D01*
X305158Y232107D01*
X305140Y232075D01*
X304540Y232225D01*
Y240761D01*
X311044Y247265D01*
X311598Y247035D01*
Y246563D01*
X315354D01*
X319110D01*
Y249029D01*
X320263Y249029D01*
X320654Y248429D01*
D02*
G37*
G36*
X40551Y241754D02*
X37734Y238937D01*
X24170D01*
X23966Y239319D01*
X23078Y240401D01*
X21996Y241288D01*
X20763Y241948D01*
X19424Y242354D01*
X18032Y242491D01*
X16639Y242354D01*
X15300Y241948D01*
X14067Y241288D01*
X12985Y240401D01*
X12098Y239319D01*
X11893Y238937D01*
X5433D01*
Y284370D01*
X40551D01*
Y241754D01*
D02*
G37*
G36*
X519135Y236781D02*
X477397D01*
Y259615D01*
X519135D01*
Y236781D01*
D02*
G37*
G36*
X116535Y274700D02*
X368504Y274700D01*
Y196457D01*
X344882D01*
Y246850D01*
X329601D01*
X329441Y247011D01*
X329110Y247232D01*
X328720Y247310D01*
X328165Y247789D01*
Y251650D01*
X324409D01*
X320654D01*
Y250578D01*
X320632Y250512D01*
X320579Y250416D01*
X320262Y250048D01*
X319534Y250048D01*
X319110Y250472D01*
Y255921D01*
X311598D01*
Y255021D01*
X305724D01*
Y257004D01*
X299000D01*
Y248508D01*
X305724D01*
Y251376D01*
X311598D01*
Y248764D01*
X311044Y248284D01*
X310654Y248207D01*
X310323Y247986D01*
X309188Y246850D01*
X207943D01*
Y250862D01*
X208285Y251203D01*
X209076Y252235D01*
X209574Y253436D01*
X209743Y254724D01*
X209574Y256013D01*
X209076Y257214D01*
X208285Y258245D01*
X207254Y259037D01*
X206053Y259534D01*
X204764Y259704D01*
X203475Y259534D01*
X202274Y259037D01*
X201243Y258245D01*
X199443Y256445D01*
X198651Y255414D01*
X198154Y254213D01*
X197984Y252924D01*
X197984Y252924D01*
Y246850D01*
X77171D01*
X76729Y247450D01*
X76822Y248150D01*
Y250118D01*
X76686Y251150D01*
X76287Y252112D01*
X75654Y252937D01*
X74828Y253571D01*
X73866Y253969D01*
X72835Y254105D01*
X71803Y253969D01*
X70841Y253571D01*
X70016Y252937D01*
X69382Y252112D01*
X68984Y251150D01*
X68848Y250118D01*
Y248150D01*
X68940Y247450D01*
X68498Y246850D01*
X50254D01*
Y249134D01*
X53393D01*
Y258134D01*
X50000D01*
Y266276D01*
X53393D01*
Y275276D01*
X50887D01*
Y285510D01*
X50785Y286285D01*
X50486Y287007D01*
X50010Y287627D01*
X50000Y287637D01*
Y308661D01*
X116535D01*
Y274700D01*
D02*
G37*
G36*
X664567Y168110D02*
X580709Y168110D01*
Y222228D01*
X582079D01*
Y225197D01*
Y228165D01*
X580709D01*
Y229430D01*
X581759D01*
Y232300D01*
Y235170D01*
X580709D01*
Y276378D01*
X664567Y276378D01*
X664567Y168110D01*
D02*
G37*
G36*
X183173Y175078D02*
X182943Y174524D01*
X180595D01*
Y172350D01*
X183465D01*
Y171350D01*
X180595D01*
Y169177D01*
Y164059D01*
X181549D01*
Y156709D01*
X179217D01*
Y154738D01*
X178616Y154722D01*
X176832Y156506D01*
Y162686D01*
X179034D01*
Y168623D01*
X172888D01*
Y169888D01*
X175976D01*
Y172758D01*
Y175628D01*
X168685D01*
Y169888D01*
X169829D01*
Y168623D01*
X168176D01*
Y162686D01*
X173774D01*
Y155873D01*
X173853Y155473D01*
X173300Y155177D01*
X169417Y159060D01*
X168921Y159392D01*
X168421Y159491D01*
Y161368D01*
X161130D01*
Y158498D01*
Y155628D01*
X161857D01*
X162140Y155099D01*
X162015Y154912D01*
X161821Y153937D01*
X162015Y152962D01*
X162568Y152135D01*
X163395Y151582D01*
X163837Y151494D01*
X164367Y151372D01*
X164272Y150842D01*
X164183Y150394D01*
X164377Y149418D01*
X164564Y149139D01*
X164243Y148539D01*
X161130D01*
Y145669D01*
Y142799D01*
X165708D01*
X165861Y142238D01*
X165840Y142180D01*
X165126Y141704D01*
X164574Y140877D01*
X164380Y139901D01*
X164574Y138926D01*
X165126Y138099D01*
X165690Y137722D01*
X165508Y137122D01*
X161130D01*
Y134252D01*
Y131382D01*
X168421D01*
Y132223D01*
X171912D01*
X172141Y131668D01*
X169549Y129076D01*
X168421D01*
Y130626D01*
X161130D01*
Y127756D01*
Y124886D01*
X166838D01*
X167067Y124331D01*
X166258Y123523D01*
X161130D01*
Y120653D01*
Y117782D01*
X166838D01*
X167067Y117228D01*
X166258Y116419D01*
X161130D01*
Y113549D01*
Y110679D01*
X166936D01*
X167166Y110125D01*
X166455Y109414D01*
X161031D01*
Y106446D01*
Y103477D01*
X168618D01*
Y107252D01*
X171603Y110236D01*
X171925Y110172D01*
X172900Y110366D01*
X173727Y110919D01*
X174280Y111746D01*
X174474Y112721D01*
X174410Y113043D01*
X174685Y113319D01*
X175017Y113815D01*
X175133Y114400D01*
Y120214D01*
X176921Y122002D01*
X179217D01*
Y118095D01*
X186221D01*
Y107066D01*
X185834Y106487D01*
X185640Y105512D01*
X185704Y105190D01*
X181695Y101181D01*
X148835D01*
Y101394D01*
X137525D01*
Y105799D01*
X129045D01*
Y106299D01*
X128545D01*
Y112221D01*
X121653D01*
Y130124D01*
X123705D01*
Y127847D01*
Y125901D01*
X126575D01*
X129445D01*
Y127847D01*
Y133193D01*
X128104D01*
Y134539D01*
X129445D01*
Y134691D01*
X137385D01*
X137568Y134418D01*
X138395Y133865D01*
X139370Y133671D01*
X140346Y133865D01*
X141173Y134418D01*
X141725Y135245D01*
X141919Y136221D01*
X141725Y137196D01*
X141173Y138023D01*
X140346Y138575D01*
X139868Y138671D01*
Y139282D01*
X140346Y139377D01*
X141173Y139930D01*
X141725Y140757D01*
X141919Y141732D01*
X141725Y142708D01*
X141173Y143535D01*
X140900Y143717D01*
Y178583D01*
X179668D01*
X183173Y175078D01*
D02*
G37*
G36*
X271303Y150647D02*
Y124606D01*
X268077Y121380D01*
X239807D01*
Y136772D01*
X245197Y136772D01*
X245205Y136779D01*
X246213D01*
Y141929D01*
X246200D01*
X246200Y143165D01*
X248190Y145155D01*
X254819Y145155D01*
X254890Y145048D01*
X255717Y144495D01*
X256693Y144301D01*
X257668Y144495D01*
X258495Y145048D01*
X258566Y145155D01*
X259754D01*
Y143882D01*
X267341D01*
Y146850D01*
Y150281D01*
X267302Y150373D01*
X268001Y151072D01*
X270879Y151072D01*
X271303Y150647D01*
D02*
G37*
G36*
X365748Y123622D02*
X344488Y102362D01*
X234646D01*
X234646Y115748D01*
X274016D01*
X280315Y122047D01*
Y154921D01*
X289567Y164173D01*
Y172812D01*
X339580D01*
X339970Y172890D01*
X340300Y173111D01*
X340379Y173228D01*
X365748D01*
X365748Y123622D01*
D02*
G37*
G36*
X664567Y166491D02*
Y88189D01*
X614780D01*
Y89657D01*
X597819D01*
Y88189D01*
X583071D01*
Y55495D01*
X542913Y55495D01*
Y96090D01*
X543398D01*
Y98799D01*
X543898D01*
Y99299D01*
X547788D01*
Y99636D01*
X547645Y100352D01*
X547259Y100930D01*
X547181Y101095D01*
Y101504D01*
X547259Y101668D01*
X547645Y102246D01*
X547788Y102963D01*
Y103299D01*
X543898D01*
Y104299D01*
X547788D01*
Y104636D01*
X547645Y105352D01*
X547259Y105930D01*
X547181Y106095D01*
Y106504D01*
X547259Y106668D01*
X547645Y107246D01*
X547788Y107963D01*
Y108299D01*
X543898D01*
Y109299D01*
X547788D01*
Y109636D01*
X547645Y110352D01*
X547259Y110930D01*
X547181Y111095D01*
Y111504D01*
X547259Y111668D01*
X547645Y112246D01*
X547788Y112963D01*
Y114636D01*
X547645Y115352D01*
X547239Y115960D01*
X546632Y116366D01*
X545915Y116508D01*
X544959D01*
Y155905D01*
X580709D01*
Y167091D01*
X663967Y167091D01*
X664567Y166491D01*
D02*
G37*
G36*
X264173Y79176D02*
X208661D01*
Y94488D01*
X264173D01*
Y79176D01*
D02*
G37*
G36*
X466142Y155905D02*
X541901Y155905D01*
Y116508D01*
X541880D01*
X541163Y116366D01*
X540556Y115960D01*
X540150Y115352D01*
X540007Y114636D01*
Y112963D01*
X540150Y112246D01*
X540536Y111668D01*
X540615Y111504D01*
Y111095D01*
X540536Y110930D01*
X540150Y110352D01*
X540007Y109636D01*
Y107963D01*
X540150Y107246D01*
X540536Y106668D01*
X540615Y106504D01*
Y106095D01*
X540536Y105930D01*
X540150Y105352D01*
X540007Y104636D01*
Y102963D01*
X540150Y102246D01*
X540536Y101668D01*
X540615Y101504D01*
Y101095D01*
X540536Y100930D01*
X540150Y100352D01*
X540007Y99636D01*
Y97963D01*
X540150Y97246D01*
X540556Y96639D01*
X541163Y96232D01*
X541880Y96090D01*
X541894D01*
Y55512D01*
X448425Y55512D01*
Y193307D01*
X466142D01*
X466142Y155905D01*
D02*
G37*
%LPC*%
G36*
X519213Y296209D02*
X518181Y296074D01*
X517219Y295675D01*
X516394Y295042D01*
X515760Y294216D01*
X515362Y293254D01*
X515226Y292222D01*
Y286317D01*
X515362Y285285D01*
X515760Y284324D01*
X516394Y283498D01*
X517219Y282864D01*
X518181Y282466D01*
X519213Y282330D01*
X520245Y282466D01*
X521206Y282864D01*
X522032Y283498D01*
X522665Y284324D01*
X523064Y285285D01*
X523200Y286317D01*
Y292222D01*
X523064Y293254D01*
X522665Y294216D01*
X522032Y295042D01*
X521206Y295675D01*
X520245Y296074D01*
X519213Y296209D01*
D02*
G37*
G36*
X499213D02*
X498181Y296074D01*
X497219Y295675D01*
X496393Y295042D01*
X495760Y294216D01*
X495362Y293254D01*
X495226Y292222D01*
Y286317D01*
X495362Y285285D01*
X495760Y284324D01*
X496393Y283498D01*
X497219Y282864D01*
X498181Y282466D01*
X499213Y282330D01*
X500245Y282466D01*
X501206Y282864D01*
X502032Y283498D01*
X502665Y284324D01*
X503064Y285285D01*
X503199Y286317D01*
Y292222D01*
X503064Y293254D01*
X502665Y294216D01*
X502032Y295042D01*
X501206Y295675D01*
X500245Y296074D01*
X499213Y296209D01*
D02*
G37*
G36*
X443213D02*
X442181Y296074D01*
X441219Y295675D01*
X440393Y295042D01*
X439760Y294216D01*
X439362Y293254D01*
X439226Y292222D01*
Y286317D01*
X439362Y285285D01*
X439760Y284324D01*
X440393Y283498D01*
X441219Y282864D01*
X442181Y282466D01*
X443213Y282330D01*
X444244Y282466D01*
X445206Y282864D01*
X446032Y283498D01*
X446665Y284324D01*
X447064Y285285D01*
X447199Y286317D01*
Y292222D01*
X447064Y293254D01*
X446665Y294216D01*
X446032Y295042D01*
X445206Y295675D01*
X444244Y296074D01*
X443213Y296209D01*
D02*
G37*
G36*
X423213D02*
X422181Y296074D01*
X421219Y295675D01*
X420394Y295042D01*
X419760Y294216D01*
X419362Y293254D01*
X419226Y292222D01*
Y286317D01*
X419362Y285285D01*
X419760Y284324D01*
X420394Y283498D01*
X421219Y282864D01*
X422181Y282466D01*
X423213Y282330D01*
X424244Y282466D01*
X425206Y282864D01*
X426032Y283498D01*
X426665Y284324D01*
X427064Y285285D01*
X427200Y286317D01*
Y292222D01*
X427064Y293254D01*
X426665Y294216D01*
X426032Y295042D01*
X425206Y295675D01*
X424244Y296074D01*
X423213Y296209D01*
D02*
G37*
G36*
X319110Y245563D02*
X315854D01*
Y242504D01*
X319110D01*
Y245563D01*
D02*
G37*
G36*
X314854D02*
X311598D01*
Y242504D01*
X314854D01*
Y245563D01*
D02*
G37*
G36*
X323909Y245350D02*
X320654D01*
Y242291D01*
X323909D01*
Y245350D01*
D02*
G37*
G36*
X35539Y247788D02*
Y244319D01*
X39008D01*
X38936Y244863D01*
X38533Y245836D01*
X37892Y246672D01*
X37057Y247313D01*
X36084Y247716D01*
X35539Y247788D01*
D02*
G37*
G36*
X34539D02*
X33995Y247716D01*
X33022Y247313D01*
X32186Y246672D01*
X31545Y245836D01*
X31142Y244863D01*
X31071Y244319D01*
X34539D01*
Y247788D01*
D02*
G37*
G36*
X39008Y243319D02*
X35539D01*
Y239850D01*
X36084Y239922D01*
X37057Y240325D01*
X37892Y240966D01*
X38533Y241802D01*
X38936Y242775D01*
X39008Y243319D01*
D02*
G37*
G36*
X34539D02*
X31071D01*
X31142Y242775D01*
X31545Y241802D01*
X32186Y240966D01*
X33022Y240325D01*
X33995Y239922D01*
X34539Y239850D01*
Y243319D01*
D02*
G37*
G36*
X294701Y257004D02*
X291839D01*
Y253256D01*
X294701D01*
Y257004D01*
D02*
G37*
G36*
X290839D02*
X287976D01*
Y253256D01*
X290839D01*
Y257004D01*
D02*
G37*
G36*
X328165Y255709D02*
X324909D01*
Y252650D01*
X328165D01*
Y255709D01*
D02*
G37*
G36*
X323909D02*
X320654D01*
Y252650D01*
X323909D01*
Y255709D01*
D02*
G37*
G36*
X219764Y259704D02*
X218475Y259534D01*
X217274Y259037D01*
X216243Y258245D01*
X215451Y257214D01*
X214954Y256013D01*
X214784Y254724D01*
X214954Y253436D01*
X215451Y252235D01*
X216243Y251203D01*
X217274Y250412D01*
X218475Y249915D01*
X219764Y249745D01*
X221053Y249915D01*
X222254Y250412D01*
X223285Y251203D01*
X224076Y252235D01*
X224574Y253436D01*
X224743Y254724D01*
X224574Y256013D01*
X224076Y257214D01*
X223285Y258245D01*
X222254Y259037D01*
X221053Y259534D01*
X219764Y259704D01*
D02*
G37*
G36*
X189764D02*
X188475Y259534D01*
X187274Y259037D01*
X186243Y258245D01*
X185451Y257214D01*
X184954Y256013D01*
X184784Y254724D01*
X184954Y253436D01*
X185451Y252235D01*
X186243Y251203D01*
X187274Y250412D01*
X188475Y249915D01*
X189764Y249745D01*
X191053Y249915D01*
X192254Y250412D01*
X193285Y251203D01*
X194076Y252235D01*
X194574Y253436D01*
X194743Y254724D01*
X194574Y256013D01*
X194076Y257214D01*
X193285Y258245D01*
X192254Y259037D01*
X191053Y259534D01*
X189764Y259704D01*
D02*
G37*
G36*
X294701Y252256D02*
X291839D01*
Y248508D01*
X294701D01*
Y252256D01*
D02*
G37*
G36*
X290839D02*
X287976D01*
Y248508D01*
X290839D01*
Y252256D01*
D02*
G37*
G36*
X584932Y235170D02*
X582759D01*
Y232800D01*
X584932D01*
Y235170D01*
D02*
G37*
G36*
Y231800D02*
X582759D01*
Y229430D01*
X584932D01*
Y231800D01*
D02*
G37*
G36*
X585350Y228165D02*
X583079D01*
Y225697D01*
X585350D01*
Y228165D01*
D02*
G37*
G36*
Y224697D02*
X583079D01*
Y222228D01*
X585350D01*
Y224697D01*
D02*
G37*
G36*
X179150Y175628D02*
X176976D01*
Y173258D01*
X179150D01*
Y175628D01*
D02*
G37*
G36*
Y172258D02*
X176976D01*
Y169888D01*
X179150D01*
Y172258D01*
D02*
G37*
G36*
X160130Y161368D02*
X157957D01*
Y158998D01*
X160130D01*
Y161368D01*
D02*
G37*
G36*
Y157998D02*
X157957D01*
Y155628D01*
X160130D01*
Y157998D01*
D02*
G37*
G36*
Y148539D02*
X157957D01*
Y146169D01*
X160130D01*
Y148539D01*
D02*
G37*
G36*
Y145169D02*
X157957D01*
Y142799D01*
X160130D01*
Y145169D01*
D02*
G37*
G36*
X160130Y137122D02*
X157957D01*
Y134752D01*
X160130D01*
Y137122D01*
D02*
G37*
G36*
Y133752D02*
X157957D01*
Y131382D01*
X160130D01*
Y133752D01*
D02*
G37*
G36*
X160130Y130626D02*
X157957D01*
Y128256D01*
X160130D01*
Y130626D01*
D02*
G37*
G36*
Y127256D02*
X157957D01*
Y124886D01*
X160130D01*
Y127256D01*
D02*
G37*
G36*
X129445Y124901D02*
X127075D01*
Y122728D01*
X129445D01*
Y124901D01*
D02*
G37*
G36*
X126075D02*
X123705D01*
Y122728D01*
X126075D01*
Y124901D01*
D02*
G37*
G36*
X160130Y123523D02*
X157957D01*
Y121153D01*
X160130D01*
Y123523D01*
D02*
G37*
G36*
Y120153D02*
X157957D01*
Y117782D01*
X160130D01*
Y120153D01*
D02*
G37*
G36*
Y116419D02*
X157957D01*
Y114049D01*
X160130D01*
Y116419D01*
D02*
G37*
G36*
Y113049D02*
X157957D01*
Y110679D01*
X160130D01*
Y113049D01*
D02*
G37*
G36*
X160031Y109414D02*
X157760D01*
Y106946D01*
X160031D01*
Y109414D01*
D02*
G37*
G36*
X137525Y112221D02*
X129545D01*
Y106799D01*
X137525D01*
Y112221D01*
D02*
G37*
G36*
X160031Y105946D02*
X157760D01*
Y103477D01*
X160031D01*
Y105946D01*
D02*
G37*
G36*
X270612Y149819D02*
X268341D01*
Y147350D01*
X270612D01*
Y149819D01*
D02*
G37*
G36*
Y146350D02*
X268341D01*
Y143882D01*
X270612D01*
Y146350D01*
D02*
G37*
G36*
X310434Y134927D02*
X309196Y134806D01*
X308005Y134444D01*
X306908Y133858D01*
X305947Y133069D01*
X305158Y132107D01*
X304571Y131010D01*
X304210Y129820D01*
X304088Y128582D01*
X304210Y127344D01*
X304571Y126154D01*
X305158Y125057D01*
X305947Y124095D01*
X306908Y123306D01*
X308005Y122719D01*
X309196Y122358D01*
X310434Y122236D01*
X311672Y122358D01*
X312862Y122719D01*
X313959Y123306D01*
X314921Y124095D01*
X315710Y125057D01*
X316296Y126154D01*
X316657Y127344D01*
X316779Y128582D01*
X316657Y129820D01*
X316296Y131010D01*
X315710Y132107D01*
X314921Y133069D01*
X313959Y133858D01*
X312862Y134444D01*
X311672Y134806D01*
X310434Y134927D01*
D02*
G37*
G36*
X547788Y98299D02*
X544398D01*
Y96090D01*
X545915D01*
X546632Y96232D01*
X547239Y96639D01*
X547645Y97246D01*
X547788Y97963D01*
Y98299D01*
D02*
G37*
G36*
X614780Y96079D02*
X606799D01*
Y90658D01*
X614780D01*
Y96079D01*
D02*
G37*
G36*
X605799D02*
X597819D01*
Y90658D01*
X605799D01*
Y96079D01*
D02*
G37*
%LPD*%
D12*
X547638Y250787D02*
X547835Y250590D01*
X562992Y250787D02*
X563189Y250590D01*
X547835D02*
X563189D01*
X522047Y255906D02*
X528543Y262402D01*
X522047Y237795D02*
Y255906D01*
Y237795D02*
X541240Y218602D01*
X107168Y173352D02*
Y233502D01*
X92520Y248150D02*
X107168Y233502D01*
X92520Y248150D02*
Y249134D01*
X107168Y173352D02*
X126378Y154142D01*
X126575D01*
X546448Y199437D02*
X551342Y204331D01*
X391609Y99721D02*
X393857Y101969D01*
X391609Y84412D02*
Y99721D01*
X390980Y83783D02*
X391609Y84412D01*
X389944Y83783D02*
X390980D01*
X347638Y82169D02*
Y82825D01*
X336275Y78782D02*
X365141D01*
X348103Y83783D02*
X365141D01*
X347392Y83071D02*
X347638Y82825D01*
X347392Y83071D02*
X348103Y83783D01*
X336000Y79058D02*
X336275Y78782D01*
X115748Y149554D02*
X126045D01*
X107677D02*
X115748D01*
Y153937D01*
X101469Y168217D02*
X115748Y153937D01*
X101469Y168217D02*
Y179454D01*
X94488Y183875D02*
X97047D01*
X101469Y179454D01*
X304993Y91200D02*
X315500D01*
X304905Y91112D02*
X304993Y91200D01*
X316815Y79058D02*
X336000D01*
X316540Y78782D02*
X316815Y79058D01*
X298922Y79176D02*
X309257D01*
X309650Y78782D01*
X315971Y62021D02*
Y66929D01*
Y62021D02*
X320392Y57600D01*
X322100D01*
X72500Y19900D02*
X72569Y19969D01*
Y139485D01*
X72638Y139553D01*
X543430Y113684D02*
Y163386D01*
X548610Y174936D02*
Y180917D01*
Y174936D02*
X548819Y174728D01*
X190146Y119685D02*
X191327Y120866D01*
X191732D01*
X176287Y120653D02*
X176314D01*
X177315Y121653D01*
X183071D01*
X139370Y141732D02*
Y180059D01*
X514174Y234646D02*
X515657Y233162D01*
X514174Y234646D02*
Y238583D01*
X155905Y145654D02*
X160615D01*
X160630Y145669D01*
X171801Y143307D02*
X183071D01*
X529724Y263779D02*
X560630D01*
X528543Y262598D02*
X529724Y263779D01*
X522638Y263386D02*
X523425Y262598D01*
X506693Y263386D02*
X522638D01*
X528543Y262402D02*
Y262598D01*
X541240Y216339D02*
Y218602D01*
X369291Y338189D02*
X380315D01*
X363779Y332677D02*
X369291Y338189D01*
X158829Y76152D02*
X188189Y105512D01*
X143701Y76152D02*
X158829D01*
X173419Y194033D02*
Y211498D01*
X195221Y155665D02*
Y177345D01*
X181762Y185689D02*
X186877D01*
X173419Y194033D02*
X181762Y185689D01*
X186877D02*
X195221Y177345D01*
X173195Y227090D02*
X175019Y225266D01*
Y216035D02*
Y225266D01*
Y216035D02*
X176487Y214567D01*
X190157Y207470D02*
Y227165D01*
X182027Y197925D02*
Y199339D01*
X180559Y196457D02*
X182027Y197925D01*
Y199339D02*
X190157Y207470D01*
X173419Y211498D02*
X176487Y214567D01*
X195221Y155665D02*
X203642Y147244D01*
X179145Y196457D02*
X180559D01*
X176487Y214567D02*
X179145D01*
X203642Y147244D02*
X205906D01*
X230512Y185827D02*
X230709Y186024D01*
X230512Y165650D02*
Y185827D01*
X229142Y164279D02*
X230512Y165650D01*
X229142Y165711D02*
X232654Y169224D01*
X229142Y164279D02*
Y165711D01*
X230512Y191142D02*
X230709D01*
X229339Y192315D02*
X230512Y191142D01*
X229339Y192315D02*
Y216755D01*
X220303Y225791D02*
X229339Y216755D01*
X217154Y225791D02*
X220303D01*
X229322Y130102D02*
X237139D01*
X227747Y131677D02*
Y131874D01*
Y131677D02*
X229322Y130102D01*
X225000Y134621D02*
X227747Y131874D01*
X224410Y134621D02*
X225000D01*
X228248Y147244D02*
X228937D01*
X230110Y142252D02*
Y146071D01*
X228937Y147244D02*
X230110Y146071D01*
X208169Y143307D02*
X229142Y164279D01*
X205906Y143307D02*
X208169D01*
X236749Y135613D02*
X237140D01*
X230110Y142252D02*
X236749Y135613D01*
X238583Y139418D02*
Y149623D01*
X241866Y139355D02*
Y146000D01*
X233085Y134778D02*
X234915Y132949D01*
X232953Y134646D02*
X233085Y134778D01*
X232284Y134646D02*
X232953D01*
X232571Y121380D02*
X235100Y123909D01*
X230012Y121380D02*
X232571D01*
X205914Y127551D02*
X236559D01*
X205906Y127559D02*
X205914Y127551D01*
X201181Y127559D02*
X205906D01*
X256693Y146850D02*
X262526D01*
X263681Y183875D02*
Y184269D01*
X263796Y184384D01*
X265396Y168701D02*
Y175730D01*
X265650Y175984D01*
X246563Y146850D02*
X256693D01*
X263051Y165731D02*
X291634D01*
X294486Y168583D02*
X298031D01*
X291634Y165731D02*
X294486Y168583D01*
X260278Y168701D02*
Y175927D01*
X245669Y169685D02*
X246654Y168701D01*
X260278D01*
X238518Y139353D02*
X238583Y139418D01*
X265604Y159843D02*
X266119Y159327D01*
X253543Y159843D02*
X265604D01*
X234915Y132949D02*
X236851D01*
X237140Y132660D01*
X241864Y139353D02*
X241866Y139355D01*
X244423Y139353D02*
Y144711D01*
X246563Y146850D01*
X235100Y123909D02*
X236461D01*
X237142Y124591D01*
X236559Y127551D02*
X236853Y127256D01*
X237140Y127542D01*
X260278Y168504D02*
Y168701D01*
Y168504D02*
X263051Y165731D01*
X225590Y116959D02*
X230012Y121380D01*
X225590Y114400D02*
Y116959D01*
X245866Y150000D02*
X246063D01*
X241866Y146000D02*
X245866Y150000D01*
X215354Y122441D02*
X217954Y119841D01*
Y115852D02*
Y119841D01*
X212732Y110630D02*
X217954Y115852D01*
X212158Y110630D02*
X212732D01*
X198425Y105799D02*
Y113779D01*
X115748Y182283D02*
Y200787D01*
X198819Y125197D02*
X201181Y127559D01*
X215354Y122441D02*
Y122688D01*
X205906Y121653D02*
X212464D01*
X213557Y120561D01*
Y119267D02*
Y120561D01*
X215354Y116929D02*
Y117470D01*
X205906Y123622D02*
X214419D01*
X213557Y119267D02*
X215354Y117470D01*
X214419Y123622D02*
X215354Y122688D01*
X275197Y95669D02*
X275332Y95534D01*
X282980D01*
X287402Y91112D01*
X554035Y175810D02*
X555118Y174728D01*
X554035Y175810D02*
Y182283D01*
Y192323D01*
X380315Y338189D02*
X383071Y340945D01*
X568307Y250590D02*
Y250787D01*
Y250394D02*
Y250590D01*
Y250787D02*
X574409Y256890D01*
Y271654D01*
X517314Y226468D02*
X517717Y226871D01*
X502335Y226468D02*
X517314D01*
X497914Y222047D02*
X502335Y226468D01*
X510236Y185827D02*
X522244D01*
X511614Y201132D02*
X513386Y199360D01*
Y198819D02*
Y199360D01*
X511614Y201132D02*
Y209473D01*
X556595Y228740D02*
Y231621D01*
Y216339D02*
Y228740D01*
X543701Y224016D02*
X548425Y228740D01*
X556595D01*
X531325Y198819D02*
X543331Y210824D01*
X513386Y198819D02*
X531325D01*
X543430Y182013D02*
X551476Y190059D01*
X543430Y163386D02*
Y182013D01*
X534252Y163386D02*
X543430D01*
X533071Y164567D02*
X534252Y163386D01*
X564295Y170669D02*
X564584Y170958D01*
Y177280D01*
X564190Y177674D02*
X564584Y177280D01*
X564156Y160433D02*
Y165413D01*
X564295Y165551D01*
X416535Y65354D02*
Y78740D01*
X301575Y270079D02*
Y288189D01*
X301575Y288189D02*
X301575Y288189D01*
X263681Y183875D02*
X265445Y182111D01*
X263796Y184384D02*
X265445Y186032D01*
X263796Y184384D02*
Y193290D01*
Y183875D02*
Y184384D01*
X260630Y196457D02*
X263796Y193290D01*
X252050Y189126D02*
Y201834D01*
X264415Y214199D01*
X262035Y220791D02*
X264415Y218411D01*
X258886Y220791D02*
X262035D01*
X264415Y214199D02*
Y218411D01*
X252050Y189126D02*
X256907Y184269D01*
Y183875D02*
Y184269D01*
X251291Y215071D02*
X256236D01*
X247520Y198543D02*
Y211299D01*
X251291Y215071D01*
X247244Y198819D02*
X247520Y198543D01*
X255736Y225791D02*
X258886D01*
X239254Y209309D02*
X255736Y225791D01*
X239254Y177694D02*
Y209309D01*
X239899Y177050D02*
X259155D01*
X260278Y175927D01*
X260335Y175984D01*
X239254Y177694D02*
X239899Y177050D01*
X217154Y215791D02*
X217819D01*
X218539Y215071D01*
Y186606D02*
Y215071D01*
Y186606D02*
X219713Y185433D01*
X256236Y215071D02*
X256956Y215791D01*
X258886D01*
X247520Y181614D02*
Y198543D01*
Y181614D02*
X248425Y180709D01*
X245669D02*
X248425D01*
X148749Y59893D02*
X167891Y79035D01*
X143416Y59893D02*
X148749D01*
X142913Y59390D02*
X143416Y59893D01*
X171925Y112721D02*
X173604Y114400D01*
X143247Y92913D02*
X144035Y93701D01*
X157874D01*
X165847Y106643D02*
X171925Y112721D01*
X132677Y222835D02*
X144807D01*
X153150Y214492D01*
Y189064D02*
Y214492D01*
X166929Y139901D02*
X167470D01*
X132677Y186752D02*
Y189311D01*
Y186752D02*
X139370Y180059D01*
X116535Y131653D02*
X125441D01*
X126575Y130520D01*
X116535Y121653D02*
X122630D01*
X126378Y125402D01*
X126575D01*
X37606Y150583D02*
X38780Y149409D01*
X35039Y153150D02*
X37606Y150583D01*
X38780Y149213D02*
Y149409D01*
Y130299D02*
X38976Y130102D01*
X38780Y130299D02*
Y149213D01*
X183465Y166732D02*
X191142D01*
X163551Y186221D02*
X174193D01*
X186435Y173979D01*
Y171636D02*
Y173979D01*
Y171636D02*
X189969Y168102D01*
Y167905D02*
Y168102D01*
Y167905D02*
X191142Y166732D01*
X191339D01*
X126045Y149554D02*
X126575Y149024D01*
X107677Y139553D02*
X123601D01*
X191339Y171850D02*
Y177551D01*
X561766Y211213D02*
X572449D01*
X517913Y226871D02*
X532695Y212089D01*
X543972Y213999D02*
X546002D01*
X546358Y214355D02*
Y216339D01*
X546002Y213999D02*
X546358Y214355D01*
X542063Y212089D02*
X543972Y213999D01*
X532695Y212089D02*
X542063D01*
X559727Y213252D02*
X561766Y211213D01*
X559727Y213252D02*
Y213293D01*
X559154Y213866D02*
X559727Y213293D01*
X559154Y213866D02*
Y216339D01*
X543331Y210824D02*
X551034D01*
X553462Y213252D01*
Y213293D01*
X554035Y213866D01*
Y216339D01*
X212205Y139370D02*
X219291Y132283D01*
X213976Y154340D02*
Y156890D01*
X210909Y151272D02*
X213976Y154340D01*
X205996Y151272D02*
X210909D01*
X172047Y137401D02*
X172452Y136997D01*
X172971D01*
X173376Y137402D01*
X167470Y139901D02*
X168001Y139370D01*
X169630Y141401D02*
X183008D01*
X168001Y139370D02*
X183071D01*
X166921Y144110D02*
X169630Y141401D01*
X183008D02*
X183071Y141339D01*
X172047Y136614D02*
Y137401D01*
X173376Y137402D02*
X183071D01*
X166248Y133752D02*
X174016D01*
X165748Y134252D02*
X166248Y133752D01*
X174016D02*
X175697Y135433D01*
X183071D01*
X165748Y134252D02*
X166397Y134901D01*
X170182Y127546D02*
X176100Y133465D01*
X165748Y120849D02*
X176395Y131496D01*
X171801Y143307D02*
Y144301D01*
X166732Y150394D02*
X169882Y147244D01*
X165958Y127546D02*
X170182D01*
X165748Y127756D02*
X165958Y127546D01*
X176100Y133465D02*
X183071D01*
X168335Y157979D02*
X175133Y151181D01*
X166070Y157979D02*
X168335D01*
X165748Y158301D02*
X166070Y157979D01*
X165748Y158301D02*
Y158498D01*
X175133Y151181D02*
X183071D01*
X167991Y153937D02*
X172715Y149213D01*
X164370Y153937D02*
X167991D01*
X172715Y149213D02*
X183071D01*
X169882Y147244D02*
X183071D01*
X177995Y153181D02*
X182179D01*
X175303Y155873D02*
X177995Y153181D01*
X175303Y155873D02*
Y164383D01*
X183079Y155126D02*
Y166347D01*
X183071Y155118D02*
X183079Y155126D01*
Y166347D02*
X183465Y166732D01*
X205906Y155118D02*
Y161151D01*
X210962Y163181D02*
X213000D01*
X206988Y167155D02*
X210962Y163181D01*
X238583Y149623D02*
X238960Y150000D01*
X556595Y192323D02*
X559154D01*
X554035D02*
X556595D01*
X515657Y233162D02*
X516543D01*
X517717Y231989D01*
Y226871D02*
X517913D01*
X573622Y178209D02*
Y186811D01*
X564961Y238451D02*
Y245276D01*
X564896Y238386D02*
X564961Y238451D01*
X561713Y228222D02*
X563526Y230035D01*
Y232095D01*
X564699Y233268D01*
X564896D01*
X561713Y216339D02*
Y228222D01*
X556595Y231621D02*
X557792Y232819D01*
Y238134D02*
Y245179D01*
X577141Y232283D02*
Y232300D01*
X576976Y232119D02*
X577141Y232283D01*
X576976Y226255D02*
Y232119D01*
Y226255D02*
X577453Y225778D01*
Y225401D02*
Y225778D01*
X576678Y224186D02*
X577264Y224772D01*
Y225197D01*
X569855Y224186D02*
X576678D01*
X564272Y218602D02*
X569855Y224186D01*
X564272Y216339D02*
Y218602D01*
X576976Y232465D02*
Y236097D01*
Y232465D02*
X577141Y232300D01*
X568307Y250394D02*
X570992Y247708D01*
Y242081D02*
Y247708D01*
Y242081D02*
X576976Y236097D01*
X44239Y149554D02*
X72638D01*
X43898Y149213D02*
X44239Y149554D01*
X35039Y153150D02*
Y208386D01*
X127173Y141732D02*
X139370D01*
X127567Y136221D02*
X139370D01*
X126575Y130520D02*
Y137213D01*
Y142331D02*
X127173Y141732D01*
X126378Y142331D02*
X126575D01*
X123601Y139553D02*
X126378Y142331D01*
X126575Y137213D02*
X127567Y136221D01*
X37409Y150583D02*
X37606D01*
X193700Y138189D02*
Y148819D01*
Y138189D02*
X194488Y137402D01*
Y125725D02*
X194559Y125654D01*
X194488Y125725D02*
Y137402D01*
X197637Y119685D02*
X197638Y119685D01*
X205906D01*
X183071D02*
X190146D01*
X564190Y192323D02*
X564272D01*
X564190Y182989D02*
Y192323D01*
X160630Y145669D02*
Y158498D01*
Y134252D02*
Y145669D01*
Y127756D02*
Y134252D01*
Y120653D02*
Y127756D01*
Y113549D02*
Y120653D01*
Y106544D02*
Y113549D01*
X205906Y155118D02*
X205996Y155209D01*
X302362Y252756D02*
Y253642D01*
X263681Y182677D02*
Y183071D01*
X551342Y204331D02*
X552756D01*
X546448Y198023D02*
Y199437D01*
X175303Y164383D02*
X176263Y165343D01*
X170948Y165665D02*
X171358Y166075D01*
X265445Y186032D02*
X265839D01*
X268389Y188583D01*
X176263Y165343D02*
Y165655D01*
X170948D02*
Y165665D01*
X171358Y166075D02*
Y172758D01*
X176287Y123531D02*
X182980D01*
X173604Y120848D02*
X176287Y123531D01*
X173604Y114400D02*
Y120848D01*
X170817Y123022D02*
X177232Y129437D01*
X170817Y118815D02*
Y123022D01*
X165748Y113746D02*
X170817Y118815D01*
X177232Y129437D02*
X182980D01*
X183071Y129527D01*
X182980Y123531D02*
X183071Y123622D01*
X166921Y144110D02*
Y144496D01*
X176395Y131496D02*
X183071D01*
X165748Y145669D02*
X166921Y144496D01*
X573622Y195866D02*
Y204921D01*
X572449Y211213D02*
X573622Y210039D01*
X408858Y78740D02*
X416535D01*
X403698Y78782D02*
X403740Y78740D01*
X389944Y78782D02*
X403698D01*
X561713Y188091D02*
Y192323D01*
X559449Y185827D02*
X561713Y188091D01*
X546358Y197933D02*
X546448Y198023D01*
X546358Y192323D02*
Y197933D01*
X541240Y192323D02*
X546358D01*
X551476Y190059D02*
Y192323D01*
X160531Y106446D02*
X160630Y106544D01*
X205906Y139370D02*
X212205D01*
X211902Y135343D02*
X212205Y135039D01*
X205996Y135343D02*
X211902D01*
X205906Y135433D02*
X205996Y135343D01*
X265445Y176189D02*
Y182111D01*
Y176189D02*
X265650Y175984D01*
X268389Y188583D02*
X298031D01*
X206791Y167155D02*
X206988D01*
X213000Y163181D02*
X214173Y162008D01*
X213976Y156890D02*
X214173D01*
X205906Y151181D02*
X205996Y151272D01*
X211024Y131496D02*
X212205Y130315D01*
X205906Y131496D02*
X211024D01*
X165748Y127756D02*
Y127953D01*
Y120653D02*
Y120849D01*
X165847Y106446D02*
Y106643D01*
X165748Y113549D02*
Y113746D01*
D13*
X361024Y335039D02*
X363779Y332283D01*
X185906Y336299D02*
X280512D01*
X174764Y325157D02*
X185906Y336299D01*
X174764Y294724D02*
Y325157D01*
X363779Y332283D02*
Y332677D01*
X303150Y335039D02*
X361024D01*
X551469Y225091D02*
X551575Y225197D01*
X301890Y336299D02*
X303150Y335039D01*
X289567Y336299D02*
X301890D01*
D64*
X240941Y129118D02*
D03*
X245075Y122819D02*
D03*
Y125969D02*
D03*
Y129118D02*
D03*
Y132268D02*
D03*
Y135417D02*
D03*
X249760D02*
D03*
Y132268D02*
D03*
Y129118D02*
D03*
Y125969D02*
D03*
Y122819D02*
D03*
X254445D02*
D03*
Y125969D02*
D03*
Y129118D02*
D03*
Y132268D02*
D03*
Y135417D02*
D03*
X259130D02*
D03*
Y132268D02*
D03*
Y129118D02*
D03*
Y125969D02*
D03*
Y122819D02*
D03*
X263264Y129118D02*
D03*
D70*
X641732Y114862D02*
D03*
X644882Y209473D02*
D03*
D72*
X541240Y192323D02*
D03*
X546358D02*
D03*
X551476D02*
D03*
X554035D02*
D03*
X556595D02*
D03*
X559154D02*
D03*
X561713D02*
D03*
X564272D02*
D03*
X541240Y216339D02*
D03*
X546358D02*
D03*
X551476D02*
D03*
X554035D02*
D03*
X556595D02*
D03*
X559154D02*
D03*
X561713D02*
D03*
X564272D02*
D03*
D73*
X552756Y204331D02*
D03*
D74*
X17362Y298110D02*
D03*
Y272992D02*
D03*
D75*
X622047Y305207D02*
D03*
Y241250D02*
D03*
D76*
X324410Y252150D02*
D03*
Y245850D02*
D03*
X315354Y252362D02*
D03*
Y246063D02*
D03*
X303150Y335039D02*
D03*
Y328740D02*
D03*
D77*
X302362Y252756D02*
D03*
X291339D02*
D03*
D78*
X322100Y57600D02*
D03*
X606299Y90158D02*
D03*
X304905Y91112D02*
D03*
X287402D02*
D03*
X416535Y65354D02*
D03*
X198425Y105799D02*
D03*
X94488Y183875D02*
D03*
X266119Y159327D02*
D03*
X380315Y338189D02*
D03*
X560630Y263779D02*
D03*
X556402Y281786D02*
D03*
X533071Y164567D02*
D03*
X510236Y185827D02*
D03*
X511614Y209473D02*
D03*
X38976Y130102D02*
D03*
X497914Y222047D02*
D03*
X163551Y186221D02*
D03*
X190157Y227165D02*
D03*
X173195Y227090D02*
D03*
X162392Y207470D02*
D03*
X115748Y182283D02*
D03*
X129045Y106299D02*
D03*
X301575Y288189D02*
D03*
X260630Y196457D02*
D03*
D79*
X47893Y270776D02*
D03*
Y253634D02*
D03*
D80*
X530315Y106299D02*
D03*
D81*
X543898Y98799D02*
D03*
Y103799D02*
D03*
Y108799D02*
D03*
Y113799D02*
D03*
X522244D02*
D03*
Y108799D02*
D03*
Y103799D02*
D03*
Y98799D02*
D03*
D82*
X142913Y92913D02*
D03*
Y76152D02*
D03*
Y59390D02*
D03*
X225590Y114400D02*
D03*
X232654Y169224D02*
D03*
X574409Y271654D02*
D03*
X132677Y189311D02*
D03*
Y222835D02*
D03*
D83*
X568307Y250590D02*
D03*
X563189D02*
D03*
X582259Y232300D02*
D03*
X577141D02*
D03*
X523425Y262598D02*
D03*
X528543D02*
D03*
X176476Y172758D02*
D03*
X171358D02*
D03*
X219713Y185433D02*
D03*
X214595D02*
D03*
X160630Y158498D02*
D03*
X165748D02*
D03*
X160630Y145669D02*
D03*
X165748D02*
D03*
X160630Y134252D02*
D03*
X165748D02*
D03*
X160630Y127756D02*
D03*
X165748D02*
D03*
X160630Y120653D02*
D03*
X165748D02*
D03*
X160630Y113549D02*
D03*
X165748D02*
D03*
X43898Y149213D02*
D03*
X38780D02*
D03*
X265396Y168701D02*
D03*
X260278D02*
D03*
X408858Y78740D02*
D03*
X403740D02*
D03*
D84*
X641732Y114862D02*
D03*
X644882Y209473D02*
D03*
D85*
X217154Y225791D02*
D03*
Y220791D02*
D03*
Y215791D02*
D03*
X258886Y225791D02*
D03*
Y220791D02*
D03*
Y215791D02*
D03*
D86*
X237142Y135614D02*
D03*
X267063Y124591D02*
D03*
Y135614D02*
D03*
X237142Y124591D02*
D03*
D87*
X252102Y129118D02*
D03*
D88*
X238520Y109433D02*
D03*
X265685D02*
D03*
X238520Y139354D02*
D03*
X265685D02*
D03*
D89*
X241866Y109433D02*
D03*
X244425D02*
D03*
X246984D02*
D03*
X249543D02*
D03*
X252102D02*
D03*
X254661D02*
D03*
X257221D02*
D03*
X259780D02*
D03*
X262339D02*
D03*
X241866Y139354D02*
D03*
X262339D02*
D03*
X259780D02*
D03*
X257221D02*
D03*
X254661D02*
D03*
X252102D02*
D03*
X249543D02*
D03*
X246984D02*
D03*
X244425D02*
D03*
D90*
X267063Y132661D02*
D03*
Y130102D02*
D03*
Y127543D02*
D03*
X237142Y132661D02*
D03*
Y130102D02*
D03*
Y127543D02*
D03*
D91*
X214173Y162008D02*
D03*
Y156890D02*
D03*
X564896Y233268D02*
D03*
Y238386D02*
D03*
X564295Y170669D02*
D03*
Y165551D02*
D03*
X573622Y210039D02*
D03*
Y204921D02*
D03*
X517717Y231989D02*
D03*
Y226871D02*
D03*
X191339Y166732D02*
D03*
Y171850D02*
D03*
X183465Y166732D02*
D03*
Y171850D02*
D03*
X224410Y134621D02*
D03*
Y139739D02*
D03*
X230709Y191142D02*
D03*
Y186024D02*
D03*
X126575Y149024D02*
D03*
Y154142D02*
D03*
Y142331D02*
D03*
Y137213D02*
D03*
Y130520D02*
D03*
Y125402D02*
D03*
X206791Y162037D02*
D03*
Y167155D02*
D03*
D92*
X577264Y225197D02*
D03*
X582579D02*
D03*
X176263Y165655D02*
D03*
X170948D02*
D03*
X160531Y106446D02*
D03*
X165847D02*
D03*
X267841Y146850D02*
D03*
X262526D02*
D03*
X260335Y175984D02*
D03*
X265650D02*
D03*
D93*
X644882Y150394D02*
D03*
Y180315D02*
D03*
D94*
X548819Y174728D02*
D03*
X555118D02*
D03*
D95*
X564190Y177674D02*
D03*
Y182989D02*
D03*
X557792Y232819D02*
D03*
Y238134D02*
D03*
X336000Y73743D02*
D03*
Y79058D02*
D03*
X238960Y155315D02*
D03*
Y150000D02*
D03*
X246063D02*
D03*
Y155315D02*
D03*
D96*
X573622Y186811D02*
D03*
Y195866D02*
D03*
D97*
X365141Y83783D02*
D03*
Y78782D02*
D03*
X389944Y83783D02*
D03*
Y78782D02*
D03*
D98*
X316540D02*
D03*
X309650D02*
D03*
X256907Y183875D02*
D03*
X263796D02*
D03*
D99*
X39961Y292458D02*
D03*
X60039D02*
D03*
D100*
X202964Y205512D02*
D03*
D101*
X179145Y196457D02*
D03*
Y214567D02*
D03*
D102*
X194488Y137402D02*
D03*
D103*
X205906Y155118D02*
D03*
Y153150D02*
D03*
Y151181D02*
D03*
Y147244D02*
D03*
Y143307D02*
D03*
Y139370D02*
D03*
Y135433D02*
D03*
Y131496D02*
D03*
Y127559D02*
D03*
Y123622D02*
D03*
Y121653D02*
D03*
Y119685D02*
D03*
X183071D02*
D03*
Y121653D02*
D03*
Y123622D02*
D03*
Y125591D02*
D03*
Y127559D02*
D03*
Y129527D02*
D03*
Y131496D02*
D03*
Y133465D02*
D03*
Y135433D02*
D03*
Y137402D02*
D03*
Y139370D02*
D03*
Y141339D02*
D03*
Y143307D02*
D03*
Y145276D02*
D03*
Y147244D02*
D03*
Y149213D02*
D03*
Y151181D02*
D03*
Y153150D02*
D03*
Y155118D02*
D03*
D104*
X228248Y156693D02*
D03*
Y147244D02*
D03*
D105*
X72638Y139553D02*
D03*
Y149554D02*
D03*
X107677D02*
D03*
Y139553D02*
D03*
D106*
X245669Y169685D02*
D03*
Y180709D02*
D03*
D107*
X587008Y162401D02*
D03*
Y173819D02*
D03*
X597458Y162402D02*
D03*
Y173819D02*
D03*
X607907Y162402D02*
D03*
Y173819D02*
D03*
X618357Y162402D02*
D03*
Y173819D02*
D03*
D108*
X289567Y336299D02*
D03*
X280512D02*
D03*
D109*
X556402Y281786D02*
X557480Y280709D01*
X555325Y282864D02*
X556402Y281786D01*
X315971Y66929D02*
X328990D01*
X335803Y73743D01*
X336000D01*
X554528Y282864D02*
X555325D01*
X549213Y270071D02*
X550394Y271252D01*
Y278730D02*
X554528Y282864D01*
X550394Y271252D02*
Y278730D01*
X549213Y269685D02*
Y270071D01*
X209449Y185433D02*
X214595D01*
X205906Y161151D02*
X206679Y161924D01*
X200900D02*
X206679D01*
X302362Y253199D02*
X314518D01*
X315354Y252362D01*
X200787Y161811D02*
X200900Y161924D01*
X551469Y218307D02*
Y225091D01*
D110*
X39961Y292458D02*
X40945D01*
X47893Y285510D01*
Y270776D02*
Y285510D01*
X47260Y253001D02*
X47893Y253634D01*
X47260Y244229D02*
Y253001D01*
X35039Y232008D02*
X47260Y244229D01*
X193701Y328740D02*
X303150D01*
X189764Y324803D02*
X193701Y328740D01*
X189764Y294724D02*
Y324803D01*
X358661Y328740D02*
X362992Y324410D01*
X303150Y328740D02*
X358661D01*
D111*
X206398Y167352D02*
Y171861D01*
Y167352D02*
X206594Y167155D01*
X181802Y196457D02*
X206398Y171861D01*
X180559Y196457D02*
X181802D01*
X206594Y167155D02*
X206791D01*
D112*
X202964Y205512D02*
Y252924D01*
X204764Y254724D01*
D113*
X238960Y155315D02*
X255467D01*
X228248Y156693D02*
X228921Y156020D01*
X238255D02*
X238960Y155315D01*
X228921Y156020D02*
X238255D01*
X223622Y154331D02*
X225984Y156693D01*
X224295Y139739D02*
X224410D01*
X223622Y140412D02*
X224295Y139739D01*
X225984Y156693D02*
X228248D01*
X223622Y140412D02*
Y154331D01*
X255467Y155315D02*
X259356Y151427D01*
X263952D01*
X267069Y148310D01*
Y147622D02*
Y148310D01*
Y147622D02*
X267841Y146850D01*
D114*
X153150Y221654D02*
X155512Y219292D01*
Y211791D02*
Y219292D01*
Y211791D02*
X159833Y207470D01*
X162392D01*
D115*
X537795Y231102D02*
D03*
X527953Y250787D02*
D03*
X547638D02*
D03*
D116*
X219764Y294724D02*
D03*
Y254724D02*
D03*
X189764Y294724D02*
D03*
X204764D02*
D03*
Y254724D02*
D03*
X189764D02*
D03*
X174764Y294724D02*
D03*
Y254724D02*
D03*
D117*
X310434Y128582D02*
D03*
Y228582D02*
D03*
D118*
X298031Y168583D02*
D03*
Y178583D02*
D03*
Y188583D02*
D03*
D119*
X35039Y243819D02*
D03*
Y232008D02*
D03*
Y220197D02*
D03*
Y208386D02*
D03*
D120*
X116535Y121653D02*
D03*
Y131653D02*
D03*
X212158Y100630D02*
D03*
Y110630D02*
D03*
D121*
X92520Y249134D02*
D03*
X72835D02*
D03*
D122*
X519213Y289270D02*
D03*
X509213D02*
D03*
X499213D02*
D03*
X423213D02*
D03*
X433213D02*
D03*
X443213D02*
D03*
D123*
X457054Y245655D02*
D03*
Y225655D02*
D03*
Y205655D02*
D03*
Y185654D02*
D03*
Y165655D02*
D03*
Y145654D02*
D03*
Y125654D02*
D03*
X357054D02*
D03*
Y145654D02*
D03*
Y165655D02*
D03*
Y205655D02*
D03*
Y225655D02*
D03*
Y245655D02*
D03*
D124*
X548425Y202165D02*
D03*
Y206496D02*
D03*
X552756Y202165D02*
D03*
Y206496D02*
D03*
X557087Y202165D02*
D03*
Y206496D02*
D03*
D125*
X393857Y101969D02*
D03*
X347638Y82169D02*
D03*
X356693Y136221D02*
D03*
X348819Y167717D02*
D03*
Y159843D02*
D03*
Y151969D02*
D03*
Y144095D02*
D03*
Y136221D02*
D03*
Y128347D02*
D03*
Y120473D02*
D03*
Y112599D02*
D03*
X340945Y167717D02*
D03*
Y159843D02*
D03*
Y151969D02*
D03*
Y144095D02*
D03*
Y136221D02*
D03*
Y128347D02*
D03*
Y120473D02*
D03*
Y112599D02*
D03*
Y104725D02*
D03*
X333071Y167717D02*
D03*
Y159843D02*
D03*
Y151969D02*
D03*
Y144095D02*
D03*
Y136221D02*
D03*
Y128347D02*
D03*
Y120473D02*
D03*
Y112599D02*
D03*
Y104725D02*
D03*
X325197Y167717D02*
D03*
Y159843D02*
D03*
Y151969D02*
D03*
Y144095D02*
D03*
Y136221D02*
D03*
Y128347D02*
D03*
Y120473D02*
D03*
Y112599D02*
D03*
Y104725D02*
D03*
X317323Y167717D02*
D03*
Y159843D02*
D03*
Y151969D02*
D03*
Y144095D02*
D03*
Y136221D02*
D03*
Y120473D02*
D03*
Y112599D02*
D03*
Y104725D02*
D03*
X309449Y167717D02*
D03*
Y159843D02*
D03*
Y151969D02*
D03*
Y144095D02*
D03*
Y120473D02*
D03*
Y112599D02*
D03*
Y104725D02*
D03*
X301575Y159843D02*
D03*
Y151969D02*
D03*
Y144095D02*
D03*
Y136221D02*
D03*
Y128347D02*
D03*
Y120473D02*
D03*
Y112599D02*
D03*
Y104725D02*
D03*
X293701Y159843D02*
D03*
Y151969D02*
D03*
Y144095D02*
D03*
Y136221D02*
D03*
Y128347D02*
D03*
Y120473D02*
D03*
Y112599D02*
D03*
Y104725D02*
D03*
X285827Y151969D02*
D03*
Y144095D02*
D03*
Y136221D02*
D03*
Y128347D02*
D03*
Y120473D02*
D03*
Y112599D02*
D03*
Y104725D02*
D03*
X277953Y112599D02*
D03*
Y104725D02*
D03*
X270079Y112599D02*
D03*
Y104725D02*
D03*
X315500Y91200D02*
D03*
X72500Y19900D02*
D03*
X553544Y112599D02*
D03*
X548610Y180917D02*
D03*
X191732Y120866D02*
D03*
X149606Y152362D02*
D03*
X537796Y285827D02*
D03*
X545670Y317323D02*
D03*
X537796D02*
D03*
X443307Y309449D02*
D03*
Y317323D02*
D03*
X419685Y309449D02*
D03*
X427559D02*
D03*
X498425D02*
D03*
Y317323D02*
D03*
X514174Y309449D02*
D03*
X522048D02*
D03*
Y317323D02*
D03*
X529922Y270079D02*
D03*
X227952Y152150D02*
D03*
X256693Y146850D02*
D03*
X198425Y113779D02*
D03*
X115748Y200787D02*
D03*
X153150Y221654D02*
D03*
X198819Y125197D02*
D03*
X215354Y122441D02*
D03*
Y116929D02*
D03*
X275197Y95669D02*
D03*
X549213Y269685D02*
D03*
X522244Y185827D02*
D03*
X543701Y224016D02*
D03*
X513386Y198819D02*
D03*
X253543Y159843D02*
D03*
X247244Y198819D02*
D03*
X211417Y218503D02*
D03*
X167891Y79035D02*
D03*
X188189Y105512D02*
D03*
X157874Y93701D02*
D03*
X171925Y112721D02*
D03*
X153150Y189064D02*
D03*
X166929Y139901D02*
D03*
X209449Y185433D02*
D03*
X191339Y177551D02*
D03*
X220472Y163386D02*
D03*
X232284Y134646D02*
D03*
X219291Y132283D02*
D03*
X172047Y136614D02*
D03*
X171801Y144301D02*
D03*
X166732Y150394D02*
D03*
X238583Y144882D02*
D03*
X561418Y112599D02*
D03*
X553544Y120473D02*
D03*
X561418D02*
D03*
X537796Y151969D02*
D03*
X553544Y144095D02*
D03*
X537796D02*
D03*
X529922D02*
D03*
X522048Y151969D02*
D03*
Y144095D02*
D03*
X529922Y151969D02*
D03*
X553544D02*
D03*
X608662Y128347D02*
D03*
Y104725D02*
D03*
X600788Y144095D02*
D03*
X624410Y128347D02*
D03*
X608662Y112599D02*
D03*
X561418Y128347D02*
D03*
X569292Y81103D02*
D03*
X592914Y128347D02*
D03*
X648032Y136221D02*
D03*
X592914Y112599D02*
D03*
X608662Y151969D02*
D03*
X569292Y73228D02*
D03*
X585040Y96851D02*
D03*
X592914Y104725D02*
D03*
X553544Y136221D02*
D03*
X561418Y57480D02*
D03*
X577166Y81103D02*
D03*
X655906Y144095D02*
D03*
X585040Y104725D02*
D03*
X553544Y65354D02*
D03*
Y73228D02*
D03*
X577166Y112599D02*
D03*
X585040Y144095D02*
D03*
X655906Y136221D02*
D03*
X577166D02*
D03*
X553544Y81103D02*
D03*
X569292Y57480D02*
D03*
X545670Y88977D02*
D03*
X498425Y238583D02*
D03*
X600788Y120473D02*
D03*
X577166Y65354D02*
D03*
X624410Y144095D02*
D03*
X561418Y96851D02*
D03*
X506299Y246457D02*
D03*
X585040Y136221D02*
D03*
X600788Y151969D02*
D03*
X553544Y104725D02*
D03*
X624410D02*
D03*
X616536Y120473D02*
D03*
X569292Y88977D02*
D03*
X616536Y128347D02*
D03*
X482678Y254331D02*
D03*
X561418Y136221D02*
D03*
X608662Y120473D02*
D03*
X592914D02*
D03*
X577166Y144095D02*
D03*
X482678Y246457D02*
D03*
X592914Y151969D02*
D03*
X616536Y104725D02*
D03*
X577166Y151969D02*
D03*
X655906Y128347D02*
D03*
X553544Y57480D02*
D03*
X577166Y120473D02*
D03*
X616536Y112599D02*
D03*
X569292D02*
D03*
X600788Y128347D02*
D03*
X608662Y136221D02*
D03*
X624410D02*
D03*
X506299Y238583D02*
D03*
X600788Y96851D02*
D03*
X569292Y120473D02*
D03*
X553544Y96851D02*
D03*
X655906D02*
D03*
X553544Y128347D02*
D03*
X545670Y57480D02*
D03*
X632284Y144095D02*
D03*
X514174Y238583D02*
D03*
X640158Y136221D02*
D03*
X561418Y65354D02*
D03*
X545670Y81103D02*
D03*
X569292Y144095D02*
D03*
X655906Y151969D02*
D03*
X569292Y136221D02*
D03*
X577166Y128347D02*
D03*
X545670Y65354D02*
D03*
X592914Y144095D02*
D03*
X585040Y128347D02*
D03*
X624410Y151969D02*
D03*
X561418Y81103D02*
D03*
X514174Y254331D02*
D03*
X569292Y65354D02*
D03*
X561418Y88977D02*
D03*
X585040Y151969D02*
D03*
X592914Y96851D02*
D03*
X616536Y144095D02*
D03*
X608662Y96851D02*
D03*
X569292D02*
D03*
X577166Y73228D02*
D03*
X561418Y144095D02*
D03*
X600788Y112599D02*
D03*
X490552Y238583D02*
D03*
X632284Y96851D02*
D03*
X616536D02*
D03*
X632284Y159843D02*
D03*
X514174Y246457D02*
D03*
X561418Y104725D02*
D03*
X553544Y88977D02*
D03*
X624410Y96851D02*
D03*
X585040Y112599D02*
D03*
X632284Y151969D02*
D03*
X648032Y96851D02*
D03*
X585040Y120473D02*
D03*
X592914Y136221D02*
D03*
X561418Y73228D02*
D03*
X616536Y151969D02*
D03*
X577166Y88977D02*
D03*
Y104725D02*
D03*
X655906Y159843D02*
D03*
X545670Y73228D02*
D03*
X569292Y104725D02*
D03*
X600788D02*
D03*
X569292Y128347D02*
D03*
X577166Y96851D02*
D03*
X600788Y136221D02*
D03*
X482678Y238583D02*
D03*
X616536Y136221D02*
D03*
X506299Y254331D02*
D03*
X569292Y151969D02*
D03*
X632284Y136221D02*
D03*
X561418Y151969D02*
D03*
X608662Y144095D02*
D03*
X35827Y277953D02*
D03*
Y272047D02*
D03*
Y266142D02*
D03*
Y260236D02*
D03*
Y254331D02*
D03*
X29921Y277953D02*
D03*
Y272047D02*
D03*
Y266142D02*
D03*
Y260236D02*
D03*
Y254331D02*
D03*
Y248425D02*
D03*
X24016Y260236D02*
D03*
Y254331D02*
D03*
Y248425D02*
D03*
Y242520D02*
D03*
X18110Y260236D02*
D03*
Y254331D02*
D03*
Y248425D02*
D03*
X12205Y260236D02*
D03*
Y254331D02*
D03*
Y248425D02*
D03*
Y242520D02*
D03*
X260236Y88976D02*
D03*
Y83071D02*
D03*
X254331Y88976D02*
D03*
Y83071D02*
D03*
X248425Y88976D02*
D03*
Y83071D02*
D03*
X242520Y88976D02*
D03*
Y83071D02*
D03*
X236614Y88976D02*
D03*
Y83071D02*
D03*
X230709D02*
D03*
X224803D02*
D03*
X218898Y88976D02*
D03*
Y83071D02*
D03*
X212992Y88976D02*
D03*
Y83071D02*
D03*
X356693Y270079D02*
D03*
Y262205D02*
D03*
Y254331D02*
D03*
Y214961D02*
D03*
X348819Y270079D02*
D03*
Y262205D02*
D03*
Y254331D02*
D03*
Y246457D02*
D03*
Y238583D02*
D03*
Y230709D02*
D03*
Y222835D02*
D03*
Y214961D02*
D03*
Y207087D02*
D03*
Y199213D02*
D03*
X340945Y270079D02*
D03*
Y262205D02*
D03*
Y254331D02*
D03*
X333071Y270079D02*
D03*
Y262205D02*
D03*
Y254331D02*
D03*
X325197Y270079D02*
D03*
Y262205D02*
D03*
X317323Y270079D02*
D03*
Y262205D02*
D03*
X309449Y270079D02*
D03*
Y262205D02*
D03*
X301575Y270079D02*
D03*
Y262205D02*
D03*
X293701Y270079D02*
D03*
Y262205D02*
D03*
X285827Y270079D02*
D03*
Y262205D02*
D03*
Y254331D02*
D03*
X277953Y270079D02*
D03*
Y262205D02*
D03*
Y254331D02*
D03*
X270079Y270079D02*
D03*
Y262205D02*
D03*
Y254331D02*
D03*
X262205Y270079D02*
D03*
Y262205D02*
D03*
Y254331D02*
D03*
X254331Y270079D02*
D03*
Y262205D02*
D03*
Y254331D02*
D03*
X246457Y270079D02*
D03*
Y262205D02*
D03*
Y254331D02*
D03*
X238583Y270079D02*
D03*
Y262205D02*
D03*
Y254331D02*
D03*
X230709Y270079D02*
D03*
Y262205D02*
D03*
Y254331D02*
D03*
X222835Y270079D02*
D03*
Y262205D02*
D03*
X214961Y270079D02*
D03*
Y262205D02*
D03*
X207087Y270079D02*
D03*
Y262205D02*
D03*
X199213Y270079D02*
D03*
Y262205D02*
D03*
X191339Y270079D02*
D03*
Y262205D02*
D03*
X183465Y270079D02*
D03*
Y262205D02*
D03*
Y254331D02*
D03*
X175591Y270079D02*
D03*
Y262205D02*
D03*
X167717Y270079D02*
D03*
Y262205D02*
D03*
Y254331D02*
D03*
X159843Y270079D02*
D03*
Y262205D02*
D03*
Y254331D02*
D03*
X151969Y270079D02*
D03*
Y262205D02*
D03*
Y254331D02*
D03*
X144095Y270079D02*
D03*
Y262205D02*
D03*
Y254331D02*
D03*
X136221Y270079D02*
D03*
Y262205D02*
D03*
Y254331D02*
D03*
X128347Y270079D02*
D03*
Y262205D02*
D03*
Y254331D02*
D03*
X120473Y270079D02*
D03*
Y262205D02*
D03*
Y254331D02*
D03*
X112599Y301575D02*
D03*
Y293701D02*
D03*
Y285827D02*
D03*
Y277953D02*
D03*
Y270079D02*
D03*
Y262205D02*
D03*
Y254331D02*
D03*
X104725Y301575D02*
D03*
Y293701D02*
D03*
Y285827D02*
D03*
Y277953D02*
D03*
Y270079D02*
D03*
Y262205D02*
D03*
Y254331D02*
D03*
X96851Y301575D02*
D03*
Y293701D02*
D03*
Y285827D02*
D03*
Y277953D02*
D03*
Y270079D02*
D03*
Y262205D02*
D03*
X88977Y301575D02*
D03*
Y293701D02*
D03*
Y285827D02*
D03*
X81103Y301575D02*
D03*
Y293701D02*
D03*
Y285827D02*
D03*
X73228Y301575D02*
D03*
Y293701D02*
D03*
Y285827D02*
D03*
X65354D02*
D03*
X57480D02*
D03*
Y277953D02*
D03*
Y270079D02*
D03*
Y262205D02*
D03*
Y254331D02*
D03*
X655906Y270079D02*
D03*
Y262205D02*
D03*
Y254331D02*
D03*
Y246457D02*
D03*
Y238583D02*
D03*
Y230709D02*
D03*
Y191339D02*
D03*
Y183465D02*
D03*
Y175591D02*
D03*
X648032Y270079D02*
D03*
Y262205D02*
D03*
Y254331D02*
D03*
Y230709D02*
D03*
X640158Y270079D02*
D03*
Y262205D02*
D03*
Y254331D02*
D03*
Y230709D02*
D03*
X632284Y270079D02*
D03*
Y262205D02*
D03*
Y254331D02*
D03*
Y230709D02*
D03*
Y191339D02*
D03*
Y175591D02*
D03*
X624410Y270079D02*
D03*
Y262205D02*
D03*
Y254331D02*
D03*
Y230709D02*
D03*
Y214961D02*
D03*
Y207087D02*
D03*
Y199213D02*
D03*
Y191339D02*
D03*
X616536Y270079D02*
D03*
Y262205D02*
D03*
Y254331D02*
D03*
Y230709D02*
D03*
Y222835D02*
D03*
Y214961D02*
D03*
Y207087D02*
D03*
Y199213D02*
D03*
Y191339D02*
D03*
X608662Y270079D02*
D03*
Y262205D02*
D03*
Y254331D02*
D03*
Y230709D02*
D03*
Y222835D02*
D03*
Y214961D02*
D03*
Y207087D02*
D03*
Y199213D02*
D03*
Y191339D02*
D03*
X600788Y270079D02*
D03*
Y262205D02*
D03*
Y254331D02*
D03*
Y230709D02*
D03*
Y222835D02*
D03*
Y214961D02*
D03*
Y207087D02*
D03*
Y199213D02*
D03*
Y191339D02*
D03*
X592914Y270079D02*
D03*
Y262205D02*
D03*
Y254331D02*
D03*
Y246457D02*
D03*
Y238583D02*
D03*
Y230709D02*
D03*
Y222835D02*
D03*
Y214961D02*
D03*
Y207087D02*
D03*
Y199213D02*
D03*
Y191339D02*
D03*
X585040Y270079D02*
D03*
Y262205D02*
D03*
Y254331D02*
D03*
Y246457D02*
D03*
Y238583D02*
D03*
Y214961D02*
D03*
Y207087D02*
D03*
Y191339D02*
D03*
X655906Y317323D02*
D03*
Y309449D02*
D03*
Y301575D02*
D03*
Y293701D02*
D03*
X648032D02*
D03*
X640158D02*
D03*
X632284D02*
D03*
X624410Y325197D02*
D03*
Y293701D02*
D03*
X616536Y325197D02*
D03*
Y293701D02*
D03*
X608662Y325197D02*
D03*
Y293701D02*
D03*
X600788Y325197D02*
D03*
Y293701D02*
D03*
X592914Y325197D02*
D03*
Y317323D02*
D03*
Y309449D02*
D03*
Y301575D02*
D03*
Y293701D02*
D03*
X585040Y325197D02*
D03*
Y317323D02*
D03*
Y309449D02*
D03*
Y301575D02*
D03*
Y293701D02*
D03*
X577166Y325197D02*
D03*
Y317323D02*
D03*
Y309449D02*
D03*
Y301575D02*
D03*
Y293701D02*
D03*
X569292Y325197D02*
D03*
Y317323D02*
D03*
Y309449D02*
D03*
Y301575D02*
D03*
Y293701D02*
D03*
X561418Y325197D02*
D03*
Y317323D02*
D03*
Y309449D02*
D03*
Y301575D02*
D03*
Y293701D02*
D03*
X553544Y325197D02*
D03*
Y317323D02*
D03*
Y309449D02*
D03*
Y301575D02*
D03*
Y293701D02*
D03*
X545670Y325197D02*
D03*
Y309449D02*
D03*
Y293701D02*
D03*
X537796Y325197D02*
D03*
Y309449D02*
D03*
Y293701D02*
D03*
Y270079D02*
D03*
X529922Y325197D02*
D03*
Y317323D02*
D03*
Y309449D02*
D03*
Y301575D02*
D03*
X522048Y325197D02*
D03*
Y270079D02*
D03*
X514174Y325197D02*
D03*
Y317323D02*
D03*
X506299Y325197D02*
D03*
Y317323D02*
D03*
Y309449D02*
D03*
X498425Y325197D02*
D03*
X490552D02*
D03*
Y317323D02*
D03*
Y309449D02*
D03*
X482678Y325197D02*
D03*
Y317323D02*
D03*
Y309449D02*
D03*
X474803Y325197D02*
D03*
Y317323D02*
D03*
Y309449D02*
D03*
Y230709D02*
D03*
Y222835D02*
D03*
Y214961D02*
D03*
Y207087D02*
D03*
Y199213D02*
D03*
X466929Y325197D02*
D03*
Y317323D02*
D03*
Y309449D02*
D03*
Y270079D02*
D03*
Y262205D02*
D03*
Y254331D02*
D03*
Y246457D02*
D03*
Y238583D02*
D03*
Y230709D02*
D03*
Y222835D02*
D03*
Y214961D02*
D03*
Y207087D02*
D03*
Y199213D02*
D03*
X459055Y325197D02*
D03*
Y317323D02*
D03*
Y309449D02*
D03*
Y270079D02*
D03*
Y262205D02*
D03*
Y254331D02*
D03*
Y214961D02*
D03*
X451181Y325197D02*
D03*
Y317323D02*
D03*
Y309449D02*
D03*
Y270079D02*
D03*
Y262205D02*
D03*
Y254331D02*
D03*
Y238583D02*
D03*
Y230709D02*
D03*
Y214961D02*
D03*
Y199213D02*
D03*
X443307Y325197D02*
D03*
Y270079D02*
D03*
Y262205D02*
D03*
Y254331D02*
D03*
Y246457D02*
D03*
Y238583D02*
D03*
Y230709D02*
D03*
Y222835D02*
D03*
Y214961D02*
D03*
Y207087D02*
D03*
Y199213D02*
D03*
X435433Y325197D02*
D03*
Y317323D02*
D03*
Y309449D02*
D03*
Y270079D02*
D03*
X427559Y325197D02*
D03*
Y317323D02*
D03*
Y270079D02*
D03*
X419685Y325197D02*
D03*
Y317323D02*
D03*
Y270079D02*
D03*
X411811Y325197D02*
D03*
Y317323D02*
D03*
Y309449D02*
D03*
Y301575D02*
D03*
Y293701D02*
D03*
Y285827D02*
D03*
Y277953D02*
D03*
Y270079D02*
D03*
X537796Y136221D02*
D03*
Y128347D02*
D03*
Y120473D02*
D03*
Y88977D02*
D03*
Y81103D02*
D03*
Y73228D02*
D03*
Y65354D02*
D03*
Y57480D02*
D03*
X529922Y136221D02*
D03*
Y128347D02*
D03*
Y120473D02*
D03*
Y88977D02*
D03*
Y81103D02*
D03*
Y73228D02*
D03*
Y65354D02*
D03*
Y57480D02*
D03*
X522048Y136221D02*
D03*
Y128347D02*
D03*
Y120473D02*
D03*
Y88977D02*
D03*
Y81103D02*
D03*
Y73228D02*
D03*
Y65354D02*
D03*
Y57480D02*
D03*
X514174Y151969D02*
D03*
Y144095D02*
D03*
Y136221D02*
D03*
Y128347D02*
D03*
Y120473D02*
D03*
Y112599D02*
D03*
Y104725D02*
D03*
Y96851D02*
D03*
Y88977D02*
D03*
Y81103D02*
D03*
Y73228D02*
D03*
Y65354D02*
D03*
Y57480D02*
D03*
X506299Y151969D02*
D03*
Y144095D02*
D03*
Y136221D02*
D03*
Y128347D02*
D03*
Y120473D02*
D03*
Y112599D02*
D03*
Y104725D02*
D03*
Y96851D02*
D03*
Y88977D02*
D03*
Y81103D02*
D03*
Y73228D02*
D03*
Y65354D02*
D03*
Y57480D02*
D03*
X498425Y151969D02*
D03*
Y144095D02*
D03*
Y136221D02*
D03*
Y128347D02*
D03*
Y120473D02*
D03*
Y112599D02*
D03*
Y104725D02*
D03*
Y96851D02*
D03*
Y88977D02*
D03*
Y81103D02*
D03*
Y73228D02*
D03*
Y65354D02*
D03*
Y57480D02*
D03*
X490552Y151969D02*
D03*
Y144095D02*
D03*
Y136221D02*
D03*
Y128347D02*
D03*
Y120473D02*
D03*
Y112599D02*
D03*
Y104725D02*
D03*
Y96851D02*
D03*
Y88977D02*
D03*
Y81103D02*
D03*
Y73228D02*
D03*
Y65354D02*
D03*
Y57480D02*
D03*
X482678Y151969D02*
D03*
Y144095D02*
D03*
Y136221D02*
D03*
Y128347D02*
D03*
Y120473D02*
D03*
Y112599D02*
D03*
Y104725D02*
D03*
Y96851D02*
D03*
Y88977D02*
D03*
Y81103D02*
D03*
Y73228D02*
D03*
Y65354D02*
D03*
Y57480D02*
D03*
X474803Y151969D02*
D03*
Y144095D02*
D03*
Y136221D02*
D03*
Y128347D02*
D03*
Y120473D02*
D03*
Y112599D02*
D03*
Y104725D02*
D03*
Y96851D02*
D03*
Y88977D02*
D03*
Y81103D02*
D03*
Y73228D02*
D03*
Y65354D02*
D03*
Y57480D02*
D03*
X466929Y151969D02*
D03*
Y144095D02*
D03*
Y136221D02*
D03*
Y128347D02*
D03*
Y120473D02*
D03*
Y112599D02*
D03*
Y104725D02*
D03*
Y96851D02*
D03*
Y88977D02*
D03*
Y81103D02*
D03*
Y73228D02*
D03*
Y65354D02*
D03*
Y57480D02*
D03*
X459055Y175591D02*
D03*
Y136221D02*
D03*
Y112599D02*
D03*
Y104725D02*
D03*
Y96851D02*
D03*
Y88977D02*
D03*
Y81103D02*
D03*
Y73228D02*
D03*
Y65354D02*
D03*
Y57480D02*
D03*
X451181Y175591D02*
D03*
Y159843D02*
D03*
Y151969D02*
D03*
Y136221D02*
D03*
Y120473D02*
D03*
Y112599D02*
D03*
Y104725D02*
D03*
Y96851D02*
D03*
Y88977D02*
D03*
Y81103D02*
D03*
Y73228D02*
D03*
Y65354D02*
D03*
X506693Y263386D02*
D03*
X264961Y240945D02*
D03*
X209055Y115919D02*
D03*
X573622Y178209D02*
D03*
X564961Y245276D02*
D03*
X557792Y245179D02*
D03*
X139370Y141732D02*
D03*
Y136221D02*
D03*
X193700Y148819D02*
D03*
X194559Y125654D02*
D03*
X197637Y119685D02*
D03*
X200787Y161811D02*
D03*
X183465Y84646D02*
D03*
X333465Y98032D02*
D03*
X315971Y66929D02*
D03*
X362992Y324410D02*
D03*
X363779Y332677D02*
D03*
X564156Y160433D02*
D03*
X298922Y79176D02*
D03*
X416535Y78740D02*
D03*
X559449Y185827D02*
D03*
X554035Y182283D02*
D03*
X551575Y225197D02*
D03*
X164370Y153937D02*
D03*
X212205Y135039D02*
D03*
Y130315D02*
D03*
D126*
X19685Y334646D02*
D03*
X649606D02*
D03*
Y19685D02*
D03*
X19685D02*
D03*
M02*
