%TF.GenerationSoftware,Altium Limited,Altium Designer,19.0.10 (269)*%
G04 Layer_Color=8388736*
%FSLAX26Y26*%
%MOIN*%
%TF.FileFunction,Soldermask,Top*%
%TF.Part,Single*%
G01*
G75*
%TA.AperFunction,ComponentPad*%
%ADD61C,0.007874*%
%TA.AperFunction,ViaPad*%
%ADD67C,0.047244*%
%TA.AperFunction,SMDPad,CuDef*%
%ADD85R,0.043465X0.047402*%
%ADD87R,0.047402X0.043465*%
%ADD88R,0.065118X0.061181*%
%ADD91R,0.057244X0.074961*%
%ADD93R,0.045433X0.049370*%
%ADD97R,0.055276X0.063150*%
%ADD100R,0.049370X0.035591*%
%TA.AperFunction,ComponentPad*%
%ADD101C,0.069055*%
%ADD102C,0.010000*%
%ADD103C,0.088740*%
%ADD104C,0.116299*%
%ADD105O,0.128110X0.069055*%
%ADD106C,0.070000*%
%ADD107C,0.065118*%
%ADD108O,0.069055X0.088740*%
%ADD109O,0.069055X0.128110*%
%ADD110C,0.108425*%
%TA.AperFunction,ViaPad*%
%ADD111C,0.040000*%
%ADD112C,0.033622*%
%ADD113C,0.206850*%
%TA.AperFunction,SMDPad,CuDef*%
%ADD118O,0.027716X0.072992*%
%ADD119R,0.161969X0.117874*%
%ADD120R,0.160000X0.176929*%
%ADD121R,0.495039X0.160591*%
%ADD122R,0.157606X0.106425*%
%ADD123R,0.100000X0.080000*%
%ADD124R,0.171417X0.193465*%
G04:AMPARAMS|DCode=125|XSize=43.465mil|YSize=67.087mil|CornerRadius=13.366mil|HoleSize=0mil|Usage=FLASHONLY|Rotation=90.000|XOffset=0mil|YOffset=0mil|HoleType=Round|Shape=RoundedRectangle|*
%AMROUNDEDRECTD125*
21,1,0.043465,0.040354,0,0,90.0*
21,1,0.016732,0.067087,0,0,90.0*
1,1,0.026732,0.020177,0.008366*
1,1,0.026732,0.020177,-0.008366*
1,1,0.026732,-0.020177,-0.008366*
1,1,0.026732,-0.020177,0.008366*
%
%ADD125ROUNDEDRECTD125*%
%ADD126R,0.106425X0.157606*%
%ADD127C,0.332835*%
%ADD128O,0.098583X0.035591*%
%ADD129R,0.039370X0.031496*%
%ADD130R,0.251969X0.155512*%
%ADD131R,0.039370X0.039370*%
%ADD132R,0.023622X0.039370*%
%ADD133R,0.039370X0.023622*%
%ADD134R,0.100551X0.189134*%
%ADD135R,0.061181X0.065118*%
%ADD136R,0.049370X0.045433*%
%ADD137R,0.061181X0.053307*%
%ADD138O,0.076929X0.033622*%
%ADD139R,0.116299X0.096614*%
%ADD140R,0.102520X0.137953*%
%ADD141R,0.102520X0.049370*%
%ADD142R,0.116299X0.197008*%
%ADD143R,0.067087X0.021811*%
%ADD144R,0.051181X0.037402*%
%ADD145O,0.069055X0.057244*%
%ADD146R,0.116299X0.061181*%
%ADD147R,0.080866X0.061181*%
D61*
X2409409Y1291181D02*
D03*
X2450748Y1228189D02*
D03*
Y1259685D02*
D03*
Y1291181D02*
D03*
Y1322677D02*
D03*
Y1354173D02*
D03*
X2497598D02*
D03*
Y1322677D02*
D03*
Y1291181D02*
D03*
Y1259685D02*
D03*
Y1228189D02*
D03*
X2544449D02*
D03*
Y1259685D02*
D03*
Y1291181D02*
D03*
Y1322677D02*
D03*
Y1354173D02*
D03*
X2591299D02*
D03*
Y1322677D02*
D03*
Y1291181D02*
D03*
Y1259685D02*
D03*
Y1228189D02*
D03*
X2632638Y1291181D02*
D03*
D67*
X6417323Y1148622D02*
D03*
X6448819Y2094734D02*
D03*
D85*
X5683071Y2505905D02*
D03*
X5631890D02*
D03*
X5822588Y2323002D02*
D03*
X5771407D02*
D03*
X5234252Y2625984D02*
D03*
X5285433D02*
D03*
X1764764Y1727579D02*
D03*
X1713582D02*
D03*
X2197126Y1854331D02*
D03*
X2145945D02*
D03*
X1606299Y1584981D02*
D03*
X1657480D02*
D03*
X1606299Y1456693D02*
D03*
X1657480D02*
D03*
X1606299Y1342520D02*
D03*
X1657480D02*
D03*
X1606299Y1277559D02*
D03*
X1657480D02*
D03*
X1606299Y1206526D02*
D03*
X1657480D02*
D03*
X1606299Y1135492D02*
D03*
X1657480D02*
D03*
X438976Y1492126D02*
D03*
X387795D02*
D03*
X2653957Y1687008D02*
D03*
X2602776D02*
D03*
X4088583Y787402D02*
D03*
X4037402D02*
D03*
D87*
X2141732Y1620079D02*
D03*
Y1568898D02*
D03*
X5648957Y2332677D02*
D03*
Y2383858D02*
D03*
X5642947Y1706693D02*
D03*
Y1655512D02*
D03*
X5736221Y2100394D02*
D03*
Y2049213D02*
D03*
X5177165Y2319892D02*
D03*
Y2268711D02*
D03*
X1913386Y1667323D02*
D03*
Y1718504D02*
D03*
X1834646Y1667323D02*
D03*
Y1718504D02*
D03*
X2244095Y1346210D02*
D03*
Y1397391D02*
D03*
X2307086Y1911417D02*
D03*
Y1860236D02*
D03*
X1265748Y1490236D02*
D03*
Y1541417D02*
D03*
Y1423307D02*
D03*
Y1372126D02*
D03*
Y1305197D02*
D03*
Y1254016D02*
D03*
X2067913Y1620368D02*
D03*
Y1671549D02*
D03*
D88*
X3244095Y2521496D02*
D03*
Y2458504D02*
D03*
X3153543Y2523622D02*
D03*
Y2460630D02*
D03*
X3031496Y3350394D02*
D03*
Y3287401D02*
D03*
D91*
X3023622Y2527559D02*
D03*
X2913386D02*
D03*
D93*
X5772638Y2251968D02*
D03*
X5825787D02*
D03*
X1762628Y1656545D02*
D03*
X1709478D02*
D03*
X1605315Y1064458D02*
D03*
X1658465D02*
D03*
X2678406Y1468504D02*
D03*
X2625256D02*
D03*
X2603347Y1759842D02*
D03*
X2656496D02*
D03*
D97*
X3165402Y787825D02*
D03*
X3096504D02*
D03*
X2569065Y1838750D02*
D03*
X2637963D02*
D03*
D100*
X2895669Y3362992D02*
D03*
X2805118D02*
D03*
D101*
X5377953Y2311024D02*
D03*
X5279528Y2507874D02*
D03*
X5476378D02*
D03*
D102*
X5377953Y2409449D02*
D03*
X180315Y2353543D02*
D03*
Y2168504D02*
D03*
X5412118Y2988360D02*
D03*
X4012118Y2978360D02*
D03*
D103*
X2197638Y2947244D02*
D03*
Y2547244D02*
D03*
X1897638Y2947244D02*
D03*
X2047638D02*
D03*
Y2547244D02*
D03*
X1897638D02*
D03*
X1747638Y2947244D02*
D03*
Y2547244D02*
D03*
D104*
X3104338Y1285819D02*
D03*
Y2285819D02*
D03*
D105*
X2980315Y1685827D02*
D03*
Y1785827D02*
D03*
Y1885827D02*
D03*
D106*
X350394Y2438189D02*
D03*
Y2320079D02*
D03*
Y2201968D02*
D03*
Y2083858D02*
D03*
D107*
X1165354Y1216535D02*
D03*
Y1316535D02*
D03*
X2121581Y1006299D02*
D03*
Y1106299D02*
D03*
D108*
X925197Y2491340D02*
D03*
X728346D02*
D03*
D109*
X5192126Y2892697D02*
D03*
X5092126D02*
D03*
X4992126D02*
D03*
X4232126D02*
D03*
X4332126D02*
D03*
X4432126D02*
D03*
D110*
X4570541Y2456546D02*
D03*
Y2256546D02*
D03*
Y2056546D02*
D03*
Y1856545D02*
D03*
Y1656545D02*
D03*
Y1456545D02*
D03*
Y1256545D02*
D03*
X3570541D02*
D03*
Y1456545D02*
D03*
Y1656545D02*
D03*
Y2056546D02*
D03*
Y2256546D02*
D03*
Y2456546D02*
D03*
D111*
X2081693Y1854331D02*
D03*
X3938568Y1019685D02*
D03*
X3476378Y821685D02*
D03*
X3566932Y1362206D02*
D03*
X3488191Y1677167D02*
D03*
Y1598427D02*
D03*
Y1519686D02*
D03*
Y1440946D02*
D03*
Y1362206D02*
D03*
Y1283466D02*
D03*
Y1204726D02*
D03*
Y1125985D02*
D03*
X3409451Y1677167D02*
D03*
Y1598427D02*
D03*
Y1519686D02*
D03*
Y1440946D02*
D03*
Y1362206D02*
D03*
Y1283466D02*
D03*
Y1204726D02*
D03*
Y1125985D02*
D03*
Y1047245D02*
D03*
X3330711Y1677167D02*
D03*
Y1598427D02*
D03*
Y1519686D02*
D03*
Y1440946D02*
D03*
Y1362206D02*
D03*
Y1283466D02*
D03*
Y1204726D02*
D03*
Y1125985D02*
D03*
Y1047245D02*
D03*
X3251971Y1677167D02*
D03*
Y1598427D02*
D03*
Y1519686D02*
D03*
Y1440946D02*
D03*
Y1362206D02*
D03*
Y1283466D02*
D03*
Y1204726D02*
D03*
Y1125985D02*
D03*
Y1047245D02*
D03*
X3173231Y1677167D02*
D03*
Y1598427D02*
D03*
Y1519686D02*
D03*
Y1440946D02*
D03*
Y1362206D02*
D03*
Y1204726D02*
D03*
Y1125985D02*
D03*
Y1047245D02*
D03*
X3094490Y1677167D02*
D03*
Y1598427D02*
D03*
Y1519686D02*
D03*
Y1440946D02*
D03*
Y1204726D02*
D03*
Y1125985D02*
D03*
Y1047245D02*
D03*
X3015750Y1598427D02*
D03*
Y1519686D02*
D03*
Y1440946D02*
D03*
Y1362206D02*
D03*
Y1283466D02*
D03*
Y1204726D02*
D03*
Y1125985D02*
D03*
Y1047245D02*
D03*
X2937010Y1598427D02*
D03*
Y1519686D02*
D03*
Y1440946D02*
D03*
Y1362206D02*
D03*
Y1283466D02*
D03*
Y1204726D02*
D03*
Y1125985D02*
D03*
Y1047245D02*
D03*
X2858270Y1519686D02*
D03*
Y1440946D02*
D03*
Y1362206D02*
D03*
Y1283466D02*
D03*
Y1204726D02*
D03*
Y1125985D02*
D03*
Y1047245D02*
D03*
X2779530Y1125985D02*
D03*
Y1047245D02*
D03*
X2700789Y1125985D02*
D03*
Y1047245D02*
D03*
X3155000Y912000D02*
D03*
X725000Y199000D02*
D03*
X5535437Y1125985D02*
D03*
X5486105Y1809170D02*
D03*
X1917319Y1208659D02*
D03*
X1496063Y1523622D02*
D03*
X5377956Y2858270D02*
D03*
X5456696Y3173231D02*
D03*
X5377956D02*
D03*
X4433074Y3094490D02*
D03*
Y3173231D02*
D03*
X4196853Y3094490D02*
D03*
X4275593D02*
D03*
X4984255D02*
D03*
Y3173231D02*
D03*
X5141736Y3094490D02*
D03*
X5220476D02*
D03*
Y3173231D02*
D03*
X5299216Y2700789D02*
D03*
X2279523Y1521501D02*
D03*
X2566929Y1468504D02*
D03*
X1984252Y1137795D02*
D03*
X1157480Y2007874D02*
D03*
X1531496Y2216535D02*
D03*
X1988189Y1251968D02*
D03*
X2153539Y1224407D02*
D03*
Y1169289D02*
D03*
X2751968Y956693D02*
D03*
X5492126Y2696850D02*
D03*
X5222441Y1858268D02*
D03*
X5437008Y2240157D02*
D03*
X5133858Y1988189D02*
D03*
X2535433Y1598425D02*
D03*
X2472441Y1988189D02*
D03*
X2114169Y2185035D02*
D03*
X1678912Y790354D02*
D03*
X1881890Y1055118D02*
D03*
X1578740Y937008D02*
D03*
X1719247Y1127209D02*
D03*
X1531496Y1890640D02*
D03*
X1669288Y1399013D02*
D03*
X1913386Y1775508D02*
D03*
X2204724Y1633858D02*
D03*
X2322843Y1346461D02*
D03*
X2192913Y1322835D02*
D03*
X1720473Y1366142D02*
D03*
X1718011Y1443014D02*
D03*
X1667323Y1503937D02*
D03*
X2385827Y1448819D02*
D03*
X5614177Y1125985D02*
D03*
X5535437Y1204726D02*
D03*
X5614177D02*
D03*
X5377956Y1519686D02*
D03*
X5535437Y1440946D02*
D03*
X5377956D02*
D03*
X5299216D02*
D03*
X5220476Y1519686D02*
D03*
Y1440946D02*
D03*
X5299216Y1519686D02*
D03*
X5535437D02*
D03*
X6086618Y1283466D02*
D03*
Y1047245D02*
D03*
X6007878Y1440946D02*
D03*
X6244098Y1283466D02*
D03*
X6086618Y1125985D02*
D03*
X5614177Y1283466D02*
D03*
X5692917Y811025D02*
D03*
X5929138Y1283466D02*
D03*
X6480319Y1362206D02*
D03*
X5929138Y1125985D02*
D03*
X6086618Y1519686D02*
D03*
X5692917Y732284D02*
D03*
X5850397Y968505D02*
D03*
X5929138Y1047245D02*
D03*
X5535437Y1362206D02*
D03*
X5614177Y574804D02*
D03*
X5771657Y811025D02*
D03*
X6559059Y1440946D02*
D03*
X5850397Y1047245D02*
D03*
X5535437Y653544D02*
D03*
Y732284D02*
D03*
X5771657Y1125985D02*
D03*
X5850397Y1440946D02*
D03*
X6559059Y1362206D02*
D03*
X5771657D02*
D03*
X5535437Y811025D02*
D03*
X5692917Y574804D02*
D03*
X5456696Y889765D02*
D03*
X4984255Y2385829D02*
D03*
X6007878Y1204726D02*
D03*
X5771657Y653544D02*
D03*
X6244098Y1440946D02*
D03*
X5614177Y968505D02*
D03*
X5062995Y2464569D02*
D03*
X5850397Y1362206D02*
D03*
X6007878Y1519686D02*
D03*
X5535437Y1047245D02*
D03*
X6244098D02*
D03*
X6165358Y1204726D02*
D03*
X5692917Y889765D02*
D03*
X6165358Y1283466D02*
D03*
X4826775Y2543309D02*
D03*
X5614177Y1362206D02*
D03*
X6086618Y1204726D02*
D03*
X5929138D02*
D03*
X5771657Y1440946D02*
D03*
X4826775Y2464569D02*
D03*
X5929138Y1519686D02*
D03*
X6165358Y1047245D02*
D03*
X5771657Y1519686D02*
D03*
X6559059Y1283466D02*
D03*
X5535437Y574804D02*
D03*
X5771657Y1204726D02*
D03*
X6165358Y1125985D02*
D03*
X5692917D02*
D03*
X6007878Y1283466D02*
D03*
X6086618Y1362206D02*
D03*
X6244098D02*
D03*
X5062995Y2385829D02*
D03*
X6007878Y968505D02*
D03*
X5692917Y1204726D02*
D03*
X5535437Y968505D02*
D03*
X6559059D02*
D03*
X5535437Y1283466D02*
D03*
X5456696Y574804D02*
D03*
X6322839Y1440946D02*
D03*
X5141736Y2385829D02*
D03*
X6401579Y1362206D02*
D03*
X5614177Y653544D02*
D03*
X5456696Y811025D02*
D03*
X5692917Y1440946D02*
D03*
X6559059Y1519686D02*
D03*
X5692917Y1362206D02*
D03*
X5771657Y1283466D02*
D03*
X5456696Y653544D02*
D03*
X5929138Y1440946D02*
D03*
X5850397Y1283466D02*
D03*
X6244098Y1519686D02*
D03*
X5614177Y811025D02*
D03*
X5141736Y2543309D02*
D03*
X5692917Y653544D02*
D03*
X5614177Y889765D02*
D03*
X5850397Y1519686D02*
D03*
X5929138Y968505D02*
D03*
X6165358Y1440946D02*
D03*
X6086618Y968505D02*
D03*
X5692917D02*
D03*
X5771657Y732284D02*
D03*
X5614177Y1440946D02*
D03*
X6007878Y1125985D02*
D03*
X4905515Y2385829D02*
D03*
X6322839Y968505D02*
D03*
X6165358D02*
D03*
X6322839Y1598427D02*
D03*
X5141736Y2464569D02*
D03*
X5614177Y1047245D02*
D03*
X5535437Y889765D02*
D03*
X6244098Y968505D02*
D03*
X5850397Y1125985D02*
D03*
X6322839Y1519686D02*
D03*
X6480319Y968505D02*
D03*
X5850397Y1204726D02*
D03*
X5929138Y1362206D02*
D03*
X5614177Y732284D02*
D03*
X6165358Y1519686D02*
D03*
X5771657Y889765D02*
D03*
Y1047245D02*
D03*
X6559059Y1598427D02*
D03*
X5456696Y732284D02*
D03*
X5692917Y1047245D02*
D03*
X6007878D02*
D03*
X5692917Y1283466D02*
D03*
X5771657Y968505D02*
D03*
X6007878Y1362206D02*
D03*
X4826775Y2385829D02*
D03*
X6165358Y1362206D02*
D03*
X5062995Y2543309D02*
D03*
X5692917Y1519686D02*
D03*
X6322839Y1362206D02*
D03*
X5614177Y1519686D02*
D03*
X6086618Y1440946D02*
D03*
X358267Y2779526D02*
D03*
Y2720471D02*
D03*
Y2661416D02*
D03*
Y2602361D02*
D03*
Y2543306D02*
D03*
X299212Y2779526D02*
D03*
Y2720471D02*
D03*
Y2661416D02*
D03*
Y2602361D02*
D03*
Y2543306D02*
D03*
Y2484251D02*
D03*
X240157Y2602361D02*
D03*
Y2543306D02*
D03*
Y2484251D02*
D03*
Y2425196D02*
D03*
X181102Y2602361D02*
D03*
Y2543306D02*
D03*
Y2484251D02*
D03*
X122047Y2602361D02*
D03*
Y2543306D02*
D03*
Y2484251D02*
D03*
Y2425196D02*
D03*
X2602361Y889763D02*
D03*
Y830708D02*
D03*
X2543306Y889763D02*
D03*
Y830708D02*
D03*
X2484251Y889763D02*
D03*
Y830708D02*
D03*
X2425196Y889763D02*
D03*
Y830708D02*
D03*
X2366141Y889763D02*
D03*
Y830708D02*
D03*
X2307086D02*
D03*
X2248030D02*
D03*
X2188975Y889763D02*
D03*
Y830708D02*
D03*
X2129920Y889763D02*
D03*
Y830708D02*
D03*
X3566932Y2700789D02*
D03*
Y2622049D02*
D03*
Y2543309D02*
D03*
Y2149608D02*
D03*
X3488191Y2700789D02*
D03*
Y2622049D02*
D03*
Y2543309D02*
D03*
Y2464569D02*
D03*
Y2385829D02*
D03*
Y2307088D02*
D03*
Y2228348D02*
D03*
Y2149608D02*
D03*
Y2070868D02*
D03*
Y1992128D02*
D03*
X3409451Y2700789D02*
D03*
Y2622049D02*
D03*
Y2543309D02*
D03*
X3330711Y2700789D02*
D03*
Y2622049D02*
D03*
Y2543309D02*
D03*
X3251971Y2700789D02*
D03*
Y2622049D02*
D03*
X3173231Y2700789D02*
D03*
Y2622049D02*
D03*
X3094490Y2700789D02*
D03*
Y2622049D02*
D03*
X3015750Y2700789D02*
D03*
Y2622049D02*
D03*
X2937010Y2700789D02*
D03*
Y2622049D02*
D03*
X2858270Y2700789D02*
D03*
Y2622049D02*
D03*
Y2543309D02*
D03*
X2779530Y2700789D02*
D03*
Y2622049D02*
D03*
Y2543309D02*
D03*
X2700789Y2700789D02*
D03*
Y2622049D02*
D03*
Y2543309D02*
D03*
X2622049Y2700789D02*
D03*
Y2622049D02*
D03*
Y2543309D02*
D03*
X2543309Y2700789D02*
D03*
Y2622049D02*
D03*
Y2543309D02*
D03*
X2464569Y2700789D02*
D03*
Y2622049D02*
D03*
Y2543309D02*
D03*
X2385829Y2700789D02*
D03*
Y2622049D02*
D03*
Y2543309D02*
D03*
X2307088Y2700789D02*
D03*
Y2622049D02*
D03*
Y2543309D02*
D03*
X2228348Y2700789D02*
D03*
Y2622049D02*
D03*
X2149608Y2700789D02*
D03*
Y2622049D02*
D03*
X2070868Y2700789D02*
D03*
Y2622049D02*
D03*
X1992128Y2700789D02*
D03*
Y2622049D02*
D03*
X1913387Y2700789D02*
D03*
Y2622049D02*
D03*
X1834647Y2700789D02*
D03*
Y2622049D02*
D03*
Y2543309D02*
D03*
X1755907Y2700789D02*
D03*
Y2622049D02*
D03*
X1677167Y2700789D02*
D03*
Y2622049D02*
D03*
Y2543309D02*
D03*
X1598427Y2700789D02*
D03*
Y2622049D02*
D03*
Y2543309D02*
D03*
X1519686Y2700789D02*
D03*
Y2622049D02*
D03*
Y2543309D02*
D03*
X1440946Y2700789D02*
D03*
Y2622049D02*
D03*
Y2543309D02*
D03*
X1362206Y2700789D02*
D03*
Y2622049D02*
D03*
Y2543309D02*
D03*
X1283466Y2700789D02*
D03*
Y2622049D02*
D03*
Y2543309D02*
D03*
X1204726Y2700789D02*
D03*
Y2622049D02*
D03*
Y2543309D02*
D03*
X1125985Y3015750D02*
D03*
Y2937010D02*
D03*
Y2858270D02*
D03*
Y2779530D02*
D03*
Y2700789D02*
D03*
Y2622049D02*
D03*
Y2543309D02*
D03*
X1047245Y3015750D02*
D03*
Y2937010D02*
D03*
Y2858270D02*
D03*
Y2779530D02*
D03*
Y2700789D02*
D03*
Y2622049D02*
D03*
Y2543309D02*
D03*
X968505Y3015750D02*
D03*
Y2937010D02*
D03*
Y2858270D02*
D03*
Y2779530D02*
D03*
Y2700789D02*
D03*
Y2622049D02*
D03*
X889765Y3015750D02*
D03*
Y2937010D02*
D03*
Y2858270D02*
D03*
X811025Y3015750D02*
D03*
Y2937010D02*
D03*
Y2858270D02*
D03*
X732284Y3015750D02*
D03*
Y2937010D02*
D03*
Y2858270D02*
D03*
X653544D02*
D03*
X574804D02*
D03*
Y2779530D02*
D03*
Y2700789D02*
D03*
Y2622049D02*
D03*
Y2543309D02*
D03*
X6559059Y2700789D02*
D03*
Y2622049D02*
D03*
Y2543309D02*
D03*
Y2464569D02*
D03*
Y2385829D02*
D03*
Y2307088D02*
D03*
Y1913387D02*
D03*
Y1834647D02*
D03*
Y1755907D02*
D03*
X6480319Y2700789D02*
D03*
Y2622049D02*
D03*
Y2543309D02*
D03*
Y2307088D02*
D03*
X6401579Y2700789D02*
D03*
Y2622049D02*
D03*
Y2543309D02*
D03*
Y2307088D02*
D03*
X6322839Y2700789D02*
D03*
Y2622049D02*
D03*
Y2543309D02*
D03*
Y2307088D02*
D03*
Y1913387D02*
D03*
Y1755907D02*
D03*
X6244098Y2700789D02*
D03*
Y2622049D02*
D03*
Y2543309D02*
D03*
Y2307088D02*
D03*
Y2149608D02*
D03*
Y2070868D02*
D03*
Y1992128D02*
D03*
Y1913387D02*
D03*
X6165358Y2700789D02*
D03*
Y2622049D02*
D03*
Y2543309D02*
D03*
Y2307088D02*
D03*
Y2228348D02*
D03*
Y2149608D02*
D03*
Y2070868D02*
D03*
Y1992128D02*
D03*
Y1913387D02*
D03*
X6086618Y2700789D02*
D03*
Y2622049D02*
D03*
Y2543309D02*
D03*
Y2307088D02*
D03*
Y2228348D02*
D03*
Y2149608D02*
D03*
Y2070868D02*
D03*
Y1992128D02*
D03*
Y1913387D02*
D03*
X6007878Y2700789D02*
D03*
Y2622049D02*
D03*
Y2543309D02*
D03*
Y2307088D02*
D03*
Y2228348D02*
D03*
Y2149608D02*
D03*
Y2070868D02*
D03*
Y1992128D02*
D03*
Y1913387D02*
D03*
X5929138Y2700789D02*
D03*
Y2622049D02*
D03*
Y2543309D02*
D03*
Y2464569D02*
D03*
Y2385829D02*
D03*
Y2307088D02*
D03*
Y2228348D02*
D03*
Y2149608D02*
D03*
Y2070868D02*
D03*
Y1992128D02*
D03*
Y1913387D02*
D03*
X5850397Y2700789D02*
D03*
Y2622049D02*
D03*
Y2543309D02*
D03*
Y2464569D02*
D03*
Y2385829D02*
D03*
Y2149608D02*
D03*
Y2070868D02*
D03*
Y1913387D02*
D03*
X6559059Y3173231D02*
D03*
Y3094490D02*
D03*
Y3015750D02*
D03*
Y2937010D02*
D03*
X6480319D02*
D03*
X6401579D02*
D03*
X6322839D02*
D03*
X6244098Y3251971D02*
D03*
Y2937010D02*
D03*
X6165358Y3251971D02*
D03*
Y2937010D02*
D03*
X6086618Y3251971D02*
D03*
Y2937010D02*
D03*
X6007878Y3251971D02*
D03*
Y2937010D02*
D03*
X5929138Y3251971D02*
D03*
Y3173231D02*
D03*
Y3094490D02*
D03*
Y3015750D02*
D03*
Y2937010D02*
D03*
X5850397Y3251971D02*
D03*
Y3173231D02*
D03*
Y3094490D02*
D03*
Y3015750D02*
D03*
Y2937010D02*
D03*
X5771657Y3251971D02*
D03*
Y3173231D02*
D03*
Y3094490D02*
D03*
Y3015750D02*
D03*
Y2937010D02*
D03*
X5692917Y3251971D02*
D03*
Y3173231D02*
D03*
Y3094490D02*
D03*
Y3015750D02*
D03*
Y2937010D02*
D03*
X5614177Y3251971D02*
D03*
Y3173231D02*
D03*
Y3094490D02*
D03*
Y3015750D02*
D03*
Y2937010D02*
D03*
X5535437Y3251971D02*
D03*
Y3173231D02*
D03*
Y3094490D02*
D03*
Y3015750D02*
D03*
Y2937010D02*
D03*
X5456696Y3251971D02*
D03*
Y3094490D02*
D03*
Y2937010D02*
D03*
X5377956Y3251971D02*
D03*
Y3094490D02*
D03*
Y2937010D02*
D03*
Y2700789D02*
D03*
X5299216Y3251971D02*
D03*
Y3173231D02*
D03*
Y3094490D02*
D03*
Y3015750D02*
D03*
X5220476Y3251971D02*
D03*
Y2700789D02*
D03*
X5141736Y3251971D02*
D03*
Y3173231D02*
D03*
X5062995Y3251971D02*
D03*
Y3173231D02*
D03*
Y3094490D02*
D03*
X4984255Y3251971D02*
D03*
X4905515D02*
D03*
Y3173231D02*
D03*
Y3094490D02*
D03*
X4826775Y3251971D02*
D03*
Y3173231D02*
D03*
Y3094490D02*
D03*
X4748035Y3251971D02*
D03*
Y3173231D02*
D03*
Y3094490D02*
D03*
Y2307088D02*
D03*
Y2228348D02*
D03*
Y2149608D02*
D03*
Y2070868D02*
D03*
Y1992128D02*
D03*
X4669294Y3251971D02*
D03*
Y3173231D02*
D03*
Y3094490D02*
D03*
Y2700789D02*
D03*
Y2622049D02*
D03*
Y2543309D02*
D03*
Y2464569D02*
D03*
Y2385829D02*
D03*
Y2307088D02*
D03*
Y2228348D02*
D03*
Y2149608D02*
D03*
Y2070868D02*
D03*
Y1992128D02*
D03*
X4590554Y3251971D02*
D03*
Y3173231D02*
D03*
Y3094490D02*
D03*
Y2700789D02*
D03*
Y2622049D02*
D03*
Y2543309D02*
D03*
Y2149608D02*
D03*
X4511814Y3251971D02*
D03*
Y3173231D02*
D03*
Y3094490D02*
D03*
Y2700789D02*
D03*
Y2622049D02*
D03*
Y2543309D02*
D03*
Y2385829D02*
D03*
Y2307088D02*
D03*
Y2149608D02*
D03*
Y1992128D02*
D03*
X4433074Y3251971D02*
D03*
Y2700789D02*
D03*
Y2622049D02*
D03*
Y2543309D02*
D03*
Y2464569D02*
D03*
Y2385829D02*
D03*
Y2307088D02*
D03*
Y2228348D02*
D03*
Y2149608D02*
D03*
Y2070868D02*
D03*
Y1992128D02*
D03*
X4354334Y3251971D02*
D03*
Y3173231D02*
D03*
Y3094490D02*
D03*
Y2700789D02*
D03*
X4275593Y3251971D02*
D03*
Y3173231D02*
D03*
Y2700789D02*
D03*
X4196853Y3251971D02*
D03*
Y3173231D02*
D03*
Y2700789D02*
D03*
X4118113Y3251971D02*
D03*
Y3173231D02*
D03*
Y3094490D02*
D03*
Y3015750D02*
D03*
Y2937010D02*
D03*
Y2858270D02*
D03*
Y2779530D02*
D03*
Y2700789D02*
D03*
X5377956Y1362206D02*
D03*
Y1283466D02*
D03*
Y1204726D02*
D03*
Y889765D02*
D03*
Y811025D02*
D03*
Y732284D02*
D03*
Y653544D02*
D03*
Y574804D02*
D03*
X5299216Y1362206D02*
D03*
Y1283466D02*
D03*
Y1204726D02*
D03*
Y889765D02*
D03*
Y811025D02*
D03*
Y732284D02*
D03*
Y653544D02*
D03*
Y574804D02*
D03*
X5220476Y1362206D02*
D03*
Y1283466D02*
D03*
Y1204726D02*
D03*
Y889765D02*
D03*
Y811025D02*
D03*
Y732284D02*
D03*
Y653544D02*
D03*
Y574804D02*
D03*
X5141736Y1519686D02*
D03*
Y1440946D02*
D03*
Y1362206D02*
D03*
Y1283466D02*
D03*
Y1204726D02*
D03*
Y1125985D02*
D03*
Y1047245D02*
D03*
Y968505D02*
D03*
Y889765D02*
D03*
Y811025D02*
D03*
Y732284D02*
D03*
Y653544D02*
D03*
Y574804D02*
D03*
X5062995Y1519686D02*
D03*
Y1440946D02*
D03*
Y1362206D02*
D03*
Y1283466D02*
D03*
Y1204726D02*
D03*
Y1125985D02*
D03*
Y1047245D02*
D03*
Y968505D02*
D03*
Y889765D02*
D03*
Y811025D02*
D03*
Y732284D02*
D03*
Y653544D02*
D03*
Y574804D02*
D03*
X4984255Y1519686D02*
D03*
Y1440946D02*
D03*
Y1362206D02*
D03*
Y1283466D02*
D03*
Y1204726D02*
D03*
Y1125985D02*
D03*
Y1047245D02*
D03*
Y968505D02*
D03*
Y889765D02*
D03*
Y811025D02*
D03*
Y732284D02*
D03*
Y653544D02*
D03*
Y574804D02*
D03*
X4905515Y1519686D02*
D03*
Y1440946D02*
D03*
Y1362206D02*
D03*
Y1283466D02*
D03*
Y1204726D02*
D03*
Y1125985D02*
D03*
Y1047245D02*
D03*
Y968505D02*
D03*
Y889765D02*
D03*
Y811025D02*
D03*
Y732284D02*
D03*
Y653544D02*
D03*
Y574804D02*
D03*
X4826775Y1519686D02*
D03*
Y1440946D02*
D03*
Y1362206D02*
D03*
Y1283466D02*
D03*
Y1204726D02*
D03*
Y1125985D02*
D03*
Y1047245D02*
D03*
Y968505D02*
D03*
Y889765D02*
D03*
Y811025D02*
D03*
Y732284D02*
D03*
Y653544D02*
D03*
Y574804D02*
D03*
X4748035Y1519686D02*
D03*
Y1440946D02*
D03*
Y1362206D02*
D03*
Y1283466D02*
D03*
Y1204726D02*
D03*
Y1125985D02*
D03*
Y1047245D02*
D03*
Y968505D02*
D03*
Y889765D02*
D03*
Y811025D02*
D03*
Y732284D02*
D03*
Y653544D02*
D03*
Y574804D02*
D03*
X4669294Y1519686D02*
D03*
Y1440946D02*
D03*
Y1362206D02*
D03*
Y1283466D02*
D03*
Y1204726D02*
D03*
Y1125985D02*
D03*
Y1047245D02*
D03*
Y968505D02*
D03*
Y889765D02*
D03*
Y811025D02*
D03*
Y732284D02*
D03*
Y653544D02*
D03*
Y574804D02*
D03*
X4590554Y1755907D02*
D03*
Y1362206D02*
D03*
Y1125985D02*
D03*
Y1047245D02*
D03*
Y968505D02*
D03*
Y889765D02*
D03*
Y811025D02*
D03*
Y732284D02*
D03*
Y653544D02*
D03*
Y574804D02*
D03*
X4511814Y1755907D02*
D03*
Y1598427D02*
D03*
Y1519686D02*
D03*
Y1362206D02*
D03*
Y1204726D02*
D03*
Y1125985D02*
D03*
Y1047245D02*
D03*
Y968505D02*
D03*
Y889765D02*
D03*
Y811025D02*
D03*
Y732284D02*
D03*
Y653544D02*
D03*
X5066929Y2633858D02*
D03*
X2649606Y2409449D02*
D03*
X2090551Y1159193D02*
D03*
X5736221Y1782087D02*
D03*
X5649606Y2452756D02*
D03*
X5577923Y2451792D02*
D03*
X1393701Y1417323D02*
D03*
Y1362205D02*
D03*
X1937004Y1488186D02*
D03*
X1945589Y1256545D02*
D03*
X1976374Y1196848D02*
D03*
X2007874Y1618110D02*
D03*
X1834646Y846457D02*
D03*
X3334646Y980315D02*
D03*
X3159709Y669291D02*
D03*
X3629921Y3244095D02*
D03*
X3637795Y3326772D02*
D03*
X5641565Y1604331D02*
D03*
X2989220Y791762D02*
D03*
X4165354Y787402D02*
D03*
X5594488Y1858268D02*
D03*
X5540354Y1822835D02*
D03*
X5515748Y2251968D02*
D03*
X1643701Y1539370D02*
D03*
X2122047Y1350394D02*
D03*
Y1303150D02*
D03*
D112*
X5484252Y2021654D02*
D03*
Y2064961D02*
D03*
X5527559Y2021654D02*
D03*
Y2064961D02*
D03*
X5570866Y2021654D02*
D03*
Y2064961D02*
D03*
D113*
X196850Y3346457D02*
D03*
X6496063D02*
D03*
Y196850D02*
D03*
X196850D02*
D03*
D118*
X5412402Y1923228D02*
D03*
X5463583D02*
D03*
X5514764D02*
D03*
X5540354D02*
D03*
X5565945D02*
D03*
X5591535D02*
D03*
X5617126D02*
D03*
X5642717D02*
D03*
X5412402Y2163386D02*
D03*
X5463583D02*
D03*
X5514764D02*
D03*
X5540354D02*
D03*
X5565945D02*
D03*
X5591535D02*
D03*
X5617126D02*
D03*
X5642717D02*
D03*
D119*
X5527559Y2043307D02*
D03*
D120*
X173622Y2981102D02*
D03*
Y2729921D02*
D03*
D121*
X6220472Y3052067D02*
D03*
Y2412500D02*
D03*
D122*
X3221000Y576000D02*
D03*
X6062992Y901575D02*
D03*
X3049053Y911124D02*
D03*
X2874016D02*
D03*
X4165354Y653544D02*
D03*
X1984252Y1057992D02*
D03*
X944882Y1838750D02*
D03*
X2661194Y1593273D02*
D03*
X3803150Y3381890D02*
D03*
X5606299Y2637795D02*
D03*
X5564025Y2817865D02*
D03*
X5330709Y1645669D02*
D03*
X5102362Y1858268D02*
D03*
X5116142Y2094734D02*
D03*
X389764Y1301024D02*
D03*
X4979140Y2220472D02*
D03*
X1635507Y1862205D02*
D03*
X1901575Y2271653D02*
D03*
X1731946Y2270900D02*
D03*
X1623919Y2074695D02*
D03*
X1157480Y1822835D02*
D03*
X1290449Y1062992D02*
D03*
X3015748Y2881890D02*
D03*
X2606299Y1964567D02*
D03*
D123*
X478927Y2707758D02*
D03*
Y2536340D02*
D03*
D124*
X5303150Y1062992D02*
D03*
D125*
X5438976Y987992D02*
D03*
Y1037992D02*
D03*
Y1087992D02*
D03*
Y1137992D02*
D03*
X5222441D02*
D03*
Y1087992D02*
D03*
Y1037992D02*
D03*
Y987992D02*
D03*
D126*
X1429134Y929134D02*
D03*
Y761518D02*
D03*
Y593902D02*
D03*
X2255905Y1144002D02*
D03*
X2326541Y1692238D02*
D03*
X5744095Y2716535D02*
D03*
X1326772Y1893114D02*
D03*
Y2228347D02*
D03*
D127*
X6417323Y1148622D02*
D03*
X6448819Y2094734D02*
D03*
D128*
X2171535Y2257908D02*
D03*
Y2207908D02*
D03*
Y2157908D02*
D03*
X2588858Y2257908D02*
D03*
Y2207908D02*
D03*
Y2157908D02*
D03*
D129*
X2371417Y1356142D02*
D03*
X2670630Y1245906D02*
D03*
Y1356142D02*
D03*
X2371417Y1245906D02*
D03*
D130*
X2521023Y1291181D02*
D03*
D131*
X2385197Y1094331D02*
D03*
X2656850D02*
D03*
X2385197Y1393543D02*
D03*
X2656850D02*
D03*
D132*
X2418661Y1094331D02*
D03*
X2444252D02*
D03*
X2469842D02*
D03*
X2495433D02*
D03*
X2521023D02*
D03*
X2546614D02*
D03*
X2572205D02*
D03*
X2597795D02*
D03*
X2623386D02*
D03*
X2418661Y1393543D02*
D03*
X2623386D02*
D03*
X2597795D02*
D03*
X2572205D02*
D03*
X2546614D02*
D03*
X2521023D02*
D03*
X2495433D02*
D03*
X2469842D02*
D03*
X2444252D02*
D03*
D133*
X2670630Y1326614D02*
D03*
Y1301024D02*
D03*
Y1275433D02*
D03*
X2371417Y1326614D02*
D03*
Y1301024D02*
D03*
Y1275433D02*
D03*
D134*
X6448819Y1503937D02*
D03*
Y1803150D02*
D03*
D135*
X5488189Y1747278D02*
D03*
X5551181D02*
D03*
D136*
X5641900Y1776742D02*
D03*
Y1829892D02*
D03*
X5577923Y2328189D02*
D03*
Y2381338D02*
D03*
X3360000Y737425D02*
D03*
Y790575D02*
D03*
X2389596Y1553150D02*
D03*
Y1500000D02*
D03*
X2460630D02*
D03*
Y1553150D02*
D03*
D137*
X5736221Y1868110D02*
D03*
Y1958661D02*
D03*
D138*
X3651407Y837825D02*
D03*
Y787825D02*
D03*
X3899439Y837825D02*
D03*
Y787825D02*
D03*
D139*
X399606Y2924579D02*
D03*
X600394D02*
D03*
D140*
X2029636Y2055118D02*
D03*
D141*
X1791447Y1964567D02*
D03*
Y2145669D02*
D03*
D142*
X1944882Y1374016D02*
D03*
D143*
X2059055Y1551181D02*
D03*
Y1531496D02*
D03*
Y1511811D02*
D03*
Y1472441D02*
D03*
Y1433071D02*
D03*
Y1393701D02*
D03*
Y1354331D02*
D03*
Y1314961D02*
D03*
Y1275591D02*
D03*
Y1236220D02*
D03*
Y1216535D02*
D03*
Y1196850D02*
D03*
X1830709D02*
D03*
Y1216535D02*
D03*
Y1236220D02*
D03*
Y1255906D02*
D03*
Y1275591D02*
D03*
Y1295275D02*
D03*
Y1314961D02*
D03*
Y1334646D02*
D03*
Y1354331D02*
D03*
Y1374016D02*
D03*
Y1393701D02*
D03*
Y1413386D02*
D03*
Y1433071D02*
D03*
Y1452756D02*
D03*
Y1472441D02*
D03*
Y1492126D02*
D03*
Y1511811D02*
D03*
Y1531496D02*
D03*
Y1551181D02*
D03*
D144*
X2282480Y1566929D02*
D03*
Y1472441D02*
D03*
D145*
X726378Y1395535D02*
D03*
Y1495535D02*
D03*
X1076772D02*
D03*
Y1395535D02*
D03*
D146*
X2456693Y1696850D02*
D03*
Y1807087D02*
D03*
D147*
X5870079Y1624015D02*
D03*
Y1738189D02*
D03*
X5974577Y1624016D02*
D03*
Y1738189D02*
D03*
X6079075Y1624016D02*
D03*
Y1738189D02*
D03*
X6183573Y1624016D02*
D03*
Y1738189D02*
D03*
%TF.MD5,e33fcea0d7d97125a6360007fbc57814*%
M02*
