%TF.GenerationSoftware,Altium Limited,Altium Designer,19.0.10 (269)*%
G04 Layer_Color=255*
%FSLAX26Y26*%
%MOIN*%
%TF.FileFunction,Pads,Bot*%
%TF.Part,Single*%
G01*
G75*
%TA.AperFunction,SMDPad,CuDef*%
%ADD14R,0.055118X0.051181*%
%ADD15R,0.047244X0.064961*%
%ADD21R,0.033465X0.037402*%
%ADD25R,0.244095X0.147638*%
%ADD29R,0.037402X0.033465*%
%ADD30R,0.035433X0.039370*%
%ADD36R,0.045276X0.053150*%
%ADD46R,0.039370X0.025591*%
%TA.AperFunction,ComponentPad*%
%ADD55C,0.059055*%
%ADD56C,0.078740*%
%ADD57C,0.106299*%
%ADD58O,0.118110X0.059055*%
%ADD59C,0.060000*%
%ADD60C,0.055118*%
%ADD61C,0.007874*%
%ADD62O,0.059055X0.078740*%
%ADD63O,0.059055X0.118110*%
%ADD64C,0.098425*%
%TA.AperFunction,SMDPad,CuDef*%
%ADD70R,0.064961X0.047244*%
%ADD71R,0.053150X0.045276*%
%ADD72R,0.062992X0.137795*%
G04:AMPARAMS|DCode=73|XSize=45mil|YSize=80mil|CornerRadius=11.25mil|HoleSize=0mil|Usage=FLASHONLY|Rotation=0.000|XOffset=0mil|YOffset=0mil|HoleType=Round|Shape=RoundedRectangle|*
%AMROUNDEDRECTD73*
21,1,0.045000,0.057500,0,0,0.0*
21,1,0.022500,0.080000,0,0,0.0*
1,1,0.022500,0.011250,-0.028750*
1,1,0.022500,-0.011250,-0.028750*
1,1,0.022500,-0.011250,0.028750*
1,1,0.022500,0.011250,0.028750*
%
%ADD73ROUNDEDRECTD73*%
%ADD74R,0.102362X0.088583*%
%ADD75R,0.057087X0.053150*%
%ADD76R,0.051181X0.070866*%
%ADD77R,0.068898X0.100394*%
D14*
X2283465Y1464567D02*
D03*
Y1401575D02*
D03*
X2181102Y1437008D02*
D03*
Y1500000D02*
D03*
D15*
X2452756Y2303150D02*
D03*
X2562992D02*
D03*
D21*
X2104331Y1224409D02*
D03*
X2053150D02*
D03*
X2214567Y1169626D02*
D03*
X2265748D02*
D03*
X2214567Y1098593D02*
D03*
X2265748D02*
D03*
X1883858Y1105315D02*
D03*
X1832677D02*
D03*
X1832677Y1174695D02*
D03*
X1883858D02*
D03*
D25*
X2521023Y1291181D02*
D03*
D29*
X4003937Y1012205D02*
D03*
Y961024D02*
D03*
D30*
X1601378Y1456693D02*
D03*
X1654528D02*
D03*
X3375000Y876378D02*
D03*
X3428150D02*
D03*
D36*
X2148622Y2258858D02*
D03*
X2079724D02*
D03*
D46*
X2238189Y2409449D02*
D03*
X2328740D02*
D03*
D55*
X5377953Y2311024D02*
D03*
X5279528Y2507874D02*
D03*
X5476378D02*
D03*
D56*
X2197638Y2947244D02*
D03*
Y2547244D02*
D03*
X1897638Y2947244D02*
D03*
X2047638D02*
D03*
Y2547244D02*
D03*
X1897638D02*
D03*
X1747638Y2947244D02*
D03*
Y2547244D02*
D03*
D57*
X3104338Y1285819D02*
D03*
Y2285819D02*
D03*
D58*
X2980315Y1685827D02*
D03*
Y1785827D02*
D03*
Y1885827D02*
D03*
D59*
X350394Y2438189D02*
D03*
Y2320079D02*
D03*
Y2201968D02*
D03*
Y2083858D02*
D03*
D60*
X1165354Y1216535D02*
D03*
Y1316535D02*
D03*
X2121581Y1006299D02*
D03*
Y1106299D02*
D03*
D61*
X2409409Y1291181D02*
D03*
X2450748Y1228189D02*
D03*
Y1259685D02*
D03*
Y1291181D02*
D03*
Y1322677D02*
D03*
Y1354173D02*
D03*
X2497598D02*
D03*
Y1322677D02*
D03*
Y1291181D02*
D03*
Y1259685D02*
D03*
Y1228189D02*
D03*
X2544449D02*
D03*
Y1259685D02*
D03*
Y1291181D02*
D03*
Y1322677D02*
D03*
Y1354173D02*
D03*
X2591299D02*
D03*
Y1322677D02*
D03*
Y1291181D02*
D03*
Y1259685D02*
D03*
Y1228189D02*
D03*
X2632638Y1291181D02*
D03*
D62*
X925197Y2491340D02*
D03*
X728346D02*
D03*
D63*
X5192126Y2892697D02*
D03*
X5092126D02*
D03*
X4992126D02*
D03*
X4232126D02*
D03*
X4332126D02*
D03*
X4432126D02*
D03*
D64*
X4570541Y2456546D02*
D03*
Y2256546D02*
D03*
Y2056546D02*
D03*
Y1856545D02*
D03*
Y1656545D02*
D03*
Y1456545D02*
D03*
Y1256545D02*
D03*
X3570541D02*
D03*
Y1456545D02*
D03*
Y1656545D02*
D03*
Y2056546D02*
D03*
Y2256546D02*
D03*
Y2456546D02*
D03*
D70*
X2281329Y909449D02*
D03*
Y1019685D02*
D03*
X1077953Y2265354D02*
D03*
Y2375590D02*
D03*
D71*
X1834646Y971457D02*
D03*
Y902559D02*
D03*
D72*
X738189Y2700787D02*
D03*
X891732D02*
D03*
X739764Y2368504D02*
D03*
X893307D02*
D03*
X739764Y2192126D02*
D03*
X893307D02*
D03*
X737008Y2019685D02*
D03*
X890551D02*
D03*
D73*
X3875236Y873874D02*
D03*
Y1073874D02*
D03*
X3610236D02*
D03*
Y873874D02*
D03*
D74*
X4968504Y2669685D02*
D03*
Y2529921D02*
D03*
D75*
X1321732Y2258858D02*
D03*
Y2142717D02*
D03*
X1195748Y2258858D02*
D03*
Y2142717D02*
D03*
D76*
X2561024Y2409449D02*
D03*
X2446850D02*
D03*
D77*
X2590551Y1991929D02*
D03*
Y2141929D02*
D03*
%TF.MD5,279afd6e89bdcf32b1a372cfbf7753eb*%
M02*
