G04*
G04 #@! TF.GenerationSoftware,Altium Limited,Altium Designer,19.0.15 (446)*
G04*
G04 Layer_Physical_Order=4*
G04 Layer_Color=16711680*
%FSLAX25Y25*%
%MOIN*%
G70*
G01*
G75*
%ADD10C,0.01000*%
%ADD12C,0.02362*%
%ADD61C,0.00787*%
%ADD67C,0.04724*%
%ADD72R,0.03347X0.03740*%
%ADD79R,0.24410X0.14764*%
%ADD83R,0.03740X0.03347*%
%ADD84R,0.03543X0.03937*%
%ADD92R,0.04528X0.05315*%
%ADD103R,0.04724X0.06496*%
%ADD104R,0.05512X0.05118*%
%ADD106R,0.03937X0.02559*%
%ADD107C,0.01575*%
%ADD111C,0.01200*%
%ADD113C,0.06000*%
%ADD114O,0.11811X0.05906*%
%ADD115C,0.05512*%
%ADD116O,0.05906X0.07874*%
%ADD117O,0.05906X0.11811*%
%ADD118C,0.09843*%
%ADD119C,0.07874*%
%ADD120C,0.03000*%
%ADD121C,0.01968*%
%ADD122C,0.19685*%
%ADD124R,0.06496X0.04724*%
%ADD125R,0.05315X0.04528*%
%ADD126R,0.06299X0.13780*%
G04:AMPARAMS|DCode=127|XSize=45mil|YSize=80mil|CornerRadius=11.25mil|HoleSize=0mil|Usage=FLASHONLY|Rotation=0.000|XOffset=0mil|YOffset=0mil|HoleType=Round|Shape=RoundedRectangle|*
%AMROUNDEDRECTD127*
21,1,0.04500,0.05750,0,0,0.0*
21,1,0.02250,0.08000,0,0,0.0*
1,1,0.02250,0.01125,-0.02875*
1,1,0.02250,-0.01125,-0.02875*
1,1,0.02250,-0.01125,0.02875*
1,1,0.02250,0.01125,0.02875*
%
%ADD127ROUNDEDRECTD127*%
%ADD128R,0.10236X0.08858*%
%ADD129R,0.05709X0.05315*%
%ADD130R,0.05118X0.07087*%
%ADD131R,0.06890X0.10039*%
%ADD132C,0.02500*%
G36*
X40551Y238937D02*
X24170D01*
X23966Y239319D01*
X23078Y240401D01*
X21996Y241288D01*
X20763Y241948D01*
X19424Y242354D01*
X18032Y242491D01*
X16639Y242354D01*
X15300Y241948D01*
X14067Y241288D01*
X12985Y240401D01*
X12098Y239319D01*
X11893Y238937D01*
X5433D01*
Y284370D01*
X40551D01*
Y238937D01*
D02*
G37*
G36*
X116929Y276772D02*
X166661D01*
X167215Y276499D01*
X169658Y275669D01*
X172189Y275166D01*
X174764Y274997D01*
X177339Y275166D01*
X179870Y275669D01*
X182264Y276482D01*
X184658Y275669D01*
X187189Y275166D01*
X189764Y274997D01*
X192339Y275166D01*
X194870Y275669D01*
X197313Y276499D01*
X197866Y276772D01*
X368504D01*
Y196457D01*
X344882D01*
Y246850D01*
X222058D01*
Y250331D01*
X222254Y250412D01*
X223285Y251203D01*
X224076Y252235D01*
X224574Y253436D01*
X224743Y254724D01*
X224574Y256013D01*
X224076Y257214D01*
X223285Y258245D01*
X222254Y259037D01*
X221053Y259534D01*
X219764Y259704D01*
X218475Y259534D01*
X217274Y259037D01*
X216243Y258245D01*
X215451Y257214D01*
X214954Y256013D01*
X214784Y254724D01*
X214954Y253436D01*
X215451Y252235D01*
X216243Y251203D01*
X217274Y250412D01*
X217470Y250331D01*
Y246850D01*
X96341D01*
X100000Y243191D01*
Y193465D01*
X83039D01*
X82909Y193622D01*
Y246850D01*
Y282008D01*
X82832Y282398D01*
X82611Y282729D01*
X82280Y282950D01*
X81890Y283028D01*
X63386D01*
X62996Y282950D01*
X62665Y282729D01*
X62444Y282398D01*
X62366Y282008D01*
Y246850D01*
X50000D01*
Y308661D01*
X116929D01*
Y276772D01*
D02*
G37*
G36*
X81890Y193622D02*
X78196D01*
X77850Y194079D01*
X77850Y194222D01*
Y201468D01*
X73701D01*
X69551D01*
Y194222D01*
X69551Y194079D01*
X69205Y193622D01*
X63386D01*
Y282008D01*
X81890D01*
Y193622D01*
D02*
G37*
G36*
X365748Y123622D02*
X344488Y102362D01*
X265311D01*
Y115748D01*
X274016D01*
X280315Y122047D01*
Y154921D01*
X289567Y164173D01*
Y173228D01*
X365748D01*
X365748Y123622D01*
D02*
G37*
G36*
X264291Y100614D02*
X259347Y95669D01*
X220866Y95669D01*
Y106989D01*
X226075D01*
Y109859D01*
Y112729D01*
X220946D01*
X220866Y112810D01*
Y114093D01*
X226075D01*
Y116963D01*
Y119833D01*
X223766D01*
X223537Y120387D01*
X239764Y136614D01*
X264291D01*
Y100614D01*
D02*
G37*
G36*
X264173Y79176D02*
X215373D01*
X208661Y85887D01*
Y94488D01*
X223360D01*
X223885Y94307D01*
X223885Y93888D01*
Y91445D01*
X232381D01*
Y93888D01*
X232381Y94307D01*
X232906Y94488D01*
X264173D01*
Y79176D01*
D02*
G37*
G36*
X664567Y288976D02*
X546850Y288976D01*
X546850Y270624D01*
X546664Y269685D01*
X546850Y268746D01*
Y268110D01*
X520232D01*
Y275358D01*
X527953D01*
X528343Y275436D01*
X528674Y275657D01*
X528895Y275988D01*
X528972Y276378D01*
Y300022D01*
X528953Y300120D01*
Y300221D01*
X528914Y300313D01*
X528895Y300412D01*
X528839Y300495D01*
X528800Y300588D01*
X528521Y301007D01*
X528491Y301079D01*
X528471Y301178D01*
X528415Y301261D01*
X528377Y301354D01*
X528306Y301425D01*
X528250Y301508D01*
X528167Y301564D01*
X528096Y301635D01*
X528003Y301674D01*
X527919Y301729D01*
X527821Y301749D01*
X527728Y301787D01*
X527628D01*
X527529Y301807D01*
X414567D01*
X414177Y301729D01*
X413846Y301508D01*
X413625Y301178D01*
X413547Y300787D01*
Y275590D01*
X413625Y275200D01*
X413846Y274870D01*
X414177Y274649D01*
X414567Y274571D01*
X475752D01*
Y259842D01*
X475830Y259452D01*
X475910Y259333D01*
X475830Y259213D01*
X475752Y258823D01*
Y237008D01*
X475830Y236618D01*
X476051Y236287D01*
X476378Y236068D01*
Y197072D01*
X466314Y197072D01*
X436614Y197072D01*
Y268504D01*
X408661Y268504D01*
Y337008D01*
X638538D01*
X638910Y336537D01*
X638864Y336347D01*
X638730Y334646D01*
X638864Y332944D01*
X639263Y331285D01*
X639916Y329708D01*
X640807Y328253D01*
X641916Y326955D01*
X643214Y325847D01*
X644669Y324955D01*
X646245Y324302D01*
X647905Y323903D01*
X649606Y323770D01*
X651308Y323903D01*
X652967Y324302D01*
X654544Y324955D01*
X655999Y325847D01*
X657297Y326955D01*
X658405Y328253D01*
X659297Y329708D01*
X659950Y331285D01*
X660348Y332944D01*
X660482Y334646D01*
X660348Y336347D01*
X660303Y336537D01*
X660674Y337008D01*
X664567D01*
X664567Y288976D01*
D02*
G37*
G36*
X527567Y300600D02*
X527953Y300022D01*
Y276378D01*
X519213D01*
Y259842D01*
X476772D01*
Y275590D01*
X414567D01*
Y300787D01*
X527529D01*
X527567Y300600D01*
D02*
G37*
G36*
X519213Y237008D02*
X476772D01*
Y258823D01*
X490299D01*
X490732Y258421D01*
X490732Y258223D01*
Y253492D01*
X502969D01*
Y258223D01*
X502969Y258421D01*
X503402Y258823D01*
X519213D01*
Y237008D01*
D02*
G37*
G36*
X664534Y168342D02*
X580725D01*
X580676Y168383D01*
X580676Y276338D01*
X664534Y276338D01*
X664534Y168342D01*
D02*
G37*
G36*
X664567Y166511D02*
X663967Y166059D01*
X663779Y166096D01*
X581342D01*
X580716Y166723D01*
X580725Y167323D01*
X664567D01*
Y166511D01*
D02*
G37*
G36*
X466142Y155905D02*
X542913Y155905D01*
X542913Y55512D01*
X451769Y55512D01*
X448425Y58856D01*
Y193307D01*
X466142D01*
X466142Y155905D01*
D02*
G37*
G36*
X663825Y162359D02*
Y88189D01*
X582677D01*
Y55189D01*
X544399Y55189D01*
X543933Y55789D01*
X543933Y155599D01*
X580709D01*
Y163038D01*
X663146D01*
X663825Y162359D01*
D02*
G37*
%LPC*%
G36*
X35539Y247788D02*
Y244319D01*
X39008D01*
X38936Y244863D01*
X38533Y245836D01*
X37892Y246672D01*
X37057Y247313D01*
X36084Y247716D01*
X35539Y247788D01*
D02*
G37*
G36*
X34539D02*
X33995Y247716D01*
X33022Y247313D01*
X32186Y246672D01*
X31545Y245836D01*
X31142Y244863D01*
X31071Y244319D01*
X34539D01*
Y247788D01*
D02*
G37*
G36*
X39008Y243319D02*
X35539D01*
Y239850D01*
X36084Y239922D01*
X37057Y240325D01*
X37892Y240966D01*
X38533Y241802D01*
X38936Y242775D01*
X39008Y243319D01*
D02*
G37*
G36*
X34539D02*
X31071D01*
X31142Y242775D01*
X31545Y241802D01*
X32186Y240966D01*
X33022Y240325D01*
X33995Y239922D01*
X34539Y239850D01*
Y243319D01*
D02*
G37*
G36*
X93323Y277969D02*
X89673D01*
Y270579D01*
X93323D01*
Y277969D01*
D02*
G37*
G36*
X88673D02*
X85024D01*
Y270579D01*
X88673D01*
Y277969D01*
D02*
G37*
G36*
X93323Y269579D02*
X89673D01*
Y262189D01*
X93323D01*
Y269579D01*
D02*
G37*
G36*
X88673D02*
X85024D01*
Y262189D01*
X88673D01*
Y269579D01*
D02*
G37*
G36*
X175264Y259638D02*
Y255224D01*
X179678D01*
X179574Y256013D01*
X179076Y257214D01*
X178285Y258245D01*
X177254Y259037D01*
X176053Y259534D01*
X175264Y259638D01*
D02*
G37*
G36*
X174264D02*
X173475Y259534D01*
X172274Y259037D01*
X171243Y258245D01*
X170451Y257214D01*
X169954Y256013D01*
X169850Y255224D01*
X174264D01*
Y259638D01*
D02*
G37*
G36*
X94201Y258055D02*
Y253650D01*
X97688D01*
Y254134D01*
X97552Y255166D01*
X97154Y256127D01*
X96520Y256953D01*
X95694Y257587D01*
X94733Y257985D01*
X94201Y258055D01*
D02*
G37*
G36*
X93201D02*
X92669Y257985D01*
X91707Y257587D01*
X90882Y256953D01*
X90248Y256127D01*
X89850Y255166D01*
X89714Y254134D01*
Y253650D01*
X93201D01*
Y258055D01*
D02*
G37*
G36*
X174264Y254224D02*
X169850D01*
X169954Y253436D01*
X170451Y252235D01*
X171243Y251203D01*
X172274Y250412D01*
X173475Y249915D01*
X174264Y249811D01*
Y254224D01*
D02*
G37*
G36*
X179678D02*
X175264D01*
Y249811D01*
X176053Y249915D01*
X177254Y250412D01*
X178285Y251203D01*
X179076Y252235D01*
X179574Y253436D01*
X179678Y254224D01*
D02*
G37*
G36*
X204764Y259704D02*
X203475Y259534D01*
X202274Y259037D01*
X201243Y258245D01*
X200451Y257214D01*
X199954Y256013D01*
X199784Y254724D01*
X199954Y253436D01*
X200451Y252235D01*
X201243Y251203D01*
X202274Y250412D01*
X203475Y249915D01*
X204764Y249745D01*
X206053Y249915D01*
X207254Y250412D01*
X208285Y251203D01*
X209076Y252235D01*
X209574Y253436D01*
X209743Y254724D01*
X209574Y256013D01*
X209076Y257214D01*
X208285Y258245D01*
X207254Y259037D01*
X206053Y259534D01*
X204764Y259704D01*
D02*
G37*
G36*
X189764D02*
X188475Y259534D01*
X187274Y259037D01*
X186243Y258245D01*
X185451Y257214D01*
X184954Y256013D01*
X184784Y254724D01*
X184954Y253436D01*
X185451Y252235D01*
X186243Y251203D01*
X187274Y250412D01*
X188475Y249915D01*
X189764Y249745D01*
X191053Y249915D01*
X192254Y250412D01*
X193285Y251203D01*
X194076Y252235D01*
X194574Y253436D01*
X194743Y254724D01*
X194574Y256013D01*
X194076Y257214D01*
X193285Y258245D01*
X192254Y259037D01*
X191053Y259534D01*
X189764Y259704D01*
D02*
G37*
G36*
X97688Y252650D02*
X94201D01*
Y248244D01*
X94733Y248314D01*
D01*
X95694Y248713D01*
X96520Y249346D01*
X97154Y250172D01*
X97552Y251133D01*
X97688Y252165D01*
Y252650D01*
D02*
G37*
G36*
X93201D02*
X89714D01*
Y252165D01*
X89850Y251133D01*
X90248Y250172D01*
X90882Y249346D01*
X91707Y248713D01*
X92669Y248314D01*
X93201Y248244D01*
Y252650D01*
D02*
G37*
G36*
X357554Y251555D02*
Y246155D01*
X362955D01*
X362890Y246815D01*
X362551Y247932D01*
X362001Y248960D01*
X361261Y249862D01*
X360360Y250602D01*
X359331Y251151D01*
X358215Y251490D01*
X357554Y251555D01*
D02*
G37*
G36*
X356554D02*
X355893Y251490D01*
X354777Y251151D01*
X353748Y250602D01*
X352847Y249862D01*
X352107Y248960D01*
X351557Y247932D01*
X351219Y246815D01*
X351153Y246155D01*
X356554D01*
Y251555D01*
D02*
G37*
G36*
Y245155D02*
X351153D01*
X351219Y244494D01*
X351557Y243378D01*
X352107Y242349D01*
X352847Y241447D01*
X353748Y240707D01*
X354777Y240158D01*
X355893Y239819D01*
X356554Y239754D01*
Y245155D01*
D02*
G37*
G36*
X362955D02*
X357554D01*
Y239754D01*
X358215Y239819D01*
X359331Y240158D01*
X360360Y240707D01*
X361261Y241447D01*
X362001Y242349D01*
X362551Y243378D01*
X362890Y244494D01*
X362955Y245155D01*
D02*
G37*
G36*
X93480Y244740D02*
X89831D01*
Y237350D01*
X93480D01*
Y244740D01*
D02*
G37*
G36*
X88831D02*
X85181D01*
Y237350D01*
X88831D01*
Y244740D01*
D02*
G37*
G36*
X93480Y236350D02*
X89831D01*
Y228961D01*
X93480D01*
Y236350D01*
D02*
G37*
G36*
X88831D02*
X85181D01*
Y228961D01*
X88831D01*
Y236350D01*
D02*
G37*
G36*
X357554Y231555D02*
Y226155D01*
X362955D01*
X362890Y226815D01*
X362551Y227931D01*
X362001Y228960D01*
X361261Y229862D01*
X360360Y230602D01*
X359331Y231152D01*
X358215Y231490D01*
X357554Y231555D01*
D02*
G37*
G36*
X356554D02*
X355893Y231490D01*
X354777Y231152D01*
X353748Y230602D01*
X352847Y229862D01*
X352107Y228960D01*
X351557Y227931D01*
X351219Y226815D01*
X351153Y226155D01*
X356554D01*
Y231555D01*
D02*
G37*
G36*
Y225155D02*
X351153D01*
X351219Y224494D01*
X351557Y223378D01*
X352107Y222349D01*
X352847Y221447D01*
X353748Y220707D01*
X354777Y220158D01*
X355893Y219819D01*
X356554Y219754D01*
Y225155D01*
D02*
G37*
G36*
X362955D02*
X357554D01*
Y219754D01*
X358215Y219819D01*
X359331Y220158D01*
X360360Y220707D01*
X361261Y221447D01*
X362001Y222349D01*
X362551Y223378D01*
X362890Y224494D01*
X362955Y225155D01*
D02*
G37*
G36*
X93480Y227102D02*
X89831D01*
Y219713D01*
X93480D01*
Y227102D01*
D02*
G37*
G36*
X88831D02*
X85181D01*
Y219713D01*
X88831D01*
Y227102D01*
D02*
G37*
G36*
X93480Y218713D02*
X89831D01*
Y211323D01*
X93480D01*
Y218713D01*
D02*
G37*
G36*
X88831D02*
X85181D01*
Y211323D01*
X88831D01*
Y218713D01*
D02*
G37*
G36*
X357554Y211555D02*
Y206155D01*
X362955D01*
X362890Y206815D01*
X362551Y207931D01*
X362001Y208960D01*
X361261Y209862D01*
X360360Y210602D01*
X359331Y211152D01*
X358215Y211490D01*
X357554Y211555D01*
D02*
G37*
G36*
X356554D02*
X355893Y211490D01*
X354777Y211152D01*
X353748Y210602D01*
X352847Y209862D01*
X352107Y208960D01*
X351557Y207931D01*
X351219Y206815D01*
X351153Y206155D01*
X356554D01*
Y211555D01*
D02*
G37*
G36*
X93205Y209858D02*
X89555D01*
Y202468D01*
X93205D01*
Y209858D01*
D02*
G37*
G36*
X88555D02*
X84905D01*
Y202468D01*
X88555D01*
Y209858D01*
D02*
G37*
G36*
X356554Y205155D02*
X351153D01*
X351219Y204494D01*
X351557Y203378D01*
X352107Y202349D01*
X352847Y201447D01*
X353748Y200707D01*
X354777Y200157D01*
X355893Y199819D01*
X356554Y199754D01*
Y205155D01*
D02*
G37*
G36*
X362955D02*
X357554D01*
Y199754D01*
X358215Y199819D01*
X359331Y200157D01*
X360360Y200707D01*
X361261Y201447D01*
X362001Y202349D01*
X362551Y203378D01*
X362890Y204494D01*
X362955Y205155D01*
D02*
G37*
G36*
X93205Y201468D02*
X89555D01*
Y194079D01*
X93205D01*
Y201468D01*
D02*
G37*
G36*
X88555D02*
X84905D01*
Y194079D01*
X88555D01*
Y201468D01*
D02*
G37*
G36*
X77969Y277969D02*
X74319D01*
Y270579D01*
X77969D01*
Y277969D01*
D02*
G37*
G36*
X73319D02*
X69669D01*
Y270579D01*
X73319D01*
Y277969D01*
D02*
G37*
G36*
X77969Y269579D02*
X74319D01*
Y262189D01*
X77969D01*
Y269579D01*
D02*
G37*
G36*
X73319D02*
X69669D01*
Y262189D01*
X73319D01*
Y269579D01*
D02*
G37*
G36*
X74516Y258055D02*
Y253650D01*
X78003D01*
Y254134D01*
X77867Y255166D01*
X77469Y256127D01*
X76835Y256953D01*
X76009Y257587D01*
X75048Y257985D01*
X74516Y258055D01*
D02*
G37*
G36*
X73516D02*
X72984Y257985D01*
X72022Y257587D01*
X71197Y256953D01*
X70563Y256127D01*
X70165Y255166D01*
X70029Y254134D01*
Y253650D01*
X73516D01*
Y258055D01*
D02*
G37*
G36*
X78003Y252650D02*
X74516D01*
Y248244D01*
X75048Y248314D01*
X76009Y248713D01*
X76835Y249346D01*
X77469Y250172D01*
X77867Y251133D01*
X78003Y252165D01*
Y252650D01*
D02*
G37*
G36*
X73516D02*
X70029D01*
Y252165D01*
X70165Y251133D01*
X70563Y250172D01*
X71197Y249346D01*
X72022Y248713D01*
X72984Y248314D01*
X73516Y248244D01*
Y252650D01*
D02*
G37*
G36*
X78126Y244740D02*
X74476D01*
Y237350D01*
X78126D01*
Y244740D01*
D02*
G37*
G36*
X73476D02*
X69827D01*
Y237350D01*
X73476D01*
Y244740D01*
D02*
G37*
G36*
X78126Y236350D02*
X74476D01*
Y228961D01*
X78126D01*
Y236350D01*
D02*
G37*
G36*
X73476D02*
X69827D01*
Y228961D01*
X73476D01*
Y236350D01*
D02*
G37*
G36*
X78126Y227102D02*
X74476D01*
Y219713D01*
X78126D01*
Y227102D01*
D02*
G37*
G36*
X73476D02*
X69827D01*
Y219713D01*
X73476D01*
Y227102D01*
D02*
G37*
G36*
X78126Y218713D02*
X74476D01*
Y211323D01*
X78126D01*
Y218713D01*
D02*
G37*
G36*
X73476D02*
X69827D01*
Y211323D01*
X73476D01*
Y218713D01*
D02*
G37*
G36*
X77850Y209858D02*
X74201D01*
Y202468D01*
X77850D01*
Y209858D01*
D02*
G37*
G36*
X73201D02*
X69551D01*
Y202468D01*
X73201D01*
Y209858D01*
D02*
G37*
G36*
X300984Y172570D02*
X298532D01*
Y169083D01*
X304905D01*
X304835Y169615D01*
X304437Y170576D01*
X303803Y171402D01*
X302978Y172035D01*
X302016Y172434D01*
X300984Y172570D01*
D02*
G37*
G36*
X297532D02*
X295079D01*
X294047Y172434D01*
X293085Y172035D01*
X292260Y171402D01*
X291626Y170576D01*
X291228Y169615D01*
X291158Y169083D01*
X297532D01*
Y172570D01*
D02*
G37*
G36*
X357554Y171555D02*
Y166155D01*
X362955D01*
X362890Y166815D01*
X362551Y167931D01*
X362001Y168960D01*
X361261Y169862D01*
X360360Y170602D01*
X359331Y171151D01*
X358215Y171490D01*
X357554Y171555D01*
D02*
G37*
G36*
X356554D02*
X355893Y171490D01*
X354777Y171151D01*
X353748Y170602D01*
X352847Y169862D01*
X352107Y168960D01*
X351557Y167931D01*
X351219Y166815D01*
X351153Y166155D01*
X356554D01*
Y171555D01*
D02*
G37*
G36*
X304905Y168083D02*
X298532D01*
Y164596D01*
X300984D01*
X302016Y164732D01*
X302978Y165130D01*
X303803Y165763D01*
X304437Y166589D01*
X304835Y167551D01*
X304905Y168083D01*
D02*
G37*
G36*
X297532D02*
X291158D01*
X291228Y167551D01*
X291626Y166589D01*
X292260Y165763D01*
X293085Y165130D01*
X294047Y164732D01*
X295079Y164596D01*
X297532D01*
Y168083D01*
D02*
G37*
G36*
X356554Y165155D02*
X351153D01*
X351219Y164494D01*
X351557Y163378D01*
X352107Y162349D01*
X352847Y161447D01*
X353748Y160707D01*
X354777Y160158D01*
X355893Y159819D01*
X356554Y159754D01*
Y165155D01*
D02*
G37*
G36*
X362955D02*
X357554D01*
Y159754D01*
X358215Y159819D01*
X359331Y160158D01*
X360360Y160707D01*
X361261Y161447D01*
X362001Y162349D01*
X362551Y163378D01*
X362890Y164494D01*
X362955Y165155D01*
D02*
G37*
G36*
X357554Y151555D02*
Y146155D01*
X362955D01*
X362890Y146815D01*
X362551Y147932D01*
X362001Y148960D01*
X361261Y149862D01*
X360360Y150602D01*
X359331Y151152D01*
X358215Y151490D01*
X357554Y151555D01*
D02*
G37*
G36*
X356554D02*
X355893Y151490D01*
X354777Y151152D01*
X353748Y150602D01*
X352847Y149862D01*
X352107Y148960D01*
X351557Y147932D01*
X351219Y146815D01*
X351153Y146155D01*
X356554D01*
Y151555D01*
D02*
G37*
G36*
Y145155D02*
X351153D01*
X351219Y144494D01*
X351557Y143378D01*
X352107Y142349D01*
X352847Y141447D01*
X353748Y140707D01*
X354777Y140157D01*
X355893Y139819D01*
X356554Y139754D01*
Y145155D01*
D02*
G37*
G36*
X362955D02*
X357554D01*
Y139754D01*
X358215Y139819D01*
X359331Y140157D01*
X360360Y140707D01*
X361261Y141447D01*
X362001Y142349D01*
X362551Y143378D01*
X362890Y144494D01*
X362955Y145155D01*
D02*
G37*
G36*
X357554Y131555D02*
Y126155D01*
X362955D01*
X362890Y126815D01*
X362551Y127931D01*
X362001Y128960D01*
X361261Y129862D01*
X360360Y130602D01*
X359331Y131151D01*
X358215Y131490D01*
X357554Y131555D01*
D02*
G37*
G36*
X356554D02*
X355893Y131490D01*
X354777Y131151D01*
X353748Y130602D01*
X352847Y129862D01*
X352107Y128960D01*
X351557Y127931D01*
X351219Y126815D01*
X351153Y126155D01*
X356554D01*
Y131555D01*
D02*
G37*
G36*
Y125155D02*
X351153D01*
X351219Y124494D01*
X351557Y123378D01*
X352107Y122349D01*
X352847Y121447D01*
X353748Y120707D01*
X354777Y120158D01*
X355893Y119819D01*
X356554Y119754D01*
Y125155D01*
D02*
G37*
G36*
X362955D02*
X357554D01*
Y119754D01*
X358215Y119819D01*
X359331Y120158D01*
X360360Y120707D01*
X361261Y121447D01*
X362001Y122349D01*
X362551Y123378D01*
X362890Y124494D01*
X362955Y125155D01*
D02*
G37*
G36*
X229248Y119833D02*
X227075D01*
Y117463D01*
X229248D01*
Y119833D01*
D02*
G37*
G36*
Y116463D02*
X227075D01*
Y114093D01*
X229248D01*
Y116463D01*
D02*
G37*
G36*
Y112729D02*
X227075D01*
Y110359D01*
X229248D01*
Y112729D01*
D02*
G37*
G36*
Y109359D02*
X227075D01*
Y106989D01*
X229248D01*
Y109359D01*
D02*
G37*
G36*
X232381Y90445D02*
X228633D01*
Y87583D01*
X232381D01*
Y90445D01*
D02*
G37*
G36*
X227633D02*
X223885D01*
Y87583D01*
X227633D01*
Y90445D01*
D02*
G37*
G36*
X541212Y303627D02*
X539972Y303464D01*
X538816Y302985D01*
X537824Y302224D01*
X537063Y301232D01*
X536584Y300076D01*
X536421Y298836D01*
X536584Y297596D01*
X537063Y296441D01*
X537824Y295448D01*
X538816Y294687D01*
X539972Y294208D01*
X541212Y294045D01*
X542452Y294208D01*
X543607Y294687D01*
X544599Y295448D01*
X545361Y296441D01*
X545840Y297596D01*
X546003Y298836D01*
X545840Y300076D01*
X545361Y301232D01*
X544599Y302224D01*
X543607Y302985D01*
X542452Y303464D01*
X541212Y303627D01*
D02*
G37*
G36*
X457554Y251555D02*
Y246155D01*
X462955D01*
X462890Y246815D01*
X462551Y247932D01*
X462001Y248960D01*
X461261Y249862D01*
X460360Y250602D01*
X459331Y251151D01*
X458215Y251490D01*
X457554Y251555D01*
D02*
G37*
G36*
X456554D02*
X455893Y251490D01*
X454777Y251151D01*
X453749Y250602D01*
X452847Y249862D01*
X452107Y248960D01*
X451557Y247932D01*
X451219Y246815D01*
X451154Y246155D01*
X456554D01*
Y251555D01*
D02*
G37*
G36*
Y245155D02*
X451154D01*
X451219Y244494D01*
X451557Y243378D01*
X452107Y242349D01*
X452847Y241447D01*
X453749Y240707D01*
X454777Y240158D01*
X455893Y239819D01*
X456554Y239754D01*
Y245155D01*
D02*
G37*
G36*
X462955D02*
X457554D01*
Y239754D01*
X458215Y239819D01*
X459331Y240158D01*
X460360Y240707D01*
X461261Y241447D01*
X462001Y242349D01*
X462551Y243378D01*
X462890Y244494D01*
X462955Y245155D01*
D02*
G37*
G36*
X457554Y231555D02*
Y226155D01*
X462955D01*
X462890Y226815D01*
X462551Y227931D01*
X462001Y228960D01*
X461261Y229862D01*
X460360Y230602D01*
X459331Y231152D01*
X458215Y231490D01*
X457554Y231555D01*
D02*
G37*
G36*
X456554D02*
X455893Y231490D01*
X454777Y231152D01*
X453749Y230602D01*
X452847Y229862D01*
X452107Y228960D01*
X451557Y227931D01*
X451219Y226815D01*
X451154Y226155D01*
X456554D01*
Y231555D01*
D02*
G37*
G36*
Y225155D02*
X451154D01*
X451219Y224494D01*
X451557Y223378D01*
X452107Y222349D01*
X452847Y221447D01*
X453749Y220707D01*
X454777Y220158D01*
X455893Y219819D01*
X456554Y219754D01*
Y225155D01*
D02*
G37*
G36*
X462955D02*
X457554D01*
Y219754D01*
X458215Y219819D01*
X459331Y220158D01*
X460360Y220707D01*
X461261Y221447D01*
X462001Y222349D01*
X462551Y223378D01*
X462890Y224494D01*
X462955Y225155D01*
D02*
G37*
G36*
X457554Y211555D02*
Y206155D01*
X462955D01*
X462890Y206815D01*
X462551Y207931D01*
X462001Y208960D01*
X461261Y209862D01*
X460360Y210602D01*
X459331Y211152D01*
X458215Y211490D01*
X457554Y211555D01*
D02*
G37*
G36*
X456554D02*
X455893Y211490D01*
X454777Y211152D01*
X453749Y210602D01*
X452847Y209862D01*
X452107Y208960D01*
X451557Y207931D01*
X451219Y206815D01*
X451154Y206155D01*
X456554D01*
Y211555D01*
D02*
G37*
G36*
Y205155D02*
X451154D01*
X451219Y204494D01*
X451557Y203378D01*
X452107Y202349D01*
X452847Y201447D01*
X453749Y200707D01*
X454777Y200157D01*
X455893Y199819D01*
X456554Y199754D01*
Y205155D01*
D02*
G37*
G36*
X462955D02*
X457554D01*
Y199754D01*
X458215Y199819D01*
X459331Y200157D01*
X460360Y200707D01*
X461261Y201447D01*
X462001Y202349D01*
X462551Y203378D01*
X462890Y204494D01*
X462955Y205155D01*
D02*
G37*
G36*
X423713Y296144D02*
Y289770D01*
X427200D01*
Y292222D01*
X427064Y293254D01*
X426665Y294216D01*
X426032Y295042D01*
X425206Y295675D01*
X424244Y296074D01*
X423713Y296144D01*
D02*
G37*
G36*
X499713D02*
Y289770D01*
X503199D01*
Y292222D01*
X503064Y293254D01*
X502665Y294216D01*
X502032Y295042D01*
X501206Y295675D01*
X500245Y296074D01*
X499713Y296144D01*
D02*
G37*
G36*
X422713D02*
X422181Y296074D01*
X421219Y295675D01*
X420394Y295042D01*
X419760Y294216D01*
X419362Y293254D01*
X419226Y292222D01*
Y289770D01*
X422713D01*
Y296144D01*
D02*
G37*
G36*
X498713D02*
X498181Y296074D01*
X497219Y295675D01*
X496393Y295042D01*
X495760Y294216D01*
X495362Y293254D01*
X495226Y292222D01*
Y289770D01*
X498713D01*
Y296144D01*
D02*
G37*
G36*
X503199Y288770D02*
X499713D01*
Y282396D01*
X500245Y282466D01*
X501206Y282864D01*
X502032Y283498D01*
X502665Y284324D01*
X503064Y285285D01*
X503199Y286317D01*
Y288770D01*
D02*
G37*
G36*
X427200D02*
X423713D01*
Y282396D01*
X424244Y282466D01*
X425206Y282864D01*
X426032Y283498D01*
X426665Y284324D01*
X427064Y285285D01*
X427200Y286317D01*
Y288770D01*
D02*
G37*
G36*
X498713D02*
X495226D01*
Y286317D01*
X495362Y285285D01*
X495760Y284324D01*
X496393Y283498D01*
X497219Y282864D01*
X498181Y282466D01*
X498713Y282396D01*
Y288770D01*
D02*
G37*
G36*
X422713D02*
X419226D01*
Y286317D01*
X419362Y285285D01*
X419760Y284324D01*
X420394Y283498D01*
X421219Y282864D01*
X422181Y282466D01*
X422713Y282396D01*
Y288770D01*
D02*
G37*
G36*
X519213Y296209D02*
X518181Y296074D01*
X517219Y295675D01*
X516394Y295042D01*
X515760Y294216D01*
X515362Y293254D01*
X515226Y292222D01*
Y286317D01*
X515362Y285285D01*
X515760Y284324D01*
X516394Y283498D01*
X517219Y282864D01*
X518181Y282466D01*
X519213Y282330D01*
X520245Y282466D01*
X521206Y282864D01*
X522032Y283498D01*
X522665Y284324D01*
X523064Y285285D01*
X523200Y286317D01*
Y292222D01*
X523064Y293254D01*
X522665Y294216D01*
X522032Y295042D01*
X521206Y295675D01*
X520245Y296074D01*
X519213Y296209D01*
D02*
G37*
G36*
X509213D02*
X508181Y296074D01*
X507219Y295675D01*
X506393Y295042D01*
X505760Y294216D01*
X505362Y293254D01*
X505226Y292222D01*
Y286317D01*
X505362Y285285D01*
X505760Y284324D01*
X506393Y283498D01*
X507219Y282864D01*
X508181Y282466D01*
X509213Y282330D01*
X510245Y282466D01*
X511206Y282864D01*
X512032Y283498D01*
X512665Y284324D01*
X513064Y285285D01*
X513200Y286317D01*
Y292222D01*
X513064Y293254D01*
X512665Y294216D01*
X512032Y295042D01*
X511206Y295675D01*
X510245Y296074D01*
X509213Y296209D01*
D02*
G37*
G36*
X443213D02*
X442181Y296074D01*
X441219Y295675D01*
X440393Y295042D01*
X439760Y294216D01*
X439362Y293254D01*
X439226Y292222D01*
Y286317D01*
X439362Y285285D01*
X439760Y284324D01*
X440393Y283498D01*
X441219Y282864D01*
X442181Y282466D01*
X443213Y282330D01*
X444244Y282466D01*
X445206Y282864D01*
X446032Y283498D01*
X446665Y284324D01*
X447064Y285285D01*
X447199Y286317D01*
Y292222D01*
X447064Y293254D01*
X446665Y294216D01*
X446032Y295042D01*
X445206Y295675D01*
X444244Y296074D01*
X443213Y296209D01*
D02*
G37*
G36*
X433213D02*
X432181Y296074D01*
X431219Y295675D01*
X430394Y295042D01*
X429760Y294216D01*
X429362Y293254D01*
X429226Y292222D01*
Y286317D01*
X429362Y285285D01*
X429760Y284324D01*
X430394Y283498D01*
X431219Y282864D01*
X432181Y282466D01*
X433213Y282330D01*
X434244Y282466D01*
X435206Y282864D01*
X436032Y283498D01*
X436665Y284324D01*
X437064Y285285D01*
X437199Y286317D01*
Y292222D01*
X437064Y293254D01*
X436665Y294216D01*
X436032Y295042D01*
X435206Y295675D01*
X434244Y296074D01*
X433213Y296209D01*
D02*
G37*
G36*
X496350Y272398D02*
X490732D01*
Y267469D01*
X496350D01*
Y272398D01*
D02*
G37*
G36*
X502969D02*
X497350D01*
Y266968D01*
Y261539D01*
X502969D01*
Y264748D01*
X503523Y264978D01*
X505176Y263325D01*
X505280Y262801D01*
X505612Y262304D01*
X506108Y261973D01*
X506693Y261856D01*
X507278Y261973D01*
X507774Y262304D01*
X508106Y262801D01*
X508222Y263386D01*
Y263970D01*
X508106Y264556D01*
X507774Y265052D01*
X502969Y269858D01*
Y272398D01*
D02*
G37*
G36*
X496350Y266469D02*
X490732D01*
Y261539D01*
X496350D01*
Y266469D01*
D02*
G37*
G36*
X502969Y252492D02*
X497350D01*
Y247563D01*
X502969D01*
Y252492D01*
D02*
G37*
G36*
X496350D02*
X490732D01*
Y247563D01*
X496350D01*
Y252492D01*
D02*
G37*
G36*
X457554Y191555D02*
Y186155D01*
X462955D01*
X462890Y186815D01*
X462551Y187932D01*
X462001Y188960D01*
X461261Y189862D01*
X460360Y190602D01*
X459331Y191151D01*
X458215Y191490D01*
X457554Y191555D01*
D02*
G37*
G36*
X456554D02*
X455893Y191490D01*
X454777Y191151D01*
X453749Y190602D01*
X452847Y189862D01*
X452107Y188960D01*
X451557Y187932D01*
X451219Y186815D01*
X451154Y186155D01*
X456554D01*
Y191555D01*
D02*
G37*
G36*
Y185155D02*
X451154D01*
X451219Y184494D01*
X451557Y183378D01*
X452107Y182349D01*
X452847Y181447D01*
X453749Y180707D01*
X454777Y180157D01*
X455893Y179819D01*
X456554Y179754D01*
Y185155D01*
D02*
G37*
G36*
X462955D02*
X457554D01*
Y179754D01*
X458215Y179819D01*
X459331Y180157D01*
X460360Y180707D01*
X461261Y181447D01*
X462001Y182349D01*
X462551Y183378D01*
X462890Y184494D01*
X462955Y185155D01*
D02*
G37*
G36*
X457554Y171555D02*
Y166155D01*
X462955D01*
X462890Y166815D01*
X462551Y167931D01*
X462001Y168960D01*
X461261Y169862D01*
X460360Y170602D01*
X459331Y171151D01*
X458215Y171490D01*
X457554Y171555D01*
D02*
G37*
G36*
X456554D02*
X455893Y171490D01*
X454777Y171151D01*
X453749Y170602D01*
X452847Y169862D01*
X452107Y168960D01*
X451557Y167931D01*
X451219Y166815D01*
X451154Y166155D01*
X456554D01*
Y171555D01*
D02*
G37*
G36*
Y165155D02*
X451154D01*
X451219Y164494D01*
X451557Y163378D01*
X452107Y162349D01*
X452847Y161447D01*
X453749Y160707D01*
X454777Y160158D01*
X455893Y159819D01*
X456554Y159754D01*
Y165155D01*
D02*
G37*
G36*
X462955D02*
X457554D01*
Y159754D01*
X458215Y159819D01*
X459331Y160158D01*
X460360Y160707D01*
X461261Y161447D01*
X462001Y162349D01*
X462551Y163378D01*
X462890Y164494D01*
X462955Y165155D01*
D02*
G37*
G36*
X457554Y151555D02*
Y146155D01*
X462955D01*
X462890Y146815D01*
X462551Y147932D01*
X462001Y148960D01*
X461261Y149862D01*
X460360Y150602D01*
X459331Y151152D01*
X458215Y151490D01*
X457554Y151555D01*
D02*
G37*
G36*
X456554D02*
X455893Y151490D01*
X454777Y151152D01*
X453749Y150602D01*
X452847Y149862D01*
X452107Y148960D01*
X451557Y147932D01*
X451219Y146815D01*
X451154Y146155D01*
X456554D01*
Y151555D01*
D02*
G37*
G36*
Y145155D02*
X451154D01*
X451219Y144494D01*
X451557Y143378D01*
X452107Y142349D01*
X452847Y141447D01*
X453749Y140707D01*
X454777Y140157D01*
X455893Y139819D01*
X456554Y139754D01*
Y145155D01*
D02*
G37*
G36*
X462955D02*
X457554D01*
Y139754D01*
X458215Y139819D01*
X459331Y140157D01*
X460360Y140707D01*
X461261Y141447D01*
X462001Y142349D01*
X462551Y143378D01*
X462890Y144494D01*
X462955Y145155D01*
D02*
G37*
G36*
X457554Y131555D02*
Y126155D01*
X462955D01*
X462890Y126815D01*
X462551Y127931D01*
X462001Y128960D01*
X461261Y129862D01*
X460360Y130602D01*
X459331Y131151D01*
X458215Y131490D01*
X457554Y131555D01*
D02*
G37*
G36*
X456554D02*
X455893Y131490D01*
X454777Y131151D01*
X453749Y130602D01*
X452847Y129862D01*
X452107Y128960D01*
X451557Y127931D01*
X451219Y126815D01*
X451154Y126155D01*
X456554D01*
Y131555D01*
D02*
G37*
G36*
Y125155D02*
X451154D01*
X451219Y124494D01*
X451557Y123378D01*
X452107Y122349D01*
X452847Y121447D01*
X453749Y120707D01*
X454777Y120158D01*
X455893Y119819D01*
X456554Y119754D01*
Y125155D01*
D02*
G37*
G36*
X462955D02*
X457554D01*
Y119754D01*
X458215Y119819D01*
X459331Y120158D01*
X460360Y120707D01*
X461261Y121447D01*
X462001Y122349D01*
X462551Y123378D01*
X462890Y124494D01*
X462955Y125155D01*
D02*
G37*
%LPD*%
D10*
X156299Y145669D02*
X160138D01*
X149606Y152362D02*
X156299Y145669D01*
X165453D02*
X165468Y145654D01*
X161770Y149352D02*
X165453Y145669D01*
X165468Y145654D02*
X170448D01*
X161770Y149352D02*
Y162953D01*
X170448Y145654D02*
X171801Y144301D01*
X227952Y146851D02*
Y152150D01*
X244882Y146850D02*
X256693D01*
X253543Y150000D02*
X256693Y146850D01*
X202542Y89844D02*
Y124767D01*
Y89844D02*
X215220Y77165D01*
X202542Y124767D02*
X205490Y127715D01*
X132173Y214272D02*
X132370D01*
X119575D02*
X132173D01*
X115748Y200787D02*
X119575Y204614D01*
Y214272D01*
X215354Y116929D02*
X215817D01*
X216403Y116343D01*
X260236Y98425D02*
X272441D01*
X275197Y95669D01*
X315172Y86038D02*
X316535Y87402D01*
Y91112D01*
X306962Y75565D02*
X313565Y82169D01*
X347638D01*
X205439Y75565D02*
X306962D01*
X522244Y185827D02*
Y202559D01*
X543701Y224016D01*
X442520Y194882D02*
X509449D01*
X513386Y198819D01*
X253543Y150000D02*
Y159843D01*
X247244Y198819D02*
X258681D01*
X222876Y134883D02*
X228150Y140157D01*
X256299Y230315D02*
X258161Y228453D01*
Y215087D02*
Y228453D01*
Y215087D02*
X259055Y214193D01*
X167766Y79161D02*
X167891Y79035D01*
X167766Y79161D02*
Y81447D01*
X181307Y94988D01*
Y95382D01*
X183071Y97146D01*
X183465D01*
X188189Y105512D02*
X188386Y105709D01*
Y110531D01*
X157874Y93701D02*
X158268D01*
X171925Y107358D01*
Y112721D01*
X153150Y171573D02*
Y189064D01*
Y171573D02*
X161770Y162953D01*
X182095Y118643D02*
Y139165D01*
X171249Y150011D02*
X182095Y139165D01*
X167115Y150011D02*
X171249D01*
X187213Y118643D02*
Y136409D01*
X170068Y153554D02*
X187213Y136409D01*
X164753Y153554D02*
X170068D01*
X210433Y122441D02*
X215354D01*
X217476Y120320D02*
X218297D01*
X215354Y122441D02*
X217476Y120320D01*
X216403Y115110D02*
Y116343D01*
X210433Y122441D02*
X210433Y122441D01*
X227952Y146851D02*
X228346Y146457D01*
X216773Y134883D02*
X222876D01*
X228150Y140157D02*
X228346D01*
X212205Y130315D02*
X216773Y134883D01*
X220472Y163386D02*
Y163739D01*
X220366Y163846D02*
X220472Y163739D01*
X232284Y134646D02*
X232678D01*
X215220Y77165D02*
X306299D01*
X214723Y127715D02*
X219291Y132283D01*
X205490Y127715D02*
X214723D01*
X139370Y136221D02*
X139567Y136417D01*
X166732Y150394D02*
X167115Y150011D01*
X164557Y141732D02*
X166388Y139901D01*
X232678Y134646D02*
X244882Y146850D01*
X559449Y185827D02*
X580709Y164567D01*
X663779D01*
X665354Y162992D01*
Y83071D02*
Y162992D01*
X635433Y53150D02*
X665354Y83071D01*
X451968Y53150D02*
X635433D01*
X306299Y77165D02*
X315172Y86038D01*
X183465Y97146D02*
X183858D01*
X506693Y263386D02*
Y263970D01*
X500273Y270391D02*
X506693Y263970D01*
X496850Y266968D02*
X500273Y270391D01*
X315172Y86038D02*
X366816D01*
X183858Y97146D02*
X205439Y75565D01*
X94056Y251298D02*
Y252794D01*
X93701Y253150D02*
X94056Y252794D01*
Y251298D02*
X105047Y240307D01*
X106910Y237559D02*
X107795D01*
X105047Y239421D02*
X106910Y237559D01*
X105047Y239421D02*
Y240307D01*
X208884Y115919D02*
X209055D01*
X205315Y119488D02*
X208884Y115919D01*
X139370Y141732D02*
X164557D01*
X139567Y136417D02*
X171850D01*
X166388Y139901D02*
X166929D01*
X218110Y150000D02*
X218307D01*
X220366Y152059D02*
Y163846D01*
X218307Y150000D02*
X220366Y152059D01*
X205315Y119488D02*
Y122441D01*
X410235Y95275D02*
X415938Y100978D01*
Y104463D01*
X417051Y105576D01*
X435827Y188189D02*
X442520Y194882D01*
X218297Y120320D02*
X221457Y117159D01*
X200882Y145760D02*
X215854D01*
X217913Y143701D01*
X132370Y214272D02*
X200882Y145760D01*
X258681Y198819D02*
X259055Y199193D01*
X164370Y153937D02*
X164753Y153554D01*
X187213Y118643D02*
X188386Y117470D01*
X182095Y118643D02*
X183268Y117470D01*
X435827Y100197D02*
Y188189D01*
X431291Y95661D02*
X435827Y100197D01*
X431291Y95465D02*
Y95661D01*
X430118Y94291D02*
X431291Y95465D01*
X429921Y94291D02*
X430118D01*
X428748Y93118D02*
X429921Y94291D01*
X422843Y93118D02*
X428748D01*
X417051Y87326D02*
X422843Y93118D01*
X417051Y85576D02*
Y87326D01*
Y103826D02*
Y105576D01*
Y103826D02*
X420295Y100583D01*
X428748D01*
X429921Y99410D01*
X366816Y86038D02*
X367028Y85827D01*
X372593Y85576D02*
X390551D01*
X372342Y85827D02*
X372593Y85576D01*
X416535Y78740D02*
X426378D01*
X451968Y53150D01*
X183268Y97342D02*
X183465Y97146D01*
X183268Y97342D02*
Y110531D01*
X188386D02*
Y117470D01*
X171850Y136417D02*
X172047Y136614D01*
X216403Y115110D02*
X221457Y110056D01*
Y109859D02*
Y110056D01*
Y116963D02*
Y117159D01*
X212205Y135039D02*
X215854Y138689D01*
Y141642D01*
X217913Y143701D01*
X119476Y225984D02*
X119575Y225886D01*
X106693Y225984D02*
X119476D01*
D12*
X211417Y218503D02*
Y218676D01*
X213779Y221039D01*
Y224410D01*
X214272Y224902D01*
X214862D01*
Y225886D01*
X227953Y90945D02*
X228133D01*
X227953Y90945D02*
X227953Y90945D01*
X232874Y240945D02*
X244685D01*
X244980Y240650D01*
Y230610D02*
Y240650D01*
Y230610D02*
X245276Y230315D01*
Y229429D02*
Y230315D01*
X241732Y225886D02*
X245276Y229429D01*
X215846Y225886D02*
X241732D01*
X214862Y224902D02*
X215846Y225886D01*
D61*
X240941Y129118D02*
D03*
X245075Y122819D02*
D03*
Y125969D02*
D03*
Y129118D02*
D03*
Y132268D02*
D03*
Y135417D02*
D03*
X249760D02*
D03*
Y132268D02*
D03*
Y129118D02*
D03*
Y125969D02*
D03*
Y122819D02*
D03*
X254445D02*
D03*
Y125969D02*
D03*
Y129118D02*
D03*
Y132268D02*
D03*
Y135417D02*
D03*
X259130D02*
D03*
Y132268D02*
D03*
Y129118D02*
D03*
Y125969D02*
D03*
Y122819D02*
D03*
X263264Y129118D02*
D03*
D67*
X537795Y231102D02*
D03*
X527953Y250787D02*
D03*
X547638D02*
D03*
X641732Y114862D02*
D03*
X644882Y209473D02*
D03*
D72*
X221457Y116963D02*
D03*
X226575D02*
D03*
X221457Y109859D02*
D03*
X226575D02*
D03*
X188386Y110531D02*
D03*
X183268D02*
D03*
X183268Y117470D02*
D03*
X188386D02*
D03*
X210433Y122441D02*
D03*
X205315D02*
D03*
D79*
X252102Y129118D02*
D03*
D83*
X429921Y99410D02*
D03*
Y94291D02*
D03*
D84*
X160138Y145669D02*
D03*
X165453D02*
D03*
X367028Y85827D02*
D03*
X372342D02*
D03*
D92*
X214862Y225886D02*
D03*
X207972D02*
D03*
D103*
X245276Y230315D02*
D03*
X256299D02*
D03*
D104*
X228346Y146457D02*
D03*
Y140157D02*
D03*
X218110Y143701D02*
D03*
Y150000D02*
D03*
D106*
X223819Y240945D02*
D03*
X232874D02*
D03*
D107*
X256102D02*
X264961D01*
X183465Y84646D02*
Y90256D01*
X333465Y98032D02*
X383006D01*
X390551Y105576D01*
D111*
X153150Y225886D02*
X207972D01*
X132173D02*
X153150D01*
Y221654D02*
Y225886D01*
X208717Y189983D02*
X224391Y174310D01*
X208717Y189983D02*
Y225141D01*
X207972Y225886D02*
X208717Y225141D01*
X226378Y138189D02*
Y138818D01*
X224391Y140805D02*
X226378Y138818D01*
X224391Y140805D02*
Y174310D01*
D113*
X35039Y243819D02*
D03*
Y232008D02*
D03*
Y220197D02*
D03*
Y208386D02*
D03*
D114*
X298031Y168583D02*
D03*
Y178583D02*
D03*
Y188583D02*
D03*
D115*
X212158Y100630D02*
D03*
Y110630D02*
D03*
X116535Y121653D02*
D03*
Y131653D02*
D03*
D116*
X93701Y253150D02*
D03*
X74016D02*
D03*
D117*
X519213Y289270D02*
D03*
X509213D02*
D03*
X499213D02*
D03*
X423213D02*
D03*
X433213D02*
D03*
X443213D02*
D03*
D118*
X457054Y245655D02*
D03*
Y225655D02*
D03*
Y205655D02*
D03*
Y185654D02*
D03*
Y165655D02*
D03*
Y145654D02*
D03*
Y125654D02*
D03*
X357054D02*
D03*
Y145654D02*
D03*
Y165655D02*
D03*
Y205655D02*
D03*
Y225655D02*
D03*
Y245655D02*
D03*
D119*
X174764Y294724D02*
D03*
X189764D02*
D03*
X204764D02*
D03*
X219764D02*
D03*
Y254724D02*
D03*
X204764D02*
D03*
X189764D02*
D03*
X174764D02*
D03*
D120*
X191732Y120866D02*
D03*
X149606Y152362D02*
D03*
X537796Y285827D02*
D03*
X545670Y317323D02*
D03*
X537796D02*
D03*
X443307Y309449D02*
D03*
Y317323D02*
D03*
X419685Y309449D02*
D03*
X427559D02*
D03*
X498425D02*
D03*
Y317323D02*
D03*
X514174Y309449D02*
D03*
X522048D02*
D03*
Y317323D02*
D03*
X529922Y270079D02*
D03*
X227952Y152150D02*
D03*
X256693Y146850D02*
D03*
X198425Y113779D02*
D03*
X115748Y200787D02*
D03*
X153150Y221654D02*
D03*
X198819Y125197D02*
D03*
X215354Y122441D02*
D03*
Y116929D02*
D03*
X275197Y95669D02*
D03*
X316535Y91112D02*
D03*
X549213Y269685D02*
D03*
X522244Y185827D02*
D03*
X543701Y224016D02*
D03*
X513386Y198819D02*
D03*
X253543Y159843D02*
D03*
X247244Y198819D02*
D03*
X211417Y218503D02*
D03*
X167891Y79035D02*
D03*
X188189Y105512D02*
D03*
X157874Y93701D02*
D03*
X171925Y112721D02*
D03*
X153150Y189064D02*
D03*
X166929Y139901D02*
D03*
X209449Y185433D02*
D03*
X191339Y177551D02*
D03*
X347638Y82169D02*
D03*
X220472Y163386D02*
D03*
X232284Y134646D02*
D03*
X219291Y132283D02*
D03*
X172047Y136614D02*
D03*
X171801Y144301D02*
D03*
X166732Y150394D02*
D03*
X238583Y144882D02*
D03*
X561418Y112599D02*
D03*
X553544Y120473D02*
D03*
X561418D02*
D03*
X537796Y151969D02*
D03*
X553544Y144095D02*
D03*
X537796D02*
D03*
X529922D02*
D03*
X522048Y151969D02*
D03*
Y144095D02*
D03*
X529922Y151969D02*
D03*
X553544D02*
D03*
X608662Y128347D02*
D03*
Y104725D02*
D03*
X600788Y144095D02*
D03*
X624410Y128347D02*
D03*
X608662Y112599D02*
D03*
X561418Y128347D02*
D03*
X569292Y81103D02*
D03*
X592914Y128347D02*
D03*
X648032Y136221D02*
D03*
X592914Y112599D02*
D03*
X608662Y151969D02*
D03*
X569292Y73228D02*
D03*
X585040Y96851D02*
D03*
X592914Y104725D02*
D03*
X553544Y136221D02*
D03*
X561418Y57480D02*
D03*
X577166Y81103D02*
D03*
X655906Y144095D02*
D03*
X585040Y104725D02*
D03*
X553544Y65354D02*
D03*
Y73228D02*
D03*
X577166Y112599D02*
D03*
X585040Y144095D02*
D03*
X655906Y136221D02*
D03*
X577166D02*
D03*
X553544Y81103D02*
D03*
X569292Y57480D02*
D03*
X545670Y88977D02*
D03*
X498425Y238583D02*
D03*
X600788Y120473D02*
D03*
X577166Y65354D02*
D03*
X624410Y144095D02*
D03*
X561418Y96851D02*
D03*
X506299Y246457D02*
D03*
X585040Y136221D02*
D03*
X600788Y151969D02*
D03*
X553544Y104725D02*
D03*
X624410D02*
D03*
X616536Y120473D02*
D03*
X569292Y88977D02*
D03*
X616536Y128347D02*
D03*
X482678Y254331D02*
D03*
X561418Y136221D02*
D03*
X608662Y120473D02*
D03*
X592914D02*
D03*
X577166Y144095D02*
D03*
X482678Y246457D02*
D03*
X592914Y151969D02*
D03*
X616536Y104725D02*
D03*
X577166Y151969D02*
D03*
X655906Y128347D02*
D03*
X553544Y57480D02*
D03*
X577166Y120473D02*
D03*
X616536Y112599D02*
D03*
X569292D02*
D03*
X600788Y128347D02*
D03*
X608662Y136221D02*
D03*
X624410D02*
D03*
X506299Y238583D02*
D03*
X600788Y96851D02*
D03*
X569292Y120473D02*
D03*
X553544Y96851D02*
D03*
X655906D02*
D03*
X553544Y128347D02*
D03*
X545670Y57480D02*
D03*
X632284Y144095D02*
D03*
X514174Y238583D02*
D03*
X640158Y136221D02*
D03*
X561418Y65354D02*
D03*
X545670Y81103D02*
D03*
X569292Y144095D02*
D03*
X655906Y151969D02*
D03*
X569292Y136221D02*
D03*
X577166Y128347D02*
D03*
X545670Y65354D02*
D03*
X592914Y144095D02*
D03*
X585040Y128347D02*
D03*
X624410Y151969D02*
D03*
X561418Y81103D02*
D03*
X514174Y254331D02*
D03*
X569292Y65354D02*
D03*
X561418Y88977D02*
D03*
X585040Y151969D02*
D03*
X592914Y96851D02*
D03*
X616536Y144095D02*
D03*
X608662Y96851D02*
D03*
X569292D02*
D03*
X577166Y73228D02*
D03*
X561418Y144095D02*
D03*
X600788Y112599D02*
D03*
X490552Y238583D02*
D03*
X632284Y96851D02*
D03*
X616536D02*
D03*
X632284Y159843D02*
D03*
X514174Y246457D02*
D03*
X561418Y104725D02*
D03*
X553544Y88977D02*
D03*
X624410Y96851D02*
D03*
X585040Y112599D02*
D03*
X632284Y151969D02*
D03*
X648032Y96851D02*
D03*
X585040Y120473D02*
D03*
X592914Y136221D02*
D03*
X561418Y73228D02*
D03*
X616536Y151969D02*
D03*
X577166Y88977D02*
D03*
Y104725D02*
D03*
X655906Y159843D02*
D03*
X545670Y73228D02*
D03*
X569292Y104725D02*
D03*
X600788D02*
D03*
X569292Y128347D02*
D03*
X577166Y96851D02*
D03*
X600788Y136221D02*
D03*
X482678Y238583D02*
D03*
X616536Y136221D02*
D03*
X506299Y254331D02*
D03*
X569292Y151969D02*
D03*
X632284Y136221D02*
D03*
X561418Y151969D02*
D03*
X553544Y112599D02*
D03*
X608662Y144095D02*
D03*
X35827Y277953D02*
D03*
Y272047D02*
D03*
Y266142D02*
D03*
Y260236D02*
D03*
Y254331D02*
D03*
X29921Y277953D02*
D03*
Y272047D02*
D03*
Y266142D02*
D03*
Y260236D02*
D03*
Y254331D02*
D03*
Y248425D02*
D03*
X24016Y260236D02*
D03*
Y254331D02*
D03*
Y248425D02*
D03*
Y242520D02*
D03*
X18110Y260236D02*
D03*
Y254331D02*
D03*
Y248425D02*
D03*
X12205Y260236D02*
D03*
Y254331D02*
D03*
Y248425D02*
D03*
Y242520D02*
D03*
X260236Y88976D02*
D03*
Y83071D02*
D03*
X254331Y88976D02*
D03*
Y83071D02*
D03*
X248425Y88976D02*
D03*
Y83071D02*
D03*
X242520Y88976D02*
D03*
Y83071D02*
D03*
X236614Y88976D02*
D03*
Y83071D02*
D03*
X230709D02*
D03*
X224803D02*
D03*
X218898Y88976D02*
D03*
Y83071D02*
D03*
X212992Y88976D02*
D03*
Y83071D02*
D03*
X356693Y136221D02*
D03*
X348819Y167717D02*
D03*
Y159843D02*
D03*
Y151969D02*
D03*
Y144095D02*
D03*
Y136221D02*
D03*
Y128347D02*
D03*
Y120473D02*
D03*
Y112599D02*
D03*
X340945Y167717D02*
D03*
Y159843D02*
D03*
Y151969D02*
D03*
Y144095D02*
D03*
Y136221D02*
D03*
Y128347D02*
D03*
Y120473D02*
D03*
Y112599D02*
D03*
Y104725D02*
D03*
X333071Y167717D02*
D03*
Y159843D02*
D03*
Y151969D02*
D03*
Y144095D02*
D03*
Y136221D02*
D03*
Y128347D02*
D03*
Y120473D02*
D03*
Y112599D02*
D03*
Y104725D02*
D03*
X325197Y167717D02*
D03*
Y159843D02*
D03*
Y151969D02*
D03*
Y144095D02*
D03*
Y136221D02*
D03*
Y128347D02*
D03*
Y120473D02*
D03*
Y112599D02*
D03*
Y104725D02*
D03*
X317323Y167717D02*
D03*
Y159843D02*
D03*
Y151969D02*
D03*
Y144095D02*
D03*
Y136221D02*
D03*
Y128347D02*
D03*
Y120473D02*
D03*
Y112599D02*
D03*
Y104725D02*
D03*
X309449Y167717D02*
D03*
Y159843D02*
D03*
Y151969D02*
D03*
Y144095D02*
D03*
Y136221D02*
D03*
Y128347D02*
D03*
Y120473D02*
D03*
Y112599D02*
D03*
Y104725D02*
D03*
X301575Y159843D02*
D03*
Y151969D02*
D03*
Y144095D02*
D03*
Y136221D02*
D03*
Y128347D02*
D03*
Y120473D02*
D03*
Y112599D02*
D03*
Y104725D02*
D03*
X293701Y159843D02*
D03*
Y151969D02*
D03*
Y144095D02*
D03*
Y136221D02*
D03*
Y128347D02*
D03*
Y120473D02*
D03*
Y112599D02*
D03*
Y104725D02*
D03*
X285827Y151969D02*
D03*
Y144095D02*
D03*
Y136221D02*
D03*
Y128347D02*
D03*
Y120473D02*
D03*
Y112599D02*
D03*
Y104725D02*
D03*
X277953Y112599D02*
D03*
Y104725D02*
D03*
X270079Y112599D02*
D03*
Y104725D02*
D03*
X356693Y270079D02*
D03*
Y262205D02*
D03*
Y254331D02*
D03*
Y214961D02*
D03*
X348819Y270079D02*
D03*
Y262205D02*
D03*
Y254331D02*
D03*
Y246457D02*
D03*
Y238583D02*
D03*
Y230709D02*
D03*
Y222835D02*
D03*
Y214961D02*
D03*
Y207087D02*
D03*
Y199213D02*
D03*
X340945Y270079D02*
D03*
Y262205D02*
D03*
Y254331D02*
D03*
X333071Y270079D02*
D03*
Y262205D02*
D03*
Y254331D02*
D03*
X325197Y270079D02*
D03*
Y262205D02*
D03*
X317323Y270079D02*
D03*
Y262205D02*
D03*
X309449Y270079D02*
D03*
Y262205D02*
D03*
X301575Y270079D02*
D03*
Y262205D02*
D03*
X293701Y270079D02*
D03*
Y262205D02*
D03*
X285827Y270079D02*
D03*
Y262205D02*
D03*
Y254331D02*
D03*
X277953Y270079D02*
D03*
Y262205D02*
D03*
Y254331D02*
D03*
X270079Y270079D02*
D03*
Y262205D02*
D03*
Y254331D02*
D03*
X262205Y270079D02*
D03*
Y262205D02*
D03*
Y254331D02*
D03*
X254331Y270079D02*
D03*
Y262205D02*
D03*
Y254331D02*
D03*
X246457Y270079D02*
D03*
Y262205D02*
D03*
Y254331D02*
D03*
X238583Y270079D02*
D03*
Y262205D02*
D03*
Y254331D02*
D03*
X230709Y270079D02*
D03*
Y262205D02*
D03*
Y254331D02*
D03*
X222835Y270079D02*
D03*
Y262205D02*
D03*
X214961Y270079D02*
D03*
Y262205D02*
D03*
X207087Y270079D02*
D03*
Y262205D02*
D03*
X199213Y270079D02*
D03*
Y262205D02*
D03*
X191339Y270079D02*
D03*
Y262205D02*
D03*
X183465Y270079D02*
D03*
Y262205D02*
D03*
Y254331D02*
D03*
X175591Y270079D02*
D03*
Y262205D02*
D03*
X167717Y270079D02*
D03*
Y262205D02*
D03*
Y254331D02*
D03*
X159843Y270079D02*
D03*
Y262205D02*
D03*
Y254331D02*
D03*
X151969Y270079D02*
D03*
Y262205D02*
D03*
Y254331D02*
D03*
X144095Y270079D02*
D03*
Y262205D02*
D03*
Y254331D02*
D03*
X136221Y270079D02*
D03*
Y262205D02*
D03*
Y254331D02*
D03*
X128347Y270079D02*
D03*
Y262205D02*
D03*
Y254331D02*
D03*
X120473Y270079D02*
D03*
Y262205D02*
D03*
Y254331D02*
D03*
X112599Y301575D02*
D03*
Y293701D02*
D03*
Y285827D02*
D03*
Y277953D02*
D03*
Y270079D02*
D03*
Y262205D02*
D03*
Y254331D02*
D03*
X104725Y301575D02*
D03*
Y293701D02*
D03*
Y285827D02*
D03*
Y277953D02*
D03*
Y270079D02*
D03*
Y262205D02*
D03*
Y254331D02*
D03*
X96851Y301575D02*
D03*
Y293701D02*
D03*
Y285827D02*
D03*
Y277953D02*
D03*
Y270079D02*
D03*
Y262205D02*
D03*
X88977Y301575D02*
D03*
Y293701D02*
D03*
Y285827D02*
D03*
X81103Y301575D02*
D03*
Y293701D02*
D03*
Y285827D02*
D03*
X73228Y301575D02*
D03*
Y293701D02*
D03*
Y285827D02*
D03*
X65354D02*
D03*
X57480D02*
D03*
Y277953D02*
D03*
Y270079D02*
D03*
Y262205D02*
D03*
Y254331D02*
D03*
X655906Y270079D02*
D03*
Y262205D02*
D03*
Y254331D02*
D03*
Y246457D02*
D03*
Y238583D02*
D03*
Y230709D02*
D03*
Y191339D02*
D03*
Y183465D02*
D03*
Y175591D02*
D03*
X648032Y270079D02*
D03*
Y262205D02*
D03*
Y254331D02*
D03*
Y230709D02*
D03*
X640158Y270079D02*
D03*
Y262205D02*
D03*
Y254331D02*
D03*
Y230709D02*
D03*
X632284Y270079D02*
D03*
Y262205D02*
D03*
Y254331D02*
D03*
Y230709D02*
D03*
Y191339D02*
D03*
Y175591D02*
D03*
X624410Y270079D02*
D03*
Y262205D02*
D03*
Y254331D02*
D03*
Y230709D02*
D03*
Y214961D02*
D03*
Y207087D02*
D03*
Y199213D02*
D03*
Y191339D02*
D03*
X616536Y270079D02*
D03*
Y262205D02*
D03*
Y254331D02*
D03*
Y230709D02*
D03*
Y222835D02*
D03*
Y214961D02*
D03*
Y207087D02*
D03*
Y199213D02*
D03*
Y191339D02*
D03*
X608662Y270079D02*
D03*
Y262205D02*
D03*
Y254331D02*
D03*
Y230709D02*
D03*
Y222835D02*
D03*
Y214961D02*
D03*
Y207087D02*
D03*
Y199213D02*
D03*
Y191339D02*
D03*
X600788Y270079D02*
D03*
Y262205D02*
D03*
Y254331D02*
D03*
Y230709D02*
D03*
Y222835D02*
D03*
Y214961D02*
D03*
Y207087D02*
D03*
Y199213D02*
D03*
Y191339D02*
D03*
X592914Y270079D02*
D03*
Y262205D02*
D03*
Y254331D02*
D03*
Y246457D02*
D03*
Y238583D02*
D03*
Y230709D02*
D03*
Y222835D02*
D03*
Y214961D02*
D03*
Y207087D02*
D03*
Y199213D02*
D03*
Y191339D02*
D03*
X585040Y270079D02*
D03*
Y262205D02*
D03*
Y254331D02*
D03*
Y246457D02*
D03*
Y238583D02*
D03*
Y214961D02*
D03*
Y207087D02*
D03*
Y191339D02*
D03*
X655906Y317323D02*
D03*
Y309449D02*
D03*
Y301575D02*
D03*
Y293701D02*
D03*
X648032D02*
D03*
X640158Y325197D02*
D03*
Y293701D02*
D03*
X632284D02*
D03*
X624410Y325197D02*
D03*
Y293701D02*
D03*
X616536Y325197D02*
D03*
Y293701D02*
D03*
X608662Y325197D02*
D03*
Y293701D02*
D03*
X600788Y325197D02*
D03*
Y293701D02*
D03*
X592914Y325197D02*
D03*
Y317323D02*
D03*
Y309449D02*
D03*
Y301575D02*
D03*
Y293701D02*
D03*
X585040Y325197D02*
D03*
Y317323D02*
D03*
Y309449D02*
D03*
Y301575D02*
D03*
Y293701D02*
D03*
X577166Y325197D02*
D03*
Y317323D02*
D03*
Y309449D02*
D03*
Y301575D02*
D03*
Y293701D02*
D03*
X569292Y325197D02*
D03*
Y317323D02*
D03*
Y309449D02*
D03*
Y301575D02*
D03*
Y293701D02*
D03*
X561418Y325197D02*
D03*
Y317323D02*
D03*
Y309449D02*
D03*
Y301575D02*
D03*
Y293701D02*
D03*
X553544Y325197D02*
D03*
Y317323D02*
D03*
Y309449D02*
D03*
Y301575D02*
D03*
Y293701D02*
D03*
X545670Y325197D02*
D03*
Y309449D02*
D03*
Y293701D02*
D03*
X537796Y325197D02*
D03*
Y309449D02*
D03*
Y293701D02*
D03*
Y270079D02*
D03*
X529922Y325197D02*
D03*
Y317323D02*
D03*
Y309449D02*
D03*
Y301575D02*
D03*
X522048Y325197D02*
D03*
Y270079D02*
D03*
X514174Y325197D02*
D03*
Y317323D02*
D03*
X506299Y325197D02*
D03*
Y317323D02*
D03*
Y309449D02*
D03*
X498425Y325197D02*
D03*
X490552D02*
D03*
Y317323D02*
D03*
Y309449D02*
D03*
X482678Y325197D02*
D03*
Y317323D02*
D03*
Y309449D02*
D03*
X474803Y325197D02*
D03*
Y317323D02*
D03*
Y309449D02*
D03*
Y230709D02*
D03*
Y222835D02*
D03*
Y214961D02*
D03*
Y207087D02*
D03*
Y199213D02*
D03*
X466929Y325197D02*
D03*
Y317323D02*
D03*
Y309449D02*
D03*
Y270079D02*
D03*
Y262205D02*
D03*
Y254331D02*
D03*
Y246457D02*
D03*
Y238583D02*
D03*
Y230709D02*
D03*
Y222835D02*
D03*
Y214961D02*
D03*
Y207087D02*
D03*
Y199213D02*
D03*
X459055Y325197D02*
D03*
Y317323D02*
D03*
Y309449D02*
D03*
Y270079D02*
D03*
Y262205D02*
D03*
Y254331D02*
D03*
Y214961D02*
D03*
X451181Y325197D02*
D03*
Y317323D02*
D03*
Y309449D02*
D03*
Y270079D02*
D03*
Y262205D02*
D03*
Y254331D02*
D03*
Y238583D02*
D03*
Y230709D02*
D03*
Y214961D02*
D03*
Y199213D02*
D03*
X443307Y325197D02*
D03*
Y270079D02*
D03*
Y262205D02*
D03*
Y254331D02*
D03*
Y246457D02*
D03*
Y238583D02*
D03*
Y230709D02*
D03*
Y222835D02*
D03*
Y214961D02*
D03*
Y207087D02*
D03*
Y199213D02*
D03*
X435433Y325197D02*
D03*
Y317323D02*
D03*
Y309449D02*
D03*
Y270079D02*
D03*
X427559Y325197D02*
D03*
Y317323D02*
D03*
Y270079D02*
D03*
X419685Y325197D02*
D03*
Y317323D02*
D03*
Y270079D02*
D03*
X411811Y325197D02*
D03*
Y317323D02*
D03*
Y309449D02*
D03*
Y301575D02*
D03*
Y293701D02*
D03*
Y285827D02*
D03*
Y277953D02*
D03*
Y270079D02*
D03*
X537796Y136221D02*
D03*
Y128347D02*
D03*
Y120473D02*
D03*
Y88977D02*
D03*
Y81103D02*
D03*
Y73228D02*
D03*
Y65354D02*
D03*
Y57480D02*
D03*
X529922Y136221D02*
D03*
Y128347D02*
D03*
Y120473D02*
D03*
Y88977D02*
D03*
Y81103D02*
D03*
Y73228D02*
D03*
Y65354D02*
D03*
Y57480D02*
D03*
X522048Y136221D02*
D03*
Y128347D02*
D03*
Y120473D02*
D03*
Y88977D02*
D03*
Y81103D02*
D03*
Y73228D02*
D03*
Y65354D02*
D03*
Y57480D02*
D03*
X514174Y151969D02*
D03*
Y144095D02*
D03*
Y136221D02*
D03*
Y128347D02*
D03*
Y120473D02*
D03*
Y112599D02*
D03*
Y104725D02*
D03*
Y96851D02*
D03*
Y88977D02*
D03*
Y81103D02*
D03*
Y73228D02*
D03*
Y65354D02*
D03*
Y57480D02*
D03*
X506299Y151969D02*
D03*
Y144095D02*
D03*
Y136221D02*
D03*
Y128347D02*
D03*
Y120473D02*
D03*
Y112599D02*
D03*
Y104725D02*
D03*
Y96851D02*
D03*
Y88977D02*
D03*
Y81103D02*
D03*
Y73228D02*
D03*
Y65354D02*
D03*
Y57480D02*
D03*
X498425Y151969D02*
D03*
Y144095D02*
D03*
Y136221D02*
D03*
Y128347D02*
D03*
Y120473D02*
D03*
Y112599D02*
D03*
Y104725D02*
D03*
Y96851D02*
D03*
Y88977D02*
D03*
Y81103D02*
D03*
Y73228D02*
D03*
Y65354D02*
D03*
Y57480D02*
D03*
X490552Y151969D02*
D03*
Y144095D02*
D03*
Y136221D02*
D03*
Y128347D02*
D03*
Y120473D02*
D03*
Y112599D02*
D03*
Y104725D02*
D03*
Y96851D02*
D03*
Y88977D02*
D03*
Y81103D02*
D03*
Y73228D02*
D03*
Y65354D02*
D03*
Y57480D02*
D03*
X482678Y151969D02*
D03*
Y144095D02*
D03*
Y136221D02*
D03*
Y128347D02*
D03*
Y120473D02*
D03*
Y112599D02*
D03*
Y104725D02*
D03*
Y96851D02*
D03*
Y88977D02*
D03*
Y81103D02*
D03*
Y73228D02*
D03*
Y65354D02*
D03*
Y57480D02*
D03*
X474803Y151969D02*
D03*
Y144095D02*
D03*
Y136221D02*
D03*
Y128347D02*
D03*
Y120473D02*
D03*
Y112599D02*
D03*
Y104725D02*
D03*
Y96851D02*
D03*
Y88977D02*
D03*
Y81103D02*
D03*
Y73228D02*
D03*
Y65354D02*
D03*
Y57480D02*
D03*
X466929Y151969D02*
D03*
Y144095D02*
D03*
Y136221D02*
D03*
Y128347D02*
D03*
Y120473D02*
D03*
Y112599D02*
D03*
Y104725D02*
D03*
Y96851D02*
D03*
Y88977D02*
D03*
Y81103D02*
D03*
Y73228D02*
D03*
Y65354D02*
D03*
Y57480D02*
D03*
X459055Y175591D02*
D03*
Y136221D02*
D03*
Y112599D02*
D03*
Y104725D02*
D03*
Y96851D02*
D03*
Y88977D02*
D03*
Y81103D02*
D03*
Y73228D02*
D03*
Y65354D02*
D03*
Y57480D02*
D03*
X451181Y175591D02*
D03*
Y159843D02*
D03*
Y151969D02*
D03*
Y136221D02*
D03*
Y120473D02*
D03*
Y112599D02*
D03*
Y104725D02*
D03*
Y96851D02*
D03*
Y88977D02*
D03*
Y81103D02*
D03*
Y73228D02*
D03*
Y65354D02*
D03*
X506693Y263386D02*
D03*
X264961Y240945D02*
D03*
X209055Y115919D02*
D03*
X573622Y178209D02*
D03*
X564961Y245276D02*
D03*
X557792Y245179D02*
D03*
X139370Y141732D02*
D03*
Y136221D02*
D03*
X193700Y148819D02*
D03*
X194559Y125654D02*
D03*
X197637Y119685D02*
D03*
X200787Y161811D02*
D03*
X183465Y84646D02*
D03*
X410235Y95275D02*
D03*
X333465Y98032D02*
D03*
X333071Y66929D02*
D03*
X362992Y324410D02*
D03*
X363779Y332677D02*
D03*
X564156Y160433D02*
D03*
X323622Y79176D02*
D03*
X436614Y27559D02*
D03*
X416535Y78740D02*
D03*
X559449Y185827D02*
D03*
X554035Y182283D02*
D03*
X548819Y180709D02*
D03*
X551575Y225197D02*
D03*
X164370Y153937D02*
D03*
X212205Y135039D02*
D03*
Y130315D02*
D03*
D121*
X557087Y206496D02*
D03*
Y202165D02*
D03*
X552756Y206496D02*
D03*
Y202165D02*
D03*
X548425Y206496D02*
D03*
Y202165D02*
D03*
D122*
X19685Y334646D02*
D03*
X649606D02*
D03*
Y19685D02*
D03*
X19685D02*
D03*
D124*
X228133Y90945D02*
D03*
Y101969D02*
D03*
X107795Y226535D02*
D03*
Y237559D02*
D03*
D125*
X183465Y97146D02*
D03*
Y90256D02*
D03*
D126*
X73819Y270079D02*
D03*
X89173D02*
D03*
X73976Y236850D02*
D03*
X89331D02*
D03*
X73976Y219213D02*
D03*
X89331D02*
D03*
X73701Y201969D02*
D03*
X89055D02*
D03*
D127*
X417051Y85576D02*
D03*
Y105576D02*
D03*
X390551D02*
D03*
Y85576D02*
D03*
D128*
X496850Y266968D02*
D03*
Y252992D02*
D03*
D129*
X132173Y225886D02*
D03*
Y214272D02*
D03*
X119575Y225886D02*
D03*
Y214272D02*
D03*
D130*
X256102Y240945D02*
D03*
X244685D02*
D03*
D131*
X259055Y199193D02*
D03*
Y214193D02*
D03*
D132*
X223130Y240945D02*
X223819D01*
X219764Y244311D02*
X223130Y240945D01*
X219764Y244311D02*
Y254724D01*
M02*
