G04*
G04 #@! TF.GenerationSoftware,Altium Limited,Altium Designer,19.0.15 (446)*
G04*
G04 Layer_Color=16711935*
%FSLAX25Y25*%
%MOIN*%
G70*
G01*
G75*
%ADD21R,0.04347X0.04740*%
%ADD32R,0.04740X0.04347*%
%ADD33R,0.04543X0.04937*%
%ADD41R,0.05528X0.06315*%
%ADD52R,0.05724X0.07496*%
%ADD53R,0.06512X0.06118*%
%ADD55R,0.04937X0.03559*%
%ADD56C,0.07000*%
%ADD57C,0.01000*%
%ADD58O,0.12811X0.06906*%
%ADD59C,0.06512*%
%ADD60C,0.05724*%
%ADD61C,0.00787*%
%ADD62O,0.06906X0.08874*%
%ADD63O,0.06906X0.12811*%
%ADD64C,0.10843*%
%ADD65C,0.08874*%
%ADD66C,0.04000*%
%ADD67C,0.04724*%
%ADD68C,0.02969*%
%ADD69C,0.20685*%
%ADD133R,0.24803X0.15158*%
%ADD134R,0.07496X0.05724*%
%ADD135R,0.06315X0.05528*%
%ADD136R,0.07299X0.14780*%
G04:AMPARAMS|DCode=137|XSize=55mil|YSize=90mil|CornerRadius=16.25mil|HoleSize=0mil|Usage=FLASHONLY|Rotation=0.000|XOffset=0mil|YOffset=0mil|HoleType=Round|Shape=RoundedRectangle|*
%AMROUNDEDRECTD137*
21,1,0.05500,0.05750,0,0,0.0*
21,1,0.02250,0.09000,0,0,0.0*
1,1,0.03250,0.01125,-0.02875*
1,1,0.03250,-0.01125,-0.02875*
1,1,0.03250,-0.01125,0.02875*
1,1,0.03250,0.01125,0.02875*
%
%ADD137ROUNDEDRECTD137*%
%ADD138R,0.11236X0.09858*%
%ADD139R,0.06709X0.06315*%
%ADD140R,0.06118X0.08087*%
%ADD141R,0.07890X0.11039*%
D21*
X221457Y116963D02*
D03*
X226575D02*
D03*
X221457Y109859D02*
D03*
X226575D02*
D03*
X188386Y110531D02*
D03*
X183268D02*
D03*
X183268Y117470D02*
D03*
X188386D02*
D03*
X210433Y122441D02*
D03*
X205315D02*
D03*
D32*
X429921Y99410D02*
D03*
Y94291D02*
D03*
D33*
X160138Y145669D02*
D03*
X165453D02*
D03*
X367028Y85827D02*
D03*
X372342D02*
D03*
D41*
X214862Y225886D02*
D03*
X207972D02*
D03*
D52*
X245276Y230315D02*
D03*
X256299D02*
D03*
D53*
X228346Y146457D02*
D03*
Y140157D02*
D03*
X218110Y143701D02*
D03*
Y150000D02*
D03*
D55*
X223819Y240945D02*
D03*
X232874D02*
D03*
D56*
X35039Y243819D02*
D03*
Y232008D02*
D03*
Y220197D02*
D03*
Y208386D02*
D03*
D57*
X18032Y235354D02*
D03*
Y216850D02*
D03*
X537795Y240945D02*
D03*
X541212Y298836D02*
D03*
X401212Y297836D02*
D03*
D58*
X298031Y168583D02*
D03*
Y178583D02*
D03*
Y188583D02*
D03*
D59*
X212158Y100630D02*
D03*
Y110630D02*
D03*
X116535Y121653D02*
D03*
Y131653D02*
D03*
D60*
X537795Y231102D02*
D03*
X527953Y250787D02*
D03*
X547638D02*
D03*
D61*
X240941Y129118D02*
D03*
X245075Y122819D02*
D03*
Y125969D02*
D03*
Y129118D02*
D03*
Y132268D02*
D03*
Y135417D02*
D03*
X249760D02*
D03*
Y132268D02*
D03*
Y129118D02*
D03*
Y125969D02*
D03*
Y122819D02*
D03*
X254445D02*
D03*
Y125969D02*
D03*
Y129118D02*
D03*
Y132268D02*
D03*
Y135417D02*
D03*
X259130D02*
D03*
Y132268D02*
D03*
Y129118D02*
D03*
Y125969D02*
D03*
Y122819D02*
D03*
X263264Y129118D02*
D03*
D62*
X93701Y253150D02*
D03*
X74016D02*
D03*
D63*
X519213Y289270D02*
D03*
X509213D02*
D03*
X499213D02*
D03*
X423213D02*
D03*
X433213D02*
D03*
X443213D02*
D03*
D64*
X457054Y245655D02*
D03*
Y225655D02*
D03*
Y205655D02*
D03*
Y185654D02*
D03*
Y165655D02*
D03*
Y145654D02*
D03*
Y125654D02*
D03*
X357054D02*
D03*
Y145654D02*
D03*
Y165655D02*
D03*
Y205655D02*
D03*
Y225655D02*
D03*
Y245655D02*
D03*
D65*
X174764Y294724D02*
D03*
X189764D02*
D03*
X204764D02*
D03*
X219764D02*
D03*
Y254724D02*
D03*
X204764D02*
D03*
X189764D02*
D03*
X174764D02*
D03*
D66*
X191732Y120866D02*
D03*
X149606Y152362D02*
D03*
X537796Y285827D02*
D03*
X545670Y317323D02*
D03*
X537796D02*
D03*
X443307Y309449D02*
D03*
Y317323D02*
D03*
X419685Y309449D02*
D03*
X427559D02*
D03*
X498425D02*
D03*
Y317323D02*
D03*
X514174Y309449D02*
D03*
X522048D02*
D03*
Y317323D02*
D03*
X529922Y270079D02*
D03*
X227952Y152150D02*
D03*
X256693Y146850D02*
D03*
X198425Y113779D02*
D03*
X115748Y200787D02*
D03*
X153150Y221654D02*
D03*
X198819Y125197D02*
D03*
X215354Y122441D02*
D03*
Y116929D02*
D03*
X275197Y95669D02*
D03*
X316535Y91112D02*
D03*
X549213Y269685D02*
D03*
X522244Y185827D02*
D03*
X543701Y224016D02*
D03*
X513386Y198819D02*
D03*
X253543Y159843D02*
D03*
X247244Y198819D02*
D03*
X211417Y218503D02*
D03*
X167891Y79035D02*
D03*
X188189Y105512D02*
D03*
X157874Y93701D02*
D03*
X171925Y112721D02*
D03*
X153150Y189064D02*
D03*
X166929Y139901D02*
D03*
X209449Y185433D02*
D03*
X191339Y177551D02*
D03*
X347638Y82169D02*
D03*
X220472Y163386D02*
D03*
X232284Y134646D02*
D03*
X219291Y132283D02*
D03*
X172047Y136614D02*
D03*
X171801Y144301D02*
D03*
X166732Y150394D02*
D03*
X238583Y144882D02*
D03*
X561418Y112599D02*
D03*
X553544Y120473D02*
D03*
X561418D02*
D03*
X537796Y151969D02*
D03*
X553544Y144095D02*
D03*
X537796D02*
D03*
X529922D02*
D03*
X522048Y151969D02*
D03*
Y144095D02*
D03*
X529922Y151969D02*
D03*
X553544D02*
D03*
X608662Y128347D02*
D03*
Y104725D02*
D03*
X600788Y144095D02*
D03*
X624410Y128347D02*
D03*
X608662Y112599D02*
D03*
X561418Y128347D02*
D03*
X569292Y81103D02*
D03*
X592914Y128347D02*
D03*
X648032Y136221D02*
D03*
X592914Y112599D02*
D03*
X608662Y151969D02*
D03*
X569292Y73228D02*
D03*
X585040Y96851D02*
D03*
X592914Y104725D02*
D03*
X553544Y136221D02*
D03*
X561418Y57480D02*
D03*
X577166Y81103D02*
D03*
X655906Y144095D02*
D03*
X585040Y104725D02*
D03*
X553544Y65354D02*
D03*
Y73228D02*
D03*
X577166Y112599D02*
D03*
X585040Y144095D02*
D03*
X655906Y136221D02*
D03*
X577166D02*
D03*
X553544Y81103D02*
D03*
X569292Y57480D02*
D03*
X545670Y88977D02*
D03*
X498425Y238583D02*
D03*
X600788Y120473D02*
D03*
X577166Y65354D02*
D03*
X624410Y144095D02*
D03*
X561418Y96851D02*
D03*
X506299Y246457D02*
D03*
X585040Y136221D02*
D03*
X600788Y151969D02*
D03*
X553544Y104725D02*
D03*
X624410D02*
D03*
X616536Y120473D02*
D03*
X569292Y88977D02*
D03*
X616536Y128347D02*
D03*
X482678Y254331D02*
D03*
X561418Y136221D02*
D03*
X608662Y120473D02*
D03*
X592914D02*
D03*
X577166Y144095D02*
D03*
X482678Y246457D02*
D03*
X592914Y151969D02*
D03*
X616536Y104725D02*
D03*
X577166Y151969D02*
D03*
X655906Y128347D02*
D03*
X553544Y57480D02*
D03*
X577166Y120473D02*
D03*
X616536Y112599D02*
D03*
X569292D02*
D03*
X600788Y128347D02*
D03*
X608662Y136221D02*
D03*
X624410D02*
D03*
X506299Y238583D02*
D03*
X600788Y96851D02*
D03*
X569292Y120473D02*
D03*
X553544Y96851D02*
D03*
X655906D02*
D03*
X553544Y128347D02*
D03*
X545670Y57480D02*
D03*
X632284Y144095D02*
D03*
X514174Y238583D02*
D03*
X640158Y136221D02*
D03*
X561418Y65354D02*
D03*
X545670Y81103D02*
D03*
X569292Y144095D02*
D03*
X655906Y151969D02*
D03*
X569292Y136221D02*
D03*
X577166Y128347D02*
D03*
X545670Y65354D02*
D03*
X592914Y144095D02*
D03*
X585040Y128347D02*
D03*
X624410Y151969D02*
D03*
X561418Y81103D02*
D03*
X514174Y254331D02*
D03*
X569292Y65354D02*
D03*
X561418Y88977D02*
D03*
X585040Y151969D02*
D03*
X592914Y96851D02*
D03*
X616536Y144095D02*
D03*
X608662Y96851D02*
D03*
X569292D02*
D03*
X577166Y73228D02*
D03*
X561418Y144095D02*
D03*
X600788Y112599D02*
D03*
X490552Y238583D02*
D03*
X632284Y96851D02*
D03*
X616536D02*
D03*
X632284Y159843D02*
D03*
X514174Y246457D02*
D03*
X561418Y104725D02*
D03*
X553544Y88977D02*
D03*
X624410Y96851D02*
D03*
X585040Y112599D02*
D03*
X632284Y151969D02*
D03*
X648032Y96851D02*
D03*
X585040Y120473D02*
D03*
X592914Y136221D02*
D03*
X561418Y73228D02*
D03*
X616536Y151969D02*
D03*
X577166Y88977D02*
D03*
Y104725D02*
D03*
X655906Y159843D02*
D03*
X545670Y73228D02*
D03*
X569292Y104725D02*
D03*
X600788D02*
D03*
X569292Y128347D02*
D03*
X577166Y96851D02*
D03*
X600788Y136221D02*
D03*
X482678Y238583D02*
D03*
X616536Y136221D02*
D03*
X506299Y254331D02*
D03*
X569292Y151969D02*
D03*
X632284Y136221D02*
D03*
X561418Y151969D02*
D03*
X553544Y112599D02*
D03*
X608662Y144095D02*
D03*
X35827Y277953D02*
D03*
Y272047D02*
D03*
Y266142D02*
D03*
Y260236D02*
D03*
Y254331D02*
D03*
X29921Y277953D02*
D03*
Y272047D02*
D03*
Y266142D02*
D03*
Y260236D02*
D03*
Y254331D02*
D03*
Y248425D02*
D03*
X24016Y260236D02*
D03*
Y254331D02*
D03*
Y248425D02*
D03*
Y242520D02*
D03*
X18110Y260236D02*
D03*
Y254331D02*
D03*
Y248425D02*
D03*
X12205Y260236D02*
D03*
Y254331D02*
D03*
Y248425D02*
D03*
Y242520D02*
D03*
X260236Y88976D02*
D03*
Y83071D02*
D03*
X254331Y88976D02*
D03*
Y83071D02*
D03*
X248425Y88976D02*
D03*
Y83071D02*
D03*
X242520Y88976D02*
D03*
Y83071D02*
D03*
X236614Y88976D02*
D03*
Y83071D02*
D03*
X230709D02*
D03*
X224803D02*
D03*
X218898Y88976D02*
D03*
Y83071D02*
D03*
X212992Y88976D02*
D03*
Y83071D02*
D03*
X356693Y136221D02*
D03*
X348819Y167717D02*
D03*
Y159843D02*
D03*
Y151969D02*
D03*
Y144095D02*
D03*
Y136221D02*
D03*
Y128347D02*
D03*
Y120473D02*
D03*
Y112599D02*
D03*
X340945Y167717D02*
D03*
Y159843D02*
D03*
Y151969D02*
D03*
Y144095D02*
D03*
Y136221D02*
D03*
Y128347D02*
D03*
Y120473D02*
D03*
Y112599D02*
D03*
Y104725D02*
D03*
X333071Y167717D02*
D03*
Y159843D02*
D03*
Y151969D02*
D03*
Y144095D02*
D03*
Y136221D02*
D03*
Y128347D02*
D03*
Y120473D02*
D03*
Y112599D02*
D03*
Y104725D02*
D03*
X325197Y167717D02*
D03*
Y159843D02*
D03*
Y151969D02*
D03*
Y144095D02*
D03*
Y136221D02*
D03*
Y128347D02*
D03*
Y120473D02*
D03*
Y112599D02*
D03*
Y104725D02*
D03*
X317323Y167717D02*
D03*
Y159843D02*
D03*
Y151969D02*
D03*
Y144095D02*
D03*
Y136221D02*
D03*
Y128347D02*
D03*
Y120473D02*
D03*
Y112599D02*
D03*
Y104725D02*
D03*
X309449Y167717D02*
D03*
Y159843D02*
D03*
Y151969D02*
D03*
Y144095D02*
D03*
Y136221D02*
D03*
Y128347D02*
D03*
Y120473D02*
D03*
Y112599D02*
D03*
Y104725D02*
D03*
X301575Y159843D02*
D03*
Y151969D02*
D03*
Y144095D02*
D03*
Y136221D02*
D03*
Y128347D02*
D03*
Y120473D02*
D03*
Y112599D02*
D03*
Y104725D02*
D03*
X293701Y159843D02*
D03*
Y151969D02*
D03*
Y144095D02*
D03*
Y136221D02*
D03*
Y128347D02*
D03*
Y120473D02*
D03*
Y112599D02*
D03*
Y104725D02*
D03*
X285827Y151969D02*
D03*
Y144095D02*
D03*
Y136221D02*
D03*
Y128347D02*
D03*
Y120473D02*
D03*
Y112599D02*
D03*
Y104725D02*
D03*
X277953Y112599D02*
D03*
Y104725D02*
D03*
X270079Y112599D02*
D03*
Y104725D02*
D03*
X356693Y270079D02*
D03*
Y262205D02*
D03*
Y254331D02*
D03*
Y214961D02*
D03*
X348819Y270079D02*
D03*
Y262205D02*
D03*
Y254331D02*
D03*
Y246457D02*
D03*
Y238583D02*
D03*
Y230709D02*
D03*
Y222835D02*
D03*
Y214961D02*
D03*
Y207087D02*
D03*
Y199213D02*
D03*
X340945Y270079D02*
D03*
Y262205D02*
D03*
Y254331D02*
D03*
X333071Y270079D02*
D03*
Y262205D02*
D03*
Y254331D02*
D03*
X325197Y270079D02*
D03*
Y262205D02*
D03*
X317323Y270079D02*
D03*
Y262205D02*
D03*
X309449Y270079D02*
D03*
Y262205D02*
D03*
X301575Y270079D02*
D03*
Y262205D02*
D03*
X293701Y270079D02*
D03*
Y262205D02*
D03*
X285827Y270079D02*
D03*
Y262205D02*
D03*
Y254331D02*
D03*
X277953Y270079D02*
D03*
Y262205D02*
D03*
Y254331D02*
D03*
X270079Y270079D02*
D03*
Y262205D02*
D03*
Y254331D02*
D03*
X262205Y270079D02*
D03*
Y262205D02*
D03*
Y254331D02*
D03*
X254331Y270079D02*
D03*
Y262205D02*
D03*
Y254331D02*
D03*
X246457Y270079D02*
D03*
Y262205D02*
D03*
Y254331D02*
D03*
X238583Y270079D02*
D03*
Y262205D02*
D03*
Y254331D02*
D03*
X230709Y270079D02*
D03*
Y262205D02*
D03*
Y254331D02*
D03*
X222835Y270079D02*
D03*
Y262205D02*
D03*
X214961Y270079D02*
D03*
Y262205D02*
D03*
X207087Y270079D02*
D03*
Y262205D02*
D03*
X199213Y270079D02*
D03*
Y262205D02*
D03*
X191339Y270079D02*
D03*
Y262205D02*
D03*
X183465Y270079D02*
D03*
Y262205D02*
D03*
Y254331D02*
D03*
X175591Y270079D02*
D03*
Y262205D02*
D03*
X167717Y270079D02*
D03*
Y262205D02*
D03*
Y254331D02*
D03*
X159843Y270079D02*
D03*
Y262205D02*
D03*
Y254331D02*
D03*
X151969Y270079D02*
D03*
Y262205D02*
D03*
Y254331D02*
D03*
X144095Y270079D02*
D03*
Y262205D02*
D03*
Y254331D02*
D03*
X136221Y270079D02*
D03*
Y262205D02*
D03*
Y254331D02*
D03*
X128347Y270079D02*
D03*
Y262205D02*
D03*
Y254331D02*
D03*
X120473Y270079D02*
D03*
Y262205D02*
D03*
Y254331D02*
D03*
X112599Y301575D02*
D03*
Y293701D02*
D03*
Y285827D02*
D03*
Y277953D02*
D03*
Y270079D02*
D03*
Y262205D02*
D03*
Y254331D02*
D03*
X104725Y301575D02*
D03*
Y293701D02*
D03*
Y285827D02*
D03*
Y277953D02*
D03*
Y270079D02*
D03*
Y262205D02*
D03*
Y254331D02*
D03*
X96851Y301575D02*
D03*
Y293701D02*
D03*
Y285827D02*
D03*
Y277953D02*
D03*
Y270079D02*
D03*
Y262205D02*
D03*
X88977Y301575D02*
D03*
Y293701D02*
D03*
Y285827D02*
D03*
X81103Y301575D02*
D03*
Y293701D02*
D03*
Y285827D02*
D03*
X73228Y301575D02*
D03*
Y293701D02*
D03*
Y285827D02*
D03*
X65354D02*
D03*
X57480D02*
D03*
Y277953D02*
D03*
Y270079D02*
D03*
Y262205D02*
D03*
Y254331D02*
D03*
X655906Y270079D02*
D03*
Y262205D02*
D03*
Y254331D02*
D03*
Y246457D02*
D03*
Y238583D02*
D03*
Y230709D02*
D03*
Y191339D02*
D03*
Y183465D02*
D03*
Y175591D02*
D03*
X648032Y270079D02*
D03*
Y262205D02*
D03*
Y254331D02*
D03*
Y230709D02*
D03*
X640158Y270079D02*
D03*
Y262205D02*
D03*
Y254331D02*
D03*
Y230709D02*
D03*
X632284Y270079D02*
D03*
Y262205D02*
D03*
Y254331D02*
D03*
Y230709D02*
D03*
Y191339D02*
D03*
Y175591D02*
D03*
X624410Y270079D02*
D03*
Y262205D02*
D03*
Y254331D02*
D03*
Y230709D02*
D03*
Y214961D02*
D03*
Y207087D02*
D03*
Y199213D02*
D03*
Y191339D02*
D03*
X616536Y270079D02*
D03*
Y262205D02*
D03*
Y254331D02*
D03*
Y230709D02*
D03*
Y222835D02*
D03*
Y214961D02*
D03*
Y207087D02*
D03*
Y199213D02*
D03*
Y191339D02*
D03*
X608662Y270079D02*
D03*
Y262205D02*
D03*
Y254331D02*
D03*
Y230709D02*
D03*
Y222835D02*
D03*
Y214961D02*
D03*
Y207087D02*
D03*
Y199213D02*
D03*
Y191339D02*
D03*
X600788Y270079D02*
D03*
Y262205D02*
D03*
Y254331D02*
D03*
Y230709D02*
D03*
Y222835D02*
D03*
Y214961D02*
D03*
Y207087D02*
D03*
Y199213D02*
D03*
Y191339D02*
D03*
X592914Y270079D02*
D03*
Y262205D02*
D03*
Y254331D02*
D03*
Y246457D02*
D03*
Y238583D02*
D03*
Y230709D02*
D03*
Y222835D02*
D03*
Y214961D02*
D03*
Y207087D02*
D03*
Y199213D02*
D03*
Y191339D02*
D03*
X585040Y270079D02*
D03*
Y262205D02*
D03*
Y254331D02*
D03*
Y246457D02*
D03*
Y238583D02*
D03*
Y214961D02*
D03*
Y207087D02*
D03*
Y191339D02*
D03*
X655906Y317323D02*
D03*
Y309449D02*
D03*
Y301575D02*
D03*
Y293701D02*
D03*
X648032D02*
D03*
X640158Y325197D02*
D03*
Y293701D02*
D03*
X632284D02*
D03*
X624410Y325197D02*
D03*
Y293701D02*
D03*
X616536Y325197D02*
D03*
Y293701D02*
D03*
X608662Y325197D02*
D03*
Y293701D02*
D03*
X600788Y325197D02*
D03*
Y293701D02*
D03*
X592914Y325197D02*
D03*
Y317323D02*
D03*
Y309449D02*
D03*
Y301575D02*
D03*
Y293701D02*
D03*
X585040Y325197D02*
D03*
Y317323D02*
D03*
Y309449D02*
D03*
Y301575D02*
D03*
Y293701D02*
D03*
X577166Y325197D02*
D03*
Y317323D02*
D03*
Y309449D02*
D03*
Y301575D02*
D03*
Y293701D02*
D03*
X569292Y325197D02*
D03*
Y317323D02*
D03*
Y309449D02*
D03*
Y301575D02*
D03*
Y293701D02*
D03*
X561418Y325197D02*
D03*
Y317323D02*
D03*
Y309449D02*
D03*
Y301575D02*
D03*
Y293701D02*
D03*
X553544Y325197D02*
D03*
Y317323D02*
D03*
Y309449D02*
D03*
Y301575D02*
D03*
Y293701D02*
D03*
X545670Y325197D02*
D03*
Y309449D02*
D03*
Y293701D02*
D03*
X537796Y325197D02*
D03*
Y309449D02*
D03*
Y293701D02*
D03*
Y270079D02*
D03*
X529922Y325197D02*
D03*
Y317323D02*
D03*
Y309449D02*
D03*
Y301575D02*
D03*
X522048Y325197D02*
D03*
Y270079D02*
D03*
X514174Y325197D02*
D03*
Y317323D02*
D03*
X506299Y325197D02*
D03*
Y317323D02*
D03*
Y309449D02*
D03*
X498425Y325197D02*
D03*
X490552D02*
D03*
Y317323D02*
D03*
Y309449D02*
D03*
X482678Y325197D02*
D03*
Y317323D02*
D03*
Y309449D02*
D03*
X474803Y325197D02*
D03*
Y317323D02*
D03*
Y309449D02*
D03*
Y230709D02*
D03*
Y222835D02*
D03*
Y214961D02*
D03*
Y207087D02*
D03*
Y199213D02*
D03*
X466929Y325197D02*
D03*
Y317323D02*
D03*
Y309449D02*
D03*
Y270079D02*
D03*
Y262205D02*
D03*
Y254331D02*
D03*
Y246457D02*
D03*
Y238583D02*
D03*
Y230709D02*
D03*
Y222835D02*
D03*
Y214961D02*
D03*
Y207087D02*
D03*
Y199213D02*
D03*
X459055Y325197D02*
D03*
Y317323D02*
D03*
Y309449D02*
D03*
Y270079D02*
D03*
Y262205D02*
D03*
Y254331D02*
D03*
Y214961D02*
D03*
X451181Y325197D02*
D03*
Y317323D02*
D03*
Y309449D02*
D03*
Y270079D02*
D03*
Y262205D02*
D03*
Y254331D02*
D03*
Y238583D02*
D03*
Y230709D02*
D03*
Y214961D02*
D03*
Y199213D02*
D03*
X443307Y325197D02*
D03*
Y270079D02*
D03*
Y262205D02*
D03*
Y254331D02*
D03*
Y246457D02*
D03*
Y238583D02*
D03*
Y230709D02*
D03*
Y222835D02*
D03*
Y214961D02*
D03*
Y207087D02*
D03*
Y199213D02*
D03*
X435433Y325197D02*
D03*
Y317323D02*
D03*
Y309449D02*
D03*
Y270079D02*
D03*
X427559Y325197D02*
D03*
Y317323D02*
D03*
Y270079D02*
D03*
X419685Y325197D02*
D03*
Y317323D02*
D03*
Y270079D02*
D03*
X411811Y325197D02*
D03*
Y317323D02*
D03*
Y309449D02*
D03*
Y301575D02*
D03*
Y293701D02*
D03*
Y285827D02*
D03*
Y277953D02*
D03*
Y270079D02*
D03*
X537796Y136221D02*
D03*
Y128347D02*
D03*
Y120473D02*
D03*
Y88977D02*
D03*
Y81103D02*
D03*
Y73228D02*
D03*
Y65354D02*
D03*
Y57480D02*
D03*
X529922Y136221D02*
D03*
Y128347D02*
D03*
Y120473D02*
D03*
Y88977D02*
D03*
Y81103D02*
D03*
Y73228D02*
D03*
Y65354D02*
D03*
Y57480D02*
D03*
X522048Y136221D02*
D03*
Y128347D02*
D03*
Y120473D02*
D03*
Y88977D02*
D03*
Y81103D02*
D03*
Y73228D02*
D03*
Y65354D02*
D03*
Y57480D02*
D03*
X514174Y151969D02*
D03*
Y144095D02*
D03*
Y136221D02*
D03*
Y128347D02*
D03*
Y120473D02*
D03*
Y112599D02*
D03*
Y104725D02*
D03*
Y96851D02*
D03*
Y88977D02*
D03*
Y81103D02*
D03*
Y73228D02*
D03*
Y65354D02*
D03*
Y57480D02*
D03*
X506299Y151969D02*
D03*
Y144095D02*
D03*
Y136221D02*
D03*
Y128347D02*
D03*
Y120473D02*
D03*
Y112599D02*
D03*
Y104725D02*
D03*
Y96851D02*
D03*
Y88977D02*
D03*
Y81103D02*
D03*
Y73228D02*
D03*
Y65354D02*
D03*
Y57480D02*
D03*
X498425Y151969D02*
D03*
Y144095D02*
D03*
Y136221D02*
D03*
Y128347D02*
D03*
Y120473D02*
D03*
Y112599D02*
D03*
Y104725D02*
D03*
Y96851D02*
D03*
Y88977D02*
D03*
Y81103D02*
D03*
Y73228D02*
D03*
Y65354D02*
D03*
Y57480D02*
D03*
X490552Y151969D02*
D03*
Y144095D02*
D03*
Y136221D02*
D03*
Y128347D02*
D03*
Y120473D02*
D03*
Y112599D02*
D03*
Y104725D02*
D03*
Y96851D02*
D03*
Y88977D02*
D03*
Y81103D02*
D03*
Y73228D02*
D03*
Y65354D02*
D03*
Y57480D02*
D03*
X482678Y151969D02*
D03*
Y144095D02*
D03*
Y136221D02*
D03*
Y128347D02*
D03*
Y120473D02*
D03*
Y112599D02*
D03*
Y104725D02*
D03*
Y96851D02*
D03*
Y88977D02*
D03*
Y81103D02*
D03*
Y73228D02*
D03*
Y65354D02*
D03*
Y57480D02*
D03*
X474803Y151969D02*
D03*
Y144095D02*
D03*
Y136221D02*
D03*
Y128347D02*
D03*
Y120473D02*
D03*
Y112599D02*
D03*
Y104725D02*
D03*
Y96851D02*
D03*
Y88977D02*
D03*
Y81103D02*
D03*
Y73228D02*
D03*
Y65354D02*
D03*
Y57480D02*
D03*
X466929Y151969D02*
D03*
Y144095D02*
D03*
Y136221D02*
D03*
Y128347D02*
D03*
Y120473D02*
D03*
Y112599D02*
D03*
Y104725D02*
D03*
Y96851D02*
D03*
Y88977D02*
D03*
Y81103D02*
D03*
Y73228D02*
D03*
Y65354D02*
D03*
Y57480D02*
D03*
X459055Y175591D02*
D03*
Y136221D02*
D03*
Y112599D02*
D03*
Y104725D02*
D03*
Y96851D02*
D03*
Y88977D02*
D03*
Y81103D02*
D03*
Y73228D02*
D03*
Y65354D02*
D03*
Y57480D02*
D03*
X451181Y175591D02*
D03*
Y159843D02*
D03*
Y151969D02*
D03*
Y136221D02*
D03*
Y120473D02*
D03*
Y112599D02*
D03*
Y104725D02*
D03*
Y96851D02*
D03*
Y88977D02*
D03*
Y81103D02*
D03*
Y73228D02*
D03*
Y65354D02*
D03*
X506693Y263386D02*
D03*
X264961Y240945D02*
D03*
X209055Y115919D02*
D03*
X573622Y178209D02*
D03*
X564961Y245276D02*
D03*
X557792Y245179D02*
D03*
X139370Y141732D02*
D03*
Y136221D02*
D03*
X193700Y148819D02*
D03*
X194559Y125654D02*
D03*
X197637Y119685D02*
D03*
X200787Y161811D02*
D03*
X183465Y84646D02*
D03*
X410235Y95275D02*
D03*
X333465Y98032D02*
D03*
X333071Y66929D02*
D03*
X362992Y324410D02*
D03*
X363779Y332677D02*
D03*
X564156Y160433D02*
D03*
X323622Y79176D02*
D03*
X436614Y27559D02*
D03*
X416535Y78740D02*
D03*
X559449Y185827D02*
D03*
X554035Y182283D02*
D03*
X548819Y180709D02*
D03*
X551575Y225197D02*
D03*
X164370Y153937D02*
D03*
X212205Y135039D02*
D03*
Y130315D02*
D03*
D67*
X641732Y114862D02*
D03*
X644882Y209473D02*
D03*
D68*
X557087Y206496D02*
D03*
Y202165D02*
D03*
X552756Y206496D02*
D03*
Y202165D02*
D03*
X548425Y206496D02*
D03*
Y202165D02*
D03*
D69*
X19685Y334646D02*
D03*
X649606D02*
D03*
Y19685D02*
D03*
X19685D02*
D03*
D133*
X252102Y129118D02*
D03*
D134*
X228133Y90945D02*
D03*
Y101969D02*
D03*
X107795Y226535D02*
D03*
Y237559D02*
D03*
D135*
X183465Y97146D02*
D03*
Y90256D02*
D03*
D136*
X73819Y270079D02*
D03*
X89173D02*
D03*
X73976Y236850D02*
D03*
X89331D02*
D03*
X73976Y219213D02*
D03*
X89331D02*
D03*
X73701Y201969D02*
D03*
X89055D02*
D03*
D137*
X417051Y85576D02*
D03*
Y105576D02*
D03*
X390551D02*
D03*
Y85576D02*
D03*
D138*
X496850Y266968D02*
D03*
Y252992D02*
D03*
D139*
X132173Y225886D02*
D03*
Y214272D02*
D03*
X119575Y225886D02*
D03*
Y214272D02*
D03*
D140*
X256102Y240945D02*
D03*
X244685D02*
D03*
D141*
X259055Y199193D02*
D03*
Y214193D02*
D03*
M02*
