%TF.GenerationSoftware,Altium Limited,Altium Designer,19.0.10 (269)*%
G04 Layer_Physical_Order=1*
G04 Layer_Color=255*
%FSLAX26Y26*%
%MOIN*%
%TF.FileFunction,Copper,L1,Top,Signal*%
%TF.Part,Single*%
G01*
G75*
%TA.AperFunction,SMDPad,CuDef*%
%ADD10R,0.051181X0.043307*%
%ADD11R,0.053150X0.057087*%
%ADD12R,0.053150X0.045276*%
%ADD13R,0.080709X0.045276*%
%ADD14R,0.045276X0.053150*%
%ADD15R,0.185039X0.181102*%
%ADD16R,0.027559X0.045276*%
%ADD17R,0.057087X0.051181*%
%ADD18R,0.163386X0.192913*%
%TA.AperFunction,Conductor*%
%ADD19C,0.008000*%
%ADD20C,0.050000*%
%ADD21C,0.010000*%
%ADD22C,0.100000*%
%TA.AperFunction,ComponentPad*%
%ADD23C,0.094488*%
%ADD24C,0.086614*%
%ADD25C,0.129921*%
%TA.AperFunction,ViaPad*%
%ADD26C,0.060000*%
%ADD27C,0.250000*%
%TA.AperFunction,ComponentPad*%
%ADD28C,0.098425*%
%ADD29C,0.078740*%
%TA.AperFunction,ViaPad*%
%ADD30C,0.050000*%
G36*
X4984707Y15293D02*
X15293D01*
Y4184707D01*
X4984707D01*
Y15293D01*
D02*
G37*
%LPC*%
G36*
X4342787Y4112929D02*
X4271606D01*
Y4096569D01*
X4008497D01*
Y4112929D01*
X3937316D01*
Y4096569D01*
X3674206D01*
Y4112929D01*
X3603025D01*
Y4096569D01*
X3339915D01*
Y4112929D01*
X3268734D01*
Y4096569D01*
X3005625D01*
Y4112929D01*
X2934444D01*
Y4096569D01*
X2671334D01*
Y4112929D01*
X2600153D01*
Y4096569D01*
X2337044D01*
Y4112929D01*
X2265863D01*
Y4096569D01*
X2002753D01*
Y4112929D01*
X1931572D01*
Y4096569D01*
X1668462D01*
Y4112929D01*
X1597281D01*
Y4096569D01*
X1334172D01*
Y4112929D01*
X1262991D01*
Y4096569D01*
X999881D01*
Y4112929D01*
X928700D01*
Y4049622D01*
X999881D01*
Y4065982D01*
X1262991D01*
Y4049622D01*
X1334172D01*
Y4065982D01*
X1597281D01*
Y4049622D01*
X1668462D01*
Y4065982D01*
X1931572D01*
Y4049622D01*
X2002753D01*
Y4065982D01*
X2265863D01*
Y4049622D01*
X2337044D01*
Y4065982D01*
X2600153D01*
Y4049622D01*
X2671334D01*
Y4065982D01*
X2934444D01*
Y4049622D01*
X3005625D01*
Y4065982D01*
X3268734D01*
Y4049622D01*
X3314473D01*
X3319063Y4046555D01*
X3324915Y4045391D01*
X3330768Y4046555D01*
X3335358Y4049622D01*
X3339915D01*
Y4059207D01*
X3340209Y4060685D01*
Y4064622D01*
X3341325Y4065982D01*
X3603025D01*
Y4049622D01*
X3674206D01*
Y4065982D01*
X3937316D01*
Y4049622D01*
X4008497D01*
Y4065982D01*
X4271606D01*
Y4049622D01*
X4317221D01*
X4339466Y4027378D01*
X4337394Y4022378D01*
X4271606D01*
Y4006018D01*
X4252079D01*
X4251510Y4007391D01*
X4245900Y4014702D01*
X4238589Y4020313D01*
X4230075Y4023839D01*
X4220938Y4025042D01*
X4211801Y4023839D01*
X4203287Y4020313D01*
X4195976Y4014702D01*
X4190366Y4007391D01*
X4186839Y3998877D01*
X4185636Y3989740D01*
X4186839Y3980603D01*
X4190366Y3972089D01*
X4195976Y3964778D01*
X4203287Y3959168D01*
X4211801Y3955641D01*
X4220938Y3954438D01*
X4230075Y3955641D01*
X4238589Y3959168D01*
X4245900Y3964778D01*
X4251510Y3972089D01*
X4252894Y3975430D01*
X4271606D01*
Y3959071D01*
X4342787D01*
Y4016985D01*
X4347787Y4019056D01*
X4451706Y3915137D01*
Y3876000D01*
X4452870Y3870147D01*
X4456186Y3865186D01*
X4701706Y3619665D01*
Y2795185D01*
X4235093Y2328572D01*
X1874274D01*
Y2393564D01*
X1878894Y2395477D01*
X1926186Y2348186D01*
X1931147Y2344870D01*
X1937000Y2343706D01*
X2516500D01*
X2522353Y2344870D01*
X2527314Y2348186D01*
X2530630Y2353147D01*
X2531794Y2359000D01*
Y2715000D01*
X2530630Y2720853D01*
X2527314Y2725814D01*
X2522353Y2729130D01*
X2516500Y2730294D01*
X2298500D01*
X2292647Y2729130D01*
X2287686Y2725814D01*
X2169165Y2607294D01*
X1874500D01*
X1874274Y2607479D01*
Y3067999D01*
X1874274Y3068000D01*
X1873188Y3073463D01*
X1870093Y3078093D01*
X1870093Y3078094D01*
X1803700Y3144486D01*
X1805099Y3147863D01*
X1806302Y3157000D01*
X1805099Y3166137D01*
X1801572Y3174651D01*
X1795962Y3181962D01*
X1788651Y3187572D01*
X1780137Y3191099D01*
X1771000Y3192302D01*
X1761863Y3191099D01*
X1753349Y3187572D01*
X1746038Y3181962D01*
X1740428Y3174651D01*
X1736901Y3166137D01*
X1735698Y3157000D01*
X1736901Y3147863D01*
X1740428Y3139349D01*
X1746038Y3132038D01*
X1753349Y3126428D01*
X1761863Y3122901D01*
X1771000Y3121698D01*
X1780137Y3122901D01*
X1783514Y3124300D01*
X1845726Y3062087D01*
Y2738710D01*
X1844000Y2737294D01*
X1626000D01*
X1620147Y2736130D01*
X1615186Y2732814D01*
X1570294Y2687923D01*
X1565294Y2689994D01*
Y2781000D01*
X1564130Y2786853D01*
X1560814Y2791814D01*
X1384814Y2967814D01*
X1379853Y2971130D01*
X1374000Y2972294D01*
X990335D01*
X912814Y3049814D01*
X907853Y3053130D01*
X902000Y3054294D01*
X760947D01*
X759542Y3059294D01*
X767430Y3069573D01*
X772801Y3082541D01*
X774633Y3096457D01*
X772801Y3110373D01*
X767430Y3123340D01*
X760409Y3132490D01*
X762875Y3137490D01*
X975770D01*
X992181Y3121079D01*
X992181Y3121079D01*
X996812Y3117985D01*
X1002274Y3116898D01*
X1002275Y3116898D01*
X1270706D01*
Y3104103D01*
X1261102Y3100125D01*
X1250789Y3092211D01*
X1242876Y3081898D01*
X1237901Y3069888D01*
X1236204Y3057000D01*
X1237901Y3044112D01*
X1242876Y3032102D01*
X1250789Y3021789D01*
X1261102Y3013875D01*
X1273112Y3008901D01*
X1286000Y3007204D01*
X1298888Y3008901D01*
X1310898Y3013875D01*
X1321211Y3021789D01*
X1329125Y3032102D01*
X1334100Y3044112D01*
X1335796Y3057000D01*
X1334100Y3069888D01*
X1329125Y3081898D01*
X1321211Y3092211D01*
X1310898Y3100125D01*
X1301294Y3104103D01*
Y3124838D01*
X1307671Y3131214D01*
X1341504D01*
Y3208301D01*
X1290072D01*
X1288159Y3212920D01*
X1297936Y3222698D01*
X2286236D01*
X2621408Y2887526D01*
X2619904Y2884347D01*
X2618857Y2883006D01*
X2607457Y2881883D01*
X2596296Y2878497D01*
X2586009Y2872999D01*
X2576993Y2865600D01*
X2569593Y2856583D01*
X2564095Y2846297D01*
X2560709Y2835135D01*
X2559566Y2823528D01*
X2560709Y2811920D01*
X2564095Y2800758D01*
X2569593Y2790472D01*
X2576993Y2781455D01*
X2586009Y2774056D01*
X2596296Y2768557D01*
X2607457Y2765172D01*
X2619065Y2764028D01*
X2630673Y2765172D01*
X2641834Y2768557D01*
X2652121Y2774056D01*
X2661137Y2781455D01*
X2668537Y2790472D01*
X2674035Y2800758D01*
X2677421Y2811920D01*
X2678544Y2823319D01*
X2679884Y2824366D01*
X2683064Y2825870D01*
X2724104Y2784830D01*
Y2724764D01*
X2719200Y2718788D01*
X2713701Y2708502D01*
X2710316Y2697340D01*
X2709172Y2685732D01*
X2710316Y2674125D01*
X2713701Y2662963D01*
X2719200Y2652676D01*
X2726599Y2643660D01*
X2735615Y2636261D01*
X2745902Y2630762D01*
X2757064Y2627376D01*
X2768671Y2626233D01*
X2780279Y2627376D01*
X2791441Y2630762D01*
X2801727Y2636261D01*
X2810744Y2643660D01*
X2818143Y2652676D01*
X2823641Y2662963D01*
X2827027Y2674125D01*
X2828170Y2685732D01*
X2827027Y2697340D01*
X2823641Y2708502D01*
X2818143Y2718788D01*
X2810744Y2727805D01*
X2801727Y2735204D01*
X2794708Y2738956D01*
Y2799453D01*
X2793505Y2808590D01*
X2789978Y2817104D01*
X2784368Y2824415D01*
X2612837Y2995946D01*
X2616141Y2999714D01*
X2619758Y2996938D01*
X2631767Y2991964D01*
X2644656Y2990267D01*
X2657544Y2991964D01*
X2669554Y2996938D01*
X2679867Y3004852D01*
X2687780Y3015165D01*
X2692755Y3027175D01*
X2694452Y3040063D01*
X2692755Y3052951D01*
X2687780Y3064961D01*
X2679867Y3075274D01*
X2669554Y3083188D01*
X2659950Y3087166D01*
Y3107901D01*
X2672568Y3120520D01*
X2701159D01*
Y3197606D01*
X2628010D01*
Y3120520D01*
X2628010D01*
X2629617Y3115520D01*
X2629362Y3114236D01*
Y3087166D01*
X2619758Y3083188D01*
X2609444Y3075274D01*
X2601531Y3064961D01*
X2596556Y3052951D01*
X2594860Y3040063D01*
X2596556Y3027175D01*
X2601531Y3015165D01*
X2604306Y3011548D01*
X2600539Y3008244D01*
X2330705Y3278079D01*
X2332618Y3282698D01*
X2711782D01*
X2792255Y3202226D01*
X2790341Y3197606D01*
X2744151D01*
Y3120520D01*
X2775437D01*
X2788354Y3107602D01*
Y3082655D01*
X2778736Y3075274D01*
X2770822Y3064961D01*
X2765848Y3052951D01*
X2764151Y3040063D01*
X2765848Y3027175D01*
X2770822Y3015165D01*
X2778736Y3004852D01*
X2789049Y2996938D01*
X2801059Y2991964D01*
X2813947Y2990267D01*
X2826835Y2991964D01*
X2838845Y2996938D01*
X2849158Y3004852D01*
X2857072Y3015165D01*
X2862046Y3027175D01*
X2863743Y3040063D01*
X2862046Y3052951D01*
X2857072Y3064961D01*
X2849158Y3075274D01*
X2838845Y3083188D01*
X2826835Y3088162D01*
X2818942Y3089202D01*
Y3113937D01*
X2817778Y3119790D01*
X2817301Y3120520D01*
X2817301D01*
X2817301Y3120520D01*
Y3170646D01*
X2821921Y3172560D01*
X3264059Y2730421D01*
Y2623291D01*
X3257164Y2617632D01*
X3249666Y2608495D01*
X3244094Y2598072D01*
X3240664Y2586762D01*
X3239505Y2575000D01*
X3240664Y2563238D01*
X3244094Y2551928D01*
X3249666Y2541505D01*
X3257164Y2532368D01*
X3266300Y2524870D01*
X3276723Y2519299D01*
X3288033Y2515868D01*
X3299795Y2514710D01*
X3432205D01*
X3443967Y2515868D01*
X3455277Y2519299D01*
X3465700Y2524870D01*
X3474836Y2532368D01*
X3482334Y2541505D01*
X3487906Y2551928D01*
X3491337Y2563238D01*
X3492495Y2575000D01*
X3491337Y2586762D01*
X3487906Y2598072D01*
X3482334Y2608495D01*
X3474836Y2617632D01*
X3465700Y2625130D01*
X3455277Y2630701D01*
X3443967Y2634132D01*
X3432205Y2635290D01*
X3334664D01*
Y2745043D01*
X3333461Y2754180D01*
X3329934Y2762694D01*
X3324324Y2770006D01*
X2756251Y3338079D01*
X2758164Y3342698D01*
X2820899D01*
X3578885Y2584712D01*
X3577956Y2575276D01*
X3579114Y2563514D01*
X3582545Y2552204D01*
X3588117Y2541780D01*
X3595614Y2532644D01*
X3604751Y2525146D01*
X3615174Y2519575D01*
X3626484Y2516144D01*
X3638246Y2514985D01*
X3772104D01*
X3783867Y2516144D01*
X3795177Y2519575D01*
X3805600Y2525146D01*
X3814736Y2532644D01*
X3822234Y2541780D01*
X3827805Y2552204D01*
X3831236Y2563514D01*
X3832395Y2575276D01*
X3831236Y2587038D01*
X3827805Y2598348D01*
X3822234Y2608771D01*
X3814736Y2617907D01*
X3805600Y2625405D01*
X3795177Y2630977D01*
X3783867Y2634407D01*
X3772104Y2635566D01*
X3638246D01*
X3628810Y2634637D01*
X2865368Y3398079D01*
X2867281Y3402698D01*
X3101206D01*
X3919018Y2584886D01*
X3918088Y2575450D01*
X3919247Y2563688D01*
X3922678Y2552378D01*
X3928249Y2541954D01*
X3935747Y2532818D01*
X3944883Y2525320D01*
X3955307Y2519749D01*
X3966617Y2516318D01*
X3978379Y2515159D01*
X4111755D01*
X4123517Y2516318D01*
X4134827Y2519749D01*
X4145251Y2525320D01*
X4154387Y2532818D01*
X4161885Y2541954D01*
X4167456Y2552378D01*
X4170887Y2563688D01*
X4172046Y2575450D01*
X4170887Y2587212D01*
X4167456Y2598522D01*
X4161885Y2608945D01*
X4154387Y2618081D01*
X4145251Y2625579D01*
X4134827Y2631151D01*
X4123517Y2634581D01*
X4111755Y2635740D01*
X3978379D01*
X3968942Y2634811D01*
X3145646Y3458106D01*
X3147560Y3462726D01*
X4207087D01*
X4577300Y3092514D01*
X4575901Y3089137D01*
X4574698Y3080000D01*
X4575901Y3070863D01*
X4579428Y3062349D01*
X4585038Y3055038D01*
X4592349Y3049428D01*
X4600863Y3045901D01*
X4610000Y3044698D01*
X4619137Y3045901D01*
X4627651Y3049428D01*
X4634962Y3055038D01*
X4640572Y3062349D01*
X4644099Y3070863D01*
X4645302Y3080000D01*
X4644099Y3089137D01*
X4640572Y3097651D01*
X4634962Y3104962D01*
X4627651Y3110572D01*
X4619137Y3114099D01*
X4610000Y3115302D01*
X4600863Y3114099D01*
X4597486Y3112700D01*
X4234081Y3476106D01*
X4235994Y3480726D01*
X4294087D01*
X4577300Y3197513D01*
X4575901Y3194137D01*
X4574698Y3185000D01*
X4575901Y3175863D01*
X4579428Y3167349D01*
X4585038Y3160038D01*
X4592349Y3154428D01*
X4600863Y3150901D01*
X4610000Y3149698D01*
X4619137Y3150901D01*
X4627651Y3154428D01*
X4634962Y3160038D01*
X4640572Y3167349D01*
X4644099Y3175863D01*
X4645302Y3185000D01*
X4644099Y3194137D01*
X4640572Y3202651D01*
X4634962Y3209962D01*
X4627651Y3215572D01*
X4619137Y3219099D01*
X4610000Y3220302D01*
X4600863Y3219099D01*
X4597487Y3217700D01*
X4321081Y3494106D01*
X4322994Y3498726D01*
X4381087D01*
X4577300Y3302514D01*
X4575901Y3299137D01*
X4574698Y3290000D01*
X4575901Y3280863D01*
X4579428Y3272349D01*
X4585038Y3265038D01*
X4592349Y3259428D01*
X4600863Y3255901D01*
X4610000Y3254698D01*
X4619137Y3255901D01*
X4627651Y3259428D01*
X4634962Y3265038D01*
X4640572Y3272349D01*
X4644099Y3280863D01*
X4645302Y3290000D01*
X4644099Y3299137D01*
X4640572Y3307651D01*
X4634962Y3314962D01*
X4627651Y3320572D01*
X4619137Y3324099D01*
X4610000Y3325302D01*
X4600863Y3324099D01*
X4597486Y3322700D01*
X4408081Y3512106D01*
X4409994Y3516726D01*
X4468087D01*
X4577300Y3407514D01*
X4575901Y3404137D01*
X4574698Y3395000D01*
X4575901Y3385863D01*
X4579428Y3377349D01*
X4585038Y3370038D01*
X4592349Y3364428D01*
X4600863Y3360901D01*
X4610000Y3359698D01*
X4619137Y3360901D01*
X4627651Y3364428D01*
X4634962Y3370038D01*
X4640572Y3377349D01*
X4644099Y3385863D01*
X4645302Y3395000D01*
X4644099Y3404137D01*
X4640572Y3412651D01*
X4634962Y3419962D01*
X4627651Y3425572D01*
X4619137Y3429099D01*
X4610000Y3430302D01*
X4600863Y3429099D01*
X4597486Y3427700D01*
X4494062Y3531124D01*
X4495976Y3535744D01*
X4554069D01*
X4577300Y3512514D01*
X4575901Y3509137D01*
X4574698Y3500000D01*
X4575901Y3490863D01*
X4579428Y3482349D01*
X4585038Y3475038D01*
X4592349Y3469428D01*
X4600863Y3465901D01*
X4610000Y3464698D01*
X4619137Y3465901D01*
X4627651Y3469428D01*
X4634962Y3475038D01*
X4640572Y3482349D01*
X4644099Y3490863D01*
X4645302Y3500000D01*
X4644099Y3509137D01*
X4640572Y3517651D01*
X4634962Y3524962D01*
X4627651Y3530572D01*
X4619137Y3534099D01*
X4610000Y3535302D01*
X4600863Y3534099D01*
X4597486Y3532700D01*
X4570075Y3560112D01*
X4565444Y3563206D01*
X4559982Y3564293D01*
X4559981Y3564293D01*
X4362775D01*
X4361781Y3569293D01*
X4362107Y3569428D01*
X4369418Y3575038D01*
X4375028Y3582349D01*
X4378555Y3590863D01*
X4379758Y3600000D01*
X4378555Y3609137D01*
X4375028Y3617651D01*
X4369418Y3624962D01*
X4362107Y3630572D01*
X4359750Y3631549D01*
Y3647457D01*
X4381842D01*
Y3724543D01*
X4308693D01*
Y3647457D01*
X4329162D01*
Y3631549D01*
X4326805Y3630572D01*
X4319493Y3624962D01*
X4313883Y3617651D01*
X4310357Y3609137D01*
X4309154Y3600000D01*
X4310357Y3590863D01*
X4313883Y3582349D01*
X4319493Y3575038D01*
X4326805Y3569428D01*
X4327131Y3569293D01*
X4326136Y3564293D01*
X4029296D01*
X4028302Y3569293D01*
X4028628Y3569428D01*
X4035939Y3575038D01*
X4041549Y3582349D01*
X4045076Y3590863D01*
X4046279Y3600000D01*
X4045076Y3609137D01*
X4041549Y3617651D01*
X4035939Y3624962D01*
X4028628Y3630572D01*
X4026271Y3631549D01*
Y3647457D01*
X4047552D01*
Y3724543D01*
X3974402D01*
Y3647457D01*
X3995683D01*
Y3631549D01*
X3993326Y3630572D01*
X3986015Y3624962D01*
X3980405Y3617651D01*
X3976878Y3609137D01*
X3975675Y3600000D01*
X3976878Y3590863D01*
X3980405Y3582349D01*
X3986015Y3575038D01*
X3993326Y3569428D01*
X3993652Y3569293D01*
X3992657Y3564293D01*
X3695006D01*
X3694011Y3569293D01*
X3694337Y3569428D01*
X3701649Y3575038D01*
X3707259Y3582349D01*
X3710785Y3590863D01*
X3711988Y3600000D01*
X3710785Y3609137D01*
X3707259Y3617651D01*
X3701649Y3624962D01*
X3694337Y3630572D01*
X3691980Y3631549D01*
Y3647457D01*
X3713261D01*
Y3724543D01*
X3640111D01*
Y3647457D01*
X3661392D01*
Y3631549D01*
X3659035Y3630572D01*
X3651724Y3624962D01*
X3646114Y3617651D01*
X3642587Y3609137D01*
X3641384Y3600000D01*
X3642587Y3590863D01*
X3646114Y3582349D01*
X3651724Y3575038D01*
X3659035Y3569428D01*
X3659361Y3569293D01*
X3658367Y3564293D01*
X3449762D01*
X3449671Y3564274D01*
X3360671D01*
X3359677Y3569274D01*
X3360047Y3569428D01*
X3367358Y3575038D01*
X3372968Y3582349D01*
X3376495Y3590863D01*
X3377698Y3600000D01*
X3376495Y3609137D01*
X3372968Y3617651D01*
X3367358Y3624962D01*
X3360047Y3630572D01*
X3357690Y3631549D01*
Y3647457D01*
X3378970D01*
Y3724543D01*
X3305821D01*
Y3647457D01*
X3327102D01*
Y3631549D01*
X3324745Y3630572D01*
X3317433Y3624962D01*
X3311823Y3617651D01*
X3308297Y3609137D01*
X3307094Y3600000D01*
X3308297Y3590863D01*
X3311823Y3582349D01*
X3317433Y3575038D01*
X3324745Y3569428D01*
X3325115Y3569274D01*
X3324120Y3564274D01*
X3026381D01*
X3025386Y3569274D01*
X3025756Y3569428D01*
X3033067Y3575038D01*
X3038677Y3582349D01*
X3042204Y3590863D01*
X3043407Y3600000D01*
X3042204Y3609137D01*
X3038677Y3617651D01*
X3033067Y3624962D01*
X3025756Y3630572D01*
X3023399Y3631549D01*
Y3647457D01*
X3044680D01*
Y3724543D01*
X2971530D01*
Y3647457D01*
X2992811D01*
Y3631549D01*
X2990454Y3630572D01*
X2983143Y3624962D01*
X2977533Y3617651D01*
X2974006Y3609137D01*
X2972803Y3600000D01*
X2974006Y3590863D01*
X2977533Y3582349D01*
X2983143Y3575038D01*
X2990454Y3569428D01*
X2990824Y3569274D01*
X2989830Y3564274D01*
X2692090D01*
X2691095Y3569274D01*
X2691465Y3569428D01*
X2698777Y3575038D01*
X2704387Y3582349D01*
X2707914Y3590863D01*
X2709117Y3600000D01*
X2707914Y3609137D01*
X2704387Y3617651D01*
X2698777Y3624962D01*
X2691465Y3630572D01*
X2689108Y3631549D01*
Y3647457D01*
X2710389D01*
Y3724543D01*
X2637240D01*
Y3647457D01*
X2658521D01*
Y3631549D01*
X2656164Y3630572D01*
X2648852Y3624962D01*
X2643242Y3617651D01*
X2639715Y3609137D01*
X2638512Y3600000D01*
X2639715Y3590863D01*
X2643242Y3582349D01*
X2648852Y3575038D01*
X2656164Y3569428D01*
X2656534Y3569274D01*
X2655539Y3564274D01*
X2354818D01*
Y3647457D01*
X2376099D01*
Y3724543D01*
X2302949D01*
Y3647457D01*
X2324230D01*
Y3550000D01*
X2324401Y3549139D01*
X2321229Y3545274D01*
X2030146D01*
X2020527Y3554893D01*
Y3647457D01*
X2041808D01*
Y3724543D01*
X1968659D01*
Y3647457D01*
X1989939D01*
Y3550000D01*
X1991104Y3544147D01*
X1994419Y3539186D01*
X1998764Y3536282D01*
X2003153Y3531894D01*
X2001239Y3527274D01*
X1713855D01*
X1686237Y3554893D01*
Y3647457D01*
X1707517D01*
Y3724543D01*
X1634368D01*
Y3647457D01*
X1655649D01*
Y3550000D01*
X1656813Y3544147D01*
X1660128Y3539186D01*
X1664473Y3536282D01*
X1686862Y3513894D01*
X1684948Y3509274D01*
X1397565D01*
X1351946Y3554893D01*
Y3647457D01*
X1373227D01*
Y3724543D01*
X1300077D01*
Y3647457D01*
X1321358D01*
Y3550000D01*
X1322522Y3544147D01*
X1325838Y3539186D01*
X1330183Y3536282D01*
X1370571Y3495894D01*
X1368658Y3491274D01*
X1081274D01*
X1017655Y3554893D01*
Y3647457D01*
X1038936D01*
Y3724543D01*
X965787D01*
Y3647457D01*
X987068D01*
Y3550000D01*
X988232Y3544147D01*
X991547Y3539186D01*
X995892Y3536282D01*
X1054253Y3477921D01*
X1052340Y3473302D01*
X629339D01*
X620202Y3472099D01*
X611688Y3468572D01*
X604376Y3462962D01*
X409301Y3267887D01*
X405906Y3268334D01*
X391990Y3266502D01*
X379022Y3261131D01*
X367886Y3252586D01*
X359342Y3241450D01*
X353971Y3228483D01*
X352138Y3214567D01*
X353971Y3200651D01*
X359342Y3187683D01*
X367886Y3176548D01*
X379022Y3168003D01*
X391990Y3162632D01*
X405906Y3160800D01*
X419821Y3162632D01*
X432789Y3168003D01*
X443925Y3176548D01*
X452469Y3187683D01*
X457841Y3200651D01*
X459673Y3214567D01*
X459226Y3217962D01*
X643961Y3402698D01*
X659772D01*
X661686Y3398079D01*
X544484Y3280877D01*
X538874Y3273566D01*
X535348Y3265052D01*
X534145Y3255915D01*
Y3245158D01*
X497346Y3208359D01*
X490415Y3207447D01*
X477447Y3202075D01*
X466312Y3193531D01*
X457767Y3182395D01*
X452396Y3169428D01*
X450564Y3155512D01*
X452396Y3141596D01*
X457767Y3128628D01*
X466312Y3117493D01*
X477447Y3108948D01*
X490415Y3103577D01*
X504331Y3101745D01*
X518247Y3103577D01*
X531214Y3108948D01*
X542350Y3117493D01*
X550894Y3128628D01*
X556266Y3141596D01*
X558098Y3155512D01*
X556498Y3167662D01*
X569924Y3181088D01*
X574163Y3178256D01*
X570506Y3169428D01*
X568674Y3155512D01*
X570506Y3141596D01*
X575877Y3128628D01*
X584422Y3117493D01*
X591572Y3112006D01*
X592007Y3105370D01*
X554472Y3067836D01*
X549451Y3067523D01*
X548064Y3067974D01*
X542350Y3075421D01*
X531214Y3083965D01*
X518247Y3089337D01*
X504331Y3091169D01*
X490415Y3089337D01*
X477447Y3083965D01*
X466312Y3075421D01*
X457767Y3064285D01*
X452396Y3051318D01*
X450564Y3037402D01*
X452396Y3023486D01*
X457767Y3010518D01*
X466312Y2999383D01*
X477447Y2990838D01*
X490415Y2985467D01*
X504331Y2983635D01*
X518247Y2985467D01*
X531214Y2990838D01*
X542350Y2999383D01*
X544089Y3001649D01*
X548824Y3000042D01*
Y2983971D01*
X530856Y2966003D01*
X518247Y2971226D01*
X504331Y2973058D01*
X490415Y2971226D01*
X477447Y2965855D01*
X466312Y2957310D01*
X457767Y2946175D01*
X452396Y2933207D01*
X450564Y2919291D01*
X452396Y2905375D01*
X457767Y2892408D01*
X466312Y2881272D01*
X477447Y2872728D01*
X490415Y2867356D01*
X504331Y2865524D01*
X518247Y2867356D01*
X531214Y2872728D01*
X542350Y2881272D01*
X550894Y2892408D01*
X556266Y2905375D01*
X558098Y2919291D01*
X556266Y2933207D01*
X551043Y2945816D01*
X573191Y2967965D01*
X573192Y2967965D01*
X576286Y2972596D01*
X577372Y2978059D01*
X577372Y2978059D01*
Y3000792D01*
X582107Y3002399D01*
X584422Y2999383D01*
X595557Y2990838D01*
X608525Y2985467D01*
X619997Y2983956D01*
X622854Y2982770D01*
X624706Y2978890D01*
Y2975045D01*
X622441Y2973058D01*
X608525Y2971226D01*
X595557Y2965855D01*
X584422Y2957310D01*
X575877Y2946175D01*
X570506Y2933207D01*
X568674Y2919291D01*
X570506Y2905375D01*
X575877Y2892408D01*
X584422Y2881272D01*
X595557Y2872728D01*
X608525Y2867356D01*
X622441Y2865524D01*
X624706Y2863537D01*
Y2856935D01*
X622441Y2854948D01*
X608525Y2853116D01*
X595557Y2847745D01*
X584422Y2839200D01*
X575877Y2828065D01*
X570506Y2815097D01*
X569332Y2806181D01*
X622441D01*
Y2801181D01*
X627441D01*
Y2748072D01*
X636357Y2749246D01*
X649324Y2754617D01*
X660460Y2763162D01*
X664442Y2763976D01*
X666600Y2762730D01*
X668672Y2761345D01*
X669133Y2756529D01*
X668931Y2756042D01*
X667757Y2747126D01*
X720866D01*
Y2742126D01*
X725866D01*
Y2689017D01*
X734782Y2690191D01*
X735269Y2690393D01*
X740085Y2689932D01*
X741471Y2687859D01*
X742717Y2685701D01*
X743119Y2685392D01*
X743401Y2684970D01*
X820186Y2608186D01*
X825147Y2604870D01*
X831000Y2603706D01*
X879882D01*
X1186647Y2599074D01*
X1186706Y2599000D01*
Y2434527D01*
X1185706Y2429500D01*
X1186870Y2423647D01*
X1190186Y2418686D01*
X1253686Y2355186D01*
X1258647Y2351870D01*
X1264500Y2350706D01*
X1844000D01*
X1845726Y2349290D01*
Y2328572D01*
X1228783D01*
X1222930Y2327408D01*
X1217968Y2324093D01*
X1214653Y2319131D01*
X1213489Y2313278D01*
X1213489Y1634278D01*
X1214653Y1628426D01*
X1217968Y1623464D01*
X1222930Y1620149D01*
X1228783Y1618984D01*
X1370927D01*
Y1602906D01*
X1349646D01*
Y1525819D01*
X1349646Y1525819D01*
X1349646D01*
X1349646Y1525819D01*
X1348365Y1521349D01*
X1347279Y1519724D01*
X1296907Y1469351D01*
X1293812Y1464720D01*
X1292726Y1459258D01*
X1292726Y1459257D01*
Y1422265D01*
X1256646D01*
Y1356990D01*
X1357354D01*
Y1422265D01*
X1321274D01*
Y1453345D01*
X1365205Y1497276D01*
X1370205Y1496307D01*
Y1474362D01*
X1402843D01*
Y1469362D01*
X1407843D01*
Y1432787D01*
X1435480D01*
X1435480Y1432787D01*
X1439103D01*
Y1432787D01*
X1440480Y1432787D01*
X1504378D01*
Y1505937D01*
X1496082D01*
Y1525819D01*
X1538937D01*
Y1581277D01*
X1546697Y1589036D01*
X1583143D01*
Y1571693D01*
X1606923D01*
Y1566693D01*
X1611923D01*
Y1534055D01*
X1630702D01*
Y1534055D01*
X1633144D01*
Y1534055D01*
X1651923D01*
Y1566693D01*
X1661923D01*
Y1534055D01*
X1680702D01*
Y1534055D01*
X1683144D01*
Y1534055D01*
X1701923D01*
Y1566693D01*
X1711923D01*
Y1534055D01*
X1730702D01*
X1730702Y1534055D01*
X1733144D01*
Y1534055D01*
X1735702Y1534055D01*
X1780702D01*
Y1599330D01*
X1754772D01*
X1738958Y1615145D01*
X1733996Y1618460D01*
X1733183Y1618622D01*
X1733676Y1623622D01*
X1783523D01*
X1783628Y1623464D01*
X1788590Y1620149D01*
X1794443Y1618984D01*
X1845227D01*
X1850227Y1619979D01*
X1855227Y1618543D01*
Y1618543D01*
X1865715D01*
X1868377Y1614646D01*
X1868377Y1613543D01*
Y1584055D01*
X1906920D01*
Y1579055D01*
X1911920D01*
Y1543465D01*
X1943377D01*
X1946920Y1543465D01*
X1950463Y1543465D01*
X1981920D01*
Y1579055D01*
X1986920D01*
Y1584055D01*
X2025463D01*
Y1613543D01*
X2025463Y1614646D01*
X2028124Y1618543D01*
X2038613D01*
X2038613Y1618543D01*
X2043613Y1619979D01*
X2048613Y1618984D01*
X3922718Y1618984D01*
Y1569417D01*
X3993899D01*
Y1618984D01*
X4149646D01*
X4155498Y1620149D01*
X4160460Y1623464D01*
X4163065Y1627362D01*
X4250354D01*
Y1678054D01*
X4252636Y1678508D01*
X4257597Y1681823D01*
X4260913Y1686785D01*
X4262077Y1692638D01*
Y2312299D01*
X4727814Y2778036D01*
X4731130Y2782998D01*
X4732294Y2788850D01*
Y3626000D01*
X4731130Y3631853D01*
X4727814Y3636814D01*
X4482294Y3882335D01*
Y3921472D01*
X4481130Y3927325D01*
X4477814Y3932287D01*
X4342787Y4067314D01*
Y4112929D01*
D02*
G37*
G36*
X3886647Y4025042D02*
X3877511Y4023839D01*
X3868996Y4020313D01*
X3861685Y4014702D01*
X3856075Y4007391D01*
X3852548Y3998877D01*
X3851345Y3989740D01*
X3852548Y3980603D01*
X3856075Y3972089D01*
X3861685Y3964778D01*
X3868996Y3959168D01*
X3877511Y3955641D01*
X3886647Y3954438D01*
X3895784Y3955641D01*
X3904298Y3959168D01*
X3911610Y3964778D01*
X3917220Y3972089D01*
X3918604Y3975430D01*
X3937316D01*
Y3959071D01*
X4008497D01*
Y4022378D01*
X3937316D01*
Y4006018D01*
X3917789D01*
X3917220Y4007391D01*
X3911610Y4014702D01*
X3904298Y4020313D01*
X3895784Y4023839D01*
X3886647Y4025042D01*
D02*
G37*
G36*
X3552357D02*
X3543220Y4023839D01*
X3534706Y4020313D01*
X3527394Y4014702D01*
X3521784Y4007391D01*
X3518258Y3998877D01*
X3517055Y3989740D01*
X3518258Y3980603D01*
X3521784Y3972089D01*
X3527394Y3964778D01*
X3534706Y3959168D01*
X3543220Y3955641D01*
X3552357Y3954438D01*
X3561494Y3955641D01*
X3570008Y3959168D01*
X3577319Y3964778D01*
X3582929Y3972089D01*
X3584313Y3975430D01*
X3603025D01*
Y3959071D01*
X3674206D01*
Y4022378D01*
X3603025D01*
Y4006018D01*
X3583498D01*
X3582929Y4007391D01*
X3577319Y4014702D01*
X3570008Y4020313D01*
X3561494Y4023839D01*
X3552357Y4025042D01*
D02*
G37*
G36*
X3218066D02*
X3208929Y4023839D01*
X3200415Y4020313D01*
X3193104Y4014702D01*
X3187494Y4007391D01*
X3183967Y3998877D01*
X3182764Y3989740D01*
X3183967Y3980603D01*
X3187494Y3972089D01*
X3193104Y3964778D01*
X3200415Y3959168D01*
X3208929Y3955641D01*
X3218066Y3954438D01*
X3227203Y3955641D01*
X3235717Y3959168D01*
X3243028Y3964778D01*
X3248639Y3972089D01*
X3250023Y3975430D01*
X3268734D01*
Y3959071D01*
X3339915D01*
Y4022378D01*
X3268734D01*
Y4006018D01*
X3249207D01*
X3248639Y4007391D01*
X3243028Y4014702D01*
X3235717Y4020313D01*
X3227203Y4023839D01*
X3218066Y4025042D01*
D02*
G37*
G36*
X2883776D02*
X2874639Y4023839D01*
X2866125Y4020313D01*
X2858813Y4014702D01*
X2853203Y4007391D01*
X2849677Y3998877D01*
X2848474Y3989740D01*
X2849677Y3980603D01*
X2853203Y3972089D01*
X2858813Y3964778D01*
X2866125Y3959168D01*
X2874639Y3955641D01*
X2883776Y3954438D01*
X2892912Y3955641D01*
X2901427Y3959168D01*
X2908738Y3964778D01*
X2914348Y3972089D01*
X2915732Y3975430D01*
X2934444D01*
Y3959071D01*
X3005625D01*
Y4022378D01*
X2934444D01*
Y4006018D01*
X2914917D01*
X2914348Y4007391D01*
X2908738Y4014702D01*
X2901427Y4020313D01*
X2892912Y4023839D01*
X2883776Y4025042D01*
D02*
G37*
G36*
X2549485D02*
X2540348Y4023839D01*
X2531834Y4020313D01*
X2524523Y4014702D01*
X2518913Y4007391D01*
X2515386Y3998877D01*
X2514183Y3989740D01*
X2515386Y3980603D01*
X2518913Y3972089D01*
X2524523Y3964778D01*
X2531834Y3959168D01*
X2540348Y3955641D01*
X2549485Y3954438D01*
X2558622Y3955641D01*
X2567136Y3959168D01*
X2574447Y3964778D01*
X2580057Y3972089D01*
X2581441Y3975430D01*
X2600153D01*
Y3959071D01*
X2671334D01*
Y4022378D01*
X2600153D01*
Y4006018D01*
X2580626D01*
X2580057Y4007391D01*
X2574447Y4014702D01*
X2567136Y4020313D01*
X2558622Y4023839D01*
X2549485Y4025042D01*
D02*
G37*
G36*
X2215194D02*
X2206058Y4023839D01*
X2197543Y4020313D01*
X2190232Y4014702D01*
X2184622Y4007391D01*
X2181095Y3998877D01*
X2179892Y3989740D01*
X2181095Y3980603D01*
X2184622Y3972089D01*
X2190232Y3964778D01*
X2197543Y3959168D01*
X2206058Y3955641D01*
X2215194Y3954438D01*
X2224331Y3955641D01*
X2232845Y3959168D01*
X2240157Y3964778D01*
X2245767Y3972089D01*
X2247151Y3975430D01*
X2265863D01*
Y3959071D01*
X2337044D01*
Y4022378D01*
X2265863D01*
Y4006018D01*
X2246336D01*
X2245767Y4007391D01*
X2240157Y4014702D01*
X2232845Y4020313D01*
X2224331Y4023839D01*
X2215194Y4025042D01*
D02*
G37*
G36*
X1880904D02*
X1871767Y4023839D01*
X1863253Y4020313D01*
X1855941Y4014702D01*
X1850331Y4007391D01*
X1846805Y3998877D01*
X1845602Y3989740D01*
X1846805Y3980603D01*
X1850331Y3972089D01*
X1855941Y3964778D01*
X1863253Y3959168D01*
X1871767Y3955641D01*
X1880904Y3954438D01*
X1890041Y3955641D01*
X1898555Y3959168D01*
X1905866Y3964778D01*
X1911476Y3972089D01*
X1912860Y3975430D01*
X1931572D01*
Y3959071D01*
X2002753D01*
Y4022378D01*
X1931572D01*
Y4006018D01*
X1912045D01*
X1911476Y4007391D01*
X1905866Y4014702D01*
X1898555Y4020313D01*
X1890041Y4023839D01*
X1880904Y4025042D01*
D02*
G37*
G36*
X1546613D02*
X1537476Y4023839D01*
X1528962Y4020313D01*
X1521651Y4014702D01*
X1516041Y4007391D01*
X1512514Y3998877D01*
X1511311Y3989740D01*
X1512514Y3980603D01*
X1516041Y3972089D01*
X1521651Y3964778D01*
X1528962Y3959168D01*
X1537476Y3955641D01*
X1546613Y3954438D01*
X1555750Y3955641D01*
X1564264Y3959168D01*
X1571575Y3964778D01*
X1577186Y3972089D01*
X1578570Y3975430D01*
X1597281D01*
Y3959071D01*
X1668462D01*
Y4022378D01*
X1597281D01*
Y4006018D01*
X1577754D01*
X1577186Y4007391D01*
X1571575Y4014702D01*
X1564264Y4020313D01*
X1555750Y4023839D01*
X1546613Y4025042D01*
D02*
G37*
G36*
X1212323D02*
X1203186Y4023839D01*
X1194672Y4020313D01*
X1187360Y4014702D01*
X1181750Y4007391D01*
X1178224Y3998877D01*
X1177021Y3989740D01*
X1178224Y3980603D01*
X1181750Y3972089D01*
X1187360Y3964778D01*
X1194672Y3959168D01*
X1203186Y3955641D01*
X1212323Y3954438D01*
X1221459Y3955641D01*
X1229974Y3959168D01*
X1237285Y3964778D01*
X1242895Y3972089D01*
X1244279Y3975430D01*
X1262991D01*
Y3959071D01*
X1334172D01*
Y4022378D01*
X1262991D01*
Y4006018D01*
X1243464D01*
X1242895Y4007391D01*
X1237285Y4014702D01*
X1229974Y4020313D01*
X1221459Y4023839D01*
X1212323Y4025042D01*
D02*
G37*
G36*
X878032D02*
X868895Y4023839D01*
X860381Y4020313D01*
X853070Y4014702D01*
X847460Y4007391D01*
X843933Y3998877D01*
X842730Y3989740D01*
X843933Y3980603D01*
X847460Y3972089D01*
X853070Y3964778D01*
X860381Y3959168D01*
X868895Y3955641D01*
X878032Y3954438D01*
X887169Y3955641D01*
X895683Y3959168D01*
X902994Y3964778D01*
X908604Y3972089D01*
X909988Y3975430D01*
X928700D01*
Y3959071D01*
X999881D01*
Y4022378D01*
X928700D01*
Y4006018D01*
X909173D01*
X908604Y4007391D01*
X902994Y4014702D01*
X895683Y4020313D01*
X887169Y4023839D01*
X878032Y4025042D01*
D02*
G37*
G36*
X2666336Y3942812D02*
X2634761D01*
Y3915174D01*
X2666336D01*
Y3942812D01*
D02*
G37*
G36*
X4003498D02*
X3971923D01*
Y3915174D01*
X4003498D01*
Y3942812D01*
D02*
G37*
G36*
X3334917D02*
X3303342D01*
Y3915174D01*
X3334917D01*
Y3942812D01*
D02*
G37*
G36*
X1997754D02*
X1966180D01*
Y3915174D01*
X1997754D01*
Y3942812D01*
D02*
G37*
G36*
X1663464D02*
X1631889D01*
Y3915174D01*
X1663464D01*
Y3942812D01*
D02*
G37*
G36*
X1329173D02*
X1297598D01*
Y3915174D01*
X1329173D01*
Y3942812D01*
D02*
G37*
G36*
X994883D02*
X963308D01*
Y3915174D01*
X994883D01*
Y3942812D01*
D02*
G37*
G36*
X3669207D02*
X3637632D01*
Y3915174D01*
X3669207D01*
Y3942812D01*
D02*
G37*
G36*
X3000626D02*
X2969051D01*
Y3915174D01*
X3000626D01*
Y3942812D01*
D02*
G37*
G36*
X2332045D02*
X2300470D01*
Y3915174D01*
X2332045D01*
Y3942812D01*
D02*
G37*
G36*
X4337788D02*
X4306213D01*
Y3915174D01*
X4337788D01*
Y3942812D01*
D02*
G37*
G36*
X3627632D02*
X3596058D01*
Y3915174D01*
X3627632D01*
Y3942812D01*
D02*
G37*
G36*
X2959051D02*
X2927477D01*
Y3915174D01*
X2959051D01*
Y3942812D01*
D02*
G37*
G36*
X2290470D02*
X2258895D01*
Y3915174D01*
X2290470D01*
Y3942812D01*
D02*
G37*
G36*
X4296213D02*
X4264639D01*
Y3915174D01*
X4296213D01*
Y3942812D01*
D02*
G37*
G36*
X1621889D02*
X1590314D01*
Y3915174D01*
X1621889D01*
Y3942812D01*
D02*
G37*
G36*
X1287598D02*
X1256024D01*
Y3915174D01*
X1287598D01*
Y3942812D01*
D02*
G37*
G36*
X953308D02*
X921733D01*
Y3915174D01*
X953308D01*
Y3942812D01*
D02*
G37*
G36*
X2624761D02*
X2593186D01*
Y3915174D01*
X2624761D01*
Y3942812D01*
D02*
G37*
G36*
X3961923D02*
X3930348D01*
Y3915174D01*
X3961923D01*
Y3942812D01*
D02*
G37*
G36*
X3293342D02*
X3261767D01*
Y3915174D01*
X3293342D01*
Y3942812D01*
D02*
G37*
G36*
X1956180D02*
X1924605D01*
Y3915174D01*
X1956180D01*
Y3942812D01*
D02*
G37*
G36*
X4258497Y3942811D02*
X4226923D01*
Y3915173D01*
X4258497D01*
Y3942811D01*
D02*
G37*
G36*
X2587044D02*
X2555469D01*
Y3915173D01*
X2587044D01*
Y3942811D01*
D02*
G37*
G36*
X3924206D02*
X3892632D01*
Y3915173D01*
X3924206D01*
Y3942811D01*
D02*
G37*
G36*
X2921335D02*
X2889760D01*
Y3915173D01*
X2921335D01*
Y3942811D01*
D02*
G37*
G36*
X2252753D02*
X2221179D01*
Y3915173D01*
X2252753D01*
Y3942811D01*
D02*
G37*
G36*
X1584172D02*
X1552597D01*
Y3915173D01*
X1584172D01*
Y3942811D01*
D02*
G37*
G36*
X1249882D02*
X1218307D01*
Y3915173D01*
X1249882D01*
Y3942811D01*
D02*
G37*
G36*
X3255625D02*
X3224050D01*
Y3915173D01*
X3255625D01*
Y3942811D01*
D02*
G37*
G36*
X1918463D02*
X1886888D01*
Y3915173D01*
X1918463D01*
Y3942811D01*
D02*
G37*
G36*
X915591D02*
X884016D01*
Y3915173D01*
X915591D01*
Y3942811D01*
D02*
G37*
G36*
X3589916D02*
X3558341D01*
Y3915173D01*
X3589916D01*
Y3942811D01*
D02*
G37*
G36*
X3548341D02*
X3516766D01*
Y3915173D01*
X3548341D01*
Y3942811D01*
D02*
G37*
G36*
X2545469D02*
X2513894D01*
Y3915173D01*
X2545469D01*
Y3942811D01*
D02*
G37*
G36*
X3882632D02*
X3851057D01*
Y3915173D01*
X3882632D01*
Y3942811D01*
D02*
G37*
G36*
X2879760D02*
X2848185D01*
Y3915173D01*
X2879760D01*
Y3942811D01*
D02*
G37*
G36*
X2211179D02*
X2179604D01*
Y3915173D01*
X2211179D01*
Y3942811D01*
D02*
G37*
G36*
X1542597D02*
X1511023D01*
Y3915173D01*
X1542597D01*
Y3942811D01*
D02*
G37*
G36*
X1208307D02*
X1176732D01*
Y3915173D01*
X1208307D01*
Y3942811D01*
D02*
G37*
G36*
X3214050D02*
X3182476D01*
Y3915173D01*
X3214050D01*
Y3942811D01*
D02*
G37*
G36*
X1876888D02*
X1845313D01*
Y3915173D01*
X1876888D01*
Y3942811D01*
D02*
G37*
G36*
X874016D02*
X842441D01*
Y3915173D01*
X874016D01*
Y3942811D01*
D02*
G37*
G36*
X4216923D02*
X4185347D01*
Y3915173D01*
X4216923D01*
Y3942811D01*
D02*
G37*
G36*
X4705000Y4035024D02*
Y3905000D01*
X4835024D01*
X4833750Y3921184D01*
X4828790Y3941846D01*
X4820658Y3961478D01*
X4809555Y3979596D01*
X4795755Y3995755D01*
X4779596Y4009555D01*
X4761478Y4020658D01*
X4741846Y4028790D01*
X4721184Y4033750D01*
X4705000Y4035024D01*
D02*
G37*
G36*
X4695000D02*
X4678816Y4033750D01*
X4658154Y4028790D01*
X4638522Y4020658D01*
X4620404Y4009555D01*
X4604245Y3995755D01*
X4590445Y3979596D01*
X4579342Y3961478D01*
X4571210Y3941846D01*
X4566250Y3921184D01*
X4564976Y3905000D01*
X4695000D01*
Y4035024D01*
D02*
G37*
G36*
X305000D02*
Y3905000D01*
X435024D01*
X433750Y3921184D01*
X428790Y3941846D01*
X420658Y3961478D01*
X409555Y3979596D01*
X395755Y3995755D01*
X379596Y4009555D01*
X361478Y4020658D01*
X341846Y4028790D01*
X321184Y4033750D01*
X305000Y4035024D01*
D02*
G37*
G36*
X295000D02*
X278816Y4033750D01*
X258154Y4028790D01*
X238522Y4020658D01*
X220404Y4009555D01*
X204245Y3995755D01*
X190445Y3979596D01*
X179342Y3961478D01*
X171210Y3941846D01*
X166250Y3921184D01*
X164976Y3905000D01*
X295000D01*
Y4035024D01*
D02*
G37*
G36*
X602000Y3844644D02*
Y3815000D01*
X631644D01*
X631099Y3819137D01*
X627572Y3827651D01*
X621962Y3834962D01*
X614651Y3840572D01*
X606137Y3844099D01*
X602000Y3844644D01*
D02*
G37*
G36*
X592000D02*
X587863Y3844099D01*
X579349Y3840572D01*
X572038Y3834962D01*
X566428Y3827651D01*
X562901Y3819137D01*
X562356Y3815000D01*
X592000D01*
Y3844644D01*
D02*
G37*
G36*
X631644Y3805000D02*
X602000D01*
Y3775356D01*
X606137Y3775901D01*
X614651Y3779428D01*
X621962Y3785038D01*
X627572Y3792349D01*
X631099Y3800863D01*
X631644Y3805000D01*
D02*
G37*
G36*
X592000D02*
X562356D01*
X562901Y3800863D01*
X566428Y3792349D01*
X572038Y3785038D01*
X579349Y3779428D01*
X587863Y3775901D01*
X592000Y3775356D01*
Y3805000D01*
D02*
G37*
G36*
X4835024Y3895000D02*
X4705000D01*
Y3764976D01*
X4721184Y3766250D01*
X4741846Y3771210D01*
X4761478Y3779342D01*
X4779596Y3790445D01*
X4795755Y3804245D01*
X4809555Y3820404D01*
X4820658Y3838522D01*
X4828790Y3858154D01*
X4833750Y3878816D01*
X4835024Y3895000D01*
D02*
G37*
G36*
X4695000D02*
X4564976D01*
X4566250Y3878816D01*
X4571210Y3858154D01*
X4579342Y3838522D01*
X4590445Y3820404D01*
X4604245Y3804245D01*
X4620404Y3790445D01*
X4638522Y3779342D01*
X4658154Y3771210D01*
X4678816Y3766250D01*
X4695000Y3764976D01*
Y3895000D01*
D02*
G37*
G36*
X435024D02*
X305000D01*
Y3764976D01*
X321184Y3766250D01*
X341846Y3771210D01*
X361478Y3779342D01*
X379596Y3790445D01*
X395755Y3804245D01*
X409555Y3820404D01*
X420658Y3838522D01*
X428790Y3858154D01*
X433750Y3878816D01*
X435024Y3895000D01*
D02*
G37*
G36*
X295000D02*
X164976D01*
X166250Y3878816D01*
X171210Y3858154D01*
X179342Y3838522D01*
X190445Y3820404D01*
X204245Y3804245D01*
X220404Y3790445D01*
X238522Y3779342D01*
X258154Y3771210D01*
X278816Y3766250D01*
X295000Y3764976D01*
Y3895000D01*
D02*
G37*
G36*
X4337788Y3905174D02*
X4301213D01*
X4264639D01*
Y3878914D01*
X4264639Y3877536D01*
Y3873914D01*
X4264639Y3872536D01*
Y3808639D01*
X4284384D01*
Y3800030D01*
X4282027Y3799054D01*
X4274716Y3793444D01*
X4269106Y3786133D01*
X4265579Y3777618D01*
X4264376Y3768482D01*
X4265579Y3759345D01*
X4269106Y3750831D01*
X4274716Y3743519D01*
X4282027Y3737909D01*
X4290541Y3734383D01*
X4299678Y3733180D01*
X4308815Y3734383D01*
X4317329Y3737909D01*
X4324641Y3743519D01*
X4330251Y3750831D01*
X4333777Y3759345D01*
X4334980Y3768482D01*
X4333777Y3777618D01*
X4330251Y3786133D01*
X4324641Y3793444D01*
X4317329Y3799054D01*
X4314972Y3800030D01*
Y3808639D01*
X4337788D01*
Y3872536D01*
X4337789Y3873914D01*
Y3877536D01*
X4337788Y3878914D01*
Y3905174D01*
D02*
G37*
G36*
X4003498D02*
X3966923D01*
X3930348D01*
Y3878914D01*
X3930348Y3877536D01*
Y3873914D01*
X3930348Y3872536D01*
Y3808639D01*
X3950094D01*
Y3800030D01*
X3947737Y3799054D01*
X3940425Y3793444D01*
X3934815Y3786133D01*
X3931289Y3777618D01*
X3930086Y3768482D01*
X3931289Y3759345D01*
X3934815Y3750831D01*
X3940425Y3743519D01*
X3947737Y3737909D01*
X3956251Y3734383D01*
X3965388Y3733180D01*
X3974524Y3734383D01*
X3983039Y3737909D01*
X3990350Y3743519D01*
X3995960Y3750831D01*
X3999487Y3759345D01*
X4000690Y3768482D01*
X3999487Y3777618D01*
X3995960Y3786133D01*
X3990350Y3793444D01*
X3983039Y3799054D01*
X3980682Y3800030D01*
Y3808639D01*
X4003498D01*
Y3872536D01*
X4003498Y3873914D01*
Y3877536D01*
X4003498Y3878914D01*
Y3905174D01*
D02*
G37*
G36*
X3669207D02*
X3632632D01*
X3596058D01*
Y3878914D01*
X3596058Y3877536D01*
Y3873914D01*
X3596058Y3872536D01*
Y3808639D01*
X3615803D01*
Y3800030D01*
X3613446Y3799054D01*
X3606135Y3793444D01*
X3600525Y3786133D01*
X3596998Y3777618D01*
X3595795Y3768482D01*
X3596998Y3759345D01*
X3600525Y3750831D01*
X3606135Y3743519D01*
X3613446Y3737909D01*
X3621960Y3734383D01*
X3631097Y3733180D01*
X3640234Y3734383D01*
X3648748Y3737909D01*
X3656059Y3743519D01*
X3661669Y3750831D01*
X3665196Y3759345D01*
X3666399Y3768482D01*
X3665196Y3777618D01*
X3661669Y3786133D01*
X3656059Y3793444D01*
X3648748Y3799054D01*
X3646391Y3800030D01*
Y3808639D01*
X3669207D01*
Y3872536D01*
X3669207Y3873914D01*
Y3877536D01*
X3669207Y3878914D01*
Y3905174D01*
D02*
G37*
G36*
X3334917D02*
X3298342D01*
X3261767D01*
Y3878914D01*
X3261767Y3877536D01*
Y3873914D01*
X3261767Y3872536D01*
Y3808639D01*
X3281512D01*
Y3800030D01*
X3279155Y3799054D01*
X3271844Y3793444D01*
X3266234Y3786133D01*
X3262707Y3777618D01*
X3261504Y3768482D01*
X3262707Y3759345D01*
X3266234Y3750831D01*
X3271844Y3743519D01*
X3279155Y3737909D01*
X3287670Y3734383D01*
X3296806Y3733180D01*
X3305943Y3734383D01*
X3314457Y3737909D01*
X3321769Y3743519D01*
X3327379Y3750831D01*
X3330905Y3759345D01*
X3332108Y3768482D01*
X3330905Y3777618D01*
X3327379Y3786133D01*
X3321769Y3793444D01*
X3314457Y3799054D01*
X3312100Y3800030D01*
Y3808639D01*
X3334917D01*
Y3872536D01*
X3334917Y3873914D01*
Y3877536D01*
X3334917Y3878914D01*
Y3905174D01*
D02*
G37*
G36*
X2964051Y3910174D02*
D01*
Y3905174D01*
X2927477D01*
Y3878914D01*
X2927476Y3877536D01*
Y3873914D01*
X2927477Y3872536D01*
Y3808639D01*
X2947222D01*
Y3800030D01*
X2944865Y3799054D01*
X2937553Y3793444D01*
X2931943Y3786133D01*
X2928417Y3777618D01*
X2927214Y3768482D01*
X2928417Y3759345D01*
X2931943Y3750831D01*
X2937553Y3743519D01*
X2944865Y3737909D01*
X2953379Y3734383D01*
X2962516Y3733180D01*
X2971653Y3734383D01*
X2980167Y3737909D01*
X2987478Y3743519D01*
X2993088Y3750831D01*
X2996615Y3759345D01*
X2997818Y3768482D01*
X2996615Y3777618D01*
X2993088Y3786133D01*
X2987478Y3793444D01*
X2980167Y3799054D01*
X2977810Y3800030D01*
Y3808639D01*
X3000626D01*
Y3872536D01*
X3000626Y3873914D01*
Y3877536D01*
X3000626Y3878914D01*
Y3905174D01*
X2964051D01*
Y3910174D01*
D02*
G37*
G36*
X2666336Y3905174D02*
X2629761D01*
X2593186D01*
Y3878914D01*
X2593186Y3877536D01*
Y3873914D01*
X2593186Y3872536D01*
Y3808639D01*
X2612931D01*
Y3800030D01*
X2610574Y3799054D01*
X2603263Y3793444D01*
X2597653Y3786133D01*
X2594126Y3777618D01*
X2592923Y3768482D01*
X2594126Y3759345D01*
X2597653Y3750831D01*
X2603263Y3743519D01*
X2610574Y3737909D01*
X2619088Y3734383D01*
X2628225Y3733180D01*
X2637362Y3734383D01*
X2645876Y3737909D01*
X2653188Y3743519D01*
X2658798Y3750831D01*
X2662324Y3759345D01*
X2663527Y3768482D01*
X2662324Y3777618D01*
X2658798Y3786133D01*
X2653188Y3793444D01*
X2645876Y3799054D01*
X2643519Y3800030D01*
Y3808639D01*
X2666336D01*
Y3872536D01*
X2666336Y3873914D01*
Y3877536D01*
X2666336Y3878914D01*
Y3905174D01*
D02*
G37*
G36*
X2332045D02*
X2295470D01*
X2258895D01*
Y3878914D01*
X2258895Y3877536D01*
Y3873914D01*
X2258895Y3872536D01*
Y3808639D01*
X2278641D01*
Y3800030D01*
X2276284Y3799054D01*
X2268972Y3793444D01*
X2263362Y3786133D01*
X2259836Y3777618D01*
X2258633Y3768482D01*
X2259836Y3759345D01*
X2263362Y3750831D01*
X2268972Y3743519D01*
X2276284Y3737909D01*
X2284798Y3734383D01*
X2293935Y3733180D01*
X2303071Y3734383D01*
X2311586Y3737909D01*
X2318897Y3743519D01*
X2324507Y3750831D01*
X2328034Y3759345D01*
X2329237Y3768482D01*
X2328034Y3777618D01*
X2324507Y3786133D01*
X2318897Y3793444D01*
X2311586Y3799054D01*
X2309229Y3800030D01*
Y3808639D01*
X2332045D01*
Y3872536D01*
X2332045Y3873914D01*
Y3877536D01*
X2332045Y3878914D01*
Y3905174D01*
D02*
G37*
G36*
X1997754D02*
X1961180D01*
X1924605D01*
Y3878914D01*
X1924605Y3877536D01*
Y3873914D01*
X1924605Y3872536D01*
Y3808639D01*
X1944350D01*
Y3800030D01*
X1941993Y3799054D01*
X1934682Y3793444D01*
X1929072Y3786133D01*
X1925545Y3777618D01*
X1924342Y3768482D01*
X1925545Y3759345D01*
X1929072Y3750831D01*
X1934682Y3743519D01*
X1941993Y3737909D01*
X1950507Y3734383D01*
X1959644Y3733180D01*
X1968781Y3734383D01*
X1977295Y3737909D01*
X1984606Y3743519D01*
X1990216Y3750831D01*
X1993743Y3759345D01*
X1994946Y3768482D01*
X1993743Y3777618D01*
X1990216Y3786133D01*
X1984606Y3793444D01*
X1977295Y3799054D01*
X1974938Y3800030D01*
Y3808639D01*
X1997754D01*
Y3872536D01*
X1997754Y3873914D01*
Y3877536D01*
X1997754Y3878914D01*
Y3905174D01*
D02*
G37*
G36*
X1663464D02*
X1626889D01*
X1590314D01*
Y3878914D01*
X1590314Y3877536D01*
Y3873914D01*
X1590314Y3872536D01*
Y3808639D01*
X1610060D01*
Y3800030D01*
X1607702Y3799054D01*
X1600391Y3793444D01*
X1594781Y3786133D01*
X1591254Y3777618D01*
X1590051Y3768482D01*
X1591254Y3759345D01*
X1594781Y3750831D01*
X1600391Y3743519D01*
X1607702Y3737909D01*
X1616217Y3734383D01*
X1625353Y3733180D01*
X1634490Y3734383D01*
X1643004Y3737909D01*
X1650316Y3743519D01*
X1655926Y3750831D01*
X1659453Y3759345D01*
X1660655Y3768482D01*
X1659453Y3777618D01*
X1655926Y3786133D01*
X1650316Y3793444D01*
X1643004Y3799054D01*
X1640647Y3800030D01*
Y3808639D01*
X1663464D01*
Y3872536D01*
X1663464Y3873914D01*
Y3877536D01*
X1663464Y3878914D01*
Y3905174D01*
D02*
G37*
G36*
X1329173D02*
X1292598D01*
X1256024D01*
Y3878914D01*
X1256023Y3877536D01*
Y3873914D01*
X1256024Y3872536D01*
Y3808639D01*
X1275769D01*
Y3800030D01*
X1273412Y3799054D01*
X1266101Y3793444D01*
X1260490Y3786133D01*
X1256964Y3777618D01*
X1255761Y3768482D01*
X1256964Y3759345D01*
X1260490Y3750831D01*
X1266101Y3743519D01*
X1273412Y3737909D01*
X1281926Y3734383D01*
X1291063Y3733180D01*
X1300200Y3734383D01*
X1308714Y3737909D01*
X1316025Y3743519D01*
X1321635Y3750831D01*
X1325162Y3759345D01*
X1326365Y3768482D01*
X1325162Y3777618D01*
X1321635Y3786133D01*
X1316025Y3793444D01*
X1308714Y3799054D01*
X1306357Y3800030D01*
Y3808639D01*
X1329173D01*
Y3872536D01*
X1329173Y3873914D01*
Y3877536D01*
X1329173Y3878914D01*
Y3905174D01*
D02*
G37*
G36*
X994883D02*
X958308D01*
X921733D01*
Y3878914D01*
X921733Y3877536D01*
Y3873914D01*
X921733Y3872536D01*
Y3808639D01*
X941478D01*
Y3800030D01*
X939121Y3799054D01*
X931810Y3793444D01*
X926200Y3786133D01*
X922673Y3777618D01*
X921470Y3768482D01*
X922673Y3759345D01*
X926200Y3750831D01*
X931810Y3743519D01*
X939121Y3737909D01*
X947635Y3734383D01*
X956772Y3733180D01*
X965909Y3734383D01*
X974423Y3737909D01*
X981735Y3743519D01*
X987345Y3750831D01*
X990871Y3759345D01*
X992074Y3768482D01*
X990871Y3777618D01*
X987345Y3786133D01*
X981735Y3793444D01*
X974423Y3799054D01*
X972066Y3800030D01*
Y3808639D01*
X994883D01*
Y3872536D01*
X994883Y3873914D01*
Y3877536D01*
X994883Y3878914D01*
Y3905174D01*
D02*
G37*
G36*
X4258497Y3905173D02*
X4221923D01*
X4185347D01*
Y3878914D01*
X4185347Y3877535D01*
Y3873913D01*
X4185347Y3872535D01*
Y3808638D01*
X4206628D01*
Y3802274D01*
X4204271Y3801298D01*
X4196960Y3795688D01*
X4191350Y3788377D01*
X4187823Y3779862D01*
X4186620Y3770726D01*
X4187823Y3761589D01*
X4191350Y3753075D01*
X4196960Y3745763D01*
X4204271Y3740153D01*
X4206628Y3739177D01*
Y3724543D01*
X4192551D01*
Y3647457D01*
X4265701D01*
Y3724543D01*
X4237216D01*
Y3739177D01*
X4239573Y3740153D01*
X4246885Y3745763D01*
X4252495Y3753075D01*
X4256021Y3761589D01*
X4257224Y3770726D01*
X4256021Y3779862D01*
X4252495Y3788377D01*
X4246885Y3795688D01*
X4239573Y3801298D01*
X4237216Y3802274D01*
Y3808638D01*
X4258497D01*
Y3872535D01*
X4258497Y3873913D01*
Y3877535D01*
X4258497Y3878914D01*
Y3905173D01*
D02*
G37*
G36*
X3924206D02*
X3887632D01*
X3851057D01*
Y3878914D01*
X3851057Y3877535D01*
Y3873913D01*
X3851057Y3872535D01*
Y3808638D01*
X3872338D01*
Y3802274D01*
X3869981Y3801298D01*
X3862669Y3795688D01*
X3857059Y3788377D01*
X3853532Y3779862D01*
X3852330Y3770726D01*
X3853532Y3761589D01*
X3857059Y3753075D01*
X3862669Y3745763D01*
X3869981Y3740153D01*
X3872338Y3739177D01*
Y3724543D01*
X3858260D01*
Y3647457D01*
X3931410D01*
Y3724543D01*
X3902925D01*
Y3739177D01*
X3905283Y3740153D01*
X3912594Y3745763D01*
X3918204Y3753075D01*
X3921731Y3761589D01*
X3922934Y3770726D01*
X3921731Y3779862D01*
X3918204Y3788377D01*
X3912594Y3795688D01*
X3905283Y3801298D01*
X3902925Y3802274D01*
Y3808638D01*
X3924206D01*
Y3872535D01*
X3924206Y3873913D01*
Y3877535D01*
X3924206Y3878914D01*
Y3905173D01*
D02*
G37*
G36*
X3589916D02*
X3553341D01*
X3516766D01*
Y3878914D01*
X3516766Y3877535D01*
Y3873913D01*
X3516766Y3872535D01*
Y3808638D01*
X3538047D01*
Y3802274D01*
X3535690Y3801298D01*
X3528379Y3795688D01*
X3522769Y3788377D01*
X3519242Y3779862D01*
X3518039Y3770726D01*
X3519242Y3761589D01*
X3522769Y3753075D01*
X3528379Y3745763D01*
X3535690Y3740153D01*
X3538047Y3739177D01*
Y3724543D01*
X3523970D01*
Y3647457D01*
X3597119D01*
Y3724543D01*
X3568635D01*
Y3739177D01*
X3570992Y3740153D01*
X3578303Y3745763D01*
X3583913Y3753075D01*
X3587440Y3761589D01*
X3588643Y3770726D01*
X3587440Y3779862D01*
X3583913Y3788377D01*
X3578303Y3795688D01*
X3570992Y3801298D01*
X3568635Y3802274D01*
Y3808638D01*
X3589916D01*
Y3872535D01*
X3589916Y3873913D01*
Y3877535D01*
X3589916Y3878914D01*
Y3905173D01*
D02*
G37*
G36*
X3255625D02*
X3219050D01*
X3182476D01*
Y3878914D01*
X3182476Y3877535D01*
Y3873913D01*
X3182476Y3872535D01*
Y3808638D01*
X3203756D01*
Y3802274D01*
X3201399Y3801298D01*
X3194088Y3795688D01*
X3188478Y3788377D01*
X3184951Y3779862D01*
X3183748Y3770726D01*
X3184951Y3761589D01*
X3188478Y3753075D01*
X3194088Y3745763D01*
X3201399Y3740153D01*
X3203756Y3739177D01*
Y3724543D01*
X3189679D01*
Y3647457D01*
X3262829D01*
Y3724543D01*
X3234344D01*
Y3739177D01*
X3236701Y3740153D01*
X3244013Y3745763D01*
X3249623Y3753075D01*
X3253149Y3761589D01*
X3254352Y3770726D01*
X3253149Y3779862D01*
X3249623Y3788377D01*
X3244013Y3795688D01*
X3236701Y3801298D01*
X3234344Y3802274D01*
Y3808638D01*
X3255625D01*
Y3872535D01*
X3255625Y3873913D01*
Y3877535D01*
X3255625Y3878914D01*
Y3905173D01*
D02*
G37*
G36*
X2921335D02*
X2884760D01*
X2848185D01*
Y3878914D01*
X2848185Y3877535D01*
Y3873913D01*
X2848185Y3872535D01*
Y3808638D01*
X2869466D01*
Y3802274D01*
X2867109Y3801298D01*
X2859798Y3795688D01*
X2854187Y3788377D01*
X2850661Y3779862D01*
X2849458Y3770726D01*
X2850661Y3761589D01*
X2854187Y3753075D01*
X2859798Y3745763D01*
X2867109Y3740153D01*
X2869466Y3739177D01*
Y3724543D01*
X2855389D01*
Y3647457D01*
X2928538D01*
Y3724543D01*
X2900054D01*
Y3739177D01*
X2902411Y3740153D01*
X2909722Y3745763D01*
X2915332Y3753075D01*
X2918859Y3761589D01*
X2920062Y3770726D01*
X2918859Y3779862D01*
X2915332Y3788377D01*
X2909722Y3795688D01*
X2902411Y3801298D01*
X2900054Y3802274D01*
Y3808638D01*
X2921335D01*
Y3872535D01*
X2921335Y3873913D01*
Y3877535D01*
X2921335Y3878914D01*
Y3905173D01*
D02*
G37*
G36*
X2587044D02*
X2550469D01*
X2513894D01*
Y3878914D01*
X2513894Y3877535D01*
Y3873913D01*
X2513894Y3872535D01*
Y3808638D01*
X2535175D01*
Y3802274D01*
X2532818Y3801298D01*
X2525507Y3795688D01*
X2519897Y3788377D01*
X2516370Y3779862D01*
X2515167Y3770726D01*
X2516370Y3761589D01*
X2519897Y3753075D01*
X2525507Y3745763D01*
X2532818Y3740153D01*
X2535175Y3739177D01*
Y3724543D01*
X2521098D01*
Y3647457D01*
X2594248D01*
Y3724543D01*
X2565763D01*
Y3739177D01*
X2568120Y3740153D01*
X2575432Y3745763D01*
X2581042Y3753075D01*
X2584568Y3761589D01*
X2585771Y3770726D01*
X2584568Y3779862D01*
X2581042Y3788377D01*
X2575432Y3795688D01*
X2568120Y3801298D01*
X2565763Y3802274D01*
Y3808638D01*
X2587044D01*
Y3872535D01*
X2587044Y3873913D01*
Y3877535D01*
X2587044Y3878914D01*
Y3905173D01*
D02*
G37*
G36*
X2252753D02*
X2216179D01*
X2179604D01*
Y3878914D01*
X2179604Y3877535D01*
Y3873913D01*
X2179604Y3872535D01*
Y3808638D01*
X2200885D01*
Y3802274D01*
X2198528Y3801298D01*
X2191216Y3795688D01*
X2185606Y3788377D01*
X2182079Y3779862D01*
X2180877Y3770726D01*
X2182079Y3761589D01*
X2185606Y3753075D01*
X2191216Y3745763D01*
X2198528Y3740153D01*
X2200885Y3739177D01*
Y3724543D01*
X2186807D01*
Y3647457D01*
X2259957D01*
Y3724543D01*
X2231472D01*
Y3739177D01*
X2233830Y3740153D01*
X2241141Y3745763D01*
X2246751Y3753075D01*
X2250278Y3761589D01*
X2251481Y3770726D01*
X2250278Y3779862D01*
X2246751Y3788377D01*
X2241141Y3795688D01*
X2233830Y3801298D01*
X2231472Y3802274D01*
Y3808638D01*
X2252753D01*
Y3872535D01*
X2252753Y3873913D01*
Y3877535D01*
X2252753Y3878914D01*
Y3905173D01*
D02*
G37*
G36*
X1918463D02*
X1881888D01*
X1845313D01*
Y3878914D01*
X1845313Y3877535D01*
Y3873913D01*
X1845313Y3872535D01*
Y3808638D01*
X1866594D01*
Y3802274D01*
X1864237Y3801298D01*
X1856926Y3795688D01*
X1851316Y3788377D01*
X1847789Y3779862D01*
X1846586Y3770726D01*
X1847789Y3761589D01*
X1851316Y3753075D01*
X1856926Y3745763D01*
X1864237Y3740153D01*
X1866594Y3739177D01*
Y3724543D01*
X1852517D01*
Y3647457D01*
X1925666D01*
Y3724543D01*
X1897182D01*
Y3739177D01*
X1899539Y3740153D01*
X1906850Y3745763D01*
X1912460Y3753075D01*
X1915987Y3761589D01*
X1917190Y3770726D01*
X1915987Y3779862D01*
X1912460Y3788377D01*
X1906850Y3795688D01*
X1899539Y3801298D01*
X1897182Y3802274D01*
Y3808638D01*
X1918463D01*
Y3872535D01*
X1918463Y3873913D01*
Y3877535D01*
X1918463Y3878914D01*
Y3905173D01*
D02*
G37*
G36*
X1584172D02*
X1547597D01*
X1511023D01*
Y3878914D01*
X1511023Y3877535D01*
Y3873913D01*
X1511023Y3872535D01*
Y3808638D01*
X1532303D01*
Y3802274D01*
X1529946Y3801298D01*
X1522635Y3795688D01*
X1517025Y3788377D01*
X1513498Y3779862D01*
X1512295Y3770726D01*
X1513498Y3761589D01*
X1517025Y3753075D01*
X1522635Y3745763D01*
X1529946Y3740153D01*
X1532303Y3739177D01*
Y3724543D01*
X1518226D01*
Y3647457D01*
X1591376D01*
Y3724543D01*
X1562891D01*
Y3739177D01*
X1565248Y3740153D01*
X1572560Y3745763D01*
X1578170Y3753075D01*
X1581697Y3761589D01*
X1582899Y3770726D01*
X1581697Y3779862D01*
X1578170Y3788377D01*
X1572560Y3795688D01*
X1565248Y3801298D01*
X1562891Y3802274D01*
Y3808638D01*
X1584172D01*
Y3872535D01*
X1584172Y3873913D01*
Y3877535D01*
X1584172Y3878914D01*
Y3905173D01*
D02*
G37*
G36*
X1213307Y3910173D02*
D01*
Y3905173D01*
X1176732D01*
Y3878914D01*
X1176732Y3877535D01*
Y3873913D01*
X1176732Y3872535D01*
Y3808638D01*
X1198013D01*
Y3802274D01*
X1195656Y3801298D01*
X1188344Y3795688D01*
X1182734Y3788377D01*
X1179208Y3779862D01*
X1178005Y3770726D01*
X1179208Y3761589D01*
X1182734Y3753075D01*
X1188344Y3745763D01*
X1195656Y3740153D01*
X1198013Y3739177D01*
Y3724543D01*
X1183936D01*
Y3647457D01*
X1257085D01*
Y3724543D01*
X1228601D01*
Y3739177D01*
X1230958Y3740153D01*
X1238269Y3745763D01*
X1243879Y3753075D01*
X1247406Y3761589D01*
X1248609Y3770726D01*
X1247406Y3779862D01*
X1243879Y3788377D01*
X1238269Y3795688D01*
X1230958Y3801298D01*
X1228601Y3802274D01*
Y3808638D01*
X1249882D01*
Y3872535D01*
X1249882Y3873913D01*
Y3877535D01*
X1249882Y3878914D01*
Y3905173D01*
X1213307D01*
Y3910173D01*
D02*
G37*
G36*
X915591Y3905173D02*
X879016D01*
X842441D01*
Y3878914D01*
X842441Y3877535D01*
Y3873913D01*
X842441Y3872535D01*
Y3808638D01*
X863722D01*
Y3802274D01*
X861365Y3801298D01*
X854054Y3795688D01*
X848444Y3788377D01*
X844917Y3779862D01*
X843714Y3770726D01*
X844917Y3761589D01*
X848444Y3753075D01*
X854054Y3745763D01*
X861365Y3740153D01*
X863722Y3739177D01*
Y3724543D01*
X849645D01*
Y3647457D01*
X922795D01*
Y3724543D01*
X894310D01*
Y3739177D01*
X896667Y3740153D01*
X903979Y3745763D01*
X909589Y3753075D01*
X913115Y3761589D01*
X914318Y3770726D01*
X913115Y3779862D01*
X909589Y3788377D01*
X903979Y3795688D01*
X896667Y3801298D01*
X894310Y3802274D01*
Y3808638D01*
X915591D01*
Y3872535D01*
X915591Y3873913D01*
Y3877535D01*
X915591Y3878914D01*
Y3905173D01*
D02*
G37*
G36*
X939000Y3558644D02*
Y3529000D01*
X968644D01*
X968099Y3533137D01*
X964572Y3541651D01*
X958962Y3548962D01*
X951651Y3554572D01*
X943137Y3558099D01*
X939000Y3558644D01*
D02*
G37*
G36*
X929000D02*
X924863Y3558099D01*
X916349Y3554572D01*
X909038Y3548962D01*
X903428Y3541651D01*
X899901Y3533137D01*
X899356Y3529000D01*
X929000D01*
Y3558644D01*
D02*
G37*
G36*
X968644Y3519000D02*
X939000D01*
Y3489356D01*
X943137Y3489901D01*
X951651Y3493428D01*
X958962Y3499038D01*
X964572Y3506349D01*
X968099Y3514863D01*
X968644Y3519000D01*
D02*
G37*
G36*
X929000D02*
X899356D01*
X899901Y3514863D01*
X903428Y3506349D01*
X909038Y3499038D01*
X916349Y3493428D01*
X924863Y3489901D01*
X929000Y3489356D01*
Y3519000D01*
D02*
G37*
G36*
X150000Y3575323D02*
X135305Y3573876D01*
X121175Y3569590D01*
X108153Y3562629D01*
X96738Y3553262D01*
X87371Y3541847D01*
X80410Y3528825D01*
X76124Y3514695D01*
X74677Y3500000D01*
X76124Y3485305D01*
X80410Y3471175D01*
X87371Y3458153D01*
X96738Y3446738D01*
X108153Y3437371D01*
X121175Y3430410D01*
X135305Y3426124D01*
X150000Y3424677D01*
X164695Y3426124D01*
X178825Y3430410D01*
X191847Y3437371D01*
X203262Y3446738D01*
X212629Y3458153D01*
X219590Y3471175D01*
X223876Y3485305D01*
X225323Y3500000D01*
X223876Y3514695D01*
X219590Y3528825D01*
X212629Y3541847D01*
X203262Y3553262D01*
X191847Y3562629D01*
X178825Y3569590D01*
X164695Y3573876D01*
X150000Y3575323D01*
D02*
G37*
G36*
X2481217Y3249211D02*
Y3219567D01*
X2510861D01*
X2510316Y3223704D01*
X2506789Y3232218D01*
X2501179Y3239529D01*
X2493868Y3245139D01*
X2485354Y3248666D01*
X2481217Y3249211D01*
D02*
G37*
G36*
X2471217D02*
X2467080Y3248666D01*
X2458566Y3245139D01*
X2451255Y3239529D01*
X2445645Y3232218D01*
X2442118Y3223704D01*
X2441573Y3219567D01*
X2471217D01*
Y3249211D01*
D02*
G37*
G36*
X2510861Y3209567D02*
X2481217D01*
Y3179923D01*
X2485354Y3180468D01*
X2493868Y3183994D01*
X2501179Y3189605D01*
X2506789Y3196916D01*
X2510316Y3205430D01*
X2510861Y3209567D01*
D02*
G37*
G36*
X2471217D02*
X2441573D01*
X2442118Y3205430D01*
X2445645Y3196916D01*
X2451255Y3189605D01*
X2458566Y3183994D01*
X2467080Y3180468D01*
X2471217Y3179923D01*
Y3209567D01*
D02*
G37*
G36*
X1621000Y3191644D02*
Y3162000D01*
X1650644D01*
X1650099Y3166137D01*
X1646572Y3174651D01*
X1640962Y3181962D01*
X1633651Y3187572D01*
X1625137Y3191099D01*
X1621000Y3191644D01*
D02*
G37*
G36*
X1611000D02*
X1606863Y3191099D01*
X1598349Y3187572D01*
X1591038Y3181962D01*
X1585428Y3174651D01*
X1581901Y3166137D01*
X1581356Y3162000D01*
X1611000D01*
Y3191644D01*
D02*
G37*
G36*
X3935000Y3154644D02*
Y3125000D01*
X3964644D01*
X3964099Y3129137D01*
X3960572Y3137651D01*
X3954962Y3144962D01*
X3947651Y3150572D01*
X3939137Y3154099D01*
X3935000Y3154644D01*
D02*
G37*
G36*
X3925000D02*
X3920863Y3154099D01*
X3912349Y3150572D01*
X3905038Y3144962D01*
X3899428Y3137651D01*
X3895901Y3129137D01*
X3895356Y3125000D01*
X3925000D01*
Y3154644D01*
D02*
G37*
G36*
X2035504Y3200544D02*
X1962355D01*
Y3123457D01*
X1962355D01*
X1963962Y3118457D01*
X1963707Y3117173D01*
Y3090103D01*
X1954102Y3086125D01*
X1943789Y3078212D01*
X1935876Y3067899D01*
X1930901Y3055889D01*
X1929204Y3043001D01*
X1930901Y3030112D01*
X1935876Y3018102D01*
X1943789Y3007789D01*
X1954102Y2999876D01*
X1966112Y2994901D01*
X1979001Y2993204D01*
X1991889Y2994901D01*
X2003899Y2999876D01*
X2014212Y3007789D01*
X2022125Y3018102D01*
X2027100Y3030112D01*
X2028797Y3043001D01*
X2027100Y3055889D01*
X2022125Y3067899D01*
X2014212Y3078212D01*
X2003899Y3086125D01*
X1994294Y3090103D01*
Y3110838D01*
X2006913Y3123457D01*
X2035504D01*
Y3200544D01*
D02*
G37*
G36*
X1650644Y3152000D02*
X1621000D01*
Y3122356D01*
X1625137Y3122901D01*
X1633651Y3126428D01*
X1640962Y3132038D01*
X1646572Y3139349D01*
X1650099Y3147863D01*
X1650644Y3152000D01*
D02*
G37*
G36*
X1611000D02*
X1581356D01*
X1581901Y3147863D01*
X1585428Y3139349D01*
X1591038Y3132038D01*
X1598349Y3126428D01*
X1606863Y3122901D01*
X1611000Y3122356D01*
Y3152000D01*
D02*
G37*
G36*
X3964644Y3115000D02*
X3935000D01*
Y3085356D01*
X3939137Y3085901D01*
X3947651Y3089428D01*
X3954962Y3095038D01*
X3960572Y3102349D01*
X3964099Y3110863D01*
X3964644Y3115000D01*
D02*
G37*
G36*
X3925000D02*
X3895356D01*
X3895901Y3110863D01*
X3899428Y3102349D01*
X3905038Y3095038D01*
X3912349Y3089428D01*
X3920863Y3085901D01*
X3925000Y3085356D01*
Y3115000D01*
D02*
G37*
G36*
X2277663Y3074644D02*
Y3045000D01*
X2307306D01*
X2306762Y3049137D01*
X2303235Y3057651D01*
X2297625Y3064962D01*
X2290314Y3070572D01*
X2281800Y3074099D01*
X2277663Y3074644D01*
D02*
G37*
G36*
X2267663D02*
X2263526Y3074099D01*
X2255012Y3070572D01*
X2247700Y3064962D01*
X2242090Y3057651D01*
X2238564Y3049137D01*
X2238019Y3045000D01*
X2267663D01*
Y3074644D01*
D02*
G37*
G36*
X405906Y3150224D02*
X391990Y3148392D01*
X379022Y3143020D01*
X367886Y3134476D01*
X359342Y3123340D01*
X353971Y3110373D01*
X352138Y3096457D01*
X353971Y3082541D01*
X359342Y3069573D01*
X367886Y3058438D01*
X379022Y3049893D01*
X391990Y3044522D01*
X405906Y3042690D01*
X419821Y3044522D01*
X432789Y3049893D01*
X443925Y3058438D01*
X452469Y3069573D01*
X457841Y3082541D01*
X459673Y3096457D01*
X457841Y3110373D01*
X452469Y3123340D01*
X443925Y3134476D01*
X432789Y3143020D01*
X419821Y3148392D01*
X405906Y3150224D01*
D02*
G37*
G36*
X1457646Y3208301D02*
X1384496D01*
Y3131214D01*
X1423024D01*
X1429699Y3124539D01*
Y3099592D01*
X1420080Y3092211D01*
X1412167Y3081898D01*
X1407192Y3069888D01*
X1405495Y3057000D01*
X1407192Y3044112D01*
X1412167Y3032102D01*
X1420080Y3021789D01*
X1430393Y3013875D01*
X1442403Y3008901D01*
X1455292Y3007204D01*
X1468180Y3008901D01*
X1480189Y3013875D01*
X1490503Y3021789D01*
X1498416Y3032102D01*
X1503391Y3044112D01*
X1505088Y3057000D01*
X1503391Y3069888D01*
X1498416Y3081898D01*
X1490503Y3092211D01*
X1480189Y3100125D01*
X1468180Y3105099D01*
X1460287Y3106139D01*
Y3130874D01*
X1459122Y3136727D01*
X1457646Y3138937D01*
Y3208301D01*
D02*
G37*
G36*
X2307306Y3035000D02*
X2277663D01*
Y3005356D01*
X2281800Y3005901D01*
X2290314Y3009428D01*
X2297625Y3015038D01*
X2303235Y3022349D01*
X2306762Y3030863D01*
X2307306Y3035000D01*
D02*
G37*
G36*
X2267663D02*
X2238019D01*
X2238564Y3030863D01*
X2242090Y3022349D01*
X2247700Y3015038D01*
X2255012Y3009428D01*
X2263526Y3005901D01*
X2267663Y3005356D01*
Y3035000D01*
D02*
G37*
G36*
X2151646Y3200544D02*
X2078496D01*
Y3123457D01*
X2109782D01*
X2122699Y3110540D01*
Y3085592D01*
X2113081Y3078212D01*
X2105167Y3067899D01*
X2100193Y3055889D01*
X2098496Y3043001D01*
X2100193Y3030112D01*
X2105167Y3018103D01*
X2113081Y3007789D01*
X2123394Y2999876D01*
X2135404Y2994901D01*
X2148292Y2993204D01*
X2161180Y2994901D01*
X2173190Y2999876D01*
X2183503Y3007789D01*
X2191416Y3018103D01*
X2196391Y3030112D01*
X2198088Y3043001D01*
X2196391Y3055889D01*
X2191416Y3067899D01*
X2183503Y3078212D01*
X2173190Y3086125D01*
X2161180Y3091100D01*
X2153287Y3092139D01*
Y3116875D01*
X2152123Y3122727D01*
X2151646Y3123457D01*
X2151646D01*
X2151646Y3123457D01*
Y3200544D01*
D02*
G37*
G36*
X3425000Y3014644D02*
Y2985000D01*
X3454644D01*
X3454099Y2989137D01*
X3450572Y2997651D01*
X3444962Y3004962D01*
X3437651Y3010572D01*
X3429137Y3014099D01*
X3425000Y3014644D01*
D02*
G37*
G36*
X3415000D02*
X3410863Y3014099D01*
X3402349Y3010572D01*
X3395038Y3004962D01*
X3389428Y2997651D01*
X3385901Y2989137D01*
X3385356Y2985000D01*
X3415000D01*
Y3014644D01*
D02*
G37*
G36*
X3454644Y2975000D02*
X3425000D01*
Y2945356D01*
X3429137Y2945901D01*
X3437651Y2949428D01*
X3444962Y2955038D01*
X3450572Y2962349D01*
X3454099Y2970863D01*
X3454644Y2975000D01*
D02*
G37*
G36*
X3415000D02*
X3385356D01*
X3385901Y2970863D01*
X3389428Y2962349D01*
X3395038Y2955038D01*
X3402349Y2949428D01*
X3410863Y2945901D01*
X3415000Y2945356D01*
Y2975000D01*
D02*
G37*
G36*
X405906Y3032114D02*
X391990Y3030282D01*
X379022Y3024910D01*
X367886Y3016366D01*
X359342Y3005230D01*
X353971Y2992262D01*
X352138Y2978347D01*
X353971Y2964431D01*
X359342Y2951463D01*
X367886Y2940327D01*
X379022Y2931783D01*
X391990Y2926412D01*
X405906Y2924579D01*
X419821Y2926412D01*
X432789Y2931783D01*
X443925Y2940327D01*
X452469Y2951463D01*
X457841Y2964431D01*
X459673Y2978347D01*
X457841Y2992262D01*
X452469Y3005230D01*
X443925Y3016366D01*
X432789Y3024910D01*
X419821Y3030282D01*
X405906Y3032114D01*
D02*
G37*
G36*
X2445000Y2919465D02*
Y2889821D01*
X2474644D01*
X2474099Y2893958D01*
X2470572Y2902472D01*
X2464962Y2909783D01*
X2457651Y2915393D01*
X2449137Y2918920D01*
X2445000Y2919465D01*
D02*
G37*
G36*
X2435000D02*
X2430863Y2918920D01*
X2422349Y2915393D01*
X2415038Y2909783D01*
X2409428Y2902472D01*
X2405901Y2893958D01*
X2405356Y2889821D01*
X2435000D01*
Y2919465D01*
D02*
G37*
G36*
X4865000Y2884644D02*
Y2855000D01*
X4894644D01*
X4894099Y2859137D01*
X4890572Y2867651D01*
X4884962Y2874962D01*
X4877651Y2880572D01*
X4869137Y2884099D01*
X4865000Y2884644D01*
D02*
G37*
G36*
X4855000D02*
X4850863Y2884099D01*
X4842349Y2880572D01*
X4835038Y2874962D01*
X4829428Y2867651D01*
X4825901Y2859137D01*
X4825356Y2855000D01*
X4855000D01*
Y2884644D01*
D02*
G37*
G36*
X2474644Y2879821D02*
X2445000D01*
Y2850177D01*
X2449137Y2850722D01*
X2457651Y2854249D01*
X2464962Y2859859D01*
X2470572Y2867170D01*
X2474099Y2875684D01*
X2474644Y2879821D01*
D02*
G37*
G36*
X2435000D02*
X2405356D01*
X2405901Y2875684D01*
X2409428Y2867170D01*
X2415038Y2859859D01*
X2422349Y2854249D01*
X2430863Y2850722D01*
X2435000Y2850177D01*
Y2879821D01*
D02*
G37*
G36*
X2995000Y2875108D02*
Y2845465D01*
X3024644D01*
X3024099Y2849601D01*
X3020572Y2858115D01*
X3014962Y2865427D01*
X3007651Y2871037D01*
X2999137Y2874564D01*
X2995000Y2875108D01*
D02*
G37*
G36*
X2985000D02*
X2980863Y2874564D01*
X2972349Y2871037D01*
X2965038Y2865427D01*
X2959428Y2858115D01*
X2955901Y2849601D01*
X2955356Y2845465D01*
X2985000D01*
Y2875108D01*
D02*
G37*
G36*
X4894644Y2845000D02*
X4865000D01*
Y2815356D01*
X4869137Y2815901D01*
X4877651Y2819428D01*
X4884962Y2825038D01*
X4890572Y2832349D01*
X4894099Y2840863D01*
X4894644Y2845000D01*
D02*
G37*
G36*
X4855000D02*
X4825356D01*
X4825901Y2840863D01*
X4829428Y2832349D01*
X4835038Y2825038D01*
X4842349Y2819428D01*
X4850863Y2815901D01*
X4855000Y2815356D01*
Y2845000D01*
D02*
G37*
G36*
X405906Y2914003D02*
X391990Y2912171D01*
X379022Y2906800D01*
X367886Y2898255D01*
X359342Y2887120D01*
X353971Y2874152D01*
X352138Y2860236D01*
X353971Y2846320D01*
X359342Y2833353D01*
X367886Y2822217D01*
X379022Y2813673D01*
X391990Y2808301D01*
X405906Y2806469D01*
X419821Y2808301D01*
X432789Y2813673D01*
X443925Y2822217D01*
X452469Y2833353D01*
X457841Y2846320D01*
X459673Y2860236D01*
X457841Y2874152D01*
X452469Y2887120D01*
X443925Y2898255D01*
X432789Y2906800D01*
X419821Y2912171D01*
X405906Y2914003D01*
D02*
G37*
G36*
X3024644Y2835465D02*
X2995000D01*
Y2805821D01*
X2999137Y2806365D01*
X3007651Y2809892D01*
X3014962Y2815502D01*
X3020572Y2822814D01*
X3024099Y2831328D01*
X3024644Y2835465D01*
D02*
G37*
G36*
X2985000D02*
X2955356D01*
X2955901Y2831328D01*
X2959428Y2822814D01*
X2965038Y2815502D01*
X2972349Y2809892D01*
X2980863Y2806365D01*
X2985000Y2805821D01*
Y2835465D01*
D02*
G37*
G36*
X185000Y2803653D02*
Y2774010D01*
X214644D01*
X214099Y2778146D01*
X210572Y2786660D01*
X204962Y2793972D01*
X197651Y2799582D01*
X189137Y2803109D01*
X185000Y2803653D01*
D02*
G37*
G36*
X175000D02*
X170863Y2803109D01*
X162349Y2799582D01*
X155038Y2793972D01*
X149428Y2786660D01*
X145901Y2778146D01*
X145356Y2774010D01*
X175000D01*
Y2803653D01*
D02*
G37*
G36*
X1953410Y2885964D02*
X1941802Y2884821D01*
X1930641Y2881435D01*
X1920354Y2875937D01*
X1911338Y2868537D01*
X1903938Y2859521D01*
X1898440Y2849234D01*
X1895054Y2838073D01*
X1893911Y2826465D01*
X1895054Y2814857D01*
X1898440Y2803696D01*
X1903938Y2793409D01*
X1911338Y2784393D01*
X1920354Y2776993D01*
X1930641Y2771495D01*
X1941802Y2768109D01*
X1953410Y2766966D01*
X1965018Y2768109D01*
X1976179Y2771495D01*
X1986466Y2776993D01*
X1995482Y2784393D01*
X2002882Y2793409D01*
X2008380Y2803696D01*
X2011766Y2814857D01*
X2012909Y2826465D01*
X2011766Y2838073D01*
X2008380Y2849234D01*
X2002882Y2859521D01*
X1995482Y2868537D01*
X1986466Y2875937D01*
X1976179Y2881435D01*
X1965018Y2884821D01*
X1953410Y2885964D01*
D02*
G37*
G36*
X617441Y2796181D02*
X569332D01*
X570506Y2787265D01*
X575877Y2774298D01*
X584422Y2763162D01*
X595557Y2754617D01*
X608525Y2749246D01*
X617441Y2748072D01*
Y2796181D01*
D02*
G37*
G36*
X504331Y2854948D02*
X490415Y2853116D01*
X477447Y2847745D01*
X466312Y2839200D01*
X457767Y2828065D01*
X452396Y2815097D01*
X450564Y2801181D01*
X452396Y2787265D01*
X457767Y2774298D01*
X466312Y2763162D01*
X477447Y2754617D01*
X490415Y2749246D01*
X504331Y2747414D01*
X518247Y2749246D01*
X531214Y2754617D01*
X542350Y2763162D01*
X550894Y2774298D01*
X556266Y2787265D01*
X558098Y2801181D01*
X556266Y2815097D01*
X550894Y2828065D01*
X542350Y2839200D01*
X531214Y2847745D01*
X518247Y2853116D01*
X504331Y2854948D01*
D02*
G37*
G36*
X214644Y2764010D02*
X185000D01*
Y2734366D01*
X189137Y2734910D01*
X197651Y2738437D01*
X204962Y2744047D01*
X210572Y2751358D01*
X214099Y2759873D01*
X214644Y2764010D01*
D02*
G37*
G36*
X175000D02*
X145356D01*
X145901Y2759873D01*
X149428Y2751358D01*
X155038Y2744047D01*
X162349Y2738437D01*
X170863Y2734910D01*
X175000Y2734366D01*
Y2764010D01*
D02*
G37*
G36*
X4515000Y2744644D02*
Y2715000D01*
X4544644D01*
X4544099Y2719137D01*
X4540572Y2727651D01*
X4534962Y2734962D01*
X4527651Y2740572D01*
X4519137Y2744099D01*
X4515000Y2744644D01*
D02*
G37*
G36*
X4505000D02*
X4500863Y2744099D01*
X4492349Y2740572D01*
X4485038Y2734962D01*
X4479428Y2727651D01*
X4475901Y2719137D01*
X4475356Y2715000D01*
X4505000D01*
Y2744644D01*
D02*
G37*
G36*
X715866Y2737126D02*
X667757D01*
X668931Y2728210D01*
X674302Y2715242D01*
X682847Y2704107D01*
X693982Y2695562D01*
X706950Y2690191D01*
X715866Y2689017D01*
Y2737126D01*
D02*
G37*
G36*
X405906Y2795893D02*
X391990Y2794061D01*
X379022Y2788690D01*
X367886Y2780145D01*
X359342Y2769010D01*
X353971Y2756042D01*
X352138Y2742126D01*
X353971Y2728210D01*
X359342Y2715242D01*
X367886Y2704107D01*
X379022Y2695562D01*
X391990Y2690191D01*
X405906Y2688359D01*
X419821Y2690191D01*
X432789Y2695562D01*
X443925Y2704107D01*
X452469Y2715242D01*
X457841Y2728210D01*
X459673Y2742126D01*
X457841Y2756042D01*
X452469Y2769010D01*
X443925Y2780145D01*
X432789Y2788690D01*
X419821Y2794061D01*
X405906Y2795893D01*
D02*
G37*
G36*
X627441Y2736180D02*
Y2688071D01*
X675550D01*
X674376Y2696987D01*
X669005Y2709954D01*
X660460Y2721090D01*
X649324Y2729635D01*
X636357Y2735006D01*
X627441Y2736180D01*
D02*
G37*
G36*
X509331D02*
Y2688071D01*
X557439D01*
X556266Y2696987D01*
X550894Y2709954D01*
X542350Y2721090D01*
X531214Y2729635D01*
X518247Y2735006D01*
X509331Y2736180D01*
D02*
G37*
G36*
X617441D02*
X608525Y2735006D01*
X595557Y2729635D01*
X584422Y2721090D01*
X575877Y2709954D01*
X570506Y2696987D01*
X569332Y2688071D01*
X617441D01*
Y2736180D01*
D02*
G37*
G36*
X499331D02*
X490415Y2735006D01*
X477447Y2729635D01*
X466312Y2721090D01*
X457767Y2709954D01*
X452396Y2696987D01*
X451222Y2688071D01*
X499331D01*
Y2736180D01*
D02*
G37*
G36*
X4544644Y2705000D02*
X4515000D01*
Y2675356D01*
X4519137Y2675901D01*
X4527651Y2679428D01*
X4534962Y2685038D01*
X4540572Y2692349D01*
X4544099Y2700863D01*
X4544644Y2705000D01*
D02*
G37*
G36*
X4505000D02*
X4475356D01*
X4475901Y2700863D01*
X4479428Y2692349D01*
X4485038Y2685038D01*
X4492349Y2679428D01*
X4500863Y2675901D01*
X4505000Y2675356D01*
Y2705000D01*
D02*
G37*
G36*
X675550Y2678071D02*
X627441D01*
Y2629962D01*
X636357Y2631136D01*
X649324Y2636507D01*
X660460Y2645052D01*
X669005Y2656187D01*
X674376Y2669155D01*
X675550Y2678071D01*
D02*
G37*
G36*
X557439D02*
X509331D01*
Y2629962D01*
X518247Y2631136D01*
X531214Y2636507D01*
X542350Y2645052D01*
X550894Y2656187D01*
X556266Y2669155D01*
X557439Y2678071D01*
D02*
G37*
G36*
X617441D02*
X569332D01*
X570506Y2669155D01*
X575877Y2656187D01*
X584422Y2645052D01*
X595557Y2636507D01*
X608525Y2631136D01*
X617441Y2629962D01*
Y2678071D01*
D02*
G37*
G36*
X499331D02*
X451222D01*
X452396Y2669155D01*
X457767Y2656187D01*
X466312Y2645052D01*
X477447Y2636507D01*
X490415Y2631136D01*
X499331Y2629962D01*
Y2678071D01*
D02*
G37*
G36*
X2103016Y2748169D02*
X2091409Y2747026D01*
X2080247Y2743640D01*
X2069960Y2738142D01*
X2060944Y2730742D01*
X2053544Y2721726D01*
X2048046Y2711439D01*
X2044660Y2700278D01*
X2043517Y2688670D01*
X2044660Y2677062D01*
X2048046Y2665901D01*
X2053544Y2655614D01*
X2060944Y2646598D01*
X2069960Y2639198D01*
X2080247Y2633700D01*
X2091409Y2630314D01*
X2103016Y2629171D01*
X2114624Y2630314D01*
X2125785Y2633700D01*
X2136072Y2639198D01*
X2145088Y2646598D01*
X2152488Y2655614D01*
X2157986Y2665901D01*
X2161372Y2677062D01*
X2162515Y2688670D01*
X2161372Y2700278D01*
X2157986Y2711439D01*
X2152488Y2721726D01*
X2145088Y2730742D01*
X2136072Y2738142D01*
X2125785Y2743640D01*
X2114624Y2747026D01*
X2103016Y2748169D01*
D02*
G37*
G36*
X725866Y2677124D02*
Y2629016D01*
X773975D01*
X772801Y2637932D01*
X767430Y2650899D01*
X758885Y2662035D01*
X747750Y2670579D01*
X734782Y2675951D01*
X725866Y2677124D01*
D02*
G37*
G36*
X715866D02*
X706950Y2675951D01*
X693983Y2670579D01*
X682847Y2662035D01*
X674302Y2650899D01*
X668931Y2637932D01*
X667757Y2629016D01*
X715866D01*
Y2677124D01*
D02*
G37*
G36*
X773975Y2619016D02*
X725866D01*
Y2570907D01*
X734782Y2572081D01*
X747750Y2577452D01*
X758885Y2585997D01*
X767430Y2597132D01*
X772801Y2610100D01*
X773975Y2619016D01*
D02*
G37*
G36*
X715866D02*
X667757D01*
X668931Y2610100D01*
X674302Y2597132D01*
X682847Y2585997D01*
X693983Y2577452D01*
X706950Y2572081D01*
X715866Y2570907D01*
Y2619016D01*
D02*
G37*
G36*
X405906Y2677783D02*
X391990Y2675951D01*
X379022Y2670579D01*
X367886Y2662035D01*
X359342Y2650899D01*
X353971Y2637932D01*
X352138Y2624016D01*
X353971Y2610100D01*
X359342Y2597132D01*
X367886Y2585997D01*
X379022Y2577452D01*
X391990Y2572081D01*
X405906Y2570249D01*
X419821Y2572081D01*
X432789Y2577452D01*
X443925Y2585997D01*
X452469Y2597132D01*
X457841Y2610100D01*
X459673Y2624016D01*
X457841Y2637932D01*
X452469Y2650899D01*
X443925Y2662035D01*
X432789Y2670579D01*
X419821Y2675951D01*
X405906Y2677783D01*
D02*
G37*
G36*
X627441Y2618069D02*
Y2569961D01*
X675550D01*
X674376Y2578876D01*
X669005Y2591844D01*
X660460Y2602980D01*
X649324Y2611524D01*
X636357Y2616896D01*
X627441Y2618069D01*
D02*
G37*
G36*
X509331D02*
Y2569961D01*
X557439D01*
X556266Y2578876D01*
X550894Y2591844D01*
X542350Y2602980D01*
X531214Y2611524D01*
X518247Y2616896D01*
X509331Y2618069D01*
D02*
G37*
G36*
X617441D02*
X608525Y2616896D01*
X595557Y2611524D01*
X584422Y2602980D01*
X575877Y2591844D01*
X570506Y2578876D01*
X569332Y2569961D01*
X617441D01*
Y2618069D01*
D02*
G37*
G36*
X499331D02*
X490415Y2616896D01*
X477447Y2611524D01*
X466312Y2602980D01*
X457767Y2591844D01*
X452396Y2578876D01*
X451222Y2569961D01*
X499331D01*
Y2618069D01*
D02*
G37*
G36*
X1151000Y2564644D02*
Y2535000D01*
X1180644D01*
X1180099Y2539137D01*
X1176572Y2547651D01*
X1170962Y2554962D01*
X1163651Y2560572D01*
X1155137Y2564099D01*
X1151000Y2564644D01*
D02*
G37*
G36*
X1141000D02*
X1136863Y2564099D01*
X1128349Y2560572D01*
X1121038Y2554962D01*
X1115428Y2547651D01*
X1111901Y2539137D01*
X1111356Y2535000D01*
X1141000D01*
Y2564644D01*
D02*
G37*
G36*
X3112929Y2634566D02*
X2979165D01*
X2967403Y2633407D01*
X2956093Y2629977D01*
X2945669Y2624405D01*
X2936533Y2616907D01*
X2929035Y2607771D01*
X2923464Y2597348D01*
X2920033Y2586038D01*
X2918875Y2574276D01*
X2919796Y2564925D01*
X2839684Y2484814D01*
X2692284D01*
X2686728Y2491584D01*
X2677711Y2498983D01*
X2667425Y2504482D01*
X2656263Y2507868D01*
X2644656Y2509011D01*
X2633048Y2507868D01*
X2621886Y2504482D01*
X2611600Y2498983D01*
X2602583Y2491584D01*
X2595184Y2482568D01*
X2589686Y2472281D01*
X2586300Y2461119D01*
X2585157Y2449512D01*
X2586300Y2437904D01*
X2589686Y2426742D01*
X2595184Y2416456D01*
X2602583Y2407440D01*
X2611600Y2400040D01*
X2621886Y2394542D01*
X2633048Y2391156D01*
X2644656Y2390013D01*
X2656263Y2391156D01*
X2667425Y2394542D01*
X2677711Y2400040D01*
X2686728Y2407440D01*
X2692284Y2414210D01*
X2854307D01*
X2863444Y2415413D01*
X2871958Y2418939D01*
X2879269Y2424550D01*
X2969643Y2514923D01*
X2979165Y2513985D01*
X3112929D01*
X3124691Y2515144D01*
X3136001Y2518575D01*
X3146425Y2524146D01*
X3155561Y2531644D01*
X3163059Y2540780D01*
X3168630Y2551204D01*
X3172061Y2562514D01*
X3173220Y2574276D01*
X3172061Y2586038D01*
X3168630Y2597348D01*
X3163059Y2607771D01*
X3155561Y2616907D01*
X3146425Y2624405D01*
X3136001Y2629977D01*
X3124691Y2633407D01*
X3112929Y2634566D01*
D02*
G37*
G36*
X675550Y2559961D02*
X627441D01*
Y2511852D01*
X636357Y2513026D01*
X649324Y2518397D01*
X660460Y2526941D01*
X669005Y2538077D01*
X674376Y2551045D01*
X675550Y2559961D01*
D02*
G37*
G36*
X557439D02*
X509331D01*
Y2511852D01*
X518247Y2513026D01*
X531214Y2518397D01*
X542350Y2526941D01*
X550894Y2538077D01*
X556266Y2551045D01*
X557439Y2559961D01*
D02*
G37*
G36*
X617441D02*
X569332D01*
X570506Y2551045D01*
X575877Y2538077D01*
X584422Y2526941D01*
X595557Y2518397D01*
X608525Y2513026D01*
X617441Y2511852D01*
Y2559961D01*
D02*
G37*
G36*
X499331D02*
X451222D01*
X452396Y2551045D01*
X457767Y2538077D01*
X466312Y2526941D01*
X477447Y2518397D01*
X490415Y2513026D01*
X499331Y2511852D01*
Y2559961D01*
D02*
G37*
G36*
X725866Y2559014D02*
Y2510906D01*
X773975D01*
X772801Y2519821D01*
X767430Y2532789D01*
X758885Y2543925D01*
X747750Y2552469D01*
X734782Y2557840D01*
X725866Y2559014D01*
D02*
G37*
G36*
X410905D02*
Y2510906D01*
X459014D01*
X457841Y2519821D01*
X452469Y2532789D01*
X443925Y2543925D01*
X432789Y2552469D01*
X419821Y2557840D01*
X410905Y2559014D01*
D02*
G37*
G36*
X715866D02*
X706950Y2557840D01*
X693983Y2552469D01*
X682847Y2543925D01*
X674302Y2532789D01*
X668931Y2519821D01*
X667757Y2510906D01*
X715866D01*
Y2559014D01*
D02*
G37*
G36*
X400905D02*
X391990Y2557840D01*
X379022Y2552469D01*
X367886Y2543925D01*
X359342Y2532789D01*
X353971Y2519821D01*
X352797Y2510906D01*
X400905D01*
Y2559014D01*
D02*
G37*
G36*
X1180644Y2525000D02*
X1151000D01*
Y2495356D01*
X1155137Y2495901D01*
X1163651Y2499428D01*
X1170962Y2505038D01*
X1176572Y2512349D01*
X1180099Y2520863D01*
X1180644Y2525000D01*
D02*
G37*
G36*
X1141000D02*
X1111356D01*
X1111901Y2520863D01*
X1115428Y2512349D01*
X1121038Y2505038D01*
X1128349Y2499428D01*
X1136863Y2495901D01*
X1141000Y2495356D01*
Y2525000D01*
D02*
G37*
G36*
X773975Y2500906D02*
X720866D01*
X667757D01*
X668931Y2491990D01*
X669235Y2491255D01*
X668505Y2486931D01*
X666414Y2485001D01*
X665726Y2484716D01*
X660540Y2484867D01*
X659394Y2485688D01*
X649324Y2493414D01*
X636357Y2498785D01*
X627441Y2499959D01*
Y2446850D01*
X622441D01*
Y2441850D01*
X569332D01*
X570506Y2432934D01*
X575877Y2419967D01*
X583024Y2410653D01*
X549186Y2376814D01*
X545870Y2371853D01*
X545581Y2370401D01*
X540102Y2368484D01*
X531214Y2375304D01*
X518247Y2380675D01*
X509331Y2381849D01*
Y2328740D01*
Y2275631D01*
X518247Y2276805D01*
X531214Y2282177D01*
X539706Y2288692D01*
X544706Y2286227D01*
Y1682277D01*
X539706Y1679812D01*
X531214Y1686328D01*
X518247Y1691699D01*
X509331Y1692873D01*
Y1639764D01*
Y1586655D01*
X518247Y1587829D01*
X531214Y1593200D01*
X539706Y1599716D01*
X544706Y1597250D01*
Y1564167D01*
X539706Y1561701D01*
X531214Y1568217D01*
X518247Y1573589D01*
X509331Y1574762D01*
Y1521654D01*
Y1468545D01*
X518247Y1469719D01*
X531214Y1475090D01*
X539706Y1481606D01*
X544706Y1479140D01*
Y1447000D01*
X544927Y1445887D01*
X540390Y1443066D01*
X531214Y1450107D01*
X518247Y1455478D01*
X509331Y1456652D01*
Y1408543D01*
X557439D01*
X556266Y1417459D01*
X551625Y1428662D01*
X552515Y1430147D01*
X555192Y1432662D01*
X560000Y1431706D01*
X570995D01*
X574336Y1426706D01*
X570506Y1417459D01*
X569332Y1408543D01*
X622441D01*
X675550D01*
X674376Y1417459D01*
X670149Y1427664D01*
X669996Y1428928D01*
X669991Y1429164D01*
X669991Y1429176D01*
X672178Y1432590D01*
X677131Y1432028D01*
X682847Y1424579D01*
X693983Y1416035D01*
X706950Y1410664D01*
X715866Y1409490D01*
Y1462599D01*
X720866D01*
Y1467599D01*
X773975D01*
X772801Y1476514D01*
X767430Y1489482D01*
X761119Y1497706D01*
X763585Y1502706D01*
X1094107Y1502706D01*
X1107773Y1489041D01*
X1105859Y1484421D01*
X1079646D01*
Y1419146D01*
X1180354D01*
Y1484421D01*
X1148107D01*
X1144274Y1487000D01*
X1143188Y1492463D01*
X1140093Y1497093D01*
X1140093Y1497094D01*
X1115294Y1521893D01*
Y2472000D01*
X1114130Y2477853D01*
X1110814Y2482814D01*
X1105853Y2486130D01*
X1100000Y2487294D01*
X775356D01*
X772918Y2490943D01*
X772841Y2492294D01*
X773975Y2500906D01*
D02*
G37*
G36*
X400905D02*
X352797D01*
X353971Y2491990D01*
X359342Y2479022D01*
X367886Y2467886D01*
X379022Y2459342D01*
X391990Y2453970D01*
X400905Y2452797D01*
Y2500906D01*
D02*
G37*
G36*
X459014D02*
X410905D01*
Y2452797D01*
X419821Y2453970D01*
X432789Y2459342D01*
X443925Y2467886D01*
X452469Y2479022D01*
X457841Y2491990D01*
X459014Y2500906D01*
D02*
G37*
G36*
X509331Y2499959D02*
Y2451850D01*
X557439D01*
X556266Y2460766D01*
X550894Y2473734D01*
X542350Y2484869D01*
X531214Y2493414D01*
X518247Y2498785D01*
X509331Y2499959D01*
D02*
G37*
G36*
X617441D02*
X608525Y2498785D01*
X595557Y2493414D01*
X584422Y2484869D01*
X575877Y2473734D01*
X570506Y2460766D01*
X569332Y2451850D01*
X617441D01*
Y2499959D01*
D02*
G37*
G36*
X499331D02*
X490415Y2498785D01*
X477447Y2493414D01*
X466312Y2484869D01*
X457767Y2473734D01*
X452396Y2460766D01*
X451222Y2451850D01*
X499331D01*
Y2499959D01*
D02*
G37*
G36*
X3865000Y2434644D02*
Y2405000D01*
X3894644D01*
X3894099Y2409137D01*
X3890572Y2417651D01*
X3884962Y2424962D01*
X3877651Y2430572D01*
X3869137Y2434099D01*
X3865000Y2434644D01*
D02*
G37*
G36*
X3855000D02*
X3850863Y2434099D01*
X3842349Y2430572D01*
X3835038Y2424962D01*
X3829428Y2417651D01*
X3825901Y2409137D01*
X3825356Y2405000D01*
X3855000D01*
Y2434644D01*
D02*
G37*
G36*
X3207201D02*
Y2405000D01*
X3236845D01*
X3236300Y2409137D01*
X3232773Y2417651D01*
X3227163Y2424962D01*
X3219852Y2430572D01*
X3211338Y2434099D01*
X3207201Y2434644D01*
D02*
G37*
G36*
X3197201D02*
X3193064Y2434099D01*
X3184550Y2430572D01*
X3177239Y2424962D01*
X3171629Y2417651D01*
X3168102Y2409137D01*
X3167557Y2405000D01*
X3197201D01*
Y2434644D01*
D02*
G37*
G36*
X557439Y2441850D02*
X509331D01*
Y2393742D01*
X518247Y2394915D01*
X531214Y2400287D01*
X542350Y2408831D01*
X550894Y2419967D01*
X556266Y2432934D01*
X557439Y2441850D01*
D02*
G37*
G36*
X499331D02*
X451222D01*
X452396Y2432934D01*
X457767Y2419967D01*
X466312Y2408831D01*
X477447Y2400287D01*
X490415Y2394915D01*
X499331Y2393742D01*
Y2441850D01*
D02*
G37*
G36*
X410906Y2440904D02*
Y2392795D01*
X459014D01*
X457841Y2401711D01*
X452469Y2414679D01*
X443925Y2425814D01*
X432789Y2434359D01*
X419821Y2439730D01*
X410906Y2440904D01*
D02*
G37*
G36*
X400906D02*
X391990Y2439730D01*
X379022Y2434359D01*
X367886Y2425814D01*
X359342Y2414679D01*
X353971Y2401711D01*
X352797Y2392795D01*
X400906D01*
Y2440904D01*
D02*
G37*
G36*
X169695Y2414644D02*
Y2385000D01*
X199339D01*
X198794Y2389137D01*
X195267Y2397651D01*
X189657Y2404962D01*
X182346Y2410572D01*
X173832Y2414099D01*
X169695Y2414644D01*
D02*
G37*
G36*
X159695D02*
X155558Y2414099D01*
X147044Y2410572D01*
X139732Y2404962D01*
X134122Y2397651D01*
X130596Y2389137D01*
X130051Y2385000D01*
X159695D01*
Y2414644D01*
D02*
G37*
G36*
X3894644Y2395000D02*
X3865000D01*
Y2365356D01*
X3869137Y2365901D01*
X3877651Y2369428D01*
X3884962Y2375038D01*
X3890572Y2382349D01*
X3894099Y2390863D01*
X3894644Y2395000D01*
D02*
G37*
G36*
X3855000D02*
X3825356D01*
X3825901Y2390863D01*
X3829428Y2382349D01*
X3835038Y2375038D01*
X3842349Y2369428D01*
X3850863Y2365901D01*
X3855000Y2365356D01*
Y2395000D01*
D02*
G37*
G36*
X3236845D02*
X3207201D01*
Y2365356D01*
X3211338Y2365901D01*
X3219852Y2369428D01*
X3227163Y2375038D01*
X3232773Y2382349D01*
X3236300Y2390863D01*
X3236845Y2395000D01*
D02*
G37*
G36*
X3197201D02*
X3167557D01*
X3168102Y2390863D01*
X3171629Y2382349D01*
X3177239Y2375038D01*
X3184550Y2369428D01*
X3193064Y2365901D01*
X3197201Y2365356D01*
Y2395000D01*
D02*
G37*
G36*
X199339Y2375000D02*
X169695D01*
Y2345356D01*
X173832Y2345901D01*
X182346Y2349428D01*
X189657Y2355038D01*
X195267Y2362349D01*
X198794Y2370863D01*
X199339Y2375000D01*
D02*
G37*
G36*
X159695D02*
X130051D01*
X130596Y2370863D01*
X134122Y2362349D01*
X139732Y2355038D01*
X147044Y2349428D01*
X155558Y2345901D01*
X159695Y2345356D01*
Y2375000D01*
D02*
G37*
G36*
X459014Y2382795D02*
X410906D01*
Y2334686D01*
X419821Y2335860D01*
X432789Y2341232D01*
X443925Y2349776D01*
X452469Y2360912D01*
X457841Y2373879D01*
X459014Y2382795D01*
D02*
G37*
G36*
X400906D02*
X352797D01*
X353971Y2373879D01*
X359342Y2360912D01*
X367886Y2349776D01*
X379022Y2341232D01*
X391990Y2335860D01*
X400906Y2334686D01*
Y2382795D01*
D02*
G37*
G36*
X499331Y2381849D02*
X490415Y2380675D01*
X477447Y2375304D01*
X466312Y2366759D01*
X457767Y2355624D01*
X452396Y2342656D01*
X451222Y2333740D01*
X499331D01*
Y2381849D01*
D02*
G37*
G36*
Y2323740D02*
X451222D01*
X452396Y2314824D01*
X457767Y2301857D01*
X466312Y2290721D01*
X477447Y2282177D01*
X490415Y2276805D01*
X499331Y2275631D01*
Y2323740D01*
D02*
G37*
G36*
X410906Y2322794D02*
Y2274685D01*
X459014D01*
X457841Y2283601D01*
X452469Y2296568D01*
X443925Y2307704D01*
X432789Y2316249D01*
X419821Y2321620D01*
X410906Y2322794D01*
D02*
G37*
G36*
X400906D02*
X391990Y2321620D01*
X379022Y2316249D01*
X367886Y2307704D01*
X359342Y2296568D01*
X353971Y2283601D01*
X352797Y2274685D01*
X400906D01*
Y2322794D01*
D02*
G37*
G36*
X459014Y2264685D02*
X410906D01*
Y2216576D01*
X419821Y2217750D01*
X432789Y2223121D01*
X443925Y2231666D01*
X452469Y2242802D01*
X457841Y2255769D01*
X459014Y2264685D01*
D02*
G37*
G36*
X400906D02*
X352797D01*
X353971Y2255769D01*
X359342Y2242802D01*
X367886Y2231666D01*
X379022Y2223121D01*
X391990Y2217750D01*
X400906Y2216576D01*
Y2264685D01*
D02*
G37*
G36*
X495000Y2197596D02*
Y2167952D01*
X524644D01*
X524099Y2172089D01*
X520572Y2180604D01*
X514962Y2187915D01*
X507651Y2193525D01*
X499137Y2197052D01*
X495000Y2197596D01*
D02*
G37*
G36*
X485000D02*
X480863Y2197052D01*
X472349Y2193525D01*
X465038Y2187915D01*
X459428Y2180604D01*
X455901Y2172089D01*
X455356Y2167952D01*
X485000D01*
Y2197596D01*
D02*
G37*
G36*
X524644Y2157952D02*
X495000D01*
Y2128309D01*
X499137Y2128853D01*
X507651Y2132380D01*
X514962Y2137990D01*
X520572Y2145302D01*
X524099Y2153816D01*
X524644Y2157952D01*
D02*
G37*
G36*
X485000D02*
X455356D01*
X455901Y2153816D01*
X459428Y2145302D01*
X465038Y2137990D01*
X472349Y2132380D01*
X480863Y2128853D01*
X485000Y2128309D01*
Y2157952D01*
D02*
G37*
G36*
X395000Y2024644D02*
Y1995000D01*
X424644D01*
X424099Y1999137D01*
X420572Y2007651D01*
X414962Y2014962D01*
X407651Y2020572D01*
X399137Y2024099D01*
X395000Y2024644D01*
D02*
G37*
G36*
X385000D02*
X380863Y2024099D01*
X372349Y2020572D01*
X365038Y2014962D01*
X359428Y2007651D01*
X355901Y1999137D01*
X355356Y1995000D01*
X385000D01*
Y2024644D01*
D02*
G37*
G36*
X1175000Y2018896D02*
Y1989252D01*
X1204644D01*
X1204099Y1993389D01*
X1200572Y2001903D01*
X1194962Y2009214D01*
X1187651Y2014824D01*
X1179137Y2018351D01*
X1175000Y2018896D01*
D02*
G37*
G36*
X1165000D02*
X1160863Y2018351D01*
X1152349Y2014824D01*
X1145038Y2009214D01*
X1139428Y2001903D01*
X1135901Y1993389D01*
X1135356Y1989252D01*
X1165000D01*
Y2018896D01*
D02*
G37*
G36*
X424644Y1985000D02*
X395000D01*
Y1955356D01*
X399137Y1955901D01*
X407651Y1959428D01*
X414962Y1965038D01*
X420572Y1972349D01*
X424099Y1980863D01*
X424644Y1985000D01*
D02*
G37*
G36*
X385000D02*
X355356D01*
X355901Y1980863D01*
X359428Y1972349D01*
X365038Y1965038D01*
X372349Y1959428D01*
X380863Y1955901D01*
X385000Y1955356D01*
Y1985000D01*
D02*
G37*
G36*
X1204644Y1979252D02*
X1175000D01*
Y1949608D01*
X1179137Y1950153D01*
X1187651Y1953680D01*
X1194962Y1959290D01*
X1200572Y1966601D01*
X1204099Y1975115D01*
X1204644Y1979252D01*
D02*
G37*
G36*
X1165000D02*
X1135356D01*
X1135901Y1975115D01*
X1139428Y1966601D01*
X1145038Y1959290D01*
X1152349Y1953680D01*
X1160863Y1950153D01*
X1165000Y1949608D01*
Y1979252D01*
D02*
G37*
G36*
X150000Y2059575D02*
X135305Y2058128D01*
X121175Y2053842D01*
X108153Y2046881D01*
X96738Y2037514D01*
X87371Y2026099D01*
X80410Y2013077D01*
X76124Y1998947D01*
X74677Y1984252D01*
X76124Y1969557D01*
X80410Y1955427D01*
X87371Y1942405D01*
X96738Y1930990D01*
X108153Y1921623D01*
X121175Y1914662D01*
X135305Y1910376D01*
X150000Y1908929D01*
X164695Y1910376D01*
X178825Y1914662D01*
X191847Y1921623D01*
X203262Y1930990D01*
X212629Y1942405D01*
X219590Y1955427D01*
X223876Y1969557D01*
X225323Y1984252D01*
X223876Y1998947D01*
X219590Y2013077D01*
X212629Y2026099D01*
X203262Y2037514D01*
X191847Y2046881D01*
X178825Y2053842D01*
X164695Y2058128D01*
X150000Y2059575D01*
D02*
G37*
G36*
X410906Y1751928D02*
Y1703819D01*
X459014D01*
X457841Y1712735D01*
X452469Y1725702D01*
X443925Y1736838D01*
X432789Y1745383D01*
X419821Y1750754D01*
X410906Y1751928D01*
D02*
G37*
G36*
X400906D02*
X391990Y1750754D01*
X379022Y1745383D01*
X367886Y1736838D01*
X359342Y1725702D01*
X353971Y1712735D01*
X352797Y1703819D01*
X400906D01*
Y1751928D01*
D02*
G37*
G36*
X459014Y1693819D02*
X410906D01*
Y1645710D01*
X419821Y1646884D01*
X432789Y1652255D01*
X443925Y1660800D01*
X452469Y1671935D01*
X457841Y1684903D01*
X459014Y1693819D01*
D02*
G37*
G36*
X400906D02*
X352797D01*
X353971Y1684903D01*
X359342Y1671935D01*
X367886Y1660800D01*
X379022Y1652255D01*
X391990Y1646884D01*
X400906Y1645710D01*
Y1693819D01*
D02*
G37*
G36*
X499331Y1692873D02*
X490415Y1691699D01*
X477447Y1686328D01*
X466312Y1677783D01*
X457767Y1666647D01*
X452396Y1653680D01*
X451222Y1644764D01*
X499331D01*
Y1692873D01*
D02*
G37*
G36*
X232000Y1668922D02*
Y1639278D01*
X261644D01*
X261099Y1643415D01*
X257572Y1651929D01*
X251962Y1659241D01*
X244651Y1664851D01*
X236137Y1668377D01*
X232000Y1668922D01*
D02*
G37*
G36*
X222000D02*
X217863Y1668377D01*
X209349Y1664851D01*
X202038Y1659241D01*
X196428Y1651929D01*
X192901Y1643415D01*
X192356Y1639278D01*
X222000D01*
Y1668922D01*
D02*
G37*
G36*
X261644Y1629278D02*
X232000D01*
Y1599634D01*
X236137Y1600179D01*
X244651Y1603706D01*
X251962Y1609316D01*
X257572Y1616627D01*
X261099Y1625141D01*
X261644Y1629278D01*
D02*
G37*
G36*
X222000D02*
X192356D01*
X192901Y1625141D01*
X196428Y1616627D01*
X202038Y1609316D01*
X209349Y1603706D01*
X217863Y1600179D01*
X222000Y1599634D01*
Y1629278D01*
D02*
G37*
G36*
X499331Y1634764D02*
X451222D01*
X452396Y1625848D01*
X457767Y1612880D01*
X466312Y1601745D01*
X477447Y1593200D01*
X490415Y1587829D01*
X499331Y1586655D01*
Y1634764D01*
D02*
G37*
G36*
X410906Y1633818D02*
Y1585709D01*
X459014D01*
X457841Y1594625D01*
X452469Y1607592D01*
X443925Y1618728D01*
X432789Y1627272D01*
X419821Y1632644D01*
X410906Y1633818D01*
D02*
G37*
G36*
X400906D02*
X391990Y1632644D01*
X379022Y1627272D01*
X367886Y1618728D01*
X359342Y1607592D01*
X353971Y1594625D01*
X352797Y1585709D01*
X400906D01*
Y1633818D01*
D02*
G37*
G36*
X3533000Y1587644D02*
Y1558000D01*
X3562644D01*
X3562099Y1562137D01*
X3558572Y1570651D01*
X3552962Y1577962D01*
X3545651Y1583572D01*
X3537137Y1587099D01*
X3533000Y1587644D01*
D02*
G37*
G36*
X3523000D02*
X3518863Y1587099D01*
X3510349Y1583572D01*
X3503038Y1577962D01*
X3497428Y1570651D01*
X3493901Y1562137D01*
X3493356Y1558000D01*
X3523000D01*
Y1587644D01*
D02*
G37*
G36*
X1171000Y1591687D02*
Y1557000D01*
X1205687D01*
X1204970Y1562442D01*
X1200940Y1572173D01*
X1194528Y1580528D01*
X1186173Y1586940D01*
X1176442Y1590970D01*
X1171000Y1591687D01*
D02*
G37*
G36*
X1161000D02*
X1155558Y1590970D01*
X1145827Y1586940D01*
X1137472Y1580528D01*
X1131060Y1572173D01*
X1127030Y1562442D01*
X1126313Y1557000D01*
X1161000D01*
Y1591687D01*
D02*
G37*
G36*
X2025463Y1574055D02*
X1991920D01*
Y1543465D01*
X2025463D01*
Y1574055D01*
D02*
G37*
G36*
X1901920D02*
X1868377D01*
Y1543465D01*
X1901920D01*
Y1574055D01*
D02*
G37*
G36*
X1601923Y1561693D02*
X1583143D01*
Y1534055D01*
X1601923D01*
Y1561693D01*
D02*
G37*
G36*
X459014Y1575709D02*
X410906D01*
Y1527600D01*
X419821Y1528774D01*
X432789Y1534145D01*
X443925Y1542690D01*
X452469Y1553825D01*
X457841Y1566793D01*
X459014Y1575709D01*
D02*
G37*
G36*
X400906D02*
X352797D01*
X353971Y1566793D01*
X359342Y1553825D01*
X367886Y1542690D01*
X379022Y1534145D01*
X391990Y1528774D01*
X400906Y1527600D01*
Y1575709D01*
D02*
G37*
G36*
X499331Y1574762D02*
X490415Y1573589D01*
X477447Y1568217D01*
X466312Y1559673D01*
X457767Y1548537D01*
X452396Y1535570D01*
X451222Y1526654D01*
X499331D01*
Y1574762D01*
D02*
G37*
G36*
X3562644Y1548000D02*
X3533000D01*
Y1518356D01*
X3537137Y1518901D01*
X3545651Y1522428D01*
X3552962Y1528038D01*
X3558572Y1535349D01*
X3562099Y1543863D01*
X3562644Y1548000D01*
D02*
G37*
G36*
X3523000D02*
X3493356D01*
X3493901Y1543863D01*
X3497428Y1535349D01*
X3503038Y1528038D01*
X3510349Y1522428D01*
X3518863Y1518901D01*
X3523000Y1518356D01*
Y1548000D01*
D02*
G37*
G36*
X2785726Y1544644D02*
Y1515000D01*
X2815370D01*
X2814825Y1519137D01*
X2811299Y1527651D01*
X2805689Y1534962D01*
X2798377Y1540572D01*
X2789863Y1544099D01*
X2785726Y1544644D01*
D02*
G37*
G36*
X2775726D02*
X2771590Y1544099D01*
X2763075Y1540572D01*
X2755764Y1534962D01*
X2750154Y1527651D01*
X2746627Y1519137D01*
X2746083Y1515000D01*
X2775726D01*
Y1544644D01*
D02*
G37*
G36*
X1205687Y1547000D02*
X1171000D01*
Y1512313D01*
X1176442Y1513030D01*
X1186173Y1517060D01*
X1194528Y1523472D01*
X1200940Y1531827D01*
X1204970Y1541558D01*
X1205687Y1547000D01*
D02*
G37*
G36*
X1161000D02*
X1126313D01*
X1127030Y1541558D01*
X1131060Y1531827D01*
X1137472Y1523472D01*
X1145827Y1517060D01*
X1155558Y1513030D01*
X1161000Y1512313D01*
Y1547000D01*
D02*
G37*
G36*
X2815370Y1505000D02*
X2785726D01*
Y1475356D01*
X2789863Y1475901D01*
X2798377Y1479428D01*
X2805689Y1485038D01*
X2811299Y1492349D01*
X2814825Y1500863D01*
X2815370Y1505000D01*
D02*
G37*
G36*
X2775726D02*
X2746083D01*
X2746627Y1500863D01*
X2750154Y1492349D01*
X2755764Y1485038D01*
X2763075Y1479428D01*
X2771590Y1475901D01*
X2775726Y1475356D01*
Y1505000D01*
D02*
G37*
G36*
X499331Y1516654D02*
X451222D01*
X452396Y1507738D01*
X457767Y1494770D01*
X466312Y1483634D01*
X477447Y1475090D01*
X490415Y1469719D01*
X499331Y1468545D01*
Y1516654D01*
D02*
G37*
G36*
X410906Y1515707D02*
Y1467599D01*
X459014D01*
X457841Y1476514D01*
X452469Y1489482D01*
X443925Y1500618D01*
X432789Y1509162D01*
X419821Y1514534D01*
X410906Y1515707D01*
D02*
G37*
G36*
X400906D02*
X391990Y1514534D01*
X379022Y1509162D01*
X367886Y1500618D01*
X359342Y1489482D01*
X353971Y1476514D01*
X352797Y1467599D01*
X400906D01*
Y1515707D01*
D02*
G37*
G36*
X1397843Y1464362D02*
X1370205D01*
Y1432787D01*
X1397843D01*
Y1464362D01*
D02*
G37*
G36*
X3993899Y1542173D02*
X3922718D01*
Y1478866D01*
X3943014D01*
Y1429575D01*
X3927048D01*
X3925670Y1429575D01*
X3922048D01*
X3920670Y1429575D01*
X3894410D01*
Y1393000D01*
Y1356425D01*
X3920670D01*
X3922048Y1356425D01*
X3925670D01*
X3927048Y1356425D01*
X3990946D01*
Y1429575D01*
X3973602D01*
Y1478866D01*
X3993899D01*
Y1542173D01*
D02*
G37*
G36*
X4715000Y1454644D02*
Y1425000D01*
X4744644D01*
X4744099Y1429137D01*
X4740572Y1437651D01*
X4734962Y1444962D01*
X4727651Y1450572D01*
X4719137Y1454099D01*
X4715000Y1454644D01*
D02*
G37*
G36*
X4705000D02*
X4700863Y1454099D01*
X4692349Y1450572D01*
X4685038Y1444962D01*
X4679428Y1437651D01*
X4675901Y1429137D01*
X4675356Y1425000D01*
X4705000D01*
Y1454644D01*
D02*
G37*
G36*
X985000Y1444644D02*
Y1415000D01*
X1014644D01*
X1014099Y1419137D01*
X1010572Y1427651D01*
X1004962Y1434962D01*
X997651Y1440572D01*
X989137Y1444099D01*
X985000Y1444644D01*
D02*
G37*
G36*
X975000D02*
X970863Y1444099D01*
X962349Y1440572D01*
X955038Y1434962D01*
X949428Y1427651D01*
X945901Y1419137D01*
X945356Y1415000D01*
X975000D01*
Y1444644D01*
D02*
G37*
G36*
X773975Y1457599D02*
X725866D01*
Y1409490D01*
X734782Y1410664D01*
X747750Y1416035D01*
X758885Y1424579D01*
X767430Y1435715D01*
X772801Y1448683D01*
X773975Y1457599D01*
D02*
G37*
G36*
X459014D02*
X410906D01*
Y1409490D01*
X419821Y1410664D01*
X432789Y1416035D01*
X443925Y1424579D01*
X452469Y1435715D01*
X457841Y1448683D01*
X459014Y1457599D01*
D02*
G37*
G36*
X400906D02*
X352797D01*
X353971Y1448683D01*
X359342Y1435715D01*
X367886Y1424579D01*
X379022Y1416035D01*
X391990Y1410664D01*
X400906Y1409490D01*
Y1457599D01*
D02*
G37*
G36*
X499331Y1456652D02*
X490415Y1455478D01*
X477447Y1450107D01*
X466312Y1441562D01*
X457767Y1430427D01*
X452396Y1417459D01*
X451222Y1408543D01*
X499331D01*
Y1456652D01*
D02*
G37*
G36*
X1782000Y1440687D02*
Y1406000D01*
X1816687D01*
X1815970Y1411442D01*
X1811940Y1421173D01*
X1805528Y1429528D01*
X1797173Y1435940D01*
X1787442Y1439970D01*
X1782000Y1440687D01*
D02*
G37*
G36*
X1772000D02*
X1766558Y1439970D01*
X1756827Y1435940D01*
X1748472Y1429528D01*
X1742060Y1421173D01*
X1738030Y1411442D01*
X1737313Y1406000D01*
X1772000D01*
Y1440687D01*
D02*
G37*
G36*
X3884410Y1429575D02*
X3856773D01*
Y1398000D01*
X3884410D01*
Y1429575D01*
D02*
G37*
G36*
X4744644Y1415000D02*
X4715000D01*
Y1385356D01*
X4719137Y1385901D01*
X4727651Y1389428D01*
X4734962Y1395038D01*
X4740572Y1402349D01*
X4744099Y1410863D01*
X4744644Y1415000D01*
D02*
G37*
G36*
X4705000D02*
X4675356D01*
X4675901Y1410863D01*
X4679428Y1402349D01*
X4685038Y1395038D01*
X4692349Y1389428D01*
X4700863Y1385901D01*
X4705000Y1385356D01*
Y1415000D01*
D02*
G37*
G36*
X1495000Y1419687D02*
Y1385000D01*
X1529687D01*
X1528970Y1390442D01*
X1524940Y1400173D01*
X1518528Y1408528D01*
X1510173Y1414940D01*
X1500442Y1418970D01*
X1495000Y1419687D01*
D02*
G37*
G36*
X1485000D02*
X1479558Y1418970D01*
X1469827Y1414940D01*
X1461472Y1408528D01*
X1455060Y1400173D01*
X1451030Y1390442D01*
X1450313Y1385000D01*
X1485000D01*
Y1419687D01*
D02*
G37*
G36*
X1014644Y1405000D02*
X985000D01*
Y1375356D01*
X989137Y1375901D01*
X997651Y1379428D01*
X1004962Y1385038D01*
X1010572Y1392349D01*
X1014099Y1400863D01*
X1014644Y1405000D01*
D02*
G37*
G36*
X975000D02*
X945356D01*
X945901Y1400863D01*
X949428Y1392349D01*
X955038Y1385038D01*
X962349Y1379428D01*
X970863Y1375901D01*
X975000Y1375356D01*
Y1405000D01*
D02*
G37*
G36*
X1816687Y1396000D02*
X1782000D01*
Y1361313D01*
X1787442Y1362030D01*
X1797173Y1366060D01*
X1805528Y1372472D01*
X1811940Y1380827D01*
X1815970Y1390558D01*
X1816687Y1396000D01*
D02*
G37*
G36*
X1772000D02*
X1737313D01*
X1738030Y1390558D01*
X1742060Y1380827D01*
X1748472Y1372472D01*
X1756827Y1366060D01*
X1766558Y1362030D01*
X1772000Y1361313D01*
Y1396000D01*
D02*
G37*
G36*
X3884410Y1388000D02*
X3856773D01*
Y1356425D01*
X3884410D01*
Y1388000D01*
D02*
G37*
G36*
X557439Y1398543D02*
X509331D01*
Y1350435D01*
X518247Y1351608D01*
X531214Y1356980D01*
X542350Y1365524D01*
X550894Y1376660D01*
X556266Y1389627D01*
X557439Y1398543D01*
D02*
G37*
G36*
X499331D02*
X451222D01*
X452396Y1389627D01*
X457767Y1376660D01*
X466312Y1365524D01*
X477447Y1356980D01*
X490415Y1351608D01*
X499331Y1350435D01*
Y1398543D01*
D02*
G37*
G36*
X410906Y1397597D02*
Y1349488D01*
X459014D01*
X457841Y1358404D01*
X452469Y1371372D01*
X443925Y1382507D01*
X432789Y1391052D01*
X419821Y1396423D01*
X410906Y1397597D01*
D02*
G37*
G36*
X400906D02*
X391990Y1396423D01*
X379022Y1391052D01*
X367886Y1382507D01*
X359342Y1371372D01*
X353971Y1358404D01*
X352797Y1349488D01*
X400906D01*
Y1397597D01*
D02*
G37*
G36*
X1529687Y1375000D02*
X1495000D01*
Y1340313D01*
X1500442Y1341030D01*
X1510173Y1345060D01*
X1518528Y1351472D01*
X1524940Y1359827D01*
X1528970Y1369558D01*
X1529687Y1375000D01*
D02*
G37*
G36*
X1485000D02*
X1450313D01*
X1451030Y1369558D01*
X1455060Y1359827D01*
X1461472Y1351472D01*
X1469827Y1345060D01*
X1479558Y1341030D01*
X1485000Y1340313D01*
Y1375000D01*
D02*
G37*
G36*
X2394000Y1501294D02*
X1914000D01*
X1911603Y1500817D01*
X1909179Y1500514D01*
X1908695Y1500239D01*
X1908147Y1500130D01*
X1906116Y1498773D01*
X1903992Y1497565D01*
X1851992Y1452565D01*
X1851649Y1452124D01*
X1851186Y1451814D01*
X1849829Y1449784D01*
X1848328Y1447855D01*
X1848180Y1447316D01*
X1847870Y1446853D01*
X1847394Y1444456D01*
X1846746Y1442101D01*
X1846815Y1441547D01*
X1846706Y1441000D01*
X1846706Y1343000D01*
X1847870Y1337147D01*
X1851186Y1332186D01*
X1879458Y1303913D01*
X1877544Y1299294D01*
X1160386Y1299294D01*
X1055306Y1364969D01*
X1054113Y1365421D01*
X1053053Y1366130D01*
X1051350Y1366468D01*
X1049726Y1367084D01*
X1048451Y1367045D01*
X1047200Y1367294D01*
X777436D01*
X776938Y1367195D01*
X776435Y1367261D01*
X774028Y1366616D01*
X771583Y1366130D01*
X768144Y1369647D01*
X767430Y1371372D01*
X758885Y1382507D01*
X747750Y1391052D01*
X734782Y1396423D01*
X725866Y1397597D01*
Y1344488D01*
X715866D01*
Y1397597D01*
X706950Y1396423D01*
X693982Y1391052D01*
X682847Y1382507D01*
X674302Y1371372D01*
X673588Y1369647D01*
X672225Y1368253D01*
X669082Y1368855D01*
X667124Y1374209D01*
X669005Y1376660D01*
X674376Y1389627D01*
X675550Y1398543D01*
X622441D01*
X569332D01*
X570506Y1389627D01*
X575877Y1376660D01*
X583232Y1367075D01*
X582460Y1361323D01*
X556057Y1350187D01*
X553625Y1348540D01*
X551186Y1346910D01*
X551158Y1346868D01*
X551116Y1346840D01*
X549505Y1344394D01*
X547870Y1341948D01*
X547861Y1341899D01*
X547833Y1341857D01*
X547279Y1338977D01*
X546706Y1336095D01*
Y1325146D01*
X541706Y1323946D01*
X531214Y1331997D01*
X518247Y1337368D01*
X504331Y1339200D01*
X490415Y1337368D01*
X477447Y1331997D01*
X466312Y1323452D01*
X457767Y1312317D01*
X452396Y1299349D01*
X450564Y1285433D01*
X452396Y1271517D01*
X457767Y1258550D01*
X466312Y1247414D01*
X477447Y1238869D01*
X490415Y1233498D01*
X504331Y1231666D01*
X518247Y1233498D01*
X531214Y1238869D01*
X542350Y1247414D01*
X543238Y1248572D01*
X544501Y1248814D01*
X549189Y1248113D01*
X549720Y1247392D01*
X551186Y1245199D01*
X551484Y1245000D01*
X551697Y1244711D01*
X587224Y1212326D01*
X587013Y1207330D01*
X584422Y1205342D01*
X575877Y1194206D01*
X570506Y1181239D01*
X568674Y1167323D01*
X570506Y1153407D01*
X575877Y1140439D01*
X584422Y1129304D01*
X595557Y1120759D01*
X608525Y1115388D01*
X622441Y1113556D01*
X636357Y1115388D01*
X649324Y1120759D01*
X660460Y1129304D01*
X665091Y1135339D01*
X670267Y1135686D01*
X673240Y1132585D01*
X668931Y1122184D01*
X667099Y1108268D01*
X668931Y1094352D01*
X674302Y1081384D01*
X682847Y1070249D01*
X693983Y1061704D01*
X706950Y1056333D01*
X720866Y1054501D01*
X734782Y1056333D01*
X747750Y1061704D01*
X758885Y1070249D01*
X767430Y1081384D01*
X772801Y1094352D01*
X774296Y1105706D01*
X916962Y1105706D01*
X1028109Y1000874D01*
X1030452Y999406D01*
X1032750Y997870D01*
X1032972Y997826D01*
X1033165Y997705D01*
X1035890Y997246D01*
X1038602Y996706D01*
X1974906D01*
X1978263Y993001D01*
X1978021Y990535D01*
X1979164Y978928D01*
X1982550Y967766D01*
X1988048Y957480D01*
X1995447Y948463D01*
X2004464Y941064D01*
X2014750Y935566D01*
X2025912Y932180D01*
X2037520Y931036D01*
X2049127Y932180D01*
X2060289Y935566D01*
X2070575Y941064D01*
X2079592Y948463D01*
X2086991Y957480D01*
X2092490Y967766D01*
X2095875Y978928D01*
X2097019Y990535D01*
X2095875Y1002143D01*
X2092490Y1013305D01*
X2086991Y1023591D01*
X2079592Y1032608D01*
X2070575Y1040007D01*
X2060289Y1045505D01*
X2049127Y1048891D01*
X2037520Y1050035D01*
X2025912Y1048891D01*
X2014750Y1045505D01*
X2009583Y1042743D01*
X2005294Y1045314D01*
Y1171544D01*
X2009913Y1173458D01*
X2038186Y1145186D01*
X2043147Y1141870D01*
X2049000Y1140706D01*
X2407610Y1140706D01*
X2409681Y1135706D01*
X2159277Y885302D01*
X875646D01*
X774186Y986762D01*
X774633Y990158D01*
X772801Y1004073D01*
X767430Y1017041D01*
X758885Y1028177D01*
X747750Y1036721D01*
X734782Y1042092D01*
X720866Y1043925D01*
X706950Y1042092D01*
X693983Y1036721D01*
X682847Y1028177D01*
X674302Y1017041D01*
X669749Y1006047D01*
X664749Y1007042D01*
Y1016783D01*
X669005Y1022329D01*
X674376Y1035297D01*
X676208Y1049213D01*
X674376Y1063129D01*
X669005Y1076096D01*
X660460Y1087232D01*
X649324Y1095776D01*
X636357Y1101148D01*
X622441Y1102980D01*
X608525Y1101148D01*
X595557Y1095776D01*
X584422Y1087232D01*
X575877Y1076096D01*
X570506Y1063129D01*
X568674Y1049213D01*
X570506Y1035297D01*
X575877Y1022329D01*
X584422Y1011193D01*
X594145Y1003733D01*
Y977741D01*
X589525Y975827D01*
X547477Y1017875D01*
X550894Y1022329D01*
X556266Y1035297D01*
X558098Y1049213D01*
X556266Y1063129D01*
X550894Y1076096D01*
X542350Y1087232D01*
X531214Y1095776D01*
X518247Y1101148D01*
X504331Y1102980D01*
X490415Y1101148D01*
X477447Y1095776D01*
X466312Y1087232D01*
X457767Y1076096D01*
X452396Y1063129D01*
X450564Y1049213D01*
X452396Y1035297D01*
X457767Y1022329D01*
X466312Y1011193D01*
X469320Y1008885D01*
X470232Y1001960D01*
X473758Y993446D01*
X479368Y986135D01*
X995582Y469921D01*
X993668Y465302D01*
X980686D01*
X459226Y986762D01*
X459673Y990158D01*
X457841Y1004073D01*
X452469Y1017041D01*
X443925Y1028177D01*
X432789Y1036721D01*
X419821Y1042092D01*
X405906Y1043925D01*
X391990Y1042092D01*
X379022Y1036721D01*
X367886Y1028177D01*
X359342Y1017041D01*
X353971Y1004073D01*
X352138Y990158D01*
X353971Y976242D01*
X359342Y963274D01*
X367886Y952138D01*
X379022Y943594D01*
X391990Y938222D01*
X405906Y936390D01*
X409301Y936837D01*
X941101Y405038D01*
X948412Y399428D01*
X956926Y395901D01*
X966063Y394698D01*
X2646480D01*
X2655617Y395901D01*
X2664131Y399428D01*
X2671442Y405038D01*
X3587942Y1321537D01*
X3597378Y1320608D01*
X3730755D01*
X3742517Y1321767D01*
X3753827Y1325197D01*
X3764251Y1330769D01*
X3773387Y1338267D01*
X3780885Y1347403D01*
X3786456Y1357826D01*
X3789887Y1369136D01*
X3791045Y1380898D01*
X3789887Y1392660D01*
X3786456Y1403970D01*
X3780885Y1414394D01*
X3773387Y1423530D01*
X3764251Y1431028D01*
X3753827Y1436599D01*
X3742517Y1440030D01*
X3730755Y1441189D01*
X3597378D01*
X3585616Y1440030D01*
X3574306Y1436599D01*
X3563883Y1431028D01*
X3554747Y1423530D01*
X3547249Y1414394D01*
X3541677Y1403970D01*
X3538247Y1392660D01*
X3537088Y1380898D01*
X3538017Y1371462D01*
X2631857Y465302D01*
X2384339D01*
X2382425Y469921D01*
X3233592Y1321088D01*
X3243028Y1320159D01*
X3376320D01*
X3388082Y1321317D01*
X3399392Y1324748D01*
X3409816Y1330319D01*
X3418952Y1337817D01*
X3426450Y1346953D01*
X3432021Y1357377D01*
X3435452Y1368687D01*
X3436610Y1380449D01*
X3435452Y1392211D01*
X3432021Y1403521D01*
X3426450Y1413944D01*
X3418952Y1423081D01*
X3409816Y1430578D01*
X3399392Y1436150D01*
X3388082Y1439581D01*
X3376320Y1440739D01*
X3243028D01*
X3231266Y1439581D01*
X3219956Y1436150D01*
X3209532Y1430578D01*
X3200396Y1423081D01*
X3192898Y1413944D01*
X3187327Y1403521D01*
X3183896Y1392211D01*
X3182738Y1380449D01*
X3183667Y1371013D01*
X2337957Y525302D01*
X2089573D01*
X2087659Y529921D01*
X2879276Y1321537D01*
X2888712Y1320608D01*
X3022088D01*
X3033851Y1321767D01*
X3045160Y1325197D01*
X3055584Y1330769D01*
X3064720Y1338267D01*
X3072218Y1347403D01*
X3077789Y1357826D01*
X3081220Y1369136D01*
X3082379Y1380898D01*
X3081220Y1392660D01*
X3077789Y1403970D01*
X3072218Y1414394D01*
X3064720Y1423530D01*
X3055584Y1431028D01*
X3045160Y1436599D01*
X3033851Y1440030D01*
X3022088Y1441189D01*
X2888712D01*
X2876950Y1440030D01*
X2865640Y1436599D01*
X2855216Y1431028D01*
X2846080Y1423530D01*
X2838582Y1414394D01*
X2833011Y1403970D01*
X2829580Y1392660D01*
X2828421Y1380898D01*
X2829351Y1371462D01*
X2043191Y585302D01*
X1064903D01*
X719590Y930615D01*
X721640Y935554D01*
X725060Y936039D01*
X836061Y825038D01*
X843373Y819428D01*
X851887Y815901D01*
X861024Y814698D01*
X1806800D01*
X1808407Y809963D01*
X1807427Y809211D01*
X1799513Y798898D01*
X1794538Y786888D01*
X1792842Y774000D01*
X1794538Y761112D01*
X1799513Y749102D01*
X1807427Y738789D01*
X1817740Y730875D01*
X1829749Y725901D01*
X1837642Y724861D01*
Y700126D01*
X1838806Y694273D01*
X1839276Y693571D01*
X1839283Y693543D01*
X1839283D01*
X1839284Y688841D01*
Y616457D01*
X1912433D01*
Y693543D01*
X1881148D01*
X1868230Y706461D01*
Y731408D01*
X1877849Y738789D01*
X1885762Y749102D01*
X1890737Y761112D01*
X1892434Y774000D01*
X1890737Y786888D01*
X1885762Y798898D01*
X1877849Y809211D01*
X1876869Y809963D01*
X1878476Y814698D01*
X1976091D01*
X1977698Y809963D01*
X1976718Y809211D01*
X1968804Y798898D01*
X1963830Y786888D01*
X1962133Y774000D01*
X1963830Y761112D01*
X1968804Y749102D01*
X1976718Y738789D01*
X1987031Y730875D01*
X1996635Y726897D01*
Y706162D01*
X1984016Y693543D01*
X1955425D01*
Y616457D01*
X2028575D01*
Y693543D01*
X2028575D01*
X2026967Y698543D01*
X2027223Y699827D01*
Y726897D01*
X2036827Y730875D01*
X2047140Y738789D01*
X2055054Y749102D01*
X2060028Y761112D01*
X2061725Y774000D01*
X2060028Y786888D01*
X2055054Y798898D01*
X2047140Y809211D01*
X2046160Y809963D01*
X2047767Y814698D01*
X2173899D01*
X2183036Y815901D01*
X2191550Y819428D01*
X2198862Y825038D01*
X2550293Y1176469D01*
X2555903Y1183780D01*
X2559430Y1192294D01*
X2560633Y1201431D01*
Y1320916D01*
X2667448D01*
X2679210Y1322074D01*
X2690520Y1325505D01*
X2700943Y1331076D01*
X2710079Y1338574D01*
X2717577Y1347710D01*
X2723148Y1358134D01*
X2726579Y1369444D01*
X2727738Y1381206D01*
X2726579Y1392968D01*
X2723148Y1404278D01*
X2717577Y1414701D01*
X2710079Y1423838D01*
X2700943Y1431336D01*
X2690520Y1436907D01*
X2679210Y1440338D01*
X2667448Y1441496D01*
X2534552D01*
X2522790Y1440338D01*
X2511480Y1436907D01*
X2501057Y1431336D01*
X2491921Y1423838D01*
X2484423Y1414701D01*
X2478851Y1404278D01*
X2475421Y1392968D01*
X2474262Y1381206D01*
X2475421Y1369444D01*
X2478851Y1358134D01*
X2484423Y1347710D01*
X2490029Y1340880D01*
Y1216054D01*
X2431294Y1157319D01*
X2426294Y1159390D01*
Y1469000D01*
X2425130Y1474853D01*
X2421814Y1479814D01*
X2404814Y1496814D01*
X2399853Y1500130D01*
X2394000Y1501294D01*
D02*
G37*
G36*
X459014Y1339488D02*
X410906D01*
Y1291379D01*
X419821Y1292553D01*
X432789Y1297925D01*
X443925Y1306469D01*
X452469Y1317605D01*
X457841Y1330572D01*
X459014Y1339488D01*
D02*
G37*
G36*
X400906D02*
X352797D01*
X353971Y1330572D01*
X359342Y1317605D01*
X367886Y1306469D01*
X379022Y1297925D01*
X391990Y1292553D01*
X400906Y1291379D01*
Y1339488D01*
D02*
G37*
G36*
X2606000Y1249644D02*
Y1220000D01*
X2635644D01*
X2635099Y1224137D01*
X2631572Y1232651D01*
X2625962Y1239962D01*
X2618651Y1245572D01*
X2610137Y1249099D01*
X2606000Y1249644D01*
D02*
G37*
G36*
X2596000D02*
X2591863Y1249099D01*
X2583349Y1245572D01*
X2576038Y1239962D01*
X2570428Y1232651D01*
X2566901Y1224137D01*
X2566356Y1220000D01*
X2596000D01*
Y1249644D01*
D02*
G37*
G36*
X2635644Y1210000D02*
X2606000D01*
Y1180356D01*
X2610137Y1180901D01*
X2618651Y1184428D01*
X2625962Y1190038D01*
X2631572Y1197349D01*
X2635099Y1205863D01*
X2635644Y1210000D01*
D02*
G37*
G36*
X2596000D02*
X2566356D01*
X2566901Y1205863D01*
X2570428Y1197349D01*
X2576038Y1190038D01*
X2583349Y1184428D01*
X2591863Y1180901D01*
X2596000Y1180356D01*
Y1210000D01*
D02*
G37*
G36*
X405906Y1280145D02*
X391990Y1278313D01*
X379022Y1272942D01*
X367886Y1264397D01*
X359342Y1253262D01*
X353971Y1240294D01*
X352138Y1226378D01*
X353971Y1212462D01*
X359342Y1199495D01*
X367886Y1188359D01*
X379022Y1179814D01*
X391990Y1174443D01*
X405906Y1172611D01*
X419821Y1174443D01*
X432789Y1179814D01*
X443925Y1188359D01*
X452469Y1199495D01*
X457841Y1212462D01*
X459673Y1226378D01*
X457841Y1240294D01*
X452469Y1253262D01*
X443925Y1264397D01*
X432789Y1272942D01*
X419821Y1278313D01*
X405906Y1280145D01*
D02*
G37*
G36*
X504331Y1221090D02*
X490415Y1219258D01*
X477447Y1213887D01*
X466312Y1205342D01*
X457767Y1194206D01*
X452396Y1181239D01*
X450564Y1167323D01*
X452396Y1153407D01*
X457767Y1140439D01*
X466312Y1129304D01*
X477447Y1120759D01*
X490415Y1115388D01*
X504331Y1113556D01*
X518247Y1115388D01*
X531214Y1120759D01*
X542350Y1129304D01*
X550894Y1140439D01*
X556266Y1153407D01*
X558098Y1167323D01*
X556266Y1181239D01*
X550894Y1194206D01*
X542350Y1205342D01*
X531214Y1213887D01*
X518247Y1219258D01*
X504331Y1221090D01*
D02*
G37*
G36*
X4145000Y1114644D02*
Y1085000D01*
X4174644D01*
X4174099Y1089137D01*
X4170572Y1097651D01*
X4164962Y1104962D01*
X4157651Y1110572D01*
X4149137Y1114099D01*
X4145000Y1114644D01*
D02*
G37*
G36*
X4135000D02*
X4130863Y1114099D01*
X4122349Y1110572D01*
X4115038Y1104962D01*
X4109428Y1097651D01*
X4105901Y1089137D01*
X4105356Y1085000D01*
X4135000D01*
Y1114644D01*
D02*
G37*
G36*
X2185000Y1094644D02*
Y1065000D01*
X2214644D01*
X2214099Y1069137D01*
X2210572Y1077651D01*
X2204962Y1084962D01*
X2197651Y1090572D01*
X2189137Y1094099D01*
X2185000Y1094644D01*
D02*
G37*
G36*
X2175000D02*
X2170863Y1094099D01*
X2162349Y1090572D01*
X2155038Y1084962D01*
X2149428Y1077651D01*
X2145901Y1069137D01*
X2145356Y1065000D01*
X2175000D01*
Y1094644D01*
D02*
G37*
G36*
X405906Y1162035D02*
X391990Y1160203D01*
X379022Y1154831D01*
X367886Y1146287D01*
X359342Y1135151D01*
X353971Y1122184D01*
X352138Y1108268D01*
X353971Y1094352D01*
X359342Y1081384D01*
X367886Y1070249D01*
X379022Y1061704D01*
X391990Y1056333D01*
X405906Y1054501D01*
X419821Y1056333D01*
X432789Y1061704D01*
X443925Y1070249D01*
X452469Y1081384D01*
X457841Y1094352D01*
X459673Y1108268D01*
X457841Y1122184D01*
X452469Y1135151D01*
X443925Y1146287D01*
X432789Y1154831D01*
X419821Y1160203D01*
X405906Y1162035D01*
D02*
G37*
G36*
X4174644Y1075000D02*
X4145000D01*
Y1045356D01*
X4149137Y1045901D01*
X4157651Y1049428D01*
X4164962Y1055038D01*
X4170572Y1062349D01*
X4174099Y1070863D01*
X4174644Y1075000D01*
D02*
G37*
G36*
X4135000D02*
X4105356D01*
X4105901Y1070863D01*
X4109428Y1062349D01*
X4115038Y1055038D01*
X4122349Y1049428D01*
X4130863Y1045901D01*
X4135000Y1045356D01*
Y1075000D01*
D02*
G37*
G36*
X2214644Y1055000D02*
X2185000D01*
Y1025356D01*
X2189137Y1025901D01*
X2197651Y1029428D01*
X2204962Y1035038D01*
X2210572Y1042349D01*
X2214099Y1050863D01*
X2214644Y1055000D01*
D02*
G37*
G36*
X2175000D02*
X2145356D01*
X2145901Y1050863D01*
X2149428Y1042349D01*
X2155038Y1035038D01*
X2162349Y1029428D01*
X2170863Y1025901D01*
X2175000Y1025356D01*
Y1055000D01*
D02*
G37*
G36*
X925000Y1034644D02*
Y1005000D01*
X954644D01*
X954099Y1009137D01*
X950572Y1017651D01*
X944962Y1024962D01*
X937651Y1030572D01*
X929137Y1034099D01*
X925000Y1034644D01*
D02*
G37*
G36*
X915000D02*
X910863Y1034099D01*
X902349Y1030572D01*
X895038Y1024962D01*
X889428Y1017651D01*
X885901Y1009137D01*
X885356Y1005000D01*
X915000D01*
Y1034644D01*
D02*
G37*
G36*
X954644Y995000D02*
X925000D01*
Y965356D01*
X929137Y965901D01*
X937651Y969428D01*
X944962Y975038D01*
X950572Y982349D01*
X954099Y990863D01*
X954644Y995000D01*
D02*
G37*
G36*
X915000D02*
X885356D01*
X885901Y990863D01*
X889428Y982349D01*
X895038Y975038D01*
X902349Y969428D01*
X910863Y965901D01*
X915000Y965356D01*
Y995000D01*
D02*
G37*
G36*
X1345000Y964644D02*
Y935000D01*
X1374644D01*
X1374099Y939137D01*
X1370572Y947651D01*
X1364962Y954962D01*
X1357651Y960572D01*
X1349137Y964099D01*
X1345000Y964644D01*
D02*
G37*
G36*
X1335000D02*
X1330863Y964099D01*
X1322349Y960572D01*
X1315038Y954962D01*
X1309428Y947651D01*
X1305901Y939137D01*
X1305356Y935000D01*
X1335000D01*
Y964644D01*
D02*
G37*
G36*
X1374644Y925000D02*
X1345000D01*
Y895356D01*
X1349137Y895901D01*
X1357651Y899428D01*
X1364962Y905038D01*
X1370572Y912349D01*
X1374099Y920863D01*
X1374644Y925000D01*
D02*
G37*
G36*
X1335000D02*
X1305356D01*
X1305901Y920863D01*
X1309428Y912349D01*
X1315038Y905038D01*
X1322349Y899428D01*
X1330863Y895901D01*
X1335000Y895356D01*
Y925000D01*
D02*
G37*
G36*
X2565000Y884644D02*
Y855000D01*
X2594644D01*
X2594099Y859137D01*
X2590572Y867651D01*
X2584962Y874962D01*
X2577651Y880572D01*
X2569137Y884099D01*
X2565000Y884644D01*
D02*
G37*
G36*
X2555000D02*
X2550863Y884099D01*
X2542349Y880572D01*
X2535038Y874962D01*
X2529428Y867651D01*
X2525901Y859137D01*
X2525356Y855000D01*
X2555000D01*
Y884644D01*
D02*
G37*
G36*
X2888776Y854644D02*
Y825000D01*
X2918419D01*
X2917875Y829137D01*
X2914348Y837651D01*
X2908738Y844962D01*
X2901427Y850572D01*
X2892912Y854099D01*
X2888776Y854644D01*
D02*
G37*
G36*
X2878776D02*
X2874639Y854099D01*
X2866125Y850572D01*
X2858813Y844962D01*
X2853203Y837651D01*
X2849677Y829137D01*
X2849132Y825000D01*
X2878776D01*
Y854644D01*
D02*
G37*
G36*
X2594644Y845000D02*
X2565000D01*
Y815356D01*
X2569137Y815901D01*
X2577651Y819428D01*
X2584962Y825038D01*
X2590572Y832349D01*
X2594099Y840863D01*
X2594644Y845000D01*
D02*
G37*
G36*
X2555000D02*
X2525356D01*
X2525901Y840863D01*
X2529428Y832349D01*
X2535038Y825038D01*
X2542349Y819428D01*
X2550863Y815901D01*
X2555000Y815356D01*
Y845000D01*
D02*
G37*
G36*
X2918419Y815000D02*
X2888776D01*
Y785356D01*
X2892912Y785901D01*
X2901427Y789428D01*
X2908738Y795038D01*
X2914348Y802349D01*
X2917875Y810863D01*
X2918419Y815000D01*
D02*
G37*
G36*
X2878776D02*
X2849132D01*
X2849677Y810863D01*
X2853203Y802349D01*
X2858813Y795038D01*
X2866125Y789428D01*
X2874639Y785901D01*
X2878776Y785356D01*
Y815000D01*
D02*
G37*
G36*
X1425000Y734644D02*
Y705000D01*
X1454644D01*
X1454099Y709137D01*
X1450572Y717651D01*
X1444962Y724962D01*
X1437651Y730572D01*
X1429137Y734099D01*
X1425000Y734644D01*
D02*
G37*
G36*
X1415000D02*
X1410863Y734099D01*
X1402349Y730572D01*
X1395038Y724962D01*
X1389428Y717651D01*
X1385901Y709137D01*
X1385356Y705000D01*
X1415000D01*
Y734644D01*
D02*
G37*
G36*
X1454644Y695000D02*
X1425000D01*
Y665356D01*
X1429137Y665901D01*
X1437651Y669428D01*
X1444962Y675038D01*
X1450572Y682349D01*
X1454099Y690863D01*
X1454644Y695000D01*
D02*
G37*
G36*
X1415000D02*
X1385356D01*
X1385901Y690863D01*
X1389428Y682349D01*
X1395038Y675038D01*
X1402349Y669428D01*
X1410863Y665901D01*
X1415000Y665356D01*
Y695000D01*
D02*
G37*
G36*
X150000Y780048D02*
X135305Y778600D01*
X121175Y774314D01*
X108153Y767353D01*
X96738Y757986D01*
X87371Y746572D01*
X80410Y733549D01*
X76124Y719419D01*
X74677Y704724D01*
X76124Y690030D01*
X80410Y675899D01*
X87371Y662877D01*
X96738Y651463D01*
X108153Y642095D01*
X121175Y635135D01*
X135305Y630848D01*
X150000Y629401D01*
X164695Y630848D01*
X178825Y635135D01*
X191847Y642095D01*
X203262Y651463D01*
X212629Y662877D01*
X219590Y675899D01*
X223876Y690030D01*
X225323Y704724D01*
X223876Y719419D01*
X219590Y733549D01*
X212629Y746572D01*
X203262Y757986D01*
X191847Y767353D01*
X178825Y774314D01*
X164695Y778600D01*
X150000Y780048D01*
D02*
G37*
G36*
X4705000Y435024D02*
Y305000D01*
X4835024D01*
X4833750Y321184D01*
X4828790Y341846D01*
X4820658Y361478D01*
X4809555Y379596D01*
X4795755Y395755D01*
X4779596Y409555D01*
X4761478Y420658D01*
X4741846Y428790D01*
X4721184Y433750D01*
X4705000Y435024D01*
D02*
G37*
G36*
X4695000D02*
X4678816Y433750D01*
X4658154Y428790D01*
X4638522Y420658D01*
X4620404Y409555D01*
X4604245Y395755D01*
X4590445Y379596D01*
X4579342Y361478D01*
X4571210Y341846D01*
X4566250Y321184D01*
X4564976Y305000D01*
X4695000D01*
Y435024D01*
D02*
G37*
G36*
X305000D02*
Y305000D01*
X435024D01*
X433750Y321184D01*
X428790Y341846D01*
X420658Y361478D01*
X409555Y379596D01*
X395755Y395755D01*
X379596Y409555D01*
X361478Y420658D01*
X341846Y428790D01*
X321184Y433750D01*
X305000Y435024D01*
D02*
G37*
G36*
X295000D02*
X278816Y433750D01*
X258154Y428790D01*
X238522Y420658D01*
X220404Y409555D01*
X204245Y395755D01*
X190445Y379596D01*
X179342Y361478D01*
X171210Y341846D01*
X166250Y321184D01*
X164976Y305000D01*
X295000D01*
Y435024D01*
D02*
G37*
G36*
X3045000Y324644D02*
Y295000D01*
X3074644D01*
X3074099Y299137D01*
X3070572Y307651D01*
X3064962Y314962D01*
X3057651Y320572D01*
X3049137Y324099D01*
X3045000Y324644D01*
D02*
G37*
G36*
X3035000D02*
X3030863Y324099D01*
X3022349Y320572D01*
X3015038Y314962D01*
X3009428Y307651D01*
X3005901Y299137D01*
X3005356Y295000D01*
X3035000D01*
Y324644D01*
D02*
G37*
G36*
X3074644Y285000D02*
X3045000D01*
Y255356D01*
X3049137Y255901D01*
X3057651Y259428D01*
X3064962Y265038D01*
X3070572Y272349D01*
X3074099Y280863D01*
X3074644Y285000D01*
D02*
G37*
G36*
X3035000D02*
X3005356D01*
X3005901Y280863D01*
X3009428Y272349D01*
X3015038Y265038D01*
X3022349Y259428D01*
X3030863Y255901D01*
X3035000Y255356D01*
Y285000D01*
D02*
G37*
G36*
X1115000Y284644D02*
Y255000D01*
X1144644D01*
X1144099Y259137D01*
X1140572Y267651D01*
X1134962Y274962D01*
X1127651Y280572D01*
X1119137Y284099D01*
X1115000Y284644D01*
D02*
G37*
G36*
X1105000D02*
X1100863Y284099D01*
X1092349Y280572D01*
X1085038Y274962D01*
X1079428Y267651D01*
X1075901Y259137D01*
X1075356Y255000D01*
X1105000D01*
Y284644D01*
D02*
G37*
G36*
X2000969Y274644D02*
Y245000D01*
X2030612D01*
X2030068Y249137D01*
X2026541Y257651D01*
X2020931Y264962D01*
X2013620Y270572D01*
X2005105Y274099D01*
X2000969Y274644D01*
D02*
G37*
G36*
X1990969D02*
X1986832Y274099D01*
X1978318Y270572D01*
X1971006Y264962D01*
X1965396Y257651D01*
X1961870Y249137D01*
X1961325Y245000D01*
X1990969D01*
Y274644D01*
D02*
G37*
G36*
X1144644Y245000D02*
X1115000D01*
Y215356D01*
X1119137Y215901D01*
X1127651Y219428D01*
X1134962Y225038D01*
X1140572Y232349D01*
X1144099Y240863D01*
X1144644Y245000D01*
D02*
G37*
G36*
X1105000D02*
X1075356D01*
X1075901Y240863D01*
X1079428Y232349D01*
X1085038Y225038D01*
X1092349Y219428D01*
X1100863Y215901D01*
X1105000Y215356D01*
Y245000D01*
D02*
G37*
G36*
X2030612Y235000D02*
X2000969D01*
Y205356D01*
X2005105Y205901D01*
X2013620Y209428D01*
X2020931Y215038D01*
X2026541Y222349D01*
X2030068Y230863D01*
X2030612Y235000D01*
D02*
G37*
G36*
X1990969D02*
X1961325D01*
X1961870Y230863D01*
X1965396Y222349D01*
X1971006Y215038D01*
X1978318Y209428D01*
X1986832Y205901D01*
X1990969Y205356D01*
Y235000D01*
D02*
G37*
G36*
X4835024Y295000D02*
X4705000D01*
Y164976D01*
X4721184Y166250D01*
X4741846Y171210D01*
X4761478Y179342D01*
X4779596Y190445D01*
X4795755Y204245D01*
X4809555Y220404D01*
X4820658Y238522D01*
X4828790Y258154D01*
X4833750Y278816D01*
X4835024Y295000D01*
D02*
G37*
G36*
X4695000D02*
X4564976D01*
X4566250Y278816D01*
X4571210Y258154D01*
X4579342Y238522D01*
X4590445Y220404D01*
X4604245Y204245D01*
X4620404Y190445D01*
X4638522Y179342D01*
X4658154Y171210D01*
X4678816Y166250D01*
X4695000Y164976D01*
Y295000D01*
D02*
G37*
G36*
X435024D02*
X305000D01*
Y164976D01*
X321184Y166250D01*
X341846Y171210D01*
X361478Y179342D01*
X379596Y190445D01*
X395755Y204245D01*
X409555Y220404D01*
X420658Y238522D01*
X428790Y258154D01*
X433750Y278816D01*
X435024Y295000D01*
D02*
G37*
G36*
X295000D02*
X164976D01*
X166250Y278816D01*
X171210Y258154D01*
X179342Y238522D01*
X190445Y220404D01*
X204245Y204245D01*
X220404Y190445D01*
X238522Y179342D01*
X258154Y171210D01*
X278816Y166250D01*
X295000Y164976D01*
Y295000D01*
D02*
G37*
%LPD*%
G36*
X1253468Y3278079D02*
X1225258Y3249869D01*
X760970D01*
X758885Y3252586D01*
X747750Y3261131D01*
X734782Y3266502D01*
X723383Y3268003D01*
X721591Y3273282D01*
X731007Y3282698D01*
X1251554D01*
X1253468Y3278079D01*
D02*
G37*
G36*
X1268354Y3186448D02*
Y3145447D01*
X1008187D01*
X991777Y3161857D01*
X987146Y3164952D01*
X981683Y3166038D01*
X981683Y3166038D01*
X753402D01*
X751705Y3171038D01*
X758885Y3176548D01*
X760970Y3179265D01*
X1239881D01*
X1249017Y3180468D01*
X1257532Y3183994D01*
X1263354Y3188462D01*
X1268354Y3186448D01*
D02*
G37*
G36*
X984000Y2957000D02*
X1374000D01*
X1550000Y2781000D01*
Y2684000D01*
X1480294Y2614294D01*
X1202000D01*
X1201270Y2614149D01*
X880000Y2619000D01*
X831000D01*
X754215Y2695785D01*
X754542Y2700774D01*
X758885Y2704107D01*
X767430Y2715242D01*
X772801Y2728210D01*
X774633Y2742126D01*
X772801Y2756042D01*
X767430Y2769010D01*
X758885Y2780145D01*
X747750Y2788690D01*
X734782Y2794061D01*
X720866Y2795893D01*
X706950Y2794061D01*
X693982Y2788690D01*
X682847Y2780145D01*
X679514Y2775802D01*
X674525Y2775475D01*
X670966Y2779034D01*
X674376Y2787265D01*
X676208Y2801181D01*
X674376Y2815097D01*
X669005Y2828065D01*
X660460Y2839200D01*
X649324Y2847745D01*
X640000Y2851607D01*
Y2868865D01*
X649324Y2872728D01*
X660460Y2881272D01*
X669005Y2892408D01*
X674376Y2905375D01*
X676208Y2919291D01*
X674376Y2933207D01*
X669005Y2946175D01*
X660460Y2957310D01*
X649324Y2965855D01*
X640000Y2969717D01*
Y2982000D01*
X648494Y2990494D01*
X649324Y2990838D01*
X660460Y2999383D01*
X669005Y3010518D01*
X669348Y3011348D01*
X697000Y3039000D01*
X902000D01*
X984000Y2957000D01*
D02*
G37*
G36*
X1844000Y2366000D02*
X1264500D01*
X1201000Y2429500D01*
X1202000Y2430500D01*
Y2599000D01*
X1503000D01*
X1626000Y2722000D01*
X1844000D01*
Y2366000D01*
D02*
G37*
G36*
X2516500Y2359000D02*
X1937000D01*
X1874274Y2421726D01*
Y2423274D01*
X1874500Y2423500D01*
Y2592000D01*
X2175500D01*
X2298500Y2715000D01*
X2516500D01*
Y2359000D01*
D02*
G37*
G36*
X4246783Y1692638D02*
X4205000D01*
Y1660000D01*
X4200000D01*
Y1655000D01*
X4149646D01*
Y1634278D01*
X2048613Y1634278D01*
Y1715000D01*
X1946920D01*
X1845227D01*
Y1634278D01*
X1794443D01*
Y1714173D01*
X1681923D01*
Y1724173D01*
D01*
Y1714173D01*
X1569403D01*
Y1634278D01*
X1228783D01*
X1228783Y2313278D01*
X4246783D01*
Y1692638D01*
D02*
G37*
G36*
X1526883Y1618566D02*
X1528387Y1613984D01*
X1517308Y1602906D01*
X1465788D01*
Y1544265D01*
X1465494Y1542787D01*
Y1506511D01*
X1460494Y1506175D01*
X1442599Y1524069D01*
X1437638Y1527384D01*
X1431785Y1528549D01*
X1422795D01*
Y1602906D01*
X1401515D01*
Y1618984D01*
X1526557D01*
X1526883Y1618566D01*
D02*
G37*
%LPC*%
G36*
X730866Y3030797D02*
Y2988346D01*
X773317D01*
X772801Y2992262D01*
X767430Y3005230D01*
X758885Y3016366D01*
X747750Y3024910D01*
X734782Y3030282D01*
X730866Y3030797D01*
D02*
G37*
G36*
X710866Y3030797D02*
X706950Y3030282D01*
X693983Y3024910D01*
X682847Y3016366D01*
X674302Y3005230D01*
X668931Y2992262D01*
X668415Y2988346D01*
X710866D01*
Y3030797D01*
D02*
G37*
G36*
X773317Y2968346D02*
X730866D01*
Y2925896D01*
X734782Y2926412D01*
X747750Y2931783D01*
X758885Y2940327D01*
X767430Y2951463D01*
X772801Y2964431D01*
X773317Y2968346D01*
D02*
G37*
G36*
X710866D02*
X668416D01*
X668931Y2964431D01*
X674302Y2951463D01*
X682847Y2940327D01*
X693983Y2931783D01*
X706950Y2926412D01*
X710866Y2925896D01*
Y2968346D01*
D02*
G37*
G36*
X730866Y2912687D02*
Y2870236D01*
X773317D01*
X772801Y2874152D01*
X767430Y2887120D01*
X758885Y2898255D01*
X747750Y2906800D01*
X734782Y2912171D01*
X730866Y2912687D01*
D02*
G37*
G36*
X710866D02*
X706950Y2912171D01*
X693982Y2906800D01*
X682847Y2898255D01*
X674302Y2887120D01*
X668931Y2874152D01*
X668416Y2870236D01*
X710866D01*
Y2912687D01*
D02*
G37*
G36*
X773317Y2850236D02*
X730866D01*
Y2807786D01*
X734782Y2808301D01*
X747750Y2813673D01*
X758885Y2822217D01*
X767430Y2833353D01*
X772801Y2846320D01*
X773317Y2850236D01*
D02*
G37*
G36*
X710866D02*
X668416D01*
X668931Y2846320D01*
X674302Y2833353D01*
X682847Y2822217D01*
X693982Y2813673D01*
X706950Y2808301D01*
X710866Y2807786D01*
Y2850236D01*
D02*
G37*
G36*
X1260410Y2899964D02*
X1248802Y2898820D01*
X1237640Y2895434D01*
X1227354Y2889936D01*
X1218337Y2882537D01*
X1210938Y2873520D01*
X1205440Y2863234D01*
X1202054Y2852072D01*
X1200910Y2840465D01*
X1202054Y2828857D01*
X1205440Y2817695D01*
X1210938Y2807409D01*
X1218337Y2798392D01*
X1227354Y2790993D01*
X1237640Y2785494D01*
X1248802Y2782109D01*
X1260410Y2780965D01*
X1272017Y2782109D01*
X1283179Y2785494D01*
X1293466Y2790993D01*
X1302482Y2798392D01*
X1309881Y2807409D01*
X1315380Y2817695D01*
X1318765Y2828857D01*
X1319909Y2840465D01*
X1318765Y2852072D01*
X1315380Y2863234D01*
X1309881Y2873520D01*
X1302482Y2882537D01*
X1293466Y2889936D01*
X1283179Y2895434D01*
X1272017Y2898820D01*
X1260410Y2899964D01*
D02*
G37*
G36*
X1420016Y2761184D02*
Y2712669D01*
X1468530D01*
X1468372Y2714277D01*
X1464986Y2725439D01*
X1459488Y2735725D01*
X1452088Y2744742D01*
X1443072Y2752141D01*
X1432785Y2757639D01*
X1421624Y2761025D01*
X1420016Y2761184D01*
D02*
G37*
G36*
X1400016Y2761183D02*
X1398408Y2761025D01*
X1387247Y2757639D01*
X1376960Y2752141D01*
X1367944Y2744742D01*
X1360544Y2735725D01*
X1355046Y2725439D01*
X1351660Y2714277D01*
X1351502Y2712669D01*
X1400016D01*
Y2761183D01*
D02*
G37*
G36*
Y2692669D02*
X1351502D01*
X1351660Y2691062D01*
X1355046Y2679900D01*
X1360544Y2669613D01*
X1367944Y2660597D01*
X1376960Y2653198D01*
X1387247Y2647699D01*
X1398408Y2644314D01*
X1400016Y2644155D01*
Y2692669D01*
D02*
G37*
G36*
X1468530D02*
X1420016D01*
Y2644155D01*
X1421624Y2644314D01*
X1432785Y2647699D01*
X1443072Y2653198D01*
X1452088Y2660597D01*
X1459488Y2669613D01*
X1464986Y2679900D01*
X1468372Y2691062D01*
X1468530Y2692669D01*
D02*
G37*
G36*
X1768701Y2633179D02*
Y2586757D01*
X1815123D01*
X1814472Y2591701D01*
X1808704Y2605626D01*
X1799528Y2617584D01*
X1787570Y2626760D01*
X1773645Y2632528D01*
X1768701Y2633179D01*
D02*
G37*
G36*
X1634843D02*
Y2586757D01*
X1681265D01*
X1680614Y2591701D01*
X1674846Y2605626D01*
X1665670Y2617584D01*
X1653712Y2626760D01*
X1639787Y2632528D01*
X1634843Y2633179D01*
D02*
G37*
G36*
X1748701D02*
X1743758Y2632528D01*
X1729832Y2626760D01*
X1717874Y2617584D01*
X1708699Y2605626D01*
X1702931Y2591701D01*
X1702280Y2586757D01*
X1748701D01*
Y2633179D01*
D02*
G37*
G36*
X1614843D02*
X1609899Y2632528D01*
X1595974Y2626760D01*
X1584016Y2617584D01*
X1574840Y2605626D01*
X1569072Y2591701D01*
X1568421Y2586757D01*
X1614843D01*
Y2633179D01*
D02*
G37*
G36*
X1815123Y2566757D02*
X1768701D01*
Y2520336D01*
X1773645Y2520986D01*
X1787570Y2526755D01*
X1799528Y2535930D01*
X1808704Y2547888D01*
X1814472Y2561814D01*
X1815123Y2566757D01*
D02*
G37*
G36*
X1681265D02*
X1634843D01*
Y2520336D01*
X1639787Y2520986D01*
X1653712Y2526755D01*
X1665670Y2535930D01*
X1674846Y2547888D01*
X1680614Y2561814D01*
X1681265Y2566757D01*
D02*
G37*
G36*
X1748701D02*
X1702280D01*
X1702931Y2561814D01*
X1708699Y2547888D01*
X1717874Y2535930D01*
X1729832Y2526755D01*
X1743758Y2520986D01*
X1748701Y2520336D01*
Y2566757D01*
D02*
G37*
G36*
X1614843D02*
X1568421D01*
X1569072Y2561814D01*
X1574840Y2547888D01*
X1584016Y2535930D01*
X1595974Y2526755D01*
X1609899Y2520986D01*
X1614843Y2520336D01*
Y2566757D01*
D02*
G37*
G36*
X1296000Y2524963D02*
Y2476449D01*
X1344514D01*
X1344356Y2478057D01*
X1340970Y2489218D01*
X1335472Y2499505D01*
X1328072Y2508521D01*
X1319056Y2515921D01*
X1308770Y2521419D01*
X1297608Y2524805D01*
X1296000Y2524963D01*
D02*
G37*
G36*
X1276000D02*
X1274392Y2524805D01*
X1263231Y2521419D01*
X1252944Y2515921D01*
X1243928Y2508521D01*
X1236528Y2499505D01*
X1231030Y2489218D01*
X1227644Y2478057D01*
X1227486Y2476449D01*
X1276000D01*
Y2524963D01*
D02*
G37*
G36*
X1344514Y2456449D02*
X1296000D01*
Y2407935D01*
X1297608Y2408093D01*
X1308770Y2411479D01*
X1319056Y2416977D01*
X1328072Y2424377D01*
X1335472Y2433393D01*
X1340970Y2443680D01*
X1344356Y2454841D01*
X1344514Y2456449D01*
D02*
G37*
G36*
X1276000D02*
X1227486D01*
X1227644Y2454841D01*
X1231030Y2443680D01*
X1236528Y2433393D01*
X1243928Y2424377D01*
X1252944Y2416977D01*
X1263231Y2411479D01*
X1274392Y2408093D01*
X1276000Y2407935D01*
Y2456449D01*
D02*
G37*
G36*
X2457348Y2628697D02*
Y2582276D01*
X2503770D01*
X2503119Y2587219D01*
X2497351Y2601145D01*
X2488175Y2613103D01*
X2476217Y2622278D01*
X2462292Y2628046D01*
X2457348Y2628697D01*
D02*
G37*
G36*
X2437348D02*
X2432404Y2628046D01*
X2418479Y2622278D01*
X2406521Y2613103D01*
X2397345Y2601145D01*
X2391577Y2587219D01*
X2390926Y2582276D01*
X2437348D01*
Y2628697D01*
D02*
G37*
G36*
X2323490D02*
Y2582276D01*
X2369911D01*
X2369260Y2587219D01*
X2363492Y2601145D01*
X2354317Y2613103D01*
X2342359Y2622278D01*
X2328433Y2628046D01*
X2323490Y2628697D01*
D02*
G37*
G36*
X2303490Y2628697D02*
X2298546Y2628046D01*
X2284621Y2622278D01*
X2272663Y2613103D01*
X2263487Y2601145D01*
X2257719Y2587219D01*
X2257068Y2582276D01*
X2303490D01*
Y2628697D01*
D02*
G37*
G36*
Y2562276D02*
X2257068D01*
X2257719Y2557332D01*
X2263487Y2543407D01*
X2272663Y2531449D01*
X2284621Y2522273D01*
X2298546Y2516505D01*
X2303490Y2515854D01*
Y2562276D01*
D02*
G37*
G36*
X2503770Y2562276D02*
X2457348D01*
Y2515854D01*
X2462292Y2516505D01*
X2476217Y2522273D01*
X2488175Y2531449D01*
X2497351Y2543407D01*
X2503119Y2557332D01*
X2503770Y2562276D01*
D02*
G37*
G36*
X2437348D02*
X2390926D01*
X2391577Y2557332D01*
X2397345Y2543407D01*
X2406521Y2531449D01*
X2418479Y2522273D01*
X2432404Y2516505D01*
X2437348Y2515854D01*
Y2562276D01*
D02*
G37*
G36*
X2369911Y2562276D02*
X2323490D01*
Y2515854D01*
X2328433Y2516505D01*
X2342359Y2522273D01*
X2354317Y2531449D01*
X2363492Y2543407D01*
X2369260Y2557332D01*
X2369911Y2562276D01*
D02*
G37*
G36*
X1989000Y2510964D02*
Y2462450D01*
X2037515D01*
X2037356Y2464057D01*
X2033970Y2475219D01*
X2028472Y2485505D01*
X2021073Y2494522D01*
X2012056Y2501921D01*
X2001770Y2507419D01*
X1990608Y2510805D01*
X1989000Y2510964D01*
D02*
G37*
G36*
X1969000Y2510963D02*
X1967393Y2510805D01*
X1956231Y2507419D01*
X1945945Y2501921D01*
X1936928Y2494522D01*
X1929529Y2485505D01*
X1924031Y2475219D01*
X1920645Y2464057D01*
X1920486Y2462450D01*
X1969000D01*
Y2510963D01*
D02*
G37*
G36*
Y2442450D02*
X1920486D01*
X1920645Y2440842D01*
X1924031Y2429680D01*
X1929529Y2419394D01*
X1936928Y2410377D01*
X1945945Y2402978D01*
X1956231Y2397479D01*
X1967393Y2394094D01*
X1969000Y2393935D01*
Y2442450D01*
D02*
G37*
G36*
X2037515D02*
X1989000D01*
Y2393935D01*
X1990608Y2394094D01*
X2001770Y2397479D01*
X2012056Y2402978D01*
X2021073Y2410377D01*
X2028472Y2419394D01*
X2033970Y2429680D01*
X2037356Y2440842D01*
X2037515Y2442450D01*
D02*
G37*
G36*
X1395551Y2260201D02*
Y2213780D01*
X1441973D01*
X1441322Y2218723D01*
X1435554Y2232649D01*
X1426378Y2244606D01*
X1414420Y2253782D01*
X1400495Y2259550D01*
X1395551Y2260201D01*
D02*
G37*
G36*
X1375551D02*
X1370608Y2259550D01*
X1356682Y2253782D01*
X1344724Y2244606D01*
X1335549Y2232649D01*
X1329781Y2218723D01*
X1329130Y2213780D01*
X1375551D01*
Y2260201D01*
D02*
G37*
G36*
X1634843Y2242628D02*
Y2196206D01*
X1681265D01*
X1680614Y2201150D01*
X1674846Y2215075D01*
X1665670Y2227033D01*
X1653712Y2236209D01*
X1639787Y2241977D01*
X1634843Y2242628D01*
D02*
G37*
G36*
X1768701D02*
Y2196206D01*
X1815123D01*
X1814472Y2201150D01*
X1808704Y2215075D01*
X1799528Y2227033D01*
X1787570Y2236209D01*
X1773645Y2241977D01*
X1768701Y2242628D01*
D02*
G37*
G36*
X1614843D02*
X1609899Y2241977D01*
X1595974Y2236209D01*
X1584016Y2227033D01*
X1574840Y2215075D01*
X1569072Y2201150D01*
X1568421Y2196206D01*
X1614843D01*
Y2242628D01*
D02*
G37*
G36*
X1748701D02*
X1743758Y2241977D01*
X1729832Y2236209D01*
X1717874Y2227033D01*
X1708699Y2215075D01*
X1702931Y2201150D01*
X1702280Y2196206D01*
X1748701D01*
Y2242628D01*
D02*
G37*
G36*
X4122237Y2241320D02*
Y2194898D01*
X4168658D01*
X4168008Y2199842D01*
X4162240Y2213767D01*
X4153064Y2225725D01*
X4141106Y2234901D01*
X4127181Y2240669D01*
X4122237Y2241320D01*
D02*
G37*
G36*
X4102237Y2241320D02*
X4097293Y2240669D01*
X4083368Y2234901D01*
X4071410Y2225725D01*
X4062234Y2213767D01*
X4056466Y2199842D01*
X4055815Y2194898D01*
X4102237D01*
Y2241320D01*
D02*
G37*
G36*
X3988378Y2241320D02*
Y2194898D01*
X4034800D01*
X4034149Y2199842D01*
X4028381Y2213767D01*
X4019206Y2225725D01*
X4007248Y2234901D01*
X3993322Y2240669D01*
X3988378Y2241320D01*
D02*
G37*
G36*
X3968378Y2241320D02*
X3963435Y2240669D01*
X3949510Y2234901D01*
X3937552Y2225725D01*
X3928376Y2213767D01*
X3922608Y2199842D01*
X3921957Y2194898D01*
X3968378D01*
Y2241320D01*
D02*
G37*
G36*
X3782104Y2241146D02*
Y2194724D01*
X3828526D01*
X3827875Y2199668D01*
X3822107Y2213593D01*
X3812931Y2225551D01*
X3800973Y2234727D01*
X3787048Y2240495D01*
X3782104Y2241146D01*
D02*
G37*
G36*
X3762104D02*
X3757161Y2240495D01*
X3743235Y2234727D01*
X3731277Y2225551D01*
X3722102Y2213593D01*
X3716334Y2199668D01*
X3715683Y2194724D01*
X3762104D01*
Y2241146D01*
D02*
G37*
G36*
X3648246D02*
Y2194724D01*
X3694668D01*
X3694017Y2199668D01*
X3688249Y2213593D01*
X3679073Y2225551D01*
X3667115Y2234727D01*
X3653190Y2240495D01*
X3648246Y2241146D01*
D02*
G37*
G36*
X3628246Y2241146D02*
X3623302Y2240495D01*
X3609377Y2234727D01*
X3597419Y2225551D01*
X3588243Y2213593D01*
X3582475Y2199668D01*
X3581825Y2194724D01*
X3628246D01*
Y2241146D01*
D02*
G37*
G36*
X3443220Y2240870D02*
Y2194449D01*
X3489641D01*
X3488990Y2199392D01*
X3483222Y2213318D01*
X3474047Y2225276D01*
X3462089Y2234452D01*
X3448164Y2240220D01*
X3443220Y2240870D01*
D02*
G37*
G36*
X3423220Y2240870D02*
X3418276Y2240220D01*
X3404351Y2234452D01*
X3392393Y2225276D01*
X3383217Y2213318D01*
X3377449Y2199392D01*
X3376798Y2194449D01*
X3423220D01*
Y2240870D01*
D02*
G37*
G36*
X3309362Y2240870D02*
Y2194449D01*
X3355783D01*
X3355132Y2199392D01*
X3349364Y2213318D01*
X3340189Y2225276D01*
X3328231Y2234452D01*
X3314305Y2240220D01*
X3309362Y2240870D01*
D02*
G37*
G36*
X3289362Y2240870D02*
X3284418Y2240220D01*
X3270492Y2234452D01*
X3258535Y2225276D01*
X3249359Y2213318D01*
X3243591Y2199392D01*
X3242940Y2194449D01*
X3289362D01*
Y2240870D01*
D02*
G37*
G36*
X3123023Y2240146D02*
Y2193724D01*
X3169445D01*
X3168794Y2198668D01*
X3163026Y2212593D01*
X3153850Y2224551D01*
X3141892Y2233727D01*
X3127967Y2239495D01*
X3123023Y2240146D01*
D02*
G37*
G36*
X3103023D02*
X3098079Y2239495D01*
X3084154Y2233727D01*
X3072196Y2224551D01*
X3063021Y2212593D01*
X3057253Y2198668D01*
X3056602Y2193724D01*
X3103023D01*
Y2240146D01*
D02*
G37*
G36*
X2989165D02*
Y2193724D01*
X3035586D01*
X3034936Y2198668D01*
X3029168Y2212593D01*
X3019992Y2224551D01*
X3008034Y2233727D01*
X2994109Y2239495D01*
X2989165Y2240146D01*
D02*
G37*
G36*
X2969165Y2240146D02*
X2964221Y2239495D01*
X2950296Y2233727D01*
X2938338Y2224551D01*
X2929162Y2212593D01*
X2923394Y2198668D01*
X2922743Y2193724D01*
X2969165D01*
Y2240146D01*
D02*
G37*
G36*
X2457348Y2238146D02*
Y2191724D01*
X2503770D01*
X2503119Y2196668D01*
X2497351Y2210593D01*
X2488175Y2222551D01*
X2476217Y2231727D01*
X2462292Y2237495D01*
X2457348Y2238146D01*
D02*
G37*
G36*
X2437348D02*
X2432404Y2237495D01*
X2418479Y2231727D01*
X2406521Y2222551D01*
X2397345Y2210593D01*
X2391577Y2196668D01*
X2390926Y2191724D01*
X2437348D01*
Y2238146D01*
D02*
G37*
G36*
X2323490D02*
Y2191724D01*
X2369911D01*
X2369260Y2196668D01*
X2363492Y2210593D01*
X2354317Y2222551D01*
X2342359Y2231727D01*
X2328433Y2237495D01*
X2323490Y2238146D01*
D02*
G37*
G36*
X2303490Y2238146D02*
X2298546Y2237495D01*
X2284621Y2231727D01*
X2272663Y2222551D01*
X2263487Y2210593D01*
X2257719Y2196668D01*
X2257068Y2191724D01*
X2303490D01*
Y2238146D01*
D02*
G37*
G36*
X1441973Y2193780D02*
X1395551D01*
Y2147358D01*
X1400495Y2148009D01*
X1414420Y2153777D01*
X1426378Y2162952D01*
X1435554Y2174910D01*
X1441322Y2188836D01*
X1441973Y2193780D01*
D02*
G37*
G36*
X1375551D02*
X1329130D01*
X1329781Y2188836D01*
X1335549Y2174910D01*
X1344724Y2162952D01*
X1356682Y2153777D01*
X1370608Y2148009D01*
X1375551Y2147358D01*
Y2193780D01*
D02*
G37*
G36*
X1815123Y2176206D02*
X1768701D01*
Y2129784D01*
X1773645Y2130435D01*
X1787570Y2136203D01*
X1799528Y2145379D01*
X1808704Y2157337D01*
X1814472Y2171262D01*
X1815123Y2176206D01*
D02*
G37*
G36*
X1681265D02*
X1634843D01*
Y2129784D01*
X1639787Y2130435D01*
X1653712Y2136203D01*
X1665670Y2145379D01*
X1674846Y2157337D01*
X1680614Y2171262D01*
X1681265Y2176206D01*
D02*
G37*
G36*
X1748701D02*
X1702280D01*
X1702931Y2171262D01*
X1708699Y2157337D01*
X1717874Y2145379D01*
X1729832Y2136203D01*
X1743758Y2130435D01*
X1748701Y2129784D01*
Y2176206D01*
D02*
G37*
G36*
X1614843D02*
X1568421D01*
X1569072Y2171262D01*
X1574840Y2157337D01*
X1584016Y2145379D01*
X1595974Y2136203D01*
X1609899Y2130435D01*
X1614843Y2129784D01*
Y2176206D01*
D02*
G37*
G36*
X3968378Y2174898D02*
X3921957D01*
X3922608Y2169955D01*
X3928376Y2156029D01*
X3937552Y2144071D01*
X3949510Y2134896D01*
X3963435Y2129128D01*
X3968378Y2128477D01*
Y2174898D01*
D02*
G37*
G36*
X4102237Y2174898D02*
X4055815D01*
X4056466Y2169955D01*
X4062234Y2156029D01*
X4071410Y2144071D01*
X4083368Y2134896D01*
X4097293Y2129128D01*
X4102237Y2128477D01*
Y2174898D01*
D02*
G37*
G36*
X4168658D02*
X4122237D01*
Y2128477D01*
X4127181Y2129128D01*
X4141106Y2134896D01*
X4153064Y2144071D01*
X4162240Y2156029D01*
X4168008Y2169955D01*
X4168658Y2174898D01*
D02*
G37*
G36*
X4034800Y2174898D02*
X3988378D01*
Y2128477D01*
X3993322Y2129128D01*
X4007248Y2134896D01*
X4019206Y2144071D01*
X4028381Y2156029D01*
X4034149Y2169955D01*
X4034800Y2174898D01*
D02*
G37*
G36*
X3628246Y2174724D02*
X3581825D01*
X3582475Y2169781D01*
X3588243Y2155855D01*
X3597419Y2143897D01*
X3609377Y2134722D01*
X3623302Y2128954D01*
X3628246Y2128303D01*
Y2174724D01*
D02*
G37*
G36*
X3828526Y2174724D02*
X3782104D01*
Y2128303D01*
X3787048Y2128954D01*
X3800973Y2134722D01*
X3812931Y2143897D01*
X3822107Y2155855D01*
X3827875Y2169781D01*
X3828526Y2174724D01*
D02*
G37*
G36*
X3762104D02*
X3715683D01*
X3716334Y2169781D01*
X3722102Y2155855D01*
X3731277Y2143897D01*
X3743235Y2134722D01*
X3757161Y2128954D01*
X3762104Y2128303D01*
Y2174724D01*
D02*
G37*
G36*
X3694668Y2174724D02*
X3648246D01*
Y2128303D01*
X3653190Y2128954D01*
X3667115Y2134722D01*
X3679073Y2143897D01*
X3688249Y2155855D01*
X3694017Y2169781D01*
X3694668Y2174724D01*
D02*
G37*
G36*
X3489641Y2174449D02*
X3443220D01*
Y2128027D01*
X3448164Y2128678D01*
X3462089Y2134446D01*
X3474047Y2143622D01*
X3483222Y2155580D01*
X3488990Y2169505D01*
X3489641Y2174449D01*
D02*
G37*
G36*
X3355783Y2174449D02*
X3309362D01*
Y2128027D01*
X3314305Y2128678D01*
X3328231Y2134446D01*
X3340189Y2143622D01*
X3349364Y2155580D01*
X3355132Y2169505D01*
X3355783Y2174449D01*
D02*
G37*
G36*
X3289362D02*
X3242940D01*
X3243591Y2169505D01*
X3249359Y2155580D01*
X3258535Y2143622D01*
X3270492Y2134446D01*
X3284418Y2128678D01*
X3289362Y2128027D01*
Y2174449D01*
D02*
G37*
G36*
X3423220Y2174449D02*
X3376798D01*
X3377449Y2169505D01*
X3383217Y2155580D01*
X3392393Y2143622D01*
X3404351Y2134446D01*
X3418276Y2128678D01*
X3423220Y2128027D01*
Y2174449D01*
D02*
G37*
G36*
X2969165Y2173724D02*
X2922743D01*
X2923394Y2168781D01*
X2929162Y2154855D01*
X2938338Y2142897D01*
X2950296Y2133722D01*
X2964221Y2127954D01*
X2969165Y2127303D01*
Y2173724D01*
D02*
G37*
G36*
X3169445Y2173724D02*
X3123023D01*
Y2127303D01*
X3127967Y2127954D01*
X3141892Y2133722D01*
X3153850Y2142897D01*
X3163026Y2154855D01*
X3168794Y2168781D01*
X3169445Y2173724D01*
D02*
G37*
G36*
X3103023D02*
X3056602D01*
X3057253Y2168781D01*
X3063021Y2154855D01*
X3072196Y2142897D01*
X3084154Y2133722D01*
X3098079Y2127954D01*
X3103023Y2127303D01*
Y2173724D01*
D02*
G37*
G36*
X3035586Y2173724D02*
X2989165D01*
Y2127303D01*
X2994109Y2127954D01*
X3008034Y2133722D01*
X3019992Y2142897D01*
X3029168Y2154855D01*
X3034936Y2168781D01*
X3035586Y2173724D01*
D02*
G37*
G36*
X2303490Y2171724D02*
X2257068D01*
X2257719Y2166781D01*
X2263487Y2152855D01*
X2272663Y2140897D01*
X2284621Y2131722D01*
X2298546Y2125954D01*
X2303490Y2125303D01*
Y2171724D01*
D02*
G37*
G36*
X2503770Y2171724D02*
X2457348D01*
Y2125303D01*
X2462292Y2125954D01*
X2476217Y2131722D01*
X2488175Y2140897D01*
X2497351Y2152855D01*
X2503119Y2166781D01*
X2503770Y2171724D01*
D02*
G37*
G36*
X2437348D02*
X2390926D01*
X2391577Y2166781D01*
X2397345Y2152855D01*
X2406521Y2140897D01*
X2418479Y2131722D01*
X2432404Y2125954D01*
X2437348Y2125303D01*
Y2171724D01*
D02*
G37*
G36*
X2369911Y2171724D02*
X2323490D01*
Y2125303D01*
X2328433Y2125954D01*
X2342359Y2131722D01*
X2354317Y2140897D01*
X2363492Y2152855D01*
X2369260Y2166781D01*
X2369911Y2171724D01*
D02*
G37*
G36*
X1395551Y2126343D02*
Y2079921D01*
X1441973D01*
X1441322Y2084865D01*
X1435554Y2098790D01*
X1426378Y2110748D01*
X1414420Y2119924D01*
X1400495Y2125692D01*
X1395551Y2126343D01*
D02*
G37*
G36*
X1375551D02*
X1370608Y2125692D01*
X1356682Y2119924D01*
X1344724Y2110748D01*
X1335549Y2098790D01*
X1329781Y2084865D01*
X1329130Y2079921D01*
X1375551D01*
Y2126343D01*
D02*
G37*
G36*
X1441973Y2059921D02*
X1395551D01*
Y2013500D01*
X1400495Y2014150D01*
X1414420Y2019918D01*
X1426378Y2029094D01*
X1435554Y2041052D01*
X1441322Y2054977D01*
X1441973Y2059921D01*
D02*
G37*
G36*
X1375551D02*
X1329130D01*
X1329781Y2054977D01*
X1335549Y2041052D01*
X1344724Y2029094D01*
X1356682Y2019918D01*
X1370608Y2014150D01*
X1375551Y2013500D01*
Y2059921D01*
D02*
G37*
G36*
X1395551Y1955280D02*
Y1908858D01*
X1441973D01*
X1441322Y1913802D01*
X1435554Y1927727D01*
X1426378Y1939685D01*
X1414420Y1948861D01*
X1400495Y1954629D01*
X1395551Y1955280D01*
D02*
G37*
G36*
X1375551D02*
X1370608Y1954629D01*
X1356682Y1948861D01*
X1344724Y1939685D01*
X1335549Y1927727D01*
X1329781Y1913802D01*
X1329130Y1908858D01*
X1375551D01*
Y1955280D01*
D02*
G37*
G36*
X1441973Y1888858D02*
X1395551D01*
Y1842437D01*
X1400495Y1843088D01*
X1414420Y1848856D01*
X1426378Y1858031D01*
X1435554Y1869989D01*
X1441322Y1883915D01*
X1441973Y1888858D01*
D02*
G37*
G36*
X1375551D02*
X1329130D01*
X1329781Y1883915D01*
X1335549Y1869989D01*
X1344724Y1858031D01*
X1356682Y1848856D01*
X1370608Y1843088D01*
X1375551Y1842437D01*
Y1888858D01*
D02*
G37*
G36*
X2677701Y1828179D02*
Y1781757D01*
X2724123D01*
X2723472Y1786701D01*
X2717704Y1800626D01*
X2708528Y1812584D01*
X2696570Y1821760D01*
X2682645Y1827528D01*
X2677701Y1828179D01*
D02*
G37*
G36*
X2657701Y1828179D02*
X2652758Y1827528D01*
X2638832Y1821760D01*
X2626874Y1812584D01*
X2617699Y1800626D01*
X2611931Y1786701D01*
X2611280Y1781757D01*
X2657701D01*
Y1828179D01*
D02*
G37*
G36*
X2543843Y1828179D02*
Y1781757D01*
X2590265D01*
X2589614Y1786701D01*
X2583846Y1800626D01*
X2574670Y1812584D01*
X2562712Y1821760D01*
X2548787Y1827528D01*
X2543843Y1828179D01*
D02*
G37*
G36*
X2523843D02*
X2518899Y1827528D01*
X2504974Y1821760D01*
X2493016Y1812584D01*
X2483840Y1800626D01*
X2478072Y1786701D01*
X2477421Y1781757D01*
X2523843D01*
Y1828179D01*
D02*
G37*
G36*
X3032570Y1827871D02*
Y1781450D01*
X3078992D01*
X3078341Y1786393D01*
X3072573Y1800319D01*
X3063397Y1812277D01*
X3051439Y1821452D01*
X3037514Y1827220D01*
X3032570Y1827871D01*
D02*
G37*
G36*
X3012570Y1827871D02*
X3007626Y1827220D01*
X2993701Y1821452D01*
X2981743Y1812277D01*
X2972567Y1800319D01*
X2966799Y1786393D01*
X2966149Y1781450D01*
X3012570D01*
Y1827871D01*
D02*
G37*
G36*
X3607378Y1827871D02*
Y1781450D01*
X3653800D01*
X3653149Y1786393D01*
X3647381Y1800319D01*
X3638205Y1812277D01*
X3626247Y1821452D01*
X3612322Y1827220D01*
X3607378Y1827871D01*
D02*
G37*
G36*
X2898712D02*
Y1781450D01*
X2945133D01*
X2944483Y1786393D01*
X2938715Y1800319D01*
X2929539Y1812277D01*
X2917581Y1821452D01*
X2903655Y1827220D01*
X2898712Y1827871D01*
D02*
G37*
G36*
X2878712D02*
X2873768Y1827220D01*
X2859843Y1821452D01*
X2847885Y1812277D01*
X2838709Y1800319D01*
X2832941Y1786393D01*
X2832290Y1781450D01*
X2878712D01*
Y1827871D01*
D02*
G37*
G36*
X3587378D02*
X3582435Y1827220D01*
X3568509Y1821452D01*
X3556551Y1812277D01*
X3547376Y1800319D01*
X3541608Y1786393D01*
X3540957Y1781450D01*
X3587378D01*
Y1827871D01*
D02*
G37*
G36*
X3741237Y1827871D02*
Y1781449D01*
X3787658D01*
X3787007Y1786393D01*
X3781239Y1800319D01*
X3772064Y1812277D01*
X3760106Y1821452D01*
X3746180Y1827220D01*
X3741237Y1827871D01*
D02*
G37*
G36*
X3721237Y1827871D02*
X3716293Y1827220D01*
X3702368Y1821452D01*
X3690410Y1812277D01*
X3681234Y1800319D01*
X3675466Y1786393D01*
X3674815Y1781449D01*
X3721237D01*
Y1827871D01*
D02*
G37*
G36*
X3253028Y1827422D02*
Y1781000D01*
X3299450D01*
X3298799Y1785944D01*
X3293031Y1799869D01*
X3283855Y1811827D01*
X3271897Y1821003D01*
X3257972Y1826771D01*
X3253028Y1827422D01*
D02*
G37*
G36*
X3233028D02*
X3228084Y1826771D01*
X3214159Y1821003D01*
X3202201Y1811827D01*
X3193025Y1799869D01*
X3187257Y1785944D01*
X3186606Y1781000D01*
X3233028D01*
Y1827422D01*
D02*
G37*
G36*
X3386886Y1827421D02*
Y1781000D01*
X3433308D01*
X3432657Y1785944D01*
X3426889Y1799869D01*
X3417713Y1811827D01*
X3405755Y1821003D01*
X3391830Y1826771D01*
X3386886Y1827421D01*
D02*
G37*
G36*
X3366886Y1827422D02*
X3361943Y1826771D01*
X3348017Y1821003D01*
X3336059Y1811827D01*
X3326884Y1799869D01*
X3321116Y1785944D01*
X3320465Y1781000D01*
X3366886D01*
Y1827422D01*
D02*
G37*
G36*
X1395551Y1821422D02*
Y1775000D01*
X1441973D01*
X1441322Y1779944D01*
X1435554Y1793869D01*
X1426378Y1805827D01*
X1414420Y1815003D01*
X1400495Y1820771D01*
X1395551Y1821422D01*
D02*
G37*
G36*
X1375551D02*
X1370608Y1820771D01*
X1356682Y1815003D01*
X1344724Y1805827D01*
X1335549Y1793869D01*
X1329781Y1779944D01*
X1329130Y1775000D01*
X1375551D01*
Y1821422D01*
D02*
G37*
G36*
X2323314Y1819675D02*
Y1773254D01*
X2369736D01*
X2369085Y1778197D01*
X2363317Y1792122D01*
X2354142Y1804080D01*
X2342184Y1813256D01*
X2328258Y1819024D01*
X2323314Y1819675D01*
D02*
G37*
G36*
X2303314Y1819675D02*
X2298371Y1819024D01*
X2284445Y1813256D01*
X2272488Y1804080D01*
X2263312Y1792122D01*
X2257544Y1778197D01*
X2256893Y1773254D01*
X2303314D01*
Y1819675D01*
D02*
G37*
G36*
X2189456Y1819675D02*
Y1773253D01*
X2235878D01*
X2235227Y1778197D01*
X2229459Y1792122D01*
X2220283Y1804080D01*
X2208325Y1813256D01*
X2194400Y1819024D01*
X2189456Y1819675D01*
D02*
G37*
G36*
X2169456D02*
X2164512Y1819024D01*
X2150587Y1813256D01*
X2138629Y1804080D01*
X2129454Y1792122D01*
X2123686Y1778197D01*
X2123035Y1773253D01*
X2169456D01*
Y1819675D01*
D02*
G37*
G36*
X2048613Y1841457D02*
X1956920D01*
Y1735000D01*
X2048613D01*
Y1841457D01*
D02*
G37*
G36*
X1936920D02*
X1845227D01*
Y1735000D01*
X1936920D01*
Y1841457D01*
D02*
G37*
G36*
X1794443Y1834724D02*
X1691923D01*
Y1734173D01*
X1794443D01*
Y1834724D01*
D02*
G37*
G36*
X1671923D02*
X1569403D01*
Y1734173D01*
X1671923D01*
Y1834724D01*
D02*
G37*
G36*
X2657701Y1761757D02*
X2611280D01*
X2611931Y1756813D01*
X2617699Y1742888D01*
X2626874Y1730930D01*
X2638832Y1721755D01*
X2652758Y1715986D01*
X2657701Y1715336D01*
Y1761757D01*
D02*
G37*
G36*
X2590265Y1761757D02*
X2543843D01*
Y1715336D01*
X2548787Y1715986D01*
X2562712Y1721755D01*
X2574670Y1730930D01*
X2583846Y1742888D01*
X2589614Y1756813D01*
X2590265Y1761757D01*
D02*
G37*
G36*
X2523843D02*
X2477421D01*
X2478072Y1756813D01*
X2483840Y1742888D01*
X2493016Y1730930D01*
X2504974Y1721755D01*
X2518899Y1715986D01*
X2523843Y1715336D01*
Y1761757D01*
D02*
G37*
G36*
X2724123Y1761757D02*
X2677701D01*
Y1715336D01*
X2682645Y1715986D01*
X2696570Y1721755D01*
X2708528Y1730930D01*
X2717704Y1742888D01*
X2723472Y1756813D01*
X2724123Y1761757D01*
D02*
G37*
G36*
X3787658Y1761449D02*
X3741237D01*
Y1715028D01*
X3746180Y1715679D01*
X3760106Y1721447D01*
X3772064Y1730623D01*
X3781239Y1742581D01*
X3787007Y1756506D01*
X3787658Y1761449D01*
D02*
G37*
G36*
X3012570Y1761450D02*
X2966148D01*
X2966799Y1756506D01*
X2972567Y1742581D01*
X2981743Y1730623D01*
X2993701Y1721447D01*
X3007626Y1715679D01*
X3012570Y1715028D01*
Y1761450D01*
D02*
G37*
G36*
X3653800Y1761450D02*
X3607378D01*
Y1715028D01*
X3612322Y1715679D01*
X3626247Y1721447D01*
X3638205Y1730623D01*
X3647381Y1742581D01*
X3653149Y1756506D01*
X3653800Y1761450D01*
D02*
G37*
G36*
X2945133D02*
X2898712D01*
Y1715028D01*
X2903655Y1715679D01*
X2917581Y1721447D01*
X2929539Y1730623D01*
X2938715Y1742581D01*
X2944483Y1756506D01*
X2945133Y1761450D01*
D02*
G37*
G36*
X3587378D02*
X3540957D01*
X3541608Y1756506D01*
X3547376Y1742581D01*
X3556551Y1730623D01*
X3568509Y1721447D01*
X3582435Y1715679D01*
X3587378Y1715028D01*
Y1761450D01*
D02*
G37*
G36*
X2878712D02*
X2832290D01*
X2832941Y1756506D01*
X2838709Y1742581D01*
X2847885Y1730623D01*
X2859843Y1721447D01*
X2873768Y1715679D01*
X2878712Y1715028D01*
Y1761450D01*
D02*
G37*
G36*
X3078992Y1761450D02*
X3032570D01*
Y1715028D01*
X3037514Y1715679D01*
X3051439Y1721447D01*
X3063397Y1730623D01*
X3072573Y1742581D01*
X3078341Y1756506D01*
X3078992Y1761450D01*
D02*
G37*
G36*
X3721237Y1761449D02*
X3674815D01*
X3675466Y1756506D01*
X3681234Y1742581D01*
X3690410Y1730623D01*
X3702368Y1721447D01*
X3716293Y1715679D01*
X3721237Y1715028D01*
Y1761449D01*
D02*
G37*
G36*
X3433308Y1761000D02*
X3386886D01*
Y1714579D01*
X3391830Y1715229D01*
X3405755Y1720997D01*
X3417713Y1730173D01*
X3426889Y1742131D01*
X3432657Y1756056D01*
X3433308Y1761000D01*
D02*
G37*
G36*
X3299450Y1761000D02*
X3253028D01*
Y1714578D01*
X3257972Y1715229D01*
X3271897Y1720997D01*
X3283855Y1730173D01*
X3293031Y1742131D01*
X3298799Y1756056D01*
X3299450Y1761000D01*
D02*
G37*
G36*
X3233028D02*
X3186606D01*
X3187257Y1756056D01*
X3193025Y1742131D01*
X3202201Y1730173D01*
X3214159Y1720997D01*
X3228084Y1715229D01*
X3233028Y1714578D01*
Y1761000D01*
D02*
G37*
G36*
X3366886Y1761000D02*
X3320465D01*
X3321116Y1756056D01*
X3326884Y1742131D01*
X3336059Y1730173D01*
X3348017Y1720997D01*
X3361943Y1715229D01*
X3366886Y1714578D01*
Y1761000D01*
D02*
G37*
G36*
X1441973Y1755000D02*
X1395551D01*
Y1708578D01*
X1400495Y1709229D01*
X1414420Y1714997D01*
X1426378Y1724173D01*
X1435554Y1736131D01*
X1441322Y1750056D01*
X1441973Y1755000D01*
D02*
G37*
G36*
X1375551D02*
X1329130D01*
X1329781Y1750056D01*
X1335549Y1736131D01*
X1344724Y1724173D01*
X1356682Y1714997D01*
X1370608Y1709229D01*
X1375551Y1708578D01*
Y1755000D01*
D02*
G37*
G36*
X2303314Y1753254D02*
X2256893D01*
X2257544Y1748310D01*
X2263312Y1734384D01*
X2272488Y1722426D01*
X2284445Y1713251D01*
X2298371Y1707483D01*
X2303314Y1706832D01*
Y1753254D01*
D02*
G37*
G36*
X2235878Y1753253D02*
X2189456D01*
Y1706832D01*
X2194400Y1707483D01*
X2208325Y1713251D01*
X2220283Y1722426D01*
X2229459Y1734384D01*
X2235227Y1748310D01*
X2235878Y1753253D01*
D02*
G37*
G36*
X2169456D02*
X2123035D01*
X2123686Y1748310D01*
X2129454Y1734384D01*
X2138629Y1722426D01*
X2150587Y1713251D01*
X2164512Y1707483D01*
X2169456Y1706832D01*
Y1753253D01*
D02*
G37*
G36*
X2369736Y1753254D02*
X2323314D01*
Y1706832D01*
X2328258Y1707483D01*
X2342184Y1713251D01*
X2354142Y1722426D01*
X2363317Y1734384D01*
X2369085Y1748310D01*
X2369736Y1753254D01*
D02*
G37*
G36*
X4195000Y1692638D02*
X4149646D01*
Y1665000D01*
X4195000D01*
Y1692638D01*
D02*
G37*
%LPD*%
G36*
X1100000Y1518000D02*
X739000Y1518000D01*
X735313Y1514313D01*
X734782Y1514534D01*
X720866Y1516366D01*
X706950Y1514534D01*
X693983Y1509162D01*
X682847Y1500618D01*
X674302Y1489482D01*
X668931Y1476514D01*
X667099Y1462599D01*
X668523Y1451783D01*
X664679Y1447134D01*
X664312Y1447000D01*
X653374D01*
X649324Y1450107D01*
X636357Y1455478D01*
X622441Y1457310D01*
X608525Y1455478D01*
X595557Y1450107D01*
X591508Y1447000D01*
X560000D01*
Y2366000D01*
X594838Y2400838D01*
X595557Y2400287D01*
X608525Y2394915D01*
X622441Y2393083D01*
X636357Y2394915D01*
X649324Y2400287D01*
X660460Y2408831D01*
X669005Y2419967D01*
X674376Y2432934D01*
X676208Y2446850D01*
X674376Y2460766D01*
X671445Y2467843D01*
X674223Y2472000D01*
X679691D01*
X682847Y2467886D01*
X693983Y2459342D01*
X706950Y2453970D01*
X720866Y2452138D01*
X734782Y2453970D01*
X747750Y2459342D01*
X758885Y2467886D01*
X762042Y2472000D01*
X1100000D01*
Y1518000D01*
D02*
G37*
%LPC*%
G36*
X730866Y2440246D02*
Y2397795D01*
X773317D01*
X772801Y2401711D01*
X767430Y2414679D01*
X758885Y2425814D01*
X747750Y2434359D01*
X734782Y2439730D01*
X730866Y2440246D01*
D02*
G37*
G36*
X710866Y2440246D02*
X706950Y2439730D01*
X693983Y2434359D01*
X682847Y2425814D01*
X674302Y2414679D01*
X668931Y2401711D01*
X668415Y2397795D01*
X710866D01*
Y2440246D01*
D02*
G37*
G36*
X632441Y2381191D02*
Y2338740D01*
X674891D01*
X674376Y2342656D01*
X669005Y2355624D01*
X660460Y2366759D01*
X649324Y2375304D01*
X636357Y2380675D01*
X632441Y2381191D01*
D02*
G37*
G36*
X612441D02*
X608525Y2380675D01*
X595557Y2375304D01*
X584422Y2366759D01*
X575877Y2355624D01*
X570506Y2342656D01*
X569990Y2338740D01*
X612441D01*
Y2381191D01*
D02*
G37*
G36*
X773317Y2377795D02*
X730866D01*
Y2335345D01*
X734782Y2335860D01*
X747750Y2341232D01*
X758885Y2349776D01*
X767430Y2360912D01*
X772801Y2373879D01*
X773317Y2377795D01*
D02*
G37*
G36*
X710866D02*
X668416D01*
X668931Y2373879D01*
X674302Y2360912D01*
X682847Y2349776D01*
X693983Y2341232D01*
X706950Y2335860D01*
X710866Y2335345D01*
Y2377795D01*
D02*
G37*
G36*
X730866Y2322135D02*
Y2279685D01*
X773317D01*
X772801Y2283601D01*
X767430Y2296568D01*
X758885Y2307704D01*
X747750Y2316249D01*
X734782Y2321620D01*
X730866Y2322135D01*
D02*
G37*
G36*
X710866D02*
X706950Y2321620D01*
X693982Y2316249D01*
X682847Y2307704D01*
X674302Y2296568D01*
X668931Y2283601D01*
X668416Y2279685D01*
X710866D01*
Y2322135D01*
D02*
G37*
G36*
X674891Y2318740D02*
X632441D01*
Y2276290D01*
X636357Y2276805D01*
X649324Y2282177D01*
X660460Y2290721D01*
X669005Y2301857D01*
X674376Y2314824D01*
X674891Y2318740D01*
D02*
G37*
G36*
X612441D02*
X569990D01*
X570506Y2314824D01*
X575877Y2301857D01*
X584422Y2290721D01*
X595557Y2282177D01*
X608525Y2276805D01*
X612441Y2276290D01*
Y2318740D01*
D02*
G37*
G36*
X773317Y2259685D02*
X730866D01*
Y2217235D01*
X734782Y2217750D01*
X747750Y2223121D01*
X758885Y2231666D01*
X767430Y2242802D01*
X772801Y2255769D01*
X773317Y2259685D01*
D02*
G37*
G36*
X710866D02*
X668416D01*
X668931Y2255769D01*
X674302Y2242802D01*
X682847Y2231666D01*
X693982Y2223121D01*
X706950Y2217750D01*
X710866Y2217235D01*
Y2259685D01*
D02*
G37*
G36*
X1005000Y2260201D02*
Y2213780D01*
X1051422D01*
X1050771Y2218723D01*
X1045003Y2232649D01*
X1035827Y2244606D01*
X1023869Y2253782D01*
X1009944Y2259550D01*
X1005000Y2260201D01*
D02*
G37*
G36*
X985000D02*
X980056Y2259550D01*
X966131Y2253782D01*
X954173Y2244606D01*
X944997Y2232649D01*
X939229Y2218723D01*
X938578Y2213780D01*
X985000D01*
Y2260201D01*
D02*
G37*
G36*
X1051422Y2193780D02*
X1005000D01*
Y2147358D01*
X1009944Y2148009D01*
X1023869Y2153777D01*
X1035827Y2162952D01*
X1045003Y2174910D01*
X1050771Y2188836D01*
X1051422Y2193780D01*
D02*
G37*
G36*
X985000D02*
X938578D01*
X939229Y2188836D01*
X944997Y2174910D01*
X954173Y2162952D01*
X966131Y2153777D01*
X980056Y2148009D01*
X985000Y2147358D01*
Y2193780D01*
D02*
G37*
G36*
X1005000Y2126343D02*
Y2079921D01*
X1051422D01*
X1050771Y2084865D01*
X1045003Y2098790D01*
X1035827Y2110748D01*
X1023869Y2119924D01*
X1009944Y2125692D01*
X1005000Y2126343D01*
D02*
G37*
G36*
X985000D02*
X980056Y2125692D01*
X966131Y2119924D01*
X954173Y2110748D01*
X944997Y2098790D01*
X939229Y2084865D01*
X938578Y2079921D01*
X985000D01*
Y2126343D01*
D02*
G37*
G36*
X1051422Y2059921D02*
X1005000D01*
Y2013500D01*
X1009944Y2014150D01*
X1023869Y2019918D01*
X1035827Y2029094D01*
X1045003Y2041052D01*
X1050771Y2054977D01*
X1051422Y2059921D01*
D02*
G37*
G36*
X985000D02*
X938578D01*
X939229Y2054977D01*
X944997Y2041052D01*
X954173Y2029094D01*
X966131Y2019918D01*
X980056Y2014150D01*
X985000Y2013500D01*
Y2059921D01*
D02*
G37*
G36*
X1005000Y1955280D02*
Y1908858D01*
X1051422D01*
X1050771Y1913802D01*
X1045003Y1927727D01*
X1035827Y1939685D01*
X1023869Y1948861D01*
X1009944Y1954629D01*
X1005000Y1955280D01*
D02*
G37*
G36*
X985000D02*
X980056Y1954629D01*
X966131Y1948861D01*
X954173Y1939685D01*
X944997Y1927727D01*
X939229Y1913802D01*
X938578Y1908858D01*
X985000D01*
Y1955280D01*
D02*
G37*
G36*
X1051422Y1888858D02*
X1005000D01*
Y1842437D01*
X1009944Y1843088D01*
X1023869Y1848856D01*
X1035827Y1858031D01*
X1045003Y1869989D01*
X1050771Y1883915D01*
X1051422Y1888858D01*
D02*
G37*
G36*
X985000D02*
X938578D01*
X939229Y1883915D01*
X944997Y1869989D01*
X954173Y1858031D01*
X966131Y1848856D01*
X980056Y1843088D01*
X985000Y1842437D01*
Y1888858D01*
D02*
G37*
G36*
X1005000Y1821422D02*
Y1775000D01*
X1051422D01*
X1050771Y1779944D01*
X1045003Y1793869D01*
X1035827Y1805827D01*
X1023869Y1815003D01*
X1009944Y1820771D01*
X1005000Y1821422D01*
D02*
G37*
G36*
X985000D02*
X980056Y1820771D01*
X966131Y1815003D01*
X954173Y1805827D01*
X944997Y1793869D01*
X939229Y1779944D01*
X938578Y1775000D01*
X985000D01*
Y1821422D01*
D02*
G37*
G36*
X730866Y1751269D02*
Y1708819D01*
X773317D01*
X772801Y1712735D01*
X767430Y1725702D01*
X758885Y1736838D01*
X747750Y1745383D01*
X734782Y1750754D01*
X730866Y1751269D01*
D02*
G37*
G36*
X710866Y1751270D02*
X706950Y1750754D01*
X693983Y1745383D01*
X682847Y1736838D01*
X674302Y1725702D01*
X668931Y1712735D01*
X668415Y1708819D01*
X710866D01*
Y1751270D01*
D02*
G37*
G36*
X1051422Y1755000D02*
X1005000D01*
Y1708578D01*
X1009944Y1709229D01*
X1023869Y1714997D01*
X1035827Y1724173D01*
X1045003Y1736131D01*
X1050771Y1750056D01*
X1051422Y1755000D01*
D02*
G37*
G36*
X985000D02*
X938578D01*
X939229Y1750056D01*
X944997Y1736131D01*
X954173Y1724173D01*
X966131Y1714997D01*
X980056Y1709229D01*
X985000Y1708578D01*
Y1755000D01*
D02*
G37*
G36*
X632441Y1692214D02*
Y1649764D01*
X674891D01*
X674376Y1653680D01*
X669005Y1666647D01*
X660460Y1677783D01*
X649324Y1686328D01*
X636357Y1691699D01*
X632441Y1692214D01*
D02*
G37*
G36*
X612441D02*
X608525Y1691699D01*
X595557Y1686328D01*
X584422Y1677783D01*
X575877Y1666647D01*
X570506Y1653680D01*
X569990Y1649764D01*
X612441D01*
Y1692214D01*
D02*
G37*
G36*
X773317Y1688819D02*
X730866D01*
Y1646368D01*
X734782Y1646884D01*
X747750Y1652255D01*
X758885Y1660800D01*
X767430Y1671935D01*
X772801Y1684903D01*
X773317Y1688819D01*
D02*
G37*
G36*
X710866D02*
X668416D01*
X668931Y1684903D01*
X674302Y1671935D01*
X682847Y1660800D01*
X693983Y1652255D01*
X706950Y1646884D01*
X710866Y1646368D01*
Y1688819D01*
D02*
G37*
G36*
X730866Y1633159D02*
Y1590709D01*
X773317D01*
X772801Y1594625D01*
X767430Y1607592D01*
X758885Y1618728D01*
X747750Y1627272D01*
X734782Y1632644D01*
X730866Y1633159D01*
D02*
G37*
G36*
X710866D02*
X706950Y1632644D01*
X693983Y1627272D01*
X682847Y1618728D01*
X674302Y1607592D01*
X668931Y1594625D01*
X668416Y1590709D01*
X710866D01*
Y1633159D01*
D02*
G37*
G36*
X674891Y1629764D02*
X632441D01*
Y1587313D01*
X636357Y1587829D01*
X649324Y1593200D01*
X660460Y1601745D01*
X669005Y1612880D01*
X674376Y1625848D01*
X674891Y1629764D01*
D02*
G37*
G36*
X612441D02*
X569990D01*
X570506Y1625848D01*
X575877Y1612880D01*
X584422Y1601745D01*
X595557Y1593200D01*
X608525Y1587829D01*
X612441Y1587313D01*
Y1629764D01*
D02*
G37*
G36*
X632441Y1574104D02*
Y1531654D01*
X674891D01*
X674376Y1535570D01*
X669005Y1548537D01*
X660460Y1559673D01*
X649324Y1568217D01*
X636357Y1573589D01*
X632441Y1574104D01*
D02*
G37*
G36*
X612441D02*
X608525Y1573589D01*
X595557Y1568217D01*
X584422Y1559673D01*
X575877Y1548537D01*
X570506Y1535570D01*
X569990Y1531654D01*
X612441D01*
Y1574104D01*
D02*
G37*
G36*
X773317Y1570709D02*
X730866D01*
Y1528258D01*
X734782Y1528774D01*
X747750Y1534145D01*
X758885Y1542690D01*
X767430Y1553825D01*
X772801Y1566793D01*
X773317Y1570709D01*
D02*
G37*
G36*
X710866D02*
X668416D01*
X668931Y1566793D01*
X674302Y1553825D01*
X682847Y1542690D01*
X693983Y1534145D01*
X706950Y1528774D01*
X710866Y1528258D01*
Y1570709D01*
D02*
G37*
G36*
X674891Y1511654D02*
X632441D01*
Y1469203D01*
X636357Y1469719D01*
X649324Y1475090D01*
X660460Y1483634D01*
X669005Y1494770D01*
X674376Y1507738D01*
X674891Y1511654D01*
D02*
G37*
G36*
X612441D02*
X569990D01*
X570506Y1507738D01*
X575877Y1494770D01*
X584422Y1483634D01*
X595557Y1475090D01*
X608525Y1469719D01*
X612441Y1469203D01*
Y1511654D01*
D02*
G37*
%LPD*%
G36*
X1156000Y1284000D02*
X1899371Y1284000D01*
X1990000Y1193371D01*
Y1025970D01*
X1988048Y1023591D01*
X1982550Y1013305D01*
X1982154Y1012000D01*
X1038602D01*
X923036Y1121000D01*
X772957Y1121000D01*
X772801Y1122184D01*
X767430Y1135151D01*
X758885Y1146287D01*
X747750Y1154831D01*
X734782Y1160203D01*
X720866Y1162035D01*
X706950Y1160203D01*
X693983Y1154831D01*
X682847Y1146287D01*
X682414Y1146248D01*
X674396Y1153557D01*
X676208Y1167323D01*
X674376Y1181239D01*
X669005Y1194206D01*
X660460Y1205342D01*
X649324Y1213887D01*
X636357Y1219258D01*
X622441Y1221090D01*
X608525Y1219258D01*
X604260Y1217491D01*
X562000Y1256014D01*
Y1336095D01*
X599710Y1352000D01*
X607579D01*
X608525Y1351608D01*
X622441Y1349776D01*
X636357Y1351608D01*
X637303Y1352000D01*
X664296D01*
X667593Y1348241D01*
X667099Y1344488D01*
X668931Y1330572D01*
X674302Y1317605D01*
X682847Y1306469D01*
X693982Y1297925D01*
X706950Y1292553D01*
X720866Y1290721D01*
X734782Y1292553D01*
X747750Y1297925D01*
X758885Y1306469D01*
X767430Y1317605D01*
X772801Y1330572D01*
X774633Y1344488D01*
X774139Y1348241D01*
X777436Y1352000D01*
X1047200D01*
X1156000Y1284000D01*
D02*
G37*
G36*
X2411000Y1469000D02*
Y1156000D01*
X2049000Y1156000D01*
X1862000Y1343000D01*
X1862000Y1441000D01*
X1914000Y1486000D01*
X2394000D01*
X2411000Y1469000D01*
D02*
G37*
%LPC*%
G36*
X632441Y1337884D02*
Y1295433D01*
X674891D01*
X674376Y1299349D01*
X669005Y1312317D01*
X660460Y1323452D01*
X649324Y1331997D01*
X636357Y1337368D01*
X632441Y1337884D01*
D02*
G37*
G36*
X612441D02*
X608525Y1337368D01*
X595557Y1331997D01*
X584422Y1323452D01*
X575877Y1312317D01*
X570506Y1299349D01*
X569990Y1295433D01*
X612441D01*
Y1337884D01*
D02*
G37*
G36*
X730866Y1278829D02*
Y1236378D01*
X773317D01*
X772801Y1240294D01*
X767430Y1253262D01*
X758885Y1264397D01*
X747750Y1272942D01*
X734782Y1278313D01*
X730866Y1278829D01*
D02*
G37*
G36*
X710866D02*
X706950Y1278313D01*
X693982Y1272942D01*
X682847Y1264397D01*
X674302Y1253262D01*
X668931Y1240294D01*
X668416Y1236378D01*
X710866D01*
Y1278829D01*
D02*
G37*
G36*
X674891Y1275433D02*
X632441D01*
Y1232983D01*
X636357Y1233498D01*
X649324Y1238869D01*
X660460Y1247414D01*
X669005Y1258550D01*
X674376Y1271517D01*
X674891Y1275433D01*
D02*
G37*
G36*
X612441D02*
X569990D01*
X570506Y1271517D01*
X575877Y1258550D01*
X584422Y1247414D01*
X595557Y1238869D01*
X608525Y1233498D01*
X612441Y1232983D01*
Y1275433D01*
D02*
G37*
G36*
X773317Y1216378D02*
X730866D01*
Y1173928D01*
X734782Y1174443D01*
X747750Y1179814D01*
X758885Y1188359D01*
X767430Y1199495D01*
X772801Y1212462D01*
X773317Y1216378D01*
D02*
G37*
G36*
X710866D02*
X668416D01*
X668931Y1212462D01*
X674302Y1199495D01*
X682847Y1188359D01*
X693982Y1179814D01*
X706950Y1174443D01*
X710866Y1173928D01*
Y1216378D01*
D02*
G37*
G36*
X1897913Y1186845D02*
Y1138331D01*
X1946428D01*
X1946269Y1139938D01*
X1942883Y1151100D01*
X1937385Y1161387D01*
X1929986Y1170403D01*
X1920969Y1177802D01*
X1910683Y1183301D01*
X1899521Y1186687D01*
X1897913Y1186845D01*
D02*
G37*
G36*
X1877913Y1186845D02*
X1876306Y1186687D01*
X1865144Y1183301D01*
X1854857Y1177802D01*
X1845841Y1170403D01*
X1838442Y1161387D01*
X1832943Y1151100D01*
X1829557Y1139938D01*
X1829399Y1138331D01*
X1877913D01*
Y1186845D01*
D02*
G37*
G36*
Y1118331D02*
X1829399D01*
X1829557Y1116723D01*
X1832943Y1105561D01*
X1838442Y1095275D01*
X1845841Y1086258D01*
X1854857Y1078859D01*
X1865144Y1073361D01*
X1876306Y1069975D01*
X1877913Y1069817D01*
Y1118331D01*
D02*
G37*
G36*
X1946427D02*
X1897913D01*
Y1069816D01*
X1899521Y1069975D01*
X1910683Y1073361D01*
X1920969Y1078859D01*
X1929986Y1086258D01*
X1937385Y1095275D01*
X1942883Y1105561D01*
X1946269Y1116723D01*
X1946427Y1118331D01*
D02*
G37*
G36*
X2323314Y1429124D02*
Y1382702D01*
X2369736D01*
X2369085Y1387646D01*
X2363317Y1401571D01*
X2354142Y1413529D01*
X2342184Y1422705D01*
X2328258Y1428473D01*
X2323314Y1429124D01*
D02*
G37*
G36*
X2303314Y1429124D02*
X2298371Y1428473D01*
X2284445Y1422705D01*
X2272488Y1413529D01*
X2263312Y1401571D01*
X2257544Y1387646D01*
X2256893Y1382702D01*
X2303314D01*
Y1429124D01*
D02*
G37*
G36*
X2189456Y1429124D02*
Y1382702D01*
X2235878D01*
X2235227Y1387646D01*
X2229459Y1401571D01*
X2220283Y1413529D01*
X2208325Y1422705D01*
X2194400Y1428473D01*
X2189456Y1429124D01*
D02*
G37*
G36*
X2169456D02*
X2164512Y1428473D01*
X2150587Y1422705D01*
X2138629Y1413529D01*
X2129454Y1401571D01*
X2123686Y1387646D01*
X2123035Y1382702D01*
X2169456D01*
Y1429124D01*
D02*
G37*
G36*
X2021929Y1423065D02*
Y1374551D01*
X2070443D01*
X2070285Y1376159D01*
X2066899Y1387321D01*
X2061401Y1397607D01*
X2054001Y1406623D01*
X2044985Y1414023D01*
X2034698Y1419521D01*
X2023537Y1422907D01*
X2021929Y1423065D01*
D02*
G37*
G36*
X2001929D02*
X2000321Y1422907D01*
X1989160Y1419521D01*
X1978873Y1414023D01*
X1969857Y1406623D01*
X1962457Y1397607D01*
X1956959Y1387321D01*
X1953573Y1376159D01*
X1953415Y1374551D01*
X2001929D01*
Y1423065D01*
D02*
G37*
G36*
X2303314Y1362702D02*
X2256893D01*
X2257544Y1357758D01*
X2263312Y1343833D01*
X2272488Y1331875D01*
X2284445Y1322699D01*
X2298371Y1316931D01*
X2303314Y1316281D01*
Y1362702D01*
D02*
G37*
G36*
X2235878Y1362702D02*
X2189456D01*
Y1316281D01*
X2194400Y1316931D01*
X2208325Y1322699D01*
X2220283Y1331875D01*
X2229459Y1343833D01*
X2235227Y1357758D01*
X2235878Y1362702D01*
D02*
G37*
G36*
X2169456D02*
X2123035D01*
X2123686Y1357758D01*
X2129454Y1343833D01*
X2138629Y1331875D01*
X2150587Y1322699D01*
X2164512Y1316931D01*
X2169456Y1316281D01*
Y1362702D01*
D02*
G37*
G36*
X2369736Y1362702D02*
X2323314D01*
Y1316281D01*
X2328258Y1316931D01*
X2342184Y1322699D01*
X2354142Y1331875D01*
X2363317Y1343833D01*
X2369085Y1357758D01*
X2369736Y1362702D01*
D02*
G37*
G36*
X2070443Y1354551D02*
X2021929D01*
Y1306037D01*
X2023537Y1306195D01*
X2034698Y1309581D01*
X2044985Y1315080D01*
X2054001Y1322479D01*
X2061401Y1331495D01*
X2066899Y1341782D01*
X2070285Y1352944D01*
X2070443Y1354551D01*
D02*
G37*
G36*
X2001929D02*
X1953415D01*
X1953573Y1352944D01*
X1956959Y1341782D01*
X1962457Y1331495D01*
X1969857Y1322479D01*
X1978873Y1315080D01*
X1989160Y1309581D01*
X2000321Y1306195D01*
X2001929Y1306037D01*
Y1354551D01*
D02*
G37*
%LPD*%
D10*
X1967162Y3990724D02*
D03*
Y4081276D02*
D03*
X2301453Y3990724D02*
D03*
Y4081276D02*
D03*
X2635744Y3990724D02*
D03*
Y4081276D02*
D03*
X2970034Y3990724D02*
D03*
Y4081276D02*
D03*
X3304325Y3990724D02*
D03*
Y4081276D02*
D03*
X3638615Y3990724D02*
D03*
Y4081276D02*
D03*
X3972906Y3990724D02*
D03*
Y4081276D02*
D03*
X4307197Y3990724D02*
D03*
Y4081276D02*
D03*
X1632872Y3990724D02*
D03*
Y4081276D02*
D03*
X1298581Y3990724D02*
D03*
Y4081276D02*
D03*
X964291Y3990724D02*
D03*
Y4081276D02*
D03*
X3958308Y1601071D02*
D03*
Y1510520D02*
D03*
D11*
X1670943Y3686000D02*
D03*
X1554801D02*
D03*
X1336652D02*
D03*
X1220510D02*
D03*
X1002361D02*
D03*
X886220D02*
D03*
X2005233D02*
D03*
X1889092D02*
D03*
X3676686D02*
D03*
X3560545D02*
D03*
X4345267D02*
D03*
X4229126D02*
D03*
X4010977D02*
D03*
X3894835D02*
D03*
X2673814D02*
D03*
X2557673D02*
D03*
X2339524D02*
D03*
X2223382D02*
D03*
X3342396D02*
D03*
X3226254D02*
D03*
X3008105D02*
D03*
X2891963D02*
D03*
X1502362Y1564362D02*
D03*
X1386221D02*
D03*
X2664585Y3159063D02*
D03*
X2780726D02*
D03*
X1998929Y3162001D02*
D03*
X2115071D02*
D03*
X1304929Y3169758D02*
D03*
X1421071D02*
D03*
X1992000Y655000D02*
D03*
X1875858D02*
D03*
D12*
X879016Y3841276D02*
D03*
Y3910173D02*
D03*
X1213307Y3841276D02*
D03*
Y3910173D02*
D03*
X1547597Y3841276D02*
D03*
Y3910173D02*
D03*
X1881888Y3841276D02*
D03*
Y3910173D02*
D03*
X2216179Y3841276D02*
D03*
Y3910173D02*
D03*
X3887632Y3841276D02*
D03*
Y3910173D02*
D03*
X4221922Y3841276D02*
D03*
Y3910173D02*
D03*
X3553341Y3841276D02*
D03*
Y3910173D02*
D03*
X3219050Y3841276D02*
D03*
Y3910173D02*
D03*
X2884760Y3841276D02*
D03*
Y3910173D02*
D03*
X2550469Y3841276D02*
D03*
Y3910173D02*
D03*
X3632633Y3910174D02*
D03*
Y3841276D02*
D03*
X3966923Y3910174D02*
D03*
Y3841276D02*
D03*
X4301214Y3910174D02*
D03*
Y3841276D02*
D03*
X1961179Y3910174D02*
D03*
Y3841276D02*
D03*
X2295470Y3910174D02*
D03*
Y3841276D02*
D03*
X2629761Y3910174D02*
D03*
Y3841276D02*
D03*
X2964051Y3910174D02*
D03*
Y3841276D02*
D03*
X3298342Y3910174D02*
D03*
Y3841276D02*
D03*
X1626889Y3910174D02*
D03*
Y3841276D02*
D03*
X958308Y3910174D02*
D03*
Y3841276D02*
D03*
X1292598Y3910174D02*
D03*
Y3841276D02*
D03*
D13*
X1130000Y1451783D02*
D03*
X4200000Y1660000D02*
D03*
X1307000Y1389627D02*
D03*
D14*
X3889411Y1393000D02*
D03*
X3958308D02*
D03*
X1471740Y1469362D02*
D03*
X1402843D02*
D03*
D15*
X1681923Y1724173D02*
D03*
D16*
X1756923Y1566693D02*
D03*
X1706923D02*
D03*
X1656923D02*
D03*
X1606923D02*
D03*
D17*
X1906920Y1579055D02*
D03*
X1986920D02*
D03*
D18*
X1946920Y1725000D02*
D03*
D19*
X1307000Y1389627D02*
Y1459258D01*
X1360997Y1513255D01*
X3449762Y3550018D02*
X4559982D01*
X1860000Y2290000D02*
Y3068000D01*
X1771000Y3157000D02*
X1860000Y3068000D01*
X2339524Y3550000D02*
X3449744D01*
X2005233D02*
X2024233Y3531000D01*
X4387000Y3513000D02*
X4610000Y3290000D01*
X1670943Y3550000D02*
X1707943Y3513000D01*
X1336652Y3550000D02*
X1391652Y3495000D01*
X4300000D02*
X4610000Y3185000D01*
X1002361Y3550000D02*
X1075361Y3477000D01*
X4213000D02*
X4610000Y3080000D01*
X4474000Y3531000D02*
X4610000Y3395000D01*
X3449744Y3550000D02*
X3449762Y3550018D01*
X4559982D02*
X4610000Y3500000D01*
X1707943Y3513000D02*
X4387000D01*
X2024233Y3531000D02*
X4474000D01*
X1080000Y1537000D02*
X1130000Y1487000D01*
Y1451783D02*
Y1487000D01*
X1075361Y3477000D02*
X4213000D01*
X1391652Y3495000D02*
X4300000D01*
X2759406Y2694998D02*
X2768671Y2685732D01*
X504331Y2919291D02*
X563098Y2978059D01*
X697957Y3151764D02*
X981683D01*
X1002274Y3131173D02*
X1286000D01*
X563098Y2978059D02*
Y3056275D01*
X607028Y3100205D02*
X646398D01*
X981683Y3151764D02*
X1002274Y3131173D01*
X646398Y3100205D02*
X697957Y3151764D01*
X563098Y3056275D02*
X607028Y3100205D01*
D20*
X2726405Y3318000D02*
X3299361Y2745043D01*
X716385Y3318000D02*
X2726405D01*
X3299361Y2575000D02*
Y2745043D01*
X3432205Y2575000D02*
X3432929Y2574276D01*
X2667448Y1381206D02*
X2667929Y1380724D01*
X2525331Y1371984D02*
X2534552Y1381206D01*
X720866Y3214567D02*
X1239881D01*
X1283314Y3258000D01*
X2300859D02*
X2759406Y2799453D01*
X3242737Y1380158D02*
Y1380724D01*
X3115828Y3438000D02*
X3978379Y2575450D01*
X691532Y3378000D02*
X2835522D01*
X3638246Y2575276D01*
X629447Y3231062D02*
X716385Y3318000D01*
X569447Y3255915D02*
X691532Y3378000D01*
X405906Y3214567D02*
X629339Y3438000D01*
X3115828D01*
X569447Y3230535D02*
Y3255915D01*
X504331Y3155512D02*
Y3165419D01*
X629447Y3162518D02*
Y3231062D01*
X1283314Y3258000D02*
X2300859D01*
X2759406Y2694998D02*
Y2799453D01*
X2644656Y2449512D02*
X2854307D01*
X2979071Y2574276D02*
X2979165D01*
X3597245Y1380898D02*
X3597378D01*
X2888578D02*
X2888712D01*
X504331Y3165419D02*
X569447Y3230535D01*
X3243013Y1380449D02*
X3243028D01*
X504331Y1011097D02*
Y1049213D01*
X2525331Y1201431D02*
Y1371984D01*
X2173899Y850000D02*
X2525331Y1201431D01*
X861024Y850000D02*
X2173899D01*
X720866Y990158D02*
X861024Y850000D01*
X3022088Y1380898D02*
X3022262Y1380724D01*
X2888404Y1380591D02*
Y1380724D01*
X3376320Y1380449D02*
X3376596Y1380724D01*
X2352579Y490000D02*
X3242737Y1380158D01*
X3730755Y1380898D02*
X3730929Y1380724D01*
X3597071Y1380591D02*
Y1380724D01*
X3597245Y1380898D01*
X405906Y990158D02*
X966063Y430000D01*
X2646480D02*
X3597071Y1380591D01*
X966063Y430000D02*
X2646480D01*
X1025428Y490000D02*
X2352579D01*
X504331Y1011097D02*
X1025428Y490000D01*
X3242737Y1380724D02*
X3243013Y1380449D01*
X2888404Y1380724D02*
X2888578Y1380898D01*
X1050281Y550000D02*
X2057813D01*
X2888404Y1380591D01*
X629447Y970834D02*
X1050281Y550000D01*
X629447Y970834D02*
Y1042207D01*
X622441Y1049213D02*
X629447Y1042207D01*
X4111755Y2575450D02*
X4111929Y2575276D01*
X2854307Y2449512D02*
X2979071Y2574276D01*
X622441Y3155512D02*
X629447Y3162518D01*
D21*
X4340000Y3680733D02*
X4344456Y3676277D01*
X4467000Y3876000D02*
X4717000Y3626000D01*
Y2788850D02*
Y3626000D01*
X4200000Y2271850D02*
X4717000Y2788850D01*
X4467000Y3876000D02*
Y3921472D01*
X4327787Y4060685D02*
X4467000Y3921472D01*
X1002361Y3550000D02*
Y3686000D01*
X1336652Y3550000D02*
Y3686000D01*
X2005233Y3550000D02*
Y3686000D01*
X2116418Y3138449D02*
X2137993Y3116875D01*
Y3053299D02*
Y3116875D01*
Y3053299D02*
X2148292Y3043001D01*
X1979001D02*
Y3117173D01*
X2000277Y3138449D01*
X1670943Y3550000D02*
Y3686000D01*
X2339524Y3550000D02*
Y3686000D01*
X4344456Y3600000D02*
Y3676277D01*
X4340000Y3680733D02*
X4345267Y3686000D01*
X3342396Y3600000D02*
Y3686000D01*
X3965388Y3768482D02*
Y3839741D01*
X3966923Y3841276D01*
X1959644Y3768482D02*
Y3839741D01*
X1625353Y3768482D02*
Y3839741D01*
X1881888Y3693204D02*
Y3770726D01*
Y3841276D01*
X1625353Y3839741D02*
X1626889Y3841276D01*
X2644656Y3114236D02*
X2665932Y3135512D01*
X2644656Y3040063D02*
Y3114236D01*
X2803648Y3050362D02*
X2813947Y3040063D01*
X2803648Y3050362D02*
Y3113937D01*
X2782073Y3135512D02*
X2803648Y3113937D01*
X1286000Y3131173D02*
X1307276Y3152449D01*
X1286000Y3057000D02*
Y3131173D01*
X1444993Y3067299D02*
X1455292Y3057000D01*
X1444993Y3067299D02*
Y3130874D01*
X1423418Y3152449D02*
X1444993Y3130874D01*
X2673814Y3600000D02*
Y3686000D01*
X3008105Y3600000D02*
Y3686000D01*
X3676686Y3600000D02*
Y3686000D01*
X4010977Y3600000D02*
Y3686000D01*
X3308262Y4081276D02*
X3638615D01*
X3304325D02*
X3308262D01*
X3296806Y3768482D02*
Y3839741D01*
X3298342Y3841276D01*
X1360997Y1513255D02*
X1431785D01*
X1480788Y1542787D02*
X1502362Y1564362D01*
X1480788Y1478410D02*
Y1542787D01*
X1471740Y1469362D02*
X1480788Y1478410D01*
X1471740Y1469362D02*
Y1473299D01*
X1431785Y1513255D02*
X1471740Y1473299D01*
X1386221Y1564362D02*
Y1665978D01*
X1728143Y1604330D02*
X1756923Y1575551D01*
Y1566693D02*
Y1575551D01*
X1502362Y1566331D02*
X1540362Y1604330D01*
X1728143D01*
X1502362Y1564362D02*
Y1566331D01*
X3324915Y4060685D02*
Y4064622D01*
X3308262Y4081276D02*
X3324915Y4064622D01*
X3972906Y4081276D02*
X4307197D01*
X3638615D02*
X3972906D01*
X2970034D02*
X3304325D01*
X2635744D02*
X2970034D01*
X2301453D02*
X2635744D01*
X1967162D02*
X2301453D01*
X1632872D02*
X1967162D01*
X1298581D02*
X1632872D01*
X964291D02*
X1298581D01*
X1291063Y3839741D02*
X1292598Y3841276D01*
X1291063Y3768482D02*
Y3839741D01*
X1213307Y3990724D02*
X1298581D01*
X1212323Y3989740D02*
X1213307Y3990724D01*
Y3770726D02*
Y3841276D01*
Y3693204D02*
X1220510Y3686000D01*
X1213307Y3693204D02*
Y3770726D01*
X1547597Y3990724D02*
X1632872D01*
X1546613Y3989740D02*
X1547597Y3990724D01*
Y3770726D02*
Y3841276D01*
Y3693204D02*
X1554801Y3686000D01*
X1547597Y3693204D02*
Y3770726D01*
X1842638Y774000D02*
X1852936Y763701D01*
Y700126D02*
Y763701D01*
Y700126D02*
X1874511Y678551D01*
X1990653D02*
X2011929Y699827D01*
Y774000D01*
X3631097Y3839741D02*
X3632633Y3841276D01*
X3631097Y3768482D02*
Y3839741D01*
X3553341Y3990724D02*
X3638615D01*
X3552357Y3989740D02*
X3553341Y3990724D01*
Y3770726D02*
Y3841276D01*
Y3693204D02*
X3560545Y3686000D01*
X3553341Y3693204D02*
Y3770726D01*
X3887632Y3990724D02*
X3972906D01*
X3886647Y3989740D02*
X3887632Y3990724D01*
Y3770726D02*
Y3841276D01*
Y3693204D02*
X3894835Y3686000D01*
X3887632Y3693204D02*
Y3770726D01*
X4299678Y3839741D02*
X4301214Y3841276D01*
X4299678Y3768482D02*
Y3839741D01*
X4221922Y3990724D02*
X4307197D01*
X4220938Y3989740D02*
X4221922Y3990724D01*
Y3770726D02*
Y3841276D01*
Y3693204D02*
X4229126Y3686000D01*
X4221922Y3693204D02*
Y3770726D01*
X1959644Y3839741D02*
X1961179Y3841276D01*
X1881888Y3990724D02*
X1967162D01*
X1880904Y3989740D02*
X1881888Y3990724D01*
Y3693204D02*
X1889092Y3686000D01*
X2293935Y3839741D02*
X2295470Y3841276D01*
X2293935Y3768482D02*
Y3839741D01*
X2216179Y3990724D02*
X2301453D01*
X2215194Y3989740D02*
X2216179Y3990724D01*
Y3770726D02*
Y3841276D01*
Y3693204D02*
X2223382Y3686000D01*
X2216179Y3693204D02*
Y3770726D01*
X2628225Y3839741D02*
X2629761Y3841276D01*
X2628225Y3768482D02*
Y3839741D01*
X2550469Y3990724D02*
X2635744D01*
X2549485Y3989740D02*
X2550469Y3990724D01*
Y3770726D02*
Y3841276D01*
Y3693204D02*
X2557673Y3686000D01*
X2550469Y3693204D02*
Y3770726D01*
X2962516Y3839741D02*
X2964051Y3841276D01*
X2962516Y3768482D02*
Y3839741D01*
X2884760Y3990724D02*
X2970034D01*
X2883776Y3989740D02*
X2884760Y3990724D01*
Y3770726D02*
Y3841276D01*
Y3693204D02*
X2891963Y3686000D01*
X2884760Y3693204D02*
Y3770726D01*
X3219050Y3990724D02*
X3304325D01*
X3218066Y3989740D02*
X3219050Y3990724D01*
Y3770726D02*
Y3841276D01*
Y3693204D02*
X3226254Y3686000D01*
X3219050Y3693204D02*
Y3770726D01*
X956772Y3839741D02*
X958308Y3841276D01*
X956772Y3768482D02*
Y3839741D01*
X879016Y3990724D02*
X964291D01*
X878032Y3989740D02*
X879016Y3990724D01*
Y3770726D02*
Y3841276D01*
Y3693204D02*
X886220Y3686000D01*
X879016Y3693204D02*
Y3770726D01*
X3958308Y1393000D02*
Y1510520D01*
Y1601071D02*
Y1715984D01*
D22*
X2979165Y2574276D02*
X3112929D01*
X3978379Y2575450D02*
X4111755D01*
X3597378Y1380898D02*
X3730755D01*
X2888712D02*
X3022088D01*
X3638246Y2575276D02*
X3772104D01*
X3243028Y1380449D02*
X3376320D01*
X2534552Y1381206D02*
X2667448D01*
X3299795Y2575000D02*
X3432205D01*
D23*
X1385551Y1765000D02*
D03*
X995000D02*
D03*
X1385551Y1898858D02*
D03*
X995000D02*
D03*
Y2203780D02*
D03*
X1385551D02*
D03*
X995000Y2069921D02*
D03*
X1385551D02*
D03*
X1624843Y2186206D02*
D03*
Y2576757D02*
D03*
X1758701Y2186206D02*
D03*
Y2576757D02*
D03*
X2313490Y2181724D02*
D03*
Y2572276D02*
D03*
X2447348Y2181724D02*
D03*
Y2572276D02*
D03*
X2979165Y2183724D02*
D03*
Y2574276D02*
D03*
X3113023Y2183724D02*
D03*
Y2574276D02*
D03*
X3299361Y2184449D02*
D03*
Y2575000D02*
D03*
X3433220Y2184449D02*
D03*
Y2575000D02*
D03*
X3638246Y2184724D02*
D03*
Y2575276D02*
D03*
X3772104Y2184724D02*
D03*
Y2575276D02*
D03*
X3978379Y2184898D02*
D03*
Y2575450D02*
D03*
X4112237Y2184898D02*
D03*
Y2575450D02*
D03*
X3731237Y1771450D02*
D03*
Y1380898D02*
D03*
X3597378Y1771450D02*
D03*
Y1380898D02*
D03*
X3376886Y1771000D02*
D03*
Y1380449D02*
D03*
X3243028Y1771000D02*
D03*
Y1380449D02*
D03*
X3022570Y1771450D02*
D03*
Y1380898D02*
D03*
X2888712Y1771450D02*
D03*
Y1380898D02*
D03*
X2667701Y1771757D02*
D03*
Y1381206D02*
D03*
X2533843Y1771757D02*
D03*
Y1381206D02*
D03*
X2313314Y1763253D02*
D03*
Y1372702D02*
D03*
X2179456Y1763253D02*
D03*
Y1372702D02*
D03*
D24*
X720866Y2269685D02*
D03*
Y2387795D02*
D03*
Y2505905D02*
D03*
Y2624016D02*
D03*
Y2742126D02*
D03*
Y2860236D02*
D03*
Y2978347D02*
D03*
Y3096457D02*
D03*
Y3214567D02*
D03*
X622441Y2328740D02*
D03*
Y2446850D02*
D03*
Y2564961D02*
D03*
Y2683071D02*
D03*
Y2801181D02*
D03*
Y2919291D02*
D03*
Y3037402D02*
D03*
Y3155512D02*
D03*
X504331Y2328740D02*
D03*
Y2446850D02*
D03*
Y2564961D02*
D03*
Y2683071D02*
D03*
Y2801181D02*
D03*
Y2919291D02*
D03*
Y3037402D02*
D03*
Y3155512D02*
D03*
X405906Y2269685D02*
D03*
Y2387795D02*
D03*
Y2505905D02*
D03*
Y2624016D02*
D03*
Y2742126D02*
D03*
Y2860236D02*
D03*
Y2978347D02*
D03*
Y3096457D02*
D03*
Y3214567D02*
D03*
Y1698819D02*
D03*
Y1580709D02*
D03*
Y1462599D02*
D03*
Y1344488D02*
D03*
Y1226378D02*
D03*
Y1108268D02*
D03*
Y990158D02*
D03*
X504331Y1639764D02*
D03*
Y1521654D02*
D03*
Y1403543D02*
D03*
Y1285433D02*
D03*
Y1167323D02*
D03*
Y1049213D02*
D03*
X622441Y1639764D02*
D03*
Y1521654D02*
D03*
Y1403543D02*
D03*
Y1285433D02*
D03*
Y1167323D02*
D03*
Y1049213D02*
D03*
X720866Y1698819D02*
D03*
Y1580709D02*
D03*
Y1462599D02*
D03*
Y1344488D02*
D03*
Y1226378D02*
D03*
Y1108268D02*
D03*
Y990158D02*
D03*
D25*
X150000Y704724D02*
D03*
Y1984252D02*
D03*
Y3500000D02*
D03*
D26*
X1166000Y1552000D02*
D03*
X1777000Y1401000D02*
D03*
X1490000Y1380000D02*
D03*
D27*
X4700000Y300000D02*
D03*
Y3900000D02*
D03*
X300000D02*
D03*
Y300000D02*
D03*
D28*
X2644656Y2449512D02*
D03*
X2619065Y2823528D02*
D03*
X2768671Y2685732D02*
D03*
X1979001Y2452449D02*
D03*
X1953410Y2826465D02*
D03*
X2103016Y2688670D02*
D03*
X1286000Y2466449D02*
D03*
X1260410Y2840465D02*
D03*
X1410016Y2702669D02*
D03*
X2011929Y1364551D02*
D03*
X2037520Y990535D02*
D03*
X1887913Y1128331D02*
D03*
D29*
X2813947Y3040063D02*
D03*
X2644656D02*
D03*
X2148292Y3043001D02*
D03*
X1979001D02*
D03*
X1455292Y3057000D02*
D03*
X1286000D02*
D03*
X1842638Y774000D02*
D03*
X2011929D02*
D03*
D30*
X934000Y3524000D02*
D03*
X3528000Y1553000D02*
D03*
X1771000Y3157000D02*
D03*
X2272663Y3040000D02*
D03*
X1616000Y3157000D02*
D03*
X2476217Y3214567D02*
D03*
X164695Y2380000D02*
D03*
X180000Y2769010D02*
D03*
X4344456Y3600000D02*
D03*
X3342396D02*
D03*
X597000Y3810000D02*
D03*
X4860000Y2850000D02*
D03*
X227000Y1634278D02*
D03*
X490000Y2162952D02*
D03*
X390000Y1990000D02*
D03*
X3860000Y2400000D02*
D03*
X3202201D02*
D03*
X2780726Y1510000D02*
D03*
X4710000Y1420000D02*
D03*
X4510000Y2710000D02*
D03*
X3930000Y3120000D02*
D03*
X3420000Y2980000D02*
D03*
X2990000Y2840465D02*
D03*
X2440000Y2884821D02*
D03*
X1170000Y1984252D02*
D03*
X1146000Y2530000D02*
D03*
X980000Y1410000D02*
D03*
X920000Y1000000D02*
D03*
X1340000Y930000D02*
D03*
X2180000Y1060000D02*
D03*
X1420000Y700000D02*
D03*
X2601000Y1215000D02*
D03*
X2560000Y850000D02*
D03*
X2883776Y820000D02*
D03*
X4140000Y1080000D02*
D03*
X3040000Y290000D02*
D03*
X1995969Y240000D02*
D03*
X1110000Y250000D02*
D03*
X3965388Y3768482D02*
D03*
X1959644D02*
D03*
X1625353D02*
D03*
X1881888Y3770726D02*
D03*
X4610000Y3080000D02*
D03*
Y3185000D02*
D03*
Y3290000D02*
D03*
Y3395000D02*
D03*
Y3500000D02*
D03*
X4010977Y3600000D02*
D03*
X3676686D02*
D03*
X3296806Y3768482D02*
D03*
X3008105Y3600000D02*
D03*
X2673814D02*
D03*
X1291063Y3768482D02*
D03*
X1212323Y3989740D02*
D03*
X1213307Y3770726D02*
D03*
X1546613Y3989740D02*
D03*
X1547597Y3770726D02*
D03*
X3631097Y3768482D02*
D03*
X3552357Y3989740D02*
D03*
X3553341Y3770726D02*
D03*
X3886647Y3989740D02*
D03*
X3887632Y3770726D02*
D03*
X4299678Y3768482D02*
D03*
X4220938Y3989740D02*
D03*
X4221922Y3770726D02*
D03*
X1880904Y3989740D02*
D03*
X2293935Y3768482D02*
D03*
X2215194Y3989740D02*
D03*
X2216179Y3770726D02*
D03*
X2628225Y3768482D02*
D03*
X2549485Y3989740D02*
D03*
X2550469Y3770726D02*
D03*
X2962516Y3768482D02*
D03*
X2883776Y3989740D02*
D03*
X2884760Y3770726D02*
D03*
X3218066Y3989740D02*
D03*
X3219050Y3770726D02*
D03*
X956772Y3768482D02*
D03*
X878032Y3989740D02*
D03*
X879016Y3770726D02*
D03*
%TF.MD5,07c214c055945c3a295cba1ba4e31ae3*%
M02*
