%TF.GenerationSoftware,Altium Limited,Altium Designer,19.0.10 (269)*%
G04 Layer_Color=128*
%FSLAX26Y26*%
%MOIN*%
%TF.FileFunction,Paste,Bot*%
%TF.Part,Single*%
G01*
G75*
%TA.AperFunction,SMDPad,CuDef*%
%ADD12R,0.053150X0.045276*%
%ADD31R,0.035433X0.031496*%
D12*
X1826929Y455102D02*
D03*
Y524000D02*
D03*
X1936929Y455102D02*
D03*
Y524000D02*
D03*
X2033584D02*
D03*
Y455102D02*
D03*
X1264345Y3307000D02*
D03*
Y3375898D02*
D03*
X1361000D02*
D03*
Y3307000D02*
D03*
X1471000Y3375898D02*
D03*
Y3307000D02*
D03*
X1957346Y3293001D02*
D03*
Y3361898D02*
D03*
X2054000D02*
D03*
Y3293001D02*
D03*
X2164000Y3361898D02*
D03*
Y3293001D02*
D03*
X2623001Y3290063D02*
D03*
Y3358961D02*
D03*
X2719655D02*
D03*
Y3290063D02*
D03*
X2829655Y3358961D02*
D03*
Y3290063D02*
D03*
D31*
X1291063Y3875725D02*
D03*
X1212323Y3913127D02*
D03*
Y3838324D02*
D03*
X956772Y3875725D02*
D03*
X878032Y3913127D02*
D03*
Y3838324D02*
D03*
X1625353Y3875725D02*
D03*
X1546613Y3913127D02*
D03*
Y3838324D02*
D03*
X3296806Y3875725D02*
D03*
X3218066Y3913127D02*
D03*
Y3838324D02*
D03*
X2962516Y3875725D02*
D03*
X2883776Y3913127D02*
D03*
Y3838324D02*
D03*
X2628225Y3875725D02*
D03*
X2549485Y3913127D02*
D03*
Y3838324D02*
D03*
X2293935Y3875725D02*
D03*
X2215194Y3913127D02*
D03*
Y3838324D02*
D03*
X1959644Y3875725D02*
D03*
X1880904Y3913127D02*
D03*
Y3838324D02*
D03*
X4299678Y3875725D02*
D03*
X4220938Y3913127D02*
D03*
Y3838324D02*
D03*
X3965388Y3875725D02*
D03*
X3886647Y3913127D02*
D03*
Y3838324D02*
D03*
X3631097Y3875725D02*
D03*
X3552357Y3913127D02*
D03*
Y3838324D02*
D03*
%TF.MD5,20ef0286642566dba7cf4978159f70e3*%
M02*
