G04*
G04 #@! TF.GenerationSoftware,Altium Limited,Altium Designer,18.1.9 (240)*
G04*
G04 Layer_Color=8388736*
%FSLAX25Y25*%
%MOIN*%
G70*
G01*
G75*
%ADD49R,0.20291X0.17339*%
%ADD50R,0.06118X0.06709*%
%ADD51R,0.05528X0.06315*%
%ADD52R,0.09071X0.05528*%
%ADD53R,0.05528X0.09071*%
%ADD54R,0.06315X0.05528*%
%ADD55R,0.05921X0.04740*%
%ADD56R,0.06118X0.06512*%
%ADD57R,0.07890X0.03559*%
%ADD58O,0.06709X0.03362*%
%ADD59R,0.04347X0.04740*%
%ADD60R,0.04740X0.04347*%
%ADD61R,0.04937X0.04543*%
%ADD62R,0.04543X0.04937*%
%ADD63O,0.03362X0.06709*%
%ADD64R,0.07496X0.02929*%
%ADD65R,0.05331X0.06118*%
%ADD66R,0.06315X0.02181*%
%ADD67R,0.02181X0.06315*%
%ADD68R,0.02653X0.04500*%
%ADD69R,0.08874X0.15961*%
%ADD70R,0.08874X0.06906*%
%ADD71R,0.06512X0.06118*%
%ADD72R,0.04543X0.02181*%
%ADD73R,0.04937X0.03362*%
%ADD74R,0.05528X0.03756*%
%ADD75R,0.19110X0.19504*%
%ADD76R,0.06315X0.06709*%
%ADD77R,0.14780X0.22457*%
%ADD78R,0.10449X0.03992*%
%ADD79R,0.03559X0.07890*%
%ADD80C,0.20685*%
%ADD81C,0.11000*%
%ADD82C,0.06512*%
%ADD83C,0.13992*%
%ADD84C,0.09661*%
%ADD85C,0.10055*%
%ADD86C,0.10843*%
%ADD87C,0.08874*%
%ADD88O,0.08087X0.13795*%
%ADD89C,0.04000*%
D49*
X613484Y122835D02*
D03*
D50*
X598890Y118835D02*
D03*
Y126835D02*
D03*
D51*
X572933Y457480D02*
D03*
X579823D02*
D03*
X581102Y325197D02*
D03*
X587992D02*
D03*
X332382Y583858D02*
D03*
X339272D02*
D03*
X332382Y552362D02*
D03*
X339272D02*
D03*
X575295Y437795D02*
D03*
X582185D02*
D03*
X575295Y418898D02*
D03*
X582185D02*
D03*
X382480Y361024D02*
D03*
X389370D02*
D03*
X382480Y342913D02*
D03*
X389370D02*
D03*
X382480Y325590D02*
D03*
X389370D02*
D03*
X483819Y653937D02*
D03*
X490709D02*
D03*
X508957Y656693D02*
D03*
X502067D02*
D03*
X568898Y680709D02*
D03*
X562008D02*
D03*
X623524Y530998D02*
D03*
X630413D02*
D03*
X356299Y203543D02*
D03*
X363189D02*
D03*
X399016Y203937D02*
D03*
X405905D02*
D03*
X443012D02*
D03*
X449902D02*
D03*
X527165Y203543D02*
D03*
X534055D02*
D03*
X484252Y203543D02*
D03*
X491142D02*
D03*
D52*
X609449Y474016D02*
D03*
X589764Y452362D02*
D03*
X537795Y435827D02*
D03*
Y428740D02*
D03*
Y421260D02*
D03*
X427953Y297638D02*
D03*
X354331Y229134D02*
D03*
X354035Y239370D02*
D03*
X415748Y291339D02*
D03*
X353937Y250394D02*
D03*
X402756Y285827D02*
D03*
X401575Y361024D02*
D03*
X409055Y353543D02*
D03*
X416535Y347244D02*
D03*
X540965Y244882D02*
D03*
X528740D02*
D03*
X436614Y237008D02*
D03*
X422441Y229921D02*
D03*
X523622Y394882D02*
D03*
X501181Y520866D02*
D03*
X370079Y457087D02*
D03*
X373622Y450394D02*
D03*
X505512Y515354D02*
D03*
X376772Y443307D02*
D03*
X509842Y509449D02*
D03*
X399213Y435827D02*
D03*
X566142Y189764D02*
D03*
X476526Y296211D02*
D03*
X465748Y286200D02*
D03*
D53*
X601575Y416929D02*
D03*
X320728Y345276D02*
D03*
X320768Y356201D02*
D03*
Y333071D02*
D03*
X492028Y417323D02*
D03*
X558268Y305512D02*
D03*
X540945Y303504D02*
D03*
X522835Y300394D02*
D03*
X505905Y296063D02*
D03*
X306299Y469685D02*
D03*
X423228Y201181D02*
D03*
X478346Y419291D02*
D03*
X385827Y197638D02*
D03*
X484646Y419291D02*
D03*
X498819Y416929D02*
D03*
X324016Y487402D02*
D03*
X503937Y405118D02*
D03*
X432283Y394094D02*
D03*
X427559Y383071D02*
D03*
D54*
X589764Y402658D02*
D03*
Y395768D02*
D03*
X603543Y53248D02*
D03*
Y60138D02*
D03*
X456693Y403051D02*
D03*
Y396161D02*
D03*
X464961Y403051D02*
D03*
Y396161D02*
D03*
X461811Y495571D02*
D03*
Y488681D02*
D03*
X479921Y495571D02*
D03*
Y488681D02*
D03*
X497244Y495571D02*
D03*
Y488681D02*
D03*
X366142Y515846D02*
D03*
Y522736D02*
D03*
X383071Y515846D02*
D03*
Y522736D02*
D03*
X400000Y515846D02*
D03*
Y522736D02*
D03*
X417126Y515650D02*
D03*
Y522539D02*
D03*
X548425Y412992D02*
D03*
Y406102D02*
D03*
X505768Y281201D02*
D03*
Y288090D02*
D03*
X523622Y281201D02*
D03*
Y288090D02*
D03*
X540945Y281201D02*
D03*
Y288090D02*
D03*
X558268D02*
D03*
Y281201D02*
D03*
X553248Y698425D02*
D03*
Y691535D02*
D03*
X640354Y542121D02*
D03*
Y535231D02*
D03*
X560374Y617224D02*
D03*
Y624114D02*
D03*
X550531D02*
D03*
Y617224D02*
D03*
X467185Y542028D02*
D03*
Y535138D02*
D03*
X457342D02*
D03*
Y542028D02*
D03*
X483858Y583957D02*
D03*
Y590846D02*
D03*
X493701D02*
D03*
Y583957D02*
D03*
X657185Y122933D02*
D03*
Y129823D02*
D03*
X584744Y133169D02*
D03*
Y140059D02*
D03*
D55*
X655512Y514831D02*
D03*
Y508728D02*
D03*
D56*
X483071Y573622D02*
D03*
X476772D02*
D03*
X550787Y483681D02*
D03*
X557087D02*
D03*
X568602Y698524D02*
D03*
X562303D02*
D03*
X560374Y635079D02*
D03*
X566673D02*
D03*
X475039Y552185D02*
D03*
X468740D02*
D03*
X630118Y542219D02*
D03*
X623819D02*
D03*
D57*
X330118Y366201D02*
D03*
Y361201D02*
D03*
Y356201D02*
D03*
Y351201D02*
D03*
Y346201D02*
D03*
Y341201D02*
D03*
Y336201D02*
D03*
Y331201D02*
D03*
Y326201D02*
D03*
Y321201D02*
D03*
X366929Y366201D02*
D03*
Y361201D02*
D03*
Y356201D02*
D03*
Y351201D02*
D03*
Y346201D02*
D03*
Y341201D02*
D03*
Y336201D02*
D03*
Y331201D02*
D03*
Y326201D02*
D03*
Y321201D02*
D03*
D58*
X445077Y246437D02*
D03*
Y251437D02*
D03*
Y256437D02*
D03*
Y261437D02*
D03*
X423620Y246437D02*
D03*
Y251437D02*
D03*
Y256437D02*
D03*
Y261437D02*
D03*
D59*
X440059Y277953D02*
D03*
X445177D02*
D03*
X383366Y381693D02*
D03*
X378248D02*
D03*
X393602Y389370D02*
D03*
X388484D02*
D03*
D60*
X470177Y261221D02*
D03*
Y256102D02*
D03*
X462303Y251378D02*
D03*
Y246260D02*
D03*
X409154Y406102D02*
D03*
Y400984D02*
D03*
D61*
X413878Y251279D02*
D03*
Y256594D02*
D03*
X440551Y639665D02*
D03*
Y634350D02*
D03*
X510630Y588091D02*
D03*
Y582776D02*
D03*
D62*
X383268Y433071D02*
D03*
X388583D02*
D03*
X337894Y383661D02*
D03*
X343209D02*
D03*
X449311Y429134D02*
D03*
X454626D02*
D03*
X495571Y599213D02*
D03*
X490256D02*
D03*
X532185Y582283D02*
D03*
X526870D02*
D03*
X456201Y587795D02*
D03*
X450886D02*
D03*
X525689Y625197D02*
D03*
X531004D02*
D03*
X552264Y582283D02*
D03*
X546949D02*
D03*
D63*
X378229Y401772D02*
D03*
X383229D02*
D03*
X388229D02*
D03*
X393229D02*
D03*
X378229Y423228D02*
D03*
X383229D02*
D03*
X388229D02*
D03*
X393229D02*
D03*
X534232Y550295D02*
D03*
X539232D02*
D03*
X544232D02*
D03*
X549232D02*
D03*
X534232Y571752D02*
D03*
X539232D02*
D03*
X544232D02*
D03*
X549232D02*
D03*
X540965Y656398D02*
D03*
X535965D02*
D03*
X530965D02*
D03*
X525965D02*
D03*
X540965Y634941D02*
D03*
X535965D02*
D03*
X530965D02*
D03*
X525965D02*
D03*
X500768Y550295D02*
D03*
X505768D02*
D03*
X510768D02*
D03*
X515768D02*
D03*
X500768Y571752D02*
D03*
X505768D02*
D03*
X510768D02*
D03*
X515768D02*
D03*
X440787Y557677D02*
D03*
X445787D02*
D03*
X450787D02*
D03*
X455787D02*
D03*
X440787Y579134D02*
D03*
X445787D02*
D03*
X450787D02*
D03*
X455787D02*
D03*
D64*
X358169Y587106D02*
D03*
Y584547D02*
D03*
Y581988D02*
D03*
Y579429D02*
D03*
Y576870D02*
D03*
Y574311D02*
D03*
Y571752D02*
D03*
Y569193D02*
D03*
Y566634D02*
D03*
Y564075D02*
D03*
Y561516D02*
D03*
Y558957D02*
D03*
Y556398D02*
D03*
Y553839D02*
D03*
X386713Y587106D02*
D03*
Y584547D02*
D03*
Y581988D02*
D03*
Y579429D02*
D03*
Y576870D02*
D03*
Y574311D02*
D03*
Y571752D02*
D03*
Y569193D02*
D03*
Y566634D02*
D03*
Y564075D02*
D03*
Y561516D02*
D03*
Y558957D02*
D03*
Y556398D02*
D03*
Y553839D02*
D03*
D65*
X341535Y574016D02*
D03*
X332480D02*
D03*
X341535Y562598D02*
D03*
X332480D02*
D03*
X491535Y675591D02*
D03*
X482480D02*
D03*
X644390Y129921D02*
D03*
X635335D02*
D03*
D66*
X466437Y336024D02*
D03*
Y337992D02*
D03*
Y339961D02*
D03*
Y341929D02*
D03*
Y343898D02*
D03*
Y345866D02*
D03*
Y347835D02*
D03*
Y349803D02*
D03*
Y351772D02*
D03*
Y353740D02*
D03*
Y355709D02*
D03*
Y357677D02*
D03*
Y359646D02*
D03*
Y361614D02*
D03*
Y363583D02*
D03*
Y365551D02*
D03*
X511713D02*
D03*
Y363583D02*
D03*
Y361614D02*
D03*
Y359646D02*
D03*
Y357677D02*
D03*
Y355709D02*
D03*
Y353740D02*
D03*
Y351772D02*
D03*
Y349803D02*
D03*
Y347835D02*
D03*
Y345866D02*
D03*
Y343898D02*
D03*
Y341929D02*
D03*
Y339961D02*
D03*
Y337992D02*
D03*
Y336024D02*
D03*
D67*
X474311Y373425D02*
D03*
X476279D02*
D03*
X478248D02*
D03*
X480217D02*
D03*
X482185D02*
D03*
X484154D02*
D03*
X486122D02*
D03*
X488091D02*
D03*
X490059D02*
D03*
X492028D02*
D03*
X493996D02*
D03*
X495965D02*
D03*
X497933D02*
D03*
X499902D02*
D03*
X501870D02*
D03*
X503839D02*
D03*
Y328150D02*
D03*
X501870D02*
D03*
X499902D02*
D03*
X497933D02*
D03*
X495965D02*
D03*
X493996D02*
D03*
X492028D02*
D03*
X490059D02*
D03*
X488091D02*
D03*
X486122D02*
D03*
X484154D02*
D03*
X482185D02*
D03*
X480217D02*
D03*
X478248D02*
D03*
X476279D02*
D03*
X474311D02*
D03*
D68*
X470630Y624409D02*
D03*
X465630D02*
D03*
X460630D02*
D03*
X455630D02*
D03*
X450630D02*
D03*
X445630D02*
D03*
X440630D02*
D03*
X470630Y603937D02*
D03*
X465630D02*
D03*
X460630D02*
D03*
X455630D02*
D03*
X450630D02*
D03*
X445630D02*
D03*
X440630D02*
D03*
D69*
X593110Y492913D02*
D03*
D70*
X568307Y483858D02*
D03*
Y492913D02*
D03*
Y501968D02*
D03*
D71*
X555118Y499213D02*
D03*
Y492913D02*
D03*
D72*
X489961Y619882D02*
D03*
Y617913D02*
D03*
Y615945D02*
D03*
Y613976D02*
D03*
X502165Y619882D02*
D03*
Y617913D02*
D03*
Y615945D02*
D03*
Y613976D02*
D03*
D73*
X538878Y600591D02*
D03*
Y604331D02*
D03*
Y608071D02*
D03*
X528051D02*
D03*
Y600591D02*
D03*
D74*
X597736Y155138D02*
D03*
Y150138D02*
D03*
Y145138D02*
D03*
Y140138D02*
D03*
D75*
X613484Y147638D02*
D03*
D76*
X621260Y165354D02*
D03*
X609646D02*
D03*
D77*
X635433Y147638D02*
D03*
X656102D02*
D03*
D78*
X427756Y310472D02*
D03*
X412402D02*
D03*
X427756Y315472D02*
D03*
X412402D02*
D03*
X427756Y320472D02*
D03*
X412402D02*
D03*
X427756Y325472D02*
D03*
X412402D02*
D03*
X427756Y330472D02*
D03*
X412402D02*
D03*
D79*
X509882Y465945D02*
D03*
X504882D02*
D03*
X499882D02*
D03*
X494882D02*
D03*
X489882D02*
D03*
X484882D02*
D03*
X479882D02*
D03*
X474882D02*
D03*
X469882D02*
D03*
X464882D02*
D03*
X509882Y429134D02*
D03*
X504882D02*
D03*
X499882D02*
D03*
X494882D02*
D03*
X489882D02*
D03*
X484882D02*
D03*
X479882D02*
D03*
X474882D02*
D03*
X469882D02*
D03*
X464882D02*
D03*
D80*
X316929Y37402D02*
D03*
X685039D02*
D03*
Y696850D02*
D03*
X316929D02*
D03*
D81*
X611102Y686614D02*
D03*
X633465D02*
D03*
X622283Y668720D02*
D03*
X633228Y575020D02*
D03*
X610866D02*
D03*
X622047Y592913D02*
D03*
X605512Y99213D02*
D03*
X657480Y363779D02*
D03*
D82*
X490709Y639370D02*
D03*
X480709D02*
D03*
X470709D02*
D03*
X512992Y626614D02*
D03*
Y636614D02*
D03*
Y646614D02*
D03*
X560630Y666299D02*
D03*
Y656299D02*
D03*
Y646299D02*
D03*
X376043Y190157D02*
D03*
X366043D02*
D03*
X356043D02*
D03*
X419153Y190551D02*
D03*
X409154D02*
D03*
X399153D02*
D03*
X461476D02*
D03*
X451476D02*
D03*
X441476D02*
D03*
X503996Y190157D02*
D03*
X493996D02*
D03*
X483996D02*
D03*
X546516Y189370D02*
D03*
X536516D02*
D03*
X526516D02*
D03*
D83*
X681890Y195472D02*
D03*
Y347047D02*
D03*
Y475000D02*
D03*
D84*
X624803Y446457D02*
D03*
Y434646D02*
D03*
Y422835D02*
D03*
Y411024D02*
D03*
Y399213D02*
D03*
Y387402D02*
D03*
Y375590D02*
D03*
X634646Y440551D02*
D03*
Y428740D02*
D03*
Y416929D02*
D03*
Y405118D02*
D03*
Y393307D02*
D03*
Y381496D02*
D03*
X646457Y440551D02*
D03*
Y428740D02*
D03*
Y416929D02*
D03*
Y405118D02*
D03*
Y393307D02*
D03*
Y381496D02*
D03*
X656299Y446457D02*
D03*
Y434646D02*
D03*
Y422835D02*
D03*
Y411024D02*
D03*
Y399213D02*
D03*
Y387402D02*
D03*
Y375590D02*
D03*
Y224016D02*
D03*
Y235827D02*
D03*
Y247638D02*
D03*
Y259449D02*
D03*
Y271260D02*
D03*
Y283071D02*
D03*
Y294882D02*
D03*
Y306693D02*
D03*
Y318504D02*
D03*
X646457Y229921D02*
D03*
Y241732D02*
D03*
Y253543D02*
D03*
Y265354D02*
D03*
Y277165D02*
D03*
Y288976D02*
D03*
Y300787D02*
D03*
Y312598D02*
D03*
X634646Y229921D02*
D03*
Y241732D02*
D03*
Y253543D02*
D03*
Y265354D02*
D03*
Y277165D02*
D03*
Y288976D02*
D03*
Y300787D02*
D03*
Y312598D02*
D03*
X624803Y224016D02*
D03*
Y235827D02*
D03*
Y247638D02*
D03*
Y259449D02*
D03*
Y271260D02*
D03*
Y283071D02*
D03*
Y294882D02*
D03*
Y306693D02*
D03*
Y318504D02*
D03*
D85*
X361500Y89567D02*
D03*
Y60039D02*
D03*
X440240D02*
D03*
X420555D02*
D03*
X440240Y89567D02*
D03*
X420555D02*
D03*
X459925Y60039D02*
D03*
Y89567D02*
D03*
D86*
X528051Y121260D02*
D03*
X525492Y158661D02*
D03*
X540453Y144882D02*
D03*
X485532Y121260D02*
D03*
X482972Y158661D02*
D03*
X497933Y144882D02*
D03*
X443012Y121653D02*
D03*
X440453Y159055D02*
D03*
X455413Y145276D02*
D03*
X400492Y121653D02*
D03*
X397933Y159055D02*
D03*
X412894Y145276D02*
D03*
X357579Y121260D02*
D03*
X355020Y158661D02*
D03*
X369980Y144882D02*
D03*
D87*
X544980Y180315D02*
D03*
X528051D02*
D03*
X502461D02*
D03*
X485532D02*
D03*
X459941Y180709D02*
D03*
X443012D02*
D03*
X417421D02*
D03*
X400492D02*
D03*
X374508Y180315D02*
D03*
X357579D02*
D03*
D88*
X581496Y60039D02*
D03*
X562992D02*
D03*
X544488D02*
D03*
D89*
X572025Y463386D02*
D03*
X579921Y500787D02*
D03*
X495669Y553543D02*
D03*
X478740Y541732D02*
D03*
X538189Y538583D02*
D03*
X521260Y531890D02*
D03*
X531496Y416535D02*
D03*
X530709Y427165D02*
D03*
Y435433D02*
D03*
X316142Y186221D02*
D03*
X381890Y294882D02*
D03*
X497244Y246260D02*
D03*
X501968Y248425D02*
D03*
X492520Y242913D02*
D03*
X512077Y284508D02*
D03*
X409154Y443307D02*
D03*
X407480Y450787D02*
D03*
X419291Y429134D02*
D03*
X405905Y457087D02*
D03*
X419153Y210630D02*
D03*
X503937Y398031D02*
D03*
X324016Y158501D02*
D03*
X316142Y175984D02*
D03*
X324016Y186614D02*
D03*
X327165Y237008D02*
D03*
X330315Y453937D02*
D03*
X333465Y445276D02*
D03*
X491339Y437402D02*
D03*
X635335Y515354D02*
D03*
X610138Y384390D02*
D03*
X632283Y372047D02*
D03*
X624409Y365748D02*
D03*
X616929Y373622D02*
D03*
X677953Y414961D02*
D03*
X691339Y401575D02*
D03*
X684646Y385039D02*
D03*
X601181Y469685D02*
D03*
X611811Y259449D02*
D03*
X672047Y257874D02*
D03*
X689370Y267323D02*
D03*
X662303Y301969D02*
D03*
X609685Y420472D02*
D03*
X640551Y320079D02*
D03*
X476378Y618898D02*
D03*
X622441Y340158D02*
D03*
X577559Y357874D02*
D03*
X514173Y239370D02*
D03*
X478740Y246850D02*
D03*
X383268Y288583D02*
D03*
X671260Y352756D02*
D03*
X685039Y362598D02*
D03*
X432283Y372047D02*
D03*
X433070Y362598D02*
D03*
X488091Y368012D02*
D03*
X388976Y374016D02*
D03*
X339763Y266535D02*
D03*
X336643Y250787D02*
D03*
X366535Y577165D02*
D03*
Y581791D02*
D03*
X351378Y584252D02*
D03*
X346850Y587499D02*
D03*
X324016Y59842D02*
D03*
X624409Y94095D02*
D03*
X635039Y104724D02*
D03*
X578740Y124016D02*
D03*
X582283Y110236D02*
D03*
X496850Y61811D02*
D03*
X332677Y142913D02*
D03*
X405118Y54724D02*
D03*
X455413Y105512D02*
D03*
X509449Y103937D02*
D03*
X567717Y115354D02*
D03*
X587402Y114567D02*
D03*
X375197Y512598D02*
D03*
X346063Y431890D02*
D03*
X355512Y441339D02*
D03*
X344488Y540551D02*
D03*
X403937Y565748D02*
D03*
X404331Y330512D02*
D03*
X593504Y458661D02*
D03*
X655118D02*
D03*
X596457Y308268D02*
D03*
X594095Y296457D02*
D03*
Y281102D02*
D03*
X403543Y510236D02*
D03*
X392126Y534646D02*
D03*
X495276Y502756D02*
D03*
X496457Y479921D02*
D03*
X677165Y434646D02*
D03*
X672441Y402362D02*
D03*
X672835Y361811D02*
D03*
X668504Y286221D02*
D03*
X324016Y469291D02*
D03*
X494488Y509449D02*
D03*
X484252Y513779D02*
D03*
X471654Y393701D02*
D03*
X582677Y600591D02*
D03*
Y557300D02*
D03*
X524803Y562732D02*
D03*
X493701Y627651D02*
D03*
X519291Y628721D02*
D03*
X572025Y173622D02*
D03*
X561811Y183836D02*
D03*
X374705Y342903D02*
D03*
X352362Y313779D02*
D03*
X374705Y361024D02*
D03*
X538878Y484917D02*
D03*
X538583Y498425D02*
D03*
X425934Y514567D02*
D03*
X364745Y568504D02*
D03*
X498032Y335546D02*
D03*
X380315Y268898D02*
D03*
X376181Y278740D02*
D03*
X391732Y288583D02*
D03*
X389764Y258661D02*
D03*
X494095Y367815D02*
D03*
X608661Y357480D02*
D03*
Y343307D02*
D03*
X484252Y478346D02*
D03*
X451968Y494882D02*
D03*
X429528Y304331D02*
D03*
X595276Y318504D02*
D03*
X597638Y328740D02*
D03*
X531496Y330709D02*
D03*
X488091Y400689D02*
D03*
X401968Y243307D02*
D03*
X442126Y341732D02*
D03*
X357087Y307087D02*
D03*
X490551Y547244D02*
D03*
X436279Y592461D02*
D03*
X600000Y637795D02*
D03*
X544488Y540551D02*
D03*
X549390Y384252D02*
D03*
X537795D02*
D03*
X527165Y384646D02*
D03*
X513779Y385039D02*
D03*
X548819Y394882D02*
D03*
X538189Y395276D02*
D03*
X487795Y240158D02*
D03*
X544390Y239606D02*
D03*
X534390Y240158D02*
D03*
X524409Y239764D02*
D03*
X595669Y440158D02*
D03*
X605118Y214567D02*
D03*
X580315Y199803D02*
D03*
X572185Y407618D02*
D03*
X471260Y442520D02*
D03*
X579134Y345276D02*
D03*
X394094Y553543D02*
D03*
X372441Y291339D02*
D03*
X352756Y278346D02*
D03*
X606693Y222047D02*
D03*
X416142Y455905D02*
D03*
X544232Y212205D02*
D03*
X376181Y205512D02*
D03*
X327165Y462598D02*
D03*
X614173Y212205D02*
D03*
X534232Y216929D02*
D03*
X640158Y498032D02*
D03*
X476772Y517717D02*
D03*
X413779Y243307D02*
D03*
X464567Y409547D02*
D03*
X456693D02*
D03*
X444488Y592520D02*
D03*
X485433Y535138D02*
D03*
X410236Y301181D02*
D03*
X350394Y579528D02*
D03*
X490551Y334252D02*
D03*
X485532Y335433D02*
D03*
X513386Y409842D02*
D03*
X516929Y404724D02*
D03*
X510236Y416142D02*
D03*
X428346Y368898D02*
D03*
Y362205D02*
D03*
X385433Y408661D02*
D03*
X393110D02*
D03*
X392126Y378740D02*
D03*
X378229Y395669D02*
D03*
X392126D02*
D03*
X453937Y341929D02*
D03*
X452362Y322047D02*
D03*
X458661Y328740D02*
D03*
X453346Y347835D02*
D03*
X448032Y323622D02*
D03*
X438583Y246457D02*
D03*
X478346Y259842D02*
D03*
X438583Y260630D02*
D03*
Y253543D02*
D03*
X534390Y544882D02*
D03*
X466929Y562598D02*
D03*
X534252Y577165D02*
D03*
X560236Y605905D02*
D03*
X521457Y600591D02*
D03*
X515748Y566142D02*
D03*
X505512Y562205D02*
D03*
X461476Y618898D02*
D03*
X460630Y598032D02*
D03*
X455630Y598307D02*
D03*
X531102Y642913D02*
D03*
X359055Y511024D02*
D03*
X384252Y509449D02*
D03*
X392520Y519685D02*
D03*
X410630Y519291D02*
D03*
X436339Y330512D02*
D03*
X578346Y444882D02*
D03*
X579134Y427165D02*
D03*
X547638Y284843D02*
D03*
X534390Y284508D02*
D03*
X517323Y284646D02*
D03*
X575591Y342126D02*
D03*
X581890Y353937D02*
D03*
X589764Y350787D02*
D03*
X596063Y367717D02*
D03*
X597244Y350394D02*
D03*
X602756Y340945D02*
D03*
X379528Y556693D02*
D03*
M02*
