G04*
G04 #@! TF.GenerationSoftware,Altium Limited,Altium Designer,18.1.9 (240)*
G04*
G04 Layer_Color=16711935*
%FSLAX25Y25*%
%MOIN*%
G70*
G01*
G75*
%ADD50R,0.06118X0.06709*%
%ADD51R,0.05528X0.06315*%
%ADD54R,0.06315X0.05528*%
%ADD57R,0.07890X0.03559*%
%ADD60R,0.04740X0.04347*%
%ADD61R,0.04937X0.04543*%
%ADD62R,0.04543X0.04937*%
%ADD72R,0.04543X0.02181*%
%ADD76R,0.06315X0.06709*%
%ADD79R,0.03559X0.07890*%
%ADD80C,0.20685*%
%ADD81C,0.11000*%
%ADD82C,0.06512*%
%ADD83C,0.13992*%
%ADD84C,0.09661*%
%ADD85C,0.10055*%
%ADD86C,0.10843*%
%ADD87C,0.08874*%
%ADD88O,0.08087X0.13795*%
%ADD89C,0.04000*%
%ADD114R,0.04543X0.04150*%
%ADD115R,0.04150X0.04543*%
%ADD116R,0.06315X0.02575*%
%ADD117R,0.08480X0.08480*%
%ADD118R,0.06512X0.07299*%
D50*
X310236Y600374D02*
D03*
Y573406D02*
D03*
D51*
X672342Y273622D02*
D03*
X665453D02*
D03*
X604035Y291339D02*
D03*
X610925D02*
D03*
Y274410D02*
D03*
X604035D02*
D03*
X596752Y248031D02*
D03*
X589862D02*
D03*
X610925Y325984D02*
D03*
X604035D02*
D03*
X610925Y308661D02*
D03*
X604035D02*
D03*
X667815Y387402D02*
D03*
X674705D02*
D03*
D54*
X346063Y282579D02*
D03*
Y275689D02*
D03*
X370669Y270473D02*
D03*
Y263583D02*
D03*
X383071Y282579D02*
D03*
Y275689D02*
D03*
X616142Y357382D02*
D03*
Y350492D02*
D03*
X633228Y363287D02*
D03*
Y356398D02*
D03*
X634646Y332776D02*
D03*
Y339665D02*
D03*
X610236Y374705D02*
D03*
Y367815D02*
D03*
D57*
X561319Y448878D02*
D03*
Y443878D02*
D03*
Y438878D02*
D03*
Y433878D02*
D03*
Y428878D02*
D03*
Y423878D02*
D03*
Y418878D02*
D03*
Y413878D02*
D03*
Y408878D02*
D03*
Y403878D02*
D03*
X524508Y448878D02*
D03*
Y443878D02*
D03*
Y438878D02*
D03*
Y433878D02*
D03*
Y428878D02*
D03*
Y423878D02*
D03*
Y418878D02*
D03*
Y413878D02*
D03*
Y408878D02*
D03*
Y403878D02*
D03*
D60*
X442126Y335630D02*
D03*
Y330512D02*
D03*
D61*
X483465Y340256D02*
D03*
Y345571D02*
D03*
X492028Y339921D02*
D03*
Y345236D02*
D03*
X378051Y409547D02*
D03*
Y414862D02*
D03*
X394882Y325315D02*
D03*
Y330630D02*
D03*
X372441Y576476D02*
D03*
Y581791D02*
D03*
X373228Y556496D02*
D03*
Y551181D02*
D03*
D62*
X488287Y362205D02*
D03*
X493602D02*
D03*
X356988Y292913D02*
D03*
X351673D02*
D03*
X433071Y246063D02*
D03*
X427756D02*
D03*
X361457Y611417D02*
D03*
X356142D02*
D03*
X529921Y457874D02*
D03*
X524606D02*
D03*
X356201Y464961D02*
D03*
X361516D02*
D03*
X562697Y232776D02*
D03*
X568012D02*
D03*
D72*
X358465Y278543D02*
D03*
Y280512D02*
D03*
Y282480D02*
D03*
Y284449D02*
D03*
X370669Y278543D02*
D03*
Y280512D02*
D03*
Y282480D02*
D03*
Y284449D02*
D03*
D76*
X364567Y167717D02*
D03*
X376181D02*
D03*
X407677Y168110D02*
D03*
X419291D02*
D03*
X493307Y167717D02*
D03*
X504921D02*
D03*
X535433Y167717D02*
D03*
X547047D02*
D03*
X450394Y168110D02*
D03*
X462008D02*
D03*
D79*
X416004Y465059D02*
D03*
X411004D02*
D03*
X406004D02*
D03*
X401004D02*
D03*
X396004D02*
D03*
X391004D02*
D03*
X386004D02*
D03*
X381004D02*
D03*
X376004D02*
D03*
X371004D02*
D03*
X416004Y501870D02*
D03*
X411004D02*
D03*
X406004D02*
D03*
X401004D02*
D03*
X396004D02*
D03*
X391004D02*
D03*
X386004D02*
D03*
X381004D02*
D03*
X376004D02*
D03*
X371004D02*
D03*
X554390Y232776D02*
D03*
X549390D02*
D03*
X544390D02*
D03*
X539390D02*
D03*
X534390D02*
D03*
X529390D02*
D03*
X524390D02*
D03*
X519390D02*
D03*
X514390D02*
D03*
X509390D02*
D03*
X554390Y269587D02*
D03*
X549390D02*
D03*
X544390D02*
D03*
X539390D02*
D03*
X534390D02*
D03*
X529390D02*
D03*
X524390D02*
D03*
X519390D02*
D03*
X514390D02*
D03*
X509390D02*
D03*
D80*
X316929Y37402D02*
D03*
X685039D02*
D03*
Y696850D02*
D03*
X316929D02*
D03*
D81*
X611102Y686614D02*
D03*
X633465D02*
D03*
X622283Y668720D02*
D03*
X633228Y575020D02*
D03*
X610866D02*
D03*
X622047Y592913D02*
D03*
X605512Y99213D02*
D03*
X657480Y363779D02*
D03*
D82*
X490709Y639370D02*
D03*
X480709D02*
D03*
X470709D02*
D03*
X512992Y626614D02*
D03*
Y636614D02*
D03*
Y646614D02*
D03*
X560630Y666299D02*
D03*
Y656299D02*
D03*
Y646299D02*
D03*
X376043Y190157D02*
D03*
X366043D02*
D03*
X356043D02*
D03*
X419153Y190551D02*
D03*
X409154D02*
D03*
X399153D02*
D03*
X461476D02*
D03*
X451476D02*
D03*
X441476D02*
D03*
X503996Y190157D02*
D03*
X493996D02*
D03*
X483996D02*
D03*
X546516Y189370D02*
D03*
X536516D02*
D03*
X526516D02*
D03*
D83*
X681890Y195472D02*
D03*
Y347047D02*
D03*
Y475000D02*
D03*
D84*
X624803Y446457D02*
D03*
Y434646D02*
D03*
Y422835D02*
D03*
Y411024D02*
D03*
Y399213D02*
D03*
Y387402D02*
D03*
Y375590D02*
D03*
X634646Y440551D02*
D03*
Y428740D02*
D03*
Y416929D02*
D03*
Y405118D02*
D03*
Y393307D02*
D03*
Y381496D02*
D03*
X646457Y440551D02*
D03*
Y428740D02*
D03*
Y416929D02*
D03*
Y405118D02*
D03*
Y393307D02*
D03*
Y381496D02*
D03*
X656299Y446457D02*
D03*
Y434646D02*
D03*
Y422835D02*
D03*
Y411024D02*
D03*
Y399213D02*
D03*
Y387402D02*
D03*
Y375590D02*
D03*
Y224016D02*
D03*
Y235827D02*
D03*
Y247638D02*
D03*
Y259449D02*
D03*
Y271260D02*
D03*
Y283071D02*
D03*
Y294882D02*
D03*
Y306693D02*
D03*
Y318504D02*
D03*
X646457Y229921D02*
D03*
Y241732D02*
D03*
Y253543D02*
D03*
Y265354D02*
D03*
Y277165D02*
D03*
Y288976D02*
D03*
Y300787D02*
D03*
Y312598D02*
D03*
X634646Y229921D02*
D03*
Y241732D02*
D03*
Y253543D02*
D03*
Y265354D02*
D03*
Y277165D02*
D03*
Y288976D02*
D03*
Y300787D02*
D03*
Y312598D02*
D03*
X624803Y224016D02*
D03*
Y235827D02*
D03*
Y247638D02*
D03*
Y259449D02*
D03*
Y271260D02*
D03*
Y283071D02*
D03*
Y294882D02*
D03*
Y306693D02*
D03*
Y318504D02*
D03*
D85*
X361500Y89567D02*
D03*
Y60039D02*
D03*
X440240D02*
D03*
X420555D02*
D03*
X440240Y89567D02*
D03*
X420555D02*
D03*
X459925Y60039D02*
D03*
Y89567D02*
D03*
D86*
X528051Y121260D02*
D03*
X525492Y158661D02*
D03*
X540453Y144882D02*
D03*
X485532Y121260D02*
D03*
X482972Y158661D02*
D03*
X497933Y144882D02*
D03*
X443012Y121653D02*
D03*
X440453Y159055D02*
D03*
X455413Y145276D02*
D03*
X400492Y121653D02*
D03*
X397933Y159055D02*
D03*
X412894Y145276D02*
D03*
X357579Y121260D02*
D03*
X355020Y158661D02*
D03*
X369980Y144882D02*
D03*
D87*
X544980Y180315D02*
D03*
X528051D02*
D03*
X502461D02*
D03*
X485532D02*
D03*
X459941Y180709D02*
D03*
X443012D02*
D03*
X417421D02*
D03*
X400492D02*
D03*
X374508Y180315D02*
D03*
X357579D02*
D03*
D88*
X581496Y60039D02*
D03*
X562992D02*
D03*
X544488D02*
D03*
D89*
X572025Y463386D02*
D03*
X579921Y500787D02*
D03*
X495669Y553543D02*
D03*
X478740Y541732D02*
D03*
X538189Y538583D02*
D03*
X521260Y531890D02*
D03*
X531496Y416535D02*
D03*
X530709Y427165D02*
D03*
Y435433D02*
D03*
X316142Y186221D02*
D03*
X381890Y294882D02*
D03*
X497244Y246260D02*
D03*
X501968Y248425D02*
D03*
X492520Y242913D02*
D03*
X512077Y284508D02*
D03*
X409154Y443307D02*
D03*
X407480Y450787D02*
D03*
X419291Y429134D02*
D03*
X405905Y457087D02*
D03*
X419153Y210630D02*
D03*
X503937Y398031D02*
D03*
X324016Y158501D02*
D03*
X316142Y175984D02*
D03*
X324016Y186614D02*
D03*
X327165Y237008D02*
D03*
X330315Y453937D02*
D03*
X333465Y445276D02*
D03*
X491339Y437402D02*
D03*
X635335Y515354D02*
D03*
X610138Y384390D02*
D03*
X632283Y372047D02*
D03*
X624409Y365748D02*
D03*
X616929Y373622D02*
D03*
X677953Y414961D02*
D03*
X691339Y401575D02*
D03*
X684646Y385039D02*
D03*
X601181Y469685D02*
D03*
X611811Y259449D02*
D03*
X672047Y257874D02*
D03*
X689370Y267323D02*
D03*
X662303Y301969D02*
D03*
X609685Y420472D02*
D03*
X640551Y320079D02*
D03*
X476378Y618898D02*
D03*
X622441Y340158D02*
D03*
X577559Y357874D02*
D03*
X514173Y239370D02*
D03*
X478740Y246850D02*
D03*
X383268Y288583D02*
D03*
X671260Y352756D02*
D03*
X685039Y362598D02*
D03*
X432283Y372047D02*
D03*
X433070Y362598D02*
D03*
X488091Y368012D02*
D03*
X388976Y374016D02*
D03*
X339763Y266535D02*
D03*
X336643Y250787D02*
D03*
X366535Y577165D02*
D03*
Y581791D02*
D03*
X351378Y584252D02*
D03*
X346850Y587499D02*
D03*
X324016Y59842D02*
D03*
X624409Y94095D02*
D03*
X635039Y104724D02*
D03*
X578740Y124016D02*
D03*
X582283Y110236D02*
D03*
X496850Y61811D02*
D03*
X332677Y142913D02*
D03*
X405118Y54724D02*
D03*
X455413Y105512D02*
D03*
X509449Y103937D02*
D03*
X567717Y115354D02*
D03*
X587402Y114567D02*
D03*
X375197Y512598D02*
D03*
X346063Y431890D02*
D03*
X355512Y441339D02*
D03*
X344488Y540551D02*
D03*
X403937Y565748D02*
D03*
X404331Y330512D02*
D03*
X593504Y458661D02*
D03*
X655118D02*
D03*
X596457Y308268D02*
D03*
X594095Y296457D02*
D03*
Y281102D02*
D03*
X403543Y510236D02*
D03*
X392126Y534646D02*
D03*
X495276Y502756D02*
D03*
X496457Y479921D02*
D03*
X677165Y434646D02*
D03*
X672441Y402362D02*
D03*
X672835Y361811D02*
D03*
X668504Y286221D02*
D03*
X324016Y469291D02*
D03*
X494488Y509449D02*
D03*
X484252Y513779D02*
D03*
X471654Y393701D02*
D03*
X582677Y600591D02*
D03*
Y557300D02*
D03*
X524803Y562732D02*
D03*
X493701Y627651D02*
D03*
X519291Y628721D02*
D03*
X572025Y173622D02*
D03*
X561811Y183836D02*
D03*
X374705Y342903D02*
D03*
X352362Y313779D02*
D03*
X374705Y361024D02*
D03*
X538878Y484917D02*
D03*
X538583Y498425D02*
D03*
X425934Y514567D02*
D03*
X364745Y568504D02*
D03*
X498032Y335546D02*
D03*
X380315Y268898D02*
D03*
X376181Y278740D02*
D03*
X391732Y288583D02*
D03*
X389764Y258661D02*
D03*
X494095Y367815D02*
D03*
X608661Y357480D02*
D03*
Y343307D02*
D03*
X484252Y478346D02*
D03*
X451968Y494882D02*
D03*
X429528Y304331D02*
D03*
X595276Y318504D02*
D03*
X597638Y328740D02*
D03*
X531496Y330709D02*
D03*
X488091Y400689D02*
D03*
X401968Y243307D02*
D03*
X442126Y341732D02*
D03*
X357087Y307087D02*
D03*
X490551Y547244D02*
D03*
X436279Y592461D02*
D03*
X600000Y637795D02*
D03*
X544488Y540551D02*
D03*
X549390Y384252D02*
D03*
X537795D02*
D03*
X527165Y384646D02*
D03*
X513779Y385039D02*
D03*
X548819Y394882D02*
D03*
X538189Y395276D02*
D03*
X487795Y240158D02*
D03*
X544390Y239606D02*
D03*
X534390Y240158D02*
D03*
X524409Y239764D02*
D03*
X595669Y440158D02*
D03*
X605118Y214567D02*
D03*
X580315Y199803D02*
D03*
X572185Y407618D02*
D03*
X471260Y442520D02*
D03*
X579134Y345276D02*
D03*
X394094Y553543D02*
D03*
X372441Y291339D02*
D03*
X352756Y278346D02*
D03*
X606693Y222047D02*
D03*
X416142Y455905D02*
D03*
X544232Y212205D02*
D03*
X376181Y205512D02*
D03*
X327165Y462598D02*
D03*
X614173Y212205D02*
D03*
X534232Y216929D02*
D03*
X640158Y498032D02*
D03*
X476772Y517717D02*
D03*
X413779Y243307D02*
D03*
X464567Y409547D02*
D03*
X456693D02*
D03*
X444488Y592520D02*
D03*
X485433Y535138D02*
D03*
X410236Y301181D02*
D03*
X350394Y579528D02*
D03*
X490551Y334252D02*
D03*
X485532Y335433D02*
D03*
X513386Y409842D02*
D03*
X516929Y404724D02*
D03*
X510236Y416142D02*
D03*
X428346Y368898D02*
D03*
Y362205D02*
D03*
X385433Y408661D02*
D03*
X393110D02*
D03*
X392126Y378740D02*
D03*
X378229Y395669D02*
D03*
X392126D02*
D03*
X453937Y341929D02*
D03*
X452362Y322047D02*
D03*
X458661Y328740D02*
D03*
X453346Y347835D02*
D03*
X448032Y323622D02*
D03*
X438583Y246457D02*
D03*
X478346Y259842D02*
D03*
X438583Y260630D02*
D03*
Y253543D02*
D03*
X534390Y544882D02*
D03*
X466929Y562598D02*
D03*
X534252Y577165D02*
D03*
X560236Y605905D02*
D03*
X521457Y600591D02*
D03*
X515748Y566142D02*
D03*
X505512Y562205D02*
D03*
X461476Y618898D02*
D03*
X460630Y598032D02*
D03*
X455630Y598307D02*
D03*
X531102Y642913D02*
D03*
X359055Y511024D02*
D03*
X384252Y509449D02*
D03*
X392520Y519685D02*
D03*
X410630Y519291D02*
D03*
X436339Y330512D02*
D03*
X578346Y444882D02*
D03*
X579134Y427165D02*
D03*
X547638Y284843D02*
D03*
X534390Y284508D02*
D03*
X517323Y284646D02*
D03*
X575591Y342126D02*
D03*
X581890Y353937D02*
D03*
X589764Y350787D02*
D03*
X596063Y367717D02*
D03*
X597244Y350394D02*
D03*
X602756Y340945D02*
D03*
X379528Y556693D02*
D03*
D114*
X425197Y257283D02*
D03*
X433071Y253543D02*
D03*
Y261024D02*
D03*
D115*
X389272Y422047D02*
D03*
X385531Y414173D02*
D03*
X393012D02*
D03*
D116*
X320768Y584331D02*
D03*
Y586890D02*
D03*
Y592008D02*
D03*
Y589449D02*
D03*
Y581772D02*
D03*
D117*
X310236Y591614D02*
D03*
Y582165D02*
D03*
D118*
X319882Y599488D02*
D03*
Y574291D02*
D03*
M02*
