%TF.GenerationSoftware,Altium Limited,Altium Designer,18.1.7 (191)*%
G04 Layer_Color=32896*
%FSLAX26Y26*%
%MOIN*%
%TF.FileFunction,Legend,Bot*%
%TF.Part,Single*%
G01*
G75*
%TA.AperFunction,NonConductor*%
%ADD73C,0.023622*%
%ADD74C,0.009842*%
%ADD75C,0.003937*%
%ADD76C,0.007874*%
%ADD77C,0.005906*%
%ADD78C,0.010000*%
D73*
X8432677Y4047087D02*
G03*
X8432677Y4047087I-11811J0D01*
G01*
X9089409Y3710512D02*
G03*
X9089409Y3710512I-11811J0D01*
G01*
X10654409Y3715512D02*
G03*
X10654409Y3715512I-11811J0D01*
G01*
X10660866Y5206378D02*
G03*
X10660866Y5206378I-11811J0D01*
G01*
X10337126Y4671616D02*
G03*
X10337126Y4671616I-11811J0D01*
G01*
D74*
X8462953Y3959488D02*
G03*
X8462953Y3959488I-4921J0D01*
G01*
X9129370Y3620945D02*
G03*
X9129370Y3620945I-4921J0D01*
G01*
X10694370Y3625945D02*
G03*
X10694370Y3625945I-4921J0D01*
G01*
X10703386Y5122717D02*
G03*
X10703386Y5122717I-4921J0D01*
G01*
X10903662Y5294803D02*
G03*
X10903662Y5294803I-4921J0D01*
G01*
X10299724Y4753309D02*
G03*
X10299724Y4753309I-4921J0D01*
G01*
D75*
X7971441Y4048819D02*
G03*
X7971441Y4048819I-1968J0D01*
G01*
D76*
X8046850Y4007717D02*
Y4196693D01*
X8460236Y4007717D02*
Y4196693D01*
X8046850D02*
X8460236D01*
X8046850Y4007717D02*
X8460236D01*
X7863189Y3942520D02*
X7875000D01*
X7705709D02*
X7780512D01*
X7705709Y4257480D02*
X7780512D01*
X7705709Y3942520D02*
Y4257480D01*
X7863189D02*
X7875000D01*
X8613031Y3671142D02*
Y3938858D01*
X9116969Y3671142D02*
Y3938858D01*
X8613031D02*
X9116969D01*
X8613031Y3671142D02*
X9116969D01*
X10178031Y3676142D02*
Y3943858D01*
X10681969Y3676142D02*
Y3943858D01*
X10178031D02*
X10681969D01*
X10178031Y3676142D02*
X10681969D01*
X10491575Y5167008D02*
Y5292992D01*
X10688425Y5167008D02*
Y5292992D01*
X10491575D02*
X10688425D01*
X10491575Y5167008D02*
X10688425D01*
X10833780Y5162520D02*
Y5188504D01*
Y5162520D02*
X10865866D01*
X10833780Y5251496D02*
Y5277480D01*
X10865866D01*
X10285945Y4710986D02*
X10654055D01*
X10285945Y4342876D02*
X10654055D01*
X10285945D02*
Y4710986D01*
X10654055Y4342876D02*
Y4710986D01*
D77*
X8180000Y4362441D02*
Y4417559D01*
X8235118Y4405748D02*
Y4417559D01*
X8124882D02*
X8235118D01*
X8124882Y4405748D02*
Y4417559D01*
Y4362441D02*
Y4374252D01*
Y4362441D02*
X8235118D01*
Y4374252D01*
X8239606Y3820000D02*
X8294724D01*
X8282913Y3764882D02*
X8294724D01*
Y3875118D01*
X8282913D02*
X8294724D01*
X8239606D02*
X8251417D01*
X8239606Y3764882D02*
Y3875118D01*
Y3764882D02*
X8251417D01*
X8372165Y3813622D02*
Y3868740D01*
X8427283Y3856929D02*
Y3868740D01*
X8317047D02*
X8427283D01*
X8317047Y3856929D02*
Y3868740D01*
Y3813622D02*
Y3825433D01*
Y3813622D02*
X8427283D01*
Y3825433D01*
X10432441Y4135000D02*
X10487559D01*
X10475748Y4079882D02*
X10487559D01*
Y4190118D01*
X10475748D02*
X10487559D01*
X10432441D02*
X10444252D01*
X10432441Y4079882D02*
Y4190118D01*
Y4079882D02*
X10444252D01*
X10632441Y5490000D02*
X10687559D01*
X10632441Y5540000D02*
X10640000D01*
X10632441Y5440000D02*
Y5540000D01*
Y5440000D02*
X10640000D01*
X10680000D02*
X10687559D01*
Y5540000D01*
X10680000D02*
X10687559D01*
X10537441Y5490000D02*
X10592559D01*
X10585000Y5440000D02*
X10592559D01*
Y5540000D01*
X10585000D02*
X10592559D01*
X10537441D02*
X10545000D01*
X10537441Y5440000D02*
Y5540000D01*
Y5440000D02*
X10545000D01*
X10397441Y5030000D02*
X10452559D01*
X10445000Y4980000D02*
X10452559D01*
Y5080000D01*
X10445000D02*
X10452559D01*
X10397441D02*
X10405000D01*
X10397441Y4980000D02*
Y5080000D01*
Y4980000D02*
X10405000D01*
X10415000Y5307441D02*
Y5362559D01*
X10359882Y5307441D02*
Y5319252D01*
Y5307441D02*
X10470118D01*
Y5319252D01*
Y5350748D02*
Y5362559D01*
X10359882D02*
X10470118D01*
X10359882Y5350748D02*
Y5362559D01*
X10590000Y4977441D02*
Y5032559D01*
X10645118Y5020748D02*
Y5032559D01*
X10534882D02*
X10645118D01*
X10534882Y5020748D02*
Y5032559D01*
Y4977441D02*
Y4989252D01*
Y4977441D02*
X10645118D01*
Y4989252D01*
X10989567Y3875551D02*
X11060433D01*
X11052559Y3808622D02*
X11060433D01*
Y3942480D01*
X11052559D02*
X11060433D01*
X10989567Y3808622D02*
X10997441D01*
X10989567D02*
Y3942480D01*
X10997441D01*
X10809567Y4030551D02*
X10880433D01*
X10872559Y3963622D02*
X10880433D01*
Y4097480D01*
X10872559D02*
X10880433D01*
X10809567Y3963622D02*
X10817441D01*
X10809567D02*
Y4097480D01*
X10817441D01*
X11645000Y4699567D02*
Y4770433D01*
X11711929Y4762559D02*
Y4770433D01*
X11578071D02*
X11711929D01*
X11578071Y4762559D02*
Y4770433D01*
X11711929Y4699567D02*
Y4707441D01*
X11578071Y4699567D02*
X11711929D01*
X11578071D02*
Y4707441D01*
X11584567Y4865000D02*
X11655433D01*
X11647559Y4798071D02*
X11655433D01*
Y4931929D01*
X11647559D02*
X11655433D01*
X11584567Y4798071D02*
X11592441D01*
X11584567D02*
Y4931929D01*
X11592441D01*
X11249567Y4360000D02*
X11320433D01*
X11249567Y4426929D02*
X11257441D01*
X11249567Y4293071D02*
Y4426929D01*
Y4293071D02*
X11257441D01*
X11312559Y4426929D02*
X11320433D01*
Y4293071D02*
Y4426929D01*
X11312559Y4293071D02*
X11320433D01*
X11249567Y4642953D02*
X11320433D01*
X11249567Y4709882D02*
X11257441D01*
X11249567Y4576024D02*
Y4709882D01*
Y4576024D02*
X11257441D01*
X11312559Y4709882D02*
X11320433D01*
Y4576024D02*
Y4709882D01*
X11312559Y4576024D02*
X11320433D01*
X10994567Y4815000D02*
X11065433D01*
X11057559Y4748071D02*
X11065433D01*
Y4881929D01*
X11057559D02*
X11065433D01*
X10994567Y4748071D02*
X11002441D01*
X10994567D02*
Y4881929D01*
X11002441D01*
X11000000Y4174567D02*
Y4245433D01*
X10933071Y4174567D02*
Y4182441D01*
Y4174567D02*
X11066929D01*
Y4182441D01*
X10933071Y4237559D02*
Y4245433D01*
X11066929D01*
Y4237559D02*
Y4245433D01*
X11529567Y4360000D02*
X11600433D01*
X11592559Y4293071D02*
X11600433D01*
Y4426929D01*
X11592559D02*
X11600433D01*
X11529567Y4293071D02*
X11537441D01*
X11529567D02*
Y4426929D01*
X11537441D01*
X10980118Y4065000D02*
X11050984D01*
X10980118Y4131929D02*
X10987992D01*
X10980118Y3998071D02*
Y4131929D01*
Y3998071D02*
X10987992D01*
X11043110Y4131929D02*
X11050984D01*
Y3998071D02*
Y4131929D01*
X11043110Y3998071D02*
X11050984D01*
X10995000Y3464961D02*
Y3535827D01*
X10928071Y3464961D02*
Y3472835D01*
Y3464961D02*
X11061929D01*
Y3472835D01*
X10928071Y3527953D02*
Y3535827D01*
X11061929D01*
Y3527953D02*
Y3535827D01*
X11359567Y4360000D02*
X11430433D01*
X11422559Y4293071D02*
X11430433D01*
Y4426929D01*
X11422559D02*
X11430433D01*
X11359567Y4293071D02*
X11367441D01*
X11359567D02*
Y4426929D01*
X11367441D01*
X11594567Y3830000D02*
X11665433D01*
X11594567Y3896929D02*
X11602441D01*
X11594567Y3763071D02*
Y3896929D01*
Y3763071D02*
X11602441D01*
X11657559Y3896929D02*
X11665433D01*
Y3763071D02*
Y3896929D01*
X11657559Y3763071D02*
X11665433D01*
D78*
X10779981Y3690000D02*
X10729997D01*
X10720000Y3699997D01*
Y3719990D01*
X10729997Y3729987D01*
X10779981D01*
X10720000Y3749981D02*
Y3769974D01*
Y3759977D01*
X10779981D01*
X10769984Y3749981D01*
Y3799964D02*
X10779981Y3809961D01*
Y3829955D01*
X10769984Y3839952D01*
X10759987D01*
X10749990Y3829955D01*
Y3819958D01*
Y3829955D01*
X10739994Y3839952D01*
X10729997D01*
X10720000Y3829955D01*
Y3809961D01*
X10729997Y3799964D01*
X10784981Y5100000D02*
X10734997D01*
X10725000Y5109997D01*
Y5129990D01*
X10734997Y5139987D01*
X10784981D01*
X10725000Y5159981D02*
Y5179974D01*
Y5169977D01*
X10784981D01*
X10774984Y5159981D01*
X10715003Y5209964D02*
Y5249952D01*
X10725000Y5269945D02*
X10784981D01*
X10764987Y5289939D01*
X10784981Y5309932D01*
X10725000D01*
X10774984Y5369913D02*
X10784981Y5359916D01*
Y5339922D01*
X10774984Y5329926D01*
X10734997D01*
X10725000Y5339922D01*
Y5359916D01*
X10734997Y5369913D01*
X9124000Y4122926D02*
Y4072942D01*
X9114003Y4062945D01*
X9094010D01*
X9084013Y4072942D01*
Y4122926D01*
X9064019Y4062945D02*
X9044026D01*
X9054023D01*
Y4122926D01*
X9064019Y4112929D01*
X9014036Y4062945D02*
X8994042D01*
X9004039D01*
Y4122926D01*
X9014036Y4112929D01*
X11685000Y3765000D02*
X11744981D01*
Y3794990D01*
X11734984Y3804987D01*
X11714990D01*
X11704994Y3794990D01*
Y3765000D01*
Y3784994D02*
X11685000Y3804987D01*
Y3864968D02*
Y3824981D01*
X11724987Y3864968D01*
X11734984D01*
X11744981Y3854971D01*
Y3834977D01*
X11734984Y3824981D01*
X11685000Y3914952D02*
X11744981D01*
X11714990Y3884961D01*
Y3924948D01*
X11070551Y4000000D02*
X11130532D01*
Y4029990D01*
X11120535Y4039987D01*
X11100541D01*
X11090545Y4029990D01*
Y4000000D01*
Y4019994D02*
X11070551Y4039987D01*
Y4099968D02*
Y4059981D01*
X11110538Y4099968D01*
X11120535D01*
X11130532Y4089971D01*
Y4069977D01*
X11120535Y4059981D01*
Y4119961D02*
X11130532Y4129958D01*
Y4149952D01*
X11120535Y4159948D01*
X11110538D01*
X11100541Y4149952D01*
Y4139955D01*
Y4149952D01*
X11090545Y4159948D01*
X11080548D01*
X11070551Y4149952D01*
Y4129958D01*
X11080548Y4119961D01*
X11450000Y4295000D02*
X11509981D01*
Y4324990D01*
X11499984Y4334987D01*
X11479990D01*
X11469994Y4324990D01*
Y4295000D01*
Y4314993D02*
X11450000Y4334987D01*
Y4394968D02*
Y4354981D01*
X11489987Y4394968D01*
X11499984D01*
X11509981Y4384971D01*
Y4364977D01*
X11499984Y4354981D01*
X11450000Y4454948D02*
Y4414961D01*
X11489987Y4454948D01*
X11499984D01*
X11509981Y4444952D01*
Y4424958D01*
X11499984Y4414961D01*
X10970000Y3940551D02*
X10910019D01*
Y3910561D01*
X10920016Y3900564D01*
X10940010D01*
X10950006Y3910561D01*
Y3940551D01*
Y3920558D02*
X10970000Y3900564D01*
Y3840584D02*
Y3880571D01*
X10930013Y3840584D01*
X10920016D01*
X10910019Y3850580D01*
Y3870574D01*
X10920016Y3880571D01*
X10970000Y3820590D02*
Y3800597D01*
Y3810593D01*
X10910019D01*
X10920016Y3820590D01*
X11620000Y4295000D02*
X11679981D01*
Y4324990D01*
X11669984Y4334987D01*
X11649990D01*
X11639994Y4324990D01*
Y4295000D01*
Y4314993D02*
X11620000Y4334987D01*
Y4394968D02*
Y4354981D01*
X11659987Y4394968D01*
X11669984D01*
X11679981Y4384971D01*
Y4364977D01*
X11669984Y4354981D01*
Y4414961D02*
X11679981Y4424958D01*
Y4444952D01*
X11669984Y4454948D01*
X11629997D01*
X11620000Y4444952D01*
Y4424958D01*
X11629997Y4414961D01*
X11669984D01*
X10790000Y4095551D02*
X10730019D01*
Y4065561D01*
X10740016Y4055564D01*
X10760010D01*
X10770006Y4065561D01*
Y4095551D01*
Y4075558D02*
X10790000Y4055564D01*
Y4035571D02*
Y4015577D01*
Y4025574D01*
X10730019D01*
X10740016Y4035571D01*
X10780003Y3985587D02*
X10790000Y3975590D01*
Y3955597D01*
X10780003Y3945600D01*
X10740016D01*
X10730019Y3955597D01*
Y3975590D01*
X10740016Y3985587D01*
X10750013D01*
X10760010Y3975590D01*
Y3945600D01*
X11054551Y3568394D02*
Y3628374D01*
X11024561D01*
X11014564Y3618378D01*
Y3598384D01*
X11024561Y3588387D01*
X11054551D01*
X11034558D02*
X11014564Y3568394D01*
X10994571D02*
X10974577D01*
X10984574D01*
Y3628374D01*
X10994571Y3618378D01*
X10944587D02*
X10934590Y3628374D01*
X10914596D01*
X10904600Y3618378D01*
Y3608381D01*
X10914596Y3598384D01*
X10904600Y3588387D01*
Y3578390D01*
X10914596Y3568394D01*
X10934590D01*
X10944587Y3578390D01*
Y3588387D01*
X10934590Y3598384D01*
X10944587Y3608381D01*
Y3618378D01*
X10934590Y3598384D02*
X10914596D01*
X11230000Y4707953D02*
X11170019D01*
Y4677962D01*
X11180016Y4667966D01*
X11200010D01*
X11210006Y4677962D01*
Y4707953D01*
Y4687959D02*
X11230000Y4667966D01*
Y4647972D02*
Y4627979D01*
Y4637975D01*
X11170019D01*
X11180016Y4647972D01*
X11170019Y4597988D02*
Y4558001D01*
X11180016D01*
X11220003Y4597988D01*
X11230000D01*
Y4425000D02*
X11170019D01*
Y4395010D01*
X11180016Y4385013D01*
X11200010D01*
X11210006Y4395010D01*
Y4425000D01*
Y4405007D02*
X11230000Y4385013D01*
Y4365019D02*
Y4345026D01*
Y4355023D01*
X11170019D01*
X11180016Y4365019D01*
X11170019Y4275048D02*
X11180016Y4295042D01*
X11200010Y4315036D01*
X11220003D01*
X11230000Y4305039D01*
Y4285045D01*
X11220003Y4275048D01*
X11210006D01*
X11200010Y4285045D01*
Y4315036D01*
X11579449Y4678583D02*
Y4618602D01*
X11609439D01*
X11619436Y4628599D01*
Y4648592D01*
X11609439Y4658589D01*
X11579449D01*
X11599442D02*
X11619436Y4678583D01*
X11639429D02*
X11659423D01*
X11649426D01*
Y4618602D01*
X11639429Y4628599D01*
X11729400Y4618602D02*
X11689413D01*
Y4648592D01*
X11709407Y4638596D01*
X11719404D01*
X11729400Y4648592D01*
Y4668586D01*
X11719404Y4678583D01*
X11699410D01*
X11689413Y4668586D01*
X10975000Y4880000D02*
X10915019D01*
Y4850010D01*
X10925016Y4840013D01*
X10945010D01*
X10955006Y4850010D01*
Y4880000D01*
Y4860007D02*
X10975000Y4840013D01*
Y4820019D02*
Y4800026D01*
Y4810023D01*
X10915019D01*
X10925016Y4820019D01*
X10975000Y4740045D02*
X10915019D01*
X10945010Y4770036D01*
Y4730048D01*
X11059551Y4278000D02*
Y4337981D01*
X11029561D01*
X11019564Y4327984D01*
Y4307990D01*
X11029561Y4297993D01*
X11059551D01*
X11039558D02*
X11019564Y4278000D01*
X10999571D02*
X10979577D01*
X10989574D01*
Y4337981D01*
X10999571Y4327984D01*
X10949587D02*
X10939590Y4337981D01*
X10919596D01*
X10909600Y4327984D01*
Y4317987D01*
X10919596Y4307990D01*
X10929593D01*
X10919596D01*
X10909600Y4297993D01*
Y4287997D01*
X10919596Y4278000D01*
X10939590D01*
X10949587Y4287997D01*
X11675000Y4800000D02*
X11734981D01*
Y4829990D01*
X11724984Y4839987D01*
X11704990D01*
X11694994Y4829990D01*
Y4800000D01*
Y4819993D02*
X11675000Y4839987D01*
Y4859981D02*
Y4879974D01*
Y4869977D01*
X11734981D01*
X11724984Y4859981D01*
X11675000Y4949952D02*
Y4909964D01*
X11714987Y4949952D01*
X11724984D01*
X11734981Y4939955D01*
Y4919961D01*
X11724984Y4909964D01*
X10635000Y5560000D02*
X10694981D01*
Y5589990D01*
X10684984Y5599987D01*
X10664990D01*
X10654994Y5589990D01*
Y5560000D01*
Y5579993D02*
X10635000Y5599987D01*
X10684984Y5619981D02*
X10694981Y5629977D01*
Y5649971D01*
X10684984Y5659968D01*
X10674987D01*
X10664990Y5649971D01*
Y5639974D01*
Y5649971D01*
X10654994Y5659968D01*
X10644997D01*
X10635000Y5649971D01*
Y5629977D01*
X10644997Y5619981D01*
X10625003Y5679961D02*
Y5719948D01*
X10635000Y5739942D02*
X10694981D01*
X10674987Y5759935D01*
X10694981Y5779929D01*
X10635000D01*
X10684984Y5839909D02*
X10694981Y5829913D01*
Y5809919D01*
X10684984Y5799922D01*
X10644997D01*
X10635000Y5809919D01*
Y5829913D01*
X10644997Y5839909D01*
X10540000Y5560000D02*
X10599981D01*
Y5589990D01*
X10589984Y5599987D01*
X10569990D01*
X10559994Y5589990D01*
Y5560000D01*
Y5579993D02*
X10540000Y5599987D01*
Y5659968D02*
Y5619981D01*
X10579987Y5659968D01*
X10589984D01*
X10599981Y5649971D01*
Y5629977D01*
X10589984Y5619981D01*
X10530003Y5679961D02*
Y5719948D01*
X10540000Y5739942D02*
X10599981D01*
X10579987Y5759935D01*
X10599981Y5779929D01*
X10540000D01*
X10589984Y5839909D02*
X10599981Y5829913D01*
Y5809919D01*
X10589984Y5799922D01*
X10549997D01*
X10540000Y5809919D01*
Y5829913D01*
X10549997Y5839909D01*
X10375000Y5075197D02*
X10315019D01*
Y5045207D01*
X10325016Y5035210D01*
X10345010D01*
X10355006Y5045207D01*
Y5075197D01*
Y5055203D02*
X10375000Y5035210D01*
Y5015216D02*
Y4995223D01*
Y5005220D01*
X10315019D01*
X10325016Y5015216D01*
X10384997Y4965233D02*
Y4925245D01*
X10375000Y4905252D02*
X10315019D01*
X10335013Y4885258D01*
X10315019Y4865265D01*
X10375000D01*
X10325016Y4805284D02*
X10315019Y4815281D01*
Y4835275D01*
X10325016Y4845271D01*
X10365003D01*
X10375000Y4835275D01*
Y4815281D01*
X10365003Y4805284D01*
X10195000Y4716931D02*
X10135019D01*
X10155013Y4696938D01*
X10135019Y4676944D01*
X10195000D01*
X10145016Y4616963D02*
X10135019Y4626960D01*
Y4646954D01*
X10145016Y4656950D01*
X10185003D01*
X10195000Y4646954D01*
Y4626960D01*
X10185003Y4616963D01*
X10135019Y4596970D02*
X10185003D01*
X10195000Y4586973D01*
Y4566980D01*
X10185003Y4556983D01*
X10135019D01*
X7902153Y3851200D02*
X7882159D01*
X7892156D01*
Y3901184D01*
X7882159Y3911181D01*
X7872162D01*
X7862165Y3901184D01*
X7922146Y3911181D02*
X7942140D01*
X7932143D01*
Y3851200D01*
X7922146Y3861197D01*
X8549981Y4014987D02*
Y3975000D01*
X8519990D01*
Y3994994D01*
Y3975000D01*
X8490000D01*
X8549981Y4034981D02*
Y4074968D01*
Y4054974D01*
X8490000D01*
X8549981Y4094961D02*
X8490000D01*
Y4124952D01*
X8499997Y4134948D01*
X8539984D01*
X8549981Y4124952D01*
Y4094961D01*
Y4154942D02*
Y4174935D01*
Y4164939D01*
X8490000D01*
Y4154942D01*
Y4174935D01*
X11004823Y5165000D02*
X10944843D01*
Y5194990D01*
X10954839Y5204987D01*
X10994826D01*
X11004823Y5194990D01*
Y5165000D01*
X10944843Y5224981D02*
Y5244974D01*
Y5234977D01*
X11004823D01*
X10994826Y5224981D01*
X10934846Y5274964D02*
Y5314952D01*
X10944843Y5334945D02*
X11004823D01*
X10984830Y5354939D01*
X11004823Y5374932D01*
X10944843D01*
X10994826Y5434913D02*
X11004823Y5424916D01*
Y5404922D01*
X10994826Y5394926D01*
X10954839D01*
X10944843Y5404922D01*
Y5424916D01*
X10954839Y5434913D01*
X8195013Y4489984D02*
X8205010Y4499981D01*
X8225003D01*
X8235000Y4489984D01*
Y4449997D01*
X8225003Y4440000D01*
X8205010D01*
X8195013Y4449997D01*
X8175019Y4440000D02*
X8155026D01*
X8165023D01*
Y4499981D01*
X8175019Y4489984D01*
X8125036Y4440000D02*
X8105042D01*
X8115039D01*
Y4499981D01*
X8125036Y4489984D01*
X8167615Y3835013D02*
X8157618Y3845010D01*
Y3865003D01*
X8167615Y3875000D01*
X8207602D01*
X8217598Y3865003D01*
Y3845010D01*
X8207602Y3835013D01*
X8217598Y3815019D02*
Y3795026D01*
Y3805023D01*
X8157618D01*
X8167615Y3815019D01*
Y3765036D02*
X8157618Y3755039D01*
Y3735045D01*
X8167615Y3725048D01*
X8207602D01*
X8217598Y3735045D01*
Y3755039D01*
X8207602Y3765036D01*
X8167615D01*
X8357152Y3745016D02*
X8347156Y3735019D01*
X8327162D01*
X8317165Y3745016D01*
Y3785003D01*
X8327162Y3795000D01*
X8347156D01*
X8357152Y3785003D01*
X8377146D02*
X8387143Y3795000D01*
X8407136D01*
X8417133Y3785003D01*
Y3745016D01*
X8407136Y3735019D01*
X8387143D01*
X8377146Y3745016D01*
Y3755013D01*
X8387143Y3765010D01*
X8417133D01*
X10517724Y4150013D02*
X10507728Y4160010D01*
Y4180003D01*
X10517724Y4190000D01*
X10557711D01*
X10567708Y4180003D01*
Y4160010D01*
X10557711Y4150013D01*
X10507728Y4090032D02*
X10517724Y4110026D01*
X10537718Y4130019D01*
X10557711D01*
X10567708Y4120023D01*
Y4100029D01*
X10557711Y4090032D01*
X10547715D01*
X10537718Y4100029D01*
Y4130019D01*
X10425013Y5434984D02*
X10435010Y5444981D01*
X10455003D01*
X10465000Y5434984D01*
Y5394997D01*
X10455003Y5385000D01*
X10435010D01*
X10425013Y5394997D01*
X10365032Y5385000D02*
X10405019D01*
X10365032Y5424987D01*
Y5434984D01*
X10375029Y5444981D01*
X10395023D01*
X10405019Y5434984D01*
X10345039Y5375003D02*
X10305052D01*
X10285058Y5385000D02*
Y5444981D01*
X10265065Y5424987D01*
X10245071Y5444981D01*
Y5385000D01*
X10185091Y5434984D02*
X10195087Y5444981D01*
X10215081D01*
X10225078Y5434984D01*
Y5394997D01*
X10215081Y5385000D01*
X10195087D01*
X10185091Y5394997D01*
X10584987Y4900016D02*
X10574990Y4890019D01*
X10554997D01*
X10545000Y4900016D01*
Y4940003D01*
X10554997Y4950000D01*
X10574990D01*
X10584987Y4940003D01*
X10604981Y4950000D02*
X10624974D01*
X10614977D01*
Y4890019D01*
X10604981Y4900016D01*
X10654964Y4959997D02*
X10694951D01*
X10714945Y4950000D02*
Y4890019D01*
X10734939Y4910013D01*
X10754932Y4890019D01*
Y4950000D01*
X10814913Y4900016D02*
X10804916Y4890019D01*
X10784922D01*
X10774926Y4900016D01*
Y4940003D01*
X10784922Y4950000D01*
X10804916D01*
X10814913Y4940003D01*
%TF.MD5,c2772b71637789e87af8b8618052cfdf*%
M02*
