G04*
G04 #@! TF.GenerationSoftware,Altium Limited,Altium Designer,18.1.9 (240)*
G04*
G04 Layer_Color=255*
%FSLAX25Y25*%
%MOIN*%
G70*
G01*
G75*
%ADD19R,0.05118X0.05709*%
%ADD20R,0.04528X0.05315*%
%ADD23R,0.05315X0.04528*%
%ADD26R,0.06890X0.02559*%
%ADD29R,0.03740X0.03347*%
%ADD30R,0.03937X0.03543*%
%ADD31R,0.03543X0.03937*%
%ADD41R,0.03543X0.01181*%
%ADD45R,0.05315X0.05709*%
%ADD48R,0.02559X0.06890*%
%ADD98C,0.19685*%
%ADD99C,0.10000*%
%ADD100C,0.05512*%
%ADD101C,0.12992*%
%ADD102C,0.08661*%
%ADD103C,0.09055*%
%ADD104C,0.09843*%
%ADD105C,0.07874*%
%ADD106O,0.07087X0.12795*%
%ADD108R,0.03543X0.03150*%
%ADD109R,0.03150X0.03543*%
%ADD110R,0.05315X0.01575*%
%ADD111R,0.07480X0.07480*%
%ADD112R,0.05512X0.06299*%
D19*
X310236Y600374D02*
D03*
Y573406D02*
D03*
D20*
X672342Y273622D02*
D03*
X665453D02*
D03*
X604035Y291339D02*
D03*
X610925D02*
D03*
Y274410D02*
D03*
X604035D02*
D03*
X596752Y248031D02*
D03*
X589862D02*
D03*
X610925Y325984D02*
D03*
X604035D02*
D03*
X610925Y308661D02*
D03*
X604035D02*
D03*
X667815Y387402D02*
D03*
X674705D02*
D03*
D23*
X346063Y282579D02*
D03*
Y275689D02*
D03*
X370669Y270473D02*
D03*
Y263583D02*
D03*
X383071Y282579D02*
D03*
Y275689D02*
D03*
X616142Y357382D02*
D03*
Y350492D02*
D03*
X633228Y363287D02*
D03*
Y356398D02*
D03*
X634646Y332776D02*
D03*
Y339665D02*
D03*
X610236Y374705D02*
D03*
Y367815D02*
D03*
D26*
X561319Y448878D02*
D03*
Y443878D02*
D03*
Y438878D02*
D03*
Y433878D02*
D03*
Y428878D02*
D03*
Y423878D02*
D03*
Y418878D02*
D03*
Y413878D02*
D03*
Y408878D02*
D03*
Y403878D02*
D03*
X524508Y448878D02*
D03*
Y443878D02*
D03*
Y438878D02*
D03*
Y433878D02*
D03*
Y428878D02*
D03*
Y423878D02*
D03*
Y418878D02*
D03*
Y413878D02*
D03*
Y408878D02*
D03*
Y403878D02*
D03*
D29*
X442126Y335630D02*
D03*
Y330512D02*
D03*
D30*
X483465Y340256D02*
D03*
Y345571D02*
D03*
X492028Y339921D02*
D03*
Y345236D02*
D03*
X378051Y409547D02*
D03*
Y414862D02*
D03*
X394882Y325315D02*
D03*
Y330630D02*
D03*
X372441Y576476D02*
D03*
Y581791D02*
D03*
X373228Y556496D02*
D03*
Y551181D02*
D03*
D31*
X488287Y362205D02*
D03*
X493602D02*
D03*
X356988Y292913D02*
D03*
X351673D02*
D03*
X433071Y246063D02*
D03*
X427756D02*
D03*
X361457Y611417D02*
D03*
X356142D02*
D03*
X529921Y457874D02*
D03*
X524606D02*
D03*
X356201Y464961D02*
D03*
X361516D02*
D03*
X562697Y232776D02*
D03*
X568012D02*
D03*
D41*
X358465Y278543D02*
D03*
Y280512D02*
D03*
Y282480D02*
D03*
Y284449D02*
D03*
X370669Y278543D02*
D03*
Y280512D02*
D03*
Y282480D02*
D03*
Y284449D02*
D03*
D45*
X364567Y167717D02*
D03*
X376181D02*
D03*
X407677Y168110D02*
D03*
X419291D02*
D03*
X493307Y167717D02*
D03*
X504921D02*
D03*
X535433Y167717D02*
D03*
X547047D02*
D03*
X450394Y168110D02*
D03*
X462008D02*
D03*
D48*
X416004Y465059D02*
D03*
X411004D02*
D03*
X406004D02*
D03*
X401004D02*
D03*
X396004D02*
D03*
X391004D02*
D03*
X386004D02*
D03*
X381004D02*
D03*
X376004D02*
D03*
X371004D02*
D03*
X416004Y501870D02*
D03*
X411004D02*
D03*
X406004D02*
D03*
X401004D02*
D03*
X396004D02*
D03*
X391004D02*
D03*
X386004D02*
D03*
X381004D02*
D03*
X376004D02*
D03*
X371004D02*
D03*
X554390Y232776D02*
D03*
X549390D02*
D03*
X544390D02*
D03*
X539390D02*
D03*
X534390D02*
D03*
X529390D02*
D03*
X524390D02*
D03*
X519390D02*
D03*
X514390D02*
D03*
X509390D02*
D03*
X554390Y269587D02*
D03*
X549390D02*
D03*
X544390D02*
D03*
X539390D02*
D03*
X534390D02*
D03*
X529390D02*
D03*
X524390D02*
D03*
X519390D02*
D03*
X514390D02*
D03*
X509390D02*
D03*
D98*
X316929Y37402D02*
D03*
X685039D02*
D03*
Y696850D02*
D03*
X316929D02*
D03*
D99*
X611102Y686614D02*
D03*
X633465D02*
D03*
X622283Y668720D02*
D03*
X633228Y575020D02*
D03*
X610866D02*
D03*
X622047Y592913D02*
D03*
D100*
X490709Y639370D02*
D03*
X480709D02*
D03*
X470709D02*
D03*
X512992Y626614D02*
D03*
Y636614D02*
D03*
Y646614D02*
D03*
X560630Y666299D02*
D03*
Y656299D02*
D03*
Y646299D02*
D03*
X376043Y190157D02*
D03*
X366043D02*
D03*
X356043D02*
D03*
X419153Y190551D02*
D03*
X409154D02*
D03*
X399153D02*
D03*
X461476D02*
D03*
X451476D02*
D03*
X441476D02*
D03*
X503996Y190157D02*
D03*
X493996D02*
D03*
X483996D02*
D03*
X546516Y189370D02*
D03*
X536516D02*
D03*
X526516D02*
D03*
D101*
X681890Y195472D02*
D03*
Y347047D02*
D03*
Y475000D02*
D03*
D102*
X624803Y446457D02*
D03*
Y434646D02*
D03*
Y422835D02*
D03*
Y411024D02*
D03*
Y399213D02*
D03*
Y387402D02*
D03*
Y375590D02*
D03*
X634646Y440551D02*
D03*
Y428740D02*
D03*
Y416929D02*
D03*
Y405118D02*
D03*
Y393307D02*
D03*
Y381496D02*
D03*
X646457Y440551D02*
D03*
Y428740D02*
D03*
Y416929D02*
D03*
Y405118D02*
D03*
Y393307D02*
D03*
Y381496D02*
D03*
X656299Y446457D02*
D03*
Y434646D02*
D03*
Y422835D02*
D03*
Y411024D02*
D03*
Y399213D02*
D03*
Y387402D02*
D03*
Y375590D02*
D03*
Y224016D02*
D03*
Y235827D02*
D03*
Y247638D02*
D03*
Y259449D02*
D03*
Y271260D02*
D03*
Y283071D02*
D03*
Y294882D02*
D03*
Y306693D02*
D03*
Y318504D02*
D03*
X646457Y229921D02*
D03*
Y241732D02*
D03*
Y253543D02*
D03*
Y265354D02*
D03*
Y277165D02*
D03*
Y288976D02*
D03*
Y300787D02*
D03*
Y312598D02*
D03*
X634646Y229921D02*
D03*
Y241732D02*
D03*
Y253543D02*
D03*
Y265354D02*
D03*
Y277165D02*
D03*
Y288976D02*
D03*
Y300787D02*
D03*
Y312598D02*
D03*
X624803Y224016D02*
D03*
Y235827D02*
D03*
Y247638D02*
D03*
Y259449D02*
D03*
Y271260D02*
D03*
Y283071D02*
D03*
Y294882D02*
D03*
Y306693D02*
D03*
Y318504D02*
D03*
D103*
X361500Y89567D02*
D03*
Y60039D02*
D03*
X440240D02*
D03*
X420555D02*
D03*
X440240Y89567D02*
D03*
X420555D02*
D03*
X459925Y60039D02*
D03*
Y89567D02*
D03*
D104*
X528051Y121260D02*
D03*
X525492Y158661D02*
D03*
X540453Y144882D02*
D03*
X485532Y121260D02*
D03*
X482972Y158661D02*
D03*
X497933Y144882D02*
D03*
X443012Y121653D02*
D03*
X440453Y159055D02*
D03*
X455413Y145276D02*
D03*
X400492Y121653D02*
D03*
X397933Y159055D02*
D03*
X412894Y145276D02*
D03*
X357579Y121260D02*
D03*
X355020Y158661D02*
D03*
X369980Y144882D02*
D03*
D105*
X544980Y180315D02*
D03*
X528051D02*
D03*
X502461D02*
D03*
X485532D02*
D03*
X459941Y180709D02*
D03*
X443012D02*
D03*
X417421D02*
D03*
X400492D02*
D03*
X374508Y180315D02*
D03*
X357579D02*
D03*
D106*
X581496Y60039D02*
D03*
X562992D02*
D03*
X544488D02*
D03*
D108*
X425197Y257283D02*
D03*
X433071Y253543D02*
D03*
Y261024D02*
D03*
D109*
X389272Y422047D02*
D03*
X385531Y414173D02*
D03*
X393012D02*
D03*
D110*
X320768Y584331D02*
D03*
Y586890D02*
D03*
Y592008D02*
D03*
Y589449D02*
D03*
Y581772D02*
D03*
D111*
X310236Y591614D02*
D03*
Y582165D02*
D03*
D112*
X319882Y599488D02*
D03*
Y574291D02*
D03*
M02*
