M48
;Layer_Color=9474304
;FILE_FORMAT=2:5
INCH,LZ
;TYPE=PLATED
T1F00S00C0.01500
T2F00S00C0.03150
T3F00S00C0.04331
T5F00S00C0.04882
T6F00S00C0.05118
T7F00S00C0.05118
T8F00S00C0.05512
T9F00S00C0.07000
T10F00S00C0.12992
T11F00S00C0.12992
;TYPE=NON_PLATED
T12F00S00C0.03937
%
T01
X0324016Y0059842
X0405118Y0054724
X0455413Y0105512
X0332677Y0142913
X0509449Y0103937
X049685Y0061811
X0567717Y0115354
X0582283Y0110236
X0587402Y0114567
X057874Y0124016
X0624409Y0094095
X0635039Y0104724
X0672047Y0257874
X068937Y0267323
X0668504Y0286221
X0662303Y0301969
X0596457Y0308268
X0594095Y0296457
Y0281102
X0611811Y0259449
X0606693Y0222047
X0605118Y0214567
X0614173Y0212205
X0580315Y0199803
X0572025Y0173622
X0561811Y0183836
X0544232Y0212205
X0534232Y0216929
X053439Y0240158
X0524409Y0239764
X0514173Y023937
X0501968Y0248425
X0497244Y024626
X049252Y0242913
X0487795Y0240158
X047874Y024685
X0478346Y0259842
X0512077Y0284508
X0517323Y0284646
X053439Y0284508
X0547638Y0284843
X054439Y0239606
X0438583Y0246457
Y0253543
Y026063
X0413779Y0243307
X0401968
X0389764Y0258661
X0380315Y0268898
X0376181Y027874
X0372441Y0291339
X038189Y0294882
X0383268Y0288583
X0391732
X0410236Y0301181
X0429528Y0304331
X0357087Y0307087
X0352756Y0278346
X0339763Y0266535
X0336643Y0250787
X0327165Y0237008
X0324016Y0186614
X0316142Y0186221
Y0175984
X0324016Y0158501
X0376181Y0205512
X0419153Y021063
X0404331Y0330512
X0436339
X0442126Y0341732
X0453937Y0341929
X0453346Y0347835
X0458661Y032874
X0452362Y0322047
X0448032Y0323622
X043307Y0362598
X0428346Y0362205
Y0368898
X0432283Y0372047
X0388976Y0374016
X0392126Y037874
Y0395669
X0378229
X0385433Y0408661
X039311
X0419291Y0429134
X0409154Y0443307
X040748Y0450787
X0405905Y0457087
X0416142Y0455905
X0355512Y0441339
X0346063Y043189
X0333465Y0445276
X0330315Y0453937
X0327165Y0462598
X0374705Y0361024
Y0342903
X0352362Y0313779
X0456693Y0409547
X0464567
X0471654Y0393701
X0488091Y0400689
X0503937Y0398031
X0516929Y0404724
X0513386Y0409842
X0510236Y0416142
X0531496Y0416535
X0530709Y0427165
Y0435433
X0491339Y0437402
X047126Y044252
X0488091Y0368012
X0494095Y0367815
X0498032Y0335546
X0490551Y0334252
X0485532Y0335433
X0531496Y0330709
X0575591Y0342126
X0579134Y0345276
X058189Y0353937
X0577559Y0357874
X0589764Y0350787
X0597244Y0350394
X0602756Y0340945
X0608661Y0343307
Y035748
X0596063Y0367717
X0616929Y0373622
X0624409Y0365748
X0622441Y0340158
X0597638Y032874
X0595276Y0318504
X0610138Y038439
X0609685Y0420472
X0595669Y0440158
X0593504Y0458661
X0572025Y0463386
X0578346Y0444882
X0579134Y0427165
X0572185Y0407618
X0548819Y0394882
X0538189Y0395276
X0537795Y0384252
X0527165Y0384646
X0513779Y0385039
X054939Y0384252
X0632283Y0372047
X0672835Y0361811
X067126Y0352756
X0685039Y0362598
X0684646Y0385039
X0691339Y0401575
X0672441Y0402362
X0677953Y0414961
X0677165Y0434646
X0655118Y0458661
X0640551Y0320079
X0640158Y0498032
X0635335Y0515354
X0579921Y0500787
X0538583Y0498425
X0538878Y0484917
X0496457Y0479921
X0484252Y0478346
X0495276Y0502756
X0494488Y0509449
X0484252Y0513779
X0476772Y0517717
X047874Y0541732
X0485433Y0535138
X0490551Y0547244
X0495669Y0553543
X0505512Y0562205
X0515748Y0566142
X0524803Y0562732
X0534252Y0577165
X053439Y0544882
X0538189Y0538583
X0544488Y0540551
X052126Y053189
X0521457Y0600591
X0560236Y0605905
X0582677Y0600591
Y05573
X0601181Y0469685
X0476378Y0618898
X0461476
X046063Y0598032
X045563Y0598307
X0444488Y059252
X0436279Y0592461
X0403937Y0565748
X0394094Y0553543
X0379528Y0556693
X0364745Y0568504
X0366535Y0577165
Y0581791
X0351378Y0584252
X0350394Y0579528
X034685Y0587499
X0344488Y0540551
X0359055Y0511024
X0375197Y0512598
X0384252Y0509449
X039252Y0519685
X0392126Y0534646
X041063Y0519291
X0403543Y0510236
X0425934Y0514567
X0451968Y0494882
X0466929Y0562598
X0324016Y0469291
X0493701Y0627651
X0519291Y0628721
X0531102Y0642913
X06Y0637795
T02
X0483996Y0190157
X0493996
X0503996
X0526516Y018937
X0536516
X0546516
X0461476Y0190551
X0451476
X0441476
X0419153
X0409154
X0399153
X0376043Y0190157
X0366043
X0356043
X0470709Y063937
X0480709
X0490709
X0512992Y0636614
Y0626614
Y0646614
X056063Y0646299
Y0656299
Y0666299
T03
X0485532Y0180315
X0502461
X0528051
X054498
X0459941Y0180709
X0443012
X0417421
X0400492
X0374508Y0180315
X0357579
T05
X0605512Y0099213
X065748Y0363779
T06
X03615Y0060039
Y0089567
X0420555
X044024
X0459925
Y0060039
X044024
X0420555
T07
X0634646Y0229921
X0646457
Y0241732
X0634646
Y0253543
X0646457
Y0265354
Y0277165
X0634646
Y0265354
Y0288976
X0646457
Y0300787
X0634646
X0656299Y0294882
Y0283071
Y027126
Y0259449
Y0247638
Y0235827
Y0224016
Y0306693
X0624803
Y0294882
Y0283071
Y027126
Y0259449
Y0247638
Y0235827
Y0224016
Y0318504
Y037559
Y0387402
Y0399213
Y0411024
Y0422835
Y0434646
Y0446457
X0634646Y0440551
X0646457
Y042874
X0634646
Y0416929
Y0405118
X0646457
Y0416929
X0656299Y0422835
Y0411024
Y0399213
Y0387402
Y037559
X0646457Y0381496
X0634646
Y0393307
X0646457
X0656299Y0434646
Y0446457
Y0318504
X0646457Y0312598
X0634646
T08
X0357579Y012126
X036998Y0144882
X0412894Y0145276
X0400492Y0121653
X0443012
X0455413Y0145276
X0497933Y0144882
X0485532Y012126
X0528051
X0540453Y0144882
X0525492Y0158661
X0482972
X0440453Y0159055
X0397933
X035502Y0158661
T09
X0633228Y057502
X0610866
X0622047Y0592913
X0622283Y066872
X0611102Y0686614
X0633465
T10
X068189Y0195472
Y0347047
Y0475
T11
X0316929Y0037402
X0685039
X0316929Y069685
X0685039
T12
X0420079Y0312972
Y0327972
M30
