G04*
G04 #@! TF.GenerationSoftware,Altium Limited,Altium Designer,18.1.9 (240)*
G04*
G04 Layer_Color=65535*
%FSLAX25Y25*%
%MOIN*%
G70*
G01*
G75*
%ADD10C,0.00394*%
%ADD11C,0.00984*%
%ADD12C,0.02362*%
%ADD13C,0.01968*%
%ADD14C,0.00591*%
%ADD15C,0.01000*%
%ADD16C,0.00787*%
%ADD17C,0.03150*%
G36*
X404475Y677784D02*
X406109D01*
X407392Y677667D01*
X410658D01*
X412641Y677551D01*
X414857Y677551D01*
X417307Y677434D01*
X419873D01*
X422673Y677317D01*
X425589D01*
X431538Y677084D01*
X437721Y676967D01*
X444020Y676851D01*
X449969Y676618D01*
X452885D01*
X455685Y676501D01*
X458251D01*
X460701Y676384D01*
X462917D01*
X464900Y676268D01*
X468166D01*
X469450Y676151D01*
X463850D01*
X462334Y676034D01*
X339851Y676034D01*
X337752Y676151D01*
X331336D01*
X331453Y676268D01*
X331686Y676384D01*
X332153Y676501D01*
X332736Y676851D01*
X333552Y677201D01*
X334602Y677784D01*
X337868Y679300D01*
X404475Y677784D01*
D02*
G37*
G36*
X333319Y679417D02*
X334019Y679300D01*
X334252D01*
X334136Y679184D01*
X333902Y679067D01*
X333319Y678834D01*
X333202Y678717D01*
X332619Y678484D01*
X331919Y678134D01*
X330986Y677784D01*
X327486Y676034D01*
X323987D01*
X323870Y676151D01*
X323754D01*
X323987Y676268D01*
X324220Y676384D01*
X324570Y676501D01*
X325270Y676851D01*
X326087Y677201D01*
X327253Y677784D01*
X330636Y679534D01*
X332736D01*
X333319Y679417D01*
D02*
G37*
G36*
X325853Y679534D02*
X327020D01*
X326787Y679417D01*
X326553Y679300D01*
X326203Y679067D01*
X325620Y678834D01*
X324804Y678367D01*
X323637Y677784D01*
X319904Y676034D01*
X316405D01*
X316288Y676151D01*
X316172D01*
X316405Y676268D01*
X316638Y676384D01*
X317105Y676618D01*
X317688Y676851D01*
X318621Y677317D01*
X319788Y677901D01*
X323637Y679650D01*
X325270D01*
X325853Y679534D01*
D02*
G37*
G36*
X470849Y673235D02*
X470733Y673001D01*
Y672885D01*
X470616Y672768D01*
Y672185D01*
Y672068D01*
X470499Y671835D01*
Y671252D01*
X470383Y669502D01*
X466417D01*
Y669385D01*
Y669152D01*
Y668919D01*
Y668569D01*
X466300Y668102D01*
Y667519D01*
X465950Y665653D01*
X461984D01*
X462217Y665769D01*
Y665886D01*
Y666236D01*
X462334Y666702D01*
Y667169D01*
X462451Y668452D01*
Y668919D01*
Y669385D01*
X462217D01*
X461984Y669502D01*
X458718D01*
Y669735D01*
X458834Y669969D01*
Y670319D01*
X458951Y670785D01*
X459068Y671485D01*
X459184Y673468D01*
X463151D01*
Y673235D01*
X463034Y673001D01*
Y672651D01*
Y672185D01*
X462917Y671602D01*
Y671485D01*
Y671252D01*
X462801Y670668D01*
X462684Y669969D01*
Y669735D01*
Y669619D01*
X462917Y669502D01*
X466417D01*
Y669735D01*
X466533Y670202D01*
X466650Y670902D01*
X466767Y671602D01*
X466883Y673468D01*
X470849D01*
Y673235D01*
D02*
G37*
G36*
X455335Y673118D02*
X455218Y672885D01*
Y672535D01*
Y672068D01*
X455102Y671485D01*
Y671368D01*
Y671135D01*
X454985Y670435D01*
X454868Y669852D01*
Y669619D01*
Y669502D01*
X458718D01*
Y669152D01*
X458601Y668919D01*
Y668569D01*
Y668102D01*
X458485Y667519D01*
Y667402D01*
Y667169D01*
X458368Y666586D01*
X458251Y665886D01*
Y665769D01*
Y665653D01*
X454285D01*
X454402Y665769D01*
Y666002D01*
Y666236D01*
X454518Y666586D01*
Y667052D01*
X454635Y667635D01*
X454752Y669502D01*
X452885Y669385D01*
X451019D01*
X450786Y667519D01*
Y667402D01*
Y667169D01*
X450669Y666586D01*
X450552Y665886D01*
Y665769D01*
Y665653D01*
X447053D01*
X446819Y665769D01*
X446703D01*
Y666002D01*
Y666236D01*
X446819Y666586D01*
Y667052D01*
X446936Y667635D01*
Y667752D01*
Y667869D01*
X447053Y668569D01*
X447169Y669152D01*
Y669385D01*
Y669502D01*
X443320D01*
Y669735D01*
Y669969D01*
Y670202D01*
X443437Y670552D01*
Y671018D01*
X443553Y671602D01*
X443787Y673468D01*
X447636D01*
Y673351D01*
Y673235D01*
X447519Y672885D01*
Y672418D01*
X447403Y671835D01*
X447286Y670552D01*
X447169Y669969D01*
Y669502D01*
X450669D01*
X450902Y669619D01*
X451019D01*
Y669852D01*
Y670202D01*
X451135Y670552D01*
Y671018D01*
X451252Y671602D01*
Y671718D01*
Y671835D01*
X451369Y672535D01*
X451485Y673118D01*
Y673351D01*
Y673468D01*
X455335D01*
Y673118D01*
D02*
G37*
G36*
X439937Y673235D02*
X439820Y673001D01*
Y672651D01*
Y672185D01*
X439704Y671602D01*
Y671485D01*
Y671252D01*
X439587Y670668D01*
X439470Y669969D01*
Y669735D01*
Y669619D01*
X439704Y669502D01*
X443320D01*
Y669385D01*
Y669152D01*
X443203Y668919D01*
Y668569D01*
Y668102D01*
X443087Y667519D01*
X442737Y665653D01*
X439004D01*
Y665769D01*
Y665886D01*
X439121Y666236D01*
Y666819D01*
X439237Y667402D01*
X439354Y668102D01*
Y668685D01*
X439470Y669152D01*
Y669385D01*
X439237D01*
X439004Y669502D01*
X435504D01*
Y669385D01*
Y669269D01*
X435388Y668919D01*
Y668452D01*
X435271Y667869D01*
X435154Y666586D01*
X435038Y666119D01*
Y665653D01*
X431305D01*
Y665769D01*
Y665886D01*
X431422Y666236D01*
Y666586D01*
X431538Y667169D01*
X431655Y668335D01*
X431772Y668919D01*
Y669385D01*
X431538D01*
X431305Y669502D01*
X427806D01*
Y669619D01*
Y669852D01*
X427922Y670435D01*
X428039Y670902D01*
X428156Y671485D01*
Y671602D01*
Y671718D01*
Y672301D01*
X428272Y672885D01*
Y673351D01*
Y673468D01*
X432238D01*
Y673118D01*
X432122Y672885D01*
Y672535D01*
Y672068D01*
X432005Y671485D01*
Y671368D01*
Y671135D01*
X431888Y670435D01*
X431772Y669852D01*
Y669619D01*
Y669502D01*
X435504D01*
Y669619D01*
Y669852D01*
X435621Y670085D01*
Y670435D01*
X435738Y671018D01*
X435854Y671602D01*
X435971Y673468D01*
X439937D01*
Y673235D01*
D02*
G37*
G36*
X416840Y673351D02*
Y673118D01*
X416724Y672885D01*
Y672535D01*
Y672068D01*
X416607Y671485D01*
Y671368D01*
Y671252D01*
X416491Y670552D01*
X416374Y669852D01*
Y669619D01*
Y669502D01*
X412524Y669502D01*
X412408Y669385D01*
Y669269D01*
Y669035D01*
Y668452D01*
X412291Y667519D01*
Y667402D01*
Y667285D01*
X412174Y666586D01*
X412058Y666002D01*
Y665769D01*
Y665653D01*
X408092D01*
Y665886D01*
X408208Y666119D01*
Y666469D01*
X408325Y666936D01*
X408442Y667519D01*
Y667635D01*
Y667752D01*
X408558Y668452D01*
X408675Y669152D01*
Y669385D01*
Y669502D01*
X404825D01*
X404709Y669385D01*
Y669152D01*
X404592Y668919D01*
Y668569D01*
Y668102D01*
X404475Y667519D01*
X404242Y665653D01*
X400393D01*
Y665769D01*
Y666002D01*
Y666119D01*
X400509Y666702D01*
Y666819D01*
Y666936D01*
X400626Y667635D01*
X400859Y669502D01*
X404709D01*
Y669735D01*
Y669969D01*
X404825Y670319D01*
Y670785D01*
X404942Y671485D01*
Y671602D01*
Y671718D01*
X405059Y672418D01*
X405175Y673118D01*
Y673351D01*
Y673468D01*
X409141D01*
Y673351D01*
Y673118D01*
X409025Y672885D01*
Y672535D01*
Y672068D01*
X408908Y671485D01*
Y671368D01*
Y671252D01*
X408792Y670552D01*
X408675Y669852D01*
Y669619D01*
Y669502D01*
X412408D01*
X412758Y671485D01*
Y671602D01*
Y671718D01*
Y672418D01*
X412874Y673118D01*
Y673351D01*
Y673468D01*
X416840Y673468D01*
Y673351D01*
D02*
G37*
G36*
X427806Y669152D02*
X427689Y668919D01*
Y668569D01*
Y668102D01*
X427572Y667519D01*
Y667402D01*
Y667169D01*
X427456Y666586D01*
X427339Y665886D01*
Y665769D01*
Y665653D01*
X423606D01*
Y665769D01*
Y666002D01*
Y666236D01*
Y666469D01*
X423723Y666936D01*
Y667519D01*
Y667635D01*
Y667752D01*
X423839Y668452D01*
X423956Y669035D01*
Y669269D01*
X424073Y669385D01*
Y669502D01*
X427806D01*
Y669152D01*
D02*
G37*
G36*
X424539Y673351D02*
Y673118D01*
Y672885D01*
X424423Y672535D01*
Y672068D01*
X424306Y671485D01*
X424189Y670668D01*
X424073Y669735D01*
Y669502D01*
X420107D01*
X419990Y667635D01*
Y667519D01*
Y667286D01*
X419873Y666702D01*
X419757Y666002D01*
X419640Y665886D01*
Y665769D01*
Y665653D01*
X415907D01*
Y665886D01*
Y666119D01*
Y666469D01*
X416024Y667052D01*
X416141Y667635D01*
X416257Y668452D01*
X416374Y669385D01*
Y669502D01*
X420107D01*
X420457Y671485D01*
Y671602D01*
Y671718D01*
Y672418D01*
X420573Y673001D01*
Y673235D01*
Y673351D01*
Y673468D01*
X424539D01*
Y673351D01*
D02*
G37*
G36*
X399460Y673351D02*
Y673235D01*
Y673001D01*
Y672535D01*
X399343Y671835D01*
X399226Y670785D01*
X399110Y669502D01*
X398876Y667752D01*
X398526Y665769D01*
Y665653D01*
X320021D01*
X318738Y665769D01*
X314888D01*
Y665886D01*
Y666119D01*
Y666702D01*
X315005Y667402D01*
X315122Y668452D01*
X315238Y669735D01*
X315472Y671368D01*
X315822Y673351D01*
Y673468D01*
X399460D01*
Y673351D01*
D02*
G37*
G36*
X383362Y664019D02*
X383129Y663436D01*
X382895Y662969D01*
X382545Y662503D01*
X382195Y661686D01*
X381612Y660870D01*
X381029Y659820D01*
X380329Y658537D01*
X379512Y657020D01*
X378463Y655271D01*
X377296Y653288D01*
X376013Y650955D01*
X375896Y650605D01*
X371114D01*
X369714Y656437D01*
X369597Y656670D01*
X369480Y657254D01*
X369131Y658303D01*
X368897Y659470D01*
Y659587D01*
X368781Y659703D01*
X368664Y660403D01*
X368431Y661220D01*
X368197Y662036D01*
Y662153D01*
X368081Y662503D01*
X367964Y662853D01*
Y663086D01*
X367731Y664253D01*
X372747D01*
X373213Y662503D01*
Y662386D01*
X373330Y662270D01*
X373447Y661570D01*
X373563Y660986D01*
X373680Y660870D01*
Y660753D01*
Y660637D01*
X379163D01*
X380096Y662503D01*
X381262Y664253D01*
X383478D01*
X383362Y664019D01*
D02*
G37*
G36*
X398410D02*
Y663903D01*
Y663669D01*
X398293Y663203D01*
X398176Y662386D01*
X398060Y661220D01*
X397943Y660520D01*
X397827Y659587D01*
X397710Y658653D01*
X397593Y657487D01*
Y657370D01*
Y657254D01*
X397477Y656437D01*
X397360Y655387D01*
X397127Y654221D01*
X397010Y652938D01*
X396893Y651888D01*
X396777Y651188D01*
X396660Y650955D01*
Y650838D01*
Y650605D01*
X391294Y650838D01*
X385462D01*
X385345Y650955D01*
X384995Y651071D01*
X384645Y651421D01*
X384412Y651771D01*
Y651888D01*
X384295Y652121D01*
Y652354D01*
Y652821D01*
Y653288D01*
Y653987D01*
X384412Y654921D01*
Y655037D01*
Y655271D01*
X384528Y656087D01*
Y656904D01*
X384645Y657254D01*
Y657487D01*
X384762Y657604D01*
X384995Y657837D01*
X385578Y658187D01*
X386278Y658420D01*
X386628D01*
Y658537D01*
X386511Y658770D01*
X386395Y659120D01*
X386278Y659703D01*
X386045Y660403D01*
X385695Y661336D01*
Y661453D01*
X385578Y661803D01*
X385345Y662270D01*
X385112Y662736D01*
X384995Y663319D01*
X384762Y663786D01*
X384645Y664136D01*
Y664253D01*
X389894D01*
X390011Y663903D01*
Y663786D01*
X390128Y663553D01*
Y663436D01*
X390244Y663203D01*
X390361Y662853D01*
X390477Y662386D01*
Y662270D01*
X390594Y661920D01*
X390711Y661453D01*
Y661103D01*
X391411Y658420D01*
X392811D01*
X392927Y658537D01*
Y658653D01*
Y658887D01*
Y659237D01*
X393044Y659703D01*
Y660403D01*
X393161Y661336D01*
Y661453D01*
X393277Y661803D01*
X393394Y662270D01*
X393510Y662736D01*
Y662853D01*
Y663086D01*
X393627Y663903D01*
Y664019D01*
Y664136D01*
Y664253D01*
X398410D01*
Y664019D01*
D02*
G37*
G36*
X344167D02*
Y663903D01*
Y663669D01*
X344051Y663203D01*
Y662386D01*
X343817Y661220D01*
Y660520D01*
X343701Y659587D01*
X343584Y658653D01*
X343468Y657487D01*
Y657370D01*
Y657254D01*
X343351Y656904D01*
Y656437D01*
X343234Y655387D01*
X343001Y654104D01*
X342884Y652938D01*
X342768Y651888D01*
Y651421D01*
X342651Y651071D01*
Y650955D01*
Y650838D01*
X342534Y650605D01*
X336352D01*
X336002Y651654D01*
Y651771D01*
X335885Y652121D01*
X335769Y652588D01*
Y652704D01*
X335535Y653054D01*
X335419Y653754D01*
X335069Y654571D01*
X334952Y654804D01*
X334836Y655387D01*
X334486Y656087D01*
X334252Y656904D01*
X334136Y657137D01*
X334019Y657720D01*
X333669Y658420D01*
X333436Y659237D01*
X333319Y659353D01*
X333202Y659820D01*
X333086Y660403D01*
X332969Y660986D01*
Y661103D01*
X332852Y661220D01*
X332736Y661453D01*
X332619Y661570D01*
Y661453D01*
X332503Y661336D01*
Y660870D01*
X332386Y660287D01*
X332269Y659353D01*
X332153Y657954D01*
X332036Y657137D01*
X331919Y656204D01*
Y656087D01*
Y655970D01*
X331803Y655387D01*
X331686Y654454D01*
X331569Y653521D01*
Y652471D01*
X331453Y651654D01*
X331336Y650955D01*
Y650838D01*
Y650721D01*
X331219Y650605D01*
X329703D01*
X329353Y650721D01*
X329236Y650838D01*
Y650955D01*
Y651188D01*
X329353Y651771D01*
Y651888D01*
Y652354D01*
X329470Y653171D01*
X329586Y654221D01*
Y654337D01*
Y654454D01*
X329703Y655271D01*
X329819Y656320D01*
X330053Y657487D01*
X330869Y664019D01*
X336935D01*
X338802Y658537D01*
Y658420D01*
X338918Y658303D01*
X339152Y657720D01*
X339502Y656787D01*
X339851Y655854D01*
Y655737D01*
X339968Y655621D01*
X340085Y655154D01*
X340318Y654454D01*
X340551Y653871D01*
Y653754D01*
X340668Y653404D01*
X340785Y653171D01*
Y653404D01*
X340901Y653871D01*
Y654454D01*
X341018Y655504D01*
X341135Y656787D01*
X341251Y657604D01*
X341368Y658537D01*
Y658770D01*
X341484Y659353D01*
X341601Y660170D01*
X341718Y661220D01*
X341834Y662153D01*
X341951Y663086D01*
X342068Y663669D01*
X342184Y663903D01*
Y664019D01*
Y664253D01*
X344167D01*
Y664019D01*
D02*
G37*
G36*
X469566Y664019D02*
Y663903D01*
Y663553D01*
X469450Y663086D01*
X469333Y662270D01*
X469216Y661103D01*
X469100Y660403D01*
X468983Y659587D01*
X468866Y658537D01*
X468750Y657487D01*
Y657370D01*
Y657254D01*
X468633Y656904D01*
Y656437D01*
X468516Y655387D01*
X468283Y654104D01*
X468166Y652938D01*
X468050Y651888D01*
Y651421D01*
X467933Y651071D01*
Y650955D01*
Y650838D01*
Y650605D01*
X398410Y650605D01*
X398526Y650838D01*
Y650955D01*
Y651188D01*
X398643Y651771D01*
X398760Y652588D01*
X398876Y653754D01*
X398993Y654454D01*
X399110Y655387D01*
X399226Y656437D01*
X399343Y657604D01*
X400160Y664253D01*
X469566Y664253D01*
Y664019D01*
D02*
G37*
G36*
X362948Y664136D02*
X363765D01*
X364465Y664019D01*
X364814Y663903D01*
X364931Y663786D01*
X365281Y663553D01*
X365398Y663436D01*
X365631Y663086D01*
X365864Y662503D01*
X366098Y661686D01*
Y661570D01*
Y661336D01*
X365981Y660986D01*
Y660520D01*
X365864Y659820D01*
X365748Y658770D01*
X365631Y657604D01*
Y657370D01*
X365514Y656904D01*
Y656320D01*
X365398Y655504D01*
X365281Y654687D01*
X365164Y653987D01*
X365048Y653404D01*
Y653054D01*
Y652938D01*
X364931Y652704D01*
X364465Y652004D01*
X363765Y651188D01*
X363181Y650838D01*
X362598Y650605D01*
X354316D01*
Y650838D01*
Y650955D01*
Y651421D01*
Y652004D01*
X354433Y652821D01*
X358982D01*
X359449Y652938D01*
X359799D01*
X359915Y653054D01*
X360032Y653171D01*
X360149Y653288D01*
X360265Y653521D01*
Y653754D01*
X360382Y653987D01*
X360498Y654454D01*
Y655154D01*
X360732Y656204D01*
X360848Y657487D01*
X361432Y661336D01*
X361198Y661570D01*
Y661686D01*
X361082Y661803D01*
X355366D01*
Y662036D01*
Y662153D01*
X355483Y662503D01*
X355599Y663086D01*
X355716Y664253D01*
X362132D01*
X362948Y664136D01*
D02*
G37*
G36*
X352566Y664019D02*
Y663903D01*
X352450Y663553D01*
Y663086D01*
X352333Y662270D01*
X352100Y661103D01*
X351983Y660287D01*
X351866Y659470D01*
X351750Y658420D01*
X351633Y657254D01*
X350816Y650605D01*
X346150D01*
Y650838D01*
Y650955D01*
Y651188D01*
X346267Y651654D01*
X346384Y652471D01*
Y652938D01*
X346500Y653638D01*
X346617Y654454D01*
X346734Y655271D01*
X346850Y656320D01*
X346967Y657487D01*
Y657604D01*
Y657720D01*
X347084Y658537D01*
X347200Y659587D01*
X347317Y660753D01*
X347434Y661920D01*
X347550Y663086D01*
X347667Y663786D01*
Y664019D01*
Y664136D01*
X347900D01*
X348250Y664253D01*
X352566D01*
Y664019D01*
D02*
G37*
G36*
X323520Y664136D02*
X325153D01*
X325503Y664019D01*
X325737Y663903D01*
X326203Y663669D01*
X326670Y663086D01*
X326903Y662736D01*
X327020Y662153D01*
Y662036D01*
Y661803D01*
Y661336D01*
Y660753D01*
Y659937D01*
X326903Y658887D01*
X326787Y657487D01*
Y657370D01*
X326670Y656904D01*
X326553Y656320D01*
X326437Y655621D01*
Y654921D01*
X326320Y654221D01*
X326203Y653754D01*
Y653521D01*
Y653404D01*
X326087Y653288D01*
X325853Y652588D01*
X325387Y651888D01*
X324687Y651188D01*
X324570Y651071D01*
X324337Y650955D01*
X324104Y650838D01*
X323637D01*
X323404Y650721D01*
X322471D01*
X321537Y650605D01*
X313605D01*
Y650838D01*
Y650955D01*
X313722Y651304D01*
X313839Y651888D01*
X313955Y652821D01*
X320954D01*
X321071Y653054D01*
X321304Y653171D01*
X321537Y653521D01*
Y653638D01*
Y653754D01*
Y654104D01*
X321654Y654571D01*
X321771Y655271D01*
X321887Y656204D01*
X322004Y657487D01*
Y657604D01*
X322121Y658070D01*
Y658653D01*
X322237Y659353D01*
X322354Y660053D01*
Y660637D01*
X322471Y661103D01*
Y661336D01*
Y661453D01*
X322354Y661570D01*
X322121Y661803D01*
X322004Y662036D01*
X320371D01*
X319904Y661920D01*
X319671Y661803D01*
X319554D01*
X319438Y661686D01*
X319204Y661336D01*
X319088Y661220D01*
X318971Y660753D01*
X318854Y660287D01*
Y659820D01*
X318738Y659120D01*
Y658420D01*
X321187D01*
Y658187D01*
Y658070D01*
Y657720D01*
X321071Y657137D01*
X320954Y656204D01*
X314188D01*
X313722Y656320D01*
X313605D01*
Y656554D01*
X313722Y656787D01*
Y657254D01*
X313839Y657954D01*
X313955Y658887D01*
X314188Y660170D01*
Y660287D01*
X314305Y660753D01*
Y661336D01*
X314422Y662153D01*
X314538Y662853D01*
Y663436D01*
X314655Y663903D01*
Y664136D01*
X315355D01*
X315938Y664253D01*
X322587D01*
X323520Y664136D01*
D02*
G37*
%LPC*%
G36*
X389778Y671718D02*
X389428D01*
Y671602D01*
Y671485D01*
X389311Y671252D01*
X389194Y671018D01*
X389078Y670668D01*
X388261D01*
Y670785D01*
Y671018D01*
Y671485D01*
Y671718D01*
X387678D01*
Y671602D01*
Y671368D01*
Y671135D01*
Y670785D01*
X387795Y670319D01*
Y669619D01*
Y669502D01*
Y669269D01*
Y668569D01*
Y667752D01*
Y667402D01*
Y667169D01*
Y667052D01*
X388728D01*
Y667285D01*
X388844Y667519D01*
Y667869D01*
X389078Y668569D01*
X389311Y669269D01*
X389544Y670319D01*
X390011Y671602D01*
X389778Y671718D01*
D02*
G37*
G36*
X395027D02*
X394444D01*
X394094Y671602D01*
X393744Y671368D01*
X393510Y670785D01*
Y670668D01*
Y670319D01*
X393744Y669852D01*
X394094Y669269D01*
X394210Y669152D01*
X394327Y669035D01*
X394444Y668685D01*
X394560Y668452D01*
Y668335D01*
Y667985D01*
X394444Y667752D01*
X394094Y667635D01*
X393977D01*
X393860Y667752D01*
Y667985D01*
Y668102D01*
X393161D01*
Y667985D01*
Y667869D01*
Y667635D01*
X393277Y667402D01*
X393510Y667169D01*
X393744Y667052D01*
X394327D01*
X394560Y667169D01*
X394677Y667285D01*
X394910Y667402D01*
X395260Y667869D01*
X395377Y668452D01*
Y668569D01*
X395260Y668802D01*
X395027Y669152D01*
X394560Y669735D01*
X394444Y669969D01*
X394094Y670202D01*
Y670435D01*
Y670785D01*
X394210Y670902D01*
X394327Y671018D01*
X394560Y671135D01*
X394677D01*
X394794Y671018D01*
X394910Y670902D01*
X395027Y670668D01*
Y670552D01*
X395727D01*
Y670785D01*
Y670902D01*
X395610Y671135D01*
X395377Y671485D01*
X395027Y671718D01*
D02*
G37*
G36*
X357932Y671835D02*
X357699D01*
X357349Y671718D01*
X356999Y671485D01*
X356882Y671368D01*
X356766Y671135D01*
X356649Y670785D01*
X356532Y670319D01*
Y670202D01*
X356649Y669969D01*
X356882Y669619D01*
X357232Y669269D01*
X357349Y669152D01*
X357466Y668919D01*
X357582Y668569D01*
X357699Y668335D01*
Y668219D01*
Y667985D01*
X357582Y667752D01*
X357466Y667635D01*
X357232D01*
X357116Y667752D01*
X356999Y668102D01*
X356299D01*
X356182Y667985D01*
Y667869D01*
Y667752D01*
X356299Y667635D01*
X356532Y667402D01*
X356649Y667285D01*
X356882Y667169D01*
X356999Y667052D01*
X357466D01*
X357816Y667169D01*
X358049Y667402D01*
X358166Y667519D01*
X358399Y667869D01*
X358515Y668335D01*
X358399Y668685D01*
X358282Y669035D01*
X358166Y669152D01*
X357699Y669735D01*
X357582Y669852D01*
X357466Y669969D01*
X357349Y670319D01*
X357232Y670552D01*
Y670668D01*
Y670785D01*
X357349Y671018D01*
X357582Y671135D01*
X358049D01*
Y671018D01*
X358282Y670668D01*
Y670552D01*
X358865D01*
Y670668D01*
Y670902D01*
X358749Y671018D01*
Y671252D01*
X358632Y671485D01*
X358166Y671718D01*
X357932Y671835D01*
D02*
G37*
G36*
X332503D02*
X332153D01*
X331803Y671718D01*
X331453Y671485D01*
X331336Y671368D01*
X331219Y671135D01*
X331103Y670785D01*
Y670319D01*
Y670202D01*
X331219Y669969D01*
X331336Y669619D01*
X331686Y669269D01*
X331803Y669152D01*
X331919Y668919D01*
X332153Y668569D01*
X332269Y668335D01*
Y668219D01*
Y667985D01*
X332153Y667752D01*
X331919Y667635D01*
X331686D01*
X331569Y667752D01*
X331453Y668102D01*
X330869D01*
Y667985D01*
Y667869D01*
Y667752D01*
X330986Y667402D01*
X331103Y667285D01*
X331336Y667169D01*
X331453Y667052D01*
X332036D01*
X332269Y667169D01*
X332503Y667402D01*
X332619Y667519D01*
X332852Y667869D01*
X332969Y668335D01*
Y668685D01*
X332852Y669035D01*
X332736Y669152D01*
X332503Y669385D01*
X332269Y669735D01*
X332153Y669852D01*
X332036Y669969D01*
X331919Y670319D01*
X331803Y670552D01*
Y670668D01*
Y670785D01*
X332036Y671018D01*
X332269Y671135D01*
X332619D01*
Y671018D01*
X332736Y670668D01*
Y670552D01*
X333319D01*
Y670668D01*
Y670902D01*
X333202Y671018D01*
Y671252D01*
X333086Y671485D01*
X332736Y671718D01*
X332503Y671835D01*
D02*
G37*
G36*
X383945Y671718D02*
X383245D01*
Y671602D01*
Y671368D01*
Y670902D01*
X383129Y670202D01*
Y670085D01*
Y669969D01*
X383012Y669502D01*
X382895Y669035D01*
Y668919D01*
X382779Y669385D01*
Y669735D01*
X382662Y670202D01*
X382312Y671718D01*
X381495D01*
Y671368D01*
X381379Y671135D01*
Y670668D01*
Y670085D01*
X381262Y669385D01*
Y669269D01*
Y669035D01*
X381146Y668335D01*
X381029Y667635D01*
Y667285D01*
Y667169D01*
Y667052D01*
X381729D01*
Y667169D01*
Y667402D01*
X381845Y667752D01*
Y668102D01*
X381962Y669152D01*
Y670202D01*
X382079Y669969D01*
X382195Y669502D01*
X382312Y669152D01*
Y668569D01*
X382662Y667052D01*
X383362D01*
X383478Y667169D01*
Y667402D01*
Y667635D01*
X383595Y668102D01*
Y668569D01*
X383712Y669269D01*
Y669385D01*
Y669619D01*
X383828Y670319D01*
X383945Y671135D01*
Y671368D01*
Y671602D01*
Y671718D01*
D02*
G37*
G36*
X321187D02*
X320371D01*
X320021Y671485D01*
X319904Y671368D01*
X319788Y671135D01*
X319671Y670552D01*
X319438Y669735D01*
Y669619D01*
Y669502D01*
X319321Y668802D01*
Y668102D01*
Y667869D01*
Y667635D01*
Y667519D01*
X319554Y667402D01*
X319788Y667285D01*
X320021Y667169D01*
X320721D01*
X320954Y667402D01*
X321187Y667635D01*
X321421Y667985D01*
Y668219D01*
Y668685D01*
X321537Y669152D01*
Y669619D01*
Y669852D01*
Y670319D01*
X321654Y670902D01*
Y671018D01*
Y671135D01*
Y671252D01*
X321421Y671485D01*
X321187Y671718D01*
D02*
G37*
G36*
X374613D02*
X372747D01*
Y671485D01*
X372630D01*
X372513Y671368D01*
Y671252D01*
Y671135D01*
Y671018D01*
X373797D01*
Y670902D01*
Y670668D01*
X373680Y670085D01*
X373563Y669619D01*
X373447Y669035D01*
Y668919D01*
Y668802D01*
X373330Y668219D01*
Y667635D01*
Y667169D01*
Y667052D01*
X374030D01*
Y667169D01*
Y667402D01*
X374147Y668102D01*
Y668685D01*
X374263Y669269D01*
Y669385D01*
Y669619D01*
X374380Y670319D01*
X374497Y671135D01*
Y671368D01*
Y671602D01*
X374613Y671718D01*
D02*
G37*
G36*
X368081Y671835D02*
X367847Y671718D01*
X367497Y671602D01*
X367381D01*
X367264Y671485D01*
X367031Y671252D01*
X366914Y671018D01*
Y670902D01*
Y670668D01*
X366798Y670085D01*
X366681Y669619D01*
X366564Y669035D01*
Y668919D01*
Y668685D01*
X366448Y668102D01*
Y667402D01*
Y667285D01*
Y667169D01*
Y667052D01*
X366914D01*
X367031Y667169D01*
Y667402D01*
Y667635D01*
X367147Y667985D01*
Y668452D01*
X367264Y669035D01*
Y669152D01*
Y669269D01*
X367381Y669852D01*
X367497Y670552D01*
Y670668D01*
Y670785D01*
X367614Y670902D01*
X367731Y671018D01*
X367964Y671135D01*
X368081D01*
X368314Y671018D01*
Y670902D01*
Y670785D01*
Y670552D01*
Y670319D01*
Y669969D01*
X368197Y669502D01*
Y668919D01*
Y668802D01*
Y668685D01*
X368081Y667985D01*
X367964Y667402D01*
Y667285D01*
Y667169D01*
Y667052D01*
X368664D01*
Y667169D01*
Y667285D01*
X368781Y667635D01*
Y667985D01*
X368897Y669269D01*
Y670785D01*
Y670902D01*
X368781Y671252D01*
X368664Y671485D01*
X368314Y671718D01*
X368197D01*
X368081Y671835D01*
D02*
G37*
G36*
X363298Y671718D02*
X362598D01*
Y671602D01*
Y671485D01*
Y671252D01*
Y671135D01*
X362481Y670902D01*
Y670552D01*
Y670085D01*
Y669969D01*
X362365Y669619D01*
X362248Y668802D01*
Y668685D01*
X362132Y668335D01*
Y667635D01*
Y667519D01*
X362015Y667402D01*
Y667285D01*
Y667169D01*
Y667052D01*
X362598D01*
Y667402D01*
X362715Y667635D01*
Y668102D01*
X362831Y668685D01*
X362948Y669385D01*
Y669502D01*
Y669735D01*
X363065Y670552D01*
X363181Y671252D01*
X363298Y671602D01*
Y671718D01*
D02*
G37*
G36*
X348250Y671835D02*
X347784Y671602D01*
X347550Y671368D01*
X347317Y671018D01*
Y670902D01*
Y670668D01*
Y670202D01*
X347200Y669385D01*
Y669269D01*
Y669152D01*
X347084Y668685D01*
Y668102D01*
Y667985D01*
Y667869D01*
Y667752D01*
X347200Y667635D01*
X347317Y667285D01*
X347667Y667052D01*
X348134D01*
X348483Y667169D01*
X348833Y667402D01*
X349067Y667869D01*
X349183Y668102D01*
X349300Y668569D01*
X349417Y668919D01*
Y669385D01*
Y669619D01*
Y670085D01*
X349533Y670668D01*
Y671018D01*
Y671135D01*
X349417Y671252D01*
X349183Y671485D01*
X348950Y671718D01*
X348717D01*
X348250Y671835D01*
D02*
G37*
G36*
X343701Y671718D02*
X342301D01*
X342184Y671602D01*
X341951D01*
X341834Y671485D01*
X341601Y671252D01*
Y671135D01*
X341484Y670902D01*
X341251Y670202D01*
Y670085D01*
Y669969D01*
X341368Y669735D01*
Y669619D01*
X341484Y669502D01*
X341601Y669385D01*
X341718D01*
Y669269D01*
X341601D01*
X341368Y669035D01*
X341251Y668919D01*
X341135Y668569D01*
Y668102D01*
X341368Y667402D01*
X341484Y667285D01*
X341718Y667169D01*
X341834Y667052D01*
X343118D01*
X343234Y667169D01*
Y667402D01*
X343351Y667752D01*
Y668102D01*
X343468Y668685D01*
X343584Y669385D01*
Y669502D01*
Y669735D01*
Y670552D01*
X343701Y671252D01*
Y671602D01*
Y671718D01*
D02*
G37*
G36*
X337752D02*
X337169D01*
Y671602D01*
Y671485D01*
X337052Y671252D01*
Y671135D01*
X336935Y670902D01*
Y670552D01*
Y670085D01*
Y669969D01*
X336819Y669619D01*
Y668802D01*
Y668685D01*
X336702Y668335D01*
Y667635D01*
Y667519D01*
Y667402D01*
Y667285D01*
Y667169D01*
X336469Y667052D01*
X337285D01*
Y667402D01*
Y667635D01*
Y668102D01*
X337402Y668685D01*
Y669385D01*
Y669502D01*
Y669735D01*
X337518Y670552D01*
X337635Y671252D01*
X337752Y671602D01*
Y671718D01*
D02*
G37*
G36*
X327486D02*
X326903D01*
Y671602D01*
Y671368D01*
X326787Y670785D01*
Y670085D01*
X326087D01*
X325737Y669969D01*
X325503Y669735D01*
X325387Y669619D01*
X325270Y669385D01*
X325153Y669035D01*
X325037Y668569D01*
Y668452D01*
Y668335D01*
Y667869D01*
Y667752D01*
X325153Y667635D01*
X325270Y667285D01*
X325620Y667052D01*
X327020D01*
X327253Y669269D01*
Y669385D01*
Y669619D01*
X327370Y670435D01*
X327486Y671135D01*
Y671485D01*
Y671602D01*
Y671718D01*
D02*
G37*
%LPD*%
G36*
X388961Y669969D02*
X388844Y669735D01*
X388728Y669152D01*
Y669035D01*
X388611Y668685D01*
X388494Y668335D01*
X388378Y668219D01*
X388261Y668335D01*
Y668685D01*
Y669269D01*
Y670085D01*
X388961D01*
Y669969D01*
D02*
G37*
G36*
X321071Y671018D02*
Y670785D01*
Y670668D01*
Y670435D01*
Y670085D01*
Y669619D01*
X320954Y668685D01*
X320837Y668219D01*
X320721Y667985D01*
X320604Y667869D01*
Y667752D01*
X320487Y667635D01*
X320021D01*
X319904Y667869D01*
Y668102D01*
Y668335D01*
X320021Y668802D01*
X320138Y669502D01*
Y669619D01*
Y669735D01*
X320254Y670319D01*
X320371Y670785D01*
Y671018D01*
X320487Y671135D01*
X320604D01*
X321071Y671018D01*
D02*
G37*
G36*
X348833D02*
Y670902D01*
Y670785D01*
Y670319D01*
Y669502D01*
Y669385D01*
Y669269D01*
X348717Y668802D01*
X348600Y668335D01*
Y668102D01*
X348483Y667985D01*
X348250Y667752D01*
X347900D01*
X347784Y667869D01*
Y667985D01*
Y668102D01*
Y668569D01*
Y668919D01*
X347900Y669385D01*
Y669619D01*
X348017Y670085D01*
Y670552D01*
X348134Y670668D01*
Y670785D01*
Y670902D01*
X348250Y671018D01*
X348483Y671135D01*
X348717D01*
X348833Y671018D01*
D02*
G37*
G36*
X343001Y670902D02*
Y670785D01*
Y670319D01*
Y670202D01*
X342884Y670085D01*
X342768Y669852D01*
Y669735D01*
Y669619D01*
X342651Y669502D01*
X342418D01*
X342184Y669619D01*
X341951Y669852D01*
Y669969D01*
Y670202D01*
Y670552D01*
X342184Y670785D01*
X342418Y670902D01*
X342768Y671018D01*
X343001D01*
Y670902D01*
D02*
G37*
G36*
X342768Y668802D02*
Y668452D01*
X342651Y667869D01*
X342184D01*
X342068Y667985D01*
X341951D01*
X341834Y668102D01*
Y668335D01*
Y668452D01*
Y668569D01*
X341951Y668802D01*
X342184Y668919D01*
X342301D01*
X342534Y669035D01*
X342768D01*
Y668802D01*
D02*
G37*
G36*
X326553Y669152D02*
Y668802D01*
X326437Y667869D01*
X325737D01*
X325620Y667985D01*
Y668219D01*
Y668569D01*
Y668685D01*
X325737Y668919D01*
X325853Y669152D01*
X326203Y669269D01*
X326553D01*
Y669152D01*
D02*
G37*
%LPC*%
G36*
X377763Y658420D02*
X376013D01*
X374263Y658187D01*
X374380Y657954D01*
Y657837D01*
X374497Y657720D01*
X374613Y657020D01*
Y656904D01*
Y656670D01*
X374730Y655970D01*
Y655854D01*
X374846Y655621D01*
X375080Y654804D01*
X375313Y654104D01*
X375430Y653871D01*
Y653754D01*
X375546Y653871D01*
X375663Y654221D01*
X376013Y654921D01*
X376130Y655154D01*
X376363Y655621D01*
X376713Y656320D01*
X377179Y657254D01*
X377296Y657487D01*
X377413Y657837D01*
X377646Y658187D01*
X377763Y658420D01*
D02*
G37*
G36*
X391877Y656204D02*
X390244D01*
X389778Y656087D01*
X389544D01*
X389428Y655970D01*
X389311Y655737D01*
X389078Y655271D01*
Y654921D01*
X388961Y654454D01*
Y654337D01*
Y654221D01*
X388844Y653754D01*
X388961Y653288D01*
X389078Y653054D01*
X392227D01*
X392344Y654454D01*
Y654571D01*
Y654687D01*
X392461Y655271D01*
X392577Y655737D01*
Y655970D01*
Y656087D01*
X392344D01*
X391877Y656204D01*
D02*
G37*
G36*
X403542Y662036D02*
X403192D01*
X402842Y661803D01*
X402493Y661336D01*
Y661220D01*
X402376Y660986D01*
X402493Y660637D01*
X402842Y660403D01*
X403426D01*
X403542Y660520D01*
X403659Y660637D01*
X403892Y660986D01*
X404009Y661336D01*
Y661453D01*
X403892Y661570D01*
X403776Y661803D01*
X403542Y662036D01*
D02*
G37*
G36*
X459651Y662036D02*
X458251D01*
X457551Y660870D01*
X456968Y659587D01*
X453352D01*
X453002Y660870D01*
X452769Y662036D01*
X449386D01*
Y661920D01*
Y661803D01*
X449502Y661453D01*
X449619Y660987D01*
X449852Y660170D01*
X450202Y659120D01*
X450552Y657720D01*
Y657487D01*
X450786Y657020D01*
X450902Y656320D01*
X451135Y655504D01*
X451369Y654687D01*
X451485Y653988D01*
X451719Y653521D01*
Y653288D01*
X454752D01*
Y653521D01*
Y653638D01*
X454868Y653754D01*
X455102Y654104D01*
X455452Y654571D01*
X455918Y655387D01*
X456501Y656320D01*
X457318Y657720D01*
X457435Y657954D01*
X457668Y658420D01*
X458018Y659120D01*
X458485Y659820D01*
X458951Y660637D01*
X459301Y661336D01*
X459534Y661803D01*
X459651Y662036D01*
D02*
G37*
G36*
X466067D02*
X460584D01*
Y661920D01*
Y661803D01*
Y661453D01*
Y661336D01*
X460467Y661103D01*
Y660753D01*
Y660637D01*
X463850D01*
X464084Y660403D01*
Y660287D01*
X464200D01*
Y660170D01*
Y659820D01*
X464084Y659470D01*
Y659003D01*
Y658420D01*
X463967Y657604D01*
Y657487D01*
X463850Y657254D01*
Y656787D01*
X463734Y656320D01*
Y655854D01*
X463617Y655387D01*
Y655154D01*
Y655037D01*
Y654921D01*
X463384Y654804D01*
X460001D01*
X459884Y654687D01*
X459768D01*
Y654571D01*
Y654337D01*
Y654104D01*
Y653988D01*
X459651Y653754D01*
Y653521D01*
Y653404D01*
X459768D01*
X460001Y653288D01*
X463850D01*
X464784Y653404D01*
X465133D01*
X465367Y653521D01*
X465484D01*
X465717Y653638D01*
X465950Y653988D01*
X466300Y654454D01*
Y654571D01*
X466417Y654687D01*
Y655037D01*
X466533Y655387D01*
X466650Y655970D01*
X466767Y656670D01*
X466883Y657604D01*
Y657720D01*
X467000Y658070D01*
Y658537D01*
X467117Y659120D01*
Y660403D01*
Y660870D01*
X467000Y661103D01*
Y661220D01*
X466883Y661453D01*
X466533Y661686D01*
X466067Y662036D01*
D02*
G37*
G36*
X448569D02*
X442037D01*
X441804Y661570D01*
Y661453D01*
Y661103D01*
Y660987D01*
Y660870D01*
Y660753D01*
Y660637D01*
X445420D01*
Y660520D01*
Y660287D01*
Y659820D01*
X445303Y659120D01*
X445186Y658070D01*
X445070Y656904D01*
X444836Y655387D01*
X444487Y653521D01*
Y653288D01*
X447519D01*
X448103Y657604D01*
Y657837D01*
X448219Y658303D01*
Y658887D01*
X448336Y659703D01*
X448453Y660520D01*
Y661220D01*
X448569Y661803D01*
Y662036D01*
D02*
G37*
G36*
X437138D02*
X434105D01*
Y661803D01*
Y661570D01*
Y661103D01*
X433988Y660403D01*
Y660287D01*
Y660170D01*
X433871Y659703D01*
Y659120D01*
Y659003D01*
Y658887D01*
X429672D01*
X429555Y658770D01*
X429205Y658537D01*
X428739Y658187D01*
X428505Y657604D01*
X428389Y657254D01*
X428272Y657020D01*
Y656670D01*
X428156Y656087D01*
Y655387D01*
Y655271D01*
Y654921D01*
Y654454D01*
Y654104D01*
X428272Y653988D01*
X428389Y653871D01*
X428739Y653638D01*
X429089Y653521D01*
X429205D01*
X429322Y653404D01*
X430022D01*
X430605Y653288D01*
X435388D01*
X435854Y653404D01*
X435971D01*
Y653521D01*
Y653638D01*
X436088Y653988D01*
Y654571D01*
X436204Y655271D01*
X436321Y656437D01*
X436554Y657837D01*
Y658070D01*
X436671Y658537D01*
X436788Y659120D01*
Y659937D01*
X436904Y660753D01*
X437021Y661336D01*
X437138Y661803D01*
Y662036D01*
D02*
G37*
G36*
X424889D02*
X421740D01*
X420690Y661920D01*
X420223D01*
X419990Y661803D01*
X419873Y661686D01*
X419523Y661453D01*
X419057Y660870D01*
X418707Y660053D01*
Y659937D01*
Y659703D01*
X418590Y659353D01*
Y659003D01*
X418473Y658420D01*
X418357Y657720D01*
Y657604D01*
Y657254D01*
X418240Y656787D01*
Y656204D01*
Y654921D01*
Y654454D01*
X418357Y654104D01*
Y653988D01*
X418473Y653871D01*
X418707Y653638D01*
X419057Y653521D01*
X419173Y653288D01*
X423839D01*
X424423Y653404D01*
X425006D01*
X425356Y653521D01*
X425589Y653638D01*
X425706Y653754D01*
X426056Y653871D01*
X426289Y654337D01*
X426522Y654921D01*
Y655037D01*
X426639Y655271D01*
X426756Y655854D01*
X426872Y656437D01*
X426989Y657254D01*
X427106Y658187D01*
X427222Y660287D01*
Y660403D01*
Y660753D01*
Y660870D01*
X426989Y661220D01*
X426756Y661570D01*
X426406Y661803D01*
X426289D01*
X426056Y661920D01*
X425472D01*
X424889Y662036D01*
D02*
G37*
G36*
X417307D02*
X410658Y662036D01*
Y661570D01*
Y661453D01*
X410541Y661220D01*
Y660870D01*
Y660753D01*
Y660637D01*
X414157Y660637D01*
Y660520D01*
Y660287D01*
Y659820D01*
X414041Y659120D01*
X413924Y658187D01*
X413807Y656904D01*
X413574Y655387D01*
X413224Y653521D01*
Y653288D01*
X416141Y653288D01*
X416257Y653404D01*
X416374D01*
Y653521D01*
Y653638D01*
Y653988D01*
X416491Y654571D01*
X416607Y655271D01*
X416724Y656437D01*
X416840Y657837D01*
Y658070D01*
X416957Y658537D01*
Y659120D01*
X417074Y659937D01*
X417190Y660753D01*
Y661336D01*
X417307Y661803D01*
Y662036D01*
D02*
G37*
G36*
X408092Y662036D02*
X405175D01*
X404942Y660403D01*
X404709Y658887D01*
X402959Y656320D01*
X402842Y656204D01*
X402726Y655970D01*
X402142Y655154D01*
X402026Y655037D01*
X401909Y654804D01*
X401676Y654454D01*
X401443Y654104D01*
Y653987D01*
X401326Y653871D01*
X401209Y653754D01*
X401093Y653638D01*
X400859Y653288D01*
X402493D01*
X403776Y655271D01*
Y655387D01*
X404009Y655504D01*
X404359Y656087D01*
X404709Y656670D01*
X404942Y656787D01*
Y656904D01*
X405059Y656670D01*
X405292Y656204D01*
X405525Y655854D01*
X405759Y655271D01*
X406692Y653288D01*
X410191D01*
Y653521D01*
X410075Y653638D01*
Y653871D01*
X409841Y654221D01*
X409608Y654687D01*
X409375Y655387D01*
X408908Y656204D01*
X407625Y658653D01*
X407975Y660403D01*
Y660520D01*
Y660637D01*
Y661220D01*
X408092Y661803D01*
Y661920D01*
Y662036D01*
D02*
G37*
%LPD*%
G36*
X403659Y661686D02*
X403776Y661453D01*
X403892Y661220D01*
Y661103D01*
X403776Y660986D01*
X403659Y660753D01*
X403309Y660637D01*
X403192Y660520D01*
X402959D01*
X402842Y660637D01*
X402726Y660753D01*
X402609Y660870D01*
Y661103D01*
Y661220D01*
X402842Y661570D01*
X402959Y661686D01*
X403542Y661803D01*
X403659Y661686D01*
D02*
G37*
%LPC*%
G36*
X403542Y661570D02*
X403426D01*
Y661453D01*
Y661220D01*
Y661103D01*
X403309D01*
X403192Y661336D01*
X403076Y661453D01*
Y661570D01*
X402959D01*
Y661336D01*
Y661220D01*
X402842Y661103D01*
Y660986D01*
X402959Y660870D01*
Y660753D01*
X403309D01*
X403426Y660986D01*
X403542Y661220D01*
Y661336D01*
Y661453D01*
Y661570D01*
D02*
G37*
%LPD*%
G36*
X403309Y660870D02*
X403076D01*
Y660986D01*
X403192Y661103D01*
X403309D01*
Y660870D01*
D02*
G37*
G36*
X454868Y658187D02*
X456035D01*
X455218Y656787D01*
Y656670D01*
X455102Y656554D01*
X454752Y656087D01*
X454518Y655621D01*
X454402Y655387D01*
Y655504D01*
X454285Y655970D01*
X454168Y656320D01*
X454052Y656787D01*
X453935Y657020D01*
X453819Y657487D01*
X453702Y658070D01*
Y658187D01*
Y658303D01*
X454168D01*
X454868Y658187D01*
D02*
G37*
G36*
X433521Y657487D02*
Y657370D01*
Y657254D01*
Y656787D01*
X433405Y656087D01*
Y655854D01*
X433288Y655504D01*
Y655037D01*
X433171Y654804D01*
X431188D01*
Y654921D01*
Y655037D01*
Y655154D01*
Y655504D01*
X431305Y656087D01*
Y656204D01*
Y656670D01*
Y657020D01*
X431422Y657254D01*
Y657487D01*
X431655Y657604D01*
X433521D01*
Y657487D01*
D02*
G37*
G36*
X424073Y660520D02*
X424189Y660403D01*
Y660170D01*
Y659820D01*
Y659353D01*
Y658653D01*
X424073Y657720D01*
Y657604D01*
X423956Y657370D01*
Y656904D01*
X423839Y656437D01*
X423723Y655504D01*
Y655271D01*
Y655037D01*
X423606Y654921D01*
X423256Y654804D01*
X421273D01*
X421157Y654921D01*
X421040Y655154D01*
Y655271D01*
Y655504D01*
X421157Y655854D01*
Y656320D01*
X421273Y657020D01*
X421390Y657837D01*
Y657954D01*
Y658187D01*
X421506Y658653D01*
X421623Y659120D01*
X421740Y659937D01*
X421856Y660287D01*
Y660403D01*
X421973Y660520D01*
X422090D01*
X422440Y660637D01*
X424073D01*
Y660520D01*
D02*
G37*
D10*
X597980Y133524D02*
G03*
X597980Y133524I-197J0D01*
G01*
X522205Y184760D02*
X550551D01*
X522205Y116256D02*
Y184760D01*
Y116256D02*
X550551D01*
Y184760D01*
X479685D02*
X508032D01*
X479685Y116256D02*
Y184760D01*
Y116256D02*
X508032D01*
Y184760D01*
X437165Y185153D02*
X465512D01*
X437165Y116650D02*
Y185153D01*
Y116650D02*
X465512D01*
Y185153D01*
X394646D02*
X422992D01*
X394646Y116650D02*
Y185153D01*
Y116650D02*
X422992D01*
Y185153D01*
X351732Y184760D02*
X380079D01*
X351732Y116256D02*
Y184760D01*
Y116256D02*
X380079D01*
Y184760D01*
D11*
X330610Y369646D02*
G03*
X330610Y369646I-492J0D01*
G01*
X424112Y264783D02*
G03*
X424112Y264783I-492J0D01*
G01*
X397067Y423228D02*
G03*
X397067Y423228I-492J0D01*
G01*
X387205Y550689D02*
G03*
X387205Y550689I-492J0D01*
G01*
X472047Y328150D02*
G03*
X472047Y328150I-492J0D01*
G01*
X438130Y603937D02*
G03*
X438130Y603937I-492J0D01*
G01*
X568799Y507087D02*
G03*
X568799Y507087I-492J0D01*
G01*
X502658Y611221D02*
G03*
X502658Y611221I-492J0D01*
G01*
X531378Y550295D02*
G03*
X531378Y550295I-492J0D01*
G01*
X539370Y597244D02*
G03*
X539370Y597244I-492J0D01*
G01*
X544803Y656398D02*
G03*
X544803Y656398I-492J0D01*
G01*
X497913Y550295D02*
G03*
X497913Y550295I-492J0D01*
G01*
X437933Y557677D02*
G03*
X437933Y557677I-492J0D01*
G01*
X598425Y158583D02*
G03*
X598425Y158583I-492J0D01*
G01*
X406004Y330472D02*
G03*
X406004Y330472I-492J0D01*
G01*
X461929Y429134D02*
G03*
X461929Y429134I-492J0D01*
G01*
X346008Y570016D02*
Y578016D01*
D12*
X340256Y364961D02*
G03*
X340256Y364961I-1181J0D01*
G01*
X433168Y259842D02*
G03*
X433168Y259842I-1181J0D01*
G01*
X392815Y414862D02*
G03*
X392815Y414862I-1181J0D01*
G01*
X379134Y553740D02*
G03*
X379134Y553740I-1181J0D01*
G01*
X475787Y336319D02*
G03*
X475787Y336319I-1181J0D01*
G01*
X443425Y611811D02*
G03*
X443425Y611811I-1181J0D01*
G01*
X537008Y558661D02*
G03*
X537008Y558661I-1181J0D01*
G01*
X540551Y648032D02*
G03*
X540551Y648032I-1181J0D01*
G01*
X503543Y558661D02*
G03*
X503543Y558661I-1181J0D01*
G01*
X443563Y566043D02*
G03*
X443563Y566043I-1181J0D01*
G01*
X467303Y438091D02*
G03*
X467303Y438091I-1181J0D01*
G01*
D13*
X622346Y170854D02*
G03*
X622346Y170854I-394J0D01*
G01*
D14*
X569685Y460236D02*
Y461024D01*
X583071D01*
Y460236D02*
Y461024D01*
X569685Y453937D02*
Y454724D01*
Y453937D02*
X583071D01*
Y454724D01*
X576378Y453937D02*
Y461024D01*
X586221Y399213D02*
X593307D01*
X592520Y405905D02*
X593307D01*
Y392520D02*
Y405905D01*
X592520Y392520D02*
X593307D01*
X586221Y405905D02*
X587008D01*
X586221Y392520D02*
Y405905D01*
Y392520D02*
X587008D01*
X652362Y505874D02*
X653150D01*
X652362D02*
Y517685D01*
X653150D01*
X657874D02*
X658661D01*
Y505874D02*
Y517685D01*
X657874Y505874D02*
X658661D01*
X584547Y321654D02*
Y328740D01*
X577854Y327953D02*
Y328740D01*
X591240D01*
Y327953D02*
Y328740D01*
X577854Y321654D02*
Y322441D01*
Y321654D02*
X591240D01*
Y322441D01*
X479921Y570079D02*
Y577165D01*
X473228Y570079D02*
Y571654D01*
Y570079D02*
X486614D01*
Y571654D01*
Y575591D02*
Y577165D01*
X473228D02*
X486614D01*
X473228Y575591D02*
Y577165D01*
X600000Y50000D02*
X600787D01*
X600000D02*
Y63386D01*
X600787D01*
X606299Y50000D02*
X607087D01*
Y63386D01*
X606299D02*
X607087D01*
X600000Y56693D02*
X607087D01*
X442618Y275197D02*
Y280709D01*
X437618Y279953D02*
Y280709D01*
X447618D01*
Y279953D02*
Y280709D01*
Y275197D02*
Y275953D01*
X437618Y275197D02*
X447618D01*
X437618D02*
Y275953D01*
X467421Y258661D02*
X472933D01*
X472177Y263661D02*
X472933D01*
Y253661D02*
Y263661D01*
X472177Y253661D02*
X472933D01*
X467421D02*
X468177D01*
X467421D02*
Y263661D01*
X468177D01*
X459547Y248819D02*
X465059D01*
X464303Y253819D02*
X465059D01*
Y243819D02*
Y253819D01*
X464303Y243819D02*
X465059D01*
X459547D02*
X460303D01*
X459547D02*
Y253819D01*
X460303D01*
X411122Y253937D02*
X416634D01*
X415453Y259449D02*
X416634D01*
Y248425D02*
Y259449D01*
X415453Y248425D02*
X416634D01*
X411122D02*
X412303D01*
X411122D02*
Y259449D01*
X412303D01*
X406398Y403543D02*
X411909D01*
X411154Y408543D02*
X411909D01*
Y398543D02*
Y408543D01*
X411154Y398543D02*
X411909D01*
X406398D02*
X407154D01*
X406398D02*
Y408543D01*
X407154D01*
X385925Y430315D02*
Y435827D01*
X391437Y430315D02*
Y431496D01*
X380413Y430315D02*
X391437D01*
X380413D02*
Y431496D01*
Y434646D02*
Y435827D01*
X391437D01*
Y434646D02*
Y435827D01*
X380807Y378937D02*
Y384449D01*
X385807Y378937D02*
Y379693D01*
X375807Y378937D02*
X385807D01*
X375807D02*
Y379693D01*
Y383693D02*
Y384449D01*
X385807D01*
Y383693D02*
Y384449D01*
X391043Y386614D02*
Y392126D01*
X396043Y386614D02*
Y387370D01*
X386043Y386614D02*
X396043D01*
X386043D02*
Y387370D01*
Y391370D02*
Y392126D01*
X396043D01*
Y391370D02*
Y392126D01*
X329134Y586614D02*
Y587402D01*
X342520D01*
Y586614D02*
Y587402D01*
X329134Y580315D02*
Y581102D01*
Y580315D02*
X342520D01*
Y581102D01*
X335827Y580315D02*
Y587402D01*
X329134Y555118D02*
Y555905D01*
X342520D01*
Y555118D02*
Y555905D01*
X329134Y548819D02*
Y549606D01*
Y548819D02*
X342520D01*
Y549606D01*
X335827Y548819D02*
Y555905D01*
X459449Y406299D02*
X460236D01*
Y392913D02*
Y406299D01*
X459449Y392913D02*
X460236D01*
X453150Y406299D02*
X453937D01*
X453150Y392913D02*
Y406299D01*
Y392913D02*
X453937D01*
X453150Y399606D02*
X460236D01*
X467717Y406299D02*
X468504D01*
Y392913D02*
Y406299D01*
X467717Y392913D02*
X468504D01*
X461417Y406299D02*
X462205D01*
X461417Y392913D02*
Y406299D01*
Y392913D02*
X462205D01*
X461417Y399606D02*
X468504D01*
X335039Y380906D02*
Y382087D01*
Y380906D02*
X346063D01*
Y382087D01*
Y385236D02*
Y386417D01*
X335039D02*
X346063D01*
X335039Y385236D02*
Y386417D01*
X340551Y380906D02*
Y386417D01*
X446457Y426378D02*
Y427559D01*
Y426378D02*
X457480D01*
Y427559D01*
Y430709D02*
Y431890D01*
X446457D02*
X457480D01*
X446457Y430709D02*
Y431890D01*
X451968Y426378D02*
Y431890D01*
X464567Y498819D02*
X465354D01*
Y485433D02*
Y498819D01*
X464567Y485433D02*
X465354D01*
X458268Y498819D02*
X459055D01*
X458268Y485433D02*
Y498819D01*
Y485433D02*
X459055D01*
X458268Y492126D02*
X465354D01*
X482677Y498819D02*
X483465D01*
Y485433D02*
Y498819D01*
X482677Y485433D02*
X483465D01*
X476378Y498819D02*
X477165D01*
X476378Y485433D02*
Y498819D01*
Y485433D02*
X477165D01*
X476378Y492126D02*
X483465D01*
X500000Y498819D02*
X500787D01*
Y485433D02*
Y498819D01*
X500000Y485433D02*
X500787D01*
X493701Y498819D02*
X494488D01*
X493701Y485433D02*
Y498819D01*
Y485433D02*
X494488D01*
X493701Y492126D02*
X500787D01*
X362598Y512598D02*
X363386D01*
X362598D02*
Y525984D01*
X363386D01*
X368898Y512598D02*
X369685D01*
Y525984D01*
X368898D02*
X369685D01*
X362598Y519291D02*
X369685D01*
X379528Y512598D02*
X380315D01*
X379528D02*
Y525984D01*
X380315D01*
X385827Y512598D02*
X386614D01*
Y525984D01*
X385827D02*
X386614D01*
X379528Y519291D02*
X386614D01*
X396457Y512598D02*
X397244D01*
X396457D02*
Y525984D01*
X397244D01*
X402756Y512598D02*
X403543D01*
Y525984D01*
X402756D02*
X403543D01*
X396457Y519291D02*
X403543D01*
X413583Y512402D02*
X414370D01*
X413583D02*
Y525787D01*
X414370D01*
X419882Y512402D02*
X420669D01*
Y525787D01*
X419882D02*
X420669D01*
X413583Y519095D02*
X420669D01*
X437795Y642520D02*
X438976D01*
X437795Y631496D02*
Y642520D01*
Y631496D02*
X438976D01*
X442126D02*
X443307D01*
Y642520D01*
X442126D02*
X443307D01*
X437795Y637008D02*
X443307D01*
X572047Y440551D02*
Y441339D01*
X585433D01*
Y440551D02*
Y441339D01*
X572047Y434252D02*
Y435039D01*
Y434252D02*
X585433D01*
Y435039D01*
X578740Y434252D02*
Y441339D01*
X572047Y421654D02*
Y422441D01*
X585433D01*
Y421654D02*
Y422441D01*
X572047Y415354D02*
Y416142D01*
Y415354D02*
X585433D01*
Y416142D01*
X578740Y415354D02*
Y422441D01*
X551181Y416240D02*
X551968D01*
Y402854D02*
Y416240D01*
X551181Y402854D02*
X551968D01*
X544882Y416240D02*
X545669D01*
X544882Y402854D02*
Y416240D01*
Y402854D02*
X545669D01*
X544882Y409547D02*
X551968D01*
X502224Y277953D02*
X503012D01*
X502224D02*
Y291339D01*
X503012D01*
X508524Y277953D02*
X509311D01*
Y291339D01*
X508524D02*
X509311D01*
X502224Y284646D02*
X509311D01*
X520079Y277953D02*
X520866D01*
X520079D02*
Y291339D01*
X520866D01*
X526378Y277953D02*
X527165D01*
Y291339D01*
X526378D02*
X527165D01*
X520079Y284646D02*
X527165D01*
X537402Y277953D02*
X538189D01*
X537402D02*
Y291339D01*
X538189D01*
X543701Y277953D02*
X544488D01*
Y291339D01*
X543701D02*
X544488D01*
X537402Y284646D02*
X544488D01*
X561024Y291339D02*
X561811D01*
Y277953D02*
Y291339D01*
X561024Y277953D02*
X561811D01*
X554724Y291339D02*
X555512D01*
X554724Y277953D02*
Y291339D01*
Y277953D02*
X555512D01*
X554724Y284646D02*
X561811D01*
X551575Y496063D02*
X558661D01*
X557087Y489370D02*
X558661D01*
Y502756D01*
X557087D02*
X558661D01*
X551575D02*
X553150D01*
X551575Y489370D02*
Y502756D01*
Y489370D02*
X553150D01*
X553937Y480138D02*
Y487224D01*
X560630Y485649D02*
Y487224D01*
X547244D02*
X560630D01*
X547244Y485649D02*
Y487224D01*
Y480138D02*
Y481712D01*
Y480138D02*
X560630D01*
Y481712D01*
X379232Y363779D02*
Y364567D01*
X392618D01*
Y363779D02*
Y364567D01*
X379232Y357480D02*
Y358268D01*
Y357480D02*
X392618D01*
Y358268D01*
X385925Y357480D02*
Y364567D01*
X379232Y345669D02*
Y346457D01*
X392618D01*
Y345669D02*
Y346457D01*
X379232Y339370D02*
Y340158D01*
Y339370D02*
X392618D01*
Y340158D01*
X385925Y339370D02*
Y346457D01*
X379232Y328346D02*
Y329134D01*
X392618D01*
Y328346D02*
Y329134D01*
X379232Y322047D02*
Y322835D01*
Y322047D02*
X392618D01*
Y322835D01*
X385925Y322047D02*
Y329134D01*
X480571Y656693D02*
Y657480D01*
X493957D01*
Y656693D02*
Y657480D01*
X480571Y650394D02*
Y651181D01*
Y650394D02*
X493957D01*
Y651181D01*
X487264Y650394D02*
Y657480D01*
X556004Y701673D02*
X556791D01*
Y688287D02*
Y701673D01*
X556004Y688287D02*
X556791D01*
X549705Y701673D02*
X550492D01*
X549705Y688287D02*
Y701673D01*
Y688287D02*
X550492D01*
X549705Y694980D02*
X556791D01*
X565453D02*
Y702067D01*
X558760Y694980D02*
Y696555D01*
Y694980D02*
X572146D01*
Y696555D01*
Y700492D02*
Y702067D01*
X558760D02*
X572146D01*
X558760Y700492D02*
Y702067D01*
X643110Y545368D02*
X643898D01*
Y531983D02*
Y545368D01*
X643110Y531983D02*
X643898D01*
X636811Y545368D02*
X637598D01*
X636811Y531983D02*
Y545368D01*
Y531983D02*
X637598D01*
X636811Y538676D02*
X643898D01*
X512205Y653150D02*
Y653937D01*
X498819Y653150D02*
X512205D01*
X498819D02*
Y653937D01*
X512205Y659449D02*
Y660236D01*
X498819D02*
X512205D01*
X498819Y659449D02*
Y660236D01*
X505512Y653150D02*
Y660236D01*
X572146Y677165D02*
Y677953D01*
X558760Y677165D02*
X572146D01*
X558760D02*
Y677953D01*
X572146Y683465D02*
Y684252D01*
X558760D02*
X572146D01*
X558760Y683465D02*
Y684252D01*
X565453Y677165D02*
Y684252D01*
X620276Y533754D02*
Y534542D01*
X633661D01*
Y533754D02*
Y534542D01*
X620276Y527455D02*
Y528242D01*
Y527455D02*
X633661D01*
Y528242D01*
X626968Y527455D02*
Y534542D01*
X498425Y600787D02*
Y601968D01*
X487402D02*
X498425D01*
X487402Y600787D02*
Y601968D01*
Y596457D02*
Y597638D01*
Y596457D02*
X498425D01*
Y597638D01*
X492913Y596457D02*
Y601968D01*
X535039Y583858D02*
Y585039D01*
X524016D02*
X535039D01*
X524016Y583858D02*
Y585039D01*
Y579528D02*
Y580709D01*
Y579528D02*
X535039D01*
Y580709D01*
X529528Y579528D02*
Y585039D01*
X507874Y590945D02*
X509055D01*
X507874Y579921D02*
Y590945D01*
Y579921D02*
X509055D01*
X512205D02*
X513386D01*
Y590945D01*
X512205D02*
X513386D01*
X507874Y585433D02*
X513386D01*
X459055Y589370D02*
Y590551D01*
X448032D02*
X459055D01*
X448032Y589370D02*
Y590551D01*
Y585039D02*
Y586221D01*
Y585039D02*
X459055D01*
Y586221D01*
X453543Y585039D02*
Y590551D01*
X522835Y622441D02*
Y623622D01*
Y622441D02*
X533858D01*
Y623622D01*
Y626772D02*
Y627953D01*
X522835D02*
X533858D01*
X522835Y626772D02*
Y627953D01*
X528346Y622441D02*
Y627953D01*
X555118Y583858D02*
Y585039D01*
X544095D02*
X555118D01*
X544095Y583858D02*
Y585039D01*
Y579528D02*
Y580709D01*
Y579528D02*
X555118D01*
Y580709D01*
X549606Y579528D02*
Y585039D01*
X556831Y637047D02*
Y638622D01*
X570217D01*
Y637047D02*
Y638622D01*
Y631535D02*
Y633110D01*
X556831Y631535D02*
X570217D01*
X556831D02*
Y633110D01*
X563524Y631535D02*
Y638622D01*
X556831Y620669D02*
X563917D01*
X556831Y613976D02*
X557618D01*
X556831D02*
Y627362D01*
X557618D01*
X563130Y613976D02*
X563917D01*
Y627362D01*
X563130D02*
X563917D01*
X546988Y620669D02*
X554075D01*
X553287Y627362D02*
X554075D01*
Y613976D02*
Y627362D01*
X553287Y613976D02*
X554075D01*
X546988Y627362D02*
X547776D01*
X546988Y613976D02*
Y627362D01*
Y613976D02*
X547776D01*
X471890Y548642D02*
Y555728D01*
X465197Y548642D02*
Y550216D01*
Y548642D02*
X478582D01*
Y550216D01*
Y554153D02*
Y555728D01*
X465197D02*
X478582D01*
X465197Y554153D02*
Y555728D01*
X469941Y545276D02*
X470728D01*
Y531890D02*
Y545276D01*
X469941Y531890D02*
X470728D01*
X463642Y545276D02*
X464429D01*
X463642Y531890D02*
Y545276D01*
Y531890D02*
X464429D01*
X463642Y538583D02*
X470728D01*
X453799Y531890D02*
X454587D01*
X453799D02*
Y545276D01*
X454587D01*
X460098Y531890D02*
X460886D01*
Y545276D01*
X460098D02*
X460886D01*
X453799Y538583D02*
X460886D01*
X480315Y580709D02*
X481102D01*
X480315D02*
Y594095D01*
X481102D01*
X486614Y580709D02*
X487402D01*
Y594095D01*
X486614D02*
X487402D01*
X480315Y587402D02*
X487402D01*
X496457Y594095D02*
X497244D01*
Y580709D02*
Y594095D01*
X496457Y580709D02*
X497244D01*
X490158Y594095D02*
X490945D01*
X490158Y580709D02*
Y594095D01*
Y580709D02*
X490945D01*
X490158Y587402D02*
X497244D01*
X653642Y119685D02*
X654429D01*
X653642D02*
Y133071D01*
X654429D01*
X659941Y119685D02*
X660728D01*
Y133071D01*
X659941D02*
X660728D01*
X653642Y126378D02*
X660728D01*
X581201Y129921D02*
X581988D01*
X581201D02*
Y143307D01*
X581988D01*
X587500Y129921D02*
X588287D01*
Y143307D01*
X587500D02*
X588287D01*
X581201Y136614D02*
X588287D01*
X359744Y200000D02*
Y207087D01*
X353051Y206299D02*
Y207087D01*
X366437D01*
Y206299D02*
Y207087D01*
X353051Y200000D02*
Y200787D01*
Y200000D02*
X366437D01*
Y200787D01*
X402461Y200394D02*
Y207480D01*
X395768Y206693D02*
Y207480D01*
X409154D01*
Y206693D02*
Y207480D01*
X395768Y200394D02*
Y201181D01*
Y200394D02*
X409154D01*
Y201181D01*
X446457Y200394D02*
Y207480D01*
X439764Y206693D02*
Y207480D01*
X453150D01*
Y206693D02*
Y207480D01*
X439764Y200394D02*
Y201181D01*
Y200394D02*
X453150D01*
Y201181D01*
X530610Y200000D02*
Y207087D01*
X523917Y206299D02*
Y207087D01*
X537303D01*
Y206299D02*
Y207087D01*
X523917Y200000D02*
Y200787D01*
Y200000D02*
X537303D01*
Y200787D01*
X487697Y200000D02*
Y207087D01*
X481004Y206299D02*
Y207087D01*
X494390D01*
Y206299D02*
Y207087D01*
X481004Y200000D02*
Y200787D01*
Y200000D02*
X494390D01*
Y200787D01*
X633661Y538676D02*
Y540250D01*
X620276Y538676D02*
X633661D01*
X620276D02*
Y540250D01*
Y544187D02*
Y545762D01*
X633661D01*
Y544187D02*
Y545762D01*
X626968Y538676D02*
Y545762D01*
D15*
X425934Y689814D02*
Y695225D01*
X441339Y710630D01*
X653937D01*
X669291Y695276D01*
X669291Y522736D01*
X659547Y512992D02*
X669291Y522736D01*
X597146Y512992D02*
X659547D01*
X584154Y525984D02*
X597146Y512992D01*
X446457Y525984D02*
X584154D01*
X425591Y546850D02*
X446457Y525984D01*
X425591Y546850D02*
Y646614D01*
X613953Y167854D02*
Y168354D01*
X616953Y165354D01*
X613953Y162354D02*
X616953Y165354D01*
X613953Y162354D02*
Y167854D01*
X614961Y209252D02*
Y461221D01*
X668110D01*
Y488779D01*
X695669D01*
Y181693D02*
Y488779D01*
X668110Y181693D02*
X695669D01*
X668110D02*
Y209252D01*
X614961D02*
X668110D01*
X469425Y74803D02*
Y99067D01*
Y50539D02*
Y74803D01*
X352000Y99067D02*
X469425D01*
X352000Y50539D02*
Y99067D01*
Y50539D02*
X469425D01*
X590551Y41929D02*
Y78150D01*
X535433Y41929D02*
X590551D01*
X535433Y78150D02*
X563583D01*
X590551D01*
X535433Y41929D02*
Y78150D01*
X468504Y681891D02*
Y685827D01*
X466536D01*
X465880Y685171D01*
Y682547D01*
X466536Y681891D01*
X468504D01*
X462600Y685827D02*
X463912D01*
X464568Y685171D01*
Y683859D01*
X463912Y683203D01*
X462600D01*
X461944Y683859D01*
Y684515D01*
X464568D01*
X460633Y685827D02*
X458665D01*
X458009Y685171D01*
X458665Y684515D01*
X459976D01*
X460633Y683859D01*
X459976Y683203D01*
X458009D01*
X456697Y685827D02*
X455385D01*
X456041D01*
Y683203D01*
X456697D01*
X452105Y687139D02*
X451449D01*
X450793Y686483D01*
Y683203D01*
X452761D01*
X453417Y683859D01*
Y685171D01*
X452761Y685827D01*
X450793D01*
X449481D02*
Y683203D01*
X447513D01*
X446857Y683859D01*
Y685827D01*
X440954Y683203D02*
X439642D01*
X438986Y683859D01*
Y685827D01*
X440954D01*
X441610Y685171D01*
X440954Y684515D01*
X438986D01*
X437674Y685827D02*
Y683203D01*
X435706D01*
X435050Y683859D01*
Y685827D01*
X431114Y681891D02*
Y685827D01*
X433082D01*
X433738Y685171D01*
Y683859D01*
X433082Y683203D01*
X431114D01*
X425867Y681891D02*
Y685827D01*
X423243D01*
X421275Y683203D02*
X419963D01*
X419307Y683859D01*
Y685827D01*
X421275D01*
X421931Y685171D01*
X421275Y684515D01*
X419307D01*
X417995Y683203D02*
Y685171D01*
X417339Y685827D01*
X415372D01*
Y686483D01*
X416027Y687139D01*
X416683D01*
X415372Y685827D02*
Y683203D01*
X413404Y685827D02*
X412092D01*
X411436Y685171D01*
Y683859D01*
X412092Y683203D01*
X413404D01*
X414059Y683859D01*
Y685171D01*
X413404Y685827D01*
X410124Y683203D02*
Y685171D01*
X409468Y685827D01*
X407500D01*
Y683203D01*
X405532Y682547D02*
Y683203D01*
X406188D01*
X404876D01*
X405532D01*
Y685171D01*
X404876Y685827D01*
X398973Y681891D02*
Y685827D01*
X397005D01*
X396349Y685171D01*
Y684515D01*
Y683859D01*
X397005Y683203D01*
X398973D01*
X395037D02*
Y685171D01*
X394381Y685827D01*
X392413D01*
Y686483D01*
X393069Y687139D01*
X393725D01*
X392413Y685827D02*
Y683203D01*
X391101D02*
X390445D01*
Y683859D01*
X391101D01*
Y683203D01*
Y685171D02*
X390445D01*
Y685827D01*
X391101D01*
Y685171D01*
X381262Y681891D02*
X382574D01*
X381918D01*
Y685171D01*
X382574Y685827D01*
X383230D01*
X383886Y685171D01*
X379294Y685827D02*
X377982D01*
X377326Y685171D01*
Y683859D01*
X377982Y683203D01*
X379294D01*
X379950Y683859D01*
Y685171D01*
X379294Y685827D01*
X376014D02*
Y683203D01*
X374046D01*
X373390Y683859D01*
Y685827D01*
X371422Y683203D02*
X370110D01*
X369455Y683859D01*
Y685827D01*
X371422D01*
X372078Y685171D01*
X371422Y684515D01*
X369455D01*
X367487Y682547D02*
Y683203D01*
X368143D01*
X366831D01*
X367487D01*
Y685171D01*
X366831Y685827D01*
X364863Y681891D02*
Y685827D01*
Y683859D01*
X364207Y683203D01*
X362895D01*
X362239Y683859D01*
Y685827D01*
X360271Y683203D02*
X358959D01*
X358303Y683859D01*
Y685827D01*
X360271D01*
X360927Y685171D01*
X360271Y684515D01*
X358303D01*
X356991Y685827D02*
Y683203D01*
X355024D01*
X354367Y683859D01*
Y685827D01*
X349120Y681891D02*
Y685827D01*
X346496D01*
X344528Y683203D02*
X343216D01*
X342560Y683859D01*
Y685827D01*
X344528D01*
X345184Y685171D01*
X344528Y684515D01*
X342560D01*
X341248Y683203D02*
Y685171D01*
X340592Y685827D01*
X338625D01*
Y683203D01*
X605891Y213471D02*
X604892Y212472D01*
Y210472D01*
X605891Y209472D01*
X606891D01*
X607891Y210472D01*
Y212472D01*
X608890Y213471D01*
X609890D01*
X610890Y212472D01*
Y210472D01*
X609890Y209472D01*
X604892Y215471D02*
X609890D01*
X610890Y216470D01*
Y218470D01*
X609890Y219469D01*
X604892D01*
X610890Y221469D02*
X604892D01*
Y224468D01*
X605891Y225467D01*
X607891D01*
X608890Y224468D01*
Y221469D01*
X604892Y231465D02*
Y227467D01*
X610890D01*
Y231465D01*
X607891Y227467D02*
Y229466D01*
X610890Y233465D02*
X604892D01*
Y236464D01*
X605891Y237463D01*
X607891D01*
X608890Y236464D01*
Y233465D01*
Y235464D02*
X610890Y237463D01*
X605891Y249460D02*
X604892Y248460D01*
Y246461D01*
X605891Y245461D01*
X606891D01*
X607891Y246461D01*
Y248460D01*
X608890Y249460D01*
X609890D01*
X610890Y248460D01*
Y246461D01*
X609890Y245461D01*
X604892Y255458D02*
Y251459D01*
X610890D01*
Y255458D01*
X607891Y251459D02*
Y253458D01*
X610890Y257457D02*
X606891D01*
X604892Y259456D01*
X606891Y261456D01*
X610890D01*
X607891D01*
Y257457D01*
X604892Y263455D02*
X610890D01*
Y267454D01*
X604892Y279450D02*
X605891Y277450D01*
X607891Y275451D01*
X609890D01*
X610890Y276451D01*
Y278450D01*
X609890Y279450D01*
X608890D01*
X607891Y278450D01*
Y275451D01*
X605891Y281449D02*
X604892Y282449D01*
Y284448D01*
X605891Y285448D01*
X609890D01*
X610890Y284448D01*
Y282449D01*
X609890Y281449D01*
X605891D01*
X610890Y287447D02*
X604892D01*
Y290446D01*
X605891Y291446D01*
X607891D01*
X608890Y290446D01*
Y287447D01*
X604892Y296444D02*
Y294445D01*
X605891Y293445D01*
X609890D01*
X610890Y294445D01*
Y296444D01*
X609890Y297444D01*
X605891D01*
X604892Y296444D01*
X605891Y303442D02*
X604892Y302442D01*
Y300443D01*
X605891Y299443D01*
X606891D01*
X607891Y300443D01*
Y302442D01*
X608890Y303442D01*
X609890D01*
X610890Y302442D01*
Y300443D01*
X609890Y299443D01*
X320997Y484383D02*
Y485039D01*
X320341Y485695D01*
X317061D01*
Y483727D01*
X317717Y483071D01*
X319029D01*
X319685Y483727D01*
Y485695D01*
Y488975D02*
Y487663D01*
X319029Y487007D01*
X317717D01*
X317061Y487663D01*
Y488975D01*
X317717Y489630D01*
X318373D01*
Y487007D01*
X319685Y490942D02*
X317061D01*
Y492910D01*
X317717Y493566D01*
X319685D01*
Y497502D02*
Y494878D01*
X317061Y497502D01*
X316405D01*
X315749Y496846D01*
Y495534D01*
X316405Y494878D01*
X320341Y498814D02*
Y501438D01*
X319685Y502750D02*
Y504062D01*
Y503406D01*
X315749D01*
X316405Y502750D01*
X319685Y508653D02*
Y506029D01*
X317061Y508653D01*
X316405D01*
X315749Y507997D01*
Y506685D01*
X316405Y506029D01*
X317061Y509965D02*
X319685Y511277D01*
X317061Y512589D01*
X507645Y407743D02*
Y407087D01*
X508301Y406431D01*
X511581D01*
Y408399D01*
X510925Y409055D01*
X509613D01*
X508957Y408399D01*
Y406431D01*
Y403152D02*
Y404463D01*
X509613Y405119D01*
X510925D01*
X511581Y404463D01*
Y403152D01*
X510925Y402496D01*
X510269D01*
Y405119D01*
X508957Y401184D02*
X511581D01*
Y399216D01*
X510925Y398560D01*
X508957D01*
Y394624D02*
Y397248D01*
X511581Y394624D01*
X512236D01*
X512892Y395280D01*
Y396592D01*
X512236Y397248D01*
X508301Y393312D02*
Y390688D01*
X512892Y386753D02*
Y389376D01*
X510925D01*
X511581Y388065D01*
Y387409D01*
X510925Y386753D01*
X509613D01*
X508957Y387409D01*
Y388720D01*
X509613Y389376D01*
X511581Y385441D02*
X508957Y384129D01*
X511581Y382817D01*
X586745Y456562D02*
X587401D01*
X588057Y457218D01*
Y460498D01*
X586089D01*
X585433Y459842D01*
Y458530D01*
X586089Y457874D01*
X588057D01*
X591337D02*
X590025D01*
X589369Y458530D01*
Y459842D01*
X590025Y460498D01*
X591337D01*
X591993Y459842D01*
Y459186D01*
X589369D01*
X593305Y457874D02*
Y460498D01*
X595272D01*
X595928Y459842D01*
Y457874D01*
X597240D02*
X598552D01*
X597896D01*
Y461810D01*
X597240Y461154D01*
X600520Y457218D02*
X603144D01*
X604456Y457874D02*
X605768D01*
X605112D01*
Y461810D01*
X604456Y461154D01*
X610359Y457874D02*
X607736D01*
X610359Y460498D01*
Y461154D01*
X609703Y461810D01*
X608392D01*
X607736Y461154D01*
X611671Y460498D02*
X612983Y457874D01*
X614295Y460498D01*
X488944Y410105D02*
Y409449D01*
X489600Y408793D01*
X492880D01*
Y410761D01*
X492224Y411417D01*
X490912D01*
X490256Y410761D01*
Y408793D01*
Y405514D02*
Y406826D01*
X490912Y407482D01*
X492224D01*
X492880Y406826D01*
Y405514D01*
X492224Y404858D01*
X491568D01*
Y407482D01*
X490256Y403546D02*
X492880D01*
Y401578D01*
X492224Y400922D01*
X490256D01*
Y399610D02*
Y398298D01*
Y398954D01*
X494192D01*
X493536Y399610D01*
X489600Y396330D02*
Y393706D01*
X494192Y389771D02*
Y392395D01*
X492224D01*
X492880Y391083D01*
Y390427D01*
X492224Y389771D01*
X490912D01*
X490256Y390427D01*
Y391739D01*
X490912Y392395D01*
X492880Y388459D02*
X490256Y387147D01*
X492880Y385835D01*
X572441Y192125D02*
Y188189D01*
X574409D01*
X575065Y188845D01*
Y189501D01*
Y190157D01*
X574409Y190813D01*
X572441D01*
X576377Y188189D02*
X578344D01*
X579001Y188845D01*
X578344Y189501D01*
X577033D01*
X576377Y190157D01*
X577033Y190813D01*
X579001D01*
X580312Y186877D02*
Y190813D01*
X582280D01*
X582936Y190157D01*
Y188845D01*
X582280Y188189D01*
X580312D01*
X586872Y192125D02*
Y188189D01*
X584904D01*
X584248Y188845D01*
Y190157D01*
X584904Y190813D01*
X586872D01*
X588184Y187533D02*
X590808D01*
X592120Y188189D02*
X593432D01*
X592776D01*
Y192125D01*
X592120Y191469D01*
X598023Y188189D02*
X595399D01*
X598023Y190813D01*
Y191469D01*
X597367Y192125D01*
X596055D01*
X595399Y191469D01*
X599335Y190813D02*
X600647Y188189D01*
X601959Y190813D01*
X500392Y411417D02*
X496457D01*
Y409449D01*
X497113Y408793D01*
X497769D01*
X498425D01*
X499081Y409449D01*
Y411417D01*
X496457Y407482D02*
Y405514D01*
X497113Y404858D01*
X497769Y405514D01*
Y406826D01*
X498425Y407482D01*
X499081Y406826D01*
Y404858D01*
X495145Y403546D02*
X499081D01*
Y401578D01*
X498425Y400922D01*
X497113D01*
X496457Y401578D01*
Y403546D01*
X500392Y396986D02*
X496457D01*
Y398954D01*
X497113Y399610D01*
X498425D01*
X499081Y398954D01*
Y396986D01*
X495801Y395674D02*
Y393051D01*
X500392Y389115D02*
Y391739D01*
X498425D01*
X499081Y390427D01*
Y389771D01*
X498425Y389115D01*
X497113D01*
X496457Y389771D01*
Y391083D01*
X497113Y391739D01*
X499081Y387803D02*
X496457Y386491D01*
X499081Y385179D01*
X386482Y191339D02*
X383858D01*
X385170D01*
X385826Y190683D01*
X386482Y190027D01*
Y189371D01*
X383858Y185435D02*
Y186747D01*
X384514Y187403D01*
X385826D01*
X386482Y186747D01*
Y185435D01*
X385826Y184779D01*
X385170D01*
Y187403D01*
X387794Y180843D02*
X383858D01*
Y182811D01*
X384514Y183467D01*
X385826D01*
X386482Y182811D01*
Y180843D01*
Y179531D02*
X384514D01*
X383858Y178875D01*
Y176908D01*
X386482D01*
X383858Y175596D02*
X386482D01*
Y173628D01*
X385826Y172972D01*
X383858D01*
X383202Y171660D02*
Y169036D01*
X383858Y167724D02*
Y166412D01*
Y167068D01*
X387794D01*
X387138Y167724D01*
X383858Y161820D02*
Y164444D01*
X386482Y161820D01*
X387138D01*
X387794Y162477D01*
Y163788D01*
X387138Y164444D01*
X386482Y160509D02*
X383858Y159197D01*
X386482Y157885D01*
X486088Y413189D02*
X483465D01*
X484776D01*
X485432Y412533D01*
X486088Y411877D01*
Y411221D01*
X483465Y407285D02*
Y408597D01*
X484121Y409253D01*
X485432D01*
X486088Y408597D01*
Y407285D01*
X485432Y406629D01*
X484776D01*
Y409253D01*
X487400Y402694D02*
X483465D01*
Y404662D01*
X484121Y405317D01*
X485432D01*
X486088Y404662D01*
Y402694D01*
Y401382D02*
X484121D01*
X483465Y400726D01*
Y398758D01*
X486088D01*
X483465Y397446D02*
X486088D01*
Y395478D01*
X485432Y394822D01*
X483465D01*
Y390886D02*
Y393510D01*
X486088Y390886D01*
X486744D01*
X487400Y391542D01*
Y392854D01*
X486744Y393510D01*
X482809Y389575D02*
Y386951D01*
X487400Y383015D02*
Y385639D01*
X485432D01*
X486088Y384327D01*
Y383671D01*
X485432Y383015D01*
X484121D01*
X483465Y383671D01*
Y384983D01*
X484121Y385639D01*
X486088Y381703D02*
X483465Y380391D01*
X486088Y379079D01*
X429927Y205906D02*
X427303D01*
X428615D01*
X429271Y205250D01*
X429927Y204594D01*
Y203938D01*
X427303Y200002D02*
Y201314D01*
X427959Y201970D01*
X429271D01*
X429927Y201314D01*
Y200002D01*
X429271Y199346D01*
X428615D01*
Y201970D01*
X431239Y195410D02*
X427303D01*
Y197378D01*
X427959Y198034D01*
X429271D01*
X429927Y197378D01*
Y195410D01*
Y194098D02*
X427959D01*
X427303Y193442D01*
Y191474D01*
X429927D01*
X427303Y190163D02*
X429927D01*
Y188195D01*
X429271Y187539D01*
X427303D01*
X426647Y186227D02*
Y183603D01*
X427303Y182291D02*
Y180979D01*
Y181635D01*
X431239D01*
X430583Y182291D01*
X427303Y176388D02*
Y179011D01*
X429927Y176388D01*
X430583D01*
X431239Y177043D01*
Y178355D01*
X430583Y179011D01*
X429927Y175075D02*
X427303Y173764D01*
X429927Y172452D01*
X479395Y413386D02*
X476772D01*
X478084D01*
X478740Y412730D01*
X479395Y412074D01*
Y411418D01*
X476772Y407482D02*
Y408794D01*
X477428Y409450D01*
X478740D01*
X479395Y408794D01*
Y407482D01*
X478740Y406826D01*
X478084D01*
Y409450D01*
X480707Y402890D02*
X476772D01*
Y404858D01*
X477428Y405514D01*
X478740D01*
X479395Y404858D01*
Y402890D01*
Y401579D02*
X477428D01*
X476772Y400923D01*
Y398955D01*
X479395D01*
X476772Y397643D02*
X479395D01*
Y395675D01*
X478740Y395019D01*
X476772D01*
Y393707D02*
Y392395D01*
Y393051D01*
X480707D01*
X480051Y393707D01*
X476116Y390427D02*
Y387804D01*
X480707Y383868D02*
Y386492D01*
X478740D01*
X479395Y385180D01*
Y384524D01*
X478740Y383868D01*
X477428D01*
X476772Y384524D01*
Y385836D01*
X477428Y386492D01*
X479395Y382556D02*
X476772Y381244D01*
X479395Y379932D01*
X518372Y511711D02*
Y507776D01*
X516404D01*
X515748Y508431D01*
Y509743D01*
X516404Y510399D01*
X518372D01*
X522308D02*
X520340D01*
X519684Y509743D01*
Y508431D01*
X520340Y507776D01*
X522308D01*
X526243Y511711D02*
Y507776D01*
X524275D01*
X523620Y508431D01*
Y509743D01*
X524275Y510399D01*
X526243D01*
X530179D02*
X528211D01*
X527555Y509743D01*
Y508431D01*
X528211Y507776D01*
X530179D01*
X531491Y507120D02*
X534115D01*
X538051Y511711D02*
Y507776D01*
X536083D01*
X535427Y508431D01*
Y509743D01*
X536083Y510399D01*
X538051D01*
X539362Y507776D02*
X540674D01*
X540018D01*
Y510399D01*
X539362D01*
X542642Y507776D02*
X544610D01*
X545266Y508431D01*
X544610Y509088D01*
X543298D01*
X542642Y509743D01*
X543298Y510399D01*
X545266D01*
X546578Y507120D02*
X549202D01*
X550514Y507776D02*
X551826D01*
X551170D01*
Y511711D01*
X550514Y511055D01*
X556417Y507776D02*
X553793D01*
X556417Y510399D01*
Y511055D01*
X555761Y511711D01*
X554450D01*
X553793Y511055D01*
X557729Y510399D02*
X559041Y507776D01*
X560353Y510399D01*
X407742Y440550D02*
Y436614D01*
X405774D01*
X405118Y437270D01*
Y438582D01*
X405774Y439238D01*
X407742D01*
X411678D02*
X409710D01*
X409054Y438582D01*
Y437270D01*
X409710Y436614D01*
X411678D01*
X415613Y440550D02*
Y436614D01*
X413646D01*
X412990Y437270D01*
Y438582D01*
X413646Y439238D01*
X415613D01*
X419549D02*
X417581D01*
X416925Y438582D01*
Y437270D01*
X417581Y436614D01*
X419549D01*
X420861Y435958D02*
X423485D01*
X427421Y440550D02*
Y436614D01*
X425453D01*
X424797Y437270D01*
Y438582D01*
X425453Y439238D01*
X427421D01*
X428732Y436614D02*
X430045D01*
X429389D01*
Y439238D01*
X428732D01*
X432012Y436614D02*
X433980D01*
X434636Y437270D01*
X433980Y437926D01*
X432668D01*
X432012Y438582D01*
X432668Y439238D01*
X434636D01*
X435948Y435958D02*
X438572D01*
X442508Y440550D02*
X439884D01*
Y438582D01*
X441196Y439238D01*
X441852D01*
X442508Y438582D01*
Y437270D01*
X441852Y436614D01*
X440540D01*
X439884Y437270D01*
X443820Y439238D02*
X445131Y436614D01*
X446443Y439238D01*
X305250Y475984D02*
X307874D01*
X306562D01*
X305906Y476640D01*
X305250Y477296D01*
Y477952D01*
X304594Y480576D02*
X305250D01*
Y479920D01*
Y481232D01*
Y480576D01*
X307218D01*
X307874Y481232D01*
X303938Y485824D02*
X307874D01*
Y483856D01*
X307218Y483200D01*
X305906D01*
X305250Y483856D01*
Y485824D01*
X307874Y487136D02*
Y489103D01*
X307218Y489759D01*
X306562Y489103D01*
Y487791D01*
X305906Y487136D01*
X305250Y487791D01*
Y489759D01*
X308530Y491071D02*
Y493695D01*
X307874Y495007D02*
Y496319D01*
Y495663D01*
X303938D01*
X304594Y495007D01*
X307874Y500911D02*
Y498287D01*
X305250Y500911D01*
X304594D01*
X303938Y500255D01*
Y498943D01*
X304594Y498287D01*
X305250Y502222D02*
X307874Y503534D01*
X305250Y504846D01*
X383071Y446718D02*
Y444095D01*
Y445406D01*
X383727Y446062D01*
X384383Y446718D01*
X385039D01*
X387663Y447374D02*
Y446718D01*
X387007D01*
X388318D01*
X387663D01*
Y444750D01*
X388318Y444095D01*
X392910Y448030D02*
Y444095D01*
X390942D01*
X390286Y444750D01*
Y446062D01*
X390942Y446718D01*
X392910D01*
X394222Y444095D02*
X396190D01*
X396846Y444750D01*
X396190Y445406D01*
X394878D01*
X394222Y446062D01*
X394878Y446718D01*
X396846D01*
X398158Y443438D02*
X400782D01*
X404717Y448030D02*
X402094D01*
Y446062D01*
X403406Y446718D01*
X404062D01*
X404717Y446062D01*
Y444750D01*
X404062Y444095D01*
X402750D01*
X402094Y444750D01*
X406029Y446718D02*
X407341Y444095D01*
X408653Y446718D01*
X514140Y517715D02*
Y513779D01*
X512172D01*
X511516Y514435D01*
Y515747D01*
X512172Y516403D01*
X514140D01*
X515451Y513779D02*
X517419D01*
X518075Y514435D01*
X517419Y515091D01*
X516107D01*
X515451Y515747D01*
X516107Y516403D01*
X518075D01*
X522011D02*
X520043D01*
X519387Y515747D01*
Y514435D01*
X520043Y513779D01*
X522011D01*
X523323Y517715D02*
Y513779D01*
Y515747D01*
X523979Y516403D01*
X525291D01*
X525947Y515747D01*
Y513779D01*
X527259Y516403D02*
Y513779D01*
Y515091D01*
X527915Y515747D01*
X528571Y516403D01*
X529227D01*
X532506Y512468D02*
X533162D01*
X533818Y513124D01*
Y516403D01*
X531850D01*
X531194Y515747D01*
Y514435D01*
X531850Y513779D01*
X533818D01*
X535130Y513124D02*
X537754D01*
X539066Y513779D02*
X540378D01*
X539722D01*
Y517715D01*
X539066Y517059D01*
X544970Y513779D02*
X542346D01*
X544970Y516403D01*
Y517059D01*
X544314Y517715D01*
X543002D01*
X542346Y517059D01*
X546281Y516403D02*
X547593Y513779D01*
X548905Y516403D01*
X382348Y455904D02*
Y451968D01*
X380380D01*
X379724Y452625D01*
Y453936D01*
X380380Y454592D01*
X382348D01*
X383660Y451968D02*
X385628D01*
X386284Y452625D01*
X385628Y453280D01*
X384316D01*
X383660Y453936D01*
X384316Y454592D01*
X386284D01*
X390220D02*
X388252D01*
X387596Y453936D01*
Y452625D01*
X388252Y451968D01*
X390220D01*
X391532Y455904D02*
Y451968D01*
Y453936D01*
X392188Y454592D01*
X393499D01*
X394156Y453936D01*
Y451968D01*
X395467Y454592D02*
Y451968D01*
Y453280D01*
X396123Y453936D01*
X396779Y454592D01*
X397435D01*
X400715Y450657D02*
X401371D01*
X402027Y451312D01*
Y454592D01*
X400059D01*
X399403Y453936D01*
Y452625D01*
X400059Y451968D01*
X402027D01*
X403339Y451312D02*
X405963D01*
X409898Y455904D02*
X407275D01*
Y453936D01*
X408587Y454592D01*
X409242D01*
X409898Y453936D01*
Y452625D01*
X409242Y451968D01*
X407931D01*
X407275Y452625D01*
X411210Y454592D02*
X412522Y451968D01*
X413834Y454592D01*
X506870Y517979D02*
Y521915D01*
X508838D01*
X509494Y521259D01*
Y519947D01*
X508838Y519291D01*
X506870D01*
X510806Y521915D02*
Y519291D01*
Y520603D01*
X511462Y521259D01*
X512118Y521915D01*
X512774D01*
X517365D02*
X515398D01*
X514742Y521259D01*
Y519947D01*
X515398Y519291D01*
X517365D01*
X518677Y523227D02*
Y519291D01*
Y521259D01*
X519333Y521915D01*
X520645D01*
X521301Y521259D01*
Y519291D01*
X522613Y521915D02*
Y519291D01*
Y520603D01*
X523269Y521259D01*
X523925Y521915D01*
X524581D01*
X527861Y517979D02*
X528517D01*
X529173Y518635D01*
Y521915D01*
X527205D01*
X526549Y521259D01*
Y519947D01*
X527205Y519291D01*
X529173D01*
X530484Y518635D02*
X533108D01*
X534420Y519291D02*
X535732D01*
X535076D01*
Y523227D01*
X534420Y522571D01*
X540324Y519291D02*
X537700D01*
X540324Y521915D01*
Y522571D01*
X539668Y523227D01*
X538356D01*
X537700Y522571D01*
X541636Y521915D02*
X542948Y519291D01*
X544260Y521915D01*
X375590Y458137D02*
Y462073D01*
X377558D01*
X378214Y461417D01*
Y460105D01*
X377558Y459449D01*
X375590D01*
X379526Y462073D02*
Y459449D01*
Y460761D01*
X380182Y461417D01*
X380838Y462073D01*
X381494D01*
X386086D02*
X384118D01*
X383462Y461417D01*
Y460105D01*
X384118Y459449D01*
X386086D01*
X387398Y463385D02*
Y459449D01*
Y461417D01*
X388054Y462073D01*
X389366D01*
X390022Y461417D01*
Y459449D01*
X391334Y462073D02*
Y459449D01*
Y460761D01*
X391989Y461417D01*
X392645Y462073D01*
X393301D01*
X396581Y458137D02*
X397237D01*
X397893Y458793D01*
Y462073D01*
X395925D01*
X395269Y461417D01*
Y460105D01*
X395925Y459449D01*
X397893D01*
X399205Y458793D02*
X401829D01*
X405765Y463385D02*
X403141D01*
Y461417D01*
X404453Y462073D01*
X405109D01*
X405765Y461417D01*
Y460105D01*
X405109Y459449D01*
X403797D01*
X403141Y460105D01*
X407077Y462073D02*
X408388Y459449D01*
X409700Y462073D01*
X608923Y420210D02*
Y418898D01*
X608267Y418242D01*
X606299D01*
Y420210D01*
X606955Y420866D01*
X607611Y420210D01*
Y418242D01*
X606299Y416930D02*
Y415619D01*
Y416274D01*
X608923D01*
Y416930D01*
Y413651D02*
X606299D01*
X607611D01*
X608267Y412995D01*
X608923Y412339D01*
Y411683D01*
X608267Y409715D02*
Y407091D01*
X605643Y405779D02*
Y403155D01*
X606299Y401843D02*
Y400531D01*
Y401187D01*
X610235D01*
X609579Y401843D01*
X606299Y395940D02*
Y398564D01*
X608923Y395940D01*
X609579D01*
X610235Y396596D01*
Y397908D01*
X609579Y398564D01*
X608923Y394628D02*
X606299Y393316D01*
X608923Y392004D01*
X544357Y436581D02*
X545669D01*
X546325Y435925D01*
Y433957D01*
X544357D01*
X543701Y434613D01*
X544357Y435269D01*
X546325D01*
X547637Y433957D02*
X548948D01*
X548292D01*
Y436581D01*
X547637D01*
X550916D02*
Y433957D01*
Y435269D01*
X551572Y435925D01*
X552228Y436581D01*
X552884D01*
X554852Y435925D02*
X557476D01*
X558788Y433301D02*
X561412D01*
X565347Y437893D02*
X562723D01*
Y435925D01*
X564035Y436581D01*
X564691D01*
X565347Y435925D01*
Y434613D01*
X564691Y433957D01*
X563379D01*
X562723Y434613D01*
X566659Y436581D02*
X567971Y433957D01*
X569283Y436581D01*
X574672Y475065D02*
X575984D01*
X576640Y474409D01*
Y472441D01*
X574672D01*
X574016Y473097D01*
X574672Y473753D01*
X576640D01*
X577951Y472441D02*
X579263D01*
X578607D01*
Y475065D01*
X577951D01*
X581231D02*
Y472441D01*
Y473753D01*
X581887Y474409D01*
X582543Y475065D01*
X583199D01*
X585167Y474409D02*
X587791D01*
X586479Y475721D02*
Y473097D01*
X589103Y471785D02*
X591727D01*
X593039Y472441D02*
X594350D01*
X593694D01*
Y476377D01*
X593039Y475721D01*
X598942Y472441D02*
X596318D01*
X598942Y475065D01*
Y475721D01*
X598286Y476377D01*
X596974D01*
X596318Y475721D01*
X600254Y475065D02*
X601566Y472441D01*
X602878Y475065D01*
X544357Y429395D02*
X545669D01*
X546325Y428740D01*
Y426772D01*
X544357D01*
X543701Y427428D01*
X544357Y428084D01*
X546325D01*
X547637Y426772D02*
X548948D01*
X548292D01*
Y429395D01*
X547637D01*
X550916D02*
Y426772D01*
Y428084D01*
X551572Y428740D01*
X552228Y429395D01*
X552884D01*
X554852Y428740D02*
X557476D01*
X556164Y430051D02*
Y427428D01*
X558788Y426116D02*
X561412D01*
X565347Y430707D02*
X562723D01*
Y428740D01*
X564035Y429395D01*
X564691D01*
X565347Y428740D01*
Y427428D01*
X564691Y426772D01*
X563379D01*
X562723Y427428D01*
X566659Y429395D02*
X567971Y426772D01*
X569283Y429395D01*
X519685Y391337D02*
Y387402D01*
X521653D01*
X522309Y388057D01*
Y388714D01*
Y389369D01*
X521653Y390025D01*
X519685D01*
X523621D02*
Y387402D01*
Y388714D01*
X524277Y389369D01*
X524933Y390025D01*
X525589D01*
X527557Y387402D02*
Y391337D01*
Y388714D02*
X529524Y390025D01*
X527557Y388714D02*
X529524Y387402D01*
X531492Y386746D02*
X534116D01*
X535428Y387402D02*
X536740D01*
X536084D01*
Y391337D01*
X535428D01*
X538708Y387402D02*
X540020D01*
X539364D01*
Y390025D01*
X538708D01*
X542643Y390681D02*
Y390025D01*
X541988D01*
X543299D01*
X542643D01*
Y388057D01*
X543299Y387402D01*
X545267Y386746D02*
X547891D01*
X549203Y387402D02*
X550515D01*
X549859D01*
Y391337D01*
X549203Y390681D01*
X555107Y387402D02*
X552483D01*
X555107Y390025D01*
Y390681D01*
X554451Y391337D01*
X553139D01*
X552483Y390681D01*
X556419Y390025D02*
X557730Y387402D01*
X559042Y390025D01*
X525592Y418898D02*
X529528D01*
Y420865D01*
X528872Y421522D01*
X528216D01*
X527560D01*
X526904Y420865D01*
Y418898D01*
Y422833D02*
X529528D01*
X528216D01*
X527560Y423489D01*
X526904Y424145D01*
Y424801D01*
X529528Y426769D02*
X525592D01*
X528216D02*
X526904Y428737D01*
X528216Y426769D02*
X529528Y428737D01*
X530184Y430705D02*
Y433329D01*
X529528Y434641D02*
Y435953D01*
Y435297D01*
X525592D01*
Y434641D01*
X529528Y437920D02*
Y439232D01*
Y438576D01*
X526904D01*
Y437920D01*
X526248Y441856D02*
X526904D01*
Y441200D01*
Y442512D01*
Y441856D01*
X528872D01*
X529528Y442512D01*
X530184Y444480D02*
Y447104D01*
X525592Y451040D02*
Y448416D01*
X527560D01*
X526904Y449728D01*
Y450384D01*
X527560Y451040D01*
X528872D01*
X529528Y450384D01*
Y449072D01*
X528872Y448416D01*
X526904Y452351D02*
X529528Y453663D01*
X526904Y454975D01*
X474672Y306823D02*
Y306167D01*
X474016D01*
X475328D01*
X474672D01*
Y304199D01*
X475328Y303543D01*
X477295D02*
X479263D01*
X479919Y304199D01*
X479263Y304855D01*
X477951D01*
X477295Y305511D01*
X477951Y306167D01*
X479919D01*
X481231Y302887D02*
X483855D01*
X485167Y303543D02*
X486479D01*
X485823D01*
Y307479D01*
X485167D01*
X488447Y303543D02*
X489759D01*
X489103D01*
Y306167D01*
X488447D01*
X491727D02*
X493039Y303543D01*
X494350Y306167D01*
X497630Y303543D02*
X496318D01*
X495662Y304199D01*
Y305511D01*
X496318Y306167D01*
X497630D01*
X498286Y305511D01*
Y304855D01*
X495662D01*
X499598Y302887D02*
X502222D01*
X506158Y307479D02*
X503534D01*
Y305511D01*
X504846Y306167D01*
X505502D01*
X506158Y305511D01*
Y304199D01*
X505502Y303543D01*
X504190D01*
X503534Y304199D01*
X507470Y306167D02*
X508781Y303543D01*
X510093Y306167D01*
X429002Y231429D02*
Y230773D01*
X428346D01*
X429658D01*
X429002D01*
Y228806D01*
X429658Y228150D01*
X431626D02*
X433594D01*
X434250Y228806D01*
X433594Y229462D01*
X432282D01*
X431626Y230118D01*
X432282Y230773D01*
X434250D01*
X435562Y227494D02*
X438186D01*
X439498Y228150D02*
X440810D01*
X440154D01*
Y232085D01*
X439498D01*
X442777Y228150D02*
X444089D01*
X443434D01*
Y230773D01*
X442777D01*
X446057D02*
X447369Y228150D01*
X448681Y230773D01*
X451961Y228150D02*
X450649D01*
X449993Y228806D01*
Y230118D01*
X450649Y230773D01*
X451961D01*
X452617Y230118D01*
Y229462D01*
X449993D01*
X453929Y227494D02*
X456553D01*
X457865Y228150D02*
X459176D01*
X458521D01*
Y232085D01*
X457865Y231429D01*
X463768Y228150D02*
X461144D01*
X463768Y230773D01*
Y231429D01*
X463112Y232085D01*
X461800D01*
X461144Y231429D01*
X465080Y230773D02*
X466392Y228150D01*
X467704Y230773D01*
X521523Y306955D02*
X522179D01*
Y306299D01*
Y307611D01*
Y306955D01*
X524147D01*
X524803Y307611D01*
Y309579D02*
Y311547D01*
X524147Y312203D01*
X523491Y311547D01*
Y310235D01*
X522835Y309579D01*
X522179Y310235D01*
Y312203D01*
X525459Y313515D02*
Y316139D01*
X524803Y317450D02*
Y319418D01*
X524147Y320074D01*
X523491Y319418D01*
Y318106D01*
X522835Y317450D01*
X522179Y318106D01*
Y320074D01*
X524803Y321386D02*
X522179D01*
Y323354D01*
X522835Y324010D01*
X524803D01*
Y325322D02*
Y327290D01*
X524147Y327946D01*
X523491Y327290D01*
Y325978D01*
X522835Y325322D01*
X522179Y325978D01*
Y327946D01*
X525459Y329258D02*
Y331881D01*
X520867Y335817D02*
Y333193D01*
X522835D01*
X522179Y334505D01*
Y335161D01*
X522835Y335817D01*
X524147D01*
X524803Y335161D01*
Y333849D01*
X524147Y333193D01*
X522179Y337129D02*
X524803Y338441D01*
X522179Y339753D01*
X443176Y238870D02*
Y238214D01*
X442520D01*
X443832D01*
X443176D01*
Y236246D01*
X443832Y235591D01*
X445799D02*
X447767D01*
X448423Y236246D01*
X447767Y236902D01*
X446455D01*
X445799Y237558D01*
X446455Y238214D01*
X448423D01*
X449735Y234935D02*
X452359D01*
X453671Y238214D02*
Y235591D01*
Y236902D01*
X454327Y237558D01*
X454983Y238214D01*
X455639D01*
X460230Y239526D02*
Y235591D01*
X458263D01*
X457607Y236246D01*
Y237558D01*
X458263Y238214D01*
X460230D01*
X461542D02*
Y236246D01*
X462198Y235591D01*
X464166D01*
Y234935D01*
X463510Y234279D01*
X462854D01*
X464166Y235591D02*
Y238214D01*
X465478Y234935D02*
X468102D01*
X469414Y235591D02*
X471382D01*
X472038Y236246D01*
X471382Y236902D01*
X470070D01*
X469414Y237558D01*
X470070Y238214D01*
X472038D01*
X473350Y235591D02*
Y238214D01*
X475317D01*
X475974Y237558D01*
Y235591D01*
X477285D02*
X479253D01*
X479909Y236246D01*
X479253Y236902D01*
X477941D01*
X477285Y237558D01*
X477941Y238214D01*
X479909D01*
X481221Y234935D02*
X483845D01*
X485157Y235591D02*
X486469D01*
X485813D01*
Y239526D01*
X485157Y238870D01*
X491060Y235591D02*
X488437D01*
X491060Y238214D01*
Y238870D01*
X490405Y239526D01*
X489093D01*
X488437Y238870D01*
X492372Y238214D02*
X493684Y235591D01*
X494996Y238214D01*
X538958Y309409D02*
X542894D01*
Y311377D01*
X542238Y312033D01*
X541582D01*
X540926D01*
X540270Y311377D01*
Y309409D01*
X542894Y313345D02*
X540270D01*
Y314001D01*
X540926Y314657D01*
X542894D01*
X540926D01*
X540270Y315313D01*
X540926Y315969D01*
X542894D01*
Y317281D02*
Y319249D01*
X542238Y319905D01*
X541582Y319249D01*
Y317937D01*
X540926Y317281D01*
X540270Y317937D01*
Y319905D01*
X543550Y321217D02*
Y323840D01*
X538958Y327776D02*
Y325152D01*
X540926D01*
X540270Y326464D01*
Y327120D01*
X540926Y327776D01*
X542238D01*
X542894Y327120D01*
Y325808D01*
X542238Y325152D01*
X540270Y329088D02*
X542894Y330400D01*
X540270Y331712D01*
X507480Y253542D02*
Y249606D01*
X509448D01*
X510104Y250262D01*
Y250918D01*
Y251574D01*
X509448Y252230D01*
X507480D01*
X511416Y249606D02*
Y252230D01*
X512072D01*
X512728Y251574D01*
Y249606D01*
Y251574D01*
X513384Y252230D01*
X514040Y251574D01*
Y249606D01*
X515352D02*
X517320D01*
X517976Y250262D01*
X517320Y250918D01*
X516008D01*
X515352Y251574D01*
X516008Y252230D01*
X517976D01*
X519287Y248950D02*
X521911D01*
X523223Y249606D02*
X524535D01*
X523879D01*
Y253542D01*
X523223Y252886D01*
X529127Y249606D02*
X526503D01*
X529127Y252230D01*
Y252886D01*
X528471Y253542D01*
X527159D01*
X526503Y252886D01*
X530439Y252230D02*
X531751Y249606D01*
X533063Y252230D01*
X559842Y311811D02*
Y313123D01*
Y312467D01*
X557219D01*
Y311811D01*
X559842Y315091D02*
X557219D01*
Y315747D01*
X557875Y316403D01*
X559842D01*
X557875D01*
X557219Y317059D01*
X557875Y317715D01*
X559842D01*
X555907Y321650D02*
X559842D01*
Y319683D01*
X559187Y319026D01*
X557875D01*
X557219Y319683D01*
Y321650D01*
X560499Y322962D02*
Y325586D01*
X555907Y329522D02*
Y326898D01*
X557875D01*
X557219Y328210D01*
Y328866D01*
X557875Y329522D01*
X559187D01*
X559842Y328866D01*
Y327554D01*
X559187Y326898D01*
X557219Y330834D02*
X559842Y332146D01*
X557219Y333458D01*
X546732Y243504D02*
X548044D01*
X547388D01*
Y246128D01*
X546732D01*
X550012Y243504D02*
Y246128D01*
X550668D01*
X551324Y245472D01*
Y243504D01*
Y245472D01*
X551980Y246128D01*
X552636Y245472D01*
Y243504D01*
X556572Y247440D02*
Y243504D01*
X554604D01*
X553948Y244160D01*
Y245472D01*
X554604Y246128D01*
X556572D01*
X557884Y242848D02*
X560507D01*
X561819Y243504D02*
X563131D01*
X562475D01*
Y247440D01*
X561819Y246784D01*
X567723Y243504D02*
X565099D01*
X567723Y246128D01*
Y246784D01*
X567067Y247440D01*
X565755D01*
X565099Y246784D01*
X569035Y246128D02*
X570347Y243504D01*
X571659Y246128D01*
X423215Y348949D02*
Y348293D01*
X422559D01*
X423871D01*
X423215D01*
Y346325D01*
X423871Y345669D01*
X425839D02*
X427807D01*
X428463Y346325D01*
X427807Y346981D01*
X426495D01*
X425839Y347637D01*
X426495Y348293D01*
X428463D01*
X429775Y345013D02*
X432398D01*
X433710Y348293D02*
Y345669D01*
Y346981D01*
X434366Y347637D01*
X435022Y348293D01*
X435678D01*
X440270Y349605D02*
Y345669D01*
X438302D01*
X437646Y346325D01*
Y347637D01*
X438302Y348293D01*
X440270D01*
X441582D02*
Y346325D01*
X442238Y345669D01*
X444206D01*
Y345013D01*
X443550Y344357D01*
X442894D01*
X444206Y345669D02*
Y348293D01*
X445517Y345013D02*
X448141D01*
X452077Y349605D02*
X449453D01*
Y347637D01*
X450765Y348293D01*
X451421D01*
X452077Y347637D01*
Y346325D01*
X451421Y345669D01*
X450109D01*
X449453Y346325D01*
X453389Y348293D02*
X454701Y345669D01*
X456013Y348293D01*
X319555Y290420D02*
X320211D01*
Y289764D01*
Y291076D01*
Y290420D01*
X322179D01*
X322835Y291076D01*
Y293044D02*
Y295011D01*
X322179Y295667D01*
X321523Y295011D01*
Y293700D01*
X320867Y293044D01*
X320211Y293700D01*
Y295667D01*
X323491Y296979D02*
Y299603D01*
X320211Y300915D02*
X322835D01*
X321523D01*
X320867Y301571D01*
X320211Y302227D01*
Y302883D01*
X318899Y307475D02*
X322835D01*
Y305507D01*
X322179Y304851D01*
X320867D01*
X320211Y305507D01*
Y307475D01*
Y308787D02*
X322179D01*
X322835Y309442D01*
Y311410D01*
X323491D01*
X324147Y310754D01*
Y310098D01*
X322835Y311410D02*
X320211D01*
X323491Y312722D02*
Y315346D01*
X322835Y316658D02*
Y317970D01*
Y317314D01*
X318899D01*
X319555Y316658D01*
X322835Y322562D02*
Y319938D01*
X320211Y322562D01*
X319555D01*
X318899Y321906D01*
Y320594D01*
X319555Y319938D01*
X320211Y323873D02*
X322835Y325185D01*
X320211Y326497D01*
X414961Y351969D02*
Y354592D01*
X415617D01*
X416272Y353936D01*
Y351969D01*
Y353936D01*
X416928Y354592D01*
X417585Y353936D01*
Y351969D01*
X421520Y354592D02*
X419552D01*
X418896Y353936D01*
Y352625D01*
X419552Y351969D01*
X421520D01*
X422832Y351313D02*
X425456D01*
X428736Y351969D02*
X427424D01*
X426768Y352625D01*
Y353936D01*
X427424Y354592D01*
X428736D01*
X429392Y353936D01*
Y353280D01*
X426768D01*
X430704Y351969D02*
Y354592D01*
X432671D01*
X433327Y353936D01*
Y351969D01*
X434639Y351313D02*
X437263D01*
X441199Y355904D02*
X438575D01*
Y353936D01*
X439887Y354592D01*
X440543D01*
X441199Y353936D01*
Y352625D01*
X440543Y351969D01*
X439231D01*
X438575Y352625D01*
X442511Y354592D02*
X443823Y351969D01*
X445135Y354592D01*
X316142Y338583D02*
X313518D01*
Y339239D01*
X314174Y339895D01*
X316142D01*
X314174D01*
X313518Y340551D01*
X314174Y341207D01*
X316142D01*
X313518Y345142D02*
Y343174D01*
X314174Y342518D01*
X315486D01*
X316142Y343174D01*
Y345142D01*
X316798Y346454D02*
Y349078D01*
X316142Y352358D02*
Y351046D01*
X315486Y350390D01*
X314174D01*
X313518Y351046D01*
Y352358D01*
X314174Y353014D01*
X314830D01*
Y350390D01*
X316142Y354326D02*
X313518D01*
Y356294D01*
X314174Y356949D01*
X316142D01*
X316798Y358261D02*
Y360885D01*
X316142Y362197D02*
Y363509D01*
Y362853D01*
X312206D01*
X312862Y362197D01*
X316142Y368101D02*
Y365477D01*
X313518Y368101D01*
X312862D01*
X312206Y367445D01*
Y366133D01*
X312862Y365477D01*
X313518Y369413D02*
X316142Y370725D01*
X313518Y372037D01*
X407480Y359449D02*
X408792D01*
X408136D01*
Y363385D01*
X407480D01*
X411416Y362729D02*
Y362073D01*
X410760D01*
X412072D01*
X411416D01*
Y360105D01*
X412072Y359449D01*
X416664Y362073D02*
X414696D01*
X414040Y361417D01*
Y360105D01*
X414696Y359449D01*
X416664D01*
X417976Y363385D02*
Y359449D01*
Y361417D01*
X418632Y362073D01*
X419944D01*
X420599Y361417D01*
Y359449D01*
X421911Y358793D02*
X424535D01*
X425847Y359449D02*
X427815D01*
X428471Y360105D01*
X427815Y360761D01*
X426503D01*
X425847Y361417D01*
X426503Y362073D01*
X428471D01*
X429783Y359449D02*
Y362073D01*
X431751D01*
X432407Y361417D01*
Y359449D01*
X433719D02*
X435686D01*
X436342Y360105D01*
X435686Y360761D01*
X434375D01*
X433719Y361417D01*
X434375Y362073D01*
X436342D01*
X437654Y358793D02*
X440278D01*
X444214Y363385D02*
X441590D01*
Y361417D01*
X442902Y362073D01*
X443558D01*
X444214Y361417D01*
Y360105D01*
X443558Y359449D01*
X442246D01*
X441590Y360105D01*
X445526Y362073D02*
X446838Y359449D01*
X448150Y362073D01*
X322441Y362598D02*
Y363910D01*
Y363254D01*
X318505D01*
Y362598D01*
X319161Y366534D02*
X319817D01*
Y365878D01*
Y367190D01*
Y366534D01*
X321785D01*
X322441Y367190D01*
X319817Y371782D02*
Y369814D01*
X320473Y369158D01*
X321785D01*
X322441Y369814D01*
Y371782D01*
X318505Y373094D02*
X322441D01*
X320473D01*
X319817Y373750D01*
Y375062D01*
X320473Y375717D01*
X322441D01*
X323097Y377029D02*
Y379653D01*
X322441Y380965D02*
Y382933D01*
X321785Y383589D01*
X321129Y382933D01*
Y381621D01*
X320473Y380965D01*
X319817Y381621D01*
Y383589D01*
X322441Y384901D02*
X319817D01*
Y386869D01*
X320473Y387525D01*
X322441D01*
Y388837D02*
Y390805D01*
X321785Y391460D01*
X321129Y390805D01*
Y389493D01*
X320473Y388837D01*
X319817Y389493D01*
Y391460D01*
X323097Y392772D02*
Y395396D01*
X322441Y396708D02*
Y398020D01*
Y397364D01*
X318505D01*
X319161Y396708D01*
X322441Y402612D02*
Y399988D01*
X319817Y402612D01*
X319161D01*
X318505Y401956D01*
Y400644D01*
X319161Y399988D01*
X319817Y403924D02*
X322441Y405236D01*
X319817Y406547D01*
X360236Y247507D02*
Y251443D01*
X362204D01*
X362860Y250787D01*
Y249475D01*
X362204Y248819D01*
X360236D01*
X364172Y251443D02*
Y249475D01*
X364828Y248819D01*
X366796D01*
Y251443D01*
X368108Y248819D02*
Y251443D01*
X368764D01*
X369420Y250787D01*
Y248819D01*
Y250787D01*
X370076Y251443D01*
X370731Y250787D01*
Y248819D01*
X372043Y247507D02*
Y251443D01*
X374011D01*
X374667Y250787D01*
Y249475D01*
X374011Y248819D01*
X372043D01*
X375979Y248163D02*
X378603D01*
X381883Y248819D02*
X380571D01*
X379915Y249475D01*
Y250787D01*
X380571Y251443D01*
X381883D01*
X382539Y250787D01*
Y250131D01*
X379915D01*
X383851Y248819D02*
Y251443D01*
X385819D01*
X386474Y250787D01*
Y248819D01*
X387786Y248163D02*
X390410D01*
X392378Y248819D02*
X393690D01*
X394346Y249475D01*
Y250787D01*
X393690Y251443D01*
X392378D01*
X391722Y250787D01*
Y249475D01*
X392378Y248819D01*
X395658Y251443D02*
Y249475D01*
X396314Y248819D01*
X398282D01*
Y251443D01*
X400250Y252099D02*
Y251443D01*
X399594D01*
X400906D01*
X400250D01*
Y249475D01*
X400906Y248819D01*
X398425Y276641D02*
Y280577D01*
X400393D01*
X401049Y279921D01*
Y278609D01*
X400393Y277953D01*
X398425D01*
X402361Y280577D02*
Y278609D01*
X403017Y277953D01*
X404985D01*
Y280577D01*
X406297Y277953D02*
Y280577D01*
X406953D01*
X407609Y279921D01*
Y277953D01*
Y279921D01*
X408265Y280577D01*
X408920Y279921D01*
Y277953D01*
X410232Y276641D02*
Y280577D01*
X412200D01*
X412856Y279921D01*
Y278609D01*
X412200Y277953D01*
X410232D01*
X414168Y277297D02*
X416792D01*
X420072Y277953D02*
X418760D01*
X418104Y278609D01*
Y279921D01*
X418760Y280577D01*
X420072D01*
X420728Y279921D01*
Y279265D01*
X418104D01*
X422040Y277953D02*
Y280577D01*
X424008D01*
X424663Y279921D01*
Y277953D01*
X360892Y237795D02*
Y241075D01*
Y239763D01*
X360236D01*
X361548D01*
X360892D01*
Y241075D01*
X361548Y241731D01*
X364172Y240419D02*
X365484D01*
X366140Y239763D01*
Y237795D01*
X364172D01*
X363516Y238451D01*
X364172Y239107D01*
X366140D01*
X367452Y237795D02*
Y240419D01*
X369420D01*
X370076Y239763D01*
Y237795D01*
X371388Y237139D02*
X374011D01*
X377291Y237795D02*
X375979D01*
X375323Y238451D01*
Y239763D01*
X375979Y240419D01*
X377291D01*
X377947Y239763D01*
Y239107D01*
X375323D01*
X379259Y237795D02*
Y240419D01*
X381227D01*
X381883Y239763D01*
Y237795D01*
X383195Y237139D02*
X385819D01*
X387786Y237795D02*
X389098D01*
X389754Y238451D01*
Y239763D01*
X389098Y240419D01*
X387786D01*
X387130Y239763D01*
Y238451D01*
X387786Y237795D01*
X391066Y240419D02*
Y238451D01*
X391722Y237795D01*
X393690D01*
Y240419D01*
X395658Y241075D02*
Y240419D01*
X395002D01*
X396314D01*
X395658D01*
Y238451D01*
X396314Y237795D01*
X412073Y283465D02*
Y286744D01*
Y285432D01*
X411417D01*
X412729D01*
X412073D01*
Y286744D01*
X412729Y287400D01*
X415353Y286088D02*
X416665D01*
X417321Y285432D01*
Y283465D01*
X415353D01*
X414697Y284120D01*
X415353Y284776D01*
X417321D01*
X418633Y283465D02*
Y286088D01*
X420601D01*
X421257Y285432D01*
Y283465D01*
X422569Y282809D02*
X425192D01*
X428472Y283465D02*
X427160D01*
X426504Y284120D01*
Y285432D01*
X427160Y286088D01*
X428472D01*
X429128Y285432D01*
Y284776D01*
X426504D01*
X430440Y283465D02*
Y286088D01*
X432408D01*
X433064Y285432D01*
Y283465D01*
X360892Y227165D02*
Y230445D01*
Y229133D01*
X360236D01*
X361548D01*
X360892D01*
Y230445D01*
X361548Y231101D01*
X364172Y229789D02*
X365484D01*
X366140Y229133D01*
Y227165D01*
X364172D01*
X363516Y227821D01*
X364172Y228477D01*
X366140D01*
X367452Y227165D02*
Y229789D01*
X369420D01*
X370076Y229133D01*
Y227165D01*
X371388Y226509D02*
X374011D01*
X375323Y225853D02*
Y229789D01*
X377291D01*
X377947Y229133D01*
Y227821D01*
X377291Y227165D01*
X375323D01*
X379259Y229789D02*
Y227821D01*
X379915Y227165D01*
X380571Y227821D01*
X381227Y227165D01*
X381883Y227821D01*
Y229789D01*
X383195Y227165D02*
Y229789D01*
X383851D01*
X384507Y229133D01*
Y227165D01*
Y229133D01*
X385163Y229789D01*
X385819Y229133D01*
Y227165D01*
X387130Y226509D02*
X389754D01*
X391722Y227165D02*
X393034D01*
X393690Y227821D01*
Y229133D01*
X393034Y229789D01*
X391722D01*
X391066Y229133D01*
Y227821D01*
X391722Y227165D01*
X395002Y229789D02*
Y227821D01*
X395658Y227165D01*
X397626D01*
Y229789D01*
X399594Y230445D02*
Y229789D01*
X398938D01*
X400250D01*
X399594D01*
Y227821D01*
X400250Y227165D01*
X435302Y296063D02*
Y299343D01*
Y298031D01*
X434646D01*
X435958D01*
X435302D01*
Y299343D01*
X435958Y299999D01*
X438581Y298687D02*
X439893D01*
X440549Y298031D01*
Y296063D01*
X438581D01*
X437925Y296719D01*
X438581Y297375D01*
X440549D01*
X441861Y296063D02*
Y298687D01*
X443829D01*
X444485Y298031D01*
Y296063D01*
X445797Y295407D02*
X448421D01*
X449733Y294751D02*
Y298687D01*
X451700D01*
X452356Y298031D01*
Y296719D01*
X451700Y296063D01*
X449733D01*
X453668Y298687D02*
Y296719D01*
X454324Y296063D01*
X454980Y296719D01*
X455636Y296063D01*
X456292Y296719D01*
Y298687D01*
X457604Y296063D02*
Y298687D01*
X458260D01*
X458916Y298031D01*
Y296063D01*
Y298031D01*
X459572Y298687D01*
X460228Y298031D01*
Y296063D01*
X553937Y454724D02*
Y460722D01*
X556936D01*
X557936Y459723D01*
Y457723D01*
X556936Y456724D01*
X553937D01*
X555936D02*
X557936Y454724D01*
X563934Y460722D02*
X561934Y459723D01*
X559935Y457723D01*
Y455724D01*
X560935Y454724D01*
X562934D01*
X563934Y455724D01*
Y456724D01*
X562934Y457723D01*
X559935D01*
X565933Y454724D02*
X567933D01*
X566933D01*
Y460722D01*
X565933Y459723D01*
X433595Y383334D02*
X434251D01*
X434907Y383990D01*
Y387269D01*
X432939D01*
X432283Y386613D01*
Y385302D01*
X432939Y384646D01*
X434907D01*
X438187D02*
X436875D01*
X436219Y385302D01*
Y386613D01*
X436875Y387269D01*
X438187D01*
X438843Y386613D01*
Y385958D01*
X436219D01*
X440155Y384646D02*
Y387269D01*
X442123D01*
X442779Y386613D01*
Y384646D01*
X444091Y383990D02*
X446714D01*
X448026Y387269D02*
Y384646D01*
Y385958D01*
X448682Y386613D01*
X449338Y387269D01*
X449994D01*
X451962D02*
X454586Y384646D01*
X453274Y385958D01*
X454586Y387269D01*
X451962Y384646D01*
X434776Y401312D02*
Y401968D01*
X434121Y402624D01*
X430841D01*
Y400656D01*
X431497Y400000D01*
X432809D01*
X433465Y400656D01*
Y402624D01*
Y405904D02*
Y404592D01*
X432809Y403936D01*
X431497D01*
X430841Y404592D01*
Y405904D01*
X431497Y406560D01*
X432153D01*
Y403936D01*
X433465Y407871D02*
X430841D01*
Y409839D01*
X431497Y410495D01*
X433465D01*
X434121Y411807D02*
Y414431D01*
X430185Y416399D02*
X430841D01*
Y415743D01*
Y417055D01*
Y416399D01*
X432809D01*
X433465Y417055D01*
X430841Y419023D02*
X433465Y421647D01*
X432153Y420335D01*
X430841Y421647D01*
X433465Y419023D01*
X482480Y294488D02*
Y297112D01*
X483136D01*
X483792Y296456D01*
Y294488D01*
Y296456D01*
X484448Y297112D01*
X485104Y296456D01*
Y294488D01*
X489040Y297112D02*
X487072D01*
X486416Y296456D01*
Y295144D01*
X487072Y294488D01*
X489040D01*
X490352Y293832D02*
X492976D01*
X494944Y297768D02*
Y297112D01*
X494287D01*
X495599D01*
X494944D01*
Y295144D01*
X495599Y294488D01*
X497567Y297112D02*
X500191Y294488D01*
X498879Y295800D01*
X500191Y297112D01*
X497567Y294488D01*
X471654Y284646D02*
Y287269D01*
X472309D01*
X472965Y286613D01*
Y284646D01*
Y286613D01*
X473621Y287269D01*
X474277Y286613D01*
Y284646D01*
X478213Y287269D02*
X476245D01*
X475589Y286613D01*
Y285302D01*
X476245Y284646D01*
X478213D01*
X479525Y283990D02*
X482149D01*
X483461Y287269D02*
Y284646D01*
Y285958D01*
X484117Y286613D01*
X484773Y287269D01*
X485429D01*
X487396D02*
X490020Y284646D01*
X488708Y285958D01*
X490020Y287269D01*
X487396Y284646D01*
X422539Y273321D02*
Y268322D01*
X423539Y267323D01*
X425538D01*
X426538Y268322D01*
Y273321D01*
X428537Y267323D02*
X430537D01*
X429537D01*
Y273321D01*
X428537Y272321D01*
X433536Y266323D02*
X437535D01*
X439534Y267323D02*
Y273321D01*
X441533Y271322D01*
X443533Y273321D01*
Y267323D01*
X404915Y420079D02*
X399917D01*
X398917Y419079D01*
Y417080D01*
X399917Y416080D01*
X404915D01*
X398917Y414081D02*
Y412081D01*
Y413081D01*
X404915D01*
X403916Y414081D01*
X397918Y409082D02*
Y405084D01*
X403916Y399085D02*
X404915Y400085D01*
Y402085D01*
X403916Y403084D01*
X399917D01*
X398917Y402085D01*
Y400085D01*
X399917Y399085D01*
X401916D01*
Y401085D01*
X474882Y263779D02*
X480880D01*
Y260781D01*
X479880Y259781D01*
X477881D01*
X476881Y260781D01*
Y263779D01*
Y261780D02*
X474882Y259781D01*
X479880Y257782D02*
X480880Y256782D01*
Y254782D01*
X479880Y253783D01*
X478881D01*
X477881Y254782D01*
Y255782D01*
Y254782D01*
X476881Y253783D01*
X475882D01*
X474882Y254782D01*
Y256782D01*
X475882Y257782D01*
X473882Y251783D02*
Y247785D01*
X474882Y245785D02*
X480880D01*
X478881Y243786D01*
X480880Y241787D01*
X474882D01*
X362598Y387008D02*
Y393006D01*
X365598D01*
X366597Y392006D01*
Y390007D01*
X365598Y389007D01*
X362598D01*
X364598D02*
X366597Y387008D01*
X368597Y392006D02*
X369596Y393006D01*
X371596D01*
X372595Y392006D01*
Y391007D01*
X371596Y390007D01*
X370596D01*
X371596D01*
X372595Y389007D01*
Y388007D01*
X371596Y387008D01*
X369596D01*
X368597Y388007D01*
X374594Y386008D02*
X378593D01*
X384591Y392006D02*
X383592Y393006D01*
X381592D01*
X380593Y392006D01*
Y388007D01*
X381592Y387008D01*
X383592D01*
X384591Y388007D01*
Y390007D01*
X382592D01*
X457480Y243701D02*
X451482D01*
Y246700D01*
X452482Y247699D01*
X454481D01*
X455481Y246700D01*
Y243701D01*
Y245700D02*
X457480Y247699D01*
Y253698D02*
Y249699D01*
X453482Y253698D01*
X452482D01*
X451482Y252698D01*
Y250698D01*
X452482Y249699D01*
X458480Y255697D02*
Y259696D01*
X457480Y261695D02*
X451482D01*
X453482Y263694D01*
X451482Y265694D01*
X457480D01*
X387894Y378740D02*
Y384738D01*
X390893D01*
X391892Y383738D01*
Y381739D01*
X390893Y380739D01*
X387894D01*
X389893D02*
X391892Y378740D01*
X397890D02*
X393892D01*
X397890Y382739D01*
Y383738D01*
X396891Y384738D01*
X394891D01*
X393892Y383738D01*
X399890Y377741D02*
X403889D01*
X409887Y383738D02*
X408887Y384738D01*
X406888D01*
X405888Y383738D01*
Y379740D01*
X406888Y378740D01*
X408887D01*
X409887Y379740D01*
Y381739D01*
X407887D01*
X437894Y283071D02*
Y289069D01*
X440893D01*
X441892Y288069D01*
Y286070D01*
X440893Y285070D01*
X437894D01*
X439893D02*
X441892Y283071D01*
X443892D02*
X445891D01*
X444891D01*
Y289069D01*
X443892Y288069D01*
X448890Y282071D02*
X452889D01*
X454888Y283071D02*
Y289069D01*
X456888Y287070D01*
X458887Y289069D01*
Y283071D01*
X414665Y408661D02*
X420663D01*
Y405662D01*
X419664Y404663D01*
X417664D01*
X416665Y405662D01*
Y408661D01*
Y406662D02*
X414665Y404663D01*
Y402663D02*
Y400664D01*
Y401664D01*
X420663D01*
X419664Y402663D01*
X413666Y397665D02*
Y393666D01*
X419664Y387668D02*
X420663Y388668D01*
Y390667D01*
X419664Y391667D01*
X415665D01*
X414665Y390667D01*
Y388668D01*
X415665Y387668D01*
X417664D01*
Y389668D01*
X411537Y229983D02*
X410537Y228983D01*
Y226984D01*
X411537Y225984D01*
X415536D01*
X416535Y226984D01*
Y228983D01*
X415536Y229983D01*
X416535Y231982D02*
Y233982D01*
Y232982D01*
X410537D01*
X411537Y231982D01*
X417535Y236981D02*
Y240979D01*
X416535Y242979D02*
X410537D01*
X412537Y244978D01*
X410537Y246977D01*
X416535D01*
X360298Y435313D02*
X359298Y436313D01*
X357299D01*
X356299Y435313D01*
Y431315D01*
X357299Y430315D01*
X359298D01*
X360298Y431315D01*
X362297Y430315D02*
X364297D01*
X363297D01*
Y436313D01*
X362297Y435313D01*
X367296Y429315D02*
X371294D01*
X377292Y435313D02*
X376293Y436313D01*
X374293D01*
X373294Y435313D01*
Y431315D01*
X374293Y430315D01*
X376293D01*
X377292Y431315D01*
Y433314D01*
X375293D01*
X430671Y635495D02*
X429671Y634495D01*
Y632496D01*
X430671Y631496D01*
X434670D01*
X435669Y632496D01*
Y634495D01*
X434670Y635495D01*
X430671Y637494D02*
X429671Y638494D01*
Y640493D01*
X430671Y641493D01*
X431671D01*
X432670Y640493D01*
Y639494D01*
Y640493D01*
X433670Y641493D01*
X434670D01*
X435669Y640493D01*
Y638494D01*
X434670Y637494D01*
X430671Y643492D02*
X429671Y644492D01*
Y646491D01*
X430671Y647491D01*
X434670D01*
X435669Y646491D01*
Y644492D01*
X434670Y643492D01*
X430671D01*
X501876Y624409D02*
X507874Y628408D01*
X501876D02*
X507874Y624409D01*
X506874Y630407D02*
X507874Y631407D01*
Y633406D01*
X506874Y634406D01*
X502876D01*
X501876Y633406D01*
Y631407D01*
X502876Y630407D01*
X503875D01*
X504875Y631407D01*
Y634406D01*
X545020Y613976D02*
X539022D01*
Y616975D01*
X540021Y617975D01*
X542021D01*
X543020Y616975D01*
Y613976D01*
Y615976D02*
X545020Y617975D01*
X539022Y623973D02*
X540021Y621974D01*
X542021Y619974D01*
X544020D01*
X545020Y620974D01*
Y622973D01*
X544020Y623973D01*
X543020D01*
X542021Y622973D01*
Y619974D01*
X540021Y625973D02*
X539022Y626972D01*
Y628971D01*
X540021Y629971D01*
X544020D01*
X545020Y628971D01*
Y626972D01*
X544020Y625973D01*
X540021D01*
X565886Y627362D02*
X571884D01*
Y624363D01*
X570884Y623363D01*
X568885D01*
X567885Y624363D01*
Y627362D01*
Y625363D02*
X565886Y623363D01*
X571884Y617365D02*
Y621364D01*
X568885D01*
X569884Y619365D01*
Y618365D01*
X568885Y617365D01*
X566886D01*
X565886Y618365D01*
Y620365D01*
X566886Y621364D01*
Y615366D02*
X565886Y614366D01*
Y612367D01*
X566886Y611367D01*
X570884D01*
X571884Y612367D01*
Y614366D01*
X570884Y615366D01*
X569884D01*
X568885Y614366D01*
Y611367D01*
X579152Y634387D02*
X580152Y635387D01*
Y637386D01*
X579152Y638386D01*
X575153D01*
X574154Y637386D01*
Y635387D01*
X575153Y634387D01*
X574154Y628389D02*
Y632388D01*
X578152Y628389D01*
X579152D01*
X580152Y629389D01*
Y631388D01*
X579152Y632388D01*
X575153Y626390D02*
X574154Y625390D01*
Y623391D01*
X575153Y622391D01*
X579152D01*
X580152Y623391D01*
Y625390D01*
X579152Y626390D01*
X578152D01*
X577153Y625390D01*
Y622391D01*
X552061Y640945D02*
X547063D01*
X546063Y639945D01*
Y637946D01*
X547063Y636946D01*
X552061D01*
Y634947D02*
Y630948D01*
X551061D01*
X547063Y634947D01*
X546063D01*
X354232Y196456D02*
Y194488D01*
Y195472D01*
X354724Y195964D01*
X355216Y196456D01*
X355708D01*
X358660Y194488D02*
X357676D01*
X357184Y194980D01*
Y195964D01*
X357676Y196456D01*
X358660D01*
X359152Y195964D01*
Y195472D01*
X357184D01*
X362104Y197440D02*
Y194488D01*
X360628D01*
X360136Y194980D01*
Y195964D01*
X360628Y196456D01*
X362104D01*
X363088D02*
Y194980D01*
X363580Y194488D01*
X365056D01*
Y196456D01*
X366039Y194488D02*
Y196456D01*
X367515D01*
X368007Y195964D01*
Y194488D01*
X368991Y193996D02*
X370959D01*
X373911Y194488D02*
X371943D01*
X373911Y196456D01*
Y196948D01*
X373419Y197440D01*
X372435D01*
X371943Y196948D01*
X397342Y196850D02*
Y194882D01*
Y195866D01*
X397834Y196358D01*
X398326Y196850D01*
X398818D01*
X401770Y194882D02*
X400786D01*
X400294Y195374D01*
Y196358D01*
X400786Y196850D01*
X401770D01*
X402262Y196358D01*
Y195866D01*
X400294D01*
X405214Y197834D02*
Y194882D01*
X403738D01*
X403246Y195374D01*
Y196358D01*
X403738Y196850D01*
X405214D01*
X406198D02*
Y195374D01*
X406690Y194882D01*
X408166D01*
Y196850D01*
X409150Y194882D02*
Y196850D01*
X410626D01*
X411118Y196358D01*
Y194882D01*
X412102Y194390D02*
X414069D01*
X415053Y194882D02*
X416037D01*
X415545D01*
Y197834D01*
X415053Y197342D01*
X440453Y195276D02*
X441437D01*
X440945D01*
Y197243D01*
X440453D01*
X442913Y195276D02*
Y197243D01*
X443405D01*
X443896Y196751D01*
Y195276D01*
Y196751D01*
X444388Y197243D01*
X444880Y196751D01*
Y195276D01*
X447832Y198227D02*
Y195276D01*
X446356D01*
X445864Y195768D01*
Y196751D01*
X446356Y197243D01*
X447832D01*
X448816Y194784D02*
X450784D01*
X452260Y195276D02*
X453244D01*
X453736Y195768D01*
Y196751D01*
X453244Y197243D01*
X452260D01*
X451768Y196751D01*
Y195768D01*
X452260Y195276D01*
X454720D02*
Y198227D01*
Y196259D02*
X456196Y197243D01*
X454720Y196259D02*
X456196Y195276D01*
X481398Y197834D02*
Y194882D01*
X482873D01*
X483365Y195374D01*
Y195866D01*
Y196358D01*
X482873Y196850D01*
X481398D01*
X484349Y194882D02*
Y196850D01*
X484841D01*
X485333Y196358D01*
Y194882D01*
Y196358D01*
X485825Y196850D01*
X486317Y196358D01*
Y194882D01*
X487301D02*
X488777D01*
X489269Y195374D01*
X488777Y195866D01*
X487793D01*
X487301Y196358D01*
X487793Y196850D01*
X489269D01*
X490253Y194390D02*
X492221D01*
X493697Y194882D02*
X494681D01*
X495173Y195374D01*
Y196358D01*
X494681Y196850D01*
X493697D01*
X493205Y196358D01*
Y195374D01*
X493697Y194882D01*
X496157D02*
Y197834D01*
Y195866D02*
X497633Y196850D01*
X496157Y195866D02*
X497633Y194882D01*
X523917Y197046D02*
Y194095D01*
X525393D01*
X525885Y194586D01*
Y195078D01*
Y195570D01*
X525393Y196062D01*
X523917D01*
X526869Y194095D02*
X528345D01*
X528837Y194586D01*
X528345Y195078D01*
X527361D01*
X526869Y195570D01*
X527361Y196062D01*
X528837D01*
X529821Y193111D02*
Y196062D01*
X531297D01*
X531789Y195570D01*
Y194586D01*
X531297Y194095D01*
X529821D01*
X534741Y197046D02*
Y194095D01*
X533265D01*
X532773Y194586D01*
Y195570D01*
X533265Y196062D01*
X534741D01*
X535725Y193603D02*
X537692D01*
X539168Y194095D02*
X540152D01*
X540644Y194586D01*
Y195570D01*
X540152Y196062D01*
X539168D01*
X538676Y195570D01*
Y194586D01*
X539168Y194095D01*
X541628D02*
Y197046D01*
Y195078D02*
X543104Y196062D01*
X541628Y195078D02*
X543104Y194095D01*
X572140Y667717D02*
X566142Y663718D01*
X572140D02*
X566142Y667717D01*
X571140Y661719D02*
X572140Y660719D01*
Y658719D01*
X571140Y657720D01*
X570140D01*
X569141Y658719D01*
Y659719D01*
Y658719D01*
X568141Y657720D01*
X567141D01*
X566142Y658719D01*
Y660719D01*
X567141Y661719D01*
X491732Y629725D02*
Y632677D01*
X490256D01*
X489764Y632185D01*
Y631693D01*
Y631201D01*
X490256Y630709D01*
X491732D01*
X488780D02*
Y632185D01*
X488288Y632677D01*
X486813D01*
Y633169D01*
X487305Y633661D01*
X487796D01*
X486813Y632677D02*
Y630709D01*
X485829Y633661D02*
Y630709D01*
X484353D01*
X483861Y631201D01*
Y632185D01*
X484353Y632677D01*
X485829D01*
X482385Y630709D02*
X481401D01*
X480909Y631201D01*
Y632677D01*
X482385D01*
X482877Y632185D01*
X482385Y631693D01*
X480909D01*
X479925Y632677D02*
X478449D01*
X477957Y632185D01*
X478449Y631693D01*
X479433D01*
X479925Y631201D01*
X479433Y630709D01*
X477957D01*
X476973Y632677D02*
X475497D01*
X475005Y632185D01*
X475497Y631693D01*
X476481D01*
X476973Y631201D01*
X476481Y630709D01*
X475005D01*
X461467Y479359D02*
Y474360D01*
X462467Y473361D01*
X464466D01*
X465466Y474360D01*
Y479359D01*
X467465Y473361D02*
X469464D01*
X468465D01*
Y479359D01*
X467465Y478359D01*
X475462Y473361D02*
Y479359D01*
X472463Y476360D01*
X476462D01*
X335433Y378636D02*
Y373638D01*
X336433Y372638D01*
X338432D01*
X339432Y373638D01*
Y378636D01*
X341431Y372638D02*
X343430D01*
X342431D01*
Y378636D01*
X341431Y377636D01*
X346429D02*
X347429Y378636D01*
X349429D01*
X350428Y377636D01*
Y373638D01*
X349429Y372638D01*
X347429D01*
X346429Y373638D01*
Y377636D01*
X564567Y515841D02*
Y510842D01*
X565567Y509842D01*
X567566D01*
X568566Y510842D01*
Y515841D01*
X570565Y514841D02*
X571565Y515841D01*
X573564D01*
X574564Y514841D01*
Y513841D01*
X573564Y512842D01*
X574564Y511842D01*
Y510842D01*
X573564Y509842D01*
X571565D01*
X570565Y510842D01*
Y511842D01*
X571565Y512842D01*
X570565Y513841D01*
Y514841D01*
X571565Y512842D02*
X573564D01*
X490065Y565748D02*
X495063D01*
X496063Y566748D01*
Y568747D01*
X495063Y569747D01*
X490065D01*
Y575745D02*
X491065Y573745D01*
X493064Y571746D01*
X495063D01*
X496063Y572746D01*
Y574745D01*
X495063Y575745D01*
X494064D01*
X493064Y574745D01*
Y571746D01*
X430085Y573130D02*
X435083D01*
X436083Y574130D01*
Y576129D01*
X435083Y577129D01*
X430085D01*
Y583127D02*
Y579128D01*
X433084D01*
X432084Y581127D01*
Y582127D01*
X433084Y583127D01*
X435083D01*
X436083Y582127D01*
Y580128D01*
X435083Y579128D01*
X496850Y604632D02*
Y609630D01*
X495851Y610630D01*
X493851D01*
X492852Y609630D01*
Y604632D01*
X487853Y610630D02*
Y604632D01*
X490852Y607631D01*
X486854D01*
X522211Y547342D02*
X527209D01*
X528209Y548342D01*
Y550342D01*
X527209Y551341D01*
X522211D01*
X523210Y553341D02*
X522211Y554340D01*
Y556340D01*
X523210Y557339D01*
X524210D01*
X525210Y556340D01*
Y555340D01*
Y556340D01*
X526209Y557339D01*
X527209D01*
X528209Y556340D01*
Y554340D01*
X527209Y553341D01*
X428884Y600610D02*
X433882D01*
X434882Y601610D01*
Y603609D01*
X433882Y604609D01*
X428884D01*
X434882Y610607D02*
Y606608D01*
X430883Y610607D01*
X429883D01*
X428884Y609607D01*
Y607608D01*
X429883Y606608D01*
X540945Y588490D02*
Y593489D01*
X539945Y594488D01*
X537946D01*
X536946Y593489D01*
Y588490D01*
X534947Y594488D02*
X532947D01*
X533947D01*
Y588490D01*
X534947Y589490D01*
X525950Y588490D02*
X529948D01*
Y591489D01*
X527949Y590489D01*
X526949D01*
X525950Y591489D01*
Y593489D01*
X526949Y594488D01*
X528949D01*
X529948Y593489D01*
X591043Y167022D02*
X595042D01*
X593043D01*
Y161024D01*
X597041D02*
X599041D01*
X598041D01*
Y167022D01*
X597041Y166022D01*
X632382Y123715D02*
Y117717D01*
X636381D01*
X642379Y123715D02*
X638380D01*
Y117717D01*
X642379D01*
X638380Y120716D02*
X640379D01*
X644378Y123715D02*
Y117717D01*
X647377D01*
X648377Y118716D01*
Y122715D01*
X647377Y123715D01*
X644378D01*
X319592Y573684D02*
Y569685D01*
X322591D01*
Y571684D01*
Y569685D01*
X325590D01*
X319592Y575683D02*
Y579682D01*
Y577682D01*
X325590D01*
X319592Y581681D02*
X325590D01*
Y584680D01*
X324591Y585680D01*
X320592D01*
X319592Y584680D01*
Y581681D01*
Y587679D02*
Y589679D01*
Y588679D01*
X325590D01*
Y587679D01*
Y589679D01*
X326590Y592678D02*
Y596676D01*
X325590Y598676D02*
X319592D01*
Y601675D01*
X320592Y602674D01*
X322591D01*
X323591Y601675D01*
Y598676D01*
Y600675D02*
X325590Y602674D01*
X319592Y608672D02*
Y604674D01*
X325590D01*
Y608672D01*
X322591Y604674D02*
Y606673D01*
X319592Y610672D02*
X325590D01*
Y613671D01*
X324591Y614671D01*
X320592D01*
X319592Y613671D01*
Y610672D01*
X502989Y498721D02*
X508987D01*
Y495721D01*
X507988Y494722D01*
X505988D01*
X504989Y495721D01*
Y498721D01*
Y496721D02*
X502989Y494722D01*
X508987Y488724D02*
Y492722D01*
X505988D01*
X506988Y490723D01*
Y489723D01*
X505988Y488724D01*
X503989D01*
X502989Y489723D01*
Y491723D01*
X503989Y492722D01*
X508987Y482726D02*
X507988Y484725D01*
X505988Y486724D01*
X503989D01*
X502989Y485725D01*
Y483725D01*
X503989Y482726D01*
X504989D01*
X505988Y483725D01*
Y486724D01*
X485438Y498721D02*
X491436D01*
Y495721D01*
X490437Y494722D01*
X488437D01*
X487437Y495721D01*
Y498721D01*
Y496721D02*
X485438Y494722D01*
X491436Y488724D02*
Y492722D01*
X488437D01*
X489437Y490723D01*
Y489723D01*
X488437Y488724D01*
X486438D01*
X485438Y489723D01*
Y491723D01*
X486438Y492722D01*
X491436Y482726D02*
Y486724D01*
X488437D01*
X489437Y484725D01*
Y483725D01*
X488437Y482726D01*
X486438D01*
X485438Y483725D01*
Y485725D01*
X486438Y486724D01*
X467717Y498819D02*
X473715D01*
Y495820D01*
X472715Y494820D01*
X470716D01*
X469716Y495820D01*
Y498819D01*
Y496819D02*
X467717Y494820D01*
X473715Y488822D02*
Y492821D01*
X470716D01*
X471715Y490822D01*
Y489822D01*
X470716Y488822D01*
X468716D01*
X467717Y489822D01*
Y491821D01*
X468716Y492821D01*
X467717Y483824D02*
X473715D01*
X470716Y486823D01*
Y482824D01*
X360728Y512598D02*
X354730D01*
Y515597D01*
X355730Y516597D01*
X357729D01*
X358729Y515597D01*
Y512598D01*
Y514598D02*
X360728Y516597D01*
X354730Y522595D02*
Y518597D01*
X357729D01*
X356730Y520596D01*
Y521595D01*
X357729Y522595D01*
X359729D01*
X360728Y521595D01*
Y519596D01*
X359729Y518597D01*
X355730Y524594D02*
X354730Y525594D01*
Y527594D01*
X355730Y528593D01*
X356730D01*
X357729Y527594D01*
Y526594D01*
Y527594D01*
X358729Y528593D01*
X359729D01*
X360728Y527594D01*
Y525594D01*
X359729Y524594D01*
X377559Y512598D02*
X371561D01*
Y515597D01*
X372561Y516597D01*
X374560D01*
X375560Y515597D01*
Y512598D01*
Y514598D02*
X377559Y516597D01*
X371561Y522595D02*
Y518597D01*
X374560D01*
X373560Y520596D01*
Y521595D01*
X374560Y522595D01*
X376559D01*
X377559Y521595D01*
Y519596D01*
X376559Y518597D01*
X377559Y528593D02*
Y524594D01*
X373560Y528593D01*
X372561D01*
X371561Y527594D01*
Y525594D01*
X372561Y524594D01*
X394488Y512598D02*
X388490D01*
Y515597D01*
X389490Y516597D01*
X391489D01*
X392489Y515597D01*
Y512598D01*
Y514598D02*
X394488Y516597D01*
X388490Y522595D02*
Y518597D01*
X391489D01*
X390490Y520596D01*
Y521595D01*
X391489Y522595D01*
X393489D01*
X394488Y521595D01*
Y519596D01*
X393489Y518597D01*
X394488Y524594D02*
Y526594D01*
Y525594D01*
X388490D01*
X389490Y524594D01*
X411614Y512402D02*
X405616D01*
Y515401D01*
X406616Y516400D01*
X408615D01*
X409615Y515401D01*
Y512402D01*
Y514401D02*
X411614Y516400D01*
X405616Y522398D02*
Y518400D01*
X408615D01*
X407616Y520399D01*
Y521399D01*
X408615Y522398D01*
X410614D01*
X411614Y521399D01*
Y519399D01*
X410614Y518400D01*
X406616Y524398D02*
X405616Y525397D01*
Y527397D01*
X406616Y528396D01*
X410614D01*
X411614Y527397D01*
Y525397D01*
X410614Y524398D01*
X406616D01*
X587795Y434646D02*
Y440644D01*
X590794D01*
X591794Y439644D01*
Y437645D01*
X590794Y436645D01*
X587795D01*
X589795D02*
X591794Y434646D01*
X596792D02*
Y440644D01*
X593793Y437645D01*
X597792D01*
X599791Y435645D02*
X600791Y434646D01*
X602790D01*
X603790Y435645D01*
Y439644D01*
X602790Y440644D01*
X600791D01*
X599791Y439644D01*
Y438644D01*
X600791Y437645D01*
X603790D01*
X572047Y424409D02*
Y430407D01*
X575046D01*
X576046Y429408D01*
Y427409D01*
X575046Y426409D01*
X572047D01*
X574047D02*
X576046Y424409D01*
X581044D02*
Y430407D01*
X578045Y427409D01*
X582044D01*
X584043Y429408D02*
X585043Y430407D01*
X587042D01*
X588042Y429408D01*
Y428408D01*
X587042Y427409D01*
X588042Y426409D01*
Y425409D01*
X587042Y424409D01*
X585043D01*
X584043Y425409D01*
Y426409D01*
X585043Y427409D01*
X584043Y428408D01*
Y429408D01*
X585043Y427409D02*
X587042D01*
X553937Y416240D02*
X559935D01*
Y413241D01*
X558935Y412241D01*
X556936D01*
X555936Y413241D01*
Y416240D01*
Y414241D02*
X553937Y412241D01*
Y407243D02*
X559935D01*
X556936Y410242D01*
Y406243D01*
X559935Y404244D02*
Y400245D01*
X558935D01*
X554937Y404244D01*
X553937D01*
X511279Y291240D02*
X517278D01*
Y288241D01*
X516278Y287241D01*
X514279D01*
X513279Y288241D01*
Y291240D01*
Y289241D02*
X511279Y287241D01*
Y282243D02*
X517278D01*
X514279Y285242D01*
Y281243D01*
X517278Y275245D02*
X516278Y277245D01*
X514279Y279244D01*
X512279D01*
X511279Y278244D01*
Y276245D01*
X512279Y275245D01*
X513279D01*
X514279Y276245D01*
Y279244D01*
X529134Y291339D02*
X535132D01*
Y288340D01*
X534132Y287340D01*
X532133D01*
X531133Y288340D01*
Y291339D01*
Y289339D02*
X529134Y287340D01*
Y282342D02*
X535132D01*
X532133Y285340D01*
Y281342D01*
X535132Y275344D02*
Y279343D01*
X532133D01*
X533133Y277343D01*
Y276343D01*
X532133Y275344D01*
X530133D01*
X529134Y276343D01*
Y278343D01*
X530133Y279343D01*
X546457Y291339D02*
X552455D01*
Y288340D01*
X551455Y287340D01*
X549456D01*
X548456Y288340D01*
Y291339D01*
Y289339D02*
X546457Y287340D01*
Y282342D02*
X552455D01*
X549456Y285340D01*
Y281342D01*
X546457Y276343D02*
X552455D01*
X549456Y279343D01*
Y275344D01*
X563779Y291339D02*
X569778D01*
Y288340D01*
X568778Y287340D01*
X566779D01*
X565779Y288340D01*
Y291339D01*
Y289339D02*
X563779Y287340D01*
Y282342D02*
X569778D01*
X566779Y285340D01*
Y281342D01*
X568778Y279343D02*
X569778Y278343D01*
Y276343D01*
X568778Y275344D01*
X567778D01*
X566779Y276343D01*
Y277343D01*
Y276343D01*
X565779Y275344D01*
X564779D01*
X563779Y276343D01*
Y278343D01*
X564779Y279343D01*
X379232Y366535D02*
Y372533D01*
X382231D01*
X383231Y371534D01*
Y369534D01*
X382231Y368535D01*
X379232D01*
X381232D02*
X383231Y366535D01*
X388229D02*
Y372533D01*
X385230Y369534D01*
X389229D01*
X395227Y366535D02*
X391228D01*
X395227Y370534D01*
Y371534D01*
X394227Y372533D01*
X392228D01*
X391228Y371534D01*
X379232Y331102D02*
Y337100D01*
X382231D01*
X383231Y336101D01*
Y334101D01*
X382231Y333102D01*
X379232D01*
X381232D02*
X383231Y331102D01*
X388229D02*
Y337100D01*
X385230Y334101D01*
X389229D01*
X391228Y331102D02*
X393228D01*
X392228D01*
Y337100D01*
X391228Y336101D01*
X379232Y348425D02*
Y354423D01*
X382231D01*
X383231Y353424D01*
Y351424D01*
X382231Y350425D01*
X379232D01*
X381232D02*
X383231Y348425D01*
X388229D02*
Y354423D01*
X385230Y351424D01*
X389229D01*
X391228Y353424D02*
X392228Y354423D01*
X394227D01*
X395227Y353424D01*
Y349425D01*
X394227Y348425D01*
X392228D01*
X391228Y349425D01*
Y353424D01*
X353445Y209055D02*
Y215053D01*
X356444D01*
X357444Y214054D01*
Y212054D01*
X356444Y211054D01*
X353445D01*
X355444D02*
X357444Y209055D01*
X359443Y214054D02*
X360443Y215053D01*
X362442D01*
X363442Y214054D01*
Y213054D01*
X362442Y212054D01*
X361442D01*
X362442D01*
X363442Y211054D01*
Y210055D01*
X362442Y209055D01*
X360443D01*
X359443Y210055D01*
X365441Y214054D02*
X366441Y215053D01*
X368440D01*
X369440Y214054D01*
Y213054D01*
X368440Y212054D01*
X369440Y211054D01*
Y210055D01*
X368440Y209055D01*
X366441D01*
X365441Y210055D01*
Y211054D01*
X366441Y212054D01*
X365441Y213054D01*
Y214054D01*
X366441Y212054D02*
X368440D01*
X396161Y209449D02*
Y215447D01*
X399160D01*
X400160Y214447D01*
Y212448D01*
X399160Y211448D01*
X396161D01*
X398161D02*
X400160Y209449D01*
X402160Y214447D02*
X403159Y215447D01*
X405159D01*
X406158Y214447D01*
Y213447D01*
X405159Y212448D01*
X404159D01*
X405159D01*
X406158Y211448D01*
Y210449D01*
X405159Y209449D01*
X403159D01*
X402160Y210449D01*
X408157Y215447D02*
X412156D01*
Y214447D01*
X408157Y210449D01*
Y209449D01*
X329528Y588976D02*
Y594974D01*
X332527D01*
X333526Y593975D01*
Y591975D01*
X332527Y590976D01*
X329528D01*
X331527D02*
X333526Y588976D01*
X335526Y593975D02*
X336525Y594974D01*
X338525D01*
X339524Y593975D01*
Y592975D01*
X338525Y591975D01*
X337525D01*
X338525D01*
X339524Y590976D01*
Y589976D01*
X338525Y588976D01*
X336525D01*
X335526Y589976D01*
X345522Y594974D02*
X343523Y593975D01*
X341524Y591975D01*
Y589976D01*
X342523Y588976D01*
X344523D01*
X345522Y589976D01*
Y590976D01*
X344523Y591975D01*
X341524D01*
X342520Y546457D02*
Y540459D01*
X339521D01*
X338521Y541458D01*
Y543458D01*
X339521Y544457D01*
X342520D01*
X340520D02*
X338521Y546457D01*
X336522Y541458D02*
X335522Y540459D01*
X333523D01*
X332523Y541458D01*
Y542458D01*
X333523Y543458D01*
X334522D01*
X333523D01*
X332523Y544457D01*
Y545457D01*
X333523Y546457D01*
X335522D01*
X336522Y545457D01*
X326525Y540459D02*
X330524D01*
Y543458D01*
X328524Y542458D01*
X327524D01*
X326525Y543458D01*
Y545457D01*
X327524Y546457D01*
X329524D01*
X330524Y545457D01*
X468110Y407618D02*
X462112D01*
Y410617D01*
X463112Y411617D01*
X465111D01*
X466111Y410617D01*
Y407618D01*
Y409618D02*
X468110Y411617D01*
X463112Y413616D02*
X462112Y414616D01*
Y416615D01*
X463112Y417615D01*
X464112D01*
X465111Y416615D01*
Y415616D01*
Y416615D01*
X466111Y417615D01*
X467110D01*
X468110Y416615D01*
Y414616D01*
X467110Y413616D01*
X468110Y422613D02*
X462112D01*
X465111Y419614D01*
Y423613D01*
X450787Y392913D02*
X444789D01*
Y395912D01*
X445789Y396912D01*
X447788D01*
X448788Y395912D01*
Y392913D01*
Y394913D02*
X450787Y396912D01*
X445789Y398911D02*
X444789Y399911D01*
Y401910D01*
X445789Y402910D01*
X446789D01*
X447788Y401910D01*
Y400911D01*
Y401910D01*
X448788Y402910D01*
X449788D01*
X450787Y401910D01*
Y399911D01*
X449788Y398911D01*
X445789Y404910D02*
X444789Y405909D01*
Y407908D01*
X445789Y408908D01*
X446789D01*
X447788Y407908D01*
Y406909D01*
Y407908D01*
X448788Y408908D01*
X449788D01*
X450787Y407908D01*
Y405909D01*
X449788Y404910D01*
X662697Y132677D02*
X668695D01*
Y129678D01*
X667695Y128679D01*
X665696D01*
X664696Y129678D01*
Y132677D01*
Y130678D02*
X662697Y128679D01*
X667695Y126679D02*
X668695Y125679D01*
Y123680D01*
X667695Y122680D01*
X666696D01*
X665696Y123680D01*
Y124680D01*
Y123680D01*
X664696Y122680D01*
X663696D01*
X662697Y123680D01*
Y125679D01*
X663696Y126679D01*
X662697Y116682D02*
Y120681D01*
X666696Y116682D01*
X667695D01*
X668695Y117682D01*
Y119681D01*
X667695Y120681D01*
X578839Y129921D02*
X572840D01*
Y132920D01*
X573840Y133920D01*
X575840D01*
X576839Y132920D01*
Y129921D01*
Y131921D02*
X578839Y133920D01*
X573840Y135919D02*
X572840Y136919D01*
Y138918D01*
X573840Y139918D01*
X574840D01*
X575840Y138918D01*
Y137919D01*
Y138918D01*
X576839Y139918D01*
X577839D01*
X578839Y138918D01*
Y136919D01*
X577839Y135919D01*
X578839Y141917D02*
Y143917D01*
Y142917D01*
X572840D01*
X573840Y141917D01*
X609055Y63386D02*
X615053D01*
Y60387D01*
X614053Y59387D01*
X612054D01*
X611055Y60387D01*
Y63386D01*
Y61387D02*
X609055Y59387D01*
Y53389D02*
Y57388D01*
X613054Y53389D01*
X614053D01*
X615053Y54389D01*
Y56388D01*
X614053Y57388D01*
X610055Y51390D02*
X609055Y50390D01*
Y48391D01*
X610055Y47391D01*
X614053D01*
X615053Y48391D01*
Y50390D01*
X614053Y51390D01*
X613054D01*
X612054Y50390D01*
Y47391D01*
X440059Y209449D02*
Y215447D01*
X443058D01*
X444058Y214447D01*
Y212448D01*
X443058Y211448D01*
X440059D01*
X442058D02*
X444058Y209449D01*
X450056D02*
X446057D01*
X450056Y213447D01*
Y214447D01*
X449056Y215447D01*
X447057D01*
X446057Y214447D01*
X452055D02*
X453055Y215447D01*
X455054D01*
X456054Y214447D01*
Y213447D01*
X455054Y212448D01*
X456054Y211448D01*
Y210449D01*
X455054Y209449D01*
X453055D01*
X452055Y210449D01*
Y211448D01*
X453055Y212448D01*
X452055Y213447D01*
Y214447D01*
X453055Y212448D02*
X455054D01*
X481398Y209055D02*
Y215053D01*
X484397D01*
X485396Y214054D01*
Y212054D01*
X484397Y211054D01*
X481398D01*
X483397D02*
X485396Y209055D01*
X491394D02*
X487396D01*
X491394Y213054D01*
Y214054D01*
X490395Y215053D01*
X488395D01*
X487396Y214054D01*
X493394Y215053D02*
X497393D01*
Y214054D01*
X493394Y210055D01*
Y209055D01*
X524311Y209055D02*
Y215053D01*
X527310D01*
X528310Y214054D01*
Y212054D01*
X527310Y211054D01*
X524311D01*
X526310D02*
X528310Y209055D01*
X534308D02*
X530309D01*
X534308Y213054D01*
Y214054D01*
X533308Y215053D01*
X531309D01*
X530309Y214054D01*
X540306Y215053D02*
X538307Y214054D01*
X536307Y212054D01*
Y210055D01*
X537307Y209055D01*
X539306D01*
X540306Y210055D01*
Y211054D01*
X539306Y212054D01*
X536307D01*
X498917Y662205D02*
Y668203D01*
X501916D01*
X502916Y667203D01*
Y665204D01*
X501916Y664204D01*
X498917D01*
X500917D02*
X502916Y662205D01*
X508914D02*
X504915D01*
X508914Y666203D01*
Y667203D01*
X507914Y668203D01*
X505915D01*
X504915Y667203D01*
X514912Y668203D02*
X510913D01*
Y665204D01*
X512913Y666203D01*
X513912D01*
X514912Y665204D01*
Y663204D01*
X513912Y662205D01*
X511913D01*
X510913Y663204D01*
X577559Y331102D02*
Y337100D01*
X580558D01*
X581558Y336101D01*
Y334101D01*
X580558Y333102D01*
X577559D01*
X579558D02*
X581558Y331102D01*
X587556D02*
X583557D01*
X587556Y335101D01*
Y336101D01*
X586556Y337100D01*
X584557D01*
X583557Y336101D01*
X589555Y331102D02*
X591554D01*
X590555D01*
Y337100D01*
X589555Y336101D01*
X480315Y660236D02*
Y666234D01*
X483314D01*
X484314Y665235D01*
Y663235D01*
X483314Y662236D01*
X480315D01*
X482314D02*
X484314Y660236D01*
X486313D02*
X488312D01*
X487313D01*
Y666234D01*
X486313Y665235D01*
X491311Y666234D02*
X495310D01*
Y665235D01*
X491311Y661236D01*
Y660236D01*
X595276Y405905D02*
X601274D01*
Y402907D01*
X600274Y401907D01*
X598275D01*
X597275Y402907D01*
Y405905D01*
Y403906D02*
X595276Y401907D01*
Y399907D02*
Y397908D01*
Y398908D01*
X601274D01*
X600274Y399907D01*
X601274Y390910D02*
Y394909D01*
X598275D01*
X599274Y392910D01*
Y391910D01*
X598275Y390910D01*
X596275D01*
X595276Y391910D01*
Y393909D01*
X596275Y394909D01*
X558996Y687008D02*
Y693006D01*
X561995D01*
X562995Y692006D01*
Y690007D01*
X561995Y689007D01*
X558996D01*
X560995D02*
X562995Y687008D01*
X564994D02*
X566993D01*
X565994D01*
Y693006D01*
X564994Y692006D01*
X569992Y687008D02*
X571992D01*
X570992D01*
Y693006D01*
X569992Y692006D01*
X633661Y525487D02*
Y519489D01*
X630662D01*
X629663Y520488D01*
Y522488D01*
X630662Y523487D01*
X633661D01*
X631662D02*
X629663Y525487D01*
X627663D02*
X625664D01*
X626664D01*
Y519489D01*
X627663Y520488D01*
X622665D02*
X621665Y519489D01*
X619666D01*
X618666Y520488D01*
Y524487D01*
X619666Y525487D01*
X621665D01*
X622665Y524487D01*
Y520488D01*
X451831Y532283D02*
X445833D01*
Y535283D01*
X446832Y536282D01*
X448832D01*
X449831Y535283D01*
Y532283D01*
Y534283D02*
X451831Y536282D01*
X450831Y538281D02*
X451831Y539281D01*
Y541281D01*
X450831Y542280D01*
X446832D01*
X445833Y541281D01*
Y539281D01*
X446832Y538281D01*
X447832D01*
X448832Y539281D01*
Y542280D01*
X499213Y593701D02*
X505211D01*
Y590702D01*
X504211Y589702D01*
X502212D01*
X501212Y590702D01*
Y593701D01*
Y591702D02*
X499213Y589702D01*
X504211Y587703D02*
X505211Y586703D01*
Y584704D01*
X504211Y583704D01*
X503211D01*
X502212Y584704D01*
X501212Y583704D01*
X500212D01*
X499213Y584704D01*
Y586703D01*
X500212Y587703D01*
X501212D01*
X502212Y586703D01*
X503211Y587703D01*
X504211D01*
X502212Y586703D02*
Y584704D01*
X472697Y544882D02*
X478695D01*
Y541883D01*
X477695Y540883D01*
X475696D01*
X474696Y541883D01*
Y544882D01*
Y542883D02*
X472697Y540883D01*
X478695Y538884D02*
Y534885D01*
X477695D01*
X473697Y538884D01*
X472697D01*
X478248Y581102D02*
X472250D01*
Y584101D01*
X473250Y585101D01*
X475249D01*
X476249Y584101D01*
Y581102D01*
Y583102D02*
X478248Y585101D01*
X472250Y591099D02*
X473250Y589100D01*
X475249Y587100D01*
X477248D01*
X478248Y588100D01*
Y590099D01*
X477248Y591099D01*
X476249D01*
X475249Y590099D01*
Y587100D01*
X548130Y688287D02*
X542132D01*
Y691286D01*
X543131Y692286D01*
X545131D01*
X546131Y691286D01*
Y688287D01*
Y690287D02*
X548130Y692286D01*
X542132Y698284D02*
Y694285D01*
X545131D01*
X544131Y696285D01*
Y697285D01*
X545131Y698284D01*
X547130D01*
X548130Y697285D01*
Y695285D01*
X547130Y694285D01*
X645866Y545368D02*
X651864D01*
Y542370D01*
X650865Y541370D01*
X648865D01*
X647865Y542370D01*
Y545368D01*
Y543369D02*
X645866Y541370D01*
Y536371D02*
X651864D01*
X648865Y539370D01*
Y535372D01*
X628543Y162545D02*
Y168543D01*
X631541D01*
X632541Y167543D01*
Y165544D01*
X631541Y164544D01*
X628543D01*
X634541Y168543D02*
X638539D01*
X636540D01*
Y162545D01*
X644537Y167543D02*
X643538Y168543D01*
X641538D01*
X640539Y167543D01*
Y163545D01*
X641538Y162545D01*
X643538D01*
X644537Y163545D01*
X656533Y168543D02*
X652535D01*
Y165544D01*
X654534D01*
X652535D01*
Y162545D01*
X658533Y166544D02*
Y163545D01*
X659532Y162545D01*
X662532D01*
Y166544D01*
X664531Y162545D02*
X667530D01*
X668530Y163545D01*
X667530Y164544D01*
X665531D01*
X664531Y165544D01*
X665531Y166544D01*
X668530D01*
X673528Y162545D02*
X671529D01*
X670529Y163545D01*
Y165544D01*
X671529Y166544D01*
X673528D01*
X674528Y165544D01*
Y164544D01*
X670529D01*
X452362Y372835D02*
Y378833D01*
X454361Y376833D01*
X456361Y378833D01*
Y372835D01*
X462359Y377833D02*
X461359Y378833D01*
X459360D01*
X458360Y377833D01*
Y373834D01*
X459360Y372835D01*
X461359D01*
X462359Y373834D01*
X464358Y378833D02*
Y373834D01*
X465358Y372835D01*
X467357D01*
X468357Y373834D01*
Y378833D01*
X528553Y99490D02*
Y105489D01*
X530553Y103489D01*
X532552Y105489D01*
Y99490D01*
X538550Y104489D02*
X537551Y105489D01*
X535551D01*
X534552Y104489D01*
Y100490D01*
X535551Y99490D01*
X537551D01*
X538550Y100490D01*
X540550Y98491D02*
X544548D01*
X546548Y99490D02*
Y105489D01*
X549547D01*
X550546Y104489D01*
Y102490D01*
X549547Y101490D01*
X546548D01*
X552546Y105489D02*
Y99490D01*
X554545Y101490D01*
X556544Y99490D01*
Y105489D01*
X558544Y99490D02*
Y105489D01*
X561543D01*
X562543Y104489D01*
Y102490D01*
X561543Y101490D01*
X558544D01*
X560543D02*
X562543Y99490D01*
X564542Y98491D02*
X568541D01*
X574539Y104489D02*
X573539Y105489D01*
X571540D01*
X570540Y104489D01*
Y103489D01*
X571540Y102490D01*
X573539D01*
X574539Y101490D01*
Y100490D01*
X573539Y99490D01*
X571540D01*
X570540Y100490D01*
X576538Y105489D02*
Y99490D01*
X578537Y101490D01*
X580537Y99490D01*
Y105489D01*
X582536D02*
X584535D01*
X583536D01*
Y99490D01*
X582536D01*
X584535D01*
X587535Y105489D02*
X591533D01*
X589534D01*
Y99490D01*
X597531Y104489D02*
X596531Y105489D01*
X594532D01*
X593533Y104489D01*
Y100490D01*
X594532Y99490D01*
X596531D01*
X597531Y100490D01*
X599531Y105489D02*
Y99490D01*
Y102490D01*
X603529D01*
Y105489D01*
Y99490D01*
X352264Y108754D02*
Y102756D01*
X356262D01*
X358262D02*
Y106755D01*
X360261Y108754D01*
X362261Y106755D01*
Y102756D01*
Y105755D01*
X358262D01*
X364260Y108754D02*
X368259D01*
X366259D01*
Y102756D01*
X374257Y107754D02*
X373257Y108754D01*
X371258D01*
X370258Y107754D01*
Y103756D01*
X371258Y102756D01*
X373257D01*
X374257Y103756D01*
X376256Y108754D02*
Y102756D01*
Y105755D01*
X380255D01*
Y108754D01*
Y102756D01*
X382254Y101756D02*
X386253D01*
X388252Y102756D02*
Y108754D01*
X391251D01*
X392251Y107754D01*
Y105755D01*
X391251Y104755D01*
X388252D01*
X390251D02*
X392251Y102756D01*
X398249Y108754D02*
X394250D01*
Y102756D01*
X398249D01*
X394250Y105755D02*
X396250D01*
X400248Y108754D02*
Y102756D01*
X404247D01*
X406246D02*
Y106755D01*
X408246Y108754D01*
X410245Y106755D01*
Y102756D01*
Y105755D01*
X406246D01*
X412244Y108754D02*
Y107754D01*
X414244Y105755D01*
X416243Y107754D01*
Y108754D01*
X414244Y105755D02*
Y102756D01*
X325683Y563324D02*
Y567323D01*
X322684D01*
Y565323D01*
Y567323D01*
X319685D01*
X325683Y561325D02*
Y557326D01*
Y559325D01*
X319685D01*
X325683Y555327D02*
X319685D01*
Y552328D01*
X320685Y551328D01*
X324683D01*
X325683Y552328D01*
Y555327D01*
Y549329D02*
Y547329D01*
Y548329D01*
X319685D01*
Y549329D01*
Y547329D01*
X318685Y544330D02*
Y540332D01*
X324683Y534334D02*
X325683Y535333D01*
Y537332D01*
X324683Y538332D01*
X320685D01*
X319685Y537332D01*
Y535333D01*
X320685Y534334D01*
X322684D01*
Y536333D01*
X319685Y532334D02*
X325683D01*
Y529335D01*
X324683Y528335D01*
X322684D01*
X321684Y529335D01*
Y532334D01*
Y530335D02*
X319685Y528335D01*
Y526336D02*
X325683D01*
X319685Y522337D01*
X325683D01*
X358797Y601267D02*
X354798D01*
Y598268D01*
X356798D01*
X354798D01*
Y595268D01*
X360796Y601267D02*
X364795D01*
X362796D01*
Y595268D01*
X366794Y601267D02*
Y595268D01*
X369794D01*
X370793Y596268D01*
Y600267D01*
X369794Y601267D01*
X366794D01*
X372793D02*
X374792D01*
X373792D01*
Y595268D01*
X372793D01*
X374792D01*
X409520Y342484D02*
X405521D01*
Y339485D01*
X407521D01*
X405521D01*
Y336486D01*
X411519Y342484D02*
Y336486D01*
X415518D01*
X417517D02*
Y340484D01*
X419517Y342484D01*
X421516Y340484D01*
Y336486D01*
Y339485D01*
X417517D01*
X427514Y341484D02*
X426514Y342484D01*
X424515D01*
X423515Y341484D01*
Y340484D01*
X424515Y339485D01*
X426514D01*
X427514Y338485D01*
Y337486D01*
X426514Y336486D01*
X424515D01*
X423515Y337486D01*
X429514Y342484D02*
Y336486D01*
Y339485D01*
X433512D01*
Y342484D01*
Y336486D01*
X479331Y687888D02*
Y681890D01*
X482330D01*
X483329Y682889D01*
Y686888D01*
X482330Y687888D01*
X479331D01*
X485329Y686888D02*
X486328Y687888D01*
X488328D01*
X489327Y686888D01*
Y685888D01*
X488328Y684889D01*
X489327Y683889D01*
Y682889D01*
X488328Y681890D01*
X486328D01*
X485329Y682889D01*
Y683889D01*
X486328Y684889D01*
X485329Y685888D01*
Y686888D01*
X486328Y684889D02*
X488328D01*
X622835Y105026D02*
Y111024D01*
X619836D01*
X618836Y110024D01*
Y106025D01*
X619836Y105026D01*
X622835D01*
X616837D02*
X612838D01*
Y106025D01*
X616837Y110024D01*
Y111024D01*
X606791Y177652D02*
Y171654D01*
X609790D01*
X610790Y172653D01*
Y176652D01*
X609790Y177652D01*
X606791D01*
X616788D02*
X614789Y176652D01*
X612789Y174653D01*
Y172653D01*
X613789Y171654D01*
X615788D01*
X616788Y172653D01*
Y173653D01*
X615788Y174653D01*
X612789D01*
X432345Y431770D02*
X431346Y432770D01*
X429346D01*
X428346Y431770D01*
Y427771D01*
X429346Y426772D01*
X431346D01*
X432345Y427771D01*
X438343Y426772D02*
X434344D01*
X438343Y430770D01*
Y431770D01*
X437344Y432770D01*
X435344D01*
X434344Y431770D01*
X440343D02*
X441342Y432770D01*
X443342D01*
X444341Y431770D01*
Y430770D01*
X443342Y429771D01*
X444341Y428771D01*
Y427771D01*
X443342Y426772D01*
X441342D01*
X440343Y427771D01*
Y428771D01*
X441342Y429771D01*
X440343Y430770D01*
Y431770D01*
X441342Y429771D02*
X443342D01*
X339432Y393778D02*
X338432Y394778D01*
X336433D01*
X335433Y393778D01*
Y389779D01*
X336433Y388779D01*
X338432D01*
X339432Y389779D01*
X345430Y388779D02*
X341431D01*
X345430Y392778D01*
Y393778D01*
X344430Y394778D01*
X342431D01*
X341431Y393778D01*
X350428Y388779D02*
Y394778D01*
X347429Y391778D01*
X351428D01*
X508387Y596912D02*
X507388Y595912D01*
Y593913D01*
X508387Y592913D01*
X512386D01*
X513386Y593913D01*
Y595912D01*
X512386Y596912D01*
X513386Y602910D02*
Y598911D01*
X509387Y602910D01*
X508387D01*
X507388Y601910D01*
Y599911D01*
X508387Y598911D01*
X513386Y608908D02*
Y604910D01*
X509387Y608908D01*
X508387D01*
X507388Y607908D01*
Y605909D01*
X508387Y604910D01*
X452030Y597518D02*
X451030Y598518D01*
X449031D01*
X448032Y597518D01*
Y593519D01*
X449031Y592520D01*
X451030D01*
X452030Y593519D01*
X458028Y592520D02*
X454030D01*
X458028Y596518D01*
Y597518D01*
X457029Y598518D01*
X455029D01*
X454030Y597518D01*
X460028Y592520D02*
X462027D01*
X461027D01*
Y598518D01*
X460028Y597518D01*
X529466Y615080D02*
X530466Y614081D01*
X532465D01*
X533465Y615080D01*
Y619079D01*
X532465Y620079D01*
X530466D01*
X529466Y619079D01*
X523468Y620079D02*
X527466D01*
X523468Y616080D01*
Y615080D01*
X524468Y614081D01*
X526467D01*
X527466Y615080D01*
X521468D02*
X520469Y614081D01*
X518469D01*
X517470Y615080D01*
Y619079D01*
X518469Y620079D01*
X520469D01*
X521468Y619079D01*
Y615080D01*
X548093Y592400D02*
X547093Y593400D01*
X545094D01*
X544095Y592400D01*
Y588401D01*
X545094Y587402D01*
X547093D01*
X548093Y588401D01*
X550093Y587402D02*
X552092D01*
X551092D01*
Y593400D01*
X550093Y592400D01*
X555091Y588401D02*
X556091Y587402D01*
X558090D01*
X559090Y588401D01*
Y592400D01*
X558090Y593400D01*
X556091D01*
X555091Y592400D01*
Y591400D01*
X556091Y590401D01*
X559090D01*
X516458Y583546D02*
X515459Y582546D01*
Y580547D01*
X516458Y579547D01*
X520457D01*
X521457Y580547D01*
Y582546D01*
X520457Y583546D01*
X521457Y585545D02*
Y587545D01*
Y586545D01*
X515459D01*
X516458Y585545D01*
Y590544D02*
X515459Y591543D01*
Y593543D01*
X516458Y594542D01*
X517458D01*
X518458Y593543D01*
X519457Y594542D01*
X520457D01*
X521457Y593543D01*
Y591543D01*
X520457Y590544D01*
X519457D01*
X518458Y591543D01*
X517458Y590544D01*
X516458D01*
X518458Y591543D02*
Y593543D01*
X479647Y600849D02*
X478648Y599849D01*
Y597850D01*
X479647Y596850D01*
X483646D01*
X484646Y597850D01*
Y599849D01*
X483646Y600849D01*
X484646Y602848D02*
Y604848D01*
Y603848D01*
X478648D01*
X479647Y602848D01*
X478648Y607847D02*
Y611846D01*
X479647D01*
X483646Y607847D01*
X484646D01*
X580058Y697798D02*
X581057Y698798D01*
Y700797D01*
X580058Y701797D01*
X576059D01*
X575059Y700797D01*
Y698798D01*
X576059Y697798D01*
X575059Y695799D02*
Y693799D01*
Y694799D01*
X581057D01*
X580058Y695799D01*
X581057Y686802D02*
Y690800D01*
X578058D01*
X579058Y688801D01*
Y687801D01*
X578058Y686802D01*
X576059D01*
X575059Y687801D01*
Y689801D01*
X576059Y690800D01*
X624936Y554056D02*
X623937Y555056D01*
X621938D01*
X620938Y554056D01*
Y550057D01*
X621938Y549057D01*
X623937D01*
X624936Y550057D01*
X626936Y549057D02*
X628935D01*
X627936D01*
Y555056D01*
X626936Y554056D01*
X634933Y549057D02*
Y555056D01*
X631934Y552057D01*
X635933D01*
X486337Y551336D02*
X487336Y552336D01*
Y554335D01*
X486337Y555335D01*
X482338D01*
X481338Y554335D01*
Y552336D01*
X482338Y551336D01*
X481338Y549336D02*
Y547337D01*
Y548337D01*
X487336D01*
X486337Y549336D01*
Y544338D02*
X487336Y543338D01*
Y541339D01*
X486337Y540339D01*
X485337D01*
X484337Y541339D01*
Y542339D01*
Y541339D01*
X483338Y540339D01*
X482338D01*
X481338Y541339D01*
Y543338D01*
X482338Y544338D01*
X482616Y563112D02*
X483615Y562112D01*
X485614D01*
X486614Y563112D01*
Y567111D01*
X485614Y568110D01*
X483615D01*
X482616Y567111D01*
X480616Y568110D02*
X478617D01*
X479616D01*
Y562112D01*
X480616Y563112D01*
X471619Y568110D02*
X475618D01*
X471619Y564112D01*
Y563112D01*
X472619Y562112D01*
X474618D01*
X475618Y563112D01*
X544608Y494156D02*
X543608Y493156D01*
Y491157D01*
X544608Y490158D01*
X548607D01*
X549606Y491157D01*
Y493156D01*
X548607Y494156D01*
X549606Y499155D02*
X543608D01*
X546607Y496156D01*
Y500154D01*
X555844Y472954D02*
X556844Y471955D01*
X558843D01*
X559842Y472954D01*
Y476953D01*
X558843Y477953D01*
X556844D01*
X555844Y476953D01*
X553844Y472954D02*
X552845Y471955D01*
X550845D01*
X549846Y472954D01*
Y473954D01*
X550845Y474954D01*
X551845D01*
X550845D01*
X549846Y475953D01*
Y476953D01*
X550845Y477953D01*
X552845D01*
X553844Y476953D01*
X592126Y644095D02*
X586128D01*
Y647093D01*
X587128Y648093D01*
X589127D01*
X590127Y647093D01*
Y644095D01*
Y646094D02*
X592126Y648093D01*
X586128Y654091D02*
Y650093D01*
X592126D01*
Y654091D01*
X589127Y650093D02*
Y652092D01*
X592126Y656091D02*
X588127D01*
X586128Y658090D01*
X588127Y660089D01*
X592126D01*
X589127D01*
Y656091D01*
X592126Y662089D02*
X586128D01*
Y665088D01*
X587128Y666087D01*
X589127D01*
X590127Y665088D01*
Y662089D01*
Y664088D02*
X592126Y666087D01*
X593126Y668087D02*
Y672085D01*
X592126Y674085D02*
X586128D01*
Y677084D01*
X587128Y678084D01*
X589127D01*
X590127Y677084D01*
Y674085D01*
X586128Y683082D02*
Y681082D01*
X587128Y680083D01*
X591126D01*
X592126Y681082D01*
Y683082D01*
X591126Y684082D01*
X587128D01*
X586128Y683082D01*
Y686081D02*
Y690080D01*
Y688080D01*
X592126D01*
X586915Y569747D02*
Y565748D01*
X589914D01*
Y567747D01*
Y565748D01*
X592913D01*
Y571746D02*
X586915D01*
Y574745D01*
X587915Y575745D01*
X589914D01*
X590914Y574745D01*
Y571746D01*
Y573745D02*
X592913Y575745D01*
X586915Y580743D02*
Y578744D01*
X587915Y577744D01*
X591914D01*
X592913Y578744D01*
Y580743D01*
X591914Y581743D01*
X587915D01*
X586915Y580743D01*
X592913Y583742D02*
X586915D01*
X592913Y587741D01*
X586915D01*
Y589740D02*
Y593739D01*
Y591740D01*
X592913D01*
X593913Y595738D02*
Y599737D01*
X592913Y601736D02*
X586915D01*
Y604735D01*
X587915Y605735D01*
X589914D01*
X590914Y604735D01*
Y601736D01*
X586915Y610734D02*
Y608734D01*
X587915Y607734D01*
X591914D01*
X592913Y608734D01*
Y610734D01*
X591914Y611733D01*
X587915D01*
X586915Y610734D01*
Y613732D02*
Y617731D01*
Y615732D01*
X592913D01*
D16*
X335138Y318504D02*
Y368898D01*
X361910Y318504D02*
Y368898D01*
X335138D02*
X361910D01*
X335138Y318504D02*
X361910D01*
X428049Y244094D02*
X440648D01*
X428049Y263779D02*
X440648D01*
Y244094D02*
Y263779D01*
X428049Y244094D02*
Y263779D01*
X375886Y406201D02*
Y418799D01*
X395571Y406201D02*
Y418799D01*
X375886Y406201D02*
X395571D01*
X375886Y418799D02*
X395571D01*
X362992Y591142D02*
X381890D01*
X362992Y549803D02*
X381890D01*
X362992D02*
Y591142D01*
X381890Y549803D02*
Y591142D01*
X328906Y577516D02*
X345008D01*
Y570516D02*
Y577516D01*
X328906Y570516D02*
X345008D01*
X328906D02*
Y577516D01*
Y566098D02*
X345008D01*
Y559098D02*
Y566098D01*
X328906Y559098D02*
X345008D01*
X328906D02*
Y566098D01*
X507480Y332382D02*
Y369193D01*
X470669Y332382D02*
Y369193D01*
X507480D01*
X470669Y332382D02*
X507480D01*
X472953Y607874D02*
Y620472D01*
X438307Y607874D02*
Y620472D01*
X472953D01*
X438307Y607874D02*
X472953D01*
X571063Y479724D02*
X590354D01*
X571063Y506102D02*
X590354D01*
Y479724D02*
Y506102D01*
X571063Y479724D02*
Y506102D01*
X478905Y679090D02*
X495008D01*
Y672090D02*
Y679090D01*
X478905Y672090D02*
X495008D01*
X478905D02*
Y679090D01*
X493307Y621063D02*
X498819D01*
X493307Y612795D02*
X498819D01*
X493307D02*
Y621063D01*
X498819Y612795D02*
Y621063D01*
X531890Y554724D02*
X551575D01*
X531890Y567323D02*
X551575D01*
X531890Y554724D02*
Y567323D01*
X551575Y554724D02*
Y567323D01*
X531496Y598228D02*
X535433D01*
X531496Y610433D02*
X535433D01*
Y598228D02*
Y610433D01*
X531496Y598228D02*
Y610433D01*
X523622Y651968D02*
X543307D01*
X523622Y639370D02*
X543307D01*
Y651968D01*
X523622Y639370D02*
Y651968D01*
X498425Y554724D02*
X518110D01*
X498425Y567323D02*
X518110D01*
X498425Y554724D02*
Y567323D01*
X518110Y554724D02*
Y567323D01*
X438445Y562106D02*
X458130D01*
X438445Y574705D02*
X458130D01*
X438445Y562106D02*
Y574705D01*
X458130Y562106D02*
Y574705D01*
X631760Y133421D02*
X647862D01*
Y126421D02*
Y133421D01*
X631760Y126421D02*
X647862D01*
X631760D02*
Y133421D01*
X643799Y157972D02*
X647736D01*
X643799Y137303D02*
X647736D01*
X512579Y434154D02*
Y460925D01*
X462185Y434154D02*
Y460925D01*
X512579D01*
X462185Y434154D02*
X512579D01*
D17*
X664169Y687402D02*
X650394D01*
Y680514D01*
X652690Y678218D01*
X654985D01*
X657281Y680514D01*
Y687402D01*
Y680514D01*
X659577Y678218D01*
X661873D01*
X664169Y680514D01*
Y687402D01*
X661873Y664443D02*
X664169Y666739D01*
Y671331D01*
X661873Y673627D01*
X659577D01*
X657281Y671331D01*
Y666739D01*
X654985Y664443D01*
X652690D01*
X650394Y666739D01*
Y671331D01*
X652690Y673627D01*
X650394Y659851D02*
X664169D01*
Y652964D01*
X661873Y650668D01*
X657281D01*
X654985Y652964D01*
Y659851D01*
X664169Y646076D02*
X650394D01*
Y639189D01*
X652690Y636893D01*
X661873D01*
X664169Y639189D01*
Y646076D01*
M02*
