%TF.GenerationSoftware,Altium Limited,Altium Designer,18.1.7 (191)*%
G04 Layer_Color=255*
%FSLAX26Y26*%
%MOIN*%
%TF.FileFunction,Pads,Bot*%
%TF.Part,Single*%
G01*
G75*
%TA.AperFunction,SMDPad,CuDef*%
%ADD12R,0.053150X0.045276*%
%ADD13R,0.045276X0.053150*%
%ADD17R,0.025591X0.068898*%
%ADD18R,0.035433X0.039370*%
%ADD21R,0.039370X0.035433*%
%ADD23R,0.035433X0.031496*%
%ADD24R,0.037402X0.033465*%
%ADD25O,0.023622X0.057087*%
%ADD47R,0.354331X0.393701*%
%TA.AperFunction,ComponentPad*%
%ADD48R,0.127953X0.070866*%
%ADD49C,0.090551*%
%ADD50C,0.098425*%
%ADD51C,0.078740*%
%ADD52C,0.129921*%
%ADD53C,0.086614*%
G04:AMPARAMS|DCode=54|XSize=90mil|YSize=40mil|CornerRadius=0mil|HoleSize=0mil|Usage=FLASHONLY|Rotation=32.000|XOffset=0mil|YOffset=0mil|HoleType=Round|Shape=Rectangle|*
%AMROTATEDRECTD54*
4,1,4,-0.027564,-0.040807,-0.048761,-0.006885,0.027564,0.040807,0.048761,0.006885,-0.027564,-0.040807,0.0*
%
%ADD54ROTATEDRECTD54*%

G04:AMPARAMS|DCode=55|XSize=90mil|YSize=40mil|CornerRadius=0mil|HoleSize=0mil|Usage=FLASHONLY|Rotation=148.000|XOffset=0mil|YOffset=0mil|HoleType=Round|Shape=Rectangle|*
%AMROTATEDRECTD55*
4,1,4,0.048761,-0.006885,0.027564,-0.040807,-0.048761,0.006885,-0.027564,0.040807,0.048761,-0.006885,0.0*
%
%ADD55ROTATEDRECTD55*%

%ADD56R,0.040000X0.090000*%
%ADD57C,0.055118*%
%TA.AperFunction,SMDPad,CuDef*%
%ADD61O,0.019685X0.064961*%
%ADD62R,0.074803X0.074803*%
%TA.AperFunction,ConnectorPad*%
%ADD63R,0.051181X0.057087*%
%ADD64R,0.055118X0.062992*%
%ADD65R,0.053150X0.015748*%
%TA.AperFunction,SMDPad,CuDef*%
%ADD66R,0.011811X0.053150*%
%ADD67R,0.053150X0.011811*%
D12*
X11025000Y3841102D02*
D03*
Y3910000D02*
D03*
X10845000Y3996102D02*
D03*
Y4065000D02*
D03*
X11620000Y4830551D02*
D03*
Y4899449D02*
D03*
X11285000Y4394449D02*
D03*
Y4325551D02*
D03*
Y4677402D02*
D03*
Y4608504D02*
D03*
X11030000Y4780551D02*
D03*
Y4849449D02*
D03*
X11565000Y4325551D02*
D03*
Y4394449D02*
D03*
X11015551Y4099449D02*
D03*
Y4030551D02*
D03*
X11395000Y4325551D02*
D03*
Y4394449D02*
D03*
X11630000Y3864449D02*
D03*
Y3795551D02*
D03*
D13*
X11679449Y4735000D02*
D03*
X11610551D02*
D03*
X10965551Y4210000D02*
D03*
X11034449D02*
D03*
X10960551Y3500394D02*
D03*
X11029449D02*
D03*
D17*
X8640000Y3989055D02*
D03*
X8690000D02*
D03*
X8740000D02*
D03*
X8790000D02*
D03*
X8840000D02*
D03*
X8890000D02*
D03*
X8940000D02*
D03*
X8990000D02*
D03*
X9040000D02*
D03*
X9090000D02*
D03*
X8640000Y3620945D02*
D03*
X8690000D02*
D03*
X8740000D02*
D03*
X8790000D02*
D03*
X8840000D02*
D03*
X8890000D02*
D03*
X8940000D02*
D03*
X8990000D02*
D03*
X9040000D02*
D03*
X9090000D02*
D03*
X10205000Y3994055D02*
D03*
X10255000D02*
D03*
X10305000D02*
D03*
X10355000D02*
D03*
X10405000D02*
D03*
X10455000D02*
D03*
X10505000D02*
D03*
X10555000D02*
D03*
X10605000D02*
D03*
X10655000D02*
D03*
X10205000Y3625945D02*
D03*
X10255000D02*
D03*
X10305000D02*
D03*
X10355000D02*
D03*
X10405000D02*
D03*
X10455000D02*
D03*
X10505000D02*
D03*
X10555000D02*
D03*
X10605000D02*
D03*
X10655000D02*
D03*
D18*
X8153425Y4390000D02*
D03*
X8206575D02*
D03*
X8345591Y3841181D02*
D03*
X8398740D02*
D03*
X10441575Y5335000D02*
D03*
X10388425D02*
D03*
X10563425Y5005000D02*
D03*
X10616575D02*
D03*
D21*
X8267165Y3846575D02*
D03*
Y3793425D02*
D03*
X10460000Y4161575D02*
D03*
Y4108425D02*
D03*
D23*
X10820000Y5220000D02*
D03*
X10898740Y5182599D02*
D03*
Y5257402D02*
D03*
D24*
X10660000Y5515591D02*
D03*
Y5464409D02*
D03*
X10565000Y5464409D02*
D03*
Y5515591D02*
D03*
X10425000Y5004409D02*
D03*
Y5055591D02*
D03*
D25*
X10515000Y5337283D02*
D03*
X10565000D02*
D03*
X10615000D02*
D03*
X10665000D02*
D03*
X10515000Y5122717D02*
D03*
X10565000D02*
D03*
X10615000D02*
D03*
X10665000D02*
D03*
D47*
X11475000Y6183622D02*
D03*
D48*
X8520000Y2769961D02*
D03*
Y2955000D02*
D03*
Y3140039D02*
D03*
D49*
X8952598Y2420000D02*
D03*
Y2124724D02*
D03*
X9740000D02*
D03*
X9543150D02*
D03*
X9740000Y2420000D02*
D03*
X9543150D02*
D03*
X9936850Y2124724D02*
D03*
Y2420000D02*
D03*
D50*
X9959016Y2688780D02*
D03*
X9984606Y3062795D02*
D03*
X9835000Y2925000D02*
D03*
X9084016Y2695079D02*
D03*
X9109606Y3069094D02*
D03*
X8960000Y2931299D02*
D03*
X10379016Y2688780D02*
D03*
X10404606Y3062795D02*
D03*
X10255000Y2925000D02*
D03*
X9519016Y2695079D02*
D03*
X9544606Y3069094D02*
D03*
X9395000Y2931299D02*
D03*
X10789449Y2685000D02*
D03*
X10815039Y3059016D02*
D03*
X10665433Y2921220D02*
D03*
D51*
X9789724Y3279331D02*
D03*
X9959016D02*
D03*
X8914724Y3285630D02*
D03*
X9084016D02*
D03*
X10209724Y3279331D02*
D03*
X10379016D02*
D03*
X9349724Y3285630D02*
D03*
X9519016D02*
D03*
X10620157Y3275551D02*
D03*
X10789449D02*
D03*
D52*
X11757441Y2978740D02*
D03*
Y4494488D02*
D03*
Y5774016D02*
D03*
D53*
X11186575Y5488583D02*
D03*
Y5370472D02*
D03*
Y5252362D02*
D03*
Y5134252D02*
D03*
Y5016142D02*
D03*
Y4898032D02*
D03*
Y4779921D02*
D03*
X11285000Y5429528D02*
D03*
Y5311417D02*
D03*
Y5193307D02*
D03*
Y5075197D02*
D03*
Y4957087D02*
D03*
Y4838976D02*
D03*
X11403110Y5429528D02*
D03*
Y5311417D02*
D03*
Y5193307D02*
D03*
Y5075197D02*
D03*
Y4957087D02*
D03*
Y4838976D02*
D03*
X11501535Y5488583D02*
D03*
Y5370472D02*
D03*
Y5252362D02*
D03*
Y5134252D02*
D03*
Y5016142D02*
D03*
Y4898032D02*
D03*
Y4779921D02*
D03*
Y3264173D02*
D03*
Y3382284D02*
D03*
Y3500394D02*
D03*
Y3618504D02*
D03*
Y3736614D02*
D03*
Y3854724D02*
D03*
Y3972835D02*
D03*
Y4090945D02*
D03*
Y4209055D02*
D03*
X11403110Y3323228D02*
D03*
Y3441339D02*
D03*
Y3559449D02*
D03*
Y3677559D02*
D03*
Y3795669D02*
D03*
Y3913780D02*
D03*
Y4031890D02*
D03*
Y4150000D02*
D03*
X11285000Y3323228D02*
D03*
Y3441339D02*
D03*
Y3559449D02*
D03*
Y3677559D02*
D03*
Y3795669D02*
D03*
Y3913780D02*
D03*
Y4031890D02*
D03*
Y4150000D02*
D03*
X11186575Y3264173D02*
D03*
Y3382284D02*
D03*
Y3500394D02*
D03*
Y3618504D02*
D03*
Y3736614D02*
D03*
Y3854724D02*
D03*
Y3972835D02*
D03*
Y4090945D02*
D03*
Y4209055D02*
D03*
D54*
X8593938Y5006380D02*
D03*
X9363938Y4995947D02*
D03*
D55*
X8593938Y4782754D02*
D03*
X9363938Y4772321D02*
D03*
D56*
X8415000Y4894567D02*
D03*
X9185000Y4884134D02*
D03*
D57*
X9820000Y5885000D02*
D03*
X9720000D02*
D03*
X9620000D02*
D03*
D61*
X8080551Y4244921D02*
D03*
X8107165D02*
D03*
X8133779D02*
D03*
X8160394D02*
D03*
X8187008D02*
D03*
X8213622D02*
D03*
X8240236D02*
D03*
X8266850D02*
D03*
X8293465D02*
D03*
X8320079D02*
D03*
X8346693D02*
D03*
X8373307D02*
D03*
X8399921D02*
D03*
X8426535D02*
D03*
X8080551Y3959488D02*
D03*
X8107165D02*
D03*
X8133779D02*
D03*
X8160394D02*
D03*
X8187008D02*
D03*
X8213622D02*
D03*
X8240236D02*
D03*
X8266850D02*
D03*
X8293465D02*
D03*
X8320079D02*
D03*
X8346693D02*
D03*
X8373307D02*
D03*
X8399921D02*
D03*
X8426535D02*
D03*
D62*
X7821850Y4147244D02*
D03*
Y4052756D02*
D03*
D63*
Y4234842D02*
D03*
Y3965157D02*
D03*
D64*
X7918307Y4225984D02*
D03*
Y3974016D02*
D03*
D65*
X7927165Y4151181D02*
D03*
Y4125591D02*
D03*
Y4100000D02*
D03*
Y4074410D02*
D03*
Y4048819D02*
D03*
D66*
X10322362Y4753309D02*
D03*
X10342047D02*
D03*
X10361732D02*
D03*
X10381417D02*
D03*
X10401102D02*
D03*
X10420787D02*
D03*
X10440472D02*
D03*
X10460157D02*
D03*
X10479843D02*
D03*
X10499528D02*
D03*
X10519213D02*
D03*
X10538898D02*
D03*
X10558583D02*
D03*
X10578268D02*
D03*
X10597953D02*
D03*
X10617638D02*
D03*
Y4300553D02*
D03*
X10597953D02*
D03*
X10578268D02*
D03*
X10558583D02*
D03*
X10538898D02*
D03*
X10519213D02*
D03*
X10499528D02*
D03*
X10479843D02*
D03*
X10460157D02*
D03*
X10440472D02*
D03*
X10420787D02*
D03*
X10401102D02*
D03*
X10381417D02*
D03*
X10361732D02*
D03*
X10342047D02*
D03*
X10322362D02*
D03*
D67*
X10696378Y4674569D02*
D03*
Y4654884D02*
D03*
Y4635199D02*
D03*
Y4615514D02*
D03*
Y4595829D02*
D03*
Y4576144D02*
D03*
Y4556459D02*
D03*
Y4536774D02*
D03*
Y4517089D02*
D03*
Y4497404D02*
D03*
Y4477718D02*
D03*
Y4458033D02*
D03*
Y4438349D02*
D03*
Y4418663D02*
D03*
Y4398978D02*
D03*
Y4379293D02*
D03*
X10243622D02*
D03*
Y4398978D02*
D03*
Y4418663D02*
D03*
Y4438349D02*
D03*
Y4458033D02*
D03*
Y4477718D02*
D03*
Y4497404D02*
D03*
Y4517089D02*
D03*
Y4536774D02*
D03*
Y4556459D02*
D03*
Y4576144D02*
D03*
Y4595829D02*
D03*
Y4615514D02*
D03*
Y4635199D02*
D03*
Y4654884D02*
D03*
Y4674569D02*
D03*
%TF.MD5,4b5f40508bd31e6aa04261e104c61c74*%
M02*
