G04*
G04 #@! TF.GenerationSoftware,Altium Limited,Altium Designer,18.1.9 (240)*
G04*
G04 Layer_Color=32768*
%FSLAX25Y25*%
%MOIN*%
G70*
G01*
G75*
%ADD10C,0.00394*%
%ADD119C,0.00197*%
D10*
X607921Y122835D02*
X611858D01*
X609890Y120866D02*
Y124803D01*
X574409Y457480D02*
X578346D01*
X576378Y455512D02*
Y459449D01*
X587795Y399213D02*
X591732D01*
X589764Y397244D02*
Y401181D01*
X668898Y271654D02*
Y275590D01*
X666929Y273622D02*
X670866D01*
X584547Y323228D02*
Y327165D01*
X582579Y325197D02*
X586516D01*
X477953Y573622D02*
X481890D01*
X479921Y571654D02*
Y575591D01*
X607480Y289370D02*
Y293307D01*
X605512Y291339D02*
X609449D01*
X481595Y342913D02*
X485335D01*
X483465Y341043D02*
Y344783D01*
X490158Y342579D02*
X493898D01*
X492028Y340709D02*
Y344449D01*
X490945Y360335D02*
Y364075D01*
X489075Y362205D02*
X492815D01*
X603543Y54724D02*
Y58661D01*
X601575Y56693D02*
X605512D01*
X346555Y343701D02*
X350492D01*
X348524Y341732D02*
Y345669D01*
X344094Y279134D02*
X348031D01*
X346063Y277165D02*
Y281102D01*
X364567Y279528D02*
Y283465D01*
X362598Y281496D02*
X366535D01*
X368701Y267028D02*
X372638D01*
X370669Y265059D02*
Y268996D01*
X381102Y279134D02*
X385039D01*
X383071Y277165D02*
Y281102D01*
X354331Y291043D02*
Y294783D01*
X352461Y292913D02*
X356201D01*
X434349Y251968D02*
Y255905D01*
X432380Y253937D02*
X436317D01*
X429134Y255315D02*
Y259252D01*
X427165Y257283D02*
X431102D01*
X440748Y277953D02*
X444488D01*
X442618Y276083D02*
Y279823D01*
X430413Y244193D02*
Y247933D01*
X428543Y246063D02*
X432283D01*
X470177Y256791D02*
Y260531D01*
X468307Y258661D02*
X472047D01*
X462303Y246949D02*
Y250689D01*
X460433Y248819D02*
X464173D01*
X412008Y253937D02*
X415748D01*
X413878Y252067D02*
Y255807D01*
X387303Y418110D02*
X391240D01*
X389272Y416142D02*
Y420079D01*
X409154Y401673D02*
Y405413D01*
X407283Y403543D02*
X411024D01*
X385925Y431201D02*
Y434941D01*
X384055Y433071D02*
X387795D01*
X376181Y412205D02*
X379921D01*
X378051Y410335D02*
Y414075D01*
X383760Y412500D02*
X387697D01*
X385729Y410532D02*
Y414468D01*
X378937Y381693D02*
X382677D01*
X380807Y379823D02*
Y383563D01*
X389173Y389370D02*
X392913D01*
X391043Y387500D02*
Y391240D01*
X318799Y586890D02*
X322736D01*
X320768Y584921D02*
Y588858D01*
X372441Y568504D02*
Y572441D01*
X370472Y570472D02*
X374409D01*
X394882Y326102D02*
Y329842D01*
X393012Y327972D02*
X396752D01*
X440256Y333071D02*
X443996D01*
X442126Y331201D02*
Y334941D01*
X356929Y611417D02*
X360669D01*
X358799Y609547D02*
Y613287D01*
X372441Y577264D02*
Y581004D01*
X370571Y579134D02*
X374311D01*
X333858Y583858D02*
X337795D01*
X335827Y581890D02*
Y585827D01*
X333858Y552362D02*
X337795D01*
X335827Y550394D02*
Y554331D01*
X373228Y551968D02*
Y555709D01*
X371358Y553839D02*
X375098D01*
X525394Y457874D02*
X529134D01*
X527264Y456004D02*
Y459744D01*
X487106Y350787D02*
X491043D01*
X489075Y348819D02*
Y352756D01*
X456693Y397638D02*
Y401575D01*
X454724Y399606D02*
X458661D01*
X464961Y397638D02*
Y401575D01*
X462992Y399606D02*
X466929D01*
X338681Y383661D02*
X342421D01*
X340551Y381791D02*
Y385531D01*
X356988Y464961D02*
X360728D01*
X358858Y463091D02*
Y466831D01*
X393504Y481496D02*
Y485433D01*
X391535Y483465D02*
X395472D01*
X450098Y429134D02*
X453839D01*
X451968Y427264D02*
Y431004D01*
X461811Y490158D02*
Y494095D01*
X459842Y492126D02*
X463779D01*
X479921Y490158D02*
Y494095D01*
X477953Y492126D02*
X481890D01*
X497244Y490158D02*
Y494095D01*
X495276Y492126D02*
X499213D01*
X366142Y517323D02*
Y521260D01*
X364173Y519291D02*
X368110D01*
X383071Y517323D02*
Y521260D01*
X381102Y519291D02*
X385039D01*
X400000Y517323D02*
Y521260D01*
X398031Y519291D02*
X401968D01*
X417126Y517126D02*
Y521063D01*
X415158Y519095D02*
X419095D01*
X440551Y635138D02*
Y638878D01*
X438681Y637008D02*
X442421D01*
X576772Y437795D02*
X580709D01*
X578740Y435827D02*
Y439764D01*
X576772Y418898D02*
X580709D01*
X578740Y416929D02*
Y420866D01*
X548425Y407579D02*
Y411516D01*
X546457Y409547D02*
X550394D01*
X563484Y232776D02*
X567224D01*
X565354Y230906D02*
Y234646D01*
X505768Y282677D02*
Y286614D01*
X503799Y284646D02*
X507736D01*
X523622Y282677D02*
Y286614D01*
X521654Y284646D02*
X525591D01*
X540945Y282677D02*
Y286614D01*
X538976Y284646D02*
X542913D01*
X558268Y282677D02*
Y286614D01*
X556299Y284646D02*
X560236D01*
X542913Y424409D02*
Y428346D01*
X540945Y426378D02*
X544882D01*
X453661Y614173D02*
X457598D01*
X455630Y612205D02*
Y616142D01*
X580709Y490945D02*
Y494882D01*
X578740Y492913D02*
X582677D01*
X555118Y494095D02*
Y498032D01*
X553150Y496063D02*
X557087D01*
X551968Y483681D02*
X555905D01*
X553937Y481712D02*
Y485649D01*
X531890Y249213D02*
Y253150D01*
X529921Y251181D02*
X533858D01*
X383957Y361024D02*
X387894D01*
X385925Y359055D02*
Y362992D01*
X383957Y342913D02*
X387894D01*
X385925Y340945D02*
Y344882D01*
X383957Y325590D02*
X387894D01*
X385925Y323622D02*
Y327559D01*
X485295Y653937D02*
X489232D01*
X487264Y651968D02*
Y655905D01*
X553248Y693012D02*
Y696949D01*
X551279Y694980D02*
X555217D01*
X563484Y698524D02*
X567421D01*
X565453Y696555D02*
Y700492D01*
X640354Y536707D02*
Y540644D01*
X638386Y538676D02*
X642323D01*
X503543Y656693D02*
X507480D01*
X505512Y654724D02*
Y658661D01*
X563484Y680709D02*
X567421D01*
X565453Y678740D02*
Y682677D01*
X625000Y530998D02*
X628937D01*
X626968Y529030D02*
Y532967D01*
X491043Y599213D02*
X494783D01*
X492913Y597342D02*
Y601083D01*
X496063Y614961D02*
Y618898D01*
X494095Y616929D02*
X498032D01*
X527658Y582283D02*
X531398D01*
X529528Y580413D02*
Y584154D01*
X510630Y583563D02*
Y587303D01*
X508760Y585433D02*
X512500D01*
X451673Y587795D02*
X455413D01*
X453543Y585925D02*
Y589665D01*
X526476Y625197D02*
X530217D01*
X528346Y623327D02*
Y627067D01*
X547736Y582283D02*
X551476D01*
X549606Y580413D02*
Y584154D01*
X541732Y559055D02*
Y562992D01*
X539764Y561024D02*
X543701D01*
X563524Y633110D02*
Y637047D01*
X561555Y635079D02*
X565492D01*
X558405Y620669D02*
X562343D01*
X560374Y618701D02*
Y622638D01*
X548563Y620669D02*
X552500D01*
X550531Y618701D02*
Y622638D01*
X469921Y552185D02*
X473858D01*
X471890Y550216D02*
Y554153D01*
X531496Y604331D02*
X535433D01*
X533465Y602362D02*
Y606299D01*
Y643701D02*
Y647638D01*
X531496Y645669D02*
X535433D01*
X508268Y559055D02*
Y562992D01*
X506299Y561024D02*
X510236D01*
X448287Y566437D02*
Y570374D01*
X446319Y568405D02*
X450256D01*
X467185Y536614D02*
Y540551D01*
X465216Y538583D02*
X469153D01*
X457342Y536614D02*
Y540551D01*
X455374Y538583D02*
X459311D01*
X483858Y585433D02*
Y589370D01*
X481890Y587402D02*
X485827D01*
X493701Y585433D02*
Y589370D01*
X491732Y587402D02*
X495669D01*
X605512Y274410D02*
X609449D01*
X607480Y272441D02*
Y276378D01*
X616142Y351969D02*
Y355906D01*
X614173Y353937D02*
X618110D01*
X591339Y248031D02*
X595276D01*
X593307Y246063D02*
Y250000D01*
X605512Y325984D02*
X609449D01*
X607480Y324016D02*
Y327953D01*
X605512Y308661D02*
X609449D01*
X607480Y306693D02*
Y310630D01*
X633228Y357874D02*
Y361811D01*
X631260Y359842D02*
X635197D01*
X634646Y334252D02*
Y338189D01*
X632677Y336221D02*
X636614D01*
X669291Y387402D02*
X673228D01*
X671260Y385433D02*
Y389370D01*
X610236Y369291D02*
Y373228D01*
X608268Y371260D02*
X612205D01*
X657185Y124409D02*
Y128347D01*
X655217Y126378D02*
X659154D01*
X584744Y134646D02*
Y138583D01*
X582776Y136614D02*
X586713D01*
X606398Y147638D02*
X610335D01*
X608366Y145669D02*
Y149606D01*
X615453Y163386D02*
Y167323D01*
X613484Y165354D02*
X617421D01*
X359744Y201575D02*
Y205512D01*
X357776Y203543D02*
X361713D01*
X370374Y165748D02*
Y169685D01*
X368406Y167717D02*
X372342D01*
X402461Y201969D02*
Y205906D01*
X400492Y203937D02*
X404429D01*
X413484Y166142D02*
Y170079D01*
X411516Y168110D02*
X415453D01*
X446457Y201969D02*
Y205906D01*
X444488Y203937D02*
X448425D01*
X499114Y165748D02*
Y169685D01*
X497146Y167717D02*
X501083D01*
X541240Y165748D02*
Y169685D01*
X539272Y167717D02*
X543209D01*
X530610Y201575D02*
Y205512D01*
X528642Y203543D02*
X532579D01*
X456201Y166142D02*
Y170079D01*
X454232Y168110D02*
X458169D01*
X487697Y201575D02*
Y205512D01*
X485728Y203543D02*
X489665D01*
X645768Y145669D02*
Y149606D01*
X643799Y147638D02*
X647736D01*
X420079Y318504D02*
Y322441D01*
X418110Y320472D02*
X422047D01*
X626968Y540250D02*
Y544187D01*
X625000Y542219D02*
X628937D01*
X485413Y447539D02*
X489350D01*
X487382Y445571D02*
Y449508D01*
D119*
X596799Y112736D02*
Y132933D01*
X622980Y112736D02*
Y132933D01*
X596799D02*
X622980D01*
X596799Y112736D02*
X622980D01*
X569685Y453740D02*
Y461221D01*
X583071Y453740D02*
Y461221D01*
X569685D02*
X583071D01*
X569685Y453740D02*
X583071D01*
X593504Y392520D02*
Y405905D01*
X586024Y392520D02*
Y405905D01*
X593504D01*
X586024Y392520D02*
X593504D01*
X658661Y506465D02*
Y517095D01*
X652362Y506465D02*
Y517095D01*
X658661D01*
X652362Y506465D02*
X658661D01*
X662205Y277362D02*
X675591D01*
X662205Y269882D02*
X675591D01*
Y277362D01*
X662205Y269882D02*
Y277362D01*
X577854Y328937D02*
X591240D01*
X577854Y321457D02*
X591240D01*
X577854D02*
Y328937D01*
X591240Y321457D02*
Y328937D01*
X486614Y569882D02*
Y577362D01*
X473228Y569882D02*
Y577362D01*
Y569882D02*
X486614D01*
X473228Y577362D02*
X486614D01*
X600787Y287598D02*
X614173D01*
X600787Y295079D02*
X614173D01*
X600787Y287598D02*
Y295079D01*
X614173Y287598D02*
Y295079D01*
X486417Y337598D02*
Y348228D01*
X480512Y337598D02*
Y348228D01*
Y337598D02*
X486417D01*
X480512Y348228D02*
X486417D01*
X494980Y337264D02*
Y347894D01*
X489075Y337264D02*
Y347894D01*
Y337264D02*
X494980D01*
X489075Y347894D02*
X494980D01*
X485630Y359252D02*
X496260D01*
X485630Y365158D02*
X496260D01*
X485630Y359252D02*
Y365158D01*
X496260Y359252D02*
Y365158D01*
X599803Y50000D02*
X607283D01*
X599803Y63386D02*
X607283D01*
X599803Y50000D02*
Y63386D01*
X607283Y50000D02*
Y63386D01*
X325787Y317520D02*
Y369882D01*
X371260Y317520D02*
Y369882D01*
X325787D02*
X371260D01*
X325787Y317520D02*
X371260D01*
X342323Y272441D02*
Y285827D01*
X349803Y272441D02*
Y285827D01*
X342323D02*
X349803D01*
X342323Y272441D02*
X349803D01*
X355807Y276378D02*
X373327D01*
X355807Y286614D02*
X373327D01*
X355807Y276378D02*
Y286614D01*
X373327Y276378D02*
Y286614D01*
X366929Y260335D02*
Y273721D01*
X374410Y260335D02*
Y273721D01*
X366929D02*
X374410D01*
X366929Y260335D02*
X374410D01*
X379331Y272441D02*
Y285827D01*
X386811Y272441D02*
Y285827D01*
X379331D02*
X386811D01*
X379331Y272441D02*
X386811D01*
X349016Y295866D02*
X359646D01*
X349016Y289961D02*
X359646D01*
Y295866D01*
X349016Y289961D02*
Y295866D01*
X419782Y243110D02*
X448915D01*
X419782Y264764D02*
X448915D01*
Y243110D02*
Y264764D01*
X419782Y243110D02*
Y264764D01*
X423032Y251142D02*
X435236D01*
X423032Y263425D02*
X435236D01*
X423032Y251142D02*
Y263425D01*
X435236Y251142D02*
Y263425D01*
X437303Y275000D02*
Y280906D01*
X447933Y275000D02*
Y280906D01*
X437303D02*
X447933D01*
X437303Y275000D02*
X447933D01*
X425098Y249016D02*
X435728D01*
X425098Y243110D02*
X435728D01*
Y249016D01*
X425098Y243110D02*
Y249016D01*
X467224Y263976D02*
X473130D01*
X467224Y253346D02*
X473130D01*
Y263976D01*
X467224Y253346D02*
Y263976D01*
X459350Y254134D02*
X465256D01*
X459350Y243504D02*
X465256D01*
Y254134D01*
X459350Y243504D02*
Y254134D01*
X410925Y248622D02*
Y259252D01*
X416831Y248622D02*
Y259252D01*
X410925Y248622D02*
X416831D01*
X410925Y259252D02*
X416831D01*
X383130Y412008D02*
Y424213D01*
X395413Y412008D02*
Y424213D01*
X383130D02*
X395413D01*
X383130Y412008D02*
X395413D01*
X406201Y408858D02*
X412106D01*
X406201Y398228D02*
X412106D01*
Y408858D01*
X406201Y398228D02*
Y408858D01*
X380610Y436024D02*
X391240D01*
X380610Y430118D02*
X391240D01*
X380610D02*
Y436024D01*
X391240Y430118D02*
Y436024D01*
X381004Y406890D02*
Y417520D01*
X375098Y406890D02*
Y417520D01*
Y406890D02*
X381004D01*
X375098Y417520D02*
X381004D01*
X374902Y397933D02*
Y427067D01*
X396555Y397933D02*
Y427067D01*
X374902Y397933D02*
X396555D01*
X374902Y427067D02*
X396555D01*
X386122Y378740D02*
Y384646D01*
X375492Y378740D02*
Y384646D01*
Y378740D02*
X386122D01*
X375492Y384646D02*
X386122D01*
X396358Y386417D02*
Y392323D01*
X385728Y386417D02*
Y392323D01*
Y386417D02*
X396358D01*
X385728Y392323D02*
X396358D01*
X298228Y570157D02*
X323819D01*
X298228Y603622D02*
X323819D01*
X298228Y570157D02*
Y603622D01*
X323819Y570157D02*
Y603622D01*
X353937Y592126D02*
X390945D01*
X353937Y548819D02*
X390945D01*
X353937D02*
Y592126D01*
X390945Y548819D02*
Y592126D01*
X391929Y322657D02*
X397835D01*
X391929Y333287D02*
X397835D01*
Y322657D02*
Y333287D01*
X391929Y322657D02*
Y333287D01*
X439173Y327756D02*
Y338386D01*
X445079Y327756D02*
Y338386D01*
X439173D02*
X445079D01*
X439173Y327756D02*
X445079D01*
X364114Y608465D02*
Y614370D01*
X353484Y608465D02*
Y614370D01*
X364114D01*
X353484Y608465D02*
X364114D01*
X369488Y573819D02*
X375394D01*
X369488Y584449D02*
X375394D01*
Y573819D02*
Y584449D01*
X369488Y573819D02*
Y584449D01*
X329134Y580118D02*
Y587598D01*
X342520Y580118D02*
Y587598D01*
X329134D02*
X342520D01*
X329134Y580118D02*
X342520D01*
X329134Y548622D02*
Y556102D01*
X342520Y548622D02*
Y556102D01*
X329134D02*
X342520D01*
X329134Y548622D02*
X342520D01*
X370276Y559154D02*
X376181D01*
X370276Y548524D02*
X376181D01*
X370276D02*
Y559154D01*
X376181Y548524D02*
Y559154D01*
X532579Y454921D02*
Y460827D01*
X521949Y454921D02*
Y460827D01*
X532579D01*
X521949Y454921D02*
X532579D01*
X515256Y324606D02*
Y376969D01*
X462894Y324606D02*
Y376969D01*
X515256D01*
X462894Y324606D02*
X515256D01*
X452953Y406299D02*
X460433D01*
X452953Y392913D02*
X460433D01*
Y406299D01*
X452953Y392913D02*
Y406299D01*
X461221D02*
X468701D01*
X461221Y392913D02*
X468701D01*
Y406299D01*
X461221Y392913D02*
Y406299D01*
X335236Y380709D02*
Y386614D01*
X345866Y380709D02*
Y386614D01*
X335236D02*
X345866D01*
X335236Y380709D02*
X345866D01*
X353543Y462008D02*
Y467913D01*
X364173Y462008D02*
Y467913D01*
X353543Y462008D02*
X364173D01*
X353543Y467913D02*
X364173D01*
X367323Y460728D02*
X419685D01*
X367323Y506201D02*
X419685D01*
Y460728D02*
Y506201D01*
X367323Y460728D02*
Y506201D01*
X446654Y426181D02*
Y432087D01*
X457283Y426181D02*
Y432087D01*
X446654D02*
X457283D01*
X446654Y426181D02*
X457283D01*
X458071Y498819D02*
X465551D01*
X458071Y485433D02*
X465551D01*
Y498819D01*
X458071Y485433D02*
Y498819D01*
X476181D02*
X483661D01*
X476181Y485433D02*
X483661D01*
Y498819D01*
X476181Y485433D02*
Y498819D01*
X493504D02*
X500984D01*
X493504Y485433D02*
X500984D01*
Y498819D01*
X493504Y485433D02*
Y498819D01*
X362402Y512598D02*
X369882D01*
X362402Y525984D02*
X369882D01*
X362402Y512598D02*
Y525984D01*
X369882Y512598D02*
Y525984D01*
X379331Y512598D02*
X386811D01*
X379331Y525984D02*
X386811D01*
X379331Y512598D02*
Y525984D01*
X386811Y512598D02*
Y525984D01*
X396260Y512598D02*
X403740D01*
X396260Y525984D02*
X403740D01*
X396260Y512598D02*
Y525984D01*
X403740Y512598D02*
Y525984D01*
X413386Y512402D02*
X420866D01*
X413386Y525787D02*
X420866D01*
X413386Y512402D02*
Y525787D01*
X420866Y512402D02*
Y525787D01*
X437598Y642323D02*
X443504D01*
X437598Y631693D02*
X443504D01*
Y642323D01*
X437598Y631693D02*
Y642323D01*
X572047Y434055D02*
Y441535D01*
X585433Y434055D02*
Y441535D01*
X572047D02*
X585433D01*
X572047Y434055D02*
X585433D01*
X572047Y415158D02*
Y422638D01*
X585433Y415158D02*
Y422638D01*
X572047D02*
X585433D01*
X572047Y415158D02*
X585433D01*
X544685Y416240D02*
X552165D01*
X544685Y402854D02*
X552165D01*
Y416240D01*
X544685Y402854D02*
Y416240D01*
X560039Y229823D02*
Y235728D01*
X570669Y229823D02*
Y235728D01*
X560039Y229823D02*
X570669D01*
X560039Y235728D02*
X570669D01*
X502028Y277953D02*
X509508D01*
X502028Y291339D02*
X509508D01*
X502028Y277953D02*
Y291339D01*
X509508Y277953D02*
Y291339D01*
X519882Y277953D02*
X527362D01*
X519882Y291339D02*
X527362D01*
X519882Y277953D02*
Y291339D01*
X527362Y277953D02*
Y291339D01*
X537205Y277953D02*
X544685D01*
X537205Y291339D02*
X544685D01*
X537205Y277953D02*
Y291339D01*
X544685Y277953D02*
Y291339D01*
X554528Y291339D02*
X562008D01*
X554528Y277953D02*
X562008D01*
Y291339D01*
X554528Y277953D02*
Y291339D01*
X520177Y452559D02*
X565650D01*
X520177Y400197D02*
X565650D01*
Y452559D01*
X520177Y400197D02*
Y452559D01*
X473937Y599606D02*
Y628740D01*
X437323Y599606D02*
Y628740D01*
X473937D01*
X437323Y599606D02*
X473937D01*
X563976Y478740D02*
X597441D01*
X563976Y507087D02*
X597441D01*
Y478740D02*
Y507087D01*
X563976Y478740D02*
Y507087D01*
X551378Y502756D02*
X558858D01*
X551378Y489370D02*
X558858D01*
Y502756D01*
X551378Y489370D02*
Y502756D01*
X547244Y479941D02*
Y487421D01*
X560630Y479941D02*
Y487421D01*
X547244D02*
X560630D01*
X547244Y479941D02*
X560630D01*
X505709Y228445D02*
X558071D01*
X505709Y273917D02*
X558071D01*
Y228445D02*
Y273917D01*
X505709Y228445D02*
Y273917D01*
X379232Y357283D02*
Y364764D01*
X392618Y357283D02*
Y364764D01*
X379232D02*
X392618D01*
X379232Y357283D02*
X392618D01*
X379232Y339173D02*
Y346654D01*
X392618Y339173D02*
Y346654D01*
X379232D02*
X392618D01*
X379232Y339173D02*
X392618D01*
X379232Y321850D02*
Y329331D01*
X392618Y321850D02*
Y329331D01*
X379232D02*
X392618D01*
X379232Y321850D02*
X392618D01*
X480571Y650197D02*
Y657677D01*
X493957Y650197D02*
Y657677D01*
X480571D02*
X493957D01*
X480571Y650197D02*
X493957D01*
X549508Y701673D02*
X556988D01*
X549508Y688287D02*
X556988D01*
Y701673D01*
X549508Y688287D02*
Y701673D01*
X572146Y694783D02*
Y702264D01*
X558760Y694783D02*
Y702264D01*
Y694783D02*
X572146D01*
X558760Y702264D02*
X572146D01*
X636614Y545368D02*
X644095D01*
X636614Y531983D02*
X644095D01*
Y545368D01*
X636614Y531983D02*
Y545368D01*
X512205Y652953D02*
Y660433D01*
X498819Y652953D02*
Y660433D01*
Y652953D02*
X512205D01*
X498819Y660433D02*
X512205D01*
X572146Y676968D02*
Y684449D01*
X558760Y676968D02*
Y684449D01*
Y676968D02*
X572146D01*
X558760Y684449D02*
X572146D01*
X620276Y527258D02*
Y534739D01*
X633661Y527258D02*
Y534739D01*
X620276D02*
X633661D01*
X620276Y527258D02*
X633661D01*
X498228Y596260D02*
Y602165D01*
X487598Y596260D02*
Y602165D01*
Y596260D02*
X498228D01*
X487598Y602165D02*
X498228D01*
X487303Y622047D02*
X504823D01*
X487303Y611811D02*
X504823D01*
X487303D02*
Y622047D01*
X504823Y611811D02*
Y622047D01*
X534842Y579331D02*
Y585236D01*
X524213Y579331D02*
Y585236D01*
Y579331D02*
X534842D01*
X524213Y585236D02*
X534842D01*
X507677Y590748D02*
X513583D01*
X507677Y580118D02*
X513583D01*
Y590748D01*
X507677Y580118D02*
Y590748D01*
X458858Y584842D02*
Y590748D01*
X448228Y584842D02*
Y590748D01*
Y584842D02*
X458858D01*
X448228Y590748D02*
X458858D01*
X523032Y622244D02*
Y628150D01*
X533661Y622244D02*
Y628150D01*
X523032D02*
X533661D01*
X523032Y622244D02*
X533661D01*
X554921Y579331D02*
Y585236D01*
X544291Y579331D02*
Y585236D01*
Y579331D02*
X554921D01*
X544291Y585236D02*
X554921D01*
X530905Y546457D02*
X552559D01*
X530905Y575591D02*
X552559D01*
X530905Y546457D02*
Y575591D01*
X552559Y546457D02*
Y575591D01*
X556831Y638819D02*
X570217D01*
X556831Y631339D02*
X570217D01*
X556831D02*
Y638819D01*
X570217Y631339D02*
Y638819D01*
X556634Y613976D02*
Y627362D01*
X564114Y613976D02*
Y627362D01*
X556634Y613976D02*
X564114D01*
X556634Y627362D02*
X564114D01*
X554272Y613976D02*
Y627362D01*
X546791Y613976D02*
Y627362D01*
X554272D01*
X546791Y613976D02*
X554272D01*
X478582Y548445D02*
Y555925D01*
X465197Y548445D02*
Y555925D01*
Y548445D02*
X478582D01*
X465197Y555925D02*
X478582D01*
X541732Y597244D02*
Y611417D01*
X525197Y597244D02*
Y611417D01*
Y597244D02*
X541732D01*
X525197Y611417D02*
X541732D01*
X522638Y660236D02*
X544291D01*
X522638Y631102D02*
X544291D01*
Y660236D01*
X522638Y631102D02*
Y660236D01*
X497441Y546457D02*
X519095D01*
X497441Y575591D02*
X519095D01*
X497441Y546457D02*
Y575591D01*
X519095Y546457D02*
Y575591D01*
X437461Y553839D02*
X459114D01*
X437461Y582972D02*
X459114D01*
X437461Y553839D02*
Y582972D01*
X459114Y553839D02*
Y582972D01*
X463445Y545276D02*
X470925D01*
X463445Y531890D02*
X470925D01*
Y545276D01*
X463445Y531890D02*
Y545276D01*
X453602Y531890D02*
X461083D01*
X453602Y545276D02*
X461083D01*
X453602Y531890D02*
Y545276D01*
X461083Y531890D02*
Y545276D01*
X480118Y580709D02*
X487598D01*
X480118Y594095D02*
X487598D01*
X480118Y580709D02*
Y594095D01*
X487598Y580709D02*
Y594095D01*
X489961Y594095D02*
X497441D01*
X489961Y580709D02*
X497441D01*
Y594095D01*
X489961Y580709D02*
Y594095D01*
X614173Y270669D02*
Y278150D01*
X600787Y270669D02*
Y278150D01*
X614173D01*
X600787Y270669D02*
X614173D01*
X612402Y360630D02*
X619882D01*
X612402Y347244D02*
X619882D01*
X612402D02*
Y360630D01*
X619882Y347244D02*
Y360630D01*
X600000Y244291D02*
Y251772D01*
X586614Y244291D02*
Y251772D01*
X600000D01*
X586614Y244291D02*
X600000D01*
X614173Y322244D02*
Y329724D01*
X600787Y322244D02*
Y329724D01*
X614173D01*
X600787Y322244D02*
X614173D01*
Y304921D02*
Y312402D01*
X600787Y304921D02*
Y312402D01*
X614173D01*
X600787Y304921D02*
X614173D01*
X629488Y366535D02*
X636969D01*
X629488Y353150D02*
X636969D01*
X629488D02*
Y366535D01*
X636969Y353150D02*
Y366535D01*
X630905Y329528D02*
X638386D01*
X630905Y342913D02*
X638386D01*
Y329528D02*
Y342913D01*
X630905Y329528D02*
Y342913D01*
X664567Y383661D02*
Y391142D01*
X677953Y383661D02*
Y391142D01*
X664567Y383661D02*
X677953D01*
X664567Y391142D02*
X677953D01*
X606496Y377953D02*
X613976D01*
X606496Y364567D02*
X613976D01*
X606496D02*
Y377953D01*
X613976Y364567D02*
Y377953D01*
X653445Y119685D02*
X660925D01*
X653445Y133071D02*
X660925D01*
X653445Y119685D02*
Y133071D01*
X660925Y119685D02*
Y133071D01*
X581004Y129921D02*
X588484D01*
X581004Y143307D02*
X588484D01*
X581004Y129921D02*
Y143307D01*
X588484Y129921D02*
Y143307D01*
X592028Y135827D02*
Y159449D01*
X624705Y135827D02*
Y159449D01*
X592028D02*
X624705D01*
X592028Y135827D02*
X624705D01*
X606201Y160827D02*
X624705D01*
X606201Y169882D02*
X624705D01*
Y160827D02*
Y169882D01*
X606201Y160827D02*
Y169882D01*
X353051Y207283D02*
X366437D01*
X353051Y199803D02*
X366437D01*
X353051D02*
Y207283D01*
X366437Y199803D02*
Y207283D01*
X361122Y163189D02*
X379626D01*
X361122Y172244D02*
X379626D01*
X361122Y163189D02*
Y172244D01*
X379626Y163189D02*
Y172244D01*
X395768Y207677D02*
X409154D01*
X395768Y200197D02*
X409154D01*
X395768D02*
Y207677D01*
X409154Y200197D02*
Y207677D01*
X404232Y163583D02*
X422736D01*
X404232Y172638D02*
X422736D01*
X404232Y163583D02*
Y172638D01*
X422736Y163583D02*
Y172638D01*
X439764Y207677D02*
X453150D01*
X439764Y200197D02*
X453150D01*
X439764D02*
Y207677D01*
X453150Y200197D02*
Y207677D01*
X489862Y163189D02*
X508366D01*
X489862Y172244D02*
X508366D01*
X489862Y163189D02*
Y172244D01*
X508366Y163189D02*
Y172244D01*
X531988Y163189D02*
X550492D01*
X531988Y172244D02*
X550492D01*
X531988Y163189D02*
Y172244D01*
X550492Y163189D02*
Y172244D01*
X523917Y207283D02*
X537303D01*
X523917Y199803D02*
X537303D01*
X523917D02*
Y207283D01*
X537303Y199803D02*
Y207283D01*
X446949Y163583D02*
X465453D01*
X446949Y172638D02*
X465453D01*
X446949Y163583D02*
Y172638D01*
X465453Y163583D02*
Y172638D01*
X481004Y207283D02*
X494390D01*
X481004Y199803D02*
X494390D01*
X481004D02*
Y207283D01*
X494390Y199803D02*
Y207283D01*
X627658Y159449D02*
X663878D01*
X627658Y135827D02*
X663878D01*
X627658D02*
Y159449D01*
X663878Y135827D02*
Y159449D01*
X407283Y333366D02*
X432874D01*
X407283Y307579D02*
Y333366D01*
Y307579D02*
X432874D01*
Y333366D01*
X620276Y538479D02*
X633661D01*
X620276Y545959D02*
X633661D01*
Y538479D02*
Y545959D01*
X620276Y538479D02*
Y545959D01*
X513563Y424803D02*
Y470276D01*
X461201Y424803D02*
Y470276D01*
X513563D01*
X461201Y424803D02*
X513563D01*
M02*
