%TF.GenerationSoftware,Altium Limited,Altium Designer,18.1.9 (240)*%
G04 Layer_Color=32768*
%FSLAX26Y26*%
%MOIN*%
%TF.FileFunction,Other,Mechanical_15*%
%TF.Part,Single*%
G01*
G75*
%TA.AperFunction,NonConductor*%
%ADD73C,0.003937*%
%ADD129C,0.001968*%
D73*
X8640315Y5500000D02*
X8679685D01*
X8660000Y5480315D02*
Y5519685D01*
X8233858Y4102205D02*
X8273228D01*
X8253543Y4082520D02*
Y4121890D01*
X7907480Y4100000D02*
X7946850D01*
X7927165Y4080315D02*
Y4119685D01*
X8180000Y4371299D02*
Y4408701D01*
X8161299Y4390000D02*
X8198701D01*
X7957480Y4000000D02*
X7996850D01*
X7977165Y3980315D02*
Y4019685D01*
X8248465Y3820000D02*
X8285866D01*
X8267165Y3801299D02*
Y3838701D01*
X8372165Y3822480D02*
Y3859882D01*
X8353465Y3841181D02*
X8390866D01*
X8140000Y3690315D02*
Y3729685D01*
X8120315Y3710000D02*
X8159685D01*
X8392165Y3745315D02*
Y3784685D01*
X8372480Y3765000D02*
X8411850D01*
X8140000Y3600315D02*
Y3639685D01*
X8120315Y3620000D02*
X8159685D01*
X8555000Y3305315D02*
Y3344685D01*
X8535315Y3325000D02*
X8574685D01*
X9570000Y3585315D02*
Y3624685D01*
X9550315Y3605000D02*
X9589685D01*
X9265315Y3850000D02*
X9304685D01*
X9285000Y3830315D02*
Y3869685D01*
X8845315Y3805000D02*
X8884685D01*
X8865000Y3785315D02*
Y3824685D01*
X9415315Y4230000D02*
X9454685D01*
X9435000Y4210315D02*
Y4249685D01*
X10668425Y4147133D02*
Y4184535D01*
X10649724Y4165834D02*
X10687126D01*
X10570315Y3676339D02*
X10609685D01*
X10590000Y3656653D02*
Y3696024D01*
X9025000Y3381614D02*
Y3420984D01*
X9005315Y3401299D02*
X9044685D01*
X9460000Y3381614D02*
Y3420984D01*
X9440315Y3401299D02*
X9479685D01*
X9900000Y3375315D02*
Y3414685D01*
X9880315Y3395000D02*
X9919685D01*
X10730000Y3375315D02*
Y3414685D01*
X10710315Y3395000D02*
X10749685D01*
X10320000Y3375315D02*
Y3414685D01*
X10300315Y3395000D02*
X10339685D01*
X9925000Y4705315D02*
Y4744685D01*
X9905315Y4725000D02*
X9944685D01*
X10441299Y4135000D02*
X10478701D01*
X10460000Y4116299D02*
Y4153701D01*
X9716299Y4800000D02*
X9753701D01*
X9735000Y4781299D02*
Y4818701D01*
X9901299Y4920000D02*
X9938701D01*
X9920000Y4901299D02*
Y4938701D01*
X10410315Y3810000D02*
X10449685D01*
X10430000Y3790315D02*
Y3829685D01*
X10305630Y4092913D02*
Y4132283D01*
X10285945Y4112599D02*
X10325315D01*
X9866732Y4126299D02*
Y4163701D01*
X9848031Y4145000D02*
X9885433D01*
X10055000Y3851890D02*
Y3889291D01*
X10036299Y3870590D02*
X10073701D01*
X9975000Y3851299D02*
Y3888701D01*
X9956299Y3870000D02*
X9993701D01*
X10030000Y4346299D02*
Y4383701D01*
X10011299Y4365000D02*
X10048701D01*
X9850000Y3979016D02*
Y4016417D01*
X9831299Y3997717D02*
X9868701D01*
X10010315Y4105000D02*
X10049685D01*
X10030000Y4085315D02*
Y4124685D01*
X10570315Y5230000D02*
X10609685D01*
X10590000Y5210315D02*
Y5249685D01*
X10465000Y4846299D02*
Y4883701D01*
X10446299Y4865000D02*
X10483701D01*
X10660000Y5471299D02*
Y5508701D01*
X10641299Y5490000D02*
X10678701D01*
X10565000Y5471299D02*
Y5508701D01*
X10546299Y5490000D02*
X10583701D01*
X10859370Y5200315D02*
Y5239685D01*
X10839685Y5220000D02*
X10879055D01*
X10425000Y5011299D02*
Y5048701D01*
X10406299Y5030000D02*
X10443701D01*
X10415000Y5316299D02*
Y5353701D01*
X10396299Y5335000D02*
X10433701D01*
X10590000Y4986299D02*
Y5023701D01*
X10571299Y5005000D02*
X10608701D01*
X9175315Y5685000D02*
X9214685D01*
X9195000Y5665315D02*
Y5704685D01*
X9185000Y5415315D02*
Y5454685D01*
X9165315Y5435000D02*
X9204685D01*
X9495000Y5865315D02*
Y5904685D01*
X9475315Y5885000D02*
X9514685D01*
X9680000Y5600315D02*
Y5639685D01*
X9660315Y5620000D02*
X9699685D01*
X9675000Y5730315D02*
Y5769685D01*
X9655315Y5750000D02*
X9694685D01*
X11225315Y2360000D02*
X11264685D01*
X11245000Y2340315D02*
Y2379685D01*
X11598071Y2675315D02*
Y2714685D01*
X11578386Y2695000D02*
X11617756D01*
X11850000Y2165315D02*
Y2204685D01*
X11830315Y2185000D02*
X11869685D01*
X11805315Y2575000D02*
X11844685D01*
X11825000Y2555315D02*
Y2594685D01*
X11550000Y2495315D02*
Y2534685D01*
X11530315Y2515000D02*
X11569685D01*
X11540000Y2240315D02*
Y2279685D01*
X11520315Y2260000D02*
X11559685D01*
X8261315Y5380000D02*
X8300685D01*
X8281000Y5360315D02*
Y5399685D01*
X8260315Y5835000D02*
X8299685D01*
X8280000Y5815315D02*
Y5854685D01*
X8073315Y5835000D02*
X8112685D01*
X8093000Y5815315D02*
Y5854685D01*
X8074315Y5380000D02*
X8113685D01*
X8094000Y5360315D02*
Y5399685D01*
X8825315Y4800000D02*
X8864685D01*
X8845000Y4780315D02*
Y4819685D01*
X8074315Y5635000D02*
X8113685D01*
X8094000Y5615315D02*
Y5654685D01*
X8073315Y6090000D02*
X8112685D01*
X8093000Y6070315D02*
Y6109685D01*
X8825315Y5033504D02*
X8864685D01*
X8845000Y5013819D02*
Y5053189D01*
X8072315Y5036888D02*
X8111685D01*
X8092000Y5017203D02*
Y5056573D01*
X8072315Y4810000D02*
X8111685D01*
X8092000Y4790315D02*
Y4829685D01*
X10890315Y6265000D02*
X10929685D01*
X10910000Y6245315D02*
Y6284685D01*
X11035000Y6335315D02*
Y6374685D01*
X11015315Y6355000D02*
X11054685D01*
X11035315Y6080000D02*
X11074685D01*
X11055000Y6060315D02*
Y6099685D01*
X11005315Y3875551D02*
X11044685D01*
X11025000Y3855866D02*
Y3895236D01*
X10470000Y4507246D02*
Y4546616D01*
X10450315Y4526931D02*
X10489685D01*
X10825315Y4030551D02*
X10864685D01*
X10845000Y4010866D02*
Y4050236D01*
X11645000Y4715315D02*
Y4754685D01*
X11625315Y4735000D02*
X11664685D01*
X11600315Y4865000D02*
X11639685D01*
X11620000Y4845315D02*
Y4884685D01*
X11265315Y4360000D02*
X11304685D01*
X11285000Y4340315D02*
Y4379685D01*
X11265315Y4642953D02*
X11304685D01*
X11285000Y4623268D02*
Y4662638D01*
X11010315Y4815000D02*
X11049685D01*
X11030000Y4795315D02*
Y4834685D01*
X11000000Y4190315D02*
Y4229685D01*
X10980315Y4210000D02*
X11019685D01*
X11545315Y4360000D02*
X11584685D01*
X11565000Y4340315D02*
Y4379685D01*
X10995866Y4065000D02*
X11035236D01*
X11015551Y4045315D02*
Y4084685D01*
X10995000Y3480709D02*
Y3520079D01*
X10975315Y3500394D02*
X11014685D01*
X11375315Y4360000D02*
X11414685D01*
X11395000Y4340315D02*
Y4379685D01*
X11610315Y3830000D02*
X11649685D01*
X11630000Y3810315D02*
Y3849685D01*
X9510984Y3775984D02*
Y3815354D01*
X9491299Y3795669D02*
X9530669D01*
X10745315Y5130945D02*
X10784685D01*
X10765000Y5111260D02*
Y5150630D01*
X8605315Y5900000D02*
X8644685D01*
X8625000Y5880315D02*
Y5919685D01*
X8890315Y5900000D02*
X8929685D01*
X8910000Y5880315D02*
Y5919685D01*
X9225000Y5915315D02*
Y5954685D01*
X9205315Y5935000D02*
X9244685D01*
D129*
X8805669Y5391732D02*
Y5608268D01*
X8514331D02*
X8805669D01*
X8514331Y5391732D02*
X8805669D01*
X8514331D02*
Y5608268D01*
X8037008Y3917166D02*
Y4287244D01*
X8470079Y3917166D02*
Y4287244D01*
X8037008D02*
X8470079D01*
X8037008Y3917166D02*
X8470079D01*
X7701772Y3932677D02*
X7957677D01*
X7701772Y4267323D02*
X7957677D01*
X7701772Y3932677D02*
Y4267323D01*
X7957677Y3932677D02*
Y4267323D01*
X8126850Y4360472D02*
X8233150D01*
X8126850Y4419528D02*
X8233150D01*
X8126850Y4360472D02*
Y4419528D01*
X8233150Y4360472D02*
Y4419528D01*
X7939764Y3933071D02*
Y4066929D01*
X8014567Y3933071D02*
Y4066929D01*
X7939764Y3933071D02*
X8014567D01*
X7939764Y4066929D02*
X8014567D01*
X8237638Y3766850D02*
Y3873150D01*
X8296693Y3766850D02*
Y3873150D01*
X8237638D02*
X8296693D01*
X8237638Y3766850D02*
X8296693D01*
X8319016Y3811653D02*
X8425315D01*
X8319016Y3870709D02*
X8425315D01*
X8319016Y3811653D02*
Y3870709D01*
X8425315Y3811653D02*
Y3870709D01*
X8073071Y3672598D02*
X8206929D01*
X8073071Y3747402D02*
X8206929D01*
Y3672598D02*
Y3747402D01*
X8073071Y3672598D02*
Y3747402D01*
X8325236Y3727598D02*
X8459094D01*
X8325236Y3802402D02*
X8459094D01*
Y3727598D02*
Y3802402D01*
X8325236Y3727598D02*
Y3802402D01*
X8073071Y3582598D02*
X8206929D01*
X8073071Y3657402D02*
X8206929D01*
Y3582598D02*
Y3657402D01*
X8073071Y3582598D02*
Y3657402D01*
X8488071Y3362402D02*
X8621929D01*
X8488071Y3287598D02*
X8621929D01*
X8488071D02*
Y3362402D01*
X8621929Y3287598D02*
Y3362402D01*
X9503071Y3642402D02*
X9636929D01*
X9503071Y3567598D02*
X9636929D01*
X9503071D02*
Y3642402D01*
X9636929Y3567598D02*
Y3642402D01*
X9322402Y3783071D02*
Y3916929D01*
X9247598Y3783071D02*
Y3916929D01*
X9322402D01*
X9247598Y3783071D02*
X9322402D01*
X8603189Y3577638D02*
Y4032362D01*
X9126811Y3577638D02*
Y4032362D01*
X8603189D02*
X9126811D01*
X8603189Y3577638D02*
X9126811D01*
X9696811Y4002638D02*
Y4457362D01*
X9173189Y4002638D02*
Y4457362D01*
X9696811D01*
X9173189Y4002638D02*
X9696811D01*
X10615276Y4195362D02*
X10721575D01*
X10615276Y4136307D02*
X10721575D01*
X10615276D02*
Y4195362D01*
X10721575Y4136307D02*
Y4195362D01*
X10328189Y3448976D02*
Y3903701D01*
X10851811Y3448976D02*
Y3903701D01*
X10328189Y3448976D02*
X10851811D01*
X10328189Y3903701D02*
X10851811D01*
X8932480Y3356024D02*
X9117520D01*
X8932480Y3446575D02*
X9117520D01*
Y3356024D02*
Y3446575D01*
X8932480Y3356024D02*
Y3446575D01*
X9367480Y3356024D02*
X9552520D01*
X9367480Y3446575D02*
X9552520D01*
Y3356024D02*
Y3446575D01*
X9367480Y3356024D02*
Y3446575D01*
X9807480Y3349724D02*
X9992520D01*
X9807480Y3440276D02*
X9992520D01*
Y3349724D02*
Y3440276D01*
X9807480Y3349724D02*
Y3440276D01*
X10637480Y3349724D02*
X10822520D01*
X10637480Y3440276D02*
X10822520D01*
Y3349724D02*
Y3440276D01*
X10637480Y3349724D02*
Y3440276D01*
X10227480Y3349724D02*
X10412520D01*
X10227480Y3440276D02*
X10412520D01*
Y3349724D02*
Y3440276D01*
X10227480Y3349724D02*
Y3440276D01*
X9797047Y4853937D02*
X10052953D01*
X9797047Y4596063D02*
Y4853937D01*
Y4596063D02*
X10052953D01*
Y4853937D01*
X10430472Y4081850D02*
Y4188150D01*
X10489528Y4081850D02*
Y4188150D01*
X10430472D02*
X10489528D01*
X10430472Y4081850D02*
X10489528D01*
X9764528Y4746850D02*
Y4853150D01*
X9705472Y4746850D02*
Y4853150D01*
X9764528D01*
X9705472Y4746850D02*
X9764528D01*
X9973150Y4890472D02*
Y4949528D01*
X9866850Y4890472D02*
Y4949528D01*
Y4890472D02*
X9973150D01*
X9866850Y4949528D02*
X9973150D01*
X10168189Y3582638D02*
Y4037362D01*
X10691811Y3582638D02*
Y4037362D01*
X10168189D02*
X10691811D01*
X10168189Y3582638D02*
X10691811D01*
X10244606Y4174016D02*
X10366654D01*
X10244606Y4051181D02*
X10366654D01*
X10244606D02*
Y4174016D01*
X10366654Y4051181D02*
Y4174016D01*
X9837205Y4198150D02*
X9896260D01*
X9837205Y4091850D02*
X9896260D01*
Y4198150D01*
X9837205Y4091850D02*
Y4198150D01*
X10025472Y3817441D02*
X10084528D01*
X10025472Y3923740D02*
X10084528D01*
X10025472Y3817441D02*
Y3923740D01*
X10084528Y3817441D02*
Y3923740D01*
X9945472Y3923150D02*
X10004528D01*
X9945472Y3816850D02*
X10004528D01*
Y3923150D01*
X9945472Y3816850D02*
Y3923150D01*
X9976850Y4394528D02*
X10083150D01*
X9976850Y4335472D02*
X10083150D01*
X9976850D02*
Y4394528D01*
X10083150Y4335472D02*
Y4394528D01*
X9796850Y3968189D02*
X9903150D01*
X9796850Y4027244D02*
X9903150D01*
Y3968189D02*
Y4027244D01*
X9796850Y3968189D02*
Y4027244D01*
X9921732Y3959331D02*
Y4250669D01*
X10138268Y3959331D02*
Y4250669D01*
X9921732Y3959331D02*
X10138268D01*
X9921732Y4250669D02*
X10138268D01*
X10481732Y5084331D02*
Y5375669D01*
X10698268Y5084331D02*
Y5375669D01*
X10481732D02*
X10698268D01*
X10481732Y5084331D02*
X10698268D01*
X10411850Y4894528D02*
X10518150D01*
X10411850Y4835472D02*
X10518150D01*
X10411850D02*
Y4894528D01*
X10518150Y4835472D02*
Y4894528D01*
X10630472Y5543150D02*
X10689528D01*
X10630472Y5436850D02*
X10689528D01*
X10630472D02*
Y5543150D01*
X10689528Y5436850D02*
Y5543150D01*
X10535472Y5436850D02*
X10594528D01*
X10535472Y5543150D02*
X10594528D01*
Y5436850D02*
Y5543150D01*
X10535472Y5436850D02*
Y5543150D01*
X10798346Y5158583D02*
X10920394D01*
X10798346Y5281417D02*
X10920394D01*
X10798346Y5158583D02*
Y5281417D01*
X10920394Y5158583D02*
Y5281417D01*
X10395472Y4976850D02*
X10454528D01*
X10395472Y5083150D02*
X10454528D01*
Y4976850D02*
Y5083150D01*
X10395472Y4976850D02*
Y5083150D01*
X10361850Y5364528D02*
X10468150D01*
X10361850Y5305472D02*
X10468150D01*
Y5364528D01*
X10361850Y5305472D02*
Y5364528D01*
X10536850Y4975472D02*
X10643150D01*
X10536850Y5034528D02*
X10643150D01*
X10536850Y4975472D02*
Y5034528D01*
X10643150Y4975472D02*
Y5034528D01*
X9282598Y5633819D02*
Y5736181D01*
X9107402Y5633819D02*
Y5736181D01*
Y5633819D02*
X9282598D01*
X9107402Y5736181D02*
X9282598D01*
X9005866Y5289331D02*
X9364134D01*
X9005866Y5580669D02*
X9364134D01*
X9005866Y5289331D02*
Y5580669D01*
X9364134Y5289331D02*
Y5580669D01*
X9428071Y5847598D02*
X9561929D01*
X9428071Y5922402D02*
X9561929D01*
Y5847598D02*
Y5922402D01*
X9428071Y5847598D02*
Y5922402D01*
X9613071Y5582598D02*
X9746929D01*
X9613071Y5657402D02*
X9746929D01*
Y5582598D02*
Y5657402D01*
X9613071Y5582598D02*
Y5657402D01*
X9592323Y5679134D02*
X9757677D01*
X9592323Y5820866D02*
X9757677D01*
Y5679134D02*
Y5820866D01*
X9592323Y5679134D02*
Y5820866D01*
X11126890Y2178898D02*
Y2541102D01*
X11363110Y2178898D02*
Y2541102D01*
X11126890Y2178898D02*
X11363110D01*
X11126890Y2541102D02*
X11363110D01*
X11505551Y2740276D02*
X11690591D01*
X11505551Y2649724D02*
X11690591D01*
X11505551D02*
Y2740276D01*
X11690591Y2649724D02*
Y2740276D01*
X11783071Y2147598D02*
X11916929D01*
X11783071Y2222402D02*
X11916929D01*
Y2147598D02*
Y2222402D01*
X11783071Y2147598D02*
Y2222402D01*
X11862402Y2508071D02*
Y2641929D01*
X11787598Y2508071D02*
Y2641929D01*
X11862402D01*
X11787598Y2508071D02*
X11862402D01*
X11386614Y2633110D02*
X11713386D01*
X11386614Y2396890D02*
X11713386D01*
X11386614D02*
Y2633110D01*
X11713386Y2396890D02*
Y2633110D01*
X11409094Y2360984D02*
X11670906D01*
X11409094Y2159016D02*
X11670906D01*
X11409094D02*
Y2360984D01*
X11670906Y2159016D02*
Y2360984D01*
X8318401Y5313071D02*
Y5446929D01*
X8243598Y5313071D02*
Y5446929D01*
X8318401D01*
X8243598Y5313071D02*
X8318401D01*
X8317401Y5768071D02*
Y5901929D01*
X8242598Y5768071D02*
Y5901929D01*
X8317401D01*
X8242598Y5768071D02*
X8317401D01*
X8130402Y5768071D02*
Y5901929D01*
X8055598Y5768071D02*
Y5901929D01*
X8130402D01*
X8055598Y5768071D02*
X8130402D01*
X8131402Y5313071D02*
Y5446929D01*
X8056598Y5313071D02*
Y5446929D01*
X8131402D01*
X8056598Y5313071D02*
X8131402D01*
X8882401Y4733071D02*
Y4866929D01*
X8807598Y4733071D02*
Y4866929D01*
X8882401D01*
X8807598Y4733071D02*
X8882401D01*
X8131402Y5568071D02*
Y5701929D01*
X8056598Y5568071D02*
Y5701929D01*
X8131402D01*
X8056598Y5568071D02*
X8131402D01*
X8130402Y6023071D02*
Y6156929D01*
X8055598Y6023071D02*
Y6156929D01*
X8130402D01*
X8055598Y6023071D02*
X8130402D01*
X8882402Y4966575D02*
Y5100433D01*
X8807598Y4966575D02*
Y5100433D01*
X8882402D01*
X8807598Y4966575D02*
X8882402D01*
X8129402Y4969959D02*
Y5103817D01*
X8054598Y4969959D02*
Y5103817D01*
X8129402D01*
X8054598Y4969959D02*
X8129402D01*
X8129401Y4743071D02*
Y4876929D01*
X8054598Y4743071D02*
Y4876929D01*
X8129401D01*
X8054598Y4743071D02*
X8129401D01*
X10955276Y6172480D02*
Y6357520D01*
X10864724Y6172480D02*
Y6357520D01*
X10955276D01*
X10864724Y6172480D02*
X10955276D01*
X10968071Y6392401D02*
X11101929D01*
X10968071Y6317598D02*
X11101929D01*
X10968071D02*
Y6392401D01*
X11101929Y6317598D02*
Y6392401D01*
X11017599Y6013071D02*
Y6146929D01*
X11092402Y6013071D02*
Y6146929D01*
X11017599Y6013071D02*
X11092402D01*
X11017599Y6146929D02*
X11092402D01*
X11062402Y3808622D02*
Y3942480D01*
X10987598Y3808622D02*
Y3942480D01*
Y3808622D02*
X11062402D01*
X10987598Y3942480D02*
X11062402D01*
X10208189Y4788742D02*
X10731811D01*
X10208189Y4265120D02*
X10731811D01*
X10208189D02*
Y4788742D01*
X10731811Y4265120D02*
Y4788742D01*
X10882402Y3963622D02*
Y4097480D01*
X10807598Y3963622D02*
Y4097480D01*
Y3963622D02*
X10882402D01*
X10807598Y4097480D02*
X10882402D01*
X11578071Y4772402D02*
X11711929D01*
X11578071Y4697598D02*
X11711929D01*
Y4772402D01*
X11578071Y4697598D02*
Y4772402D01*
X11657402Y4798071D02*
Y4931929D01*
X11582598Y4798071D02*
Y4931929D01*
Y4798071D02*
X11657402D01*
X11582598Y4931929D02*
X11657402D01*
X11247598Y4293071D02*
Y4426929D01*
X11322402Y4293071D02*
Y4426929D01*
X11247598D02*
X11322402D01*
X11247598Y4293071D02*
X11322402D01*
X11247598Y4576024D02*
Y4709882D01*
X11322402Y4576024D02*
Y4709882D01*
X11247598D02*
X11322402D01*
X11247598Y4576024D02*
X11322402D01*
X11067402Y4748071D02*
Y4881929D01*
X10992598Y4748071D02*
Y4881929D01*
Y4748071D02*
X11067402D01*
X10992598Y4881929D02*
X11067402D01*
X10933071Y4172598D02*
X11066929D01*
X10933071Y4247402D02*
X11066929D01*
X10933071Y4172598D02*
Y4247402D01*
X11066929Y4172598D02*
Y4247402D01*
X11602402Y4293071D02*
Y4426929D01*
X11527598Y4293071D02*
Y4426929D01*
Y4293071D02*
X11602402D01*
X11527598Y4426929D02*
X11602402D01*
X10978150Y3998071D02*
Y4131929D01*
X11052953Y3998071D02*
Y4131929D01*
X10978150D02*
X11052953D01*
X10978150Y3998071D02*
X11052953D01*
X10928071Y3462992D02*
X11061929D01*
X10928071Y3537795D02*
X11061929D01*
X10928071Y3462992D02*
Y3537795D01*
X11061929Y3462992D02*
Y3537795D01*
X11432402Y4293071D02*
Y4426929D01*
X11357598Y4293071D02*
Y4426929D01*
Y4293071D02*
X11432402D01*
X11357598Y4426929D02*
X11432402D01*
X11592598Y3763071D02*
Y3896929D01*
X11667402Y3763071D02*
Y3896929D01*
X11592598D02*
X11667402D01*
X11592598Y3763071D02*
X11667402D01*
X9343661Y3653937D02*
X9678307D01*
X9343661Y3937402D02*
X9678307D01*
Y3653937D02*
Y3937402D01*
X9343661Y3653937D02*
Y3937402D01*
X10503189Y4903583D02*
Y5358307D01*
X11026811Y4903583D02*
Y5358307D01*
X10503189Y4903583D02*
X11026811D01*
X10503189Y5358307D02*
X11026811D01*
X8733268Y5754331D02*
Y6045669D01*
X8516732Y5754331D02*
Y6045669D01*
X8733268D01*
X8516732Y5754331D02*
X8733268D01*
X9018268D02*
Y6045669D01*
X8801732Y5754331D02*
Y6045669D01*
X9018268D01*
X8801732Y5754331D02*
X9018268D01*
X9079331Y6043268D02*
X9370669D01*
X9079331Y5826732D02*
X9370669D01*
X9079331D02*
Y6043268D01*
X9370669Y5826732D02*
Y6043268D01*
%TF.MD5,8cfd2b3a83b748ca9290934275ab945b*%
M02*
