%TF.GenerationSoftware,Altium Limited,Altium Designer,18.1.7 (191)*%
G04 Layer_Color=16711935*
%FSLAX26Y26*%
%MOIN*%
%TF.FileFunction,Soldermask,Bot*%
%TF.Part,Single*%
G01*
G75*
%TA.AperFunction,SMDPad,CuDef*%
%ADD79O,0.029685X0.074961*%
%ADD80R,0.084803X0.084803*%
%TA.AperFunction,ConnectorPad*%
%ADD81R,0.061181X0.067087*%
%ADD82R,0.065118X0.072992*%
%ADD83R,0.063150X0.025748*%
%TA.AperFunction,SMDPad,CuDef*%
%ADD84R,0.045433X0.049370*%
%ADD85R,0.049370X0.045433*%
%ADD86R,0.035591X0.078898*%
%ADD87O,0.033622X0.067087*%
%ADD88R,0.047402X0.043465*%
%ADD89R,0.045433X0.041496*%
%ADD90R,0.063150X0.055276*%
%ADD91R,0.021811X0.063150*%
%ADD92R,0.063150X0.021811*%
%ADD93R,0.055276X0.063150*%
%TA.AperFunction,ComponentPad*%
%ADD94C,0.010000*%
%TA.AperFunction,SMDPad,CuDef*%
%ADD95R,0.364331X0.403701*%
%TA.AperFunction,ComponentPad*%
%ADD96R,0.137953X0.080866*%
%ADD97C,0.100551*%
%ADD98C,0.108425*%
%ADD99C,0.088740*%
%ADD100C,0.139921*%
%ADD101C,0.096614*%
G04:AMPARAMS|DCode=102|XSize=100mil|YSize=50mil|CornerRadius=0mil|HoleSize=0mil|Usage=FLASHONLY|Rotation=32.000|XOffset=0mil|YOffset=0mil|HoleType=Round|Shape=Rectangle|*
%AMROTATEDRECTD102*
4,1,4,-0.029154,-0.047697,-0.055650,-0.005295,0.029154,0.047697,0.055650,0.005295,-0.029154,-0.047697,0.0*
%
%ADD102ROTATEDRECTD102*%

G04:AMPARAMS|DCode=103|XSize=100mil|YSize=50mil|CornerRadius=0mil|HoleSize=0mil|Usage=FLASHONLY|Rotation=148.000|XOffset=0mil|YOffset=0mil|HoleType=Round|Shape=Rectangle|*
%AMROTATEDRECTD103*
4,1,4,0.055650,-0.005295,0.029154,-0.047697,-0.055650,0.005295,-0.029154,0.047697,0.055650,-0.005295,0.0*
%
%ADD103ROTATEDRECTD103*%

%ADD104R,0.050000X0.100000*%
%ADD105C,0.065118*%
%TA.AperFunction,ViaPad*%
%ADD106C,0.040000*%
%ADD107C,0.104488*%
%ADD108C,0.206850*%
D79*
X8080551Y4244921D02*
D03*
X8107165D02*
D03*
X8133779D02*
D03*
X8160394D02*
D03*
X8187008D02*
D03*
X8213622D02*
D03*
X8240236D02*
D03*
X8266850D02*
D03*
X8293465D02*
D03*
X8320079D02*
D03*
X8346693D02*
D03*
X8373307D02*
D03*
X8399921D02*
D03*
X8426535D02*
D03*
X8080551Y3959488D02*
D03*
X8107165D02*
D03*
X8133779D02*
D03*
X8160394D02*
D03*
X8187008D02*
D03*
X8213622D02*
D03*
X8240236D02*
D03*
X8266850D02*
D03*
X8293465D02*
D03*
X8320079D02*
D03*
X8346693D02*
D03*
X8373307D02*
D03*
X8399921D02*
D03*
X8426535D02*
D03*
D80*
X7821850Y4147244D02*
D03*
Y4052756D02*
D03*
D81*
Y4234842D02*
D03*
Y3965157D02*
D03*
D82*
X7918307Y4225984D02*
D03*
Y3974016D02*
D03*
D83*
X7927165Y4151181D02*
D03*
Y4125591D02*
D03*
Y4100000D02*
D03*
Y4074410D02*
D03*
Y4048819D02*
D03*
D84*
X8153425Y4390000D02*
D03*
X8206575D02*
D03*
X8345591Y3841181D02*
D03*
X8398740D02*
D03*
X10441575Y5335000D02*
D03*
X10388425D02*
D03*
X10563425Y5005000D02*
D03*
X10616575D02*
D03*
D85*
X8267165Y3846575D02*
D03*
Y3793425D02*
D03*
X10460000Y4161575D02*
D03*
Y4108425D02*
D03*
D86*
X8640000Y3989055D02*
D03*
X8690000D02*
D03*
X8740000D02*
D03*
X8790000D02*
D03*
X8840000D02*
D03*
X8890000D02*
D03*
X8940000D02*
D03*
X8990000D02*
D03*
X9040000D02*
D03*
X9090000D02*
D03*
X8640000Y3620945D02*
D03*
X8690000D02*
D03*
X8740000D02*
D03*
X8790000D02*
D03*
X8840000D02*
D03*
X8890000D02*
D03*
X8940000D02*
D03*
X8990000D02*
D03*
X9040000D02*
D03*
X9090000D02*
D03*
X10205000Y3994055D02*
D03*
X10255000D02*
D03*
X10305000D02*
D03*
X10355000D02*
D03*
X10405000D02*
D03*
X10455000D02*
D03*
X10505000D02*
D03*
X10555000D02*
D03*
X10605000D02*
D03*
X10655000D02*
D03*
X10205000Y3625945D02*
D03*
X10255000D02*
D03*
X10305000D02*
D03*
X10355000D02*
D03*
X10405000D02*
D03*
X10455000D02*
D03*
X10505000D02*
D03*
X10555000D02*
D03*
X10605000D02*
D03*
X10655000D02*
D03*
D87*
X10515000Y5337283D02*
D03*
X10565000D02*
D03*
X10615000D02*
D03*
X10665000D02*
D03*
X10515000Y5122717D02*
D03*
X10565000D02*
D03*
X10615000D02*
D03*
X10665000D02*
D03*
D88*
X10660000Y5515591D02*
D03*
Y5464409D02*
D03*
X10565000Y5464409D02*
D03*
Y5515591D02*
D03*
X10425000Y5004409D02*
D03*
Y5055591D02*
D03*
D89*
X10820000Y5220000D02*
D03*
X10898740Y5182599D02*
D03*
Y5257402D02*
D03*
D90*
X11025000Y3841102D02*
D03*
Y3910000D02*
D03*
X10845000Y3996102D02*
D03*
Y4065000D02*
D03*
X11620000Y4830551D02*
D03*
Y4899449D02*
D03*
X11285000Y4394449D02*
D03*
Y4325551D02*
D03*
Y4677402D02*
D03*
Y4608504D02*
D03*
X11030000Y4780551D02*
D03*
Y4849449D02*
D03*
X11565000Y4325551D02*
D03*
Y4394449D02*
D03*
X11015551Y4099449D02*
D03*
Y4030551D02*
D03*
X11395000Y4325551D02*
D03*
Y4394449D02*
D03*
X11630000Y3864449D02*
D03*
Y3795551D02*
D03*
D91*
X10322362Y4753309D02*
D03*
X10342047D02*
D03*
X10361732D02*
D03*
X10381417D02*
D03*
X10401102D02*
D03*
X10420787D02*
D03*
X10440472D02*
D03*
X10460157D02*
D03*
X10479843D02*
D03*
X10499528D02*
D03*
X10519213D02*
D03*
X10538898D02*
D03*
X10558583D02*
D03*
X10578268D02*
D03*
X10597953D02*
D03*
X10617638D02*
D03*
Y4300553D02*
D03*
X10597953D02*
D03*
X10578268D02*
D03*
X10558583D02*
D03*
X10538898D02*
D03*
X10519213D02*
D03*
X10499528D02*
D03*
X10479843D02*
D03*
X10460157D02*
D03*
X10440472D02*
D03*
X10420787D02*
D03*
X10401102D02*
D03*
X10381417D02*
D03*
X10361732D02*
D03*
X10342047D02*
D03*
X10322362D02*
D03*
D92*
X10696378Y4674569D02*
D03*
Y4654884D02*
D03*
Y4635199D02*
D03*
Y4615514D02*
D03*
Y4595829D02*
D03*
Y4576144D02*
D03*
Y4556459D02*
D03*
Y4536774D02*
D03*
Y4517089D02*
D03*
Y4497404D02*
D03*
Y4477718D02*
D03*
Y4458033D02*
D03*
Y4438349D02*
D03*
Y4418663D02*
D03*
Y4398978D02*
D03*
Y4379293D02*
D03*
X10243622D02*
D03*
Y4398978D02*
D03*
Y4418663D02*
D03*
Y4438349D02*
D03*
Y4458033D02*
D03*
Y4477718D02*
D03*
Y4497404D02*
D03*
Y4517089D02*
D03*
Y4536774D02*
D03*
Y4556459D02*
D03*
Y4576144D02*
D03*
Y4595829D02*
D03*
Y4615514D02*
D03*
Y4635199D02*
D03*
Y4654884D02*
D03*
Y4674569D02*
D03*
D93*
X11679449Y4735000D02*
D03*
X11610551D02*
D03*
X10965551Y4210000D02*
D03*
X11034449D02*
D03*
X10960551Y3500394D02*
D03*
X11029449D02*
D03*
D94*
X11475000Y6160000D02*
D03*
X11522244D02*
D03*
X11569488D02*
D03*
X11616732D02*
D03*
X11427756D02*
D03*
X11380512D02*
D03*
X11333268D02*
D03*
Y6112756D02*
D03*
X11380512D02*
D03*
X11427756D02*
D03*
X11616732D02*
D03*
X11569488D02*
D03*
X11522244D02*
D03*
X11475000D02*
D03*
X11333268Y6065512D02*
D03*
X11380512D02*
D03*
X11427756D02*
D03*
X11616732D02*
D03*
X11569488D02*
D03*
X11522244D02*
D03*
X11475000D02*
D03*
X11333268Y6018268D02*
D03*
X11380512D02*
D03*
X11427756D02*
D03*
X11616732D02*
D03*
X11569488D02*
D03*
X11522244D02*
D03*
X11475000D02*
D03*
X11333268Y6207244D02*
D03*
X11380512D02*
D03*
X11427756D02*
D03*
X11616732D02*
D03*
X11569488D02*
D03*
X11522244D02*
D03*
X11475000D02*
D03*
X11333268Y6254488D02*
D03*
X11380512D02*
D03*
X11427756D02*
D03*
X11616732D02*
D03*
X11569488D02*
D03*
X11522244D02*
D03*
X11475000D02*
D03*
X11333268Y6301732D02*
D03*
X11380512D02*
D03*
X11427756D02*
D03*
X11616732D02*
D03*
X11569488D02*
D03*
X11522244D02*
D03*
X11475000D02*
D03*
X11333268Y6348976D02*
D03*
X11380512D02*
D03*
X11427756D02*
D03*
X11616732D02*
D03*
X11569488D02*
D03*
X11522244D02*
D03*
X11475000D02*
D03*
D95*
Y6183622D02*
D03*
D96*
X8520000Y2769961D02*
D03*
Y2955000D02*
D03*
Y3140039D02*
D03*
D97*
X8952598Y2420000D02*
D03*
Y2124724D02*
D03*
X9740000D02*
D03*
X9543150D02*
D03*
X9740000Y2420000D02*
D03*
X9543150D02*
D03*
X9936850Y2124724D02*
D03*
Y2420000D02*
D03*
D98*
X9959016Y2688780D02*
D03*
X9984606Y3062795D02*
D03*
X9835000Y2925000D02*
D03*
X9084016Y2695079D02*
D03*
X9109606Y3069094D02*
D03*
X8960000Y2931299D02*
D03*
X10379016Y2688780D02*
D03*
X10404606Y3062795D02*
D03*
X10255000Y2925000D02*
D03*
X9519016Y2695079D02*
D03*
X9544606Y3069094D02*
D03*
X9395000Y2931299D02*
D03*
X10789449Y2685000D02*
D03*
X10815039Y3059016D02*
D03*
X10665433Y2921220D02*
D03*
D99*
X9789724Y3279331D02*
D03*
X9959016D02*
D03*
X8914724Y3285630D02*
D03*
X9084016D02*
D03*
X10209724Y3279331D02*
D03*
X10379016D02*
D03*
X9349724Y3285630D02*
D03*
X9519016D02*
D03*
X10620157Y3275551D02*
D03*
X10789449D02*
D03*
D100*
X11757441Y2978740D02*
D03*
Y4494488D02*
D03*
Y5774016D02*
D03*
D101*
X11186575Y5488583D02*
D03*
Y5370472D02*
D03*
Y5252362D02*
D03*
Y5134252D02*
D03*
Y5016142D02*
D03*
Y4898032D02*
D03*
Y4779921D02*
D03*
X11285000Y5429528D02*
D03*
Y5311417D02*
D03*
Y5193307D02*
D03*
Y5075197D02*
D03*
Y4957087D02*
D03*
Y4838976D02*
D03*
X11403110Y5429528D02*
D03*
Y5311417D02*
D03*
Y5193307D02*
D03*
Y5075197D02*
D03*
Y4957087D02*
D03*
Y4838976D02*
D03*
X11501535Y5488583D02*
D03*
Y5370472D02*
D03*
Y5252362D02*
D03*
Y5134252D02*
D03*
Y5016142D02*
D03*
Y4898032D02*
D03*
Y4779921D02*
D03*
Y3264173D02*
D03*
Y3382284D02*
D03*
Y3500394D02*
D03*
Y3618504D02*
D03*
Y3736614D02*
D03*
Y3854724D02*
D03*
Y3972835D02*
D03*
Y4090945D02*
D03*
Y4209055D02*
D03*
X11403110Y3323228D02*
D03*
Y3441339D02*
D03*
Y3559449D02*
D03*
Y3677559D02*
D03*
Y3795669D02*
D03*
Y3913780D02*
D03*
Y4031890D02*
D03*
Y4150000D02*
D03*
X11285000Y3323228D02*
D03*
Y3441339D02*
D03*
Y3559449D02*
D03*
Y3677559D02*
D03*
Y3795669D02*
D03*
Y3913780D02*
D03*
Y4031890D02*
D03*
Y4150000D02*
D03*
X11186575Y3264173D02*
D03*
Y3382284D02*
D03*
Y3500394D02*
D03*
Y3618504D02*
D03*
Y3736614D02*
D03*
Y3854724D02*
D03*
Y3972835D02*
D03*
Y4090945D02*
D03*
Y4209055D02*
D03*
D102*
X8593938Y5006380D02*
D03*
X9363938Y4995947D02*
D03*
D103*
X8593938Y4782754D02*
D03*
X9363938Y4772321D02*
D03*
D104*
X8415000Y4894567D02*
D03*
X9185000Y4884134D02*
D03*
D105*
X9820000Y5885000D02*
D03*
X9720000D02*
D03*
X9620000D02*
D03*
D106*
X9720000Y4540000D02*
D03*
X9660000Y4325000D02*
D03*
X10715000Y3985000D02*
D03*
X11345000Y3195000D02*
D03*
X11645000Y2937018D02*
D03*
X10170000Y4335000D02*
D03*
X10915000Y4143622D02*
D03*
X10025000Y3520000D02*
D03*
X10455000Y3740000D02*
D03*
X10485000Y3935000D02*
D03*
X9285000Y3645000D02*
D03*
X9590834Y3946000D02*
D03*
X10580000Y4225000D02*
D03*
X10430000Y3920000D02*
D03*
X10415000Y4165000D02*
D03*
X10495000Y4210000D02*
D03*
X10395000Y4245000D02*
D03*
X10403287Y4433287D02*
D03*
X9845000Y4380000D02*
D03*
X10125000Y4450000D02*
D03*
X10170000Y4465000D02*
D03*
X10158937Y4590000D02*
D03*
X9930000Y4499488D02*
D03*
X10110000Y4675000D02*
D03*
Y4730000D02*
D03*
X10505000Y4815000D02*
D03*
X10460000Y4810000D02*
D03*
X10640000Y4873346D02*
D03*
X10700000Y4805000D02*
D03*
X10680000Y4745000D02*
D03*
X10615000Y4520000D02*
D03*
X10550000Y4495000D02*
D03*
X10165000Y4850000D02*
D03*
X11795000Y4985000D02*
D03*
X10660000Y5415551D02*
D03*
X9430000Y4635000D02*
D03*
X11130000Y6355000D02*
D03*
X8271083Y3578917D02*
D03*
X11880000Y6111282D02*
D03*
X11940000Y6090000D02*
D03*
X11749944Y3250000D02*
D03*
X10545000Y4435000D02*
D03*
X10485000Y4423347D02*
D03*
X11045000Y6195000D02*
D03*
X11510000Y5605000D02*
D03*
X10925000Y5520000D02*
D03*
X11665000Y3945000D02*
D03*
X11775000Y4710000D02*
D03*
X10960551Y3776654D02*
D03*
X10885000Y3890295D02*
D03*
X10975000Y5430000D02*
D03*
X11960000Y3342863D02*
D03*
X11855000Y5135000D02*
D03*
X10861803Y3410000D02*
D03*
X10595000Y3420000D02*
D03*
X10080000Y3490000D02*
D03*
X10254606Y3500394D02*
D03*
X10115000Y3875000D02*
D03*
X10310000Y3840000D02*
D03*
X9660000Y3975000D02*
D03*
Y4186260D02*
D03*
X8247165Y4180000D02*
D03*
X8150000D02*
D03*
X8000984D02*
D03*
X8267165Y4060000D02*
D03*
X8870000Y3550000D02*
D03*
X9410000Y4325000D02*
D03*
X9209449D02*
D03*
X9107439D02*
D03*
X11090000Y3955000D02*
D03*
X10920000Y3972835D02*
D03*
X10045099Y4524901D02*
D03*
X8750000Y3395000D02*
D03*
X8715000Y3896181D02*
D03*
X8850000Y4055000D02*
D03*
X9090000Y3900000D02*
D03*
Y3775000D02*
D03*
X10330000Y3915000D02*
D03*
X10455000Y4060000D02*
D03*
X10855000Y3940000D02*
D03*
X10700000Y3745000D02*
D03*
X10580000Y3780000D02*
D03*
X10530000Y3775000D02*
D03*
X10405355Y4060000D02*
D03*
X10195000Y4074410D02*
D03*
X10055000Y4153937D02*
D03*
X10665000Y4245834D02*
D03*
X10520000Y4365000D02*
D03*
X10755000Y5235000D02*
D03*
X11565000Y5180000D02*
D03*
X11730000Y3864449D02*
D03*
X10795000Y5175000D02*
D03*
X10715000Y5065000D02*
D03*
X10335000Y5545000D02*
D03*
X10405000Y5475000D02*
D03*
X10075000Y4431904D02*
D03*
X9790000Y4195000D02*
D03*
X9765000Y3915000D02*
D03*
X10310000Y4385000D02*
D03*
X10275000Y4300000D02*
D03*
X9830000Y4440000D02*
D03*
Y4485000D02*
D03*
X9566774Y4540000D02*
D03*
X9598856Y4575000D02*
D03*
X9420000Y4540000D02*
D03*
X9450000Y4575000D02*
D03*
X9736575Y4645000D02*
D03*
X9320000Y4494488D02*
D03*
X8300000Y3705000D02*
D03*
X8015000Y3540000D02*
D03*
X10696378Y6055000D02*
D03*
X11835000Y6125000D02*
D03*
X8497165Y3765000D02*
D03*
X8293465Y4120000D02*
D03*
X8247165Y4125000D02*
D03*
X8042165Y3875000D02*
D03*
X8207165Y3900000D02*
D03*
X9885000Y3605000D02*
D03*
X10240000Y3695000D02*
D03*
X10005000Y4140000D02*
D03*
X10350000Y4225000D02*
D03*
X9866732Y4075000D02*
D03*
X9464882Y3705118D02*
D03*
X10560000Y4590000D02*
D03*
X10360000Y4385000D02*
D03*
X10160000Y4520000D02*
D03*
X10175000Y4898032D02*
D03*
X10060000Y5235000D02*
D03*
X10175000Y4950000D02*
D03*
X10225000Y5015000D02*
D03*
X10120000Y5230000D02*
D03*
X9650000Y5055000D02*
D03*
X9820000Y4970000D02*
D03*
X9840000Y4225000D02*
D03*
Y4275000D02*
D03*
Y4335000D02*
D03*
X10510000Y4163937D02*
D03*
X10545000Y4060000D02*
D03*
X11040000Y5745000D02*
D03*
X10025000Y5635000D02*
D03*
Y5290000D02*
D03*
X11055000Y5685000D02*
D03*
X10075000Y5590000D02*
D03*
Y5275000D02*
D03*
X10400000Y4370000D02*
D03*
X10168898Y4215000D02*
D03*
X10170000Y4275000D02*
D03*
X9705000Y5435000D02*
D03*
X10175000Y4785000D02*
D03*
X10165000Y4665000D02*
D03*
X10580000Y3940000D02*
D03*
X10480000Y3401299D02*
D03*
X10280000Y5411496D02*
D03*
X10500000Y4685000D02*
D03*
X9925000Y4725000D02*
D03*
X10110000Y4775000D02*
D03*
X9920000Y5895000D02*
D03*
X11790000Y4310000D02*
D03*
X10990000Y5035000D02*
D03*
X10340000Y4929606D02*
D03*
X10375000Y5115000D02*
D03*
X10635000Y4398978D02*
D03*
X10875000Y4335000D02*
D03*
X11055000Y4610000D02*
D03*
X10895000Y4850000D02*
D03*
X10105000Y4390000D02*
D03*
X11035000Y5430000D02*
D03*
X11255000Y5555000D02*
D03*
X10760000Y5385000D02*
D03*
X10770000Y4835000D02*
D03*
X10480000Y4985000D02*
D03*
X10425000Y5110000D02*
D03*
X10105000Y3940000D02*
D03*
X10585000Y4460000D02*
D03*
X8505000Y5255000D02*
D03*
X9215000Y5070000D02*
D03*
X9405000Y5825000D02*
D03*
X9020000Y6007283D02*
D03*
X8825000Y5720000D02*
D03*
X8600000Y5705551D02*
D03*
X8935000Y5715000D02*
D03*
X8280000Y5705000D02*
D03*
X8550000Y5654153D02*
D03*
X9460551Y5415551D02*
D03*
Y5705551D02*
D03*
X9235000Y5410000D02*
D03*
X8885000Y5935000D02*
D03*
X8505000Y6045000D02*
D03*
X8700000Y6100000D02*
D03*
X9085000Y5404449D02*
D03*
X8920000Y5352106D02*
D03*
X9345000Y5590000D02*
D03*
X9180000Y5460000D02*
D03*
X9040000Y5870000D02*
D03*
X9080157Y5694842D02*
D03*
X9375000Y5710000D02*
D03*
X9215000Y5580000D02*
D03*
X9165000Y5750276D02*
D03*
X8650000Y5735000D02*
D03*
X8850000Y5525000D02*
D03*
X9085000Y5575551D02*
D03*
D107*
X10205000Y1995000D02*
D03*
X9640000Y2335000D02*
D03*
X11735000Y2805000D02*
D03*
X10920000Y3284449D02*
D03*
X10415000Y2320000D02*
D03*
X10895000Y1985000D02*
D03*
X11265000Y2095000D02*
D03*
X11720000Y5060000D02*
D03*
X10060000Y3185000D02*
D03*
D108*
X11850000Y6530000D02*
D03*
X8010000D02*
D03*
Y1730000D02*
D03*
X11850000D02*
D03*
%TF.MD5,783ef7c2697677da28f106ae4b2e0c99*%
M02*
