G04*
G04 #@! TF.GenerationSoftware,Altium Limited,Altium Designer,18.1.9 (240)*
G04*
G04 Layer_Color=128*
%FSLAX25Y25*%
%MOIN*%
G70*
G01*
G75*
%ADD120C,0.00200*%
D120*
X310433Y37402D02*
X323425D01*
X316929Y30906D02*
Y43898D01*
X678543Y37402D02*
X691535D01*
X685039Y30906D02*
Y43898D01*
X678543Y696850D02*
X691535D01*
X685039Y690354D02*
Y703346D01*
X310433Y696850D02*
X323425D01*
X316929Y690354D02*
Y703346D01*
X607602Y686614D02*
X614602D01*
X611102Y683114D02*
Y690114D01*
X629965Y686614D02*
X636965D01*
X633465Y683114D02*
Y690114D01*
X618783Y668720D02*
X625783D01*
X622283Y665220D02*
Y672220D01*
X629729Y575020D02*
X636728D01*
X633228Y571520D02*
Y578520D01*
X607366Y575020D02*
X614366D01*
X610866Y571520D02*
Y578520D01*
X618547Y592913D02*
X625547D01*
X622047Y589413D02*
Y596413D01*
X489134Y639370D02*
X492283D01*
X490709Y637795D02*
Y640945D01*
X479134Y639370D02*
X482283D01*
X480709Y637795D02*
Y640945D01*
X469134Y639370D02*
X472284D01*
X470709Y637795D02*
Y640945D01*
X511417Y626614D02*
X514567D01*
X512992Y625039D02*
Y628189D01*
X511417Y636614D02*
X514567D01*
X512992Y635039D02*
Y638189D01*
X511417Y646614D02*
X514567D01*
X512992Y645039D02*
Y648189D01*
X559055Y666299D02*
X562205D01*
X560630Y664724D02*
Y667874D01*
X559055Y656299D02*
X562205D01*
X560630Y654724D02*
Y657874D01*
X559055Y646299D02*
X562205D01*
X560630Y644724D02*
Y647874D01*
X675394Y195472D02*
X688386D01*
X681890Y188976D02*
Y201969D01*
X675394Y347047D02*
X688386D01*
X681890Y340551D02*
Y353543D01*
X622244Y446457D02*
X627362D01*
X624803Y443898D02*
Y449016D01*
X622244Y434646D02*
X627362D01*
X624803Y432087D02*
Y437205D01*
X622244Y422835D02*
X627362D01*
X624803Y420276D02*
Y425394D01*
X622244Y411024D02*
X627362D01*
X624803Y408465D02*
Y413583D01*
X622244Y399213D02*
X627362D01*
X624803Y396654D02*
Y401772D01*
X622244Y387402D02*
X627362D01*
X624803Y384842D02*
Y389961D01*
X622244Y375590D02*
X627362D01*
X624803Y373031D02*
Y378150D01*
X632087Y440551D02*
X637205D01*
X634646Y437992D02*
Y443110D01*
X632087Y428740D02*
X637205D01*
X634646Y426181D02*
Y431299D01*
X632087Y416929D02*
X637205D01*
X634646Y414370D02*
Y419488D01*
X632087Y405118D02*
X637205D01*
X634646Y402559D02*
Y407677D01*
X632087Y393307D02*
X637205D01*
X634646Y390748D02*
Y395866D01*
X632087Y381496D02*
X637205D01*
X634646Y378937D02*
Y384055D01*
X643898Y440551D02*
X649016D01*
X646457Y437992D02*
Y443110D01*
X643898Y428740D02*
X649016D01*
X646457Y426181D02*
Y431299D01*
X643898Y416929D02*
X649016D01*
X646457Y414370D02*
Y419488D01*
X643898Y405118D02*
X649016D01*
X646457Y402559D02*
Y407677D01*
X643898Y393307D02*
X649016D01*
X646457Y390748D02*
Y395866D01*
X643898Y381496D02*
X649016D01*
X646457Y378937D02*
Y384055D01*
X653740Y446457D02*
X658858D01*
X656299Y443898D02*
Y449016D01*
X653740Y434646D02*
X658858D01*
X656299Y432087D02*
Y437205D01*
X653740Y422835D02*
X658858D01*
X656299Y420276D02*
Y425394D01*
X653740Y411024D02*
X658858D01*
X656299Y408465D02*
Y413583D01*
X653740Y399213D02*
X658858D01*
X656299Y396654D02*
Y401772D01*
X653740Y387402D02*
X658858D01*
X656299Y384842D02*
Y389961D01*
X653740Y375590D02*
X658858D01*
X656299Y373031D02*
Y378150D01*
X675394Y475000D02*
X688386D01*
X681890Y468504D02*
Y481496D01*
X653740Y224016D02*
X658858D01*
X656299Y221457D02*
Y226575D01*
X653740Y235827D02*
X658858D01*
X656299Y233268D02*
Y238386D01*
X653740Y247638D02*
X658858D01*
X656299Y245079D02*
Y250197D01*
X653740Y259449D02*
X658858D01*
X656299Y256890D02*
Y262008D01*
X653740Y271260D02*
X658858D01*
X656299Y268701D02*
Y273819D01*
X653740Y283071D02*
X658858D01*
X656299Y280512D02*
Y285630D01*
X653740Y294882D02*
X658858D01*
X656299Y292323D02*
Y297441D01*
X653740Y306693D02*
X658858D01*
X656299Y304134D02*
Y309252D01*
X653740Y318504D02*
X658858D01*
X656299Y315945D02*
Y321063D01*
X643898Y229921D02*
X649016D01*
X646457Y227362D02*
Y232480D01*
X643898Y241732D02*
X649016D01*
X646457Y239173D02*
Y244291D01*
X643898Y253543D02*
X649016D01*
X646457Y250984D02*
Y256102D01*
X643898Y265354D02*
X649016D01*
X646457Y262795D02*
Y267913D01*
X643898Y277165D02*
X649016D01*
X646457Y274606D02*
Y279724D01*
X643898Y288976D02*
X649016D01*
X646457Y286417D02*
Y291535D01*
X643898Y300787D02*
X649016D01*
X646457Y298228D02*
Y303346D01*
X643898Y312598D02*
X649016D01*
X646457Y310039D02*
Y315158D01*
X632087Y229921D02*
X637205D01*
X634646Y227362D02*
Y232480D01*
X632087Y241732D02*
X637205D01*
X634646Y239173D02*
Y244291D01*
X632087Y253543D02*
X637205D01*
X634646Y250984D02*
Y256102D01*
X632087Y265354D02*
X637205D01*
X634646Y262795D02*
Y267913D01*
X632087Y277165D02*
X637205D01*
X634646Y274606D02*
Y279724D01*
X632087Y288976D02*
X637205D01*
X634646Y286417D02*
Y291535D01*
X632087Y300787D02*
X637205D01*
X634646Y298228D02*
Y303346D01*
X632087Y312598D02*
X637205D01*
X634646Y310039D02*
Y315158D01*
X622244Y224016D02*
X627362D01*
X624803Y221457D02*
Y226575D01*
X622244Y235827D02*
X627362D01*
X624803Y233268D02*
Y238386D01*
X622244Y247638D02*
X627362D01*
X624803Y245079D02*
Y250197D01*
X622244Y259449D02*
X627362D01*
X624803Y256890D02*
Y262008D01*
X622244Y271260D02*
X627362D01*
X624803Y268701D02*
Y273819D01*
X622244Y283071D02*
X627362D01*
X624803Y280512D02*
Y285630D01*
X622244Y294882D02*
X627362D01*
X624803Y292323D02*
Y297441D01*
X622244Y306693D02*
X627362D01*
X624803Y304134D02*
Y309252D01*
X622244Y318504D02*
X627362D01*
X624803Y315945D02*
Y321063D01*
X358941Y89567D02*
X364059D01*
X361500Y87008D02*
Y92126D01*
X358941Y60039D02*
X364059D01*
X361500Y57480D02*
Y62598D01*
X437681Y60039D02*
X442799D01*
X440240Y57480D02*
Y62598D01*
X417996Y60039D02*
X423114D01*
X420555Y57480D02*
Y62598D01*
X437681Y89567D02*
X442799D01*
X440240Y87008D02*
Y92126D01*
X417996Y89567D02*
X423114D01*
X420555Y87008D02*
Y92126D01*
X457366Y60039D02*
X462484D01*
X459925Y57480D02*
Y62598D01*
X457366Y89567D02*
X462484D01*
X459925Y87008D02*
Y92126D01*
X374468Y190157D02*
X377618D01*
X376043Y188583D02*
Y191732D01*
X364469Y190157D02*
X367618D01*
X366043Y188583D02*
Y191732D01*
X354468Y190157D02*
X357618D01*
X356043Y188583D02*
Y191732D01*
X417579Y190551D02*
X420728D01*
X419153Y188976D02*
Y192126D01*
X407579Y190551D02*
X410728D01*
X409154Y188976D02*
Y192126D01*
X397579Y190551D02*
X400728D01*
X399153Y188976D02*
Y192126D01*
X459902Y190551D02*
X463051D01*
X461476Y188976D02*
Y192126D01*
X449902Y190551D02*
X453051D01*
X451476Y188976D02*
Y192126D01*
X439902Y190551D02*
X443051D01*
X441476Y188976D02*
Y192126D01*
X502421Y190157D02*
X505571D01*
X503996Y188583D02*
Y191732D01*
X492421Y190157D02*
X495571D01*
X493996Y188583D02*
Y191732D01*
X482421Y190157D02*
X485571D01*
X483996Y188583D02*
Y191732D01*
X544941Y189370D02*
X548091D01*
X546516Y187795D02*
Y190945D01*
X534941Y189370D02*
X538091D01*
X536516Y187795D02*
Y190945D01*
X524941Y189370D02*
X528090D01*
X526516Y187795D02*
Y190945D01*
X525295Y121260D02*
X530807D01*
X528051Y118504D02*
Y124016D01*
X522736Y158661D02*
X528248D01*
X525492Y155905D02*
Y161417D01*
X537697Y144882D02*
X543209D01*
X540453Y142126D02*
Y147638D01*
X542815Y180315D02*
X547146D01*
X544980Y178150D02*
Y182480D01*
X525886Y180315D02*
X530217D01*
X528051Y178150D02*
Y182480D01*
X482776Y121260D02*
X488287D01*
X485532Y118504D02*
Y124016D01*
X480217Y158661D02*
X485728D01*
X482972Y155905D02*
Y161417D01*
X495177Y144882D02*
X500689D01*
X497933Y142126D02*
Y147638D01*
X500295Y180315D02*
X504626D01*
X502461Y178150D02*
Y182480D01*
X483366Y180315D02*
X487697D01*
X485532Y178150D02*
Y182480D01*
X440256Y121653D02*
X445768D01*
X443012Y118898D02*
Y124409D01*
X437697Y159055D02*
X443209D01*
X440453Y156299D02*
Y161811D01*
X452658Y145276D02*
X458169D01*
X455413Y142520D02*
Y148031D01*
X457776Y180709D02*
X462106D01*
X459941Y178543D02*
Y182874D01*
X440846Y180709D02*
X445177D01*
X443012Y178543D02*
Y182874D01*
X397736Y121653D02*
X403248D01*
X400492Y118898D02*
Y124409D01*
X395177Y159055D02*
X400689D01*
X397933Y156299D02*
Y161811D01*
X410138Y145276D02*
X415650D01*
X412894Y142520D02*
Y148031D01*
X415256Y180709D02*
X419587D01*
X417421Y178543D02*
Y182874D01*
X398327Y180709D02*
X402658D01*
X400492Y178543D02*
Y182874D01*
X354823Y121260D02*
X360335D01*
X357579Y118504D02*
Y124016D01*
X352264Y158661D02*
X357776D01*
X355020Y155905D02*
Y161417D01*
X367224Y144882D02*
X372736D01*
X369980Y142126D02*
Y147638D01*
X372342Y180315D02*
X376673D01*
X374508Y178150D02*
Y182480D01*
X355413Y180315D02*
X359744D01*
X357579Y178150D02*
Y182480D01*
X418110Y327972D02*
X422047D01*
X420079Y326004D02*
Y329941D01*
X418110Y312972D02*
X422047D01*
X420079Y311004D02*
Y314941D01*
X579331Y60039D02*
X583661D01*
X581496Y57874D02*
Y62205D01*
X560827Y60039D02*
X565158D01*
X562992Y57874D02*
Y62205D01*
X542323Y60039D02*
X546654D01*
X544488Y57874D02*
Y62205D01*
X571275Y463386D02*
X572775D01*
X572025Y462636D02*
Y464136D01*
X579171Y500787D02*
X580671D01*
X579921Y500037D02*
Y501537D01*
X494919Y553543D02*
X496419D01*
X495669Y552793D02*
Y554293D01*
X477990Y541732D02*
X479490D01*
X478740Y540982D02*
Y542482D01*
X537439Y538583D02*
X538939D01*
X538189Y537833D02*
Y539333D01*
X520510Y531890D02*
X522010D01*
X521260Y531140D02*
Y532640D01*
X530746Y416535D02*
X532246D01*
X531496Y415785D02*
Y417285D01*
X529959Y427165D02*
X531459D01*
X530709Y426415D02*
Y427915D01*
X529959Y435433D02*
X531459D01*
X530709Y434683D02*
Y436183D01*
X315392Y186221D02*
X316892D01*
X316142Y185470D02*
Y186970D01*
X381140Y294882D02*
X382640D01*
X381890Y294132D02*
Y295632D01*
X496494Y246260D02*
X497994D01*
X497244Y245510D02*
Y247010D01*
X501219Y248425D02*
X502718D01*
X501968Y247675D02*
Y249175D01*
X491770Y242913D02*
X493270D01*
X492520Y242163D02*
Y243663D01*
X511327Y284508D02*
X512827D01*
X512077Y283758D02*
Y285258D01*
X408403Y443307D02*
X409903D01*
X409154Y442557D02*
Y444057D01*
X406730Y450787D02*
X408230D01*
X407480Y450037D02*
Y451537D01*
X418541Y429134D02*
X420041D01*
X419291Y428384D02*
Y429884D01*
X405156Y457087D02*
X406656D01*
X405905Y456337D02*
Y457837D01*
X418403Y210630D02*
X419904D01*
X419153Y209880D02*
Y211380D01*
X503187Y398031D02*
X504687D01*
X503937Y397282D02*
Y398781D01*
X323266Y158501D02*
X324766D01*
X324016Y157751D02*
Y159251D01*
X315392Y175984D02*
X316892D01*
X316142Y175234D02*
Y176734D01*
X323266Y186614D02*
X324766D01*
X324016Y185864D02*
Y187364D01*
X326415Y237008D02*
X327915D01*
X327165Y236258D02*
Y237758D01*
X329565Y453937D02*
X331065D01*
X330315Y453187D02*
Y454687D01*
X332715Y445276D02*
X334215D01*
X333465Y444526D02*
Y446026D01*
X490589Y437402D02*
X492089D01*
X491339Y436652D02*
Y438152D01*
X634585Y515354D02*
X636085D01*
X635335Y514604D02*
Y516104D01*
X609388Y384390D02*
X610888D01*
X610138Y383640D02*
Y385140D01*
X631533Y372047D02*
X633034D01*
X632283Y371297D02*
Y372797D01*
X623660Y365748D02*
X625160D01*
X624409Y364998D02*
Y366498D01*
X616179Y373622D02*
X617679D01*
X616929Y372872D02*
Y374372D01*
X677203Y414961D02*
X678703D01*
X677953Y414211D02*
Y415711D01*
X690589Y401575D02*
X692089D01*
X691339Y400825D02*
Y402325D01*
X683896Y385039D02*
X685396D01*
X684646Y384289D02*
Y385789D01*
X600431Y469685D02*
X601931D01*
X601181Y468935D02*
Y470435D01*
X611061Y259449D02*
X612561D01*
X611811Y258699D02*
Y260199D01*
X671297Y257874D02*
X672797D01*
X672047Y257124D02*
Y258624D01*
X688620Y267323D02*
X690120D01*
X689370Y266573D02*
Y268073D01*
X661553Y301969D02*
X663053D01*
X662303Y301219D02*
Y302718D01*
X608935Y420472D02*
X610435D01*
X609685Y419722D02*
Y421222D01*
X639801Y320079D02*
X641301D01*
X640551Y319329D02*
Y320829D01*
X475628Y618898D02*
X477128D01*
X476378Y618148D02*
Y619648D01*
X621691Y340158D02*
X623191D01*
X622441Y339407D02*
Y340908D01*
X576809Y357874D02*
X578309D01*
X577559Y357124D02*
Y358624D01*
X513423Y239370D02*
X514923D01*
X514173Y238620D02*
Y240120D01*
X477990Y246850D02*
X479490D01*
X478740Y246100D02*
Y247600D01*
X382518Y288583D02*
X384018D01*
X383268Y287833D02*
Y289333D01*
X670510Y352756D02*
X672010D01*
X671260Y352006D02*
Y353506D01*
X684289Y362598D02*
X685789D01*
X685039Y361848D02*
Y363348D01*
X431533Y372047D02*
X433034D01*
X432283Y371297D02*
Y372797D01*
X432320Y362598D02*
X433820D01*
X433070Y361848D02*
Y363348D01*
X487340Y368012D02*
X488840D01*
X488091Y367262D02*
Y368762D01*
X388226Y374016D02*
X389726D01*
X388976Y373266D02*
Y374766D01*
X339013Y266535D02*
X340513D01*
X339763Y265785D02*
Y267285D01*
X335893Y250787D02*
X337393D01*
X336643Y250037D02*
Y251537D01*
X365785Y577165D02*
X367285D01*
X366535Y576415D02*
Y577915D01*
X365785Y581791D02*
X367285D01*
X366535Y581041D02*
Y582541D01*
X350628Y584252D02*
X352128D01*
X351378Y583502D02*
Y585002D01*
X346100Y587499D02*
X347600D01*
X346850Y586749D02*
Y588249D01*
X323266Y59842D02*
X324766D01*
X324016Y59092D02*
Y60593D01*
X623660Y94095D02*
X625160D01*
X624409Y93344D02*
Y94845D01*
X634289Y104724D02*
X635789D01*
X635039Y103974D02*
Y105474D01*
X577990Y124016D02*
X579490D01*
X578740Y123266D02*
Y124766D01*
X581533Y110236D02*
X583034D01*
X582283Y109486D02*
Y110986D01*
X496100Y61811D02*
X497600D01*
X496850Y61061D02*
Y62561D01*
X331927Y142913D02*
X333427D01*
X332677Y142163D02*
Y143663D01*
X404368Y54724D02*
X405868D01*
X405118Y53974D02*
Y55474D01*
X454663Y105512D02*
X456163D01*
X455413Y104762D02*
Y106262D01*
X508699Y103937D02*
X510199D01*
X509449Y103187D02*
Y104687D01*
X566966Y115354D02*
X568467D01*
X567717Y114604D02*
Y116104D01*
X586652Y114567D02*
X588152D01*
X587402Y113817D02*
Y115317D01*
X374447Y512598D02*
X375947D01*
X375197Y511848D02*
Y513348D01*
X345313Y431890D02*
X346813D01*
X346063Y431140D02*
Y432640D01*
X354762Y441339D02*
X356262D01*
X355512Y440589D02*
Y442089D01*
X343738Y540551D02*
X345238D01*
X344488Y539801D02*
Y541301D01*
X403187Y565748D02*
X404687D01*
X403937Y564998D02*
Y566498D01*
X603071Y99213D02*
X607953D01*
X605512Y96772D02*
Y101654D01*
X403581Y330512D02*
X405081D01*
X404331Y329762D02*
Y331262D01*
X592754Y458661D02*
X594254D01*
X593504Y457911D02*
Y459411D01*
X654368Y458661D02*
X655868D01*
X655118Y457911D02*
Y459411D01*
X595707Y308268D02*
X597207D01*
X596457Y307518D02*
Y309018D01*
X593344Y296457D02*
X594844D01*
X594095Y295707D02*
Y297207D01*
X593344Y281102D02*
X594844D01*
X594095Y280352D02*
Y281852D01*
X402793Y510236D02*
X404293D01*
X403543Y509486D02*
Y510986D01*
X391376Y534646D02*
X392876D01*
X392126Y533896D02*
Y535396D01*
X494526Y502756D02*
X496026D01*
X495276Y502006D02*
Y503506D01*
X495707Y479921D02*
X497207D01*
X496457Y479171D02*
Y480671D01*
X676415Y434646D02*
X677915D01*
X677165Y433896D02*
Y435396D01*
X671691Y402362D02*
X673191D01*
X672441Y401612D02*
Y403112D01*
X672085Y361811D02*
X673585D01*
X672835Y361061D02*
Y362561D01*
X667754Y286221D02*
X669254D01*
X668504Y285471D02*
Y286970D01*
X323266Y469291D02*
X324766D01*
X324016Y468541D02*
Y470041D01*
X493738Y509449D02*
X495238D01*
X494488Y508699D02*
Y510199D01*
X483502Y513779D02*
X485002D01*
X484252Y513029D02*
Y514530D01*
X470903Y393701D02*
X472403D01*
X471654Y392951D02*
Y394451D01*
X581927Y600591D02*
X583427D01*
X582677Y599840D02*
Y601340D01*
X581927Y557300D02*
X583427D01*
X582677Y556550D02*
Y558050D01*
X524053Y562732D02*
X525553D01*
X524803Y561982D02*
Y563482D01*
X492951Y627651D02*
X494451D01*
X493701Y626901D02*
Y628401D01*
X518541Y628721D02*
X520041D01*
X519291Y627971D02*
Y629470D01*
X571275Y173622D02*
X572775D01*
X572025Y172872D02*
Y174372D01*
X561061Y183836D02*
X562561D01*
X561811Y183086D02*
Y184586D01*
X373955Y342903D02*
X375455D01*
X374705Y342153D02*
Y343653D01*
X351612Y313779D02*
X353112D01*
X352362Y313030D02*
Y314529D01*
X373955Y361024D02*
X375455D01*
X374705Y360274D02*
Y361774D01*
X538128Y484917D02*
X539628D01*
X538878Y484167D02*
Y485667D01*
X537833Y498425D02*
X539333D01*
X538583Y497675D02*
Y499175D01*
X425184Y514567D02*
X426684D01*
X425934Y513817D02*
Y515317D01*
X363995Y568504D02*
X365495D01*
X364745Y567754D02*
Y569254D01*
X497282Y335546D02*
X498781D01*
X498032Y334796D02*
Y336296D01*
X379565Y268898D02*
X381065D01*
X380315Y268148D02*
Y269648D01*
X375431Y278740D02*
X376931D01*
X376181Y277990D02*
Y279490D01*
X390982Y288583D02*
X392482D01*
X391732Y287833D02*
Y289333D01*
X389014Y258661D02*
X390514D01*
X389764Y257911D02*
Y259411D01*
X493344Y367815D02*
X494844D01*
X494095Y367065D02*
Y368565D01*
X607911Y357480D02*
X609411D01*
X608661Y356730D02*
Y358230D01*
X607911Y343307D02*
X609411D01*
X608661Y342557D02*
Y344057D01*
X483502Y478346D02*
X485002D01*
X484252Y477597D02*
Y479097D01*
X451219Y494882D02*
X452718D01*
X451968Y494132D02*
Y495632D01*
X428778Y304331D02*
X430278D01*
X429528Y303581D02*
Y305081D01*
X594526Y318504D02*
X596026D01*
X595276Y317754D02*
Y319254D01*
X596888Y328740D02*
X598388D01*
X597638Y327990D02*
Y329490D01*
X530746Y330709D02*
X532246D01*
X531496Y329959D02*
Y331459D01*
X487340Y400689D02*
X488840D01*
X488091Y399939D02*
Y401439D01*
X401219Y243307D02*
X402718D01*
X401968Y242557D02*
Y244057D01*
X441376Y341732D02*
X442876D01*
X442126Y340982D02*
Y342482D01*
X356337Y307087D02*
X357837D01*
X357087Y306337D02*
Y307837D01*
X489801Y547244D02*
X491301D01*
X490551Y546494D02*
Y547994D01*
X435530Y592461D02*
X437030D01*
X436279Y591711D02*
Y593211D01*
X599250Y637795D02*
X600750D01*
X600000Y637045D02*
Y638545D01*
X655039Y363779D02*
X659921D01*
X657480Y361339D02*
Y366220D01*
X543738Y540551D02*
X545238D01*
X544488Y539801D02*
Y541301D01*
X548640Y384252D02*
X550140D01*
X549390Y383502D02*
Y385002D01*
X537045Y384252D02*
X538545D01*
X537795Y383502D02*
Y385002D01*
X526415Y384646D02*
X527915D01*
X527165Y383896D02*
Y385396D01*
X513029Y385039D02*
X514530D01*
X513779Y384289D02*
Y385789D01*
X548069Y394882D02*
X549569D01*
X548819Y394132D02*
Y395632D01*
X537439Y395276D02*
X538939D01*
X538189Y394526D02*
Y396026D01*
X487045Y240158D02*
X488545D01*
X487795Y239407D02*
Y240908D01*
X543640Y239606D02*
X545140D01*
X544390Y238856D02*
Y240356D01*
X533640Y240158D02*
X535140D01*
X534390Y239407D02*
Y240908D01*
X523660Y239764D02*
X525160D01*
X524409Y239014D02*
Y240514D01*
X594919Y440158D02*
X596419D01*
X595669Y439407D02*
Y440907D01*
X604368Y214567D02*
X605868D01*
X605118Y213817D02*
Y215317D01*
X579565Y199803D02*
X581065D01*
X580315Y199053D02*
Y200553D01*
X571435Y407618D02*
X572935D01*
X572185Y406868D02*
Y408368D01*
X470510Y442520D02*
X472010D01*
X471260Y441770D02*
Y443270D01*
X578384Y345276D02*
X579884D01*
X579134Y344526D02*
Y346026D01*
X393344Y553543D02*
X394845D01*
X394094Y552793D02*
Y554293D01*
X371691Y291339D02*
X373191D01*
X372441Y290589D02*
Y292089D01*
X352006Y278346D02*
X353506D01*
X352756Y277596D02*
Y279097D01*
X605943Y222047D02*
X607443D01*
X606693Y221297D02*
Y222797D01*
X415392Y455905D02*
X416892D01*
X416142Y455156D02*
Y456656D01*
X543482Y212205D02*
X544982D01*
X544232Y211455D02*
Y212955D01*
X375431Y205512D02*
X376931D01*
X376181Y204762D02*
Y206262D01*
X326415Y462598D02*
X327915D01*
X327165Y461848D02*
Y463348D01*
X613423Y212205D02*
X614923D01*
X614173Y211455D02*
Y212955D01*
X533482Y216929D02*
X534982D01*
X534232Y216179D02*
Y217679D01*
X639407Y498032D02*
X640907D01*
X640158Y497282D02*
Y498781D01*
X476022Y517717D02*
X477522D01*
X476772Y516966D02*
Y518467D01*
X413029Y243307D02*
X414530D01*
X413779Y242557D02*
Y244057D01*
X463817Y409547D02*
X465317D01*
X464567Y408797D02*
Y410297D01*
X455943Y409547D02*
X457443D01*
X456693Y408797D02*
Y410297D01*
X443738Y592520D02*
X445238D01*
X444488Y591770D02*
Y593270D01*
X484683Y535138D02*
X486183D01*
X485433Y534388D02*
Y535888D01*
X409486Y301181D02*
X410986D01*
X410236Y300431D02*
Y301931D01*
X349644Y579528D02*
X351144D01*
X350394Y578778D02*
Y580278D01*
X489801Y334252D02*
X491301D01*
X490551Y333502D02*
Y335002D01*
X484782Y335433D02*
X486281D01*
X485532Y334683D02*
Y336183D01*
X512636Y409842D02*
X514136D01*
X513386Y409093D02*
Y410593D01*
X516179Y404724D02*
X517679D01*
X516929Y403974D02*
Y405474D01*
X509486Y416142D02*
X510986D01*
X510236Y415392D02*
Y416892D01*
X427597Y368898D02*
X429097D01*
X428346Y368148D02*
Y369648D01*
X427597Y362205D02*
X429097D01*
X428346Y361455D02*
Y362955D01*
X384683Y408661D02*
X386183D01*
X385433Y407911D02*
Y409411D01*
X392360Y408661D02*
X393860D01*
X393110Y407911D02*
Y409411D01*
X391376Y378740D02*
X392876D01*
X392126Y377990D02*
Y379490D01*
X377479Y395669D02*
X378979D01*
X378229Y394919D02*
Y396419D01*
X391376Y395669D02*
X392876D01*
X392126Y394919D02*
Y396419D01*
X453187Y341929D02*
X454687D01*
X453937Y341179D02*
Y342679D01*
X451612Y322047D02*
X453112D01*
X452362Y321297D02*
Y322797D01*
X457911Y328740D02*
X459411D01*
X458661Y327990D02*
Y329490D01*
X452597Y347835D02*
X454097D01*
X453346Y347085D02*
Y348585D01*
X447282Y323622D02*
X448781D01*
X448032Y322872D02*
Y324372D01*
X437833Y246457D02*
X439333D01*
X438583Y245707D02*
Y247207D01*
X477597Y259842D02*
X479097D01*
X478346Y259092D02*
Y260593D01*
X437833Y260630D02*
X439333D01*
X438583Y259880D02*
Y261380D01*
X437833Y253543D02*
X439333D01*
X438583Y252793D02*
Y254293D01*
X533640Y544882D02*
X535140D01*
X534390Y544132D02*
Y545632D01*
X466179Y562598D02*
X467679D01*
X466929Y561848D02*
Y563348D01*
X533502Y577165D02*
X535002D01*
X534252Y576415D02*
Y577915D01*
X559486Y605905D02*
X560986D01*
X560236Y605156D02*
Y606656D01*
X520707Y600591D02*
X522207D01*
X521457Y599840D02*
Y601340D01*
X514998Y566142D02*
X516498D01*
X515748Y565392D02*
Y566892D01*
X504762Y562205D02*
X506262D01*
X505512Y561455D02*
Y562955D01*
X460726Y618898D02*
X462226D01*
X461476Y618148D02*
Y619648D01*
X459880Y598032D02*
X461380D01*
X460630Y597282D02*
Y598781D01*
X454880Y598307D02*
X456380D01*
X455630Y597557D02*
Y599057D01*
X530352Y642913D02*
X531852D01*
X531102Y642163D02*
Y643663D01*
X358305Y511024D02*
X359805D01*
X359055Y510274D02*
Y511774D01*
X383502Y509449D02*
X385002D01*
X384252Y508699D02*
Y510199D01*
X391770Y519685D02*
X393270D01*
X392520Y518935D02*
Y520435D01*
X409880Y519291D02*
X411380D01*
X410630Y518541D02*
Y520041D01*
X435589Y330512D02*
X437089D01*
X436339Y329762D02*
Y331262D01*
X577597Y444882D02*
X579097D01*
X578346Y444132D02*
Y445632D01*
X578384Y427165D02*
X579884D01*
X579134Y426415D02*
Y427915D01*
X546888Y284843D02*
X548388D01*
X547638Y284093D02*
Y285593D01*
X533640Y284508D02*
X535140D01*
X534390Y283758D02*
Y285258D01*
X516573Y284646D02*
X518073D01*
X517323Y283896D02*
Y285396D01*
X574840Y342126D02*
X576340D01*
X575591Y341376D02*
Y342876D01*
X581140Y353937D02*
X582640D01*
X581890Y353187D02*
Y354687D01*
X589014Y350787D02*
X590514D01*
X589764Y350037D02*
Y351537D01*
X595313Y367717D02*
X596813D01*
X596063Y366967D02*
Y368466D01*
X596494Y350394D02*
X597994D01*
X597244Y349644D02*
Y351144D01*
X602006Y340945D02*
X603506D01*
X602756Y340195D02*
Y341695D01*
X378778Y556693D02*
X380278D01*
X379528Y555943D02*
Y557443D01*
M02*
