%TF.GenerationSoftware,Altium Limited,Altium Designer,18.1.7 (191)*%
G04 Layer_Color=128*
%FSLAX26Y26*%
%MOIN*%
%TF.FileFunction,Paste,Bot*%
%TF.Part,Single*%
G01*
G75*
%TA.AperFunction,SMDPad,CuDef*%
%ADD12R,0.053150X0.045276*%
%ADD13R,0.045276X0.053150*%
%ADD17R,0.025591X0.068898*%
%ADD18R,0.035433X0.039370*%
%ADD21R,0.039370X0.035433*%
%ADD23R,0.035433X0.031496*%
%ADD24R,0.037402X0.033465*%
%ADD25O,0.023622X0.057087*%
%ADD61O,0.019685X0.064961*%
%ADD62R,0.074803X0.074803*%
%TA.AperFunction,ConnectorPad*%
%ADD63R,0.051181X0.057087*%
%ADD64R,0.055118X0.062992*%
%ADD65R,0.053150X0.015748*%
%TA.AperFunction,SMDPad,CuDef*%
%ADD66R,0.011811X0.053150*%
%ADD67R,0.053150X0.011811*%
D12*
X11025000Y3841102D02*
D03*
Y3910000D02*
D03*
X10845000Y3996102D02*
D03*
Y4065000D02*
D03*
X11620000Y4830551D02*
D03*
Y4899449D02*
D03*
X11285000Y4394449D02*
D03*
Y4325551D02*
D03*
Y4677402D02*
D03*
Y4608504D02*
D03*
X11030000Y4780551D02*
D03*
Y4849449D02*
D03*
X11565000Y4325551D02*
D03*
Y4394449D02*
D03*
X11015551Y4099449D02*
D03*
Y4030551D02*
D03*
X11395000Y4325551D02*
D03*
Y4394449D02*
D03*
X11630000Y3864449D02*
D03*
Y3795551D02*
D03*
D13*
X11679449Y4735000D02*
D03*
X11610551D02*
D03*
X10965551Y4210000D02*
D03*
X11034449D02*
D03*
X10960551Y3500394D02*
D03*
X11029449D02*
D03*
D17*
X8640000Y3989055D02*
D03*
X8690000D02*
D03*
X8740000D02*
D03*
X8790000D02*
D03*
X8840000D02*
D03*
X8890000D02*
D03*
X8940000D02*
D03*
X8990000D02*
D03*
X9040000D02*
D03*
X9090000D02*
D03*
X8640000Y3620945D02*
D03*
X8690000D02*
D03*
X8740000D02*
D03*
X8790000D02*
D03*
X8840000D02*
D03*
X8890000D02*
D03*
X8940000D02*
D03*
X8990000D02*
D03*
X9040000D02*
D03*
X9090000D02*
D03*
X10205000Y3994055D02*
D03*
X10255000D02*
D03*
X10305000D02*
D03*
X10355000D02*
D03*
X10405000D02*
D03*
X10455000D02*
D03*
X10505000D02*
D03*
X10555000D02*
D03*
X10605000D02*
D03*
X10655000D02*
D03*
X10205000Y3625945D02*
D03*
X10255000D02*
D03*
X10305000D02*
D03*
X10355000D02*
D03*
X10405000D02*
D03*
X10455000D02*
D03*
X10505000D02*
D03*
X10555000D02*
D03*
X10605000D02*
D03*
X10655000D02*
D03*
D18*
X8153425Y4390000D02*
D03*
X8206575D02*
D03*
X8345591Y3841181D02*
D03*
X8398740D02*
D03*
X10441575Y5335000D02*
D03*
X10388425D02*
D03*
X10563425Y5005000D02*
D03*
X10616575D02*
D03*
D21*
X8267165Y3846575D02*
D03*
Y3793425D02*
D03*
X10460000Y4161575D02*
D03*
Y4108425D02*
D03*
D23*
X10820000Y5220000D02*
D03*
X10898740Y5182599D02*
D03*
Y5257402D02*
D03*
D24*
X10660000Y5515591D02*
D03*
Y5464409D02*
D03*
X10565000Y5464409D02*
D03*
Y5515591D02*
D03*
X10425000Y5004409D02*
D03*
Y5055591D02*
D03*
D25*
X10515000Y5337283D02*
D03*
X10565000D02*
D03*
X10615000D02*
D03*
X10665000D02*
D03*
X10515000Y5122717D02*
D03*
X10565000D02*
D03*
X10615000D02*
D03*
X10665000D02*
D03*
D61*
X8080551Y4244921D02*
D03*
X8107165D02*
D03*
X8133779D02*
D03*
X8160394D02*
D03*
X8187008D02*
D03*
X8213622D02*
D03*
X8240236D02*
D03*
X8266850D02*
D03*
X8293465D02*
D03*
X8320079D02*
D03*
X8346693D02*
D03*
X8373307D02*
D03*
X8399921D02*
D03*
X8426535D02*
D03*
X8080551Y3959488D02*
D03*
X8107165D02*
D03*
X8133779D02*
D03*
X8160394D02*
D03*
X8187008D02*
D03*
X8213622D02*
D03*
X8240236D02*
D03*
X8266850D02*
D03*
X8293465D02*
D03*
X8320079D02*
D03*
X8346693D02*
D03*
X8373307D02*
D03*
X8399921D02*
D03*
X8426535D02*
D03*
D62*
X7821850Y4147244D02*
D03*
Y4052756D02*
D03*
D63*
Y4234842D02*
D03*
Y3965157D02*
D03*
D64*
X7918307Y4225984D02*
D03*
Y3974016D02*
D03*
D65*
X7927165Y4151181D02*
D03*
Y4125591D02*
D03*
Y4100000D02*
D03*
Y4074410D02*
D03*
Y4048819D02*
D03*
D66*
X10322362Y4753309D02*
D03*
X10342047D02*
D03*
X10361732D02*
D03*
X10381417D02*
D03*
X10401102D02*
D03*
X10420787D02*
D03*
X10440472D02*
D03*
X10460157D02*
D03*
X10479843D02*
D03*
X10499528D02*
D03*
X10519213D02*
D03*
X10538898D02*
D03*
X10558583D02*
D03*
X10578268D02*
D03*
X10597953D02*
D03*
X10617638D02*
D03*
Y4300553D02*
D03*
X10597953D02*
D03*
X10578268D02*
D03*
X10558583D02*
D03*
X10538898D02*
D03*
X10519213D02*
D03*
X10499528D02*
D03*
X10479843D02*
D03*
X10460157D02*
D03*
X10440472D02*
D03*
X10420787D02*
D03*
X10401102D02*
D03*
X10381417D02*
D03*
X10361732D02*
D03*
X10342047D02*
D03*
X10322362D02*
D03*
D67*
X10696378Y4674569D02*
D03*
Y4654884D02*
D03*
Y4635199D02*
D03*
Y4615514D02*
D03*
Y4595829D02*
D03*
Y4576144D02*
D03*
Y4556459D02*
D03*
Y4536774D02*
D03*
Y4517089D02*
D03*
Y4497404D02*
D03*
Y4477718D02*
D03*
Y4458033D02*
D03*
Y4438349D02*
D03*
Y4418663D02*
D03*
Y4398978D02*
D03*
Y4379293D02*
D03*
X10243622D02*
D03*
Y4398978D02*
D03*
Y4418663D02*
D03*
Y4438349D02*
D03*
Y4458033D02*
D03*
Y4477718D02*
D03*
Y4497404D02*
D03*
Y4517089D02*
D03*
Y4536774D02*
D03*
Y4556459D02*
D03*
Y4576144D02*
D03*
Y4595829D02*
D03*
Y4615514D02*
D03*
Y4635199D02*
D03*
Y4654884D02*
D03*
Y4674569D02*
D03*
%TF.MD5,a9b6961bb2d60d298f435c1179583a7e*%
M02*
