%TF.GenerationSoftware,Altium Limited,Altium Designer,18.1.7 (191)*%
G04 Layer_Color=255*
%FSLAX26Y26*%
%MOIN*%
%TF.FileFunction,Pads,Top*%
%TF.Part,Single*%
G01*
G75*
%TA.AperFunction,SMDPad,CuDef*%
%ADD10O,0.057087X0.023622*%
%ADD11R,0.053937X0.042126*%
%ADD12R,0.053150X0.045276*%
%ADD13R,0.045276X0.053150*%
%ADD14R,0.051181X0.043307*%
%ADD15R,0.080709X0.045276*%
%ADD16R,0.045276X0.080709*%
%ADD17R,0.025591X0.068898*%
%ADD18R,0.035433X0.039370*%
%ADD19R,0.053150X0.057087*%
%ADD20R,0.094488X0.029921*%
%ADD21R,0.039370X0.035433*%
%ADD22R,0.033465X0.037402*%
%ADD23R,0.035433X0.031496*%
%ADD24R,0.037402X0.033465*%
%ADD25O,0.023622X0.057087*%
%ADD26R,0.035433X0.011811*%
%ADD27R,0.016535X0.035000*%
%ADD28R,0.039370X0.023622*%
%ADD29R,0.214567X0.137795*%
%ADD30R,0.043307X0.051181*%
%ADD31R,0.181102X0.185039*%
%ADD32R,0.045276X0.027559*%
%ADD33R,0.051181X0.057087*%
%ADD34R,0.192913X0.163386*%
%ADD35R,0.055118X0.051181*%
%ADD36R,0.057087X0.053150*%
%ADD37R,0.051181X0.055118*%
%ADD38R,0.078740X0.149606*%
%ADD39R,0.078740X0.059055*%
%ADD47R,0.354331X0.393701*%
%TA.AperFunction,ComponentPad*%
%ADD48R,0.127953X0.070866*%
%ADD49C,0.090551*%
%ADD50C,0.098425*%
%ADD51C,0.078740*%
%ADD52C,0.129921*%
%ADD53C,0.086614*%
G04:AMPARAMS|DCode=54|XSize=90mil|YSize=40mil|CornerRadius=0mil|HoleSize=0mil|Usage=FLASHONLY|Rotation=32.000|XOffset=0mil|YOffset=0mil|HoleType=Round|Shape=Rectangle|*
%AMROTATEDRECTD54*
4,1,4,-0.027564,-0.040807,-0.048761,-0.006885,0.027564,0.040807,0.048761,0.006885,-0.027564,-0.040807,0.0*
%
%ADD54ROTATEDRECTD54*%

G04:AMPARAMS|DCode=55|XSize=90mil|YSize=40mil|CornerRadius=0mil|HoleSize=0mil|Usage=FLASHONLY|Rotation=148.000|XOffset=0mil|YOffset=0mil|HoleType=Round|Shape=Rectangle|*
%AMROTATEDRECTD55*
4,1,4,0.048761,-0.006885,0.027564,-0.040807,-0.048761,0.006885,-0.027564,0.040807,0.048761,-0.006885,0.0*
%
%ADD55ROTATEDRECTD55*%

%ADD56R,0.040000X0.090000*%
%ADD57C,0.055118*%
D10*
X8767283Y5525000D02*
D03*
Y5575000D02*
D03*
Y5425000D02*
D03*
Y5475000D02*
D03*
X8552717D02*
D03*
Y5575000D02*
D03*
Y5525000D02*
D03*
Y5425000D02*
D03*
X9117717Y6010000D02*
D03*
Y5960000D02*
D03*
Y5910000D02*
D03*
Y5860000D02*
D03*
X9332283Y6010000D02*
D03*
Y5960000D02*
D03*
Y5910000D02*
D03*
Y5860000D02*
D03*
D11*
X11233858Y6048189D02*
D03*
Y6115905D02*
D03*
Y6183622D02*
D03*
Y6251338D02*
D03*
Y6319055D02*
D03*
D12*
X7977165Y3965551D02*
D03*
Y4034449D02*
D03*
X9285000Y3884449D02*
D03*
Y3815551D02*
D03*
X11825000Y2609449D02*
D03*
Y2540551D02*
D03*
X8093000Y5869449D02*
D03*
Y5800551D02*
D03*
X8094000Y5414449D02*
D03*
Y5345551D02*
D03*
Y5669449D02*
D03*
Y5600551D02*
D03*
X8093000Y6124449D02*
D03*
Y6055551D02*
D03*
X8845000Y5067953D02*
D03*
Y4999055D02*
D03*
X8092000Y5071337D02*
D03*
Y5002439D02*
D03*
D13*
X8174449Y3710000D02*
D03*
X8105551D02*
D03*
X8426614Y3765000D02*
D03*
X8357717D02*
D03*
X8174449Y3620000D02*
D03*
X8105551D02*
D03*
X8520551Y3325000D02*
D03*
X8589449D02*
D03*
X9535551Y3605000D02*
D03*
X9604449D02*
D03*
X9529449Y5885000D02*
D03*
X9460551D02*
D03*
X9714449Y5620000D02*
D03*
X9645551D02*
D03*
X11884449Y2185000D02*
D03*
X11815551D02*
D03*
D14*
X8357165Y4029724D02*
D03*
Y4120276D02*
D03*
X8112165Y4034724D02*
D03*
Y4125276D02*
D03*
X9825000Y5710276D02*
D03*
Y5619724D02*
D03*
D15*
X10245000Y4520000D02*
D03*
X9870000Y3475000D02*
D03*
X10035000Y5175000D02*
D03*
X9710000Y5105000D02*
D03*
X10715000Y3935000D02*
D03*
X10185000Y5530000D02*
D03*
X9755000Y3785000D02*
D03*
X10235000Y5295000D02*
D03*
X10365000Y5230000D02*
D03*
X9995000Y4445000D02*
D03*
X10760000Y5440000D02*
D03*
X10805000Y5600000D02*
D03*
X10205000Y2165000D02*
D03*
D16*
X10160000Y3805000D02*
D03*
X10280000Y3775000D02*
D03*
X10480000Y3280276D02*
D03*
X10110000Y4295000D02*
D03*
D17*
X9660000Y4414055D02*
D03*
X9610000D02*
D03*
X9560000D02*
D03*
X9510000D02*
D03*
X9460000D02*
D03*
X9410000D02*
D03*
X9360000D02*
D03*
X9310000D02*
D03*
X9260000D02*
D03*
X9210000D02*
D03*
X9660000Y4045945D02*
D03*
X9610000D02*
D03*
X9560000D02*
D03*
X9510000D02*
D03*
X9460000D02*
D03*
X9410000D02*
D03*
X9360000D02*
D03*
X9310000D02*
D03*
X9260000D02*
D03*
X9210000D02*
D03*
X10365000Y3492284D02*
D03*
X10415000D02*
D03*
X10465000D02*
D03*
X10515000D02*
D03*
X10565000D02*
D03*
X10615000D02*
D03*
X10665000D02*
D03*
X10715000D02*
D03*
X10765000D02*
D03*
X10815000D02*
D03*
X10365000Y3860394D02*
D03*
X10415000D02*
D03*
X10465000D02*
D03*
X10515000D02*
D03*
X10565000D02*
D03*
X10615000D02*
D03*
X10665000D02*
D03*
X10715000D02*
D03*
X10765000D02*
D03*
X10815000D02*
D03*
X10540000Y4946890D02*
D03*
X10590000D02*
D03*
X10640000D02*
D03*
X10690000D02*
D03*
X10740000D02*
D03*
X10790000D02*
D03*
X10840000D02*
D03*
X10890000D02*
D03*
X10940000D02*
D03*
X10990000D02*
D03*
X10540000Y5315000D02*
D03*
X10590000D02*
D03*
X10640000D02*
D03*
X10690000D02*
D03*
X10740000D02*
D03*
X10790000D02*
D03*
X10840000D02*
D03*
X10890000D02*
D03*
X10940000D02*
D03*
X10990000D02*
D03*
D18*
X10641850Y4165834D02*
D03*
X10695000D02*
D03*
X10003425Y4365000D02*
D03*
X10056575D02*
D03*
X9876575Y3997717D02*
D03*
X9823425D02*
D03*
X10438425Y4865000D02*
D03*
X10491575D02*
D03*
D19*
X9083071Y3401299D02*
D03*
X8966929D02*
D03*
X9518071D02*
D03*
X9401929D02*
D03*
X9958071Y3395000D02*
D03*
X9841929D02*
D03*
X10788071D02*
D03*
X10671929D02*
D03*
X10378071D02*
D03*
X10261929D02*
D03*
X11540000Y2695000D02*
D03*
X11656142D02*
D03*
D20*
X10001772Y4625000D02*
D03*
X9848228D02*
D03*
X10001772Y4675000D02*
D03*
X9848228D02*
D03*
X10001772Y4725000D02*
D03*
X9848228D02*
D03*
X10001772Y4775000D02*
D03*
X9848228D02*
D03*
X10001772Y4825000D02*
D03*
X9848228D02*
D03*
D21*
X9735000Y4826575D02*
D03*
Y4773425D02*
D03*
D22*
X9945591Y4920000D02*
D03*
X9894409D02*
D03*
D23*
X10266260Y4112599D02*
D03*
X10345000Y4150000D02*
D03*
Y4075197D02*
D03*
D24*
X9866732Y4170591D02*
D03*
Y4119409D02*
D03*
X10055000Y3845000D02*
D03*
Y3896181D02*
D03*
X9975000Y3895591D02*
D03*
Y3844410D02*
D03*
D25*
X9955000Y3997717D02*
D03*
X10005000D02*
D03*
X10055000D02*
D03*
X10105000D02*
D03*
X9955000Y4212283D02*
D03*
X10005000D02*
D03*
X10055000D02*
D03*
X10105000D02*
D03*
X8700000Y6007283D02*
D03*
X8650000D02*
D03*
X8600000D02*
D03*
X8550000D02*
D03*
X8700000Y5792717D02*
D03*
X8650000D02*
D03*
X8600000D02*
D03*
X8550000D02*
D03*
X8985000Y6007283D02*
D03*
X8935000D02*
D03*
X8885000D02*
D03*
X8835000D02*
D03*
X8985000Y5792717D02*
D03*
X8935000D02*
D03*
X8885000D02*
D03*
X8835000D02*
D03*
D26*
X9256024Y5655472D02*
D03*
Y5675157D02*
D03*
Y5694842D02*
D03*
Y5714528D02*
D03*
X9133976Y5655472D02*
D03*
Y5675157D02*
D03*
Y5694842D02*
D03*
Y5714528D02*
D03*
D27*
X9035000Y5352106D02*
D03*
X9085000D02*
D03*
X9135000D02*
D03*
X9185000D02*
D03*
X9235000D02*
D03*
X9285000D02*
D03*
X9335000D02*
D03*
X9035000Y5517894D02*
D03*
X9085000D02*
D03*
X9135000D02*
D03*
X9185000D02*
D03*
X9235000D02*
D03*
X9285000D02*
D03*
X9335000D02*
D03*
D28*
X9729134Y5787402D02*
D03*
Y5712599D02*
D03*
X9620866D02*
D03*
Y5750000D02*
D03*
Y5787402D02*
D03*
D29*
X11245000Y2256654D02*
D03*
Y2463347D02*
D03*
D30*
X11504449Y2095000D02*
D03*
X11595000D02*
D03*
D31*
X11498819Y2515000D02*
D03*
D32*
X11656299Y2590000D02*
D03*
Y2540000D02*
D03*
Y2490000D02*
D03*
Y2440000D02*
D03*
D33*
X11650000Y2220000D02*
D03*
Y2300000D02*
D03*
D34*
X11504055Y2260000D02*
D03*
D35*
X8281000Y5411496D02*
D03*
Y5348504D02*
D03*
X8280000Y5866496D02*
D03*
Y5803504D02*
D03*
X8845000Y4831496D02*
D03*
Y4768504D02*
D03*
X8092000Y4841496D02*
D03*
Y4778504D02*
D03*
X11055000Y6048504D02*
D03*
Y6111496D02*
D03*
D36*
X10910000Y6323071D02*
D03*
Y6206929D02*
D03*
D37*
X11003504Y6355000D02*
D03*
X11066496D02*
D03*
D38*
X9635000Y3795669D02*
D03*
D39*
X9386969Y3705118D02*
D03*
Y3795669D02*
D03*
Y3886220D02*
D03*
D47*
X11475000Y6183622D02*
D03*
D48*
X8520000Y2769961D02*
D03*
Y2955000D02*
D03*
Y3140039D02*
D03*
D49*
X8952598Y2420000D02*
D03*
Y2124724D02*
D03*
X9740000D02*
D03*
X9543150D02*
D03*
X9740000Y2420000D02*
D03*
X9543150D02*
D03*
X9936850Y2124724D02*
D03*
Y2420000D02*
D03*
D50*
X9959016Y2688780D02*
D03*
X9984606Y3062795D02*
D03*
X9835000Y2925000D02*
D03*
X9084016Y2695079D02*
D03*
X9109606Y3069094D02*
D03*
X8960000Y2931299D02*
D03*
X10379016Y2688780D02*
D03*
X10404606Y3062795D02*
D03*
X10255000Y2925000D02*
D03*
X9519016Y2695079D02*
D03*
X9544606Y3069094D02*
D03*
X9395000Y2931299D02*
D03*
X10789449Y2685000D02*
D03*
X10815039Y3059016D02*
D03*
X10665433Y2921220D02*
D03*
D51*
X9789724Y3279331D02*
D03*
X9959016D02*
D03*
X8914724Y3285630D02*
D03*
X9084016D02*
D03*
X10209724Y3279331D02*
D03*
X10379016D02*
D03*
X9349724Y3285630D02*
D03*
X9519016D02*
D03*
X10620157Y3275551D02*
D03*
X10789449D02*
D03*
D52*
X11757441Y2978740D02*
D03*
Y4494488D02*
D03*
Y5774016D02*
D03*
D53*
X11186575Y5488583D02*
D03*
Y5370472D02*
D03*
Y5252362D02*
D03*
Y5134252D02*
D03*
Y5016142D02*
D03*
Y4898032D02*
D03*
Y4779921D02*
D03*
X11285000Y5429528D02*
D03*
Y5311417D02*
D03*
Y5193307D02*
D03*
Y5075197D02*
D03*
Y4957087D02*
D03*
Y4838976D02*
D03*
X11403110Y5429528D02*
D03*
Y5311417D02*
D03*
Y5193307D02*
D03*
Y5075197D02*
D03*
Y4957087D02*
D03*
Y4838976D02*
D03*
X11501535Y5488583D02*
D03*
Y5370472D02*
D03*
Y5252362D02*
D03*
Y5134252D02*
D03*
Y5016142D02*
D03*
Y4898032D02*
D03*
Y4779921D02*
D03*
Y3264173D02*
D03*
Y3382284D02*
D03*
Y3500394D02*
D03*
Y3618504D02*
D03*
Y3736614D02*
D03*
Y3854724D02*
D03*
Y3972835D02*
D03*
Y4090945D02*
D03*
Y4209055D02*
D03*
X11403110Y3323228D02*
D03*
Y3441339D02*
D03*
Y3559449D02*
D03*
Y3677559D02*
D03*
Y3795669D02*
D03*
Y3913780D02*
D03*
Y4031890D02*
D03*
Y4150000D02*
D03*
X11285000Y3323228D02*
D03*
Y3441339D02*
D03*
Y3559449D02*
D03*
Y3677559D02*
D03*
Y3795669D02*
D03*
Y3913780D02*
D03*
Y4031890D02*
D03*
Y4150000D02*
D03*
X11186575Y3264173D02*
D03*
Y3382284D02*
D03*
Y3500394D02*
D03*
Y3618504D02*
D03*
Y3736614D02*
D03*
Y3854724D02*
D03*
Y3972835D02*
D03*
Y4090945D02*
D03*
Y4209055D02*
D03*
D54*
X8593938Y5006380D02*
D03*
X9363938Y4995947D02*
D03*
D55*
X8593938Y4782754D02*
D03*
X9363938Y4772321D02*
D03*
D56*
X8415000Y4894567D02*
D03*
X9185000Y4884134D02*
D03*
D57*
X9820000Y5885000D02*
D03*
X9720000D02*
D03*
X9620000D02*
D03*
%TF.MD5,261fbc524464d1dc2e54fc0a1dd4eec5*%
M02*
