G04*
G04 #@! TF.GenerationSoftware,Altium Limited,Altium Designer,18.1.9 (240)*
G04*
G04 Layer_Physical_Order=2*
G04 Layer_Color=16711680*
%FSLAX25Y25*%
%MOIN*%
G70*
G01*
G75*
%ADD15C,0.01000*%
%ADD19R,0.05118X0.05709*%
%ADD20R,0.04528X0.05315*%
%ADD23R,0.05315X0.04528*%
%ADD26R,0.06890X0.02559*%
%ADD29R,0.03740X0.03347*%
%ADD30R,0.03937X0.03543*%
%ADD31R,0.03543X0.03937*%
%ADD41R,0.03543X0.01181*%
%ADD45R,0.05315X0.05709*%
%ADD48R,0.02559X0.06890*%
%ADD90C,0.01500*%
%ADD91C,0.01512*%
%ADD92C,0.02138*%
%ADD93C,0.02134*%
%ADD95C,0.09567*%
%ADD96C,0.09055*%
%ADD98C,0.19685*%
%ADD99C,0.10000*%
%ADD100C,0.05512*%
%ADD101C,0.12992*%
%ADD102C,0.08661*%
%ADD103C,0.09055*%
%ADD104C,0.09843*%
%ADD105C,0.07874*%
%ADD106O,0.07087X0.12795*%
%ADD107C,0.03000*%
%ADD108R,0.03543X0.03150*%
%ADD109R,0.03150X0.03543*%
%ADD110R,0.05315X0.01575*%
%ADD111R,0.07480X0.07480*%
%ADD112R,0.05512X0.06299*%
%ADD113C,0.08661*%
G36*
X458338Y596954D02*
X458825Y596226D01*
X458842Y596215D01*
Y594587D01*
X458978Y593902D01*
X459365Y593322D01*
X487810Y564877D01*
X488390Y564490D01*
X488324Y563993D01*
X487749D01*
X457418Y594323D01*
Y596490D01*
X457435Y596502D01*
X457771Y597005D01*
X457952Y597023D01*
X458338Y596954D01*
D02*
G37*
G36*
X653937Y710630D02*
X669291Y695276D01*
Y522835D01*
X659449Y512992D01*
X656106D01*
X623132Y545966D01*
X622634Y546299D01*
X622047Y546415D01*
X536377D01*
X536195Y546687D01*
X535367Y547240D01*
X534390Y547435D01*
X533413Y547240D01*
X532584Y546687D01*
X532573Y546670D01*
X499323D01*
X485476Y560517D01*
X485795Y560906D01*
X486323Y560553D01*
X487008Y560416D01*
X503695D01*
X503707Y560399D01*
X504535Y559846D01*
X505512Y559652D01*
X506489Y559846D01*
X507317Y560399D01*
X507870Y561228D01*
X508065Y562205D01*
X507870Y563182D01*
X507422Y563853D01*
X507634Y564353D01*
X513932D01*
X513943Y564336D01*
X514771Y563783D01*
X515748Y563589D01*
X516725Y563783D01*
X517553Y564336D01*
X518107Y565165D01*
X518301Y566142D01*
X518107Y567119D01*
X517553Y567947D01*
X516725Y568500D01*
X515748Y568695D01*
X514771Y568500D01*
X513943Y567947D01*
X513932Y567930D01*
X489816D01*
X462418Y595327D01*
Y596215D01*
X462435Y596226D01*
X462989Y597054D01*
X463183Y598032D01*
X462989Y599009D01*
X462435Y599837D01*
X461607Y600390D01*
X460630Y600585D01*
X459653Y600390D01*
X458825Y599837D01*
X458489Y599334D01*
X458308Y599316D01*
X457921Y599385D01*
X457435Y600112D01*
X456607Y600666D01*
X455630Y600860D01*
X454653Y600666D01*
X453825Y600112D01*
X453271Y599284D01*
X453077Y598307D01*
X453271Y597330D01*
X453825Y596502D01*
X453842Y596490D01*
Y593583D01*
X453978Y592898D01*
X454365Y592318D01*
X482398Y564286D01*
X482079Y563898D01*
X481551Y564251D01*
X480866Y564387D01*
X468746D01*
X468734Y564404D01*
X467906Y564957D01*
X466929Y565151D01*
X465952Y564957D01*
X465124Y564404D01*
X464571Y563575D01*
X464376Y562598D01*
X464571Y561621D01*
X465124Y560793D01*
X465952Y560240D01*
X466929Y560045D01*
X467906Y560240D01*
X468734Y560793D01*
X468746Y560810D01*
X480125D01*
X490696Y550239D01*
X490451Y549777D01*
X489574Y549603D01*
X488746Y549049D01*
X488193Y548221D01*
X487998Y547244D01*
X488193Y546267D01*
X488746Y545439D01*
X488757Y545432D01*
Y540999D01*
X485446Y537688D01*
X485433Y537691D01*
X484456Y537497D01*
X483628Y536943D01*
X483074Y536115D01*
X482880Y535138D01*
X483074Y534161D01*
X483628Y533333D01*
X484456Y532779D01*
X485433Y532585D01*
X486410Y532779D01*
X487238Y533333D01*
X487792Y534161D01*
X487986Y535138D01*
X487984Y535151D01*
X491820Y538987D01*
X491820Y538987D01*
X492209Y539569D01*
X492346Y540256D01*
Y545432D01*
X492356Y545439D01*
X492910Y546267D01*
X493084Y547144D01*
X493546Y547389D01*
X497318Y543617D01*
X497898Y543230D01*
X498583Y543094D01*
X532573D01*
X532584Y543077D01*
X533413Y542523D01*
X534390Y542329D01*
X535367Y542523D01*
X536195Y543077D01*
X536377Y543349D01*
X543336D01*
X543355Y543300D01*
X543419Y542848D01*
X542683Y542356D01*
X542130Y541528D01*
X541935Y540551D01*
X542130Y539574D01*
X542683Y538746D01*
X543511Y538193D01*
X544488Y537998D01*
X545465Y538193D01*
X546293Y538746D01*
X546475Y539018D01*
X619050D01*
X644614Y513454D01*
X644422Y512992D01*
X622214D01*
X616225Y518981D01*
X615645Y519369D01*
X614961Y519505D01*
X590731D01*
X584252Y525984D01*
X455318D01*
X432242Y549060D01*
Y598184D01*
X437249Y603191D01*
X474409D01*
X474996Y603308D01*
X475494Y603640D01*
X481793Y609939D01*
X482125Y610437D01*
X482242Y611024D01*
Y635936D01*
X482605Y636086D01*
X483390Y636689D01*
X483993Y637474D01*
X484372Y638389D01*
X484501Y639370D01*
X484372Y640352D01*
X483993Y641266D01*
X483390Y642052D01*
X482605Y642654D01*
X481690Y643033D01*
X480709Y643162D01*
X479727Y643033D01*
X478813Y642654D01*
X478027Y642052D01*
X477424Y641266D01*
X477046Y640352D01*
X476916Y639370D01*
X477046Y638389D01*
X477424Y637474D01*
X478027Y636689D01*
X478813Y636086D01*
X479175Y635936D01*
Y620050D01*
X479127Y620030D01*
X478675Y619966D01*
X478183Y620703D01*
X477355Y621256D01*
X476378Y621451D01*
X475401Y621256D01*
X474573Y620703D01*
X474561Y620686D01*
X463293D01*
X463282Y620703D01*
X462453Y621256D01*
X461476Y621451D01*
X460499Y621256D01*
X459671Y620703D01*
X459118Y619875D01*
X458923Y618898D01*
X459118Y617921D01*
X459671Y617092D01*
X460499Y616539D01*
X461476Y616345D01*
X462453Y616539D01*
X463282Y617092D01*
X463293Y617109D01*
X474561D01*
X474573Y617092D01*
X475401Y616539D01*
X476378Y616345D01*
X477355Y616539D01*
X478183Y617092D01*
X478675Y617829D01*
X479127Y617765D01*
X479175Y617746D01*
Y611659D01*
X473774Y606258D01*
X436614D01*
X436027Y606141D01*
X435530Y605809D01*
X429624Y599903D01*
X429292Y599406D01*
X429175Y598819D01*
Y548425D01*
X429292Y547838D01*
X429624Y547341D01*
X450519Y526446D01*
X450328Y525984D01*
X448035D01*
X425984Y548035D01*
Y695276D01*
X441339Y710630D01*
X653937Y710630D01*
D02*
G37*
G36*
X698819Y23622D02*
X303150Y23622D01*
X303150Y710630D01*
X439238D01*
X439429Y710168D01*
X425260Y695999D01*
X425039Y695667D01*
X424961Y695276D01*
Y549706D01*
X424499Y549515D01*
X407184Y566829D01*
X406688Y567161D01*
X406102Y567277D01*
X405922D01*
X405739Y567550D01*
X404913Y568103D01*
X403937Y568297D01*
X402962Y568103D01*
X402135Y567550D01*
X401582Y566723D01*
X401388Y565748D01*
X401582Y564773D01*
X402135Y563946D01*
X402962Y563393D01*
X403937Y563199D01*
X404913Y563393D01*
X405739Y563946D01*
X405742Y563946D01*
X463037Y506650D01*
Y411532D01*
X462765Y411350D01*
X462212Y410523D01*
X462018Y409547D01*
X462212Y408572D01*
X462765Y407745D01*
X463591Y407192D01*
X464567Y406998D01*
X465542Y407192D01*
X466369Y407745D01*
X466922Y408572D01*
X467116Y409547D01*
X466922Y410523D01*
X466369Y411350D01*
X466096Y411532D01*
Y507283D01*
X465980Y507869D01*
X465648Y508365D01*
X449515Y524499D01*
X449706Y524961D01*
X450328D01*
X450719Y525039D01*
X451052Y525260D01*
X451399Y525333D01*
X451676Y525295D01*
X469731Y507240D01*
Y444504D01*
X469457Y444322D01*
X468905Y443495D01*
X468711Y442520D01*
X468905Y441544D01*
X469457Y440717D01*
X470284Y440165D01*
X471260Y439971D01*
X472235Y440165D01*
X473062Y440717D01*
X473615Y441544D01*
X473809Y442520D01*
X473615Y443495D01*
X473062Y444322D01*
X472789Y444504D01*
Y507874D01*
X472673Y508459D01*
X472341Y508955D01*
X456798Y524499D01*
X456989Y524961D01*
X583828D01*
X588826Y519963D01*
X588634Y519501D01*
X478586D01*
X478574Y519519D01*
X477747Y520072D01*
X476772Y520265D01*
X475796Y520072D01*
X474969Y519519D01*
X474417Y518692D01*
X474223Y517717D01*
X474417Y516741D01*
X474969Y515914D01*
X475796Y515362D01*
X476772Y515168D01*
X477747Y515362D01*
X478574Y515914D01*
X478586Y515932D01*
X482142D01*
X482350Y515432D01*
X481897Y514755D01*
X481703Y513779D01*
X481897Y512804D01*
X482450Y511977D01*
X483277Y511425D01*
X484252Y511231D01*
X485227Y511425D01*
X486054Y511977D01*
X486066Y511995D01*
X492899D01*
X493051Y511495D01*
X492686Y511251D01*
X492133Y510424D01*
X491939Y509449D01*
X492133Y508473D01*
X492686Y507646D01*
X493513Y507094D01*
X494488Y506900D01*
X495464Y507094D01*
X496291Y507646D01*
X496303Y507664D01*
X602411D01*
X606090Y503985D01*
Y427953D01*
X606226Y427270D01*
X606612Y426691D01*
X609842Y423461D01*
X609593Y423003D01*
X608709Y422827D01*
X607882Y422275D01*
X607330Y421448D01*
X607136Y420472D01*
X607330Y419497D01*
X607882Y418670D01*
X608155Y418488D01*
Y405752D01*
X599603Y397199D01*
X572411D01*
X572204Y397699D01*
X596751Y422245D01*
X597082Y422742D01*
X597199Y423327D01*
Y438173D01*
X597472Y438355D01*
X598024Y439182D01*
X598218Y440158D01*
X598024Y441133D01*
X597472Y441960D01*
X596645Y442512D01*
X595669Y442706D01*
X594694Y442512D01*
X593867Y441960D01*
X593314Y441133D01*
X593120Y440158D01*
X593314Y439182D01*
X593867Y438355D01*
X594140Y438173D01*
Y423960D01*
X570134Y399955D01*
X541339D01*
X540753Y399838D01*
X540257Y399507D01*
X538511Y397761D01*
X538189Y397825D01*
X537214Y397631D01*
X536387Y397078D01*
X535834Y396251D01*
X535640Y395276D01*
X535834Y394300D01*
X536387Y393473D01*
X537214Y392921D01*
X538189Y392727D01*
X539164Y392921D01*
X539991Y393473D01*
X540544Y394300D01*
X540738Y395276D01*
X540674Y395598D01*
X541972Y396896D01*
X546557D01*
X546824Y396396D01*
X546464Y395857D01*
X546270Y394882D01*
X546464Y393906D01*
X547016Y393079D01*
X547763Y392581D01*
X547732Y392223D01*
X547680Y392081D01*
X500781D01*
X500630Y392581D01*
X500688Y392619D01*
X503615Y395547D01*
X503937Y395482D01*
X504913Y395676D01*
X505739Y396229D01*
X506292Y397056D01*
X506486Y398031D01*
X506292Y399007D01*
X505739Y399834D01*
X504913Y400386D01*
X503937Y400581D01*
X502962Y400386D01*
X502135Y399834D01*
X501582Y399007D01*
X501388Y398031D01*
X501452Y397709D01*
X498973Y395230D01*
X473638D01*
X473456Y395503D01*
X472629Y396056D01*
X471654Y396250D01*
X470678Y396056D01*
X469851Y395503D01*
X469299Y394676D01*
X469105Y393701D01*
X469299Y392725D01*
X469435Y392522D01*
X469199Y392081D01*
X403937D01*
X403352Y391964D01*
X402855Y391633D01*
X392448Y381225D01*
X392126Y381289D01*
X391150Y381095D01*
X390324Y380543D01*
X389771Y379716D01*
X389577Y378740D01*
X389771Y377765D01*
X390324Y376938D01*
X390865Y376576D01*
X391015Y375952D01*
X391007Y375926D01*
X390929Y375819D01*
X390779Y375818D01*
X389952Y376371D01*
X388976Y376565D01*
X388001Y376371D01*
X387174Y375818D01*
X386621Y374991D01*
X386427Y374016D01*
X386621Y373040D01*
X387174Y372213D01*
X388001Y371661D01*
X388976Y371467D01*
X389952Y371661D01*
X390779Y372213D01*
X390961Y372486D01*
X391732D01*
X392318Y372603D01*
X392814Y372934D01*
X406189Y386310D01*
X479503D01*
X479710Y385810D01*
X465454Y371554D01*
X465123Y371058D01*
X465006Y370472D01*
Y318744D01*
X406005Y259743D01*
X405674Y259247D01*
X405557Y258661D01*
Y228740D01*
X405674Y228155D01*
X406005Y227659D01*
X420179Y213485D01*
X419933Y213024D01*
X419153Y213179D01*
X419132Y213175D01*
X410966Y221340D01*
X410388Y221727D01*
X409705Y221863D01*
X362550D01*
X336646Y247767D01*
X336842Y248278D01*
X337619Y248432D01*
X338445Y248985D01*
X338998Y249812D01*
X339192Y250787D01*
X338998Y251763D01*
X338445Y252590D01*
X338427Y252602D01*
Y263865D01*
X338927Y264152D01*
X339763Y263986D01*
X340739Y264180D01*
X341565Y264733D01*
X342118Y265560D01*
X342312Y266535D01*
X342118Y267510D01*
X341565Y268337D01*
X341547Y268349D01*
Y276772D01*
X341540Y276812D01*
X344043Y279315D01*
X349721D01*
Y280951D01*
X351254D01*
X351406Y280451D01*
X350954Y280149D01*
X350401Y279322D01*
X350207Y278346D01*
X350401Y277371D01*
X350954Y276544D01*
X351781Y275992D01*
X352756Y275798D01*
X353731Y275992D01*
X354558Y276544D01*
X354812Y276923D01*
X356935D01*
Y274606D01*
X357052Y274021D01*
X357383Y273525D01*
X361517Y269391D01*
X362013Y269059D01*
X362598Y268943D01*
X367012D01*
Y267209D01*
X374327D01*
Y272070D01*
X374789Y272261D01*
X377830Y269220D01*
X377766Y268898D01*
X377960Y267922D01*
X378513Y267095D01*
X379340Y266543D01*
X380315Y266349D01*
X381290Y266543D01*
X382117Y267095D01*
X382670Y267922D01*
X382864Y268898D01*
X382670Y269873D01*
X382117Y270700D01*
X381290Y271253D01*
X380315Y271447D01*
X379993Y271383D01*
X375491Y275885D01*
X374995Y276216D01*
X374410Y276332D01*
X368744D01*
X363483Y281593D01*
X362987Y281925D01*
X362402Y282041D01*
X361236D01*
Y282855D01*
X361828Y282973D01*
X362408Y283361D01*
X363471Y284423D01*
X363859Y285004D01*
X363995Y285689D01*
Y292762D01*
X369442Y298210D01*
X387054D01*
X393485Y291778D01*
Y250000D01*
X393622Y249315D01*
X394010Y248734D01*
X399422Y243321D01*
X399419Y243307D01*
X399613Y242332D01*
X400166Y241505D01*
X400993Y240952D01*
X401968Y240758D01*
X402944Y240952D01*
X403771Y241505D01*
X404323Y242332D01*
X404518Y243307D01*
X404323Y244283D01*
X403771Y245110D01*
X402944Y245662D01*
X401968Y245856D01*
X401954Y245853D01*
X397066Y250742D01*
Y292520D01*
X396930Y293205D01*
X396542Y293786D01*
X389061Y301266D01*
X388480Y301654D01*
X387795Y301790D01*
X368701D01*
X368016Y301654D01*
X367435Y301266D01*
X360939Y294770D01*
X360551Y294189D01*
X360414Y293504D01*
Y286431D01*
X360401Y286417D01*
X357355D01*
X357302Y286470D01*
Y287814D01*
X358254Y288767D01*
X358642Y289347D01*
X358761Y289945D01*
X359760D01*
Y295882D01*
X358779D01*
Y305210D01*
X358889Y305284D01*
X359442Y306111D01*
X359636Y307087D01*
X359633Y307101D01*
X370820Y318288D01*
X377559D01*
X378244Y318425D01*
X378825Y318813D01*
X388852Y328840D01*
X391913D01*
Y327858D01*
X397850D01*
Y328721D01*
X402520D01*
X402528Y328709D01*
X403355Y328157D01*
X404331Y327963D01*
X405306Y328157D01*
X405510Y328293D01*
X405951Y328057D01*
Y303937D01*
X406067Y303352D01*
X406399Y302856D01*
X407751Y301503D01*
X407687Y301181D01*
X407881Y300206D01*
X408434Y299379D01*
X409261Y298826D01*
X410236Y298632D01*
X411212Y298826D01*
X412039Y299379D01*
X412591Y300206D01*
X412785Y301181D01*
X412591Y302157D01*
X412039Y302983D01*
X411212Y303536D01*
X410236Y303730D01*
X409914Y303666D01*
X409010Y304571D01*
Y346063D01*
X408893Y346648D01*
X408562Y347144D01*
X352317Y403389D01*
Y513540D01*
X374310Y535533D01*
X374641Y536029D01*
X374758Y536614D01*
Y548410D01*
X376197D01*
Y553724D01*
Y554909D01*
X377713D01*
X377725Y554890D01*
X378552Y554338D01*
X379528Y554144D01*
X380503Y554338D01*
X381330Y554890D01*
X381883Y555718D01*
X382077Y556693D01*
X381883Y557668D01*
X381330Y558495D01*
X380503Y559048D01*
X379528Y559242D01*
X378552Y559048D01*
X377725Y558495D01*
X377713Y558477D01*
X376197D01*
Y559268D01*
X370260D01*
Y553724D01*
Y548410D01*
X371699D01*
Y537248D01*
X349706Y515255D01*
X349374Y514758D01*
X349258Y514173D01*
Y402756D01*
X349374Y402171D01*
X349706Y401675D01*
X405951Y345429D01*
Y332966D01*
X405510Y332731D01*
X405306Y332867D01*
X404331Y333061D01*
X403355Y332867D01*
X402528Y332314D01*
X402520Y332302D01*
X397850D01*
Y333402D01*
X391913D01*
Y332420D01*
X388110D01*
X387425Y332284D01*
X386844Y331896D01*
X376817Y321869D01*
X370079D01*
X369394Y321733D01*
X368813Y321345D01*
X357101Y309633D01*
X357087Y309636D01*
X356111Y309442D01*
X355284Y308889D01*
X354732Y308062D01*
X354538Y307087D01*
X354732Y306111D01*
X355198Y305413D01*
Y295882D01*
X354217D01*
Y289945D01*
X354217Y289945D01*
X354042Y289517D01*
X353858Y289241D01*
X353721Y288556D01*
Y285729D01*
X353858Y285044D01*
X354215Y284510D01*
X354142Y284212D01*
X354058Y284010D01*
X349721D01*
Y285842D01*
X342406D01*
Y282724D01*
X338889Y279208D01*
X338427Y279399D01*
Y395746D01*
X343388Y400707D01*
X343388Y400707D01*
X343774Y401286D01*
X343910Y401968D01*
Y427214D01*
X346042Y429345D01*
X346063Y429341D01*
X347038Y429535D01*
X347865Y430087D01*
X348418Y430914D01*
X348612Y431890D01*
X348418Y432865D01*
X347865Y433692D01*
X347038Y434245D01*
X346063Y434439D01*
X345088Y434245D01*
X344261Y433692D01*
X343708Y432865D01*
X343514Y431890D01*
X343518Y431868D01*
X340864Y429214D01*
X340477Y428636D01*
X340342Y427953D01*
Y402708D01*
X335749Y398115D01*
X335249Y398322D01*
Y443461D01*
X335267Y443473D01*
X335820Y444300D01*
X336014Y445276D01*
X335820Y446251D01*
X335267Y447078D01*
X334440Y447631D01*
X333465Y447825D01*
X332599Y447652D01*
X332099Y447926D01*
Y452122D01*
X332117Y452135D01*
X332670Y452962D01*
X332864Y453937D01*
X332670Y454913D01*
X332117Y455739D01*
X331290Y456292D01*
X330315Y456486D01*
X329450Y456314D01*
X328950Y456587D01*
Y460784D01*
X328968Y460796D01*
X329520Y461623D01*
X329714Y462598D01*
X329520Y463574D01*
X328968Y464401D01*
X328141Y464953D01*
X327165Y465147D01*
X326300Y464975D01*
X325800Y465248D01*
Y467477D01*
X325818Y467489D01*
X326371Y468316D01*
X326565Y469291D01*
X326371Y470267D01*
X325818Y471094D01*
X324991Y471646D01*
X324016Y471840D01*
X323040Y471646D01*
X322213Y471094D01*
X321661Y470267D01*
X321467Y469291D01*
X321661Y468316D01*
X322213Y467489D01*
X322232Y467477D01*
Y188429D01*
X322213Y188417D01*
X321661Y187590D01*
X321467Y186614D01*
X321661Y185639D01*
X322213Y184812D01*
X323040Y184259D01*
X324016Y184065D01*
X324991Y184259D01*
X325818Y184812D01*
X326371Y185639D01*
X326565Y186614D01*
X326371Y187590D01*
X325818Y188417D01*
X325800Y188429D01*
Y234358D01*
X326300Y234631D01*
X327165Y234459D01*
X328141Y234653D01*
X328968Y235206D01*
X329520Y236032D01*
X329714Y237008D01*
X329520Y237983D01*
X328968Y238810D01*
X328950Y238822D01*
Y245725D01*
X329450Y245932D01*
X359714Y215668D01*
X360293Y215281D01*
X360976Y215145D01*
X360976Y215145D01*
X368749D01*
X374397Y209497D01*
Y207326D01*
X374379Y207314D01*
X373826Y206487D01*
X373632Y205512D01*
X373826Y204536D01*
X374379Y203709D01*
X375206Y203157D01*
X376181Y202963D01*
X377157Y203157D01*
X377983Y203709D01*
X378536Y204536D01*
X378730Y205512D01*
X378536Y206487D01*
X377983Y207314D01*
X377965Y207326D01*
Y210236D01*
X377830Y210919D01*
X377443Y211498D01*
X377443Y211498D01*
X371146Y217794D01*
X371353Y218295D01*
X408966D01*
X416609Y210651D01*
X416605Y210630D01*
X416799Y209654D01*
X417351Y208827D01*
X418178Y208275D01*
X419153Y208081D01*
X420129Y208275D01*
X420956Y208827D01*
X421509Y209654D01*
X421702Y210630D01*
X421548Y211409D01*
X422008Y211656D01*
X434745Y198919D01*
X435242Y198587D01*
X435827Y198471D01*
X489480D01*
X489671Y198009D01*
X485332Y193669D01*
X484977Y193817D01*
X483996Y193946D01*
X483016Y193817D01*
X482102Y193438D01*
X481317Y192836D01*
X480715Y192052D01*
X480337Y191138D01*
X480208Y190157D01*
X480337Y189177D01*
X480715Y188263D01*
X481317Y187479D01*
X482102Y186877D01*
X483016Y186498D01*
X483996Y186369D01*
X484977Y186498D01*
X485890Y186877D01*
X486675Y187479D01*
X487277Y188263D01*
X487655Y189177D01*
X487784Y190155D01*
X492764Y195135D01*
X506800D01*
X514056Y187879D01*
X514740Y187421D01*
X515547Y187261D01*
X523400D01*
X523837Y186691D01*
X524622Y186089D01*
X525535Y185711D01*
X526516Y185582D01*
X526663Y185601D01*
X526762Y185125D01*
X525561Y184627D01*
X524530Y183836D01*
X523739Y182805D01*
X523241Y181604D01*
X523072Y180315D01*
X523241Y179026D01*
X523739Y177825D01*
X524530Y176794D01*
X525561Y176003D01*
X525942Y175845D01*
Y172441D01*
X526102Y171634D01*
X526560Y170949D01*
X531284Y166225D01*
X531776Y165896D01*
Y163862D01*
X539091D01*
Y171571D01*
X531905D01*
X530161Y173315D01*
Y175845D01*
X530541Y176003D01*
X531572Y176794D01*
X532364Y177825D01*
X532861Y179026D01*
X533031Y180315D01*
X532861Y181604D01*
X532704Y181984D01*
X536326Y185607D01*
X536516Y185582D01*
X537496Y185711D01*
X538410Y186089D01*
X539194Y186691D01*
X539796Y187476D01*
X540175Y188390D01*
X540304Y189370D01*
X540175Y190351D01*
X539796Y191264D01*
X539194Y192049D01*
X538903Y192272D01*
X539073Y192772D01*
X543959D01*
X544129Y192272D01*
X543837Y192049D01*
X543235Y191264D01*
X542857Y190351D01*
X542727Y189370D01*
X542857Y188390D01*
X543235Y187476D01*
X543837Y186691D01*
X544622Y186089D01*
X545535Y185711D01*
X546516Y185582D01*
X547496Y185711D01*
X548410Y186089D01*
X549194Y186691D01*
X549796Y187476D01*
X550175Y188390D01*
X550304Y189370D01*
X550175Y190351D01*
X549796Y191264D01*
X549194Y192049D01*
X548903Y192272D01*
X549073Y192772D01*
X549892D01*
X559370Y183294D01*
X559456Y182861D01*
X560009Y182034D01*
X560836Y181481D01*
X561811Y181287D01*
X562786Y181481D01*
X563613Y182034D01*
X564166Y182861D01*
X564360Y183836D01*
X564166Y184811D01*
X563613Y185638D01*
X562786Y186191D01*
X562353Y186277D01*
X552257Y196373D01*
X551573Y196831D01*
X550765Y196991D01*
X535027D01*
X534220Y196831D01*
X533535Y196373D01*
X529210Y192048D01*
X529194Y192049D01*
X528410Y192651D01*
X527496Y193029D01*
X526516Y193158D01*
X525535Y193029D01*
X524622Y192651D01*
X523837Y192049D01*
X523400Y191480D01*
X516421D01*
X509892Y198009D01*
X510083Y198471D01*
X578199D01*
X578513Y198001D01*
X579340Y197448D01*
X580315Y197254D01*
X581290Y197448D01*
X581604Y197658D01*
X582175Y197438D01*
X582190Y197378D01*
X538793Y153981D01*
X529865D01*
X529745Y154314D01*
X529721Y154481D01*
X530439Y155356D01*
X530989Y156385D01*
X531328Y157501D01*
X531442Y158661D01*
X531328Y159822D01*
X530989Y160938D01*
X530439Y161967D01*
X529699Y162869D01*
X528798Y163609D01*
X527769Y164158D01*
X526653Y164497D01*
X525492Y164611D01*
X524331Y164497D01*
X523215Y164158D01*
X522187Y163609D01*
X521285Y162869D01*
X520545Y161967D01*
X519995Y160938D01*
X519657Y159822D01*
X519542Y158661D01*
X519657Y157501D01*
X519995Y156385D01*
X520545Y155356D01*
X521263Y154481D01*
X521239Y154314D01*
X521120Y153981D01*
X487345D01*
X487225Y154314D01*
X487201Y154481D01*
X487920Y155356D01*
X488469Y156385D01*
X488808Y157501D01*
X488922Y158661D01*
X488808Y159822D01*
X488469Y160938D01*
X487920Y161967D01*
X487180Y162869D01*
X486278Y163609D01*
X485249Y164158D01*
X484133Y164497D01*
X482972Y164611D01*
X481812Y164497D01*
X480695Y164158D01*
X479667Y163609D01*
X478765Y162869D01*
X478025Y161967D01*
X477475Y160938D01*
X477137Y159822D01*
X477023Y158661D01*
X477137Y157501D01*
X477475Y156385D01*
X478025Y155356D01*
X478744Y154481D01*
X478719Y154314D01*
X478600Y153981D01*
X459084D01*
X459033Y154015D01*
X458226Y154175D01*
X444582D01*
X444414Y154646D01*
X444660Y154848D01*
X445400Y155749D01*
X445950Y156778D01*
X446288Y157894D01*
X446403Y159055D01*
X446288Y160216D01*
X445950Y161332D01*
X445400Y162361D01*
X444660Y163262D01*
X443758Y164002D01*
X442730Y164552D01*
X441613Y164891D01*
X440453Y165005D01*
X439292Y164891D01*
X438176Y164552D01*
X437147Y164002D01*
X436245Y163262D01*
X435506Y162361D01*
X434956Y161332D01*
X434617Y160216D01*
X434503Y159055D01*
X434617Y157894D01*
X434956Y156778D01*
X435506Y155749D01*
X436245Y154848D01*
X436492Y154646D01*
X436323Y154175D01*
X402063D01*
X401894Y154646D01*
X402140Y154848D01*
X402880Y155749D01*
X403430Y156778D01*
X403769Y157894D01*
X403883Y159055D01*
X403769Y160216D01*
X403430Y161332D01*
X402880Y162361D01*
X402140Y163262D01*
X401239Y164002D01*
X400210Y164552D01*
X399094Y164891D01*
X397933Y165005D01*
X396772Y164891D01*
X395656Y164552D01*
X394627Y164002D01*
X393726Y163262D01*
X392986Y162361D01*
X392436Y161332D01*
X392097Y160216D01*
X391983Y159055D01*
X392097Y157894D01*
X392436Y156778D01*
X392986Y155749D01*
X393726Y154848D01*
X393972Y154646D01*
X393804Y154175D01*
X359645D01*
X359408Y154675D01*
X359967Y155356D01*
X360517Y156385D01*
X360855Y157501D01*
X360970Y158661D01*
X360855Y159822D01*
X360517Y160938D01*
X359967Y161967D01*
X359227Y162869D01*
X358325Y163609D01*
X357297Y164158D01*
X356181Y164497D01*
X355020Y164611D01*
X353859Y164497D01*
X352743Y164158D01*
X351714Y163609D01*
X350813Y162869D01*
X350073Y161967D01*
X349523Y160938D01*
X349184Y159822D01*
X349070Y158661D01*
X349184Y157501D01*
X349459Y156593D01*
X349017Y156328D01*
X318583Y186762D01*
X318497Y187196D01*
X317944Y188023D01*
X317117Y188575D01*
X316142Y188769D01*
X315166Y188575D01*
X314339Y188023D01*
X313787Y187196D01*
X313593Y186221D01*
X313787Y185245D01*
X314339Y184418D01*
X315166Y183865D01*
X315600Y183779D01*
X348999Y150380D01*
X349684Y149922D01*
X350491Y149762D01*
X357832D01*
X358640Y149922D01*
X358690Y149956D01*
X366042D01*
X366220Y149456D01*
X365773Y149089D01*
X365033Y148187D01*
X364483Y147159D01*
X364145Y146043D01*
X364030Y144882D01*
X364145Y143721D01*
X364483Y142605D01*
X365033Y141576D01*
X365773Y140675D01*
X366675Y139935D01*
X367703Y139385D01*
X368819Y139046D01*
X369980Y138932D01*
X371141Y139046D01*
X372257Y139385D01*
X373286Y139935D01*
X374187Y140675D01*
X374927Y141576D01*
X375477Y142605D01*
X375816Y143721D01*
X375930Y144882D01*
X375816Y146043D01*
X375477Y147159D01*
X374927Y148187D01*
X374187Y149089D01*
X373740Y149456D01*
X373919Y149956D01*
X408521D01*
X408641Y149623D01*
X408665Y149456D01*
X407946Y148581D01*
X407397Y147553D01*
X407058Y146436D01*
X406944Y145276D01*
X407058Y144115D01*
X407397Y142999D01*
X407946Y141970D01*
X408686Y141068D01*
X409588Y140328D01*
X410617Y139779D01*
X411733Y139440D01*
X412894Y139326D01*
X414054Y139440D01*
X415171Y139779D01*
X416199Y140328D01*
X417101Y141068D01*
X417841Y141970D01*
X418391Y142999D01*
X418729Y144115D01*
X418844Y145276D01*
X418729Y146436D01*
X418391Y147553D01*
X417841Y148581D01*
X417123Y149456D01*
X417147Y149623D01*
X417266Y149956D01*
X431632D01*
X431802Y149456D01*
X431491Y149218D01*
X420073Y137801D01*
X419187Y136646D01*
X418631Y135301D01*
X418440Y133858D01*
Y105791D01*
X418631Y104348D01*
X419187Y103004D01*
X420073Y101849D01*
X436298Y85625D01*
X453030Y68892D01*
X454185Y68006D01*
X455529Y67449D01*
X456972Y67259D01*
X495669D01*
X497112Y67449D01*
X498457Y68006D01*
X499612Y68892D01*
X595675Y164955D01*
X596561Y166110D01*
X597118Y167455D01*
X597307Y168898D01*
Y222494D01*
X605065Y230252D01*
X612081D01*
X612272Y229790D01*
X607015Y224532D01*
X606693Y224596D01*
X605718Y224402D01*
X604890Y223850D01*
X604338Y223023D01*
X604144Y222047D01*
X604338Y221072D01*
X604890Y220245D01*
X605718Y219692D01*
X606693Y219498D01*
X607668Y219692D01*
X608495Y220245D01*
X609048Y221072D01*
X609242Y222047D01*
X609178Y222369D01*
X615200Y228392D01*
X620972D01*
X621133Y227918D01*
X621001Y227818D01*
X620147Y226704D01*
X619610Y225407D01*
X619426Y224016D01*
X619610Y222624D01*
X620147Y221327D01*
X621001Y220214D01*
X622115Y219359D01*
X622155Y219343D01*
X622058Y218852D01*
X607874D01*
X607289Y218736D01*
X606793Y218404D01*
X605440Y217052D01*
X605118Y217116D01*
X604143Y216922D01*
X603316Y216369D01*
X602763Y215542D01*
X602569Y214567D01*
X602763Y213592D01*
X603316Y212765D01*
X604143Y212212D01*
X605118Y212018D01*
X606094Y212212D01*
X606920Y212765D01*
X607473Y213592D01*
X607667Y214567D01*
X607603Y214889D01*
X608507Y215793D01*
X633366D01*
X633573Y215293D01*
X632592Y214312D01*
X615519D01*
X615149Y214560D01*
X614173Y214754D01*
X613198Y214560D01*
X612371Y214007D01*
X611818Y213180D01*
X611624Y212205D01*
X611818Y211229D01*
X612371Y210402D01*
X613198Y209850D01*
X614173Y209656D01*
X615149Y209850D01*
X615519Y210097D01*
X633465D01*
X634271Y210258D01*
X634955Y210715D01*
X645856Y221616D01*
X651523D01*
X651643Y221327D01*
X652497Y220214D01*
X653611Y219359D01*
X654908Y218822D01*
X656299Y218639D01*
X657691Y218822D01*
X658988Y219359D01*
X660101Y220214D01*
X660956Y221327D01*
X661493Y222624D01*
X661676Y224016D01*
X661493Y225407D01*
X660956Y226704D01*
X660101Y227818D01*
X658988Y228672D01*
X657691Y229209D01*
X656299Y229393D01*
X654908Y229209D01*
X653611Y228672D01*
X652497Y227818D01*
X651643Y226704D01*
X651281Y225831D01*
X650668D01*
X650421Y226331D01*
X651113Y227233D01*
X651650Y228530D01*
X651833Y229921D01*
X651650Y231313D01*
X651113Y232610D01*
X650259Y233723D01*
X649145Y234578D01*
X647848Y235115D01*
X646457Y235298D01*
X645065Y235115D01*
X643768Y234578D01*
X642655Y233723D01*
X641800Y232610D01*
X641263Y231313D01*
X641080Y229921D01*
X641263Y228530D01*
X641743Y227371D01*
X633225Y218852D01*
X627549D01*
X627451Y219343D01*
X627492Y219359D01*
X628605Y220214D01*
X629459Y221327D01*
X629997Y222624D01*
X630180Y224016D01*
X629997Y225407D01*
X629459Y226704D01*
X628605Y227818D01*
X628474Y227918D01*
X628635Y228392D01*
X629509D01*
X629989Y227233D01*
X630844Y226119D01*
X631957Y225265D01*
X633254Y224728D01*
X634646Y224545D01*
X636037Y224728D01*
X637334Y225265D01*
X638448Y226119D01*
X639302Y227233D01*
X639839Y228530D01*
X640022Y229921D01*
X639839Y231313D01*
X639302Y232610D01*
X638448Y233723D01*
X637334Y234578D01*
X636037Y235115D01*
X634646Y235298D01*
X633254Y235115D01*
X631957Y234578D01*
X630844Y233723D01*
X629989Y232610D01*
X629509Y231451D01*
X628918D01*
X628796Y231951D01*
X629632Y233039D01*
X630188Y234384D01*
X630378Y235827D01*
X630188Y237270D01*
X629632Y238614D01*
X628745Y239769D01*
X627591Y240655D01*
X626246Y241212D01*
X624803Y241402D01*
X602756D01*
X601313Y241212D01*
X599968Y240655D01*
X599361Y240189D01*
X598861Y240436D01*
Y244374D01*
X600016D01*
Y245922D01*
X619744D01*
X620147Y244949D01*
X621001Y243836D01*
X622115Y242981D01*
X623412Y242444D01*
X624803Y242261D01*
X626195Y242444D01*
X627492Y242981D01*
X628605Y243836D01*
X629459Y244949D01*
X629997Y246246D01*
X630180Y247638D01*
X629997Y249029D01*
X629459Y250326D01*
X628605Y251440D01*
X627492Y252294D01*
X626195Y252831D01*
X624803Y253014D01*
X623412Y252831D01*
X622115Y252294D01*
X621001Y251440D01*
X620147Y250326D01*
X620070Y250141D01*
X600016D01*
Y251689D01*
X593488D01*
Y244374D01*
X594642D01*
Y240933D01*
X583154Y229444D01*
X582697Y228760D01*
X582536Y227953D01*
Y201810D01*
X582036Y201660D01*
X581290Y202158D01*
X580315Y202352D01*
X579340Y202158D01*
X578513Y201606D01*
X578462Y201529D01*
X436460D01*
X408616Y229374D01*
Y258028D01*
X467617Y317029D01*
X467948Y317525D01*
X468065Y318110D01*
Y327754D01*
X468527Y327946D01*
X468812Y327661D01*
X468997Y327383D01*
X480011Y316370D01*
Y262267D01*
X479570Y262032D01*
X479322Y262197D01*
X478346Y262391D01*
X477371Y262197D01*
X476544Y261645D01*
X475991Y260818D01*
X475798Y259842D01*
X475991Y258867D01*
X476544Y258040D01*
X477211Y257595D01*
Y248835D01*
X476938Y248653D01*
X476385Y247826D01*
X476191Y246850D01*
X476385Y245875D01*
X476545Y245637D01*
X472595Y241687D01*
X436067D01*
X435121Y242633D01*
X435312Y243094D01*
X435843D01*
Y244534D01*
X436961D01*
X437607Y244102D01*
X438583Y243908D01*
X439558Y244102D01*
X440385Y244654D01*
X440938Y245481D01*
X441132Y246457D01*
X440938Y247432D01*
X440385Y248259D01*
X439558Y248812D01*
X438583Y249006D01*
X437607Y248812D01*
X436780Y248259D01*
X436335Y247592D01*
X435843D01*
Y249031D01*
X430299D01*
Y243094D01*
X431541D01*
Y242520D01*
X431658Y241934D01*
X431989Y241438D01*
X434352Y239076D01*
X434848Y238744D01*
X435433Y238628D01*
X473228D01*
X473814Y238744D01*
X474310Y239076D01*
X479756Y244523D01*
X480543Y245048D01*
X480724Y245066D01*
X485310Y240479D01*
X485246Y240158D01*
X485440Y239182D01*
X485993Y238355D01*
X486820Y237803D01*
X487795Y237609D01*
X488771Y237803D01*
X489598Y238355D01*
X490150Y239182D01*
X490344Y240158D01*
X490171Y241029D01*
X490642Y241224D01*
X490717Y241111D01*
X491544Y240558D01*
X492520Y240364D01*
X493495Y240558D01*
X494322Y241111D01*
X494875Y241938D01*
X495069Y242913D01*
X494875Y243889D01*
X494322Y244716D01*
X493495Y245268D01*
X492529Y245461D01*
X486569Y251421D01*
Y255070D01*
X487069Y255119D01*
X487170Y254611D01*
X487501Y254115D01*
X494805Y246812D01*
X494695Y246260D01*
X494889Y245284D01*
X495442Y244458D01*
X496269Y243905D01*
X497244Y243711D01*
X498219Y243905D01*
X499047Y244458D01*
X499599Y245284D01*
X499793Y246260D01*
X499780Y246325D01*
X499958Y246462D01*
X500241Y246573D01*
X500993Y246070D01*
X501968Y245876D01*
X502944Y246070D01*
X503771Y246623D01*
X504323Y247450D01*
X504518Y248425D01*
X504323Y249401D01*
X503771Y250228D01*
X502944Y250780D01*
X501968Y250974D01*
X501318Y250845D01*
X494005Y258158D01*
Y314611D01*
X493889Y315196D01*
X493557Y315692D01*
X475265Y333985D01*
Y362728D01*
X486992Y374455D01*
X509828D01*
X510019Y373993D01*
X490946Y354920D01*
X490615Y354424D01*
X490578Y354238D01*
X490078Y354288D01*
Y359236D01*
X491059D01*
Y365173D01*
X489881D01*
Y366201D01*
X489893Y366209D01*
X490446Y367036D01*
X490639Y368012D01*
X490446Y368987D01*
X489893Y369814D01*
X489066Y370367D01*
X488091Y370561D01*
X487115Y370367D01*
X486288Y369814D01*
X485736Y368987D01*
X485542Y368012D01*
X485736Y367036D01*
X486288Y366209D01*
X486300Y366201D01*
Y365173D01*
X485516D01*
Y359236D01*
X486497D01*
Y344147D01*
X485378Y343028D01*
X480496D01*
Y337484D01*
X481677D01*
X481811Y336815D01*
X482199Y336234D01*
X482985Y335447D01*
X482982Y335433D01*
X483177Y334458D01*
X483729Y333631D01*
X484556Y333078D01*
X485532Y332884D01*
X485584Y332894D01*
X486027Y332598D01*
X486713Y332462D01*
X488741D01*
X488749Y332450D01*
X489576Y331897D01*
X490551Y331703D01*
X491527Y331897D01*
X492354Y332450D01*
X492906Y333277D01*
X493100Y334252D01*
X493097Y334266D01*
X493294Y334462D01*
X493682Y335043D01*
X493818Y335728D01*
Y337150D01*
X494996D01*
Y341898D01*
X495496Y342105D01*
X496502Y341099D01*
Y337531D01*
X496229Y337348D01*
X495677Y336521D01*
X495482Y335546D01*
X495677Y334570D01*
X496229Y333743D01*
X497056Y333191D01*
X498032Y332997D01*
X499007Y333191D01*
X499834Y333743D01*
X500386Y334570D01*
X500581Y335546D01*
X500386Y336521D01*
X499834Y337348D01*
X499561Y337531D01*
Y341732D01*
X499444Y342318D01*
X499113Y342814D01*
X495609Y346318D01*
X495113Y346649D01*
X494996Y346672D01*
Y348008D01*
X493557D01*
Y353205D01*
X513007Y372655D01*
X554151D01*
X554736Y372771D01*
X555232Y373103D01*
X555305Y373175D01*
X606579D01*
Y371579D01*
X606579Y371441D01*
Y371079D01*
X606579Y370941D01*
Y369246D01*
X598048D01*
X597865Y369519D01*
X597038Y370072D01*
X596063Y370266D01*
X595087Y370072D01*
X594261Y369519D01*
X593708Y368692D01*
X593514Y367717D01*
X593708Y366741D01*
X594261Y365914D01*
X595087Y365362D01*
X596063Y365168D01*
X597038Y365362D01*
X597865Y365914D01*
X598048Y366187D01*
X606579D01*
Y364628D01*
X606579Y364551D01*
X606394Y364128D01*
X588976D01*
X588391Y364011D01*
X587895Y363680D01*
X583618Y359403D01*
X579544D01*
X579361Y359676D01*
X578535Y360229D01*
X577559Y360423D01*
X576584Y360229D01*
X575757Y359676D01*
X575204Y358850D01*
X575010Y357874D01*
X575204Y356899D01*
X575757Y356072D01*
X576584Y355519D01*
X577559Y355325D01*
X578535Y355519D01*
X579361Y356072D01*
X579544Y356345D01*
X580093D01*
X580245Y355845D01*
X580087Y355739D01*
X579535Y354912D01*
X579341Y353937D01*
X579535Y352962D01*
X580087Y352135D01*
X580914Y351582D01*
X581890Y351388D01*
X582865Y351582D01*
X583692Y352135D01*
X583875Y352408D01*
X587309D01*
X587545Y351967D01*
X587409Y351763D01*
X587215Y350787D01*
X587409Y349812D01*
X587961Y348985D01*
X588788Y348432D01*
X589764Y348238D01*
X590739Y348432D01*
X590978Y348592D01*
X591974Y347595D01*
Y325787D01*
X592091Y325202D01*
X592422Y324706D01*
X595638Y321491D01*
X595392Y321030D01*
X595276Y321053D01*
X594300Y320859D01*
X593473Y320306D01*
X592921Y319479D01*
X592727Y318504D01*
X592921Y317529D01*
X593473Y316702D01*
X594300Y316149D01*
X594406Y316128D01*
X600772Y309762D01*
Y305004D01*
X607299D01*
Y305004D01*
X607661D01*
Y305004D01*
X614189D01*
Y305164D01*
X619667D01*
X620147Y304005D01*
X621001Y302891D01*
X621133Y302790D01*
X620972Y302317D01*
X620374D01*
X619789Y302200D01*
X619293Y301869D01*
X612420Y294996D01*
X607661D01*
Y287681D01*
X608093D01*
X608285Y287219D01*
X607634Y286569D01*
X599846D01*
X592502Y293912D01*
X592821Y294301D01*
X593119Y294102D01*
X594095Y293908D01*
X595070Y294102D01*
X595897Y294654D01*
X596449Y295481D01*
X596643Y296457D01*
X596449Y297432D01*
X595897Y298259D01*
X595885Y298267D01*
Y305164D01*
X596442Y305722D01*
X596457Y305719D01*
X597432Y305913D01*
X598259Y306465D01*
X598812Y307292D01*
X599006Y308268D01*
X598812Y309243D01*
X598259Y310070D01*
X597432Y310623D01*
X596457Y310817D01*
X595481Y310623D01*
X594654Y310070D01*
X594102Y309243D01*
X593908Y308268D01*
X593911Y308253D01*
X592829Y307172D01*
X592441Y306591D01*
X592304Y305906D01*
Y298267D01*
X592292Y298259D01*
X591740Y297432D01*
X591545Y296457D01*
X591740Y295481D01*
X591938Y295183D01*
X591550Y294865D01*
X580663Y305752D01*
Y343291D01*
X580936Y343473D01*
X581489Y344300D01*
X581683Y345276D01*
X581489Y346251D01*
X580936Y347078D01*
X580109Y347631D01*
X579134Y347825D01*
X578158Y347631D01*
X577331Y347078D01*
X576779Y346251D01*
X576585Y345276D01*
X576645Y344975D01*
X576219Y344550D01*
X575591Y344675D01*
X574615Y344481D01*
X573788Y343928D01*
X573236Y343101D01*
X573042Y342126D01*
X573236Y341150D01*
X573788Y340324D01*
X574061Y340141D01*
Y305118D01*
X574178Y304533D01*
X574509Y304037D01*
X594457Y284089D01*
X594210Y283628D01*
X594095Y283651D01*
X593119Y283457D01*
X592292Y282905D01*
X591740Y282078D01*
X591545Y281102D01*
X591740Y280127D01*
X592292Y279300D01*
X592304Y279292D01*
Y267277D01*
X561431Y236404D01*
X561043Y235823D01*
X561027Y235744D01*
X559925D01*
Y234566D01*
X556669D01*
Y237221D01*
X556180D01*
Y265142D01*
X556669D01*
Y274031D01*
X552110D01*
Y274031D01*
X551669D01*
Y274031D01*
X547169D01*
X547110Y274031D01*
Y274031D01*
X546669D01*
X546422Y274429D01*
X546379Y274532D01*
X548719Y276871D01*
X549051Y277367D01*
X549167Y277953D01*
Y282858D01*
X549440Y283040D01*
X549993Y283867D01*
X550187Y284843D01*
X549993Y285818D01*
X549440Y286645D01*
X548613Y287197D01*
X547638Y287391D01*
X546662Y287197D01*
X545835Y286645D01*
X545283Y285818D01*
X545089Y284843D01*
X545283Y283867D01*
X545835Y283040D01*
X546108Y282858D01*
Y278586D01*
X543308Y275786D01*
X542977Y275290D01*
X542860Y274705D01*
Y274031D01*
X542110D01*
Y274031D01*
X541669D01*
Y274031D01*
X540834D01*
X540803Y274188D01*
X540471Y274684D01*
X535919Y279236D01*
Y282523D01*
X536192Y282705D01*
X536745Y283532D01*
X536939Y284508D01*
X536745Y285483D01*
X536192Y286310D01*
X535365Y286863D01*
X534390Y287057D01*
X533414Y286863D01*
X532587Y286310D01*
X532035Y285483D01*
X531841Y284508D01*
X532035Y283532D01*
X532587Y282705D01*
X532860Y282523D01*
Y278602D01*
X532977Y278017D01*
X533308Y277521D01*
X536298Y274532D01*
X536091Y274031D01*
X532110D01*
Y274031D01*
X531669D01*
Y274031D01*
X527110D01*
Y274031D01*
X526669D01*
Y274031D01*
X525670D01*
X525471Y274329D01*
X518852Y280948D01*
Y282661D01*
X519125Y282843D01*
X519678Y283670D01*
X519872Y284646D01*
X519678Y285621D01*
X519125Y286448D01*
X518298Y287001D01*
X517323Y287195D01*
X516347Y287001D01*
X515520Y286448D01*
X514968Y285621D01*
X514941Y285486D01*
X514437Y285483D01*
X514431Y285485D01*
X513879Y286310D01*
X513052Y286863D01*
X512077Y287057D01*
X511101Y286863D01*
X510274Y286310D01*
X509722Y285483D01*
X509528Y284508D01*
X509722Y283532D01*
X510274Y282705D01*
X510547Y282523D01*
Y279262D01*
X510664Y278677D01*
X510995Y278180D01*
X514682Y274493D01*
X514491Y274031D01*
X512110D01*
Y274031D01*
X511669D01*
Y274031D01*
X507110D01*
Y265142D01*
X507599D01*
Y237221D01*
X507110D01*
Y234566D01*
X425053D01*
X416326Y243293D01*
X416328Y243307D01*
X416135Y244283D01*
X415582Y245110D01*
X414755Y245662D01*
X413779Y245856D01*
X412804Y245662D01*
X411977Y245110D01*
X411425Y244283D01*
X411231Y243307D01*
X411425Y242332D01*
X411977Y241505D01*
X412804Y240952D01*
X413779Y240758D01*
X413794Y240761D01*
X423045Y231510D01*
X423626Y231122D01*
X424311Y230985D01*
X507110D01*
Y228331D01*
X511610D01*
X511669Y228331D01*
X512110D01*
X512169Y228331D01*
X516610D01*
X516669Y228331D01*
X517110D01*
X517169Y228331D01*
X521610D01*
X521669Y228331D01*
X522110D01*
X522169Y228331D01*
X526669D01*
Y237221D01*
X525939D01*
Y237779D01*
X526212Y237961D01*
X526764Y238788D01*
X526958Y239764D01*
X526764Y240739D01*
X526212Y241566D01*
X525385Y242119D01*
X524409Y242313D01*
X523434Y242119D01*
X522607Y241566D01*
X522054Y240739D01*
X521861Y239764D01*
X522054Y238788D01*
X522607Y237961D01*
X522880Y237779D01*
Y237221D01*
X522169D01*
X522110Y237221D01*
X521669D01*
X521610Y237221D01*
X517169D01*
X517110Y237221D01*
X516669D01*
X516610Y237221D01*
X516299D01*
X516278Y237243D01*
X516078Y237720D01*
X516528Y238395D01*
X516722Y239370D01*
X516528Y240346D01*
X515976Y241173D01*
X515149Y241725D01*
X514173Y241919D01*
X513198Y241725D01*
X512371Y241173D01*
X511818Y240346D01*
X511680Y239651D01*
X511180Y239700D01*
Y265116D01*
X511669Y265142D01*
X512101D01*
X512600Y265138D01*
X512736Y264453D01*
X513124Y263872D01*
X514482Y262514D01*
X515063Y262125D01*
X515748Y261989D01*
X527953D01*
X528638Y262125D01*
X529219Y262514D01*
X530656Y263951D01*
X531044Y264531D01*
X531165Y265142D01*
X531669D01*
Y265142D01*
X532100D01*
X532599Y265116D01*
Y264823D01*
X532736Y264138D01*
X533124Y263557D01*
X534167Y262514D01*
X534748Y262125D01*
X535433Y261989D01*
X547638D01*
X548323Y262125D01*
X548904Y262514D01*
X550085Y263695D01*
X550473Y264276D01*
X550609Y264961D01*
Y265142D01*
X551669D01*
Y265142D01*
X552100D01*
X552599Y265116D01*
Y237221D01*
X552110D01*
Y228331D01*
X556669D01*
Y230985D01*
X559925D01*
Y229807D01*
X565469D01*
Y235378D01*
X595360Y265269D01*
X595749Y265850D01*
X595885Y266535D01*
Y279292D01*
X595897Y279300D01*
X596449Y280127D01*
X596643Y281102D01*
X596620Y281218D01*
X597081Y281465D01*
X597738Y280808D01*
X598234Y280477D01*
X598819Y280360D01*
X602811D01*
X607661Y275510D01*
Y270752D01*
X614189D01*
Y272880D01*
X616535D01*
X617121Y272996D01*
X617617Y273328D01*
X619925Y275636D01*
X620972D01*
X621133Y275163D01*
X621001Y275062D01*
X620147Y273948D01*
X619610Y272651D01*
X619426Y271260D01*
X619610Y269868D01*
X620147Y268571D01*
X621001Y267458D01*
X621133Y267357D01*
X620972Y266884D01*
X617717D01*
X617131Y266767D01*
X616635Y266436D01*
X612133Y261934D01*
X611811Y261998D01*
X610836Y261804D01*
X610009Y261251D01*
X609456Y260424D01*
X609262Y259449D01*
X609456Y258473D01*
X610009Y257646D01*
X610836Y257094D01*
X611811Y256900D01*
X612786Y257094D01*
X613613Y257646D01*
X614166Y258473D01*
X614360Y259449D01*
X614296Y259771D01*
X618350Y263825D01*
X620972D01*
X621133Y263351D01*
X621001Y263251D01*
X620147Y262137D01*
X619610Y260840D01*
X619426Y259449D01*
X619610Y258057D01*
X620147Y256761D01*
X621001Y255647D01*
X622115Y254792D01*
X623412Y254255D01*
X624803Y254072D01*
X626195Y254255D01*
X627492Y254792D01*
X628605Y255647D01*
X629459Y256761D01*
X629997Y258057D01*
X630180Y259449D01*
X629997Y260840D01*
X629459Y262137D01*
X628605Y263251D01*
X628474Y263351D01*
X628635Y263825D01*
X629509D01*
X629989Y262666D01*
X630844Y261552D01*
X631957Y260698D01*
X633254Y260161D01*
X634646Y259978D01*
X636037Y260161D01*
X637334Y260698D01*
X638448Y261552D01*
X639302Y262666D01*
X639839Y263963D01*
X640022Y265354D01*
X639839Y266746D01*
X639302Y268043D01*
X638448Y269156D01*
X637334Y270011D01*
X636037Y270548D01*
X634646Y270731D01*
X633254Y270548D01*
X631957Y270011D01*
X630844Y269156D01*
X629989Y268043D01*
X629509Y266884D01*
X628635D01*
X628474Y267357D01*
X628605Y267458D01*
X629459Y268571D01*
X629997Y269868D01*
X630180Y271260D01*
X629997Y272651D01*
X629459Y273948D01*
X628605Y275062D01*
X628474Y275163D01*
X628635Y275636D01*
X629509D01*
X629989Y274477D01*
X630844Y273363D01*
X631957Y272509D01*
X633254Y271972D01*
X634646Y271789D01*
X636037Y271972D01*
X637334Y272509D01*
X638448Y273363D01*
X639302Y274477D01*
X639839Y275774D01*
X640022Y277165D01*
X639839Y278557D01*
X639302Y279854D01*
X638448Y280967D01*
X637334Y281822D01*
X636037Y282359D01*
X634646Y282542D01*
X633254Y282359D01*
X631957Y281822D01*
X630844Y280967D01*
X629989Y279854D01*
X629509Y278695D01*
X628635D01*
X628474Y279168D01*
X628605Y279269D01*
X629459Y280382D01*
X629997Y281679D01*
X630180Y283071D01*
X629997Y284462D01*
X629459Y285759D01*
X628605Y286873D01*
X627492Y287727D01*
X626195Y288264D01*
X624803Y288448D01*
X623412Y288264D01*
X622115Y287727D01*
X621001Y286873D01*
X620147Y285759D01*
X619610Y284462D01*
X619426Y283071D01*
X619610Y281679D01*
X620147Y280382D01*
X621001Y279269D01*
X621133Y279168D01*
X620972Y278695D01*
X619291D01*
X618706Y278578D01*
X618210Y278247D01*
X615902Y275939D01*
X614189D01*
Y278067D01*
X609431D01*
X604526Y282971D01*
X604468Y283010D01*
X604620Y283510D01*
X608268D01*
X608853Y283626D01*
X609349Y283958D01*
X611398Y286007D01*
X611608Y286048D01*
X612187Y286435D01*
X612574Y287014D01*
X612706Y287681D01*
X614189D01*
Y292440D01*
X620166Y298416D01*
X620542Y298086D01*
X620147Y297570D01*
X619610Y296273D01*
X619426Y294882D01*
X619610Y293490D01*
X620147Y292194D01*
X621001Y291080D01*
X622115Y290226D01*
X623412Y289688D01*
X624803Y289505D01*
X626195Y289688D01*
X627492Y290226D01*
X628605Y291080D01*
X629459Y292194D01*
X629832Y293092D01*
X630463D01*
X630700Y292592D01*
X629989Y291665D01*
X629452Y290368D01*
X629269Y288976D01*
X629452Y287585D01*
X629989Y286288D01*
X630844Y285174D01*
X631957Y284320D01*
X633254Y283783D01*
X634646Y283600D01*
X636037Y283783D01*
X637334Y284320D01*
X638448Y285174D01*
X639302Y286288D01*
X639839Y287585D01*
X640022Y288976D01*
X639839Y290368D01*
X639302Y291665D01*
X638492Y292720D01*
X638487Y292918D01*
X638490Y292934D01*
X638589Y293300D01*
X639061Y293616D01*
X641817Y296372D01*
X642205Y296953D01*
X642342Y297638D01*
Y308415D01*
X642841Y308653D01*
X643768Y307942D01*
X645065Y307405D01*
X646457Y307222D01*
X647848Y307405D01*
X649145Y307942D01*
X650259Y308797D01*
X651113Y309910D01*
X651650Y311207D01*
X651833Y312598D01*
X651650Y313990D01*
X651113Y315287D01*
X650259Y316400D01*
X649145Y317255D01*
X647986Y317735D01*
Y337008D01*
X647870Y337593D01*
X647538Y338089D01*
X634054Y351574D01*
X633558Y351905D01*
X632972Y352022D01*
X619799D01*
Y353618D01*
X619799Y353756D01*
Y354118D01*
X619799Y354256D01*
Y360569D01*
X619799Y360646D01*
X619984Y361069D01*
X621414D01*
X627167Y355316D01*
X627663Y354985D01*
X628248Y354868D01*
X629571D01*
Y353134D01*
X635254D01*
X654770Y333618D01*
Y323640D01*
X653611Y323160D01*
X652497Y322306D01*
X651643Y321192D01*
X651106Y319896D01*
X650922Y318504D01*
X651106Y317112D01*
X651643Y315816D01*
X652497Y314702D01*
X653611Y313848D01*
X654908Y313310D01*
X656299Y313127D01*
X657691Y313310D01*
X658988Y313848D01*
X660101Y314702D01*
X660956Y315816D01*
X661493Y317112D01*
X661676Y318504D01*
X661493Y319896D01*
X660956Y321192D01*
X660101Y322306D01*
X658988Y323160D01*
X657829Y323640D01*
Y334150D01*
X658073Y334312D01*
X658315Y334371D01*
X666395Y326292D01*
Y306861D01*
X665933Y306669D01*
X664647Y307955D01*
X664069Y308341D01*
X663386Y308477D01*
X661330D01*
X660956Y309381D01*
X660101Y310495D01*
X658988Y311349D01*
X657691Y311886D01*
X656299Y312070D01*
X654908Y311886D01*
X653611Y311349D01*
X652497Y310495D01*
X651643Y309381D01*
X651106Y308085D01*
X650922Y306693D01*
X651106Y305301D01*
X651643Y304005D01*
X652497Y302891D01*
X653611Y302036D01*
X654908Y301499D01*
X656299Y301316D01*
X657691Y301499D01*
X658988Y302036D01*
X659345Y302311D01*
X659770Y302047D01*
X659754Y301969D01*
X659948Y300993D01*
X660068Y300814D01*
X658850Y299595D01*
X657691Y300075D01*
X656299Y300259D01*
X654908Y300075D01*
X653611Y299538D01*
X652497Y298684D01*
X651643Y297570D01*
X651106Y296273D01*
X650922Y294882D01*
X651106Y293490D01*
X651643Y292194D01*
X652497Y291080D01*
X653611Y290226D01*
X654908Y289688D01*
X656299Y289505D01*
X657691Y289688D01*
X658988Y290226D01*
X660101Y291080D01*
X660956Y292194D01*
X661493Y293490D01*
X661676Y294882D01*
X661493Y296273D01*
X661013Y297432D01*
X662676Y299096D01*
X663176Y298889D01*
Y283465D01*
X663312Y282782D01*
X663699Y282203D01*
X669079Y276823D01*
Y269965D01*
X670558D01*
Y267815D01*
X670694Y267132D01*
X671081Y266553D01*
X673772Y263862D01*
Y260259D01*
X673331Y260023D01*
X673023Y260229D01*
X672047Y260423D01*
X671072Y260229D01*
X670245Y259676D01*
X669692Y258850D01*
X669498Y257874D01*
X669562Y257552D01*
X665060Y253050D01*
X664729Y252554D01*
X664612Y251969D01*
Y246971D01*
X660903Y243262D01*
X660131D01*
X659970Y243735D01*
X660101Y243836D01*
X660956Y244949D01*
X661493Y246246D01*
X661676Y247638D01*
X661493Y249029D01*
X660956Y250326D01*
X660101Y251440D01*
X658988Y252294D01*
X657691Y252831D01*
X656299Y253014D01*
X654908Y252831D01*
X653611Y252294D01*
X652497Y251440D01*
X651643Y250326D01*
X651106Y249029D01*
X650922Y247638D01*
X651106Y246246D01*
X651643Y244949D01*
X652497Y243836D01*
X652629Y243735D01*
X652468Y243262D01*
X651593D01*
X651113Y244421D01*
X650259Y245534D01*
X649145Y246389D01*
X647848Y246926D01*
X646457Y247109D01*
X645065Y246926D01*
X643768Y246389D01*
X642655Y245534D01*
X641800Y244421D01*
X641263Y243124D01*
X641080Y241732D01*
X641263Y240341D01*
X641800Y239044D01*
X642655Y237930D01*
X643768Y237076D01*
X645065Y236539D01*
X646457Y236356D01*
X647848Y236539D01*
X649145Y237076D01*
X650259Y237930D01*
X651113Y239044D01*
X651593Y240203D01*
X652184D01*
X652306Y239703D01*
X651471Y238614D01*
X650914Y237270D01*
X650724Y235827D01*
X650914Y234384D01*
X651471Y233039D01*
X652357Y231885D01*
X653512Y230998D01*
X654856Y230441D01*
X656299Y230252D01*
X658714D01*
X663716Y225250D01*
Y220747D01*
X654875Y211906D01*
X646882D01*
X645439Y211716D01*
X644094Y211159D01*
X642940Y210273D01*
X517176Y84509D01*
X516290Y83355D01*
X515733Y82010D01*
X515543Y80567D01*
Y65553D01*
X500840Y50851D01*
X457313D01*
X444182Y63982D01*
X443028Y64868D01*
X441683Y65425D01*
X440240Y65615D01*
X438797Y65425D01*
X438119Y65144D01*
X431299Y71964D01*
X430614Y72421D01*
X429807Y72582D01*
X400787D01*
X399980Y72421D01*
X399296Y71964D01*
X377473Y50141D01*
X336701D01*
X326457Y60385D01*
X326371Y60818D01*
X325818Y61645D01*
X324991Y62198D01*
X324016Y62392D01*
X323040Y62198D01*
X322363Y61745D01*
X321863Y61952D01*
Y153825D01*
X323994Y155956D01*
X324016Y155952D01*
X324991Y156146D01*
X325818Y156698D01*
X326371Y157525D01*
X326565Y158501D01*
X326371Y159476D01*
X325818Y160303D01*
X324991Y160856D01*
X324016Y161050D01*
X323040Y160856D01*
X322213Y160303D01*
X321661Y159476D01*
X321467Y158501D01*
X321471Y158479D01*
X318817Y155825D01*
X318430Y155247D01*
X318295Y154564D01*
Y58268D01*
X318430Y57585D01*
X318817Y57006D01*
X339683Y36140D01*
X340262Y35753D01*
X340945Y35617D01*
X340945Y35617D01*
X508786D01*
X509469Y35753D01*
X510048Y36140D01*
X531933Y58025D01*
X531933Y58025D01*
X532320Y58604D01*
X532456Y59287D01*
Y67728D01*
X614533Y149805D01*
X614986Y149658D01*
X615033Y149621D01*
Y148873D01*
X601387Y135227D01*
X600460Y134019D01*
X599877Y132612D01*
X599678Y131102D01*
X599678Y131102D01*
Y100652D01*
X599599Y100389D01*
X599483Y99213D01*
X599599Y98036D01*
X599942Y96905D01*
X600499Y95863D01*
X601249Y94949D01*
X602162Y94200D01*
X603205Y93642D01*
X604336Y93299D01*
X605512Y93184D01*
X606688Y93299D01*
X607819Y93642D01*
X608861Y94200D01*
X609775Y94949D01*
X610525Y95863D01*
X611082Y96905D01*
X611425Y98036D01*
X611541Y99213D01*
X611425Y100389D01*
X611345Y100652D01*
Y128686D01*
X624991Y142332D01*
X624991Y142332D01*
X625918Y143540D01*
X626501Y144947D01*
X626699Y146457D01*
X626699Y146457D01*
Y149946D01*
X674126Y197372D01*
X674555Y197115D01*
X674502Y196942D01*
X674357Y195472D01*
X674502Y194003D01*
X674931Y192590D01*
X675627Y191288D01*
X676564Y190146D01*
X677705Y189209D01*
X679007Y188514D01*
X680420Y188085D01*
X681890Y187940D01*
X683359Y188085D01*
X684772Y188514D01*
X686074Y189209D01*
X687216Y190146D01*
X688153Y191288D01*
X688849Y192590D01*
X689277Y194003D01*
X689422Y195472D01*
X689277Y196942D01*
X688849Y198355D01*
X688153Y199657D01*
X687216Y200799D01*
X686074Y201735D01*
X684772Y202431D01*
X683359Y202860D01*
X681890Y203005D01*
X680420Y202860D01*
X680247Y202807D01*
X679990Y203236D01*
X686015Y209261D01*
X686015Y209261D01*
X686942Y210469D01*
X687524Y211876D01*
X687723Y213386D01*
X687723Y213386D01*
Y264886D01*
X688164Y265122D01*
X688395Y264968D01*
X689370Y264774D01*
X690345Y264968D01*
X691173Y265520D01*
X691725Y266347D01*
X691919Y267323D01*
X691725Y268298D01*
X691173Y269125D01*
X690900Y269308D01*
Y325984D01*
X690783Y326570D01*
X690451Y327066D01*
X666884Y350634D01*
Y353697D01*
X672513Y359326D01*
X672835Y359262D01*
X673810Y359456D01*
X674637Y360009D01*
X675190Y360836D01*
X675384Y361811D01*
X675190Y362787D01*
X674637Y363613D01*
X673810Y364166D01*
X672835Y364360D01*
X671859Y364166D01*
X671032Y363613D01*
X670480Y362787D01*
X670286Y361811D01*
X670350Y361489D01*
X664273Y355412D01*
X663941Y354916D01*
X663825Y354331D01*
Y351573D01*
X663325Y351305D01*
X663314Y351313D01*
Y362340D01*
X663393Y362603D01*
X663509Y363779D01*
X663393Y364956D01*
X663050Y366087D01*
X662493Y367129D01*
X661743Y368043D01*
X660830Y368793D01*
X659788Y369350D01*
X658657Y369693D01*
X657480Y369809D01*
X656304Y369693D01*
X655173Y369350D01*
X654131Y368793D01*
X653217Y368043D01*
X652467Y367129D01*
X651910Y366087D01*
X651567Y364956D01*
X651451Y363779D01*
X651567Y362603D01*
X651647Y362340D01*
Y348425D01*
X651647Y348425D01*
X651755Y347605D01*
X651281Y347371D01*
X643842Y354811D01*
Y359842D01*
X643681Y360650D01*
X643224Y361334D01*
X639779Y364779D01*
X639095Y365236D01*
X638287Y365397D01*
X636886D01*
Y366551D01*
X635697D01*
X635505Y367013D01*
X638483Y369991D01*
X638814Y370487D01*
X638931Y371072D01*
Y373382D01*
X641633Y376084D01*
X641964Y376580D01*
X642081Y377165D01*
Y377665D01*
X642554Y377825D01*
X642655Y377694D01*
X643768Y376840D01*
X645065Y376303D01*
X646457Y376119D01*
X647848Y376303D01*
X649145Y376840D01*
X650259Y377694D01*
X651113Y378808D01*
X651593Y379967D01*
X652468D01*
X652629Y379493D01*
X652497Y379393D01*
X651643Y378279D01*
X651106Y376982D01*
X650922Y375590D01*
X651106Y374199D01*
X651643Y372902D01*
X652497Y371789D01*
X653611Y370934D01*
X654908Y370397D01*
X656299Y370214D01*
X657691Y370397D01*
X658988Y370934D01*
X660101Y371789D01*
X660956Y372902D01*
X661493Y374199D01*
X661676Y375590D01*
X661493Y376982D01*
X660956Y378279D01*
X660101Y379393D01*
X659970Y379493D01*
X660131Y379967D01*
X681102D01*
X681688Y380083D01*
X682184Y380415D01*
X684324Y382554D01*
X684646Y382490D01*
X685621Y382684D01*
X685825Y382821D01*
X686266Y382585D01*
Y370712D01*
X670759Y355205D01*
X670284Y355111D01*
X669457Y354558D01*
X668905Y353731D01*
X668711Y352756D01*
X668905Y351781D01*
X669457Y350954D01*
X670284Y350401D01*
X671260Y350207D01*
X672235Y350401D01*
X673062Y350954D01*
X673615Y351781D01*
X673809Y352756D01*
X673615Y353731D01*
X673613Y353734D01*
X682063Y362184D01*
X682606Y362019D01*
X682684Y361622D01*
X683237Y360795D01*
X684064Y360243D01*
X685039Y360049D01*
X686015Y360243D01*
X686842Y360795D01*
X687394Y361622D01*
X687588Y362598D01*
X687524Y362920D01*
X692026Y367422D01*
X692358Y367918D01*
X692474Y368503D01*
Y392913D01*
X692358Y393499D01*
X692026Y393995D01*
X673183Y412838D01*
Y495276D01*
X673067Y495861D01*
X672735Y496357D01*
X657585Y511507D01*
X657777Y511969D01*
X659449D01*
X659840Y512046D01*
X660173Y512268D01*
X670015Y522111D01*
X670237Y522443D01*
X670315Y522835D01*
Y695276D01*
X670237Y695667D01*
X670015Y695999D01*
X655847Y710168D01*
X656038Y710630D01*
X698819D01*
X698819Y23622D01*
D02*
G37*
G36*
X651306Y513454D02*
X651115Y512992D01*
X649413D01*
X620769Y541636D01*
X620272Y541968D01*
X619685Y542085D01*
X546475D01*
X546293Y542356D01*
X545557Y542848D01*
X545621Y543300D01*
X545640Y543349D01*
X621412D01*
X651306Y513454D01*
D02*
G37*
G36*
X652463Y512303D02*
X670124Y494642D01*
Y492907D01*
X669624Y492756D01*
X669585Y492814D01*
X650892Y511507D01*
X651009Y511787D01*
X651134Y511972D01*
X651507Y512046D01*
X651839Y512268D01*
X652187Y512341D01*
X652463Y512303D01*
D02*
G37*
G36*
X645771D02*
X666974Y491099D01*
Y455953D01*
X666513Y455762D01*
X662121Y460153D01*
X661437Y460610D01*
X660630Y460771D01*
X656461D01*
X656094Y461016D01*
X655118Y461210D01*
X654184Y461025D01*
X654063Y461038D01*
X653684Y461240D01*
Y498819D01*
X653524Y499626D01*
X653066Y500311D01*
X641870Y511507D01*
X642062Y511969D01*
X644422D01*
X644814Y512046D01*
X645146Y512268D01*
X645494Y512341D01*
X645771Y512303D01*
D02*
G37*
G36*
X644666Y490991D02*
Y445579D01*
X643768Y445208D01*
X642836Y444492D01*
X642336Y444724D01*
Y492126D01*
X642214Y492736D01*
X642382Y492903D01*
X642626Y493031D01*
X644666Y490991D01*
D02*
G37*
G36*
X638767Y491387D02*
Y444724D01*
X638267Y444492D01*
X637611Y444995D01*
Y487008D01*
X637475Y487691D01*
X637088Y488270D01*
X637088Y488270D01*
X610317Y515041D01*
X609738Y515428D01*
X609717Y515432D01*
X609766Y515932D01*
X614222D01*
X638767Y491387D01*
D02*
G37*
G36*
X634043Y486269D02*
Y445849D01*
X633254Y445745D01*
X631957Y445208D01*
X630844Y444353D01*
X629989Y443239D01*
X629452Y441943D01*
X629269Y440551D01*
X629452Y439160D01*
X629989Y437863D01*
X630844Y436749D01*
X631957Y435895D01*
X633254Y435358D01*
X634646Y435175D01*
X636037Y435358D01*
X637334Y435895D01*
X638267Y436611D01*
X638767Y436378D01*
Y433810D01*
X637911Y432954D01*
X637334Y433396D01*
X636037Y433934D01*
X634646Y434117D01*
X633254Y433934D01*
X631957Y433396D01*
X630844Y432542D01*
X629989Y431428D01*
X629452Y430132D01*
X629269Y428740D01*
X629452Y427349D01*
X629989Y426052D01*
X630844Y424938D01*
X631957Y424084D01*
X633254Y423547D01*
X634646Y423363D01*
X636037Y423547D01*
X637334Y424084D01*
X638448Y424938D01*
X639302Y426052D01*
X639839Y427349D01*
X640022Y428740D01*
X639874Y429870D01*
X641137Y431133D01*
X641561Y430850D01*
X641263Y430132D01*
X641080Y428740D01*
X641263Y427349D01*
X641800Y426052D01*
X642655Y424938D01*
X643768Y424084D01*
X645065Y423547D01*
X646457Y423363D01*
X647848Y423547D01*
X649145Y424084D01*
X650259Y424938D01*
X651113Y426052D01*
X651650Y427349D01*
X651833Y428740D01*
X651650Y430132D01*
X651113Y431428D01*
X650259Y432542D01*
X649145Y433396D01*
X647848Y433934D01*
X646457Y434117D01*
X645065Y433934D01*
X643768Y433396D01*
X642755Y432619D01*
X642386Y432786D01*
X642295Y432868D01*
X642336Y433071D01*
Y436378D01*
X642836Y436611D01*
X643768Y435895D01*
X645065Y435358D01*
X646457Y435175D01*
X647848Y435358D01*
X649145Y435895D01*
X650259Y436749D01*
X651113Y437863D01*
X651650Y439160D01*
X651833Y440551D01*
X651650Y441943D01*
X651113Y443239D01*
X650259Y444353D01*
X649145Y445208D01*
X648247Y445579D01*
Y491732D01*
X648111Y492417D01*
X647723Y492998D01*
X642704Y498017D01*
X642706Y498032D01*
X642512Y499007D01*
X641960Y499834D01*
X641133Y500386D01*
X640158Y500581D01*
X639182Y500386D01*
X638355Y499834D01*
X637803Y499007D01*
X637653Y498255D01*
X637130Y498071D01*
X623694Y511507D01*
X623885Y511969D01*
X635442D01*
X649465Y497945D01*
Y455905D01*
X649626Y455098D01*
X650083Y454414D01*
X652052Y452445D01*
X652736Y451988D01*
X653543Y451828D01*
X658181D01*
X660883Y449126D01*
Y426396D01*
X660409Y426235D01*
X660101Y426637D01*
X658988Y427491D01*
X657691Y428028D01*
X656299Y428211D01*
X654908Y428028D01*
X653611Y427491D01*
X652497Y426637D01*
X651643Y425523D01*
X651106Y424226D01*
X650922Y422835D01*
X651106Y421443D01*
X651643Y420146D01*
X652497Y419033D01*
X653611Y418178D01*
X654908Y417641D01*
X656299Y417458D01*
X657691Y417641D01*
X658988Y418178D01*
X660101Y419033D01*
X660409Y419434D01*
X660883Y419274D01*
Y418590D01*
X658270Y415977D01*
X657691Y416217D01*
X656299Y416400D01*
X654908Y416217D01*
X653611Y415680D01*
X652497Y414825D01*
X651643Y413712D01*
X651163Y412553D01*
X650288D01*
X650127Y413027D01*
X650259Y413127D01*
X651113Y414241D01*
X651650Y415538D01*
X651833Y416929D01*
X651650Y418321D01*
X651113Y419618D01*
X650259Y420731D01*
X649145Y421586D01*
X647848Y422123D01*
X646457Y422306D01*
X645065Y422123D01*
X643768Y421586D01*
X642655Y420731D01*
X641800Y419618D01*
X641263Y418321D01*
X641080Y416929D01*
X641263Y415538D01*
X641800Y414241D01*
X642655Y413127D01*
X642786Y413027D01*
X642625Y412553D01*
X642520D01*
X641934Y412437D01*
X641438Y412105D01*
X639470Y410137D01*
X639138Y409640D01*
X639022Y409055D01*
Y408949D01*
X638548Y408789D01*
X638448Y408920D01*
X637334Y409774D01*
X636037Y410312D01*
X634646Y410495D01*
X633254Y410312D01*
X631957Y409774D01*
X630844Y408920D01*
X629989Y407806D01*
X629452Y406510D01*
X629269Y405118D01*
X629452Y403726D01*
X629989Y402430D01*
X630844Y401316D01*
X631957Y400462D01*
X633254Y399925D01*
X634646Y399741D01*
X636037Y399925D01*
X637334Y400462D01*
X638448Y401316D01*
X638548Y401447D01*
X639022Y401287D01*
Y397138D01*
X638548Y396978D01*
X638448Y397109D01*
X637334Y397964D01*
X636037Y398501D01*
X634646Y398684D01*
X633254Y398501D01*
X631957Y397964D01*
X630844Y397109D01*
X629989Y395995D01*
X629452Y394699D01*
X629269Y393307D01*
X629452Y391915D01*
X629989Y390619D01*
X630844Y389505D01*
X631957Y388651D01*
X633254Y388114D01*
X634646Y387930D01*
X636037Y388114D01*
X637334Y388651D01*
X638448Y389505D01*
X638548Y389636D01*
X639022Y389476D01*
Y385327D01*
X638548Y385167D01*
X638448Y385298D01*
X637334Y386152D01*
X636037Y386690D01*
X634646Y386873D01*
X633254Y386690D01*
X631957Y386152D01*
X630844Y385298D01*
X629989Y384184D01*
X629452Y382888D01*
X629269Y381496D01*
X629452Y380104D01*
X629989Y378808D01*
X630844Y377694D01*
X631957Y376840D01*
X633254Y376303D01*
X634646Y376119D01*
X636037Y376303D01*
X637334Y376840D01*
X637426Y376911D01*
X637757Y376534D01*
X636320Y375097D01*
X635989Y374601D01*
X635872Y374016D01*
Y371706D01*
X635105Y370938D01*
X634665Y371205D01*
X634832Y372047D01*
X634638Y373023D01*
X634086Y373850D01*
X633259Y374402D01*
X632283Y374596D01*
X631961Y374532D01*
X630070Y376423D01*
X629997Y376982D01*
X629459Y378279D01*
X628605Y379393D01*
X627492Y380247D01*
X626195Y380784D01*
X624803Y380967D01*
X623412Y380784D01*
X622115Y380247D01*
X621001Y379393D01*
X620147Y378279D01*
X619610Y376982D01*
X619426Y375590D01*
X619477Y375209D01*
X618996Y375028D01*
X618731Y375424D01*
X617905Y375977D01*
X616929Y376171D01*
X616484Y376082D01*
X616432Y376118D01*
X615846Y376234D01*
X613894D01*
Y377969D01*
X606579D01*
Y376234D01*
X556471D01*
X556280Y376696D01*
X562444Y382860D01*
X608153D01*
X608335Y382587D01*
X609162Y382035D01*
X610138Y381841D01*
X611113Y382035D01*
X611940Y382587D01*
X612493Y383414D01*
X612687Y384390D01*
X612493Y385365D01*
X612449Y385431D01*
X612684Y385872D01*
X619667D01*
X620147Y384713D01*
X621001Y383600D01*
X622115Y382745D01*
X623412Y382208D01*
X624803Y382025D01*
X626195Y382208D01*
X627492Y382745D01*
X628605Y383600D01*
X629459Y384713D01*
X629997Y386010D01*
X630180Y387402D01*
X629997Y388793D01*
X629459Y390090D01*
X628605Y391203D01*
X627492Y392058D01*
X626195Y392595D01*
X624803Y392778D01*
X623412Y392595D01*
X622115Y392058D01*
X621001Y391203D01*
X620147Y390090D01*
X619667Y388931D01*
X601569D01*
X601417Y389431D01*
X601475Y389470D01*
X609689Y397683D01*
X619667D01*
X620147Y396524D01*
X621001Y395411D01*
X622115Y394556D01*
X623412Y394019D01*
X624803Y393836D01*
X626195Y394019D01*
X627492Y394556D01*
X628605Y395411D01*
X629459Y396524D01*
X629997Y397821D01*
X630180Y399213D01*
X629997Y400604D01*
X629459Y401901D01*
X628605Y403015D01*
X627492Y403869D01*
X626195Y404406D01*
X624803Y404589D01*
X623412Y404406D01*
X622115Y403869D01*
X621001Y403015D01*
X620147Y401901D01*
X619667Y400742D01*
X609055D01*
X608470Y400626D01*
X607974Y400294D01*
X599760Y392081D01*
X549958D01*
X549906Y392223D01*
X549875Y392581D01*
X550621Y393079D01*
X551174Y393906D01*
X551220Y394140D01*
X600236D01*
X600821Y394256D01*
X601318Y394588D01*
X610766Y404037D01*
X611098Y404533D01*
X611214Y405118D01*
Y418488D01*
X611487Y418670D01*
X612040Y419497D01*
X612216Y420381D01*
X612674Y420630D01*
X619984Y413319D01*
X619610Y412415D01*
X619426Y411024D01*
X619610Y409632D01*
X620147Y408335D01*
X621001Y407222D01*
X622115Y406367D01*
X623412Y405830D01*
X624803Y405647D01*
X626195Y405830D01*
X627492Y406367D01*
X628605Y407222D01*
X629459Y408335D01*
X629997Y409632D01*
X630180Y411024D01*
X629997Y412415D01*
X629459Y413712D01*
X628605Y414825D01*
X627492Y415680D01*
X626195Y416217D01*
X624803Y416400D01*
X623412Y416217D01*
X622507Y415843D01*
X609658Y428692D01*
Y504724D01*
X609522Y505407D01*
X609136Y505986D01*
X609136Y505986D01*
X604411Y510710D01*
X603832Y511097D01*
X603150Y511233D01*
X496308D01*
X496292Y511249D01*
X496291Y511251D01*
X496288Y511253D01*
X496025Y511517D01*
X496179Y511995D01*
X608316D01*
X634043Y486269D01*
D02*
G37*
G36*
X664026Y415114D02*
Y410436D01*
X664111Y410007D01*
X658270Y404166D01*
X657691Y404406D01*
X656299Y404589D01*
X654908Y404406D01*
X653611Y403869D01*
X652497Y403015D01*
X651643Y401901D01*
X651106Y400604D01*
X650922Y399213D01*
X651106Y397821D01*
X651643Y396524D01*
X652497Y395411D01*
X653611Y394556D01*
X654908Y394019D01*
X656299Y393836D01*
X657691Y394019D01*
X658988Y394556D01*
X660101Y395411D01*
X660956Y396524D01*
X661493Y397821D01*
X661676Y399213D01*
X661493Y400604D01*
X661253Y401183D01*
X668321Y408251D01*
X668513Y408538D01*
X669157Y408602D01*
X686266Y391493D01*
Y387494D01*
X685825Y387258D01*
X685621Y387394D01*
X684646Y387588D01*
X683670Y387394D01*
X682843Y386842D01*
X682291Y386015D01*
X682097Y385039D01*
X682161Y384717D01*
X680469Y383026D01*
X660131D01*
X659970Y383499D01*
X660101Y383600D01*
X660956Y384713D01*
X661436Y385872D01*
X664551D01*
Y383744D01*
X671079D01*
Y391059D01*
X664551D01*
Y388931D01*
X661436D01*
X660956Y390090D01*
X660101Y391203D01*
X658988Y392058D01*
X657691Y392595D01*
X656299Y392778D01*
X654908Y392595D01*
X653611Y392058D01*
X652497Y391203D01*
X651643Y390090D01*
X651106Y388793D01*
X650922Y387402D01*
X651106Y386010D01*
X651643Y384713D01*
X652497Y383600D01*
X652629Y383499D01*
X652468Y383026D01*
X651593D01*
X651113Y384184D01*
X650259Y385298D01*
X649145Y386152D01*
X647848Y386690D01*
X646457Y386873D01*
X645065Y386690D01*
X643768Y386152D01*
X642655Y385298D01*
X642554Y385167D01*
X642081Y385327D01*
Y389476D01*
X642554Y389636D01*
X642655Y389505D01*
X643768Y388651D01*
X645065Y388114D01*
X646457Y387930D01*
X647848Y388114D01*
X649145Y388651D01*
X650259Y389505D01*
X651113Y390619D01*
X651650Y391915D01*
X651833Y393307D01*
X651650Y394699D01*
X651113Y395995D01*
X650259Y397109D01*
X649145Y397964D01*
X647848Y398501D01*
X646457Y398684D01*
X645065Y398501D01*
X643768Y397964D01*
X642655Y397109D01*
X642554Y396978D01*
X642081Y397138D01*
Y401287D01*
X642554Y401447D01*
X642655Y401316D01*
X643768Y400462D01*
X645065Y399925D01*
X646457Y399741D01*
X647848Y399925D01*
X649145Y400462D01*
X650259Y401316D01*
X651113Y402430D01*
X651650Y403726D01*
X651833Y405118D01*
X651650Y406510D01*
X651113Y407806D01*
X650259Y408920D01*
X650127Y409021D01*
X650288Y409494D01*
X651163D01*
X651643Y408335D01*
X652497Y407222D01*
X653611Y406367D01*
X654908Y405830D01*
X656299Y405647D01*
X657691Y405830D01*
X658988Y406367D01*
X660101Y407222D01*
X660956Y408335D01*
X661493Y409632D01*
X661676Y411024D01*
X661493Y412415D01*
X661253Y412994D01*
X663564Y415305D01*
X664026Y415114D01*
D02*
G37*
G36*
X535576Y385431D02*
X535440Y385227D01*
X535246Y384252D01*
X535310Y383930D01*
X532831Y381451D01*
X527109D01*
X526886Y381951D01*
X527039Y382122D01*
X527165Y382097D01*
X528141Y382291D01*
X528968Y382843D01*
X529520Y383670D01*
X529714Y384646D01*
X529570Y385372D01*
X529908Y385872D01*
X535341D01*
X535576Y385431D01*
D02*
G37*
G36*
X560522Y385761D02*
X560631Y385372D01*
X552772Y377514D01*
X545290D01*
X545099Y377976D01*
X548920Y381796D01*
X549390Y381703D01*
X550365Y381897D01*
X551192Y382450D01*
X551745Y383277D01*
X551939Y384252D01*
X551745Y385227D01*
X551609Y385431D01*
X551844Y385872D01*
X560442D01*
X560522Y385761D01*
D02*
G37*
G36*
X547171Y385431D02*
X547035Y385227D01*
X546841Y384252D01*
X546875Y384078D01*
X542280Y379482D01*
X535842D01*
X535650Y379944D01*
X537473Y381767D01*
X537795Y381703D01*
X538771Y381897D01*
X539598Y382450D01*
X540150Y383277D01*
X540344Y384252D01*
X540150Y385227D01*
X540014Y385431D01*
X540250Y385872D01*
X546935D01*
X547171Y385431D01*
D02*
G37*
G36*
X629736Y372055D02*
X629735Y372047D01*
X629928Y371072D01*
X630481Y370245D01*
X631308Y369692D01*
X632283Y369498D01*
X633125Y369666D01*
X633393Y369226D01*
X632147Y367981D01*
X631816Y367484D01*
X631699Y366899D01*
Y366551D01*
X629571D01*
Y364817D01*
X627504D01*
X626894Y365426D01*
X626958Y365748D01*
X626764Y366723D01*
X626212Y367550D01*
X625385Y368103D01*
X624409Y368297D01*
X623434Y368103D01*
X622607Y367550D01*
X622054Y366723D01*
X621861Y365748D01*
X622054Y364773D01*
X622191Y364568D01*
X621884Y364128D01*
X614079D01*
X613894Y364551D01*
X613894Y364628D01*
Y366286D01*
X617028D01*
X617613Y366402D01*
X618109Y366734D01*
X622253Y370877D01*
X623412Y370397D01*
X624803Y370214D01*
X626195Y370397D01*
X627492Y370934D01*
X628605Y371789D01*
X628941Y372227D01*
X629559Y372253D01*
X629736Y372055D01*
D02*
G37*
G36*
X612484Y360646D02*
X612484Y360569D01*
Y359010D01*
X610646D01*
X610464Y359283D01*
X609637Y359835D01*
X608661Y360029D01*
X607686Y359835D01*
X606859Y359283D01*
X606307Y358456D01*
X606112Y357480D01*
X606307Y356505D01*
X606666Y355966D01*
X606399Y355466D01*
X583875D01*
X583692Y355739D01*
X583535Y355845D01*
X583686Y356345D01*
X584252D01*
X584837Y356461D01*
X585333Y356793D01*
X589610Y361069D01*
X612299D01*
X612484Y360646D01*
D02*
G37*
G36*
X600492Y348364D02*
X600139Y348129D01*
X596556Y344546D01*
X596225Y344050D01*
X596108Y343465D01*
Y330725D01*
X595835Y330543D01*
X595533Y330090D01*
X595033Y330242D01*
Y348228D01*
X595012Y348334D01*
X595340Y348530D01*
X595475Y348569D01*
X596269Y348039D01*
X597244Y347845D01*
X598219Y348039D01*
X599047Y348591D01*
X599229Y348864D01*
X600340D01*
X600492Y348364D01*
D02*
G37*
G36*
X637873Y343429D02*
X637665Y342929D01*
X630988D01*
Y341687D01*
X624426D01*
X624243Y341960D01*
X623416Y342512D01*
X622441Y342706D01*
X621465Y342512D01*
X620639Y341960D01*
X620086Y341133D01*
X619892Y340158D01*
X620013Y339550D01*
X619552Y339304D01*
X610393Y348463D01*
X610600Y348963D01*
X612484D01*
Y347228D01*
X619799D01*
Y348963D01*
X632339D01*
X637873Y343429D01*
D02*
G37*
G36*
X630988Y336539D02*
X630988Y336402D01*
Y336039D01*
X630988Y335902D01*
Y334305D01*
X624551D01*
X621587Y337268D01*
X621834Y337729D01*
X622441Y337609D01*
X623416Y337803D01*
X624243Y338355D01*
X624426Y338628D01*
X630988D01*
Y336539D01*
D02*
G37*
G36*
X644927Y336374D02*
Y317735D01*
X643768Y317255D01*
X642841Y316544D01*
X642342Y316782D01*
Y318268D01*
X642354Y318276D01*
X642906Y319103D01*
X643100Y320079D01*
X642906Y321054D01*
X642354Y321881D01*
X641527Y322434D01*
X640551Y322628D01*
X639576Y322434D01*
X638749Y321881D01*
X638196Y321054D01*
X638002Y320079D01*
X638196Y319103D01*
X638749Y318276D01*
X638761Y318268D01*
Y316782D01*
X638261Y316544D01*
X637334Y317255D01*
X636175Y317735D01*
Y329512D01*
X638303D01*
Y335902D01*
X638303Y336039D01*
Y336402D01*
X638303Y336539D01*
Y342291D01*
X638803Y342498D01*
X644927Y336374D01*
D02*
G37*
G36*
X606177Y343629D02*
X606112Y343307D01*
X606307Y342332D01*
X606859Y341505D01*
X607686Y340952D01*
X608661Y340758D01*
X609637Y340952D01*
X610464Y341505D01*
X611016Y342332D01*
X611095Y342728D01*
X611638Y342892D01*
X622836Y331694D01*
X623332Y331363D01*
X623917Y331246D01*
X630988D01*
Y329512D01*
X633116D01*
Y317735D01*
X631957Y317255D01*
X630844Y316400D01*
X629989Y315287D01*
X629452Y313990D01*
X629269Y312598D01*
X629452Y311207D01*
X629989Y309910D01*
X630844Y308797D01*
X631957Y307942D01*
X633254Y307405D01*
X634646Y307222D01*
X636037Y307405D01*
X637334Y307942D01*
X638261Y308653D01*
X638761Y308415D01*
Y304971D01*
X638261Y304733D01*
X637334Y305444D01*
X636037Y305981D01*
X634646Y306164D01*
X633254Y305981D01*
X631957Y305444D01*
X630844Y304589D01*
X629989Y303476D01*
X629509Y302317D01*
X628635D01*
X628474Y302790D01*
X628605Y302891D01*
X629459Y304005D01*
X629997Y305301D01*
X630180Y306693D01*
X629997Y308085D01*
X629459Y309381D01*
X628605Y310495D01*
X627492Y311349D01*
X626195Y311886D01*
X624803Y312070D01*
X623412Y311886D01*
X622115Y311349D01*
X621001Y310495D01*
X620147Y309381D01*
X619667Y308222D01*
X614189D01*
Y312319D01*
X612193D01*
X612007Y312597D01*
X604231Y320373D01*
X603735Y320704D01*
X603150Y320821D01*
X600633D01*
X595033Y326421D01*
Y327238D01*
X595533Y327390D01*
X595835Y326938D01*
X596662Y326385D01*
X597638Y326191D01*
X597960Y326255D01*
X599312Y324903D01*
X599808Y324571D01*
X600394Y324455D01*
X600772D01*
Y322327D01*
X607161D01*
X607299Y322327D01*
X607661D01*
X607799Y322327D01*
X612420D01*
X617324Y317423D01*
X617820Y317091D01*
X618405Y316974D01*
X619667D01*
X620147Y315816D01*
X621001Y314702D01*
X622115Y313848D01*
X623412Y313310D01*
X624803Y313127D01*
X626195Y313310D01*
X627492Y313848D01*
X628605Y314702D01*
X629459Y315816D01*
X629997Y317112D01*
X630180Y318504D01*
X629997Y319896D01*
X629459Y321192D01*
X628605Y322306D01*
X627492Y323160D01*
X626195Y323697D01*
X624803Y323881D01*
X623412Y323697D01*
X622115Y323160D01*
X621001Y322306D01*
X620147Y321192D01*
X619667Y320033D01*
X619039D01*
X614189Y324883D01*
Y329642D01*
X612455D01*
Y333169D01*
X612338Y333755D01*
X612007Y334251D01*
X605303Y340954D01*
X605111Y341920D01*
X604558Y342747D01*
X603731Y343300D01*
X602756Y343494D01*
X601781Y343300D01*
X600953Y342747D01*
X600401Y341920D01*
X600207Y340945D01*
X600401Y339969D01*
X600953Y339142D01*
X601781Y338590D01*
X602756Y338396D01*
X603406Y338525D01*
X609396Y332536D01*
Y329642D01*
X607799D01*
X607661Y329642D01*
X607299D01*
X607161Y329642D01*
X600772D01*
Y328883D01*
X600272Y328647D01*
X600183Y328720D01*
X600187Y328740D01*
X599993Y329716D01*
X599440Y330543D01*
X599167Y330725D01*
Y342831D01*
X601854Y345518D01*
X604288D01*
X606177Y343629D01*
D02*
G37*
G36*
X598919Y318210D02*
X599415Y317878D01*
X600000Y317762D01*
X602516D01*
X607572Y312706D01*
X607252Y312319D01*
X602541D01*
X597511Y317349D01*
X597631Y317529D01*
X597825Y318504D01*
X597801Y318620D01*
X598262Y318866D01*
X598919Y318210D01*
D02*
G37*
G36*
X676056Y321600D02*
Y277400D01*
X675606Y277279D01*
Y277279D01*
X673647D01*
X673604Y277344D01*
X667609Y283340D01*
X667855Y283801D01*
X668504Y283671D01*
X669479Y283865D01*
X670306Y284418D01*
X670859Y285245D01*
X671053Y286221D01*
X670859Y287196D01*
X670613Y287563D01*
Y326389D01*
X671075Y326581D01*
X676056Y321600D01*
D02*
G37*
G36*
X366681Y274070D02*
X367012Y273736D01*
X367012D01*
X367012Y273736D01*
Y272002D01*
X363232D01*
X359994Y275240D01*
Y276953D01*
X361236D01*
Y278982D01*
X361768D01*
X366681Y274070D01*
D02*
G37*
G36*
X673772Y255489D02*
Y231577D01*
X673299Y231417D01*
X673234Y231501D01*
X664966Y239769D01*
X663811Y240655D01*
X663386Y240831D01*
X663288Y241322D01*
X667223Y245256D01*
X667555Y245753D01*
X667671Y246338D01*
Y251335D01*
X671725Y255389D01*
X672047Y255325D01*
X673023Y255519D01*
X673331Y255725D01*
X673772Y255489D01*
D02*
G37*
G36*
X490946Y313978D02*
Y257524D01*
X491063Y256939D01*
X491394Y256443D01*
X499101Y248736D01*
X499134Y248625D01*
X499130Y248608D01*
X498557Y248389D01*
X498219Y248615D01*
X497244Y248809D01*
X497152Y248791D01*
X490112Y255830D01*
Y314158D01*
X490574Y314350D01*
X490946Y313978D01*
D02*
G37*
G36*
X536492Y149291D02*
X536245Y149089D01*
X535506Y148187D01*
X534956Y147159D01*
X534617Y146043D01*
X534503Y144882D01*
X534617Y143721D01*
X534956Y142605D01*
X535506Y141576D01*
X536245Y140675D01*
X537147Y139935D01*
X538176Y139385D01*
X539292Y139046D01*
X540453Y138932D01*
X541613Y139046D01*
X542380Y139279D01*
X542645Y138837D01*
X530482Y126674D01*
X530328Y126757D01*
X529212Y127095D01*
X528051Y127210D01*
X526890Y127095D01*
X525774Y126757D01*
X524746Y126207D01*
X523844Y125467D01*
X523104Y124565D01*
X522554Y123537D01*
X522216Y122421D01*
X522101Y121260D01*
X522216Y120099D01*
X522554Y118983D01*
X523104Y117954D01*
X523844Y117053D01*
X524746Y116313D01*
X525774Y115763D01*
X526890Y115424D01*
X528051Y115310D01*
X529212Y115424D01*
X529865Y115622D01*
X530130Y115180D01*
X493360Y78410D01*
X459282D01*
X444182Y93509D01*
X429591Y108101D01*
Y131549D01*
X437742Y139700D01*
X453394D01*
X454253Y139440D01*
X455413Y139326D01*
X456574Y139440D01*
X457690Y139779D01*
X458719Y140328D01*
X459621Y141068D01*
X460361Y141970D01*
X460910Y142999D01*
X461249Y144115D01*
X461363Y145276D01*
X461249Y146436D01*
X460910Y147553D01*
X460361Y148581D01*
X459802Y149262D01*
X460039Y149762D01*
X493804D01*
X493972Y149291D01*
X493726Y149089D01*
X492986Y148187D01*
X492436Y147159D01*
X492098Y146043D01*
X491983Y144882D01*
X492098Y143721D01*
X492436Y142605D01*
X492986Y141576D01*
X493726Y140675D01*
X494628Y139935D01*
X495656Y139385D01*
X496772Y139046D01*
X497933Y138932D01*
X499094Y139046D01*
X500210Y139385D01*
X501239Y139935D01*
X502140Y140675D01*
X502880Y141576D01*
X503430Y142605D01*
X503769Y143721D01*
X503883Y144882D01*
X503769Y146043D01*
X503430Y147159D01*
X502880Y148187D01*
X502140Y149089D01*
X501894Y149291D01*
X502063Y149762D01*
X536323D01*
X536492Y149291D01*
D02*
G37*
G36*
X586157Y194671D02*
Y171207D01*
X534131Y119181D01*
X533688Y119446D01*
X533887Y120099D01*
X534001Y121260D01*
X533887Y122421D01*
X533548Y123537D01*
X533466Y123691D01*
X573517Y163742D01*
X573974Y164427D01*
X574134Y165234D01*
Y172279D01*
X574380Y172647D01*
X574574Y173622D01*
X574380Y174598D01*
X573828Y175425D01*
X573000Y175977D01*
X572025Y176171D01*
X571050Y175977D01*
X570223Y175425D01*
X569670Y174598D01*
X569476Y173622D01*
X569670Y172647D01*
X569916Y172279D01*
Y166107D01*
X546498Y142690D01*
X546056Y142955D01*
X546288Y143721D01*
X546403Y144882D01*
X546288Y146043D01*
X545950Y147159D01*
X545400Y148187D01*
X544660Y149089D01*
X543758Y149829D01*
X542730Y150379D01*
X542066Y150580D01*
X541924Y151146D01*
X585657Y194879D01*
X586157Y194671D01*
D02*
G37*
G36*
X657181Y200255D02*
X612124Y155199D01*
X611737Y154620D01*
X611602Y153937D01*
Y151920D01*
X529410Y69728D01*
X529023Y69150D01*
X528887Y68467D01*
Y60026D01*
X508047Y39186D01*
X341684D01*
X335366Y45504D01*
X335612Y45965D01*
X335827Y45922D01*
X378346D01*
X379154Y46083D01*
X379838Y46540D01*
X401661Y68363D01*
X428933D01*
X435136Y62161D01*
X434855Y61482D01*
X434665Y60039D01*
X434855Y58596D01*
X435412Y57252D01*
X436298Y56097D01*
X451062Y41333D01*
X452216Y40447D01*
X453561Y39890D01*
X455004Y39700D01*
X503150D01*
X504593Y39890D01*
X505937Y40447D01*
X507092Y41333D01*
X525060Y59302D01*
X525946Y60457D01*
X526503Y61801D01*
X526693Y63244D01*
Y78258D01*
X649191Y200755D01*
X656974D01*
X657181Y200255D01*
D02*
G37*
%LPC*%
G36*
X611286Y692644D02*
X610106Y692564D01*
X608964Y692256D01*
X607905Y691730D01*
X606968Y691008D01*
X606190Y690118D01*
X605601Y689092D01*
X605224Y687971D01*
X605072Y686798D01*
X605152Y685618D01*
X605460Y684477D01*
X605986Y683417D01*
X606708Y682480D01*
X607599Y681703D01*
X608624Y681113D01*
X609745Y680736D01*
X610918Y680584D01*
X612098Y680664D01*
X613239Y680972D01*
X614299Y681498D01*
X615236Y682220D01*
X616013Y683111D01*
X616603Y684136D01*
X616980Y685257D01*
X617132Y686430D01*
X617052Y687610D01*
X616744Y688752D01*
X616218Y689811D01*
X615496Y690748D01*
X614605Y691526D01*
X613580Y692115D01*
X612459Y692493D01*
X611286Y692644D01*
D02*
G37*
G36*
X622283Y674753D02*
X621106Y674637D01*
X619975Y674294D01*
X618931Y673737D01*
X618017Y672986D01*
X617267Y672072D01*
X616710Y671029D01*
X616366Y669897D01*
X616250Y668720D01*
X616366Y667543D01*
X616710Y666412D01*
X617267Y665369D01*
X618017Y664454D01*
X618931Y663704D01*
X619975Y663147D01*
X621106Y662803D01*
X622283Y662687D01*
X623460Y662803D01*
X624592Y663147D01*
X625635Y663704D01*
X626549Y664454D01*
X627299Y665369D01*
X627857Y666412D01*
X628200Y667543D01*
X628316Y668720D01*
X628200Y669897D01*
X627857Y671029D01*
X627299Y672072D01*
X626549Y672986D01*
X625635Y673737D01*
X624592Y674294D01*
X623460Y674637D01*
X622283Y674753D01*
D02*
G37*
G36*
X560630Y670091D02*
X559648Y669962D01*
X558734Y669583D01*
X557948Y668981D01*
X557346Y668195D01*
X556967Y667281D01*
X556838Y666299D01*
X556967Y665318D01*
X557346Y664403D01*
X557948Y663618D01*
X558734Y663015D01*
X559648Y662636D01*
X560630Y662507D01*
X561611Y662636D01*
X562526Y663015D01*
X563311Y663618D01*
X563914Y664403D01*
X564293Y665318D01*
X564422Y666299D01*
X564293Y667281D01*
X563914Y668195D01*
X563311Y668981D01*
X562526Y669583D01*
X561611Y669962D01*
X560630Y670091D01*
D02*
G37*
G36*
Y660091D02*
X559648Y659962D01*
X558734Y659583D01*
X557948Y658981D01*
X557346Y658195D01*
X556967Y657281D01*
X556838Y656299D01*
X556967Y655318D01*
X557346Y654403D01*
X557948Y653618D01*
X558734Y653015D01*
X559648Y652636D01*
X560630Y652507D01*
X561611Y652636D01*
X562526Y653015D01*
X563311Y653618D01*
X563914Y654403D01*
X564293Y655318D01*
X564422Y656299D01*
X564293Y657281D01*
X563914Y658195D01*
X563311Y658981D01*
X562526Y659583D01*
X561611Y659962D01*
X560630Y660091D01*
D02*
G37*
G36*
X512992Y650407D02*
X512011Y650277D01*
X511096Y649898D01*
X510311Y649296D01*
X509708Y648510D01*
X509666Y648409D01*
X506850D01*
X506850Y648409D01*
X506164Y648272D01*
X505582Y647883D01*
X503062Y645363D01*
X502673Y644781D01*
X502536Y644095D01*
X502536Y644094D01*
Y625197D01*
X502536Y625197D01*
X502673Y624510D01*
X503062Y623928D01*
X519662Y607328D01*
Y602403D01*
X519652Y602396D01*
X519098Y601568D01*
X518904Y600591D01*
X519098Y599614D01*
X519652Y598785D01*
X519662Y598778D01*
Y595276D01*
X519662Y595276D01*
X519799Y594589D01*
X520188Y594007D01*
X523731Y590463D01*
X523731Y590463D01*
X524313Y590074D01*
X525000Y589938D01*
X525000Y589938D01*
X546063D01*
X546063Y589938D01*
X546750Y590074D01*
X547332Y590463D01*
X560223Y603355D01*
X560236Y603352D01*
X561213Y603547D01*
X562042Y604100D01*
X562595Y604928D01*
X562789Y605905D01*
X562595Y606882D01*
X562042Y607711D01*
X561213Y608264D01*
X560236Y608459D01*
X559259Y608264D01*
X558431Y607711D01*
X557878Y606882D01*
X557683Y605905D01*
X557686Y605893D01*
X545320Y593527D01*
X525743D01*
X523251Y596019D01*
Y598778D01*
X523262Y598785D01*
X523815Y599614D01*
X524010Y600591D01*
X523815Y601568D01*
X523262Y602396D01*
X523251Y602403D01*
Y608071D01*
X523114Y608757D01*
X522725Y609340D01*
X522725Y609340D01*
X506125Y625940D01*
Y643351D01*
X507594Y644820D01*
X509666D01*
X509708Y644718D01*
X510311Y643933D01*
X511096Y643330D01*
X512011Y642951D01*
X512992Y642822D01*
X513974Y642951D01*
X514888Y643330D01*
X515674Y643933D01*
X516276Y644718D01*
X516319Y644820D01*
X526658D01*
X528552Y642926D01*
X528549Y642913D01*
X528744Y641936D01*
X529297Y641108D01*
X530125Y640555D01*
X531102Y640360D01*
X532079Y640555D01*
X532908Y641108D01*
X533461Y641936D01*
X533655Y642913D01*
X533461Y643890D01*
X532908Y644719D01*
X532079Y645272D01*
X531102Y645466D01*
X531089Y645464D01*
X528670Y647883D01*
X528088Y648272D01*
X527402Y648409D01*
X527401Y648409D01*
X516319D01*
X516276Y648510D01*
X515674Y649296D01*
X514888Y649898D01*
X513974Y650277D01*
X512992Y650407D01*
D02*
G37*
G36*
X490709Y643162D02*
X489727Y643033D01*
X488812Y642654D01*
X488027Y642052D01*
X487424Y641266D01*
X487046Y640352D01*
X486916Y639370D01*
X487046Y638389D01*
X487424Y637474D01*
X488027Y636689D01*
X488812Y636086D01*
X489727Y635707D01*
X490709Y635578D01*
X491690Y635707D01*
X492605Y636086D01*
X493390Y636689D01*
X493993Y637474D01*
X494372Y638389D01*
X494501Y639370D01*
X494372Y640352D01*
X493993Y641266D01*
X493390Y642052D01*
X492605Y642654D01*
X491690Y643033D01*
X490709Y643162D01*
D02*
G37*
G36*
X470709D02*
X469727Y643033D01*
X468813Y642654D01*
X468027Y642052D01*
X467424Y641266D01*
X467046Y640352D01*
X466916Y639370D01*
X467046Y638389D01*
X467424Y637474D01*
X468027Y636689D01*
X468813Y636086D01*
X469727Y635707D01*
X470709Y635578D01*
X471690Y635707D01*
X472605Y636086D01*
X473390Y636689D01*
X473993Y637474D01*
X474372Y638389D01*
X474501Y639370D01*
X474372Y640352D01*
X473993Y641266D01*
X473390Y642052D01*
X472605Y642654D01*
X471690Y643033D01*
X470709Y643162D01*
D02*
G37*
G36*
X560630Y650092D02*
X559648Y649962D01*
X558734Y649583D01*
X557948Y648981D01*
X557346Y648195D01*
X556967Y647281D01*
X556838Y646299D01*
X556967Y645318D01*
X557346Y644403D01*
X557948Y643618D01*
X558734Y643015D01*
X559648Y642636D01*
X560630Y642507D01*
X561611Y642636D01*
X562526Y643015D01*
X563311Y643618D01*
X563914Y644403D01*
X564064Y644766D01*
X584955D01*
X593010Y636711D01*
X593508Y636379D01*
X594095Y636262D01*
X594095Y636262D01*
X598013D01*
X598195Y635990D01*
X599023Y635437D01*
X600000Y635242D01*
X600977Y635437D01*
X601805Y635990D01*
X602359Y636818D01*
X602553Y637795D01*
X602359Y638772D01*
X601805Y639601D01*
X600977Y640154D01*
X600000Y640348D01*
X599023Y640154D01*
X598195Y639601D01*
X598013Y639329D01*
X594730D01*
X586675Y647383D01*
X586177Y647716D01*
X585591Y647833D01*
X564064D01*
X563914Y648195D01*
X563311Y648981D01*
X562526Y649583D01*
X561611Y649962D01*
X560630Y650092D01*
D02*
G37*
G36*
X512992Y640407D02*
X512011Y640277D01*
X511096Y639898D01*
X510311Y639296D01*
X509708Y638510D01*
X509329Y637596D01*
X509200Y636614D01*
X509329Y635633D01*
X509708Y634718D01*
X510311Y633933D01*
X511096Y633330D01*
X512011Y632951D01*
X512992Y632822D01*
X513974Y632951D01*
X514888Y633330D01*
X515674Y633933D01*
X516276Y634718D01*
X516655Y635633D01*
X516784Y636614D01*
X516655Y637596D01*
X516276Y638510D01*
X515674Y639296D01*
X514888Y639898D01*
X513974Y640277D01*
X512992Y640407D01*
D02*
G37*
G36*
X444488Y595073D02*
X443511Y594878D01*
X442683Y594325D01*
X442636Y594255D01*
X438092D01*
X438085Y594266D01*
X437256Y594819D01*
X436279Y595014D01*
X435302Y594819D01*
X434474Y594266D01*
X433921Y593438D01*
X433727Y592461D01*
X433921Y591484D01*
X434474Y590655D01*
X435302Y590102D01*
X436279Y589908D01*
X437256Y590102D01*
X438085Y590655D01*
X438092Y590666D01*
X442755D01*
X443511Y590161D01*
X444488Y589967D01*
X445465Y590161D01*
X446293Y590715D01*
X446847Y591543D01*
X447041Y592520D01*
X446847Y593497D01*
X446293Y594325D01*
X445465Y594878D01*
X444488Y595073D01*
D02*
G37*
G36*
X624784Y585253D02*
X583465D01*
X582780Y585117D01*
X582200Y584729D01*
X576425Y578954D01*
X536068D01*
X536057Y578971D01*
X535229Y579524D01*
X534252Y579718D01*
X533275Y579524D01*
X532447Y578971D01*
X531893Y578142D01*
X531699Y577165D01*
X531893Y576188D01*
X532447Y575360D01*
X533275Y574807D01*
X534252Y574612D01*
X535229Y574807D01*
X536057Y575360D01*
X536068Y575377D01*
X577165D01*
X577850Y575513D01*
X578430Y575901D01*
X584205Y581676D01*
X624043D01*
X627908Y577811D01*
X627728Y577497D01*
X627350Y576377D01*
X627198Y575204D01*
X627278Y574024D01*
X627587Y572882D01*
X628112Y571823D01*
X628834Y570886D01*
X629725Y570108D01*
X630751Y569519D01*
X631871Y569141D01*
X633044Y568989D01*
X634224Y569069D01*
X635366Y569378D01*
X636425Y569903D01*
X637362Y570625D01*
X638140Y571516D01*
X638729Y572542D01*
X639107Y573663D01*
X639259Y574835D01*
X639179Y576015D01*
X638870Y577157D01*
X638345Y578217D01*
X637623Y579153D01*
X636732Y579931D01*
X635706Y580520D01*
X634586Y580898D01*
X633413Y581050D01*
X632233Y580970D01*
X631091Y580661D01*
X630439Y580338D01*
X626048Y584729D01*
X625468Y585117D01*
X624784Y585253D01*
D02*
G37*
G36*
X610682Y581050D02*
X609509Y580898D01*
X608388Y580520D01*
X607363Y579931D01*
X606472Y579153D01*
X605750Y578217D01*
X605224Y577157D01*
X604916Y576015D01*
X604836Y574835D01*
X604988Y573663D01*
X605365Y572542D01*
X605954Y571516D01*
X606732Y570625D01*
X607669Y569903D01*
X608729Y569378D01*
X609870Y569069D01*
X611050Y568989D01*
X612223Y569141D01*
X613344Y569519D01*
X614369Y570108D01*
X615260Y570886D01*
X615982Y571823D01*
X616508Y572882D01*
X616816Y574024D01*
X616896Y575204D01*
X616744Y576377D01*
X616367Y577497D01*
X615777Y578523D01*
X615000Y579414D01*
X614063Y580136D01*
X613003Y580661D01*
X611862Y580970D01*
X610682Y581050D01*
D02*
G37*
G36*
X323638Y603638D02*
X316126D01*
Y595339D01*
X323638D01*
Y603638D01*
D02*
G37*
G36*
X358913Y614386D02*
X353370D01*
Y608449D01*
X354351D01*
Y584681D01*
X353851Y584632D01*
X353733Y585227D01*
X353180Y586054D01*
X352353Y586607D01*
X351378Y586801D01*
X350402Y586607D01*
X349948Y586303D01*
X349339Y586432D01*
X349227Y586635D01*
X349399Y587499D01*
X349205Y588474D01*
X348653Y589301D01*
X347826Y589854D01*
X346850Y590048D01*
X345875Y589854D01*
X345048Y589301D01*
X345036Y589283D01*
X324455D01*
X324455Y589283D01*
X324425Y589307D01*
Y591236D01*
X317110D01*
Y587661D01*
Y585102D01*
Y582543D01*
Y579984D01*
X324425D01*
Y580001D01*
X347388D01*
X347848Y579542D01*
X347845Y579528D01*
X348039Y578552D01*
X348591Y577725D01*
X349418Y577173D01*
X350394Y576979D01*
X351369Y577173D01*
X352196Y577725D01*
X352204Y577737D01*
X352992D01*
X353677Y577874D01*
X354258Y578262D01*
X357408Y581411D01*
X357796Y581992D01*
X357932Y582677D01*
Y608449D01*
X358913D01*
Y614386D01*
D02*
G37*
G36*
X375409Y584563D02*
X369472D01*
Y583576D01*
X368350D01*
X368338Y583594D01*
X367511Y584146D01*
X366535Y584340D01*
X365560Y584146D01*
X364733Y583594D01*
X364180Y582767D01*
X363986Y581791D01*
X364180Y580816D01*
X364733Y579989D01*
X365560Y579436D01*
X366535Y579242D01*
X367511Y579436D01*
X368338Y579989D01*
X368350Y580007D01*
X369472D01*
Y579020D01*
X375409D01*
Y584563D01*
D02*
G37*
G36*
X323638Y578441D02*
X316126D01*
Y570142D01*
X323638D01*
Y578441D01*
D02*
G37*
G36*
X313795Y604228D02*
X306677D01*
Y596854D01*
X306677Y596520D01*
X306246Y596354D01*
X305496D01*
Y586874D01*
Y577425D01*
X306246D01*
X306677Y577260D01*
X306677Y576925D01*
Y569551D01*
X313795D01*
Y576925D01*
X313795Y577260D01*
X314227Y577425D01*
X314976D01*
Y586874D01*
Y596354D01*
X314227D01*
X313795Y596520D01*
X313795Y596854D01*
Y604228D01*
D02*
G37*
G36*
X344488Y543100D02*
X343513Y542906D01*
X342686Y542354D01*
X342133Y541527D01*
X341939Y540551D01*
X341942Y540537D01*
X336628Y535223D01*
X336240Y534642D01*
X336103Y533957D01*
X336240Y533272D01*
X336628Y532691D01*
X337209Y532303D01*
X337894Y532166D01*
X338579Y532303D01*
X339160Y532691D01*
X344474Y538005D01*
X344488Y538002D01*
X345464Y538196D01*
X346291Y538749D01*
X346843Y539576D01*
X347037Y540551D01*
X346843Y541527D01*
X346291Y542354D01*
X345464Y542906D01*
X344488Y543100D01*
D02*
G37*
G36*
X392520Y522234D02*
X391544Y522040D01*
X390717Y521487D01*
X390165Y520660D01*
X389971Y519685D01*
X390165Y518710D01*
X390717Y517883D01*
X390735Y517871D01*
Y511811D01*
X390871Y511128D01*
X391258Y510549D01*
X393227Y508581D01*
X393227Y508581D01*
X393805Y508194D01*
X394488Y508058D01*
X394488Y508058D01*
X398080D01*
X399220Y506918D01*
Y506326D01*
X398724Y506315D01*
X398284D01*
Y506315D01*
X393724D01*
Y506315D01*
X393283D01*
Y506315D01*
X388724D01*
Y506315D01*
X388283D01*
Y506315D01*
X387533D01*
Y507697D01*
X387417Y508282D01*
X387085Y508778D01*
X386737Y509127D01*
X386801Y509449D01*
X386607Y510424D01*
X386054Y511251D01*
X385227Y511804D01*
X384252Y511998D01*
X383277Y511804D01*
X382450Y511251D01*
X381897Y510424D01*
X381703Y509449D01*
X381897Y508473D01*
X382163Y508075D01*
X381774Y507757D01*
X379214Y510317D01*
X378636Y510704D01*
X377953Y510839D01*
X362047D01*
X361604Y511024D01*
X361410Y511999D01*
X360858Y512826D01*
X360031Y513379D01*
X359055Y513573D01*
X358080Y513379D01*
X357253Y512826D01*
X356700Y511999D01*
X356506Y511024D01*
X356700Y510048D01*
X357253Y509221D01*
X358080Y508669D01*
X359055Y508475D01*
X359076Y508479D01*
X359762Y507793D01*
X360341Y507407D01*
X361024Y507271D01*
X361024Y507271D01*
X377214D01*
X377708Y506777D01*
X377516Y506315D01*
X373724D01*
Y506315D01*
X373283D01*
Y506315D01*
X368724D01*
Y497425D01*
X369220D01*
Y469504D01*
X368724D01*
Y466745D01*
X364287D01*
Y467929D01*
X358744D01*
Y461992D01*
X359732D01*
Y448082D01*
X355533Y443883D01*
X355512Y443888D01*
X354536Y443693D01*
X353709Y443141D01*
X353157Y442314D01*
X352963Y441339D01*
X353157Y440363D01*
X353709Y439536D01*
X354536Y438984D01*
X355512Y438790D01*
X356487Y438984D01*
X357314Y439536D01*
X357867Y440363D01*
X358061Y441339D01*
X358056Y441360D01*
X362777Y446081D01*
X362777Y446081D01*
X363164Y446660D01*
X363300Y447342D01*
Y461992D01*
X364287D01*
Y463176D01*
X368724D01*
Y460614D01*
X373224D01*
X373284Y460614D01*
X373724D01*
X373783Y460614D01*
X374475D01*
Y460610D01*
X374591Y460025D01*
X374922Y459529D01*
X379234Y455218D01*
X379730Y454886D01*
X380315Y454770D01*
X391099D01*
X416744Y429124D01*
X416936Y428158D01*
X417489Y427331D01*
X418316Y426779D01*
X419291Y426585D01*
X420267Y426779D01*
X421094Y427331D01*
X421646Y428158D01*
X421840Y429134D01*
X421646Y430109D01*
X421094Y430936D01*
X420267Y431489D01*
X419291Y431683D01*
X418641Y431554D01*
X409764Y440430D01*
X409909Y440908D01*
X410129Y440952D01*
X410956Y441505D01*
X411509Y442332D01*
X411702Y443307D01*
X411509Y444282D01*
X410956Y445110D01*
X410129Y445662D01*
X409154Y445856D01*
X409078Y445841D01*
X407118Y447801D01*
X407364Y448261D01*
X407480Y448238D01*
X408456Y448432D01*
X409283Y448985D01*
X409835Y449812D01*
X410029Y450787D01*
X409835Y451763D01*
X409283Y452590D01*
X408456Y453142D01*
X407480Y453336D01*
X406912Y453223D01*
X406074Y454061D01*
X406239Y454604D01*
X406881Y454732D01*
X407708Y455284D01*
X408260Y456111D01*
X408455Y457087D01*
X408260Y458062D01*
X407708Y458889D01*
X407533Y459006D01*
Y460614D01*
X408284D01*
Y469504D01*
X403724D01*
Y469504D01*
X403283D01*
Y469504D01*
X398724D01*
X398724Y469504D01*
X398283D01*
Y469504D01*
X398224Y469504D01*
X393724D01*
Y460614D01*
X395195D01*
X404705Y451105D01*
X404684Y450942D01*
X404156Y450763D01*
X395570Y459349D01*
X395074Y459681D01*
X394488Y459797D01*
X388823D01*
X388451Y460169D01*
X388283Y460614D01*
X388283D01*
X388283Y460614D01*
Y469504D01*
X383784D01*
X383724Y469504D01*
X383283D01*
X383224Y469504D01*
X378783D01*
X378724Y469504D01*
X378284D01*
X378224Y469504D01*
X373783D01*
X373724Y469504D01*
X373284D01*
X372788Y469658D01*
Y497414D01*
X373284Y497425D01*
X373724D01*
Y497425D01*
X374278D01*
X374356Y497034D01*
X374742Y496455D01*
X376789Y494408D01*
X377368Y494021D01*
X378051Y493885D01*
X378051Y493885D01*
X389764D01*
X390447Y494021D01*
X391025Y494408D01*
X392266Y495648D01*
X392652Y496227D01*
X392788Y496910D01*
Y497414D01*
X393284Y497425D01*
X393720D01*
X394220Y497414D01*
Y496909D01*
X394356Y496227D01*
X394742Y495648D01*
X395982Y494408D01*
X395982Y494408D01*
X396561Y494021D01*
X397244Y493885D01*
X397244Y493885D01*
X409390D01*
X410073Y494021D01*
X410651Y494408D01*
X412266Y496022D01*
X412266Y496022D01*
X412652Y496601D01*
X412788Y497284D01*
X412836Y497298D01*
X413283Y497425D01*
X413720D01*
X414220Y497414D01*
Y469504D01*
X413724D01*
Y460614D01*
X414220D01*
Y457529D01*
X413787Y456881D01*
X413593Y455905D01*
X413787Y454930D01*
X414339Y454103D01*
X415166Y453551D01*
X416142Y453357D01*
X417117Y453551D01*
X417944Y454103D01*
X418497Y454930D01*
X418691Y455905D01*
X418497Y456881D01*
X417944Y457708D01*
X417788Y457812D01*
Y460614D01*
X418284D01*
Y469504D01*
X417788D01*
Y497425D01*
X418284D01*
Y506315D01*
X413724D01*
Y506315D01*
X413283D01*
Y506315D01*
X408783D01*
X408724Y506315D01*
Y506315D01*
X408288D01*
X407788Y506326D01*
Y507135D01*
X411892Y511238D01*
X411892Y511238D01*
X412278Y511817D01*
X412414Y512500D01*
Y517477D01*
X412432Y517489D01*
X412985Y518316D01*
X413179Y519291D01*
X412985Y520267D01*
X412432Y521094D01*
X411605Y521646D01*
X410630Y521840D01*
X409655Y521646D01*
X408827Y521094D01*
X408275Y520267D01*
X408081Y519291D01*
X408275Y518316D01*
X408827Y517489D01*
X408846Y517477D01*
Y513239D01*
X404742Y509136D01*
X404355Y508557D01*
X404220Y507874D01*
Y506326D01*
X403724Y506315D01*
X403288D01*
X402788Y506326D01*
Y507657D01*
X402652Y508340D01*
X402266Y508919D01*
X402266Y508919D01*
X400081Y511104D01*
X399502Y511491D01*
X398819Y511627D01*
X395227D01*
X394304Y512550D01*
Y517871D01*
X394322Y517883D01*
X394875Y518710D01*
X395069Y519685D01*
X394875Y520660D01*
X394322Y521487D01*
X393495Y522040D01*
X392520Y522234D01*
D02*
G37*
G36*
X681890Y482532D02*
X680420Y482388D01*
X679007Y481959D01*
X677705Y481263D01*
X676564Y480326D01*
X675627Y479185D01*
X674931Y477882D01*
X674502Y476470D01*
X674357Y475000D01*
X674502Y473530D01*
X674931Y472118D01*
X675627Y470815D01*
X676564Y469674D01*
X677705Y468737D01*
X679007Y468041D01*
X680420Y467612D01*
X681890Y467468D01*
X683359Y467612D01*
X684772Y468041D01*
X686074Y468737D01*
X687216Y469674D01*
X688153Y470815D01*
X688849Y472118D01*
X689277Y473530D01*
X689422Y475000D01*
X689277Y476470D01*
X688849Y477882D01*
X688153Y479185D01*
X687216Y480326D01*
X686074Y481263D01*
X684772Y481959D01*
X683359Y482388D01*
X681890Y482532D01*
D02*
G37*
G36*
X601181Y472234D02*
X600206Y472040D01*
X599379Y471487D01*
X598826Y470660D01*
X598632Y469685D01*
X598826Y468710D01*
X599379Y467883D01*
X599652Y467700D01*
Y456539D01*
X589076Y445963D01*
X588744Y445467D01*
X588628Y444882D01*
Y438823D01*
X579456Y429650D01*
X579134Y429714D01*
X578158Y429520D01*
X577331Y428968D01*
X577149Y428695D01*
X574016D01*
X573430Y428578D01*
X572934Y428247D01*
X566248Y421561D01*
X565764Y421783D01*
Y426158D01*
X565764D01*
Y426598D01*
X565764D01*
Y431157D01*
X565764D01*
Y431598D01*
X565764D01*
Y432349D01*
X566949D01*
X567534Y432465D01*
X568030Y432796D01*
X570373Y435139D01*
X570704Y435635D01*
X570821Y436221D01*
Y442280D01*
X571893Y443353D01*
X576362D01*
X576544Y443080D01*
X577371Y442527D01*
X578346Y442333D01*
X579322Y442527D01*
X580149Y443080D01*
X580701Y443906D01*
X580895Y444882D01*
X580701Y445857D01*
X580149Y446684D01*
X579322Y447237D01*
X578346Y447431D01*
X577371Y447237D01*
X576544Y446684D01*
X576362Y446411D01*
X571260D01*
X570675Y446295D01*
X570178Y445963D01*
X569314Y445099D01*
X568852Y445290D01*
Y457240D01*
X573074Y461463D01*
X574787D01*
X574969Y461190D01*
X575796Y460637D01*
X576772Y460443D01*
X577747Y460637D01*
X578574Y461190D01*
X579127Y462017D01*
X579321Y462992D01*
X579127Y463968D01*
X578574Y464794D01*
X577747Y465347D01*
X576772Y465541D01*
X575796Y465347D01*
X574969Y464794D01*
X574787Y464522D01*
X572441D01*
X571856Y464405D01*
X571359Y464074D01*
X566241Y458955D01*
X565910Y458459D01*
X565793Y457874D01*
Y451645D01*
X565764Y451158D01*
X556874D01*
Y450662D01*
X528953D01*
Y451158D01*
X526391D01*
Y454906D01*
X527378D01*
Y460843D01*
X526716D01*
Y461922D01*
X531189Y466395D01*
X582788D01*
X591063Y458119D01*
X591149Y457686D01*
X591702Y456859D01*
X592528Y456307D01*
X593504Y456112D01*
X594479Y456307D01*
X595306Y456859D01*
X595859Y457686D01*
X596053Y458661D01*
X595859Y459637D01*
X595306Y460464D01*
X594479Y461016D01*
X594046Y461103D01*
X585153Y469995D01*
X584469Y470453D01*
X583661Y470613D01*
X530315D01*
X529508Y470453D01*
X528823Y469995D01*
X523115Y464287D01*
X522657Y463602D01*
X522497Y462795D01*
Y460843D01*
X521835D01*
Y454906D01*
X522822D01*
Y451158D01*
X520063D01*
Y446658D01*
X520063Y446598D01*
Y446158D01*
X520063Y446098D01*
Y445407D01*
X497815D01*
X497230Y445291D01*
X496734Y444959D01*
X491661Y439887D01*
X491339Y439951D01*
X490363Y439756D01*
X489536Y439204D01*
X488984Y438377D01*
X488790Y437402D01*
X488984Y436426D01*
X489536Y435599D01*
X490363Y435047D01*
X491339Y434853D01*
X492314Y435047D01*
X493141Y435599D01*
X493693Y436426D01*
X493888Y437402D01*
X493823Y437724D01*
X498449Y442349D01*
X520063D01*
Y441657D01*
X520063Y441598D01*
Y441157D01*
X520063Y441098D01*
Y436598D01*
X520063Y436598D01*
Y436158D01*
X520063D01*
X520063Y436098D01*
Y435407D01*
X519311D01*
X518726Y435291D01*
X518230Y434959D01*
X509155Y425885D01*
X508823Y425388D01*
X508707Y424803D01*
Y418127D01*
X508434Y417944D01*
X507881Y417117D01*
X507687Y416142D01*
X507881Y415166D01*
X508434Y414339D01*
X509261Y413787D01*
X510236Y413593D01*
X511212Y413787D01*
X511415Y413923D01*
X511856Y413687D01*
Y411827D01*
X511583Y411645D01*
X511031Y410818D01*
X510837Y409842D01*
X511031Y408867D01*
X511583Y408040D01*
X512410Y407488D01*
X513386Y407294D01*
X514361Y407488D01*
X514900Y407847D01*
X515400Y407580D01*
Y406709D01*
X515127Y406527D01*
X514574Y405700D01*
X514380Y404724D01*
X514574Y403749D01*
X515127Y402922D01*
X515954Y402369D01*
X516929Y402175D01*
X517905Y402369D01*
X518731Y402922D01*
X519284Y403749D01*
X519478Y404724D01*
X519284Y405700D01*
X518731Y406527D01*
X518459Y406709D01*
Y410390D01*
X519783Y411715D01*
X520063Y411598D01*
Y411598D01*
X528953D01*
Y412371D01*
X529424Y412465D01*
X529920Y412796D01*
X531174Y414050D01*
X531496Y413986D01*
X532472Y414181D01*
X533298Y414733D01*
X533851Y415560D01*
X534045Y416535D01*
X533851Y417511D01*
X533298Y418338D01*
X532472Y418890D01*
X531496Y419084D01*
X530521Y418890D01*
X529694Y418338D01*
X529453Y417977D01*
X528953Y418129D01*
Y421098D01*
X528953Y421158D01*
Y421598D01*
X528953Y421658D01*
Y423247D01*
X530387Y424680D01*
X530709Y424616D01*
X531684Y424810D01*
X532511Y425363D01*
X533064Y426190D01*
X533258Y427165D01*
X533064Y428141D01*
X532511Y428968D01*
X531684Y429520D01*
X530709Y429714D01*
X529733Y429520D01*
X528906Y428968D01*
X528354Y428141D01*
X528160Y427165D01*
X528224Y426843D01*
X527538Y426158D01*
X520063D01*
Y425407D01*
X517972D01*
X517387Y425291D01*
X516891Y424959D01*
X512304Y420373D01*
X512266Y420315D01*
X511766Y420466D01*
Y424170D01*
X519563Y431967D01*
X520063Y431760D01*
Y431598D01*
X528953D01*
Y432349D01*
X529153D01*
X529739Y432465D01*
X530235Y432796D01*
X530387Y432948D01*
X530709Y432884D01*
X531684Y433078D01*
X532511Y433631D01*
X533064Y434458D01*
X533258Y435433D01*
X533064Y436409D01*
X532511Y437235D01*
X531684Y437788D01*
X530709Y437982D01*
X529733Y437788D01*
X529394Y437561D01*
X528953Y437797D01*
Y441098D01*
X528953Y441157D01*
Y441598D01*
X528953Y441657D01*
Y446098D01*
X528953Y446158D01*
Y446598D01*
X529107Y447094D01*
X556862D01*
X556874Y446598D01*
Y446158D01*
X556874D01*
Y445585D01*
X556581Y445526D01*
X556002Y445140D01*
X552675Y441813D01*
X552289Y441234D01*
X552153Y440551D01*
Y431496D01*
X552289Y430813D01*
X552675Y430234D01*
X555293Y427616D01*
X555293Y427616D01*
X555872Y427229D01*
X556555Y427094D01*
X556641Y427002D01*
X556874Y426598D01*
Y426158D01*
X556874D01*
Y425569D01*
X556660Y425526D01*
X556081Y425140D01*
X553069Y422128D01*
X552682Y421549D01*
X552546Y420866D01*
Y411417D01*
X552682Y410735D01*
X553069Y410156D01*
X555608Y407616D01*
X556187Y407230D01*
X556870Y407094D01*
X556874Y406598D01*
Y406162D01*
X556862Y405662D01*
X528953D01*
Y406157D01*
X520063D01*
Y401598D01*
X528953D01*
Y402094D01*
X556874D01*
Y401598D01*
X565764D01*
Y406157D01*
X565764D01*
Y406598D01*
X565764D01*
Y411098D01*
X565764Y411158D01*
Y411598D01*
X565764Y411657D01*
Y412349D01*
X569485D01*
X570656Y411177D01*
Y409603D01*
X570383Y409420D01*
X569830Y408594D01*
X569636Y407618D01*
X569830Y406643D01*
X570383Y405816D01*
X571210Y405263D01*
X572185Y405069D01*
X573161Y405263D01*
X573987Y405816D01*
X574540Y406643D01*
X574734Y407618D01*
X574540Y408594D01*
X573987Y409420D01*
X573714Y409603D01*
Y411811D01*
X573598Y412396D01*
X573267Y412892D01*
X571200Y414959D01*
X570703Y415291D01*
X570118Y415407D01*
X565764D01*
Y416098D01*
X565764Y416157D01*
Y416598D01*
X565764Y416657D01*
Y417356D01*
X566314Y417465D01*
X566810Y417797D01*
X574649Y425636D01*
X577149D01*
X577331Y425363D01*
X578158Y424810D01*
X579134Y424616D01*
X580109Y424810D01*
X580936Y425363D01*
X581489Y426190D01*
X581683Y427165D01*
X581619Y427487D01*
X591239Y437108D01*
X591570Y437604D01*
X591687Y438189D01*
Y444248D01*
X602262Y454824D01*
X602594Y455320D01*
X602710Y455905D01*
Y467700D01*
X602984Y467883D01*
X603536Y468710D01*
X603730Y469685D01*
X603536Y470660D01*
X602984Y471487D01*
X602156Y472040D01*
X601181Y472234D01*
D02*
G37*
G36*
X394094Y556092D02*
X393119Y555898D01*
X392292Y555346D01*
X391740Y554519D01*
X391546Y553543D01*
X391740Y552568D01*
X392292Y551741D01*
X393119Y551188D01*
X394094Y550994D01*
X395070Y551188D01*
X395897Y551741D01*
X396079Y552014D01*
X409996D01*
X455163Y506847D01*
Y411532D01*
X454890Y411350D01*
X454338Y410523D01*
X454144Y409547D01*
X454338Y408572D01*
X454890Y407745D01*
X455718Y407192D01*
X456693Y406998D01*
X457668Y407192D01*
X458495Y407745D01*
X459048Y408572D01*
X459242Y409547D01*
X459048Y410523D01*
X458495Y411350D01*
X458222Y411532D01*
Y507480D01*
X458106Y508066D01*
X457774Y508562D01*
X411711Y554625D01*
X411215Y554956D01*
X410630Y555073D01*
X396079D01*
X395897Y555346D01*
X395070Y555898D01*
X394094Y556092D01*
D02*
G37*
G36*
X395587Y416945D02*
X390437D01*
Y411402D01*
X391581D01*
Y410646D01*
X391308Y410464D01*
X390755Y409637D01*
X390561Y408661D01*
X390755Y407686D01*
X391308Y406859D01*
X392135Y406307D01*
X393110Y406112D01*
X394086Y406307D01*
X394913Y406859D01*
X395465Y407686D01*
X395659Y408661D01*
X395465Y409637D01*
X394913Y410464D01*
X394640Y410646D01*
Y411402D01*
X395587D01*
Y416945D01*
D02*
G37*
G36*
X388106D02*
X382957D01*
Y411402D01*
X383904D01*
Y410646D01*
X383631Y410464D01*
X383078Y409637D01*
X382884Y408661D01*
X383078Y407686D01*
X383631Y406859D01*
X384458Y406307D01*
X385433Y406112D01*
X386408Y406307D01*
X387235Y406859D01*
X387788Y407686D01*
X387982Y408661D01*
X387788Y409637D01*
X387235Y410464D01*
X386963Y410646D01*
Y411402D01*
X388106D01*
Y416945D01*
D02*
G37*
G36*
X677953Y417510D02*
X676977Y417316D01*
X676150Y416763D01*
X675598Y415936D01*
X675404Y414961D01*
X675598Y413985D01*
X676150Y413158D01*
X676977Y412606D01*
X677953Y412412D01*
X677967Y412415D01*
X688792Y401589D01*
X688790Y401575D01*
X688984Y400599D01*
X689536Y399772D01*
X690363Y399220D01*
X691339Y399026D01*
X692314Y399220D01*
X693141Y399772D01*
X693693Y400599D01*
X693888Y401575D01*
X693693Y402550D01*
X693141Y403377D01*
X692314Y403930D01*
X691339Y404124D01*
X691324Y404121D01*
X680499Y414946D01*
X680502Y414961D01*
X680308Y415936D01*
X679755Y416763D01*
X678928Y417316D01*
X677953Y417510D01*
D02*
G37*
G36*
X488091Y403238D02*
X487115Y403044D01*
X486288Y402491D01*
X485736Y401664D01*
X485542Y400689D01*
X485736Y399713D01*
X486288Y398887D01*
X487115Y398334D01*
X488091Y398140D01*
X489066Y398334D01*
X489893Y398887D01*
X490446Y399713D01*
X490639Y400689D01*
X490446Y401664D01*
X489893Y402491D01*
X489066Y403044D01*
X488091Y403238D01*
D02*
G37*
G36*
X381020Y412319D02*
X375083D01*
Y408742D01*
X371359Y405018D01*
X371028Y404522D01*
X370912Y403937D01*
Y398425D01*
X371028Y397840D01*
X371359Y397344D01*
X374115Y394588D01*
X374612Y394256D01*
X375197Y394140D01*
X376244D01*
X376426Y393867D01*
X377253Y393314D01*
X378229Y393120D01*
X379204Y393314D01*
X380031Y393867D01*
X380214Y394140D01*
X390141D01*
X390324Y393867D01*
X391150Y393314D01*
X392126Y393120D01*
X393101Y393314D01*
X393928Y393867D01*
X394481Y394694D01*
X394675Y395669D01*
X394481Y396645D01*
X393928Y397472D01*
X393101Y398024D01*
X392126Y398218D01*
X391150Y398024D01*
X390324Y397472D01*
X390141Y397199D01*
X380214D01*
X380031Y397472D01*
X379204Y398024D01*
X378229Y398218D01*
X377253Y398024D01*
X376426Y397472D01*
X376297Y397278D01*
X375782Y397247D01*
X373970Y399059D01*
Y403303D01*
X377442Y406776D01*
X381020D01*
Y412319D01*
D02*
G37*
G36*
X432283Y374596D02*
X431308Y374402D01*
X430481Y373850D01*
X429928Y373023D01*
X429735Y372047D01*
X429842Y371506D01*
X429392Y371206D01*
X429322Y371253D01*
X428346Y371447D01*
X427371Y371253D01*
X426544Y370700D01*
X425991Y369873D01*
X425798Y368898D01*
X425991Y367922D01*
X426544Y367095D01*
X426817Y366913D01*
Y364190D01*
X426544Y364007D01*
X425991Y363180D01*
X425798Y362205D01*
X425991Y361229D01*
X426544Y360402D01*
X427371Y359850D01*
X428346Y359656D01*
X429322Y359850D01*
X430149Y360402D01*
X430539Y360986D01*
X431128Y361005D01*
X431268Y360795D01*
X432094Y360243D01*
X433070Y360049D01*
X434045Y360243D01*
X434872Y360795D01*
X435425Y361622D01*
X435619Y362598D01*
X435425Y363573D01*
X434872Y364400D01*
X434045Y364953D01*
X433813Y364999D01*
Y370062D01*
X434086Y370245D01*
X434638Y371072D01*
X434832Y372047D01*
X434638Y373023D01*
X434086Y373850D01*
X433259Y374402D01*
X432283Y374596D01*
D02*
G37*
G36*
X453346Y350384D02*
X452371Y350190D01*
X451544Y349637D01*
X450991Y348810D01*
X450799Y347844D01*
X446950Y343995D01*
X446619Y343499D01*
X446502Y342913D01*
Y325607D01*
X446229Y325424D01*
X445677Y324598D01*
X445482Y323622D01*
X445677Y322647D01*
X446229Y321820D01*
X447056Y321267D01*
X448032Y321073D01*
X449007Y321267D01*
X449406Y321533D01*
X449961Y321303D01*
X450007Y321072D01*
X450560Y320245D01*
X450717Y320140D01*
X450566Y319640D01*
X447090D01*
X443655Y323074D01*
Y327839D01*
X444996D01*
Y332957D01*
Y338303D01*
X443916D01*
Y339922D01*
X443928Y339930D01*
X444481Y340757D01*
X444675Y341732D01*
X444481Y342708D01*
X443928Y343535D01*
X443101Y344087D01*
X442126Y344281D01*
X441151Y344087D01*
X440324Y343535D01*
X440315Y343523D01*
X433858D01*
X433173Y343386D01*
X432592Y342998D01*
X428262Y338667D01*
X427874Y338087D01*
X427737Y337402D01*
Y306141D01*
X427725Y306133D01*
X427173Y305306D01*
X426979Y304331D01*
X427173Y303355D01*
X427725Y302528D01*
X428552Y301976D01*
X429528Y301782D01*
X430503Y301976D01*
X431330Y302528D01*
X431882Y303355D01*
X432077Y304331D01*
X431882Y305306D01*
X431330Y306133D01*
X431318Y306141D01*
Y336660D01*
X434600Y339942D01*
X440315D01*
X440324Y339930D01*
X440336Y339922D01*
Y338303D01*
X439256D01*
Y332296D01*
X438153D01*
X438141Y332314D01*
X437314Y332867D01*
X436339Y333061D01*
X435363Y332867D01*
X434536Y332314D01*
X433984Y331487D01*
X433790Y330512D01*
X433984Y329536D01*
X434536Y328709D01*
X435363Y328157D01*
X436339Y327963D01*
X437314Y328157D01*
X438141Y328709D01*
X438153Y328728D01*
X439256D01*
Y327839D01*
X440597D01*
Y322441D01*
X440713Y321856D01*
X441045Y321359D01*
X445375Y317029D01*
X445871Y316697D01*
X446457Y316581D01*
X457087D01*
X457672Y316697D01*
X458168Y317029D01*
X459743Y318604D01*
X460074Y319100D01*
X460191Y319685D01*
Y326755D01*
X460464Y326938D01*
X461016Y327765D01*
X461210Y328740D01*
X461016Y329716D01*
X460464Y330543D01*
X459637Y331095D01*
X458661Y331289D01*
X457686Y331095D01*
X456859Y330543D01*
X456307Y329716D01*
X456112Y328740D01*
X456307Y327765D01*
X456859Y326938D01*
X457132Y326755D01*
Y320319D01*
X456453Y319640D01*
X454159D01*
X454007Y320140D01*
X454165Y320245D01*
X454717Y321072D01*
X454911Y322047D01*
X454717Y323023D01*
X454165Y323850D01*
X453892Y324032D01*
Y339343D01*
X453937Y339380D01*
X454913Y339574D01*
X455739Y340127D01*
X456292Y340954D01*
X456486Y341929D01*
X456292Y342905D01*
X455739Y343731D01*
X454913Y344284D01*
X453937Y344478D01*
X452962Y344284D01*
X452135Y343731D01*
X451582Y342905D01*
X451388Y341929D01*
X451452Y341607D01*
X451281Y341436D01*
X450949Y340940D01*
X450833Y340354D01*
Y324761D01*
X450691Y324709D01*
X450333Y324678D01*
X449834Y325424D01*
X449561Y325607D01*
Y342280D01*
X452696Y345415D01*
X453346Y345286D01*
X454322Y345480D01*
X455149Y346032D01*
X455701Y346859D01*
X455895Y347835D01*
X455701Y348810D01*
X455149Y349637D01*
X454322Y350190D01*
X453346Y350384D01*
D02*
G37*
G36*
X681890Y354580D02*
X680420Y354435D01*
X679007Y354006D01*
X677705Y353310D01*
X676564Y352373D01*
X675627Y351232D01*
X674931Y349930D01*
X674502Y348517D01*
X674357Y347047D01*
X674502Y345578D01*
X674931Y344165D01*
X675627Y342863D01*
X676564Y341721D01*
X677705Y340784D01*
X679007Y340088D01*
X680420Y339660D01*
X681890Y339515D01*
X683359Y339660D01*
X684772Y340088D01*
X686074Y340784D01*
X687216Y341721D01*
X688153Y342863D01*
X688849Y344165D01*
X689277Y345578D01*
X689422Y347047D01*
X689277Y348517D01*
X688849Y349930D01*
X688153Y351232D01*
X687216Y352373D01*
X686074Y353310D01*
X684772Y354006D01*
X683359Y354435D01*
X681890Y354580D01*
D02*
G37*
G36*
X420079Y330967D02*
X419304Y330865D01*
X418582Y330565D01*
X417962Y330090D01*
X417486Y329469D01*
X417187Y328747D01*
X417085Y327972D01*
X417187Y327198D01*
X417486Y326475D01*
X417962Y325855D01*
X418582Y325379D01*
X419304Y325080D01*
X420079Y324978D01*
X420854Y325080D01*
X421576Y325379D01*
X422196Y325855D01*
X422672Y326475D01*
X422971Y327198D01*
X423073Y327972D01*
X422971Y328747D01*
X422672Y329469D01*
X422196Y330090D01*
X421576Y330565D01*
X420854Y330865D01*
X420079Y330967D01*
D02*
G37*
G36*
Y315967D02*
X419304Y315864D01*
X418582Y315565D01*
X417962Y315090D01*
X417486Y314470D01*
X417187Y313747D01*
X417085Y312972D01*
X417187Y312197D01*
X417486Y311475D01*
X417962Y310855D01*
X418582Y310380D01*
X419304Y310080D01*
X420079Y309978D01*
X420854Y310080D01*
X421576Y310380D01*
X422196Y310855D01*
X422672Y311475D01*
X422971Y312197D01*
X423073Y312972D01*
X422971Y313747D01*
X422672Y314470D01*
X422196Y315090D01*
X421576Y315565D01*
X420854Y315864D01*
X420079Y315967D01*
D02*
G37*
G36*
X381890Y297431D02*
X380914Y297237D01*
X380087Y296684D01*
X379535Y295857D01*
X379440Y295383D01*
X375477Y291420D01*
X374940Y291590D01*
X374796Y292314D01*
X374243Y293141D01*
X373416Y293693D01*
X372441Y293888D01*
X371465Y293693D01*
X370638Y293141D01*
X370086Y292314D01*
X369892Y291339D01*
X369956Y291017D01*
X366516Y287577D01*
X366185Y287081D01*
X366068Y286495D01*
Y281351D01*
X366185Y280766D01*
X366516Y280270D01*
X367278Y279508D01*
X367774Y279177D01*
X367898Y279152D01*
Y278921D01*
X373441D01*
Y280951D01*
X379413D01*
Y279315D01*
X386728D01*
Y285842D01*
X384797D01*
Y286598D01*
X385070Y286780D01*
X385623Y287607D01*
X385817Y288583D01*
X385623Y289558D01*
X385070Y290385D01*
X384243Y290938D01*
X383268Y291132D01*
X382292Y290938D01*
X381465Y290385D01*
X380913Y289558D01*
X380719Y288583D01*
X380913Y287607D01*
X381465Y286780D01*
X381738Y286598D01*
Y285842D01*
X379413D01*
Y284010D01*
X373441D01*
Y285058D01*
X380912Y292529D01*
X380914Y292527D01*
X381890Y292333D01*
X382865Y292527D01*
X383692Y293079D01*
X384245Y293906D01*
X384439Y294882D01*
X384245Y295857D01*
X383692Y296684D01*
X382865Y297237D01*
X381890Y297431D01*
D02*
G37*
G36*
X656299Y288448D02*
X654908Y288264D01*
X653611Y287727D01*
X652497Y286873D01*
X651643Y285759D01*
X651106Y284462D01*
X650922Y283071D01*
X651106Y281679D01*
X651643Y280382D01*
X652497Y279269D01*
X653611Y278415D01*
X654908Y277877D01*
X656299Y277694D01*
X657691Y277877D01*
X658988Y278415D01*
X660101Y279269D01*
X660956Y280382D01*
X661493Y281679D01*
X661676Y283071D01*
X661493Y284462D01*
X660956Y285759D01*
X660101Y286873D01*
X658988Y287727D01*
X657691Y288264D01*
X656299Y288448D01*
D02*
G37*
G36*
Y276835D02*
X654856Y276645D01*
X653512Y276088D01*
X652357Y275202D01*
X651471Y274047D01*
X650914Y272703D01*
X650724Y271260D01*
Y269314D01*
X650468Y269228D01*
X650224Y269183D01*
X649145Y270011D01*
X647848Y270548D01*
X646457Y270731D01*
X645065Y270548D01*
X643768Y270011D01*
X642655Y269156D01*
X641800Y268043D01*
X641263Y266746D01*
X641080Y265354D01*
X641263Y263963D01*
X641800Y262666D01*
X642655Y261552D01*
X643768Y260698D01*
X645065Y260161D01*
X646457Y259978D01*
X647848Y260161D01*
X649145Y260698D01*
X650224Y261526D01*
X650468Y261481D01*
X650724Y261395D01*
Y259449D01*
X650914Y258006D01*
X651471Y256661D01*
X652357Y255506D01*
X653512Y254621D01*
X654856Y254064D01*
X656299Y253874D01*
X657742Y254064D01*
X659087Y254621D01*
X660242Y255506D01*
X661128Y256661D01*
X661685Y258006D01*
X661874Y259449D01*
Y271260D01*
X661685Y272703D01*
X661128Y274047D01*
X660242Y275202D01*
X659087Y276088D01*
X657742Y276645D01*
X656299Y276835D01*
D02*
G37*
G36*
X435843Y263598D02*
X430299D01*
Y258449D01*
X435843D01*
Y259494D01*
X436335D01*
X436780Y258827D01*
X437607Y258275D01*
X438583Y258081D01*
X439558Y258275D01*
X440385Y258827D01*
X440938Y259654D01*
X441132Y260630D01*
X440938Y261605D01*
X440385Y262432D01*
X439558Y262985D01*
X438583Y263179D01*
X437607Y262985D01*
X436961Y262553D01*
X435843D01*
Y263598D01*
D02*
G37*
G36*
Y256118D02*
X430299D01*
Y250969D01*
X435843D01*
Y252014D01*
X436598D01*
X436780Y251741D01*
X437607Y251188D01*
X438583Y250994D01*
X439558Y251188D01*
X440385Y251741D01*
X440938Y252568D01*
X441132Y253543D01*
X440938Y254519D01*
X440385Y255346D01*
X439558Y255898D01*
X438583Y256092D01*
X437607Y255898D01*
X436780Y255346D01*
X436598Y255073D01*
X435843D01*
Y256118D01*
D02*
G37*
G36*
X646457Y258920D02*
X645065Y258737D01*
X643768Y258200D01*
X642655Y257345D01*
X641800Y256232D01*
X641263Y254935D01*
X641080Y253543D01*
X641263Y252152D01*
X641800Y250855D01*
X642655Y249741D01*
X643768Y248887D01*
X645065Y248350D01*
X646457Y248167D01*
X647848Y248350D01*
X649145Y248887D01*
X650259Y249741D01*
X651113Y250855D01*
X651650Y252152D01*
X651833Y253543D01*
X651650Y254935D01*
X651113Y256232D01*
X650259Y257345D01*
X649145Y258200D01*
X647848Y258737D01*
X646457Y258920D01*
D02*
G37*
G36*
X634646D02*
X633254Y258737D01*
X631957Y258200D01*
X630844Y257345D01*
X629989Y256232D01*
X629452Y254935D01*
X629269Y253543D01*
X629452Y252152D01*
X629989Y250855D01*
X630844Y249741D01*
X631957Y248887D01*
X633254Y248350D01*
X634646Y248167D01*
X636037Y248350D01*
X637334Y248887D01*
X638448Y249741D01*
X639302Y250855D01*
X639839Y252152D01*
X640022Y253543D01*
X639839Y254935D01*
X639302Y256232D01*
X638448Y257345D01*
X637334Y258200D01*
X636037Y258737D01*
X634646Y258920D01*
D02*
G37*
G36*
Y247109D02*
X633254Y246926D01*
X631957Y246389D01*
X630844Y245534D01*
X629989Y244421D01*
X629452Y243124D01*
X629269Y241732D01*
X629452Y240341D01*
X629989Y239044D01*
X630844Y237930D01*
X631957Y237076D01*
X633254Y236539D01*
X634646Y236356D01*
X636037Y236539D01*
X637334Y237076D01*
X638448Y237930D01*
X639302Y239044D01*
X639839Y240341D01*
X640022Y241732D01*
X639839Y243124D01*
X639302Y244421D01*
X638448Y245534D01*
X637334Y246389D01*
X636037Y246926D01*
X634646Y247109D01*
D02*
G37*
G36*
X534390Y242706D02*
X533414Y242512D01*
X532587Y241960D01*
X532035Y241133D01*
X531841Y240158D01*
X532035Y239182D01*
X532587Y238355D01*
X532860Y238173D01*
Y237221D01*
X532110D01*
Y228331D01*
X532448D01*
Y218744D01*
X532430Y218731D01*
X531877Y217905D01*
X531683Y216929D01*
X531877Y215954D01*
X532430Y215127D01*
X533257Y214574D01*
X534232Y214380D01*
X535208Y214574D01*
X536035Y215127D01*
X536587Y215954D01*
X536781Y216929D01*
X536587Y217905D01*
X536035Y218731D01*
X536017Y218744D01*
Y228331D01*
X536610D01*
X536669Y228331D01*
X537110D01*
X537169Y228331D01*
X541610D01*
X541669Y228331D01*
X542110D01*
X542448Y227946D01*
Y214019D01*
X542430Y214007D01*
X541877Y213180D01*
X541683Y212205D01*
X541877Y211229D01*
X542430Y210402D01*
X543257Y209850D01*
X544232Y209656D01*
X545208Y209850D01*
X546035Y210402D01*
X546587Y211229D01*
X546781Y212205D01*
X546587Y213180D01*
X546035Y214007D01*
X546017Y214019D01*
Y228331D01*
X546669D01*
Y237221D01*
X546219D01*
X546067Y237720D01*
X546192Y237804D01*
X546745Y238631D01*
X546939Y239606D01*
X546745Y240582D01*
X546192Y241409D01*
X545365Y241961D01*
X544390Y242155D01*
X543414Y241961D01*
X542587Y241409D01*
X542035Y240582D01*
X541841Y239606D01*
X542035Y238631D01*
X542587Y237804D01*
X542712Y237720D01*
X542560Y237221D01*
X542169D01*
X542110Y237221D01*
X541669D01*
X541610Y237221D01*
X537169D01*
X537110Y237221D01*
X536669D01*
X536610Y237221D01*
X535919D01*
Y238173D01*
X536192Y238355D01*
X536745Y239182D01*
X536939Y240158D01*
X536745Y241133D01*
X536192Y241960D01*
X535365Y242512D01*
X534390Y242706D01*
D02*
G37*
G36*
X461476Y194340D02*
X460496Y194210D01*
X459582Y193832D01*
X458798Y193230D01*
X458196Y192445D01*
X457817Y191532D01*
X457688Y190551D01*
X457817Y189571D01*
X458196Y188657D01*
X458798Y187873D01*
X459582Y187270D01*
X460496Y186892D01*
X461476Y186763D01*
X462457Y186892D01*
X463371Y187270D01*
X464155Y187873D01*
X464757Y188657D01*
X465136Y189571D01*
X465265Y190551D01*
X465136Y191532D01*
X464757Y192445D01*
X464155Y193230D01*
X463371Y193832D01*
X462457Y194210D01*
X461476Y194340D01*
D02*
G37*
G36*
X451476D02*
X450496Y194210D01*
X449582Y193832D01*
X448798Y193230D01*
X448196Y192445D01*
X447817Y191532D01*
X447688Y190551D01*
X447782Y189840D01*
X443558Y185616D01*
X443012Y185688D01*
X441723Y185519D01*
X440522Y185021D01*
X439491Y184230D01*
X438699Y183198D01*
X438202Y181998D01*
X438032Y180709D01*
X438202Y179420D01*
X438699Y178219D01*
X439491Y177188D01*
X440522Y176396D01*
X440902Y176239D01*
Y171949D01*
X441063Y171142D01*
X441520Y170457D01*
X445359Y166619D01*
X446043Y166161D01*
X446736Y166024D01*
Y164256D01*
X454051D01*
Y171965D01*
X446736D01*
Y171861D01*
X446274Y171669D01*
X445121Y172823D01*
Y176239D01*
X445502Y176396D01*
X446533Y177188D01*
X447324Y178219D01*
X447822Y179420D01*
X447991Y180709D01*
X447822Y181998D01*
X447324Y183198D01*
X447230Y183321D01*
X450765Y186856D01*
X451476Y186763D01*
X452457Y186892D01*
X453371Y187270D01*
X454155Y187873D01*
X454757Y188657D01*
X455136Y189571D01*
X455265Y190551D01*
X455136Y191532D01*
X454757Y192445D01*
X454155Y193230D01*
X453371Y193832D01*
X452457Y194210D01*
X451476Y194340D01*
D02*
G37*
G36*
X422757Y198566D02*
X404724D01*
X403917Y198406D01*
X403233Y197948D01*
X399569Y194285D01*
X399153Y194340D01*
X398173Y194210D01*
X397259Y193832D01*
X396475Y193230D01*
X395873Y192445D01*
X395494Y191532D01*
X395365Y190551D01*
X395494Y189571D01*
X395873Y188657D01*
X396475Y187873D01*
X397259Y187270D01*
X398173Y186892D01*
X399153Y186763D01*
X400134Y186892D01*
X401048Y187270D01*
X401832Y187873D01*
X402434Y188657D01*
X402813Y189571D01*
X402942Y190551D01*
X402813Y191532D01*
X402804Y191553D01*
X405598Y194347D01*
X407197D01*
X407296Y193847D01*
X407259Y193832D01*
X406475Y193230D01*
X405873Y192445D01*
X405494Y191532D01*
X405365Y190551D01*
X405494Y189571D01*
X405751Y188951D01*
X402161Y185361D01*
X401781Y185519D01*
X400492Y185688D01*
X399203Y185519D01*
X398002Y185021D01*
X396971Y184230D01*
X396180Y183198D01*
X395682Y181998D01*
X395513Y180709D01*
X395682Y179420D01*
X396180Y178219D01*
X396971Y177188D01*
X398002Y176396D01*
X398383Y176239D01*
Y175295D01*
X398543Y174488D01*
X399001Y173804D01*
X404020Y168784D01*
Y164256D01*
X411335D01*
Y171965D01*
X406806D01*
X402935Y175836D01*
X402975Y176309D01*
X403038Y176439D01*
X404013Y177188D01*
X404805Y178219D01*
X405302Y179420D01*
X405472Y180709D01*
X405302Y181998D01*
X405145Y182378D01*
X409586Y186820D01*
X410134Y186892D01*
X411048Y187270D01*
X411832Y187873D01*
X412434Y188657D01*
X412813Y189571D01*
X412942Y190551D01*
X412813Y191532D01*
X412434Y192445D01*
X411832Y193230D01*
X411048Y193832D01*
X411011Y193847D01*
X411110Y194347D01*
X417197D01*
X417296Y193847D01*
X417259Y193832D01*
X416475Y193230D01*
X415873Y192445D01*
X415494Y191532D01*
X415365Y190551D01*
X415494Y189571D01*
X415873Y188657D01*
X416475Y187873D01*
X417259Y187270D01*
X418173Y186892D01*
X419153Y186763D01*
X420134Y186892D01*
X421048Y187270D01*
X421832Y187873D01*
X422434Y188657D01*
X422813Y189571D01*
X422942Y190551D01*
X422813Y191532D01*
X422434Y192445D01*
X421832Y193230D01*
X421048Y193832D01*
X421011Y193847D01*
X421110Y194347D01*
X421884D01*
X427171Y189060D01*
X427856Y188602D01*
X428663Y188442D01*
X438361D01*
X438798Y187873D01*
X439582Y187270D01*
X440496Y186892D01*
X441476Y186763D01*
X442457Y186892D01*
X443370Y187270D01*
X444155Y187873D01*
X444757Y188657D01*
X445136Y189571D01*
X445265Y190551D01*
X445136Y191532D01*
X444757Y192445D01*
X444155Y193230D01*
X443370Y193832D01*
X442457Y194210D01*
X441476Y194340D01*
X440496Y194210D01*
X439582Y193832D01*
X438798Y193230D01*
X438361Y192661D01*
X429537D01*
X424249Y197948D01*
X423565Y198406D01*
X422757Y198566D01*
D02*
G37*
G36*
X503996Y193946D02*
X503016Y193817D01*
X502102Y193438D01*
X501317Y192836D01*
X500715Y192052D01*
X500337Y191138D01*
X500208Y190157D01*
X500337Y189177D01*
X500715Y188263D01*
X501317Y187479D01*
X502102Y186877D01*
X503016Y186498D01*
X503996Y186369D01*
X504977Y186498D01*
X505890Y186877D01*
X506675Y187479D01*
X507277Y188263D01*
X507655Y189177D01*
X507784Y190157D01*
X507655Y191138D01*
X507277Y192052D01*
X506675Y192836D01*
X505890Y193438D01*
X504977Y193817D01*
X503996Y193946D01*
D02*
G37*
G36*
X376043D02*
X375063Y193817D01*
X374149Y193438D01*
X373365Y192836D01*
X372762Y192052D01*
X372384Y191138D01*
X372255Y190157D01*
X372384Y189177D01*
X372762Y188263D01*
X373365Y187479D01*
X374149Y186877D01*
X375063Y186498D01*
X376043Y186369D01*
X377024Y186498D01*
X377938Y186877D01*
X378722Y187479D01*
X379324Y188263D01*
X379702Y189177D01*
X379832Y190157D01*
X379702Y191138D01*
X379324Y192052D01*
X378722Y192836D01*
X377938Y193438D01*
X377024Y193817D01*
X376043Y193946D01*
D02*
G37*
G36*
X356043D02*
X355063Y193817D01*
X354149Y193438D01*
X353365Y192836D01*
X352763Y192052D01*
X352384Y191138D01*
X352255Y190157D01*
X352384Y189177D01*
X352763Y188263D01*
X353365Y187479D01*
X354149Y186877D01*
X355063Y186498D01*
X356043Y186369D01*
X357024Y186498D01*
X357938Y186877D01*
X358722Y187479D01*
X359324Y188263D01*
X359702Y189177D01*
X359832Y190157D01*
X359702Y191138D01*
X359324Y192052D01*
X358722Y192836D01*
X357938Y193438D01*
X357024Y193817D01*
X356043Y193946D01*
D02*
G37*
G36*
X493996D02*
X493016Y193817D01*
X492102Y193438D01*
X491317Y192836D01*
X490715Y192052D01*
X490337Y191138D01*
X490208Y190157D01*
X490337Y189177D01*
X490651Y188418D01*
X487201Y184967D01*
X486820Y185125D01*
X485532Y185295D01*
X484243Y185125D01*
X483042Y184627D01*
X482010Y183836D01*
X481219Y182805D01*
X480722Y181604D01*
X480552Y180315D01*
X480722Y179026D01*
X481219Y177825D01*
X482010Y176794D01*
X483042Y176003D01*
X483422Y175845D01*
Y175492D01*
X483583Y174685D01*
X484040Y174001D01*
X489650Y168391D01*
Y163862D01*
X496965D01*
Y171571D01*
X492436D01*
X488368Y175638D01*
X488412Y176302D01*
X489053Y176794D01*
X489844Y177825D01*
X490341Y179026D01*
X490511Y180315D01*
X490341Y181604D01*
X490184Y181984D01*
X494656Y186456D01*
X494977Y186498D01*
X495890Y186877D01*
X496675Y187479D01*
X497277Y188263D01*
X497655Y189177D01*
X497784Y190157D01*
X497655Y191138D01*
X497277Y192052D01*
X496675Y192836D01*
X495890Y193438D01*
X494977Y193817D01*
X493996Y193946D01*
D02*
G37*
G36*
X366043D02*
X365063Y193817D01*
X364149Y193438D01*
X363365Y192836D01*
X362762Y192052D01*
X362384Y191138D01*
X362255Y190157D01*
X362384Y189177D01*
X362699Y188418D01*
X359248Y184967D01*
X358868Y185125D01*
X357579Y185295D01*
X356290Y185125D01*
X355089Y184627D01*
X354058Y183836D01*
X353266Y182805D01*
X352769Y181604D01*
X352599Y180315D01*
X352769Y179026D01*
X353266Y177825D01*
X354058Y176794D01*
X355089Y176003D01*
X355469Y175845D01*
Y174705D01*
X355630Y173898D01*
X356087Y173213D01*
X360910Y168391D01*
Y163862D01*
X368224D01*
Y171571D01*
X363696D01*
X359882Y175384D01*
X359970Y175962D01*
X360069Y176003D01*
X361100Y176794D01*
X361891Y177825D01*
X362389Y179026D01*
X362558Y180315D01*
X362389Y181604D01*
X362231Y181984D01*
X366703Y186456D01*
X367024Y186498D01*
X367937Y186877D01*
X368722Y187479D01*
X369324Y188263D01*
X369703Y189177D01*
X369832Y190157D01*
X369703Y191138D01*
X369324Y192052D01*
X368722Y192836D01*
X367937Y193438D01*
X367024Y193817D01*
X366043Y193946D01*
D02*
G37*
G36*
X357579Y127210D02*
X356418Y127095D01*
X355302Y126757D01*
X354273Y126207D01*
X353372Y125467D01*
X352632Y124565D01*
X352082Y123537D01*
X351743Y122421D01*
X351629Y121260D01*
X351743Y120099D01*
X352082Y118983D01*
X352632Y117954D01*
X353372Y117053D01*
X354273Y116313D01*
X355302Y115763D01*
X356418Y115424D01*
X357579Y115310D01*
X358739Y115424D01*
X359856Y115763D01*
X360884Y116313D01*
X361786Y117053D01*
X362526Y117954D01*
X363076Y118983D01*
X363414Y120099D01*
X363529Y121260D01*
X363414Y122421D01*
X363076Y123537D01*
X362526Y124565D01*
X361786Y125467D01*
X360884Y126207D01*
X359856Y126757D01*
X358739Y127095D01*
X357579Y127210D01*
D02*
G37*
G36*
X316142Y178533D02*
X315166Y178339D01*
X314339Y177787D01*
X313787Y176960D01*
X313593Y175984D01*
X313787Y175009D01*
X314339Y174182D01*
X315035Y173717D01*
X356384Y132368D01*
X357067Y131911D01*
X357874Y131751D01*
X402670D01*
X412066Y122355D01*
Y95949D01*
X412226Y95142D01*
X412683Y94459D01*
X415452Y91690D01*
X415170Y91010D01*
X414980Y89567D01*
X415170Y88124D01*
X415727Y86779D01*
X416613Y85625D01*
X417767Y84739D01*
X419112Y84182D01*
X420555Y83992D01*
X421998Y84182D01*
X423343Y84739D01*
X424497Y85625D01*
X425383Y86779D01*
X425940Y88124D01*
X426130Y89567D01*
X425940Y91010D01*
X425383Y92355D01*
X424497Y93509D01*
X423343Y94395D01*
X421998Y94952D01*
X420555Y95142D01*
X419112Y94952D01*
X418432Y94670D01*
X416281Y96822D01*
Y123228D01*
X416120Y124035D01*
X415663Y124718D01*
X405033Y135348D01*
X404350Y135805D01*
X403543Y135966D01*
X358747D01*
X318681Y176031D01*
X318497Y176960D01*
X317944Y177787D01*
X317117Y178339D01*
X316142Y178533D01*
D02*
G37*
G36*
X459925Y65615D02*
X458482Y65425D01*
X457138Y64868D01*
X455983Y63982D01*
X455097Y62827D01*
X454540Y61482D01*
X454350Y60039D01*
X454540Y58596D01*
X455097Y57252D01*
X455983Y56097D01*
X457138Y55211D01*
X458482Y54654D01*
X459925Y54464D01*
X461368Y54654D01*
X462713Y55211D01*
X463868Y56097D01*
X464753Y57252D01*
X465310Y58596D01*
X465500Y60039D01*
X465310Y61482D01*
X464753Y62827D01*
X463868Y63982D01*
X462713Y64868D01*
X461368Y65425D01*
X459925Y65615D01*
D02*
G37*
G36*
X400492Y127603D02*
X399331Y127489D01*
X398215Y127150D01*
X397186Y126601D01*
X396285Y125861D01*
X395545Y124959D01*
X394995Y123931D01*
X394657Y122814D01*
X394542Y121653D01*
X394657Y120493D01*
X394659Y120485D01*
Y101448D01*
X357375Y64164D01*
X356448Y62956D01*
X355865Y61549D01*
X355667Y60039D01*
X355865Y58530D01*
X356448Y57123D01*
X357375Y55914D01*
X358583Y54988D01*
X359990Y54405D01*
X361500Y54206D01*
X363010Y54405D01*
X364417Y54988D01*
X365625Y55914D01*
X404617Y94907D01*
X404617Y94907D01*
X405544Y96115D01*
X406127Y97522D01*
X406325Y99032D01*
X406325Y99032D01*
Y120485D01*
X406328Y120493D01*
X406442Y121653D01*
X406328Y122814D01*
X405989Y123931D01*
X405439Y124959D01*
X404699Y125861D01*
X403798Y126601D01*
X402769Y127150D01*
X401653Y127489D01*
X400492Y127603D01*
D02*
G37*
G36*
X581496Y67476D02*
X580310Y67320D01*
X579205Y66862D01*
X578256Y66134D01*
X577528Y65185D01*
X577070Y64080D01*
X576914Y62894D01*
Y57185D01*
X577070Y55999D01*
X577528Y54894D01*
X578256Y53945D01*
X579205Y53216D01*
X580310Y52759D01*
X581496Y52602D01*
X582682Y52759D01*
X583787Y53216D01*
X584736Y53945D01*
X585465Y54894D01*
X585922Y55999D01*
X586079Y57185D01*
Y62894D01*
X585922Y64080D01*
X585465Y65185D01*
X584736Y66134D01*
X583787Y66862D01*
X582682Y67320D01*
X581496Y67476D01*
D02*
G37*
G36*
X562992D02*
X561806Y67320D01*
X560701Y66862D01*
X559752Y66134D01*
X559024Y65185D01*
X558566Y64080D01*
X558410Y62894D01*
Y57185D01*
X558566Y55999D01*
X559024Y54894D01*
X559752Y53945D01*
X560701Y53216D01*
X561806Y52759D01*
X562992Y52602D01*
X564178Y52759D01*
X565283Y53216D01*
X566232Y53945D01*
X566961Y54894D01*
X567418Y55999D01*
X567575Y57185D01*
Y62894D01*
X567418Y64080D01*
X566961Y65185D01*
X566232Y66134D01*
X565283Y66862D01*
X564178Y67320D01*
X562992Y67476D01*
D02*
G37*
G36*
X544488D02*
X543302Y67320D01*
X542197Y66862D01*
X541248Y66134D01*
X540520Y65185D01*
X540062Y64080D01*
X539906Y62894D01*
Y57185D01*
X540062Y55999D01*
X540520Y54894D01*
X541248Y53945D01*
X542197Y53216D01*
X543302Y52759D01*
X544488Y52602D01*
X545674Y52759D01*
X546779Y53216D01*
X547728Y53945D01*
X548457Y54894D01*
X548914Y55999D01*
X549071Y57185D01*
Y62894D01*
X548914Y64080D01*
X548457Y65185D01*
X547728Y66134D01*
X546779Y66862D01*
X545674Y67320D01*
X544488Y67476D01*
D02*
G37*
%LPD*%
G36*
X520063Y421658D02*
X520063Y421598D01*
Y421158D01*
X520063Y421098D01*
Y416657D01*
X520063Y416598D01*
Y416157D01*
X520063Y416098D01*
Y415407D01*
X519783D01*
X519198Y415291D01*
X518702Y414959D01*
X515848Y412105D01*
X515784Y412009D01*
X515210Y411915D01*
X514915Y412161D01*
Y418658D01*
X518606Y422349D01*
X520063D01*
Y421658D01*
D02*
G37*
%LPC*%
G36*
X624803Y451833D02*
X623412Y451650D01*
X622115Y451113D01*
X621001Y450259D01*
X620147Y449145D01*
X619610Y447848D01*
X619426Y446457D01*
X619610Y445065D01*
X620147Y443768D01*
X621001Y442655D01*
X622115Y441800D01*
X623412Y441263D01*
X624803Y441080D01*
X626195Y441263D01*
X627492Y441800D01*
X628605Y442655D01*
X629459Y443768D01*
X629997Y445065D01*
X630180Y446457D01*
X629997Y447848D01*
X629459Y449145D01*
X628605Y450259D01*
X627492Y451113D01*
X626195Y451650D01*
X624803Y451833D01*
D02*
G37*
G36*
Y440022D02*
X623412Y439839D01*
X622115Y439302D01*
X621001Y438448D01*
X620147Y437334D01*
X619610Y436037D01*
X619426Y434646D01*
X619610Y433254D01*
X620147Y431957D01*
X621001Y430844D01*
X622115Y429989D01*
X623412Y429452D01*
X624803Y429269D01*
X626195Y429452D01*
X627492Y429989D01*
X628605Y430844D01*
X629459Y431957D01*
X629997Y433254D01*
X630180Y434646D01*
X629997Y436037D01*
X629459Y437334D01*
X628605Y438448D01*
X627492Y439302D01*
X626195Y439839D01*
X624803Y440022D01*
D02*
G37*
G36*
Y428211D02*
X623412Y428028D01*
X622115Y427491D01*
X621001Y426637D01*
X620147Y425523D01*
X619610Y424226D01*
X619426Y422835D01*
X619610Y421443D01*
X620147Y420146D01*
X621001Y419033D01*
X622115Y418178D01*
X623412Y417641D01*
X624803Y417458D01*
X626195Y417641D01*
X627492Y418178D01*
X628605Y419033D01*
X629459Y420146D01*
X629997Y421443D01*
X630180Y422835D01*
X629997Y424226D01*
X629459Y425523D01*
X628605Y426637D01*
X627492Y427491D01*
X626195Y428028D01*
X624803Y428211D01*
D02*
G37*
G36*
X634646Y422306D02*
X633254Y422123D01*
X631957Y421586D01*
X630844Y420731D01*
X629989Y419618D01*
X629452Y418321D01*
X629269Y416929D01*
X629452Y415538D01*
X629989Y414241D01*
X630844Y413127D01*
X631957Y412273D01*
X633254Y411736D01*
X634646Y411552D01*
X636037Y411736D01*
X637334Y412273D01*
X638448Y413127D01*
X639302Y414241D01*
X639839Y415538D01*
X640022Y416929D01*
X639839Y418321D01*
X639302Y419618D01*
X638448Y420731D01*
X637334Y421586D01*
X636037Y422123D01*
X634646Y422306D01*
D02*
G37*
G36*
X443012Y127603D02*
X441851Y127489D01*
X440735Y127150D01*
X439706Y126601D01*
X438805Y125861D01*
X438065Y124959D01*
X437515Y123931D01*
X437176Y122814D01*
X437062Y121653D01*
X437176Y120493D01*
X437515Y119377D01*
X438065Y118348D01*
X438805Y117446D01*
X439706Y116706D01*
X440735Y116156D01*
X441851Y115818D01*
X443012Y115704D01*
X444173Y115818D01*
X445289Y116156D01*
X446317Y116706D01*
X447219Y117446D01*
X447959Y118348D01*
X448509Y119377D01*
X448847Y120493D01*
X448962Y121653D01*
X448847Y122814D01*
X448509Y123931D01*
X447959Y124959D01*
X447219Y125861D01*
X446317Y126601D01*
X445289Y127150D01*
X444173Y127489D01*
X443012Y127603D01*
D02*
G37*
G36*
X485532Y127210D02*
X484371Y127095D01*
X483255Y126757D01*
X482226Y126207D01*
X481324Y125467D01*
X480584Y124565D01*
X480034Y123537D01*
X479696Y122421D01*
X479582Y121260D01*
X479696Y120099D01*
X480034Y118983D01*
X480584Y117954D01*
X481324Y117053D01*
X482226Y116313D01*
X483255Y115763D01*
X484371Y115424D01*
X485532Y115310D01*
X486692Y115424D01*
X487808Y115763D01*
X488837Y116313D01*
X489739Y117053D01*
X490479Y117954D01*
X491028Y118983D01*
X491367Y120099D01*
X491481Y121260D01*
X491367Y122421D01*
X491028Y123537D01*
X490479Y124565D01*
X489739Y125467D01*
X488837Y126207D01*
X487808Y126757D01*
X486692Y127095D01*
X485532Y127210D01*
D02*
G37*
G36*
X459925Y95142D02*
X458482Y94952D01*
X457138Y94395D01*
X455983Y93509D01*
X455097Y92355D01*
X454540Y91010D01*
X454350Y89567D01*
X454540Y88124D01*
X455097Y86779D01*
X455983Y85625D01*
X457138Y84739D01*
X458482Y84182D01*
X459925Y83992D01*
X461368Y84182D01*
X462713Y84739D01*
X463868Y85625D01*
X464753Y86779D01*
X465310Y88124D01*
X465500Y89567D01*
X465310Y91010D01*
X464753Y92355D01*
X463868Y93509D01*
X462713Y94395D01*
X461368Y94952D01*
X459925Y95142D01*
D02*
G37*
G36*
X420555Y65615D02*
X419112Y65425D01*
X417767Y64868D01*
X416613Y63982D01*
X415727Y62827D01*
X415170Y61482D01*
X414980Y60039D01*
X415170Y58596D01*
X415727Y57252D01*
X416613Y56097D01*
X417767Y55211D01*
X419112Y54654D01*
X420555Y54464D01*
X421998Y54654D01*
X423343Y55211D01*
X424497Y56097D01*
X425383Y57252D01*
X425940Y58596D01*
X426130Y60039D01*
X425940Y61482D01*
X425383Y62827D01*
X424497Y63982D01*
X423343Y64868D01*
X421998Y65425D01*
X420555Y65615D01*
D02*
G37*
%LPD*%
D15*
X405556Y387839D02*
X527931D01*
X391732Y374016D02*
X405556Y387839D01*
X527931D02*
X528369Y387402D01*
X622441D02*
X624803Y389764D01*
X572025Y463386D02*
X572047D01*
X572441Y462992D01*
X567323Y457874D02*
X572441Y462992D01*
X571260Y444882D02*
X578346D01*
X569291Y442913D02*
X571260Y444882D01*
X529153Y433878D02*
X530709Y435433D01*
X524508Y433878D02*
X529153D01*
X527421Y423878D02*
X530709Y427165D01*
X524508Y423878D02*
X527421D01*
X528839Y413878D02*
X531496Y416535D01*
X524508Y413878D02*
X528839D01*
X517323Y280315D02*
Y284646D01*
X512077Y279262D02*
Y284508D01*
Y279262D02*
X519390Y271949D01*
Y269587D02*
Y271949D01*
X352862Y278453D02*
X358465D01*
X370669Y284449D02*
X381102Y294882D01*
X381890D01*
X501968Y248819D02*
X502362Y248425D01*
X501575D02*
X501968Y248819D01*
X473735Y333351D02*
X492476Y314611D01*
Y257524D02*
Y314611D01*
Y257524D02*
X501575Y248425D01*
X524409Y233189D02*
X524606Y232992D01*
X470135Y331046D02*
X485039Y316142D01*
Y250787D02*
Y316142D01*
Y250787D02*
X492520Y243307D01*
X488583Y255197D02*
Y315354D01*
Y255197D02*
X497244Y246535D01*
X471935Y332002D02*
X488583Y315354D01*
X497244Y246260D02*
Y246535D01*
X501968Y248425D02*
X502362D01*
X492520Y242913D02*
Y243307D01*
X406004Y456988D02*
Y465059D01*
X409154Y443307D02*
Y443602D01*
X394488Y458268D02*
X409154Y443602D01*
X407185Y450787D02*
X407480D01*
X396004Y461969D02*
X407185Y450787D01*
X418898Y429134D02*
X419291D01*
X391732Y456299D02*
X418898Y429134D01*
X405905Y457087D02*
X406004Y456988D01*
X499606Y393701D02*
X503937Y398031D01*
X497815Y443878D02*
X524508D01*
X491339Y437402D02*
X497815Y443878D01*
X519311Y433878D02*
X524508D01*
X510236Y424803D02*
X519311Y433878D01*
X510236Y416142D02*
Y424803D01*
X640551Y377165D02*
Y409055D01*
X637402Y374016D02*
X640551Y377165D01*
Y409055D02*
X642520Y411024D01*
X624409Y365748D02*
X626870Y363287D01*
X633228D01*
Y366899D01*
X637402Y371072D01*
Y374016D01*
X628740Y375590D02*
X632283Y372047D01*
X624803Y375590D02*
X628740D01*
X512373Y374184D02*
X554151D01*
X492028Y353839D02*
X512373Y374184D01*
X554151D02*
X554672Y374705D01*
X610236D01*
X615846D02*
X616929Y373622D01*
X610236Y374705D02*
X615846D01*
X646457Y381496D02*
X681102D01*
X684646Y385039D01*
X670472Y352756D02*
X687795Y370079D01*
X668504Y411417D02*
X687795Y392126D01*
Y370079D02*
Y392126D01*
X671654Y412205D02*
X690945Y392913D01*
Y368503D02*
Y392913D01*
X685039Y362598D02*
X690945Y368503D01*
X601181Y455905D02*
Y469685D01*
X590158Y444882D02*
X601181Y455905D01*
X590158Y438189D02*
Y444882D01*
X579134Y427165D02*
X590158Y438189D01*
X617717Y265354D02*
X634646D01*
X611811Y259449D02*
X617717Y265354D01*
X646457Y241732D02*
X661536D01*
X666142Y246338D01*
Y251969D01*
X672047Y257874D01*
X689370Y267323D02*
Y325984D01*
X665354Y350000D02*
X689370Y325984D01*
X656299Y294882D02*
X662303Y300886D01*
Y301969D01*
X609685Y405118D02*
Y420472D01*
X480709Y611024D02*
Y639370D01*
X474409Y604724D02*
X480709Y611024D01*
X622441Y340158D02*
X634154D01*
X590945Y350787D02*
X593504Y348228D01*
Y325787D02*
Y348228D01*
Y325787D02*
X600000Y319291D01*
X577559Y357874D02*
X584252D01*
X514173Y232992D02*
Y239370D01*
Y232992D02*
X514390Y232776D01*
X473735Y363361D02*
X486358Y375984D01*
X473735Y333351D02*
Y363361D01*
X471935Y365243D02*
X484646Y377953D01*
X471935Y332002D02*
Y365243D01*
X470135Y366198D02*
X483858Y379921D01*
X470135Y331046D02*
Y366198D01*
X468335Y366944D02*
X470079Y368687D01*
X468335Y330300D02*
Y366944D01*
Y330300D02*
X470079Y328557D01*
X435827Y200000D02*
X580315D01*
X466535Y318110D02*
Y370472D01*
X407087Y258661D02*
X466535Y318110D01*
Y370472D02*
X481102Y385039D01*
X470079Y368687D02*
Y369685D01*
Y328465D02*
Y328557D01*
X482283Y381890D02*
X524409D01*
X470079Y369685D02*
X482283Y381890D01*
X484646Y377953D02*
X542913D01*
X486358Y375984D02*
X553406D01*
X481102Y385039D02*
X513779D01*
X470079Y328465D02*
X481540Y317003D01*
X473228Y240158D02*
X478740Y245669D01*
X481540Y246413D02*
Y317003D01*
Y246413D02*
X487795Y240158D01*
X478740Y245669D02*
Y246850D01*
Y259449D01*
X478346Y259842D02*
X478740Y259449D01*
X346161Y282480D02*
X358465D01*
X346063Y282579D02*
X346161Y282480D01*
X368110Y274803D02*
X374410D01*
X362402Y280512D02*
X368110Y274803D01*
X358465Y280512D02*
X362402D01*
X352756Y278346D02*
X352862Y278453D01*
X367598Y286495D02*
X372441Y291339D01*
X370591Y280590D02*
X370669Y280512D01*
X367598Y281351D02*
Y286495D01*
Y281351D02*
X368359Y280590D01*
X383268Y282776D02*
Y288583D01*
X670472Y352756D02*
X671260D01*
X432283Y363384D02*
Y372047D01*
Y363384D02*
X433070Y362598D01*
X388976Y374016D02*
X391732D01*
X528369Y387402D02*
X622441D01*
X406102Y565748D02*
X464567Y507283D01*
X403937Y565748D02*
X406102D01*
X350787Y402756D02*
Y514173D01*
X373228Y536614D01*
Y551181D01*
X394094Y553543D02*
X410630D01*
X407480Y303937D02*
X410236Y301181D01*
X350787Y402756D02*
X407480Y346063D01*
Y303937D02*
Y346063D01*
X603150Y340945D02*
X610925Y333169D01*
X668504Y411417D02*
Y491732D01*
X619685Y540551D02*
X668504Y491732D01*
X665354Y350000D02*
Y354331D01*
X672835Y361811D01*
X567323Y440158D02*
Y457874D01*
X566043Y438878D02*
X567323Y440158D01*
X561319Y438878D02*
X566043D01*
X569291Y436221D02*
Y442913D01*
X566949Y433878D02*
X569291Y436221D01*
X471654Y393701D02*
X499606D01*
X498032Y335546D02*
Y341732D01*
X494528Y345236D02*
X498032Y341732D01*
X492028Y345236D02*
X494528D01*
X375984Y278543D02*
X376181Y278740D01*
X370669Y278543D02*
X375984D01*
X374410Y274803D02*
X380315Y268898D01*
X634154Y340158D02*
X634646Y339665D01*
X642520Y411024D02*
X656299D01*
X616043Y357480D02*
X616142Y357382D01*
X608661Y357480D02*
X616043D01*
X604921Y347047D02*
X608661Y343307D01*
X601220Y347047D02*
X604921D01*
X597638Y343465D02*
X601220Y347047D01*
X597638Y328740D02*
Y343465D01*
Y328740D02*
X600394Y325984D01*
X604035D01*
X595276Y317421D02*
Y318504D01*
Y317421D02*
X604035Y308661D01*
X492028Y345236D02*
Y353839D01*
X464567Y409547D02*
Y507283D01*
X471260Y442520D02*
Y507874D01*
X430709Y548425D02*
X471260Y507874D01*
X430709Y548425D02*
Y598819D01*
X456693Y409547D02*
Y507480D01*
X410630Y553543D02*
X456693Y507480D01*
X594095Y637795D02*
X600000D01*
X585591Y646299D02*
X594095Y637795D01*
X560630Y646299D02*
X585591D01*
X544488Y540551D02*
X619685D01*
X671654Y412205D02*
Y495276D01*
X622047Y544882D02*
X671654Y495276D01*
X534390Y544882D02*
X622047D01*
X561811Y384390D02*
X610138D01*
X553406Y375984D02*
X561811Y384390D01*
X533465Y379921D02*
X537795Y384252D01*
X483858Y379921D02*
X533465D01*
X524409Y381890D02*
X527165Y384646D01*
X549213Y384252D02*
X549390D01*
X542913Y377953D02*
X549213Y384252D01*
X600394Y390551D02*
X609055Y399213D01*
X403937Y390551D02*
X600394D01*
X392126Y378740D02*
X403937Y390551D01*
X548819Y394882D02*
Y395276D01*
X549213Y395669D01*
X538189Y395276D02*
X541339Y398425D01*
X544390Y232776D02*
Y239606D01*
X534390Y232776D02*
Y240158D01*
X600236Y395669D02*
X609685Y405118D01*
X549213Y395669D02*
X600236D01*
X524409Y233189D02*
Y239764D01*
X524390Y232776D02*
X524606Y232992D01*
X570768Y398425D02*
X595669Y423327D01*
X541339Y398425D02*
X570768D01*
X595669Y423327D02*
Y440158D01*
X633858Y217323D02*
X646457Y229921D01*
X607874Y217323D02*
X633858D01*
X605118Y214567D02*
X607874Y217323D01*
X614567Y229921D02*
X634646D01*
X606693Y222047D02*
X614567Y229921D01*
X407087Y228740D02*
X435827Y200000D01*
X407087Y228740D02*
Y258661D01*
X442126Y322441D02*
X446457Y318110D01*
X442126Y322441D02*
Y330512D01*
X446457Y318110D02*
X457087D01*
X572185Y407618D02*
Y411811D01*
X570118Y413878D02*
X572185Y411811D01*
X561319Y413878D02*
X570118D01*
X384252Y509449D02*
X386004Y507697D01*
Y501870D02*
Y507697D01*
X430709Y598819D02*
X436614Y604724D01*
X474409D01*
X656299Y318504D02*
Y334252D01*
X634154Y356398D02*
X656299Y334252D01*
X633228Y356398D02*
X634154D01*
X628248D02*
X633228D01*
X622047Y362598D02*
X628248Y356398D01*
X588976Y362598D02*
X622047D01*
X584252Y357874D02*
X588976Y362598D01*
X610138Y350492D02*
X616142D01*
X606693Y353937D02*
X610138Y350492D01*
X581890Y353937D02*
X606693D01*
X616142Y350492D02*
X632972D01*
X646457Y337008D01*
Y312598D02*
Y337008D01*
X579134Y305118D02*
X599213Y285039D01*
X579134Y305118D02*
Y345276D01*
X575591Y305118D02*
Y342126D01*
Y305118D02*
X598819Y281890D01*
X383071Y282579D02*
X383268Y282776D01*
X382973Y282480D02*
X383071Y282579D01*
X644488Y253543D02*
X646457D01*
X358465Y274606D02*
Y278346D01*
X609055Y399213D02*
X624803D01*
X656299Y387402D02*
X667815D01*
X513386Y409842D02*
Y419291D01*
X519783Y413878D02*
X524508D01*
X516929Y411024D02*
X519783Y413878D01*
X516929Y404724D02*
Y411024D01*
X513386Y419291D02*
X517972Y423878D01*
X524508D01*
X380315Y456299D02*
X391732D01*
X376004Y460610D02*
X380315Y456299D01*
X376004Y460610D02*
Y465059D01*
X388189Y458268D02*
X394488D01*
X386004Y460453D02*
X388189Y458268D01*
X386004Y460453D02*
Y465059D01*
X396004Y461969D02*
Y465059D01*
X428346Y362205D02*
Y368898D01*
X393012Y414173D02*
X393110Y414075D01*
Y408661D02*
Y414075D01*
X385433Y414075D02*
X385531Y414173D01*
X385433Y408661D02*
Y414075D01*
X624803Y387402D02*
Y389764D01*
X372441Y403937D02*
X378051Y409547D01*
X372441Y398425D02*
Y403937D01*
Y398425D02*
X375197Y395669D01*
X378229D01*
X392126D01*
X452362Y340354D02*
X453937Y341929D01*
X452362Y322047D02*
Y340354D01*
X458661Y319685D02*
Y328740D01*
X457087Y318110D02*
X458661Y319685D01*
X452953Y347835D02*
X453346D01*
X448032Y342913D02*
X452953Y347835D01*
X448032Y323622D02*
Y342913D01*
X368359Y280590D02*
X370591D01*
X370669Y282480D02*
X382973D01*
X358465Y274606D02*
X362598Y270473D01*
X370669D01*
X438189Y246063D02*
X438583Y246457D01*
X433071Y246063D02*
X438189D01*
Y261024D02*
X438583Y260630D01*
X433071Y261024D02*
X438189D01*
X433071Y253543D02*
X438583D01*
X433071Y242520D02*
Y246063D01*
Y242520D02*
X435433Y240158D01*
X473228D01*
X574016Y427165D02*
X579134D01*
X565728Y418878D02*
X574016Y427165D01*
X561319Y418878D02*
X565728D01*
X561319Y433878D02*
X566949D01*
X517323Y280315D02*
X524390Y273248D01*
Y269587D02*
Y273248D01*
X534390Y278602D02*
Y284508D01*
Y278602D02*
X539390Y273602D01*
Y269587D02*
Y273602D01*
X547638Y277953D02*
Y284843D01*
X544390Y274705D02*
X547638Y277953D01*
X544390Y269587D02*
Y274705D01*
X598819Y281890D02*
X603445D01*
X617028Y367815D02*
X624803Y375590D01*
X610236Y367815D02*
X617028D01*
X596063Y367717D02*
X609744D01*
X600000Y319291D02*
X603150D01*
X606299Y350394D02*
X623917Y332776D01*
X597244Y350394D02*
X606299D01*
X623917Y332776D02*
X634646D01*
Y312598D02*
Y332776D01*
X610925Y325984D02*
Y333169D01*
X603445Y281890D02*
X610925Y274410D01*
X619291Y277165D02*
X634646D01*
X616535Y274410D02*
X619291Y277165D01*
X610925Y274410D02*
X616535D01*
X599213Y285039D02*
X608268D01*
X610925Y287697D01*
Y291339D02*
X620374Y300787D01*
X634646D01*
X603150Y319291D02*
X610925Y311516D01*
Y308661D02*
Y311516D01*
Y308661D02*
X612894Y306693D01*
X624803D01*
X610925Y325984D02*
X618405Y318504D01*
X624803D01*
D19*
X310236Y600374D02*
D03*
Y573406D02*
D03*
D20*
X672342Y273622D02*
D03*
X665453D02*
D03*
X604035Y291339D02*
D03*
X610925D02*
D03*
Y274410D02*
D03*
X604035D02*
D03*
X596752Y248031D02*
D03*
X589862D02*
D03*
X610925Y325984D02*
D03*
X604035D02*
D03*
X610925Y308661D02*
D03*
X604035D02*
D03*
X667815Y387402D02*
D03*
X674705D02*
D03*
D23*
X346063Y282579D02*
D03*
Y275689D02*
D03*
X370669Y270473D02*
D03*
Y263583D02*
D03*
X383071Y282579D02*
D03*
Y275689D02*
D03*
X616142Y357382D02*
D03*
Y350492D02*
D03*
X633228Y363287D02*
D03*
Y356398D02*
D03*
X634646Y332776D02*
D03*
Y339665D02*
D03*
X610236Y374705D02*
D03*
Y367815D02*
D03*
D26*
X561319Y448878D02*
D03*
Y443878D02*
D03*
Y438878D02*
D03*
Y433878D02*
D03*
Y428878D02*
D03*
Y423878D02*
D03*
Y418878D02*
D03*
Y413878D02*
D03*
Y408878D02*
D03*
Y403878D02*
D03*
X524508Y448878D02*
D03*
Y443878D02*
D03*
Y438878D02*
D03*
Y433878D02*
D03*
Y428878D02*
D03*
Y423878D02*
D03*
Y418878D02*
D03*
Y413878D02*
D03*
Y408878D02*
D03*
Y403878D02*
D03*
D29*
X442126Y335630D02*
D03*
Y330512D02*
D03*
D30*
X483465Y340256D02*
D03*
Y345571D02*
D03*
X492028Y339921D02*
D03*
Y345236D02*
D03*
X378051Y409547D02*
D03*
Y414862D02*
D03*
X394882Y325315D02*
D03*
Y330630D02*
D03*
X372441Y576476D02*
D03*
Y581791D02*
D03*
X373228Y556496D02*
D03*
Y551181D02*
D03*
D31*
X488287Y362205D02*
D03*
X493602D02*
D03*
X356988Y292913D02*
D03*
X351673D02*
D03*
X433071Y246063D02*
D03*
X427756D02*
D03*
X361457Y611417D02*
D03*
X356142D02*
D03*
X529921Y457874D02*
D03*
X524606D02*
D03*
X356201Y464961D02*
D03*
X361516D02*
D03*
X562697Y232776D02*
D03*
X568012D02*
D03*
D41*
X358465Y278543D02*
D03*
Y280512D02*
D03*
Y282480D02*
D03*
Y284449D02*
D03*
X370669Y278543D02*
D03*
Y280512D02*
D03*
Y282480D02*
D03*
Y284449D02*
D03*
D45*
X364567Y167717D02*
D03*
X376181D02*
D03*
X407677Y168110D02*
D03*
X419291D02*
D03*
X493307Y167717D02*
D03*
X504921D02*
D03*
X535433Y167717D02*
D03*
X547047D02*
D03*
X450394Y168110D02*
D03*
X462008D02*
D03*
D48*
X416004Y465059D02*
D03*
X411004D02*
D03*
X406004D02*
D03*
X401004D02*
D03*
X396004D02*
D03*
X391004D02*
D03*
X386004D02*
D03*
X381004D02*
D03*
X376004D02*
D03*
X371004D02*
D03*
X416004Y501870D02*
D03*
X411004D02*
D03*
X406004D02*
D03*
X401004D02*
D03*
X396004D02*
D03*
X391004D02*
D03*
X386004D02*
D03*
X381004D02*
D03*
X376004D02*
D03*
X371004D02*
D03*
X554390Y232776D02*
D03*
X549390D02*
D03*
X544390D02*
D03*
X539390D02*
D03*
X534390D02*
D03*
X529390D02*
D03*
X524390D02*
D03*
X519390D02*
D03*
X514390D02*
D03*
X509390D02*
D03*
X554390Y269587D02*
D03*
X549390D02*
D03*
X544390D02*
D03*
X539390D02*
D03*
X534390D02*
D03*
X529390D02*
D03*
X524390D02*
D03*
X519390D02*
D03*
X514390D02*
D03*
X509390D02*
D03*
D90*
X498583Y544882D02*
X534390D01*
X480866Y562598D02*
X498583Y544882D01*
X466929Y562598D02*
X480866D01*
X409705Y220079D02*
X419153Y210630D01*
X320079Y154564D02*
X324016Y158501D01*
Y186614D02*
Y469291D01*
X327165Y237008D02*
Y462598D01*
X330315Y248138D02*
Y453937D01*
X333465Y346980D02*
Y445276D01*
X336643Y396486D02*
X342126Y401968D01*
X336643Y250787D02*
Y396486D01*
X609744Y367717D02*
X611024Y368996D01*
X613386Y153937D02*
X675556Y216108D01*
X663386Y306693D02*
X665648Y304430D01*
Y299918D02*
Y304430D01*
X664961Y299230D02*
X665648Y299918D01*
X664961Y283465D02*
Y299230D01*
X675556Y216108D02*
Y264601D01*
X672342Y267815D02*
X675556Y264601D01*
X672342Y267815D02*
Y273622D01*
X613386Y151181D02*
Y153937D01*
X603150Y509449D02*
X607874Y504724D01*
Y427953D02*
Y504724D01*
Y427953D02*
X624803Y411024D01*
X333132Y248757D02*
Y346647D01*
X333465Y346980D01*
X333132Y248757D02*
X361811Y220079D01*
X330314Y247776D02*
Y248137D01*
X360976Y216929D02*
X369488D01*
X330314Y247590D02*
X360976Y216929D01*
X330314Y248137D02*
X330315Y248138D01*
X330314Y247776D02*
X330314Y247590D01*
X339763Y266535D02*
Y276772D01*
X339370Y277165D02*
X339763Y276772D01*
X366535Y581791D02*
X370472D01*
X346850Y587499D02*
X347344D01*
X324455D02*
X346850D01*
X319493Y587111D02*
X324067D01*
X324455Y587499D01*
X319291Y586909D02*
X319493Y587111D01*
X351378Y584252D02*
X351476Y584350D01*
X320079Y58268D02*
Y154564D01*
Y58268D02*
X340945Y37402D01*
X508786D01*
X342126Y401968D02*
Y427953D01*
X346063Y431890D01*
X355512Y441339D02*
X361516Y447342D01*
Y464961D01*
X319291Y584350D02*
X351476D01*
X656299Y306693D02*
X663386D01*
X664961Y283465D02*
X672342Y276083D01*
Y273622D02*
Y276083D01*
X530672Y68467D02*
X613386Y151181D01*
X530672Y59287D02*
Y68467D01*
X508786Y37402D02*
X530672Y59287D01*
X494488Y509449D02*
X603150D01*
X609055Y513779D02*
X635827Y487008D01*
X484252Y513779D02*
X609055D01*
X361811Y220079D02*
X409705D01*
X344783Y282579D02*
X346063D01*
X339370Y277165D02*
X344783Y282579D01*
X416004Y456043D02*
Y465059D01*
Y456043D02*
X416142Y455905D01*
X544232Y232618D02*
X544390Y232776D01*
X544232Y212205D02*
Y232618D01*
X376181Y205512D02*
Y210236D01*
X369488Y216929D02*
X376181Y210236D01*
X534232Y232618D02*
X534390Y232776D01*
X534232Y216929D02*
Y232618D01*
X634646Y440551D02*
X635827Y441732D01*
Y487008D01*
X614961Y517717D02*
X640551Y492126D01*
Y433071D02*
Y492126D01*
X636221Y428740D02*
X640551Y433071D01*
X634646Y428740D02*
X636221D01*
X476772Y517717D02*
X614961D01*
X534252Y577165D02*
X577165D01*
X583465Y583465D01*
X624784D01*
X633228Y575020D01*
X455630Y593583D02*
X487008Y562205D01*
X455630Y593583D02*
Y598307D01*
X489075Y566142D02*
X515748D01*
X460630Y594587D02*
X489075Y566142D01*
X460630Y594587D02*
Y598032D01*
X487008Y562205D02*
X505512D01*
X461476Y618898D02*
X476378D01*
X359055Y511024D02*
X361024Y509055D01*
X410630Y512500D02*
Y519291D01*
X406004Y507874D02*
X410630Y512500D01*
X406004Y501870D02*
Y507874D01*
X392520Y511811D02*
Y519685D01*
Y511811D02*
X394488Y509842D01*
X398819D01*
X401004Y507657D01*
Y501870D02*
Y507657D01*
X361024Y509055D02*
X377953D01*
X381004Y506004D01*
Y501870D02*
Y506004D01*
X416004Y465059D02*
Y501870D01*
X411004D02*
X416004D01*
X411004Y497284D02*
Y501870D01*
X409390Y495669D02*
X411004Y497284D01*
X397244Y495669D02*
X409390D01*
X396004Y496909D02*
X397244Y495669D01*
X396004Y496909D02*
Y501870D01*
X391004D02*
X396004D01*
X391004Y496910D02*
Y501870D01*
X389764Y495669D02*
X391004Y496910D01*
X378051Y495669D02*
X389764D01*
X376004Y497717D02*
X378051Y495669D01*
X376004Y497717D02*
Y501870D01*
X371004D02*
X376004D01*
X371004Y465059D02*
Y501870D01*
X370905Y464961D02*
X371004Y465059D01*
X361516Y464961D02*
X370905D01*
X436339Y330512D02*
X442126D01*
X524508Y403878D02*
X561319D01*
X524508Y448878D02*
X524606Y448976D01*
Y457874D01*
X524508Y448878D02*
X561319D01*
Y443878D02*
Y448878D01*
X557264Y443878D02*
X561319D01*
X553937Y440551D02*
X557264Y443878D01*
X553937Y431496D02*
Y440551D01*
Y431496D02*
X556555Y428878D01*
X561319D01*
Y423878D02*
Y428878D01*
X557342Y423878D02*
X561319D01*
X554331Y420866D02*
X557342Y423878D01*
X554331Y411417D02*
Y420866D01*
Y411417D02*
X556870Y408878D01*
X561319D01*
Y403878D02*
Y408878D01*
X589764Y350787D02*
X590945D01*
X602756Y340945D02*
X603150D01*
X634646Y288976D02*
X634833D01*
X610925Y287697D02*
Y291339D01*
X373425Y556693D02*
X379528D01*
X373228Y556496D02*
X373425Y556693D01*
D91*
X319291Y581791D02*
X348130D01*
X395197Y330315D02*
X395394Y330512D01*
X356614Y284627D02*
X361143D01*
X485433Y535138D02*
X490551Y540256D01*
Y547244D01*
X677953Y414961D02*
X691339Y401575D01*
X640551Y297638D02*
Y320079D01*
X355512Y288556D02*
X356988Y290033D01*
X355512Y285729D02*
Y288556D01*
Y285729D02*
X356614Y284627D01*
X361143D02*
X362205Y285689D01*
X356988Y290033D02*
Y292913D01*
X362205Y285689D02*
Y293504D01*
X368701Y300000D01*
X488091Y363189D02*
Y368012D01*
Y363189D02*
X488287Y362992D01*
X594095Y266535D02*
Y281102D01*
X562697Y235138D02*
X594095Y266535D01*
X562697Y232776D02*
Y235138D01*
X637795Y294882D02*
X640551Y297638D01*
X624803Y294882D02*
X637795D01*
X337894Y533957D02*
X344488Y540551D01*
X395394Y330512D02*
X404331D01*
X394882Y330630D02*
X395197Y330315D01*
X348130Y581791D02*
X350394Y579528D01*
X646457Y440551D02*
Y491732D01*
X594095Y305906D02*
X596457Y308268D01*
X594095Y296457D02*
Y305906D01*
X370079Y320079D02*
X377559D01*
X357087Y307087D02*
X370079Y320079D01*
X492028Y335728D02*
Y339921D01*
X490551Y334252D02*
X492028Y335728D01*
X486713Y334252D02*
X490551D01*
X485532Y335433D02*
X486713Y334252D01*
X433858Y341732D02*
X442126D01*
X429528Y337402D02*
X433858Y341732D01*
X429528Y304331D02*
Y337402D01*
X368701Y300000D02*
X387795D01*
X395276Y292520D01*
Y250000D02*
Y292520D01*
Y250000D02*
X401968Y243307D01*
X442126Y335630D02*
Y341732D01*
X388110Y330630D02*
X394882D01*
X377559Y320079D02*
X388110Y330630D01*
X356988Y306988D02*
X357087Y307087D01*
X356988Y292913D02*
Y306988D01*
X444429Y592461D02*
X444488Y592520D01*
X436279Y592461D02*
X444429D01*
X509390Y232776D02*
Y269587D01*
X488287Y343406D02*
Y362205D01*
X485138Y340256D02*
X488287Y343406D01*
X554390Y232776D02*
X561319D01*
X640158Y498032D02*
X646457Y491732D01*
X413779Y243307D02*
X424311Y232776D01*
X509390D01*
X483465Y340256D02*
X485138D01*
X356142Y582677D02*
Y611417D01*
X352992Y579528D02*
X356142Y582677D01*
X350394Y579528D02*
X352992D01*
X483465Y337500D02*
X485532Y335433D01*
X483465Y337500D02*
Y340256D01*
X546063Y591732D02*
X560236Y605905D01*
X525000Y591732D02*
X546063D01*
X521457Y595276D02*
X525000Y591732D01*
X521457Y595276D02*
Y600591D01*
Y608071D01*
X504331Y625197D02*
X521457Y608071D01*
X504331Y625197D02*
Y644095D01*
X506850Y646614D01*
X512992D01*
X527402D02*
X531102Y642913D01*
X512992Y646614D02*
X527402D01*
X554390Y232776D02*
Y269587D01*
X548819Y264961D02*
Y269016D01*
X547638Y263779D02*
X548819Y264961D01*
X535433Y263779D02*
X547638D01*
X548819Y269016D02*
X549390Y269587D01*
X534390Y264823D02*
X535433Y263779D01*
X534390Y264823D02*
Y269587D01*
X529390Y265216D02*
Y269587D01*
X527953Y263779D02*
X529390Y265216D01*
X515748Y263779D02*
X527953D01*
X514390Y265138D02*
X515748Y263779D01*
X514390Y265138D02*
Y269587D01*
X549390D02*
X554390D01*
X529390D02*
X534390D01*
X509390D02*
X514390D01*
D92*
X315945Y186417D02*
X316142Y186221D01*
X350491Y151871D01*
X422757Y196457D02*
X428663Y190551D01*
X404724Y196457D02*
X422757D01*
X399153Y190886D02*
X404724Y196457D01*
X668504Y286221D02*
Y327165D01*
X641732Y353937D02*
X668504Y327165D01*
X660630Y458661D02*
X666135Y453156D01*
Y410436D02*
Y453156D01*
Y410436D02*
X666829Y409742D01*
Y409742D02*
Y409742D01*
X656299Y399213D02*
X666829Y409742D01*
X429807Y70472D02*
X440240Y60039D01*
X400787Y70472D02*
X429807D01*
X378346Y48031D02*
X400787Y70472D01*
X335827Y48031D02*
X378346D01*
X324016Y59842D02*
X335827Y48031D01*
X458421Y151871D02*
X539667D01*
X458226Y152066D02*
X458421Y151871D01*
X358027Y152066D02*
X458226D01*
X357832Y151871D02*
X358027Y152066D01*
X350491Y151871D02*
X357832D01*
X662992Y417717D02*
Y450000D01*
X659055Y453937D02*
X662992Y450000D01*
X653543Y453937D02*
X659055D01*
X651575Y455905D02*
X653543Y453937D01*
X583661Y468504D02*
X593504Y458661D01*
X655118D02*
X660630D01*
X656299Y411024D02*
X662992Y417717D01*
X651575Y455905D02*
Y498819D01*
X635236Y515158D02*
X651575Y498819D01*
X656299Y434646D02*
X657480D01*
X633228Y363287D02*
X638287D01*
X641732Y359842D01*
Y353937D02*
Y359842D01*
X572025Y165234D02*
Y173622D01*
X528051Y121260D02*
X572025Y165234D01*
X596752Y240059D02*
Y248031D01*
X584646Y227953D02*
X596752Y240059D01*
X584646Y196850D02*
Y227953D01*
X539667Y151871D02*
X584646Y196850D01*
X535027Y194882D02*
X550765D01*
X529515Y189370D02*
X535027Y194882D01*
X526516Y189370D02*
X529515D01*
X550765Y194882D02*
X561811Y183836D01*
X428663Y190551D02*
X441476D01*
X515547Y189370D02*
X526516D01*
X507673Y197244D02*
X515547Y189370D01*
X491890Y197244D02*
X507673D01*
X530315Y468504D02*
X583661D01*
X524606Y462795D02*
X530315Y468504D01*
X524606Y457874D02*
Y462795D01*
X528051Y172441D02*
X532776Y167717D01*
X528051Y172441D02*
Y180315D01*
X357579Y174705D02*
Y180315D01*
X624409Y248031D02*
X624803Y247638D01*
X596752Y248031D02*
X624409D01*
X484803Y190157D02*
X491890Y197244D01*
X483996Y190157D02*
X484803D01*
X399153Y190551D02*
Y190886D01*
X536516Y188779D02*
Y189370D01*
X528051Y180315D02*
X536516Y188779D01*
X532776Y167717D02*
X535433D01*
X493996Y188779D02*
Y190157D01*
X485532Y180315D02*
X493996Y188779D01*
X485532Y175492D02*
Y180315D01*
Y175492D02*
X493307Y167717D01*
X443012Y182087D02*
X451476Y190551D01*
X443012Y180709D02*
Y182087D01*
Y171949D02*
Y180709D01*
Y171949D02*
X446850Y168110D01*
X450394D01*
X409154Y189370D02*
Y190551D01*
X400492Y180709D02*
X409154Y189370D01*
X400492Y175295D02*
Y180709D01*
Y175295D02*
X407677Y168110D01*
X366043Y188779D02*
Y190157D01*
X357579Y180315D02*
X366043Y188779D01*
X357579Y174705D02*
X364567Y167717D01*
D93*
X316142Y175591D02*
Y175984D01*
X644983Y223724D02*
X656007D01*
X656299Y224016D01*
X633465Y212205D02*
X644983Y223724D01*
X614173Y212205D02*
X633465D01*
X316142Y175591D02*
X357874Y133858D01*
X403543D01*
X414173Y95949D02*
X420555Y89567D01*
X414173Y95949D02*
Y123228D01*
X403543Y133858D02*
X414173Y123228D01*
D95*
X620866Y152362D02*
X681890Y213386D01*
Y324016D01*
X657480Y348425D02*
X681890Y324016D01*
X657480Y348425D02*
Y363779D01*
X620866Y146457D02*
Y152362D01*
X605512Y131102D02*
X620866Y146457D01*
X605512Y99213D02*
Y131102D01*
X361500Y60039D02*
X400492Y99032D01*
Y121653D01*
D96*
X669291Y218438D02*
Y227559D01*
X661024Y235827D02*
X669291Y227559D01*
X656299Y235827D02*
X661024D01*
X657185Y206331D02*
X669291Y218438D01*
X646882Y206331D02*
X657185D01*
X591732Y168898D02*
Y224803D01*
X495669Y72835D02*
X591732Y168898D01*
X456972Y72835D02*
X495669D01*
X656299Y259449D02*
Y271260D01*
X521118Y80567D02*
X646882Y206331D01*
X521118Y63244D02*
Y80567D01*
X602756Y235827D02*
X624803D01*
X591732Y224803D02*
X602756Y235827D01*
X503150Y45276D02*
X521118Y63244D01*
X455004Y45276D02*
X503150D01*
X435433Y145276D02*
X455413D01*
X424016Y133858D02*
X435433Y145276D01*
X424016Y105791D02*
Y133858D01*
Y105791D02*
X440240Y89567D01*
X456972Y72835D01*
X440240Y60039D02*
X455004Y45276D01*
D98*
X316929Y37402D02*
D03*
X685039D02*
D03*
Y696850D02*
D03*
X316929D02*
D03*
D99*
X611102Y686614D02*
D03*
X633465D02*
D03*
X622283Y668720D02*
D03*
X633228Y575020D02*
D03*
X610866D02*
D03*
X622047Y592913D02*
D03*
X605512Y99213D02*
D03*
X657480Y363779D02*
D03*
D100*
X490709Y639370D02*
D03*
X480709D02*
D03*
X470709D02*
D03*
X512992Y626614D02*
D03*
Y636614D02*
D03*
Y646614D02*
D03*
X560630Y666299D02*
D03*
Y656299D02*
D03*
Y646299D02*
D03*
X376043Y190157D02*
D03*
X366043D02*
D03*
X356043D02*
D03*
X419153Y190551D02*
D03*
X409154D02*
D03*
X399153D02*
D03*
X461476D02*
D03*
X451476D02*
D03*
X441476D02*
D03*
X503996Y190157D02*
D03*
X493996D02*
D03*
X483996D02*
D03*
X546516Y189370D02*
D03*
X536516D02*
D03*
X526516D02*
D03*
D101*
X681890Y195472D02*
D03*
Y347047D02*
D03*
Y475000D02*
D03*
D102*
X624803Y446457D02*
D03*
Y434646D02*
D03*
Y422835D02*
D03*
Y411024D02*
D03*
Y399213D02*
D03*
Y387402D02*
D03*
Y375590D02*
D03*
X634646Y440551D02*
D03*
Y428740D02*
D03*
Y416929D02*
D03*
Y405118D02*
D03*
Y393307D02*
D03*
Y381496D02*
D03*
X646457Y440551D02*
D03*
Y428740D02*
D03*
Y416929D02*
D03*
Y405118D02*
D03*
Y393307D02*
D03*
Y381496D02*
D03*
X656299Y446457D02*
D03*
Y434646D02*
D03*
Y422835D02*
D03*
Y411024D02*
D03*
Y399213D02*
D03*
Y387402D02*
D03*
Y375590D02*
D03*
Y224016D02*
D03*
Y235827D02*
D03*
Y247638D02*
D03*
Y259449D02*
D03*
Y271260D02*
D03*
Y283071D02*
D03*
Y294882D02*
D03*
Y306693D02*
D03*
Y318504D02*
D03*
X646457Y229921D02*
D03*
Y241732D02*
D03*
Y253543D02*
D03*
Y265354D02*
D03*
Y277165D02*
D03*
Y288976D02*
D03*
Y300787D02*
D03*
Y312598D02*
D03*
X634646Y229921D02*
D03*
Y241732D02*
D03*
Y253543D02*
D03*
Y265354D02*
D03*
Y277165D02*
D03*
Y288976D02*
D03*
Y300787D02*
D03*
Y312598D02*
D03*
X624803Y224016D02*
D03*
Y235827D02*
D03*
Y247638D02*
D03*
Y259449D02*
D03*
Y271260D02*
D03*
Y283071D02*
D03*
Y294882D02*
D03*
Y306693D02*
D03*
Y318504D02*
D03*
D103*
X361500Y89567D02*
D03*
Y60039D02*
D03*
X440240D02*
D03*
X420555D02*
D03*
X440240Y89567D02*
D03*
X420555D02*
D03*
X459925Y60039D02*
D03*
Y89567D02*
D03*
D104*
X528051Y121260D02*
D03*
X525492Y158661D02*
D03*
X540453Y144882D02*
D03*
X485532Y121260D02*
D03*
X482972Y158661D02*
D03*
X497933Y144882D02*
D03*
X443012Y121653D02*
D03*
X440453Y159055D02*
D03*
X455413Y145276D02*
D03*
X400492Y121653D02*
D03*
X397933Y159055D02*
D03*
X412894Y145276D02*
D03*
X357579Y121260D02*
D03*
X355020Y158661D02*
D03*
X369980Y144882D02*
D03*
D105*
X544980Y180315D02*
D03*
X528051D02*
D03*
X502461D02*
D03*
X485532D02*
D03*
X459941Y180709D02*
D03*
X443012D02*
D03*
X417421D02*
D03*
X400492D02*
D03*
X374508Y180315D02*
D03*
X357579D02*
D03*
D106*
X581496Y60039D02*
D03*
X562992D02*
D03*
X544488D02*
D03*
D107*
X572025Y463386D02*
D03*
X579921Y500787D02*
D03*
X495669Y553543D02*
D03*
X478740Y541732D02*
D03*
X538189Y538583D02*
D03*
X521260Y531890D02*
D03*
X531496Y416535D02*
D03*
X530709Y427165D02*
D03*
Y435433D02*
D03*
X316142Y186221D02*
D03*
X381890Y294882D02*
D03*
X497244Y246260D02*
D03*
X501968Y248425D02*
D03*
X492520Y242913D02*
D03*
X512077Y284508D02*
D03*
X409154Y443307D02*
D03*
X407480Y450787D02*
D03*
X419291Y429134D02*
D03*
X405905Y457087D02*
D03*
X419153Y210630D02*
D03*
X503937Y398031D02*
D03*
X324016Y158501D02*
D03*
X316142Y175984D02*
D03*
X324016Y186614D02*
D03*
X327165Y237008D02*
D03*
X330315Y453937D02*
D03*
X333465Y445276D02*
D03*
X491339Y437402D02*
D03*
X635335Y515354D02*
D03*
X610138Y384390D02*
D03*
X632283Y372047D02*
D03*
X624409Y365748D02*
D03*
X616929Y373622D02*
D03*
X677953Y414961D02*
D03*
X691339Y401575D02*
D03*
X684646Y385039D02*
D03*
X601181Y469685D02*
D03*
X611811Y259449D02*
D03*
X672047Y257874D02*
D03*
X689370Y267323D02*
D03*
X662303Y301969D02*
D03*
X609685Y420472D02*
D03*
X640551Y320079D02*
D03*
X476378Y618898D02*
D03*
X622441Y340158D02*
D03*
X577559Y357874D02*
D03*
X514173Y239370D02*
D03*
X478740Y246850D02*
D03*
X383268Y288583D02*
D03*
X671260Y352756D02*
D03*
X685039Y362598D02*
D03*
X432283Y372047D02*
D03*
X433070Y362598D02*
D03*
X488091Y368012D02*
D03*
X388976Y374016D02*
D03*
X339763Y266535D02*
D03*
X336643Y250787D02*
D03*
X366535Y577165D02*
D03*
Y581791D02*
D03*
X351378Y584252D02*
D03*
X346850Y587499D02*
D03*
X324016Y59842D02*
D03*
X624409Y94095D02*
D03*
X635039Y104724D02*
D03*
X578740Y124016D02*
D03*
X582283Y110236D02*
D03*
X496850Y61811D02*
D03*
X332677Y142913D02*
D03*
X405118Y54724D02*
D03*
X455413Y105512D02*
D03*
X509449Y103937D02*
D03*
X567717Y115354D02*
D03*
X587402Y114567D02*
D03*
X375197Y512598D02*
D03*
X346063Y431890D02*
D03*
X355512Y441339D02*
D03*
X344488Y540551D02*
D03*
X403937Y565748D02*
D03*
X404331Y330512D02*
D03*
X593504Y458661D02*
D03*
X655118D02*
D03*
X596457Y308268D02*
D03*
X594095Y296457D02*
D03*
Y281102D02*
D03*
X403543Y510236D02*
D03*
X392126Y534646D02*
D03*
X495276Y502756D02*
D03*
X496457Y479921D02*
D03*
X677165Y434646D02*
D03*
X672441Y402362D02*
D03*
X672835Y361811D02*
D03*
X668504Y286221D02*
D03*
X324016Y469291D02*
D03*
X494488Y509449D02*
D03*
X484252Y513779D02*
D03*
X471654Y393701D02*
D03*
X582677Y600591D02*
D03*
Y557300D02*
D03*
X524803Y562732D02*
D03*
X493701Y627651D02*
D03*
X519291Y628721D02*
D03*
X572025Y173622D02*
D03*
X561811Y183836D02*
D03*
X374705Y342903D02*
D03*
X352362Y313779D02*
D03*
X374705Y361024D02*
D03*
X538878Y484917D02*
D03*
X538583Y498425D02*
D03*
X425934Y514567D02*
D03*
X364745Y568504D02*
D03*
X498032Y335546D02*
D03*
X380315Y268898D02*
D03*
X376181Y278740D02*
D03*
X391732Y288583D02*
D03*
X389764Y258661D02*
D03*
X494095Y367815D02*
D03*
X608661Y357480D02*
D03*
Y343307D02*
D03*
X484252Y478346D02*
D03*
X451968Y494882D02*
D03*
X429528Y304331D02*
D03*
X595276Y318504D02*
D03*
X597638Y328740D02*
D03*
X531496Y330709D02*
D03*
X488091Y400689D02*
D03*
X401968Y243307D02*
D03*
X442126Y341732D02*
D03*
X357087Y307087D02*
D03*
X490551Y547244D02*
D03*
X436279Y592461D02*
D03*
X600000Y637795D02*
D03*
X544488Y540551D02*
D03*
X549390Y384252D02*
D03*
X537795D02*
D03*
X527165Y384646D02*
D03*
X513779Y385039D02*
D03*
X548819Y394882D02*
D03*
X538189Y395276D02*
D03*
X487795Y240158D02*
D03*
X544390Y239606D02*
D03*
X534390Y240158D02*
D03*
X524409Y239764D02*
D03*
X595669Y440158D02*
D03*
X605118Y214567D02*
D03*
X580315Y199803D02*
D03*
X572185Y407618D02*
D03*
X471260Y442520D02*
D03*
X579134Y345276D02*
D03*
X394094Y553543D02*
D03*
X372441Y291339D02*
D03*
X352756Y278346D02*
D03*
X606693Y222047D02*
D03*
X416142Y455905D02*
D03*
X544232Y212205D02*
D03*
X376181Y205512D02*
D03*
X327165Y462598D02*
D03*
X614173Y212205D02*
D03*
X534232Y216929D02*
D03*
X640158Y498032D02*
D03*
X476772Y517717D02*
D03*
X413779Y243307D02*
D03*
X464567Y409547D02*
D03*
X456693D02*
D03*
X444488Y592520D02*
D03*
X485433Y535138D02*
D03*
X410236Y301181D02*
D03*
X350394Y579528D02*
D03*
X490551Y334252D02*
D03*
X485532Y335433D02*
D03*
X513386Y409842D02*
D03*
X516929Y404724D02*
D03*
X510236Y416142D02*
D03*
X428346Y368898D02*
D03*
Y362205D02*
D03*
X385433Y408661D02*
D03*
X393110D02*
D03*
X392126Y378740D02*
D03*
X378229Y395669D02*
D03*
X392126D02*
D03*
X453937Y341929D02*
D03*
X452362Y322047D02*
D03*
X458661Y328740D02*
D03*
X453346Y347835D02*
D03*
X448032Y323622D02*
D03*
X438583Y246457D02*
D03*
X478346Y259842D02*
D03*
X438583Y260630D02*
D03*
Y253543D02*
D03*
X534390Y544882D02*
D03*
X466929Y562598D02*
D03*
X534252Y577165D02*
D03*
X560236Y605905D02*
D03*
X521457Y600591D02*
D03*
X515748Y566142D02*
D03*
X505512Y562205D02*
D03*
X461476Y618898D02*
D03*
X460630Y598032D02*
D03*
X455630Y598307D02*
D03*
X531102Y642913D02*
D03*
X359055Y511024D02*
D03*
X384252Y509449D02*
D03*
X392520Y519685D02*
D03*
X410630Y519291D02*
D03*
X436339Y330512D02*
D03*
X578346Y444882D02*
D03*
X579134Y427165D02*
D03*
X547638Y284843D02*
D03*
X534390Y284508D02*
D03*
X517323Y284646D02*
D03*
X575591Y342126D02*
D03*
X581890Y353937D02*
D03*
X589764Y350787D02*
D03*
X596063Y367717D02*
D03*
X597244Y350394D02*
D03*
X602756Y340945D02*
D03*
X379528Y556693D02*
D03*
D108*
X425197Y257283D02*
D03*
X433071Y253543D02*
D03*
Y261024D02*
D03*
D109*
X389272Y422047D02*
D03*
X385531Y414173D02*
D03*
X393012D02*
D03*
D110*
X320768Y584331D02*
D03*
Y586890D02*
D03*
Y592008D02*
D03*
Y589449D02*
D03*
Y581772D02*
D03*
D111*
X310236Y591614D02*
D03*
Y582165D02*
D03*
D112*
X319882Y599488D02*
D03*
Y574291D02*
D03*
D113*
X656299Y434646D02*
Y446457D01*
M02*
