G04*
G04 #@! TF.GenerationSoftware,Altium Limited,Altium Designer,18.1.9 (240)*
G04*
G04 Layer_Physical_Order=2*
G04 Layer_Color=16711680*
%FSLAX44Y44*%
%MOMM*%
G71*
G01*
G75*
%ADD22R,0.9500X0.8500*%
%ADD24R,0.8500X0.9500*%
G04:AMPARAMS|DCode=26|XSize=2.52mm|YSize=1.75mm|CornerRadius=0.4375mm|HoleSize=0mm|Usage=FLASHONLY|Rotation=180.000|XOffset=0mm|YOffset=0mm|HoleType=Round|Shape=RoundedRectangle|*
%AMROUNDEDRECTD26*
21,1,2.5200,0.8750,0,0,180.0*
21,1,1.6450,1.7500,0,0,180.0*
1,1,0.8750,-0.8225,0.4375*
1,1,0.8750,0.8225,0.4375*
1,1,0.8750,0.8225,-0.4375*
1,1,0.8750,-0.8225,-0.4375*
%
%ADD26ROUNDEDRECTD26*%
%ADD58C,0.6350*%
%ADD60C,2.0000*%
%ADD61C,3.0000*%
%ADD62C,1.7500*%
%ADD63C,3.5000*%
%ADD64C,2.4000*%
%ADD65O,1.5000X2.5000*%
%ADD66O,3.0000X1.5000*%
%ADD67O,3.0000X2.0000*%
%ADD68C,1.2700*%
%ADD69C,6.0000*%
%ADD70R,0.9000X1.0000*%
%ADD71C,0.8890*%
G36*
X715000Y279327D02*
X699525D01*
Y293290D01*
X698062D01*
Y306710D01*
X699525D01*
Y319710D01*
Y323325D01*
X692234D01*
X684945D01*
Y319327D01*
X538914D01*
X258882Y599358D01*
X258967Y600000D01*
X258661Y602321D01*
X257765Y604483D01*
X256340Y606340D01*
X254483Y607765D01*
X252321Y608661D01*
X250000Y608967D01*
X247679Y608661D01*
X245517Y607765D01*
X243660Y606340D01*
X242235Y604483D01*
X241339Y602321D01*
X241033Y600000D01*
X241339Y597679D01*
X242235Y595517D01*
X243660Y593660D01*
X245517Y592235D01*
X247679Y591339D01*
X250000Y591033D01*
X250642Y591118D01*
X532380Y309380D01*
X534270Y308117D01*
X536500Y307673D01*
X684945D01*
Y306710D01*
X686408D01*
Y293290D01*
X684945D01*
Y279710D01*
Y266710D01*
X699525D01*
Y267673D01*
X715000D01*
Y10000D01*
X680867D01*
X680241Y11270D01*
X681265Y12605D01*
X681807Y13913D01*
X665193D01*
X665735Y12605D01*
X666759Y11270D01*
X666133Y10000D01*
X536368D01*
X535098Y10000D01*
Y145000D01*
X534710Y146951D01*
X533605Y148605D01*
X531951Y149710D01*
X530000Y150098D01*
X225098D01*
Y200000D01*
X224710Y201951D01*
X223605Y203605D01*
X221951Y204710D01*
X220000Y205098D01*
X105000D01*
X103049Y204710D01*
X101395Y203605D01*
X100290Y201951D01*
X99902Y200000D01*
X99902Y145000D01*
X99902Y45000D01*
X100290Y43049D01*
X101395Y41395D01*
X131617Y11173D01*
X131131Y10000D01*
X15000D01*
X15000Y990000D01*
X715000Y990000D01*
X715000Y279327D01*
D02*
G37*
G36*
X220000Y199498D02*
X220000D01*
X220000Y199498D01*
Y150098D01*
Y145000D01*
X528938D01*
X530000Y144498D01*
X530000D01*
X530000Y144498D01*
Y10000D01*
X140000D01*
X135222Y14778D01*
X128740Y21260D01*
X105355Y44645D01*
X105092Y45038D01*
X105000Y45502D01*
X105000Y145000D01*
X105000Y199498D01*
X105083Y199917D01*
X105502Y200000D01*
X218938D01*
X220000Y199498D01*
D02*
G37*
%LPC*%
G36*
X52550Y987391D02*
Y958175D01*
X81766D01*
X81614Y960106D01*
X80418Y965087D01*
X78458Y969818D01*
X75782Y974186D01*
X72456Y978080D01*
X68561Y981407D01*
X64194Y984083D01*
X59462Y986043D01*
X54481Y987239D01*
X52550Y987391D01*
D02*
G37*
G36*
X46200D02*
X44269Y987239D01*
X39289Y986043D01*
X34557Y984083D01*
X30189Y981407D01*
X26295Y978080D01*
X22968Y974186D01*
X20292Y969818D01*
X18332Y965087D01*
X17136Y960106D01*
X16984Y958175D01*
X46200D01*
Y987391D01*
D02*
G37*
G36*
X81766Y951825D02*
X52550D01*
Y922609D01*
X54481Y922761D01*
X59462Y923957D01*
X64194Y925917D01*
X68561Y928593D01*
X72456Y931920D01*
X75782Y935814D01*
X78458Y940182D01*
X80418Y944913D01*
X81614Y949894D01*
X81766Y951825D01*
D02*
G37*
G36*
X46200D02*
X16984D01*
X17136Y949894D01*
X18332Y944913D01*
X20292Y940182D01*
X22968Y935814D01*
X26295Y931920D01*
X30189Y928593D01*
X34557Y925917D01*
X39289Y923957D01*
X44269Y922761D01*
X46200Y922609D01*
Y951825D01*
D02*
G37*
G36*
X64975Y876324D02*
Y859675D01*
X81624D01*
X81550Y860428D01*
X80404Y864206D01*
X78543Y867688D01*
X76039Y870739D01*
X72987Y873243D01*
X69506Y875104D01*
X65729Y876250D01*
X64975Y876324D01*
D02*
G37*
G36*
X58625D02*
X57871Y876250D01*
X54094Y875104D01*
X50613Y873243D01*
X47561Y870739D01*
X45057Y867688D01*
X43196Y864206D01*
X42050Y860428D01*
X41976Y859675D01*
X58625D01*
Y876324D01*
D02*
G37*
G36*
X81624Y853325D02*
X64975D01*
Y836676D01*
X65729Y836750D01*
X69506Y837896D01*
X72987Y839757D01*
X76039Y842261D01*
X78543Y845312D01*
X80404Y848794D01*
X81550Y852571D01*
X81624Y853325D01*
D02*
G37*
G36*
X58625D02*
X41976D01*
X42050Y852571D01*
X43196Y848794D01*
X45057Y845312D01*
X47561Y842261D01*
X50613Y839757D01*
X54094Y837896D01*
X57871Y836750D01*
X58625Y836676D01*
Y853325D01*
D02*
G37*
G36*
X105000Y846387D02*
X102053Y845999D01*
X99306Y844862D01*
X96948Y843052D01*
X95138Y840694D01*
X94001Y837947D01*
X93613Y835000D01*
X94001Y832053D01*
X95138Y829306D01*
X96948Y826948D01*
X99306Y825138D01*
X102053Y824001D01*
X105000Y823613D01*
X107947Y824001D01*
X110694Y825138D01*
X113052Y826948D01*
X114862Y829306D01*
X115999Y832053D01*
X116387Y835000D01*
X115999Y837947D01*
X114862Y840694D01*
X113052Y843052D01*
X110694Y844862D01*
X107947Y845999D01*
X105000Y846387D01*
D02*
G37*
G36*
X689675Y818307D02*
Y813175D01*
X694807D01*
X694265Y814483D01*
X692840Y816340D01*
X690983Y817765D01*
X689675Y818307D01*
D02*
G37*
G36*
X683325D02*
X682017Y817765D01*
X680160Y816340D01*
X678735Y814483D01*
X678193Y813175D01*
X683325D01*
Y818307D01*
D02*
G37*
G36*
X245000Y829967D02*
X242679Y829661D01*
X240517Y828765D01*
X238660Y827340D01*
X238266Y826827D01*
X165000D01*
X162770Y826383D01*
X160880Y825120D01*
X146586Y810827D01*
X114760D01*
X113052Y813052D01*
X110694Y814862D01*
X107947Y815999D01*
X105000Y816387D01*
X102053Y815999D01*
X99306Y814862D01*
X96948Y813052D01*
X95138Y810694D01*
X94001Y807947D01*
X93613Y805000D01*
X94001Y802053D01*
X95138Y799306D01*
X96948Y796948D01*
X99306Y795138D01*
X102053Y794001D01*
X105000Y793613D01*
X107947Y794001D01*
X110694Y795138D01*
X113052Y796948D01*
X114760Y799173D01*
X149000D01*
X151230Y799617D01*
X153120Y800880D01*
X167414Y815173D01*
X238266D01*
X238660Y814660D01*
X240517Y813235D01*
X242679Y812339D01*
X245000Y812033D01*
X247321Y812339D01*
X249483Y813235D01*
X251340Y814660D01*
X252765Y816517D01*
X253661Y818679D01*
X253967Y821000D01*
X253661Y823321D01*
X252765Y825483D01*
X251340Y827340D01*
X249483Y828765D01*
X247321Y829661D01*
X245000Y829967D01*
D02*
G37*
G36*
X694807Y806825D02*
X689675D01*
Y801693D01*
X690983Y802235D01*
X692840Y803660D01*
X694265Y805517D01*
X694807Y806825D01*
D02*
G37*
G36*
X683325D02*
X678193D01*
X678735Y805517D01*
X680160Y803660D01*
X682017Y802235D01*
X683325Y801693D01*
Y806825D01*
D02*
G37*
G36*
X64975Y803324D02*
Y786675D01*
X81624D01*
X81550Y787429D01*
X80404Y791206D01*
X78543Y794688D01*
X76039Y797739D01*
X72987Y800243D01*
X69506Y802104D01*
X65729Y803250D01*
X64975Y803324D01*
D02*
G37*
G36*
X58625D02*
X57871Y803250D01*
X54094Y802104D01*
X50613Y800243D01*
X47561Y797739D01*
X45057Y794688D01*
X43196Y791206D01*
X42050Y787429D01*
X41976Y786675D01*
X58625D01*
Y803324D01*
D02*
G37*
G36*
X81624Y780325D02*
X64975D01*
Y763676D01*
X65729Y763750D01*
X69506Y764896D01*
X72987Y766757D01*
X76039Y769261D01*
X78543Y772312D01*
X80404Y775794D01*
X81550Y779572D01*
X81624Y780325D01*
D02*
G37*
G36*
X58625D02*
X41976D01*
X42050Y779572D01*
X43196Y775794D01*
X45057Y772312D01*
X47561Y769261D01*
X50613Y766757D01*
X54094Y764896D01*
X57871Y763750D01*
X58625Y763676D01*
Y780325D01*
D02*
G37*
G36*
X686500Y758307D02*
Y753175D01*
X691632D01*
X691090Y754483D01*
X689665Y756340D01*
X687808Y757765D01*
X686500Y758307D01*
D02*
G37*
G36*
X680150D02*
X678842Y757765D01*
X676985Y756340D01*
X675560Y754483D01*
X675018Y753175D01*
X680150D01*
Y758307D01*
D02*
G37*
G36*
X523175D02*
Y753175D01*
X528307D01*
X527765Y754483D01*
X526340Y756340D01*
X524483Y757765D01*
X523175Y758307D01*
D02*
G37*
G36*
X516825D02*
X515517Y757765D01*
X513660Y756340D01*
X512235Y754483D01*
X511693Y753175D01*
X516825D01*
Y758307D01*
D02*
G37*
G36*
X691632Y746825D02*
X686500D01*
Y741693D01*
X687808Y742235D01*
X689665Y743660D01*
X691090Y745517D01*
X691632Y746825D01*
D02*
G37*
G36*
X680150D02*
X675018D01*
X675560Y745517D01*
X676985Y743660D01*
X678842Y742235D01*
X680150Y741693D01*
Y746825D01*
D02*
G37*
G36*
X528307D02*
X523175D01*
Y741693D01*
X524483Y742235D01*
X526340Y743660D01*
X527765Y745517D01*
X528307Y746825D01*
D02*
G37*
G36*
X516825D02*
X511693D01*
X512235Y745517D01*
X513660Y743660D01*
X515517Y742235D01*
X516825Y741693D01*
Y746825D01*
D02*
G37*
G36*
X64975Y721324D02*
Y704675D01*
X81624D01*
X81550Y705428D01*
X80404Y709206D01*
X78543Y712688D01*
X76039Y715739D01*
X72987Y718243D01*
X69506Y720104D01*
X65729Y721250D01*
X64975Y721324D01*
D02*
G37*
G36*
X58625D02*
X57871Y721250D01*
X54094Y720104D01*
X50613Y718243D01*
X47561Y715739D01*
X45057Y712688D01*
X43196Y709206D01*
X42050Y705428D01*
X41976Y704675D01*
X58625D01*
Y721324D01*
D02*
G37*
G36*
X319905Y693307D02*
Y688175D01*
X325037D01*
X324495Y689483D01*
X323070Y691340D01*
X321213Y692765D01*
X319905Y693307D01*
D02*
G37*
G36*
X313555D02*
X312247Y692765D01*
X310390Y691340D01*
X308965Y689483D01*
X308423Y688175D01*
X313555D01*
Y693307D01*
D02*
G37*
G36*
X81624Y698325D02*
X64975D01*
Y681676D01*
X65729Y681750D01*
X69506Y682896D01*
X72987Y684757D01*
X76039Y687261D01*
X78543Y690312D01*
X80404Y693794D01*
X81550Y697571D01*
X81624Y698325D01*
D02*
G37*
G36*
X58625D02*
X41976D01*
X42050Y697571D01*
X43196Y693794D01*
X45057Y690312D01*
X47561Y687261D01*
X50613Y684757D01*
X54094Y682896D01*
X57871Y681750D01*
X58625Y681676D01*
Y698325D01*
D02*
G37*
G36*
X325037Y681825D02*
X319905D01*
Y676693D01*
X321213Y677235D01*
X323070Y678660D01*
X324495Y680517D01*
X325037Y681825D01*
D02*
G37*
G36*
X313555D02*
X308423D01*
X308965Y680517D01*
X310390Y678660D01*
X312247Y677235D01*
X313555Y676693D01*
Y681825D01*
D02*
G37*
G36*
X105000Y661387D02*
X102053Y660999D01*
X99306Y659862D01*
X96948Y658052D01*
X95138Y655694D01*
X94001Y652947D01*
X93613Y650000D01*
X94001Y647053D01*
X95138Y644306D01*
X96948Y641948D01*
X99306Y640138D01*
X102053Y639001D01*
X105000Y638613D01*
X107947Y639001D01*
X110694Y640138D01*
X113052Y641948D01*
X114862Y644306D01*
X115999Y647053D01*
X116387Y650000D01*
X115999Y652947D01*
X114862Y655694D01*
X113052Y658052D01*
X110694Y659862D01*
X107947Y660999D01*
X105000Y661387D01*
D02*
G37*
G36*
Y691387D02*
X102053Y690999D01*
X99306Y689862D01*
X96948Y688052D01*
X95138Y685694D01*
X94001Y682947D01*
X93613Y680000D01*
X94001Y677053D01*
X95138Y674306D01*
X96948Y671948D01*
X99306Y670138D01*
X102053Y669001D01*
X105000Y668613D01*
X107947Y669001D01*
X110694Y670138D01*
X113052Y671948D01*
X114760Y674173D01*
X131176D01*
X179470Y625880D01*
X181360Y624617D01*
X183590Y624173D01*
X193266D01*
X193660Y623660D01*
X195517Y622235D01*
X197679Y621339D01*
X200000Y621033D01*
X202321Y621339D01*
X204483Y622235D01*
X206340Y623660D01*
X207765Y625517D01*
X208661Y627679D01*
X208967Y630000D01*
X208661Y632321D01*
X207765Y634483D01*
X206340Y636340D01*
X204483Y637765D01*
X202321Y638661D01*
X200000Y638967D01*
X197679Y638661D01*
X195517Y637765D01*
X193660Y636340D01*
X193266Y635827D01*
X186004D01*
X137710Y684120D01*
X135820Y685383D01*
X133590Y685827D01*
X114760D01*
X113052Y688052D01*
X110694Y689862D01*
X107947Y690999D01*
X105000Y691387D01*
D02*
G37*
G36*
X316172Y604807D02*
Y599675D01*
X321304D01*
X320762Y600983D01*
X319337Y602840D01*
X317480Y604265D01*
X316172Y604807D01*
D02*
G37*
G36*
X309822D02*
X308513Y604265D01*
X306656Y602840D01*
X305231Y600983D01*
X304689Y599675D01*
X309822D01*
Y604807D01*
D02*
G37*
G36*
X105000Y631387D02*
X102053Y630999D01*
X99306Y629862D01*
X96948Y628052D01*
X95138Y625694D01*
X94001Y622947D01*
X93613Y620000D01*
X94001Y617053D01*
X95138Y614306D01*
X96948Y611948D01*
X99306Y610138D01*
X102053Y609001D01*
X105000Y608613D01*
X107947Y609001D01*
X110694Y610138D01*
X113052Y611948D01*
X114760Y614173D01*
X131176D01*
X149870Y595480D01*
X151760Y594217D01*
X153990Y593773D01*
X158266D01*
X158660Y593260D01*
X160517Y591835D01*
X162679Y590939D01*
X165000Y590633D01*
X167321Y590939D01*
X169483Y591835D01*
X171340Y593260D01*
X172765Y595117D01*
X173661Y597279D01*
X173967Y599600D01*
X173661Y601921D01*
X172765Y604083D01*
X171340Y605940D01*
X169483Y607365D01*
X167321Y608261D01*
X165000Y608567D01*
X162679Y608261D01*
X160517Y607365D01*
X158660Y605940D01*
X158266Y605427D01*
X156404D01*
X137710Y624120D01*
X135820Y625383D01*
X133590Y625827D01*
X114760D01*
X113052Y628052D01*
X110694Y629862D01*
X107947Y630999D01*
X105000Y631387D01*
D02*
G37*
G36*
X321304Y593325D02*
X316172D01*
Y588193D01*
X317480Y588735D01*
X319337Y590160D01*
X320762Y592017D01*
X321304Y593325D01*
D02*
G37*
G36*
X309822D02*
X304689D01*
X305231Y592017D01*
X306656Y590160D01*
X308513Y588735D01*
X309822Y588193D01*
Y593325D01*
D02*
G37*
G36*
X105000Y601387D02*
X102053Y600999D01*
X99306Y599862D01*
X96948Y598052D01*
X95138Y595694D01*
X94001Y592947D01*
X93613Y590000D01*
X94001Y587053D01*
X95138Y584306D01*
X96948Y581948D01*
X99306Y580138D01*
X102053Y579001D01*
X105000Y578613D01*
X107947Y579001D01*
X110694Y580138D01*
X113052Y581948D01*
X114862Y584306D01*
X115999Y587053D01*
X116387Y590000D01*
X115999Y592947D01*
X114862Y595694D01*
X113052Y598052D01*
X110694Y599862D01*
X107947Y600999D01*
X105000Y601387D01*
D02*
G37*
G36*
X513175Y578537D02*
Y573405D01*
X518307D01*
X517765Y574713D01*
X516340Y576570D01*
X514483Y577995D01*
X513175Y578537D01*
D02*
G37*
G36*
X506825D02*
X505517Y577995D01*
X503660Y576570D01*
X502235Y574713D01*
X501693Y573405D01*
X506825D01*
Y578537D01*
D02*
G37*
G36*
X518307Y567055D02*
X513175D01*
Y561923D01*
X514483Y562465D01*
X516340Y563890D01*
X517765Y565747D01*
X518307Y567055D01*
D02*
G37*
G36*
X506825D02*
X501693D01*
X502235Y565747D01*
X503660Y563890D01*
X505517Y562465D01*
X506825Y561923D01*
Y567055D01*
D02*
G37*
G36*
X105000Y571387D02*
X102053Y570999D01*
X99306Y569862D01*
X96948Y568052D01*
X95138Y565694D01*
X94001Y562947D01*
X93613Y560000D01*
X94001Y557053D01*
X95138Y554306D01*
X96948Y551948D01*
X99306Y550138D01*
X102053Y549001D01*
X105000Y548613D01*
X107947Y549001D01*
X110694Y550138D01*
X113052Y551948D01*
X114862Y554306D01*
X115999Y557053D01*
X116387Y560000D01*
X115999Y562947D01*
X114862Y565694D01*
X113052Y568052D01*
X110694Y569862D01*
X107947Y570999D01*
X105000Y571387D01*
D02*
G37*
G36*
X683175Y542837D02*
Y537705D01*
X688307D01*
X687765Y539013D01*
X686340Y540870D01*
X684483Y542295D01*
X683175Y542837D01*
D02*
G37*
G36*
X676825D02*
X675517Y542295D01*
X673660Y540870D01*
X672235Y539013D01*
X671693Y537705D01*
X676825D01*
Y542837D01*
D02*
G37*
G36*
X688307Y531355D02*
X683175D01*
Y526223D01*
X684483Y526765D01*
X686340Y528190D01*
X687765Y530047D01*
X688307Y531355D01*
D02*
G37*
G36*
X676825D02*
X671693D01*
X672235Y530047D01*
X673660Y528190D01*
X675517Y526765D01*
X676825Y526223D01*
Y531355D01*
D02*
G37*
G36*
X105000Y541387D02*
X102053Y540999D01*
X99306Y539862D01*
X96948Y538052D01*
X95138Y535694D01*
X94001Y532947D01*
X93613Y530000D01*
X94001Y527053D01*
X95138Y524306D01*
X96948Y521948D01*
X99306Y520138D01*
X102053Y519001D01*
X105000Y518613D01*
X107947Y519001D01*
X110694Y520138D01*
X113052Y521948D01*
X114760Y524173D01*
X117586D01*
X140880Y500880D01*
X142770Y499617D01*
X142953Y499580D01*
X143660Y498660D01*
X145517Y497235D01*
X147679Y496339D01*
X150000Y496033D01*
X152321Y496339D01*
X154483Y497235D01*
X156340Y498660D01*
X157765Y500517D01*
X158661Y502679D01*
X158967Y505000D01*
X158661Y507321D01*
X157765Y509483D01*
X156340Y511340D01*
X154483Y512765D01*
X152321Y513661D01*
X150000Y513967D01*
X147679Y513661D01*
X145517Y512765D01*
X145493Y512747D01*
X124120Y534120D01*
X122230Y535383D01*
X120000Y535827D01*
X114760D01*
X113052Y538052D01*
X110694Y539862D01*
X107947Y540999D01*
X105000Y541387D01*
D02*
G37*
G36*
Y511387D02*
X102053Y510999D01*
X99306Y509862D01*
X96948Y508052D01*
X95138Y505694D01*
X94001Y502947D01*
X93613Y500000D01*
X94001Y497053D01*
X95138Y494306D01*
X96948Y491948D01*
X99306Y490138D01*
X102053Y489001D01*
X105000Y488613D01*
X107947Y489001D01*
X110694Y490138D01*
X113052Y491948D01*
X114862Y494306D01*
X115999Y497053D01*
X116387Y500000D01*
X115999Y502947D01*
X114862Y505694D01*
X113052Y508052D01*
X110694Y509862D01*
X107947Y510999D01*
X105000Y511387D01*
D02*
G37*
G36*
X689675Y471607D02*
Y466475D01*
X694807D01*
X694265Y467783D01*
X692840Y469640D01*
X690983Y471065D01*
X689675Y471607D01*
D02*
G37*
G36*
X683325D02*
X682017Y471065D01*
X680160Y469640D01*
X678735Y467783D01*
X678193Y466475D01*
X683325D01*
Y471607D01*
D02*
G37*
G36*
X105000Y481387D02*
X102053Y480999D01*
X99306Y479862D01*
X96948Y478052D01*
X95138Y475694D01*
X94001Y472947D01*
X93613Y470000D01*
X94001Y467053D01*
X95138Y464306D01*
X96948Y461948D01*
X99306Y460138D01*
X102053Y459001D01*
X105000Y458613D01*
X107947Y459001D01*
X110694Y460138D01*
X113052Y461948D01*
X114862Y464306D01*
X115999Y467053D01*
X116387Y470000D01*
X115999Y472947D01*
X114862Y475694D01*
X113052Y478052D01*
X110694Y479862D01*
X107947Y480999D01*
X105000Y481387D01*
D02*
G37*
G36*
X694807Y460125D02*
X689675D01*
Y454993D01*
X690983Y455535D01*
X692840Y456960D01*
X694265Y458817D01*
X694807Y460125D01*
D02*
G37*
G36*
X683325D02*
X678193D01*
X678735Y458817D01*
X680160Y456960D01*
X682017Y455535D01*
X683325Y454993D01*
Y460125D01*
D02*
G37*
G36*
X64975Y468324D02*
Y451675D01*
X81624D01*
X81550Y452429D01*
X80404Y456206D01*
X78543Y459688D01*
X76039Y462739D01*
X72987Y465243D01*
X69506Y467104D01*
X65729Y468250D01*
X64975Y468324D01*
D02*
G37*
G36*
X58625D02*
X57871Y468250D01*
X54094Y467104D01*
X50613Y465243D01*
X47561Y462739D01*
X45057Y459688D01*
X43196Y456206D01*
X42050Y452429D01*
X41976Y451675D01*
X58625D01*
Y468324D01*
D02*
G37*
G36*
X365761Y438307D02*
Y433175D01*
X370894D01*
X370352Y434483D01*
X368927Y436340D01*
X367070Y437765D01*
X365761Y438307D01*
D02*
G37*
G36*
X359411D02*
X358103Y437765D01*
X356246Y436340D01*
X354821Y434483D01*
X354279Y433175D01*
X359411D01*
Y438307D01*
D02*
G37*
G36*
X81624Y445325D02*
X64975D01*
Y428676D01*
X65729Y428750D01*
X69506Y429896D01*
X72987Y431757D01*
X76039Y434261D01*
X78543Y437313D01*
X80404Y440794D01*
X81550Y444571D01*
X81624Y445325D01*
D02*
G37*
G36*
X58625D02*
X41976D01*
X42050Y444571D01*
X43196Y440794D01*
X45057Y437313D01*
X47561Y434261D01*
X50613Y431757D01*
X54094Y429896D01*
X57871Y428750D01*
X58625Y428676D01*
Y445325D01*
D02*
G37*
G36*
X370894Y426825D02*
X365761D01*
Y421693D01*
X367070Y422235D01*
X368927Y423660D01*
X370352Y425517D01*
X370894Y426825D01*
D02*
G37*
G36*
X359411D02*
X354279D01*
X354821Y425517D01*
X356246Y423660D01*
X358103Y422235D01*
X359411Y421693D01*
Y426825D01*
D02*
G37*
G36*
X315026Y494618D02*
X312705Y494312D01*
X310543Y493416D01*
X308685Y491991D01*
X307260Y490134D01*
X306365Y487972D01*
X306059Y485651D01*
X306365Y483330D01*
X307260Y481168D01*
X308685Y479311D01*
X309199Y478917D01*
Y436080D01*
X308685Y435686D01*
X307260Y433829D01*
X306365Y431667D01*
X306059Y429346D01*
X306365Y427025D01*
X307260Y424863D01*
X308685Y423006D01*
X310543Y421581D01*
X312705Y420685D01*
X315026Y420379D01*
X317347Y420685D01*
X319509Y421581D01*
X321366Y423006D01*
X322791Y424863D01*
X323687Y427025D01*
X323993Y429346D01*
X323687Y431667D01*
X322791Y433829D01*
X321366Y435686D01*
X320853Y436080D01*
Y478917D01*
X321366Y479311D01*
X322791Y481168D01*
X323687Y483330D01*
X323993Y485651D01*
X323687Y487972D01*
X322791Y490134D01*
X321366Y491991D01*
X319509Y493416D01*
X317347Y494312D01*
X315026Y494618D01*
D02*
G37*
G36*
X693175Y403307D02*
Y398175D01*
X698307D01*
X697765Y399483D01*
X696340Y401340D01*
X694483Y402765D01*
X693175Y403307D01*
D02*
G37*
G36*
X686825D02*
X685517Y402765D01*
X683660Y401340D01*
X682235Y399483D01*
X681693Y398175D01*
X686825D01*
Y403307D01*
D02*
G37*
G36*
X220000Y773967D02*
X217679Y773661D01*
X215517Y772765D01*
X213660Y771340D01*
X212235Y769483D01*
X211339Y767321D01*
X211033Y765000D01*
X211339Y762679D01*
X212235Y760517D01*
X213660Y758660D01*
X214173Y758266D01*
Y612414D01*
X165880Y564120D01*
X164617Y562230D01*
X164173Y560000D01*
Y411734D01*
X163660Y411340D01*
X162235Y409483D01*
X161339Y407321D01*
X161033Y405000D01*
X161339Y402679D01*
X162235Y400517D01*
X163660Y398660D01*
X165517Y397235D01*
X167679Y396339D01*
X170000Y396033D01*
X172321Y396339D01*
X174483Y397235D01*
X176340Y398660D01*
X177765Y400517D01*
X178661Y402679D01*
X178967Y405000D01*
X178661Y407321D01*
X177765Y409483D01*
X176340Y411340D01*
X175827Y411734D01*
Y557586D01*
X224120Y605880D01*
X225383Y607770D01*
X225827Y610000D01*
Y758266D01*
X226340Y758660D01*
X227765Y760517D01*
X228661Y762679D01*
X228967Y765000D01*
X228661Y767321D01*
X227765Y769483D01*
X226340Y771340D01*
X224483Y772765D01*
X222321Y773661D01*
X220000Y773967D01*
D02*
G37*
G36*
X368175Y398319D02*
Y393186D01*
X373307D01*
X372765Y394495D01*
X371340Y396352D01*
X369483Y397777D01*
X368175Y398319D01*
D02*
G37*
G36*
X361825D02*
X360517Y397777D01*
X358660Y396352D01*
X357235Y394495D01*
X356693Y393186D01*
X361825D01*
Y398319D01*
D02*
G37*
G36*
X698307Y391825D02*
X693175D01*
Y386693D01*
X694483Y387235D01*
X696340Y388660D01*
X697765Y390517D01*
X698307Y391825D01*
D02*
G37*
G36*
X686825D02*
X681693D01*
X682235Y390517D01*
X683660Y388660D01*
X685517Y387235D01*
X686825Y386693D01*
Y391825D01*
D02*
G37*
G36*
X373307Y386837D02*
X368175D01*
Y381704D01*
X369483Y382246D01*
X371340Y383671D01*
X372765Y385528D01*
X373307Y386837D01*
D02*
G37*
G36*
X361825D02*
X356693D01*
X357235Y385528D01*
X358660Y383671D01*
X360517Y382246D01*
X361825Y381704D01*
Y386837D01*
D02*
G37*
G36*
X313575Y382540D02*
X296210D01*
Y380827D01*
X280460D01*
X278230Y380383D01*
X276340Y379120D01*
X275642Y378422D01*
X275000Y378507D01*
X272679Y378201D01*
X270517Y377305D01*
X268660Y375880D01*
X267235Y374023D01*
X266339Y371861D01*
X266033Y369540D01*
X266339Y367219D01*
X267235Y365057D01*
X268660Y363200D01*
X270517Y361775D01*
X272679Y360879D01*
X275000Y360573D01*
X277321Y360879D01*
X279483Y361775D01*
X281340Y363200D01*
X282765Y365057D01*
X283661Y367219D01*
X283918Y369173D01*
X296210D01*
Y367460D01*
X297673D01*
Y357290D01*
X296710D01*
Y342710D01*
X309783D01*
Y313024D01*
X297873Y301113D01*
X296463Y301181D01*
X296340Y301340D01*
X294483Y302765D01*
X292321Y303661D01*
X290000Y303967D01*
X289358Y303882D01*
X281120Y312120D01*
X279230Y313383D01*
X277000Y313827D01*
X208324D01*
X207701Y315333D01*
X205370Y318370D01*
X202333Y320701D01*
X198796Y322166D01*
X195000Y322665D01*
X191204Y322166D01*
X187667Y320701D01*
X184630Y318370D01*
X182299Y315333D01*
X181676Y313827D01*
X153324D01*
X152701Y315333D01*
X150370Y318370D01*
X147333Y320701D01*
X143796Y322166D01*
X140000Y322665D01*
X136204Y322166D01*
X132667Y320701D01*
X129630Y318370D01*
X127299Y315333D01*
X125834Y311796D01*
X125335Y308000D01*
X125834Y304204D01*
X127299Y300667D01*
X129630Y297630D01*
X132667Y295299D01*
X136204Y293834D01*
X140000Y293335D01*
X143796Y293834D01*
X147333Y295299D01*
X150370Y297630D01*
X152701Y300667D01*
X153324Y302173D01*
X181676D01*
X182299Y300667D01*
X184630Y297630D01*
X187667Y295299D01*
X191204Y293834D01*
X195000Y293335D01*
X198796Y293834D01*
X202333Y295299D01*
X205370Y297630D01*
X207701Y300667D01*
X208324Y302173D01*
X274586D01*
X281118Y295642D01*
X281033Y295000D01*
X281339Y292679D01*
X282235Y290517D01*
X283660Y288660D01*
X285517Y287235D01*
X287679Y286339D01*
X290000Y286033D01*
X292321Y286339D01*
X294483Y287235D01*
X296340Y288660D01*
X296734Y289173D01*
X300000D01*
X302230Y289617D01*
X304120Y290880D01*
X319730Y306490D01*
X320993Y308380D01*
X321437Y310610D01*
Y342710D01*
X323290D01*
Y357290D01*
X309327D01*
Y367460D01*
X313575D01*
Y375000D01*
Y382540D01*
D02*
G37*
G36*
X323790D02*
X319925D01*
Y378175D01*
X323790D01*
Y382540D01*
D02*
G37*
G36*
Y371825D02*
X319925D01*
Y367460D01*
X323790D01*
Y371825D01*
D02*
G37*
G36*
X195000Y364665D02*
X191204Y364166D01*
X187667Y362701D01*
X184630Y360370D01*
X182299Y357333D01*
X180834Y353796D01*
X180334Y350000D01*
X180834Y346204D01*
X182299Y342667D01*
X184630Y339630D01*
X187667Y337299D01*
X191204Y335834D01*
X195000Y335335D01*
X198796Y335834D01*
X202333Y337299D01*
X205370Y339630D01*
X207701Y342667D01*
X209166Y346204D01*
X209666Y350000D01*
X209166Y353796D01*
X207701Y357333D01*
X205370Y360370D01*
X202333Y362701D01*
X198796Y364166D01*
X195000Y364665D01*
D02*
G37*
G36*
X140000D02*
X136204Y364166D01*
X132667Y362701D01*
X129630Y360370D01*
X127299Y357333D01*
X125834Y353796D01*
X125335Y350000D01*
X125834Y346204D01*
X127299Y342667D01*
X129630Y339630D01*
X132667Y337299D01*
X136204Y335834D01*
X140000Y335335D01*
X143796Y335834D01*
X147333Y337299D01*
X150370Y339630D01*
X152701Y342667D01*
X154166Y346204D01*
X154665Y350000D01*
X154166Y353796D01*
X152701Y357333D01*
X150370Y360370D01*
X147333Y362701D01*
X143796Y364166D01*
X140000Y364665D01*
D02*
G37*
G36*
X67000Y367625D02*
X63562Y367286D01*
X60255Y366283D01*
X57208Y364655D01*
X54537Y362463D01*
X52345Y359792D01*
X50717Y356745D01*
X49714Y353438D01*
X49375Y350000D01*
X49714Y346562D01*
X50717Y343255D01*
X52345Y340208D01*
X54537Y337537D01*
X57208Y335345D01*
X60255Y333717D01*
X63562Y332714D01*
X67000Y332375D01*
X70438Y332714D01*
X73745Y333717D01*
X76792Y335345D01*
X79463Y337537D01*
X81655Y340208D01*
X83283Y343255D01*
X84286Y346562D01*
X84625Y350000D01*
X84286Y353438D01*
X83283Y356745D01*
X81655Y359792D01*
X79463Y362463D01*
X76792Y364655D01*
X73745Y366283D01*
X70438Y367286D01*
X67000Y367625D01*
D02*
G37*
G36*
X699525Y333290D02*
X695409D01*
Y329675D01*
X699525D01*
Y333290D01*
D02*
G37*
G36*
X689060D02*
X684945D01*
Y329675D01*
X689060D01*
Y333290D01*
D02*
G37*
G36*
X463175Y318307D02*
Y313175D01*
X468307D01*
X467765Y314483D01*
X466340Y316340D01*
X464483Y317765D01*
X463175Y318307D01*
D02*
G37*
G36*
X456825D02*
X455517Y317765D01*
X453660Y316340D01*
X452235Y314483D01*
X451693Y313175D01*
X456825D01*
Y318307D01*
D02*
G37*
G36*
X468307Y306825D02*
X463175D01*
Y301693D01*
X464483Y302235D01*
X466340Y303660D01*
X467765Y305517D01*
X468307Y306825D01*
D02*
G37*
G36*
X456825D02*
X451693D01*
X452235Y305517D01*
X453660Y303660D01*
X455517Y302235D01*
X456825Y301693D01*
Y306825D01*
D02*
G37*
G36*
X143175Y280247D02*
Y269175D01*
X154248D01*
X154166Y269796D01*
X152701Y273333D01*
X150370Y276370D01*
X147333Y278701D01*
X143796Y280166D01*
X143175Y280247D01*
D02*
G37*
G36*
X136825D02*
X136204Y280166D01*
X132667Y278701D01*
X129630Y276370D01*
X127299Y273333D01*
X125834Y269796D01*
X125752Y269175D01*
X136825D01*
Y280247D01*
D02*
G37*
G36*
X198175Y280247D02*
Y269175D01*
X209247D01*
X209166Y269796D01*
X207701Y273333D01*
X205370Y276370D01*
X202333Y278701D01*
X198796Y280166D01*
X198175Y280247D01*
D02*
G37*
G36*
X191825D02*
X191204Y280166D01*
X187667Y278701D01*
X184630Y276370D01*
X182299Y273333D01*
X180834Y269796D01*
X180753Y269175D01*
X191825D01*
Y280247D01*
D02*
G37*
G36*
X326270Y277648D02*
X324445D01*
Y268175D01*
X338500D01*
X338487Y268274D01*
X337224Y271324D01*
X335214Y273944D01*
X332594Y275954D01*
X329544Y277217D01*
X326270Y277648D01*
D02*
G37*
G36*
X318095D02*
X316270D01*
X312996Y277217D01*
X309946Y275954D01*
X307326Y273944D01*
X305316Y271324D01*
X304053Y268274D01*
X304040Y268175D01*
X318095D01*
Y277648D01*
D02*
G37*
G36*
X338500Y261825D02*
X324445D01*
Y252352D01*
X326270D01*
X329544Y252783D01*
X332594Y254046D01*
X335214Y256056D01*
X337224Y258676D01*
X338487Y261726D01*
X338500Y261825D01*
D02*
G37*
G36*
X318095D02*
X304040D01*
X304053Y261726D01*
X305316Y258676D01*
X307326Y256056D01*
X309946Y254046D01*
X312996Y252783D01*
X316270Y252352D01*
X318095D01*
Y261825D01*
D02*
G37*
G36*
X154248Y262825D02*
X143175D01*
Y251752D01*
X143796Y251834D01*
X147333Y253299D01*
X150370Y255630D01*
X152701Y258667D01*
X154166Y262204D01*
X154248Y262825D01*
D02*
G37*
G36*
X136825D02*
X125752D01*
X125834Y262204D01*
X127299Y258667D01*
X129630Y255630D01*
X132667Y253299D01*
X136204Y251834D01*
X136825Y251752D01*
Y262825D01*
D02*
G37*
G36*
X209247Y262825D02*
X198175D01*
Y251752D01*
X198796Y251834D01*
X202333Y253299D01*
X205370Y255630D01*
X207701Y258667D01*
X209166Y262204D01*
X209247Y262825D01*
D02*
G37*
G36*
X191825D02*
X180753D01*
X180834Y262204D01*
X182299Y258667D01*
X184630Y255630D01*
X187667Y253299D01*
X191204Y251834D01*
X191825Y251752D01*
Y262825D01*
D02*
G37*
G36*
X373175Y252512D02*
Y247379D01*
X378307D01*
X377765Y248688D01*
X376340Y250545D01*
X374483Y251970D01*
X373175Y252512D01*
D02*
G37*
G36*
X366825D02*
X365517Y251970D01*
X363660Y250545D01*
X362235Y248688D01*
X361693Y247379D01*
X366825D01*
Y252512D01*
D02*
G37*
G36*
X378307Y241029D02*
X373175D01*
Y235897D01*
X374483Y236439D01*
X376340Y237864D01*
X377765Y239721D01*
X378307Y241029D01*
D02*
G37*
G36*
X366825D02*
X361693D01*
X362235Y239721D01*
X363660Y237864D01*
X365517Y236439D01*
X366825Y235897D01*
Y241029D01*
D02*
G37*
G36*
X143175Y238248D02*
Y227175D01*
X154248D01*
X154166Y227796D01*
X152701Y231333D01*
X150370Y234370D01*
X147333Y236701D01*
X143796Y238166D01*
X143175Y238248D01*
D02*
G37*
G36*
X136825D02*
X136204Y238166D01*
X132667Y236701D01*
X129630Y234370D01*
X127299Y231333D01*
X125834Y227796D01*
X125752Y227175D01*
X136825D01*
Y238248D01*
D02*
G37*
G36*
X198175Y238248D02*
Y227175D01*
X209247D01*
X209166Y227796D01*
X207701Y231333D01*
X205370Y234370D01*
X202333Y236701D01*
X198796Y238166D01*
X198175Y238248D01*
D02*
G37*
G36*
X191825D02*
X191204Y238166D01*
X187667Y236701D01*
X184630Y234370D01*
X182299Y231333D01*
X180834Y227796D01*
X180753Y227175D01*
X191825D01*
Y238248D01*
D02*
G37*
G36*
X678175Y215492D02*
Y210360D01*
X683307D01*
X682765Y211668D01*
X681340Y213525D01*
X679483Y214950D01*
X678175Y215492D01*
D02*
G37*
G36*
X671825D02*
X670517Y214950D01*
X668660Y213525D01*
X667235Y211668D01*
X666693Y210360D01*
X671825D01*
Y215492D01*
D02*
G37*
G36*
X154248Y220825D02*
X143175D01*
Y209753D01*
X143796Y209834D01*
X147333Y211299D01*
X150370Y213630D01*
X152701Y216667D01*
X154166Y220204D01*
X154248Y220825D01*
D02*
G37*
G36*
X136825D02*
X125752D01*
X125834Y220204D01*
X127299Y216667D01*
X129630Y213630D01*
X132667Y211299D01*
X136204Y209834D01*
X136825Y209753D01*
Y220825D01*
D02*
G37*
G36*
X209247Y220825D02*
X198175D01*
Y209753D01*
X198796Y209834D01*
X202333Y211299D01*
X205370Y213630D01*
X207701Y216667D01*
X209166Y220204D01*
X209247Y220825D01*
D02*
G37*
G36*
X191825D02*
X180753D01*
X180834Y220204D01*
X182299Y216667D01*
X184630Y213630D01*
X187667Y211299D01*
X191204Y209834D01*
X191825Y209753D01*
Y220825D01*
D02*
G37*
G36*
X595675Y222312D02*
Y208175D01*
X609812D01*
X609786Y208438D01*
X608783Y211745D01*
X607155Y214792D01*
X604963Y217463D01*
X602292Y219655D01*
X599245Y221283D01*
X595938Y222286D01*
X595675Y222312D01*
D02*
G37*
G36*
X589325D02*
X589062Y222286D01*
X585755Y221283D01*
X582708Y219655D01*
X580037Y217463D01*
X577845Y214792D01*
X576217Y211745D01*
X575214Y208438D01*
X575188Y208175D01*
X589325D01*
Y222312D01*
D02*
G37*
G36*
X253175Y208307D02*
Y203175D01*
X258307D01*
X257765Y204483D01*
X256340Y206340D01*
X254483Y207765D01*
X253175Y208307D01*
D02*
G37*
G36*
X246825D02*
X245517Y207765D01*
X243660Y206340D01*
X242235Y204483D01*
X241693Y203175D01*
X246825D01*
Y208307D01*
D02*
G37*
G36*
X683307Y204010D02*
X678175D01*
Y198877D01*
X679483Y199419D01*
X681340Y200844D01*
X682765Y202701D01*
X683307Y204010D01*
D02*
G37*
G36*
X671825D02*
X666693D01*
X667235Y202701D01*
X668660Y200844D01*
X670517Y199419D01*
X671825Y198877D01*
Y204010D01*
D02*
G37*
G36*
X258307Y196825D02*
X253175D01*
Y191693D01*
X254483Y192235D01*
X256340Y193660D01*
X257765Y195517D01*
X258307Y196825D01*
D02*
G37*
G36*
X246825D02*
X241693D01*
X242235Y195517D01*
X243660Y193660D01*
X245517Y192235D01*
X246825Y191693D01*
Y196825D01*
D02*
G37*
G36*
X703175Y196285D02*
Y191152D01*
X708307D01*
X707765Y192461D01*
X706340Y194318D01*
X704483Y195743D01*
X703175Y196285D01*
D02*
G37*
G36*
X696825D02*
X695517Y195743D01*
X693660Y194318D01*
X692235Y192461D01*
X691693Y191152D01*
X696825D01*
Y196285D01*
D02*
G37*
G36*
X609812Y201825D02*
X595675D01*
Y187688D01*
X595938Y187714D01*
X599245Y188717D01*
X602292Y190345D01*
X604963Y192537D01*
X607155Y195208D01*
X608783Y198255D01*
X609786Y201562D01*
X609812Y201825D01*
D02*
G37*
G36*
X589325D02*
X575188D01*
X575214Y201562D01*
X576217Y198255D01*
X577845Y195208D01*
X580037Y192537D01*
X582708Y190345D01*
X585755Y188717D01*
X589062Y187714D01*
X589325Y187688D01*
Y201825D01*
D02*
G37*
G36*
X708307Y184802D02*
X703175D01*
Y179670D01*
X704483Y180212D01*
X706340Y181637D01*
X707765Y183494D01*
X708307Y184802D01*
D02*
G37*
G36*
X696825D02*
X691693D01*
X692235Y183494D01*
X693660Y181637D01*
X695517Y180212D01*
X696825Y179670D01*
Y184802D01*
D02*
G37*
G36*
X326270Y202648D02*
X316270D01*
X312996Y202217D01*
X309946Y200954D01*
X307326Y198944D01*
X305316Y196324D01*
X304053Y193274D01*
X303622Y190000D01*
X304053Y186726D01*
X305316Y183676D01*
X307326Y181056D01*
X309946Y179046D01*
X312996Y177783D01*
X316270Y177352D01*
X326270D01*
X329544Y177783D01*
X332594Y179046D01*
X335214Y181056D01*
X337224Y183676D01*
X338487Y186726D01*
X338918Y190000D01*
X338487Y193274D01*
X337224Y196324D01*
X335214Y198944D01*
X332594Y200954D01*
X329544Y202217D01*
X326270Y202648D01*
D02*
G37*
G36*
X678175Y179907D02*
Y174775D01*
X683307D01*
X682765Y176083D01*
X681340Y177940D01*
X679483Y179365D01*
X678175Y179907D01*
D02*
G37*
G36*
X671825D02*
X670517Y179365D01*
X668660Y177940D01*
X667235Y176083D01*
X666693Y174775D01*
X671825D01*
Y179907D01*
D02*
G37*
G36*
X683307Y168425D02*
X678175D01*
Y163293D01*
X679483Y163835D01*
X681340Y165260D01*
X682765Y167117D01*
X683307Y168425D01*
D02*
G37*
G36*
X671825D02*
X666693D01*
X667235Y167117D01*
X668660Y165260D01*
X670517Y163835D01*
X671825Y163293D01*
Y168425D01*
D02*
G37*
G36*
X703175Y160492D02*
Y155360D01*
X708307D01*
X707765Y156668D01*
X706340Y158525D01*
X704483Y159950D01*
X703175Y160492D01*
D02*
G37*
G36*
X696825D02*
X695517Y159950D01*
X693660Y158525D01*
X692235Y156668D01*
X691693Y155360D01*
X696825D01*
Y160492D01*
D02*
G37*
G36*
X708307Y149010D02*
X703175D01*
Y143877D01*
X704483Y144419D01*
X706340Y145844D01*
X707765Y147701D01*
X708307Y149010D01*
D02*
G37*
G36*
X696825D02*
X691693D01*
X692235Y147701D01*
X693660Y145844D01*
X695517Y144419D01*
X696825Y143877D01*
Y149010D01*
D02*
G37*
G36*
X678175Y143307D02*
Y138175D01*
X683307D01*
X682765Y139483D01*
X681340Y141340D01*
X679483Y142765D01*
X678175Y143307D01*
D02*
G37*
G36*
X671825D02*
X670517Y142765D01*
X668660Y141340D01*
X667235Y139483D01*
X666693Y138175D01*
X671825D01*
Y143307D01*
D02*
G37*
G36*
X683307Y131825D02*
X678175D01*
Y126693D01*
X679483Y127235D01*
X681340Y128660D01*
X682765Y130517D01*
X683307Y131825D01*
D02*
G37*
G36*
X671825D02*
X666693D01*
X667235Y130517D01*
X668660Y128660D01*
X670517Y127235D01*
X671825Y126693D01*
Y131825D01*
D02*
G37*
G36*
X67000Y157625D02*
X63562Y157286D01*
X60255Y156283D01*
X57208Y154655D01*
X54537Y152463D01*
X52345Y149792D01*
X50717Y146745D01*
X49714Y143438D01*
X49375Y140000D01*
X49714Y136562D01*
X50717Y133255D01*
X52345Y130208D01*
X54537Y127537D01*
X57208Y125345D01*
X60255Y123717D01*
X63562Y122714D01*
X67000Y122375D01*
X70438Y122714D01*
X73745Y123717D01*
X76792Y125345D01*
X79463Y127537D01*
X81655Y130208D01*
X83283Y133255D01*
X84286Y136562D01*
X84625Y140000D01*
X84286Y143438D01*
X83283Y146745D01*
X81655Y149792D01*
X79463Y152463D01*
X76792Y154655D01*
X73745Y156283D01*
X70438Y157286D01*
X67000Y157625D01*
D02*
G37*
G36*
X703175Y118307D02*
Y113175D01*
X708307D01*
X707765Y114483D01*
X706340Y116340D01*
X704483Y117765D01*
X703175Y118307D01*
D02*
G37*
G36*
X696825D02*
X695517Y117765D01*
X693660Y116340D01*
X692235Y114483D01*
X691693Y113175D01*
X696825D01*
Y118307D01*
D02*
G37*
G36*
X708307Y106825D02*
X703175D01*
Y101693D01*
X704483Y102235D01*
X706340Y103660D01*
X707765Y105517D01*
X708307Y106825D01*
D02*
G37*
G36*
X696825D02*
X691693D01*
X692235Y105517D01*
X693660Y103660D01*
X695517Y102235D01*
X696825Y101693D01*
Y106825D01*
D02*
G37*
G36*
X595675Y112312D02*
Y98175D01*
X609812D01*
X609786Y98438D01*
X608783Y101745D01*
X607155Y104792D01*
X604963Y107463D01*
X602292Y109655D01*
X599245Y111283D01*
X595938Y112286D01*
X595675Y112312D01*
D02*
G37*
G36*
X589325D02*
X589062Y112286D01*
X585755Y111283D01*
X582708Y109655D01*
X580037Y107463D01*
X577845Y104792D01*
X576217Y101745D01*
X575214Y98438D01*
X575188Y98175D01*
X589325D01*
Y112312D01*
D02*
G37*
G36*
X678175Y98307D02*
Y93175D01*
X683307D01*
X682765Y94483D01*
X681340Y96340D01*
X679483Y97765D01*
X678175Y98307D01*
D02*
G37*
G36*
X671825D02*
X670517Y97765D01*
X668660Y96340D01*
X667235Y94483D01*
X666693Y93175D01*
X671825D01*
Y98307D01*
D02*
G37*
G36*
X683307Y86825D02*
X678175D01*
Y81693D01*
X679483Y82235D01*
X681340Y83660D01*
X682765Y85517D01*
X683307Y86825D01*
D02*
G37*
G36*
X671825D02*
X666693D01*
X667235Y85517D01*
X668660Y83660D01*
X670517Y82235D01*
X671825Y81693D01*
Y86825D01*
D02*
G37*
G36*
X609812Y91825D02*
X595675D01*
Y77688D01*
X595938Y77714D01*
X599245Y78717D01*
X602292Y80345D01*
X604963Y82537D01*
X607155Y85208D01*
X608783Y88255D01*
X609786Y91561D01*
X609812Y91825D01*
D02*
G37*
G36*
X589325D02*
X575188D01*
X575214Y91561D01*
X576217Y88255D01*
X577845Y85208D01*
X580037Y82537D01*
X582708Y80345D01*
X585755Y78717D01*
X589062Y77714D01*
X589325Y77688D01*
Y91825D01*
D02*
G37*
G36*
X703175Y73307D02*
Y68175D01*
X708307D01*
X707765Y69483D01*
X706340Y71340D01*
X704483Y72765D01*
X703175Y73307D01*
D02*
G37*
G36*
X696825D02*
X695517Y72765D01*
X693660Y71340D01*
X692235Y69483D01*
X691693Y68175D01*
X696825D01*
Y73307D01*
D02*
G37*
G36*
X708307Y61825D02*
X703175D01*
Y56693D01*
X704483Y57235D01*
X706340Y58660D01*
X707765Y60517D01*
X708307Y61825D01*
D02*
G37*
G36*
X696825D02*
X691693D01*
X692235Y60517D01*
X693660Y58660D01*
X695517Y57235D01*
X696825Y56693D01*
Y61825D01*
D02*
G37*
G36*
X592500Y167625D02*
X589062Y167286D01*
X585755Y166283D01*
X582708Y164655D01*
X580037Y162463D01*
X577845Y159792D01*
X576217Y156745D01*
X575214Y153438D01*
X574875Y150000D01*
X575214Y146561D01*
X576217Y143255D01*
X577845Y140208D01*
X580037Y137537D01*
X582708Y135345D01*
X585755Y133717D01*
X589062Y132714D01*
X592500Y132375D01*
X595938Y132714D01*
X598919Y133618D01*
X612955Y119582D01*
Y70418D01*
X598919Y56382D01*
X595938Y57286D01*
X592500Y57625D01*
X589062Y57286D01*
X585755Y56283D01*
X582708Y54654D01*
X580037Y52463D01*
X577845Y49792D01*
X576217Y46745D01*
X575214Y43438D01*
X574875Y40000D01*
X575214Y36562D01*
X576217Y33255D01*
X577845Y30208D01*
X580037Y27537D01*
X582708Y25345D01*
X585755Y23717D01*
X589062Y22714D01*
X592500Y22375D01*
X595938Y22714D01*
X599245Y23717D01*
X602292Y25345D01*
X604963Y27537D01*
X607155Y30208D01*
X608783Y33255D01*
X609786Y36562D01*
X610125Y40000D01*
X609786Y43438D01*
X608882Y46419D01*
X624982Y62518D01*
X626101Y63977D01*
X626805Y65677D01*
X627045Y67500D01*
Y122500D01*
X626805Y124323D01*
X626101Y126023D01*
X624982Y127482D01*
X608882Y143581D01*
X609786Y146561D01*
X610125Y150000D01*
X609786Y153438D01*
X608783Y156745D01*
X607155Y159792D01*
X604963Y162463D01*
X602292Y164655D01*
X599245Y166283D01*
X595938Y167286D01*
X592500Y167625D01*
D02*
G37*
G36*
X678175Y58402D02*
Y53270D01*
X683307D01*
X682765Y54578D01*
X681340Y56435D01*
X679483Y57860D01*
X678175Y58402D01*
D02*
G37*
G36*
X671825D02*
X670517Y57860D01*
X668660Y56435D01*
X667235Y54578D01*
X666693Y53270D01*
X671825D01*
Y58402D01*
D02*
G37*
G36*
X52550Y82391D02*
Y53175D01*
X81766D01*
X81614Y55106D01*
X80418Y60086D01*
X78458Y64819D01*
X75782Y69186D01*
X72456Y73080D01*
X68561Y76407D01*
X64194Y79083D01*
X59462Y81043D01*
X54481Y82239D01*
X52550Y82391D01*
D02*
G37*
G36*
X46200D02*
X44269Y82239D01*
X39289Y81043D01*
X34557Y79083D01*
X30189Y76407D01*
X26295Y73080D01*
X22968Y69186D01*
X20292Y64819D01*
X18332Y60086D01*
X17136Y55106D01*
X16984Y53175D01*
X46200D01*
Y82391D01*
D02*
G37*
G36*
X683307Y46919D02*
X678175D01*
Y41787D01*
X679483Y42329D01*
X681340Y43754D01*
X682765Y45611D01*
X683307Y46919D01*
D02*
G37*
G36*
X671825D02*
X666693D01*
X667235Y45611D01*
X668660Y43754D01*
X670517Y42329D01*
X671825Y41787D01*
Y46919D01*
D02*
G37*
G36*
X703175Y37003D02*
Y31870D01*
X708307D01*
X707765Y33179D01*
X706340Y35036D01*
X704483Y36461D01*
X703175Y37003D01*
D02*
G37*
G36*
X696825D02*
X695517Y36461D01*
X693660Y35036D01*
X692235Y33179D01*
X691693Y31870D01*
X696825D01*
Y37003D01*
D02*
G37*
G36*
X708307Y25520D02*
X703175D01*
Y20388D01*
X704483Y20930D01*
X706340Y22355D01*
X707765Y24212D01*
X708307Y25520D01*
D02*
G37*
G36*
X696825D02*
X691693D01*
X692235Y24212D01*
X693660Y22355D01*
X695517Y20930D01*
X696825Y20388D01*
Y25520D01*
D02*
G37*
G36*
X676675Y25396D02*
Y20263D01*
X681807D01*
X681265Y21572D01*
X679840Y23429D01*
X677983Y24854D01*
X676675Y25396D01*
D02*
G37*
G36*
X670325D02*
X669017Y24854D01*
X667160Y23429D01*
X665735Y21572D01*
X665193Y20263D01*
X670325D01*
Y25396D01*
D02*
G37*
G36*
X81766Y46825D02*
X52550D01*
Y17609D01*
X54481Y17761D01*
X59462Y18957D01*
X64194Y20917D01*
X68561Y23593D01*
X72456Y26920D01*
X75782Y30814D01*
X78458Y35182D01*
X80418Y39913D01*
X81614Y44894D01*
X81766Y46825D01*
D02*
G37*
G36*
X46200D02*
X16984D01*
X17136Y44894D01*
X18332Y39913D01*
X20292Y35182D01*
X22968Y30814D01*
X26295Y26920D01*
X30189Y23593D01*
X34557Y20917D01*
X39289Y18957D01*
X44269Y17761D01*
X46200Y17609D01*
Y46825D01*
D02*
G37*
G36*
X198175Y196248D02*
Y185175D01*
X209247D01*
X209166Y185796D01*
X207701Y189333D01*
X205370Y192370D01*
X202333Y194701D01*
X198796Y196166D01*
X198175Y196248D01*
D02*
G37*
G36*
X143175D02*
Y185175D01*
X154248D01*
X154166Y185796D01*
X152701Y189333D01*
X150370Y192370D01*
X147333Y194701D01*
X143796Y196166D01*
X143175Y196248D01*
D02*
G37*
G36*
X191825D02*
X191204Y196166D01*
X187667Y194701D01*
X184630Y192370D01*
X182299Y189333D01*
X180834Y185796D01*
X180753Y185175D01*
X191825D01*
Y196248D01*
D02*
G37*
G36*
X136825D02*
X136204Y196166D01*
X132667Y194701D01*
X129630Y192370D01*
X127299Y189333D01*
X125834Y185796D01*
X125752Y185175D01*
X136825D01*
Y196248D01*
D02*
G37*
G36*
X209247Y178825D02*
X198175D01*
Y167752D01*
X198796Y167834D01*
X202333Y169299D01*
X205370Y171630D01*
X207701Y174667D01*
X209166Y178204D01*
X209247Y178825D01*
D02*
G37*
G36*
X154248D02*
X143175D01*
Y167752D01*
X143796Y167834D01*
X147333Y169299D01*
X150370Y171630D01*
X152701Y174667D01*
X154166Y178204D01*
X154248Y178825D01*
D02*
G37*
G36*
X191825D02*
X180753D01*
X180834Y178204D01*
X182299Y174667D01*
X184630Y171630D01*
X187667Y169299D01*
X191204Y167834D01*
X191825Y167752D01*
Y178825D01*
D02*
G37*
G36*
X136825D02*
X125752D01*
X125834Y178204D01*
X127299Y174667D01*
X129630Y171630D01*
X132667Y169299D01*
X136204Y167834D01*
X136825Y167752D01*
Y178825D01*
D02*
G37*
G36*
X143175Y154248D02*
Y143175D01*
X154248D01*
X154166Y143796D01*
X152701Y147333D01*
X150370Y150370D01*
X147333Y152701D01*
X143796Y154166D01*
X143175Y154248D01*
D02*
G37*
G36*
X136825D02*
X136204Y154166D01*
X132667Y152701D01*
X129630Y150370D01*
X127299Y147333D01*
X125834Y143796D01*
X125752Y143175D01*
X136825D01*
Y154248D01*
D02*
G37*
G36*
X198175Y154247D02*
Y143175D01*
X209247D01*
X209166Y143796D01*
X207701Y147333D01*
X205370Y150370D01*
X202333Y152701D01*
X198796Y154166D01*
X198175Y154247D01*
D02*
G37*
G36*
X191825D02*
X191204Y154166D01*
X187667Y152701D01*
X184630Y150370D01*
X182299Y147333D01*
X180834Y143796D01*
X180753Y143175D01*
X191825D01*
Y154247D01*
D02*
G37*
G36*
X154248Y136825D02*
X143175D01*
Y125752D01*
X143796Y125834D01*
X147333Y127299D01*
X150370Y129630D01*
X152701Y132667D01*
X154166Y136204D01*
X154248Y136825D01*
D02*
G37*
G36*
X136825D02*
X125752D01*
X125834Y136204D01*
X127299Y132667D01*
X129630Y129630D01*
X132667Y127299D01*
X136204Y125834D01*
X136825Y125752D01*
Y136825D01*
D02*
G37*
G36*
X209247Y136825D02*
X198175D01*
Y125752D01*
X198796Y125834D01*
X202333Y127299D01*
X205370Y129630D01*
X207701Y132667D01*
X209166Y136204D01*
X209247Y136825D01*
D02*
G37*
G36*
X191825D02*
X180753D01*
X180834Y136204D01*
X182299Y132667D01*
X184630Y129630D01*
X187667Y127299D01*
X191204Y125834D01*
X191825Y125752D01*
Y136825D01*
D02*
G37*
G36*
X404356Y118307D02*
Y113175D01*
X409489D01*
X408947Y114483D01*
X407522Y116340D01*
X405665Y117765D01*
X404356Y118307D01*
D02*
G37*
G36*
X398006D02*
X396698Y117765D01*
X394841Y116340D01*
X393416Y114483D01*
X392874Y113175D01*
X398006D01*
Y118307D01*
D02*
G37*
G36*
X370675D02*
Y113175D01*
X375807D01*
X375265Y114483D01*
X373840Y116340D01*
X371983Y117765D01*
X370675Y118307D01*
D02*
G37*
G36*
X364325D02*
X363017Y117765D01*
X361160Y116340D01*
X359735Y114483D01*
X359193Y113175D01*
X364325D01*
Y118307D01*
D02*
G37*
G36*
X333195D02*
Y113175D01*
X338327D01*
X337785Y114483D01*
X336360Y116340D01*
X334503Y117765D01*
X333195Y118307D01*
D02*
G37*
G36*
X326845D02*
X325537Y117765D01*
X323680Y116340D01*
X322255Y114483D01*
X321713Y113175D01*
X326845D01*
Y118307D01*
D02*
G37*
G36*
X294356D02*
Y113175D01*
X299489D01*
X298947Y114483D01*
X297522Y116340D01*
X295665Y117765D01*
X294356Y118307D01*
D02*
G37*
G36*
X288006D02*
X286698Y117765D01*
X284841Y116340D01*
X283416Y114483D01*
X282874Y113175D01*
X288006D01*
Y118307D01*
D02*
G37*
G36*
X256856D02*
Y113175D01*
X261989D01*
X261447Y114483D01*
X260022Y116340D01*
X258165Y117765D01*
X256856Y118307D01*
D02*
G37*
G36*
X250506D02*
X249198Y117765D01*
X247341Y116340D01*
X245916Y114483D01*
X245374Y113175D01*
X250506D01*
Y118307D01*
D02*
G37*
G36*
X409489Y106825D02*
X404356D01*
Y101693D01*
X405665Y102235D01*
X407522Y103660D01*
X408947Y105517D01*
X409489Y106825D01*
D02*
G37*
G36*
X398006D02*
X392874D01*
X393416Y105517D01*
X394841Y103660D01*
X396698Y102235D01*
X398006Y101693D01*
Y106825D01*
D02*
G37*
G36*
X375807D02*
X370675D01*
Y101693D01*
X371983Y102235D01*
X373840Y103660D01*
X375265Y105517D01*
X375807Y106825D01*
D02*
G37*
G36*
X364325D02*
X359193D01*
X359735Y105517D01*
X361160Y103660D01*
X363017Y102235D01*
X364325Y101693D01*
Y106825D01*
D02*
G37*
G36*
X338327D02*
X333195D01*
Y101693D01*
X334503Y102235D01*
X336360Y103660D01*
X337785Y105517D01*
X338327Y106825D01*
D02*
G37*
G36*
X326845D02*
X321713D01*
X322255Y105517D01*
X323680Y103660D01*
X325537Y102235D01*
X326845Y101693D01*
Y106825D01*
D02*
G37*
G36*
X299489D02*
X294356D01*
Y101693D01*
X295665Y102235D01*
X297522Y103660D01*
X298947Y105517D01*
X299489Y106825D01*
D02*
G37*
G36*
X288006D02*
X282874D01*
X283416Y105517D01*
X284841Y103660D01*
X286698Y102235D01*
X288006Y101693D01*
Y106825D01*
D02*
G37*
G36*
X261989D02*
X256856D01*
Y101693D01*
X258165Y102235D01*
X260022Y103660D01*
X261447Y105517D01*
X261989Y106825D01*
D02*
G37*
G36*
X250506D02*
X245374D01*
X245916Y105517D01*
X247341Y103660D01*
X249198Y102235D01*
X250506Y101693D01*
Y106825D01*
D02*
G37*
G36*
X404356Y88307D02*
Y83175D01*
X409489D01*
X408947Y84483D01*
X407522Y86340D01*
X405665Y87765D01*
X404356Y88307D01*
D02*
G37*
G36*
X398006D02*
X396698Y87765D01*
X394841Y86340D01*
X393416Y84483D01*
X392874Y83175D01*
X398006D01*
Y88307D01*
D02*
G37*
G36*
X370675D02*
Y83175D01*
X375807D01*
X375265Y84483D01*
X373840Y86340D01*
X371983Y87765D01*
X370675Y88307D01*
D02*
G37*
G36*
X364325D02*
X363017Y87765D01*
X361160Y86340D01*
X359735Y84483D01*
X359193Y83175D01*
X364325D01*
Y88307D01*
D02*
G37*
G36*
X333195D02*
Y83175D01*
X338327D01*
X337785Y84483D01*
X336360Y86340D01*
X334503Y87765D01*
X333195Y88307D01*
D02*
G37*
G36*
X326845D02*
X325537Y87765D01*
X323680Y86340D01*
X322255Y84483D01*
X321713Y83175D01*
X326845D01*
Y88307D01*
D02*
G37*
G36*
X294356D02*
Y83175D01*
X299489D01*
X298947Y84483D01*
X297522Y86340D01*
X295665Y87765D01*
X294356Y88307D01*
D02*
G37*
G36*
X288006D02*
X286698Y87765D01*
X284841Y86340D01*
X283416Y84483D01*
X282874Y83175D01*
X288006D01*
Y88307D01*
D02*
G37*
G36*
X256856D02*
Y83175D01*
X261989D01*
X261447Y84483D01*
X260022Y86340D01*
X258165Y87765D01*
X256856Y88307D01*
D02*
G37*
G36*
X250506D02*
X249198Y87765D01*
X247341Y86340D01*
X245916Y84483D01*
X245374Y83175D01*
X250506D01*
Y88307D01*
D02*
G37*
G36*
X218126D02*
Y83175D01*
X223259D01*
X222717Y84483D01*
X221292Y86340D01*
X219435Y87765D01*
X218126Y88307D01*
D02*
G37*
G36*
X211776D02*
X210468Y87765D01*
X208611Y86340D01*
X207186Y84483D01*
X206644Y83175D01*
X211776D01*
Y88307D01*
D02*
G37*
G36*
X409489Y76825D02*
X404356D01*
Y71693D01*
X405665Y72235D01*
X407522Y73660D01*
X408947Y75517D01*
X409489Y76825D01*
D02*
G37*
G36*
X398006D02*
X392874D01*
X393416Y75517D01*
X394841Y73660D01*
X396698Y72235D01*
X398006Y71693D01*
Y76825D01*
D02*
G37*
G36*
X375807D02*
X370675D01*
Y71693D01*
X371983Y72235D01*
X373840Y73660D01*
X375265Y75517D01*
X375807Y76825D01*
D02*
G37*
G36*
X364325D02*
X359193D01*
X359735Y75517D01*
X361160Y73660D01*
X363017Y72235D01*
X364325Y71693D01*
Y76825D01*
D02*
G37*
G36*
X338327D02*
X333195D01*
Y71693D01*
X334503Y72235D01*
X336360Y73660D01*
X337785Y75517D01*
X338327Y76825D01*
D02*
G37*
G36*
X326845D02*
X321713D01*
X322255Y75517D01*
X323680Y73660D01*
X325537Y72235D01*
X326845Y71693D01*
Y76825D01*
D02*
G37*
G36*
X299489D02*
X294356D01*
Y71693D01*
X295665Y72235D01*
X297522Y73660D01*
X298947Y75517D01*
X299489Y76825D01*
D02*
G37*
G36*
X288006D02*
X282874D01*
X283416Y75517D01*
X284841Y73660D01*
X286698Y72235D01*
X288006Y71693D01*
Y76825D01*
D02*
G37*
G36*
X261989D02*
X256856D01*
Y71693D01*
X258165Y72235D01*
X260022Y73660D01*
X261447Y75517D01*
X261989Y76825D01*
D02*
G37*
G36*
X250506D02*
X245374D01*
X245916Y75517D01*
X247341Y73660D01*
X249198Y72235D01*
X250506Y71693D01*
Y76825D01*
D02*
G37*
G36*
X223259D02*
X218126D01*
Y71693D01*
X219435Y72235D01*
X221292Y73660D01*
X222717Y75517D01*
X223259Y76825D01*
D02*
G37*
G36*
X211776D02*
X206644D01*
X207186Y75517D01*
X208611Y73660D01*
X210468Y72235D01*
X211776Y71693D01*
Y76825D01*
D02*
G37*
G36*
X443175Y60770D02*
Y55638D01*
X448307D01*
X447765Y56946D01*
X446340Y58803D01*
X444483Y60228D01*
X443175Y60770D01*
D02*
G37*
G36*
X436825D02*
X435517Y60228D01*
X433660Y58803D01*
X432235Y56946D01*
X431693Y55638D01*
X436825D01*
Y60770D01*
D02*
G37*
G36*
X404445D02*
Y55638D01*
X409577D01*
X409035Y56946D01*
X407610Y58803D01*
X405753Y60228D01*
X404445Y60770D01*
D02*
G37*
G36*
X398095D02*
X396787Y60228D01*
X394930Y58803D01*
X393505Y56946D01*
X392963Y55638D01*
X398095D01*
Y60770D01*
D02*
G37*
G36*
X370675D02*
Y55638D01*
X375807D01*
X375265Y56946D01*
X373840Y58803D01*
X371983Y60228D01*
X370675Y60770D01*
D02*
G37*
G36*
X364325D02*
X363017Y60228D01*
X361160Y58803D01*
X359735Y56946D01*
X359193Y55638D01*
X364325D01*
Y60770D01*
D02*
G37*
G36*
X333175D02*
Y55638D01*
X338307D01*
X337765Y56946D01*
X336340Y58803D01*
X334483Y60228D01*
X333175Y60770D01*
D02*
G37*
G36*
X326825D02*
X325517Y60228D01*
X323660Y58803D01*
X322235Y56946D01*
X321693Y55638D01*
X326825D01*
Y60770D01*
D02*
G37*
G36*
X294445D02*
Y55638D01*
X299577D01*
X299035Y56946D01*
X297610Y58803D01*
X295753Y60228D01*
X294445Y60770D01*
D02*
G37*
G36*
X288095D02*
X286787Y60228D01*
X284930Y58803D01*
X283505Y56946D01*
X282963Y55638D01*
X288095D01*
Y60770D01*
D02*
G37*
G36*
X256856D02*
Y55638D01*
X261989D01*
X261447Y56946D01*
X260022Y58803D01*
X258165Y60228D01*
X256856Y60770D01*
D02*
G37*
G36*
X250506D02*
X249198Y60228D01*
X247341Y58803D01*
X245916Y56946D01*
X245374Y55638D01*
X250506D01*
Y60770D01*
D02*
G37*
G36*
X218126D02*
Y55638D01*
X223259D01*
X222717Y56946D01*
X221292Y58803D01*
X219435Y60228D01*
X218126Y60770D01*
D02*
G37*
G36*
X211776D02*
X210468Y60228D01*
X208611Y58803D01*
X207186Y56946D01*
X206644Y55638D01*
X211776D01*
Y60770D01*
D02*
G37*
G36*
X480675Y56287D02*
Y51154D01*
X485807D01*
X485265Y52463D01*
X483840Y54320D01*
X481983Y55745D01*
X480675Y56287D01*
D02*
G37*
G36*
X474325D02*
X473017Y55745D01*
X471160Y54320D01*
X469735Y52463D01*
X469193Y51154D01*
X474325D01*
Y56287D01*
D02*
G37*
G36*
X409577Y49288D02*
X404445D01*
Y44155D01*
X405753Y44697D01*
X407610Y46122D01*
X409035Y47979D01*
X409577Y49288D01*
D02*
G37*
G36*
X398095D02*
X392963D01*
X393505Y47979D01*
X394930Y46122D01*
X396787Y44697D01*
X398095Y44155D01*
Y49288D01*
D02*
G37*
G36*
X375807D02*
X370675D01*
Y44155D01*
X371983Y44697D01*
X373840Y46122D01*
X375265Y47979D01*
X375807Y49288D01*
D02*
G37*
G36*
X364325D02*
X359193D01*
X359735Y47979D01*
X361160Y46122D01*
X363017Y44697D01*
X364325Y44155D01*
Y49288D01*
D02*
G37*
G36*
X338307D02*
X333175D01*
Y44155D01*
X334483Y44697D01*
X336340Y46122D01*
X337765Y47979D01*
X338307Y49288D01*
D02*
G37*
G36*
X326825D02*
X321693D01*
X322235Y47979D01*
X323660Y46122D01*
X325517Y44697D01*
X326825Y44155D01*
Y49288D01*
D02*
G37*
G36*
X299577D02*
X294445D01*
Y44155D01*
X295753Y44697D01*
X297610Y46122D01*
X299035Y47979D01*
X299577Y49288D01*
D02*
G37*
G36*
X288095D02*
X282963D01*
X283505Y47979D01*
X284930Y46122D01*
X286787Y44697D01*
X288095Y44155D01*
Y49288D01*
D02*
G37*
G36*
X261989D02*
X256856D01*
Y44155D01*
X258165Y44697D01*
X260022Y46122D01*
X261447Y47979D01*
X261989Y49288D01*
D02*
G37*
G36*
X250506D02*
X245374D01*
X245916Y47979D01*
X247341Y46122D01*
X249198Y44697D01*
X250506Y44155D01*
Y49288D01*
D02*
G37*
G36*
X223259D02*
X218126D01*
Y44155D01*
X219435Y44697D01*
X221292Y46122D01*
X222717Y47979D01*
X223259Y49288D01*
D02*
G37*
G36*
X211776D02*
X206644D01*
X207186Y47979D01*
X208611Y46122D01*
X210468Y44697D01*
X211776Y44155D01*
Y49288D01*
D02*
G37*
G36*
X448307D02*
X443175D01*
Y44155D01*
X444483Y44697D01*
X446340Y46122D01*
X447765Y47979D01*
X448307Y49288D01*
D02*
G37*
G36*
X436825D02*
X431693D01*
X432235Y47979D01*
X433660Y46122D01*
X435517Y44697D01*
X436825Y44155D01*
Y49288D01*
D02*
G37*
G36*
X485807Y44804D02*
X480675D01*
Y39672D01*
X481983Y40214D01*
X483840Y41639D01*
X485265Y43496D01*
X485807Y44804D01*
D02*
G37*
G36*
X474325D02*
X469193D01*
X469735Y43496D01*
X471160Y41639D01*
X473017Y40214D01*
X474325Y39672D01*
Y44804D01*
D02*
G37*
G36*
X480675Y35845D02*
Y30712D01*
X485807D01*
X485265Y32021D01*
X483840Y33878D01*
X481983Y35303D01*
X480675Y35845D01*
D02*
G37*
G36*
X474325D02*
X473017Y35303D01*
X471160Y33878D01*
X469735Y32021D01*
X469193Y30712D01*
X474325D01*
Y35845D01*
D02*
G37*
G36*
X443175D02*
Y30712D01*
X448307D01*
X447765Y32021D01*
X446340Y33878D01*
X444483Y35303D01*
X443175Y35845D01*
D02*
G37*
G36*
X436825D02*
X435517Y35303D01*
X433660Y33878D01*
X432235Y32021D01*
X431693Y30712D01*
X436825D01*
Y35845D01*
D02*
G37*
G36*
X404445D02*
Y30712D01*
X409577D01*
X409035Y32021D01*
X407610Y33878D01*
X405753Y35303D01*
X404445Y35845D01*
D02*
G37*
G36*
X398095D02*
X396787Y35303D01*
X394930Y33878D01*
X393505Y32021D01*
X392963Y30712D01*
X398095D01*
Y35845D01*
D02*
G37*
G36*
X370675D02*
Y30712D01*
X375807D01*
X375265Y32021D01*
X373840Y33878D01*
X371983Y35303D01*
X370675Y35845D01*
D02*
G37*
G36*
X364325D02*
X363017Y35303D01*
X361160Y33878D01*
X359735Y32021D01*
X359193Y30712D01*
X364325D01*
Y35845D01*
D02*
G37*
G36*
X333175D02*
Y30712D01*
X338307D01*
X337765Y32021D01*
X336340Y33878D01*
X334483Y35303D01*
X333175Y35845D01*
D02*
G37*
G36*
X326825D02*
X325517Y35303D01*
X323660Y33878D01*
X322235Y32021D01*
X321693Y30712D01*
X326825D01*
Y35845D01*
D02*
G37*
G36*
X294445D02*
Y30712D01*
X299577D01*
X299035Y32021D01*
X297610Y33878D01*
X295753Y35303D01*
X294445Y35845D01*
D02*
G37*
G36*
X288095D02*
X286787Y35303D01*
X284930Y33878D01*
X283505Y32021D01*
X282963Y30712D01*
X288095D01*
Y35845D01*
D02*
G37*
G36*
X256856D02*
Y30712D01*
X261989D01*
X261447Y32021D01*
X260022Y33878D01*
X258165Y35303D01*
X256856Y35845D01*
D02*
G37*
G36*
X250506D02*
X249198Y35303D01*
X247341Y33878D01*
X245916Y32021D01*
X245374Y30712D01*
X250506D01*
Y35845D01*
D02*
G37*
G36*
X218126D02*
Y30712D01*
X223259D01*
X222717Y32021D01*
X221292Y33878D01*
X219435Y35303D01*
X218126Y35845D01*
D02*
G37*
G36*
X211776D02*
X210468Y35303D01*
X208611Y33878D01*
X207186Y32021D01*
X206644Y30712D01*
X211776D01*
Y35845D01*
D02*
G37*
G36*
X485807Y24362D02*
X480675D01*
Y19230D01*
X481983Y19772D01*
X483840Y21197D01*
X485265Y23054D01*
X485807Y24362D01*
D02*
G37*
G36*
X474325D02*
X469193D01*
X469735Y23054D01*
X471160Y21197D01*
X473017Y19772D01*
X474325Y19230D01*
Y24362D01*
D02*
G37*
G36*
X448307D02*
X443175D01*
Y19230D01*
X444483Y19772D01*
X446340Y21197D01*
X447765Y23054D01*
X448307Y24362D01*
D02*
G37*
G36*
X436825D02*
X431693D01*
X432235Y23054D01*
X433660Y21197D01*
X435517Y19772D01*
X436825Y19230D01*
Y24362D01*
D02*
G37*
G36*
X409577D02*
X404445D01*
Y19230D01*
X405753Y19772D01*
X407610Y21197D01*
X409035Y23054D01*
X409577Y24362D01*
D02*
G37*
G36*
X398095D02*
X392963D01*
X393505Y23054D01*
X394930Y21197D01*
X396787Y19772D01*
X398095Y19230D01*
Y24362D01*
D02*
G37*
G36*
X375807D02*
X370675D01*
Y19230D01*
X371983Y19772D01*
X373840Y21197D01*
X375265Y23054D01*
X375807Y24362D01*
D02*
G37*
G36*
X364325D02*
X359193D01*
X359735Y23054D01*
X361160Y21197D01*
X363017Y19772D01*
X364325Y19230D01*
Y24362D01*
D02*
G37*
G36*
X338307D02*
X333175D01*
Y19230D01*
X334483Y19772D01*
X336340Y21197D01*
X337765Y23054D01*
X338307Y24362D01*
D02*
G37*
G36*
X326825D02*
X321693D01*
X322235Y23054D01*
X323660Y21197D01*
X325517Y19772D01*
X326825Y19230D01*
Y24362D01*
D02*
G37*
G36*
X299577D02*
X294445D01*
Y19230D01*
X295753Y19772D01*
X297610Y21197D01*
X299035Y23054D01*
X299577Y24362D01*
D02*
G37*
G36*
X288095D02*
X282963D01*
X283505Y23054D01*
X284930Y21197D01*
X286787Y19772D01*
X288095Y19230D01*
Y24362D01*
D02*
G37*
G36*
X261989D02*
X256856D01*
Y19230D01*
X258165Y19772D01*
X260022Y21197D01*
X261447Y23054D01*
X261989Y24362D01*
D02*
G37*
G36*
X250506D02*
X245374D01*
X245916Y23054D01*
X247341Y21197D01*
X249198Y19772D01*
X250506Y19230D01*
Y24362D01*
D02*
G37*
G36*
X223259D02*
X218126D01*
Y19230D01*
X219435Y19772D01*
X221292Y21197D01*
X222717Y23054D01*
X223259Y24362D01*
D02*
G37*
G36*
X211776D02*
X206644D01*
X207186Y23054D01*
X208611Y21197D01*
X210468Y19772D01*
X211776Y19230D01*
Y24362D01*
D02*
G37*
%LPD*%
D22*
X692235Y313500D02*
D03*
Y326500D02*
D03*
X692235Y273500D02*
D03*
Y286500D02*
D03*
D24*
X303500Y350000D02*
D03*
X316500D02*
D03*
D26*
X757400Y249400D02*
D03*
Y274800D02*
D03*
Y300200D02*
D03*
Y325600D02*
D03*
X862600D02*
D03*
Y300200D02*
D03*
Y274800D02*
D03*
Y249400D02*
D03*
D58*
X1001480Y130810D02*
X1056640D01*
X195000Y308000D02*
X277000D01*
X290000Y295000D01*
X315026Y429346D02*
Y485651D01*
X170000Y405000D02*
Y560000D01*
X145000Y505000D02*
X150000D01*
X120000Y530000D02*
X145000Y505000D01*
X170000Y560000D02*
X220000Y610000D01*
X1465000Y230101D02*
Y298930D01*
X1400000Y165101D02*
X1465000Y230101D01*
X1710000Y675000D02*
Y875000D01*
X1650000Y615000D02*
X1710000Y675000D01*
X1365000Y615000D02*
X1650000D01*
X1646800Y156170D02*
Y158500D01*
X1305000Y555000D02*
X1365000Y615000D01*
X1070000Y555000D02*
X1305000Y555000D01*
X1665000Y920000D02*
X1710000Y875000D01*
X140000Y308000D02*
X195000D01*
X105000Y530000D02*
X120000D01*
X133590Y620000D02*
X153990Y599600D01*
X105000Y620000D02*
X133590D01*
Y680000D02*
X183590Y630000D01*
X105000Y680000D02*
X133590D01*
X165000Y821000D02*
X245000D01*
X149000Y805000D02*
X165000Y821000D01*
X105000Y805000D02*
X149000D01*
X536500Y313500D02*
X692235D01*
Y286500D02*
Y313500D01*
X705000Y325600D02*
X757400D01*
X315610Y349110D02*
X316500Y350000D01*
X315610Y310610D02*
Y349110D01*
X303250Y375000D02*
X303500Y374750D01*
Y350000D02*
Y374750D01*
X280460Y375000D02*
X303250D01*
X275000Y369540D02*
X280460Y375000D01*
X300000Y295000D02*
X315610Y310610D01*
X250000Y600000D02*
X536500Y313500D01*
X153990Y599600D02*
X165000D01*
X290000Y295000D02*
X300000D01*
X220000Y610000D02*
Y765000D01*
X183590Y630000D02*
X200000D01*
X756100Y273500D02*
X757400Y274800D01*
X692235Y273500D02*
X756100D01*
X945000Y325600D02*
X1019400D01*
X862600D02*
X945000D01*
X944400Y326200D02*
X945000Y325600D01*
X944400Y326200D02*
Y428930D01*
X1019400Y325600D02*
X1054140Y290860D01*
X1665000Y680000D02*
Y800000D01*
X1100000Y585000D02*
X1130440D01*
X1060000Y625000D02*
X1100000Y585000D01*
X1030000Y625000D02*
X1060000D01*
X1145000Y800000D02*
Y920000D01*
X1030000Y680000D02*
X1135000D01*
X862600Y249400D02*
X882890D01*
X1001480Y130810D01*
D60*
X1435000Y106500D02*
D03*
X1585000D02*
D03*
X1145000Y920000D02*
D03*
X1665000D02*
D03*
Y800000D02*
D03*
X1145000D02*
D03*
Y680000D02*
D03*
X1665000D02*
D03*
X1056300Y163800D02*
D03*
Y136300D02*
D03*
Y108700D02*
D03*
D61*
X1123300Y366500D02*
D03*
X983300D02*
D03*
X1288560Y435000D02*
D03*
X1148560D02*
D03*
X1480000Y485000D02*
D03*
X1340000D02*
D03*
X1148560D02*
D03*
X1288560D02*
D03*
X592500Y205000D02*
D03*
Y150000D02*
D03*
Y95000D02*
D03*
Y40000D02*
D03*
X1056300Y202500D02*
D03*
Y42500D02*
D03*
X960000Y805000D02*
D03*
X1060000D02*
D03*
X67000Y350000D02*
D03*
Y140000D02*
D03*
D62*
X105000Y805000D02*
D03*
Y835000D02*
D03*
Y680000D02*
D03*
Y650000D02*
D03*
Y620000D02*
D03*
Y590000D02*
D03*
Y560000D02*
D03*
Y530000D02*
D03*
Y500000D02*
D03*
Y470000D02*
D03*
X1646800Y548730D02*
D03*
Y518730D02*
D03*
Y366500D02*
D03*
Y336500D02*
D03*
Y188500D02*
D03*
Y158500D02*
D03*
D63*
X61800Y856500D02*
D03*
Y783500D02*
D03*
Y448500D02*
D03*
Y701500D02*
D03*
X1690000Y497230D02*
D03*
Y570230D02*
D03*
Y315000D02*
D03*
Y388000D02*
D03*
Y137000D02*
D03*
Y210000D02*
D03*
D64*
X195000Y266000D02*
D03*
Y224000D02*
D03*
Y182000D02*
D03*
Y140000D02*
D03*
Y308000D02*
D03*
X140000D02*
D03*
Y266000D02*
D03*
Y224000D02*
D03*
Y182000D02*
D03*
Y140000D02*
D03*
Y350000D02*
D03*
X195000D02*
D03*
D65*
X1036500Y455000D02*
D03*
X1011500D02*
D03*
X1061500D02*
D03*
D66*
X1030000Y650400D02*
D03*
Y625000D02*
D03*
Y599600D02*
D03*
X1045000Y899600D02*
D03*
Y925000D02*
D03*
Y950400D02*
D03*
D67*
X321270Y265000D02*
D03*
Y190000D02*
D03*
D68*
X315026Y485651D02*
D03*
X170000Y405000D02*
D03*
X150000Y505000D02*
D03*
X214951Y52463D02*
D03*
X253681D02*
D03*
Y27537D02*
D03*
X214951D02*
D03*
X253681Y110000D02*
D03*
X291181D02*
D03*
X330020D02*
D03*
X401181D02*
D03*
X367500D02*
D03*
Y80000D02*
D03*
X401181D02*
D03*
X330020D02*
D03*
X214951D02*
D03*
X291181D02*
D03*
X253681D02*
D03*
X440000Y27537D02*
D03*
X477500D02*
D03*
X401270D02*
D03*
X291270D02*
D03*
X367500D02*
D03*
X330000D02*
D03*
Y52463D02*
D03*
X367500D02*
D03*
X291270D02*
D03*
X401270D02*
D03*
X477500Y47979D02*
D03*
X440000Y52463D02*
D03*
X1400000Y165101D02*
D03*
X275000Y369540D02*
D03*
X683325Y750000D02*
D03*
X312997Y596500D02*
D03*
X316730Y685000D02*
D03*
X510000Y570230D02*
D03*
X520000Y750000D02*
D03*
X686500Y810000D02*
D03*
X250000Y200000D02*
D03*
X460000Y310000D02*
D03*
X370000Y244204D02*
D03*
X690000Y395000D02*
D03*
X680000Y534530D02*
D03*
X686500Y463300D02*
D03*
X362586Y430000D02*
D03*
X365000Y390011D02*
D03*
X700000Y187977D02*
D03*
Y152185D02*
D03*
Y110000D02*
D03*
Y65000D02*
D03*
Y28695D02*
D03*
X673500Y17088D02*
D03*
X675000Y50094D02*
D03*
Y90000D02*
D03*
Y135000D02*
D03*
Y171600D02*
D03*
Y207185D02*
D03*
X250000Y600000D02*
D03*
X165000Y599600D02*
D03*
X290000Y295000D02*
D03*
X220000Y765000D02*
D03*
X315026Y429346D02*
D03*
X200000Y630000D02*
D03*
X245000Y821000D02*
D03*
X1465000Y298930D02*
D03*
X944400Y428930D02*
D03*
X1056640Y288750D02*
D03*
X1070000Y555000D02*
D03*
X1130440Y585000D02*
D03*
X1030000Y680000D02*
D03*
D69*
X1705000Y50000D02*
D03*
Y955000D02*
D03*
X49375D02*
D03*
Y50000D02*
D03*
D70*
X316750Y375000D02*
D03*
X303250D02*
D03*
D71*
X592500Y150000D02*
X620000Y122500D01*
Y67500D02*
Y122500D01*
X592500Y40000D02*
X620000Y67500D01*
M02*
