G04*
G04 #@! TF.GenerationSoftware,Altium Limited,Altium Designer,18.1.9 (240)*
G04*
G04 Layer_Color=65535*
%FSLAX44Y44*%
%MOMM*%
G71*
G01*
G75*
%ADD10C,1.0000*%
%ADD11C,0.6000*%
%ADD12C,0.4000*%
%ADD13C,0.2540*%
%ADD14C,0.5000*%
%ADD15C,0.2500*%
%ADD16C,0.2000*%
%ADD17C,0.1500*%
%ADD18C,0.7500*%
G04:AMPARAMS|DCode=19|XSize=10mm|YSize=1.3mm|CornerRadius=0mm|HoleSize=0mm|Usage=FLASHONLY|Rotation=90.257|XOffset=0mm|YOffset=0mm|HoleType=Round|Shape=Rectangle|*
%AMROTATEDRECTD19*
4,1,4,0.6724,-4.9970,-0.6276,-5.0029,-0.6724,4.9970,0.6276,5.0029,0.6724,-4.9970,0.0*
%
%ADD19ROTATEDRECTD19*%

G36*
X363770Y295000D02*
X278770D01*
X293770Y302500D01*
X311270Y307500D01*
X321270D01*
X338770Y305000D01*
X348770Y302500D01*
X363770Y295000D01*
D02*
G37*
G36*
X1174944Y258830D02*
Y258816D01*
Y258774D01*
Y258731D01*
X1174930Y258576D01*
X1174916Y258393D01*
X1174888Y258153D01*
X1174874Y257857D01*
X1174832Y257533D01*
X1174789Y257181D01*
X1174803D01*
X1174818Y257195D01*
X1174860Y257209D01*
X1174916Y257237D01*
X1175057Y257308D01*
X1175240Y257392D01*
X1175466Y257491D01*
X1175734Y257604D01*
X1176030Y257717D01*
X1176354Y257829D01*
X1176664Y256885D01*
X1176650D01*
X1176622Y256871D01*
X1176580Y256857D01*
X1176523Y256842D01*
X1176439Y256814D01*
X1176354Y256786D01*
X1176143Y256730D01*
X1175889Y256673D01*
X1175607Y256603D01*
X1175311Y256546D01*
X1175001Y256504D01*
X1175015Y256490D01*
X1175071Y256434D01*
X1175170Y256349D01*
X1175297Y256222D01*
X1175466Y256039D01*
X1175649Y255828D01*
X1175889Y255560D01*
X1176143Y255250D01*
X1175353Y254700D01*
X1175339Y254728D01*
X1175283Y254798D01*
X1175198Y254911D01*
X1175085Y255066D01*
X1174958Y255278D01*
X1174803Y255517D01*
X1174620Y255799D01*
X1174437Y256110D01*
Y256095D01*
X1174423Y256067D01*
X1174395Y256025D01*
X1174352Y255954D01*
X1174268Y255785D01*
X1174155Y255588D01*
X1174014Y255362D01*
X1173873Y255123D01*
X1173718Y254897D01*
X1173577Y254700D01*
X1172802Y255250D01*
X1172816Y255264D01*
X1172830Y255292D01*
X1172872Y255334D01*
X1172928Y255405D01*
X1173055Y255574D01*
X1173224Y255771D01*
X1173408Y255983D01*
X1173591Y256180D01*
X1173760Y256363D01*
X1173831Y256448D01*
X1173901Y256504D01*
X1173887D01*
X1173859Y256518D01*
X1173817D01*
X1173760Y256532D01*
X1173676Y256546D01*
X1173591Y256575D01*
X1173380Y256617D01*
X1173126Y256673D01*
X1172858Y256730D01*
X1172280Y256885D01*
X1172576Y257829D01*
X1172590D01*
X1172618Y257815D01*
X1172675Y257787D01*
X1172745Y257773D01*
X1172830Y257731D01*
X1172943Y257688D01*
X1173168Y257604D01*
X1173422Y257505D01*
X1173676Y257392D01*
X1173915Y257279D01*
X1174113Y257181D01*
Y257195D01*
Y257237D01*
X1174099Y257294D01*
Y257378D01*
X1174084Y257477D01*
X1174070Y257590D01*
X1174056Y257843D01*
X1174028Y258111D01*
X1174000Y258393D01*
X1173986Y258633D01*
Y258746D01*
Y258844D01*
X1174944D01*
Y258830D01*
D02*
G37*
G36*
X303178Y202463D02*
X306696D01*
Y200981D01*
X303178D01*
Y197500D01*
X301715D01*
Y200981D01*
X298234D01*
Y202463D01*
X301715D01*
Y205944D01*
X303178D01*
Y202463D01*
D02*
G37*
D10*
X130000Y785000D02*
G03*
X130000Y785000I-5000J0D01*
G01*
Y450000D02*
G03*
X130000Y450000I-5000J0D01*
G01*
X145000Y98000D02*
G03*
X145000Y98000I-5000J0D01*
G01*
X1631800Y568730D02*
G03*
X1631800Y568730I-5000J0D01*
G01*
Y386500D02*
G03*
X1631800Y386500I-5000J0D01*
G01*
Y208500D02*
G03*
X1631800Y208500I-5000J0D01*
G01*
D11*
X855600Y401900D02*
G03*
X855600Y401900I-3000J0D01*
G01*
X769390Y742360D02*
G03*
X769390Y742360I-3000J0D01*
G01*
X770400Y970700D02*
G03*
X770400Y970700I-3000J0D01*
G01*
X328380Y378660D02*
G03*
X328380Y378660I-3000J0D01*
G01*
X810000Y990000D02*
X810000Y5000D01*
D12*
X198500Y900000D02*
G03*
X198500Y900000I-2000J0D01*
G01*
X201000Y785000D02*
G03*
X201000Y785000I-2000J0D01*
G01*
X410000Y540000D02*
G03*
X410000Y540000I-2000J0D01*
G01*
X280000Y521695D02*
G03*
X280000Y521695I-2000J0D01*
G01*
X589000Y616000D02*
G03*
X589000Y616000I-2000J0D01*
G01*
Y896000D02*
G03*
X589000Y896000I-2000J0D01*
G01*
X983300Y346500D02*
X1123300D01*
X983300Y386500D02*
X1123300D01*
X15800Y755000D02*
X125000D01*
X15800Y885000D02*
X125000D01*
X15800Y420000D02*
X125000D01*
X15800Y730000D02*
X125000D01*
X12000Y392000D02*
X213000D01*
X12000Y98000D02*
Y392000D01*
Y98000D02*
X213000D01*
Y392000D01*
X1148560Y415000D02*
X1288560D01*
X1148560Y455000D02*
X1288560D01*
X1340000Y465000D02*
X1480000D01*
X1340000Y505000D02*
X1480000D01*
X1148560D02*
X1288560D01*
X1148560Y465000D02*
X1288560D01*
X425000Y65000D02*
X555000D01*
X425000D02*
Y195000D01*
X555000D01*
Y65000D02*
Y195000D01*
X777400Y416500D02*
X842600D01*
X777400D02*
Y543500D01*
X842600D01*
Y416500D02*
Y543500D01*
X776390Y727760D02*
X841590D01*
Y600760D02*
Y727760D01*
X776390Y600760D02*
X841590D01*
X776390D02*
Y727760D01*
X777400Y829100D02*
Y956100D01*
Y829100D02*
X842600D01*
Y956100D01*
X777400D02*
X842600D01*
X179500Y915000D02*
Y978000D01*
X259500Y915000D02*
Y978000D01*
X182000Y800000D02*
Y863000D01*
X262000Y800000D02*
Y863000D01*
X425000Y462000D02*
Y525000D01*
X345000Y462000D02*
Y525000D01*
X295000Y443695D02*
Y506695D01*
X215000Y443695D02*
Y506695D01*
X1626800Y598730D02*
X1736000D01*
X1626800Y468730D02*
X1736000D01*
X650000Y631000D02*
Y694000D01*
X570000Y631000D02*
Y694000D01*
X650000Y911000D02*
Y974000D01*
X570000Y911000D02*
Y974000D01*
X1626800Y416500D02*
X1736000D01*
X1626800Y286500D02*
X1736000D01*
X1626800Y238500D02*
X1736000D01*
X1626800Y108500D02*
X1736000D01*
X961058Y471160D02*
Y511160D01*
X931058Y471160D02*
X972058D01*
X931058Y511160D02*
X972058D01*
X956058Y471160D02*
Y511160D01*
D13*
X1055651Y438930D02*
G03*
X1017349Y438930I-19151J16070D01*
G01*
X1046510Y584360D02*
G03*
X1046510Y584360I-2540J0D01*
G01*
X1033570Y965640D02*
G03*
X1033570Y965640I-2540J0D01*
G01*
X1017349Y438930D02*
X1055651D01*
X938050Y641190D02*
X952020D01*
X944400Y648810D02*
X952020Y641190D01*
X936780D02*
X944400Y648810D01*
X936780Y641190D02*
X938050D01*
X1015882Y578010D02*
X1045240D01*
X1050320Y583090D01*
Y666910D01*
X1045240Y671990D02*
X1050320Y666910D01*
X1015882Y671990D02*
X1045240D01*
X1029760Y971990D02*
X1059118D01*
X1024680Y966910D02*
X1029760Y971990D01*
X1024680Y883090D02*
Y966910D01*
Y883090D02*
X1029760Y878010D01*
X1059118D01*
X1565000Y548730D02*
Y555395D01*
X1568332Y558727D01*
X1571664Y555395D01*
Y548730D01*
Y553728D01*
X1565000D01*
X1581661Y557061D02*
X1579995Y558727D01*
X1576663D01*
X1574997Y557061D01*
Y550396D01*
X1576663Y548730D01*
X1579995D01*
X1581661Y550396D01*
X1591658Y557061D02*
X1589992Y558727D01*
X1586660D01*
X1584994Y557061D01*
Y550396D01*
X1586660Y548730D01*
X1589992D01*
X1591658Y550396D01*
X1594990Y558727D02*
Y548730D01*
Y553728D01*
X1601655D01*
Y558727D01*
Y548730D01*
X1604987Y558727D02*
Y552062D01*
X1608319Y548730D01*
X1611652Y552062D01*
Y558727D01*
X1614984Y553728D02*
X1621648D01*
X1618316Y557061D02*
Y550396D01*
X1565000Y500000D02*
Y506665D01*
X1568332Y509997D01*
X1571664Y506665D01*
Y500000D01*
Y504998D01*
X1565000D01*
X1581661Y508331D02*
X1579995Y509997D01*
X1576663D01*
X1574997Y508331D01*
Y501666D01*
X1576663Y500000D01*
X1579995D01*
X1581661Y501666D01*
X1591658Y508331D02*
X1589992Y509997D01*
X1586660D01*
X1584994Y508331D01*
Y501666D01*
X1586660Y500000D01*
X1589992D01*
X1591658Y501666D01*
X1594990Y509997D02*
Y500000D01*
Y504998D01*
X1601655D01*
Y509997D01*
Y500000D01*
X1604987Y509997D02*
Y503332D01*
X1608319Y500000D01*
X1611652Y503332D01*
Y509997D01*
X1614984Y504998D02*
X1621648D01*
X1618316Y508331D02*
Y501666D01*
X1570000Y395000D02*
Y404997D01*
X1573332Y401665D01*
X1576664Y404997D01*
Y395000D01*
X1586661Y403331D02*
X1584995Y404997D01*
X1581663D01*
X1579997Y403331D01*
Y396666D01*
X1581663Y395000D01*
X1584995D01*
X1586661Y396666D01*
X1589994Y404997D02*
Y395000D01*
Y399998D01*
X1596658D01*
Y404997D01*
Y395000D01*
X1599990Y404997D02*
Y398332D01*
X1603323Y395000D01*
X1606655Y398332D01*
Y404997D01*
X1609987Y399998D02*
X1616652D01*
X1613319Y403331D02*
Y396666D01*
X1570000Y295000D02*
Y304997D01*
X1573332Y301665D01*
X1576664Y304997D01*
Y295000D01*
X1586661Y303331D02*
X1584995Y304997D01*
X1581663D01*
X1579997Y303331D01*
Y296666D01*
X1581663Y295000D01*
X1584995D01*
X1586661Y296666D01*
X1589994Y304997D02*
Y295000D01*
Y299998D01*
X1596658D01*
Y304997D01*
Y295000D01*
X1599990Y304997D02*
Y298332D01*
X1603323Y295000D01*
X1606655Y298332D01*
Y304997D01*
X1609987Y299998D02*
X1616652D01*
X1613319Y303331D02*
Y296666D01*
X1600000Y162181D02*
Y152185D01*
Y157183D01*
X1606664D01*
Y162181D01*
Y152185D01*
X1609997Y162181D02*
Y155517D01*
X1613329Y152185D01*
X1616661Y155517D01*
Y162181D01*
X1619994Y157183D02*
X1626658D01*
X1600000Y229997D02*
Y220000D01*
Y224998D01*
X1606664D01*
Y229997D01*
Y220000D01*
X1609997Y229997D02*
Y223332D01*
X1613329Y220000D01*
X1616661Y223332D01*
Y229997D01*
X1619994Y224998D02*
X1626658D01*
X1119040Y199972D02*
X1108883D01*
X1103805Y207590D02*
X1098727D01*
X1101266D01*
Y197433D01*
X1103805D01*
X1091109Y207590D02*
Y197433D01*
X1083492D01*
X1080952Y199972D01*
Y207590D01*
X1091103Y161873D02*
X1098721D01*
X1101260Y164412D01*
Y169491D01*
X1098721Y172030D01*
X1091103D01*
X1086025D02*
X1080947D01*
X1083486D01*
Y156795D01*
X1086025D01*
X1103801Y104723D02*
X1098723D01*
X1096183Y107262D01*
Y114880D01*
X1103801D01*
X1106340Y112341D01*
X1103801Y109802D01*
X1096183D01*
X1080948Y99645D02*
Y114880D01*
X1088566D01*
X1091105Y112341D01*
Y107262D01*
X1088566Y104723D01*
X1080948D01*
X1119040Y34883D02*
X1108883D01*
X1113962Y29804D02*
Y39961D01*
X1103805Y42500D02*
X1098727D01*
X1101266D01*
Y32343D01*
X1103805D01*
X1091109Y42500D02*
Y32343D01*
X1083492D01*
X1080952Y34883D01*
Y42500D01*
X1096183Y127585D02*
Y142820D01*
X1103801D01*
X1106340Y140281D01*
Y135202D01*
X1103801Y132663D01*
X1096183D01*
X1088566D02*
X1083487D01*
X1080948Y135202D01*
Y142820D01*
X1088566D01*
X1091105Y140281D01*
X1088566Y137742D01*
X1080948D01*
X558970Y90752D02*
X548813D01*
X541196Y98370D02*
X536117D01*
X533578Y95831D01*
Y90752D01*
X536117Y88213D01*
X541196D01*
X543735Y90752D01*
Y95831D01*
X541196Y98370D01*
X528500Y88213D02*
Y95831D01*
X525961Y98370D01*
X518343D01*
Y88213D01*
X510726Y85674D02*
Y88213D01*
X513265D01*
X508186D01*
X510726D01*
Y95831D01*
X508186Y98370D01*
X558970Y201242D02*
X548813D01*
X541196Y208860D02*
X536117D01*
X533578Y206321D01*
Y201242D01*
X536117Y198703D01*
X541196D01*
X543735Y201242D01*
Y206321D01*
X541196Y208860D01*
X528500Y198703D02*
Y206321D01*
X525961Y208860D01*
X518343D01*
Y198703D01*
X510726Y196164D02*
Y198703D01*
X513265D01*
X508186D01*
X510726D01*
Y206321D01*
X508186Y208860D01*
X558970Y146632D02*
X548813D01*
X553892Y141554D02*
Y151711D01*
X541196Y154250D02*
X536117D01*
X533578Y151711D01*
Y146632D01*
X536117Y144093D01*
X541196D01*
X543735Y146632D01*
Y151711D01*
X541196Y154250D01*
X528500Y144093D02*
Y151711D01*
X525961Y154250D01*
X518343D01*
Y144093D01*
X510726Y141554D02*
Y144093D01*
X513265D01*
X508186D01*
X510726D01*
Y151711D01*
X508186Y154250D01*
X558970Y36142D02*
X548813D01*
X553892Y31064D02*
Y41221D01*
X541196Y43760D02*
X536117D01*
X533578Y41221D01*
Y36142D01*
X536117Y33603D01*
X541196D01*
X543735Y36142D01*
Y41221D01*
X541196Y43760D01*
X528500Y33603D02*
Y41221D01*
X525961Y43760D01*
X518343D01*
Y33603D01*
X510726Y31064D02*
Y33603D01*
X513265D01*
X508186D01*
X510726D01*
Y41221D01*
X508186Y43760D01*
X1326642Y514524D02*
Y529759D01*
X1334259D01*
X1336799Y527220D01*
Y522141D01*
X1334259Y519602D01*
X1326642D01*
X1331720D02*
X1336799Y514524D01*
X1341877D02*
X1346955D01*
X1344416D01*
Y529759D01*
X1341877Y527220D01*
X1364730Y514524D02*
X1354573D01*
X1364730Y524681D01*
Y527220D01*
X1362191Y529759D01*
X1357112D01*
X1354573Y527220D01*
X1085000Y325000D02*
Y340235D01*
X1092617D01*
X1095157Y337696D01*
Y332617D01*
X1092617Y330078D01*
X1085000D01*
X1090078D02*
X1095157Y325000D01*
X1110392D02*
X1100235D01*
X1110392Y335157D01*
Y337696D01*
X1107853Y340235D01*
X1102774D01*
X1100235Y337696D01*
X1125627Y325000D02*
X1115470D01*
X1125627Y335157D01*
Y337696D01*
X1123088Y340235D01*
X1118009D01*
X1115470Y337696D01*
X1135210Y514540D02*
Y529775D01*
X1142828D01*
X1145367Y527236D01*
Y522158D01*
X1142828Y519618D01*
X1135210D01*
X1140288D02*
X1145367Y514540D01*
X1150445D02*
X1155523D01*
X1152984D01*
Y529775D01*
X1150445Y527236D01*
X1170759Y514540D02*
Y529775D01*
X1163141Y522158D01*
X1173298D01*
X1144900Y390011D02*
Y405247D01*
X1152518D01*
X1155057Y402707D01*
Y397629D01*
X1152518Y395090D01*
X1144900D01*
X1149978D02*
X1155057Y390011D01*
X1160135D02*
X1165213D01*
X1162674D01*
Y405247D01*
X1160135Y402707D01*
X1172831D02*
X1175370Y405247D01*
X1180449D01*
X1182988Y402707D01*
Y400168D01*
X1180449Y397629D01*
X1177909D01*
X1180449D01*
X1182988Y395090D01*
Y392551D01*
X1180449Y390011D01*
X1175370D01*
X1172831Y392551D01*
X1175000Y705000D02*
X1159765D01*
Y712617D01*
X1162304Y715157D01*
X1167383D01*
X1169922Y712617D01*
Y705000D01*
Y710078D02*
X1175000Y715157D01*
X1159765Y720235D02*
Y730392D01*
X1162304D01*
X1172461Y720235D01*
X1175000D01*
X955000Y677818D02*
Y693053D01*
X947383D01*
X944843Y690514D01*
Y680357D01*
X947383Y677818D01*
X955000D01*
X939765Y693053D02*
X934687D01*
X937226D01*
Y677818D01*
X939765Y680357D01*
X10000Y400000D02*
Y412496D01*
X16248D01*
X18331Y410413D01*
Y406248D01*
X16248Y404165D01*
X10000D01*
X30827Y412496D02*
X22496D01*
Y406248D01*
X26661Y408331D01*
X28744D01*
X30827Y406248D01*
Y402083D01*
X28744Y400000D01*
X24579D01*
X22496Y402083D01*
X1179290Y831750D02*
X1164055D01*
Y839368D01*
X1166594Y841907D01*
X1171673D01*
X1174212Y839368D01*
Y831750D01*
Y836828D02*
X1179290Y841907D01*
X1166594Y846985D02*
X1164055Y849524D01*
Y854603D01*
X1166594Y857142D01*
X1169133D01*
X1171673Y854603D01*
X1174212Y857142D01*
X1176751D01*
X1179290Y854603D01*
Y849524D01*
X1176751Y846985D01*
X1174212D01*
X1171673Y849524D01*
X1169133Y846985D01*
X1166594D01*
X1171673Y849524D02*
Y854603D01*
X845000Y379765D02*
Y392461D01*
X842461Y395000D01*
X837383D01*
X834843Y392461D01*
Y379765D01*
X822147Y395000D02*
Y379765D01*
X829765Y387383D01*
X819608D01*
X327944Y575400D02*
Y590635D01*
X335561D01*
X338101Y588096D01*
Y583018D01*
X335561Y580478D01*
X327944D01*
X333022D02*
X338101Y575400D01*
X353336D02*
X343179D01*
X353336Y585557D01*
Y588096D01*
X350797Y590635D01*
X345718D01*
X343179Y588096D01*
X366032Y575400D02*
Y590635D01*
X358414Y583018D01*
X368571D01*
X1175000Y950000D02*
X1159765D01*
Y957617D01*
X1162304Y960157D01*
X1167383D01*
X1169922Y957617D01*
Y950000D01*
Y955078D02*
X1175000Y960157D01*
X1172461Y965235D02*
X1175000Y967774D01*
Y972853D01*
X1172461Y975392D01*
X1162304D01*
X1159765Y972853D01*
Y967774D01*
X1162304Y965235D01*
X1164843D01*
X1167383Y967774D01*
Y975392D01*
X940000Y840000D02*
Y855235D01*
X947617D01*
X950157Y852696D01*
Y847617D01*
X947617Y845078D01*
X940000D01*
X945078D02*
X950157Y840000D01*
X955235D02*
X960313D01*
X957774D01*
Y855235D01*
X955235Y852696D01*
X1700000Y250000D02*
Y265235D01*
X1707617D01*
X1710157Y262696D01*
Y257617D01*
X1707617Y255078D01*
X1700000D01*
X1722853Y250000D02*
Y265235D01*
X1715235Y257617D01*
X1725392D01*
X1410157Y395235D02*
X1400000D01*
Y387617D01*
X1405078D01*
X1400000D01*
Y380000D01*
X1415235D02*
X1420313D01*
X1417774D01*
Y395235D01*
X1415235Y392696D01*
X1355000Y155235D02*
Y140000D01*
X1365157D01*
X1380392D02*
X1370235D01*
X1380392Y150157D01*
Y152696D01*
X1377853Y155235D01*
X1372774D01*
X1370235Y152696D01*
X1465157Y162696D02*
X1462617Y165235D01*
X1457539D01*
X1455000Y162696D01*
Y152539D01*
X1457539Y150000D01*
X1462617D01*
X1465157Y152539D01*
X1470235Y162696D02*
X1472774Y165235D01*
X1477853D01*
X1480392Y162696D01*
Y160157D01*
X1477853Y157618D01*
X1475313D01*
X1477853D01*
X1480392Y155078D01*
Y152539D01*
X1477853Y150000D01*
X1472774D01*
X1470235Y152539D01*
X390157Y327696D02*
X387617Y330235D01*
X382539D01*
X380000Y327696D01*
Y317539D01*
X382539Y315000D01*
X387617D01*
X390157Y317539D01*
X405392Y315000D02*
X395235D01*
X405392Y325157D01*
Y327696D01*
X402853Y330235D01*
X397774D01*
X395235Y327696D01*
X545157Y693880D02*
Y704036D01*
X542617Y706575D01*
X537539D01*
X535000Y704036D01*
Y693880D01*
X537539Y691340D01*
X542617D01*
X540078Y696419D02*
X545157Y691340D01*
X542617D02*
X545157Y693880D01*
X550235Y706575D02*
X560392D01*
Y704036D01*
X550235Y693880D01*
Y691340D01*
X1025157Y417539D02*
Y427696D01*
X1022617Y430235D01*
X1017539D01*
X1015000Y427696D01*
Y417539D01*
X1017539Y415000D01*
X1022617D01*
X1020078Y420078D02*
X1025157Y415000D01*
X1022617D02*
X1025157Y417539D01*
X1040392Y430235D02*
X1030235D01*
Y422617D01*
X1035313Y425157D01*
X1037853D01*
X1040392Y422617D01*
Y417539D01*
X1037853Y415000D01*
X1032774D01*
X1030235Y417539D01*
X618150Y254795D02*
Y242099D01*
X620689Y239560D01*
X625768D01*
X628307Y242099D01*
Y254795D01*
X643542D02*
X638463Y252256D01*
X633385Y247178D01*
Y242099D01*
X635924Y239560D01*
X641003D01*
X643542Y242099D01*
Y244638D01*
X641003Y247178D01*
X633385D01*
X1157040Y73750D02*
Y88985D01*
X1164657D01*
X1167196Y86446D01*
Y81368D01*
X1164657Y78828D01*
X1157040D01*
X1162118D02*
X1167196Y73750D01*
X1182431D02*
X1172275D01*
X1182431Y83907D01*
Y86446D01*
X1179892Y88985D01*
X1174814D01*
X1172275Y86446D01*
X1187510D02*
X1190049Y88985D01*
X1195127D01*
X1197666Y86446D01*
Y76289D01*
X1195127Y73750D01*
X1190049D01*
X1187510Y76289D01*
Y86446D01*
X1270000Y124140D02*
Y139375D01*
X1277617D01*
X1280157Y136836D01*
Y131757D01*
X1277617Y129218D01*
X1270000D01*
X1275078D02*
X1280157Y124140D01*
X1285235D02*
X1290313D01*
X1287774D01*
Y139375D01*
X1285235Y136836D01*
X1297931Y126679D02*
X1300470Y124140D01*
X1305549D01*
X1308088Y126679D01*
Y136836D01*
X1305549Y139375D01*
X1300470D01*
X1297931Y136836D01*
Y134297D01*
X1300470Y131757D01*
X1308088D01*
X661860Y504720D02*
Y519955D01*
X669478D01*
X672017Y517416D01*
Y512338D01*
X669478Y509798D01*
X661860D01*
X666938D02*
X672017Y504720D01*
X677095D02*
X682173D01*
X679634D01*
Y519955D01*
X677095Y517416D01*
X699948Y519955D02*
X689791D01*
Y512338D01*
X694869Y514877D01*
X697409D01*
X699948Y512338D01*
Y507259D01*
X697409Y504720D01*
X692330D01*
X689791Y507259D01*
X692150Y598080D02*
Y613315D01*
X699768D01*
X702307Y610776D01*
Y605698D01*
X699768Y603158D01*
X692150D01*
X697228D02*
X702307Y598080D01*
X707385D02*
X712463D01*
X709924D01*
Y613315D01*
X707385Y610776D01*
X720081Y598080D02*
X725159D01*
X722620D01*
Y613315D01*
X720081Y610776D01*
X425157Y552539D02*
Y562696D01*
X422617Y565235D01*
X417539D01*
X415000Y562696D01*
Y552539D01*
X417539Y550000D01*
X422617D01*
X420078Y555078D02*
X425157Y550000D01*
X422617D02*
X425157Y552539D01*
X430235D02*
X432774Y550000D01*
X437853D01*
X440392Y552539D01*
Y562696D01*
X437853Y565235D01*
X432774D01*
X430235Y562696D01*
Y560157D01*
X432774Y557617D01*
X440392D01*
X280157Y532619D02*
Y542776D01*
X277617Y545315D01*
X272539D01*
X270000Y542776D01*
Y532619D01*
X272539Y530080D01*
X277617D01*
X275078Y535158D02*
X280157Y530080D01*
X277617D02*
X280157Y532619D01*
X285235Y542776D02*
X287774Y545315D01*
X292853D01*
X295392Y542776D01*
Y540237D01*
X292853Y537697D01*
X295392Y535158D01*
Y532619D01*
X292853Y530080D01*
X287774D01*
X285235Y532619D01*
Y535158D01*
X287774Y537697D01*
X285235Y540237D01*
Y542776D01*
X287774Y537697D02*
X292853D01*
X547821Y967539D02*
Y977696D01*
X545281Y980235D01*
X540203D01*
X537664Y977696D01*
Y967539D01*
X540203Y965000D01*
X545281D01*
X542742Y970078D02*
X547821Y965000D01*
X545281D02*
X547821Y967539D01*
X563055Y980235D02*
X557977Y977696D01*
X552899Y972617D01*
Y967539D01*
X555438Y965000D01*
X560516D01*
X563055Y967539D01*
Y970078D01*
X560516Y972617D01*
X552899D01*
X280157Y977539D02*
Y987696D01*
X277617Y990235D01*
X272539D01*
X270000Y987696D01*
Y977539D01*
X272539Y975000D01*
X277617D01*
X275078Y980078D02*
X280157Y975000D01*
X277617D02*
X280157Y977539D01*
X292853Y975000D02*
Y990235D01*
X285235Y982617D01*
X295392D01*
X270157Y872539D02*
Y882696D01*
X267617Y885235D01*
X262539D01*
X260000Y882696D01*
Y872539D01*
X262539Y870000D01*
X267617D01*
X265078Y875078D02*
X270157Y870000D01*
X267617D02*
X270157Y872539D01*
X275235Y882696D02*
X277774Y885235D01*
X282853D01*
X285392Y882696D01*
Y880157D01*
X282853Y877617D01*
X280313D01*
X282853D01*
X285392Y875078D01*
Y872539D01*
X282853Y870000D01*
X277774D01*
X275235Y872539D01*
X1005157Y692539D02*
Y702696D01*
X1002617Y705235D01*
X997539D01*
X995000Y702696D01*
Y692539D01*
X997539Y690000D01*
X1002617D01*
X1000078Y695078D02*
X1005157Y690000D01*
X1002617D02*
X1005157Y692539D01*
X1020392Y690000D02*
X1010235D01*
X1020392Y700157D01*
Y702696D01*
X1017853Y705235D01*
X1012774D01*
X1010235Y702696D01*
X10000Y895000D02*
Y907496D01*
X16248D01*
X18331Y905413D01*
Y901248D01*
X16248Y899165D01*
X10000D01*
X30827Y907496D02*
X26661Y905413D01*
X22496Y901248D01*
Y897083D01*
X24579Y895000D01*
X28744D01*
X30827Y897083D01*
Y899165D01*
X28744Y901248D01*
X22496D01*
X1700000Y430000D02*
Y445235D01*
X1707617D01*
X1710157Y442696D01*
Y437617D01*
X1707617Y435078D01*
X1700000D01*
X1715235Y442696D02*
X1717774Y445235D01*
X1722853D01*
X1725392Y442696D01*
Y440157D01*
X1722853Y437617D01*
X1720313D01*
X1722853D01*
X1725392Y435078D01*
Y432539D01*
X1722853Y430000D01*
X1717774D01*
X1715235Y432539D01*
X1700000Y610000D02*
Y625235D01*
X1707617D01*
X1710157Y622696D01*
Y617617D01*
X1707617Y615078D01*
X1700000D01*
X1725392Y610000D02*
X1715235D01*
X1725392Y620157D01*
Y622696D01*
X1722853Y625235D01*
X1717774D01*
X1715235Y622696D01*
X10000Y735000D02*
Y747496D01*
X16248D01*
X18331Y745413D01*
Y741248D01*
X16248Y739165D01*
X10000D01*
X22496Y735000D02*
X26661D01*
X24579D01*
Y747496D01*
X22496Y745413D01*
X470000Y255235D02*
Y240000D01*
X480157D01*
X485235D02*
X490313D01*
X487774D01*
Y255235D01*
X485235Y252696D01*
X1115000Y275235D02*
Y260000D01*
X1122617D01*
X1125157Y262539D01*
Y272696D01*
X1122617Y275235D01*
X1115000D01*
X1130235Y272696D02*
X1132774Y275235D01*
X1137853D01*
X1140392Y272696D01*
Y270157D01*
X1137853Y267617D01*
X1135313D01*
X1137853D01*
X1140392Y265078D01*
Y262539D01*
X1137853Y260000D01*
X1132774D01*
X1130235Y262539D01*
X325380Y430235D02*
Y417539D01*
X327919Y415000D01*
X332998D01*
X335537Y417539D01*
Y430235D01*
X340615Y427696D02*
X343154Y430235D01*
X348233D01*
X350772Y427696D01*
Y425157D01*
X348233Y422617D01*
X345693D01*
X348233D01*
X350772Y420078D01*
Y417539D01*
X348233Y415000D01*
X343154D01*
X340615Y417539D01*
X780000Y748496D02*
Y737249D01*
X782249Y735000D01*
X786748D01*
X788997Y737249D01*
Y748496D01*
X802493Y735000D02*
X793496D01*
X802493Y743997D01*
Y746246D01*
X800243Y748496D01*
X795745D01*
X793496Y746246D01*
X785000Y976096D02*
Y964849D01*
X787249Y962600D01*
X791748D01*
X793997Y964849D01*
Y976096D01*
X798496Y962600D02*
X802994D01*
X800745D01*
Y976096D01*
X798496Y973846D01*
X697950Y956100D02*
Y969596D01*
X704698D01*
X706947Y967346D01*
Y962848D01*
X704698Y960599D01*
X697950D01*
X702449D02*
X706947Y956100D01*
X711446D02*
X715944D01*
X713695D01*
Y969596D01*
X711446Y967346D01*
X722692D02*
X724941Y969596D01*
X729440D01*
X731689Y967346D01*
Y958349D01*
X729440Y956100D01*
X724941D01*
X722692Y958349D01*
Y967346D01*
X930000Y575000D02*
X914765D01*
Y582617D01*
X917304Y585157D01*
X922383D01*
X924922Y582617D01*
Y575000D01*
Y580078D02*
X930000Y585157D01*
X914765Y600392D02*
X917304Y595313D01*
X922383Y590235D01*
X927461D01*
X930000Y592774D01*
Y597853D01*
X927461Y600392D01*
X924922D01*
X922383Y597853D01*
Y590235D01*
X694163Y715809D02*
Y731044D01*
X701780D01*
X704320Y728505D01*
Y723427D01*
X701780Y720887D01*
X694163D01*
X699241D02*
X704320Y715809D01*
X719555Y731044D02*
X709398D01*
Y723427D01*
X714476Y725966D01*
X717016D01*
X719555Y723427D01*
Y718348D01*
X717016Y715809D01*
X711937D01*
X709398Y718348D01*
X943720Y912300D02*
Y927535D01*
X951338D01*
X953877Y924996D01*
Y919918D01*
X951338Y917378D01*
X943720D01*
X948798D02*
X953877Y912300D01*
X966573D02*
Y927535D01*
X958955Y919918D01*
X969112D01*
X697300Y875000D02*
Y888496D01*
X704048D01*
X706297Y886246D01*
Y881748D01*
X704048Y879499D01*
X697300D01*
X701798D02*
X706297Y875000D01*
X710796Y886246D02*
X713045Y888496D01*
X717543D01*
X719793Y886246D01*
Y883997D01*
X717543Y881748D01*
X715294D01*
X717543D01*
X719793Y879499D01*
Y877249D01*
X717543Y875000D01*
X713045D01*
X710796Y877249D01*
X1090157Y957539D02*
Y967696D01*
X1087617Y970235D01*
X1082539D01*
X1080000Y967696D01*
Y957539D01*
X1082539Y955000D01*
X1087617D01*
X1085078Y960078D02*
X1090157Y955000D01*
X1087617D02*
X1090157Y957539D01*
X1095235Y955000D02*
X1100313D01*
X1097774D01*
Y970235D01*
X1095235Y967696D01*
X924560Y536113D02*
Y520878D01*
X932178D01*
X934717Y523417D01*
Y533574D01*
X932178Y536113D01*
X924560D01*
X949952Y520878D02*
X939795D01*
X949952Y531035D01*
Y533574D01*
X947413Y536113D01*
X942334D01*
X939795Y533574D01*
X945000Y970000D02*
Y985235D01*
X952617D01*
X955157Y982696D01*
Y977617D01*
X952617Y975078D01*
X945000D01*
X950078D02*
X955157Y970000D01*
X970392D02*
X960235D01*
X970392Y980157D01*
Y982696D01*
X967853Y985235D01*
X962774D01*
X960235Y982696D01*
D14*
X931430Y661510D02*
G03*
X931430Y661510I-1000J0D01*
G01*
X581400Y232500D02*
X1064400D01*
X582900Y3200D02*
Y232500D01*
X1064400Y3200D02*
Y232500D01*
X582900Y2500D02*
X1065900D01*
X930000Y780000D02*
X1090000D01*
X930000Y830000D02*
X1090000D01*
X930000Y780000D02*
Y830000D01*
X1090000Y780000D02*
Y830000D01*
D15*
X339180Y399910D02*
G03*
X339180Y399910I-1250J0D01*
G01*
X1179900Y233680D02*
Y254000D01*
D16*
X401270Y227500D02*
G03*
X401270Y227500I-80000J0D01*
G01*
X1422440Y72210D02*
X1597440D01*
X1422440Y139520D02*
X1597440D01*
X1597700Y72210D02*
Y139210D01*
X1422440Y72210D02*
Y139210D01*
X1623250Y920000D02*
X1645000D01*
X1165000D02*
X1186750D01*
X1623250D02*
Y975000D01*
X1186750D02*
X1623250D01*
X1186750Y865000D02*
Y975000D01*
Y865000D02*
X1623250D01*
Y920000D01*
X1165000Y800000D02*
X1186750D01*
X1623250D02*
X1645000D01*
X1186750Y745000D02*
Y800000D01*
Y745000D02*
X1623250D01*
Y855000D01*
X1186750D02*
X1623250D01*
X1186750Y800000D02*
Y855000D01*
X1623250Y680000D02*
X1645000D01*
X1165000D02*
X1186750D01*
X1623250D02*
Y735000D01*
X1186750D02*
X1623250D01*
X1186750Y625000D02*
Y735000D01*
Y625000D02*
X1623250D01*
Y680000D01*
X1136460Y234950D02*
Y252730D01*
Y234950D02*
X1177360D01*
Y252730D01*
X1136460D02*
X1177360D01*
X285380Y388660D02*
X335380D01*
X285380Y356660D02*
X335380D01*
Y388660D01*
X285380Y356660D02*
Y388660D01*
X278770Y295000D02*
X363770D01*
X1106340Y178100D02*
Y190096D01*
X1112338D01*
X1114337Y188097D01*
Y184098D01*
X1112338Y182099D01*
X1106340D01*
X1110339D02*
X1114337Y178100D01*
X1126333D02*
X1118336D01*
X1126333Y186097D01*
Y188097D01*
X1124334Y190096D01*
X1120335D01*
X1118336Y188097D01*
X1130332Y178100D02*
X1134331D01*
X1132332D01*
Y190096D01*
X1130332Y188097D01*
D17*
X1308000Y100000D02*
X1322000D01*
X1320080Y112700D02*
X1322000D01*
Y87300D02*
Y112700D01*
X1320080Y87300D02*
X1322000D01*
X1308000D02*
X1309920D01*
X1308000D02*
Y112700D01*
X1309920D01*
X722040Y936110D02*
Y938030D01*
X696640D02*
X722040D01*
X696640Y936110D02*
Y938030D01*
Y924030D02*
Y925950D01*
Y924030D02*
X722040D01*
Y925950D01*
X709340Y924030D02*
Y938030D01*
X213050Y530080D02*
Y532000D01*
X187650D02*
X213050D01*
X187650Y530080D02*
Y532000D01*
Y518000D02*
Y519920D01*
Y518000D02*
X213050D01*
Y519920D01*
X200350Y518000D02*
Y532000D01*
X967700Y950080D02*
Y952000D01*
X942300D02*
X967700D01*
X942300Y950080D02*
Y952000D01*
Y938000D02*
Y939920D01*
Y938000D02*
X967700D01*
Y939920D01*
X955000Y938000D02*
Y952000D01*
X339090Y553000D02*
Y567000D01*
X351790Y553000D02*
Y554920D01*
X326390Y553000D02*
X351790D01*
X326390D02*
Y554920D01*
Y565080D02*
Y567000D01*
X351790D01*
Y565080D02*
Y567000D01*
X693840Y485000D02*
X707840D01*
X693840Y472300D02*
X695760D01*
X693840D02*
Y497700D01*
X695760D01*
X705920D02*
X707840D01*
Y472300D02*
Y497700D01*
X705920Y472300D02*
X707840D01*
X1132190Y100330D02*
X1134110D01*
X1132190Y74930D02*
Y100330D01*
Y74930D02*
X1134110D01*
X1144270D02*
X1146190D01*
Y100330D01*
X1144270D02*
X1146190D01*
X1132190Y87630D02*
X1146190D01*
X1138540Y177800D02*
X1140460D01*
X1138540Y152400D02*
Y177800D01*
Y152400D02*
X1140460D01*
X1150620D02*
X1152540D01*
Y177800D01*
X1150620D02*
X1152540D01*
X1138540Y165100D02*
X1152540D01*
X697300Y898300D02*
Y900220D01*
Y898300D02*
X722700D01*
Y900220D01*
Y910380D02*
Y912300D01*
X697300D02*
X722700D01*
X697300Y910380D02*
Y912300D01*
X710000Y898300D02*
Y912300D01*
X949480Y577300D02*
X951400D01*
Y602700D01*
X949480D02*
X951400D01*
X937400D02*
X939320D01*
X937400Y577300D02*
Y602700D01*
Y577300D02*
X939320D01*
X937400Y590000D02*
X951400D01*
X967700Y904680D02*
Y906600D01*
Y892600D02*
Y894520D01*
X955000Y892600D02*
Y906600D01*
X942300D02*
X967700D01*
X942300Y904680D02*
Y906600D01*
Y892600D02*
X967700D01*
X942300D02*
Y894520D01*
X717700Y632370D02*
Y634290D01*
X692300D02*
X717700D01*
X692300Y632370D02*
Y634290D01*
Y620290D02*
Y622210D01*
Y620290D02*
X717700D01*
Y622210D01*
X705000Y620290D02*
Y634290D01*
X704450Y695220D02*
Y709220D01*
X691750Y707300D02*
Y709220D01*
X717150D01*
Y707300D02*
Y709220D01*
Y695220D02*
Y697140D01*
X691750Y695220D02*
X717150D01*
X691750D02*
Y697140D01*
X180000Y540000D02*
Y549997D01*
X184998D01*
X186665Y548331D01*
Y544998D01*
X184998Y543332D01*
X180000D01*
X183332D02*
X186665Y540000D01*
X196661D02*
X189997D01*
X196661Y546665D01*
Y548331D01*
X194995Y549997D01*
X191663D01*
X189997Y548331D01*
X199994D02*
X201660Y549997D01*
X204992D01*
X206658Y548331D01*
Y546665D01*
X204992Y544998D01*
X203326D01*
X204992D01*
X206658Y543332D01*
Y541666D01*
X204992Y540000D01*
X201660D01*
X199994Y541666D01*
D18*
X835000Y334984D02*
Y285000D01*
Y309992D01*
X868323D01*
Y334984D01*
Y285000D01*
X884984Y334984D02*
Y301661D01*
X901645Y285000D01*
X918306Y301661D01*
Y334984D01*
X683325D02*
Y285000D01*
X716648D01*
X733309Y334984D02*
Y301661D01*
X749970Y285000D01*
X766631Y301661D01*
Y334984D01*
D19*
X1009608Y625500D02*
D03*
X1065391Y924501D02*
D03*
M02*
