%TF.GenerationSoftware,Altium Limited,Altium Designer,18.1.9 (240)*%
G04 Layer_Color=0*
%FSLAX26Y26*%
%MOIN*%
%TF.FileFunction,Plated,1,2,PTH,Drill*%
%TF.Part,Single*%
G01*
G75*
%TA.AperFunction,ComponentDrill*%
%ADD94C,0.070866*%
%TA.AperFunction,OtherDrill,Pad Free-4 (194.39mil,3759.843mil)*%
%ADD95C,0.196850*%
%TA.AperFunction,OtherDrill,Pad Free-4 (194.39mil,196.85mil)*%
%ADD96C,0.196850*%
%TA.AperFunction,OtherDrill,Pad Free-4 (6712.598mil,3759.843mil)*%
%ADD97C,0.196850*%
%TA.AperFunction,OtherDrill,Pad Free-4 (6712.598mil,196.85mil)*%
%ADD98C,0.196850*%
%TA.AperFunction,ComponentDrill*%
%ADD99C,0.040157*%
%ADD100C,0.094882*%
%ADD101C,0.047244*%
%ADD102C,0.047244*%
%ADD103C,0.051181*%
%ADD104C,0.079921*%
%ADD105C,0.059843*%
%ADD106C,0.070866*%
%ADD107C,0.039370*%
%TA.AperFunction,ViaDrill,NotFilled*%
%ADD108C,0.028000*%
D94*
X767716Y1047244D02*
D03*
Y881890D02*
D03*
Y716535D02*
D03*
Y551181D02*
D03*
Y1212598D02*
D03*
X551181D02*
D03*
Y1047244D02*
D03*
Y881890D02*
D03*
Y716535D02*
D03*
Y551181D02*
D03*
Y1377953D02*
D03*
X767716D02*
D03*
D95*
X194390Y3759843D02*
D03*
D96*
Y196850D02*
D03*
D97*
X6712598Y3759843D02*
D03*
D98*
Y196850D02*
D03*
D99*
X413386Y1850394D02*
D03*
Y1968504D02*
D03*
Y2086614D02*
D03*
Y2204724D02*
D03*
Y2322835D02*
D03*
Y2440945D02*
D03*
Y2559055D02*
D03*
Y2677165D02*
D03*
Y3169291D02*
D03*
Y3287402D02*
D03*
X6483465Y2114768D02*
D03*
Y1996658D02*
D03*
Y1442913D02*
D03*
Y1324803D02*
D03*
Y773622D02*
D03*
Y655512D02*
D03*
D100*
X243307Y2761811D02*
D03*
Y1765748D02*
D03*
Y3372047D02*
D03*
Y3084646D02*
D03*
X6653543Y1912012D02*
D03*
Y2199413D02*
D03*
Y1240158D02*
D03*
Y1527559D02*
D03*
Y570866D02*
D03*
Y858268D02*
D03*
D101*
X5275591Y944882D02*
D03*
Y1944882D02*
D03*
D102*
X4074803Y1338583D02*
D03*
X5074803D02*
D03*
X4468504Y3543307D02*
D03*
X6515748D02*
D03*
Y3070866D02*
D03*
X4468504D02*
D03*
Y2598425D02*
D03*
X6515748D02*
D03*
D103*
X5649606Y419291D02*
D03*
X6240158D02*
D03*
D104*
X2332677Y807087D02*
D03*
Y590551D02*
D03*
Y374016D02*
D03*
Y157480D02*
D03*
X4158661Y797244D02*
D03*
Y167323D02*
D03*
D105*
Y644882D02*
D03*
Y536614D02*
D03*
Y427953D02*
D03*
D106*
X3779528Y3169291D02*
D03*
X4173228D02*
D03*
D107*
X3897638Y2380394D02*
D03*
Y2280394D02*
D03*
Y2180394D02*
D03*
X4114173Y3541732D02*
D03*
Y3641732D02*
D03*
Y3741732D02*
D03*
X1820709Y1062992D02*
D03*
Y767716D02*
D03*
D108*
X3503937Y3386220D02*
D03*
X5431102Y536614D02*
D03*
X5629921Y1181102D02*
D03*
X4000391Y2595925D02*
D03*
X4330709Y2334291D02*
D03*
X1243701Y1796575D02*
D03*
X1555118Y2527303D02*
D03*
Y2270315D02*
D03*
X1645669Y2169291D02*
D03*
Y2527303D02*
D03*
X1274331Y3757874D02*
D03*
X1181102Y3515256D02*
D03*
X3702364Y1742894D02*
D03*
X728346Y1712598D02*
D03*
X1239173Y1994862D02*
D03*
X1250118Y1467165D02*
D03*
X787400Y2460625D02*
D03*
X3641732Y112391D02*
D03*
Y255323D02*
D03*
Y432488D02*
D03*
Y598570D02*
D03*
Y739485D02*
D03*
X3523622Y740068D02*
D03*
Y599153D02*
D03*
Y433071D02*
D03*
Y255905D02*
D03*
Y112974D02*
D03*
X3405512Y739485D02*
D03*
Y598570D02*
D03*
Y432488D02*
D03*
Y255323D02*
D03*
Y112391D02*
D03*
X3287402Y740068D02*
D03*
Y599153D02*
D03*
Y433071D02*
D03*
Y255905D02*
D03*
Y112974D02*
D03*
X3139764Y112391D02*
D03*
Y255323D02*
D03*
Y432488D02*
D03*
Y598570D02*
D03*
Y739485D02*
D03*
X3031496Y112974D02*
D03*
Y255905D02*
D03*
Y433071D02*
D03*
Y599153D02*
D03*
Y740068D02*
D03*
X702559Y2362205D02*
D03*
X984252Y3232284D02*
D03*
X1659724Y450469D02*
D03*
X1812205D02*
D03*
X1379134Y716535D02*
D03*
X1511659D02*
D03*
X1379134Y361516D02*
D03*
X1511659D02*
D03*
X2066929Y79685D02*
D03*
X2214488D02*
D03*
X2066929Y266118D02*
D03*
X2214488D02*
D03*
X2066929Y452756D02*
D03*
X2214488D02*
D03*
X1958504Y532856D02*
D03*
X1959493Y450469D02*
D03*
X1811777Y361516D02*
D03*
X1959414D02*
D03*
X1659296D02*
D03*
X1659567Y177165D02*
D03*
X1959685D02*
D03*
X1812047D02*
D03*
Y79685D02*
D03*
X1959685D02*
D03*
X1659567D02*
D03*
X1511659Y266118D02*
D03*
X1659296D02*
D03*
X1379134D02*
D03*
X1812205D02*
D03*
X1959764D02*
D03*
X1379055Y79685D02*
D03*
X1511580D02*
D03*
Y177165D02*
D03*
X1379055D02*
D03*
X1606299Y2952756D02*
D03*
X2690256Y2618110D02*
D03*
X2047244D02*
D03*
X1606299Y3188976D02*
D03*
X2047244Y3759843D02*
D03*
X1606299D02*
D03*
X2047244Y3188976D02*
D03*
X1299213Y1212598D02*
D03*
X1068116Y3416093D02*
D03*
X1317638Y3208661D02*
D03*
X1866007Y2378780D02*
D03*
X2559055Y1639764D02*
D03*
X1850394Y1988189D02*
D03*
X570866Y2066928D02*
D03*
X2789370Y3463779D02*
D03*
Y3267716D02*
D03*
X1319134Y3562756D02*
D03*
Y3344646D02*
D03*
X452677Y177165D02*
D03*
X585202D02*
D03*
Y79685D02*
D03*
X452677D02*
D03*
X585281Y374016D02*
D03*
X732918D02*
D03*
X885827D02*
D03*
X905512Y719617D02*
D03*
X1033386Y374016D02*
D03*
Y266118D02*
D03*
X885827D02*
D03*
X452756D02*
D03*
X732918D02*
D03*
X585281D02*
D03*
X733189Y79685D02*
D03*
X1033307D02*
D03*
X885669D02*
D03*
Y177165D02*
D03*
X1033307D02*
D03*
X733189D02*
D03*
X452756Y374016D02*
D03*
X1031496Y717920D02*
D03*
X2690256Y2952756D02*
D03*
X1296193Y2371002D02*
D03*
X1296965Y2618110D02*
D03*
X2047244Y2106299D02*
D03*
Y2952756D02*
D03*
X2690256Y3188976D02*
D03*
X1294147Y1080709D02*
D03*
X2342520Y1102362D02*
D03*
X1122239Y1080709D02*
D03*
X2690186Y1503937D02*
D03*
X2690256Y2106299D02*
D03*
X2695805Y1889764D02*
D03*
X1555118Y1694882D02*
D03*
X1801024Y1514921D02*
D03*
X2755905Y740068D02*
D03*
Y599153D02*
D03*
Y433071D02*
D03*
Y255905D02*
D03*
Y112974D02*
D03*
X2651575Y67277D02*
D03*
X2657480Y197223D02*
D03*
Y354331D02*
D03*
Y531496D02*
D03*
Y675591D02*
D03*
Y815688D02*
D03*
X984252Y2362205D02*
D03*
%TF.MD5,b20e5f2c3122dfcd0f7e3e28c5469504*%
M02*
