%TF.GenerationSoftware,Altium Limited,Altium Designer,18.1.9 (240)*%
G04 Layer_Color=8388736*
%FSLAX26Y26*%
%MOIN*%
%TF.FileFunction,Soldermask,Top*%
%TF.Part,Single*%
G01*
G75*
%TA.AperFunction,SMDPad,CuDef*%
%ADD55R,0.043433X0.047370*%
%ADD56R,0.045402X0.041465*%
%TA.AperFunction,ComponentPad*%
%ADD57C,0.126110*%
%ADD58C,0.102488*%
%TA.AperFunction,ViaPad*%
%ADD59C,0.283591*%
%TA.AperFunction,ComponentPad*%
%ADD60C,0.076898*%
%ADD61C,0.145795*%
%ADD62C,0.086740*%
%ADD63O,0.126110X0.067055*%
%ADD64O,0.126110X0.086740*%
%TA.AperFunction,ViaPad*%
%ADD65C,0.058000*%
%TA.AperFunction,SMDPad,CuDef*%
%ADD74R,0.031622X0.033197*%
%ADD75R,0.039496X0.043433*%
%ADD76R,0.037528X0.031622*%
%ADD77R,0.055244X0.067055*%
%ADD78R,0.137921X0.067055*%
%ADD79R,0.088709X0.053276*%
%ADD80R,0.053276X0.088709*%
%ADD81R,0.041465X0.045402*%
%ADD82R,0.043433X0.039496*%
%ADD83R,0.031622X0.037528*%
%ADD84O,0.067055X0.055244*%
%ADD85R,0.177291X0.070992*%
%ADD86R,0.106425X0.204850*%
%ADD87R,0.065087X0.061150*%
%ADD88R,0.051307X0.059181*%
%ADD89O,0.031622X0.065087*%
%ADD90R,0.228472X0.292646*%
%ADD91R,0.070992X0.094614*%
G36*
X866142Y787402D02*
X1107013D01*
Y39370D01*
X396360D01*
Y787402D01*
X866142Y787402D01*
D02*
G37*
G36*
X2066929Y767716D02*
X2145669Y688976D01*
X2362205Y688976D01*
X2421260Y629921D01*
Y108267D01*
X2352363Y39370D01*
X1289496Y39370D01*
X1289496Y738315D01*
X1397638Y846457D01*
X1988189D01*
X2066929Y767716D01*
D02*
G37*
G36*
X3718110Y39370D02*
X2972441D01*
Y846457D01*
X3718110D01*
Y39370D01*
D02*
G37*
D55*
X1070866Y1473583D02*
D03*
X1017717D02*
D03*
D56*
X5177165Y368110D02*
D03*
Y419291D02*
D03*
X3838583Y3738327D02*
D03*
Y3687146D02*
D03*
X2657480Y1594488D02*
D03*
Y1645669D02*
D03*
X4580709Y624413D02*
D03*
Y675594D02*
D03*
D57*
X263779Y551181D02*
D03*
Y1377953D02*
D03*
X2332677Y807087D02*
D03*
Y590551D02*
D03*
Y374016D02*
D03*
Y157480D02*
D03*
X4158661Y797244D02*
D03*
Y167323D02*
D03*
X3779528Y3169291D02*
D03*
X4173228D02*
D03*
D58*
X767716Y1047244D02*
D03*
Y881890D02*
D03*
Y716535D02*
D03*
Y551181D02*
D03*
Y1212598D02*
D03*
X551181D02*
D03*
Y1047244D02*
D03*
Y881890D02*
D03*
Y716535D02*
D03*
Y551181D02*
D03*
Y1377953D02*
D03*
X767716D02*
D03*
D59*
X194390Y3759843D02*
D03*
Y196850D02*
D03*
X6712598Y3759843D02*
D03*
Y196850D02*
D03*
D60*
X413386Y1850394D02*
D03*
Y1968504D02*
D03*
Y2086614D02*
D03*
Y2204724D02*
D03*
Y2322835D02*
D03*
Y2440945D02*
D03*
Y2559055D02*
D03*
Y2677165D02*
D03*
Y3169291D02*
D03*
Y3287402D02*
D03*
X6483465Y2114768D02*
D03*
Y1996658D02*
D03*
Y1442913D02*
D03*
Y1324803D02*
D03*
Y773622D02*
D03*
Y655512D02*
D03*
D61*
X243307Y2761811D02*
D03*
Y1765748D02*
D03*
Y3372047D02*
D03*
Y3084646D02*
D03*
X6653543Y1912012D02*
D03*
Y2199413D02*
D03*
Y1240158D02*
D03*
Y1527559D02*
D03*
Y570866D02*
D03*
Y858268D02*
D03*
D62*
X5275591Y944882D02*
D03*
Y1944882D02*
D03*
X4074803Y1338583D02*
D03*
X5074803D02*
D03*
X5649606Y419291D02*
D03*
X6240158D02*
D03*
X4468504Y3543307D02*
D03*
X6515748D02*
D03*
Y3070866D02*
D03*
X4468504D02*
D03*
Y2598425D02*
D03*
X6515748D02*
D03*
X4158661Y644882D02*
D03*
Y536614D02*
D03*
Y427953D02*
D03*
D63*
X3897638Y2380394D02*
D03*
Y2280394D02*
D03*
Y2180394D02*
D03*
X4114173Y3541732D02*
D03*
Y3641732D02*
D03*
Y3741732D02*
D03*
D64*
X1820709Y1062992D02*
D03*
Y767716D02*
D03*
D65*
X3503937Y3386220D02*
D03*
X5431102Y536614D02*
D03*
X5629921Y1181102D02*
D03*
X4000391Y2595925D02*
D03*
X4330709Y2334291D02*
D03*
X1243701Y1796575D02*
D03*
X1555118Y2527303D02*
D03*
Y2270315D02*
D03*
X1645669Y2169291D02*
D03*
Y2527303D02*
D03*
X1274331Y3757874D02*
D03*
X1181102Y3515256D02*
D03*
X3702364Y1742894D02*
D03*
X728346Y1712598D02*
D03*
X1239173Y1994862D02*
D03*
X1250118Y1467165D02*
D03*
X787400Y2460625D02*
D03*
X3641732Y112391D02*
D03*
Y255323D02*
D03*
Y432488D02*
D03*
Y598570D02*
D03*
Y739485D02*
D03*
X3523622Y740068D02*
D03*
Y599153D02*
D03*
Y433071D02*
D03*
Y255905D02*
D03*
Y112974D02*
D03*
X3405512Y739485D02*
D03*
Y598570D02*
D03*
Y432488D02*
D03*
Y255323D02*
D03*
Y112391D02*
D03*
X3287402Y740068D02*
D03*
Y599153D02*
D03*
Y433071D02*
D03*
Y255905D02*
D03*
Y112974D02*
D03*
X3139764Y112391D02*
D03*
Y255323D02*
D03*
Y432488D02*
D03*
Y598570D02*
D03*
Y739485D02*
D03*
X3031496Y112974D02*
D03*
Y255905D02*
D03*
Y433071D02*
D03*
Y599153D02*
D03*
Y740068D02*
D03*
X702559Y2362205D02*
D03*
X984252Y3232284D02*
D03*
X1659724Y450469D02*
D03*
X1812205D02*
D03*
X1379134Y716535D02*
D03*
X1511659D02*
D03*
X1379134Y361516D02*
D03*
X1511659D02*
D03*
X2066929Y79685D02*
D03*
X2214488D02*
D03*
X2066929Y266118D02*
D03*
X2214488D02*
D03*
X2066929Y452756D02*
D03*
X2214488D02*
D03*
X1958504Y532856D02*
D03*
X1959493Y450469D02*
D03*
X1811777Y361516D02*
D03*
X1959414D02*
D03*
X1659296D02*
D03*
X1659567Y177165D02*
D03*
X1959685D02*
D03*
X1812047D02*
D03*
Y79685D02*
D03*
X1959685D02*
D03*
X1659567D02*
D03*
X1511659Y266118D02*
D03*
X1659296D02*
D03*
X1379134D02*
D03*
X1812205D02*
D03*
X1959764D02*
D03*
X1379055Y79685D02*
D03*
X1511580D02*
D03*
Y177165D02*
D03*
X1379055D02*
D03*
X1606299Y2952756D02*
D03*
X2690256Y2618110D02*
D03*
X2047244D02*
D03*
X1606299Y3188976D02*
D03*
X2047244Y3759843D02*
D03*
X1606299D02*
D03*
X2047244Y3188976D02*
D03*
X1299213Y1212598D02*
D03*
X1068116Y3416093D02*
D03*
X1317638Y3208661D02*
D03*
X1866007Y2378780D02*
D03*
X2559055Y1639764D02*
D03*
X1850394Y1988189D02*
D03*
X570866Y2066928D02*
D03*
X2789370Y3463779D02*
D03*
Y3267716D02*
D03*
X1319134Y3562756D02*
D03*
Y3344646D02*
D03*
X452677Y177165D02*
D03*
X585202D02*
D03*
Y79685D02*
D03*
X452677D02*
D03*
X585281Y374016D02*
D03*
X732918D02*
D03*
X885827D02*
D03*
X905512Y719617D02*
D03*
X1033386Y374016D02*
D03*
Y266118D02*
D03*
X885827D02*
D03*
X452756D02*
D03*
X732918D02*
D03*
X585281D02*
D03*
X733189Y79685D02*
D03*
X1033307D02*
D03*
X885669D02*
D03*
Y177165D02*
D03*
X1033307D02*
D03*
X733189D02*
D03*
X452756Y374016D02*
D03*
X1031496Y717920D02*
D03*
X2690256Y2952756D02*
D03*
X1296193Y2371002D02*
D03*
X1296965Y2618110D02*
D03*
X2047244Y2106299D02*
D03*
Y2952756D02*
D03*
X2690256Y3188976D02*
D03*
X1294147Y1080709D02*
D03*
X2342520Y1102362D02*
D03*
X1122239Y1080709D02*
D03*
X2690186Y1503937D02*
D03*
X2690256Y2106299D02*
D03*
X2695805Y1889764D02*
D03*
X1555118Y1694882D02*
D03*
X1801024Y1514921D02*
D03*
X2755905Y740068D02*
D03*
Y599153D02*
D03*
Y433071D02*
D03*
Y255905D02*
D03*
Y112974D02*
D03*
X2651575Y67277D02*
D03*
X2657480Y197223D02*
D03*
Y354331D02*
D03*
Y531496D02*
D03*
Y675591D02*
D03*
Y815688D02*
D03*
X984252Y2362205D02*
D03*
D74*
X1088189Y1299213D02*
D03*
X1053543D02*
D03*
D75*
X1852362Y2061024D02*
D03*
X1927165D02*
D03*
X1889764Y2139764D02*
D03*
D76*
X1489527Y2204724D02*
D03*
X1444252D02*
D03*
X1289496Y1673228D02*
D03*
X1244220D02*
D03*
X1319606Y3275197D02*
D03*
X1274331D02*
D03*
D77*
X1645669Y2637930D02*
D03*
X1555118D02*
D03*
X1464567D02*
D03*
X773622Y3602362D02*
D03*
X864173D02*
D03*
X954725D02*
D03*
X2503937Y2334646D02*
D03*
X2413386D02*
D03*
X2322835D02*
D03*
X964567Y3149606D02*
D03*
X874016D02*
D03*
X783465D02*
D03*
X1425197Y2066929D02*
D03*
X1515748D02*
D03*
X1606299D02*
D03*
X913386Y1994862D02*
D03*
X1003937D02*
D03*
X1094488D02*
D03*
X2311024Y3527559D02*
D03*
X2401575D02*
D03*
X2492126D02*
D03*
D78*
X1555118Y2385961D02*
D03*
X864173Y3854331D02*
D03*
X2413386Y2586614D02*
D03*
X874016Y3401575D02*
D03*
X1515748Y1814961D02*
D03*
X1003937Y1742894D02*
D03*
X2401575Y3779528D02*
D03*
D79*
X669291Y2066929D02*
D03*
X2106299Y3476378D02*
D03*
X997047Y2114768D02*
D03*
X570866Y1850394D02*
D03*
X783465Y3011811D02*
D03*
X609055Y3562992D02*
D03*
X2677165Y3385827D02*
D03*
X2578740Y2204724D02*
D03*
X752953Y1614803D02*
D03*
X1243701Y1738642D02*
D03*
X1387991Y1416338D02*
D03*
X2118110Y2334646D02*
D03*
X964567Y1350394D02*
D03*
X2263780Y1909449D02*
D03*
X1003937Y944882D02*
D03*
X6200787Y773622D02*
D03*
X5629921Y1614173D02*
D03*
X6220472Y1791339D02*
D03*
X846457Y2362205D02*
D03*
X3549213Y1442913D02*
D03*
X4291339Y1633858D02*
D03*
X3626968Y2151575D02*
D03*
X3602362Y3386220D02*
D03*
X3484252Y3678287D02*
D03*
D80*
X1370709Y2206496D02*
D03*
X3996063Y1136826D02*
D03*
X3838583Y1136811D02*
D03*
X6062992Y2270669D02*
D03*
D81*
X1492480Y1585275D02*
D03*
X1441299D02*
D03*
X2840551Y2294095D02*
D03*
X2789370D02*
D03*
X763191Y2066929D02*
D03*
X814372D02*
D03*
X4482283Y427953D02*
D03*
X4533465D02*
D03*
X2840551Y3564173D02*
D03*
X2789370D02*
D03*
D82*
X1107013Y3287402D02*
D03*
X1185753Y3324803D02*
D03*
Y3250000D02*
D03*
X1107598Y3720472D02*
D03*
X1186339Y3757874D02*
D03*
Y3683071D02*
D03*
D83*
X1496063Y1360866D02*
D03*
Y1406142D02*
D03*
X1318898Y3638780D02*
D03*
Y3684055D02*
D03*
D84*
X3364173Y1544488D02*
D03*
Y1644488D02*
D03*
X3013780Y1544488D02*
D03*
Y1644488D02*
D03*
X3013780Y2294095D02*
D03*
Y2194095D02*
D03*
X3364173Y2294095D02*
D03*
Y2194095D02*
D03*
X3013779Y3564173D02*
D03*
Y3464173D02*
D03*
X3364173Y3564173D02*
D03*
Y3464173D02*
D03*
D85*
X5433071Y472441D02*
D03*
Y366142D02*
D03*
D86*
X999016Y551181D02*
D03*
X1441929D02*
D03*
D87*
X3503937Y2207323D02*
D03*
Y2323465D02*
D03*
D88*
X4580709Y826772D02*
D03*
X4671260D02*
D03*
D89*
X1296968Y1574449D02*
D03*
X1246968D02*
D03*
X1196968D02*
D03*
X1146968D02*
D03*
X1296968Y1359882D02*
D03*
X1246968D02*
D03*
X1196968D02*
D03*
X1146968D02*
D03*
D90*
X6043307Y1371062D02*
D03*
X5629921D02*
D03*
D91*
X3996063Y1732284D02*
D03*
X3834646D02*
D03*
%TF.MD5,1cffd3ba45d8c143378b0c9b5cf8ea58*%
M02*
