G04*
G04 #@! TF.GenerationSoftware,Altium Limited,Altium Designer,18.1.9 (240)*
G04*
G04 Layer_Color=32768*
%FSLAX44Y44*%
%MOMM*%
G71*
G01*
G75*
%ADD16C,0.2000*%
%ADD73C,0.1000*%
%ADD74C,0.0500*%
D16*
X321270Y215000D02*
Y240000D01*
X308770Y227500D02*
X333770D01*
X236270Y142500D02*
Y312500D01*
X406270D01*
Y142500D02*
Y312500D01*
X236270Y142500D02*
X406270D01*
D73*
X1315000Y95250D02*
Y104750D01*
X1310250Y100000D02*
X1319750D01*
X709340Y926280D02*
Y935780D01*
X704590Y931030D02*
X714090D01*
X200350Y520250D02*
Y529750D01*
X195600Y525000D02*
X205100D01*
X692235Y315250D02*
Y324750D01*
X687485Y320000D02*
X696985D01*
X944400Y640000D02*
Y650000D01*
X939400Y645000D02*
X949400D01*
X955000Y940250D02*
Y949750D01*
X950250Y945000D02*
X959750D01*
X334340Y560000D02*
X343840D01*
X339090Y555250D02*
Y564750D01*
X700840Y480250D02*
Y489750D01*
X696090Y485000D02*
X705590D01*
X305250Y350000D02*
X314750D01*
X310000Y345250D02*
Y354750D01*
X310380Y367660D02*
Y377660D01*
X305380Y372660D02*
X315380D01*
X1134440Y87630D02*
X1143940D01*
X1139190Y82880D02*
Y92380D01*
X1140790Y165100D02*
X1150290D01*
X1145540Y160350D02*
Y169850D01*
X710000Y900550D02*
Y910050D01*
X705250Y905300D02*
X714750D01*
X939650Y590000D02*
X949150D01*
X944400Y585250D02*
Y594750D01*
X950250Y899600D02*
X959750D01*
X955000Y894850D02*
Y904350D01*
X687485Y280000D02*
X696985D01*
X692235Y275250D02*
Y284750D01*
X705000Y622540D02*
Y632040D01*
X700250Y627290D02*
X709750D01*
X305250Y375000D02*
X314750D01*
X310000Y370250D02*
Y379750D01*
X699700Y702220D02*
X709200D01*
X704450Y697470D02*
Y706970D01*
D74*
X1307500Y113500D02*
X1322500D01*
X1307500Y86500D02*
X1322500D01*
Y113500D01*
X1307500Y86500D02*
Y113500D01*
X695840Y938530D02*
X722840D01*
X695840Y923530D02*
X722840D01*
X695840D02*
Y938530D01*
X722840Y923530D02*
Y938530D01*
X186850Y532500D02*
X213850D01*
X186850Y517500D02*
X213850D01*
X186850D02*
Y532500D01*
X213850Y517500D02*
Y532500D01*
X684734Y306500D02*
X699734D01*
X684734D02*
Y333500D01*
X699734Y306500D02*
Y333500D01*
X684734D02*
X699734D01*
X932900Y621500D02*
X955900D01*
X932900Y668500D02*
X955900D01*
X932900Y621500D02*
Y668500D01*
X955900Y621500D02*
Y668500D01*
X941500Y952500D02*
X968500D01*
X941500Y937500D02*
X968500D01*
X941500D02*
Y952500D01*
X968500Y937500D02*
Y952500D01*
X352590Y552500D02*
Y567500D01*
X325590Y552500D02*
Y567500D01*
Y552500D02*
X352590D01*
X325590Y567500D02*
X352590D01*
X693340Y471500D02*
X708340D01*
X693340Y498500D02*
X708340D01*
X693340Y471500D02*
Y498500D01*
X708340Y471500D02*
Y498500D01*
X296500Y342500D02*
Y357500D01*
X323500Y342500D02*
Y357500D01*
X296500Y342500D02*
X323500D01*
X296500Y357500D02*
X323500D01*
X282880Y409660D02*
X337880D01*
X282880Y335660D02*
X337880D01*
Y409660D01*
X282880Y335660D02*
Y409660D01*
X1131690Y74130D02*
Y101130D01*
X1146690Y74130D02*
Y101130D01*
X1131690Y74130D02*
X1146690D01*
X1131690Y101130D02*
X1146690D01*
X1138040Y151600D02*
Y178600D01*
X1153040Y151600D02*
Y178600D01*
X1138040Y151600D02*
X1153040D01*
X1138040Y178600D02*
X1153040D01*
X696500Y897800D02*
X723500D01*
X696500Y912800D02*
X723500D01*
Y897800D02*
Y912800D01*
X696500Y897800D02*
Y912800D01*
X951900Y576500D02*
Y603500D01*
X936900Y576500D02*
Y603500D01*
X951900D01*
X936900Y576500D02*
X951900D01*
X968500Y892100D02*
Y907100D01*
X941500D02*
X968500D01*
X941500Y892100D02*
X968500D01*
X941500D02*
Y907100D01*
X699735Y266500D02*
Y293500D01*
X684735Y266500D02*
X699735D01*
X684735Y293500D02*
X699735D01*
X684735Y266500D02*
Y293500D01*
X691500Y634790D02*
X718500D01*
X691500Y619790D02*
X718500D01*
X691500D02*
Y634790D01*
X718500Y619790D02*
Y634790D01*
X323500Y367500D02*
Y382500D01*
X296500Y367500D02*
Y382500D01*
X323500D01*
X296500Y367500D02*
X323500D01*
X690950Y694720D02*
Y709720D01*
X717950Y694720D02*
Y709720D01*
X690950D02*
X717950D01*
X690950Y694720D02*
X717950D01*
M02*
