%TF.GenerationSoftware,Altium Limited,Altium Designer,18.1.9 (240)*%
G04 Layer_Color=2752767*
%FSLAX26Y26*%
%MOIN*%
%TF.FileFunction,Drawing*%
%TF.Part,Single*%
G01*
G75*
%TA.AperFunction,NonConductor*%
%ADD110C,0.005000*%
%ADD111C,0.006667*%
%ADD112C,0.004000*%
D110*
X243780Y531181D02*
Y571181D01*
X283779D01*
Y531181D01*
X243780D01*
Y1357953D02*
Y1397953D01*
X283779D01*
Y1357953D01*
X243780D01*
X194390Y3739843D02*
X174390Y3779843D01*
X214390D01*
X194390Y3739843D01*
Y176850D02*
X174390Y216850D01*
X214390D01*
X194390Y176850D01*
X6712598Y3739843D02*
X6692598Y3779843D01*
X6732598D01*
X6712598Y3739843D01*
Y176850D02*
X6692598Y216850D01*
X6732598D01*
X6712598Y176850D01*
X413386Y1830394D02*
X423386Y1840394D01*
X433386D01*
X423386Y1850394D01*
X433386Y1860394D01*
X423386D01*
X413386Y1870394D01*
X403386Y1860394D01*
X393386D01*
X403386Y1850394D01*
X393386Y1840394D01*
X403386D01*
X413386Y1830394D01*
Y1948504D02*
X423386Y1958504D01*
X433386D01*
X423386Y1968504D01*
X433386Y1978504D01*
X423386D01*
X413386Y1988504D01*
X403386Y1978504D01*
X393386D01*
X403386Y1968504D01*
X393386Y1958504D01*
X403386D01*
X413386Y1948504D01*
Y2066614D02*
X423386Y2076614D01*
X433386D01*
X423386Y2086614D01*
X433386Y2096614D01*
X423386D01*
X413386Y2106614D01*
X403386Y2096614D01*
X393386D01*
X403386Y2086614D01*
X393386Y2076614D01*
X403386D01*
X413386Y2066614D01*
Y2184724D02*
X423386Y2194724D01*
X433386D01*
X423386Y2204724D01*
X433386Y2214724D01*
X423386D01*
X413386Y2224724D01*
X403386Y2214724D01*
X393386D01*
X403386Y2204724D01*
X393386Y2194724D01*
X403386D01*
X413386Y2184724D01*
Y2302835D02*
X423386Y2312835D01*
X433386D01*
X423386Y2322835D01*
X433386Y2332835D01*
X423386D01*
X413386Y2342835D01*
X403386Y2332835D01*
X393386D01*
X403386Y2322835D01*
X393386Y2312835D01*
X403386D01*
X413386Y2302835D01*
Y2420945D02*
X423386Y2430945D01*
X433386D01*
X423386Y2440945D01*
X433386Y2450945D01*
X423386D01*
X413386Y2460945D01*
X403386Y2450945D01*
X393386D01*
X403386Y2440945D01*
X393386Y2430945D01*
X403386D01*
X413386Y2420945D01*
Y2539055D02*
X423386Y2549055D01*
X433386D01*
X423386Y2559055D01*
X433386Y2569055D01*
X423386D01*
X413386Y2579055D01*
X403386Y2569055D01*
X393386D01*
X403386Y2559055D01*
X393386Y2549055D01*
X403386D01*
X413386Y2539055D01*
Y2657165D02*
X423386Y2667165D01*
X433386D01*
X423386Y2677165D01*
X433386Y2687165D01*
X423386D01*
X413386Y2697165D01*
X403386Y2687165D01*
X393386D01*
X403386Y2677165D01*
X393386Y2667165D01*
X403386D01*
X413386Y2657165D01*
X223307Y2741811D02*
X233307Y2761811D01*
X223307Y2781811D01*
X243307Y2771811D01*
X263307Y2781811D01*
X253307Y2761811D01*
X263307Y2741811D01*
X243307Y2751811D01*
X223307Y2741811D01*
Y1745748D02*
X233307Y1765748D01*
X223307Y1785748D01*
X243307Y1775748D01*
X263307Y1785748D01*
X253307Y1765748D01*
X263307Y1745748D01*
X243307Y1755748D01*
X223307Y1745748D01*
X5265591Y934882D02*
Y924882D01*
X5285591D01*
Y934882D01*
X5295591D01*
Y954882D01*
X5285591D01*
Y964882D01*
X5265591D01*
Y954882D01*
X5255591D01*
Y934882D01*
X5265591D01*
Y1934882D02*
Y1924882D01*
X5285591D01*
Y1934882D01*
X5295591D01*
Y1954882D01*
X5285591D01*
Y1964882D01*
X5265591D01*
Y1954882D01*
X5255591D01*
Y1934882D01*
X5265591D01*
X4064803Y1328583D02*
Y1318583D01*
X4084803D01*
Y1328583D01*
X4094803D01*
Y1348583D01*
X4084803D01*
Y1358583D01*
X4064803D01*
Y1348583D01*
X4054803D01*
Y1328583D01*
X4064803D01*
X5064803D02*
Y1318583D01*
X5084803D01*
Y1328583D01*
X5094803D01*
Y1348583D01*
X5084803D01*
Y1358583D01*
X5064803D01*
Y1348583D01*
X5054803D01*
Y1328583D01*
X5064803D01*
X5629606Y399291D02*
X5639606D01*
X5649606Y409291D01*
X5659606Y399291D01*
X5669606D01*
Y409291D01*
X5659606Y419291D01*
X5669606Y429291D01*
Y439291D01*
X5659606D01*
X5649606Y429291D01*
X5639606Y439291D01*
X5629606D01*
Y429291D01*
X5639606Y419291D01*
X5629606Y409291D01*
Y399291D01*
X6220158D02*
X6230158D01*
X6240158Y409291D01*
X6250158Y399291D01*
X6260158D01*
Y409291D01*
X6250158Y419291D01*
X6260158Y429291D01*
Y439291D01*
X6250158D01*
X6240158Y429291D01*
X6230158Y439291D01*
X6220158D01*
Y429291D01*
X6230158Y419291D01*
X6220158Y409291D01*
Y399291D01*
X413386Y3149291D02*
X423386Y3159291D01*
X433386D01*
X423386Y3169291D01*
X433386Y3179291D01*
X423386D01*
X413386Y3189291D01*
X403386Y3179291D01*
X393386D01*
X403386Y3169291D01*
X393386Y3159291D01*
X403386D01*
X413386Y3149291D01*
Y3267402D02*
X423386Y3277402D01*
X433386D01*
X423386Y3287402D01*
X433386Y3297402D01*
X423386D01*
X413386Y3307402D01*
X403386Y3297402D01*
X393386D01*
X403386Y3287402D01*
X393386Y3277402D01*
X403386D01*
X413386Y3267402D01*
X223307Y3352047D02*
X233307Y3372047D01*
X223307Y3392047D01*
X243307Y3382047D01*
X263307Y3392047D01*
X253307Y3372047D01*
X263307Y3352047D01*
X243307Y3362047D01*
X223307Y3352047D01*
Y3064646D02*
X233307Y3084646D01*
X223307Y3104646D01*
X243307Y3094646D01*
X263307Y3104646D01*
X253307Y3084646D01*
X263307Y3064646D01*
X243307Y3074646D01*
X223307Y3064646D01*
X4458504Y3533307D02*
Y3523307D01*
X4478504D01*
Y3533307D01*
X4488504D01*
Y3553307D01*
X4478504D01*
Y3563307D01*
X4458504D01*
Y3553307D01*
X4448504D01*
Y3533307D01*
X4458504D01*
X6505748D02*
Y3523307D01*
X6525748D01*
Y3533307D01*
X6535748D01*
Y3553307D01*
X6525748D01*
Y3563307D01*
X6505748D01*
Y3553307D01*
X6495748D01*
Y3533307D01*
X6505748D01*
Y3060866D02*
Y3050866D01*
X6525748D01*
Y3060866D01*
X6535748D01*
Y3080866D01*
X6525748D01*
Y3090866D01*
X6505748D01*
Y3080866D01*
X6495748D01*
Y3060866D01*
X6505748D01*
X4458504D02*
Y3050866D01*
X4478504D01*
Y3060866D01*
X4488504D01*
Y3080866D01*
X4478504D01*
Y3090866D01*
X4458504D01*
Y3080866D01*
X4448504D01*
Y3060866D01*
X4458504D01*
Y2588425D02*
Y2578425D01*
X4478504D01*
Y2588425D01*
X4488504D01*
Y2608425D01*
X4478504D01*
Y2618425D01*
X4458504D01*
Y2608425D01*
X4448504D01*
Y2588425D01*
X4458504D01*
X6505748D02*
Y2578425D01*
X6525748D01*
Y2588425D01*
X6535748D01*
Y2608425D01*
X6525748D01*
Y2618425D01*
X6505748D01*
Y2608425D01*
X6495748D01*
Y2588425D01*
X6505748D01*
X2312677Y807087D02*
X2332677Y827087D01*
X2352677Y807087D01*
X2332677Y787087D01*
X2312677Y807087D01*
Y590551D02*
X2332677Y610551D01*
X2352677Y590551D01*
X2332677Y570551D01*
X2312677Y590551D01*
Y374016D02*
X2332677Y394016D01*
X2352677Y374016D01*
X2332677Y354016D01*
X2312677Y374016D01*
Y157480D02*
X2332677Y177480D01*
X2352677Y157480D01*
X2332677Y137480D01*
X2312677Y157480D01*
X4138661Y797244D02*
X4158661Y817244D01*
X4178661Y797244D01*
X4158661Y777244D01*
X4138661Y797244D01*
Y624882D02*
Y664882D01*
X4178661D01*
Y624882D01*
X4138661D01*
X4146661Y632882D02*
Y656882D01*
X4170661D01*
Y632882D01*
X4146661D01*
X4138661Y516614D02*
Y556614D01*
X4178661D01*
Y516614D01*
X4138661D01*
X4146661Y524614D02*
Y548614D01*
X4170661D01*
Y524614D01*
X4146661D01*
X4138661Y407953D02*
Y447953D01*
X4178661D01*
Y407953D01*
X4138661D01*
X4146661Y415953D02*
Y439953D01*
X4170661D01*
Y415953D01*
X4146661D01*
X4138661Y167323D02*
X4158661Y187323D01*
X4178661Y167323D01*
X4158661Y147323D01*
X4138661Y167323D01*
X6483465Y2094768D02*
X6493465Y2104768D01*
X6503465D01*
X6493465Y2114768D01*
X6503465Y2124768D01*
X6493465D01*
X6483465Y2134768D01*
X6473465Y2124768D01*
X6463465D01*
X6473465Y2114768D01*
X6463465Y2104768D01*
X6473465D01*
X6483465Y2094768D01*
Y1976658D02*
X6493465Y1986658D01*
X6503465D01*
X6493465Y1996658D01*
X6503465Y2006658D01*
X6493465D01*
X6483465Y2016658D01*
X6473465Y2006658D01*
X6463465D01*
X6473465Y1996658D01*
X6463465Y1986658D01*
X6473465D01*
X6483465Y1976658D01*
X6633543Y1892012D02*
X6643543Y1912012D01*
X6633543Y1932012D01*
X6653543Y1922012D01*
X6673543Y1932012D01*
X6663543Y1912012D01*
X6673543Y1892012D01*
X6653543Y1902012D01*
X6633543Y1892012D01*
Y2179413D02*
X6643543Y2199413D01*
X6633543Y2219413D01*
X6653543Y2209413D01*
X6673543Y2219413D01*
X6663543Y2199413D01*
X6673543Y2179413D01*
X6653543Y2189413D01*
X6633543Y2179413D01*
X6483465Y1422913D02*
X6493465Y1432913D01*
X6503465D01*
X6493465Y1442913D01*
X6503465Y1452913D01*
X6493465D01*
X6483465Y1462913D01*
X6473465Y1452913D01*
X6463465D01*
X6473465Y1442913D01*
X6463465Y1432913D01*
X6473465D01*
X6483465Y1422913D01*
Y1304803D02*
X6493465Y1314803D01*
X6503465D01*
X6493465Y1324803D01*
X6503465Y1334803D01*
X6493465D01*
X6483465Y1344803D01*
X6473465Y1334803D01*
X6463465D01*
X6473465Y1324803D01*
X6463465Y1314803D01*
X6473465D01*
X6483465Y1304803D01*
X6633543Y1220158D02*
X6643543Y1240158D01*
X6633543Y1260158D01*
X6653543Y1250158D01*
X6673543Y1260158D01*
X6663543Y1240158D01*
X6673543Y1220158D01*
X6653543Y1230158D01*
X6633543Y1220158D01*
Y1507559D02*
X6643543Y1527559D01*
X6633543Y1547559D01*
X6653543Y1537559D01*
X6673543Y1547559D01*
X6663543Y1527559D01*
X6673543Y1507559D01*
X6653543Y1517559D01*
X6633543Y1507559D01*
X6483465Y753622D02*
X6493465Y763622D01*
X6503465D01*
X6493465Y773622D01*
X6503465Y783622D01*
X6493465D01*
X6483465Y793622D01*
X6473465Y783622D01*
X6463465D01*
X6473465Y773622D01*
X6463465Y763622D01*
X6473465D01*
X6483465Y753622D01*
Y635512D02*
X6493465Y645512D01*
X6503465D01*
X6493465Y655512D01*
X6503465Y665512D01*
X6493465D01*
X6483465Y675512D01*
X6473465Y665512D01*
X6463465D01*
X6473465Y655512D01*
X6463465Y645512D01*
X6473465D01*
X6483465Y635512D01*
X6633543Y550866D02*
X6643543Y570866D01*
X6633543Y590866D01*
X6653543Y580866D01*
X6673543Y590866D01*
X6663543Y570866D01*
X6673543Y550866D01*
X6653543Y560866D01*
X6633543Y550866D01*
Y838268D02*
X6643543Y858268D01*
X6633543Y878268D01*
X6653543Y868268D01*
X6673543Y878268D01*
X6663543Y858268D01*
X6673543Y838268D01*
X6653543Y848268D01*
X6633543Y838268D01*
X3503937Y3366220D02*
X3483937Y3406220D01*
X3523937D01*
X3503937Y3366220D01*
Y3374220D02*
X3491937Y3398220D01*
X3515937D01*
X3503937Y3374220D01*
X5431102Y516614D02*
X5411102Y556614D01*
X5451102D01*
X5431102Y516614D01*
Y524614D02*
X5419102Y548614D01*
X5443102D01*
X5431102Y524614D01*
X5629921Y1161102D02*
X5609921Y1201102D01*
X5649921D01*
X5629921Y1161102D01*
Y1169102D02*
X5617921Y1193102D01*
X5641921D01*
X5629921Y1169102D01*
X4000391Y2575925D02*
X3980391Y2615925D01*
X4020391D01*
X4000391Y2575925D01*
Y2583925D02*
X3988391Y2607925D01*
X4012391D01*
X4000391Y2583925D01*
X4330709Y2314291D02*
X4310709Y2354291D01*
X4350709D01*
X4330709Y2314291D01*
Y2322291D02*
X4318709Y2346291D01*
X4342709D01*
X4330709Y2322291D01*
X1243701Y1776575D02*
X1223701Y1816575D01*
X1263701D01*
X1243701Y1776575D01*
Y1784575D02*
X1231701Y1808575D01*
X1255701D01*
X1243701Y1784575D01*
X1555118Y2507303D02*
X1535118Y2547303D01*
X1575118D01*
X1555118Y2507303D01*
Y2515303D02*
X1543118Y2539303D01*
X1567118D01*
X1555118Y2515303D01*
Y2250315D02*
X1535118Y2290315D01*
X1575118D01*
X1555118Y2250315D01*
Y2258315D02*
X1543118Y2282315D01*
X1567118D01*
X1555118Y2258315D01*
X1645669Y2149291D02*
X1625669Y2189291D01*
X1665669D01*
X1645669Y2149291D01*
Y2157291D02*
X1633669Y2181291D01*
X1657669D01*
X1645669Y2157291D01*
Y2507303D02*
X1625669Y2547303D01*
X1665669D01*
X1645669Y2507303D01*
Y2515303D02*
X1633669Y2539303D01*
X1657669D01*
X1645669Y2515303D01*
X1274331Y3737874D02*
X1254331Y3777874D01*
X1294331D01*
X1274331Y3737874D01*
Y3745874D02*
X1262331Y3769874D01*
X1286331D01*
X1274331Y3745874D01*
X1181102Y3495256D02*
X1161102Y3535256D01*
X1201102D01*
X1181102Y3495256D01*
Y3503256D02*
X1169102Y3527256D01*
X1193102D01*
X1181102Y3503256D01*
X3702364Y1722894D02*
X3682364Y1762894D01*
X3722364D01*
X3702364Y1722894D01*
Y1730894D02*
X3690364Y1754894D01*
X3714364D01*
X3702364Y1730894D01*
X728346Y1692598D02*
X708346Y1732598D01*
X748346D01*
X728346Y1692598D01*
Y1700598D02*
X716346Y1724598D01*
X740346D01*
X728346Y1700598D01*
X1239173Y1974862D02*
X1219173Y2014862D01*
X1259173D01*
X1239173Y1974862D01*
Y1982862D02*
X1227173Y2006862D01*
X1251173D01*
X1239173Y1982862D01*
X1250118Y1447165D02*
X1230118Y1487165D01*
X1270118D01*
X1250118Y1447165D01*
Y1455165D02*
X1238118Y1479165D01*
X1262118D01*
X1250118Y1455165D01*
X787400Y2440625D02*
X767400Y2480625D01*
X807400D01*
X787400Y2440625D01*
Y2448625D02*
X775400Y2472625D01*
X799400D01*
X787400Y2448625D01*
X3641732Y92391D02*
X3621732Y132391D01*
X3661732D01*
X3641732Y92391D01*
Y100391D02*
X3629732Y124391D01*
X3653732D01*
X3641732Y100391D01*
Y235323D02*
X3621732Y275323D01*
X3661732D01*
X3641732Y235323D01*
Y243323D02*
X3629732Y267323D01*
X3653732D01*
X3641732Y243323D01*
Y412488D02*
X3621732Y452488D01*
X3661732D01*
X3641732Y412488D01*
Y420488D02*
X3629732Y444488D01*
X3653732D01*
X3641732Y420488D01*
Y578570D02*
X3621732Y618570D01*
X3661732D01*
X3641732Y578570D01*
Y586570D02*
X3629732Y610570D01*
X3653732D01*
X3641732Y586570D01*
Y719485D02*
X3621732Y759485D01*
X3661732D01*
X3641732Y719485D01*
Y727485D02*
X3629732Y751485D01*
X3653732D01*
X3641732Y727485D01*
X3523622Y720068D02*
X3503622Y760068D01*
X3543622D01*
X3523622Y720068D01*
Y728068D02*
X3511622Y752068D01*
X3535622D01*
X3523622Y728068D01*
Y579153D02*
X3503622Y619153D01*
X3543622D01*
X3523622Y579153D01*
Y587153D02*
X3511622Y611153D01*
X3535622D01*
X3523622Y587153D01*
Y413071D02*
X3503622Y453071D01*
X3543622D01*
X3523622Y413071D01*
Y421071D02*
X3511622Y445071D01*
X3535622D01*
X3523622Y421071D01*
Y235905D02*
X3503622Y275906D01*
X3543622D01*
X3523622Y235905D01*
Y243905D02*
X3511622Y267906D01*
X3535622D01*
X3523622Y243905D01*
Y92974D02*
X3503622Y132974D01*
X3543622D01*
X3523622Y92974D01*
Y100974D02*
X3511622Y124974D01*
X3535622D01*
X3523622Y100974D01*
X3405512Y719485D02*
X3385512Y759485D01*
X3425512D01*
X3405512Y719485D01*
Y727485D02*
X3393512Y751485D01*
X3417512D01*
X3405512Y727485D01*
Y578570D02*
X3385512Y618570D01*
X3425512D01*
X3405512Y578570D01*
Y586570D02*
X3393512Y610570D01*
X3417512D01*
X3405512Y586570D01*
Y412488D02*
X3385512Y452488D01*
X3425512D01*
X3405512Y412488D01*
Y420488D02*
X3393512Y444488D01*
X3417512D01*
X3405512Y420488D01*
Y235323D02*
X3385512Y275323D01*
X3425512D01*
X3405512Y235323D01*
Y243323D02*
X3393512Y267323D01*
X3417512D01*
X3405512Y243323D01*
Y92391D02*
X3385512Y132391D01*
X3425512D01*
X3405512Y92391D01*
Y100391D02*
X3393512Y124391D01*
X3417512D01*
X3405512Y100391D01*
X3287402Y720068D02*
X3267402Y760068D01*
X3307402D01*
X3287402Y720068D01*
Y728068D02*
X3275402Y752068D01*
X3299402D01*
X3287402Y728068D01*
Y579153D02*
X3267402Y619153D01*
X3307402D01*
X3287402Y579153D01*
Y587153D02*
X3275402Y611153D01*
X3299402D01*
X3287402Y587153D01*
Y413071D02*
X3267402Y453071D01*
X3307402D01*
X3287402Y413071D01*
Y421071D02*
X3275402Y445071D01*
X3299402D01*
X3287402Y421071D01*
Y235905D02*
X3267402Y275906D01*
X3307402D01*
X3287402Y235905D01*
Y243905D02*
X3275402Y267906D01*
X3299402D01*
X3287402Y243905D01*
Y92974D02*
X3267402Y132974D01*
X3307402D01*
X3287402Y92974D01*
Y100974D02*
X3275402Y124974D01*
X3299402D01*
X3287402Y100974D01*
X3139764Y92391D02*
X3119764Y132391D01*
X3159764D01*
X3139764Y92391D01*
Y100391D02*
X3127764Y124391D01*
X3151764D01*
X3139764Y100391D01*
Y235323D02*
X3119764Y275323D01*
X3159764D01*
X3139764Y235323D01*
Y243323D02*
X3127764Y267323D01*
X3151764D01*
X3139764Y243323D01*
Y412488D02*
X3119764Y452488D01*
X3159764D01*
X3139764Y412488D01*
Y420488D02*
X3127764Y444488D01*
X3151764D01*
X3139764Y420488D01*
Y578570D02*
X3119764Y618570D01*
X3159764D01*
X3139764Y578570D01*
Y586570D02*
X3127764Y610570D01*
X3151764D01*
X3139764Y586570D01*
Y719485D02*
X3119764Y759485D01*
X3159764D01*
X3139764Y719485D01*
Y727485D02*
X3127764Y751485D01*
X3151764D01*
X3139764Y727485D01*
X3031496Y92974D02*
X3011496Y132974D01*
X3051496D01*
X3031496Y92974D01*
Y100974D02*
X3019496Y124974D01*
X3043496D01*
X3031496Y100974D01*
Y235905D02*
X3011496Y275906D01*
X3051496D01*
X3031496Y235905D01*
Y243905D02*
X3019496Y267906D01*
X3043496D01*
X3031496Y243905D01*
Y413071D02*
X3011496Y453071D01*
X3051496D01*
X3031496Y413071D01*
Y421071D02*
X3019496Y445071D01*
X3043496D01*
X3031496Y421071D01*
Y579153D02*
X3011496Y619153D01*
X3051496D01*
X3031496Y579153D01*
Y587153D02*
X3019496Y611153D01*
X3043496D01*
X3031496Y587153D01*
Y720068D02*
X3011496Y760068D01*
X3051496D01*
X3031496Y720068D01*
Y728068D02*
X3019496Y752068D01*
X3043496D01*
X3031496Y728068D01*
X702559Y2342205D02*
X682559Y2382205D01*
X722559D01*
X702559Y2342205D01*
Y2350205D02*
X690559Y2374205D01*
X714559D01*
X702559Y2350205D01*
X984252Y3212284D02*
X964252Y3252284D01*
X1004252D01*
X984252Y3212284D01*
Y3220284D02*
X972252Y3244284D01*
X996252D01*
X984252Y3220284D01*
X1659724Y430469D02*
X1639724Y470469D01*
X1679724D01*
X1659724Y430469D01*
Y438469D02*
X1647724Y462469D01*
X1671724D01*
X1659724Y438469D01*
X1812205Y430469D02*
X1792205Y470469D01*
X1832205D01*
X1812205Y430469D01*
Y438469D02*
X1800205Y462469D01*
X1824205D01*
X1812205Y438469D01*
X1379134Y696535D02*
X1359134Y736535D01*
X1399134D01*
X1379134Y696535D01*
Y704535D02*
X1367134Y728535D01*
X1391134D01*
X1379134Y704535D01*
X1511659Y696535D02*
X1491659Y736535D01*
X1531659D01*
X1511659Y696535D01*
Y704535D02*
X1499659Y728535D01*
X1523659D01*
X1511659Y704535D01*
X1379134Y341516D02*
X1359134Y381516D01*
X1399134D01*
X1379134Y341516D01*
Y349516D02*
X1367134Y373516D01*
X1391134D01*
X1379134Y349516D01*
X1511659Y341516D02*
X1491659Y381516D01*
X1531659D01*
X1511659Y341516D01*
Y349516D02*
X1499659Y373516D01*
X1523659D01*
X1511659Y349516D01*
X2066929Y59685D02*
X2046929Y99685D01*
X2086929D01*
X2066929Y59685D01*
Y67685D02*
X2054929Y91685D01*
X2078929D01*
X2066929Y67685D01*
X2214488Y59685D02*
X2194488Y99685D01*
X2234488D01*
X2214488Y59685D01*
Y67685D02*
X2202488Y91685D01*
X2226488D01*
X2214488Y67685D01*
X2066929Y246118D02*
X2046929Y286118D01*
X2086929D01*
X2066929Y246118D01*
Y254118D02*
X2054929Y278118D01*
X2078929D01*
X2066929Y254118D01*
X2214488Y246118D02*
X2194488Y286118D01*
X2234488D01*
X2214488Y246118D01*
Y254118D02*
X2202488Y278118D01*
X2226488D01*
X2214488Y254118D01*
X2066929Y432756D02*
X2046929Y472756D01*
X2086929D01*
X2066929Y432756D01*
Y440756D02*
X2054929Y464756D01*
X2078929D01*
X2066929Y440756D01*
X2214488Y432756D02*
X2194488Y472756D01*
X2234488D01*
X2214488Y432756D01*
Y440756D02*
X2202488Y464756D01*
X2226488D01*
X2214488Y440756D01*
X1958504Y512856D02*
X1938504Y552856D01*
X1978504D01*
X1958504Y512856D01*
Y520856D02*
X1946504Y544856D01*
X1970504D01*
X1958504Y520856D01*
X1959493Y430469D02*
X1939493Y470469D01*
X1979493D01*
X1959493Y430469D01*
Y438469D02*
X1947493Y462469D01*
X1971493D01*
X1959493Y438469D01*
X1811777Y341516D02*
X1791777Y381516D01*
X1831777D01*
X1811777Y341516D01*
Y349516D02*
X1799777Y373516D01*
X1823777D01*
X1811777Y349516D01*
X1959414Y341516D02*
X1939414Y381516D01*
X1979414D01*
X1959414Y341516D01*
Y349516D02*
X1947414Y373516D01*
X1971414D01*
X1959414Y349516D01*
X1659296Y341516D02*
X1639296Y381516D01*
X1679296D01*
X1659296Y341516D01*
Y349516D02*
X1647296Y373516D01*
X1671296D01*
X1659296Y349516D01*
X1659567Y157165D02*
X1639567Y197165D01*
X1679567D01*
X1659567Y157165D01*
Y165165D02*
X1647567Y189165D01*
X1671567D01*
X1659567Y165165D01*
X1959685Y157165D02*
X1939685Y197165D01*
X1979685D01*
X1959685Y157165D01*
Y165165D02*
X1947685Y189165D01*
X1971685D01*
X1959685Y165165D01*
X1812047Y157165D02*
X1792047Y197165D01*
X1832047D01*
X1812047Y157165D01*
Y165165D02*
X1800047Y189165D01*
X1824047D01*
X1812047Y165165D01*
Y59685D02*
X1792047Y99685D01*
X1832047D01*
X1812047Y59685D01*
Y67685D02*
X1800047Y91685D01*
X1824047D01*
X1812047Y67685D01*
X1959685Y59685D02*
X1939685Y99685D01*
X1979685D01*
X1959685Y59685D01*
Y67685D02*
X1947685Y91685D01*
X1971685D01*
X1959685Y67685D01*
X1659567Y59685D02*
X1639567Y99685D01*
X1679567D01*
X1659567Y59685D01*
Y67685D02*
X1647567Y91685D01*
X1671567D01*
X1659567Y67685D01*
X1511659Y246118D02*
X1491659Y286118D01*
X1531659D01*
X1511659Y246118D01*
Y254118D02*
X1499659Y278118D01*
X1523659D01*
X1511659Y254118D01*
X1659296Y246118D02*
X1639296Y286118D01*
X1679296D01*
X1659296Y246118D01*
Y254118D02*
X1647296Y278118D01*
X1671296D01*
X1659296Y254118D01*
X1379134Y246118D02*
X1359134Y286118D01*
X1399134D01*
X1379134Y246118D01*
Y254118D02*
X1367134Y278118D01*
X1391134D01*
X1379134Y254118D01*
X1812205Y246118D02*
X1792205Y286118D01*
X1832205D01*
X1812205Y246118D01*
Y254118D02*
X1800205Y278118D01*
X1824205D01*
X1812205Y254118D01*
X1959764Y246118D02*
X1939764Y286118D01*
X1979764D01*
X1959764Y246118D01*
Y254118D02*
X1947764Y278118D01*
X1971764D01*
X1959764Y254118D01*
X1379055Y59685D02*
X1359055Y99685D01*
X1399055D01*
X1379055Y59685D01*
Y67685D02*
X1367055Y91685D01*
X1391055D01*
X1379055Y67685D01*
X1511580Y59685D02*
X1491580Y99685D01*
X1531580D01*
X1511580Y59685D01*
Y67685D02*
X1499580Y91685D01*
X1523580D01*
X1511580Y67685D01*
Y157165D02*
X1491580Y197165D01*
X1531580D01*
X1511580Y157165D01*
Y165165D02*
X1499580Y189165D01*
X1523580D01*
X1511580Y165165D01*
X1379055Y157165D02*
X1359055Y197165D01*
X1399055D01*
X1379055Y157165D01*
Y165165D02*
X1367055Y189165D01*
X1391055D01*
X1379055Y165165D01*
X1606299Y2932756D02*
X1586299Y2972756D01*
X1626299D01*
X1606299Y2932756D01*
Y2940756D02*
X1594299Y2964756D01*
X1618299D01*
X1606299Y2940756D01*
X2690256Y2598110D02*
X2670256Y2638110D01*
X2710256D01*
X2690256Y2598110D01*
Y2606110D02*
X2678256Y2630110D01*
X2702256D01*
X2690256Y2606110D01*
X2047244Y2598110D02*
X2027244Y2638110D01*
X2067244D01*
X2047244Y2598110D01*
Y2606110D02*
X2035244Y2630110D01*
X2059244D01*
X2047244Y2606110D01*
X1606299Y3168976D02*
X1586299Y3208976D01*
X1626299D01*
X1606299Y3168976D01*
Y3176976D02*
X1594299Y3200976D01*
X1618299D01*
X1606299Y3176976D01*
X2047244Y3739843D02*
X2027244Y3779843D01*
X2067244D01*
X2047244Y3739843D01*
Y3747843D02*
X2035244Y3771843D01*
X2059244D01*
X2047244Y3747843D01*
X1606299Y3739843D02*
X1586299Y3779843D01*
X1626299D01*
X1606299Y3739843D01*
Y3747843D02*
X1594299Y3771843D01*
X1618299D01*
X1606299Y3747843D01*
X2047244Y3168976D02*
X2027244Y3208976D01*
X2067244D01*
X2047244Y3168976D01*
Y3176976D02*
X2035244Y3200976D01*
X2059244D01*
X2047244Y3176976D01*
X1299213Y1192598D02*
X1279213Y1232598D01*
X1319213D01*
X1299213Y1192598D01*
Y1200598D02*
X1287213Y1224598D01*
X1311213D01*
X1299213Y1200598D01*
X1068116Y3396093D02*
X1048116Y3436093D01*
X1088116D01*
X1068116Y3396093D01*
Y3404093D02*
X1056116Y3428093D01*
X1080116D01*
X1068116Y3404093D01*
X1317638Y3188661D02*
X1297638Y3228661D01*
X1337638D01*
X1317638Y3188661D01*
Y3196661D02*
X1305638Y3220661D01*
X1329638D01*
X1317638Y3196661D01*
X1866007Y2358780D02*
X1846007Y2398780D01*
X1886007D01*
X1866007Y2358780D01*
Y2366780D02*
X1854007Y2390780D01*
X1878007D01*
X1866007Y2366780D01*
X2559055Y1619764D02*
X2539055Y1659764D01*
X2579055D01*
X2559055Y1619764D01*
Y1627764D02*
X2547055Y1651764D01*
X2571055D01*
X2559055Y1627764D01*
X1850394Y1968189D02*
X1830394Y2008189D01*
X1870394D01*
X1850394Y1968189D01*
Y1976189D02*
X1838394Y2000189D01*
X1862394D01*
X1850394Y1976189D01*
X570866Y2046928D02*
X550866Y2086928D01*
X590866D01*
X570866Y2046928D01*
Y2054928D02*
X558866Y2078928D01*
X582866D01*
X570866Y2054928D01*
X2789370Y3443779D02*
X2769370Y3483779D01*
X2809370D01*
X2789370Y3443779D01*
Y3451779D02*
X2777370Y3475779D01*
X2801370D01*
X2789370Y3451779D01*
Y3247716D02*
X2769370Y3287716D01*
X2809370D01*
X2789370Y3247716D01*
Y3255716D02*
X2777370Y3279716D01*
X2801370D01*
X2789370Y3255716D01*
X1319134Y3542756D02*
X1299134Y3582756D01*
X1339134D01*
X1319134Y3542756D01*
Y3550756D02*
X1307134Y3574756D01*
X1331134D01*
X1319134Y3550756D01*
Y3324646D02*
X1299134Y3364646D01*
X1339134D01*
X1319134Y3324646D01*
Y3332646D02*
X1307134Y3356646D01*
X1331134D01*
X1319134Y3332646D01*
X452677Y157165D02*
X432677Y197165D01*
X472677D01*
X452677Y157165D01*
Y165165D02*
X440677Y189165D01*
X464677D01*
X452677Y165165D01*
X585202Y157165D02*
X565202Y197165D01*
X605202D01*
X585202Y157165D01*
Y165165D02*
X573202Y189165D01*
X597202D01*
X585202Y165165D01*
Y59685D02*
X565202Y99685D01*
X605202D01*
X585202Y59685D01*
Y67685D02*
X573202Y91685D01*
X597202D01*
X585202Y67685D01*
X452677Y59685D02*
X432677Y99685D01*
X472677D01*
X452677Y59685D01*
Y67685D02*
X440677Y91685D01*
X464677D01*
X452677Y67685D01*
X585281Y354016D02*
X565281Y394016D01*
X605281D01*
X585281Y354016D01*
Y362016D02*
X573281Y386016D01*
X597281D01*
X585281Y362016D01*
X732918Y354016D02*
X712918Y394016D01*
X752918D01*
X732918Y354016D01*
Y362016D02*
X720918Y386016D01*
X744918D01*
X732918Y362016D01*
X885827Y354016D02*
X865827Y394016D01*
X905827D01*
X885827Y354016D01*
Y362016D02*
X873827Y386016D01*
X897827D01*
X885827Y362016D01*
X905512Y699617D02*
X885512Y739617D01*
X925512D01*
X905512Y699617D01*
Y707617D02*
X893512Y731617D01*
X917512D01*
X905512Y707617D01*
X1033386Y354016D02*
X1013386Y394016D01*
X1053386D01*
X1033386Y354016D01*
Y362016D02*
X1021386Y386016D01*
X1045386D01*
X1033386Y362016D01*
Y246118D02*
X1013386Y286118D01*
X1053386D01*
X1033386Y246118D01*
Y254118D02*
X1021386Y278118D01*
X1045386D01*
X1033386Y254118D01*
X885827Y246118D02*
X865827Y286118D01*
X905827D01*
X885827Y246118D01*
Y254118D02*
X873827Y278118D01*
X897827D01*
X885827Y254118D01*
X452756Y246118D02*
X432756Y286118D01*
X472756D01*
X452756Y246118D01*
Y254118D02*
X440756Y278118D01*
X464756D01*
X452756Y254118D01*
X732918Y246118D02*
X712918Y286118D01*
X752918D01*
X732918Y246118D01*
Y254118D02*
X720918Y278118D01*
X744918D01*
X732918Y254118D01*
X585281Y246118D02*
X565281Y286118D01*
X605281D01*
X585281Y246118D01*
Y254118D02*
X573281Y278118D01*
X597281D01*
X585281Y254118D01*
X733189Y59685D02*
X713189Y99685D01*
X753189D01*
X733189Y59685D01*
Y67685D02*
X721189Y91685D01*
X745189D01*
X733189Y67685D01*
X1033307Y59685D02*
X1013307Y99685D01*
X1053307D01*
X1033307Y59685D01*
Y67685D02*
X1021307Y91685D01*
X1045307D01*
X1033307Y67685D01*
X885669Y59685D02*
X865669Y99685D01*
X905669D01*
X885669Y59685D01*
Y67685D02*
X873669Y91685D01*
X897669D01*
X885669Y67685D01*
Y157165D02*
X865669Y197165D01*
X905669D01*
X885669Y157165D01*
Y165165D02*
X873669Y189165D01*
X897669D01*
X885669Y165165D01*
X1033307Y157165D02*
X1013307Y197165D01*
X1053307D01*
X1033307Y157165D01*
Y165165D02*
X1021307Y189165D01*
X1045307D01*
X1033307Y165165D01*
X733189Y157165D02*
X713189Y197165D01*
X753189D01*
X733189Y157165D01*
Y165165D02*
X721189Y189165D01*
X745189D01*
X733189Y165165D01*
X452756Y354016D02*
X432756Y394016D01*
X472756D01*
X452756Y354016D01*
Y362016D02*
X440756Y386016D01*
X464756D01*
X452756Y362016D01*
X1031496Y697920D02*
X1011496Y737920D01*
X1051496D01*
X1031496Y697920D01*
Y705920D02*
X1019496Y729920D01*
X1043496D01*
X1031496Y705920D01*
X2690256Y2932756D02*
X2670256Y2972756D01*
X2710256D01*
X2690256Y2932756D01*
Y2940756D02*
X2678256Y2964756D01*
X2702256D01*
X2690256Y2940756D01*
X1296193Y2351002D02*
X1276193Y2391002D01*
X1316193D01*
X1296193Y2351002D01*
Y2359002D02*
X1284193Y2383002D01*
X1308193D01*
X1296193Y2359002D01*
X1296965Y2598110D02*
X1276965Y2638110D01*
X1316965D01*
X1296965Y2598110D01*
Y2606110D02*
X1284965Y2630110D01*
X1308965D01*
X1296965Y2606110D01*
X2047244Y2086299D02*
X2027244Y2126299D01*
X2067244D01*
X2047244Y2086299D01*
Y2094299D02*
X2035244Y2118299D01*
X2059244D01*
X2047244Y2094299D01*
Y2932756D02*
X2027244Y2972756D01*
X2067244D01*
X2047244Y2932756D01*
Y2940756D02*
X2035244Y2964756D01*
X2059244D01*
X2047244Y2940756D01*
X2690256Y3168976D02*
X2670256Y3208976D01*
X2710256D01*
X2690256Y3168976D01*
Y3176976D02*
X2678256Y3200976D01*
X2702256D01*
X2690256Y3176976D01*
X1294147Y1060709D02*
X1274147Y1100709D01*
X1314147D01*
X1294147Y1060709D01*
Y1068709D02*
X1282147Y1092709D01*
X1306147D01*
X1294147Y1068709D01*
X2342520Y1082362D02*
X2322520Y1122362D01*
X2362520D01*
X2342520Y1082362D01*
Y1090362D02*
X2330520Y1114362D01*
X2354520D01*
X2342520Y1090362D01*
X1122239Y1060709D02*
X1102239Y1100709D01*
X1142239D01*
X1122239Y1060709D01*
Y1068709D02*
X1110239Y1092709D01*
X1134239D01*
X1122239Y1068709D01*
X2690186Y1483937D02*
X2670186Y1523937D01*
X2710186D01*
X2690186Y1483937D01*
Y1491937D02*
X2678186Y1515937D01*
X2702186D01*
X2690186Y1491937D01*
X2690256Y2086299D02*
X2670256Y2126299D01*
X2710256D01*
X2690256Y2086299D01*
Y2094299D02*
X2678256Y2118299D01*
X2702256D01*
X2690256Y2094299D01*
X2695805Y1869764D02*
X2675805Y1909764D01*
X2715805D01*
X2695805Y1869764D01*
Y1877764D02*
X2683805Y1901764D01*
X2707805D01*
X2695805Y1877764D01*
X1555118Y1674882D02*
X1535118Y1714882D01*
X1575118D01*
X1555118Y1674882D01*
Y1682882D02*
X1543118Y1706882D01*
X1567118D01*
X1555118Y1682882D01*
X1801024Y1494921D02*
X1781024Y1534921D01*
X1821024D01*
X1801024Y1494921D01*
Y1502921D02*
X1789024Y1526921D01*
X1813024D01*
X1801024Y1502921D01*
X2755905Y720068D02*
X2735905Y760068D01*
X2775905D01*
X2755905Y720068D01*
Y728068D02*
X2743905Y752068D01*
X2767905D01*
X2755905Y728068D01*
Y579153D02*
X2735905Y619153D01*
X2775905D01*
X2755905Y579153D01*
Y587153D02*
X2743905Y611153D01*
X2767905D01*
X2755905Y587153D01*
Y413071D02*
X2735905Y453071D01*
X2775905D01*
X2755905Y413071D01*
Y421071D02*
X2743905Y445071D01*
X2767905D01*
X2755905Y421071D01*
Y235905D02*
X2735905Y275906D01*
X2775905D01*
X2755905Y235905D01*
Y243905D02*
X2743905Y267906D01*
X2767905D01*
X2755905Y243905D01*
Y92974D02*
X2735905Y132974D01*
X2775905D01*
X2755905Y92974D01*
Y100974D02*
X2743905Y124974D01*
X2767905D01*
X2755905Y100974D01*
X2651575Y47277D02*
X2631575Y87277D01*
X2671575D01*
X2651575Y47277D01*
Y55277D02*
X2639575Y79277D01*
X2663575D01*
X2651575Y55277D01*
X2657480Y177223D02*
X2637480Y217223D01*
X2677480D01*
X2657480Y177223D01*
Y185223D02*
X2645480Y209223D01*
X2669480D01*
X2657480Y185223D01*
Y334331D02*
X2637480Y374331D01*
X2677480D01*
X2657480Y334331D01*
Y342331D02*
X2645480Y366331D01*
X2669480D01*
X2657480Y342331D01*
Y511496D02*
X2637480Y551496D01*
X2677480D01*
X2657480Y511496D01*
Y519496D02*
X2645480Y543496D01*
X2669480D01*
X2657480Y519496D01*
Y655591D02*
X2637480Y695591D01*
X2677480D01*
X2657480Y655591D01*
Y663591D02*
X2645480Y687591D01*
X2669480D01*
X2657480Y663591D01*
Y795688D02*
X2637480Y835688D01*
X2677480D01*
X2657480Y795688D01*
Y803688D02*
X2645480Y827688D01*
X2669480D01*
X2657480Y803688D01*
X984252Y2342205D02*
X964252Y2382205D01*
X1004252D01*
X984252Y2342205D01*
Y2350205D02*
X972252Y2374205D01*
X996252D01*
X984252Y2350205D01*
D111*
X787716Y1047244D02*
G03*
X787716Y1047244I-20000J0D01*
G01*
Y881890D02*
G03*
X787716Y881890I-20000J0D01*
G01*
Y716535D02*
G03*
X787716Y716535I-20000J0D01*
G01*
Y551181D02*
G03*
X787716Y551181I-20000J0D01*
G01*
Y1212598D02*
G03*
X787716Y1212598I-20000J0D01*
G01*
X571181D02*
G03*
X571181Y1212598I-20000J0D01*
G01*
Y1047244D02*
G03*
X571181Y1047244I-20000J0D01*
G01*
Y881890D02*
G03*
X571181Y881890I-20000J0D01*
G01*
Y716535D02*
G03*
X571181Y716535I-20000J0D01*
G01*
Y551181D02*
G03*
X571181Y551181I-20000J0D01*
G01*
Y1377953D02*
G03*
X571181Y1377953I-20000J0D01*
G01*
X787716D02*
G03*
X787716Y1377953I-20000J0D01*
G01*
X3799528Y3169291D02*
G03*
X3799528Y3169291I-20000J0D01*
G01*
X4193228D02*
G03*
X4193228Y3169291I-20000J0D01*
G01*
X3917638Y2380394D02*
G03*
X3917638Y2380394I-20000J0D01*
G01*
Y2280394D02*
G03*
X3917638Y2280394I-20000J0D01*
G01*
Y2180394D02*
G03*
X3917638Y2180394I-20000J0D01*
G01*
X4134173Y3541732D02*
G03*
X4134173Y3541732I-20000J0D01*
G01*
Y3641732D02*
G03*
X4134173Y3641732I-20000J0D01*
G01*
Y3741732D02*
G03*
X4134173Y3741732I-20000J0D01*
G01*
X1840709Y1062992D02*
G03*
X1840709Y1062992I-20000J0D01*
G01*
Y767716D02*
G03*
X1840709Y767716I-20000J0D01*
G01*
D112*
X3909638Y2380394D02*
G03*
X3909638Y2380394I-12000J0D01*
G01*
Y2280394D02*
G03*
X3909638Y2280394I-12000J0D01*
G01*
Y2180394D02*
G03*
X3909638Y2180394I-12000J0D01*
G01*
X4126173Y3541732D02*
G03*
X4126173Y3541732I-12000J0D01*
G01*
Y3641732D02*
G03*
X4126173Y3641732I-12000J0D01*
G01*
Y3741732D02*
G03*
X4126173Y3741732I-12000J0D01*
G01*
X1832709Y1062992D02*
G03*
X1832709Y1062992I-12000J0D01*
G01*
Y767716D02*
G03*
X1832709Y767716I-12000J0D01*
G01*
%TF.MD5,8d8a33e11fda2ddfb8c4cbbce91b24f7*%
M02*
