%TF.GenerationSoftware,Altium Limited,Altium Designer,18.1.9 (240)*%
G04 Layer_Color=128*
%FSLAX26Y26*%
%MOIN*%
%TF.FileFunction,Drillmap*%
%TF.Part,Single*%
G01*
G75*
%TA.AperFunction,NonConductor*%
%ADD110C,0.005000*%
D110*
X204724Y551181D02*
X322835D01*
X263779Y492126D02*
Y610236D01*
X204724Y1377953D02*
X322835D01*
X263779Y1318898D02*
Y1437008D01*
X732284Y1047244D02*
X803149D01*
X767716Y1011811D02*
Y1082677D01*
X732284Y881890D02*
X803149D01*
X767716Y846457D02*
Y917323D01*
X732284Y716535D02*
X803149D01*
X767716Y681102D02*
Y751968D01*
X732284Y551181D02*
X803149D01*
X767716Y515748D02*
Y586614D01*
X732284Y1212598D02*
X803149D01*
X767716Y1177165D02*
Y1248031D01*
X515748Y1212598D02*
X586614D01*
X551181Y1177165D02*
Y1248031D01*
X515748Y1047244D02*
X586614D01*
X551181Y1011811D02*
Y1082677D01*
X515748Y881890D02*
X586614D01*
X551181Y846457D02*
Y917323D01*
X515748Y716535D02*
X586614D01*
X551181Y681102D02*
Y751968D01*
X515748Y551181D02*
X586614D01*
X551181Y515748D02*
Y586614D01*
X515748Y1377953D02*
X586614D01*
X551181Y1342520D02*
Y1413386D01*
X732284Y1377953D02*
X803149D01*
X767716Y1342520D02*
Y1413386D01*
X95965Y3759843D02*
X292815D01*
X194390Y3661417D02*
Y3858268D01*
X95965Y196850D02*
X292815D01*
X194390Y98425D02*
Y295276D01*
X6614173Y3759843D02*
X6811024D01*
X6712598Y3661417D02*
Y3858268D01*
X6614173Y196850D02*
X6811024D01*
X6712598Y98425D02*
Y295276D01*
X393307Y1850394D02*
X433464D01*
X413386Y1830315D02*
Y1870472D01*
X393307Y1968504D02*
X433464D01*
X413386Y1948425D02*
Y1988583D01*
X393307Y2086614D02*
X433464D01*
X413386Y2066535D02*
Y2106693D01*
X393307Y2204724D02*
X433464D01*
X413386Y2184646D02*
Y2224803D01*
X393307Y2322835D02*
X433464D01*
X413386Y2302756D02*
Y2342913D01*
X393307Y2440945D02*
X433464D01*
X413386Y2420866D02*
Y2461024D01*
X393307Y2559055D02*
X433464D01*
X413386Y2538976D02*
Y2579134D01*
X393307Y2677165D02*
X433464D01*
X413386Y2657087D02*
Y2697244D01*
X195866Y2761811D02*
X290748D01*
X243307Y2714370D02*
Y2809252D01*
X195866Y1765748D02*
X290748D01*
X243307Y1718307D02*
Y1813189D01*
X5251969Y944882D02*
X5299213D01*
X5275591Y921260D02*
Y968504D01*
X5251969Y1944882D02*
X5299213D01*
X5275591Y1921260D02*
Y1968504D01*
X4051181Y1338583D02*
X4098425D01*
X4074803Y1314961D02*
Y1362205D01*
X5051181Y1338583D02*
X5098425D01*
X5074803Y1314961D02*
Y1362205D01*
X5624016Y419291D02*
X5675197D01*
X5649606Y393701D02*
Y444882D01*
X6214567Y419291D02*
X6265748D01*
X6240158Y393701D02*
Y444882D01*
X393307Y3169291D02*
X433464D01*
X413386Y3149213D02*
Y3189370D01*
X393307Y3287402D02*
X433464D01*
X413386Y3267323D02*
Y3307480D01*
X195866Y3372047D02*
X290748D01*
X243307Y3324606D02*
Y3419488D01*
X195866Y3084646D02*
X290748D01*
X243307Y3037205D02*
Y3132087D01*
X4444882Y3543307D02*
X4492126D01*
X4468504Y3519685D02*
Y3566929D01*
X6492126Y3543307D02*
X6539370D01*
X6515748Y3519685D02*
Y3566929D01*
X6492126Y3070866D02*
X6539370D01*
X6515748Y3047244D02*
Y3094488D01*
X4444882Y3070866D02*
X4492126D01*
X4468504Y3047244D02*
Y3094488D01*
X4444882Y2598425D02*
X4492126D01*
X4468504Y2574803D02*
Y2622047D01*
X6492126Y2598425D02*
X6539370D01*
X6515748Y2574803D02*
Y2622047D01*
X2292717Y807087D02*
X2372638D01*
X2332677Y767126D02*
Y847047D01*
X2292717Y590551D02*
X2372638D01*
X2332677Y550591D02*
Y630512D01*
X2292717Y374016D02*
X2372638D01*
X2332677Y334055D02*
Y413976D01*
X2292717Y157480D02*
X2372638D01*
X2332677Y117520D02*
Y197441D01*
X4118701Y797244D02*
X4198622D01*
X4158661Y757283D02*
Y837205D01*
X4128740Y644882D02*
X4188583D01*
X4158661Y614961D02*
Y674803D01*
X4128740Y536614D02*
X4188583D01*
X4158661Y506693D02*
Y566535D01*
X4128740Y427953D02*
X4188583D01*
X4158661Y398031D02*
Y457874D01*
X4118701Y167323D02*
X4198622D01*
X4158661Y127362D02*
Y207283D01*
X3744095Y3169291D02*
X3814961D01*
X3779528Y3133858D02*
Y3204724D01*
X4137795Y3169291D02*
X4208661D01*
X4173228Y3133858D02*
Y3204724D01*
X6463386Y2114768D02*
X6503543D01*
X6483465Y2094689D02*
Y2134846D01*
X6463386Y1996658D02*
X6503543D01*
X6483465Y1976579D02*
Y2016736D01*
X6606102Y1912012D02*
X6700984D01*
X6653543Y1864571D02*
Y1959453D01*
X6606102Y2199413D02*
X6700984D01*
X6653543Y2151972D02*
Y2246854D01*
X3877953Y2380394D02*
X3917323D01*
X3897638Y2360709D02*
Y2400079D01*
X3877953Y2280394D02*
X3917323D01*
X3897638Y2260709D02*
Y2300079D01*
X3877953Y2180394D02*
X3917323D01*
X3897638Y2160709D02*
Y2200079D01*
X4094488Y3541732D02*
X4133858D01*
X4114173Y3522047D02*
Y3561417D01*
X4094488Y3641732D02*
X4133858D01*
X4114173Y3622047D02*
Y3661417D01*
X4094488Y3741732D02*
X4133858D01*
X4114173Y3722047D02*
Y3761417D01*
X6463386Y1442913D02*
X6503543D01*
X6483465Y1422835D02*
Y1462992D01*
X6463386Y1324803D02*
X6503543D01*
X6483465Y1304725D02*
Y1344882D01*
X6606102Y1240158D02*
X6700984D01*
X6653543Y1192717D02*
Y1287598D01*
X6606102Y1527559D02*
X6700984D01*
X6653543Y1480118D02*
Y1575000D01*
X6463386Y773622D02*
X6503543D01*
X6483465Y753543D02*
Y793701D01*
X6463386Y655512D02*
X6503543D01*
X6483465Y635433D02*
Y675591D01*
X6606102Y570866D02*
X6700984D01*
X6653543Y523425D02*
Y618307D01*
X6606102Y858268D02*
X6700984D01*
X6653543Y810827D02*
Y905709D01*
X1801024Y1062992D02*
X1840394D01*
X1820709Y1043307D02*
Y1082677D01*
X1801024Y767716D02*
X1840394D01*
X1820709Y748032D02*
Y787402D01*
X3489937Y3386220D02*
X3517937D01*
X3503937Y3372220D02*
Y3400220D01*
X5417102Y536614D02*
X5445102D01*
X5431102Y522614D02*
Y550614D01*
X5615921Y1181102D02*
X5643921D01*
X5629921Y1167102D02*
Y1195102D01*
X3986391Y2595925D02*
X4014391D01*
X4000391Y2581925D02*
Y2609925D01*
X4316709Y2334291D02*
X4344709D01*
X4330709Y2320291D02*
Y2348291D01*
X1229701Y1796575D02*
X1257701D01*
X1243701Y1782575D02*
Y1810575D01*
X1541118Y2527303D02*
X1569118D01*
X1555118Y2513303D02*
Y2541303D01*
X1541118Y2270315D02*
X1569118D01*
X1555118Y2256315D02*
Y2284315D01*
X1631669Y2169291D02*
X1659669D01*
X1645669Y2155291D02*
Y2183291D01*
X1631669Y2527303D02*
X1659669D01*
X1645669Y2513303D02*
Y2541303D01*
X1260331Y3757874D02*
X1288331D01*
X1274331Y3743874D02*
Y3771874D01*
X1167102Y3515256D02*
X1195102D01*
X1181102Y3501256D02*
Y3529256D01*
X3688364Y1742894D02*
X3716364D01*
X3702364Y1728894D02*
Y1756894D01*
X714346Y1712598D02*
X742346D01*
X728346Y1698598D02*
Y1726598D01*
X1225173Y1994862D02*
X1253173D01*
X1239173Y1980862D02*
Y2008862D01*
X1236118Y1467165D02*
X1264118D01*
X1250118Y1453165D02*
Y1481165D01*
X773400Y2460625D02*
X801400D01*
X787400Y2446625D02*
Y2474625D01*
X3627732Y112391D02*
X3655732D01*
X3641732Y98391D02*
Y126391D01*
X3627732Y255323D02*
X3655732D01*
X3641732Y241323D02*
Y269323D01*
X3627732Y432488D02*
X3655732D01*
X3641732Y418488D02*
Y446488D01*
X3627732Y598570D02*
X3655732D01*
X3641732Y584570D02*
Y612570D01*
X3627732Y739485D02*
X3655732D01*
X3641732Y725485D02*
Y753485D01*
X3509622Y740068D02*
X3537622D01*
X3523622Y726068D02*
Y754068D01*
X3509622Y599153D02*
X3537622D01*
X3523622Y585153D02*
Y613153D01*
X3509622Y433071D02*
X3537622D01*
X3523622Y419071D02*
Y447071D01*
X3509622Y255905D02*
X3537622D01*
X3523622Y241905D02*
Y269906D01*
X3509622Y112974D02*
X3537622D01*
X3523622Y98974D02*
Y126974D01*
X3391512Y739485D02*
X3419512D01*
X3405512Y725485D02*
Y753485D01*
X3391512Y598570D02*
X3419512D01*
X3405512Y584570D02*
Y612570D01*
X3391512Y432488D02*
X3419512D01*
X3405512Y418488D02*
Y446488D01*
X3391512Y255323D02*
X3419512D01*
X3405512Y241323D02*
Y269323D01*
X3391512Y112391D02*
X3419512D01*
X3405512Y98391D02*
Y126391D01*
X3273402Y740068D02*
X3301402D01*
X3287402Y726068D02*
Y754068D01*
X3273402Y599153D02*
X3301402D01*
X3287402Y585153D02*
Y613153D01*
X3273402Y433071D02*
X3301402D01*
X3287402Y419071D02*
Y447071D01*
X3273402Y255905D02*
X3301402D01*
X3287402Y241905D02*
Y269906D01*
X3273402Y112974D02*
X3301402D01*
X3287402Y98974D02*
Y126974D01*
X3125764Y112391D02*
X3153764D01*
X3139764Y98391D02*
Y126391D01*
X3125764Y255323D02*
X3153764D01*
X3139764Y241323D02*
Y269323D01*
X3125764Y432488D02*
X3153764D01*
X3139764Y418488D02*
Y446488D01*
X3125764Y598570D02*
X3153764D01*
X3139764Y584570D02*
Y612570D01*
X3125764Y739485D02*
X3153764D01*
X3139764Y725485D02*
Y753485D01*
X3017496Y112974D02*
X3045496D01*
X3031496Y98974D02*
Y126974D01*
X3017496Y255905D02*
X3045496D01*
X3031496Y241905D02*
Y269906D01*
X3017496Y433071D02*
X3045496D01*
X3031496Y419071D02*
Y447071D01*
X3017496Y599153D02*
X3045496D01*
X3031496Y585153D02*
Y613153D01*
X3017496Y740068D02*
X3045496D01*
X3031496Y726068D02*
Y754068D01*
X688559Y2362205D02*
X716559D01*
X702559Y2348205D02*
Y2376205D01*
X970252Y3232284D02*
X998252D01*
X984252Y3218284D02*
Y3246284D01*
X1645724Y450469D02*
X1673724D01*
X1659724Y436469D02*
Y464469D01*
X1798205Y450469D02*
X1826205D01*
X1812205Y436469D02*
Y464469D01*
X1365134Y716535D02*
X1393134D01*
X1379134Y702535D02*
Y730535D01*
X1497659Y716535D02*
X1525659D01*
X1511659Y702535D02*
Y730535D01*
X1365134Y361516D02*
X1393134D01*
X1379134Y347516D02*
Y375516D01*
X1497659Y361516D02*
X1525659D01*
X1511659Y347516D02*
Y375516D01*
X2052929Y79685D02*
X2080929D01*
X2066929Y65685D02*
Y93685D01*
X2200488Y79685D02*
X2228488D01*
X2214488Y65685D02*
Y93685D01*
X2052929Y266118D02*
X2080929D01*
X2066929Y252118D02*
Y280118D01*
X2200488Y266118D02*
X2228488D01*
X2214488Y252118D02*
Y280118D01*
X2052929Y452756D02*
X2080929D01*
X2066929Y438756D02*
Y466756D01*
X2200488Y452756D02*
X2228488D01*
X2214488Y438756D02*
Y466756D01*
X1944504Y532856D02*
X1972504D01*
X1958504Y518856D02*
Y546856D01*
X1945493Y450469D02*
X1973493D01*
X1959493Y436469D02*
Y464469D01*
X1797777Y361516D02*
X1825777D01*
X1811777Y347516D02*
Y375516D01*
X1945414Y361516D02*
X1973414D01*
X1959414Y347516D02*
Y375516D01*
X1645296Y361516D02*
X1673296D01*
X1659296Y347516D02*
Y375516D01*
X1645567Y177165D02*
X1673567D01*
X1659567Y163165D02*
Y191165D01*
X1945685Y177165D02*
X1973685D01*
X1959685Y163165D02*
Y191165D01*
X1798047Y177165D02*
X1826047D01*
X1812047Y163165D02*
Y191165D01*
X1798047Y79685D02*
X1826047D01*
X1812047Y65685D02*
Y93685D01*
X1945685Y79685D02*
X1973685D01*
X1959685Y65685D02*
Y93685D01*
X1645567Y79685D02*
X1673567D01*
X1659567Y65685D02*
Y93685D01*
X1497659Y266118D02*
X1525659D01*
X1511659Y252118D02*
Y280118D01*
X1645296Y266118D02*
X1673296D01*
X1659296Y252118D02*
Y280118D01*
X1365134Y266118D02*
X1393134D01*
X1379134Y252118D02*
Y280118D01*
X1798205Y266118D02*
X1826205D01*
X1812205Y252118D02*
Y280118D01*
X1945764Y266118D02*
X1973764D01*
X1959764Y252118D02*
Y280118D01*
X1365055Y79685D02*
X1393055D01*
X1379055Y65685D02*
Y93685D01*
X1497580Y79685D02*
X1525580D01*
X1511580Y65685D02*
Y93685D01*
X1497580Y177165D02*
X1525580D01*
X1511580Y163165D02*
Y191165D01*
X1365055Y177165D02*
X1393055D01*
X1379055Y163165D02*
Y191165D01*
X1592299Y2952756D02*
X1620299D01*
X1606299Y2938756D02*
Y2966756D01*
X2676256Y2618110D02*
X2704256D01*
X2690256Y2604110D02*
Y2632110D01*
X2033244Y2618110D02*
X2061244D01*
X2047244Y2604110D02*
Y2632110D01*
X1592299Y3188976D02*
X1620299D01*
X1606299Y3174976D02*
Y3202976D01*
X2033244Y3759843D02*
X2061244D01*
X2047244Y3745843D02*
Y3773843D01*
X1592299Y3759843D02*
X1620299D01*
X1606299Y3745843D02*
Y3773843D01*
X2033244Y3188976D02*
X2061244D01*
X2047244Y3174976D02*
Y3202976D01*
X1285213Y1212598D02*
X1313213D01*
X1299213Y1198598D02*
Y1226598D01*
X1054116Y3416093D02*
X1082116D01*
X1068116Y3402093D02*
Y3430093D01*
X1303638Y3208661D02*
X1331638D01*
X1317638Y3194661D02*
Y3222661D01*
X1852007Y2378780D02*
X1880007D01*
X1866007Y2364780D02*
Y2392780D01*
X2545055Y1639764D02*
X2573055D01*
X2559055Y1625764D02*
Y1653764D01*
X1836394Y1988189D02*
X1864394D01*
X1850394Y1974189D02*
Y2002189D01*
X556866Y2066928D02*
X584866D01*
X570866Y2052928D02*
Y2080928D01*
X2775370Y3463779D02*
X2803370D01*
X2789370Y3449779D02*
Y3477779D01*
X2775370Y3267716D02*
X2803370D01*
X2789370Y3253716D02*
Y3281716D01*
X1305134Y3562756D02*
X1333134D01*
X1319134Y3548756D02*
Y3576756D01*
X1305134Y3344646D02*
X1333134D01*
X1319134Y3330646D02*
Y3358646D01*
X438677Y177165D02*
X466677D01*
X452677Y163165D02*
Y191165D01*
X571202Y177165D02*
X599202D01*
X585202Y163165D02*
Y191165D01*
X571202Y79685D02*
X599202D01*
X585202Y65685D02*
Y93685D01*
X438677Y79685D02*
X466677D01*
X452677Y65685D02*
Y93685D01*
X571281Y374016D02*
X599281D01*
X585281Y360016D02*
Y388016D01*
X718918Y374016D02*
X746918D01*
X732918Y360016D02*
Y388016D01*
X871827Y374016D02*
X899827D01*
X885827Y360016D02*
Y388016D01*
X891512Y719617D02*
X919512D01*
X905512Y705617D02*
Y733617D01*
X1019386Y374016D02*
X1047386D01*
X1033386Y360016D02*
Y388016D01*
X1019386Y266118D02*
X1047386D01*
X1033386Y252118D02*
Y280118D01*
X871827Y266118D02*
X899827D01*
X885827Y252118D02*
Y280118D01*
X438756Y266118D02*
X466756D01*
X452756Y252118D02*
Y280118D01*
X718918Y266118D02*
X746918D01*
X732918Y252118D02*
Y280118D01*
X571281Y266118D02*
X599281D01*
X585281Y252118D02*
Y280118D01*
X719189Y79685D02*
X747189D01*
X733189Y65685D02*
Y93685D01*
X1019307Y79685D02*
X1047307D01*
X1033307Y65685D02*
Y93685D01*
X871669Y79685D02*
X899669D01*
X885669Y65685D02*
Y93685D01*
X871669Y177165D02*
X899669D01*
X885669Y163165D02*
Y191165D01*
X1019307Y177165D02*
X1047307D01*
X1033307Y163165D02*
Y191165D01*
X719189Y177165D02*
X747189D01*
X733189Y163165D02*
Y191165D01*
X438756Y374016D02*
X466756D01*
X452756Y360016D02*
Y388016D01*
X1017496Y717920D02*
X1045496D01*
X1031496Y703920D02*
Y731920D01*
X2676256Y2952756D02*
X2704256D01*
X2690256Y2938756D02*
Y2966756D01*
X1282193Y2371002D02*
X1310193D01*
X1296193Y2357002D02*
Y2385002D01*
X1282965Y2618110D02*
X1310965D01*
X1296965Y2604110D02*
Y2632110D01*
X2033244Y2106299D02*
X2061244D01*
X2047244Y2092299D02*
Y2120299D01*
X2033244Y2952756D02*
X2061244D01*
X2047244Y2938756D02*
Y2966756D01*
X2676256Y3188976D02*
X2704256D01*
X2690256Y3174976D02*
Y3202976D01*
X1280147Y1080709D02*
X1308147D01*
X1294147Y1066709D02*
Y1094709D01*
X2328520Y1102362D02*
X2356520D01*
X2342520Y1088362D02*
Y1116362D01*
X1108239Y1080709D02*
X1136239D01*
X1122239Y1066709D02*
Y1094709D01*
X2676186Y1503937D02*
X2704186D01*
X2690186Y1489937D02*
Y1517937D01*
X2676256Y2106299D02*
X2704256D01*
X2690256Y2092299D02*
Y2120299D01*
X2681805Y1889764D02*
X2709805D01*
X2695805Y1875764D02*
Y1903764D01*
X1541118Y1694882D02*
X1569118D01*
X1555118Y1680882D02*
Y1708882D01*
X1787024Y1514921D02*
X1815024D01*
X1801024Y1500921D02*
Y1528921D01*
X2741905Y740068D02*
X2769905D01*
X2755905Y726068D02*
Y754068D01*
X2741905Y599153D02*
X2769905D01*
X2755905Y585153D02*
Y613153D01*
X2741905Y433071D02*
X2769905D01*
X2755905Y419071D02*
Y447071D01*
X2741905Y255905D02*
X2769905D01*
X2755905Y241905D02*
Y269906D01*
X2741905Y112974D02*
X2769905D01*
X2755905Y98974D02*
Y126974D01*
X2637575Y67277D02*
X2665575D01*
X2651575Y53277D02*
Y81277D01*
X2643480Y197223D02*
X2671480D01*
X2657480Y183223D02*
Y211223D01*
X2643480Y354331D02*
X2671480D01*
X2657480Y340331D02*
Y368331D01*
X2643480Y531496D02*
X2671480D01*
X2657480Y517496D02*
Y545496D01*
X2643480Y675591D02*
X2671480D01*
X2657480Y661591D02*
Y689591D01*
X2643480Y815688D02*
X2671480D01*
X2657480Y801688D02*
Y829688D01*
X970252Y2362205D02*
X998252D01*
X984252Y2348205D02*
Y2376205D01*
%TF.MD5,4183039dc97ac888441d265212c86e1f*%
M02*
