%TF.GenerationSoftware,Altium Limited,Altium Designer,19.0.10 (269)*%
G04 Layer_Physical_Order=1*
G04 Layer_Color=255*
%FSLAX26Y26*%
%MOIN*%
%TF.FileFunction,Copper,L1,Top,Signal*%
%TF.Part,Single*%
G01*
G75*
%TA.AperFunction,SMDPad,CuDef*%
G04:AMPARAMS|DCode=10|XSize=37.402mil|YSize=33.465mil|CornerRadius=0mil|HoleSize=0mil|Usage=FLASHONLY|Rotation=135.000|XOffset=0mil|YOffset=0mil|HoleType=Round|Shape=Rectangle|*
%AMROTATEDRECTD10*
4,1,4,0.025055,-0.001392,0.001392,-0.025055,-0.025055,0.001392,-0.001392,0.025055,0.025055,-0.001392,0.0*
%
%ADD10ROTATEDRECTD10*%

%TA.AperFunction,ConnectorPad*%
G04:AMPARAMS|DCode=11|XSize=39.37mil|YSize=35.433mil|CornerRadius=0mil|HoleSize=0mil|Usage=FLASHONLY|Rotation=45.000|XOffset=0mil|YOffset=0mil|HoleType=Round|Shape=Rectangle|*
%AMROTATEDRECTD11*
4,1,4,-0.001392,-0.026447,-0.026447,-0.001392,0.001392,0.026447,0.026447,0.001392,-0.001392,-0.026447,0.0*
%
%ADD11ROTATEDRECTD11*%

%TA.AperFunction,SMDPad,CuDef*%
%ADD12R,0.033465X0.037402*%
%ADD13R,0.045276X0.080709*%
G04:AMPARAMS|DCode=14|XSize=29.921mil|YSize=94.488mil|CornerRadius=0mil|HoleSize=0mil|Usage=FLASHONLY|Rotation=135.000|XOffset=0mil|YOffset=0mil|HoleType=Round|Shape=Rectangle|*
%AMROTATEDRECTD14*
4,1,4,0.043985,0.022828,-0.022828,-0.043985,-0.043985,-0.022828,0.022828,0.043985,0.043985,0.022828,0.0*
%
%ADD14ROTATEDRECTD14*%

%ADD15R,0.039370X0.035433*%
%ADD16R,0.011811X0.053150*%
%ADD17R,0.053150X0.011811*%
%ADD18R,0.080709X0.045276*%
%ADD19R,0.035433X0.031496*%
%ADD20R,0.037402X0.033465*%
%ADD21O,0.057087X0.023622*%
%TA.AperFunction,Conductor*%
%ADD22C,0.010000*%
%ADD23C,0.020000*%
%ADD24C,0.015000*%
%ADD25C,0.030000*%
%TA.AperFunction,ComponentPad*%
%ADD26C,0.060000*%
%ADD27R,0.059055X0.059055*%
%ADD28C,0.059055*%
%TA.AperFunction,ViaPad*%
%ADD29C,0.157480*%
%ADD30C,0.030000*%
%ADD31C,0.040000*%
%ADD32C,0.050000*%
G36*
X1277206Y2076419D02*
Y2031892D01*
X1271206Y2030072D01*
X1268024Y2034834D01*
X1259754Y2040360D01*
X1255000Y2041306D01*
Y2016811D01*
Y1992315D01*
X1259754Y1993261D01*
X1268024Y1998786D01*
X1271206Y2003549D01*
X1277206Y2001729D01*
Y1795671D01*
X1271206Y1793851D01*
X1268024Y1798614D01*
X1259754Y1804140D01*
X1255000Y1805085D01*
Y1780590D01*
Y1756095D01*
X1259754Y1757041D01*
X1268024Y1762566D01*
X1271206Y1767329D01*
X1277206Y1765509D01*
Y1666961D01*
X1271206Y1664476D01*
X1266168Y1669514D01*
X1267262Y1675016D01*
Y1704724D01*
X1266098Y1710577D01*
X1262783Y1715539D01*
X1168210Y1810111D01*
X1169952Y1815853D01*
X1171171Y1816096D01*
X1179441Y1821621D01*
X1184966Y1829891D01*
X1185912Y1834645D01*
X1136922D01*
X1137748Y1830492D01*
X1137429Y1828828D01*
X1135111Y1824492D01*
X1082677D01*
Y1895424D01*
X1088677Y1897571D01*
X1098365Y1885766D01*
X1111877Y1874677D01*
X1127294Y1866437D01*
X1140008Y1862580D01*
X1140733Y1861528D01*
X1142068Y1855685D01*
X1137868Y1849400D01*
X1136922Y1844645D01*
X1185912D01*
X1184966Y1849400D01*
X1180767Y1855685D01*
X1182101Y1861528D01*
X1182826Y1862580D01*
X1195541Y1866437D01*
X1210957Y1874677D01*
X1224470Y1885766D01*
X1235559Y1899279D01*
X1243799Y1914695D01*
X1248873Y1931423D01*
X1250094Y1943819D01*
X1161417D01*
Y1948819D01*
X1156417D01*
Y2037496D01*
X1144021Y2036275D01*
X1127294Y2031201D01*
X1111877Y2022961D01*
X1098365Y2011871D01*
X1088677Y2000067D01*
X1082677Y2002214D01*
Y2076419D01*
X1277206D01*
D02*
G37*
G36*
X1070866D02*
Y1824492D01*
X1023622D01*
X1017769Y1823327D01*
X1012808Y1820012D01*
X968700Y1775905D01*
X956691Y1787914D01*
X918886Y1750109D01*
X886823Y1718046D01*
X880312Y1720021D01*
X879848Y1722352D01*
X874323Y1730622D01*
X866053Y1736147D01*
X861299Y1737093D01*
Y1712598D01*
Y1688103D01*
X866053Y1689048D01*
X874323Y1694574D01*
X879848Y1702843D01*
X880750Y1707378D01*
X887261Y1709353D01*
X894229Y1702385D01*
X889149Y1697306D01*
X885834Y1692344D01*
X884670Y1686492D01*
Y1647988D01*
X885834Y1642135D01*
X889149Y1637173D01*
X892826Y1633496D01*
X863163Y1603833D01*
X883169Y1583827D01*
Y1522795D01*
X825630D01*
Y1487735D01*
X781260D01*
Y1495118D01*
X780947D01*
Y1544992D01*
X780972Y1545017D01*
X784287Y1549979D01*
X785451Y1555832D01*
Y1638203D01*
X784287Y1644055D01*
X780972Y1649017D01*
X746817Y1683172D01*
X748832Y1689642D01*
X756213Y1694574D01*
X761738Y1702843D01*
X762684Y1707598D01*
X738189D01*
Y1712598D01*
X733189D01*
Y1737093D01*
X728434Y1736147D01*
X722071Y1731896D01*
X716071Y1734473D01*
Y1808833D01*
X722071Y1811410D01*
X728434Y1807159D01*
X733189Y1806213D01*
Y1830708D01*
Y1855203D01*
X728434Y1854258D01*
X722071Y1850006D01*
X716071Y1852583D01*
Y1926943D01*
X722071Y1929521D01*
X728434Y1925269D01*
X733189Y1924323D01*
Y1948818D01*
Y1973313D01*
X728434Y1972368D01*
X722071Y1968116D01*
X716071Y1970693D01*
Y1989963D01*
X721896Y1994432D01*
X728308Y2002788D01*
X732338Y2012518D01*
X733713Y2022961D01*
X732338Y2033403D01*
X728308Y2043133D01*
X721896Y2051489D01*
X713540Y2057901D01*
X703810Y2061931D01*
X693367Y2063306D01*
X682925Y2061931D01*
X673195Y2057901D01*
X664839Y2051489D01*
X658428Y2043133D01*
X654397Y2033403D01*
X653022Y2022961D01*
X654397Y2012518D01*
X658428Y2002788D01*
X664839Y1994432D01*
X673195Y1988021D01*
X682925Y1983990D01*
X685483Y1983653D01*
Y1942203D01*
X679940Y1939907D01*
X612207Y2007640D01*
X614228Y2012518D01*
X615602Y2022961D01*
X614228Y2033403D01*
X610197Y2043133D01*
X603786Y2051489D01*
X595430Y2057901D01*
X585699Y2061931D01*
X575257Y2063306D01*
X564815Y2061931D01*
X555085Y2057901D01*
X546729Y2051489D01*
X540317Y2043133D01*
X536287Y2033403D01*
X534912Y2022961D01*
X536287Y2012518D01*
X540317Y2002788D01*
X546729Y1994432D01*
X555085Y1988021D01*
X564815Y1983990D01*
X575257Y1982615D01*
X585699Y1983990D01*
X590578Y1986011D01*
X667483Y1909106D01*
Y1899591D01*
X661483Y1897444D01*
X657788Y1901947D01*
X647273Y1910577D01*
X635276Y1916989D01*
X622259Y1920938D01*
X608722Y1922271D01*
X595185Y1920938D01*
X582168Y1916989D01*
X570171Y1910577D01*
X559656Y1901947D01*
X551027Y1891432D01*
X544615Y1879436D01*
X540666Y1866419D01*
X539333Y1852882D01*
X540207Y1844004D01*
X534383Y1841921D01*
X529834Y1848729D01*
X521564Y1854255D01*
X516810Y1855200D01*
Y1830705D01*
Y1806210D01*
X521564Y1807156D01*
X529834Y1812681D01*
X535360Y1820950D01*
X537188Y1830141D01*
X537409Y1830304D01*
X543692Y1829371D01*
X544615Y1826328D01*
X551027Y1814331D01*
X559656Y1803816D01*
X570171Y1795187D01*
X582168Y1788775D01*
X595185Y1784826D01*
X608722Y1783493D01*
X622259Y1784826D01*
X635276Y1788775D01*
X647273Y1795187D01*
X657788Y1803816D01*
X661483Y1808319D01*
X667483Y1806172D01*
Y1739205D01*
X649504Y1721226D01*
X643034Y1723241D01*
X638102Y1730622D01*
X629833Y1736147D01*
X625078Y1737093D01*
Y1712598D01*
X620078D01*
Y1707598D01*
X595583D01*
X596529Y1702843D01*
X602054Y1694574D01*
X609435Y1689642D01*
X611451Y1683172D01*
X588947Y1660669D01*
X583418Y1663625D01*
X584545Y1669291D01*
X582605Y1679046D01*
X577667Y1686435D01*
X577079Y1689551D01*
Y1693259D01*
X579047Y1694574D01*
X584573Y1702843D01*
X585519Y1707598D01*
X536528D01*
X537474Y1702843D01*
X542412Y1695454D01*
X542999Y1692338D01*
Y1689014D01*
X541921Y1687910D01*
X541031Y1687315D01*
X540360Y1686312D01*
X538675Y1684585D01*
X481990D01*
X476137Y1683421D01*
X471176Y1680106D01*
X444506Y1653436D01*
X438420Y1655835D01*
X436935Y1663297D01*
X431410Y1671567D01*
X423140Y1677092D01*
X418386Y1678038D01*
Y1653543D01*
X413386D01*
Y1648543D01*
X388890D01*
X389836Y1643788D01*
X395362Y1635519D01*
X403631Y1629993D01*
X405596Y1629603D01*
X408320Y1622943D01*
X407381Y1621564D01*
X390669D01*
X389192Y1621270D01*
X371865D01*
X316336Y1676799D01*
X311374Y1680114D01*
X305522Y1681278D01*
X266896D01*
X261043Y1680114D01*
X256082Y1676799D01*
X189065Y1609782D01*
X127530D01*
X121677Y1608618D01*
X116715Y1605303D01*
X63989Y1552576D01*
X60673Y1547614D01*
X59509Y1541762D01*
Y1442254D01*
X44252D01*
Y1429818D01*
X38467Y1428667D01*
X33505Y1425352D01*
X24619Y1416465D01*
X21303Y1411504D01*
X20139Y1405651D01*
Y1308251D01*
X14596Y1305955D01*
X10195Y1310355D01*
Y1607201D01*
X16195Y1609021D01*
X16452Y1608637D01*
X24721Y1603112D01*
X29476Y1602166D01*
Y1626661D01*
Y1651156D01*
X24721Y1650211D01*
X16452Y1644685D01*
X16195Y1644301D01*
X10195Y1646121D01*
Y2076419D01*
X1070866Y2076419D01*
D02*
G37*
G36*
X1198827Y1736237D02*
X1190946Y1728355D01*
X1185204Y1730097D01*
X1184966Y1731290D01*
X1179441Y1739559D01*
X1171171Y1745084D01*
X1166417Y1746030D01*
Y1721535D01*
X1161417D01*
Y1716535D01*
X1134135D01*
X1131124Y1714926D01*
X1123401Y1722649D01*
X1123345Y1722705D01*
X1123345Y1722705D01*
X1088045Y1758005D01*
X1082677Y1763373D01*
Y1793904D01*
X1141160D01*
X1198827Y1736237D01*
D02*
G37*
G36*
X685835Y1705814D02*
X686647Y1701730D01*
X689963Y1696769D01*
X753875Y1632857D01*
X753385Y1627876D01*
X748114Y1624380D01*
X740158Y1625962D01*
X730403Y1624022D01*
X722134Y1618496D01*
X720309Y1615766D01*
X698976D01*
Y1619301D01*
X639606D01*
Y1554664D01*
X630084D01*
X628260Y1557394D01*
X619991Y1562920D01*
X610236Y1564860D01*
X601530Y1563128D01*
X595530Y1566278D01*
Y1623994D01*
X680008Y1708472D01*
X685835Y1705814D01*
D02*
G37*
G36*
X1277206Y1652571D02*
Y1559451D01*
X1271206Y1557631D01*
X1268024Y1562394D01*
X1259754Y1567919D01*
X1255000Y1568865D01*
Y1544370D01*
Y1519874D01*
X1259754Y1520820D01*
X1268024Y1526346D01*
X1271206Y1531109D01*
X1277206Y1529289D01*
Y1441341D01*
X1271206Y1439521D01*
X1268024Y1444284D01*
X1259754Y1449809D01*
X1255000Y1450755D01*
Y1426259D01*
Y1401764D01*
X1259754Y1402710D01*
X1268024Y1408236D01*
X1271206Y1412998D01*
X1277206Y1411178D01*
Y1323230D01*
X1271206Y1321410D01*
X1268024Y1326173D01*
X1259754Y1331699D01*
X1255000Y1332645D01*
Y1308149D01*
Y1283654D01*
X1259754Y1284600D01*
X1268024Y1290125D01*
X1271206Y1294888D01*
X1277206Y1293068D01*
Y1205120D01*
X1271206Y1203300D01*
X1268024Y1208063D01*
X1259754Y1213589D01*
X1255000Y1214534D01*
Y1190039D01*
Y1165544D01*
X1259754Y1166490D01*
X1268024Y1172015D01*
X1271206Y1176778D01*
X1277206Y1174958D01*
Y1087010D01*
X1271206Y1085190D01*
X1268024Y1089953D01*
X1259754Y1095478D01*
X1255000Y1096424D01*
Y1071929D01*
Y1047434D01*
X1259754Y1048379D01*
X1268024Y1053905D01*
X1271206Y1058668D01*
X1277206Y1056848D01*
X1277206Y968900D01*
X1271206Y967080D01*
X1268024Y971843D01*
X1259754Y977368D01*
X1255000Y978314D01*
Y953819D01*
Y929323D01*
X1259754Y930269D01*
X1268024Y935795D01*
X1271206Y940558D01*
X1277206Y938738D01*
Y850790D01*
X1271206Y848970D01*
X1268024Y853732D01*
X1259754Y859258D01*
X1255000Y860204D01*
Y835708D01*
Y811213D01*
X1259754Y812159D01*
X1268024Y817684D01*
X1271206Y822447D01*
X1277206Y820627D01*
Y732679D01*
X1271206Y730859D01*
X1268024Y735622D01*
X1259754Y741148D01*
X1255000Y742093D01*
Y717598D01*
Y693103D01*
X1259754Y694049D01*
X1268024Y699574D01*
X1271206Y704337D01*
X1277206Y702517D01*
Y614569D01*
X1271206Y612749D01*
X1268024Y617512D01*
X1259754Y623038D01*
X1255000Y623983D01*
Y599488D01*
Y574993D01*
X1259754Y575939D01*
X1268024Y581464D01*
X1271206Y586227D01*
X1277206Y584407D01*
Y496459D01*
X1271206Y494639D01*
X1268024Y499402D01*
X1259754Y504927D01*
X1255000Y505873D01*
Y481378D01*
Y456883D01*
X1259754Y457828D01*
X1268024Y463354D01*
X1271206Y468117D01*
X1277206Y466297D01*
Y378349D01*
X1271206Y376529D01*
X1268024Y381292D01*
X1259754Y386817D01*
X1255000Y387763D01*
Y363268D01*
Y338772D01*
X1259754Y339718D01*
X1268024Y345244D01*
X1271206Y350007D01*
X1277206Y348187D01*
Y260239D01*
X1271206Y258418D01*
X1268024Y263182D01*
X1259754Y268707D01*
X1255000Y269653D01*
Y245157D01*
Y220662D01*
X1259754Y221608D01*
X1268024Y227133D01*
X1271206Y231897D01*
X1277206Y230076D01*
Y10195D01*
X10195D01*
Y289881D01*
X11198Y290609D01*
X19354Y289170D01*
X21346Y286189D01*
X29616Y280663D01*
X34370Y279717D01*
Y304213D01*
Y328708D01*
X29616Y327762D01*
X21346Y322237D01*
X19354Y319256D01*
X11198Y317817D01*
X10195Y318544D01*
Y407991D01*
X11198Y408719D01*
X19354Y407280D01*
X21346Y404299D01*
X29616Y398773D01*
X34370Y397828D01*
Y422323D01*
Y446818D01*
X29616Y445872D01*
X21346Y440347D01*
X19354Y437366D01*
X11198Y435927D01*
X10195Y436654D01*
Y526101D01*
X11198Y526829D01*
X19354Y525390D01*
X21346Y522409D01*
X29616Y516884D01*
X34370Y515938D01*
Y540433D01*
Y564928D01*
X29616Y563982D01*
X21346Y558457D01*
X19354Y555476D01*
X11198Y554037D01*
X10195Y554765D01*
Y644212D01*
X11198Y644939D01*
X19354Y643500D01*
X21346Y640519D01*
X29616Y634994D01*
X34370Y634048D01*
Y658543D01*
Y683038D01*
X29616Y682093D01*
X21346Y676567D01*
X19354Y673586D01*
X11198Y672147D01*
X10195Y672875D01*
Y762322D01*
X11198Y763049D01*
X19354Y761610D01*
X21346Y758629D01*
X29616Y753104D01*
X34370Y752158D01*
Y776653D01*
Y801149D01*
X29616Y800203D01*
X21346Y794677D01*
X19354Y791696D01*
X11198Y790257D01*
X10195Y790985D01*
Y880432D01*
X11198Y881160D01*
X19354Y879721D01*
X21346Y876740D01*
X29616Y871214D01*
X34370Y870268D01*
Y894764D01*
Y919259D01*
X29616Y918313D01*
X21346Y912788D01*
X19354Y909807D01*
X11198Y908368D01*
X10195Y909095D01*
Y998542D01*
X11198Y999270D01*
X19354Y997831D01*
X21346Y994850D01*
X29616Y989324D01*
X34370Y988379D01*
Y1012874D01*
Y1037369D01*
X29616Y1036423D01*
X21346Y1030898D01*
X19354Y1027917D01*
X11198Y1026478D01*
X10195Y1027205D01*
Y1116652D01*
X11198Y1117380D01*
X19354Y1115941D01*
X21346Y1112960D01*
X29616Y1107435D01*
X34370Y1106489D01*
Y1130984D01*
Y1155479D01*
X29616Y1154534D01*
X21346Y1149008D01*
X19354Y1146027D01*
X11198Y1144588D01*
X10195Y1145316D01*
Y1291339D01*
X27085D01*
X40531Y1277893D01*
Y1269824D01*
X41307Y1265922D01*
X43517Y1262614D01*
X93072Y1213060D01*
X94454Y1212136D01*
X95772Y1211125D01*
X96098Y1211037D01*
X96379Y1210850D01*
X98009Y1210525D01*
X99614Y1210095D01*
X99950Y1210139D01*
X100281Y1210073D01*
X100379Y1210093D01*
X104754Y1208011D01*
X106947Y1206170D01*
X107070Y1205232D01*
X111053Y1195617D01*
X117389Y1187360D01*
X125646Y1181024D01*
X135262Y1177041D01*
X142311Y1176113D01*
X158196Y1160228D01*
X155899Y1154685D01*
X154370D01*
Y1089409D01*
X229014D01*
X272200Y1046224D01*
X265876Y1039899D01*
X263666Y1036591D01*
X262889Y1032689D01*
X262890Y1022455D01*
X257885Y1016455D01*
X257651D01*
X249848Y1014903D01*
X243232Y1010482D01*
X234568Y1001818D01*
X230148Y995202D01*
X228595Y987399D01*
Y864018D01*
X230148Y856214D01*
X234568Y849598D01*
X253197Y830969D01*
X254978Y822017D01*
X260503Y813747D01*
X268773Y808222D01*
X278527Y806282D01*
X288282Y808222D01*
X296551Y813747D01*
X302077Y822017D01*
X304017Y831771D01*
X302077Y841526D01*
X296551Y849795D01*
X288282Y855321D01*
X286085Y855758D01*
X269379Y872464D01*
Y910276D01*
X292345D01*
Y937992D01*
X297345D01*
Y942992D01*
X327030D01*
Y963425D01*
Y976832D01*
X338693D01*
Y963425D01*
Y942992D01*
X368378D01*
Y937992D01*
X373378D01*
Y910276D01*
X398063D01*
X398092Y904287D01*
Y744524D01*
X388153Y734585D01*
X384838Y729624D01*
X384321Y727024D01*
X383815Y726685D01*
X378289Y718416D01*
X376349Y708661D01*
X378212Y699295D01*
X377290Y698183D01*
X373426Y695385D01*
X366478Y700027D01*
X361724Y700973D01*
Y676478D01*
X351724D01*
Y700973D01*
X346969Y700027D01*
X338700Y694502D01*
X333768Y687121D01*
X327298Y685106D01*
X263191Y749213D01*
Y758456D01*
X265921Y760280D01*
X271447Y768550D01*
X273387Y778304D01*
X271447Y788059D01*
X265921Y796328D01*
X257651Y801854D01*
X247897Y803794D01*
X238143Y801854D01*
X229873Y796328D01*
X224347Y788059D01*
X222407Y778304D01*
X224347Y768550D01*
X229873Y760280D01*
X232603Y758456D01*
Y742878D01*
X233767Y737025D01*
X237083Y732063D01*
X333483Y635663D01*
X336682Y633526D01*
X338355Y626714D01*
X330978Y619337D01*
X327758Y619978D01*
X318003Y618038D01*
X309734Y612512D01*
X304208Y604243D01*
X302268Y594488D01*
X304208Y584734D01*
X309734Y576464D01*
X318003Y570939D01*
X323645Y569817D01*
X324459Y566006D01*
X324278Y563573D01*
X316622Y558457D01*
X311096Y550188D01*
X310150Y545433D01*
X359141D01*
X358195Y550188D01*
X352670Y558457D01*
X344400Y563982D01*
X338759Y565105D01*
X337945Y568915D01*
X338125Y571348D01*
X345782Y576464D01*
X351307Y584734D01*
X353248Y594488D01*
X352607Y597709D01*
X367274Y612375D01*
X388729D01*
X394581Y613540D01*
X399543Y616855D01*
X465231Y682543D01*
X468546Y687505D01*
X469711Y693357D01*
Y851457D01*
X533788D01*
X535575Y853244D01*
Y894793D01*
Y934163D01*
Y973534D01*
Y1006883D01*
X536655Y1012436D01*
X696727D01*
X697774Y1009908D01*
X703384Y1002597D01*
X710696Y996987D01*
X719210Y993460D01*
X728346Y992257D01*
X737483Y993460D01*
X745997Y996987D01*
X753309Y1002597D01*
X758919Y1009908D01*
X759966Y1012436D01*
X913386D01*
X915182Y1010640D01*
Y976719D01*
X909182Y974682D01*
X906852Y977718D01*
X899541Y983328D01*
X891027Y986855D01*
X881890Y988058D01*
X872753Y986855D01*
X864239Y983328D01*
X856928Y977718D01*
X851317Y970407D01*
X847791Y961893D01*
X846701Y953615D01*
X805378Y912293D01*
X803391Y909318D01*
X795680Y901607D01*
X793373Y900651D01*
X786061Y895041D01*
X780451Y887730D01*
X776924Y879216D01*
X775722Y870079D01*
X776924Y860942D01*
X780451Y852428D01*
X786061Y845116D01*
X793373Y839506D01*
X801887Y835980D01*
X808086Y835163D01*
X807693Y829163D01*
X561835D01*
Y756014D01*
X832829D01*
X835314Y750014D01*
X689414Y604113D01*
X683672Y605855D01*
X682998Y609243D01*
X677473Y617512D01*
X669203Y623038D01*
X664449Y623983D01*
Y599488D01*
X659449D01*
Y594488D01*
X634953D01*
X635899Y589734D01*
X641425Y581464D01*
X649694Y575939D01*
X653082Y575265D01*
X654823Y569523D01*
X571303Y486003D01*
X565562Y487745D01*
X564888Y491132D01*
X559362Y499402D01*
X551093Y504927D01*
X546338Y505873D01*
Y481378D01*
X541338D01*
Y476378D01*
X516843D01*
X517789Y471623D01*
X523314Y463354D01*
X524983Y462239D01*
X523163Y456239D01*
X500459D01*
X498639Y462239D01*
X500307Y463354D01*
X505833Y471623D01*
X506779Y476378D01*
X457788D01*
X458734Y471623D01*
X461933Y466835D01*
X457608Y462509D01*
X454636Y464494D01*
X449865Y465444D01*
X446778Y471623D01*
X447723Y476378D01*
X398733D01*
X399679Y471623D01*
X405204Y463354D01*
X413474Y457828D01*
X418245Y456879D01*
X421332Y450699D01*
X419392Y440945D01*
X419784Y438977D01*
X415977Y434339D01*
X391767D01*
X389943Y437069D01*
X381674Y442595D01*
X371919Y444535D01*
X362165Y442595D01*
X353895Y437069D01*
X348370Y428800D01*
X346429Y419045D01*
X348161Y410339D01*
X345011Y404339D01*
X330871D01*
X325018Y403175D01*
X320056Y399860D01*
X301705Y381508D01*
X298389Y376546D01*
X297225Y370693D01*
Y326811D01*
X291225Y323833D01*
X285345Y327762D01*
X280591Y328708D01*
Y304213D01*
Y279717D01*
X285345Y280663D01*
X293615Y286189D01*
X298317Y293226D01*
X302319Y294366D01*
X304965Y292639D01*
X307541Y289644D01*
Y248195D01*
X304811Y246370D01*
X299285Y238101D01*
X297345Y228346D01*
X299285Y218592D01*
X304811Y210322D01*
X313080Y204797D01*
X322835Y202857D01*
X332589Y204797D01*
X340859Y210322D01*
X346384Y218592D01*
X348324Y228346D01*
X346384Y238101D01*
X340859Y246370D01*
X338128Y248195D01*
Y298823D01*
X336964Y304676D01*
X333649Y309637D01*
X327813Y315474D01*
Y331359D01*
X333813Y334509D01*
X342519Y332777D01*
X352274Y334717D01*
X360543Y340243D01*
X362367Y342973D01*
X547229D01*
X550057Y337682D01*
X549285Y336526D01*
X547345Y326772D01*
X547387Y326558D01*
X479509Y258680D01*
X475641Y252891D01*
X474283Y246063D01*
Y224910D01*
X470730Y222184D01*
X465921Y215917D01*
X462898Y208619D01*
X461867Y200787D01*
X462871Y193161D01*
X450358Y180648D01*
X279691D01*
X277866Y183378D01*
X269597Y188904D01*
X259842Y190844D01*
X250088Y188904D01*
X247879Y187428D01*
X241212Y190189D01*
X240085Y195857D01*
X234559Y204126D01*
X226290Y209652D01*
X221535Y210598D01*
Y186102D01*
Y161607D01*
X226290Y162553D01*
X228499Y164029D01*
X235166Y161267D01*
X236293Y155600D01*
X241819Y147330D01*
X250088Y141805D01*
X259842Y139864D01*
X269597Y141805D01*
X277866Y147330D01*
X279691Y150060D01*
X456693D01*
X462546Y151225D01*
X467507Y154540D01*
X484500Y171532D01*
X492126Y170529D01*
X499958Y171560D01*
X507255Y174582D01*
X513522Y179391D01*
X518331Y185658D01*
X521354Y192956D01*
X522385Y200787D01*
X521354Y208619D01*
X518331Y215917D01*
X513522Y222184D01*
X509969Y224910D01*
Y238672D01*
X572621Y301324D01*
X572835Y301282D01*
X582589Y303222D01*
X590859Y308748D01*
X590980Y308929D01*
X629921D01*
X636750Y310287D01*
X642538Y314155D01*
X823404Y495020D01*
X893829Y424595D01*
X931919D01*
X934216Y419052D01*
X864767Y349603D01*
X860106Y353428D01*
X860163Y353513D01*
X861109Y358268D01*
X841614D01*
Y338772D01*
X846368Y339718D01*
X846454Y339775D01*
X850279Y335115D01*
X758280Y243116D01*
X754965Y238155D01*
X754753Y237089D01*
X747163Y229499D01*
X746097Y229287D01*
X741136Y225972D01*
X626627Y111463D01*
X623407Y112104D01*
X613652Y110164D01*
X605383Y104638D01*
X599857Y96369D01*
X597917Y86614D01*
X599857Y76860D01*
X605383Y68590D01*
X606404Y67908D01*
X604583Y61908D01*
X595971D01*
X572261Y85618D01*
X567299Y88933D01*
X561447Y90097D01*
X413549D01*
X411725Y92827D01*
X403455Y98353D01*
X393701Y100293D01*
X383946Y98353D01*
X375677Y92827D01*
X370151Y84558D01*
X368211Y74803D01*
X370151Y65049D01*
X375677Y56779D01*
X383946Y51254D01*
X393701Y49313D01*
X403455Y51254D01*
X411725Y56779D01*
X413549Y59509D01*
X555112D01*
X578821Y35800D01*
X583783Y32484D01*
X589636Y31320D01*
X639975D01*
X645828Y32484D01*
X650790Y35800D01*
X746923Y131933D01*
X752453Y128978D01*
X752069Y127047D01*
X754009Y117293D01*
X759535Y109023D01*
X767804Y103498D01*
X772559Y102552D01*
Y127047D01*
X777559D01*
Y132047D01*
X802054D01*
X801108Y136802D01*
X795583Y145071D01*
X787313Y150597D01*
X777559Y152537D01*
X775628Y152153D01*
X772673Y157683D01*
X865034Y250044D01*
X870563Y247088D01*
X870179Y245157D01*
X872120Y235403D01*
X877645Y227133D01*
X885914Y221608D01*
X890669Y220662D01*
Y245157D01*
X895669D01*
Y250157D01*
X920164D01*
X919218Y254912D01*
X913693Y263182D01*
X905423Y268707D01*
X895669Y270647D01*
X893739Y270263D01*
X890783Y275793D01*
X983144Y368154D01*
X988673Y365198D01*
X988289Y363268D01*
X990230Y353513D01*
X995755Y345244D01*
X1004025Y339718D01*
X1008779Y338772D01*
Y363268D01*
X1013779D01*
Y368268D01*
X1038274D01*
X1037329Y373022D01*
X1031803Y381292D01*
X1023534Y386817D01*
X1013779Y388757D01*
X1011849Y388373D01*
X1008893Y393903D01*
X1065932Y450943D01*
X1069248Y455904D01*
X1069301Y456171D01*
X1082677Y469547D01*
Y1087889D01*
X1130812Y1136024D01*
X1136342Y1133068D01*
X1135927Y1130984D01*
X1137868Y1121229D01*
X1143393Y1112960D01*
X1151662Y1107435D01*
X1156417Y1106489D01*
Y1130984D01*
X1161417D01*
Y1135984D01*
X1185912D01*
X1184966Y1140738D01*
X1179441Y1149008D01*
X1171171Y1154534D01*
X1161417Y1156474D01*
X1159333Y1156059D01*
X1156377Y1161589D01*
X1199791Y1205002D01*
X1203106Y1209964D01*
X1204270Y1215817D01*
Y1223488D01*
X1209562Y1226317D01*
X1210718Y1225545D01*
X1215472Y1224599D01*
Y1249094D01*
Y1273589D01*
X1210718Y1272644D01*
X1209562Y1271871D01*
X1204270Y1274700D01*
Y1341599D01*
X1209562Y1344427D01*
X1210718Y1343655D01*
X1215472Y1342709D01*
Y1367204D01*
X1220472D01*
Y1372204D01*
X1244967D01*
X1244022Y1376959D01*
X1238496Y1385228D01*
X1230227Y1390754D01*
X1220472Y1392694D01*
X1220347Y1392669D01*
X1215709Y1396476D01*
Y1448071D01*
X1204270D01*
Y1459709D01*
X1209562Y1462537D01*
X1210718Y1461765D01*
X1215472Y1460819D01*
Y1485315D01*
Y1509810D01*
X1210718Y1508864D01*
X1209562Y1508092D01*
X1204270Y1510920D01*
Y1576118D01*
X1203106Y1581971D01*
X1199791Y1586932D01*
X1199747Y1586976D01*
X1229411Y1616639D01*
X1233935Y1617785D01*
X1233935D01*
X1271206Y1655057D01*
X1277206Y1652571D01*
D02*
G37*
G36*
X722134Y1582448D02*
X730403Y1576923D01*
X740158Y1574983D01*
X748864Y1576714D01*
X754864Y1573565D01*
Y1562167D01*
X754838Y1562142D01*
X751523Y1557180D01*
X750359Y1551327D01*
Y1495118D01*
X698243D01*
X688643Y1504719D01*
X691128Y1510719D01*
X698976D01*
Y1563868D01*
Y1585178D01*
X720309D01*
X722134Y1582448D01*
D02*
G37*
G36*
X541031Y1651267D02*
X549301Y1645742D01*
X559055Y1643802D01*
X565014Y1644987D01*
X565575Y1644498D01*
X568345Y1639532D01*
X566106Y1636182D01*
X564942Y1630329D01*
Y1495118D01*
X558337D01*
Y1481711D01*
X515294D01*
Y1508701D01*
X532638D01*
Y1609409D01*
X467362D01*
Y1508701D01*
X484706D01*
Y1481711D01*
X478465D01*
X473650Y1480754D01*
X472561Y1480568D01*
X467121Y1482821D01*
X466463Y1486132D01*
X460937Y1494401D01*
X452668Y1499927D01*
X447913Y1500873D01*
Y1476378D01*
X442913D01*
Y1471378D01*
X418418D01*
X419364Y1466623D01*
X420194Y1465380D01*
X417366Y1460089D01*
X416221D01*
Y1438886D01*
X398953D01*
X397162Y1440083D01*
X390145Y1441479D01*
Y1447596D01*
X397162Y1448992D01*
X404376Y1453812D01*
X409197Y1461027D01*
X410890Y1469537D01*
X409197Y1478048D01*
X404376Y1485262D01*
X397162Y1490083D01*
X394231Y1490666D01*
Y1516624D01*
X407638D01*
Y1567805D01*
Y1590976D01*
X418968D01*
X424821Y1592140D01*
X429783Y1595455D01*
X488325Y1653997D01*
X539207D01*
X541031Y1651267D01*
D02*
G37*
G36*
X676614Y1473489D02*
Y1437716D01*
X711398D01*
X713694Y1432173D01*
X668269Y1386748D01*
X661721Y1388072D01*
X661450Y1388414D01*
X663284Y1397635D01*
X661343Y1407390D01*
X655818Y1415659D01*
X647548Y1421185D01*
X637794Y1423125D01*
X628039Y1421185D01*
X619770Y1415659D01*
X617946Y1412929D01*
X550394D01*
Y1422687D01*
X494961D01*
Y1372929D01*
X471654D01*
Y1385285D01*
X416221D01*
Y1384157D01*
X413866Y1382225D01*
X406406D01*
X404376Y1385262D01*
X397162Y1390083D01*
X390145Y1391479D01*
Y1397596D01*
X397162Y1398992D01*
X404376Y1403812D01*
X407374Y1408299D01*
X433189D01*
X434667Y1408592D01*
X471654D01*
Y1437977D01*
X484800Y1451123D01*
X558337D01*
Y1437716D01*
X662982D01*
Y1473489D01*
X669798Y1480305D01*
X676614Y1473489D01*
D02*
G37*
G36*
X1173682Y1553071D02*
Y1448071D01*
X1111063D01*
Y1436239D01*
X1089012D01*
X1082677Y1442574D01*
Y1469906D01*
X1120839Y1508068D01*
X1121318Y1508068D01*
X1121318D01*
X1148934Y1535684D01*
X1148695Y1535923D01*
X1168139Y1555368D01*
X1173682Y1553071D01*
D02*
G37*
G36*
X825630Y1422087D02*
X864751D01*
X867048Y1416543D01*
X800444Y1349940D01*
X682558D01*
X680261Y1355483D01*
X762495Y1437716D01*
X781260D01*
Y1457147D01*
X825630D01*
Y1422087D01*
D02*
G37*
G36*
X324110Y1625767D02*
X321976Y1619415D01*
X315048Y1618037D01*
X306779Y1612512D01*
X301253Y1604242D01*
X300308Y1599488D01*
X324803D01*
Y1594488D01*
X329803D01*
Y1569993D01*
X334558Y1570938D01*
X342827Y1576464D01*
X344236Y1578573D01*
X350236Y1576753D01*
Y1516624D01*
X363643D01*
Y1491776D01*
X355187D01*
X346677Y1490083D01*
X339462Y1485262D01*
X334641Y1478048D01*
X332949Y1469537D01*
X334641Y1461027D01*
X339462Y1453812D01*
X346677Y1448992D01*
X353693Y1447596D01*
Y1441479D01*
X346677Y1440083D01*
X339462Y1435262D01*
X334641Y1428048D01*
X332949Y1419537D01*
X334641Y1411027D01*
X339462Y1403812D01*
X346677Y1398992D01*
X353693Y1397596D01*
Y1391479D01*
X346677Y1390083D01*
X339462Y1385262D01*
X334641Y1378048D01*
X332949Y1369537D01*
X334641Y1361027D01*
X339462Y1353812D01*
X346677Y1348992D01*
X353693Y1347596D01*
Y1341479D01*
X346677Y1340083D01*
X342718Y1337438D01*
X335141D01*
X320412Y1352167D01*
Y1519522D01*
X323142Y1521346D01*
X328668Y1529616D01*
X330608Y1539370D01*
X328668Y1549125D01*
X323142Y1557394D01*
X314873Y1562920D01*
X305118Y1564860D01*
X295363Y1562920D01*
X287094Y1557394D01*
X281568Y1549125D01*
X279628Y1539370D01*
X281568Y1529616D01*
X287094Y1521346D01*
X289824Y1519522D01*
Y1463589D01*
X286305Y1459046D01*
X286305Y1459046D01*
Y1459046D01*
X283824Y1458802D01*
X283777Y1459040D01*
X282435Y1465786D01*
X276909Y1474056D01*
X268640Y1479581D01*
X263885Y1480527D01*
Y1456032D01*
Y1431536D01*
X268640Y1432482D01*
X276909Y1438008D01*
X282435Y1446277D01*
X283777Y1453023D01*
X283824Y1453261D01*
X286305Y1453017D01*
Y1453017D01*
X286305Y1453017D01*
X289824Y1448475D01*
Y1378033D01*
X283824Y1376213D01*
X283772Y1376291D01*
X275502Y1381817D01*
X270748Y1382763D01*
Y1358267D01*
Y1333772D01*
X275502Y1334718D01*
X283772Y1340243D01*
X284578Y1341450D01*
X290948Y1340183D01*
X290988Y1339979D01*
X294304Y1335018D01*
X317992Y1311329D01*
X322954Y1308014D01*
X328806Y1306850D01*
X337433D01*
X339462Y1303812D01*
X346677Y1298992D01*
X355187Y1297299D01*
X388651D01*
X397162Y1298992D01*
X404376Y1303812D01*
X409197Y1311027D01*
X410890Y1319537D01*
X409197Y1328048D01*
X404376Y1335262D01*
X397162Y1340083D01*
X390145Y1341479D01*
Y1347596D01*
X397162Y1348992D01*
X401121Y1351637D01*
X407531D01*
X410445Y1348723D01*
X415407Y1345408D01*
X416221Y1345246D01*
Y1333789D01*
X471654D01*
Y1342341D01*
X615880D01*
X618176Y1336798D01*
X586611Y1305234D01*
X583296Y1300272D01*
X582132Y1294419D01*
Y1281919D01*
X561835D01*
Y1208770D01*
X562447D01*
Y1196850D01*
X563611Y1190998D01*
X566926Y1186036D01*
X606296Y1146666D01*
X611258Y1143351D01*
X617111Y1142186D01*
X844216D01*
X844589Y1141732D01*
X846529Y1131978D01*
X852055Y1123708D01*
X860324Y1118183D01*
X870079Y1116243D01*
X879833Y1118183D01*
X888103Y1123708D01*
X893628Y1131978D01*
X895568Y1141732D01*
X893628Y1151487D01*
X888103Y1159756D01*
X879833Y1165282D01*
X870079Y1167222D01*
X866858Y1166582D01*
X865145Y1168295D01*
X860183Y1171610D01*
X854331Y1172774D01*
X623446D01*
X618023Y1178197D01*
X621848Y1182857D01*
X622052Y1182721D01*
X627905Y1181556D01*
X894111D01*
X899964Y1182721D01*
X904925Y1186036D01*
X1006877Y1287988D01*
X1010193Y1292950D01*
X1011357Y1298802D01*
Y1336377D01*
X1017357Y1338963D01*
X1023710Y1334718D01*
X1028464Y1333772D01*
Y1358267D01*
Y1382763D01*
X1023710Y1381817D01*
X1017357Y1377572D01*
X1011357Y1380158D01*
Y1447800D01*
X1016900Y1450096D01*
X1039884Y1427112D01*
X1047382Y1434611D01*
X1067383Y1414610D01*
Y1378116D01*
X1064653Y1376292D01*
X1061679Y1371840D01*
X1054463D01*
X1051488Y1376291D01*
X1043219Y1381817D01*
X1038464Y1382763D01*
Y1358267D01*
Y1333772D01*
X1043219Y1334718D01*
X1051488Y1340243D01*
X1054463Y1344695D01*
X1061679D01*
X1064653Y1340244D01*
X1070866Y1336092D01*
Y1128233D01*
X1064588Y1121955D01*
X1058496Y1124349D01*
X1057014Y1131801D01*
X1051488Y1140071D01*
X1043219Y1145596D01*
X1038464Y1146542D01*
Y1122047D01*
X1033464D01*
Y1117047D01*
X1008969D01*
X1009915Y1112292D01*
X1015440Y1104023D01*
X1023710Y1098497D01*
X1025738Y1098094D01*
X1028461Y1091435D01*
X1027476Y1089990D01*
X1005748D01*
Y1070280D01*
X994331Y1058863D01*
X988331Y1061349D01*
Y1111329D01*
Y1154245D01*
X993250Y1157709D01*
X994331Y1157523D01*
X998937Y1156607D01*
Y1181102D01*
X1003937D01*
Y1186102D01*
X1028432D01*
X1027999Y1188276D01*
X1029930Y1192542D01*
X1032426Y1194264D01*
X1040293Y1195829D01*
X1048563Y1201354D01*
X1054088Y1209624D01*
X1055034Y1214378D01*
X1006044D01*
X1006476Y1212204D01*
X1004546Y1207938D01*
X1002050Y1206216D01*
X994182Y1204651D01*
X985913Y1199126D01*
X980387Y1190857D01*
X978727Y1182510D01*
X915182D01*
Y1150699D01*
Y1131014D01*
Y1091644D01*
Y1054048D01*
X751319Y1054048D01*
X745997Y1058131D01*
X737483Y1061658D01*
X728346Y1062861D01*
X719210Y1061658D01*
X710696Y1058131D01*
X705374Y1054048D01*
X535575Y1054049D01*
Y1071959D01*
Y1111329D01*
Y1150699D01*
Y1182510D01*
X462426D01*
Y1150699D01*
Y1115093D01*
X458368Y1109782D01*
X352791D01*
X291448Y1171126D01*
X295035Y1176024D01*
X373189D01*
Y1241299D01*
X272480D01*
Y1198579D01*
X267583Y1194991D01*
X231829Y1230744D01*
Y1427087D01*
X230665Y1432939D01*
X227350Y1437901D01*
X196222Y1469029D01*
X196323Y1469537D01*
X194630Y1478048D01*
X189810Y1485262D01*
X182595Y1490083D01*
X174085Y1491776D01*
X140620D01*
X132110Y1490083D01*
X124895Y1485262D01*
X120075Y1478048D01*
X118382Y1469537D01*
X120075Y1461027D01*
X124895Y1453812D01*
X132110Y1448992D01*
X139126Y1447596D01*
Y1441479D01*
X132110Y1440083D01*
X126357Y1436239D01*
X103622D01*
Y1442254D01*
X90097D01*
Y1535427D01*
X133864Y1579194D01*
X195400D01*
X201253Y1580359D01*
X206214Y1583674D01*
X273231Y1650690D01*
X299187D01*
X324110Y1625767D01*
D02*
G37*
G36*
X124895Y1353812D02*
X132110Y1348992D01*
X139126Y1347596D01*
Y1341479D01*
X132110Y1340083D01*
X124895Y1335262D01*
X120075Y1328048D01*
X118382Y1319537D01*
X120075Y1311027D01*
X124895Y1303812D01*
X132110Y1298992D01*
X140620Y1297299D01*
X169369D01*
X181242Y1285427D01*
Y1243864D01*
X175242Y1241828D01*
X173772Y1243743D01*
X165515Y1250078D01*
X155899Y1254061D01*
X145581Y1255420D01*
X135262Y1254061D01*
X125646Y1250078D01*
X117389Y1243743D01*
X111053Y1235486D01*
X107070Y1225870D01*
X106616Y1222420D01*
X100281Y1220269D01*
X50727Y1269824D01*
Y1333671D01*
X103622D01*
Y1354244D01*
X124607D01*
X124895Y1353812D01*
D02*
G37*
G36*
X969173Y1497823D02*
X969173D01*
X969229Y1497767D01*
X983318Y1483678D01*
X981933Y1481604D01*
X980769Y1475752D01*
Y1305137D01*
X894465Y1218833D01*
X888922Y1221129D01*
Y1281919D01*
X845862D01*
X843566Y1287463D01*
X954594Y1398491D01*
X957909Y1403452D01*
X959073Y1409305D01*
Y1499437D01*
X964699Y1502297D01*
X969173Y1497823D01*
D02*
G37*
G36*
X1111063Y1390669D02*
X1173682D01*
Y1222152D01*
X1088220Y1136690D01*
X1082677Y1138986D01*
Y1332778D01*
X1092432Y1334718D01*
X1100701Y1340244D01*
X1106227Y1348513D01*
X1108167Y1358268D01*
X1106227Y1368022D01*
X1100701Y1376292D01*
X1097971Y1378116D01*
Y1405651D01*
X1111063D01*
Y1390669D01*
D02*
G37*
G36*
X338629Y1054049D02*
X344481Y1052885D01*
X462426D01*
Y1052274D01*
Y1032589D01*
Y1025030D01*
Y1024418D01*
X441028D01*
X435175Y1023254D01*
X430214Y1019938D01*
X417695Y1007420D01*
X398063D01*
Y1018858D01*
X373378D01*
Y991142D01*
X363378D01*
Y1018858D01*
X338693D01*
Y1007420D01*
X327030D01*
Y1018858D01*
X302345D01*
Y991142D01*
X292345D01*
Y1018858D01*
X273086D01*
X273085Y1032689D01*
X282115Y1041718D01*
X285521Y1039442D01*
X295276Y1037502D01*
X305030Y1039442D01*
X313300Y1044968D01*
X318825Y1053237D01*
X319199Y1055118D01*
X337030D01*
X338629Y1054049D01*
D02*
G37*
G36*
X915182Y928793D02*
Y894793D01*
Y855423D01*
X918886D01*
Y833573D01*
X894465Y809152D01*
X888922Y811448D01*
Y829163D01*
X814354D01*
X813961Y835163D01*
X820160Y835980D01*
X828675Y839506D01*
X835986Y845116D01*
X841596Y852428D01*
X845123Y860942D01*
X846326Y870079D01*
X845123Y879216D01*
X844910Y879728D01*
X882749Y917567D01*
X891027Y918657D01*
X899541Y922183D01*
X906852Y927794D01*
X909182Y930829D01*
X915182Y928793D01*
D02*
G37*
G36*
X988257Y424005D02*
X990395Y418663D01*
X655715Y83982D01*
X649892Y86571D01*
X649335Y90913D01*
X759237Y200816D01*
X760303Y201028D01*
X765264Y204343D01*
X779909Y218988D01*
X783224Y223950D01*
X783436Y225015D01*
X982944Y424523D01*
X988257Y424005D01*
D02*
G37*
%LPC*%
G36*
X1245000Y2041306D02*
X1240245Y2040360D01*
X1231976Y2034834D01*
X1226450Y2026565D01*
X1224987Y2019209D01*
X1219226Y2016545D01*
X1218801Y2016524D01*
X1210957Y2022961D01*
X1195541Y2031201D01*
X1178813Y2036275D01*
X1166417Y2037496D01*
Y1953819D01*
X1250094D01*
X1248873Y1966215D01*
X1243799Y1982943D01*
X1241709Y1986852D01*
X1245000Y1991288D01*
Y2016811D01*
Y2041306D01*
D02*
G37*
G36*
X1225472Y1864140D02*
Y1844645D01*
X1244967D01*
X1244022Y1849400D01*
X1238496Y1857669D01*
X1230227Y1863195D01*
X1225472Y1864140D01*
D02*
G37*
G36*
X1215472D02*
X1210718Y1863195D01*
X1202448Y1857669D01*
X1196923Y1849400D01*
X1195977Y1844645D01*
X1215472D01*
Y1864140D01*
D02*
G37*
G36*
X1244967Y1834645D02*
X1225472D01*
Y1815150D01*
X1230227Y1816096D01*
X1238496Y1821621D01*
X1244022Y1829891D01*
X1244967Y1834645D01*
D02*
G37*
G36*
X1215472D02*
X1195977D01*
X1196923Y1829891D01*
X1202448Y1821621D01*
X1210718Y1816096D01*
X1215472Y1815150D01*
Y1834645D01*
D02*
G37*
G36*
X1245000Y1805085D02*
X1240245Y1804140D01*
X1231976Y1798614D01*
X1226450Y1790345D01*
X1225504Y1785590D01*
X1245000D01*
Y1805085D01*
D02*
G37*
G36*
Y1775590D02*
X1225504D01*
X1226450Y1770836D01*
X1231976Y1762566D01*
X1240245Y1757041D01*
X1245000Y1756095D01*
Y1775590D01*
D02*
G37*
G36*
X462147Y2062648D02*
Y2027961D01*
X496834D01*
X496118Y2033403D01*
X492087Y2043133D01*
X485675Y2051489D01*
X477320Y2057901D01*
X467589Y2061931D01*
X462147Y2062648D01*
D02*
G37*
G36*
X452147D02*
X446705Y2061931D01*
X436974Y2057901D01*
X428619Y2051489D01*
X422207Y2043133D01*
X418176Y2033403D01*
X417460Y2027961D01*
X452147D01*
Y2062648D01*
D02*
G37*
G36*
X1008937Y2032369D02*
Y2012873D01*
X1028432D01*
X1027486Y2017628D01*
X1021961Y2025897D01*
X1013691Y2031423D01*
X1008937Y2032369D01*
D02*
G37*
G36*
X998937D02*
X994182Y2031423D01*
X985913Y2025897D01*
X980387Y2017628D01*
X979442Y2012873D01*
X998937D01*
Y2032369D01*
D02*
G37*
G36*
X890827D02*
Y2012873D01*
X910322D01*
X909376Y2017628D01*
X903851Y2025897D01*
X895581Y2031423D01*
X890827Y2032369D01*
D02*
G37*
G36*
X880827D02*
X876072Y2031423D01*
X867803Y2025897D01*
X862277Y2017628D01*
X861331Y2012873D01*
X880827D01*
Y2032369D01*
D02*
G37*
G36*
X831771D02*
Y2012873D01*
X851267D01*
X850321Y2017628D01*
X844795Y2025897D01*
X836526Y2031423D01*
X831771Y2032369D01*
D02*
G37*
G36*
X821771D02*
X817017Y2031423D01*
X808747Y2025897D01*
X803222Y2017628D01*
X802276Y2012873D01*
X821771D01*
Y2032369D01*
D02*
G37*
G36*
X772716D02*
Y2012873D01*
X792212D01*
X791266Y2017628D01*
X785740Y2025897D01*
X777471Y2031423D01*
X772716Y2032369D01*
D02*
G37*
G36*
X762716D02*
X757962Y2031423D01*
X749692Y2025897D01*
X744167Y2017628D01*
X743221Y2012873D01*
X762716D01*
Y2032369D01*
D02*
G37*
G36*
X241220D02*
Y2012873D01*
X260716D01*
X259770Y2017628D01*
X254244Y2025897D01*
X245975Y2031423D01*
X241220Y2032369D01*
D02*
G37*
G36*
X231220D02*
X226466Y2031423D01*
X218196Y2025897D01*
X212671Y2017628D01*
X211725Y2012873D01*
X231220D01*
Y2032369D01*
D02*
G37*
G36*
X1028432Y2002873D02*
X1008937D01*
Y1983378D01*
X1013691Y1984324D01*
X1021961Y1989849D01*
X1027486Y1998119D01*
X1028432Y2002873D01*
D02*
G37*
G36*
X998937D02*
X979442D01*
X980387Y1998119D01*
X985913Y1989849D01*
X994182Y1984324D01*
X998937Y1983378D01*
Y2002873D01*
D02*
G37*
G36*
X910322D02*
X890827D01*
Y1983378D01*
X895581Y1984324D01*
X903851Y1989849D01*
X909376Y1998119D01*
X910322Y2002873D01*
D02*
G37*
G36*
X880827D02*
X861331D01*
X862277Y1998119D01*
X867803Y1989849D01*
X876072Y1984324D01*
X880827Y1983378D01*
Y2002873D01*
D02*
G37*
G36*
X851267D02*
X831771D01*
Y1983378D01*
X836526Y1984324D01*
X844795Y1989849D01*
X850321Y1998119D01*
X851267Y2002873D01*
D02*
G37*
G36*
X821771D02*
X802276D01*
X803222Y1998119D01*
X808747Y1989849D01*
X817017Y1984324D01*
X821771Y1983378D01*
Y2002873D01*
D02*
G37*
G36*
X792212D02*
X772716D01*
Y1983378D01*
X777471Y1984324D01*
X785740Y1989849D01*
X791266Y1998119D01*
X792212Y2002873D01*
D02*
G37*
G36*
X762716D02*
X743221D01*
X744167Y1998119D01*
X749692Y1989849D01*
X757962Y1984324D01*
X762716Y1983378D01*
Y2002873D01*
D02*
G37*
G36*
X260716D02*
X241220D01*
Y1983378D01*
X245975Y1984324D01*
X254244Y1989849D01*
X259770Y1998119D01*
X260716Y2002873D01*
D02*
G37*
G36*
X231220D02*
X211725D01*
X212671Y1998119D01*
X218196Y1989849D01*
X226466Y1984324D01*
X231220Y1983378D01*
Y2002873D01*
D02*
G37*
G36*
X496834Y2017961D02*
X462147D01*
Y1983274D01*
X467589Y1983990D01*
X477320Y1988021D01*
X485675Y1994432D01*
X492087Y2002788D01*
X496118Y2012518D01*
X496834Y2017961D01*
D02*
G37*
G36*
X452147D02*
X417460D01*
X418176Y2012518D01*
X422207Y2002788D01*
X428619Y1994432D01*
X436974Y1988021D01*
X446705Y1983990D01*
X452147Y1983274D01*
Y2017961D01*
D02*
G37*
G36*
X339037Y2063306D02*
X328595Y2061931D01*
X318864Y2057901D01*
X310508Y2051489D01*
X304097Y2043133D01*
X300066Y2033403D01*
X298692Y2022961D01*
X300066Y2012518D01*
X304097Y2002788D01*
X310508Y1994432D01*
X318864Y1988021D01*
X328595Y1983990D01*
X339037Y1982615D01*
X349479Y1983990D01*
X359209Y1988021D01*
X367565Y1994432D01*
X373977Y2002788D01*
X378007Y2012518D01*
X379382Y2022961D01*
X378007Y2033403D01*
X373977Y2043133D01*
X367565Y2051489D01*
X359209Y2057901D01*
X349479Y2061931D01*
X339037Y2063306D01*
D02*
G37*
G36*
X119173Y2037496D02*
Y1953819D01*
X202850D01*
X201629Y1966215D01*
X196555Y1982943D01*
X188315Y1998359D01*
X177226Y2011871D01*
X163713Y2022961D01*
X148297Y2031201D01*
X131569Y2036275D01*
X119173Y2037496D01*
D02*
G37*
G36*
X109173D02*
X96777Y2036275D01*
X80049Y2031201D01*
X64633Y2022961D01*
X51121Y2011871D01*
X40032Y1998359D01*
X31791Y1982943D01*
X26717Y1966215D01*
X25496Y1953819D01*
X109173D01*
Y2037496D01*
D02*
G37*
G36*
X1038464Y1973313D02*
Y1953818D01*
X1057959D01*
X1057014Y1958573D01*
X1051488Y1966842D01*
X1043219Y1972368D01*
X1038464Y1973313D01*
D02*
G37*
G36*
X1028464D02*
X1023710Y1972368D01*
X1015440Y1966842D01*
X1009915Y1958573D01*
X1008969Y1953818D01*
X1028464D01*
Y1973313D01*
D02*
G37*
G36*
X920354D02*
Y1953818D01*
X939849D01*
X938904Y1958573D01*
X933378Y1966842D01*
X925109Y1972368D01*
X920354Y1973313D01*
D02*
G37*
G36*
X910354D02*
X905600Y1972368D01*
X897330Y1966842D01*
X891804Y1958573D01*
X890859Y1953818D01*
X910354D01*
Y1973313D01*
D02*
G37*
G36*
X743189D02*
Y1953818D01*
X762684D01*
X761738Y1958573D01*
X756213Y1966842D01*
X747943Y1972368D01*
X743189Y1973313D01*
D02*
G37*
G36*
X566023D02*
Y1953818D01*
X585519D01*
X584573Y1958573D01*
X579047Y1966842D01*
X570778Y1972368D01*
X566023Y1973313D01*
D02*
G37*
G36*
X556023D02*
X551269Y1972368D01*
X542999Y1966842D01*
X537474Y1958573D01*
X536528Y1953818D01*
X556023D01*
Y1973313D01*
D02*
G37*
G36*
X506968D02*
Y1953818D01*
X526463D01*
X525518Y1958573D01*
X519992Y1966842D01*
X511723Y1972368D01*
X506968Y1973313D01*
D02*
G37*
G36*
X496968D02*
X492214Y1972368D01*
X483944Y1966842D01*
X478419Y1958573D01*
X477473Y1953818D01*
X496968D01*
Y1973313D01*
D02*
G37*
G36*
X447913D02*
Y1953818D01*
X467408D01*
X466463Y1958573D01*
X460937Y1966842D01*
X452668Y1972368D01*
X447913Y1973313D01*
D02*
G37*
G36*
X437913D02*
X433159Y1972368D01*
X424889Y1966842D01*
X419364Y1958573D01*
X418418Y1953818D01*
X437913D01*
Y1973313D01*
D02*
G37*
G36*
X329803D02*
Y1953818D01*
X349298D01*
X348353Y1958573D01*
X342827Y1966842D01*
X334558Y1972368D01*
X329803Y1973313D01*
D02*
G37*
G36*
X319803D02*
X315048Y1972368D01*
X306779Y1966842D01*
X301253Y1958573D01*
X300308Y1953818D01*
X319803D01*
Y1973313D01*
D02*
G37*
G36*
X1057959Y1943818D02*
X1038464D01*
Y1924323D01*
X1043219Y1925269D01*
X1051488Y1930794D01*
X1057014Y1939064D01*
X1057959Y1943818D01*
D02*
G37*
G36*
X1028464D02*
X1008969D01*
X1009915Y1939064D01*
X1015440Y1930794D01*
X1023710Y1925269D01*
X1028464Y1924323D01*
Y1943818D01*
D02*
G37*
G36*
X939849D02*
X920354D01*
Y1924323D01*
X925109Y1925269D01*
X933378Y1930794D01*
X938904Y1939064D01*
X939849Y1943818D01*
D02*
G37*
G36*
X910354D02*
X890859D01*
X891804Y1939064D01*
X897330Y1930794D01*
X905600Y1925269D01*
X910354Y1924323D01*
Y1943818D01*
D02*
G37*
G36*
X762684D02*
X743189D01*
Y1924323D01*
X747943Y1925269D01*
X756213Y1930794D01*
X761738Y1939064D01*
X762684Y1943818D01*
D02*
G37*
G36*
X585519D02*
X566023D01*
Y1924323D01*
X570778Y1925269D01*
X579047Y1930794D01*
X584573Y1939064D01*
X585519Y1943818D01*
D02*
G37*
G36*
X556023D02*
X536528D01*
X537474Y1939064D01*
X542999Y1930794D01*
X551269Y1925269D01*
X556023Y1924323D01*
Y1943818D01*
D02*
G37*
G36*
X526463D02*
X506968D01*
Y1924323D01*
X511723Y1925269D01*
X519992Y1930794D01*
X525518Y1939064D01*
X526463Y1943818D01*
D02*
G37*
G36*
X496968D02*
X477473D01*
X478419Y1939064D01*
X483944Y1930794D01*
X492214Y1925269D01*
X496968Y1924323D01*
Y1943818D01*
D02*
G37*
G36*
X349298D02*
X329803D01*
Y1924323D01*
X334558Y1925269D01*
X342827Y1930794D01*
X348353Y1939064D01*
X349298Y1943818D01*
D02*
G37*
G36*
X319803D02*
X300308D01*
X301253Y1939064D01*
X306779Y1930794D01*
X315048Y1925269D01*
X319803Y1924323D01*
Y1943818D01*
D02*
G37*
G36*
X467408D02*
X418418D01*
X419364Y1939064D01*
X424889Y1930794D01*
X426004Y1930050D01*
X423920Y1924226D01*
X423683Y1924249D01*
X409759Y1922878D01*
X396371Y1918817D01*
X384033Y1912222D01*
X373218Y1903346D01*
X364343Y1892531D01*
X357748Y1880193D01*
X353687Y1866805D01*
X352315Y1852882D01*
X353187Y1844026D01*
X347364Y1841943D01*
X342827Y1848732D01*
X334558Y1854258D01*
X329803Y1855203D01*
Y1830708D01*
Y1806213D01*
X334558Y1807159D01*
X342827Y1812684D01*
X348353Y1820954D01*
X349007Y1824245D01*
X356017Y1828728D01*
X356851Y1828527D01*
X357748Y1825571D01*
X364343Y1813232D01*
X373218Y1802418D01*
X384033Y1793542D01*
X396371Y1786947D01*
X409759Y1782886D01*
X423683Y1781515D01*
X437606Y1782886D01*
X450994Y1786947D01*
X463332Y1793542D01*
X474147Y1802418D01*
X483022Y1813232D01*
X484435Y1815876D01*
X491422Y1816219D01*
X493786Y1812681D01*
X502055Y1807156D01*
X506810Y1806210D01*
Y1830705D01*
Y1855200D01*
X502055Y1854255D01*
X501012Y1853557D01*
X494689Y1856548D01*
X493678Y1866805D01*
X489617Y1880193D01*
X483022Y1892531D01*
X474147Y1903346D01*
X463332Y1912222D01*
X450994Y1918817D01*
X450991Y1918818D01*
X451294Y1924996D01*
X452668Y1925269D01*
X460937Y1930794D01*
X466463Y1939064D01*
X467408Y1943818D01*
D02*
G37*
G36*
X858068Y1940156D02*
Y1910512D01*
X887712D01*
X887167Y1914649D01*
X883640Y1923163D01*
X878030Y1930474D01*
X870719Y1936084D01*
X862205Y1939611D01*
X858068Y1940156D01*
D02*
G37*
G36*
X848068D02*
X843931Y1939611D01*
X835417Y1936084D01*
X828106Y1930474D01*
X822495Y1923163D01*
X818969Y1914649D01*
X818424Y1910512D01*
X848068D01*
Y1940156D01*
D02*
G37*
G36*
X949882Y1914258D02*
Y1894763D01*
X969377D01*
X968431Y1899518D01*
X962906Y1907787D01*
X954636Y1913313D01*
X949882Y1914258D01*
D02*
G37*
G36*
X939882D02*
X935127Y1913313D01*
X926858Y1907787D01*
X921332Y1899518D01*
X920386Y1894763D01*
X939882D01*
Y1914258D01*
D02*
G37*
G36*
X772716D02*
Y1894763D01*
X792212D01*
X791266Y1899518D01*
X785740Y1907787D01*
X777471Y1913313D01*
X772716Y1914258D01*
D02*
G37*
G36*
X762716D02*
X757962Y1913313D01*
X749692Y1907787D01*
X744167Y1899518D01*
X743221Y1894763D01*
X762716D01*
Y1914258D01*
D02*
G37*
G36*
X300276D02*
Y1894763D01*
X319771D01*
X318825Y1899518D01*
X313300Y1907787D01*
X305030Y1913313D01*
X300276Y1914258D01*
D02*
G37*
G36*
X290276D02*
X285521Y1913313D01*
X277252Y1907787D01*
X271726Y1899518D01*
X270780Y1894763D01*
X290276D01*
Y1914258D01*
D02*
G37*
G36*
X887712Y1900512D02*
X858068D01*
Y1870868D01*
X862205Y1871413D01*
X870719Y1874939D01*
X878030Y1880550D01*
X883640Y1887861D01*
X887167Y1896375D01*
X887712Y1900512D01*
D02*
G37*
G36*
X848068D02*
X818424D01*
X818969Y1896375D01*
X822495Y1887861D01*
X828106Y1880550D01*
X835417Y1874939D01*
X843931Y1871413D01*
X848068Y1870868D01*
Y1900512D01*
D02*
G37*
G36*
X969377Y1884763D02*
X949882D01*
Y1865268D01*
X954636Y1866214D01*
X962906Y1871739D01*
X968431Y1880009D01*
X969377Y1884763D01*
D02*
G37*
G36*
X939882D02*
X920386D01*
X921332Y1880009D01*
X926858Y1871739D01*
X935127Y1866214D01*
X939882Y1865268D01*
Y1884763D01*
D02*
G37*
G36*
X792212D02*
X772716D01*
Y1865268D01*
X777471Y1866214D01*
X785740Y1871739D01*
X791266Y1880009D01*
X792212Y1884763D01*
D02*
G37*
G36*
X762716D02*
X743221D01*
X744167Y1880009D01*
X749692Y1871739D01*
X757962Y1866214D01*
X762716Y1865268D01*
Y1884763D01*
D02*
G37*
G36*
X319771D02*
X300276D01*
Y1865268D01*
X305030Y1866214D01*
X313300Y1871739D01*
X318825Y1880009D01*
X319771Y1884763D01*
D02*
G37*
G36*
X290276D02*
X270780D01*
X271726Y1880009D01*
X277252Y1871739D01*
X285521Y1866214D01*
X290276Y1865268D01*
Y1884763D01*
D02*
G37*
G36*
X202850Y1943819D02*
X119173D01*
Y1860142D01*
X131569Y1861363D01*
X148297Y1866437D01*
X163713Y1874677D01*
X177226Y1885766D01*
X188315Y1899279D01*
X196555Y1914695D01*
X201629Y1931423D01*
X202850Y1943819D01*
D02*
G37*
G36*
X109173D02*
X25496D01*
X26717Y1931423D01*
X31791Y1914695D01*
X40032Y1899279D01*
X51121Y1885766D01*
X64633Y1874677D01*
X80049Y1866437D01*
X96777Y1861363D01*
X109173Y1860142D01*
Y1943819D01*
D02*
G37*
G36*
X979409Y1855203D02*
Y1835708D01*
X998904D01*
X997959Y1840463D01*
X992433Y1848732D01*
X984164Y1854258D01*
X979409Y1855203D01*
D02*
G37*
G36*
X969409D02*
X964655Y1854258D01*
X956385Y1848732D01*
X950860Y1840463D01*
X949914Y1835708D01*
X969409D01*
Y1855203D01*
D02*
G37*
G36*
X920354D02*
Y1835708D01*
X939849D01*
X938904Y1840463D01*
X933378Y1848732D01*
X925109Y1854258D01*
X920354Y1855203D01*
D02*
G37*
G36*
X910354D02*
X905600Y1854258D01*
X897330Y1848732D01*
X891804Y1840463D01*
X890859Y1835708D01*
X910354D01*
Y1855203D01*
D02*
G37*
G36*
X861299D02*
Y1835708D01*
X880794D01*
X879848Y1840463D01*
X874323Y1848732D01*
X866053Y1854258D01*
X861299Y1855203D01*
D02*
G37*
G36*
X851299D02*
X846544Y1854258D01*
X838275Y1848732D01*
X832749Y1840463D01*
X831804Y1835708D01*
X851299D01*
Y1855203D01*
D02*
G37*
G36*
X743189D02*
Y1835708D01*
X762684D01*
X761738Y1840463D01*
X756213Y1848732D01*
X747943Y1854258D01*
X743189Y1855203D01*
D02*
G37*
G36*
X319803D02*
X315048Y1854258D01*
X306779Y1848732D01*
X301253Y1840463D01*
X300308Y1835708D01*
X319803D01*
Y1855203D01*
D02*
G37*
G36*
X270748D02*
Y1835708D01*
X290243D01*
X289297Y1840463D01*
X283772Y1848732D01*
X275502Y1854258D01*
X270748Y1855203D01*
D02*
G37*
G36*
X260748D02*
X255993Y1854258D01*
X247724Y1848732D01*
X242198Y1840463D01*
X241253Y1835708D01*
X260748D01*
Y1855203D01*
D02*
G37*
G36*
X211693D02*
Y1835708D01*
X231188D01*
X230242Y1840463D01*
X224717Y1848732D01*
X216447Y1854258D01*
X211693Y1855203D01*
D02*
G37*
G36*
X201693D02*
X196938Y1854258D01*
X188669Y1848732D01*
X183143Y1840463D01*
X182198Y1835708D01*
X201693D01*
Y1855203D01*
D02*
G37*
G36*
X93583D02*
Y1835708D01*
X113078D01*
X112132Y1840463D01*
X106607Y1848732D01*
X98337Y1854258D01*
X93583Y1855203D01*
D02*
G37*
G36*
X83583D02*
X78828Y1854258D01*
X70559Y1848732D01*
X65033Y1840463D01*
X64087Y1835708D01*
X83583D01*
Y1855203D01*
D02*
G37*
G36*
X998904Y1825708D02*
X979409D01*
Y1806213D01*
X984164Y1807159D01*
X992433Y1812684D01*
X997959Y1820954D01*
X998904Y1825708D01*
D02*
G37*
G36*
X969409D02*
X949914D01*
X950860Y1820954D01*
X956385Y1812684D01*
X964655Y1807159D01*
X969409Y1806213D01*
Y1825708D01*
D02*
G37*
G36*
X939849D02*
X920354D01*
Y1806213D01*
X925109Y1807159D01*
X933378Y1812684D01*
X938904Y1820954D01*
X939849Y1825708D01*
D02*
G37*
G36*
X910354D02*
X890859D01*
X891804Y1820954D01*
X897330Y1812684D01*
X905600Y1807159D01*
X910354Y1806213D01*
Y1825708D01*
D02*
G37*
G36*
X880794D02*
X861299D01*
Y1806213D01*
X866053Y1807159D01*
X874323Y1812684D01*
X879848Y1820954D01*
X880794Y1825708D01*
D02*
G37*
G36*
X851299D02*
X831804D01*
X832749Y1820954D01*
X838275Y1812684D01*
X846544Y1807159D01*
X851299Y1806213D01*
Y1825708D01*
D02*
G37*
G36*
X762684D02*
X743189D01*
Y1806213D01*
X747943Y1807159D01*
X756213Y1812684D01*
X761738Y1820954D01*
X762684Y1825708D01*
D02*
G37*
G36*
X319803D02*
X300308D01*
X301253Y1820954D01*
X306779Y1812684D01*
X315048Y1807159D01*
X319803Y1806213D01*
Y1825708D01*
D02*
G37*
G36*
X290243D02*
X270748D01*
Y1806213D01*
X275502Y1807159D01*
X283772Y1812684D01*
X289297Y1820954D01*
X290243Y1825708D01*
D02*
G37*
G36*
X260748D02*
X241253D01*
X242198Y1820954D01*
X247724Y1812684D01*
X255993Y1807159D01*
X260748Y1806213D01*
Y1825708D01*
D02*
G37*
G36*
X231188D02*
X211693D01*
Y1806213D01*
X216447Y1807159D01*
X224717Y1812684D01*
X230242Y1820954D01*
X231188Y1825708D01*
D02*
G37*
G36*
X201693D02*
X182198D01*
X183143Y1820954D01*
X188669Y1812684D01*
X196938Y1807159D01*
X201693Y1806213D01*
Y1825708D01*
D02*
G37*
G36*
X113078D02*
X93583D01*
Y1806213D01*
X98337Y1807159D01*
X106607Y1812684D01*
X112132Y1820954D01*
X113078Y1825708D01*
D02*
G37*
G36*
X83583D02*
X64087D01*
X65033Y1820954D01*
X70559Y1812684D01*
X78828Y1807159D01*
X83583Y1806213D01*
Y1825708D01*
D02*
G37*
G36*
X890827Y1796148D02*
Y1776653D01*
X910322D01*
X909376Y1781408D01*
X903851Y1789677D01*
X895581Y1795203D01*
X890827Y1796148D01*
D02*
G37*
G36*
X880827D02*
X876072Y1795203D01*
X867803Y1789677D01*
X862277Y1781408D01*
X861331Y1776653D01*
X880827D01*
Y1796148D01*
D02*
G37*
G36*
X772716D02*
Y1776653D01*
X792212D01*
X791266Y1781408D01*
X785740Y1789677D01*
X777471Y1795203D01*
X772716Y1796148D01*
D02*
G37*
G36*
X762716D02*
X757962Y1795203D01*
X749692Y1789677D01*
X744167Y1781408D01*
X743221Y1776653D01*
X762716D01*
Y1796148D01*
D02*
G37*
G36*
X536496D02*
Y1776653D01*
X555991D01*
X555045Y1781408D01*
X549520Y1789677D01*
X541250Y1795203D01*
X536496Y1796148D01*
D02*
G37*
G36*
X359331D02*
Y1776653D01*
X378826D01*
X377880Y1781408D01*
X372355Y1789677D01*
X364085Y1795203D01*
X359331Y1796148D01*
D02*
G37*
G36*
X349331D02*
X344576Y1795203D01*
X336307Y1789677D01*
X330781Y1781408D01*
X329835Y1776653D01*
X349331D01*
Y1796148D01*
D02*
G37*
G36*
X64055D02*
Y1776653D01*
X83550D01*
X82605Y1781408D01*
X77079Y1789677D01*
X68810Y1795203D01*
X64055Y1796148D01*
D02*
G37*
G36*
X54055D02*
X49301Y1795203D01*
X41031Y1789677D01*
X35506Y1781408D01*
X34560Y1776653D01*
X54055D01*
Y1796148D01*
D02*
G37*
G36*
X526496D02*
X521741Y1795203D01*
X513472Y1789677D01*
X507946Y1781408D01*
X507704Y1780188D01*
X501360Y1776185D01*
X499961Y1776464D01*
Y1751968D01*
Y1727473D01*
X504715Y1728419D01*
X512985Y1733945D01*
X518510Y1742214D01*
X518753Y1743434D01*
X525096Y1747436D01*
X526496Y1747158D01*
Y1771653D01*
Y1796148D01*
D02*
G37*
G36*
X489961Y1776464D02*
X485206Y1775518D01*
X476937Y1769993D01*
X471411Y1761723D01*
X470466Y1756968D01*
X489961D01*
Y1776464D01*
D02*
G37*
G36*
X272743D02*
Y1756968D01*
X292239D01*
X291293Y1761723D01*
X285767Y1769993D01*
X277498Y1775518D01*
X272743Y1776464D01*
D02*
G37*
G36*
X262743D02*
X257989Y1775518D01*
X249720Y1769993D01*
X244194Y1761723D01*
X243248Y1756968D01*
X262743D01*
Y1776464D01*
D02*
G37*
G36*
X910322Y1766653D02*
X890827D01*
Y1747158D01*
X895581Y1748103D01*
X903851Y1753629D01*
X909376Y1761899D01*
X910322Y1766653D01*
D02*
G37*
G36*
X880827D02*
X861331D01*
X862277Y1761899D01*
X867803Y1753629D01*
X876072Y1748103D01*
X880827Y1747158D01*
Y1766653D01*
D02*
G37*
G36*
X792212D02*
X772716D01*
Y1747158D01*
X777471Y1748103D01*
X785740Y1753629D01*
X791266Y1761899D01*
X792212Y1766653D01*
D02*
G37*
G36*
X762716D02*
X743221D01*
X744167Y1761899D01*
X749692Y1753629D01*
X757962Y1748103D01*
X762716Y1747158D01*
Y1766653D01*
D02*
G37*
G36*
X555991D02*
X536496D01*
Y1747158D01*
X541250Y1748103D01*
X549520Y1753629D01*
X555045Y1761899D01*
X555991Y1766653D01*
D02*
G37*
G36*
X378826D02*
X359331D01*
Y1747158D01*
X364085Y1748103D01*
X372355Y1753629D01*
X377880Y1761899D01*
X378826Y1766653D01*
D02*
G37*
G36*
X349331D02*
X329835D01*
X330781Y1761899D01*
X336307Y1753629D01*
X344576Y1748103D01*
X349331Y1747158D01*
Y1766653D01*
D02*
G37*
G36*
X83550D02*
X64055D01*
Y1747158D01*
X68810Y1748103D01*
X77079Y1753629D01*
X82605Y1761899D01*
X83550Y1766653D01*
D02*
G37*
G36*
X54055D02*
X34560D01*
X35506Y1761899D01*
X41031Y1753629D01*
X49301Y1748103D01*
X54055Y1747158D01*
Y1766653D01*
D02*
G37*
G36*
X489961Y1746968D02*
X470466D01*
X471411Y1742214D01*
X476937Y1733945D01*
X485206Y1728419D01*
X489961Y1727473D01*
Y1746968D01*
D02*
G37*
G36*
X292239D02*
X272743D01*
Y1727473D01*
X277498Y1728419D01*
X285767Y1733945D01*
X291293Y1742214D01*
X292239Y1746968D01*
D02*
G37*
G36*
X262743D02*
X243248D01*
X244194Y1742214D01*
X249720Y1733945D01*
X257989Y1728419D01*
X262743Y1727473D01*
Y1746968D01*
D02*
G37*
G36*
X851299Y1737093D02*
X846544Y1736147D01*
X838275Y1730622D01*
X832749Y1722352D01*
X831804Y1717598D01*
X851299D01*
Y1737093D01*
D02*
G37*
G36*
X802244D02*
Y1717598D01*
X821739D01*
X820793Y1722352D01*
X815268Y1730622D01*
X806998Y1736147D01*
X802244Y1737093D01*
D02*
G37*
G36*
X792244D02*
X787489Y1736147D01*
X779220Y1730622D01*
X773694Y1722352D01*
X772749Y1717598D01*
X792244D01*
Y1737093D01*
D02*
G37*
G36*
X743189D02*
Y1717598D01*
X762684D01*
X761738Y1722352D01*
X756213Y1730622D01*
X747943Y1736147D01*
X743189Y1737093D01*
D02*
G37*
G36*
X615078D02*
X610324Y1736147D01*
X602054Y1730622D01*
X596529Y1722352D01*
X595583Y1717598D01*
X615078D01*
Y1737093D01*
D02*
G37*
G36*
X566023D02*
Y1717598D01*
X585519D01*
X584573Y1722352D01*
X579047Y1730622D01*
X570778Y1736147D01*
X566023Y1737093D01*
D02*
G37*
G36*
X556023D02*
X551269Y1736147D01*
X542999Y1730622D01*
X537474Y1722352D01*
X536528Y1717598D01*
X556023D01*
Y1737093D01*
D02*
G37*
G36*
X447913D02*
Y1717598D01*
X467408D01*
X466463Y1722352D01*
X460937Y1730622D01*
X452668Y1736147D01*
X447913Y1737093D01*
D02*
G37*
G36*
X437913D02*
X433159Y1736147D01*
X424889Y1730622D01*
X419364Y1722352D01*
X418418Y1717598D01*
X437913D01*
Y1737093D01*
D02*
G37*
G36*
X388858D02*
Y1717598D01*
X408353D01*
X407408Y1722352D01*
X401882Y1730622D01*
X393613Y1736147D01*
X388858Y1737093D01*
D02*
G37*
G36*
X378858D02*
X374104Y1736147D01*
X365834Y1730622D01*
X360309Y1722352D01*
X359363Y1717598D01*
X378858D01*
Y1737093D01*
D02*
G37*
G36*
X329803D02*
Y1717598D01*
X349298D01*
X348353Y1722352D01*
X342827Y1730622D01*
X334558Y1736147D01*
X329803Y1737093D01*
D02*
G37*
G36*
X319803D02*
X315048Y1736147D01*
X306779Y1730622D01*
X301253Y1722352D01*
X300308Y1717598D01*
X319803D01*
Y1737093D01*
D02*
G37*
G36*
X211693D02*
Y1717598D01*
X231188D01*
X230242Y1722352D01*
X224717Y1730622D01*
X216447Y1736147D01*
X211693Y1737093D01*
D02*
G37*
G36*
X83583D02*
X78828Y1736147D01*
X70559Y1730622D01*
X65033Y1722352D01*
X64087Y1717598D01*
X83583D01*
Y1737093D01*
D02*
G37*
G36*
X201693D02*
X196938Y1736147D01*
X188669Y1730622D01*
X183143Y1722352D01*
X181430Y1713740D01*
X113845D01*
X112132Y1722352D01*
X106607Y1730622D01*
X98337Y1736147D01*
X93583Y1737093D01*
Y1712598D01*
Y1688103D01*
X98337Y1689048D01*
X100761Y1690668D01*
X106053Y1687840D01*
Y1634685D01*
X185108D01*
Y1689925D01*
X191108Y1692944D01*
X196938Y1689048D01*
X201693Y1688103D01*
Y1712598D01*
Y1737093D01*
D02*
G37*
G36*
X851299Y1707598D02*
X831804D01*
X832749Y1702843D01*
X838275Y1694574D01*
X846544Y1689048D01*
X851299Y1688103D01*
Y1707598D01*
D02*
G37*
G36*
X821739D02*
X802244D01*
Y1688103D01*
X806998Y1689048D01*
X815268Y1694574D01*
X820793Y1702843D01*
X821739Y1707598D01*
D02*
G37*
G36*
X792244D02*
X772749D01*
X773694Y1702843D01*
X779220Y1694574D01*
X787489Y1689048D01*
X792244Y1688103D01*
Y1707598D01*
D02*
G37*
G36*
X467408D02*
X447913D01*
Y1688103D01*
X452668Y1689048D01*
X460937Y1694574D01*
X466463Y1702843D01*
X467408Y1707598D01*
D02*
G37*
G36*
X437913D02*
X418418D01*
X419364Y1702843D01*
X424889Y1694574D01*
X433159Y1689048D01*
X437913Y1688103D01*
Y1707598D01*
D02*
G37*
G36*
X408353D02*
X388858D01*
Y1688103D01*
X393613Y1689048D01*
X401882Y1694574D01*
X407408Y1702843D01*
X408353Y1707598D01*
D02*
G37*
G36*
X378858D02*
X359363D01*
X360309Y1702843D01*
X365834Y1694574D01*
X374104Y1689048D01*
X378858Y1688103D01*
Y1707598D01*
D02*
G37*
G36*
X349298D02*
X329803D01*
Y1688103D01*
X334558Y1689048D01*
X342827Y1694574D01*
X348353Y1702843D01*
X349298Y1707598D01*
D02*
G37*
G36*
X319803D02*
X300308D01*
X301253Y1702843D01*
X306779Y1694574D01*
X315048Y1689048D01*
X319803Y1688103D01*
Y1707598D01*
D02*
G37*
G36*
X231188D02*
X211693D01*
Y1688103D01*
X216447Y1689048D01*
X224717Y1694574D01*
X230242Y1702843D01*
X231188Y1707598D01*
D02*
G37*
G36*
X83583D02*
X64087D01*
X65033Y1702843D01*
X70559Y1694574D01*
X78828Y1689048D01*
X83583Y1688103D01*
Y1707598D01*
D02*
G37*
G36*
X408386Y1678038D02*
X403631Y1677092D01*
X395362Y1671567D01*
X389836Y1663297D01*
X388890Y1658543D01*
X408386D01*
Y1678038D01*
D02*
G37*
G36*
X39476Y1651156D02*
Y1631661D01*
X58971D01*
X58025Y1636416D01*
X52500Y1644685D01*
X44230Y1650211D01*
X39476Y1651156D01*
D02*
G37*
G36*
X58971Y1621661D02*
X39476D01*
Y1602166D01*
X44230Y1603112D01*
X52500Y1608637D01*
X58025Y1616907D01*
X58971Y1621661D01*
D02*
G37*
G36*
X1156417Y1746030D02*
X1151662Y1745084D01*
X1143393Y1739559D01*
X1137868Y1731290D01*
X1136922Y1726535D01*
X1156417D01*
Y1746030D01*
D02*
G37*
G36*
X1245000Y1568865D02*
X1240245Y1567919D01*
X1231976Y1562394D01*
X1226450Y1554124D01*
X1225504Y1549370D01*
X1245000D01*
Y1568865D01*
D02*
G37*
G36*
Y1539370D02*
X1225504D01*
X1226450Y1534615D01*
X1231976Y1526346D01*
X1240245Y1520820D01*
X1245000Y1519874D01*
Y1539370D01*
D02*
G37*
G36*
X1225472Y1509810D02*
Y1490315D01*
X1244967D01*
X1244022Y1495069D01*
X1238496Y1503339D01*
X1230227Y1508864D01*
X1225472Y1509810D01*
D02*
G37*
G36*
X1244967Y1480315D02*
X1225472D01*
Y1460819D01*
X1230227Y1461765D01*
X1238496Y1467291D01*
X1244022Y1475560D01*
X1244967Y1480315D01*
D02*
G37*
G36*
X1245000Y1450755D02*
X1240245Y1449809D01*
X1231976Y1444284D01*
X1226450Y1436014D01*
X1225504Y1431259D01*
X1245000D01*
Y1450755D01*
D02*
G37*
G36*
Y1421259D02*
X1225504D01*
X1226450Y1416505D01*
X1231976Y1408236D01*
X1240245Y1402710D01*
X1245000Y1401764D01*
Y1421259D01*
D02*
G37*
G36*
X1244967Y1362204D02*
X1225472D01*
Y1342709D01*
X1230227Y1343655D01*
X1238496Y1349180D01*
X1244022Y1357450D01*
X1244967Y1362204D01*
D02*
G37*
G36*
X1245000Y1332645D02*
X1240245Y1331699D01*
X1231976Y1326173D01*
X1226450Y1317904D01*
X1225504Y1313149D01*
X1245000D01*
Y1332645D01*
D02*
G37*
G36*
Y1303149D02*
X1225504D01*
X1226450Y1298395D01*
X1231976Y1290125D01*
X1240245Y1284600D01*
X1245000Y1283654D01*
Y1303149D01*
D02*
G37*
G36*
X1225472Y1273589D02*
Y1254094D01*
X1244967D01*
X1244022Y1258849D01*
X1238496Y1267118D01*
X1230227Y1272644D01*
X1225472Y1273589D01*
D02*
G37*
G36*
X1244967Y1244094D02*
X1225472D01*
Y1224599D01*
X1230227Y1225545D01*
X1238496Y1231070D01*
X1244022Y1239340D01*
X1244967Y1244094D01*
D02*
G37*
G36*
X1245000Y1214534D02*
X1240245Y1213589D01*
X1231976Y1208063D01*
X1226450Y1199794D01*
X1225504Y1195039D01*
X1245000D01*
Y1214534D01*
D02*
G37*
G36*
Y1185039D02*
X1225504D01*
X1226450Y1180285D01*
X1231976Y1172015D01*
X1240245Y1166490D01*
X1245000Y1165544D01*
Y1185039D01*
D02*
G37*
G36*
X1225472Y1155479D02*
Y1135984D01*
X1244967D01*
X1244022Y1140738D01*
X1238496Y1149008D01*
X1230227Y1154534D01*
X1225472Y1155479D01*
D02*
G37*
G36*
X1215472D02*
X1210718Y1154534D01*
X1202448Y1149008D01*
X1196923Y1140738D01*
X1195977Y1135984D01*
X1215472D01*
Y1155479D01*
D02*
G37*
G36*
X44370D02*
Y1135984D01*
X63865D01*
X62920Y1140738D01*
X57394Y1149008D01*
X49125Y1154534D01*
X44370Y1155479D01*
D02*
G37*
G36*
X1244967Y1125984D02*
X1225472D01*
Y1106489D01*
X1230227Y1107435D01*
X1238496Y1112960D01*
X1244022Y1121229D01*
X1244967Y1125984D01*
D02*
G37*
G36*
X1215472D02*
X1195977D01*
X1196923Y1121229D01*
X1202448Y1112960D01*
X1210718Y1107435D01*
X1215472Y1106489D01*
Y1125984D01*
D02*
G37*
G36*
X1185912D02*
X1166417D01*
Y1106489D01*
X1171171Y1107435D01*
X1179441Y1112960D01*
X1184966Y1121229D01*
X1185912Y1125984D01*
D02*
G37*
G36*
X63865D02*
X44370D01*
Y1106489D01*
X49125Y1107435D01*
X57394Y1112960D01*
X62920Y1121229D01*
X63865Y1125984D01*
D02*
G37*
G36*
X1245000Y1096424D02*
X1240245Y1095478D01*
X1231976Y1089953D01*
X1226450Y1081683D01*
X1225504Y1076929D01*
X1245000D01*
Y1096424D01*
D02*
G37*
G36*
X1195945D02*
Y1076929D01*
X1215440D01*
X1214494Y1081683D01*
X1208968Y1089953D01*
X1200699Y1095478D01*
X1195945Y1096424D01*
D02*
G37*
G36*
X1185945D02*
X1181190Y1095478D01*
X1172920Y1089953D01*
X1167395Y1081683D01*
X1166449Y1076929D01*
X1185945D01*
Y1096424D01*
D02*
G37*
G36*
X1136889D02*
Y1076929D01*
X1156385D01*
X1155439Y1081683D01*
X1149913Y1089953D01*
X1141644Y1095478D01*
X1136889Y1096424D01*
D02*
G37*
G36*
X1126889D02*
X1122135Y1095478D01*
X1113865Y1089953D01*
X1108340Y1081683D01*
X1107394Y1076929D01*
X1126889D01*
Y1096424D01*
D02*
G37*
G36*
X73898D02*
Y1076929D01*
X93393D01*
X92447Y1081683D01*
X86922Y1089953D01*
X78652Y1095478D01*
X73898Y1096424D01*
D02*
G37*
G36*
X63898D02*
X59143Y1095478D01*
X50874Y1089953D01*
X45348Y1081683D01*
X44402Y1076929D01*
X63898D01*
Y1096424D01*
D02*
G37*
G36*
X1245000Y1066929D02*
X1225504D01*
X1226450Y1062174D01*
X1231976Y1053905D01*
X1240245Y1048379D01*
X1245000Y1047434D01*
Y1066929D01*
D02*
G37*
G36*
X1215440D02*
X1195945D01*
Y1047434D01*
X1200699Y1048379D01*
X1208968Y1053905D01*
X1214494Y1062174D01*
X1215440Y1066929D01*
D02*
G37*
G36*
X1185945D02*
X1166449D01*
X1167395Y1062174D01*
X1172920Y1053905D01*
X1181190Y1048379D01*
X1185945Y1047434D01*
Y1066929D01*
D02*
G37*
G36*
X1156385D02*
X1136889D01*
Y1047434D01*
X1141644Y1048379D01*
X1149913Y1053905D01*
X1155439Y1062174D01*
X1156385Y1066929D01*
D02*
G37*
G36*
X1126889D02*
X1107394D01*
X1108340Y1062174D01*
X1113865Y1053905D01*
X1122135Y1048379D01*
X1126889Y1047434D01*
Y1066929D01*
D02*
G37*
G36*
X93393D02*
X73898D01*
Y1047434D01*
X78652Y1048379D01*
X86922Y1053905D01*
X92447Y1062174D01*
X93393Y1066929D01*
D02*
G37*
G36*
X63898D02*
X44402D01*
X45348Y1062174D01*
X50874Y1053905D01*
X59143Y1048379D01*
X63898Y1047434D01*
Y1066929D01*
D02*
G37*
G36*
X1225472Y1037369D02*
Y1017874D01*
X1244967D01*
X1244022Y1022628D01*
X1238496Y1030898D01*
X1230227Y1036423D01*
X1225472Y1037369D01*
D02*
G37*
G36*
X1215472D02*
X1210718Y1036423D01*
X1202448Y1030898D01*
X1196923Y1022628D01*
X1195977Y1017874D01*
X1215472D01*
Y1037369D01*
D02*
G37*
G36*
X1166417D02*
Y1017874D01*
X1185912D01*
X1184966Y1022628D01*
X1179441Y1030898D01*
X1171171Y1036423D01*
X1166417Y1037369D01*
D02*
G37*
G36*
X1156417D02*
X1151662Y1036423D01*
X1143393Y1030898D01*
X1137868Y1022628D01*
X1136922Y1017874D01*
X1156417D01*
Y1037369D01*
D02*
G37*
G36*
X162480D02*
Y1017874D01*
X181976D01*
X181030Y1022628D01*
X175504Y1030898D01*
X167235Y1036423D01*
X162480Y1037369D01*
D02*
G37*
G36*
X152480D02*
X147726Y1036423D01*
X139456Y1030898D01*
X133931Y1022628D01*
X132985Y1017874D01*
X152480D01*
Y1037369D01*
D02*
G37*
G36*
X103425D02*
Y1017874D01*
X122920D01*
X121975Y1022628D01*
X116449Y1030898D01*
X108180Y1036423D01*
X103425Y1037369D01*
D02*
G37*
G36*
X93425D02*
X88671Y1036423D01*
X80401Y1030898D01*
X74876Y1022628D01*
X73930Y1017874D01*
X93425D01*
Y1037369D01*
D02*
G37*
G36*
X44370D02*
Y1017874D01*
X63865D01*
X62920Y1022628D01*
X57394Y1030898D01*
X49125Y1036423D01*
X44370Y1037369D01*
D02*
G37*
G36*
X1244967Y1007874D02*
X1225472D01*
Y988379D01*
X1230227Y989324D01*
X1238496Y994850D01*
X1244022Y1003119D01*
X1244967Y1007874D01*
D02*
G37*
G36*
X1215472D02*
X1195977D01*
X1196923Y1003119D01*
X1202448Y994850D01*
X1210718Y989324D01*
X1215472Y988379D01*
Y1007874D01*
D02*
G37*
G36*
X1185912D02*
X1166417D01*
Y988379D01*
X1171171Y989324D01*
X1179441Y994850D01*
X1184966Y1003119D01*
X1185912Y1007874D01*
D02*
G37*
G36*
X1156417D02*
X1136922D01*
X1137868Y1003119D01*
X1143393Y994850D01*
X1151662Y989324D01*
X1156417Y988379D01*
Y1007874D01*
D02*
G37*
G36*
X181976D02*
X162480D01*
Y988379D01*
X167235Y989324D01*
X175504Y994850D01*
X181030Y1003119D01*
X181976Y1007874D01*
D02*
G37*
G36*
X152480D02*
X132985D01*
X133931Y1003119D01*
X139456Y994850D01*
X147726Y989324D01*
X152480Y988379D01*
Y1007874D01*
D02*
G37*
G36*
X122920D02*
X103425D01*
Y988379D01*
X108180Y989324D01*
X116449Y994850D01*
X121975Y1003119D01*
X122920Y1007874D01*
D02*
G37*
G36*
X93425D02*
X73930D01*
X74876Y1003119D01*
X80401Y994850D01*
X88671Y989324D01*
X93425Y988379D01*
Y1007874D01*
D02*
G37*
G36*
X63865D02*
X44370D01*
Y988379D01*
X49125Y989324D01*
X57394Y994850D01*
X62920Y1003119D01*
X63865Y1007874D01*
D02*
G37*
G36*
X1245000Y978314D02*
X1240245Y977368D01*
X1231976Y971843D01*
X1226450Y963573D01*
X1225504Y958819D01*
X1245000D01*
Y978314D01*
D02*
G37*
G36*
X1195945D02*
Y958819D01*
X1215440D01*
X1214494Y963573D01*
X1208968Y971843D01*
X1200699Y977368D01*
X1195945Y978314D01*
D02*
G37*
G36*
X1185945D02*
X1181190Y977368D01*
X1172920Y971843D01*
X1167395Y963573D01*
X1166449Y958819D01*
X1185945D01*
Y978314D01*
D02*
G37*
G36*
X1136889D02*
Y958819D01*
X1156385D01*
X1155439Y963573D01*
X1149913Y971843D01*
X1141644Y977368D01*
X1136889Y978314D01*
D02*
G37*
G36*
X1126889D02*
X1122135Y977368D01*
X1113865Y971843D01*
X1108340Y963573D01*
X1107394Y958819D01*
X1126889D01*
Y978314D01*
D02*
G37*
G36*
X192008D02*
Y958819D01*
X211503D01*
X210557Y963573D01*
X205032Y971843D01*
X196762Y977368D01*
X192008Y978314D01*
D02*
G37*
G36*
X182008D02*
X177253Y977368D01*
X168984Y971843D01*
X163458Y963573D01*
X162513Y958819D01*
X182008D01*
Y978314D01*
D02*
G37*
G36*
X132953D02*
Y958819D01*
X152448D01*
X151502Y963573D01*
X145977Y971843D01*
X137707Y977368D01*
X132953Y978314D01*
D02*
G37*
G36*
X122953D02*
X118198Y977368D01*
X109929Y971843D01*
X104403Y963573D01*
X103457Y958819D01*
X122953D01*
Y978314D01*
D02*
G37*
G36*
X73898D02*
Y958819D01*
X93393D01*
X92447Y963573D01*
X86922Y971843D01*
X78652Y977368D01*
X73898Y978314D01*
D02*
G37*
G36*
X63898D02*
X59143Y977368D01*
X50874Y971843D01*
X45348Y963573D01*
X44402Y958819D01*
X63898D01*
Y978314D01*
D02*
G37*
G36*
X1245000Y948819D02*
X1225504D01*
X1226450Y944064D01*
X1231976Y935795D01*
X1240245Y930269D01*
X1245000Y929323D01*
Y948819D01*
D02*
G37*
G36*
X1215440D02*
X1195945D01*
Y929323D01*
X1200699Y930269D01*
X1208968Y935795D01*
X1214494Y944064D01*
X1215440Y948819D01*
D02*
G37*
G36*
X1185945D02*
X1166449D01*
X1167395Y944064D01*
X1172920Y935795D01*
X1181190Y930269D01*
X1185945Y929323D01*
Y948819D01*
D02*
G37*
G36*
X1156385D02*
X1136889D01*
Y929323D01*
X1141644Y930269D01*
X1149913Y935795D01*
X1155439Y944064D01*
X1156385Y948819D01*
D02*
G37*
G36*
X1126889D02*
X1107394D01*
X1108340Y944064D01*
X1113865Y935795D01*
X1122135Y930269D01*
X1126889Y929323D01*
Y948819D01*
D02*
G37*
G36*
X211503D02*
X192008D01*
Y929323D01*
X196762Y930269D01*
X205032Y935795D01*
X210557Y944064D01*
X211503Y948819D01*
D02*
G37*
G36*
X182008D02*
X162513D01*
X163458Y944064D01*
X168984Y935795D01*
X177253Y930269D01*
X182008Y929323D01*
Y948819D01*
D02*
G37*
G36*
X152448D02*
X132953D01*
Y929323D01*
X137707Y930269D01*
X145977Y935795D01*
X151502Y944064D01*
X152448Y948819D01*
D02*
G37*
G36*
X122953D02*
X103457D01*
X104403Y944064D01*
X109929Y935795D01*
X118198Y930269D01*
X122953Y929323D01*
Y948819D01*
D02*
G37*
G36*
X93393D02*
X73898D01*
Y929323D01*
X78652Y930269D01*
X86922Y935795D01*
X92447Y944064D01*
X93393Y948819D01*
D02*
G37*
G36*
X63898D02*
X44402D01*
X45348Y944064D01*
X50874Y935795D01*
X59143Y930269D01*
X63898Y929323D01*
Y948819D01*
D02*
G37*
G36*
X327030Y932992D02*
X302345D01*
Y910276D01*
X327030D01*
Y932992D01*
D02*
G37*
G36*
X363378D02*
X338693D01*
Y910276D01*
X363378D01*
Y932992D01*
D02*
G37*
G36*
X1225472Y919259D02*
Y899764D01*
X1244967D01*
X1244022Y904518D01*
X1238496Y912788D01*
X1230227Y918313D01*
X1225472Y919259D01*
D02*
G37*
G36*
X1215472D02*
X1210718Y918313D01*
X1202448Y912788D01*
X1196923Y904518D01*
X1195977Y899764D01*
X1215472D01*
Y919259D01*
D02*
G37*
G36*
X1166417D02*
Y899764D01*
X1185912D01*
X1184966Y904518D01*
X1179441Y912788D01*
X1171171Y918313D01*
X1166417Y919259D01*
D02*
G37*
G36*
X1156417D02*
X1151662Y918313D01*
X1143393Y912788D01*
X1137868Y904518D01*
X1136922Y899764D01*
X1156417D01*
Y919259D01*
D02*
G37*
G36*
X162480D02*
Y899764D01*
X181976D01*
X181030Y904518D01*
X175504Y912788D01*
X167235Y918313D01*
X162480Y919259D01*
D02*
G37*
G36*
X152480D02*
X147726Y918313D01*
X139456Y912788D01*
X133931Y904518D01*
X132985Y899764D01*
X152480D01*
Y919259D01*
D02*
G37*
G36*
X103425D02*
Y899764D01*
X122920D01*
X121975Y904518D01*
X116449Y912788D01*
X108180Y918313D01*
X103425Y919259D01*
D02*
G37*
G36*
X93425D02*
X88671Y918313D01*
X80401Y912788D01*
X74876Y904518D01*
X73930Y899764D01*
X93425D01*
Y919259D01*
D02*
G37*
G36*
X44370D02*
Y899764D01*
X63865D01*
X62920Y904518D01*
X57394Y912788D01*
X49125Y918313D01*
X44370Y919259D01*
D02*
G37*
G36*
X1244967Y889764D02*
X1225472D01*
Y870268D01*
X1230227Y871214D01*
X1238496Y876740D01*
X1244022Y885009D01*
X1244967Y889764D01*
D02*
G37*
G36*
X1215472D02*
X1195977D01*
X1196923Y885009D01*
X1202448Y876740D01*
X1210718Y871214D01*
X1215472Y870268D01*
Y889764D01*
D02*
G37*
G36*
X1185912D02*
X1166417D01*
Y870268D01*
X1171171Y871214D01*
X1179441Y876740D01*
X1184966Y885009D01*
X1185912Y889764D01*
D02*
G37*
G36*
X1156417D02*
X1136922D01*
X1137868Y885009D01*
X1143393Y876740D01*
X1151662Y871214D01*
X1156417Y870268D01*
Y889764D01*
D02*
G37*
G36*
X181976D02*
X162480D01*
Y870268D01*
X167235Y871214D01*
X175504Y876740D01*
X181030Y885009D01*
X181976Y889764D01*
D02*
G37*
G36*
X152480D02*
X132985D01*
X133931Y885009D01*
X139456Y876740D01*
X147726Y871214D01*
X152480Y870268D01*
Y889764D01*
D02*
G37*
G36*
X122920D02*
X103425D01*
Y870268D01*
X108180Y871214D01*
X116449Y876740D01*
X121975Y885009D01*
X122920Y889764D01*
D02*
G37*
G36*
X93425D02*
X73930D01*
X74876Y885009D01*
X80401Y876740D01*
X88671Y871214D01*
X93425Y870268D01*
Y889764D01*
D02*
G37*
G36*
X63865D02*
X44370D01*
Y870268D01*
X49125Y871214D01*
X57394Y876740D01*
X62920Y885009D01*
X63865Y889764D01*
D02*
G37*
G36*
X1245000Y860204D02*
X1240245Y859258D01*
X1231976Y853732D01*
X1226450Y845463D01*
X1225504Y840708D01*
X1245000D01*
Y860204D01*
D02*
G37*
G36*
X1195945D02*
Y840708D01*
X1215440D01*
X1214494Y845463D01*
X1208968Y853732D01*
X1200699Y859258D01*
X1195945Y860204D01*
D02*
G37*
G36*
X1185945D02*
X1181190Y859258D01*
X1172920Y853732D01*
X1167395Y845463D01*
X1166449Y840708D01*
X1185945D01*
Y860204D01*
D02*
G37*
G36*
X1136889D02*
Y840708D01*
X1156385D01*
X1155439Y845463D01*
X1149913Y853732D01*
X1141644Y859258D01*
X1136889Y860204D01*
D02*
G37*
G36*
X1126889D02*
X1122135Y859258D01*
X1113865Y853732D01*
X1108340Y845463D01*
X1107394Y840708D01*
X1126889D01*
Y860204D01*
D02*
G37*
G36*
X132953D02*
Y840708D01*
X152448D01*
X151502Y845463D01*
X145977Y853732D01*
X137707Y859258D01*
X132953Y860204D01*
D02*
G37*
G36*
X122953D02*
X118198Y859258D01*
X109929Y853732D01*
X104403Y845463D01*
X103457Y840708D01*
X122953D01*
Y860204D01*
D02*
G37*
G36*
X73898D02*
Y840708D01*
X93393D01*
X92447Y845463D01*
X86922Y853732D01*
X78652Y859258D01*
X73898Y860204D01*
D02*
G37*
G36*
X63898D02*
X59143Y859258D01*
X50874Y853732D01*
X45348Y845463D01*
X44402Y840708D01*
X63898D01*
Y860204D01*
D02*
G37*
G36*
X152448Y830708D02*
X132953D01*
Y811213D01*
X137707Y812159D01*
X145977Y817684D01*
X151502Y825954D01*
X152448Y830708D01*
D02*
G37*
G36*
X122953D02*
X103457D01*
X104403Y825954D01*
X109929Y817684D01*
X118198Y812159D01*
X122953Y811213D01*
Y830708D01*
D02*
G37*
G36*
X93393D02*
X73898D01*
Y811213D01*
X78652Y812159D01*
X86922Y817684D01*
X92447Y825954D01*
X93393Y830708D01*
D02*
G37*
G36*
X63898D02*
X44402D01*
X45348Y825954D01*
X50874Y817684D01*
X59143Y812159D01*
X63898Y811213D01*
Y830708D01*
D02*
G37*
G36*
X1245000D02*
X1225504D01*
X1226450Y825954D01*
X1231976Y817684D01*
X1240245Y812159D01*
X1245000Y811213D01*
Y830708D01*
D02*
G37*
G36*
X1215440D02*
X1195945D01*
Y811213D01*
X1200699Y812159D01*
X1208968Y817684D01*
X1214494Y825954D01*
X1215440Y830708D01*
D02*
G37*
G36*
X1185945D02*
X1166449D01*
X1167395Y825954D01*
X1172920Y817684D01*
X1181190Y812159D01*
X1185945Y811213D01*
Y830708D01*
D02*
G37*
G36*
X1156385D02*
X1136889D01*
Y811213D01*
X1141644Y812159D01*
X1149913Y817684D01*
X1155439Y825954D01*
X1156385Y830708D01*
D02*
G37*
G36*
X1126889D02*
X1107394D01*
X1108340Y825954D01*
X1113865Y817684D01*
X1122135Y812159D01*
X1126889Y811213D01*
Y830708D01*
D02*
G37*
G36*
X1225472Y801149D02*
Y781653D01*
X1244967D01*
X1244022Y786408D01*
X1238496Y794677D01*
X1230227Y800203D01*
X1225472Y801149D01*
D02*
G37*
G36*
X1215472D02*
X1210718Y800203D01*
X1202448Y794677D01*
X1196923Y786408D01*
X1195977Y781653D01*
X1215472D01*
Y801149D01*
D02*
G37*
G36*
X103425D02*
Y781653D01*
X122920D01*
X121975Y786408D01*
X116449Y794677D01*
X108180Y800203D01*
X103425Y801149D01*
D02*
G37*
G36*
X93425D02*
X88671Y800203D01*
X80401Y794677D01*
X74876Y786408D01*
X73930Y781653D01*
X93425D01*
Y801149D01*
D02*
G37*
G36*
X44370D02*
Y781653D01*
X63865D01*
X62920Y786408D01*
X57394Y794677D01*
X49125Y800203D01*
X44370Y801149D01*
D02*
G37*
G36*
X1244967Y771653D02*
X1225472D01*
Y752158D01*
X1230227Y753104D01*
X1238496Y758629D01*
X1244022Y766899D01*
X1244967Y771653D01*
D02*
G37*
G36*
X1215472D02*
X1195977D01*
X1196923Y766899D01*
X1202448Y758629D01*
X1210718Y753104D01*
X1215472Y752158D01*
Y771653D01*
D02*
G37*
G36*
X122920D02*
X103425D01*
Y752158D01*
X108180Y753104D01*
X116449Y758629D01*
X121975Y766899D01*
X122920Y771653D01*
D02*
G37*
G36*
X93425D02*
X73930D01*
X74876Y766899D01*
X80401Y758629D01*
X88671Y753104D01*
X93425Y752158D01*
Y771653D01*
D02*
G37*
G36*
X63865D02*
X44370D01*
Y752158D01*
X49125Y753104D01*
X57394Y758629D01*
X62920Y766899D01*
X63865Y771653D01*
D02*
G37*
G36*
X1245000Y742093D02*
X1240245Y741148D01*
X1231976Y735622D01*
X1226450Y727353D01*
X1225504Y722598D01*
X1245000D01*
Y742093D01*
D02*
G37*
G36*
X1195945D02*
Y722598D01*
X1215440D01*
X1214494Y727353D01*
X1208968Y735622D01*
X1200699Y741148D01*
X1195945Y742093D01*
D02*
G37*
G36*
X1185945D02*
X1181190Y741148D01*
X1172920Y735622D01*
X1167395Y727353D01*
X1166449Y722598D01*
X1185945D01*
Y742093D01*
D02*
G37*
G36*
X546338D02*
Y722598D01*
X565834D01*
X564888Y727353D01*
X559362Y735622D01*
X551093Y741148D01*
X546338Y742093D01*
D02*
G37*
G36*
X536338D02*
X531584Y741148D01*
X523314Y735622D01*
X517789Y727353D01*
X516843Y722598D01*
X536338D01*
Y742093D01*
D02*
G37*
G36*
X73898D02*
Y722598D01*
X93393D01*
X92447Y727353D01*
X86922Y735622D01*
X78652Y741148D01*
X73898Y742093D01*
D02*
G37*
G36*
X63898D02*
X59143Y741148D01*
X50874Y735622D01*
X45348Y727353D01*
X44402Y722598D01*
X63898D01*
Y742093D01*
D02*
G37*
G36*
X565834Y712598D02*
X546338D01*
Y693103D01*
X551093Y694049D01*
X559362Y699574D01*
X564888Y707844D01*
X565834Y712598D01*
D02*
G37*
G36*
X536338D02*
X516843D01*
X517789Y707844D01*
X523314Y699574D01*
X531584Y694049D01*
X536338Y693103D01*
Y712598D01*
D02*
G37*
G36*
X93393D02*
X73898D01*
Y693103D01*
X78652Y694049D01*
X86922Y699574D01*
X92447Y707844D01*
X93393Y712598D01*
D02*
G37*
G36*
X63898D02*
X44402D01*
X45348Y707844D01*
X50874Y699574D01*
X59143Y694049D01*
X63898Y693103D01*
Y712598D01*
D02*
G37*
G36*
X1245000D02*
X1225504D01*
X1226450Y707844D01*
X1231976Y699574D01*
X1240245Y694049D01*
X1245000Y693103D01*
Y712598D01*
D02*
G37*
G36*
X1215440D02*
X1195945D01*
Y693103D01*
X1200699Y694049D01*
X1208968Y699574D01*
X1214494Y707844D01*
X1215440Y712598D01*
D02*
G37*
G36*
X1185945D02*
X1166449D01*
X1167395Y707844D01*
X1172920Y699574D01*
X1181190Y694049D01*
X1185945Y693103D01*
Y712598D01*
D02*
G37*
G36*
X1225472Y683038D02*
Y663543D01*
X1244967D01*
X1244022Y668298D01*
X1238496Y676567D01*
X1230227Y682093D01*
X1225472Y683038D01*
D02*
G37*
G36*
X1215472D02*
X1210718Y682093D01*
X1202448Y676567D01*
X1196923Y668298D01*
X1195977Y663543D01*
X1215472D01*
Y683038D01*
D02*
G37*
G36*
X1166417D02*
Y663543D01*
X1185912D01*
X1184966Y668298D01*
X1179441Y676567D01*
X1171171Y682093D01*
X1166417Y683038D01*
D02*
G37*
G36*
X1156417D02*
X1151662Y682093D01*
X1143393Y676567D01*
X1137868Y668298D01*
X1136922Y663543D01*
X1156417D01*
Y683038D01*
D02*
G37*
G36*
X575866D02*
Y663543D01*
X595361D01*
X594415Y668298D01*
X588890Y676567D01*
X580620Y682093D01*
X575866Y683038D01*
D02*
G37*
G36*
X565866D02*
X561111Y682093D01*
X552842Y676567D01*
X547317Y668298D01*
X546371Y663543D01*
X565866D01*
Y683038D01*
D02*
G37*
G36*
X516811D02*
Y663543D01*
X536306D01*
X535360Y668298D01*
X529835Y676567D01*
X521565Y682093D01*
X516811Y683038D01*
D02*
G37*
G36*
X506811D02*
X502056Y682093D01*
X493787Y676567D01*
X488261Y668298D01*
X487316Y663543D01*
X506811D01*
Y683038D01*
D02*
G37*
G36*
X44370D02*
Y663543D01*
X63865D01*
X62920Y668298D01*
X57394Y676567D01*
X49125Y682093D01*
X44370Y683038D01*
D02*
G37*
G36*
X1244967Y653543D02*
X1225472D01*
Y634048D01*
X1230227Y634994D01*
X1238496Y640519D01*
X1244022Y648789D01*
X1244967Y653543D01*
D02*
G37*
G36*
X1215472D02*
X1195977D01*
X1196923Y648789D01*
X1202448Y640519D01*
X1210718Y634994D01*
X1215472Y634048D01*
Y653543D01*
D02*
G37*
G36*
X1185912D02*
X1166417D01*
Y634048D01*
X1171171Y634994D01*
X1179441Y640519D01*
X1184966Y648789D01*
X1185912Y653543D01*
D02*
G37*
G36*
X1156417D02*
X1136922D01*
X1137868Y648789D01*
X1143393Y640519D01*
X1151662Y634994D01*
X1156417Y634048D01*
Y653543D01*
D02*
G37*
G36*
X595361D02*
X575866D01*
Y634048D01*
X580620Y634994D01*
X588890Y640519D01*
X594415Y648789D01*
X595361Y653543D01*
D02*
G37*
G36*
X565866D02*
X546371D01*
X547317Y648789D01*
X552842Y640519D01*
X561111Y634994D01*
X565866Y634048D01*
Y653543D01*
D02*
G37*
G36*
X536306D02*
X516811D01*
Y634048D01*
X521565Y634994D01*
X529835Y640519D01*
X535360Y648789D01*
X536306Y653543D01*
D02*
G37*
G36*
X506811D02*
X487316D01*
X488261Y648789D01*
X493787Y640519D01*
X502056Y634994D01*
X506811Y634048D01*
Y653543D01*
D02*
G37*
G36*
X63865D02*
X44370D01*
Y634048D01*
X49125Y634994D01*
X57394Y640519D01*
X62920Y648789D01*
X63865Y653543D01*
D02*
G37*
G36*
X1245000Y623983D02*
X1240245Y623038D01*
X1231976Y617512D01*
X1226450Y609243D01*
X1225504Y604488D01*
X1245000D01*
Y623983D01*
D02*
G37*
G36*
X1195945D02*
Y604488D01*
X1215440D01*
X1214494Y609243D01*
X1208968Y617512D01*
X1200699Y623038D01*
X1195945Y623983D01*
D02*
G37*
G36*
X1185945D02*
X1181190Y623038D01*
X1172920Y617512D01*
X1167395Y609243D01*
X1166449Y604488D01*
X1185945D01*
Y623983D01*
D02*
G37*
G36*
X1136889D02*
Y604488D01*
X1156385D01*
X1155439Y609243D01*
X1149913Y617512D01*
X1141644Y623038D01*
X1136889Y623983D01*
D02*
G37*
G36*
X1126889D02*
X1122135Y623038D01*
X1113865Y617512D01*
X1108340Y609243D01*
X1107394Y604488D01*
X1126889D01*
Y623983D01*
D02*
G37*
G36*
X654449D02*
X649694Y623038D01*
X641425Y617512D01*
X635899Y609243D01*
X634953Y604488D01*
X654449D01*
Y623983D01*
D02*
G37*
G36*
X605394D02*
Y604488D01*
X624889D01*
X623943Y609243D01*
X618418Y617512D01*
X610148Y623038D01*
X605394Y623983D01*
D02*
G37*
G36*
X595394D02*
X590639Y623038D01*
X582370Y617512D01*
X576844Y609243D01*
X575898Y604488D01*
X595394D01*
Y623983D01*
D02*
G37*
G36*
X546338D02*
Y604488D01*
X565834D01*
X564888Y609243D01*
X559362Y617512D01*
X551093Y623038D01*
X546338Y623983D01*
D02*
G37*
G36*
X536338D02*
X531584Y623038D01*
X523314Y617512D01*
X517789Y609243D01*
X516843Y604488D01*
X536338D01*
Y623983D01*
D02*
G37*
G36*
X487283D02*
Y604488D01*
X506779D01*
X505833Y609243D01*
X500307Y617512D01*
X492038Y623038D01*
X487283Y623983D01*
D02*
G37*
G36*
X477283D02*
X472529Y623038D01*
X464259Y617512D01*
X458734Y609243D01*
X457788Y604488D01*
X477283D01*
Y623983D01*
D02*
G37*
G36*
X251063D02*
Y604488D01*
X270558D01*
X269612Y609243D01*
X264087Y617512D01*
X255817Y623038D01*
X251063Y623983D01*
D02*
G37*
G36*
X241063D02*
X236308Y623038D01*
X228039Y617512D01*
X222513Y609243D01*
X221568Y604488D01*
X241063D01*
Y623983D01*
D02*
G37*
G36*
X192008D02*
Y604488D01*
X211503D01*
X210557Y609243D01*
X205032Y617512D01*
X196762Y623038D01*
X192008Y623983D01*
D02*
G37*
G36*
X182008D02*
X177253Y623038D01*
X168984Y617512D01*
X163458Y609243D01*
X162513Y604488D01*
X182008D01*
Y623983D01*
D02*
G37*
G36*
X132953D02*
Y604488D01*
X152448D01*
X151502Y609243D01*
X145977Y617512D01*
X137707Y623038D01*
X132953Y623983D01*
D02*
G37*
G36*
X122953D02*
X118198Y623038D01*
X109929Y617512D01*
X104403Y609243D01*
X103457Y604488D01*
X122953D01*
Y623983D01*
D02*
G37*
G36*
X73898D02*
Y604488D01*
X93393D01*
X92447Y609243D01*
X86922Y617512D01*
X78652Y623038D01*
X73898Y623983D01*
D02*
G37*
G36*
X63898D02*
X59143Y623038D01*
X50874Y617512D01*
X45348Y609243D01*
X44402Y604488D01*
X63898D01*
Y623983D01*
D02*
G37*
G36*
X1245000Y594488D02*
X1225504D01*
X1226450Y589734D01*
X1231976Y581464D01*
X1240245Y575939D01*
X1245000Y574993D01*
Y594488D01*
D02*
G37*
G36*
X1215440D02*
X1195945D01*
Y574993D01*
X1200699Y575939D01*
X1208968Y581464D01*
X1214494Y589734D01*
X1215440Y594488D01*
D02*
G37*
G36*
X1185945D02*
X1166449D01*
X1167395Y589734D01*
X1172920Y581464D01*
X1181190Y575939D01*
X1185945Y574993D01*
Y594488D01*
D02*
G37*
G36*
X1156385D02*
X1136889D01*
Y574993D01*
X1141644Y575939D01*
X1149913Y581464D01*
X1155439Y589734D01*
X1156385Y594488D01*
D02*
G37*
G36*
X1126889D02*
X1107394D01*
X1108340Y589734D01*
X1113865Y581464D01*
X1122135Y575939D01*
X1126889Y574993D01*
Y594488D01*
D02*
G37*
G36*
X624889D02*
X605394D01*
Y574993D01*
X610148Y575939D01*
X618418Y581464D01*
X623943Y589734D01*
X624889Y594488D01*
D02*
G37*
G36*
X595394D02*
X575898D01*
X576844Y589734D01*
X582370Y581464D01*
X590639Y575939D01*
X595394Y574993D01*
Y594488D01*
D02*
G37*
G36*
X565834D02*
X546338D01*
Y574993D01*
X551093Y575939D01*
X559362Y581464D01*
X564888Y589734D01*
X565834Y594488D01*
D02*
G37*
G36*
X536338D02*
X516843D01*
X517789Y589734D01*
X523314Y581464D01*
X531584Y575939D01*
X536338Y574993D01*
Y594488D01*
D02*
G37*
G36*
X506779D02*
X487283D01*
Y574993D01*
X492038Y575939D01*
X500307Y581464D01*
X505833Y589734D01*
X506779Y594488D01*
D02*
G37*
G36*
X477283D02*
X457788D01*
X458734Y589734D01*
X464259Y581464D01*
X472529Y575939D01*
X477283Y574993D01*
Y594488D01*
D02*
G37*
G36*
X270558D02*
X251063D01*
Y574993D01*
X255817Y575939D01*
X264087Y581464D01*
X269612Y589734D01*
X270558Y594488D01*
D02*
G37*
G36*
X241063D02*
X221568D01*
X222513Y589734D01*
X228039Y581464D01*
X236308Y575939D01*
X241063Y574993D01*
Y594488D01*
D02*
G37*
G36*
X211503D02*
X192008D01*
Y574993D01*
X196762Y575939D01*
X205032Y581464D01*
X210557Y589734D01*
X211503Y594488D01*
D02*
G37*
G36*
X182008D02*
X162513D01*
X163458Y589734D01*
X168984Y581464D01*
X177253Y575939D01*
X182008Y574993D01*
Y594488D01*
D02*
G37*
G36*
X152448D02*
X132953D01*
Y574993D01*
X137707Y575939D01*
X145977Y581464D01*
X151502Y589734D01*
X152448Y594488D01*
D02*
G37*
G36*
X122953D02*
X103457D01*
X104403Y589734D01*
X109929Y581464D01*
X118198Y575939D01*
X122953Y574993D01*
Y594488D01*
D02*
G37*
G36*
X93393D02*
X73898D01*
Y574993D01*
X78652Y575939D01*
X86922Y581464D01*
X92447Y589734D01*
X93393Y594488D01*
D02*
G37*
G36*
X63898D02*
X44402D01*
X45348Y589734D01*
X50874Y581464D01*
X59143Y575939D01*
X63898Y574993D01*
Y594488D01*
D02*
G37*
G36*
X1225472Y564928D02*
Y545433D01*
X1244967D01*
X1244022Y550188D01*
X1238496Y558457D01*
X1230227Y563982D01*
X1225472Y564928D01*
D02*
G37*
G36*
X1215472D02*
X1210718Y563982D01*
X1202448Y558457D01*
X1196923Y550188D01*
X1195977Y545433D01*
X1215472D01*
Y564928D01*
D02*
G37*
G36*
X1166417D02*
Y545433D01*
X1185912D01*
X1184966Y550188D01*
X1179441Y558457D01*
X1171171Y563982D01*
X1166417Y564928D01*
D02*
G37*
G36*
X1156417D02*
X1151662Y563982D01*
X1143393Y558457D01*
X1137868Y550188D01*
X1136922Y545433D01*
X1156417D01*
Y564928D01*
D02*
G37*
G36*
X575866D02*
Y545433D01*
X595361D01*
X594415Y550188D01*
X588890Y558457D01*
X580620Y563982D01*
X575866Y564928D01*
D02*
G37*
G36*
X565866D02*
X561111Y563982D01*
X552842Y558457D01*
X547317Y550188D01*
X546371Y545433D01*
X565866D01*
Y564928D01*
D02*
G37*
G36*
X516811D02*
Y545433D01*
X536306D01*
X535360Y550188D01*
X529835Y558457D01*
X521565Y563982D01*
X516811Y564928D01*
D02*
G37*
G36*
X506811D02*
X502056Y563982D01*
X493787Y558457D01*
X488261Y550188D01*
X487316Y545433D01*
X506811D01*
Y564928D01*
D02*
G37*
G36*
X457756D02*
Y545433D01*
X477251D01*
X476305Y550188D01*
X470780Y558457D01*
X462510Y563982D01*
X457756Y564928D01*
D02*
G37*
G36*
X447756D02*
X443001Y563982D01*
X434732Y558457D01*
X429206Y550188D01*
X428261Y545433D01*
X447756D01*
Y564928D01*
D02*
G37*
G36*
X398701D02*
Y545433D01*
X418196D01*
X417250Y550188D01*
X411725Y558457D01*
X403455Y563982D01*
X398701Y564928D01*
D02*
G37*
G36*
X388701D02*
X383946Y563982D01*
X375677Y558457D01*
X370151Y550188D01*
X369205Y545433D01*
X388701D01*
Y564928D01*
D02*
G37*
G36*
X280591D02*
Y545433D01*
X300086D01*
X299140Y550188D01*
X293615Y558457D01*
X285345Y563982D01*
X280591Y564928D01*
D02*
G37*
G36*
X270591D02*
X265836Y563982D01*
X257567Y558457D01*
X252041Y550188D01*
X251095Y545433D01*
X270591D01*
Y564928D01*
D02*
G37*
G36*
X221535D02*
Y545433D01*
X241031D01*
X240085Y550188D01*
X234559Y558457D01*
X226290Y563982D01*
X221535Y564928D01*
D02*
G37*
G36*
X211535D02*
X206781Y563982D01*
X198511Y558457D01*
X192986Y550188D01*
X192040Y545433D01*
X211535D01*
Y564928D01*
D02*
G37*
G36*
X162480D02*
Y545433D01*
X181976D01*
X181030Y550188D01*
X175504Y558457D01*
X167235Y563982D01*
X162480Y564928D01*
D02*
G37*
G36*
X152480D02*
X147726Y563982D01*
X139456Y558457D01*
X133931Y550188D01*
X132985Y545433D01*
X152480D01*
Y564928D01*
D02*
G37*
G36*
X103425D02*
Y545433D01*
X122920D01*
X121975Y550188D01*
X116449Y558457D01*
X108180Y563982D01*
X103425Y564928D01*
D02*
G37*
G36*
X93425D02*
X88671Y563982D01*
X80401Y558457D01*
X74876Y550188D01*
X73930Y545433D01*
X93425D01*
Y564928D01*
D02*
G37*
G36*
X44370D02*
Y545433D01*
X63865D01*
X62920Y550188D01*
X57394Y558457D01*
X49125Y563982D01*
X44370Y564928D01*
D02*
G37*
G36*
X1244967Y535433D02*
X1225472D01*
Y515938D01*
X1230227Y516884D01*
X1238496Y522409D01*
X1244022Y530678D01*
X1244967Y535433D01*
D02*
G37*
G36*
X1215472D02*
X1195977D01*
X1196923Y530678D01*
X1202448Y522409D01*
X1210718Y516884D01*
X1215472Y515938D01*
Y535433D01*
D02*
G37*
G36*
X1185912D02*
X1166417D01*
Y515938D01*
X1171171Y516884D01*
X1179441Y522409D01*
X1184966Y530678D01*
X1185912Y535433D01*
D02*
G37*
G36*
X1156417D02*
X1136922D01*
X1137868Y530678D01*
X1143393Y522409D01*
X1151662Y516884D01*
X1156417Y515938D01*
Y535433D01*
D02*
G37*
G36*
X595361D02*
X575866D01*
Y515938D01*
X580620Y516884D01*
X588890Y522409D01*
X594415Y530678D01*
X595361Y535433D01*
D02*
G37*
G36*
X565866D02*
X546371D01*
X547317Y530678D01*
X552842Y522409D01*
X561111Y516884D01*
X565866Y515938D01*
Y535433D01*
D02*
G37*
G36*
X536306D02*
X516811D01*
Y515938D01*
X521565Y516884D01*
X529835Y522409D01*
X535360Y530678D01*
X536306Y535433D01*
D02*
G37*
G36*
X506811D02*
X487316D01*
X488261Y530678D01*
X493787Y522409D01*
X502056Y516884D01*
X506811Y515938D01*
Y535433D01*
D02*
G37*
G36*
X477251D02*
X457756D01*
Y515938D01*
X462510Y516884D01*
X470780Y522409D01*
X476305Y530678D01*
X477251Y535433D01*
D02*
G37*
G36*
X447756D02*
X428261D01*
X429206Y530678D01*
X434732Y522409D01*
X443001Y516884D01*
X447756Y515938D01*
Y535433D01*
D02*
G37*
G36*
X418196D02*
X398701D01*
Y515938D01*
X403455Y516884D01*
X411725Y522409D01*
X417250Y530678D01*
X418196Y535433D01*
D02*
G37*
G36*
X388701D02*
X369205D01*
X370151Y530678D01*
X375677Y522409D01*
X383946Y516884D01*
X388701Y515938D01*
Y535433D01*
D02*
G37*
G36*
X359141D02*
X339646D01*
Y515938D01*
X344400Y516884D01*
X352670Y522409D01*
X358195Y530678D01*
X359141Y535433D01*
D02*
G37*
G36*
X329646D02*
X310150D01*
X311096Y530678D01*
X316622Y522409D01*
X324891Y516884D01*
X329646Y515938D01*
Y535433D01*
D02*
G37*
G36*
X300086D02*
X280591D01*
Y515938D01*
X285345Y516884D01*
X293615Y522409D01*
X299140Y530678D01*
X300086Y535433D01*
D02*
G37*
G36*
X270591D02*
X251095D01*
X252041Y530678D01*
X257567Y522409D01*
X265836Y516884D01*
X270591Y515938D01*
Y535433D01*
D02*
G37*
G36*
X241031D02*
X221535D01*
Y515938D01*
X226290Y516884D01*
X234559Y522409D01*
X240085Y530678D01*
X241031Y535433D01*
D02*
G37*
G36*
X211535D02*
X192040D01*
X192986Y530678D01*
X198511Y522409D01*
X206781Y516884D01*
X211535Y515938D01*
Y535433D01*
D02*
G37*
G36*
X181976D02*
X162480D01*
Y515938D01*
X167235Y516884D01*
X175504Y522409D01*
X181030Y530678D01*
X181976Y535433D01*
D02*
G37*
G36*
X152480D02*
X132985D01*
X133931Y530678D01*
X139456Y522409D01*
X147726Y516884D01*
X152480Y515938D01*
Y535433D01*
D02*
G37*
G36*
X122920D02*
X103425D01*
Y515938D01*
X108180Y516884D01*
X116449Y522409D01*
X121975Y530678D01*
X122920Y535433D01*
D02*
G37*
G36*
X93425D02*
X73930D01*
X74876Y530678D01*
X80401Y522409D01*
X88671Y516884D01*
X93425Y515938D01*
Y535433D01*
D02*
G37*
G36*
X63865D02*
X44370D01*
Y515938D01*
X49125Y516884D01*
X57394Y522409D01*
X62920Y530678D01*
X63865Y535433D01*
D02*
G37*
G36*
X1245000Y505873D02*
X1240245Y504927D01*
X1231976Y499402D01*
X1226450Y491132D01*
X1225504Y486378D01*
X1245000D01*
Y505873D01*
D02*
G37*
G36*
X1195945D02*
Y486378D01*
X1215440D01*
X1214494Y491132D01*
X1208968Y499402D01*
X1200699Y504927D01*
X1195945Y505873D01*
D02*
G37*
G36*
X1185945D02*
X1181190Y504927D01*
X1172920Y499402D01*
X1167395Y491132D01*
X1166449Y486378D01*
X1185945D01*
Y505873D01*
D02*
G37*
G36*
X1136889D02*
Y486378D01*
X1156385D01*
X1155439Y491132D01*
X1149913Y499402D01*
X1141644Y504927D01*
X1136889Y505873D01*
D02*
G37*
G36*
X1126889D02*
X1122135Y504927D01*
X1113865Y499402D01*
X1108340Y491132D01*
X1107394Y486378D01*
X1126889D01*
Y505873D01*
D02*
G37*
G36*
X536338D02*
X531584Y504927D01*
X523314Y499402D01*
X517789Y491132D01*
X516843Y486378D01*
X536338D01*
Y505873D01*
D02*
G37*
G36*
X487283D02*
Y486378D01*
X506779D01*
X505833Y491132D01*
X500307Y499402D01*
X492038Y504927D01*
X487283Y505873D01*
D02*
G37*
G36*
X477283D02*
X472529Y504927D01*
X464259Y499402D01*
X458734Y491132D01*
X457788Y486378D01*
X477283D01*
Y505873D01*
D02*
G37*
G36*
X428228D02*
Y486378D01*
X447723D01*
X446778Y491132D01*
X441252Y499402D01*
X432983Y504927D01*
X428228Y505873D01*
D02*
G37*
G36*
X418228D02*
X413474Y504927D01*
X405204Y499402D01*
X399679Y491132D01*
X398733Y486378D01*
X418228D01*
Y505873D01*
D02*
G37*
G36*
X369173D02*
Y486378D01*
X388668D01*
X387723Y491132D01*
X382197Y499402D01*
X373928Y504927D01*
X369173Y505873D01*
D02*
G37*
G36*
X359173D02*
X354419Y504927D01*
X346149Y499402D01*
X340624Y491132D01*
X339678Y486378D01*
X359173D01*
Y505873D01*
D02*
G37*
G36*
X310118D02*
Y486378D01*
X329613D01*
X328668Y491132D01*
X323142Y499402D01*
X314873Y504927D01*
X310118Y505873D01*
D02*
G37*
G36*
X300118D02*
X295363Y504927D01*
X287094Y499402D01*
X281568Y491132D01*
X280623Y486378D01*
X300118D01*
Y505873D01*
D02*
G37*
G36*
X251063D02*
Y486378D01*
X270558D01*
X269612Y491132D01*
X264087Y499402D01*
X255817Y504927D01*
X251063Y505873D01*
D02*
G37*
G36*
X241063D02*
X236308Y504927D01*
X228039Y499402D01*
X222513Y491132D01*
X221568Y486378D01*
X241063D01*
Y505873D01*
D02*
G37*
G36*
X192008D02*
Y486378D01*
X211503D01*
X210557Y491132D01*
X205032Y499402D01*
X196762Y504927D01*
X192008Y505873D01*
D02*
G37*
G36*
X182008D02*
X177253Y504927D01*
X168984Y499402D01*
X163458Y491132D01*
X162513Y486378D01*
X182008D01*
Y505873D01*
D02*
G37*
G36*
X132953D02*
Y486378D01*
X152448D01*
X151502Y491132D01*
X145977Y499402D01*
X137707Y504927D01*
X132953Y505873D01*
D02*
G37*
G36*
X122953D02*
X118198Y504927D01*
X109929Y499402D01*
X104403Y491132D01*
X103457Y486378D01*
X122953D01*
Y505873D01*
D02*
G37*
G36*
X73898D02*
Y486378D01*
X93393D01*
X92447Y491132D01*
X86922Y499402D01*
X78652Y504927D01*
X73898Y505873D01*
D02*
G37*
G36*
X63898D02*
X59143Y504927D01*
X50874Y499402D01*
X45348Y491132D01*
X44402Y486378D01*
X63898D01*
Y505873D01*
D02*
G37*
G36*
X1245000Y476378D02*
X1225504D01*
X1226450Y471623D01*
X1231976Y463354D01*
X1240245Y457828D01*
X1245000Y456883D01*
Y476378D01*
D02*
G37*
G36*
X1215440D02*
X1195945D01*
Y456883D01*
X1200699Y457828D01*
X1208968Y463354D01*
X1214494Y471623D01*
X1215440Y476378D01*
D02*
G37*
G36*
X1185945D02*
X1166449D01*
X1167395Y471623D01*
X1172920Y463354D01*
X1181190Y457828D01*
X1185945Y456883D01*
Y476378D01*
D02*
G37*
G36*
X1156385D02*
X1136889D01*
Y456883D01*
X1141644Y457828D01*
X1149913Y463354D01*
X1155439Y471623D01*
X1156385Y476378D01*
D02*
G37*
G36*
X1126889D02*
X1107394D01*
X1108340Y471623D01*
X1113865Y463354D01*
X1122135Y457828D01*
X1126889Y456883D01*
Y476378D01*
D02*
G37*
G36*
X388668D02*
X369173D01*
Y456883D01*
X373928Y457828D01*
X382197Y463354D01*
X387723Y471623D01*
X388668Y476378D01*
D02*
G37*
G36*
X359173D02*
X339678D01*
X340624Y471623D01*
X346149Y463354D01*
X354419Y457828D01*
X359173Y456883D01*
Y476378D01*
D02*
G37*
G36*
X329613D02*
X310118D01*
Y456883D01*
X314873Y457828D01*
X323142Y463354D01*
X328668Y471623D01*
X329613Y476378D01*
D02*
G37*
G36*
X300118D02*
X280623D01*
X281568Y471623D01*
X287094Y463354D01*
X295363Y457828D01*
X300118Y456883D01*
Y476378D01*
D02*
G37*
G36*
X270558D02*
X251063D01*
Y456883D01*
X255817Y457828D01*
X264087Y463354D01*
X269612Y471623D01*
X270558Y476378D01*
D02*
G37*
G36*
X241063D02*
X221568D01*
X222513Y471623D01*
X228039Y463354D01*
X236308Y457828D01*
X241063Y456883D01*
Y476378D01*
D02*
G37*
G36*
X211503D02*
X192008D01*
Y456883D01*
X196762Y457828D01*
X205032Y463354D01*
X210557Y471623D01*
X211503Y476378D01*
D02*
G37*
G36*
X182008D02*
X162513D01*
X163458Y471623D01*
X168984Y463354D01*
X177253Y457828D01*
X182008Y456883D01*
Y476378D01*
D02*
G37*
G36*
X152448D02*
X132953D01*
Y456883D01*
X137707Y457828D01*
X145977Y463354D01*
X151502Y471623D01*
X152448Y476378D01*
D02*
G37*
G36*
X122953D02*
X103457D01*
X104403Y471623D01*
X109929Y463354D01*
X118198Y457828D01*
X122953Y456883D01*
Y476378D01*
D02*
G37*
G36*
X93393D02*
X73898D01*
Y456883D01*
X78652Y457828D01*
X86922Y463354D01*
X92447Y471623D01*
X93393Y476378D01*
D02*
G37*
G36*
X63898D02*
X44402D01*
X45348Y471623D01*
X50874Y463354D01*
X59143Y457828D01*
X63898Y456883D01*
Y476378D01*
D02*
G37*
G36*
X1225472Y446818D02*
Y427323D01*
X1244967D01*
X1244022Y432077D01*
X1238496Y440347D01*
X1230227Y445872D01*
X1225472Y446818D01*
D02*
G37*
G36*
X1215472D02*
X1210718Y445872D01*
X1202448Y440347D01*
X1196923Y432077D01*
X1195977Y427323D01*
X1215472D01*
Y446818D01*
D02*
G37*
G36*
X1166417D02*
Y427323D01*
X1185912D01*
X1184966Y432077D01*
X1179441Y440347D01*
X1171171Y445872D01*
X1166417Y446818D01*
D02*
G37*
G36*
X1156417D02*
X1151662Y445872D01*
X1143393Y440347D01*
X1137868Y432077D01*
X1136922Y427323D01*
X1156417D01*
Y446818D01*
D02*
G37*
G36*
X1107362D02*
Y427323D01*
X1126857D01*
X1125911Y432077D01*
X1120386Y440347D01*
X1112116Y445872D01*
X1107362Y446818D01*
D02*
G37*
G36*
X1097362D02*
X1092607Y445872D01*
X1084338Y440347D01*
X1078812Y432077D01*
X1077867Y427323D01*
X1097362D01*
Y446818D01*
D02*
G37*
G36*
X280591D02*
Y427323D01*
X300086D01*
X299140Y432077D01*
X293615Y440347D01*
X285345Y445872D01*
X280591Y446818D01*
D02*
G37*
G36*
X270591D02*
X265836Y445872D01*
X257567Y440347D01*
X252041Y432077D01*
X251095Y427323D01*
X270591D01*
Y446818D01*
D02*
G37*
G36*
X221535D02*
Y427323D01*
X241031D01*
X240085Y432077D01*
X234559Y440347D01*
X226290Y445872D01*
X221535Y446818D01*
D02*
G37*
G36*
X211535D02*
X206781Y445872D01*
X198511Y440347D01*
X192986Y432077D01*
X192040Y427323D01*
X211535D01*
Y446818D01*
D02*
G37*
G36*
X162480D02*
Y427323D01*
X181976D01*
X181030Y432077D01*
X175504Y440347D01*
X167235Y445872D01*
X162480Y446818D01*
D02*
G37*
G36*
X152480D02*
X147726Y445872D01*
X139456Y440347D01*
X133931Y432077D01*
X132985Y427323D01*
X152480D01*
Y446818D01*
D02*
G37*
G36*
X103425D02*
Y427323D01*
X122920D01*
X121975Y432077D01*
X116449Y440347D01*
X108180Y445872D01*
X103425Y446818D01*
D02*
G37*
G36*
X93425D02*
X88671Y445872D01*
X80401Y440347D01*
X74876Y432077D01*
X73930Y427323D01*
X93425D01*
Y446818D01*
D02*
G37*
G36*
X44370D02*
Y427323D01*
X63865D01*
X62920Y432077D01*
X57394Y440347D01*
X49125Y445872D01*
X44370Y446818D01*
D02*
G37*
G36*
X1244967Y417323D02*
X1225472D01*
Y397828D01*
X1230227Y398773D01*
X1238496Y404299D01*
X1244022Y412568D01*
X1244967Y417323D01*
D02*
G37*
G36*
X1215472D02*
X1195977D01*
X1196923Y412568D01*
X1202448Y404299D01*
X1210718Y398773D01*
X1215472Y397828D01*
Y417323D01*
D02*
G37*
G36*
X1185912D02*
X1166417D01*
Y397828D01*
X1171171Y398773D01*
X1179441Y404299D01*
X1184966Y412568D01*
X1185912Y417323D01*
D02*
G37*
G36*
X1156417D02*
X1136922D01*
X1137868Y412568D01*
X1143393Y404299D01*
X1151662Y398773D01*
X1156417Y397828D01*
Y417323D01*
D02*
G37*
G36*
X1126857D02*
X1107362D01*
Y397828D01*
X1112116Y398773D01*
X1120386Y404299D01*
X1125911Y412568D01*
X1126857Y417323D01*
D02*
G37*
G36*
X1097362D02*
X1077867D01*
X1078812Y412568D01*
X1084338Y404299D01*
X1092607Y398773D01*
X1097362Y397828D01*
Y417323D01*
D02*
G37*
G36*
X300086D02*
X280591D01*
Y397828D01*
X285345Y398773D01*
X293615Y404299D01*
X299140Y412568D01*
X300086Y417323D01*
D02*
G37*
G36*
X270591D02*
X251095D01*
X252041Y412568D01*
X257567Y404299D01*
X265836Y398773D01*
X270591Y397828D01*
Y417323D01*
D02*
G37*
G36*
X241031D02*
X221535D01*
Y397828D01*
X226290Y398773D01*
X234559Y404299D01*
X240085Y412568D01*
X241031Y417323D01*
D02*
G37*
G36*
X211535D02*
X192040D01*
X192986Y412568D01*
X198511Y404299D01*
X206781Y398773D01*
X211535Y397828D01*
Y417323D01*
D02*
G37*
G36*
X181976D02*
X162480D01*
Y397828D01*
X167235Y398773D01*
X175504Y404299D01*
X181030Y412568D01*
X181976Y417323D01*
D02*
G37*
G36*
X152480D02*
X132985D01*
X133931Y412568D01*
X139456Y404299D01*
X147726Y398773D01*
X152480Y397828D01*
Y417323D01*
D02*
G37*
G36*
X122920D02*
X103425D01*
Y397828D01*
X108180Y398773D01*
X116449Y404299D01*
X121975Y412568D01*
X122920Y417323D01*
D02*
G37*
G36*
X93425D02*
X73930D01*
X74876Y412568D01*
X80401Y404299D01*
X88671Y398773D01*
X93425Y397828D01*
Y417323D01*
D02*
G37*
G36*
X63865D02*
X44370D01*
Y397828D01*
X49125Y398773D01*
X57394Y404299D01*
X62920Y412568D01*
X63865Y417323D01*
D02*
G37*
G36*
X1245000Y387763D02*
X1240245Y386817D01*
X1231976Y381292D01*
X1226450Y373022D01*
X1225504Y368268D01*
X1245000D01*
Y387763D01*
D02*
G37*
G36*
X1195945D02*
Y368268D01*
X1215440D01*
X1214494Y373022D01*
X1208968Y381292D01*
X1200699Y386817D01*
X1195945Y387763D01*
D02*
G37*
G36*
X1185945D02*
X1181190Y386817D01*
X1172920Y381292D01*
X1167395Y373022D01*
X1166449Y368268D01*
X1185945D01*
Y387763D01*
D02*
G37*
G36*
X1136889D02*
Y368268D01*
X1156385D01*
X1155439Y373022D01*
X1149913Y381292D01*
X1141644Y386817D01*
X1136889Y387763D01*
D02*
G37*
G36*
X1126889D02*
X1122135Y386817D01*
X1113865Y381292D01*
X1108340Y373022D01*
X1107394Y368268D01*
X1126889D01*
Y387763D01*
D02*
G37*
G36*
X1077834D02*
Y368268D01*
X1097330D01*
X1096384Y373022D01*
X1090858Y381292D01*
X1082589Y386817D01*
X1077834Y387763D01*
D02*
G37*
G36*
X1067834D02*
X1063080Y386817D01*
X1054810Y381292D01*
X1049285Y373022D01*
X1048339Y368268D01*
X1067834D01*
Y387763D01*
D02*
G37*
G36*
X841614D02*
Y368268D01*
X861109D01*
X860163Y373022D01*
X854638Y381292D01*
X846368Y386817D01*
X841614Y387763D01*
D02*
G37*
G36*
X831614D02*
X826859Y386817D01*
X818590Y381292D01*
X813064Y373022D01*
X812119Y368268D01*
X831614D01*
Y387763D01*
D02*
G37*
G36*
X782559D02*
Y368268D01*
X802054D01*
X801108Y373022D01*
X795583Y381292D01*
X787313Y386817D01*
X782559Y387763D01*
D02*
G37*
G36*
X772559D02*
X767804Y386817D01*
X759535Y381292D01*
X754009Y373022D01*
X753064Y368268D01*
X772559D01*
Y387763D01*
D02*
G37*
G36*
X251063D02*
Y368268D01*
X270558D01*
X269612Y373022D01*
X264087Y381292D01*
X255817Y386817D01*
X251063Y387763D01*
D02*
G37*
G36*
X241063D02*
X236308Y386817D01*
X228039Y381292D01*
X222513Y373022D01*
X221568Y368268D01*
X241063D01*
Y387763D01*
D02*
G37*
G36*
X192008D02*
Y368268D01*
X211503D01*
X210557Y373022D01*
X205032Y381292D01*
X196762Y386817D01*
X192008Y387763D01*
D02*
G37*
G36*
X182008D02*
X177253Y386817D01*
X168984Y381292D01*
X163458Y373022D01*
X162513Y368268D01*
X182008D01*
Y387763D01*
D02*
G37*
G36*
X132953D02*
Y368268D01*
X152448D01*
X151502Y373022D01*
X145977Y381292D01*
X137707Y386817D01*
X132953Y387763D01*
D02*
G37*
G36*
X122953D02*
X118198Y386817D01*
X109929Y381292D01*
X104403Y373022D01*
X103457Y368268D01*
X122953D01*
Y387763D01*
D02*
G37*
G36*
X73898D02*
Y368268D01*
X93393D01*
X92447Y373022D01*
X86922Y381292D01*
X78652Y386817D01*
X73898Y387763D01*
D02*
G37*
G36*
X63898D02*
X59143Y386817D01*
X50874Y381292D01*
X45348Y373022D01*
X44402Y368268D01*
X63898D01*
Y387763D01*
D02*
G37*
G36*
X1245000Y358268D02*
X1225504D01*
X1226450Y353513D01*
X1231976Y345244D01*
X1240245Y339718D01*
X1245000Y338772D01*
Y358268D01*
D02*
G37*
G36*
X1215440D02*
X1195945D01*
Y338772D01*
X1200699Y339718D01*
X1208968Y345244D01*
X1214494Y353513D01*
X1215440Y358268D01*
D02*
G37*
G36*
X1185945D02*
X1166449D01*
X1167395Y353513D01*
X1172920Y345244D01*
X1181190Y339718D01*
X1185945Y338772D01*
Y358268D01*
D02*
G37*
G36*
X1156385D02*
X1136889D01*
Y338772D01*
X1141644Y339718D01*
X1149913Y345244D01*
X1155439Y353513D01*
X1156385Y358268D01*
D02*
G37*
G36*
X1126889D02*
X1107394D01*
X1108340Y353513D01*
X1113865Y345244D01*
X1122135Y339718D01*
X1126889Y338772D01*
Y358268D01*
D02*
G37*
G36*
X1097330D02*
X1077834D01*
Y338772D01*
X1082589Y339718D01*
X1090858Y345244D01*
X1096384Y353513D01*
X1097330Y358268D01*
D02*
G37*
G36*
X1067834D02*
X1048339D01*
X1049285Y353513D01*
X1054810Y345244D01*
X1063080Y339718D01*
X1067834Y338772D01*
Y358268D01*
D02*
G37*
G36*
X1038274D02*
X1018779D01*
Y338772D01*
X1023534Y339718D01*
X1031803Y345244D01*
X1037329Y353513D01*
X1038274Y358268D01*
D02*
G37*
G36*
X831614D02*
X812119D01*
X813064Y353513D01*
X818590Y345244D01*
X826859Y339718D01*
X831614Y338772D01*
Y358268D01*
D02*
G37*
G36*
X802054D02*
X782559D01*
Y338772D01*
X787313Y339718D01*
X795583Y345244D01*
X801108Y353513D01*
X802054Y358268D01*
D02*
G37*
G36*
X772559D02*
X753064D01*
X754009Y353513D01*
X759535Y345244D01*
X767804Y339718D01*
X772559Y338772D01*
Y358268D01*
D02*
G37*
G36*
X270558D02*
X251063D01*
Y338772D01*
X255817Y339718D01*
X264087Y345244D01*
X269612Y353513D01*
X270558Y358268D01*
D02*
G37*
G36*
X241063D02*
X221568D01*
X222513Y353513D01*
X228039Y345244D01*
X236308Y339718D01*
X241063Y338772D01*
Y358268D01*
D02*
G37*
G36*
X211503D02*
X192008D01*
Y338772D01*
X196762Y339718D01*
X205032Y345244D01*
X210557Y353513D01*
X211503Y358268D01*
D02*
G37*
G36*
X182008D02*
X162513D01*
X163458Y353513D01*
X168984Y345244D01*
X177253Y339718D01*
X182008Y338772D01*
Y358268D01*
D02*
G37*
G36*
X152448D02*
X132953D01*
Y338772D01*
X137707Y339718D01*
X145977Y345244D01*
X151502Y353513D01*
X152448Y358268D01*
D02*
G37*
G36*
X122953D02*
X103457D01*
X104403Y353513D01*
X109929Y345244D01*
X118198Y339718D01*
X122953Y338772D01*
Y358268D01*
D02*
G37*
G36*
X93393D02*
X73898D01*
Y338772D01*
X78652Y339718D01*
X86922Y345244D01*
X92447Y353513D01*
X93393Y358268D01*
D02*
G37*
G36*
X63898D02*
X44402D01*
X45348Y353513D01*
X50874Y345244D01*
X59143Y339718D01*
X63898Y338772D01*
Y358268D01*
D02*
G37*
G36*
X1225472Y328708D02*
Y309213D01*
X1244967D01*
X1244022Y313967D01*
X1238496Y322237D01*
X1230227Y327762D01*
X1225472Y328708D01*
D02*
G37*
G36*
X1215472D02*
X1210718Y327762D01*
X1202448Y322237D01*
X1196923Y313967D01*
X1195977Y309213D01*
X1215472D01*
Y328708D01*
D02*
G37*
G36*
X1166417D02*
Y309213D01*
X1185912D01*
X1184966Y313967D01*
X1179441Y322237D01*
X1171171Y327762D01*
X1166417Y328708D01*
D02*
G37*
G36*
X1156417D02*
X1151662Y327762D01*
X1143393Y322237D01*
X1137868Y313967D01*
X1136922Y309213D01*
X1156417D01*
Y328708D01*
D02*
G37*
G36*
X1107362D02*
Y309213D01*
X1126857D01*
X1125911Y313967D01*
X1120386Y322237D01*
X1112116Y327762D01*
X1107362Y328708D01*
D02*
G37*
G36*
X1097362D02*
X1092607Y327762D01*
X1084338Y322237D01*
X1078812Y313967D01*
X1077867Y309213D01*
X1097362D01*
Y328708D01*
D02*
G37*
G36*
X1048307D02*
Y309213D01*
X1067802D01*
X1066856Y313967D01*
X1061331Y322237D01*
X1053061Y327762D01*
X1048307Y328708D01*
D02*
G37*
G36*
X1038307D02*
X1033552Y327762D01*
X1025283Y322237D01*
X1019757Y313967D01*
X1018812Y309213D01*
X1038307D01*
Y328708D01*
D02*
G37*
G36*
X989252D02*
Y309213D01*
X1008747D01*
X1007801Y313967D01*
X1002276Y322237D01*
X994006Y327762D01*
X989252Y328708D01*
D02*
G37*
G36*
X979252D02*
X974497Y327762D01*
X966228Y322237D01*
X960702Y313967D01*
X959756Y309213D01*
X979252D01*
Y328708D01*
D02*
G37*
G36*
X753031D02*
Y309213D01*
X772527D01*
X771581Y313967D01*
X766055Y322237D01*
X757786Y327762D01*
X753031Y328708D01*
D02*
G37*
G36*
X743031D02*
X738277Y327762D01*
X730007Y322237D01*
X724482Y313967D01*
X723536Y309213D01*
X743031D01*
Y328708D01*
D02*
G37*
G36*
X270591D02*
X265836Y327762D01*
X257567Y322237D01*
X252041Y313967D01*
X251095Y309213D01*
X270591D01*
Y328708D01*
D02*
G37*
G36*
X221535D02*
Y309213D01*
X241031D01*
X240085Y313967D01*
X234559Y322237D01*
X226290Y327762D01*
X221535Y328708D01*
D02*
G37*
G36*
X211535D02*
X206781Y327762D01*
X198511Y322237D01*
X192986Y313967D01*
X192040Y309213D01*
X211535D01*
Y328708D01*
D02*
G37*
G36*
X162480D02*
Y309213D01*
X181976D01*
X181030Y313967D01*
X175504Y322237D01*
X167235Y327762D01*
X162480Y328708D01*
D02*
G37*
G36*
X152480D02*
X147726Y327762D01*
X139456Y322237D01*
X133931Y313967D01*
X132985Y309213D01*
X152480D01*
Y328708D01*
D02*
G37*
G36*
X103425D02*
Y309213D01*
X122920D01*
X121975Y313967D01*
X116449Y322237D01*
X108180Y327762D01*
X103425Y328708D01*
D02*
G37*
G36*
X93425D02*
X88671Y327762D01*
X80401Y322237D01*
X74876Y313967D01*
X73930Y309213D01*
X93425D01*
Y328708D01*
D02*
G37*
G36*
X44370D02*
Y309213D01*
X63865D01*
X62920Y313967D01*
X57394Y322237D01*
X49125Y327762D01*
X44370Y328708D01*
D02*
G37*
G36*
X1244967Y299213D02*
X1225472D01*
Y279717D01*
X1230227Y280663D01*
X1238496Y286189D01*
X1244022Y294458D01*
X1244967Y299213D01*
D02*
G37*
G36*
X1215472D02*
X1195977D01*
X1196923Y294458D01*
X1202448Y286189D01*
X1210718Y280663D01*
X1215472Y279717D01*
Y299213D01*
D02*
G37*
G36*
X1185912D02*
X1166417D01*
Y279717D01*
X1171171Y280663D01*
X1179441Y286189D01*
X1184966Y294458D01*
X1185912Y299213D01*
D02*
G37*
G36*
X1156417D02*
X1136922D01*
X1137868Y294458D01*
X1143393Y286189D01*
X1151662Y280663D01*
X1156417Y279717D01*
Y299213D01*
D02*
G37*
G36*
X1126857D02*
X1107362D01*
Y279717D01*
X1112116Y280663D01*
X1120386Y286189D01*
X1125911Y294458D01*
X1126857Y299213D01*
D02*
G37*
G36*
X1097362D02*
X1077867D01*
X1078812Y294458D01*
X1084338Y286189D01*
X1092607Y280663D01*
X1097362Y279717D01*
Y299213D01*
D02*
G37*
G36*
X1067802D02*
X1048307D01*
Y279717D01*
X1053061Y280663D01*
X1061331Y286189D01*
X1066856Y294458D01*
X1067802Y299213D01*
D02*
G37*
G36*
X1038307D02*
X1018812D01*
X1019757Y294458D01*
X1025283Y286189D01*
X1033552Y280663D01*
X1038307Y279717D01*
Y299213D01*
D02*
G37*
G36*
X1008747D02*
X989252D01*
Y279717D01*
X994006Y280663D01*
X1002276Y286189D01*
X1007801Y294458D01*
X1008747Y299213D01*
D02*
G37*
G36*
X979252D02*
X959756D01*
X960702Y294458D01*
X966228Y286189D01*
X974497Y280663D01*
X979252Y279717D01*
Y299213D01*
D02*
G37*
G36*
X772527D02*
X753031D01*
Y279717D01*
X757786Y280663D01*
X766055Y286189D01*
X771581Y294458D01*
X772527Y299213D01*
D02*
G37*
G36*
X743031D02*
X723536D01*
X724482Y294458D01*
X730007Y286189D01*
X738277Y280663D01*
X743031Y279717D01*
Y299213D01*
D02*
G37*
G36*
X270591D02*
X251095D01*
X252041Y294458D01*
X257567Y286189D01*
X265836Y280663D01*
X270591Y279717D01*
Y299213D01*
D02*
G37*
G36*
X241031D02*
X221535D01*
Y279717D01*
X226290Y280663D01*
X234559Y286189D01*
X240085Y294458D01*
X241031Y299213D01*
D02*
G37*
G36*
X211535D02*
X192040D01*
X192986Y294458D01*
X198511Y286189D01*
X206781Y280663D01*
X211535Y279717D01*
Y299213D01*
D02*
G37*
G36*
X181976D02*
X162480D01*
Y279717D01*
X167235Y280663D01*
X175504Y286189D01*
X181030Y294458D01*
X181976Y299213D01*
D02*
G37*
G36*
X152480D02*
X132985D01*
X133931Y294458D01*
X139456Y286189D01*
X147726Y280663D01*
X152480Y279717D01*
Y299213D01*
D02*
G37*
G36*
X122920D02*
X103425D01*
Y279717D01*
X108180Y280663D01*
X116449Y286189D01*
X121975Y294458D01*
X122920Y299213D01*
D02*
G37*
G36*
X93425D02*
X73930D01*
X74876Y294458D01*
X80401Y286189D01*
X88671Y280663D01*
X93425Y279717D01*
Y299213D01*
D02*
G37*
G36*
X63865D02*
X44370D01*
Y279717D01*
X49125Y280663D01*
X57394Y286189D01*
X62920Y294458D01*
X63865Y299213D01*
D02*
G37*
G36*
X1245000Y269653D02*
X1240245Y268707D01*
X1231976Y263182D01*
X1226450Y254912D01*
X1225504Y250157D01*
X1245000D01*
Y269653D01*
D02*
G37*
G36*
X1195945D02*
Y250157D01*
X1215440D01*
X1214494Y254912D01*
X1208968Y263182D01*
X1200699Y268707D01*
X1195945Y269653D01*
D02*
G37*
G36*
X1185945D02*
X1181190Y268707D01*
X1172920Y263182D01*
X1167395Y254912D01*
X1166449Y250157D01*
X1185945D01*
Y269653D01*
D02*
G37*
G36*
X1136889D02*
Y250157D01*
X1156385D01*
X1155439Y254912D01*
X1149913Y263182D01*
X1141644Y268707D01*
X1136889Y269653D01*
D02*
G37*
G36*
X1126889D02*
X1122135Y268707D01*
X1113865Y263182D01*
X1108340Y254912D01*
X1107394Y250157D01*
X1126889D01*
Y269653D01*
D02*
G37*
G36*
X1077834D02*
Y250157D01*
X1097330D01*
X1096384Y254912D01*
X1090858Y263182D01*
X1082589Y268707D01*
X1077834Y269653D01*
D02*
G37*
G36*
X1067834D02*
X1063080Y268707D01*
X1054810Y263182D01*
X1049285Y254912D01*
X1048339Y250157D01*
X1067834D01*
Y269653D01*
D02*
G37*
G36*
X1018779D02*
Y250157D01*
X1038274D01*
X1037329Y254912D01*
X1031803Y263182D01*
X1023534Y268707D01*
X1018779Y269653D01*
D02*
G37*
G36*
X1008779D02*
X1004025Y268707D01*
X995755Y263182D01*
X990230Y254912D01*
X989284Y250157D01*
X1008779D01*
Y269653D01*
D02*
G37*
G36*
X959724D02*
Y250157D01*
X979219D01*
X978274Y254912D01*
X972748Y263182D01*
X964479Y268707D01*
X959724Y269653D01*
D02*
G37*
G36*
X949724D02*
X944970Y268707D01*
X936700Y263182D01*
X931175Y254912D01*
X930229Y250157D01*
X949724D01*
Y269653D01*
D02*
G37*
G36*
X251063D02*
Y250157D01*
X270558D01*
X269612Y254912D01*
X264087Y263182D01*
X255817Y268707D01*
X251063Y269653D01*
D02*
G37*
G36*
X241063D02*
X236308Y268707D01*
X228039Y263182D01*
X222513Y254912D01*
X221568Y250157D01*
X241063D01*
Y269653D01*
D02*
G37*
G36*
X192008D02*
Y250157D01*
X211503D01*
X210557Y254912D01*
X205032Y263182D01*
X196762Y268707D01*
X192008Y269653D01*
D02*
G37*
G36*
X182008D02*
X177253Y268707D01*
X168984Y263182D01*
X163458Y254912D01*
X162513Y250157D01*
X182008D01*
Y269653D01*
D02*
G37*
G36*
X132953D02*
Y250157D01*
X152448D01*
X151502Y254912D01*
X145977Y263182D01*
X137707Y268707D01*
X132953Y269653D01*
D02*
G37*
G36*
X122953D02*
X118198Y268707D01*
X109929Y263182D01*
X104403Y254912D01*
X103457Y250157D01*
X122953D01*
Y269653D01*
D02*
G37*
G36*
X73898D02*
Y250157D01*
X93393D01*
X92447Y254912D01*
X86922Y263182D01*
X78652Y268707D01*
X73898Y269653D01*
D02*
G37*
G36*
X63898D02*
X59143Y268707D01*
X50874Y263182D01*
X45348Y254912D01*
X44402Y250157D01*
X63898D01*
Y269653D01*
D02*
G37*
G36*
X1215440Y240157D02*
X1166449D01*
X1167395Y235403D01*
X1171282Y229586D01*
X1167870Y223893D01*
X1155761Y225085D01*
X1152876Y229801D01*
X1152661Y231246D01*
X1155439Y235403D01*
X1156385Y240157D01*
X1107394D01*
X1108340Y235403D01*
X1113865Y227133D01*
X1118016Y224360D01*
X1118372Y222878D01*
X1117499Y217489D01*
X1104003Y210276D01*
X1090491Y199187D01*
X1079402Y185674D01*
X1071161Y170258D01*
X1066087Y153530D01*
X1064866Y141134D01*
X1153543D01*
Y136134D01*
D01*
Y141134D01*
X1242220D01*
X1240999Y153530D01*
X1235925Y170258D01*
X1227685Y185674D01*
X1216596Y199187D01*
X1203083Y210276D01*
X1195327Y214422D01*
X1196262Y220725D01*
X1200699Y221608D01*
X1208968Y227133D01*
X1214494Y235403D01*
X1215440Y240157D01*
D02*
G37*
G36*
X1245000D02*
X1225504D01*
X1226450Y235403D01*
X1231976Y227133D01*
X1240245Y221608D01*
X1245000Y220662D01*
Y240157D01*
D02*
G37*
G36*
X1097330D02*
X1077834D01*
Y220662D01*
X1082589Y221608D01*
X1090858Y227133D01*
X1096384Y235403D01*
X1097330Y240157D01*
D02*
G37*
G36*
X1067834D02*
X1048339D01*
X1049285Y235403D01*
X1054810Y227133D01*
X1063080Y221608D01*
X1067834Y220662D01*
Y240157D01*
D02*
G37*
G36*
X1038274D02*
X1018779D01*
Y220662D01*
X1023534Y221608D01*
X1031803Y227133D01*
X1037329Y235403D01*
X1038274Y240157D01*
D02*
G37*
G36*
X1008779D02*
X989284D01*
X990230Y235403D01*
X995755Y227133D01*
X1004025Y221608D01*
X1008779Y220662D01*
Y240157D01*
D02*
G37*
G36*
X979219D02*
X959724D01*
Y220662D01*
X964479Y221608D01*
X972748Y227133D01*
X978274Y235403D01*
X979219Y240157D01*
D02*
G37*
G36*
X949724D02*
X930229D01*
X931175Y235403D01*
X936700Y227133D01*
X944970Y221608D01*
X949724Y220662D01*
Y240157D01*
D02*
G37*
G36*
X920164D02*
X900669D01*
Y220662D01*
X905423Y221608D01*
X913693Y227133D01*
X919218Y235403D01*
X920164Y240157D01*
D02*
G37*
G36*
X270558D02*
X251063D01*
Y220662D01*
X255817Y221608D01*
X264087Y227133D01*
X269612Y235403D01*
X270558Y240157D01*
D02*
G37*
G36*
X241063D02*
X221568D01*
X222513Y235403D01*
X228039Y227133D01*
X236308Y221608D01*
X241063Y220662D01*
Y240157D01*
D02*
G37*
G36*
X211503D02*
X192008D01*
Y220662D01*
X196762Y221608D01*
X205032Y227133D01*
X210557Y235403D01*
X211503Y240157D01*
D02*
G37*
G36*
X182008D02*
X162513D01*
X163458Y235403D01*
X168984Y227133D01*
X177253Y221608D01*
X182008Y220662D01*
Y240157D01*
D02*
G37*
G36*
X152448D02*
X132953D01*
Y220662D01*
X137707Y221608D01*
X145977Y227133D01*
X151502Y235403D01*
X152448Y240157D01*
D02*
G37*
G36*
X122953D02*
X103457D01*
X104403Y235403D01*
X109929Y227133D01*
X118198Y221608D01*
X122953Y220662D01*
Y240157D01*
D02*
G37*
G36*
X93393D02*
X73898D01*
Y220662D01*
X78652Y221608D01*
X86922Y227133D01*
X92447Y235403D01*
X93393Y240157D01*
D02*
G37*
G36*
X63898D02*
X44402D01*
X45348Y235403D01*
X50874Y227133D01*
X59143Y221608D01*
X63898Y220662D01*
Y240157D01*
D02*
G37*
G36*
X1048307Y210598D02*
Y191102D01*
X1067802D01*
X1066856Y195857D01*
X1061331Y204126D01*
X1053061Y209652D01*
X1048307Y210598D01*
D02*
G37*
G36*
X1038307D02*
X1033552Y209652D01*
X1025283Y204126D01*
X1019757Y195857D01*
X1018812Y191102D01*
X1038307D01*
Y210598D01*
D02*
G37*
G36*
X989252D02*
Y191102D01*
X1008747D01*
X1007801Y195857D01*
X1002276Y204126D01*
X994006Y209652D01*
X989252Y210598D01*
D02*
G37*
G36*
X979252D02*
X974497Y209652D01*
X966228Y204126D01*
X960702Y195857D01*
X959756Y191102D01*
X979252D01*
Y210598D01*
D02*
G37*
G36*
X930197D02*
Y191102D01*
X949692D01*
X948746Y195857D01*
X943221Y204126D01*
X934951Y209652D01*
X930197Y210598D01*
D02*
G37*
G36*
X920197D02*
X915442Y209652D01*
X907173Y204126D01*
X901647Y195857D01*
X900701Y191102D01*
X920197D01*
Y210598D01*
D02*
G37*
G36*
X871141D02*
Y191102D01*
X890637D01*
X889691Y195857D01*
X884165Y204126D01*
X875896Y209652D01*
X871141Y210598D01*
D02*
G37*
G36*
X861141D02*
X856387Y209652D01*
X848117Y204126D01*
X842592Y195857D01*
X841646Y191102D01*
X861141D01*
Y210598D01*
D02*
G37*
G36*
X211535D02*
X206781Y209652D01*
X198511Y204126D01*
X192986Y195857D01*
X192040Y191102D01*
X211535D01*
Y210598D01*
D02*
G37*
G36*
X1067802Y181102D02*
X1048307D01*
Y161607D01*
X1053061Y162553D01*
X1061331Y168078D01*
X1066856Y176348D01*
X1067802Y181102D01*
D02*
G37*
G36*
X1038307D02*
X1018812D01*
X1019757Y176348D01*
X1025283Y168078D01*
X1033552Y162553D01*
X1038307Y161607D01*
Y181102D01*
D02*
G37*
G36*
X1008747D02*
X989252D01*
Y161607D01*
X994006Y162553D01*
X1002276Y168078D01*
X1007801Y176348D01*
X1008747Y181102D01*
D02*
G37*
G36*
X979252D02*
X959756D01*
X960702Y176348D01*
X966228Y168078D01*
X974497Y162553D01*
X979252Y161607D01*
Y181102D01*
D02*
G37*
G36*
X949692D02*
X930197D01*
Y161607D01*
X934951Y162553D01*
X943221Y168078D01*
X948746Y176348D01*
X949692Y181102D01*
D02*
G37*
G36*
X920197D02*
X900701D01*
X901647Y176348D01*
X907173Y168078D01*
X915442Y162553D01*
X920197Y161607D01*
Y181102D01*
D02*
G37*
G36*
X890637D02*
X871141D01*
Y161607D01*
X875896Y162553D01*
X884165Y168078D01*
X889691Y176348D01*
X890637Y181102D01*
D02*
G37*
G36*
X861141D02*
X841646D01*
X842592Y176348D01*
X848117Y168078D01*
X856387Y162553D01*
X861141Y161607D01*
Y181102D01*
D02*
G37*
G36*
X119173Y212155D02*
Y128478D01*
X202850D01*
X201629Y140874D01*
X196555Y157601D01*
X190836Y168300D01*
X189595Y170624D01*
X194747Y173712D01*
X196219Y171510D01*
X198511Y168078D01*
X206781Y162553D01*
X211535Y161607D01*
Y181102D01*
X192040D01*
X192463Y178977D01*
X192986Y176348D01*
X187895Y173530D01*
X186294Y175480D01*
X177226Y186530D01*
X163713Y197619D01*
X148297Y205860D01*
X131569Y210934D01*
X119173Y212155D01*
D02*
G37*
G36*
X1018779Y151542D02*
Y132047D01*
X1038274D01*
X1037329Y136802D01*
X1031803Y145071D01*
X1023534Y150597D01*
X1018779Y151542D01*
D02*
G37*
G36*
X1008779D02*
X1004025Y150597D01*
X995755Y145071D01*
X990230Y136802D01*
X989284Y132047D01*
X1008779D01*
Y151542D01*
D02*
G37*
G36*
X959724D02*
Y132047D01*
X979219D01*
X978274Y136802D01*
X972748Y145071D01*
X964479Y150597D01*
X959724Y151542D01*
D02*
G37*
G36*
X949724D02*
X944970Y150597D01*
X936700Y145071D01*
X931175Y136802D01*
X930229Y132047D01*
X949724D01*
Y151542D01*
D02*
G37*
G36*
X900669D02*
Y132047D01*
X920164D01*
X919218Y136802D01*
X913693Y145071D01*
X905423Y150597D01*
X900669Y151542D01*
D02*
G37*
G36*
X890669D02*
X885914Y150597D01*
X877645Y145071D01*
X872120Y136802D01*
X871174Y132047D01*
X890669D01*
Y151542D01*
D02*
G37*
G36*
X841614D02*
Y132047D01*
X861109D01*
X860163Y136802D01*
X854638Y145071D01*
X846368Y150597D01*
X841614Y151542D01*
D02*
G37*
G36*
X831614D02*
X826859Y150597D01*
X818590Y145071D01*
X813064Y136802D01*
X812119Y132047D01*
X831614D01*
Y151542D01*
D02*
G37*
G36*
X109173Y212155D02*
X96777Y210934D01*
X80049Y205860D01*
X64633Y197619D01*
X51121Y186530D01*
X40032Y173018D01*
X31791Y157601D01*
X26717Y140874D01*
X25496Y128478D01*
X109173D01*
Y212155D01*
D02*
G37*
G36*
X831614Y122047D02*
X812119D01*
X813064Y117293D01*
X818590Y109023D01*
X826859Y103498D01*
X831614Y102552D01*
Y122047D01*
D02*
G37*
G36*
X802054D02*
X782559D01*
Y102552D01*
X787313Y103498D01*
X795583Y109023D01*
X801108Y117293D01*
X802054Y122047D01*
D02*
G37*
G36*
X1038274D02*
X1018779D01*
Y102552D01*
X1023534Y103498D01*
X1031803Y109023D01*
X1037329Y117293D01*
X1038274Y122047D01*
D02*
G37*
G36*
X1008779D02*
X989284D01*
X990230Y117293D01*
X995755Y109023D01*
X1004025Y103498D01*
X1008779Y102552D01*
Y122047D01*
D02*
G37*
G36*
X979219D02*
X959724D01*
Y102552D01*
X964479Y103498D01*
X972748Y109023D01*
X978274Y117293D01*
X979219Y122047D01*
D02*
G37*
G36*
X949724D02*
X930229D01*
X931175Y117293D01*
X936700Y109023D01*
X944970Y103498D01*
X949724Y102552D01*
Y122047D01*
D02*
G37*
G36*
X920164D02*
X900669D01*
Y102552D01*
X905423Y103498D01*
X913693Y109023D01*
X919218Y117293D01*
X920164Y122047D01*
D02*
G37*
G36*
X890669D02*
X871174D01*
X872120Y117293D01*
X877645Y109023D01*
X885914Y103498D01*
X890669Y102552D01*
Y122047D01*
D02*
G37*
G36*
X861109D02*
X841614D01*
Y102552D01*
X846368Y103498D01*
X854638Y109023D01*
X860163Y117293D01*
X861109Y122047D01*
D02*
G37*
G36*
X1048307Y92487D02*
Y72992D01*
X1067802D01*
X1066856Y77747D01*
X1061331Y86016D01*
X1053061Y91542D01*
X1048307Y92487D01*
D02*
G37*
G36*
X1038307D02*
X1033552Y91542D01*
X1025283Y86016D01*
X1019757Y77747D01*
X1018812Y72992D01*
X1038307D01*
Y92487D01*
D02*
G37*
G36*
X989252D02*
Y72992D01*
X1008747D01*
X1007801Y77747D01*
X1002276Y86016D01*
X994006Y91542D01*
X989252Y92487D01*
D02*
G37*
G36*
X979252D02*
X974497Y91542D01*
X966228Y86016D01*
X960702Y77747D01*
X959756Y72992D01*
X979252D01*
Y92487D01*
D02*
G37*
G36*
X930197D02*
Y72992D01*
X949692D01*
X948746Y77747D01*
X943221Y86016D01*
X934951Y91542D01*
X930197Y92487D01*
D02*
G37*
G36*
X920197D02*
X915442Y91542D01*
X907173Y86016D01*
X901647Y77747D01*
X900701Y72992D01*
X920197D01*
Y92487D01*
D02*
G37*
G36*
X871141D02*
Y72992D01*
X890637D01*
X889691Y77747D01*
X884165Y86016D01*
X875896Y91542D01*
X871141Y92487D01*
D02*
G37*
G36*
X861141D02*
X856387Y91542D01*
X848117Y86016D01*
X842592Y77747D01*
X841646Y72992D01*
X861141D01*
Y92487D01*
D02*
G37*
G36*
X812086D02*
Y72992D01*
X831582D01*
X830636Y77747D01*
X825110Y86016D01*
X816841Y91542D01*
X812086Y92487D01*
D02*
G37*
G36*
X802086D02*
X797332Y91542D01*
X789062Y86016D01*
X783537Y77747D01*
X782591Y72992D01*
X802086D01*
Y92487D01*
D02*
G37*
G36*
X753031D02*
Y72992D01*
X772527D01*
X771581Y77747D01*
X766055Y86016D01*
X757786Y91542D01*
X753031Y92487D01*
D02*
G37*
G36*
X743031D02*
X738277Y91542D01*
X730007Y86016D01*
X724482Y77747D01*
X723536Y72992D01*
X743031D01*
Y92487D01*
D02*
G37*
G36*
X280591D02*
Y72992D01*
X300086D01*
X299140Y77747D01*
X293615Y86016D01*
X285345Y91542D01*
X280591Y92487D01*
D02*
G37*
G36*
X270591D02*
X265836Y91542D01*
X257567Y86016D01*
X252041Y77747D01*
X251095Y72992D01*
X270591D01*
Y92487D01*
D02*
G37*
G36*
X221535D02*
Y72992D01*
X241031D01*
X240085Y77747D01*
X234559Y86016D01*
X226290Y91542D01*
X221535Y92487D01*
D02*
G37*
G36*
X1242220Y131134D02*
X1158543D01*
Y47457D01*
X1170939Y48678D01*
X1187667Y53752D01*
X1203083Y61992D01*
X1216596Y73082D01*
X1227685Y86594D01*
X1235925Y102010D01*
X1240999Y118738D01*
X1242220Y131134D01*
D02*
G37*
G36*
X1148543D02*
X1064866D01*
X1066087Y118738D01*
X1071161Y102010D01*
X1079402Y86594D01*
X1090491Y73082D01*
X1104003Y61992D01*
X1119420Y53752D01*
X1136147Y48678D01*
X1148543Y47457D01*
Y131134D01*
D02*
G37*
G36*
X1067802Y62992D02*
X1048307D01*
Y43497D01*
X1053061Y44443D01*
X1061331Y49968D01*
X1066856Y58238D01*
X1067802Y62992D01*
D02*
G37*
G36*
X1038307D02*
X1018812D01*
X1019757Y58238D01*
X1025283Y49968D01*
X1033552Y44443D01*
X1038307Y43497D01*
Y62992D01*
D02*
G37*
G36*
X1008747D02*
X989252D01*
Y43497D01*
X994006Y44443D01*
X1002276Y49968D01*
X1007801Y58238D01*
X1008747Y62992D01*
D02*
G37*
G36*
X979252D02*
X959756D01*
X960702Y58238D01*
X966228Y49968D01*
X974497Y44443D01*
X979252Y43497D01*
Y62992D01*
D02*
G37*
G36*
X949692D02*
X930197D01*
Y43497D01*
X934951Y44443D01*
X943221Y49968D01*
X948746Y58238D01*
X949692Y62992D01*
D02*
G37*
G36*
X920197D02*
X900701D01*
X901647Y58238D01*
X907173Y49968D01*
X915442Y44443D01*
X920197Y43497D01*
Y62992D01*
D02*
G37*
G36*
X890637D02*
X871141D01*
Y43497D01*
X875896Y44443D01*
X884165Y49968D01*
X889691Y58238D01*
X890637Y62992D01*
D02*
G37*
G36*
X861141D02*
X841646D01*
X842592Y58238D01*
X848117Y49968D01*
X856387Y44443D01*
X861141Y43497D01*
Y62992D01*
D02*
G37*
G36*
X831582D02*
X812086D01*
Y43497D01*
X816841Y44443D01*
X825110Y49968D01*
X830636Y58238D01*
X831582Y62992D01*
D02*
G37*
G36*
X802086D02*
X782591D01*
X783537Y58238D01*
X789062Y49968D01*
X797332Y44443D01*
X802086Y43497D01*
Y62992D01*
D02*
G37*
G36*
X772527D02*
X753031D01*
Y43497D01*
X757786Y44443D01*
X766055Y49968D01*
X771581Y58238D01*
X772527Y62992D01*
D02*
G37*
G36*
X743031D02*
X723536D01*
X724482Y58238D01*
X730007Y49968D01*
X738277Y44443D01*
X743031Y43497D01*
Y62992D01*
D02*
G37*
G36*
X300086D02*
X280591D01*
Y43497D01*
X285345Y44443D01*
X293615Y49968D01*
X299140Y58238D01*
X300086Y62992D01*
D02*
G37*
G36*
X270591D02*
X251095D01*
X252041Y58238D01*
X257567Y49968D01*
X265836Y44443D01*
X270591Y43497D01*
Y62992D01*
D02*
G37*
G36*
X241031D02*
X221535D01*
Y43497D01*
X226290Y44443D01*
X234559Y49968D01*
X240085Y58238D01*
X241031Y62992D01*
D02*
G37*
G36*
X202850Y118478D02*
X119173D01*
Y34801D01*
X131569Y36022D01*
X148297Y41096D01*
X163713Y49336D01*
X177226Y60425D01*
X185405Y70393D01*
X190475Y68235D01*
X191075Y67843D01*
X192986Y58238D01*
X198511Y49968D01*
X206781Y44443D01*
X211535Y43497D01*
Y67992D01*
Y92487D01*
X206781Y91542D01*
X202652Y88783D01*
X197533Y92579D01*
X201629Y106082D01*
X202850Y118478D01*
D02*
G37*
G36*
X109173D02*
X25496D01*
X26717Y106082D01*
X31791Y89354D01*
X40032Y73938D01*
X51121Y60425D01*
X64633Y49336D01*
X80049Y41096D01*
X96777Y36022D01*
X109173Y34801D01*
Y118478D01*
D02*
G37*
G36*
X437913Y1500873D02*
X433159Y1499927D01*
X424889Y1494401D01*
X419364Y1486132D01*
X418418Y1481378D01*
X437913D01*
Y1500873D01*
D02*
G37*
G36*
X270748Y1618983D02*
Y1599488D01*
X290243D01*
X289297Y1604242D01*
X283772Y1612512D01*
X275502Y1618037D01*
X270748Y1618983D01*
D02*
G37*
G36*
X260748D02*
X255993Y1618037D01*
X247724Y1612512D01*
X242198Y1604242D01*
X241253Y1599488D01*
X260748D01*
Y1618983D01*
D02*
G37*
G36*
X319803Y1589488D02*
X300308D01*
X301253Y1584733D01*
X306779Y1576464D01*
X315048Y1570938D01*
X319803Y1569993D01*
Y1589488D01*
D02*
G37*
G36*
X290243D02*
X270748D01*
Y1569993D01*
X275502Y1570938D01*
X283772Y1576464D01*
X289297Y1584733D01*
X290243Y1589488D01*
D02*
G37*
G36*
X260748D02*
X241253D01*
X242198Y1584733D01*
X247724Y1576464D01*
X255993Y1570938D01*
X260748Y1569993D01*
Y1589488D01*
D02*
G37*
G36*
X149623Y1562930D02*
Y1543435D01*
X169119D01*
X168173Y1548190D01*
X162647Y1556459D01*
X154378Y1561985D01*
X149623Y1562930D01*
D02*
G37*
G36*
X139623D02*
X134869Y1561985D01*
X126599Y1556459D01*
X121074Y1548190D01*
X120128Y1543435D01*
X139623D01*
Y1562930D01*
D02*
G37*
G36*
X241220Y1559928D02*
Y1540433D01*
X260716D01*
X259770Y1545187D01*
X254244Y1553457D01*
X245975Y1558982D01*
X241220Y1559928D01*
D02*
G37*
G36*
X231220D02*
X226466Y1558982D01*
X218196Y1553457D01*
X212671Y1545187D01*
X211725Y1540433D01*
X231220D01*
Y1559928D01*
D02*
G37*
G36*
X169119Y1533435D02*
X149623D01*
Y1513940D01*
X154378Y1514886D01*
X162647Y1520411D01*
X168173Y1528681D01*
X169119Y1533435D01*
D02*
G37*
G36*
X139623D02*
X120128D01*
X121074Y1528681D01*
X126599Y1520411D01*
X134869Y1514886D01*
X139623Y1513940D01*
Y1533435D01*
D02*
G37*
G36*
X260716Y1530433D02*
X241220D01*
Y1510937D01*
X245975Y1511883D01*
X254244Y1517409D01*
X259770Y1525678D01*
X260716Y1530433D01*
D02*
G37*
G36*
X231220D02*
X211725D01*
X212671Y1525678D01*
X218196Y1517409D01*
X226466Y1511883D01*
X231220Y1510937D01*
Y1530433D01*
D02*
G37*
G36*
X253885Y1480527D02*
X249131Y1479581D01*
X240861Y1474056D01*
X235336Y1465786D01*
X234390Y1461032D01*
X253885D01*
Y1480527D01*
D02*
G37*
G36*
Y1451032D02*
X234390D01*
X235336Y1446277D01*
X240861Y1438008D01*
X249131Y1432482D01*
X253885Y1431536D01*
Y1451032D01*
D02*
G37*
G36*
X260748Y1382763D02*
X255993Y1381817D01*
X247724Y1376291D01*
X242198Y1368022D01*
X241253Y1363267D01*
X260748D01*
Y1382763D01*
D02*
G37*
G36*
Y1353267D02*
X241253D01*
X242198Y1348513D01*
X247724Y1340243D01*
X255993Y1334718D01*
X260748Y1333772D01*
Y1353267D01*
D02*
G37*
G36*
X1035539Y1243873D02*
Y1224378D01*
X1055034D01*
X1054088Y1229133D01*
X1048563Y1237402D01*
X1040293Y1242928D01*
X1035539Y1243873D01*
D02*
G37*
G36*
X1025539D02*
X1020784Y1242928D01*
X1012515Y1237402D01*
X1006989Y1229133D01*
X1006044Y1224378D01*
X1025539D01*
Y1243873D01*
D02*
G37*
G36*
X1028432Y1176102D02*
X1008937D01*
Y1156607D01*
X1013691Y1157553D01*
X1021961Y1163078D01*
X1027486Y1171348D01*
X1028432Y1176102D01*
D02*
G37*
G36*
X1028464Y1146542D02*
X1023710Y1145596D01*
X1015440Y1140071D01*
X1009915Y1131801D01*
X1008969Y1127047D01*
X1028464D01*
Y1146542D01*
D02*
G37*
G36*
X87677Y1307960D02*
Y1288465D01*
X107172D01*
X106227Y1293219D01*
X100701Y1301489D01*
X92432Y1307014D01*
X87677Y1307960D01*
D02*
G37*
G36*
X77677D02*
X72923Y1307014D01*
X64653Y1301489D01*
X59128Y1293219D01*
X58182Y1288465D01*
X77677D01*
Y1307960D01*
D02*
G37*
G36*
X107172Y1278465D02*
X87677D01*
Y1258969D01*
X92432Y1259915D01*
X100701Y1265441D01*
X106227Y1273710D01*
X107172Y1278465D01*
D02*
G37*
G36*
X77677D02*
X58182D01*
X59128Y1273710D01*
X64653Y1265441D01*
X72923Y1259915D01*
X77677Y1258969D01*
Y1278465D01*
D02*
G37*
G36*
X944988Y1346639D02*
Y1327144D01*
X964483D01*
X963537Y1331898D01*
X958012Y1340168D01*
X949742Y1345693D01*
X944988Y1346639D01*
D02*
G37*
G36*
X934988D02*
X930233Y1345693D01*
X921964Y1340168D01*
X916438Y1331898D01*
X915492Y1327144D01*
X934988D01*
Y1346639D01*
D02*
G37*
G36*
X964483Y1317144D02*
X944988D01*
Y1297649D01*
X949742Y1298594D01*
X958012Y1304120D01*
X963537Y1312389D01*
X964483Y1317144D01*
D02*
G37*
G36*
X934988D02*
X915492D01*
X916438Y1312389D01*
X921964Y1304120D01*
X930233Y1298594D01*
X934988Y1297649D01*
Y1317144D01*
D02*
G37*
G36*
X1136889Y1332645D02*
Y1313149D01*
X1156385D01*
X1155439Y1317904D01*
X1149913Y1326173D01*
X1141644Y1331699D01*
X1136889Y1332645D01*
D02*
G37*
G36*
X1126889D02*
X1122135Y1331699D01*
X1113865Y1326173D01*
X1108340Y1317904D01*
X1107394Y1313149D01*
X1126889D01*
Y1332645D01*
D02*
G37*
G36*
X1156385Y1303149D02*
X1136889D01*
Y1283654D01*
X1141644Y1284600D01*
X1149913Y1290125D01*
X1155439Y1298395D01*
X1156385Y1303149D01*
D02*
G37*
G36*
X1126889D02*
X1107394D01*
X1108340Y1298395D01*
X1113865Y1290125D01*
X1122135Y1284600D01*
X1126889Y1283654D01*
Y1303149D01*
D02*
G37*
%LPD*%
D10*
X958083Y1748717D02*
D03*
X921892Y1712527D02*
D03*
D11*
X1197744Y1695957D02*
D03*
X1235327Y1658374D02*
D03*
D12*
X1188976Y1419370D02*
D03*
X1137795D02*
D03*
X703346Y1466417D02*
D03*
X754528D02*
D03*
X585069D02*
D03*
X636250D02*
D03*
D13*
X858268Y1472441D02*
D03*
X500000Y1559055D02*
D03*
D14*
X1171283Y1593811D02*
D03*
X1062712Y1485240D02*
D03*
X1135928Y1629167D02*
D03*
X1027356Y1520595D02*
D03*
X1100573Y1664522D02*
D03*
X992001Y1555950D02*
D03*
X1065217Y1699877D02*
D03*
X956646Y1591306D02*
D03*
X1029862Y1735233D02*
D03*
X921290Y1626661D02*
D03*
D15*
X669291Y1591585D02*
D03*
Y1538435D02*
D03*
X368378Y937992D02*
D03*
Y991142D02*
D03*
X297345Y937992D02*
D03*
Y991142D02*
D03*
X1035433Y1009124D02*
D03*
Y1062274D02*
D03*
X73937Y1414537D02*
D03*
Y1361388D02*
D03*
D16*
X577741Y1245344D02*
D03*
X597426D02*
D03*
X617111D02*
D03*
X636796D02*
D03*
X656481D02*
D03*
X676166D02*
D03*
X695851D02*
D03*
X715536D02*
D03*
X735221D02*
D03*
X754906D02*
D03*
X774591D02*
D03*
X794276D02*
D03*
X813961D02*
D03*
X833646D02*
D03*
X853331D02*
D03*
X873016D02*
D03*
Y792589D02*
D03*
X853331D02*
D03*
X833646D02*
D03*
X813961D02*
D03*
X794276D02*
D03*
X774591D02*
D03*
X754906D02*
D03*
X735221D02*
D03*
X715536D02*
D03*
X695851D02*
D03*
X676166D02*
D03*
X656481D02*
D03*
X636796D02*
D03*
X617111D02*
D03*
X597426D02*
D03*
X577741D02*
D03*
D17*
X951756Y1166604D02*
D03*
Y1146919D02*
D03*
Y1127234D02*
D03*
Y1107549D02*
D03*
Y1087864D02*
D03*
Y1068179D02*
D03*
Y1048494D02*
D03*
Y1028809D02*
D03*
Y1009124D02*
D03*
Y989439D02*
D03*
Y969754D02*
D03*
Y950069D02*
D03*
Y930384D02*
D03*
Y910699D02*
D03*
Y891014D02*
D03*
Y871329D02*
D03*
X499000D02*
D03*
Y891014D02*
D03*
Y910699D02*
D03*
Y930384D02*
D03*
Y950069D02*
D03*
Y969754D02*
D03*
Y989439D02*
D03*
Y1009124D02*
D03*
Y1028809D02*
D03*
Y1048494D02*
D03*
Y1068179D02*
D03*
Y1087864D02*
D03*
Y1107549D02*
D03*
Y1127234D02*
D03*
Y1146919D02*
D03*
Y1166604D02*
D03*
D18*
X322835Y1208661D02*
D03*
X204724Y1122047D02*
D03*
D19*
X443937Y1434341D02*
D03*
Y1359537D02*
D03*
X522677Y1396939D02*
D03*
D20*
X378937Y1543356D02*
D03*
Y1594537D02*
D03*
D21*
X157352Y1469537D02*
D03*
Y1419537D02*
D03*
Y1369537D02*
D03*
Y1319537D02*
D03*
X371919Y1469537D02*
D03*
Y1419537D02*
D03*
Y1369537D02*
D03*
Y1319537D02*
D03*
D22*
X454417Y693357D02*
Y922965D01*
X360939Y627669D02*
X388729D01*
X432086Y696483D02*
Y937992D01*
X344297Y646478D02*
X382081D01*
X432086Y696483D01*
X388729Y627669D02*
X454417Y693357D01*
X401839Y708661D02*
Y720900D01*
X398968Y723771D02*
X401839Y720900D01*
X398968Y723771D02*
X413386Y738189D01*
X297345Y992126D02*
X424030D01*
X247897Y742878D02*
X344297Y646478D01*
X247897Y742878D02*
Y778304D01*
X284527Y996063D02*
X289448Y991142D01*
X297345D01*
X413386Y738189D02*
Y948628D01*
X454417Y922965D02*
X461835Y930384D01*
X327758Y594488D02*
X360939Y627669D01*
X1055118Y461757D02*
Y929134D01*
X1027874Y491081D02*
Y920945D01*
X1007874Y764779D02*
Y877953D01*
X601362Y358267D02*
X1007874Y764779D01*
X693367Y2022961D02*
X700777Y2015551D01*
Y1707583D02*
Y2015551D01*
Y1707583D02*
X770158Y1638203D01*
Y1555832D02*
Y1638203D01*
X765653Y1551327D02*
X770158Y1555832D01*
X765653Y1477543D02*
Y1551327D01*
X754528Y1466417D02*
X765653Y1477543D01*
X575257Y2022961D02*
X682777Y1915441D01*
Y1732870D02*
Y1915441D01*
X580236Y1630329D02*
X682777Y1732870D01*
X580236Y1471250D02*
Y1630329D01*
Y1471250D02*
X585069Y1466417D01*
X330871Y389045D02*
X585896D01*
X951756Y754906D02*
Y871329D01*
X585896Y389045D02*
X951756Y754906D01*
X342519Y358267D02*
X601362D01*
X951756Y891014D02*
X994813D01*
X1007874Y877953D01*
X873016Y711599D02*
Y792589D01*
X623407Y86614D02*
X751950Y215157D01*
X951756Y950069D02*
X998750D01*
X751950Y215157D02*
X754450D01*
X769095Y229802D02*
Y232302D01*
X998750Y950069D02*
X1027874Y920945D01*
X769095Y232302D02*
X1027874Y491081D01*
X754450Y215157D02*
X769095Y229802D01*
X853331Y746402D02*
Y792589D01*
X259842Y165354D02*
X456693D01*
X492126Y200787D01*
X393701Y74803D02*
X561447D01*
X589636Y46614D02*
X639975D01*
X951756Y969754D02*
X1014498D01*
X639975Y46614D02*
X1055118Y461757D01*
X1014498Y969754D02*
X1055118Y929134D01*
X561447Y74803D02*
X589636Y46614D01*
X322835Y228346D02*
Y298823D01*
X312519Y309139D02*
X322835Y298823D01*
X312519Y309139D02*
Y370693D01*
X330871Y389045D01*
X380767Y419045D02*
X424355D01*
X432455Y410945D01*
X572362D01*
X873016Y711599D01*
X444882Y440945D02*
X547874D01*
X853331Y746402D01*
X461835Y930384D02*
X499000D01*
X432086Y937992D02*
X444163Y950069D01*
X499000D01*
X413386Y948628D02*
X434512Y969754D01*
X499000D01*
Y989439D02*
X566859D01*
X282759Y938976D02*
X351028D01*
X784715Y1009124D02*
X951756D01*
X1035433D02*
X1040620Y1003937D01*
X1122047D01*
X597426Y1245344D02*
Y1294419D01*
X637652Y1334646D01*
X806779D01*
X898463Y1426330D01*
Y1603833D01*
X921290Y1626661D01*
X1023622Y1809198D02*
X1147495D01*
X963141Y1748717D02*
X1023622Y1809198D01*
X958083Y1748717D02*
X963141D01*
X899964Y1686492D02*
X921892Y1708420D01*
Y1712527D01*
X899964Y1647988D02*
Y1686492D01*
Y1647988D02*
X921290Y1626661D01*
X696630Y1277304D02*
X711088Y1291762D01*
X696630Y1246124D02*
Y1277304D01*
X695851Y1245344D02*
X696630Y1246124D01*
X711088Y1291762D02*
X826236D01*
X666418Y1311024D02*
X817214D01*
X636796Y1281402D02*
X666418Y1311024D01*
X636796Y1245344D02*
Y1281402D01*
X617111Y1207645D02*
Y1245344D01*
Y1207645D02*
X627905Y1196850D01*
X894111D01*
X1147495Y1809198D02*
X1251968Y1704724D01*
Y1675016D02*
Y1704724D01*
X1235327Y1658374D02*
X1251968Y1675016D01*
X1171283Y1593811D02*
Y1594331D01*
X1235327Y1658374D01*
X1135928Y1629167D02*
X1197744Y1690983D01*
Y1695957D01*
X1188976Y1419370D02*
Y1576118D01*
X1171283Y1593811D02*
X1188976Y1576118D01*
X1082677Y1420945D02*
X1136220D01*
X1188976Y1215817D02*
Y1419370D01*
X1136220Y1420945D02*
X1137795Y1419370D01*
X1050118Y1076959D02*
X1188976Y1215817D01*
X1050118Y1074990D02*
Y1076959D01*
X1037402Y1062274D02*
X1050118Y1074990D01*
X1035433Y1062274D02*
X1037402D01*
X1045330Y1610236D02*
X1046287D01*
X1100573Y1664522D01*
X1100573D01*
X1135928Y1629167D01*
X498095Y1047589D02*
X499000Y1048494D01*
X498095Y1029715D02*
Y1047589D01*
Y1029715D02*
X499000Y1028809D01*
X760551Y1472441D02*
X858268D01*
X754528Y1466417D02*
X760551Y1472441D01*
X923779Y1417589D02*
Y1546462D01*
X956646Y1579329D01*
Y1591306D01*
X943779Y1409305D02*
Y1507729D01*
X992001Y1555950D01*
X996063Y1298802D02*
Y1475752D01*
X1027356Y1507045D01*
Y1520595D01*
X1047590Y1456032D02*
X1082677Y1420945D01*
X1047590Y1456032D02*
Y1470118D01*
X1062712Y1485240D01*
X35433Y1405651D02*
X44319Y1414537D01*
X35433Y1248032D02*
Y1405651D01*
X951756Y1009124D02*
X1035433D01*
X728346Y1027559D02*
X729596Y1028809D01*
X727096D02*
X728346Y1027559D01*
X44319Y1414537D02*
X73937D01*
X499000Y1009124D02*
Y1028809D01*
X441028Y1009124D02*
X499000D01*
Y1028809D02*
X727096D01*
X729596D02*
X951756D01*
X854331Y1157480D02*
X870079Y1141732D01*
X1082677Y1358268D02*
Y1420945D01*
X617111Y1157480D02*
X854331D01*
X577741Y1196850D02*
X617111Y1157480D01*
X577741Y1196850D02*
Y1245344D01*
X894111Y1196850D02*
X996063Y1298802D01*
X826236Y1291762D02*
X943779Y1409305D01*
X817214Y1311024D02*
X923779Y1417589D01*
X1019370Y1062274D02*
X1035433D01*
X994577Y1037480D02*
X1019370Y1062274D01*
X481990Y1669291D02*
X559055D01*
X418968Y1606270D02*
X481990Y1669291D01*
X390669Y1606270D02*
X418968D01*
X378937Y1594537D02*
X390669Y1606270D01*
X368378Y861220D02*
Y937992D01*
X424030Y992126D02*
X441028Y1009124D01*
X344481Y1068179D02*
X499000D01*
X994436Y1037480D02*
X994577D01*
X985765Y1028809D02*
X994436Y1037480D01*
X951756Y1028809D02*
X985765D01*
X668356Y1539370D02*
X669291Y1538435D01*
X305118Y1345832D02*
X328806Y1322144D01*
X369313D01*
X371919Y1319537D01*
X500000Y1466417D02*
Y1559055D01*
X305118Y1345832D02*
Y1539370D01*
X266896Y1665984D02*
X305522D01*
X195400Y1594488D02*
X266896Y1665984D01*
X127530Y1594488D02*
X195400D01*
X305522Y1665984D02*
X376969Y1594537D01*
X610236Y1539370D02*
X668356D01*
X376969Y1594537D02*
X378937D01*
X74803Y1541762D02*
X127530Y1594488D01*
X255180Y1157480D02*
X344481Y1068179D01*
X196535Y1216125D02*
X255180Y1157480D01*
X235472Y1137795D02*
X235495D01*
X255180Y1157480D01*
X305118Y1208661D02*
X322835D01*
X267716Y1173228D02*
X346457Y1094488D01*
X216535Y1224409D02*
X267716Y1173228D01*
X269685D01*
X305118Y1208661D01*
X168760Y1319537D02*
X196535Y1291762D01*
Y1216125D02*
Y1291762D01*
X216535Y1224409D02*
Y1427087D01*
X346457Y1094488D02*
X458368D01*
X464992Y1087864D01*
X157352Y1319537D02*
X168760D01*
X464992Y1087864D02*
X499000D01*
X174085Y1469537D02*
X216535Y1427087D01*
X157352Y1469537D02*
X174085D01*
X506678Y1087864D02*
X506678Y1087864D01*
X74803Y1415403D02*
Y1541762D01*
X678179Y1600472D02*
X740158D01*
X669291Y1591585D02*
X678179Y1600472D01*
X73937Y1361388D02*
X82087Y1369537D01*
X157352D01*
X74803Y1415403D02*
X80344Y1420945D01*
X73937Y1414537D02*
X74803Y1415403D01*
X80344Y1420945D02*
X148199D01*
X149606Y1419537D01*
X157352D01*
X372644Y1469537D02*
X378937Y1475830D01*
X371919Y1469537D02*
X372644D01*
X378937Y1475830D02*
Y1543356D01*
X500000Y1466417D02*
X585069D01*
X478465D02*
X500000D01*
X523374Y1397635D02*
X637794D01*
X522677Y1396939D02*
X523374Y1397635D01*
X445839Y1357635D02*
X660785D01*
X443937Y1359537D02*
X445839Y1357635D01*
X660785D02*
X754528Y1451378D01*
X669291Y1501427D02*
Y1502441D01*
X636250Y1468386D02*
X669291Y1501427D01*
X636250Y1466417D02*
Y1468386D01*
X669291Y1502441D02*
X703346Y1468386D01*
Y1466417D02*
Y1468386D01*
X669291Y1502441D02*
Y1538435D01*
X754528Y1451378D02*
Y1466417D01*
X413866Y1366931D02*
X421260Y1359537D01*
X374526Y1366931D02*
X413866D01*
X371919Y1369537D02*
X374526Y1366931D01*
X421260Y1359537D02*
X443937D01*
X446388Y1434341D02*
X478465Y1466417D01*
X443937Y1434341D02*
X446388D01*
X371919Y1419537D02*
X392338D01*
X396393Y1423592D01*
X433189D01*
X443937Y1434341D01*
D23*
X257651Y996063D02*
X284527D01*
X248987Y987399D02*
X257651Y996063D01*
X248987Y864018D02*
Y987399D01*
Y864018D02*
X278527Y834477D01*
Y831771D02*
Y834477D01*
D24*
X492126Y200787D02*
Y246063D01*
X572835Y326772D01*
X629921D01*
X933071Y629921D01*
D25*
X811024Y870079D02*
Y880903D01*
X823402Y893281D01*
Y894269D01*
X881890Y952756D01*
D26*
X693367Y2022961D02*
D03*
X575257D02*
D03*
X457147D02*
D03*
X339037D02*
D03*
D27*
X145581Y1674213D02*
D03*
D28*
Y1215551D02*
D03*
D29*
X1161417Y1948819D02*
D03*
X114173D02*
D03*
X1153543Y136134D02*
D03*
X114173Y123478D02*
D03*
D30*
X401839Y708661D02*
D03*
X393701Y74803D02*
D03*
X1250000Y2016811D02*
D03*
X1220472Y1839645D02*
D03*
X1250000Y1780590D02*
D03*
Y1544370D02*
D03*
X1220472Y1485315D02*
D03*
X1250000Y1426259D02*
D03*
X1220472Y1367204D02*
D03*
X1250000Y1308149D02*
D03*
X1220472Y1249094D02*
D03*
X1250000Y1190039D02*
D03*
X1220472Y1130984D02*
D03*
X1250000Y1071929D02*
D03*
X1220472Y1012874D02*
D03*
X1250000Y953819D02*
D03*
X1220472Y894764D02*
D03*
X1250000Y835708D02*
D03*
X1220472Y776653D02*
D03*
X1250000Y717598D02*
D03*
X1220472Y658543D02*
D03*
X1250000Y599488D02*
D03*
X1220472Y540433D02*
D03*
X1250000Y481378D02*
D03*
X1220472Y422323D02*
D03*
X1250000Y363268D02*
D03*
X1220472Y304213D02*
D03*
X1250000Y245157D02*
D03*
X1161417Y1839645D02*
D03*
Y1721535D02*
D03*
Y1130984D02*
D03*
X1190945Y1071929D02*
D03*
X1161417Y1012874D02*
D03*
X1190945Y953819D02*
D03*
X1161417Y894764D02*
D03*
X1190945Y835708D02*
D03*
Y717598D02*
D03*
X1161417Y658543D02*
D03*
X1190945Y599488D02*
D03*
X1161417Y540433D02*
D03*
X1190945Y481378D02*
D03*
X1161417Y422323D02*
D03*
X1190945Y363268D02*
D03*
X1161417Y304213D02*
D03*
X1190945Y245157D02*
D03*
X1131889Y1308149D02*
D03*
Y1071929D02*
D03*
Y953819D02*
D03*
Y835708D02*
D03*
Y599488D02*
D03*
Y481378D02*
D03*
X1102362Y422323D02*
D03*
X1131889Y363268D02*
D03*
X1102362Y304213D02*
D03*
X1131889Y245157D02*
D03*
X1072834Y363268D02*
D03*
X1043307Y304213D02*
D03*
X1072834Y245157D02*
D03*
X1043307Y186102D02*
D03*
Y67992D02*
D03*
X1013779Y363268D02*
D03*
X984252Y304213D02*
D03*
X1013779Y245157D02*
D03*
X984252Y186102D02*
D03*
X1013779Y127047D02*
D03*
X984252Y67992D02*
D03*
X954724Y245157D02*
D03*
X925197Y186102D02*
D03*
X954724Y127047D02*
D03*
X925197Y67992D02*
D03*
X895669Y245157D02*
D03*
X866141Y186102D02*
D03*
X895669Y127047D02*
D03*
X866141Y67992D02*
D03*
X836614Y363268D02*
D03*
Y127047D02*
D03*
X807086Y67992D02*
D03*
X777559Y363268D02*
D03*
X748031Y304213D02*
D03*
X777559Y127047D02*
D03*
X748031Y67992D02*
D03*
X659449Y599488D02*
D03*
X570866Y658543D02*
D03*
X600394Y599488D02*
D03*
X570866Y540433D02*
D03*
X541338Y717598D02*
D03*
X511811Y658543D02*
D03*
X541338Y599488D02*
D03*
X511811Y540433D02*
D03*
X541338Y481378D02*
D03*
X482283Y599488D02*
D03*
X452756Y540433D02*
D03*
X482283Y481378D02*
D03*
X393701Y540433D02*
D03*
X423228Y481378D02*
D03*
X334646Y540433D02*
D03*
X364173Y481378D02*
D03*
X275591Y540433D02*
D03*
X305118Y481378D02*
D03*
X275591Y422323D02*
D03*
Y304213D02*
D03*
Y67992D02*
D03*
X246063Y599488D02*
D03*
X216535Y540433D02*
D03*
X246063Y481378D02*
D03*
X216535Y422323D02*
D03*
X246063Y363268D02*
D03*
X216535Y304213D02*
D03*
X246063Y245157D02*
D03*
X216535Y186102D02*
D03*
Y67992D02*
D03*
X157480Y1012874D02*
D03*
X187008Y953819D02*
D03*
X157480Y894764D02*
D03*
X187008Y599488D02*
D03*
X157480Y540433D02*
D03*
X187008Y481378D02*
D03*
X157480Y422323D02*
D03*
X187008Y363268D02*
D03*
X157480Y304213D02*
D03*
X187008Y245157D02*
D03*
X98425Y1012874D02*
D03*
X127953Y953819D02*
D03*
X98425Y894764D02*
D03*
X127953Y835708D02*
D03*
X98425Y776653D02*
D03*
X127953Y599488D02*
D03*
X98425Y540433D02*
D03*
X127953Y481378D02*
D03*
X98425Y422323D02*
D03*
X127953Y363268D02*
D03*
X98425Y304213D02*
D03*
X127953Y245157D02*
D03*
X39370Y1130984D02*
D03*
X68898Y1071929D02*
D03*
X39370Y1012874D02*
D03*
X68898Y953819D02*
D03*
X39370Y894764D02*
D03*
X68898Y835708D02*
D03*
X39370Y776653D02*
D03*
X68898Y717598D02*
D03*
X39370Y658543D02*
D03*
X68898Y599488D02*
D03*
X39370Y540433D02*
D03*
X68898Y481378D02*
D03*
X39370Y422323D02*
D03*
X68898Y363268D02*
D03*
X39370Y304213D02*
D03*
X68898Y245157D02*
D03*
X356724Y676478D02*
D03*
X278527Y831771D02*
D03*
X327758Y594488D02*
D03*
X247897Y778304D02*
D03*
X511810Y1830705D02*
D03*
X572835Y326772D02*
D03*
X82677Y1283465D02*
D03*
X740158Y1600472D02*
D03*
X856299Y1712598D02*
D03*
X342519Y358267D02*
D03*
X1033464Y1358267D02*
D03*
X561023Y1712598D02*
D03*
X637794Y1397635D02*
D03*
X870079Y1141732D02*
D03*
X1082677Y1358268D02*
D03*
X559055Y1669291D02*
D03*
X1003937Y2007873D02*
D03*
X1033464Y1948818D02*
D03*
X1003937Y1181102D02*
D03*
X1033464Y1122047D02*
D03*
X944882Y1889763D02*
D03*
X974409Y1830708D02*
D03*
X885827Y2007873D02*
D03*
X915354Y1948818D02*
D03*
Y1830708D02*
D03*
X885827Y1771653D02*
D03*
X826771Y2007873D02*
D03*
X856299Y1830708D02*
D03*
X767716Y2007873D02*
D03*
Y1889763D02*
D03*
Y1771653D02*
D03*
X797244Y1712598D02*
D03*
X738189Y1948818D02*
D03*
Y1830708D02*
D03*
Y1712598D02*
D03*
X620078D02*
D03*
X561023Y1948818D02*
D03*
X531496Y1771653D02*
D03*
X501968Y1948818D02*
D03*
X442913D02*
D03*
Y1712598D02*
D03*
X413386Y1653543D02*
D03*
X442913Y1476378D02*
D03*
X354331Y1771653D02*
D03*
X383858Y1712598D02*
D03*
X324803Y1948818D02*
D03*
X295276Y1889763D02*
D03*
X324803Y1830708D02*
D03*
Y1712598D02*
D03*
Y1594488D02*
D03*
X295276Y1062992D02*
D03*
X236220Y2007873D02*
D03*
X265748Y1830708D02*
D03*
Y1594488D02*
D03*
X236220Y1535433D02*
D03*
X265748Y1358267D02*
D03*
X206693Y1830708D02*
D03*
Y1712598D02*
D03*
X88583Y1830708D02*
D03*
X59055Y1771653D02*
D03*
X88583Y1712598D02*
D03*
X258885Y1456032D02*
D03*
X144623Y1538435D02*
D03*
X939988Y1322144D02*
D03*
X1030539Y1219378D02*
D03*
X494961Y1751968D02*
D03*
X34476Y1626661D02*
D03*
X267743Y1751968D02*
D03*
X1045330Y1610236D02*
D03*
X259842Y165354D02*
D03*
X322835Y228346D02*
D03*
X444882Y440945D02*
D03*
X371919Y419045D02*
D03*
X623407Y86614D02*
D03*
X305118Y1539370D02*
D03*
X610236D02*
D03*
D31*
X492126Y200787D02*
D03*
D32*
X853068Y1905512D02*
D03*
X728346Y1027559D02*
D03*
X811024Y870079D02*
D03*
X881890Y952756D02*
D03*
X933071Y629921D02*
D03*
%TF.MD5,3a58fc6123b15ec44e902dc18fafefdc*%
M02*
