%TF.GenerationSoftware,Altium Limited,Altium Designer,18.1.9 (240)*%
G04 Layer_Color=2752767*
%FSLAX26Y26*%
%MOIN*%
%TF.FileFunction,Drawing*%
%TF.Part,Single*%
G01*
G75*
%TA.AperFunction,NonConductor*%
%ADD105C,0.005000*%
%ADD106C,0.006667*%
D105*
X588722Y1832882D02*
Y1872882D01*
X628722D01*
Y1832882D01*
X588722D01*
X693367Y2002961D02*
X673367Y2042961D01*
X713367D01*
X693367Y2002961D01*
X575257D02*
X555257Y2042961D01*
X595257D01*
X575257Y2002961D01*
X457147D02*
X437147Y2042961D01*
X477147D01*
X457147Y2002961D01*
X339037D02*
X319037Y2042961D01*
X359037D01*
X339037Y2002961D01*
X145581Y1654213D02*
X155581Y1664213D01*
X165581D01*
X155581Y1674213D01*
X165581Y1684213D01*
X155581D01*
X145581Y1694213D01*
X135581Y1684213D01*
X125581D01*
X135581Y1674213D01*
X125581Y1664213D01*
X135581D01*
X145581Y1654213D01*
Y1195551D02*
X155581Y1205551D01*
X165581D01*
X155581Y1215551D01*
X165581Y1225551D01*
X155581D01*
X145581Y1235551D01*
X135581Y1225551D01*
X125581D01*
X135581Y1215551D01*
X125581Y1205551D01*
X135581D01*
X145581Y1195551D01*
X1141417Y1928819D02*
X1151417Y1948819D01*
X1141417Y1968819D01*
X1161417Y1958819D01*
X1181417Y1968819D01*
X1171417Y1948819D01*
X1181417Y1928819D01*
X1161417Y1938819D01*
X1141417Y1928819D01*
X94173D02*
X104173Y1948819D01*
X94173Y1968819D01*
X114173Y1958819D01*
X134173Y1968819D01*
X124173Y1948819D01*
X134173Y1928819D01*
X114173Y1938819D01*
X94173Y1928819D01*
X1133543Y116134D02*
X1143543Y136134D01*
X1133543Y156134D01*
X1153543Y146134D01*
X1173543Y156134D01*
X1163543Y136134D01*
X1173543Y116134D01*
X1153543Y126134D01*
X1133543Y116134D01*
X94173Y103478D02*
X104173Y123478D01*
X94173Y143478D01*
X114173Y133478D01*
X134173Y143478D01*
X124173Y123478D01*
X134173Y103478D01*
X114173Y113478D01*
X94173Y103478D01*
X983254Y1653269D02*
Y1643269D01*
X1003254D01*
Y1653269D01*
X1013254D01*
Y1673269D01*
X1003254D01*
Y1683269D01*
X983254D01*
Y1673269D01*
X973254D01*
Y1653269D01*
X983254D01*
X1089320Y1547203D02*
Y1537203D01*
X1109320D01*
Y1547203D01*
X1119320D01*
Y1567203D01*
X1109320D01*
Y1577203D01*
X1089320D01*
Y1567203D01*
X1079320D01*
Y1547203D01*
X1089320D01*
X381839Y688661D02*
X391839D01*
X401839Y698661D01*
X411839Y688661D01*
X421839D01*
Y698661D01*
X411839Y708661D01*
X421839Y718661D01*
Y728661D01*
X411839D01*
X401839Y718661D01*
X391839Y728661D01*
X381839D01*
Y718661D01*
X391839Y708661D01*
X381839Y698661D01*
Y688661D01*
X373701Y54803D02*
X383701D01*
X393701Y64803D01*
X403701Y54803D01*
X413701D01*
Y64803D01*
X403701Y74803D01*
X413701Y84803D01*
Y94803D01*
X403701D01*
X393701Y84803D01*
X383701Y94803D01*
X373701D01*
Y84803D01*
X383701Y74803D01*
X373701Y64803D01*
Y54803D01*
X1230000Y1996811D02*
X1240000D01*
X1250000Y2006811D01*
X1260000Y1996811D01*
X1270000D01*
Y2006811D01*
X1260000Y2016811D01*
X1270000Y2026811D01*
Y2036811D01*
X1260000D01*
X1250000Y2026811D01*
X1240000Y2036811D01*
X1230000D01*
Y2026811D01*
X1240000Y2016811D01*
X1230000Y2006811D01*
Y1996811D01*
X1200472Y1819645D02*
X1210472D01*
X1220472Y1829645D01*
X1230472Y1819645D01*
X1240472D01*
Y1829645D01*
X1230472Y1839645D01*
X1240472Y1849645D01*
Y1859645D01*
X1230472D01*
X1220472Y1849645D01*
X1210472Y1859645D01*
X1200472D01*
Y1849645D01*
X1210472Y1839645D01*
X1200472Y1829645D01*
Y1819645D01*
X1230000Y1760590D02*
X1240000D01*
X1250000Y1770590D01*
X1260000Y1760590D01*
X1270000D01*
Y1770590D01*
X1260000Y1780590D01*
X1270000Y1790590D01*
Y1800590D01*
X1260000D01*
X1250000Y1790590D01*
X1240000Y1800590D01*
X1230000D01*
Y1790590D01*
X1240000Y1780590D01*
X1230000Y1770590D01*
Y1760590D01*
Y1524370D02*
X1240000D01*
X1250000Y1534370D01*
X1260000Y1524370D01*
X1270000D01*
Y1534370D01*
X1260000Y1544370D01*
X1270000Y1554370D01*
Y1564370D01*
X1260000D01*
X1250000Y1554370D01*
X1240000Y1564370D01*
X1230000D01*
Y1554370D01*
X1240000Y1544370D01*
X1230000Y1534370D01*
Y1524370D01*
X1200472Y1465315D02*
X1210472D01*
X1220472Y1475315D01*
X1230472Y1465315D01*
X1240472D01*
Y1475315D01*
X1230472Y1485315D01*
X1240472Y1495315D01*
Y1505315D01*
X1230472D01*
X1220472Y1495315D01*
X1210472Y1505315D01*
X1200472D01*
Y1495315D01*
X1210472Y1485315D01*
X1200472Y1475315D01*
Y1465315D01*
X1230000Y1406259D02*
X1240000D01*
X1250000Y1416259D01*
X1260000Y1406259D01*
X1270000D01*
Y1416259D01*
X1260000Y1426259D01*
X1270000Y1436259D01*
Y1446259D01*
X1260000D01*
X1250000Y1436259D01*
X1240000Y1446259D01*
X1230000D01*
Y1436259D01*
X1240000Y1426259D01*
X1230000Y1416259D01*
Y1406259D01*
X1200472Y1347204D02*
X1210472D01*
X1220472Y1357204D01*
X1230472Y1347204D01*
X1240472D01*
Y1357204D01*
X1230472Y1367204D01*
X1240472Y1377204D01*
Y1387204D01*
X1230472D01*
X1220472Y1377204D01*
X1210472Y1387204D01*
X1200472D01*
Y1377204D01*
X1210472Y1367204D01*
X1200472Y1357204D01*
Y1347204D01*
X1230000Y1288149D02*
X1240000D01*
X1250000Y1298149D01*
X1260000Y1288149D01*
X1270000D01*
Y1298149D01*
X1260000Y1308149D01*
X1270000Y1318149D01*
Y1328149D01*
X1260000D01*
X1250000Y1318149D01*
X1240000Y1328149D01*
X1230000D01*
Y1318149D01*
X1240000Y1308149D01*
X1230000Y1298149D01*
Y1288149D01*
X1200472Y1229094D02*
X1210472D01*
X1220472Y1239094D01*
X1230472Y1229094D01*
X1240472D01*
Y1239094D01*
X1230472Y1249094D01*
X1240472Y1259094D01*
Y1269094D01*
X1230472D01*
X1220472Y1259094D01*
X1210472Y1269094D01*
X1200472D01*
Y1259094D01*
X1210472Y1249094D01*
X1200472Y1239094D01*
Y1229094D01*
X1230000Y1170039D02*
X1240000D01*
X1250000Y1180039D01*
X1260000Y1170039D01*
X1270000D01*
Y1180039D01*
X1260000Y1190039D01*
X1270000Y1200039D01*
Y1210039D01*
X1260000D01*
X1250000Y1200039D01*
X1240000Y1210039D01*
X1230000D01*
Y1200039D01*
X1240000Y1190039D01*
X1230000Y1180039D01*
Y1170039D01*
X1200472Y1110984D02*
X1210472D01*
X1220472Y1120984D01*
X1230472Y1110984D01*
X1240472D01*
Y1120984D01*
X1230472Y1130984D01*
X1240472Y1140984D01*
Y1150984D01*
X1230472D01*
X1220472Y1140984D01*
X1210472Y1150984D01*
X1200472D01*
Y1140984D01*
X1210472Y1130984D01*
X1200472Y1120984D01*
Y1110984D01*
X1230000Y1051929D02*
X1240000D01*
X1250000Y1061929D01*
X1260000Y1051929D01*
X1270000D01*
Y1061929D01*
X1260000Y1071929D01*
X1270000Y1081929D01*
Y1091929D01*
X1260000D01*
X1250000Y1081929D01*
X1240000Y1091929D01*
X1230000D01*
Y1081929D01*
X1240000Y1071929D01*
X1230000Y1061929D01*
Y1051929D01*
X1200472Y992874D02*
X1210472D01*
X1220472Y1002874D01*
X1230472Y992874D01*
X1240472D01*
Y1002874D01*
X1230472Y1012874D01*
X1240472Y1022874D01*
Y1032874D01*
X1230472D01*
X1220472Y1022874D01*
X1210472Y1032874D01*
X1200472D01*
Y1022874D01*
X1210472Y1012874D01*
X1200472Y1002874D01*
Y992874D01*
X1230000Y933819D02*
X1240000D01*
X1250000Y943819D01*
X1260000Y933819D01*
X1270000D01*
Y943819D01*
X1260000Y953819D01*
X1270000Y963819D01*
Y973819D01*
X1260000D01*
X1250000Y963819D01*
X1240000Y973819D01*
X1230000D01*
Y963819D01*
X1240000Y953819D01*
X1230000Y943819D01*
Y933819D01*
X1200472Y874764D02*
X1210472D01*
X1220472Y884764D01*
X1230472Y874764D01*
X1240472D01*
Y884764D01*
X1230472Y894764D01*
X1240472Y904764D01*
Y914764D01*
X1230472D01*
X1220472Y904764D01*
X1210472Y914764D01*
X1200472D01*
Y904764D01*
X1210472Y894764D01*
X1200472Y884764D01*
Y874764D01*
X1230000Y815708D02*
X1240000D01*
X1250000Y825708D01*
X1260000Y815708D01*
X1270000D01*
Y825708D01*
X1260000Y835708D01*
X1270000Y845708D01*
Y855708D01*
X1260000D01*
X1250000Y845708D01*
X1240000Y855708D01*
X1230000D01*
Y845708D01*
X1240000Y835708D01*
X1230000Y825708D01*
Y815708D01*
X1200472Y756653D02*
X1210472D01*
X1220472Y766653D01*
X1230472Y756653D01*
X1240472D01*
Y766653D01*
X1230472Y776653D01*
X1240472Y786653D01*
Y796653D01*
X1230472D01*
X1220472Y786653D01*
X1210472Y796653D01*
X1200472D01*
Y786653D01*
X1210472Y776653D01*
X1200472Y766653D01*
Y756653D01*
X1230000Y697598D02*
X1240000D01*
X1250000Y707598D01*
X1260000Y697598D01*
X1270000D01*
Y707598D01*
X1260000Y717598D01*
X1270000Y727598D01*
Y737598D01*
X1260000D01*
X1250000Y727598D01*
X1240000Y737598D01*
X1230000D01*
Y727598D01*
X1240000Y717598D01*
X1230000Y707598D01*
Y697598D01*
X1200472Y638543D02*
X1210472D01*
X1220472Y648543D01*
X1230472Y638543D01*
X1240472D01*
Y648543D01*
X1230472Y658543D01*
X1240472Y668543D01*
Y678543D01*
X1230472D01*
X1220472Y668543D01*
X1210472Y678543D01*
X1200472D01*
Y668543D01*
X1210472Y658543D01*
X1200472Y648543D01*
Y638543D01*
X1230000Y579488D02*
X1240000D01*
X1250000Y589488D01*
X1260000Y579488D01*
X1270000D01*
Y589488D01*
X1260000Y599488D01*
X1270000Y609488D01*
Y619488D01*
X1260000D01*
X1250000Y609488D01*
X1240000Y619488D01*
X1230000D01*
Y609488D01*
X1240000Y599488D01*
X1230000Y589488D01*
Y579488D01*
X1200472Y520433D02*
X1210472D01*
X1220472Y530433D01*
X1230472Y520433D01*
X1240472D01*
Y530433D01*
X1230472Y540433D01*
X1240472Y550433D01*
Y560433D01*
X1230472D01*
X1220472Y550433D01*
X1210472Y560433D01*
X1200472D01*
Y550433D01*
X1210472Y540433D01*
X1200472Y530433D01*
Y520433D01*
X1230000Y461378D02*
X1240000D01*
X1250000Y471378D01*
X1260000Y461378D01*
X1270000D01*
Y471378D01*
X1260000Y481378D01*
X1270000Y491378D01*
Y501378D01*
X1260000D01*
X1250000Y491378D01*
X1240000Y501378D01*
X1230000D01*
Y491378D01*
X1240000Y481378D01*
X1230000Y471378D01*
Y461378D01*
X1200472Y402323D02*
X1210472D01*
X1220472Y412323D01*
X1230472Y402323D01*
X1240472D01*
Y412323D01*
X1230472Y422323D01*
X1240472Y432323D01*
Y442323D01*
X1230472D01*
X1220472Y432323D01*
X1210472Y442323D01*
X1200472D01*
Y432323D01*
X1210472Y422323D01*
X1200472Y412323D01*
Y402323D01*
X1230000Y343268D02*
X1240000D01*
X1250000Y353268D01*
X1260000Y343268D01*
X1270000D01*
Y353268D01*
X1260000Y363268D01*
X1270000Y373268D01*
Y383268D01*
X1260000D01*
X1250000Y373268D01*
X1240000Y383268D01*
X1230000D01*
Y373268D01*
X1240000Y363268D01*
X1230000Y353268D01*
Y343268D01*
X1200472Y284213D02*
X1210472D01*
X1220472Y294213D01*
X1230472Y284213D01*
X1240472D01*
Y294213D01*
X1230472Y304213D01*
X1240472Y314213D01*
Y324213D01*
X1230472D01*
X1220472Y314213D01*
X1210472Y324213D01*
X1200472D01*
Y314213D01*
X1210472Y304213D01*
X1200472Y294213D01*
Y284213D01*
X1230000Y225157D02*
X1240000D01*
X1250000Y235157D01*
X1260000Y225157D01*
X1270000D01*
Y235157D01*
X1260000Y245157D01*
X1270000Y255157D01*
Y265158D01*
X1260000D01*
X1250000Y255157D01*
X1240000Y265158D01*
X1230000D01*
Y255157D01*
X1240000Y245157D01*
X1230000Y235157D01*
Y225157D01*
X1141417Y1819645D02*
X1151417D01*
X1161417Y1829645D01*
X1171417Y1819645D01*
X1181417D01*
Y1829645D01*
X1171417Y1839645D01*
X1181417Y1849645D01*
Y1859645D01*
X1171417D01*
X1161417Y1849645D01*
X1151417Y1859645D01*
X1141417D01*
Y1849645D01*
X1151417Y1839645D01*
X1141417Y1829645D01*
Y1819645D01*
Y1701535D02*
X1151417D01*
X1161417Y1711535D01*
X1171417Y1701535D01*
X1181417D01*
Y1711535D01*
X1171417Y1721535D01*
X1181417Y1731535D01*
Y1741535D01*
X1171417D01*
X1161417Y1731535D01*
X1151417Y1741535D01*
X1141417D01*
Y1731535D01*
X1151417Y1721535D01*
X1141417Y1711535D01*
Y1701535D01*
Y1110984D02*
X1151417D01*
X1161417Y1120984D01*
X1171417Y1110984D01*
X1181417D01*
Y1120984D01*
X1171417Y1130984D01*
X1181417Y1140984D01*
Y1150984D01*
X1171417D01*
X1161417Y1140984D01*
X1151417Y1150984D01*
X1141417D01*
Y1140984D01*
X1151417Y1130984D01*
X1141417Y1120984D01*
Y1110984D01*
X1170945Y1051929D02*
X1180945D01*
X1190945Y1061929D01*
X1200945Y1051929D01*
X1210945D01*
Y1061929D01*
X1200945Y1071929D01*
X1210945Y1081929D01*
Y1091929D01*
X1200945D01*
X1190945Y1081929D01*
X1180945Y1091929D01*
X1170945D01*
Y1081929D01*
X1180945Y1071929D01*
X1170945Y1061929D01*
Y1051929D01*
X1141417Y992874D02*
X1151417D01*
X1161417Y1002874D01*
X1171417Y992874D01*
X1181417D01*
Y1002874D01*
X1171417Y1012874D01*
X1181417Y1022874D01*
Y1032874D01*
X1171417D01*
X1161417Y1022874D01*
X1151417Y1032874D01*
X1141417D01*
Y1022874D01*
X1151417Y1012874D01*
X1141417Y1002874D01*
Y992874D01*
X1170945Y933819D02*
X1180945D01*
X1190945Y943819D01*
X1200945Y933819D01*
X1210945D01*
Y943819D01*
X1200945Y953819D01*
X1210945Y963819D01*
Y973819D01*
X1200945D01*
X1190945Y963819D01*
X1180945Y973819D01*
X1170945D01*
Y963819D01*
X1180945Y953819D01*
X1170945Y943819D01*
Y933819D01*
X1141417Y874764D02*
X1151417D01*
X1161417Y884764D01*
X1171417Y874764D01*
X1181417D01*
Y884764D01*
X1171417Y894764D01*
X1181417Y904764D01*
Y914764D01*
X1171417D01*
X1161417Y904764D01*
X1151417Y914764D01*
X1141417D01*
Y904764D01*
X1151417Y894764D01*
X1141417Y884764D01*
Y874764D01*
X1170945Y815708D02*
X1180945D01*
X1190945Y825708D01*
X1200945Y815708D01*
X1210945D01*
Y825708D01*
X1200945Y835708D01*
X1210945Y845708D01*
Y855708D01*
X1200945D01*
X1190945Y845708D01*
X1180945Y855708D01*
X1170945D01*
Y845708D01*
X1180945Y835708D01*
X1170945Y825708D01*
Y815708D01*
Y697598D02*
X1180945D01*
X1190945Y707598D01*
X1200945Y697598D01*
X1210945D01*
Y707598D01*
X1200945Y717598D01*
X1210945Y727598D01*
Y737598D01*
X1200945D01*
X1190945Y727598D01*
X1180945Y737598D01*
X1170945D01*
Y727598D01*
X1180945Y717598D01*
X1170945Y707598D01*
Y697598D01*
X1141417Y638543D02*
X1151417D01*
X1161417Y648543D01*
X1171417Y638543D01*
X1181417D01*
Y648543D01*
X1171417Y658543D01*
X1181417Y668543D01*
Y678543D01*
X1171417D01*
X1161417Y668543D01*
X1151417Y678543D01*
X1141417D01*
Y668543D01*
X1151417Y658543D01*
X1141417Y648543D01*
Y638543D01*
X1170945Y579488D02*
X1180945D01*
X1190945Y589488D01*
X1200945Y579488D01*
X1210945D01*
Y589488D01*
X1200945Y599488D01*
X1210945Y609488D01*
Y619488D01*
X1200945D01*
X1190945Y609488D01*
X1180945Y619488D01*
X1170945D01*
Y609488D01*
X1180945Y599488D01*
X1170945Y589488D01*
Y579488D01*
X1141417Y520433D02*
X1151417D01*
X1161417Y530433D01*
X1171417Y520433D01*
X1181417D01*
Y530433D01*
X1171417Y540433D01*
X1181417Y550433D01*
Y560433D01*
X1171417D01*
X1161417Y550433D01*
X1151417Y560433D01*
X1141417D01*
Y550433D01*
X1151417Y540433D01*
X1141417Y530433D01*
Y520433D01*
X1170945Y461378D02*
X1180945D01*
X1190945Y471378D01*
X1200945Y461378D01*
X1210945D01*
Y471378D01*
X1200945Y481378D01*
X1210945Y491378D01*
Y501378D01*
X1200945D01*
X1190945Y491378D01*
X1180945Y501378D01*
X1170945D01*
Y491378D01*
X1180945Y481378D01*
X1170945Y471378D01*
Y461378D01*
X1141417Y402323D02*
X1151417D01*
X1161417Y412323D01*
X1171417Y402323D01*
X1181417D01*
Y412323D01*
X1171417Y422323D01*
X1181417Y432323D01*
Y442323D01*
X1171417D01*
X1161417Y432323D01*
X1151417Y442323D01*
X1141417D01*
Y432323D01*
X1151417Y422323D01*
X1141417Y412323D01*
Y402323D01*
X1170945Y343268D02*
X1180945D01*
X1190945Y353268D01*
X1200945Y343268D01*
X1210945D01*
Y353268D01*
X1200945Y363268D01*
X1210945Y373268D01*
Y383268D01*
X1200945D01*
X1190945Y373268D01*
X1180945Y383268D01*
X1170945D01*
Y373268D01*
X1180945Y363268D01*
X1170945Y353268D01*
Y343268D01*
X1141417Y284213D02*
X1151417D01*
X1161417Y294213D01*
X1171417Y284213D01*
X1181417D01*
Y294213D01*
X1171417Y304213D01*
X1181417Y314213D01*
Y324213D01*
X1171417D01*
X1161417Y314213D01*
X1151417Y324213D01*
X1141417D01*
Y314213D01*
X1151417Y304213D01*
X1141417Y294213D01*
Y284213D01*
X1170945Y225157D02*
X1180945D01*
X1190945Y235157D01*
X1200945Y225157D01*
X1210945D01*
Y235157D01*
X1200945Y245157D01*
X1210945Y255157D01*
Y265158D01*
X1200945D01*
X1190945Y255157D01*
X1180945Y265158D01*
X1170945D01*
Y255157D01*
X1180945Y245157D01*
X1170945Y235157D01*
Y225157D01*
X1111889Y1288149D02*
X1121889D01*
X1131889Y1298149D01*
X1141889Y1288149D01*
X1151889D01*
Y1298149D01*
X1141889Y1308149D01*
X1151889Y1318149D01*
Y1328149D01*
X1141889D01*
X1131889Y1318149D01*
X1121889Y1328149D01*
X1111889D01*
Y1318149D01*
X1121889Y1308149D01*
X1111889Y1298149D01*
Y1288149D01*
Y1051929D02*
X1121889D01*
X1131889Y1061929D01*
X1141889Y1051929D01*
X1151889D01*
Y1061929D01*
X1141889Y1071929D01*
X1151889Y1081929D01*
Y1091929D01*
X1141889D01*
X1131889Y1081929D01*
X1121889Y1091929D01*
X1111889D01*
Y1081929D01*
X1121889Y1071929D01*
X1111889Y1061929D01*
Y1051929D01*
Y933819D02*
X1121889D01*
X1131889Y943819D01*
X1141889Y933819D01*
X1151889D01*
Y943819D01*
X1141889Y953819D01*
X1151889Y963819D01*
Y973819D01*
X1141889D01*
X1131889Y963819D01*
X1121889Y973819D01*
X1111889D01*
Y963819D01*
X1121889Y953819D01*
X1111889Y943819D01*
Y933819D01*
Y815708D02*
X1121889D01*
X1131889Y825708D01*
X1141889Y815708D01*
X1151889D01*
Y825708D01*
X1141889Y835708D01*
X1151889Y845708D01*
Y855708D01*
X1141889D01*
X1131889Y845708D01*
X1121889Y855708D01*
X1111889D01*
Y845708D01*
X1121889Y835708D01*
X1111889Y825708D01*
Y815708D01*
Y579488D02*
X1121889D01*
X1131889Y589488D01*
X1141889Y579488D01*
X1151889D01*
Y589488D01*
X1141889Y599488D01*
X1151889Y609488D01*
Y619488D01*
X1141889D01*
X1131889Y609488D01*
X1121889Y619488D01*
X1111889D01*
Y609488D01*
X1121889Y599488D01*
X1111889Y589488D01*
Y579488D01*
Y461378D02*
X1121889D01*
X1131889Y471378D01*
X1141889Y461378D01*
X1151889D01*
Y471378D01*
X1141889Y481378D01*
X1151889Y491378D01*
Y501378D01*
X1141889D01*
X1131889Y491378D01*
X1121889Y501378D01*
X1111889D01*
Y491378D01*
X1121889Y481378D01*
X1111889Y471378D01*
Y461378D01*
X1082362Y402323D02*
X1092362D01*
X1102362Y412323D01*
X1112362Y402323D01*
X1122362D01*
Y412323D01*
X1112362Y422323D01*
X1122362Y432323D01*
Y442323D01*
X1112362D01*
X1102362Y432323D01*
X1092362Y442323D01*
X1082362D01*
Y432323D01*
X1092362Y422323D01*
X1082362Y412323D01*
Y402323D01*
X1111889Y343268D02*
X1121889D01*
X1131889Y353268D01*
X1141889Y343268D01*
X1151889D01*
Y353268D01*
X1141889Y363268D01*
X1151889Y373268D01*
Y383268D01*
X1141889D01*
X1131889Y373268D01*
X1121889Y383268D01*
X1111889D01*
Y373268D01*
X1121889Y363268D01*
X1111889Y353268D01*
Y343268D01*
X1082362Y284213D02*
X1092362D01*
X1102362Y294213D01*
X1112362Y284213D01*
X1122362D01*
Y294213D01*
X1112362Y304213D01*
X1122362Y314213D01*
Y324213D01*
X1112362D01*
X1102362Y314213D01*
X1092362Y324213D01*
X1082362D01*
Y314213D01*
X1092362Y304213D01*
X1082362Y294213D01*
Y284213D01*
X1111889Y225157D02*
X1121889D01*
X1131889Y235157D01*
X1141889Y225157D01*
X1151889D01*
Y235157D01*
X1141889Y245157D01*
X1151889Y255157D01*
Y265158D01*
X1141889D01*
X1131889Y255157D01*
X1121889Y265158D01*
X1111889D01*
Y255157D01*
X1121889Y245157D01*
X1111889Y235157D01*
Y225157D01*
X1052834Y343268D02*
X1062834D01*
X1072834Y353268D01*
X1082834Y343268D01*
X1092834D01*
Y353268D01*
X1082834Y363268D01*
X1092834Y373268D01*
Y383268D01*
X1082834D01*
X1072834Y373268D01*
X1062834Y383268D01*
X1052834D01*
Y373268D01*
X1062834Y363268D01*
X1052834Y353268D01*
Y343268D01*
X1023307Y284213D02*
X1033307D01*
X1043307Y294213D01*
X1053307Y284213D01*
X1063307D01*
Y294213D01*
X1053307Y304213D01*
X1063307Y314213D01*
Y324213D01*
X1053307D01*
X1043307Y314213D01*
X1033307Y324213D01*
X1023307D01*
Y314213D01*
X1033307Y304213D01*
X1023307Y294213D01*
Y284213D01*
X1052834Y225157D02*
X1062834D01*
X1072834Y235157D01*
X1082834Y225157D01*
X1092834D01*
Y235157D01*
X1082834Y245157D01*
X1092834Y255157D01*
Y265158D01*
X1082834D01*
X1072834Y255157D01*
X1062834Y265158D01*
X1052834D01*
Y255157D01*
X1062834Y245157D01*
X1052834Y235157D01*
Y225157D01*
X1023307Y166102D02*
X1033307D01*
X1043307Y176102D01*
X1053307Y166102D01*
X1063307D01*
Y176102D01*
X1053307Y186102D01*
X1063307Y196102D01*
Y206102D01*
X1053307D01*
X1043307Y196102D01*
X1033307Y206102D01*
X1023307D01*
Y196102D01*
X1033307Y186102D01*
X1023307Y176102D01*
Y166102D01*
Y47992D02*
X1033307D01*
X1043307Y57992D01*
X1053307Y47992D01*
X1063307D01*
Y57992D01*
X1053307Y67992D01*
X1063307Y77992D01*
Y87992D01*
X1053307D01*
X1043307Y77992D01*
X1033307Y87992D01*
X1023307D01*
Y77992D01*
X1033307Y67992D01*
X1023307Y57992D01*
Y47992D01*
X993779Y343268D02*
X1003779D01*
X1013779Y353268D01*
X1023779Y343268D01*
X1033779D01*
Y353268D01*
X1023779Y363268D01*
X1033779Y373268D01*
Y383268D01*
X1023779D01*
X1013779Y373268D01*
X1003779Y383268D01*
X993779D01*
Y373268D01*
X1003779Y363268D01*
X993779Y353268D01*
Y343268D01*
X964252Y284213D02*
X974252D01*
X984252Y294213D01*
X994252Y284213D01*
X1004252D01*
Y294213D01*
X994252Y304213D01*
X1004252Y314213D01*
Y324213D01*
X994252D01*
X984252Y314213D01*
X974252Y324213D01*
X964252D01*
Y314213D01*
X974252Y304213D01*
X964252Y294213D01*
Y284213D01*
X993779Y225157D02*
X1003779D01*
X1013779Y235157D01*
X1023779Y225157D01*
X1033779D01*
Y235157D01*
X1023779Y245157D01*
X1033779Y255157D01*
Y265158D01*
X1023779D01*
X1013779Y255157D01*
X1003779Y265158D01*
X993779D01*
Y255157D01*
X1003779Y245157D01*
X993779Y235157D01*
Y225157D01*
X964252Y166102D02*
X974252D01*
X984252Y176102D01*
X994252Y166102D01*
X1004252D01*
Y176102D01*
X994252Y186102D01*
X1004252Y196102D01*
Y206102D01*
X994252D01*
X984252Y196102D01*
X974252Y206102D01*
X964252D01*
Y196102D01*
X974252Y186102D01*
X964252Y176102D01*
Y166102D01*
X993779Y107047D02*
X1003779D01*
X1013779Y117047D01*
X1023779Y107047D01*
X1033779D01*
Y117047D01*
X1023779Y127047D01*
X1033779Y137047D01*
Y147047D01*
X1023779D01*
X1013779Y137047D01*
X1003779Y147047D01*
X993779D01*
Y137047D01*
X1003779Y127047D01*
X993779Y117047D01*
Y107047D01*
X964252Y47992D02*
X974252D01*
X984252Y57992D01*
X994252Y47992D01*
X1004252D01*
Y57992D01*
X994252Y67992D01*
X1004252Y77992D01*
Y87992D01*
X994252D01*
X984252Y77992D01*
X974252Y87992D01*
X964252D01*
Y77992D01*
X974252Y67992D01*
X964252Y57992D01*
Y47992D01*
X934724Y225157D02*
X944724D01*
X954724Y235157D01*
X964724Y225157D01*
X974724D01*
Y235157D01*
X964724Y245157D01*
X974724Y255157D01*
Y265158D01*
X964724D01*
X954724Y255157D01*
X944724Y265158D01*
X934724D01*
Y255157D01*
X944724Y245157D01*
X934724Y235157D01*
Y225157D01*
X905197Y166102D02*
X915197D01*
X925197Y176102D01*
X935197Y166102D01*
X945197D01*
Y176102D01*
X935197Y186102D01*
X945197Y196102D01*
Y206102D01*
X935197D01*
X925197Y196102D01*
X915197Y206102D01*
X905197D01*
Y196102D01*
X915197Y186102D01*
X905197Y176102D01*
Y166102D01*
X934724Y107047D02*
X944724D01*
X954724Y117047D01*
X964724Y107047D01*
X974724D01*
Y117047D01*
X964724Y127047D01*
X974724Y137047D01*
Y147047D01*
X964724D01*
X954724Y137047D01*
X944724Y147047D01*
X934724D01*
Y137047D01*
X944724Y127047D01*
X934724Y117047D01*
Y107047D01*
X905197Y47992D02*
X915197D01*
X925197Y57992D01*
X935197Y47992D01*
X945197D01*
Y57992D01*
X935197Y67992D01*
X945197Y77992D01*
Y87992D01*
X935197D01*
X925197Y77992D01*
X915197Y87992D01*
X905197D01*
Y77992D01*
X915197Y67992D01*
X905197Y57992D01*
Y47992D01*
X875669Y225157D02*
X885669D01*
X895669Y235157D01*
X905669Y225157D01*
X915669D01*
Y235157D01*
X905669Y245157D01*
X915669Y255157D01*
Y265158D01*
X905669D01*
X895669Y255157D01*
X885669Y265158D01*
X875669D01*
Y255157D01*
X885669Y245157D01*
X875669Y235157D01*
Y225157D01*
X846141Y166102D02*
X856141D01*
X866141Y176102D01*
X876141Y166102D01*
X886141D01*
Y176102D01*
X876141Y186102D01*
X886141Y196102D01*
Y206102D01*
X876141D01*
X866141Y196102D01*
X856141Y206102D01*
X846141D01*
Y196102D01*
X856141Y186102D01*
X846141Y176102D01*
Y166102D01*
X875669Y107047D02*
X885669D01*
X895669Y117047D01*
X905669Y107047D01*
X915669D01*
Y117047D01*
X905669Y127047D01*
X915669Y137047D01*
Y147047D01*
X905669D01*
X895669Y137047D01*
X885669Y147047D01*
X875669D01*
Y137047D01*
X885669Y127047D01*
X875669Y117047D01*
Y107047D01*
X846141Y47992D02*
X856141D01*
X866141Y57992D01*
X876141Y47992D01*
X886141D01*
Y57992D01*
X876141Y67992D01*
X886141Y77992D01*
Y87992D01*
X876141D01*
X866141Y77992D01*
X856141Y87992D01*
X846141D01*
Y77992D01*
X856141Y67992D01*
X846141Y57992D01*
Y47992D01*
X816614Y343268D02*
X826614D01*
X836614Y353268D01*
X846614Y343268D01*
X856614D01*
Y353268D01*
X846614Y363268D01*
X856614Y373268D01*
Y383268D01*
X846614D01*
X836614Y373268D01*
X826614Y383268D01*
X816614D01*
Y373268D01*
X826614Y363268D01*
X816614Y353268D01*
Y343268D01*
Y107047D02*
X826614D01*
X836614Y117047D01*
X846614Y107047D01*
X856614D01*
Y117047D01*
X846614Y127047D01*
X856614Y137047D01*
Y147047D01*
X846614D01*
X836614Y137047D01*
X826614Y147047D01*
X816614D01*
Y137047D01*
X826614Y127047D01*
X816614Y117047D01*
Y107047D01*
X787086Y47992D02*
X797086D01*
X807086Y57992D01*
X817086Y47992D01*
X827086D01*
Y57992D01*
X817086Y67992D01*
X827086Y77992D01*
Y87992D01*
X817086D01*
X807086Y77992D01*
X797086Y87992D01*
X787086D01*
Y77992D01*
X797086Y67992D01*
X787086Y57992D01*
Y47992D01*
X757559Y343268D02*
X767559D01*
X777559Y353268D01*
X787559Y343268D01*
X797559D01*
Y353268D01*
X787559Y363268D01*
X797559Y373268D01*
Y383268D01*
X787559D01*
X777559Y373268D01*
X767559Y383268D01*
X757559D01*
Y373268D01*
X767559Y363268D01*
X757559Y353268D01*
Y343268D01*
X728031Y284213D02*
X738031D01*
X748031Y294213D01*
X758031Y284213D01*
X768031D01*
Y294213D01*
X758031Y304213D01*
X768031Y314213D01*
Y324213D01*
X758031D01*
X748031Y314213D01*
X738031Y324213D01*
X728031D01*
Y314213D01*
X738031Y304213D01*
X728031Y294213D01*
Y284213D01*
X757559Y107047D02*
X767559D01*
X777559Y117047D01*
X787559Y107047D01*
X797559D01*
Y117047D01*
X787559Y127047D01*
X797559Y137047D01*
Y147047D01*
X787559D01*
X777559Y137047D01*
X767559Y147047D01*
X757559D01*
Y137047D01*
X767559Y127047D01*
X757559Y117047D01*
Y107047D01*
X728031Y47992D02*
X738031D01*
X748031Y57992D01*
X758031Y47992D01*
X768031D01*
Y57992D01*
X758031Y67992D01*
X768031Y77992D01*
Y87992D01*
X758031D01*
X748031Y77992D01*
X738031Y87992D01*
X728031D01*
Y77992D01*
X738031Y67992D01*
X728031Y57992D01*
Y47992D01*
X639449Y579488D02*
X649449D01*
X659449Y589488D01*
X669449Y579488D01*
X679449D01*
Y589488D01*
X669449Y599488D01*
X679449Y609488D01*
Y619488D01*
X669449D01*
X659449Y609488D01*
X649449Y619488D01*
X639449D01*
Y609488D01*
X649449Y599488D01*
X639449Y589488D01*
Y579488D01*
X550866Y638543D02*
X560866D01*
X570866Y648543D01*
X580866Y638543D01*
X590866D01*
Y648543D01*
X580866Y658543D01*
X590866Y668543D01*
Y678543D01*
X580866D01*
X570866Y668543D01*
X560866Y678543D01*
X550866D01*
Y668543D01*
X560866Y658543D01*
X550866Y648543D01*
Y638543D01*
X580394Y579488D02*
X590394D01*
X600394Y589488D01*
X610394Y579488D01*
X620394D01*
Y589488D01*
X610394Y599488D01*
X620394Y609488D01*
Y619488D01*
X610394D01*
X600394Y609488D01*
X590394Y619488D01*
X580394D01*
Y609488D01*
X590394Y599488D01*
X580394Y589488D01*
Y579488D01*
X550866Y520433D02*
X560866D01*
X570866Y530433D01*
X580866Y520433D01*
X590866D01*
Y530433D01*
X580866Y540433D01*
X590866Y550433D01*
Y560433D01*
X580866D01*
X570866Y550433D01*
X560866Y560433D01*
X550866D01*
Y550433D01*
X560866Y540433D01*
X550866Y530433D01*
Y520433D01*
X521338Y697598D02*
X531338D01*
X541338Y707598D01*
X551338Y697598D01*
X561338D01*
Y707598D01*
X551338Y717598D01*
X561338Y727598D01*
Y737598D01*
X551338D01*
X541338Y727598D01*
X531338Y737598D01*
X521338D01*
Y727598D01*
X531338Y717598D01*
X521338Y707598D01*
Y697598D01*
X491811Y638543D02*
X501811D01*
X511811Y648543D01*
X521811Y638543D01*
X531811D01*
Y648543D01*
X521811Y658543D01*
X531811Y668543D01*
Y678543D01*
X521811D01*
X511811Y668543D01*
X501811Y678543D01*
X491811D01*
Y668543D01*
X501811Y658543D01*
X491811Y648543D01*
Y638543D01*
X521338Y579488D02*
X531338D01*
X541338Y589488D01*
X551338Y579488D01*
X561338D01*
Y589488D01*
X551338Y599488D01*
X561338Y609488D01*
Y619488D01*
X551338D01*
X541338Y609488D01*
X531338Y619488D01*
X521338D01*
Y609488D01*
X531338Y599488D01*
X521338Y589488D01*
Y579488D01*
X491811Y520433D02*
X501811D01*
X511811Y530433D01*
X521811Y520433D01*
X531811D01*
Y530433D01*
X521811Y540433D01*
X531811Y550433D01*
Y560433D01*
X521811D01*
X511811Y550433D01*
X501811Y560433D01*
X491811D01*
Y550433D01*
X501811Y540433D01*
X491811Y530433D01*
Y520433D01*
X521338Y461378D02*
X531338D01*
X541338Y471378D01*
X551338Y461378D01*
X561338D01*
Y471378D01*
X551338Y481378D01*
X561338Y491378D01*
Y501378D01*
X551338D01*
X541338Y491378D01*
X531338Y501378D01*
X521338D01*
Y491378D01*
X531338Y481378D01*
X521338Y471378D01*
Y461378D01*
X462283Y579488D02*
X472283D01*
X482283Y589488D01*
X492283Y579488D01*
X502283D01*
Y589488D01*
X492283Y599488D01*
X502283Y609488D01*
Y619488D01*
X492283D01*
X482283Y609488D01*
X472283Y619488D01*
X462283D01*
Y609488D01*
X472283Y599488D01*
X462283Y589488D01*
Y579488D01*
X432756Y520433D02*
X442756D01*
X452756Y530433D01*
X462756Y520433D01*
X472756D01*
Y530433D01*
X462756Y540433D01*
X472756Y550433D01*
Y560433D01*
X462756D01*
X452756Y550433D01*
X442756Y560433D01*
X432756D01*
Y550433D01*
X442756Y540433D01*
X432756Y530433D01*
Y520433D01*
X462283Y461378D02*
X472283D01*
X482283Y471378D01*
X492283Y461378D01*
X502283D01*
Y471378D01*
X492283Y481378D01*
X502283Y491378D01*
Y501378D01*
X492283D01*
X482283Y491378D01*
X472283Y501378D01*
X462283D01*
Y491378D01*
X472283Y481378D01*
X462283Y471378D01*
Y461378D01*
X373701Y520433D02*
X383701D01*
X393701Y530433D01*
X403701Y520433D01*
X413701D01*
Y530433D01*
X403701Y540433D01*
X413701Y550433D01*
Y560433D01*
X403701D01*
X393701Y550433D01*
X383701Y560433D01*
X373701D01*
Y550433D01*
X383701Y540433D01*
X373701Y530433D01*
Y520433D01*
X403228Y461378D02*
X413228D01*
X423228Y471378D01*
X433228Y461378D01*
X443228D01*
Y471378D01*
X433228Y481378D01*
X443228Y491378D01*
Y501378D01*
X433228D01*
X423228Y491378D01*
X413228Y501378D01*
X403228D01*
Y491378D01*
X413228Y481378D01*
X403228Y471378D01*
Y461378D01*
X314646Y520433D02*
X324646D01*
X334646Y530433D01*
X344646Y520433D01*
X354646D01*
Y530433D01*
X344646Y540433D01*
X354646Y550433D01*
Y560433D01*
X344646D01*
X334646Y550433D01*
X324646Y560433D01*
X314646D01*
Y550433D01*
X324646Y540433D01*
X314646Y530433D01*
Y520433D01*
X344173Y461378D02*
X354173D01*
X364173Y471378D01*
X374173Y461378D01*
X384173D01*
Y471378D01*
X374173Y481378D01*
X384173Y491378D01*
Y501378D01*
X374173D01*
X364173Y491378D01*
X354173Y501378D01*
X344173D01*
Y491378D01*
X354173Y481378D01*
X344173Y471378D01*
Y461378D01*
X255590Y520433D02*
X265591D01*
X275591Y530433D01*
X285591Y520433D01*
X295591D01*
Y530433D01*
X285591Y540433D01*
X295591Y550433D01*
Y560433D01*
X285591D01*
X275591Y550433D01*
X265591Y560433D01*
X255590D01*
Y550433D01*
X265591Y540433D01*
X255590Y530433D01*
Y520433D01*
X285118Y461378D02*
X295118D01*
X305118Y471378D01*
X315118Y461378D01*
X325118D01*
Y471378D01*
X315118Y481378D01*
X325118Y491378D01*
Y501378D01*
X315118D01*
X305118Y491378D01*
X295118Y501378D01*
X285118D01*
Y491378D01*
X295118Y481378D01*
X285118Y471378D01*
Y461378D01*
X255590Y402323D02*
X265591D01*
X275591Y412323D01*
X285591Y402323D01*
X295591D01*
Y412323D01*
X285591Y422323D01*
X295591Y432323D01*
Y442323D01*
X285591D01*
X275591Y432323D01*
X265591Y442323D01*
X255590D01*
Y432323D01*
X265591Y422323D01*
X255590Y412323D01*
Y402323D01*
Y284213D02*
X265591D01*
X275591Y294213D01*
X285591Y284213D01*
X295591D01*
Y294213D01*
X285591Y304213D01*
X295591Y314213D01*
Y324213D01*
X285591D01*
X275591Y314213D01*
X265591Y324213D01*
X255590D01*
Y314213D01*
X265591Y304213D01*
X255590Y294213D01*
Y284213D01*
Y47992D02*
X265591D01*
X275591Y57992D01*
X285591Y47992D01*
X295591D01*
Y57992D01*
X285591Y67992D01*
X295591Y77992D01*
Y87992D01*
X285591D01*
X275591Y77992D01*
X265591Y87992D01*
X255590D01*
Y77992D01*
X265591Y67992D01*
X255590Y57992D01*
Y47992D01*
X226063Y579488D02*
X236063D01*
X246063Y589488D01*
X256063Y579488D01*
X266063D01*
Y589488D01*
X256063Y599488D01*
X266063Y609488D01*
Y619488D01*
X256063D01*
X246063Y609488D01*
X236063Y619488D01*
X226063D01*
Y609488D01*
X236063Y599488D01*
X226063Y589488D01*
Y579488D01*
X196535Y520433D02*
X206535D01*
X216535Y530433D01*
X226535Y520433D01*
X236535D01*
Y530433D01*
X226535Y540433D01*
X236535Y550433D01*
Y560433D01*
X226535D01*
X216535Y550433D01*
X206535Y560433D01*
X196535D01*
Y550433D01*
X206535Y540433D01*
X196535Y530433D01*
Y520433D01*
X226063Y461378D02*
X236063D01*
X246063Y471378D01*
X256063Y461378D01*
X266063D01*
Y471378D01*
X256063Y481378D01*
X266063Y491378D01*
Y501378D01*
X256063D01*
X246063Y491378D01*
X236063Y501378D01*
X226063D01*
Y491378D01*
X236063Y481378D01*
X226063Y471378D01*
Y461378D01*
X196535Y402323D02*
X206535D01*
X216535Y412323D01*
X226535Y402323D01*
X236535D01*
Y412323D01*
X226535Y422323D01*
X236535Y432323D01*
Y442323D01*
X226535D01*
X216535Y432323D01*
X206535Y442323D01*
X196535D01*
Y432323D01*
X206535Y422323D01*
X196535Y412323D01*
Y402323D01*
X226063Y343268D02*
X236063D01*
X246063Y353268D01*
X256063Y343268D01*
X266063D01*
Y353268D01*
X256063Y363268D01*
X266063Y373268D01*
Y383268D01*
X256063D01*
X246063Y373268D01*
X236063Y383268D01*
X226063D01*
Y373268D01*
X236063Y363268D01*
X226063Y353268D01*
Y343268D01*
X196535Y284213D02*
X206535D01*
X216535Y294213D01*
X226535Y284213D01*
X236535D01*
Y294213D01*
X226535Y304213D01*
X236535Y314213D01*
Y324213D01*
X226535D01*
X216535Y314213D01*
X206535Y324213D01*
X196535D01*
Y314213D01*
X206535Y304213D01*
X196535Y294213D01*
Y284213D01*
X226063Y225157D02*
X236063D01*
X246063Y235157D01*
X256063Y225157D01*
X266063D01*
Y235157D01*
X256063Y245157D01*
X266063Y255157D01*
Y265158D01*
X256063D01*
X246063Y255157D01*
X236063Y265158D01*
X226063D01*
Y255157D01*
X236063Y245157D01*
X226063Y235157D01*
Y225157D01*
X196535Y166102D02*
X206535D01*
X216535Y176102D01*
X226535Y166102D01*
X236535D01*
Y176102D01*
X226535Y186102D01*
X236535Y196102D01*
Y206102D01*
X226535D01*
X216535Y196102D01*
X206535Y206102D01*
X196535D01*
Y196102D01*
X206535Y186102D01*
X196535Y176102D01*
Y166102D01*
Y47992D02*
X206535D01*
X216535Y57992D01*
X226535Y47992D01*
X236535D01*
Y57992D01*
X226535Y67992D01*
X236535Y77992D01*
Y87992D01*
X226535D01*
X216535Y77992D01*
X206535Y87992D01*
X196535D01*
Y77992D01*
X206535Y67992D01*
X196535Y57992D01*
Y47992D01*
X137480Y992874D02*
X147480D01*
X157480Y1002874D01*
X167480Y992874D01*
X177480D01*
Y1002874D01*
X167480Y1012874D01*
X177480Y1022874D01*
Y1032874D01*
X167480D01*
X157480Y1022874D01*
X147480Y1032874D01*
X137480D01*
Y1022874D01*
X147480Y1012874D01*
X137480Y1002874D01*
Y992874D01*
X167008Y933819D02*
X177008D01*
X187008Y943819D01*
X197008Y933819D01*
X207008D01*
Y943819D01*
X197008Y953819D01*
X207008Y963819D01*
Y973819D01*
X197008D01*
X187008Y963819D01*
X177008Y973819D01*
X167008D01*
Y963819D01*
X177008Y953819D01*
X167008Y943819D01*
Y933819D01*
X137480Y874764D02*
X147480D01*
X157480Y884764D01*
X167480Y874764D01*
X177480D01*
Y884764D01*
X167480Y894764D01*
X177480Y904764D01*
Y914764D01*
X167480D01*
X157480Y904764D01*
X147480Y914764D01*
X137480D01*
Y904764D01*
X147480Y894764D01*
X137480Y884764D01*
Y874764D01*
X167008Y579488D02*
X177008D01*
X187008Y589488D01*
X197008Y579488D01*
X207008D01*
Y589488D01*
X197008Y599488D01*
X207008Y609488D01*
Y619488D01*
X197008D01*
X187008Y609488D01*
X177008Y619488D01*
X167008D01*
Y609488D01*
X177008Y599488D01*
X167008Y589488D01*
Y579488D01*
X137480Y520433D02*
X147480D01*
X157480Y530433D01*
X167480Y520433D01*
X177480D01*
Y530433D01*
X167480Y540433D01*
X177480Y550433D01*
Y560433D01*
X167480D01*
X157480Y550433D01*
X147480Y560433D01*
X137480D01*
Y550433D01*
X147480Y540433D01*
X137480Y530433D01*
Y520433D01*
X167008Y461378D02*
X177008D01*
X187008Y471378D01*
X197008Y461378D01*
X207008D01*
Y471378D01*
X197008Y481378D01*
X207008Y491378D01*
Y501378D01*
X197008D01*
X187008Y491378D01*
X177008Y501378D01*
X167008D01*
Y491378D01*
X177008Y481378D01*
X167008Y471378D01*
Y461378D01*
X137480Y402323D02*
X147480D01*
X157480Y412323D01*
X167480Y402323D01*
X177480D01*
Y412323D01*
X167480Y422323D01*
X177480Y432323D01*
Y442323D01*
X167480D01*
X157480Y432323D01*
X147480Y442323D01*
X137480D01*
Y432323D01*
X147480Y422323D01*
X137480Y412323D01*
Y402323D01*
X167008Y343268D02*
X177008D01*
X187008Y353268D01*
X197008Y343268D01*
X207008D01*
Y353268D01*
X197008Y363268D01*
X207008Y373268D01*
Y383268D01*
X197008D01*
X187008Y373268D01*
X177008Y383268D01*
X167008D01*
Y373268D01*
X177008Y363268D01*
X167008Y353268D01*
Y343268D01*
X137480Y284213D02*
X147480D01*
X157480Y294213D01*
X167480Y284213D01*
X177480D01*
Y294213D01*
X167480Y304213D01*
X177480Y314213D01*
Y324213D01*
X167480D01*
X157480Y314213D01*
X147480Y324213D01*
X137480D01*
Y314213D01*
X147480Y304213D01*
X137480Y294213D01*
Y284213D01*
X167008Y225157D02*
X177008D01*
X187008Y235157D01*
X197008Y225157D01*
X207008D01*
Y235157D01*
X197008Y245157D01*
X207008Y255157D01*
Y265158D01*
X197008D01*
X187008Y255157D01*
X177008Y265158D01*
X167008D01*
Y255157D01*
X177008Y245157D01*
X167008Y235157D01*
Y225157D01*
X78425Y992874D02*
X88425D01*
X98425Y1002874D01*
X108425Y992874D01*
X118425D01*
Y1002874D01*
X108425Y1012874D01*
X118425Y1022874D01*
Y1032874D01*
X108425D01*
X98425Y1022874D01*
X88425Y1032874D01*
X78425D01*
Y1022874D01*
X88425Y1012874D01*
X78425Y1002874D01*
Y992874D01*
X107953Y933819D02*
X117953D01*
X127953Y943819D01*
X137953Y933819D01*
X147953D01*
Y943819D01*
X137953Y953819D01*
X147953Y963819D01*
Y973819D01*
X137953D01*
X127953Y963819D01*
X117953Y973819D01*
X107953D01*
Y963819D01*
X117953Y953819D01*
X107953Y943819D01*
Y933819D01*
X78425Y874764D02*
X88425D01*
X98425Y884764D01*
X108425Y874764D01*
X118425D01*
Y884764D01*
X108425Y894764D01*
X118425Y904764D01*
Y914764D01*
X108425D01*
X98425Y904764D01*
X88425Y914764D01*
X78425D01*
Y904764D01*
X88425Y894764D01*
X78425Y884764D01*
Y874764D01*
X107953Y815708D02*
X117953D01*
X127953Y825708D01*
X137953Y815708D01*
X147953D01*
Y825708D01*
X137953Y835708D01*
X147953Y845708D01*
Y855708D01*
X137953D01*
X127953Y845708D01*
X117953Y855708D01*
X107953D01*
Y845708D01*
X117953Y835708D01*
X107953Y825708D01*
Y815708D01*
X78425Y756653D02*
X88425D01*
X98425Y766653D01*
X108425Y756653D01*
X118425D01*
Y766653D01*
X108425Y776653D01*
X118425Y786653D01*
Y796653D01*
X108425D01*
X98425Y786653D01*
X88425Y796653D01*
X78425D01*
Y786653D01*
X88425Y776653D01*
X78425Y766653D01*
Y756653D01*
X107953Y579488D02*
X117953D01*
X127953Y589488D01*
X137953Y579488D01*
X147953D01*
Y589488D01*
X137953Y599488D01*
X147953Y609488D01*
Y619488D01*
X137953D01*
X127953Y609488D01*
X117953Y619488D01*
X107953D01*
Y609488D01*
X117953Y599488D01*
X107953Y589488D01*
Y579488D01*
X78425Y520433D02*
X88425D01*
X98425Y530433D01*
X108425Y520433D01*
X118425D01*
Y530433D01*
X108425Y540433D01*
X118425Y550433D01*
Y560433D01*
X108425D01*
X98425Y550433D01*
X88425Y560433D01*
X78425D01*
Y550433D01*
X88425Y540433D01*
X78425Y530433D01*
Y520433D01*
X107953Y461378D02*
X117953D01*
X127953Y471378D01*
X137953Y461378D01*
X147953D01*
Y471378D01*
X137953Y481378D01*
X147953Y491378D01*
Y501378D01*
X137953D01*
X127953Y491378D01*
X117953Y501378D01*
X107953D01*
Y491378D01*
X117953Y481378D01*
X107953Y471378D01*
Y461378D01*
X78425Y402323D02*
X88425D01*
X98425Y412323D01*
X108425Y402323D01*
X118425D01*
Y412323D01*
X108425Y422323D01*
X118425Y432323D01*
Y442323D01*
X108425D01*
X98425Y432323D01*
X88425Y442323D01*
X78425D01*
Y432323D01*
X88425Y422323D01*
X78425Y412323D01*
Y402323D01*
X107953Y343268D02*
X117953D01*
X127953Y353268D01*
X137953Y343268D01*
X147953D01*
Y353268D01*
X137953Y363268D01*
X147953Y373268D01*
Y383268D01*
X137953D01*
X127953Y373268D01*
X117953Y383268D01*
X107953D01*
Y373268D01*
X117953Y363268D01*
X107953Y353268D01*
Y343268D01*
X78425Y284213D02*
X88425D01*
X98425Y294213D01*
X108425Y284213D01*
X118425D01*
Y294213D01*
X108425Y304213D01*
X118425Y314213D01*
Y324213D01*
X108425D01*
X98425Y314213D01*
X88425Y324213D01*
X78425D01*
Y314213D01*
X88425Y304213D01*
X78425Y294213D01*
Y284213D01*
X107953Y225157D02*
X117953D01*
X127953Y235157D01*
X137953Y225157D01*
X147953D01*
Y235157D01*
X137953Y245157D01*
X147953Y255157D01*
Y265158D01*
X137953D01*
X127953Y255157D01*
X117953Y265158D01*
X107953D01*
Y255157D01*
X117953Y245157D01*
X107953Y235157D01*
Y225157D01*
X19370Y1110984D02*
X29370D01*
X39370Y1120984D01*
X49370Y1110984D01*
X59370D01*
Y1120984D01*
X49370Y1130984D01*
X59370Y1140984D01*
Y1150984D01*
X49370D01*
X39370Y1140984D01*
X29370Y1150984D01*
X19370D01*
Y1140984D01*
X29370Y1130984D01*
X19370Y1120984D01*
Y1110984D01*
X48898Y1051929D02*
X58898D01*
X68898Y1061929D01*
X78898Y1051929D01*
X88898D01*
Y1061929D01*
X78898Y1071929D01*
X88898Y1081929D01*
Y1091929D01*
X78898D01*
X68898Y1081929D01*
X58898Y1091929D01*
X48898D01*
Y1081929D01*
X58898Y1071929D01*
X48898Y1061929D01*
Y1051929D01*
X19370Y992874D02*
X29370D01*
X39370Y1002874D01*
X49370Y992874D01*
X59370D01*
Y1002874D01*
X49370Y1012874D01*
X59370Y1022874D01*
Y1032874D01*
X49370D01*
X39370Y1022874D01*
X29370Y1032874D01*
X19370D01*
Y1022874D01*
X29370Y1012874D01*
X19370Y1002874D01*
Y992874D01*
X48898Y933819D02*
X58898D01*
X68898Y943819D01*
X78898Y933819D01*
X88898D01*
Y943819D01*
X78898Y953819D01*
X88898Y963819D01*
Y973819D01*
X78898D01*
X68898Y963819D01*
X58898Y973819D01*
X48898D01*
Y963819D01*
X58898Y953819D01*
X48898Y943819D01*
Y933819D01*
X19370Y874764D02*
X29370D01*
X39370Y884764D01*
X49370Y874764D01*
X59370D01*
Y884764D01*
X49370Y894764D01*
X59370Y904764D01*
Y914764D01*
X49370D01*
X39370Y904764D01*
X29370Y914764D01*
X19370D01*
Y904764D01*
X29370Y894764D01*
X19370Y884764D01*
Y874764D01*
X48898Y815708D02*
X58898D01*
X68898Y825708D01*
X78898Y815708D01*
X88898D01*
Y825708D01*
X78898Y835708D01*
X88898Y845708D01*
Y855708D01*
X78898D01*
X68898Y845708D01*
X58898Y855708D01*
X48898D01*
Y845708D01*
X58898Y835708D01*
X48898Y825708D01*
Y815708D01*
X19370Y756653D02*
X29370D01*
X39370Y766653D01*
X49370Y756653D01*
X59370D01*
Y766653D01*
X49370Y776653D01*
X59370Y786653D01*
Y796653D01*
X49370D01*
X39370Y786653D01*
X29370Y796653D01*
X19370D01*
Y786653D01*
X29370Y776653D01*
X19370Y766653D01*
Y756653D01*
X48898Y697598D02*
X58898D01*
X68898Y707598D01*
X78898Y697598D01*
X88898D01*
Y707598D01*
X78898Y717598D01*
X88898Y727598D01*
Y737598D01*
X78898D01*
X68898Y727598D01*
X58898Y737598D01*
X48898D01*
Y727598D01*
X58898Y717598D01*
X48898Y707598D01*
Y697598D01*
X19370Y638543D02*
X29370D01*
X39370Y648543D01*
X49370Y638543D01*
X59370D01*
Y648543D01*
X49370Y658543D01*
X59370Y668543D01*
Y678543D01*
X49370D01*
X39370Y668543D01*
X29370Y678543D01*
X19370D01*
Y668543D01*
X29370Y658543D01*
X19370Y648543D01*
Y638543D01*
X48898Y579488D02*
X58898D01*
X68898Y589488D01*
X78898Y579488D01*
X88898D01*
Y589488D01*
X78898Y599488D01*
X88898Y609488D01*
Y619488D01*
X78898D01*
X68898Y609488D01*
X58898Y619488D01*
X48898D01*
Y609488D01*
X58898Y599488D01*
X48898Y589488D01*
Y579488D01*
X19370Y520433D02*
X29370D01*
X39370Y530433D01*
X49370Y520433D01*
X59370D01*
Y530433D01*
X49370Y540433D01*
X59370Y550433D01*
Y560433D01*
X49370D01*
X39370Y550433D01*
X29370Y560433D01*
X19370D01*
Y550433D01*
X29370Y540433D01*
X19370Y530433D01*
Y520433D01*
X48898Y461378D02*
X58898D01*
X68898Y471378D01*
X78898Y461378D01*
X88898D01*
Y471378D01*
X78898Y481378D01*
X88898Y491378D01*
Y501378D01*
X78898D01*
X68898Y491378D01*
X58898Y501378D01*
X48898D01*
Y491378D01*
X58898Y481378D01*
X48898Y471378D01*
Y461378D01*
X19370Y402323D02*
X29370D01*
X39370Y412323D01*
X49370Y402323D01*
X59370D01*
Y412323D01*
X49370Y422323D01*
X59370Y432323D01*
Y442323D01*
X49370D01*
X39370Y432323D01*
X29370Y442323D01*
X19370D01*
Y432323D01*
X29370Y422323D01*
X19370Y412323D01*
Y402323D01*
X48898Y343268D02*
X58898D01*
X68898Y353268D01*
X78898Y343268D01*
X88898D01*
Y353268D01*
X78898Y363268D01*
X88898Y373268D01*
Y383268D01*
X78898D01*
X68898Y373268D01*
X58898Y383268D01*
X48898D01*
Y373268D01*
X58898Y363268D01*
X48898Y353268D01*
Y343268D01*
X19370Y284213D02*
X29370D01*
X39370Y294213D01*
X49370Y284213D01*
X59370D01*
Y294213D01*
X49370Y304213D01*
X59370Y314213D01*
Y324213D01*
X49370D01*
X39370Y314213D01*
X29370Y324213D01*
X19370D01*
Y314213D01*
X29370Y304213D01*
X19370Y294213D01*
Y284213D01*
X48898Y225157D02*
X58898D01*
X68898Y235157D01*
X78898Y225157D01*
X88898D01*
Y235157D01*
X78898Y245157D01*
X88898Y255157D01*
Y265158D01*
X78898D01*
X68898Y255157D01*
X58898Y265158D01*
X48898D01*
Y255157D01*
X58898Y245157D01*
X48898Y235157D01*
Y225157D01*
X336724Y656478D02*
X346724D01*
X356724Y666478D01*
X366724Y656478D01*
X376724D01*
Y666478D01*
X366724Y676478D01*
X376724Y686478D01*
Y696478D01*
X366724D01*
X356724Y686478D01*
X346724Y696478D01*
X336724D01*
Y686478D01*
X346724Y676478D01*
X336724Y666478D01*
Y656478D01*
X258527Y811771D02*
X268527D01*
X278527Y821771D01*
X288527Y811771D01*
X298527D01*
Y821771D01*
X288527Y831771D01*
X298527Y841771D01*
Y851771D01*
X288527D01*
X278527Y841771D01*
X268527Y851771D01*
X258527D01*
Y841771D01*
X268527Y831771D01*
X258527Y821771D01*
Y811771D01*
X307758Y574488D02*
X317758D01*
X327758Y584488D01*
X337758Y574488D01*
X347758D01*
Y584488D01*
X337758Y594488D01*
X347758Y604488D01*
Y614488D01*
X337758D01*
X327758Y604488D01*
X317758Y614488D01*
X307758D01*
Y604488D01*
X317758Y594488D01*
X307758Y584488D01*
Y574488D01*
X227897Y758304D02*
X237897D01*
X247897Y768304D01*
X257897Y758304D01*
X267897D01*
Y768304D01*
X257897Y778304D01*
X267897Y788304D01*
Y798304D01*
X257897D01*
X247897Y788304D01*
X237897Y798304D01*
X227897D01*
Y788304D01*
X237897Y778304D01*
X227897Y768304D01*
Y758304D01*
X491810Y1810705D02*
X501810D01*
X511810Y1820705D01*
X521810Y1810705D01*
X531810D01*
Y1820705D01*
X521810Y1830705D01*
X531810Y1840705D01*
Y1850705D01*
X521810D01*
X511810Y1840705D01*
X501810Y1850705D01*
X491810D01*
Y1840705D01*
X501810Y1830705D01*
X491810Y1820705D01*
Y1810705D01*
X472126Y200787D02*
X492126Y220787D01*
X512126Y200787D01*
X492126Y180787D01*
X472126Y200787D01*
X552835Y306772D02*
X562835D01*
X572835Y316772D01*
X582835Y306772D01*
X592835D01*
Y316772D01*
X582835Y326772D01*
X592835Y336772D01*
Y346772D01*
X582835D01*
X572835Y336772D01*
X562835Y346772D01*
X552835D01*
Y336772D01*
X562835Y326772D01*
X552835Y316772D01*
Y306772D01*
X62677Y1263465D02*
X72677D01*
X82677Y1273465D01*
X92677Y1263465D01*
X102677D01*
Y1273465D01*
X92677Y1283465D01*
X102677Y1293465D01*
Y1303465D01*
X92677D01*
X82677Y1293465D01*
X72677Y1303465D01*
X62677D01*
Y1293465D01*
X72677Y1283465D01*
X62677Y1273465D01*
Y1263465D01*
X720158Y1580472D02*
X730158D01*
X740158Y1590472D01*
X750158Y1580472D01*
X760158D01*
Y1590472D01*
X750158Y1600472D01*
X760158Y1610472D01*
Y1620472D01*
X750158D01*
X740158Y1610472D01*
X730158Y1620472D01*
X720158D01*
Y1610472D01*
X730158Y1600472D01*
X720158Y1590472D01*
Y1580472D01*
X836299Y1692598D02*
X846299D01*
X856299Y1702598D01*
X866299Y1692598D01*
X876299D01*
Y1702598D01*
X866299Y1712598D01*
X876299Y1722598D01*
Y1732598D01*
X866299D01*
X856299Y1722598D01*
X846299Y1732598D01*
X836299D01*
Y1722598D01*
X846299Y1712598D01*
X836299Y1702598D01*
Y1692598D01*
X322519Y338267D02*
X332519D01*
X342519Y348267D01*
X352519Y338267D01*
X362519D01*
Y348267D01*
X352519Y358267D01*
X362519Y368267D01*
Y378267D01*
X352519D01*
X342519Y368267D01*
X332519Y378267D01*
X322519D01*
Y368267D01*
X332519Y358267D01*
X322519Y348267D01*
Y338267D01*
X1013464Y1338267D02*
X1023464D01*
X1033464Y1348267D01*
X1043464Y1338267D01*
X1053464D01*
Y1348267D01*
X1043464Y1358267D01*
X1053464Y1368267D01*
Y1378267D01*
X1043464D01*
X1033464Y1368267D01*
X1023464Y1378267D01*
X1013464D01*
Y1368267D01*
X1023464Y1358267D01*
X1013464Y1348267D01*
Y1338267D01*
X541023Y1692598D02*
X551023D01*
X561023Y1702598D01*
X571023Y1692598D01*
X581023D01*
Y1702598D01*
X571023Y1712598D01*
X581023Y1722598D01*
Y1732598D01*
X571023D01*
X561023Y1722598D01*
X551023Y1732598D01*
X541023D01*
Y1722598D01*
X551023Y1712598D01*
X541023Y1702598D01*
Y1692598D01*
X617794Y1377635D02*
X627794D01*
X637794Y1387635D01*
X647794Y1377635D01*
X657794D01*
Y1387635D01*
X647794Y1397635D01*
X657794Y1407635D01*
Y1417635D01*
X647794D01*
X637794Y1407635D01*
X627794Y1417635D01*
X617794D01*
Y1407635D01*
X627794Y1397635D01*
X617794Y1387635D01*
Y1377635D01*
X850079Y1121732D02*
X860079D01*
X870079Y1131732D01*
X880079Y1121732D01*
X890079D01*
Y1131732D01*
X880079Y1141732D01*
X890079Y1151732D01*
Y1161732D01*
X880079D01*
X870079Y1151732D01*
X860079Y1161732D01*
X850079D01*
Y1151732D01*
X860079Y1141732D01*
X850079Y1131732D01*
Y1121732D01*
X1062677Y1338268D02*
X1072677D01*
X1082677Y1348268D01*
X1092677Y1338268D01*
X1102677D01*
Y1348268D01*
X1092677Y1358268D01*
X1102677Y1368268D01*
Y1378268D01*
X1092677D01*
X1082677Y1368268D01*
X1072677Y1378268D01*
X1062677D01*
Y1368268D01*
X1072677Y1358268D01*
X1062677Y1348268D01*
Y1338268D01*
X539055Y1649291D02*
X549055D01*
X559055Y1659291D01*
X569055Y1649291D01*
X579055D01*
Y1659291D01*
X569055Y1669291D01*
X579055Y1679291D01*
Y1689291D01*
X569055D01*
X559055Y1679291D01*
X549055Y1689291D01*
X539055D01*
Y1679291D01*
X549055Y1669291D01*
X539055Y1659291D01*
Y1649291D01*
X983937Y1987873D02*
X993937D01*
X1003937Y1997873D01*
X1013937Y1987873D01*
X1023937D01*
Y1997873D01*
X1013937Y2007873D01*
X1023937Y2017873D01*
Y2027873D01*
X1013937D01*
X1003937Y2017873D01*
X993937Y2027873D01*
X983937D01*
Y2017873D01*
X993937Y2007873D01*
X983937Y1997873D01*
Y1987873D01*
X1013464Y1928818D02*
X1023464D01*
X1033464Y1938818D01*
X1043464Y1928818D01*
X1053464D01*
Y1938818D01*
X1043464Y1948818D01*
X1053464Y1958818D01*
Y1968818D01*
X1043464D01*
X1033464Y1958818D01*
X1023464Y1968818D01*
X1013464D01*
Y1958818D01*
X1023464Y1948818D01*
X1013464Y1938818D01*
Y1928818D01*
X983937Y1161102D02*
X993937D01*
X1003937Y1171102D01*
X1013937Y1161102D01*
X1023937D01*
Y1171102D01*
X1013937Y1181102D01*
X1023937Y1191102D01*
Y1201102D01*
X1013937D01*
X1003937Y1191102D01*
X993937Y1201102D01*
X983937D01*
Y1191102D01*
X993937Y1181102D01*
X983937Y1171102D01*
Y1161102D01*
X1013464Y1102047D02*
X1023464D01*
X1033464Y1112047D01*
X1043464Y1102047D01*
X1053464D01*
Y1112047D01*
X1043464Y1122047D01*
X1053464Y1132047D01*
Y1142047D01*
X1043464D01*
X1033464Y1132047D01*
X1023464Y1142047D01*
X1013464D01*
Y1132047D01*
X1023464Y1122047D01*
X1013464Y1112047D01*
Y1102047D01*
X924882Y1869763D02*
X934882D01*
X944882Y1879763D01*
X954882Y1869763D01*
X964882D01*
Y1879763D01*
X954882Y1889763D01*
X964882Y1899763D01*
Y1909763D01*
X954882D01*
X944882Y1899763D01*
X934882Y1909763D01*
X924882D01*
Y1899763D01*
X934882Y1889763D01*
X924882Y1879763D01*
Y1869763D01*
X954409Y1810708D02*
X964409D01*
X974409Y1820708D01*
X984409Y1810708D01*
X994409D01*
Y1820708D01*
X984409Y1830708D01*
X994409Y1840708D01*
Y1850708D01*
X984409D01*
X974409Y1840708D01*
X964409Y1850708D01*
X954409D01*
Y1840708D01*
X964409Y1830708D01*
X954409Y1820708D01*
Y1810708D01*
X865827Y1987873D02*
X875827D01*
X885827Y1997873D01*
X895827Y1987873D01*
X905827D01*
Y1997873D01*
X895827Y2007873D01*
X905827Y2017873D01*
Y2027873D01*
X895827D01*
X885827Y2017873D01*
X875827Y2027873D01*
X865827D01*
Y2017873D01*
X875827Y2007873D01*
X865827Y1997873D01*
Y1987873D01*
X895354Y1928818D02*
X905354D01*
X915354Y1938818D01*
X925354Y1928818D01*
X935354D01*
Y1938818D01*
X925354Y1948818D01*
X935354Y1958818D01*
Y1968818D01*
X925354D01*
X915354Y1958818D01*
X905354Y1968818D01*
X895354D01*
Y1958818D01*
X905354Y1948818D01*
X895354Y1938818D01*
Y1928818D01*
Y1810708D02*
X905354D01*
X915354Y1820708D01*
X925354Y1810708D01*
X935354D01*
Y1820708D01*
X925354Y1830708D01*
X935354Y1840708D01*
Y1850708D01*
X925354D01*
X915354Y1840708D01*
X905354Y1850708D01*
X895354D01*
Y1840708D01*
X905354Y1830708D01*
X895354Y1820708D01*
Y1810708D01*
X865827Y1751653D02*
X875827D01*
X885827Y1761653D01*
X895827Y1751653D01*
X905827D01*
Y1761653D01*
X895827Y1771653D01*
X905827Y1781653D01*
Y1791653D01*
X895827D01*
X885827Y1781653D01*
X875827Y1791653D01*
X865827D01*
Y1781653D01*
X875827Y1771653D01*
X865827Y1761653D01*
Y1751653D01*
X806771Y1987873D02*
X816771D01*
X826771Y1997873D01*
X836771Y1987873D01*
X846771D01*
Y1997873D01*
X836771Y2007873D01*
X846771Y2017873D01*
Y2027873D01*
X836771D01*
X826771Y2017873D01*
X816771Y2027873D01*
X806771D01*
Y2017873D01*
X816771Y2007873D01*
X806771Y1997873D01*
Y1987873D01*
X836299Y1810708D02*
X846299D01*
X856299Y1820708D01*
X866299Y1810708D01*
X876299D01*
Y1820708D01*
X866299Y1830708D01*
X876299Y1840708D01*
Y1850708D01*
X866299D01*
X856299Y1840708D01*
X846299Y1850708D01*
X836299D01*
Y1840708D01*
X846299Y1830708D01*
X836299Y1820708D01*
Y1810708D01*
X747716Y1987873D02*
X757716D01*
X767716Y1997873D01*
X777716Y1987873D01*
X787716D01*
Y1997873D01*
X777716Y2007873D01*
X787716Y2017873D01*
Y2027873D01*
X777716D01*
X767716Y2017873D01*
X757716Y2027873D01*
X747716D01*
Y2017873D01*
X757716Y2007873D01*
X747716Y1997873D01*
Y1987873D01*
Y1869763D02*
X757716D01*
X767716Y1879763D01*
X777716Y1869763D01*
X787716D01*
Y1879763D01*
X777716Y1889763D01*
X787716Y1899763D01*
Y1909763D01*
X777716D01*
X767716Y1899763D01*
X757716Y1909763D01*
X747716D01*
Y1899763D01*
X757716Y1889763D01*
X747716Y1879763D01*
Y1869763D01*
Y1751653D02*
X757716D01*
X767716Y1761653D01*
X777716Y1751653D01*
X787716D01*
Y1761653D01*
X777716Y1771653D01*
X787716Y1781653D01*
Y1791653D01*
X777716D01*
X767716Y1781653D01*
X757716Y1791653D01*
X747716D01*
Y1781653D01*
X757716Y1771653D01*
X747716Y1761653D01*
Y1751653D01*
X777244Y1692598D02*
X787244D01*
X797244Y1702598D01*
X807244Y1692598D01*
X817244D01*
Y1702598D01*
X807244Y1712598D01*
X817244Y1722598D01*
Y1732598D01*
X807244D01*
X797244Y1722598D01*
X787244Y1732598D01*
X777244D01*
Y1722598D01*
X787244Y1712598D01*
X777244Y1702598D01*
Y1692598D01*
X718189Y1928818D02*
X728189D01*
X738189Y1938818D01*
X748189Y1928818D01*
X758189D01*
Y1938818D01*
X748189Y1948818D01*
X758189Y1958818D01*
Y1968818D01*
X748189D01*
X738189Y1958818D01*
X728189Y1968818D01*
X718189D01*
Y1958818D01*
X728189Y1948818D01*
X718189Y1938818D01*
Y1928818D01*
Y1810708D02*
X728189D01*
X738189Y1820708D01*
X748189Y1810708D01*
X758189D01*
Y1820708D01*
X748189Y1830708D01*
X758189Y1840708D01*
Y1850708D01*
X748189D01*
X738189Y1840708D01*
X728189Y1850708D01*
X718189D01*
Y1840708D01*
X728189Y1830708D01*
X718189Y1820708D01*
Y1810708D01*
Y1692598D02*
X728189D01*
X738189Y1702598D01*
X748189Y1692598D01*
X758189D01*
Y1702598D01*
X748189Y1712598D01*
X758189Y1722598D01*
Y1732598D01*
X748189D01*
X738189Y1722598D01*
X728189Y1732598D01*
X718189D01*
Y1722598D01*
X728189Y1712598D01*
X718189Y1702598D01*
Y1692598D01*
X600078D02*
X610078D01*
X620078Y1702598D01*
X630078Y1692598D01*
X640078D01*
Y1702598D01*
X630078Y1712598D01*
X640078Y1722598D01*
Y1732598D01*
X630078D01*
X620078Y1722598D01*
X610078Y1732598D01*
X600078D01*
Y1722598D01*
X610078Y1712598D01*
X600078Y1702598D01*
Y1692598D01*
X541023Y1928818D02*
X551023D01*
X561023Y1938818D01*
X571023Y1928818D01*
X581023D01*
Y1938818D01*
X571023Y1948818D01*
X581023Y1958818D01*
Y1968818D01*
X571023D01*
X561023Y1958818D01*
X551023Y1968818D01*
X541023D01*
Y1958818D01*
X551023Y1948818D01*
X541023Y1938818D01*
Y1928818D01*
X511496Y1751653D02*
X521496D01*
X531496Y1761653D01*
X541496Y1751653D01*
X551496D01*
Y1761653D01*
X541496Y1771653D01*
X551496Y1781653D01*
Y1791653D01*
X541496D01*
X531496Y1781653D01*
X521496Y1791653D01*
X511496D01*
Y1781653D01*
X521496Y1771653D01*
X511496Y1761653D01*
Y1751653D01*
X481968Y1928818D02*
X491968D01*
X501968Y1938818D01*
X511968Y1928818D01*
X521968D01*
Y1938818D01*
X511968Y1948818D01*
X521968Y1958818D01*
Y1968818D01*
X511968D01*
X501968Y1958818D01*
X491968Y1968818D01*
X481968D01*
Y1958818D01*
X491968Y1948818D01*
X481968Y1938818D01*
Y1928818D01*
X422913D02*
X432913D01*
X442913Y1938818D01*
X452913Y1928818D01*
X462913D01*
Y1938818D01*
X452913Y1948818D01*
X462913Y1958818D01*
Y1968818D01*
X452913D01*
X442913Y1958818D01*
X432913Y1968818D01*
X422913D01*
Y1958818D01*
X432913Y1948818D01*
X422913Y1938818D01*
Y1928818D01*
Y1692598D02*
X432913D01*
X442913Y1702598D01*
X452913Y1692598D01*
X462913D01*
Y1702598D01*
X452913Y1712598D01*
X462913Y1722598D01*
Y1732598D01*
X452913D01*
X442913Y1722598D01*
X432913Y1732598D01*
X422913D01*
Y1722598D01*
X432913Y1712598D01*
X422913Y1702598D01*
Y1692598D01*
X393386Y1633543D02*
X403386D01*
X413386Y1643543D01*
X423386Y1633543D01*
X433386D01*
Y1643543D01*
X423386Y1653543D01*
X433386Y1663543D01*
Y1673543D01*
X423386D01*
X413386Y1663543D01*
X403386Y1673543D01*
X393386D01*
Y1663543D01*
X403386Y1653543D01*
X393386Y1643543D01*
Y1633543D01*
X422913Y1456378D02*
X432913D01*
X442913Y1466378D01*
X452913Y1456378D01*
X462913D01*
Y1466378D01*
X452913Y1476378D01*
X462913Y1486378D01*
Y1496378D01*
X452913D01*
X442913Y1486378D01*
X432913Y1496378D01*
X422913D01*
Y1486378D01*
X432913Y1476378D01*
X422913Y1466378D01*
Y1456378D01*
X334331Y1751653D02*
X344331D01*
X354331Y1761653D01*
X364331Y1751653D01*
X374331D01*
Y1761653D01*
X364331Y1771653D01*
X374331Y1781653D01*
Y1791653D01*
X364331D01*
X354331Y1781653D01*
X344331Y1791653D01*
X334331D01*
Y1781653D01*
X344331Y1771653D01*
X334331Y1761653D01*
Y1751653D01*
X363858Y1692598D02*
X373858D01*
X383858Y1702598D01*
X393858Y1692598D01*
X403858D01*
Y1702598D01*
X393858Y1712598D01*
X403858Y1722598D01*
Y1732598D01*
X393858D01*
X383858Y1722598D01*
X373858Y1732598D01*
X363858D01*
Y1722598D01*
X373858Y1712598D01*
X363858Y1702598D01*
Y1692598D01*
X304803Y1928818D02*
X314803D01*
X324803Y1938818D01*
X334803Y1928818D01*
X344803D01*
Y1938818D01*
X334803Y1948818D01*
X344803Y1958818D01*
Y1968818D01*
X334803D01*
X324803Y1958818D01*
X314803Y1968818D01*
X304803D01*
Y1958818D01*
X314803Y1948818D01*
X304803Y1938818D01*
Y1928818D01*
X275276Y1869763D02*
X285276D01*
X295276Y1879763D01*
X305276Y1869763D01*
X315276D01*
Y1879763D01*
X305276Y1889763D01*
X315276Y1899763D01*
Y1909763D01*
X305276D01*
X295276Y1899763D01*
X285276Y1909763D01*
X275276D01*
Y1899763D01*
X285276Y1889763D01*
X275276Y1879763D01*
Y1869763D01*
X304803Y1810708D02*
X314803D01*
X324803Y1820708D01*
X334803Y1810708D01*
X344803D01*
Y1820708D01*
X334803Y1830708D01*
X344803Y1840708D01*
Y1850708D01*
X334803D01*
X324803Y1840708D01*
X314803Y1850708D01*
X304803D01*
Y1840708D01*
X314803Y1830708D01*
X304803Y1820708D01*
Y1810708D01*
Y1692598D02*
X314803D01*
X324803Y1702598D01*
X334803Y1692598D01*
X344803D01*
Y1702598D01*
X334803Y1712598D01*
X344803Y1722598D01*
Y1732598D01*
X334803D01*
X324803Y1722598D01*
X314803Y1732598D01*
X304803D01*
Y1722598D01*
X314803Y1712598D01*
X304803Y1702598D01*
Y1692598D01*
Y1574488D02*
X314803D01*
X324803Y1584488D01*
X334803Y1574488D01*
X344803D01*
Y1584488D01*
X334803Y1594488D01*
X344803Y1604488D01*
Y1614488D01*
X334803D01*
X324803Y1604488D01*
X314803Y1614488D01*
X304803D01*
Y1604488D01*
X314803Y1594488D01*
X304803Y1584488D01*
Y1574488D01*
X275276Y1042992D02*
X285276D01*
X295276Y1052992D01*
X305276Y1042992D01*
X315276D01*
Y1052992D01*
X305276Y1062992D01*
X315276Y1072992D01*
Y1082992D01*
X305276D01*
X295276Y1072992D01*
X285276Y1082992D01*
X275276D01*
Y1072992D01*
X285276Y1062992D01*
X275276Y1052992D01*
Y1042992D01*
X216220Y1987873D02*
X226220D01*
X236220Y1997873D01*
X246220Y1987873D01*
X256220D01*
Y1997873D01*
X246220Y2007873D01*
X256220Y2017873D01*
Y2027873D01*
X246220D01*
X236220Y2017873D01*
X226220Y2027873D01*
X216220D01*
Y2017873D01*
X226220Y2007873D01*
X216220Y1997873D01*
Y1987873D01*
X245748Y1810708D02*
X255748D01*
X265748Y1820708D01*
X275748Y1810708D01*
X285748D01*
Y1820708D01*
X275748Y1830708D01*
X285748Y1840708D01*
Y1850708D01*
X275748D01*
X265748Y1840708D01*
X255748Y1850708D01*
X245748D01*
Y1840708D01*
X255748Y1830708D01*
X245748Y1820708D01*
Y1810708D01*
Y1574488D02*
X255748D01*
X265748Y1584488D01*
X275748Y1574488D01*
X285748D01*
Y1584488D01*
X275748Y1594488D01*
X285748Y1604488D01*
Y1614488D01*
X275748D01*
X265748Y1604488D01*
X255748Y1614488D01*
X245748D01*
Y1604488D01*
X255748Y1594488D01*
X245748Y1584488D01*
Y1574488D01*
X216220Y1515433D02*
X226220D01*
X236220Y1525433D01*
X246220Y1515433D01*
X256220D01*
Y1525433D01*
X246220Y1535433D01*
X256220Y1545433D01*
Y1555433D01*
X246220D01*
X236220Y1545433D01*
X226220Y1555433D01*
X216220D01*
Y1545433D01*
X226220Y1535433D01*
X216220Y1525433D01*
Y1515433D01*
X245748Y1338267D02*
X255748D01*
X265748Y1348267D01*
X275748Y1338267D01*
X285748D01*
Y1348267D01*
X275748Y1358267D01*
X285748Y1368267D01*
Y1378267D01*
X275748D01*
X265748Y1368267D01*
X255748Y1378267D01*
X245748D01*
Y1368267D01*
X255748Y1358267D01*
X245748Y1348267D01*
Y1338267D01*
X186693Y1810708D02*
X196693D01*
X206693Y1820708D01*
X216693Y1810708D01*
X226693D01*
Y1820708D01*
X216693Y1830708D01*
X226693Y1840708D01*
Y1850708D01*
X216693D01*
X206693Y1840708D01*
X196693Y1850708D01*
X186693D01*
Y1840708D01*
X196693Y1830708D01*
X186693Y1820708D01*
Y1810708D01*
Y1692598D02*
X196693D01*
X206693Y1702598D01*
X216693Y1692598D01*
X226693D01*
Y1702598D01*
X216693Y1712598D01*
X226693Y1722598D01*
Y1732598D01*
X216693D01*
X206693Y1722598D01*
X196693Y1732598D01*
X186693D01*
Y1722598D01*
X196693Y1712598D01*
X186693Y1702598D01*
Y1692598D01*
X68583Y1810708D02*
X78583D01*
X88583Y1820708D01*
X98583Y1810708D01*
X108583D01*
Y1820708D01*
X98583Y1830708D01*
X108583Y1840708D01*
Y1850708D01*
X98583D01*
X88583Y1840708D01*
X78583Y1850708D01*
X68583D01*
Y1840708D01*
X78583Y1830708D01*
X68583Y1820708D01*
Y1810708D01*
X39055Y1751653D02*
X49055D01*
X59055Y1761653D01*
X69055Y1751653D01*
X79055D01*
Y1761653D01*
X69055Y1771653D01*
X79055Y1781653D01*
Y1791653D01*
X69055D01*
X59055Y1781653D01*
X49055Y1791653D01*
X39055D01*
Y1781653D01*
X49055Y1771653D01*
X39055Y1761653D01*
Y1751653D01*
X68583Y1692598D02*
X78583D01*
X88583Y1702598D01*
X98583Y1692598D01*
X108583D01*
Y1702598D01*
X98583Y1712598D01*
X108583Y1722598D01*
Y1732598D01*
X98583D01*
X88583Y1722598D01*
X78583Y1732598D01*
X68583D01*
Y1722598D01*
X78583Y1712598D01*
X68583Y1702598D01*
Y1692598D01*
X238885Y1436032D02*
X248885D01*
X258885Y1446032D01*
X268885Y1436032D01*
X278885D01*
Y1446032D01*
X268885Y1456032D01*
X278885Y1466032D01*
Y1476032D01*
X268885D01*
X258885Y1466032D01*
X248885Y1476032D01*
X238885D01*
Y1466032D01*
X248885Y1456032D01*
X238885Y1446032D01*
Y1436032D01*
X124623Y1518435D02*
X134623D01*
X144623Y1528435D01*
X154623Y1518435D01*
X164623D01*
Y1528435D01*
X154623Y1538435D01*
X164623Y1548435D01*
Y1558435D01*
X154623D01*
X144623Y1548435D01*
X134623Y1558435D01*
X124623D01*
Y1548435D01*
X134623Y1538435D01*
X124623Y1528435D01*
Y1518435D01*
X919988Y1302144D02*
X929988D01*
X939988Y1312144D01*
X949988Y1302144D01*
X959988D01*
Y1312144D01*
X949988Y1322144D01*
X959988Y1332144D01*
Y1342144D01*
X949988D01*
X939988Y1332144D01*
X929988Y1342144D01*
X919988D01*
Y1332144D01*
X929988Y1322144D01*
X919988Y1312144D01*
Y1302144D01*
X1010539Y1199378D02*
X1020539D01*
X1030539Y1209378D01*
X1040539Y1199378D01*
X1050539D01*
Y1209378D01*
X1040539Y1219378D01*
X1050539Y1229378D01*
Y1239378D01*
X1040539D01*
X1030539Y1229378D01*
X1020539Y1239378D01*
X1010539D01*
Y1229378D01*
X1020539Y1219378D01*
X1010539Y1209378D01*
Y1199378D01*
X833068Y1885512D02*
Y1925512D01*
X873068D01*
Y1885512D01*
X833068D01*
X841068Y1893512D02*
Y1917512D01*
X865068D01*
Y1893512D01*
X841068D01*
X474961Y1731968D02*
X484961D01*
X494961Y1741968D01*
X504961Y1731968D01*
X514961D01*
Y1741968D01*
X504961Y1751968D01*
X514961Y1761968D01*
Y1771968D01*
X504961D01*
X494961Y1761968D01*
X484961Y1771968D01*
X474961D01*
Y1761968D01*
X484961Y1751968D01*
X474961Y1741968D01*
Y1731968D01*
X14476Y1606661D02*
X24476D01*
X34476Y1616661D01*
X44476Y1606661D01*
X54476D01*
Y1616661D01*
X44476Y1626661D01*
X54476Y1636661D01*
Y1646661D01*
X44476D01*
X34476Y1636661D01*
X24476Y1646661D01*
X14476D01*
Y1636661D01*
X24476Y1626661D01*
X14476Y1616661D01*
Y1606661D01*
X247744Y1731968D02*
X257743D01*
X267743Y1741968D01*
X277743Y1731968D01*
X287743D01*
Y1741968D01*
X277743Y1751968D01*
X287743Y1761968D01*
Y1771968D01*
X277743D01*
X267743Y1761968D01*
X257743Y1771968D01*
X247744D01*
Y1761968D01*
X257743Y1751968D01*
X247744Y1741968D01*
Y1731968D01*
X1025330Y1590236D02*
X1035330D01*
X1045330Y1600236D01*
X1055330Y1590236D01*
X1065330D01*
Y1600236D01*
X1055330Y1610236D01*
X1065330Y1620236D01*
Y1630236D01*
X1055330D01*
X1045330Y1620236D01*
X1035330Y1630236D01*
X1025330D01*
Y1620236D01*
X1035330Y1610236D01*
X1025330Y1600236D01*
Y1590236D01*
X708346Y1007559D02*
Y1047559D01*
X748346D01*
Y1007559D01*
X708346D01*
X716346Y1015559D02*
Y1039559D01*
X740346D01*
Y1015559D01*
X716346D01*
X791024Y850079D02*
Y890079D01*
X831024D01*
Y850079D01*
X791024D01*
X799024Y858079D02*
Y882079D01*
X823024D01*
Y858079D01*
X799024D01*
X861890Y932756D02*
Y972756D01*
X901890D01*
Y932756D01*
X861890D01*
X869890Y940756D02*
Y964756D01*
X893890D01*
Y940756D01*
X869890D01*
X913071Y609921D02*
Y649921D01*
X953071D01*
Y609921D01*
X913071D01*
X921071Y617921D02*
Y641921D01*
X945071D01*
Y617921D01*
X921071D01*
X239843Y145354D02*
X249843D01*
X259842Y155354D01*
X269842Y145354D01*
X279842D01*
Y155354D01*
X269842Y165354D01*
X279842Y175354D01*
Y185354D01*
X269842D01*
X259842Y175354D01*
X249843Y185354D01*
X239843D01*
Y175354D01*
X249843Y165354D01*
X239843Y155354D01*
Y145354D01*
X302835Y208346D02*
X312835D01*
X322835Y218346D01*
X332835Y208346D01*
X342835D01*
Y218346D01*
X332835Y228346D01*
X342835Y238346D01*
Y248346D01*
X332835D01*
X322835Y238346D01*
X312835Y248346D01*
X302835D01*
Y238346D01*
X312835Y228346D01*
X302835Y218346D01*
Y208346D01*
X424882Y420945D02*
X434882D01*
X444882Y430945D01*
X454882Y420945D01*
X464882D01*
Y430945D01*
X454882Y440945D01*
X464882Y450945D01*
Y460945D01*
X454882D01*
X444882Y450945D01*
X434882Y460945D01*
X424882D01*
Y450945D01*
X434882Y440945D01*
X424882Y430945D01*
Y420945D01*
X351919Y399045D02*
X361919D01*
X371919Y409045D01*
X381919Y399045D01*
X391919D01*
Y409045D01*
X381919Y419045D01*
X391919Y429045D01*
Y439045D01*
X381919D01*
X371919Y429045D01*
X361919Y439045D01*
X351919D01*
Y429045D01*
X361919Y419045D01*
X351919Y409045D01*
Y399045D01*
X603407Y66614D02*
X613407D01*
X623407Y76614D01*
X633407Y66614D01*
X643407D01*
Y76614D01*
X633407Y86614D01*
X643407Y96614D01*
Y106614D01*
X633407D01*
X623407Y96614D01*
X613407Y106614D01*
X603407D01*
Y96614D01*
X613407Y86614D01*
X603407Y76614D01*
Y66614D01*
X285118Y1519370D02*
X295118D01*
X305118Y1529370D01*
X315118Y1519370D01*
X325118D01*
Y1529370D01*
X315118Y1539370D01*
X325118Y1549370D01*
Y1559370D01*
X315118D01*
X305118Y1549370D01*
X295118Y1559370D01*
X285118D01*
Y1549370D01*
X295118Y1539370D01*
X285118Y1529370D01*
Y1519370D01*
X590236D02*
X600236D01*
X610236Y1529370D01*
X620236Y1519370D01*
X630236D01*
Y1529370D01*
X620236Y1539370D01*
X630236Y1549370D01*
Y1559370D01*
X620236D01*
X610236Y1549370D01*
X600236Y1559370D01*
X590236D01*
Y1549370D01*
X600236Y1539370D01*
X590236Y1529370D01*
Y1519370D01*
D106*
X443683Y1852882D02*
G03*
X443683Y1852882I-20000J0D01*
G01*
%TF.MD5,4f37f3ea9a43d8937cccc44e0c167bd1*%
M02*
