%TF.GenerationSoftware,Altium Limited,Altium Designer,19.0.10 (269)*%
G04 Layer_Color=8388736*
%FSLAX26Y26*%
%MOIN*%
%TF.FileFunction,Soldermask,Top*%
%TF.Part,Single*%
G01*
G75*
%TA.AperFunction,SMDPad,CuDef*%
%ADD64R,0.047370X0.043433*%
%ADD72R,0.043433X0.039496*%
%TA.AperFunction,ComponentPad*%
%ADD73C,0.008000*%
%ADD74C,0.068000*%
%ADD75R,0.067055X0.067055*%
%ADD76C,0.067055*%
%TA.AperFunction,ViaPad*%
%ADD77C,0.165480*%
%ADD78C,0.038000*%
%ADD79C,0.048000*%
%ADD80C,0.058000*%
%TA.AperFunction,SMDPad,CuDef*%
G04:AMPARAMS|DCode=81|XSize=45.402mil|YSize=41.465mil|CornerRadius=0mil|HoleSize=0mil|Usage=FLASHONLY|Rotation=135.000|XOffset=0mil|YOffset=0mil|HoleType=Round|Shape=Rectangle|*
%AMROTATEDRECTD81*
4,1,4,0.030712,-0.001392,0.001392,-0.030712,-0.030712,0.001392,-0.001392,0.030712,0.030712,-0.001392,0.0*
%
%ADD81ROTATEDRECTD81*%

%TA.AperFunction,ConnectorPad*%
G04:AMPARAMS|DCode=82|XSize=47.37mil|YSize=43.433mil|CornerRadius=0mil|HoleSize=0mil|Usage=FLASHONLY|Rotation=45.000|XOffset=0mil|YOffset=0mil|HoleType=Round|Shape=Rectangle|*
%AMROTATEDRECTD82*
4,1,4,-0.001392,-0.032104,-0.032104,-0.001392,0.001392,0.032104,0.032104,0.001392,-0.001392,-0.032104,0.0*
%
%ADD82ROTATEDRECTD82*%

%TA.AperFunction,SMDPad,CuDef*%
%ADD83R,0.041465X0.045402*%
%ADD84R,0.053276X0.088709*%
G04:AMPARAMS|DCode=85|XSize=37.921mil|YSize=102.488mil|CornerRadius=0mil|HoleSize=0mil|Usage=FLASHONLY|Rotation=135.000|XOffset=0mil|YOffset=0mil|HoleType=Round|Shape=Rectangle|*
%AMROTATEDRECTD85*
4,1,4,0.049642,0.022828,-0.022828,-0.049642,-0.049642,-0.022828,0.022828,0.049642,0.049642,0.022828,0.0*
%
%ADD85ROTATEDRECTD85*%

%ADD86R,0.019811X0.061150*%
%ADD87R,0.061150X0.019811*%
%ADD88R,0.088709X0.053276*%
%ADD89R,0.045402X0.041465*%
%ADD90O,0.065087X0.031622*%
D64*
X669291Y1591585D02*
D03*
Y1538435D02*
D03*
X368378Y937992D02*
D03*
Y991142D02*
D03*
X297345Y937992D02*
D03*
Y991142D02*
D03*
X1035433Y1009124D02*
D03*
Y1062274D02*
D03*
X73937Y1414537D02*
D03*
Y1361388D02*
D03*
D72*
X443937Y1434341D02*
D03*
Y1359537D02*
D03*
X522677Y1396939D02*
D03*
D73*
X608722Y1852882D02*
D03*
X423683D02*
D03*
D74*
X693367Y2022961D02*
D03*
X575257D02*
D03*
X457147D02*
D03*
X339037D02*
D03*
D75*
X145581Y1674213D02*
D03*
D76*
Y1215551D02*
D03*
D77*
X1161417Y1948819D02*
D03*
X114173D02*
D03*
X1153543Y136134D02*
D03*
X114173Y123478D02*
D03*
D78*
X401839Y708661D02*
D03*
X393701Y74803D02*
D03*
X1250000Y2016811D02*
D03*
X1220472Y1839645D02*
D03*
X1250000Y1780590D02*
D03*
Y1544370D02*
D03*
X1220472Y1485315D02*
D03*
X1250000Y1426259D02*
D03*
X1220472Y1367204D02*
D03*
X1250000Y1308149D02*
D03*
X1220472Y1249094D02*
D03*
X1250000Y1190039D02*
D03*
X1220472Y1130984D02*
D03*
X1250000Y1071929D02*
D03*
X1220472Y1012874D02*
D03*
X1250000Y953819D02*
D03*
X1220472Y894764D02*
D03*
X1250000Y835708D02*
D03*
X1220472Y776653D02*
D03*
X1250000Y717598D02*
D03*
X1220472Y658543D02*
D03*
X1250000Y599488D02*
D03*
X1220472Y540433D02*
D03*
X1250000Y481378D02*
D03*
X1220472Y422323D02*
D03*
X1250000Y363268D02*
D03*
X1220472Y304213D02*
D03*
X1250000Y245157D02*
D03*
X1161417Y1839645D02*
D03*
Y1721535D02*
D03*
Y1130984D02*
D03*
X1190945Y1071929D02*
D03*
X1161417Y1012874D02*
D03*
X1190945Y953819D02*
D03*
X1161417Y894764D02*
D03*
X1190945Y835708D02*
D03*
Y717598D02*
D03*
X1161417Y658543D02*
D03*
X1190945Y599488D02*
D03*
X1161417Y540433D02*
D03*
X1190945Y481378D02*
D03*
X1161417Y422323D02*
D03*
X1190945Y363268D02*
D03*
X1161417Y304213D02*
D03*
X1190945Y245157D02*
D03*
X1131889Y1308149D02*
D03*
Y1071929D02*
D03*
Y953819D02*
D03*
Y835708D02*
D03*
Y599488D02*
D03*
Y481378D02*
D03*
X1102362Y422323D02*
D03*
X1131889Y363268D02*
D03*
X1102362Y304213D02*
D03*
X1131889Y245157D02*
D03*
X1072834Y363268D02*
D03*
X1043307Y304213D02*
D03*
X1072834Y245157D02*
D03*
X1043307Y186102D02*
D03*
Y67992D02*
D03*
X1013779Y363268D02*
D03*
X984252Y304213D02*
D03*
X1013779Y245157D02*
D03*
X984252Y186102D02*
D03*
X1013779Y127047D02*
D03*
X984252Y67992D02*
D03*
X954724Y245157D02*
D03*
X925197Y186102D02*
D03*
X954724Y127047D02*
D03*
X925197Y67992D02*
D03*
X895669Y245157D02*
D03*
X866141Y186102D02*
D03*
X895669Y127047D02*
D03*
X866141Y67992D02*
D03*
X836614Y363268D02*
D03*
Y127047D02*
D03*
X807086Y67992D02*
D03*
X777559Y363268D02*
D03*
X748031Y304213D02*
D03*
X777559Y127047D02*
D03*
X748031Y67992D02*
D03*
X659449Y599488D02*
D03*
X570866Y658543D02*
D03*
X600394Y599488D02*
D03*
X570866Y540433D02*
D03*
X541338Y717598D02*
D03*
X511811Y658543D02*
D03*
X541338Y599488D02*
D03*
X511811Y540433D02*
D03*
X541338Y481378D02*
D03*
X482283Y599488D02*
D03*
X452756Y540433D02*
D03*
X482283Y481378D02*
D03*
X393701Y540433D02*
D03*
X423228Y481378D02*
D03*
X334646Y540433D02*
D03*
X364173Y481378D02*
D03*
X275591Y540433D02*
D03*
X305118Y481378D02*
D03*
X275591Y422323D02*
D03*
Y304213D02*
D03*
Y67992D02*
D03*
X246063Y599488D02*
D03*
X216535Y540433D02*
D03*
X246063Y481378D02*
D03*
X216535Y422323D02*
D03*
X246063Y363268D02*
D03*
X216535Y304213D02*
D03*
X246063Y245157D02*
D03*
X216535Y186102D02*
D03*
Y67992D02*
D03*
X157480Y1012874D02*
D03*
X187008Y953819D02*
D03*
X157480Y894764D02*
D03*
X187008Y599488D02*
D03*
X157480Y540433D02*
D03*
X187008Y481378D02*
D03*
X157480Y422323D02*
D03*
X187008Y363268D02*
D03*
X157480Y304213D02*
D03*
X187008Y245157D02*
D03*
X98425Y1012874D02*
D03*
X127953Y953819D02*
D03*
X98425Y894764D02*
D03*
X127953Y835708D02*
D03*
X98425Y776653D02*
D03*
X127953Y599488D02*
D03*
X98425Y540433D02*
D03*
X127953Y481378D02*
D03*
X98425Y422323D02*
D03*
X127953Y363268D02*
D03*
X98425Y304213D02*
D03*
X127953Y245157D02*
D03*
X39370Y1130984D02*
D03*
X68898Y1071929D02*
D03*
X39370Y1012874D02*
D03*
X68898Y953819D02*
D03*
X39370Y894764D02*
D03*
X68898Y835708D02*
D03*
X39370Y776653D02*
D03*
X68898Y717598D02*
D03*
X39370Y658543D02*
D03*
X68898Y599488D02*
D03*
X39370Y540433D02*
D03*
X68898Y481378D02*
D03*
X39370Y422323D02*
D03*
X68898Y363268D02*
D03*
X39370Y304213D02*
D03*
X68898Y245157D02*
D03*
X356724Y676478D02*
D03*
X278527Y831771D02*
D03*
X327758Y594488D02*
D03*
X247897Y778304D02*
D03*
X511810Y1830705D02*
D03*
X572835Y326772D02*
D03*
X82677Y1283465D02*
D03*
X740158Y1600472D02*
D03*
X856299Y1712598D02*
D03*
X342519Y358267D02*
D03*
X1033464Y1358267D02*
D03*
X561023Y1712598D02*
D03*
X637794Y1397635D02*
D03*
X870079Y1141732D02*
D03*
X1082677Y1358268D02*
D03*
X559055Y1669291D02*
D03*
X1003937Y2007873D02*
D03*
X1033464Y1948818D02*
D03*
X1003937Y1181102D02*
D03*
X1033464Y1122047D02*
D03*
X944882Y1889763D02*
D03*
X974409Y1830708D02*
D03*
X885827Y2007873D02*
D03*
X915354Y1948818D02*
D03*
Y1830708D02*
D03*
X885827Y1771653D02*
D03*
X826771Y2007873D02*
D03*
X856299Y1830708D02*
D03*
X767716Y2007873D02*
D03*
Y1889763D02*
D03*
Y1771653D02*
D03*
X797244Y1712598D02*
D03*
X738189Y1948818D02*
D03*
Y1830708D02*
D03*
Y1712598D02*
D03*
X620078D02*
D03*
X561023Y1948818D02*
D03*
X531496Y1771653D02*
D03*
X501968Y1948818D02*
D03*
X442913D02*
D03*
Y1712598D02*
D03*
X413386Y1653543D02*
D03*
X442913Y1476378D02*
D03*
X354331Y1771653D02*
D03*
X383858Y1712598D02*
D03*
X324803Y1948818D02*
D03*
X295276Y1889763D02*
D03*
X324803Y1830708D02*
D03*
Y1712598D02*
D03*
Y1594488D02*
D03*
X295276Y1062992D02*
D03*
X236220Y2007873D02*
D03*
X265748Y1830708D02*
D03*
Y1594488D02*
D03*
X236220Y1535433D02*
D03*
X265748Y1358267D02*
D03*
X206693Y1830708D02*
D03*
Y1712598D02*
D03*
X88583Y1830708D02*
D03*
X59055Y1771653D02*
D03*
X88583Y1712598D02*
D03*
X258885Y1456032D02*
D03*
X144623Y1538435D02*
D03*
X939988Y1322144D02*
D03*
X1030539Y1219378D02*
D03*
X494961Y1751968D02*
D03*
X34476Y1626661D02*
D03*
X267743Y1751968D02*
D03*
X1045330Y1610236D02*
D03*
X259842Y165354D02*
D03*
X322835Y228346D02*
D03*
X444882Y440945D02*
D03*
X371919Y419045D02*
D03*
X623407Y86614D02*
D03*
X305118Y1539370D02*
D03*
X610236D02*
D03*
D79*
X492126Y200787D02*
D03*
D80*
X853068Y1905512D02*
D03*
X728346Y1027559D02*
D03*
X811024Y870079D02*
D03*
X881890Y952756D02*
D03*
X933071Y629921D02*
D03*
D81*
X958083Y1748717D02*
D03*
X921892Y1712527D02*
D03*
D82*
X1197744Y1695957D02*
D03*
X1235327Y1658374D02*
D03*
D83*
X1188976Y1419370D02*
D03*
X1137795D02*
D03*
X703346Y1466417D02*
D03*
X754528D02*
D03*
X585069D02*
D03*
X636250D02*
D03*
D84*
X858268Y1472441D02*
D03*
X500000Y1559055D02*
D03*
D85*
X1171283Y1593811D02*
D03*
X1062712Y1485240D02*
D03*
X1135928Y1629167D02*
D03*
X1027356Y1520595D02*
D03*
X1100573Y1664522D02*
D03*
X992001Y1555950D02*
D03*
X1065217Y1699877D02*
D03*
X956646Y1591306D02*
D03*
X1029862Y1735233D02*
D03*
X921290Y1626661D02*
D03*
D86*
X577741Y1245344D02*
D03*
X597426D02*
D03*
X617111D02*
D03*
X636796D02*
D03*
X656481D02*
D03*
X676166D02*
D03*
X695851D02*
D03*
X715536D02*
D03*
X735221D02*
D03*
X754906D02*
D03*
X774591D02*
D03*
X794276D02*
D03*
X813961D02*
D03*
X833646D02*
D03*
X853331D02*
D03*
X873016D02*
D03*
Y792589D02*
D03*
X853331D02*
D03*
X833646D02*
D03*
X813961D02*
D03*
X794276D02*
D03*
X774591D02*
D03*
X754906D02*
D03*
X735221D02*
D03*
X715536D02*
D03*
X695851D02*
D03*
X676166D02*
D03*
X656481D02*
D03*
X636796D02*
D03*
X617111D02*
D03*
X597426D02*
D03*
X577741D02*
D03*
D87*
X951756Y1166604D02*
D03*
Y1146919D02*
D03*
Y1127234D02*
D03*
Y1107549D02*
D03*
Y1087864D02*
D03*
Y1068179D02*
D03*
Y1048494D02*
D03*
Y1028809D02*
D03*
Y1009124D02*
D03*
Y989439D02*
D03*
Y969754D02*
D03*
Y950069D02*
D03*
Y930384D02*
D03*
Y910699D02*
D03*
Y891014D02*
D03*
Y871329D02*
D03*
X499000D02*
D03*
Y891014D02*
D03*
Y910699D02*
D03*
Y930384D02*
D03*
Y950069D02*
D03*
Y969754D02*
D03*
Y989439D02*
D03*
Y1009124D02*
D03*
Y1028809D02*
D03*
Y1048494D02*
D03*
Y1068179D02*
D03*
Y1087864D02*
D03*
Y1107549D02*
D03*
Y1127234D02*
D03*
Y1146919D02*
D03*
Y1166604D02*
D03*
D88*
X322835Y1208661D02*
D03*
X204724Y1122047D02*
D03*
D89*
X378937Y1543356D02*
D03*
Y1594537D02*
D03*
D90*
X157352Y1469537D02*
D03*
Y1419537D02*
D03*
Y1369537D02*
D03*
Y1319537D02*
D03*
X371919Y1469537D02*
D03*
Y1419537D02*
D03*
Y1369537D02*
D03*
Y1319537D02*
D03*
%TF.MD5,badc3923056bb983f0e20a7d4d29803f*%
M02*
