%TF.GenerationSoftware,Altium Limited,Altium Designer,18.1.9 (240)*%
G04 Layer_Color=255*
%FSLAX26Y26*%
%MOIN*%
%TF.FileFunction,Pads,Top*%
%TF.Part,Single*%
G01*
G75*
%TA.AperFunction,ConnectorPad*%
%ADD10R,0.080000X0.045000*%
%TA.AperFunction,SMDPad,CuDef*%
%ADD11R,0.080000X0.045000*%
%ADD12O,0.064961X0.019685*%
%ADD13R,0.070866X0.039370*%
%ADD14R,0.039370X0.023622*%
%ADD15R,0.053150X0.057087*%
%ADD16R,0.053150X0.045276*%
%ADD17R,0.094488X0.029921*%
%ADD18R,0.037402X0.033465*%
%ADD19R,0.035433X0.039370*%
%ADD20R,0.082677X0.125984*%
%ADD21R,0.082677X0.023622*%
%ADD22R,0.033465X0.037402*%
%ADD23R,0.039370X0.035433*%
%ADD24R,0.051181X0.043307*%
%ADD25R,0.035433X0.031496*%
%ADD26R,0.074803X0.035433*%
%ADD27R,0.045276X0.053150*%
%ADD28R,0.043307X0.051181*%
%ADD29R,0.053150X0.011811*%
%ADD30R,0.011811X0.053150*%
%ADD31O,0.057087X0.023622*%
%ADD36R,0.080709X0.045276*%
%TA.AperFunction,ViaPad*%
%ADD37C,0.250000*%
%TA.AperFunction,SMDPad,CuDef*%
%ADD38R,0.045276X0.080709*%
%TA.AperFunction,ComponentPad*%
%ADD39C,0.103937*%
%TA.AperFunction,ViaPad*%
%ADD40R,0.060000X0.060000*%
%TA.AperFunction,ComponentPad*%
%ADD41C,0.085039*%
%ADD42R,0.103937X0.103937*%
D10*
X9374000Y4593000D02*
D03*
Y4693000D02*
D03*
Y4793000D02*
D03*
Y4893000D02*
D03*
X8918921Y4593000D02*
D03*
Y4693000D02*
D03*
Y4793000D02*
D03*
Y4893000D02*
D03*
X8524000Y4593000D02*
D03*
Y4693000D02*
D03*
Y4793000D02*
D03*
Y4893000D02*
D03*
X8068921Y4593000D02*
D03*
Y4693000D02*
D03*
Y4793000D02*
D03*
Y4893000D02*
D03*
X7673526Y4593000D02*
D03*
Y4693000D02*
D03*
Y4793000D02*
D03*
Y4893000D02*
D03*
X7218447Y4593000D02*
D03*
Y4693000D02*
D03*
Y4793000D02*
D03*
Y4893000D02*
D03*
X6368921D02*
D03*
Y4793000D02*
D03*
Y4693000D02*
D03*
Y4593000D02*
D03*
X6824000Y4893000D02*
D03*
Y4793000D02*
D03*
Y4693000D02*
D03*
Y4593000D02*
D03*
X5974000D02*
D03*
Y4693000D02*
D03*
Y4793000D02*
D03*
Y4893000D02*
D03*
X5518921Y4593000D02*
D03*
Y4693000D02*
D03*
Y4793000D02*
D03*
Y4893000D02*
D03*
X5124000Y4593000D02*
D03*
Y4693000D02*
D03*
Y4793000D02*
D03*
Y4893000D02*
D03*
X4668921Y4593000D02*
D03*
Y4693000D02*
D03*
Y4793000D02*
D03*
Y4893000D02*
D03*
X4274000Y4593000D02*
D03*
Y4693000D02*
D03*
Y4793000D02*
D03*
Y4893000D02*
D03*
X3818921Y4593000D02*
D03*
Y4693000D02*
D03*
Y4793000D02*
D03*
Y4893000D02*
D03*
X3424000Y4593000D02*
D03*
Y4693000D02*
D03*
Y4793000D02*
D03*
Y4893000D02*
D03*
X2968921Y4593000D02*
D03*
Y4693000D02*
D03*
Y4793000D02*
D03*
Y4893000D02*
D03*
X2574000Y4593000D02*
D03*
Y4693000D02*
D03*
Y4793000D02*
D03*
Y4893000D02*
D03*
X2118921Y4593000D02*
D03*
Y4693000D02*
D03*
Y4793000D02*
D03*
Y4893000D02*
D03*
X1719000Y4593000D02*
D03*
Y4693000D02*
D03*
Y4793000D02*
D03*
Y4893000D02*
D03*
X1263921Y4593000D02*
D03*
Y4693000D02*
D03*
Y4793000D02*
D03*
Y4893000D02*
D03*
D11*
X9431079Y2269000D02*
D03*
Y2369000D02*
D03*
Y2469000D02*
D03*
Y2569000D02*
D03*
X8976000Y2269000D02*
D03*
Y2369000D02*
D03*
Y2469000D02*
D03*
Y2569000D02*
D03*
X8126000Y2564000D02*
D03*
Y2464000D02*
D03*
Y2364000D02*
D03*
Y2264000D02*
D03*
X8581079Y2564000D02*
D03*
Y2464000D02*
D03*
Y2364000D02*
D03*
Y2264000D02*
D03*
X7269599Y2564000D02*
D03*
Y2464000D02*
D03*
Y2364000D02*
D03*
Y2264000D02*
D03*
X7724677Y2564000D02*
D03*
Y2464000D02*
D03*
Y2364000D02*
D03*
Y2264000D02*
D03*
X6410921Y2564000D02*
D03*
Y2464000D02*
D03*
Y2364000D02*
D03*
Y2264000D02*
D03*
X6866000Y2564000D02*
D03*
Y2464000D02*
D03*
Y2364000D02*
D03*
Y2264000D02*
D03*
X6011000D02*
D03*
Y2364000D02*
D03*
Y2464000D02*
D03*
Y2564000D02*
D03*
X5555921Y2264000D02*
D03*
Y2364000D02*
D03*
Y2464000D02*
D03*
Y2564000D02*
D03*
X4724921Y2610000D02*
D03*
Y2510000D02*
D03*
Y2410000D02*
D03*
Y2310000D02*
D03*
X5180000Y2610000D02*
D03*
Y2510000D02*
D03*
Y2410000D02*
D03*
Y2310000D02*
D03*
X3845921Y2564000D02*
D03*
Y2464000D02*
D03*
Y2364000D02*
D03*
Y2264000D02*
D03*
X4301000Y2564000D02*
D03*
Y2464000D02*
D03*
Y2364000D02*
D03*
Y2264000D02*
D03*
X2985921Y2564000D02*
D03*
Y2464000D02*
D03*
Y2364000D02*
D03*
Y2264000D02*
D03*
X3441000Y2564000D02*
D03*
Y2464000D02*
D03*
Y2364000D02*
D03*
Y2264000D02*
D03*
X1275921Y2564000D02*
D03*
Y2464000D02*
D03*
Y2364000D02*
D03*
Y2264000D02*
D03*
X1731000Y2564000D02*
D03*
Y2464000D02*
D03*
Y2364000D02*
D03*
Y2264000D02*
D03*
X2127496Y2564000D02*
D03*
Y2464000D02*
D03*
Y2364000D02*
D03*
Y2264000D02*
D03*
X2582575Y2564000D02*
D03*
Y2464000D02*
D03*
Y2364000D02*
D03*
Y2264000D02*
D03*
D12*
X7833567Y3321299D02*
D03*
Y3294685D02*
D03*
Y3268071D02*
D03*
Y3241457D02*
D03*
Y3214843D02*
D03*
Y3188228D02*
D03*
Y3161614D02*
D03*
Y3135000D02*
D03*
Y3108386D02*
D03*
Y3081772D02*
D03*
Y3055157D02*
D03*
Y3028543D02*
D03*
Y3001929D02*
D03*
Y2975315D02*
D03*
X8119000Y3321299D02*
D03*
Y3294685D02*
D03*
Y3268071D02*
D03*
Y3241457D02*
D03*
Y3214843D02*
D03*
Y3188228D02*
D03*
Y3161614D02*
D03*
Y3135000D02*
D03*
Y3108386D02*
D03*
Y3081772D02*
D03*
Y3055157D02*
D03*
Y3028543D02*
D03*
Y3001929D02*
D03*
Y2975315D02*
D03*
D13*
X2453000Y3217882D02*
D03*
Y3328118D02*
D03*
D14*
X6488134Y3029598D02*
D03*
Y3067000D02*
D03*
Y3104401D02*
D03*
X6379866D02*
D03*
Y3029598D02*
D03*
X6385366Y3305472D02*
D03*
Y3268071D02*
D03*
Y3230669D02*
D03*
X6493634D02*
D03*
Y3305472D02*
D03*
X3428134Y3497402D02*
D03*
Y3422599D02*
D03*
X3319866D02*
D03*
Y3460000D02*
D03*
Y3497402D02*
D03*
D15*
X2175929Y3216000D02*
D03*
X2292071D02*
D03*
D16*
X8358000Y3407551D02*
D03*
Y3476449D02*
D03*
X6705000Y3137449D02*
D03*
Y3068551D02*
D03*
X6915000Y3303449D02*
D03*
Y3234551D02*
D03*
X8480000Y3405551D02*
D03*
Y3474449D02*
D03*
D17*
X5785772Y3001000D02*
D03*
X5632228D02*
D03*
X5785772Y3051000D02*
D03*
X5632228D02*
D03*
X5785772Y3101000D02*
D03*
X5632228D02*
D03*
X5785772Y3151000D02*
D03*
X5632228D02*
D03*
X5785772Y3201000D02*
D03*
X5632228D02*
D03*
D18*
X2360000Y3695410D02*
D03*
Y3746591D02*
D03*
X2230000Y3801000D02*
D03*
Y3860000D02*
D03*
Y3911181D02*
D03*
Y3749819D02*
D03*
D19*
X5785772Y2846228D02*
D03*
X5838921D02*
D03*
X4736575Y3557000D02*
D03*
X4683425D02*
D03*
X3157425Y3378000D02*
D03*
X3210575D02*
D03*
X6397000Y3555000D02*
D03*
X6450150D02*
D03*
X6454000Y3470000D02*
D03*
X6400850D02*
D03*
D20*
X2600874Y3319000D02*
D03*
D21*
X2835126Y3419000D02*
D03*
Y3369000D02*
D03*
Y3319000D02*
D03*
Y3269000D02*
D03*
Y3219000D02*
D03*
D22*
X5680591Y3292000D02*
D03*
X5629409D02*
D03*
X5682591Y2847000D02*
D03*
X5631409D02*
D03*
X3160410Y3521000D02*
D03*
X3211591D02*
D03*
X3206590Y3239000D02*
D03*
X3155409D02*
D03*
D23*
X3021000Y3475575D02*
D03*
Y3422425D02*
D03*
X3549000Y3452425D02*
D03*
Y3505575D02*
D03*
X3022000Y3203000D02*
D03*
Y3256150D02*
D03*
X7606000Y3355000D02*
D03*
Y3408150D02*
D03*
X6701000Y3254425D02*
D03*
Y3307575D02*
D03*
X8357000Y3111575D02*
D03*
Y3058425D02*
D03*
X2227000Y3586425D02*
D03*
Y3639575D02*
D03*
X2937000Y3852575D02*
D03*
Y3799425D02*
D03*
D24*
X8474000Y3173724D02*
D03*
Y3264276D02*
D03*
X8359000Y3190724D02*
D03*
Y3281276D02*
D03*
D25*
X2018370Y3795598D02*
D03*
Y3870401D02*
D03*
X1939630Y3833000D02*
D03*
X1978370Y3212598D02*
D03*
Y3287401D02*
D03*
X1899630Y3250000D02*
D03*
D26*
X1712000Y3241630D02*
D03*
Y3070370D02*
D03*
D27*
X2098551Y3060000D02*
D03*
X2167449D02*
D03*
X1913551Y3428000D02*
D03*
X1982449D02*
D03*
D28*
X2272276Y3437000D02*
D03*
X2181724D02*
D03*
D29*
X5527378Y3428362D02*
D03*
Y3448047D02*
D03*
Y3467732D02*
D03*
Y3487417D02*
D03*
Y3507102D02*
D03*
Y3526787D02*
D03*
Y3546472D02*
D03*
Y3566157D02*
D03*
Y3585843D02*
D03*
Y3605528D02*
D03*
Y3625213D02*
D03*
Y3644898D02*
D03*
Y3664583D02*
D03*
Y3684268D02*
D03*
Y3703953D02*
D03*
Y3723638D02*
D03*
X5074622D02*
D03*
Y3703953D02*
D03*
Y3684268D02*
D03*
Y3664583D02*
D03*
Y3644898D02*
D03*
Y3625213D02*
D03*
Y3605528D02*
D03*
Y3585843D02*
D03*
Y3566157D02*
D03*
Y3546472D02*
D03*
Y3526787D02*
D03*
Y3507102D02*
D03*
Y3487417D02*
D03*
Y3467732D02*
D03*
Y3448047D02*
D03*
Y3428362D02*
D03*
D30*
X5448638Y3802378D02*
D03*
X5428953D02*
D03*
X5409268D02*
D03*
X5389583D02*
D03*
X5369898D02*
D03*
X5350213D02*
D03*
X5330528D02*
D03*
X5310843D02*
D03*
X5291158D02*
D03*
X5271472D02*
D03*
X5251787D02*
D03*
X5232102D02*
D03*
X5212417D02*
D03*
X5192732D02*
D03*
X5173047D02*
D03*
X5153362D02*
D03*
Y3349622D02*
D03*
X5173047D02*
D03*
X5192732D02*
D03*
X5212417D02*
D03*
X5232102D02*
D03*
X5251787D02*
D03*
X5271472D02*
D03*
X5291158D02*
D03*
X5310843D02*
D03*
X5330528D02*
D03*
X5350213D02*
D03*
X5369898D02*
D03*
X5389583D02*
D03*
X5409268D02*
D03*
X5428953D02*
D03*
X5448638D02*
D03*
D31*
X2523717Y3902000D02*
D03*
Y3852000D02*
D03*
Y3802000D02*
D03*
Y3752000D02*
D03*
X2738284Y3902000D02*
D03*
Y3852000D02*
D03*
Y3802000D02*
D03*
Y3752000D02*
D03*
D36*
X1740599Y3376000D02*
D03*
X8651000Y2950000D02*
D03*
Y3022000D02*
D03*
X7068000Y3302000D02*
D03*
X7071000Y3139000D02*
D03*
X6161000Y3479000D02*
D03*
Y3560000D02*
D03*
X2076000Y3213000D02*
D03*
D37*
X1248000Y4311000D02*
D03*
X1250000Y2868000D02*
D03*
X9357000Y3017000D02*
D03*
Y4113000D02*
D03*
D38*
X1733000Y3778000D02*
D03*
X1732000Y3879000D02*
D03*
X1815000Y3239000D02*
D03*
D39*
X1280323Y3743449D02*
D03*
X1455520D02*
D03*
X1280323Y3384394D02*
D03*
D40*
X1248000Y4311000D02*
D03*
X1250000Y2868000D02*
D03*
X9357000Y3017000D02*
D03*
Y4113000D02*
D03*
D41*
X1368000Y3153921D02*
D03*
Y3974000D02*
D03*
D42*
X1455520Y3384394D02*
D03*
%TF.MD5,dd540fc3e8f8ed0077ba7f602deee08a*%
M02*
