%TF.GenerationSoftware,Altium Limited,Altium Designer,18.1.9 (240)*%
G04 Layer_Color=255*
%FSLAX26Y26*%
%MOIN*%
%TF.FileFunction,Pads,Bot*%
%TF.Part,Single*%
G01*
G75*
%TA.AperFunction,SMDPad,CuDef*%
%ADD18R,0.037402X0.033465*%
%ADD23R,0.039370X0.035433*%
%ADD36R,0.080709X0.045276*%
%TA.AperFunction,ViaPad*%
%ADD37C,0.250000*%
%TA.AperFunction,SMDPad,CuDef*%
%ADD38R,0.045276X0.080709*%
%TA.AperFunction,ComponentPad*%
%ADD39C,0.103937*%
%TA.AperFunction,ViaPad*%
%ADD40R,0.060000X0.060000*%
%TA.AperFunction,ComponentPad*%
%ADD41C,0.085039*%
%ADD42R,0.103937X0.103937*%
%TA.AperFunction,SMDPad,CuDef*%
%ADD45R,0.074803X0.074803*%
%TA.AperFunction,ConnectorPad*%
%ADD46R,0.051181X0.057087*%
%ADD47R,0.055118X0.062992*%
%ADD48R,0.053150X0.015748*%
D18*
X1443000Y4860591D02*
D03*
Y4809409D02*
D03*
X1460000Y4609409D02*
D03*
Y4660591D02*
D03*
X2302000Y4826591D02*
D03*
Y4775409D02*
D03*
X2299000Y4583409D02*
D03*
Y4634591D02*
D03*
X3134000Y4820591D02*
D03*
Y4769409D02*
D03*
X3121000Y4599409D02*
D03*
Y4650591D02*
D03*
X3981000Y4835591D02*
D03*
Y4784409D02*
D03*
X3987000Y4596409D02*
D03*
Y4647591D02*
D03*
X4820000Y4838591D02*
D03*
Y4787409D02*
D03*
X4835000Y4599409D02*
D03*
Y4650591D02*
D03*
X5675000Y4843591D02*
D03*
Y4792409D02*
D03*
X5687000Y4594819D02*
D03*
Y4646000D02*
D03*
X6522000Y4838591D02*
D03*
Y4787409D02*
D03*
X6545000Y4597819D02*
D03*
Y4649000D02*
D03*
X7381000Y4841591D02*
D03*
Y4790409D02*
D03*
X7391000Y4595409D02*
D03*
Y4646591D02*
D03*
X8218000Y4848591D02*
D03*
Y4797409D02*
D03*
X8240000Y4595409D02*
D03*
Y4646591D02*
D03*
X9139000Y4786591D02*
D03*
Y4735409D02*
D03*
X9233000Y4921591D02*
D03*
Y4870409D02*
D03*
X8489000Y2327409D02*
D03*
Y2378590D02*
D03*
X8401000Y2563591D02*
D03*
Y2512410D02*
D03*
X7610000Y2314409D02*
D03*
Y2365590D02*
D03*
X7569000Y2561591D02*
D03*
Y2510410D02*
D03*
X6752000Y2316409D02*
D03*
Y2367590D02*
D03*
X6685000Y2559591D02*
D03*
Y2508410D02*
D03*
X5906000Y2313409D02*
D03*
Y2364590D02*
D03*
X5875000Y2554591D02*
D03*
Y2503410D02*
D03*
X5061000Y2317409D02*
D03*
Y2368590D02*
D03*
X5012000Y2562591D02*
D03*
Y2511410D02*
D03*
X4202000Y2317409D02*
D03*
Y2368590D02*
D03*
X4150000Y2561591D02*
D03*
Y2510410D02*
D03*
X3350000Y2307409D02*
D03*
Y2358590D02*
D03*
X3283000Y2562591D02*
D03*
Y2511410D02*
D03*
X2425000Y2561591D02*
D03*
Y2510410D02*
D03*
X2477000Y2304409D02*
D03*
Y2355590D02*
D03*
X1569000Y2552591D02*
D03*
Y2501410D02*
D03*
X1602000Y2312409D02*
D03*
Y2363590D02*
D03*
X9079000Y4594000D02*
D03*
Y4645181D02*
D03*
X9045000Y4786591D02*
D03*
Y4735409D02*
D03*
X9102000Y4918591D02*
D03*
Y4867409D02*
D03*
X9209000Y2348409D02*
D03*
Y2399590D02*
D03*
X9299000Y2353409D02*
D03*
Y2404590D02*
D03*
X9256000Y2570591D02*
D03*
Y2519410D02*
D03*
X9261000Y2219819D02*
D03*
Y2271000D02*
D03*
X9153000Y2210409D02*
D03*
Y2261590D02*
D03*
D23*
X1574000Y4804425D02*
D03*
Y4857575D02*
D03*
X1566000Y4669575D02*
D03*
Y4616425D02*
D03*
X2431000Y4778425D02*
D03*
Y4831575D02*
D03*
X2403000Y4638575D02*
D03*
Y4585425D02*
D03*
X3270000Y4772425D02*
D03*
Y4825575D02*
D03*
Y4650575D02*
D03*
Y4597425D02*
D03*
X4105000Y4780425D02*
D03*
Y4833575D02*
D03*
X4107000Y4653575D02*
D03*
Y4600425D02*
D03*
X4951000Y4785425D02*
D03*
Y4838575D02*
D03*
X4957000Y4650575D02*
D03*
Y4597425D02*
D03*
X5813000Y4794016D02*
D03*
Y4847165D02*
D03*
X5823000Y4646575D02*
D03*
Y4593425D02*
D03*
X6645000Y4784425D02*
D03*
Y4837575D02*
D03*
X6666000Y4649575D02*
D03*
Y4596425D02*
D03*
X7533000Y4790000D02*
D03*
Y4843150D02*
D03*
X7501000Y4651000D02*
D03*
Y4597850D02*
D03*
X8357000Y4786425D02*
D03*
Y4839575D02*
D03*
X8354000Y4649000D02*
D03*
Y4595850D02*
D03*
X9238000Y4732425D02*
D03*
Y4785575D02*
D03*
X9198000Y4645575D02*
D03*
Y4592425D02*
D03*
X9129000Y2399575D02*
D03*
Y2346425D02*
D03*
X8331000Y2376575D02*
D03*
Y2323425D02*
D03*
X8297000Y2507425D02*
D03*
Y2560575D02*
D03*
X7473000Y2367575D02*
D03*
Y2314425D02*
D03*
X7466000Y2509425D02*
D03*
Y2562575D02*
D03*
X6618000Y2368575D02*
D03*
Y2315425D02*
D03*
X6585000Y2506425D02*
D03*
Y2559575D02*
D03*
X5787000Y2369575D02*
D03*
Y2316425D02*
D03*
X5771000Y2504425D02*
D03*
Y2557575D02*
D03*
X4946000Y2369575D02*
D03*
Y2316425D02*
D03*
X4917000Y2508425D02*
D03*
Y2561575D02*
D03*
X4087000Y2370575D02*
D03*
Y2317425D02*
D03*
X4053000Y2505425D02*
D03*
Y2558575D02*
D03*
X3261000Y2365575D02*
D03*
Y2312425D02*
D03*
X3165000Y2507850D02*
D03*
Y2561000D02*
D03*
X2320000Y2514425D02*
D03*
Y2567575D02*
D03*
X2366000Y2379575D02*
D03*
Y2326425D02*
D03*
X1468000Y2501425D02*
D03*
Y2554575D02*
D03*
X1460000Y2362575D02*
D03*
Y2309425D02*
D03*
X9156000Y2513425D02*
D03*
Y2566575D02*
D03*
D36*
X1740599Y3376000D02*
D03*
X8651000Y2950000D02*
D03*
Y3022000D02*
D03*
X7068000Y3302000D02*
D03*
X7071000Y3139000D02*
D03*
X6161000Y3479000D02*
D03*
Y3560000D02*
D03*
X2076000Y3213000D02*
D03*
D37*
X1248000Y4311000D02*
D03*
X1250000Y2868000D02*
D03*
X9357000Y3017000D02*
D03*
Y4113000D02*
D03*
D38*
X1733000Y3778000D02*
D03*
X1732000Y3879000D02*
D03*
X1815000Y3239000D02*
D03*
D39*
X1280323Y3743449D02*
D03*
X1455520D02*
D03*
X1280323Y3384394D02*
D03*
D40*
X1248000Y4311000D02*
D03*
X1250000Y2868000D02*
D03*
X9357000Y3017000D02*
D03*
Y4113000D02*
D03*
D41*
X1368000Y3153921D02*
D03*
Y3974000D02*
D03*
D42*
X1455520Y3384394D02*
D03*
D45*
X9548000Y3436000D02*
D03*
Y3530488D02*
D03*
D46*
Y3348402D02*
D03*
Y3618087D02*
D03*
D47*
X9451543Y3357260D02*
D03*
Y3609228D02*
D03*
D48*
X9442685Y3432063D02*
D03*
Y3457653D02*
D03*
Y3483244D02*
D03*
Y3508835D02*
D03*
Y3534425D02*
D03*
%TF.MD5,c220b6d35b30a102bb767401b62191cb*%
M02*
