%TF.GenerationSoftware,Altium Limited,Altium Designer,18.1.9 (240)*%
G04 Layer_Color=2752767*
%FSLAX26Y26*%
%MOIN*%
%TF.FileFunction,Drawing*%
%TF.Part,Single*%
G01*
G75*
%TA.AperFunction,NonConductor*%
%ADD91C,0.005000*%
%ADD107C,0.006667*%
D91*
X1228000Y4291000D02*
Y4331000D01*
X1268000D01*
Y4291000D01*
X1228000D01*
X1230000Y2848000D02*
Y2888000D01*
X1270000D01*
Y2848000D01*
X1230000D01*
X9337000Y2997000D02*
Y3037000D01*
X9377000D01*
Y2997000D01*
X9337000D01*
Y4093000D02*
Y4133000D01*
X9377000D01*
Y4093000D01*
X9337000D01*
X1280323Y3723449D02*
X1260323Y3763449D01*
X1300323D01*
X1280323Y3723449D01*
X1455520D02*
X1435520Y3763449D01*
X1475520D01*
X1455520Y3723449D01*
X1248000Y4291000D02*
X1258000Y4301000D01*
X1268000D01*
X1258000Y4311000D01*
X1268000Y4321000D01*
X1258000D01*
X1248000Y4331000D01*
X1238000Y4321000D01*
X1228000D01*
X1238000Y4311000D01*
X1228000Y4301000D01*
X1238000D01*
X1248000Y4291000D01*
X1250000Y2848000D02*
X1260000Y2858000D01*
X1270000D01*
X1260000Y2868000D01*
X1270000Y2878000D01*
X1260000D01*
X1250000Y2888000D01*
X1240000Y2878000D01*
X1230000D01*
X1240000Y2868000D01*
X1230000Y2858000D01*
X1240000D01*
X1250000Y2848000D01*
X9357000Y2997000D02*
X9367000Y3007000D01*
X9377000D01*
X9367000Y3017000D01*
X9377000Y3027000D01*
X9367000D01*
X9357000Y3037000D01*
X9347000Y3027000D01*
X9337000D01*
X9347000Y3017000D01*
X9337000Y3007000D01*
X9347000D01*
X9357000Y2997000D01*
Y4093000D02*
X9367000Y4103000D01*
X9377000D01*
X9367000Y4113000D01*
X9377000Y4123000D01*
X9367000D01*
X9357000Y4133000D01*
X9347000Y4123000D01*
X9337000D01*
X9347000Y4113000D01*
X9337000Y4103000D01*
X9347000D01*
X9357000Y4093000D01*
X1280323Y3364394D02*
X1260323Y3404394D01*
X1300323D01*
X1280323Y3364394D01*
X1348000Y3133921D02*
X1358000Y3153921D01*
X1348000Y3173921D01*
X1368000Y3163921D01*
X1388000Y3173921D01*
X1378000Y3153921D01*
X1388000Y3133921D01*
X1368000Y3143921D01*
X1348000Y3133921D01*
Y3954000D02*
X1358000Y3974000D01*
X1348000Y3994000D01*
X1368000Y3984000D01*
X1388000Y3994000D01*
X1378000Y3974000D01*
X1388000Y3954000D01*
X1368000Y3964000D01*
X1348000Y3954000D01*
X1455520Y3364394D02*
X1435520Y3404394D01*
X1475520D01*
X1455520Y3364394D01*
X1828000Y3823000D02*
Y3813000D01*
X1848000D01*
Y3823000D01*
X1858000D01*
Y3843000D01*
X1848000D01*
Y3853000D01*
X1828000D01*
Y3843000D01*
X1818000D01*
Y3823000D01*
X1828000D01*
X4213000Y2562345D02*
Y2552345D01*
X4233000D01*
Y2562345D01*
X4243000D01*
Y2582345D01*
X4233000D01*
Y2592345D01*
X4213000D01*
Y2582345D01*
X4203000D01*
Y2562345D01*
X4213000D01*
X4821000Y2487000D02*
Y2477000D01*
X4841000D01*
Y2487000D01*
X4851000D01*
Y2507000D01*
X4841000D01*
Y2517000D01*
X4821000D01*
Y2507000D01*
X4811000D01*
Y2487000D01*
X4821000D01*
X5419732Y3621000D02*
Y3611000D01*
X5439732D01*
Y3621000D01*
X5449732D01*
Y3641000D01*
X5439732D01*
Y3651000D01*
X5419732D01*
Y3641000D01*
X5409732D01*
Y3621000D01*
X5419732D01*
X9355000Y2405000D02*
Y2395000D01*
X9375000D01*
Y2405000D01*
X9385000D01*
Y2425000D01*
X9375000D01*
Y2435000D01*
X9355000D01*
Y2425000D01*
X9345000D01*
Y2405000D01*
X9355000D01*
X9333000Y2547843D02*
X9343000D01*
X9353000Y2557843D01*
X9363000Y2547843D01*
X9373000D01*
Y2557843D01*
X9363000Y2567843D01*
X9373000Y2577843D01*
Y2587843D01*
X9363000D01*
X9353000Y2577843D01*
X9343000Y2587843D01*
X9333000D01*
Y2577843D01*
X9343000Y2567843D01*
X9333000Y2557843D01*
Y2547843D01*
X9291000Y4806000D02*
Y4796000D01*
X9311000D01*
Y4806000D01*
X9321000D01*
Y4826000D01*
X9311000D01*
Y4836000D01*
X9291000D01*
Y4826000D01*
X9281000D01*
Y4806000D01*
X9291000D01*
X5080000Y3807000D02*
Y3797000D01*
X5100000D01*
Y3807000D01*
X5110000D01*
Y3827000D01*
X5100000D01*
Y3837000D01*
X5080000D01*
Y3827000D01*
X5070000D01*
Y3807000D01*
X5080000D01*
X3602000Y3423000D02*
Y3413000D01*
X3622000D01*
Y3423000D01*
X3632000D01*
Y3443000D01*
X3622000D01*
Y3453000D01*
X3602000D01*
Y3443000D01*
X3592000D01*
Y3423000D01*
X3602000D01*
X3424000Y3306000D02*
Y3296000D01*
X3444000D01*
Y3306000D01*
X3454000D01*
Y3326000D01*
X3444000D01*
Y3336000D01*
X3424000D01*
Y3326000D01*
X3414000D01*
Y3306000D01*
X3424000D01*
X2341000Y3351000D02*
Y3341000D01*
X2361000D01*
Y3351000D01*
X2371000D01*
Y3371000D01*
X2361000D01*
Y3381000D01*
X2341000D01*
Y3371000D01*
X2331000D01*
Y3351000D01*
X2341000D01*
X2572575Y3098000D02*
Y3088000D01*
X2592575D01*
Y3098000D01*
X2602575D01*
Y3118000D01*
X2592575D01*
Y3128000D01*
X2572575D01*
Y3118000D01*
X2562575D01*
Y3098000D01*
X2572575D01*
X1624867Y3815000D02*
Y3805000D01*
X1644867D01*
Y3815000D01*
X1654867D01*
Y3835000D01*
X1644867D01*
Y3845000D01*
X1624867D01*
Y3835000D01*
X1614867D01*
Y3815000D01*
X1624867D01*
X2069000Y3328000D02*
Y3318000D01*
X2089000D01*
Y3328000D01*
X2099000D01*
Y3348000D01*
X2089000D01*
Y3358000D01*
X2069000D01*
Y3348000D01*
X2059000D01*
Y3328000D01*
X2069000D01*
X9187000Y3598000D02*
Y3588000D01*
X9207000D01*
Y3598000D01*
X9217000D01*
Y3618000D01*
X9207000D01*
Y3628000D01*
X9187000D01*
Y3618000D01*
X9177000D01*
Y3598000D01*
X9187000D01*
X7492000Y2666000D02*
Y2656000D01*
X7512000D01*
Y2666000D01*
X7522000D01*
Y2686000D01*
X7512000D01*
Y2696000D01*
X7492000D01*
Y2686000D01*
X7482000D01*
Y2666000D01*
X7492000D01*
X6358000Y2646000D02*
Y2636000D01*
X6378000D01*
Y2646000D01*
X6388000D01*
Y2666000D01*
X6378000D01*
Y2676000D01*
X6358000D01*
Y2666000D01*
X6348000D01*
Y2646000D01*
X6358000D01*
X5154000Y3593000D02*
Y3583000D01*
X5174000D01*
Y3593000D01*
X5184000D01*
Y3613000D01*
X5174000D01*
Y3623000D01*
X5154000D01*
Y3613000D01*
X5144000D01*
Y3593000D01*
X5154000D01*
X4618000Y3113000D02*
Y3103000D01*
X4638000D01*
Y3113000D01*
X4648000D01*
Y3133000D01*
X4638000D01*
Y3143000D01*
X4618000D01*
Y3133000D01*
X4608000D01*
Y3113000D01*
X4618000D01*
X5049000Y2829000D02*
Y2819000D01*
X5069000D01*
Y2829000D01*
X5079000D01*
Y2849000D01*
X5069000D01*
Y2859000D01*
X5049000D01*
Y2849000D01*
X5039000D01*
Y2829000D01*
X5049000D01*
X3218000Y2617000D02*
Y2607000D01*
X3238000D01*
Y2617000D01*
X3248000D01*
Y2637000D01*
X3238000D01*
Y2647000D01*
X3218000D01*
Y2637000D01*
X3208000D01*
Y2617000D01*
X3218000D01*
X1520000Y2618000D02*
Y2608000D01*
X1540000D01*
Y2618000D01*
X1550000D01*
Y2638000D01*
X1540000D01*
Y2648000D01*
X1520000D01*
Y2638000D01*
X1510000D01*
Y2618000D01*
X1520000D01*
X9025000Y4379000D02*
Y4369000D01*
X9045000D01*
Y4379000D01*
X9055000D01*
Y4399000D01*
X9045000D01*
Y4409000D01*
X9025000D01*
Y4399000D01*
X9015000D01*
Y4379000D01*
X9025000D01*
X8414000Y3536000D02*
Y3526000D01*
X8434000D01*
Y3536000D01*
X8444000D01*
Y3556000D01*
X8434000D01*
Y3566000D01*
X8414000D01*
Y3556000D01*
X8404000D01*
Y3536000D01*
X8414000D01*
X6117000Y3373000D02*
Y3363000D01*
X6137000D01*
Y3373000D01*
X6147000D01*
Y3393000D01*
X6137000D01*
Y3403000D01*
X6117000D01*
Y3393000D01*
X6107000D01*
Y3373000D01*
X6117000D01*
X9004000Y2707000D02*
Y2697000D01*
X9024000D01*
Y2707000D01*
X9034000D01*
Y2727000D01*
X9024000D01*
Y2737000D01*
X9004000D01*
Y2727000D01*
X8994000D01*
Y2707000D01*
X9004000D01*
X8759000Y2946000D02*
Y2936000D01*
X8779000D01*
Y2946000D01*
X8789000D01*
Y2966000D01*
X8779000D01*
Y2976000D01*
X8759000D01*
Y2966000D01*
X8749000D01*
Y2946000D01*
X8759000D01*
Y3006000D02*
Y2996000D01*
X8779000D01*
Y3006000D01*
X8789000D01*
Y3026000D01*
X8779000D01*
Y3036000D01*
X8759000D01*
Y3026000D01*
X8749000D01*
Y3006000D01*
X8759000D01*
X8879000Y2554000D02*
Y2544000D01*
X8899000D01*
Y2554000D01*
X8909000D01*
Y2574000D01*
X8899000D01*
Y2584000D01*
X8879000D01*
Y2574000D01*
X8869000D01*
Y2554000D01*
X8879000D01*
X7766843Y2774843D02*
Y2764843D01*
X7786843D01*
Y2774843D01*
X7796843D01*
Y2794843D01*
X7786843D01*
Y2804843D01*
X7766843D01*
Y2794843D01*
X7756843D01*
Y2774843D01*
X7766843D01*
X8386843Y2781843D02*
Y2771843D01*
X8406843D01*
Y2781843D01*
X8416843D01*
Y2801843D01*
X8406843D01*
Y2811843D01*
X8386843D01*
Y2801843D01*
X8376843D01*
Y2781843D01*
X8386843D01*
X8237000Y3082000D02*
Y3072000D01*
X8257000D01*
Y3082000D01*
X8267000D01*
Y3102000D01*
X8257000D01*
Y3112000D01*
X8237000D01*
Y3102000D01*
X8227000D01*
Y3082000D01*
X8237000D01*
X8432843Y2623843D02*
Y2613843D01*
X8452843D01*
Y2623843D01*
X8462843D01*
Y2643843D01*
X8452843D01*
Y2653843D01*
X8432843D01*
Y2643843D01*
X8422843D01*
Y2623843D01*
X8432843D01*
X8216843Y2560843D02*
Y2550843D01*
X8236843D01*
Y2560843D01*
X8246843D01*
Y2580843D01*
X8236843D01*
Y2590843D01*
X8216843D01*
Y2580843D01*
X8206843D01*
Y2560843D01*
X8216843D01*
X5495843Y4501843D02*
Y4491843D01*
X5515843D01*
Y4501843D01*
X5525843D01*
Y4521843D01*
X5515843D01*
Y4531843D01*
X5495843D01*
Y4521843D01*
X5485843D01*
Y4501843D01*
X5495843D01*
X5384843Y4396843D02*
Y4386843D01*
X5404843D01*
Y4396843D01*
X5414843D01*
Y4416843D01*
X5404843D01*
Y4426843D01*
X5384843D01*
Y4416843D01*
X5374843D01*
Y4396843D01*
X5384843D01*
X5744843Y4465843D02*
Y4455843D01*
X5764843D01*
Y4465843D01*
X5774843D01*
Y4485843D01*
X5764843D01*
Y4495843D01*
X5744843D01*
Y4485843D01*
X5734843D01*
Y4465843D01*
X5744843D01*
X5744000Y4584755D02*
Y4574755D01*
X5764000D01*
Y4584755D01*
X5774000D01*
Y4604755D01*
X5764000D01*
Y4614755D01*
X5744000D01*
Y4604755D01*
X5734000D01*
Y4584755D01*
X5744000D01*
X5874843Y4583843D02*
Y4573843D01*
X5894843D01*
Y4583843D01*
X5904843D01*
Y4603843D01*
X5894843D01*
Y4613843D01*
X5874843D01*
Y4603843D01*
X5864843D01*
Y4583843D01*
X5874843D01*
X4991843Y2311843D02*
Y2301843D01*
X5011843D01*
Y2311843D01*
X5021843D01*
Y2331843D01*
X5011843D01*
Y2341843D01*
X4991843D01*
Y2331843D01*
X4981843D01*
Y2311843D01*
X4991843D01*
X3277685Y3622843D02*
Y3612843D01*
X3297685D01*
Y3622843D01*
X3307685D01*
Y3642843D01*
X3297685D01*
Y3652843D01*
X3277685D01*
Y3642843D01*
X3267685D01*
Y3622843D01*
X3277685D01*
X3052000Y3307000D02*
Y3297000D01*
X3072000D01*
Y3307000D01*
X3082000D01*
Y3327000D01*
X3072000D01*
Y3337000D01*
X3052000D01*
Y3327000D01*
X3042000D01*
Y3307000D01*
X3052000D01*
X3215843Y3437843D02*
Y3427843D01*
X3235843D01*
Y3437843D01*
X3245843D01*
Y3457843D01*
X3235843D01*
Y3467843D01*
X3215843D01*
Y3457843D01*
X3205843D01*
Y3437843D01*
X3215843D01*
X1115843Y4712843D02*
Y4702843D01*
X1135843D01*
Y4712843D01*
X1145843D01*
Y4732843D01*
X1135843D01*
Y4742843D01*
X1115843D01*
Y4732843D01*
X1105843D01*
Y4712843D01*
X1115843D01*
X1409843Y4418843D02*
Y4408843D01*
X1429843D01*
Y4418843D01*
X1439843D01*
Y4438843D01*
X1429843D01*
Y4448843D01*
X1409843D01*
Y4438843D01*
X1399843D01*
Y4418843D01*
X1409843D01*
X1660843Y4471843D02*
Y4461843D01*
X1680843D01*
Y4471843D01*
X1690843D01*
Y4491843D01*
X1680843D01*
Y4501843D01*
X1660843D01*
Y4491843D01*
X1650843D01*
Y4471843D01*
X1660843D01*
X2073843Y4479843D02*
Y4469843D01*
X2093843D01*
Y4479843D01*
X2103843D01*
Y4499843D01*
X2093843D01*
Y4509843D01*
X2073843D01*
Y4499843D01*
X2063843D01*
Y4479843D01*
X2073843D01*
X2337843Y4485843D02*
Y4475843D01*
X2357843D01*
Y4485843D01*
X2367843D01*
Y4505843D01*
X2357843D01*
Y4515843D01*
X2337843D01*
Y4505843D01*
X2327843D01*
Y4485843D01*
X2337843D01*
X2629843Y4667843D02*
Y4657843D01*
X2649843D01*
Y4667843D01*
X2659843D01*
Y4687843D01*
X2649843D01*
Y4697843D01*
X2629843D01*
Y4687843D01*
X2619843D01*
Y4667843D01*
X2629843D01*
X2776843Y4728843D02*
Y4718843D01*
X2796843D01*
Y4728843D01*
X2806843D01*
Y4748843D01*
X2796843D01*
Y4758843D01*
X2776843D01*
Y4748843D01*
X2766843D01*
Y4728843D01*
X2776843D01*
X2811843Y4477843D02*
Y4467843D01*
X2831843D01*
Y4477843D01*
X2841843D01*
Y4497843D01*
X2831843D01*
Y4507843D01*
X2811843D01*
Y4497843D01*
X2801843D01*
Y4477843D01*
X2811843D01*
X2660843Y4522843D02*
Y4512843D01*
X2680843D01*
Y4522843D01*
X2690843D01*
Y4542843D01*
X2680843D01*
Y4552843D01*
X2660843D01*
Y4542843D01*
X2650843D01*
Y4522843D01*
X2660843D01*
X3271843Y4437549D02*
Y4427549D01*
X3291843D01*
Y4437549D01*
X3301843D01*
Y4457549D01*
X3291843D01*
Y4467549D01*
X3271843D01*
Y4457549D01*
X3261843D01*
Y4437549D01*
X3271843D01*
X4362843Y4537843D02*
Y4527843D01*
X4382843D01*
Y4537843D01*
X4392843D01*
Y4557843D01*
X4382843D01*
Y4567843D01*
X4362843D01*
Y4557843D01*
X4352843D01*
Y4537843D01*
X4362843D01*
X4177000Y4246000D02*
Y4236000D01*
X4197000D01*
Y4246000D01*
X4207000D01*
Y4266000D01*
X4197000D01*
Y4276000D01*
X4177000D01*
Y4266000D01*
X4167000D01*
Y4246000D01*
X4177000D01*
X4784843Y4381843D02*
Y4371843D01*
X4804843D01*
Y4381843D01*
X4814843D01*
Y4401843D01*
X4804843D01*
Y4411843D01*
X4784843D01*
Y4401843D01*
X4774843D01*
Y4381843D01*
X4784843D01*
X5130843Y4274843D02*
Y4264843D01*
X5150843D01*
Y4274843D01*
X5160843D01*
Y4294843D01*
X5150843D01*
Y4304843D01*
X5130843D01*
Y4294843D01*
X5120843D01*
Y4274843D01*
X5130843D01*
X5082843Y4417843D02*
Y4407843D01*
X5102843D01*
Y4417843D01*
X5112843D01*
Y4437843D01*
X5102843D01*
Y4447843D01*
X5082843D01*
Y4437843D01*
X5072843D01*
Y4417843D01*
X5082843D01*
X6390843Y4431843D02*
Y4421843D01*
X6410843D01*
Y4431843D01*
X6420843D01*
Y4451843D01*
X6410843D01*
Y4461843D01*
X6390843D01*
Y4451843D01*
X6380843D01*
Y4431843D01*
X6390843D01*
X7577000Y4577000D02*
Y4567000D01*
X7597000D01*
Y4577000D01*
X7607000D01*
Y4597000D01*
X7597000D01*
Y4607000D01*
X7577000D01*
Y4597000D01*
X7567000D01*
Y4577000D01*
X7577000D01*
X8307000Y4449000D02*
Y4439000D01*
X8327000D01*
Y4449000D01*
X8337000D01*
Y4469000D01*
X8327000D01*
Y4479000D01*
X8307000D01*
Y4469000D01*
X8297000D01*
Y4449000D01*
X8307000D01*
X7628843Y4097843D02*
Y4087843D01*
X7648843D01*
Y4097843D01*
X7658843D01*
Y4117843D01*
X7648843D01*
Y4127843D01*
X7628843D01*
Y4117843D01*
X7618843D01*
Y4097843D01*
X7628843D01*
X6545843Y4107843D02*
Y4097843D01*
X6565843D01*
Y4107843D01*
X6575843D01*
Y4127843D01*
X6565843D01*
Y4137843D01*
X6545843D01*
Y4127843D01*
X6535843D01*
Y4107843D01*
X6545843D01*
Y3811843D02*
Y3801843D01*
X6565843D01*
Y3811843D01*
X6575843D01*
Y3831843D01*
X6565843D01*
Y3841843D01*
X6545843D01*
Y3831843D01*
X6535843D01*
Y3811843D01*
X6545843D01*
X7612843Y3764843D02*
Y3754843D01*
X7632843D01*
Y3764843D01*
X7642843D01*
Y3784843D01*
X7632843D01*
Y3794843D01*
X7612843D01*
Y3784843D01*
X7602843D01*
Y3764843D01*
X7612843D01*
X7587843Y3506843D02*
Y3496843D01*
X7607843D01*
Y3506843D01*
X7617843D01*
Y3526843D01*
X7607843D01*
Y3536843D01*
X7587843D01*
Y3526843D01*
X7577843D01*
Y3506843D01*
X7587843D01*
X7619843Y3104843D02*
Y3094843D01*
X7639843D01*
Y3104843D01*
X7649843D01*
Y3124843D01*
X7639843D01*
Y3134843D01*
X7619843D01*
Y3124843D01*
X7609843D01*
Y3104843D01*
X7619843D01*
X7392843Y2877843D02*
Y2867843D01*
X7412843D01*
Y2877843D01*
X7422843D01*
Y2897843D01*
X7412843D01*
Y2907843D01*
X7392843D01*
Y2897843D01*
X7382843D01*
Y2877843D01*
X7392843D01*
X6826843Y2884843D02*
Y2874843D01*
X6846843D01*
Y2884843D01*
X6856843D01*
Y2904843D01*
X6846843D01*
Y2914843D01*
X6826843D01*
Y2904843D01*
X6816843D01*
Y2884843D01*
X6826843D01*
X7026843Y3465843D02*
Y3455843D01*
X7046843D01*
Y3465843D01*
X7056843D01*
Y3485843D01*
X7046843D01*
Y3495843D01*
X7026843D01*
Y3485843D01*
X7016843D01*
Y3465843D01*
X7026843D01*
X6579843Y3391843D02*
Y3381843D01*
X6599843D01*
Y3391843D01*
X6609843D01*
Y3411843D01*
X6599843D01*
Y3421843D01*
X6579843D01*
Y3411843D01*
X6569843D01*
Y3391843D01*
X6579843D01*
X6567843Y3259843D02*
Y3249843D01*
X6587843D01*
Y3259843D01*
X6597843D01*
Y3279843D01*
X6587843D01*
Y3289843D01*
X6567843D01*
Y3279843D01*
X6557843D01*
Y3259843D01*
X6567843D01*
X6547843Y3150843D02*
Y3140843D01*
X6567843D01*
Y3150843D01*
X6577843D01*
Y3170843D01*
X6567843D01*
Y3180843D01*
X6547843D01*
Y3170843D01*
X6537843D01*
Y3150843D01*
X6547843D01*
X6147843Y3180843D02*
Y3170843D01*
X6167843D01*
Y3180843D01*
X6177843D01*
Y3200843D01*
X6167843D01*
Y3210843D01*
X6147843D01*
Y3200843D01*
X6137843D01*
Y3180843D01*
X6147843D01*
X5892843Y3120843D02*
Y3110843D01*
X5912843D01*
Y3120843D01*
X5922843D01*
Y3140843D01*
X5912843D01*
Y3150843D01*
X5892843D01*
Y3140843D01*
X5882843D01*
Y3120843D01*
X5892843D01*
X5780843Y3301843D02*
Y3291843D01*
X5800843D01*
Y3301843D01*
X5810843D01*
Y3321843D01*
X5800843D01*
Y3331843D01*
X5780843D01*
Y3321843D01*
X5770843D01*
Y3301843D01*
X5780843D01*
X5513843Y3320533D02*
Y3310533D01*
X5533843D01*
Y3320533D01*
X5543843D01*
Y3340533D01*
X5533843D01*
Y3350533D01*
X5513843D01*
Y3340533D01*
X5503843D01*
Y3320533D01*
X5513843D01*
X5697843Y3229843D02*
Y3219843D01*
X5717843D01*
Y3229843D01*
X5727843D01*
Y3249843D01*
X5717843D01*
Y3259843D01*
X5697843D01*
Y3249843D01*
X5687843D01*
Y3229843D01*
X5697843D01*
Y3093843D02*
Y3083843D01*
X5717843D01*
Y3093843D01*
X5727843D01*
Y3113843D01*
X5717843D01*
Y3123843D01*
X5697843D01*
Y3113843D01*
X5687843D01*
Y3093843D01*
X5697843D01*
X5870843Y2993843D02*
Y2983843D01*
X5890843D01*
Y2993843D01*
X5900843D01*
Y3013843D01*
X5890843D01*
Y3023843D01*
X5870843D01*
Y3013843D01*
X5860843D01*
Y2993843D01*
X5870843D01*
X5802843Y2716843D02*
Y2706843D01*
X5822843D01*
Y2716843D01*
X5832843D01*
Y2736843D01*
X5822843D01*
Y2746843D01*
X5802843D01*
Y2736843D01*
X5792843D01*
Y2716843D01*
X5802843D01*
X5657843Y2554843D02*
Y2544843D01*
X5677843D01*
Y2554843D01*
X5687843D01*
Y2574843D01*
X5677843D01*
Y2584843D01*
X5657843D01*
Y2574843D01*
X5647843D01*
Y2554843D01*
X5657843D01*
X5492145Y2627713D02*
Y2617713D01*
X5512145D01*
Y2627713D01*
X5522145D01*
Y2647713D01*
X5512145D01*
Y2657713D01*
X5492145D01*
Y2647713D01*
X5482145D01*
Y2627713D01*
X5492145D01*
X5601843Y2404843D02*
Y2394843D01*
X5621843D01*
Y2404843D01*
X5631843D01*
Y2424843D01*
X5621843D01*
Y2434843D01*
X5601843D01*
Y2424843D01*
X5591843D01*
Y2404843D01*
X5601843D01*
X4872843Y2319993D02*
Y2309993D01*
X4892843D01*
Y2319993D01*
X4902843D01*
Y2339993D01*
X4892843D01*
Y2349993D01*
X4872843D01*
Y2339993D01*
X4862843D01*
Y2319993D01*
X4872843D01*
X4791843Y2557843D02*
Y2547843D01*
X4811843D01*
Y2557843D01*
X4821843D01*
Y2577843D01*
X4811843D01*
Y2587843D01*
X4791843D01*
Y2577843D01*
X4781843D01*
Y2557843D01*
X4791843D01*
X4453843Y2371353D02*
Y2361353D01*
X4473843D01*
Y2371353D01*
X4483843D01*
Y2391353D01*
X4473843D01*
Y2401353D01*
X4453843D01*
Y2391353D01*
X4443843D01*
Y2371353D01*
X4453843D01*
X4467843Y2592508D02*
Y2582508D01*
X4487843D01*
Y2592508D01*
X4497843D01*
Y2612508D01*
X4487843D01*
Y2622508D01*
X4467843D01*
Y2612508D01*
X4457843D01*
Y2592508D01*
X4467843D01*
X3946843Y2557843D02*
Y2547843D01*
X3966843D01*
Y2557843D01*
X3976843D01*
Y2577843D01*
X3966843D01*
Y2587843D01*
X3946843D01*
Y2577843D01*
X3936843D01*
Y2557843D01*
X3946843D01*
X3495843Y2899843D02*
Y2889843D01*
X3515843D01*
Y2899843D01*
X3525843D01*
Y2919843D01*
X3515843D01*
Y2929843D01*
X3495843D01*
Y2919843D01*
X3485843D01*
Y2899843D01*
X3495843D01*
X3493843Y2656843D02*
Y2646843D01*
X3513843D01*
Y2656843D01*
X3523843D01*
Y2676843D01*
X3513843D01*
Y2686843D01*
X3493843D01*
Y2676843D01*
X3483843D01*
Y2656843D01*
X3493843D01*
X3509508Y2464843D02*
Y2454843D01*
X3529508D01*
Y2464843D01*
X3539508D01*
Y2484843D01*
X3529508D01*
Y2494843D01*
X3509508D01*
Y2484843D01*
X3499508D01*
Y2464843D01*
X3509508D01*
X3603843Y2368392D02*
Y2358392D01*
X3623843D01*
Y2368392D01*
X3633843D01*
Y2388392D01*
X3623843D01*
Y2398392D01*
X3603843D01*
Y2388392D01*
X3593843D01*
Y2368392D01*
X3603843D01*
X3178000Y2331000D02*
Y2321000D01*
X3198000D01*
Y2331000D01*
X3208000D01*
Y2351000D01*
X3198000D01*
Y2361000D01*
X3178000D01*
Y2351000D01*
X3168000D01*
Y2331000D01*
X3178000D01*
X3182843Y2893843D02*
Y2883843D01*
X3202843D01*
Y2893843D01*
X3212843D01*
Y2913843D01*
X3202843D01*
Y2923843D01*
X3182843D01*
Y2913843D01*
X3172843D01*
Y2893843D01*
X3182843D01*
X2740843Y2611843D02*
Y2601843D01*
X2760843D01*
Y2611843D01*
X2770843D01*
Y2631843D01*
X2760843D01*
Y2641843D01*
X2740843D01*
Y2631843D01*
X2730843D01*
Y2611843D01*
X2740843D01*
X2705843Y2359843D02*
Y2349843D01*
X2725843D01*
Y2359843D01*
X2735843D01*
Y2379843D01*
X2725843D01*
Y2389843D01*
X2705843D01*
Y2379843D01*
X2695843D01*
Y2359843D01*
X2705843D01*
X1661000Y2859000D02*
Y2849000D01*
X1681000D01*
Y2859000D01*
X1691000D01*
Y2879000D01*
X1681000D01*
Y2889000D01*
X1661000D01*
Y2879000D01*
X1651000D01*
Y2859000D01*
X1661000D01*
X2235063Y2555843D02*
Y2545843D01*
X2255063D01*
Y2555843D01*
X2265063D01*
Y2575843D01*
X2255063D01*
Y2585843D01*
X2235063D01*
Y2575843D01*
X2225063D01*
Y2555843D01*
X2235063D01*
X2022343Y2693843D02*
Y2683843D01*
X2042343D01*
Y2693843D01*
X2052343D01*
Y2713843D01*
X2042343D01*
Y2723843D01*
X2022343D01*
Y2713843D01*
X2012343D01*
Y2693843D01*
X2022343D01*
X1364000Y2545000D02*
Y2535000D01*
X1384000D01*
Y2545000D01*
X1394000D01*
Y2565000D01*
X1384000D01*
Y2575000D01*
X1364000D01*
Y2565000D01*
X1354000D01*
Y2545000D01*
X1364000D01*
X1606843Y3459843D02*
Y3449843D01*
X1626843D01*
Y3459843D01*
X1636843D01*
Y3479843D01*
X1626843D01*
Y3489843D01*
X1606843D01*
Y3479843D01*
X1596843D01*
Y3459843D01*
X1606843D01*
X1963843Y3576685D02*
Y3566685D01*
X1983843D01*
Y3576685D01*
X1993843D01*
Y3596685D01*
X1983843D01*
Y3606685D01*
X1963843D01*
Y3596685D01*
X1953843D01*
Y3576685D01*
X1963843D01*
X2518843Y3560867D02*
Y3550867D01*
X2538843D01*
Y3560867D01*
X2548843D01*
Y3580867D01*
X2538843D01*
Y3590867D01*
X2518843D01*
Y3580867D01*
X2508843D01*
Y3560867D01*
X2518843D01*
X2924843Y3667293D02*
Y3657293D01*
X2944843D01*
Y3667293D01*
X2954843D01*
Y3687293D01*
X2944843D01*
Y3697293D01*
X2924843D01*
Y3687293D01*
X2914843D01*
Y3667293D01*
X2924843D01*
X2819843Y3785685D02*
Y3775685D01*
X2839843D01*
Y3785685D01*
X2849843D01*
Y3805685D01*
X2839843D01*
Y3815685D01*
X2819843D01*
Y3805685D01*
X2809843D01*
Y3785685D01*
X2819843D01*
X3012843Y3784843D02*
Y3774843D01*
X3032843D01*
Y3784843D01*
X3042843D01*
Y3804843D01*
X3032843D01*
Y3814843D01*
X3012843D01*
Y3804843D01*
X3002843D01*
Y3784843D01*
X3012843D01*
X4326843Y3816843D02*
Y3806843D01*
X4346843D01*
Y3816843D01*
X4356843D01*
Y3836843D01*
X4346843D01*
Y3846843D01*
X4326843D01*
Y3836843D01*
X4316843D01*
Y3816843D01*
X4326843D01*
X3826843Y3812843D02*
Y3802843D01*
X3846843D01*
Y3812843D01*
X3856843D01*
Y3832843D01*
X3846843D01*
Y3842843D01*
X3826843D01*
Y3832843D01*
X3816843D01*
Y3812843D01*
X3826843D01*
X4286843Y3554843D02*
Y3544843D01*
X4306843D01*
Y3554843D01*
X4316843D01*
Y3574843D01*
X4306843D01*
Y3584843D01*
X4286843D01*
Y3574843D01*
X4276843D01*
Y3554843D01*
X4286843D01*
X4563843Y3555843D02*
Y3545843D01*
X4583843D01*
Y3555843D01*
X4593843D01*
Y3575843D01*
X4583843D01*
Y3585843D01*
X4563843D01*
Y3575843D01*
X4553843D01*
Y3555843D01*
X4563843D01*
X3351000Y3543000D02*
Y3533000D01*
X3371000D01*
Y3543000D01*
X3381000D01*
Y3563000D01*
X3371000D01*
Y3573000D01*
X3351000D01*
Y3563000D01*
X3341000D01*
Y3543000D01*
X3351000D01*
X4161000Y3551000D02*
Y3541000D01*
X4181000D01*
Y3551000D01*
X4191000D01*
Y3571000D01*
X4181000D01*
Y3581000D01*
X4161000D01*
Y3571000D01*
X4151000D01*
Y3551000D01*
X4161000D01*
X5656000Y4186000D02*
Y4176000D01*
X5676000D01*
Y4186000D01*
X5686000D01*
Y4206000D01*
X5676000D01*
Y4216000D01*
X5656000D01*
Y4206000D01*
X5646000D01*
Y4186000D01*
X5656000D01*
X8585000Y4534000D02*
Y4524000D01*
X8605000D01*
Y4534000D01*
X8615000D01*
Y4554000D01*
X8605000D01*
Y4564000D01*
X8585000D01*
Y4554000D01*
X8575000D01*
Y4534000D01*
X8585000D01*
X8633000Y4775000D02*
Y4765000D01*
X8653000D01*
Y4775000D01*
X8663000D01*
Y4795000D01*
X8653000D01*
Y4805000D01*
X8633000D01*
Y4795000D01*
X8623000D01*
Y4775000D01*
X8633000D01*
X5384000Y3183000D02*
Y3173000D01*
X5404000D01*
Y3183000D01*
X5414000D01*
Y3203000D01*
X5404000D01*
Y3213000D01*
X5384000D01*
Y3203000D01*
X5374000D01*
Y3183000D01*
X5384000D01*
X2946000Y3542000D02*
Y3532000D01*
X2966000D01*
Y3542000D01*
X2976000D01*
Y3562000D01*
X2966000D01*
Y3572000D01*
X2946000D01*
Y3562000D01*
X2936000D01*
Y3542000D01*
X2946000D01*
X3340000Y2653000D02*
Y2643000D01*
X3360000D01*
Y2653000D01*
X3370000D01*
Y2673000D01*
X3360000D01*
Y2683000D01*
X3340000D01*
Y2673000D01*
X3330000D01*
Y2653000D01*
X3340000D01*
X3347000Y2982000D02*
Y2972000D01*
X3367000D01*
Y2982000D01*
X3377000D01*
Y3002000D01*
X3367000D01*
Y3012000D01*
X3347000D01*
Y3002000D01*
X3337000D01*
Y2982000D01*
X3347000D01*
X3351000Y3191000D02*
Y3181000D01*
X3371000D01*
Y3191000D01*
X3381000D01*
Y3211000D01*
X3371000D01*
Y3221000D01*
X3351000D01*
Y3211000D01*
X3341000D01*
Y3191000D01*
X3351000D01*
X2630000Y3955000D02*
Y3945000D01*
X2650000D01*
Y3955000D01*
X2660000D01*
Y3975000D01*
X2650000D01*
Y3985000D01*
X2630000D01*
Y3975000D01*
X2620000D01*
Y3955000D01*
X2630000D01*
X3628000Y4259000D02*
Y4249000D01*
X3648000D01*
Y4259000D01*
X3658000D01*
Y4279000D01*
X3648000D01*
Y4289000D01*
X3628000D01*
Y4279000D01*
X3618000D01*
Y4259000D01*
X3628000D01*
X2828000Y4874000D02*
Y4864000D01*
X2848000D01*
Y4874000D01*
X2858000D01*
Y4894000D01*
X2848000D01*
Y4904000D01*
X2828000D01*
Y4894000D01*
X2818000D01*
Y4874000D01*
X2828000D01*
X3699000Y4518000D02*
Y4508000D01*
X3719000D01*
Y4518000D01*
X3729000D01*
Y4538000D01*
X3719000D01*
Y4548000D01*
X3699000D01*
Y4538000D01*
X3689000D01*
Y4518000D01*
X3699000D01*
X3663000Y4822000D02*
Y4812000D01*
X3683000D01*
Y4822000D01*
X3693000D01*
Y4842000D01*
X3683000D01*
Y4852000D01*
X3663000D01*
Y4842000D01*
X3653000D01*
Y4822000D01*
X3663000D01*
X8717000Y4564000D02*
Y4554000D01*
X8737000D01*
Y4564000D01*
X8747000D01*
Y4584000D01*
X8737000D01*
Y4594000D01*
X8717000D01*
Y4584000D01*
X8707000D01*
Y4564000D01*
X8717000D01*
X8772000Y4682000D02*
Y4672000D01*
X8792000D01*
Y4682000D01*
X8802000D01*
Y4702000D01*
X8792000D01*
Y4712000D01*
X8772000D01*
Y4702000D01*
X8762000D01*
Y4682000D01*
X8772000D01*
X8764000Y3344000D02*
Y3334000D01*
X8784000D01*
Y3344000D01*
X8794000D01*
Y3364000D01*
X8784000D01*
Y3374000D01*
X8764000D01*
Y3364000D01*
X8754000D01*
Y3344000D01*
X8764000D01*
X7233000Y3133000D02*
Y3123000D01*
X7253000D01*
Y3133000D01*
X7263000D01*
Y3153000D01*
X7253000D01*
Y3163000D01*
X7233000D01*
Y3153000D01*
X7223000D01*
Y3133000D01*
X7233000D01*
X7738000Y3350000D02*
Y3340000D01*
X7758000D01*
Y3350000D01*
X7768000D01*
Y3370000D01*
X7758000D01*
Y3380000D01*
X7738000D01*
Y3370000D01*
X7728000D01*
Y3350000D01*
X7738000D01*
X8786000Y2364000D02*
Y2354000D01*
X8806000D01*
Y2364000D01*
X8816000D01*
Y2384000D01*
X8806000D01*
Y2394000D01*
X8786000D01*
Y2384000D01*
X8776000D01*
Y2364000D01*
X8786000D01*
X8876000Y2612000D02*
Y2602000D01*
X8896000D01*
Y2612000D01*
X8906000D01*
Y2632000D01*
X8896000D01*
Y2642000D01*
X8876000D01*
Y2632000D01*
X8866000D01*
Y2612000D01*
X8876000D01*
X5594000Y3557000D02*
Y3547000D01*
X5614000D01*
Y3557000D01*
X5624000D01*
Y3577000D01*
X5614000D01*
Y3587000D01*
X5594000D01*
Y3577000D01*
X5584000D01*
Y3557000D01*
X5594000D01*
X5582842Y3338842D02*
Y3328842D01*
X5602842D01*
Y3338842D01*
X5612842D01*
Y3358842D01*
X5602842D01*
Y3368842D01*
X5582842D01*
Y3358842D01*
X5572842D01*
Y3338842D01*
X5582842D01*
X7321000Y3353000D02*
Y3343000D01*
X7341000D01*
Y3353000D01*
X7351000D01*
Y3373000D01*
X7341000D01*
Y3383000D01*
X7321000D01*
Y3373000D01*
X7311000D01*
Y3353000D01*
X7321000D01*
X5665000Y3345000D02*
Y3335000D01*
X5685000D01*
Y3345000D01*
X5695000D01*
Y3365000D01*
X5685000D01*
Y3375000D01*
X5665000D01*
Y3365000D01*
X5655000D01*
Y3345000D01*
X5665000D01*
X6117000Y3265000D02*
Y3255000D01*
X6137000D01*
Y3265000D01*
X6147000D01*
Y3285000D01*
X6137000D01*
Y3295000D01*
X6117000D01*
Y3285000D01*
X6107000D01*
Y3265000D01*
X6117000D01*
X5873000Y3267000D02*
Y3257000D01*
X5893000D01*
Y3267000D01*
X5903000D01*
Y3287000D01*
X5893000D01*
Y3297000D01*
X5873000D01*
Y3287000D01*
X5863000D01*
Y3267000D01*
X5873000D01*
X6415000Y2844000D02*
Y2834000D01*
X6435000D01*
Y2844000D01*
X6445000D01*
Y2864000D01*
X6435000D01*
Y2874000D01*
X6415000D01*
Y2864000D01*
X6405000D01*
Y2844000D01*
X6415000D01*
X6088000Y3093000D02*
Y3083000D01*
X6108000D01*
Y3093000D01*
X6118000D01*
Y3113000D01*
X6108000D01*
Y3123000D01*
X6088000D01*
Y3113000D01*
X6078000D01*
Y3093000D01*
X6088000D01*
X5345000Y2863000D02*
Y2853000D01*
X5365000D01*
Y2863000D01*
X5375000D01*
Y2883000D01*
X5365000D01*
Y2893000D01*
X5345000D01*
Y2883000D01*
X5335000D01*
Y2863000D01*
X5345000D01*
X5338000Y3122000D02*
Y3112000D01*
X5358000D01*
Y3122000D01*
X5368000D01*
Y3142000D01*
X5358000D01*
Y3152000D01*
X5338000D01*
Y3142000D01*
X5328000D01*
Y3122000D01*
X5338000D01*
X5403000D02*
Y3112000D01*
X5423000D01*
Y3122000D01*
X5433000D01*
Y3142000D01*
X5423000D01*
Y3152000D01*
X5403000D01*
Y3142000D01*
X5393000D01*
Y3122000D01*
X5403000D01*
X5507000Y3012000D02*
Y3002000D01*
X5527000D01*
Y3012000D01*
X5537000D01*
Y3032000D01*
X5527000D01*
Y3042000D01*
X5507000D01*
Y3032000D01*
X5497000D01*
Y3012000D01*
X5507000D01*
X5529000Y3252000D02*
Y3242000D01*
X5549000D01*
Y3252000D01*
X5559000D01*
Y3272000D01*
X5549000D01*
Y3282000D01*
X5529000D01*
Y3272000D01*
X5519000D01*
Y3252000D01*
X5529000D01*
X5489000Y3087000D02*
Y3077000D01*
X5509000D01*
Y3087000D01*
X5519000D01*
Y3107000D01*
X5509000D01*
Y3117000D01*
X5489000D01*
Y3107000D01*
X5479000D01*
Y3087000D01*
X5489000D01*
X5454000Y3216000D02*
Y3206000D01*
X5474000D01*
Y3216000D01*
X5484000D01*
Y3236000D01*
X5474000D01*
Y3246000D01*
X5454000D01*
Y3236000D01*
X5444000D01*
Y3216000D01*
X5454000D01*
X5270000Y3544000D02*
Y3534000D01*
X5290000D01*
Y3544000D01*
X5300000D01*
Y3564000D01*
X5290000D01*
Y3574000D01*
X5270000D01*
Y3564000D01*
X5260000D01*
Y3544000D01*
X5270000D01*
X5402000Y3495000D02*
Y3485000D01*
X5422000D01*
Y3495000D01*
X5432000D01*
Y3515000D01*
X5422000D01*
Y3525000D01*
X5402000D01*
Y3515000D01*
X5392000D01*
Y3495000D01*
X5402000D01*
X3192000Y3655000D02*
Y3645000D01*
X3212000D01*
Y3655000D01*
X3222000D01*
Y3675000D01*
X3212000D01*
Y3685000D01*
X3192000D01*
Y3675000D01*
X3182000D01*
Y3655000D01*
X3192000D01*
X2954000Y3905000D02*
Y3895000D01*
X2974000D01*
Y3905000D01*
X2984000D01*
Y3925000D01*
X2974000D01*
Y3935000D01*
X2954000D01*
Y3925000D01*
X2944000D01*
Y3905000D01*
X2954000D01*
X7098000Y2562000D02*
Y2552000D01*
X7118000D01*
Y2562000D01*
X7128000D01*
Y2582000D01*
X7118000D01*
Y2592000D01*
X7098000D01*
Y2582000D01*
X7088000D01*
Y2562000D01*
X7098000D01*
X2133000Y3907000D02*
Y3897000D01*
X2153000D01*
Y3907000D01*
X2163000D01*
Y3927000D01*
X2153000D01*
Y3937000D01*
X2133000D01*
Y3927000D01*
X2123000D01*
Y3907000D01*
X2133000D01*
X2131000Y3690000D02*
Y3680000D01*
X2151000D01*
Y3690000D01*
X2161000D01*
Y3710000D01*
X2151000D01*
Y3720000D01*
X2131000D01*
Y3710000D01*
X2121000D01*
Y3690000D01*
X2131000D01*
X6304000Y2589000D02*
Y2579000D01*
X6324000D01*
Y2589000D01*
X6334000D01*
Y2609000D01*
X6324000D01*
Y2619000D01*
X6304000D01*
Y2609000D01*
X6294000D01*
Y2589000D01*
X6304000D01*
X6311000Y2372000D02*
Y2362000D01*
X6331000D01*
Y2372000D01*
X6341000D01*
Y2392000D01*
X6331000D01*
Y2402000D01*
X6311000D01*
Y2392000D01*
X6301000D01*
Y2372000D01*
X6311000D01*
X7071000Y2361000D02*
Y2351000D01*
X7091000D01*
Y2361000D01*
X7101000D01*
Y2381000D01*
X7091000D01*
Y2391000D01*
X7071000D01*
Y2381000D01*
X7061000D01*
Y2361000D01*
X7071000D01*
X7955000Y2591000D02*
Y2581000D01*
X7975000D01*
Y2591000D01*
X7985000D01*
Y2611000D01*
X7975000D01*
Y2621000D01*
X7955000D01*
Y2611000D01*
X7945000D01*
Y2591000D01*
X7955000D01*
Y2355000D02*
Y2345000D01*
X7975000D01*
Y2355000D01*
X7985000D01*
Y2375000D01*
X7975000D01*
Y2385000D01*
X7955000D01*
Y2375000D01*
X7945000D01*
Y2355000D01*
X7955000D01*
X7793000Y4549000D02*
Y4539000D01*
X7813000D01*
Y4549000D01*
X7823000D01*
Y4569000D01*
X7813000D01*
Y4579000D01*
X7793000D01*
Y4569000D01*
X7783000D01*
Y4549000D01*
X7793000D01*
X7832000Y4739000D02*
Y4729000D01*
X7852000D01*
Y4739000D01*
X7862000D01*
Y4759000D01*
X7852000D01*
Y4769000D01*
X7832000D01*
Y4759000D01*
X7822000D01*
Y4739000D01*
X7832000D01*
X6879000Y4490000D02*
Y4480000D01*
X6899000D01*
Y4490000D01*
X6909000D01*
Y4510000D01*
X6899000D01*
Y4520000D01*
X6879000D01*
Y4510000D01*
X6869000D01*
Y4490000D01*
X6879000D01*
X6943000Y4741000D02*
Y4731000D01*
X6963000D01*
Y4741000D01*
X6973000D01*
Y4761000D01*
X6963000D01*
Y4771000D01*
X6943000D01*
Y4761000D01*
X6933000D01*
Y4741000D01*
X6943000D01*
X6016000Y4514000D02*
Y4504000D01*
X6036000D01*
Y4514000D01*
X6046000D01*
Y4534000D01*
X6036000D01*
Y4544000D01*
X6016000D01*
Y4534000D01*
X6006000D01*
Y4514000D01*
X6016000D01*
X6104000Y4729000D02*
Y4719000D01*
X6124000D01*
Y4729000D01*
X6134000D01*
Y4749000D01*
X6124000D01*
Y4759000D01*
X6104000D01*
Y4749000D01*
X6094000D01*
Y4729000D01*
X6104000D01*
X5277000Y4540000D02*
Y4530000D01*
X5297000D01*
Y4540000D01*
X5307000D01*
Y4560000D01*
X5297000D01*
Y4570000D01*
X5277000D01*
Y4560000D01*
X5267000D01*
Y4540000D01*
X5277000D01*
Y4728000D02*
Y4718000D01*
X5297000D01*
Y4728000D01*
X5307000D01*
Y4748000D01*
X5297000D01*
Y4758000D01*
X5277000D01*
Y4748000D01*
X5267000D01*
Y4728000D01*
X5277000D01*
X4517000Y4500000D02*
Y4490000D01*
X4537000D01*
Y4500000D01*
X4547000D01*
Y4520000D01*
X4537000D01*
Y4530000D01*
X4517000D01*
Y4520000D01*
X4507000D01*
Y4500000D01*
X4517000D01*
X4450000Y4733000D02*
Y4723000D01*
X4470000D01*
Y4733000D01*
X4480000D01*
Y4753000D01*
X4470000D01*
Y4763000D01*
X4450000D01*
Y4753000D01*
X4440000D01*
Y4733000D01*
X4450000D01*
X3568000Y4526000D02*
Y4516000D01*
X3588000D01*
Y4526000D01*
X3598000D01*
Y4546000D01*
X3588000D01*
Y4556000D01*
X3568000D01*
Y4546000D01*
X3558000D01*
Y4526000D01*
X3568000D01*
X3566590Y4759409D02*
Y4749409D01*
X3586590D01*
Y4759409D01*
X3596590D01*
Y4779409D01*
X3586590D01*
Y4789409D01*
X3566590D01*
Y4779409D01*
X3556590D01*
Y4759409D01*
X3566590D01*
X2736000Y4524000D02*
Y4514000D01*
X2756000D01*
Y4524000D01*
X2766000D01*
Y4544000D01*
X2756000D01*
Y4554000D01*
X2736000D01*
Y4544000D01*
X2726000D01*
Y4524000D01*
X2736000D01*
X2731000Y4744000D02*
Y4734000D01*
X2751000D01*
Y4744000D01*
X2761000D01*
Y4764000D01*
X2751000D01*
Y4774000D01*
X2731000D01*
Y4764000D01*
X2721000D01*
Y4744000D01*
X2731000D01*
X1868000Y4382000D02*
Y4372000D01*
X1888000D01*
Y4382000D01*
X1898000D01*
Y4402000D01*
X1888000D01*
Y4412000D01*
X1868000D01*
Y4402000D01*
X1858000D01*
Y4382000D01*
X1868000D01*
Y4751000D02*
Y4741000D01*
X1888000D01*
Y4751000D01*
X1898000D01*
Y4771000D01*
X1888000D01*
Y4781000D01*
X1868000D01*
Y4771000D01*
X1858000D01*
Y4751000D01*
X1868000D01*
X1983000Y2383000D02*
Y2373000D01*
X2003000D01*
Y2383000D01*
X2013000D01*
Y2403000D01*
X2003000D01*
Y2413000D01*
X1983000D01*
Y2403000D01*
X1973000D01*
Y2383000D01*
X1983000D01*
X4192000Y3009000D02*
Y2999000D01*
X4212000D01*
Y3009000D01*
X4222000D01*
Y3029000D01*
X4212000D01*
Y3039000D01*
X4192000D01*
Y3029000D01*
X4182000D01*
Y3009000D01*
X4192000D01*
X4062000Y2901000D02*
Y2891000D01*
X4082000D01*
Y2901000D01*
X4092000D01*
Y2921000D01*
X4082000D01*
Y2931000D01*
X4062000D01*
Y2921000D01*
X4052000D01*
Y2901000D01*
X4062000D01*
X3869000Y2888000D02*
Y2878000D01*
X3889000D01*
Y2888000D01*
X3899000D01*
Y2908000D01*
X3889000D01*
Y2918000D01*
X3869000D01*
Y2908000D01*
X3859000D01*
Y2888000D01*
X3869000D01*
X2848000Y2383000D02*
Y2373000D01*
X2868000D01*
Y2383000D01*
X2878000D01*
Y2403000D01*
X2868000D01*
Y2413000D01*
X2848000D01*
Y2403000D01*
X2838000D01*
Y2383000D01*
X2848000D01*
X4041000Y2832000D02*
Y2822000D01*
X4061000D01*
Y2832000D01*
X4071000D01*
Y2852000D01*
X4061000D01*
Y2862000D01*
X4041000D01*
Y2852000D01*
X4031000D01*
Y2832000D01*
X4041000D01*
X3942000Y2787000D02*
Y2777000D01*
X3962000D01*
Y2787000D01*
X3972000D01*
Y2807000D01*
X3962000D01*
Y2817000D01*
X3942000D01*
Y2807000D01*
X3932000D01*
Y2787000D01*
X3942000D01*
X3768000Y2779000D02*
Y2769000D01*
X3788000D01*
Y2779000D01*
X3798000D01*
Y2799000D01*
X3788000D01*
Y2809000D01*
X3768000D01*
Y2799000D01*
X3758000D01*
Y2779000D01*
X3768000D01*
X3736000Y2396000D02*
Y2386000D01*
X3756000D01*
Y2396000D01*
X3766000D01*
Y2416000D01*
X3756000D01*
Y2426000D01*
X3736000D01*
Y2416000D01*
X3726000D01*
Y2396000D01*
X3736000D01*
X3727000Y2577000D02*
Y2567000D01*
X3747000D01*
Y2577000D01*
X3757000D01*
Y2597000D01*
X3747000D01*
Y2607000D01*
X3727000D01*
Y2597000D01*
X3717000D01*
Y2577000D01*
X3727000D01*
X4603000Y2641000D02*
Y2631000D01*
X4623000D01*
Y2641000D01*
X4633000D01*
Y2661000D01*
X4623000D01*
Y2671000D01*
X4603000D01*
Y2661000D01*
X4593000D01*
Y2641000D01*
X4603000D01*
X4569000Y2383000D02*
Y2373000D01*
X4589000D01*
Y2383000D01*
X4599000D01*
Y2403000D01*
X4589000D01*
Y2413000D01*
X4569000D01*
Y2403000D01*
X4559000D01*
Y2383000D01*
X4569000D01*
X5405000Y2567000D02*
Y2557000D01*
X5425000D01*
Y2567000D01*
X5435000D01*
Y2587000D01*
X5425000D01*
Y2597000D01*
X5405000D01*
Y2587000D01*
X5395000D01*
Y2567000D01*
X5405000D01*
X5440000Y2405000D02*
Y2395000D01*
X5460000D01*
Y2405000D01*
X5470000D01*
Y2425000D01*
X5460000D01*
Y2435000D01*
X5440000D01*
Y2425000D01*
X5430000D01*
Y2405000D01*
X5440000D01*
X6230000Y2330000D02*
Y2320000D01*
X6250000D01*
Y2330000D01*
X6260000D01*
Y2350000D01*
X6250000D01*
Y2360000D01*
X6230000D01*
Y2350000D01*
X6220000D01*
Y2330000D01*
X6230000D01*
X6216000Y2566000D02*
Y2556000D01*
X6236000D01*
Y2566000D01*
X6246000D01*
Y2586000D01*
X6236000D01*
Y2596000D01*
X6216000D01*
Y2586000D01*
X6206000D01*
Y2566000D01*
X6216000D01*
X6256000Y2233000D02*
Y2223000D01*
X6276000D01*
Y2233000D01*
X6286000D01*
Y2253000D01*
X6276000D01*
Y2263000D01*
X6256000D01*
Y2253000D01*
X6246000D01*
Y2233000D01*
X6256000D01*
X6153000Y2563000D02*
Y2553000D01*
X6173000D01*
Y2563000D01*
X6183000D01*
Y2583000D01*
X6173000D01*
Y2593000D01*
X6153000D01*
Y2583000D01*
X6143000D01*
Y2563000D01*
X6153000D01*
X9000000Y4585850D02*
Y4575850D01*
X9020000D01*
Y4585850D01*
X9030000D01*
Y4605850D01*
X9020000D01*
Y4615850D01*
X9000000D01*
Y4605850D01*
X8990000D01*
Y4585850D01*
X9000000D01*
X8972000Y4733000D02*
Y4723000D01*
X8992000D01*
Y4733000D01*
X9002000D01*
Y4753000D01*
X8992000D01*
Y4763000D01*
X8972000D01*
Y4753000D01*
X8962000D01*
Y4733000D01*
X8972000D01*
X9005000Y4896000D02*
Y4886000D01*
X9025000D01*
Y4896000D01*
X9035000D01*
Y4916000D01*
X9025000D01*
Y4926000D01*
X9005000D01*
Y4916000D01*
X8995000D01*
Y4896000D01*
X9005000D01*
X9285000Y4893000D02*
Y4883000D01*
X9305000D01*
Y4893000D01*
X9315000D01*
Y4913000D01*
X9305000D01*
Y4923000D01*
X9285000D01*
Y4913000D01*
X9275000D01*
Y4893000D01*
X9285000D01*
X9270000Y4676000D02*
Y4666000D01*
X9290000D01*
Y4676000D01*
X9300000D01*
Y4696000D01*
X9290000D01*
Y4706000D01*
X9270000D01*
Y4696000D01*
X9260000D01*
Y4676000D01*
X9270000D01*
X8154000Y4583425D02*
Y4573425D01*
X8174000D01*
Y4583425D01*
X8184000D01*
Y4603425D01*
X8174000D01*
Y4613425D01*
X8154000D01*
Y4603425D01*
X8144000D01*
Y4583425D01*
X8154000D01*
X8450000Y4831000D02*
Y4821000D01*
X8470000D01*
Y4831000D01*
X8480000D01*
Y4851000D01*
X8470000D01*
Y4861000D01*
X8450000D01*
Y4851000D01*
X8440000D01*
Y4831000D01*
X8450000D01*
X8423000Y4681000D02*
Y4671000D01*
X8443000D01*
Y4681000D01*
X8453000D01*
Y4701000D01*
X8443000D01*
Y4711000D01*
X8423000D01*
Y4701000D01*
X8413000D01*
Y4681000D01*
X8423000D01*
X7308591Y4583000D02*
Y4573000D01*
X7328591D01*
Y4583000D01*
X7338591D01*
Y4603000D01*
X7328591D01*
Y4613000D01*
X7308591D01*
Y4603000D01*
X7298591D01*
Y4583000D01*
X7308591D01*
X7603000Y4831000D02*
Y4821000D01*
X7623000D01*
Y4831000D01*
X7633000D01*
Y4851000D01*
X7623000D01*
Y4861000D01*
X7603000D01*
Y4851000D01*
X7593000D01*
Y4831000D01*
X7603000D01*
X7583000Y4682000D02*
Y4672000D01*
X7603000D01*
Y4682000D01*
X7613000D01*
Y4702000D01*
X7603000D01*
Y4712000D01*
X7583000D01*
Y4702000D01*
X7573000D01*
Y4682000D01*
X7583000D01*
X6442000Y4588000D02*
Y4578000D01*
X6462000D01*
Y4588000D01*
X6472000D01*
Y4608000D01*
X6462000D01*
Y4618000D01*
X6442000D01*
Y4608000D01*
X6432000D01*
Y4588000D01*
X6442000D01*
X6739000Y4823000D02*
Y4813000D01*
X6759000D01*
Y4823000D01*
X6769000D01*
Y4843000D01*
X6759000D01*
Y4853000D01*
X6739000D01*
Y4843000D01*
X6729000D01*
Y4823000D01*
X6739000D01*
X6725000Y4683000D02*
Y4673000D01*
X6745000D01*
Y4683000D01*
X6755000D01*
Y4703000D01*
X6745000D01*
Y4713000D01*
X6725000D01*
Y4703000D01*
X6715000D01*
Y4683000D01*
X6725000D01*
X5604000Y4583425D02*
Y4573425D01*
X5624000D01*
Y4583425D01*
X5634000D01*
Y4603425D01*
X5624000D01*
Y4613425D01*
X5604000D01*
Y4603425D01*
X5594000D01*
Y4583425D01*
X5604000D01*
X5891000Y4836000D02*
Y4826000D01*
X5911000D01*
Y4836000D01*
X5921000D01*
Y4856000D01*
X5911000D01*
Y4866000D01*
X5891000D01*
Y4856000D01*
X5881000D01*
Y4836000D01*
X5891000D01*
X5881000Y4683000D02*
Y4673000D01*
X5901000D01*
Y4683000D01*
X5911000D01*
Y4703000D01*
X5901000D01*
Y4713000D01*
X5881000D01*
Y4703000D01*
X5871000D01*
Y4683000D01*
X5881000D01*
X4756409Y4589409D02*
Y4579409D01*
X4776409D01*
Y4589409D01*
X4786409D01*
Y4609409D01*
X4776409D01*
Y4619409D01*
X4756409D01*
Y4609409D01*
X4746409D01*
Y4589409D01*
X4756409D01*
X5025000Y4832000D02*
Y4822000D01*
X5045000D01*
Y4832000D01*
X5055000D01*
Y4852000D01*
X5045000D01*
Y4862000D01*
X5025000D01*
Y4852000D01*
X5015000D01*
Y4832000D01*
X5025000D01*
X5026000Y4683000D02*
Y4673000D01*
X5046000D01*
Y4683000D01*
X5056000D01*
Y4703000D01*
X5046000D01*
Y4713000D01*
X5026000D01*
Y4703000D01*
X5016000D01*
Y4683000D01*
X5026000D01*
X3896000Y4583000D02*
Y4573000D01*
X3916000D01*
Y4583000D01*
X3926000D01*
Y4603000D01*
X3916000D01*
Y4613000D01*
X3896000D01*
Y4603000D01*
X3886000D01*
Y4583000D01*
X3896000D01*
X4185000Y4838000D02*
Y4828000D01*
X4205000D01*
Y4838000D01*
X4215000D01*
Y4858000D01*
X4205000D01*
Y4868000D01*
X4185000D01*
Y4858000D01*
X4175000D01*
Y4838000D01*
X4185000D01*
X4178000Y4683000D02*
Y4673000D01*
X4198000D01*
Y4683000D01*
X4208000D01*
Y4703000D01*
X4198000D01*
Y4713000D01*
X4178000D01*
Y4703000D01*
X4168000D01*
Y4683000D01*
X4178000D01*
X3330000Y4677000D02*
Y4667000D01*
X3350000D01*
Y4677000D01*
X3360000D01*
Y4697000D01*
X3350000D01*
Y4707000D01*
X3330000D01*
Y4697000D01*
X3320000D01*
Y4677000D01*
X3330000D01*
X3038000Y4583000D02*
Y4573000D01*
X3058000D01*
Y4583000D01*
X3068000D01*
Y4603000D01*
X3058000D01*
Y4613000D01*
X3038000D01*
Y4603000D01*
X3028000D01*
Y4583000D01*
X3038000D01*
X3325000Y4858000D02*
Y4848000D01*
X3345000D01*
Y4858000D01*
X3355000D01*
Y4878000D01*
X3345000D01*
Y4888000D01*
X3325000D01*
Y4878000D01*
X3315000D01*
Y4858000D01*
X3325000D01*
X1351000Y4583000D02*
Y4573000D01*
X1371000D01*
Y4583000D01*
X1381000D01*
Y4603000D01*
X1371000D01*
Y4613000D01*
X1351000D01*
Y4603000D01*
X1341000D01*
Y4583000D01*
X1351000D01*
X1552000Y4908000D02*
Y4898000D01*
X1572000D01*
Y4908000D01*
X1582000D01*
Y4928000D01*
X1572000D01*
Y4938000D01*
X1552000D01*
Y4928000D01*
X1542000D01*
Y4908000D01*
X1552000D01*
X1635575Y4659575D02*
Y4649575D01*
X1655575D01*
Y4659575D01*
X1665575D01*
Y4679575D01*
X1655575D01*
Y4689575D01*
X1635575D01*
Y4679575D01*
X1625575D01*
Y4659575D01*
X1635575D01*
X2197000Y4583000D02*
Y4573000D01*
X2217000D01*
Y4583000D01*
X2227000D01*
Y4603000D01*
X2217000D01*
Y4613000D01*
X2197000D01*
Y4603000D01*
X2187000D01*
Y4583000D01*
X2197000D01*
X2485000Y4848000D02*
Y4838000D01*
X2505000D01*
Y4848000D01*
X2515000D01*
Y4868000D01*
X2505000D01*
Y4878000D01*
X2485000D01*
Y4868000D01*
X2475000D01*
Y4848000D01*
X2485000D01*
X2456000Y4680000D02*
Y4670000D01*
X2476000D01*
Y4680000D01*
X2486000D01*
Y4700000D01*
X2476000D01*
Y4710000D01*
X2456000D01*
Y4700000D01*
X2446000D01*
Y4680000D01*
X2456000D01*
X9070000Y2217000D02*
Y2207000D01*
X9090000D01*
Y2217000D01*
X9100000D01*
Y2237000D01*
X9090000D01*
Y2247000D01*
X9070000D01*
Y2237000D01*
X9060000D01*
Y2217000D01*
X9070000D01*
X9316819Y2209819D02*
Y2199819D01*
X9336819D01*
Y2209819D01*
X9346819D01*
Y2229819D01*
X9336819D01*
Y2239819D01*
X9316819D01*
Y2229819D01*
X9306819D01*
Y2209819D01*
X9316819D01*
X9038000Y2351000D02*
Y2341000D01*
X9058000D01*
Y2351000D01*
X9068000D01*
Y2371000D01*
X9058000D01*
Y2381000D01*
X9038000D01*
Y2371000D01*
X9028000D01*
Y2351000D01*
X9038000D01*
X9046000Y2459000D02*
Y2449000D01*
X9066000D01*
Y2459000D01*
X9076000D01*
Y2479000D01*
X9066000D01*
Y2489000D01*
X9046000D01*
Y2479000D01*
X9036000D01*
Y2459000D01*
X9046000D01*
X8487000Y2554000D02*
Y2544000D01*
X8507000D01*
Y2554000D01*
X8517000D01*
Y2574000D01*
X8507000D01*
Y2584000D01*
X8487000D01*
Y2574000D01*
X8477000D01*
Y2554000D01*
X8487000D01*
X8210000Y2335000D02*
Y2325000D01*
X8230000D01*
Y2335000D01*
X8240000D01*
Y2355000D01*
X8230000D01*
Y2365000D01*
X8210000D01*
Y2355000D01*
X8200000D01*
Y2335000D01*
X8210000D01*
X8202000Y2454000D02*
Y2444000D01*
X8222000D01*
Y2454000D01*
X8232000D01*
Y2474000D01*
X8222000D01*
Y2484000D01*
X8202000D01*
Y2474000D01*
X8192000D01*
Y2454000D01*
X8202000D01*
X7634425Y2554000D02*
Y2544000D01*
X7654425D01*
Y2554000D01*
X7664425D01*
Y2574000D01*
X7654425D01*
Y2584000D01*
X7634425D01*
Y2574000D01*
X7624425D01*
Y2554000D01*
X7634425D01*
X7365000Y2319000D02*
Y2309000D01*
X7385000D01*
Y2319000D01*
X7395000D01*
Y2339000D01*
X7385000D01*
Y2349000D01*
X7365000D01*
Y2339000D01*
X7355000D01*
Y2319000D01*
X7365000D01*
X7350000Y2454000D02*
Y2444000D01*
X7370000D01*
Y2454000D01*
X7380000D01*
Y2474000D01*
X7370000D01*
Y2484000D01*
X7350000D01*
Y2474000D01*
X7340000D01*
Y2454000D01*
X7350000D01*
X6757409Y2549591D02*
Y2539591D01*
X6777409D01*
Y2549591D01*
X6787409D01*
Y2569591D01*
X6777409D01*
Y2579591D01*
X6757409D01*
Y2569591D01*
X6747409D01*
Y2549591D01*
X6757409D01*
X6504000Y2334000D02*
Y2324000D01*
X6524000D01*
Y2334000D01*
X6534000D01*
Y2354000D01*
X6524000D01*
Y2364000D01*
X6504000D01*
Y2354000D01*
X6494000D01*
Y2334000D01*
X6504000D01*
X6490000Y2454000D02*
Y2444000D01*
X6510000D01*
Y2454000D01*
X6520000D01*
Y2474000D01*
X6510000D01*
Y2484000D01*
X6490000D01*
Y2474000D01*
X6480000D01*
Y2454000D01*
X6490000D01*
X5927591Y2544591D02*
Y2534591D01*
X5947591D01*
Y2544591D01*
X5957591D01*
Y2564591D01*
X5947591D01*
Y2574591D01*
X5927591D01*
Y2564591D01*
X5917591D01*
Y2544591D01*
X5927591D01*
X5643000Y2341000D02*
Y2331000D01*
X5663000D01*
Y2341000D01*
X5673000D01*
Y2361000D01*
X5663000D01*
Y2371000D01*
X5643000D01*
Y2361000D01*
X5633000D01*
Y2341000D01*
X5643000D01*
X5632000Y2454000D02*
Y2444000D01*
X5652000D01*
Y2454000D01*
X5662000D01*
Y2474000D01*
X5652000D01*
Y2484000D01*
X5632000D01*
Y2474000D01*
X5622000D01*
Y2454000D01*
X5632000D01*
X5072000Y2554000D02*
Y2544000D01*
X5092000D01*
Y2554000D01*
X5102000D01*
Y2574000D01*
X5092000D01*
Y2584000D01*
X5072000D01*
Y2574000D01*
X5062000D01*
Y2554000D01*
X5072000D01*
X4792000Y2348000D02*
Y2338000D01*
X4812000D01*
Y2348000D01*
X4822000D01*
Y2368000D01*
X4812000D01*
Y2378000D01*
X4792000D01*
Y2368000D01*
X4782000D01*
Y2348000D01*
X4792000D01*
X3945000Y2344000D02*
Y2334000D01*
X3965000D01*
Y2344000D01*
X3975000D01*
Y2364000D01*
X3965000D01*
Y2374000D01*
X3945000D01*
Y2364000D01*
X3935000D01*
Y2344000D01*
X3945000D01*
X3918000Y2454000D02*
Y2444000D01*
X3938000D01*
Y2454000D01*
X3948000D01*
Y2474000D01*
X3938000D01*
Y2484000D01*
X3918000D01*
Y2474000D01*
X3908000D01*
Y2454000D01*
X3918000D01*
X3339409Y2552591D02*
Y2542591D01*
X3359409D01*
Y2552591D01*
X3369409D01*
Y2572591D01*
X3359409D01*
Y2582591D01*
X3339409D01*
Y2572591D01*
X3329409D01*
Y2552591D01*
X3339409D01*
X3101000Y2327000D02*
Y2317000D01*
X3121000D01*
Y2327000D01*
X3131000D01*
Y2347000D01*
X3121000D01*
Y2357000D01*
X3101000D01*
Y2347000D01*
X3091000D01*
Y2327000D01*
X3101000D01*
X3060000Y2445000D02*
Y2435000D01*
X3080000D01*
Y2445000D01*
X3090000D01*
Y2465000D01*
X3080000D01*
Y2475000D01*
X3060000D01*
Y2465000D01*
X3050000D01*
Y2445000D01*
X3060000D01*
X1362000Y2311000D02*
Y2301000D01*
X1382000D01*
Y2311000D01*
X1392000D01*
Y2331000D01*
X1382000D01*
Y2341000D01*
X1362000D01*
Y2331000D01*
X1352000D01*
Y2311000D01*
X1362000D01*
X1624000Y2543000D02*
Y2533000D01*
X1644000D01*
Y2543000D01*
X1654000D01*
Y2563000D01*
X1644000D01*
Y2573000D01*
X1624000D01*
Y2563000D01*
X1614000D01*
Y2543000D01*
X1624000D01*
X1363000Y2455000D02*
Y2445000D01*
X1383000D01*
Y2455000D01*
X1393000D01*
Y2475000D01*
X1383000D01*
Y2485000D01*
X1363000D01*
Y2475000D01*
X1353000D01*
Y2455000D01*
X1363000D01*
X2231000Y2348000D02*
Y2338000D01*
X2251000D01*
Y2348000D01*
X2261000D01*
Y2368000D01*
X2251000D01*
Y2378000D01*
X2231000D01*
Y2368000D01*
X2221000D01*
Y2348000D01*
X2231000D01*
X2492000Y2554000D02*
Y2544000D01*
X2512000D01*
Y2554000D01*
X2522000D01*
Y2574000D01*
X2512000D01*
Y2584000D01*
X2492000D01*
Y2574000D01*
X2482000D01*
Y2554000D01*
X2492000D01*
X2201000Y2454000D02*
Y2444000D01*
X2221000D01*
Y2454000D01*
X2231000D01*
Y2474000D01*
X2221000D01*
Y2484000D01*
X2201000D01*
Y2474000D01*
X2191000D01*
Y2454000D01*
X2201000D01*
D107*
X5729000Y3176000D02*
G03*
X5729000Y3176000I-20000J0D01*
G01*
Y3026000D02*
G03*
X5729000Y3026000I-20000J0D01*
G01*
%TF.MD5,75be5379556a7afc99ba6e5092d8d6ff*%
M02*
