%TF.GenerationSoftware,Altium Limited,Altium Designer,18.1.9 (240)*%
G04 Layer_Color=8388736*
%FSLAX26Y26*%
%MOIN*%
%TF.FileFunction,Soldermask,Top*%
%TF.Part,Single*%
G01*
G75*
%TA.AperFunction,SMDPad,CuDef*%
%ADD53R,0.045402X0.041465*%
%ADD54R,0.047370X0.043433*%
%ADD59R,0.088709X0.053276*%
%TA.AperFunction,ViaPad*%
%ADD60C,0.258000*%
%TA.AperFunction,SMDPad,CuDef*%
%ADD61R,0.053276X0.088709*%
%TA.AperFunction,ComponentPad*%
%ADD62C,0.111937*%
%TA.AperFunction,ViaPad*%
%ADD63R,0.068000X0.068000*%
%TA.AperFunction,ComponentPad*%
%ADD64C,0.093039*%
%ADD65R,0.111937X0.111937*%
%TA.AperFunction,ViaPad*%
%ADD66C,0.038000*%
%ADD67C,0.058000*%
%TA.AperFunction,ConnectorPad*%
%ADD71R,0.088000X0.053000*%
%TA.AperFunction,SMDPad,CuDef*%
%ADD72R,0.088000X0.053000*%
%ADD73O,0.072961X0.027685*%
%ADD74R,0.078866X0.047370*%
%ADD75R,0.047370X0.031622*%
%ADD76R,0.061150X0.065087*%
%ADD77R,0.061150X0.053276*%
%ADD78R,0.102488X0.037921*%
%ADD79R,0.043433X0.047370*%
%ADD80R,0.090677X0.133984*%
%ADD81R,0.090677X0.031622*%
%ADD82R,0.041465X0.045402*%
%ADD83R,0.059181X0.051307*%
%ADD84R,0.043433X0.039496*%
%ADD85R,0.082803X0.043433*%
%ADD86R,0.053276X0.061150*%
%ADD87R,0.051307X0.059181*%
%ADD88R,0.061150X0.019811*%
%ADD89R,0.019811X0.061150*%
%ADD90O,0.065087X0.031622*%
D53*
X2360000Y3695410D02*
D03*
Y3746591D02*
D03*
X2230000Y3801000D02*
D03*
Y3860000D02*
D03*
Y3911181D02*
D03*
Y3749819D02*
D03*
D54*
X3021000Y3475575D02*
D03*
Y3422425D02*
D03*
X3549000Y3452425D02*
D03*
Y3505575D02*
D03*
X3022000Y3203000D02*
D03*
Y3256150D02*
D03*
X7606000Y3355000D02*
D03*
Y3408150D02*
D03*
X6701000Y3254425D02*
D03*
Y3307575D02*
D03*
X8357000Y3111575D02*
D03*
Y3058425D02*
D03*
X2227000Y3586425D02*
D03*
Y3639575D02*
D03*
X2937000Y3852575D02*
D03*
Y3799425D02*
D03*
D59*
X1740599Y3376000D02*
D03*
X8651000Y2950000D02*
D03*
Y3022000D02*
D03*
X7068000Y3302000D02*
D03*
X7071000Y3139000D02*
D03*
X6161000Y3479000D02*
D03*
Y3560000D02*
D03*
X2076000Y3213000D02*
D03*
D60*
X1248000Y4311000D02*
D03*
X1250000Y2868000D02*
D03*
X9357000Y3017000D02*
D03*
Y4113000D02*
D03*
D61*
X1733000Y3778000D02*
D03*
X1732000Y3879000D02*
D03*
X1815000Y3239000D02*
D03*
D62*
X1280323Y3743449D02*
D03*
X1455520D02*
D03*
X1280323Y3384394D02*
D03*
D63*
X1248000Y4311000D02*
D03*
X1250000Y2868000D02*
D03*
X9357000Y3017000D02*
D03*
Y4113000D02*
D03*
D64*
X1368000Y3153921D02*
D03*
Y3974000D02*
D03*
D65*
X1455520Y3384394D02*
D03*
D66*
X1838000Y3833000D02*
D03*
X4223000Y2572345D02*
D03*
X4831000Y2497000D02*
D03*
X5429732Y3631000D02*
D03*
X9365000Y2415000D02*
D03*
X9301000Y4816000D02*
D03*
X5090000Y3817000D02*
D03*
X3612000Y3433000D02*
D03*
X3434000Y3316000D02*
D03*
X2351000Y3361000D02*
D03*
X2582575Y3108000D02*
D03*
X1634867Y3825000D02*
D03*
X2079000Y3338000D02*
D03*
X9197000Y3608000D02*
D03*
X7502000Y2676000D02*
D03*
X6368000Y2656000D02*
D03*
X5164000Y3603000D02*
D03*
X4628000Y3123000D02*
D03*
X5059000Y2839000D02*
D03*
X3228000Y2627000D02*
D03*
X1530000Y2628000D02*
D03*
X9035000Y4389000D02*
D03*
X8424000Y3546000D02*
D03*
X6127000Y3383000D02*
D03*
X9014000Y2717000D02*
D03*
X8769000Y2956000D02*
D03*
Y3016000D02*
D03*
X8889000Y2564000D02*
D03*
X7776843Y2784843D02*
D03*
X8396843Y2791843D02*
D03*
X8247000Y3092000D02*
D03*
X8442843Y2633843D02*
D03*
X8226843Y2570843D02*
D03*
X5505843Y4511843D02*
D03*
X5394843Y4406843D02*
D03*
X5754843Y4475843D02*
D03*
X5754000Y4594755D02*
D03*
X5884843Y4593843D02*
D03*
X5001843Y2321843D02*
D03*
X3287685Y3632843D02*
D03*
X3062000Y3317000D02*
D03*
X3225843Y3447843D02*
D03*
X1125843Y4722843D02*
D03*
X1419843Y4428843D02*
D03*
X1670843Y4481843D02*
D03*
X2083843Y4489843D02*
D03*
X2347843Y4495843D02*
D03*
X2639843Y4677843D02*
D03*
X2786843Y4738843D02*
D03*
X2821843Y4487843D02*
D03*
X2670843Y4532843D02*
D03*
X3281843Y4447549D02*
D03*
X4372843Y4547843D02*
D03*
X4187000Y4256000D02*
D03*
X4794843Y4391843D02*
D03*
X5140843Y4284843D02*
D03*
X5092843Y4427843D02*
D03*
X6400843Y4441843D02*
D03*
X7587000Y4587000D02*
D03*
X8317000Y4459000D02*
D03*
X7638843Y4107843D02*
D03*
X6555843Y4117843D02*
D03*
Y3821843D02*
D03*
X7622843Y3774843D02*
D03*
X7597843Y3516843D02*
D03*
X7629843Y3114843D02*
D03*
X7402843Y2887843D02*
D03*
X6836843Y2894843D02*
D03*
X7036843Y3475843D02*
D03*
X6589843Y3401843D02*
D03*
X6577843Y3269843D02*
D03*
X6557843Y3160843D02*
D03*
X6157843Y3190843D02*
D03*
X5902843Y3130843D02*
D03*
X5790843Y3311843D02*
D03*
X5523843Y3330533D02*
D03*
X5707843Y3239843D02*
D03*
Y3103843D02*
D03*
X5880843Y3003843D02*
D03*
X5812843Y2726843D02*
D03*
X5667843Y2564843D02*
D03*
X5502145Y2637713D02*
D03*
X5611843Y2414843D02*
D03*
X4882843Y2329993D02*
D03*
X4801843Y2567843D02*
D03*
X4463843Y2381353D02*
D03*
X4477843Y2602508D02*
D03*
X3956843Y2567843D02*
D03*
X3505843Y2909843D02*
D03*
X3503843Y2666843D02*
D03*
X3519508Y2474843D02*
D03*
X3613843Y2378392D02*
D03*
X3188000Y2341000D02*
D03*
X3192843Y2903843D02*
D03*
X2750843Y2621843D02*
D03*
X2715843Y2369843D02*
D03*
X1671000Y2869000D02*
D03*
X2245063Y2565843D02*
D03*
X2032343Y2703843D02*
D03*
X1374000Y2555000D02*
D03*
X1616843Y3469843D02*
D03*
X1973843Y3586685D02*
D03*
X2528843Y3570867D02*
D03*
X2934843Y3677293D02*
D03*
X2829843Y3795685D02*
D03*
X3022843Y3794843D02*
D03*
X4336843Y3826843D02*
D03*
X3836843Y3822843D02*
D03*
X4296843Y3564843D02*
D03*
X4573843Y3565843D02*
D03*
X3361000Y3553000D02*
D03*
X4171000Y3561000D02*
D03*
X5666000Y4196000D02*
D03*
X8595000Y4544000D02*
D03*
X8643000Y4785000D02*
D03*
X5394000Y3193000D02*
D03*
X2956000Y3552000D02*
D03*
X3350000Y2663000D02*
D03*
X3357000Y2992000D02*
D03*
X3361000Y3201000D02*
D03*
X2640000Y3965000D02*
D03*
X3638000Y4269000D02*
D03*
X2838000Y4884000D02*
D03*
X3709000Y4528000D02*
D03*
X3673000Y4832000D02*
D03*
X8727000Y4574000D02*
D03*
X8782000Y4692000D02*
D03*
X8774000Y3354000D02*
D03*
X7243000Y3143000D02*
D03*
X7748000Y3360000D02*
D03*
X8796000Y2374000D02*
D03*
X8886000Y2622000D02*
D03*
X5604000Y3567000D02*
D03*
X5592842Y3348842D02*
D03*
X7331000Y3363000D02*
D03*
X5675000Y3355000D02*
D03*
X6127000Y3275000D02*
D03*
X5883000Y3277000D02*
D03*
X6425000Y2854000D02*
D03*
X6098000Y3103000D02*
D03*
X5355000Y2873000D02*
D03*
X5348000Y3132000D02*
D03*
X5413000D02*
D03*
X5517000Y3022000D02*
D03*
X5539000Y3262000D02*
D03*
X5499000Y3097000D02*
D03*
X5464000Y3226000D02*
D03*
X5280000Y3554000D02*
D03*
X5412000Y3505000D02*
D03*
X3202000Y3665000D02*
D03*
X2964000Y3915000D02*
D03*
X7108000Y2572000D02*
D03*
X2143000Y3917000D02*
D03*
X2141000Y3700000D02*
D03*
X6314000Y2599000D02*
D03*
X6321000Y2382000D02*
D03*
X7081000Y2371000D02*
D03*
X7965000Y2601000D02*
D03*
Y2365000D02*
D03*
X7803000Y4559000D02*
D03*
X7842000Y4749000D02*
D03*
X6889000Y4500000D02*
D03*
X6953000Y4751000D02*
D03*
X6026000Y4524000D02*
D03*
X6114000Y4739000D02*
D03*
X5287000Y4550000D02*
D03*
Y4738000D02*
D03*
X4527000Y4510000D02*
D03*
X4460000Y4743000D02*
D03*
X3578000Y4536000D02*
D03*
X3576590Y4769409D02*
D03*
X2746000Y4534000D02*
D03*
X2741000Y4754000D02*
D03*
X1878000Y4392000D02*
D03*
Y4761000D02*
D03*
X1993000Y2393000D02*
D03*
X4202000Y3019000D02*
D03*
X4072000Y2911000D02*
D03*
X3879000Y2898000D02*
D03*
X2858000Y2393000D02*
D03*
X4051000Y2842000D02*
D03*
X3952000Y2797000D02*
D03*
X3778000Y2789000D02*
D03*
X3746000Y2406000D02*
D03*
X3737000Y2587000D02*
D03*
X4613000Y2651000D02*
D03*
X4579000Y2393000D02*
D03*
X5415000Y2577000D02*
D03*
X5450000Y2415000D02*
D03*
X6240000Y2340000D02*
D03*
X6226000Y2576000D02*
D03*
X6266000Y2243000D02*
D03*
X6163000Y2573000D02*
D03*
X9010000Y4595850D02*
D03*
X8982000Y4743000D02*
D03*
X9015000Y4906000D02*
D03*
X9295000Y4903000D02*
D03*
X9280000Y4686000D02*
D03*
X8164000Y4593425D02*
D03*
X8460000Y4841000D02*
D03*
X8433000Y4691000D02*
D03*
X7318591Y4593000D02*
D03*
X7613000Y4841000D02*
D03*
X7593000Y4692000D02*
D03*
X6452000Y4598000D02*
D03*
X6749000Y4833000D02*
D03*
X6735000Y4693000D02*
D03*
X5614000Y4593425D02*
D03*
X5901000Y4846000D02*
D03*
X5891000Y4693000D02*
D03*
X4766409Y4599409D02*
D03*
X5035000Y4842000D02*
D03*
X5036000Y4693000D02*
D03*
X3906000Y4593000D02*
D03*
X4195000Y4848000D02*
D03*
X4188000Y4693000D02*
D03*
X3340000Y4687000D02*
D03*
X3048000Y4593000D02*
D03*
X3335000Y4868000D02*
D03*
X1361000Y4593000D02*
D03*
X1562000Y4918000D02*
D03*
X1645575Y4669575D02*
D03*
X2207000Y4593000D02*
D03*
X2495000Y4858000D02*
D03*
X2466000Y4690000D02*
D03*
X9080000Y2227000D02*
D03*
X9326819Y2219819D02*
D03*
X9048000Y2361000D02*
D03*
X9056000Y2469000D02*
D03*
X8497000Y2564000D02*
D03*
X8220000Y2345000D02*
D03*
X8212000Y2464000D02*
D03*
X7644425Y2564000D02*
D03*
X7375000Y2329000D02*
D03*
X7360000Y2464000D02*
D03*
X6767409Y2559591D02*
D03*
X6514000Y2344000D02*
D03*
X6500000Y2464000D02*
D03*
X5937591Y2554591D02*
D03*
X5653000Y2351000D02*
D03*
X5642000Y2464000D02*
D03*
X5082000Y2564000D02*
D03*
X4802000Y2358000D02*
D03*
X3955000Y2354000D02*
D03*
X3928000Y2464000D02*
D03*
X3349409Y2562591D02*
D03*
X3111000Y2337000D02*
D03*
X3070000Y2455000D02*
D03*
X1372000Y2321000D02*
D03*
X1634000Y2553000D02*
D03*
X1373000Y2465000D02*
D03*
X2241000Y2358000D02*
D03*
X2502000Y2564000D02*
D03*
X2211000Y2464000D02*
D03*
D67*
X9353000Y2567843D02*
D03*
D71*
X9374000Y4593000D02*
D03*
Y4693000D02*
D03*
Y4793000D02*
D03*
Y4893000D02*
D03*
X8918921Y4593000D02*
D03*
Y4693000D02*
D03*
Y4793000D02*
D03*
Y4893000D02*
D03*
X8524000Y4593000D02*
D03*
Y4693000D02*
D03*
Y4793000D02*
D03*
Y4893000D02*
D03*
X8068921Y4593000D02*
D03*
Y4693000D02*
D03*
Y4793000D02*
D03*
Y4893000D02*
D03*
X7673526Y4593000D02*
D03*
Y4693000D02*
D03*
Y4793000D02*
D03*
Y4893000D02*
D03*
X7218447Y4593000D02*
D03*
Y4693000D02*
D03*
Y4793000D02*
D03*
Y4893000D02*
D03*
X6368921D02*
D03*
Y4793000D02*
D03*
Y4693000D02*
D03*
Y4593000D02*
D03*
X6824000Y4893000D02*
D03*
Y4793000D02*
D03*
Y4693000D02*
D03*
Y4593000D02*
D03*
X5974000D02*
D03*
Y4693000D02*
D03*
Y4793000D02*
D03*
Y4893000D02*
D03*
X5518921Y4593000D02*
D03*
Y4693000D02*
D03*
Y4793000D02*
D03*
Y4893000D02*
D03*
X5124000Y4593000D02*
D03*
Y4693000D02*
D03*
Y4793000D02*
D03*
Y4893000D02*
D03*
X4668921Y4593000D02*
D03*
Y4693000D02*
D03*
Y4793000D02*
D03*
Y4893000D02*
D03*
X4274000Y4593000D02*
D03*
Y4693000D02*
D03*
Y4793000D02*
D03*
Y4893000D02*
D03*
X3818921Y4593000D02*
D03*
Y4693000D02*
D03*
Y4793000D02*
D03*
Y4893000D02*
D03*
X3424000Y4593000D02*
D03*
Y4693000D02*
D03*
Y4793000D02*
D03*
Y4893000D02*
D03*
X2968921Y4593000D02*
D03*
Y4693000D02*
D03*
Y4793000D02*
D03*
Y4893000D02*
D03*
X2574000Y4593000D02*
D03*
Y4693000D02*
D03*
Y4793000D02*
D03*
Y4893000D02*
D03*
X2118921Y4593000D02*
D03*
Y4693000D02*
D03*
Y4793000D02*
D03*
Y4893000D02*
D03*
X1719000Y4593000D02*
D03*
Y4693000D02*
D03*
Y4793000D02*
D03*
Y4893000D02*
D03*
X1263921Y4593000D02*
D03*
Y4693000D02*
D03*
Y4793000D02*
D03*
Y4893000D02*
D03*
D72*
X9431079Y2269000D02*
D03*
Y2369000D02*
D03*
Y2469000D02*
D03*
Y2569000D02*
D03*
X8976000Y2269000D02*
D03*
Y2369000D02*
D03*
Y2469000D02*
D03*
Y2569000D02*
D03*
X8126000Y2564000D02*
D03*
Y2464000D02*
D03*
Y2364000D02*
D03*
Y2264000D02*
D03*
X8581079Y2564000D02*
D03*
Y2464000D02*
D03*
Y2364000D02*
D03*
Y2264000D02*
D03*
X7269599Y2564000D02*
D03*
Y2464000D02*
D03*
Y2364000D02*
D03*
Y2264000D02*
D03*
X7724677Y2564000D02*
D03*
Y2464000D02*
D03*
Y2364000D02*
D03*
Y2264000D02*
D03*
X6410921Y2564000D02*
D03*
Y2464000D02*
D03*
Y2364000D02*
D03*
Y2264000D02*
D03*
X6866000Y2564000D02*
D03*
Y2464000D02*
D03*
Y2364000D02*
D03*
Y2264000D02*
D03*
X6011000D02*
D03*
Y2364000D02*
D03*
Y2464000D02*
D03*
Y2564000D02*
D03*
X5555921Y2264000D02*
D03*
Y2364000D02*
D03*
Y2464000D02*
D03*
Y2564000D02*
D03*
X4724921Y2610000D02*
D03*
Y2510000D02*
D03*
Y2410000D02*
D03*
Y2310000D02*
D03*
X5180000Y2610000D02*
D03*
Y2510000D02*
D03*
Y2410000D02*
D03*
Y2310000D02*
D03*
X3845921Y2564000D02*
D03*
Y2464000D02*
D03*
Y2364000D02*
D03*
Y2264000D02*
D03*
X4301000Y2564000D02*
D03*
Y2464000D02*
D03*
Y2364000D02*
D03*
Y2264000D02*
D03*
X2985921Y2564000D02*
D03*
Y2464000D02*
D03*
Y2364000D02*
D03*
Y2264000D02*
D03*
X3441000Y2564000D02*
D03*
Y2464000D02*
D03*
Y2364000D02*
D03*
Y2264000D02*
D03*
X1275921Y2564000D02*
D03*
Y2464000D02*
D03*
Y2364000D02*
D03*
Y2264000D02*
D03*
X1731000Y2564000D02*
D03*
Y2464000D02*
D03*
Y2364000D02*
D03*
Y2264000D02*
D03*
X2127496Y2564000D02*
D03*
Y2464000D02*
D03*
Y2364000D02*
D03*
Y2264000D02*
D03*
X2582575Y2564000D02*
D03*
Y2464000D02*
D03*
Y2364000D02*
D03*
Y2264000D02*
D03*
D73*
X7833567Y3321299D02*
D03*
Y3294685D02*
D03*
Y3268071D02*
D03*
Y3241457D02*
D03*
Y3214843D02*
D03*
Y3188228D02*
D03*
Y3161614D02*
D03*
Y3135000D02*
D03*
Y3108386D02*
D03*
Y3081772D02*
D03*
Y3055157D02*
D03*
Y3028543D02*
D03*
Y3001929D02*
D03*
Y2975315D02*
D03*
X8119000Y3321299D02*
D03*
Y3294685D02*
D03*
Y3268071D02*
D03*
Y3241457D02*
D03*
Y3214843D02*
D03*
Y3188228D02*
D03*
Y3161614D02*
D03*
Y3135000D02*
D03*
Y3108386D02*
D03*
Y3081772D02*
D03*
Y3055157D02*
D03*
Y3028543D02*
D03*
Y3001929D02*
D03*
Y2975315D02*
D03*
D74*
X2453000Y3217882D02*
D03*
Y3328118D02*
D03*
D75*
X6488134Y3029598D02*
D03*
Y3067000D02*
D03*
Y3104401D02*
D03*
X6379866D02*
D03*
Y3029598D02*
D03*
X6385366Y3305472D02*
D03*
Y3268071D02*
D03*
Y3230669D02*
D03*
X6493634D02*
D03*
Y3305472D02*
D03*
X3428134Y3497402D02*
D03*
Y3422599D02*
D03*
X3319866D02*
D03*
Y3460000D02*
D03*
Y3497402D02*
D03*
D76*
X2175929Y3216000D02*
D03*
X2292071D02*
D03*
D77*
X8358000Y3407551D02*
D03*
Y3476449D02*
D03*
X6705000Y3137449D02*
D03*
Y3068551D02*
D03*
X6915000Y3303449D02*
D03*
Y3234551D02*
D03*
X8480000Y3405551D02*
D03*
Y3474449D02*
D03*
D78*
X5785772Y3001000D02*
D03*
X5632228D02*
D03*
X5785772Y3051000D02*
D03*
X5632228D02*
D03*
X5785772Y3101000D02*
D03*
X5632228D02*
D03*
X5785772Y3151000D02*
D03*
X5632228D02*
D03*
X5785772Y3201000D02*
D03*
X5632228D02*
D03*
D79*
X5785772Y2846228D02*
D03*
X5838921D02*
D03*
X4736575Y3557000D02*
D03*
X4683425D02*
D03*
X3157425Y3378000D02*
D03*
X3210575D02*
D03*
X6397000Y3555000D02*
D03*
X6450150D02*
D03*
X6454000Y3470000D02*
D03*
X6400850D02*
D03*
D80*
X2600874Y3319000D02*
D03*
D81*
X2835126Y3419000D02*
D03*
Y3369000D02*
D03*
Y3319000D02*
D03*
Y3269000D02*
D03*
Y3219000D02*
D03*
D82*
X5680591Y3292000D02*
D03*
X5629409D02*
D03*
X5682591Y2847000D02*
D03*
X5631409D02*
D03*
X3160410Y3521000D02*
D03*
X3211591D02*
D03*
X3206590Y3239000D02*
D03*
X3155409D02*
D03*
D83*
X8474000Y3173724D02*
D03*
Y3264276D02*
D03*
X8359000Y3190724D02*
D03*
Y3281276D02*
D03*
D84*
X2018370Y3795598D02*
D03*
Y3870401D02*
D03*
X1939630Y3833000D02*
D03*
X1978370Y3212598D02*
D03*
Y3287401D02*
D03*
X1899630Y3250000D02*
D03*
D85*
X1712000Y3241630D02*
D03*
Y3070370D02*
D03*
D86*
X2098551Y3060000D02*
D03*
X2167449D02*
D03*
X1913551Y3428000D02*
D03*
X1982449D02*
D03*
D87*
X2272276Y3437000D02*
D03*
X2181724D02*
D03*
D88*
X5527378Y3428362D02*
D03*
Y3448047D02*
D03*
Y3467732D02*
D03*
Y3487417D02*
D03*
Y3507102D02*
D03*
Y3526787D02*
D03*
Y3546472D02*
D03*
Y3566157D02*
D03*
Y3585843D02*
D03*
Y3605528D02*
D03*
Y3625213D02*
D03*
Y3644898D02*
D03*
Y3664583D02*
D03*
Y3684268D02*
D03*
Y3703953D02*
D03*
Y3723638D02*
D03*
X5074622D02*
D03*
Y3703953D02*
D03*
Y3684268D02*
D03*
Y3664583D02*
D03*
Y3644898D02*
D03*
Y3625213D02*
D03*
Y3605528D02*
D03*
Y3585843D02*
D03*
Y3566157D02*
D03*
Y3546472D02*
D03*
Y3526787D02*
D03*
Y3507102D02*
D03*
Y3487417D02*
D03*
Y3467732D02*
D03*
Y3448047D02*
D03*
Y3428362D02*
D03*
D89*
X5448638Y3802378D02*
D03*
X5428953D02*
D03*
X5409268D02*
D03*
X5389583D02*
D03*
X5369898D02*
D03*
X5350213D02*
D03*
X5330528D02*
D03*
X5310843D02*
D03*
X5291158D02*
D03*
X5271472D02*
D03*
X5251787D02*
D03*
X5232102D02*
D03*
X5212417D02*
D03*
X5192732D02*
D03*
X5173047D02*
D03*
X5153362D02*
D03*
Y3349622D02*
D03*
X5173047D02*
D03*
X5192732D02*
D03*
X5212417D02*
D03*
X5232102D02*
D03*
X5251787D02*
D03*
X5271472D02*
D03*
X5291158D02*
D03*
X5310843D02*
D03*
X5330528D02*
D03*
X5350213D02*
D03*
X5369898D02*
D03*
X5389583D02*
D03*
X5409268D02*
D03*
X5428953D02*
D03*
X5448638D02*
D03*
D90*
X2523717Y3902000D02*
D03*
Y3852000D02*
D03*
Y3802000D02*
D03*
Y3752000D02*
D03*
X2738284Y3902000D02*
D03*
Y3852000D02*
D03*
Y3802000D02*
D03*
Y3752000D02*
D03*
%TF.MD5,429032ed644603f2411c4681abe4c2e8*%
M02*
