%TF.GenerationSoftware,Altium Limited,Altium Designer,18.1.9 (240)*%
G04 Layer_Color=8388736*
%FSLAX26Y26*%
%MOIN*%
%TF.FileFunction,Soldermask,Top*%
%TF.Part,Single*%
G01*
G75*
%TA.AperFunction,SMDPad,CuDef*%
%ADD51R,0.088709X0.053276*%
%ADD52R,0.053276X0.088709*%
%TA.AperFunction,ViaPad*%
%ADD53R,0.068000X0.068000*%
%TA.AperFunction,ComponentPad*%
%ADD54C,0.111937*%
%ADD55C,0.093039*%
%ADD56R,0.111937X0.111937*%
%TA.AperFunction,ViaPad*%
%ADD57C,0.038000*%
%TA.AperFunction,SMDPad,CuDef*%
%ADD62R,0.090677X0.133984*%
%ADD63R,0.090677X0.031622*%
%ADD64R,0.041465X0.045402*%
%ADD65R,0.047370X0.043433*%
%ADD66R,0.045402X0.041465*%
%ADD67R,0.053276X0.061150*%
%ADD68R,0.043433X0.047370*%
%ADD69R,0.051307X0.059181*%
%ADD70R,0.043433X0.039496*%
%ADD71R,0.082803X0.043433*%
%ADD72R,0.061150X0.053276*%
%ADD73R,0.059181X0.051307*%
%ADD74O,0.072961X0.027685*%
%TA.AperFunction,ConnectorPad*%
%ADD75R,0.088000X0.053000*%
%TA.AperFunction,SMDPad,CuDef*%
%ADD76R,0.061150X0.065087*%
%ADD77R,0.047370X0.031622*%
%ADD78R,0.102488X0.037921*%
%ADD79R,0.061150X0.019811*%
%ADD80R,0.019811X0.061150*%
%ADD81O,0.065087X0.031622*%
%ADD82R,0.047370X0.078866*%
D51*
X7030000Y3301634D02*
D03*
X8834700Y2963408D02*
D03*
X8835000Y3023000D02*
D03*
X8100000Y2640000D02*
D03*
X7900000Y2470000D02*
D03*
X6651929Y2085000D02*
D03*
X7970000Y3715000D02*
D03*
X8009700Y3418408D02*
D03*
X1580000Y2405000D02*
D03*
D52*
X8905000Y2310000D02*
D03*
X8918031Y2135000D02*
D03*
D53*
X1505000Y4220000D02*
D03*
X1560000Y1680000D02*
D03*
X9230000Y1640000D02*
D03*
X9287426Y4190000D02*
D03*
D54*
X1395000Y2995945D02*
D03*
Y3355000D02*
D03*
X1570197D02*
D03*
D55*
X1482677Y2765472D02*
D03*
Y3585551D02*
D03*
D56*
X1570197Y2995945D02*
D03*
D57*
X5320000Y4611000D02*
D03*
X8640000Y3560000D02*
D03*
X9331451Y3700000D02*
D03*
Y3990000D02*
D03*
X8930000Y4223609D02*
D03*
X3315000Y4150000D02*
D03*
X6900000Y4005000D02*
D03*
X7855000Y3020870D02*
D03*
X7560000Y3408476D02*
D03*
X7610000Y3520000D02*
D03*
X9210000Y1335000D02*
D03*
X8350000Y1358024D02*
D03*
X7500000Y1351569D02*
D03*
X5780814Y1340000D02*
D03*
X4930000Y1364147D02*
D03*
X4100000Y1315000D02*
D03*
X3255000Y1390000D02*
D03*
X2385000Y1340000D02*
D03*
X1505000Y1365000D02*
D03*
X1568928Y4645000D02*
D03*
X2420000Y4653550D02*
D03*
X3300000Y4643431D02*
D03*
X4112638Y4625000D02*
D03*
X4975000Y4606462D02*
D03*
X9230000Y4620000D02*
D03*
X8355000Y4625000D02*
D03*
X7535000Y4606462D02*
D03*
X5840000Y4650000D02*
D03*
X6245000Y3254421D02*
D03*
X6061048Y3173032D02*
D03*
X7220000Y3401018D02*
D03*
X6936850Y3640000D02*
D03*
X7185000Y2535000D02*
D03*
X7540000Y3250000D02*
D03*
X6685000Y4715000D02*
D03*
X9335174Y1460000D02*
D03*
X8900000Y1415000D02*
D03*
X8855000Y1442025D02*
D03*
X1730000Y1605000D02*
D03*
X8815000Y1460000D02*
D03*
X8245769Y2515000D02*
D03*
X8710000Y3137196D02*
D03*
X5545000Y1450000D02*
D03*
X7305000Y1451976D02*
D03*
X8065000Y1442025D02*
D03*
X9030000Y1470000D02*
D03*
X9244256Y1875000D02*
D03*
X8700000Y3271508D02*
D03*
X7195000Y2780000D02*
D03*
X6865000Y3110000D02*
D03*
X7905000Y4583191D02*
D03*
X8140000Y2230000D02*
D03*
X4320000Y1515000D02*
D03*
X5160000Y2480000D02*
D03*
X5190000Y2435000D02*
D03*
X6505000Y2430000D02*
D03*
X8215000Y2915000D02*
D03*
X8255000Y2395000D02*
D03*
X9290000Y3060000D02*
D03*
X4150000Y4140000D02*
D03*
X4000000Y4415000D02*
D03*
X2185000Y4385000D02*
D03*
X2237000Y3165000D02*
D03*
X2895000Y4465000D02*
D03*
X5495000Y4400000D02*
D03*
X5400000Y4425000D02*
D03*
X5470000Y4505000D02*
D03*
X5425000Y4468431D02*
D03*
X6970000Y4805000D02*
D03*
X7045000Y4415000D02*
D03*
X7135000Y4470000D02*
D03*
X7860000Y4530000D02*
D03*
X8810000Y4385000D02*
D03*
X9225000Y4420000D02*
D03*
X8765000Y4465000D02*
D03*
X8645000Y2384000D02*
D03*
X8565000Y2340000D02*
D03*
X8600000Y2140000D02*
D03*
X8675000Y2305000D02*
D03*
X6545000Y2475000D02*
D03*
X5595000Y2720000D02*
D03*
X6695174Y2470000D02*
D03*
X9355000Y3173032D02*
D03*
X9287426Y3117426D02*
D03*
X3715000Y4465000D02*
D03*
X1940000Y4700000D02*
D03*
X2095000Y4510000D02*
D03*
X2035000Y4475000D02*
D03*
X3775000Y4560000D02*
D03*
X4656569Y4555000D02*
D03*
X4199370Y2120000D02*
D03*
X1980000Y2305000D02*
D03*
X3970000Y2065000D02*
D03*
X4430000Y2120000D02*
D03*
X7655000Y2985000D02*
D03*
X7560000Y2885000D02*
D03*
X6910000Y2955000D02*
D03*
X1904000Y3303732D02*
D03*
X1905000Y3215000D02*
D03*
X1160000Y1235000D02*
D03*
X2730000Y1100000D02*
D03*
X2845000D02*
D03*
X7830000Y1305000D02*
D03*
X6010000Y1515000D02*
D03*
X5465000D02*
D03*
X5340000Y1420000D02*
D03*
X5180000Y1510000D02*
D03*
X5265000Y1295000D02*
D03*
X8810000Y1730000D02*
D03*
X9410000Y1740000D02*
D03*
X6880000Y1515000D02*
D03*
X7605000Y1735000D02*
D03*
X9075000Y1740000D02*
D03*
X8935000Y1725000D02*
D03*
X6225000Y1702336D02*
D03*
X7910000Y1351569D02*
D03*
X2090000Y2665000D02*
D03*
X2365000D02*
D03*
X3630000Y2670000D02*
D03*
X4185000D02*
D03*
X4870000Y2655630D02*
D03*
X5020000Y2650000D02*
D03*
X5595000D02*
D03*
X6700000Y2430000D02*
D03*
X5020000Y2735000D02*
D03*
X4870000Y2730000D02*
D03*
X4175000D02*
D03*
X3635000D02*
D03*
X2365000Y2715000D02*
D03*
X2090000Y2720000D02*
D03*
X1820000Y2795000D02*
D03*
X6254874Y3506508D02*
D03*
X6170000Y3815000D02*
D03*
X6624874Y3506508D02*
D03*
X9445000Y2605000D02*
D03*
X8980000Y4495000D02*
D03*
X8650000Y3815000D02*
D03*
X8550000Y4535000D02*
D03*
X8870000Y3875000D02*
D03*
X5705000Y2890000D02*
D03*
X5025000Y2915000D02*
D03*
X3600000Y2920000D02*
D03*
X5364608Y2980000D02*
D03*
X5374874Y3271508D02*
D03*
X4925000Y2575000D02*
D03*
X3475000Y2460000D02*
D03*
X3070000Y1855000D02*
D03*
X4990000Y2515000D02*
D03*
X3610000D02*
D03*
X2840000Y1850000D02*
D03*
X2785000Y1700000D02*
D03*
X2930000Y1635000D02*
D03*
X9315000Y2325000D02*
D03*
X5825000Y2860000D02*
D03*
X5770000Y2990000D02*
D03*
X5784874Y3441508D02*
D03*
X5125000Y2400000D02*
D03*
X5110000Y2260000D02*
D03*
X6409874Y3426508D02*
D03*
X6540000Y3585000D02*
D03*
X6425000Y2260000D02*
D03*
X2745000Y4555000D02*
D03*
X7279874Y3126508D02*
D03*
X7400000Y3665000D02*
D03*
X7055000Y3835000D02*
D03*
X7190000Y3860000D02*
D03*
X7540000Y3840000D02*
D03*
X5055000Y2340000D02*
D03*
X6535000Y3635000D02*
D03*
Y3685000D02*
D03*
X6530000Y3735000D02*
D03*
X5689874Y3446508D02*
D03*
X5695174Y2996486D02*
D03*
X9480000Y4335000D02*
D03*
X9490000Y4460000D02*
D03*
X9070000Y4350000D02*
D03*
X8400000Y3470000D02*
D03*
X8125000Y3235000D02*
D03*
X7740000Y2640000D02*
D03*
X7875000Y2645000D02*
D03*
X7900000Y2410000D02*
D03*
X2735000Y4675000D02*
D03*
X2960000Y4528431D02*
D03*
X3545000Y4523000D02*
D03*
X5240000Y4135000D02*
D03*
X5364608Y4175000D02*
D03*
X6360000Y4575000D02*
D03*
X5145000Y4220000D02*
D03*
X5280000Y4770000D02*
D03*
X4795000Y4205000D02*
D03*
X4740079Y4535079D02*
D03*
X4210000Y3885000D02*
D03*
X2950000Y4590000D02*
D03*
X4165000Y3955000D02*
D03*
X4430000Y4690000D02*
D03*
X3570000Y4650000D02*
D03*
X3780000Y4640000D02*
D03*
X4685000Y4470000D02*
D03*
X4435000D02*
D03*
X6135000Y4530000D02*
D03*
X6295000Y4615000D02*
D03*
X7000000Y4700000D02*
D03*
X7176789Y4531642D02*
D03*
X8050000Y4535000D02*
D03*
X8065000Y4605000D02*
D03*
X8050000Y4475000D02*
D03*
X5240000Y4470000D02*
D03*
X3715000Y4285000D02*
D03*
X1905000Y4290000D02*
D03*
X3745000Y4225000D02*
D03*
X1905000Y4230000D02*
D03*
X4170000Y4035000D02*
D03*
X1885000Y4775000D02*
D03*
X6025000Y4220000D02*
D03*
X6225000Y4415000D02*
D03*
X8115000Y4325000D02*
D03*
X7265000D02*
D03*
X8660000Y4365000D02*
D03*
X8690000Y4765000D02*
D03*
X7705000Y4370000D02*
D03*
X7840000Y4790000D02*
D03*
X7205000Y4595000D02*
D03*
X6130000Y4775000D02*
D03*
X5475000Y4570000D02*
D03*
X1275000Y4505000D02*
D03*
X3795000Y4295000D02*
D03*
X2105000Y4600000D02*
D03*
X3930000Y4360000D02*
D03*
X2695000Y4345000D02*
D03*
X3875000Y4505000D02*
D03*
X1895000Y4465000D02*
D03*
X2745000Y4475000D02*
D03*
X6115000Y4470000D02*
D03*
X6315000Y4475000D02*
D03*
X6970000D02*
D03*
X7855000Y4480000D02*
D03*
X8855000Y4465000D02*
D03*
X3742000Y2404000D02*
D03*
X3996000Y2384000D02*
D03*
X2122000Y3371000D02*
D03*
X1935000Y3346000D02*
D03*
X4037000Y2033000D02*
D03*
X3825000Y2125000D02*
D03*
X4093000Y2075000D02*
D03*
X4000000Y1966252D02*
D03*
X3691000Y2248000D02*
D03*
X3808000Y2201000D02*
D03*
X6629000Y1706000D02*
D03*
X2270000Y2145000D02*
D03*
X1885000Y3090000D02*
D03*
X3790000Y1985000D02*
D03*
Y1920000D02*
D03*
X1845000Y2990000D02*
D03*
X1825000Y2885000D02*
D03*
X3655000Y1830000D02*
D03*
X3520000Y1745000D02*
D03*
X2135000Y2435000D02*
D03*
X2195000Y2305000D02*
D03*
X2200000Y2555000D02*
D03*
X2253284Y2430000D02*
D03*
X1355000Y1610000D02*
D03*
X1710000Y1470000D02*
D03*
X2200000Y1695000D02*
D03*
X2035000Y1200000D02*
D03*
X2575000Y1470000D02*
D03*
X3095000Y1705000D02*
D03*
X2900000Y1195000D02*
D03*
X3450000Y1470000D02*
D03*
X3755000Y1195000D02*
D03*
X4270000Y1470000D02*
D03*
X4610000Y1220000D02*
D03*
X5140000Y1470000D02*
D03*
X6929874Y3306508D02*
D03*
X6954874Y3058408D02*
D03*
X5485000Y1250000D02*
D03*
X5975000Y1470000D02*
D03*
X6335000Y1225000D02*
D03*
X6840000Y1470000D02*
D03*
X8565000Y1555000D02*
D03*
X8070000Y1705000D02*
D03*
X8030000Y1220000D02*
D03*
X8210000Y1555000D02*
D03*
X7679134Y1496569D02*
D03*
X7375000Y1700000D02*
D03*
X7170000Y1210000D02*
D03*
X9025000Y1955000D02*
D03*
X8205000Y1705000D02*
D03*
X1810000Y1505000D02*
D03*
X1990000Y1515000D02*
D03*
X2675000D02*
D03*
X2880000D02*
D03*
X8000000Y1485000D02*
D03*
X7230000Y1495000D02*
D03*
X6310000Y1510000D02*
D03*
X4590000Y1515000D02*
D03*
X3545000D02*
D03*
X3718432Y1510000D02*
D03*
X6215000Y1325000D02*
D03*
X6140000Y1285000D02*
D03*
X7740000Y1550000D02*
D03*
X3700000Y1585000D02*
D03*
X2740000Y1270000D02*
D03*
X2795000Y1335000D02*
D03*
X7065000Y1325000D02*
D03*
X6985000Y1295000D02*
D03*
X8685000D02*
D03*
X8780000Y1340000D02*
D03*
X8215000Y2465000D02*
D03*
D62*
X6530574Y3111900D02*
D03*
D63*
X6764826Y3211900D02*
D03*
Y3161900D02*
D03*
Y3111900D02*
D03*
Y3061900D02*
D03*
Y3011900D02*
D03*
D64*
X6625000Y3430000D02*
D03*
X6573819D02*
D03*
X6826181Y3440000D02*
D03*
X6775000D02*
D03*
X7195591Y3735000D02*
D03*
X7144409D02*
D03*
X7409409Y3750000D02*
D03*
X7460591D02*
D03*
D65*
X7120000Y3407953D02*
D03*
Y3354803D02*
D03*
X7363100Y3133875D02*
D03*
Y3080725D02*
D03*
X7115000Y2789525D02*
D03*
Y2842675D02*
D03*
X7860000Y3291575D02*
D03*
Y3238425D02*
D03*
X8845000Y2236575D02*
D03*
Y2183425D02*
D03*
X9155000Y1876575D02*
D03*
Y1823425D02*
D03*
X6150000Y3128425D02*
D03*
Y3181575D02*
D03*
X5985000Y3178032D02*
D03*
Y3124882D02*
D03*
X9250000Y3833150D02*
D03*
Y3780000D02*
D03*
X9425000Y3831575D02*
D03*
Y3778425D02*
D03*
X2675000Y3476575D02*
D03*
Y3423425D02*
D03*
X2965000Y3476575D02*
D03*
Y3423425D02*
D03*
D66*
X7369874Y3352295D02*
D03*
Y3403476D02*
D03*
X7120000Y3080197D02*
D03*
Y3131378D02*
D03*
X9379874Y2122098D02*
D03*
Y2070917D02*
D03*
X9440079Y2409410D02*
D03*
Y2460591D02*
D03*
X8765000Y2559410D02*
D03*
Y2610591D02*
D03*
X8745000Y2180590D02*
D03*
Y2129409D02*
D03*
X8750000Y2310000D02*
D03*
Y2258819D02*
D03*
X9464874Y1877098D02*
D03*
Y1825917D02*
D03*
X9315000Y1870591D02*
D03*
Y1819409D02*
D03*
X8985000Y1880591D02*
D03*
Y1829409D02*
D03*
X8810000Y1880591D02*
D03*
Y1829409D02*
D03*
X9020000Y3830591D02*
D03*
Y3779410D02*
D03*
X8810000Y3825591D02*
D03*
Y3774410D02*
D03*
D67*
X7764323Y3791508D02*
D03*
X7695425D02*
D03*
X7754323Y3411508D02*
D03*
X7685425D02*
D03*
X9260802Y3243408D02*
D03*
X9329700D02*
D03*
X9319149Y3358211D02*
D03*
X9250251D02*
D03*
X6324449Y2190905D02*
D03*
X6255551D02*
D03*
D68*
X7749874Y3621508D02*
D03*
X7696724D02*
D03*
X7693299Y3496508D02*
D03*
X7746449D02*
D03*
X9146275Y3153408D02*
D03*
X9093125D02*
D03*
X8008425Y2525000D02*
D03*
X8061575D02*
D03*
X8068300Y2327900D02*
D03*
X8015150D02*
D03*
D69*
X8989724Y3245000D02*
D03*
X9080276D02*
D03*
X8999424Y3353408D02*
D03*
X9089976D02*
D03*
D70*
X8990630Y2237402D02*
D03*
Y2162599D02*
D03*
X9069370Y2200000D02*
D03*
X6494370Y1963228D02*
D03*
Y2038031D02*
D03*
X6415630Y2000630D02*
D03*
D71*
X7159874Y2112768D02*
D03*
Y1941508D02*
D03*
D72*
X6950000Y2044449D02*
D03*
Y1975551D02*
D03*
D73*
X6060000Y2281457D02*
D03*
Y2190905D02*
D03*
D74*
X8634874Y2988279D02*
D03*
Y3014894D02*
D03*
Y3041508D02*
D03*
Y3068122D02*
D03*
Y3094736D02*
D03*
Y3121350D02*
D03*
Y3147965D02*
D03*
Y3174579D02*
D03*
Y3201193D02*
D03*
Y3227807D02*
D03*
Y3254421D02*
D03*
Y3281035D02*
D03*
Y3307649D02*
D03*
Y3334264D02*
D03*
X8349441Y2988279D02*
D03*
Y3014894D02*
D03*
Y3041508D02*
D03*
Y3068122D02*
D03*
Y3094736D02*
D03*
Y3121350D02*
D03*
Y3147965D02*
D03*
Y3174579D02*
D03*
Y3201193D02*
D03*
Y3227807D02*
D03*
Y3254421D02*
D03*
Y3281035D02*
D03*
Y3307649D02*
D03*
Y3334264D02*
D03*
D75*
X6895000Y4605000D02*
D03*
Y4705000D02*
D03*
Y4805000D02*
D03*
Y4905000D02*
D03*
X6439921Y4605000D02*
D03*
Y4705000D02*
D03*
Y4805000D02*
D03*
Y4905000D02*
D03*
X8590079Y1095000D02*
D03*
Y1195000D02*
D03*
Y1295000D02*
D03*
Y1395000D02*
D03*
X8135000Y1095000D02*
D03*
Y1195000D02*
D03*
Y1295000D02*
D03*
Y1395000D02*
D03*
X9440079Y1100000D02*
D03*
Y1200000D02*
D03*
Y1300000D02*
D03*
Y1400000D02*
D03*
X8985000Y1100000D02*
D03*
Y1200000D02*
D03*
Y1300000D02*
D03*
Y1400000D02*
D03*
X7733677Y1095000D02*
D03*
Y1195000D02*
D03*
Y1295000D02*
D03*
Y1395000D02*
D03*
X7278599Y1095000D02*
D03*
Y1195000D02*
D03*
Y1295000D02*
D03*
Y1395000D02*
D03*
X6875000Y1095000D02*
D03*
Y1195000D02*
D03*
Y1295000D02*
D03*
Y1395000D02*
D03*
X6419921Y1095000D02*
D03*
Y1195000D02*
D03*
Y1295000D02*
D03*
Y1395000D02*
D03*
X6020000Y1095000D02*
D03*
Y1195000D02*
D03*
Y1295000D02*
D03*
Y1395000D02*
D03*
X5564921Y1095000D02*
D03*
Y1195000D02*
D03*
Y1295000D02*
D03*
Y1395000D02*
D03*
X5165000Y1095000D02*
D03*
Y1195000D02*
D03*
Y1295000D02*
D03*
Y1395000D02*
D03*
X4709921Y1095000D02*
D03*
Y1195000D02*
D03*
Y1295000D02*
D03*
Y1395000D02*
D03*
X4310000Y1095000D02*
D03*
Y1195000D02*
D03*
Y1295000D02*
D03*
Y1395000D02*
D03*
X3854921Y1095000D02*
D03*
Y1195000D02*
D03*
Y1295000D02*
D03*
Y1395000D02*
D03*
X3450000Y1095000D02*
D03*
Y1195000D02*
D03*
Y1295000D02*
D03*
Y1395000D02*
D03*
X2994921Y1095000D02*
D03*
Y1195000D02*
D03*
Y1295000D02*
D03*
Y1395000D02*
D03*
X2591575Y1095000D02*
D03*
Y1195000D02*
D03*
Y1295000D02*
D03*
Y1395000D02*
D03*
X2136496Y1095000D02*
D03*
Y1195000D02*
D03*
Y1295000D02*
D03*
Y1395000D02*
D03*
X1740000Y1095000D02*
D03*
Y1195000D02*
D03*
Y1295000D02*
D03*
Y1395000D02*
D03*
X1284921Y1095000D02*
D03*
Y1195000D02*
D03*
Y1295000D02*
D03*
Y1395000D02*
D03*
X8139921Y4905000D02*
D03*
Y4805000D02*
D03*
Y4705000D02*
D03*
Y4605000D02*
D03*
X8595000Y4905000D02*
D03*
Y4805000D02*
D03*
Y4705000D02*
D03*
Y4605000D02*
D03*
X8989921Y4905000D02*
D03*
Y4805000D02*
D03*
Y4705000D02*
D03*
Y4605000D02*
D03*
X9445000Y4905000D02*
D03*
Y4805000D02*
D03*
Y4705000D02*
D03*
Y4605000D02*
D03*
X7289447Y4905000D02*
D03*
Y4805000D02*
D03*
Y4705000D02*
D03*
Y4605000D02*
D03*
X7744526Y4905000D02*
D03*
Y4805000D02*
D03*
Y4705000D02*
D03*
Y4605000D02*
D03*
X5589921Y4905000D02*
D03*
Y4805000D02*
D03*
Y4705000D02*
D03*
Y4605000D02*
D03*
X6045000Y4905000D02*
D03*
Y4805000D02*
D03*
Y4705000D02*
D03*
Y4605000D02*
D03*
X4739921Y4905000D02*
D03*
Y4805000D02*
D03*
Y4705000D02*
D03*
Y4605000D02*
D03*
X5195000Y4905000D02*
D03*
Y4805000D02*
D03*
Y4705000D02*
D03*
Y4605000D02*
D03*
X3889921Y4905000D02*
D03*
Y4805000D02*
D03*
Y4705000D02*
D03*
Y4605000D02*
D03*
X4345000Y4905000D02*
D03*
Y4805000D02*
D03*
Y4705000D02*
D03*
Y4605000D02*
D03*
X3039921Y4905000D02*
D03*
Y4805000D02*
D03*
Y4705000D02*
D03*
Y4605000D02*
D03*
X3495000Y4905000D02*
D03*
Y4805000D02*
D03*
Y4705000D02*
D03*
Y4605000D02*
D03*
X2189921Y4905000D02*
D03*
Y4805000D02*
D03*
Y4705000D02*
D03*
Y4605000D02*
D03*
X2645000Y4905000D02*
D03*
Y4805000D02*
D03*
Y4705000D02*
D03*
Y4605000D02*
D03*
X1334921Y4905000D02*
D03*
Y4805000D02*
D03*
Y4705000D02*
D03*
Y4605000D02*
D03*
X1790000Y4905000D02*
D03*
Y4805000D02*
D03*
Y4705000D02*
D03*
Y4605000D02*
D03*
D76*
X6768071Y2220630D02*
D03*
X6651929D02*
D03*
D77*
X7570866Y3082598D02*
D03*
Y3157401D02*
D03*
X7679134D02*
D03*
Y3120000D02*
D03*
Y3082598D02*
D03*
D78*
X6655000Y3790421D02*
D03*
X6808543D02*
D03*
X6655000Y3740421D02*
D03*
X6808543D02*
D03*
X6655000Y3690421D02*
D03*
X6808543D02*
D03*
X6655000Y3640421D02*
D03*
X6808543D02*
D03*
X6655000Y3590421D02*
D03*
X6808543D02*
D03*
D79*
X4191378Y3027362D02*
D03*
Y3047047D02*
D03*
Y3066732D02*
D03*
Y3086417D02*
D03*
Y3106102D02*
D03*
Y3125787D02*
D03*
Y3145472D02*
D03*
Y3165157D02*
D03*
Y3184843D02*
D03*
Y3204528D02*
D03*
Y3224213D02*
D03*
Y3243898D02*
D03*
Y3263583D02*
D03*
Y3283268D02*
D03*
Y3302953D02*
D03*
Y3322638D02*
D03*
X3738622D02*
D03*
Y3302953D02*
D03*
Y3283268D02*
D03*
Y3263583D02*
D03*
Y3243898D02*
D03*
Y3224213D02*
D03*
Y3204528D02*
D03*
Y3184843D02*
D03*
Y3165157D02*
D03*
Y3145472D02*
D03*
Y3125787D02*
D03*
Y3106102D02*
D03*
Y3086417D02*
D03*
Y3066732D02*
D03*
Y3047047D02*
D03*
Y3027362D02*
D03*
D80*
X4112638Y3401378D02*
D03*
X4092953D02*
D03*
X4073268D02*
D03*
X4053583D02*
D03*
X4033898D02*
D03*
X4014213D02*
D03*
X3994528D02*
D03*
X3974843D02*
D03*
X3955157D02*
D03*
X3935472D02*
D03*
X3915787D02*
D03*
X3896102D02*
D03*
X3876417D02*
D03*
X3856732D02*
D03*
X3837047D02*
D03*
X3817362D02*
D03*
Y2948622D02*
D03*
X3837047D02*
D03*
X3856732D02*
D03*
X3876417D02*
D03*
X3896102D02*
D03*
X3915787D02*
D03*
X3935472D02*
D03*
X3955157D02*
D03*
X3974843D02*
D03*
X3994528D02*
D03*
X4014213D02*
D03*
X4033898D02*
D03*
X4053583D02*
D03*
X4073268D02*
D03*
X4092953D02*
D03*
X4112638D02*
D03*
D81*
X8538983Y2410500D02*
D03*
Y2460500D02*
D03*
Y2510500D02*
D03*
Y2560500D02*
D03*
X8324416Y2410500D02*
D03*
Y2460500D02*
D03*
Y2510500D02*
D03*
Y2560500D02*
D03*
D82*
X1564882Y2220630D02*
D03*
X1675118D02*
D03*
%TF.MD5,4b9226d36cc2b036b91151fe6ec8e9f8*%
M02*
