%TF.GenerationSoftware,Altium Limited,Altium Designer,18.1.9 (240)*%
G04 Layer_Color=65535*
%FSLAX26Y26*%
%MOIN*%
%TF.FileFunction,Legend,Top*%
%TF.Part,Single*%
G01*
G75*
%TA.AperFunction,NonConductor*%
%ADD49C,0.003937*%
%ADD50C,0.005906*%
%ADD51C,0.007874*%
%ADD52C,0.010000*%
%ADD68C,0.009842*%
%ADD69C,0.023622*%
%ADD70C,0.019685*%
G36*
X7659392Y4062515D02*
X7660781Y4061126D01*
Y4059738D01*
Y4056960D01*
X7659392Y4050016D01*
Y4048627D01*
Y4043072D01*
X7658003Y4033350D01*
X7656614Y4020851D01*
Y4019462D01*
Y4018074D01*
X7655226Y4008352D01*
X7653837Y3995853D01*
X7651059Y3981965D01*
X7641338Y3904192D01*
X7569120D01*
X7546899Y3969466D01*
Y3970854D01*
X7545510Y3972243D01*
X7542733Y3979187D01*
X7538566Y3990298D01*
X7534400Y4001408D01*
Y4002797D01*
X7533011Y4004186D01*
X7531622Y4009741D01*
X7528845Y4018074D01*
X7526067Y4025018D01*
Y4026406D01*
X7524678Y4030573D01*
X7523290Y4033350D01*
Y4030573D01*
X7521901Y4025018D01*
Y4018074D01*
X7520512Y4005574D01*
X7519123Y3990298D01*
X7517734Y3980576D01*
X7516346Y3969466D01*
Y3966688D01*
X7514957Y3959744D01*
X7513568Y3950022D01*
X7512179Y3937523D01*
X7510790Y3926413D01*
X7509402Y3915302D01*
X7508013Y3908358D01*
X7506624Y3905581D01*
Y3904192D01*
Y3901414D01*
X7483014D01*
Y3904192D01*
Y3905581D01*
Y3908358D01*
X7484403Y3913914D01*
Y3923635D01*
X7487181Y3937523D01*
Y3945856D01*
X7488570Y3956966D01*
X7489958Y3968077D01*
X7491347Y3981965D01*
Y3983354D01*
Y3984742D01*
X7492736Y3988909D01*
Y3994464D01*
X7494125Y4006963D01*
X7496902Y4022240D01*
X7498291Y4036128D01*
X7499680Y4048627D01*
Y4054182D01*
X7501069Y4058349D01*
Y4059738D01*
Y4061126D01*
X7502458Y4063904D01*
X7576064D01*
X7580230Y4051405D01*
Y4050016D01*
X7581619Y4045850D01*
X7583008Y4040294D01*
Y4038906D01*
X7585786Y4034739D01*
X7587174Y4026406D01*
X7591341Y4016685D01*
X7592730Y4013907D01*
X7594118Y4006963D01*
X7598285Y3998630D01*
X7601062Y3988909D01*
X7602451Y3986131D01*
X7603840Y3979187D01*
X7608006Y3970854D01*
X7610784Y3961133D01*
X7612173Y3959744D01*
X7613562Y3954189D01*
X7614950Y3947245D01*
X7616339Y3940301D01*
Y3938912D01*
X7617728Y3937523D01*
X7619117Y3934746D01*
X7620506Y3933357D01*
Y3934746D01*
X7621894Y3936134D01*
Y3941690D01*
X7623283Y3948634D01*
X7624672Y3959744D01*
X7626061Y3976410D01*
X7627450Y3986131D01*
X7628838Y3997242D01*
Y3998630D01*
Y4000019D01*
X7630227Y4006963D01*
X7631616Y4018074D01*
X7633005Y4029184D01*
Y4041683D01*
X7634394Y4051405D01*
X7635782Y4059738D01*
Y4061126D01*
Y4062515D01*
X7637171Y4063904D01*
X7655226D01*
X7659392Y4062515D01*
D02*
G37*
G36*
X7846880Y4061126D02*
Y4059738D01*
X7845491Y4055571D01*
X7844102Y4048627D01*
X7842714Y4037517D01*
X7759386D01*
X7757997Y4034739D01*
X7755219Y4033350D01*
X7752442Y4029184D01*
Y4027795D01*
Y4026406D01*
Y4022240D01*
X7751053Y4016685D01*
X7749664Y4008352D01*
X7748275Y3997242D01*
X7746886Y3981965D01*
Y3980576D01*
X7745498Y3975021D01*
Y3968077D01*
X7744109Y3959744D01*
X7742720Y3951411D01*
Y3944467D01*
X7741331Y3938912D01*
Y3936134D01*
Y3934746D01*
X7742720Y3933357D01*
X7745498Y3930579D01*
X7746886Y3927802D01*
X7766330D01*
X7771885Y3929190D01*
X7774662Y3930579D01*
X7776051D01*
X7777440Y3931968D01*
X7780218Y3936134D01*
X7781606Y3937523D01*
X7782995Y3943078D01*
X7784384Y3948634D01*
Y3954189D01*
X7785773Y3962522D01*
Y3970854D01*
X7756608D01*
Y3973632D01*
Y3975021D01*
Y3979187D01*
X7757997Y3986131D01*
X7759386Y3997242D01*
X7839936D01*
X7845491Y3995853D01*
X7846880D01*
Y3993075D01*
X7845491Y3990298D01*
Y3984742D01*
X7844102Y3976410D01*
X7842714Y3965299D01*
X7839936Y3950022D01*
Y3948634D01*
X7838547Y3943078D01*
Y3936134D01*
X7837158Y3926413D01*
X7835770Y3918080D01*
Y3911136D01*
X7834381Y3905581D01*
Y3902803D01*
X7826048D01*
X7819104Y3901414D01*
X7739942D01*
X7728832Y3902803D01*
X7709389D01*
X7705222Y3904192D01*
X7702445Y3905581D01*
X7696890Y3908358D01*
X7691334Y3915302D01*
X7688557Y3919469D01*
X7687168Y3926413D01*
Y3927802D01*
Y3930579D01*
Y3936134D01*
Y3943078D01*
Y3952800D01*
X7688557Y3965299D01*
X7689946Y3981965D01*
Y3983354D01*
X7691334Y3988909D01*
X7692723Y3995853D01*
X7694112Y4004186D01*
Y4012518D01*
X7695501Y4020851D01*
X7696890Y4026406D01*
Y4029184D01*
Y4030573D01*
X7698278Y4031962D01*
X7701056Y4040294D01*
X7706611Y4048627D01*
X7714944Y4056960D01*
X7716333Y4058349D01*
X7719110Y4059738D01*
X7721888Y4061126D01*
X7727443D01*
X7730221Y4062515D01*
X7741331D01*
X7752442Y4063904D01*
X7846880D01*
Y4061126D01*
D02*
G37*
G36*
X7459405D02*
Y4059738D01*
Y4056960D01*
X7458016Y4051405D01*
X7456627Y4041683D01*
Y4036128D01*
X7455238Y4027795D01*
X7453850Y4018074D01*
X7452461Y4008352D01*
X7451072Y3995853D01*
X7449683Y3981965D01*
Y3980576D01*
Y3979187D01*
X7448294Y3969466D01*
X7446906Y3956966D01*
X7445517Y3943078D01*
X7444128Y3929190D01*
X7442739Y3915302D01*
X7441350Y3906970D01*
Y3904192D01*
Y3902803D01*
X7438573D01*
X7434406Y3901414D01*
X7383021D01*
Y3904192D01*
Y3905581D01*
X7384410Y3909747D01*
Y3915302D01*
X7385798Y3925024D01*
X7388576Y3938912D01*
X7389965Y3948634D01*
X7391354Y3958355D01*
X7392742Y3970854D01*
X7394131Y3984742D01*
X7403853Y4063904D01*
X7459405D01*
Y4061126D01*
D02*
G37*
G36*
X7362189D02*
Y4059738D01*
Y4054182D01*
Y4047238D01*
X7360800Y4037517D01*
X7306637D01*
X7301082Y4036128D01*
X7296915D01*
X7295526Y4034739D01*
X7294138Y4033350D01*
X7292749Y4031962D01*
X7291360Y4029184D01*
Y4026406D01*
X7289971Y4023629D01*
X7288582Y4018074D01*
Y4009741D01*
X7285805Y3997242D01*
X7284416Y3981965D01*
X7277472Y3936134D01*
X7280250Y3933357D01*
Y3931968D01*
X7281638Y3930579D01*
X7349690D01*
Y3927802D01*
Y3926413D01*
X7348301Y3922246D01*
X7346912Y3915302D01*
X7345523Y3901414D01*
X7269139D01*
X7259418Y3902803D01*
X7249696D01*
X7241363Y3904192D01*
X7237197Y3905581D01*
X7235808Y3906970D01*
X7231642Y3909747D01*
X7230253Y3911136D01*
X7227475Y3915302D01*
X7224698Y3922246D01*
X7221920Y3931968D01*
Y3933357D01*
Y3936134D01*
X7223309Y3940301D01*
Y3945856D01*
X7224698Y3954189D01*
X7226086Y3966688D01*
X7227475Y3980576D01*
Y3983354D01*
X7228864Y3988909D01*
Y3995853D01*
X7230253Y4005574D01*
X7231642Y4015296D01*
X7233030Y4023629D01*
X7234419Y4030573D01*
Y4034739D01*
Y4036128D01*
X7235808Y4038906D01*
X7241363Y4047238D01*
X7249696Y4056960D01*
X7256640Y4061126D01*
X7263584Y4063904D01*
X7362189D01*
Y4061126D01*
D02*
G37*
G36*
X7178867Y3994464D02*
X7180256Y3991686D01*
X7181645Y3984742D01*
X7185811Y3972243D01*
X7188589Y3958355D01*
Y3956966D01*
X7189978Y3955578D01*
X7191366Y3947245D01*
X7194144Y3937523D01*
X7196922Y3927802D01*
Y3926413D01*
X7198310Y3922246D01*
X7199699Y3918080D01*
Y3915302D01*
X7202477Y3901414D01*
X7142758D01*
X7137203Y3922246D01*
Y3923635D01*
X7135814Y3925024D01*
X7134426Y3933357D01*
X7133037Y3940301D01*
X7131648Y3941690D01*
Y3943078D01*
Y3944467D01*
X7066374D01*
X7055264Y3922246D01*
X7041376Y3901414D01*
X7014989D01*
X7016378Y3904192D01*
X7019155Y3911136D01*
X7021933Y3916691D01*
X7026099Y3922246D01*
X7030266Y3931968D01*
X7037210Y3941690D01*
X7044154Y3954189D01*
X7052486Y3969466D01*
X7062208Y3987520D01*
X7074707Y4008352D01*
X7088595Y4031962D01*
X7103872Y4059738D01*
X7105261Y4063904D01*
X7162202D01*
X7178867Y3994464D01*
D02*
G37*
G36*
X6921939Y4061126D02*
X6991379D01*
X6992768Y4059738D01*
X6996934Y4058349D01*
X7001101Y4054182D01*
X7003878Y4050016D01*
Y4048627D01*
X7005267Y4045850D01*
Y4043072D01*
Y4037517D01*
Y4031962D01*
Y4023629D01*
X7003878Y4012518D01*
Y4011130D01*
Y4008352D01*
X7002490Y3998630D01*
Y3988909D01*
X7001101Y3984742D01*
Y3981965D01*
X6999712Y3980576D01*
X6996934Y3977798D01*
X6989990Y3973632D01*
X6981658Y3970854D01*
X6977491D01*
Y3969466D01*
X6978880Y3966688D01*
X6980269Y3962522D01*
X6981658Y3955578D01*
X6984435Y3947245D01*
X6988602Y3936134D01*
Y3934746D01*
X6989990Y3930579D01*
X6992768Y3925024D01*
X6995546Y3919469D01*
X6996934Y3912525D01*
X6999712Y3906970D01*
X7001101Y3902803D01*
Y3901414D01*
X6938605D01*
X6937216Y3905581D01*
Y3906970D01*
X6935827Y3909747D01*
Y3911136D01*
X6934438Y3913914D01*
X6933050Y3918080D01*
X6931661Y3923635D01*
Y3925024D01*
X6930272Y3929190D01*
X6928883Y3934746D01*
Y3938912D01*
X6920550Y3970854D01*
X6903885D01*
X6902496Y3969466D01*
Y3968077D01*
Y3965299D01*
Y3961133D01*
X6901107Y3955578D01*
Y3947245D01*
X6899718Y3936134D01*
Y3934746D01*
X6898330Y3930579D01*
X6896941Y3925024D01*
X6895552Y3919469D01*
Y3918080D01*
Y3915302D01*
X6894163Y3905581D01*
Y3904192D01*
Y3902803D01*
Y3901414D01*
X6837222D01*
Y3904192D01*
Y3905581D01*
Y3908358D01*
X6838611Y3913914D01*
X6840000Y3923635D01*
X6841389Y3937523D01*
X6842778Y3945856D01*
X6844166Y3956966D01*
X6845555Y3968077D01*
X6846944Y3981965D01*
Y3983354D01*
Y3984742D01*
X6848333Y3994464D01*
X6849722Y4006963D01*
X6852499Y4020851D01*
X6853888Y4036128D01*
X6855277Y4048627D01*
X6856666Y4056960D01*
X6858054Y4059738D01*
Y4061126D01*
Y4063904D01*
X6921939Y4061126D01*
D02*
G37*
G36*
X6835834D02*
Y4059738D01*
Y4056960D01*
X6834445Y4050016D01*
X6833056Y4040294D01*
X6831667Y4026406D01*
X6830278Y4018074D01*
X6828890Y4006963D01*
X6827501Y3994464D01*
X6826112Y3980576D01*
X6816390Y3901414D01*
X5990054D01*
Y3904192D01*
Y3905581D01*
Y3909747D01*
X5991443Y3915302D01*
X5992832Y3925024D01*
X5994221Y3938912D01*
X5995610Y3947245D01*
X5996998Y3956966D01*
X5998387Y3969466D01*
X5999776Y3981965D01*
Y3983354D01*
Y3984742D01*
X6001165Y3988909D01*
Y3994464D01*
X6002554Y4006963D01*
X6005331Y4022240D01*
X6006720Y4036128D01*
X6008109Y4048627D01*
Y4054182D01*
X6009498Y4058349D01*
Y4059738D01*
Y4061126D01*
Y4063904D01*
X6837222D01*
X6835834Y4061126D01*
D02*
G37*
G36*
X6813613Y3883360D02*
Y3880582D01*
Y3879194D01*
X6812224Y3872250D01*
Y3870861D01*
Y3869472D01*
X6810835Y3861139D01*
X6808058Y3838918D01*
X6762227D01*
Y3836141D01*
Y3833363D01*
X6760838Y3829197D01*
Y3823642D01*
X6759450Y3815309D01*
Y3813920D01*
Y3812531D01*
X6758061Y3804198D01*
X6756672Y3795866D01*
Y3793088D01*
Y3791699D01*
X6709453D01*
Y3793088D01*
Y3795866D01*
X6710842Y3798643D01*
Y3802810D01*
Y3808365D01*
X6712230Y3815309D01*
Y3816698D01*
Y3818086D01*
X6713619Y3826419D01*
X6715008Y3834752D01*
Y3837530D01*
Y3838918D01*
X6670566D01*
X6666400Y3815309D01*
Y3813920D01*
Y3812531D01*
Y3804198D01*
X6665011Y3795866D01*
Y3793088D01*
Y3791699D01*
X6617792D01*
Y3793088D01*
Y3795866D01*
X6619181Y3798643D01*
Y3802810D01*
Y3808365D01*
X6620570Y3815309D01*
Y3816698D01*
Y3818086D01*
X6621958Y3826419D01*
X6623347Y3834752D01*
Y3837530D01*
Y3838918D01*
X6578906D01*
X6574739Y3815309D01*
Y3813920D01*
Y3812531D01*
Y3804198D01*
X6573350Y3797254D01*
Y3794477D01*
Y3793088D01*
Y3791699D01*
X6526131D01*
Y3793088D01*
Y3795866D01*
Y3798643D01*
X6527520Y3802810D01*
Y3808365D01*
X6528909Y3815309D01*
X6530298Y3825030D01*
X6531686Y3836141D01*
Y3838918D01*
X6487245D01*
Y3843085D01*
X6488634Y3845862D01*
Y3850029D01*
Y3855584D01*
X6490022Y3862528D01*
Y3863917D01*
Y3866694D01*
X6491411Y3873638D01*
X6492800Y3881971D01*
Y3883360D01*
Y3884749D01*
X6537242D01*
Y3883360D01*
Y3880582D01*
Y3877805D01*
Y3875027D01*
X6535853Y3869472D01*
Y3862528D01*
Y3861139D01*
Y3859750D01*
X6534464Y3851418D01*
X6533075Y3844474D01*
Y3841696D01*
X6531686Y3840307D01*
Y3838918D01*
X6578906D01*
X6580294Y3861139D01*
Y3862528D01*
Y3865306D01*
X6581683Y3872250D01*
X6583072Y3880582D01*
X6584461Y3881971D01*
Y3883360D01*
Y3884749D01*
X6628902D01*
Y3881971D01*
Y3879194D01*
Y3875027D01*
X6627514Y3868083D01*
X6626125Y3861139D01*
X6624736Y3851418D01*
X6623347Y3840307D01*
Y3838918D01*
X6669178D01*
X6670566Y3840307D01*
Y3841696D01*
Y3844474D01*
Y3851418D01*
X6671955Y3862528D01*
Y3863917D01*
Y3865306D01*
X6673344Y3873638D01*
X6674733Y3880582D01*
Y3883360D01*
Y3884749D01*
X6721952D01*
Y3881971D01*
X6720563Y3879194D01*
Y3875027D01*
X6719174Y3869472D01*
X6717786Y3862528D01*
Y3861139D01*
Y3859750D01*
X6716397Y3851418D01*
X6715008Y3843085D01*
Y3840307D01*
Y3838918D01*
X6760838D01*
X6762227Y3840307D01*
Y3843085D01*
X6763616Y3845862D01*
Y3850029D01*
Y3855584D01*
X6765005Y3862528D01*
X6767782Y3884749D01*
X6813613D01*
Y3883360D01*
D02*
G37*
G36*
X6260870D02*
X6262259D01*
Y3880582D01*
Y3877805D01*
X6260870Y3873638D01*
Y3868083D01*
X6259482Y3861139D01*
Y3859750D01*
Y3858362D01*
X6258093Y3850029D01*
X6256704Y3843085D01*
Y3840307D01*
Y3838918D01*
X6302534D01*
Y3836141D01*
Y3833363D01*
Y3830586D01*
X6301146Y3826419D01*
Y3820864D01*
X6299757Y3813920D01*
X6296979Y3791699D01*
X6251149D01*
Y3793088D01*
Y3794477D01*
X6252538Y3798643D01*
Y3804198D01*
X6253926Y3811142D01*
X6255315Y3826419D01*
X6256704Y3833363D01*
Y3838918D01*
X6215040D01*
X6212262Y3837530D01*
X6210874D01*
Y3834752D01*
Y3830586D01*
X6209485Y3826419D01*
Y3820864D01*
X6208096Y3813920D01*
Y3812531D01*
Y3811142D01*
X6206707Y3802810D01*
X6205318Y3795866D01*
Y3793088D01*
Y3791699D01*
X6159488D01*
Y3795866D01*
X6160877Y3798643D01*
Y3802810D01*
Y3808365D01*
X6162266Y3815309D01*
Y3816698D01*
Y3819475D01*
X6163654Y3827808D01*
X6165043Y3834752D01*
Y3837530D01*
Y3838918D01*
X6119213D01*
Y3843085D01*
X6120602Y3845862D01*
Y3850029D01*
Y3855584D01*
X6121990Y3862528D01*
Y3863917D01*
Y3866694D01*
X6123379Y3873638D01*
X6124768Y3881971D01*
Y3883360D01*
Y3884749D01*
X6171987D01*
X6170598Y3883360D01*
Y3880582D01*
Y3877805D01*
X6169210Y3873638D01*
Y3868083D01*
X6167821Y3861139D01*
X6166432Y3838918D01*
X6188653Y3840307D01*
X6210874D01*
X6213651Y3862528D01*
Y3863917D01*
Y3866694D01*
X6215040Y3873638D01*
X6216429Y3881971D01*
Y3883360D01*
Y3884749D01*
X6258093D01*
X6260870Y3883360D01*
D02*
G37*
G36*
X7785773D02*
X7831603D01*
Y3881971D01*
Y3879194D01*
Y3872250D01*
X7830214Y3863917D01*
X7828826Y3851418D01*
X7827437Y3836141D01*
X7824659Y3816698D01*
X7820493Y3793088D01*
Y3791699D01*
X6824723D01*
Y3793088D01*
Y3794477D01*
Y3797254D01*
Y3802810D01*
X6826112Y3811142D01*
X6827501Y3823642D01*
X6828890Y3838918D01*
X6831667Y3859750D01*
X6835834Y3883360D01*
Y3884749D01*
X7770496D01*
X7785773Y3883360D01*
D02*
G37*
G36*
X6445581D02*
Y3881971D01*
X6444192Y3877805D01*
Y3873638D01*
X6442803Y3866694D01*
X6441414Y3852806D01*
X6440026Y3845862D01*
Y3840307D01*
X6442803D01*
X6445581Y3838918D01*
X6487245D01*
Y3837530D01*
Y3834752D01*
X6485856Y3827808D01*
X6484467Y3822253D01*
X6483078Y3815309D01*
Y3813920D01*
Y3812531D01*
Y3805587D01*
X6481690Y3798643D01*
Y3793088D01*
Y3791699D01*
X6434470D01*
Y3795866D01*
X6435859Y3798643D01*
Y3802810D01*
Y3808365D01*
X6437248Y3815309D01*
Y3816698D01*
Y3819475D01*
X6438637Y3827808D01*
X6440026Y3834752D01*
Y3837530D01*
Y3838918D01*
X6395584D01*
Y3840307D01*
Y3841696D01*
X6396973Y3845862D01*
Y3851418D01*
X6398362Y3858362D01*
X6399750Y3873638D01*
X6401139Y3879194D01*
Y3884749D01*
X6445581D01*
Y3883360D01*
D02*
G37*
G36*
X6353920D02*
Y3881971D01*
X6352531Y3877805D01*
Y3870861D01*
X6351142Y3863917D01*
X6349754Y3855584D01*
Y3848640D01*
X6348365Y3843085D01*
Y3840307D01*
X6351142D01*
X6353920Y3838918D01*
X6395584D01*
Y3837530D01*
Y3834752D01*
X6394195Y3831974D01*
Y3827808D01*
X6392806Y3820864D01*
X6391418Y3813920D01*
X6390029Y3791699D01*
X6342810D01*
Y3794477D01*
X6344198Y3797254D01*
Y3801421D01*
Y3806976D01*
X6345587Y3813920D01*
Y3815309D01*
Y3818086D01*
X6346976Y3825030D01*
X6348365Y3833363D01*
Y3836141D01*
Y3837530D01*
X6345587Y3838918D01*
X6302534D01*
Y3840307D01*
Y3843085D01*
X6303923Y3845862D01*
Y3850029D01*
Y3855584D01*
X6305312Y3862528D01*
X6309478Y3884749D01*
X6353920D01*
Y3883360D01*
D02*
G37*
G36*
X6077549D02*
Y3881971D01*
Y3877805D01*
X6076160Y3872250D01*
Y3866694D01*
X6074771Y3851418D01*
Y3845862D01*
Y3840307D01*
X6077549D01*
X6080326Y3838918D01*
X6119213D01*
Y3836141D01*
X6117824Y3833363D01*
Y3829197D01*
X6116435Y3823642D01*
X6115046Y3815309D01*
X6113658Y3791699D01*
X6066438D01*
Y3794477D01*
X6067827Y3797254D01*
Y3801421D01*
Y3806976D01*
X6069216Y3813920D01*
Y3815309D01*
Y3818086D01*
X6070605Y3825030D01*
X6071994Y3833363D01*
Y3836141D01*
Y3837530D01*
X6069216Y3838918D01*
X6027552D01*
Y3840307D01*
Y3843085D01*
Y3845862D01*
Y3850029D01*
X6028941Y3855584D01*
Y3862528D01*
X6033107Y3884749D01*
X6080326D01*
X6077549Y3883360D01*
D02*
G37*
G36*
X6027552Y3836141D02*
X6026163Y3830586D01*
X6024774Y3822253D01*
X6023386Y3813920D01*
X6021997Y3791699D01*
X5974778D01*
Y3794477D01*
X5976166Y3797254D01*
Y3798643D01*
X5977555Y3800032D01*
Y3806976D01*
Y3808365D01*
X5978944Y3811142D01*
Y3818086D01*
X5980333Y3838918D01*
X6027552D01*
Y3836141D01*
D02*
G37*
G36*
X7559398Y3759757D02*
X7635782D01*
X7634394Y3758368D01*
X7631616Y3756979D01*
X7626061Y3755590D01*
X7619117Y3751424D01*
X7609395Y3747258D01*
X7596896Y3740314D01*
X7558010Y3722259D01*
X6765005Y3740314D01*
X6745562D01*
X6730285Y3741702D01*
X6691398D01*
X6667789Y3743091D01*
X6641402D01*
X6612237Y3744480D01*
X6581683D01*
X6548352Y3745869D01*
X6513632D01*
X6442803Y3748646D01*
X6369197Y3750035D01*
X6294202Y3751424D01*
X6223373Y3754202D01*
X6188653D01*
X6155322Y3755590D01*
X6124768D01*
X6095603Y3756979D01*
X6069216D01*
X6045606Y3758368D01*
X6006720D01*
X5991443Y3759757D01*
X6058106D01*
X6076160Y3761146D01*
X7534400D01*
X7559398Y3759757D01*
D02*
G37*
G36*
X7724666D02*
X7726054D01*
X7723277Y3758368D01*
X7720499Y3756979D01*
X7716333Y3755590D01*
X7708000Y3751424D01*
X7698278Y3747258D01*
X7684390Y3740314D01*
X7644115Y3719482D01*
X7619117D01*
X7612173Y3720870D01*
X7603840Y3722259D01*
X7601062D01*
X7602451Y3723648D01*
X7605229Y3725037D01*
X7612173Y3727814D01*
X7613562Y3729203D01*
X7620506Y3731981D01*
X7628838Y3736147D01*
X7639949Y3740314D01*
X7681613Y3761146D01*
X7723277D01*
X7724666Y3759757D01*
D02*
G37*
G36*
X7814938D02*
X7816326D01*
X7813549Y3758368D01*
X7810771Y3756979D01*
X7805216Y3754202D01*
X7798272Y3751424D01*
X7787162Y3745869D01*
X7773274Y3738925D01*
X7727443Y3718093D01*
X7708000D01*
X7701056Y3719482D01*
X7687168D01*
X7689946Y3720870D01*
X7692723Y3722259D01*
X7696890Y3725037D01*
X7703834Y3727814D01*
X7713555Y3733370D01*
X7727443Y3740314D01*
X7771885Y3761146D01*
X7813549D01*
X7814938Y3759757D01*
D02*
G37*
G36*
X8529076Y3157834D02*
Y3157779D01*
X8529021Y3157668D01*
X8528909Y3157446D01*
X8528854Y3157169D01*
X8528688Y3156836D01*
X8528521Y3156392D01*
X8528188Y3155503D01*
X8527799Y3154505D01*
X8527355Y3153506D01*
X8526912Y3152562D01*
X8526523Y3151785D01*
X8526578D01*
X8526745D01*
X8526967Y3151840D01*
X8527300D01*
X8527689Y3151896D01*
X8528132Y3151952D01*
X8529131Y3152007D01*
X8530186Y3152118D01*
X8531296Y3152229D01*
X8532239Y3152285D01*
X8532683D01*
X8533072D01*
Y3148510D01*
X8533016D01*
X8532961D01*
X8532794D01*
X8532628D01*
X8532017Y3148566D01*
X8531296Y3148622D01*
X8530353Y3148733D01*
X8529187Y3148788D01*
X8527910Y3148954D01*
X8526523Y3149121D01*
Y3149066D01*
X8526578Y3149010D01*
X8526634Y3148843D01*
X8526745Y3148622D01*
X8527022Y3148066D01*
X8527355Y3147345D01*
X8527744Y3146457D01*
X8528188Y3145403D01*
X8528632Y3144237D01*
X8529076Y3142961D01*
X8525358Y3141740D01*
Y3141795D01*
X8525302Y3141906D01*
X8525246Y3142073D01*
X8525191Y3142294D01*
X8525080Y3142628D01*
X8524969Y3142961D01*
X8524747Y3143793D01*
X8524525Y3144792D01*
X8524247Y3145902D01*
X8524025Y3147068D01*
X8523859Y3148289D01*
X8523803Y3148233D01*
X8523582Y3148011D01*
X8523248Y3147622D01*
X8522749Y3147123D01*
X8522028Y3146457D01*
X8521195Y3145735D01*
X8520140Y3144792D01*
X8518919Y3143793D01*
X8516755Y3146901D01*
X8516866Y3146956D01*
X8517144Y3147178D01*
X8517587Y3147512D01*
X8518198Y3147956D01*
X8519031Y3148455D01*
X8519974Y3149066D01*
X8521084Y3149787D01*
X8522305Y3150508D01*
X8522249D01*
X8522138Y3150564D01*
X8521972Y3150675D01*
X8521694Y3150841D01*
X8521029Y3151175D01*
X8520252Y3151619D01*
X8519363Y3152173D01*
X8518420Y3152729D01*
X8517532Y3153339D01*
X8516755Y3153894D01*
X8518919Y3156947D01*
X8518975Y3156891D01*
X8519086Y3156836D01*
X8519253Y3156669D01*
X8519530Y3156447D01*
X8520196Y3155948D01*
X8520973Y3155282D01*
X8521806Y3154560D01*
X8522583Y3153838D01*
X8523304Y3153173D01*
X8523637Y3152895D01*
X8523859Y3152617D01*
Y3152673D01*
X8523915Y3152784D01*
Y3152950D01*
X8523970Y3153173D01*
X8524025Y3153506D01*
X8524137Y3153838D01*
X8524303Y3154671D01*
X8524525Y3155670D01*
X8524747Y3156724D01*
X8525358Y3159000D01*
X8529076Y3157834D01*
D02*
G37*
G36*
X8414076Y3174834D02*
Y3174779D01*
X8414021Y3174668D01*
X8413909Y3174446D01*
X8413854Y3174169D01*
X8413688Y3173836D01*
X8413521Y3173392D01*
X8413188Y3172503D01*
X8412799Y3171505D01*
X8412355Y3170506D01*
X8411912Y3169562D01*
X8411523Y3168785D01*
X8411578D01*
X8411745D01*
X8411967Y3168840D01*
X8412300D01*
X8412689Y3168896D01*
X8413132Y3168952D01*
X8414131Y3169007D01*
X8415186Y3169118D01*
X8416296Y3169229D01*
X8417239Y3169285D01*
X8417683D01*
X8418072D01*
Y3165510D01*
X8418016D01*
X8417961D01*
X8417794D01*
X8417628D01*
X8417017Y3165566D01*
X8416296Y3165622D01*
X8415353Y3165733D01*
X8414187Y3165788D01*
X8412910Y3165954D01*
X8411523Y3166121D01*
Y3166066D01*
X8411578Y3166010D01*
X8411634Y3165843D01*
X8411745Y3165622D01*
X8412022Y3165066D01*
X8412355Y3164345D01*
X8412744Y3163457D01*
X8413188Y3162403D01*
X8413632Y3161237D01*
X8414076Y3159961D01*
X8410358Y3158740D01*
Y3158795D01*
X8410302Y3158906D01*
X8410246Y3159073D01*
X8410191Y3159294D01*
X8410080Y3159628D01*
X8409969Y3159961D01*
X8409747Y3160793D01*
X8409525Y3161792D01*
X8409247Y3162902D01*
X8409025Y3164068D01*
X8408859Y3165289D01*
X8408803Y3165233D01*
X8408582Y3165011D01*
X8408248Y3164622D01*
X8407749Y3164123D01*
X8407028Y3163457D01*
X8406195Y3162735D01*
X8405140Y3161792D01*
X8403919Y3160793D01*
X8401755Y3163901D01*
X8401866Y3163956D01*
X8402144Y3164178D01*
X8402587Y3164512D01*
X8403198Y3164956D01*
X8404031Y3165455D01*
X8404974Y3166066D01*
X8406084Y3166787D01*
X8407305Y3167508D01*
X8407249D01*
X8407138Y3167564D01*
X8406972Y3167675D01*
X8406694Y3167841D01*
X8406029Y3168175D01*
X8405252Y3168619D01*
X8404363Y3169173D01*
X8403420Y3169729D01*
X8402532Y3170339D01*
X8401755Y3170894D01*
X8403919Y3173947D01*
X8403975Y3173891D01*
X8404086Y3173836D01*
X8404253Y3173669D01*
X8404530Y3173447D01*
X8405196Y3172948D01*
X8405973Y3172282D01*
X8406806Y3171560D01*
X8407583Y3170838D01*
X8408304Y3170173D01*
X8408637Y3169895D01*
X8408859Y3169617D01*
Y3169673D01*
X8408915Y3169784D01*
Y3169950D01*
X8408970Y3170173D01*
X8409025Y3170506D01*
X8409137Y3170838D01*
X8409303Y3171671D01*
X8409525Y3172670D01*
X8409747Y3173724D01*
X8410358Y3176000D01*
X8414076Y3174834D01*
D02*
G37*
G36*
X2297490Y3496017D02*
Y3495961D01*
Y3495794D01*
Y3495628D01*
X2297434Y3495017D01*
X2297378Y3494296D01*
X2297267Y3493352D01*
X2297212Y3492187D01*
X2297046Y3490910D01*
X2296879Y3489523D01*
X2296934D01*
X2296990Y3489579D01*
X2297157Y3489634D01*
X2297378Y3489745D01*
X2297934Y3490023D01*
X2298655Y3490356D01*
X2299543Y3490744D01*
X2300597Y3491188D01*
X2301763Y3491632D01*
X2303039Y3492076D01*
X2304260Y3488358D01*
X2304205D01*
X2304094Y3488302D01*
X2303927Y3488247D01*
X2303706Y3488191D01*
X2303372Y3488080D01*
X2303039Y3487969D01*
X2302207Y3487747D01*
X2301208Y3487525D01*
X2300098Y3487247D01*
X2298932Y3487026D01*
X2297711Y3486859D01*
X2297767Y3486803D01*
X2297989Y3486581D01*
X2298378Y3486249D01*
X2298877Y3485749D01*
X2299543Y3485028D01*
X2300265Y3484195D01*
X2301208Y3483140D01*
X2302207Y3481919D01*
X2299099Y3479755D01*
X2299044Y3479866D01*
X2298822Y3480144D01*
X2298488Y3480588D01*
X2298044Y3481198D01*
X2297545Y3482030D01*
X2296934Y3482974D01*
X2296213Y3484084D01*
X2295492Y3485305D01*
Y3485249D01*
X2295436Y3485139D01*
X2295325Y3484972D01*
X2295159Y3484695D01*
X2294825Y3484028D01*
X2294381Y3483251D01*
X2293827Y3482363D01*
X2293271Y3481420D01*
X2292661Y3480532D01*
X2292106Y3479755D01*
X2289053Y3481919D01*
X2289109Y3481975D01*
X2289164Y3482086D01*
X2289331Y3482253D01*
X2289553Y3482530D01*
X2290052Y3483196D01*
X2290718Y3483973D01*
X2291440Y3484805D01*
X2292162Y3485582D01*
X2292827Y3486304D01*
X2293105Y3486637D01*
X2293383Y3486859D01*
X2293327D01*
X2293216Y3486914D01*
X2293050D01*
X2292827Y3486970D01*
X2292494Y3487026D01*
X2292162Y3487137D01*
X2291329Y3487303D01*
X2290330Y3487525D01*
X2289276Y3487747D01*
X2287000Y3488358D01*
X2288166Y3492076D01*
X2288221D01*
X2288332Y3492021D01*
X2288554Y3491910D01*
X2288831Y3491854D01*
X2289164Y3491688D01*
X2289608Y3491521D01*
X2290497Y3491188D01*
X2291495Y3490800D01*
X2292494Y3490356D01*
X2293438Y3489912D01*
X2294215Y3489523D01*
Y3489579D01*
Y3489745D01*
X2294160Y3489967D01*
Y3490300D01*
X2294104Y3490689D01*
X2294048Y3491133D01*
X2293993Y3492131D01*
X2293882Y3493186D01*
X2293771Y3494296D01*
X2293715Y3495240D01*
Y3495684D01*
Y3496072D01*
X2297490D01*
Y3496017D01*
D02*
G37*
%LPC*%
G36*
X7110816Y4026406D02*
X7109427Y4025018D01*
X7108038Y4020851D01*
X7103872Y4012518D01*
X7102483Y4009741D01*
X7099706Y4004186D01*
X7095539Y3995853D01*
X7089984Y3984742D01*
X7088595Y3981965D01*
X7087206Y3977798D01*
X7084429Y3973632D01*
X7083040Y3970854D01*
X7103872D01*
X7124704Y3973632D01*
X7123315Y3976410D01*
Y3977798D01*
X7121926Y3979187D01*
X7120538Y3987520D01*
Y3988909D01*
Y3991686D01*
X7119149Y4000019D01*
Y4001408D01*
X7117760Y4004186D01*
X7114982Y4013907D01*
X7112205Y4022240D01*
X7110816Y4025018D01*
Y4026406D01*
D02*
G37*
G36*
X6948326Y4034739D02*
X6910829D01*
X6909440Y4018074D01*
Y4016685D01*
Y4015296D01*
X6908051Y4008352D01*
X6906662Y4002797D01*
Y4000019D01*
Y3998630D01*
X6909440D01*
X6914995Y3997242D01*
X6934438D01*
X6939994Y3998630D01*
X6942771D01*
X6944160Y4000019D01*
X6945549Y4002797D01*
X6948326Y4008352D01*
Y4012518D01*
X6949715Y4018074D01*
Y4019462D01*
Y4020851D01*
X6951104Y4026406D01*
X6949715Y4031962D01*
X6948326Y4034739D01*
D02*
G37*
G36*
X6808058Y4031962D02*
X6788614D01*
X6773338Y4008352D01*
Y4006963D01*
X6770560Y4005574D01*
X6766394Y3998630D01*
X6762227Y3991686D01*
X6759450Y3990298D01*
Y3988909D01*
X6758061Y3991686D01*
X6755283Y3997242D01*
X6752506Y4001408D01*
X6749728Y4008352D01*
X6738618Y4031962D01*
X6696954D01*
Y4029184D01*
X6698342Y4027795D01*
Y4025018D01*
X6701120Y4020851D01*
X6703898Y4015296D01*
X6706675Y4006963D01*
X6712230Y3997242D01*
X6727507Y3968077D01*
X6723341Y3947245D01*
Y3945856D01*
Y3944467D01*
Y3937523D01*
X6721952Y3930579D01*
Y3929190D01*
Y3927802D01*
X6756672D01*
X6759450Y3947245D01*
X6762227Y3965299D01*
X6783059Y3995853D01*
X6784448Y3997242D01*
X6785837Y4000019D01*
X6792781Y4009741D01*
X6794170Y4011130D01*
X6795558Y4013907D01*
X6798336Y4018074D01*
X6801114Y4022240D01*
Y4023629D01*
X6802502Y4025018D01*
X6803891Y4026406D01*
X6805280Y4027795D01*
X6808058Y4031962D01*
D02*
G37*
G36*
X6784448Y3947245D02*
X6777504D01*
X6776115Y3945856D01*
X6774726Y3944467D01*
X6771949Y3940301D01*
X6770560Y3936134D01*
Y3934746D01*
X6771949Y3933357D01*
X6773338Y3930579D01*
X6776115Y3927802D01*
X6780282D01*
X6784448Y3930579D01*
X6788614Y3936134D01*
Y3937523D01*
X6790003Y3940301D01*
X6788614Y3944467D01*
X6784448Y3947245D01*
D02*
G37*
G36*
X6660845Y4031962D02*
X6626125D01*
X6624736Y4030573D01*
X6623347D01*
Y4029184D01*
Y4027795D01*
Y4023629D01*
X6621958Y4016685D01*
X6620570Y4008352D01*
X6619181Y3994464D01*
X6617792Y3977798D01*
Y3975021D01*
X6616403Y3969466D01*
Y3962522D01*
X6615014Y3952800D01*
X6613626Y3943078D01*
Y3936134D01*
X6612237Y3930579D01*
Y3927802D01*
X6691398D01*
Y3933357D01*
Y3934746D01*
X6692787Y3937523D01*
Y3941690D01*
Y3943078D01*
Y3944467D01*
X6649734D01*
Y3945856D01*
Y3948634D01*
Y3954189D01*
X6651123Y3962522D01*
X6652512Y3973632D01*
X6653901Y3988909D01*
X6656678Y4006963D01*
X6660845Y4029184D01*
Y4031962D01*
D02*
G37*
G36*
X6590016D02*
X6534464D01*
X6527520Y4030573D01*
X6520576D01*
X6516410Y4029184D01*
X6513632Y4027795D01*
X6512243Y4026406D01*
X6508077Y4025018D01*
X6505299Y4019462D01*
X6502522Y4012518D01*
Y4011130D01*
X6501133Y4008352D01*
X6499744Y4001408D01*
X6498355Y3994464D01*
X6496966Y3984742D01*
X6495578Y3973632D01*
X6494189Y3948634D01*
Y3947245D01*
Y3943078D01*
Y3941690D01*
X6496966Y3937523D01*
X6499744Y3933357D01*
X6503910Y3930579D01*
X6505299D01*
X6508077Y3929190D01*
X6515021D01*
X6521965Y3927802D01*
X6559462D01*
X6571962Y3929190D01*
X6577517D01*
X6580294Y3930579D01*
X6581683Y3931968D01*
X6585850Y3934746D01*
X6591405Y3941690D01*
X6595571Y3951411D01*
Y3952800D01*
Y3955578D01*
X6596960Y3959744D01*
Y3963910D01*
X6598349Y3970854D01*
X6599738Y3979187D01*
Y3980576D01*
Y3984742D01*
X6601126Y3990298D01*
Y3997242D01*
Y4012518D01*
Y4018074D01*
X6599738Y4022240D01*
Y4023629D01*
X6598349Y4025018D01*
X6595571Y4027795D01*
X6591405Y4029184D01*
X6590016Y4031962D01*
D02*
G37*
G36*
X6453914D02*
X6396973D01*
X6391418Y4030573D01*
X6390029D01*
Y4029184D01*
Y4027795D01*
X6388640Y4023629D01*
Y4016685D01*
X6387251Y4008352D01*
X6385862Y3994464D01*
X6383085Y3977798D01*
Y3975021D01*
X6381696Y3969466D01*
X6380307Y3962522D01*
Y3952800D01*
X6378918Y3943078D01*
X6377530Y3936134D01*
X6376141Y3930579D01*
Y3927802D01*
X6412250D01*
Y3930579D01*
Y3933357D01*
Y3938912D01*
X6413638Y3947245D01*
Y3948634D01*
Y3950022D01*
X6415027Y3955578D01*
Y3962522D01*
Y3963910D01*
Y3965299D01*
X6465024D01*
X6466413Y3966688D01*
X6470579Y3969466D01*
X6476134Y3973632D01*
X6478912Y3980576D01*
X6480301Y3984742D01*
X6481690Y3987520D01*
Y3991686D01*
X6483078Y3998630D01*
Y4006963D01*
Y4008352D01*
Y4012518D01*
Y4018074D01*
Y4022240D01*
X6481690Y4023629D01*
X6480301Y4025018D01*
X6476134Y4027795D01*
X6471968Y4029184D01*
X6470579D01*
X6469190Y4030573D01*
X6460858D01*
X6453914Y4031962D01*
D02*
G37*
G36*
X6288646D02*
X6252538D01*
X6245594Y3980576D01*
Y3977798D01*
X6244205Y3972243D01*
Y3965299D01*
X6242816Y3955578D01*
X6241427Y3945856D01*
Y3937523D01*
X6240038Y3930579D01*
Y3927802D01*
X6317811D01*
X6320589Y3933357D01*
Y3934746D01*
Y3938912D01*
Y3940301D01*
Y3941690D01*
Y3943078D01*
Y3944467D01*
X6277536D01*
Y3945856D01*
Y3948634D01*
Y3954189D01*
X6278925Y3962522D01*
X6280314Y3975021D01*
X6281702Y3988909D01*
X6284480Y4006963D01*
X6288646Y4029184D01*
Y4031962D01*
D02*
G37*
G36*
X6202541D02*
X6166432D01*
Y4029184D01*
Y4027795D01*
X6165043Y4026406D01*
X6162266Y4022240D01*
X6158099Y4016685D01*
X6152544Y4006963D01*
X6145600Y3995853D01*
X6135878Y3979187D01*
X6134490Y3976410D01*
X6131712Y3970854D01*
X6127546Y3962522D01*
X6121990Y3954189D01*
X6116435Y3944467D01*
X6112269Y3936134D01*
X6109491Y3930579D01*
X6108102Y3927802D01*
X6124768D01*
X6133101Y3941690D01*
X6140045Y3956966D01*
X6183098D01*
X6187264Y3941690D01*
X6190042Y3927802D01*
X6230317D01*
Y3929190D01*
Y3930579D01*
X6228928Y3934746D01*
X6227539Y3940301D01*
X6224762Y3950022D01*
X6220595Y3962522D01*
X6216429Y3979187D01*
Y3981965D01*
X6213651Y3987520D01*
X6212262Y3995853D01*
X6209485Y4005574D01*
X6206707Y4015296D01*
X6205318Y4023629D01*
X6202541Y4029184D01*
Y4031962D01*
D02*
G37*
G36*
X6103936D02*
X6058106D01*
X6046995Y4030573D01*
X6042829D01*
X6040051Y4029184D01*
X6038662D01*
X6035885Y4027795D01*
X6033107Y4023629D01*
X6028941Y4018074D01*
Y4016685D01*
X6027552Y4015296D01*
Y4011130D01*
X6026163Y4006963D01*
X6024774Y4000019D01*
X6023386Y3991686D01*
X6021997Y3980576D01*
Y3979187D01*
X6020608Y3975021D01*
Y3969466D01*
X6019219Y3962522D01*
Y3947245D01*
Y3941690D01*
X6020608Y3938912D01*
Y3937523D01*
X6021997Y3934746D01*
X6026163Y3931968D01*
X6031718Y3927802D01*
X6096992D01*
Y3929190D01*
Y3930579D01*
Y3934746D01*
Y3936134D01*
X6098381Y3938912D01*
Y3943078D01*
Y3944467D01*
X6058106D01*
X6055328Y3947245D01*
Y3948634D01*
X6053939D01*
Y3950022D01*
Y3954189D01*
X6055328Y3958355D01*
Y3963910D01*
Y3970854D01*
X6056717Y3980576D01*
Y3981965D01*
X6058106Y3984742D01*
Y3990298D01*
X6059494Y3995853D01*
Y4001408D01*
X6060883Y4006963D01*
Y4009741D01*
Y4011130D01*
Y4012518D01*
X6063661Y4013907D01*
X6103936D01*
X6105325Y4015296D01*
X6106714D01*
Y4016685D01*
Y4019462D01*
Y4022240D01*
Y4023629D01*
X6108102Y4026406D01*
Y4029184D01*
Y4030573D01*
X6106714D01*
X6103936Y4031962D01*
D02*
G37*
%LPD*%
G36*
X6784448Y3944467D02*
X6785837Y3943078D01*
X6787226Y3941690D01*
Y3938912D01*
Y3937523D01*
X6784448Y3933357D01*
X6783059Y3931968D01*
X6776115Y3930579D01*
X6774726Y3931968D01*
X6773338Y3934746D01*
X6771949Y3937523D01*
Y3938912D01*
X6773338Y3940301D01*
X6774726Y3943078D01*
X6778893Y3944467D01*
X6780282Y3945856D01*
X6783059D01*
X6784448Y3944467D01*
D02*
G37*
%LPC*%
G36*
X6783059Y3943078D02*
X6778893D01*
X6777504Y3940301D01*
X6776115Y3937523D01*
Y3936134D01*
Y3934746D01*
Y3933357D01*
X6777504D01*
Y3934746D01*
Y3937523D01*
Y3938912D01*
X6778893D01*
X6780282Y3936134D01*
X6781670Y3934746D01*
Y3933357D01*
X6783059D01*
Y3936134D01*
Y3937523D01*
X6784448Y3938912D01*
Y3940301D01*
X6783059Y3941690D01*
Y3943078D01*
D02*
G37*
%LPD*%
G36*
X6781670Y3940301D02*
X6780282Y3938912D01*
X6778893D01*
Y3941690D01*
X6781670D01*
Y3940301D01*
D02*
G37*
G36*
X6566406Y4012518D02*
X6567795Y4009741D01*
Y4008352D01*
Y4005574D01*
X6566406Y4001408D01*
Y3995853D01*
X6565018Y3987520D01*
X6563629Y3977798D01*
Y3976410D01*
Y3973632D01*
X6562240Y3968077D01*
X6560851Y3962522D01*
X6559462Y3952800D01*
X6558074Y3948634D01*
Y3947245D01*
X6556685Y3945856D01*
X6555296D01*
X6551130Y3944467D01*
X6531686D01*
Y3945856D01*
X6530298Y3947245D01*
Y3950022D01*
Y3954189D01*
Y3959744D01*
Y3968077D01*
X6531686Y3979187D01*
Y3980576D01*
X6533075Y3983354D01*
Y3988909D01*
X6534464Y3994464D01*
X6535853Y4005574D01*
Y4008352D01*
Y4011130D01*
X6537242Y4012518D01*
X6541408Y4013907D01*
X6565018D01*
X6566406Y4012518D01*
D02*
G37*
G36*
X6446970D02*
Y4011130D01*
Y4009741D01*
Y4005574D01*
X6445581Y3998630D01*
Y3997242D01*
Y3991686D01*
Y3987520D01*
X6444192Y3984742D01*
Y3981965D01*
X6441414Y3980576D01*
X6419194D01*
Y3981965D01*
Y3983354D01*
Y3984742D01*
Y3990298D01*
X6420582Y3998630D01*
Y4001408D01*
X6421971Y4005574D01*
Y4011130D01*
X6423360Y4013907D01*
X6446970D01*
Y4012518D01*
D02*
G37*
G36*
X6170598Y4005574D02*
X6171987Y4000019D01*
X6173376Y3995853D01*
X6174765Y3990298D01*
X6176154Y3987520D01*
X6177542Y3981965D01*
X6178931Y3975021D01*
Y3973632D01*
Y3972243D01*
X6173376D01*
X6165043Y3973632D01*
X6151155D01*
X6160877Y3990298D01*
Y3991686D01*
X6162266Y3993075D01*
X6166432Y3998630D01*
X6169210Y4004186D01*
X6170598Y4006963D01*
Y4005574D01*
D02*
G37*
%LPC*%
G36*
X7634394Y3868083D02*
X7627450D01*
X7624672Y3866694D01*
X7621894Y3863917D01*
X7620506Y3862528D01*
X7617728Y3858362D01*
X7616339Y3852806D01*
Y3848640D01*
X7617728Y3844474D01*
X7619117Y3843085D01*
X7621894Y3840307D01*
X7624672Y3836141D01*
X7626061Y3834752D01*
X7627450Y3833363D01*
X7628838Y3829197D01*
X7630227Y3826419D01*
Y3825030D01*
Y3823642D01*
X7627450Y3820864D01*
X7624672Y3819475D01*
X7620506D01*
Y3820864D01*
X7619117Y3825030D01*
Y3826419D01*
X7612173D01*
Y3825030D01*
Y3822253D01*
X7613562Y3820864D01*
Y3818086D01*
X7614950Y3815309D01*
X7619117Y3812531D01*
X7621894Y3811142D01*
X7626061D01*
X7630227Y3812531D01*
X7634394Y3815309D01*
X7635782Y3816698D01*
X7637171Y3819475D01*
X7638560Y3823642D01*
Y3829197D01*
Y3830586D01*
X7637171Y3833363D01*
X7635782Y3837530D01*
X7631616Y3841696D01*
X7630227Y3843085D01*
X7628838Y3845862D01*
X7626061Y3850029D01*
X7624672Y3852806D01*
Y3854195D01*
Y3856973D01*
X7626061Y3859750D01*
X7628838Y3861139D01*
X7631616D01*
X7633005Y3859750D01*
X7634394Y3855584D01*
X7641338D01*
Y3856973D01*
Y3858362D01*
Y3859750D01*
X7639949Y3863917D01*
X7638560Y3865306D01*
X7635782Y3866694D01*
X7634394Y3868083D01*
D02*
G37*
G36*
X7330246D02*
X7324691D01*
X7320525Y3866694D01*
X7317747Y3863917D01*
X7316358Y3862528D01*
X7313581Y3858362D01*
X7312192Y3852806D01*
X7313581Y3848640D01*
X7314970Y3844474D01*
X7316358Y3843085D01*
X7321914Y3836141D01*
X7323302Y3834752D01*
X7324691Y3833363D01*
X7326080Y3829197D01*
X7327469Y3826419D01*
Y3825030D01*
Y3823642D01*
X7326080Y3820864D01*
X7323302Y3819475D01*
X7317747D01*
Y3820864D01*
X7314970Y3825030D01*
Y3826419D01*
X7308026D01*
Y3825030D01*
Y3822253D01*
X7309414Y3820864D01*
Y3818086D01*
X7310803Y3815309D01*
X7316358Y3812531D01*
X7319136Y3811142D01*
X7321914D01*
X7326080Y3812531D01*
X7330246Y3815309D01*
X7331635Y3816698D01*
X7333024Y3819475D01*
X7334413Y3823642D01*
X7335802Y3829197D01*
Y3830586D01*
X7334413Y3833363D01*
X7331635Y3837530D01*
X7327469Y3841696D01*
X7326080Y3843085D01*
X7324691Y3845862D01*
X7323302Y3850029D01*
X7321914Y3852806D01*
Y3854195D01*
Y3856973D01*
X7323302Y3859750D01*
X7324691Y3861139D01*
X7327469D01*
X7328858Y3859750D01*
X7330246Y3855584D01*
X7338579D01*
X7339968Y3856973D01*
Y3858362D01*
Y3859750D01*
X7338579Y3861139D01*
X7335802Y3863917D01*
X7334413Y3865306D01*
X7331635Y3866694D01*
X7330246Y3868083D01*
D02*
G37*
G36*
X6892774D02*
X6885830D01*
X6883053Y3866694D01*
X6881664Y3865306D01*
X6878886Y3863917D01*
X6874720Y3858362D01*
X6873331Y3851418D01*
Y3850029D01*
X6874720Y3847251D01*
X6877498Y3843085D01*
X6883053Y3836141D01*
X6884442Y3833363D01*
X6888608Y3830586D01*
Y3827808D01*
Y3823642D01*
X6887219Y3822253D01*
X6885830Y3820864D01*
X6883053Y3819475D01*
X6881664D01*
X6880275Y3820864D01*
X6878886Y3822253D01*
X6877498Y3825030D01*
Y3826419D01*
X6869165D01*
Y3823642D01*
Y3822253D01*
X6870554Y3819475D01*
X6873331Y3815309D01*
X6877498Y3812531D01*
X6884442D01*
X6888608Y3813920D01*
X6892774Y3816698D01*
X6895552Y3823642D01*
Y3825030D01*
Y3829197D01*
X6892774Y3834752D01*
X6888608Y3841696D01*
X6887219Y3843085D01*
X6885830Y3844474D01*
X6884442Y3848640D01*
X6883053Y3851418D01*
Y3852806D01*
Y3856973D01*
X6884442Y3859750D01*
X6888608Y3861139D01*
X6889997D01*
X6891386Y3859750D01*
Y3856973D01*
Y3855584D01*
X6899718D01*
Y3856973D01*
Y3858362D01*
Y3861139D01*
X6898330Y3863917D01*
X6895552Y3866694D01*
X6892774Y3868083D01*
D02*
G37*
G36*
X7044154D02*
X7035821D01*
Y3866694D01*
Y3863917D01*
X7034432Y3859750D01*
Y3855584D01*
X7033043Y3843085D01*
Y3830586D01*
X7031654Y3833363D01*
X7030266Y3838918D01*
X7028877Y3843085D01*
Y3850029D01*
X7024710Y3868083D01*
X7016378D01*
X7014989Y3866694D01*
Y3863917D01*
Y3861139D01*
X7013600Y3855584D01*
Y3850029D01*
X7012211Y3841696D01*
Y3840307D01*
Y3837530D01*
X7010822Y3829197D01*
X7009434Y3819475D01*
Y3816698D01*
Y3813920D01*
Y3812531D01*
X7017766D01*
Y3813920D01*
Y3816698D01*
Y3822253D01*
X7019155Y3830586D01*
Y3831974D01*
Y3833363D01*
X7020544Y3838918D01*
X7021933Y3844474D01*
Y3845862D01*
X7023322Y3840307D01*
Y3836141D01*
X7024710Y3830586D01*
X7028877Y3812531D01*
X7038598D01*
Y3816698D01*
X7039987Y3819475D01*
Y3825030D01*
Y3831974D01*
X7041376Y3840307D01*
Y3841696D01*
Y3844474D01*
X7042765Y3852806D01*
X7044154Y3861139D01*
Y3865306D01*
Y3866694D01*
Y3868083D01*
D02*
G37*
G36*
X7217754D02*
X7212198D01*
X7210810Y3866694D01*
Y3863917D01*
Y3861139D01*
X7209421Y3856973D01*
Y3851418D01*
X7208032Y3844474D01*
Y3843085D01*
Y3841696D01*
X7206643Y3834752D01*
X7205254Y3826419D01*
Y3825030D01*
Y3823642D01*
X7203866Y3822253D01*
X7202477Y3820864D01*
X7199699Y3819475D01*
X7198310D01*
X7195533Y3820864D01*
Y3822253D01*
Y3823642D01*
Y3826419D01*
Y3829197D01*
Y3833363D01*
X7196922Y3838918D01*
Y3845862D01*
Y3847251D01*
Y3848640D01*
X7198310Y3856973D01*
X7199699Y3863917D01*
Y3865306D01*
Y3866694D01*
Y3868083D01*
X7191366D01*
Y3866694D01*
Y3865306D01*
X7189978Y3861139D01*
Y3856973D01*
X7188589Y3841696D01*
Y3823642D01*
Y3822253D01*
X7189978Y3818086D01*
X7191366Y3815309D01*
X7195533Y3812531D01*
X7196922D01*
X7198310Y3811142D01*
X7201088Y3812531D01*
X7205254Y3813920D01*
X7206643D01*
X7208032Y3815309D01*
X7210810Y3818086D01*
X7212198Y3820864D01*
Y3822253D01*
Y3825030D01*
X7213587Y3831974D01*
X7214976Y3837530D01*
X7216365Y3844474D01*
Y3845862D01*
Y3848640D01*
X7217754Y3855584D01*
Y3863917D01*
Y3865306D01*
Y3866694D01*
Y3868083D01*
D02*
G37*
G36*
X7770496Y3866694D02*
X7762163D01*
X7759386Y3863917D01*
X7756608Y3861139D01*
X7753830Y3856973D01*
Y3854195D01*
Y3848640D01*
X7752442Y3843085D01*
Y3837530D01*
Y3834752D01*
Y3829197D01*
X7751053Y3822253D01*
Y3820864D01*
Y3819475D01*
Y3818086D01*
X7753830Y3815309D01*
X7756608Y3812531D01*
X7766330D01*
X7770496Y3815309D01*
X7771885Y3816698D01*
X7773274Y3819475D01*
X7774662Y3826419D01*
X7777440Y3836141D01*
Y3837530D01*
Y3838918D01*
X7778829Y3847251D01*
Y3855584D01*
Y3858362D01*
Y3861139D01*
Y3862528D01*
X7776051Y3863917D01*
X7773274Y3865306D01*
X7770496Y3866694D01*
D02*
G37*
G36*
X7703834Y3868083D02*
X7687168D01*
X7684390Y3841696D01*
Y3840307D01*
Y3837530D01*
X7683002Y3827808D01*
X7681613Y3819475D01*
Y3815309D01*
Y3813920D01*
Y3812531D01*
X7688557D01*
Y3813920D01*
Y3816698D01*
X7689946Y3823642D01*
Y3831974D01*
X7698278D01*
X7702445Y3833363D01*
X7705222Y3836141D01*
X7706611Y3837530D01*
X7708000Y3840307D01*
X7709389Y3844474D01*
X7710778Y3850029D01*
Y3851418D01*
Y3852806D01*
Y3858362D01*
Y3859750D01*
X7709389Y3861139D01*
X7708000Y3865306D01*
X7703834Y3868083D01*
D02*
G37*
G36*
X7574675D02*
X7564954D01*
Y3863917D01*
Y3861139D01*
Y3855584D01*
X7563565Y3848640D01*
Y3840307D01*
Y3838918D01*
Y3836141D01*
X7562176Y3826419D01*
X7560787Y3818086D01*
X7559398Y3813920D01*
Y3812531D01*
X7566342D01*
Y3813920D01*
Y3815309D01*
X7567731Y3818086D01*
Y3819475D01*
X7569120Y3822253D01*
Y3826419D01*
Y3831974D01*
Y3833363D01*
X7570509Y3837530D01*
Y3847251D01*
Y3848640D01*
X7571898Y3852806D01*
Y3861139D01*
Y3862528D01*
Y3863917D01*
Y3865306D01*
Y3866694D01*
X7574675Y3868083D01*
D02*
G37*
G36*
X7510790D02*
X7495514D01*
X7494125Y3866694D01*
Y3863917D01*
X7492736Y3859750D01*
Y3855584D01*
X7491347Y3848640D01*
X7489958Y3840307D01*
Y3838918D01*
Y3836141D01*
Y3826419D01*
X7488570Y3818086D01*
Y3813920D01*
Y3812531D01*
X7505235D01*
X7506624Y3813920D01*
X7509402D01*
X7510790Y3815309D01*
X7513568Y3818086D01*
Y3819475D01*
X7514957Y3822253D01*
X7517734Y3830586D01*
Y3831974D01*
Y3833363D01*
X7516346Y3836141D01*
Y3837530D01*
X7514957Y3838918D01*
X7513568Y3840307D01*
X7512179D01*
Y3841696D01*
X7513568D01*
X7516346Y3844474D01*
X7517734Y3845862D01*
X7519123Y3850029D01*
Y3855584D01*
X7516346Y3863917D01*
X7514957Y3865306D01*
X7512179Y3866694D01*
X7510790Y3868083D01*
D02*
G37*
G36*
X7270528D02*
X7263584D01*
Y3863917D01*
X7262195Y3861139D01*
Y3855584D01*
X7260806Y3848640D01*
X7259418Y3840307D01*
Y3838918D01*
Y3836141D01*
X7258029Y3826419D01*
X7256640Y3818086D01*
X7255251Y3813920D01*
Y3812531D01*
X7263584D01*
Y3813920D01*
Y3815309D01*
Y3818086D01*
Y3819475D01*
X7264973Y3822253D01*
Y3826419D01*
Y3831974D01*
Y3833363D01*
X7266362Y3837530D01*
X7267750Y3847251D01*
Y3848640D01*
X7269139Y3852806D01*
Y3861139D01*
Y3862528D01*
X7270528Y3863917D01*
Y3865306D01*
Y3866694D01*
Y3868083D01*
D02*
G37*
G36*
X7135814D02*
X7127482D01*
Y3866694D01*
Y3863917D01*
X7126093Y3855584D01*
Y3848640D01*
X7124704Y3841696D01*
Y3840307D01*
Y3837530D01*
X7123315Y3829197D01*
X7121926Y3819475D01*
Y3816698D01*
Y3813920D01*
X7120538Y3812531D01*
X7142758D01*
Y3815309D01*
X7144147D01*
X7145536Y3816698D01*
Y3818086D01*
Y3819475D01*
Y3820864D01*
X7130259D01*
Y3822253D01*
Y3825030D01*
X7131648Y3831974D01*
X7133037Y3837530D01*
X7134426Y3844474D01*
Y3845862D01*
Y3847251D01*
X7135814Y3854195D01*
Y3861139D01*
Y3866694D01*
Y3868083D01*
D02*
G37*
G36*
X6963603D02*
X6952493D01*
Y3865306D01*
X6951104Y3862528D01*
Y3858362D01*
X6948326Y3850029D01*
X6945549Y3841696D01*
X6942771Y3829197D01*
X6937216Y3813920D01*
X6939994Y3812531D01*
X6944160D01*
Y3813920D01*
Y3815309D01*
X6945549Y3818086D01*
X6946938Y3820864D01*
X6948326Y3825030D01*
X6958048D01*
Y3823642D01*
Y3820864D01*
Y3815309D01*
Y3812531D01*
X6964992D01*
Y3813920D01*
Y3816698D01*
Y3819475D01*
Y3823642D01*
X6963603Y3829197D01*
Y3837530D01*
Y3838918D01*
Y3841696D01*
Y3850029D01*
Y3859750D01*
Y3863917D01*
Y3866694D01*
Y3868083D01*
D02*
G37*
G36*
X7441350D02*
X7435795D01*
X7431629Y3866694D01*
X7427462Y3863917D01*
X7424685Y3858362D01*
X7423296Y3855584D01*
X7421907Y3850029D01*
X7420518Y3845862D01*
Y3840307D01*
Y3837530D01*
Y3831974D01*
X7419130Y3825030D01*
Y3820864D01*
Y3819475D01*
X7420518Y3818086D01*
X7423296Y3815309D01*
X7426074Y3812531D01*
X7428851D01*
X7434406Y3811142D01*
X7439962Y3813920D01*
X7442739Y3816698D01*
X7445517Y3820864D01*
Y3822253D01*
Y3825030D01*
Y3830586D01*
X7446906Y3840307D01*
Y3841696D01*
Y3843085D01*
X7448294Y3848640D01*
Y3855584D01*
Y3856973D01*
Y3858362D01*
Y3859750D01*
X7446906Y3861139D01*
X7445517Y3865306D01*
X7441350Y3868083D01*
D02*
G37*
%LPD*%
G36*
X7771885Y3858362D02*
Y3855584D01*
Y3852806D01*
X7770496Y3847251D01*
X7769107Y3838918D01*
Y3837530D01*
Y3836141D01*
X7767718Y3829197D01*
X7766330Y3823642D01*
Y3820864D01*
X7764941Y3819475D01*
X7763552D01*
X7757997Y3820864D01*
Y3823642D01*
Y3825030D01*
Y3827808D01*
Y3831974D01*
Y3837530D01*
X7759386Y3848640D01*
X7760774Y3854195D01*
X7762163Y3856973D01*
X7763552Y3858362D01*
Y3859750D01*
X7764941Y3861139D01*
X7770496D01*
X7771885Y3858362D01*
D02*
G37*
G36*
X7703834Y3856973D02*
Y3854195D01*
Y3850029D01*
Y3848640D01*
X7702445Y3845862D01*
X7701056Y3843085D01*
X7696890Y3841696D01*
X7692723D01*
Y3843085D01*
Y3847251D01*
X7694112Y3858362D01*
X7702445D01*
X7703834Y3856973D01*
D02*
G37*
G36*
X7508013D02*
X7509402D01*
X7510790Y3855584D01*
Y3852806D01*
Y3851418D01*
Y3850029D01*
X7509402Y3847251D01*
X7506624Y3845862D01*
X7505235D01*
X7502458Y3844474D01*
X7499680D01*
Y3847251D01*
Y3851418D01*
X7501069Y3858362D01*
X7506624D01*
X7508013Y3856973D01*
D02*
G37*
G36*
X7506624Y3837530D02*
X7509402Y3834752D01*
Y3833363D01*
Y3830586D01*
Y3826419D01*
X7506624Y3823642D01*
X7503846Y3822253D01*
X7499680Y3820864D01*
X7496902D01*
Y3822253D01*
Y3823642D01*
Y3829197D01*
Y3830586D01*
X7498291Y3831974D01*
X7499680Y3834752D01*
Y3836141D01*
Y3837530D01*
X7501069Y3838918D01*
X7503846D01*
X7506624Y3837530D01*
D02*
G37*
G36*
X6958048Y3852806D02*
Y3848640D01*
Y3841696D01*
Y3831974D01*
X6949715D01*
Y3833363D01*
X6951104Y3836141D01*
X6952493Y3843085D01*
Y3844474D01*
X6953882Y3848640D01*
X6955270Y3852806D01*
X6956659Y3854195D01*
X6958048Y3852806D01*
D02*
G37*
G36*
X7439962Y3858362D02*
Y3856973D01*
Y3855584D01*
Y3850029D01*
Y3845862D01*
X7438573Y3840307D01*
Y3837530D01*
X7437184Y3831974D01*
Y3826419D01*
X7435795Y3825030D01*
Y3823642D01*
Y3822253D01*
X7434406Y3820864D01*
X7431629Y3819475D01*
X7428851D01*
X7427462Y3820864D01*
Y3822253D01*
Y3823642D01*
Y3829197D01*
Y3838918D01*
Y3840307D01*
Y3841696D01*
X7428851Y3847251D01*
X7430240Y3852806D01*
Y3855584D01*
X7431629Y3856973D01*
X7434406Y3859750D01*
X7438573D01*
X7439962Y3858362D01*
D02*
G37*
D49*
X1664756Y3056591D02*
G03*
X1664756Y3056591I-1968J0D01*
G01*
X2443157Y3194260D02*
X2492370D01*
Y3351740D01*
X2413630D02*
X2492370D01*
X2413630Y3194260D02*
Y3351740D01*
Y3194260D02*
X2443157D01*
D50*
X8322567Y3375071D02*
X8330441D01*
X8322567D02*
Y3508929D01*
X8330441D01*
X8385559Y3375071D02*
X8393433D01*
Y3508929D01*
X8385559D02*
X8393433D01*
X8322567Y3442000D02*
X8393433D01*
X2332441Y3771000D02*
X2340000D01*
X2332441Y3671000D02*
Y3771000D01*
Y3671000D02*
X2340000D01*
X2380000D02*
X2387559D01*
Y3771000D01*
X2380000D02*
X2387559D01*
X2332441Y3721000D02*
X2387559D01*
X5812346Y2818669D02*
Y2873787D01*
X5867465Y2818669D02*
Y2830480D01*
X5757228Y2818669D02*
X5867465D01*
X5757228D02*
Y2830480D01*
Y2861976D02*
Y2873787D01*
X5867465D01*
Y2861976D02*
Y2873787D01*
X4710000Y3529441D02*
Y3584559D01*
X4654882Y3572748D02*
Y3584559D01*
X4765118D01*
Y3572748D02*
Y3584559D01*
Y3529441D02*
Y3541252D01*
X4654882Y3529441D02*
X4765118D01*
X4654882D02*
Y3541252D01*
X5605000Y3264441D02*
Y3272000D01*
Y3264441D02*
X5705000D01*
Y3272000D01*
Y3312000D02*
Y3319559D01*
X5605000D02*
X5705000D01*
X5605000Y3312000D02*
Y3319559D01*
X5655000Y3264441D02*
Y3319559D01*
X5607000Y2819441D02*
Y2827000D01*
Y2819441D02*
X5707000D01*
Y2827000D01*
Y2867000D02*
Y2874559D01*
X5607000D02*
X5707000D01*
X5607000Y2867000D02*
Y2874559D01*
X5657000Y2819441D02*
Y2874559D01*
X2993441Y3504118D02*
X3005252D01*
X2993441Y3393882D02*
Y3504118D01*
Y3393882D02*
X3005252D01*
X3036748D02*
X3048559D01*
Y3504118D01*
X3036748D02*
X3048559D01*
X2993441Y3449000D02*
X3048559D01*
X3236000Y3541000D02*
Y3548559D01*
X3136000D02*
X3236000D01*
X3136000Y3541000D02*
Y3548559D01*
Y3493441D02*
Y3501000D01*
Y3493441D02*
X3236000D01*
Y3501000D01*
X3186000Y3493441D02*
Y3548559D01*
X3564748Y3423882D02*
X3576559D01*
Y3534118D01*
X3564748D02*
X3576559D01*
X3521441D02*
X3533252D01*
X3521441Y3423882D02*
Y3534118D01*
Y3423882D02*
X3533252D01*
X3521441Y3479000D02*
X3576559D01*
X3131000Y3211441D02*
Y3219000D01*
Y3211441D02*
X3231000D01*
Y3219000D01*
Y3259000D02*
Y3266559D01*
X3131000D02*
X3231000D01*
X3131000Y3259000D02*
Y3266559D01*
X3181000Y3211441D02*
Y3266559D01*
X3037748Y3174457D02*
X3049559D01*
Y3284693D01*
X3037748D02*
X3049559D01*
X2994441D02*
X3006252D01*
X2994441Y3174457D02*
Y3284693D01*
Y3174457D02*
X3006252D01*
X2994441Y3229575D02*
X3049559D01*
X6732559Y3169929D02*
X6740433D01*
Y3036071D02*
Y3169929D01*
X6732559Y3036071D02*
X6740433D01*
X6669567Y3169929D02*
X6677441D01*
X6669567Y3036071D02*
Y3169929D01*
Y3036071D02*
X6677441D01*
X6669567Y3103000D02*
X6740433D01*
X7621748Y3326457D02*
X7633559D01*
Y3436693D01*
X7621748D02*
X7633559D01*
X7578441D02*
X7590252D01*
X7578441Y3326457D02*
Y3436693D01*
Y3326457D02*
X7590252D01*
X7578441Y3381575D02*
X7633559D01*
X6716748Y3225882D02*
X6728559D01*
Y3336118D01*
X6716748D02*
X6728559D01*
X6673441D02*
X6685252D01*
X6673441Y3225882D02*
Y3336118D01*
Y3225882D02*
X6685252D01*
X6673441Y3281000D02*
X6728559D01*
X3128882Y3350441D02*
Y3362252D01*
Y3350441D02*
X3239118D01*
Y3362252D01*
Y3393748D02*
Y3405559D01*
X3128882D02*
X3239118D01*
X3128882Y3393748D02*
Y3405559D01*
X3184000Y3350441D02*
Y3405559D01*
X6942559Y3335929D02*
X6950433D01*
Y3202071D02*
Y3335929D01*
X6942559Y3202071D02*
X6950433D01*
X6879567Y3335929D02*
X6887441D01*
X6879567Y3202071D02*
Y3335929D01*
Y3202071D02*
X6887441D01*
X6879567Y3269000D02*
X6950433D01*
X8444567Y3373071D02*
X8452441D01*
X8444567D02*
Y3506929D01*
X8452441D01*
X8507559Y3373071D02*
X8515433D01*
Y3506929D01*
X8507559D02*
X8515433D01*
X8444567Y3440000D02*
X8515433D01*
X8329441Y3140118D02*
X8341252D01*
X8329441Y3029882D02*
Y3140118D01*
Y3029882D02*
X8341252D01*
X8372748D02*
X8384559D01*
Y3140118D01*
X8372748D02*
X8384559D01*
X8329441Y3085000D02*
X8384559D01*
X2242748Y3557882D02*
X2254559D01*
Y3668118D01*
X2242748D02*
X2254559D01*
X2199441D02*
X2211252D01*
X2199441Y3557882D02*
Y3668118D01*
Y3557882D02*
X2211252D01*
X2199441Y3613000D02*
X2254559D01*
X2250000Y3835591D02*
X2257559D01*
Y3935591D01*
X2250000D02*
X2257559D01*
X2202441D02*
X2210000D01*
X2202441Y3835591D02*
Y3935591D01*
Y3835591D02*
X2210000D01*
X2202441Y3885591D02*
X2257559D01*
X2909441Y3881118D02*
X2921252D01*
X2909441Y3770882D02*
Y3881118D01*
Y3770882D02*
X2921252D01*
X2952748D02*
X2964559D01*
Y3881118D01*
X2952748D02*
X2964559D01*
X2909441Y3826000D02*
X2964559D01*
X2250000Y3725410D02*
X2257559D01*
Y3825410D01*
X2250000D02*
X2257559D01*
X2202441D02*
X2210000D01*
X2202441Y3725410D02*
Y3825410D01*
Y3725410D02*
X2210000D01*
X2202441Y3775410D02*
X2257559D01*
X2066071Y3087559D02*
Y3095433D01*
X2199929D01*
Y3087559D02*
Y3095433D01*
X2066071Y3024567D02*
Y3032441D01*
Y3024567D02*
X2199929D01*
Y3032441D01*
X2133000Y3024567D02*
Y3095433D01*
X6423575Y3527441D02*
Y3582559D01*
X6478693Y3527441D02*
Y3539252D01*
X6368457Y3527441D02*
X6478693D01*
X6368457D02*
Y3539252D01*
Y3570748D02*
Y3582559D01*
X6478693D01*
Y3570748D02*
Y3582559D01*
X6482543Y3485748D02*
Y3497559D01*
X6372307D02*
X6482543D01*
X6372307Y3485748D02*
Y3497559D01*
Y3442441D02*
Y3454252D01*
Y3442441D02*
X6482543D01*
Y3454252D01*
X6427425Y3442441D02*
Y3497559D01*
X1948000Y3392567D02*
Y3463433D01*
X1881071Y3455559D02*
Y3463433D01*
X2014929D01*
Y3455559D02*
Y3463433D01*
X1881071Y3392567D02*
Y3400441D01*
Y3392567D02*
X2014929D01*
Y3400441D01*
D51*
X7881795Y2941614D02*
Y3355000D01*
X8070772Y2941614D02*
Y3355000D01*
X7881795D02*
X8070772D01*
X7881795Y2941614D02*
X8070772D01*
X6414315Y3005976D02*
X6453685D01*
X6414315Y3128024D02*
X6453685D01*
Y3005976D02*
Y3128024D01*
X6414315Y3005976D02*
Y3128024D01*
X6419815Y3329095D02*
X6459185D01*
X6419815Y3207047D02*
X6459185D01*
X6419815D02*
Y3329095D01*
X6459185Y3207047D02*
Y3329095D01*
X2653039Y3448921D02*
X2782961D01*
X2653039Y3189079D02*
X2782961D01*
X2653039D02*
Y3448921D01*
X2782961Y3189079D02*
Y3448921D01*
X8509000Y3139000D02*
Y3300024D01*
X8439000Y3139000D02*
X8509000D01*
X8439000D02*
Y3300024D01*
X8509000D01*
X8394000Y3156000D02*
Y3317024D01*
X8324000Y3156000D02*
X8394000D01*
X8324000D02*
Y3317024D01*
X8394000D01*
X1953409Y3775520D02*
X1985496D01*
X1953409D02*
Y3801504D01*
Y3890480D02*
X1985496D01*
X1953409Y3864496D02*
Y3890480D01*
X1911441Y3190945D02*
X1950811D01*
X1911441D02*
Y3218504D01*
Y3309055D02*
X1950811D01*
X1911441Y3281496D02*
Y3309055D01*
X2145976Y3472000D02*
X2307000D01*
Y3402000D02*
Y3472000D01*
X2145976Y3402000D02*
X2307000D01*
X2145976D02*
Y3472000D01*
X3393685Y3398976D02*
Y3521024D01*
X3354315Y3398976D02*
Y3521024D01*
Y3398976D02*
X3393685D01*
X3354315Y3521024D02*
X3393685D01*
X5485055Y3391945D02*
Y3760055D01*
X5116945Y3391945D02*
Y3760055D01*
Y3391945D02*
X5485055D01*
X5116945Y3760055D02*
X5485055D01*
X2568008Y3925425D02*
X2693992D01*
X2568008Y3728575D02*
X2693992D01*
X2568008D02*
Y3925425D01*
X2693992Y3728575D02*
Y3925425D01*
D52*
X2219000Y3186000D02*
Y3241000D01*
Y3186000D02*
X2249000Y3216000D01*
X2219000Y3246000D02*
X2249000Y3216000D01*
X2219000Y3241000D02*
Y3246000D01*
X270362Y4099000D02*
X1587685D01*
X270362Y3028921D02*
Y4099000D01*
Y3028921D02*
X1587685D01*
Y4099000D01*
X7993987Y3878981D02*
X7954000D01*
Y3819000D01*
X7993987D01*
X7954000Y3848990D02*
X7973993D01*
X8013981Y3858987D02*
Y3819000D01*
Y3838994D01*
X8023977Y3848990D01*
X8033974Y3858987D01*
X8043971D01*
X8073961Y3819000D02*
X8093955D01*
X8083958D01*
Y3858987D01*
X8073961D01*
X8163932D02*
X8133942D01*
X8123945Y3848990D01*
Y3828997D01*
X8133942Y3819000D01*
X8163932D01*
X8243906Y3878981D02*
X8283893D01*
X8263900D01*
Y3819000D01*
X8303887D02*
X8333877D01*
X8343874Y3828997D01*
X8333877Y3838994D01*
X8313884D01*
X8303887Y3848990D01*
X8313884Y3858987D01*
X8343874D01*
X8393858Y3819000D02*
X8373864D01*
X8363867Y3828997D01*
Y3848990D01*
X8373864Y3858987D01*
X8393858D01*
X8403854Y3848990D01*
Y3838994D01*
X8363867D01*
X7954000Y3997981D02*
Y3938000D01*
X7983990D01*
X7993987Y3947997D01*
Y3987984D01*
X7983990Y3997981D01*
X7954000D01*
X8043971Y3938000D02*
X8023977D01*
X8013981Y3947997D01*
Y3967990D01*
X8023977Y3977987D01*
X8043971D01*
X8053968Y3967990D01*
Y3957994D01*
X8013981D01*
X8073961Y3938000D02*
X8103952D01*
X8113948Y3947997D01*
X8103952Y3957994D01*
X8083958D01*
X8073961Y3967990D01*
X8083958Y3977987D01*
X8113948D01*
X8133942Y3938000D02*
X8153935D01*
X8143939D01*
Y3977987D01*
X8133942D01*
X8203919Y3918006D02*
X8213916D01*
X8223913Y3928003D01*
Y3977987D01*
X8193922D01*
X8183926Y3967990D01*
Y3947997D01*
X8193922Y3938000D01*
X8223913D01*
X8243906D02*
Y3977987D01*
X8273897D01*
X8283893Y3967990D01*
Y3938000D01*
X8373864Y3977987D02*
X8393858D01*
X8403854Y3967990D01*
Y3938000D01*
X8373864D01*
X8363867Y3947997D01*
X8373864Y3957994D01*
X8403854D01*
X8423848Y3938000D02*
Y3977987D01*
X8453838D01*
X8463835Y3967990D01*
Y3938000D01*
X8523816Y3997981D02*
Y3938000D01*
X8493825D01*
X8483829Y3947997D01*
Y3967990D01*
X8493825Y3977987D01*
X8523816D01*
X8603790Y3997981D02*
Y3938000D01*
X8643777D01*
X8673767Y3977987D02*
X8693761D01*
X8703757Y3967990D01*
Y3938000D01*
X8673767D01*
X8663770Y3947997D01*
X8673767Y3957994D01*
X8703757D01*
X8723751Y3977987D02*
Y3947997D01*
X8733748Y3938000D01*
X8763738D01*
Y3928003D01*
X8753741Y3918006D01*
X8743745D01*
X8763738Y3938000D02*
Y3977987D01*
X8793728Y3938000D02*
X8813722D01*
X8823719Y3947997D01*
Y3967990D01*
X8813722Y3977987D01*
X8793728D01*
X8783732Y3967990D01*
Y3947997D01*
X8793728Y3938000D01*
X8843712Y3977987D02*
Y3947997D01*
X8853709Y3938000D01*
X8883699D01*
Y3977987D01*
X8913690Y3987984D02*
Y3977987D01*
X8903693D01*
X8923686D01*
X8913690D01*
Y3947997D01*
X8923686Y3938000D01*
X9013657Y3997981D02*
Y3938000D01*
X9043647D01*
X9053644Y3947997D01*
Y3957994D01*
X9043647Y3967990D01*
X9013657D01*
X9043647D01*
X9053644Y3977987D01*
Y3987984D01*
X9043647Y3997981D01*
X9013657D01*
X9073638Y3977987D02*
Y3947997D01*
X9083635Y3938000D01*
X9113625D01*
Y3928003D01*
X9103628Y3918006D01*
X9093631D01*
X9113625Y3938000D02*
Y3977987D01*
X9550984Y2579013D02*
X9560981Y2589010D01*
Y2609003D01*
X9550984Y2619000D01*
X9540987D01*
X9530990Y2609003D01*
Y2589010D01*
X9520994Y2579013D01*
X9510997D01*
X9501000Y2589010D01*
Y2609003D01*
X9510997Y2619000D01*
X9501000Y2529029D02*
Y2549023D01*
X9510997Y2559019D01*
X9530990D01*
X9540987Y2549023D01*
Y2529029D01*
X9530990Y2519032D01*
X9520994D01*
Y2559019D01*
X9501000Y2499039D02*
X9540987D01*
Y2469048D01*
X9530990Y2459052D01*
X9501000D01*
Y2439058D02*
Y2409068D01*
X9510997Y2399071D01*
X9520994Y2409068D01*
Y2429061D01*
X9530990Y2439058D01*
X9540987Y2429061D01*
Y2399071D01*
X9501000Y2369081D02*
Y2349087D01*
X9510997Y2339090D01*
X9530990D01*
X9540987Y2349087D01*
Y2369081D01*
X9530990Y2379078D01*
X9510997D01*
X9501000Y2369081D01*
X9540987Y2319097D02*
X9501000D01*
X9520994D01*
X9530990Y2309100D01*
X9540987Y2299104D01*
Y2289107D01*
X9501000Y2259116D02*
Y2239123D01*
Y2249120D01*
X9560981D01*
X9550984Y2259116D01*
X9501000Y2169146D02*
Y2209133D01*
X9540987Y2169146D01*
X9550984D01*
X9560981Y2179142D01*
Y2199136D01*
X9550984Y2209133D01*
X6126984Y2579013D02*
X6136981Y2589010D01*
Y2609003D01*
X6126984Y2619000D01*
X6116987D01*
X6106990Y2609003D01*
Y2589010D01*
X6096993Y2579013D01*
X6086997D01*
X6077000Y2589010D01*
Y2609003D01*
X6086997Y2619000D01*
X6077000Y2529029D02*
Y2549023D01*
X6086997Y2559019D01*
X6106990D01*
X6116987Y2549023D01*
Y2529029D01*
X6106990Y2519032D01*
X6096993D01*
Y2559019D01*
X6077000Y2499039D02*
X6116987D01*
Y2469048D01*
X6106990Y2459052D01*
X6077000D01*
Y2439058D02*
Y2409068D01*
X6086997Y2399071D01*
X6096993Y2409068D01*
Y2429061D01*
X6106990Y2439058D01*
X6116987Y2429061D01*
Y2399071D01*
X6077000Y2369081D02*
Y2349087D01*
X6086997Y2339090D01*
X6106990D01*
X6116987Y2349087D01*
Y2369081D01*
X6106990Y2379078D01*
X6086997D01*
X6077000Y2369081D01*
X6116987Y2319097D02*
X6077000D01*
X6096993D01*
X6106990Y2309100D01*
X6116987Y2299104D01*
Y2289107D01*
X6077000Y2259116D02*
Y2239123D01*
Y2249120D01*
X6136981D01*
X6126984Y2259116D01*
X6136981Y2169146D02*
Y2209133D01*
X6106990D01*
X6116987Y2189139D01*
Y2179142D01*
X6106990Y2169146D01*
X6086997D01*
X6077000Y2179142D01*
Y2199136D01*
X6086997Y2209133D01*
X4701987Y3667984D02*
X4691990Y3677981D01*
X4671997D01*
X4662000Y3667984D01*
Y3627997D01*
X4671997Y3618000D01*
X4691990D01*
X4701987Y3627997D01*
X4761968Y3618000D02*
X4721981D01*
X4761968Y3657987D01*
Y3667984D01*
X4751971Y3677981D01*
X4731977D01*
X4721981Y3667984D01*
X4781961D02*
X4791958Y3677981D01*
X4811952D01*
X4821948Y3667984D01*
Y3657987D01*
X4811952Y3647990D01*
X4801955D01*
X4811952D01*
X4821948Y3637994D01*
Y3627997D01*
X4811952Y3618000D01*
X4791958D01*
X4781961Y3627997D01*
X5804759Y2957212D02*
X5794762Y2967209D01*
X5774768D01*
X5764772Y2957212D01*
Y2917225D01*
X5774768Y2907228D01*
X5794762D01*
X5804759Y2917225D01*
X5864739Y2967209D02*
X5844746Y2957212D01*
X5824752Y2937219D01*
Y2917225D01*
X5834749Y2907228D01*
X5854743D01*
X5864739Y2917225D01*
Y2927222D01*
X5854743Y2937219D01*
X5824752D01*
X6467000Y2984981D02*
Y2934997D01*
X6476997Y2925000D01*
X6496990D01*
X6506987Y2934997D01*
Y2984981D01*
X6526981Y2974984D02*
X6536977Y2984981D01*
X6556971D01*
X6566968Y2974984D01*
Y2964987D01*
X6556971Y2954990D01*
X6566968Y2944994D01*
Y2934997D01*
X6556971Y2925000D01*
X6536977D01*
X6526981Y2934997D01*
Y2944994D01*
X6536977Y2954990D01*
X6526981Y2964987D01*
Y2974984D01*
X6536977Y2954990D02*
X6556971D01*
X6252000Y3341981D02*
Y3291997D01*
X6261997Y3282000D01*
X6281990D01*
X6291987Y3291997D01*
Y3341981D01*
X6311981D02*
X6351968D01*
Y3331984D01*
X6311981Y3291997D01*
Y3282000D01*
X2400000Y3640000D02*
Y3699981D01*
X2429990D01*
X2439987Y3689984D01*
Y3669990D01*
X2429990Y3659994D01*
X2400000D01*
X2419994D02*
X2439987Y3640000D01*
X2459981D02*
X2479974D01*
X2469977D01*
Y3699981D01*
X2459981Y3689984D01*
X2549952Y3699981D02*
X2509964D01*
Y3669990D01*
X2529958Y3679987D01*
X2539955D01*
X2549952Y3669990D01*
Y3649997D01*
X2539955Y3640000D01*
X2519961D01*
X2509964Y3649997D01*
X6944984Y4885013D02*
X6954981Y4895010D01*
Y4915003D01*
X6944984Y4925000D01*
X6934987D01*
X6924990Y4915003D01*
Y4895010D01*
X6914993Y4885013D01*
X6904997D01*
X6895000Y4895010D01*
Y4915003D01*
X6904997Y4925000D01*
X6895000Y4835029D02*
Y4855023D01*
X6904997Y4865019D01*
X6924990D01*
X6934987Y4855023D01*
Y4835029D01*
X6924990Y4825032D01*
X6914993D01*
Y4865019D01*
X6895000Y4805039D02*
X6934987D01*
Y4775048D01*
X6924990Y4765052D01*
X6895000D01*
Y4745058D02*
Y4715068D01*
X6904997Y4705071D01*
X6914993Y4715068D01*
Y4735061D01*
X6924990Y4745058D01*
X6934987Y4735061D01*
Y4705071D01*
X6895000Y4675081D02*
Y4655087D01*
X6904997Y4645091D01*
X6924990D01*
X6934987Y4655087D01*
Y4675081D01*
X6924990Y4685078D01*
X6904997D01*
X6895000Y4675081D01*
X6934987Y4625097D02*
X6895000D01*
X6914993D01*
X6924990Y4615100D01*
X6934987Y4605104D01*
Y4595107D01*
X6895000Y4535126D02*
X6954981D01*
X6924990Y4565116D01*
Y4525129D01*
X7040000Y3101981D02*
Y3051997D01*
X7049997Y3042000D01*
X7069990D01*
X7079987Y3051997D01*
Y3101981D01*
X7099981Y3042000D02*
Y3081987D01*
X7119974Y3101981D01*
X7139968Y3081987D01*
Y3042000D01*
Y3071990D01*
X7099981D01*
X7159961Y3042000D02*
Y3101981D01*
X7189952D01*
X7199948Y3091984D01*
Y3071990D01*
X7189952Y3061994D01*
X7159961D01*
X7179955D02*
X7199948Y3042000D01*
X7219942Y3101981D02*
X7259929D01*
X7239935D01*
Y3042000D01*
X7279922Y3032003D02*
X7319909D01*
X7339903Y3101981D02*
X7379890D01*
X7359896D01*
Y3042000D01*
X7399884Y3101981D02*
X7439871Y3042000D01*
Y3101981D02*
X7399884Y3042000D01*
X7459864D02*
X7479858D01*
X7469861D01*
Y3101981D01*
X7459864Y3091984D01*
X7050000Y3261209D02*
Y3211225D01*
X7059997Y3201228D01*
X7079990D01*
X7089987Y3211225D01*
Y3261209D01*
X7109981Y3201228D02*
Y3241215D01*
X7129974Y3261209D01*
X7149968Y3241215D01*
Y3201228D01*
Y3231219D01*
X7109981D01*
X7169961Y3201228D02*
Y3261209D01*
X7199952D01*
X7209948Y3251212D01*
Y3231219D01*
X7199952Y3221222D01*
X7169961D01*
X7189955D02*
X7209948Y3201228D01*
X7229942Y3261209D02*
X7269929D01*
X7249935D01*
Y3201228D01*
X7289922Y3191232D02*
X7329909D01*
X7349903Y3201228D02*
Y3261209D01*
X7379893D01*
X7389890Y3251212D01*
Y3231219D01*
X7379893Y3221222D01*
X7349903D01*
X7369896D02*
X7389890Y3201228D01*
X7409884Y3261209D02*
X7449871Y3201228D01*
Y3261209D02*
X7409884Y3201228D01*
X7469864D02*
X7489858D01*
X7479861D01*
Y3261209D01*
X7469864Y3251212D01*
X8543000Y2913981D02*
X8582987D01*
X8562994D01*
Y2854000D01*
X8642968Y2913981D02*
X8602981D01*
Y2854000D01*
X8642968D01*
X8602981Y2883990D02*
X8622974D01*
X8702948Y2903984D02*
X8692951Y2913981D01*
X8672958D01*
X8662961Y2903984D01*
Y2893987D01*
X8672958Y2883990D01*
X8692951D01*
X8702948Y2873994D01*
Y2863997D01*
X8692951Y2854000D01*
X8672958D01*
X8662961Y2863997D01*
X8722942Y2913981D02*
X8762929D01*
X8742935D01*
Y2854000D01*
X8782922Y2844003D02*
X8822909D01*
X8842903Y2913981D02*
Y2863997D01*
X8852900Y2854000D01*
X8872893D01*
X8882890Y2863997D01*
Y2913981D01*
X8942871Y2903984D02*
X8932874Y2913981D01*
X8912880D01*
X8902884Y2903984D01*
Y2893987D01*
X8912880Y2883990D01*
X8932874D01*
X8942871Y2873994D01*
Y2863997D01*
X8932874Y2854000D01*
X8912880D01*
X8902884Y2863997D01*
X8962864Y2913981D02*
Y2854000D01*
X8992854D01*
X9002851Y2863997D01*
Y2873994D01*
X8992854Y2883990D01*
X8962864D01*
X8992854D01*
X9002851Y2893987D01*
Y2903984D01*
X8992854Y2913981D01*
X8962864D01*
X9022845D02*
Y2854000D01*
X9052835D01*
X9062832Y2863997D01*
Y2903984D01*
X9052835Y2913981D01*
X9022845D01*
X9082825Y2844003D02*
X9122812D01*
X9142806Y2854000D02*
Y2913981D01*
X9172796D01*
X9182793Y2903984D01*
Y2883990D01*
X9172796Y2873994D01*
X9142806D01*
X9202787Y2854000D02*
X9222780D01*
X9212783D01*
Y2913981D01*
X9202787Y2903984D01*
X8602000Y3121981D02*
X8641987D01*
X8621994D01*
Y3062000D01*
X8701968Y3121981D02*
X8661981D01*
Y3062000D01*
X8701968D01*
X8661981Y3091990D02*
X8681974D01*
X8761948Y3111984D02*
X8751951Y3121981D01*
X8731958D01*
X8721961Y3111984D01*
Y3101987D01*
X8731958Y3091990D01*
X8751951D01*
X8761948Y3081994D01*
Y3071997D01*
X8751951Y3062000D01*
X8731958D01*
X8721961Y3071997D01*
X8781942Y3121981D02*
X8821929D01*
X8801935D01*
Y3062000D01*
X8841922Y3052003D02*
X8881909D01*
X8901903Y3121981D02*
Y3071997D01*
X8911900Y3062000D01*
X8931893D01*
X8941890Y3071997D01*
Y3121981D01*
X9001871Y3111984D02*
X8991874Y3121981D01*
X8971880D01*
X8961884Y3111984D01*
Y3101987D01*
X8971880Y3091990D01*
X8991874D01*
X9001871Y3081994D01*
Y3071997D01*
X8991874Y3062000D01*
X8971880D01*
X8961884Y3071997D01*
X9021864Y3121981D02*
Y3062000D01*
X9051854D01*
X9061851Y3071997D01*
Y3081994D01*
X9051854Y3091990D01*
X9021864D01*
X9051854D01*
X9061851Y3101987D01*
Y3111984D01*
X9051854Y3121981D01*
X9021864D01*
X9081845D02*
Y3062000D01*
X9111835D01*
X9121832Y3071997D01*
Y3111984D01*
X9111835Y3121981D01*
X9081845D01*
X9141825Y3052003D02*
X9181812D01*
X9201806Y3062000D02*
Y3121981D01*
X9241793Y3062000D01*
Y3121981D01*
X9261787Y3062000D02*
X9281780D01*
X9271783D01*
Y3121981D01*
X9261787Y3111984D01*
X5792000Y3511981D02*
X5831987D01*
X5811993D01*
Y3452000D01*
X5891968Y3511981D02*
X5851981D01*
Y3452000D01*
X5891968D01*
X5851981Y3481990D02*
X5871974D01*
X5951948Y3501984D02*
X5941952Y3511981D01*
X5921958D01*
X5911961Y3501984D01*
Y3491987D01*
X5921958Y3481990D01*
X5941952D01*
X5951948Y3471994D01*
Y3461997D01*
X5941952Y3452000D01*
X5921958D01*
X5911961Y3461997D01*
X5971942Y3511981D02*
X6011929D01*
X5991935D01*
Y3452000D01*
X6031922Y3442003D02*
X6071909D01*
X6131890Y3501984D02*
X6121893Y3511981D01*
X6101900D01*
X6091903Y3501984D01*
Y3461997D01*
X6101900Y3452000D01*
X6121893D01*
X6131890Y3461997D01*
X6151884Y3452000D02*
Y3491987D01*
X6171877Y3511981D01*
X6191871Y3491987D01*
Y3452000D01*
Y3481990D01*
X6151884D01*
X6211864Y3452000D02*
Y3511981D01*
X6251851Y3452000D01*
Y3511981D01*
X6271845D02*
X6311832D01*
X6291838D01*
Y3452000D01*
X6331825Y3511981D02*
X6371812Y3452000D01*
Y3511981D02*
X6331825Y3452000D01*
X6391806D02*
X6411800D01*
X6401803D01*
Y3511981D01*
X6391806Y3501984D01*
X5786000Y3601981D02*
X5825987D01*
X5805993D01*
Y3542000D01*
X5885968Y3601981D02*
X5845981D01*
Y3542000D01*
X5885968D01*
X5845981Y3571990D02*
X5865974D01*
X5945948Y3591984D02*
X5935952Y3601981D01*
X5915958D01*
X5905961Y3591984D01*
Y3581987D01*
X5915958Y3571990D01*
X5935952D01*
X5945948Y3561994D01*
Y3551997D01*
X5935952Y3542000D01*
X5915958D01*
X5905961Y3551997D01*
X5965942Y3601981D02*
X6005929D01*
X5985935D01*
Y3542000D01*
X6025922Y3532003D02*
X6065909D01*
X6125890Y3591984D02*
X6115893Y3601981D01*
X6095900D01*
X6085903Y3591984D01*
Y3551997D01*
X6095900Y3542000D01*
X6115893D01*
X6125890Y3551997D01*
X6145884Y3542000D02*
Y3581987D01*
X6165877Y3601981D01*
X6185871Y3581987D01*
Y3542000D01*
Y3571990D01*
X6145884D01*
X6205864Y3542000D02*
Y3601981D01*
X6245851Y3542000D01*
Y3601981D01*
X6265845Y3542000D02*
Y3601981D01*
X6295835D01*
X6305832Y3591984D01*
Y3571990D01*
X6295835Y3561994D01*
X6265845D01*
X6285838D02*
X6305832Y3542000D01*
X6325825Y3601981D02*
X6365812Y3542000D01*
Y3601981D02*
X6325825Y3542000D01*
X6385806D02*
X6405800D01*
X6395803D01*
Y3601981D01*
X6385806Y3591984D01*
X1603000Y3713981D02*
X1642987D01*
X1622994D01*
Y3654000D01*
X1702968Y3713981D02*
X1662981D01*
Y3654000D01*
X1702968D01*
X1662981Y3683990D02*
X1682974D01*
X1762948Y3703984D02*
X1752951Y3713981D01*
X1732958D01*
X1722961Y3703984D01*
Y3693987D01*
X1732958Y3683990D01*
X1752951D01*
X1762948Y3673994D01*
Y3663997D01*
X1752951Y3654000D01*
X1732958D01*
X1722961Y3663997D01*
X1782942Y3713981D02*
X1822929D01*
X1802935D01*
Y3654000D01*
X1842922Y3644003D02*
X1882909D01*
X1942890Y3703984D02*
X1932893Y3713981D01*
X1912900D01*
X1902903Y3703984D01*
Y3663997D01*
X1912900Y3654000D01*
X1932893D01*
X1942890Y3663997D01*
X1962884Y3654000D02*
Y3693987D01*
X1982877Y3713981D01*
X2002871Y3693987D01*
Y3654000D01*
Y3683990D01*
X1962884D01*
X2022864Y3654000D02*
Y3713981D01*
X2062851Y3654000D01*
Y3713981D01*
X2082845Y3654000D02*
Y3713981D01*
X2112835D01*
X2122832Y3703984D01*
Y3683990D01*
X2112835Y3673994D01*
X2082845D01*
X2142825Y3654000D02*
X2162819D01*
X2152822D01*
Y3713981D01*
X2142825Y3703984D01*
X1623000Y4017981D02*
X1662987D01*
X1642994D01*
Y3958000D01*
X1722968Y4017981D02*
X1682981D01*
Y3958000D01*
X1722968D01*
X1682981Y3987990D02*
X1702974D01*
X1782948Y4007984D02*
X1772951Y4017981D01*
X1752958D01*
X1742961Y4007984D01*
Y3997987D01*
X1752958Y3987990D01*
X1772951D01*
X1782948Y3977994D01*
Y3967997D01*
X1772951Y3958000D01*
X1752958D01*
X1742961Y3967997D01*
X1802942Y4017981D02*
X1842929D01*
X1822935D01*
Y3958000D01*
X1862922Y3948003D02*
X1902909D01*
X1962890Y4007984D02*
X1952893Y4017981D01*
X1932900D01*
X1922903Y4007984D01*
Y3967997D01*
X1932900Y3958000D01*
X1952893D01*
X1962890Y3967997D01*
X1982884Y3958000D02*
Y3997987D01*
X2002877Y4017981D01*
X2022871Y3997987D01*
Y3958000D01*
Y3987990D01*
X1982884D01*
X2042864Y3958000D02*
Y4017981D01*
X2082851Y3958000D01*
Y4017981D01*
X2102845Y3958000D02*
Y4017981D01*
X2142832Y3958000D01*
Y4017981D01*
X2162825Y3958000D02*
X2182819D01*
X2172822D01*
Y4017981D01*
X2162825Y4007984D01*
X1844000Y2749000D02*
X1784019D01*
Y2778990D01*
X1794016Y2788987D01*
X1814010D01*
X1824006Y2778990D01*
Y2749000D01*
X1784019Y2808981D02*
X1844000D01*
X1824006Y2828974D01*
X1844000Y2848968D01*
X1784019D01*
X1844000Y2868961D02*
X1784019D01*
Y2898952D01*
X1794016Y2908948D01*
X1814010D01*
X1824006Y2898952D01*
Y2868961D01*
Y2888955D02*
X1844000Y2908948D01*
X1853997Y2928942D02*
Y2968929D01*
X1784019Y3018913D02*
Y2998919D01*
X1794016Y2988922D01*
X1834003D01*
X1844000Y2998919D01*
Y3018913D01*
X1834003Y3028910D01*
X1794016D01*
X1784019Y3018913D01*
Y3048903D02*
X1834003D01*
X1844000Y3058900D01*
Y3078893D01*
X1834003Y3088890D01*
X1784019D01*
Y3108884D02*
Y3148871D01*
Y3128877D01*
X1844000D01*
Y3168864D02*
Y3188858D01*
Y3178861D01*
X1784019D01*
X1794016Y3168864D01*
X1508000Y3420000D02*
Y3479981D01*
X1537990D01*
X1547987Y3469984D01*
Y3449990D01*
X1537990Y3439994D01*
X1508000D01*
X1567981Y3479981D02*
Y3420000D01*
X1587974Y3439994D01*
X1607968Y3420000D01*
Y3479981D01*
X1627961Y3420000D02*
Y3479981D01*
X1657951D01*
X1667948Y3469984D01*
Y3449990D01*
X1657951Y3439994D01*
X1627961D01*
X1647955D02*
X1667948Y3420000D01*
X1687942Y3410003D02*
X1727929D01*
X1747922Y3479981D02*
X1767916D01*
X1757919D01*
Y3420000D01*
X1747922D01*
X1767916D01*
X1797906D02*
Y3479981D01*
X1837893Y3420000D01*
Y3479981D01*
X1857887Y3420000D02*
X1877880D01*
X1867884D01*
Y3479981D01*
X1857887Y3469984D01*
X2056990Y3171981D02*
X2036997D01*
X2027000Y3161984D01*
Y3121997D01*
X2036997Y3112000D01*
X2056990D01*
X2066987Y3121997D01*
Y3161984D01*
X2056990Y3171981D01*
X2086981D02*
Y3131994D01*
X2106974Y3112000D01*
X2126968Y3131994D01*
Y3171981D01*
X2146961Y3112000D02*
Y3171981D01*
X2176952D01*
X2186948Y3161984D01*
Y3141990D01*
X2176952Y3131994D01*
X2146961D01*
X2206942Y3102003D02*
X2246929D01*
X2306910Y3161984D02*
X2296913Y3171981D01*
X2276919D01*
X2266922Y3161984D01*
Y3121997D01*
X2276919Y3112000D01*
X2296913D01*
X2306910Y3121997D01*
Y3141990D01*
X2286916D01*
X2326903Y3112000D02*
X2346896D01*
X2336900D01*
Y3171981D01*
X2326903Y3161984D01*
X259323Y4206374D02*
X299310Y4146394D01*
Y4206374D02*
X259323Y4146394D01*
X319303D02*
X339297D01*
X329300D01*
Y4206374D01*
X319303Y4196377D01*
X7933000Y3434981D02*
Y3384997D01*
X7942997Y3375000D01*
X7962990D01*
X7972987Y3384997D01*
Y3434981D01*
X8032968D02*
X8012974Y3424984D01*
X7992981Y3404990D01*
Y3384997D01*
X8002977Y3375000D01*
X8022971D01*
X8032968Y3384997D01*
Y3394994D01*
X8022971Y3404990D01*
X7992981D01*
X2680300Y3172081D02*
Y3122097D01*
X2690297Y3112100D01*
X2710290D01*
X2720287Y3122097D01*
Y3172081D01*
X2740281Y3162084D02*
X2750277Y3172081D01*
X2770271D01*
X2780268Y3162084D01*
Y3152087D01*
X2770271Y3142090D01*
X2760274D01*
X2770271D01*
X2780268Y3132093D01*
Y3122097D01*
X2770271Y3112100D01*
X2750277D01*
X2740281Y3122097D01*
X3300134Y3630579D02*
Y3580595D01*
X3310131Y3570599D01*
X3330124D01*
X3340121Y3580595D01*
Y3630579D01*
X3360114Y3570599D02*
X3380108D01*
X3370111D01*
Y3630579D01*
X3360114Y3620582D01*
X5048000Y3928981D02*
Y3878997D01*
X5057997Y3869000D01*
X5077990D01*
X5087987Y3878997D01*
Y3928981D01*
X5147968Y3869000D02*
X5107981D01*
X5147968Y3908987D01*
Y3918984D01*
X5137971Y3928981D01*
X5117977D01*
X5107981Y3918984D01*
X2494000Y4025981D02*
Y3975997D01*
X2503997Y3966000D01*
X2523990D01*
X2533987Y3975997D01*
Y4025981D01*
X2583971Y3966000D02*
Y4025981D01*
X2553981Y3995990D01*
X2593968D01*
X1888000Y3171981D02*
X1927987D01*
X1907994D01*
Y3112000D01*
X1947981D02*
X1967974D01*
X1957977D01*
Y3171981D01*
X1947981Y3161984D01*
X1873984Y2581013D02*
X1883981Y2591010D01*
Y2611003D01*
X1873984Y2621000D01*
X1863987D01*
X1853990Y2611003D01*
Y2591010D01*
X1843994Y2581013D01*
X1833997D01*
X1824000Y2591010D01*
Y2611003D01*
X1833997Y2621000D01*
X1824000Y2531029D02*
Y2551023D01*
X1833997Y2561019D01*
X1853990D01*
X1863987Y2551023D01*
Y2531029D01*
X1853990Y2521032D01*
X1843994D01*
Y2561019D01*
X1824000Y2501039D02*
X1863987D01*
Y2471048D01*
X1853990Y2461052D01*
X1824000D01*
Y2441058D02*
Y2411068D01*
X1833997Y2401071D01*
X1843994Y2411068D01*
Y2431061D01*
X1853990Y2441058D01*
X1863987Y2431061D01*
Y2401071D01*
X1824000Y2371081D02*
Y2351087D01*
X1833997Y2341090D01*
X1853990D01*
X1863987Y2351087D01*
Y2371081D01*
X1853990Y2381078D01*
X1833997D01*
X1824000Y2371081D01*
X1863987Y2321097D02*
X1824000D01*
X1843994D01*
X1853990Y2311100D01*
X1863987Y2301104D01*
Y2291107D01*
X1824000Y2221129D02*
Y2261116D01*
X1863987Y2221129D01*
X1873984D01*
X1883981Y2231126D01*
Y2251120D01*
X1873984Y2261116D01*
Y2201136D02*
X1883981Y2191139D01*
Y2171146D01*
X1873984Y2161149D01*
X1833997D01*
X1824000Y2171146D01*
Y2191139D01*
X1833997Y2201136D01*
X1873984D01*
X2693984Y2585013D02*
X2703981Y2595010D01*
Y2615003D01*
X2693984Y2625000D01*
X2683987D01*
X2673990Y2615003D01*
Y2595010D01*
X2663994Y2585013D01*
X2653997D01*
X2644000Y2595010D01*
Y2615003D01*
X2653997Y2625000D01*
X2644000Y2535029D02*
Y2555023D01*
X2653997Y2565019D01*
X2673990D01*
X2683987Y2555023D01*
Y2535029D01*
X2673990Y2525032D01*
X2663994D01*
Y2565019D01*
X2644000Y2505039D02*
X2683987D01*
Y2475048D01*
X2673990Y2465052D01*
X2644000D01*
Y2445058D02*
Y2415068D01*
X2653997Y2405071D01*
X2663994Y2415068D01*
Y2435061D01*
X2673990Y2445058D01*
X2683987Y2435061D01*
Y2405071D01*
X2644000Y2375081D02*
Y2355087D01*
X2653997Y2345090D01*
X2673990D01*
X2683987Y2355087D01*
Y2375081D01*
X2673990Y2385078D01*
X2653997D01*
X2644000Y2375081D01*
X2683987Y2325097D02*
X2644000D01*
X2663994D01*
X2673990Y2315100D01*
X2683987Y2305104D01*
Y2295107D01*
X2644000Y2265116D02*
Y2245123D01*
Y2255120D01*
X2703981D01*
X2693984Y2265116D01*
X2653997Y2215133D02*
X2644000Y2205136D01*
Y2185142D01*
X2653997Y2175146D01*
X2693984D01*
X2703981Y2185142D01*
Y2205136D01*
X2693984Y2215133D01*
X2683987D01*
X2673990Y2205136D01*
Y2175146D01*
X3553984Y2584013D02*
X3563981Y2594010D01*
Y2614003D01*
X3553984Y2624000D01*
X3543987D01*
X3533990Y2614003D01*
Y2594010D01*
X3523994Y2584013D01*
X3513997D01*
X3504000Y2594010D01*
Y2614003D01*
X3513997Y2624000D01*
X3504000Y2534029D02*
Y2554023D01*
X3513997Y2564019D01*
X3533990D01*
X3543987Y2554023D01*
Y2534029D01*
X3533990Y2524032D01*
X3523994D01*
Y2564019D01*
X3504000Y2504039D02*
X3543987D01*
Y2474048D01*
X3533990Y2464052D01*
X3504000D01*
Y2444058D02*
Y2414068D01*
X3513997Y2404071D01*
X3523994Y2414068D01*
Y2434061D01*
X3533990Y2444058D01*
X3543987Y2434061D01*
Y2404071D01*
X3504000Y2374081D02*
Y2354087D01*
X3513997Y2344090D01*
X3533990D01*
X3543987Y2354087D01*
Y2374081D01*
X3533990Y2384078D01*
X3513997D01*
X3504000Y2374081D01*
X3543987Y2324097D02*
X3504000D01*
X3523994D01*
X3533990Y2314100D01*
X3543987Y2304104D01*
Y2294107D01*
X3504000Y2264116D02*
Y2244123D01*
Y2254120D01*
X3563981D01*
X3553984Y2264116D01*
Y2214133D02*
X3563981Y2204136D01*
Y2184142D01*
X3553984Y2174146D01*
X3543987D01*
X3533990Y2184142D01*
X3523994Y2174146D01*
X3513997D01*
X3504000Y2184142D01*
Y2204136D01*
X3513997Y2214133D01*
X3523994D01*
X3533990Y2204136D01*
X3543987Y2214133D01*
X3553984D01*
X3533990Y2204136D02*
Y2184142D01*
X4421984Y2580013D02*
X4431981Y2590010D01*
Y2610003D01*
X4421984Y2620000D01*
X4411987D01*
X4401990Y2610003D01*
Y2590010D01*
X4391993Y2580013D01*
X4381997D01*
X4372000Y2590010D01*
Y2610003D01*
X4381997Y2620000D01*
X4372000Y2530029D02*
Y2550023D01*
X4381997Y2560019D01*
X4401990D01*
X4411987Y2550023D01*
Y2530029D01*
X4401990Y2520032D01*
X4391993D01*
Y2560019D01*
X4372000Y2500039D02*
X4411987D01*
Y2470048D01*
X4401990Y2460052D01*
X4372000D01*
Y2440058D02*
Y2410068D01*
X4381997Y2400071D01*
X4391993Y2410068D01*
Y2430061D01*
X4401990Y2440058D01*
X4411987Y2430061D01*
Y2400071D01*
X4372000Y2370081D02*
Y2350087D01*
X4381997Y2340090D01*
X4401990D01*
X4411987Y2350087D01*
Y2370081D01*
X4401990Y2380078D01*
X4381997D01*
X4372000Y2370081D01*
X4411987Y2320097D02*
X4372000D01*
X4391993D01*
X4401990Y2310100D01*
X4411987Y2300104D01*
Y2290107D01*
X4372000Y2260116D02*
Y2240123D01*
Y2250120D01*
X4431981D01*
X4421984Y2260116D01*
X4431981Y2210133D02*
Y2170146D01*
X4421984D01*
X4381997Y2210133D01*
X4372000D01*
X5312984Y2585013D02*
X5322981Y2595010D01*
Y2615003D01*
X5312984Y2625000D01*
X5302987D01*
X5292990Y2615003D01*
Y2595010D01*
X5282993Y2585013D01*
X5272997D01*
X5263000Y2595010D01*
Y2615003D01*
X5272997Y2625000D01*
X5263000Y2535029D02*
Y2555023D01*
X5272997Y2565019D01*
X5292990D01*
X5302987Y2555023D01*
Y2535029D01*
X5292990Y2525032D01*
X5282993D01*
Y2565019D01*
X5263000Y2505039D02*
X5302987D01*
Y2475048D01*
X5292990Y2465052D01*
X5263000D01*
Y2445058D02*
Y2415068D01*
X5272997Y2405071D01*
X5282993Y2415068D01*
Y2435061D01*
X5292990Y2445058D01*
X5302987Y2435061D01*
Y2405071D01*
X5263000Y2375081D02*
Y2355087D01*
X5272997Y2345090D01*
X5292990D01*
X5302987Y2355087D01*
Y2375081D01*
X5292990Y2385078D01*
X5272997D01*
X5263000Y2375081D01*
X5302987Y2325097D02*
X5263000D01*
X5282993D01*
X5292990Y2315100D01*
X5302987Y2305104D01*
Y2295107D01*
X5263000Y2265116D02*
Y2245123D01*
Y2255120D01*
X5322981D01*
X5312984Y2265116D01*
X5322981Y2175146D02*
X5312984Y2195139D01*
X5292990Y2215133D01*
X5272997D01*
X5263000Y2205136D01*
Y2185142D01*
X5272997Y2175146D01*
X5282993D01*
X5292990Y2185142D01*
Y2215133D01*
X6996984Y2583013D02*
X7006981Y2593010D01*
Y2613003D01*
X6996984Y2623000D01*
X6986987D01*
X6976990Y2613003D01*
Y2593010D01*
X6966993Y2583013D01*
X6956997D01*
X6947000Y2593010D01*
Y2613003D01*
X6956997Y2623000D01*
X6947000Y2533029D02*
Y2553023D01*
X6956997Y2563019D01*
X6976990D01*
X6986987Y2553023D01*
Y2533029D01*
X6976990Y2523032D01*
X6966993D01*
Y2563019D01*
X6947000Y2503039D02*
X6986987D01*
Y2473048D01*
X6976990Y2463052D01*
X6947000D01*
Y2443058D02*
Y2413068D01*
X6956997Y2403071D01*
X6966993Y2413068D01*
Y2433061D01*
X6976990Y2443058D01*
X6986987Y2433061D01*
Y2403071D01*
X6947000Y2373081D02*
Y2353087D01*
X6956997Y2343090D01*
X6976990D01*
X6986987Y2353087D01*
Y2373081D01*
X6976990Y2383078D01*
X6956997D01*
X6947000Y2373081D01*
X6986987Y2323097D02*
X6947000D01*
X6966993D01*
X6976990Y2313100D01*
X6986987Y2303104D01*
Y2293107D01*
X6947000Y2263116D02*
Y2243123D01*
Y2253120D01*
X7006981D01*
X6996984Y2263116D01*
X6947000Y2183142D02*
X7006981D01*
X6976990Y2213133D01*
Y2173146D01*
X7863984Y2589013D02*
X7873981Y2599010D01*
Y2619003D01*
X7863984Y2629000D01*
X7853987D01*
X7843990Y2619003D01*
Y2599010D01*
X7833993Y2589013D01*
X7823997D01*
X7814000Y2599010D01*
Y2619003D01*
X7823997Y2629000D01*
X7814000Y2539029D02*
Y2559023D01*
X7823997Y2569019D01*
X7843990D01*
X7853987Y2559023D01*
Y2539029D01*
X7843990Y2529032D01*
X7833993D01*
Y2569019D01*
X7814000Y2509039D02*
X7853987D01*
Y2479048D01*
X7843990Y2469052D01*
X7814000D01*
Y2449058D02*
Y2419068D01*
X7823997Y2409071D01*
X7833993Y2419068D01*
Y2439061D01*
X7843990Y2449058D01*
X7853987Y2439061D01*
Y2409071D01*
X7814000Y2379081D02*
Y2359087D01*
X7823997Y2349090D01*
X7843990D01*
X7853987Y2359087D01*
Y2379081D01*
X7843990Y2389078D01*
X7823997D01*
X7814000Y2379081D01*
X7853987Y2329097D02*
X7814000D01*
X7833993D01*
X7843990Y2319100D01*
X7853987Y2309104D01*
Y2299107D01*
X7814000Y2269116D02*
Y2249123D01*
Y2259120D01*
X7873981D01*
X7863984Y2269116D01*
Y2219133D02*
X7873981Y2209136D01*
Y2189142D01*
X7863984Y2179146D01*
X7853987D01*
X7843990Y2189142D01*
Y2199139D01*
Y2189142D01*
X7833993Y2179146D01*
X7823997D01*
X7814000Y2189142D01*
Y2209136D01*
X7823997Y2219133D01*
X8704984Y2568013D02*
X8714981Y2578010D01*
Y2598003D01*
X8704984Y2608000D01*
X8694987D01*
X8684990Y2598003D01*
Y2578010D01*
X8674994Y2568013D01*
X8664997D01*
X8655000Y2578010D01*
Y2598003D01*
X8664997Y2608000D01*
X8655000Y2518029D02*
Y2538023D01*
X8664997Y2548019D01*
X8684990D01*
X8694987Y2538023D01*
Y2518029D01*
X8684990Y2508032D01*
X8674994D01*
Y2548019D01*
X8655000Y2488039D02*
X8694987D01*
Y2458048D01*
X8684990Y2448052D01*
X8655000D01*
Y2428058D02*
Y2398068D01*
X8664997Y2388071D01*
X8674994Y2398068D01*
Y2418061D01*
X8684990Y2428058D01*
X8694987Y2418061D01*
Y2388071D01*
X8655000Y2358081D02*
Y2338087D01*
X8664997Y2328090D01*
X8684990D01*
X8694987Y2338087D01*
Y2358081D01*
X8684990Y2368078D01*
X8664997D01*
X8655000Y2358081D01*
X8694987Y2308097D02*
X8655000D01*
X8674994D01*
X8684990Y2298100D01*
X8694987Y2288104D01*
Y2278107D01*
X8655000Y2248116D02*
Y2228123D01*
Y2238120D01*
X8714981D01*
X8704984Y2248116D01*
X8655000Y2198133D02*
Y2178139D01*
Y2188136D01*
X8714981D01*
X8704984Y2198133D01*
X1847984Y4922013D02*
X1857981Y4932010D01*
Y4952003D01*
X1847984Y4962000D01*
X1837987D01*
X1827990Y4952003D01*
Y4932010D01*
X1817994Y4922013D01*
X1807997D01*
X1798000Y4932010D01*
Y4952003D01*
X1807997Y4962000D01*
X1798000Y4872029D02*
Y4892023D01*
X1807997Y4902019D01*
X1827990D01*
X1837987Y4892023D01*
Y4872029D01*
X1827990Y4862032D01*
X1817994D01*
Y4902019D01*
X1798000Y4842039D02*
X1837987D01*
Y4812048D01*
X1827990Y4802052D01*
X1798000D01*
Y4782058D02*
Y4752068D01*
X1807997Y4742071D01*
X1817994Y4752068D01*
Y4772061D01*
X1827990Y4782058D01*
X1837987Y4772061D01*
Y4742071D01*
X1798000Y4712081D02*
Y4692087D01*
X1807997Y4682091D01*
X1827990D01*
X1837987Y4692087D01*
Y4712081D01*
X1827990Y4722078D01*
X1807997D01*
X1798000Y4712081D01*
X1837987Y4662097D02*
X1798000D01*
X1817994D01*
X1827990Y4652100D01*
X1837987Y4642104D01*
Y4632107D01*
X1798000Y4602116D02*
Y4582123D01*
Y4592120D01*
X1857981D01*
X1847984Y4602116D01*
Y4552133D02*
X1857981Y4542136D01*
Y4522142D01*
X1847984Y4512145D01*
X1807997D01*
X1798000Y4522142D01*
Y4542136D01*
X1807997Y4552133D01*
X1847984D01*
X2695984Y4906013D02*
X2705981Y4916010D01*
Y4936003D01*
X2695984Y4946000D01*
X2685987D01*
X2675990Y4936003D01*
Y4916010D01*
X2665994Y4906013D01*
X2655997D01*
X2646000Y4916010D01*
Y4936003D01*
X2655997Y4946000D01*
X2646000Y4856029D02*
Y4876023D01*
X2655997Y4886019D01*
X2675990D01*
X2685987Y4876023D01*
Y4856029D01*
X2675990Y4846032D01*
X2665994D01*
Y4886019D01*
X2646000Y4826039D02*
X2685987D01*
Y4796048D01*
X2675990Y4786052D01*
X2646000D01*
Y4766058D02*
Y4736068D01*
X2655997Y4726071D01*
X2665994Y4736068D01*
Y4756061D01*
X2675990Y4766058D01*
X2685987Y4756061D01*
Y4726071D01*
X2646000Y4696081D02*
Y4676087D01*
X2655997Y4666091D01*
X2675990D01*
X2685987Y4676087D01*
Y4696081D01*
X2675990Y4706078D01*
X2655997D01*
X2646000Y4696081D01*
X2685987Y4646097D02*
X2646000D01*
X2665994D01*
X2675990Y4636100D01*
X2685987Y4626104D01*
Y4616107D01*
X2655997Y4586116D02*
X2646000Y4576120D01*
Y4556126D01*
X2655997Y4546129D01*
X2695984D01*
X2705981Y4556126D01*
Y4576120D01*
X2695984Y4586116D01*
X2685987D01*
X2675990Y4576120D01*
Y4546129D01*
X3543984Y4913013D02*
X3553981Y4923010D01*
Y4943003D01*
X3543984Y4953000D01*
X3533987D01*
X3523990Y4943003D01*
Y4923010D01*
X3513994Y4913013D01*
X3503997D01*
X3494000Y4923010D01*
Y4943003D01*
X3503997Y4953000D01*
X3494000Y4863029D02*
Y4883023D01*
X3503997Y4893019D01*
X3523990D01*
X3533987Y4883023D01*
Y4863029D01*
X3523990Y4853032D01*
X3513994D01*
Y4893019D01*
X3494000Y4833039D02*
X3533987D01*
Y4803048D01*
X3523990Y4793052D01*
X3494000D01*
Y4773058D02*
Y4743068D01*
X3503997Y4733071D01*
X3513994Y4743068D01*
Y4763061D01*
X3523990Y4773058D01*
X3533987Y4763061D01*
Y4733071D01*
X3494000Y4703081D02*
Y4683087D01*
X3503997Y4673091D01*
X3523990D01*
X3533987Y4683087D01*
Y4703081D01*
X3523990Y4713078D01*
X3503997D01*
X3494000Y4703081D01*
X3533987Y4653097D02*
X3494000D01*
X3513994D01*
X3523990Y4643100D01*
X3533987Y4633104D01*
Y4623107D01*
X3543984Y4593116D02*
X3553981Y4583120D01*
Y4563126D01*
X3543984Y4553129D01*
X3533987D01*
X3523990Y4563126D01*
X3513994Y4553129D01*
X3503997D01*
X3494000Y4563126D01*
Y4583120D01*
X3503997Y4593116D01*
X3513994D01*
X3523990Y4583120D01*
X3533987Y4593116D01*
X3543984D01*
X3523990Y4583120D02*
Y4563126D01*
X4402984Y4904013D02*
X4412981Y4914010D01*
Y4934003D01*
X4402984Y4944000D01*
X4392987D01*
X4382990Y4934003D01*
Y4914010D01*
X4372993Y4904013D01*
X4362997D01*
X4353000Y4914010D01*
Y4934003D01*
X4362997Y4944000D01*
X4353000Y4854029D02*
Y4874023D01*
X4362997Y4884019D01*
X4382990D01*
X4392987Y4874023D01*
Y4854029D01*
X4382990Y4844032D01*
X4372993D01*
Y4884019D01*
X4353000Y4824039D02*
X4392987D01*
Y4794048D01*
X4382990Y4784052D01*
X4353000D01*
Y4764058D02*
Y4734068D01*
X4362997Y4724071D01*
X4372993Y4734068D01*
Y4754061D01*
X4382990Y4764058D01*
X4392987Y4754061D01*
Y4724071D01*
X4353000Y4694081D02*
Y4674087D01*
X4362997Y4664091D01*
X4382990D01*
X4392987Y4674087D01*
Y4694081D01*
X4382990Y4704078D01*
X4362997D01*
X4353000Y4694081D01*
X4392987Y4644097D02*
X4353000D01*
X4372993D01*
X4382990Y4634100D01*
X4392987Y4624104D01*
Y4614107D01*
X4412981Y4584116D02*
Y4544129D01*
X4402984D01*
X4362997Y4584116D01*
X4353000D01*
X5241984Y4911013D02*
X5251981Y4921010D01*
Y4941003D01*
X5241984Y4951000D01*
X5231987D01*
X5221990Y4941003D01*
Y4921010D01*
X5211993Y4911013D01*
X5201997D01*
X5192000Y4921010D01*
Y4941003D01*
X5201997Y4951000D01*
X5192000Y4861029D02*
Y4881023D01*
X5201997Y4891019D01*
X5221990D01*
X5231987Y4881023D01*
Y4861029D01*
X5221990Y4851032D01*
X5211993D01*
Y4891019D01*
X5192000Y4831039D02*
X5231987D01*
Y4801048D01*
X5221990Y4791052D01*
X5192000D01*
Y4771058D02*
Y4741068D01*
X5201997Y4731071D01*
X5211993Y4741068D01*
Y4761061D01*
X5221990Y4771058D01*
X5231987Y4761061D01*
Y4731071D01*
X5192000Y4701081D02*
Y4681087D01*
X5201997Y4671091D01*
X5221990D01*
X5231987Y4681087D01*
Y4701081D01*
X5221990Y4711078D01*
X5201997D01*
X5192000Y4701081D01*
X5231987Y4651097D02*
X5192000D01*
X5211993D01*
X5221990Y4641100D01*
X5231987Y4631104D01*
Y4621107D01*
X5251981Y4551129D02*
X5241984Y4571123D01*
X5221990Y4591116D01*
X5201997D01*
X5192000Y4581120D01*
Y4561126D01*
X5201997Y4551129D01*
X5211993D01*
X5221990Y4561126D01*
Y4591116D01*
X6111984Y4880013D02*
X6121981Y4890010D01*
Y4910003D01*
X6111984Y4920000D01*
X6101987D01*
X6091990Y4910003D01*
Y4890010D01*
X6081993Y4880013D01*
X6071997D01*
X6062000Y4890010D01*
Y4910003D01*
X6071997Y4920000D01*
X6062000Y4830029D02*
Y4850023D01*
X6071997Y4860019D01*
X6091990D01*
X6101987Y4850023D01*
Y4830029D01*
X6091990Y4820032D01*
X6081993D01*
Y4860019D01*
X6062000Y4800039D02*
X6101987D01*
Y4770048D01*
X6091990Y4760052D01*
X6062000D01*
Y4740058D02*
Y4710068D01*
X6071997Y4700071D01*
X6081993Y4710068D01*
Y4730061D01*
X6091990Y4740058D01*
X6101987Y4730061D01*
Y4700071D01*
X6062000Y4670081D02*
Y4650087D01*
X6071997Y4640091D01*
X6091990D01*
X6101987Y4650087D01*
Y4670081D01*
X6091990Y4680078D01*
X6071997D01*
X6062000Y4670081D01*
X6101987Y4620097D02*
X6062000D01*
X6081993D01*
X6091990Y4610100D01*
X6101987Y4600104D01*
Y4590107D01*
X6121981Y4520129D02*
Y4560116D01*
X6091990D01*
X6101987Y4540123D01*
Y4530126D01*
X6091990Y4520129D01*
X6071997D01*
X6062000Y4530126D01*
Y4550120D01*
X6071997Y4560116D01*
X7795984Y4906013D02*
X7805981Y4916010D01*
Y4936003D01*
X7795984Y4946000D01*
X7785987D01*
X7775990Y4936003D01*
Y4916010D01*
X7765993Y4906013D01*
X7755997D01*
X7746000Y4916010D01*
Y4936003D01*
X7755997Y4946000D01*
X7746000Y4856029D02*
Y4876023D01*
X7755997Y4886019D01*
X7775990D01*
X7785987Y4876023D01*
Y4856029D01*
X7775990Y4846032D01*
X7765993D01*
Y4886019D01*
X7746000Y4826039D02*
X7785987D01*
Y4796048D01*
X7775990Y4786052D01*
X7746000D01*
Y4766058D02*
Y4736068D01*
X7755997Y4726071D01*
X7765993Y4736068D01*
Y4756061D01*
X7775990Y4766058D01*
X7785987Y4756061D01*
Y4726071D01*
X7746000Y4696081D02*
Y4676087D01*
X7755997Y4666091D01*
X7775990D01*
X7785987Y4676087D01*
Y4696081D01*
X7775990Y4706078D01*
X7755997D01*
X7746000Y4696081D01*
X7785987Y4646097D02*
X7746000D01*
X7765993D01*
X7775990Y4636100D01*
X7785987Y4626104D01*
Y4616107D01*
X7795984Y4586116D02*
X7805981Y4576120D01*
Y4556126D01*
X7795984Y4546129D01*
X7785987D01*
X7775990Y4556126D01*
Y4566123D01*
Y4556126D01*
X7765993Y4546129D01*
X7755997D01*
X7746000Y4556126D01*
Y4576120D01*
X7755997Y4586116D01*
X8667984Y4907013D02*
X8677981Y4917010D01*
Y4937003D01*
X8667984Y4947000D01*
X8657987D01*
X8647990Y4937003D01*
Y4917010D01*
X8637994Y4907013D01*
X8627997D01*
X8618000Y4917010D01*
Y4937003D01*
X8627997Y4947000D01*
X8618000Y4857029D02*
Y4877023D01*
X8627997Y4887019D01*
X8647990D01*
X8657987Y4877023D01*
Y4857029D01*
X8647990Y4847032D01*
X8637994D01*
Y4887019D01*
X8618000Y4827039D02*
X8657987D01*
Y4797048D01*
X8647990Y4787052D01*
X8618000D01*
Y4767058D02*
Y4737068D01*
X8627997Y4727071D01*
X8637994Y4737068D01*
Y4757061D01*
X8647990Y4767058D01*
X8657987Y4757061D01*
Y4727071D01*
X8618000Y4697081D02*
Y4677087D01*
X8627997Y4667091D01*
X8647990D01*
X8657987Y4677087D01*
Y4697081D01*
X8647990Y4707078D01*
X8627997D01*
X8618000Y4697081D01*
X8657987Y4647097D02*
X8618000D01*
X8637994D01*
X8647990Y4637100D01*
X8657987Y4627104D01*
Y4617107D01*
X8618000Y4547129D02*
Y4587116D01*
X8657987Y4547129D01*
X8667984D01*
X8677981Y4557126D01*
Y4577120D01*
X8667984Y4587116D01*
X9514984Y4899013D02*
X9524981Y4909010D01*
Y4929003D01*
X9514984Y4939000D01*
X9504987D01*
X9494990Y4929003D01*
Y4909010D01*
X9484994Y4899013D01*
X9474997D01*
X9465000Y4909010D01*
Y4929003D01*
X9474997Y4939000D01*
X9465000Y4849029D02*
Y4869023D01*
X9474997Y4879019D01*
X9494990D01*
X9504987Y4869023D01*
Y4849029D01*
X9494990Y4839032D01*
X9484994D01*
Y4879019D01*
X9465000Y4819039D02*
X9504987D01*
Y4789048D01*
X9494990Y4779052D01*
X9465000D01*
Y4759058D02*
Y4729068D01*
X9474997Y4719071D01*
X9484994Y4729068D01*
Y4749061D01*
X9494990Y4759058D01*
X9504987Y4749061D01*
Y4719071D01*
X9465000Y4689081D02*
Y4669087D01*
X9474997Y4659091D01*
X9494990D01*
X9504987Y4669087D01*
Y4689081D01*
X9494990Y4699078D01*
X9474997D01*
X9465000Y4689081D01*
X9504987Y4639097D02*
X9465000D01*
X9484994D01*
X9494990Y4629100D01*
X9504987Y4619104D01*
Y4609107D01*
X9465000Y4579116D02*
Y4559123D01*
Y4569120D01*
X9524981D01*
X9514984Y4579116D01*
X8537000Y3471000D02*
Y3530981D01*
X8566990D01*
X8576987Y3520984D01*
Y3500990D01*
X8566990Y3490994D01*
X8537000D01*
X8556994D02*
X8576987Y3471000D01*
X8636968D02*
X8596981D01*
X8636968Y3510987D01*
Y3520984D01*
X8626971Y3530981D01*
X8606977D01*
X8596981Y3520984D01*
X8686951Y3471000D02*
Y3530981D01*
X8656961Y3500990D01*
X8696948D01*
X8143000Y3450000D02*
Y3509981D01*
X8172990D01*
X8182987Y3499984D01*
Y3479990D01*
X8172990Y3469994D01*
X8143000D01*
X8162993D02*
X8182987Y3450000D01*
X8242968D02*
X8202981D01*
X8242968Y3489987D01*
Y3499984D01*
X8232971Y3509981D01*
X8212977D01*
X8202981Y3499984D01*
X8262961D02*
X8272958Y3509981D01*
X8292951D01*
X8302948Y3499984D01*
Y3489987D01*
X8292951Y3479990D01*
X8282955D01*
X8292951D01*
X8302948Y3469994D01*
Y3459997D01*
X8292951Y3450000D01*
X8272958D01*
X8262961Y3459997D01*
X6866000Y3353000D02*
Y3412981D01*
X6895990D01*
X6905987Y3402984D01*
Y3382990D01*
X6895990Y3372994D01*
X6866000D01*
X6885993D02*
X6905987Y3353000D01*
X6965968D02*
X6925981D01*
X6965968Y3392987D01*
Y3402984D01*
X6955971Y3412981D01*
X6935977D01*
X6925981Y3402984D01*
X7025948Y3353000D02*
X6985961D01*
X7025948Y3392987D01*
Y3402984D01*
X7015952Y3412981D01*
X6995958D01*
X6985961Y3402984D01*
X6766000Y3030000D02*
Y3089981D01*
X6795990D01*
X6805987Y3079984D01*
Y3059990D01*
X6795990Y3049994D01*
X6766000D01*
X6785993D02*
X6805987Y3030000D01*
X6865968D02*
X6825981D01*
X6865968Y3069987D01*
Y3079984D01*
X6855971Y3089981D01*
X6835977D01*
X6825981Y3079984D01*
X6885961Y3030000D02*
X6905955D01*
X6895958D01*
Y3089981D01*
X6885961Y3079984D01*
X2070000Y2956000D02*
Y3015981D01*
X2099990D01*
X2109987Y3005984D01*
Y2985990D01*
X2099990Y2975994D01*
X2070000D01*
X2089994D02*
X2109987Y2956000D01*
X2169968Y3015981D02*
X2129981D01*
Y2985990D01*
X2149974Y2995987D01*
X2159971D01*
X2169968Y2985990D01*
Y2965997D01*
X2159971Y2956000D01*
X2139977D01*
X2129981Y2965997D01*
X1888000Y3496000D02*
Y3555981D01*
X1917990D01*
X1927987Y3545984D01*
Y3525990D01*
X1917990Y3515994D01*
X1888000D01*
X1907994D02*
X1927987Y3496000D01*
X1977971D02*
Y3555981D01*
X1947981Y3525990D01*
X1987968D01*
X3140000Y3565843D02*
Y3625823D01*
X3169990D01*
X3179987Y3615826D01*
Y3595833D01*
X3169990Y3585836D01*
X3140000D01*
X3159994D02*
X3179987Y3565843D01*
X3239968D02*
X3199981D01*
X3239968Y3605830D01*
Y3615826D01*
X3229971Y3625823D01*
X3209977D01*
X3199981Y3615826D01*
X3196000Y3141000D02*
Y3200981D01*
X3225990D01*
X3235987Y3190984D01*
Y3170990D01*
X3225990Y3160994D01*
X3196000D01*
X3215994D02*
X3235987Y3141000D01*
X3255981D02*
X3275974D01*
X3265977D01*
Y3200981D01*
X3255981Y3190984D01*
X5716000Y3310000D02*
Y3369981D01*
X5745990D01*
X5755987Y3359984D01*
Y3339990D01*
X5745990Y3329994D01*
X5716000D01*
X5735993D02*
X5755987Y3310000D01*
X5815968Y3369981D02*
X5775981D01*
Y3339990D01*
X5795974Y3349987D01*
X5805971D01*
X5815968Y3339990D01*
Y3319997D01*
X5805971Y3310000D01*
X5785977D01*
X5775981Y3319997D01*
X5504591Y2870000D02*
Y2929981D01*
X5534581D01*
X5544578Y2919984D01*
Y2899990D01*
X5534581Y2889994D01*
X5504591D01*
X5524584D02*
X5544578Y2870000D01*
X5594561D02*
Y2929981D01*
X5564571Y2899990D01*
X5604558D01*
X2046000Y3705000D02*
Y3764981D01*
X2075990D01*
X2085987Y3754984D01*
Y3734990D01*
X2075990Y3724994D01*
X2046000D01*
X2065994D02*
X2085987Y3705000D01*
X2105981D02*
X2125974D01*
X2115977D01*
Y3764981D01*
X2105981Y3754984D01*
X2155964Y3764981D02*
X2195952D01*
Y3754984D01*
X2155964Y3714997D01*
Y3705000D01*
X2199000Y3949000D02*
Y4008981D01*
X2228990D01*
X2238987Y3998984D01*
Y3978990D01*
X2228990Y3968994D01*
X2199000D01*
X2218994D02*
X2238987Y3949000D01*
X2258981D02*
X2278974D01*
X2268977D01*
Y4008981D01*
X2258981Y3998984D01*
X2348952Y4008981D02*
X2328958Y3998984D01*
X2308964Y3978990D01*
Y3958997D01*
X2318961Y3949000D01*
X2338955D01*
X2348952Y3958997D01*
Y3968994D01*
X2338955Y3978990D01*
X2308964D01*
X2317000Y3462000D02*
Y3521981D01*
X2346990D01*
X2356987Y3511984D01*
Y3491990D01*
X2346990Y3481994D01*
X2317000D01*
X2406971Y3521981D02*
X2386977D01*
X2376981Y3511984D01*
Y3471997D01*
X2386977Y3462000D01*
X2406971D01*
X2416968Y3471997D01*
Y3511984D01*
X2406971Y3521981D01*
X2436961D02*
Y3462000D01*
X2456955Y3481994D01*
X2476948Y3462000D01*
Y3521981D01*
X2536929D02*
X2496942D01*
Y3462000D01*
X2536929D01*
X2496942Y3491990D02*
X2516935D01*
X2556922Y3462000D02*
Y3521981D01*
X2586913D01*
X2596910Y3511984D01*
Y3491990D01*
X2586913Y3481994D01*
X2556922D01*
X2576916D02*
X2596910Y3462000D01*
X2616903D02*
X2636896D01*
X2626900D01*
Y3521981D01*
X2616903Y3511984D01*
X5746000Y3244000D02*
Y3303981D01*
X5775990D01*
X5785987Y3293984D01*
Y3273990D01*
X5775990Y3263994D01*
X5746000D01*
X5805981Y3244000D02*
X5825974D01*
X5815977D01*
Y3303981D01*
X5805981Y3293984D01*
X2473987Y3183981D02*
X2434000D01*
Y3153990D01*
X2453994D01*
X2434000D01*
Y3124000D01*
X2493981D02*
X2513974D01*
X2503977D01*
Y3183981D01*
X2493981Y3173984D01*
X8533000Y3292981D02*
Y3233000D01*
X8562990D01*
X8572987Y3242997D01*
Y3282984D01*
X8562990Y3292981D01*
X8533000D01*
X8632968D02*
X8592981D01*
Y3262990D01*
X8612974Y3272987D01*
X8622971D01*
X8632968Y3262990D01*
Y3242997D01*
X8622971Y3233000D01*
X8602977D01*
X8592981Y3242997D01*
X8206000Y3329981D02*
Y3270000D01*
X8235990D01*
X8245987Y3279997D01*
Y3319984D01*
X8235990Y3329981D01*
X8206000D01*
X8295971Y3270000D02*
Y3329981D01*
X8265981Y3299990D01*
X8305968D01*
X1632000Y3330981D02*
Y3271000D01*
X1661990D01*
X1671987Y3280997D01*
Y3320984D01*
X1661990Y3330981D01*
X1632000D01*
X1731968Y3271000D02*
X1691981D01*
X1731968Y3310987D01*
Y3320984D01*
X1721971Y3330981D01*
X1701977D01*
X1691981Y3320984D01*
X2200000Y3334981D02*
Y3275000D01*
X2229990D01*
X2239987Y3284997D01*
Y3324984D01*
X2229990Y3334981D01*
X2200000D01*
X2259981Y3275000D02*
X2279974D01*
X2269977D01*
Y3334981D01*
X2259981Y3324984D01*
X1945000Y3982981D02*
Y3923000D01*
X1974990D01*
X1984987Y3932997D01*
Y3972984D01*
X1974990Y3982981D01*
X1945000D01*
X2004981Y3972984D02*
X2014977Y3982981D01*
X2034971D01*
X2044968Y3972984D01*
Y3962987D01*
X2034971Y3952990D01*
X2024974D01*
X2034971D01*
X2044968Y3942994D01*
Y3932997D01*
X2034971Y3923000D01*
X2014977D01*
X2004981Y3932997D01*
X8439987Y3076984D02*
X8429990Y3086981D01*
X8409997D01*
X8400000Y3076984D01*
Y3036997D01*
X8409997Y3027000D01*
X8429990D01*
X8439987Y3036997D01*
X8459981Y3027000D02*
X8479974D01*
X8469977D01*
Y3086981D01*
X8459981Y3076984D01*
X8509964Y3036997D02*
X8519961Y3027000D01*
X8539955D01*
X8549951Y3036997D01*
Y3076984D01*
X8539955Y3086981D01*
X8519961D01*
X8509964Y3076984D01*
Y3066987D01*
X8519961Y3056990D01*
X8549951D01*
X6666987Y3402984D02*
X6656990Y3412981D01*
X6636997D01*
X6627000Y3402984D01*
Y3362997D01*
X6636997Y3353000D01*
X6656990D01*
X6666987Y3362997D01*
X6686981Y3353000D02*
X6706974D01*
X6696977D01*
Y3412981D01*
X6686981Y3402984D01*
X6736964D02*
X6746961Y3412981D01*
X6766955D01*
X6776952Y3402984D01*
Y3392987D01*
X6766955Y3382990D01*
X6776952Y3372994D01*
Y3362997D01*
X6766955Y3353000D01*
X6746961D01*
X6736964Y3362997D01*
Y3372994D01*
X6746961Y3382990D01*
X6736964Y3392987D01*
Y3402984D01*
X6746961Y3382990D02*
X6766955D01*
X7681987Y3480984D02*
X7671990Y3490981D01*
X7651997D01*
X7642000Y3480984D01*
Y3440997D01*
X7651997Y3431000D01*
X7671990D01*
X7681987Y3440997D01*
X7701981Y3431000D02*
X7721974D01*
X7711977D01*
Y3490981D01*
X7701981Y3480984D01*
X7751964Y3490981D02*
X7791952D01*
Y3480984D01*
X7751964Y3440997D01*
Y3431000D01*
X3289987Y3364984D02*
X3279990Y3374981D01*
X3259997D01*
X3250000Y3364984D01*
Y3324997D01*
X3259997Y3315000D01*
X3279990D01*
X3289987Y3324997D01*
X3339971Y3315000D02*
Y3374981D01*
X3309981Y3344990D01*
X3349968D01*
X3531987Y3407244D02*
X3521990Y3417240D01*
X3501997D01*
X3492000Y3407244D01*
Y3367257D01*
X3501997Y3357260D01*
X3521990D01*
X3531987Y3367257D01*
X3551981Y3407244D02*
X3561977Y3417240D01*
X3581971D01*
X3591968Y3407244D01*
Y3397247D01*
X3581971Y3387250D01*
X3571974D01*
X3581971D01*
X3591968Y3377253D01*
Y3367257D01*
X3581971Y3357260D01*
X3561977D01*
X3551981Y3367257D01*
X3008987Y3162984D02*
X2998990Y3172981D01*
X2978997D01*
X2969000Y3162984D01*
Y3122997D01*
X2978997Y3113000D01*
X2998990D01*
X3008987Y3122997D01*
X3068968Y3113000D02*
X3028981D01*
X3068968Y3152987D01*
Y3162984D01*
X3058971Y3172981D01*
X3038977D01*
X3028981Y3162984D01*
X3040987Y3568372D02*
X3030990Y3578369D01*
X3010997D01*
X3001000Y3568372D01*
Y3528385D01*
X3010997Y3518388D01*
X3030990D01*
X3040987Y3528385D01*
X3060981Y3518388D02*
X3080974D01*
X3070977D01*
Y3578369D01*
X3060981Y3568372D01*
X6542987Y3493984D02*
X6532990Y3503981D01*
X6512997D01*
X6503000Y3493984D01*
Y3453997D01*
X6512997Y3444000D01*
X6532990D01*
X6542987Y3453997D01*
X6602968Y3503981D02*
X6562981D01*
Y3473990D01*
X6582974Y3483987D01*
X6592971D01*
X6602968Y3473990D01*
Y3453997D01*
X6592971Y3444000D01*
X6572977D01*
X6562981Y3453997D01*
X6534987Y3582984D02*
X6524990Y3592981D01*
X6504997D01*
X6495000Y3582984D01*
Y3542997D01*
X6504997Y3533000D01*
X6524990D01*
X6534987Y3542997D01*
X6594968Y3533000D02*
X6554981D01*
X6594968Y3572987D01*
Y3582984D01*
X6584971Y3592981D01*
X6564977D01*
X6554981Y3582984D01*
X6644952Y3533000D02*
Y3592981D01*
X6614961Y3562990D01*
X6654948D01*
X2940987Y3752984D02*
X2930990Y3762981D01*
X2910997D01*
X2901000Y3752984D01*
Y3712997D01*
X2910997Y3703000D01*
X2930990D01*
X2940987Y3712997D01*
X2960981Y3703000D02*
X2980974D01*
X2970977D01*
Y3762981D01*
X2960981Y3752984D01*
X3050952Y3703000D02*
X3010964D01*
X3050952Y3742987D01*
Y3752984D01*
X3040955Y3762981D01*
X3020961D01*
X3010964Y3752984D01*
X2308987Y3594984D02*
X2298990Y3604981D01*
X2278997D01*
X2269000Y3594984D01*
Y3554997D01*
X2278997Y3545000D01*
X2298990D01*
X2308987Y3554997D01*
X2328981Y3545000D02*
X2348974D01*
X2338977D01*
Y3604981D01*
X2328981Y3594984D01*
X2378964Y3545000D02*
X2398958D01*
X2388961D01*
Y3604981D01*
X2378964Y3594984D01*
D68*
X7838488Y3352795D02*
G03*
X7838488Y3352795I-4921J0D01*
G01*
X6493055Y2996134D02*
G03*
X6493055Y2996134I-4921J0D01*
G01*
X6390287Y3338937D02*
G03*
X6390287Y3338937I-4921J0D01*
G01*
X5859591Y3001000D02*
G03*
X5859591Y3001000I-4921J0D01*
G01*
X2840047Y3185535D02*
G03*
X2840047Y3185535I-4921J0D01*
G01*
X2023291Y3758197D02*
G03*
X2023291Y3758197I-4921J0D01*
G01*
X1983291Y3175197D02*
G03*
X1983291Y3175197I-4921J0D01*
G01*
X3324787Y3530866D02*
G03*
X3324787Y3530866I-4921J0D01*
G01*
X5532299Y3400803D02*
G03*
X5532299Y3400803I-4921J0D01*
G01*
X2743205Y3718535D02*
G03*
X2743205Y3718535I-4921J0D01*
G01*
X8434000Y3129000D02*
X8514000D01*
D69*
X7932976Y3315630D02*
G03*
X7932976Y3315630I-11811J0D01*
G01*
X5457496Y3431315D02*
G03*
X5457496Y3431315I-11811J0D01*
G01*
X2666433Y3767945D02*
G03*
X2666433Y3767945I-11811J0D01*
G01*
D70*
X2302937Y3271000D02*
G03*
X2302937Y3271000I-3937J0D01*
G01*
X1637685Y3393488D02*
G03*
X1637685Y3393488I-9842J0D01*
G01*
%TF.MD5,3df056d36764232f5505f5dfc90030a5*%
M02*
