%TF.GenerationSoftware,Altium Limited,Altium Designer,18.1.9 (240)*%
G04 Layer_Color=128*
%FSLAX26Y26*%
%MOIN*%
%TF.FileFunction,Drillmap*%
%TF.Part,Single*%
G01*
G75*
%TA.AperFunction,NonConductor*%
%ADD93C,0.005000*%
D93*
X1406575Y4220000D02*
X1603425D01*
X1505000Y4121575D02*
Y4318425D01*
X1461575Y1680000D02*
X1658425D01*
X1560000Y1581575D02*
Y1778425D01*
X9131575Y1640000D02*
X9328425D01*
X9230000Y1541575D02*
Y1738425D01*
X9189001Y4190000D02*
X9385852D01*
X9287426Y4091575D02*
Y4288425D01*
X6712087Y3615421D02*
X6751457D01*
X6731772Y3595736D02*
Y3635106D01*
X6712087Y3765421D02*
X6751457D01*
X6731772Y3745736D02*
Y3785106D01*
X1360354Y2995945D02*
X1429646D01*
X1395000Y2961299D02*
Y3030590D01*
X1360354Y3355000D02*
X1429646D01*
X1395000Y3320354D02*
Y3389646D01*
X1440158Y2765472D02*
X1525197D01*
X1482677Y2722953D02*
Y2807992D01*
X1440158Y3585551D02*
X1525197D01*
X1482677Y3543032D02*
Y3628071D01*
X1535551Y2995945D02*
X1604842D01*
X1570197Y2961299D02*
Y3030590D01*
X1535551Y3355000D02*
X1604842D01*
X1570197Y3320354D02*
Y3389646D01*
X5312500Y4611000D02*
X5327500D01*
X5320000Y4603500D02*
Y4618500D01*
X8632500Y3560000D02*
X8647500D01*
X8640000Y3552500D02*
Y3567500D01*
X9323951Y3700000D02*
X9338951D01*
X9331451Y3692500D02*
Y3707500D01*
X9323951Y3990000D02*
X9338951D01*
X9331451Y3982500D02*
Y3997500D01*
X8922500Y4223609D02*
X8937500D01*
X8930000Y4216109D02*
Y4231109D01*
X3307500Y4150000D02*
X3322500D01*
X3315000Y4142500D02*
Y4157500D01*
X6892500Y4005000D02*
X6907500D01*
X6900000Y3997500D02*
Y4012500D01*
X7847500Y3020870D02*
X7862500D01*
X7855000Y3013370D02*
Y3028370D01*
X7552500Y3408476D02*
X7567500D01*
X7560000Y3400976D02*
Y3415976D01*
X7602500Y3520000D02*
X7617500D01*
X7610000Y3512500D02*
Y3527500D01*
X9202500Y1335000D02*
X9217500D01*
X9210000Y1327500D02*
Y1342500D01*
X8342500Y1358024D02*
X8357500D01*
X8350000Y1350524D02*
Y1365524D01*
X7492500Y1351569D02*
X7507500D01*
X7500000Y1344069D02*
Y1359069D01*
X5773314Y1340000D02*
X5788314D01*
X5780814Y1332500D02*
Y1347500D01*
X4922500Y1364147D02*
X4937500D01*
X4930000Y1356647D02*
Y1371647D01*
X4092500Y1315000D02*
X4107500D01*
X4100000Y1307500D02*
Y1322500D01*
X3247500Y1390000D02*
X3262500D01*
X3255000Y1382500D02*
Y1397500D01*
X2377500Y1340000D02*
X2392500D01*
X2385000Y1332500D02*
Y1347500D01*
X1497500Y1365000D02*
X1512500D01*
X1505000Y1357500D02*
Y1372500D01*
X1561428Y4645000D02*
X1576428D01*
X1568928Y4637500D02*
Y4652500D01*
X2412500Y4653550D02*
X2427500D01*
X2420000Y4646050D02*
Y4661050D01*
X3292500Y4643431D02*
X3307500D01*
X3300000Y4635931D02*
Y4650931D01*
X4105138Y4625000D02*
X4120138D01*
X4112638Y4617500D02*
Y4632500D01*
X4967500Y4606462D02*
X4982500D01*
X4975000Y4598962D02*
Y4613962D01*
X9222500Y4620000D02*
X9237500D01*
X9230000Y4612500D02*
Y4627500D01*
X8347500Y4625000D02*
X8362500D01*
X8355000Y4617500D02*
Y4632500D01*
X7527500Y4606462D02*
X7542500D01*
X7535000Y4598962D02*
Y4613962D01*
X5832500Y4650000D02*
X5847500D01*
X5840000Y4642500D02*
Y4657500D01*
X6237500Y3254421D02*
X6252500D01*
X6245000Y3246921D02*
Y3261921D01*
X6053548Y3173032D02*
X6068548D01*
X6061048Y3165532D02*
Y3180532D01*
X7212500Y3401018D02*
X7227500D01*
X7220000Y3393518D02*
Y3408518D01*
X6929350Y3640000D02*
X6944350D01*
X6936850Y3632500D02*
Y3647500D01*
X7177500Y2535000D02*
X7192500D01*
X7185000Y2527500D02*
Y2542500D01*
X7532500Y3250000D02*
X7547500D01*
X7540000Y3242500D02*
Y3257500D01*
X6677500Y4715000D02*
X6692500D01*
X6685000Y4707500D02*
Y4722500D01*
X9327674Y1460000D02*
X9342674D01*
X9335174Y1452500D02*
Y1467500D01*
X8892500Y1415000D02*
X8907500D01*
X8900000Y1407500D02*
Y1422500D01*
X8847500Y1442025D02*
X8862500D01*
X8855000Y1434525D02*
Y1449525D01*
X1722500Y1605000D02*
X1737500D01*
X1730000Y1597500D02*
Y1612500D01*
X8807500Y1460000D02*
X8822500D01*
X8815000Y1452500D02*
Y1467500D01*
X8238269Y2515000D02*
X8253269D01*
X8245769Y2507500D02*
Y2522500D01*
X8702500Y3137196D02*
X8717500D01*
X8710000Y3129696D02*
Y3144696D01*
X5537500Y1450000D02*
X5552500D01*
X5545000Y1442500D02*
Y1457500D01*
X7297500Y1451976D02*
X7312500D01*
X7305000Y1444476D02*
Y1459476D01*
X8057500Y1442025D02*
X8072500D01*
X8065000Y1434525D02*
Y1449525D01*
X9022500Y1470000D02*
X9037500D01*
X9030000Y1462500D02*
Y1477500D01*
X9236756Y1875000D02*
X9251756D01*
X9244256Y1867500D02*
Y1882500D01*
X8692500Y3271508D02*
X8707500D01*
X8700000Y3264008D02*
Y3279008D01*
X7187500Y2780000D02*
X7202500D01*
X7195000Y2772500D02*
Y2787500D01*
X6857500Y3110000D02*
X6872500D01*
X6865000Y3102500D02*
Y3117500D01*
X7897500Y4583191D02*
X7912500D01*
X7905000Y4575691D02*
Y4590691D01*
X8132500Y2230000D02*
X8147500D01*
X8140000Y2222500D02*
Y2237500D01*
X4312500Y1515000D02*
X4327500D01*
X4320000Y1507500D02*
Y1522500D01*
X5152500Y2480000D02*
X5167500D01*
X5160000Y2472500D02*
Y2487500D01*
X5182500Y2435000D02*
X5197500D01*
X5190000Y2427500D02*
Y2442500D01*
X6497500Y2430000D02*
X6512500D01*
X6505000Y2422500D02*
Y2437500D01*
X8207500Y2915000D02*
X8222500D01*
X8215000Y2907500D02*
Y2922500D01*
X8247500Y2395000D02*
X8262500D01*
X8255000Y2387500D02*
Y2402500D01*
X9282500Y3060000D02*
X9297500D01*
X9290000Y3052500D02*
Y3067500D01*
X4142500Y4140000D02*
X4157500D01*
X4150000Y4132500D02*
Y4147500D01*
X3992500Y4415000D02*
X4007500D01*
X4000000Y4407500D02*
Y4422500D01*
X2177500Y4385000D02*
X2192500D01*
X2185000Y4377500D02*
Y4392500D01*
X2229500Y3165000D02*
X2244500D01*
X2237000Y3157500D02*
Y3172500D01*
X2887500Y4465000D02*
X2902500D01*
X2895000Y4457500D02*
Y4472500D01*
X5487500Y4400000D02*
X5502500D01*
X5495000Y4392500D02*
Y4407500D01*
X5392500Y4425000D02*
X5407500D01*
X5400000Y4417500D02*
Y4432500D01*
X5462500Y4505000D02*
X5477500D01*
X5470000Y4497500D02*
Y4512500D01*
X5417500Y4468431D02*
X5432500D01*
X5425000Y4460931D02*
Y4475931D01*
X6962500Y4805000D02*
X6977500D01*
X6970000Y4797500D02*
Y4812500D01*
X7037500Y4415000D02*
X7052500D01*
X7045000Y4407500D02*
Y4422500D01*
X7127500Y4470000D02*
X7142500D01*
X7135000Y4462500D02*
Y4477500D01*
X7852500Y4530000D02*
X7867500D01*
X7860000Y4522500D02*
Y4537500D01*
X8802500Y4385000D02*
X8817500D01*
X8810000Y4377500D02*
Y4392500D01*
X9217500Y4420000D02*
X9232500D01*
X9225000Y4412500D02*
Y4427500D01*
X8757500Y4465000D02*
X8772500D01*
X8765000Y4457500D02*
Y4472500D01*
X8637500Y2384000D02*
X8652500D01*
X8645000Y2376500D02*
Y2391500D01*
X8557500Y2340000D02*
X8572500D01*
X8565000Y2332500D02*
Y2347500D01*
X8592500Y2140000D02*
X8607500D01*
X8600000Y2132500D02*
Y2147500D01*
X8667500Y2305000D02*
X8682500D01*
X8675000Y2297500D02*
Y2312500D01*
X6537500Y2475000D02*
X6552500D01*
X6545000Y2467500D02*
Y2482500D01*
X5587500Y2720000D02*
X5602500D01*
X5595000Y2712500D02*
Y2727500D01*
X6687674Y2470000D02*
X6702674D01*
X6695174Y2462500D02*
Y2477500D01*
X9347500Y3173032D02*
X9362500D01*
X9355000Y3165532D02*
Y3180532D01*
X9279926Y3117426D02*
X9294926D01*
X9287426Y3109926D02*
Y3124926D01*
X3707500Y4465000D02*
X3722500D01*
X3715000Y4457500D02*
Y4472500D01*
X1932500Y4700000D02*
X1947500D01*
X1940000Y4692500D02*
Y4707500D01*
X2087500Y4510000D02*
X2102500D01*
X2095000Y4502500D02*
Y4517500D01*
X2027500Y4475000D02*
X2042500D01*
X2035000Y4467500D02*
Y4482500D01*
X3767500Y4560000D02*
X3782500D01*
X3775000Y4552500D02*
Y4567500D01*
X4649069Y4555000D02*
X4664069D01*
X4656569Y4547500D02*
Y4562500D01*
X4191870Y2120000D02*
X4206870D01*
X4199370Y2112500D02*
Y2127500D01*
X1972500Y2305000D02*
X1987500D01*
X1980000Y2297500D02*
Y2312500D01*
X3962500Y2065000D02*
X3977500D01*
X3970000Y2057500D02*
Y2072500D01*
X4422500Y2120000D02*
X4437500D01*
X4430000Y2112500D02*
Y2127500D01*
X7647500Y2985000D02*
X7662500D01*
X7655000Y2977500D02*
Y2992500D01*
X7552500Y2885000D02*
X7567500D01*
X7560000Y2877500D02*
Y2892500D01*
X6902500Y2955000D02*
X6917500D01*
X6910000Y2947500D02*
Y2962500D01*
X1896500Y3303732D02*
X1911500D01*
X1904000Y3296232D02*
Y3311232D01*
X1897500Y3215000D02*
X1912500D01*
X1905000Y3207500D02*
Y3222500D01*
X1152500Y1235000D02*
X1167500D01*
X1160000Y1227500D02*
Y1242500D01*
X2722500Y1100000D02*
X2737500D01*
X2730000Y1092500D02*
Y1107500D01*
X2837500Y1100000D02*
X2852500D01*
X2845000Y1092500D02*
Y1107500D01*
X7822500Y1305000D02*
X7837500D01*
X7830000Y1297500D02*
Y1312500D01*
X6002500Y1515000D02*
X6017500D01*
X6010000Y1507500D02*
Y1522500D01*
X5457500Y1515000D02*
X5472500D01*
X5465000Y1507500D02*
Y1522500D01*
X5332500Y1420000D02*
X5347500D01*
X5340000Y1412500D02*
Y1427500D01*
X5172500Y1510000D02*
X5187500D01*
X5180000Y1502500D02*
Y1517500D01*
X5257500Y1295000D02*
X5272500D01*
X5265000Y1287500D02*
Y1302500D01*
X8802500Y1730000D02*
X8817500D01*
X8810000Y1722500D02*
Y1737500D01*
X9402500Y1740000D02*
X9417500D01*
X9410000Y1732500D02*
Y1747500D01*
X6872500Y1515000D02*
X6887500D01*
X6880000Y1507500D02*
Y1522500D01*
X7597500Y1735000D02*
X7612500D01*
X7605000Y1727500D02*
Y1742500D01*
X9067500Y1740000D02*
X9082500D01*
X9075000Y1732500D02*
Y1747500D01*
X8927500Y1725000D02*
X8942500D01*
X8935000Y1717500D02*
Y1732500D01*
X6217500Y1702336D02*
X6232500D01*
X6225000Y1694836D02*
Y1709836D01*
X7902500Y1351569D02*
X7917500D01*
X7910000Y1344069D02*
Y1359069D01*
X2082500Y2665000D02*
X2097500D01*
X2090000Y2657500D02*
Y2672500D01*
X2357500Y2665000D02*
X2372500D01*
X2365000Y2657500D02*
Y2672500D01*
X3622500Y2670000D02*
X3637500D01*
X3630000Y2662500D02*
Y2677500D01*
X4177500Y2670000D02*
X4192500D01*
X4185000Y2662500D02*
Y2677500D01*
X4862500Y2655630D02*
X4877500D01*
X4870000Y2648130D02*
Y2663130D01*
X5012500Y2650000D02*
X5027500D01*
X5020000Y2642500D02*
Y2657500D01*
X5587500Y2650000D02*
X5602500D01*
X5595000Y2642500D02*
Y2657500D01*
X6692500Y2430000D02*
X6707500D01*
X6700000Y2422500D02*
Y2437500D01*
X5012500Y2735000D02*
X5027500D01*
X5020000Y2727500D02*
Y2742500D01*
X4862500Y2730000D02*
X4877500D01*
X4870000Y2722500D02*
Y2737500D01*
X4167500Y2730000D02*
X4182500D01*
X4175000Y2722500D02*
Y2737500D01*
X3627500Y2730000D02*
X3642500D01*
X3635000Y2722500D02*
Y2737500D01*
X2357500Y2715000D02*
X2372500D01*
X2365000Y2707500D02*
Y2722500D01*
X2082500Y2720000D02*
X2097500D01*
X2090000Y2712500D02*
Y2727500D01*
X1812500Y2795000D02*
X1827500D01*
X1820000Y2787500D02*
Y2802500D01*
X6247374Y3506508D02*
X6262374D01*
X6254874Y3499008D02*
Y3514008D01*
X6162500Y3815000D02*
X6177500D01*
X6170000Y3807500D02*
Y3822500D01*
X6617374Y3506508D02*
X6632374D01*
X6624874Y3499008D02*
Y3514008D01*
X9437500Y2605000D02*
X9452500D01*
X9445000Y2597500D02*
Y2612500D01*
X8972500Y4495000D02*
X8987500D01*
X8980000Y4487500D02*
Y4502500D01*
X8642500Y3815000D02*
X8657500D01*
X8650000Y3807500D02*
Y3822500D01*
X8542500Y4535000D02*
X8557500D01*
X8550000Y4527500D02*
Y4542500D01*
X8862500Y3875000D02*
X8877500D01*
X8870000Y3867500D02*
Y3882500D01*
X5697500Y2890000D02*
X5712500D01*
X5705000Y2882500D02*
Y2897500D01*
X5017500Y2915000D02*
X5032500D01*
X5025000Y2907500D02*
Y2922500D01*
X3592500Y2920000D02*
X3607500D01*
X3600000Y2912500D02*
Y2927500D01*
X5357108Y2980000D02*
X5372108D01*
X5364608Y2972500D02*
Y2987500D01*
X5367374Y3271508D02*
X5382374D01*
X5374874Y3264008D02*
Y3279008D01*
X4917500Y2575000D02*
X4932500D01*
X4925000Y2567500D02*
Y2582500D01*
X3467500Y2460000D02*
X3482500D01*
X3475000Y2452500D02*
Y2467500D01*
X3062500Y1855000D02*
X3077500D01*
X3070000Y1847500D02*
Y1862500D01*
X4982500Y2515000D02*
X4997500D01*
X4990000Y2507500D02*
Y2522500D01*
X3602500Y2515000D02*
X3617500D01*
X3610000Y2507500D02*
Y2522500D01*
X2832500Y1850000D02*
X2847500D01*
X2840000Y1842500D02*
Y1857500D01*
X2777500Y1700000D02*
X2792500D01*
X2785000Y1692500D02*
Y1707500D01*
X2922500Y1635000D02*
X2937500D01*
X2930000Y1627500D02*
Y1642500D01*
X9307500Y2325000D02*
X9322500D01*
X9315000Y2317500D02*
Y2332500D01*
X5817500Y2860000D02*
X5832500D01*
X5825000Y2852500D02*
Y2867500D01*
X5762500Y2990000D02*
X5777500D01*
X5770000Y2982500D02*
Y2997500D01*
X5777374Y3441508D02*
X5792374D01*
X5784874Y3434008D02*
Y3449008D01*
X5117500Y2400000D02*
X5132500D01*
X5125000Y2392500D02*
Y2407500D01*
X5102500Y2260000D02*
X5117500D01*
X5110000Y2252500D02*
Y2267500D01*
X6402374Y3426508D02*
X6417374D01*
X6409874Y3419008D02*
Y3434008D01*
X6532500Y3585000D02*
X6547500D01*
X6540000Y3577500D02*
Y3592500D01*
X6417500Y2260000D02*
X6432500D01*
X6425000Y2252500D02*
Y2267500D01*
X2737500Y4555000D02*
X2752500D01*
X2745000Y4547500D02*
Y4562500D01*
X7272374Y3126508D02*
X7287374D01*
X7279874Y3119008D02*
Y3134008D01*
X7392500Y3665000D02*
X7407500D01*
X7400000Y3657500D02*
Y3672500D01*
X7047500Y3835000D02*
X7062500D01*
X7055000Y3827500D02*
Y3842500D01*
X7182500Y3860000D02*
X7197500D01*
X7190000Y3852500D02*
Y3867500D01*
X7532500Y3840000D02*
X7547500D01*
X7540000Y3832500D02*
Y3847500D01*
X5047500Y2340000D02*
X5062500D01*
X5055000Y2332500D02*
Y2347500D01*
X6527500Y3635000D02*
X6542500D01*
X6535000Y3627500D02*
Y3642500D01*
X6527500Y3685000D02*
X6542500D01*
X6535000Y3677500D02*
Y3692500D01*
X6522500Y3735000D02*
X6537500D01*
X6530000Y3727500D02*
Y3742500D01*
X5682374Y3446508D02*
X5697374D01*
X5689874Y3439008D02*
Y3454008D01*
X5687674Y2996486D02*
X5702674D01*
X5695174Y2988986D02*
Y3003986D01*
X9472500Y4335000D02*
X9487500D01*
X9480000Y4327500D02*
Y4342500D01*
X9482500Y4460000D02*
X9497500D01*
X9490000Y4452500D02*
Y4467500D01*
X9062500Y4350000D02*
X9077500D01*
X9070000Y4342500D02*
Y4357500D01*
X8392500Y3470000D02*
X8407500D01*
X8400000Y3462500D02*
Y3477500D01*
X8117500Y3235000D02*
X8132500D01*
X8125000Y3227500D02*
Y3242500D01*
X7732500Y2640000D02*
X7747500D01*
X7740000Y2632500D02*
Y2647500D01*
X7867500Y2645000D02*
X7882500D01*
X7875000Y2637500D02*
Y2652500D01*
X7892500Y2410000D02*
X7907500D01*
X7900000Y2402500D02*
Y2417500D01*
X2727500Y4675000D02*
X2742500D01*
X2735000Y4667500D02*
Y4682500D01*
X2952500Y4528431D02*
X2967500D01*
X2960000Y4520931D02*
Y4535931D01*
X3537500Y4523000D02*
X3552500D01*
X3545000Y4515500D02*
Y4530500D01*
X5232500Y4135000D02*
X5247500D01*
X5240000Y4127500D02*
Y4142500D01*
X5357108Y4175000D02*
X5372108D01*
X5364608Y4167500D02*
Y4182500D01*
X6352500Y4575000D02*
X6367500D01*
X6360000Y4567500D02*
Y4582500D01*
X5137500Y4220000D02*
X5152500D01*
X5145000Y4212500D02*
Y4227500D01*
X5272500Y4770000D02*
X5287500D01*
X5280000Y4762500D02*
Y4777500D01*
X4787500Y4205000D02*
X4802500D01*
X4795000Y4197500D02*
Y4212500D01*
X4732579Y4535079D02*
X4747579D01*
X4740079Y4527579D02*
Y4542579D01*
X4202500Y3885000D02*
X4217500D01*
X4210000Y3877500D02*
Y3892500D01*
X2942500Y4590000D02*
X2957500D01*
X2950000Y4582500D02*
Y4597500D01*
X4157500Y3955000D02*
X4172500D01*
X4165000Y3947500D02*
Y3962500D01*
X4422500Y4690000D02*
X4437500D01*
X4430000Y4682500D02*
Y4697500D01*
X3562500Y4650000D02*
X3577500D01*
X3570000Y4642500D02*
Y4657500D01*
X3772500Y4640000D02*
X3787500D01*
X3780000Y4632500D02*
Y4647500D01*
X4677500Y4470000D02*
X4692500D01*
X4685000Y4462500D02*
Y4477500D01*
X4427500Y4470000D02*
X4442500D01*
X4435000Y4462500D02*
Y4477500D01*
X6127500Y4530000D02*
X6142500D01*
X6135000Y4522500D02*
Y4537500D01*
X6287500Y4615000D02*
X6302500D01*
X6295000Y4607500D02*
Y4622500D01*
X6992500Y4700000D02*
X7007500D01*
X7000000Y4692500D02*
Y4707500D01*
X7169289Y4531642D02*
X7184289D01*
X7176789Y4524142D02*
Y4539142D01*
X8042500Y4535000D02*
X8057500D01*
X8050000Y4527500D02*
Y4542500D01*
X8057500Y4605000D02*
X8072500D01*
X8065000Y4597500D02*
Y4612500D01*
X8042500Y4475000D02*
X8057500D01*
X8050000Y4467500D02*
Y4482500D01*
X5232500Y4470000D02*
X5247500D01*
X5240000Y4462500D02*
Y4477500D01*
X3707500Y4285000D02*
X3722500D01*
X3715000Y4277500D02*
Y4292500D01*
X1897500Y4290000D02*
X1912500D01*
X1905000Y4282500D02*
Y4297500D01*
X3737500Y4225000D02*
X3752500D01*
X3745000Y4217500D02*
Y4232500D01*
X1897500Y4230000D02*
X1912500D01*
X1905000Y4222500D02*
Y4237500D01*
X4162500Y4035000D02*
X4177500D01*
X4170000Y4027500D02*
Y4042500D01*
X1877500Y4775000D02*
X1892500D01*
X1885000Y4767500D02*
Y4782500D01*
X6017500Y4220000D02*
X6032500D01*
X6025000Y4212500D02*
Y4227500D01*
X6217500Y4415000D02*
X6232500D01*
X6225000Y4407500D02*
Y4422500D01*
X8107500Y4325000D02*
X8122500D01*
X8115000Y4317500D02*
Y4332500D01*
X7257500Y4325000D02*
X7272500D01*
X7265000Y4317500D02*
Y4332500D01*
X8652500Y4365000D02*
X8667500D01*
X8660000Y4357500D02*
Y4372500D01*
X8682500Y4765000D02*
X8697500D01*
X8690000Y4757500D02*
Y4772500D01*
X7697500Y4370000D02*
X7712500D01*
X7705000Y4362500D02*
Y4377500D01*
X7832500Y4790000D02*
X7847500D01*
X7840000Y4782500D02*
Y4797500D01*
X7197500Y4595000D02*
X7212500D01*
X7205000Y4587500D02*
Y4602500D01*
X6122500Y4775000D02*
X6137500D01*
X6130000Y4767500D02*
Y4782500D01*
X5467500Y4570000D02*
X5482500D01*
X5475000Y4562500D02*
Y4577500D01*
X1267500Y4505000D02*
X1282500D01*
X1275000Y4497500D02*
Y4512500D01*
X3787500Y4295000D02*
X3802500D01*
X3795000Y4287500D02*
Y4302500D01*
X2097500Y4600000D02*
X2112500D01*
X2105000Y4592500D02*
Y4607500D01*
X3922500Y4360000D02*
X3937500D01*
X3930000Y4352500D02*
Y4367500D01*
X2687500Y4345000D02*
X2702500D01*
X2695000Y4337500D02*
Y4352500D01*
X3867500Y4505000D02*
X3882500D01*
X3875000Y4497500D02*
Y4512500D01*
X1887500Y4465000D02*
X1902500D01*
X1895000Y4457500D02*
Y4472500D01*
X2737500Y4475000D02*
X2752500D01*
X2745000Y4467500D02*
Y4482500D01*
X6107500Y4470000D02*
X6122500D01*
X6115000Y4462500D02*
Y4477500D01*
X6307500Y4475000D02*
X6322500D01*
X6315000Y4467500D02*
Y4482500D01*
X6962500Y4475000D02*
X6977500D01*
X6970000Y4467500D02*
Y4482500D01*
X7847500Y4480000D02*
X7862500D01*
X7855000Y4472500D02*
Y4487500D01*
X8847500Y4465000D02*
X8862500D01*
X8855000Y4457500D02*
Y4472500D01*
X3734500Y2404000D02*
X3749500D01*
X3742000Y2396500D02*
Y2411500D01*
X3988500Y2384000D02*
X4003500D01*
X3996000Y2376500D02*
Y2391500D01*
X2114500Y3371000D02*
X2129500D01*
X2122000Y3363500D02*
Y3378500D01*
X1927500Y3346000D02*
X1942500D01*
X1935000Y3338500D02*
Y3353500D01*
X4029500Y2033000D02*
X4044500D01*
X4037000Y2025500D02*
Y2040500D01*
X3817500Y2125000D02*
X3832500D01*
X3825000Y2117500D02*
Y2132500D01*
X4085500Y2075000D02*
X4100500D01*
X4093000Y2067500D02*
Y2082500D01*
X3992500Y1966252D02*
X4007500D01*
X4000000Y1958752D02*
Y1973752D01*
X3683500Y2248000D02*
X3698500D01*
X3691000Y2240500D02*
Y2255500D01*
X3800500Y2201000D02*
X3815500D01*
X3808000Y2193500D02*
Y2208500D01*
X6621500Y1706000D02*
X6636500D01*
X6629000Y1698500D02*
Y1713500D01*
X2262500Y2145000D02*
X2277500D01*
X2270000Y2137500D02*
Y2152500D01*
X1877500Y3090000D02*
X1892500D01*
X1885000Y3082500D02*
Y3097500D01*
X3782500Y1985000D02*
X3797500D01*
X3790000Y1977500D02*
Y1992500D01*
X3782500Y1920000D02*
X3797500D01*
X3790000Y1912500D02*
Y1927500D01*
X1837500Y2990000D02*
X1852500D01*
X1845000Y2982500D02*
Y2997500D01*
X1817500Y2885000D02*
X1832500D01*
X1825000Y2877500D02*
Y2892500D01*
X3647500Y1830000D02*
X3662500D01*
X3655000Y1822500D02*
Y1837500D01*
X3512500Y1745000D02*
X3527500D01*
X3520000Y1737500D02*
Y1752500D01*
X2127500Y2435000D02*
X2142500D01*
X2135000Y2427500D02*
Y2442500D01*
X2187500Y2305000D02*
X2202500D01*
X2195000Y2297500D02*
Y2312500D01*
X2192500Y2555000D02*
X2207500D01*
X2200000Y2547500D02*
Y2562500D01*
X2245784Y2430000D02*
X2260784D01*
X2253284Y2422500D02*
Y2437500D01*
X1347500Y1610000D02*
X1362500D01*
X1355000Y1602500D02*
Y1617500D01*
X1702500Y1470000D02*
X1717500D01*
X1710000Y1462500D02*
Y1477500D01*
X2192500Y1695000D02*
X2207500D01*
X2200000Y1687500D02*
Y1702500D01*
X2027500Y1200000D02*
X2042500D01*
X2035000Y1192500D02*
Y1207500D01*
X2567500Y1470000D02*
X2582500D01*
X2575000Y1462500D02*
Y1477500D01*
X3087500Y1705000D02*
X3102500D01*
X3095000Y1697500D02*
Y1712500D01*
X2892500Y1195000D02*
X2907500D01*
X2900000Y1187500D02*
Y1202500D01*
X3442500Y1470000D02*
X3457500D01*
X3450000Y1462500D02*
Y1477500D01*
X3747500Y1195000D02*
X3762500D01*
X3755000Y1187500D02*
Y1202500D01*
X4262500Y1470000D02*
X4277500D01*
X4270000Y1462500D02*
Y1477500D01*
X4602500Y1220000D02*
X4617500D01*
X4610000Y1212500D02*
Y1227500D01*
X5132500Y1470000D02*
X5147500D01*
X5140000Y1462500D02*
Y1477500D01*
X6922374Y3306508D02*
X6937374D01*
X6929874Y3299008D02*
Y3314008D01*
X6947374Y3058408D02*
X6962374D01*
X6954874Y3050908D02*
Y3065908D01*
X5477500Y1250000D02*
X5492500D01*
X5485000Y1242500D02*
Y1257500D01*
X5967500Y1470000D02*
X5982500D01*
X5975000Y1462500D02*
Y1477500D01*
X6327500Y1225000D02*
X6342500D01*
X6335000Y1217500D02*
Y1232500D01*
X6832500Y1470000D02*
X6847500D01*
X6840000Y1462500D02*
Y1477500D01*
X8557500Y1555000D02*
X8572500D01*
X8565000Y1547500D02*
Y1562500D01*
X8062500Y1705000D02*
X8077500D01*
X8070000Y1697500D02*
Y1712500D01*
X8022500Y1220000D02*
X8037500D01*
X8030000Y1212500D02*
Y1227500D01*
X8202500Y1555000D02*
X8217500D01*
X8210000Y1547500D02*
Y1562500D01*
X7671634Y1496569D02*
X7686634D01*
X7679134Y1489069D02*
Y1504069D01*
X7367500Y1700000D02*
X7382500D01*
X7375000Y1692500D02*
Y1707500D01*
X7162500Y1210000D02*
X7177500D01*
X7170000Y1202500D02*
Y1217500D01*
X9017500Y1955000D02*
X9032500D01*
X9025000Y1947500D02*
Y1962500D01*
X8197500Y1705000D02*
X8212500D01*
X8205000Y1697500D02*
Y1712500D01*
X1802500Y1505000D02*
X1817500D01*
X1810000Y1497500D02*
Y1512500D01*
X1982500Y1515000D02*
X1997500D01*
X1990000Y1507500D02*
Y1522500D01*
X2667500Y1515000D02*
X2682500D01*
X2675000Y1507500D02*
Y1522500D01*
X2872500Y1515000D02*
X2887500D01*
X2880000Y1507500D02*
Y1522500D01*
X7992500Y1485000D02*
X8007500D01*
X8000000Y1477500D02*
Y1492500D01*
X7222500Y1495000D02*
X7237500D01*
X7230000Y1487500D02*
Y1502500D01*
X6302500Y1510000D02*
X6317500D01*
X6310000Y1502500D02*
Y1517500D01*
X4582500Y1515000D02*
X4597500D01*
X4590000Y1507500D02*
Y1522500D01*
X3537500Y1515000D02*
X3552500D01*
X3545000Y1507500D02*
Y1522500D01*
X3710932Y1510000D02*
X3725932D01*
X3718432Y1502500D02*
Y1517500D01*
X6207500Y1325000D02*
X6222500D01*
X6215000Y1317500D02*
Y1332500D01*
X6132500Y1285000D02*
X6147500D01*
X6140000Y1277500D02*
Y1292500D01*
X7732500Y1550000D02*
X7747500D01*
X7740000Y1542500D02*
Y1557500D01*
X3692500Y1585000D02*
X3707500D01*
X3700000Y1577500D02*
Y1592500D01*
X2732500Y1270000D02*
X2747500D01*
X2740000Y1262500D02*
Y1277500D01*
X2787500Y1335000D02*
X2802500D01*
X2795000Y1327500D02*
Y1342500D01*
X7057500Y1325000D02*
X7072500D01*
X7065000Y1317500D02*
Y1332500D01*
X6977500Y1295000D02*
X6992500D01*
X6985000Y1287500D02*
Y1302500D01*
X8677500Y1295000D02*
X8692500D01*
X8685000Y1287500D02*
Y1302500D01*
X8772500Y1340000D02*
X8787500D01*
X8780000Y1332500D02*
Y1347500D01*
X8207500Y2465000D02*
X8222500D01*
X8215000Y2457500D02*
Y2472500D01*
%TF.MD5,ecaaff4d3eef923b91ca3ec879791b38*%
M02*
