%TF.GenerationSoftware,Altium Limited,Altium Designer,18.1.9 (240)*%
G04 Layer_Physical_Order=2*
G04 Layer_Color=16711680*
%FSLAX26Y26*%
%MOIN*%
%TF.FileFunction,Copper,L2,Bot,Signal*%
%TF.Part,Single*%
G01*
G75*
%TA.AperFunction,Conductor*%
%ADD31C,0.015000*%
%ADD32C,0.010000*%
%TA.AperFunction,SMDPad,CuDef*%
%ADD33R,0.080709X0.045276*%
%ADD34R,0.045276X0.080709*%
%TA.AperFunction,ViaPad*%
%ADD35R,0.060000X0.060000*%
%TA.AperFunction,ComponentPad*%
%ADD36C,0.103937*%
%ADD37C,0.085039*%
%ADD38R,0.103937X0.103937*%
%TA.AperFunction,ViaPad*%
%ADD39C,0.030000*%
%TA.AperFunction,SMDPad,CuDef*%
%ADD40R,0.074803X0.074803*%
%TA.AperFunction,ConnectorPad*%
%ADD41R,0.051181X0.057087*%
%ADD42R,0.055118X0.062992*%
%ADD43R,0.053150X0.015748*%
G36*
X9587255Y3291386D02*
X9516725D01*
Y3214299D01*
X9512409Y3212646D01*
X9504914D01*
Y3117843D01*
Y3023354D01*
X9512409D01*
X9516725Y3021701D01*
Y2944614D01*
X9587255D01*
Y1012745D01*
X1012745D01*
Y4985002D01*
X4879906Y4987255D01*
X9587255D01*
Y3291386D01*
D02*
G37*
%LPC*%
G36*
X6690000Y4739495D02*
Y4720000D01*
X6709495D01*
X6708550Y4724755D01*
X6703024Y4733024D01*
X6694755Y4738550D01*
X6690000Y4739495D01*
D02*
G37*
G36*
X6680000D02*
X6675245Y4738550D01*
X6666976Y4733024D01*
X6661450Y4724755D01*
X6660505Y4720000D01*
X6680000D01*
Y4739495D01*
D02*
G37*
G36*
X6709495Y4710000D02*
X6690000D01*
Y4690505D01*
X6694755Y4691450D01*
X6703024Y4696976D01*
X6708550Y4705245D01*
X6709495Y4710000D01*
D02*
G37*
G36*
X6680000D02*
X6660505D01*
X6661450Y4705245D01*
X6666976Y4696976D01*
X6675245Y4691450D01*
X6680000Y4690505D01*
Y4710000D01*
D02*
G37*
G36*
X2425000Y4678045D02*
Y4658550D01*
X2444495D01*
X2443550Y4663304D01*
X2438024Y4671574D01*
X2429755Y4677099D01*
X2425000Y4678045D01*
D02*
G37*
G36*
X2415000D02*
X2410245Y4677099D01*
X2401976Y4671574D01*
X2396450Y4663304D01*
X2395505Y4658550D01*
X2415000D01*
Y4678045D01*
D02*
G37*
G36*
X5845000Y4674495D02*
Y4655000D01*
X5864495D01*
X5863550Y4659755D01*
X5858024Y4668024D01*
X5849755Y4673550D01*
X5845000Y4674495D01*
D02*
G37*
G36*
X5835000D02*
X5830245Y4673550D01*
X5821976Y4668024D01*
X5816450Y4659755D01*
X5815505Y4655000D01*
X5835000D01*
Y4674495D01*
D02*
G37*
G36*
X1573928Y4669495D02*
Y4650000D01*
X1593423D01*
X1592477Y4654755D01*
X1586952Y4663024D01*
X1578682Y4668550D01*
X1573928Y4669495D01*
D02*
G37*
G36*
X1563928D02*
X1559173Y4668550D01*
X1550904Y4663024D01*
X1545378Y4654755D01*
X1544433Y4650000D01*
X1563928D01*
Y4669495D01*
D02*
G37*
G36*
X3305000Y4667927D02*
Y4648431D01*
X3324495D01*
X3323550Y4653186D01*
X3318024Y4661456D01*
X3309755Y4666981D01*
X3305000Y4667927D01*
D02*
G37*
G36*
X3295000D02*
X3290245Y4666981D01*
X3281976Y4661456D01*
X3276450Y4653186D01*
X3275505Y4648431D01*
X3295000D01*
Y4667927D01*
D02*
G37*
G36*
X8360000Y4649495D02*
Y4630000D01*
X8379495D01*
X8378549Y4634755D01*
X8373024Y4643024D01*
X8364754Y4648550D01*
X8360000Y4649495D01*
D02*
G37*
G36*
X8350000D02*
X8345246Y4648550D01*
X8336976Y4643024D01*
X8331451Y4634755D01*
X8330505Y4630000D01*
X8350000D01*
Y4649495D01*
D02*
G37*
G36*
X4117638D02*
Y4630000D01*
X4137133D01*
X4136187Y4634755D01*
X4130662Y4643024D01*
X4122392Y4648550D01*
X4117638Y4649495D01*
D02*
G37*
G36*
X4107638D02*
X4102883Y4648550D01*
X4094614Y4643024D01*
X4089088Y4634755D01*
X4088143Y4630000D01*
X4107638D01*
Y4649495D01*
D02*
G37*
G36*
X2444495Y4648550D02*
X2425000D01*
Y4629054D01*
X2429755Y4630000D01*
X2438024Y4635525D01*
X2443550Y4643795D01*
X2444495Y4648550D01*
D02*
G37*
G36*
X2415000D02*
X2395505D01*
X2396450Y4643795D01*
X2401976Y4635525D01*
X2410245Y4630000D01*
X2415000Y4629054D01*
Y4648550D01*
D02*
G37*
G36*
X5864495Y4645000D02*
X5845000D01*
Y4625505D01*
X5849755Y4626450D01*
X5858024Y4631976D01*
X5863550Y4640245D01*
X5864495Y4645000D01*
D02*
G37*
G36*
X5835000D02*
X5815505D01*
X5816450Y4640245D01*
X5821976Y4631976D01*
X5830245Y4626450D01*
X5835000Y4625505D01*
Y4645000D01*
D02*
G37*
G36*
X9235000Y4644495D02*
Y4625000D01*
X9254495D01*
X9253549Y4629755D01*
X9248024Y4638024D01*
X9239754Y4643550D01*
X9235000Y4644495D01*
D02*
G37*
G36*
X9225000D02*
X9220246Y4643550D01*
X9211976Y4638024D01*
X9206451Y4629755D01*
X9205505Y4625000D01*
X9225000D01*
Y4644495D01*
D02*
G37*
G36*
X1593423Y4640000D02*
X1573928D01*
Y4620505D01*
X1578682Y4621450D01*
X1586952Y4626976D01*
X1592477Y4635245D01*
X1593423Y4640000D01*
D02*
G37*
G36*
X1563928D02*
X1544433D01*
X1545378Y4635245D01*
X1550904Y4626976D01*
X1559173Y4621450D01*
X1563928Y4620505D01*
Y4640000D01*
D02*
G37*
G36*
X3324495Y4638431D02*
X3305000D01*
Y4618936D01*
X3309755Y4619882D01*
X3318024Y4625408D01*
X3323550Y4633677D01*
X3324495Y4638431D01*
D02*
G37*
G36*
X3295000D02*
X3275505D01*
X3276450Y4633677D01*
X3281976Y4625408D01*
X3290245Y4619882D01*
X3295000Y4618936D01*
Y4638431D01*
D02*
G37*
G36*
X7540000Y4630958D02*
Y4611462D01*
X7559495D01*
X7558550Y4616217D01*
X7553024Y4624486D01*
X7544755Y4630012D01*
X7540000Y4630958D01*
D02*
G37*
G36*
X7530000D02*
X7525245Y4630012D01*
X7516976Y4624486D01*
X7511450Y4616217D01*
X7510505Y4611462D01*
X7530000D01*
Y4630958D01*
D02*
G37*
G36*
X4980000D02*
Y4611462D01*
X4999495D01*
X4998550Y4616217D01*
X4993024Y4624486D01*
X4984755Y4630012D01*
X4980000Y4630958D01*
D02*
G37*
G36*
X4970000D02*
X4965245Y4630012D01*
X4956976Y4624486D01*
X4951450Y4616217D01*
X4950505Y4611462D01*
X4970000D01*
Y4630958D01*
D02*
G37*
G36*
X8379495Y4620000D02*
X8360000D01*
Y4600505D01*
X8364754Y4601450D01*
X8373024Y4606976D01*
X8378549Y4615245D01*
X8379495Y4620000D01*
D02*
G37*
G36*
X8350000D02*
X8330505D01*
X8331451Y4615245D01*
X8336976Y4606976D01*
X8345246Y4601450D01*
X8350000Y4600505D01*
Y4620000D01*
D02*
G37*
G36*
X4137133D02*
X4117638D01*
Y4600505D01*
X4122392Y4601450D01*
X4130662Y4606976D01*
X4136187Y4615245D01*
X4137133Y4620000D01*
D02*
G37*
G36*
X4107638D02*
X4088143D01*
X4089088Y4615245D01*
X4094614Y4606976D01*
X4102883Y4601450D01*
X4107638Y4600505D01*
Y4620000D01*
D02*
G37*
G36*
X9254495Y4615000D02*
X9235000D01*
Y4595505D01*
X9239754Y4596450D01*
X9248024Y4601976D01*
X9253549Y4610245D01*
X9254495Y4615000D01*
D02*
G37*
G36*
X9225000D02*
X9205505D01*
X9206451Y4610245D01*
X9211976Y4601976D01*
X9220246Y4596450D01*
X9225000Y4595505D01*
Y4615000D01*
D02*
G37*
G36*
X6295000Y4640490D02*
X6285245Y4638550D01*
X6276976Y4633024D01*
X6275152Y4630294D01*
X6270000D01*
X6264147Y4629130D01*
X6259186Y4625815D01*
X6178665Y4545294D01*
X6154848D01*
X6153024Y4548024D01*
X6144755Y4553550D01*
X6135000Y4555490D01*
X6125245Y4553550D01*
X6116976Y4548024D01*
X6111450Y4539755D01*
X6109510Y4530000D01*
X6111450Y4520245D01*
X6116976Y4511976D01*
X6125245Y4506450D01*
X6135000Y4504510D01*
X6144755Y4506450D01*
X6153024Y4511976D01*
X6154848Y4514706D01*
X6185000D01*
X6190853Y4515870D01*
X6195814Y4519186D01*
X6273907Y4597278D01*
X6276976Y4596976D01*
X6285245Y4591450D01*
X6295000Y4589510D01*
X6304755Y4591450D01*
X6313024Y4596976D01*
X6318550Y4605245D01*
X6320490Y4615000D01*
X6318550Y4624755D01*
X6313024Y4633024D01*
X6304755Y4638550D01*
X6295000Y4640490D01*
D02*
G37*
G36*
X7559495Y4601462D02*
X7540000D01*
Y4581967D01*
X7544755Y4582913D01*
X7553024Y4588438D01*
X7558550Y4596708D01*
X7559495Y4601462D01*
D02*
G37*
G36*
X7530000D02*
X7510505D01*
X7511450Y4596708D01*
X7516976Y4588438D01*
X7525245Y4582913D01*
X7530000Y4581967D01*
Y4601462D01*
D02*
G37*
G36*
X4999495D02*
X4980000D01*
Y4581967D01*
X4984755Y4582913D01*
X4993024Y4588438D01*
X4998550Y4596708D01*
X4999495Y4601462D01*
D02*
G37*
G36*
X4970000D02*
X4950505D01*
X4951450Y4596708D01*
X4956976Y4588438D01*
X4965245Y4582913D01*
X4970000Y4581967D01*
Y4601462D01*
D02*
G37*
G36*
X8065000Y4630490D02*
X8055245Y4628550D01*
X8046976Y4623024D01*
X8041450Y4614755D01*
X8039510Y4605000D01*
X8041450Y4595245D01*
X8046976Y4586976D01*
X8049706Y4585152D01*
Y4576569D01*
X8050870Y4570716D01*
X8054186Y4565754D01*
X8055432Y4564507D01*
X8052969Y4559899D01*
X8050000Y4560490D01*
X8040245Y4558550D01*
X8031976Y4553024D01*
X8026450Y4544755D01*
X8025877Y4541869D01*
X7882137D01*
X7878024Y4548024D01*
X7869755Y4553550D01*
X7860000Y4555490D01*
X7850245Y4553550D01*
X7841976Y4548024D01*
X7836450Y4539755D01*
X7834510Y4530000D01*
X7836450Y4520245D01*
X7841976Y4511976D01*
X7846565Y4508910D01*
X7845509Y4503602D01*
X7845245Y4503550D01*
X7836976Y4498024D01*
X7831450Y4489755D01*
X7829510Y4480000D01*
X7831450Y4470245D01*
X7836976Y4461976D01*
X7845245Y4456450D01*
X7855000Y4454510D01*
X7864755Y4456450D01*
X7873024Y4461976D01*
X7874848Y4464706D01*
X8011544D01*
X8013458Y4460087D01*
X7529186Y3975814D01*
X7525870Y3970853D01*
X7524706Y3965000D01*
Y3859848D01*
X7521976Y3858024D01*
X7516450Y3849755D01*
X7514510Y3840000D01*
X7516450Y3830245D01*
X7521976Y3821976D01*
X7530245Y3816450D01*
X7540000Y3814510D01*
X7549755Y3816450D01*
X7558024Y3821976D01*
X7563550Y3830245D01*
X7565490Y3840000D01*
X7563550Y3849755D01*
X7558024Y3858024D01*
X7555294Y3859848D01*
Y3958665D01*
X8046780Y4450151D01*
X8050000Y4449510D01*
X8059755Y4451450D01*
X8068024Y4456976D01*
X8073550Y4465245D01*
X8075490Y4475000D01*
X8073550Y4484755D01*
X8068024Y4493024D01*
X8059755Y4498550D01*
X8050000Y4500490D01*
X8040245Y4498550D01*
X8035373Y4495294D01*
X7874848D01*
X7873024Y4498024D01*
X7868435Y4501090D01*
X7869491Y4506398D01*
X7869755Y4506450D01*
X7876984Y4511281D01*
X8041098D01*
X8050000Y4509510D01*
X8059755Y4511450D01*
X8068024Y4516976D01*
X8073550Y4525245D01*
X8075490Y4535000D01*
X8074899Y4537969D01*
X8079507Y4540432D01*
X8099706Y4520234D01*
Y4344848D01*
X8096976Y4343024D01*
X8091450Y4334755D01*
X8089510Y4325000D01*
X8091450Y4315245D01*
X8096976Y4306976D01*
X8105245Y4301450D01*
X8115000Y4299510D01*
X8124755Y4301450D01*
X8133024Y4306976D01*
X8138550Y4315245D01*
X8140490Y4325000D01*
X8138550Y4334755D01*
X8133024Y4343024D01*
X8130294Y4344848D01*
Y4526569D01*
X8129130Y4532421D01*
X8125814Y4537383D01*
X8082347Y4580850D01*
X8082836Y4586850D01*
X8083024Y4586976D01*
X8088550Y4595245D01*
X8090490Y4605000D01*
X8088550Y4614755D01*
X8083024Y4623024D01*
X8074755Y4628550D01*
X8065000Y4630490D01*
D02*
G37*
G36*
X7905000Y4608681D02*
X7895245Y4606741D01*
X7886976Y4601215D01*
X7881450Y4592946D01*
X7879510Y4583191D01*
X7881450Y4573437D01*
X7886976Y4565167D01*
X7895245Y4559642D01*
X7905000Y4557701D01*
X7914755Y4559642D01*
X7923024Y4565167D01*
X7928550Y4573437D01*
X7930490Y4583191D01*
X7928550Y4592946D01*
X7923024Y4601215D01*
X7914755Y4606741D01*
X7905000Y4608681D01*
D02*
G37*
G36*
X4430000Y4715490D02*
X4420245Y4713550D01*
X4411976Y4708024D01*
X4406450Y4699755D01*
X4404510Y4690000D01*
X4406450Y4680245D01*
X4411976Y4671976D01*
X4420245Y4666450D01*
X4430000Y4664510D01*
X4439755Y4666450D01*
X4448024Y4671976D01*
X4449848Y4674706D01*
X4513665D01*
X4631459Y4556912D01*
X4631079Y4555000D01*
X4633019Y4545245D01*
X4638544Y4536976D01*
X4646814Y4531450D01*
X4656569Y4529510D01*
X4666323Y4531450D01*
X4674592Y4536976D01*
X4680118Y4545245D01*
X4682058Y4555000D01*
X4680118Y4564755D01*
X4674592Y4573024D01*
X4666323Y4578550D01*
X4656569Y4580490D01*
X4652040Y4579589D01*
X4530814Y4700814D01*
X4525853Y4704130D01*
X4520000Y4705294D01*
X4449848D01*
X4448024Y4708024D01*
X4439755Y4713550D01*
X4430000Y4715490D01*
D02*
G37*
G36*
X8855000Y4490490D02*
X8845246Y4488550D01*
X8836976Y4483024D01*
X8835152Y4480294D01*
X8784848D01*
X8783024Y4483024D01*
X8774754Y4488550D01*
X8765000Y4490490D01*
X8755246Y4488550D01*
X8746976Y4483024D01*
X8741451Y4474755D01*
X8739510Y4465000D01*
X8741451Y4455245D01*
X8746976Y4446976D01*
X8755246Y4441450D01*
X8765000Y4439510D01*
X8774754Y4441450D01*
X8783024Y4446976D01*
X8784848Y4449706D01*
X8835152D01*
X8836976Y4446976D01*
X8845246Y4441450D01*
X8855000Y4439510D01*
X8864754Y4441450D01*
X8873024Y4446976D01*
X8878549Y4455245D01*
X8880490Y4465000D01*
X8878549Y4474755D01*
X8873024Y4483024D01*
X8864754Y4488550D01*
X8855000Y4490490D01*
D02*
G37*
G36*
X4685000Y4495490D02*
X4675245Y4493550D01*
X4666976Y4488024D01*
X4661450Y4479755D01*
X4659510Y4470000D01*
X4661450Y4460245D01*
X4666976Y4451976D01*
X4675245Y4446450D01*
X4685000Y4444510D01*
X4694755Y4446450D01*
X4703024Y4451976D01*
X4708550Y4460245D01*
X4710490Y4470000D01*
X4708550Y4479755D01*
X4703024Y4488024D01*
X4694755Y4493550D01*
X4685000Y4495490D01*
D02*
G37*
G36*
X4435000D02*
X4425245Y4493550D01*
X4416976Y4488024D01*
X4411450Y4479755D01*
X4409510Y4470000D01*
X4411450Y4460245D01*
X4416976Y4451976D01*
X4425245Y4446450D01*
X4435000Y4444510D01*
X4444755Y4446450D01*
X4453024Y4451976D01*
X4458550Y4460245D01*
X4460490Y4470000D01*
X4458550Y4479755D01*
X4453024Y4488024D01*
X4444755Y4493550D01*
X4435000Y4495490D01*
D02*
G37*
G36*
X6130000Y4800490D02*
X6120245Y4798550D01*
X6111976Y4793024D01*
X6106450Y4784755D01*
X6104510Y4775000D01*
X6106450Y4765245D01*
X6111976Y4756976D01*
X6114706Y4755152D01*
Y4596335D01*
X5938665Y4420294D01*
X5590000D01*
X5584147Y4419130D01*
X5579186Y4415814D01*
X5508665Y4345294D01*
X5461335D01*
X5415294Y4391335D01*
Y4405152D01*
X5418024Y4406976D01*
X5423550Y4415245D01*
X5425490Y4425000D01*
X5423550Y4434755D01*
X5420947Y4438650D01*
X5423953Y4443150D01*
X5425000Y4442942D01*
X5434755Y4444882D01*
X5443024Y4450408D01*
X5448550Y4458677D01*
X5450490Y4468431D01*
X5448550Y4478186D01*
X5443024Y4486456D01*
X5434755Y4491981D01*
X5425000Y4493921D01*
X5415245Y4491981D01*
X5406976Y4486456D01*
X5405152Y4483725D01*
X5260896D01*
X5258024Y4488024D01*
X5249755Y4493550D01*
X5240000Y4495490D01*
X5230245Y4493550D01*
X5221976Y4488024D01*
X5216450Y4479755D01*
X5214510Y4470000D01*
X5216450Y4460245D01*
X5221976Y4451976D01*
X5230245Y4446450D01*
X5240000Y4444510D01*
X5249755Y4446450D01*
X5258024Y4451976D01*
X5258800Y4453138D01*
X5385726D01*
X5386583Y4452116D01*
X5385632Y4445467D01*
X5381976Y4443024D01*
X5376450Y4434755D01*
X5374510Y4425000D01*
X5376450Y4415245D01*
X5381976Y4406976D01*
X5384706Y4405152D01*
Y4385000D01*
X5385870Y4379147D01*
X5389186Y4374186D01*
X5444185Y4319186D01*
X5449147Y4315870D01*
X5455000Y4314706D01*
X5515000D01*
X5520853Y4315870D01*
X5525814Y4319186D01*
X5596335Y4389706D01*
X5945000D01*
X5950853Y4390870D01*
X5955814Y4394186D01*
X6140814Y4579186D01*
X6144130Y4584147D01*
X6145294Y4590000D01*
Y4755152D01*
X6148024Y4756976D01*
X6153550Y4765245D01*
X6155490Y4775000D01*
X6153550Y4784755D01*
X6148024Y4793024D01*
X6139755Y4798550D01*
X6130000Y4800490D01*
D02*
G37*
G36*
X2745000Y4580490D02*
X2735245Y4578550D01*
X2726976Y4573024D01*
X2721450Y4564755D01*
X2719510Y4555000D01*
X2721450Y4545245D01*
X2726976Y4536976D01*
X2728613Y4535882D01*
X2728961Y4530590D01*
X2684186Y4485814D01*
X2680870Y4480853D01*
X2679706Y4475000D01*
Y4364848D01*
X2676976Y4363024D01*
X2671450Y4354755D01*
X2669510Y4345000D01*
X2671450Y4335245D01*
X2676976Y4326976D01*
X2685245Y4321450D01*
X2695000Y4319510D01*
X2704755Y4321450D01*
X2713024Y4326976D01*
X2718550Y4335245D01*
X2720490Y4345000D01*
X2718550Y4354755D01*
X2713024Y4363024D01*
X2710294Y4364848D01*
Y4468665D01*
X2714780Y4473151D01*
X2720205Y4471505D01*
X2721450Y4465245D01*
X2726976Y4456976D01*
X2735245Y4451450D01*
X2745000Y4449510D01*
X2754755Y4451450D01*
X2756517Y4452628D01*
X2759147Y4450870D01*
X2765000Y4449706D01*
X2875152D01*
X2876976Y4446976D01*
X2885245Y4441450D01*
X2895000Y4439510D01*
X2904755Y4441450D01*
X2913024Y4446976D01*
X2918550Y4455245D01*
X2920490Y4465000D01*
X2918550Y4474755D01*
X2913024Y4483024D01*
X2904755Y4488550D01*
X2895000Y4490490D01*
X2885245Y4488550D01*
X2876976Y4483024D01*
X2875152Y4480294D01*
X2771335D01*
X2768965Y4482663D01*
X2768550Y4484755D01*
X2763024Y4493024D01*
X2754755Y4498550D01*
X2748495Y4499795D01*
X2746849Y4505220D01*
X2755814Y4514186D01*
X2759130Y4519147D01*
X2760294Y4525000D01*
Y4535152D01*
X2763024Y4536976D01*
X2768550Y4545245D01*
X2770490Y4555000D01*
X2768550Y4564755D01*
X2763024Y4573024D01*
X2754755Y4578550D01*
X2745000Y4580490D01*
D02*
G37*
G36*
X5280000Y4795490D02*
X5270245Y4793550D01*
X5261976Y4788024D01*
X5256450Y4779755D01*
X5254510Y4770000D01*
X5256450Y4760245D01*
X5261976Y4751976D01*
X5264706Y4750152D01*
Y4593335D01*
X5134186Y4462814D01*
X5130870Y4457853D01*
X5129706Y4452000D01*
Y4239848D01*
X5126976Y4238024D01*
X5121450Y4229755D01*
X5119510Y4220000D01*
X5121450Y4210245D01*
X5126976Y4201976D01*
X5135245Y4196450D01*
X5145000Y4194510D01*
X5154755Y4196450D01*
X5163024Y4201976D01*
X5168550Y4210245D01*
X5170490Y4220000D01*
X5168550Y4229755D01*
X5163024Y4238024D01*
X5160294Y4239848D01*
Y4445665D01*
X5290814Y4576186D01*
X5294130Y4581147D01*
X5295294Y4587000D01*
Y4593977D01*
X5300294Y4595493D01*
X5301976Y4592976D01*
X5310245Y4587450D01*
X5320000Y4585510D01*
X5329755Y4587450D01*
X5338024Y4592976D01*
X5339848Y4595706D01*
X5346665D01*
X5446283Y4496088D01*
X5446450Y4495245D01*
X5451976Y4486976D01*
X5460245Y4481450D01*
X5470000Y4479510D01*
X5479755Y4481450D01*
X5488024Y4486976D01*
X5493550Y4495245D01*
X5494795Y4501505D01*
X5500220Y4503151D01*
X5534706Y4468665D01*
Y4431335D01*
X5519410Y4416039D01*
X5514118Y4416387D01*
X5513024Y4418024D01*
X5504755Y4423550D01*
X5495000Y4425490D01*
X5485245Y4423550D01*
X5476976Y4418024D01*
X5471450Y4409755D01*
X5469510Y4400000D01*
X5471450Y4390245D01*
X5476976Y4381976D01*
X5485245Y4376450D01*
X5495000Y4374510D01*
X5504755Y4376450D01*
X5513024Y4381976D01*
X5514848Y4384706D01*
X5525000D01*
X5530853Y4385870D01*
X5535814Y4389186D01*
X5560814Y4414186D01*
X5564130Y4419147D01*
X5565294Y4425000D01*
Y4475000D01*
X5564130Y4480853D01*
X5560814Y4485814D01*
X5493676Y4552952D01*
X5498550Y4560245D01*
X5500490Y4570000D01*
X5498550Y4579755D01*
X5493024Y4588024D01*
X5484755Y4593550D01*
X5475000Y4595490D01*
X5465245Y4593550D01*
X5456976Y4588024D01*
X5451450Y4579755D01*
X5449510Y4570000D01*
X5451450Y4560245D01*
X5456976Y4551976D01*
X5459706Y4550152D01*
Y4550000D01*
X5460870Y4544147D01*
X5464186Y4539186D01*
X5468151Y4535220D01*
X5466505Y4529795D01*
X5460245Y4528550D01*
X5458347Y4527281D01*
X5363814Y4621814D01*
X5358853Y4625130D01*
X5353000Y4626294D01*
X5339848D01*
X5338024Y4629024D01*
X5329755Y4634550D01*
X5320000Y4636490D01*
X5310245Y4634550D01*
X5301976Y4629024D01*
X5300294Y4626507D01*
X5295294Y4628023D01*
Y4750152D01*
X5298024Y4751976D01*
X5303550Y4760245D01*
X5305490Y4770000D01*
X5303550Y4779755D01*
X5298024Y4788024D01*
X5289755Y4793550D01*
X5280000Y4795490D01*
D02*
G37*
G36*
X9225000Y4445490D02*
X9215246Y4443550D01*
X9206976Y4438024D01*
X9205152Y4435294D01*
X9119194D01*
X9113341Y4434130D01*
X9108380Y4430814D01*
X9059186Y4381620D01*
X9055870Y4376659D01*
X9054706Y4370806D01*
Y4369848D01*
X9051976Y4368024D01*
X9046451Y4359755D01*
X9044510Y4350000D01*
X9046451Y4340245D01*
X9051976Y4331976D01*
X9060246Y4326450D01*
X9070000Y4324510D01*
X9079754Y4326450D01*
X9088024Y4331976D01*
X9093549Y4340245D01*
X9095490Y4350000D01*
X9093549Y4359755D01*
X9088354Y4367531D01*
X9125529Y4404706D01*
X9205152D01*
X9206976Y4401976D01*
X9215246Y4396450D01*
X9225000Y4394510D01*
X9234754Y4396450D01*
X9243024Y4401976D01*
X9248549Y4410245D01*
X9250490Y4420000D01*
X9248549Y4429755D01*
X9243024Y4438024D01*
X9234754Y4443550D01*
X9225000Y4445490D01*
D02*
G37*
G36*
X3570000Y4675490D02*
X3560245Y4673550D01*
X3551976Y4668024D01*
X3546450Y4659755D01*
X3544510Y4650000D01*
X3546450Y4640245D01*
X3551976Y4631976D01*
X3560245Y4626450D01*
X3570000Y4624510D01*
X3579755Y4626450D01*
X3588024Y4631976D01*
X3589848Y4634706D01*
X3613665D01*
X3699186Y4549186D01*
X3704147Y4545870D01*
X3710000Y4544706D01*
X3755152D01*
X3756976Y4541976D01*
X3765245Y4536450D01*
X3775000Y4534510D01*
X3784755Y4536450D01*
X3793024Y4541976D01*
X3798550Y4550245D01*
X3799104Y4553031D01*
X3803888Y4554483D01*
X3824186Y4534186D01*
X3829147Y4530870D01*
X3835000Y4529706D01*
X3857977D01*
X3859493Y4524706D01*
X3856976Y4523024D01*
X3851450Y4514755D01*
X3849510Y4505000D01*
X3851450Y4495245D01*
X3856976Y4486976D01*
X3859706Y4485152D01*
Y4415000D01*
X3860870Y4409147D01*
X3864186Y4404186D01*
X3905151Y4363220D01*
X3904510Y4360000D01*
X3906450Y4350245D01*
X3911976Y4341976D01*
X3920245Y4336450D01*
X3930000Y4334510D01*
X3939755Y4336450D01*
X3948024Y4341976D01*
X3953550Y4350245D01*
X3955490Y4360000D01*
X3953550Y4369755D01*
X3948024Y4378024D01*
X3939755Y4383550D01*
X3930000Y4385490D01*
X3926780Y4384849D01*
X3890294Y4421335D01*
Y4485152D01*
X3893024Y4486976D01*
X3898550Y4495245D01*
X3900490Y4505000D01*
X3898550Y4514755D01*
X3894209Y4521250D01*
X3895585Y4526302D01*
X3896018Y4526858D01*
X3896414Y4526957D01*
X3983961Y4439410D01*
X3983613Y4434118D01*
X3981976Y4433024D01*
X3976450Y4424755D01*
X3974510Y4415000D01*
X3976450Y4405245D01*
X3981976Y4396976D01*
X3990245Y4391450D01*
X4000000Y4389510D01*
X4009755Y4391450D01*
X4018024Y4396976D01*
X4023550Y4405245D01*
X4025490Y4415000D01*
X4023550Y4424755D01*
X4018024Y4433024D01*
X4015294Y4434848D01*
Y4445000D01*
X4014130Y4450853D01*
X4010814Y4455814D01*
X3910814Y4555814D01*
X3905853Y4559130D01*
X3900000Y4560294D01*
X3841335D01*
X3795294Y4606335D01*
Y4620152D01*
X3798024Y4621976D01*
X3803550Y4630245D01*
X3805490Y4640000D01*
X3803550Y4649755D01*
X3798024Y4658024D01*
X3789755Y4663550D01*
X3780000Y4665490D01*
X3770245Y4663550D01*
X3761976Y4658024D01*
X3756450Y4649755D01*
X3754510Y4640000D01*
X3756450Y4630245D01*
X3761976Y4621976D01*
X3764706Y4620152D01*
Y4600000D01*
X3765870Y4594147D01*
X3769186Y4589186D01*
X3769483Y4588888D01*
X3768031Y4584104D01*
X3765245Y4583550D01*
X3756976Y4578024D01*
X3755152Y4575294D01*
X3716335D01*
X3630814Y4660814D01*
X3625853Y4664130D01*
X3620000Y4665294D01*
X3589848D01*
X3588024Y4668024D01*
X3579755Y4673550D01*
X3570000Y4675490D01*
D02*
G37*
G36*
X8690000Y4790490D02*
X8680246Y4788550D01*
X8671976Y4783024D01*
X8666451Y4774755D01*
X8664510Y4765000D01*
X8666451Y4755245D01*
X8671976Y4746976D01*
X8674706Y4745152D01*
Y4396335D01*
X8667391Y4389020D01*
X8660000Y4390490D01*
X8650246Y4388550D01*
X8641976Y4383024D01*
X8636451Y4374755D01*
X8634510Y4365000D01*
X8636451Y4355245D01*
X8641976Y4346976D01*
X8650246Y4341450D01*
X8660000Y4339510D01*
X8669754Y4341450D01*
X8678024Y4346976D01*
X8683549Y4355245D01*
X8685207Y4363578D01*
X8700814Y4379186D01*
X8704130Y4384147D01*
X8705294Y4390000D01*
Y4745152D01*
X8708024Y4746976D01*
X8713549Y4755245D01*
X8715490Y4765000D01*
X8713549Y4774755D01*
X8708024Y4783024D01*
X8699754Y4788550D01*
X8690000Y4790490D01*
D02*
G37*
G36*
X1940000Y4725490D02*
X1930245Y4723550D01*
X1921976Y4718024D01*
X1916450Y4709755D01*
X1914510Y4700000D01*
X1916450Y4690245D01*
X1921976Y4681976D01*
X1924706Y4680152D01*
Y4615000D01*
X1925870Y4609147D01*
X1929186Y4604186D01*
X2029483Y4503888D01*
X2028031Y4499104D01*
X2025245Y4498550D01*
X2016976Y4493024D01*
X2015152Y4490294D01*
X1905000D01*
X1900493Y4489397D01*
X1895000Y4490490D01*
X1885245Y4488550D01*
X1876976Y4483024D01*
X1871450Y4474755D01*
X1869510Y4465000D01*
X1871450Y4455245D01*
X1876976Y4446976D01*
X1885245Y4441450D01*
X1895000Y4439510D01*
X1904755Y4441450D01*
X1913024Y4446976D01*
X1918550Y4455245D01*
X1919437Y4459706D01*
X2015152D01*
X2016976Y4456976D01*
X2025245Y4451450D01*
X2035000Y4449510D01*
X2044755Y4451450D01*
X2053024Y4456976D01*
X2058550Y4465245D01*
X2060490Y4475000D01*
X2058550Y4484755D01*
X2055241Y4489706D01*
X2057914Y4494706D01*
X2075152D01*
X2076976Y4491976D01*
X2085245Y4486450D01*
X2095000Y4484510D01*
X2104755Y4486450D01*
X2113024Y4491976D01*
X2118550Y4500245D01*
X2120490Y4510000D01*
X2118550Y4519755D01*
X2116265Y4523173D01*
X2120149Y4526360D01*
X2169706Y4476803D01*
Y4404848D01*
X2166976Y4403024D01*
X2161450Y4394755D01*
X2159510Y4385000D01*
X2161450Y4375245D01*
X2166976Y4366976D01*
X2175245Y4361450D01*
X2185000Y4359510D01*
X2194755Y4361450D01*
X2203024Y4366976D01*
X2208550Y4375245D01*
X2210490Y4385000D01*
X2208550Y4394755D01*
X2203024Y4403024D01*
X2200294Y4404848D01*
Y4483138D01*
X2199130Y4488991D01*
X2195814Y4493953D01*
X2120294Y4569473D01*
Y4580152D01*
X2123024Y4581976D01*
X2128550Y4590245D01*
X2130490Y4600000D01*
X2128550Y4609755D01*
X2123024Y4618024D01*
X2114755Y4623550D01*
X2105000Y4625490D01*
X2095245Y4623550D01*
X2086976Y4618024D01*
X2081450Y4609755D01*
X2079510Y4600000D01*
X2081450Y4590245D01*
X2086976Y4581976D01*
X2089706Y4580152D01*
Y4563138D01*
X2090870Y4557285D01*
X2094186Y4552324D01*
X2111360Y4535149D01*
X2108173Y4531265D01*
X2104755Y4533550D01*
X2095000Y4535490D01*
X2085245Y4533550D01*
X2076976Y4528024D01*
X2075152Y4525294D01*
X2051335D01*
X1955294Y4621335D01*
Y4680152D01*
X1958024Y4681976D01*
X1963550Y4690245D01*
X1965490Y4700000D01*
X1963550Y4709755D01*
X1958024Y4718024D01*
X1949755Y4723550D01*
X1940000Y4725490D01*
D02*
G37*
G36*
X7840000Y4815490D02*
X7830245Y4813550D01*
X7821976Y4808024D01*
X7816450Y4799755D01*
X7814510Y4790000D01*
X7816450Y4780245D01*
X7821976Y4771976D01*
X7824706Y4770152D01*
Y4617903D01*
X7694186Y4487383D01*
X7690870Y4482421D01*
X7689706Y4476569D01*
Y4389848D01*
X7686976Y4388024D01*
X7681450Y4379755D01*
X7679510Y4370000D01*
X7681450Y4360245D01*
X7686976Y4351976D01*
X7695245Y4346450D01*
X7705000Y4344510D01*
X7714755Y4346450D01*
X7723024Y4351976D01*
X7728550Y4360245D01*
X7730490Y4370000D01*
X7728550Y4379755D01*
X7723024Y4388024D01*
X7720294Y4389848D01*
Y4470234D01*
X7850814Y4600754D01*
X7854130Y4605716D01*
X7855294Y4611569D01*
Y4770152D01*
X7858024Y4771976D01*
X7863550Y4780245D01*
X7865490Y4790000D01*
X7863550Y4799755D01*
X7858024Y4808024D01*
X7849755Y4813550D01*
X7840000Y4815490D01*
D02*
G37*
G36*
X9490000Y4485490D02*
X9480246Y4483550D01*
X9471976Y4478024D01*
X9466451Y4469755D01*
X9464510Y4460000D01*
X9466451Y4450245D01*
X9471976Y4441976D01*
X9474706Y4440152D01*
Y4359437D01*
X9470246Y4358550D01*
X9461976Y4353024D01*
X9456451Y4344755D01*
X9454510Y4335000D01*
X9456451Y4325245D01*
X9461976Y4316976D01*
X9470246Y4311450D01*
X9480000Y4309510D01*
X9489754Y4311450D01*
X9498024Y4316976D01*
X9503549Y4325245D01*
X9505490Y4335000D01*
X9504397Y4340493D01*
X9505294Y4345000D01*
Y4440152D01*
X9508024Y4441976D01*
X9513549Y4450245D01*
X9515490Y4460000D01*
X9513549Y4469755D01*
X9508024Y4478024D01*
X9499754Y4483550D01*
X9490000Y4485490D01*
D02*
G37*
G36*
X6970000Y4830490D02*
X6960245Y4828550D01*
X6951976Y4823024D01*
X6946450Y4814755D01*
X6944510Y4805000D01*
X6946450Y4795245D01*
X6951976Y4786976D01*
X6954706Y4785152D01*
Y4571335D01*
X6533665Y4150294D01*
X5381632D01*
X5380115Y4155294D01*
X5382632Y4156976D01*
X5384457Y4159706D01*
X6270000D01*
X6275853Y4160870D01*
X6280814Y4164186D01*
X6370814Y4254186D01*
X6374130Y4259147D01*
X6375294Y4265000D01*
Y4555152D01*
X6378024Y4556976D01*
X6383550Y4565245D01*
X6385490Y4575000D01*
X6383550Y4584755D01*
X6378024Y4593024D01*
X6369755Y4598550D01*
X6360000Y4600490D01*
X6350245Y4598550D01*
X6341976Y4593024D01*
X6336450Y4584755D01*
X6334510Y4575000D01*
X6336450Y4565245D01*
X6341976Y4556976D01*
X6344706Y4555152D01*
Y4479432D01*
X6339706Y4478940D01*
X6338550Y4484755D01*
X6333024Y4493024D01*
X6324755Y4498550D01*
X6315000Y4500490D01*
X6305245Y4498550D01*
X6296976Y4493024D01*
X6295152Y4490294D01*
X6129627D01*
X6124755Y4493550D01*
X6115000Y4495490D01*
X6105245Y4493550D01*
X6096976Y4488024D01*
X6091450Y4479755D01*
X6089510Y4470000D01*
X6091450Y4460245D01*
X6096976Y4451976D01*
X6105245Y4446450D01*
X6115000Y4444510D01*
X6124755Y4446450D01*
X6133024Y4451976D01*
X6138189Y4459706D01*
X6295152D01*
X6296976Y4456976D01*
X6305245Y4451450D01*
X6315000Y4449510D01*
X6324755Y4451450D01*
X6333024Y4456976D01*
X6338550Y4465245D01*
X6339706Y4471060D01*
X6344706Y4470568D01*
Y4271335D01*
X6263665Y4190294D01*
X6029432D01*
X6028940Y4195294D01*
X6034755Y4196450D01*
X6043024Y4201976D01*
X6048550Y4210245D01*
X6050207Y4218578D01*
X6221780Y4390151D01*
X6225000Y4389510D01*
X6234755Y4391450D01*
X6243024Y4396976D01*
X6248550Y4405245D01*
X6250490Y4415000D01*
X6248550Y4424755D01*
X6243024Y4433024D01*
X6234755Y4438550D01*
X6225000Y4440490D01*
X6215245Y4438550D01*
X6206976Y4433024D01*
X6201450Y4424755D01*
X6199510Y4415000D01*
X6200151Y4411780D01*
X6032391Y4244020D01*
X6025000Y4245490D01*
X6015245Y4243550D01*
X6006976Y4238024D01*
X6001450Y4229755D01*
X5999510Y4220000D01*
X6001450Y4210245D01*
X6006976Y4201976D01*
X6015245Y4196450D01*
X6021060Y4195294D01*
X6020568Y4190294D01*
X5384457D01*
X5382632Y4193024D01*
X5374363Y4198550D01*
X5364608Y4200490D01*
X5354854Y4198550D01*
X5346584Y4193024D01*
X5341059Y4184755D01*
X5339118Y4175000D01*
X5341059Y4165245D01*
X5346584Y4156976D01*
X5349102Y4155294D01*
X5347585Y4150294D01*
X5259848D01*
X5258024Y4153024D01*
X5249755Y4158550D01*
X5240000Y4160490D01*
X5230245Y4158550D01*
X5221976Y4153024D01*
X5216450Y4144755D01*
X5214510Y4135000D01*
X5216450Y4125245D01*
X5221976Y4116976D01*
X5230245Y4111450D01*
X5240000Y4109510D01*
X5249755Y4111450D01*
X5258024Y4116976D01*
X5259848Y4119706D01*
X6540000D01*
X6545853Y4120870D01*
X6550814Y4124186D01*
X6980814Y4554186D01*
X6984130Y4559147D01*
X6985294Y4565000D01*
Y4674456D01*
X6989704Y4676813D01*
X6990245Y4676450D01*
X7000000Y4674510D01*
X7009755Y4676450D01*
X7018024Y4681976D01*
X7019848Y4684706D01*
X7053665D01*
X7159706Y4578665D01*
Y4550295D01*
X7158766Y4549666D01*
X7153240Y4541397D01*
X7151300Y4531642D01*
X7153240Y4521888D01*
X7158766Y4513618D01*
X7161496Y4511794D01*
Y4484345D01*
X7156496Y4482828D01*
X7153024Y4488024D01*
X7144755Y4493550D01*
X7135000Y4495490D01*
X7125245Y4493550D01*
X7116976Y4488024D01*
X7115152Y4485294D01*
X6993189D01*
X6988024Y4493024D01*
X6979755Y4498550D01*
X6970000Y4500490D01*
X6960245Y4498550D01*
X6951976Y4493024D01*
X6946450Y4484755D01*
X6944510Y4475000D01*
X6946450Y4465245D01*
X6951976Y4456976D01*
X6960245Y4451450D01*
X6970000Y4449510D01*
X6979755Y4451450D01*
X6984627Y4454706D01*
X7115152D01*
X7116976Y4451976D01*
X7125245Y4446450D01*
X7135000Y4444510D01*
X7144755Y4446450D01*
X7153024Y4451976D01*
X7156496Y4457172D01*
X7161496Y4455655D01*
Y3873211D01*
X7162660Y3867358D01*
X7165213Y3863536D01*
X7164510Y3860000D01*
X7166450Y3850245D01*
X7171976Y3841976D01*
X7180245Y3836450D01*
X7190000Y3834510D01*
X7199755Y3836450D01*
X7208024Y3841976D01*
X7213550Y3850245D01*
X7215490Y3860000D01*
X7213550Y3869755D01*
X7208024Y3878024D01*
X7199755Y3883550D01*
X7192083Y3885075D01*
Y4511794D01*
X7194814Y4513618D01*
X7200339Y4521888D01*
X7202279Y4531642D01*
X7201689Y4534611D01*
X7206297Y4537074D01*
X7249706Y4493665D01*
Y4344848D01*
X7246976Y4343024D01*
X7241450Y4334755D01*
X7239510Y4325000D01*
X7241450Y4315245D01*
X7246976Y4306976D01*
X7255245Y4301450D01*
X7265000Y4299510D01*
X7274755Y4301450D01*
X7283024Y4306976D01*
X7288550Y4315245D01*
X7290490Y4325000D01*
X7288550Y4334755D01*
X7283024Y4343024D01*
X7280294Y4344848D01*
Y4500000D01*
X7279130Y4505853D01*
X7275814Y4510814D01*
X7220294Y4566335D01*
Y4575152D01*
X7223024Y4576976D01*
X7228550Y4585245D01*
X7230490Y4595000D01*
X7228550Y4604755D01*
X7223024Y4613024D01*
X7214755Y4618550D01*
X7205000Y4620490D01*
X7195245Y4618550D01*
X7186976Y4613024D01*
X7182450Y4606250D01*
X7176763Y4604866D01*
X7070814Y4710814D01*
X7065853Y4714130D01*
X7060000Y4715294D01*
X7019848D01*
X7018024Y4718024D01*
X7009755Y4723550D01*
X7000000Y4725490D01*
X6990245Y4723550D01*
X6989704Y4723187D01*
X6985294Y4725544D01*
Y4785152D01*
X6988024Y4786976D01*
X6993550Y4795245D01*
X6995490Y4805000D01*
X6993550Y4814755D01*
X6988024Y4823024D01*
X6979755Y4828550D01*
X6970000Y4830490D01*
D02*
G37*
G36*
X3715000Y4490490D02*
X3705245Y4488550D01*
X3696976Y4483024D01*
X3691450Y4474755D01*
X3689510Y4465000D01*
X3691450Y4455245D01*
X3696976Y4446976D01*
X3699706Y4445152D01*
Y4385000D01*
X3700870Y4379147D01*
X3704186Y4374186D01*
X3772318Y4306053D01*
X3771450Y4304755D01*
X3769510Y4295000D01*
X3770101Y4292031D01*
X3765493Y4289568D01*
X3759246Y4295814D01*
X3754284Y4299130D01*
X3748432Y4300294D01*
X3734848D01*
X3733024Y4303024D01*
X3724755Y4308550D01*
X3715000Y4310490D01*
X3705245Y4308550D01*
X3696976Y4303024D01*
X3691450Y4294755D01*
X3689510Y4285000D01*
X3691450Y4275245D01*
X3696976Y4266976D01*
X3705245Y4261450D01*
X3715000Y4259510D01*
X3724755Y4261450D01*
X3733024Y4266976D01*
X3734848Y4269706D01*
X3742097D01*
X3758195Y4253608D01*
X3757160Y4247571D01*
X3756612Y4247309D01*
X3754755Y4248550D01*
X3745000Y4250490D01*
X3735245Y4248550D01*
X3726976Y4243024D01*
X3721450Y4234755D01*
X3719510Y4225000D01*
X3721450Y4215245D01*
X3726976Y4206976D01*
X3735245Y4201450D01*
X3745000Y4199510D01*
X3754755Y4201450D01*
X3763024Y4206976D01*
X3768189Y4214706D01*
X3968665D01*
X4145151Y4038220D01*
X4144510Y4035000D01*
X4146450Y4025245D01*
X4151976Y4016976D01*
X4160245Y4011450D01*
X4170000Y4009510D01*
X4179755Y4011450D01*
X4188024Y4016976D01*
X4193550Y4025245D01*
X4195490Y4035000D01*
X4193550Y4044755D01*
X4188024Y4053024D01*
X4179755Y4058550D01*
X4170000Y4060490D01*
X4166780Y4059849D01*
X3991542Y4235087D01*
X3993456Y4239706D01*
X4028665D01*
X4125151Y4143220D01*
X4124510Y4140000D01*
X4126450Y4130245D01*
X4131976Y4121976D01*
X4140245Y4116450D01*
X4150000Y4114510D01*
X4159755Y4116450D01*
X4168024Y4121976D01*
X4173550Y4130245D01*
X4175490Y4140000D01*
X4173550Y4149755D01*
X4168024Y4158024D01*
X4159755Y4163550D01*
X4150000Y4165490D01*
X4146780Y4164849D01*
X4045814Y4265814D01*
X4040853Y4269130D01*
X4035000Y4270294D01*
X3812023D01*
X3810507Y4275294D01*
X3813024Y4276976D01*
X3818550Y4285245D01*
X3820490Y4295000D01*
X3818550Y4304755D01*
X3813024Y4313024D01*
X3804755Y4318550D01*
X3802664Y4318965D01*
X3730294Y4391335D01*
Y4445152D01*
X3733024Y4446976D01*
X3738550Y4455245D01*
X3740490Y4465000D01*
X3738550Y4474755D01*
X3733024Y4483024D01*
X3724755Y4488550D01*
X3715000Y4490490D01*
D02*
G37*
G36*
X1885000Y4800490D02*
X1875245Y4798550D01*
X1866976Y4793024D01*
X1861450Y4784755D01*
X1859510Y4775000D01*
X1861450Y4765245D01*
X1866976Y4756976D01*
X1869706Y4755152D01*
Y4586335D01*
X1804186Y4520814D01*
X1800870Y4515853D01*
X1799706Y4510000D01*
Y4380000D01*
X1800870Y4374147D01*
X1804186Y4369186D01*
X1880151Y4293220D01*
X1879510Y4290000D01*
X1880953Y4282747D01*
X1876345Y4280284D01*
X1640814Y4515814D01*
X1635853Y4519130D01*
X1630000Y4520294D01*
X1294848D01*
X1293024Y4523024D01*
X1284755Y4528550D01*
X1275000Y4530490D01*
X1265245Y4528550D01*
X1256976Y4523024D01*
X1251450Y4514755D01*
X1249510Y4505000D01*
X1251450Y4495245D01*
X1256976Y4486976D01*
X1265245Y4481450D01*
X1275000Y4479510D01*
X1284755Y4481450D01*
X1293024Y4486976D01*
X1294848Y4489706D01*
X1623665D01*
X1880151Y4233220D01*
X1879510Y4230000D01*
X1881450Y4220245D01*
X1886976Y4211976D01*
X1895245Y4206450D01*
X1905000Y4204510D01*
X1914755Y4206450D01*
X1923024Y4211976D01*
X1928550Y4220245D01*
X1930490Y4230000D01*
X1928550Y4239755D01*
X1923024Y4248024D01*
X1914755Y4253550D01*
X1905000Y4255490D01*
X1901780Y4254849D01*
X1895284Y4261345D01*
X1897747Y4265953D01*
X1905000Y4264510D01*
X1914755Y4266450D01*
X1923024Y4271976D01*
X1928550Y4280245D01*
X1930490Y4290000D01*
X1928550Y4299755D01*
X1923024Y4308024D01*
X1914755Y4313550D01*
X1905000Y4315490D01*
X1901780Y4314849D01*
X1830294Y4386335D01*
Y4503665D01*
X1895814Y4569185D01*
X1899130Y4574147D01*
X1900294Y4580000D01*
Y4755152D01*
X1903024Y4756976D01*
X1908550Y4765245D01*
X1910490Y4775000D01*
X1908550Y4784755D01*
X1903024Y4793024D01*
X1894755Y4798550D01*
X1885000Y4800490D01*
D02*
G37*
G36*
X8935000Y4248104D02*
Y4228609D01*
X8954495D01*
X8953549Y4233363D01*
X8948024Y4241633D01*
X8939754Y4247158D01*
X8935000Y4248104D01*
D02*
G37*
G36*
X8925000D02*
X8920246Y4247158D01*
X8911976Y4241633D01*
X8906451Y4233363D01*
X8905505Y4228609D01*
X8925000D01*
Y4248104D01*
D02*
G37*
G36*
X8954495Y4218609D02*
X8935000D01*
Y4199114D01*
X8939754Y4200059D01*
X8948024Y4205585D01*
X8953549Y4213854D01*
X8954495Y4218609D01*
D02*
G37*
G36*
X8925000D02*
X8905505D01*
X8906451Y4213854D01*
X8911976Y4205585D01*
X8920246Y4200059D01*
X8925000Y4199114D01*
Y4218609D01*
D02*
G37*
G36*
X4740079Y4560569D02*
X4730324Y4558628D01*
X4722055Y4553103D01*
X4716529Y4544833D01*
X4714589Y4535079D01*
X4716529Y4525324D01*
X4722055Y4517055D01*
X4730324Y4511529D01*
X4740079Y4509589D01*
X4743299Y4510230D01*
X4779706Y4473822D01*
Y4224848D01*
X4776976Y4223024D01*
X4771450Y4214755D01*
X4769510Y4205000D01*
X4771450Y4195245D01*
X4776976Y4186976D01*
X4785245Y4181450D01*
X4795000Y4179510D01*
X4804755Y4181450D01*
X4813024Y4186976D01*
X4818550Y4195245D01*
X4820490Y4205000D01*
X4818550Y4214755D01*
X4813024Y4223024D01*
X4810294Y4224848D01*
Y4480157D01*
X4809130Y4486010D01*
X4805814Y4490972D01*
X4764928Y4531858D01*
X4765569Y4535079D01*
X4763628Y4544833D01*
X4758103Y4553103D01*
X4749833Y4558628D01*
X4740079Y4560569D01*
D02*
G37*
G36*
X3320000Y4174495D02*
Y4155000D01*
X3339495D01*
X3338550Y4159755D01*
X3333024Y4168024D01*
X3324755Y4173550D01*
X3320000Y4174495D01*
D02*
G37*
G36*
X3310000D02*
X3305245Y4173550D01*
X3296976Y4168024D01*
X3291450Y4159755D01*
X3290505Y4155000D01*
X3310000D01*
Y4174495D01*
D02*
G37*
G36*
X3339495Y4145000D02*
X3320000D01*
Y4125505D01*
X3324755Y4126450D01*
X3333024Y4131976D01*
X3338550Y4140245D01*
X3339495Y4145000D01*
D02*
G37*
G36*
X3310000D02*
X3290505D01*
X3291450Y4140245D01*
X3296976Y4131976D01*
X3305245Y4126450D01*
X3310000Y4125505D01*
Y4145000D01*
D02*
G37*
G36*
X1505000Y4328761D02*
X1487986Y4327422D01*
X1471391Y4323437D01*
X1455624Y4316906D01*
X1441072Y4307989D01*
X1428095Y4296905D01*
X1417011Y4283928D01*
X1408094Y4269376D01*
X1401563Y4253609D01*
X1397579Y4237014D01*
X1396239Y4220000D01*
X1397579Y4202986D01*
X1401563Y4186391D01*
X1408094Y4170624D01*
X1417011Y4156072D01*
X1428095Y4143095D01*
X1441072Y4132011D01*
X1455624Y4123094D01*
X1471391Y4116563D01*
X1487986Y4112578D01*
X1505000Y4111239D01*
X1522014Y4112578D01*
X1538609Y4116563D01*
X1554376Y4123094D01*
X1568928Y4132011D01*
X1581905Y4143095D01*
X1592989Y4156072D01*
X1601906Y4170624D01*
X1608437Y4186391D01*
X1612421Y4202986D01*
X1613761Y4220000D01*
X1612421Y4237014D01*
X1608437Y4253609D01*
X1601906Y4269376D01*
X1592989Y4283928D01*
X1581905Y4296905D01*
X1568928Y4307989D01*
X1554376Y4316906D01*
X1538609Y4323437D01*
X1522014Y4327422D01*
X1505000Y4328761D01*
D02*
G37*
G36*
X9287426Y4298761D02*
X9270413Y4297422D01*
X9253818Y4293437D01*
X9238050Y4286906D01*
X9223499Y4277989D01*
X9210521Y4266905D01*
X9199437Y4253928D01*
X9190520Y4239376D01*
X9183989Y4223609D01*
X9180005Y4207014D01*
X9178666Y4190000D01*
X9180005Y4172986D01*
X9183989Y4156391D01*
X9190520Y4140624D01*
X9199437Y4126072D01*
X9210521Y4113095D01*
X9223499Y4102011D01*
X9238050Y4093094D01*
X9253818Y4086563D01*
X9270413Y4082579D01*
X9287426Y4081240D01*
X9304440Y4082579D01*
X9321035Y4086563D01*
X9336803Y4093094D01*
X9351354Y4102011D01*
X9364332Y4113095D01*
X9375415Y4126072D01*
X9384333Y4140624D01*
X9390864Y4156391D01*
X9394848Y4172986D01*
X9396187Y4190000D01*
X9394848Y4207014D01*
X9390864Y4223609D01*
X9384333Y4239376D01*
X9375415Y4253928D01*
X9364332Y4266905D01*
X9351354Y4277989D01*
X9336803Y4286906D01*
X9321035Y4293437D01*
X9304440Y4297422D01*
X9287426Y4298761D01*
D02*
G37*
G36*
X6905000Y4029495D02*
Y4010000D01*
X6924495D01*
X6923550Y4014755D01*
X6918024Y4023024D01*
X6909755Y4028550D01*
X6905000Y4029495D01*
D02*
G37*
G36*
X6895000D02*
X6890245Y4028550D01*
X6881976Y4023024D01*
X6876450Y4014755D01*
X6875505Y4010000D01*
X6895000D01*
Y4029495D01*
D02*
G37*
G36*
X9336451Y4014495D02*
Y3995000D01*
X9355946D01*
X9355000Y3999755D01*
X9349475Y4008024D01*
X9341205Y4013550D01*
X9336451Y4014495D01*
D02*
G37*
G36*
X9326451D02*
X9321696Y4013550D01*
X9313426Y4008024D01*
X9307901Y3999755D01*
X9306955Y3995000D01*
X9326451D01*
Y4014495D01*
D02*
G37*
G36*
X6924495Y4000000D02*
X6905000D01*
Y3980505D01*
X6909755Y3981450D01*
X6918024Y3986976D01*
X6923550Y3995245D01*
X6924495Y4000000D01*
D02*
G37*
G36*
X6895000D02*
X6875505D01*
X6876450Y3995245D01*
X6881976Y3986976D01*
X6890245Y3981450D01*
X6895000Y3980505D01*
Y4000000D01*
D02*
G37*
G36*
X9355946Y3985000D02*
X9336451D01*
Y3965505D01*
X9341205Y3966450D01*
X9349475Y3971976D01*
X9355000Y3980245D01*
X9355946Y3985000D01*
D02*
G37*
G36*
X9326451D02*
X9306955D01*
X9307901Y3980245D01*
X9313426Y3971976D01*
X9321696Y3966450D01*
X9326451Y3965505D01*
Y3985000D01*
D02*
G37*
G36*
X3545000Y4548490D02*
X3535245Y4546550D01*
X3526976Y4541024D01*
X3521450Y4532755D01*
X3519510Y4523000D01*
X3521450Y4513245D01*
X3526976Y4504976D01*
X3529706Y4503152D01*
Y4356335D01*
X3504186Y4330814D01*
X3500870Y4325853D01*
X3499706Y4320000D01*
X3500870Y4314147D01*
X3504186Y4309186D01*
X3869186Y3944186D01*
X3874147Y3940870D01*
X3880000Y3939706D01*
X4145152D01*
X4146976Y3936976D01*
X4155245Y3931450D01*
X4165000Y3929510D01*
X4174755Y3931450D01*
X4183024Y3936976D01*
X4188550Y3945245D01*
X4190490Y3955000D01*
X4188550Y3964755D01*
X4183024Y3973024D01*
X4174755Y3978550D01*
X4165000Y3980490D01*
X4155245Y3978550D01*
X4146976Y3973024D01*
X4145152Y3970294D01*
X3886335D01*
X3536629Y4320000D01*
X3555814Y4339186D01*
X3559130Y4344147D01*
X3560294Y4350000D01*
Y4503152D01*
X3563024Y4504976D01*
X3568550Y4513245D01*
X3570490Y4523000D01*
X3568550Y4532755D01*
X3563024Y4541024D01*
X3554755Y4546550D01*
X3545000Y4548490D01*
D02*
G37*
G36*
X2735000Y4700490D02*
X2725245Y4698550D01*
X2716976Y4693024D01*
X2711450Y4684755D01*
X2709510Y4675000D01*
X2711450Y4665245D01*
X2716976Y4656976D01*
X2725245Y4651450D01*
X2735000Y4649510D01*
X2744755Y4651450D01*
X2753024Y4656976D01*
X2754848Y4659706D01*
X2807097D01*
X2935151Y4531652D01*
X2934510Y4528431D01*
X2936450Y4518677D01*
X2941976Y4510408D01*
X2950245Y4504882D01*
X2960000Y4502942D01*
X2969755Y4504882D01*
X2978024Y4510408D01*
X2983550Y4518677D01*
X2985490Y4528431D01*
X2984899Y4531401D01*
X2989507Y4533864D01*
X3438848Y4084523D01*
X3436934Y4079904D01*
X1575000D01*
Y3714093D01*
X3469880D01*
Y4046958D01*
X3474499Y4048872D01*
X3649186Y3874186D01*
X3654147Y3870870D01*
X3660000Y3869706D01*
X4190152D01*
X4191976Y3866976D01*
X4200245Y3861450D01*
X4210000Y3859510D01*
X4219755Y3861450D01*
X4228024Y3866976D01*
X4233550Y3875245D01*
X4235490Y3885000D01*
X4233550Y3894755D01*
X4228024Y3903024D01*
X4219755Y3908550D01*
X4210000Y3910490D01*
X4200245Y3908550D01*
X4191976Y3903024D01*
X4190152Y3900294D01*
X3666335D01*
X3490090Y4076539D01*
X3489010Y4081970D01*
X3485694Y4086932D01*
X3476908Y4095718D01*
X3471946Y4099034D01*
X3466515Y4100114D01*
X2975207Y4591422D01*
X2973550Y4599755D01*
X2968024Y4608024D01*
X2959755Y4613550D01*
X2950000Y4615490D01*
X2940245Y4613550D01*
X2931976Y4608024D01*
X2926450Y4599755D01*
X2924945Y4592186D01*
X2919736Y4590325D01*
X2824246Y4685814D01*
X2819284Y4689130D01*
X2813432Y4690294D01*
X2754848D01*
X2753024Y4693024D01*
X2744755Y4698550D01*
X2735000Y4700490D01*
D02*
G37*
G36*
X8810000Y4410490D02*
X8800246Y4408550D01*
X8791976Y4403024D01*
X8786451Y4394755D01*
X8784510Y4385000D01*
X8786451Y4375245D01*
X8791976Y4366976D01*
X8794706Y4365152D01*
Y3935000D01*
X8795870Y3929147D01*
X8799186Y3924186D01*
X8845151Y3878220D01*
X8844510Y3875000D01*
X8846451Y3865245D01*
X8851976Y3856976D01*
X8860246Y3851450D01*
X8870000Y3849510D01*
X8879754Y3851450D01*
X8888024Y3856976D01*
X8893549Y3865245D01*
X8895490Y3875000D01*
X8893549Y3884755D01*
X8888024Y3893024D01*
X8879754Y3898550D01*
X8870000Y3900490D01*
X8866780Y3899849D01*
X8825294Y3941335D01*
Y4365152D01*
X8828024Y4366976D01*
X8833549Y4375245D01*
X8835490Y4385000D01*
X8833549Y4394755D01*
X8828024Y4403024D01*
X8819754Y4408550D01*
X8810000Y4410490D01*
D02*
G37*
G36*
X7045000Y4440490D02*
X7035245Y4438550D01*
X7026976Y4433024D01*
X7021450Y4424755D01*
X7019510Y4415000D01*
X7021450Y4405245D01*
X7026976Y4396976D01*
X7029706Y4395152D01*
Y3845000D01*
X7030603Y3840492D01*
X7029510Y3835000D01*
X7031450Y3825245D01*
X7036976Y3816976D01*
X7045245Y3811450D01*
X7055000Y3809510D01*
X7064755Y3811450D01*
X7073024Y3816976D01*
X7078550Y3825245D01*
X7080490Y3835000D01*
X7078550Y3844755D01*
X7073024Y3853024D01*
X7064755Y3858550D01*
X7060294Y3859437D01*
Y4395152D01*
X7063024Y4396976D01*
X7068550Y4405245D01*
X7070490Y4415000D01*
X7068550Y4424755D01*
X7063024Y4433024D01*
X7054755Y4438550D01*
X7045000Y4440490D01*
D02*
G37*
G36*
X8550000Y4560490D02*
X8540246Y4558550D01*
X8531976Y4553024D01*
X8526451Y4544755D01*
X8524510Y4535000D01*
X8526451Y4525245D01*
X8531976Y4516976D01*
X8534706Y4515152D01*
Y3915000D01*
X8535870Y3909147D01*
X8539186Y3904186D01*
X8625151Y3818220D01*
X8624510Y3815000D01*
X8626451Y3805245D01*
X8631976Y3796976D01*
X8640246Y3791450D01*
X8650000Y3789510D01*
X8659754Y3791450D01*
X8668024Y3796976D01*
X8673549Y3805245D01*
X8675490Y3815000D01*
X8673549Y3824755D01*
X8668024Y3833024D01*
X8659754Y3838550D01*
X8650000Y3840490D01*
X8646780Y3839849D01*
X8565294Y3921335D01*
Y4515152D01*
X8568024Y4516976D01*
X8573549Y4525245D01*
X8575490Y4535000D01*
X8573549Y4544755D01*
X8568024Y4553024D01*
X8559754Y4558550D01*
X8550000Y4560490D01*
D02*
G37*
G36*
X6170000Y3840490D02*
X6160245Y3838550D01*
X6151976Y3833024D01*
X6146450Y3824755D01*
X6144510Y3815000D01*
X6145151Y3811780D01*
X6101665Y3768294D01*
X5572544D01*
X5566691Y3767130D01*
X5561730Y3763814D01*
X5383209Y3585294D01*
X2180000D01*
X2174147Y3584130D01*
X2169186Y3580814D01*
X2109186Y3520814D01*
X2105870Y3515853D01*
X2104706Y3510000D01*
Y3389512D01*
X2103976Y3389024D01*
X2098450Y3380755D01*
X2096510Y3371000D01*
X2098450Y3361245D01*
X2103976Y3352976D01*
X2106706Y3351152D01*
Y3255000D01*
X2107870Y3249147D01*
X2111186Y3244186D01*
X2201186Y3154186D01*
X2206147Y3150870D01*
X2212000Y3149706D01*
X2217152D01*
X2218976Y3146976D01*
X2227245Y3141450D01*
X2237000Y3139510D01*
X2246755Y3141450D01*
X2255024Y3146976D01*
X2260550Y3155245D01*
X2262490Y3165000D01*
X2260550Y3174755D01*
X2255024Y3183024D01*
X2246755Y3188550D01*
X2237000Y3190490D01*
X2227245Y3188550D01*
X2218976Y3183024D01*
X2215907Y3182722D01*
X2137294Y3261335D01*
Y3351152D01*
X2140024Y3352976D01*
X2145550Y3361245D01*
X2147490Y3371000D01*
X2145550Y3380755D01*
X2140024Y3389024D01*
X2135294Y3392184D01*
Y3503665D01*
X2186335Y3554706D01*
X5371544D01*
X5373458Y3550087D01*
X5049186Y3225814D01*
X5045870Y3220853D01*
X5044706Y3215000D01*
Y2937914D01*
X5039706Y2935241D01*
X5034755Y2938550D01*
X5025000Y2940490D01*
X5015245Y2938550D01*
X5006976Y2933024D01*
X5005152Y2930294D01*
X3623189D01*
X3618024Y2938024D01*
X3609755Y2943550D01*
X3600000Y2945490D01*
X3590245Y2943550D01*
X3581976Y2938024D01*
X3576450Y2929755D01*
X3574510Y2920000D01*
X3576450Y2910245D01*
X3581976Y2901976D01*
X3590245Y2896450D01*
X3600000Y2894510D01*
X3609755Y2896450D01*
X3614627Y2899706D01*
X5005152D01*
X5006976Y2896976D01*
X5015245Y2891450D01*
X5025000Y2889510D01*
X5034755Y2891450D01*
X5039706Y2894759D01*
X5044706Y2892086D01*
Y2752023D01*
X5039706Y2750507D01*
X5038024Y2753024D01*
X5029755Y2758550D01*
X5020000Y2760490D01*
X5010245Y2758550D01*
X5001976Y2753024D01*
X4996811Y2745294D01*
X4889848D01*
X4888024Y2748024D01*
X4879755Y2753550D01*
X4870000Y2755490D01*
X4860245Y2753550D01*
X4851976Y2748024D01*
X4846450Y2739755D01*
X4844510Y2730000D01*
X4846450Y2720245D01*
X4851976Y2711976D01*
X4860245Y2706450D01*
X4870000Y2704510D01*
X4879755Y2706450D01*
X4888024Y2711976D01*
X4889848Y2714706D01*
X5005373D01*
X5010245Y2711450D01*
X5020000Y2709510D01*
X5029755Y2711450D01*
X5038024Y2716976D01*
X5039706Y2719493D01*
X5044706Y2717977D01*
Y2667023D01*
X5039706Y2665507D01*
X5038024Y2668024D01*
X5029755Y2673550D01*
X5020000Y2675490D01*
X5010245Y2673550D01*
X5001976Y2668024D01*
X5000152Y2665294D01*
X4893568D01*
X4893550Y2665384D01*
X4888024Y2673654D01*
X4879755Y2679179D01*
X4870000Y2681120D01*
X4860245Y2679179D01*
X4851976Y2673654D01*
X4846450Y2665384D01*
X4844510Y2655630D01*
X4846450Y2645875D01*
X4851976Y2637606D01*
X4860245Y2632080D01*
X4870000Y2630140D01*
X4879755Y2632080D01*
X4883684Y2634706D01*
X5000152D01*
X5001976Y2631976D01*
X5010245Y2626450D01*
X5020000Y2624510D01*
X5029755Y2626450D01*
X5038024Y2631976D01*
X5039706Y2634493D01*
X5044706Y2632977D01*
Y2363189D01*
X5036976Y2358024D01*
X5031450Y2349755D01*
X5029510Y2340000D01*
X5031450Y2330245D01*
X5036976Y2321976D01*
X5045245Y2316450D01*
X5055000Y2314510D01*
X5064755Y2316450D01*
X5073024Y2321976D01*
X5078550Y2330245D01*
X5080490Y2340000D01*
X5078550Y2349755D01*
X5075294Y2354627D01*
Y2364976D01*
X5079913Y2366889D01*
X5099706Y2347097D01*
Y2283189D01*
X5091976Y2278024D01*
X5086450Y2269755D01*
X5084510Y2260000D01*
X5086450Y2250245D01*
X5091976Y2241976D01*
X5100245Y2236450D01*
X5110000Y2234510D01*
X5119755Y2236450D01*
X5128024Y2241976D01*
X5133550Y2250245D01*
X5135490Y2260000D01*
X5133550Y2269755D01*
X5130294Y2274627D01*
Y2353432D01*
X5129130Y2359284D01*
X5125814Y2364246D01*
X5119568Y2370493D01*
X5122031Y2375101D01*
X5125000Y2374510D01*
X5134755Y2376450D01*
X5143024Y2381976D01*
X5148550Y2390245D01*
X5150490Y2400000D01*
X5148550Y2409755D01*
X5143024Y2418024D01*
X5135294Y2423189D01*
Y2462977D01*
X5140294Y2464493D01*
X5141976Y2461976D01*
X5150245Y2456450D01*
X5160000Y2454510D01*
X5168380Y2456177D01*
X5171198Y2451859D01*
X5166450Y2444755D01*
X5164510Y2435000D01*
X5166450Y2425245D01*
X5171976Y2416976D01*
X5180245Y2411450D01*
X5190000Y2409510D01*
X5199755Y2411450D01*
X5208024Y2416976D01*
X5213550Y2425245D01*
X5215490Y2435000D01*
X5213550Y2444755D01*
X5208024Y2453024D01*
X5205294Y2454848D01*
Y3138665D01*
X5345813Y3279184D01*
X5350421Y3276721D01*
X5349384Y3271508D01*
X5351324Y3261753D01*
X5356850Y3253484D01*
X5359706Y3251575D01*
Y3004515D01*
X5354854Y3003550D01*
X5346584Y2998024D01*
X5341059Y2989755D01*
X5339118Y2980000D01*
X5341059Y2970245D01*
X5346584Y2961976D01*
X5354854Y2956450D01*
X5364608Y2954510D01*
X5374363Y2956450D01*
X5382632Y2961976D01*
X5388158Y2970245D01*
X5390098Y2980000D01*
X5389163Y2984704D01*
X5390294Y2990392D01*
Y3251744D01*
X5392898Y3253484D01*
X5398423Y3261753D01*
X5400364Y3271508D01*
X5398423Y3281262D01*
X5392898Y3289532D01*
X5384628Y3295057D01*
X5374874Y3296998D01*
X5369660Y3295961D01*
X5367197Y3300569D01*
X5611335Y3544706D01*
X5858665D01*
X5980255Y3423117D01*
X5980744Y3420655D01*
X5984060Y3415693D01*
X5989021Y3412378D01*
X5994874Y3411214D01*
X6390026D01*
X6391850Y3408484D01*
X6400119Y3402958D01*
X6409874Y3401018D01*
X6419628Y3402958D01*
X6427898Y3408484D01*
X6433423Y3416753D01*
X6435364Y3426508D01*
X6433423Y3436262D01*
X6427898Y3444532D01*
X6419628Y3450057D01*
X6409874Y3451998D01*
X6400119Y3450057D01*
X6391850Y3444532D01*
X6390026Y3441802D01*
X6004827D01*
X5876923Y3569706D01*
X5878293Y3574079D01*
X5878770Y3574706D01*
X6516811D01*
X6521976Y3566976D01*
X6530245Y3561450D01*
X6540000Y3559510D01*
X6549755Y3561450D01*
X6558024Y3566976D01*
X6563550Y3575245D01*
X6565490Y3585000D01*
X6563550Y3594755D01*
X6558024Y3603024D01*
X6549755Y3608550D01*
X6549491Y3608602D01*
X6548435Y3613910D01*
X6553024Y3616976D01*
X6558550Y3625245D01*
X6560490Y3635000D01*
X6558550Y3644755D01*
X6553024Y3653024D01*
X6546841Y3657155D01*
Y3662845D01*
X6553024Y3666976D01*
X6558550Y3675245D01*
X6560490Y3685000D01*
X6558550Y3694755D01*
X6553024Y3703024D01*
X6544755Y3708550D01*
X6544491Y3708602D01*
X6543435Y3713910D01*
X6548024Y3716976D01*
X6553550Y3725245D01*
X6555490Y3735000D01*
X6553550Y3744755D01*
X6548024Y3753024D01*
X6539755Y3758550D01*
X6530000Y3760490D01*
X6520245Y3758550D01*
X6511976Y3753024D01*
X6510152Y3750294D01*
X6133456D01*
X6131542Y3754913D01*
X6166780Y3790151D01*
X6170000Y3789510D01*
X6179755Y3791450D01*
X6188024Y3796976D01*
X6193550Y3805245D01*
X6195490Y3815000D01*
X6193550Y3824755D01*
X6188024Y3833024D01*
X6179755Y3838550D01*
X6170000Y3840490D01*
D02*
G37*
G36*
X6731772Y3795362D02*
X6724022Y3794342D01*
X6716801Y3791351D01*
X6710600Y3786593D01*
X6705842Y3780392D01*
X6702851Y3773171D01*
X6701831Y3765421D01*
X6702851Y3757672D01*
X6705842Y3750451D01*
X6710600Y3744250D01*
X6716801Y3739491D01*
X6724022Y3736500D01*
X6731772Y3735480D01*
X6739521Y3736500D01*
X6746742Y3739491D01*
X6752943Y3744250D01*
X6757702Y3750451D01*
X6760693Y3757672D01*
X6761713Y3765421D01*
X6760693Y3773171D01*
X6757702Y3780392D01*
X6752943Y3786593D01*
X6746742Y3791351D01*
X6739521Y3794342D01*
X6731772Y3795362D01*
D02*
G37*
G36*
X9336451Y3724495D02*
Y3705000D01*
X9355946D01*
X9355000Y3709755D01*
X9349475Y3718024D01*
X9341205Y3723550D01*
X9336451Y3724495D01*
D02*
G37*
G36*
X9326451D02*
X9321696Y3723550D01*
X9313426Y3718024D01*
X9307901Y3709755D01*
X9306955Y3705000D01*
X9326451D01*
Y3724495D01*
D02*
G37*
G36*
X8020354Y3747638D02*
X7919646D01*
Y3682362D01*
X8020354D01*
Y3747638D01*
D02*
G37*
G36*
X9355946Y3695000D02*
X9336451D01*
Y3675505D01*
X9341205Y3676450D01*
X9349475Y3681976D01*
X9355000Y3690245D01*
X9355946Y3695000D01*
D02*
G37*
G36*
X9326451D02*
X9306955D01*
X9307901Y3690245D01*
X9313426Y3681976D01*
X9321696Y3676450D01*
X9326451Y3675505D01*
Y3695000D01*
D02*
G37*
G36*
X6941850Y3664495D02*
Y3645000D01*
X6961345D01*
X6960400Y3649755D01*
X6954874Y3658024D01*
X6946605Y3663550D01*
X6941850Y3664495D01*
D02*
G37*
G36*
X6931850D02*
X6927096Y3663550D01*
X6918826Y3658024D01*
X6913301Y3649755D01*
X6912355Y3645000D01*
X6931850D01*
Y3664495D01*
D02*
G37*
G36*
X7400000Y3690490D02*
X7390245Y3688550D01*
X7381976Y3683024D01*
X7376450Y3674755D01*
X7374510Y3665000D01*
X7375151Y3661780D01*
X7269186Y3555814D01*
X7265870Y3550853D01*
X7264706Y3545000D01*
X7264990Y3543571D01*
X7264580Y3541508D01*
Y3146356D01*
X7261850Y3144532D01*
X7256324Y3136262D01*
X7254384Y3126508D01*
X7256324Y3116753D01*
X7261850Y3108484D01*
X7270119Y3102958D01*
X7279874Y3101018D01*
X7289628Y3102958D01*
X7297898Y3108484D01*
X7303423Y3116753D01*
X7305364Y3126508D01*
X7303423Y3136262D01*
X7297898Y3144532D01*
X7295168Y3146356D01*
Y3538539D01*
X7396780Y3640151D01*
X7400000Y3639510D01*
X7409755Y3641450D01*
X7418024Y3646976D01*
X7423550Y3655245D01*
X7425490Y3665000D01*
X7423550Y3674755D01*
X7418024Y3683024D01*
X7409755Y3688550D01*
X7400000Y3690490D01*
D02*
G37*
G36*
X6961345Y3635000D02*
X6941850D01*
Y3615505D01*
X6946605Y3616450D01*
X6954874Y3621976D01*
X6960400Y3630245D01*
X6961345Y3635000D01*
D02*
G37*
G36*
X6931850D02*
X6912355D01*
X6913301Y3630245D01*
X6918826Y3621976D01*
X6927096Y3616450D01*
X6931850Y3615505D01*
Y3635000D01*
D02*
G37*
G36*
X6731772Y3645362D02*
X6724022Y3644342D01*
X6716801Y3641351D01*
X6710600Y3636593D01*
X6705842Y3630392D01*
X6702851Y3623171D01*
X6701831Y3615421D01*
X6702851Y3607672D01*
X6705842Y3600451D01*
X6710600Y3594250D01*
X6716801Y3589491D01*
X6724022Y3586500D01*
X6731772Y3585480D01*
X6739521Y3586500D01*
X6746742Y3589491D01*
X6752943Y3594250D01*
X6757702Y3600451D01*
X6760693Y3607672D01*
X6761713Y3615421D01*
X6760693Y3623171D01*
X6757702Y3630392D01*
X6752943Y3636593D01*
X6746742Y3641351D01*
X6739521Y3644342D01*
X6731772Y3645362D01*
D02*
G37*
G36*
X8645000Y3584495D02*
Y3565000D01*
X8664495D01*
X8663549Y3569755D01*
X8658024Y3578024D01*
X8649754Y3583550D01*
X8645000Y3584495D01*
D02*
G37*
G36*
X8635000D02*
X8630246Y3583550D01*
X8621976Y3578024D01*
X8616451Y3569755D01*
X8615505Y3565000D01*
X8635000D01*
Y3584495D01*
D02*
G37*
G36*
X8664495Y3555000D02*
X8645000D01*
Y3535505D01*
X8649754Y3536450D01*
X8658024Y3541976D01*
X8663549Y3550245D01*
X8664495Y3555000D01*
D02*
G37*
G36*
X8635000D02*
X8615505D01*
X8616451Y3550245D01*
X8621976Y3541976D01*
X8630246Y3536450D01*
X8635000Y3535505D01*
Y3555000D01*
D02*
G37*
G36*
X1482677Y3638524D02*
X1468967Y3636719D01*
X1456191Y3631427D01*
X1445220Y3623009D01*
X1436801Y3612038D01*
X1431509Y3599262D01*
X1429704Y3585551D01*
X1431509Y3571841D01*
X1436801Y3559065D01*
X1445220Y3548094D01*
X1456191Y3539675D01*
X1468967Y3534383D01*
X1482677Y3532578D01*
X1496388Y3534383D01*
X1509164Y3539675D01*
X1520135Y3548094D01*
X1528553Y3559065D01*
X1533845Y3571841D01*
X1535650Y3585551D01*
X1533845Y3599262D01*
X1528553Y3612038D01*
X1520135Y3623009D01*
X1509164Y3631427D01*
X1496388Y3636719D01*
X1482677Y3638524D01*
D02*
G37*
G36*
X7615000Y3544495D02*
Y3525000D01*
X7634495D01*
X7633550Y3529755D01*
X7628024Y3538024D01*
X7619755Y3543550D01*
X7615000Y3544495D01*
D02*
G37*
G36*
X7605000D02*
X7600245Y3543550D01*
X7591976Y3538024D01*
X7586450Y3529755D01*
X7585505Y3525000D01*
X7605000D01*
Y3544495D01*
D02*
G37*
G36*
X6624874Y3531998D02*
X6615119Y3530057D01*
X6606850Y3524532D01*
X6605026Y3521802D01*
X6274722D01*
X6272898Y3524532D01*
X6264628Y3530057D01*
X6254874Y3531998D01*
X6245119Y3530057D01*
X6236850Y3524532D01*
X6231324Y3516262D01*
X6229384Y3506508D01*
X6231324Y3496753D01*
X6236850Y3488484D01*
X6245119Y3482958D01*
X6254874Y3481018D01*
X6264628Y3482958D01*
X6272898Y3488484D01*
X6274722Y3491214D01*
X6605026D01*
X6606850Y3488484D01*
X6615119Y3482958D01*
X6624874Y3481018D01*
X6634628Y3482958D01*
X6642898Y3488484D01*
X6648423Y3496753D01*
X6650364Y3506508D01*
X6648423Y3516262D01*
X6642898Y3524532D01*
X6634628Y3530057D01*
X6624874Y3531998D01*
D02*
G37*
G36*
X7634495Y3515000D02*
X7615000D01*
Y3495505D01*
X7619755Y3496450D01*
X7628024Y3501976D01*
X7633550Y3510245D01*
X7634495Y3515000D01*
D02*
G37*
G36*
X7605000D02*
X7585505D01*
X7586450Y3510245D01*
X7591976Y3501976D01*
X7600245Y3496450D01*
X7605000Y3495505D01*
Y3515000D01*
D02*
G37*
G36*
X8400000Y3495490D02*
X8390246Y3493550D01*
X8381976Y3488024D01*
X8380152Y3485294D01*
X8360000D01*
X8354147Y3484130D01*
X8349186Y3480814D01*
X8128220Y3259849D01*
X8125000Y3260490D01*
X8115245Y3258550D01*
X8106976Y3253024D01*
X8101450Y3244755D01*
X8099510Y3235000D01*
X8101450Y3225245D01*
X8106976Y3216976D01*
X8115245Y3211450D01*
X8125000Y3209510D01*
X8134755Y3211450D01*
X8143024Y3216976D01*
X8148550Y3225245D01*
X8150490Y3235000D01*
X8149849Y3238220D01*
X8366335Y3454706D01*
X8380152D01*
X8381976Y3451976D01*
X8390246Y3446450D01*
X8400000Y3444510D01*
X8409754Y3446450D01*
X8418024Y3451976D01*
X8423549Y3460245D01*
X8425490Y3470000D01*
X8423549Y3479755D01*
X8418024Y3488024D01*
X8409754Y3493550D01*
X8400000Y3495490D01*
D02*
G37*
G36*
X7565000Y3432972D02*
Y3413476D01*
X7584495D01*
X7583550Y3418231D01*
X7578024Y3426500D01*
X7569755Y3432026D01*
X7565000Y3432972D01*
D02*
G37*
G36*
X7555000D02*
X7550245Y3432026D01*
X7541976Y3426500D01*
X7536450Y3418231D01*
X7535505Y3413476D01*
X7555000D01*
Y3432972D01*
D02*
G37*
G36*
X7225000Y3425513D02*
Y3406018D01*
X7244495D01*
X7243550Y3410773D01*
X7238024Y3419042D01*
X7229755Y3424568D01*
X7225000Y3425513D01*
D02*
G37*
G36*
X7215000D02*
X7210245Y3424568D01*
X7201976Y3419042D01*
X7196450Y3410773D01*
X7195505Y3406018D01*
X7215000D01*
Y3425513D01*
D02*
G37*
G36*
X8060054Y3451046D02*
X7959346D01*
Y3385770D01*
X8060054D01*
Y3451046D01*
D02*
G37*
G36*
X7584495Y3403476D02*
X7565000D01*
Y3383981D01*
X7569755Y3384927D01*
X7578024Y3390452D01*
X7583550Y3398722D01*
X7584495Y3403476D01*
D02*
G37*
G36*
X7555000D02*
X7535505D01*
X7536450Y3398722D01*
X7541976Y3390452D01*
X7550245Y3384927D01*
X7555000Y3383981D01*
Y3403476D01*
D02*
G37*
G36*
X7244495Y3396018D02*
X7225000D01*
Y3376523D01*
X7229755Y3377468D01*
X7238024Y3382994D01*
X7243550Y3391264D01*
X7244495Y3396018D01*
D02*
G37*
G36*
X7215000D02*
X7195505D01*
X7196450Y3391264D01*
X7201976Y3382994D01*
X7210245Y3377468D01*
X7215000Y3376523D01*
Y3396018D01*
D02*
G37*
G36*
X1935000Y3371490D02*
X1925245Y3369550D01*
X1916976Y3364024D01*
X1911450Y3355755D01*
X1909510Y3346000D01*
X1911450Y3336245D01*
X1914076Y3332316D01*
X1911070Y3327816D01*
X1904000Y3329222D01*
X1894245Y3327282D01*
X1885976Y3321756D01*
X1880450Y3313486D01*
X1878510Y3303732D01*
X1880450Y3293977D01*
X1885976Y3285708D01*
X1888706Y3283884D01*
Y3261000D01*
X1889870Y3255147D01*
X1893186Y3250186D01*
X1899483Y3243888D01*
X1898031Y3239104D01*
X1895245Y3238550D01*
X1886976Y3233024D01*
X1881450Y3224755D01*
X1879510Y3215000D01*
X1881450Y3205245D01*
X1886976Y3196976D01*
X1889706Y3195152D01*
Y3126568D01*
X1890870Y3120716D01*
X1891869Y3119222D01*
X1888862Y3114722D01*
X1885000Y3115490D01*
X1875245Y3113550D01*
X1866976Y3108024D01*
X1861450Y3099755D01*
X1859510Y3090000D01*
X1861450Y3080245D01*
X1866976Y3071976D01*
X1875245Y3066450D01*
X1885000Y3064510D01*
X1888220Y3065151D01*
X1899706Y3053665D01*
Y2963456D01*
X1895087Y2961542D01*
X1869849Y2986780D01*
X1870490Y2990000D01*
X1868550Y2999755D01*
X1863024Y3008024D01*
X1854755Y3013550D01*
X1845000Y3015490D01*
X1835245Y3013550D01*
X1826976Y3008024D01*
X1821450Y2999755D01*
X1819510Y2990000D01*
X1821450Y2980245D01*
X1826976Y2971976D01*
X1835245Y2966450D01*
X1845000Y2964510D01*
X1848220Y2965151D01*
X1874706Y2938665D01*
Y2833456D01*
X1870087Y2831542D01*
X1841039Y2860590D01*
X1841387Y2865882D01*
X1843024Y2866976D01*
X1848550Y2875245D01*
X1850490Y2885000D01*
X1848550Y2894755D01*
X1843024Y2903024D01*
X1834755Y2908550D01*
X1825000Y2910490D01*
X1815245Y2908550D01*
X1806976Y2903024D01*
X1801450Y2894755D01*
X1799510Y2885000D01*
X1801450Y2875245D01*
X1806976Y2866976D01*
X1809706Y2865152D01*
Y2855000D01*
X1810870Y2849147D01*
X1814186Y2844186D01*
X1854706Y2803665D01*
Y1950000D01*
X1855870Y1944147D01*
X1859186Y1939186D01*
X1919186Y1879186D01*
X1924147Y1875870D01*
X1930000Y1874706D01*
X2822977D01*
X2824493Y1869706D01*
X2821976Y1868024D01*
X2816450Y1859755D01*
X2814510Y1850000D01*
X2815151Y1846780D01*
X2774186Y1805814D01*
X2770870Y1800853D01*
X2769706Y1795000D01*
Y1719848D01*
X2766976Y1718024D01*
X2761450Y1709755D01*
X2759510Y1700000D01*
X2761450Y1690245D01*
X2766976Y1681976D01*
X2775245Y1676450D01*
X2785000Y1674510D01*
X2794755Y1676450D01*
X2803024Y1681976D01*
X2808550Y1690245D01*
X2810490Y1700000D01*
X2808550Y1709755D01*
X2803024Y1718024D01*
X2800294Y1719848D01*
Y1788665D01*
X2836780Y1825151D01*
X2840000Y1824510D01*
X2849755Y1826450D01*
X2858024Y1831976D01*
X2863550Y1840245D01*
X2865490Y1850000D01*
X2863550Y1859755D01*
X2858024Y1868024D01*
X2855507Y1869706D01*
X2857023Y1874706D01*
X3047086D01*
X3049759Y1869706D01*
X3046450Y1864755D01*
X3044510Y1855000D01*
X3046450Y1845245D01*
X3047318Y1843947D01*
X2919186Y1715814D01*
X2915870Y1710853D01*
X2914706Y1705000D01*
Y1654848D01*
X2911976Y1653024D01*
X2906450Y1644755D01*
X2904510Y1635000D01*
X2906450Y1625245D01*
X2911976Y1616976D01*
X2920245Y1611450D01*
X2930000Y1609510D01*
X2939755Y1611450D01*
X2948024Y1616976D01*
X2953550Y1625245D01*
X2955490Y1635000D01*
X2953550Y1644755D01*
X2948024Y1653024D01*
X2945294Y1654848D01*
Y1698665D01*
X3077663Y1831034D01*
X3079755Y1831450D01*
X3088024Y1836976D01*
X3093550Y1845245D01*
X3095490Y1855000D01*
X3093550Y1864755D01*
X3090241Y1869706D01*
X3092914Y1874706D01*
X3713665D01*
X3749706Y1838665D01*
Y1716335D01*
X3744186Y1710814D01*
X3740870Y1705853D01*
X3739706Y1700000D01*
Y1531474D01*
X3735926Y1529316D01*
X3734820Y1529117D01*
X3728186Y1533550D01*
X3718432Y1535490D01*
X3708677Y1533550D01*
X3700407Y1528024D01*
X3698583Y1525294D01*
X3568189D01*
X3563024Y1533024D01*
X3554755Y1538550D01*
X3545000Y1540490D01*
X3535245Y1538550D01*
X3526976Y1533024D01*
X3521450Y1524755D01*
X3519510Y1515000D01*
X3521450Y1505245D01*
X3526976Y1496976D01*
X3535245Y1491450D01*
X3545000Y1489510D01*
X3554755Y1491450D01*
X3559627Y1494706D01*
X3698583D01*
X3700407Y1491976D01*
X3708677Y1486450D01*
X3718432Y1484510D01*
X3728186Y1486450D01*
X3736456Y1491976D01*
X3738138Y1494493D01*
X3743138Y1492977D01*
Y1217141D01*
X3736976Y1213024D01*
X3731450Y1204755D01*
X3729510Y1195000D01*
X3731450Y1185245D01*
X3736976Y1176976D01*
X3745245Y1171450D01*
X3755000Y1169510D01*
X3764755Y1171450D01*
X3773024Y1176976D01*
X3778550Y1185245D01*
X3780490Y1195000D01*
X3778550Y1204755D01*
X3773725Y1211974D01*
Y1526569D01*
X3772561Y1532421D01*
X3770294Y1535814D01*
Y1693665D01*
X3775814Y1699186D01*
X3779130Y1704147D01*
X3780294Y1710000D01*
Y1844438D01*
X3781611Y1845489D01*
X3785042Y1846761D01*
X3892617Y1739186D01*
X3897579Y1735870D01*
X3903432Y1734706D01*
X4138665D01*
X4169706Y1703665D01*
Y1555000D01*
X4170870Y1549147D01*
X4174186Y1544186D01*
X4245151Y1473220D01*
X4244510Y1470000D01*
X4246450Y1460245D01*
X4251976Y1451976D01*
X4260245Y1446450D01*
X4270000Y1444510D01*
X4279755Y1446450D01*
X4288024Y1451976D01*
X4293550Y1460245D01*
X4295490Y1470000D01*
X4293550Y1479755D01*
X4288024Y1488024D01*
X4279755Y1493550D01*
X4270000Y1495490D01*
X4266780Y1494849D01*
X4200294Y1561335D01*
Y1694829D01*
X4204913Y1696742D01*
X4207470Y1694186D01*
X4212431Y1690870D01*
X4218284Y1689706D01*
X4508665D01*
X4614706Y1583665D01*
Y1532023D01*
X4609706Y1530507D01*
X4608024Y1533024D01*
X4599755Y1538550D01*
X4590000Y1540490D01*
X4580245Y1538550D01*
X4571976Y1533024D01*
X4570152Y1530294D01*
X4339848D01*
X4338024Y1533024D01*
X4329755Y1538550D01*
X4320000Y1540490D01*
X4310245Y1538550D01*
X4301976Y1533024D01*
X4296450Y1524755D01*
X4294510Y1515000D01*
X4296450Y1505245D01*
X4301976Y1496976D01*
X4310245Y1491450D01*
X4320000Y1489510D01*
X4329755Y1491450D01*
X4338024Y1496976D01*
X4339848Y1499706D01*
X4570152D01*
X4571976Y1496976D01*
X4580245Y1491450D01*
X4590000Y1489510D01*
X4593862Y1490278D01*
X4596869Y1485778D01*
X4595870Y1484284D01*
X4594706Y1478431D01*
Y1239848D01*
X4591976Y1238024D01*
X4586450Y1229755D01*
X4584510Y1220000D01*
X4586450Y1210245D01*
X4591976Y1201976D01*
X4600245Y1196450D01*
X4610000Y1194510D01*
X4619755Y1196450D01*
X4628024Y1201976D01*
X4633550Y1210245D01*
X4635490Y1220000D01*
X4633550Y1229755D01*
X4628024Y1238024D01*
X4625294Y1239848D01*
Y1472097D01*
X4640814Y1487617D01*
X4644130Y1492579D01*
X4645294Y1498431D01*
Y1590000D01*
X4644130Y1595853D01*
X4640814Y1600814D01*
X4561542Y1680087D01*
X4563456Y1684706D01*
X5088665D01*
X5124706Y1648665D01*
Y1489848D01*
X5121976Y1488024D01*
X5116450Y1479755D01*
X5114510Y1470000D01*
X5116450Y1460245D01*
X5121976Y1451976D01*
X5130245Y1446450D01*
X5140000Y1444510D01*
X5149755Y1446450D01*
X5158024Y1451976D01*
X5163550Y1460245D01*
X5165490Y1470000D01*
X5163550Y1479755D01*
X5158024Y1488024D01*
X5157452Y1488406D01*
X5157615Y1489503D01*
X5159277Y1490446D01*
X5162941Y1491332D01*
X5170245Y1486450D01*
X5180000Y1484510D01*
X5189755Y1486450D01*
X5198024Y1491976D01*
X5203189Y1499706D01*
X5445152D01*
X5446976Y1496976D01*
X5455245Y1491450D01*
X5465000Y1489510D01*
X5474755Y1491450D01*
X5483024Y1496976D01*
X5488550Y1505245D01*
X5489706Y1511060D01*
X5494706Y1510568D01*
Y1461335D01*
X5474186Y1440814D01*
X5470870Y1435853D01*
X5469706Y1430000D01*
Y1269848D01*
X5466976Y1268024D01*
X5461450Y1259755D01*
X5459510Y1250000D01*
X5461450Y1240245D01*
X5466976Y1231976D01*
X5475245Y1226450D01*
X5485000Y1224510D01*
X5494755Y1226450D01*
X5503024Y1231976D01*
X5508550Y1240245D01*
X5510490Y1250000D01*
X5508550Y1259755D01*
X5503024Y1268024D01*
X5500294Y1269848D01*
Y1423665D01*
X5516763Y1440134D01*
X5522450Y1438750D01*
X5526976Y1431976D01*
X5535245Y1426450D01*
X5545000Y1424510D01*
X5554755Y1426450D01*
X5563024Y1431976D01*
X5568550Y1440245D01*
X5570490Y1450000D01*
X5568550Y1459755D01*
X5563024Y1468024D01*
X5554755Y1473550D01*
X5545000Y1475490D01*
X5535245Y1473550D01*
X5530294Y1470241D01*
X5525294Y1472914D01*
Y1590000D01*
X5524130Y1595853D01*
X5520814Y1600814D01*
X5406542Y1715087D01*
X5408456Y1719706D01*
X5703665D01*
X5950151Y1473220D01*
X5949510Y1470000D01*
X5951450Y1460245D01*
X5956976Y1451976D01*
X5965245Y1446450D01*
X5975000Y1444510D01*
X5984755Y1446450D01*
X5993024Y1451976D01*
X5998550Y1460245D01*
X6000490Y1470000D01*
X5998550Y1479755D01*
X5993024Y1488024D01*
X5984755Y1493550D01*
X5975000Y1495490D01*
X5971780Y1494849D01*
X5720814Y1745814D01*
X5715853Y1749130D01*
X5710000Y1750294D01*
X5399619D01*
X5384099Y1765814D01*
X5379137Y1769130D01*
X5373284Y1770294D01*
X4556188D01*
X4496395Y1830087D01*
X4498308Y1834706D01*
X6235234D01*
X6280754Y1789186D01*
X6285716Y1785870D01*
X6291569Y1784706D01*
X8313665D01*
X8540151Y1558220D01*
X8539510Y1555000D01*
X8541451Y1545245D01*
X8546976Y1536976D01*
X8555246Y1531450D01*
X8565000Y1529510D01*
X8574754Y1531450D01*
X8583024Y1536976D01*
X8588549Y1545245D01*
X8590490Y1555000D01*
X8588549Y1564755D01*
X8583024Y1573024D01*
X8574754Y1578550D01*
X8565000Y1580490D01*
X8561780Y1579849D01*
X8396989Y1744640D01*
X8400176Y1748524D01*
X8404147Y1745870D01*
X8410000Y1744706D01*
X8784456D01*
X8786813Y1740296D01*
X8786451Y1739755D01*
X8784510Y1730000D01*
X8786451Y1720245D01*
X8791976Y1711976D01*
X8799706Y1706811D01*
Y1479848D01*
X8796976Y1478024D01*
X8791451Y1469755D01*
X8789510Y1460000D01*
X8791451Y1450245D01*
X8796976Y1441976D01*
X8805246Y1436450D01*
X8815000Y1434510D01*
X8824754Y1436450D01*
X8826190Y1437409D01*
X8830809Y1435496D01*
X8831451Y1432271D01*
X8836976Y1424001D01*
X8845246Y1418476D01*
X8855000Y1416535D01*
X8864754Y1418476D01*
X8870924Y1422598D01*
X8875423Y1419591D01*
X8874510Y1415000D01*
X8876451Y1405245D01*
X8881976Y1396976D01*
X8890246Y1391450D01*
X8900000Y1389510D01*
X8909754Y1391450D01*
X8918024Y1396976D01*
X8923549Y1405245D01*
X8925490Y1415000D01*
X8923549Y1424755D01*
X8918024Y1433024D01*
X8915294Y1434848D01*
Y1458665D01*
X9085814Y1629186D01*
X9089130Y1634147D01*
X9090294Y1640000D01*
Y1720152D01*
X9093024Y1721976D01*
X9098549Y1730245D01*
X9100490Y1740000D01*
X9098549Y1749755D01*
X9093024Y1758024D01*
X9090294Y1759848D01*
Y1905000D01*
X9089130Y1910853D01*
X9085814Y1915814D01*
X9049849Y1951780D01*
X9050490Y1955000D01*
X9048549Y1964755D01*
X9043024Y1973024D01*
X9034754Y1978550D01*
X9025000Y1980490D01*
X9015246Y1978550D01*
X9006976Y1973024D01*
X9001451Y1964755D01*
X8999510Y1955000D01*
X9001451Y1945245D01*
X9006976Y1936976D01*
X9015246Y1931450D01*
X9025000Y1929510D01*
X9028220Y1930151D01*
X9059706Y1898665D01*
Y1759848D01*
X9056976Y1758024D01*
X9051451Y1749755D01*
X9049510Y1740000D01*
X9051451Y1730245D01*
X9056976Y1721976D01*
X9059706Y1720152D01*
Y1646335D01*
X8889186Y1475814D01*
X8885870Y1470853D01*
X8884706Y1465000D01*
Y1446458D01*
X8879706Y1445965D01*
X8878549Y1451780D01*
X8873024Y1460049D01*
X8870294Y1461873D01*
Y1658665D01*
X8871335Y1659706D01*
X8920000D01*
X8925853Y1660870D01*
X8930814Y1664186D01*
X8945814Y1679186D01*
X8949130Y1684147D01*
X8950294Y1690000D01*
Y1705152D01*
X8953024Y1706976D01*
X8958549Y1715245D01*
X8960490Y1725000D01*
X8958549Y1734755D01*
X8953024Y1743024D01*
X8944754Y1748550D01*
X8935000Y1750490D01*
X8925246Y1748550D01*
X8916976Y1743024D01*
X8911451Y1734755D01*
X8909510Y1725000D01*
X8911451Y1715245D01*
X8916976Y1706976D01*
X8919706Y1705152D01*
Y1696335D01*
X8913665Y1690294D01*
X8875294D01*
Y1698665D01*
X8898314Y1721686D01*
X8901630Y1726647D01*
X8902794Y1732500D01*
X8901630Y1738353D01*
X8898314Y1743314D01*
X8870814Y1770814D01*
X8865853Y1774130D01*
X8860000Y1775294D01*
X8416335D01*
X8315814Y1875814D01*
X8310853Y1879130D01*
X8305000Y1880294D01*
X6334335D01*
X6261814Y1952814D01*
X6256853Y1956130D01*
X6251000Y1957294D01*
X4299335D01*
X4289908Y1966721D01*
X4291994Y1971706D01*
X6252665D01*
X6334186Y1890186D01*
X6339147Y1886870D01*
X6345000Y1885706D01*
X8296000D01*
X8301853Y1886870D01*
X8306814Y1890186D01*
X8451335Y2034706D01*
X9093665D01*
X9194706Y1933665D01*
Y1850000D01*
X9195870Y1844147D01*
X9199186Y1839186D01*
X9309186Y1729186D01*
X9314147Y1725870D01*
X9320000Y1724706D01*
X9390152D01*
X9391976Y1721976D01*
X9394706Y1720152D01*
Y1581335D01*
X9324360Y1510988D01*
X9321044Y1506027D01*
X9319880Y1500174D01*
Y1479848D01*
X9317150Y1478024D01*
X9311624Y1469755D01*
X9309684Y1460000D01*
X9311624Y1450245D01*
X9317150Y1441976D01*
X9325419Y1436450D01*
X9335174Y1434510D01*
X9344928Y1436450D01*
X9353198Y1441976D01*
X9358724Y1450245D01*
X9360664Y1460000D01*
X9358724Y1469755D01*
X9353198Y1478024D01*
X9350468Y1479848D01*
Y1493839D01*
X9420814Y1564186D01*
X9424130Y1569147D01*
X9425294Y1575000D01*
Y1720152D01*
X9428024Y1721976D01*
X9433549Y1730245D01*
X9435490Y1740000D01*
X9433549Y1749755D01*
X9428024Y1758024D01*
X9419754Y1763550D01*
X9410000Y1765490D01*
X9400246Y1763550D01*
X9391976Y1758024D01*
X9390152Y1755294D01*
X9326335D01*
X9235469Y1846160D01*
X9237932Y1850768D01*
X9244256Y1849510D01*
X9254010Y1851450D01*
X9262280Y1856976D01*
X9267805Y1865245D01*
X9269745Y1875000D01*
X9267805Y1884755D01*
X9262280Y1893024D01*
X9254010Y1898550D01*
X9244256Y1900490D01*
X9234501Y1898550D01*
X9230294Y1895738D01*
X9225294Y1898411D01*
Y1940000D01*
X9224130Y1945853D01*
X9220814Y1950814D01*
X9110814Y2060814D01*
X9105853Y2064130D01*
X9100000Y2065294D01*
X8445000D01*
X8439147Y2064130D01*
X8434186Y2060814D01*
X8289665Y1916294D01*
X6351335D01*
X6269814Y1997814D01*
X6264853Y2001130D01*
X6259000Y2002294D01*
X4296279D01*
X4207034Y2091539D01*
X4208485Y2096323D01*
X4209125Y2096450D01*
X4217394Y2101976D01*
X4219218Y2104706D01*
X4410152D01*
X4411976Y2101976D01*
X4420245Y2096450D01*
X4430000Y2094510D01*
X4439755Y2096450D01*
X4448024Y2101976D01*
X4453550Y2110245D01*
X4455490Y2120000D01*
X4453550Y2129755D01*
X4448024Y2138024D01*
X4439755Y2143550D01*
X4430000Y2145490D01*
X4420245Y2143550D01*
X4411976Y2138024D01*
X4410152Y2135294D01*
X4219218D01*
X4217394Y2138024D01*
X4209125Y2143550D01*
X4199370Y2145490D01*
X4189616Y2143550D01*
X4181346Y2138024D01*
X4175821Y2129755D01*
X4175693Y2129115D01*
X4170909Y2127664D01*
X3917758Y2380814D01*
X3913430Y2383706D01*
X3913449Y2386166D01*
X3914262Y2388706D01*
X3966588D01*
X3970522Y2384061D01*
X3970510Y2384000D01*
X3972450Y2374245D01*
X3977976Y2365976D01*
X3986245Y2360450D01*
X3996000Y2358510D01*
X4005755Y2360450D01*
X4014024Y2365976D01*
X4019550Y2374245D01*
X4021490Y2384000D01*
X4019550Y2393755D01*
X4014024Y2402024D01*
X4005755Y2407550D01*
X3996000Y2409490D01*
X3992780Y2408849D01*
X3986814Y2414814D01*
X3981853Y2418130D01*
X3976000Y2419294D01*
X3761848D01*
X3760024Y2422024D01*
X3751755Y2427550D01*
X3742000Y2429490D01*
X3732245Y2427550D01*
X3723976Y2422024D01*
X3718450Y2413755D01*
X3716510Y2404000D01*
X3718450Y2394245D01*
X3723976Y2385976D01*
X3726493Y2384294D01*
X3724977Y2379294D01*
X2923335D01*
X1959849Y3342780D01*
X1960490Y3346000D01*
X1958550Y3355755D01*
X1953024Y3364024D01*
X1944755Y3369550D01*
X1935000Y3371490D01*
D02*
G37*
G36*
X1570197Y3417268D02*
X1558049Y3416072D01*
X1546368Y3412528D01*
X1535602Y3406774D01*
X1526167Y3399030D01*
X1518423Y3389594D01*
X1512668Y3378829D01*
X1509125Y3367148D01*
X1507929Y3355000D01*
X1509125Y3342852D01*
X1512668Y3331171D01*
X1518423Y3320406D01*
X1526167Y3310970D01*
X1535602Y3303226D01*
X1546368Y3297472D01*
X1558049Y3293928D01*
X1570197Y3292732D01*
X1582345Y3293928D01*
X1594026Y3297472D01*
X1604791Y3303226D01*
X1614227Y3310970D01*
X1621971Y3320406D01*
X1627725Y3331171D01*
X1631269Y3342852D01*
X1632465Y3355000D01*
X1631269Y3367148D01*
X1627725Y3378829D01*
X1621971Y3389594D01*
X1614227Y3399030D01*
X1604791Y3406774D01*
X1594026Y3412528D01*
X1582345Y3416072D01*
X1570197Y3417268D01*
D02*
G37*
G36*
X1395000D02*
X1382852Y3416072D01*
X1371171Y3412528D01*
X1360406Y3406774D01*
X1350970Y3399030D01*
X1343226Y3389594D01*
X1337472Y3378829D01*
X1333928Y3367148D01*
X1332732Y3355000D01*
X1333928Y3342852D01*
X1337472Y3331171D01*
X1343226Y3320406D01*
X1350970Y3310970D01*
X1360406Y3303226D01*
X1371171Y3297472D01*
X1382852Y3293928D01*
X1395000Y3292732D01*
X1407148Y3293928D01*
X1418829Y3297472D01*
X1429594Y3303226D01*
X1439030Y3310970D01*
X1446774Y3320406D01*
X1452528Y3331171D01*
X1456072Y3342852D01*
X1457268Y3355000D01*
X1456072Y3367148D01*
X1452528Y3378829D01*
X1446774Y3389594D01*
X1439030Y3399030D01*
X1429594Y3406774D01*
X1418829Y3412528D01*
X1407148Y3416072D01*
X1395000Y3417268D01*
D02*
G37*
G36*
X7080354Y3334272D02*
X6979646D01*
Y3268996D01*
X7080354D01*
Y3334272D01*
D02*
G37*
G36*
X6250000Y3278916D02*
Y3259421D01*
X6269495D01*
X6268550Y3264176D01*
X6263024Y3272445D01*
X6254755Y3277971D01*
X6250000Y3278916D01*
D02*
G37*
G36*
X6240000D02*
X6235245Y3277971D01*
X6226976Y3272445D01*
X6221450Y3264176D01*
X6220505Y3259421D01*
X6240000D01*
Y3278916D01*
D02*
G37*
G36*
X7545000Y3274495D02*
Y3255000D01*
X7564495D01*
X7563550Y3259755D01*
X7558024Y3268024D01*
X7549755Y3273550D01*
X7545000Y3274495D01*
D02*
G37*
G36*
X7535000D02*
X7530245Y3273550D01*
X7521976Y3268024D01*
X7516450Y3259755D01*
X7515505Y3255000D01*
X7535000D01*
Y3274495D01*
D02*
G37*
G36*
X8700000Y3296998D02*
X8690246Y3295057D01*
X8681976Y3289532D01*
X8676451Y3281262D01*
X8674510Y3271508D01*
X8676451Y3261753D01*
X8681976Y3253484D01*
X8690246Y3247958D01*
X8700000Y3246018D01*
X8709754Y3247958D01*
X8718024Y3253484D01*
X8723549Y3261753D01*
X8725490Y3271508D01*
X8723549Y3281262D01*
X8718024Y3289532D01*
X8709754Y3295057D01*
X8700000Y3296998D01*
D02*
G37*
G36*
X6269495Y3249421D02*
X6250000D01*
Y3229926D01*
X6254755Y3230872D01*
X6263024Y3236397D01*
X6268550Y3244667D01*
X6269495Y3249421D01*
D02*
G37*
G36*
X6240000D02*
X6220505D01*
X6221450Y3244667D01*
X6226976Y3236397D01*
X6235245Y3230872D01*
X6240000Y3229926D01*
Y3249421D01*
D02*
G37*
G36*
X7564495Y3245000D02*
X7545000D01*
Y3225505D01*
X7549755Y3226450D01*
X7558024Y3231976D01*
X7563550Y3240245D01*
X7564495Y3245000D01*
D02*
G37*
G36*
X7535000D02*
X7515505D01*
X7516450Y3240245D01*
X7521976Y3231976D01*
X7530245Y3226450D01*
X7535000Y3225505D01*
Y3245000D01*
D02*
G37*
G36*
X9493417Y3285480D02*
X9418299D01*
Y3202488D01*
X9493417D01*
Y3285480D01*
D02*
G37*
G36*
X6066048Y3197527D02*
Y3178032D01*
X6085543D01*
X6084597Y3182786D01*
X6079072Y3191055D01*
X6070802Y3196581D01*
X6066048Y3197527D01*
D02*
G37*
G36*
X6056048D02*
X6051293Y3196581D01*
X6043024Y3191055D01*
X6037498Y3182786D01*
X6036553Y3178032D01*
X6056048D01*
Y3197527D01*
D02*
G37*
G36*
X6085543Y3168032D02*
X6066048D01*
Y3148536D01*
X6070802Y3149482D01*
X6079072Y3155008D01*
X6084597Y3163277D01*
X6085543Y3168032D01*
D02*
G37*
G36*
X6056048D02*
X6036553D01*
X6037498Y3163277D01*
X6043024Y3155008D01*
X6051293Y3149482D01*
X6056048Y3148536D01*
Y3168032D01*
D02*
G37*
G36*
X9355000Y3198521D02*
X9345246Y3196581D01*
X9336976Y3191055D01*
X9331451Y3182786D01*
X9329510Y3173032D01*
X9331451Y3163277D01*
X9336976Y3155008D01*
X9345246Y3149482D01*
X9355000Y3147542D01*
X9364754Y3149482D01*
X9366343Y3150543D01*
X9381643D01*
X9383556Y3145924D01*
X9372902Y3135269D01*
X9305572D01*
X9305450Y3135450D01*
X9297181Y3140976D01*
X9287426Y3142916D01*
X9277672Y3140976D01*
X9269402Y3135450D01*
X9263877Y3127181D01*
X9261937Y3117426D01*
X9263877Y3107672D01*
X9269402Y3099402D01*
X9277672Y3093877D01*
X9286925Y3092036D01*
X9287655Y3091515D01*
X9287662Y3091509D01*
X9289955Y3087341D01*
X9288606Y3085213D01*
X9280246Y3083550D01*
X9271976Y3078024D01*
X9266451Y3069755D01*
X9264510Y3060000D01*
X9266451Y3050245D01*
X9271976Y3041976D01*
X9280246Y3036450D01*
X9290000Y3034510D01*
X9299754Y3036450D01*
X9308024Y3041976D01*
X9313549Y3050245D01*
X9315490Y3060000D01*
X9315447Y3060214D01*
X9320140Y3064907D01*
X9381749D01*
X9388577Y3066265D01*
X9394366Y3070133D01*
X9395934Y3072479D01*
X9405806Y3082351D01*
X9410425Y3080437D01*
Y3071819D01*
X9447000D01*
X9483575D01*
Y3074535D01*
Y3100126D01*
Y3125716D01*
Y3151307D01*
Y3187055D01*
X9410425D01*
Y3181131D01*
X9378879D01*
X9378549Y3182786D01*
X9373024Y3191055D01*
X9364754Y3196581D01*
X9355000Y3198521D01*
D02*
G37*
G36*
X8710000Y3162686D02*
X8700246Y3160745D01*
X8691976Y3155220D01*
X8686451Y3146950D01*
X8684510Y3137196D01*
X8686451Y3127441D01*
X8691976Y3119172D01*
X8700246Y3113646D01*
X8710000Y3111706D01*
X8719754Y3113646D01*
X8728024Y3119172D01*
X8733549Y3127441D01*
X8735490Y3137196D01*
X8733549Y3146950D01*
X8728024Y3155220D01*
X8719754Y3160745D01*
X8710000Y3162686D01*
D02*
G37*
G36*
X6865000Y3135490D02*
X6855245Y3133550D01*
X6846976Y3128024D01*
X6841450Y3119755D01*
X6839510Y3110000D01*
X6841450Y3100245D01*
X6846976Y3091976D01*
X6855245Y3086450D01*
X6865000Y3084510D01*
X6874755Y3086450D01*
X6883024Y3091976D01*
X6888550Y3100245D01*
X6890490Y3110000D01*
X6888550Y3119755D01*
X6883024Y3128024D01*
X6874755Y3133550D01*
X6865000Y3135490D01*
D02*
G37*
G36*
X9483575Y3061819D02*
X9452000D01*
Y3048945D01*
X9483575D01*
Y3061819D01*
D02*
G37*
G36*
X9442000D02*
X9410425D01*
Y3048945D01*
X9442000D01*
Y3061819D01*
D02*
G37*
G36*
X6929874Y3331998D02*
X6920119Y3330057D01*
X6911850Y3324532D01*
X6906324Y3316262D01*
X6904384Y3306508D01*
X6906324Y3296753D01*
X6911850Y3288484D01*
X6920119Y3282958D01*
X6929874Y3281018D01*
X6933094Y3281659D01*
X6939580Y3275173D01*
Y3078256D01*
X6936850Y3076432D01*
X6931324Y3068162D01*
X6929384Y3058408D01*
X6931324Y3048653D01*
X6936850Y3040384D01*
X6945119Y3034858D01*
X6954874Y3032918D01*
X6964628Y3034858D01*
X6972898Y3040384D01*
X6978423Y3048653D01*
X6980364Y3058408D01*
X6978423Y3068162D01*
X6972898Y3076432D01*
X6970168Y3078256D01*
Y3281508D01*
X6969004Y3287361D01*
X6965688Y3292322D01*
X6954723Y3303287D01*
X6955364Y3306508D01*
X6953423Y3316262D01*
X6947898Y3324532D01*
X6939628Y3330057D01*
X6929874Y3331998D01*
D02*
G37*
G36*
X7860000Y3045365D02*
Y3025870D01*
X7879495D01*
X7878550Y3030625D01*
X7873024Y3038894D01*
X7864755Y3044420D01*
X7860000Y3045365D01*
D02*
G37*
G36*
X7850000D02*
X7845245Y3044420D01*
X7836976Y3038894D01*
X7831450Y3030625D01*
X7830505Y3025870D01*
X7850000D01*
Y3045365D01*
D02*
G37*
G36*
X1400000Y3057721D02*
Y3000945D01*
X1456776D01*
X1456072Y3008093D01*
X1452528Y3019774D01*
X1446774Y3030539D01*
X1439030Y3039975D01*
X1429594Y3047719D01*
X1418829Y3053473D01*
X1407148Y3057017D01*
X1400000Y3057721D01*
D02*
G37*
G36*
X1390000D02*
X1382852Y3057017D01*
X1371171Y3053473D01*
X1360406Y3047719D01*
X1350970Y3039975D01*
X1343226Y3030539D01*
X1337472Y3019774D01*
X1333928Y3008093D01*
X1333224Y3000945D01*
X1390000D01*
Y3057721D01*
D02*
G37*
G36*
X7879495Y3015870D02*
X7860000D01*
Y2996375D01*
X7864755Y2997321D01*
X7873024Y3002846D01*
X7878550Y3011116D01*
X7879495Y3015870D01*
D02*
G37*
G36*
X7850000D02*
X7830505D01*
X7831450Y3011116D01*
X7836976Y3002846D01*
X7845245Y2997321D01*
X7850000Y2996375D01*
Y3015870D01*
D02*
G37*
G36*
X5689874Y3471998D02*
X5680119Y3470057D01*
X5671850Y3464532D01*
X5666324Y3456262D01*
X5664384Y3446508D01*
X5666324Y3436753D01*
X5671850Y3428484D01*
X5675027Y3426361D01*
X5684144Y3019183D01*
X5677150Y3014510D01*
X5671624Y3006240D01*
X5669684Y2996486D01*
X5671624Y2986731D01*
X5677150Y2978462D01*
X5685419Y2972936D01*
X5695174Y2970996D01*
X5704928Y2972936D01*
X5713198Y2978462D01*
X5718724Y2986731D01*
X5720664Y2996486D01*
X5718724Y3006240D01*
X5714902Y3011960D01*
X5705610Y3426955D01*
X5707898Y3428484D01*
X5713423Y3436753D01*
X5715364Y3446508D01*
X5713423Y3456262D01*
X5707898Y3464532D01*
X5699628Y3470057D01*
X5689874Y3471998D01*
D02*
G37*
G36*
X5784874Y3466998D02*
X5775119Y3465057D01*
X5766850Y3459532D01*
X5761324Y3451262D01*
X5759384Y3441508D01*
X5761324Y3431753D01*
X5766850Y3423484D01*
X5769580Y3421660D01*
Y3015406D01*
X5760245Y3013550D01*
X5751976Y3008024D01*
X5746450Y2999755D01*
X5744510Y2990000D01*
X5746450Y2980245D01*
X5751976Y2971976D01*
X5760245Y2966450D01*
X5770000Y2964510D01*
X5779755Y2966450D01*
X5788024Y2971976D01*
X5793550Y2980245D01*
X5795490Y2990000D01*
X5795027Y2992326D01*
X5795688Y2992767D01*
X5800514Y2997593D01*
X5803830Y3002555D01*
X5804994Y3008408D01*
X5803830Y3014260D01*
X5800514Y3019222D01*
X5800168Y3019454D01*
Y3421660D01*
X5802898Y3423484D01*
X5808423Y3431753D01*
X5810364Y3441508D01*
X5808423Y3451262D01*
X5802898Y3459532D01*
X5794628Y3465057D01*
X5784874Y3466998D01*
D02*
G37*
G36*
X7655000Y3010490D02*
X7645245Y3008550D01*
X7636976Y3003024D01*
X7631450Y2994755D01*
X7629510Y2985000D01*
X7630151Y2981780D01*
X7558578Y2910207D01*
X7550245Y2908550D01*
X7541976Y2903024D01*
X7536450Y2894755D01*
X7534510Y2885000D01*
X7536450Y2875245D01*
X7541976Y2866976D01*
X7550245Y2861450D01*
X7560000Y2859510D01*
X7569755Y2861450D01*
X7578024Y2866976D01*
X7583550Y2875245D01*
X7585490Y2885000D01*
X7584020Y2892391D01*
X7651780Y2960151D01*
X7655000Y2959510D01*
X7664755Y2961450D01*
X7673024Y2966976D01*
X7678550Y2975245D01*
X7680490Y2985000D01*
X7678550Y2994755D01*
X7673024Y3003024D01*
X7664755Y3008550D01*
X7655000Y3010490D01*
D02*
G37*
G36*
X9493417Y3033512D02*
X9418299D01*
Y2950520D01*
X9493417D01*
Y3033512D01*
D02*
G37*
G36*
X1456776Y2990945D02*
X1400000D01*
Y2934169D01*
X1407148Y2934873D01*
X1418829Y2938416D01*
X1429594Y2944171D01*
X1439030Y2951915D01*
X1446774Y2961351D01*
X1452528Y2972116D01*
X1456072Y2983797D01*
X1456776Y2990945D01*
D02*
G37*
G36*
X1390000D02*
X1333224D01*
X1333928Y2983797D01*
X1337472Y2972116D01*
X1343226Y2961351D01*
X1350970Y2951915D01*
X1360406Y2944171D01*
X1371171Y2938416D01*
X1382852Y2934873D01*
X1390000Y2934169D01*
Y2990945D01*
D02*
G37*
G36*
X1632165Y3057913D02*
X1508228D01*
Y2933976D01*
X1632165D01*
Y3057913D01*
D02*
G37*
G36*
X5705000Y2915490D02*
X5695245Y2913550D01*
X5686976Y2908024D01*
X5681450Y2899755D01*
X5679510Y2890000D01*
X5681450Y2880245D01*
X5686976Y2871976D01*
X5695245Y2866450D01*
X5705000Y2864510D01*
X5714755Y2866450D01*
X5723024Y2871976D01*
X5724848Y2874706D01*
X5788665D01*
X5800151Y2863220D01*
X5799510Y2860000D01*
X5801450Y2850245D01*
X5806976Y2841976D01*
X5815245Y2836450D01*
X5825000Y2834510D01*
X5834755Y2836450D01*
X5843024Y2841976D01*
X5848550Y2850245D01*
X5850490Y2860000D01*
X5848550Y2869755D01*
X5843024Y2878024D01*
X5834755Y2883550D01*
X5825000Y2885490D01*
X5821780Y2884849D01*
X5805814Y2900814D01*
X5800853Y2904130D01*
X5795000Y2905294D01*
X5724848D01*
X5723024Y2908024D01*
X5714755Y2913550D01*
X5705000Y2915490D01*
D02*
G37*
G36*
X7200000Y2804495D02*
Y2785000D01*
X7219495D01*
X7218550Y2789755D01*
X7213024Y2798024D01*
X7204755Y2803550D01*
X7200000Y2804495D01*
D02*
G37*
G36*
X7190000D02*
X7185245Y2803550D01*
X7176976Y2798024D01*
X7171450Y2789755D01*
X7170505Y2785000D01*
X7190000D01*
Y2804495D01*
D02*
G37*
G36*
X7219495Y2775000D02*
X7200000D01*
Y2755505D01*
X7204755Y2756450D01*
X7213024Y2761976D01*
X7218550Y2770245D01*
X7219495Y2775000D01*
D02*
G37*
G36*
X7190000D02*
X7170505D01*
X7171450Y2770245D01*
X7176976Y2761976D01*
X7185245Y2756450D01*
X7190000Y2755505D01*
Y2775000D01*
D02*
G37*
G36*
X4175000Y2755490D02*
X4165245Y2753550D01*
X4156976Y2748024D01*
X4155152Y2745294D01*
X3654848D01*
X3653024Y2748024D01*
X3644755Y2753550D01*
X3635000Y2755490D01*
X3625245Y2753550D01*
X3616976Y2748024D01*
X3611450Y2739755D01*
X3609510Y2730000D01*
X3611450Y2720245D01*
X3616976Y2711976D01*
X3625245Y2706450D01*
X3635000Y2704510D01*
X3644755Y2706450D01*
X3653024Y2711976D01*
X3654848Y2714706D01*
X4155152D01*
X4156976Y2711976D01*
X4165245Y2706450D01*
X4175000Y2704510D01*
X4184755Y2706450D01*
X4193024Y2711976D01*
X4198550Y2720245D01*
X4200490Y2730000D01*
X4198550Y2739755D01*
X4193024Y2748024D01*
X4184755Y2753550D01*
X4175000Y2755490D01*
D02*
G37*
G36*
X1482677Y2818445D02*
X1468967Y2816640D01*
X1456191Y2811348D01*
X1445220Y2802930D01*
X1436801Y2791959D01*
X1431509Y2779183D01*
X1429704Y2765472D01*
X1431509Y2751762D01*
X1436801Y2738986D01*
X1445220Y2728015D01*
X1456191Y2719597D01*
X1468967Y2714305D01*
X1482677Y2712499D01*
X1496388Y2714305D01*
X1509164Y2719597D01*
X1520135Y2728015D01*
X1528553Y2738986D01*
X1533845Y2751762D01*
X1535650Y2765472D01*
X1533845Y2779183D01*
X1528553Y2791959D01*
X1520135Y2802930D01*
X1509164Y2811348D01*
X1496388Y2816640D01*
X1482677Y2818445D01*
D02*
G37*
G36*
X4185000Y2695490D02*
X4175245Y2693550D01*
X4166976Y2688024D01*
X4165152Y2685294D01*
X3649848D01*
X3648024Y2688024D01*
X3639755Y2693550D01*
X3630000Y2695490D01*
X3620245Y2693550D01*
X3611976Y2688024D01*
X3606450Y2679755D01*
X3604510Y2670000D01*
X3606450Y2660245D01*
X3611976Y2651976D01*
X3620245Y2646450D01*
X3630000Y2644510D01*
X3639755Y2646450D01*
X3648024Y2651976D01*
X3649848Y2654706D01*
X4165152D01*
X4166976Y2651976D01*
X4175245Y2646450D01*
X4185000Y2644510D01*
X4194755Y2646450D01*
X4203024Y2651976D01*
X4208550Y2660245D01*
X4210490Y2670000D01*
X4208550Y2679755D01*
X4203024Y2688024D01*
X4194755Y2693550D01*
X4185000Y2695490D01*
D02*
G37*
G36*
X7875000Y2670490D02*
X7865245Y2668550D01*
X7856976Y2663024D01*
X7851811Y2655294D01*
X7759848D01*
X7758024Y2658024D01*
X7749755Y2663550D01*
X7740000Y2665490D01*
X7730245Y2663550D01*
X7721976Y2658024D01*
X7716450Y2649755D01*
X7714510Y2640000D01*
X7716450Y2630245D01*
X7721976Y2621976D01*
X7730245Y2616450D01*
X7740000Y2614510D01*
X7749755Y2616450D01*
X7758024Y2621976D01*
X7759848Y2624706D01*
X7860373D01*
X7865245Y2621450D01*
X7875000Y2619510D01*
X7884755Y2621450D01*
X7893024Y2626976D01*
X7898550Y2635245D01*
X7900490Y2645000D01*
X7898550Y2654755D01*
X7893024Y2663024D01*
X7884755Y2668550D01*
X7875000Y2670490D01*
D02*
G37*
G36*
X8150354Y2672638D02*
X8049646D01*
Y2607362D01*
X8150354D01*
Y2672638D01*
D02*
G37*
G36*
X8980000Y4520490D02*
X8970246Y4518550D01*
X8961976Y4513024D01*
X8956451Y4504755D01*
X8954510Y4495000D01*
X8956451Y4485245D01*
X8961976Y4476976D01*
X8964706Y4475152D01*
Y4000000D01*
X8965870Y3994147D01*
X8969186Y3989186D01*
X9064706Y3893665D01*
Y3746335D01*
X8864186Y3545814D01*
X8860870Y3540853D01*
X8859706Y3535000D01*
Y3075000D01*
X8860870Y3069147D01*
X8864186Y3064186D01*
X8868114Y3060257D01*
X8866201Y3055638D01*
X8784646D01*
Y2996046D01*
X8784346D01*
Y2930770D01*
X8885054D01*
Y2990362D01*
X8885354D01*
Y3036484D01*
X8889974Y3038398D01*
X9009186Y2919186D01*
X9014147Y2915870D01*
X9020000Y2914706D01*
X9363665D01*
X9429706Y2848665D01*
Y2624848D01*
X9426976Y2623024D01*
X9421451Y2614755D01*
X9419510Y2605000D01*
X9421451Y2595245D01*
X9426976Y2586976D01*
X9435246Y2581450D01*
X9445000Y2579510D01*
X9454754Y2581450D01*
X9463024Y2586976D01*
X9468549Y2595245D01*
X9470490Y2605000D01*
X9468549Y2614755D01*
X9463024Y2623024D01*
X9460294Y2624848D01*
Y2855000D01*
X9459130Y2860853D01*
X9455814Y2865814D01*
X9380814Y2940814D01*
X9375853Y2944130D01*
X9370000Y2945294D01*
X9026335D01*
X8890294Y3081335D01*
Y3528665D01*
X9090814Y3729186D01*
X9094130Y3734147D01*
X9095294Y3740000D01*
Y3900000D01*
X9094130Y3905853D01*
X9090815Y3910814D01*
X8995294Y4006335D01*
Y4475152D01*
X8998024Y4476976D01*
X9003549Y4485245D01*
X9005490Y4495000D01*
X9003549Y4504755D01*
X8998024Y4513024D01*
X8989754Y4518550D01*
X8980000Y4520490D01*
D02*
G37*
G36*
X4925000Y2600490D02*
X4915245Y2598550D01*
X4906976Y2593024D01*
X4905152Y2590294D01*
X3590000D01*
X3584147Y2589130D01*
X3579186Y2585814D01*
X3478220Y2484849D01*
X3475000Y2485490D01*
X3465245Y2483550D01*
X3456976Y2478024D01*
X3451450Y2469755D01*
X3449510Y2460000D01*
X3451450Y2450245D01*
X3456976Y2441976D01*
X3465245Y2436450D01*
X3475000Y2434510D01*
X3484755Y2436450D01*
X3493024Y2441976D01*
X3498550Y2450245D01*
X3500490Y2460000D01*
X3499849Y2463220D01*
X3596335Y2559706D01*
X4905152D01*
X4906976Y2556976D01*
X4915245Y2551450D01*
X4925000Y2549510D01*
X4934755Y2551450D01*
X4943024Y2556976D01*
X4948550Y2565245D01*
X4950490Y2575000D01*
X4948550Y2584755D01*
X4943024Y2593024D01*
X4934755Y2598550D01*
X4925000Y2600490D01*
D02*
G37*
G36*
X7190000Y2559495D02*
Y2540000D01*
X7209495D01*
X7208550Y2544755D01*
X7203024Y2553024D01*
X7194755Y2558550D01*
X7190000Y2559495D01*
D02*
G37*
G36*
X7180000D02*
X7175245Y2558550D01*
X7166976Y2553024D01*
X7161450Y2544755D01*
X7160505Y2540000D01*
X7180000D01*
Y2559495D01*
D02*
G37*
G36*
X4990000Y2540490D02*
X4980245Y2538550D01*
X4971976Y2533024D01*
X4970152Y2530294D01*
X3629848D01*
X3628024Y2533024D01*
X3619755Y2538550D01*
X3610000Y2540490D01*
X3600245Y2538550D01*
X3591976Y2533024D01*
X3586450Y2524755D01*
X3584510Y2515000D01*
X3586450Y2505245D01*
X3591976Y2496976D01*
X3600245Y2491450D01*
X3610000Y2489510D01*
X3619755Y2491450D01*
X3628024Y2496976D01*
X3629848Y2499706D01*
X4970152D01*
X4971976Y2496976D01*
X4980245Y2491450D01*
X4990000Y2489510D01*
X4999755Y2491450D01*
X5008024Y2496976D01*
X5013550Y2505245D01*
X5015490Y2515000D01*
X5013550Y2524755D01*
X5008024Y2533024D01*
X4999755Y2538550D01*
X4990000Y2540490D01*
D02*
G37*
G36*
X7209495Y2530000D02*
X7190000D01*
Y2510505D01*
X7194755Y2511450D01*
X7203024Y2516976D01*
X7208550Y2525245D01*
X7209495Y2530000D01*
D02*
G37*
G36*
X7180000D02*
X7160505D01*
X7161450Y2525245D01*
X7166976Y2516976D01*
X7175245Y2511450D01*
X7180000Y2510505D01*
Y2530000D01*
D02*
G37*
G36*
X8215000Y2940490D02*
X8205246Y2938550D01*
X8196976Y2933024D01*
X8191450Y2924755D01*
X8189510Y2915000D01*
X8191450Y2905245D01*
X8196976Y2896976D01*
X8199706Y2895152D01*
Y2484848D01*
X8196976Y2483024D01*
X8191450Y2474755D01*
X8189510Y2465000D01*
X8191450Y2455245D01*
X8196976Y2446976D01*
X8205246Y2441450D01*
X8215000Y2439510D01*
X8224754Y2441450D01*
X8233024Y2446976D01*
X8238549Y2455245D01*
X8240490Y2465000D01*
X8238549Y2474755D01*
X8233024Y2483024D01*
X8230294Y2484848D01*
Y2489970D01*
X8234704Y2492327D01*
X8236015Y2491450D01*
X8245769Y2489510D01*
X8255524Y2491450D01*
X8263793Y2496976D01*
X8269319Y2505245D01*
X8271259Y2515000D01*
X8269319Y2524755D01*
X8263793Y2533024D01*
X8255524Y2538550D01*
X8245769Y2540490D01*
X8236015Y2538550D01*
X8234704Y2537673D01*
X8230294Y2540030D01*
Y2895152D01*
X8233024Y2896976D01*
X8238549Y2905245D01*
X8240490Y2915000D01*
X8238549Y2924755D01*
X8233024Y2933024D01*
X8224754Y2938550D01*
X8215000Y2940490D01*
D02*
G37*
G36*
X6910000Y2980490D02*
X6900245Y2978550D01*
X6891976Y2973024D01*
X6886450Y2964755D01*
X6884510Y2955000D01*
X6886450Y2945245D01*
X6891976Y2936976D01*
X6894706Y2935152D01*
Y2788909D01*
X6574294Y2468497D01*
X6569686Y2470960D01*
X6570490Y2475000D01*
X6568550Y2484755D01*
X6563024Y2493024D01*
X6554755Y2498550D01*
X6545000Y2500490D01*
X6535245Y2498550D01*
X6526976Y2493024D01*
X6525152Y2490294D01*
X5901335D01*
X5660814Y2730814D01*
X5655853Y2734130D01*
X5650000Y2735294D01*
X5614848D01*
X5613024Y2738024D01*
X5604755Y2743550D01*
X5595000Y2745490D01*
X5585245Y2743550D01*
X5576976Y2738024D01*
X5571450Y2729755D01*
X5569510Y2720000D01*
X5571450Y2710245D01*
X5576976Y2701976D01*
X5585245Y2696450D01*
X5595000Y2694510D01*
X5604755Y2696450D01*
X5613024Y2701976D01*
X5614848Y2704706D01*
X5643665D01*
X5884186Y2464186D01*
X5889147Y2460870D01*
X5895000Y2459706D01*
X6500568D01*
X6501060Y2454706D01*
X6495245Y2453550D01*
X6486976Y2448024D01*
X6485152Y2445294D01*
X5876335D01*
X5660814Y2660814D01*
X5655853Y2664130D01*
X5650000Y2665294D01*
X5614848D01*
X5613024Y2668024D01*
X5604755Y2673550D01*
X5595000Y2675490D01*
X5585245Y2673550D01*
X5576976Y2668024D01*
X5571450Y2659755D01*
X5569510Y2650000D01*
X5571450Y2640245D01*
X5576976Y2631976D01*
X5585245Y2626450D01*
X5595000Y2624510D01*
X5604755Y2626450D01*
X5613024Y2631976D01*
X5614848Y2634706D01*
X5643665D01*
X5859186Y2419186D01*
X5864147Y2415870D01*
X5870000Y2414706D01*
X6485152D01*
X6486976Y2411976D01*
X6495245Y2406450D01*
X6503529Y2404803D01*
X6505746Y2399949D01*
X6414186Y2308388D01*
X6410870Y2303426D01*
X6409706Y2297574D01*
Y2279848D01*
X6406976Y2278024D01*
X6401450Y2269755D01*
X6399510Y2260000D01*
X6401450Y2250245D01*
X6406976Y2241976D01*
X6415245Y2236450D01*
X6425000Y2234510D01*
X6434755Y2236450D01*
X6443024Y2241976D01*
X6448550Y2250245D01*
X6450490Y2260000D01*
X6448550Y2269755D01*
X6443024Y2278024D01*
X6440294Y2279848D01*
Y2291239D01*
X6920814Y2771759D01*
X6924130Y2776721D01*
X6925294Y2782574D01*
Y2935152D01*
X6928024Y2936976D01*
X6933550Y2945245D01*
X6935490Y2955000D01*
X6933550Y2964755D01*
X6928024Y2973024D01*
X6919755Y2978550D01*
X6910000Y2980490D01*
D02*
G37*
G36*
X1630354Y2437638D02*
X1529646D01*
Y2372362D01*
X1630354D01*
Y2437638D01*
D02*
G37*
G36*
X7950354Y2502638D02*
X7849646D01*
Y2437362D01*
X7886952D01*
X7888468Y2432362D01*
X7881976Y2428024D01*
X7876450Y2419755D01*
X7874510Y2410000D01*
X7876450Y2400245D01*
X7881976Y2391976D01*
X7890245Y2386450D01*
X7900000Y2384510D01*
X7905493Y2385603D01*
X7910000Y2384706D01*
X8231811D01*
X8236976Y2376976D01*
X8245246Y2371450D01*
X8255000Y2369510D01*
X8264754Y2371450D01*
X8273024Y2376976D01*
X8278549Y2385245D01*
X8280490Y2395000D01*
X8278549Y2404755D01*
X8273024Y2413024D01*
X8264754Y2418550D01*
X8255000Y2420490D01*
X8245246Y2418550D01*
X8240373Y2415294D01*
X7924437D01*
X7923550Y2419755D01*
X7918024Y2428024D01*
X7911532Y2432362D01*
X7913048Y2437362D01*
X7950354D01*
Y2502638D01*
D02*
G37*
G36*
X6695174Y2495490D02*
X6685419Y2493550D01*
X6677150Y2488024D01*
X6671624Y2479755D01*
X6669684Y2470000D01*
X6671624Y2460245D01*
X6677150Y2451976D01*
X6681976Y2448751D01*
Y2448024D01*
X6676450Y2439755D01*
X6674510Y2430000D01*
X6676450Y2420245D01*
X6681976Y2411976D01*
X6690245Y2406450D01*
X6700000Y2404510D01*
X6709755Y2406450D01*
X6718024Y2411976D01*
X6719848Y2414706D01*
X7668665D01*
X7954186Y2129186D01*
X7959147Y2125870D01*
X7965000Y2124706D01*
X8580152D01*
X8581976Y2121976D01*
X8590246Y2116450D01*
X8600000Y2114510D01*
X8609754Y2116450D01*
X8618024Y2121976D01*
X8623549Y2130245D01*
X8625490Y2140000D01*
X8623549Y2149755D01*
X8618024Y2158024D01*
X8609754Y2163550D01*
X8600000Y2165490D01*
X8590246Y2163550D01*
X8581976Y2158024D01*
X8580152Y2155294D01*
X7971335D01*
X7685814Y2440814D01*
X7680853Y2444130D01*
X7675000Y2445294D01*
X6719848D01*
X6718024Y2448024D01*
X6715507Y2449706D01*
X6717023Y2454706D01*
X7763665D01*
X8039186Y2179186D01*
X8044147Y2175870D01*
X8050000Y2174706D01*
X8560000D01*
X8565853Y2175870D01*
X8570814Y2179186D01*
X8671780Y2280151D01*
X8675000Y2279510D01*
X8684754Y2281450D01*
X8693024Y2286976D01*
X8698549Y2295245D01*
X8700490Y2305000D01*
X8698549Y2314755D01*
X8693024Y2323024D01*
X8684754Y2328550D01*
X8675000Y2330490D01*
X8667747Y2329047D01*
X8665284Y2333655D01*
X8691335Y2359706D01*
X8872362D01*
Y2259646D01*
X8937638D01*
Y2359706D01*
X9258665D01*
X9290151Y2328220D01*
X9289510Y2325000D01*
X9291451Y2315245D01*
X9296976Y2306976D01*
X9305246Y2301450D01*
X9315000Y2299510D01*
X9324754Y2301450D01*
X9333024Y2306976D01*
X9338549Y2315245D01*
X9340490Y2325000D01*
X9338549Y2334755D01*
X9333024Y2343024D01*
X9324754Y2348550D01*
X9315000Y2350490D01*
X9311780Y2349849D01*
X9275814Y2385814D01*
X9270853Y2389130D01*
X9265000Y2390294D01*
X8685000D01*
X8679147Y2389130D01*
X8675105Y2386428D01*
X8671828Y2387115D01*
X8669629Y2388329D01*
X8668549Y2393755D01*
X8663024Y2402024D01*
X8654754Y2407550D01*
X8645000Y2409490D01*
X8635246Y2407550D01*
X8626976Y2402024D01*
X8621451Y2393755D01*
X8619510Y2384000D01*
X8620151Y2380780D01*
X8594665Y2355294D01*
X8584848D01*
X8583024Y2358024D01*
X8574754Y2363550D01*
X8565000Y2365490D01*
X8555246Y2363550D01*
X8546976Y2358024D01*
X8541451Y2349755D01*
X8539510Y2340000D01*
X8541451Y2330245D01*
X8546976Y2321976D01*
X8555246Y2316450D01*
X8565000Y2314510D01*
X8574754Y2316450D01*
X8583024Y2321976D01*
X8584848Y2324706D01*
X8601000D01*
X8606853Y2325870D01*
X8607810Y2326510D01*
X8610997Y2322626D01*
X8533665Y2245294D01*
X8159848D01*
X8158024Y2248024D01*
X8149755Y2253550D01*
X8140000Y2255490D01*
X8130245Y2253550D01*
X8121976Y2248024D01*
X8116450Y2239755D01*
X8114510Y2230000D01*
X8116450Y2220245D01*
X8121976Y2211976D01*
X8124493Y2210294D01*
X8122977Y2205294D01*
X8056335D01*
X7780814Y2480814D01*
X7775853Y2484130D01*
X7770000Y2485294D01*
X6715022D01*
X6713198Y2488024D01*
X6704928Y2493550D01*
X6695174Y2495490D01*
D02*
G37*
G36*
X8950669Y2185354D02*
X8885394D01*
Y2084646D01*
X8950669D01*
Y2185354D01*
D02*
G37*
G36*
X6702283Y2117638D02*
X6601575D01*
Y2052362D01*
X6702283D01*
Y2117638D01*
D02*
G37*
G36*
X3520000Y1770490D02*
X3510245Y1768550D01*
X3501976Y1763024D01*
X3496450Y1754755D01*
X3494510Y1745000D01*
X3495151Y1741780D01*
X3439186Y1685814D01*
X3435870Y1680853D01*
X3434706Y1675000D01*
Y1489848D01*
X3431976Y1488024D01*
X3426450Y1479755D01*
X3424510Y1470000D01*
X3426450Y1460245D01*
X3431976Y1451976D01*
X3440245Y1446450D01*
X3450000Y1444510D01*
X3459755Y1446450D01*
X3468024Y1451976D01*
X3473550Y1460245D01*
X3475490Y1470000D01*
X3473550Y1479755D01*
X3468024Y1488024D01*
X3465294Y1489848D01*
Y1668665D01*
X3516780Y1720151D01*
X3520000Y1719510D01*
X3529755Y1721450D01*
X3538024Y1726976D01*
X3543550Y1735245D01*
X3545490Y1745000D01*
X3543550Y1754755D01*
X3538024Y1763024D01*
X3529755Y1768550D01*
X3520000Y1770490D01*
D02*
G37*
G36*
X8070000Y1730490D02*
X8060245Y1728550D01*
X8051976Y1723024D01*
X8046450Y1714755D01*
X8044510Y1705000D01*
X8045151Y1701780D01*
X8019186Y1675814D01*
X8015870Y1670853D01*
X8014706Y1665000D01*
Y1510544D01*
X8010296Y1508187D01*
X8009755Y1508550D01*
X8000000Y1510490D01*
X7990245Y1508550D01*
X7981976Y1503024D01*
X7980152Y1500294D01*
X7811335D01*
X7764849Y1546780D01*
X7765490Y1550000D01*
X7763550Y1559755D01*
X7758024Y1568024D01*
X7749755Y1573550D01*
X7740000Y1575490D01*
X7730245Y1573550D01*
X7721976Y1568024D01*
X7716450Y1559755D01*
X7714510Y1550000D01*
X7716450Y1540245D01*
X7721976Y1531976D01*
X7730245Y1526450D01*
X7740000Y1524510D01*
X7743220Y1525151D01*
X7794186Y1474186D01*
X7799147Y1470870D01*
X7805000Y1469706D01*
X7980152D01*
X7981976Y1466976D01*
X7990245Y1461450D01*
X8000000Y1459510D01*
X8009755Y1461450D01*
X8010296Y1461813D01*
X8014706Y1459456D01*
Y1239848D01*
X8011976Y1238024D01*
X8006450Y1229755D01*
X8004510Y1220000D01*
X8006450Y1210245D01*
X8011976Y1201976D01*
X8020245Y1196450D01*
X8030000Y1194510D01*
X8039755Y1196450D01*
X8048024Y1201976D01*
X8053550Y1210245D01*
X8055490Y1220000D01*
X8053550Y1229755D01*
X8048024Y1238024D01*
X8045294Y1239848D01*
Y1419112D01*
X8050294Y1421784D01*
X8055245Y1418476D01*
X8065000Y1416535D01*
X8074755Y1418476D01*
X8083024Y1424001D01*
X8088550Y1432271D01*
X8090490Y1442025D01*
X8088550Y1451780D01*
X8083024Y1460049D01*
X8074755Y1465575D01*
X8065000Y1467515D01*
X8055245Y1465575D01*
X8050294Y1462266D01*
X8045294Y1464939D01*
Y1658665D01*
X8066780Y1680151D01*
X8070000Y1679510D01*
X8079755Y1681450D01*
X8088024Y1686976D01*
X8093550Y1695245D01*
X8095490Y1705000D01*
X8093550Y1714755D01*
X8088024Y1723024D01*
X8079755Y1728550D01*
X8070000Y1730490D01*
D02*
G37*
G36*
X3095000D02*
X3085245Y1728550D01*
X3076976Y1723024D01*
X3071450Y1714755D01*
X3069510Y1705000D01*
X3070151Y1701780D01*
X2909186Y1540814D01*
X2905870Y1535853D01*
X2905016Y1531559D01*
X2900544Y1530267D01*
X2899836Y1530313D01*
X2898024Y1533024D01*
X2889755Y1538550D01*
X2880000Y1540490D01*
X2870245Y1538550D01*
X2861976Y1533024D01*
X2860152Y1530294D01*
X2694848D01*
X2693024Y1533024D01*
X2684755Y1538550D01*
X2675000Y1540490D01*
X2665245Y1538550D01*
X2656976Y1533024D01*
X2651450Y1524755D01*
X2649510Y1515000D01*
X2651450Y1505245D01*
X2656976Y1496976D01*
X2665245Y1491450D01*
X2675000Y1489510D01*
X2684755Y1491450D01*
X2693024Y1496976D01*
X2694848Y1499706D01*
X2860152D01*
X2861976Y1496976D01*
X2870245Y1491450D01*
X2880000Y1489510D01*
X2883862Y1490278D01*
X2886869Y1485778D01*
X2885870Y1484284D01*
X2884706Y1478431D01*
Y1214848D01*
X2881976Y1213024D01*
X2876450Y1204755D01*
X2874510Y1195000D01*
X2876450Y1185245D01*
X2881976Y1176976D01*
X2890245Y1171450D01*
X2900000Y1169510D01*
X2909755Y1171450D01*
X2918024Y1176976D01*
X2923550Y1185245D01*
X2925490Y1195000D01*
X2923550Y1204755D01*
X2918024Y1213024D01*
X2915294Y1214848D01*
Y1472097D01*
X2930814Y1487617D01*
X2934130Y1492579D01*
X2935294Y1498431D01*
Y1523665D01*
X3091780Y1680151D01*
X3095000Y1679510D01*
X3104755Y1681450D01*
X3113024Y1686976D01*
X3118550Y1695245D01*
X3120490Y1705000D01*
X3118550Y1714755D01*
X3113024Y1723024D01*
X3104755Y1728550D01*
X3095000Y1730490D01*
D02*
G37*
G36*
X2200000Y1720490D02*
X2190245Y1718550D01*
X2181976Y1713024D01*
X2176450Y1704755D01*
X2174510Y1695000D01*
X2175151Y1691780D01*
X2024186Y1540814D01*
X2020870Y1535853D01*
X2019706Y1530000D01*
Y1519432D01*
X2014706Y1518940D01*
X2013550Y1524755D01*
X2008024Y1533024D01*
X1999755Y1538550D01*
X1990000Y1540490D01*
X1980245Y1538550D01*
X1971976Y1533024D01*
X1970152Y1530294D01*
X1820000D01*
X1815493Y1529397D01*
X1810000Y1530490D01*
X1800245Y1528550D01*
X1791976Y1523024D01*
X1786450Y1514755D01*
X1784510Y1505000D01*
X1786450Y1495245D01*
X1791976Y1486976D01*
X1800245Y1481450D01*
X1810000Y1479510D01*
X1819755Y1481450D01*
X1828024Y1486976D01*
X1833550Y1495245D01*
X1834437Y1499706D01*
X1970152D01*
X1971976Y1496976D01*
X1980245Y1491450D01*
X1990000Y1489510D01*
X1999755Y1491450D01*
X2008024Y1496976D01*
X2013550Y1505245D01*
X2014706Y1511060D01*
X2019706Y1510568D01*
Y1219848D01*
X2016976Y1218024D01*
X2011450Y1209755D01*
X2009510Y1200000D01*
X2011450Y1190245D01*
X2016976Y1181976D01*
X2025245Y1176450D01*
X2035000Y1174510D01*
X2044755Y1176450D01*
X2053024Y1181976D01*
X2058550Y1190245D01*
X2060490Y1200000D01*
X2058550Y1209755D01*
X2053024Y1218024D01*
X2050294Y1219848D01*
Y1523665D01*
X2196780Y1670151D01*
X2200000Y1669510D01*
X2209755Y1671450D01*
X2218024Y1676976D01*
X2223550Y1685245D01*
X2225490Y1695000D01*
X2223550Y1704755D01*
X2218024Y1713024D01*
X2209755Y1718550D01*
X2200000Y1720490D01*
D02*
G37*
G36*
X1355000Y1635490D02*
X1345245Y1633550D01*
X1336976Y1628024D01*
X1331450Y1619755D01*
X1329510Y1610000D01*
X1330151Y1606780D01*
X1149186Y1425814D01*
X1145870Y1420853D01*
X1144706Y1415000D01*
Y1254848D01*
X1141976Y1253024D01*
X1136450Y1244755D01*
X1134510Y1235000D01*
X1136450Y1225245D01*
X1141976Y1216976D01*
X1150245Y1211450D01*
X1160000Y1209510D01*
X1169755Y1211450D01*
X1178024Y1216976D01*
X1183550Y1225245D01*
X1185490Y1235000D01*
X1183550Y1244755D01*
X1178024Y1253024D01*
X1175294Y1254848D01*
Y1408665D01*
X1351780Y1585151D01*
X1355000Y1584510D01*
X1364755Y1586450D01*
X1373024Y1591976D01*
X1378550Y1600245D01*
X1380490Y1610000D01*
X1378550Y1619755D01*
X1373024Y1628024D01*
X1364755Y1633550D01*
X1355000Y1635490D01*
D02*
G37*
G36*
X1560000Y1788761D02*
X1542986Y1787421D01*
X1526391Y1783437D01*
X1510624Y1776906D01*
X1496072Y1767989D01*
X1483095Y1756905D01*
X1472011Y1743928D01*
X1463094Y1729376D01*
X1456563Y1713609D01*
X1452579Y1697014D01*
X1451239Y1680000D01*
X1452579Y1662986D01*
X1456563Y1646391D01*
X1463094Y1630624D01*
X1472011Y1616072D01*
X1483095Y1603095D01*
X1496072Y1592011D01*
X1510624Y1583094D01*
X1526391Y1576563D01*
X1542986Y1572579D01*
X1560000Y1571239D01*
X1577014Y1572579D01*
X1593609Y1576563D01*
X1609376Y1583094D01*
X1623928Y1592011D01*
X1636905Y1603095D01*
X1647989Y1616072D01*
X1656906Y1630624D01*
X1663437Y1646391D01*
X1667421Y1662986D01*
X1668761Y1680000D01*
X1667421Y1697014D01*
X1663437Y1713609D01*
X1656906Y1729376D01*
X1647989Y1743928D01*
X1636905Y1756905D01*
X1623928Y1767989D01*
X1609376Y1776906D01*
X1593609Y1783437D01*
X1577014Y1787421D01*
X1560000Y1788761D01*
D02*
G37*
G36*
X3655000Y1855490D02*
X3645245Y1853550D01*
X3636976Y1848024D01*
X3631450Y1839755D01*
X3629510Y1830000D01*
X3631450Y1820245D01*
X3636976Y1811976D01*
X3645245Y1806450D01*
X3655000Y1804510D01*
X3658220Y1805151D01*
X3684706Y1778665D01*
Y1604848D01*
X3681976Y1603024D01*
X3676450Y1594755D01*
X3674510Y1585000D01*
X3676450Y1575245D01*
X3681976Y1566976D01*
X3690245Y1561450D01*
X3700000Y1559510D01*
X3709755Y1561450D01*
X3718024Y1566976D01*
X3723550Y1575245D01*
X3725490Y1585000D01*
X3723550Y1594755D01*
X3718024Y1603024D01*
X3715294Y1604848D01*
Y1785000D01*
X3714130Y1790853D01*
X3710814Y1795814D01*
X3679849Y1826780D01*
X3680490Y1830000D01*
X3678550Y1839755D01*
X3673024Y1848024D01*
X3664755Y1853550D01*
X3655000Y1855490D01*
D02*
G37*
G36*
X9230000Y1748761D02*
X9212986Y1747421D01*
X9196391Y1743437D01*
X9180624Y1736906D01*
X9166072Y1727989D01*
X9153095Y1716905D01*
X9142011Y1703928D01*
X9133094Y1689376D01*
X9126563Y1673609D01*
X9122578Y1657014D01*
X9121239Y1640000D01*
X9122578Y1622986D01*
X9126563Y1606391D01*
X9133094Y1590624D01*
X9142011Y1576072D01*
X9153095Y1563095D01*
X9166072Y1552011D01*
X9180624Y1543094D01*
X9196391Y1536563D01*
X9212986Y1532579D01*
X9230000Y1531239D01*
X9247014Y1532579D01*
X9263609Y1536563D01*
X9279376Y1543094D01*
X9293928Y1552011D01*
X9306905Y1563095D01*
X9317989Y1576072D01*
X9326906Y1590624D01*
X9333437Y1606391D01*
X9337422Y1622986D01*
X9338761Y1640000D01*
X9337422Y1657014D01*
X9333437Y1673609D01*
X9326906Y1689376D01*
X9317989Y1703928D01*
X9306905Y1716905D01*
X9293928Y1727989D01*
X9279376Y1736906D01*
X9263609Y1743437D01*
X9247014Y1747421D01*
X9230000Y1748761D01*
D02*
G37*
G36*
X8205000Y1730490D02*
X8195246Y1728550D01*
X8186976Y1723024D01*
X8181450Y1714755D01*
X8179510Y1705000D01*
X8181450Y1695245D01*
X8186976Y1686976D01*
X8190818Y1684409D01*
X8190870Y1684147D01*
X8194186Y1679186D01*
X8194706Y1678838D01*
Y1574848D01*
X8191976Y1573024D01*
X8186450Y1564755D01*
X8184510Y1555000D01*
X8186450Y1545245D01*
X8191976Y1536976D01*
X8200246Y1531450D01*
X8210000Y1529510D01*
X8219754Y1531450D01*
X8228024Y1536976D01*
X8233549Y1545245D01*
X8235490Y1555000D01*
X8233549Y1564755D01*
X8228024Y1573024D01*
X8225294Y1574848D01*
Y1690373D01*
X8228549Y1695245D01*
X8230490Y1705000D01*
X8228549Y1714755D01*
X8223024Y1723024D01*
X8214754Y1728550D01*
X8205000Y1730490D01*
D02*
G37*
G36*
X6225000Y1727825D02*
X6215245Y1725885D01*
X6206976Y1720360D01*
X6201450Y1712090D01*
X6199510Y1702336D01*
X6201450Y1692581D01*
X6206976Y1684312D01*
X6215245Y1678786D01*
X6225000Y1676846D01*
X6234755Y1678786D01*
X6243024Y1684312D01*
X6244848Y1687042D01*
X6326329D01*
X6334706Y1678665D01*
Y1527023D01*
X6329706Y1525507D01*
X6328024Y1528024D01*
X6319755Y1533550D01*
X6310000Y1535490D01*
X6300245Y1533550D01*
X6295373Y1530294D01*
X6029848D01*
X6028024Y1533024D01*
X6019755Y1538550D01*
X6010000Y1540490D01*
X6000245Y1538550D01*
X5991976Y1533024D01*
X5986450Y1524755D01*
X5984510Y1515000D01*
X5986450Y1505245D01*
X5991976Y1496976D01*
X6000245Y1491450D01*
X6010000Y1489510D01*
X6019755Y1491450D01*
X6028024Y1496976D01*
X6029848Y1499706D01*
X6286811D01*
X6291976Y1491976D01*
X6300245Y1486450D01*
X6310000Y1484510D01*
X6316303Y1485764D01*
X6320309Y1481463D01*
X6319706Y1478431D01*
Y1244848D01*
X6316976Y1243024D01*
X6311450Y1234755D01*
X6309510Y1225000D01*
X6311450Y1215245D01*
X6316976Y1206976D01*
X6325245Y1201450D01*
X6335000Y1199510D01*
X6344755Y1201450D01*
X6353024Y1206976D01*
X6358550Y1215245D01*
X6360490Y1225000D01*
X6358550Y1234755D01*
X6353024Y1243024D01*
X6350294Y1244848D01*
Y1472097D01*
X6360814Y1482617D01*
X6364130Y1487579D01*
X6365294Y1493431D01*
Y1685000D01*
X6364130Y1690853D01*
X6360814Y1695814D01*
X6343479Y1713150D01*
X6338517Y1716465D01*
X6332664Y1717630D01*
X6244848D01*
X6243024Y1720360D01*
X6234755Y1725885D01*
X6225000Y1727825D01*
D02*
G37*
G36*
X1730000Y1630490D02*
X1720245Y1628550D01*
X1711976Y1623024D01*
X1706450Y1614755D01*
X1704510Y1605000D01*
X1706450Y1595245D01*
X1711976Y1586976D01*
X1714706Y1585152D01*
Y1499412D01*
X1710061Y1495478D01*
X1710000Y1495490D01*
X1700245Y1493550D01*
X1691976Y1488024D01*
X1686450Y1479755D01*
X1684510Y1470000D01*
X1686450Y1460245D01*
X1691976Y1451976D01*
X1700245Y1446450D01*
X1710000Y1444510D01*
X1719755Y1446450D01*
X1728024Y1451976D01*
X1733550Y1460245D01*
X1735490Y1470000D01*
X1734849Y1473220D01*
X1740814Y1479186D01*
X1744130Y1484147D01*
X1745294Y1490000D01*
Y1585152D01*
X1748024Y1586976D01*
X1753550Y1595245D01*
X1755490Y1605000D01*
X1753550Y1614755D01*
X1748024Y1623024D01*
X1739755Y1628550D01*
X1730000Y1630490D01*
D02*
G37*
G36*
X7605000Y1760490D02*
X7595245Y1758550D01*
X7586976Y1753024D01*
X7581450Y1744755D01*
X7579510Y1735000D01*
X7581450Y1725245D01*
X7586976Y1716976D01*
X7595245Y1711450D01*
X7605000Y1709510D01*
X7614755Y1711450D01*
X7616053Y1712318D01*
X7663840Y1664531D01*
Y1516417D01*
X7661110Y1514592D01*
X7655584Y1506323D01*
X7653644Y1496569D01*
X7655584Y1486814D01*
X7661110Y1478544D01*
X7669379Y1473019D01*
X7679134Y1471079D01*
X7688888Y1473019D01*
X7697158Y1478544D01*
X7702683Y1486814D01*
X7704624Y1496569D01*
X7702683Y1506323D01*
X7697158Y1514592D01*
X7694428Y1516417D01*
Y1670866D01*
X7693264Y1676719D01*
X7689948Y1681680D01*
X7628966Y1742663D01*
X7628550Y1744755D01*
X7623024Y1753024D01*
X7614755Y1758550D01*
X7605000Y1760490D01*
D02*
G37*
G36*
X9030000Y1495490D02*
X9020246Y1493550D01*
X9011976Y1488024D01*
X9006451Y1479755D01*
X9004510Y1470000D01*
X9006451Y1460245D01*
X9011976Y1451976D01*
X9020246Y1446450D01*
X9030000Y1444510D01*
X9039754Y1446450D01*
X9048024Y1451976D01*
X9053549Y1460245D01*
X9055490Y1470000D01*
X9053549Y1479755D01*
X9048024Y1488024D01*
X9039754Y1493550D01*
X9030000Y1495490D01*
D02*
G37*
G36*
X1820000Y2820490D02*
X1810245Y2818550D01*
X1801976Y2813024D01*
X1796450Y2804755D01*
X1794510Y2795000D01*
X1796450Y2785245D01*
X1801976Y2776976D01*
X1804706Y2775152D01*
Y1885000D01*
X1805870Y1879147D01*
X1809186Y1874186D01*
X1944186Y1739186D01*
X1949147Y1735870D01*
X1955000Y1734706D01*
X2346177D01*
X2559706Y1620824D01*
Y1489848D01*
X2556976Y1488024D01*
X2551450Y1479755D01*
X2549510Y1470000D01*
X2551450Y1460245D01*
X2556976Y1451976D01*
X2565245Y1446450D01*
X2575000Y1444510D01*
X2584755Y1446450D01*
X2593024Y1451976D01*
X2598550Y1460245D01*
X2600490Y1470000D01*
X2598550Y1479755D01*
X2593024Y1488024D01*
X2590294Y1489848D01*
Y1630000D01*
X2589854Y1632211D01*
X2589631Y1634453D01*
X2589276Y1635115D01*
X2589130Y1635853D01*
X2587878Y1637727D01*
X2586813Y1639713D01*
X2586232Y1640189D01*
X2585814Y1640814D01*
X2583941Y1642066D01*
X2582197Y1643495D01*
X2357197Y1763495D01*
X2356478Y1763712D01*
X2355853Y1764130D01*
X2353642Y1764569D01*
X2351485Y1765222D01*
X2350737Y1765147D01*
X2350000Y1765294D01*
X1961335D01*
X1835294Y1891335D01*
Y2775152D01*
X1838024Y2776976D01*
X1843550Y2785245D01*
X1845490Y2795000D01*
X1843550Y2804755D01*
X1838024Y2813024D01*
X1829755Y2818550D01*
X1820000Y2820490D01*
D02*
G37*
G36*
X6629000Y1731490D02*
X6619245Y1729550D01*
X6610976Y1724024D01*
X6605450Y1715755D01*
X6603510Y1706000D01*
X6605450Y1696245D01*
X6610976Y1687976D01*
X6619245Y1682450D01*
X6629000Y1680510D01*
X6634493Y1681603D01*
X6639000Y1680706D01*
X6804665D01*
X6824706Y1660665D01*
Y1489848D01*
X6821976Y1488024D01*
X6816450Y1479755D01*
X6814510Y1470000D01*
X6816450Y1460245D01*
X6821976Y1451976D01*
X6830245Y1446450D01*
X6840000Y1444510D01*
X6849755Y1446450D01*
X6858024Y1451976D01*
X6863550Y1460245D01*
X6865490Y1470000D01*
X6863550Y1479755D01*
X6858024Y1488024D01*
X6855294Y1489848D01*
Y1497977D01*
X6860294Y1499493D01*
X6861976Y1496976D01*
X6870245Y1491450D01*
X6880000Y1489510D01*
X6889755Y1491450D01*
X6898024Y1496976D01*
X6899848Y1499706D01*
X6943665D01*
X6959186Y1484186D01*
X6964147Y1480870D01*
X6970000Y1479706D01*
X7210152D01*
X7211976Y1476976D01*
X7220245Y1471450D01*
X7230000Y1469510D01*
X7232969Y1470101D01*
X7235432Y1465493D01*
X7159186Y1389246D01*
X7155870Y1384284D01*
X7154706Y1378431D01*
Y1229848D01*
X7151976Y1228024D01*
X7146450Y1219755D01*
X7144510Y1210000D01*
X7146450Y1200245D01*
X7151976Y1191976D01*
X7160245Y1186450D01*
X7170000Y1184510D01*
X7179755Y1186450D01*
X7188024Y1191976D01*
X7193550Y1200245D01*
X7195490Y1210000D01*
X7193550Y1219755D01*
X7188024Y1228024D01*
X7185294Y1229848D01*
Y1372097D01*
X7275118Y1461921D01*
X7276364Y1461790D01*
X7280378Y1456341D01*
X7279510Y1451976D01*
X7281450Y1442222D01*
X7286976Y1433952D01*
X7295245Y1428427D01*
X7305000Y1426486D01*
X7314755Y1428427D01*
X7323024Y1433952D01*
X7328550Y1442222D01*
X7330490Y1451976D01*
X7328550Y1461730D01*
X7323024Y1470000D01*
X7314755Y1475525D01*
X7305000Y1477466D01*
X7295245Y1475525D01*
X7288758Y1471191D01*
X7284481Y1474347D01*
X7285294Y1478431D01*
Y1483665D01*
X7385814Y1584186D01*
X7389130Y1589147D01*
X7390294Y1595000D01*
Y1680152D01*
X7393024Y1681976D01*
X7398550Y1690245D01*
X7400490Y1700000D01*
X7398550Y1709755D01*
X7393024Y1718024D01*
X7384755Y1723550D01*
X7375000Y1725490D01*
X7365245Y1723550D01*
X7356976Y1718024D01*
X7351450Y1709755D01*
X7349510Y1700000D01*
X7351450Y1690245D01*
X7356976Y1681976D01*
X7359706Y1680152D01*
Y1601335D01*
X7259391Y1501019D01*
X7258375Y1501026D01*
X7254067Y1502153D01*
X7253550Y1504755D01*
X7248024Y1513024D01*
X7239755Y1518550D01*
X7230000Y1520490D01*
X7220245Y1518550D01*
X7211976Y1513024D01*
X7210152Y1510294D01*
X6976335D01*
X6960814Y1525814D01*
X6955853Y1529130D01*
X6950000Y1530294D01*
X6899848D01*
X6898024Y1533024D01*
X6889755Y1538550D01*
X6880000Y1540490D01*
X6870245Y1538550D01*
X6861976Y1533024D01*
X6860294Y1530507D01*
X6855294Y1532023D01*
Y1667000D01*
X6854130Y1672853D01*
X6850814Y1677814D01*
X6821814Y1706814D01*
X6816853Y1710130D01*
X6811000Y1711294D01*
X6653437D01*
X6652550Y1715755D01*
X6647024Y1724024D01*
X6638755Y1729550D01*
X6629000Y1731490D01*
D02*
G37*
G36*
X3260000Y1414495D02*
Y1395000D01*
X3279495D01*
X3278550Y1399755D01*
X3273024Y1408024D01*
X3264755Y1413550D01*
X3260000Y1414495D01*
D02*
G37*
G36*
X3250000D02*
X3245245Y1413550D01*
X3236976Y1408024D01*
X3231450Y1399755D01*
X3230505Y1395000D01*
X3250000D01*
Y1414495D01*
D02*
G37*
G36*
X1510000Y1389495D02*
Y1370000D01*
X1529495D01*
X1528550Y1374755D01*
X1523024Y1383024D01*
X1514755Y1388550D01*
X1510000Y1389495D01*
D02*
G37*
G36*
X1500000D02*
X1495245Y1388550D01*
X1486976Y1383024D01*
X1481450Y1374755D01*
X1480505Y1370000D01*
X1500000D01*
Y1389495D01*
D02*
G37*
G36*
X4935000Y1388642D02*
Y1369147D01*
X4954495D01*
X4953550Y1373902D01*
X4948024Y1382171D01*
X4939755Y1387697D01*
X4935000Y1388642D01*
D02*
G37*
G36*
X4925000D02*
X4920245Y1387697D01*
X4911976Y1382171D01*
X4906450Y1373902D01*
X4905505Y1369147D01*
X4925000D01*
Y1388642D01*
D02*
G37*
G36*
X3279495Y1385000D02*
X3260000D01*
Y1365505D01*
X3264755Y1366450D01*
X3273024Y1371976D01*
X3278550Y1380245D01*
X3279495Y1385000D01*
D02*
G37*
G36*
X3250000D02*
X3230505D01*
X3231450Y1380245D01*
X3236976Y1371976D01*
X3245245Y1366450D01*
X3250000Y1365505D01*
Y1385000D01*
D02*
G37*
G36*
X8355000Y1382519D02*
Y1363024D01*
X8374495D01*
X8373549Y1367778D01*
X8368024Y1376048D01*
X8359754Y1381573D01*
X8355000Y1382519D01*
D02*
G37*
G36*
X8345000D02*
X8340246Y1381573D01*
X8331976Y1376048D01*
X8326451Y1367778D01*
X8325505Y1363024D01*
X8345000D01*
Y1382519D01*
D02*
G37*
G36*
X7505000Y1376064D02*
Y1356569D01*
X7524495D01*
X7523550Y1361323D01*
X7518024Y1369592D01*
X7509755Y1375118D01*
X7505000Y1376064D01*
D02*
G37*
G36*
X7495000D02*
X7490245Y1375118D01*
X7481976Y1369592D01*
X7476450Y1361323D01*
X7475505Y1356569D01*
X7495000D01*
Y1376064D01*
D02*
G37*
G36*
X5785814Y1364495D02*
Y1345000D01*
X5805310D01*
X5804364Y1349755D01*
X5798838Y1358024D01*
X5790569Y1363550D01*
X5785814Y1364495D01*
D02*
G37*
G36*
X5775814D02*
X5771060Y1363550D01*
X5762790Y1358024D01*
X5757265Y1349755D01*
X5756319Y1345000D01*
X5775814D01*
Y1364495D01*
D02*
G37*
G36*
X2390000D02*
Y1345000D01*
X2409495D01*
X2408550Y1349755D01*
X2403024Y1358024D01*
X2394755Y1363550D01*
X2390000Y1364495D01*
D02*
G37*
G36*
X2380000D02*
X2375245Y1363550D01*
X2366976Y1358024D01*
X2361450Y1349755D01*
X2360505Y1345000D01*
X2380000D01*
Y1364495D01*
D02*
G37*
G36*
X1529495Y1360000D02*
X1510000D01*
Y1340505D01*
X1514755Y1341450D01*
X1523024Y1346976D01*
X1528550Y1355245D01*
X1529495Y1360000D01*
D02*
G37*
G36*
X1500000D02*
X1480505D01*
X1481450Y1355245D01*
X1486976Y1346976D01*
X1495245Y1341450D01*
X1500000Y1340505D01*
Y1360000D01*
D02*
G37*
G36*
X9215000Y1359495D02*
Y1340000D01*
X9234495D01*
X9233549Y1344755D01*
X9228024Y1353024D01*
X9219754Y1358550D01*
X9215000Y1359495D01*
D02*
G37*
G36*
X9205000D02*
X9200246Y1358550D01*
X9191976Y1353024D01*
X9186451Y1344755D01*
X9185505Y1340000D01*
X9205000D01*
Y1359495D01*
D02*
G37*
G36*
X4954495Y1359147D02*
X4935000D01*
Y1339652D01*
X4939755Y1340598D01*
X4948024Y1346123D01*
X4953550Y1354393D01*
X4954495Y1359147D01*
D02*
G37*
G36*
X4925000D02*
X4905505D01*
X4906450Y1354393D01*
X4911976Y1346123D01*
X4920245Y1340598D01*
X4925000Y1339652D01*
Y1359147D01*
D02*
G37*
G36*
X8374495Y1353024D02*
X8355000D01*
Y1333529D01*
X8359754Y1334475D01*
X8368024Y1340000D01*
X8373549Y1348270D01*
X8374495Y1353024D01*
D02*
G37*
G36*
X8345000D02*
X8325505D01*
X8326451Y1348270D01*
X8331976Y1340000D01*
X8340246Y1334475D01*
X8345000Y1333529D01*
Y1353024D01*
D02*
G37*
G36*
X7524495Y1346569D02*
X7505000D01*
Y1327073D01*
X7509755Y1328019D01*
X7518024Y1333544D01*
X7523550Y1341814D01*
X7524495Y1346569D01*
D02*
G37*
G36*
X7495000D02*
X7475505D01*
X7476450Y1341814D01*
X7481976Y1333544D01*
X7490245Y1328019D01*
X7495000Y1327073D01*
Y1346569D01*
D02*
G37*
G36*
X7910000Y1377058D02*
X7900245Y1375118D01*
X7891976Y1369592D01*
X7886450Y1361323D01*
X7884510Y1351569D01*
X7886450Y1341814D01*
X7889949Y1336578D01*
X7873665Y1320294D01*
X7849848D01*
X7848024Y1323024D01*
X7839755Y1328550D01*
X7830000Y1330490D01*
X7820245Y1328550D01*
X7811976Y1323024D01*
X7806450Y1314755D01*
X7804510Y1305000D01*
X7806450Y1295245D01*
X7811976Y1286976D01*
X7820245Y1281450D01*
X7830000Y1279510D01*
X7839755Y1281450D01*
X7848024Y1286976D01*
X7849848Y1289706D01*
X7880000D01*
X7885853Y1290870D01*
X7890814Y1294186D01*
X7920814Y1324186D01*
X7924130Y1329147D01*
X7924542Y1331218D01*
X7928024Y1333544D01*
X7933550Y1341814D01*
X7935490Y1351569D01*
X7933550Y1361323D01*
X7928024Y1369592D01*
X7919755Y1375118D01*
X7910000Y1377058D01*
D02*
G37*
G36*
X4105000Y1339495D02*
Y1320000D01*
X4124495D01*
X4123550Y1324755D01*
X4118024Y1333024D01*
X4109755Y1338550D01*
X4105000Y1339495D01*
D02*
G37*
G36*
X4095000D02*
X4090245Y1338550D01*
X4081976Y1333024D01*
X4076450Y1324755D01*
X4075505Y1320000D01*
X4095000D01*
Y1339495D01*
D02*
G37*
G36*
X2409495Y1335000D02*
X2390000D01*
Y1315505D01*
X2394755Y1316450D01*
X2403024Y1321976D01*
X2408550Y1330245D01*
X2409495Y1335000D01*
D02*
G37*
G36*
X2380000D02*
X2360505D01*
X2361450Y1330245D01*
X2366976Y1321976D01*
X2375245Y1316450D01*
X2380000Y1315505D01*
Y1335000D01*
D02*
G37*
G36*
X5805310D02*
X5785814D01*
Y1315505D01*
X5790569Y1316450D01*
X5798838Y1321976D01*
X5804364Y1330245D01*
X5805310Y1335000D01*
D02*
G37*
G36*
X5775814D02*
X5756319D01*
X5757265Y1330245D01*
X5762790Y1321976D01*
X5771060Y1316450D01*
X5775814Y1315505D01*
Y1335000D01*
D02*
G37*
G36*
X9234495Y1330000D02*
X9215000D01*
Y1310505D01*
X9219754Y1311450D01*
X9228024Y1316976D01*
X9233549Y1325245D01*
X9234495Y1330000D01*
D02*
G37*
G36*
X9205000D02*
X9185505D01*
X9186451Y1325245D01*
X9191976Y1316976D01*
X9200246Y1311450D01*
X9205000Y1310505D01*
Y1330000D01*
D02*
G37*
G36*
X8780000Y1365490D02*
X8770246Y1363550D01*
X8761976Y1358024D01*
X8756451Y1349755D01*
X8754510Y1340000D01*
X8755151Y1336780D01*
X8728665Y1310294D01*
X8704848D01*
X8703024Y1313024D01*
X8694754Y1318550D01*
X8685000Y1320490D01*
X8675246Y1318550D01*
X8666976Y1313024D01*
X8661451Y1304755D01*
X8659510Y1295000D01*
X8661451Y1285245D01*
X8666976Y1276976D01*
X8675246Y1271450D01*
X8685000Y1269510D01*
X8694754Y1271450D01*
X8703024Y1276976D01*
X8704848Y1279706D01*
X8735000D01*
X8740853Y1280870D01*
X8745814Y1284186D01*
X8776780Y1315151D01*
X8780000Y1314510D01*
X8789754Y1316450D01*
X8798024Y1321976D01*
X8803549Y1330245D01*
X8805490Y1340000D01*
X8803549Y1349755D01*
X8798024Y1358024D01*
X8789754Y1363550D01*
X8780000Y1365490D01*
D02*
G37*
G36*
X7065000Y1350490D02*
X7055245Y1348550D01*
X7046976Y1343024D01*
X7041450Y1334755D01*
X7039510Y1325000D01*
X7041450Y1315245D01*
X7042318Y1313947D01*
X7038665Y1310294D01*
X7004848D01*
X7003024Y1313024D01*
X6994755Y1318550D01*
X6985000Y1320490D01*
X6975245Y1318550D01*
X6966976Y1313024D01*
X6961450Y1304755D01*
X6959510Y1295000D01*
X6961450Y1285245D01*
X6966976Y1276976D01*
X6975245Y1271450D01*
X6985000Y1269510D01*
X6994755Y1271450D01*
X7003024Y1276976D01*
X7004848Y1279706D01*
X7045000D01*
X7050853Y1280870D01*
X7055814Y1284186D01*
X7072663Y1301034D01*
X7074755Y1301450D01*
X7083024Y1306976D01*
X7088550Y1315245D01*
X7090490Y1325000D01*
X7088550Y1334755D01*
X7083024Y1343024D01*
X7074755Y1348550D01*
X7065000Y1350490D01*
D02*
G37*
G36*
X5340000Y1445490D02*
X5330245Y1443550D01*
X5321976Y1438024D01*
X5316450Y1429755D01*
X5314510Y1420000D01*
X5316450Y1410245D01*
X5321976Y1401976D01*
X5324706Y1400152D01*
Y1321335D01*
X5313665Y1310294D01*
X5284848D01*
X5283024Y1313024D01*
X5274755Y1318550D01*
X5265000Y1320490D01*
X5255245Y1318550D01*
X5246976Y1313024D01*
X5241450Y1304755D01*
X5239510Y1295000D01*
X5241450Y1285245D01*
X5246976Y1276976D01*
X5255245Y1271450D01*
X5265000Y1269510D01*
X5274755Y1271450D01*
X5283024Y1276976D01*
X5284848Y1279706D01*
X5320000D01*
X5325853Y1280870D01*
X5330814Y1284186D01*
X5350814Y1304186D01*
X5354130Y1309147D01*
X5355294Y1315000D01*
Y1400152D01*
X5358024Y1401976D01*
X5363550Y1410245D01*
X5365490Y1420000D01*
X5363550Y1429755D01*
X5358024Y1438024D01*
X5349755Y1443550D01*
X5340000Y1445490D01*
D02*
G37*
G36*
X6215000Y1350490D02*
X6205245Y1348550D01*
X6196976Y1343024D01*
X6191450Y1334755D01*
X6189510Y1325000D01*
X6190151Y1321780D01*
X6168665Y1300294D01*
X6159848D01*
X6158024Y1303024D01*
X6149755Y1308550D01*
X6140000Y1310490D01*
X6130245Y1308550D01*
X6121976Y1303024D01*
X6116450Y1294755D01*
X6114510Y1285000D01*
X6116450Y1275245D01*
X6121976Y1266976D01*
X6130245Y1261450D01*
X6140000Y1259510D01*
X6149755Y1261450D01*
X6158024Y1266976D01*
X6159848Y1269706D01*
X6175000D01*
X6180853Y1270870D01*
X6185814Y1274186D01*
X6211780Y1300151D01*
X6215000Y1299510D01*
X6224755Y1301450D01*
X6233024Y1306976D01*
X6238550Y1315245D01*
X6240490Y1325000D01*
X6238550Y1334755D01*
X6233024Y1343024D01*
X6224755Y1348550D01*
X6215000Y1350490D01*
D02*
G37*
G36*
X2795000Y1360490D02*
X2785245Y1358550D01*
X2776976Y1353024D01*
X2771450Y1344755D01*
X2769510Y1335000D01*
X2771450Y1325245D01*
X2772318Y1323947D01*
X2743220Y1294849D01*
X2740000Y1295490D01*
X2730245Y1293550D01*
X2721976Y1288024D01*
X2716450Y1279755D01*
X2714510Y1270000D01*
X2716450Y1260245D01*
X2721976Y1251976D01*
X2730245Y1246450D01*
X2740000Y1244510D01*
X2749755Y1246450D01*
X2758024Y1251976D01*
X2763550Y1260245D01*
X2765490Y1270000D01*
X2764849Y1273220D01*
X2802664Y1311035D01*
X2804755Y1311450D01*
X2813024Y1316976D01*
X2818550Y1325245D01*
X2820490Y1335000D01*
X2818550Y1344755D01*
X2813024Y1353024D01*
X2804755Y1358550D01*
X2795000Y1360490D01*
D02*
G37*
G36*
X4124495Y1310000D02*
X4105000D01*
Y1290505D01*
X4109755Y1291450D01*
X4118024Y1296976D01*
X4123550Y1305245D01*
X4124495Y1310000D01*
D02*
G37*
G36*
X4095000D02*
X4075505D01*
X4076450Y1305245D01*
X4081976Y1296976D01*
X4090245Y1291450D01*
X4095000Y1290505D01*
Y1310000D01*
D02*
G37*
G36*
X2845000Y1125490D02*
X2835245Y1123550D01*
X2826976Y1118024D01*
X2825152Y1115294D01*
X2749848D01*
X2748024Y1118024D01*
X2739755Y1123550D01*
X2730000Y1125490D01*
X2720245Y1123550D01*
X2711976Y1118024D01*
X2706450Y1109755D01*
X2704510Y1100000D01*
X2706450Y1090245D01*
X2711976Y1081976D01*
X2720245Y1076450D01*
X2730000Y1074510D01*
X2739755Y1076450D01*
X2748024Y1081976D01*
X2749848Y1084706D01*
X2825152D01*
X2826976Y1081976D01*
X2835245Y1076450D01*
X2845000Y1074510D01*
X2854755Y1076450D01*
X2863024Y1081976D01*
X2868550Y1090245D01*
X2870490Y1100000D01*
X2868550Y1109755D01*
X2863024Y1118024D01*
X2854755Y1123550D01*
X2845000Y1125490D01*
D02*
G37*
%LPD*%
G36*
X3272392Y4068515D02*
X3273781Y4067126D01*
Y4065738D01*
Y4062960D01*
X3272392Y4056016D01*
Y4054627D01*
Y4049072D01*
X3271003Y4039350D01*
X3269614Y4026851D01*
Y4025462D01*
Y4024074D01*
X3268226Y4014352D01*
X3266837Y4001853D01*
X3264059Y3987965D01*
X3254338Y3910192D01*
X3182120D01*
X3159899Y3975466D01*
Y3976854D01*
X3158510Y3978243D01*
X3155733Y3985187D01*
X3151566Y3996298D01*
X3147400Y4007408D01*
Y4008797D01*
X3146011Y4010186D01*
X3144622Y4015741D01*
X3141845Y4024074D01*
X3139067Y4031018D01*
Y4032406D01*
X3137678Y4036573D01*
X3136290Y4039350D01*
Y4036573D01*
X3134901Y4031018D01*
Y4024074D01*
X3133512Y4011574D01*
X3132123Y3996298D01*
X3130734Y3986576D01*
X3129346Y3975466D01*
Y3972688D01*
X3127957Y3965744D01*
X3126568Y3956022D01*
X3125179Y3943523D01*
X3123790Y3932413D01*
X3122402Y3921302D01*
X3121013Y3914358D01*
X3119624Y3911581D01*
Y3910192D01*
Y3907414D01*
X3096014D01*
Y3910192D01*
Y3911581D01*
Y3914358D01*
X3097403Y3919914D01*
Y3929635D01*
X3100181Y3943523D01*
Y3951856D01*
X3101570Y3962966D01*
X3102958Y3974077D01*
X3104347Y3987965D01*
Y3989354D01*
Y3990742D01*
X3105736Y3994909D01*
Y4000464D01*
X3107125Y4012963D01*
X3109902Y4028240D01*
X3111291Y4042128D01*
X3112680Y4054627D01*
Y4060182D01*
X3114069Y4064349D01*
Y4065738D01*
Y4067126D01*
X3115458Y4069904D01*
X3189064D01*
X3193230Y4057405D01*
Y4056016D01*
X3194619Y4051850D01*
X3196008Y4046294D01*
Y4044906D01*
X3198786Y4040739D01*
X3200174Y4032406D01*
X3204341Y4022685D01*
X3205730Y4019907D01*
X3207118Y4012963D01*
X3211285Y4004630D01*
X3214062Y3994909D01*
X3215451Y3992131D01*
X3216840Y3985187D01*
X3221006Y3976854D01*
X3223784Y3967133D01*
X3225173Y3965744D01*
X3226562Y3960189D01*
X3227950Y3953245D01*
X3229339Y3946301D01*
Y3944912D01*
X3230728Y3943523D01*
X3232117Y3940746D01*
X3233506Y3939357D01*
Y3940746D01*
X3234894Y3942134D01*
Y3947690D01*
X3236283Y3954634D01*
X3237672Y3965744D01*
X3239061Y3982410D01*
X3240450Y3992131D01*
X3241838Y4003242D01*
Y4004630D01*
Y4006019D01*
X3243227Y4012963D01*
X3244616Y4024074D01*
X3246005Y4035184D01*
Y4047683D01*
X3247394Y4057405D01*
X3248782Y4065738D01*
Y4067126D01*
Y4068515D01*
X3250171Y4069904D01*
X3268226D01*
X3272392Y4068515D01*
D02*
G37*
G36*
X3459880Y4067126D02*
Y4065738D01*
X3458491Y4061571D01*
X3457102Y4054627D01*
X3455714Y4043517D01*
X3372386D01*
X3370997Y4040739D01*
X3368219Y4039350D01*
X3365442Y4035184D01*
Y4033795D01*
Y4032406D01*
Y4028240D01*
X3364053Y4022685D01*
X3362664Y4014352D01*
X3361275Y4003242D01*
X3359886Y3987965D01*
Y3986576D01*
X3358498Y3981021D01*
Y3974077D01*
X3357109Y3965744D01*
X3355720Y3957411D01*
Y3950467D01*
X3354331Y3944912D01*
Y3942134D01*
Y3940746D01*
X3355720Y3939357D01*
X3358498Y3936579D01*
X3359886Y3933802D01*
X3379330D01*
X3384885Y3935190D01*
X3387662Y3936579D01*
X3389051D01*
X3390440Y3937968D01*
X3393218Y3942134D01*
X3394606Y3943523D01*
X3395995Y3949078D01*
X3397384Y3954634D01*
Y3960189D01*
X3398773Y3968522D01*
Y3976854D01*
X3369608D01*
Y3979632D01*
Y3981021D01*
Y3985187D01*
X3370997Y3992131D01*
X3372386Y4003242D01*
X3452936D01*
X3458491Y4001853D01*
X3459880D01*
Y3999075D01*
X3458491Y3996298D01*
Y3990742D01*
X3457102Y3982410D01*
X3455714Y3971299D01*
X3452936Y3956022D01*
Y3954634D01*
X3451547Y3949078D01*
Y3942134D01*
X3450158Y3932413D01*
X3448770Y3924080D01*
Y3917136D01*
X3447381Y3911581D01*
Y3908803D01*
X3439048D01*
X3432104Y3907414D01*
X3352942D01*
X3341832Y3908803D01*
X3322389D01*
X3318222Y3910192D01*
X3315445Y3911581D01*
X3309890Y3914358D01*
X3304334Y3921302D01*
X3301557Y3925469D01*
X3300168Y3932413D01*
Y3933802D01*
Y3936579D01*
Y3942134D01*
Y3949078D01*
Y3958800D01*
X3301557Y3971299D01*
X3302946Y3987965D01*
Y3989354D01*
X3304334Y3994909D01*
X3305723Y4001853D01*
X3307112Y4010186D01*
Y4018518D01*
X3308501Y4026851D01*
X3309890Y4032406D01*
Y4035184D01*
Y4036573D01*
X3311278Y4037962D01*
X3314056Y4046294D01*
X3319611Y4054627D01*
X3327944Y4062960D01*
X3329333Y4064349D01*
X3332110Y4065738D01*
X3334888Y4067126D01*
X3340443D01*
X3343221Y4068515D01*
X3354331D01*
X3365442Y4069904D01*
X3459880D01*
Y4067126D01*
D02*
G37*
G36*
X3072405D02*
Y4065738D01*
Y4062960D01*
X3071016Y4057405D01*
X3069627Y4047683D01*
Y4042128D01*
X3068238Y4033795D01*
X3066850Y4024074D01*
X3065461Y4014352D01*
X3064072Y4001853D01*
X3062683Y3987965D01*
Y3986576D01*
Y3985187D01*
X3061294Y3975466D01*
X3059906Y3962966D01*
X3058517Y3949078D01*
X3057128Y3935190D01*
X3055739Y3921302D01*
X3054350Y3912970D01*
Y3910192D01*
Y3908803D01*
X3051573D01*
X3047406Y3907414D01*
X2996021D01*
Y3910192D01*
Y3911581D01*
X2997410Y3915747D01*
Y3921302D01*
X2998798Y3931024D01*
X3001576Y3944912D01*
X3002965Y3954634D01*
X3004354Y3964355D01*
X3005742Y3976854D01*
X3007131Y3990742D01*
X3016853Y4069904D01*
X3072405D01*
Y4067126D01*
D02*
G37*
G36*
X2975189D02*
Y4065738D01*
Y4060182D01*
Y4053238D01*
X2973800Y4043517D01*
X2919637D01*
X2914082Y4042128D01*
X2909915D01*
X2908526Y4040739D01*
X2907138Y4039350D01*
X2905749Y4037962D01*
X2904360Y4035184D01*
Y4032406D01*
X2902971Y4029629D01*
X2901582Y4024074D01*
Y4015741D01*
X2898805Y4003242D01*
X2897416Y3987965D01*
X2890472Y3942134D01*
X2893250Y3939357D01*
Y3937968D01*
X2894638Y3936579D01*
X2962690D01*
Y3933802D01*
Y3932413D01*
X2961301Y3928246D01*
X2959912Y3921302D01*
X2958523Y3907414D01*
X2882139D01*
X2872418Y3908803D01*
X2862696D01*
X2854363Y3910192D01*
X2850197Y3911581D01*
X2848808Y3912970D01*
X2844642Y3915747D01*
X2843253Y3917136D01*
X2840475Y3921302D01*
X2837698Y3928246D01*
X2834920Y3937968D01*
Y3939357D01*
Y3942134D01*
X2836309Y3946301D01*
Y3951856D01*
X2837698Y3960189D01*
X2839086Y3972688D01*
X2840475Y3986576D01*
Y3989354D01*
X2841864Y3994909D01*
Y4001853D01*
X2843253Y4011574D01*
X2844642Y4021296D01*
X2846030Y4029629D01*
X2847419Y4036573D01*
Y4040739D01*
Y4042128D01*
X2848808Y4044906D01*
X2854363Y4053238D01*
X2862696Y4062960D01*
X2869640Y4067126D01*
X2876584Y4069904D01*
X2975189D01*
Y4067126D01*
D02*
G37*
G36*
X2791867Y4000464D02*
X2793256Y3997686D01*
X2794645Y3990742D01*
X2798811Y3978243D01*
X2801589Y3964355D01*
Y3962966D01*
X2802978Y3961578D01*
X2804366Y3953245D01*
X2807144Y3943523D01*
X2809922Y3933802D01*
Y3932413D01*
X2811310Y3928246D01*
X2812699Y3924080D01*
Y3921302D01*
X2815477Y3907414D01*
X2755758D01*
X2750203Y3928246D01*
Y3929635D01*
X2748814Y3931024D01*
X2747426Y3939357D01*
X2746037Y3946301D01*
X2744648Y3947690D01*
Y3949078D01*
Y3950467D01*
X2679374D01*
X2668264Y3928246D01*
X2654376Y3907414D01*
X2627989D01*
X2629378Y3910192D01*
X2632155Y3917136D01*
X2634933Y3922691D01*
X2639099Y3928246D01*
X2643266Y3937968D01*
X2650210Y3947690D01*
X2657154Y3960189D01*
X2665486Y3975466D01*
X2675208Y3993520D01*
X2687707Y4014352D01*
X2701595Y4037962D01*
X2716872Y4065738D01*
X2718261Y4069904D01*
X2775202D01*
X2791867Y4000464D01*
D02*
G37*
G36*
X2534939Y4067126D02*
X2604379D01*
X2605768Y4065738D01*
X2609934Y4064349D01*
X2614101Y4060182D01*
X2616878Y4056016D01*
Y4054627D01*
X2618267Y4051850D01*
Y4049072D01*
Y4043517D01*
Y4037962D01*
Y4029629D01*
X2616878Y4018518D01*
Y4017130D01*
Y4014352D01*
X2615490Y4004630D01*
Y3994909D01*
X2614101Y3990742D01*
Y3987965D01*
X2612712Y3986576D01*
X2609934Y3983798D01*
X2602990Y3979632D01*
X2594658Y3976854D01*
X2590491D01*
Y3975466D01*
X2591880Y3972688D01*
X2593269Y3968522D01*
X2594658Y3961578D01*
X2597435Y3953245D01*
X2601602Y3942134D01*
Y3940746D01*
X2602990Y3936579D01*
X2605768Y3931024D01*
X2608546Y3925469D01*
X2609934Y3918525D01*
X2612712Y3912970D01*
X2614101Y3908803D01*
Y3907414D01*
X2551605D01*
X2550216Y3911581D01*
Y3912970D01*
X2548827Y3915747D01*
Y3917136D01*
X2547438Y3919914D01*
X2546050Y3924080D01*
X2544661Y3929635D01*
Y3931024D01*
X2543272Y3935190D01*
X2541883Y3940746D01*
Y3944912D01*
X2533550Y3976854D01*
X2516885D01*
X2515496Y3975466D01*
Y3974077D01*
Y3971299D01*
Y3967133D01*
X2514107Y3961578D01*
Y3953245D01*
X2512718Y3942134D01*
Y3940746D01*
X2511330Y3936579D01*
X2509941Y3931024D01*
X2508552Y3925469D01*
Y3924080D01*
Y3921302D01*
X2507163Y3911581D01*
Y3910192D01*
Y3908803D01*
Y3907414D01*
X2450222D01*
Y3910192D01*
Y3911581D01*
Y3914358D01*
X2451611Y3919914D01*
X2453000Y3929635D01*
X2454389Y3943523D01*
X2455778Y3951856D01*
X2457166Y3962966D01*
X2458555Y3974077D01*
X2459944Y3987965D01*
Y3989354D01*
Y3990742D01*
X2461333Y4000464D01*
X2462722Y4012963D01*
X2465499Y4026851D01*
X2466888Y4042128D01*
X2468277Y4054627D01*
X2469666Y4062960D01*
X2471054Y4065738D01*
Y4067126D01*
Y4069904D01*
X2534939Y4067126D01*
D02*
G37*
G36*
X2448834D02*
Y4065738D01*
Y4062960D01*
X2447445Y4056016D01*
X2446056Y4046294D01*
X2444667Y4032406D01*
X2443278Y4024074D01*
X2441890Y4012963D01*
X2440501Y4000464D01*
X2439112Y3986576D01*
X2429390Y3907414D01*
X1603054D01*
Y3910192D01*
Y3911581D01*
Y3915747D01*
X1604443Y3921302D01*
X1605832Y3931024D01*
X1607221Y3944912D01*
X1608610Y3953245D01*
X1609998Y3962966D01*
X1611387Y3975466D01*
X1612776Y3987965D01*
Y3989354D01*
Y3990742D01*
X1614165Y3994909D01*
Y4000464D01*
X1615554Y4012963D01*
X1618331Y4028240D01*
X1619720Y4042128D01*
X1621109Y4054627D01*
Y4060182D01*
X1622498Y4064349D01*
Y4065738D01*
Y4067126D01*
Y4069904D01*
X2450222D01*
X2448834Y4067126D01*
D02*
G37*
G36*
X2426613Y3889360D02*
Y3886582D01*
Y3885194D01*
X2425224Y3878250D01*
Y3876861D01*
Y3875472D01*
X2423835Y3867139D01*
X2421058Y3844918D01*
X2375227D01*
Y3842141D01*
Y3839363D01*
X2373838Y3835197D01*
Y3829642D01*
X2372450Y3821309D01*
Y3819920D01*
Y3818531D01*
X2371061Y3810198D01*
X2369672Y3801866D01*
Y3799088D01*
Y3797699D01*
X2322453D01*
Y3799088D01*
Y3801866D01*
X2323842Y3804643D01*
Y3808810D01*
Y3814365D01*
X2325230Y3821309D01*
Y3822698D01*
Y3824086D01*
X2326619Y3832419D01*
X2328008Y3840752D01*
Y3843530D01*
Y3844918D01*
X2283566D01*
X2279400Y3821309D01*
Y3819920D01*
Y3818531D01*
Y3810198D01*
X2278011Y3801866D01*
Y3799088D01*
Y3797699D01*
X2230792D01*
Y3799088D01*
Y3801866D01*
X2232181Y3804643D01*
Y3808810D01*
Y3814365D01*
X2233570Y3821309D01*
Y3822698D01*
Y3824086D01*
X2234958Y3832419D01*
X2236347Y3840752D01*
Y3843530D01*
Y3844918D01*
X2191906D01*
X2187739Y3821309D01*
Y3819920D01*
Y3818531D01*
Y3810198D01*
X2186350Y3803254D01*
Y3800477D01*
Y3799088D01*
Y3797699D01*
X2139131D01*
Y3799088D01*
Y3801866D01*
Y3804643D01*
X2140520Y3808810D01*
Y3814365D01*
X2141909Y3821309D01*
X2143298Y3831030D01*
X2144686Y3842141D01*
Y3844918D01*
X2100245D01*
Y3849085D01*
X2101634Y3851862D01*
Y3856029D01*
Y3861584D01*
X2103022Y3868528D01*
Y3869917D01*
Y3872694D01*
X2104411Y3879638D01*
X2105800Y3887971D01*
Y3889360D01*
Y3890749D01*
X2150242D01*
Y3889360D01*
Y3886582D01*
Y3883805D01*
Y3881027D01*
X2148853Y3875472D01*
Y3868528D01*
Y3867139D01*
Y3865750D01*
X2147464Y3857418D01*
X2146075Y3850474D01*
Y3847696D01*
X2144686Y3846307D01*
Y3844918D01*
X2191906D01*
X2193294Y3867139D01*
Y3868528D01*
Y3871306D01*
X2194683Y3878250D01*
X2196072Y3886582D01*
X2197461Y3887971D01*
Y3889360D01*
Y3890749D01*
X2241902D01*
Y3887971D01*
Y3885194D01*
Y3881027D01*
X2240514Y3874083D01*
X2239125Y3867139D01*
X2237736Y3857418D01*
X2236347Y3846307D01*
Y3844918D01*
X2282178D01*
X2283566Y3846307D01*
Y3847696D01*
Y3850474D01*
Y3857418D01*
X2284955Y3868528D01*
Y3869917D01*
Y3871306D01*
X2286344Y3879638D01*
X2287733Y3886582D01*
Y3889360D01*
Y3890749D01*
X2334952D01*
Y3887971D01*
X2333563Y3885194D01*
Y3881027D01*
X2332174Y3875472D01*
X2330786Y3868528D01*
Y3867139D01*
Y3865750D01*
X2329397Y3857418D01*
X2328008Y3849085D01*
Y3846307D01*
Y3844918D01*
X2373838D01*
X2375227Y3846307D01*
Y3849085D01*
X2376616Y3851862D01*
Y3856029D01*
Y3861584D01*
X2378005Y3868528D01*
X2380782Y3890749D01*
X2426613D01*
Y3889360D01*
D02*
G37*
G36*
X1873870D02*
X1875259D01*
Y3886582D01*
Y3883805D01*
X1873870Y3879638D01*
Y3874083D01*
X1872482Y3867139D01*
Y3865750D01*
Y3864362D01*
X1871093Y3856029D01*
X1869704Y3849085D01*
Y3846307D01*
Y3844918D01*
X1915534D01*
Y3842141D01*
Y3839363D01*
Y3836586D01*
X1914146Y3832419D01*
Y3826864D01*
X1912757Y3819920D01*
X1909979Y3797699D01*
X1864149D01*
Y3799088D01*
Y3800477D01*
X1865538Y3804643D01*
Y3810198D01*
X1866926Y3817142D01*
X1868315Y3832419D01*
X1869704Y3839363D01*
Y3844918D01*
X1828040D01*
X1825262Y3843530D01*
X1823874D01*
Y3840752D01*
Y3836586D01*
X1822485Y3832419D01*
Y3826864D01*
X1821096Y3819920D01*
Y3818531D01*
Y3817142D01*
X1819707Y3808810D01*
X1818318Y3801866D01*
Y3799088D01*
Y3797699D01*
X1772488D01*
Y3801866D01*
X1773877Y3804643D01*
Y3808810D01*
Y3814365D01*
X1775266Y3821309D01*
Y3822698D01*
Y3825475D01*
X1776654Y3833808D01*
X1778043Y3840752D01*
Y3843530D01*
Y3844918D01*
X1732213D01*
Y3849085D01*
X1733602Y3851862D01*
Y3856029D01*
Y3861584D01*
X1734990Y3868528D01*
Y3869917D01*
Y3872694D01*
X1736379Y3879638D01*
X1737768Y3887971D01*
Y3889360D01*
Y3890749D01*
X1784987D01*
X1783598Y3889360D01*
Y3886582D01*
Y3883805D01*
X1782210Y3879638D01*
Y3874083D01*
X1780821Y3867139D01*
X1779432Y3844918D01*
X1801653Y3846307D01*
X1823874D01*
X1826651Y3868528D01*
Y3869917D01*
Y3872694D01*
X1828040Y3879638D01*
X1829429Y3887971D01*
Y3889360D01*
Y3890749D01*
X1871093D01*
X1873870Y3889360D01*
D02*
G37*
G36*
X3398773D02*
X3444603D01*
Y3887971D01*
Y3885194D01*
Y3878250D01*
X3443214Y3869917D01*
X3441826Y3857418D01*
X3440437Y3842141D01*
X3437659Y3822698D01*
X3433493Y3799088D01*
Y3797699D01*
X2437723D01*
Y3799088D01*
Y3800477D01*
Y3803254D01*
Y3808810D01*
X2439112Y3817142D01*
X2440501Y3829642D01*
X2441890Y3844918D01*
X2444667Y3865750D01*
X2448834Y3889360D01*
Y3890749D01*
X3383496D01*
X3398773Y3889360D01*
D02*
G37*
G36*
X2058581D02*
Y3887971D01*
X2057192Y3883805D01*
Y3879638D01*
X2055803Y3872694D01*
X2054414Y3858806D01*
X2053026Y3851862D01*
Y3846307D01*
X2055803D01*
X2058581Y3844918D01*
X2100245D01*
Y3843530D01*
Y3840752D01*
X2098856Y3833808D01*
X2097467Y3828253D01*
X2096078Y3821309D01*
Y3819920D01*
Y3818531D01*
Y3811587D01*
X2094690Y3804643D01*
Y3799088D01*
Y3797699D01*
X2047470D01*
Y3801866D01*
X2048859Y3804643D01*
Y3808810D01*
Y3814365D01*
X2050248Y3821309D01*
Y3822698D01*
Y3825475D01*
X2051637Y3833808D01*
X2053026Y3840752D01*
Y3843530D01*
Y3844918D01*
X2008584D01*
Y3846307D01*
Y3847696D01*
X2009973Y3851862D01*
Y3857418D01*
X2011362Y3864362D01*
X2012750Y3879638D01*
X2014139Y3885194D01*
Y3890749D01*
X2058581D01*
Y3889360D01*
D02*
G37*
G36*
X1966920D02*
Y3887971D01*
X1965531Y3883805D01*
Y3876861D01*
X1964142Y3869917D01*
X1962754Y3861584D01*
Y3854640D01*
X1961365Y3849085D01*
Y3846307D01*
X1964142D01*
X1966920Y3844918D01*
X2008584D01*
Y3843530D01*
Y3840752D01*
X2007195Y3837974D01*
Y3833808D01*
X2005806Y3826864D01*
X2004418Y3819920D01*
X2003029Y3797699D01*
X1955810D01*
Y3800477D01*
X1957198Y3803254D01*
Y3807421D01*
Y3812976D01*
X1958587Y3819920D01*
Y3821309D01*
Y3824086D01*
X1959976Y3831030D01*
X1961365Y3839363D01*
Y3842141D01*
Y3843530D01*
X1958587Y3844918D01*
X1915534D01*
Y3846307D01*
Y3849085D01*
X1916923Y3851862D01*
Y3856029D01*
Y3861584D01*
X1918312Y3868528D01*
X1922478Y3890749D01*
X1966920D01*
Y3889360D01*
D02*
G37*
G36*
X1690549D02*
Y3887971D01*
Y3883805D01*
X1689160Y3878250D01*
Y3872694D01*
X1687771Y3857418D01*
Y3851862D01*
Y3846307D01*
X1690549D01*
X1693326Y3844918D01*
X1732213D01*
Y3842141D01*
X1730824Y3839363D01*
Y3835197D01*
X1729435Y3829642D01*
X1728046Y3821309D01*
X1726658Y3797699D01*
X1679438D01*
Y3800477D01*
X1680827Y3803254D01*
Y3807421D01*
Y3812976D01*
X1682216Y3819920D01*
Y3821309D01*
Y3824086D01*
X1683605Y3831030D01*
X1684994Y3839363D01*
Y3842141D01*
Y3843530D01*
X1682216Y3844918D01*
X1640552D01*
Y3846307D01*
Y3849085D01*
Y3851862D01*
Y3856029D01*
X1641941Y3861584D01*
Y3868528D01*
X1646107Y3890749D01*
X1693326D01*
X1690549Y3889360D01*
D02*
G37*
G36*
X1640552Y3842141D02*
X1639163Y3836586D01*
X1637774Y3828253D01*
X1636386Y3819920D01*
X1634997Y3797699D01*
X1587778D01*
Y3800477D01*
X1589166Y3803254D01*
Y3804643D01*
X1590555Y3806032D01*
Y3812976D01*
Y3814365D01*
X1591944Y3817142D01*
Y3824086D01*
X1593333Y3844918D01*
X1640552D01*
Y3842141D01*
D02*
G37*
G36*
X3172398Y3765757D02*
X3248782D01*
X3247394Y3764368D01*
X3244616Y3762979D01*
X3239061Y3761590D01*
X3232117Y3757424D01*
X3222395Y3753258D01*
X3209896Y3746314D01*
X3171010Y3728259D01*
X2378005Y3746314D01*
X2358562D01*
X2343285Y3747702D01*
X2304398D01*
X2280789Y3749091D01*
X2254402D01*
X2225237Y3750480D01*
X2194683D01*
X2161352Y3751869D01*
X2126632D01*
X2055803Y3754646D01*
X1982197Y3756035D01*
X1907202Y3757424D01*
X1836373Y3760202D01*
X1801653D01*
X1768322Y3761590D01*
X1737768D01*
X1708603Y3762979D01*
X1682216D01*
X1658606Y3764368D01*
X1619720D01*
X1604443Y3765757D01*
X1671106D01*
X1689160Y3767146D01*
X3147400D01*
X3172398Y3765757D01*
D02*
G37*
G36*
X3337666D02*
X3339054D01*
X3336277Y3764368D01*
X3333499Y3762979D01*
X3329333Y3761590D01*
X3321000Y3757424D01*
X3311278Y3753258D01*
X3297390Y3746314D01*
X3257115Y3725482D01*
X3232117D01*
X3225173Y3726870D01*
X3216840Y3728259D01*
X3214062D01*
X3215451Y3729648D01*
X3218229Y3731037D01*
X3225173Y3733814D01*
X3226562Y3735203D01*
X3233506Y3737981D01*
X3241838Y3742147D01*
X3252949Y3746314D01*
X3294613Y3767146D01*
X3336277D01*
X3337666Y3765757D01*
D02*
G37*
G36*
X3427938D02*
X3429326D01*
X3426549Y3764368D01*
X3423771Y3762979D01*
X3418216Y3760202D01*
X3411272Y3757424D01*
X3400162Y3751869D01*
X3386274Y3744925D01*
X3340443Y3724093D01*
X3321000D01*
X3314056Y3725482D01*
X3300168D01*
X3302946Y3726870D01*
X3305723Y3728259D01*
X3309890Y3731037D01*
X3316834Y3733814D01*
X3326555Y3739370D01*
X3340443Y3746314D01*
X3384885Y3767146D01*
X3426549D01*
X3427938Y3765757D01*
D02*
G37*
%LPC*%
G36*
X2723816Y4032406D02*
X2722427Y4031018D01*
X2721038Y4026851D01*
X2716872Y4018518D01*
X2715483Y4015741D01*
X2712706Y4010186D01*
X2708539Y4001853D01*
X2702984Y3990742D01*
X2701595Y3987965D01*
X2700206Y3983798D01*
X2697429Y3979632D01*
X2696040Y3976854D01*
X2716872D01*
X2737704Y3979632D01*
X2736315Y3982410D01*
Y3983798D01*
X2734926Y3985187D01*
X2733538Y3993520D01*
Y3994909D01*
Y3997686D01*
X2732149Y4006019D01*
Y4007408D01*
X2730760Y4010186D01*
X2727982Y4019907D01*
X2725205Y4028240D01*
X2723816Y4031018D01*
Y4032406D01*
D02*
G37*
G36*
X2561326Y4040739D02*
X2523829D01*
X2522440Y4024074D01*
Y4022685D01*
Y4021296D01*
X2521051Y4014352D01*
X2519662Y4008797D01*
Y4006019D01*
Y4004630D01*
X2522440D01*
X2527995Y4003242D01*
X2547438D01*
X2552994Y4004630D01*
X2555771D01*
X2557160Y4006019D01*
X2558549Y4008797D01*
X2561326Y4014352D01*
Y4018518D01*
X2562715Y4024074D01*
Y4025462D01*
Y4026851D01*
X2564104Y4032406D01*
X2562715Y4037962D01*
X2561326Y4040739D01*
D02*
G37*
G36*
X2421058Y4037962D02*
X2401614D01*
X2386338Y4014352D01*
Y4012963D01*
X2383560Y4011574D01*
X2379394Y4004630D01*
X2375227Y3997686D01*
X2372450Y3996298D01*
Y3994909D01*
X2371061Y3997686D01*
X2368283Y4003242D01*
X2365506Y4007408D01*
X2362728Y4014352D01*
X2351618Y4037962D01*
X2309954D01*
Y4035184D01*
X2311342Y4033795D01*
Y4031018D01*
X2314120Y4026851D01*
X2316898Y4021296D01*
X2319675Y4012963D01*
X2325230Y4003242D01*
X2340507Y3974077D01*
X2336341Y3953245D01*
Y3951856D01*
Y3950467D01*
Y3943523D01*
X2334952Y3936579D01*
Y3935190D01*
Y3933802D01*
X2369672D01*
X2372450Y3953245D01*
X2375227Y3971299D01*
X2396059Y4001853D01*
X2397448Y4003242D01*
X2398837Y4006019D01*
X2405781Y4015741D01*
X2407170Y4017130D01*
X2408558Y4019907D01*
X2411336Y4024074D01*
X2414114Y4028240D01*
Y4029629D01*
X2415502Y4031018D01*
X2416891Y4032406D01*
X2418280Y4033795D01*
X2421058Y4037962D01*
D02*
G37*
G36*
X2397448Y3953245D02*
X2390504D01*
X2389115Y3951856D01*
X2387726Y3950467D01*
X2384949Y3946301D01*
X2383560Y3942134D01*
Y3940746D01*
X2384949Y3939357D01*
X2386338Y3936579D01*
X2389115Y3933802D01*
X2393282D01*
X2397448Y3936579D01*
X2401614Y3942134D01*
Y3943523D01*
X2403003Y3946301D01*
X2401614Y3950467D01*
X2397448Y3953245D01*
D02*
G37*
G36*
X2273845Y4037962D02*
X2239125D01*
X2237736Y4036573D01*
X2236347D01*
Y4035184D01*
Y4033795D01*
Y4029629D01*
X2234958Y4022685D01*
X2233570Y4014352D01*
X2232181Y4000464D01*
X2230792Y3983798D01*
Y3981021D01*
X2229403Y3975466D01*
Y3968522D01*
X2228014Y3958800D01*
X2226626Y3949078D01*
Y3942134D01*
X2225237Y3936579D01*
Y3933802D01*
X2304398D01*
Y3939357D01*
Y3940746D01*
X2305787Y3943523D01*
Y3947690D01*
Y3949078D01*
Y3950467D01*
X2262734D01*
Y3951856D01*
Y3954634D01*
Y3960189D01*
X2264123Y3968522D01*
X2265512Y3979632D01*
X2266901Y3994909D01*
X2269678Y4012963D01*
X2273845Y4035184D01*
Y4037962D01*
D02*
G37*
G36*
X2203016D02*
X2147464D01*
X2140520Y4036573D01*
X2133576D01*
X2129410Y4035184D01*
X2126632Y4033795D01*
X2125243Y4032406D01*
X2121077Y4031018D01*
X2118299Y4025462D01*
X2115522Y4018518D01*
Y4017130D01*
X2114133Y4014352D01*
X2112744Y4007408D01*
X2111355Y4000464D01*
X2109966Y3990742D01*
X2108578Y3979632D01*
X2107189Y3954634D01*
Y3953245D01*
Y3949078D01*
Y3947690D01*
X2109966Y3943523D01*
X2112744Y3939357D01*
X2116910Y3936579D01*
X2118299D01*
X2121077Y3935190D01*
X2128021D01*
X2134965Y3933802D01*
X2172462D01*
X2184962Y3935190D01*
X2190517D01*
X2193294Y3936579D01*
X2194683Y3937968D01*
X2198850Y3940746D01*
X2204405Y3947690D01*
X2208571Y3957411D01*
Y3958800D01*
Y3961578D01*
X2209960Y3965744D01*
Y3969910D01*
X2211349Y3976854D01*
X2212738Y3985187D01*
Y3986576D01*
Y3990742D01*
X2214126Y3996298D01*
Y4003242D01*
Y4018518D01*
Y4024074D01*
X2212738Y4028240D01*
Y4029629D01*
X2211349Y4031018D01*
X2208571Y4033795D01*
X2204405Y4035184D01*
X2203016Y4037962D01*
D02*
G37*
G36*
X2066914D02*
X2009973D01*
X2004418Y4036573D01*
X2003029D01*
Y4035184D01*
Y4033795D01*
X2001640Y4029629D01*
Y4022685D01*
X2000251Y4014352D01*
X1998862Y4000464D01*
X1996085Y3983798D01*
Y3981021D01*
X1994696Y3975466D01*
X1993307Y3968522D01*
Y3958800D01*
X1991918Y3949078D01*
X1990530Y3942134D01*
X1989141Y3936579D01*
Y3933802D01*
X2025250D01*
Y3936579D01*
Y3939357D01*
Y3944912D01*
X2026638Y3953245D01*
Y3954634D01*
Y3956022D01*
X2028027Y3961578D01*
Y3968522D01*
Y3969910D01*
Y3971299D01*
X2078024D01*
X2079413Y3972688D01*
X2083579Y3975466D01*
X2089134Y3979632D01*
X2091912Y3986576D01*
X2093301Y3990742D01*
X2094690Y3993520D01*
Y3997686D01*
X2096078Y4004630D01*
Y4012963D01*
Y4014352D01*
Y4018518D01*
Y4024074D01*
Y4028240D01*
X2094690Y4029629D01*
X2093301Y4031018D01*
X2089134Y4033795D01*
X2084968Y4035184D01*
X2083579D01*
X2082190Y4036573D01*
X2073858D01*
X2066914Y4037962D01*
D02*
G37*
G36*
X1901646D02*
X1865538D01*
X1858594Y3986576D01*
Y3983798D01*
X1857205Y3978243D01*
Y3971299D01*
X1855816Y3961578D01*
X1854427Y3951856D01*
Y3943523D01*
X1853038Y3936579D01*
Y3933802D01*
X1930811D01*
X1933589Y3939357D01*
Y3940746D01*
Y3944912D01*
Y3946301D01*
Y3947690D01*
Y3949078D01*
Y3950467D01*
X1890536D01*
Y3951856D01*
Y3954634D01*
Y3960189D01*
X1891925Y3968522D01*
X1893314Y3981021D01*
X1894702Y3994909D01*
X1897480Y4012963D01*
X1901646Y4035184D01*
Y4037962D01*
D02*
G37*
G36*
X1815541D02*
X1779432D01*
Y4035184D01*
Y4033795D01*
X1778043Y4032406D01*
X1775266Y4028240D01*
X1771099Y4022685D01*
X1765544Y4012963D01*
X1758600Y4001853D01*
X1748878Y3985187D01*
X1747490Y3982410D01*
X1744712Y3976854D01*
X1740546Y3968522D01*
X1734990Y3960189D01*
X1729435Y3950467D01*
X1725269Y3942134D01*
X1722491Y3936579D01*
X1721102Y3933802D01*
X1737768D01*
X1746101Y3947690D01*
X1753045Y3962966D01*
X1796098D01*
X1800264Y3947690D01*
X1803042Y3933802D01*
X1843317D01*
Y3935190D01*
Y3936579D01*
X1841928Y3940746D01*
X1840539Y3946301D01*
X1837762Y3956022D01*
X1833595Y3968522D01*
X1829429Y3985187D01*
Y3987965D01*
X1826651Y3993520D01*
X1825262Y4001853D01*
X1822485Y4011574D01*
X1819707Y4021296D01*
X1818318Y4029629D01*
X1815541Y4035184D01*
Y4037962D01*
D02*
G37*
G36*
X1716936D02*
X1671106D01*
X1659995Y4036573D01*
X1655829D01*
X1653051Y4035184D01*
X1651662D01*
X1648885Y4033795D01*
X1646107Y4029629D01*
X1641941Y4024074D01*
Y4022685D01*
X1640552Y4021296D01*
Y4017130D01*
X1639163Y4012963D01*
X1637774Y4006019D01*
X1636386Y3997686D01*
X1634997Y3986576D01*
Y3985187D01*
X1633608Y3981021D01*
Y3975466D01*
X1632219Y3968522D01*
Y3953245D01*
Y3947690D01*
X1633608Y3944912D01*
Y3943523D01*
X1634997Y3940746D01*
X1639163Y3937968D01*
X1644718Y3933802D01*
X1709992D01*
Y3935190D01*
Y3936579D01*
Y3940746D01*
Y3942134D01*
X1711381Y3944912D01*
Y3949078D01*
Y3950467D01*
X1671106D01*
X1668328Y3953245D01*
Y3954634D01*
X1666939D01*
Y3956022D01*
Y3960189D01*
X1668328Y3964355D01*
Y3969910D01*
Y3976854D01*
X1669717Y3986576D01*
Y3987965D01*
X1671106Y3990742D01*
Y3996298D01*
X1672494Y4001853D01*
Y4007408D01*
X1673883Y4012963D01*
Y4015741D01*
Y4017130D01*
Y4018518D01*
X1676661Y4019907D01*
X1716936D01*
X1718325Y4021296D01*
X1719714D01*
Y4022685D01*
Y4025462D01*
Y4028240D01*
Y4029629D01*
X1721102Y4032406D01*
Y4035184D01*
Y4036573D01*
X1719714D01*
X1716936Y4037962D01*
D02*
G37*
%LPD*%
G36*
X2397448Y3950467D02*
X2398837Y3949078D01*
X2400226Y3947690D01*
Y3944912D01*
Y3943523D01*
X2397448Y3939357D01*
X2396059Y3937968D01*
X2389115Y3936579D01*
X2387726Y3937968D01*
X2386338Y3940746D01*
X2384949Y3943523D01*
Y3944912D01*
X2386338Y3946301D01*
X2387726Y3949078D01*
X2391893Y3950467D01*
X2393282Y3951856D01*
X2396059D01*
X2397448Y3950467D01*
D02*
G37*
%LPC*%
G36*
X2396059Y3949078D02*
X2391893D01*
X2390504Y3946301D01*
X2389115Y3943523D01*
Y3942134D01*
Y3940746D01*
Y3939357D01*
X2390504D01*
Y3940746D01*
Y3943523D01*
Y3944912D01*
X2391893D01*
X2393282Y3942134D01*
X2394670Y3940746D01*
Y3939357D01*
X2396059D01*
Y3942134D01*
Y3943523D01*
X2397448Y3944912D01*
Y3946301D01*
X2396059Y3947690D01*
Y3949078D01*
D02*
G37*
%LPD*%
G36*
X2394670Y3946301D02*
X2393282Y3944912D01*
X2391893D01*
Y3947690D01*
X2394670D01*
Y3946301D01*
D02*
G37*
G36*
X2179406Y4018518D02*
X2180795Y4015741D01*
Y4014352D01*
Y4011574D01*
X2179406Y4007408D01*
Y4001853D01*
X2178018Y3993520D01*
X2176629Y3983798D01*
Y3982410D01*
Y3979632D01*
X2175240Y3974077D01*
X2173851Y3968522D01*
X2172462Y3958800D01*
X2171074Y3954634D01*
Y3953245D01*
X2169685Y3951856D01*
X2168296D01*
X2164130Y3950467D01*
X2144686D01*
Y3951856D01*
X2143298Y3953245D01*
Y3956022D01*
Y3960189D01*
Y3965744D01*
Y3974077D01*
X2144686Y3985187D01*
Y3986576D01*
X2146075Y3989354D01*
Y3994909D01*
X2147464Y4000464D01*
X2148853Y4011574D01*
Y4014352D01*
Y4017130D01*
X2150242Y4018518D01*
X2154408Y4019907D01*
X2178018D01*
X2179406Y4018518D01*
D02*
G37*
G36*
X2059970D02*
Y4017130D01*
Y4015741D01*
Y4011574D01*
X2058581Y4004630D01*
Y4003242D01*
Y3997686D01*
Y3993520D01*
X2057192Y3990742D01*
Y3987965D01*
X2054414Y3986576D01*
X2032194D01*
Y3987965D01*
Y3989354D01*
Y3990742D01*
Y3996298D01*
X2033582Y4004630D01*
Y4007408D01*
X2034971Y4011574D01*
Y4017130D01*
X2036360Y4019907D01*
X2059970D01*
Y4018518D01*
D02*
G37*
G36*
X1783598Y4011574D02*
X1784987Y4006019D01*
X1786376Y4001853D01*
X1787765Y3996298D01*
X1789154Y3993520D01*
X1790542Y3987965D01*
X1791931Y3981021D01*
Y3979632D01*
Y3978243D01*
X1786376D01*
X1778043Y3979632D01*
X1764155D01*
X1773877Y3996298D01*
Y3997686D01*
X1775266Y3999075D01*
X1779432Y4004630D01*
X1782210Y4010186D01*
X1783598Y4012963D01*
Y4011574D01*
D02*
G37*
%LPC*%
G36*
X3247394Y3874083D02*
X3240450D01*
X3237672Y3872694D01*
X3234894Y3869917D01*
X3233506Y3868528D01*
X3230728Y3864362D01*
X3229339Y3858806D01*
Y3854640D01*
X3230728Y3850474D01*
X3232117Y3849085D01*
X3234894Y3846307D01*
X3237672Y3842141D01*
X3239061Y3840752D01*
X3240450Y3839363D01*
X3241838Y3835197D01*
X3243227Y3832419D01*
Y3831030D01*
Y3829642D01*
X3240450Y3826864D01*
X3237672Y3825475D01*
X3233506D01*
Y3826864D01*
X3232117Y3831030D01*
Y3832419D01*
X3225173D01*
Y3831030D01*
Y3828253D01*
X3226562Y3826864D01*
Y3824086D01*
X3227950Y3821309D01*
X3232117Y3818531D01*
X3234894Y3817142D01*
X3239061D01*
X3243227Y3818531D01*
X3247394Y3821309D01*
X3248782Y3822698D01*
X3250171Y3825475D01*
X3251560Y3829642D01*
Y3835197D01*
Y3836586D01*
X3250171Y3839363D01*
X3248782Y3843530D01*
X3244616Y3847696D01*
X3243227Y3849085D01*
X3241838Y3851862D01*
X3239061Y3856029D01*
X3237672Y3858806D01*
Y3860195D01*
Y3862973D01*
X3239061Y3865750D01*
X3241838Y3867139D01*
X3244616D01*
X3246005Y3865750D01*
X3247394Y3861584D01*
X3254338D01*
Y3862973D01*
Y3864362D01*
Y3865750D01*
X3252949Y3869917D01*
X3251560Y3871306D01*
X3248782Y3872694D01*
X3247394Y3874083D01*
D02*
G37*
G36*
X2943246D02*
X2937691D01*
X2933525Y3872694D01*
X2930747Y3869917D01*
X2929358Y3868528D01*
X2926581Y3864362D01*
X2925192Y3858806D01*
X2926581Y3854640D01*
X2927970Y3850474D01*
X2929358Y3849085D01*
X2934914Y3842141D01*
X2936302Y3840752D01*
X2937691Y3839363D01*
X2939080Y3835197D01*
X2940469Y3832419D01*
Y3831030D01*
Y3829642D01*
X2939080Y3826864D01*
X2936302Y3825475D01*
X2930747D01*
Y3826864D01*
X2927970Y3831030D01*
Y3832419D01*
X2921026D01*
Y3831030D01*
Y3828253D01*
X2922414Y3826864D01*
Y3824086D01*
X2923803Y3821309D01*
X2929358Y3818531D01*
X2932136Y3817142D01*
X2934914D01*
X2939080Y3818531D01*
X2943246Y3821309D01*
X2944635Y3822698D01*
X2946024Y3825475D01*
X2947413Y3829642D01*
X2948802Y3835197D01*
Y3836586D01*
X2947413Y3839363D01*
X2944635Y3843530D01*
X2940469Y3847696D01*
X2939080Y3849085D01*
X2937691Y3851862D01*
X2936302Y3856029D01*
X2934914Y3858806D01*
Y3860195D01*
Y3862973D01*
X2936302Y3865750D01*
X2937691Y3867139D01*
X2940469D01*
X2941858Y3865750D01*
X2943246Y3861584D01*
X2951579D01*
X2952968Y3862973D01*
Y3864362D01*
Y3865750D01*
X2951579Y3867139D01*
X2948802Y3869917D01*
X2947413Y3871306D01*
X2944635Y3872694D01*
X2943246Y3874083D01*
D02*
G37*
G36*
X2505774D02*
X2498830D01*
X2496053Y3872694D01*
X2494664Y3871306D01*
X2491886Y3869917D01*
X2487720Y3864362D01*
X2486331Y3857418D01*
Y3856029D01*
X2487720Y3853251D01*
X2490498Y3849085D01*
X2496053Y3842141D01*
X2497442Y3839363D01*
X2501608Y3836586D01*
Y3833808D01*
Y3829642D01*
X2500219Y3828253D01*
X2498830Y3826864D01*
X2496053Y3825475D01*
X2494664D01*
X2493275Y3826864D01*
X2491886Y3828253D01*
X2490498Y3831030D01*
Y3832419D01*
X2482165D01*
Y3829642D01*
Y3828253D01*
X2483554Y3825475D01*
X2486331Y3821309D01*
X2490498Y3818531D01*
X2497442D01*
X2501608Y3819920D01*
X2505774Y3822698D01*
X2508552Y3829642D01*
Y3831030D01*
Y3835197D01*
X2505774Y3840752D01*
X2501608Y3847696D01*
X2500219Y3849085D01*
X2498830Y3850474D01*
X2497442Y3854640D01*
X2496053Y3857418D01*
Y3858806D01*
Y3862973D01*
X2497442Y3865750D01*
X2501608Y3867139D01*
X2502997D01*
X2504386Y3865750D01*
Y3862973D01*
Y3861584D01*
X2512718D01*
Y3862973D01*
Y3864362D01*
Y3867139D01*
X2511330Y3869917D01*
X2508552Y3872694D01*
X2505774Y3874083D01*
D02*
G37*
G36*
X2657154D02*
X2648821D01*
Y3872694D01*
Y3869917D01*
X2647432Y3865750D01*
Y3861584D01*
X2646043Y3849085D01*
Y3836586D01*
X2644654Y3839363D01*
X2643266Y3844918D01*
X2641877Y3849085D01*
Y3856029D01*
X2637710Y3874083D01*
X2629378D01*
X2627989Y3872694D01*
Y3869917D01*
Y3867139D01*
X2626600Y3861584D01*
Y3856029D01*
X2625211Y3847696D01*
Y3846307D01*
Y3843530D01*
X2623822Y3835197D01*
X2622434Y3825475D01*
Y3822698D01*
Y3819920D01*
Y3818531D01*
X2630766D01*
Y3819920D01*
Y3822698D01*
Y3828253D01*
X2632155Y3836586D01*
Y3837974D01*
Y3839363D01*
X2633544Y3844918D01*
X2634933Y3850474D01*
Y3851862D01*
X2636322Y3846307D01*
Y3842141D01*
X2637710Y3836586D01*
X2641877Y3818531D01*
X2651598D01*
Y3822698D01*
X2652987Y3825475D01*
Y3831030D01*
Y3837974D01*
X2654376Y3846307D01*
Y3847696D01*
Y3850474D01*
X2655765Y3858806D01*
X2657154Y3867139D01*
Y3871306D01*
Y3872694D01*
Y3874083D01*
D02*
G37*
G36*
X2830754D02*
X2825198D01*
X2823810Y3872694D01*
Y3869917D01*
Y3867139D01*
X2822421Y3862973D01*
Y3857418D01*
X2821032Y3850474D01*
Y3849085D01*
Y3847696D01*
X2819643Y3840752D01*
X2818254Y3832419D01*
Y3831030D01*
Y3829642D01*
X2816866Y3828253D01*
X2815477Y3826864D01*
X2812699Y3825475D01*
X2811310D01*
X2808533Y3826864D01*
Y3828253D01*
Y3829642D01*
Y3832419D01*
Y3835197D01*
Y3839363D01*
X2809922Y3844918D01*
Y3851862D01*
Y3853251D01*
Y3854640D01*
X2811310Y3862973D01*
X2812699Y3869917D01*
Y3871306D01*
Y3872694D01*
Y3874083D01*
X2804366D01*
Y3872694D01*
Y3871306D01*
X2802978Y3867139D01*
Y3862973D01*
X2801589Y3847696D01*
Y3829642D01*
Y3828253D01*
X2802978Y3824086D01*
X2804366Y3821309D01*
X2808533Y3818531D01*
X2809922D01*
X2811310Y3817142D01*
X2814088Y3818531D01*
X2818254Y3819920D01*
X2819643D01*
X2821032Y3821309D01*
X2823810Y3824086D01*
X2825198Y3826864D01*
Y3828253D01*
Y3831030D01*
X2826587Y3837974D01*
X2827976Y3843530D01*
X2829365Y3850474D01*
Y3851862D01*
Y3854640D01*
X2830754Y3861584D01*
Y3869917D01*
Y3871306D01*
Y3872694D01*
Y3874083D01*
D02*
G37*
G36*
X3383496Y3872694D02*
X3375163D01*
X3372386Y3869917D01*
X3369608Y3867139D01*
X3366830Y3862973D01*
Y3860195D01*
Y3854640D01*
X3365442Y3849085D01*
Y3843530D01*
Y3840752D01*
Y3835197D01*
X3364053Y3828253D01*
Y3826864D01*
Y3825475D01*
Y3824086D01*
X3366830Y3821309D01*
X3369608Y3818531D01*
X3379330D01*
X3383496Y3821309D01*
X3384885Y3822698D01*
X3386274Y3825475D01*
X3387662Y3832419D01*
X3390440Y3842141D01*
Y3843530D01*
Y3844918D01*
X3391829Y3853251D01*
Y3861584D01*
Y3864362D01*
Y3867139D01*
Y3868528D01*
X3389051Y3869917D01*
X3386274Y3871306D01*
X3383496Y3872694D01*
D02*
G37*
G36*
X3316834Y3874083D02*
X3300168D01*
X3297390Y3847696D01*
Y3846307D01*
Y3843530D01*
X3296002Y3833808D01*
X3294613Y3825475D01*
Y3821309D01*
Y3819920D01*
Y3818531D01*
X3301557D01*
Y3819920D01*
Y3822698D01*
X3302946Y3829642D01*
Y3837974D01*
X3311278D01*
X3315445Y3839363D01*
X3318222Y3842141D01*
X3319611Y3843530D01*
X3321000Y3846307D01*
X3322389Y3850474D01*
X3323778Y3856029D01*
Y3857418D01*
Y3858806D01*
Y3864362D01*
Y3865750D01*
X3322389Y3867139D01*
X3321000Y3871306D01*
X3316834Y3874083D01*
D02*
G37*
G36*
X3187675D02*
X3177954D01*
Y3869917D01*
Y3867139D01*
Y3861584D01*
X3176565Y3854640D01*
Y3846307D01*
Y3844918D01*
Y3842141D01*
X3175176Y3832419D01*
X3173787Y3824086D01*
X3172398Y3819920D01*
Y3818531D01*
X3179342D01*
Y3819920D01*
Y3821309D01*
X3180731Y3824086D01*
Y3825475D01*
X3182120Y3828253D01*
Y3832419D01*
Y3837974D01*
Y3839363D01*
X3183509Y3843530D01*
Y3853251D01*
Y3854640D01*
X3184898Y3858806D01*
Y3867139D01*
Y3868528D01*
Y3869917D01*
Y3871306D01*
Y3872694D01*
X3187675Y3874083D01*
D02*
G37*
G36*
X3123790D02*
X3108514D01*
X3107125Y3872694D01*
Y3869917D01*
X3105736Y3865750D01*
Y3861584D01*
X3104347Y3854640D01*
X3102958Y3846307D01*
Y3844918D01*
Y3842141D01*
Y3832419D01*
X3101570Y3824086D01*
Y3819920D01*
Y3818531D01*
X3118235D01*
X3119624Y3819920D01*
X3122402D01*
X3123790Y3821309D01*
X3126568Y3824086D01*
Y3825475D01*
X3127957Y3828253D01*
X3130734Y3836586D01*
Y3837974D01*
Y3839363D01*
X3129346Y3842141D01*
Y3843530D01*
X3127957Y3844918D01*
X3126568Y3846307D01*
X3125179D01*
Y3847696D01*
X3126568D01*
X3129346Y3850474D01*
X3130734Y3851862D01*
X3132123Y3856029D01*
Y3861584D01*
X3129346Y3869917D01*
X3127957Y3871306D01*
X3125179Y3872694D01*
X3123790Y3874083D01*
D02*
G37*
G36*
X2883528D02*
X2876584D01*
Y3869917D01*
X2875195Y3867139D01*
Y3861584D01*
X2873806Y3854640D01*
X2872418Y3846307D01*
Y3844918D01*
Y3842141D01*
X2871029Y3832419D01*
X2869640Y3824086D01*
X2868251Y3819920D01*
Y3818531D01*
X2876584D01*
Y3819920D01*
Y3821309D01*
Y3824086D01*
Y3825475D01*
X2877973Y3828253D01*
Y3832419D01*
Y3837974D01*
Y3839363D01*
X2879362Y3843530D01*
X2880750Y3853251D01*
Y3854640D01*
X2882139Y3858806D01*
Y3867139D01*
Y3868528D01*
X2883528Y3869917D01*
Y3871306D01*
Y3872694D01*
Y3874083D01*
D02*
G37*
G36*
X2748814D02*
X2740482D01*
Y3872694D01*
Y3869917D01*
X2739093Y3861584D01*
Y3854640D01*
X2737704Y3847696D01*
Y3846307D01*
Y3843530D01*
X2736315Y3835197D01*
X2734926Y3825475D01*
Y3822698D01*
Y3819920D01*
X2733538Y3818531D01*
X2755758D01*
Y3821309D01*
X2757147D01*
X2758536Y3822698D01*
Y3824086D01*
Y3825475D01*
Y3826864D01*
X2743259D01*
Y3828253D01*
Y3831030D01*
X2744648Y3837974D01*
X2746037Y3843530D01*
X2747426Y3850474D01*
Y3851862D01*
Y3853251D01*
X2748814Y3860195D01*
Y3867139D01*
Y3872694D01*
Y3874083D01*
D02*
G37*
G36*
X2576603D02*
X2565493D01*
Y3871306D01*
X2564104Y3868528D01*
Y3864362D01*
X2561326Y3856029D01*
X2558549Y3847696D01*
X2555771Y3835197D01*
X2550216Y3819920D01*
X2552994Y3818531D01*
X2557160D01*
Y3819920D01*
Y3821309D01*
X2558549Y3824086D01*
X2559938Y3826864D01*
X2561326Y3831030D01*
X2571048D01*
Y3829642D01*
Y3826864D01*
Y3821309D01*
Y3818531D01*
X2577992D01*
Y3819920D01*
Y3822698D01*
Y3825475D01*
Y3829642D01*
X2576603Y3835197D01*
Y3843530D01*
Y3844918D01*
Y3847696D01*
Y3856029D01*
Y3865750D01*
Y3869917D01*
Y3872694D01*
Y3874083D01*
D02*
G37*
G36*
X3054350D02*
X3048795D01*
X3044629Y3872694D01*
X3040462Y3869917D01*
X3037685Y3864362D01*
X3036296Y3861584D01*
X3034907Y3856029D01*
X3033518Y3851862D01*
Y3846307D01*
Y3843530D01*
Y3837974D01*
X3032130Y3831030D01*
Y3826864D01*
Y3825475D01*
X3033518Y3824086D01*
X3036296Y3821309D01*
X3039074Y3818531D01*
X3041851D01*
X3047406Y3817142D01*
X3052962Y3819920D01*
X3055739Y3822698D01*
X3058517Y3826864D01*
Y3828253D01*
Y3831030D01*
Y3836586D01*
X3059906Y3846307D01*
Y3847696D01*
Y3849085D01*
X3061294Y3854640D01*
Y3861584D01*
Y3862973D01*
Y3864362D01*
Y3865750D01*
X3059906Y3867139D01*
X3058517Y3871306D01*
X3054350Y3874083D01*
D02*
G37*
%LPD*%
G36*
X3384885Y3864362D02*
Y3861584D01*
Y3858806D01*
X3383496Y3853251D01*
X3382107Y3844918D01*
Y3843530D01*
Y3842141D01*
X3380718Y3835197D01*
X3379330Y3829642D01*
Y3826864D01*
X3377941Y3825475D01*
X3376552D01*
X3370997Y3826864D01*
Y3829642D01*
Y3831030D01*
Y3833808D01*
Y3837974D01*
Y3843530D01*
X3372386Y3854640D01*
X3373774Y3860195D01*
X3375163Y3862973D01*
X3376552Y3864362D01*
Y3865750D01*
X3377941Y3867139D01*
X3383496D01*
X3384885Y3864362D01*
D02*
G37*
G36*
X3316834Y3862973D02*
Y3860195D01*
Y3856029D01*
Y3854640D01*
X3315445Y3851862D01*
X3314056Y3849085D01*
X3309890Y3847696D01*
X3305723D01*
Y3849085D01*
Y3853251D01*
X3307112Y3864362D01*
X3315445D01*
X3316834Y3862973D01*
D02*
G37*
G36*
X3121013D02*
X3122402D01*
X3123790Y3861584D01*
Y3858806D01*
Y3857418D01*
Y3856029D01*
X3122402Y3853251D01*
X3119624Y3851862D01*
X3118235D01*
X3115458Y3850474D01*
X3112680D01*
Y3853251D01*
Y3857418D01*
X3114069Y3864362D01*
X3119624D01*
X3121013Y3862973D01*
D02*
G37*
G36*
X3119624Y3843530D02*
X3122402Y3840752D01*
Y3839363D01*
Y3836586D01*
Y3832419D01*
X3119624Y3829642D01*
X3116846Y3828253D01*
X3112680Y3826864D01*
X3109902D01*
Y3828253D01*
Y3829642D01*
Y3835197D01*
Y3836586D01*
X3111291Y3837974D01*
X3112680Y3840752D01*
Y3842141D01*
Y3843530D01*
X3114069Y3844918D01*
X3116846D01*
X3119624Y3843530D01*
D02*
G37*
G36*
X2571048Y3858806D02*
Y3854640D01*
Y3847696D01*
Y3837974D01*
X2562715D01*
Y3839363D01*
X2564104Y3842141D01*
X2565493Y3849085D01*
Y3850474D01*
X2566882Y3854640D01*
X2568270Y3858806D01*
X2569659Y3860195D01*
X2571048Y3858806D01*
D02*
G37*
G36*
X3052962Y3864362D02*
Y3862973D01*
Y3861584D01*
Y3856029D01*
Y3851862D01*
X3051573Y3846307D01*
Y3843530D01*
X3050184Y3837974D01*
Y3832419D01*
X3048795Y3831030D01*
Y3829642D01*
Y3828253D01*
X3047406Y3826864D01*
X3044629Y3825475D01*
X3041851D01*
X3040462Y3826864D01*
Y3828253D01*
Y3829642D01*
Y3835197D01*
Y3844918D01*
Y3846307D01*
Y3847696D01*
X3041851Y3853251D01*
X3043240Y3858806D01*
Y3861584D01*
X3044629Y3862973D01*
X3047406Y3865750D01*
X3051573D01*
X3052962Y3864362D01*
D02*
G37*
G36*
X6511976Y3716976D02*
X6516716Y3713809D01*
X6517785Y3707230D01*
X6516541Y3705715D01*
X5578877D01*
X5576963Y3710334D01*
X5586335Y3719706D01*
X6510152D01*
X6511976Y3716976D01*
D02*
G37*
G36*
X6516976Y3666976D02*
X6523159Y3662845D01*
Y3657155D01*
X6516976Y3653024D01*
X6515152Y3650294D01*
X5565000D01*
X5559147Y3649130D01*
X5555176Y3646477D01*
X5551989Y3650360D01*
X5576756Y3675127D01*
X6511529D01*
X6516976Y3666976D01*
D02*
G37*
G36*
Y3616976D02*
X6522184Y3613496D01*
X6523208Y3607146D01*
X6521625Y3605294D01*
X5610000D01*
X5604147Y3604130D01*
X5599186Y3600814D01*
X5588103Y3589732D01*
X5586730Y3588814D01*
X5161186Y3163270D01*
X5160268Y3161897D01*
X5149186Y3150814D01*
X5145870Y3145853D01*
X5144706Y3140000D01*
Y2499848D01*
X5141976Y2498024D01*
X5140294Y2495507D01*
X5135294Y2497023D01*
Y3183665D01*
X5571335Y3619706D01*
X6515152D01*
X6516976Y3616976D01*
D02*
G37*
G36*
X1935000Y3320510D02*
X1938220Y3321151D01*
X2906077Y2353294D01*
X2906063Y2352829D01*
X2904507Y2348294D01*
X2838335D01*
X1919294Y3267335D01*
Y3283884D01*
X1922024Y3285708D01*
X1927550Y3293977D01*
X1929490Y3303732D01*
X1927550Y3313486D01*
X1924924Y3317416D01*
X1927930Y3321916D01*
X1935000Y3320510D01*
D02*
G37*
G36*
X1956450Y2295245D02*
X1961976Y2286976D01*
X1970245Y2281450D01*
X1980000Y2279510D01*
X1983220Y2280151D01*
X2054186Y2209186D01*
X2059147Y2205870D01*
X2065000Y2204706D01*
X2378665D01*
X2439186Y2144186D01*
X2444147Y2140870D01*
X2450000Y2139706D01*
X3799456D01*
X3801813Y2135296D01*
X3801450Y2134755D01*
X3799510Y2125000D01*
X3801450Y2115245D01*
X3806976Y2106976D01*
X3810423Y2104673D01*
X3810870Y2102424D01*
X3812855Y2099453D01*
X3809848Y2094954D01*
X3808137Y2095294D01*
X2306335D01*
X2285294Y2116335D01*
Y2125152D01*
X2288024Y2126976D01*
X2293550Y2135245D01*
X2295490Y2145000D01*
X2293550Y2154755D01*
X2288024Y2163024D01*
X2279755Y2168550D01*
X2270000Y2170490D01*
X2260245Y2168550D01*
X2251976Y2163024D01*
X2246450Y2154755D01*
X2244510Y2145000D01*
X2246450Y2135245D01*
X2251976Y2126976D01*
X2254706Y2125152D01*
Y2110000D01*
X2255870Y2104147D01*
X2259186Y2099186D01*
X2289186Y2069186D01*
X2294147Y2065870D01*
X2297045Y2065294D01*
X2296552Y2060294D01*
X1991335D01*
X1950294Y2101335D01*
Y2300568D01*
X1955294Y2301060D01*
X1956450Y2295245D01*
D02*
G37*
G36*
X2821186Y2322186D02*
X2826147Y2318870D01*
X2832000Y2317706D01*
X3895665D01*
X4282186Y1931186D01*
X4287147Y1927870D01*
X4293000Y1926706D01*
X6244665D01*
X6317185Y1854186D01*
X6322147Y1850870D01*
X6328000Y1849706D01*
X8298665D01*
X8333011Y1815360D01*
X8329824Y1811476D01*
X8325853Y1814130D01*
X8320000Y1815294D01*
X6297903D01*
X6252383Y1860814D01*
X6247421Y1864130D01*
X6241569Y1865294D01*
X4044472D01*
X3963131Y1946634D01*
X3965594Y1951243D01*
X3967024Y1950958D01*
X3980152D01*
X3981976Y1948228D01*
X3990245Y1942703D01*
X4000000Y1940762D01*
X4009755Y1942703D01*
X4018024Y1948228D01*
X4023550Y1956497D01*
X4025490Y1966252D01*
X4023550Y1976006D01*
X4018024Y1984276D01*
X4009755Y1989802D01*
X4000000Y1991742D01*
X3990245Y1989802D01*
X3981976Y1984276D01*
X3980152Y1981546D01*
X3973359D01*
X3844989Y2109916D01*
X3848550Y2115245D01*
X3848677Y2115885D01*
X3853461Y2117336D01*
X3916612Y2054186D01*
X3921574Y2050870D01*
X3927426Y2049706D01*
X3950152D01*
X3951976Y2046976D01*
X3960245Y2041450D01*
X3970000Y2039510D01*
X3979755Y2041450D01*
X3988024Y2046976D01*
X3993550Y2055245D01*
X3995490Y2065000D01*
X3994899Y2067969D01*
X3999507Y2070432D01*
X4018952Y2050988D01*
X4013450Y2042755D01*
X4011510Y2033000D01*
X4013450Y2023245D01*
X4018976Y2014976D01*
X4027245Y2009450D01*
X4037000Y2007510D01*
X4046755Y2009450D01*
X4055024Y2014976D01*
X4060550Y2023245D01*
X4062490Y2033000D01*
X4060550Y2042755D01*
X4055024Y2051024D01*
X4052294Y2052848D01*
Y2054568D01*
X4051130Y2060421D01*
X4047814Y2065383D01*
X3901383Y2211814D01*
X3896421Y2215130D01*
X3890568Y2216294D01*
X3827848D01*
X3826024Y2219024D01*
X3817755Y2224550D01*
X3808000Y2226490D01*
X3798245Y2224550D01*
X3789976Y2219024D01*
X3784450Y2210755D01*
X3782510Y2201000D01*
X3784450Y2191245D01*
X3789976Y2182976D01*
X3798245Y2177450D01*
X3808000Y2175510D01*
X3817755Y2177450D01*
X3826024Y2182976D01*
X3827848Y2185706D01*
X3884234D01*
X3975432Y2094507D01*
X3972969Y2089899D01*
X3970000Y2090490D01*
X3960245Y2088550D01*
X3951976Y2083024D01*
X3950152Y2080294D01*
X3933761D01*
X3848241Y2165814D01*
X3843279Y2169130D01*
X3837426Y2170294D01*
X2456335D01*
X2395814Y2230814D01*
X2390853Y2234130D01*
X2385000Y2235294D01*
X2071335D01*
X2004849Y2301780D01*
X2005490Y2305000D01*
X2003550Y2314755D01*
X1998024Y2323024D01*
X1989755Y2328550D01*
X1980000Y2330490D01*
X1970245Y2328550D01*
X1961976Y2323024D01*
X1956450Y2314755D01*
X1955294Y2308940D01*
X1950294Y2309432D01*
Y3096568D01*
X1949130Y3102421D01*
X1945814Y3107383D01*
X1920294Y3132903D01*
Y3195152D01*
X1923024Y3196976D01*
X1928550Y3205245D01*
X1929104Y3208031D01*
X1933888Y3209483D01*
X2821186Y2322186D01*
D02*
G37*
G36*
X1904186Y1969186D02*
X1909147Y1965870D01*
X1915000Y1964706D01*
X3668665D01*
X3723719Y1909652D01*
X3721256Y1905044D01*
X3720000Y1905294D01*
X1936335D01*
X1885294Y1956335D01*
Y1981544D01*
X1889913Y1983458D01*
X1904186Y1969186D01*
D02*
G37*
G36*
X1939186Y2014186D02*
X1944147Y2010870D01*
X1950000Y2009706D01*
X3772977D01*
X3774493Y2004706D01*
X3771976Y2003024D01*
X3766450Y1994755D01*
X3764510Y1985000D01*
X3766450Y1975245D01*
X3771976Y1966976D01*
X3780245Y1961450D01*
X3790000Y1959510D01*
X3793220Y1960151D01*
X3963458Y1789913D01*
X3961544Y1785294D01*
X3941335D01*
X3814020Y1912609D01*
X3815490Y1920000D01*
X3813550Y1929755D01*
X3808024Y1938024D01*
X3799755Y1943550D01*
X3790000Y1945490D01*
X3780245Y1943550D01*
X3771976Y1938024D01*
X3766450Y1929755D01*
X3764510Y1920000D01*
X3764762Y1918732D01*
X3762972Y1917409D01*
X3760103Y1916525D01*
X3685814Y1990814D01*
X3680853Y1994130D01*
X3675000Y1995294D01*
X1921335D01*
X1905294Y2011335D01*
Y2041544D01*
X1909913Y2043458D01*
X1939186Y2014186D01*
D02*
G37*
G36*
X4501742Y1724913D02*
X4499829Y1720294D01*
X4224619D01*
X4174826Y1770087D01*
X4176740Y1774706D01*
X4451949D01*
X4501742Y1724913D01*
D02*
G37*
G36*
X5494706Y1583665D02*
Y1519432D01*
X5489706Y1518940D01*
X5488550Y1524755D01*
X5483024Y1533024D01*
X5474755Y1538550D01*
X5465000Y1540490D01*
X5455245Y1538550D01*
X5446976Y1533024D01*
X5445152Y1530294D01*
X5194627D01*
X5189755Y1533550D01*
X5180000Y1535490D01*
X5170245Y1533550D01*
X5161976Y1528024D01*
X5160294Y1525507D01*
X5155294Y1527023D01*
Y1655000D01*
X5154130Y1660853D01*
X5150814Y1665814D01*
X5105814Y1710814D01*
X5100853Y1714130D01*
X5097955Y1714706D01*
X5098448Y1719706D01*
X5358665D01*
X5494706Y1583665D01*
D02*
G37*
G36*
X8865871Y1732500D02*
X8849186Y1715814D01*
X8845870Y1710853D01*
X8844706Y1705000D01*
Y1676335D01*
X8844186Y1675814D01*
X8840870Y1670853D01*
X8839706Y1665000D01*
Y1477023D01*
X8834706Y1475507D01*
X8833024Y1478024D01*
X8830294Y1479848D01*
Y1708665D01*
X8830814Y1709186D01*
X8834130Y1714147D01*
X8835294Y1720000D01*
X8834397Y1724507D01*
X8835490Y1730000D01*
X8833549Y1739755D01*
X8833187Y1740296D01*
X8835544Y1744706D01*
X8853665D01*
X8865871Y1732500D01*
D02*
G37*
%LPC*%
G36*
X2090000Y2745490D02*
X2080245Y2743550D01*
X2071976Y2738024D01*
X2066450Y2729755D01*
X2064510Y2720000D01*
X2066450Y2710245D01*
X2071976Y2701976D01*
X2080245Y2696450D01*
X2087291Y2695049D01*
Y2689951D01*
X2080245Y2688550D01*
X2071976Y2683024D01*
X2066450Y2674755D01*
X2064510Y2665000D01*
X2066450Y2655245D01*
X2071976Y2646976D01*
X2080245Y2641450D01*
X2090000Y2639510D01*
X2099755Y2641450D01*
X2108024Y2646976D01*
X2109848Y2649706D01*
X2345152D01*
X2346976Y2646976D01*
X2355245Y2641450D01*
X2365000Y2639510D01*
X2374755Y2641450D01*
X2383024Y2646976D01*
X2388550Y2655245D01*
X2390490Y2665000D01*
X2388550Y2674755D01*
X2383024Y2683024D01*
X2376841Y2687155D01*
Y2692845D01*
X2383024Y2696976D01*
X2388550Y2705245D01*
X2390490Y2715000D01*
X2388550Y2724755D01*
X2383024Y2733024D01*
X2374755Y2738550D01*
X2365000Y2740490D01*
X2355245Y2738550D01*
X2350373Y2735294D01*
X2109848D01*
X2108024Y2738024D01*
X2099755Y2743550D01*
X2090000Y2745490D01*
D02*
G37*
G36*
X2200000Y2580490D02*
X2190245Y2578550D01*
X2181976Y2573024D01*
X2176450Y2564755D01*
X2174510Y2555000D01*
X2176450Y2545245D01*
X2181976Y2536976D01*
X2190245Y2531450D01*
X2200000Y2529510D01*
X2203220Y2530151D01*
X2237990Y2495381D01*
Y2449848D01*
X2235260Y2448024D01*
X2229735Y2439755D01*
X2227794Y2430000D01*
X2229735Y2420245D01*
X2235260Y2411976D01*
X2243530Y2406450D01*
X2253284Y2404510D01*
X2263039Y2406450D01*
X2271308Y2411976D01*
X2276834Y2420245D01*
X2278774Y2430000D01*
X2276834Y2439755D01*
X2271308Y2448024D01*
X2268578Y2449848D01*
Y2501716D01*
X2267414Y2507568D01*
X2264099Y2512530D01*
X2224849Y2551780D01*
X2225490Y2555000D01*
X2223550Y2564755D01*
X2218024Y2573024D01*
X2209755Y2578550D01*
X2200000Y2580490D01*
D02*
G37*
G36*
X2135000Y2460490D02*
X2125245Y2458550D01*
X2116976Y2453024D01*
X2111450Y2444755D01*
X2109510Y2435000D01*
X2111450Y2425245D01*
X2116976Y2416976D01*
X2119706Y2415152D01*
Y2365000D01*
X2120870Y2359147D01*
X2124186Y2354186D01*
X2170151Y2308220D01*
X2169510Y2305000D01*
X2171450Y2295245D01*
X2176976Y2286976D01*
X2185245Y2281450D01*
X2195000Y2279510D01*
X2204755Y2281450D01*
X2213024Y2286976D01*
X2218550Y2295245D01*
X2220490Y2305000D01*
X2218550Y2314755D01*
X2213024Y2323024D01*
X2204755Y2328550D01*
X2195000Y2330490D01*
X2191780Y2329849D01*
X2150294Y2371335D01*
Y2415152D01*
X2153024Y2416976D01*
X2158550Y2425245D01*
X2160490Y2435000D01*
X2158550Y2444755D01*
X2153024Y2453024D01*
X2144755Y2458550D01*
X2135000Y2460490D01*
D02*
G37*
G36*
X3691000Y2273490D02*
X3681245Y2271550D01*
X3672976Y2266024D01*
X3667450Y2257755D01*
X3665510Y2248000D01*
X3667450Y2238245D01*
X3672976Y2229976D01*
X3681245Y2224450D01*
X3691000Y2222510D01*
X3700755Y2224450D01*
X3709024Y2229976D01*
X3710848Y2232706D01*
X3913665D01*
X4068151Y2078220D01*
X4067510Y2075000D01*
X4069450Y2065245D01*
X4074976Y2056976D01*
X4083245Y2051450D01*
X4093000Y2049510D01*
X4102755Y2051450D01*
X4111024Y2056976D01*
X4116550Y2065245D01*
X4118490Y2075000D01*
X4116550Y2084755D01*
X4111024Y2093024D01*
X4102755Y2098550D01*
X4093000Y2100490D01*
X4089780Y2099849D01*
X3930814Y2258814D01*
X3925853Y2262130D01*
X3920000Y2263294D01*
X3710848D01*
X3709024Y2266024D01*
X3700755Y2271550D01*
X3691000Y2273490D01*
D02*
G37*
%LPD*%
G36*
X2346976Y2696976D02*
X2353159Y2692845D01*
Y2687155D01*
X2346976Y2683024D01*
X2345152Y2680294D01*
X2109848D01*
X2108024Y2683024D01*
X2099755Y2688550D01*
X2092709Y2689951D01*
Y2695049D01*
X2099755Y2696450D01*
X2108024Y2701976D01*
X2109848Y2704706D01*
X2341811D01*
X2346976Y2696976D01*
D02*
G37*
G36*
X8650953Y2312253D02*
X8649510Y2305000D01*
X8650151Y2301780D01*
X8553665Y2205294D01*
X8157023D01*
X8155507Y2210294D01*
X8158024Y2211976D01*
X8159848Y2214706D01*
X8540000D01*
X8545853Y2215870D01*
X8550814Y2219186D01*
X8646345Y2314716D01*
X8650953Y2312253D01*
D02*
G37*
D31*
X9444783Y3115783D02*
X9447000Y3118000D01*
X9414005Y3115783D02*
X9444783D01*
X9381749Y3083528D02*
X9414005Y3115783D01*
X9381749Y3082749D02*
Y3083528D01*
X9404679Y3140783D02*
X9407486Y3143590D01*
X9403650Y3140783D02*
X9404679D01*
X9380293Y3117426D02*
X9403650Y3140783D01*
X9287426Y3117426D02*
X9380293D01*
X9312749Y3082749D02*
X9381749D01*
X9290000Y3060000D02*
X9312749Y3082749D01*
X9407486Y3143590D02*
X9447000D01*
D32*
X5145000Y4452000D02*
X5280000Y4587000D01*
Y4770000D01*
X5353000Y4611000D02*
X5459000Y4505000D01*
X5320000Y4611000D02*
X5353000D01*
X7863425Y4526575D02*
X8051575D01*
X5459000Y4505000D02*
X5470000D01*
X5145000Y4220000D02*
Y4452000D01*
X3474880Y4070120D02*
X3660000Y3885000D01*
X3474880Y4070120D02*
Y4076117D01*
X3466093Y4084904D02*
X3474880Y4076117D01*
X3460096Y4084904D02*
X3466093D01*
X3660000Y3885000D02*
X4210000D01*
X6108000Y3753000D02*
X6170000Y3815000D01*
X5572544Y3753000D02*
X6108000D01*
X5389544Y3570000D02*
X5572544Y3753000D01*
X2180000Y3570000D02*
X5389544D01*
X2120000Y3510000D02*
X2180000Y3570000D01*
X8445000Y2050000D02*
X9100000D01*
X8296000Y1901000D02*
X8445000Y2050000D01*
X9100000D02*
X9210000Y1940000D01*
Y1850000D02*
Y1940000D01*
X9320000Y1740000D02*
X9410000D01*
X9210000Y1850000D02*
X9320000Y1740000D01*
X9410000Y1575000D02*
Y1740000D01*
X9335174Y1500174D02*
X9410000Y1575000D01*
X9335174Y1460000D02*
Y1500174D01*
X8900000Y1465000D02*
X9075000Y1640000D01*
X8900000Y1415000D02*
Y1465000D01*
X8855000Y1442025D02*
Y1665000D01*
X8860000Y1670000D01*
X1730000Y1490000D02*
Y1605000D01*
X1710000Y1470000D02*
X1730000Y1490000D01*
X9445000Y2605000D02*
Y2855000D01*
X9370000Y2930000D02*
X9445000Y2855000D01*
X9020000Y2930000D02*
X9370000D01*
X8875000Y3075000D02*
X9020000Y2930000D01*
X8815000Y1460000D02*
Y1715000D01*
X8820000Y1720000D01*
X8935000Y1690000D02*
Y1725000D01*
X8920000Y1675000D02*
X8935000Y1690000D01*
X8865000Y1675000D02*
X8920000D01*
X8860000Y1670000D02*
Y1705000D01*
Y1670000D02*
X8865000Y1675000D01*
X8810000Y1730000D02*
X8820000Y1720000D01*
X8860000Y1705000D02*
X8887500Y1732500D01*
X8980000Y4000000D02*
X9080000Y3900000D01*
Y3740000D02*
Y3900000D01*
X8875000Y3535000D02*
X9080000Y3740000D01*
X8980000Y4000000D02*
Y4495000D01*
X8140000Y2230000D02*
X8540000D01*
X4320000Y1515000D02*
X4590000D01*
X5060000Y3215000D02*
X5580000Y3735000D01*
X5610000Y3590000D02*
X6535000D01*
X5598000Y3578000D02*
X5610000Y3590000D01*
X5597544Y3578000D02*
X5598000D01*
X5172000Y3152456D02*
X5597544Y3578000D01*
X5172000Y3152000D02*
Y3152456D01*
X5160000Y3140000D02*
X5172000Y3152000D01*
X5605000Y3560000D02*
X5865000D01*
X5190000Y3145000D02*
X5605000Y3560000D01*
X5120000Y2395000D02*
Y3190000D01*
X5160000Y2480000D02*
Y3140000D01*
X5190000Y2435000D02*
Y3145000D01*
X5120000Y3190000D02*
X5565000Y3635000D01*
X6425000Y2260000D02*
Y2297574D01*
X5650000Y2650000D02*
X5870000Y2430000D01*
X6505000D01*
X8215000Y2465000D02*
Y2915000D01*
X7910000Y2400000D02*
X8250000D01*
X8255000Y2395000D01*
X4035000Y4255000D02*
X4150000Y4140000D01*
X3778432Y4255000D02*
X4035000D01*
X3975000Y4230000D02*
X4170000Y4035000D01*
X3750000Y4230000D02*
X3975000D01*
X3875000Y4415000D02*
X3930000Y4360000D01*
X3875000Y4415000D02*
Y4505000D01*
X4000000Y4415000D02*
Y4445000D01*
X3900000Y4545000D02*
X4000000Y4445000D01*
X2105000Y4563138D02*
X2185000Y4483138D01*
Y4385000D02*
Y4483138D01*
X2212000Y3165000D02*
X2237000D01*
X2122000Y3255000D02*
X2212000Y3165000D01*
X2765000Y4465000D02*
X2895000D01*
X2750000Y4480000D02*
X2765000Y4465000D01*
X3715000Y4385000D02*
X3800000Y4300000D01*
X5495000Y4400000D02*
X5525000D01*
X5550000Y4425000D01*
X5455000Y4330000D02*
X5515000D01*
X5400000Y4385000D02*
X5455000Y4330000D01*
X5400000Y4385000D02*
Y4425000D01*
X5550000D02*
Y4475000D01*
X5475000Y4550000D02*
X5550000Y4475000D01*
X5475000Y4550000D02*
Y4570000D01*
X5241569Y4468431D02*
X5425000D01*
X5240000Y4470000D02*
X5241569Y4468431D01*
X5590000Y4405000D02*
X5945000D01*
X5515000Y4330000D02*
X5590000Y4405000D01*
X6130000Y4590000D02*
Y4775000D01*
X5945000Y4405000D02*
X6130000Y4590000D01*
X6270000Y4615000D02*
X6295000D01*
X6185000Y4530000D02*
X6270000Y4615000D01*
X6135000Y4530000D02*
X6185000D01*
X6970000Y4565000D02*
Y4805000D01*
X7045000Y3845000D02*
X7055000Y3835000D01*
X7175000Y4533432D02*
Y4585000D01*
Y4533432D02*
X7176789Y4531642D01*
X7060000Y4700000D02*
X7175000Y4585000D01*
X7000000Y4700000D02*
X7060000D01*
X7045000Y3845000D02*
Y4415000D01*
X7176789Y3873211D02*
Y4531642D01*
X6975000Y4470000D02*
X7135000D01*
X7860000Y4530000D02*
X7863425Y4526575D01*
X8810000Y3935000D02*
X8870000Y3875000D01*
X8810000Y3935000D02*
Y4385000D01*
X9070000Y4370806D02*
X9119194Y4420000D01*
X9070000Y4350000D02*
Y4370806D01*
X9119194Y4420000D02*
X9225000D01*
X8765000Y4465000D02*
X8855000D01*
X8690000Y4390000D02*
Y4765000D01*
X8540000Y2230000D02*
X8685000Y2375000D01*
X8601000Y2340000D02*
X8645000Y2384000D01*
X8565000Y2340000D02*
X8601000D01*
X8685000Y2375000D02*
X9265000D01*
X7965000Y2140000D02*
X8600000D01*
X8560000Y2190000D02*
X8675000Y2305000D01*
X8050000Y2190000D02*
X8560000D01*
X5895000Y2475000D02*
X6545000D01*
X5650000Y2720000D02*
X5895000Y2475000D01*
X5595000Y2720000D02*
X5650000D01*
X6695174Y2470000D02*
X7770000D01*
X8050000Y2190000D01*
X6425000Y2297574D02*
X6910000Y2782574D01*
X9265000Y2375000D02*
X9315000Y2325000D01*
X9362194Y3165837D02*
X9444685D01*
X9355000Y3173032D02*
X9362194Y3165837D01*
X8875000Y3075000D02*
Y3535000D01*
X3715000Y4385000D02*
Y4465000D01*
X3710000Y4560000D02*
X3775000D01*
X3620000Y4650000D02*
X3710000Y4560000D01*
X3570000Y4650000D02*
X3620000D01*
X2045000Y4510000D02*
X2095000D01*
X1940000Y4615000D02*
X2045000Y4510000D01*
X1940000Y4615000D02*
Y4700000D01*
X1815000Y4510000D02*
X1885000Y4580000D01*
X2105000Y4563138D02*
Y4600000D01*
X1905000Y4475000D02*
X2035000D01*
X3835000Y4545000D02*
X3900000D01*
X3780000Y4600000D02*
X3835000Y4545000D01*
X4520000Y4690000D02*
X4655000Y4555000D01*
X4656569D01*
X1870000Y1950000D02*
Y2810000D01*
X1825000Y2855000D02*
X1870000Y2810000D01*
X1825000Y2855000D02*
Y2885000D01*
X2300000Y2080000D02*
X3808137D01*
X2270000Y2110000D02*
X2300000Y2080000D01*
X2270000Y2110000D02*
Y2145000D01*
X3967024Y1966252D02*
X4000000D01*
X3825000Y2108276D02*
X3967024Y1966252D01*
X3825000Y2108276D02*
Y2125000D01*
X3890568Y2201000D02*
X4037000Y2054568D01*
Y2033000D02*
Y2054568D01*
X2917000Y2364000D02*
X3758568D01*
X1935000Y3346000D02*
X2917000Y2364000D01*
X3758568D02*
X3764568Y2370000D01*
X3906944D02*
X4289944Y1987000D01*
X3764568Y2370000D02*
X3906944D01*
X4293000Y1942000D02*
X6251000D01*
X3902000Y2333000D02*
X4293000Y1942000D01*
X2832000Y2333000D02*
X3902000D01*
X4289944Y1987000D02*
X6259000D01*
X4199370Y2120000D02*
X4430000D01*
X1980000Y2305000D02*
X2065000Y2220000D01*
X2385000D01*
X2450000Y2155000D01*
X3837426D01*
X3927426Y2065000D01*
X3970000D01*
X3808000Y2201000D02*
X3890568D01*
X1935000Y2095000D02*
Y3096568D01*
X1915000Y2060000D02*
Y3060000D01*
X1890000Y2005000D02*
Y2945000D01*
X1935000Y2095000D02*
X1985000Y2045000D01*
X1915000Y2060000D02*
X1950000Y2025000D01*
X1890000Y2005000D02*
X1915000Y1980000D01*
X5784874Y3003582D02*
X5789700Y3008408D01*
X5770000Y2990000D02*
X5780174Y3000174D01*
X5784874Y3003582D02*
Y3441508D01*
X5780174Y2998100D02*
Y3000174D01*
X5375000Y2990392D02*
Y3275000D01*
X7560000Y2890000D02*
X7655000Y2985000D01*
X7560000Y2885000D02*
Y2890000D01*
X6910000Y2782574D02*
Y2955000D01*
X1904000Y3261000D02*
Y3303732D01*
Y3261000D02*
X2832000Y2333000D01*
X1905000Y3126568D02*
Y3215000D01*
X1160000Y1415000D02*
X1355000Y1610000D01*
X1160000Y1235000D02*
Y1415000D01*
X2730000Y1100000D02*
X2845000D01*
X8030000Y1665000D02*
X8070000Y1705000D01*
X8030000Y1220000D02*
Y1665000D01*
X7830000Y1305000D02*
X7880000D01*
X7910000Y1335000D01*
X6010000Y1515000D02*
X6305000D01*
X6310000Y1510000D01*
X5510000Y1455000D02*
Y1590000D01*
X5485000Y1430000D02*
X5510000Y1455000D01*
X5485000Y1250000D02*
Y1430000D01*
X5365000Y1735000D02*
X5510000Y1590000D01*
X5185000Y1515000D02*
X5465000D01*
X5180000Y1510000D02*
X5185000Y1515000D01*
X5265000Y1295000D02*
X5320000D01*
X5340000Y1315000D02*
Y1420000D01*
X5320000Y1295000D02*
X5340000Y1315000D01*
X5140000Y1470000D02*
Y1655000D01*
X8410000Y1760000D02*
X8860000D01*
X8887500Y1732500D01*
X6880000Y1515000D02*
X6950000D01*
X6970000Y1495000D01*
X7605000Y1735000D02*
X7615000D01*
X7679134Y1670866D01*
Y1496569D02*
Y1670866D01*
X9075000Y1640000D02*
Y1740000D01*
Y1905000D01*
X9025000Y1955000D02*
X9075000Y1905000D01*
X6332664Y1702336D02*
X6350000Y1685000D01*
X6225000Y1702336D02*
X6332664D01*
X7740000Y1550000D02*
X7805000Y1485000D01*
X7910000Y1335000D02*
Y1351569D01*
X2090000Y2665000D02*
X2365000D01*
X3630000Y2670000D02*
X4185000D01*
X4870000Y2655630D02*
X4875630Y2650000D01*
X5020000D01*
X5595000D02*
X5650000D01*
X5085000Y2383432D02*
Y3205000D01*
Y2383432D02*
X5115000Y2353432D01*
X5085000Y3205000D02*
X5570421Y3690421D01*
X6700000Y2430000D02*
X7675000D01*
X7965000Y2140000D01*
X6345000Y1901000D02*
X8296000D01*
X5015000Y2730000D02*
X5020000Y2735000D01*
X4870000Y2730000D02*
X5015000D01*
X3635000D02*
X4175000D01*
X2360000Y2720000D02*
X2365000Y2715000D01*
X2090000Y2720000D02*
X2360000D01*
X1820000Y1885000D02*
X1955000Y1750000D01*
X1820000Y1885000D02*
Y2795000D01*
X1870000Y1950000D02*
X1930000Y1890000D01*
X3720000D01*
X3765000Y1845000D01*
X1845000Y2990000D02*
X1890000Y2945000D01*
X6254874Y3506508D02*
X6624874D01*
X6535000Y3590000D02*
X6540000Y3585000D01*
X2120000Y3373000D02*
X2122000Y3371000D01*
X2120000Y3373000D02*
Y3510000D01*
X8550000Y3915000D02*
X8650000Y3815000D01*
X8550000Y3915000D02*
Y4535000D01*
X5705000Y2890000D02*
X5795000D01*
X5825000Y2860000D01*
X3605000Y2915000D02*
X5025000D01*
X3600000Y2920000D02*
X3605000Y2915000D01*
X5060000Y2345000D02*
Y3215000D01*
X5055000Y2340000D02*
X5060000Y2345000D01*
X5364608Y2980000D02*
X5375000Y2990392D01*
X3590000Y2575000D02*
X4925000D01*
X3475000Y2460000D02*
X3590000Y2575000D01*
X3070000Y1845000D02*
Y1855000D01*
X2930000Y1705000D02*
X3070000Y1845000D01*
X1915000Y1980000D02*
X3675000D01*
X3750000Y1905000D01*
X1950000Y2025000D02*
X3806568D01*
X4021568Y1810000D01*
X1985000Y2045000D02*
X3814853D01*
X4029853Y1830000D01*
X3808137Y2080000D02*
X4038137Y1850000D01*
X3610000Y2515000D02*
X4990000D01*
X2785000Y1795000D02*
X2840000Y1850000D01*
X2785000Y1700000D02*
Y1795000D01*
X2930000Y1635000D02*
Y1705000D01*
X5120000Y2395000D02*
X5125000Y2400000D01*
X5115000Y2265000D02*
Y2353432D01*
X5110000Y2260000D02*
X5115000Y2265000D01*
X5570421Y3690421D02*
X6535995D01*
X5865000Y3560000D02*
X5995000Y3430000D01*
X5994874Y3426508D02*
X6409874D01*
X1885000Y4580000D02*
Y4775000D01*
X2745000Y4525000D02*
Y4555000D01*
X2695000Y4475000D02*
X2745000Y4525000D01*
X2695000Y4345000D02*
Y4475000D01*
X7279874Y3126508D02*
Y3541508D01*
X7280000Y3545000D02*
X7400000Y3665000D01*
X7176789Y3873211D02*
X7190000Y3860000D01*
X7540000Y3840000D02*
Y3965000D01*
X8050000Y4475000D01*
X6970000D02*
X6975000Y4470000D01*
X6965000Y4480000D02*
X6970000Y4475000D01*
X5565000Y3635000D02*
X6535000D01*
X5580000Y3735000D02*
X6530000D01*
X5689874Y3446508D02*
X5699874Y2999894D01*
X9480000Y4335000D02*
X9490000Y4345000D01*
Y4460000D01*
X8360000Y3470000D02*
X8400000D01*
X8125000Y3235000D02*
X8360000Y3470000D01*
X7740000Y2640000D02*
X7870000D01*
X7875000Y2645000D01*
X7900000Y2410000D02*
X7910000Y2400000D01*
X2735000Y4675000D02*
X2813432D01*
X2960000Y4528431D01*
X2955000Y4590000D02*
X3460096Y4084904D01*
X2950000Y4590000D02*
X2955000D01*
X3545000Y4350000D02*
Y4523000D01*
X3515000Y4320000D02*
X3545000Y4350000D01*
X5240000Y4135000D02*
X6540000D01*
X6970000Y4565000D01*
X5364608Y4175000D02*
X6270000D01*
X6360000Y4265000D01*
Y4575000D01*
X4795000Y4205000D02*
Y4480157D01*
X4740079Y4535079D02*
X4795000Y4480157D01*
X3880000Y3955000D02*
X4165000D01*
X3515000Y4320000D02*
X3880000Y3955000D01*
X3748432Y4285000D02*
X3778432Y4255000D01*
X3715000Y4285000D02*
X3748432D01*
X3780000Y4600000D02*
Y4640000D01*
X4430000Y4690000D02*
X4520000D01*
X7205000Y4560000D02*
X7265000Y4500000D01*
X7705000Y4370000D02*
Y4476569D01*
X7840000Y4611569D01*
Y4790000D01*
X8115000Y4325000D02*
Y4526569D01*
X8065000Y4576569D02*
X8115000Y4526569D01*
X8065000Y4576569D02*
Y4605000D01*
X8045000Y4480000D02*
X8050000Y4475000D01*
X3745000Y4225000D02*
X3750000Y4230000D01*
X1630000Y4505000D02*
X1905000Y4230000D01*
X1275000Y4505000D02*
X1630000D01*
X1815000Y4380000D02*
X1905000Y4290000D01*
X1815000Y4380000D02*
Y4510000D01*
X6030000Y4220000D02*
X6225000Y4415000D01*
X6025000Y4220000D02*
X6030000D01*
X7265000Y4325000D02*
Y4500000D01*
X8660000Y4365000D02*
X8665000D01*
X8690000Y4390000D01*
X7205000Y4560000D02*
Y4595000D01*
X3795000Y4295000D02*
X3800000Y4300000D01*
X1895000Y4465000D02*
X1905000Y4475000D01*
X2745000D02*
X2750000Y4480000D01*
X6120000Y4475000D02*
X6315000D01*
X6115000Y4470000D02*
X6120000Y4475000D01*
X7855000Y4480000D02*
X8045000D01*
X3742000Y2404000D02*
X3976000D01*
X3996000Y2384000D01*
X2122000Y3255000D02*
Y3371000D01*
X6259000Y1987000D02*
X6345000Y1901000D01*
X3920000Y2248000D02*
X4093000Y2075000D01*
X3691000Y2248000D02*
X3920000D01*
X6251000Y1942000D02*
X6328000Y1865000D01*
X4038137Y1850000D02*
X6241569D01*
X4029853Y1830000D02*
X4474853D01*
X6328000Y1865000D02*
X8305000D01*
X6639000Y1696000D02*
X6811000D01*
X6629000Y1706000D02*
X6639000Y1696000D01*
X6811000D02*
X6840000Y1667000D01*
Y1470000D02*
Y1667000D01*
X6291569Y1800000D02*
X8320000D01*
X6241569Y1850000D02*
X6291569Y1800000D01*
X1905000Y3126568D02*
X1935000Y3096568D01*
X4474853Y1830000D02*
X4549853Y1755000D01*
X5373284D01*
X5393284Y1735000D01*
X5710000D01*
X1885000Y3090000D02*
X1915000Y3060000D01*
X3750000Y1903431D02*
X3903432Y1750000D01*
X3750000Y1903431D02*
Y1905000D01*
X3903432Y1750000D02*
X4145000D01*
X4021568Y1810000D02*
X4466568D01*
X4541568Y1735000D01*
X5365000D01*
X3790000Y1985000D02*
X3985000Y1790000D01*
X4458284D01*
X4548284Y1700000D01*
X5095000D01*
X3790000Y1915000D02*
Y1920000D01*
Y1915000D02*
X3935000Y1770000D01*
X4153284D01*
X4218284Y1705000D01*
X4515000D01*
X4145000Y1750000D02*
X4185000Y1710000D01*
X3755000Y1530000D02*
Y1700000D01*
Y1530000D02*
X3758432Y1526569D01*
X3755000Y1700000D02*
X3765000Y1710000D01*
X1955000Y1750000D02*
X2350000D01*
X3765000Y1710000D02*
Y1845000D01*
X3655000Y1830000D02*
X3700000Y1785000D01*
Y1585000D02*
Y1785000D01*
X3450000Y1675000D02*
X3520000Y1745000D01*
X2135000Y2365000D02*
Y2435000D01*
Y2365000D02*
X2195000Y2305000D01*
X2200000Y2555000D02*
X2253284Y2501716D01*
Y2430000D02*
Y2501716D01*
X2035000Y1530000D02*
X2200000Y1695000D01*
X2035000Y1200000D02*
Y1530000D01*
X2350000Y1750000D02*
X2575000Y1630000D01*
Y1470000D02*
Y1630000D01*
X2920000Y1530000D02*
X3095000Y1705000D01*
X2920000Y1498431D02*
Y1530000D01*
X2900000Y1478431D02*
X2920000Y1498431D01*
X2900000Y1195000D02*
Y1478431D01*
X3450000Y1470000D02*
Y1675000D01*
X3758432Y1198431D02*
Y1526569D01*
X3755000Y1195000D02*
X3758432Y1198431D01*
X4185000Y1555000D02*
Y1710000D01*
Y1555000D02*
X4270000Y1470000D01*
X4515000Y1705000D02*
X4630000Y1590000D01*
Y1498431D02*
Y1590000D01*
X4610000Y1478431D02*
X4630000Y1498431D01*
X4610000Y1220000D02*
Y1478431D01*
X5095000Y1700000D02*
X5140000Y1655000D01*
X6929874Y3306508D02*
X6954874Y3281508D01*
Y3058408D02*
Y3281508D01*
X5710000Y1735000D02*
X5975000Y1470000D01*
X6350000Y1493431D02*
Y1685000D01*
X6335000Y1478431D02*
X6350000Y1493431D01*
X6335000Y1225000D02*
Y1478431D01*
X8320000Y1800000D02*
X8565000Y1555000D01*
X8305000Y1865000D02*
X8410000Y1760000D01*
X8205000Y1705000D02*
X8210000Y1700000D01*
Y1555000D02*
Y1700000D01*
X7375000Y1595000D02*
Y1700000D01*
X7270000Y1490000D02*
X7375000Y1595000D01*
X7270000Y1478431D02*
Y1490000D01*
X7170000Y1378431D02*
X7270000Y1478431D01*
X7170000Y1210000D02*
Y1378431D01*
X8205000Y1690000D02*
Y1705000D01*
X1810000Y1505000D02*
X1820000Y1515000D01*
X1990000D01*
X2675000D02*
X2880000D01*
X7805000Y1485000D02*
X8000000D01*
X6970000Y1495000D02*
X7230000D01*
X3545000Y1515000D02*
X3550000Y1510000D01*
X3718432D01*
X6175000Y1285000D02*
X6215000Y1325000D01*
X6140000Y1285000D02*
X6175000D01*
X2740000Y1270000D02*
X2795000Y1325000D01*
Y1335000D01*
X7065000Y1315000D02*
Y1325000D01*
X7045000Y1295000D02*
X7065000Y1315000D01*
X6985000Y1295000D02*
X7045000D01*
X8685000D02*
X8735000D01*
X8780000Y1340000D01*
D33*
X7030000Y3301634D02*
D03*
X8834700Y2963408D02*
D03*
X8835000Y3023000D02*
D03*
X8100000Y2640000D02*
D03*
X7900000Y2470000D02*
D03*
X6651929Y2085000D02*
D03*
X7970000Y3715000D02*
D03*
X8009700Y3418408D02*
D03*
X1580000Y2405000D02*
D03*
D34*
X8905000Y2310000D02*
D03*
X8918031Y2135000D02*
D03*
D35*
X1505000Y4220000D02*
D03*
X1560000Y1680000D02*
D03*
X9230000Y1640000D02*
D03*
X9287426Y4190000D02*
D03*
D36*
X1395000Y2995945D02*
D03*
Y3355000D02*
D03*
X1570197D02*
D03*
D37*
X1482677Y2765472D02*
D03*
Y3585551D02*
D03*
D38*
X1570197Y2995945D02*
D03*
D39*
X5320000Y4611000D02*
D03*
X8640000Y3560000D02*
D03*
X9331451Y3700000D02*
D03*
Y3990000D02*
D03*
X8930000Y4223609D02*
D03*
X3315000Y4150000D02*
D03*
X6900000Y4005000D02*
D03*
X7855000Y3020870D02*
D03*
X7560000Y3408476D02*
D03*
X7610000Y3520000D02*
D03*
X9210000Y1335000D02*
D03*
X8350000Y1358024D02*
D03*
X7500000Y1351569D02*
D03*
X5780814Y1340000D02*
D03*
X4930000Y1364147D02*
D03*
X4100000Y1315000D02*
D03*
X3255000Y1390000D02*
D03*
X2385000Y1340000D02*
D03*
X1505000Y1365000D02*
D03*
X1568928Y4645000D02*
D03*
X2420000Y4653550D02*
D03*
X3300000Y4643431D02*
D03*
X4112638Y4625000D02*
D03*
X4975000Y4606462D02*
D03*
X9230000Y4620000D02*
D03*
X8355000Y4625000D02*
D03*
X7535000Y4606462D02*
D03*
X5840000Y4650000D02*
D03*
X6245000Y3254421D02*
D03*
X6061048Y3173032D02*
D03*
X7220000Y3401018D02*
D03*
X6936850Y3640000D02*
D03*
X7185000Y2535000D02*
D03*
X7540000Y3250000D02*
D03*
X6685000Y4715000D02*
D03*
X9335174Y1460000D02*
D03*
X8900000Y1415000D02*
D03*
X8855000Y1442025D02*
D03*
X1730000Y1605000D02*
D03*
X8815000Y1460000D02*
D03*
X8245769Y2515000D02*
D03*
X8710000Y3137196D02*
D03*
X5545000Y1450000D02*
D03*
X7305000Y1451976D02*
D03*
X8065000Y1442025D02*
D03*
X9030000Y1470000D02*
D03*
X9244256Y1875000D02*
D03*
X8700000Y3271508D02*
D03*
X7195000Y2780000D02*
D03*
X6865000Y3110000D02*
D03*
X7905000Y4583191D02*
D03*
X8140000Y2230000D02*
D03*
X4320000Y1515000D02*
D03*
X5160000Y2480000D02*
D03*
X5190000Y2435000D02*
D03*
X6505000Y2430000D02*
D03*
X8215000Y2915000D02*
D03*
X8255000Y2395000D02*
D03*
X9290000Y3060000D02*
D03*
X4150000Y4140000D02*
D03*
X4000000Y4415000D02*
D03*
X2185000Y4385000D02*
D03*
X2237000Y3165000D02*
D03*
X2895000Y4465000D02*
D03*
X5495000Y4400000D02*
D03*
X5400000Y4425000D02*
D03*
X5470000Y4505000D02*
D03*
X5425000Y4468431D02*
D03*
X6970000Y4805000D02*
D03*
X7045000Y4415000D02*
D03*
X7135000Y4470000D02*
D03*
X7860000Y4530000D02*
D03*
X8810000Y4385000D02*
D03*
X9225000Y4420000D02*
D03*
X8765000Y4465000D02*
D03*
X8645000Y2384000D02*
D03*
X8565000Y2340000D02*
D03*
X8600000Y2140000D02*
D03*
X8675000Y2305000D02*
D03*
X6545000Y2475000D02*
D03*
X5595000Y2720000D02*
D03*
X6695174Y2470000D02*
D03*
X9355000Y3173032D02*
D03*
X9287426Y3117426D02*
D03*
X3715000Y4465000D02*
D03*
X1940000Y4700000D02*
D03*
X2095000Y4510000D02*
D03*
X2035000Y4475000D02*
D03*
X3775000Y4560000D02*
D03*
X4656569Y4555000D02*
D03*
X4199370Y2120000D02*
D03*
X1980000Y2305000D02*
D03*
X3970000Y2065000D02*
D03*
X4430000Y2120000D02*
D03*
X7655000Y2985000D02*
D03*
X7560000Y2885000D02*
D03*
X6910000Y2955000D02*
D03*
X1904000Y3303732D02*
D03*
X1905000Y3215000D02*
D03*
X1160000Y1235000D02*
D03*
X2730000Y1100000D02*
D03*
X2845000D02*
D03*
X7830000Y1305000D02*
D03*
X6010000Y1515000D02*
D03*
X5465000D02*
D03*
X5340000Y1420000D02*
D03*
X5180000Y1510000D02*
D03*
X5265000Y1295000D02*
D03*
X8810000Y1730000D02*
D03*
X9410000Y1740000D02*
D03*
X6880000Y1515000D02*
D03*
X7605000Y1735000D02*
D03*
X9075000Y1740000D02*
D03*
X8935000Y1725000D02*
D03*
X6225000Y1702336D02*
D03*
X7910000Y1351569D02*
D03*
X2090000Y2665000D02*
D03*
X2365000D02*
D03*
X3630000Y2670000D02*
D03*
X4185000D02*
D03*
X4870000Y2655630D02*
D03*
X5020000Y2650000D02*
D03*
X5595000D02*
D03*
X6700000Y2430000D02*
D03*
X5020000Y2735000D02*
D03*
X4870000Y2730000D02*
D03*
X4175000D02*
D03*
X3635000D02*
D03*
X2365000Y2715000D02*
D03*
X2090000Y2720000D02*
D03*
X1820000Y2795000D02*
D03*
X6254874Y3506508D02*
D03*
X6170000Y3815000D02*
D03*
X6624874Y3506508D02*
D03*
X9445000Y2605000D02*
D03*
X8980000Y4495000D02*
D03*
X8650000Y3815000D02*
D03*
X8550000Y4535000D02*
D03*
X8870000Y3875000D02*
D03*
X5705000Y2890000D02*
D03*
X5025000Y2915000D02*
D03*
X3600000Y2920000D02*
D03*
X5364608Y2980000D02*
D03*
X5374874Y3271508D02*
D03*
X4925000Y2575000D02*
D03*
X3475000Y2460000D02*
D03*
X3070000Y1855000D02*
D03*
X4990000Y2515000D02*
D03*
X3610000D02*
D03*
X2840000Y1850000D02*
D03*
X2785000Y1700000D02*
D03*
X2930000Y1635000D02*
D03*
X9315000Y2325000D02*
D03*
X5825000Y2860000D02*
D03*
X5770000Y2990000D02*
D03*
X5784874Y3441508D02*
D03*
X5125000Y2400000D02*
D03*
X5110000Y2260000D02*
D03*
X6409874Y3426508D02*
D03*
X6540000Y3585000D02*
D03*
X6425000Y2260000D02*
D03*
X2745000Y4555000D02*
D03*
X7279874Y3126508D02*
D03*
X7400000Y3665000D02*
D03*
X7055000Y3835000D02*
D03*
X7190000Y3860000D02*
D03*
X7540000Y3840000D02*
D03*
X5055000Y2340000D02*
D03*
X6535000Y3635000D02*
D03*
Y3685000D02*
D03*
X6530000Y3735000D02*
D03*
X5689874Y3446508D02*
D03*
X5695174Y2996486D02*
D03*
X9480000Y4335000D02*
D03*
X9490000Y4460000D02*
D03*
X9070000Y4350000D02*
D03*
X8400000Y3470000D02*
D03*
X8125000Y3235000D02*
D03*
X7740000Y2640000D02*
D03*
X7875000Y2645000D02*
D03*
X7900000Y2410000D02*
D03*
X2735000Y4675000D02*
D03*
X2960000Y4528431D02*
D03*
X3545000Y4523000D02*
D03*
X5240000Y4135000D02*
D03*
X5364608Y4175000D02*
D03*
X6360000Y4575000D02*
D03*
X5145000Y4220000D02*
D03*
X5280000Y4770000D02*
D03*
X4795000Y4205000D02*
D03*
X4740079Y4535079D02*
D03*
X4210000Y3885000D02*
D03*
X2950000Y4590000D02*
D03*
X4165000Y3955000D02*
D03*
X4430000Y4690000D02*
D03*
X3570000Y4650000D02*
D03*
X3780000Y4640000D02*
D03*
X4685000Y4470000D02*
D03*
X4435000D02*
D03*
X6135000Y4530000D02*
D03*
X6295000Y4615000D02*
D03*
X7000000Y4700000D02*
D03*
X7176789Y4531642D02*
D03*
X8050000Y4535000D02*
D03*
X8065000Y4605000D02*
D03*
X8050000Y4475000D02*
D03*
X5240000Y4470000D02*
D03*
X3715000Y4285000D02*
D03*
X1905000Y4290000D02*
D03*
X3745000Y4225000D02*
D03*
X1905000Y4230000D02*
D03*
X4170000Y4035000D02*
D03*
X1885000Y4775000D02*
D03*
X6025000Y4220000D02*
D03*
X6225000Y4415000D02*
D03*
X8115000Y4325000D02*
D03*
X7265000D02*
D03*
X8660000Y4365000D02*
D03*
X8690000Y4765000D02*
D03*
X7705000Y4370000D02*
D03*
X7840000Y4790000D02*
D03*
X7205000Y4595000D02*
D03*
X6130000Y4775000D02*
D03*
X5475000Y4570000D02*
D03*
X1275000Y4505000D02*
D03*
X3795000Y4295000D02*
D03*
X2105000Y4600000D02*
D03*
X3930000Y4360000D02*
D03*
X2695000Y4345000D02*
D03*
X3875000Y4505000D02*
D03*
X1895000Y4465000D02*
D03*
X2745000Y4475000D02*
D03*
X6115000Y4470000D02*
D03*
X6315000Y4475000D02*
D03*
X6970000D02*
D03*
X7855000Y4480000D02*
D03*
X8855000Y4465000D02*
D03*
X3742000Y2404000D02*
D03*
X3996000Y2384000D02*
D03*
X2122000Y3371000D02*
D03*
X1935000Y3346000D02*
D03*
X4037000Y2033000D02*
D03*
X3825000Y2125000D02*
D03*
X4093000Y2075000D02*
D03*
X4000000Y1966252D02*
D03*
X3691000Y2248000D02*
D03*
X3808000Y2201000D02*
D03*
X6629000Y1706000D02*
D03*
X2270000Y2145000D02*
D03*
X1885000Y3090000D02*
D03*
X3790000Y1985000D02*
D03*
Y1920000D02*
D03*
X1845000Y2990000D02*
D03*
X1825000Y2885000D02*
D03*
X3655000Y1830000D02*
D03*
X3520000Y1745000D02*
D03*
X2135000Y2435000D02*
D03*
X2195000Y2305000D02*
D03*
X2200000Y2555000D02*
D03*
X2253284Y2430000D02*
D03*
X1355000Y1610000D02*
D03*
X1710000Y1470000D02*
D03*
X2200000Y1695000D02*
D03*
X2035000Y1200000D02*
D03*
X2575000Y1470000D02*
D03*
X3095000Y1705000D02*
D03*
X2900000Y1195000D02*
D03*
X3450000Y1470000D02*
D03*
X3755000Y1195000D02*
D03*
X4270000Y1470000D02*
D03*
X4610000Y1220000D02*
D03*
X5140000Y1470000D02*
D03*
X6929874Y3306508D02*
D03*
X6954874Y3058408D02*
D03*
X5485000Y1250000D02*
D03*
X5975000Y1470000D02*
D03*
X6335000Y1225000D02*
D03*
X6840000Y1470000D02*
D03*
X8565000Y1555000D02*
D03*
X8070000Y1705000D02*
D03*
X8030000Y1220000D02*
D03*
X8210000Y1555000D02*
D03*
X7679134Y1496569D02*
D03*
X7375000Y1700000D02*
D03*
X7170000Y1210000D02*
D03*
X9025000Y1955000D02*
D03*
X8205000Y1705000D02*
D03*
X1810000Y1505000D02*
D03*
X1990000Y1515000D02*
D03*
X2675000D02*
D03*
X2880000D02*
D03*
X8000000Y1485000D02*
D03*
X7230000Y1495000D02*
D03*
X6310000Y1510000D02*
D03*
X4590000Y1515000D02*
D03*
X3545000D02*
D03*
X3718432Y1510000D02*
D03*
X6215000Y1325000D02*
D03*
X6140000Y1285000D02*
D03*
X7740000Y1550000D02*
D03*
X3700000Y1585000D02*
D03*
X2740000Y1270000D02*
D03*
X2795000Y1335000D02*
D03*
X7065000Y1325000D02*
D03*
X6985000Y1295000D02*
D03*
X8685000D02*
D03*
X8780000Y1340000D02*
D03*
X8215000Y2465000D02*
D03*
D40*
X9552315Y3070756D02*
D03*
Y3165244D02*
D03*
D41*
Y2983157D02*
D03*
Y3252843D02*
D03*
D42*
X9455858Y2992016D02*
D03*
Y3243984D02*
D03*
D43*
X9447000Y3066819D02*
D03*
Y3092409D02*
D03*
Y3118000D02*
D03*
Y3143590D02*
D03*
Y3169181D02*
D03*
%TF.MD5,f25e24833ece417cf20304f3448b70bb*%
M02*
