%TF.GenerationSoftware,Altium Limited,Altium Designer,18.1.9 (240)*%
G04 Layer_Color=255*
%FSLAX26Y26*%
%MOIN*%
%TF.FileFunction,Pads,Top*%
%TF.Part,Single*%
G01*
G75*
%TA.AperFunction,SMDPad,CuDef*%
%ADD10R,0.019291X0.064961*%
%ADD11R,0.045276X0.053150*%
%ADD12R,0.051181X0.055118*%
%ADD13R,0.039370X0.035433*%
%ADD14R,0.214567X0.137795*%
%ADD15R,0.035433X0.074803*%
%ADD16R,0.035433X0.031496*%
%ADD17R,0.053150X0.045276*%
%ADD18R,0.053150X0.057087*%
%ADD19O,0.023622X0.057087*%
%ADD20R,0.051181X0.043307*%
%ADD21R,0.035433X0.039370*%
%ADD22R,0.033465X0.037402*%
%ADD23R,0.074803X0.074803*%
%TA.AperFunction,ConnectorPad*%
%ADD24R,0.057087X0.051181*%
%ADD25R,0.062992X0.055118*%
%ADD26R,0.015748X0.053150*%
%TA.AperFunction,SMDPad,CuDef*%
%ADD27O,0.057087X0.023622*%
%ADD28R,0.055118X0.051181*%
%ADD29R,0.043307X0.051181*%
%ADD30R,0.045276X0.080709*%
%ADD31R,0.080709X0.045276*%
%TA.AperFunction,ConnectorPad*%
%ADD32R,0.045276X0.080709*%
%ADD33R,0.080709X0.045276*%
%TA.AperFunction,SMDPad,CuDef*%
%ADD34R,0.094488X0.029921*%
%TA.AperFunction,ConnectorPad*%
%ADD35R,0.035433X0.039370*%
%TA.AperFunction,SMDPad,CuDef*%
%ADD36R,0.053150X0.011811*%
%ADD37R,0.011811X0.053150*%
%ADD38R,0.037402X0.049213*%
%TA.AperFunction,ViaPad*%
%ADD42C,0.196850*%
%TA.AperFunction,ComponentPad*%
%ADD43C,0.103937*%
%ADD44C,0.110236*%
%ADD45R,0.103937X0.103937*%
%ADD46C,0.196850*%
%ADD47C,0.086614*%
D10*
X6575787Y6123032D02*
D03*
X6550197D02*
D03*
X6524606D02*
D03*
X6499016D02*
D03*
X6473425D02*
D03*
X6447835D02*
D03*
X6422244D02*
D03*
X6396654D02*
D03*
X6371063D02*
D03*
X6345472D02*
D03*
X6319882D02*
D03*
X6294291D02*
D03*
X6268701D02*
D03*
X6243110D02*
D03*
X6575787Y5837599D02*
D03*
X6550197D02*
D03*
X6524606D02*
D03*
X6499016D02*
D03*
X6473425D02*
D03*
X6447835D02*
D03*
X6422244D02*
D03*
X6396654D02*
D03*
X6371063D02*
D03*
X6345472D02*
D03*
X6319882D02*
D03*
X6294291D02*
D03*
X6268701D02*
D03*
X6243110D02*
D03*
D11*
X4825787Y6375985D02*
D03*
X4756889D02*
D03*
X4825787Y6279528D02*
D03*
X4756889D02*
D03*
X5865355Y5479499D02*
D03*
X5796457D02*
D03*
X6211614Y4728346D02*
D03*
X6142717D02*
D03*
X3955711Y4787401D02*
D03*
X4024607D02*
D03*
X3955709Y5023622D02*
D03*
X4024607D02*
D03*
X3955709Y5129921D02*
D03*
X4024607D02*
D03*
X3955709Y5366141D02*
D03*
X4024607D02*
D03*
X3955711Y5472439D02*
D03*
X4024607D02*
D03*
X3955709Y5708661D02*
D03*
X4024607D02*
D03*
X3955709Y5814961D02*
D03*
X4024607D02*
D03*
X3955709Y6051181D02*
D03*
X4024607D02*
D03*
X3955709Y6157480D02*
D03*
X4024607D02*
D03*
X3955709Y6393701D02*
D03*
X4024607D02*
D03*
X4825788Y6181102D02*
D03*
X4756890D02*
D03*
X4825787Y6082677D02*
D03*
X4756889D02*
D03*
X4825788Y5984252D02*
D03*
X4756890D02*
D03*
X4825787Y5893701D02*
D03*
X4756889D02*
D03*
X4825788Y5785433D02*
D03*
X4756890D02*
D03*
X4825787Y5687009D02*
D03*
X4756891D02*
D03*
X4825787Y5588583D02*
D03*
X4756891D02*
D03*
X4825787Y5490157D02*
D03*
X4756889D02*
D03*
D12*
X6012177Y5479498D02*
D03*
X5949185D02*
D03*
X6015945Y5089399D02*
D03*
X5952953D02*
D03*
D13*
X5736221Y5867126D02*
D03*
Y5920276D02*
D03*
X6106299Y6062009D02*
D03*
Y6008859D02*
D03*
X5248032Y4665354D02*
D03*
Y4612204D02*
D03*
D14*
X6224409Y5236221D02*
D03*
Y5442914D02*
D03*
D15*
X6134843Y5086615D02*
D03*
X6306103D02*
D03*
D16*
X6216535Y4907481D02*
D03*
Y4982283D02*
D03*
X6137796Y4944881D02*
D03*
X5622046Y4726378D02*
D03*
Y4651574D02*
D03*
X5700788Y4688976D02*
D03*
X4913387Y6381890D02*
D03*
Y6307088D02*
D03*
X4992127Y6344488D02*
D03*
X4913387Y6187007D02*
D03*
Y6112205D02*
D03*
X4992127Y6149605D02*
D03*
X4913386Y5990157D02*
D03*
Y5915355D02*
D03*
X4992126Y5952755D02*
D03*
X4913386Y5791339D02*
D03*
Y5716537D02*
D03*
X4992126Y5753937D02*
D03*
X4913386Y5594488D02*
D03*
Y5519686D02*
D03*
X4992126Y5557086D02*
D03*
D17*
X6314961Y4979331D02*
D03*
Y4910433D02*
D03*
X5633858Y5701771D02*
D03*
Y5770669D02*
D03*
X5539370Y5701772D02*
D03*
Y5770670D02*
D03*
X6799213Y6053149D02*
D03*
Y6122047D02*
D03*
X6681103Y6052165D02*
D03*
Y6121063D02*
D03*
X4764596Y4538417D02*
D03*
Y4469521D02*
D03*
X4108269Y5366141D02*
D03*
Y5297243D02*
D03*
X4108269Y4787401D02*
D03*
Y4856300D02*
D03*
X4108269Y5023622D02*
D03*
Y4954724D02*
D03*
X4108269Y5129923D02*
D03*
Y5198819D02*
D03*
Y5472441D02*
D03*
Y5541339D02*
D03*
X4108267Y5814961D02*
D03*
Y5883859D02*
D03*
X4108269Y5708661D02*
D03*
Y5639763D02*
D03*
X4108267Y6051181D02*
D03*
Y5982283D02*
D03*
Y6157480D02*
D03*
Y6226378D02*
D03*
Y6393700D02*
D03*
Y6324802D02*
D03*
D18*
X6258858Y4818897D02*
D03*
X6142717D02*
D03*
D19*
X5870079Y5177165D02*
D03*
X5920079D02*
D03*
X5970079D02*
D03*
X6020079D02*
D03*
X5870079Y5391731D02*
D03*
X5920079D02*
D03*
X5970079D02*
D03*
X6020079D02*
D03*
D20*
X5795473Y5327924D02*
D03*
Y5237372D02*
D03*
X6799213Y5970472D02*
D03*
Y5879920D02*
D03*
X6681103Y5970472D02*
D03*
Y5879921D02*
D03*
D21*
X5447834Y5755905D02*
D03*
X5394685D02*
D03*
D22*
X6005906Y5937007D02*
D03*
X5954724D02*
D03*
X5545275Y4787402D02*
D03*
X5494095D02*
D03*
X5879921Y6295275D02*
D03*
X5828741D02*
D03*
D23*
X6214567Y6416339D02*
D03*
X6309055D02*
D03*
D24*
X6126969D02*
D03*
X6396654D02*
D03*
D25*
X6135827Y6319882D02*
D03*
X6387795D02*
D03*
D26*
X6210630Y6311024D02*
D03*
X6236221D02*
D03*
X6261811D02*
D03*
X6287402D02*
D03*
X6312992D02*
D03*
D27*
X5544292Y4566732D02*
D03*
Y4616732D02*
D03*
Y4666732D02*
D03*
Y4716732D02*
D03*
X5329724Y4566732D02*
D03*
Y4616732D02*
D03*
Y4666732D02*
D03*
Y4716732D02*
D03*
X4854164Y4689371D02*
D03*
Y4639371D02*
D03*
Y4589371D02*
D03*
Y4539371D02*
D03*
X5068730Y4689371D02*
D03*
Y4639371D02*
D03*
Y4589371D02*
D03*
Y4539371D02*
D03*
X4197835Y5010039D02*
D03*
Y4960039D02*
D03*
Y4910039D02*
D03*
Y4860039D02*
D03*
X4412403Y5010039D02*
D03*
Y4960039D02*
D03*
Y4910039D02*
D03*
Y4860039D02*
D03*
X4197835Y5352559D02*
D03*
Y5302559D02*
D03*
Y5252559D02*
D03*
Y5202559D02*
D03*
X4412401Y5352559D02*
D03*
Y5302559D02*
D03*
Y5252559D02*
D03*
Y5202559D02*
D03*
X4197833Y5695079D02*
D03*
Y5645079D02*
D03*
Y5595079D02*
D03*
Y5545079D02*
D03*
X4412401Y5695079D02*
D03*
Y5645079D02*
D03*
Y5595079D02*
D03*
Y5545079D02*
D03*
Y5887599D02*
D03*
Y5937599D02*
D03*
Y5987599D02*
D03*
Y6037599D02*
D03*
X4197835Y5887599D02*
D03*
Y5937599D02*
D03*
Y5987599D02*
D03*
Y6037599D02*
D03*
Y6380116D02*
D03*
Y6330116D02*
D03*
Y6280116D02*
D03*
Y6230116D02*
D03*
X4412403Y6380116D02*
D03*
Y6330116D02*
D03*
Y6280116D02*
D03*
Y6230116D02*
D03*
D28*
X5156497Y4689175D02*
D03*
Y4626181D02*
D03*
X4766397Y4685236D02*
D03*
Y4622244D02*
D03*
X4511809Y5710631D02*
D03*
Y5647639D02*
D03*
X4511811Y5470473D02*
D03*
Y5533465D02*
D03*
Y5368109D02*
D03*
Y5305117D02*
D03*
X4511810Y5127953D02*
D03*
Y5190945D02*
D03*
X4511811Y5025590D02*
D03*
Y4962597D02*
D03*
Y4785431D02*
D03*
Y4848423D02*
D03*
Y5812993D02*
D03*
Y5875984D02*
D03*
Y6053149D02*
D03*
Y5990157D02*
D03*
X4511809Y6155512D02*
D03*
Y6218504D02*
D03*
X4511811Y6395668D02*
D03*
Y6332676D02*
D03*
D29*
X4919292Y4468503D02*
D03*
X5009842D02*
D03*
X6279528Y4728346D02*
D03*
X6370079D02*
D03*
D30*
X6330709Y4818898D02*
D03*
X6043307D02*
D03*
X5244095Y4751968D02*
D03*
D31*
X6224409Y5610236D02*
D03*
X5909449Y4724409D02*
D03*
Y4645669D02*
D03*
X5744095Y5751968D02*
D03*
Y5614173D02*
D03*
X6480315Y6496063D02*
D03*
D32*
X5240158Y4456693D02*
D03*
D33*
X6740158Y6496063D02*
D03*
D34*
X6005905Y6010236D02*
D03*
X5852361D02*
D03*
X6005905Y6060236D02*
D03*
X5852361D02*
D03*
X6005905Y6110236D02*
D03*
X5852361D02*
D03*
X6005905Y6160236D02*
D03*
X5852361D02*
D03*
X6005905Y6210236D02*
D03*
X5852361D02*
D03*
D35*
X5367126Y6409449D02*
D03*
X5420276D02*
D03*
X5534450Y6409449D02*
D03*
X5481300D02*
D03*
D36*
X5663386Y6250000D02*
D03*
Y6230315D02*
D03*
Y6210630D02*
D03*
Y6190945D02*
D03*
Y6171260D02*
D03*
Y6151575D02*
D03*
Y6131890D02*
D03*
Y6112205D02*
D03*
Y6092520D02*
D03*
Y6072835D02*
D03*
Y6053150D02*
D03*
Y6033465D02*
D03*
Y6013780D02*
D03*
Y5994095D02*
D03*
Y5974409D02*
D03*
Y5954725D02*
D03*
X5210630D02*
D03*
Y5974409D02*
D03*
Y5994095D02*
D03*
Y6013780D02*
D03*
Y6033465D02*
D03*
Y6053150D02*
D03*
Y6072835D02*
D03*
Y6092520D02*
D03*
Y6112205D02*
D03*
Y6131890D02*
D03*
Y6151575D02*
D03*
Y6171260D02*
D03*
Y6190945D02*
D03*
Y6210630D02*
D03*
Y6230315D02*
D03*
Y6250000D02*
D03*
D37*
X5584646Y5875984D02*
D03*
X5564961D02*
D03*
X5545276D02*
D03*
X5525591D02*
D03*
X5505906D02*
D03*
X5486221D02*
D03*
X5466535D02*
D03*
X5446850D02*
D03*
X5427165D02*
D03*
X5407480D02*
D03*
X5387795D02*
D03*
X5368110D02*
D03*
X5348425D02*
D03*
X5328740D02*
D03*
X5309055D02*
D03*
X5289370D02*
D03*
Y6328740D02*
D03*
X5309055D02*
D03*
X5328740D02*
D03*
X5348425D02*
D03*
X5368110D02*
D03*
X5387795D02*
D03*
X5407480D02*
D03*
X5427165D02*
D03*
X5446850D02*
D03*
X5466535D02*
D03*
X5486221D02*
D03*
X5505906D02*
D03*
X5525591D02*
D03*
X5545276D02*
D03*
X5564961D02*
D03*
X5584646D02*
D03*
D38*
X5160434Y5224408D02*
D03*
X5099410D02*
D03*
D42*
X6594488Y6366142D02*
D03*
Y4555118D02*
D03*
X3417323Y4594488D02*
D03*
Y6326772D02*
D03*
D43*
X6749094Y5404567D02*
D03*
Y5045512D02*
D03*
X6573897D02*
D03*
D44*
X6661417Y5635039D02*
D03*
Y4814961D02*
D03*
D45*
X6573897Y5404567D02*
D03*
D46*
X3090551Y4814961D02*
D03*
Y6094488D02*
D03*
D47*
X3346457Y5809055D02*
D03*
Y5690945D02*
D03*
Y5572835D02*
D03*
Y5454724D02*
D03*
Y5336614D02*
D03*
Y5218504D02*
D03*
Y5100394D02*
D03*
X3444882Y5750000D02*
D03*
Y5631890D02*
D03*
Y5513779D02*
D03*
Y5395669D02*
D03*
Y5277559D02*
D03*
Y5159449D02*
D03*
X3562992Y5750000D02*
D03*
Y5631890D02*
D03*
Y5513779D02*
D03*
Y5395669D02*
D03*
Y5277559D02*
D03*
Y5159449D02*
D03*
X3661417Y5809055D02*
D03*
Y5690945D02*
D03*
Y5572835D02*
D03*
Y5454724D02*
D03*
Y5336614D02*
D03*
Y5218504D02*
D03*
Y5100394D02*
D03*
%TF.MD5,a588637948468ee412925c593971a49a*%
M02*
