G04*
G04 #@! TF.GenerationSoftware,Altium Limited,Altium Designer,18.1.9 (240)*
G04*
G04 Layer_Color=8421504*
%FSLAX25Y25*%
%MOIN*%
G70*
G01*
G75*
%ADD10R,0.05118X0.04331*%
%ADD11R,0.05118X0.05512*%
%ADD12R,0.05906X0.07874*%
%ADD13R,0.14961X0.07874*%
%ADD14R,0.05512X0.05118*%
%ADD15R,0.04528X0.05315*%
%ADD16R,0.07874X0.05906*%
%ADD17R,0.07874X0.14961*%
%ADD18R,0.01929X0.06496*%
%ADD19R,0.03937X0.03543*%
%ADD20R,0.21457X0.13780*%
%ADD21R,0.03543X0.07480*%
%ADD22R,0.03543X0.03150*%
%ADD23R,0.05315X0.04528*%
%ADD24R,0.05315X0.05709*%
%ADD25R,0.03543X0.03937*%
%ADD26R,0.03347X0.03740*%
%ADD27R,0.07480X0.07480*%
%ADD28R,0.05709X0.05118*%
%ADD29R,0.06299X0.05512*%
%ADD30R,0.01575X0.05315*%
%ADD31O,0.05709X0.02362*%
%ADD32R,0.04331X0.05118*%
%ADD33R,0.04528X0.08071*%
%ADD34R,0.08071X0.04528*%
%ADD35R,0.09449X0.02992*%
%ADD36R,0.05315X0.01181*%
%ADD37R,0.01181X0.05315*%
%ADD38R,0.03740X0.04921*%
D10*
X431496Y455118D02*
D03*
Y464173D02*
D03*
X570472Y548228D02*
D03*
Y539173D02*
D03*
X679921Y597047D02*
D03*
Y587992D02*
D03*
X668110Y597047D02*
D03*
Y587992D02*
D03*
D11*
X409449Y466142D02*
D03*
X415748D02*
D03*
X601218Y547950D02*
D03*
X594918D02*
D03*
X570472Y528740D02*
D03*
X576772D02*
D03*
X514173Y472441D02*
D03*
X507874D02*
D03*
X514173Y463386D02*
D03*
X507874D02*
D03*
D12*
X603937Y535630D02*
D03*
X594882D02*
D03*
X585827D02*
D03*
D13*
X594882Y510827D02*
D03*
D14*
X410236Y455512D02*
D03*
Y449213D02*
D03*
X451181Y571063D02*
D03*
Y564764D02*
D03*
X451181Y547047D02*
D03*
Y553346D02*
D03*
Y536811D02*
D03*
Y530512D02*
D03*
X451181Y512795D02*
D03*
Y519095D02*
D03*
X451181Y502559D02*
D03*
Y496260D02*
D03*
Y478543D02*
D03*
Y484842D02*
D03*
Y581299D02*
D03*
Y587598D02*
D03*
Y605315D02*
D03*
Y599016D02*
D03*
X451181Y615551D02*
D03*
Y621850D02*
D03*
X451181Y639567D02*
D03*
Y633268D02*
D03*
D15*
X423917Y455512D02*
D03*
X417028D02*
D03*
X482579Y637599D02*
D03*
X475689D02*
D03*
X482579Y627953D02*
D03*
X475689D02*
D03*
X586536Y547950D02*
D03*
X579646D02*
D03*
X621161Y472835D02*
D03*
X614272D02*
D03*
X395571Y478740D02*
D03*
X402461D02*
D03*
X395571Y502362D02*
D03*
X402461D02*
D03*
X395571Y512992D02*
D03*
X402461D02*
D03*
X395571Y536614D02*
D03*
X402461D02*
D03*
X395571Y547244D02*
D03*
X402461D02*
D03*
X395571Y570866D02*
D03*
X402461D02*
D03*
X395571Y581496D02*
D03*
X402461D02*
D03*
X395571Y605118D02*
D03*
X402461D02*
D03*
X395571Y615748D02*
D03*
X402461D02*
D03*
X395571Y639370D02*
D03*
X402461D02*
D03*
X482579Y618110D02*
D03*
X475689D02*
D03*
X482579Y608268D02*
D03*
X475689D02*
D03*
X482579Y598425D02*
D03*
X475689D02*
D03*
X482579Y589370D02*
D03*
X475689D02*
D03*
X482579Y578543D02*
D03*
X475689D02*
D03*
X482579Y568701D02*
D03*
X475689D02*
D03*
X482579Y558858D02*
D03*
X475689D02*
D03*
X482579Y549016D02*
D03*
X475689D02*
D03*
D16*
X490354Y454331D02*
D03*
Y463386D02*
D03*
Y472441D02*
D03*
X400984Y448032D02*
D03*
Y457087D02*
D03*
Y466142D02*
D03*
D17*
X465551Y463386D02*
D03*
X376181Y457087D02*
D03*
D18*
X657579Y612303D02*
D03*
X655020D02*
D03*
X652461D02*
D03*
X649902D02*
D03*
X647342D02*
D03*
X644783D02*
D03*
X642224D02*
D03*
X639665D02*
D03*
X637106D02*
D03*
X634547D02*
D03*
X631988D02*
D03*
X629429D02*
D03*
X626870D02*
D03*
X624311D02*
D03*
X657579Y583760D02*
D03*
X655020D02*
D03*
X652461D02*
D03*
X649902D02*
D03*
X647342D02*
D03*
X644783D02*
D03*
X642224D02*
D03*
X639665D02*
D03*
X637106D02*
D03*
X634547D02*
D03*
X631988D02*
D03*
X629429D02*
D03*
X626870D02*
D03*
X624311D02*
D03*
D19*
X573622Y586713D02*
D03*
Y592028D02*
D03*
X610630Y606201D02*
D03*
Y600886D02*
D03*
X524803Y466535D02*
D03*
Y461220D02*
D03*
D20*
X622441Y523622D02*
D03*
Y544291D02*
D03*
D21*
X613484Y508662D02*
D03*
X630610D02*
D03*
D22*
X621654Y490748D02*
D03*
Y498228D02*
D03*
X613780Y494488D02*
D03*
X562205Y472638D02*
D03*
Y465157D02*
D03*
X570079Y468898D02*
D03*
X491339Y638189D02*
D03*
Y630709D02*
D03*
X499213Y634449D02*
D03*
X491339Y618701D02*
D03*
Y611221D02*
D03*
X499213Y614960D02*
D03*
X491339Y599016D02*
D03*
Y591536D02*
D03*
X499213Y595275D02*
D03*
X491339Y579134D02*
D03*
Y571654D02*
D03*
X499213Y575394D02*
D03*
X491339Y559449D02*
D03*
Y551969D02*
D03*
X499213Y555709D02*
D03*
D23*
X631496Y497933D02*
D03*
Y491043D02*
D03*
X563386Y570177D02*
D03*
Y577067D02*
D03*
X553937Y570177D02*
D03*
Y577067D02*
D03*
X679921Y605315D02*
D03*
Y612205D02*
D03*
X668110Y605217D02*
D03*
Y612106D02*
D03*
X499213Y462106D02*
D03*
Y455217D02*
D03*
X410827Y536614D02*
D03*
Y529724D02*
D03*
X410827Y478740D02*
D03*
Y485630D02*
D03*
X410827Y502362D02*
D03*
Y495472D02*
D03*
X410827Y512992D02*
D03*
Y519882D02*
D03*
Y547244D02*
D03*
Y554134D02*
D03*
X410827Y581496D02*
D03*
Y588386D02*
D03*
X410827Y570866D02*
D03*
Y563976D02*
D03*
X410827Y605118D02*
D03*
Y598228D02*
D03*
Y615748D02*
D03*
Y622638D02*
D03*
Y639370D02*
D03*
Y632480D02*
D03*
D24*
X625886Y481890D02*
D03*
X614272D02*
D03*
D25*
X544783Y575591D02*
D03*
X539468D02*
D03*
X536713Y640945D02*
D03*
X542028D02*
D03*
X553445Y640945D02*
D03*
X548130D02*
D03*
D26*
X600591Y593701D02*
D03*
X595472D02*
D03*
X554528Y478740D02*
D03*
X549409D02*
D03*
X587992Y629528D02*
D03*
X582874D02*
D03*
D27*
X621457Y641634D02*
D03*
X630905D02*
D03*
D28*
X612697D02*
D03*
X639665D02*
D03*
D29*
X613583Y631988D02*
D03*
X638779D02*
D03*
D30*
X621063Y631102D02*
D03*
X623622D02*
D03*
X626181D02*
D03*
X628740D02*
D03*
X631299D02*
D03*
D31*
X554429Y456673D02*
D03*
Y461673D02*
D03*
Y466673D02*
D03*
Y471673D02*
D03*
X532972Y456673D02*
D03*
Y461673D02*
D03*
Y466673D02*
D03*
Y471673D02*
D03*
X419783Y501004D02*
D03*
Y496004D02*
D03*
Y491004D02*
D03*
Y486004D02*
D03*
X441240Y501004D02*
D03*
Y496004D02*
D03*
Y491004D02*
D03*
Y486004D02*
D03*
X419783Y535256D02*
D03*
Y530256D02*
D03*
Y525256D02*
D03*
Y520256D02*
D03*
X441240Y535256D02*
D03*
Y530256D02*
D03*
Y525256D02*
D03*
Y520256D02*
D03*
X419783Y569508D02*
D03*
Y564508D02*
D03*
Y559508D02*
D03*
Y554508D02*
D03*
X441240Y569508D02*
D03*
Y564508D02*
D03*
Y559508D02*
D03*
Y554508D02*
D03*
Y588760D02*
D03*
Y593760D02*
D03*
Y598760D02*
D03*
Y603760D02*
D03*
X419783Y588760D02*
D03*
Y593760D02*
D03*
Y598760D02*
D03*
Y603760D02*
D03*
Y638012D02*
D03*
Y633012D02*
D03*
Y628012D02*
D03*
Y623012D02*
D03*
X441240Y638012D02*
D03*
Y633012D02*
D03*
Y628012D02*
D03*
Y623012D02*
D03*
D32*
X507283Y455118D02*
D03*
X516338D02*
D03*
X627953Y472835D02*
D03*
X637008D02*
D03*
D33*
X633071Y481890D02*
D03*
X604331D02*
D03*
X524016Y445669D02*
D03*
X524409Y475197D02*
D03*
D34*
X622441Y561024D02*
D03*
X590945Y472441D02*
D03*
Y464567D02*
D03*
X574409Y575197D02*
D03*
Y561417D02*
D03*
X648032Y649606D02*
D03*
X674016D02*
D03*
D35*
X600591Y601024D02*
D03*
X585236D02*
D03*
X600591Y606024D02*
D03*
X585236D02*
D03*
X600591Y611024D02*
D03*
X585236D02*
D03*
X600591Y616024D02*
D03*
X585236D02*
D03*
X600591Y621024D02*
D03*
X585236D02*
D03*
D36*
X566339Y625000D02*
D03*
Y623032D02*
D03*
Y621063D02*
D03*
Y619095D02*
D03*
Y617126D02*
D03*
Y615158D02*
D03*
Y613189D02*
D03*
Y611221D02*
D03*
Y609252D02*
D03*
Y607283D02*
D03*
Y605315D02*
D03*
Y603346D02*
D03*
Y601378D02*
D03*
Y599409D02*
D03*
Y597441D02*
D03*
Y595472D02*
D03*
X521063D02*
D03*
Y597441D02*
D03*
Y599409D02*
D03*
Y601378D02*
D03*
Y603346D02*
D03*
Y605315D02*
D03*
Y607283D02*
D03*
Y609252D02*
D03*
Y611221D02*
D03*
Y613189D02*
D03*
Y615158D02*
D03*
Y617126D02*
D03*
Y619095D02*
D03*
Y621063D02*
D03*
Y623032D02*
D03*
Y625000D02*
D03*
D37*
X558465Y587598D02*
D03*
X556496D02*
D03*
X554528D02*
D03*
X552559D02*
D03*
X550591D02*
D03*
X548622D02*
D03*
X546654D02*
D03*
X544685D02*
D03*
X542717D02*
D03*
X540748D02*
D03*
X538779D02*
D03*
X536811D02*
D03*
X534842D02*
D03*
X532874D02*
D03*
X530905D02*
D03*
X528937D02*
D03*
Y632874D02*
D03*
X530905D02*
D03*
X532874D02*
D03*
X534842D02*
D03*
X536811D02*
D03*
X538779D02*
D03*
X540748D02*
D03*
X542717D02*
D03*
X544685D02*
D03*
X546654D02*
D03*
X548622D02*
D03*
X550591D02*
D03*
X552559D02*
D03*
X554528D02*
D03*
X556496D02*
D03*
X558465D02*
D03*
D38*
X516043Y522441D02*
D03*
X509941D02*
D03*
M02*
