%TF.GenerationSoftware,Altium Limited,Altium Designer,18.1.9 (240)*%
G04 Layer_Color=2752767*
%FSLAX26Y26*%
%MOIN*%
%TF.FileFunction,Drawing*%
%TF.Part,Single*%
G01*
G75*
%TA.AperFunction,NonConductor*%
%ADD109C,0.005000*%
%ADD110C,0.006667*%
D109*
X6574488Y6346142D02*
Y6386142D01*
X6614488D01*
Y6346142D01*
X6574488D01*
Y4535118D02*
Y4575118D01*
X6614488D01*
Y4535118D01*
X6574488D01*
X3397323Y4574488D02*
Y4614488D01*
X3437323D01*
Y4574488D01*
X3397323D01*
Y6306772D02*
Y6346772D01*
X3437323D01*
Y6306772D01*
X3397323D01*
X6661417Y5615039D02*
X6641417Y5655039D01*
X6681417D01*
X6661417Y5615039D01*
Y4794961D02*
X6641417Y4834961D01*
X6681417D01*
X6661417Y4794961D01*
X3090551Y4794961D02*
X3100551Y4804961D01*
X3110551D01*
X3100551Y4814961D01*
X3110551Y4824961D01*
X3100551D01*
X3090551Y4834961D01*
X3080551Y4824961D01*
X3070551D01*
X3080551Y4814961D01*
X3070551Y4804961D01*
X3080551D01*
X3090551Y4794961D01*
X3326457Y5789055D02*
X3336457Y5809055D01*
X3326457Y5829055D01*
X3346457Y5819055D01*
X3366457Y5829055D01*
X3356457Y5809055D01*
X3366457Y5789055D01*
X3346457Y5799055D01*
X3326457Y5789055D01*
Y5670945D02*
X3336457Y5690945D01*
X3326457Y5710945D01*
X3346457Y5700945D01*
X3366457Y5710945D01*
X3356457Y5690945D01*
X3366457Y5670945D01*
X3346457Y5680945D01*
X3326457Y5670945D01*
Y5552835D02*
X3336457Y5572835D01*
X3326457Y5592835D01*
X3346457Y5582835D01*
X3366457Y5592835D01*
X3356457Y5572835D01*
X3366457Y5552835D01*
X3346457Y5562835D01*
X3326457Y5552835D01*
Y5434724D02*
X3336457Y5454724D01*
X3326457Y5474724D01*
X3346457Y5464724D01*
X3366457Y5474724D01*
X3356457Y5454724D01*
X3366457Y5434724D01*
X3346457Y5444724D01*
X3326457Y5434724D01*
Y5316614D02*
X3336457Y5336614D01*
X3326457Y5356614D01*
X3346457Y5346614D01*
X3366457Y5356614D01*
X3356457Y5336614D01*
X3366457Y5316614D01*
X3346457Y5326614D01*
X3326457Y5316614D01*
Y5198504D02*
X3336457Y5218504D01*
X3326457Y5238504D01*
X3346457Y5228504D01*
X3366457Y5238504D01*
X3356457Y5218504D01*
X3366457Y5198504D01*
X3346457Y5208504D01*
X3326457Y5198504D01*
Y5080394D02*
X3336457Y5100394D01*
X3326457Y5120394D01*
X3346457Y5110394D01*
X3366457Y5120394D01*
X3356457Y5100394D01*
X3366457Y5080394D01*
X3346457Y5090394D01*
X3326457Y5080394D01*
X3424882Y5730000D02*
X3434882Y5750000D01*
X3424882Y5770000D01*
X3444882Y5760000D01*
X3464882Y5770000D01*
X3454882Y5750000D01*
X3464882Y5730000D01*
X3444882Y5740000D01*
X3424882Y5730000D01*
Y5611890D02*
X3434882Y5631890D01*
X3424882Y5651890D01*
X3444882Y5641890D01*
X3464882Y5651890D01*
X3454882Y5631890D01*
X3464882Y5611890D01*
X3444882Y5621890D01*
X3424882Y5611890D01*
Y5493779D02*
X3434882Y5513779D01*
X3424882Y5533779D01*
X3444882Y5523779D01*
X3464882Y5533779D01*
X3454882Y5513779D01*
X3464882Y5493779D01*
X3444882Y5503779D01*
X3424882Y5493779D01*
Y5375669D02*
X3434882Y5395669D01*
X3424882Y5415669D01*
X3444882Y5405669D01*
X3464882Y5415669D01*
X3454882Y5395669D01*
X3464882Y5375669D01*
X3444882Y5385669D01*
X3424882Y5375669D01*
Y5257559D02*
X3434882Y5277559D01*
X3424882Y5297559D01*
X3444882Y5287559D01*
X3464882Y5297559D01*
X3454882Y5277559D01*
X3464882Y5257559D01*
X3444882Y5267559D01*
X3424882Y5257559D01*
Y5139449D02*
X3434882Y5159449D01*
X3424882Y5179449D01*
X3444882Y5169449D01*
X3464882Y5179449D01*
X3454882Y5159449D01*
X3464882Y5139449D01*
X3444882Y5149449D01*
X3424882Y5139449D01*
X3542992Y5730000D02*
X3552992Y5750000D01*
X3542992Y5770000D01*
X3562992Y5760000D01*
X3582992Y5770000D01*
X3572992Y5750000D01*
X3582992Y5730000D01*
X3562992Y5740000D01*
X3542992Y5730000D01*
Y5611890D02*
X3552992Y5631890D01*
X3542992Y5651890D01*
X3562992Y5641890D01*
X3582992Y5651890D01*
X3572992Y5631890D01*
X3582992Y5611890D01*
X3562992Y5621890D01*
X3542992Y5611890D01*
Y5493779D02*
X3552992Y5513779D01*
X3542992Y5533779D01*
X3562992Y5523779D01*
X3582992Y5533779D01*
X3572992Y5513779D01*
X3582992Y5493779D01*
X3562992Y5503779D01*
X3542992Y5493779D01*
Y5375669D02*
X3552992Y5395669D01*
X3542992Y5415669D01*
X3562992Y5405669D01*
X3582992Y5415669D01*
X3572992Y5395669D01*
X3582992Y5375669D01*
X3562992Y5385669D01*
X3542992Y5375669D01*
Y5257559D02*
X3552992Y5277559D01*
X3542992Y5297559D01*
X3562992Y5287559D01*
X3582992Y5297559D01*
X3572992Y5277559D01*
X3582992Y5257559D01*
X3562992Y5267559D01*
X3542992Y5257559D01*
Y5139449D02*
X3552992Y5159449D01*
X3542992Y5179449D01*
X3562992Y5169449D01*
X3582992Y5179449D01*
X3572992Y5159449D01*
X3582992Y5139449D01*
X3562992Y5149449D01*
X3542992Y5139449D01*
X3641417Y5789055D02*
X3651417Y5809055D01*
X3641417Y5829055D01*
X3661417Y5819055D01*
X3681417Y5829055D01*
X3671417Y5809055D01*
X3681417Y5789055D01*
X3661417Y5799055D01*
X3641417Y5789055D01*
Y5670945D02*
X3651417Y5690945D01*
X3641417Y5710945D01*
X3661417Y5700945D01*
X3681417Y5710945D01*
X3671417Y5690945D01*
X3681417Y5670945D01*
X3661417Y5680945D01*
X3641417Y5670945D01*
Y5552835D02*
X3651417Y5572835D01*
X3641417Y5592835D01*
X3661417Y5582835D01*
X3681417Y5592835D01*
X3671417Y5572835D01*
X3681417Y5552835D01*
X3661417Y5562835D01*
X3641417Y5552835D01*
Y5434724D02*
X3651417Y5454724D01*
X3641417Y5474724D01*
X3661417Y5464724D01*
X3681417Y5474724D01*
X3671417Y5454724D01*
X3681417Y5434724D01*
X3661417Y5444724D01*
X3641417Y5434724D01*
Y5316614D02*
X3651417Y5336614D01*
X3641417Y5356614D01*
X3661417Y5346614D01*
X3681417Y5356614D01*
X3671417Y5336614D01*
X3681417Y5316614D01*
X3661417Y5326614D01*
X3641417Y5316614D01*
Y5198504D02*
X3651417Y5218504D01*
X3641417Y5238504D01*
X3661417Y5228504D01*
X3681417Y5238504D01*
X3671417Y5218504D01*
X3681417Y5198504D01*
X3661417Y5208504D01*
X3641417Y5198504D01*
Y5080394D02*
X3651417Y5100394D01*
X3641417Y5120394D01*
X3661417Y5110394D01*
X3681417Y5120394D01*
X3671417Y5100394D01*
X3681417Y5080394D01*
X3661417Y5090394D01*
X3641417Y5080394D01*
X3090551Y6074488D02*
X3100551Y6084488D01*
X3110551D01*
X3100551Y6094488D01*
X3110551Y6104488D01*
X3100551D01*
X3090551Y6114488D01*
X3080551Y6104488D01*
X3070551D01*
X3080551Y6094488D01*
X3070551Y6084488D01*
X3080551D01*
X3090551Y6074488D01*
X5919133Y6175236D02*
Y6165236D01*
X5939133D01*
Y6175236D01*
X5949133D01*
Y6195236D01*
X5939133D01*
Y6205236D01*
X5919133D01*
Y6195236D01*
X5909133D01*
Y6175236D01*
X5919133D01*
Y6025236D02*
Y6015236D01*
X5939133D01*
Y6025236D01*
X5949133D01*
Y6045236D01*
X5939133D01*
Y6055236D01*
X5919133D01*
Y6045236D01*
X5909133D01*
Y6025236D01*
X5919133D01*
X6720158Y6350079D02*
X6730158D01*
X6740158Y6360079D01*
X6750158Y6350079D01*
X6760158D01*
Y6360079D01*
X6750158Y6370079D01*
X6760158Y6380079D01*
Y6390079D01*
X6750158D01*
X6740158Y6380079D01*
X6730158Y6390079D01*
X6720158D01*
Y6380079D01*
X6730158Y6370079D01*
X6720158Y6360079D01*
Y6350079D01*
X6239842Y6184724D02*
X6249842D01*
X6259842Y6194724D01*
X6269842Y6184724D01*
X6279842D01*
Y6194724D01*
X6269842Y6204724D01*
X6279842Y6214724D01*
Y6224724D01*
X6269842D01*
X6259842Y6214724D01*
X6249842Y6224724D01*
X6239842D01*
Y6214724D01*
X6249842Y6204724D01*
X6239842Y6194724D01*
Y6184724D01*
X6503622Y6031181D02*
X6513622D01*
X6523622Y6041181D01*
X6533622Y6031181D01*
X6543622D01*
Y6041181D01*
X6533622Y6051181D01*
X6543622Y6061181D01*
Y6071181D01*
X6533622D01*
X6523622Y6061181D01*
X6513622Y6071181D01*
X6503622D01*
Y6061181D01*
X6513622Y6051181D01*
X6503622Y6041181D01*
Y6031181D01*
X6554803D02*
X6564803D01*
X6574803Y6041181D01*
X6584803Y6031181D01*
X6594803D01*
Y6041181D01*
X6584803Y6051181D01*
X6594803Y6061181D01*
Y6071181D01*
X6584803D01*
X6574803Y6061181D01*
X6564803Y6071181D01*
X6554803D01*
Y6061181D01*
X6564803Y6051181D01*
X6554803Y6041181D01*
Y6031181D01*
X6428819Y6035118D02*
X6438819D01*
X6448819Y6045118D01*
X6458819Y6035118D01*
X6468819D01*
Y6045118D01*
X6458819Y6055118D01*
X6468819Y6065118D01*
Y6075118D01*
X6458819D01*
X6448819Y6065118D01*
X6438819Y6075118D01*
X6428819D01*
Y6065118D01*
X6438819Y6055118D01*
X6428819Y6045118D01*
Y6035118D01*
X3121732Y5547244D02*
X3141732Y5567244D01*
X3161732Y5547244D01*
X3141732Y5527244D01*
X3121732Y5547244D01*
X4050866Y4448504D02*
X4060866D01*
X4070866Y4458504D01*
X4080866Y4448504D01*
X4090866D01*
Y4458504D01*
X4080866Y4468504D01*
X4090866Y4478504D01*
Y4488504D01*
X4080866D01*
X4070866Y4478504D01*
X4060866Y4488504D01*
X4050866D01*
Y4478504D01*
X4060866Y4468504D01*
X4050866Y4458504D01*
Y4448504D01*
X6357953Y4543307D02*
X6377953Y4563307D01*
X6397953Y4543307D01*
X6377953Y4523307D01*
X6357953Y4543307D01*
X5877638Y6476378D02*
X5897638Y6496378D01*
X5917638Y6476378D01*
X5897638Y6456378D01*
X5877638Y6476378D01*
X6424882Y5653543D02*
X6444882Y5673543D01*
X6464882Y5653543D01*
X6444882Y5633543D01*
X6424882Y5653543D01*
X5578425Y5259842D02*
X5598425Y5279842D01*
X5618425Y5259842D01*
X5598425Y5239842D01*
X5578425Y5259842D01*
X5700472Y4826772D02*
X5720472Y4846772D01*
X5740472Y4826772D01*
X5720472Y4806772D01*
X5700472Y4826772D01*
X5263465Y5090551D02*
X5283465Y5110551D01*
X5303465Y5090551D01*
X5283465Y5070551D01*
X5263465Y5090551D01*
X5267402Y5397638D02*
X5287402Y5417638D01*
X5307402Y5397638D01*
X5287402Y5377638D01*
X5267402Y5397638D01*
X4850079Y6452756D02*
X4870079Y6472756D01*
X4890079Y6452756D01*
X4870079Y6432756D01*
X4850079Y6452756D01*
X4645354Y6448819D02*
X4665354Y6468819D01*
X4685354Y6448819D01*
X4665354Y6428819D01*
X4645354Y6448819D01*
X3397323Y4775591D02*
X3417323Y4795591D01*
X3437323Y4775591D01*
X3417323Y4755591D01*
X3397323Y4775591D01*
Y6106299D02*
X3417323Y6126299D01*
X3437323Y6106299D01*
X3417323Y6086299D01*
X3397323Y6106299D01*
X4826457Y4893701D02*
X4846457Y4913701D01*
X4866457Y4893701D01*
X4846457Y4873701D01*
X4826457Y4893701D01*
Y5102362D02*
X4846457Y5122362D01*
X4866457Y5102362D01*
X4846457Y5082362D01*
X4826457Y5102362D01*
Y5307087D02*
X4846457Y5327087D01*
X4866457Y5307087D01*
X4846457Y5287087D01*
X4826457Y5307087D01*
X5476063Y4830394D02*
X5486063D01*
X5496063Y4840394D01*
X5506063Y4830394D01*
X5516063D01*
Y4840394D01*
X5506063Y4850394D01*
X5516063Y4860394D01*
Y4870394D01*
X5506063D01*
X5496063Y4860394D01*
X5486063Y4870394D01*
X5476063D01*
Y4860394D01*
X5486063Y4850394D01*
X5476063Y4840394D01*
Y4830394D01*
X5770820Y4670945D02*
X5780820D01*
X5790820Y4680945D01*
X5800820Y4670945D01*
X5810820D01*
Y4680945D01*
X5800820Y4690945D01*
X5810820Y4700945D01*
Y4710945D01*
X5800820D01*
X5790820Y4700945D01*
X5780820Y4710945D01*
X5770820D01*
Y4700945D01*
X5780820Y4690945D01*
X5770820Y4680945D01*
Y4670945D01*
X5929185Y5574437D02*
X5949185Y5594437D01*
X5969185Y5574437D01*
X5949185Y5554437D01*
X5929185Y5574437D01*
X5377638Y6456378D02*
X5387638D01*
X5397638Y6466378D01*
X5407638Y6456378D01*
X5417638D01*
Y6466378D01*
X5407638Y6476378D01*
X5417638Y6486378D01*
Y6496378D01*
X5407638D01*
X5397638Y6486378D01*
X5387638Y6496378D01*
X5377638D01*
Y6486378D01*
X5387638Y6476378D01*
X5377638Y6466378D01*
Y6456378D01*
X5157165Y6397323D02*
X5167165D01*
X5177165Y6407323D01*
X5187165Y6397323D01*
X5197165D01*
Y6407323D01*
X5187165Y6417323D01*
X5197165Y6427323D01*
Y6437323D01*
X5187165D01*
X5177165Y6427323D01*
X5167165Y6437323D01*
X5157165D01*
Y6427323D01*
X5167165Y6417323D01*
X5157165Y6407323D01*
Y6397323D01*
X5944567Y6291339D02*
X5964567Y6311339D01*
X5984567Y6291339D01*
X5964567Y6271339D01*
X5944567Y6291339D01*
X6086299Y5873701D02*
X6096299D01*
X6106299Y5883701D01*
X6116299Y5873701D01*
X6126299D01*
Y5883701D01*
X6116299Y5893701D01*
X6126299Y5903701D01*
Y5913701D01*
X6116299D01*
X6106299Y5903701D01*
X6096299Y5913701D01*
X6086299D01*
Y5903701D01*
X6096299Y5893701D01*
X6086299Y5883701D01*
Y5873701D01*
X5369764Y6180787D02*
X5379764D01*
X5389764Y6190787D01*
X5399764Y6180787D01*
X5409764D01*
Y6190787D01*
X5399764Y6200787D01*
X5409764Y6210787D01*
Y6220787D01*
X5399764D01*
X5389764Y6210787D01*
X5379764Y6220787D01*
X5369764D01*
Y6210787D01*
X5379764Y6200787D01*
X5369764Y6190787D01*
Y6180787D01*
X5310709Y4767402D02*
X5320709D01*
X5330709Y4777402D01*
X5340709Y4767402D01*
X5350709D01*
Y4777402D01*
X5340709Y4787402D01*
X5350709Y4797402D01*
Y4807402D01*
X5340709D01*
X5330709Y4797402D01*
X5320709Y4807402D01*
X5310709D01*
Y4797402D01*
X5320709Y4787402D01*
X5310709Y4777402D01*
Y4767402D01*
X3806772Y4889764D02*
X3826772Y4909764D01*
X3846772Y4889764D01*
X3826772Y4869764D01*
X3806772Y4889764D01*
X3814646Y5153228D02*
X3824646D01*
X3834646Y5163228D01*
X3844646Y5153228D01*
X3854646D01*
Y5163228D01*
X3844646Y5173228D01*
X3854646Y5183228D01*
Y5193228D01*
X3844646D01*
X3834646Y5183228D01*
X3824646Y5193228D01*
X3814646D01*
Y5183228D01*
X3824646Y5173228D01*
X3814646Y5163228D01*
Y5153228D01*
X3783150Y5212283D02*
X3793150D01*
X3803150Y5222283D01*
X3813150Y5212283D01*
X3823150D01*
Y5222283D01*
X3813150Y5232283D01*
X3823150Y5242283D01*
Y5252283D01*
X3813150D01*
X3803150Y5242283D01*
X3793150Y5252283D01*
X3783150D01*
Y5242283D01*
X3793150Y5232283D01*
X3783150Y5222283D01*
Y5212283D01*
X3751653Y5275276D02*
X3761653D01*
X3771653Y5285276D01*
X3781653Y5275276D01*
X3791653D01*
Y5285276D01*
X3781653Y5295276D01*
X3791653Y5305276D01*
Y5315276D01*
X3781653D01*
X3771653Y5305276D01*
X3761653Y5315276D01*
X3751653D01*
Y5305276D01*
X3761653Y5295276D01*
X3751653Y5285276D01*
Y5275276D01*
X3720157Y5330394D02*
X3730157D01*
X3740157Y5340394D01*
X3750157Y5330394D01*
X3760157D01*
Y5340394D01*
X3750157Y5350394D01*
X3760157Y5360394D01*
Y5370394D01*
X3750157D01*
X3740157Y5360394D01*
X3730157Y5370394D01*
X3720157D01*
Y5360394D01*
X3730157Y5350394D01*
X3720157Y5340394D01*
Y5330394D01*
X4605984Y4665039D02*
X4615984D01*
X4625984Y4675039D01*
X4635984Y4665039D01*
X4645984D01*
Y4675039D01*
X4635984Y4685039D01*
X4645984Y4695039D01*
Y4705039D01*
X4635984D01*
X4625984Y4695039D01*
X4615984Y4705039D01*
X4605984D01*
Y4695039D01*
X4615984Y4685039D01*
X4605984Y4675039D01*
Y4665039D01*
X5405197Y4649291D02*
X5415197D01*
X5425197Y4659291D01*
X5435197Y4649291D01*
X5445197D01*
Y4659291D01*
X5435197Y4669291D01*
X5445197Y4679291D01*
Y4689291D01*
X5435197D01*
X5425197Y4679291D01*
X5415197Y4689291D01*
X5405197D01*
Y4679291D01*
X5415197Y4669291D01*
X5405197Y4659291D01*
Y4649291D01*
X5444566Y4590236D02*
X5454566D01*
X5464566Y4600236D01*
X5474566Y4590236D01*
X5484566D01*
Y4600236D01*
X5474566Y4610236D01*
X5484566Y4620236D01*
Y4630236D01*
X5474566D01*
X5464566Y4620236D01*
X5454566Y4630236D01*
X5444566D01*
Y4620236D01*
X5454566Y4610236D01*
X5444566Y4600236D01*
Y4590236D01*
X5485906Y6178819D02*
X5495906D01*
X5505906Y6188819D01*
X5515906Y6178819D01*
X5525906D01*
Y6188819D01*
X5515906Y6198819D01*
X5525906Y6208819D01*
Y6218819D01*
X5515906D01*
X5505906Y6208819D01*
X5495906Y6218819D01*
X5485906D01*
Y6208819D01*
X5495906Y6198819D01*
X5485906Y6188819D01*
Y6178819D01*
X5755591Y6228032D02*
X5765591D01*
X5775591Y6238032D01*
X5785591Y6228032D01*
X5795591D01*
Y6238032D01*
X5785591Y6248032D01*
X5795591Y6258032D01*
Y6268032D01*
X5785591D01*
X5775591Y6258032D01*
X5765591Y6268032D01*
X5755591D01*
Y6258032D01*
X5765591Y6248032D01*
X5755591Y6238032D01*
Y6228032D01*
X5720158Y6039055D02*
X5730158D01*
X5740158Y6049055D01*
X5750158Y6039055D01*
X5760158D01*
Y6049055D01*
X5750158Y6059055D01*
X5760158Y6069055D01*
Y6079055D01*
X5750158D01*
X5740158Y6069055D01*
X5730158Y6079055D01*
X5720158D01*
Y6069055D01*
X5730158Y6059055D01*
X5720158Y6049055D01*
Y6039055D01*
X5722114Y6168964D02*
X5732114D01*
X5742114Y6178964D01*
X5752114Y6168964D01*
X5762114D01*
Y6178964D01*
X5752114Y6188964D01*
X5762114Y6198964D01*
Y6208964D01*
X5752114D01*
X5742114Y6198964D01*
X5732114Y6208964D01*
X5722114D01*
Y6198964D01*
X5732114Y6188964D01*
X5722114Y6178964D01*
Y6168964D01*
X5720146Y5987862D02*
X5730146D01*
X5740146Y5997862D01*
X5750146Y5987862D01*
X5760146D01*
Y5997862D01*
X5750146Y6007862D01*
X5760146Y6017862D01*
Y6027862D01*
X5750146D01*
X5740146Y6017862D01*
X5730146Y6027862D01*
X5720146D01*
Y6017862D01*
X5730146Y6007862D01*
X5720146Y5997862D01*
Y5987862D01*
X4972127Y5480001D02*
X4982127D01*
X4992127Y5490001D01*
X5002127Y5480001D01*
X5012127D01*
Y5490001D01*
X5002127Y5500001D01*
X5012127Y5510001D01*
Y5520001D01*
X5002127D01*
X4992127Y5510001D01*
X4982127Y5520001D01*
X4972127D01*
Y5510001D01*
X4982127Y5500001D01*
X4972127Y5490001D01*
Y5480001D01*
Y5676851D02*
X4982127D01*
X4992127Y5686851D01*
X5002127Y5676851D01*
X5012127D01*
Y5686851D01*
X5002127Y5696851D01*
X5012127Y5706851D01*
Y5716851D01*
X5002127D01*
X4992127Y5706851D01*
X4982127Y5716851D01*
X4972127D01*
Y5706851D01*
X4982127Y5696851D01*
X4972127Y5686851D01*
Y5676851D01*
Y5877639D02*
X4982127D01*
X4992127Y5887639D01*
X5002127Y5877639D01*
X5012127D01*
Y5887639D01*
X5002127Y5897639D01*
X5012127Y5907639D01*
Y5917639D01*
X5002127D01*
X4992127Y5907639D01*
X4982127Y5917639D01*
X4972127D01*
Y5907639D01*
X4982127Y5897639D01*
X4972127Y5887639D01*
Y5877639D01*
Y6074489D02*
X4982127D01*
X4992127Y6084489D01*
X5002127Y6074489D01*
X5012127D01*
Y6084489D01*
X5002127Y6094489D01*
X5012127Y6104489D01*
Y6114489D01*
X5002127D01*
X4992127Y6104489D01*
X4982127Y6114489D01*
X4972127D01*
Y6104489D01*
X4982127Y6094489D01*
X4972127Y6084489D01*
Y6074489D01*
Y6271340D02*
X4982127D01*
X4992127Y6281340D01*
X5002127Y6271340D01*
X5012127D01*
Y6281340D01*
X5002127Y6291340D01*
X5012127Y6301340D01*
Y6311340D01*
X5002127D01*
X4992127Y6301340D01*
X4982127Y6311340D01*
X4972127D01*
Y6301340D01*
X4982127Y6291340D01*
X4972127Y6281340D01*
Y6271340D01*
X5220158Y4519370D02*
X5230158D01*
X5240158Y4529370D01*
X5250158Y4519370D01*
X5260158D01*
Y4529370D01*
X5250158Y4539370D01*
X5260158Y4549370D01*
Y4559370D01*
X5250158D01*
X5240158Y4549370D01*
X5230158Y4559370D01*
X5220158D01*
Y4549370D01*
X5230158Y4539370D01*
X5220158Y4529370D01*
Y4519370D01*
X5525276Y4430787D02*
X5535276D01*
X5545276Y4440787D01*
X5555276Y4430787D01*
X5565276D01*
Y4440787D01*
X5555276Y4450787D01*
X5565276Y4460787D01*
Y4470787D01*
X5555276D01*
X5545276Y4460787D01*
X5535276Y4470787D01*
X5525276D01*
Y4460787D01*
X5535276Y4450787D01*
X5525276Y4440787D01*
Y4430787D01*
X4519370Y4605984D02*
X4529370D01*
X4539370Y4615984D01*
X4549370Y4605984D01*
X4559370D01*
Y4615984D01*
X4549370Y4625984D01*
X4559370Y4635984D01*
Y4645984D01*
X4549370D01*
X4539370Y4635984D01*
X4529370Y4645984D01*
X4519370D01*
Y4635984D01*
X4529370Y4625984D01*
X4519370Y4615984D01*
Y4605984D01*
X4519370Y4511496D02*
X4529370D01*
X4539370Y4521496D01*
X4549370Y4511496D01*
X4559370D01*
Y4521496D01*
X4549370Y4531496D01*
X4559370Y4541496D01*
Y4551496D01*
X4549370D01*
X4539370Y4541496D01*
X4529370Y4551496D01*
X4519370D01*
Y4541496D01*
X4529370Y4531496D01*
X4519370Y4521496D01*
Y4511496D01*
X4003622Y5273306D02*
X4013622D01*
X4023622Y5283306D01*
X4033622Y5273306D01*
X4043622D01*
Y5283306D01*
X4033622Y5293306D01*
X4043622Y5303306D01*
Y5313306D01*
X4033622D01*
X4023622Y5303306D01*
X4013622Y5313306D01*
X4003622D01*
Y5303306D01*
X4013622Y5293306D01*
X4003622Y5283306D01*
Y5273306D01*
Y5186692D02*
X4013622D01*
X4023622Y5196692D01*
X4033622Y5186692D01*
X4043622D01*
Y5196692D01*
X4033622Y5206692D01*
X4043622Y5216692D01*
Y5226692D01*
X4033622D01*
X4023622Y5216692D01*
X4013622Y5226692D01*
X4003622D01*
Y5216692D01*
X4013622Y5206692D01*
X4003622Y5196692D01*
Y5186692D01*
X4235901Y5257557D02*
X4245901D01*
X4255901Y5267557D01*
X4265901Y5257557D01*
X4275901D01*
Y5267557D01*
X4265901Y5277557D01*
X4275901Y5287557D01*
Y5297557D01*
X4265901D01*
X4255901Y5287557D01*
X4245901Y5297557D01*
X4235901D01*
Y5287557D01*
X4245901Y5277557D01*
X4235901Y5267557D01*
Y5257557D01*
X4334325D02*
X4344325D01*
X4354325Y5267557D01*
X4364325Y5257557D01*
X4374325D01*
Y5267557D01*
X4364325Y5277557D01*
X4374325Y5287557D01*
Y5297557D01*
X4364325D01*
X4354325Y5287557D01*
X4344325Y5297557D01*
X4334325D01*
Y5287557D01*
X4344325Y5277557D01*
X4334325Y5267557D01*
Y5257557D01*
X4003622Y5615826D02*
X4013622D01*
X4023622Y5625826D01*
X4033622Y5615826D01*
X4043622D01*
Y5625826D01*
X4033622Y5635826D01*
X4043622Y5645826D01*
Y5655826D01*
X4033622D01*
X4023622Y5645826D01*
X4013622Y5655826D01*
X4003622D01*
Y5645826D01*
X4013622Y5635826D01*
X4003622Y5625826D01*
Y5615826D01*
Y5529212D02*
X4013622D01*
X4023622Y5539212D01*
X4033622Y5529212D01*
X4043622D01*
Y5539212D01*
X4033622Y5549212D01*
X4043622Y5559212D01*
Y5569212D01*
X4033622D01*
X4023622Y5559212D01*
X4013622Y5569212D01*
X4003622D01*
Y5559212D01*
X4013622Y5549212D01*
X4003622Y5539212D01*
Y5529212D01*
X4235901Y5600077D02*
X4245901D01*
X4255901Y5610077D01*
X4265901Y5600077D01*
X4275901D01*
Y5610077D01*
X4265901Y5620077D01*
X4275901Y5630077D01*
Y5640077D01*
X4265901D01*
X4255901Y5630077D01*
X4245901Y5640077D01*
X4235901D01*
Y5630077D01*
X4245901Y5620077D01*
X4235901Y5610077D01*
Y5600077D01*
X4334325D02*
X4344325D01*
X4354325Y5610077D01*
X4364325Y5600077D01*
X4374325D01*
Y5610077D01*
X4364325Y5620077D01*
X4374325Y5630077D01*
Y5640077D01*
X4364325D01*
X4354325Y5630077D01*
X4344325Y5640077D01*
X4334325D01*
Y5630077D01*
X4344325Y5620077D01*
X4334325Y5610077D01*
Y5600077D01*
X4003622Y5958346D02*
X4013622D01*
X4023622Y5968346D01*
X4033622Y5958346D01*
X4043622D01*
Y5968346D01*
X4033622Y5978346D01*
X4043622Y5988346D01*
Y5998346D01*
X4033622D01*
X4023622Y5988346D01*
X4013622Y5998346D01*
X4003622D01*
Y5988346D01*
X4013622Y5978346D01*
X4003622Y5968346D01*
Y5958346D01*
Y5871731D02*
X4013622D01*
X4023622Y5881731D01*
X4033622Y5871731D01*
X4043622D01*
Y5881731D01*
X4033622Y5891731D01*
X4043622Y5901731D01*
Y5911731D01*
X4033622D01*
X4023622Y5901731D01*
X4013622Y5911731D01*
X4003622D01*
Y5901731D01*
X4013622Y5891731D01*
X4003622Y5881731D01*
Y5871731D01*
X4235901Y5942596D02*
X4245901D01*
X4255901Y5952596D01*
X4265901Y5942596D01*
X4275901D01*
Y5952596D01*
X4265901Y5962596D01*
X4275901Y5972596D01*
Y5982596D01*
X4265901D01*
X4255901Y5972596D01*
X4245901Y5982596D01*
X4235901D01*
Y5972596D01*
X4245901Y5962596D01*
X4235901Y5952596D01*
Y5942596D01*
X4334325D02*
X4344325D01*
X4354325Y5952596D01*
X4364325Y5942596D01*
X4374325D01*
Y5952596D01*
X4364325Y5962596D01*
X4374325Y5972596D01*
Y5982596D01*
X4364325D01*
X4354325Y5972596D01*
X4344325Y5982596D01*
X4334325D01*
Y5972596D01*
X4344325Y5962596D01*
X4334325Y5952596D01*
Y5942596D01*
X4003622Y6300865D02*
X4013622D01*
X4023622Y6310865D01*
X4033622Y6300865D01*
X4043622D01*
Y6310865D01*
X4033622Y6320865D01*
X4043622Y6330865D01*
Y6340865D01*
X4033622D01*
X4023622Y6330865D01*
X4013622Y6340865D01*
X4003622D01*
Y6330865D01*
X4013622Y6320865D01*
X4003622Y6310865D01*
Y6300865D01*
Y6214251D02*
X4013622D01*
X4023622Y6224251D01*
X4033622Y6214251D01*
X4043622D01*
Y6224251D01*
X4033622Y6234251D01*
X4043622Y6244251D01*
Y6254251D01*
X4033622D01*
X4023622Y6244251D01*
X4013622Y6254251D01*
X4003622D01*
Y6244251D01*
X4013622Y6234251D01*
X4003622Y6224251D01*
Y6214251D01*
X4235901Y6285116D02*
X4245901D01*
X4255901Y6295116D01*
X4265901Y6285116D01*
X4275901D01*
Y6295116D01*
X4265901Y6305116D01*
X4275901Y6315116D01*
Y6325116D01*
X4265901D01*
X4255901Y6315116D01*
X4245901Y6325116D01*
X4235901D01*
Y6315116D01*
X4245901Y6305116D01*
X4235901Y6295116D01*
Y6285116D01*
X4334325D02*
X4344325D01*
X4354325Y6295116D01*
X4364325Y6285116D01*
X4374325D01*
Y6295116D01*
X4364325Y6305116D01*
X4374325Y6315116D01*
Y6325116D01*
X4364325D01*
X4354325Y6315116D01*
X4344325Y6325116D01*
X4334325D01*
Y6315116D01*
X4344325Y6305116D01*
X4334325Y6295116D01*
Y6285116D01*
X4003622Y4930787D02*
X4013622D01*
X4023622Y4940787D01*
X4033622Y4930787D01*
X4043622D01*
Y4940787D01*
X4033622Y4950787D01*
X4043622Y4960787D01*
Y4970787D01*
X4033622D01*
X4023622Y4960787D01*
X4013622Y4970787D01*
X4003622D01*
Y4960787D01*
X4013622Y4950787D01*
X4003622Y4940787D01*
Y4930787D01*
Y4844172D02*
X4013622D01*
X4023622Y4854172D01*
X4033622Y4844172D01*
X4043622D01*
Y4854172D01*
X4033622Y4864172D01*
X4043622Y4874172D01*
Y4884172D01*
X4033622D01*
X4023622Y4874172D01*
X4013622Y4884172D01*
X4003622D01*
Y4874172D01*
X4013622Y4864172D01*
X4003622Y4854172D01*
Y4844172D01*
X4235901Y4915038D02*
X4245901D01*
X4255901Y4925038D01*
X4265901Y4915038D01*
X4275901D01*
Y4925038D01*
X4265901Y4935038D01*
X4275901Y4945038D01*
Y4955038D01*
X4265901D01*
X4255901Y4945038D01*
X4245901Y4955038D01*
X4235901D01*
Y4945038D01*
X4245901Y4935038D01*
X4235901Y4925038D01*
Y4915038D01*
X4334325D02*
X4344325D01*
X4354325Y4925038D01*
X4364325Y4915038D01*
X4374325D01*
Y4925038D01*
X4364325Y4935038D01*
X4374325Y4945038D01*
Y4955038D01*
X4364325D01*
X4354325Y4945038D01*
X4344325Y4955038D01*
X4334325D01*
Y4945038D01*
X4344325Y4935038D01*
X4334325Y4925038D01*
Y4915038D01*
D110*
X6769094Y5404567D02*
G03*
X6769094Y5404567I-20000J0D01*
G01*
Y5045512D02*
G03*
X6769094Y5045512I-20000J0D01*
G01*
X6593897Y5404567D02*
G03*
X6593897Y5404567I-20000J0D01*
G01*
Y5045512D02*
G03*
X6593897Y5045512I-20000J0D01*
G01*
%TF.MD5,46e35cfd747ed1e28cc14e53c7a86464*%
M02*
