%TF.GenerationSoftware,Altium Limited,Altium Designer,18.1.9 (240)*%
G04 Layer_Color=255*
%FSLAX26Y26*%
%MOIN*%
%TF.FileFunction,Pads,Bot*%
%TF.Part,Single*%
G01*
G75*
%TA.AperFunction,SMDPad,CuDef*%
%ADD12R,0.051181X0.055118*%
%ADD13R,0.039370X0.035433*%
%ADD27O,0.057087X0.023622*%
%ADD28R,0.055118X0.051181*%
%TA.AperFunction,ViaPad*%
%ADD41C,0.196850*%
%TA.AperFunction,ComponentPad*%
%ADD42C,0.103937*%
%ADD43C,0.110236*%
%ADD44R,0.103937X0.103937*%
%ADD45C,0.196850*%
%ADD46C,0.086614*%
%TA.AperFunction,SMDPad,CuDef*%
%ADD49R,0.037402X0.033465*%
D12*
X4125983Y5646005D02*
D03*
X4188975D02*
D03*
X4125983Y5559223D02*
D03*
X4188975D02*
D03*
X4194881Y5472441D02*
D03*
X4257873D02*
D03*
X4125983Y5303485D02*
D03*
X4188975D02*
D03*
X4125983Y5216703D02*
D03*
X4188975D02*
D03*
X4194883Y5129921D02*
D03*
X4257875D02*
D03*
X4125983Y4960966D02*
D03*
X4188977D02*
D03*
X4125985Y4874184D02*
D03*
X4188977D02*
D03*
X4314961Y4456693D02*
D03*
X4251968D02*
D03*
X4194881Y4787401D02*
D03*
X4257873D02*
D03*
X4539370Y4452756D02*
D03*
X4476378D02*
D03*
X4352363Y4787401D02*
D03*
X4415355D02*
D03*
X4352363Y5129921D02*
D03*
X4415355D02*
D03*
X4352363Y5472439D02*
D03*
X4415355D02*
D03*
X4125985Y5901743D02*
D03*
X4188977D02*
D03*
X4125985Y5988525D02*
D03*
X4188977D02*
D03*
X4194881Y5814961D02*
D03*
X4257873D02*
D03*
X4352363D02*
D03*
X4415355D02*
D03*
X4125983Y6244260D02*
D03*
X4188977D02*
D03*
X4194881Y6157478D02*
D03*
X4257875D02*
D03*
X4125983Y6331042D02*
D03*
X4188975D02*
D03*
X4352361Y6157478D02*
D03*
X4415353D02*
D03*
D13*
X6448819Y5983268D02*
D03*
Y5930118D02*
D03*
X6523621Y5983269D02*
D03*
Y5930118D02*
D03*
X5322834Y4449803D02*
D03*
Y4502953D02*
D03*
D27*
X4469488Y4681298D02*
D03*
Y4631298D02*
D03*
Y4581298D02*
D03*
Y4531298D02*
D03*
X4254922Y4681298D02*
D03*
Y4631298D02*
D03*
Y4581298D02*
D03*
Y4531298D02*
D03*
D28*
X4149606Y4500000D02*
D03*
Y4562992D02*
D03*
X4149607Y4637796D02*
D03*
Y4700788D02*
D03*
D41*
X6594488Y6326772D02*
D03*
Y4551181D02*
D03*
X3417323Y4586614D02*
D03*
Y6330709D02*
D03*
D42*
X6749094Y5404567D02*
D03*
Y5045512D02*
D03*
X6573897D02*
D03*
D43*
X6661417Y5635039D02*
D03*
Y4814961D02*
D03*
D44*
X6573897Y5404567D02*
D03*
D45*
X3090551Y4814961D02*
D03*
Y6094488D02*
D03*
D46*
X3346457Y5809055D02*
D03*
Y5690945D02*
D03*
Y5572835D02*
D03*
Y5454724D02*
D03*
Y5336614D02*
D03*
Y5218504D02*
D03*
Y5100394D02*
D03*
X3444882Y5750000D02*
D03*
Y5631890D02*
D03*
Y5513779D02*
D03*
Y5395669D02*
D03*
Y5277559D02*
D03*
Y5159449D02*
D03*
X3562992Y5750000D02*
D03*
Y5631890D02*
D03*
Y5513779D02*
D03*
Y5395669D02*
D03*
Y5277559D02*
D03*
Y5159449D02*
D03*
X3661417Y5809055D02*
D03*
Y5690945D02*
D03*
Y5572835D02*
D03*
Y5454724D02*
D03*
Y5336614D02*
D03*
Y5218504D02*
D03*
Y5100394D02*
D03*
D49*
X5393701Y4450788D02*
D03*
Y4501968D02*
D03*
X5464566Y4501969D02*
D03*
Y4450787D02*
D03*
%TF.MD5,12ece418976f1e0fed62a036f47238f6*%
M02*
