%TF.GenerationSoftware,Altium Limited,Altium Designer,18.1.9 (240)*%
G04 Layer_Color=8421504*
%FSLAX26Y26*%
%MOIN*%
%TF.FileFunction,Paste,Top*%
%TF.Part,Single*%
G01*
G75*
%TA.AperFunction,SMDPad,CuDef*%
%ADD10R,0.045276X0.080709*%
%ADD11R,0.015748X0.053150*%
%ADD12R,0.062992X0.055118*%
%ADD13R,0.057087X0.051181*%
%ADD14R,0.074803X0.074803*%
%ADD15O,0.064961X0.019685*%
%ADD16R,0.053150X0.011811*%
%ADD17R,0.011811X0.053150*%
%ADD18O,0.023622X0.057087*%
%ADD19R,0.035433X0.031496*%
%ADD20R,0.045276X0.053150*%
%ADD21R,0.033465X0.037402*%
%ADD22R,0.037402X0.033465*%
%ADD23R,0.053150X0.045276*%
%ADD24R,0.023622X0.029528*%
%ADD25R,0.094488X0.029921*%
%ADD26R,0.043307X0.051181*%
%ADD27R,0.039370X0.070866*%
%ADD28R,0.057087X0.053150*%
%ADD29R,0.074803X0.035433*%
%ADD30R,0.031496X0.035433*%
%ADD31R,0.051181X0.043307*%
%ADD32R,0.035433X0.039370*%
%ADD33R,0.039370X0.035433*%
D10*
X6069000Y5772000D02*
D03*
X5712000Y5600000D02*
D03*
X6490000Y5774000D02*
D03*
D11*
X4558425Y5737685D02*
D03*
X4532835D02*
D03*
X4507244D02*
D03*
X4481654D02*
D03*
X4456063D02*
D03*
D12*
X4633228Y5746543D02*
D03*
X4381260D02*
D03*
D13*
X4642087Y5843000D02*
D03*
X4372402D02*
D03*
D14*
X4554488D02*
D03*
X4460000D02*
D03*
D15*
X4152717Y5387008D02*
D03*
Y5413622D02*
D03*
Y5440236D02*
D03*
Y5466850D02*
D03*
Y5493465D02*
D03*
Y5520079D02*
D03*
Y5546693D02*
D03*
Y5573307D02*
D03*
Y5599921D02*
D03*
Y5626535D02*
D03*
Y5653150D02*
D03*
Y5679764D02*
D03*
Y5706378D02*
D03*
Y5732992D02*
D03*
X3867284Y5387008D02*
D03*
Y5413622D02*
D03*
Y5440236D02*
D03*
Y5466850D02*
D03*
Y5493465D02*
D03*
Y5520079D02*
D03*
Y5546693D02*
D03*
Y5573307D02*
D03*
Y5599921D02*
D03*
Y5626535D02*
D03*
Y5653150D02*
D03*
Y5679764D02*
D03*
Y5706378D02*
D03*
Y5732992D02*
D03*
D16*
X4383622Y3967638D02*
D03*
Y3947953D02*
D03*
Y3928268D02*
D03*
Y3908583D02*
D03*
Y3888898D02*
D03*
Y3869213D02*
D03*
Y3849528D02*
D03*
Y3829843D02*
D03*
Y3810157D02*
D03*
Y3790472D02*
D03*
Y3770787D02*
D03*
Y3751102D02*
D03*
Y3731417D02*
D03*
Y3711732D02*
D03*
Y3692047D02*
D03*
Y3672362D02*
D03*
X4836378D02*
D03*
Y3692047D02*
D03*
Y3711732D02*
D03*
Y3731417D02*
D03*
Y3751102D02*
D03*
Y3770787D02*
D03*
Y3790472D02*
D03*
Y3810157D02*
D03*
Y3829843D02*
D03*
Y3849528D02*
D03*
Y3869213D02*
D03*
Y3888898D02*
D03*
Y3908583D02*
D03*
Y3928268D02*
D03*
Y3947953D02*
D03*
Y3967638D02*
D03*
D17*
X4462362Y3593622D02*
D03*
X4482047D02*
D03*
X4501732D02*
D03*
X4521417D02*
D03*
X4541102D02*
D03*
X4560787D02*
D03*
X4580472D02*
D03*
X4600157D02*
D03*
X4619842D02*
D03*
X4639528D02*
D03*
X4659213D02*
D03*
X4678898D02*
D03*
X4698583D02*
D03*
X4718268D02*
D03*
X4737953D02*
D03*
X4757638D02*
D03*
Y4046378D02*
D03*
X4737953D02*
D03*
X4718268D02*
D03*
X4698583D02*
D03*
X4678898D02*
D03*
X4659213D02*
D03*
X4639528D02*
D03*
X4619842D02*
D03*
X4600157D02*
D03*
X4580472D02*
D03*
X4560787D02*
D03*
X4541102D02*
D03*
X4521417D02*
D03*
X4501732D02*
D03*
X4482047D02*
D03*
X4462362D02*
D03*
D18*
X6557000Y3699283D02*
D03*
X6507000D02*
D03*
X6457000D02*
D03*
X6407000D02*
D03*
X6557000Y3484716D02*
D03*
X6507000D02*
D03*
X6457000D02*
D03*
X6407000D02*
D03*
X6410000Y4926717D02*
D03*
X6460000D02*
D03*
X6510000D02*
D03*
X6560000D02*
D03*
X6410000Y5141283D02*
D03*
X6460000D02*
D03*
X6510000D02*
D03*
X6560000D02*
D03*
D19*
X5888370Y5564000D02*
D03*
X5809630Y5526599D02*
D03*
Y5601402D02*
D03*
X6498372Y2704952D02*
D03*
X6419632Y2667550D02*
D03*
Y2742353D02*
D03*
X6498372Y3084240D02*
D03*
X6419632Y3046839D02*
D03*
Y3121642D02*
D03*
D20*
X3463596Y5408159D02*
D03*
X3394699D02*
D03*
X3463596Y5634710D02*
D03*
X3394699D02*
D03*
X3040145Y5518485D02*
D03*
X3109042D02*
D03*
X3042230Y5617871D02*
D03*
X3111127D02*
D03*
D21*
X5205812Y5346981D02*
D03*
X5256993D02*
D03*
X5203819Y5741000D02*
D03*
X5255000D02*
D03*
D22*
X6304000Y3647409D02*
D03*
Y3698590D02*
D03*
X6305068Y4099369D02*
D03*
Y4048188D02*
D03*
X6643000Y4051819D02*
D03*
Y4103000D02*
D03*
X6651000Y5092591D02*
D03*
Y5041409D02*
D03*
X6641068Y4523779D02*
D03*
Y4574960D02*
D03*
X6307698Y4576369D02*
D03*
Y4525188D02*
D03*
D23*
X5609000Y5554000D02*
D03*
Y5485102D02*
D03*
X5969000Y5772000D02*
D03*
Y5703102D02*
D03*
D24*
X6599435Y2750227D02*
D03*
Y2704952D02*
D03*
X6600986Y3129516D02*
D03*
Y3084240D02*
D03*
D25*
X4813228Y5745000D02*
D03*
X4966772D02*
D03*
X4813228Y5695000D02*
D03*
X4966772D02*
D03*
X4813228Y5645000D02*
D03*
X4966772D02*
D03*
X4813228Y5595000D02*
D03*
X4966772D02*
D03*
X4813228Y5545000D02*
D03*
X4966772D02*
D03*
D26*
X6352724Y5569000D02*
D03*
X6443276D02*
D03*
X3394449Y5289000D02*
D03*
X3485000D02*
D03*
X3394024Y5521238D02*
D03*
X3484576D02*
D03*
D27*
X6291000Y5776000D02*
D03*
X6401236D02*
D03*
D28*
X5609000Y5773000D02*
D03*
Y5656858D02*
D03*
D29*
X6182000Y5604370D02*
D03*
Y5775630D02*
D03*
D30*
X6485598Y4696260D02*
D03*
X6448197Y4775000D02*
D03*
X6523000D02*
D03*
X6479000Y3904370D02*
D03*
X6516401Y3825630D02*
D03*
X6441598D02*
D03*
D31*
X6708467Y2659676D02*
D03*
Y2750227D02*
D03*
Y3042904D02*
D03*
Y3133456D02*
D03*
D32*
X5255000Y5581000D02*
D03*
X5201850D02*
D03*
X5256014Y5504462D02*
D03*
X5202864D02*
D03*
X5255537Y5430084D02*
D03*
X5202387D02*
D03*
X5255000Y5661000D02*
D03*
X5201850D02*
D03*
X6506643Y3376779D02*
D03*
X6453493D02*
D03*
X3455722Y5725702D02*
D03*
X3402573D02*
D03*
X3111127Y5717241D02*
D03*
X3057978D02*
D03*
X3050459Y5421021D02*
D03*
X3103609D02*
D03*
X6457425Y5260000D02*
D03*
X6510575D02*
D03*
D33*
X6480068Y4100354D02*
D03*
Y4047204D02*
D03*
X6482068Y4524204D02*
D03*
Y4577354D02*
D03*
%TF.MD5,0634d304f358d4f8680fec9349ae3241*%
M02*
