%TF.GenerationSoftware,Altium Limited,Altium Designer,18.1.9 (240)*%
G04 Layer_Color=0*
%FSLAX26Y26*%
%MOIN*%
%TF.FileFunction,Plated,1,2,PTH,Drill*%
%TF.Part,Single*%
G01*
G75*
%TA.AperFunction,OtherDrill,Pad Free-8 (2300mil,1480mil)*%
%ADD84C,0.160000*%
%TA.AperFunction,OtherDrill,Pad Free-7 (6865mil,1480mil)*%
%ADD85C,0.160000*%
%TA.AperFunction,OtherDrill,Pad Free-6 (6865mil,5818mil)*%
%ADD86C,0.160000*%
%TA.AperFunction,OtherDrill,Pad Free-5 (2300mil,5818mil)*%
%ADD87C,0.160000*%
%TA.AperFunction,ComponentDrill*%
%ADD88C,0.039370*%
%ADD89C,0.040157*%
%ADD90C,0.020079*%
%ADD91C,0.040157*%
%TA.AperFunction,ViaDrill,NotFilled*%
%ADD92C,0.015000*%
%ADD93C,0.025000*%
%ADD94C,0.010000*%
D84*
X2300000Y1480000D02*
D03*
D85*
X6865000D02*
D03*
D86*
Y5818000D02*
D03*
D87*
X2300000D02*
D03*
D88*
X6643000Y4362000D02*
D03*
Y4262000D02*
D03*
X6308000Y4361000D02*
D03*
Y4261000D02*
D03*
X6655000Y5640000D02*
D03*
Y5540000D02*
D03*
D89*
X3495000Y4954000D02*
D03*
X3298150D02*
D03*
X3495000Y4757150D02*
D03*
X3298150D02*
D03*
D90*
X2592000Y5307000D02*
D03*
X2792000D02*
D03*
X2692000D02*
D03*
X2598000Y4540000D02*
D03*
X2798000D02*
D03*
X2698000D02*
D03*
X2594000Y4922000D02*
D03*
X2794000D02*
D03*
X2694000D02*
D03*
D91*
X5038544Y2439063D02*
D03*
Y2339063D02*
D03*
Y2239063D02*
D03*
Y2139063D02*
D03*
Y2039063D02*
D03*
Y1939063D02*
D03*
Y1839063D02*
D03*
Y1739063D02*
D03*
X5138544D02*
D03*
Y1839063D02*
D03*
Y1939063D02*
D03*
Y2039063D02*
D03*
Y2139063D02*
D03*
Y2239063D02*
D03*
Y2339063D02*
D03*
Y2439063D02*
D03*
X6226664Y2442285D02*
D03*
Y2342285D02*
D03*
Y2242285D02*
D03*
Y2142285D02*
D03*
Y2042285D02*
D03*
Y1942285D02*
D03*
Y1842285D02*
D03*
Y1742285D02*
D03*
X6126664D02*
D03*
Y1842285D02*
D03*
Y1942285D02*
D03*
Y2042285D02*
D03*
Y2142285D02*
D03*
Y2242285D02*
D03*
Y2342285D02*
D03*
Y2442285D02*
D03*
X4055063Y2433964D02*
D03*
Y2333964D02*
D03*
Y2233964D02*
D03*
Y2133964D02*
D03*
Y2033964D02*
D03*
Y1933964D02*
D03*
Y1833964D02*
D03*
Y1733964D02*
D03*
X3955063D02*
D03*
Y1833964D02*
D03*
Y1933964D02*
D03*
Y2033964D02*
D03*
Y2133964D02*
D03*
Y2233964D02*
D03*
Y2333964D02*
D03*
Y2433964D02*
D03*
X2998534Y2432092D02*
D03*
Y2332092D02*
D03*
Y2232092D02*
D03*
Y2132092D02*
D03*
Y2032092D02*
D03*
Y1932092D02*
D03*
Y1832092D02*
D03*
Y1732092D02*
D03*
X2898534D02*
D03*
Y1832092D02*
D03*
Y1932092D02*
D03*
Y2032092D02*
D03*
Y2132092D02*
D03*
Y2232092D02*
D03*
Y2332092D02*
D03*
Y2432092D02*
D03*
D92*
X2609000Y5656000D02*
D03*
X2890000Y3040000D02*
D03*
X5087000Y5388000D02*
D03*
X4184000Y3930000D02*
D03*
X4112000Y3857425D02*
D03*
X6561000Y5206000D02*
D03*
X6324717Y3482716D02*
D03*
X6206245D02*
D03*
X6559000Y3420000D02*
D03*
X6363000Y3432000D02*
D03*
X6348000Y5113000D02*
D03*
X2769000Y2809000D02*
D03*
X4542000Y5411000D02*
D03*
X5001000Y5267000D02*
D03*
X3817000Y3227000D02*
D03*
X6446000Y4220000D02*
D03*
X6517000Y4158000D02*
D03*
X4429000Y4735000D02*
D03*
X4504000Y4817000D02*
D03*
X4558425Y5534425D02*
D03*
X3775000Y5800000D02*
D03*
Y5666000D02*
D03*
X3797000Y5628000D02*
D03*
X3653000Y5746000D02*
D03*
X3684000Y5673000D02*
D03*
X3589000Y5789000D02*
D03*
X3516000Y5778000D02*
D03*
X6772000Y3710000D02*
D03*
X3936000Y4835000D02*
D03*
X3693000Y4206000D02*
D03*
X2378000Y1814000D02*
D03*
X3097908Y1832092D02*
D03*
X5975000Y2987000D02*
D03*
X5688000Y1547000D02*
D03*
X4345000Y1610000D02*
D03*
X4390000Y2669000D02*
D03*
X5449000Y4551000D02*
D03*
X6482068Y4641000D02*
D03*
X3261051Y3788000D02*
D03*
X3732000Y3637000D02*
D03*
X3593000Y3400000D02*
D03*
X3550000Y3413000D02*
D03*
X3661000Y3300000D02*
D03*
X3708000Y3275000D02*
D03*
X3337000Y3266000D02*
D03*
X3287000Y3231000D02*
D03*
X3247000Y3281000D02*
D03*
X3209000Y3239000D02*
D03*
X3172000Y3274000D02*
D03*
X3125000Y3406000D02*
D03*
X3140000Y3221000D02*
D03*
X3107979Y3272021D02*
D03*
X3322000Y3793000D02*
D03*
Y3704000D02*
D03*
X3156000Y3010000D02*
D03*
X3435054Y3148000D02*
D03*
X3387000Y3703000D02*
D03*
X3356000Y3827000D02*
D03*
X2616000Y3692000D02*
D03*
X3185000Y3808000D02*
D03*
X3485000Y3761000D02*
D03*
X3524000Y3705000D02*
D03*
X2489000Y3671000D02*
D03*
X4510000Y2971000D02*
D03*
X4395000Y2926000D02*
D03*
X4459000Y2939000D02*
D03*
X4318000Y2942000D02*
D03*
X4338000Y2977000D02*
D03*
X4367000Y3005000D02*
D03*
X4329000Y3033000D02*
D03*
X4250000Y3089000D02*
D03*
X4400000Y3061000D02*
D03*
X4556000Y2999000D02*
D03*
X4614000Y3018000D02*
D03*
X4214000Y3123000D02*
D03*
X5144000Y5426000D02*
D03*
X4231000Y5586000D02*
D03*
X4213000Y5623000D02*
D03*
X4246000Y5448000D02*
D03*
X3637921Y5599921D02*
D03*
X4419000Y5419000D02*
D03*
X4412000Y5520000D02*
D03*
X6142000Y2626000D02*
D03*
X6108000Y2654000D02*
D03*
X6056000Y2514000D02*
D03*
X6020000Y2540000D02*
D03*
X4147000Y3966000D02*
D03*
X4096000Y3975000D02*
D03*
X4079000Y3895000D02*
D03*
X4037000Y3914000D02*
D03*
X4275000Y3931000D02*
D03*
X4314536Y3945000D02*
D03*
X4509000Y3520000D02*
D03*
X4527000Y3479898D02*
D03*
X4633000Y3468000D02*
D03*
X4662000Y3437000D02*
D03*
X4788000Y3465000D02*
D03*
X4748000Y3449000D02*
D03*
X5005000Y3826000D02*
D03*
X5046000Y3800000D02*
D03*
X5091000Y3806000D02*
D03*
X4912000Y4040000D02*
D03*
X4663000Y4288000D02*
D03*
X4556456Y4350000D02*
D03*
X4494000Y4323000D02*
D03*
X4552000Y4286000D02*
D03*
X4768544Y4134000D02*
D03*
X4799000Y4108000D02*
D03*
X4294000Y4498000D02*
D03*
X5250000Y4257000D02*
D03*
X4741000Y5404000D02*
D03*
X4701000Y5469000D02*
D03*
X4667000Y5433000D02*
D03*
X4628000Y5476000D02*
D03*
X6577000Y3960000D02*
D03*
X5792000Y2593000D02*
D03*
X5757000Y2626000D02*
D03*
X5707000Y2671000D02*
D03*
X5803000Y2350000D02*
D03*
X5767000Y2396000D02*
D03*
X5714000Y2393000D02*
D03*
X5839000Y2379000D02*
D03*
X5853000Y2431000D02*
D03*
X5828000Y2566000D02*
D03*
X6054000Y1842285D02*
D03*
X5978000Y1943000D02*
D03*
X5950000Y2042000D02*
D03*
X5922000Y2142000D02*
D03*
X5894000Y2242000D02*
D03*
X5992000Y1843000D02*
D03*
X5879715Y2342285D02*
D03*
X6053715Y2442285D02*
D03*
X6373000Y2242285D02*
D03*
X6400000Y2342000D02*
D03*
X6428000Y2444000D02*
D03*
X5360000Y2141000D02*
D03*
X5391000Y2238000D02*
D03*
X5432000Y2332000D02*
D03*
X5482000Y2437000D02*
D03*
X5263000Y2439063D02*
D03*
X5262000Y2338063D02*
D03*
X4753000Y2521000D02*
D03*
X4761000Y2628000D02*
D03*
X4809000Y2504000D02*
D03*
X4644000Y2559000D02*
D03*
X4686000Y2563000D02*
D03*
X4747000Y2475000D02*
D03*
X4776000Y2403000D02*
D03*
X4845000Y2473000D02*
D03*
X4874000Y2514544D02*
D03*
X4911000Y2474000D02*
D03*
X4939000Y2528000D02*
D03*
X4971000Y2471000D02*
D03*
X4799000Y2340000D02*
D03*
X4864000Y1938000D02*
D03*
X4169000Y2240000D02*
D03*
X3483701Y2498000D02*
D03*
X3427000Y2475799D02*
D03*
X3508000Y1932000D02*
D03*
X3539000Y2039000D02*
D03*
X3568000Y2138000D02*
D03*
X3599000Y2230000D02*
D03*
X3627000Y2335000D02*
D03*
X3656000Y2390000D02*
D03*
X3345000Y2530000D02*
D03*
X3391000Y2591000D02*
D03*
X3468000Y1866000D02*
D03*
X2444500Y2267500D02*
D03*
X2720000Y1778000D02*
D03*
X2300000Y5091000D02*
D03*
X2593000Y5093000D02*
D03*
X6371000Y4704000D02*
D03*
X6305000Y4770000D02*
D03*
X6627000Y3821000D02*
D03*
X4838000Y5308000D02*
D03*
X4590000D02*
D03*
X2976871Y5617871D02*
D03*
X3255000Y5421000D02*
D03*
X3187485Y5518485D02*
D03*
X6479000Y3983000D02*
D03*
X3353298Y5725702D02*
D03*
X4337299Y5485000D02*
D03*
X4357000Y5558000D02*
D03*
X2822000Y3951000D02*
D03*
X2821214Y3542000D02*
D03*
X2794000Y5097000D02*
D03*
X3182000Y4049000D02*
D03*
X3568000Y5579000D02*
D03*
X5159000Y5059000D02*
D03*
X2979000Y5517000D02*
D03*
X3857000Y5250000D02*
D03*
X4455456Y4784000D02*
D03*
X3611000Y5341000D02*
D03*
X4307000Y5415000D02*
D03*
X3682000Y3646000D02*
D03*
X6327000Y2780000D02*
D03*
X3102000Y3694000D02*
D03*
X3230000Y4102000D02*
D03*
X3105979Y3113021D02*
D03*
X2541000Y3620000D02*
D03*
X2667000Y3733000D02*
D03*
X2968000Y3272000D02*
D03*
X5196000Y4223000D02*
D03*
X4944000Y3976000D02*
D03*
X6367000Y3122000D02*
D03*
X2811000Y1778000D02*
D03*
X3119092Y1932092D02*
D03*
X3119000Y2038000D02*
D03*
X3124000Y2135000D02*
D03*
X3125000Y2232000D02*
D03*
X3131000Y2333000D02*
D03*
X3130000Y2434000D02*
D03*
X2414000Y2200000D02*
D03*
X3861036Y2133964D02*
D03*
X3858000Y2033000D02*
D03*
X4182964Y2133964D02*
D03*
X4185964Y1833964D02*
D03*
X4153964Y1733964D02*
D03*
X6303715Y2342285D02*
D03*
X6304285Y2442285D02*
D03*
X6308285Y2242285D02*
D03*
X6054715Y2342285D02*
D03*
X6055285Y2242285D02*
D03*
X6054715Y2142285D02*
D03*
X6052285Y2042285D02*
D03*
X6054715Y1942715D02*
D03*
X4822000Y2238000D02*
D03*
X4843000Y2138000D02*
D03*
X4866000Y2040000D02*
D03*
X5255063Y2239063D02*
D03*
X5263937Y2139063D02*
D03*
X5259937Y2039063D02*
D03*
X5262937Y1939063D02*
D03*
X5265937Y1839063D02*
D03*
X4880937D02*
D03*
X4940937Y1739063D02*
D03*
D93*
X4269000Y5849000D02*
D03*
D94*
X4954000Y3771000D02*
D03*
X4959000Y4271827D02*
D03*
X4903000Y4248000D02*
D03*
%TF.MD5,68d64a38e2faa9785d488ffb4c53c33f*%
M02*
