%TF.GenerationSoftware,Altium Limited,Altium Designer,18.1.9 (240)*%
G04 Layer_Color=8388736*
%FSLAX26Y26*%
%MOIN*%
%TF.FileFunction,Soldermask,Top*%
%TF.Part,Single*%
G01*
G75*
%TA.AperFunction,SMDPad,CuDef*%
%ADD48R,0.043433X0.039496*%
%TA.AperFunction,ViaPad*%
%ADD49C,0.178000*%
%TA.AperFunction,ComponentPad*%
%ADD50C,0.070992*%
%ADD51C,0.047370*%
%TA.AperFunction,ViaPad*%
%ADD52C,0.038000*%
%ADD53C,0.048000*%
%TA.AperFunction,SMDPad,CuDef*%
%ADD59R,0.053276X0.088709*%
%ADD60R,0.023748X0.061150*%
%ADD61R,0.070992X0.063118*%
%ADD62R,0.065087X0.059181*%
%ADD63R,0.082803X0.082803*%
%ADD64O,0.072961X0.027685*%
%ADD65R,0.061150X0.019811*%
%ADD66R,0.019811X0.061150*%
%ADD67O,0.031622X0.065087*%
%ADD68R,0.053276X0.061150*%
%ADD69R,0.041465X0.045402*%
%ADD70R,0.045402X0.041465*%
%ADD71R,0.061150X0.053276*%
%ADD72R,0.031622X0.037528*%
%ADD73R,0.102488X0.037921*%
%ADD74R,0.051307X0.059181*%
%ADD75R,0.047370X0.078866*%
%ADD76R,0.065087X0.061150*%
%ADD77R,0.082803X0.043433*%
%ADD78R,0.039496X0.043433*%
%ADD79R,0.059181X0.051307*%
%ADD80R,0.043433X0.047370*%
%ADD81R,0.047370X0.043433*%
D48*
X5888370Y5564000D02*
D03*
X5809630Y5526599D02*
D03*
Y5601402D02*
D03*
X6498372Y2704952D02*
D03*
X6419632Y2667550D02*
D03*
Y2742353D02*
D03*
X6498372Y3084240D02*
D03*
X6419632Y3046839D02*
D03*
Y3121642D02*
D03*
D49*
X2300000Y1480000D02*
D03*
X6865000D02*
D03*
Y5818000D02*
D03*
X2300000D02*
D03*
D50*
X6643000Y4362000D02*
D03*
Y4262000D02*
D03*
X6308000Y4361000D02*
D03*
Y4261000D02*
D03*
X3495000Y4954000D02*
D03*
X3298150D02*
D03*
X3495000Y4757150D02*
D03*
X3298150D02*
D03*
X5038544Y2439063D02*
D03*
Y2339063D02*
D03*
Y2239063D02*
D03*
Y2139063D02*
D03*
Y2039063D02*
D03*
Y1939063D02*
D03*
Y1839063D02*
D03*
Y1739063D02*
D03*
X5138544D02*
D03*
Y1839063D02*
D03*
Y1939063D02*
D03*
Y2039063D02*
D03*
Y2139063D02*
D03*
Y2239063D02*
D03*
Y2339063D02*
D03*
Y2439063D02*
D03*
X6226664Y2442285D02*
D03*
Y2342285D02*
D03*
Y2242285D02*
D03*
Y2142285D02*
D03*
Y2042285D02*
D03*
Y1942285D02*
D03*
Y1842285D02*
D03*
Y1742285D02*
D03*
X6126664D02*
D03*
Y1842285D02*
D03*
Y1942285D02*
D03*
Y2042285D02*
D03*
Y2142285D02*
D03*
Y2242285D02*
D03*
Y2342285D02*
D03*
Y2442285D02*
D03*
X4055063Y2433964D02*
D03*
Y2333964D02*
D03*
Y2233964D02*
D03*
Y2133964D02*
D03*
Y2033964D02*
D03*
Y1933964D02*
D03*
Y1833964D02*
D03*
Y1733964D02*
D03*
X3955063D02*
D03*
Y1833964D02*
D03*
Y1933964D02*
D03*
Y2033964D02*
D03*
Y2133964D02*
D03*
Y2233964D02*
D03*
Y2333964D02*
D03*
Y2433964D02*
D03*
X2998534Y2432092D02*
D03*
Y2332092D02*
D03*
Y2232092D02*
D03*
Y2132092D02*
D03*
Y2032092D02*
D03*
Y1932092D02*
D03*
Y1832092D02*
D03*
Y1732092D02*
D03*
X2898534D02*
D03*
Y1832092D02*
D03*
Y1932092D02*
D03*
Y2032092D02*
D03*
Y2132092D02*
D03*
Y2232092D02*
D03*
Y2332092D02*
D03*
Y2432092D02*
D03*
X6655000Y5640000D02*
D03*
Y5540000D02*
D03*
D51*
X2592000Y5307000D02*
D03*
X2792000D02*
D03*
X2692000D02*
D03*
X2598000Y4540000D02*
D03*
X2798000D02*
D03*
X2698000D02*
D03*
X2594000Y4922000D02*
D03*
X2794000D02*
D03*
X2694000D02*
D03*
D52*
X2609000Y5656000D02*
D03*
X2890000Y3040000D02*
D03*
X5087000Y5388000D02*
D03*
X4184000Y3930000D02*
D03*
X4112000Y3857425D02*
D03*
X6561000Y5206000D02*
D03*
X6324717Y3482716D02*
D03*
X6206245D02*
D03*
X6559000Y3420000D02*
D03*
X6363000Y3432000D02*
D03*
X6348000Y5113000D02*
D03*
X2769000Y2809000D02*
D03*
X4542000Y5411000D02*
D03*
X5001000Y5267000D02*
D03*
X3817000Y3227000D02*
D03*
X6446000Y4220000D02*
D03*
X6517000Y4158000D02*
D03*
X4429000Y4735000D02*
D03*
X4504000Y4817000D02*
D03*
X4558425Y5534425D02*
D03*
X3775000Y5800000D02*
D03*
Y5666000D02*
D03*
X3797000Y5628000D02*
D03*
X3653000Y5746000D02*
D03*
X3684000Y5673000D02*
D03*
X3589000Y5789000D02*
D03*
X3516000Y5778000D02*
D03*
X6772000Y3710000D02*
D03*
X3936000Y4835000D02*
D03*
X3693000Y4206000D02*
D03*
X2378000Y1814000D02*
D03*
X3097908Y1832092D02*
D03*
X5975000Y2987000D02*
D03*
X5688000Y1547000D02*
D03*
X4345000Y1610000D02*
D03*
X4390000Y2669000D02*
D03*
X5449000Y4551000D02*
D03*
X6482068Y4641000D02*
D03*
X3261051Y3788000D02*
D03*
X3732000Y3637000D02*
D03*
X3593000Y3400000D02*
D03*
X3550000Y3413000D02*
D03*
X3661000Y3300000D02*
D03*
X3708000Y3275000D02*
D03*
X3337000Y3266000D02*
D03*
X3287000Y3231000D02*
D03*
X3247000Y3281000D02*
D03*
X3209000Y3239000D02*
D03*
X3172000Y3274000D02*
D03*
X3125000Y3406000D02*
D03*
X3140000Y3221000D02*
D03*
X3107979Y3272021D02*
D03*
X3322000Y3793000D02*
D03*
Y3704000D02*
D03*
X3156000Y3010000D02*
D03*
X3435054Y3148000D02*
D03*
X3387000Y3703000D02*
D03*
X3356000Y3827000D02*
D03*
X2616000Y3692000D02*
D03*
X3185000Y3808000D02*
D03*
X3485000Y3761000D02*
D03*
X3524000Y3705000D02*
D03*
X2489000Y3671000D02*
D03*
X4510000Y2971000D02*
D03*
X4395000Y2926000D02*
D03*
X4459000Y2939000D02*
D03*
X4318000Y2942000D02*
D03*
X4338000Y2977000D02*
D03*
X4367000Y3005000D02*
D03*
X4329000Y3033000D02*
D03*
X4250000Y3089000D02*
D03*
X4400000Y3061000D02*
D03*
X4556000Y2999000D02*
D03*
X4614000Y3018000D02*
D03*
X4214000Y3123000D02*
D03*
X5144000Y5426000D02*
D03*
X4231000Y5586000D02*
D03*
X4213000Y5623000D02*
D03*
X4246000Y5448000D02*
D03*
X3637921Y5599921D02*
D03*
X4419000Y5419000D02*
D03*
X4412000Y5520000D02*
D03*
X6142000Y2626000D02*
D03*
X6108000Y2654000D02*
D03*
X6056000Y2514000D02*
D03*
X6020000Y2540000D02*
D03*
X4147000Y3966000D02*
D03*
X4096000Y3975000D02*
D03*
X4079000Y3895000D02*
D03*
X4037000Y3914000D02*
D03*
X4275000Y3931000D02*
D03*
X4314536Y3945000D02*
D03*
X4509000Y3520000D02*
D03*
X4527000Y3479898D02*
D03*
X4633000Y3468000D02*
D03*
X4662000Y3437000D02*
D03*
X4788000Y3465000D02*
D03*
X4748000Y3449000D02*
D03*
X4954000Y3771000D02*
D03*
X5005000Y3826000D02*
D03*
X5046000Y3800000D02*
D03*
X5091000Y3806000D02*
D03*
X4912000Y4040000D02*
D03*
X4663000Y4288000D02*
D03*
X4556456Y4350000D02*
D03*
X4494000Y4323000D02*
D03*
X4552000Y4286000D02*
D03*
X4768544Y4134000D02*
D03*
X4799000Y4108000D02*
D03*
X4294000Y4498000D02*
D03*
X5250000Y4257000D02*
D03*
X4959000Y4271827D02*
D03*
X4741000Y5404000D02*
D03*
X4701000Y5469000D02*
D03*
X4667000Y5433000D02*
D03*
X4628000Y5476000D02*
D03*
X6577000Y3960000D02*
D03*
X5792000Y2593000D02*
D03*
X5757000Y2626000D02*
D03*
X5707000Y2671000D02*
D03*
X5803000Y2350000D02*
D03*
X5767000Y2396000D02*
D03*
X5714000Y2393000D02*
D03*
X5839000Y2379000D02*
D03*
X5853000Y2431000D02*
D03*
X5828000Y2566000D02*
D03*
X6054000Y1842285D02*
D03*
X5978000Y1943000D02*
D03*
X5950000Y2042000D02*
D03*
X5922000Y2142000D02*
D03*
X5894000Y2242000D02*
D03*
X5992000Y1843000D02*
D03*
X5879715Y2342285D02*
D03*
X6053715Y2442285D02*
D03*
X6373000Y2242285D02*
D03*
X6400000Y2342000D02*
D03*
X6428000Y2444000D02*
D03*
X5360000Y2141000D02*
D03*
X5391000Y2238000D02*
D03*
X5432000Y2332000D02*
D03*
X5482000Y2437000D02*
D03*
X5263000Y2439063D02*
D03*
X5262000Y2338063D02*
D03*
X4753000Y2521000D02*
D03*
X4761000Y2628000D02*
D03*
X4809000Y2504000D02*
D03*
X4644000Y2559000D02*
D03*
X4686000Y2563000D02*
D03*
X4747000Y2475000D02*
D03*
X4776000Y2403000D02*
D03*
X4845000Y2473000D02*
D03*
X4874000Y2514544D02*
D03*
X4911000Y2474000D02*
D03*
X4939000Y2528000D02*
D03*
X4971000Y2471000D02*
D03*
X4799000Y2340000D02*
D03*
X4864000Y1938000D02*
D03*
X4169000Y2240000D02*
D03*
X3483701Y2498000D02*
D03*
X3427000Y2475799D02*
D03*
X3508000Y1932000D02*
D03*
X3539000Y2039000D02*
D03*
X3568000Y2138000D02*
D03*
X3599000Y2230000D02*
D03*
X3627000Y2335000D02*
D03*
X3656000Y2390000D02*
D03*
X3345000Y2530000D02*
D03*
X3391000Y2591000D02*
D03*
X3468000Y1866000D02*
D03*
X2444500Y2267500D02*
D03*
X2720000Y1778000D02*
D03*
X2300000Y5091000D02*
D03*
X2593000Y5093000D02*
D03*
X6371000Y4704000D02*
D03*
X6305000Y4770000D02*
D03*
X6627000Y3821000D02*
D03*
X4838000Y5308000D02*
D03*
X4590000D02*
D03*
X2976871Y5617871D02*
D03*
X3255000Y5421000D02*
D03*
X3187485Y5518485D02*
D03*
X6479000Y3983000D02*
D03*
X3353298Y5725702D02*
D03*
X4337299Y5485000D02*
D03*
X4357000Y5558000D02*
D03*
X2822000Y3951000D02*
D03*
X2821214Y3542000D02*
D03*
X2794000Y5097000D02*
D03*
X3182000Y4049000D02*
D03*
X3568000Y5579000D02*
D03*
X5159000Y5059000D02*
D03*
X2979000Y5517000D02*
D03*
X3857000Y5250000D02*
D03*
X4455456Y4784000D02*
D03*
X3611000Y5341000D02*
D03*
X4307000Y5415000D02*
D03*
X3682000Y3646000D02*
D03*
X6327000Y2780000D02*
D03*
X3102000Y3694000D02*
D03*
X3230000Y4102000D02*
D03*
X3105979Y3113021D02*
D03*
X2541000Y3620000D02*
D03*
X2667000Y3733000D02*
D03*
X2968000Y3272000D02*
D03*
X5196000Y4223000D02*
D03*
X4903000Y4248000D02*
D03*
X4944000Y3976000D02*
D03*
X6367000Y3122000D02*
D03*
X2811000Y1778000D02*
D03*
X3119092Y1932092D02*
D03*
X3119000Y2038000D02*
D03*
X3124000Y2135000D02*
D03*
X3125000Y2232000D02*
D03*
X3131000Y2333000D02*
D03*
X3130000Y2434000D02*
D03*
X2414000Y2200000D02*
D03*
X3861036Y2133964D02*
D03*
X3858000Y2033000D02*
D03*
X4182964Y2133964D02*
D03*
X4185964Y1833964D02*
D03*
X4153964Y1733964D02*
D03*
X6303715Y2342285D02*
D03*
X6304285Y2442285D02*
D03*
X6308285Y2242285D02*
D03*
X6054715Y2342285D02*
D03*
X6055285Y2242285D02*
D03*
X6054715Y2142285D02*
D03*
X6052285Y2042285D02*
D03*
X6054715Y1942715D02*
D03*
X4822000Y2238000D02*
D03*
X4843000Y2138000D02*
D03*
X4866000Y2040000D02*
D03*
X5255063Y2239063D02*
D03*
X5263937Y2139063D02*
D03*
X5259937Y2039063D02*
D03*
X5262937Y1939063D02*
D03*
X5265937Y1839063D02*
D03*
X4880937D02*
D03*
X4940937Y1739063D02*
D03*
D53*
X4269000Y5849000D02*
D03*
D59*
X6069000Y5772000D02*
D03*
X5712000Y5600000D02*
D03*
X6490000Y5774000D02*
D03*
D60*
X4558425Y5737685D02*
D03*
X4532835D02*
D03*
X4507244D02*
D03*
X4481654D02*
D03*
X4456063D02*
D03*
D61*
X4633228Y5746543D02*
D03*
X4381260D02*
D03*
D62*
X4642087Y5843000D02*
D03*
X4372402D02*
D03*
D63*
X4554488D02*
D03*
X4460000D02*
D03*
D64*
X4152717Y5387008D02*
D03*
Y5413622D02*
D03*
Y5440236D02*
D03*
Y5466850D02*
D03*
Y5493465D02*
D03*
Y5520079D02*
D03*
Y5546693D02*
D03*
Y5573307D02*
D03*
Y5599921D02*
D03*
Y5626535D02*
D03*
Y5653150D02*
D03*
Y5679764D02*
D03*
Y5706378D02*
D03*
Y5732992D02*
D03*
X3867284Y5387008D02*
D03*
Y5413622D02*
D03*
Y5440236D02*
D03*
Y5466850D02*
D03*
Y5493465D02*
D03*
Y5520079D02*
D03*
Y5546693D02*
D03*
Y5573307D02*
D03*
Y5599921D02*
D03*
Y5626535D02*
D03*
Y5653150D02*
D03*
Y5679764D02*
D03*
Y5706378D02*
D03*
Y5732992D02*
D03*
D65*
X4383622Y3967638D02*
D03*
Y3947953D02*
D03*
Y3928268D02*
D03*
Y3908583D02*
D03*
Y3888898D02*
D03*
Y3869213D02*
D03*
Y3849528D02*
D03*
Y3829843D02*
D03*
Y3810157D02*
D03*
Y3790472D02*
D03*
Y3770787D02*
D03*
Y3751102D02*
D03*
Y3731417D02*
D03*
Y3711732D02*
D03*
Y3692047D02*
D03*
Y3672362D02*
D03*
X4836378D02*
D03*
Y3692047D02*
D03*
Y3711732D02*
D03*
Y3731417D02*
D03*
Y3751102D02*
D03*
Y3770787D02*
D03*
Y3790472D02*
D03*
Y3810157D02*
D03*
Y3829843D02*
D03*
Y3849528D02*
D03*
Y3869213D02*
D03*
Y3888898D02*
D03*
Y3908583D02*
D03*
Y3928268D02*
D03*
Y3947953D02*
D03*
Y3967638D02*
D03*
D66*
X4462362Y3593622D02*
D03*
X4482047D02*
D03*
X4501732D02*
D03*
X4521417D02*
D03*
X4541102D02*
D03*
X4560787D02*
D03*
X4580472D02*
D03*
X4600157D02*
D03*
X4619842D02*
D03*
X4639528D02*
D03*
X4659213D02*
D03*
X4678898D02*
D03*
X4698583D02*
D03*
X4718268D02*
D03*
X4737953D02*
D03*
X4757638D02*
D03*
Y4046378D02*
D03*
X4737953D02*
D03*
X4718268D02*
D03*
X4698583D02*
D03*
X4678898D02*
D03*
X4659213D02*
D03*
X4639528D02*
D03*
X4619842D02*
D03*
X4600157D02*
D03*
X4580472D02*
D03*
X4560787D02*
D03*
X4541102D02*
D03*
X4521417D02*
D03*
X4501732D02*
D03*
X4482047D02*
D03*
X4462362D02*
D03*
D67*
X6557000Y3699283D02*
D03*
X6507000D02*
D03*
X6457000D02*
D03*
X6407000D02*
D03*
X6557000Y3484716D02*
D03*
X6507000D02*
D03*
X6457000D02*
D03*
X6407000D02*
D03*
X6410000Y4926717D02*
D03*
X6460000D02*
D03*
X6510000D02*
D03*
X6560000D02*
D03*
X6410000Y5141283D02*
D03*
X6460000D02*
D03*
X6510000D02*
D03*
X6560000D02*
D03*
D68*
X3463596Y5408159D02*
D03*
X3394699D02*
D03*
X3463596Y5634710D02*
D03*
X3394699D02*
D03*
X3040145Y5518485D02*
D03*
X3109042D02*
D03*
X3042230Y5617871D02*
D03*
X3111127D02*
D03*
D69*
X5205812Y5346981D02*
D03*
X5256993D02*
D03*
X5203819Y5741000D02*
D03*
X5255000D02*
D03*
D70*
X6304000Y3647409D02*
D03*
Y3698590D02*
D03*
X6305068Y4099369D02*
D03*
Y4048188D02*
D03*
X6643000Y4051819D02*
D03*
Y4103000D02*
D03*
X6651000Y5092591D02*
D03*
Y5041409D02*
D03*
X6641068Y4523779D02*
D03*
Y4574960D02*
D03*
X6307698Y4576369D02*
D03*
Y4525188D02*
D03*
D71*
X5609000Y5554000D02*
D03*
Y5485102D02*
D03*
X5969000Y5772000D02*
D03*
Y5703102D02*
D03*
D72*
X6599435Y2750227D02*
D03*
Y2704952D02*
D03*
X6600986Y3129516D02*
D03*
Y3084240D02*
D03*
D73*
X4813228Y5745000D02*
D03*
X4966772D02*
D03*
X4813228Y5695000D02*
D03*
X4966772D02*
D03*
X4813228Y5645000D02*
D03*
X4966772D02*
D03*
X4813228Y5595000D02*
D03*
X4966772D02*
D03*
X4813228Y5545000D02*
D03*
X4966772D02*
D03*
D74*
X6352724Y5569000D02*
D03*
X6443276D02*
D03*
X3394449Y5289000D02*
D03*
X3485000D02*
D03*
X3394024Y5521238D02*
D03*
X3484576D02*
D03*
D75*
X6291000Y5776000D02*
D03*
X6401236D02*
D03*
D76*
X5609000Y5773000D02*
D03*
Y5656858D02*
D03*
D77*
X6182000Y5604370D02*
D03*
Y5775630D02*
D03*
D78*
X6485598Y4696260D02*
D03*
X6448197Y4775000D02*
D03*
X6523000D02*
D03*
X6479000Y3904370D02*
D03*
X6516401Y3825630D02*
D03*
X6441598D02*
D03*
D79*
X6708467Y2659676D02*
D03*
Y2750227D02*
D03*
Y3042904D02*
D03*
Y3133456D02*
D03*
D80*
X5255000Y5581000D02*
D03*
X5201850D02*
D03*
X5256014Y5504462D02*
D03*
X5202864D02*
D03*
X5255537Y5430084D02*
D03*
X5202387D02*
D03*
X5255000Y5661000D02*
D03*
X5201850D02*
D03*
X6506643Y3376779D02*
D03*
X6453493D02*
D03*
X3455722Y5725702D02*
D03*
X3402573D02*
D03*
X3111127Y5717241D02*
D03*
X3057978D02*
D03*
X3050459Y5421021D02*
D03*
X3103609D02*
D03*
X6457425Y5260000D02*
D03*
X6510575D02*
D03*
D81*
X6480068Y4100354D02*
D03*
Y4047204D02*
D03*
X6482068Y4524204D02*
D03*
Y4577354D02*
D03*
%TF.MD5,e31812c5b02bcfa0feb05fa0de74a41a*%
M02*
