%TF.GenerationSoftware,Altium Limited,Altium Designer,18.1.9 (240)*%
G04 Layer_Color=2752767*
%FSLAX26Y26*%
%MOIN*%
%TF.FileFunction,Drawing*%
%TF.Part,Single*%
G01*
G75*
%TA.AperFunction,NonConductor*%
%ADD96C,0.005000*%
%ADD97C,0.006667*%
D96*
X2280000Y1460000D02*
Y1500000D01*
X2320000D01*
Y1460000D01*
X2280000D01*
X6845000D02*
Y1500000D01*
X6885000D01*
Y1460000D01*
X6845000D01*
Y5798000D02*
Y5838000D01*
X6885000D01*
Y5798000D01*
X6845000D01*
X2280000D02*
Y5838000D01*
X2320000D01*
Y5798000D01*
X2280000D01*
X3495000Y4934000D02*
X3475000Y4974000D01*
X3515000D01*
X3495000Y4934000D01*
X3298150D02*
X3278150Y4974000D01*
X3318150D01*
X3298150Y4934000D01*
X3495000Y4737150D02*
X3475000Y4777150D01*
X3515000D01*
X3495000Y4737150D01*
X3298150D02*
X3278150Y4777150D01*
X3318150D01*
X3298150Y4737150D01*
X2592000Y5287000D02*
X2602000Y5297000D01*
X2612000D01*
X2602000Y5307000D01*
X2612000Y5317000D01*
X2602000D01*
X2592000Y5327000D01*
X2582000Y5317000D01*
X2572000D01*
X2582000Y5307000D01*
X2572000Y5297000D01*
X2582000D01*
X2592000Y5287000D01*
X2792000D02*
X2802000Y5297000D01*
X2812000D01*
X2802000Y5307000D01*
X2812000Y5317000D01*
X2802000D01*
X2792000Y5327000D01*
X2782000Y5317000D01*
X2772000D01*
X2782000Y5307000D01*
X2772000Y5297000D01*
X2782000D01*
X2792000Y5287000D01*
X2692000D02*
X2702000Y5297000D01*
X2712000D01*
X2702000Y5307000D01*
X2712000Y5317000D01*
X2702000D01*
X2692000Y5327000D01*
X2682000Y5317000D01*
X2672000D01*
X2682000Y5307000D01*
X2672000Y5297000D01*
X2682000D01*
X2692000Y5287000D01*
X2598000Y4520000D02*
X2608000Y4530000D01*
X2618000D01*
X2608000Y4540000D01*
X2618000Y4550000D01*
X2608000D01*
X2598000Y4560000D01*
X2588000Y4550000D01*
X2578000D01*
X2588000Y4540000D01*
X2578000Y4530000D01*
X2588000D01*
X2598000Y4520000D01*
X2798000D02*
X2808000Y4530000D01*
X2818000D01*
X2808000Y4540000D01*
X2818000Y4550000D01*
X2808000D01*
X2798000Y4560000D01*
X2788000Y4550000D01*
X2778000D01*
X2788000Y4540000D01*
X2778000Y4530000D01*
X2788000D01*
X2798000Y4520000D01*
X2698000D02*
X2708000Y4530000D01*
X2718000D01*
X2708000Y4540000D01*
X2718000Y4550000D01*
X2708000D01*
X2698000Y4560000D01*
X2688000Y4550000D01*
X2678000D01*
X2688000Y4540000D01*
X2678000Y4530000D01*
X2688000D01*
X2698000Y4520000D01*
X2594000Y4902000D02*
X2604000Y4912000D01*
X2614000D01*
X2604000Y4922000D01*
X2614000Y4932000D01*
X2604000D01*
X2594000Y4942000D01*
X2584000Y4932000D01*
X2574000D01*
X2584000Y4922000D01*
X2574000Y4912000D01*
X2584000D01*
X2594000Y4902000D01*
X2794000D02*
X2804000Y4912000D01*
X2814000D01*
X2804000Y4922000D01*
X2814000Y4932000D01*
X2804000D01*
X2794000Y4942000D01*
X2784000Y4932000D01*
X2774000D01*
X2784000Y4922000D01*
X2774000Y4912000D01*
X2784000D01*
X2794000Y4902000D01*
X2694000D02*
X2704000Y4912000D01*
X2714000D01*
X2704000Y4922000D01*
X2714000Y4932000D01*
X2704000D01*
X2694000Y4942000D01*
X2684000Y4932000D01*
X2674000D01*
X2684000Y4922000D01*
X2674000Y4912000D01*
X2684000D01*
X2694000Y4902000D01*
X5038544Y2419063D02*
X5018544Y2459063D01*
X5058544D01*
X5038544Y2419063D01*
Y2319063D02*
X5018544Y2359063D01*
X5058544D01*
X5038544Y2319063D01*
Y2219063D02*
X5018544Y2259063D01*
X5058544D01*
X5038544Y2219063D01*
Y2119063D02*
X5018544Y2159063D01*
X5058544D01*
X5038544Y2119063D01*
Y2019063D02*
X5018544Y2059063D01*
X5058544D01*
X5038544Y2019063D01*
Y1919063D02*
X5018544Y1959063D01*
X5058544D01*
X5038544Y1919063D01*
Y1819063D02*
X5018544Y1859063D01*
X5058544D01*
X5038544Y1819063D01*
Y1719063D02*
X5018544Y1759063D01*
X5058544D01*
X5038544Y1719063D01*
X5138544D02*
X5118544Y1759063D01*
X5158544D01*
X5138544Y1719063D01*
Y1819063D02*
X5118544Y1859063D01*
X5158544D01*
X5138544Y1819063D01*
Y1919063D02*
X5118544Y1959063D01*
X5158544D01*
X5138544Y1919063D01*
Y2019063D02*
X5118544Y2059063D01*
X5158544D01*
X5138544Y2019063D01*
Y2119063D02*
X5118544Y2159063D01*
X5158544D01*
X5138544Y2119063D01*
Y2219063D02*
X5118544Y2259063D01*
X5158544D01*
X5138544Y2219063D01*
Y2319063D02*
X5118544Y2359063D01*
X5158544D01*
X5138544Y2319063D01*
Y2419063D02*
X5118544Y2459063D01*
X5158544D01*
X5138544Y2419063D01*
X6226664Y2422285D02*
X6206664Y2462285D01*
X6246664D01*
X6226664Y2422285D01*
Y2322285D02*
X6206664Y2362285D01*
X6246664D01*
X6226664Y2322285D01*
Y2222285D02*
X6206664Y2262285D01*
X6246664D01*
X6226664Y2222285D01*
Y2122285D02*
X6206664Y2162285D01*
X6246664D01*
X6226664Y2122285D01*
Y2022285D02*
X6206664Y2062285D01*
X6246664D01*
X6226664Y2022285D01*
Y1922285D02*
X6206664Y1962285D01*
X6246664D01*
X6226664Y1922285D01*
Y1822285D02*
X6206664Y1862285D01*
X6246664D01*
X6226664Y1822285D01*
Y1722285D02*
X6206664Y1762285D01*
X6246664D01*
X6226664Y1722285D01*
X6126664D02*
X6106664Y1762285D01*
X6146664D01*
X6126664Y1722285D01*
Y1822285D02*
X6106664Y1862285D01*
X6146664D01*
X6126664Y1822285D01*
Y1922285D02*
X6106664Y1962285D01*
X6146664D01*
X6126664Y1922285D01*
Y2022285D02*
X6106664Y2062285D01*
X6146664D01*
X6126664Y2022285D01*
Y2122285D02*
X6106664Y2162285D01*
X6146664D01*
X6126664Y2122285D01*
Y2222285D02*
X6106664Y2262285D01*
X6146664D01*
X6126664Y2222285D01*
Y2322285D02*
X6106664Y2362285D01*
X6146664D01*
X6126664Y2322285D01*
Y2422285D02*
X6106664Y2462285D01*
X6146664D01*
X6126664Y2422285D01*
X4055063Y2413964D02*
X4035063Y2453964D01*
X4075063D01*
X4055063Y2413964D01*
Y2313964D02*
X4035063Y2353964D01*
X4075063D01*
X4055063Y2313964D01*
Y2213964D02*
X4035063Y2253964D01*
X4075063D01*
X4055063Y2213964D01*
Y2113964D02*
X4035063Y2153964D01*
X4075063D01*
X4055063Y2113964D01*
Y2013964D02*
X4035063Y2053964D01*
X4075063D01*
X4055063Y2013964D01*
Y1913964D02*
X4035063Y1953964D01*
X4075063D01*
X4055063Y1913964D01*
Y1813964D02*
X4035063Y1853964D01*
X4075063D01*
X4055063Y1813964D01*
Y1713964D02*
X4035063Y1753964D01*
X4075063D01*
X4055063Y1713964D01*
X3955063D02*
X3935063Y1753964D01*
X3975063D01*
X3955063Y1713964D01*
Y1813964D02*
X3935063Y1853964D01*
X3975063D01*
X3955063Y1813964D01*
Y1913964D02*
X3935063Y1953964D01*
X3975063D01*
X3955063Y1913964D01*
Y2013964D02*
X3935063Y2053964D01*
X3975063D01*
X3955063Y2013964D01*
Y2113964D02*
X3935063Y2153964D01*
X3975063D01*
X3955063Y2113964D01*
Y2213964D02*
X3935063Y2253964D01*
X3975063D01*
X3955063Y2213964D01*
Y2313964D02*
X3935063Y2353964D01*
X3975063D01*
X3955063Y2313964D01*
Y2413964D02*
X3935063Y2453964D01*
X3975063D01*
X3955063Y2413964D01*
X2998534Y2412092D02*
X2978534Y2452092D01*
X3018534D01*
X2998534Y2412092D01*
Y2312092D02*
X2978534Y2352092D01*
X3018534D01*
X2998534Y2312092D01*
Y2212092D02*
X2978534Y2252092D01*
X3018534D01*
X2998534Y2212092D01*
Y2112092D02*
X2978534Y2152092D01*
X3018534D01*
X2998534Y2112092D01*
Y2012092D02*
X2978534Y2052092D01*
X3018534D01*
X2998534Y2012092D01*
Y1912092D02*
X2978534Y1952092D01*
X3018534D01*
X2998534Y1912092D01*
Y1812092D02*
X2978534Y1852092D01*
X3018534D01*
X2998534Y1812092D01*
Y1712092D02*
X2978534Y1752092D01*
X3018534D01*
X2998534Y1712092D01*
X2898534D02*
X2878534Y1752092D01*
X2918534D01*
X2898534Y1712092D01*
Y1812092D02*
X2878534Y1852092D01*
X2918534D01*
X2898534Y1812092D01*
Y1912092D02*
X2878534Y1952092D01*
X2918534D01*
X2898534Y1912092D01*
Y2012092D02*
X2878534Y2052092D01*
X2918534D01*
X2898534Y2012092D01*
Y2112092D02*
X2878534Y2152092D01*
X2918534D01*
X2898534Y2112092D01*
Y2212092D02*
X2878534Y2252092D01*
X2918534D01*
X2898534Y2212092D01*
Y2312092D02*
X2878534Y2352092D01*
X2918534D01*
X2898534Y2312092D01*
Y2412092D02*
X2878534Y2452092D01*
X2918534D01*
X2898534Y2412092D01*
X4870000Y5550000D02*
X4880000Y5570000D01*
X4870000Y5590000D01*
X4890000Y5580000D01*
X4910000Y5590000D01*
X4900000Y5570000D01*
X4910000Y5550000D01*
X4890000Y5560000D01*
X4870000Y5550000D01*
Y5700000D02*
X4880000Y5720000D01*
X4870000Y5740000D01*
X4890000Y5730000D01*
X4910000Y5740000D01*
X4900000Y5720000D01*
X4910000Y5700000D01*
X4890000Y5710000D01*
X4870000Y5700000D01*
X2599000Y5646000D02*
Y5636000D01*
X2619000D01*
Y5646000D01*
X2629000D01*
Y5666000D01*
X2619000D01*
Y5676000D01*
X2599000D01*
Y5666000D01*
X2589000D01*
Y5646000D01*
X2599000D01*
X2880000Y3030000D02*
Y3020000D01*
X2900000D01*
Y3030000D01*
X2910000D01*
Y3050000D01*
X2900000D01*
Y3060000D01*
X2880000D01*
Y3050000D01*
X2870000D01*
Y3030000D01*
X2880000D01*
X5077000Y5378000D02*
Y5368000D01*
X5097000D01*
Y5378000D01*
X5107000D01*
Y5398000D01*
X5097000D01*
Y5408000D01*
X5077000D01*
Y5398000D01*
X5067000D01*
Y5378000D01*
X5077000D01*
X4174000Y3920000D02*
Y3910000D01*
X4194000D01*
Y3920000D01*
X4204000D01*
Y3940000D01*
X4194000D01*
Y3950000D01*
X4174000D01*
Y3940000D01*
X4164000D01*
Y3920000D01*
X4174000D01*
X4102000Y3847425D02*
Y3837425D01*
X4122000D01*
Y3847425D01*
X4132000D01*
Y3867425D01*
X4122000D01*
Y3877425D01*
X4102000D01*
Y3867425D01*
X4092000D01*
Y3847425D01*
X4102000D01*
X6551000Y5196000D02*
Y5186000D01*
X6571000D01*
Y5196000D01*
X6581000D01*
Y5216000D01*
X6571000D01*
Y5226000D01*
X6551000D01*
Y5216000D01*
X6541000D01*
Y5196000D01*
X6551000D01*
X6314717Y3472716D02*
Y3462716D01*
X6334717D01*
Y3472716D01*
X6344717D01*
Y3492716D01*
X6334717D01*
Y3502716D01*
X6314717D01*
Y3492716D01*
X6304717D01*
Y3472716D01*
X6314717D01*
X6196245D02*
Y3462716D01*
X6216245D01*
Y3472716D01*
X6226245D01*
Y3492716D01*
X6216245D01*
Y3502716D01*
X6196245D01*
Y3492716D01*
X6186245D01*
Y3472716D01*
X6196245D01*
X6549000Y3410000D02*
Y3400000D01*
X6569000D01*
Y3410000D01*
X6579000D01*
Y3430000D01*
X6569000D01*
Y3440000D01*
X6549000D01*
Y3430000D01*
X6539000D01*
Y3410000D01*
X6549000D01*
X6353000Y3422000D02*
Y3412000D01*
X6373000D01*
Y3422000D01*
X6383000D01*
Y3442000D01*
X6373000D01*
Y3452000D01*
X6353000D01*
Y3442000D01*
X6343000D01*
Y3422000D01*
X6353000D01*
X6338000Y5103000D02*
Y5093000D01*
X6358000D01*
Y5103000D01*
X6368000D01*
Y5123000D01*
X6358000D01*
Y5133000D01*
X6338000D01*
Y5123000D01*
X6328000D01*
Y5103000D01*
X6338000D01*
X2759000Y2799000D02*
Y2789000D01*
X2779000D01*
Y2799000D01*
X2789000D01*
Y2819000D01*
X2779000D01*
Y2829000D01*
X2759000D01*
Y2819000D01*
X2749000D01*
Y2799000D01*
X2759000D01*
X4532000Y5401000D02*
Y5391000D01*
X4552000D01*
Y5401000D01*
X4562000D01*
Y5421000D01*
X4552000D01*
Y5431000D01*
X4532000D01*
Y5421000D01*
X4522000D01*
Y5401000D01*
X4532000D01*
X4991000Y5257000D02*
Y5247000D01*
X5011000D01*
Y5257000D01*
X5021000D01*
Y5277000D01*
X5011000D01*
Y5287000D01*
X4991000D01*
Y5277000D01*
X4981000D01*
Y5257000D01*
X4991000D01*
X3807000Y3217000D02*
Y3207000D01*
X3827000D01*
Y3217000D01*
X3837000D01*
Y3237000D01*
X3827000D01*
Y3247000D01*
X3807000D01*
Y3237000D01*
X3797000D01*
Y3217000D01*
X3807000D01*
X6436000Y4210000D02*
Y4200000D01*
X6456000D01*
Y4210000D01*
X6466000D01*
Y4230000D01*
X6456000D01*
Y4240000D01*
X6436000D01*
Y4230000D01*
X6426000D01*
Y4210000D01*
X6436000D01*
X6507000Y4148000D02*
Y4138000D01*
X6527000D01*
Y4148000D01*
X6537000D01*
Y4168000D01*
X6527000D01*
Y4178000D01*
X6507000D01*
Y4168000D01*
X6497000D01*
Y4148000D01*
X6507000D01*
X4419000Y4725000D02*
Y4715000D01*
X4439000D01*
Y4725000D01*
X4449000D01*
Y4745000D01*
X4439000D01*
Y4755000D01*
X4419000D01*
Y4745000D01*
X4409000D01*
Y4725000D01*
X4419000D01*
X4494000Y4807000D02*
Y4797000D01*
X4514000D01*
Y4807000D01*
X4524000D01*
Y4827000D01*
X4514000D01*
Y4837000D01*
X4494000D01*
Y4827000D01*
X4484000D01*
Y4807000D01*
X4494000D01*
X4548425Y5524425D02*
Y5514425D01*
X4568425D01*
Y5524425D01*
X4578425D01*
Y5544425D01*
X4568425D01*
Y5554425D01*
X4548425D01*
Y5544425D01*
X4538425D01*
Y5524425D01*
X4548425D01*
X3765000Y5790000D02*
Y5780000D01*
X3785000D01*
Y5790000D01*
X3795000D01*
Y5810000D01*
X3785000D01*
Y5820000D01*
X3765000D01*
Y5810000D01*
X3755000D01*
Y5790000D01*
X3765000D01*
Y5656000D02*
Y5646000D01*
X3785000D01*
Y5656000D01*
X3795000D01*
Y5676000D01*
X3785000D01*
Y5686000D01*
X3765000D01*
Y5676000D01*
X3755000D01*
Y5656000D01*
X3765000D01*
X3787000Y5618000D02*
Y5608000D01*
X3807000D01*
Y5618000D01*
X3817000D01*
Y5638000D01*
X3807000D01*
Y5648000D01*
X3787000D01*
Y5638000D01*
X3777000D01*
Y5618000D01*
X3787000D01*
X3643000Y5736000D02*
Y5726000D01*
X3663000D01*
Y5736000D01*
X3673000D01*
Y5756000D01*
X3663000D01*
Y5766000D01*
X3643000D01*
Y5756000D01*
X3633000D01*
Y5736000D01*
X3643000D01*
X3674000Y5663000D02*
Y5653000D01*
X3694000D01*
Y5663000D01*
X3704000D01*
Y5683000D01*
X3694000D01*
Y5693000D01*
X3674000D01*
Y5683000D01*
X3664000D01*
Y5663000D01*
X3674000D01*
X3579000Y5779000D02*
Y5769000D01*
X3599000D01*
Y5779000D01*
X3609000D01*
Y5799000D01*
X3599000D01*
Y5809000D01*
X3579000D01*
Y5799000D01*
X3569000D01*
Y5779000D01*
X3579000D01*
X3506000Y5768000D02*
Y5758000D01*
X3526000D01*
Y5768000D01*
X3536000D01*
Y5788000D01*
X3526000D01*
Y5798000D01*
X3506000D01*
Y5788000D01*
X3496000D01*
Y5768000D01*
X3506000D01*
X6762000Y3700000D02*
Y3690000D01*
X6782000D01*
Y3700000D01*
X6792000D01*
Y3720000D01*
X6782000D01*
Y3730000D01*
X6762000D01*
Y3720000D01*
X6752000D01*
Y3700000D01*
X6762000D01*
X3926000Y4825000D02*
Y4815000D01*
X3946000D01*
Y4825000D01*
X3956000D01*
Y4845000D01*
X3946000D01*
Y4855000D01*
X3926000D01*
Y4845000D01*
X3916000D01*
Y4825000D01*
X3926000D01*
X3683000Y4196000D02*
Y4186000D01*
X3703000D01*
Y4196000D01*
X3713000D01*
Y4216000D01*
X3703000D01*
Y4226000D01*
X3683000D01*
Y4216000D01*
X3673000D01*
Y4196000D01*
X3683000D01*
X2368000Y1804000D02*
Y1794000D01*
X2388000D01*
Y1804000D01*
X2398000D01*
Y1824000D01*
X2388000D01*
Y1834000D01*
X2368000D01*
Y1824000D01*
X2358000D01*
Y1804000D01*
X2368000D01*
X3087908Y1822092D02*
Y1812092D01*
X3107908D01*
Y1822092D01*
X3117908D01*
Y1842092D01*
X3107908D01*
Y1852092D01*
X3087908D01*
Y1842092D01*
X3077908D01*
Y1822092D01*
X3087908D01*
X5965000Y2977000D02*
Y2967000D01*
X5985000D01*
Y2977000D01*
X5995000D01*
Y2997000D01*
X5985000D01*
Y3007000D01*
X5965000D01*
Y2997000D01*
X5955000D01*
Y2977000D01*
X5965000D01*
X5678000Y1537000D02*
Y1527000D01*
X5698000D01*
Y1537000D01*
X5708000D01*
Y1557000D01*
X5698000D01*
Y1567000D01*
X5678000D01*
Y1557000D01*
X5668000D01*
Y1537000D01*
X5678000D01*
X4335000Y1600000D02*
Y1590000D01*
X4355000D01*
Y1600000D01*
X4365000D01*
Y1620000D01*
X4355000D01*
Y1630000D01*
X4335000D01*
Y1620000D01*
X4325000D01*
Y1600000D01*
X4335000D01*
X4380000Y2659000D02*
Y2649000D01*
X4400000D01*
Y2659000D01*
X4410000D01*
Y2679000D01*
X4400000D01*
Y2689000D01*
X4380000D01*
Y2679000D01*
X4370000D01*
Y2659000D01*
X4380000D01*
X5439000Y4541000D02*
Y4531000D01*
X5459000D01*
Y4541000D01*
X5469000D01*
Y4561000D01*
X5459000D01*
Y4571000D01*
X5439000D01*
Y4561000D01*
X5429000D01*
Y4541000D01*
X5439000D01*
X6472068Y4631000D02*
Y4621000D01*
X6492068D01*
Y4631000D01*
X6502068D01*
Y4651000D01*
X6492068D01*
Y4661000D01*
X6472068D01*
Y4651000D01*
X6462068D01*
Y4631000D01*
X6472068D01*
X3251051Y3778000D02*
Y3768000D01*
X3271051D01*
Y3778000D01*
X3281051D01*
Y3798000D01*
X3271051D01*
Y3808000D01*
X3251051D01*
Y3798000D01*
X3241051D01*
Y3778000D01*
X3251051D01*
X3722000Y3627000D02*
Y3617000D01*
X3742000D01*
Y3627000D01*
X3752000D01*
Y3647000D01*
X3742000D01*
Y3657000D01*
X3722000D01*
Y3647000D01*
X3712000D01*
Y3627000D01*
X3722000D01*
X3583000Y3390000D02*
Y3380000D01*
X3603000D01*
Y3390000D01*
X3613000D01*
Y3410000D01*
X3603000D01*
Y3420000D01*
X3583000D01*
Y3410000D01*
X3573000D01*
Y3390000D01*
X3583000D01*
X3540000Y3403000D02*
Y3393000D01*
X3560000D01*
Y3403000D01*
X3570000D01*
Y3423000D01*
X3560000D01*
Y3433000D01*
X3540000D01*
Y3423000D01*
X3530000D01*
Y3403000D01*
X3540000D01*
X3651000Y3290000D02*
Y3280000D01*
X3671000D01*
Y3290000D01*
X3681000D01*
Y3310000D01*
X3671000D01*
Y3320000D01*
X3651000D01*
Y3310000D01*
X3641000D01*
Y3290000D01*
X3651000D01*
X3698000Y3265000D02*
Y3255000D01*
X3718000D01*
Y3265000D01*
X3728000D01*
Y3285000D01*
X3718000D01*
Y3295000D01*
X3698000D01*
Y3285000D01*
X3688000D01*
Y3265000D01*
X3698000D01*
X3327000Y3256000D02*
Y3246000D01*
X3347000D01*
Y3256000D01*
X3357000D01*
Y3276000D01*
X3347000D01*
Y3286000D01*
X3327000D01*
Y3276000D01*
X3317000D01*
Y3256000D01*
X3327000D01*
X3277000Y3221000D02*
Y3211000D01*
X3297000D01*
Y3221000D01*
X3307000D01*
Y3241000D01*
X3297000D01*
Y3251000D01*
X3277000D01*
Y3241000D01*
X3267000D01*
Y3221000D01*
X3277000D01*
X3237000Y3271000D02*
Y3261000D01*
X3257000D01*
Y3271000D01*
X3267000D01*
Y3291000D01*
X3257000D01*
Y3301000D01*
X3237000D01*
Y3291000D01*
X3227000D01*
Y3271000D01*
X3237000D01*
X3199000Y3229000D02*
Y3219000D01*
X3219000D01*
Y3229000D01*
X3229000D01*
Y3249000D01*
X3219000D01*
Y3259000D01*
X3199000D01*
Y3249000D01*
X3189000D01*
Y3229000D01*
X3199000D01*
X3162000Y3264000D02*
Y3254000D01*
X3182000D01*
Y3264000D01*
X3192000D01*
Y3284000D01*
X3182000D01*
Y3294000D01*
X3162000D01*
Y3284000D01*
X3152000D01*
Y3264000D01*
X3162000D01*
X3115000Y3396000D02*
Y3386000D01*
X3135000D01*
Y3396000D01*
X3145000D01*
Y3416000D01*
X3135000D01*
Y3426000D01*
X3115000D01*
Y3416000D01*
X3105000D01*
Y3396000D01*
X3115000D01*
X3130000Y3211000D02*
Y3201000D01*
X3150000D01*
Y3211000D01*
X3160000D01*
Y3231000D01*
X3150000D01*
Y3241000D01*
X3130000D01*
Y3231000D01*
X3120000D01*
Y3211000D01*
X3130000D01*
X3097979Y3262021D02*
Y3252021D01*
X3117979D01*
Y3262021D01*
X3127979D01*
Y3282021D01*
X3117979D01*
Y3292021D01*
X3097979D01*
Y3282021D01*
X3087979D01*
Y3262021D01*
X3097979D01*
X3312000Y3783000D02*
Y3773000D01*
X3332000D01*
Y3783000D01*
X3342000D01*
Y3803000D01*
X3332000D01*
Y3813000D01*
X3312000D01*
Y3803000D01*
X3302000D01*
Y3783000D01*
X3312000D01*
Y3694000D02*
Y3684000D01*
X3332000D01*
Y3694000D01*
X3342000D01*
Y3714000D01*
X3332000D01*
Y3724000D01*
X3312000D01*
Y3714000D01*
X3302000D01*
Y3694000D01*
X3312000D01*
X3146000Y3000000D02*
Y2990000D01*
X3166000D01*
Y3000000D01*
X3176000D01*
Y3020000D01*
X3166000D01*
Y3030000D01*
X3146000D01*
Y3020000D01*
X3136000D01*
Y3000000D01*
X3146000D01*
X3425054Y3138000D02*
Y3128000D01*
X3445054D01*
Y3138000D01*
X3455054D01*
Y3158000D01*
X3445054D01*
Y3168000D01*
X3425054D01*
Y3158000D01*
X3415054D01*
Y3138000D01*
X3425054D01*
X3377000Y3693000D02*
Y3683000D01*
X3397000D01*
Y3693000D01*
X3407000D01*
Y3713000D01*
X3397000D01*
Y3723000D01*
X3377000D01*
Y3713000D01*
X3367000D01*
Y3693000D01*
X3377000D01*
X3346000Y3817000D02*
Y3807000D01*
X3366000D01*
Y3817000D01*
X3376000D01*
Y3837000D01*
X3366000D01*
Y3847000D01*
X3346000D01*
Y3837000D01*
X3336000D01*
Y3817000D01*
X3346000D01*
X2606000Y3682000D02*
Y3672000D01*
X2626000D01*
Y3682000D01*
X2636000D01*
Y3702000D01*
X2626000D01*
Y3712000D01*
X2606000D01*
Y3702000D01*
X2596000D01*
Y3682000D01*
X2606000D01*
X3175000Y3798000D02*
Y3788000D01*
X3195000D01*
Y3798000D01*
X3205000D01*
Y3818000D01*
X3195000D01*
Y3828000D01*
X3175000D01*
Y3818000D01*
X3165000D01*
Y3798000D01*
X3175000D01*
X3475000Y3751000D02*
Y3741000D01*
X3495000D01*
Y3751000D01*
X3505000D01*
Y3771000D01*
X3495000D01*
Y3781000D01*
X3475000D01*
Y3771000D01*
X3465000D01*
Y3751000D01*
X3475000D01*
X3514000Y3695000D02*
Y3685000D01*
X3534000D01*
Y3695000D01*
X3544000D01*
Y3715000D01*
X3534000D01*
Y3725000D01*
X3514000D01*
Y3715000D01*
X3504000D01*
Y3695000D01*
X3514000D01*
X2479000Y3661000D02*
Y3651000D01*
X2499000D01*
Y3661000D01*
X2509000D01*
Y3681000D01*
X2499000D01*
Y3691000D01*
X2479000D01*
Y3681000D01*
X2469000D01*
Y3661000D01*
X2479000D01*
X4500000Y2961000D02*
Y2951000D01*
X4520000D01*
Y2961000D01*
X4530000D01*
Y2981000D01*
X4520000D01*
Y2991000D01*
X4500000D01*
Y2981000D01*
X4490000D01*
Y2961000D01*
X4500000D01*
X4385000Y2916000D02*
Y2906000D01*
X4405000D01*
Y2916000D01*
X4415000D01*
Y2936000D01*
X4405000D01*
Y2946000D01*
X4385000D01*
Y2936000D01*
X4375000D01*
Y2916000D01*
X4385000D01*
X4449000Y2929000D02*
Y2919000D01*
X4469000D01*
Y2929000D01*
X4479000D01*
Y2949000D01*
X4469000D01*
Y2959000D01*
X4449000D01*
Y2949000D01*
X4439000D01*
Y2929000D01*
X4449000D01*
X4308000Y2932000D02*
Y2922000D01*
X4328000D01*
Y2932000D01*
X4338000D01*
Y2952000D01*
X4328000D01*
Y2962000D01*
X4308000D01*
Y2952000D01*
X4298000D01*
Y2932000D01*
X4308000D01*
X4328000Y2967000D02*
Y2957000D01*
X4348000D01*
Y2967000D01*
X4358000D01*
Y2987000D01*
X4348000D01*
Y2997000D01*
X4328000D01*
Y2987000D01*
X4318000D01*
Y2967000D01*
X4328000D01*
X4357000Y2995000D02*
Y2985000D01*
X4377000D01*
Y2995000D01*
X4387000D01*
Y3015000D01*
X4377000D01*
Y3025000D01*
X4357000D01*
Y3015000D01*
X4347000D01*
Y2995000D01*
X4357000D01*
X4319000Y3023000D02*
Y3013000D01*
X4339000D01*
Y3023000D01*
X4349000D01*
Y3043000D01*
X4339000D01*
Y3053000D01*
X4319000D01*
Y3043000D01*
X4309000D01*
Y3023000D01*
X4319000D01*
X4240000Y3079000D02*
Y3069000D01*
X4260000D01*
Y3079000D01*
X4270000D01*
Y3099000D01*
X4260000D01*
Y3109000D01*
X4240000D01*
Y3099000D01*
X4230000D01*
Y3079000D01*
X4240000D01*
X4390000Y3051000D02*
Y3041000D01*
X4410000D01*
Y3051000D01*
X4420000D01*
Y3071000D01*
X4410000D01*
Y3081000D01*
X4390000D01*
Y3071000D01*
X4380000D01*
Y3051000D01*
X4390000D01*
X4546000Y2989000D02*
Y2979000D01*
X4566000D01*
Y2989000D01*
X4576000D01*
Y3009000D01*
X4566000D01*
Y3019000D01*
X4546000D01*
Y3009000D01*
X4536000D01*
Y2989000D01*
X4546000D01*
X4604000Y3008000D02*
Y2998000D01*
X4624000D01*
Y3008000D01*
X4634000D01*
Y3028000D01*
X4624000D01*
Y3038000D01*
X4604000D01*
Y3028000D01*
X4594000D01*
Y3008000D01*
X4604000D01*
X4204000Y3113000D02*
Y3103000D01*
X4224000D01*
Y3113000D01*
X4234000D01*
Y3133000D01*
X4224000D01*
Y3143000D01*
X4204000D01*
Y3133000D01*
X4194000D01*
Y3113000D01*
X4204000D01*
X5134000Y5416000D02*
Y5406000D01*
X5154000D01*
Y5416000D01*
X5164000D01*
Y5436000D01*
X5154000D01*
Y5446000D01*
X5134000D01*
Y5436000D01*
X5124000D01*
Y5416000D01*
X5134000D01*
X4249000Y5829000D02*
X4259000D01*
X4269000Y5839000D01*
X4279000Y5829000D01*
X4289000D01*
Y5839000D01*
X4279000Y5849000D01*
X4289000Y5859000D01*
Y5869000D01*
X4279000D01*
X4269000Y5859000D01*
X4259000Y5869000D01*
X4249000D01*
Y5859000D01*
X4259000Y5849000D01*
X4249000Y5839000D01*
Y5829000D01*
X4221000Y5576000D02*
Y5566000D01*
X4241000D01*
Y5576000D01*
X4251000D01*
Y5596000D01*
X4241000D01*
Y5606000D01*
X4221000D01*
Y5596000D01*
X4211000D01*
Y5576000D01*
X4221000D01*
X4203000Y5613000D02*
Y5603000D01*
X4223000D01*
Y5613000D01*
X4233000D01*
Y5633000D01*
X4223000D01*
Y5643000D01*
X4203000D01*
Y5633000D01*
X4193000D01*
Y5613000D01*
X4203000D01*
X4236000Y5438000D02*
Y5428000D01*
X4256000D01*
Y5438000D01*
X4266000D01*
Y5458000D01*
X4256000D01*
Y5468000D01*
X4236000D01*
Y5458000D01*
X4226000D01*
Y5438000D01*
X4236000D01*
X3627921Y5589921D02*
Y5579921D01*
X3647921D01*
Y5589921D01*
X3657921D01*
Y5609921D01*
X3647921D01*
Y5619921D01*
X3627921D01*
Y5609921D01*
X3617921D01*
Y5589921D01*
X3627921D01*
X4409000Y5409000D02*
Y5399000D01*
X4429000D01*
Y5409000D01*
X4439000D01*
Y5429000D01*
X4429000D01*
Y5439000D01*
X4409000D01*
Y5429000D01*
X4399000D01*
Y5409000D01*
X4409000D01*
X4402000Y5510000D02*
Y5500000D01*
X4422000D01*
Y5510000D01*
X4432000D01*
Y5530000D01*
X4422000D01*
Y5540000D01*
X4402000D01*
Y5530000D01*
X4392000D01*
Y5510000D01*
X4402000D01*
X6132000Y2616000D02*
Y2606000D01*
X6152000D01*
Y2616000D01*
X6162000D01*
Y2636000D01*
X6152000D01*
Y2646000D01*
X6132000D01*
Y2636000D01*
X6122000D01*
Y2616000D01*
X6132000D01*
X6098000Y2644000D02*
Y2634000D01*
X6118000D01*
Y2644000D01*
X6128000D01*
Y2664000D01*
X6118000D01*
Y2674000D01*
X6098000D01*
Y2664000D01*
X6088000D01*
Y2644000D01*
X6098000D01*
X6046000Y2504000D02*
Y2494000D01*
X6066000D01*
Y2504000D01*
X6076000D01*
Y2524000D01*
X6066000D01*
Y2534000D01*
X6046000D01*
Y2524000D01*
X6036000D01*
Y2504000D01*
X6046000D01*
X6010000Y2530000D02*
Y2520000D01*
X6030000D01*
Y2530000D01*
X6040000D01*
Y2550000D01*
X6030000D01*
Y2560000D01*
X6010000D01*
Y2550000D01*
X6000000D01*
Y2530000D01*
X6010000D01*
X4137000Y3956000D02*
Y3946000D01*
X4157000D01*
Y3956000D01*
X4167000D01*
Y3976000D01*
X4157000D01*
Y3986000D01*
X4137000D01*
Y3976000D01*
X4127000D01*
Y3956000D01*
X4137000D01*
X4086000Y3965000D02*
Y3955000D01*
X4106000D01*
Y3965000D01*
X4116000D01*
Y3985000D01*
X4106000D01*
Y3995000D01*
X4086000D01*
Y3985000D01*
X4076000D01*
Y3965000D01*
X4086000D01*
X4069000Y3885000D02*
Y3875000D01*
X4089000D01*
Y3885000D01*
X4099000D01*
Y3905000D01*
X4089000D01*
Y3915000D01*
X4069000D01*
Y3905000D01*
X4059000D01*
Y3885000D01*
X4069000D01*
X4027000Y3904000D02*
Y3894000D01*
X4047000D01*
Y3904000D01*
X4057000D01*
Y3924000D01*
X4047000D01*
Y3934000D01*
X4027000D01*
Y3924000D01*
X4017000D01*
Y3904000D01*
X4027000D01*
X4265000Y3921000D02*
Y3911000D01*
X4285000D01*
Y3921000D01*
X4295000D01*
Y3941000D01*
X4285000D01*
Y3951000D01*
X4265000D01*
Y3941000D01*
X4255000D01*
Y3921000D01*
X4265000D01*
X4304536Y3935000D02*
Y3925000D01*
X4324536D01*
Y3935000D01*
X4334536D01*
Y3955000D01*
X4324536D01*
Y3965000D01*
X4304536D01*
Y3955000D01*
X4294536D01*
Y3935000D01*
X4304536D01*
X4499000Y3510000D02*
Y3500000D01*
X4519000D01*
Y3510000D01*
X4529000D01*
Y3530000D01*
X4519000D01*
Y3540000D01*
X4499000D01*
Y3530000D01*
X4489000D01*
Y3510000D01*
X4499000D01*
X4517000Y3469898D02*
Y3459898D01*
X4537000D01*
Y3469898D01*
X4547000D01*
Y3489898D01*
X4537000D01*
Y3499898D01*
X4517000D01*
Y3489898D01*
X4507000D01*
Y3469898D01*
X4517000D01*
X4623000Y3458000D02*
Y3448000D01*
X4643000D01*
Y3458000D01*
X4653000D01*
Y3478000D01*
X4643000D01*
Y3488000D01*
X4623000D01*
Y3478000D01*
X4613000D01*
Y3458000D01*
X4623000D01*
X4652000Y3427000D02*
Y3417000D01*
X4672000D01*
Y3427000D01*
X4682000D01*
Y3447000D01*
X4672000D01*
Y3457000D01*
X4652000D01*
Y3447000D01*
X4642000D01*
Y3427000D01*
X4652000D01*
X4778000Y3455000D02*
Y3445000D01*
X4798000D01*
Y3455000D01*
X4808000D01*
Y3475000D01*
X4798000D01*
Y3485000D01*
X4778000D01*
Y3475000D01*
X4768000D01*
Y3455000D01*
X4778000D01*
X4738000Y3439000D02*
Y3429000D01*
X4758000D01*
Y3439000D01*
X4768000D01*
Y3459000D01*
X4758000D01*
Y3469000D01*
X4738000D01*
Y3459000D01*
X4728000D01*
Y3439000D01*
X4738000D01*
X4934000Y3771000D02*
X4954000Y3791000D01*
X4974000Y3771000D01*
X4954000Y3751000D01*
X4934000Y3771000D01*
X4995000Y3816000D02*
Y3806000D01*
X5015000D01*
Y3816000D01*
X5025000D01*
Y3836000D01*
X5015000D01*
Y3846000D01*
X4995000D01*
Y3836000D01*
X4985000D01*
Y3816000D01*
X4995000D01*
X5036000Y3790000D02*
Y3780000D01*
X5056000D01*
Y3790000D01*
X5066000D01*
Y3810000D01*
X5056000D01*
Y3820000D01*
X5036000D01*
Y3810000D01*
X5026000D01*
Y3790000D01*
X5036000D01*
X5081000Y3796000D02*
Y3786000D01*
X5101000D01*
Y3796000D01*
X5111000D01*
Y3816000D01*
X5101000D01*
Y3826000D01*
X5081000D01*
Y3816000D01*
X5071000D01*
Y3796000D01*
X5081000D01*
X4902000Y4030000D02*
Y4020000D01*
X4922000D01*
Y4030000D01*
X4932000D01*
Y4050000D01*
X4922000D01*
Y4060000D01*
X4902000D01*
Y4050000D01*
X4892000D01*
Y4030000D01*
X4902000D01*
X4653000Y4278000D02*
Y4268000D01*
X4673000D01*
Y4278000D01*
X4683000D01*
Y4298000D01*
X4673000D01*
Y4308000D01*
X4653000D01*
Y4298000D01*
X4643000D01*
Y4278000D01*
X4653000D01*
X4546456Y4340000D02*
Y4330000D01*
X4566456D01*
Y4340000D01*
X4576456D01*
Y4360000D01*
X4566456D01*
Y4370000D01*
X4546456D01*
Y4360000D01*
X4536456D01*
Y4340000D01*
X4546456D01*
X4484000Y4313000D02*
Y4303000D01*
X4504000D01*
Y4313000D01*
X4514000D01*
Y4333000D01*
X4504000D01*
Y4343000D01*
X4484000D01*
Y4333000D01*
X4474000D01*
Y4313000D01*
X4484000D01*
X4542000Y4276000D02*
Y4266000D01*
X4562000D01*
Y4276000D01*
X4572000D01*
Y4296000D01*
X4562000D01*
Y4306000D01*
X4542000D01*
Y4296000D01*
X4532000D01*
Y4276000D01*
X4542000D01*
X4758544Y4124000D02*
Y4114000D01*
X4778544D01*
Y4124000D01*
X4788544D01*
Y4144000D01*
X4778544D01*
Y4154000D01*
X4758544D01*
Y4144000D01*
X4748544D01*
Y4124000D01*
X4758544D01*
X4789000Y4098000D02*
Y4088000D01*
X4809000D01*
Y4098000D01*
X4819000D01*
Y4118000D01*
X4809000D01*
Y4128000D01*
X4789000D01*
Y4118000D01*
X4779000D01*
Y4098000D01*
X4789000D01*
X4284000Y4488000D02*
Y4478000D01*
X4304000D01*
Y4488000D01*
X4314000D01*
Y4508000D01*
X4304000D01*
Y4518000D01*
X4284000D01*
Y4508000D01*
X4274000D01*
Y4488000D01*
X4284000D01*
X5240000Y4247000D02*
Y4237000D01*
X5260000D01*
Y4247000D01*
X5270000D01*
Y4267000D01*
X5260000D01*
Y4277000D01*
X5240000D01*
Y4267000D01*
X5230000D01*
Y4247000D01*
X5240000D01*
X4939000Y4271827D02*
X4959000Y4291827D01*
X4979000Y4271827D01*
X4959000Y4251827D01*
X4939000Y4271827D01*
X4731000Y5394000D02*
Y5384000D01*
X4751000D01*
Y5394000D01*
X4761000D01*
Y5414000D01*
X4751000D01*
Y5424000D01*
X4731000D01*
Y5414000D01*
X4721000D01*
Y5394000D01*
X4731000D01*
X4691000Y5459000D02*
Y5449000D01*
X4711000D01*
Y5459000D01*
X4721000D01*
Y5479000D01*
X4711000D01*
Y5489000D01*
X4691000D01*
Y5479000D01*
X4681000D01*
Y5459000D01*
X4691000D01*
X4657000Y5423000D02*
Y5413000D01*
X4677000D01*
Y5423000D01*
X4687000D01*
Y5443000D01*
X4677000D01*
Y5453000D01*
X4657000D01*
Y5443000D01*
X4647000D01*
Y5423000D01*
X4657000D01*
X4618000Y5466000D02*
Y5456000D01*
X4638000D01*
Y5466000D01*
X4648000D01*
Y5486000D01*
X4638000D01*
Y5496000D01*
X4618000D01*
Y5486000D01*
X4608000D01*
Y5466000D01*
X4618000D01*
X6567000Y3950000D02*
Y3940000D01*
X6587000D01*
Y3950000D01*
X6597000D01*
Y3970000D01*
X6587000D01*
Y3980000D01*
X6567000D01*
Y3970000D01*
X6557000D01*
Y3950000D01*
X6567000D01*
X5782000Y2583000D02*
Y2573000D01*
X5802000D01*
Y2583000D01*
X5812000D01*
Y2603000D01*
X5802000D01*
Y2613000D01*
X5782000D01*
Y2603000D01*
X5772000D01*
Y2583000D01*
X5782000D01*
X5747000Y2616000D02*
Y2606000D01*
X5767000D01*
Y2616000D01*
X5777000D01*
Y2636000D01*
X5767000D01*
Y2646000D01*
X5747000D01*
Y2636000D01*
X5737000D01*
Y2616000D01*
X5747000D01*
X5697000Y2661000D02*
Y2651000D01*
X5717000D01*
Y2661000D01*
X5727000D01*
Y2681000D01*
X5717000D01*
Y2691000D01*
X5697000D01*
Y2681000D01*
X5687000D01*
Y2661000D01*
X5697000D01*
X5793000Y2340000D02*
Y2330000D01*
X5813000D01*
Y2340000D01*
X5823000D01*
Y2360000D01*
X5813000D01*
Y2370000D01*
X5793000D01*
Y2360000D01*
X5783000D01*
Y2340000D01*
X5793000D01*
X5757000Y2386000D02*
Y2376000D01*
X5777000D01*
Y2386000D01*
X5787000D01*
Y2406000D01*
X5777000D01*
Y2416000D01*
X5757000D01*
Y2406000D01*
X5747000D01*
Y2386000D01*
X5757000D01*
X5704000Y2383000D02*
Y2373000D01*
X5724000D01*
Y2383000D01*
X5734000D01*
Y2403000D01*
X5724000D01*
Y2413000D01*
X5704000D01*
Y2403000D01*
X5694000D01*
Y2383000D01*
X5704000D01*
X5829000Y2369000D02*
Y2359000D01*
X5849000D01*
Y2369000D01*
X5859000D01*
Y2389000D01*
X5849000D01*
Y2399000D01*
X5829000D01*
Y2389000D01*
X5819000D01*
Y2369000D01*
X5829000D01*
X5843000Y2421000D02*
Y2411000D01*
X5863000D01*
Y2421000D01*
X5873000D01*
Y2441000D01*
X5863000D01*
Y2451000D01*
X5843000D01*
Y2441000D01*
X5833000D01*
Y2421000D01*
X5843000D01*
X5818000Y2556000D02*
Y2546000D01*
X5838000D01*
Y2556000D01*
X5848000D01*
Y2576000D01*
X5838000D01*
Y2586000D01*
X5818000D01*
Y2576000D01*
X5808000D01*
Y2556000D01*
X5818000D01*
X6044000Y1832285D02*
Y1822285D01*
X6064000D01*
Y1832285D01*
X6074000D01*
Y1852285D01*
X6064000D01*
Y1862285D01*
X6044000D01*
Y1852285D01*
X6034000D01*
Y1832285D01*
X6044000D01*
X5968000Y1933000D02*
Y1923000D01*
X5988000D01*
Y1933000D01*
X5998000D01*
Y1953000D01*
X5988000D01*
Y1963000D01*
X5968000D01*
Y1953000D01*
X5958000D01*
Y1933000D01*
X5968000D01*
X5940000Y2032000D02*
Y2022000D01*
X5960000D01*
Y2032000D01*
X5970000D01*
Y2052000D01*
X5960000D01*
Y2062000D01*
X5940000D01*
Y2052000D01*
X5930000D01*
Y2032000D01*
X5940000D01*
X5912000Y2132000D02*
Y2122000D01*
X5932000D01*
Y2132000D01*
X5942000D01*
Y2152000D01*
X5932000D01*
Y2162000D01*
X5912000D01*
Y2152000D01*
X5902000D01*
Y2132000D01*
X5912000D01*
X5884000Y2232000D02*
Y2222000D01*
X5904000D01*
Y2232000D01*
X5914000D01*
Y2252000D01*
X5904000D01*
Y2262000D01*
X5884000D01*
Y2252000D01*
X5874000D01*
Y2232000D01*
X5884000D01*
X5982000Y1833000D02*
Y1823000D01*
X6002000D01*
Y1833000D01*
X6012000D01*
Y1853000D01*
X6002000D01*
Y1863000D01*
X5982000D01*
Y1853000D01*
X5972000D01*
Y1833000D01*
X5982000D01*
X5869715Y2332285D02*
Y2322285D01*
X5889715D01*
Y2332285D01*
X5899715D01*
Y2352285D01*
X5889715D01*
Y2362285D01*
X5869715D01*
Y2352285D01*
X5859715D01*
Y2332285D01*
X5869715D01*
X6043715Y2432285D02*
Y2422285D01*
X6063715D01*
Y2432285D01*
X6073715D01*
Y2452285D01*
X6063715D01*
Y2462285D01*
X6043715D01*
Y2452285D01*
X6033715D01*
Y2432285D01*
X6043715D01*
X6363000Y2232285D02*
Y2222285D01*
X6383000D01*
Y2232285D01*
X6393000D01*
Y2252285D01*
X6383000D01*
Y2262285D01*
X6363000D01*
Y2252285D01*
X6353000D01*
Y2232285D01*
X6363000D01*
X6390000Y2332000D02*
Y2322000D01*
X6410000D01*
Y2332000D01*
X6420000D01*
Y2352000D01*
X6410000D01*
Y2362000D01*
X6390000D01*
Y2352000D01*
X6380000D01*
Y2332000D01*
X6390000D01*
X6418000Y2434000D02*
Y2424000D01*
X6438000D01*
Y2434000D01*
X6448000D01*
Y2454000D01*
X6438000D01*
Y2464000D01*
X6418000D01*
Y2454000D01*
X6408000D01*
Y2434000D01*
X6418000D01*
X5350000Y2131000D02*
Y2121000D01*
X5370000D01*
Y2131000D01*
X5380000D01*
Y2151000D01*
X5370000D01*
Y2161000D01*
X5350000D01*
Y2151000D01*
X5340000D01*
Y2131000D01*
X5350000D01*
X5381000Y2228000D02*
Y2218000D01*
X5401000D01*
Y2228000D01*
X5411000D01*
Y2248000D01*
X5401000D01*
Y2258000D01*
X5381000D01*
Y2248000D01*
X5371000D01*
Y2228000D01*
X5381000D01*
X5422000Y2322000D02*
Y2312000D01*
X5442000D01*
Y2322000D01*
X5452000D01*
Y2342000D01*
X5442000D01*
Y2352000D01*
X5422000D01*
Y2342000D01*
X5412000D01*
Y2322000D01*
X5422000D01*
X5472000Y2427000D02*
Y2417000D01*
X5492000D01*
Y2427000D01*
X5502000D01*
Y2447000D01*
X5492000D01*
Y2457000D01*
X5472000D01*
Y2447000D01*
X5462000D01*
Y2427000D01*
X5472000D01*
X5253000Y2429063D02*
Y2419063D01*
X5273000D01*
Y2429063D01*
X5283000D01*
Y2449063D01*
X5273000D01*
Y2459063D01*
X5253000D01*
Y2449063D01*
X5243000D01*
Y2429063D01*
X5253000D01*
X5252000Y2328063D02*
Y2318063D01*
X5272000D01*
Y2328063D01*
X5282000D01*
Y2348063D01*
X5272000D01*
Y2358063D01*
X5252000D01*
Y2348063D01*
X5242000D01*
Y2328063D01*
X5252000D01*
X4743000Y2511000D02*
Y2501000D01*
X4763000D01*
Y2511000D01*
X4773000D01*
Y2531000D01*
X4763000D01*
Y2541000D01*
X4743000D01*
Y2531000D01*
X4733000D01*
Y2511000D01*
X4743000D01*
X4751000Y2618000D02*
Y2608000D01*
X4771000D01*
Y2618000D01*
X4781000D01*
Y2638000D01*
X4771000D01*
Y2648000D01*
X4751000D01*
Y2638000D01*
X4741000D01*
Y2618000D01*
X4751000D01*
X4799000Y2494000D02*
Y2484000D01*
X4819000D01*
Y2494000D01*
X4829000D01*
Y2514000D01*
X4819000D01*
Y2524000D01*
X4799000D01*
Y2514000D01*
X4789000D01*
Y2494000D01*
X4799000D01*
X4634000Y2549000D02*
Y2539000D01*
X4654000D01*
Y2549000D01*
X4664000D01*
Y2569000D01*
X4654000D01*
Y2579000D01*
X4634000D01*
Y2569000D01*
X4624000D01*
Y2549000D01*
X4634000D01*
X4676000Y2553000D02*
Y2543000D01*
X4696000D01*
Y2553000D01*
X4706000D01*
Y2573000D01*
X4696000D01*
Y2583000D01*
X4676000D01*
Y2573000D01*
X4666000D01*
Y2553000D01*
X4676000D01*
X4737000Y2465000D02*
Y2455000D01*
X4757000D01*
Y2465000D01*
X4767000D01*
Y2485000D01*
X4757000D01*
Y2495000D01*
X4737000D01*
Y2485000D01*
X4727000D01*
Y2465000D01*
X4737000D01*
X4766000Y2393000D02*
Y2383000D01*
X4786000D01*
Y2393000D01*
X4796000D01*
Y2413000D01*
X4786000D01*
Y2423000D01*
X4766000D01*
Y2413000D01*
X4756000D01*
Y2393000D01*
X4766000D01*
X4835000Y2463000D02*
Y2453000D01*
X4855000D01*
Y2463000D01*
X4865000D01*
Y2483000D01*
X4855000D01*
Y2493000D01*
X4835000D01*
Y2483000D01*
X4825000D01*
Y2463000D01*
X4835000D01*
X4864000Y2504544D02*
Y2494544D01*
X4884000D01*
Y2504544D01*
X4894000D01*
Y2524544D01*
X4884000D01*
Y2534544D01*
X4864000D01*
Y2524544D01*
X4854000D01*
Y2504544D01*
X4864000D01*
X4901000Y2464000D02*
Y2454000D01*
X4921000D01*
Y2464000D01*
X4931000D01*
Y2484000D01*
X4921000D01*
Y2494000D01*
X4901000D01*
Y2484000D01*
X4891000D01*
Y2464000D01*
X4901000D01*
X4929000Y2518000D02*
Y2508000D01*
X4949000D01*
Y2518000D01*
X4959000D01*
Y2538000D01*
X4949000D01*
Y2548000D01*
X4929000D01*
Y2538000D01*
X4919000D01*
Y2518000D01*
X4929000D01*
X4961000Y2461000D02*
Y2451000D01*
X4981000D01*
Y2461000D01*
X4991000D01*
Y2481000D01*
X4981000D01*
Y2491000D01*
X4961000D01*
Y2481000D01*
X4951000D01*
Y2461000D01*
X4961000D01*
X4789000Y2330000D02*
Y2320000D01*
X4809000D01*
Y2330000D01*
X4819000D01*
Y2350000D01*
X4809000D01*
Y2360000D01*
X4789000D01*
Y2350000D01*
X4779000D01*
Y2330000D01*
X4789000D01*
X4854000Y1928000D02*
Y1918000D01*
X4874000D01*
Y1928000D01*
X4884000D01*
Y1948000D01*
X4874000D01*
Y1958000D01*
X4854000D01*
Y1948000D01*
X4844000D01*
Y1928000D01*
X4854000D01*
X4159000Y2230000D02*
Y2220000D01*
X4179000D01*
Y2230000D01*
X4189000D01*
Y2250000D01*
X4179000D01*
Y2260000D01*
X4159000D01*
Y2250000D01*
X4149000D01*
Y2230000D01*
X4159000D01*
X3473701Y2488000D02*
Y2478000D01*
X3493701D01*
Y2488000D01*
X3503701D01*
Y2508000D01*
X3493701D01*
Y2518000D01*
X3473701D01*
Y2508000D01*
X3463701D01*
Y2488000D01*
X3473701D01*
X3417000Y2465799D02*
Y2455799D01*
X3437000D01*
Y2465799D01*
X3447000D01*
Y2485799D01*
X3437000D01*
Y2495799D01*
X3417000D01*
Y2485799D01*
X3407000D01*
Y2465799D01*
X3417000D01*
X3498000Y1922000D02*
Y1912000D01*
X3518000D01*
Y1922000D01*
X3528000D01*
Y1942000D01*
X3518000D01*
Y1952000D01*
X3498000D01*
Y1942000D01*
X3488000D01*
Y1922000D01*
X3498000D01*
X3529000Y2029000D02*
Y2019000D01*
X3549000D01*
Y2029000D01*
X3559000D01*
Y2049000D01*
X3549000D01*
Y2059000D01*
X3529000D01*
Y2049000D01*
X3519000D01*
Y2029000D01*
X3529000D01*
X3558000Y2128000D02*
Y2118000D01*
X3578000D01*
Y2128000D01*
X3588000D01*
Y2148000D01*
X3578000D01*
Y2158000D01*
X3558000D01*
Y2148000D01*
X3548000D01*
Y2128000D01*
X3558000D01*
X3589000Y2220000D02*
Y2210000D01*
X3609000D01*
Y2220000D01*
X3619000D01*
Y2240000D01*
X3609000D01*
Y2250000D01*
X3589000D01*
Y2240000D01*
X3579000D01*
Y2220000D01*
X3589000D01*
X3617000Y2325000D02*
Y2315000D01*
X3637000D01*
Y2325000D01*
X3647000D01*
Y2345000D01*
X3637000D01*
Y2355000D01*
X3617000D01*
Y2345000D01*
X3607000D01*
Y2325000D01*
X3617000D01*
X3646000Y2380000D02*
Y2370000D01*
X3666000D01*
Y2380000D01*
X3676000D01*
Y2400000D01*
X3666000D01*
Y2410000D01*
X3646000D01*
Y2400000D01*
X3636000D01*
Y2380000D01*
X3646000D01*
X3335000Y2520000D02*
Y2510000D01*
X3355000D01*
Y2520000D01*
X3365000D01*
Y2540000D01*
X3355000D01*
Y2550000D01*
X3335000D01*
Y2540000D01*
X3325000D01*
Y2520000D01*
X3335000D01*
X3381000Y2581000D02*
Y2571000D01*
X3401000D01*
Y2581000D01*
X3411000D01*
Y2601000D01*
X3401000D01*
Y2611000D01*
X3381000D01*
Y2601000D01*
X3371000D01*
Y2581000D01*
X3381000D01*
X3458000Y1856000D02*
Y1846000D01*
X3478000D01*
Y1856000D01*
X3488000D01*
Y1876000D01*
X3478000D01*
Y1886000D01*
X3458000D01*
Y1876000D01*
X3448000D01*
Y1856000D01*
X3458000D01*
X2434500Y2257500D02*
Y2247500D01*
X2454500D01*
Y2257500D01*
X2464500D01*
Y2277500D01*
X2454500D01*
Y2287500D01*
X2434500D01*
Y2277500D01*
X2424500D01*
Y2257500D01*
X2434500D01*
X2710000Y1768000D02*
Y1758000D01*
X2730000D01*
Y1768000D01*
X2740000D01*
Y1788000D01*
X2730000D01*
Y1798000D01*
X2710000D01*
Y1788000D01*
X2700000D01*
Y1768000D01*
X2710000D01*
X2290000Y5081000D02*
Y5071000D01*
X2310000D01*
Y5081000D01*
X2320000D01*
Y5101000D01*
X2310000D01*
Y5111000D01*
X2290000D01*
Y5101000D01*
X2280000D01*
Y5081000D01*
X2290000D01*
X2583000Y5083000D02*
Y5073000D01*
X2603000D01*
Y5083000D01*
X2613000D01*
Y5103000D01*
X2603000D01*
Y5113000D01*
X2583000D01*
Y5103000D01*
X2573000D01*
Y5083000D01*
X2583000D01*
X6361000Y4694000D02*
Y4684000D01*
X6381000D01*
Y4694000D01*
X6391000D01*
Y4714000D01*
X6381000D01*
Y4724000D01*
X6361000D01*
Y4714000D01*
X6351000D01*
Y4694000D01*
X6361000D01*
X6295000Y4760000D02*
Y4750000D01*
X6315000D01*
Y4760000D01*
X6325000D01*
Y4780000D01*
X6315000D01*
Y4790000D01*
X6295000D01*
Y4780000D01*
X6285000D01*
Y4760000D01*
X6295000D01*
X6617000Y3811000D02*
Y3801000D01*
X6637000D01*
Y3811000D01*
X6647000D01*
Y3831000D01*
X6637000D01*
Y3841000D01*
X6617000D01*
Y3831000D01*
X6607000D01*
Y3811000D01*
X6617000D01*
X4828000Y5298000D02*
Y5288000D01*
X4848000D01*
Y5298000D01*
X4858000D01*
Y5318000D01*
X4848000D01*
Y5328000D01*
X4828000D01*
Y5318000D01*
X4818000D01*
Y5298000D01*
X4828000D01*
X4580000D02*
Y5288000D01*
X4600000D01*
Y5298000D01*
X4610000D01*
Y5318000D01*
X4600000D01*
Y5328000D01*
X4580000D01*
Y5318000D01*
X4570000D01*
Y5298000D01*
X4580000D01*
X2966871Y5607871D02*
Y5597871D01*
X2986871D01*
Y5607871D01*
X2996871D01*
Y5627871D01*
X2986871D01*
Y5637871D01*
X2966871D01*
Y5627871D01*
X2956871D01*
Y5607871D01*
X2966871D01*
X3245000Y5411000D02*
Y5401000D01*
X3265000D01*
Y5411000D01*
X3275000D01*
Y5431000D01*
X3265000D01*
Y5441000D01*
X3245000D01*
Y5431000D01*
X3235000D01*
Y5411000D01*
X3245000D01*
X3177485Y5508485D02*
Y5498485D01*
X3197485D01*
Y5508485D01*
X3207485D01*
Y5528485D01*
X3197485D01*
Y5538485D01*
X3177485D01*
Y5528485D01*
X3167485D01*
Y5508485D01*
X3177485D01*
X6469000Y3973000D02*
Y3963000D01*
X6489000D01*
Y3973000D01*
X6499000D01*
Y3993000D01*
X6489000D01*
Y4003000D01*
X6469000D01*
Y3993000D01*
X6459000D01*
Y3973000D01*
X6469000D01*
X3343298Y5715702D02*
Y5705702D01*
X3363298D01*
Y5715702D01*
X3373298D01*
Y5735702D01*
X3363298D01*
Y5745702D01*
X3343298D01*
Y5735702D01*
X3333298D01*
Y5715702D01*
X3343298D01*
X4327299Y5475000D02*
Y5465000D01*
X4347299D01*
Y5475000D01*
X4357299D01*
Y5495000D01*
X4347299D01*
Y5505000D01*
X4327299D01*
Y5495000D01*
X4317299D01*
Y5475000D01*
X4327299D01*
X4347000Y5548000D02*
Y5538000D01*
X4367000D01*
Y5548000D01*
X4377000D01*
Y5568000D01*
X4367000D01*
Y5578000D01*
X4347000D01*
Y5568000D01*
X4337000D01*
Y5548000D01*
X4347000D01*
X2812000Y3941000D02*
Y3931000D01*
X2832000D01*
Y3941000D01*
X2842000D01*
Y3961000D01*
X2832000D01*
Y3971000D01*
X2812000D01*
Y3961000D01*
X2802000D01*
Y3941000D01*
X2812000D01*
X2811214Y3532000D02*
Y3522000D01*
X2831214D01*
Y3532000D01*
X2841214D01*
Y3552000D01*
X2831214D01*
Y3562000D01*
X2811214D01*
Y3552000D01*
X2801214D01*
Y3532000D01*
X2811214D01*
X2784000Y5087000D02*
Y5077000D01*
X2804000D01*
Y5087000D01*
X2814000D01*
Y5107000D01*
X2804000D01*
Y5117000D01*
X2784000D01*
Y5107000D01*
X2774000D01*
Y5087000D01*
X2784000D01*
X3172000Y4039000D02*
Y4029000D01*
X3192000D01*
Y4039000D01*
X3202000D01*
Y4059000D01*
X3192000D01*
Y4069000D01*
X3172000D01*
Y4059000D01*
X3162000D01*
Y4039000D01*
X3172000D01*
X3558000Y5569000D02*
Y5559000D01*
X3578000D01*
Y5569000D01*
X3588000D01*
Y5589000D01*
X3578000D01*
Y5599000D01*
X3558000D01*
Y5589000D01*
X3548000D01*
Y5569000D01*
X3558000D01*
X5149000Y5049000D02*
Y5039000D01*
X5169000D01*
Y5049000D01*
X5179000D01*
Y5069000D01*
X5169000D01*
Y5079000D01*
X5149000D01*
Y5069000D01*
X5139000D01*
Y5049000D01*
X5149000D01*
X2969000Y5507000D02*
Y5497000D01*
X2989000D01*
Y5507000D01*
X2999000D01*
Y5527000D01*
X2989000D01*
Y5537000D01*
X2969000D01*
Y5527000D01*
X2959000D01*
Y5507000D01*
X2969000D01*
X3847000Y5240000D02*
Y5230000D01*
X3867000D01*
Y5240000D01*
X3877000D01*
Y5260000D01*
X3867000D01*
Y5270000D01*
X3847000D01*
Y5260000D01*
X3837000D01*
Y5240000D01*
X3847000D01*
X4445456Y4774000D02*
Y4764000D01*
X4465456D01*
Y4774000D01*
X4475456D01*
Y4794000D01*
X4465456D01*
Y4804000D01*
X4445456D01*
Y4794000D01*
X4435456D01*
Y4774000D01*
X4445456D01*
X3601000Y5331000D02*
Y5321000D01*
X3621000D01*
Y5331000D01*
X3631000D01*
Y5351000D01*
X3621000D01*
Y5361000D01*
X3601000D01*
Y5351000D01*
X3591000D01*
Y5331000D01*
X3601000D01*
X4297000Y5405000D02*
Y5395000D01*
X4317000D01*
Y5405000D01*
X4327000D01*
Y5425000D01*
X4317000D01*
Y5435000D01*
X4297000D01*
Y5425000D01*
X4287000D01*
Y5405000D01*
X4297000D01*
X3672000Y3636000D02*
Y3626000D01*
X3692000D01*
Y3636000D01*
X3702000D01*
Y3656000D01*
X3692000D01*
Y3666000D01*
X3672000D01*
Y3656000D01*
X3662000D01*
Y3636000D01*
X3672000D01*
X6317000Y2770000D02*
Y2760000D01*
X6337000D01*
Y2770000D01*
X6347000D01*
Y2790000D01*
X6337000D01*
Y2800000D01*
X6317000D01*
Y2790000D01*
X6307000D01*
Y2770000D01*
X6317000D01*
X3092000Y3684000D02*
Y3674000D01*
X3112000D01*
Y3684000D01*
X3122000D01*
Y3704000D01*
X3112000D01*
Y3714000D01*
X3092000D01*
Y3704000D01*
X3082000D01*
Y3684000D01*
X3092000D01*
X3220000Y4092000D02*
Y4082000D01*
X3240000D01*
Y4092000D01*
X3250000D01*
Y4112000D01*
X3240000D01*
Y4122000D01*
X3220000D01*
Y4112000D01*
X3210000D01*
Y4092000D01*
X3220000D01*
X3095979Y3103021D02*
Y3093021D01*
X3115979D01*
Y3103021D01*
X3125979D01*
Y3123021D01*
X3115979D01*
Y3133021D01*
X3095979D01*
Y3123021D01*
X3085979D01*
Y3103021D01*
X3095979D01*
X2531000Y3610000D02*
Y3600000D01*
X2551000D01*
Y3610000D01*
X2561000D01*
Y3630000D01*
X2551000D01*
Y3640000D01*
X2531000D01*
Y3630000D01*
X2521000D01*
Y3610000D01*
X2531000D01*
X2657000Y3723000D02*
Y3713000D01*
X2677000D01*
Y3723000D01*
X2687000D01*
Y3743000D01*
X2677000D01*
Y3753000D01*
X2657000D01*
Y3743000D01*
X2647000D01*
Y3723000D01*
X2657000D01*
X2958000Y3262000D02*
Y3252000D01*
X2978000D01*
Y3262000D01*
X2988000D01*
Y3282000D01*
X2978000D01*
Y3292000D01*
X2958000D01*
Y3282000D01*
X2948000D01*
Y3262000D01*
X2958000D01*
X5186000Y4213000D02*
Y4203000D01*
X5206000D01*
Y4213000D01*
X5216000D01*
Y4233000D01*
X5206000D01*
Y4243000D01*
X5186000D01*
Y4233000D01*
X5176000D01*
Y4213000D01*
X5186000D01*
X4883000Y4248000D02*
X4903000Y4268000D01*
X4923000Y4248000D01*
X4903000Y4228000D01*
X4883000Y4248000D01*
X4934000Y3966000D02*
Y3956000D01*
X4954000D01*
Y3966000D01*
X4964000D01*
Y3986000D01*
X4954000D01*
Y3996000D01*
X4934000D01*
Y3986000D01*
X4924000D01*
Y3966000D01*
X4934000D01*
X6357000Y3112000D02*
Y3102000D01*
X6377000D01*
Y3112000D01*
X6387000D01*
Y3132000D01*
X6377000D01*
Y3142000D01*
X6357000D01*
Y3132000D01*
X6347000D01*
Y3112000D01*
X6357000D01*
X2801000Y1768000D02*
Y1758000D01*
X2821000D01*
Y1768000D01*
X2831000D01*
Y1788000D01*
X2821000D01*
Y1798000D01*
X2801000D01*
Y1788000D01*
X2791000D01*
Y1768000D01*
X2801000D01*
X3109092Y1922092D02*
Y1912092D01*
X3129092D01*
Y1922092D01*
X3139092D01*
Y1942092D01*
X3129092D01*
Y1952092D01*
X3109092D01*
Y1942092D01*
X3099092D01*
Y1922092D01*
X3109092D01*
X3109000Y2028000D02*
Y2018000D01*
X3129000D01*
Y2028000D01*
X3139000D01*
Y2048000D01*
X3129000D01*
Y2058000D01*
X3109000D01*
Y2048000D01*
X3099000D01*
Y2028000D01*
X3109000D01*
X3114000Y2125000D02*
Y2115000D01*
X3134000D01*
Y2125000D01*
X3144000D01*
Y2145000D01*
X3134000D01*
Y2155000D01*
X3114000D01*
Y2145000D01*
X3104000D01*
Y2125000D01*
X3114000D01*
X3115000Y2222000D02*
Y2212000D01*
X3135000D01*
Y2222000D01*
X3145000D01*
Y2242000D01*
X3135000D01*
Y2252000D01*
X3115000D01*
Y2242000D01*
X3105000D01*
Y2222000D01*
X3115000D01*
X3121000Y2323000D02*
Y2313000D01*
X3141000D01*
Y2323000D01*
X3151000D01*
Y2343000D01*
X3141000D01*
Y2353000D01*
X3121000D01*
Y2343000D01*
X3111000D01*
Y2323000D01*
X3121000D01*
X3120000Y2424000D02*
Y2414000D01*
X3140000D01*
Y2424000D01*
X3150000D01*
Y2444000D01*
X3140000D01*
Y2454000D01*
X3120000D01*
Y2444000D01*
X3110000D01*
Y2424000D01*
X3120000D01*
X2404000Y2190000D02*
Y2180000D01*
X2424000D01*
Y2190000D01*
X2434000D01*
Y2210000D01*
X2424000D01*
Y2220000D01*
X2404000D01*
Y2210000D01*
X2394000D01*
Y2190000D01*
X2404000D01*
X3851036Y2123964D02*
Y2113964D01*
X3871036D01*
Y2123964D01*
X3881036D01*
Y2143964D01*
X3871036D01*
Y2153964D01*
X3851036D01*
Y2143964D01*
X3841036D01*
Y2123964D01*
X3851036D01*
X3848000Y2023000D02*
Y2013000D01*
X3868000D01*
Y2023000D01*
X3878000D01*
Y2043000D01*
X3868000D01*
Y2053000D01*
X3848000D01*
Y2043000D01*
X3838000D01*
Y2023000D01*
X3848000D01*
X4172964Y2123964D02*
Y2113964D01*
X4192964D01*
Y2123964D01*
X4202964D01*
Y2143964D01*
X4192964D01*
Y2153964D01*
X4172964D01*
Y2143964D01*
X4162964D01*
Y2123964D01*
X4172964D01*
X4175964Y1823964D02*
Y1813964D01*
X4195964D01*
Y1823964D01*
X4205964D01*
Y1843964D01*
X4195964D01*
Y1853964D01*
X4175964D01*
Y1843964D01*
X4165964D01*
Y1823964D01*
X4175964D01*
X4143964Y1723964D02*
Y1713964D01*
X4163964D01*
Y1723964D01*
X4173964D01*
Y1743964D01*
X4163964D01*
Y1753964D01*
X4143964D01*
Y1743964D01*
X4133964D01*
Y1723964D01*
X4143964D01*
X6293715Y2332285D02*
Y2322285D01*
X6313715D01*
Y2332285D01*
X6323715D01*
Y2352285D01*
X6313715D01*
Y2362285D01*
X6293715D01*
Y2352285D01*
X6283715D01*
Y2332285D01*
X6293715D01*
X6294285Y2432285D02*
Y2422285D01*
X6314285D01*
Y2432285D01*
X6324285D01*
Y2452285D01*
X6314285D01*
Y2462285D01*
X6294285D01*
Y2452285D01*
X6284285D01*
Y2432285D01*
X6294285D01*
X6298285Y2232285D02*
Y2222285D01*
X6318285D01*
Y2232285D01*
X6328285D01*
Y2252285D01*
X6318285D01*
Y2262285D01*
X6298285D01*
Y2252285D01*
X6288285D01*
Y2232285D01*
X6298285D01*
X6044715Y2332285D02*
Y2322285D01*
X6064715D01*
Y2332285D01*
X6074715D01*
Y2352285D01*
X6064715D01*
Y2362285D01*
X6044715D01*
Y2352285D01*
X6034715D01*
Y2332285D01*
X6044715D01*
X6045285Y2232285D02*
Y2222285D01*
X6065285D01*
Y2232285D01*
X6075285D01*
Y2252285D01*
X6065285D01*
Y2262285D01*
X6045285D01*
Y2252285D01*
X6035285D01*
Y2232285D01*
X6045285D01*
X6044715Y2132285D02*
Y2122285D01*
X6064715D01*
Y2132285D01*
X6074715D01*
Y2152285D01*
X6064715D01*
Y2162285D01*
X6044715D01*
Y2152285D01*
X6034715D01*
Y2132285D01*
X6044715D01*
X6042285Y2032285D02*
Y2022285D01*
X6062285D01*
Y2032285D01*
X6072285D01*
Y2052285D01*
X6062285D01*
Y2062285D01*
X6042285D01*
Y2052285D01*
X6032285D01*
Y2032285D01*
X6042285D01*
X6044715Y1932715D02*
Y1922715D01*
X6064715D01*
Y1932715D01*
X6074715D01*
Y1952715D01*
X6064715D01*
Y1962715D01*
X6044715D01*
Y1952715D01*
X6034715D01*
Y1932715D01*
X6044715D01*
X4812000Y2228000D02*
Y2218000D01*
X4832000D01*
Y2228000D01*
X4842000D01*
Y2248000D01*
X4832000D01*
Y2258000D01*
X4812000D01*
Y2248000D01*
X4802000D01*
Y2228000D01*
X4812000D01*
X4833000Y2128000D02*
Y2118000D01*
X4853000D01*
Y2128000D01*
X4863000D01*
Y2148000D01*
X4853000D01*
Y2158000D01*
X4833000D01*
Y2148000D01*
X4823000D01*
Y2128000D01*
X4833000D01*
X4856000Y2030000D02*
Y2020000D01*
X4876000D01*
Y2030000D01*
X4886000D01*
Y2050000D01*
X4876000D01*
Y2060000D01*
X4856000D01*
Y2050000D01*
X4846000D01*
Y2030000D01*
X4856000D01*
X5245063Y2229063D02*
Y2219063D01*
X5265063D01*
Y2229063D01*
X5275063D01*
Y2249063D01*
X5265063D01*
Y2259063D01*
X5245063D01*
Y2249063D01*
X5235063D01*
Y2229063D01*
X5245063D01*
X5253937Y2129063D02*
Y2119063D01*
X5273937D01*
Y2129063D01*
X5283937D01*
Y2149063D01*
X5273937D01*
Y2159063D01*
X5253937D01*
Y2149063D01*
X5243937D01*
Y2129063D01*
X5253937D01*
X5249937Y2029063D02*
Y2019063D01*
X5269937D01*
Y2029063D01*
X5279937D01*
Y2049063D01*
X5269937D01*
Y2059063D01*
X5249937D01*
Y2049063D01*
X5239937D01*
Y2029063D01*
X5249937D01*
X5252937Y1929063D02*
Y1919063D01*
X5272937D01*
Y1929063D01*
X5282937D01*
Y1949063D01*
X5272937D01*
Y1959063D01*
X5252937D01*
Y1949063D01*
X5242937D01*
Y1929063D01*
X5252937D01*
X5255937Y1829063D02*
Y1819063D01*
X5275937D01*
Y1829063D01*
X5285937D01*
Y1849063D01*
X5275937D01*
Y1859063D01*
X5255937D01*
Y1849063D01*
X5245937D01*
Y1829063D01*
X5255937D01*
X4870937D02*
Y1819063D01*
X4890937D01*
Y1829063D01*
X4900937D01*
Y1849063D01*
X4890937D01*
Y1859063D01*
X4870937D01*
Y1849063D01*
X4860937D01*
Y1829063D01*
X4870937D01*
X4930937Y1729063D02*
Y1719063D01*
X4950937D01*
Y1729063D01*
X4960937D01*
Y1749063D01*
X4950937D01*
Y1759063D01*
X4930937D01*
Y1749063D01*
X4920937D01*
Y1729063D01*
X4930937D01*
D97*
X6663000Y4362000D02*
G03*
X6663000Y4362000I-20000J0D01*
G01*
Y4262000D02*
G03*
X6663000Y4262000I-20000J0D01*
G01*
X6328000Y4361000D02*
G03*
X6328000Y4361000I-20000J0D01*
G01*
Y4261000D02*
G03*
X6328000Y4261000I-20000J0D01*
G01*
X6675000Y5640000D02*
G03*
X6675000Y5640000I-20000J0D01*
G01*
Y5540000D02*
G03*
X6675000Y5540000I-20000J0D01*
G01*
%TF.MD5,539d60b1c206e24f3048ecf7d8a9e55f*%
M02*
