%TF.GenerationSoftware,Altium Limited,Altium Designer,18.1.9 (240)*%
G04 Layer_Color=128*
%FSLAX26Y26*%
%MOIN*%
%TF.FileFunction,Paste,Bot*%
%TF.Part,Single*%
G01*
G75*
%TA.AperFunction,SMDPad,CuDef*%
%ADD19R,0.035433X0.031496*%
%ADD42R,0.029528X0.023622*%
D19*
X2615567Y3914454D02*
D03*
Y3989257D02*
D03*
X2694307Y3951855D02*
D03*
X2615567Y3504812D02*
D03*
Y3579615D02*
D03*
X2694307Y3542214D02*
D03*
X2615567Y3113021D02*
D03*
Y3187824D02*
D03*
X2694307Y3150422D02*
D03*
X3047528Y3989257D02*
D03*
Y3914454D02*
D03*
X2968788Y3951855D02*
D03*
X3047528Y3579615D02*
D03*
Y3504812D02*
D03*
X2968788Y3542214D02*
D03*
X3050063Y3187824D02*
D03*
Y3113021D02*
D03*
X2971323Y3150422D02*
D03*
D42*
X2615670Y4068855D02*
D03*
X2660945D02*
D03*
X2615670Y3829855D02*
D03*
X2660945D02*
D03*
X2615567Y3658816D02*
D03*
X2660843D02*
D03*
X2617000Y3419816D02*
D03*
X2662276D02*
D03*
X2615032Y3270422D02*
D03*
X2660307D02*
D03*
X2615032Y3041950D02*
D03*
X2660307D02*
D03*
X3047799Y4068855D02*
D03*
X3002523D02*
D03*
X3047796Y3828855D02*
D03*
X3002520D02*
D03*
X3050276Y3437000D02*
D03*
X3005000D02*
D03*
X3049276Y3660000D02*
D03*
X3004000D02*
D03*
X3057063Y3272021D02*
D03*
X3011788D02*
D03*
X3048928Y3043052D02*
D03*
X3003653D02*
D03*
%TF.MD5,9717ce93928545460d3d5e2b15313cf2*%
M02*
