G04*
G04 #@! TF.GenerationSoftware,Altium Limited,Altium Designer,19.0.12 (326)*
G04*
G04 Layer_Physical_Order=1*
G04 Layer_Color=255*
%FSLAX25Y25*%
%MOIN*%
G70*
G01*
G75*
%ADD15C,0.01000*%
%ADD16R,0.03543X0.03937*%
%ADD17R,0.08071X0.04528*%
%ADD18R,0.05118X0.04331*%
%ADD19R,0.04331X0.05118*%
%ADD20R,0.03937X0.03543*%
%ADD21R,0.03740X0.03347*%
%ADD22R,0.01181X0.05315*%
%ADD23R,0.05315X0.01181*%
%ADD24R,0.04528X0.08071*%
%ADD25R,0.05315X0.04528*%
%ADD26R,0.03500X0.01654*%
%ADD27R,0.07480X0.07480*%
%ADD28R,0.05118X0.05709*%
%ADD29R,0.05512X0.06299*%
%ADD30R,0.05315X0.01575*%
%ADD31R,0.03347X0.03740*%
%ADD54R,0.09449X0.02992*%
%ADD55C,0.01500*%
%ADD56C,0.02000*%
%ADD57C,0.03000*%
%ADD58C,0.19685*%
%ADD59C,0.08661*%
%ADD60C,0.12992*%
%ADD61C,0.03000*%
%ADD62C,0.04500*%
D15*
X121918Y232856D02*
X147202D01*
X337996Y133000D02*
X344500D01*
X337465Y132468D02*
X337996Y133000D01*
X337465Y137784D02*
X337760Y138079D01*
X344500D01*
X264686Y122469D02*
X267500Y125284D01*
X264686Y117409D02*
Y122469D01*
X262717Y117409D02*
Y123788D01*
X261510Y124996D02*
X262717Y123788D01*
X261510Y124996D02*
Y125193D01*
X204693Y139063D02*
X241064D01*
X182056Y176979D02*
X212099Y146937D01*
X182595Y209544D02*
X184359Y207780D01*
X210827Y74626D02*
Y100134D01*
X179000Y20027D02*
Y21799D01*
X238906Y81705D01*
Y125193D01*
X238997Y125284D01*
X241064D01*
X210827Y100134D02*
X237868Y127174D01*
X179000Y41027D02*
Y42799D01*
Y63299D02*
X209027Y93326D01*
Y100879D01*
X179000Y61527D02*
Y63299D01*
Y42799D02*
X210827Y74626D01*
X237868Y127174D02*
X240986D01*
X241064Y127252D01*
X209027Y100879D02*
X237291Y129142D01*
X240986D01*
X241064Y129220D01*
X226390Y131189D02*
X241064D01*
X179000Y83799D02*
X226390Y131189D01*
X173000Y80437D02*
X173469Y80906D01*
X207859Y133158D02*
X241064D01*
X179000Y82027D02*
Y83799D01*
Y102527D02*
Y104299D01*
X207859Y133158D01*
X173000Y100937D02*
X173469Y101406D01*
X179000Y125799D02*
X188327Y135126D01*
X173000Y122437D02*
X173469Y122906D01*
X188327Y135126D02*
X241064D01*
X179000Y124027D02*
Y125799D01*
X179500Y143256D02*
Y145027D01*
X185661Y137094D02*
X241064D01*
X179500Y143256D02*
X185661Y137094D01*
X179000Y164756D02*
Y166527D01*
Y164756D02*
X204693Y139063D01*
X182056Y176979D02*
Y178751D01*
X212099Y146937D02*
X241064D01*
X211426Y175425D02*
X237868Y148984D01*
X240986D01*
X211426Y175425D02*
Y181338D01*
X184359Y207780D02*
X184984D01*
X211426Y181338D01*
X240986Y148984D02*
X241064Y148906D01*
X182595Y209544D02*
Y211315D01*
X307359Y153996D02*
Y155287D01*
Y153996D02*
X308355Y153000D01*
X278465Y113252D02*
X281343Y110375D01*
Y103055D02*
Y110375D01*
Y103055D02*
X283106Y101291D01*
X283500D01*
X278465Y113252D02*
Y117409D01*
X274627Y100945D02*
X274733D01*
X276497Y102709D01*
Y117409D01*
X252666Y237516D02*
X286166D01*
X270591Y166842D02*
X270993Y167244D01*
Y178271D01*
X272757Y180035D01*
X274528D01*
X270591Y162685D02*
Y166842D01*
X267900Y167565D02*
X268623Y166842D01*
X267900Y167565D02*
Y178271D01*
X266136Y180035D02*
X267900Y178271D01*
X264365Y180035D02*
X266136D01*
X268623Y162685D02*
Y166842D01*
X53500Y41308D02*
Y46831D01*
X47000Y53331D02*
X53500Y46831D01*
X37169Y53331D02*
X47000D01*
X30500Y60000D02*
X37169Y53331D01*
X117335Y166421D02*
X119098Y164657D01*
X117327Y122157D02*
X119098D01*
X70496Y58622D02*
Y92756D01*
Y58622D02*
X114524Y14593D01*
X136907D01*
X137000Y14500D01*
X70496Y104567D02*
X79635Y95428D01*
X117327Y18157D02*
X119098D01*
X79635Y55849D02*
X117327Y18157D01*
X79635Y55849D02*
Y95428D01*
X60654Y110472D02*
X72271D01*
X81635Y68483D02*
Y101108D01*
Y68483D02*
X114524Y35593D01*
X136907D01*
X137000Y35500D01*
X72271Y110472D02*
X81635Y101108D01*
X83635Y72849D02*
Y103239D01*
X117327Y39157D02*
X119098D01*
X83635Y72849D02*
X117327Y39157D01*
X70496Y116378D02*
X83635Y103239D01*
X85635Y84983D02*
Y108919D01*
Y84983D02*
X114524Y56093D01*
X136907D01*
X60654Y122283D02*
X72271D01*
X70496Y128189D02*
X87635Y111050D01*
X119378Y59937D02*
X149809D01*
X119098Y59657D02*
X119378Y59937D01*
X136907Y56093D02*
X137000Y56000D01*
X72271Y122283D02*
X85635Y108919D01*
X87635Y89349D02*
Y111050D01*
X117327Y59657D02*
X119098D01*
X87635Y89349D02*
X117327Y59657D01*
X89635Y101483D02*
Y116730D01*
X72271Y134095D02*
X89635Y116730D01*
Y101483D02*
X114524Y76593D01*
X136907D01*
X137000Y76500D01*
X60654Y134095D02*
X72271D01*
X70496Y140000D02*
X91635Y118861D01*
Y105849D02*
X117327Y80157D01*
X91635Y105849D02*
Y118861D01*
X117327Y80157D02*
X119098D01*
X136907Y97093D02*
X137000Y97000D01*
X114524Y97093D02*
X136907D01*
X93635Y117983D02*
X114524Y97093D01*
X93635Y117983D02*
Y124541D01*
X72271Y145905D02*
X93635Y124541D01*
X60654Y145905D02*
X72271D01*
X115563Y102421D02*
Y106744D01*
X117327Y100657D02*
X119098D01*
X115563Y102421D02*
X117327Y100657D01*
X70496Y151811D02*
X115563Y106744D01*
X136907Y118593D02*
X137000Y118500D01*
X114524Y118593D02*
X136907D01*
X75401Y157717D02*
X114524Y118593D01*
X60654Y157717D02*
X75401D01*
X76327Y163157D02*
X117327Y122157D01*
X70961Y163157D02*
X76327D01*
X70496Y163622D02*
X70961Y163157D01*
X137407Y139593D02*
X137500Y139500D01*
X103507Y139593D02*
X137407D01*
X73573Y169528D02*
X103507Y139593D01*
X60654Y169528D02*
X73573D01*
X117835Y144921D02*
X119598Y143157D01*
X101008Y144921D02*
X117835D01*
X70496Y175433D02*
X101008Y144921D01*
X136907Y161093D02*
X137000Y161000D01*
X90610Y161093D02*
X136907D01*
X78229Y173474D02*
X90610Y161093D01*
X78229Y173474D02*
Y175380D01*
X72271Y181339D02*
X78229Y175380D01*
X60654Y181339D02*
X72271D01*
X70496Y187244D02*
X80229Y177511D01*
Y174303D02*
Y177511D01*
Y174303D02*
X88111Y166421D01*
X117335D01*
X124156Y218000D02*
X124777Y218621D01*
X113480Y218000D02*
X124156D01*
X113891Y220000D02*
X121918Y228027D01*
X111836Y216356D02*
X113480Y218000D01*
X87500Y220000D02*
X113891D01*
X117000Y190500D02*
X121671Y195171D01*
X88000Y190500D02*
X117000D01*
X149547Y214184D02*
Y216743D01*
X150550Y189029D02*
X154931Y193411D01*
X150550Y186773D02*
Y189029D01*
X154931Y193411D02*
Y193607D01*
X160395Y226562D02*
Y233963D01*
X160493Y226463D02*
Y226660D01*
X160395Y226562D02*
X160493Y226463D01*
X138336Y218621D02*
Y219302D01*
X131111Y213306D02*
X138336D01*
X184405Y229856D02*
X191769D01*
X183905Y230356D02*
X184405Y229856D01*
X178589Y230159D02*
Y230356D01*
X176362Y227932D02*
X178589Y230159D01*
X161765Y227932D02*
X176362D01*
X160493Y226660D02*
X161765Y227932D01*
X147396D02*
X147977Y228512D01*
X144132Y227932D02*
X147396D01*
X148751Y234404D02*
X154836D01*
X155277Y233963D01*
X147977Y233630D02*
X148751Y234404D01*
X147202Y232856D02*
X147977Y233630D01*
X155178Y226267D02*
Y226463D01*
X150797Y221885D02*
X155178Y226267D01*
X150797Y219629D02*
Y221885D01*
X150470Y219302D02*
X150797Y219629D01*
X149547Y219302D02*
X150470D01*
X153385Y218022D02*
X155277D01*
X162600Y219302D02*
X166125D01*
X160493Y221408D02*
X162600Y219302D01*
X160493Y221408D02*
Y226463D01*
X159900Y218215D02*
X161373Y216743D01*
X166125D01*
X136572Y226071D02*
X138336Y224307D01*
X136164Y226071D02*
X136572D01*
X138336Y219302D02*
Y224307D01*
X121918Y228027D02*
Y232856D01*
X150470Y219302D02*
X150797Y219629D01*
X159359Y218215D02*
X159900D01*
X184158Y197000D02*
X191522D01*
X183658Y197500D02*
X184158Y197000D01*
X178342Y197303D02*
Y197500D01*
X176115Y195076D02*
X178342Y197303D01*
X161518Y195076D02*
X176115D01*
X160246Y193804D02*
X161518Y195076D01*
X160246Y193607D02*
Y193804D01*
X150470Y219302D02*
X150797Y219629D01*
X149547Y214184D02*
X153385Y218022D01*
X111589Y183500D02*
X113353Y185264D01*
X124029D01*
X124530Y185765D01*
X121671Y195171D02*
Y200000D01*
X147730Y200774D02*
X148504Y201548D01*
X146955Y200000D02*
X147730Y200774D01*
X121671Y200000D02*
X146955D01*
X145586Y167496D02*
X149809D01*
X144145Y168936D02*
X145586Y167496D01*
X144000Y168936D02*
X144145D01*
X149482Y159492D02*
X149809Y159819D01*
X147732Y159492D02*
X149482D01*
X145000Y156759D02*
X147732Y159492D01*
X168379Y167815D02*
X170500Y169936D01*
X166707Y167815D02*
X168379D01*
X166388Y167496D02*
X166707Y167815D01*
X177486Y164937D02*
X178243Y165694D01*
X173469Y164937D02*
X177486D01*
X173000D02*
X173469D01*
X173000D02*
X173469Y165406D01*
X166388Y164937D02*
X173000D01*
X119378D02*
X149809D01*
X119098Y164657D02*
X119378Y164937D01*
X172551Y159705D02*
Y160696D01*
X170869Y162378D02*
X172551Y160696D01*
Y159705D02*
X177236D01*
X166388Y162378D02*
X170869D01*
X177236Y159705D02*
X179000Y157941D01*
X146086Y145996D02*
X150309D01*
X144645Y147436D02*
X146086Y145996D01*
X144500Y147436D02*
X144645D01*
X149982Y137992D02*
X150309Y138319D01*
X148232Y137992D02*
X149982D01*
X145500Y135259D02*
X148232Y137992D01*
X168879Y146315D02*
X171000Y148436D01*
X167207Y146315D02*
X168879D01*
X166888Y145996D02*
X167207Y146315D01*
X177986Y143437D02*
X178743Y144194D01*
X173969Y143437D02*
X177986D01*
X173500D02*
X173969D01*
X173500D02*
X173969Y143906D01*
X166888Y143437D02*
X173500D01*
X119878D02*
X150309D01*
X119598Y143157D02*
X119878Y143437D01*
X173051Y138205D02*
Y139196D01*
X171369Y140878D02*
X173051Y139196D01*
Y138205D02*
X177736D01*
X166888Y140878D02*
X171369D01*
X177736Y138205D02*
X179500Y136441D01*
X145586Y124996D02*
X149809D01*
X144145Y126436D02*
X145586Y124996D01*
X144000Y126436D02*
X144145D01*
X149482Y116992D02*
X149809Y117319D01*
X147732Y116992D02*
X149482D01*
X145000Y114259D02*
X147732Y116992D01*
X168379Y125315D02*
X170500Y127436D01*
X166707Y125315D02*
X168379D01*
X166388Y124996D02*
X166707Y125315D01*
X177486Y122437D02*
X178243Y123194D01*
X173469Y122437D02*
X177486D01*
X173000D02*
X173469D01*
X166388D02*
X173000D01*
X119378D02*
X149809D01*
X119098Y122157D02*
X119378Y122437D01*
X172551Y117205D02*
Y118196D01*
X170869Y119878D02*
X172551Y118196D01*
Y117205D02*
X177236D01*
X166388Y119878D02*
X170869D01*
X177236Y117205D02*
X179000Y115441D01*
X145586Y103496D02*
X149809D01*
X144145Y104936D02*
X145586Y103496D01*
X144000Y104936D02*
X144145D01*
X149482Y95492D02*
X149809Y95819D01*
X147732Y95492D02*
X149482D01*
X145000Y92759D02*
X147732Y95492D01*
X168379Y103815D02*
X170500Y105936D01*
X166707Y103815D02*
X168379D01*
X166388Y103496D02*
X166707Y103815D01*
X177486Y100937D02*
X178243Y101694D01*
X173469Y100937D02*
X177486D01*
X173000D02*
X173469D01*
X166388D02*
X173000D01*
X119378D02*
X149809D01*
X119098Y100657D02*
X119378Y100937D01*
X172551Y95705D02*
Y96696D01*
X170869Y98378D02*
X172551Y96696D01*
Y95705D02*
X177236D01*
X166388Y98378D02*
X170869D01*
X177236Y95705D02*
X179000Y93941D01*
X145586Y82996D02*
X149809D01*
X144145Y84436D02*
X145586Y82996D01*
X144000Y84436D02*
X144145D01*
X149482Y74992D02*
X149809Y75319D01*
X147732Y74992D02*
X149482D01*
X145000Y72259D02*
X147732Y74992D01*
X168379Y83315D02*
X170500Y85436D01*
X166707Y83315D02*
X168379D01*
X166388Y82996D02*
X166707Y83315D01*
X177486Y80437D02*
X178243Y81194D01*
X173469Y80437D02*
X177486D01*
X173000D02*
X173469D01*
X166388D02*
X173000D01*
X119378D02*
X149809D01*
X119098Y80157D02*
X119378Y80437D01*
X172551Y75205D02*
Y76196D01*
X170869Y77878D02*
X172551Y76196D01*
Y75205D02*
X177236D01*
X166388Y77878D02*
X170869D01*
X177236Y75205D02*
X179000Y73441D01*
X145586Y62496D02*
X149809D01*
X144145Y63936D02*
X145586Y62496D01*
X144000Y63936D02*
X144145D01*
X149482Y54492D02*
X149809Y54819D01*
X147732Y54492D02*
X149482D01*
X145000Y51759D02*
X147732Y54492D01*
X168379Y62815D02*
X170500Y64936D01*
X166707Y62815D02*
X168379D01*
X166388Y62496D02*
X166707Y62815D01*
X177486Y59937D02*
X178243Y60694D01*
X173469Y59937D02*
X177486D01*
X173000D02*
X173469D01*
X173000D02*
X173469Y60406D01*
X166388Y59937D02*
X173000D01*
X172551Y54705D02*
Y55696D01*
X170869Y57378D02*
X172551Y55696D01*
Y54705D02*
X177236D01*
X166388Y57378D02*
X170869D01*
X177236Y54705D02*
X179000Y52941D01*
X145586Y41996D02*
X149809D01*
X144145Y43436D02*
X145586Y41996D01*
X144000Y43436D02*
X144145D01*
X149482Y33992D02*
X149809Y34319D01*
X147732Y33992D02*
X149482D01*
X145000Y31259D02*
X147732Y33992D01*
X168379Y42315D02*
X170500Y44436D01*
X166707Y42315D02*
X168379D01*
X166388Y41996D02*
X166707Y42315D01*
X177486Y39437D02*
X178243Y40194D01*
X173469Y39437D02*
X177486D01*
X173000D02*
X173469D01*
X173000D02*
X173469Y39906D01*
X166388Y39437D02*
X173000D01*
X119378D02*
X149809D01*
X119098Y39157D02*
X119378Y39437D01*
X172551Y34205D02*
Y35196D01*
X170869Y36878D02*
X172551Y35196D01*
Y34205D02*
X177236D01*
X166388Y36878D02*
X170869D01*
X177236Y34205D02*
X179000Y32441D01*
X66791Y247500D02*
X67392D01*
X71365Y251472D01*
X71759D01*
X53000Y244500D02*
Y256192D01*
X50608Y258585D02*
X53000Y256192D01*
X50608Y258585D02*
Y269840D01*
X52268Y271500D01*
X13409Y267616D02*
X17294Y271500D01*
X13409Y233648D02*
Y267616D01*
Y233648D02*
X39000Y208058D01*
X40772Y271500D02*
X44394Y267878D01*
Y253339D02*
Y267878D01*
Y253339D02*
X48232Y249500D01*
X39000Y271500D02*
X40772D01*
X16000Y271500D02*
X17294D01*
X39000Y187244D02*
Y208058D01*
X322519Y87217D02*
X327969D01*
X320500Y89236D02*
X322519Y87217D01*
X325000Y138000D02*
Y143000D01*
Y138000D02*
X337248D01*
X337465Y137784D01*
X150470Y219302D02*
X150797Y219629D01*
X149300Y181328D02*
X153138Y185167D01*
X130864Y180450D02*
X138089D01*
X159112Y185359D02*
X159654D01*
X161126Y183887D01*
X165878D01*
X150223Y186446D02*
X150550Y186773D01*
X149300Y186446D02*
X150223D01*
X138089Y185765D02*
Y186446D01*
Y191452D01*
X153138Y185167D02*
X155030D01*
X119098Y18157D02*
X119378Y18437D01*
X149809D01*
X147149Y195076D02*
X147730Y195656D01*
X143885Y195076D02*
X147149D01*
X135917Y193215D02*
X136325D01*
X138089Y191452D01*
X148504Y201548D02*
X154589D01*
X155030Y201107D01*
X229500Y175997D02*
X246569D01*
X246607Y176035D01*
X251922D02*
Y182397D01*
X173000Y18437D02*
X173469Y18906D01*
X305606Y50541D02*
X307848Y48299D01*
X305606Y50541D02*
Y50791D01*
X307848Y48299D02*
X312000D01*
X306500Y60523D02*
Y60602D01*
Y60523D02*
X307324Y59699D01*
X312000D01*
X321055D02*
X325851D01*
X326000Y59551D01*
X321055Y48299D02*
X321333Y48577D01*
X326000D01*
X313850Y81802D02*
X321837D01*
X313850Y79802D02*
X322665D01*
X322682Y79819D02*
X324682D01*
X322665Y79802D02*
X322682Y79819D01*
X321853Y81819D02*
X324682D01*
X321837Y81802D02*
X321853Y81819D01*
X327697Y81827D02*
X327969Y82098D01*
X324690Y81827D02*
X327697D01*
X324682Y81819D02*
X324690Y81827D01*
X327697Y79811D02*
X327969Y79539D01*
X324690Y79811D02*
X327697D01*
X324682Y79819D02*
X324690Y79811D01*
X177486Y18437D02*
X178243Y19194D01*
X173469Y18437D02*
X177486D01*
X173000D02*
X173469D01*
X166388D02*
X173000D01*
X308355Y153000D02*
X312874D01*
X307359Y155287D02*
X309646Y157574D01*
X246607Y172892D02*
Y176035D01*
Y172892D02*
X250165Y169335D01*
X259165D01*
X260749Y167751D01*
Y162685D02*
Y167751D01*
X252122Y175835D02*
X255965D01*
X251922Y176035D02*
X252122Y175835D01*
X255965D02*
X262717Y169082D01*
Y162685D02*
Y169082D01*
Y162685D02*
X264686D01*
X336933Y133000D02*
X337465Y132468D01*
X325000Y133000D02*
X336933D01*
X309465Y174083D02*
X309646Y173902D01*
Y168047D02*
Y173902D01*
X295151Y174083D02*
X295151Y174083D01*
Y168047D02*
Y174083D01*
X286339Y154842D02*
X287873D01*
X309646Y157574D02*
Y162929D01*
X295151Y157219D02*
X295323Y157047D01*
X295151Y157219D02*
Y162929D01*
X168379Y21315D02*
X170500Y23436D01*
X166707Y21315D02*
X168379D01*
X166388Y20996D02*
X166707Y21315D01*
X149482Y12992D02*
X149809Y13319D01*
X147732Y12992D02*
X149482D01*
X145000Y10259D02*
X147732Y12992D01*
X145586Y20996D02*
X149809D01*
X144145Y22436D02*
X145586Y20996D01*
X144000Y22436D02*
X144145D01*
X172551Y13205D02*
Y14196D01*
X170869Y15878D02*
X172551Y14196D01*
Y13205D02*
X177236D01*
X166388Y15878D02*
X170869D01*
X177236Y13205D02*
X179000Y11441D01*
X321500Y75040D02*
X323441Y76980D01*
X327969D01*
X266654Y156878D02*
Y162685D01*
X286339Y150874D02*
X286371Y150906D01*
X286339Y148906D02*
X300465D01*
X301370Y148000D01*
X288497Y152905D02*
X296729D01*
X288434Y152842D02*
X288497Y152905D01*
X287873Y154842D02*
X288031Y155000D01*
X286339Y152842D02*
X288434D01*
X288031Y155000D02*
X293276D01*
X296729Y152905D02*
X299111Y155287D01*
X293276Y155000D02*
X295323Y157047D01*
X286371Y150906D02*
X299611D01*
X300753Y152047D01*
X301197D01*
X299111Y155287D02*
X307359D01*
X301370Y139047D02*
X301465D01*
X302512Y138000D01*
X309646D01*
X299323Y134874D02*
Y135047D01*
Y134874D02*
X301197Y133000D01*
X309646D01*
X286339Y143000D02*
X309646D01*
X301370Y148000D02*
X309646D01*
X160148Y193706D02*
X160246Y193607D01*
X160148Y193706D02*
Y201107D01*
X149300Y181328D02*
Y183887D01*
X162353Y186446D02*
X165878D01*
X160246Y188552D02*
X162353Y186446D01*
X160246Y188552D02*
Y193607D01*
X313264Y81840D02*
X313812D01*
X311500Y83604D02*
X313264Y81840D01*
X311500Y83604D02*
Y85376D01*
X309736Y81840D02*
X311500Y83604D01*
X313812Y81840D02*
X313850Y81802D01*
X309188Y81840D02*
X309736D01*
X306147Y82802D02*
X306688D01*
X307688Y81802D02*
X309150D01*
X306688Y82802D02*
X307688Y81802D01*
X309150D02*
X309188Y81840D01*
X313812Y79764D02*
X313850Y79802D01*
X313264Y79764D02*
X313812D01*
X311500Y78001D02*
X313264Y79764D01*
X309736D02*
X311500Y78001D01*
Y76229D02*
Y78001D01*
X309150Y79802D02*
X309188Y79764D01*
X307688Y79802D02*
X309150D01*
X309188Y79764D02*
X309736D01*
X306688Y78802D02*
X307688Y79802D01*
X306147Y78802D02*
X306688D01*
D16*
X246607Y176035D02*
D03*
X251922D02*
D03*
X154931Y193607D02*
D03*
X160246D02*
D03*
X178342Y197500D02*
D03*
X183658D02*
D03*
X178589Y230356D02*
D03*
X183905D02*
D03*
X155178Y226463D02*
D03*
X160493D02*
D03*
D17*
X274528Y180035D02*
D03*
X264365D02*
D03*
X26807Y271500D02*
D03*
X264463Y265443D02*
D03*
X275500D02*
D03*
X77000Y20134D02*
D03*
X53500Y41308D02*
D03*
X167500Y259138D02*
D03*
X100500Y7110D02*
D03*
X278000Y40500D02*
D03*
X250244Y59823D02*
D03*
X137000Y14500D02*
D03*
X119098Y18157D02*
D03*
X137000Y35500D02*
D03*
X119098Y39157D02*
D03*
X137000Y97000D02*
D03*
X119098Y100657D02*
D03*
X137000Y118500D02*
D03*
X119098Y122157D02*
D03*
X137000Y76500D02*
D03*
X119098Y80157D02*
D03*
X137000Y56000D02*
D03*
X119098Y59657D02*
D03*
X137500Y139500D02*
D03*
X119598Y143157D02*
D03*
X137000Y161000D02*
D03*
X119098Y164657D02*
D03*
X135917Y193215D02*
D03*
X136164Y226071D02*
D03*
X121671Y200000D02*
D03*
X121918Y232856D02*
D03*
X111317Y183500D02*
D03*
X111564Y216356D02*
D03*
X52268Y271500D02*
D03*
X16000D02*
D03*
X39000Y271500D02*
D03*
D18*
X71759Y260528D02*
D03*
Y251472D02*
D03*
X60358Y260720D02*
D03*
Y251665D02*
D03*
D19*
X321055Y59937D02*
D03*
X312000D02*
D03*
Y48299D02*
D03*
X321055D02*
D03*
D20*
X337465Y137784D02*
D03*
Y132468D02*
D03*
X138089Y180450D02*
D03*
Y185765D02*
D03*
X138336Y213306D02*
D03*
Y218621D02*
D03*
D21*
X309646Y168047D02*
D03*
Y162929D02*
D03*
X295151Y168047D02*
D03*
Y162929D02*
D03*
X147730Y200774D02*
D03*
Y195656D02*
D03*
X147977Y233630D02*
D03*
Y228512D02*
D03*
D22*
X278465Y162685D02*
D03*
X276497D02*
D03*
X274528D02*
D03*
X272560D02*
D03*
X270591D02*
D03*
X268623D02*
D03*
X266654D02*
D03*
X264686D02*
D03*
X262717D02*
D03*
X260749D02*
D03*
X258780D02*
D03*
X256812D02*
D03*
X254843D02*
D03*
X252875D02*
D03*
X250906D02*
D03*
X248938D02*
D03*
Y117409D02*
D03*
X250906D02*
D03*
X252875D02*
D03*
X254843D02*
D03*
X256812D02*
D03*
X258780D02*
D03*
X260749D02*
D03*
X262717D02*
D03*
X264686D02*
D03*
X266654D02*
D03*
X268623D02*
D03*
X270591D02*
D03*
X272560D02*
D03*
X274528D02*
D03*
X276497D02*
D03*
X278465D02*
D03*
D23*
X241064Y154811D02*
D03*
Y152842D02*
D03*
Y150874D02*
D03*
Y148906D02*
D03*
Y146937D02*
D03*
Y144968D02*
D03*
Y143000D02*
D03*
Y141032D02*
D03*
Y139063D02*
D03*
Y137094D02*
D03*
Y135126D02*
D03*
Y133158D02*
D03*
Y131189D02*
D03*
Y129220D02*
D03*
Y127252D02*
D03*
Y125284D02*
D03*
X286339D02*
D03*
Y127252D02*
D03*
Y129220D02*
D03*
Y131189D02*
D03*
Y133158D02*
D03*
Y135126D02*
D03*
Y137094D02*
D03*
Y139063D02*
D03*
Y141032D02*
D03*
Y143000D02*
D03*
Y144968D02*
D03*
Y146937D02*
D03*
Y148906D02*
D03*
Y150874D02*
D03*
Y152842D02*
D03*
Y154811D02*
D03*
D24*
X311500Y76229D02*
D03*
Y85376D02*
D03*
X179000Y20027D02*
D03*
X179000Y10027D02*
D03*
X179000Y41027D02*
D03*
X179000Y31027D02*
D03*
X179000Y102527D02*
D03*
X179000Y92527D02*
D03*
X179000Y124027D02*
D03*
X179000Y114027D02*
D03*
X179000Y82027D02*
D03*
X179000Y72027D02*
D03*
X179000Y61527D02*
D03*
X179000Y51527D02*
D03*
X179500Y145027D02*
D03*
X179500Y135027D02*
D03*
X179000Y166527D02*
D03*
X179000Y156527D02*
D03*
X182500Y188718D02*
D03*
X182747Y221574D02*
D03*
X182348Y178460D02*
D03*
X182595Y211315D02*
D03*
D25*
X283500Y94402D02*
D03*
Y101291D02*
D03*
X274627Y94055D02*
D03*
Y100945D02*
D03*
D26*
X166388Y159819D02*
D03*
Y162378D02*
D03*
Y164937D02*
D03*
Y167496D02*
D03*
X149809Y159819D02*
D03*
Y162378D02*
D03*
Y164937D02*
D03*
Y167496D02*
D03*
X166888Y138319D02*
D03*
Y140878D02*
D03*
Y143437D02*
D03*
Y145996D02*
D03*
X150309Y138319D02*
D03*
Y140878D02*
D03*
Y143437D02*
D03*
Y145996D02*
D03*
X166388Y117319D02*
D03*
Y119878D02*
D03*
Y122437D02*
D03*
Y124996D02*
D03*
X149809Y117319D02*
D03*
Y119878D02*
D03*
Y122437D02*
D03*
Y124996D02*
D03*
X166388Y95819D02*
D03*
Y98378D02*
D03*
Y100937D02*
D03*
Y103496D02*
D03*
X149809Y95819D02*
D03*
Y98378D02*
D03*
Y100937D02*
D03*
Y103496D02*
D03*
X166388Y75319D02*
D03*
Y77878D02*
D03*
Y80437D02*
D03*
Y82996D02*
D03*
X149809Y75319D02*
D03*
Y77878D02*
D03*
Y80437D02*
D03*
Y82996D02*
D03*
X166388Y54819D02*
D03*
Y57378D02*
D03*
Y59937D02*
D03*
Y62496D02*
D03*
X149809Y54819D02*
D03*
Y57378D02*
D03*
Y59937D02*
D03*
Y62496D02*
D03*
X166388Y34319D02*
D03*
Y36878D02*
D03*
Y39437D02*
D03*
Y41996D02*
D03*
X149809Y34319D02*
D03*
Y36878D02*
D03*
Y39437D02*
D03*
Y41996D02*
D03*
Y20996D02*
D03*
Y18437D02*
D03*
Y15878D02*
D03*
Y13319D02*
D03*
X166388Y20996D02*
D03*
Y18437D02*
D03*
Y15878D02*
D03*
Y13319D02*
D03*
X165878Y178769D02*
D03*
Y181328D02*
D03*
Y183887D02*
D03*
Y186446D02*
D03*
X149300Y178769D02*
D03*
Y181328D02*
D03*
Y183887D02*
D03*
Y186446D02*
D03*
X166125Y211625D02*
D03*
Y214184D02*
D03*
Y216743D02*
D03*
Y219302D02*
D03*
X149547Y211625D02*
D03*
Y214184D02*
D03*
Y216743D02*
D03*
Y219302D02*
D03*
D27*
X338500Y86823D02*
D03*
Y77374D02*
D03*
D28*
Y95583D02*
D03*
Y68614D02*
D03*
D29*
X328854Y94697D02*
D03*
Y69500D02*
D03*
D30*
X327969Y87217D02*
D03*
Y84658D02*
D03*
Y79539D02*
D03*
Y76980D02*
D03*
Y82098D02*
D03*
D31*
X124530Y185765D02*
D03*
X129648D02*
D03*
X155030Y201107D02*
D03*
X160148D02*
D03*
X155277Y233963D02*
D03*
X160395D02*
D03*
X129895Y218621D02*
D03*
X124777D02*
D03*
D54*
X309646Y153000D02*
D03*
X325000D02*
D03*
X309646Y148000D02*
D03*
X325000D02*
D03*
X309646Y143000D02*
D03*
X325000D02*
D03*
X309646Y138000D02*
D03*
X325000D02*
D03*
X309646Y133000D02*
D03*
X325000D02*
D03*
D55*
X277500Y41000D02*
X278000Y40500D01*
X277500Y41000D02*
Y49500D01*
X251040Y59028D02*
X258500D01*
X250244Y59823D02*
X251040Y59028D01*
X274627Y74949D02*
Y94055D01*
X259500Y59822D02*
X274627Y74949D01*
X284350Y78001D02*
Y93551D01*
X283500Y94402D02*
X284350Y93551D01*
X277500Y71150D02*
X284350Y78001D01*
X277500Y49500D02*
Y71150D01*
X273276Y257000D02*
X275500D01*
X271232Y259045D02*
X273276Y257000D01*
X271232Y259045D02*
Y263051D01*
X272110Y263930D01*
X267853D02*
X268731Y263051D01*
Y259183D02*
Y263051D01*
X267853Y270336D02*
X268731Y269457D01*
X54973Y206718D02*
X118590Y270336D01*
X268731Y267836D02*
Y269457D01*
X265977Y266957D02*
X267853D01*
X264463Y265443D02*
X265977Y266957D01*
X265732Y256183D02*
X268731Y259183D01*
X263701Y256183D02*
X265732D01*
X272110Y266957D02*
X273986D01*
X275500Y265443D01*
X273986Y263930D02*
X275500Y265443D01*
X271232Y267836D02*
X272110Y266957D01*
X271232Y267836D02*
Y270493D01*
X272110Y263930D02*
X273986D01*
X268888Y272836D02*
X271232Y270493D01*
X117555Y272836D02*
X268888D01*
X52473Y207754D02*
X117555Y272836D01*
X52473Y185772D02*
Y207754D01*
X48842Y182142D02*
X52473Y185772D01*
X48842Y181339D02*
Y182142D01*
X267853Y266957D02*
X268731Y267836D01*
X118590Y270336D02*
X267853D01*
X264463Y265443D02*
X265977Y263930D01*
X267853D01*
X54973Y176905D02*
Y206718D01*
X48842Y170775D02*
X54973Y176905D01*
X48842Y169528D02*
Y170775D01*
X278465Y190558D02*
Y191370D01*
X277814Y189907D02*
X278465Y190558D01*
X277814Y181548D02*
Y189907D01*
X276300Y180035D02*
X277814Y181548D01*
X274528Y180035D02*
X276300D01*
X260000Y191188D02*
Y192000D01*
Y191188D02*
X261079Y190109D01*
Y181548D02*
Y190109D01*
Y181548D02*
X262593Y180035D01*
X264365D01*
X84393Y26105D02*
X88500Y30212D01*
X84393Y25755D02*
Y26105D01*
X78772Y20134D02*
X84393Y25755D01*
X77000Y20134D02*
X78772D01*
X88500Y30212D02*
X93000D01*
X99000Y8610D02*
X100500Y7110D01*
X99000Y8610D02*
Y13713D01*
X87500Y203107D02*
X104698D01*
X111564Y209974D01*
Y216356D01*
X88000Y170775D02*
X104974D01*
X111317Y177118D01*
Y183500D01*
X138336Y218621D02*
X139017Y219302D01*
X129895Y218621D02*
X138336D01*
X139017Y219302D02*
X149547D01*
X166125Y211625D02*
Y214131D01*
X182747Y220816D02*
Y221574D01*
X181233Y219302D02*
X182747Y220816D01*
X166125Y219302D02*
X181233D01*
X182303Y211607D02*
X182595Y211315D01*
X166143Y211607D02*
X182303D01*
X166125Y211625D02*
X166143Y211607D01*
X166125Y214131D02*
X166152Y214157D01*
X165896Y178751D02*
X182056D01*
X165878Y178769D02*
X165896Y178751D01*
X182500Y187960D02*
Y188718D01*
X180986Y186446D02*
X182500Y187960D01*
X165878Y186446D02*
X180986D01*
X166388Y155876D02*
X166551Y155712D01*
X166388Y155876D02*
Y159819D01*
X137083Y162378D02*
X149809D01*
X137000Y162295D02*
X137083Y162378D01*
X166888Y134376D02*
X167051Y134212D01*
X166888Y134376D02*
Y138319D01*
X137583Y140878D02*
X150309D01*
X137500Y140795D02*
X137583Y140878D01*
X166388Y113376D02*
X166551Y113212D01*
X166388Y113376D02*
Y117319D01*
X137083Y119878D02*
X149809D01*
X137000Y119795D02*
X137083Y119878D01*
X166388Y91876D02*
X166551Y91712D01*
X166388Y91876D02*
Y95819D01*
X137083Y98378D02*
X149809D01*
X137000Y98295D02*
X137083Y98378D01*
X166388Y71376D02*
X166551Y71212D01*
X166388Y71376D02*
Y75319D01*
X137083Y77878D02*
X149809D01*
X137000Y77795D02*
X137083Y77878D01*
X166388Y50876D02*
X166551Y50712D01*
X166388Y50876D02*
Y54819D01*
X137083Y57378D02*
X149809D01*
X137000Y57295D02*
X137083Y57378D01*
X166388Y30376D02*
X166551Y30212D01*
X166388Y30376D02*
Y34319D01*
X137083Y36878D02*
X149809D01*
X137000Y36795D02*
X137083Y36878D01*
X72000Y260769D02*
Y267500D01*
X71759Y260528D02*
X72000Y260769D01*
X60435Y260797D02*
Y267051D01*
X60358Y260720D02*
X60435Y260797D01*
X60031Y246193D02*
Y251183D01*
X60435Y251588D01*
X60358Y251665D02*
X60435Y251588D01*
X165878Y181275D02*
X165905Y181301D01*
X165878Y178769D02*
Y181275D01*
X166388Y9376D02*
X166551Y9212D01*
X166388Y9376D02*
Y13319D01*
X137083Y15878D02*
X149809D01*
X137000Y15795D02*
X137083Y15878D01*
X138089Y185765D02*
X138770Y186446D01*
X129648Y185765D02*
X138089D01*
X138770Y186446D02*
X149300D01*
D56*
X167500Y253734D02*
Y259138D01*
X161110Y247344D02*
X167500Y253734D01*
D57*
X26000Y264921D02*
X26287Y265208D01*
Y270980D01*
X26807Y271500D01*
X47759Y135178D02*
X48842Y134095D01*
X47759Y123367D02*
X48842Y122283D01*
X47759Y111556D02*
X48842Y110472D01*
D58*
X30000Y30000D02*
D03*
Y250000D02*
D03*
X320000Y30000D02*
D03*
Y250000D02*
D03*
D59*
X48842Y169528D02*
D03*
Y181339D02*
D03*
Y98661D02*
D03*
X60654D02*
D03*
X39000Y187244D02*
D03*
Y175433D02*
D03*
Y163622D02*
D03*
Y151811D02*
D03*
Y140000D02*
D03*
Y128189D02*
D03*
Y116378D02*
D03*
Y104567D02*
D03*
Y92756D02*
D03*
X48842Y157717D02*
D03*
Y145905D02*
D03*
Y134095D02*
D03*
Y122283D02*
D03*
Y110472D02*
D03*
X60654Y181339D02*
D03*
Y169528D02*
D03*
Y157717D02*
D03*
Y145905D02*
D03*
Y134095D02*
D03*
Y122283D02*
D03*
Y110472D02*
D03*
X70496Y187244D02*
D03*
Y175433D02*
D03*
Y163622D02*
D03*
Y151811D02*
D03*
Y140000D02*
D03*
Y128189D02*
D03*
Y116378D02*
D03*
Y104567D02*
D03*
Y92756D02*
D03*
D60*
X13409Y64213D02*
D03*
Y215787D02*
D03*
D61*
X29760Y193722D02*
D03*
X344500Y133000D02*
D03*
Y138079D02*
D03*
X267500Y125284D02*
D03*
X261510Y125193D02*
D03*
X309646Y157574D02*
D03*
X277500Y49500D02*
D03*
X297500Y220500D02*
D03*
X253000Y221574D02*
D03*
X270000Y248500D02*
D03*
X87500Y220000D02*
D03*
Y203107D02*
D03*
X88000Y190500D02*
D03*
Y170775D02*
D03*
X155277Y218022D02*
D03*
X131111Y213306D02*
D03*
X191769Y229856D02*
D03*
X144132Y227932D02*
D03*
X191522Y197000D02*
D03*
X159359Y218215D02*
D03*
X144000Y168936D02*
D03*
X145000Y156759D02*
D03*
X170500Y169936D02*
D03*
X166551Y155712D02*
D03*
X173469Y164937D02*
D03*
X172551Y159705D02*
D03*
X144500Y147436D02*
D03*
X145500Y135259D02*
D03*
X171000Y148436D02*
D03*
X167051Y134212D02*
D03*
X173969Y143437D02*
D03*
X173051Y138205D02*
D03*
X144000Y126436D02*
D03*
X145000Y114259D02*
D03*
X170500Y127436D02*
D03*
X166551Y113212D02*
D03*
X173469Y122437D02*
D03*
X172551Y117205D02*
D03*
X144000Y104936D02*
D03*
X145000Y92759D02*
D03*
X170500Y105936D02*
D03*
X166551Y91712D02*
D03*
X173469Y100937D02*
D03*
X172551Y95705D02*
D03*
X144000Y84436D02*
D03*
X145000Y72259D02*
D03*
X170500Y85436D02*
D03*
X166551Y71212D02*
D03*
X173469Y80437D02*
D03*
X172551Y75205D02*
D03*
X144000Y63936D02*
D03*
X145000Y51759D02*
D03*
X170500Y64936D02*
D03*
X166551Y50712D02*
D03*
X173469Y59937D02*
D03*
X172551Y54705D02*
D03*
X144000Y43436D02*
D03*
X145000Y31259D02*
D03*
X170500Y44436D02*
D03*
X166551Y30212D02*
D03*
X173469Y39437D02*
D03*
X172551Y34205D02*
D03*
X60435Y267051D02*
D03*
X53000Y244500D02*
D03*
X251922Y68326D02*
D03*
X260749Y145535D02*
D03*
X26500Y224801D02*
D03*
X287041Y56645D02*
D03*
X273500Y64146D02*
D03*
X286500Y65823D02*
D03*
X287500Y74638D02*
D03*
X320500Y89236D02*
D03*
X130864Y180450D02*
D03*
X155030Y185167D02*
D03*
X60031Y246193D02*
D03*
X143885Y195076D02*
D03*
X229500Y175997D02*
D03*
X251922Y182397D02*
D03*
X305606Y50791D02*
D03*
X306500Y60602D02*
D03*
X326000Y59551D02*
D03*
Y48577D02*
D03*
X345000Y48626D02*
D03*
Y59500D02*
D03*
X259500Y59822D02*
D03*
X48232Y249500D02*
D03*
X173469Y18437D02*
D03*
X309465Y174083D02*
D03*
X295151D02*
D03*
X170500Y23436D02*
D03*
X145000Y10259D02*
D03*
X144000Y22436D02*
D03*
X166551Y9212D02*
D03*
X172551Y13205D02*
D03*
X321500Y75040D02*
D03*
X283961Y70890D02*
D03*
X266654Y156878D02*
D03*
X301197Y152047D02*
D03*
X301370Y139047D02*
D03*
X295323Y157047D02*
D03*
X299323Y135047D02*
D03*
X159112Y185359D02*
D03*
X306147Y82802D02*
D03*
Y78802D02*
D03*
X252666Y237516D02*
D03*
X286166D02*
D03*
D62*
X263701Y256183D02*
D03*
X275500Y257000D02*
D03*
X264292Y207500D02*
D03*
X274473Y207627D02*
D03*
X278465Y191370D02*
D03*
X260000Y192000D02*
D03*
X161110Y247344D02*
D03*
X30500Y60000D02*
D03*
X99000Y13713D02*
D03*
X93000Y30212D02*
D03*
X46000Y14500D02*
D03*
X49000Y21094D02*
D03*
X56000Y56446D02*
D03*
X63500D02*
D03*
X141385Y261000D02*
D03*
X72000Y267500D02*
D03*
X80500Y259740D02*
D03*
X66791Y247500D02*
D03*
X26000Y264921D02*
D03*
X110778Y244866D02*
D03*
X104778Y245366D02*
D03*
X98778Y244866D02*
D03*
M02*
