G04*
G04 #@! TF.GenerationSoftware,Altium Limited,Altium Designer,19.0.12 (326)*
G04*
G04 Layer_Physical_Order=3*
G04 Layer_Color=16440176*
%FSLAX25Y25*%
%MOIN*%
G70*
G01*
G75*
%ADD61C,0.03000*%
%ADD62C,0.04500*%
G36*
X342471Y278145D02*
X344012Y277507D01*
X345400Y276580D01*
X346580Y275400D01*
X347507Y274012D01*
X348145Y272471D01*
X348471Y270834D01*
Y270000D01*
Y10000D01*
Y9166D01*
X348145Y7529D01*
X347507Y5988D01*
X346580Y4600D01*
X345400Y3420D01*
X344012Y2493D01*
X342471Y1855D01*
X340834Y1529D01*
X9166D01*
X7529Y1855D01*
X5988Y2493D01*
X4600Y3420D01*
X3420Y4600D01*
X2493Y5988D01*
X1855Y7529D01*
X1529Y9166D01*
Y10000D01*
Y270000D01*
Y270834D01*
X1855Y272471D01*
X2493Y274012D01*
X3420Y275400D01*
X4600Y276580D01*
X5988Y277507D01*
X7529Y278145D01*
X9166Y278471D01*
X340834D01*
X342471Y278145D01*
D02*
G37*
%LPC*%
G36*
X26500Y268133D02*
Y265421D01*
X29212D01*
X29166Y265770D01*
X28839Y266560D01*
X28318Y267239D01*
X27639Y267760D01*
X26848Y268088D01*
X26500Y268133D01*
D02*
G37*
G36*
X25500D02*
X25152Y268088D01*
X24361Y267760D01*
X23682Y267239D01*
X23161Y266560D01*
X22834Y265770D01*
X22788Y265421D01*
X25500D01*
Y268133D01*
D02*
G37*
G36*
X60435Y269600D02*
X59460Y269406D01*
X58633Y268853D01*
X58080Y268026D01*
X57886Y267051D01*
X58080Y266075D01*
X58633Y265248D01*
X59460Y264696D01*
X60435Y264502D01*
X61411Y264696D01*
X62238Y265248D01*
X62790Y266075D01*
X62984Y267051D01*
X62790Y268026D01*
X62238Y268853D01*
X61411Y269406D01*
X60435Y269600D01*
D02*
G37*
G36*
X72000Y270778D02*
X71152Y270666D01*
X70361Y270339D01*
X69682Y269818D01*
X69161Y269139D01*
X68834Y268348D01*
X68722Y267500D01*
X68834Y266652D01*
X69161Y265861D01*
X69682Y265182D01*
X70361Y264661D01*
X71152Y264334D01*
X72000Y264222D01*
X72848Y264334D01*
X73639Y264661D01*
X74318Y265182D01*
X74839Y265861D01*
X75166Y266652D01*
X75278Y267500D01*
X75166Y268348D01*
X74839Y269139D01*
X74318Y269818D01*
X73639Y270339D01*
X72848Y270666D01*
X72000Y270778D01*
D02*
G37*
G36*
X29212Y264421D02*
X26500D01*
Y261709D01*
X26848Y261755D01*
X27639Y262082D01*
X28318Y262603D01*
X28839Y263282D01*
X29166Y264073D01*
X29212Y264421D01*
D02*
G37*
G36*
X25500D02*
X22788D01*
X22834Y264073D01*
X23161Y263282D01*
X23682Y262603D01*
X24361Y262082D01*
X25152Y261755D01*
X25500Y261709D01*
Y264421D01*
D02*
G37*
G36*
X81000Y262952D02*
Y260240D01*
X83712D01*
X83666Y260588D01*
X83339Y261379D01*
X82818Y262058D01*
X82139Y262579D01*
X81348Y262906D01*
X81000Y262952D01*
D02*
G37*
G36*
X80000D02*
X79652Y262906D01*
X78861Y262579D01*
X78182Y262058D01*
X77661Y261379D01*
X77334Y260588D01*
X77288Y260240D01*
X80000D01*
Y262952D01*
D02*
G37*
G36*
X141385Y264278D02*
X140537Y264166D01*
X139746Y263839D01*
X139067Y263318D01*
X138546Y262639D01*
X138219Y261848D01*
X138107Y261000D01*
X138219Y260152D01*
X138546Y259361D01*
X139067Y258682D01*
X139746Y258161D01*
X140537Y257834D01*
X141385Y257722D01*
X142234Y257834D01*
X143024Y258161D01*
X143703Y258682D01*
X144224Y259361D01*
X144552Y260152D01*
X144663Y261000D01*
X144552Y261848D01*
X144224Y262639D01*
X143703Y263318D01*
X143024Y263839D01*
X142234Y264166D01*
X141385Y264278D01*
D02*
G37*
G36*
X83712Y259240D02*
X81000D01*
Y256527D01*
X81348Y256573D01*
X82139Y256901D01*
X82818Y257422D01*
X83339Y258101D01*
X83666Y258891D01*
X83712Y259240D01*
D02*
G37*
G36*
X80000D02*
X77288D01*
X77334Y258891D01*
X77661Y258101D01*
X78182Y257422D01*
X78861Y256901D01*
X79652Y256573D01*
X80000Y256527D01*
Y259240D01*
D02*
G37*
G36*
X275500Y260278D02*
X274652Y260166D01*
X273861Y259839D01*
X273182Y259318D01*
X272661Y258639D01*
X272334Y257848D01*
X272222Y257000D01*
X272334Y256152D01*
X272661Y255361D01*
X273182Y254682D01*
X273861Y254161D01*
X274652Y253834D01*
X275500Y253722D01*
X276348Y253834D01*
X277139Y254161D01*
X277818Y254682D01*
X278339Y255361D01*
X278666Y256152D01*
X278778Y257000D01*
X278666Y257848D01*
X278339Y258639D01*
X277818Y259318D01*
X277139Y259839D01*
X276348Y260166D01*
X275500Y260278D01*
D02*
G37*
G36*
X263701Y259461D02*
X262853Y259349D01*
X262062Y259022D01*
X261384Y258501D01*
X260862Y257822D01*
X260535Y257031D01*
X260423Y256183D01*
X260535Y255334D01*
X260862Y254544D01*
X261384Y253865D01*
X262062Y253344D01*
X262853Y253017D01*
X263701Y252905D01*
X264550Y253017D01*
X265340Y253344D01*
X266019Y253865D01*
X266540Y254544D01*
X266868Y255334D01*
X266979Y256183D01*
X266868Y257031D01*
X266540Y257822D01*
X266019Y258501D01*
X265340Y259022D01*
X264550Y259349D01*
X263701Y259461D01*
D02*
G37*
G36*
X48232Y252049D02*
X47257Y251855D01*
X46430Y251302D01*
X45877Y250476D01*
X45683Y249500D01*
X45877Y248524D01*
X46430Y247698D01*
X47257Y247145D01*
X48232Y246951D01*
X49208Y247145D01*
X50035Y247698D01*
X50587Y248524D01*
X50781Y249500D01*
X50587Y250476D01*
X50035Y251302D01*
X49208Y251855D01*
X48232Y252049D01*
D02*
G37*
G36*
X104278Y248578D02*
X103929Y248533D01*
X103139Y248205D01*
X102460Y247684D01*
X101939Y247005D01*
X101912Y246941D01*
X101340Y246866D01*
X101095Y247184D01*
X100417Y247705D01*
X99626Y248032D01*
X99278Y248078D01*
Y244866D01*
Y241654D01*
X99626Y241700D01*
X100417Y242027D01*
X101095Y242548D01*
X101616Y243227D01*
X101643Y243291D01*
X102215Y243367D01*
X102460Y243048D01*
X103139Y242527D01*
X103929Y242200D01*
X104278Y242154D01*
Y245366D01*
Y248578D01*
D02*
G37*
G36*
X270000Y251049D02*
X269024Y250855D01*
X268198Y250302D01*
X267645Y249475D01*
X267451Y248500D01*
X267645Y247524D01*
X268198Y246698D01*
X269024Y246145D01*
X270000Y245951D01*
X270975Y246145D01*
X271802Y246698D01*
X272355Y247524D01*
X272549Y248500D01*
X272355Y249475D01*
X271802Y250302D01*
X270975Y250855D01*
X270000Y251049D01*
D02*
G37*
G36*
X111278Y248078D02*
Y245366D01*
X113990D01*
X113944Y245714D01*
X113616Y246505D01*
X113095Y247184D01*
X112417Y247705D01*
X111626Y248032D01*
X111278Y248078D01*
D02*
G37*
G36*
X98278D02*
X97929Y248032D01*
X97139Y247705D01*
X96460Y247184D01*
X95939Y246505D01*
X95611Y245714D01*
X95565Y245366D01*
X98278D01*
Y248078D01*
D02*
G37*
G36*
X66791Y250778D02*
X65943Y250666D01*
X65152Y250339D01*
X64473Y249818D01*
X63952Y249139D01*
X63625Y248348D01*
X63513Y247500D01*
X63625Y246652D01*
X63952Y245861D01*
X64473Y245182D01*
X65152Y244661D01*
X65943Y244334D01*
X66791Y244222D01*
X67640Y244334D01*
X68430Y244661D01*
X69109Y245182D01*
X69630Y245861D01*
X69958Y246652D01*
X70069Y247500D01*
X69958Y248348D01*
X69630Y249139D01*
X69109Y249818D01*
X68430Y250339D01*
X67640Y250666D01*
X66791Y250778D01*
D02*
G37*
G36*
X161110Y250623D02*
X160262Y250511D01*
X159471Y250183D01*
X158792Y249662D01*
X158272Y248984D01*
X157944Y248193D01*
X157832Y247344D01*
X157944Y246496D01*
X158272Y245705D01*
X158792Y245026D01*
X159471Y244506D01*
X160262Y244178D01*
X161110Y244066D01*
X161959Y244178D01*
X162749Y244506D01*
X163428Y245026D01*
X163949Y245705D01*
X164277Y246496D01*
X164388Y247344D01*
X164277Y248193D01*
X163949Y248984D01*
X163428Y249662D01*
X162749Y250183D01*
X161959Y250511D01*
X161110Y250623D01*
D02*
G37*
G36*
X60031Y248742D02*
X59055Y248547D01*
X58228Y247995D01*
X57676Y247168D01*
X57481Y246193D01*
X57676Y245217D01*
X58228Y244390D01*
X59055Y243837D01*
X60031Y243643D01*
X61006Y243837D01*
X61833Y244390D01*
X62385Y245217D01*
X62580Y246193D01*
X62385Y247168D01*
X61833Y247995D01*
X61006Y248547D01*
X60031Y248742D01*
D02*
G37*
G36*
X53000Y247049D02*
X52025Y246855D01*
X51198Y246302D01*
X50645Y245476D01*
X50451Y244500D01*
X50645Y243525D01*
X51198Y242698D01*
X52025Y242145D01*
X53000Y241951D01*
X53975Y242145D01*
X54802Y242698D01*
X55355Y243525D01*
X55549Y244500D01*
X55355Y245476D01*
X54802Y246302D01*
X53975Y246855D01*
X53000Y247049D01*
D02*
G37*
G36*
X113990Y244366D02*
X111278D01*
Y241654D01*
X111626Y241700D01*
X112417Y242027D01*
X113095Y242548D01*
X113616Y243227D01*
X113944Y244018D01*
X113990Y244366D01*
D02*
G37*
G36*
X105278Y248578D02*
Y245366D01*
Y242154D01*
X105626Y242200D01*
X106417Y242527D01*
X107096Y243048D01*
X107340Y243367D01*
X107912Y243291D01*
X107939Y243227D01*
X108460Y242548D01*
X109139Y242027D01*
X109929Y241700D01*
X110278Y241654D01*
Y244866D01*
Y248078D01*
X109929Y248032D01*
X109139Y247705D01*
X108460Y247184D01*
X108215Y246866D01*
X107643Y246941D01*
X107616Y247005D01*
X107096Y247684D01*
X106417Y248205D01*
X105626Y248533D01*
X105278Y248578D01*
D02*
G37*
G36*
X98278Y244366D02*
X95565D01*
X95611Y244018D01*
X95939Y243227D01*
X96460Y242548D01*
X97139Y242027D01*
X97929Y241700D01*
X98278Y241654D01*
Y244366D01*
D02*
G37*
G36*
X320000Y260876D02*
X318299Y260742D01*
X316639Y260344D01*
X315062Y259691D01*
X313607Y258799D01*
X312310Y257691D01*
X311201Y256393D01*
X310309Y254938D01*
X309656Y253361D01*
X309258Y251701D01*
X309124Y250000D01*
X309258Y248299D01*
X309656Y246639D01*
X310309Y245062D01*
X311201Y243607D01*
X312310Y242309D01*
X313607Y241201D01*
X315062Y240309D01*
X316639Y239656D01*
X318299Y239258D01*
X320000Y239124D01*
X321701Y239258D01*
X323361Y239656D01*
X324938Y240309D01*
X326393Y241201D01*
X327691Y242309D01*
X328799Y243607D01*
X329691Y245062D01*
X330344Y246639D01*
X330742Y248299D01*
X330876Y250000D01*
X330742Y251701D01*
X330344Y253361D01*
X329691Y254938D01*
X328799Y256393D01*
X327691Y257691D01*
X326393Y258799D01*
X324938Y259691D01*
X323361Y260344D01*
X321701Y260742D01*
X320000Y260876D01*
D02*
G37*
G36*
X30000D02*
X28299Y260742D01*
X26639Y260344D01*
X25062Y259691D01*
X23607Y258799D01*
X22309Y257691D01*
X21201Y256393D01*
X20309Y254938D01*
X19656Y253361D01*
X19258Y251701D01*
X19124Y250000D01*
X19258Y248299D01*
X19656Y246639D01*
X20309Y245062D01*
X21201Y243607D01*
X22309Y242309D01*
X23607Y241201D01*
X25062Y240309D01*
X26639Y239656D01*
X28299Y239258D01*
X30000Y239124D01*
X31701Y239258D01*
X33361Y239656D01*
X34938Y240309D01*
X36393Y241201D01*
X37690Y242309D01*
X38799Y243607D01*
X39691Y245062D01*
X40344Y246639D01*
X40742Y248299D01*
X40876Y250000D01*
X40742Y251701D01*
X40344Y253361D01*
X39691Y254938D01*
X38799Y256393D01*
X37690Y257691D01*
X36393Y258799D01*
X34938Y259691D01*
X33361Y260344D01*
X31701Y260742D01*
X30000Y260876D01*
D02*
G37*
G36*
X286166Y240065D02*
X285190Y239871D01*
X284363Y239319D01*
X283811Y238492D01*
X283617Y237516D01*
X283811Y236541D01*
X284363Y235714D01*
X285190Y235161D01*
X286166Y234967D01*
X287141Y235161D01*
X287968Y235714D01*
X288521Y236541D01*
X288715Y237516D01*
X288521Y238492D01*
X287968Y239319D01*
X287141Y239871D01*
X286166Y240065D01*
D02*
G37*
G36*
X252666D02*
X251690Y239871D01*
X250863Y239319D01*
X250311Y238492D01*
X250117Y237516D01*
X250311Y236541D01*
X250863Y235714D01*
X251690Y235161D01*
X252666Y234967D01*
X253641Y235161D01*
X254468Y235714D01*
X255021Y236541D01*
X255215Y237516D01*
X255021Y238492D01*
X254468Y239319D01*
X253641Y239871D01*
X252666Y240065D01*
D02*
G37*
G36*
X191769Y232405D02*
X190793Y232211D01*
X189966Y231658D01*
X189414Y230831D01*
X189220Y229856D01*
X189414Y228881D01*
X189966Y228053D01*
X190793Y227501D01*
X191769Y227307D01*
X192744Y227501D01*
X193571Y228053D01*
X194124Y228881D01*
X194318Y229856D01*
X194124Y230831D01*
X193571Y231658D01*
X192744Y232211D01*
X191769Y232405D01*
D02*
G37*
G36*
X144132Y230481D02*
X143157Y230287D01*
X142330Y229734D01*
X141777Y228907D01*
X141583Y227932D01*
X141777Y226956D01*
X142330Y226130D01*
X143157Y225577D01*
X144132Y225383D01*
X145108Y225577D01*
X145935Y226130D01*
X146487Y226956D01*
X146681Y227932D01*
X146487Y228907D01*
X145935Y229734D01*
X145108Y230287D01*
X144132Y230481D01*
D02*
G37*
G36*
X26500Y227350D02*
X25525Y227155D01*
X24698Y226603D01*
X24145Y225776D01*
X23951Y224801D01*
X24145Y223825D01*
X24698Y222998D01*
X25525Y222446D01*
X26500Y222252D01*
X27476Y222446D01*
X28302Y222998D01*
X28855Y223825D01*
X29049Y224801D01*
X28855Y225776D01*
X28302Y226603D01*
X27476Y227155D01*
X26500Y227350D01*
D02*
G37*
G36*
X158859Y220665D02*
X158384Y220570D01*
X157557Y220018D01*
X157428Y219825D01*
X157079D01*
X156252Y220377D01*
X155277Y220571D01*
X154301Y220377D01*
X153474Y219825D01*
X152922Y218998D01*
X152728Y218022D01*
X152922Y217047D01*
X153474Y216220D01*
X154301Y215668D01*
X155277Y215473D01*
X156252Y215668D01*
X157079Y216220D01*
X157208Y216413D01*
X157557D01*
X158384Y215860D01*
X158859Y215766D01*
Y218215D01*
Y220665D01*
D02*
G37*
G36*
X253000Y224123D02*
X252025Y223928D01*
X251198Y223376D01*
X250645Y222549D01*
X250451Y221574D01*
X250645Y220598D01*
X251198Y219771D01*
X252025Y219219D01*
X253000Y219025D01*
X253976Y219219D01*
X254802Y219771D01*
X255355Y220598D01*
X255549Y221574D01*
X255355Y222549D01*
X254802Y223376D01*
X253976Y223928D01*
X253000Y224123D01*
D02*
G37*
G36*
X159859Y220665D02*
Y218715D01*
X161809D01*
X161714Y219191D01*
X161162Y220018D01*
X160335Y220570D01*
X159859Y220665D01*
D02*
G37*
G36*
X297500Y223049D02*
X296525Y222855D01*
X295698Y222302D01*
X295145Y221476D01*
X294951Y220500D01*
X295145Y219525D01*
X295698Y218698D01*
X296525Y218145D01*
X297500Y217951D01*
X298476Y218145D01*
X299302Y218698D01*
X299855Y219525D01*
X300049Y220500D01*
X299855Y221476D01*
X299302Y222302D01*
X298476Y222855D01*
X297500Y223049D01*
D02*
G37*
G36*
X87500Y222549D02*
X86524Y222355D01*
X85698Y221802D01*
X85145Y220975D01*
X84951Y220000D01*
X85145Y219024D01*
X85698Y218198D01*
X86524Y217645D01*
X87500Y217451D01*
X88476Y217645D01*
X89302Y218198D01*
X89855Y219024D01*
X90049Y220000D01*
X89855Y220975D01*
X89302Y221802D01*
X88476Y222355D01*
X87500Y222549D01*
D02*
G37*
G36*
X161809Y217715D02*
X159859D01*
Y215766D01*
X160335Y215860D01*
X161162Y216413D01*
X161714Y217240D01*
X161809Y217715D01*
D02*
G37*
G36*
X131111Y215855D02*
X130135Y215661D01*
X129308Y215108D01*
X128756Y214281D01*
X128562Y213306D01*
X128756Y212330D01*
X129308Y211504D01*
X130135Y210951D01*
X131111Y210757D01*
X132086Y210951D01*
X132913Y211504D01*
X133466Y212330D01*
X133660Y213306D01*
X133466Y214281D01*
X132913Y215108D01*
X132086Y215661D01*
X131111Y215855D01*
D02*
G37*
G36*
X13409Y223320D02*
X11940Y223175D01*
X10527Y222746D01*
X9225Y222050D01*
X8083Y221114D01*
X7147Y219972D01*
X6451Y218670D01*
X6022Y217257D01*
X5877Y215787D01*
X6022Y214318D01*
X6451Y212905D01*
X7147Y211603D01*
X8083Y210461D01*
X9225Y209524D01*
X10527Y208828D01*
X11940Y208400D01*
X13409Y208255D01*
X14879Y208400D01*
X16292Y208828D01*
X17594Y209524D01*
X18736Y210461D01*
X19672Y211603D01*
X20368Y212905D01*
X20797Y214318D01*
X20942Y215787D01*
X20797Y217257D01*
X20368Y218670D01*
X19672Y219972D01*
X18736Y221114D01*
X17594Y222050D01*
X16292Y222746D01*
X14879Y223175D01*
X13409Y223320D01*
D02*
G37*
G36*
X264792Y210712D02*
Y208000D01*
X267504D01*
X267458Y208348D01*
X267131Y209139D01*
X266610Y209818D01*
X265931Y210339D01*
X265140Y210666D01*
X264792Y210712D01*
D02*
G37*
G36*
X263792D02*
X263443Y210666D01*
X262653Y210339D01*
X261974Y209818D01*
X261453Y209139D01*
X261126Y208348D01*
X261080Y208000D01*
X263792D01*
Y210712D01*
D02*
G37*
G36*
X274473Y210905D02*
X273624Y210793D01*
X272834Y210465D01*
X272155Y209945D01*
X271634Y209266D01*
X271306Y208475D01*
X271195Y207627D01*
X271306Y206778D01*
X271634Y205988D01*
X272155Y205309D01*
X272834Y204788D01*
X273624Y204460D01*
X274473Y204348D01*
X275321Y204460D01*
X276112Y204788D01*
X276791Y205309D01*
X277312Y205988D01*
X277639Y206778D01*
X277751Y207627D01*
X277639Y208475D01*
X277312Y209266D01*
X276791Y209945D01*
X276112Y210465D01*
X275321Y210793D01*
X274473Y210905D01*
D02*
G37*
G36*
X267504Y207000D02*
X264792D01*
Y204288D01*
X265140Y204334D01*
X265931Y204661D01*
X266610Y205182D01*
X267131Y205861D01*
X267458Y206652D01*
X267504Y207000D01*
D02*
G37*
G36*
X263792D02*
X261080D01*
X261126Y206652D01*
X261453Y205861D01*
X261974Y205182D01*
X262653Y204661D01*
X263443Y204334D01*
X263792Y204288D01*
Y207000D01*
D02*
G37*
G36*
X87500Y205656D02*
X86524Y205462D01*
X85698Y204910D01*
X85145Y204083D01*
X84951Y203107D01*
X85145Y202132D01*
X85698Y201305D01*
X86524Y200752D01*
X87500Y200558D01*
X88476Y200752D01*
X89302Y201305D01*
X89855Y202132D01*
X90049Y203107D01*
X89855Y204083D01*
X89302Y204910D01*
X88476Y205462D01*
X87500Y205656D01*
D02*
G37*
G36*
X191522Y199549D02*
X190546Y199355D01*
X189719Y198802D01*
X189167Y197976D01*
X188973Y197000D01*
X189167Y196025D01*
X189719Y195198D01*
X190546Y194645D01*
X191522Y194451D01*
X192497Y194645D01*
X193324Y195198D01*
X193877Y196025D01*
X194071Y197000D01*
X193877Y197976D01*
X193324Y198802D01*
X192497Y199355D01*
X191522Y199549D01*
D02*
G37*
G36*
X143885Y197625D02*
X142910Y197431D01*
X142083Y196878D01*
X141530Y196051D01*
X141336Y195076D01*
X141530Y194100D01*
X142083Y193274D01*
X142910Y192721D01*
X143885Y192527D01*
X144861Y192721D01*
X145688Y193274D01*
X146240Y194100D01*
X146434Y195076D01*
X146240Y196051D01*
X145688Y196878D01*
X144861Y197431D01*
X143885Y197625D01*
D02*
G37*
G36*
X29760Y196271D02*
X28785Y196077D01*
X27958Y195525D01*
X27405Y194698D01*
X27211Y193722D01*
X27405Y192747D01*
X27958Y191920D01*
X28785Y191367D01*
X29760Y191174D01*
X30736Y191367D01*
X31563Y191920D01*
X32115Y192747D01*
X32309Y193722D01*
X32115Y194698D01*
X31563Y195525D01*
X30736Y196077D01*
X29760Y196271D01*
D02*
G37*
G36*
X260000Y195278D02*
X259152Y195166D01*
X258361Y194839D01*
X257682Y194318D01*
X257161Y193639D01*
X256834Y192848D01*
X256722Y192000D01*
X256834Y191152D01*
X257161Y190361D01*
X257682Y189682D01*
X258361Y189161D01*
X259152Y188834D01*
X260000Y188722D01*
X260848Y188834D01*
X261639Y189161D01*
X262318Y189682D01*
X262839Y190361D01*
X263166Y191152D01*
X263278Y192000D01*
X263166Y192848D01*
X262839Y193639D01*
X262318Y194318D01*
X261639Y194839D01*
X260848Y195166D01*
X260000Y195278D01*
D02*
G37*
G36*
X278465Y194648D02*
X277617Y194536D01*
X276826Y194209D01*
X276147Y193688D01*
X275626Y193009D01*
X275299Y192218D01*
X275187Y191370D01*
X275299Y190522D01*
X275626Y189731D01*
X276147Y189052D01*
X276826Y188531D01*
X277617Y188204D01*
X278465Y188092D01*
X279314Y188204D01*
X280104Y188531D01*
X280783Y189052D01*
X281304Y189731D01*
X281631Y190522D01*
X281743Y191370D01*
X281631Y192218D01*
X281304Y193009D01*
X280783Y193688D01*
X280104Y194209D01*
X279314Y194536D01*
X278465Y194648D01*
D02*
G37*
G36*
X88000Y193049D02*
X87024Y192855D01*
X86198Y192302D01*
X85645Y191475D01*
X85451Y190500D01*
X85645Y189524D01*
X86198Y188698D01*
X87024Y188145D01*
X88000Y187951D01*
X88976Y188145D01*
X89802Y188698D01*
X90355Y189524D01*
X90549Y190500D01*
X90355Y191475D01*
X89802Y192302D01*
X88976Y192855D01*
X88000Y193049D01*
D02*
G37*
G36*
X158612Y187809D02*
X158137Y187714D01*
X157310Y187162D01*
X157181Y186969D01*
X156832D01*
X156005Y187521D01*
X155030Y187715D01*
X154054Y187521D01*
X153227Y186969D01*
X152675Y186142D01*
X152481Y185167D01*
X152675Y184191D01*
X153227Y183364D01*
X154054Y182811D01*
X155030Y182617D01*
X156005Y182811D01*
X156832Y183364D01*
X156961Y183557D01*
X157310D01*
X158137Y183004D01*
X158612Y182910D01*
Y185359D01*
Y187809D01*
D02*
G37*
G36*
X159612D02*
Y185859D01*
X161562D01*
X161467Y186335D01*
X160915Y187162D01*
X160088Y187714D01*
X159612Y187809D01*
D02*
G37*
G36*
X161562Y184859D02*
X159612D01*
Y182910D01*
X160088Y183004D01*
X160915Y183557D01*
X161467Y184384D01*
X161562Y184859D01*
D02*
G37*
G36*
X252422Y184846D02*
Y182897D01*
X254372D01*
X254277Y183372D01*
X253725Y184199D01*
X252898Y184752D01*
X252422Y184846D01*
D02*
G37*
G36*
X251422D02*
X250947Y184752D01*
X250120Y184199D01*
X249567Y183372D01*
X249473Y182897D01*
X251422D01*
Y184846D01*
D02*
G37*
G36*
X70496Y192621D02*
X69104Y192438D01*
X67808Y191901D01*
X66694Y191046D01*
X65840Y189932D01*
X65303Y188636D01*
X65119Y187244D01*
X65303Y185853D01*
X65840Y184556D01*
X66694Y183442D01*
X67808Y182588D01*
X69104Y182051D01*
X70496Y181867D01*
X71888Y182051D01*
X73184Y182588D01*
X74298Y183442D01*
X75152Y184556D01*
X75690Y185853D01*
X75873Y187244D01*
X75690Y188636D01*
X75152Y189932D01*
X74298Y191046D01*
X73184Y191901D01*
X71888Y192438D01*
X70496Y192621D01*
D02*
G37*
G36*
X39000D02*
X37608Y192438D01*
X36312Y191901D01*
X35198Y191046D01*
X34344Y189932D01*
X33806Y188636D01*
X33623Y187244D01*
X33806Y185853D01*
X34344Y184556D01*
X35198Y183442D01*
X36312Y182588D01*
X37608Y182051D01*
X39000Y181867D01*
X40392Y182051D01*
X41688Y182588D01*
X42802Y183442D01*
X43656Y184556D01*
X44194Y185853D01*
X44377Y187244D01*
X44194Y188636D01*
X43656Y189932D01*
X42802Y191046D01*
X41688Y191901D01*
X40392Y192438D01*
X39000Y192621D01*
D02*
G37*
G36*
X254372Y181897D02*
X252422D01*
Y179947D01*
X252898Y180042D01*
X253725Y180595D01*
X254277Y181421D01*
X254372Y181897D01*
D02*
G37*
G36*
X251422D02*
X249473D01*
X249567Y181421D01*
X250120Y180595D01*
X250947Y180042D01*
X251422Y179947D01*
Y181897D01*
D02*
G37*
G36*
X130864Y182999D02*
X129888Y182805D01*
X129061Y182252D01*
X128509Y181425D01*
X128315Y180450D01*
X128509Y179474D01*
X129061Y178648D01*
X129888Y178095D01*
X130864Y177901D01*
X131839Y178095D01*
X132666Y178648D01*
X133219Y179474D01*
X133413Y180450D01*
X133219Y181425D01*
X132666Y182252D01*
X131839Y182805D01*
X130864Y182999D01*
D02*
G37*
G36*
X60654Y186715D02*
X59262Y186532D01*
X57965Y185995D01*
X56852Y185141D01*
X55997Y184027D01*
X55460Y182730D01*
X55277Y181339D01*
X55460Y179947D01*
X55997Y178650D01*
X56852Y177537D01*
X57965Y176682D01*
X59262Y176145D01*
X60654Y175962D01*
X62045Y176145D01*
X63342Y176682D01*
X64455Y177537D01*
X65310Y178650D01*
X65847Y179947D01*
X66030Y181339D01*
X65847Y182730D01*
X65310Y184027D01*
X64455Y185141D01*
X63342Y185995D01*
X62045Y186532D01*
X60654Y186715D01*
D02*
G37*
G36*
X48842D02*
X47451Y186532D01*
X46154Y185995D01*
X45041Y185141D01*
X44186Y184027D01*
X43649Y182730D01*
X43466Y181339D01*
X43649Y179947D01*
X44186Y178650D01*
X45041Y177537D01*
X46154Y176682D01*
X47451Y176145D01*
X48842Y175962D01*
X50234Y176145D01*
X51531Y176682D01*
X52644Y177537D01*
X53499Y178650D01*
X54036Y179947D01*
X54219Y181339D01*
X54036Y182730D01*
X53499Y184027D01*
X52644Y185141D01*
X51531Y185995D01*
X50234Y186532D01*
X48842Y186715D01*
D02*
G37*
G36*
X309965Y176532D02*
Y174583D01*
X311914D01*
X311820Y175058D01*
X311267Y175885D01*
X310440Y176438D01*
X309965Y176532D01*
D02*
G37*
G36*
X308965D02*
X308489Y176438D01*
X307662Y175885D01*
X307110Y175058D01*
X307015Y174583D01*
X308965D01*
Y176532D01*
D02*
G37*
G36*
X295651D02*
Y174583D01*
X297601D01*
X297506Y175058D01*
X296954Y175885D01*
X296127Y176438D01*
X295651Y176532D01*
D02*
G37*
G36*
X294651D02*
X294176Y176438D01*
X293349Y175885D01*
X292796Y175058D01*
X292702Y174583D01*
X294651D01*
Y176532D01*
D02*
G37*
G36*
X229500Y178546D02*
X228524Y178352D01*
X227698Y177799D01*
X227145Y176972D01*
X226951Y175997D01*
X227145Y175021D01*
X227698Y174194D01*
X228524Y173642D01*
X229500Y173448D01*
X230475Y173642D01*
X231302Y174194D01*
X231855Y175021D01*
X232049Y175997D01*
X231855Y176972D01*
X231302Y177799D01*
X230475Y178352D01*
X229500Y178546D01*
D02*
G37*
G36*
X311914Y173583D02*
X309965D01*
Y171633D01*
X310440Y171728D01*
X311267Y172280D01*
X311820Y173107D01*
X311914Y173583D01*
D02*
G37*
G36*
X308965D02*
X307015D01*
X307110Y173107D01*
X307662Y172280D01*
X308489Y171728D01*
X308965Y171633D01*
Y173583D01*
D02*
G37*
G36*
X297601D02*
X295651D01*
Y171633D01*
X296127Y171728D01*
X296954Y172280D01*
X297506Y173107D01*
X297601Y173583D01*
D02*
G37*
G36*
X294651D02*
X292702D01*
X292796Y173107D01*
X293349Y172280D01*
X294176Y171728D01*
X294651Y171633D01*
Y173583D01*
D02*
G37*
G36*
X171000Y172386D02*
Y170436D01*
X172950D01*
X172855Y170912D01*
X172302Y171739D01*
X171476Y172291D01*
X171000Y172386D01*
D02*
G37*
G36*
X170000D02*
X169525Y172291D01*
X168698Y171739D01*
X168145Y170912D01*
X168051Y170436D01*
X170000D01*
Y172386D01*
D02*
G37*
G36*
X70496Y180810D02*
X69104Y180627D01*
X67808Y180089D01*
X66694Y179235D01*
X65840Y178121D01*
X65303Y176825D01*
X65119Y175433D01*
X65303Y174041D01*
X65840Y172745D01*
X66694Y171631D01*
X67808Y170777D01*
X69104Y170240D01*
X70496Y170056D01*
X71888Y170240D01*
X73184Y170777D01*
X74298Y171631D01*
X75152Y172745D01*
X75690Y174041D01*
X75873Y175433D01*
X75690Y176825D01*
X75152Y178121D01*
X74298Y179235D01*
X73184Y180089D01*
X71888Y180627D01*
X70496Y180810D01*
D02*
G37*
G36*
X39000D02*
X37608Y180627D01*
X36312Y180089D01*
X35198Y179235D01*
X34344Y178121D01*
X33806Y176825D01*
X33623Y175433D01*
X33806Y174041D01*
X34344Y172745D01*
X35198Y171631D01*
X36312Y170777D01*
X37608Y170240D01*
X39000Y170056D01*
X40392Y170240D01*
X41688Y170777D01*
X42802Y171631D01*
X43656Y172745D01*
X44194Y174041D01*
X44377Y175433D01*
X44194Y176825D01*
X43656Y178121D01*
X42802Y179235D01*
X41688Y180089D01*
X40392Y180627D01*
X39000Y180810D01*
D02*
G37*
G36*
X88000Y173324D02*
X87024Y173130D01*
X86198Y172577D01*
X85645Y171750D01*
X85451Y170775D01*
X85645Y169799D01*
X86198Y168972D01*
X87024Y168420D01*
X88000Y168226D01*
X88976Y168420D01*
X89802Y168972D01*
X90355Y169799D01*
X90549Y170775D01*
X90355Y171750D01*
X89802Y172577D01*
X88976Y173130D01*
X88000Y173324D01*
D02*
G37*
G36*
X172950Y169436D02*
X171000D01*
Y167487D01*
X171476Y167581D01*
X172302Y168134D01*
X172855Y168961D01*
X172950Y169436D01*
D02*
G37*
G36*
X170000D02*
X168051D01*
X168145Y168961D01*
X168698Y168134D01*
X169525Y167581D01*
X170000Y167487D01*
Y169436D01*
D02*
G37*
G36*
X144000Y171485D02*
X143025Y171291D01*
X142198Y170738D01*
X141645Y169912D01*
X141451Y168936D01*
X141645Y167961D01*
X142198Y167134D01*
X143025Y166581D01*
X144000Y166387D01*
X144975Y166581D01*
X145802Y167134D01*
X146355Y167961D01*
X146549Y168936D01*
X146355Y169912D01*
X145802Y170738D01*
X144975Y171291D01*
X144000Y171485D01*
D02*
G37*
G36*
X60654Y174904D02*
X59262Y174721D01*
X57965Y174184D01*
X56852Y173329D01*
X55997Y172216D01*
X55460Y170919D01*
X55277Y169528D01*
X55460Y168136D01*
X55997Y166839D01*
X56852Y165726D01*
X57965Y164871D01*
X59262Y164334D01*
X60654Y164151D01*
X62045Y164334D01*
X63342Y164871D01*
X64455Y165726D01*
X65310Y166839D01*
X65847Y168136D01*
X66030Y169528D01*
X65847Y170919D01*
X65310Y172216D01*
X64455Y173329D01*
X63342Y174184D01*
X62045Y174721D01*
X60654Y174904D01*
D02*
G37*
G36*
X48842D02*
X47451Y174721D01*
X46154Y174184D01*
X45041Y173329D01*
X44186Y172216D01*
X43649Y170919D01*
X43466Y169528D01*
X43649Y168136D01*
X44186Y166839D01*
X45041Y165726D01*
X46154Y164871D01*
X47451Y164334D01*
X48842Y164151D01*
X50234Y164334D01*
X51531Y164871D01*
X52644Y165726D01*
X53499Y166839D01*
X54036Y168136D01*
X54219Y169528D01*
X54036Y170919D01*
X53499Y172216D01*
X52644Y173329D01*
X51531Y174184D01*
X50234Y174721D01*
X48842Y174904D01*
D02*
G37*
G36*
X70496Y168999D02*
X69104Y168816D01*
X67808Y168278D01*
X66694Y167424D01*
X65840Y166310D01*
X65303Y165014D01*
X65119Y163622D01*
X65303Y162231D01*
X65840Y160934D01*
X66694Y159820D01*
X67808Y158966D01*
X69104Y158429D01*
X70496Y158245D01*
X71888Y158429D01*
X73184Y158966D01*
X74298Y159820D01*
X75152Y160934D01*
X75690Y162231D01*
X75873Y163622D01*
X75690Y165014D01*
X75152Y166310D01*
X74298Y167424D01*
X73184Y168278D01*
X71888Y168816D01*
X70496Y168999D01*
D02*
G37*
G36*
X39000D02*
X37608Y168816D01*
X36312Y168278D01*
X35198Y167424D01*
X34344Y166310D01*
X33806Y165014D01*
X33623Y163622D01*
X33806Y162231D01*
X34344Y160934D01*
X35198Y159820D01*
X36312Y158966D01*
X37608Y158429D01*
X39000Y158245D01*
X40392Y158429D01*
X41688Y158966D01*
X42802Y159820D01*
X43656Y160934D01*
X44194Y162231D01*
X44377Y163622D01*
X44194Y165014D01*
X43656Y166310D01*
X42802Y167424D01*
X41688Y168278D01*
X40392Y168816D01*
X39000Y168999D01*
D02*
G37*
G36*
X267154Y159327D02*
Y157378D01*
X269104D01*
X269009Y157853D01*
X268457Y158680D01*
X267630Y159232D01*
X267154Y159327D01*
D02*
G37*
G36*
X266154D02*
X265679Y159232D01*
X264852Y158680D01*
X264299Y157853D01*
X264205Y157378D01*
X266154D01*
Y159327D01*
D02*
G37*
G36*
X173469Y167486D02*
X172494Y167292D01*
X171667Y166739D01*
X171114Y165912D01*
X170920Y164937D01*
X171114Y163961D01*
X171667Y163134D01*
X172297Y162713D01*
X172191Y162182D01*
X171576Y162060D01*
X170749Y161508D01*
X170196Y160681D01*
X170002Y159705D01*
X170196Y158730D01*
X170749Y157903D01*
X171576Y157350D01*
X172551Y157156D01*
X173527Y157350D01*
X174354Y157903D01*
X174906Y158730D01*
X175100Y159705D01*
X174906Y160681D01*
X174354Y161508D01*
X173724Y161928D01*
X173829Y162459D01*
X174445Y162582D01*
X175272Y163134D01*
X175824Y163961D01*
X176018Y164937D01*
X175824Y165912D01*
X175272Y166739D01*
X174445Y167292D01*
X173469Y167486D01*
D02*
G37*
G36*
X309646Y160123D02*
X308670Y159929D01*
X307843Y159376D01*
X307291Y158549D01*
X307097Y157574D01*
X307291Y156598D01*
X307843Y155772D01*
X308670Y155219D01*
X309646Y155025D01*
X310621Y155219D01*
X311448Y155772D01*
X312001Y156598D01*
X312195Y157574D01*
X312001Y158549D01*
X311448Y159376D01*
X310621Y159929D01*
X309646Y160123D01*
D02*
G37*
G36*
X295323Y159596D02*
X294347Y159402D01*
X293520Y158850D01*
X292968Y158023D01*
X292774Y157047D01*
X292968Y156072D01*
X293520Y155245D01*
X294347Y154692D01*
X295323Y154498D01*
X296298Y154692D01*
X297125Y155245D01*
X297678Y156072D01*
X297872Y157047D01*
X297678Y158023D01*
X297125Y158850D01*
X296298Y159402D01*
X295323Y159596D01*
D02*
G37*
G36*
X269104Y156377D02*
X267154D01*
Y154428D01*
X267630Y154523D01*
X268457Y155075D01*
X269009Y155902D01*
X269104Y156377D01*
D02*
G37*
G36*
X266154D02*
X264205D01*
X264299Y155902D01*
X264852Y155075D01*
X265679Y154523D01*
X266154Y154428D01*
Y156377D01*
D02*
G37*
G36*
X145000Y159308D02*
X144025Y159114D01*
X143198Y158562D01*
X142645Y157735D01*
X142451Y156759D01*
X142645Y155784D01*
X143198Y154957D01*
X144025Y154404D01*
X145000Y154210D01*
X145975Y154404D01*
X146802Y154957D01*
X147355Y155784D01*
X147549Y156759D01*
X147355Y157735D01*
X146802Y158562D01*
X145975Y159114D01*
X145000Y159308D01*
D02*
G37*
G36*
X166551Y158261D02*
X165576Y158067D01*
X164749Y157515D01*
X164196Y156688D01*
X164002Y155712D01*
X164196Y154737D01*
X164749Y153910D01*
X165576Y153357D01*
X166551Y153163D01*
X167527Y153357D01*
X168354Y153910D01*
X168906Y154737D01*
X169100Y155712D01*
X168906Y156688D01*
X168354Y157515D01*
X167527Y158067D01*
X166551Y158261D01*
D02*
G37*
G36*
X60654Y163093D02*
X59262Y162910D01*
X57965Y162373D01*
X56852Y161518D01*
X55997Y160405D01*
X55460Y159108D01*
X55277Y157717D01*
X55460Y156325D01*
X55997Y155028D01*
X56852Y153915D01*
X57965Y153060D01*
X59262Y152523D01*
X60654Y152340D01*
X62045Y152523D01*
X63342Y153060D01*
X64455Y153915D01*
X65310Y155028D01*
X65847Y156325D01*
X66030Y157717D01*
X65847Y159108D01*
X65310Y160405D01*
X64455Y161518D01*
X63342Y162373D01*
X62045Y162910D01*
X60654Y163093D01*
D02*
G37*
G36*
X48842D02*
X47451Y162910D01*
X46154Y162373D01*
X45041Y161518D01*
X44186Y160405D01*
X43649Y159108D01*
X43466Y157717D01*
X43649Y156325D01*
X44186Y155028D01*
X45041Y153915D01*
X46154Y153060D01*
X47451Y152523D01*
X48842Y152340D01*
X50234Y152523D01*
X51531Y153060D01*
X52644Y153915D01*
X53499Y155028D01*
X54036Y156325D01*
X54219Y157717D01*
X54036Y159108D01*
X53499Y160405D01*
X52644Y161518D01*
X51531Y162373D01*
X50234Y162910D01*
X48842Y163093D01*
D02*
G37*
G36*
X301197Y154596D02*
X300221Y154402D01*
X299394Y153850D01*
X298842Y153023D01*
X298648Y152047D01*
X298842Y151072D01*
X299394Y150245D01*
X300221Y149692D01*
X301197Y149498D01*
X302172Y149692D01*
X302999Y150245D01*
X303552Y151072D01*
X303746Y152047D01*
X303552Y153023D01*
X302999Y153850D01*
X302172Y154402D01*
X301197Y154596D01*
D02*
G37*
G36*
X171500Y150886D02*
Y148936D01*
X173450D01*
X173355Y149411D01*
X172802Y150239D01*
X171976Y150791D01*
X171500Y150886D01*
D02*
G37*
G36*
X170500D02*
X170025Y150791D01*
X169198Y150239D01*
X168645Y149411D01*
X168551Y148936D01*
X170500D01*
Y150886D01*
D02*
G37*
G36*
X317323Y153494D02*
X316548Y153392D01*
X315826Y153093D01*
X315206Y152617D01*
X314730Y151997D01*
X314431Y151275D01*
X314329Y150500D01*
X314431Y149725D01*
X314730Y149003D01*
X315206Y148383D01*
X315826Y147907D01*
X316548Y147608D01*
X317323Y147506D01*
X318098Y147608D01*
X318820Y147907D01*
X319440Y148383D01*
X319916Y149003D01*
X320215Y149725D01*
X320317Y150500D01*
X320215Y151275D01*
X319916Y151997D01*
X319440Y152617D01*
X318820Y153093D01*
X318098Y153392D01*
X317323Y153494D01*
D02*
G37*
G36*
X70496Y157188D02*
X69104Y157004D01*
X67808Y156467D01*
X66694Y155613D01*
X65840Y154499D01*
X65303Y153203D01*
X65119Y151811D01*
X65303Y150419D01*
X65840Y149123D01*
X66694Y148009D01*
X67808Y147155D01*
X69104Y146617D01*
X70496Y146434D01*
X71888Y146617D01*
X73184Y147155D01*
X74298Y148009D01*
X75152Y149123D01*
X75690Y150419D01*
X75873Y151811D01*
X75690Y153203D01*
X75152Y154499D01*
X74298Y155613D01*
X73184Y156467D01*
X71888Y157004D01*
X70496Y157188D01*
D02*
G37*
G36*
X39000D02*
X37608Y157004D01*
X36312Y156467D01*
X35198Y155613D01*
X34344Y154499D01*
X33806Y153203D01*
X33623Y151811D01*
X33806Y150419D01*
X34344Y149123D01*
X35198Y148009D01*
X36312Y147155D01*
X37608Y146617D01*
X39000Y146434D01*
X40392Y146617D01*
X41688Y147155D01*
X42802Y148009D01*
X43656Y149123D01*
X44194Y150419D01*
X44377Y151811D01*
X44194Y153203D01*
X43656Y154499D01*
X42802Y155613D01*
X41688Y156467D01*
X40392Y157004D01*
X39000Y157188D01*
D02*
G37*
G36*
X173450Y147936D02*
X171500D01*
Y145987D01*
X171976Y146081D01*
X172802Y146634D01*
X173355Y147461D01*
X173450Y147936D01*
D02*
G37*
G36*
X170500D02*
X168551D01*
X168645Y147461D01*
X169198Y146634D01*
X170025Y146081D01*
X170500Y145987D01*
Y147936D01*
D02*
G37*
G36*
X144500Y149985D02*
X143525Y149791D01*
X142698Y149239D01*
X142145Y148412D01*
X141951Y147436D01*
X142145Y146461D01*
X142698Y145634D01*
X143525Y145081D01*
X144500Y144887D01*
X145475Y145081D01*
X146302Y145634D01*
X146855Y146461D01*
X147049Y147436D01*
X146855Y148412D01*
X146302Y149239D01*
X145475Y149791D01*
X144500Y149985D01*
D02*
G37*
G36*
X260749Y148084D02*
X259773Y147890D01*
X258946Y147337D01*
X258394Y146511D01*
X258200Y145535D01*
X258394Y144560D01*
X258946Y143733D01*
X259773Y143180D01*
X260749Y142986D01*
X261724Y143180D01*
X262551Y143733D01*
X263104Y144560D01*
X263298Y145535D01*
X263104Y146511D01*
X262551Y147337D01*
X261724Y147890D01*
X260749Y148084D01*
D02*
G37*
G36*
X60654Y151282D02*
X59262Y151099D01*
X57965Y150562D01*
X56852Y149707D01*
X55997Y148594D01*
X55460Y147297D01*
X55277Y145905D01*
X55460Y144514D01*
X55997Y143217D01*
X56852Y142104D01*
X57965Y141249D01*
X59262Y140712D01*
X60654Y140529D01*
X62045Y140712D01*
X63342Y141249D01*
X64455Y142104D01*
X65310Y143217D01*
X65847Y144514D01*
X66030Y145905D01*
X65847Y147297D01*
X65310Y148594D01*
X64455Y149707D01*
X63342Y150562D01*
X62045Y151099D01*
X60654Y151282D01*
D02*
G37*
G36*
X48842D02*
X47451Y151099D01*
X46154Y150562D01*
X45041Y149707D01*
X44186Y148594D01*
X43649Y147297D01*
X43466Y145905D01*
X43649Y144514D01*
X44186Y143217D01*
X45041Y142104D01*
X46154Y141249D01*
X47451Y140712D01*
X48842Y140529D01*
X50234Y140712D01*
X51531Y141249D01*
X52644Y142104D01*
X53499Y143217D01*
X54036Y144514D01*
X54219Y145905D01*
X54036Y147297D01*
X53499Y148594D01*
X52644Y149707D01*
X51531Y150562D01*
X50234Y151099D01*
X48842Y151282D01*
D02*
G37*
G36*
X173969Y145986D02*
X172994Y145792D01*
X172167Y145239D01*
X171614Y144412D01*
X171420Y143437D01*
X171614Y142461D01*
X172167Y141634D01*
X172797Y141213D01*
X172691Y140682D01*
X172076Y140560D01*
X171249Y140008D01*
X170696Y139181D01*
X170502Y138205D01*
X170696Y137230D01*
X171249Y136403D01*
X172076Y135850D01*
X173051Y135656D01*
X174027Y135850D01*
X174854Y136403D01*
X175406Y137230D01*
X175600Y138205D01*
X175406Y139181D01*
X174854Y140008D01*
X174224Y140428D01*
X174329Y140959D01*
X174945Y141082D01*
X175772Y141634D01*
X176324Y142461D01*
X176518Y143437D01*
X176324Y144412D01*
X175772Y145239D01*
X174945Y145792D01*
X173969Y145986D01*
D02*
G37*
G36*
X70496Y145377D02*
X69104Y145194D01*
X67808Y144656D01*
X66694Y143802D01*
X65840Y142688D01*
X65303Y141392D01*
X65119Y140000D01*
X65303Y138608D01*
X65840Y137312D01*
X66694Y136198D01*
X67808Y135344D01*
X69104Y134807D01*
X70496Y134623D01*
X71888Y134807D01*
X73184Y135344D01*
X74298Y136198D01*
X75152Y137312D01*
X75690Y138608D01*
X75873Y140000D01*
X75690Y141392D01*
X75152Y142688D01*
X74298Y143802D01*
X73184Y144656D01*
X71888Y145194D01*
X70496Y145377D01*
D02*
G37*
G36*
X39000D02*
X37608Y145194D01*
X36312Y144656D01*
X35198Y143802D01*
X34344Y142688D01*
X33806Y141392D01*
X33623Y140000D01*
X33806Y138608D01*
X34344Y137312D01*
X35198Y136198D01*
X36312Y135344D01*
X37608Y134807D01*
X39000Y134623D01*
X40392Y134807D01*
X41688Y135344D01*
X42802Y136198D01*
X43656Y137312D01*
X44194Y138608D01*
X44377Y140000D01*
X44194Y141392D01*
X43656Y142688D01*
X42802Y143802D01*
X41688Y144656D01*
X40392Y145194D01*
X39000Y145377D01*
D02*
G37*
G36*
X344500Y140628D02*
X343525Y140434D01*
X342698Y139881D01*
X342145Y139054D01*
X341951Y138079D01*
X342145Y137103D01*
X342698Y136276D01*
X343385Y135817D01*
X343407Y135745D01*
Y135334D01*
X343385Y135262D01*
X342698Y134802D01*
X342145Y133976D01*
X342051Y133500D01*
X346950D01*
X346855Y133976D01*
X346302Y134802D01*
X345615Y135262D01*
X345593Y135334D01*
Y135745D01*
X345615Y135817D01*
X346302Y136276D01*
X346855Y137103D01*
X347049Y138079D01*
X346855Y139054D01*
X346302Y139881D01*
X345476Y140434D01*
X344500Y140628D01*
D02*
G37*
G36*
X145500Y137808D02*
X144525Y137614D01*
X143698Y137062D01*
X143145Y136235D01*
X142951Y135259D01*
X143145Y134284D01*
X143698Y133457D01*
X144525Y132904D01*
X145500Y132710D01*
X146475Y132904D01*
X147302Y133457D01*
X147855Y134284D01*
X148049Y135259D01*
X147855Y136235D01*
X147302Y137062D01*
X146475Y137614D01*
X145500Y137808D01*
D02*
G37*
G36*
X317323Y138494D02*
X316548Y138392D01*
X315826Y138093D01*
X315206Y137617D01*
X314730Y136997D01*
X314431Y136275D01*
X314329Y135500D01*
X314431Y134725D01*
X314730Y134003D01*
X315206Y133383D01*
X315826Y132907D01*
X316548Y132608D01*
X317323Y132506D01*
X318098Y132608D01*
X318820Y132907D01*
X319440Y133383D01*
X319916Y134003D01*
X320215Y134725D01*
X320317Y135500D01*
X320215Y136275D01*
X319916Y136997D01*
X319440Y137617D01*
X318820Y138093D01*
X318098Y138392D01*
X317323Y138494D01*
D02*
G37*
G36*
X301370Y141596D02*
X300395Y141402D01*
X299568Y140850D01*
X299015Y140023D01*
X298821Y139047D01*
X299015Y138072D01*
X299031Y138048D01*
X298801Y137492D01*
X298347Y137402D01*
X297520Y136850D01*
X296968Y136023D01*
X296774Y135047D01*
X296968Y134072D01*
X297520Y133245D01*
X298347Y132692D01*
X299323Y132498D01*
X300298Y132692D01*
X301125Y133245D01*
X301678Y134072D01*
X301872Y135047D01*
X301678Y136023D01*
X301662Y136047D01*
X301892Y136602D01*
X302345Y136692D01*
X303172Y137245D01*
X303725Y138072D01*
X303919Y139047D01*
X303725Y140023D01*
X303172Y140850D01*
X302345Y141402D01*
X301370Y141596D01*
D02*
G37*
G36*
X167051Y136761D02*
X166076Y136567D01*
X165249Y136015D01*
X164696Y135188D01*
X164502Y134212D01*
X164696Y133237D01*
X165249Y132410D01*
X166076Y131857D01*
X167051Y131663D01*
X168027Y131857D01*
X168854Y132410D01*
X169406Y133237D01*
X169600Y134212D01*
X169406Y135188D01*
X168854Y136015D01*
X168027Y136567D01*
X167051Y136761D01*
D02*
G37*
G36*
X346950Y132500D02*
X345000D01*
Y130551D01*
X345476Y130645D01*
X346302Y131198D01*
X346855Y132025D01*
X346950Y132500D01*
D02*
G37*
G36*
X344000D02*
X342051D01*
X342145Y132025D01*
X342698Y131198D01*
X343525Y130645D01*
X344000Y130551D01*
Y132500D01*
D02*
G37*
G36*
X60654Y139471D02*
X59262Y139288D01*
X57965Y138751D01*
X56852Y137896D01*
X55997Y136783D01*
X55460Y135486D01*
X55277Y134095D01*
X55460Y132703D01*
X55997Y131406D01*
X56852Y130293D01*
X57965Y129438D01*
X59262Y128901D01*
X60654Y128718D01*
X62045Y128901D01*
X63342Y129438D01*
X64455Y130293D01*
X65310Y131406D01*
X65847Y132703D01*
X66030Y134095D01*
X65847Y135486D01*
X65310Y136783D01*
X64455Y137896D01*
X63342Y138751D01*
X62045Y139288D01*
X60654Y139471D01*
D02*
G37*
G36*
X48842D02*
X47451Y139288D01*
X46154Y138751D01*
X45041Y137896D01*
X44186Y136783D01*
X43649Y135486D01*
X43466Y134095D01*
X43649Y132703D01*
X44186Y131406D01*
X45041Y130293D01*
X46154Y129438D01*
X47451Y128901D01*
X48842Y128718D01*
X50234Y128901D01*
X51531Y129438D01*
X52644Y130293D01*
X53499Y131406D01*
X54036Y132703D01*
X54219Y134095D01*
X54036Y135486D01*
X53499Y136783D01*
X52644Y137896D01*
X51531Y138751D01*
X50234Y139288D01*
X48842Y139471D01*
D02*
G37*
G36*
X171000Y129886D02*
Y127936D01*
X172950D01*
X172855Y128411D01*
X172302Y129238D01*
X171476Y129791D01*
X171000Y129886D01*
D02*
G37*
G36*
X170000D02*
X169525Y129791D01*
X168698Y129238D01*
X168145Y128411D01*
X168051Y127936D01*
X170000D01*
Y129886D01*
D02*
G37*
G36*
X268000Y127733D02*
Y125784D01*
X269950D01*
X269855Y126259D01*
X269302Y127086D01*
X268476Y127638D01*
X268000Y127733D01*
D02*
G37*
G36*
X267000D02*
X266525Y127638D01*
X265698Y127086D01*
X265145Y126259D01*
X265051Y125784D01*
X267000D01*
Y127733D01*
D02*
G37*
G36*
X172950Y126936D02*
X171000D01*
Y124987D01*
X171476Y125081D01*
X172302Y125634D01*
X172855Y126461D01*
X172950Y126936D01*
D02*
G37*
G36*
X170000D02*
X168051D01*
X168145Y126461D01*
X168698Y125634D01*
X169525Y125081D01*
X170000Y124987D01*
Y126936D01*
D02*
G37*
G36*
X144000Y128985D02*
X143025Y128791D01*
X142198Y128238D01*
X141645Y127411D01*
X141451Y126436D01*
X141645Y125461D01*
X142198Y124634D01*
X143025Y124081D01*
X144000Y123887D01*
X144975Y124081D01*
X145802Y124634D01*
X146355Y125461D01*
X146549Y126436D01*
X146355Y127411D01*
X145802Y128238D01*
X144975Y128791D01*
X144000Y128985D01*
D02*
G37*
G36*
X269950Y124784D02*
X268000D01*
Y122834D01*
X268476Y122929D01*
X269302Y123481D01*
X269855Y124308D01*
X269950Y124784D01*
D02*
G37*
G36*
X267000D02*
X265051D01*
X265145Y124308D01*
X265698Y123481D01*
X266525Y122929D01*
X267000Y122834D01*
Y124784D01*
D02*
G37*
G36*
X70496Y133566D02*
X69104Y133382D01*
X67808Y132845D01*
X66694Y131991D01*
X65840Y130877D01*
X65303Y129581D01*
X65119Y128189D01*
X65303Y126797D01*
X65840Y125501D01*
X66694Y124387D01*
X67808Y123533D01*
X69104Y122995D01*
X70496Y122812D01*
X71888Y122995D01*
X73184Y123533D01*
X74298Y124387D01*
X75152Y125501D01*
X75690Y126797D01*
X75873Y128189D01*
X75690Y129581D01*
X75152Y130877D01*
X74298Y131991D01*
X73184Y132845D01*
X71888Y133382D01*
X70496Y133566D01*
D02*
G37*
G36*
X39000D02*
X37608Y133382D01*
X36312Y132845D01*
X35198Y131991D01*
X34344Y130877D01*
X33806Y129581D01*
X33623Y128189D01*
X33806Y126797D01*
X34344Y125501D01*
X35198Y124387D01*
X36312Y123533D01*
X37608Y122995D01*
X39000Y122812D01*
X40392Y122995D01*
X41688Y123533D01*
X42802Y124387D01*
X43656Y125501D01*
X44194Y126797D01*
X44377Y128189D01*
X44194Y129581D01*
X43656Y130877D01*
X42802Y131991D01*
X41688Y132845D01*
X40392Y133382D01*
X39000Y133566D01*
D02*
G37*
G36*
X261510Y127742D02*
X260534Y127548D01*
X259707Y126995D01*
X259155Y126168D01*
X258961Y125193D01*
X259155Y124217D01*
X259707Y123390D01*
X260534Y122838D01*
X261510Y122644D01*
X262485Y122838D01*
X263312Y123390D01*
X263865Y124217D01*
X264059Y125193D01*
X263865Y126168D01*
X263312Y126995D01*
X262485Y127548D01*
X261510Y127742D01*
D02*
G37*
G36*
X60654Y127660D02*
X59262Y127477D01*
X57965Y126940D01*
X56852Y126085D01*
X55997Y124972D01*
X55460Y123675D01*
X55277Y122283D01*
X55460Y120892D01*
X55997Y119595D01*
X56852Y118482D01*
X57965Y117627D01*
X59262Y117090D01*
X60654Y116907D01*
X62045Y117090D01*
X63342Y117627D01*
X64455Y118482D01*
X65310Y119595D01*
X65847Y120892D01*
X66030Y122283D01*
X65847Y123675D01*
X65310Y124972D01*
X64455Y126085D01*
X63342Y126940D01*
X62045Y127477D01*
X60654Y127660D01*
D02*
G37*
G36*
X48842D02*
X47451Y127477D01*
X46154Y126940D01*
X45041Y126085D01*
X44186Y124972D01*
X43649Y123675D01*
X43466Y122283D01*
X43649Y120892D01*
X44186Y119595D01*
X45041Y118482D01*
X46154Y117627D01*
X47451Y117090D01*
X48842Y116907D01*
X50234Y117090D01*
X51531Y117627D01*
X52644Y118482D01*
X53499Y119595D01*
X54036Y120892D01*
X54219Y122283D01*
X54036Y123675D01*
X53499Y124972D01*
X52644Y126085D01*
X51531Y126940D01*
X50234Y127477D01*
X48842Y127660D01*
D02*
G37*
G36*
X173469Y124986D02*
X172494Y124792D01*
X171667Y124239D01*
X171114Y123412D01*
X170920Y122437D01*
X171114Y121461D01*
X171667Y120634D01*
X172297Y120213D01*
X172191Y119683D01*
X171576Y119560D01*
X170749Y119008D01*
X170196Y118181D01*
X170002Y117205D01*
X170196Y116230D01*
X170749Y115403D01*
X171576Y114850D01*
X172551Y114656D01*
X173527Y114850D01*
X174354Y115403D01*
X174906Y116230D01*
X175100Y117205D01*
X174906Y118181D01*
X174354Y119008D01*
X173724Y119429D01*
X173829Y119959D01*
X174445Y120082D01*
X175272Y120634D01*
X175824Y121461D01*
X176018Y122437D01*
X175824Y123412D01*
X175272Y124239D01*
X174445Y124792D01*
X173469Y124986D01*
D02*
G37*
G36*
X145000Y116808D02*
X144025Y116614D01*
X143198Y116062D01*
X142645Y115235D01*
X142451Y114259D01*
X142645Y113284D01*
X143198Y112457D01*
X144025Y111904D01*
X145000Y111710D01*
X145975Y111904D01*
X146802Y112457D01*
X147355Y113284D01*
X147549Y114259D01*
X147355Y115235D01*
X146802Y116062D01*
X145975Y116614D01*
X145000Y116808D01*
D02*
G37*
G36*
X70496Y121755D02*
X69104Y121572D01*
X67808Y121034D01*
X66694Y120180D01*
X65840Y119066D01*
X65303Y117770D01*
X65119Y116378D01*
X65303Y114986D01*
X65840Y113690D01*
X66694Y112576D01*
X67808Y111722D01*
X69104Y111184D01*
X70496Y111001D01*
X71888Y111184D01*
X73184Y111722D01*
X74298Y112576D01*
X75152Y113690D01*
X75690Y114986D01*
X75873Y116378D01*
X75690Y117770D01*
X75152Y119066D01*
X74298Y120180D01*
X73184Y121034D01*
X71888Y121572D01*
X70496Y121755D01*
D02*
G37*
G36*
X39000D02*
X37608Y121572D01*
X36312Y121034D01*
X35198Y120180D01*
X34344Y119066D01*
X33806Y117770D01*
X33623Y116378D01*
X33806Y114986D01*
X34344Y113690D01*
X35198Y112576D01*
X36312Y111722D01*
X37608Y111184D01*
X39000Y111001D01*
X40392Y111184D01*
X41688Y111722D01*
X42802Y112576D01*
X43656Y113690D01*
X44194Y114986D01*
X44377Y116378D01*
X44194Y117770D01*
X43656Y119066D01*
X42802Y120180D01*
X41688Y121034D01*
X40392Y121572D01*
X39000Y121755D01*
D02*
G37*
G36*
X166551Y115761D02*
X165576Y115567D01*
X164749Y115015D01*
X164196Y114188D01*
X164002Y113212D01*
X164196Y112237D01*
X164749Y111410D01*
X165576Y110857D01*
X166551Y110663D01*
X167527Y110857D01*
X168354Y111410D01*
X168906Y112237D01*
X169100Y113212D01*
X168906Y114188D01*
X168354Y115015D01*
X167527Y115567D01*
X166551Y115761D01*
D02*
G37*
G36*
X171000Y108386D02*
Y106436D01*
X172950D01*
X172855Y106912D01*
X172302Y107738D01*
X171476Y108291D01*
X171000Y108386D01*
D02*
G37*
G36*
X170000D02*
X169525Y108291D01*
X168698Y107738D01*
X168145Y106912D01*
X168051Y106436D01*
X170000D01*
Y108386D01*
D02*
G37*
G36*
X60654Y115849D02*
X59262Y115666D01*
X57965Y115129D01*
X56852Y114274D01*
X55997Y113161D01*
X55460Y111864D01*
X55277Y110472D01*
X55460Y109081D01*
X55997Y107784D01*
X56852Y106670D01*
X57965Y105816D01*
X59262Y105279D01*
X60654Y105096D01*
X62045Y105279D01*
X63342Y105816D01*
X64455Y106670D01*
X65310Y107784D01*
X65847Y109081D01*
X66030Y110472D01*
X65847Y111864D01*
X65310Y113161D01*
X64455Y114274D01*
X63342Y115129D01*
X62045Y115666D01*
X60654Y115849D01*
D02*
G37*
G36*
X48842D02*
X47451Y115666D01*
X46154Y115129D01*
X45041Y114274D01*
X44186Y113161D01*
X43649Y111864D01*
X43466Y110472D01*
X43649Y109081D01*
X44186Y107784D01*
X45041Y106670D01*
X46154Y105816D01*
X47451Y105279D01*
X48842Y105096D01*
X50234Y105279D01*
X51531Y105816D01*
X52644Y106670D01*
X53499Y107784D01*
X54036Y109081D01*
X54219Y110472D01*
X54036Y111864D01*
X53499Y113161D01*
X52644Y114274D01*
X51531Y115129D01*
X50234Y115666D01*
X48842Y115849D01*
D02*
G37*
G36*
X172950Y105436D02*
X171000D01*
Y103487D01*
X171476Y103581D01*
X172302Y104134D01*
X172855Y104961D01*
X172950Y105436D01*
D02*
G37*
G36*
X170000D02*
X168051D01*
X168145Y104961D01*
X168698Y104134D01*
X169525Y103581D01*
X170000Y103487D01*
Y105436D01*
D02*
G37*
G36*
X144000Y107485D02*
X143025Y107291D01*
X142198Y106738D01*
X141645Y105912D01*
X141451Y104936D01*
X141645Y103961D01*
X142198Y103134D01*
X143025Y102581D01*
X144000Y102387D01*
X144975Y102581D01*
X145802Y103134D01*
X146355Y103961D01*
X146549Y104936D01*
X146355Y105912D01*
X145802Y106738D01*
X144975Y107291D01*
X144000Y107485D01*
D02*
G37*
G36*
X70496Y109944D02*
X69104Y109760D01*
X67808Y109223D01*
X66694Y108369D01*
X65840Y107255D01*
X65303Y105958D01*
X65119Y104567D01*
X65303Y103175D01*
X65840Y101879D01*
X66694Y100765D01*
X67808Y99911D01*
X69104Y99373D01*
X70496Y99190D01*
X71888Y99373D01*
X73184Y99911D01*
X74298Y100765D01*
X75152Y101879D01*
X75690Y103175D01*
X75873Y104567D01*
X75690Y105958D01*
X75152Y107255D01*
X74298Y108369D01*
X73184Y109223D01*
X71888Y109760D01*
X70496Y109944D01*
D02*
G37*
G36*
X39000D02*
X37608Y109760D01*
X36312Y109223D01*
X35198Y108369D01*
X34344Y107255D01*
X33806Y105958D01*
X33623Y104567D01*
X33806Y103175D01*
X34344Y101879D01*
X35198Y100765D01*
X36312Y99911D01*
X37608Y99373D01*
X39000Y99190D01*
X40392Y99373D01*
X41688Y99911D01*
X42802Y100765D01*
X43656Y101879D01*
X44194Y103175D01*
X44377Y104567D01*
X44194Y105958D01*
X43656Y107255D01*
X42802Y108369D01*
X41688Y109223D01*
X40392Y109760D01*
X39000Y109944D01*
D02*
G37*
G36*
X60654Y104038D02*
X59262Y103855D01*
X57965Y103318D01*
X56852Y102463D01*
X55997Y101350D01*
X55460Y100053D01*
X55277Y98661D01*
X55460Y97270D01*
X55997Y95973D01*
X56852Y94859D01*
X57965Y94005D01*
X59262Y93468D01*
X60654Y93285D01*
X62045Y93468D01*
X63342Y94005D01*
X64455Y94859D01*
X65310Y95973D01*
X65847Y97270D01*
X66030Y98661D01*
X65847Y100053D01*
X65310Y101350D01*
X64455Y102463D01*
X63342Y103318D01*
X62045Y103855D01*
X60654Y104038D01*
D02*
G37*
G36*
X48842D02*
X47451Y103855D01*
X46154Y103318D01*
X45041Y102463D01*
X44186Y101350D01*
X43649Y100053D01*
X43466Y98661D01*
X43649Y97270D01*
X44186Y95973D01*
X45041Y94859D01*
X46154Y94005D01*
X47451Y93468D01*
X48842Y93285D01*
X50234Y93468D01*
X51531Y94005D01*
X52644Y94859D01*
X53499Y95973D01*
X54036Y97270D01*
X54219Y98661D01*
X54036Y100053D01*
X53499Y101350D01*
X52644Y102463D01*
X51531Y103318D01*
X50234Y103855D01*
X48842Y104038D01*
D02*
G37*
G36*
X173469Y103486D02*
X172494Y103292D01*
X171667Y102739D01*
X171114Y101912D01*
X170920Y100937D01*
X171114Y99961D01*
X171667Y99134D01*
X172297Y98713D01*
X172191Y98183D01*
X171576Y98060D01*
X170749Y97508D01*
X170196Y96681D01*
X170002Y95705D01*
X170196Y94730D01*
X170749Y93903D01*
X171576Y93350D01*
X172551Y93156D01*
X173527Y93350D01*
X174354Y93903D01*
X174906Y94730D01*
X175100Y95705D01*
X174906Y96681D01*
X174354Y97508D01*
X173724Y97929D01*
X173829Y98459D01*
X174445Y98582D01*
X175272Y99134D01*
X175824Y99961D01*
X176018Y100937D01*
X175824Y101912D01*
X175272Y102739D01*
X174445Y103292D01*
X173469Y103486D01*
D02*
G37*
G36*
X145000Y95308D02*
X144025Y95114D01*
X143198Y94562D01*
X142645Y93735D01*
X142451Y92759D01*
X142645Y91784D01*
X143198Y90957D01*
X144025Y90404D01*
X145000Y90210D01*
X145975Y90404D01*
X146802Y90957D01*
X147355Y91784D01*
X147549Y92759D01*
X147355Y93735D01*
X146802Y94562D01*
X145975Y95114D01*
X145000Y95308D01*
D02*
G37*
G36*
X166551Y94261D02*
X165576Y94067D01*
X164749Y93515D01*
X164196Y92688D01*
X164002Y91712D01*
X164196Y90737D01*
X164749Y89910D01*
X165576Y89357D01*
X166551Y89163D01*
X167527Y89357D01*
X168354Y89910D01*
X168906Y90737D01*
X169100Y91712D01*
X168906Y92688D01*
X168354Y93515D01*
X167527Y94067D01*
X166551Y94261D01*
D02*
G37*
G36*
X70496Y98133D02*
X69104Y97949D01*
X67808Y97412D01*
X66694Y96558D01*
X65840Y95444D01*
X65303Y94147D01*
X65119Y92756D01*
X65303Y91364D01*
X65840Y90067D01*
X66694Y88954D01*
X67808Y88099D01*
X69104Y87562D01*
X70496Y87379D01*
X71888Y87562D01*
X73184Y88099D01*
X74298Y88954D01*
X75152Y90067D01*
X75690Y91364D01*
X75873Y92756D01*
X75690Y94147D01*
X75152Y95444D01*
X74298Y96558D01*
X73184Y97412D01*
X71888Y97949D01*
X70496Y98133D01*
D02*
G37*
G36*
X39000D02*
X37608Y97949D01*
X36312Y97412D01*
X35198Y96558D01*
X34344Y95444D01*
X33806Y94147D01*
X33623Y92756D01*
X33806Y91364D01*
X34344Y90067D01*
X35198Y88954D01*
X36312Y88099D01*
X37608Y87562D01*
X39000Y87379D01*
X40392Y87562D01*
X41688Y88099D01*
X42802Y88954D01*
X43656Y90067D01*
X44194Y91364D01*
X44377Y92756D01*
X44194Y94147D01*
X43656Y95444D01*
X42802Y96558D01*
X41688Y97412D01*
X40392Y97949D01*
X39000Y98133D01*
D02*
G37*
G36*
X320500Y91785D02*
X319525Y91591D01*
X318698Y91038D01*
X318145Y90211D01*
X317951Y89236D01*
X318145Y88261D01*
X318698Y87434D01*
X319525Y86881D01*
X320500Y86687D01*
X321476Y86881D01*
X322302Y87434D01*
X322855Y88261D01*
X323049Y89236D01*
X322855Y90211D01*
X322302Y91038D01*
X321476Y91591D01*
X320500Y91785D01*
D02*
G37*
G36*
X171000Y87886D02*
Y85936D01*
X172950D01*
X172855Y86411D01*
X172302Y87239D01*
X171476Y87791D01*
X171000Y87886D01*
D02*
G37*
G36*
X170000D02*
X169525Y87791D01*
X168698Y87239D01*
X168145Y86411D01*
X168051Y85936D01*
X170000D01*
Y87886D01*
D02*
G37*
G36*
X172950Y84936D02*
X171000D01*
Y82987D01*
X171476Y83081D01*
X172302Y83634D01*
X172855Y84461D01*
X172950Y84936D01*
D02*
G37*
G36*
X170000D02*
X168051D01*
X168145Y84461D01*
X168698Y83634D01*
X169525Y83081D01*
X170000Y82987D01*
Y84936D01*
D02*
G37*
G36*
X144000Y86985D02*
X143025Y86791D01*
X142198Y86238D01*
X141645Y85412D01*
X141451Y84436D01*
X141645Y83461D01*
X142198Y82634D01*
X143025Y82081D01*
X144000Y81887D01*
X144975Y82081D01*
X145802Y82634D01*
X146355Y83461D01*
X146549Y84436D01*
X146355Y85412D01*
X145802Y86238D01*
X144975Y86791D01*
X144000Y86985D01*
D02*
G37*
G36*
X306147Y85351D02*
X305172Y85157D01*
X304345Y84605D01*
X303792Y83778D01*
X303598Y82802D01*
X303792Y81827D01*
X304345Y81000D01*
Y80605D01*
X303792Y79778D01*
X303598Y78802D01*
X303792Y77827D01*
X304345Y77000D01*
X305172Y76447D01*
X306147Y76253D01*
X307123Y76447D01*
X307949Y77000D01*
X308502Y77827D01*
X308696Y78802D01*
X308502Y79778D01*
X307949Y80605D01*
Y81000D01*
X308502Y81827D01*
X308696Y82802D01*
X308502Y83778D01*
X307949Y84605D01*
X307123Y85157D01*
X306147Y85351D01*
D02*
G37*
G36*
X322000Y77489D02*
Y75540D01*
X323950D01*
X323855Y76015D01*
X323302Y76842D01*
X322476Y77395D01*
X322000Y77489D01*
D02*
G37*
G36*
X321000D02*
X320525Y77395D01*
X319698Y76842D01*
X319145Y76015D01*
X319051Y75540D01*
X321000D01*
Y77489D01*
D02*
G37*
G36*
X287500Y77187D02*
X286525Y76993D01*
X285698Y76441D01*
X285145Y75614D01*
X284951Y74638D01*
X285143Y73675D01*
X285120Y73628D01*
X284806Y73271D01*
X284461Y73340D01*
Y71390D01*
X286410D01*
X286318Y71854D01*
X286340Y71900D01*
X286655Y72258D01*
X287500Y72089D01*
X288475Y72284D01*
X289302Y72836D01*
X289855Y73663D01*
X290049Y74638D01*
X289855Y75614D01*
X289302Y76441D01*
X288475Y76993D01*
X287500Y77187D01*
D02*
G37*
G36*
X173469Y82986D02*
X172494Y82792D01*
X171667Y82239D01*
X171114Y81412D01*
X170920Y80437D01*
X171114Y79461D01*
X171667Y78634D01*
X172297Y78213D01*
X172191Y77683D01*
X171576Y77560D01*
X170749Y77008D01*
X170196Y76181D01*
X170002Y75205D01*
X170196Y74230D01*
X170749Y73403D01*
X171576Y72850D01*
X172551Y72656D01*
X173527Y72850D01*
X174354Y73403D01*
X174906Y74230D01*
X175100Y75205D01*
X174906Y76181D01*
X174354Y77008D01*
X173724Y77429D01*
X173829Y77959D01*
X174445Y78082D01*
X175272Y78634D01*
X175824Y79461D01*
X176018Y80437D01*
X175824Y81412D01*
X175272Y82239D01*
X174445Y82792D01*
X173469Y82986D01*
D02*
G37*
G36*
X323950Y74540D02*
X322000D01*
Y72590D01*
X322476Y72685D01*
X323302Y73237D01*
X323855Y74064D01*
X323950Y74540D01*
D02*
G37*
G36*
X321000D02*
X319051D01*
X319145Y74064D01*
X319698Y73237D01*
X320525Y72685D01*
X321000Y72590D01*
Y74540D01*
D02*
G37*
G36*
X283461Y73340D02*
X282985Y73245D01*
X282158Y72693D01*
X281606Y71866D01*
X281511Y71390D01*
X283461D01*
Y73340D01*
D02*
G37*
G36*
X145000Y74808D02*
X144025Y74614D01*
X143198Y74062D01*
X142645Y73235D01*
X142451Y72259D01*
X142645Y71284D01*
X143198Y70457D01*
X144025Y69904D01*
X145000Y69710D01*
X145975Y69904D01*
X146802Y70457D01*
X147355Y71284D01*
X147549Y72259D01*
X147355Y73235D01*
X146802Y74062D01*
X145975Y74614D01*
X145000Y74808D01*
D02*
G37*
G36*
X166551Y73761D02*
X165576Y73567D01*
X164749Y73015D01*
X164196Y72188D01*
X164002Y71212D01*
X164196Y70237D01*
X164749Y69410D01*
X165576Y68857D01*
X166551Y68663D01*
X167527Y68857D01*
X168354Y69410D01*
X168906Y70237D01*
X169100Y71212D01*
X168906Y72188D01*
X168354Y73015D01*
X167527Y73567D01*
X166551Y73761D01*
D02*
G37*
G36*
X286410Y70390D02*
X284461D01*
Y68441D01*
X284936Y68535D01*
X285763Y69088D01*
X286315Y69915D01*
X286410Y70390D01*
D02*
G37*
G36*
X283461D02*
X281511D01*
X281606Y69915D01*
X282158Y69088D01*
X282985Y68535D01*
X283461Y68441D01*
Y70390D01*
D02*
G37*
G36*
X251922Y70875D02*
X250947Y70681D01*
X250120Y70129D01*
X249567Y69302D01*
X249373Y68326D01*
X249567Y67351D01*
X250120Y66524D01*
X250947Y65971D01*
X251922Y65777D01*
X252898Y65971D01*
X253725Y66524D01*
X254277Y67351D01*
X254471Y68326D01*
X254277Y69302D01*
X253725Y70129D01*
X252898Y70681D01*
X251922Y70875D01*
D02*
G37*
G36*
X171000Y67386D02*
Y65436D01*
X172950D01*
X172855Y65912D01*
X172302Y66738D01*
X171476Y67291D01*
X171000Y67386D01*
D02*
G37*
G36*
X170000D02*
X169525Y67291D01*
X168698Y66738D01*
X168145Y65912D01*
X168051Y65436D01*
X170000D01*
Y67386D01*
D02*
G37*
G36*
X286500Y68372D02*
X285525Y68178D01*
X284698Y67625D01*
X284145Y66798D01*
X283951Y65823D01*
X284145Y64847D01*
X284698Y64020D01*
X285525Y63468D01*
X286500Y63274D01*
X287475Y63468D01*
X288302Y64020D01*
X288855Y64847D01*
X289049Y65823D01*
X288855Y66798D01*
X288302Y67625D01*
X287475Y68178D01*
X286500Y68372D01*
D02*
G37*
G36*
X172950Y64436D02*
X171000D01*
Y62487D01*
X171476Y62581D01*
X172302Y63134D01*
X172855Y63961D01*
X172950Y64436D01*
D02*
G37*
G36*
X170000D02*
X168051D01*
X168145Y63961D01*
X168698Y63134D01*
X169525Y62581D01*
X170000Y62487D01*
Y64436D01*
D02*
G37*
G36*
X273500Y66695D02*
X272524Y66501D01*
X271698Y65948D01*
X271145Y65121D01*
X270951Y64146D01*
X271145Y63170D01*
X271698Y62343D01*
X272524Y61791D01*
X273500Y61597D01*
X274476Y61791D01*
X275302Y62343D01*
X275855Y63170D01*
X276049Y64146D01*
X275855Y65121D01*
X275302Y65948D01*
X274476Y66501D01*
X273500Y66695D01*
D02*
G37*
G36*
X144000Y66485D02*
X143025Y66291D01*
X142198Y65738D01*
X141645Y64912D01*
X141451Y63936D01*
X141645Y62961D01*
X142198Y62134D01*
X143025Y61581D01*
X144000Y61387D01*
X144975Y61581D01*
X145802Y62134D01*
X146355Y62961D01*
X146549Y63936D01*
X146355Y64912D01*
X145802Y65738D01*
X144975Y66291D01*
X144000Y66485D01*
D02*
G37*
G36*
X345500Y61949D02*
Y60000D01*
X347449D01*
X347355Y60475D01*
X346802Y61302D01*
X345975Y61855D01*
X345500Y61949D01*
D02*
G37*
G36*
X344500D02*
X344024Y61855D01*
X343198Y61302D01*
X342645Y60475D01*
X342550Y60000D01*
X344500D01*
Y61949D01*
D02*
G37*
G36*
X306500Y63152D02*
X305524Y62958D01*
X304698Y62405D01*
X304145Y61578D01*
X303951Y60602D01*
X304145Y59627D01*
X304698Y58800D01*
X305524Y58248D01*
X306500Y58053D01*
X307475Y58248D01*
X308302Y58800D01*
X308855Y59627D01*
X309049Y60602D01*
X308855Y61578D01*
X308302Y62405D01*
X307475Y62958D01*
X306500Y63152D01*
D02*
G37*
G36*
X259500Y62371D02*
X258524Y62177D01*
X257698Y61625D01*
X257145Y60798D01*
X256951Y59822D01*
X257145Y58847D01*
X257698Y58020D01*
X258524Y57468D01*
X259500Y57274D01*
X260475Y57468D01*
X261302Y58020D01*
X261855Y58847D01*
X262049Y59822D01*
X261855Y60798D01*
X261302Y61625D01*
X260475Y62177D01*
X259500Y62371D01*
D02*
G37*
G36*
X347449Y59000D02*
X345500D01*
Y57051D01*
X345975Y57145D01*
X346802Y57698D01*
X347355Y58525D01*
X347449Y59000D01*
D02*
G37*
G36*
X344500D02*
X342550D01*
X342645Y58525D01*
X343198Y57698D01*
X344024Y57145D01*
X344500Y57051D01*
Y59000D01*
D02*
G37*
G36*
X326000Y62100D02*
X325025Y61906D01*
X324198Y61353D01*
X323645Y60526D01*
X323451Y59551D01*
X323645Y58575D01*
X324198Y57749D01*
X325025Y57196D01*
X326000Y57002D01*
X326975Y57196D01*
X327802Y57749D01*
X328355Y58575D01*
X328549Y59551D01*
X328355Y60526D01*
X327802Y61353D01*
X326975Y61906D01*
X326000Y62100D01*
D02*
G37*
G36*
X30500Y63278D02*
X29652Y63166D01*
X28861Y62839D01*
X28182Y62318D01*
X27661Y61639D01*
X27334Y60848D01*
X27222Y60000D01*
X27334Y59152D01*
X27661Y58361D01*
X28182Y57682D01*
X28861Y57161D01*
X29652Y56834D01*
X30500Y56722D01*
X31348Y56834D01*
X32139Y57161D01*
X32818Y57682D01*
X33339Y58361D01*
X33666Y59152D01*
X33778Y60000D01*
X33666Y60848D01*
X33339Y61639D01*
X32818Y62318D01*
X32139Y62839D01*
X31348Y63166D01*
X30500Y63278D01*
D02*
G37*
G36*
X13409Y71745D02*
X11940Y71600D01*
X10527Y71172D01*
X9225Y70476D01*
X8083Y69539D01*
X7147Y68397D01*
X6451Y67095D01*
X6022Y65682D01*
X5877Y64213D01*
X6022Y62743D01*
X6451Y61330D01*
X7147Y60028D01*
X8083Y58886D01*
X9225Y57950D01*
X10527Y57254D01*
X11940Y56825D01*
X13409Y56680D01*
X14879Y56825D01*
X16292Y57254D01*
X17594Y57950D01*
X18736Y58886D01*
X19672Y60028D01*
X20368Y61330D01*
X20797Y62743D01*
X20942Y64213D01*
X20797Y65682D01*
X20368Y67095D01*
X19672Y68397D01*
X18736Y69539D01*
X17594Y70476D01*
X16292Y71172D01*
X14879Y71600D01*
X13409Y71745D01*
D02*
G37*
G36*
X287041Y59194D02*
X286066Y59000D01*
X285239Y58447D01*
X284686Y57620D01*
X284492Y56645D01*
X284686Y55669D01*
X285239Y54842D01*
X286066Y54290D01*
X287041Y54096D01*
X288017Y54290D01*
X288844Y54842D01*
X289396Y55669D01*
X289590Y56645D01*
X289396Y57620D01*
X288844Y58447D01*
X288017Y59000D01*
X287041Y59194D01*
D02*
G37*
G36*
X63500Y59724D02*
X62652Y59612D01*
X61861Y59285D01*
X61182Y58764D01*
X60661Y58085D01*
X60334Y57294D01*
X60222Y56446D01*
X60334Y55597D01*
X60661Y54807D01*
X61182Y54128D01*
X61861Y53607D01*
X62652Y53279D01*
X63500Y53168D01*
X64348Y53279D01*
X65139Y53607D01*
X65818Y54128D01*
X66339Y54807D01*
X66666Y55597D01*
X66778Y56446D01*
X66666Y57294D01*
X66339Y58085D01*
X65818Y58764D01*
X65139Y59285D01*
X64348Y59612D01*
X63500Y59724D01*
D02*
G37*
G36*
X56000D02*
X55152Y59612D01*
X54361Y59285D01*
X53682Y58764D01*
X53161Y58085D01*
X52834Y57294D01*
X52722Y56446D01*
X52834Y55597D01*
X53161Y54807D01*
X53682Y54128D01*
X54361Y53607D01*
X55152Y53279D01*
X56000Y53168D01*
X56848Y53279D01*
X57639Y53607D01*
X58318Y54128D01*
X58839Y54807D01*
X59166Y55597D01*
X59278Y56446D01*
X59166Y57294D01*
X58839Y58085D01*
X58318Y58764D01*
X57639Y59285D01*
X56848Y59612D01*
X56000Y59724D01*
D02*
G37*
G36*
X173469Y62486D02*
X172494Y62292D01*
X171667Y61739D01*
X171114Y60912D01*
X170920Y59937D01*
X171114Y58961D01*
X171667Y58134D01*
X172297Y57713D01*
X172191Y57183D01*
X171576Y57060D01*
X170749Y56508D01*
X170196Y55681D01*
X170002Y54705D01*
X170196Y53730D01*
X170749Y52903D01*
X171576Y52350D01*
X172551Y52156D01*
X173527Y52350D01*
X174354Y52903D01*
X174906Y53730D01*
X175100Y54705D01*
X174906Y55681D01*
X174354Y56508D01*
X173724Y56928D01*
X173829Y57459D01*
X174445Y57582D01*
X175272Y58134D01*
X175824Y58961D01*
X176018Y59937D01*
X175824Y60912D01*
X175272Y61739D01*
X174445Y62292D01*
X173469Y62486D01*
D02*
G37*
G36*
X145000Y54308D02*
X144025Y54114D01*
X143198Y53562D01*
X142645Y52735D01*
X142451Y51759D01*
X142645Y50784D01*
X143198Y49957D01*
X144025Y49404D01*
X145000Y49210D01*
X145975Y49404D01*
X146802Y49957D01*
X147355Y50784D01*
X147549Y51759D01*
X147355Y52735D01*
X146802Y53562D01*
X145975Y54114D01*
X145000Y54308D01*
D02*
G37*
G36*
X345500Y51075D02*
Y49126D01*
X347449D01*
X347355Y49601D01*
X346802Y50428D01*
X345975Y50981D01*
X345500Y51075D01*
D02*
G37*
G36*
X344500D02*
X344024Y50981D01*
X343198Y50428D01*
X342645Y49601D01*
X342550Y49126D01*
X344500D01*
Y51075D01*
D02*
G37*
G36*
X305606Y53340D02*
X304630Y53146D01*
X303803Y52593D01*
X303251Y51767D01*
X303057Y50791D01*
X303251Y49816D01*
X303803Y48989D01*
X304630Y48436D01*
X305606Y48242D01*
X306581Y48436D01*
X307408Y48989D01*
X307961Y49816D01*
X308155Y50791D01*
X307961Y51767D01*
X307408Y52593D01*
X306581Y53146D01*
X305606Y53340D01*
D02*
G37*
G36*
X166551Y53261D02*
X165576Y53067D01*
X164749Y52515D01*
X164196Y51688D01*
X164002Y50712D01*
X164196Y49737D01*
X164749Y48910D01*
X165576Y48357D01*
X166551Y48163D01*
X167527Y48357D01*
X168354Y48910D01*
X168906Y49737D01*
X169100Y50712D01*
X168906Y51688D01*
X168354Y52515D01*
X167527Y53067D01*
X166551Y53261D01*
D02*
G37*
G36*
X277500Y52049D02*
X276524Y51855D01*
X275698Y51302D01*
X275145Y50476D01*
X274951Y49500D01*
X275145Y48524D01*
X275698Y47698D01*
X276524Y47145D01*
X277500Y46951D01*
X278475Y47145D01*
X279302Y47698D01*
X279855Y48524D01*
X280049Y49500D01*
X279855Y50476D01*
X279302Y51302D01*
X278475Y51855D01*
X277500Y52049D01*
D02*
G37*
G36*
X347449Y48126D02*
X345500D01*
Y46176D01*
X345975Y46271D01*
X346802Y46823D01*
X347355Y47650D01*
X347449Y48126D01*
D02*
G37*
G36*
X344500D02*
X342550D01*
X342645Y47650D01*
X343198Y46823D01*
X344024Y46271D01*
X344500Y46176D01*
Y48126D01*
D02*
G37*
G36*
X326000Y51126D02*
X325025Y50932D01*
X324198Y50379D01*
X323645Y49552D01*
X323451Y48577D01*
X323645Y47601D01*
X324198Y46774D01*
X325025Y46222D01*
X326000Y46028D01*
X326975Y46222D01*
X327802Y46774D01*
X328355Y47601D01*
X328549Y48577D01*
X328355Y49552D01*
X327802Y50379D01*
X326975Y50932D01*
X326000Y51126D01*
D02*
G37*
G36*
X171000Y46886D02*
Y44936D01*
X172950D01*
X172855Y45412D01*
X172302Y46238D01*
X171476Y46791D01*
X171000Y46886D01*
D02*
G37*
G36*
X170000D02*
X169525Y46791D01*
X168698Y46238D01*
X168145Y45412D01*
X168051Y44936D01*
X170000D01*
Y46886D01*
D02*
G37*
G36*
X172950Y43936D02*
X171000D01*
Y41987D01*
X171476Y42081D01*
X172302Y42634D01*
X172855Y43461D01*
X172950Y43936D01*
D02*
G37*
G36*
X170000D02*
X168051D01*
X168145Y43461D01*
X168698Y42634D01*
X169525Y42081D01*
X170000Y41987D01*
Y43936D01*
D02*
G37*
G36*
X144000Y45985D02*
X143025Y45791D01*
X142198Y45239D01*
X141645Y44412D01*
X141451Y43436D01*
X141645Y42461D01*
X142198Y41634D01*
X143025Y41081D01*
X144000Y40887D01*
X144975Y41081D01*
X145802Y41634D01*
X146355Y42461D01*
X146549Y43436D01*
X146355Y44412D01*
X145802Y45239D01*
X144975Y45791D01*
X144000Y45985D01*
D02*
G37*
G36*
X173469Y41986D02*
X172494Y41792D01*
X171667Y41239D01*
X171114Y40412D01*
X170920Y39437D01*
X171114Y38461D01*
X171667Y37634D01*
X172297Y37213D01*
X172191Y36683D01*
X171576Y36560D01*
X170749Y36008D01*
X170196Y35181D01*
X170002Y34205D01*
X170196Y33230D01*
X170749Y32403D01*
X171576Y31850D01*
X172551Y31656D01*
X173527Y31850D01*
X174354Y32403D01*
X174906Y33230D01*
X175100Y34205D01*
X174906Y35181D01*
X174354Y36008D01*
X173724Y36428D01*
X173829Y36959D01*
X174445Y37082D01*
X175272Y37634D01*
X175824Y38461D01*
X176018Y39437D01*
X175824Y40412D01*
X175272Y41239D01*
X174445Y41792D01*
X173469Y41986D01*
D02*
G37*
G36*
X145000Y33808D02*
X144025Y33614D01*
X143198Y33062D01*
X142645Y32235D01*
X142451Y31259D01*
X142645Y30284D01*
X143198Y29457D01*
X144025Y28904D01*
X145000Y28710D01*
X145975Y28904D01*
X146802Y29457D01*
X147355Y30284D01*
X147549Y31259D01*
X147355Y32235D01*
X146802Y33062D01*
X145975Y33614D01*
X145000Y33808D01*
D02*
G37*
G36*
X166551Y32761D02*
X165576Y32567D01*
X164749Y32015D01*
X164196Y31188D01*
X164002Y30212D01*
X164196Y29237D01*
X164749Y28410D01*
X165576Y27857D01*
X166551Y27663D01*
X167527Y27857D01*
X168354Y28410D01*
X168906Y29237D01*
X169100Y30212D01*
X168906Y31188D01*
X168354Y32015D01*
X167527Y32567D01*
X166551Y32761D01*
D02*
G37*
G36*
X93000Y33490D02*
X92152Y33378D01*
X91361Y33051D01*
X90682Y32530D01*
X90161Y31851D01*
X89834Y31061D01*
X89722Y30212D01*
X89834Y29364D01*
X90161Y28573D01*
X90682Y27894D01*
X91361Y27373D01*
X92152Y27046D01*
X93000Y26934D01*
X93848Y27046D01*
X94639Y27373D01*
X95318Y27894D01*
X95839Y28573D01*
X96166Y29364D01*
X96278Y30212D01*
X96166Y31061D01*
X95839Y31851D01*
X95318Y32530D01*
X94639Y33051D01*
X93848Y33378D01*
X93000Y33490D01*
D02*
G37*
G36*
X171000Y25886D02*
Y23936D01*
X172950D01*
X172855Y24411D01*
X172302Y25238D01*
X171476Y25791D01*
X171000Y25886D01*
D02*
G37*
G36*
X170000D02*
X169525Y25791D01*
X168698Y25238D01*
X168145Y24411D01*
X168051Y23936D01*
X170000D01*
Y25886D01*
D02*
G37*
G36*
X172950Y22936D02*
X171000D01*
Y20987D01*
X171476Y21081D01*
X172302Y21634D01*
X172855Y22461D01*
X172950Y22936D01*
D02*
G37*
G36*
X170000D02*
X168051D01*
X168145Y22461D01*
X168698Y21634D01*
X169525Y21081D01*
X170000Y20987D01*
Y22936D01*
D02*
G37*
G36*
X144000Y24985D02*
X143025Y24791D01*
X142198Y24238D01*
X141645Y23412D01*
X141451Y22436D01*
X141645Y21461D01*
X142198Y20634D01*
X143025Y20081D01*
X144000Y19887D01*
X144975Y20081D01*
X145802Y20634D01*
X146355Y21461D01*
X146549Y22436D01*
X146355Y23412D01*
X145802Y24238D01*
X144975Y24791D01*
X144000Y24985D01*
D02*
G37*
G36*
X320000Y40876D02*
X318299Y40742D01*
X316639Y40344D01*
X315062Y39691D01*
X313607Y38799D01*
X312310Y37690D01*
X311201Y36393D01*
X310309Y34938D01*
X309656Y33361D01*
X309258Y31701D01*
X309124Y30000D01*
X309258Y28299D01*
X309656Y26639D01*
X310309Y25062D01*
X311201Y23607D01*
X312310Y22309D01*
X313607Y21201D01*
X315062Y20309D01*
X316639Y19656D01*
X318299Y19258D01*
X320000Y19124D01*
X321701Y19258D01*
X323361Y19656D01*
X324938Y20309D01*
X326393Y21201D01*
X327691Y22309D01*
X328799Y23607D01*
X329691Y25062D01*
X330344Y26639D01*
X330742Y28299D01*
X330876Y30000D01*
X330742Y31701D01*
X330344Y33361D01*
X329691Y34938D01*
X328799Y36393D01*
X327691Y37690D01*
X326393Y38799D01*
X324938Y39691D01*
X323361Y40344D01*
X321701Y40742D01*
X320000Y40876D01*
D02*
G37*
G36*
X30000D02*
X28299Y40742D01*
X26639Y40344D01*
X25062Y39691D01*
X23607Y38799D01*
X22309Y37690D01*
X21201Y36393D01*
X20309Y34938D01*
X19656Y33361D01*
X19258Y31701D01*
X19124Y30000D01*
X19258Y28299D01*
X19656Y26639D01*
X20309Y25062D01*
X21201Y23607D01*
X22309Y22309D01*
X23607Y21201D01*
X25062Y20309D01*
X26639Y19656D01*
X28299Y19258D01*
X30000Y19124D01*
X31701Y19258D01*
X33361Y19656D01*
X34938Y20309D01*
X36393Y21201D01*
X37690Y22309D01*
X38799Y23607D01*
X39691Y25062D01*
X40344Y26639D01*
X40742Y28299D01*
X40876Y30000D01*
X40742Y31701D01*
X40344Y33361D01*
X39691Y34938D01*
X38799Y36393D01*
X37690Y37690D01*
X36393Y38799D01*
X34938Y39691D01*
X33361Y40344D01*
X31701Y40742D01*
X30000Y40876D01*
D02*
G37*
G36*
X49000Y24372D02*
X48152Y24261D01*
X47361Y23933D01*
X46682Y23412D01*
X46161Y22733D01*
X45834Y21943D01*
X45722Y21094D01*
X45834Y20246D01*
X46161Y19455D01*
X46682Y18776D01*
X47361Y18255D01*
X48152Y17928D01*
X49000Y17816D01*
X49848Y17928D01*
X50639Y18255D01*
X51318Y18776D01*
X51839Y19455D01*
X52166Y20246D01*
X52278Y21094D01*
X52166Y21943D01*
X51839Y22733D01*
X51318Y23412D01*
X50639Y23933D01*
X49848Y24261D01*
X49000Y24372D01*
D02*
G37*
G36*
X46500Y17712D02*
Y15000D01*
X49212D01*
X49166Y15348D01*
X48839Y16139D01*
X48318Y16818D01*
X47639Y17339D01*
X46848Y17666D01*
X46500Y17712D01*
D02*
G37*
G36*
X45500D02*
X45152Y17666D01*
X44361Y17339D01*
X43682Y16818D01*
X43161Y16139D01*
X42834Y15348D01*
X42788Y15000D01*
X45500D01*
Y17712D01*
D02*
G37*
G36*
X49212Y14000D02*
X46500D01*
Y11288D01*
X46848Y11334D01*
X47639Y11661D01*
X48318Y12182D01*
X48839Y12861D01*
X49166Y13652D01*
X49212Y14000D01*
D02*
G37*
G36*
X45500D02*
X42788D01*
X42834Y13652D01*
X43161Y12861D01*
X43682Y12182D01*
X44361Y11661D01*
X45152Y11334D01*
X45500Y11288D01*
Y14000D01*
D02*
G37*
G36*
X173469Y20986D02*
X172494Y20792D01*
X171667Y20239D01*
X171114Y19412D01*
X170920Y18437D01*
X171114Y17461D01*
X171667Y16634D01*
X172297Y16213D01*
X172191Y15683D01*
X171576Y15560D01*
X170749Y15008D01*
X170196Y14181D01*
X170002Y13205D01*
X170196Y12230D01*
X170749Y11403D01*
X171576Y10850D01*
X172551Y10656D01*
X173527Y10850D01*
X174354Y11403D01*
X174906Y12230D01*
X175100Y13205D01*
X174906Y14181D01*
X174354Y15008D01*
X173724Y15428D01*
X173829Y15959D01*
X174445Y16082D01*
X175272Y16634D01*
X175824Y17461D01*
X176018Y18437D01*
X175824Y19412D01*
X175272Y20239D01*
X174445Y20792D01*
X173469Y20986D01*
D02*
G37*
G36*
X99000Y16991D02*
X98152Y16879D01*
X97361Y16552D01*
X96682Y16030D01*
X96161Y15352D01*
X95834Y14561D01*
X95722Y13713D01*
X95834Y12864D01*
X96161Y12074D01*
X96682Y11395D01*
X97361Y10874D01*
X98152Y10546D01*
X99000Y10435D01*
X99848Y10546D01*
X100639Y10874D01*
X101318Y11395D01*
X101839Y12074D01*
X102166Y12864D01*
X102278Y13713D01*
X102166Y14561D01*
X101839Y15352D01*
X101318Y16030D01*
X100639Y16552D01*
X99848Y16879D01*
X99000Y16991D01*
D02*
G37*
G36*
X145000Y12808D02*
X144025Y12614D01*
X143198Y12062D01*
X142645Y11235D01*
X142451Y10259D01*
X142645Y9284D01*
X143198Y8457D01*
X144025Y7904D01*
X145000Y7710D01*
X145975Y7904D01*
X146802Y8457D01*
X147355Y9284D01*
X147549Y10259D01*
X147355Y11235D01*
X146802Y12062D01*
X145975Y12614D01*
X145000Y12808D01*
D02*
G37*
G36*
X166551Y11761D02*
X165576Y11567D01*
X164749Y11015D01*
X164196Y10188D01*
X164002Y9212D01*
X164196Y8237D01*
X164749Y7410D01*
X165576Y6857D01*
X166551Y6663D01*
X167527Y6857D01*
X168354Y7410D01*
X168906Y8237D01*
X169100Y9212D01*
X168906Y10188D01*
X168354Y11015D01*
X167527Y11567D01*
X166551Y11761D01*
D02*
G37*
%LPD*%
D61*
X344500Y133000D02*
D03*
X267500Y125284D02*
D03*
X159359Y218215D02*
D03*
X170500Y169936D02*
D03*
X171000Y148436D02*
D03*
X170500Y127436D02*
D03*
Y105936D02*
D03*
Y85436D02*
D03*
Y64936D02*
D03*
Y44436D02*
D03*
X251922Y182397D02*
D03*
X345000Y48626D02*
D03*
Y59500D02*
D03*
X309465Y174083D02*
D03*
X295151D02*
D03*
X170500Y23436D02*
D03*
X321500Y75040D02*
D03*
X283961Y70890D02*
D03*
X266654Y156878D02*
D03*
X159112Y185359D02*
D03*
D62*
X264292Y207500D02*
D03*
X46000Y14500D02*
D03*
X80500Y259740D02*
D03*
X26000Y264921D02*
D03*
X110778Y244866D02*
D03*
X104778Y245366D02*
D03*
X98778Y244866D02*
D03*
M02*
