%FSTAX23Y23*%
%MOIN*%
%SFA1B1*%

%IPPOS*%
%ADD15R,0.035430X0.039370*%
%ADD16R,0.080710X0.045280*%
%ADD17R,0.051180X0.043310*%
%ADD18R,0.039370X0.035430*%
%ADD19R,0.037400X0.033470*%
%ADD20R,0.011810X0.053150*%
%ADD21R,0.053150X0.011810*%
%ADD22R,0.035000X0.016540*%
%ADD23R,0.033470X0.037400*%
%ADD24R,0.045280X0.080710*%
%ADD41R,0.094490X0.029920*%
%ADD44C,0.086610*%
%ADD45C,0.129920*%
%ADD46C,0.196850*%
%LNsg_can_board-1*%
%LPD*%
G54D15*
X02466Y0176D03*
X02519D03*
X01549Y01936D03*
X01602D03*
X01783Y01975D03*
X01836D03*
X01785Y02303D03*
X01839D03*
X01551Y02264D03*
X01604D03*
G54D16*
X02745Y018D03*
X02643D03*
X02644Y02654D03*
X02755D03*
X0137Y00145D03*
X0119Y00181D03*
X0137Y00355D03*
X0119Y00391D03*
X0137Y0097D03*
X0119Y01006D03*
X0137Y01185D03*
X0119Y01221D03*
X0137Y00765D03*
X0119Y00801D03*
X0137Y0056D03*
X0119Y00596D03*
X01375Y01395D03*
X01195Y01431D03*
X0137Y0161D03*
X0119Y01646D03*
X01359Y01932D03*
X01361Y0226D03*
X01216Y02D03*
X01219Y02328D03*
X01113Y01835D03*
X01115Y02163D03*
X01633Y02417D03*
X00522Y02715D03*
X0016D03*
X0039D03*
G54D17*
X00717Y02605D03*
Y02514D03*
X00603Y02607D03*
Y02516D03*
G54D18*
X03374Y01377D03*
Y01324D03*
X0138Y01804D03*
Y01857D03*
X01383Y02133D03*
Y02186D03*
G54D19*
X03096Y0168D03*
Y01629D03*
X02951Y0168D03*
Y01629D03*
X01477Y02007D03*
Y01956D03*
X01479Y02336D03*
Y02285D03*
G54D20*
X02784Y01626D03*
X02764D03*
X02745D03*
X02725D03*
X02705D03*
X02686D03*
X02666D03*
X02646D03*
X02627D03*
X02607D03*
X02587D03*
X02568D03*
X02548D03*
X02528D03*
X02509D03*
X02489D03*
Y01174D03*
X02509D03*
X02528D03*
X02548D03*
X02568D03*
X02587D03*
X02607D03*
X02627D03*
X02646D03*
X02666D03*
X02686D03*
X02705D03*
X02725D03*
X02745D03*
X02764D03*
X02784D03*
G54D21*
X0241Y01548D03*
Y01528D03*
Y01508D03*
Y01489D03*
Y01469D03*
Y01449D03*
Y0143D03*
Y0141D03*
Y0139D03*
Y0137D03*
Y01351D03*
Y01331D03*
Y01311D03*
Y01292D03*
Y01272D03*
Y01252D03*
X02863D03*
Y01272D03*
Y01292D03*
Y01311D03*
Y01331D03*
Y01351D03*
Y0137D03*
Y0139D03*
Y0141D03*
Y0143D03*
Y01449D03*
Y01469D03*
Y01489D03*
Y01508D03*
Y01528D03*
Y01548D03*
G54D22*
X01663Y01598D03*
Y01623D03*
Y01649D03*
Y01674D03*
X01498Y01598D03*
Y01623D03*
Y01649D03*
Y01674D03*
X01668Y01383D03*
Y01408D03*
Y01434D03*
Y01459D03*
X01503Y01383D03*
Y01408D03*
Y01434D03*
Y01459D03*
X01663Y01173D03*
Y01198D03*
Y01224D03*
Y01249D03*
X01498Y01173D03*
Y01198D03*
Y01224D03*
Y01249D03*
X01663Y00958D03*
Y00983D03*
Y01009D03*
Y01034D03*
X01498Y00958D03*
Y00983D03*
Y01009D03*
Y01034D03*
X01663Y00753D03*
Y00778D03*
Y00804D03*
Y00829D03*
X01498Y00753D03*
Y00778D03*
Y00804D03*
Y00829D03*
X01663Y00548D03*
Y00573D03*
Y00599D03*
Y00624D03*
X01498Y00548D03*
Y00573D03*
Y00599D03*
Y00624D03*
X01663Y00343D03*
Y00368D03*
Y00394D03*
Y00419D03*
X01498Y00343D03*
Y00368D03*
Y00394D03*
Y00419D03*
Y00209D03*
Y00184D03*
Y00158D03*
Y00133D03*
X01663Y00209D03*
Y00184D03*
Y00158D03*
Y00133D03*
X01658Y01787D03*
Y01813D03*
Y01838D03*
Y01864D03*
X01493Y01787D03*
Y01813D03*
Y01838D03*
Y01864D03*
X01661Y02116D03*
Y02141D03*
Y02167D03*
Y02193D03*
X01495Y02116D03*
Y02141D03*
Y02167D03*
Y02193D03*
G54D23*
X01245Y01857D03*
X01296D03*
X0155Y02011D03*
X01601D03*
X01552Y02339D03*
X01603D03*
X01298Y02186D03*
X01247D03*
G54D24*
X0179Y002D03*
Y001D03*
X01823Y01784D03*
X01825Y02113D03*
G54D41*
X03096Y0153D03*
X0325D03*
X03096Y0148D03*
X0325D03*
X03096Y0143D03*
X0325D03*
X03096Y0138D03*
X0325D03*
X03096Y0133D03*
X0325D03*
G54D44*
X00704Y00927D03*
Y01045D03*
Y01163D03*
Y01281D03*
Y014D03*
Y01518D03*
Y01636D03*
Y01754D03*
Y01872D03*
X00606Y01104D03*
Y01222D03*
Y0134D03*
Y01459D03*
Y01577D03*
Y01695D03*
Y01813D03*
X00488Y01104D03*
Y01222D03*
Y0134D03*
Y01459D03*
Y01577D03*
X0039Y00927D03*
Y01045D03*
Y01163D03*
Y01281D03*
Y014D03*
Y01518D03*
Y01636D03*
Y01754D03*
Y01872D03*
X00606Y00986D03*
X00488D03*
Y01813D03*
Y01695D03*
G54D45*
X00134Y02157D03*
Y00642D03*
G54D46*
X003Y003D03*
Y025D03*
X032Y003D03*
Y025D03*
M02*