%FSTAX23Y23*%
%MOIN*%
%SFA1B1*%

%IPPOS*%
%ADD80C,0.003940*%
%ADD81C,0.001970*%
%LNsg_can_board-1*%
%LPD*%
G54D80*
X02232Y00141D02*
Y00181D01*
X02212Y00161D02*
X02252D01*
X0218Y02455D02*
Y02494D01*
X0216Y02475D02*
X02199D01*
X00593Y00221D02*
X00633D01*
X00613Y00201D02*
Y00241D01*
X00326Y02016D02*
Y02056D01*
X00307Y02036D02*
X00346D01*
X02473Y0176D02*
X02511D01*
X02492Y01741D02*
Y01779D01*
X00693Y0238D02*
X00732D01*
X00712Y0236D02*
Y02399D01*
X0054Y02325D02*
Y02364D01*
X0052Y02345D02*
X00559D01*
X00695Y0256D02*
X00734D01*
X00715Y0254D02*
Y02579D01*
X00798Y00614D02*
X00835D01*
X00816Y00596D02*
Y00633D01*
X02011Y00169D02*
X02048D01*
X0203Y0015D02*
Y00188D01*
X02447Y00212D02*
X02485D01*
X02466Y00194D02*
Y00231D01*
X02677Y01895D02*
X02714D01*
X02696Y01876D02*
Y01913D01*
X02541Y0229D02*
X02578D01*
X0256Y02271D02*
Y02308D01*
X02616Y02356D02*
Y02394D01*
X02597Y02375D02*
X02634D01*
X02762D02*
X02799D01*
X02781Y02356D02*
Y02394D01*
X02695Y0208D02*
Y02119D01*
X02675Y021D02*
X02714D01*
X03173Y0141D02*
Y01449D01*
X03153Y0143D02*
X03192D01*
X03374Y01332D02*
Y01369D01*
X03355Y01351D02*
X03393D01*
X03077Y01654D02*
X03115D01*
X03096Y01636D02*
Y01673D01*
X02932Y01654D02*
X0297D01*
X02951Y01636D02*
Y01673D01*
X02637Y0138D02*
Y0142D01*
X02617Y014D02*
X02656D01*
X0158Y01616D02*
Y01656D01*
X01561Y01636D02*
X016D01*
X01585Y01401D02*
Y01441D01*
X01566Y01421D02*
X01605D01*
X0158Y01191D02*
Y01231D01*
X01561Y01211D02*
X016D01*
X0158Y00976D02*
Y01016D01*
X01561Y00996D02*
X016D01*
X0158Y00771D02*
Y00811D01*
X01561Y00791D02*
X016D01*
X0158Y00566D02*
Y00606D01*
X01561Y00586D02*
X016D01*
X0158Y00361D02*
Y00401D01*
X01561Y00381D02*
X016D01*
X01561Y00171D02*
X016D01*
X0158Y00151D02*
Y00191D01*
X01307Y02608D02*
X01346D01*
X01326Y02588D02*
Y02628D01*
X01578Y02116D02*
Y02153D01*
X01559Y02134D02*
X01597D01*
X01575Y01787D02*
Y01825D01*
X01557Y01806D02*
X01594D01*
X02887Y02186D02*
Y02223D01*
X02868Y02205D02*
X02905D01*
X01433Y02502D02*
X01472D01*
X01453Y02482D02*
Y02522D01*
X00396Y00567D02*
Y00605D01*
X00377Y00586D02*
X00414D01*
X02213Y00332D02*
X02251D01*
X02232Y00314D02*
Y00351D01*
X02666Y01461D02*
Y01498D01*
X02647Y0148D02*
X02685D01*
X00165Y01835D02*
X00204D01*
X00185Y01815D02*
Y01854D01*
X01252Y01857D02*
X01289D01*
X0127Y01838D02*
Y01876D01*
X00335Y02164D02*
Y02203D01*
X00315Y02183D02*
X00354D01*
X0155Y00152D02*
Y0019D01*
X01531Y00171D02*
X01568D01*
X01609Y00152D02*
Y0019D01*
X0159Y00171D02*
X01628D01*
X02618Y01318D02*
X02655D01*
X02637Y01299D02*
Y01337D01*
X01585Y00068D02*
Y00105D01*
X01566Y00086D02*
X01604D01*
X01585Y00278D02*
Y00315D01*
X01566Y00296D02*
X01604D01*
X01531Y00381D02*
X01568D01*
X0155Y00362D02*
Y004D01*
X0159Y00381D02*
X01628D01*
X01609Y00362D02*
Y004D01*
X01585Y00893D02*
Y0093D01*
X01566Y00911D02*
X01604D01*
X01531Y00996D02*
X01568D01*
X0155Y00977D02*
Y01015D01*
X0159Y00996D02*
X01628D01*
X01609Y00977D02*
Y01015D01*
X01585Y01108D02*
Y01145D01*
X01566Y01126D02*
X01604D01*
X01531Y01211D02*
X01568D01*
X0155Y01192D02*
Y0123D01*
X0159Y01211D02*
X01628D01*
X01609Y01192D02*
Y0123D01*
X01585Y00688D02*
Y00725D01*
X01566Y00706D02*
X01604D01*
X01531Y00791D02*
X01568D01*
X0155Y00772D02*
Y0081D01*
X0159Y00791D02*
X01628D01*
X01609Y00772D02*
Y0081D01*
X01585Y00483D02*
Y0052D01*
X01566Y00501D02*
X01604D01*
X01531Y00586D02*
X01568D01*
X0155Y00567D02*
Y00605D01*
X0159Y00586D02*
X01628D01*
X01609Y00567D02*
Y00605D01*
X0159Y01318D02*
Y01355D01*
X01571Y01336D02*
X01609D01*
X01536Y01421D02*
X01573D01*
X01555Y01402D02*
Y0144D01*
X01595Y01421D02*
X01633D01*
X01614Y01402D02*
Y0144D01*
X01585Y01533D02*
Y0157D01*
X01566Y01551D02*
X01604D01*
X0159Y01636D02*
X01628D01*
X01609Y01617D02*
Y01655D01*
X01531Y01636D02*
X01568D01*
X0155Y01617D02*
Y01655D01*
X01557Y01936D02*
X01594D01*
X01575Y01917D02*
Y01954D01*
X0138Y01812D02*
Y01849D01*
X01362Y01831D02*
X01399D01*
X01791Y01975D02*
X01828D01*
X0181Y01956D02*
Y01993D01*
X01575Y01992D02*
Y02029D01*
X01557Y02011D02*
X01594D01*
X01458Y01982D02*
X01496D01*
X01477Y01963D02*
Y02D01*
X01575Y01806D02*
Y01845D01*
X01556Y01826D02*
X01595D01*
X01793Y02303D02*
X01831D01*
X01812Y02284D02*
Y02322D01*
X01578Y0232D02*
Y02358D01*
X01559Y02339D02*
X01597D01*
X01559Y02264D02*
X01597D01*
X01578Y02245D02*
Y02283D01*
Y02134D02*
Y02174D01*
X01558Y02154D02*
X01598D01*
X01461Y0231D02*
X01498D01*
X01479Y02292D02*
Y02329D01*
X01383Y0214D02*
Y02178D01*
X01364Y02159D02*
X01402D01*
X01273Y02167D02*
Y02204D01*
X01254Y02186D02*
X01292D01*
G54D81*
X02086Y00269D02*
X02378D01*
X02086Y00053D02*
X02378D01*
Y00269*
X02086Y00053D02*
Y00269D01*
X02012Y02616D02*
X02347D01*
X02012Y02333D02*
X02347D01*
Y02616*
X02012Y02333D02*
Y02616D01*
X00755Y00054D02*
Y00388D01*
X00471Y00054D02*
Y00388D01*
Y00054D02*
X00755D01*
X00471Y00388D02*
X00755D01*
X00251Y02105D02*
X00402D01*
Y01967D02*
Y02105D01*
X00251Y01967D02*
Y02105D01*
Y01967D02*
X00402D01*
X02439Y0173D02*
Y01789D01*
X02545Y0173D02*
Y01789D01*
X02439D02*
X02545D01*
X02439Y0173D02*
X02545D01*
X00675Y02313D02*
Y02446D01*
X0075*
X00675Y02313D02*
X0075D01*
Y02446*
X00447Y0239D02*
X00632D01*
Y02299D02*
Y0239D01*
X00447Y02299D02*
Y0239D01*
Y02299D02*
X00632D01*
X00752Y02493D02*
Y02626D01*
X00677Y02493D02*
Y02626D01*
Y02493D02*
X00752D01*
X00677Y02626D02*
X00752D01*
X00787Y00561D02*
Y00668D01*
X00846Y00561D02*
Y00668D01*
X00787D02*
X00846D01*
X00787Y00561D02*
X00846D01*
X02059Y00116D02*
Y00222D01*
X02Y00116D02*
Y00222D01*
Y00116D02*
X02059D01*
X02Y00222D02*
X02059D01*
X02495Y00159D02*
Y00266D01*
X02436Y00159D02*
Y00266D01*
Y00159D02*
X02495D01*
X02436Y00266D02*
X02495D01*
X02749Y01865D02*
Y01924D01*
X02642Y01865D02*
Y01924D01*
X02749*
X02642Y01865D02*
X02749D01*
X02506Y0226D02*
Y02319D01*
X02613Y0226D02*
Y02319D01*
X02506Y0226D02*
X02613D01*
X02506Y02319D02*
X02613D01*
X02562Y02346D02*
X02669D01*
X02562Y02405D02*
X02669D01*
X02562Y02346D02*
Y02405D01*
X02669Y02346D02*
Y02405D01*
X02834Y02346D02*
Y02405D01*
X02727Y02346D02*
Y02405D01*
X02834*
X02727Y02346D02*
X02834D01*
X02586Y01954D02*
X02803D01*
X02586Y02245D02*
X02803D01*
Y01954D02*
Y02245D01*
X02586Y01954D02*
Y02245D01*
X03045Y01301D02*
X03301D01*
Y01558*
X03045D02*
X03301D01*
X03045Y01301D02*
Y01558D01*
X03345Y01404D02*
X03404D01*
X03345Y01298D02*
X03404D01*
Y01404*
X03345Y01298D02*
Y01404D01*
X03125Y01601D02*
Y01708D01*
X03066Y01601D02*
Y01708D01*
X03125*
X03066Y01601D02*
X03125D01*
X02981D02*
Y01708D01*
X02921Y01601D02*
Y01708D01*
X02981*
X02921Y01601D02*
X02981D01*
X02375Y01662D02*
X02898D01*
X02375Y01138D02*
X02898D01*
Y01662*
X02375Y01138D02*
Y01662D01*
X01456Y01563D02*
X01705D01*
X01456Y01709D02*
X01705D01*
Y01563D02*
Y01709D01*
X01456Y01563D02*
Y01709D01*
X01461Y01348D02*
X0171D01*
X01461Y01494D02*
X0171D01*
Y01348D02*
Y01494D01*
X01461Y01348D02*
Y01494D01*
X01456Y01138D02*
X01705D01*
X01456Y01284D02*
X01705D01*
Y01138D02*
Y01284D01*
X01456Y01138D02*
Y01284D01*
Y00923D02*
X01705D01*
X01456Y01069D02*
X01705D01*
Y00923D02*
Y01069D01*
X01456Y00923D02*
Y01069D01*
Y00718D02*
X01705D01*
X01456Y00864D02*
X01705D01*
Y00718D02*
Y00864D01*
X01456Y00718D02*
Y00864D01*
Y00513D02*
X01705D01*
X01456Y00659D02*
X01705D01*
Y00513D02*
Y00659D01*
X01456Y00513D02*
Y00659D01*
Y00308D02*
X01705D01*
X01456Y00454D02*
X01705D01*
Y00308D02*
Y00454D01*
X01456Y00308D02*
Y00454D01*
Y00098D02*
Y00244D01*
X01705Y00098D02*
Y00244D01*
X01456D02*
X01705D01*
X01456Y00098D02*
X01705D01*
X01364Y02541D02*
Y02675D01*
X01289Y02541D02*
Y02675D01*
Y02541D02*
X01364D01*
X01289Y02675D02*
X01364D01*
X01525Y02164D02*
X01631D01*
X01525Y02105D02*
X01631D01*
Y02164*
X01525Y02105D02*
Y02164D01*
X01522Y01835D02*
X01629D01*
X01522Y01776D02*
X01629D01*
Y01835*
X01522Y01776D02*
Y01835D01*
X02833Y02175D02*
X0294D01*
X02833Y02234D02*
X0294D01*
X02833Y02175D02*
Y02234D01*
X0294Y02175D02*
Y02234D01*
X00178Y01399D02*
Y01505D01*
X00241Y01399D02*
Y01505D01*
X00178D02*
X00241D01*
X00178Y01399D02*
X00241D01*
X0149Y02435D02*
Y02569D01*
X01415Y02435D02*
Y02569D01*
Y02435D02*
X0149D01*
X01415Y02569D02*
X0149D01*
X00366Y00533D02*
X00425D01*
X00366Y00639D02*
X00425D01*
Y00533D02*
Y00639D01*
X00366Y00533D02*
Y00639D01*
X02179Y00303D02*
Y00362D01*
X02285Y00303D02*
Y00362D01*
X02179Y00303D02*
X02285D01*
X02179Y00362D02*
X02285D01*
X02637Y01426D02*
X02696D01*
X02637Y01533D02*
X02696D01*
Y01426D02*
Y01533D01*
X02637Y01426D02*
Y01533D01*
X0024Y01725D02*
Y01944D01*
X00129Y01725D02*
X0024D01*
X00129Y01944D02*
X0024D01*
X00129Y01725D02*
Y01944D01*
X01217Y01828D02*
Y01887D01*
X01324Y01828D02*
Y01887D01*
X01217D02*
X01324D01*
X01217Y01828D02*
X01324D01*
X00268Y02146D02*
X00401D01*
X00268D02*
Y02221D01*
X00401Y02146D02*
Y02221D01*
X00268D02*
X00401D01*
X01579Y00118D02*
Y00224D01*
X0152Y00118D02*
X01579D01*
X0152Y00224D02*
X01579D01*
X0152Y00118D02*
Y00224D01*
X01639Y00118D02*
Y00224D01*
X0158Y00118D02*
X01639D01*
X0158Y00224D02*
X01639D01*
X0158Y00118D02*
Y00224D01*
X02583Y01289D02*
Y01348D01*
X0269Y01289D02*
Y01348D01*
X02583Y01289D02*
X0269D01*
X02583Y01348D02*
X0269D01*
X01532Y00057D02*
X01638D01*
X01532D02*
Y00116D01*
X01638Y00057D02*
Y00116D01*
X01532D02*
X01638D01*
X01532Y00267D02*
X01638D01*
X01532D02*
Y00326D01*
X01638Y00267D02*
Y00326D01*
X01532D02*
X01638D01*
X0152Y00328D02*
Y00434D01*
X01579*
X0152Y00328D02*
X01579D01*
Y00434*
X0158Y00328D02*
Y00434D01*
X01639*
X0158Y00328D02*
X01639D01*
Y00434*
X01532Y00882D02*
X01638D01*
X01532D02*
Y00941D01*
X01638Y00882D02*
Y00941D01*
X01532D02*
X01638D01*
X0152Y00943D02*
Y01049D01*
X01579*
X0152Y00943D02*
X01579D01*
Y01049*
X0158Y00943D02*
Y01049D01*
X01639*
X0158Y00943D02*
X01639D01*
Y01049*
X01532Y01097D02*
X01638D01*
X01532D02*
Y01156D01*
X01638Y01097D02*
Y01156D01*
X01532D02*
X01638D01*
X0152Y01158D02*
Y01264D01*
X01579*
X0152Y01158D02*
X01579D01*
Y01264*
X0158Y01158D02*
Y01264D01*
X01639*
X0158Y01158D02*
X01639D01*
Y01264*
X01532Y00677D02*
X01638D01*
X01532D02*
Y00736D01*
X01638Y00677D02*
Y00736D01*
X01532D02*
X01638D01*
X0152Y00738D02*
Y00844D01*
X01579*
X0152Y00738D02*
X01579D01*
Y00844*
X0158Y00738D02*
Y00844D01*
X01639*
X0158Y00738D02*
X01639D01*
Y00844*
X01532Y00472D02*
X01638D01*
X01532D02*
Y00531D01*
X01638Y00472D02*
Y00531D01*
X01532D02*
X01638D01*
X0152Y00533D02*
Y00639D01*
X01579*
X0152Y00533D02*
X01579D01*
Y00639*
X0158Y00533D02*
Y00639D01*
X01639*
X0158Y00533D02*
X01639D01*
Y00639*
X01537Y01307D02*
X01643D01*
X01537D02*
Y01366D01*
X01643Y01307D02*
Y01366D01*
X01537D02*
X01643D01*
X01525Y01368D02*
Y01474D01*
X01584*
X01525Y01368D02*
X01584D01*
Y01474*
X01585Y01368D02*
Y01474D01*
X01644*
X01585Y01368D02*
X01644D01*
Y01474*
X01532Y01522D02*
X01638D01*
X01532D02*
Y01581D01*
X01638Y01522D02*
Y01581D01*
X01532D02*
X01638D01*
X0158Y01583D02*
Y01689D01*
X01639*
X0158Y01583D02*
X01639D01*
Y01689*
X0152Y01583D02*
Y01689D01*
X01579*
X0152Y01583D02*
X01579D01*
Y01689*
X01522Y01906D02*
Y01965D01*
X01629Y01906D02*
Y01965D01*
X01522D02*
X01629D01*
X01522Y01906D02*
X01629D01*
X01351Y01777D02*
X0141D01*
X01351Y01884D02*
X0141D01*
X01351Y01777D02*
Y01884D01*
X0141Y01777D02*
Y01884D01*
X01756Y01945D02*
Y02004D01*
X01863Y01945D02*
Y02004D01*
X01756D02*
X01863D01*
X01756Y01945D02*
X01863D01*
X01522Y0204D02*
X01629D01*
X01522Y01981D02*
X01629D01*
X01522D02*
Y0204D01*
X01629Y01981D02*
Y0204D01*
X01506Y01929D02*
Y02035D01*
X01447Y01929D02*
Y02035D01*
X01506*
X01447Y01929D02*
X01506D01*
X01451Y01753D02*
X01699D01*
X01451Y01898D02*
X01699D01*
Y01753D02*
Y01898D01*
X01451Y01753D02*
Y01898D01*
X01759Y02274D02*
Y02333D01*
X01865Y02274D02*
Y02333D01*
X01759D02*
X01865D01*
X01759Y02274D02*
X01865D01*
X01525Y02369D02*
X01631D01*
X01525Y0231D02*
X01631D01*
X01525D02*
Y02369D01*
X01631Y0231D02*
Y02369D01*
X01525Y02235D02*
Y02294D01*
X01631Y02235D02*
Y02294D01*
X01525D02*
X01631D01*
X01525Y02235D02*
X01631D01*
X01454Y02081D02*
X01702D01*
X01454Y02227D02*
X01702D01*
Y02081D02*
Y02227D01*
X01454Y02081D02*
Y02227D01*
X01509Y02257D02*
Y02363D01*
X0145Y02257D02*
Y02363D01*
X01509*
X0145Y02257D02*
X01509D01*
X01353Y02106D02*
X01412D01*
X01353Y02212D02*
X01412D01*
X01353Y02106D02*
Y02212D01*
X01412Y02106D02*
Y02212D01*
X0122Y02156D02*
X01326D01*
X0122Y02215D02*
X01326D01*
Y02156D02*
Y02215D01*
X0122Y02156D02*
Y02215D01*
M02*