%FSTAX23Y23*%
%MOIN*%
%SFA1B1*%

%IPPOS*%
%ADD10C,0.009840*%
%ADD11C,0.023620*%
%ADD12C,0.010000*%
%ADD13C,0.005910*%
%ADD14C,0.007870*%
%LNsg_can_board-1*%
%LPD*%
G36*
X02629Y00838D02*
X02631D01*
X02633Y00837*
X02637Y00837*
X02641Y00836*
X02644Y00835*
X02648Y00834*
X02648*
X02648Y00834*
X02649Y00833*
X02651Y00832*
X02653Y00831*
X02655Y00829*
X02657Y00828*
X02659Y00825*
X0266Y00823*
X0266Y00823*
X0266Y00822*
X02661Y0082*
X02662Y00818*
X02662Y00817*
X02662Y00815*
X02662Y00813*
X02662Y00811*
X02663Y00809*
X02663Y00807*
X02663Y00804*
Y00801*
Y00797*
X02632*
Y00806*
Y00806*
Y00807*
Y00808*
X02632Y00809*
X02632Y00812*
X02631Y00813*
X02631Y00814*
Y00815*
X02631Y00815*
X0263Y00815*
X02629Y00816*
X02628Y00816*
X02627*
X02625Y00816*
X02624Y00815*
X02623Y00815*
X02623Y00814*
Y00814*
X02622Y00813*
X02622Y00813*
X02622Y00812*
X02622Y00811*
X02621Y0081*
X02621Y00808*
Y00806*
Y00806*
Y00805*
X02621Y00804*
Y00803*
X02622Y008*
X02622Y00798*
X02623Y00797*
X02623Y00797*
X02623Y00796*
X02624Y00795*
X02625Y00795*
X02626Y00793*
X02627Y00792*
X02629Y00791*
X02632Y00789*
X02632Y00789*
X02633Y00789*
X02634Y00788*
X02636Y00787*
X02637Y00786*
X02639Y00785*
X02644Y00781*
X02649Y00778*
X02653Y00774*
X02655Y00772*
X02657Y00771*
X02659Y00769*
X0266Y00767*
Y00767*
X0266Y00767*
X0266Y00766*
X02661Y00766*
X02661Y00765*
X02662Y00764*
X02662Y00762*
X02663Y00761*
X02663Y00759*
X02664Y00757*
X02664Y00755*
X02665Y00752*
X02665Y0075*
X02666Y00747*
X02666Y00744*
Y0074*
Y0074*
Y0074*
Y00739*
Y00738*
X02666Y00737*
Y00735*
X02665Y00733*
X02665Y00729*
X02664Y00726*
X02664Y00723*
X02662Y0072*
X02662Y0072*
X02662Y00719*
X02661Y00718*
X0266Y00717*
X02658Y00715*
X02656Y00713*
X02653Y00711*
X0265Y00709*
X0265*
X0265Y00709*
X02649Y00709*
X02648Y00709*
X02647Y00708*
X02644Y00707*
X02641Y00707*
X02637Y00706*
X02633Y00705*
X02629Y00705*
X02627*
X02626Y00705*
X02624*
X02621Y00706*
X02617Y00706*
X02614Y00707*
X0261Y00708*
X02606Y0071*
X02606*
X02606Y0071*
X02605Y00711*
X02603Y00712*
X02601Y00713*
X02599Y00715*
X02597Y00718*
X02595Y0072*
X02594Y00723*
Y00723*
X02594Y00723*
X02593Y00724*
X02593Y00726*
X02592Y00729*
X02592Y00732*
X02591Y00736*
X02591Y0074*
X02591Y00745*
Y00754*
X02622*
Y00738*
Y00737*
Y00737*
Y00735*
X02622Y00734*
X02622Y00732*
X02622Y00731*
X02623Y00729*
X02623Y00729*
X02623Y00728*
X02624Y00728*
X02626Y00727*
X02627Y00727*
X02628Y00727*
X02628*
X02629Y00727*
X02629Y00727*
X02631Y00728*
X02632Y00728*
X02633Y00729*
Y00729*
X02633Y0073*
X02633Y0073*
X02633Y00731*
X02634Y00732*
X02634Y00733*
X02634Y00735*
Y00737*
Y00737*
Y00737*
Y00738*
Y00739*
X02634Y00741*
X02634Y00743*
X02633Y00745*
X02633Y00748*
X02632Y0075*
X02632Y00751*
X02631Y00752*
X02631Y00752*
X0263Y00752*
X02629Y00753*
X02628Y00754*
X02626Y00756*
X02623Y00758*
X02622Y00759*
X0262Y0076*
X02618Y00762*
X02616Y00763*
X02615Y00763*
X02615Y00764*
X02615Y00764*
X02614Y00764*
X02611Y00766*
X02609Y00768*
X02606Y0077*
X02603Y00772*
X02601Y00773*
X026Y00774*
X02599Y00775*
X02599Y00775*
X02598Y00776*
X02598Y00776*
X02597Y00778*
X02596Y00779*
X02595Y00781*
X02594Y00783*
X02593Y00785*
X02592Y00786*
X02592Y00787*
X02592Y00788*
X02591Y0079*
X02591Y00792*
X0259Y00795*
X0259Y00798*
X0259Y00802*
Y00802*
Y00803*
Y00803*
Y00804*
X0259Y00806*
Y00807*
X02591Y0081*
X02591Y00814*
X02592Y00817*
X02592Y0082*
X02593Y00822*
X02594Y00823*
X02594Y00824*
X02594Y00824*
X02595Y00826*
X02597Y00827*
X02598Y00829*
X026Y00831*
X02603Y00832*
X02606Y00834*
X02606*
X02606Y00834*
X02607Y00835*
X02609Y00835*
X02611Y00836*
X02614Y00837*
X02618Y00837*
X02622Y00838*
X02626Y00838*
X02628*
X02629Y00838*
G37*
G36*
X03102Y0081D02*
X03082D01*
Y00708*
X03049*
Y0081*
X03029*
Y00835*
X03102*
Y0081*
G37*
G36*
X02893Y00835D02*
X02896D01*
X02901Y00835*
X02907Y00835*
X02909Y00834*
X02911Y00834*
X02913Y00834*
X02915Y00834*
X02915*
X02916Y00833*
X02918Y00833*
X0292Y00832*
X02922Y0083*
X02924Y00829*
X02926Y00827*
X02929Y00824*
X02929Y00824*
X02929Y00823*
X0293Y00823*
X0293Y00822*
X0293Y00821*
X02931Y0082*
X02931Y00818*
X02932Y00817*
X02932Y00815*
X02933Y00813*
X02933Y00811*
X02933Y00809*
X02934Y00806*
X02934Y00803*
Y00801*
Y008*
Y008*
Y00799*
Y00798*
X02934Y00797*
Y00796*
X02933Y00793*
X02933Y00789*
X02932Y00786*
X02931Y00783*
X02931Y00782*
X0293Y0078*
X0293Y0078*
X02929Y0078*
X02928Y00779*
X02927Y00778*
X02925Y00777*
X02922Y00776*
X02919Y00775*
X02916Y00774*
X02916*
X02916Y00774*
X02916*
X02917Y00774*
X02919Y00773*
X02921Y00773*
X02923Y00772*
X02925Y0077*
X02927Y00769*
X02929Y00768*
X02929Y00768*
X02929Y00767*
X0293Y00766*
X0293Y00765*
X02932Y00763*
X02933Y00762*
X02933Y0076*
Y0076*
X02933Y0076*
X02933Y00758*
X02934Y00757*
Y00756*
Y00754*
X02934Y00753*
Y00751*
X02934Y00749*
Y00747*
Y00744*
Y00741*
Y00708*
X02903*
Y0075*
Y0075*
Y00751*
Y00751*
Y00752*
Y00754*
X02903Y00756*
X02903Y00758*
X02902Y0076*
X02902Y00762*
X02902Y00762*
X02901Y00763*
Y00763*
X02901Y00763*
X02901Y00764*
X029Y00764*
X02899Y00765*
X02897Y00765*
X02895Y00765*
X02893Y00765*
Y00708*
X0286*
Y00835*
X02891*
X02893Y00835*
G37*
G36*
X02817D02*
X0282D01*
X02823Y00835*
X02827Y00834*
X0283Y00834*
X02833Y00833*
X02833Y00833*
X02834Y00833*
X02836Y00832*
X02837Y00832*
X02839Y00831*
X02841Y0083*
X02842Y00828*
X02844Y00827*
X02844Y00827*
X02844Y00826*
X02845Y00825*
X02846Y00824*
X02847Y00823*
X02848Y00821*
X02848Y00819*
X02849Y00817*
Y00817*
X02849Y00816*
X02849Y00815*
X0285Y00813*
X0285Y0081*
X0285Y00807*
X0285Y00804*
Y008*
Y00789*
Y00788*
Y00788*
Y00787*
Y00787*
X0285Y00784*
X0285Y00782*
X0285Y00779*
X02849Y00776*
X02849Y00773*
X02848Y00771*
X02848Y0077*
X02847Y0077*
X02847Y00769*
X02846Y00768*
X02844Y00766*
X02843Y00765*
X02841Y00763*
X02838Y00762*
X02838Y00762*
X02837Y00762*
X02836Y00761*
X02834Y00761*
X02831Y0076*
X02828Y0076*
X02825Y00759*
X02821Y00759*
X02812*
Y00708*
X02779*
Y00835*
X02815*
X02817Y00835*
G37*
G36*
X02743Y0081D02*
X02723D01*
Y00708*
X0269*
Y0081*
X0267*
Y00835*
X02743*
Y0081*
G37*
G36*
X02587Y00708D02*
X02553D01*
X02551Y00731*
X02539*
X02537Y00708*
X02503*
X0252Y00835*
X02568*
X02587Y00708*
G37*
G36*
X02503Y0081D02*
X0248D01*
Y00786*
X025*
Y00761*
X0248*
Y00708*
X02447*
Y00835*
X02503*
Y0081*
G37*
G36*
X0315Y00838D02*
X03153Y00838D01*
X03155Y00837*
X03159Y00836*
X03162Y00836*
X03165Y00834*
X03165*
X03165Y00834*
X03166Y00834*
X03168Y00833*
X0317Y00832*
X03172Y00831*
X03174Y00829*
X03176Y00827*
X03178Y00824*
X03178Y00824*
X03179Y00823*
X0318Y00822*
X03181Y0082*
X03182Y00818*
X03183Y00815*
X03183Y00813*
X03184Y0081*
Y00809*
X03184Y00809*
Y00808*
Y00807*
X03184Y00806*
Y00805*
X03184Y00803*
X03185Y00802*
Y008*
X03185Y00797*
Y00795*
Y00792*
X03185Y00789*
Y00786*
Y00782*
Y0076*
Y0076*
Y0076*
Y00759*
Y00757*
Y00756*
Y00754*
Y00752*
X03185Y0075*
Y00746*
X03185Y00741*
X03184Y00737*
X03184Y00735*
X03184Y00733*
Y00733*
X03184Y00732*
X03184Y0073*
X03183Y00728*
X03182Y00726*
X03181Y00724*
X0318Y00721*
X03178Y00719*
X03178Y00718*
X03177Y00717*
X03176Y00716*
X03175Y00715*
X03173Y00713*
X03171Y00712*
X03168Y0071*
X03165Y00709*
X03165Y00708*
X03164Y00708*
X03162Y00707*
X0316Y00707*
X03157Y00706*
X03154Y00706*
X0315Y00705*
X03147Y00705*
X03145*
X03143Y00705*
X0314Y00705*
X03138Y00706*
X03135Y00707*
X03131Y00707*
X03128Y00708*
X03128Y00709*
X03127Y00709*
X03125Y0071*
X03123Y00711*
X03121Y00712*
X03119Y00714*
X03117Y00716*
X03115Y00718*
X03115Y00719*
X03114Y00719*
X03113Y00721*
X03112Y00723*
X03111Y00725*
X0311Y00727*
X0311Y0073*
X03109Y00733*
Y00733*
Y00733*
Y00734*
X03109Y00734*
Y00735*
X03109Y00736*
Y00738*
Y00739*
X03109Y00741*
Y00743*
X03108Y00745*
Y00748*
X03108Y00751*
Y00754*
Y00757*
Y0076*
Y00782*
Y00782*
Y00783*
Y00784*
Y00785*
Y00787*
Y00789*
Y00791*
X03108Y00793*
Y00797*
X03109Y00802*
X03109Y00806*
Y00808*
X03109Y00809*
Y0081*
Y0081*
X03109Y00811*
X0311Y00812*
X0311Y00814*
X03111Y00817*
X03112Y00819*
X03113Y00821*
X03115Y00824*
X03115Y00824*
X03116Y00825*
X03117Y00826*
X03118Y00828*
X0312Y0083*
X03122Y00831*
X03125Y00833*
X03128Y00834*
X03128*
X03128Y00834*
X03129Y00835*
X03131Y00835*
X03133Y00836*
X03136Y00837*
X03139Y00837*
X03143Y00838*
X03147Y00838*
X03148*
X0315Y00838*
G37*
G36*
X02988D02*
X0299Y00838D01*
X02993Y00837*
X02996Y00836*
X02999Y00836*
X03002Y00834*
X03003*
X03003Y00834*
X03004Y00834*
X03005Y00833*
X03007Y00832*
X03009Y00831*
X03011Y00829*
X03014Y00827*
X03016Y00824*
X03016Y00824*
X03016Y00823*
X03017Y00822*
X03018Y0082*
X03019Y00818*
X0302Y00815*
X03021Y00813*
X03021Y0081*
Y00809*
X03022Y00809*
Y00808*
Y00807*
X03022Y00806*
Y00805*
X03022Y00803*
X03022Y00802*
Y008*
X03022Y00797*
Y00795*
Y00792*
X03022Y00789*
Y00786*
Y00782*
Y0076*
Y0076*
Y0076*
Y00759*
Y00757*
Y00756*
Y00754*
Y00752*
X03022Y0075*
Y00746*
X03022Y00741*
X03022Y00737*
X03022Y00735*
X03022Y00733*
Y00733*
X03021Y00732*
X03021Y0073*
X0302Y00728*
X0302Y00726*
X03019Y00724*
X03017Y00721*
X03016Y00719*
X03016Y00718*
X03015Y00717*
X03014Y00716*
X03012Y00715*
X0301Y00713*
X03008Y00712*
X03006Y0071*
X03003Y00709*
X03002Y00708*
X03001Y00708*
X03Y00707*
X02998Y00707*
X02995Y00706*
X02991Y00706*
X02988Y00705*
X02984Y00705*
X02982*
X0298Y00705*
X02978Y00705*
X02975Y00706*
X02972Y00707*
X02969Y00707*
X02966Y00708*
X02965Y00709*
X02964Y00709*
X02963Y0071*
X02961Y00711*
X02959Y00712*
X02957Y00714*
X02955Y00716*
X02953Y00718*
X02952Y00719*
X02952Y00719*
X02951Y00721*
X0295Y00723*
X02949Y00725*
X02948Y00727*
X02947Y0073*
X02947Y00733*
Y00733*
Y00733*
Y00734*
X02946Y00734*
Y00735*
X02946Y00736*
Y00738*
Y00739*
X02946Y00741*
Y00743*
X02946Y00745*
Y00748*
X02946Y00751*
Y00754*
Y00757*
Y0076*
Y00782*
Y00782*
Y00783*
Y00784*
Y00785*
Y00787*
Y00789*
Y00791*
X02946Y00793*
Y00797*
X02946Y00802*
X02946Y00806*
Y00808*
X02946Y00809*
Y0081*
Y0081*
X02947Y00811*
X02947Y00812*
X02948Y00814*
X02948Y00817*
X02949Y00819*
X0295Y00821*
X02952Y00824*
X02952Y00824*
X02953Y00825*
X02954Y00826*
X02956Y00828*
X02957Y0083*
X0296Y00831*
X02962Y00833*
X02965Y00834*
X02965*
X02965Y00834*
X02967Y00835*
X02968Y00835*
X02971Y00836*
X02973Y00837*
X02977Y00837*
X0298Y00838*
X02984Y00838*
X02986*
X02988Y00838*
G37*
G36*
X02973Y00591D02*
X02932D01*
Y00613*
X02973*
Y00591*
G37*
G36*
X02803D02*
X02761D01*
Y00613*
X02803*
Y00591*
G37*
G36*
X02717Y00679D02*
X02718D01*
X02721Y00679*
X02724Y00679*
X02728Y00678*
X02731Y00677*
X02734Y00676*
X02735*
X02735Y00676*
X02736Y00675*
X02737Y00674*
X02739Y00673*
X02741Y00672*
X02743Y0067*
X02745Y00668*
X02747Y00666*
X02747Y00665*
X02748Y00665*
X02749Y00663*
X0275Y00662*
X0275Y00659*
X02751Y00657*
X02752Y00654*
X02752Y00652*
Y00651*
Y00651*
X02753Y0065*
Y00649*
Y00648*
X02753Y00647*
Y00645*
Y00644*
X02753Y00642*
Y00639*
Y00637*
X02753Y00634*
Y00631*
Y00627*
Y00623*
Y00606*
Y00606*
Y00605*
Y00604*
Y00602*
Y006*
Y00598*
Y00596*
Y00593*
X02753Y00588*
X02753Y00583*
Y00581*
X02753Y00579*
Y00577*
X02752Y00575*
Y00575*
X02752Y00574*
X02752Y00572*
X02752Y0057*
X02751Y00568*
X0275Y00566*
X02749Y00563*
X02747Y00561*
X02747Y0056*
X02746Y00559*
X02745Y00558*
X02744Y00557*
X02742Y00555*
X02739Y00553*
X02737Y00552*
X02734Y0055*
X02733Y0055*
X02732Y0055*
X02731Y00549*
X02728Y00549*
X02726Y00548*
X02722Y00548*
X02719Y00547*
X02715Y00547*
X02713*
X02711Y00547*
X0271*
X02707Y00548*
X02703Y00548*
X027Y00549*
X02696Y0055*
X02693Y00551*
X02692Y00551*
X02691Y00552*
X0269Y00553*
X02688Y00554*
X02686Y00556*
X02684Y00558*
X02682Y00561*
X0268Y00563*
Y00564*
X0268Y00564*
X0268Y00565*
X02679Y00567*
X02679Y00569*
X02678Y00572*
X02677Y00575*
X02677Y00579*
X02677Y00584*
X02709*
Y00583*
Y00583*
Y00582*
Y00581*
Y00579*
Y00577*
Y00575*
X02709Y00573*
Y00572*
Y00572*
Y00572*
X02709Y00571*
X0271Y0057*
X02711Y00568*
X02711Y00568*
X02712Y00568*
X02713Y00567*
X02715Y00567*
X02716*
X02717Y00567*
X02718Y00567*
X02719Y00568*
X02719Y00568*
X0272Y00569*
X02721Y0057*
X02721Y00572*
Y00572*
Y00573*
X02721Y00573*
Y00574*
Y00575*
X02721Y00577*
Y00579*
Y00582*
Y00602*
X02721Y00602*
X02721Y00601*
X0272Y006*
X02719Y00599*
X02719Y00598*
X02717Y00597*
X02716Y00595*
X02714Y00594*
X02714Y00594*
X02713Y00594*
X02712Y00594*
X02711Y00593*
X02709Y00592*
X02707Y00592*
X02705Y00592*
X02702Y00592*
X02701*
X02699Y00592*
X02697Y00592*
X02695Y00593*
X02692Y00594*
X0269Y00595*
X02687Y00596*
X02687Y00596*
X02686Y00597*
X02685Y00598*
X02683Y006*
X02682Y00601*
X02681Y00603*
X02679Y00605*
X02678Y00608*
Y00608*
X02678Y00609*
X02678Y0061*
X02678Y00612*
X02677Y00615*
X02677Y00618*
X02677Y00622*
Y00626*
Y00636*
Y00636*
Y00636*
Y00637*
Y00638*
Y00639*
Y0064*
X02677Y00643*
Y00647*
X02677Y0065*
X02677Y00653*
X02678Y00656*
Y00656*
X02678Y00657*
X02678Y00658*
X02679Y0066*
X0268Y00662*
X0268Y00664*
X02682Y00666*
X02683Y00668*
X02683Y00668*
X02684Y00669*
X02685Y0067*
X02686Y00671*
X02688Y00672*
X0269Y00674*
X02693Y00675*
X02695Y00676*
X02696*
X02696Y00677*
X02697Y00677*
X02699Y00677*
X02701Y00678*
X02703Y00679*
X02706Y00679*
X0271Y00679*
X02714Y0068*
X02716*
X02717Y00679*
G37*
G36*
X03108Y00594D02*
X03117D01*
Y00572*
X03108*
Y0055*
X03076*
Y00572*
X03039*
Y00594*
X03066Y00677*
X03108*
Y00594*
G37*
G36*
X03031Y0055D02*
X02999D01*
Y00618*
Y00618*
Y00619*
Y00619*
Y0062*
Y00621*
Y00623*
Y00626*
X02999Y00629*
X02999Y00632*
Y00633*
X02999Y00634*
Y00635*
X02998Y00636*
Y00636*
X02998Y00636*
X02998Y00637*
X02997Y00638*
X02996Y00639*
X02996Y0064*
X02994Y0064*
X02994*
X02994Y0064*
X02993Y00641*
X02991Y00641*
X0299Y00641*
X02987Y00642*
X02984Y00642*
X02977*
Y00657*
X02977*
X02978Y00657*
X02979Y00657*
X02981Y00658*
X02983Y00658*
X02985Y00659*
X02988Y0066*
X0299Y00661*
X02993Y00662*
X02996Y00664*
X02999Y00666*
X03002Y00668*
X03005Y0067*
X03007Y00672*
X0301Y00674*
X03012Y00677*
X03031*
Y0055*
G37*
G36*
X02922D02*
X0289D01*
Y00618*
Y00618*
Y00619*
Y00619*
Y0062*
Y00621*
Y00623*
Y00626*
X0289Y00629*
X0289Y00632*
Y00633*
X0289Y00634*
Y00635*
X02889Y00636*
Y00636*
X02889Y00636*
X02889Y00637*
X02888Y00638*
X02887Y00639*
X02887Y0064*
X02885Y0064*
X02885*
X02885Y0064*
X02884Y00641*
X02883Y00641*
X02881Y00641*
X02878Y00642*
X02875Y00642*
X02868*
Y00657*
X02869*
X02869Y00657*
X02871Y00657*
X02872Y00658*
X02874Y00658*
X02876Y00659*
X02879Y0066*
X02881Y00661*
X02884Y00662*
X02887Y00664*
X0289Y00666*
X02893Y00668*
X02896Y0067*
X02898Y00672*
X02901Y00674*
X02903Y00677*
X02922*
Y0055*
G37*
G36*
X02861D02*
X02829D01*
Y00618*
Y00618*
Y00619*
Y00619*
Y0062*
Y00621*
Y00623*
Y00626*
X02829Y00629*
X02828Y00632*
Y00633*
X02828Y00634*
Y00635*
X02828Y00636*
Y00636*
X02828Y00636*
X02827Y00637*
X02827Y00638*
X02826Y00639*
X02825Y0064*
X02824Y0064*
X02824*
X02823Y0064*
X02822Y00641*
X02821Y00641*
X02819Y00641*
X02817Y00642*
X02814Y00642*
X02807*
Y00657*
X02807*
X02808Y00657*
X02809Y00657*
X02811Y00658*
X02813Y00658*
X02815Y00659*
X02817Y0066*
X0282Y00661*
X02823Y00662*
X02826Y00664*
X02828Y00666*
X02831Y00668*
X02834Y0067*
X02837Y00672*
X0284Y00674*
X02842Y00677*
X02861*
Y0055*
G37*
G36*
X02664D02*
X02633D01*
Y00618*
Y00618*
Y00619*
Y00619*
Y0062*
Y00621*
Y00623*
Y00626*
X02632Y00629*
X02632Y00632*
Y00633*
X02632Y00634*
Y00635*
X02632Y00636*
Y00636*
X02632Y00636*
X02631Y00637*
X02631Y00638*
X0263Y00639*
X02629Y0064*
X02628Y0064*
X02628*
X02627Y0064*
X02626Y00641*
X02625Y00641*
X02623Y00641*
X02621Y00642*
X02618Y00642*
X02611*
Y00657*
X02611*
X02612Y00657*
X02613Y00657*
X02615Y00658*
X02616Y00658*
X02619Y00659*
X02621Y0066*
X02624Y00661*
X02627Y00662*
X02629Y00664*
X02632Y00666*
X02635Y00668*
X02638Y0067*
X02641Y00672*
X02643Y00674*
X02646Y00677*
X02664*
Y0055*
G37*
G36*
X02484Y00679D02*
X02486Y00679D01*
X02488Y00679*
X0249Y00679*
X02492Y00678*
X02496Y00677*
X02501Y00676*
X02504Y00674*
X02506Y00673*
X02508Y00672*
X0251Y0067*
X0251Y0067*
X0251Y0067*
X02511Y00669*
X02511Y00668*
X02512Y00668*
X02513Y00666*
X02515Y00664*
X02516Y0066*
X02518Y00656*
X02519Y00651*
X02519Y00649*
X0252Y00646*
Y00646*
Y00646*
Y00645*
Y00644*
X02519Y00643*
X02519Y00642*
X02519Y00639*
X02518Y00636*
X02517Y00632*
X02516Y00628*
X02514Y00623*
Y00623*
X02514Y00623*
X02513Y00622*
X02513Y00621*
X02512Y00619*
X02511Y00617*
X0251Y00615*
X02508Y00612*
X02506Y00609*
X02504Y00605*
X02501Y00601*
X02498Y00596*
X02495Y00591*
X02491Y00585*
X02486Y00578*
X02482Y00571*
X02517*
Y0055*
X02447*
Y00568*
X02447Y00568*
X02447Y00568*
X02447Y00569*
X02448Y0057*
X02449Y00571*
X0245Y00573*
X02451Y00574*
X02452Y00576*
X02454Y0058*
X02457Y00584*
X0246Y0059*
X02463Y00595*
X02469Y00605*
X02472Y00611*
X02475Y00616*
X02478Y0062*
X0248Y00624*
X02481Y00626*
X02482Y00628*
X02483Y00629*
X02484Y00631*
Y00631*
X02484Y00631*
X02484Y00632*
X02484Y00633*
X02485Y00634*
X02485Y00635*
X02487Y00637*
X02488Y00641*
X02489Y00644*
X02489Y00647*
X0249Y00649*
Y0065*
Y0065*
Y00651*
X02489Y00652*
X02489Y00655*
X02488Y00656*
X02488Y00657*
Y00657*
X02487Y00658*
X02486Y00659*
X02485Y0066*
X02484Y0066*
X02482Y0066*
X02482*
X02481Y0066*
X0248Y0066*
X02479Y00659*
X02478Y00659*
X02478Y00658*
X02477Y00657*
Y00657*
X02477Y00656*
X02476Y00656*
X02476Y00654*
X02476Y00653*
X02475Y00651*
X02475Y00649*
Y00646*
Y00634*
X02447*
Y00638*
Y00638*
Y00639*
Y00639*
Y0064*
Y00642*
X02447Y00644*
Y00647*
X02447Y0065*
X02447Y00653*
X02448Y00655*
Y00656*
X02448Y00656*
X02448Y00658*
X02449Y00659*
X0245Y00661*
X02451Y00663*
X02452Y00665*
X02453Y00667*
X02453Y00668*
X02454Y00668*
X02455Y00669*
X02456Y00671*
X02458Y00672*
X0246Y00674*
X02462Y00675*
X02464Y00676*
X02465Y00677*
X02466Y00677*
X02467Y00677*
X02469Y00678*
X02471Y00679*
X02474Y00679*
X02478Y00679*
X02481Y0068*
X02483*
X02484Y00679*
G37*
G36*
X0257D02*
X02572Y00679D01*
X02575Y00679*
X02578Y00678*
X02581Y00677*
X02584Y00676*
X02585*
X02585Y00676*
X02586Y00675*
X02587Y00674*
X02589Y00673*
X02591Y00672*
X02593Y0067*
X02595Y00669*
X02597Y00667*
X02597Y00667*
X02598Y00666*
X02598Y00665*
X02599Y00663*
X026Y00662*
X02601Y0066*
X02602Y00657*
X02602Y00655*
Y00655*
X02603Y00654*
X02603Y00652*
X02603Y0065*
X02604Y00647*
X02604Y00643*
Y00641*
X02604Y00639*
Y00637*
Y00634*
Y00591*
Y00591*
Y00591*
Y0059*
Y00589*
Y00588*
Y00586*
X02604Y00583*
X02604Y0058*
X02603Y00576*
X02603Y00573*
X02602Y0057*
Y0057*
X02602Y00569*
X02602Y00568*
X02601Y00566*
X026Y00564*
X02599Y00562*
X02597Y0056*
X02596Y00558*
X02596Y00558*
X02595Y00557*
X02594Y00556*
X02592Y00555*
X02591Y00553*
X02589Y00552*
X02586Y00551*
X02584Y0055*
X02583Y00549*
X02582Y00549*
X02581Y00549*
X02579Y00549*
X02577Y00548*
X02574Y00548*
X02571Y00547*
X02568Y00547*
X02566*
X02564Y00547*
X02562Y00548*
X02559Y00548*
X02555Y00548*
X02552Y00549*
X02549Y0055*
X02549Y0055*
X02548Y0055*
X02547Y00551*
X02545Y00552*
X02543Y00553*
X02541Y00554*
X02539Y00556*
X02537Y00558*
X02537Y00558*
X02536Y00559*
X02536Y0056*
X02535Y00562*
X02534Y00563*
X02533Y00565*
X02532Y00568*
X02531Y0057*
Y0057*
X02531Y00571*
X0253Y00573*
X0253Y00575*
X0253Y00577*
X02529Y00581*
X02529Y00585*
Y00589*
Y00634*
Y00634*
Y00635*
Y00635*
Y00637*
X02529Y00638*
Y0064*
X02529Y00644*
X0253Y00648*
X0253Y00652*
X02531Y00657*
X02531Y00658*
X02532Y0066*
Y0066*
X02532Y00661*
X02533Y00662*
X02533Y00663*
X02535Y00665*
X02536Y00668*
X02538Y0067*
X02541Y00672*
X02544Y00674*
X02544*
X02544Y00674*
X02545Y00675*
X02546Y00675*
X02547Y00676*
X0255Y00677*
X02553Y00678*
X02557Y00679*
X02561Y00679*
X02566Y0068*
X02568*
X0257Y00679*
G37*
G36*
X00666Y02637D02*
X00666Y02637D01*
X00666Y02636*
X00666Y02636*
X00666Y02636*
X00666Y02636*
X00666Y02635*
X00667Y02634*
X00667Y02633*
X00667Y02631*
X00667Y0263*
X00667Y0263*
X00668Y0263*
X00668Y02631*
X00668Y02631*
X00669Y02632*
X0067Y02633*
X00671Y02634*
X00672Y02635*
X00674Y02632*
X00674Y02632*
X00674Y02631*
X00674Y02631*
X00673Y02631*
X00672Y0263*
X00671Y02629*
X0067Y02629*
X00669Y02628*
X00669*
X00669Y02628*
X00669Y02628*
X00669Y02628*
X0067Y02627*
X00671Y02627*
X00672Y02626*
X00673Y02626*
X00674Y02625*
X00674Y02625*
X00672Y02622*
X00672Y02622*
X00672Y02622*
X00672Y02622*
X00672Y02622*
X00671Y02623*
X0067Y02623*
X00669Y02624*
X00669Y02625*
X00668Y02625*
X00667Y02626*
X00667Y02626*
Y02626*
X00667Y02626*
Y02626*
X00667Y02625*
X00667Y02625*
X00667Y02625*
X00667Y02624*
X00667Y02623*
X00666Y02622*
X00666Y0262*
X00662Y02621*
Y02621*
X00662Y02621*
X00662Y02621*
X00662Y02621*
X00662Y02622*
X00663Y02622*
X00663Y02623*
X00663Y02624*
X00664Y02625*
X00664Y02626*
X00665Y02627*
X00665*
X00664*
X00664Y02627*
X00664*
X00663Y02627*
X00663Y02627*
X00662Y02626*
X00661Y02626*
X0066Y02626*
X00659Y02626*
X00658*
X00658*
Y0263*
X00658*
X00658*
X00658*
X00658*
X00659Y0263*
X0066Y0263*
X00661Y0263*
X00662Y0263*
X00663Y0263*
X00665Y02629*
Y02629*
X00665Y02629*
X00664Y0263*
X00664Y0263*
X00664Y0263*
X00664Y02631*
X00663Y02632*
X00663Y02633*
X00662Y02634*
X00662Y02636*
X00666Y02637*
Y02637*
G37*
G36*
X00552Y02639D02*
X00552Y02639D01*
X00552Y02638*
X00552Y02638*
X00552Y02638*
X00552Y02637*
X00552Y02637*
X00553Y02636*
X00553Y02635*
X00553Y02633*
X00553Y02632*
X00553Y02632*
X00554Y02632*
X00554Y02633*
X00554Y02633*
X00555Y02634*
X00556Y02635*
X00557Y02636*
X00558Y02637*
X0056Y02634*
X0056Y02633*
X0056Y02633*
X00559Y02633*
X00559Y02632*
X00558Y02632*
X00557Y02631*
X00556Y02631*
X00555Y0263*
X00555*
X00555Y0263*
X00555Y0263*
X00555Y0263*
X00556Y02629*
X00557Y02629*
X00558Y02628*
X00559Y02628*
X0056Y02627*
X0056Y02627*
X00558Y02623*
X00558Y02624*
X00558Y02624*
X00558Y02624*
X00558Y02624*
X00557Y02624*
X00556Y02625*
X00555Y02626*
X00555Y02627*
X00554Y02627*
X00553Y02628*
X00553Y02628*
Y02628*
X00553Y02628*
Y02627*
X00553Y02627*
X00553Y02627*
X00553Y02627*
X00553Y02626*
X00553Y02625*
X00552Y02624*
X00552Y02621*
X00548Y02623*
Y02623*
X00548Y02623*
X00548Y02623*
X00548Y02623*
X00548Y02624*
X00549Y02624*
X00549Y02625*
X00549Y02626*
X0055Y02627*
X0055Y02628*
X00551Y02629*
X00551*
X0055*
X0055Y02629*
X0055*
X00549Y02629*
X00549Y02628*
X00548Y02628*
X00547Y02628*
X00546Y02628*
X00545Y02628*
X00544*
X00544*
Y02632*
X00544*
X00544*
X00544*
X00544*
X00545Y02632*
X00546Y02632*
X00547Y02632*
X00548Y02632*
X00549Y02631*
X00551Y02631*
Y02631*
X00551Y02631*
X0055Y02632*
X0055Y02632*
X0055Y02632*
X0055Y02633*
X00549Y02634*
X00549Y02635*
X00548Y02636*
X00548Y02637*
X00552Y02639*
Y02639*
G37*
%LNsg_can_board-2*%
%LPC*%
G36*
X02895Y00813D02*
X02893D01*
Y00785*
X02895*
X02896Y00785*
X02899Y00786*
X029Y00786*
X02901Y00787*
X02901*
X02901Y00787*
X02901Y00788*
X02902Y00789*
X02902Y0079*
X02903Y00791*
X02903Y00794*
X02903Y00797*
Y00804*
Y00804*
Y00805*
X02903Y00806*
X02903Y00807*
X02902Y00809*
X02901Y00811*
X02901Y00811*
X02901Y00812*
X029Y00812*
X029Y00812*
X02899Y00813*
X02898Y00813*
X02897Y00813*
X02895Y00813*
G37*
G36*
X02814D02*
X02812D01*
Y00781*
X02815*
X02816Y00781*
X02817Y00781*
X02819Y00782*
X0282Y00782*
X02821Y00783*
Y00783*
X02821Y00784*
X02821Y00784*
X02822Y00785*
X02822Y00787*
X02822Y00788*
X02823Y0079*
Y00793*
Y00803*
Y00803*
Y00804*
X02822Y00805*
Y00806*
X02822Y00809*
X02821Y00811*
X0282Y00811*
X0282Y00812*
X0282Y00812*
X02819Y00812*
X02819Y00813*
X02817Y00813*
X02816Y00813*
X02814Y00813*
G37*
G36*
X02545Y00807D02*
Y00807D01*
Y00807*
X02545Y00806*
Y00805*
X02545Y00803*
X02545Y00801*
X02544Y00798*
X02544Y00794*
X02543Y00791*
X02543Y00787*
X02542Y00782*
X02542Y00778*
X02541Y00769*
X0254Y00764*
X0254Y0076*
X02539Y00757*
X02539Y00753*
X0255*
Y00754*
X0255Y00754*
Y00756*
X0255Y00757*
X0255Y00759*
X02549Y00762*
X02549Y00765*
X02549Y00768*
X02549Y00772*
X02548Y00776*
X02548Y0078*
X02547Y00785*
X02547Y0079*
X02546Y00795*
X02546Y00801*
X02545Y00807*
G37*
G36*
X03147Y00816D02*
X03146D01*
X03145Y00816*
X03144Y00815*
X03143Y00815*
X03143Y00814*
Y00814*
X03143Y00814*
X03142Y00813*
X03142Y00812*
X03142Y0081*
X03142Y00808*
X03141Y00806*
Y00804*
Y00802*
Y00743*
Y00743*
Y00742*
Y00742*
Y00741*
Y00739*
X03142Y00737*
Y00735*
X03142Y00732*
X03142Y0073*
Y0073*
X03142Y00729*
Y00729*
X03142Y00729*
X03143Y00728*
X03144Y00727*
X03144Y00727*
X03145Y00727*
X03147Y00727*
X03147*
X03148Y00727*
X03149Y00727*
X0315Y00728*
X0315Y00729*
X03151Y00729*
Y0073*
X03151Y0073*
X03151Y00731*
X03151Y00732*
X03151Y00734*
X03152Y00737*
X03152Y0074*
Y00742*
Y00744*
Y00802*
Y00803*
Y00803*
Y00804*
Y00805*
X03152Y00807*
Y00809*
X03151Y00811*
X03151Y00813*
X03151Y00814*
Y00814*
X03151Y00814*
X0315Y00815*
X03149Y00816*
X03148Y00816*
X03147Y00816*
G37*
G36*
X02984D02*
X02984D01*
X02983Y00816*
X02981Y00815*
X02981Y00815*
X0298Y00814*
Y00814*
X0298Y00814*
X0298Y00813*
X0298Y00812*
X02979Y0081*
X02979Y00808*
X02979Y00806*
Y00804*
Y00802*
Y00743*
Y00743*
Y00742*
Y00742*
Y00741*
Y00739*
X02979Y00737*
Y00735*
X02979Y00732*
X02979Y0073*
Y0073*
X0298Y00729*
Y00729*
X0298Y00729*
X02981Y00728*
X02981Y00727*
X02982Y00727*
X02983Y00727*
X02984Y00727*
X02985*
X02986Y00727*
X02987Y00727*
X02987Y00728*
X02988Y00729*
X02988Y00729*
Y0073*
X02988Y0073*
X02989Y00731*
X02989Y00732*
X02989Y00734*
X02989Y00737*
X02989Y0074*
Y00742*
Y00744*
Y00802*
Y00803*
Y00803*
Y00804*
Y00805*
X02989Y00807*
Y00809*
X02989Y00811*
X02989Y00813*
X02988Y00814*
Y00814*
X02988Y00814*
X02987Y00815*
X02986Y00816*
X02985Y00816*
X02984Y00816*
G37*
G36*
X02715Y0066D02*
X02715D01*
X02714Y0066*
X02712Y00659*
X02711Y00658*
X02711Y00658*
Y00658*
X0271Y00657*
X0271Y00657*
X0271Y00656*
X02709Y00654*
X02709Y00652*
X02709Y0065*
X02709Y00647*
Y00623*
Y00623*
Y00622*
X02709Y00621*
Y00619*
X02709Y00617*
X0271Y00616*
X0271Y00614*
X02711Y00613*
X02711*
X02711Y00613*
X02712Y00612*
X02713Y00612*
X02715Y00611*
X02715*
X02716Y00612*
X02717Y00612*
X02718Y00613*
X02719Y00613*
X0272Y00614*
Y00614*
X0272Y00614*
X0272Y00615*
X02721Y00616*
X02721Y00617*
X02721Y00619*
X02721Y00621*
Y00623*
Y00646*
Y00646*
Y00647*
Y00647*
Y00649*
X02721Y00651*
X02721Y00653*
X02721Y00654*
X0272Y00656*
X0272Y00657*
Y00657*
X02719Y00658*
X02719Y00659*
X02717Y0066*
X02716Y0066*
X02715Y0066*
G37*
G36*
X03076Y00648D02*
X03062Y00594D01*
X03076*
Y00648*
G37*
G36*
X02567Y0066D02*
X02566D01*
X02566Y0066*
X02565Y0066*
X02564Y00659*
X02563Y00659*
X02563Y00658*
X02562Y00657*
Y00657*
X02562Y00657*
X02562Y00656*
X02562Y00655*
X02561Y00653*
X02561Y00651*
X02561Y00648*
Y00645*
Y00582*
Y00582*
Y00582*
Y00581*
Y00581*
Y00579*
X02561Y00577*
Y00574*
X02561Y00572*
X02562Y0057*
X02562Y0057*
X02562Y00569*
X02562Y00569*
X02563Y00568*
X02564Y00568*
X02564Y00567*
X02565Y00567*
X02566Y00567*
X02567*
X02568Y00567*
X02568Y00567*
X0257Y00568*
X0257Y00569*
X02571Y0057*
Y0057*
X02571Y0057*
X02571Y00571*
X02572Y00572*
X02572Y00574*
X02572Y00576*
X02572Y00578*
Y00582*
Y00645*
Y00645*
Y00645*
Y00645*
Y00646*
Y00648*
X02572Y0065*
Y00652*
X02572Y00654*
X02571Y00656*
X02571Y00657*
Y00657*
X02571Y00658*
X0257Y00659*
X0257Y00659*
X02569Y0066*
X02568Y0066*
X02567Y0066*
G37*
%LNsg_can_board-3*%
%LPD*%
G54D10*
X03323Y0133D02*
D01*
X03323Y0133*
X03323Y0133*
X03323Y01331*
X03323Y01331*
X03323Y01331*
X03323Y01332*
X03323Y01332*
X03323Y01332*
X03322Y01332*
X03322Y01333*
X03322Y01333*
X03322Y01333*
X03321Y01333*
X03321Y01334*
X03321Y01334*
X03321Y01334*
X0332Y01334*
X0332Y01334*
X0332Y01334*
X03319Y01334*
X03319Y01334*
X03319Y01334*
X03318*
X03318Y01334*
X03318Y01334*
X03317Y01334*
X03317Y01334*
X03317Y01334*
X03316Y01334*
X03316Y01334*
X03316Y01334*
X03315Y01333*
X03315Y01333*
X03315Y01333*
X03315Y01333*
X03314Y01332*
X03314Y01332*
X03314Y01332*
X03314Y01332*
X03314Y01331*
X03314Y01331*
X03314Y01331*
X03314Y0133*
X03313Y0133*
X03313Y0133*
X03313Y01329*
X03314Y01329*
X03314Y01328*
X03314Y01328*
X03314Y01328*
X03314Y01327*
X03314Y01327*
X03314Y01327*
X03314Y01327*
X03315Y01326*
X03315Y01326*
X03315Y01326*
X03315Y01326*
X03316Y01325*
X03316Y01325*
X03316Y01325*
X03317Y01325*
X03317Y01325*
X03317Y01325*
X03318Y01325*
X03318Y01325*
X03318Y01325*
X03319*
X03319Y01325*
X03319Y01325*
X0332Y01325*
X0332Y01325*
X0332Y01325*
X03321Y01325*
X03321Y01325*
X03321Y01325*
X03321Y01326*
X03322Y01326*
X03322Y01326*
X03322Y01326*
X03322Y01327*
X03323Y01327*
X03323Y01327*
X03323Y01327*
X03323Y01328*
X03323Y01328*
X03323Y01328*
X03323Y01329*
X03323Y01329*
X03323Y0133*
X02817Y01626D02*
D01*
X02817Y01627*
X02817Y01627*
X02817Y01627*
X02816Y01628*
X02816Y01628*
X02816Y01628*
X02816Y01629*
X02816Y01629*
X02816Y01629*
X02815Y0163*
X02815Y0163*
X02815Y0163*
X02815Y0163*
X02814Y0163*
X02814Y01631*
X02814Y01631*
X02814Y01631*
X02813Y01631*
X02813Y01631*
X02813Y01631*
X02812Y01631*
X02812Y01631*
X02812*
X02811Y01631*
X02811Y01631*
X02811Y01631*
X0281Y01631*
X0281Y01631*
X0281Y01631*
X02809Y01631*
X02809Y0163*
X02809Y0163*
X02808Y0163*
X02808Y0163*
X02808Y0163*
X02808Y01629*
X02808Y01629*
X02807Y01629*
X02807Y01628*
X02807Y01628*
X02807Y01628*
X02807Y01627*
X02807Y01627*
X02807Y01627*
X02807Y01626*
X02807Y01626*
X02807Y01626*
X02807Y01625*
X02807Y01625*
X02807Y01625*
X02807Y01624*
X02807Y01624*
X02808Y01624*
X02808Y01623*
X02808Y01623*
X02808Y01623*
X02808Y01623*
X02809Y01622*
X02809Y01622*
X02809Y01622*
X0281Y01622*
X0281Y01622*
X0281Y01622*
X02811Y01622*
X02811Y01622*
X02811Y01621*
X02812Y01621*
X02812*
X02812Y01621*
X02813Y01622*
X02813Y01622*
X02813Y01622*
X02814Y01622*
X02814Y01622*
X02814Y01622*
X02814Y01622*
X02815Y01622*
X02815Y01623*
X02815Y01623*
X02815Y01623*
X02816Y01623*
X02816Y01624*
X02816Y01624*
X02816Y01624*
X02816Y01625*
X02816Y01625*
X02817Y01625*
X02817Y01626*
X02817Y01626*
X02817Y01626*
X01503Y01704D02*
D01*
X01502Y01705*
X01502Y01705*
X01502Y01705*
X01502Y01706*
X01502Y01706*
X01502Y01706*
X01502Y01707*
X01502Y01707*
X01502Y01707*
X01501Y01708*
X01501Y01708*
X01501Y01708*
X01501Y01708*
X015Y01708*
X015Y01709*
X015Y01709*
X01499Y01709*
X01499Y01709*
X01499Y01709*
X01498Y01709*
X01498Y01709*
X01498Y01709*
X01497*
X01497Y01709*
X01497Y01709*
X01496Y01709*
X01496Y01709*
X01496Y01709*
X01495Y01709*
X01495Y01709*
X01495Y01708*
X01495Y01708*
X01494Y01708*
X01494Y01708*
X01494Y01708*
X01494Y01707*
X01493Y01707*
X01493Y01707*
X01493Y01706*
X01493Y01706*
X01493Y01706*
X01493Y01705*
X01493Y01705*
X01493Y01705*
X01493Y01704*
X01493Y01704*
X01493Y01704*
X01493Y01703*
X01493Y01703*
X01493Y01703*
X01493Y01702*
X01493Y01702*
X01493Y01702*
X01494Y01701*
X01494Y01701*
X01494Y01701*
X01494Y01701*
X01495Y01701*
X01495Y017*
X01495Y017*
X01495Y017*
X01496Y017*
X01496Y017*
X01496Y017*
X01497Y017*
X01497Y01699*
X01497Y01699*
X01498*
X01498Y01699*
X01498Y017*
X01499Y017*
X01499Y017*
X01499Y017*
X015Y017*
X015Y017*
X015Y017*
X01501Y01701*
X01501Y01701*
X01501Y01701*
X01501Y01701*
X01502Y01701*
X01502Y01702*
X01502Y01702*
X01502Y01702*
X01502Y01703*
X01502Y01703*
X01502Y01703*
X01502Y01704*
X01502Y01704*
X01503Y01704*
X01508Y01489D02*
D01*
X01507Y0149*
X01507Y0149*
X01507Y0149*
X01507Y01491*
X01507Y01491*
X01507Y01491*
X01507Y01492*
X01507Y01492*
X01507Y01492*
X01506Y01493*
X01506Y01493*
X01506Y01493*
X01506Y01493*
X01505Y01493*
X01505Y01494*
X01505Y01494*
X01504Y01494*
X01504Y01494*
X01504Y01494*
X01503Y01494*
X01503Y01494*
X01503Y01494*
X01502*
X01502Y01494*
X01502Y01494*
X01501Y01494*
X01501Y01494*
X01501Y01494*
X015Y01494*
X015Y01494*
X015Y01493*
X015Y01493*
X01499Y01493*
X01499Y01493*
X01499Y01493*
X01499Y01492*
X01498Y01492*
X01498Y01492*
X01498Y01491*
X01498Y01491*
X01498Y01491*
X01498Y0149*
X01498Y0149*
X01498Y0149*
X01498Y01489*
X01498Y01489*
X01498Y01489*
X01498Y01488*
X01498Y01488*
X01498Y01488*
X01498Y01487*
X01498Y01487*
X01498Y01487*
X01499Y01486*
X01499Y01486*
X01499Y01486*
X01499Y01486*
X015Y01486*
X015Y01485*
X015Y01485*
X015Y01485*
X01501Y01485*
X01501Y01485*
X01501Y01485*
X01502Y01485*
X01502Y01484*
X01502Y01484*
X01503*
X01503Y01484*
X01503Y01485*
X01504Y01485*
X01504Y01485*
X01504Y01485*
X01505Y01485*
X01505Y01485*
X01505Y01485*
X01506Y01486*
X01506Y01486*
X01506Y01486*
X01506Y01486*
X01507Y01486*
X01507Y01487*
X01507Y01487*
X01507Y01487*
X01507Y01488*
X01507Y01488*
X01507Y01488*
X01507Y01489*
X01507Y01489*
X01508Y01489*
X01503Y01279D02*
D01*
X01502Y0128*
X01502Y0128*
X01502Y0128*
X01502Y01281*
X01502Y01281*
X01502Y01281*
X01502Y01282*
X01502Y01282*
X01502Y01282*
X01501Y01283*
X01501Y01283*
X01501Y01283*
X01501Y01283*
X015Y01283*
X015Y01284*
X015Y01284*
X01499Y01284*
X01499Y01284*
X01499Y01284*
X01498Y01284*
X01498Y01284*
X01498Y01284*
X01497*
X01497Y01284*
X01497Y01284*
X01496Y01284*
X01496Y01284*
X01496Y01284*
X01495Y01284*
X01495Y01284*
X01495Y01283*
X01495Y01283*
X01494Y01283*
X01494Y01283*
X01494Y01283*
X01494Y01282*
X01493Y01282*
X01493Y01282*
X01493Y01281*
X01493Y01281*
X01493Y01281*
X01493Y0128*
X01493Y0128*
X01493Y0128*
X01493Y01279*
X01493Y01279*
X01493Y01279*
X01493Y01278*
X01493Y01278*
X01493Y01278*
X01493Y01277*
X01493Y01277*
X01493Y01277*
X01494Y01276*
X01494Y01276*
X01494Y01276*
X01494Y01276*
X01495Y01276*
X01495Y01275*
X01495Y01275*
X01495Y01275*
X01496Y01275*
X01496Y01275*
X01496Y01275*
X01497Y01275*
X01497Y01274*
X01497Y01274*
X01498*
X01498Y01274*
X01498Y01275*
X01499Y01275*
X01499Y01275*
X01499Y01275*
X015Y01275*
X015Y01275*
X015Y01275*
X01501Y01276*
X01501Y01276*
X01501Y01276*
X01501Y01276*
X01502Y01276*
X01502Y01277*
X01502Y01277*
X01502Y01277*
X01502Y01278*
X01502Y01278*
X01502Y01278*
X01502Y01279*
X01502Y01279*
X01503Y01279*
Y01064D02*
D01*
X01502Y01065*
X01502Y01065*
X01502Y01065*
X01502Y01066*
X01502Y01066*
X01502Y01066*
X01502Y01067*
X01502Y01067*
X01502Y01067*
X01501Y01068*
X01501Y01068*
X01501Y01068*
X01501Y01068*
X015Y01068*
X015Y01069*
X015Y01069*
X01499Y01069*
X01499Y01069*
X01499Y01069*
X01498Y01069*
X01498Y01069*
X01498Y01069*
X01497*
X01497Y01069*
X01497Y01069*
X01496Y01069*
X01496Y01069*
X01496Y01069*
X01495Y01069*
X01495Y01069*
X01495Y01068*
X01495Y01068*
X01494Y01068*
X01494Y01068*
X01494Y01068*
X01494Y01067*
X01493Y01067*
X01493Y01067*
X01493Y01066*
X01493Y01066*
X01493Y01066*
X01493Y01065*
X01493Y01065*
X01493Y01065*
X01493Y01064*
X01493Y01064*
X01493Y01064*
X01493Y01063*
X01493Y01063*
X01493Y01063*
X01493Y01062*
X01493Y01062*
X01493Y01062*
X01494Y01061*
X01494Y01061*
X01494Y01061*
X01494Y01061*
X01495Y01061*
X01495Y0106*
X01495Y0106*
X01495Y0106*
X01496Y0106*
X01496Y0106*
X01496Y0106*
X01497Y0106*
X01497Y01059*
X01497Y01059*
X01498*
X01498Y01059*
X01498Y0106*
X01499Y0106*
X01499Y0106*
X01499Y0106*
X015Y0106*
X015Y0106*
X015Y0106*
X01501Y01061*
X01501Y01061*
X01501Y01061*
X01501Y01061*
X01502Y01061*
X01502Y01062*
X01502Y01062*
X01502Y01062*
X01502Y01063*
X01502Y01063*
X01502Y01063*
X01502Y01064*
X01502Y01064*
X01503Y01064*
Y00859D02*
D01*
X01502Y0086*
X01502Y0086*
X01502Y0086*
X01502Y00861*
X01502Y00861*
X01502Y00861*
X01502Y00862*
X01502Y00862*
X01502Y00862*
X01501Y00863*
X01501Y00863*
X01501Y00863*
X01501Y00863*
X015Y00863*
X015Y00864*
X015Y00864*
X01499Y00864*
X01499Y00864*
X01499Y00864*
X01498Y00864*
X01498Y00864*
X01498Y00864*
X01497*
X01497Y00864*
X01497Y00864*
X01496Y00864*
X01496Y00864*
X01496Y00864*
X01495Y00864*
X01495Y00864*
X01495Y00863*
X01495Y00863*
X01494Y00863*
X01494Y00863*
X01494Y00863*
X01494Y00862*
X01493Y00862*
X01493Y00862*
X01493Y00861*
X01493Y00861*
X01493Y00861*
X01493Y0086*
X01493Y0086*
X01493Y0086*
X01493Y00859*
X01493Y00859*
X01493Y00859*
X01493Y00858*
X01493Y00858*
X01493Y00858*
X01493Y00857*
X01493Y00857*
X01493Y00857*
X01494Y00856*
X01494Y00856*
X01494Y00856*
X01494Y00856*
X01495Y00856*
X01495Y00855*
X01495Y00855*
X01495Y00855*
X01496Y00855*
X01496Y00855*
X01496Y00855*
X01497Y00855*
X01497Y00854*
X01497Y00854*
X01498*
X01498Y00854*
X01498Y00855*
X01499Y00855*
X01499Y00855*
X01499Y00855*
X015Y00855*
X015Y00855*
X015Y00855*
X01501Y00856*
X01501Y00856*
X01501Y00856*
X01501Y00856*
X01502Y00856*
X01502Y00857*
X01502Y00857*
X01502Y00857*
X01502Y00858*
X01502Y00858*
X01502Y00858*
X01502Y00859*
X01502Y00859*
X01503Y00859*
Y00654D02*
D01*
X01502Y00655*
X01502Y00655*
X01502Y00655*
X01502Y00656*
X01502Y00656*
X01502Y00656*
X01502Y00657*
X01502Y00657*
X01502Y00657*
X01501Y00658*
X01501Y00658*
X01501Y00658*
X01501Y00658*
X015Y00658*
X015Y00659*
X015Y00659*
X01499Y00659*
X01499Y00659*
X01499Y00659*
X01498Y00659*
X01498Y00659*
X01498Y00659*
X01497*
X01497Y00659*
X01497Y00659*
X01496Y00659*
X01496Y00659*
X01496Y00659*
X01495Y00659*
X01495Y00659*
X01495Y00658*
X01495Y00658*
X01494Y00658*
X01494Y00658*
X01494Y00658*
X01494Y00657*
X01493Y00657*
X01493Y00657*
X01493Y00656*
X01493Y00656*
X01493Y00656*
X01493Y00655*
X01493Y00655*
X01493Y00655*
X01493Y00654*
X01493Y00654*
X01493Y00654*
X01493Y00653*
X01493Y00653*
X01493Y00653*
X01493Y00652*
X01493Y00652*
X01493Y00652*
X01494Y00651*
X01494Y00651*
X01494Y00651*
X01494Y00651*
X01495Y00651*
X01495Y0065*
X01495Y0065*
X01495Y0065*
X01496Y0065*
X01496Y0065*
X01496Y0065*
X01497Y0065*
X01497Y00649*
X01497Y00649*
X01498*
X01498Y00649*
X01498Y0065*
X01499Y0065*
X01499Y0065*
X01499Y0065*
X015Y0065*
X015Y0065*
X015Y0065*
X01501Y00651*
X01501Y00651*
X01501Y00651*
X01501Y00651*
X01502Y00651*
X01502Y00652*
X01502Y00652*
X01502Y00652*
X01502Y00653*
X01502Y00653*
X01502Y00653*
X01502Y00654*
X01502Y00654*
X01503Y00654*
Y00449D02*
D01*
X01502Y0045*
X01502Y0045*
X01502Y0045*
X01502Y00451*
X01502Y00451*
X01502Y00451*
X01502Y00452*
X01502Y00452*
X01502Y00452*
X01501Y00453*
X01501Y00453*
X01501Y00453*
X01501Y00453*
X015Y00453*
X015Y00454*
X015Y00454*
X01499Y00454*
X01499Y00454*
X01499Y00454*
X01498Y00454*
X01498Y00454*
X01498Y00454*
X01497*
X01497Y00454*
X01497Y00454*
X01496Y00454*
X01496Y00454*
X01496Y00454*
X01495Y00454*
X01495Y00454*
X01495Y00453*
X01495Y00453*
X01494Y00453*
X01494Y00453*
X01494Y00453*
X01494Y00452*
X01493Y00452*
X01493Y00452*
X01493Y00451*
X01493Y00451*
X01493Y00451*
X01493Y0045*
X01493Y0045*
X01493Y0045*
X01493Y00449*
X01493Y00449*
X01493Y00449*
X01493Y00448*
X01493Y00448*
X01493Y00448*
X01493Y00447*
X01493Y00447*
X01493Y00447*
X01494Y00446*
X01494Y00446*
X01494Y00446*
X01494Y00446*
X01495Y00446*
X01495Y00445*
X01495Y00445*
X01495Y00445*
X01496Y00445*
X01496Y00445*
X01496Y00445*
X01497Y00445*
X01497Y00444*
X01497Y00444*
X01498*
X01498Y00444*
X01498Y00445*
X01499Y00445*
X01499Y00445*
X01499Y00445*
X015Y00445*
X015Y00445*
X015Y00445*
X01501Y00446*
X01501Y00446*
X01501Y00446*
X01501Y00446*
X01502Y00446*
X01502Y00447*
X01502Y00447*
X01502Y00447*
X01502Y00448*
X01502Y00448*
X01502Y00448*
X01502Y00449*
X01502Y00449*
X01503Y00449*
Y00239D02*
D01*
X01502Y0024*
X01502Y0024*
X01502Y0024*
X01502Y00241*
X01502Y00241*
X01502Y00241*
X01502Y00242*
X01502Y00242*
X01502Y00242*
X01501Y00243*
X01501Y00243*
X01501Y00243*
X01501Y00243*
X015Y00243*
X015Y00244*
X015Y00244*
X01499Y00244*
X01499Y00244*
X01499Y00244*
X01498Y00244*
X01498Y00244*
X01498Y00244*
X01497*
X01497Y00244*
X01497Y00244*
X01496Y00244*
X01496Y00244*
X01496Y00244*
X01495Y00244*
X01495Y00244*
X01495Y00243*
X01495Y00243*
X01494Y00243*
X01494Y00243*
X01494Y00243*
X01494Y00242*
X01493Y00242*
X01493Y00242*
X01493Y00241*
X01493Y00241*
X01493Y00241*
X01493Y0024*
X01493Y0024*
X01493Y0024*
X01493Y00239*
X01493Y00239*
X01493Y00239*
X01493Y00238*
X01493Y00238*
X01493Y00238*
X01493Y00237*
X01493Y00237*
X01493Y00237*
X01494Y00236*
X01494Y00236*
X01494Y00236*
X01494Y00236*
X01495Y00236*
X01495Y00235*
X01495Y00235*
X01495Y00235*
X01496Y00235*
X01496Y00235*
X01496Y00235*
X01497Y00235*
X01497Y00234*
X01497Y00234*
X01498*
X01498Y00234*
X01498Y00235*
X01499Y00235*
X01499Y00235*
X01499Y00235*
X015Y00235*
X015Y00235*
X015Y00235*
X01501Y00236*
X01501Y00236*
X01501Y00236*
X01501Y00236*
X01502Y00236*
X01502Y00237*
X01502Y00237*
X01502Y00237*
X01502Y00238*
X01502Y00238*
X01502Y00238*
X01502Y00239*
X01502Y00239*
X01503Y00239*
X01497Y01894D02*
D01*
X01497Y01894*
X01497Y01895*
X01497Y01895*
X01497Y01895*
X01497Y01896*
X01497Y01896*
X01497Y01896*
X01497Y01896*
X01496Y01897*
X01496Y01897*
X01496Y01897*
X01496Y01898*
X01496Y01898*
X01495Y01898*
X01495Y01898*
X01495Y01898*
X01494Y01898*
X01494Y01899*
X01494Y01899*
X01493Y01899*
X01493Y01899*
X01493Y01899*
X01492*
X01492Y01899*
X01492Y01899*
X01491Y01899*
X01491Y01899*
X01491Y01898*
X0149Y01898*
X0149Y01898*
X0149Y01898*
X01489Y01898*
X01489Y01898*
X01489Y01897*
X01489Y01897*
X01489Y01897*
X01488Y01896*
X01488Y01896*
X01488Y01896*
X01488Y01896*
X01488Y01895*
X01488Y01895*
X01488Y01895*
X01488Y01894*
X01488Y01894*
X01488Y01894*
X01488Y01893*
X01488Y01893*
X01488Y01893*
X01488Y01892*
X01488Y01892*
X01488Y01892*
X01488Y01891*
X01489Y01891*
X01489Y01891*
X01489Y0189*
X01489Y0189*
X01489Y0189*
X0149Y0189*
X0149Y0189*
X0149Y01889*
X01491Y01889*
X01491Y01889*
X01491Y01889*
X01492Y01889*
X01492Y01889*
X01492Y01889*
X01493*
X01493Y01889*
X01493Y01889*
X01494Y01889*
X01494Y01889*
X01494Y01889*
X01495Y01889*
X01495Y0189*
X01495Y0189*
X01496Y0189*
X01496Y0189*
X01496Y0189*
X01496Y01891*
X01496Y01891*
X01497Y01891*
X01497Y01892*
X01497Y01892*
X01497Y01892*
X01497Y01893*
X01497Y01893*
X01497Y01893*
X01497Y01894*
X01497Y01894*
X015Y02222D02*
D01*
X015Y02223*
X015Y02223*
X015Y02223*
X015Y02224*
X015Y02224*
X01499Y02224*
X01499Y02225*
X01499Y02225*
X01499Y02225*
X01499Y02226*
X01499Y02226*
X01498Y02226*
X01498Y02226*
X01498Y02227*
X01497Y02227*
X01497Y02227*
X01497Y02227*
X01496Y02227*
X01496Y02227*
X01496Y02227*
X01495Y02227*
X01495Y02227*
X01495*
X01494Y02227*
X01494Y02227*
X01494Y02227*
X01493Y02227*
X01493Y02227*
X01493Y02227*
X01493Y02227*
X01492Y02227*
X01492Y02226*
X01492Y02226*
X01491Y02226*
X01491Y02226*
X01491Y02225*
X01491Y02225*
X01491Y02225*
X0149Y02224*
X0149Y02224*
X0149Y02224*
X0149Y02223*
X0149Y02223*
X0149Y02223*
X0149Y02222*
X0149Y02222*
X0149Y02222*
X0149Y02221*
X0149Y02221*
X0149Y02221*
X0149Y0222*
X01491Y0222*
X01491Y0222*
X01491Y0222*
X01491Y02219*
X01491Y02219*
X01492Y02219*
X01492Y02219*
X01492Y02218*
X01493Y02218*
X01493Y02218*
X01493Y02218*
X01493Y02218*
X01494Y02218*
X01494Y02218*
X01494Y02218*
X01495Y02218*
X01495*
X01495Y02218*
X01496Y02218*
X01496Y02218*
X01496Y02218*
X01497Y02218*
X01497Y02218*
X01497Y02218*
X01498Y02218*
X01498Y02219*
X01498Y02219*
X01499Y02219*
X01499Y02219*
X01499Y0222*
X01499Y0222*
X01499Y0222*
X01499Y0222*
X015Y02221*
X015Y02221*
X015Y02221*
X015Y02222*
X015Y02222*
X015Y02222*
G54D11*
X02793Y01545D02*
D01*
X02793Y01545*
X02793Y01546*
X02793Y01547*
X02793Y01548*
X02792Y01549*
X02792Y01549*
X02792Y0155*
X02791Y01551*
X02791Y01552*
X0279Y01552*
X0279Y01553*
X02789Y01553*
X02788Y01554*
X02788Y01554*
X02787Y01555*
X02786Y01555*
X02786Y01556*
X02785Y01556*
X02784Y01556*
X02783Y01556*
X02782Y01556*
X02782Y01556*
X02781*
X0278Y01556*
X02779Y01556*
X02778Y01556*
X02778Y01556*
X02777Y01556*
X02776Y01555*
X02775Y01555*
X02775Y01554*
X02774Y01554*
X02773Y01553*
X02773Y01553*
X02772Y01552*
X02772Y01552*
X02771Y01551*
X02771Y0155*
X0277Y01549*
X0277Y01549*
X0277Y01548*
X0277Y01547*
X0277Y01546*
X02769Y01545*
X02769Y01545*
X02769Y01544*
X0277Y01543*
X0277Y01542*
X0277Y01541*
X0277Y01541*
X0277Y0154*
X02771Y01539*
X02771Y01538*
X02772Y01538*
X02772Y01537*
X02773Y01536*
X02773Y01536*
X02774Y01535*
X02775Y01535*
X02775Y01534*
X02776Y01534*
X02777Y01534*
X02778Y01533*
X02778Y01533*
X02779Y01533*
X0278Y01533*
X02781Y01533*
X02782*
X02782Y01533*
X02783Y01533*
X02784Y01533*
X02785Y01533*
X02786Y01534*
X02786Y01534*
X02787Y01534*
X02788Y01535*
X02788Y01535*
X02789Y01536*
X0279Y01536*
X0279Y01537*
X02791Y01538*
X02791Y01538*
X02792Y01539*
X02792Y0154*
X02792Y01541*
X02793Y01541*
X02793Y01542*
X02793Y01543*
X02793Y01544*
X02793Y01545*
G54D12*
X00804Y00507D02*
Y02297D01*
X0Y00507D02*
X00804D01*
X0D02*
Y02297D01*
X00804*
G54D13*
X02437Y01732D02*
Y01744D01*
Y01732D02*
X02547D01*
Y01744*
Y01776D02*
Y01787D01*
X02437D02*
X02547D01*
X02437Y01776D02*
Y01787D01*
X02492Y01732D02*
Y01787D01*
X03347Y01406D02*
X03358D01*
X03347Y01296D02*
Y01406D01*
Y01296D02*
X03358D01*
X0339D02*
X03402D01*
Y01406*
X0339D02*
X03402D01*
X03347Y01351D02*
X03402D01*
X03116Y01604D02*
X03124D01*
Y01704*
X03116D02*
X03124D01*
X03068D02*
X03076D01*
X03068Y01604D02*
Y01704D01*
Y01604D02*
X03076D01*
X03068Y01654D02*
X03124D01*
X02971Y01604D02*
X02979D01*
Y01704*
X02971D02*
X02979D01*
X02923D02*
X02931D01*
X02923Y01604D02*
Y01704D01*
Y01604D02*
X02931D01*
X02923Y01654D02*
X02979D01*
X0127Y0183D02*
Y01885D01*
X0122Y01877D02*
Y01885D01*
X0132*
Y01877D02*
Y01885D01*
Y0183D02*
Y01837D01*
X0122Y0183D02*
X0132D01*
X0122D02*
Y01837D01*
X0152Y01908D02*
Y0192D01*
Y01908D02*
X01631D01*
Y0192*
Y01951D02*
Y01963D01*
X0152D02*
X01631D01*
X0152Y01951D02*
Y01963D01*
X01575Y01908D02*
Y01963D01*
X01396Y01775D02*
X01408D01*
Y01886*
X01396D02*
X01408D01*
X01353D02*
X01365D01*
X01353Y01775D02*
Y01886D01*
Y01775D02*
X01365D01*
X01353Y01831D02*
X01408D01*
X01754Y01947D02*
Y01959D01*
Y01947D02*
X01865D01*
Y01959*
Y0199D02*
Y02002D01*
X01754D02*
X01865D01*
X01754Y0199D02*
Y02002D01*
X0181Y01947D02*
Y02002D01*
X01625Y02031D02*
Y02038D01*
X01525D02*
X01625D01*
X01525Y02031D02*
Y02038D01*
Y01983D02*
Y01991D01*
Y01983D02*
X01625D01*
Y01991*
X01575Y01983D02*
Y02038D01*
X01497Y01932D02*
X01504D01*
Y02032*
X01497D02*
X01504D01*
X01449D02*
X01457D01*
X01449Y01932D02*
Y02032D01*
Y01932D02*
X01457D01*
X01449Y01982D02*
X01504D01*
X01757Y02276D02*
Y02287D01*
Y02276D02*
X01867D01*
Y02287*
Y02319D02*
Y02331D01*
X01757D02*
X01867D01*
X01757Y02319D02*
Y02331D01*
X01812Y02276D02*
Y02331D01*
X01628Y02359D02*
Y02367D01*
X01528D02*
X01628D01*
X01528Y02359D02*
Y02367D01*
Y02312D02*
Y02319D01*
Y02312D02*
X01628D01*
Y02319*
X01578Y02312D02*
Y02367D01*
X01523Y02237D02*
Y02248D01*
Y02237D02*
X01633D01*
Y02248*
Y0228D02*
Y02292D01*
X01523D02*
X01633D01*
X01523Y0228D02*
Y02292D01*
X01578Y02237D02*
Y02292D01*
X01499Y0226D02*
X01507D01*
Y0236*
X01499D02*
X01507D01*
X01452D02*
X01459D01*
X01452Y0226D02*
Y0236D01*
Y0226D02*
X01459D01*
X01452Y0231D02*
X01507D01*
X01399Y02104D02*
X0141D01*
Y02214*
X01399D02*
X0141D01*
X01355D02*
X01367D01*
X01355Y02104D02*
Y02214D01*
Y02104D02*
X01367D01*
X01355Y02159D02*
X0141D01*
X01223Y02158D02*
Y02166D01*
Y02158D02*
X01323D01*
Y02166*
Y02206D02*
Y02213D01*
X01223D02*
X01323D01*
X01223Y02206D02*
Y02213D01*
X01273Y02158D02*
Y02213D01*
G54D14*
X00682Y02478D02*
Y0264D01*
X00752*
Y02478D02*
Y0264D01*
X00682Y02478D02*
X00752D01*
X02452Y01584D02*
X02821D01*
X02452Y01216D02*
X02821D01*
Y01584*
X02452Y01216D02*
Y01584D01*
X01535Y01575D02*
X01626D01*
X01535Y01697D02*
X01626D01*
Y01575D02*
Y01697D01*
X01535Y01575D02*
Y01697D01*
X0154Y0136D02*
X01631D01*
X0154Y01482D02*
X01631D01*
Y0136D02*
Y01482D01*
X0154Y0136D02*
Y01482D01*
X01535Y0115D02*
X01626D01*
X01535Y01272D02*
X01626D01*
Y0115D02*
Y01272D01*
X01535Y0115D02*
Y01272D01*
Y00935D02*
X01626D01*
X01535Y01057D02*
X01626D01*
Y00935D02*
Y01057D01*
X01535Y00935D02*
Y01057D01*
Y0073D02*
X01626D01*
X01535Y00852D02*
X01626D01*
Y0073D02*
Y00852D01*
X01535Y0073D02*
Y00852D01*
Y00525D02*
X01626D01*
X01535Y00647D02*
X01626D01*
Y00525D02*
Y00647D01*
X01535Y00525D02*
Y00647D01*
Y0032D02*
X01626D01*
X01535Y00442D02*
X01626D01*
Y0032D02*
Y00442D01*
X01535Y0032D02*
Y00442D01*
Y0011D02*
Y00232D01*
X01626Y0011D02*
Y00232D01*
X01535D02*
X01626D01*
X01535Y0011D02*
X01626D01*
X00568Y0248D02*
Y02641D01*
X00638*
Y0248D02*
Y02641D01*
X00568Y0248D02*
X00638D01*
X0153Y01765D02*
X01621D01*
X0153Y01887D02*
X01621D01*
Y01765D02*
Y01887D01*
X0153Y01765D02*
Y01887D01*
X01533Y02093D02*
X01623D01*
X01533Y02215D02*
X01623D01*
Y02093D02*
Y02215D01*
X01533Y02093D02*
Y02215D01*
M02*