%TF.GenerationSoftware,Altium Limited,Altium Designer,19.0.10 (269)*%
G04 Layer_Color=255*
%FSLAX26Y26*%
%MOIN*%
%TF.FileFunction,Pads,Top*%
%TF.Part,Single*%
G01*
G75*
%TA.AperFunction,SMDPad,CuDef*%
%ADD10R,0.011811X0.053150*%
%ADD11R,0.053150X0.011811*%
%ADD12R,0.039370X0.035433*%
%ADD13R,0.053150X0.057087*%
%ADD14R,0.045276X0.053150*%
%ADD15R,0.051181X0.043307*%
%ADD16R,0.102362X0.088583*%
%ADD17R,0.214567X0.137795*%
%ADD18R,0.027559X0.045276*%
%ADD19R,0.185039X0.181102*%
%ADD20R,0.043307X0.051181*%
%ADD21R,0.035433X0.039370*%
%TA.AperFunction,ConnectorPad*%
%ADD22R,0.015748X0.053150*%
%ADD23R,0.062992X0.055118*%
%ADD24R,0.057087X0.051181*%
%TA.AperFunction,SMDPad,CuDef*%
%ADD25R,0.074803X0.074803*%
%ADD26R,0.033465X0.037402*%
%ADD27R,0.037402X0.033465*%
%ADD28R,0.029921X0.094488*%
%ADD29R,0.074803X0.023622*%
%ADD30R,0.053150X0.045276*%
%ADD31O,0.023622X0.057087*%
%ADD32R,0.055118X0.051181*%
%ADD33R,0.042126X0.053937*%
%ADD34O,0.057087X0.023622*%
%ADD42R,0.045276X0.080709*%
%TA.AperFunction,ComponentPad*%
%ADD43C,0.066929*%
%TA.AperFunction,SMDPad,CuDef*%
%ADD44R,0.080709X0.045276*%
%TA.AperFunction,ViaPad*%
%ADD45C,0.250000*%
%TA.AperFunction,ComponentPad*%
%ADD46C,0.129921*%
%ADD47C,0.086614*%
%ADD48C,0.055118*%
%ADD49C,0.011811*%
%TA.AperFunction,SMDPad,CuDef*%
%ADD50R,0.393701X0.354331*%
D10*
X2925984Y3789016D02*
D03*
X2945669D02*
D03*
X2965354D02*
D03*
X2985039D02*
D03*
X3004724D02*
D03*
X3024410D02*
D03*
X3044095D02*
D03*
X3063780D02*
D03*
X3083465D02*
D03*
X3103150D02*
D03*
X3122835D02*
D03*
X3142520D02*
D03*
X3162205D02*
D03*
X3181890D02*
D03*
X3201575D02*
D03*
X3221260D02*
D03*
Y3336260D02*
D03*
X3201575D02*
D03*
X3181890D02*
D03*
X3162205D02*
D03*
X3142520D02*
D03*
X3122835D02*
D03*
X3103150D02*
D03*
X3083465D02*
D03*
X3063780D02*
D03*
X3044095D02*
D03*
X3024410D02*
D03*
X3004724D02*
D03*
X2985039D02*
D03*
X2965354D02*
D03*
X2945669D02*
D03*
X2925984D02*
D03*
D11*
X3300000Y3710276D02*
D03*
Y3690590D02*
D03*
Y3670905D02*
D03*
Y3651220D02*
D03*
Y3631535D02*
D03*
Y3611850D02*
D03*
Y3592165D02*
D03*
Y3572480D02*
D03*
Y3552795D02*
D03*
Y3533110D02*
D03*
Y3513425D02*
D03*
Y3493740D02*
D03*
Y3474055D02*
D03*
Y3454370D02*
D03*
Y3434685D02*
D03*
Y3415000D02*
D03*
X2847244D02*
D03*
Y3434685D02*
D03*
Y3454370D02*
D03*
Y3474055D02*
D03*
Y3493740D02*
D03*
Y3513425D02*
D03*
Y3533110D02*
D03*
Y3552795D02*
D03*
Y3572480D02*
D03*
Y3592165D02*
D03*
Y3611850D02*
D03*
Y3631535D02*
D03*
Y3651220D02*
D03*
Y3670905D02*
D03*
Y3690590D02*
D03*
Y3710276D02*
D03*
D12*
X4176000Y939150D02*
D03*
Y886000D02*
D03*
X3757362Y3990410D02*
D03*
Y4043559D02*
D03*
X3607362Y3990410D02*
D03*
Y4043559D02*
D03*
X3942425Y3552425D02*
D03*
Y3605575D02*
D03*
X4471000Y1062034D02*
D03*
Y1008884D02*
D03*
D13*
X4312929Y898598D02*
D03*
X4429071D02*
D03*
X2126071Y4018449D02*
D03*
X2009929D02*
D03*
D14*
X4237449Y1365356D02*
D03*
X4168551D02*
D03*
X4360628Y3453000D02*
D03*
X4291730D02*
D03*
X4496449Y3653000D02*
D03*
X4427551D02*
D03*
X4061976Y3630468D02*
D03*
X4130874D02*
D03*
X4118976Y3830000D02*
D03*
X4187874D02*
D03*
D15*
X4493000Y1214724D02*
D03*
Y1305276D02*
D03*
D16*
X2739912Y1449118D02*
D03*
Y1588882D02*
D03*
X3107334Y1449118D02*
D03*
Y1588882D02*
D03*
X3474755D02*
D03*
Y1449118D02*
D03*
X2057000Y1794561D02*
D03*
Y1654797D02*
D03*
X1559523Y1795861D02*
D03*
Y1656097D02*
D03*
X1560000Y2269439D02*
D03*
Y2409203D02*
D03*
X2061437Y2269439D02*
D03*
Y2409203D02*
D03*
X3733386Y2595988D02*
D03*
Y2456224D02*
D03*
X3346421Y2455012D02*
D03*
Y2594776D02*
D03*
X2979000Y2455118D02*
D03*
Y2594882D02*
D03*
X2611579Y2595352D02*
D03*
Y2455588D02*
D03*
X2372491Y1588882D02*
D03*
Y1449118D02*
D03*
D17*
X2435466Y2453581D02*
D03*
Y2246888D02*
D03*
X2802888Y2453110D02*
D03*
Y2246417D02*
D03*
X3170309Y2453004D02*
D03*
Y2246311D02*
D03*
X3557273Y2454217D02*
D03*
Y2247524D02*
D03*
X3650867Y1590890D02*
D03*
Y1797583D02*
D03*
X3283446Y1590890D02*
D03*
Y1797583D02*
D03*
X2916024Y1590890D02*
D03*
Y1797583D02*
D03*
X2548603Y1590890D02*
D03*
Y1797583D02*
D03*
D18*
X3576064Y1231470D02*
D03*
X3626064D02*
D03*
X3676064D02*
D03*
X3726064D02*
D03*
X3208643D02*
D03*
X3258643D02*
D03*
X3308643D02*
D03*
X3358643D02*
D03*
X2841221D02*
D03*
X2891221D02*
D03*
X2941221D02*
D03*
X2991221D02*
D03*
X2473800D02*
D03*
X2523800D02*
D03*
X2573800D02*
D03*
X2623800D02*
D03*
X2105477Y1317701D02*
D03*
X2155477D02*
D03*
X2205477D02*
D03*
X2255477D02*
D03*
X1857081Y1319000D02*
D03*
X1907081D02*
D03*
X1957081D02*
D03*
X2007081D02*
D03*
X1608000D02*
D03*
X1658000D02*
D03*
X1708000D02*
D03*
X1758000D02*
D03*
X1359604Y1320299D02*
D03*
X1409604D02*
D03*
X1459604D02*
D03*
X1509604D02*
D03*
X1511523Y2746299D02*
D03*
X1461523D02*
D03*
X1411523D02*
D03*
X1361523D02*
D03*
X1759919Y2745000D02*
D03*
X1709919D02*
D03*
X1659919D02*
D03*
X1609919D02*
D03*
X2012961Y2746299D02*
D03*
X1962961D02*
D03*
X1912961D02*
D03*
X1862961D02*
D03*
X2261356Y2745000D02*
D03*
X2211356D02*
D03*
X2161356D02*
D03*
X2111356D02*
D03*
X2510269Y2813000D02*
D03*
X2460269D02*
D03*
X2410269D02*
D03*
X2360269D02*
D03*
X2877691Y2812530D02*
D03*
X2827691D02*
D03*
X2777691D02*
D03*
X2727691D02*
D03*
X3245112Y2812423D02*
D03*
X3195112D02*
D03*
X3145112D02*
D03*
X3095112D02*
D03*
X3632077Y2813636D02*
D03*
X3582077D02*
D03*
X3532077D02*
D03*
X3482077D02*
D03*
X1495792Y596000D02*
D03*
X1545792D02*
D03*
X1595792D02*
D03*
X1645792D02*
D03*
X1247396D02*
D03*
X1297396D02*
D03*
X1347396D02*
D03*
X1397396D02*
D03*
X999000D02*
D03*
X1049000D02*
D03*
X1099000D02*
D03*
X1149000D02*
D03*
D19*
X3651064Y1388951D02*
D03*
X3283643D02*
D03*
X2916221D02*
D03*
X2548800D02*
D03*
X2180477Y1475181D02*
D03*
X1932081Y1476480D02*
D03*
X1683000D02*
D03*
X1434604Y1477780D02*
D03*
X1436523Y2588819D02*
D03*
X1684919Y2587520D02*
D03*
X1937961Y2588819D02*
D03*
X2186356Y2587520D02*
D03*
X2435269Y2655520D02*
D03*
X2802691Y2655049D02*
D03*
X3170112Y2654943D02*
D03*
X3557077Y2656156D02*
D03*
X1570792Y438520D02*
D03*
X1322396D02*
D03*
X1074000D02*
D03*
D20*
X4329223Y3946000D02*
D03*
X4238671D02*
D03*
X4156701Y3523000D02*
D03*
X4066150D02*
D03*
D21*
X4391850Y3548000D02*
D03*
X4445000D02*
D03*
X4315000Y3564000D02*
D03*
X4261850D02*
D03*
X4170425Y1447000D02*
D03*
X4223575D02*
D03*
D22*
X4071850Y3969685D02*
D03*
X4046260D02*
D03*
X4020669D02*
D03*
X3995079D02*
D03*
X3969488D02*
D03*
D23*
X4146654Y3978543D02*
D03*
X3894685D02*
D03*
D24*
X4155512Y4075000D02*
D03*
X3885827D02*
D03*
D25*
X4067913D02*
D03*
X3973425D02*
D03*
D26*
X3607953Y4121984D02*
D03*
X3556772D02*
D03*
D27*
X3687362Y4042575D02*
D03*
Y3991394D02*
D03*
D28*
X2710000Y4109772D02*
D03*
Y3956228D02*
D03*
X2660000Y4109772D02*
D03*
Y3956228D02*
D03*
X2610000Y4109772D02*
D03*
Y3956228D02*
D03*
X2560000Y4109772D02*
D03*
Y3956228D02*
D03*
X2510000Y4109772D02*
D03*
Y3956228D02*
D03*
D29*
X4188008Y2816000D02*
D03*
Y2866000D02*
D03*
Y2916000D02*
D03*
Y2966000D02*
D03*
Y3016000D02*
D03*
Y3066000D02*
D03*
Y3116000D02*
D03*
Y3166000D02*
D03*
Y3216000D02*
D03*
Y3266000D02*
D03*
X3813992Y2816000D02*
D03*
Y2866000D02*
D03*
Y2916000D02*
D03*
Y2966000D02*
D03*
Y3016000D02*
D03*
Y3066000D02*
D03*
Y3116000D02*
D03*
Y3166000D02*
D03*
Y3216000D02*
D03*
Y3266000D02*
D03*
X4481992Y2496000D02*
D03*
Y2446000D02*
D03*
Y2396000D02*
D03*
Y2346000D02*
D03*
Y2296000D02*
D03*
Y2246000D02*
D03*
Y2196000D02*
D03*
Y2146000D02*
D03*
Y2096000D02*
D03*
Y2046000D02*
D03*
X4856008Y2496000D02*
D03*
Y2446000D02*
D03*
Y2396000D02*
D03*
Y2346000D02*
D03*
Y2296000D02*
D03*
Y2246000D02*
D03*
Y2196000D02*
D03*
Y2146000D02*
D03*
Y2096000D02*
D03*
Y2046000D02*
D03*
D30*
X1968345Y470551D02*
D03*
Y539449D02*
D03*
X1783000Y3984000D02*
D03*
Y4052898D02*
D03*
X4064000Y1488449D02*
D03*
Y1419551D02*
D03*
D31*
X1884345Y608284D02*
D03*
X1834345D02*
D03*
X1784345D02*
D03*
X1734345D02*
D03*
X1884345Y393717D02*
D03*
X1834345D02*
D03*
X1784345D02*
D03*
X1734345D02*
D03*
D32*
X1403000Y4049945D02*
D03*
Y3986953D02*
D03*
D33*
X4852323Y1538858D02*
D03*
X4784606D02*
D03*
X4716890D02*
D03*
X4649173D02*
D03*
X4581457D02*
D03*
D34*
X4382732Y1014908D02*
D03*
Y1064908D02*
D03*
Y1114908D02*
D03*
Y1164908D02*
D03*
X4168165Y1014908D02*
D03*
Y1064908D02*
D03*
Y1114908D02*
D03*
Y1164908D02*
D03*
D42*
X592000Y3973500D02*
D03*
Y3868500D02*
D03*
X953102Y1557000D02*
D03*
X4034425Y3826000D02*
D03*
X3965425D02*
D03*
X4578000Y3416000D02*
D03*
D43*
X964724Y1933022D02*
D03*
X1355276D02*
D03*
X964724Y1799163D02*
D03*
X1355276D02*
D03*
X964449Y2250000D02*
D03*
X1355000D02*
D03*
X964449Y2116142D02*
D03*
X1355000D02*
D03*
D44*
X2376000Y3913000D02*
D03*
X3922000Y2396000D02*
D03*
X4153619Y1860730D02*
D03*
X4610000Y3653000D02*
D03*
X2371000Y3726000D02*
D03*
D45*
X4700000Y3900000D02*
D03*
Y300000D02*
D03*
X300000D02*
D03*
Y3900000D02*
D03*
D46*
X150000Y3500000D02*
D03*
Y1984252D02*
D03*
Y704724D02*
D03*
D47*
X720866Y990158D02*
D03*
Y1108268D02*
D03*
Y1226378D02*
D03*
Y1344488D02*
D03*
Y1462599D02*
D03*
Y1580709D02*
D03*
Y1698819D02*
D03*
X622441Y1049213D02*
D03*
Y1167323D02*
D03*
Y1285433D02*
D03*
Y1403543D02*
D03*
Y1521654D02*
D03*
Y1639764D02*
D03*
X504331Y1049213D02*
D03*
Y1167323D02*
D03*
Y1285433D02*
D03*
Y1403543D02*
D03*
Y1521654D02*
D03*
Y1639764D02*
D03*
X405906Y990158D02*
D03*
Y1108268D02*
D03*
Y1226378D02*
D03*
Y1344488D02*
D03*
Y1462599D02*
D03*
Y1580709D02*
D03*
Y1698819D02*
D03*
Y3214567D02*
D03*
Y3096457D02*
D03*
Y2978347D02*
D03*
Y2860236D02*
D03*
Y2742126D02*
D03*
Y2624016D02*
D03*
Y2505905D02*
D03*
Y2387795D02*
D03*
Y2269685D02*
D03*
X504331Y3155512D02*
D03*
Y3037402D02*
D03*
Y2919291D02*
D03*
Y2801181D02*
D03*
Y2683071D02*
D03*
Y2564961D02*
D03*
Y2446850D02*
D03*
Y2328740D02*
D03*
X622441Y3155512D02*
D03*
Y3037402D02*
D03*
Y2919291D02*
D03*
Y2801181D02*
D03*
Y2683071D02*
D03*
Y2564961D02*
D03*
Y2446850D02*
D03*
Y2328740D02*
D03*
X720866Y3214567D02*
D03*
Y3096457D02*
D03*
Y2978347D02*
D03*
Y2860236D02*
D03*
Y2742126D02*
D03*
Y2624016D02*
D03*
Y2505905D02*
D03*
Y2387795D02*
D03*
Y2269685D02*
D03*
D48*
X1628000Y3953449D02*
D03*
Y4053449D02*
D03*
D49*
X4740512Y1780000D02*
D03*
Y1827244D02*
D03*
Y1874488D02*
D03*
Y1921732D02*
D03*
Y1732756D02*
D03*
Y1685512D02*
D03*
Y1638268D02*
D03*
X4787756D02*
D03*
Y1685512D02*
D03*
Y1732756D02*
D03*
Y1921732D02*
D03*
Y1874488D02*
D03*
Y1827244D02*
D03*
Y1780000D02*
D03*
X4835000Y1638268D02*
D03*
Y1685512D02*
D03*
Y1732756D02*
D03*
Y1921732D02*
D03*
Y1874488D02*
D03*
Y1827244D02*
D03*
Y1780000D02*
D03*
X4882244Y1638268D02*
D03*
Y1685512D02*
D03*
Y1732756D02*
D03*
Y1921732D02*
D03*
Y1874488D02*
D03*
Y1827244D02*
D03*
Y1780000D02*
D03*
X4693268Y1638268D02*
D03*
Y1685512D02*
D03*
Y1732756D02*
D03*
Y1921732D02*
D03*
Y1874488D02*
D03*
Y1827244D02*
D03*
Y1780000D02*
D03*
X4646024Y1638268D02*
D03*
Y1685512D02*
D03*
Y1732756D02*
D03*
Y1921732D02*
D03*
Y1874488D02*
D03*
Y1827244D02*
D03*
Y1780000D02*
D03*
X4598780Y1638268D02*
D03*
Y1685512D02*
D03*
Y1732756D02*
D03*
Y1921732D02*
D03*
Y1874488D02*
D03*
Y1827244D02*
D03*
Y1780000D02*
D03*
X4551535Y1638268D02*
D03*
Y1685512D02*
D03*
Y1732756D02*
D03*
Y1921732D02*
D03*
Y1874488D02*
D03*
Y1827244D02*
D03*
Y1780000D02*
D03*
D50*
X4716890D02*
D03*
%TF.MD5,ba29837cdb497dd57d164b54c73adf4b*%
M02*
