%TF.GenerationSoftware,Altium Limited,Altium Designer,19.0.10 (269)*%
G04 Layer_Color=0*
%FSLAX26Y26*%
%MOIN*%
%TF.FileFunction,Plated,1,4,PTH,Drill*%
%TF.Part,Single*%
G01*
G75*
%TA.AperFunction,OtherDrill,Pad Free-1 (4700mil,3900mil)*%
%ADD135C,0.125000*%
%TA.AperFunction,OtherDrill,Pad Free-1 (4700mil,300mil)*%
%ADD136C,0.125000*%
%TA.AperFunction,OtherDrill,Pad Free-1 (300mil,300mil)*%
%ADD137C,0.125000*%
%TA.AperFunction,OtherDrill,Pad Free-1 (300mil,3900mil)*%
%ADD138C,0.125000*%
%TA.AperFunction,ComponentDrill*%
%ADD139C,0.051181*%
%ADD140C,0.031496*%
%ADD141C,0.011811*%
%TA.AperFunction,ViaDrill,NotFilled*%
%ADD142C,0.028000*%
%ADD143C,0.015000*%
%ADD144C,0.010000*%
%ADD145C,0.020000*%
%ADD146C,0.035000*%
D135*
X4700000Y3900000D02*
D03*
D136*
Y300000D02*
D03*
D137*
X300000D02*
D03*
D138*
Y3900000D02*
D03*
D139*
X720866Y990158D02*
D03*
Y1108268D02*
D03*
Y1226378D02*
D03*
Y1344488D02*
D03*
Y1462599D02*
D03*
Y1580709D02*
D03*
Y1698819D02*
D03*
X622441Y1049213D02*
D03*
Y1167323D02*
D03*
Y1285433D02*
D03*
Y1403543D02*
D03*
Y1521654D02*
D03*
Y1639764D02*
D03*
X504331Y1049213D02*
D03*
Y1167323D02*
D03*
Y1285433D02*
D03*
Y1403543D02*
D03*
Y1521654D02*
D03*
Y1639764D02*
D03*
X405906Y990158D02*
D03*
Y1108268D02*
D03*
Y1226378D02*
D03*
Y1344488D02*
D03*
Y1462599D02*
D03*
Y1580709D02*
D03*
Y1698819D02*
D03*
Y3214567D02*
D03*
Y3096457D02*
D03*
Y2978347D02*
D03*
Y2860236D02*
D03*
Y2742126D02*
D03*
Y2624016D02*
D03*
Y2505905D02*
D03*
Y2387795D02*
D03*
Y2269685D02*
D03*
X504331Y3155512D02*
D03*
Y3037402D02*
D03*
Y2919291D02*
D03*
Y2801181D02*
D03*
Y2683071D02*
D03*
Y2564961D02*
D03*
Y2446850D02*
D03*
Y2328740D02*
D03*
X622441Y3155512D02*
D03*
Y3037402D02*
D03*
Y2919291D02*
D03*
Y2801181D02*
D03*
Y2683071D02*
D03*
Y2564961D02*
D03*
Y2446850D02*
D03*
Y2328740D02*
D03*
X720866Y3214567D02*
D03*
Y3096457D02*
D03*
Y2978347D02*
D03*
Y2860236D02*
D03*
Y2742126D02*
D03*
Y2624016D02*
D03*
Y2505905D02*
D03*
Y2387795D02*
D03*
Y2269685D02*
D03*
D140*
X1628000Y3953449D02*
D03*
Y4053449D02*
D03*
D141*
X4740512Y1780000D02*
D03*
Y1827244D02*
D03*
Y1874488D02*
D03*
Y1921732D02*
D03*
Y1732756D02*
D03*
Y1685512D02*
D03*
Y1638268D02*
D03*
X4787756D02*
D03*
Y1685512D02*
D03*
Y1732756D02*
D03*
Y1921732D02*
D03*
Y1874488D02*
D03*
Y1827244D02*
D03*
Y1780000D02*
D03*
X4835000Y1638268D02*
D03*
Y1685512D02*
D03*
Y1732756D02*
D03*
Y1921732D02*
D03*
Y1874488D02*
D03*
Y1827244D02*
D03*
Y1780000D02*
D03*
X4882244Y1638268D02*
D03*
Y1685512D02*
D03*
Y1732756D02*
D03*
Y1921732D02*
D03*
Y1874488D02*
D03*
Y1827244D02*
D03*
Y1780000D02*
D03*
X4693268Y1638268D02*
D03*
Y1685512D02*
D03*
Y1732756D02*
D03*
Y1921732D02*
D03*
Y1874488D02*
D03*
Y1827244D02*
D03*
Y1780000D02*
D03*
X4646024Y1638268D02*
D03*
Y1685512D02*
D03*
Y1732756D02*
D03*
Y1921732D02*
D03*
Y1874488D02*
D03*
Y1827244D02*
D03*
Y1780000D02*
D03*
X4598780Y1638268D02*
D03*
Y1685512D02*
D03*
Y1732756D02*
D03*
Y1921732D02*
D03*
Y1874488D02*
D03*
Y1827244D02*
D03*
Y1780000D02*
D03*
X4551535Y1638268D02*
D03*
Y1685512D02*
D03*
Y1732756D02*
D03*
Y1921732D02*
D03*
Y1874488D02*
D03*
Y1827244D02*
D03*
Y1780000D02*
D03*
D142*
X4141500Y2148000D02*
D03*
X434000Y3484000D02*
D03*
X1103038Y2346000D02*
D03*
X1177038D02*
D03*
X951000Y1389000D02*
D03*
X1025000D02*
D03*
X1177450D02*
D03*
X1103450D02*
D03*
X2736000Y904000D02*
D03*
X2810000D02*
D03*
X2962450D02*
D03*
X2888450D02*
D03*
X3533584Y1051000D02*
D03*
X3607584D02*
D03*
X3760034D02*
D03*
X3686034D02*
D03*
X4097803Y2594000D02*
D03*
X4171803D02*
D03*
X4324254D02*
D03*
X4250254D02*
D03*
X4688000Y3233000D02*
D03*
X4762000D02*
D03*
X4609550D02*
D03*
X4535550D02*
D03*
X1615000Y3520000D02*
D03*
X1229510Y2066000D02*
D03*
X1128000Y1875000D02*
D03*
X894000Y2759000D02*
D03*
X902000Y3485000D02*
D03*
X802000Y3600000D02*
D03*
X2731000Y1743570D02*
D03*
X2459909Y3561000D02*
D03*
X2368000Y4071000D02*
D03*
X3823000Y3997000D02*
D03*
X2963000Y3506000D02*
D03*
X3213643Y3589000D02*
D03*
X4050000Y3269000D02*
D03*
X4587000Y3585000D02*
D03*
X4111000Y1985000D02*
D03*
X4367000Y1239000D02*
D03*
X2352000Y1314000D02*
D03*
X1998000Y700000D02*
D03*
X1384000Y3911000D02*
D03*
X4662000Y1253000D02*
D03*
X4716890Y1443000D02*
D03*
X3153000Y3552795D02*
D03*
X4023000Y2346000D02*
D03*
X1733000Y714000D02*
D03*
D143*
X731000Y3917000D02*
D03*
X645030Y3954500D02*
D03*
X644000Y3878500D02*
D03*
X541500Y4146500D02*
D03*
X610000Y3726000D02*
D03*
X829500Y3760500D02*
D03*
Y4061000D02*
D03*
X3656485Y2908015D02*
D03*
X3076500Y1734000D02*
D03*
X4784500Y2597500D02*
D03*
X4604500Y2551000D02*
D03*
X1399000Y3795000D02*
D03*
X4311000Y2090000D02*
D03*
X3012000Y3096245D02*
D03*
X2969000Y2815000D02*
D03*
X2928000Y2906024D02*
D03*
X1774685Y2826000D02*
D03*
X949000Y2710000D02*
D03*
X2690000Y1663328D02*
D03*
X2260263Y1260000D02*
D03*
X2363000Y3855000D02*
D03*
X2454000Y3910000D02*
D03*
X2760000Y4144000D02*
D03*
X2459000Y4166000D02*
D03*
X2403000Y4029000D02*
D03*
X2288000Y3811000D02*
D03*
X3787000Y3444000D02*
D03*
X3847000Y3465000D02*
D03*
X4034000Y3757000D02*
D03*
X4093000Y3768000D02*
D03*
X3977000Y3754000D02*
D03*
X1206000Y3794000D02*
D03*
X1449000Y3879000D02*
D03*
X1778000Y3880000D02*
D03*
X1780000Y3755000D02*
D03*
X1699000Y3840000D02*
D03*
X1700409Y3954410D02*
D03*
X2177000Y3913000D02*
D03*
X2195400Y3729000D02*
D03*
X2050000Y3672000D02*
D03*
X2472000Y3841000D02*
D03*
X2281000Y3887000D02*
D03*
X2192000Y4024000D02*
D03*
X1214000Y3986000D02*
D03*
X4645000Y3361000D02*
D03*
X4010000Y3589000D02*
D03*
X3509000Y4074000D02*
D03*
X3715000Y3696000D02*
D03*
X3498000Y3550000D02*
D03*
X2682000Y2801181D02*
D03*
X3716000Y3259000D02*
D03*
Y2334000D02*
D03*
X3802000Y2720000D02*
D03*
X3705000Y2781000D02*
D03*
X3062000Y2884000D02*
D03*
X3099000Y2707000D02*
D03*
Y2629000D02*
D03*
Y2655000D02*
D03*
Y2681000D02*
D03*
X3127800Y2707000D02*
D03*
Y2681000D02*
D03*
Y2629000D02*
D03*
X3099000Y2603000D02*
D03*
X2940000Y2371000D02*
D03*
X3002000Y2875000D02*
D03*
X2782000Y1717000D02*
D03*
X2366000D02*
D03*
X2318000Y1707000D02*
D03*
X2716000Y3155000D02*
D03*
X2678000Y2869000D02*
D03*
X2720000Y2875000D02*
D03*
X3670000Y3459000D02*
D03*
X2416000Y3286000D02*
D03*
X2571000Y3143000D02*
D03*
X2508000Y3268000D02*
D03*
X2567000Y3284000D02*
D03*
X2506000Y3458000D02*
D03*
X2456000Y3467000D02*
D03*
X3409000Y2338000D02*
D03*
X3331000Y2878000D02*
D03*
X3265000Y3011000D02*
D03*
X3285000Y3078000D02*
D03*
X3543600Y3709000D02*
D03*
X2151000Y3777000D02*
D03*
X2270000Y3441000D02*
D03*
X3625000Y3703000D02*
D03*
X3547000Y3914000D02*
D03*
X4425000Y3811000D02*
D03*
X3487000Y3646000D02*
D03*
X3848000Y3571000D02*
D03*
X3586000Y3405000D02*
D03*
X3723000Y3550000D02*
D03*
X2764000Y3842000D02*
D03*
X2671000Y3796000D02*
D03*
X2569696Y3858000D02*
D03*
X2625000Y3867000D02*
D03*
X2686000Y3855000D02*
D03*
X3322000Y3840000D02*
D03*
X2572000Y2909000D02*
D03*
X3712000Y3842000D02*
D03*
X3716000Y2833000D02*
D03*
X3421000Y2701000D02*
D03*
X543500Y3541000D02*
D03*
X3037000Y4141000D02*
D03*
X2882000Y4115000D02*
D03*
X2934000Y4120000D02*
D03*
X2902000Y4044000D02*
D03*
X2187000Y4078000D02*
D03*
X2616000Y2354000D02*
D03*
X2580000Y2380000D02*
D03*
X4586000Y4075000D02*
D03*
X3921200Y2233000D02*
D03*
X3950000D02*
D03*
X3892400D02*
D03*
X3921200Y2207000D02*
D03*
X3863600Y2233000D02*
D03*
X3834800D02*
D03*
X3305000Y2376000D02*
D03*
X3160000Y3069000D02*
D03*
X2989000Y2753000D02*
D03*
X3214200Y2733000D02*
D03*
X3185400D02*
D03*
X3214200Y2707000D02*
D03*
X3185400D02*
D03*
X3214200Y2681000D02*
D03*
X3185400D02*
D03*
X3214200Y2655000D02*
D03*
X3185400D02*
D03*
X3214200Y2629000D02*
D03*
X3185400D02*
D03*
X3214200Y2603000D02*
D03*
X3185400D02*
D03*
X3214200Y2577000D02*
D03*
X3243000Y2733000D02*
D03*
X3081000Y1666000D02*
D03*
X3142000Y1660000D02*
D03*
X3413000Y2824000D02*
D03*
X3420000Y1662000D02*
D03*
X3212000Y3022000D02*
D03*
X3319000Y2773000D02*
D03*
X3245000Y3049000D02*
D03*
X3126000Y3100000D02*
D03*
X3213000Y3133000D02*
D03*
X3828000Y1570000D02*
D03*
X2910000Y3103000D02*
D03*
X2855000Y3106000D02*
D03*
X2808000Y3111000D02*
D03*
X3419000Y3054000D02*
D03*
X3363000Y3100000D02*
D03*
X3316000Y3139000D02*
D03*
X3328843Y3016000D02*
D03*
X3265000Y3131000D02*
D03*
X3357643Y1415000D02*
D03*
Y1441000D02*
D03*
X3328843D02*
D03*
Y1467000D02*
D03*
X3213643D02*
D03*
X2960200D02*
D03*
Y1441000D02*
D03*
X2989000Y1415000D02*
D03*
Y1441000D02*
D03*
Y1467000D02*
D03*
X2960200Y1415000D02*
D03*
X2931400Y1441000D02*
D03*
X2902600D02*
D03*
X2931400Y1415000D02*
D03*
X2902600D02*
D03*
X2873800D02*
D03*
X3381000Y3843000D02*
D03*
X3447000Y4158000D02*
D03*
X4738000Y4112000D02*
D03*
X4607000Y2025000D02*
D03*
X4570000Y2066000D02*
D03*
X3120000Y1735000D02*
D03*
X4527000Y3556000D02*
D03*
X4470000Y3486000D02*
D03*
X3851000Y3520000D02*
D03*
X4925000Y3543000D02*
D03*
X4300000Y1854500D02*
D03*
X3814000Y1910000D02*
D03*
Y1858000D02*
D03*
X3842800Y1910000D02*
D03*
X3814000Y1884000D02*
D03*
X3842800Y1858000D02*
D03*
X3871600Y1910000D02*
D03*
X3842800Y1884000D02*
D03*
X3871600Y1858000D02*
D03*
X3900400Y1910000D02*
D03*
X3871600Y1884000D02*
D03*
X3900400Y1858000D02*
D03*
X3929200Y1910000D02*
D03*
X3900400Y1884000D02*
D03*
X3929200Y1858000D02*
D03*
X3958000Y1910000D02*
D03*
X3929200Y1884000D02*
D03*
X3958000Y1858000D02*
D03*
X4400000Y1641000D02*
D03*
X3914236D02*
D03*
X3507000Y1725000D02*
D03*
X3371000Y2850000D02*
D03*
X2558000Y2848000D02*
D03*
X3428386Y2776106D02*
D03*
X3768000Y3796000D02*
D03*
X3817000Y3741000D02*
D03*
X3852000Y3654000D02*
D03*
X3973000Y3263000D02*
D03*
X3814000Y3602000D02*
D03*
X3679000Y3046000D02*
D03*
X3489000Y3090000D02*
D03*
X2531000Y3164000D02*
D03*
X3903000Y2594000D02*
D03*
X3872000Y2642000D02*
D03*
X4001000Y2588000D02*
D03*
X2219000Y2385000D02*
D03*
X2142800Y2535000D02*
D03*
Y2509000D02*
D03*
X2114000Y2587000D02*
D03*
X2142800Y2561000D02*
D03*
X2114000Y2509000D02*
D03*
Y2535000D02*
D03*
X2229200Y2509000D02*
D03*
X2200400D02*
D03*
X2171600D02*
D03*
X2200400Y2561000D02*
D03*
Y2535000D02*
D03*
X2171600Y2613000D02*
D03*
X2200400Y2587000D02*
D03*
X2171600Y2535000D02*
D03*
Y2561000D02*
D03*
Y2587000D02*
D03*
X2142800Y2639000D02*
D03*
Y2587000D02*
D03*
Y2613000D02*
D03*
X2114000Y2665000D02*
D03*
Y2613000D02*
D03*
X2142800Y2665000D02*
D03*
X2114000Y2639000D02*
D03*
X2331000Y1186000D02*
D03*
X3195112Y4134500D02*
D03*
X3510000Y3945000D02*
D03*
X3451000Y3967000D02*
D03*
X3416000Y4009000D02*
D03*
X3423000Y4074000D02*
D03*
X3357000Y4076000D02*
D03*
X3281000Y4077000D02*
D03*
X3225000Y4090000D02*
D03*
X3126000Y4136000D02*
D03*
X599000Y3499000D02*
D03*
X2920000Y3954410D02*
D03*
X2987000Y4139000D02*
D03*
X507139Y4109000D02*
D03*
X3685000Y3930000D02*
D03*
X2505000Y3876000D02*
D03*
X3516000Y3403000D02*
D03*
X3346000Y3384000D02*
D03*
X4861000Y3715000D02*
D03*
X4432000Y1607000D02*
D03*
X4211000Y1272000D02*
D03*
X2447000Y3329000D02*
D03*
X3559281Y3024000D02*
D03*
X2457711Y3251000D02*
D03*
X2627000Y3304000D02*
D03*
X3060000Y3099000D02*
D03*
X2962000Y3097000D02*
D03*
X3659597Y3221000D02*
D03*
X3660000Y3134000D02*
D03*
X3598000Y3068000D02*
D03*
X2526000Y2924000D02*
D03*
X2365000Y2630000D02*
D03*
Y2682000D02*
D03*
Y2708000D02*
D03*
Y2656000D02*
D03*
X2393800Y2630000D02*
D03*
X4444000Y1375000D02*
D03*
X1339000Y2361000D02*
D03*
X1953000Y2434000D02*
D03*
X1982200Y2510000D02*
D03*
X4523000Y897000D02*
D03*
X4582000Y1469000D02*
D03*
X3946000Y3410000D02*
D03*
X3880000Y3864000D02*
D03*
X4524000Y3356000D02*
D03*
X2475000Y3685000D02*
D03*
X2515000Y3712000D02*
D03*
X2527000Y3770000D02*
D03*
X2610000Y3827000D02*
D03*
X2398000Y1179000D02*
D03*
X1754000Y1263000D02*
D03*
X1811000Y1282000D02*
D03*
X2511491Y2341470D02*
D03*
X2878912Y2341000D02*
D03*
X3246334Y2340894D02*
D03*
X3633298Y2342106D02*
D03*
X3574843Y1703000D02*
D03*
X3207421D02*
D03*
X2840000D02*
D03*
X2469000Y1700000D02*
D03*
X3303000Y2849000D02*
D03*
X3243000Y2577000D02*
D03*
Y2603000D02*
D03*
Y2629000D02*
D03*
Y2655000D02*
D03*
Y2681000D02*
D03*
Y2707000D02*
D03*
X3185400Y2577000D02*
D03*
X3349000Y2367000D02*
D03*
X2960200Y1337000D02*
D03*
Y1311000D02*
D03*
X2989000Y1389000D02*
D03*
X2960200Y1363000D02*
D03*
X2989000Y1311000D02*
D03*
Y1337000D02*
D03*
X2931400Y1311000D02*
D03*
X2902600D02*
D03*
X2931400Y1337000D02*
D03*
X2989000Y1363000D02*
D03*
X2845000D02*
D03*
Y1311000D02*
D03*
Y1337000D02*
D03*
X2873800Y1389000D02*
D03*
Y1311000D02*
D03*
Y1337000D02*
D03*
Y1363000D02*
D03*
X2902600D02*
D03*
Y1337000D02*
D03*
Y1389000D02*
D03*
X2960200D02*
D03*
X2931400D02*
D03*
Y1363000D02*
D03*
Y1467000D02*
D03*
X2845000Y1441000D02*
D03*
Y1389000D02*
D03*
Y1467000D02*
D03*
Y1415000D02*
D03*
X2873800Y1441000D02*
D03*
X2902600Y1467000D02*
D03*
X2873800D02*
D03*
X4642000Y2228000D02*
D03*
X3005000Y2364000D02*
D03*
X4642000Y2326000D02*
D03*
X4298500Y2305500D02*
D03*
X4639000Y2404000D02*
D03*
X3127800Y2603000D02*
D03*
Y2577000D02*
D03*
X3099000D02*
D03*
X3156600D02*
D03*
X2818400Y2576000D02*
D03*
X2789600D02*
D03*
X2760800D02*
D03*
X2789600Y2602000D02*
D03*
X2760800D02*
D03*
X2732000D02*
D03*
X2760800Y2654000D02*
D03*
Y2628000D02*
D03*
Y2680000D02*
D03*
X2732000Y2706000D02*
D03*
X2760800D02*
D03*
X2732000Y2732000D02*
D03*
X2876000Y2628000D02*
D03*
Y2576000D02*
D03*
Y2602000D02*
D03*
X2847200Y2654000D02*
D03*
Y2602000D02*
D03*
Y2576000D02*
D03*
Y2628000D02*
D03*
X2818400Y2680000D02*
D03*
X2847200D02*
D03*
X2876000Y2654000D02*
D03*
Y2680000D02*
D03*
Y2706000D02*
D03*
X3543600Y2579000D02*
D03*
X4639000Y2495000D02*
D03*
X4287000Y3167000D02*
D03*
X4284000Y3276000D02*
D03*
X3016000Y3594000D02*
D03*
X3708000Y3349000D02*
D03*
X4725000Y3315000D02*
D03*
X4570000Y1063000D02*
D03*
X4269000Y1225000D02*
D03*
X2044000Y3868000D02*
D03*
X4019000Y1608000D02*
D03*
Y1262000D02*
D03*
X3932000Y1274000D02*
D03*
X3958000Y1884000D02*
D03*
X3929200Y1936000D02*
D03*
X3958000D02*
D03*
X3929200Y1962000D02*
D03*
X3958000D02*
D03*
X3929200Y1988000D02*
D03*
X3958000D02*
D03*
X3929200Y2014000D02*
D03*
X3814000Y1936000D02*
D03*
Y2014000D02*
D03*
Y1988000D02*
D03*
X3871600D02*
D03*
X3842800Y1962000D02*
D03*
Y1988000D02*
D03*
X3814000Y1962000D02*
D03*
X3842800Y2014000D02*
D03*
Y1936000D02*
D03*
X3871600D02*
D03*
Y2014000D02*
D03*
X3900400Y1936000D02*
D03*
X3871600Y1962000D02*
D03*
X3900400Y2014000D02*
D03*
Y1988000D02*
D03*
Y1962000D02*
D03*
X3958000Y2014000D02*
D03*
X3834800Y2129000D02*
D03*
Y2103000D02*
D03*
X3863600Y2129000D02*
D03*
X2171600Y2639000D02*
D03*
Y2665000D02*
D03*
X2229200Y2639000D02*
D03*
X2200400Y2665000D02*
D03*
Y2639000D02*
D03*
Y2613000D02*
D03*
X2229200Y2535000D02*
D03*
X2258000Y2587000D02*
D03*
X2229200D02*
D03*
Y2613000D02*
D03*
X2258000D02*
D03*
X2229200Y2561000D02*
D03*
X2258000Y2535000D02*
D03*
Y2561000D02*
D03*
X2114000D02*
D03*
X2831000Y4077000D02*
D03*
X2455000Y4046000D02*
D03*
X2245000Y3852000D02*
D03*
X4214000Y3607000D02*
D03*
X4285000Y3819000D02*
D03*
X4195000Y3764000D02*
D03*
X4432000Y3403000D02*
D03*
X4603000Y2775000D02*
D03*
X4492000Y3008000D02*
D03*
X4512000Y2924000D02*
D03*
X4571000Y2901000D02*
D03*
X4563000Y3108000D02*
D03*
X3421000Y2876636D02*
D03*
X4858000Y2966000D02*
D03*
X3859000Y1320000D02*
D03*
X4650000Y3063000D02*
D03*
X4781000Y2863000D02*
D03*
X3472000Y1303000D02*
D03*
X4704000Y3167000D02*
D03*
X3806000Y2207000D02*
D03*
Y2129000D02*
D03*
Y2155000D02*
D03*
Y2181000D02*
D03*
X3834800Y2155000D02*
D03*
Y2181000D02*
D03*
Y2207000D02*
D03*
X3863600D02*
D03*
Y2181000D02*
D03*
Y2155000D02*
D03*
X3892400Y2181000D02*
D03*
Y2207000D02*
D03*
X3806000Y2233000D02*
D03*
X3108000Y1298000D02*
D03*
X3806000Y2103000D02*
D03*
X2739000Y1300000D02*
D03*
X2043000Y3727000D02*
D03*
X1878000Y3724000D02*
D03*
X2308000Y3343000D02*
D03*
X2270000Y3389000D02*
D03*
X2308000Y2926000D02*
D03*
X2314000Y2878000D02*
D03*
X3792264Y1321151D02*
D03*
X3424843D02*
D03*
X3057421D02*
D03*
X2690000D02*
D03*
X1860000Y2350000D02*
D03*
X4363000Y2448000D02*
D03*
X4405000Y2349000D02*
D03*
X3607800Y1338000D02*
D03*
Y1312000D02*
D03*
X3636600Y1390000D02*
D03*
X3607800Y1364000D02*
D03*
X3636600Y1312000D02*
D03*
Y1338000D02*
D03*
Y1364000D02*
D03*
X3665400Y1416000D02*
D03*
X3694200Y1364000D02*
D03*
X3665400Y1338000D02*
D03*
Y1364000D02*
D03*
Y1390000D02*
D03*
X3694200Y1468000D02*
D03*
X3665400Y1442000D02*
D03*
X3723000Y1416000D02*
D03*
X3694200Y1390000D02*
D03*
Y1416000D02*
D03*
X3723000Y1390000D02*
D03*
X3694200Y1442000D02*
D03*
X3723000D02*
D03*
X3694200Y1338000D02*
D03*
X3665400Y1312000D02*
D03*
X3723000Y1338000D02*
D03*
X3694200Y1312000D02*
D03*
X3723000Y1364000D02*
D03*
X1758000Y2614000D02*
D03*
Y2666000D02*
D03*
Y2640000D02*
D03*
X1729200Y2588000D02*
D03*
Y2666000D02*
D03*
Y2640000D02*
D03*
Y2614000D02*
D03*
X1700400Y2588000D02*
D03*
Y2666000D02*
D03*
Y2614000D02*
D03*
X1671600D02*
D03*
Y2666000D02*
D03*
X1700400Y2640000D02*
D03*
X1390800Y3524000D02*
D03*
X1134000Y3557000D02*
D03*
X1195000Y3480000D02*
D03*
X1122000Y2760000D02*
D03*
X1182000Y2759000D02*
D03*
X1132000Y2514000D02*
D03*
X2308477Y1280701D02*
D03*
X1867000Y2510000D02*
D03*
X1895800D02*
D03*
X1887800Y1529000D02*
D03*
X1859000D02*
D03*
Y1503000D02*
D03*
Y1555000D02*
D03*
X2174205Y3039000D02*
D03*
X2221000Y3012000D02*
D03*
X2324000Y3553000D02*
D03*
X1835000Y1714000D02*
D03*
X1414000Y2464000D02*
D03*
X1754000Y1632000D02*
D03*
X81000Y2590000D02*
D03*
X2322000Y3624000D02*
D03*
X1274000Y3492000D02*
D03*
X2142000Y3067000D02*
D03*
X2106000Y3097000D02*
D03*
X2070000Y3131000D02*
D03*
X2034000Y3165000D02*
D03*
X1999000Y3195000D02*
D03*
X1831000Y3824000D02*
D03*
X2270000Y3500000D02*
D03*
X1299755Y2603000D02*
D03*
X1815000Y2798000D02*
D03*
X2189000Y3501000D02*
D03*
X1305000Y2726000D02*
D03*
X140000Y2772000D02*
D03*
X75000Y3023000D02*
D03*
X1662000Y3712000D02*
D03*
X1566000Y3810000D02*
D03*
X1126000Y2594000D02*
D03*
X1944000Y3883000D02*
D03*
X1464000Y3755000D02*
D03*
X1766000Y3656000D02*
D03*
X1334000Y3497000D02*
D03*
X1230000Y2402000D02*
D03*
X1274000Y2359000D02*
D03*
X1262000Y3645000D02*
D03*
X1290000Y2786000D02*
D03*
X1230000Y2665000D02*
D03*
X1255000Y1875000D02*
D03*
X1365000Y2667000D02*
D03*
X1393800Y2615000D02*
D03*
X1365000Y2589000D02*
D03*
Y2615000D02*
D03*
Y2641000D02*
D03*
Y2563000D02*
D03*
X1393800Y2667000D02*
D03*
X1422600Y2615000D02*
D03*
X1393800Y2589000D02*
D03*
X1451400Y2615000D02*
D03*
X1422600Y2589000D02*
D03*
Y2667000D02*
D03*
Y2641000D02*
D03*
X1393800D02*
D03*
Y2563000D02*
D03*
X1422600D02*
D03*
X1451400Y2667000D02*
D03*
X1480200Y2615000D02*
D03*
X1451400Y2589000D02*
D03*
Y2641000D02*
D03*
Y2563000D02*
D03*
X1480200D02*
D03*
Y2537000D02*
D03*
Y2589000D02*
D03*
X1509000Y2537000D02*
D03*
Y2511000D02*
D03*
X1480200Y2641000D02*
D03*
X1509000Y2589000D02*
D03*
Y2615000D02*
D03*
Y2641000D02*
D03*
X1393800Y2537000D02*
D03*
X1365000D02*
D03*
Y2511000D02*
D03*
X1393800D02*
D03*
X1422600Y2537000D02*
D03*
Y2511000D02*
D03*
X1256000Y1971000D02*
D03*
X978000Y2361000D02*
D03*
X2258000Y2665000D02*
D03*
X4184000Y2032000D02*
D03*
X2229200Y2665000D02*
D03*
X2258000Y2639000D02*
D03*
Y2509000D02*
D03*
X1867000Y2588000D02*
D03*
Y2536000D02*
D03*
Y2562000D02*
D03*
Y2614000D02*
D03*
Y2640000D02*
D03*
Y2666000D02*
D03*
X1895800D02*
D03*
Y2640000D02*
D03*
Y2614000D02*
D03*
Y2562000D02*
D03*
Y2536000D02*
D03*
Y2588000D02*
D03*
X1924600Y2666000D02*
D03*
Y2640000D02*
D03*
Y2614000D02*
D03*
Y2562000D02*
D03*
Y2536000D02*
D03*
Y2588000D02*
D03*
Y2510000D02*
D03*
X1953400Y2666000D02*
D03*
Y2640000D02*
D03*
Y2614000D02*
D03*
Y2562000D02*
D03*
Y2536000D02*
D03*
Y2588000D02*
D03*
Y2510000D02*
D03*
X1982200Y2666000D02*
D03*
Y2640000D02*
D03*
Y2614000D02*
D03*
Y2562000D02*
D03*
Y2536000D02*
D03*
Y2588000D02*
D03*
X2011000Y2666000D02*
D03*
Y2640000D02*
D03*
Y2614000D02*
D03*
Y2562000D02*
D03*
Y2536000D02*
D03*
Y2588000D02*
D03*
Y2510000D02*
D03*
X1614000D02*
D03*
Y2588000D02*
D03*
Y2536000D02*
D03*
Y2562000D02*
D03*
Y2614000D02*
D03*
Y2640000D02*
D03*
Y2666000D02*
D03*
X1642800D02*
D03*
Y2640000D02*
D03*
Y2614000D02*
D03*
Y2562000D02*
D03*
Y2536000D02*
D03*
Y2588000D02*
D03*
Y2510000D02*
D03*
X1671600Y2640000D02*
D03*
Y2562000D02*
D03*
Y2536000D02*
D03*
Y2588000D02*
D03*
Y2510000D02*
D03*
X1700400Y2562000D02*
D03*
Y2536000D02*
D03*
Y2510000D02*
D03*
X1729200Y2562000D02*
D03*
Y2536000D02*
D03*
Y2510000D02*
D03*
X1758000Y2562000D02*
D03*
Y2536000D02*
D03*
Y2588000D02*
D03*
Y2510000D02*
D03*
X1451400Y2537000D02*
D03*
Y2511000D02*
D03*
X1480200Y2667000D02*
D03*
Y2511000D02*
D03*
X1509000Y2667000D02*
D03*
Y2563000D02*
D03*
X2109000Y1398000D02*
D03*
Y1476000D02*
D03*
Y1424000D02*
D03*
Y1450000D02*
D03*
Y1502000D02*
D03*
Y1528000D02*
D03*
Y1554000D02*
D03*
X2137800D02*
D03*
Y1528000D02*
D03*
Y1502000D02*
D03*
Y1450000D02*
D03*
Y1424000D02*
D03*
Y1476000D02*
D03*
Y1398000D02*
D03*
X2166600Y1554000D02*
D03*
Y1528000D02*
D03*
Y1502000D02*
D03*
Y1450000D02*
D03*
Y1424000D02*
D03*
Y1476000D02*
D03*
Y1398000D02*
D03*
X2195400Y1554000D02*
D03*
Y1528000D02*
D03*
Y1502000D02*
D03*
Y1450000D02*
D03*
Y1424000D02*
D03*
Y1476000D02*
D03*
Y1398000D02*
D03*
X2224200Y1554000D02*
D03*
Y1528000D02*
D03*
Y1502000D02*
D03*
Y1450000D02*
D03*
Y1424000D02*
D03*
Y1476000D02*
D03*
Y1398000D02*
D03*
X2253000Y1554000D02*
D03*
Y1528000D02*
D03*
Y1502000D02*
D03*
Y1450000D02*
D03*
Y1424000D02*
D03*
Y1476000D02*
D03*
Y1398000D02*
D03*
X1859000Y1399000D02*
D03*
Y1477000D02*
D03*
Y1425000D02*
D03*
Y1451000D02*
D03*
X1887800Y1555000D02*
D03*
Y1503000D02*
D03*
Y1451000D02*
D03*
Y1425000D02*
D03*
Y1477000D02*
D03*
Y1399000D02*
D03*
X1916600Y1555000D02*
D03*
Y1529000D02*
D03*
Y1503000D02*
D03*
Y1451000D02*
D03*
Y1425000D02*
D03*
Y1477000D02*
D03*
Y1399000D02*
D03*
X1945400Y1555000D02*
D03*
Y1529000D02*
D03*
Y1503000D02*
D03*
Y1451000D02*
D03*
Y1425000D02*
D03*
Y1477000D02*
D03*
Y1399000D02*
D03*
X1974200Y1555000D02*
D03*
Y1529000D02*
D03*
Y1503000D02*
D03*
Y1451000D02*
D03*
Y1425000D02*
D03*
Y1477000D02*
D03*
Y1399000D02*
D03*
X2003000Y1555000D02*
D03*
Y1529000D02*
D03*
Y1503000D02*
D03*
Y1451000D02*
D03*
Y1425000D02*
D03*
Y1477000D02*
D03*
Y1399000D02*
D03*
X1610000Y1398000D02*
D03*
Y1476000D02*
D03*
Y1424000D02*
D03*
Y1450000D02*
D03*
Y1502000D02*
D03*
Y1528000D02*
D03*
Y1554000D02*
D03*
X1638800D02*
D03*
Y1528000D02*
D03*
Y1502000D02*
D03*
Y1450000D02*
D03*
Y1424000D02*
D03*
Y1476000D02*
D03*
Y1398000D02*
D03*
X1667600Y1554000D02*
D03*
Y1528000D02*
D03*
Y1502000D02*
D03*
Y1450000D02*
D03*
Y1424000D02*
D03*
Y1476000D02*
D03*
Y1398000D02*
D03*
X1696400Y1554000D02*
D03*
Y1528000D02*
D03*
Y1502000D02*
D03*
Y1450000D02*
D03*
Y1424000D02*
D03*
Y1476000D02*
D03*
Y1398000D02*
D03*
X1725200Y1554000D02*
D03*
Y1528000D02*
D03*
Y1502000D02*
D03*
Y1450000D02*
D03*
Y1424000D02*
D03*
Y1476000D02*
D03*
Y1398000D02*
D03*
X1754000Y1554000D02*
D03*
Y1528000D02*
D03*
Y1502000D02*
D03*
Y1450000D02*
D03*
Y1424000D02*
D03*
Y1476000D02*
D03*
Y1398000D02*
D03*
X1362000Y1400000D02*
D03*
Y1478000D02*
D03*
Y1426000D02*
D03*
Y1452000D02*
D03*
Y1504000D02*
D03*
Y1530000D02*
D03*
Y1556000D02*
D03*
X1390800D02*
D03*
Y1530000D02*
D03*
Y1504000D02*
D03*
Y1452000D02*
D03*
Y1426000D02*
D03*
Y1478000D02*
D03*
Y1400000D02*
D03*
X1419600Y1556000D02*
D03*
Y1530000D02*
D03*
Y1504000D02*
D03*
Y1452000D02*
D03*
Y1426000D02*
D03*
Y1478000D02*
D03*
Y1400000D02*
D03*
X1448400Y1556000D02*
D03*
Y1530000D02*
D03*
Y1504000D02*
D03*
Y1452000D02*
D03*
Y1426000D02*
D03*
Y1478000D02*
D03*
Y1400000D02*
D03*
X1477200Y1556000D02*
D03*
Y1530000D02*
D03*
Y1504000D02*
D03*
Y1452000D02*
D03*
Y1426000D02*
D03*
Y1478000D02*
D03*
Y1400000D02*
D03*
X1506000Y1556000D02*
D03*
Y1530000D02*
D03*
Y1504000D02*
D03*
Y1452000D02*
D03*
Y1426000D02*
D03*
Y1478000D02*
D03*
Y1400000D02*
D03*
X3486000Y2579000D02*
D03*
Y2657000D02*
D03*
Y2605000D02*
D03*
Y2631000D02*
D03*
Y2683000D02*
D03*
Y2709000D02*
D03*
Y2735000D02*
D03*
X3514800D02*
D03*
Y2709000D02*
D03*
Y2683000D02*
D03*
Y2631000D02*
D03*
Y2605000D02*
D03*
Y2657000D02*
D03*
Y2579000D02*
D03*
X3543600Y2735000D02*
D03*
Y2709000D02*
D03*
Y2683000D02*
D03*
Y2631000D02*
D03*
Y2605000D02*
D03*
Y2657000D02*
D03*
X3572400Y2735000D02*
D03*
Y2709000D02*
D03*
Y2683000D02*
D03*
Y2631000D02*
D03*
Y2605000D02*
D03*
Y2657000D02*
D03*
Y2579000D02*
D03*
X3601200Y2735000D02*
D03*
Y2709000D02*
D03*
Y2683000D02*
D03*
Y2631000D02*
D03*
Y2605000D02*
D03*
Y2657000D02*
D03*
Y2579000D02*
D03*
X3630000Y2735000D02*
D03*
Y2709000D02*
D03*
Y2683000D02*
D03*
Y2631000D02*
D03*
Y2605000D02*
D03*
Y2657000D02*
D03*
Y2579000D02*
D03*
X3099000Y2733000D02*
D03*
X3127800D02*
D03*
Y2655000D02*
D03*
X3156600Y2733000D02*
D03*
Y2707000D02*
D03*
Y2681000D02*
D03*
Y2629000D02*
D03*
Y2603000D02*
D03*
Y2655000D02*
D03*
X2732000Y2576000D02*
D03*
Y2654000D02*
D03*
Y2628000D02*
D03*
Y2680000D02*
D03*
X2760800Y2732000D02*
D03*
X2789600D02*
D03*
Y2706000D02*
D03*
Y2680000D02*
D03*
Y2628000D02*
D03*
Y2654000D02*
D03*
X2818400Y2732000D02*
D03*
Y2706000D02*
D03*
Y2628000D02*
D03*
Y2602000D02*
D03*
Y2654000D02*
D03*
X2847200Y2732000D02*
D03*
Y2706000D02*
D03*
X2876000Y2732000D02*
D03*
X2365000Y2578000D02*
D03*
Y2604000D02*
D03*
Y2734000D02*
D03*
X2393800D02*
D03*
Y2708000D02*
D03*
Y2682000D02*
D03*
Y2604000D02*
D03*
Y2656000D02*
D03*
Y2578000D02*
D03*
X2422600Y2734000D02*
D03*
Y2708000D02*
D03*
Y2682000D02*
D03*
Y2630000D02*
D03*
Y2604000D02*
D03*
Y2656000D02*
D03*
Y2578000D02*
D03*
X2451400Y2734000D02*
D03*
Y2708000D02*
D03*
Y2682000D02*
D03*
Y2630000D02*
D03*
Y2604000D02*
D03*
Y2656000D02*
D03*
Y2578000D02*
D03*
X2480200Y2734000D02*
D03*
Y2708000D02*
D03*
Y2682000D02*
D03*
Y2630000D02*
D03*
Y2604000D02*
D03*
Y2656000D02*
D03*
Y2578000D02*
D03*
X2509000Y2734000D02*
D03*
Y2708000D02*
D03*
Y2682000D02*
D03*
Y2630000D02*
D03*
Y2604000D02*
D03*
Y2656000D02*
D03*
Y2578000D02*
D03*
X3579000Y1312000D02*
D03*
Y1390000D02*
D03*
Y1338000D02*
D03*
Y1364000D02*
D03*
Y1416000D02*
D03*
Y1442000D02*
D03*
Y1468000D02*
D03*
X3607800D02*
D03*
Y1442000D02*
D03*
Y1416000D02*
D03*
Y1390000D02*
D03*
X3636600Y1468000D02*
D03*
Y1442000D02*
D03*
Y1416000D02*
D03*
X3665400Y1468000D02*
D03*
X3723000D02*
D03*
Y1312000D02*
D03*
X3213643Y1311000D02*
D03*
Y1389000D02*
D03*
Y1337000D02*
D03*
Y1363000D02*
D03*
Y1415000D02*
D03*
Y1441000D02*
D03*
X3242443Y1467000D02*
D03*
Y1441000D02*
D03*
Y1415000D02*
D03*
Y1363000D02*
D03*
Y1337000D02*
D03*
Y1389000D02*
D03*
Y1311000D02*
D03*
X3271243Y1467000D02*
D03*
Y1441000D02*
D03*
Y1415000D02*
D03*
Y1363000D02*
D03*
Y1337000D02*
D03*
Y1389000D02*
D03*
Y1311000D02*
D03*
X3300043Y1467000D02*
D03*
Y1441000D02*
D03*
Y1415000D02*
D03*
Y1363000D02*
D03*
Y1337000D02*
D03*
Y1389000D02*
D03*
Y1311000D02*
D03*
X3328843Y1415000D02*
D03*
Y1363000D02*
D03*
Y1337000D02*
D03*
Y1389000D02*
D03*
Y1311000D02*
D03*
X3357643Y1467000D02*
D03*
Y1363000D02*
D03*
Y1337000D02*
D03*
Y1389000D02*
D03*
Y1311000D02*
D03*
X2476000Y1312000D02*
D03*
Y1390000D02*
D03*
Y1338000D02*
D03*
Y1364000D02*
D03*
Y1416000D02*
D03*
Y1442000D02*
D03*
Y1468000D02*
D03*
X2504800D02*
D03*
Y1442000D02*
D03*
Y1416000D02*
D03*
Y1364000D02*
D03*
Y1338000D02*
D03*
Y1390000D02*
D03*
Y1312000D02*
D03*
X2533600Y1468000D02*
D03*
Y1442000D02*
D03*
Y1416000D02*
D03*
Y1364000D02*
D03*
Y1338000D02*
D03*
Y1390000D02*
D03*
Y1312000D02*
D03*
X2562400Y1468000D02*
D03*
Y1442000D02*
D03*
Y1416000D02*
D03*
Y1364000D02*
D03*
Y1338000D02*
D03*
Y1390000D02*
D03*
Y1312000D02*
D03*
X2591200Y1468000D02*
D03*
Y1442000D02*
D03*
Y1416000D02*
D03*
Y1364000D02*
D03*
Y1338000D02*
D03*
Y1390000D02*
D03*
Y1312000D02*
D03*
X2620000Y1468000D02*
D03*
Y1442000D02*
D03*
Y1416000D02*
D03*
Y1364000D02*
D03*
Y1338000D02*
D03*
Y1390000D02*
D03*
Y1312000D02*
D03*
X3863600Y2103000D02*
D03*
X3892400Y2155000D02*
D03*
Y2129000D02*
D03*
Y2103000D02*
D03*
X3921200Y2155000D02*
D03*
Y2129000D02*
D03*
Y2181000D02*
D03*
Y2103000D02*
D03*
X3950000Y2207000D02*
D03*
Y2155000D02*
D03*
Y2129000D02*
D03*
Y2181000D02*
D03*
Y2103000D02*
D03*
X1493792Y513520D02*
D03*
X1571792D02*
D03*
X1519792D02*
D03*
X1545792D02*
D03*
X1597792D02*
D03*
X1623792D02*
D03*
X1649792D02*
D03*
Y484720D02*
D03*
X1623792D02*
D03*
X1597792D02*
D03*
X1545792D02*
D03*
X1519792D02*
D03*
X1571792D02*
D03*
X1493792D02*
D03*
X1649792Y455920D02*
D03*
X1623792D02*
D03*
X1597792D02*
D03*
X1545792D02*
D03*
X1519792D02*
D03*
X1571792D02*
D03*
X1493792D02*
D03*
X1649792Y427120D02*
D03*
X1623792D02*
D03*
X1597792D02*
D03*
X1545792D02*
D03*
X1519792D02*
D03*
X1571792D02*
D03*
X1493792D02*
D03*
X1649792Y398320D02*
D03*
X1623792D02*
D03*
X1597792D02*
D03*
X1545792D02*
D03*
X1519792D02*
D03*
X1571792D02*
D03*
X1493792D02*
D03*
X1649792Y369520D02*
D03*
X1623792D02*
D03*
X1597792D02*
D03*
X1545792D02*
D03*
X1519792D02*
D03*
X1571792D02*
D03*
X1493792D02*
D03*
X1245396Y512520D02*
D03*
X1323396D02*
D03*
X1271396D02*
D03*
X1297396D02*
D03*
X1349396D02*
D03*
X1375396D02*
D03*
X1401396D02*
D03*
Y483720D02*
D03*
X1375396D02*
D03*
X1349396D02*
D03*
X1297396D02*
D03*
X1271396D02*
D03*
X1323396D02*
D03*
X1245396D02*
D03*
X1401396Y454920D02*
D03*
X1375396D02*
D03*
X1349396D02*
D03*
X1297396D02*
D03*
X1271396D02*
D03*
X1323396D02*
D03*
X1245396D02*
D03*
X1401396Y426120D02*
D03*
X1375396D02*
D03*
X1349396D02*
D03*
X1297396D02*
D03*
X1271396D02*
D03*
X1323396D02*
D03*
X1245396D02*
D03*
X1401396Y397320D02*
D03*
X1375396D02*
D03*
X1349396D02*
D03*
X1297396D02*
D03*
X1271396D02*
D03*
X1323396D02*
D03*
X1245396D02*
D03*
X1401396Y368520D02*
D03*
X1375396D02*
D03*
X1349396D02*
D03*
X1297396D02*
D03*
X1271396D02*
D03*
X1323396D02*
D03*
X1245396D02*
D03*
X997000D02*
D03*
X1075000D02*
D03*
X1023000D02*
D03*
X1049000D02*
D03*
X1101000D02*
D03*
X1127000D02*
D03*
X1153000D02*
D03*
X997000Y397320D02*
D03*
X1075000D02*
D03*
X1023000D02*
D03*
X1049000D02*
D03*
X1101000D02*
D03*
X1127000D02*
D03*
X1153000D02*
D03*
X997000Y426120D02*
D03*
X1075000D02*
D03*
X1023000D02*
D03*
X1049000D02*
D03*
X1101000D02*
D03*
X1127000D02*
D03*
X1153000D02*
D03*
X997000Y454920D02*
D03*
X1075000D02*
D03*
X1023000D02*
D03*
X1049000D02*
D03*
X1101000D02*
D03*
X1127000D02*
D03*
X1153000D02*
D03*
X997000Y483720D02*
D03*
X1075000D02*
D03*
X1023000D02*
D03*
X1049000D02*
D03*
X1101000D02*
D03*
X1127000D02*
D03*
X1153000D02*
D03*
Y512520D02*
D03*
X1127000D02*
D03*
X1101000D02*
D03*
X1049000D02*
D03*
X1023000D02*
D03*
X1075000D02*
D03*
X997000D02*
D03*
D144*
X78500Y2746500D02*
D03*
D145*
X2948976Y2856342D02*
D03*
D146*
X4399000Y1476638D02*
D03*
%TF.MD5,a3dd8a824660f2b37ffc5948e70355d4*%
M02*
