%TF.GenerationSoftware,Altium Limited,Altium Designer,19.0.10 (269)*%
G04 Layer_Color=128*
%FSLAX26Y26*%
%MOIN*%
%TF.FileFunction,Drillmap*%
%TF.Part,Single*%
G01*
G75*
%TA.AperFunction,NonConductor*%
%ADD146C,0.005000*%
D146*
X931260Y1933022D02*
X998189D01*
X964724Y1899557D02*
Y1966486D01*
X1321811Y1933022D02*
X1388740D01*
X1355276Y1899557D02*
Y1966486D01*
X931260Y1799163D02*
X998189D01*
X964724Y1765699D02*
Y1832628D01*
X1321811Y1799163D02*
X1388740D01*
X1355276Y1765699D02*
Y1832628D01*
X930984Y2250000D02*
X997913D01*
X964449Y2216535D02*
Y2283465D01*
X1321535Y2250000D02*
X1388465D01*
X1355000Y2216535D02*
Y2283465D01*
X930984Y2116142D02*
X997913D01*
X964449Y2082677D02*
Y2149606D01*
X1321535Y2116142D02*
X1388465D01*
X1355000Y2082677D02*
Y2149606D01*
X2515315Y4033000D02*
X2554685D01*
X2535000Y4013315D02*
Y4052685D01*
X2665315Y4033000D02*
X2704685D01*
X2685000Y4013315D02*
Y4052685D01*
X4637500Y3900000D02*
X4762500D01*
X4700000Y3837500D02*
Y3962500D01*
X4637500Y300000D02*
X4762500D01*
X4700000Y237500D02*
Y362500D01*
X237500Y300000D02*
X362500D01*
X300000Y237500D02*
Y362500D01*
X237500Y3900000D02*
X362500D01*
X300000Y3837500D02*
Y3962500D01*
X85039Y3500000D02*
X214961D01*
X150000Y3435039D02*
Y3564961D01*
X85039Y1984252D02*
X214961D01*
X150000Y1919291D02*
Y2049213D01*
X695276Y990158D02*
X746457D01*
X720866Y964567D02*
Y1015748D01*
X695276Y1108268D02*
X746457D01*
X720866Y1082677D02*
Y1133858D01*
X695276Y1226378D02*
X746457D01*
X720866Y1200787D02*
Y1251968D01*
X695276Y1344488D02*
X746457D01*
X720866Y1318898D02*
Y1370079D01*
X695276Y1462599D02*
X746457D01*
X720866Y1437008D02*
Y1488189D01*
X695276Y1580709D02*
X746457D01*
X720866Y1555118D02*
Y1606299D01*
X695276Y1698819D02*
X746457D01*
X720866Y1673228D02*
Y1724409D01*
X596850Y1049213D02*
X648031D01*
X622441Y1023622D02*
Y1074803D01*
X596850Y1167323D02*
X648031D01*
X622441Y1141732D02*
Y1192913D01*
X596850Y1285433D02*
X648031D01*
X622441Y1259843D02*
Y1311024D01*
X596850Y1403543D02*
X648031D01*
X622441Y1377953D02*
Y1429134D01*
X596850Y1521654D02*
X648031D01*
X622441Y1496063D02*
Y1547244D01*
X596850Y1639764D02*
X648031D01*
X622441Y1614173D02*
Y1665354D01*
X478740Y1049213D02*
X529921D01*
X504331Y1023622D02*
Y1074803D01*
X478740Y1167323D02*
X529921D01*
X504331Y1141732D02*
Y1192913D01*
X478740Y1285433D02*
X529921D01*
X504331Y1259843D02*
Y1311024D01*
X478740Y1403543D02*
X529921D01*
X504331Y1377953D02*
Y1429134D01*
X478740Y1521654D02*
X529921D01*
X504331Y1496063D02*
Y1547244D01*
X478740Y1639764D02*
X529921D01*
X504331Y1614173D02*
Y1665354D01*
X380315Y990158D02*
X431496D01*
X405906Y964567D02*
Y1015748D01*
X380315Y1108268D02*
X431496D01*
X405906Y1082677D02*
Y1133858D01*
X380315Y1226378D02*
X431496D01*
X405906Y1200787D02*
Y1251968D01*
X380315Y1344488D02*
X431496D01*
X405906Y1318898D02*
Y1370079D01*
X380315Y1462599D02*
X431496D01*
X405906Y1437008D02*
Y1488189D01*
X380315Y1580709D02*
X431496D01*
X405906Y1555118D02*
Y1606299D01*
X380315Y1698819D02*
X431496D01*
X405906Y1673228D02*
Y1724409D01*
X85039Y704724D02*
X214961D01*
X150000Y639764D02*
Y769685D01*
X380315Y3214567D02*
X431496D01*
X405906Y3188976D02*
Y3240157D01*
X380315Y3096457D02*
X431496D01*
X405906Y3070866D02*
Y3122047D01*
X380315Y2978347D02*
X431496D01*
X405906Y2952756D02*
Y3003937D01*
X380315Y2860236D02*
X431496D01*
X405906Y2834646D02*
Y2885827D01*
X380315Y2742126D02*
X431496D01*
X405906Y2716535D02*
Y2767716D01*
X380315Y2624016D02*
X431496D01*
X405906Y2598425D02*
Y2649606D01*
X380315Y2505905D02*
X431496D01*
X405906Y2480315D02*
Y2531496D01*
X380315Y2387795D02*
X431496D01*
X405906Y2362205D02*
Y2413386D01*
X380315Y2269685D02*
X431496D01*
X405906Y2244095D02*
Y2295276D01*
X478740Y3155512D02*
X529921D01*
X504331Y3129921D02*
Y3181102D01*
X478740Y3037402D02*
X529921D01*
X504331Y3011811D02*
Y3062992D01*
X478740Y2919291D02*
X529921D01*
X504331Y2893701D02*
Y2944882D01*
X478740Y2801181D02*
X529921D01*
X504331Y2775591D02*
Y2826772D01*
X478740Y2683071D02*
X529921D01*
X504331Y2657480D02*
Y2708661D01*
X478740Y2564961D02*
X529921D01*
X504331Y2539370D02*
Y2590551D01*
X478740Y2446850D02*
X529921D01*
X504331Y2421260D02*
Y2472441D01*
X478740Y2328740D02*
X529921D01*
X504331Y2303150D02*
Y2354331D01*
X596850Y3155512D02*
X648031D01*
X622441Y3129921D02*
Y3181102D01*
X596850Y3037402D02*
X648031D01*
X622441Y3011811D02*
Y3062992D01*
X596850Y2919291D02*
X648031D01*
X622441Y2893701D02*
Y2944882D01*
X596850Y2801181D02*
X648031D01*
X622441Y2775591D02*
Y2826772D01*
X596850Y2683071D02*
X648031D01*
X622441Y2657480D02*
Y2708661D01*
X596850Y2564961D02*
X648031D01*
X622441Y2539370D02*
Y2590551D01*
X596850Y2446850D02*
X648031D01*
X622441Y2421260D02*
Y2472441D01*
X596850Y2328740D02*
X648031D01*
X622441Y2303150D02*
Y2354331D01*
X695276Y3214567D02*
X746457D01*
X720866Y3188976D02*
Y3240157D01*
X695276Y3096457D02*
X746457D01*
X720866Y3070866D02*
Y3122047D01*
X695276Y2978347D02*
X746457D01*
X720866Y2952756D02*
Y3003937D01*
X695276Y2860236D02*
X746457D01*
X720866Y2834646D02*
Y2885827D01*
X695276Y2742126D02*
X746457D01*
X720866Y2716535D02*
Y2767716D01*
X695276Y2624016D02*
X746457D01*
X720866Y2598425D02*
Y2649606D01*
X695276Y2505905D02*
X746457D01*
X720866Y2480315D02*
Y2531496D01*
X695276Y2387795D02*
X746457D01*
X720866Y2362205D02*
Y2413386D01*
X695276Y2269685D02*
X746457D01*
X720866Y2244095D02*
Y2295276D01*
X1612252Y3953449D02*
X1643748D01*
X1628000Y3937701D02*
Y3969197D01*
X1612252Y4053449D02*
X1643748D01*
X1628000Y4037701D02*
Y4069197D01*
X4734606Y1780000D02*
X4746417D01*
X4740512Y1774094D02*
Y1785906D01*
X4734606Y1827244D02*
X4746417D01*
X4740512Y1821339D02*
Y1833150D01*
X4734606Y1874488D02*
X4746417D01*
X4740512Y1868583D02*
Y1880394D01*
X4734606Y1921732D02*
X4746417D01*
X4740512Y1915827D02*
Y1927638D01*
X4734606Y1732756D02*
X4746417D01*
X4740512Y1726850D02*
Y1738661D01*
X4734606Y1685512D02*
X4746417D01*
X4740512Y1679606D02*
Y1691417D01*
X4734606Y1638268D02*
X4746417D01*
X4740512Y1632362D02*
Y1644173D01*
X4781850Y1638268D02*
X4793661D01*
X4787756Y1632362D02*
Y1644173D01*
X4781850Y1685512D02*
X4793661D01*
X4787756Y1679606D02*
Y1691417D01*
X4781850Y1732756D02*
X4793661D01*
X4787756Y1726850D02*
Y1738661D01*
X4781850Y1921732D02*
X4793661D01*
X4787756Y1915827D02*
Y1927638D01*
X4781850Y1874488D02*
X4793661D01*
X4787756Y1868583D02*
Y1880394D01*
X4781850Y1827244D02*
X4793661D01*
X4787756Y1821339D02*
Y1833150D01*
X4781850Y1780000D02*
X4793661D01*
X4787756Y1774094D02*
Y1785906D01*
X4829095Y1638268D02*
X4840905D01*
X4835000Y1632362D02*
Y1644173D01*
X4829095Y1685512D02*
X4840905D01*
X4835000Y1679606D02*
Y1691417D01*
X4829095Y1732756D02*
X4840905D01*
X4835000Y1726850D02*
Y1738661D01*
X4829095Y1921732D02*
X4840905D01*
X4835000Y1915827D02*
Y1927638D01*
X4829095Y1874488D02*
X4840905D01*
X4835000Y1868583D02*
Y1880394D01*
X4829095Y1827244D02*
X4840905D01*
X4835000Y1821339D02*
Y1833150D01*
X4829095Y1780000D02*
X4840905D01*
X4835000Y1774094D02*
Y1785906D01*
X4876339Y1638268D02*
X4888150D01*
X4882244Y1632362D02*
Y1644173D01*
X4876339Y1685512D02*
X4888150D01*
X4882244Y1679606D02*
Y1691417D01*
X4876339Y1732756D02*
X4888150D01*
X4882244Y1726850D02*
Y1738661D01*
X4876339Y1921732D02*
X4888150D01*
X4882244Y1915827D02*
Y1927638D01*
X4876339Y1874488D02*
X4888150D01*
X4882244Y1868583D02*
Y1880394D01*
X4876339Y1827244D02*
X4888150D01*
X4882244Y1821339D02*
Y1833150D01*
X4876339Y1780000D02*
X4888150D01*
X4882244Y1774094D02*
Y1785906D01*
X4687362Y1638268D02*
X4699173D01*
X4693268Y1632362D02*
Y1644173D01*
X4687362Y1685512D02*
X4699173D01*
X4693268Y1679606D02*
Y1691417D01*
X4687362Y1732756D02*
X4699173D01*
X4693268Y1726850D02*
Y1738661D01*
X4687362Y1921732D02*
X4699173D01*
X4693268Y1915827D02*
Y1927638D01*
X4687362Y1874488D02*
X4699173D01*
X4693268Y1868583D02*
Y1880394D01*
X4687362Y1827244D02*
X4699173D01*
X4693268Y1821339D02*
Y1833150D01*
X4687362Y1780000D02*
X4699173D01*
X4693268Y1774094D02*
Y1785906D01*
X4640118Y1638268D02*
X4651929D01*
X4646024Y1632362D02*
Y1644173D01*
X4640118Y1685512D02*
X4651929D01*
X4646024Y1679606D02*
Y1691417D01*
X4640118Y1732756D02*
X4651929D01*
X4646024Y1726850D02*
Y1738661D01*
X4640118Y1921732D02*
X4651929D01*
X4646024Y1915827D02*
Y1927638D01*
X4640118Y1874488D02*
X4651929D01*
X4646024Y1868583D02*
Y1880394D01*
X4640118Y1827244D02*
X4651929D01*
X4646024Y1821339D02*
Y1833150D01*
X4640118Y1780000D02*
X4651929D01*
X4646024Y1774094D02*
Y1785906D01*
X4592874Y1638268D02*
X4604685D01*
X4598780Y1632362D02*
Y1644173D01*
X4592874Y1685512D02*
X4604685D01*
X4598780Y1679606D02*
Y1691417D01*
X4592874Y1732756D02*
X4604685D01*
X4598780Y1726850D02*
Y1738661D01*
X4592874Y1921732D02*
X4604685D01*
X4598780Y1915827D02*
Y1927638D01*
X4592874Y1874488D02*
X4604685D01*
X4598780Y1868583D02*
Y1880394D01*
X4592874Y1827244D02*
X4604685D01*
X4598780Y1821339D02*
Y1833150D01*
X4592874Y1780000D02*
X4604685D01*
X4598780Y1774094D02*
Y1785906D01*
X4545630Y1638268D02*
X4557441D01*
X4551535Y1632362D02*
Y1644173D01*
X4545630Y1685512D02*
X4557441D01*
X4551535Y1679606D02*
Y1691417D01*
X4545630Y1732756D02*
X4557441D01*
X4551535Y1726850D02*
Y1738661D01*
X4545630Y1921732D02*
X4557441D01*
X4551535Y1915827D02*
Y1927638D01*
X4545630Y1874488D02*
X4557441D01*
X4551535Y1868583D02*
Y1880394D01*
X4545630Y1827244D02*
X4557441D01*
X4551535Y1821339D02*
Y1833150D01*
X4545630Y1780000D02*
X4557441D01*
X4551535Y1774094D02*
Y1785906D01*
X1526500Y363000D02*
X1541500D01*
X1534000Y355500D02*
Y370500D01*
X1526500Y395000D02*
X1541500D01*
X1534000Y387500D02*
Y402500D01*
X1526500Y427000D02*
X1541500D01*
X1534000Y419500D02*
Y434500D01*
X1526500Y459000D02*
X1541500D01*
X1534000Y451500D02*
Y466500D01*
X1526500Y491000D02*
X1541500D01*
X1534000Y483500D02*
Y498500D01*
X1526500Y523000D02*
X1541500D01*
X1534000Y515500D02*
Y530500D01*
X1562500Y523000D02*
X1577500D01*
X1570000Y515500D02*
Y530500D01*
X1562500Y491000D02*
X1577500D01*
X1570000Y483500D02*
Y498500D01*
X1562500Y459000D02*
X1577500D01*
X1570000Y451500D02*
Y466500D01*
X1562500Y427000D02*
X1577500D01*
X1570000Y419500D02*
Y434500D01*
X1562500Y395000D02*
X1577500D01*
X1570000Y387500D02*
Y402500D01*
X1562500Y363000D02*
X1577500D01*
X1570000Y355500D02*
Y370500D01*
X1634000Y363000D02*
X1649000D01*
X1641500Y355500D02*
Y370500D01*
X1634000Y395000D02*
X1649000D01*
X1641500Y387500D02*
Y402500D01*
X1634000Y427000D02*
X1649000D01*
X1641500Y419500D02*
Y434500D01*
X1634000Y459000D02*
X1649000D01*
X1641500Y451500D02*
Y466500D01*
X1634000Y491000D02*
X1649000D01*
X1641500Y483500D02*
Y498500D01*
X1634000Y523000D02*
X1649000D01*
X1641500Y515500D02*
Y530500D01*
X1598000Y523000D02*
X1613000D01*
X1605500Y515500D02*
Y530500D01*
X1598000Y491000D02*
X1613000D01*
X1605500Y483500D02*
Y498500D01*
X1598000Y459000D02*
X1613000D01*
X1605500Y451500D02*
Y466500D01*
X1598000Y427000D02*
X1613000D01*
X1605500Y419500D02*
Y434500D01*
X1598000Y395000D02*
X1613000D01*
X1605500Y387500D02*
Y402500D01*
X1598000Y363000D02*
X1613000D01*
X1605500Y355500D02*
Y370500D01*
X1494000Y363500D02*
X1509000D01*
X1501500Y356000D02*
Y371000D01*
X1494000Y395500D02*
X1509000D01*
X1501500Y388000D02*
Y403000D01*
X1494000Y427500D02*
X1509000D01*
X1501500Y420000D02*
Y435000D01*
X1494000Y459500D02*
X1509000D01*
X1501500Y452000D02*
Y467000D01*
X1494000Y491500D02*
X1509000D01*
X1501500Y484000D02*
Y499000D01*
X1494000Y523500D02*
X1509000D01*
X1501500Y516000D02*
Y531000D01*
X1276500Y361500D02*
X1291500D01*
X1284000Y354000D02*
Y369000D01*
X1276500Y393500D02*
X1291500D01*
X1284000Y386000D02*
Y401000D01*
X1276500Y425500D02*
X1291500D01*
X1284000Y418000D02*
Y433000D01*
X1276500Y457500D02*
X1291500D01*
X1284000Y450000D02*
Y465000D01*
X1276500Y489500D02*
X1291500D01*
X1284000Y482000D02*
Y497000D01*
X1276500Y521500D02*
X1291500D01*
X1284000Y514000D02*
Y529000D01*
X1312500Y521500D02*
X1327500D01*
X1320000Y514000D02*
Y529000D01*
X1312500Y489500D02*
X1327500D01*
X1320000Y482000D02*
Y497000D01*
X1312500Y457500D02*
X1327500D01*
X1320000Y450000D02*
Y465000D01*
X1312500Y425500D02*
X1327500D01*
X1320000Y418000D02*
Y433000D01*
X1312500Y393500D02*
X1327500D01*
X1320000Y386000D02*
Y401000D01*
X1312500Y361500D02*
X1327500D01*
X1320000Y354000D02*
Y369000D01*
X1384000Y361500D02*
X1399000D01*
X1391500Y354000D02*
Y369000D01*
X1384000Y393500D02*
X1399000D01*
X1391500Y386000D02*
Y401000D01*
X1384000Y425500D02*
X1399000D01*
X1391500Y418000D02*
Y433000D01*
X1384000Y457500D02*
X1399000D01*
X1391500Y450000D02*
Y465000D01*
X1384000Y489500D02*
X1399000D01*
X1391500Y482000D02*
Y497000D01*
X1384000Y521500D02*
X1399000D01*
X1391500Y514000D02*
Y529000D01*
X1348000Y521500D02*
X1363000D01*
X1355500Y514000D02*
Y529000D01*
X1348000Y489500D02*
X1363000D01*
X1355500Y482000D02*
Y497000D01*
X1348000Y457500D02*
X1363000D01*
X1355500Y450000D02*
Y465000D01*
X1348000Y425500D02*
X1363000D01*
X1355500Y418000D02*
Y433000D01*
X1348000Y393500D02*
X1363000D01*
X1355500Y386000D02*
Y401000D01*
X1348000Y361500D02*
X1363000D01*
X1355500Y354000D02*
Y369000D01*
X1244000Y362000D02*
X1259000D01*
X1251500Y354500D02*
Y369500D01*
X1244000Y394000D02*
X1259000D01*
X1251500Y386500D02*
Y401500D01*
X1244000Y426000D02*
X1259000D01*
X1251500Y418500D02*
Y433500D01*
X1244000Y458000D02*
X1259000D01*
X1251500Y450500D02*
Y465500D01*
X1244000Y490000D02*
X1259000D01*
X1251500Y482500D02*
Y497500D01*
X1244000Y522000D02*
X1259000D01*
X1251500Y514500D02*
Y529500D01*
X1030000Y363500D02*
X1045000D01*
X1037500Y356000D02*
Y371000D01*
X1030000Y395500D02*
X1045000D01*
X1037500Y388000D02*
Y403000D01*
X1030000Y427500D02*
X1045000D01*
X1037500Y420000D02*
Y435000D01*
X1030000Y459500D02*
X1045000D01*
X1037500Y452000D02*
Y467000D01*
X1030000Y491500D02*
X1045000D01*
X1037500Y484000D02*
Y499000D01*
X1030000Y523500D02*
X1045000D01*
X1037500Y516000D02*
Y531000D01*
X1066000Y523500D02*
X1081000D01*
X1073500Y516000D02*
Y531000D01*
X1066000Y491500D02*
X1081000D01*
X1073500Y484000D02*
Y499000D01*
X1066000Y459500D02*
X1081000D01*
X1073500Y452000D02*
Y467000D01*
X1066000Y427500D02*
X1081000D01*
X1073500Y420000D02*
Y435000D01*
X1066000Y395500D02*
X1081000D01*
X1073500Y388000D02*
Y403000D01*
X1066000Y363500D02*
X1081000D01*
X1073500Y356000D02*
Y371000D01*
X1137500Y363500D02*
X1152500D01*
X1145000Y356000D02*
Y371000D01*
X1137500Y395500D02*
X1152500D01*
X1145000Y388000D02*
Y403000D01*
X1137500Y427500D02*
X1152500D01*
X1145000Y420000D02*
Y435000D01*
X1137500Y459500D02*
X1152500D01*
X1145000Y452000D02*
Y467000D01*
X1137500Y491500D02*
X1152500D01*
X1145000Y484000D02*
Y499000D01*
X1137500Y523500D02*
X1152500D01*
X1145000Y516000D02*
Y531000D01*
X1101500Y523500D02*
X1116500D01*
X1109000Y516000D02*
Y531000D01*
X1101500Y491500D02*
X1116500D01*
X1109000Y484000D02*
Y499000D01*
X1101500Y459500D02*
X1116500D01*
X1109000Y452000D02*
Y467000D01*
X1101500Y427500D02*
X1116500D01*
X1109000Y420000D02*
Y435000D01*
X1101500Y395500D02*
X1116500D01*
X1109000Y388000D02*
Y403000D01*
X1101500Y363500D02*
X1116500D01*
X1109000Y356000D02*
Y371000D01*
X997500Y364000D02*
X1012500D01*
X1005000Y356500D02*
Y371500D01*
X997500Y396000D02*
X1012500D01*
X1005000Y388500D02*
Y403500D01*
X997500Y428000D02*
X1012500D01*
X1005000Y420500D02*
Y435500D01*
X997500Y460000D02*
X1012500D01*
X1005000Y452500D02*
Y467500D01*
X997500Y492000D02*
X1012500D01*
X1005000Y484500D02*
Y499500D01*
X997500Y524000D02*
X1012500D01*
X1005000Y516500D02*
Y531500D01*
X3847000Y1857693D02*
X3862000D01*
X3854500Y1850193D02*
Y1865193D01*
X3847000Y1889693D02*
X3862000D01*
X3854500Y1882193D02*
Y1897193D01*
X3847000Y1921693D02*
X3862000D01*
X3854500Y1914193D02*
Y1929193D01*
X3847000Y1953693D02*
X3862000D01*
X3854500Y1946193D02*
Y1961193D01*
X3847000Y1985693D02*
X3862000D01*
X3854500Y1978193D02*
Y1993193D01*
X3847000Y2017693D02*
X3862000D01*
X3854500Y2010193D02*
Y2025193D01*
X3883000Y2017693D02*
X3898000D01*
X3890500Y2010193D02*
Y2025193D01*
X3883000Y1985693D02*
X3898000D01*
X3890500Y1978193D02*
Y1993193D01*
X3883000Y1953693D02*
X3898000D01*
X3890500Y1946193D02*
Y1961193D01*
X3883000Y1921693D02*
X3898000D01*
X3890500Y1914193D02*
Y1929193D01*
X3883000Y1889693D02*
X3898000D01*
X3890500Y1882193D02*
Y1897193D01*
X3883000Y1857693D02*
X3898000D01*
X3890500Y1850193D02*
Y1865193D01*
X3954500Y1857693D02*
X3969500D01*
X3962000Y1850193D02*
Y1865193D01*
X3954500Y1889693D02*
X3969500D01*
X3962000Y1882193D02*
Y1897193D01*
X3954500Y1921693D02*
X3969500D01*
X3962000Y1914193D02*
Y1929193D01*
X3954500Y1953693D02*
X3969500D01*
X3962000Y1946193D02*
Y1961193D01*
X3954500Y1985693D02*
X3969500D01*
X3962000Y1978193D02*
Y1993193D01*
X3954500Y2017693D02*
X3969500D01*
X3962000Y2010193D02*
Y2025193D01*
X3918500Y2017693D02*
X3933500D01*
X3926000Y2010193D02*
Y2025193D01*
X3918500Y1985693D02*
X3933500D01*
X3926000Y1978193D02*
Y1993193D01*
X3918500Y1953693D02*
X3933500D01*
X3926000Y1946193D02*
Y1961193D01*
X3918500Y1921693D02*
X3933500D01*
X3926000Y1914193D02*
Y1929193D01*
X3918500Y1889693D02*
X3933500D01*
X3926000Y1882193D02*
Y1897193D01*
X3918500Y1857693D02*
X3933500D01*
X3926000Y1850193D02*
Y1865193D01*
X3814500Y1858193D02*
X3829500D01*
X3822000Y1850693D02*
Y1865693D01*
X3814500Y1890193D02*
X3829500D01*
X3822000Y1882693D02*
Y1897693D01*
X3814500Y1922193D02*
X3829500D01*
X3822000Y1914693D02*
Y1929693D01*
X3814500Y1954193D02*
X3829500D01*
X3822000Y1946693D02*
Y1961693D01*
X3814500Y1986193D02*
X3829500D01*
X3822000Y1978693D02*
Y1993693D01*
X3814500Y2018193D02*
X3829500D01*
X3822000Y2010693D02*
Y2025693D01*
X3830500Y2085000D02*
X3845500D01*
X3838000Y2077500D02*
Y2092500D01*
X3830500Y2117000D02*
X3845500D01*
X3838000Y2109500D02*
Y2124500D01*
X3830500Y2149000D02*
X3845500D01*
X3838000Y2141500D02*
Y2156500D01*
X3830500Y2181000D02*
X3845500D01*
X3838000Y2173500D02*
Y2188500D01*
X3830500Y2213000D02*
X3845500D01*
X3838000Y2205500D02*
Y2220500D01*
X3830500Y2245000D02*
X3845500D01*
X3838000Y2237500D02*
Y2252500D01*
X3866500Y2245000D02*
X3881500D01*
X3874000Y2237500D02*
Y2252500D01*
X3866500Y2213000D02*
X3881500D01*
X3874000Y2205500D02*
Y2220500D01*
X3866500Y2181000D02*
X3881500D01*
X3874000Y2173500D02*
Y2188500D01*
X3866500Y2149000D02*
X3881500D01*
X3874000Y2141500D02*
Y2156500D01*
X3866500Y2117000D02*
X3881500D01*
X3874000Y2109500D02*
Y2124500D01*
X3866500Y2085000D02*
X3881500D01*
X3874000Y2077500D02*
Y2092500D01*
X3938000Y2085000D02*
X3953000D01*
X3945500Y2077500D02*
Y2092500D01*
X3938000Y2117000D02*
X3953000D01*
X3945500Y2109500D02*
Y2124500D01*
X3938000Y2149000D02*
X3953000D01*
X3945500Y2141500D02*
Y2156500D01*
X3938000Y2181000D02*
X3953000D01*
X3945500Y2173500D02*
Y2188500D01*
X3938000Y2213000D02*
X3953000D01*
X3945500Y2205500D02*
Y2220500D01*
X3938000Y2245000D02*
X3953000D01*
X3945500Y2237500D02*
Y2252500D01*
X3902000Y2245000D02*
X3917000D01*
X3909500Y2237500D02*
Y2252500D01*
X3902000Y2213000D02*
X3917000D01*
X3909500Y2205500D02*
Y2220500D01*
X3902000Y2181000D02*
X3917000D01*
X3909500Y2173500D02*
Y2188500D01*
X3902000Y2149000D02*
X3917000D01*
X3909500Y2141500D02*
Y2156500D01*
X3902000Y2117000D02*
X3917000D01*
X3909500Y2109500D02*
Y2124500D01*
X3902000Y2085000D02*
X3917000D01*
X3909500Y2077500D02*
Y2092500D01*
X3798000Y2085500D02*
X3813000D01*
X3805500Y2078000D02*
Y2093000D01*
X3798000Y2117500D02*
X3813000D01*
X3805500Y2110000D02*
Y2125000D01*
X3798000Y2149500D02*
X3813000D01*
X3805500Y2142000D02*
Y2157000D01*
X3798000Y2181500D02*
X3813000D01*
X3805500Y2174000D02*
Y2189000D01*
X3798000Y2213500D02*
X3813000D01*
X3805500Y2206000D02*
Y2221000D01*
X3798000Y2245500D02*
X3813000D01*
X3805500Y2238000D02*
Y2253000D01*
X2872000Y1313000D02*
X2887000D01*
X2879500Y1305500D02*
Y1320500D01*
X2872000Y1345000D02*
X2887000D01*
X2879500Y1337500D02*
Y1352500D01*
X2872000Y1377000D02*
X2887000D01*
X2879500Y1369500D02*
Y1384500D01*
X2872000Y1409000D02*
X2887000D01*
X2879500Y1401500D02*
Y1416500D01*
X2872000Y1441000D02*
X2887000D01*
X2879500Y1433500D02*
Y1448500D01*
X2872000Y1473000D02*
X2887000D01*
X2879500Y1465500D02*
Y1480500D01*
X2908000Y1473000D02*
X2923000D01*
X2915500Y1465500D02*
Y1480500D01*
X2908000Y1441000D02*
X2923000D01*
X2915500Y1433500D02*
Y1448500D01*
X2908000Y1409000D02*
X2923000D01*
X2915500Y1401500D02*
Y1416500D01*
X2908000Y1377000D02*
X2923000D01*
X2915500Y1369500D02*
Y1384500D01*
X2908000Y1345000D02*
X2923000D01*
X2915500Y1337500D02*
Y1352500D01*
X2908000Y1313000D02*
X2923000D01*
X2915500Y1305500D02*
Y1320500D01*
X2979500Y1313000D02*
X2994500D01*
X2987000Y1305500D02*
Y1320500D01*
X2979500Y1345000D02*
X2994500D01*
X2987000Y1337500D02*
Y1352500D01*
X2979500Y1377000D02*
X2994500D01*
X2987000Y1369500D02*
Y1384500D01*
X2979500Y1409000D02*
X2994500D01*
X2987000Y1401500D02*
Y1416500D01*
X2979500Y1441000D02*
X2994500D01*
X2987000Y1433500D02*
Y1448500D01*
X2979500Y1473000D02*
X2994500D01*
X2987000Y1465500D02*
Y1480500D01*
X2943500Y1473000D02*
X2958500D01*
X2951000Y1465500D02*
Y1480500D01*
X2943500Y1441000D02*
X2958500D01*
X2951000Y1433500D02*
Y1448500D01*
X2943500Y1409000D02*
X2958500D01*
X2951000Y1401500D02*
Y1416500D01*
X2943500Y1377000D02*
X2958500D01*
X2951000Y1369500D02*
Y1384500D01*
X2943500Y1345000D02*
X2958500D01*
X2951000Y1337500D02*
Y1352500D01*
X2943500Y1313000D02*
X2958500D01*
X2951000Y1305500D02*
Y1320500D01*
X2839500Y1313500D02*
X2854500D01*
X2847000Y1306000D02*
Y1321000D01*
X2839500Y1345500D02*
X2854500D01*
X2847000Y1338000D02*
Y1353000D01*
X2839500Y1377500D02*
X2854500D01*
X2847000Y1370000D02*
Y1385000D01*
X2839500Y1409500D02*
X2854500D01*
X2847000Y1402000D02*
Y1417000D01*
X2839500Y1441500D02*
X2854500D01*
X2847000Y1434000D02*
Y1449000D01*
X2839500Y1473500D02*
X2854500D01*
X2847000Y1466000D02*
Y1481000D01*
X1673500Y1493543D02*
X1688500D01*
X1681000Y1486043D02*
Y1501043D01*
X1709000Y1493543D02*
X1724000D01*
X1716500Y1486043D02*
Y1501043D01*
X1709000Y1525543D02*
X1724000D01*
X1716500Y1518043D02*
Y1533043D01*
X1745000Y1525543D02*
X1760000D01*
X1752500Y1518043D02*
Y1533043D01*
X1745000Y1557543D02*
X1760000D01*
X1752500Y1550043D02*
Y1565043D01*
X3482000Y2738500D02*
X3497000D01*
X3489500Y2731000D02*
Y2746000D01*
X3482000Y2706500D02*
X3497000D01*
X3489500Y2699000D02*
Y2714000D01*
X3482000Y2674500D02*
X3497000D01*
X3489500Y2667000D02*
Y2682000D01*
X3482000Y2642500D02*
X3497000D01*
X3489500Y2635000D02*
Y2650000D01*
X3482000Y2610500D02*
X3497000D01*
X3489500Y2603000D02*
Y2618000D01*
X3482000Y2578500D02*
X3497000D01*
X3489500Y2571000D02*
Y2586000D01*
X3586000Y2578000D02*
X3601000D01*
X3593500Y2570500D02*
Y2585500D01*
X3586000Y2610000D02*
X3601000D01*
X3593500Y2602500D02*
Y2617500D01*
X3586000Y2642000D02*
X3601000D01*
X3593500Y2634500D02*
Y2649500D01*
X3586000Y2674000D02*
X3601000D01*
X3593500Y2666500D02*
Y2681500D01*
X3586000Y2706000D02*
X3601000D01*
X3593500Y2698500D02*
Y2713500D01*
X3586000Y2738000D02*
X3601000D01*
X3593500Y2730500D02*
Y2745500D01*
X3622000Y2738000D02*
X3637000D01*
X3629500Y2730500D02*
Y2745500D01*
X3622000Y2706000D02*
X3637000D01*
X3629500Y2698500D02*
Y2713500D01*
X3622000Y2674000D02*
X3637000D01*
X3629500Y2666500D02*
Y2681500D01*
X3622000Y2642000D02*
X3637000D01*
X3629500Y2634500D02*
Y2649500D01*
X3622000Y2610000D02*
X3637000D01*
X3629500Y2602500D02*
Y2617500D01*
X3622000Y2578000D02*
X3637000D01*
X3629500Y2570500D02*
Y2585500D01*
X3550500Y2578000D02*
X3565500D01*
X3558000Y2570500D02*
Y2585500D01*
X3550500Y2610000D02*
X3565500D01*
X3558000Y2602500D02*
Y2617500D01*
X3550500Y2642000D02*
X3565500D01*
X3558000Y2634500D02*
Y2649500D01*
X3550500Y2674000D02*
X3565500D01*
X3558000Y2666500D02*
Y2681500D01*
X3550500Y2706000D02*
X3565500D01*
X3558000Y2698500D02*
Y2713500D01*
X3550500Y2738000D02*
X3565500D01*
X3558000Y2730500D02*
Y2745500D01*
X3514500Y2738000D02*
X3529500D01*
X3522000Y2730500D02*
Y2745500D01*
X3514500Y2706000D02*
X3529500D01*
X3522000Y2698500D02*
Y2713500D01*
X3514500Y2674000D02*
X3529500D01*
X3522000Y2666500D02*
Y2681500D01*
X3514500Y2642000D02*
X3529500D01*
X3522000Y2634500D02*
Y2649500D01*
X3514500Y2610000D02*
X3529500D01*
X3522000Y2602500D02*
Y2617500D01*
X3514500Y2578000D02*
X3529500D01*
X3522000Y2570500D02*
Y2585500D01*
X3095650Y2733500D02*
X3110650D01*
X3103150Y2726000D02*
Y2741000D01*
X3095650Y2701500D02*
X3110650D01*
X3103150Y2694000D02*
Y2709000D01*
X3095650Y2669500D02*
X3110650D01*
X3103150Y2662000D02*
Y2677000D01*
X3095650Y2637500D02*
X3110650D01*
X3103150Y2630000D02*
Y2645000D01*
X3095650Y2605500D02*
X3110650D01*
X3103150Y2598000D02*
Y2613000D01*
X3095650Y2573500D02*
X3110650D01*
X3103150Y2566000D02*
Y2581000D01*
X3199650Y2573000D02*
X3214650D01*
X3207150Y2565500D02*
Y2580500D01*
X3199650Y2605000D02*
X3214650D01*
X3207150Y2597500D02*
Y2612500D01*
X3199650Y2637000D02*
X3214650D01*
X3207150Y2629500D02*
Y2644500D01*
X3199650Y2669000D02*
X3214650D01*
X3207150Y2661500D02*
Y2676500D01*
X3199650Y2701000D02*
X3214650D01*
X3207150Y2693500D02*
Y2708500D01*
X3199650Y2733000D02*
X3214650D01*
X3207150Y2725500D02*
Y2740500D01*
X3235650Y2733000D02*
X3250650D01*
X3243150Y2725500D02*
Y2740500D01*
X3235650Y2701000D02*
X3250650D01*
X3243150Y2693500D02*
Y2708500D01*
X3235650Y2669000D02*
X3250650D01*
X3243150Y2661500D02*
Y2676500D01*
X3235650Y2637000D02*
X3250650D01*
X3243150Y2629500D02*
Y2644500D01*
X3235650Y2605000D02*
X3250650D01*
X3243150Y2597500D02*
Y2612500D01*
X3235650Y2573000D02*
X3250650D01*
X3243150Y2565500D02*
Y2580500D01*
X3164150Y2573000D02*
X3179150D01*
X3171650Y2565500D02*
Y2580500D01*
X3164150Y2605000D02*
X3179150D01*
X3171650Y2597500D02*
Y2612500D01*
X3164150Y2637000D02*
X3179150D01*
X3171650Y2629500D02*
Y2644500D01*
X3164150Y2669000D02*
X3179150D01*
X3171650Y2661500D02*
Y2676500D01*
X3164150Y2701000D02*
X3179150D01*
X3171650Y2693500D02*
Y2708500D01*
X3164150Y2733000D02*
X3179150D01*
X3171650Y2725500D02*
Y2740500D01*
X3128150Y2733000D02*
X3143150D01*
X3135650Y2725500D02*
Y2740500D01*
X3128150Y2701000D02*
X3143150D01*
X3135650Y2693500D02*
Y2708500D01*
X3128150Y2669000D02*
X3143150D01*
X3135650Y2661500D02*
Y2676500D01*
X3128150Y2637000D02*
X3143150D01*
X3135650Y2629500D02*
Y2644500D01*
X3128150Y2605000D02*
X3143150D01*
X3135650Y2597500D02*
Y2612500D01*
X3128150Y2573000D02*
X3143150D01*
X3135650Y2565500D02*
Y2580500D01*
X2726524Y2733500D02*
X2741524D01*
X2734024Y2726000D02*
Y2741000D01*
X2726524Y2701500D02*
X2741524D01*
X2734024Y2694000D02*
Y2709000D01*
X2726524Y2669500D02*
X2741524D01*
X2734024Y2662000D02*
Y2677000D01*
X2726524Y2637500D02*
X2741524D01*
X2734024Y2630000D02*
Y2645000D01*
X2726524Y2605500D02*
X2741524D01*
X2734024Y2598000D02*
Y2613000D01*
X2726524Y2573500D02*
X2741524D01*
X2734024Y2566000D02*
Y2581000D01*
X2830524Y2573000D02*
X2845524D01*
X2838024Y2565500D02*
Y2580500D01*
X2830524Y2605000D02*
X2845524D01*
X2838024Y2597500D02*
Y2612500D01*
X2830524Y2637000D02*
X2845524D01*
X2838024Y2629500D02*
Y2644500D01*
X2830524Y2669000D02*
X2845524D01*
X2838024Y2661500D02*
Y2676500D01*
X2830524Y2701000D02*
X2845524D01*
X2838024Y2693500D02*
Y2708500D01*
X2830524Y2733000D02*
X2845524D01*
X2838024Y2725500D02*
Y2740500D01*
X2866524Y2733000D02*
X2881524D01*
X2874024Y2725500D02*
Y2740500D01*
X2866524Y2701000D02*
X2881524D01*
X2874024Y2693500D02*
Y2708500D01*
X2866524Y2669000D02*
X2881524D01*
X2874024Y2661500D02*
Y2676500D01*
X2866524Y2637000D02*
X2881524D01*
X2874024Y2629500D02*
Y2644500D01*
X2866524Y2605000D02*
X2881524D01*
X2874024Y2597500D02*
Y2612500D01*
X2866524Y2573000D02*
X2881524D01*
X2874024Y2565500D02*
Y2580500D01*
X2795024Y2573000D02*
X2810024D01*
X2802524Y2565500D02*
Y2580500D01*
X2795024Y2605000D02*
X2810024D01*
X2802524Y2597500D02*
Y2612500D01*
X2795024Y2637000D02*
X2810024D01*
X2802524Y2629500D02*
Y2644500D01*
X2795024Y2669000D02*
X2810024D01*
X2802524Y2661500D02*
Y2676500D01*
X2795024Y2701000D02*
X2810024D01*
X2802524Y2693500D02*
Y2708500D01*
X2795024Y2733000D02*
X2810024D01*
X2802524Y2725500D02*
Y2740500D01*
X2759024Y2733000D02*
X2774024D01*
X2766524Y2725500D02*
Y2740500D01*
X2759024Y2701000D02*
X2774024D01*
X2766524Y2693500D02*
Y2708500D01*
X2759024Y2669000D02*
X2774024D01*
X2766524Y2661500D02*
Y2676500D01*
X2759024Y2637000D02*
X2774024D01*
X2766524Y2629500D02*
Y2644500D01*
X2759024Y2605000D02*
X2774024D01*
X2766524Y2597500D02*
Y2612500D01*
X2759024Y2573000D02*
X2774024D01*
X2766524Y2565500D02*
Y2580500D01*
X2357500Y2738000D02*
X2372500D01*
X2365000Y2730500D02*
Y2745500D01*
X2357500Y2706000D02*
X2372500D01*
X2365000Y2698500D02*
Y2713500D01*
X2357500Y2674000D02*
X2372500D01*
X2365000Y2666500D02*
Y2681500D01*
X2357500Y2642000D02*
X2372500D01*
X2365000Y2634500D02*
Y2649500D01*
X2357500Y2610000D02*
X2372500D01*
X2365000Y2602500D02*
Y2617500D01*
X2357500Y2578000D02*
X2372500D01*
X2365000Y2570500D02*
Y2585500D01*
X2461500Y2577500D02*
X2476500D01*
X2469000Y2570000D02*
Y2585000D01*
X2461500Y2609500D02*
X2476500D01*
X2469000Y2602000D02*
Y2617000D01*
X2461500Y2641500D02*
X2476500D01*
X2469000Y2634000D02*
Y2649000D01*
X2461500Y2673500D02*
X2476500D01*
X2469000Y2666000D02*
Y2681000D01*
X2461500Y2705500D02*
X2476500D01*
X2469000Y2698000D02*
Y2713000D01*
X2461500Y2737500D02*
X2476500D01*
X2469000Y2730000D02*
Y2745000D01*
X2497500Y2737500D02*
X2512500D01*
X2505000Y2730000D02*
Y2745000D01*
X2497500Y2705500D02*
X2512500D01*
X2505000Y2698000D02*
Y2713000D01*
X2497500Y2673500D02*
X2512500D01*
X2505000Y2666000D02*
Y2681000D01*
X2497500Y2641500D02*
X2512500D01*
X2505000Y2634000D02*
Y2649000D01*
X2497500Y2609500D02*
X2512500D01*
X2505000Y2602000D02*
Y2617000D01*
X2497500Y2577500D02*
X2512500D01*
X2505000Y2570000D02*
Y2585000D01*
X2426000Y2577500D02*
X2441000D01*
X2433500Y2570000D02*
Y2585000D01*
X2426000Y2609500D02*
X2441000D01*
X2433500Y2602000D02*
Y2617000D01*
X2426000Y2641500D02*
X2441000D01*
X2433500Y2634000D02*
Y2649000D01*
X2426000Y2673500D02*
X2441000D01*
X2433500Y2666000D02*
Y2681000D01*
X2426000Y2705500D02*
X2441000D01*
X2433500Y2698000D02*
Y2713000D01*
X2426000Y2737500D02*
X2441000D01*
X2433500Y2730000D02*
Y2745000D01*
X2390000Y2737500D02*
X2405000D01*
X2397500Y2730000D02*
Y2745000D01*
X2390000Y2705500D02*
X2405000D01*
X2397500Y2698000D02*
Y2713000D01*
X2390000Y2673500D02*
X2405000D01*
X2397500Y2666000D02*
Y2681000D01*
X2390000Y2641500D02*
X2405000D01*
X2397500Y2634000D02*
Y2649000D01*
X2390000Y2609500D02*
X2405000D01*
X2397500Y2602000D02*
Y2617000D01*
X2390000Y2577500D02*
X2405000D01*
X2397500Y2570000D02*
Y2585000D01*
X3574500Y1471396D02*
X3589500D01*
X3582000Y1463896D02*
Y1478896D01*
X3574500Y1439396D02*
X3589500D01*
X3582000Y1431896D02*
Y1446896D01*
X3574500Y1407396D02*
X3589500D01*
X3582000Y1399896D02*
Y1414896D01*
X3574500Y1375396D02*
X3589500D01*
X3582000Y1367896D02*
Y1382896D01*
X3574500Y1343396D02*
X3589500D01*
X3582000Y1335896D02*
Y1350896D01*
X3574500Y1311396D02*
X3589500D01*
X3582000Y1303896D02*
Y1318896D01*
X3678500Y1310896D02*
X3693500D01*
X3686000Y1303396D02*
Y1318396D01*
X3678500Y1342896D02*
X3693500D01*
X3686000Y1335396D02*
Y1350396D01*
X3678500Y1374896D02*
X3693500D01*
X3686000Y1367396D02*
Y1382396D01*
X3678500Y1406896D02*
X3693500D01*
X3686000Y1399396D02*
Y1414396D01*
X3678500Y1438896D02*
X3693500D01*
X3686000Y1431396D02*
Y1446396D01*
X3678500Y1470896D02*
X3693500D01*
X3686000Y1463396D02*
Y1478396D01*
X3714500Y1470896D02*
X3729500D01*
X3722000Y1463396D02*
Y1478396D01*
X3714500Y1438896D02*
X3729500D01*
X3722000Y1431396D02*
Y1446396D01*
X3714500Y1406896D02*
X3729500D01*
X3722000Y1399396D02*
Y1414396D01*
X3714500Y1374896D02*
X3729500D01*
X3722000Y1367396D02*
Y1382396D01*
X3714500Y1342896D02*
X3729500D01*
X3722000Y1335396D02*
Y1350396D01*
X3714500Y1310896D02*
X3729500D01*
X3722000Y1303396D02*
Y1318396D01*
X3643000Y1310896D02*
X3658000D01*
X3650500Y1303396D02*
Y1318396D01*
X3643000Y1342896D02*
X3658000D01*
X3650500Y1335396D02*
Y1350396D01*
X3643000Y1374896D02*
X3658000D01*
X3650500Y1367396D02*
Y1382396D01*
X3643000Y1406896D02*
X3658000D01*
X3650500Y1399396D02*
Y1414396D01*
X3643000Y1438896D02*
X3658000D01*
X3650500Y1431396D02*
Y1446396D01*
X3643000Y1470896D02*
X3658000D01*
X3650500Y1463396D02*
Y1478396D01*
X3607000Y1470896D02*
X3622000D01*
X3614500Y1463396D02*
Y1478396D01*
X3607000Y1438896D02*
X3622000D01*
X3614500Y1431396D02*
Y1446396D01*
X3607000Y1406896D02*
X3622000D01*
X3614500Y1399396D02*
Y1414396D01*
X3607000Y1374896D02*
X3622000D01*
X3614500Y1367396D02*
Y1382396D01*
X3607000Y1342896D02*
X3622000D01*
X3614500Y1335396D02*
Y1350396D01*
X3607000Y1310896D02*
X3622000D01*
X3614500Y1303396D02*
Y1318396D01*
X3207500Y1470617D02*
X3222500D01*
X3215000Y1463117D02*
Y1478117D01*
X3207500Y1438617D02*
X3222500D01*
X3215000Y1431117D02*
Y1446117D01*
X3207500Y1406617D02*
X3222500D01*
X3215000Y1399117D02*
Y1414117D01*
X3207500Y1374617D02*
X3222500D01*
X3215000Y1367117D02*
Y1382117D01*
X3207500Y1342617D02*
X3222500D01*
X3215000Y1335117D02*
Y1350117D01*
X3207500Y1310617D02*
X3222500D01*
X3215000Y1303117D02*
Y1318117D01*
X3311500Y1310117D02*
X3326500D01*
X3319000Y1302617D02*
Y1317617D01*
X3311500Y1342117D02*
X3326500D01*
X3319000Y1334617D02*
Y1349617D01*
X3311500Y1374117D02*
X3326500D01*
X3319000Y1366617D02*
Y1381617D01*
X3311500Y1406117D02*
X3326500D01*
X3319000Y1398617D02*
Y1413617D01*
X3311500Y1438117D02*
X3326500D01*
X3319000Y1430617D02*
Y1445617D01*
X3311500Y1470117D02*
X3326500D01*
X3319000Y1462617D02*
Y1477617D01*
X3347500Y1470117D02*
X3362500D01*
X3355000Y1462617D02*
Y1477617D01*
X3347500Y1438117D02*
X3362500D01*
X3355000Y1430617D02*
Y1445617D01*
X3347500Y1406117D02*
X3362500D01*
X3355000Y1398617D02*
Y1413617D01*
X3347500Y1374117D02*
X3362500D01*
X3355000Y1366617D02*
Y1381617D01*
X3347500Y1342117D02*
X3362500D01*
X3355000Y1334617D02*
Y1349617D01*
X3347500Y1310117D02*
X3362500D01*
X3355000Y1302617D02*
Y1317617D01*
X3276000Y1310117D02*
X3291000D01*
X3283500Y1302617D02*
Y1317617D01*
X3276000Y1342117D02*
X3291000D01*
X3283500Y1334617D02*
Y1349617D01*
X3276000Y1374117D02*
X3291000D01*
X3283500Y1366617D02*
Y1381617D01*
X3276000Y1406117D02*
X3291000D01*
X3283500Y1398617D02*
Y1413617D01*
X3276000Y1438117D02*
X3291000D01*
X3283500Y1430617D02*
Y1445617D01*
X3276000Y1470117D02*
X3291000D01*
X3283500Y1462617D02*
Y1477617D01*
X3240000Y1470117D02*
X3255000D01*
X3247500Y1462617D02*
Y1477617D01*
X3240000Y1438117D02*
X3255000D01*
X3247500Y1430617D02*
Y1445617D01*
X3240000Y1406117D02*
X3255000D01*
X3247500Y1398617D02*
Y1413617D01*
X3240000Y1374117D02*
X3255000D01*
X3247500Y1366617D02*
Y1381617D01*
X3240000Y1342117D02*
X3255000D01*
X3247500Y1334617D02*
Y1349617D01*
X3240000Y1310117D02*
X3255000D01*
X3247500Y1302617D02*
Y1317617D01*
X2473500Y1471000D02*
X2488500D01*
X2481000Y1463500D02*
Y1478500D01*
X2473500Y1439000D02*
X2488500D01*
X2481000Y1431500D02*
Y1446500D01*
X2473500Y1407000D02*
X2488500D01*
X2481000Y1399500D02*
Y1414500D01*
X2473500Y1375000D02*
X2488500D01*
X2481000Y1367500D02*
Y1382500D01*
X2473500Y1343000D02*
X2488500D01*
X2481000Y1335500D02*
Y1350500D01*
X2473500Y1311000D02*
X2488500D01*
X2481000Y1303500D02*
Y1318500D01*
X2577500Y1310500D02*
X2592500D01*
X2585000Y1303000D02*
Y1318000D01*
X2577500Y1342500D02*
X2592500D01*
X2585000Y1335000D02*
Y1350000D01*
X2577500Y1374500D02*
X2592500D01*
X2585000Y1367000D02*
Y1382000D01*
X2577500Y1406500D02*
X2592500D01*
X2585000Y1399000D02*
Y1414000D01*
X2577500Y1438500D02*
X2592500D01*
X2585000Y1431000D02*
Y1446000D01*
X2577500Y1470500D02*
X2592500D01*
X2585000Y1463000D02*
Y1478000D01*
X2613500Y1470500D02*
X2628500D01*
X2621000Y1463000D02*
Y1478000D01*
X2613500Y1438500D02*
X2628500D01*
X2621000Y1431000D02*
Y1446000D01*
X2613500Y1406500D02*
X2628500D01*
X2621000Y1399000D02*
Y1414000D01*
X2613500Y1374500D02*
X2628500D01*
X2621000Y1367000D02*
Y1382000D01*
X2613500Y1342500D02*
X2628500D01*
X2621000Y1335000D02*
Y1350000D01*
X2613500Y1310500D02*
X2628500D01*
X2621000Y1303000D02*
Y1318000D01*
X2542000Y1310500D02*
X2557000D01*
X2549500Y1303000D02*
Y1318000D01*
X2542000Y1342500D02*
X2557000D01*
X2549500Y1335000D02*
Y1350000D01*
X2542000Y1374500D02*
X2557000D01*
X2549500Y1367000D02*
Y1382000D01*
X2542000Y1406500D02*
X2557000D01*
X2549500Y1399000D02*
Y1414000D01*
X2542000Y1438500D02*
X2557000D01*
X2549500Y1431000D02*
Y1446000D01*
X2542000Y1470500D02*
X2557000D01*
X2549500Y1463000D02*
Y1478000D01*
X2506000Y1470500D02*
X2521000D01*
X2513500Y1463000D02*
Y1478000D01*
X2506000Y1438500D02*
X2521000D01*
X2513500Y1431000D02*
Y1446000D01*
X2506000Y1406500D02*
X2521000D01*
X2513500Y1399000D02*
Y1414000D01*
X2506000Y1374500D02*
X2521000D01*
X2513500Y1367000D02*
Y1382000D01*
X2506000Y1342500D02*
X2521000D01*
X2513500Y1335000D02*
Y1350000D01*
X2506000Y1310500D02*
X2521000D01*
X2513500Y1303000D02*
Y1318000D01*
X2103500Y1557500D02*
X2118500D01*
X2111000Y1550000D02*
Y1565000D01*
X2103500Y1525500D02*
X2118500D01*
X2111000Y1518000D02*
Y1533000D01*
X2103500Y1493500D02*
X2118500D01*
X2111000Y1486000D02*
Y1501000D01*
X2103500Y1461500D02*
X2118500D01*
X2111000Y1454000D02*
Y1469000D01*
X2103500Y1429500D02*
X2118500D01*
X2111000Y1422000D02*
Y1437000D01*
X2103500Y1397500D02*
X2118500D01*
X2111000Y1390000D02*
Y1405000D01*
X2207500Y1397000D02*
X2222500D01*
X2215000Y1389500D02*
Y1404500D01*
X2207500Y1429000D02*
X2222500D01*
X2215000Y1421500D02*
Y1436500D01*
X2207500Y1461000D02*
X2222500D01*
X2215000Y1453500D02*
Y1468500D01*
X2207500Y1493000D02*
X2222500D01*
X2215000Y1485500D02*
Y1500500D01*
X2207500Y1525000D02*
X2222500D01*
X2215000Y1517500D02*
Y1532500D01*
X2207500Y1557000D02*
X2222500D01*
X2215000Y1549500D02*
Y1564500D01*
X2243500Y1557000D02*
X2258500D01*
X2251000Y1549500D02*
Y1564500D01*
X2243500Y1525000D02*
X2258500D01*
X2251000Y1517500D02*
Y1532500D01*
X2243500Y1493000D02*
X2258500D01*
X2251000Y1485500D02*
Y1500500D01*
X2243500Y1461000D02*
X2258500D01*
X2251000Y1453500D02*
Y1468500D01*
X2243500Y1429000D02*
X2258500D01*
X2251000Y1421500D02*
Y1436500D01*
X2243500Y1397000D02*
X2258500D01*
X2251000Y1389500D02*
Y1404500D01*
X2172000Y1397000D02*
X2187000D01*
X2179500Y1389500D02*
Y1404500D01*
X2172000Y1429000D02*
X2187000D01*
X2179500Y1421500D02*
Y1436500D01*
X2172000Y1461000D02*
X2187000D01*
X2179500Y1453500D02*
Y1468500D01*
X2172000Y1493000D02*
X2187000D01*
X2179500Y1485500D02*
Y1500500D01*
X2172000Y1525000D02*
X2187000D01*
X2179500Y1517500D02*
Y1532500D01*
X2172000Y1557000D02*
X2187000D01*
X2179500Y1549500D02*
Y1564500D01*
X2136000Y1557000D02*
X2151000D01*
X2143500Y1549500D02*
Y1564500D01*
X2136000Y1525000D02*
X2151000D01*
X2143500Y1517500D02*
Y1532500D01*
X2136000Y1493000D02*
X2151000D01*
X2143500Y1485500D02*
Y1500500D01*
X2136000Y1461000D02*
X2151000D01*
X2143500Y1453500D02*
Y1468500D01*
X2136000Y1429000D02*
X2151000D01*
X2143500Y1421500D02*
Y1436500D01*
X2136000Y1397000D02*
X2151000D01*
X2143500Y1389500D02*
Y1404500D01*
X1605000Y1398043D02*
X1620000D01*
X1612500Y1390543D02*
Y1405543D01*
X1637500Y1397543D02*
X1652500D01*
X1645000Y1390043D02*
Y1405043D01*
X1673500Y1397543D02*
X1688500D01*
X1681000Y1390043D02*
Y1405043D01*
X1709000Y1397543D02*
X1724000D01*
X1716500Y1390043D02*
Y1405043D01*
X1883500Y1397637D02*
X1898500D01*
X1891000Y1390137D02*
Y1405137D01*
X1883500Y1429637D02*
X1898500D01*
X1891000Y1422137D02*
Y1437137D01*
X1883500Y1461637D02*
X1898500D01*
X1891000Y1454137D02*
Y1469137D01*
X1883500Y1493637D02*
X1898500D01*
X1891000Y1486137D02*
Y1501137D01*
X1883500Y1525637D02*
X1898500D01*
X1891000Y1518137D02*
Y1533137D01*
X1883500Y1557637D02*
X1898500D01*
X1891000Y1550137D02*
Y1565137D01*
X1919500Y1557637D02*
X1934500D01*
X1927000Y1550137D02*
Y1565137D01*
X1919500Y1525637D02*
X1934500D01*
X1927000Y1518137D02*
Y1533137D01*
X1919500Y1493637D02*
X1934500D01*
X1927000Y1486137D02*
Y1501137D01*
X1919500Y1461637D02*
X1934500D01*
X1927000Y1454137D02*
Y1469137D01*
X1919500Y1429637D02*
X1934500D01*
X1927000Y1422137D02*
Y1437137D01*
X1919500Y1397637D02*
X1934500D01*
X1927000Y1390137D02*
Y1405137D01*
X1991000Y1397637D02*
X2006000D01*
X1998500Y1390137D02*
Y1405137D01*
X1991000Y1429637D02*
X2006000D01*
X1998500Y1422137D02*
Y1437137D01*
X1991000Y1461637D02*
X2006000D01*
X1998500Y1454137D02*
Y1469137D01*
X1991000Y1493637D02*
X2006000D01*
X1998500Y1486137D02*
Y1501137D01*
X1991000Y1525637D02*
X2006000D01*
X1998500Y1518137D02*
Y1533137D01*
X1991000Y1557637D02*
X2006000D01*
X1998500Y1550137D02*
Y1565137D01*
X1955000Y1557637D02*
X1970000D01*
X1962500Y1550137D02*
Y1565137D01*
X1955000Y1525637D02*
X1970000D01*
X1962500Y1518137D02*
Y1533137D01*
X1955000Y1493637D02*
X1970000D01*
X1962500Y1486137D02*
Y1501137D01*
X1955000Y1461637D02*
X1970000D01*
X1962500Y1454137D02*
Y1469137D01*
X1955000Y1429637D02*
X1970000D01*
X1962500Y1422137D02*
Y1437137D01*
X1955000Y1397637D02*
X1970000D01*
X1962500Y1390137D02*
Y1405137D01*
X1851000Y1398137D02*
X1866000D01*
X1858500Y1390637D02*
Y1405637D01*
X1851000Y1430137D02*
X1866000D01*
X1858500Y1422637D02*
Y1437637D01*
X1851000Y1462137D02*
X1866000D01*
X1858500Y1454637D02*
Y1469637D01*
X1851000Y1494137D02*
X1866000D01*
X1858500Y1486637D02*
Y1501637D01*
X1851000Y1526137D02*
X1866000D01*
X1858500Y1518637D02*
Y1533637D01*
X1851000Y1558137D02*
X1866000D01*
X1858500Y1550637D02*
Y1565637D01*
X1390000Y1398043D02*
X1405000D01*
X1397500Y1390543D02*
Y1405543D01*
X1390000Y1430043D02*
X1405000D01*
X1397500Y1422543D02*
Y1437543D01*
X1390000Y1462043D02*
X1405000D01*
X1397500Y1454543D02*
Y1469543D01*
X1390000Y1494043D02*
X1405000D01*
X1397500Y1486543D02*
Y1501543D01*
X1390000Y1526043D02*
X1405000D01*
X1397500Y1518543D02*
Y1533543D01*
X1390000Y1558043D02*
X1405000D01*
X1397500Y1550543D02*
Y1565543D01*
X1426000Y1558043D02*
X1441000D01*
X1433500Y1550543D02*
Y1565543D01*
X1426000Y1526043D02*
X1441000D01*
X1433500Y1518543D02*
Y1533543D01*
X1426000Y1494043D02*
X1441000D01*
X1433500Y1486543D02*
Y1501543D01*
X1426000Y1462043D02*
X1441000D01*
X1433500Y1454543D02*
Y1469543D01*
X1426000Y1430043D02*
X1441000D01*
X1433500Y1422543D02*
Y1437543D01*
X1426000Y1398043D02*
X1441000D01*
X1433500Y1390543D02*
Y1405543D01*
X1497500Y1398043D02*
X1512500D01*
X1505000Y1390543D02*
Y1405543D01*
X1497500Y1430043D02*
X1512500D01*
X1505000Y1422543D02*
Y1437543D01*
X1497500Y1462043D02*
X1512500D01*
X1505000Y1454543D02*
Y1469543D01*
X1497500Y1494043D02*
X1512500D01*
X1505000Y1486543D02*
Y1501543D01*
X1497500Y1526043D02*
X1512500D01*
X1505000Y1518543D02*
Y1533543D01*
X1497500Y1558043D02*
X1512500D01*
X1505000Y1550543D02*
Y1565543D01*
X1461500Y1558043D02*
X1476500D01*
X1469000Y1550543D02*
Y1565543D01*
X1461500Y1526043D02*
X1476500D01*
X1469000Y1518543D02*
Y1533543D01*
X1461500Y1494043D02*
X1476500D01*
X1469000Y1486543D02*
Y1501543D01*
X1461500Y1462043D02*
X1476500D01*
X1469000Y1454543D02*
Y1469543D01*
X1461500Y1430043D02*
X1476500D01*
X1469000Y1422543D02*
Y1437543D01*
X1461500Y1398043D02*
X1476500D01*
X1469000Y1390543D02*
Y1405543D01*
X1357500Y1398543D02*
X1372500D01*
X1365000Y1391043D02*
Y1406043D01*
X1357500Y1430543D02*
X1372500D01*
X1365000Y1423043D02*
Y1438043D01*
X1357500Y1462543D02*
X1372500D01*
X1365000Y1455043D02*
Y1470043D01*
X1357500Y1494543D02*
X1372500D01*
X1365000Y1487043D02*
Y1502043D01*
X1357500Y1526543D02*
X1372500D01*
X1365000Y1519043D02*
Y1534043D01*
X1357500Y1558543D02*
X1372500D01*
X1365000Y1551043D02*
Y1566043D01*
X1605000Y1558043D02*
X1620000D01*
X1612500Y1550543D02*
Y1565543D01*
X1605000Y1526043D02*
X1620000D01*
X1612500Y1518543D02*
Y1533543D01*
X1605000Y1494043D02*
X1620000D01*
X1612500Y1486543D02*
Y1501543D01*
X1605000Y1462043D02*
X1620000D01*
X1612500Y1454543D02*
Y1469543D01*
X1605000Y1430043D02*
X1620000D01*
X1612500Y1422543D02*
Y1437543D01*
X1709000Y1429543D02*
X1724000D01*
X1716500Y1422043D02*
Y1437043D01*
X1709000Y1461543D02*
X1724000D01*
X1716500Y1454043D02*
Y1469043D01*
X1709000Y1557543D02*
X1724000D01*
X1716500Y1550043D02*
Y1565043D01*
X1745000Y1493543D02*
X1760000D01*
X1752500Y1486043D02*
Y1501043D01*
X1745000Y1461543D02*
X1760000D01*
X1752500Y1454043D02*
Y1469043D01*
X1745000Y1429543D02*
X1760000D01*
X1752500Y1422043D02*
Y1437043D01*
X1745000Y1397543D02*
X1760000D01*
X1752500Y1390043D02*
Y1405043D01*
X1673500Y1429543D02*
X1688500D01*
X1681000Y1422043D02*
Y1437043D01*
X1673500Y1461543D02*
X1688500D01*
X1681000Y1454043D02*
Y1469043D01*
X1673500Y1525543D02*
X1688500D01*
X1681000Y1518043D02*
Y1533043D01*
X1673500Y1557543D02*
X1688500D01*
X1681000Y1550043D02*
Y1565043D01*
X1637500Y1557543D02*
X1652500D01*
X1645000Y1550043D02*
Y1565043D01*
X1637500Y1525543D02*
X1652500D01*
X1645000Y1518043D02*
Y1533043D01*
X1637500Y1493543D02*
X1652500D01*
X1645000Y1486043D02*
Y1501043D01*
X1637500Y1461543D02*
X1652500D01*
X1645000Y1454043D02*
Y1469043D01*
X1637500Y1429543D02*
X1652500D01*
X1645000Y1422043D02*
Y1437043D01*
X1891500Y2508000D02*
X1906500D01*
X1899000Y2500500D02*
Y2515500D01*
X1891500Y2540000D02*
X1906500D01*
X1899000Y2532500D02*
Y2547500D01*
X1891500Y2572000D02*
X1906500D01*
X1899000Y2564500D02*
Y2579500D01*
X1891500Y2604000D02*
X1906500D01*
X1899000Y2596500D02*
Y2611500D01*
X1891500Y2636000D02*
X1906500D01*
X1899000Y2628500D02*
Y2643500D01*
X1891500Y2668000D02*
X1906500D01*
X1899000Y2660500D02*
Y2675500D01*
X1927500Y2668000D02*
X1942500D01*
X1935000Y2660500D02*
Y2675500D01*
X1927500Y2636000D02*
X1942500D01*
X1935000Y2628500D02*
Y2643500D01*
X1927500Y2604000D02*
X1942500D01*
X1935000Y2596500D02*
Y2611500D01*
X1927500Y2572000D02*
X1942500D01*
X1935000Y2564500D02*
Y2579500D01*
X1927500Y2540000D02*
X1942500D01*
X1935000Y2532500D02*
Y2547500D01*
X1927500Y2508000D02*
X1942500D01*
X1935000Y2500500D02*
Y2515500D01*
X1999000Y2508000D02*
X2014000D01*
X2006500Y2500500D02*
Y2515500D01*
X1999000Y2540000D02*
X2014000D01*
X2006500Y2532500D02*
Y2547500D01*
X1999000Y2572000D02*
X2014000D01*
X2006500Y2564500D02*
Y2579500D01*
X1999000Y2604000D02*
X2014000D01*
X2006500Y2596500D02*
Y2611500D01*
X1999000Y2636000D02*
X2014000D01*
X2006500Y2628500D02*
Y2643500D01*
X1999000Y2668000D02*
X2014000D01*
X2006500Y2660500D02*
Y2675500D01*
X1963000Y2668000D02*
X1978000D01*
X1970500Y2660500D02*
Y2675500D01*
X1963000Y2636000D02*
X1978000D01*
X1970500Y2628500D02*
Y2643500D01*
X1963000Y2604000D02*
X1978000D01*
X1970500Y2596500D02*
Y2611500D01*
X1963000Y2572000D02*
X1978000D01*
X1970500Y2564500D02*
Y2579500D01*
X1963000Y2540000D02*
X1978000D01*
X1970500Y2532500D02*
Y2547500D01*
X1963000Y2508000D02*
X1978000D01*
X1970500Y2500500D02*
Y2515500D01*
X1859000Y2508500D02*
X1874000D01*
X1866500Y2501000D02*
Y2516000D01*
X1859000Y2540500D02*
X1874000D01*
X1866500Y2533000D02*
Y2548000D01*
X1859000Y2572500D02*
X1874000D01*
X1866500Y2565000D02*
Y2580000D01*
X1859000Y2604500D02*
X1874000D01*
X1866500Y2597000D02*
Y2612000D01*
X1859000Y2636500D02*
X1874000D01*
X1866500Y2629000D02*
Y2644000D01*
X1859000Y2668500D02*
X1874000D01*
X1866500Y2661000D02*
Y2676000D01*
X2106500Y2668000D02*
X2121500D01*
X2114000Y2660500D02*
Y2675500D01*
X2106500Y2636000D02*
X2121500D01*
X2114000Y2628500D02*
Y2643500D01*
X2106500Y2604000D02*
X2121500D01*
X2114000Y2596500D02*
Y2611500D01*
X2106500Y2572000D02*
X2121500D01*
X2114000Y2564500D02*
Y2579500D01*
X2106500Y2540000D02*
X2121500D01*
X2114000Y2532500D02*
Y2547500D01*
X2106500Y2508000D02*
X2121500D01*
X2114000Y2500500D02*
Y2515500D01*
X2210500Y2507500D02*
X2225500D01*
X2218000Y2500000D02*
Y2515000D01*
X2210500Y2539500D02*
X2225500D01*
X2218000Y2532000D02*
Y2547000D01*
X2210500Y2571500D02*
X2225500D01*
X2218000Y2564000D02*
Y2579000D01*
X2210500Y2603500D02*
X2225500D01*
X2218000Y2596000D02*
Y2611000D01*
X2210500Y2635500D02*
X2225500D01*
X2218000Y2628000D02*
Y2643000D01*
X2210500Y2667500D02*
X2225500D01*
X2218000Y2660000D02*
Y2675000D01*
X2246500Y2667500D02*
X2261500D01*
X2254000Y2660000D02*
Y2675000D01*
X2246500Y2635500D02*
X2261500D01*
X2254000Y2628000D02*
Y2643000D01*
X2246500Y2603500D02*
X2261500D01*
X2254000Y2596000D02*
Y2611000D01*
X2246500Y2571500D02*
X2261500D01*
X2254000Y2564000D02*
Y2579000D01*
X2246500Y2539500D02*
X2261500D01*
X2254000Y2532000D02*
Y2547000D01*
X2246500Y2507500D02*
X2261500D01*
X2254000Y2500000D02*
Y2515000D01*
X2175000Y2507500D02*
X2190000D01*
X2182500Y2500000D02*
Y2515000D01*
X2175000Y2539500D02*
X2190000D01*
X2182500Y2532000D02*
Y2547000D01*
X2175000Y2571500D02*
X2190000D01*
X2182500Y2564000D02*
Y2579000D01*
X2175000Y2603500D02*
X2190000D01*
X2182500Y2596000D02*
Y2611000D01*
X2175000Y2635500D02*
X2190000D01*
X2182500Y2628000D02*
Y2643000D01*
X2175000Y2667500D02*
X2190000D01*
X2182500Y2660000D02*
Y2675000D01*
X2139000Y2667500D02*
X2154000D01*
X2146500Y2660000D02*
Y2675000D01*
X2139000Y2635500D02*
X2154000D01*
X2146500Y2628000D02*
Y2643000D01*
X2139000Y2603500D02*
X2154000D01*
X2146500Y2596000D02*
Y2611000D01*
X2139000Y2571500D02*
X2154000D01*
X2146500Y2564000D02*
Y2579000D01*
X2139000Y2539500D02*
X2154000D01*
X2146500Y2532000D02*
Y2547000D01*
X2139000Y2507500D02*
X2154000D01*
X2146500Y2500000D02*
Y2515000D01*
X1639000Y2509000D02*
X1654000D01*
X1646500Y2501500D02*
Y2516500D01*
X1639000Y2541000D02*
X1654000D01*
X1646500Y2533500D02*
Y2548500D01*
X1639000Y2573000D02*
X1654000D01*
X1646500Y2565500D02*
Y2580500D01*
X1639000Y2605000D02*
X1654000D01*
X1646500Y2597500D02*
Y2612500D01*
X1639000Y2637000D02*
X1654000D01*
X1646500Y2629500D02*
Y2644500D01*
X1639000Y2669000D02*
X1654000D01*
X1646500Y2661500D02*
Y2676500D01*
X1675000Y2669000D02*
X1690000D01*
X1682500Y2661500D02*
Y2676500D01*
X1675000Y2637000D02*
X1690000D01*
X1682500Y2629500D02*
Y2644500D01*
X1675000Y2605000D02*
X1690000D01*
X1682500Y2597500D02*
Y2612500D01*
X1675000Y2573000D02*
X1690000D01*
X1682500Y2565500D02*
Y2580500D01*
X1675000Y2541000D02*
X1690000D01*
X1682500Y2533500D02*
Y2548500D01*
X1675000Y2509000D02*
X1690000D01*
X1682500Y2501500D02*
Y2516500D01*
X1746500Y2509000D02*
X1761500D01*
X1754000Y2501500D02*
Y2516500D01*
X1746500Y2541000D02*
X1761500D01*
X1754000Y2533500D02*
Y2548500D01*
X1746500Y2573000D02*
X1761500D01*
X1754000Y2565500D02*
Y2580500D01*
X1746500Y2605000D02*
X1761500D01*
X1754000Y2597500D02*
Y2612500D01*
X1746500Y2637000D02*
X1761500D01*
X1754000Y2629500D02*
Y2644500D01*
X1746500Y2669000D02*
X1761500D01*
X1754000Y2661500D02*
Y2676500D01*
X1710500Y2669000D02*
X1725500D01*
X1718000Y2661500D02*
Y2676500D01*
X1710500Y2637000D02*
X1725500D01*
X1718000Y2629500D02*
Y2644500D01*
X1710500Y2605000D02*
X1725500D01*
X1718000Y2597500D02*
Y2612500D01*
X1710500Y2573000D02*
X1725500D01*
X1718000Y2565500D02*
Y2580500D01*
X1710500Y2541000D02*
X1725500D01*
X1718000Y2533500D02*
Y2548500D01*
X1710500Y2509000D02*
X1725500D01*
X1718000Y2501500D02*
Y2516500D01*
X1606500Y2509500D02*
X1621500D01*
X1614000Y2502000D02*
Y2517000D01*
X1606500Y2541500D02*
X1621500D01*
X1614000Y2534000D02*
Y2549000D01*
X1606500Y2573500D02*
X1621500D01*
X1614000Y2566000D02*
Y2581000D01*
X1606500Y2605500D02*
X1621500D01*
X1614000Y2598000D02*
Y2613000D01*
X1606500Y2637500D02*
X1621500D01*
X1614000Y2630000D02*
Y2645000D01*
X1606500Y2669500D02*
X1621500D01*
X1614000Y2662000D02*
Y2677000D01*
X1359000Y2670000D02*
X1374000D01*
X1366500Y2662500D02*
Y2677500D01*
X1359000Y2638000D02*
X1374000D01*
X1366500Y2630500D02*
Y2645500D01*
X1359000Y2606000D02*
X1374000D01*
X1366500Y2598500D02*
Y2613500D01*
X1359000Y2574000D02*
X1374000D01*
X1366500Y2566500D02*
Y2581500D01*
X1359000Y2542000D02*
X1374000D01*
X1366500Y2534500D02*
Y2549500D01*
X1359000Y2510000D02*
X1374000D01*
X1366500Y2502500D02*
Y2517500D01*
X1463000Y2509500D02*
X1478000D01*
X1470500Y2502000D02*
Y2517000D01*
X1463000Y2541500D02*
X1478000D01*
X1470500Y2534000D02*
Y2549000D01*
X1463000Y2573500D02*
X1478000D01*
X1470500Y2566000D02*
Y2581000D01*
X1463000Y2605500D02*
X1478000D01*
X1470500Y2598000D02*
Y2613000D01*
X1463000Y2637500D02*
X1478000D01*
X1470500Y2630000D02*
Y2645000D01*
X1463000Y2669500D02*
X1478000D01*
X1470500Y2662000D02*
Y2677000D01*
X1499000Y2669500D02*
X1514000D01*
X1506500Y2662000D02*
Y2677000D01*
X1499000Y2637500D02*
X1514000D01*
X1506500Y2630000D02*
Y2645000D01*
X1499000Y2605500D02*
X1514000D01*
X1506500Y2598000D02*
Y2613000D01*
X1499000Y2573500D02*
X1514000D01*
X1506500Y2566000D02*
Y2581000D01*
X1499000Y2541500D02*
X1514000D01*
X1506500Y2534000D02*
Y2549000D01*
X1499000Y2509500D02*
X1514000D01*
X1506500Y2502000D02*
Y2517000D01*
X1427500Y2509500D02*
X1442500D01*
X1435000Y2502000D02*
Y2517000D01*
X1427500Y2541500D02*
X1442500D01*
X1435000Y2534000D02*
Y2549000D01*
X1427500Y2573500D02*
X1442500D01*
X1435000Y2566000D02*
Y2581000D01*
X1427500Y2605500D02*
X1442500D01*
X1435000Y2598000D02*
Y2613000D01*
X1427500Y2637500D02*
X1442500D01*
X1435000Y2630000D02*
Y2645000D01*
X1427500Y2669500D02*
X1442500D01*
X1435000Y2662000D02*
Y2677000D01*
X1391500Y2669500D02*
X1406500D01*
X1399000Y2662000D02*
Y2677000D01*
X1391500Y2637500D02*
X1406500D01*
X1399000Y2630000D02*
Y2645000D01*
X1391500Y2605500D02*
X1406500D01*
X1399000Y2598000D02*
Y2613000D01*
X1391500Y2573500D02*
X1406500D01*
X1399000Y2566000D02*
Y2581000D01*
X1391500Y2541500D02*
X1406500D01*
X1399000Y2534000D02*
Y2549000D01*
X1391500Y2509500D02*
X1406500D01*
X1399000Y2502000D02*
Y2517000D01*
X4127500Y2148000D02*
X4155500D01*
X4141500Y2134000D02*
Y2162000D01*
X723500Y3917000D02*
X738500D01*
X731000Y3909500D02*
Y3924500D01*
X637530Y3954500D02*
X652530D01*
X645030Y3947000D02*
Y3962000D01*
X636500Y3878500D02*
X651500D01*
X644000Y3871000D02*
Y3886000D01*
X534000Y4146500D02*
X549000D01*
X541500Y4139000D02*
Y4154000D01*
X602500Y3726000D02*
X617500D01*
X610000Y3718500D02*
Y3733500D01*
X822000Y3760500D02*
X837000D01*
X829500Y3753000D02*
Y3768000D01*
X822000Y4061000D02*
X837000D01*
X829500Y4053500D02*
Y4068500D01*
X73500Y2746500D02*
X83500D01*
X78500Y2741500D02*
Y2751500D01*
X3648985Y2908015D02*
X3663985D01*
X3656485Y2900515D02*
Y2915515D01*
X3069000Y1734000D02*
X3084000D01*
X3076500Y1726500D02*
Y1741500D01*
X4777000Y2597500D02*
X4792000D01*
X4784500Y2590000D02*
Y2605000D01*
X4597000Y2551000D02*
X4612000D01*
X4604500Y2543500D02*
Y2558500D01*
X420000Y3484000D02*
X448000D01*
X434000Y3470000D02*
Y3498000D01*
X1391500Y3795000D02*
X1406500D01*
X1399000Y3787500D02*
Y3802500D01*
X4303500Y2090000D02*
X4318500D01*
X4311000Y2082500D02*
Y2097500D01*
X1089038Y2346000D02*
X1117038D01*
X1103038Y2332000D02*
Y2360000D01*
X1163038Y2346000D02*
X1191038D01*
X1177038Y2332000D02*
Y2360000D01*
X937000Y1389000D02*
X965000D01*
X951000Y1375000D02*
Y1403000D01*
X1011000Y1389000D02*
X1039000D01*
X1025000Y1375000D02*
Y1403000D01*
X1163450Y1389000D02*
X1191450D01*
X1177450Y1375000D02*
Y1403000D01*
X1089450Y1389000D02*
X1117450D01*
X1103450Y1375000D02*
Y1403000D01*
X2722000Y904000D02*
X2750000D01*
X2736000Y890000D02*
Y918000D01*
X2796000Y904000D02*
X2824000D01*
X2810000Y890000D02*
Y918000D01*
X2948450Y904000D02*
X2976450D01*
X2962450Y890000D02*
Y918000D01*
X2874450Y904000D02*
X2902450D01*
X2888450Y890000D02*
Y918000D01*
X3519584Y1051000D02*
X3547584D01*
X3533584Y1037000D02*
Y1065000D01*
X3593584Y1051000D02*
X3621584D01*
X3607584Y1037000D02*
Y1065000D01*
X3746034Y1051000D02*
X3774034D01*
X3760034Y1037000D02*
Y1065000D01*
X3672034Y1051000D02*
X3700034D01*
X3686034Y1037000D02*
Y1065000D01*
X4083803Y2594000D02*
X4111803D01*
X4097803Y2580000D02*
Y2608000D01*
X4157803Y2594000D02*
X4185803D01*
X4171803Y2580000D02*
Y2608000D01*
X4310254Y2594000D02*
X4338254D01*
X4324254Y2580000D02*
Y2608000D01*
X4236254Y2594000D02*
X4264254D01*
X4250254Y2580000D02*
Y2608000D01*
X4674000Y3233000D02*
X4702000D01*
X4688000Y3219000D02*
Y3247000D01*
X4748000Y3233000D02*
X4776000D01*
X4762000Y3219000D02*
Y3247000D01*
X4595550Y3233000D02*
X4623550D01*
X4609550Y3219000D02*
Y3247000D01*
X4521550Y3233000D02*
X4549550D01*
X4535550Y3219000D02*
Y3247000D01*
X1601000Y3520000D02*
X1629000D01*
X1615000Y3506000D02*
Y3534000D01*
X3004500Y3096245D02*
X3019500D01*
X3012000Y3088745D02*
Y3103745D01*
X2961500Y2815000D02*
X2976500D01*
X2969000Y2807500D02*
Y2822500D01*
X2938976Y2856342D02*
X2958976D01*
X2948976Y2846342D02*
Y2866342D01*
X2920500Y2906024D02*
X2935500D01*
X2928000Y2898524D02*
Y2913524D01*
X1767185Y2826000D02*
X1782185D01*
X1774685Y2818500D02*
Y2833500D01*
X1215510Y2066000D02*
X1243510D01*
X1229510Y2052000D02*
Y2080000D01*
X1114000Y1875000D02*
X1142000D01*
X1128000Y1861000D02*
Y1889000D01*
X880000Y2759000D02*
X908000D01*
X894000Y2745000D02*
Y2773000D01*
X941500Y2710000D02*
X956500D01*
X949000Y2702500D02*
Y2717500D01*
X888000Y3485000D02*
X916000D01*
X902000Y3471000D02*
Y3499000D01*
X788000Y3600000D02*
X816000D01*
X802000Y3586000D02*
Y3614000D01*
X2682500Y1663328D02*
X2697500D01*
X2690000Y1655828D02*
Y1670828D01*
X2717000Y1743570D02*
X2745000D01*
X2731000Y1729570D02*
Y1757570D01*
X2252763Y1260000D02*
X2267763D01*
X2260263Y1252500D02*
Y1267500D01*
X2355500Y3855000D02*
X2370500D01*
X2363000Y3847500D02*
Y3862500D01*
X2446500Y3910000D02*
X2461500D01*
X2454000Y3902500D02*
Y3917500D01*
X2445909Y3561000D02*
X2473909D01*
X2459909Y3547000D02*
Y3575000D01*
X2354000Y4071000D02*
X2382000D01*
X2368000Y4057000D02*
Y4085000D01*
X2752500Y4144000D02*
X2767500D01*
X2760000Y4136500D02*
Y4151500D01*
X2451500Y4166000D02*
X2466500D01*
X2459000Y4158500D02*
Y4173500D01*
X2395500Y4029000D02*
X2410500D01*
X2403000Y4021500D02*
Y4036500D01*
X2280500Y3811000D02*
X2295500D01*
X2288000Y3803500D02*
Y3818500D01*
X3779500Y3444000D02*
X3794500D01*
X3787000Y3436500D02*
Y3451500D01*
X3839500Y3465000D02*
X3854500D01*
X3847000Y3457500D02*
Y3472500D01*
X4026500Y3757000D02*
X4041500D01*
X4034000Y3749500D02*
Y3764500D01*
X4085500Y3768000D02*
X4100500D01*
X4093000Y3760500D02*
Y3775500D01*
X3969500Y3754000D02*
X3984500D01*
X3977000Y3746500D02*
Y3761500D01*
X3809000Y3997000D02*
X3837000D01*
X3823000Y3983000D02*
Y4011000D01*
X1198500Y3794000D02*
X1213500D01*
X1206000Y3786500D02*
Y3801500D01*
X1441500Y3879000D02*
X1456500D01*
X1449000Y3871500D02*
Y3886500D01*
X1770500Y3880000D02*
X1785500D01*
X1778000Y3872500D02*
Y3887500D01*
X1772500Y3755000D02*
X1787500D01*
X1780000Y3747500D02*
Y3762500D01*
X1691500Y3840000D02*
X1706500D01*
X1699000Y3832500D02*
Y3847500D01*
X1692909Y3954410D02*
X1707909D01*
X1700409Y3946910D02*
Y3961910D01*
X2169500Y3913000D02*
X2184500D01*
X2177000Y3905500D02*
Y3920500D01*
X2187900Y3729000D02*
X2202900D01*
X2195400Y3721500D02*
Y3736500D01*
X2042500Y3672000D02*
X2057500D01*
X2050000Y3664500D02*
Y3679500D01*
X2464500Y3841000D02*
X2479500D01*
X2472000Y3833500D02*
Y3848500D01*
X2273500Y3887000D02*
X2288500D01*
X2281000Y3879500D02*
Y3894500D01*
X2184500Y4024000D02*
X2199500D01*
X2192000Y4016500D02*
Y4031500D01*
X1206500Y3986000D02*
X1221500D01*
X1214000Y3978500D02*
Y3993500D01*
X2949000Y3506000D02*
X2977000D01*
X2963000Y3492000D02*
Y3520000D01*
X3199643Y3589000D02*
X3227643D01*
X3213643Y3575000D02*
Y3603000D01*
X4036000Y3269000D02*
X4064000D01*
X4050000Y3255000D02*
Y3283000D01*
X4573000Y3585000D02*
X4601000D01*
X4587000Y3571000D02*
Y3599000D01*
X4637500Y3361000D02*
X4652500D01*
X4645000Y3353500D02*
Y3368500D01*
X4002500Y3589000D02*
X4017500D01*
X4010000Y3581500D02*
Y3596500D01*
X3501500Y4074000D02*
X3516500D01*
X3509000Y4066500D02*
Y4081500D01*
X3707500Y3696000D02*
X3722500D01*
X3715000Y3688500D02*
Y3703500D01*
X3490500Y3550000D02*
X3505500D01*
X3498000Y3542500D02*
Y3557500D01*
X4097000Y1985000D02*
X4125000D01*
X4111000Y1971000D02*
Y1999000D01*
X4353000Y1239000D02*
X4381000D01*
X4367000Y1225000D02*
Y1253000D01*
X2338000Y1314000D02*
X2366000D01*
X2352000Y1300000D02*
Y1328000D01*
X1984000Y700000D02*
X2012000D01*
X1998000Y686000D02*
Y714000D01*
X1370000Y3911000D02*
X1398000D01*
X1384000Y3897000D02*
Y3925000D01*
X2674500Y2801181D02*
X2689500D01*
X2682000Y2793681D02*
Y2808681D01*
X3708500Y3259000D02*
X3723500D01*
X3716000Y3251500D02*
Y3266500D01*
X3708500Y2334000D02*
X3723500D01*
X3716000Y2326500D02*
Y2341500D01*
X3794500Y2720000D02*
X3809500D01*
X3802000Y2712500D02*
Y2727500D01*
X3697500Y2781000D02*
X3712500D01*
X3705000Y2773500D02*
Y2788500D01*
X3054500Y2884000D02*
X3069500D01*
X3062000Y2876500D02*
Y2891500D01*
X2932500Y2371000D02*
X2947500D01*
X2940000Y2363500D02*
Y2378500D01*
X2994500Y2875000D02*
X3009500D01*
X3002000Y2867500D02*
Y2882500D01*
X2774500Y1717000D02*
X2789500D01*
X2782000Y1709500D02*
Y1724500D01*
X2358500Y1717000D02*
X2373500D01*
X2366000Y1709500D02*
Y1724500D01*
X2310500Y1707000D02*
X2325500D01*
X2318000Y1699500D02*
Y1714500D01*
X2708500Y3155000D02*
X2723500D01*
X2716000Y3147500D02*
Y3162500D01*
X2670500Y2869000D02*
X2685500D01*
X2678000Y2861500D02*
Y2876500D01*
X2712500Y2875000D02*
X2727500D01*
X2720000Y2867500D02*
Y2882500D01*
X3662500Y3459000D02*
X3677500D01*
X3670000Y3451500D02*
Y3466500D01*
X2408500Y3286000D02*
X2423500D01*
X2416000Y3278500D02*
Y3293500D01*
X2563500Y3143000D02*
X2578500D01*
X2571000Y3135500D02*
Y3150500D01*
X2500500Y3268000D02*
X2515500D01*
X2508000Y3260500D02*
Y3275500D01*
X2559500Y3284000D02*
X2574500D01*
X2567000Y3276500D02*
Y3291500D01*
X2498500Y3458000D02*
X2513500D01*
X2506000Y3450500D02*
Y3465500D01*
X2448500Y3467000D02*
X2463500D01*
X2456000Y3459500D02*
Y3474500D01*
X3401500Y2338000D02*
X3416500D01*
X3409000Y2330500D02*
Y2345500D01*
X3323500Y2878000D02*
X3338500D01*
X3331000Y2870500D02*
Y2885500D01*
X3257500Y3011000D02*
X3272500D01*
X3265000Y3003500D02*
Y3018500D01*
X3277500Y3078000D02*
X3292500D01*
X3285000Y3070500D02*
Y3085500D01*
X3536100Y3709000D02*
X3551100D01*
X3543600Y3701500D02*
Y3716500D01*
X2143500Y3777000D02*
X2158500D01*
X2151000Y3769500D02*
Y3784500D01*
X2262500Y3441000D02*
X2277500D01*
X2270000Y3433500D02*
Y3448500D01*
X3617500Y3703000D02*
X3632500D01*
X3625000Y3695500D02*
Y3710500D01*
X3539500Y3914000D02*
X3554500D01*
X3547000Y3906500D02*
Y3921500D01*
X4417500Y3811000D02*
X4432500D01*
X4425000Y3803500D02*
Y3818500D01*
X3479500Y3646000D02*
X3494500D01*
X3487000Y3638500D02*
Y3653500D01*
X3840500Y3571000D02*
X3855500D01*
X3848000Y3563500D02*
Y3578500D01*
X3578500Y3405000D02*
X3593500D01*
X3586000Y3397500D02*
Y3412500D01*
X3715500Y3550000D02*
X3730500D01*
X3723000Y3542500D02*
Y3557500D01*
X2756500Y3842000D02*
X2771500D01*
X2764000Y3834500D02*
Y3849500D01*
X2663500Y3796000D02*
X2678500D01*
X2671000Y3788500D02*
Y3803500D01*
X2562196Y3858000D02*
X2577196D01*
X2569696Y3850500D02*
Y3865500D01*
X2617500Y3867000D02*
X2632500D01*
X2625000Y3859500D02*
Y3874500D01*
X2678500Y3855000D02*
X2693500D01*
X2686000Y3847500D02*
Y3862500D01*
X3314500Y3840000D02*
X3329500D01*
X3322000Y3832500D02*
Y3847500D01*
X2564500Y2909000D02*
X2579500D01*
X2572000Y2901500D02*
Y2916500D01*
X3704500Y3842000D02*
X3719500D01*
X3712000Y3834500D02*
Y3849500D01*
X3708500Y2833000D02*
X3723500D01*
X3716000Y2825500D02*
Y2840500D01*
X3413500Y2701000D02*
X3428500D01*
X3421000Y2693500D02*
Y2708500D01*
X536000Y3541000D02*
X551000D01*
X543500Y3533500D02*
Y3548500D01*
X3029500Y4141000D02*
X3044500D01*
X3037000Y4133500D02*
Y4148500D01*
X2874500Y4115000D02*
X2889500D01*
X2882000Y4107500D02*
Y4122500D01*
X2926500Y4120000D02*
X2941500D01*
X2934000Y4112500D02*
Y4127500D01*
X2894500Y4044000D02*
X2909500D01*
X2902000Y4036500D02*
Y4051500D01*
X2179500Y4078000D02*
X2194500D01*
X2187000Y4070500D02*
Y4085500D01*
X2608500Y2354000D02*
X2623500D01*
X2616000Y2346500D02*
Y2361500D01*
X2572500Y2380000D02*
X2587500D01*
X2580000Y2372500D02*
Y2387500D01*
X4578500Y4075000D02*
X4593500D01*
X4586000Y4067500D02*
Y4082500D01*
X3297500Y2376000D02*
X3312500D01*
X3305000Y2368500D02*
Y2383500D01*
X3152500Y3069000D02*
X3167500D01*
X3160000Y3061500D02*
Y3076500D01*
X2981500Y2753000D02*
X2996500D01*
X2989000Y2745500D02*
Y2760500D01*
X3073500Y1666000D02*
X3088500D01*
X3081000Y1658500D02*
Y1673500D01*
X3134500Y1660000D02*
X3149500D01*
X3142000Y1652500D02*
Y1667500D01*
X3405500Y2824000D02*
X3420500D01*
X3413000Y2816500D02*
Y2831500D01*
X3412500Y1662000D02*
X3427500D01*
X3420000Y1654500D02*
Y1669500D01*
X3204500Y3022000D02*
X3219500D01*
X3212000Y3014500D02*
Y3029500D01*
X3311500Y2773000D02*
X3326500D01*
X3319000Y2765500D02*
Y2780500D01*
X3237500Y3049000D02*
X3252500D01*
X3245000Y3041500D02*
Y3056500D01*
X3118500Y3100000D02*
X3133500D01*
X3126000Y3092500D02*
Y3107500D01*
X3205500Y3133000D02*
X3220500D01*
X3213000Y3125500D02*
Y3140500D01*
X3820500Y1570000D02*
X3835500D01*
X3828000Y1562500D02*
Y1577500D01*
X2902500Y3103000D02*
X2917500D01*
X2910000Y3095500D02*
Y3110500D01*
X2847500Y3106000D02*
X2862500D01*
X2855000Y3098500D02*
Y3113500D01*
X2800500Y3111000D02*
X2815500D01*
X2808000Y3103500D02*
Y3118500D01*
X3411500Y3054000D02*
X3426500D01*
X3419000Y3046500D02*
Y3061500D01*
X3355500Y3100000D02*
X3370500D01*
X3363000Y3092500D02*
Y3107500D01*
X3308500Y3139000D02*
X3323500D01*
X3316000Y3131500D02*
Y3146500D01*
X3321343Y3016000D02*
X3336343D01*
X3328843Y3008500D02*
Y3023500D01*
X3257500Y3131000D02*
X3272500D01*
X3265000Y3123500D02*
Y3138500D01*
X3373500Y3843000D02*
X3388500D01*
X3381000Y3835500D02*
Y3850500D01*
X3439500Y4158000D02*
X3454500D01*
X3447000Y4150500D02*
Y4165500D01*
X4730500Y4112000D02*
X4745500D01*
X4738000Y4104500D02*
Y4119500D01*
X4599500Y2025000D02*
X4614500D01*
X4607000Y2017500D02*
Y2032500D01*
X4562500Y2066000D02*
X4577500D01*
X4570000Y2058500D02*
Y2073500D01*
X3112500Y1735000D02*
X3127500D01*
X3120000Y1727500D02*
Y1742500D01*
X4519500Y3556000D02*
X4534500D01*
X4527000Y3548500D02*
Y3563500D01*
X4462500Y3486000D02*
X4477500D01*
X4470000Y3478500D02*
Y3493500D01*
X3843500Y3520000D02*
X3858500D01*
X3851000Y3512500D02*
Y3527500D01*
X4917500Y3543000D02*
X4932500D01*
X4925000Y3535500D02*
Y3550500D01*
X4292500Y1854500D02*
X4307500D01*
X4300000Y1847000D02*
Y1862000D01*
X4392500Y1641000D02*
X4407500D01*
X4400000Y1633500D02*
Y1648500D01*
X3906736Y1641000D02*
X3921736D01*
X3914236Y1633500D02*
Y1648500D01*
X3499500Y1725000D02*
X3514500D01*
X3507000Y1717500D02*
Y1732500D01*
X3363500Y2850000D02*
X3378500D01*
X3371000Y2842500D02*
Y2857500D01*
X2550500Y2848000D02*
X2565500D01*
X2558000Y2840500D02*
Y2855500D01*
X3420886Y2776106D02*
X3435886D01*
X3428386Y2768606D02*
Y2783606D01*
X3760500Y3796000D02*
X3775500D01*
X3768000Y3788500D02*
Y3803500D01*
X3809500Y3741000D02*
X3824500D01*
X3817000Y3733500D02*
Y3748500D01*
X3844500Y3654000D02*
X3859500D01*
X3852000Y3646500D02*
Y3661500D01*
X3965500Y3263000D02*
X3980500D01*
X3973000Y3255500D02*
Y3270500D01*
X3806500Y3602000D02*
X3821500D01*
X3814000Y3594500D02*
Y3609500D01*
X3671500Y3046000D02*
X3686500D01*
X3679000Y3038500D02*
Y3053500D01*
X3481500Y3090000D02*
X3496500D01*
X3489000Y3082500D02*
Y3097500D01*
X2523500Y3164000D02*
X2538500D01*
X2531000Y3156500D02*
Y3171500D01*
X3895500Y2594000D02*
X3910500D01*
X3903000Y2586500D02*
Y2601500D01*
X3864500Y2642000D02*
X3879500D01*
X3872000Y2634500D02*
Y2649500D01*
X3993500Y2588000D02*
X4008500D01*
X4001000Y2580500D02*
Y2595500D01*
X2211500Y2385000D02*
X2226500D01*
X2219000Y2377500D02*
Y2392500D01*
X2323500Y1186000D02*
X2338500D01*
X2331000Y1178500D02*
Y1193500D01*
X4648000Y1253000D02*
X4676000D01*
X4662000Y1239000D02*
Y1267000D01*
X4702890Y1443000D02*
X4730890D01*
X4716890Y1429000D02*
Y1457000D01*
X3187612Y4134500D02*
X3202612D01*
X3195112Y4127000D02*
Y4142000D01*
X3502500Y3945000D02*
X3517500D01*
X3510000Y3937500D02*
Y3952500D01*
X3443500Y3967000D02*
X3458500D01*
X3451000Y3959500D02*
Y3974500D01*
X3408500Y4009000D02*
X3423500D01*
X3416000Y4001500D02*
Y4016500D01*
X3415500Y4074000D02*
X3430500D01*
X3423000Y4066500D02*
Y4081500D01*
X3349500Y4076000D02*
X3364500D01*
X3357000Y4068500D02*
Y4083500D01*
X3273500Y4077000D02*
X3288500D01*
X3281000Y4069500D02*
Y4084500D01*
X3217500Y4090000D02*
X3232500D01*
X3225000Y4082500D02*
Y4097500D01*
X3118500Y4136000D02*
X3133500D01*
X3126000Y4128500D02*
Y4143500D01*
X591500Y3499000D02*
X606500D01*
X599000Y3491500D02*
Y3506500D01*
X2912500Y3954410D02*
X2927500D01*
X2920000Y3946910D02*
Y3961910D01*
X2979500Y4139000D02*
X2994500D01*
X2987000Y4131500D02*
Y4146500D01*
X499639Y4109000D02*
X514639D01*
X507139Y4101500D02*
Y4116500D01*
X3677500Y3930000D02*
X3692500D01*
X3685000Y3922500D02*
Y3937500D01*
X2497500Y3876000D02*
X2512500D01*
X2505000Y3868500D02*
Y3883500D01*
X3508500Y3403000D02*
X3523500D01*
X3516000Y3395500D02*
Y3410500D01*
X3338500Y3384000D02*
X3353500D01*
X3346000Y3376500D02*
Y3391500D01*
X4853500Y3715000D02*
X4868500D01*
X4861000Y3707500D02*
Y3722500D01*
X4424500Y1607000D02*
X4439500D01*
X4432000Y1599500D02*
Y1614500D01*
X4203500Y1272000D02*
X4218500D01*
X4211000Y1264500D02*
Y1279500D01*
X3139000Y3552795D02*
X3167000D01*
X3153000Y3538795D02*
Y3566795D01*
X2439500Y3329000D02*
X2454500D01*
X2447000Y3321500D02*
Y3336500D01*
X3551781Y3024000D02*
X3566781D01*
X3559281Y3016500D02*
Y3031500D01*
X2450211Y3251000D02*
X2465211D01*
X2457711Y3243500D02*
Y3258500D01*
X2619500Y3304000D02*
X2634500D01*
X2627000Y3296500D02*
Y3311500D01*
X3052500Y3099000D02*
X3067500D01*
X3060000Y3091500D02*
Y3106500D01*
X2954500Y3097000D02*
X2969500D01*
X2962000Y3089500D02*
Y3104500D01*
X3652097Y3221000D02*
X3667097D01*
X3659597Y3213500D02*
Y3228500D01*
X3652500Y3134000D02*
X3667500D01*
X3660000Y3126500D02*
Y3141500D01*
X3590500Y3068000D02*
X3605500D01*
X3598000Y3060500D02*
Y3075500D01*
X2518500Y2924000D02*
X2533500D01*
X2526000Y2916500D02*
Y2931500D01*
X4436500Y1375000D02*
X4451500D01*
X4444000Y1367500D02*
Y1382500D01*
X4381500Y1476638D02*
X4416500D01*
X4399000Y1459138D02*
Y1494138D01*
X1331500Y2361000D02*
X1346500D01*
X1339000Y2353500D02*
Y2368500D01*
X1945500Y2434000D02*
X1960500D01*
X1953000Y2426500D02*
Y2441500D01*
X4515500Y897000D02*
X4530500D01*
X4523000Y889500D02*
Y904500D01*
X4574500Y1469000D02*
X4589500D01*
X4582000Y1461500D02*
Y1476500D01*
X3938500Y3410000D02*
X3953500D01*
X3946000Y3402500D02*
Y3417500D01*
X3872500Y3864000D02*
X3887500D01*
X3880000Y3856500D02*
Y3871500D01*
X4516500Y3356000D02*
X4531500D01*
X4524000Y3348500D02*
Y3363500D01*
X2467500Y3685000D02*
X2482500D01*
X2475000Y3677500D02*
Y3692500D01*
X2507500Y3712000D02*
X2522500D01*
X2515000Y3704500D02*
Y3719500D01*
X2519500Y3770000D02*
X2534500D01*
X2527000Y3762500D02*
Y3777500D01*
X2602500Y3827000D02*
X2617500D01*
X2610000Y3819500D02*
Y3834500D01*
X2390500Y1179000D02*
X2405500D01*
X2398000Y1171500D02*
Y1186500D01*
X1746500Y1263000D02*
X1761500D01*
X1754000Y1255500D02*
Y1270500D01*
X1803500Y1282000D02*
X1818500D01*
X1811000Y1274500D02*
Y1289500D01*
X2503991Y2341470D02*
X2518991D01*
X2511491Y2333970D02*
Y2348970D01*
X2871412Y2341000D02*
X2886412D01*
X2878912Y2333500D02*
Y2348500D01*
X3238834Y2340894D02*
X3253834D01*
X3246334Y2333394D02*
Y2348394D01*
X3625798Y2342106D02*
X3640798D01*
X3633298Y2334606D02*
Y2349606D01*
X3567343Y1703000D02*
X3582343D01*
X3574843Y1695500D02*
Y1710500D01*
X3199921Y1703000D02*
X3214921D01*
X3207421Y1695500D02*
Y1710500D01*
X2832500Y1703000D02*
X2847500D01*
X2840000Y1695500D02*
Y1710500D01*
X2461500Y1700000D02*
X2476500D01*
X2469000Y1692500D02*
Y1707500D01*
X3295500Y2849000D02*
X3310500D01*
X3303000Y2841500D02*
Y2856500D01*
X3341500Y2367000D02*
X3356500D01*
X3349000Y2359500D02*
Y2374500D01*
X4634500Y2228000D02*
X4649500D01*
X4642000Y2220500D02*
Y2235500D01*
X2997500Y2364000D02*
X3012500D01*
X3005000Y2356500D02*
Y2371500D01*
X4634500Y2326000D02*
X4649500D01*
X4642000Y2318500D02*
Y2333500D01*
X4291000Y2305500D02*
X4306000D01*
X4298500Y2298000D02*
Y2313000D01*
X4631500Y2404000D02*
X4646500D01*
X4639000Y2396500D02*
Y2411500D01*
X4631500Y2495000D02*
X4646500D01*
X4639000Y2487500D02*
Y2502500D01*
X4279500Y3167000D02*
X4294500D01*
X4287000Y3159500D02*
Y3174500D01*
X4276500Y3276000D02*
X4291500D01*
X4284000Y3268500D02*
Y3283500D01*
X3008500Y3594000D02*
X3023500D01*
X3016000Y3586500D02*
Y3601500D01*
X3700500Y3349000D02*
X3715500D01*
X3708000Y3341500D02*
Y3356500D01*
X4717500Y3315000D02*
X4732500D01*
X4725000Y3307500D02*
Y3322500D01*
X4562500Y1063000D02*
X4577500D01*
X4570000Y1055500D02*
Y1070500D01*
X4261500Y1225000D02*
X4276500D01*
X4269000Y1217500D02*
Y1232500D01*
X2036500Y3868000D02*
X2051500D01*
X2044000Y3860500D02*
Y3875500D01*
X4011500Y1608000D02*
X4026500D01*
X4019000Y1600500D02*
Y1615500D01*
X4011500Y1262000D02*
X4026500D01*
X4019000Y1254500D02*
Y1269500D01*
X3924500Y1274000D02*
X3939500D01*
X3932000Y1266500D02*
Y1281500D01*
X2823500Y4077000D02*
X2838500D01*
X2831000Y4069500D02*
Y4084500D01*
X2447500Y4046000D02*
X2462500D01*
X2455000Y4038500D02*
Y4053500D01*
X2237500Y3852000D02*
X2252500D01*
X2245000Y3844500D02*
Y3859500D01*
X4206500Y3607000D02*
X4221500D01*
X4214000Y3599500D02*
Y3614500D01*
X4277500Y3819000D02*
X4292500D01*
X4285000Y3811500D02*
Y3826500D01*
X4187500Y3764000D02*
X4202500D01*
X4195000Y3756500D02*
Y3771500D01*
X4424500Y3403000D02*
X4439500D01*
X4432000Y3395500D02*
Y3410500D01*
X4595500Y2775000D02*
X4610500D01*
X4603000Y2767500D02*
Y2782500D01*
X4484500Y3008000D02*
X4499500D01*
X4492000Y3000500D02*
Y3015500D01*
X4504500Y2924000D02*
X4519500D01*
X4512000Y2916500D02*
Y2931500D01*
X4563500Y2901000D02*
X4578500D01*
X4571000Y2893500D02*
Y2908500D01*
X4555500Y3108000D02*
X4570500D01*
X4563000Y3100500D02*
Y3115500D01*
X3413500Y2876636D02*
X3428500D01*
X3421000Y2869136D02*
Y2884136D01*
X4850500Y2966000D02*
X4865500D01*
X4858000Y2958500D02*
Y2973500D01*
X3851500Y1320000D02*
X3866500D01*
X3859000Y1312500D02*
Y1327500D01*
X4642500Y3063000D02*
X4657500D01*
X4650000Y3055500D02*
Y3070500D01*
X4773500Y2863000D02*
X4788500D01*
X4781000Y2855500D02*
Y2870500D01*
X3464500Y1303000D02*
X3479500D01*
X3472000Y1295500D02*
Y1310500D01*
X4696500Y3167000D02*
X4711500D01*
X4704000Y3159500D02*
Y3174500D01*
X3100500Y1298000D02*
X3115500D01*
X3108000Y1290500D02*
Y1305500D01*
X2731500Y1300000D02*
X2746500D01*
X2739000Y1292500D02*
Y1307500D01*
X2035500Y3727000D02*
X2050500D01*
X2043000Y3719500D02*
Y3734500D01*
X1870500Y3724000D02*
X1885500D01*
X1878000Y3716500D02*
Y3731500D01*
X2300500Y3343000D02*
X2315500D01*
X2308000Y3335500D02*
Y3350500D01*
X2262500Y3389000D02*
X2277500D01*
X2270000Y3381500D02*
Y3396500D01*
X2300500Y2926000D02*
X2315500D01*
X2308000Y2918500D02*
Y2933500D01*
X2306500Y2878000D02*
X2321500D01*
X2314000Y2870500D02*
Y2885500D01*
X3784764Y1321151D02*
X3799764D01*
X3792264Y1313651D02*
Y1328651D01*
X3417343Y1321151D02*
X3432343D01*
X3424843Y1313651D02*
Y1328651D01*
X3049921Y1321151D02*
X3064921D01*
X3057421Y1313651D02*
Y1328651D01*
X2682500Y1321151D02*
X2697500D01*
X2690000Y1313651D02*
Y1328651D01*
X1852500Y2350000D02*
X1867500D01*
X1860000Y2342500D02*
Y2357500D01*
X4355500Y2448000D02*
X4370500D01*
X4363000Y2440500D02*
Y2455500D01*
X4397500Y2349000D02*
X4412500D01*
X4405000Y2341500D02*
Y2356500D01*
X1383300Y3524000D02*
X1398300D01*
X1390800Y3516500D02*
Y3531500D01*
X1126500Y3557000D02*
X1141500D01*
X1134000Y3549500D02*
Y3564500D01*
X1187500Y3480000D02*
X1202500D01*
X1195000Y3472500D02*
Y3487500D01*
X1114500Y2760000D02*
X1129500D01*
X1122000Y2752500D02*
Y2767500D01*
X1174500Y2759000D02*
X1189500D01*
X1182000Y2751500D02*
Y2766500D01*
X1124500Y2514000D02*
X1139500D01*
X1132000Y2506500D02*
Y2521500D01*
X2300977Y1280701D02*
X2315977D01*
X2308477Y1273201D02*
Y1288201D01*
X2166705Y3039000D02*
X2181705D01*
X2174205Y3031500D02*
Y3046500D01*
X2213500Y3012000D02*
X2228500D01*
X2221000Y3004500D02*
Y3019500D01*
X2316500Y3553000D02*
X2331500D01*
X2324000Y3545500D02*
Y3560500D01*
X1827500Y1714000D02*
X1842500D01*
X1835000Y1706500D02*
Y1721500D01*
X1406500Y2464000D02*
X1421500D01*
X1414000Y2456500D02*
Y2471500D01*
X73500Y2590000D02*
X88500D01*
X81000Y2582500D02*
Y2597500D01*
X2314500Y3624000D02*
X2329500D01*
X2322000Y3616500D02*
Y3631500D01*
X1266500Y3492000D02*
X1281500D01*
X1274000Y3484500D02*
Y3499500D01*
X2134500Y3067000D02*
X2149500D01*
X2142000Y3059500D02*
Y3074500D01*
X2098500Y3097000D02*
X2113500D01*
X2106000Y3089500D02*
Y3104500D01*
X2062500Y3131000D02*
X2077500D01*
X2070000Y3123500D02*
Y3138500D01*
X2026500Y3165000D02*
X2041500D01*
X2034000Y3157500D02*
Y3172500D01*
X1991500Y3195000D02*
X2006500D01*
X1999000Y3187500D02*
Y3202500D01*
X1823500Y3824000D02*
X1838500D01*
X1831000Y3816500D02*
Y3831500D01*
X2262500Y3500000D02*
X2277500D01*
X2270000Y3492500D02*
Y3507500D01*
X1292255Y2603000D02*
X1307255D01*
X1299755Y2595500D02*
Y2610500D01*
X1807500Y2798000D02*
X1822500D01*
X1815000Y2790500D02*
Y2805500D01*
X2181500Y3501000D02*
X2196500D01*
X2189000Y3493500D02*
Y3508500D01*
X1297500Y2726000D02*
X1312500D01*
X1305000Y2718500D02*
Y2733500D01*
X132500Y2772000D02*
X147500D01*
X140000Y2764500D02*
Y2779500D01*
X67500Y3023000D02*
X82500D01*
X75000Y3015500D02*
Y3030500D01*
X1654500Y3712000D02*
X1669500D01*
X1662000Y3704500D02*
Y3719500D01*
X1558500Y3810000D02*
X1573500D01*
X1566000Y3802500D02*
Y3817500D01*
X1118500Y2594000D02*
X1133500D01*
X1126000Y2586500D02*
Y2601500D01*
X1936500Y3883000D02*
X1951500D01*
X1944000Y3875500D02*
Y3890500D01*
X1456500Y3755000D02*
X1471500D01*
X1464000Y3747500D02*
Y3762500D01*
X1758500Y3656000D02*
X1773500D01*
X1766000Y3648500D02*
Y3663500D01*
X1326500Y3497000D02*
X1341500D01*
X1334000Y3489500D02*
Y3504500D01*
X1222500Y2402000D02*
X1237500D01*
X1230000Y2394500D02*
Y2409500D01*
X1266500Y2359000D02*
X1281500D01*
X1274000Y2351500D02*
Y2366500D01*
X1254500Y3645000D02*
X1269500D01*
X1262000Y3637500D02*
Y3652500D01*
X1282500Y2786000D02*
X1297500D01*
X1290000Y2778500D02*
Y2793500D01*
X1222500Y2665000D02*
X1237500D01*
X1230000Y2657500D02*
Y2672500D01*
X1247500Y1875000D02*
X1262500D01*
X1255000Y1867500D02*
Y1882500D01*
X1248500Y1971000D02*
X1263500D01*
X1256000Y1963500D02*
Y1978500D01*
X970500Y2361000D02*
X985500D01*
X978000Y2353500D02*
Y2368500D01*
X4176500Y2032000D02*
X4191500D01*
X4184000Y2024500D02*
Y2039500D01*
X4009000Y2346000D02*
X4037000D01*
X4023000Y2332000D02*
Y2360000D01*
X1719000Y714000D02*
X1747000D01*
X1733000Y700000D02*
Y728000D01*
%TF.MD5,e3a4343d2790f6a285a67ac40ef4479c*%
M02*
