%TF.GenerationSoftware,Altium Limited,Altium Designer,19.0.10 (269)*%
G04 Layer_Color=2752767*
%FSLAX26Y26*%
%MOIN*%
%TF.FileFunction,Drawing*%
%TF.Part,Single*%
G01*
G75*
%TA.AperFunction,NonConductor*%
%ADD146C,0.005000*%
%ADD147C,0.006667*%
%ADD148C,0.004000*%
D146*
X944724Y1913022D02*
Y1953022D01*
X984724D01*
Y1913022D01*
X944724D01*
X1335276D02*
Y1953022D01*
X1375276D01*
Y1913022D01*
X1335276D01*
X944724Y1779163D02*
Y1819163D01*
X984724D01*
Y1779163D01*
X944724D01*
X1335276D02*
Y1819163D01*
X1375276D01*
Y1779163D01*
X1335276D01*
X944449Y2230000D02*
Y2270000D01*
X984449D01*
Y2230000D01*
X944449D01*
X1335000D02*
Y2270000D01*
X1375000D01*
Y2230000D01*
X1335000D01*
X944449Y2096142D02*
Y2136142D01*
X984449D01*
Y2096142D01*
X944449D01*
X1335000D02*
Y2136142D01*
X1375000D01*
Y2096142D01*
X1335000D01*
X4700000Y3880000D02*
X4680000Y3920000D01*
X4720000D01*
X4700000Y3880000D01*
Y280000D02*
X4680000Y320000D01*
X4720000D01*
X4700000Y280000D01*
X300000D02*
X280000Y320000D01*
X320000D01*
X300000Y280000D01*
Y3880000D02*
X280000Y3920000D01*
X320000D01*
X300000Y3880000D01*
X150000Y3480000D02*
X160000Y3490000D01*
X170000D01*
X160000Y3500000D01*
X170000Y3510000D01*
X160000D01*
X150000Y3520000D01*
X140000Y3510000D01*
X130000D01*
X140000Y3500000D01*
X130000Y3490000D01*
X140000D01*
X150000Y3480000D01*
Y1964252D02*
X160000Y1974252D01*
X170000D01*
X160000Y1984252D01*
X170000Y1994252D01*
X160000D01*
X150000Y2004252D01*
X140000Y1994252D01*
X130000D01*
X140000Y1984252D01*
X130000Y1974252D01*
X140000D01*
X150000Y1964252D01*
X700866Y970158D02*
X710866Y990158D01*
X700866Y1010158D01*
X720866Y1000158D01*
X740866Y1010158D01*
X730866Y990158D01*
X740866Y970158D01*
X720866Y980158D01*
X700866Y970158D01*
Y1088268D02*
X710866Y1108268D01*
X700866Y1128268D01*
X720866Y1118268D01*
X740866Y1128268D01*
X730866Y1108268D01*
X740866Y1088268D01*
X720866Y1098268D01*
X700866Y1088268D01*
Y1206378D02*
X710866Y1226378D01*
X700866Y1246378D01*
X720866Y1236378D01*
X740866Y1246378D01*
X730866Y1226378D01*
X740866Y1206378D01*
X720866Y1216378D01*
X700866Y1206378D01*
Y1324488D02*
X710866Y1344488D01*
X700866Y1364488D01*
X720866Y1354488D01*
X740866Y1364488D01*
X730866Y1344488D01*
X740866Y1324488D01*
X720866Y1334488D01*
X700866Y1324488D01*
Y1442599D02*
X710866Y1462599D01*
X700866Y1482599D01*
X720866Y1472599D01*
X740866Y1482599D01*
X730866Y1462599D01*
X740866Y1442599D01*
X720866Y1452599D01*
X700866Y1442599D01*
Y1560709D02*
X710866Y1580709D01*
X700866Y1600709D01*
X720866Y1590709D01*
X740866Y1600709D01*
X730866Y1580709D01*
X740866Y1560709D01*
X720866Y1570709D01*
X700866Y1560709D01*
Y1678819D02*
X710866Y1698819D01*
X700866Y1718819D01*
X720866Y1708819D01*
X740866Y1718819D01*
X730866Y1698819D01*
X740866Y1678819D01*
X720866Y1688819D01*
X700866Y1678819D01*
X602441Y1029213D02*
X612441Y1049213D01*
X602441Y1069213D01*
X622441Y1059213D01*
X642441Y1069213D01*
X632441Y1049213D01*
X642441Y1029213D01*
X622441Y1039213D01*
X602441Y1029213D01*
Y1147323D02*
X612441Y1167323D01*
X602441Y1187323D01*
X622441Y1177323D01*
X642441Y1187323D01*
X632441Y1167323D01*
X642441Y1147323D01*
X622441Y1157323D01*
X602441Y1147323D01*
Y1265433D02*
X612441Y1285433D01*
X602441Y1305433D01*
X622441Y1295433D01*
X642441Y1305433D01*
X632441Y1285433D01*
X642441Y1265433D01*
X622441Y1275433D01*
X602441Y1265433D01*
Y1383543D02*
X612441Y1403543D01*
X602441Y1423543D01*
X622441Y1413543D01*
X642441Y1423543D01*
X632441Y1403543D01*
X642441Y1383543D01*
X622441Y1393543D01*
X602441Y1383543D01*
Y1501654D02*
X612441Y1521654D01*
X602441Y1541654D01*
X622441Y1531654D01*
X642441Y1541654D01*
X632441Y1521654D01*
X642441Y1501654D01*
X622441Y1511654D01*
X602441Y1501654D01*
Y1619764D02*
X612441Y1639764D01*
X602441Y1659764D01*
X622441Y1649764D01*
X642441Y1659764D01*
X632441Y1639764D01*
X642441Y1619764D01*
X622441Y1629764D01*
X602441Y1619764D01*
X484331Y1029213D02*
X494331Y1049213D01*
X484331Y1069213D01*
X504331Y1059213D01*
X524331Y1069213D01*
X514331Y1049213D01*
X524331Y1029213D01*
X504331Y1039213D01*
X484331Y1029213D01*
Y1147323D02*
X494331Y1167323D01*
X484331Y1187323D01*
X504331Y1177323D01*
X524331Y1187323D01*
X514331Y1167323D01*
X524331Y1147323D01*
X504331Y1157323D01*
X484331Y1147323D01*
Y1265433D02*
X494331Y1285433D01*
X484331Y1305433D01*
X504331Y1295433D01*
X524331Y1305433D01*
X514331Y1285433D01*
X524331Y1265433D01*
X504331Y1275433D01*
X484331Y1265433D01*
Y1383543D02*
X494331Y1403543D01*
X484331Y1423543D01*
X504331Y1413543D01*
X524331Y1423543D01*
X514331Y1403543D01*
X524331Y1383543D01*
X504331Y1393543D01*
X484331Y1383543D01*
Y1501654D02*
X494331Y1521654D01*
X484331Y1541654D01*
X504331Y1531654D01*
X524331Y1541654D01*
X514331Y1521654D01*
X524331Y1501654D01*
X504331Y1511654D01*
X484331Y1501654D01*
Y1619764D02*
X494331Y1639764D01*
X484331Y1659764D01*
X504331Y1649764D01*
X524331Y1659764D01*
X514331Y1639764D01*
X524331Y1619764D01*
X504331Y1629764D01*
X484331Y1619764D01*
X385906Y970158D02*
X395906Y990158D01*
X385906Y1010158D01*
X405906Y1000158D01*
X425906Y1010158D01*
X415906Y990158D01*
X425906Y970158D01*
X405906Y980158D01*
X385906Y970158D01*
Y1088268D02*
X395906Y1108268D01*
X385906Y1128268D01*
X405906Y1118268D01*
X425906Y1128268D01*
X415906Y1108268D01*
X425906Y1088268D01*
X405906Y1098268D01*
X385906Y1088268D01*
Y1206378D02*
X395906Y1226378D01*
X385906Y1246378D01*
X405906Y1236378D01*
X425906Y1246378D01*
X415906Y1226378D01*
X425906Y1206378D01*
X405906Y1216378D01*
X385906Y1206378D01*
Y1324488D02*
X395906Y1344488D01*
X385906Y1364488D01*
X405906Y1354488D01*
X425906Y1364488D01*
X415906Y1344488D01*
X425906Y1324488D01*
X405906Y1334488D01*
X385906Y1324488D01*
Y1442599D02*
X395906Y1462599D01*
X385906Y1482599D01*
X405906Y1472599D01*
X425906Y1482599D01*
X415906Y1462599D01*
X425906Y1442599D01*
X405906Y1452599D01*
X385906Y1442599D01*
Y1560709D02*
X395906Y1580709D01*
X385906Y1600709D01*
X405906Y1590709D01*
X425906Y1600709D01*
X415906Y1580709D01*
X425906Y1560709D01*
X405906Y1570709D01*
X385906Y1560709D01*
Y1678819D02*
X395906Y1698819D01*
X385906Y1718819D01*
X405906Y1708819D01*
X425906Y1718819D01*
X415906Y1698819D01*
X425906Y1678819D01*
X405906Y1688819D01*
X385906Y1678819D01*
X150000Y684724D02*
X160000Y694724D01*
X170000D01*
X160000Y704724D01*
X170000Y714724D01*
X160000D01*
X150000Y724724D01*
X140000Y714724D01*
X130000D01*
X140000Y704724D01*
X130000Y694724D01*
X140000D01*
X150000Y684724D01*
X385906Y3194567D02*
X395906Y3214567D01*
X385906Y3234567D01*
X405906Y3224567D01*
X425906Y3234567D01*
X415906Y3214567D01*
X425906Y3194567D01*
X405906Y3204567D01*
X385906Y3194567D01*
Y3076457D02*
X395906Y3096457D01*
X385906Y3116457D01*
X405906Y3106457D01*
X425906Y3116457D01*
X415906Y3096457D01*
X425906Y3076457D01*
X405906Y3086457D01*
X385906Y3076457D01*
Y2958347D02*
X395906Y2978347D01*
X385906Y2998347D01*
X405906Y2988347D01*
X425906Y2998347D01*
X415906Y2978347D01*
X425906Y2958347D01*
X405906Y2968347D01*
X385906Y2958347D01*
Y2840236D02*
X395906Y2860236D01*
X385906Y2880236D01*
X405906Y2870236D01*
X425906Y2880236D01*
X415906Y2860236D01*
X425906Y2840236D01*
X405906Y2850236D01*
X385906Y2840236D01*
Y2722126D02*
X395906Y2742126D01*
X385906Y2762126D01*
X405906Y2752126D01*
X425906Y2762126D01*
X415906Y2742126D01*
X425906Y2722126D01*
X405906Y2732126D01*
X385906Y2722126D01*
Y2604016D02*
X395906Y2624016D01*
X385906Y2644016D01*
X405906Y2634016D01*
X425906Y2644016D01*
X415906Y2624016D01*
X425906Y2604016D01*
X405906Y2614016D01*
X385906Y2604016D01*
Y2485905D02*
X395906Y2505905D01*
X385906Y2525905D01*
X405906Y2515905D01*
X425906Y2525905D01*
X415906Y2505905D01*
X425906Y2485905D01*
X405906Y2495905D01*
X385906Y2485905D01*
Y2367795D02*
X395906Y2387795D01*
X385906Y2407795D01*
X405906Y2397795D01*
X425906Y2407795D01*
X415906Y2387795D01*
X425906Y2367795D01*
X405906Y2377795D01*
X385906Y2367795D01*
Y2249685D02*
X395906Y2269685D01*
X385906Y2289685D01*
X405906Y2279685D01*
X425906Y2289685D01*
X415906Y2269685D01*
X425906Y2249685D01*
X405906Y2259685D01*
X385906Y2249685D01*
X484331Y3135512D02*
X494331Y3155512D01*
X484331Y3175512D01*
X504331Y3165512D01*
X524331Y3175512D01*
X514331Y3155512D01*
X524331Y3135512D01*
X504331Y3145512D01*
X484331Y3135512D01*
Y3017402D02*
X494331Y3037402D01*
X484331Y3057402D01*
X504331Y3047402D01*
X524331Y3057402D01*
X514331Y3037402D01*
X524331Y3017402D01*
X504331Y3027402D01*
X484331Y3017402D01*
Y2899291D02*
X494331Y2919291D01*
X484331Y2939291D01*
X504331Y2929291D01*
X524331Y2939291D01*
X514331Y2919291D01*
X524331Y2899291D01*
X504331Y2909291D01*
X484331Y2899291D01*
Y2781181D02*
X494331Y2801181D01*
X484331Y2821181D01*
X504331Y2811181D01*
X524331Y2821181D01*
X514331Y2801181D01*
X524331Y2781181D01*
X504331Y2791181D01*
X484331Y2781181D01*
Y2663071D02*
X494331Y2683071D01*
X484331Y2703071D01*
X504331Y2693071D01*
X524331Y2703071D01*
X514331Y2683071D01*
X524331Y2663071D01*
X504331Y2673071D01*
X484331Y2663071D01*
Y2544961D02*
X494331Y2564961D01*
X484331Y2584961D01*
X504331Y2574961D01*
X524331Y2584961D01*
X514331Y2564961D01*
X524331Y2544961D01*
X504331Y2554961D01*
X484331Y2544961D01*
Y2426850D02*
X494331Y2446850D01*
X484331Y2466850D01*
X504331Y2456850D01*
X524331Y2466850D01*
X514331Y2446850D01*
X524331Y2426850D01*
X504331Y2436850D01*
X484331Y2426850D01*
Y2308740D02*
X494331Y2328740D01*
X484331Y2348740D01*
X504331Y2338740D01*
X524331Y2348740D01*
X514331Y2328740D01*
X524331Y2308740D01*
X504331Y2318740D01*
X484331Y2308740D01*
X602441Y3135512D02*
X612441Y3155512D01*
X602441Y3175512D01*
X622441Y3165512D01*
X642441Y3175512D01*
X632441Y3155512D01*
X642441Y3135512D01*
X622441Y3145512D01*
X602441Y3135512D01*
Y3017402D02*
X612441Y3037402D01*
X602441Y3057402D01*
X622441Y3047402D01*
X642441Y3057402D01*
X632441Y3037402D01*
X642441Y3017402D01*
X622441Y3027402D01*
X602441Y3017402D01*
Y2899291D02*
X612441Y2919291D01*
X602441Y2939291D01*
X622441Y2929291D01*
X642441Y2939291D01*
X632441Y2919291D01*
X642441Y2899291D01*
X622441Y2909291D01*
X602441Y2899291D01*
Y2781181D02*
X612441Y2801181D01*
X602441Y2821181D01*
X622441Y2811181D01*
X642441Y2821181D01*
X632441Y2801181D01*
X642441Y2781181D01*
X622441Y2791181D01*
X602441Y2781181D01*
Y2663071D02*
X612441Y2683071D01*
X602441Y2703071D01*
X622441Y2693071D01*
X642441Y2703071D01*
X632441Y2683071D01*
X642441Y2663071D01*
X622441Y2673071D01*
X602441Y2663071D01*
Y2544961D02*
X612441Y2564961D01*
X602441Y2584961D01*
X622441Y2574961D01*
X642441Y2584961D01*
X632441Y2564961D01*
X642441Y2544961D01*
X622441Y2554961D01*
X602441Y2544961D01*
Y2426850D02*
X612441Y2446850D01*
X602441Y2466850D01*
X622441Y2456850D01*
X642441Y2466850D01*
X632441Y2446850D01*
X642441Y2426850D01*
X622441Y2436850D01*
X602441Y2426850D01*
Y2308740D02*
X612441Y2328740D01*
X602441Y2348740D01*
X622441Y2338740D01*
X642441Y2348740D01*
X632441Y2328740D01*
X642441Y2308740D01*
X622441Y2318740D01*
X602441Y2308740D01*
X700866Y3194567D02*
X710866Y3214567D01*
X700866Y3234567D01*
X720866Y3224567D01*
X740866Y3234567D01*
X730866Y3214567D01*
X740866Y3194567D01*
X720866Y3204567D01*
X700866Y3194567D01*
Y3076457D02*
X710866Y3096457D01*
X700866Y3116457D01*
X720866Y3106457D01*
X740866Y3116457D01*
X730866Y3096457D01*
X740866Y3076457D01*
X720866Y3086457D01*
X700866Y3076457D01*
Y2958347D02*
X710866Y2978347D01*
X700866Y2998347D01*
X720866Y2988347D01*
X740866Y2998347D01*
X730866Y2978347D01*
X740866Y2958347D01*
X720866Y2968347D01*
X700866Y2958347D01*
Y2840236D02*
X710866Y2860236D01*
X700866Y2880236D01*
X720866Y2870236D01*
X740866Y2880236D01*
X730866Y2860236D01*
X740866Y2840236D01*
X720866Y2850236D01*
X700866Y2840236D01*
Y2722126D02*
X710866Y2742126D01*
X700866Y2762126D01*
X720866Y2752126D01*
X740866Y2762126D01*
X730866Y2742126D01*
X740866Y2722126D01*
X720866Y2732126D01*
X700866Y2722126D01*
Y2604016D02*
X710866Y2624016D01*
X700866Y2644016D01*
X720866Y2634016D01*
X740866Y2644016D01*
X730866Y2624016D01*
X740866Y2604016D01*
X720866Y2614016D01*
X700866Y2604016D01*
Y2485905D02*
X710866Y2505905D01*
X700866Y2525905D01*
X720866Y2515905D01*
X740866Y2525905D01*
X730866Y2505905D01*
X740866Y2485905D01*
X720866Y2495905D01*
X700866Y2485905D01*
Y2367795D02*
X710866Y2387795D01*
X700866Y2407795D01*
X720866Y2397795D01*
X740866Y2407795D01*
X730866Y2387795D01*
X740866Y2367795D01*
X720866Y2377795D01*
X700866Y2367795D01*
Y2249685D02*
X710866Y2269685D01*
X700866Y2289685D01*
X720866Y2279685D01*
X740866Y2289685D01*
X730866Y2269685D01*
X740866Y2249685D01*
X720866Y2259685D01*
X700866Y2249685D01*
X1618000Y3943449D02*
Y3933449D01*
X1638000D01*
Y3943449D01*
X1648000D01*
Y3963449D01*
X1638000D01*
Y3973449D01*
X1618000D01*
Y3963449D01*
X1608000D01*
Y3943449D01*
X1618000D01*
Y4043449D02*
Y4033449D01*
X1638000D01*
Y4043449D01*
X1648000D01*
Y4063449D01*
X1638000D01*
Y4073449D01*
X1618000D01*
Y4063449D01*
X1608000D01*
Y4043449D01*
X1618000D01*
X4720512Y1760000D02*
X4730512D01*
X4740512Y1770000D01*
X4750512Y1760000D01*
X4760512D01*
Y1770000D01*
X4750512Y1780000D01*
X4760512Y1790000D01*
Y1800000D01*
X4750512D01*
X4740512Y1790000D01*
X4730512Y1800000D01*
X4720512D01*
Y1790000D01*
X4730512Y1780000D01*
X4720512Y1770000D01*
Y1760000D01*
Y1807244D02*
X4730512D01*
X4740512Y1817244D01*
X4750512Y1807244D01*
X4760512D01*
Y1817244D01*
X4750512Y1827244D01*
X4760512Y1837244D01*
Y1847244D01*
X4750512D01*
X4740512Y1837244D01*
X4730512Y1847244D01*
X4720512D01*
Y1837244D01*
X4730512Y1827244D01*
X4720512Y1817244D01*
Y1807244D01*
Y1854488D02*
X4730512D01*
X4740512Y1864488D01*
X4750512Y1854488D01*
X4760512D01*
Y1864488D01*
X4750512Y1874488D01*
X4760512Y1884488D01*
Y1894488D01*
X4750512D01*
X4740512Y1884488D01*
X4730512Y1894488D01*
X4720512D01*
Y1884488D01*
X4730512Y1874488D01*
X4720512Y1864488D01*
Y1854488D01*
Y1901732D02*
X4730512D01*
X4740512Y1911732D01*
X4750512Y1901732D01*
X4760512D01*
Y1911732D01*
X4750512Y1921732D01*
X4760512Y1931732D01*
Y1941732D01*
X4750512D01*
X4740512Y1931732D01*
X4730512Y1941732D01*
X4720512D01*
Y1931732D01*
X4730512Y1921732D01*
X4720512Y1911732D01*
Y1901732D01*
Y1712756D02*
X4730512D01*
X4740512Y1722756D01*
X4750512Y1712756D01*
X4760512D01*
Y1722756D01*
X4750512Y1732756D01*
X4760512Y1742756D01*
Y1752756D01*
X4750512D01*
X4740512Y1742756D01*
X4730512Y1752756D01*
X4720512D01*
Y1742756D01*
X4730512Y1732756D01*
X4720512Y1722756D01*
Y1712756D01*
Y1665512D02*
X4730512D01*
X4740512Y1675512D01*
X4750512Y1665512D01*
X4760512D01*
Y1675512D01*
X4750512Y1685512D01*
X4760512Y1695512D01*
Y1705512D01*
X4750512D01*
X4740512Y1695512D01*
X4730512Y1705512D01*
X4720512D01*
Y1695512D01*
X4730512Y1685512D01*
X4720512Y1675512D01*
Y1665512D01*
Y1618268D02*
X4730512D01*
X4740512Y1628268D01*
X4750512Y1618268D01*
X4760512D01*
Y1628268D01*
X4750512Y1638268D01*
X4760512Y1648268D01*
Y1658268D01*
X4750512D01*
X4740512Y1648268D01*
X4730512Y1658268D01*
X4720512D01*
Y1648268D01*
X4730512Y1638268D01*
X4720512Y1628268D01*
Y1618268D01*
X4767756D02*
X4777756D01*
X4787756Y1628268D01*
X4797756Y1618268D01*
X4807756D01*
Y1628268D01*
X4797756Y1638268D01*
X4807756Y1648268D01*
Y1658268D01*
X4797756D01*
X4787756Y1648268D01*
X4777756Y1658268D01*
X4767756D01*
Y1648268D01*
X4777756Y1638268D01*
X4767756Y1628268D01*
Y1618268D01*
Y1665512D02*
X4777756D01*
X4787756Y1675512D01*
X4797756Y1665512D01*
X4807756D01*
Y1675512D01*
X4797756Y1685512D01*
X4807756Y1695512D01*
Y1705512D01*
X4797756D01*
X4787756Y1695512D01*
X4777756Y1705512D01*
X4767756D01*
Y1695512D01*
X4777756Y1685512D01*
X4767756Y1675512D01*
Y1665512D01*
Y1712756D02*
X4777756D01*
X4787756Y1722756D01*
X4797756Y1712756D01*
X4807756D01*
Y1722756D01*
X4797756Y1732756D01*
X4807756Y1742756D01*
Y1752756D01*
X4797756D01*
X4787756Y1742756D01*
X4777756Y1752756D01*
X4767756D01*
Y1742756D01*
X4777756Y1732756D01*
X4767756Y1722756D01*
Y1712756D01*
Y1901732D02*
X4777756D01*
X4787756Y1911732D01*
X4797756Y1901732D01*
X4807756D01*
Y1911732D01*
X4797756Y1921732D01*
X4807756Y1931732D01*
Y1941732D01*
X4797756D01*
X4787756Y1931732D01*
X4777756Y1941732D01*
X4767756D01*
Y1931732D01*
X4777756Y1921732D01*
X4767756Y1911732D01*
Y1901732D01*
Y1854488D02*
X4777756D01*
X4787756Y1864488D01*
X4797756Y1854488D01*
X4807756D01*
Y1864488D01*
X4797756Y1874488D01*
X4807756Y1884488D01*
Y1894488D01*
X4797756D01*
X4787756Y1884488D01*
X4777756Y1894488D01*
X4767756D01*
Y1884488D01*
X4777756Y1874488D01*
X4767756Y1864488D01*
Y1854488D01*
Y1807244D02*
X4777756D01*
X4787756Y1817244D01*
X4797756Y1807244D01*
X4807756D01*
Y1817244D01*
X4797756Y1827244D01*
X4807756Y1837244D01*
Y1847244D01*
X4797756D01*
X4787756Y1837244D01*
X4777756Y1847244D01*
X4767756D01*
Y1837244D01*
X4777756Y1827244D01*
X4767756Y1817244D01*
Y1807244D01*
Y1760000D02*
X4777756D01*
X4787756Y1770000D01*
X4797756Y1760000D01*
X4807756D01*
Y1770000D01*
X4797756Y1780000D01*
X4807756Y1790000D01*
Y1800000D01*
X4797756D01*
X4787756Y1790000D01*
X4777756Y1800000D01*
X4767756D01*
Y1790000D01*
X4777756Y1780000D01*
X4767756Y1770000D01*
Y1760000D01*
X4815000Y1618268D02*
X4825000D01*
X4835000Y1628268D01*
X4845000Y1618268D01*
X4855000D01*
Y1628268D01*
X4845000Y1638268D01*
X4855000Y1648268D01*
Y1658268D01*
X4845000D01*
X4835000Y1648268D01*
X4825000Y1658268D01*
X4815000D01*
Y1648268D01*
X4825000Y1638268D01*
X4815000Y1628268D01*
Y1618268D01*
Y1665512D02*
X4825000D01*
X4835000Y1675512D01*
X4845000Y1665512D01*
X4855000D01*
Y1675512D01*
X4845000Y1685512D01*
X4855000Y1695512D01*
Y1705512D01*
X4845000D01*
X4835000Y1695512D01*
X4825000Y1705512D01*
X4815000D01*
Y1695512D01*
X4825000Y1685512D01*
X4815000Y1675512D01*
Y1665512D01*
Y1712756D02*
X4825000D01*
X4835000Y1722756D01*
X4845000Y1712756D01*
X4855000D01*
Y1722756D01*
X4845000Y1732756D01*
X4855000Y1742756D01*
Y1752756D01*
X4845000D01*
X4835000Y1742756D01*
X4825000Y1752756D01*
X4815000D01*
Y1742756D01*
X4825000Y1732756D01*
X4815000Y1722756D01*
Y1712756D01*
Y1901732D02*
X4825000D01*
X4835000Y1911732D01*
X4845000Y1901732D01*
X4855000D01*
Y1911732D01*
X4845000Y1921732D01*
X4855000Y1931732D01*
Y1941732D01*
X4845000D01*
X4835000Y1931732D01*
X4825000Y1941732D01*
X4815000D01*
Y1931732D01*
X4825000Y1921732D01*
X4815000Y1911732D01*
Y1901732D01*
Y1854488D02*
X4825000D01*
X4835000Y1864488D01*
X4845000Y1854488D01*
X4855000D01*
Y1864488D01*
X4845000Y1874488D01*
X4855000Y1884488D01*
Y1894488D01*
X4845000D01*
X4835000Y1884488D01*
X4825000Y1894488D01*
X4815000D01*
Y1884488D01*
X4825000Y1874488D01*
X4815000Y1864488D01*
Y1854488D01*
Y1807244D02*
X4825000D01*
X4835000Y1817244D01*
X4845000Y1807244D01*
X4855000D01*
Y1817244D01*
X4845000Y1827244D01*
X4855000Y1837244D01*
Y1847244D01*
X4845000D01*
X4835000Y1837244D01*
X4825000Y1847244D01*
X4815000D01*
Y1837244D01*
X4825000Y1827244D01*
X4815000Y1817244D01*
Y1807244D01*
Y1760000D02*
X4825000D01*
X4835000Y1770000D01*
X4845000Y1760000D01*
X4855000D01*
Y1770000D01*
X4845000Y1780000D01*
X4855000Y1790000D01*
Y1800000D01*
X4845000D01*
X4835000Y1790000D01*
X4825000Y1800000D01*
X4815000D01*
Y1790000D01*
X4825000Y1780000D01*
X4815000Y1770000D01*
Y1760000D01*
X4862244Y1618268D02*
X4872244D01*
X4882244Y1628268D01*
X4892244Y1618268D01*
X4902244D01*
Y1628268D01*
X4892244Y1638268D01*
X4902244Y1648268D01*
Y1658268D01*
X4892244D01*
X4882244Y1648268D01*
X4872244Y1658268D01*
X4862244D01*
Y1648268D01*
X4872244Y1638268D01*
X4862244Y1628268D01*
Y1618268D01*
Y1665512D02*
X4872244D01*
X4882244Y1675512D01*
X4892244Y1665512D01*
X4902244D01*
Y1675512D01*
X4892244Y1685512D01*
X4902244Y1695512D01*
Y1705512D01*
X4892244D01*
X4882244Y1695512D01*
X4872244Y1705512D01*
X4862244D01*
Y1695512D01*
X4872244Y1685512D01*
X4862244Y1675512D01*
Y1665512D01*
Y1712756D02*
X4872244D01*
X4882244Y1722756D01*
X4892244Y1712756D01*
X4902244D01*
Y1722756D01*
X4892244Y1732756D01*
X4902244Y1742756D01*
Y1752756D01*
X4892244D01*
X4882244Y1742756D01*
X4872244Y1752756D01*
X4862244D01*
Y1742756D01*
X4872244Y1732756D01*
X4862244Y1722756D01*
Y1712756D01*
Y1901732D02*
X4872244D01*
X4882244Y1911732D01*
X4892244Y1901732D01*
X4902244D01*
Y1911732D01*
X4892244Y1921732D01*
X4902244Y1931732D01*
Y1941732D01*
X4892244D01*
X4882244Y1931732D01*
X4872244Y1941732D01*
X4862244D01*
Y1931732D01*
X4872244Y1921732D01*
X4862244Y1911732D01*
Y1901732D01*
Y1854488D02*
X4872244D01*
X4882244Y1864488D01*
X4892244Y1854488D01*
X4902244D01*
Y1864488D01*
X4892244Y1874488D01*
X4902244Y1884488D01*
Y1894488D01*
X4892244D01*
X4882244Y1884488D01*
X4872244Y1894488D01*
X4862244D01*
Y1884488D01*
X4872244Y1874488D01*
X4862244Y1864488D01*
Y1854488D01*
Y1807244D02*
X4872244D01*
X4882244Y1817244D01*
X4892244Y1807244D01*
X4902244D01*
Y1817244D01*
X4892244Y1827244D01*
X4902244Y1837244D01*
Y1847244D01*
X4892244D01*
X4882244Y1837244D01*
X4872244Y1847244D01*
X4862244D01*
Y1837244D01*
X4872244Y1827244D01*
X4862244Y1817244D01*
Y1807244D01*
Y1760000D02*
X4872244D01*
X4882244Y1770000D01*
X4892244Y1760000D01*
X4902244D01*
Y1770000D01*
X4892244Y1780000D01*
X4902244Y1790000D01*
Y1800000D01*
X4892244D01*
X4882244Y1790000D01*
X4872244Y1800000D01*
X4862244D01*
Y1790000D01*
X4872244Y1780000D01*
X4862244Y1770000D01*
Y1760000D01*
X4673268Y1618268D02*
X4683268D01*
X4693268Y1628268D01*
X4703268Y1618268D01*
X4713268D01*
Y1628268D01*
X4703268Y1638268D01*
X4713268Y1648268D01*
Y1658268D01*
X4703268D01*
X4693268Y1648268D01*
X4683268Y1658268D01*
X4673268D01*
Y1648268D01*
X4683268Y1638268D01*
X4673268Y1628268D01*
Y1618268D01*
Y1665512D02*
X4683268D01*
X4693268Y1675512D01*
X4703268Y1665512D01*
X4713268D01*
Y1675512D01*
X4703268Y1685512D01*
X4713268Y1695512D01*
Y1705512D01*
X4703268D01*
X4693268Y1695512D01*
X4683268Y1705512D01*
X4673268D01*
Y1695512D01*
X4683268Y1685512D01*
X4673268Y1675512D01*
Y1665512D01*
Y1712756D02*
X4683268D01*
X4693268Y1722756D01*
X4703268Y1712756D01*
X4713268D01*
Y1722756D01*
X4703268Y1732756D01*
X4713268Y1742756D01*
Y1752756D01*
X4703268D01*
X4693268Y1742756D01*
X4683268Y1752756D01*
X4673268D01*
Y1742756D01*
X4683268Y1732756D01*
X4673268Y1722756D01*
Y1712756D01*
Y1901732D02*
X4683268D01*
X4693268Y1911732D01*
X4703268Y1901732D01*
X4713268D01*
Y1911732D01*
X4703268Y1921732D01*
X4713268Y1931732D01*
Y1941732D01*
X4703268D01*
X4693268Y1931732D01*
X4683268Y1941732D01*
X4673268D01*
Y1931732D01*
X4683268Y1921732D01*
X4673268Y1911732D01*
Y1901732D01*
Y1854488D02*
X4683268D01*
X4693268Y1864488D01*
X4703268Y1854488D01*
X4713268D01*
Y1864488D01*
X4703268Y1874488D01*
X4713268Y1884488D01*
Y1894488D01*
X4703268D01*
X4693268Y1884488D01*
X4683268Y1894488D01*
X4673268D01*
Y1884488D01*
X4683268Y1874488D01*
X4673268Y1864488D01*
Y1854488D01*
Y1807244D02*
X4683268D01*
X4693268Y1817244D01*
X4703268Y1807244D01*
X4713268D01*
Y1817244D01*
X4703268Y1827244D01*
X4713268Y1837244D01*
Y1847244D01*
X4703268D01*
X4693268Y1837244D01*
X4683268Y1847244D01*
X4673268D01*
Y1837244D01*
X4683268Y1827244D01*
X4673268Y1817244D01*
Y1807244D01*
Y1760000D02*
X4683268D01*
X4693268Y1770000D01*
X4703268Y1760000D01*
X4713268D01*
Y1770000D01*
X4703268Y1780000D01*
X4713268Y1790000D01*
Y1800000D01*
X4703268D01*
X4693268Y1790000D01*
X4683268Y1800000D01*
X4673268D01*
Y1790000D01*
X4683268Y1780000D01*
X4673268Y1770000D01*
Y1760000D01*
X4626024Y1618268D02*
X4636024D01*
X4646024Y1628268D01*
X4656024Y1618268D01*
X4666024D01*
Y1628268D01*
X4656024Y1638268D01*
X4666024Y1648268D01*
Y1658268D01*
X4656024D01*
X4646024Y1648268D01*
X4636024Y1658268D01*
X4626024D01*
Y1648268D01*
X4636024Y1638268D01*
X4626024Y1628268D01*
Y1618268D01*
Y1665512D02*
X4636024D01*
X4646024Y1675512D01*
X4656024Y1665512D01*
X4666024D01*
Y1675512D01*
X4656024Y1685512D01*
X4666024Y1695512D01*
Y1705512D01*
X4656024D01*
X4646024Y1695512D01*
X4636024Y1705512D01*
X4626024D01*
Y1695512D01*
X4636024Y1685512D01*
X4626024Y1675512D01*
Y1665512D01*
Y1712756D02*
X4636024D01*
X4646024Y1722756D01*
X4656024Y1712756D01*
X4666024D01*
Y1722756D01*
X4656024Y1732756D01*
X4666024Y1742756D01*
Y1752756D01*
X4656024D01*
X4646024Y1742756D01*
X4636024Y1752756D01*
X4626024D01*
Y1742756D01*
X4636024Y1732756D01*
X4626024Y1722756D01*
Y1712756D01*
Y1901732D02*
X4636024D01*
X4646024Y1911732D01*
X4656024Y1901732D01*
X4666024D01*
Y1911732D01*
X4656024Y1921732D01*
X4666024Y1931732D01*
Y1941732D01*
X4656024D01*
X4646024Y1931732D01*
X4636024Y1941732D01*
X4626024D01*
Y1931732D01*
X4636024Y1921732D01*
X4626024Y1911732D01*
Y1901732D01*
Y1854488D02*
X4636024D01*
X4646024Y1864488D01*
X4656024Y1854488D01*
X4666024D01*
Y1864488D01*
X4656024Y1874488D01*
X4666024Y1884488D01*
Y1894488D01*
X4656024D01*
X4646024Y1884488D01*
X4636024Y1894488D01*
X4626024D01*
Y1884488D01*
X4636024Y1874488D01*
X4626024Y1864488D01*
Y1854488D01*
Y1807244D02*
X4636024D01*
X4646024Y1817244D01*
X4656024Y1807244D01*
X4666024D01*
Y1817244D01*
X4656024Y1827244D01*
X4666024Y1837244D01*
Y1847244D01*
X4656024D01*
X4646024Y1837244D01*
X4636024Y1847244D01*
X4626024D01*
Y1837244D01*
X4636024Y1827244D01*
X4626024Y1817244D01*
Y1807244D01*
Y1760000D02*
X4636024D01*
X4646024Y1770000D01*
X4656024Y1760000D01*
X4666024D01*
Y1770000D01*
X4656024Y1780000D01*
X4666024Y1790000D01*
Y1800000D01*
X4656024D01*
X4646024Y1790000D01*
X4636024Y1800000D01*
X4626024D01*
Y1790000D01*
X4636024Y1780000D01*
X4626024Y1770000D01*
Y1760000D01*
X4578780Y1618268D02*
X4588780D01*
X4598780Y1628268D01*
X4608780Y1618268D01*
X4618780D01*
Y1628268D01*
X4608780Y1638268D01*
X4618780Y1648268D01*
Y1658268D01*
X4608780D01*
X4598780Y1648268D01*
X4588780Y1658268D01*
X4578780D01*
Y1648268D01*
X4588780Y1638268D01*
X4578780Y1628268D01*
Y1618268D01*
Y1665512D02*
X4588780D01*
X4598780Y1675512D01*
X4608780Y1665512D01*
X4618780D01*
Y1675512D01*
X4608780Y1685512D01*
X4618780Y1695512D01*
Y1705512D01*
X4608780D01*
X4598780Y1695512D01*
X4588780Y1705512D01*
X4578780D01*
Y1695512D01*
X4588780Y1685512D01*
X4578780Y1675512D01*
Y1665512D01*
Y1712756D02*
X4588780D01*
X4598780Y1722756D01*
X4608780Y1712756D01*
X4618780D01*
Y1722756D01*
X4608780Y1732756D01*
X4618780Y1742756D01*
Y1752756D01*
X4608780D01*
X4598780Y1742756D01*
X4588780Y1752756D01*
X4578780D01*
Y1742756D01*
X4588780Y1732756D01*
X4578780Y1722756D01*
Y1712756D01*
Y1901732D02*
X4588780D01*
X4598780Y1911732D01*
X4608780Y1901732D01*
X4618780D01*
Y1911732D01*
X4608780Y1921732D01*
X4618780Y1931732D01*
Y1941732D01*
X4608780D01*
X4598780Y1931732D01*
X4588780Y1941732D01*
X4578780D01*
Y1931732D01*
X4588780Y1921732D01*
X4578780Y1911732D01*
Y1901732D01*
Y1854488D02*
X4588780D01*
X4598780Y1864488D01*
X4608780Y1854488D01*
X4618780D01*
Y1864488D01*
X4608780Y1874488D01*
X4618780Y1884488D01*
Y1894488D01*
X4608780D01*
X4598780Y1884488D01*
X4588780Y1894488D01*
X4578780D01*
Y1884488D01*
X4588780Y1874488D01*
X4578780Y1864488D01*
Y1854488D01*
Y1807244D02*
X4588780D01*
X4598780Y1817244D01*
X4608780Y1807244D01*
X4618780D01*
Y1817244D01*
X4608780Y1827244D01*
X4618780Y1837244D01*
Y1847244D01*
X4608780D01*
X4598780Y1837244D01*
X4588780Y1847244D01*
X4578780D01*
Y1837244D01*
X4588780Y1827244D01*
X4578780Y1817244D01*
Y1807244D01*
Y1760000D02*
X4588780D01*
X4598780Y1770000D01*
X4608780Y1760000D01*
X4618780D01*
Y1770000D01*
X4608780Y1780000D01*
X4618780Y1790000D01*
Y1800000D01*
X4608780D01*
X4598780Y1790000D01*
X4588780Y1800000D01*
X4578780D01*
Y1790000D01*
X4588780Y1780000D01*
X4578780Y1770000D01*
Y1760000D01*
X4531535Y1618268D02*
X4541535D01*
X4551535Y1628268D01*
X4561535Y1618268D01*
X4571535D01*
Y1628268D01*
X4561535Y1638268D01*
X4571535Y1648268D01*
Y1658268D01*
X4561535D01*
X4551535Y1648268D01*
X4541535Y1658268D01*
X4531535D01*
Y1648268D01*
X4541535Y1638268D01*
X4531535Y1628268D01*
Y1618268D01*
Y1665512D02*
X4541535D01*
X4551535Y1675512D01*
X4561535Y1665512D01*
X4571535D01*
Y1675512D01*
X4561535Y1685512D01*
X4571535Y1695512D01*
Y1705512D01*
X4561535D01*
X4551535Y1695512D01*
X4541535Y1705512D01*
X4531535D01*
Y1695512D01*
X4541535Y1685512D01*
X4531535Y1675512D01*
Y1665512D01*
Y1712756D02*
X4541535D01*
X4551535Y1722756D01*
X4561535Y1712756D01*
X4571535D01*
Y1722756D01*
X4561535Y1732756D01*
X4571535Y1742756D01*
Y1752756D01*
X4561535D01*
X4551535Y1742756D01*
X4541535Y1752756D01*
X4531535D01*
Y1742756D01*
X4541535Y1732756D01*
X4531535Y1722756D01*
Y1712756D01*
Y1901732D02*
X4541535D01*
X4551535Y1911732D01*
X4561535Y1901732D01*
X4571535D01*
Y1911732D01*
X4561535Y1921732D01*
X4571535Y1931732D01*
Y1941732D01*
X4561535D01*
X4551535Y1931732D01*
X4541535Y1941732D01*
X4531535D01*
Y1931732D01*
X4541535Y1921732D01*
X4531535Y1911732D01*
Y1901732D01*
Y1854488D02*
X4541535D01*
X4551535Y1864488D01*
X4561535Y1854488D01*
X4571535D01*
Y1864488D01*
X4561535Y1874488D01*
X4571535Y1884488D01*
Y1894488D01*
X4561535D01*
X4551535Y1884488D01*
X4541535Y1894488D01*
X4531535D01*
Y1884488D01*
X4541535Y1874488D01*
X4531535Y1864488D01*
Y1854488D01*
Y1807244D02*
X4541535D01*
X4551535Y1817244D01*
X4561535Y1807244D01*
X4571535D01*
Y1817244D01*
X4561535Y1827244D01*
X4571535Y1837244D01*
Y1847244D01*
X4561535D01*
X4551535Y1837244D01*
X4541535Y1847244D01*
X4531535D01*
Y1837244D01*
X4541535Y1827244D01*
X4531535Y1817244D01*
Y1807244D01*
Y1760000D02*
X4541535D01*
X4551535Y1770000D01*
X4561535Y1760000D01*
X4571535D01*
Y1770000D01*
X4561535Y1780000D01*
X4571535Y1790000D01*
Y1800000D01*
X4561535D01*
X4551535Y1790000D01*
X4541535Y1800000D01*
X4531535D01*
Y1790000D01*
X4541535Y1780000D01*
X4531535Y1770000D01*
Y1760000D01*
X1514000Y363000D02*
X1534000Y383000D01*
X1554000Y363000D01*
X1534000Y343000D01*
X1514000Y363000D01*
Y395000D02*
X1534000Y415000D01*
X1554000Y395000D01*
X1534000Y375000D01*
X1514000Y395000D01*
Y427000D02*
X1534000Y447000D01*
X1554000Y427000D01*
X1534000Y407000D01*
X1514000Y427000D01*
Y459000D02*
X1534000Y479000D01*
X1554000Y459000D01*
X1534000Y439000D01*
X1514000Y459000D01*
Y491000D02*
X1534000Y511000D01*
X1554000Y491000D01*
X1534000Y471000D01*
X1514000Y491000D01*
Y523000D02*
X1534000Y543000D01*
X1554000Y523000D01*
X1534000Y503000D01*
X1514000Y523000D01*
X1550000D02*
X1570000Y543000D01*
X1590000Y523000D01*
X1570000Y503000D01*
X1550000Y523000D01*
Y491000D02*
X1570000Y511000D01*
X1590000Y491000D01*
X1570000Y471000D01*
X1550000Y491000D01*
Y459000D02*
X1570000Y479000D01*
X1590000Y459000D01*
X1570000Y439000D01*
X1550000Y459000D01*
Y427000D02*
X1570000Y447000D01*
X1590000Y427000D01*
X1570000Y407000D01*
X1550000Y427000D01*
Y395000D02*
X1570000Y415000D01*
X1590000Y395000D01*
X1570000Y375000D01*
X1550000Y395000D01*
Y363000D02*
X1570000Y383000D01*
X1590000Y363000D01*
X1570000Y343000D01*
X1550000Y363000D01*
X1621500D02*
X1641500Y383000D01*
X1661500Y363000D01*
X1641500Y343000D01*
X1621500Y363000D01*
Y395000D02*
X1641500Y415000D01*
X1661500Y395000D01*
X1641500Y375000D01*
X1621500Y395000D01*
Y427000D02*
X1641500Y447000D01*
X1661500Y427000D01*
X1641500Y407000D01*
X1621500Y427000D01*
Y459000D02*
X1641500Y479000D01*
X1661500Y459000D01*
X1641500Y439000D01*
X1621500Y459000D01*
Y491000D02*
X1641500Y511000D01*
X1661500Y491000D01*
X1641500Y471000D01*
X1621500Y491000D01*
Y523000D02*
X1641500Y543000D01*
X1661500Y523000D01*
X1641500Y503000D01*
X1621500Y523000D01*
X1585500D02*
X1605500Y543000D01*
X1625500Y523000D01*
X1605500Y503000D01*
X1585500Y523000D01*
Y491000D02*
X1605500Y511000D01*
X1625500Y491000D01*
X1605500Y471000D01*
X1585500Y491000D01*
Y459000D02*
X1605500Y479000D01*
X1625500Y459000D01*
X1605500Y439000D01*
X1585500Y459000D01*
Y427000D02*
X1605500Y447000D01*
X1625500Y427000D01*
X1605500Y407000D01*
X1585500Y427000D01*
Y395000D02*
X1605500Y415000D01*
X1625500Y395000D01*
X1605500Y375000D01*
X1585500Y395000D01*
Y363000D02*
X1605500Y383000D01*
X1625500Y363000D01*
X1605500Y343000D01*
X1585500Y363000D01*
X1481500Y363500D02*
X1501500Y383500D01*
X1521500Y363500D01*
X1501500Y343500D01*
X1481500Y363500D01*
Y395500D02*
X1501500Y415500D01*
X1521500Y395500D01*
X1501500Y375500D01*
X1481500Y395500D01*
Y427500D02*
X1501500Y447500D01*
X1521500Y427500D01*
X1501500Y407500D01*
X1481500Y427500D01*
Y459500D02*
X1501500Y479500D01*
X1521500Y459500D01*
X1501500Y439500D01*
X1481500Y459500D01*
Y491500D02*
X1501500Y511500D01*
X1521500Y491500D01*
X1501500Y471500D01*
X1481500Y491500D01*
Y523500D02*
X1501500Y543500D01*
X1521500Y523500D01*
X1501500Y503500D01*
X1481500Y523500D01*
X1264000Y361500D02*
X1284000Y381500D01*
X1304000Y361500D01*
X1284000Y341500D01*
X1264000Y361500D01*
Y393500D02*
X1284000Y413500D01*
X1304000Y393500D01*
X1284000Y373500D01*
X1264000Y393500D01*
Y425500D02*
X1284000Y445500D01*
X1304000Y425500D01*
X1284000Y405500D01*
X1264000Y425500D01*
Y457500D02*
X1284000Y477500D01*
X1304000Y457500D01*
X1284000Y437500D01*
X1264000Y457500D01*
Y489500D02*
X1284000Y509500D01*
X1304000Y489500D01*
X1284000Y469500D01*
X1264000Y489500D01*
Y521500D02*
X1284000Y541500D01*
X1304000Y521500D01*
X1284000Y501500D01*
X1264000Y521500D01*
X1300000D02*
X1320000Y541500D01*
X1340000Y521500D01*
X1320000Y501500D01*
X1300000Y521500D01*
Y489500D02*
X1320000Y509500D01*
X1340000Y489500D01*
X1320000Y469500D01*
X1300000Y489500D01*
Y457500D02*
X1320000Y477500D01*
X1340000Y457500D01*
X1320000Y437500D01*
X1300000Y457500D01*
Y425500D02*
X1320000Y445500D01*
X1340000Y425500D01*
X1320000Y405500D01*
X1300000Y425500D01*
Y393500D02*
X1320000Y413500D01*
X1340000Y393500D01*
X1320000Y373500D01*
X1300000Y393500D01*
Y361500D02*
X1320000Y381500D01*
X1340000Y361500D01*
X1320000Y341500D01*
X1300000Y361500D01*
X1371500D02*
X1391500Y381500D01*
X1411500Y361500D01*
X1391500Y341500D01*
X1371500Y361500D01*
Y393500D02*
X1391500Y413500D01*
X1411500Y393500D01*
X1391500Y373500D01*
X1371500Y393500D01*
Y425500D02*
X1391500Y445500D01*
X1411500Y425500D01*
X1391500Y405500D01*
X1371500Y425500D01*
Y457500D02*
X1391500Y477500D01*
X1411500Y457500D01*
X1391500Y437500D01*
X1371500Y457500D01*
Y489500D02*
X1391500Y509500D01*
X1411500Y489500D01*
X1391500Y469500D01*
X1371500Y489500D01*
Y521500D02*
X1391500Y541500D01*
X1411500Y521500D01*
X1391500Y501500D01*
X1371500Y521500D01*
X1335500D02*
X1355500Y541500D01*
X1375500Y521500D01*
X1355500Y501500D01*
X1335500Y521500D01*
Y489500D02*
X1355500Y509500D01*
X1375500Y489500D01*
X1355500Y469500D01*
X1335500Y489500D01*
Y457500D02*
X1355500Y477500D01*
X1375500Y457500D01*
X1355500Y437500D01*
X1335500Y457500D01*
Y425500D02*
X1355500Y445500D01*
X1375500Y425500D01*
X1355500Y405500D01*
X1335500Y425500D01*
Y393500D02*
X1355500Y413500D01*
X1375500Y393500D01*
X1355500Y373500D01*
X1335500Y393500D01*
Y361500D02*
X1355500Y381500D01*
X1375500Y361500D01*
X1355500Y341500D01*
X1335500Y361500D01*
X1231500Y362000D02*
X1251500Y382000D01*
X1271500Y362000D01*
X1251500Y342000D01*
X1231500Y362000D01*
Y394000D02*
X1251500Y414000D01*
X1271500Y394000D01*
X1251500Y374000D01*
X1231500Y394000D01*
Y426000D02*
X1251500Y446000D01*
X1271500Y426000D01*
X1251500Y406000D01*
X1231500Y426000D01*
Y458000D02*
X1251500Y478000D01*
X1271500Y458000D01*
X1251500Y438000D01*
X1231500Y458000D01*
Y490000D02*
X1251500Y510000D01*
X1271500Y490000D01*
X1251500Y470000D01*
X1231500Y490000D01*
Y522000D02*
X1251500Y542000D01*
X1271500Y522000D01*
X1251500Y502000D01*
X1231500Y522000D01*
X1017500Y363500D02*
X1037500Y383500D01*
X1057500Y363500D01*
X1037500Y343500D01*
X1017500Y363500D01*
Y395500D02*
X1037500Y415500D01*
X1057500Y395500D01*
X1037500Y375500D01*
X1017500Y395500D01*
Y427500D02*
X1037500Y447500D01*
X1057500Y427500D01*
X1037500Y407500D01*
X1017500Y427500D01*
Y459500D02*
X1037500Y479500D01*
X1057500Y459500D01*
X1037500Y439500D01*
X1017500Y459500D01*
Y491500D02*
X1037500Y511500D01*
X1057500Y491500D01*
X1037500Y471500D01*
X1017500Y491500D01*
Y523500D02*
X1037500Y543500D01*
X1057500Y523500D01*
X1037500Y503500D01*
X1017500Y523500D01*
X1053500D02*
X1073500Y543500D01*
X1093500Y523500D01*
X1073500Y503500D01*
X1053500Y523500D01*
Y491500D02*
X1073500Y511500D01*
X1093500Y491500D01*
X1073500Y471500D01*
X1053500Y491500D01*
Y459500D02*
X1073500Y479500D01*
X1093500Y459500D01*
X1073500Y439500D01*
X1053500Y459500D01*
Y427500D02*
X1073500Y447500D01*
X1093500Y427500D01*
X1073500Y407500D01*
X1053500Y427500D01*
Y395500D02*
X1073500Y415500D01*
X1093500Y395500D01*
X1073500Y375500D01*
X1053500Y395500D01*
Y363500D02*
X1073500Y383500D01*
X1093500Y363500D01*
X1073500Y343500D01*
X1053500Y363500D01*
X1125000D02*
X1145000Y383500D01*
X1165000Y363500D01*
X1145000Y343500D01*
X1125000Y363500D01*
Y395500D02*
X1145000Y415500D01*
X1165000Y395500D01*
X1145000Y375500D01*
X1125000Y395500D01*
Y427500D02*
X1145000Y447500D01*
X1165000Y427500D01*
X1145000Y407500D01*
X1125000Y427500D01*
Y459500D02*
X1145000Y479500D01*
X1165000Y459500D01*
X1145000Y439500D01*
X1125000Y459500D01*
Y491500D02*
X1145000Y511500D01*
X1165000Y491500D01*
X1145000Y471500D01*
X1125000Y491500D01*
Y523500D02*
X1145000Y543500D01*
X1165000Y523500D01*
X1145000Y503500D01*
X1125000Y523500D01*
X1089000D02*
X1109000Y543500D01*
X1129000Y523500D01*
X1109000Y503500D01*
X1089000Y523500D01*
Y491500D02*
X1109000Y511500D01*
X1129000Y491500D01*
X1109000Y471500D01*
X1089000Y491500D01*
Y459500D02*
X1109000Y479500D01*
X1129000Y459500D01*
X1109000Y439500D01*
X1089000Y459500D01*
Y427500D02*
X1109000Y447500D01*
X1129000Y427500D01*
X1109000Y407500D01*
X1089000Y427500D01*
Y395500D02*
X1109000Y415500D01*
X1129000Y395500D01*
X1109000Y375500D01*
X1089000Y395500D01*
Y363500D02*
X1109000Y383500D01*
X1129000Y363500D01*
X1109000Y343500D01*
X1089000Y363500D01*
X985000Y364000D02*
X1005000Y384000D01*
X1025000Y364000D01*
X1005000Y344000D01*
X985000Y364000D01*
Y396000D02*
X1005000Y416000D01*
X1025000Y396000D01*
X1005000Y376000D01*
X985000Y396000D01*
Y428000D02*
X1005000Y448000D01*
X1025000Y428000D01*
X1005000Y408000D01*
X985000Y428000D01*
Y460000D02*
X1005000Y480000D01*
X1025000Y460000D01*
X1005000Y440000D01*
X985000Y460000D01*
Y492000D02*
X1005000Y512000D01*
X1025000Y492000D01*
X1005000Y472000D01*
X985000Y492000D01*
Y524000D02*
X1005000Y544000D01*
X1025000Y524000D01*
X1005000Y504000D01*
X985000Y524000D01*
X3834500Y1857693D02*
X3854500Y1877693D01*
X3874500Y1857693D01*
X3854500Y1837693D01*
X3834500Y1857693D01*
Y1889693D02*
X3854500Y1909693D01*
X3874500Y1889693D01*
X3854500Y1869693D01*
X3834500Y1889693D01*
Y1921693D02*
X3854500Y1941693D01*
X3874500Y1921693D01*
X3854500Y1901693D01*
X3834500Y1921693D01*
Y1953693D02*
X3854500Y1973693D01*
X3874500Y1953693D01*
X3854500Y1933693D01*
X3834500Y1953693D01*
Y1985693D02*
X3854500Y2005693D01*
X3874500Y1985693D01*
X3854500Y1965693D01*
X3834500Y1985693D01*
Y2017693D02*
X3854500Y2037693D01*
X3874500Y2017693D01*
X3854500Y1997693D01*
X3834500Y2017693D01*
X3870500D02*
X3890500Y2037693D01*
X3910500Y2017693D01*
X3890500Y1997693D01*
X3870500Y2017693D01*
Y1985693D02*
X3890500Y2005693D01*
X3910500Y1985693D01*
X3890500Y1965693D01*
X3870500Y1985693D01*
Y1953693D02*
X3890500Y1973693D01*
X3910500Y1953693D01*
X3890500Y1933693D01*
X3870500Y1953693D01*
Y1921693D02*
X3890500Y1941693D01*
X3910500Y1921693D01*
X3890500Y1901693D01*
X3870500Y1921693D01*
Y1889693D02*
X3890500Y1909693D01*
X3910500Y1889693D01*
X3890500Y1869693D01*
X3870500Y1889693D01*
Y1857693D02*
X3890500Y1877693D01*
X3910500Y1857693D01*
X3890500Y1837693D01*
X3870500Y1857693D01*
X3942000D02*
X3962000Y1877693D01*
X3982000Y1857693D01*
X3962000Y1837693D01*
X3942000Y1857693D01*
Y1889693D02*
X3962000Y1909693D01*
X3982000Y1889693D01*
X3962000Y1869693D01*
X3942000Y1889693D01*
Y1921693D02*
X3962000Y1941693D01*
X3982000Y1921693D01*
X3962000Y1901693D01*
X3942000Y1921693D01*
Y1953693D02*
X3962000Y1973693D01*
X3982000Y1953693D01*
X3962000Y1933693D01*
X3942000Y1953693D01*
Y1985693D02*
X3962000Y2005693D01*
X3982000Y1985693D01*
X3962000Y1965693D01*
X3942000Y1985693D01*
Y2017693D02*
X3962000Y2037693D01*
X3982000Y2017693D01*
X3962000Y1997693D01*
X3942000Y2017693D01*
X3906000D02*
X3926000Y2037693D01*
X3946000Y2017693D01*
X3926000Y1997693D01*
X3906000Y2017693D01*
Y1985693D02*
X3926000Y2005693D01*
X3946000Y1985693D01*
X3926000Y1965693D01*
X3906000Y1985693D01*
Y1953693D02*
X3926000Y1973693D01*
X3946000Y1953693D01*
X3926000Y1933693D01*
X3906000Y1953693D01*
Y1921693D02*
X3926000Y1941693D01*
X3946000Y1921693D01*
X3926000Y1901693D01*
X3906000Y1921693D01*
Y1889693D02*
X3926000Y1909693D01*
X3946000Y1889693D01*
X3926000Y1869693D01*
X3906000Y1889693D01*
Y1857693D02*
X3926000Y1877693D01*
X3946000Y1857693D01*
X3926000Y1837693D01*
X3906000Y1857693D01*
X3802000Y1858193D02*
X3822000Y1878193D01*
X3842000Y1858193D01*
X3822000Y1838193D01*
X3802000Y1858193D01*
Y1890193D02*
X3822000Y1910193D01*
X3842000Y1890193D01*
X3822000Y1870193D01*
X3802000Y1890193D01*
Y1922193D02*
X3822000Y1942193D01*
X3842000Y1922193D01*
X3822000Y1902193D01*
X3802000Y1922193D01*
Y1954193D02*
X3822000Y1974193D01*
X3842000Y1954193D01*
X3822000Y1934193D01*
X3802000Y1954193D01*
Y1986193D02*
X3822000Y2006193D01*
X3842000Y1986193D01*
X3822000Y1966193D01*
X3802000Y1986193D01*
Y2018193D02*
X3822000Y2038193D01*
X3842000Y2018193D01*
X3822000Y1998193D01*
X3802000Y2018193D01*
X3818000Y2085000D02*
X3838000Y2105000D01*
X3858000Y2085000D01*
X3838000Y2065000D01*
X3818000Y2085000D01*
Y2117000D02*
X3838000Y2137000D01*
X3858000Y2117000D01*
X3838000Y2097000D01*
X3818000Y2117000D01*
Y2149000D02*
X3838000Y2169000D01*
X3858000Y2149000D01*
X3838000Y2129000D01*
X3818000Y2149000D01*
Y2181000D02*
X3838000Y2201000D01*
X3858000Y2181000D01*
X3838000Y2161000D01*
X3818000Y2181000D01*
Y2213000D02*
X3838000Y2233000D01*
X3858000Y2213000D01*
X3838000Y2193000D01*
X3818000Y2213000D01*
Y2245000D02*
X3838000Y2265000D01*
X3858000Y2245000D01*
X3838000Y2225000D01*
X3818000Y2245000D01*
X3854000D02*
X3874000Y2265000D01*
X3894000Y2245000D01*
X3874000Y2225000D01*
X3854000Y2245000D01*
Y2213000D02*
X3874000Y2233000D01*
X3894000Y2213000D01*
X3874000Y2193000D01*
X3854000Y2213000D01*
Y2181000D02*
X3874000Y2201000D01*
X3894000Y2181000D01*
X3874000Y2161000D01*
X3854000Y2181000D01*
Y2149000D02*
X3874000Y2169000D01*
X3894000Y2149000D01*
X3874000Y2129000D01*
X3854000Y2149000D01*
Y2117000D02*
X3874000Y2137000D01*
X3894000Y2117000D01*
X3874000Y2097000D01*
X3854000Y2117000D01*
Y2085000D02*
X3874000Y2105000D01*
X3894000Y2085000D01*
X3874000Y2065000D01*
X3854000Y2085000D01*
X3925500D02*
X3945500Y2105000D01*
X3965500Y2085000D01*
X3945500Y2065000D01*
X3925500Y2085000D01*
Y2117000D02*
X3945500Y2137000D01*
X3965500Y2117000D01*
X3945500Y2097000D01*
X3925500Y2117000D01*
Y2149000D02*
X3945500Y2169000D01*
X3965500Y2149000D01*
X3945500Y2129000D01*
X3925500Y2149000D01*
Y2181000D02*
X3945500Y2201000D01*
X3965500Y2181000D01*
X3945500Y2161000D01*
X3925500Y2181000D01*
Y2213000D02*
X3945500Y2233000D01*
X3965500Y2213000D01*
X3945500Y2193000D01*
X3925500Y2213000D01*
Y2245000D02*
X3945500Y2265000D01*
X3965500Y2245000D01*
X3945500Y2225000D01*
X3925500Y2245000D01*
X3889500D02*
X3909500Y2265000D01*
X3929500Y2245000D01*
X3909500Y2225000D01*
X3889500Y2245000D01*
Y2213000D02*
X3909500Y2233000D01*
X3929500Y2213000D01*
X3909500Y2193000D01*
X3889500Y2213000D01*
Y2181000D02*
X3909500Y2201000D01*
X3929500Y2181000D01*
X3909500Y2161000D01*
X3889500Y2181000D01*
Y2149000D02*
X3909500Y2169000D01*
X3929500Y2149000D01*
X3909500Y2129000D01*
X3889500Y2149000D01*
Y2117000D02*
X3909500Y2137000D01*
X3929500Y2117000D01*
X3909500Y2097000D01*
X3889500Y2117000D01*
Y2085000D02*
X3909500Y2105000D01*
X3929500Y2085000D01*
X3909500Y2065000D01*
X3889500Y2085000D01*
X3785500Y2085500D02*
X3805500Y2105500D01*
X3825500Y2085500D01*
X3805500Y2065500D01*
X3785500Y2085500D01*
Y2117500D02*
X3805500Y2137500D01*
X3825500Y2117500D01*
X3805500Y2097500D01*
X3785500Y2117500D01*
Y2149500D02*
X3805500Y2169500D01*
X3825500Y2149500D01*
X3805500Y2129500D01*
X3785500Y2149500D01*
Y2181500D02*
X3805500Y2201500D01*
X3825500Y2181500D01*
X3805500Y2161500D01*
X3785500Y2181500D01*
Y2213500D02*
X3805500Y2233500D01*
X3825500Y2213500D01*
X3805500Y2193500D01*
X3785500Y2213500D01*
Y2245500D02*
X3805500Y2265500D01*
X3825500Y2245500D01*
X3805500Y2225500D01*
X3785500Y2245500D01*
X2859500Y1313000D02*
X2879500Y1333000D01*
X2899500Y1313000D01*
X2879500Y1293000D01*
X2859500Y1313000D01*
Y1345000D02*
X2879500Y1365000D01*
X2899500Y1345000D01*
X2879500Y1325000D01*
X2859500Y1345000D01*
Y1377000D02*
X2879500Y1397000D01*
X2899500Y1377000D01*
X2879500Y1357000D01*
X2859500Y1377000D01*
Y1409000D02*
X2879500Y1429000D01*
X2899500Y1409000D01*
X2879500Y1389000D01*
X2859500Y1409000D01*
Y1441000D02*
X2879500Y1461000D01*
X2899500Y1441000D01*
X2879500Y1421000D01*
X2859500Y1441000D01*
Y1473000D02*
X2879500Y1493000D01*
X2899500Y1473000D01*
X2879500Y1453000D01*
X2859500Y1473000D01*
X2895500D02*
X2915500Y1493000D01*
X2935500Y1473000D01*
X2915500Y1453000D01*
X2895500Y1473000D01*
Y1441000D02*
X2915500Y1461000D01*
X2935500Y1441000D01*
X2915500Y1421000D01*
X2895500Y1441000D01*
Y1409000D02*
X2915500Y1429000D01*
X2935500Y1409000D01*
X2915500Y1389000D01*
X2895500Y1409000D01*
Y1377000D02*
X2915500Y1397000D01*
X2935500Y1377000D01*
X2915500Y1357000D01*
X2895500Y1377000D01*
Y1345000D02*
X2915500Y1365000D01*
X2935500Y1345000D01*
X2915500Y1325000D01*
X2895500Y1345000D01*
Y1313000D02*
X2915500Y1333000D01*
X2935500Y1313000D01*
X2915500Y1293000D01*
X2895500Y1313000D01*
X2967000D02*
X2987000Y1333000D01*
X3007000Y1313000D01*
X2987000Y1293000D01*
X2967000Y1313000D01*
Y1345000D02*
X2987000Y1365000D01*
X3007000Y1345000D01*
X2987000Y1325000D01*
X2967000Y1345000D01*
Y1377000D02*
X2987000Y1397000D01*
X3007000Y1377000D01*
X2987000Y1357000D01*
X2967000Y1377000D01*
Y1409000D02*
X2987000Y1429000D01*
X3007000Y1409000D01*
X2987000Y1389000D01*
X2967000Y1409000D01*
Y1441000D02*
X2987000Y1461000D01*
X3007000Y1441000D01*
X2987000Y1421000D01*
X2967000Y1441000D01*
Y1473000D02*
X2987000Y1493000D01*
X3007000Y1473000D01*
X2987000Y1453000D01*
X2967000Y1473000D01*
X2931000D02*
X2951000Y1493000D01*
X2971000Y1473000D01*
X2951000Y1453000D01*
X2931000Y1473000D01*
Y1441000D02*
X2951000Y1461000D01*
X2971000Y1441000D01*
X2951000Y1421000D01*
X2931000Y1441000D01*
Y1409000D02*
X2951000Y1429000D01*
X2971000Y1409000D01*
X2951000Y1389000D01*
X2931000Y1409000D01*
Y1377000D02*
X2951000Y1397000D01*
X2971000Y1377000D01*
X2951000Y1357000D01*
X2931000Y1377000D01*
Y1345000D02*
X2951000Y1365000D01*
X2971000Y1345000D01*
X2951000Y1325000D01*
X2931000Y1345000D01*
Y1313000D02*
X2951000Y1333000D01*
X2971000Y1313000D01*
X2951000Y1293000D01*
X2931000Y1313000D01*
X2827000Y1313500D02*
X2847000Y1333500D01*
X2867000Y1313500D01*
X2847000Y1293500D01*
X2827000Y1313500D01*
Y1345500D02*
X2847000Y1365500D01*
X2867000Y1345500D01*
X2847000Y1325500D01*
X2827000Y1345500D01*
Y1377500D02*
X2847000Y1397500D01*
X2867000Y1377500D01*
X2847000Y1357500D01*
X2827000Y1377500D01*
Y1409500D02*
X2847000Y1429500D01*
X2867000Y1409500D01*
X2847000Y1389500D01*
X2827000Y1409500D01*
Y1441500D02*
X2847000Y1461500D01*
X2867000Y1441500D01*
X2847000Y1421500D01*
X2827000Y1441500D01*
Y1473500D02*
X2847000Y1493500D01*
X2867000Y1473500D01*
X2847000Y1453500D01*
X2827000Y1473500D01*
X1661000Y1493543D02*
X1681000Y1513543D01*
X1701000Y1493543D01*
X1681000Y1473543D01*
X1661000Y1493543D01*
X1696500D02*
X1716500Y1513543D01*
X1736500Y1493543D01*
X1716500Y1473543D01*
X1696500Y1493543D01*
Y1525543D02*
X1716500Y1545543D01*
X1736500Y1525543D01*
X1716500Y1505543D01*
X1696500Y1525543D01*
X1732500D02*
X1752500Y1545543D01*
X1772500Y1525543D01*
X1752500Y1505543D01*
X1732500Y1525543D01*
Y1557543D02*
X1752500Y1577543D01*
X1772500Y1557543D01*
X1752500Y1537543D01*
X1732500Y1557543D01*
X3469500Y2738500D02*
X3489500Y2758500D01*
X3509500Y2738500D01*
X3489500Y2718500D01*
X3469500Y2738500D01*
Y2706500D02*
X3489500Y2726500D01*
X3509500Y2706500D01*
X3489500Y2686500D01*
X3469500Y2706500D01*
Y2674500D02*
X3489500Y2694500D01*
X3509500Y2674500D01*
X3489500Y2654500D01*
X3469500Y2674500D01*
Y2642500D02*
X3489500Y2662500D01*
X3509500Y2642500D01*
X3489500Y2622500D01*
X3469500Y2642500D01*
Y2610500D02*
X3489500Y2630500D01*
X3509500Y2610500D01*
X3489500Y2590500D01*
X3469500Y2610500D01*
Y2578500D02*
X3489500Y2598500D01*
X3509500Y2578500D01*
X3489500Y2558500D01*
X3469500Y2578500D01*
X3573500Y2578000D02*
X3593500Y2598000D01*
X3613500Y2578000D01*
X3593500Y2558000D01*
X3573500Y2578000D01*
Y2610000D02*
X3593500Y2630000D01*
X3613500Y2610000D01*
X3593500Y2590000D01*
X3573500Y2610000D01*
Y2642000D02*
X3593500Y2662000D01*
X3613500Y2642000D01*
X3593500Y2622000D01*
X3573500Y2642000D01*
Y2674000D02*
X3593500Y2694000D01*
X3613500Y2674000D01*
X3593500Y2654000D01*
X3573500Y2674000D01*
Y2706000D02*
X3593500Y2726000D01*
X3613500Y2706000D01*
X3593500Y2686000D01*
X3573500Y2706000D01*
Y2738000D02*
X3593500Y2758000D01*
X3613500Y2738000D01*
X3593500Y2718000D01*
X3573500Y2738000D01*
X3609500D02*
X3629500Y2758000D01*
X3649500Y2738000D01*
X3629500Y2718000D01*
X3609500Y2738000D01*
Y2706000D02*
X3629500Y2726000D01*
X3649500Y2706000D01*
X3629500Y2686000D01*
X3609500Y2706000D01*
Y2674000D02*
X3629500Y2694000D01*
X3649500Y2674000D01*
X3629500Y2654000D01*
X3609500Y2674000D01*
Y2642000D02*
X3629500Y2662000D01*
X3649500Y2642000D01*
X3629500Y2622000D01*
X3609500Y2642000D01*
Y2610000D02*
X3629500Y2630000D01*
X3649500Y2610000D01*
X3629500Y2590000D01*
X3609500Y2610000D01*
Y2578000D02*
X3629500Y2598000D01*
X3649500Y2578000D01*
X3629500Y2558000D01*
X3609500Y2578000D01*
X3538000D02*
X3558000Y2598000D01*
X3578000Y2578000D01*
X3558000Y2558000D01*
X3538000Y2578000D01*
Y2610000D02*
X3558000Y2630000D01*
X3578000Y2610000D01*
X3558000Y2590000D01*
X3538000Y2610000D01*
Y2642000D02*
X3558000Y2662000D01*
X3578000Y2642000D01*
X3558000Y2622000D01*
X3538000Y2642000D01*
Y2674000D02*
X3558000Y2694000D01*
X3578000Y2674000D01*
X3558000Y2654000D01*
X3538000Y2674000D01*
Y2706000D02*
X3558000Y2726000D01*
X3578000Y2706000D01*
X3558000Y2686000D01*
X3538000Y2706000D01*
Y2738000D02*
X3558000Y2758000D01*
X3578000Y2738000D01*
X3558000Y2718000D01*
X3538000Y2738000D01*
X3502000D02*
X3522000Y2758000D01*
X3542000Y2738000D01*
X3522000Y2718000D01*
X3502000Y2738000D01*
Y2706000D02*
X3522000Y2726000D01*
X3542000Y2706000D01*
X3522000Y2686000D01*
X3502000Y2706000D01*
Y2674000D02*
X3522000Y2694000D01*
X3542000Y2674000D01*
X3522000Y2654000D01*
X3502000Y2674000D01*
Y2642000D02*
X3522000Y2662000D01*
X3542000Y2642000D01*
X3522000Y2622000D01*
X3502000Y2642000D01*
Y2610000D02*
X3522000Y2630000D01*
X3542000Y2610000D01*
X3522000Y2590000D01*
X3502000Y2610000D01*
Y2578000D02*
X3522000Y2598000D01*
X3542000Y2578000D01*
X3522000Y2558000D01*
X3502000Y2578000D01*
X3083150Y2733500D02*
X3103150Y2753500D01*
X3123150Y2733500D01*
X3103150Y2713500D01*
X3083150Y2733500D01*
Y2701500D02*
X3103150Y2721500D01*
X3123150Y2701500D01*
X3103150Y2681500D01*
X3083150Y2701500D01*
Y2669500D02*
X3103150Y2689500D01*
X3123150Y2669500D01*
X3103150Y2649500D01*
X3083150Y2669500D01*
Y2637500D02*
X3103150Y2657500D01*
X3123150Y2637500D01*
X3103150Y2617500D01*
X3083150Y2637500D01*
Y2605500D02*
X3103150Y2625500D01*
X3123150Y2605500D01*
X3103150Y2585500D01*
X3083150Y2605500D01*
Y2573500D02*
X3103150Y2593500D01*
X3123150Y2573500D01*
X3103150Y2553500D01*
X3083150Y2573500D01*
X3187150Y2573000D02*
X3207150Y2593000D01*
X3227150Y2573000D01*
X3207150Y2553000D01*
X3187150Y2573000D01*
Y2605000D02*
X3207150Y2625000D01*
X3227150Y2605000D01*
X3207150Y2585000D01*
X3187150Y2605000D01*
Y2637000D02*
X3207150Y2657000D01*
X3227150Y2637000D01*
X3207150Y2617000D01*
X3187150Y2637000D01*
Y2669000D02*
X3207150Y2689000D01*
X3227150Y2669000D01*
X3207150Y2649000D01*
X3187150Y2669000D01*
Y2701000D02*
X3207150Y2721000D01*
X3227150Y2701000D01*
X3207150Y2681000D01*
X3187150Y2701000D01*
Y2733000D02*
X3207150Y2753000D01*
X3227150Y2733000D01*
X3207150Y2713000D01*
X3187150Y2733000D01*
X3223150D02*
X3243150Y2753000D01*
X3263150Y2733000D01*
X3243150Y2713000D01*
X3223150Y2733000D01*
Y2701000D02*
X3243150Y2721000D01*
X3263150Y2701000D01*
X3243150Y2681000D01*
X3223150Y2701000D01*
Y2669000D02*
X3243150Y2689000D01*
X3263150Y2669000D01*
X3243150Y2649000D01*
X3223150Y2669000D01*
Y2637000D02*
X3243150Y2657000D01*
X3263150Y2637000D01*
X3243150Y2617000D01*
X3223150Y2637000D01*
Y2605000D02*
X3243150Y2625000D01*
X3263150Y2605000D01*
X3243150Y2585000D01*
X3223150Y2605000D01*
Y2573000D02*
X3243150Y2593000D01*
X3263150Y2573000D01*
X3243150Y2553000D01*
X3223150Y2573000D01*
X3151650D02*
X3171650Y2593000D01*
X3191650Y2573000D01*
X3171650Y2553000D01*
X3151650Y2573000D01*
Y2605000D02*
X3171650Y2625000D01*
X3191650Y2605000D01*
X3171650Y2585000D01*
X3151650Y2605000D01*
Y2637000D02*
X3171650Y2657000D01*
X3191650Y2637000D01*
X3171650Y2617000D01*
X3151650Y2637000D01*
Y2669000D02*
X3171650Y2689000D01*
X3191650Y2669000D01*
X3171650Y2649000D01*
X3151650Y2669000D01*
Y2701000D02*
X3171650Y2721000D01*
X3191650Y2701000D01*
X3171650Y2681000D01*
X3151650Y2701000D01*
Y2733000D02*
X3171650Y2753000D01*
X3191650Y2733000D01*
X3171650Y2713000D01*
X3151650Y2733000D01*
X3115650D02*
X3135650Y2753000D01*
X3155650Y2733000D01*
X3135650Y2713000D01*
X3115650Y2733000D01*
Y2701000D02*
X3135650Y2721000D01*
X3155650Y2701000D01*
X3135650Y2681000D01*
X3115650Y2701000D01*
Y2669000D02*
X3135650Y2689000D01*
X3155650Y2669000D01*
X3135650Y2649000D01*
X3115650Y2669000D01*
Y2637000D02*
X3135650Y2657000D01*
X3155650Y2637000D01*
X3135650Y2617000D01*
X3115650Y2637000D01*
Y2605000D02*
X3135650Y2625000D01*
X3155650Y2605000D01*
X3135650Y2585000D01*
X3115650Y2605000D01*
Y2573000D02*
X3135650Y2593000D01*
X3155650Y2573000D01*
X3135650Y2553000D01*
X3115650Y2573000D01*
X2714024Y2733500D02*
X2734024Y2753500D01*
X2754024Y2733500D01*
X2734024Y2713500D01*
X2714024Y2733500D01*
Y2701500D02*
X2734024Y2721500D01*
X2754024Y2701500D01*
X2734024Y2681500D01*
X2714024Y2701500D01*
Y2669500D02*
X2734024Y2689500D01*
X2754024Y2669500D01*
X2734024Y2649500D01*
X2714024Y2669500D01*
Y2637500D02*
X2734024Y2657500D01*
X2754024Y2637500D01*
X2734024Y2617500D01*
X2714024Y2637500D01*
Y2605500D02*
X2734024Y2625500D01*
X2754024Y2605500D01*
X2734024Y2585500D01*
X2714024Y2605500D01*
Y2573500D02*
X2734024Y2593500D01*
X2754024Y2573500D01*
X2734024Y2553500D01*
X2714024Y2573500D01*
X2818024Y2573000D02*
X2838024Y2593000D01*
X2858024Y2573000D01*
X2838024Y2553000D01*
X2818024Y2573000D01*
Y2605000D02*
X2838024Y2625000D01*
X2858024Y2605000D01*
X2838024Y2585000D01*
X2818024Y2605000D01*
Y2637000D02*
X2838024Y2657000D01*
X2858024Y2637000D01*
X2838024Y2617000D01*
X2818024Y2637000D01*
Y2669000D02*
X2838024Y2689000D01*
X2858024Y2669000D01*
X2838024Y2649000D01*
X2818024Y2669000D01*
Y2701000D02*
X2838024Y2721000D01*
X2858024Y2701000D01*
X2838024Y2681000D01*
X2818024Y2701000D01*
Y2733000D02*
X2838024Y2753000D01*
X2858024Y2733000D01*
X2838024Y2713000D01*
X2818024Y2733000D01*
X2854024D02*
X2874024Y2753000D01*
X2894024Y2733000D01*
X2874024Y2713000D01*
X2854024Y2733000D01*
Y2701000D02*
X2874024Y2721000D01*
X2894024Y2701000D01*
X2874024Y2681000D01*
X2854024Y2701000D01*
Y2669000D02*
X2874024Y2689000D01*
X2894024Y2669000D01*
X2874024Y2649000D01*
X2854024Y2669000D01*
Y2637000D02*
X2874024Y2657000D01*
X2894024Y2637000D01*
X2874024Y2617000D01*
X2854024Y2637000D01*
Y2605000D02*
X2874024Y2625000D01*
X2894024Y2605000D01*
X2874024Y2585000D01*
X2854024Y2605000D01*
Y2573000D02*
X2874024Y2593000D01*
X2894024Y2573000D01*
X2874024Y2553000D01*
X2854024Y2573000D01*
X2782524D02*
X2802524Y2593000D01*
X2822524Y2573000D01*
X2802524Y2553000D01*
X2782524Y2573000D01*
Y2605000D02*
X2802524Y2625000D01*
X2822524Y2605000D01*
X2802524Y2585000D01*
X2782524Y2605000D01*
Y2637000D02*
X2802524Y2657000D01*
X2822524Y2637000D01*
X2802524Y2617000D01*
X2782524Y2637000D01*
Y2669000D02*
X2802524Y2689000D01*
X2822524Y2669000D01*
X2802524Y2649000D01*
X2782524Y2669000D01*
Y2701000D02*
X2802524Y2721000D01*
X2822524Y2701000D01*
X2802524Y2681000D01*
X2782524Y2701000D01*
Y2733000D02*
X2802524Y2753000D01*
X2822524Y2733000D01*
X2802524Y2713000D01*
X2782524Y2733000D01*
X2746524D02*
X2766524Y2753000D01*
X2786524Y2733000D01*
X2766524Y2713000D01*
X2746524Y2733000D01*
Y2701000D02*
X2766524Y2721000D01*
X2786524Y2701000D01*
X2766524Y2681000D01*
X2746524Y2701000D01*
Y2669000D02*
X2766524Y2689000D01*
X2786524Y2669000D01*
X2766524Y2649000D01*
X2746524Y2669000D01*
Y2637000D02*
X2766524Y2657000D01*
X2786524Y2637000D01*
X2766524Y2617000D01*
X2746524Y2637000D01*
Y2605000D02*
X2766524Y2625000D01*
X2786524Y2605000D01*
X2766524Y2585000D01*
X2746524Y2605000D01*
Y2573000D02*
X2766524Y2593000D01*
X2786524Y2573000D01*
X2766524Y2553000D01*
X2746524Y2573000D01*
X2345000Y2738000D02*
X2365000Y2758000D01*
X2385000Y2738000D01*
X2365000Y2718000D01*
X2345000Y2738000D01*
Y2706000D02*
X2365000Y2726000D01*
X2385000Y2706000D01*
X2365000Y2686000D01*
X2345000Y2706000D01*
Y2674000D02*
X2365000Y2694000D01*
X2385000Y2674000D01*
X2365000Y2654000D01*
X2345000Y2674000D01*
Y2642000D02*
X2365000Y2662000D01*
X2385000Y2642000D01*
X2365000Y2622000D01*
X2345000Y2642000D01*
Y2610000D02*
X2365000Y2630000D01*
X2385000Y2610000D01*
X2365000Y2590000D01*
X2345000Y2610000D01*
Y2578000D02*
X2365000Y2598000D01*
X2385000Y2578000D01*
X2365000Y2558000D01*
X2345000Y2578000D01*
X2449000Y2577500D02*
X2469000Y2597500D01*
X2489000Y2577500D01*
X2469000Y2557500D01*
X2449000Y2577500D01*
Y2609500D02*
X2469000Y2629500D01*
X2489000Y2609500D01*
X2469000Y2589500D01*
X2449000Y2609500D01*
Y2641500D02*
X2469000Y2661500D01*
X2489000Y2641500D01*
X2469000Y2621500D01*
X2449000Y2641500D01*
Y2673500D02*
X2469000Y2693500D01*
X2489000Y2673500D01*
X2469000Y2653500D01*
X2449000Y2673500D01*
Y2705500D02*
X2469000Y2725500D01*
X2489000Y2705500D01*
X2469000Y2685500D01*
X2449000Y2705500D01*
Y2737500D02*
X2469000Y2757500D01*
X2489000Y2737500D01*
X2469000Y2717500D01*
X2449000Y2737500D01*
X2485000D02*
X2505000Y2757500D01*
X2525000Y2737500D01*
X2505000Y2717500D01*
X2485000Y2737500D01*
Y2705500D02*
X2505000Y2725500D01*
X2525000Y2705500D01*
X2505000Y2685500D01*
X2485000Y2705500D01*
Y2673500D02*
X2505000Y2693500D01*
X2525000Y2673500D01*
X2505000Y2653500D01*
X2485000Y2673500D01*
Y2641500D02*
X2505000Y2661500D01*
X2525000Y2641500D01*
X2505000Y2621500D01*
X2485000Y2641500D01*
Y2609500D02*
X2505000Y2629500D01*
X2525000Y2609500D01*
X2505000Y2589500D01*
X2485000Y2609500D01*
Y2577500D02*
X2505000Y2597500D01*
X2525000Y2577500D01*
X2505000Y2557500D01*
X2485000Y2577500D01*
X2413500D02*
X2433500Y2597500D01*
X2453500Y2577500D01*
X2433500Y2557500D01*
X2413500Y2577500D01*
Y2609500D02*
X2433500Y2629500D01*
X2453500Y2609500D01*
X2433500Y2589500D01*
X2413500Y2609500D01*
Y2641500D02*
X2433500Y2661500D01*
X2453500Y2641500D01*
X2433500Y2621500D01*
X2413500Y2641500D01*
Y2673500D02*
X2433500Y2693500D01*
X2453500Y2673500D01*
X2433500Y2653500D01*
X2413500Y2673500D01*
Y2705500D02*
X2433500Y2725500D01*
X2453500Y2705500D01*
X2433500Y2685500D01*
X2413500Y2705500D01*
Y2737500D02*
X2433500Y2757500D01*
X2453500Y2737500D01*
X2433500Y2717500D01*
X2413500Y2737500D01*
X2377500D02*
X2397500Y2757500D01*
X2417500Y2737500D01*
X2397500Y2717500D01*
X2377500Y2737500D01*
Y2705500D02*
X2397500Y2725500D01*
X2417500Y2705500D01*
X2397500Y2685500D01*
X2377500Y2705500D01*
Y2673500D02*
X2397500Y2693500D01*
X2417500Y2673500D01*
X2397500Y2653500D01*
X2377500Y2673500D01*
Y2641500D02*
X2397500Y2661500D01*
X2417500Y2641500D01*
X2397500Y2621500D01*
X2377500Y2641500D01*
Y2609500D02*
X2397500Y2629500D01*
X2417500Y2609500D01*
X2397500Y2589500D01*
X2377500Y2609500D01*
Y2577500D02*
X2397500Y2597500D01*
X2417500Y2577500D01*
X2397500Y2557500D01*
X2377500Y2577500D01*
X3562000Y1471396D02*
X3582000Y1491396D01*
X3602000Y1471396D01*
X3582000Y1451396D01*
X3562000Y1471396D01*
Y1439396D02*
X3582000Y1459396D01*
X3602000Y1439396D01*
X3582000Y1419396D01*
X3562000Y1439396D01*
Y1407396D02*
X3582000Y1427396D01*
X3602000Y1407396D01*
X3582000Y1387396D01*
X3562000Y1407396D01*
Y1375396D02*
X3582000Y1395396D01*
X3602000Y1375396D01*
X3582000Y1355396D01*
X3562000Y1375396D01*
Y1343396D02*
X3582000Y1363396D01*
X3602000Y1343396D01*
X3582000Y1323396D01*
X3562000Y1343396D01*
Y1311396D02*
X3582000Y1331396D01*
X3602000Y1311396D01*
X3582000Y1291396D01*
X3562000Y1311396D01*
X3666000Y1310896D02*
X3686000Y1330896D01*
X3706000Y1310896D01*
X3686000Y1290896D01*
X3666000Y1310896D01*
Y1342896D02*
X3686000Y1362896D01*
X3706000Y1342896D01*
X3686000Y1322896D01*
X3666000Y1342896D01*
Y1374896D02*
X3686000Y1394896D01*
X3706000Y1374896D01*
X3686000Y1354896D01*
X3666000Y1374896D01*
Y1406896D02*
X3686000Y1426896D01*
X3706000Y1406896D01*
X3686000Y1386896D01*
X3666000Y1406896D01*
Y1438896D02*
X3686000Y1458896D01*
X3706000Y1438896D01*
X3686000Y1418896D01*
X3666000Y1438896D01*
Y1470896D02*
X3686000Y1490896D01*
X3706000Y1470896D01*
X3686000Y1450896D01*
X3666000Y1470896D01*
X3702000D02*
X3722000Y1490896D01*
X3742000Y1470896D01*
X3722000Y1450896D01*
X3702000Y1470896D01*
Y1438896D02*
X3722000Y1458896D01*
X3742000Y1438896D01*
X3722000Y1418896D01*
X3702000Y1438896D01*
Y1406896D02*
X3722000Y1426896D01*
X3742000Y1406896D01*
X3722000Y1386896D01*
X3702000Y1406896D01*
Y1374896D02*
X3722000Y1394896D01*
X3742000Y1374896D01*
X3722000Y1354896D01*
X3702000Y1374896D01*
Y1342896D02*
X3722000Y1362896D01*
X3742000Y1342896D01*
X3722000Y1322896D01*
X3702000Y1342896D01*
Y1310896D02*
X3722000Y1330896D01*
X3742000Y1310896D01*
X3722000Y1290896D01*
X3702000Y1310896D01*
X3630500D02*
X3650500Y1330896D01*
X3670500Y1310896D01*
X3650500Y1290896D01*
X3630500Y1310896D01*
Y1342896D02*
X3650500Y1362896D01*
X3670500Y1342896D01*
X3650500Y1322896D01*
X3630500Y1342896D01*
Y1374896D02*
X3650500Y1394896D01*
X3670500Y1374896D01*
X3650500Y1354896D01*
X3630500Y1374896D01*
Y1406896D02*
X3650500Y1426896D01*
X3670500Y1406896D01*
X3650500Y1386896D01*
X3630500Y1406896D01*
Y1438896D02*
X3650500Y1458896D01*
X3670500Y1438896D01*
X3650500Y1418896D01*
X3630500Y1438896D01*
Y1470896D02*
X3650500Y1490896D01*
X3670500Y1470896D01*
X3650500Y1450896D01*
X3630500Y1470896D01*
X3594500D02*
X3614500Y1490896D01*
X3634500Y1470896D01*
X3614500Y1450896D01*
X3594500Y1470896D01*
Y1438896D02*
X3614500Y1458896D01*
X3634500Y1438896D01*
X3614500Y1418896D01*
X3594500Y1438896D01*
Y1406896D02*
X3614500Y1426896D01*
X3634500Y1406896D01*
X3614500Y1386896D01*
X3594500Y1406896D01*
Y1374896D02*
X3614500Y1394896D01*
X3634500Y1374896D01*
X3614500Y1354896D01*
X3594500Y1374896D01*
Y1342896D02*
X3614500Y1362896D01*
X3634500Y1342896D01*
X3614500Y1322896D01*
X3594500Y1342896D01*
Y1310896D02*
X3614500Y1330896D01*
X3634500Y1310896D01*
X3614500Y1290896D01*
X3594500Y1310896D01*
X3195000Y1470617D02*
X3215000Y1490617D01*
X3235000Y1470617D01*
X3215000Y1450617D01*
X3195000Y1470617D01*
Y1438617D02*
X3215000Y1458617D01*
X3235000Y1438617D01*
X3215000Y1418617D01*
X3195000Y1438617D01*
Y1406617D02*
X3215000Y1426617D01*
X3235000Y1406617D01*
X3215000Y1386617D01*
X3195000Y1406617D01*
Y1374617D02*
X3215000Y1394617D01*
X3235000Y1374617D01*
X3215000Y1354617D01*
X3195000Y1374617D01*
Y1342617D02*
X3215000Y1362617D01*
X3235000Y1342617D01*
X3215000Y1322617D01*
X3195000Y1342617D01*
Y1310617D02*
X3215000Y1330617D01*
X3235000Y1310617D01*
X3215000Y1290617D01*
X3195000Y1310617D01*
X3299000Y1310117D02*
X3319000Y1330117D01*
X3339000Y1310117D01*
X3319000Y1290117D01*
X3299000Y1310117D01*
Y1342117D02*
X3319000Y1362117D01*
X3339000Y1342117D01*
X3319000Y1322117D01*
X3299000Y1342117D01*
Y1374117D02*
X3319000Y1394117D01*
X3339000Y1374117D01*
X3319000Y1354117D01*
X3299000Y1374117D01*
Y1406117D02*
X3319000Y1426117D01*
X3339000Y1406117D01*
X3319000Y1386117D01*
X3299000Y1406117D01*
Y1438117D02*
X3319000Y1458117D01*
X3339000Y1438117D01*
X3319000Y1418117D01*
X3299000Y1438117D01*
Y1470117D02*
X3319000Y1490117D01*
X3339000Y1470117D01*
X3319000Y1450117D01*
X3299000Y1470117D01*
X3335000D02*
X3355000Y1490117D01*
X3375000Y1470117D01*
X3355000Y1450117D01*
X3335000Y1470117D01*
Y1438117D02*
X3355000Y1458117D01*
X3375000Y1438117D01*
X3355000Y1418117D01*
X3335000Y1438117D01*
Y1406117D02*
X3355000Y1426117D01*
X3375000Y1406117D01*
X3355000Y1386117D01*
X3335000Y1406117D01*
Y1374117D02*
X3355000Y1394117D01*
X3375000Y1374117D01*
X3355000Y1354117D01*
X3335000Y1374117D01*
Y1342117D02*
X3355000Y1362117D01*
X3375000Y1342117D01*
X3355000Y1322117D01*
X3335000Y1342117D01*
Y1310117D02*
X3355000Y1330117D01*
X3375000Y1310117D01*
X3355000Y1290117D01*
X3335000Y1310117D01*
X3263500D02*
X3283500Y1330117D01*
X3303500Y1310117D01*
X3283500Y1290117D01*
X3263500Y1310117D01*
Y1342117D02*
X3283500Y1362117D01*
X3303500Y1342117D01*
X3283500Y1322117D01*
X3263500Y1342117D01*
Y1374117D02*
X3283500Y1394117D01*
X3303500Y1374117D01*
X3283500Y1354117D01*
X3263500Y1374117D01*
Y1406117D02*
X3283500Y1426117D01*
X3303500Y1406117D01*
X3283500Y1386117D01*
X3263500Y1406117D01*
Y1438117D02*
X3283500Y1458117D01*
X3303500Y1438117D01*
X3283500Y1418117D01*
X3263500Y1438117D01*
Y1470117D02*
X3283500Y1490117D01*
X3303500Y1470117D01*
X3283500Y1450117D01*
X3263500Y1470117D01*
X3227500D02*
X3247500Y1490117D01*
X3267500Y1470117D01*
X3247500Y1450117D01*
X3227500Y1470117D01*
Y1438117D02*
X3247500Y1458117D01*
X3267500Y1438117D01*
X3247500Y1418117D01*
X3227500Y1438117D01*
Y1406117D02*
X3247500Y1426117D01*
X3267500Y1406117D01*
X3247500Y1386117D01*
X3227500Y1406117D01*
Y1374117D02*
X3247500Y1394117D01*
X3267500Y1374117D01*
X3247500Y1354117D01*
X3227500Y1374117D01*
Y1342117D02*
X3247500Y1362117D01*
X3267500Y1342117D01*
X3247500Y1322117D01*
X3227500Y1342117D01*
Y1310117D02*
X3247500Y1330117D01*
X3267500Y1310117D01*
X3247500Y1290117D01*
X3227500Y1310117D01*
X2461000Y1471000D02*
X2481000Y1491000D01*
X2501000Y1471000D01*
X2481000Y1451000D01*
X2461000Y1471000D01*
Y1439000D02*
X2481000Y1459000D01*
X2501000Y1439000D01*
X2481000Y1419000D01*
X2461000Y1439000D01*
Y1407000D02*
X2481000Y1427000D01*
X2501000Y1407000D01*
X2481000Y1387000D01*
X2461000Y1407000D01*
Y1375000D02*
X2481000Y1395000D01*
X2501000Y1375000D01*
X2481000Y1355000D01*
X2461000Y1375000D01*
Y1343000D02*
X2481000Y1363000D01*
X2501000Y1343000D01*
X2481000Y1323000D01*
X2461000Y1343000D01*
Y1311000D02*
X2481000Y1331000D01*
X2501000Y1311000D01*
X2481000Y1291000D01*
X2461000Y1311000D01*
X2565000Y1310500D02*
X2585000Y1330500D01*
X2605000Y1310500D01*
X2585000Y1290500D01*
X2565000Y1310500D01*
Y1342500D02*
X2585000Y1362500D01*
X2605000Y1342500D01*
X2585000Y1322500D01*
X2565000Y1342500D01*
Y1374500D02*
X2585000Y1394500D01*
X2605000Y1374500D01*
X2585000Y1354500D01*
X2565000Y1374500D01*
Y1406500D02*
X2585000Y1426500D01*
X2605000Y1406500D01*
X2585000Y1386500D01*
X2565000Y1406500D01*
Y1438500D02*
X2585000Y1458500D01*
X2605000Y1438500D01*
X2585000Y1418500D01*
X2565000Y1438500D01*
Y1470500D02*
X2585000Y1490500D01*
X2605000Y1470500D01*
X2585000Y1450500D01*
X2565000Y1470500D01*
X2601000D02*
X2621000Y1490500D01*
X2641000Y1470500D01*
X2621000Y1450500D01*
X2601000Y1470500D01*
Y1438500D02*
X2621000Y1458500D01*
X2641000Y1438500D01*
X2621000Y1418500D01*
X2601000Y1438500D01*
Y1406500D02*
X2621000Y1426500D01*
X2641000Y1406500D01*
X2621000Y1386500D01*
X2601000Y1406500D01*
Y1374500D02*
X2621000Y1394500D01*
X2641000Y1374500D01*
X2621000Y1354500D01*
X2601000Y1374500D01*
Y1342500D02*
X2621000Y1362500D01*
X2641000Y1342500D01*
X2621000Y1322500D01*
X2601000Y1342500D01*
Y1310500D02*
X2621000Y1330500D01*
X2641000Y1310500D01*
X2621000Y1290500D01*
X2601000Y1310500D01*
X2529500D02*
X2549500Y1330500D01*
X2569500Y1310500D01*
X2549500Y1290500D01*
X2529500Y1310500D01*
Y1342500D02*
X2549500Y1362500D01*
X2569500Y1342500D01*
X2549500Y1322500D01*
X2529500Y1342500D01*
Y1374500D02*
X2549500Y1394500D01*
X2569500Y1374500D01*
X2549500Y1354500D01*
X2529500Y1374500D01*
Y1406500D02*
X2549500Y1426500D01*
X2569500Y1406500D01*
X2549500Y1386500D01*
X2529500Y1406500D01*
Y1438500D02*
X2549500Y1458500D01*
X2569500Y1438500D01*
X2549500Y1418500D01*
X2529500Y1438500D01*
Y1470500D02*
X2549500Y1490500D01*
X2569500Y1470500D01*
X2549500Y1450500D01*
X2529500Y1470500D01*
X2493500D02*
X2513500Y1490500D01*
X2533500Y1470500D01*
X2513500Y1450500D01*
X2493500Y1470500D01*
Y1438500D02*
X2513500Y1458500D01*
X2533500Y1438500D01*
X2513500Y1418500D01*
X2493500Y1438500D01*
Y1406500D02*
X2513500Y1426500D01*
X2533500Y1406500D01*
X2513500Y1386500D01*
X2493500Y1406500D01*
Y1374500D02*
X2513500Y1394500D01*
X2533500Y1374500D01*
X2513500Y1354500D01*
X2493500Y1374500D01*
Y1342500D02*
X2513500Y1362500D01*
X2533500Y1342500D01*
X2513500Y1322500D01*
X2493500Y1342500D01*
Y1310500D02*
X2513500Y1330500D01*
X2533500Y1310500D01*
X2513500Y1290500D01*
X2493500Y1310500D01*
X2091000Y1557500D02*
X2111000Y1577500D01*
X2131000Y1557500D01*
X2111000Y1537500D01*
X2091000Y1557500D01*
Y1525500D02*
X2111000Y1545500D01*
X2131000Y1525500D01*
X2111000Y1505500D01*
X2091000Y1525500D01*
Y1493500D02*
X2111000Y1513500D01*
X2131000Y1493500D01*
X2111000Y1473500D01*
X2091000Y1493500D01*
Y1461500D02*
X2111000Y1481500D01*
X2131000Y1461500D01*
X2111000Y1441500D01*
X2091000Y1461500D01*
Y1429500D02*
X2111000Y1449500D01*
X2131000Y1429500D01*
X2111000Y1409500D01*
X2091000Y1429500D01*
Y1397500D02*
X2111000Y1417500D01*
X2131000Y1397500D01*
X2111000Y1377500D01*
X2091000Y1397500D01*
X2195000Y1397000D02*
X2215000Y1417000D01*
X2235000Y1397000D01*
X2215000Y1377000D01*
X2195000Y1397000D01*
Y1429000D02*
X2215000Y1449000D01*
X2235000Y1429000D01*
X2215000Y1409000D01*
X2195000Y1429000D01*
Y1461000D02*
X2215000Y1481000D01*
X2235000Y1461000D01*
X2215000Y1441000D01*
X2195000Y1461000D01*
Y1493000D02*
X2215000Y1513000D01*
X2235000Y1493000D01*
X2215000Y1473000D01*
X2195000Y1493000D01*
Y1525000D02*
X2215000Y1545000D01*
X2235000Y1525000D01*
X2215000Y1505000D01*
X2195000Y1525000D01*
Y1557000D02*
X2215000Y1577000D01*
X2235000Y1557000D01*
X2215000Y1537000D01*
X2195000Y1557000D01*
X2231000D02*
X2251000Y1577000D01*
X2271000Y1557000D01*
X2251000Y1537000D01*
X2231000Y1557000D01*
Y1525000D02*
X2251000Y1545000D01*
X2271000Y1525000D01*
X2251000Y1505000D01*
X2231000Y1525000D01*
Y1493000D02*
X2251000Y1513000D01*
X2271000Y1493000D01*
X2251000Y1473000D01*
X2231000Y1493000D01*
Y1461000D02*
X2251000Y1481000D01*
X2271000Y1461000D01*
X2251000Y1441000D01*
X2231000Y1461000D01*
Y1429000D02*
X2251000Y1449000D01*
X2271000Y1429000D01*
X2251000Y1409000D01*
X2231000Y1429000D01*
Y1397000D02*
X2251000Y1417000D01*
X2271000Y1397000D01*
X2251000Y1377000D01*
X2231000Y1397000D01*
X2159500D02*
X2179500Y1417000D01*
X2199500Y1397000D01*
X2179500Y1377000D01*
X2159500Y1397000D01*
Y1429000D02*
X2179500Y1449000D01*
X2199500Y1429000D01*
X2179500Y1409000D01*
X2159500Y1429000D01*
Y1461000D02*
X2179500Y1481000D01*
X2199500Y1461000D01*
X2179500Y1441000D01*
X2159500Y1461000D01*
Y1493000D02*
X2179500Y1513000D01*
X2199500Y1493000D01*
X2179500Y1473000D01*
X2159500Y1493000D01*
Y1525000D02*
X2179500Y1545000D01*
X2199500Y1525000D01*
X2179500Y1505000D01*
X2159500Y1525000D01*
Y1557000D02*
X2179500Y1577000D01*
X2199500Y1557000D01*
X2179500Y1537000D01*
X2159500Y1557000D01*
X2123500D02*
X2143500Y1577000D01*
X2163500Y1557000D01*
X2143500Y1537000D01*
X2123500Y1557000D01*
Y1525000D02*
X2143500Y1545000D01*
X2163500Y1525000D01*
X2143500Y1505000D01*
X2123500Y1525000D01*
Y1493000D02*
X2143500Y1513000D01*
X2163500Y1493000D01*
X2143500Y1473000D01*
X2123500Y1493000D01*
Y1461000D02*
X2143500Y1481000D01*
X2163500Y1461000D01*
X2143500Y1441000D01*
X2123500Y1461000D01*
Y1429000D02*
X2143500Y1449000D01*
X2163500Y1429000D01*
X2143500Y1409000D01*
X2123500Y1429000D01*
Y1397000D02*
X2143500Y1417000D01*
X2163500Y1397000D01*
X2143500Y1377000D01*
X2123500Y1397000D01*
X1592500Y1398043D02*
X1612500Y1418043D01*
X1632500Y1398043D01*
X1612500Y1378043D01*
X1592500Y1398043D01*
X1625000Y1397543D02*
X1645000Y1417543D01*
X1665000Y1397543D01*
X1645000Y1377543D01*
X1625000Y1397543D01*
X1661000D02*
X1681000Y1417543D01*
X1701000Y1397543D01*
X1681000Y1377543D01*
X1661000Y1397543D01*
X1696500D02*
X1716500Y1417543D01*
X1736500Y1397543D01*
X1716500Y1377543D01*
X1696500Y1397543D01*
X1871000Y1397637D02*
X1891000Y1417637D01*
X1911000Y1397637D01*
X1891000Y1377637D01*
X1871000Y1397637D01*
Y1429637D02*
X1891000Y1449637D01*
X1911000Y1429637D01*
X1891000Y1409637D01*
X1871000Y1429637D01*
Y1461637D02*
X1891000Y1481637D01*
X1911000Y1461637D01*
X1891000Y1441637D01*
X1871000Y1461637D01*
Y1493637D02*
X1891000Y1513637D01*
X1911000Y1493637D01*
X1891000Y1473637D01*
X1871000Y1493637D01*
Y1525637D02*
X1891000Y1545637D01*
X1911000Y1525637D01*
X1891000Y1505637D01*
X1871000Y1525637D01*
Y1557637D02*
X1891000Y1577637D01*
X1911000Y1557637D01*
X1891000Y1537637D01*
X1871000Y1557637D01*
X1907000D02*
X1927000Y1577637D01*
X1947000Y1557637D01*
X1927000Y1537637D01*
X1907000Y1557637D01*
Y1525637D02*
X1927000Y1545637D01*
X1947000Y1525637D01*
X1927000Y1505637D01*
X1907000Y1525637D01*
Y1493637D02*
X1927000Y1513637D01*
X1947000Y1493637D01*
X1927000Y1473637D01*
X1907000Y1493637D01*
Y1461637D02*
X1927000Y1481637D01*
X1947000Y1461637D01*
X1927000Y1441637D01*
X1907000Y1461637D01*
Y1429637D02*
X1927000Y1449637D01*
X1947000Y1429637D01*
X1927000Y1409637D01*
X1907000Y1429637D01*
Y1397637D02*
X1927000Y1417637D01*
X1947000Y1397637D01*
X1927000Y1377637D01*
X1907000Y1397637D01*
X1978500D02*
X1998500Y1417637D01*
X2018500Y1397637D01*
X1998500Y1377637D01*
X1978500Y1397637D01*
Y1429637D02*
X1998500Y1449637D01*
X2018500Y1429637D01*
X1998500Y1409637D01*
X1978500Y1429637D01*
Y1461637D02*
X1998500Y1481637D01*
X2018500Y1461637D01*
X1998500Y1441637D01*
X1978500Y1461637D01*
Y1493637D02*
X1998500Y1513637D01*
X2018500Y1493637D01*
X1998500Y1473637D01*
X1978500Y1493637D01*
Y1525637D02*
X1998500Y1545637D01*
X2018500Y1525637D01*
X1998500Y1505637D01*
X1978500Y1525637D01*
Y1557637D02*
X1998500Y1577637D01*
X2018500Y1557637D01*
X1998500Y1537637D01*
X1978500Y1557637D01*
X1942500D02*
X1962500Y1577637D01*
X1982500Y1557637D01*
X1962500Y1537637D01*
X1942500Y1557637D01*
Y1525637D02*
X1962500Y1545637D01*
X1982500Y1525637D01*
X1962500Y1505637D01*
X1942500Y1525637D01*
Y1493637D02*
X1962500Y1513637D01*
X1982500Y1493637D01*
X1962500Y1473637D01*
X1942500Y1493637D01*
Y1461637D02*
X1962500Y1481637D01*
X1982500Y1461637D01*
X1962500Y1441637D01*
X1942500Y1461637D01*
Y1429637D02*
X1962500Y1449637D01*
X1982500Y1429637D01*
X1962500Y1409637D01*
X1942500Y1429637D01*
Y1397637D02*
X1962500Y1417637D01*
X1982500Y1397637D01*
X1962500Y1377637D01*
X1942500Y1397637D01*
X1838500Y1398137D02*
X1858500Y1418137D01*
X1878500Y1398137D01*
X1858500Y1378137D01*
X1838500Y1398137D01*
Y1430137D02*
X1858500Y1450137D01*
X1878500Y1430137D01*
X1858500Y1410137D01*
X1838500Y1430137D01*
Y1462137D02*
X1858500Y1482137D01*
X1878500Y1462137D01*
X1858500Y1442137D01*
X1838500Y1462137D01*
Y1494137D02*
X1858500Y1514137D01*
X1878500Y1494137D01*
X1858500Y1474137D01*
X1838500Y1494137D01*
Y1526137D02*
X1858500Y1546137D01*
X1878500Y1526137D01*
X1858500Y1506137D01*
X1838500Y1526137D01*
Y1558137D02*
X1858500Y1578137D01*
X1878500Y1558137D01*
X1858500Y1538137D01*
X1838500Y1558137D01*
X1377500Y1398043D02*
X1397500Y1418043D01*
X1417500Y1398043D01*
X1397500Y1378043D01*
X1377500Y1398043D01*
Y1430043D02*
X1397500Y1450043D01*
X1417500Y1430043D01*
X1397500Y1410043D01*
X1377500Y1430043D01*
Y1462043D02*
X1397500Y1482043D01*
X1417500Y1462043D01*
X1397500Y1442043D01*
X1377500Y1462043D01*
Y1494043D02*
X1397500Y1514043D01*
X1417500Y1494043D01*
X1397500Y1474043D01*
X1377500Y1494043D01*
Y1526043D02*
X1397500Y1546043D01*
X1417500Y1526043D01*
X1397500Y1506043D01*
X1377500Y1526043D01*
Y1558043D02*
X1397500Y1578043D01*
X1417500Y1558043D01*
X1397500Y1538043D01*
X1377500Y1558043D01*
X1413500D02*
X1433500Y1578043D01*
X1453500Y1558043D01*
X1433500Y1538043D01*
X1413500Y1558043D01*
Y1526043D02*
X1433500Y1546043D01*
X1453500Y1526043D01*
X1433500Y1506043D01*
X1413500Y1526043D01*
Y1494043D02*
X1433500Y1514043D01*
X1453500Y1494043D01*
X1433500Y1474043D01*
X1413500Y1494043D01*
Y1462043D02*
X1433500Y1482043D01*
X1453500Y1462043D01*
X1433500Y1442043D01*
X1413500Y1462043D01*
Y1430043D02*
X1433500Y1450043D01*
X1453500Y1430043D01*
X1433500Y1410043D01*
X1413500Y1430043D01*
Y1398043D02*
X1433500Y1418043D01*
X1453500Y1398043D01*
X1433500Y1378043D01*
X1413500Y1398043D01*
X1485000D02*
X1505000Y1418043D01*
X1525000Y1398043D01*
X1505000Y1378043D01*
X1485000Y1398043D01*
Y1430043D02*
X1505000Y1450043D01*
X1525000Y1430043D01*
X1505000Y1410043D01*
X1485000Y1430043D01*
Y1462043D02*
X1505000Y1482043D01*
X1525000Y1462043D01*
X1505000Y1442043D01*
X1485000Y1462043D01*
Y1494043D02*
X1505000Y1514043D01*
X1525000Y1494043D01*
X1505000Y1474043D01*
X1485000Y1494043D01*
Y1526043D02*
X1505000Y1546043D01*
X1525000Y1526043D01*
X1505000Y1506043D01*
X1485000Y1526043D01*
Y1558043D02*
X1505000Y1578043D01*
X1525000Y1558043D01*
X1505000Y1538043D01*
X1485000Y1558043D01*
X1449000D02*
X1469000Y1578043D01*
X1489000Y1558043D01*
X1469000Y1538043D01*
X1449000Y1558043D01*
Y1526043D02*
X1469000Y1546043D01*
X1489000Y1526043D01*
X1469000Y1506043D01*
X1449000Y1526043D01*
Y1494043D02*
X1469000Y1514043D01*
X1489000Y1494043D01*
X1469000Y1474043D01*
X1449000Y1494043D01*
Y1462043D02*
X1469000Y1482043D01*
X1489000Y1462043D01*
X1469000Y1442043D01*
X1449000Y1462043D01*
Y1430043D02*
X1469000Y1450043D01*
X1489000Y1430043D01*
X1469000Y1410043D01*
X1449000Y1430043D01*
Y1398043D02*
X1469000Y1418043D01*
X1489000Y1398043D01*
X1469000Y1378043D01*
X1449000Y1398043D01*
X1345000Y1398543D02*
X1365000Y1418543D01*
X1385000Y1398543D01*
X1365000Y1378543D01*
X1345000Y1398543D01*
Y1430543D02*
X1365000Y1450543D01*
X1385000Y1430543D01*
X1365000Y1410543D01*
X1345000Y1430543D01*
Y1462543D02*
X1365000Y1482543D01*
X1385000Y1462543D01*
X1365000Y1442543D01*
X1345000Y1462543D01*
Y1494543D02*
X1365000Y1514543D01*
X1385000Y1494543D01*
X1365000Y1474543D01*
X1345000Y1494543D01*
Y1526543D02*
X1365000Y1546543D01*
X1385000Y1526543D01*
X1365000Y1506543D01*
X1345000Y1526543D01*
Y1558543D02*
X1365000Y1578543D01*
X1385000Y1558543D01*
X1365000Y1538543D01*
X1345000Y1558543D01*
X1592500Y1558043D02*
X1612500Y1578043D01*
X1632500Y1558043D01*
X1612500Y1538043D01*
X1592500Y1558043D01*
Y1526043D02*
X1612500Y1546043D01*
X1632500Y1526043D01*
X1612500Y1506043D01*
X1592500Y1526043D01*
Y1494043D02*
X1612500Y1514043D01*
X1632500Y1494043D01*
X1612500Y1474043D01*
X1592500Y1494043D01*
Y1462043D02*
X1612500Y1482043D01*
X1632500Y1462043D01*
X1612500Y1442043D01*
X1592500Y1462043D01*
Y1430043D02*
X1612500Y1450043D01*
X1632500Y1430043D01*
X1612500Y1410043D01*
X1592500Y1430043D01*
X1696500Y1429543D02*
X1716500Y1449543D01*
X1736500Y1429543D01*
X1716500Y1409543D01*
X1696500Y1429543D01*
Y1461543D02*
X1716500Y1481543D01*
X1736500Y1461543D01*
X1716500Y1441543D01*
X1696500Y1461543D01*
Y1557543D02*
X1716500Y1577543D01*
X1736500Y1557543D01*
X1716500Y1537543D01*
X1696500Y1557543D01*
X1732500Y1493543D02*
X1752500Y1513543D01*
X1772500Y1493543D01*
X1752500Y1473543D01*
X1732500Y1493543D01*
Y1461543D02*
X1752500Y1481543D01*
X1772500Y1461543D01*
X1752500Y1441543D01*
X1732500Y1461543D01*
Y1429543D02*
X1752500Y1449543D01*
X1772500Y1429543D01*
X1752500Y1409543D01*
X1732500Y1429543D01*
Y1397543D02*
X1752500Y1417543D01*
X1772500Y1397543D01*
X1752500Y1377543D01*
X1732500Y1397543D01*
X1661000Y1429543D02*
X1681000Y1449543D01*
X1701000Y1429543D01*
X1681000Y1409543D01*
X1661000Y1429543D01*
Y1461543D02*
X1681000Y1481543D01*
X1701000Y1461543D01*
X1681000Y1441543D01*
X1661000Y1461543D01*
Y1525543D02*
X1681000Y1545543D01*
X1701000Y1525543D01*
X1681000Y1505543D01*
X1661000Y1525543D01*
Y1557543D02*
X1681000Y1577543D01*
X1701000Y1557543D01*
X1681000Y1537543D01*
X1661000Y1557543D01*
X1625000D02*
X1645000Y1577543D01*
X1665000Y1557543D01*
X1645000Y1537543D01*
X1625000Y1557543D01*
Y1525543D02*
X1645000Y1545543D01*
X1665000Y1525543D01*
X1645000Y1505543D01*
X1625000Y1525543D01*
Y1493543D02*
X1645000Y1513543D01*
X1665000Y1493543D01*
X1645000Y1473543D01*
X1625000Y1493543D01*
Y1461543D02*
X1645000Y1481543D01*
X1665000Y1461543D01*
X1645000Y1441543D01*
X1625000Y1461543D01*
Y1429543D02*
X1645000Y1449543D01*
X1665000Y1429543D01*
X1645000Y1409543D01*
X1625000Y1429543D01*
X1879000Y2508000D02*
X1899000Y2528000D01*
X1919000Y2508000D01*
X1899000Y2488000D01*
X1879000Y2508000D01*
Y2540000D02*
X1899000Y2560000D01*
X1919000Y2540000D01*
X1899000Y2520000D01*
X1879000Y2540000D01*
Y2572000D02*
X1899000Y2592000D01*
X1919000Y2572000D01*
X1899000Y2552000D01*
X1879000Y2572000D01*
Y2604000D02*
X1899000Y2624000D01*
X1919000Y2604000D01*
X1899000Y2584000D01*
X1879000Y2604000D01*
Y2636000D02*
X1899000Y2656000D01*
X1919000Y2636000D01*
X1899000Y2616000D01*
X1879000Y2636000D01*
Y2668000D02*
X1899000Y2688000D01*
X1919000Y2668000D01*
X1899000Y2648000D01*
X1879000Y2668000D01*
X1915000D02*
X1935000Y2688000D01*
X1955000Y2668000D01*
X1935000Y2648000D01*
X1915000Y2668000D01*
Y2636000D02*
X1935000Y2656000D01*
X1955000Y2636000D01*
X1935000Y2616000D01*
X1915000Y2636000D01*
Y2604000D02*
X1935000Y2624000D01*
X1955000Y2604000D01*
X1935000Y2584000D01*
X1915000Y2604000D01*
Y2572000D02*
X1935000Y2592000D01*
X1955000Y2572000D01*
X1935000Y2552000D01*
X1915000Y2572000D01*
Y2540000D02*
X1935000Y2560000D01*
X1955000Y2540000D01*
X1935000Y2520000D01*
X1915000Y2540000D01*
Y2508000D02*
X1935000Y2528000D01*
X1955000Y2508000D01*
X1935000Y2488000D01*
X1915000Y2508000D01*
X1986500D02*
X2006500Y2528000D01*
X2026500Y2508000D01*
X2006500Y2488000D01*
X1986500Y2508000D01*
Y2540000D02*
X2006500Y2560000D01*
X2026500Y2540000D01*
X2006500Y2520000D01*
X1986500Y2540000D01*
Y2572000D02*
X2006500Y2592000D01*
X2026500Y2572000D01*
X2006500Y2552000D01*
X1986500Y2572000D01*
Y2604000D02*
X2006500Y2624000D01*
X2026500Y2604000D01*
X2006500Y2584000D01*
X1986500Y2604000D01*
Y2636000D02*
X2006500Y2656000D01*
X2026500Y2636000D01*
X2006500Y2616000D01*
X1986500Y2636000D01*
Y2668000D02*
X2006500Y2688000D01*
X2026500Y2668000D01*
X2006500Y2648000D01*
X1986500Y2668000D01*
X1950500D02*
X1970500Y2688000D01*
X1990500Y2668000D01*
X1970500Y2648000D01*
X1950500Y2668000D01*
Y2636000D02*
X1970500Y2656000D01*
X1990500Y2636000D01*
X1970500Y2616000D01*
X1950500Y2636000D01*
Y2604000D02*
X1970500Y2624000D01*
X1990500Y2604000D01*
X1970500Y2584000D01*
X1950500Y2604000D01*
Y2572000D02*
X1970500Y2592000D01*
X1990500Y2572000D01*
X1970500Y2552000D01*
X1950500Y2572000D01*
Y2540000D02*
X1970500Y2560000D01*
X1990500Y2540000D01*
X1970500Y2520000D01*
X1950500Y2540000D01*
Y2508000D02*
X1970500Y2528000D01*
X1990500Y2508000D01*
X1970500Y2488000D01*
X1950500Y2508000D01*
X1846500Y2508500D02*
X1866500Y2528500D01*
X1886500Y2508500D01*
X1866500Y2488500D01*
X1846500Y2508500D01*
Y2540500D02*
X1866500Y2560500D01*
X1886500Y2540500D01*
X1866500Y2520500D01*
X1846500Y2540500D01*
Y2572500D02*
X1866500Y2592500D01*
X1886500Y2572500D01*
X1866500Y2552500D01*
X1846500Y2572500D01*
Y2604500D02*
X1866500Y2624500D01*
X1886500Y2604500D01*
X1866500Y2584500D01*
X1846500Y2604500D01*
Y2636500D02*
X1866500Y2656500D01*
X1886500Y2636500D01*
X1866500Y2616500D01*
X1846500Y2636500D01*
Y2668500D02*
X1866500Y2688500D01*
X1886500Y2668500D01*
X1866500Y2648500D01*
X1846500Y2668500D01*
X2094000Y2668000D02*
X2114000Y2688000D01*
X2134000Y2668000D01*
X2114000Y2648000D01*
X2094000Y2668000D01*
Y2636000D02*
X2114000Y2656000D01*
X2134000Y2636000D01*
X2114000Y2616000D01*
X2094000Y2636000D01*
Y2604000D02*
X2114000Y2624000D01*
X2134000Y2604000D01*
X2114000Y2584000D01*
X2094000Y2604000D01*
Y2572000D02*
X2114000Y2592000D01*
X2134000Y2572000D01*
X2114000Y2552000D01*
X2094000Y2572000D01*
Y2540000D02*
X2114000Y2560000D01*
X2134000Y2540000D01*
X2114000Y2520000D01*
X2094000Y2540000D01*
Y2508000D02*
X2114000Y2528000D01*
X2134000Y2508000D01*
X2114000Y2488000D01*
X2094000Y2508000D01*
X2198000Y2507500D02*
X2218000Y2527500D01*
X2238000Y2507500D01*
X2218000Y2487500D01*
X2198000Y2507500D01*
Y2539500D02*
X2218000Y2559500D01*
X2238000Y2539500D01*
X2218000Y2519500D01*
X2198000Y2539500D01*
Y2571500D02*
X2218000Y2591500D01*
X2238000Y2571500D01*
X2218000Y2551500D01*
X2198000Y2571500D01*
Y2603500D02*
X2218000Y2623500D01*
X2238000Y2603500D01*
X2218000Y2583500D01*
X2198000Y2603500D01*
Y2635500D02*
X2218000Y2655500D01*
X2238000Y2635500D01*
X2218000Y2615500D01*
X2198000Y2635500D01*
Y2667500D02*
X2218000Y2687500D01*
X2238000Y2667500D01*
X2218000Y2647500D01*
X2198000Y2667500D01*
X2234000D02*
X2254000Y2687500D01*
X2274000Y2667500D01*
X2254000Y2647500D01*
X2234000Y2667500D01*
Y2635500D02*
X2254000Y2655500D01*
X2274000Y2635500D01*
X2254000Y2615500D01*
X2234000Y2635500D01*
Y2603500D02*
X2254000Y2623500D01*
X2274000Y2603500D01*
X2254000Y2583500D01*
X2234000Y2603500D01*
Y2571500D02*
X2254000Y2591500D01*
X2274000Y2571500D01*
X2254000Y2551500D01*
X2234000Y2571500D01*
Y2539500D02*
X2254000Y2559500D01*
X2274000Y2539500D01*
X2254000Y2519500D01*
X2234000Y2539500D01*
Y2507500D02*
X2254000Y2527500D01*
X2274000Y2507500D01*
X2254000Y2487500D01*
X2234000Y2507500D01*
X2162500D02*
X2182500Y2527500D01*
X2202500Y2507500D01*
X2182500Y2487500D01*
X2162500Y2507500D01*
Y2539500D02*
X2182500Y2559500D01*
X2202500Y2539500D01*
X2182500Y2519500D01*
X2162500Y2539500D01*
Y2571500D02*
X2182500Y2591500D01*
X2202500Y2571500D01*
X2182500Y2551500D01*
X2162500Y2571500D01*
Y2603500D02*
X2182500Y2623500D01*
X2202500Y2603500D01*
X2182500Y2583500D01*
X2162500Y2603500D01*
Y2635500D02*
X2182500Y2655500D01*
X2202500Y2635500D01*
X2182500Y2615500D01*
X2162500Y2635500D01*
Y2667500D02*
X2182500Y2687500D01*
X2202500Y2667500D01*
X2182500Y2647500D01*
X2162500Y2667500D01*
X2126500D02*
X2146500Y2687500D01*
X2166500Y2667500D01*
X2146500Y2647500D01*
X2126500Y2667500D01*
Y2635500D02*
X2146500Y2655500D01*
X2166500Y2635500D01*
X2146500Y2615500D01*
X2126500Y2635500D01*
Y2603500D02*
X2146500Y2623500D01*
X2166500Y2603500D01*
X2146500Y2583500D01*
X2126500Y2603500D01*
Y2571500D02*
X2146500Y2591500D01*
X2166500Y2571500D01*
X2146500Y2551500D01*
X2126500Y2571500D01*
Y2539500D02*
X2146500Y2559500D01*
X2166500Y2539500D01*
X2146500Y2519500D01*
X2126500Y2539500D01*
Y2507500D02*
X2146500Y2527500D01*
X2166500Y2507500D01*
X2146500Y2487500D01*
X2126500Y2507500D01*
X1626500Y2509000D02*
X1646500Y2529000D01*
X1666500Y2509000D01*
X1646500Y2489000D01*
X1626500Y2509000D01*
Y2541000D02*
X1646500Y2561000D01*
X1666500Y2541000D01*
X1646500Y2521000D01*
X1626500Y2541000D01*
Y2573000D02*
X1646500Y2593000D01*
X1666500Y2573000D01*
X1646500Y2553000D01*
X1626500Y2573000D01*
Y2605000D02*
X1646500Y2625000D01*
X1666500Y2605000D01*
X1646500Y2585000D01*
X1626500Y2605000D01*
Y2637000D02*
X1646500Y2657000D01*
X1666500Y2637000D01*
X1646500Y2617000D01*
X1626500Y2637000D01*
Y2669000D02*
X1646500Y2689000D01*
X1666500Y2669000D01*
X1646500Y2649000D01*
X1626500Y2669000D01*
X1662500D02*
X1682500Y2689000D01*
X1702500Y2669000D01*
X1682500Y2649000D01*
X1662500Y2669000D01*
Y2637000D02*
X1682500Y2657000D01*
X1702500Y2637000D01*
X1682500Y2617000D01*
X1662500Y2637000D01*
Y2605000D02*
X1682500Y2625000D01*
X1702500Y2605000D01*
X1682500Y2585000D01*
X1662500Y2605000D01*
Y2573000D02*
X1682500Y2593000D01*
X1702500Y2573000D01*
X1682500Y2553000D01*
X1662500Y2573000D01*
Y2541000D02*
X1682500Y2561000D01*
X1702500Y2541000D01*
X1682500Y2521000D01*
X1662500Y2541000D01*
Y2509000D02*
X1682500Y2529000D01*
X1702500Y2509000D01*
X1682500Y2489000D01*
X1662500Y2509000D01*
X1734000D02*
X1754000Y2529000D01*
X1774000Y2509000D01*
X1754000Y2489000D01*
X1734000Y2509000D01*
Y2541000D02*
X1754000Y2561000D01*
X1774000Y2541000D01*
X1754000Y2521000D01*
X1734000Y2541000D01*
Y2573000D02*
X1754000Y2593000D01*
X1774000Y2573000D01*
X1754000Y2553000D01*
X1734000Y2573000D01*
Y2605000D02*
X1754000Y2625000D01*
X1774000Y2605000D01*
X1754000Y2585000D01*
X1734000Y2605000D01*
Y2637000D02*
X1754000Y2657000D01*
X1774000Y2637000D01*
X1754000Y2617000D01*
X1734000Y2637000D01*
Y2669000D02*
X1754000Y2689000D01*
X1774000Y2669000D01*
X1754000Y2649000D01*
X1734000Y2669000D01*
X1698000D02*
X1718000Y2689000D01*
X1738000Y2669000D01*
X1718000Y2649000D01*
X1698000Y2669000D01*
Y2637000D02*
X1718000Y2657000D01*
X1738000Y2637000D01*
X1718000Y2617000D01*
X1698000Y2637000D01*
Y2605000D02*
X1718000Y2625000D01*
X1738000Y2605000D01*
X1718000Y2585000D01*
X1698000Y2605000D01*
Y2573000D02*
X1718000Y2593000D01*
X1738000Y2573000D01*
X1718000Y2553000D01*
X1698000Y2573000D01*
Y2541000D02*
X1718000Y2561000D01*
X1738000Y2541000D01*
X1718000Y2521000D01*
X1698000Y2541000D01*
Y2509000D02*
X1718000Y2529000D01*
X1738000Y2509000D01*
X1718000Y2489000D01*
X1698000Y2509000D01*
X1594000Y2509500D02*
X1614000Y2529500D01*
X1634000Y2509500D01*
X1614000Y2489500D01*
X1594000Y2509500D01*
Y2541500D02*
X1614000Y2561500D01*
X1634000Y2541500D01*
X1614000Y2521500D01*
X1594000Y2541500D01*
Y2573500D02*
X1614000Y2593500D01*
X1634000Y2573500D01*
X1614000Y2553500D01*
X1594000Y2573500D01*
Y2605500D02*
X1614000Y2625500D01*
X1634000Y2605500D01*
X1614000Y2585500D01*
X1594000Y2605500D01*
Y2637500D02*
X1614000Y2657500D01*
X1634000Y2637500D01*
X1614000Y2617500D01*
X1594000Y2637500D01*
Y2669500D02*
X1614000Y2689500D01*
X1634000Y2669500D01*
X1614000Y2649500D01*
X1594000Y2669500D01*
X1346500Y2670000D02*
X1366500Y2690000D01*
X1386500Y2670000D01*
X1366500Y2650000D01*
X1346500Y2670000D01*
Y2638000D02*
X1366500Y2658000D01*
X1386500Y2638000D01*
X1366500Y2618000D01*
X1346500Y2638000D01*
Y2606000D02*
X1366500Y2626000D01*
X1386500Y2606000D01*
X1366500Y2586000D01*
X1346500Y2606000D01*
Y2574000D02*
X1366500Y2594000D01*
X1386500Y2574000D01*
X1366500Y2554000D01*
X1346500Y2574000D01*
Y2542000D02*
X1366500Y2562000D01*
X1386500Y2542000D01*
X1366500Y2522000D01*
X1346500Y2542000D01*
Y2510000D02*
X1366500Y2530000D01*
X1386500Y2510000D01*
X1366500Y2490000D01*
X1346500Y2510000D01*
X1450500Y2509500D02*
X1470500Y2529500D01*
X1490500Y2509500D01*
X1470500Y2489500D01*
X1450500Y2509500D01*
Y2541500D02*
X1470500Y2561500D01*
X1490500Y2541500D01*
X1470500Y2521500D01*
X1450500Y2541500D01*
Y2573500D02*
X1470500Y2593500D01*
X1490500Y2573500D01*
X1470500Y2553500D01*
X1450500Y2573500D01*
Y2605500D02*
X1470500Y2625500D01*
X1490500Y2605500D01*
X1470500Y2585500D01*
X1450500Y2605500D01*
Y2637500D02*
X1470500Y2657500D01*
X1490500Y2637500D01*
X1470500Y2617500D01*
X1450500Y2637500D01*
Y2669500D02*
X1470500Y2689500D01*
X1490500Y2669500D01*
X1470500Y2649500D01*
X1450500Y2669500D01*
X1486500D02*
X1506500Y2689500D01*
X1526500Y2669500D01*
X1506500Y2649500D01*
X1486500Y2669500D01*
Y2637500D02*
X1506500Y2657500D01*
X1526500Y2637500D01*
X1506500Y2617500D01*
X1486500Y2637500D01*
Y2605500D02*
X1506500Y2625500D01*
X1526500Y2605500D01*
X1506500Y2585500D01*
X1486500Y2605500D01*
Y2573500D02*
X1506500Y2593500D01*
X1526500Y2573500D01*
X1506500Y2553500D01*
X1486500Y2573500D01*
Y2541500D02*
X1506500Y2561500D01*
X1526500Y2541500D01*
X1506500Y2521500D01*
X1486500Y2541500D01*
Y2509500D02*
X1506500Y2529500D01*
X1526500Y2509500D01*
X1506500Y2489500D01*
X1486500Y2509500D01*
X1415000D02*
X1435000Y2529500D01*
X1455000Y2509500D01*
X1435000Y2489500D01*
X1415000Y2509500D01*
Y2541500D02*
X1435000Y2561500D01*
X1455000Y2541500D01*
X1435000Y2521500D01*
X1415000Y2541500D01*
Y2573500D02*
X1435000Y2593500D01*
X1455000Y2573500D01*
X1435000Y2553500D01*
X1415000Y2573500D01*
Y2605500D02*
X1435000Y2625500D01*
X1455000Y2605500D01*
X1435000Y2585500D01*
X1415000Y2605500D01*
Y2637500D02*
X1435000Y2657500D01*
X1455000Y2637500D01*
X1435000Y2617500D01*
X1415000Y2637500D01*
Y2669500D02*
X1435000Y2689500D01*
X1455000Y2669500D01*
X1435000Y2649500D01*
X1415000Y2669500D01*
X1379000D02*
X1399000Y2689500D01*
X1419000Y2669500D01*
X1399000Y2649500D01*
X1379000Y2669500D01*
Y2637500D02*
X1399000Y2657500D01*
X1419000Y2637500D01*
X1399000Y2617500D01*
X1379000Y2637500D01*
Y2605500D02*
X1399000Y2625500D01*
X1419000Y2605500D01*
X1399000Y2585500D01*
X1379000Y2605500D01*
Y2573500D02*
X1399000Y2593500D01*
X1419000Y2573500D01*
X1399000Y2553500D01*
X1379000Y2573500D01*
Y2541500D02*
X1399000Y2561500D01*
X1419000Y2541500D01*
X1399000Y2521500D01*
X1379000Y2541500D01*
Y2509500D02*
X1399000Y2529500D01*
X1419000Y2509500D01*
X1399000Y2489500D01*
X1379000Y2509500D01*
X4121500Y2128000D02*
Y2168000D01*
X4161500D01*
Y2128000D01*
X4121500D01*
X4129500Y2136000D02*
Y2160000D01*
X4153500D01*
Y2136000D01*
X4129500D01*
X711000Y3917000D02*
X731000Y3937000D01*
X751000Y3917000D01*
X731000Y3897000D01*
X711000Y3917000D01*
X625030Y3954500D02*
X645030Y3974500D01*
X665030Y3954500D01*
X645030Y3934500D01*
X625030Y3954500D01*
X624000Y3878500D02*
X644000Y3898500D01*
X664000Y3878500D01*
X644000Y3858500D01*
X624000Y3878500D01*
X521500Y4146500D02*
X541500Y4166500D01*
X561500Y4146500D01*
X541500Y4126500D01*
X521500Y4146500D01*
X590000Y3726000D02*
X610000Y3746000D01*
X630000Y3726000D01*
X610000Y3706000D01*
X590000Y3726000D01*
X809500Y3760500D02*
X829500Y3780500D01*
X849500Y3760500D01*
X829500Y3740500D01*
X809500Y3760500D01*
Y4061000D02*
X829500Y4081000D01*
X849500Y4061000D01*
X829500Y4041000D01*
X809500Y4061000D01*
X3636485Y2908015D02*
X3656485Y2928015D01*
X3676485Y2908015D01*
X3656485Y2888015D01*
X3636485Y2908015D01*
X3056500Y1734000D02*
X3076500Y1754000D01*
X3096500Y1734000D01*
X3076500Y1714000D01*
X3056500Y1734000D01*
X4764500Y2597500D02*
X4784500Y2617500D01*
X4804500Y2597500D01*
X4784500Y2577500D01*
X4764500Y2597500D01*
X4584500Y2551000D02*
X4604500Y2571000D01*
X4624500Y2551000D01*
X4604500Y2531000D01*
X4584500Y2551000D01*
X414000Y3464000D02*
Y3504000D01*
X454000D01*
Y3464000D01*
X414000D01*
X422000Y3472000D02*
Y3496000D01*
X446000D01*
Y3472000D01*
X422000D01*
X1379000Y3795000D02*
X1399000Y3815000D01*
X1419000Y3795000D01*
X1399000Y3775000D01*
X1379000Y3795000D01*
X4291000Y2090000D02*
X4311000Y2110000D01*
X4331000Y2090000D01*
X4311000Y2070000D01*
X4291000Y2090000D01*
X1083038Y2326000D02*
Y2366000D01*
X1123038D01*
Y2326000D01*
X1083038D01*
X1091038Y2334000D02*
Y2358000D01*
X1115038D01*
Y2334000D01*
X1091038D01*
X1157038Y2326000D02*
Y2366000D01*
X1197038D01*
Y2326000D01*
X1157038D01*
X1165038Y2334000D02*
Y2358000D01*
X1189038D01*
Y2334000D01*
X1165038D01*
X931000Y1369000D02*
Y1409000D01*
X971000D01*
Y1369000D01*
X931000D01*
X939000Y1377000D02*
Y1401000D01*
X963000D01*
Y1377000D01*
X939000D01*
X1005000Y1369000D02*
Y1409000D01*
X1045000D01*
Y1369000D01*
X1005000D01*
X1013000Y1377000D02*
Y1401000D01*
X1037000D01*
Y1377000D01*
X1013000D01*
X1157450Y1369000D02*
Y1409000D01*
X1197450D01*
Y1369000D01*
X1157450D01*
X1165450Y1377000D02*
Y1401000D01*
X1189450D01*
Y1377000D01*
X1165450D01*
X1083450Y1369000D02*
Y1409000D01*
X1123450D01*
Y1369000D01*
X1083450D01*
X1091450Y1377000D02*
Y1401000D01*
X1115450D01*
Y1377000D01*
X1091450D01*
X2716000Y884000D02*
Y924000D01*
X2756000D01*
Y884000D01*
X2716000D01*
X2724000Y892000D02*
Y916000D01*
X2748000D01*
Y892000D01*
X2724000D01*
X2790000Y884000D02*
Y924000D01*
X2830000D01*
Y884000D01*
X2790000D01*
X2798000Y892000D02*
Y916000D01*
X2822000D01*
Y892000D01*
X2798000D01*
X2942450Y884000D02*
Y924000D01*
X2982450D01*
Y884000D01*
X2942450D01*
X2950450Y892000D02*
Y916000D01*
X2974450D01*
Y892000D01*
X2950450D01*
X2868450Y884000D02*
Y924000D01*
X2908450D01*
Y884000D01*
X2868450D01*
X2876450Y892000D02*
Y916000D01*
X2900450D01*
Y892000D01*
X2876450D01*
X3513584Y1031000D02*
Y1071000D01*
X3553584D01*
Y1031000D01*
X3513584D01*
X3521584Y1039000D02*
Y1063000D01*
X3545584D01*
Y1039000D01*
X3521584D01*
X3587584Y1031000D02*
Y1071000D01*
X3627584D01*
Y1031000D01*
X3587584D01*
X3595584Y1039000D02*
Y1063000D01*
X3619584D01*
Y1039000D01*
X3595584D01*
X3740034Y1031000D02*
Y1071000D01*
X3780034D01*
Y1031000D01*
X3740034D01*
X3748034Y1039000D02*
Y1063000D01*
X3772034D01*
Y1039000D01*
X3748034D01*
X3666034Y1031000D02*
Y1071000D01*
X3706034D01*
Y1031000D01*
X3666034D01*
X3674034Y1039000D02*
Y1063000D01*
X3698034D01*
Y1039000D01*
X3674034D01*
X4077803Y2574000D02*
Y2614000D01*
X4117803D01*
Y2574000D01*
X4077803D01*
X4085803Y2582000D02*
Y2606000D01*
X4109803D01*
Y2582000D01*
X4085803D01*
X4151803Y2574000D02*
Y2614000D01*
X4191803D01*
Y2574000D01*
X4151803D01*
X4159803Y2582000D02*
Y2606000D01*
X4183803D01*
Y2582000D01*
X4159803D01*
X4304254Y2574000D02*
Y2614000D01*
X4344254D01*
Y2574000D01*
X4304254D01*
X4312254Y2582000D02*
Y2606000D01*
X4336254D01*
Y2582000D01*
X4312254D01*
X4230254Y2574000D02*
Y2614000D01*
X4270254D01*
Y2574000D01*
X4230254D01*
X4238254Y2582000D02*
Y2606000D01*
X4262254D01*
Y2582000D01*
X4238254D01*
X4668000Y3213000D02*
Y3253000D01*
X4708000D01*
Y3213000D01*
X4668000D01*
X4676000Y3221000D02*
Y3245000D01*
X4700000D01*
Y3221000D01*
X4676000D01*
X4742000Y3213000D02*
Y3253000D01*
X4782000D01*
Y3213000D01*
X4742000D01*
X4750000Y3221000D02*
Y3245000D01*
X4774000D01*
Y3221000D01*
X4750000D01*
X4589550Y3213000D02*
Y3253000D01*
X4629550D01*
Y3213000D01*
X4589550D01*
X4597550Y3221000D02*
Y3245000D01*
X4621550D01*
Y3221000D01*
X4597550D01*
X4515550Y3213000D02*
Y3253000D01*
X4555550D01*
Y3213000D01*
X4515550D01*
X4523550Y3221000D02*
Y3245000D01*
X4547550D01*
Y3221000D01*
X4523550D01*
X1595000Y3500000D02*
Y3540000D01*
X1635000D01*
Y3500000D01*
X1595000D01*
X1603000Y3508000D02*
Y3532000D01*
X1627000D01*
Y3508000D01*
X1603000D01*
X2992000Y3096245D02*
X3012000Y3116245D01*
X3032000Y3096245D01*
X3012000Y3076245D01*
X2992000Y3096245D01*
X2949000Y2815000D02*
X2969000Y2835000D01*
X2989000Y2815000D01*
X2969000Y2795000D01*
X2949000Y2815000D01*
X2948976Y2836342D02*
X2928976Y2876342D01*
X2968976D01*
X2948976Y2836342D01*
Y2844342D02*
X2936976Y2868342D01*
X2960976D01*
X2948976Y2844342D01*
X2908000Y2906024D02*
X2928000Y2926024D01*
X2948000Y2906024D01*
X2928000Y2886024D01*
X2908000Y2906024D01*
X1754685Y2826000D02*
X1774685Y2846000D01*
X1794685Y2826000D01*
X1774685Y2806000D01*
X1754685Y2826000D01*
X1209510Y2046000D02*
Y2086000D01*
X1249510D01*
Y2046000D01*
X1209510D01*
X1217510Y2054000D02*
Y2078000D01*
X1241510D01*
Y2054000D01*
X1217510D01*
X1108000Y1855000D02*
Y1895000D01*
X1148000D01*
Y1855000D01*
X1108000D01*
X1116000Y1863000D02*
Y1887000D01*
X1140000D01*
Y1863000D01*
X1116000D01*
X874000Y2739000D02*
Y2779000D01*
X914000D01*
Y2739000D01*
X874000D01*
X882000Y2747000D02*
Y2771000D01*
X906000D01*
Y2747000D01*
X882000D01*
X929000Y2710000D02*
X949000Y2730000D01*
X969000Y2710000D01*
X949000Y2690000D01*
X929000Y2710000D01*
X882000Y3465000D02*
Y3505000D01*
X922000D01*
Y3465000D01*
X882000D01*
X890000Y3473000D02*
Y3497000D01*
X914000D01*
Y3473000D01*
X890000D01*
X782000Y3580000D02*
Y3620000D01*
X822000D01*
Y3580000D01*
X782000D01*
X790000Y3588000D02*
Y3612000D01*
X814000D01*
Y3588000D01*
X790000D01*
X2670000Y1663328D02*
X2690000Y1683328D01*
X2710000Y1663328D01*
X2690000Y1643328D01*
X2670000Y1663328D01*
X2711000Y1723570D02*
Y1763570D01*
X2751000D01*
Y1723570D01*
X2711000D01*
X2719000Y1731570D02*
Y1755570D01*
X2743000D01*
Y1731570D01*
X2719000D01*
X2240263Y1260000D02*
X2260263Y1280000D01*
X2280263Y1260000D01*
X2260263Y1240000D01*
X2240263Y1260000D01*
X2343000Y3855000D02*
X2363000Y3875000D01*
X2383000Y3855000D01*
X2363000Y3835000D01*
X2343000Y3855000D01*
X2434000Y3910000D02*
X2454000Y3930000D01*
X2474000Y3910000D01*
X2454000Y3890000D01*
X2434000Y3910000D01*
X2439909Y3541000D02*
Y3581000D01*
X2479909D01*
Y3541000D01*
X2439909D01*
X2447909Y3549000D02*
Y3573000D01*
X2471909D01*
Y3549000D01*
X2447909D01*
X2348000Y4051000D02*
Y4091000D01*
X2388000D01*
Y4051000D01*
X2348000D01*
X2356000Y4059000D02*
Y4083000D01*
X2380000D01*
Y4059000D01*
X2356000D01*
X2740000Y4144000D02*
X2760000Y4164000D01*
X2780000Y4144000D01*
X2760000Y4124000D01*
X2740000Y4144000D01*
X2439000Y4166000D02*
X2459000Y4186000D01*
X2479000Y4166000D01*
X2459000Y4146000D01*
X2439000Y4166000D01*
X2383000Y4029000D02*
X2403000Y4049000D01*
X2423000Y4029000D01*
X2403000Y4009000D01*
X2383000Y4029000D01*
X2268000Y3811000D02*
X2288000Y3831000D01*
X2308000Y3811000D01*
X2288000Y3791000D01*
X2268000Y3811000D01*
X3767000Y3444000D02*
X3787000Y3464000D01*
X3807000Y3444000D01*
X3787000Y3424000D01*
X3767000Y3444000D01*
X3827000Y3465000D02*
X3847000Y3485000D01*
X3867000Y3465000D01*
X3847000Y3445000D01*
X3827000Y3465000D01*
X4014000Y3757000D02*
X4034000Y3777000D01*
X4054000Y3757000D01*
X4034000Y3737000D01*
X4014000Y3757000D01*
X4073000Y3768000D02*
X4093000Y3788000D01*
X4113000Y3768000D01*
X4093000Y3748000D01*
X4073000Y3768000D01*
X3957000Y3754000D02*
X3977000Y3774000D01*
X3997000Y3754000D01*
X3977000Y3734000D01*
X3957000Y3754000D01*
X3803000Y3977000D02*
Y4017000D01*
X3843000D01*
Y3977000D01*
X3803000D01*
X3811000Y3985000D02*
Y4009000D01*
X3835000D01*
Y3985000D01*
X3811000D01*
X1186000Y3794000D02*
X1206000Y3814000D01*
X1226000Y3794000D01*
X1206000Y3774000D01*
X1186000Y3794000D01*
X1429000Y3879000D02*
X1449000Y3899000D01*
X1469000Y3879000D01*
X1449000Y3859000D01*
X1429000Y3879000D01*
X1758000Y3880000D02*
X1778000Y3900000D01*
X1798000Y3880000D01*
X1778000Y3860000D01*
X1758000Y3880000D01*
X1760000Y3755000D02*
X1780000Y3775000D01*
X1800000Y3755000D01*
X1780000Y3735000D01*
X1760000Y3755000D01*
X1679000Y3840000D02*
X1699000Y3860000D01*
X1719000Y3840000D01*
X1699000Y3820000D01*
X1679000Y3840000D01*
X1680409Y3954410D02*
X1700409Y3974410D01*
X1720409Y3954410D01*
X1700409Y3934410D01*
X1680409Y3954410D01*
X2157000Y3913000D02*
X2177000Y3933000D01*
X2197000Y3913000D01*
X2177000Y3893000D01*
X2157000Y3913000D01*
X2175400Y3729000D02*
X2195400Y3749000D01*
X2215400Y3729000D01*
X2195400Y3709000D01*
X2175400Y3729000D01*
X2030000Y3672000D02*
X2050000Y3692000D01*
X2070000Y3672000D01*
X2050000Y3652000D01*
X2030000Y3672000D01*
X2452000Y3841000D02*
X2472000Y3861000D01*
X2492000Y3841000D01*
X2472000Y3821000D01*
X2452000Y3841000D01*
X2261000Y3887000D02*
X2281000Y3907000D01*
X2301000Y3887000D01*
X2281000Y3867000D01*
X2261000Y3887000D01*
X2172000Y4024000D02*
X2192000Y4044000D01*
X2212000Y4024000D01*
X2192000Y4004000D01*
X2172000Y4024000D01*
X1194000Y3986000D02*
X1214000Y4006000D01*
X1234000Y3986000D01*
X1214000Y3966000D01*
X1194000Y3986000D01*
X2943000Y3486000D02*
Y3526000D01*
X2983000D01*
Y3486000D01*
X2943000D01*
X2951000Y3494000D02*
Y3518000D01*
X2975000D01*
Y3494000D01*
X2951000D01*
X3193643Y3569000D02*
Y3609000D01*
X3233643D01*
Y3569000D01*
X3193643D01*
X3201643Y3577000D02*
Y3601000D01*
X3225643D01*
Y3577000D01*
X3201643D01*
X4030000Y3249000D02*
Y3289000D01*
X4070000D01*
Y3249000D01*
X4030000D01*
X4038000Y3257000D02*
Y3281000D01*
X4062000D01*
Y3257000D01*
X4038000D01*
X4567000Y3565000D02*
Y3605000D01*
X4607000D01*
Y3565000D01*
X4567000D01*
X4575000Y3573000D02*
Y3597000D01*
X4599000D01*
Y3573000D01*
X4575000D01*
X4625000Y3361000D02*
X4645000Y3381000D01*
X4665000Y3361000D01*
X4645000Y3341000D01*
X4625000Y3361000D01*
X3990000Y3589000D02*
X4010000Y3609000D01*
X4030000Y3589000D01*
X4010000Y3569000D01*
X3990000Y3589000D01*
X3489000Y4074000D02*
X3509000Y4094000D01*
X3529000Y4074000D01*
X3509000Y4054000D01*
X3489000Y4074000D01*
X3695000Y3696000D02*
X3715000Y3716000D01*
X3735000Y3696000D01*
X3715000Y3676000D01*
X3695000Y3696000D01*
X3478000Y3550000D02*
X3498000Y3570000D01*
X3518000Y3550000D01*
X3498000Y3530000D01*
X3478000Y3550000D01*
X4091000Y1965000D02*
Y2005000D01*
X4131000D01*
Y1965000D01*
X4091000D01*
X4099000Y1973000D02*
Y1997000D01*
X4123000D01*
Y1973000D01*
X4099000D01*
X4347000Y1219000D02*
Y1259000D01*
X4387000D01*
Y1219000D01*
X4347000D01*
X4355000Y1227000D02*
Y1251000D01*
X4379000D01*
Y1227000D01*
X4355000D01*
X2332000Y1294000D02*
Y1334000D01*
X2372000D01*
Y1294000D01*
X2332000D01*
X2340000Y1302000D02*
Y1326000D01*
X2364000D01*
Y1302000D01*
X2340000D01*
X1978000Y680000D02*
Y720000D01*
X2018000D01*
Y680000D01*
X1978000D01*
X1986000Y688000D02*
Y712000D01*
X2010000D01*
Y688000D01*
X1986000D01*
X1364000Y3891000D02*
Y3931000D01*
X1404000D01*
Y3891000D01*
X1364000D01*
X1372000Y3899000D02*
Y3923000D01*
X1396000D01*
Y3899000D01*
X1372000D01*
X2662000Y2801181D02*
X2682000Y2821181D01*
X2702000Y2801181D01*
X2682000Y2781181D01*
X2662000Y2801181D01*
X3696000Y3259000D02*
X3716000Y3279000D01*
X3736000Y3259000D01*
X3716000Y3239000D01*
X3696000Y3259000D01*
Y2334000D02*
X3716000Y2354000D01*
X3736000Y2334000D01*
X3716000Y2314000D01*
X3696000Y2334000D01*
X3782000Y2720000D02*
X3802000Y2740000D01*
X3822000Y2720000D01*
X3802000Y2700000D01*
X3782000Y2720000D01*
X3685000Y2781000D02*
X3705000Y2801000D01*
X3725000Y2781000D01*
X3705000Y2761000D01*
X3685000Y2781000D01*
X3042000Y2884000D02*
X3062000Y2904000D01*
X3082000Y2884000D01*
X3062000Y2864000D01*
X3042000Y2884000D01*
X2920000Y2371000D02*
X2940000Y2391000D01*
X2960000Y2371000D01*
X2940000Y2351000D01*
X2920000Y2371000D01*
X2982000Y2875000D02*
X3002000Y2895000D01*
X3022000Y2875000D01*
X3002000Y2855000D01*
X2982000Y2875000D01*
X2762000Y1717000D02*
X2782000Y1737000D01*
X2802000Y1717000D01*
X2782000Y1697000D01*
X2762000Y1717000D01*
X2346000D02*
X2366000Y1737000D01*
X2386000Y1717000D01*
X2366000Y1697000D01*
X2346000Y1717000D01*
X2298000Y1707000D02*
X2318000Y1727000D01*
X2338000Y1707000D01*
X2318000Y1687000D01*
X2298000Y1707000D01*
X2696000Y3155000D02*
X2716000Y3175000D01*
X2736000Y3155000D01*
X2716000Y3135000D01*
X2696000Y3155000D01*
X2658000Y2869000D02*
X2678000Y2889000D01*
X2698000Y2869000D01*
X2678000Y2849000D01*
X2658000Y2869000D01*
X2700000Y2875000D02*
X2720000Y2895000D01*
X2740000Y2875000D01*
X2720000Y2855000D01*
X2700000Y2875000D01*
X3650000Y3459000D02*
X3670000Y3479000D01*
X3690000Y3459000D01*
X3670000Y3439000D01*
X3650000Y3459000D01*
X2396000Y3286000D02*
X2416000Y3306000D01*
X2436000Y3286000D01*
X2416000Y3266000D01*
X2396000Y3286000D01*
X2551000Y3143000D02*
X2571000Y3163000D01*
X2591000Y3143000D01*
X2571000Y3123000D01*
X2551000Y3143000D01*
X2488000Y3268000D02*
X2508000Y3288000D01*
X2528000Y3268000D01*
X2508000Y3248000D01*
X2488000Y3268000D01*
X2547000Y3284000D02*
X2567000Y3304000D01*
X2587000Y3284000D01*
X2567000Y3264000D01*
X2547000Y3284000D01*
X2486000Y3458000D02*
X2506000Y3478000D01*
X2526000Y3458000D01*
X2506000Y3438000D01*
X2486000Y3458000D01*
X2436000Y3467000D02*
X2456000Y3487000D01*
X2476000Y3467000D01*
X2456000Y3447000D01*
X2436000Y3467000D01*
X3389000Y2338000D02*
X3409000Y2358000D01*
X3429000Y2338000D01*
X3409000Y2318000D01*
X3389000Y2338000D01*
X3311000Y2878000D02*
X3331000Y2898000D01*
X3351000Y2878000D01*
X3331000Y2858000D01*
X3311000Y2878000D01*
X3245000Y3011000D02*
X3265000Y3031000D01*
X3285000Y3011000D01*
X3265000Y2991000D01*
X3245000Y3011000D01*
X3265000Y3078000D02*
X3285000Y3098000D01*
X3305000Y3078000D01*
X3285000Y3058000D01*
X3265000Y3078000D01*
X3523600Y3709000D02*
X3543600Y3729000D01*
X3563600Y3709000D01*
X3543600Y3689000D01*
X3523600Y3709000D01*
X2131000Y3777000D02*
X2151000Y3797000D01*
X2171000Y3777000D01*
X2151000Y3757000D01*
X2131000Y3777000D01*
X2250000Y3441000D02*
X2270000Y3461000D01*
X2290000Y3441000D01*
X2270000Y3421000D01*
X2250000Y3441000D01*
X3605000Y3703000D02*
X3625000Y3723000D01*
X3645000Y3703000D01*
X3625000Y3683000D01*
X3605000Y3703000D01*
X3527000Y3914000D02*
X3547000Y3934000D01*
X3567000Y3914000D01*
X3547000Y3894000D01*
X3527000Y3914000D01*
X4405000Y3811000D02*
X4425000Y3831000D01*
X4445000Y3811000D01*
X4425000Y3791000D01*
X4405000Y3811000D01*
X3467000Y3646000D02*
X3487000Y3666000D01*
X3507000Y3646000D01*
X3487000Y3626000D01*
X3467000Y3646000D01*
X3828000Y3571000D02*
X3848000Y3591000D01*
X3868000Y3571000D01*
X3848000Y3551000D01*
X3828000Y3571000D01*
X3566000Y3405000D02*
X3586000Y3425000D01*
X3606000Y3405000D01*
X3586000Y3385000D01*
X3566000Y3405000D01*
X3703000Y3550000D02*
X3723000Y3570000D01*
X3743000Y3550000D01*
X3723000Y3530000D01*
X3703000Y3550000D01*
X2744000Y3842000D02*
X2764000Y3862000D01*
X2784000Y3842000D01*
X2764000Y3822000D01*
X2744000Y3842000D01*
X2651000Y3796000D02*
X2671000Y3816000D01*
X2691000Y3796000D01*
X2671000Y3776000D01*
X2651000Y3796000D01*
X2549696Y3858000D02*
X2569696Y3878000D01*
X2589696Y3858000D01*
X2569696Y3838000D01*
X2549696Y3858000D01*
X2605000Y3867000D02*
X2625000Y3887000D01*
X2645000Y3867000D01*
X2625000Y3847000D01*
X2605000Y3867000D01*
X2666000Y3855000D02*
X2686000Y3875000D01*
X2706000Y3855000D01*
X2686000Y3835000D01*
X2666000Y3855000D01*
X3302000Y3840000D02*
X3322000Y3860000D01*
X3342000Y3840000D01*
X3322000Y3820000D01*
X3302000Y3840000D01*
X2552000Y2909000D02*
X2572000Y2929000D01*
X2592000Y2909000D01*
X2572000Y2889000D01*
X2552000Y2909000D01*
X3692000Y3842000D02*
X3712000Y3862000D01*
X3732000Y3842000D01*
X3712000Y3822000D01*
X3692000Y3842000D01*
X3696000Y2833000D02*
X3716000Y2853000D01*
X3736000Y2833000D01*
X3716000Y2813000D01*
X3696000Y2833000D01*
X3401000Y2701000D02*
X3421000Y2721000D01*
X3441000Y2701000D01*
X3421000Y2681000D01*
X3401000Y2701000D01*
X523500Y3541000D02*
X543500Y3561000D01*
X563500Y3541000D01*
X543500Y3521000D01*
X523500Y3541000D01*
X3017000Y4141000D02*
X3037000Y4161000D01*
X3057000Y4141000D01*
X3037000Y4121000D01*
X3017000Y4141000D01*
X2862000Y4115000D02*
X2882000Y4135000D01*
X2902000Y4115000D01*
X2882000Y4095000D01*
X2862000Y4115000D01*
X2914000Y4120000D02*
X2934000Y4140000D01*
X2954000Y4120000D01*
X2934000Y4100000D01*
X2914000Y4120000D01*
X2882000Y4044000D02*
X2902000Y4064000D01*
X2922000Y4044000D01*
X2902000Y4024000D01*
X2882000Y4044000D01*
X2167000Y4078000D02*
X2187000Y4098000D01*
X2207000Y4078000D01*
X2187000Y4058000D01*
X2167000Y4078000D01*
X2596000Y2354000D02*
X2616000Y2374000D01*
X2636000Y2354000D01*
X2616000Y2334000D01*
X2596000Y2354000D01*
X2560000Y2380000D02*
X2580000Y2400000D01*
X2600000Y2380000D01*
X2580000Y2360000D01*
X2560000Y2380000D01*
X4566000Y4075000D02*
X4586000Y4095000D01*
X4606000Y4075000D01*
X4586000Y4055000D01*
X4566000Y4075000D01*
X3285000Y2376000D02*
X3305000Y2396000D01*
X3325000Y2376000D01*
X3305000Y2356000D01*
X3285000Y2376000D01*
X3140000Y3069000D02*
X3160000Y3089000D01*
X3180000Y3069000D01*
X3160000Y3049000D01*
X3140000Y3069000D01*
X2969000Y2753000D02*
X2989000Y2773000D01*
X3009000Y2753000D01*
X2989000Y2733000D01*
X2969000Y2753000D01*
X3061000Y1666000D02*
X3081000Y1686000D01*
X3101000Y1666000D01*
X3081000Y1646000D01*
X3061000Y1666000D01*
X3122000Y1660000D02*
X3142000Y1680000D01*
X3162000Y1660000D01*
X3142000Y1640000D01*
X3122000Y1660000D01*
X3393000Y2824000D02*
X3413000Y2844000D01*
X3433000Y2824000D01*
X3413000Y2804000D01*
X3393000Y2824000D01*
X3400000Y1662000D02*
X3420000Y1682000D01*
X3440000Y1662000D01*
X3420000Y1642000D01*
X3400000Y1662000D01*
X3192000Y3022000D02*
X3212000Y3042000D01*
X3232000Y3022000D01*
X3212000Y3002000D01*
X3192000Y3022000D01*
X3299000Y2773000D02*
X3319000Y2793000D01*
X3339000Y2773000D01*
X3319000Y2753000D01*
X3299000Y2773000D01*
X3225000Y3049000D02*
X3245000Y3069000D01*
X3265000Y3049000D01*
X3245000Y3029000D01*
X3225000Y3049000D01*
X3106000Y3100000D02*
X3126000Y3120000D01*
X3146000Y3100000D01*
X3126000Y3080000D01*
X3106000Y3100000D01*
X3193000Y3133000D02*
X3213000Y3153000D01*
X3233000Y3133000D01*
X3213000Y3113000D01*
X3193000Y3133000D01*
X3808000Y1570000D02*
X3828000Y1590000D01*
X3848000Y1570000D01*
X3828000Y1550000D01*
X3808000Y1570000D01*
X2890000Y3103000D02*
X2910000Y3123000D01*
X2930000Y3103000D01*
X2910000Y3083000D01*
X2890000Y3103000D01*
X2835000Y3106000D02*
X2855000Y3126000D01*
X2875000Y3106000D01*
X2855000Y3086000D01*
X2835000Y3106000D01*
X2788000Y3111000D02*
X2808000Y3131000D01*
X2828000Y3111000D01*
X2808000Y3091000D01*
X2788000Y3111000D01*
X3399000Y3054000D02*
X3419000Y3074000D01*
X3439000Y3054000D01*
X3419000Y3034000D01*
X3399000Y3054000D01*
X3343000Y3100000D02*
X3363000Y3120000D01*
X3383000Y3100000D01*
X3363000Y3080000D01*
X3343000Y3100000D01*
X3296000Y3139000D02*
X3316000Y3159000D01*
X3336000Y3139000D01*
X3316000Y3119000D01*
X3296000Y3139000D01*
X3308843Y3016000D02*
X3328843Y3036000D01*
X3348843Y3016000D01*
X3328843Y2996000D01*
X3308843Y3016000D01*
X3245000Y3131000D02*
X3265000Y3151000D01*
X3285000Y3131000D01*
X3265000Y3111000D01*
X3245000Y3131000D01*
X3361000Y3843000D02*
X3381000Y3863000D01*
X3401000Y3843000D01*
X3381000Y3823000D01*
X3361000Y3843000D01*
X3427000Y4158000D02*
X3447000Y4178000D01*
X3467000Y4158000D01*
X3447000Y4138000D01*
X3427000Y4158000D01*
X4718000Y4112000D02*
X4738000Y4132000D01*
X4758000Y4112000D01*
X4738000Y4092000D01*
X4718000Y4112000D01*
X4587000Y2025000D02*
X4607000Y2045000D01*
X4627000Y2025000D01*
X4607000Y2005000D01*
X4587000Y2025000D01*
X4550000Y2066000D02*
X4570000Y2086000D01*
X4590000Y2066000D01*
X4570000Y2046000D01*
X4550000Y2066000D01*
X3100000Y1735000D02*
X3120000Y1755000D01*
X3140000Y1735000D01*
X3120000Y1715000D01*
X3100000Y1735000D01*
X4507000Y3556000D02*
X4527000Y3576000D01*
X4547000Y3556000D01*
X4527000Y3536000D01*
X4507000Y3556000D01*
X4450000Y3486000D02*
X4470000Y3506000D01*
X4490000Y3486000D01*
X4470000Y3466000D01*
X4450000Y3486000D01*
X3831000Y3520000D02*
X3851000Y3540000D01*
X3871000Y3520000D01*
X3851000Y3500000D01*
X3831000Y3520000D01*
X4905000Y3543000D02*
X4925000Y3563000D01*
X4945000Y3543000D01*
X4925000Y3523000D01*
X4905000Y3543000D01*
X4280000Y1854500D02*
X4300000Y1874500D01*
X4320000Y1854500D01*
X4300000Y1834500D01*
X4280000Y1854500D01*
X4380000Y1641000D02*
X4400000Y1661000D01*
X4420000Y1641000D01*
X4400000Y1621000D01*
X4380000Y1641000D01*
X3894236D02*
X3914236Y1661000D01*
X3934236Y1641000D01*
X3914236Y1621000D01*
X3894236Y1641000D01*
X3487000Y1725000D02*
X3507000Y1745000D01*
X3527000Y1725000D01*
X3507000Y1705000D01*
X3487000Y1725000D01*
X3351000Y2850000D02*
X3371000Y2870000D01*
X3391000Y2850000D01*
X3371000Y2830000D01*
X3351000Y2850000D01*
X2538000Y2848000D02*
X2558000Y2868000D01*
X2578000Y2848000D01*
X2558000Y2828000D01*
X2538000Y2848000D01*
X3408386Y2776106D02*
X3428386Y2796106D01*
X3448386Y2776106D01*
X3428386Y2756106D01*
X3408386Y2776106D01*
X3748000Y3796000D02*
X3768000Y3816000D01*
X3788000Y3796000D01*
X3768000Y3776000D01*
X3748000Y3796000D01*
X3797000Y3741000D02*
X3817000Y3761000D01*
X3837000Y3741000D01*
X3817000Y3721000D01*
X3797000Y3741000D01*
X3832000Y3654000D02*
X3852000Y3674000D01*
X3872000Y3654000D01*
X3852000Y3634000D01*
X3832000Y3654000D01*
X3953000Y3263000D02*
X3973000Y3283000D01*
X3993000Y3263000D01*
X3973000Y3243000D01*
X3953000Y3263000D01*
X3794000Y3602000D02*
X3814000Y3622000D01*
X3834000Y3602000D01*
X3814000Y3582000D01*
X3794000Y3602000D01*
X3659000Y3046000D02*
X3679000Y3066000D01*
X3699000Y3046000D01*
X3679000Y3026000D01*
X3659000Y3046000D01*
X3469000Y3090000D02*
X3489000Y3110000D01*
X3509000Y3090000D01*
X3489000Y3070000D01*
X3469000Y3090000D01*
X2511000Y3164000D02*
X2531000Y3184000D01*
X2551000Y3164000D01*
X2531000Y3144000D01*
X2511000Y3164000D01*
X3883000Y2594000D02*
X3903000Y2614000D01*
X3923000Y2594000D01*
X3903000Y2574000D01*
X3883000Y2594000D01*
X3852000Y2642000D02*
X3872000Y2662000D01*
X3892000Y2642000D01*
X3872000Y2622000D01*
X3852000Y2642000D01*
X3981000Y2588000D02*
X4001000Y2608000D01*
X4021000Y2588000D01*
X4001000Y2568000D01*
X3981000Y2588000D01*
X2199000Y2385000D02*
X2219000Y2405000D01*
X2239000Y2385000D01*
X2219000Y2365000D01*
X2199000Y2385000D01*
X2311000Y1186000D02*
X2331000Y1206000D01*
X2351000Y1186000D01*
X2331000Y1166000D01*
X2311000Y1186000D01*
X4642000Y1233000D02*
Y1273000D01*
X4682000D01*
Y1233000D01*
X4642000D01*
X4650000Y1241000D02*
Y1265000D01*
X4674000D01*
Y1241000D01*
X4650000D01*
X4696890Y1423000D02*
Y1463000D01*
X4736890D01*
Y1423000D01*
X4696890D01*
X4704890Y1431000D02*
Y1455000D01*
X4728890D01*
Y1431000D01*
X4704890D01*
X3175112Y4134500D02*
X3195112Y4154500D01*
X3215112Y4134500D01*
X3195112Y4114500D01*
X3175112Y4134500D01*
X3490000Y3945000D02*
X3510000Y3965000D01*
X3530000Y3945000D01*
X3510000Y3925000D01*
X3490000Y3945000D01*
X3431000Y3967000D02*
X3451000Y3987000D01*
X3471000Y3967000D01*
X3451000Y3947000D01*
X3431000Y3967000D01*
X3396000Y4009000D02*
X3416000Y4029000D01*
X3436000Y4009000D01*
X3416000Y3989000D01*
X3396000Y4009000D01*
X3403000Y4074000D02*
X3423000Y4094000D01*
X3443000Y4074000D01*
X3423000Y4054000D01*
X3403000Y4074000D01*
X3337000Y4076000D02*
X3357000Y4096000D01*
X3377000Y4076000D01*
X3357000Y4056000D01*
X3337000Y4076000D01*
X3261000Y4077000D02*
X3281000Y4097000D01*
X3301000Y4077000D01*
X3281000Y4057000D01*
X3261000Y4077000D01*
X3205000Y4090000D02*
X3225000Y4110000D01*
X3245000Y4090000D01*
X3225000Y4070000D01*
X3205000Y4090000D01*
X3106000Y4136000D02*
X3126000Y4156000D01*
X3146000Y4136000D01*
X3126000Y4116000D01*
X3106000Y4136000D01*
X579000Y3499000D02*
X599000Y3519000D01*
X619000Y3499000D01*
X599000Y3479000D01*
X579000Y3499000D01*
X2900000Y3954410D02*
X2920000Y3974410D01*
X2940000Y3954410D01*
X2920000Y3934410D01*
X2900000Y3954410D01*
X2967000Y4139000D02*
X2987000Y4159000D01*
X3007000Y4139000D01*
X2987000Y4119000D01*
X2967000Y4139000D01*
X487139Y4109000D02*
X507139Y4129000D01*
X527139Y4109000D01*
X507139Y4089000D01*
X487139Y4109000D01*
X3665000Y3930000D02*
X3685000Y3950000D01*
X3705000Y3930000D01*
X3685000Y3910000D01*
X3665000Y3930000D01*
X2485000Y3876000D02*
X2505000Y3896000D01*
X2525000Y3876000D01*
X2505000Y3856000D01*
X2485000Y3876000D01*
X3496000Y3403000D02*
X3516000Y3423000D01*
X3536000Y3403000D01*
X3516000Y3383000D01*
X3496000Y3403000D01*
X3326000Y3384000D02*
X3346000Y3404000D01*
X3366000Y3384000D01*
X3346000Y3364000D01*
X3326000Y3384000D01*
X4841000Y3715000D02*
X4861000Y3735000D01*
X4881000Y3715000D01*
X4861000Y3695000D01*
X4841000Y3715000D01*
X4412000Y1607000D02*
X4432000Y1627000D01*
X4452000Y1607000D01*
X4432000Y1587000D01*
X4412000Y1607000D01*
X4191000Y1272000D02*
X4211000Y1292000D01*
X4231000Y1272000D01*
X4211000Y1252000D01*
X4191000Y1272000D01*
X3133000Y3532795D02*
Y3572795D01*
X3173000D01*
Y3532795D01*
X3133000D01*
X3141000Y3540795D02*
Y3564795D01*
X3165000D01*
Y3540795D01*
X3141000D01*
X2427000Y3329000D02*
X2447000Y3349000D01*
X2467000Y3329000D01*
X2447000Y3309000D01*
X2427000Y3329000D01*
X3539281Y3024000D02*
X3559281Y3044000D01*
X3579281Y3024000D01*
X3559281Y3004000D01*
X3539281Y3024000D01*
X2437711Y3251000D02*
X2457711Y3271000D01*
X2477711Y3251000D01*
X2457711Y3231000D01*
X2437711Y3251000D01*
X2607000Y3304000D02*
X2627000Y3324000D01*
X2647000Y3304000D01*
X2627000Y3284000D01*
X2607000Y3304000D01*
X3040000Y3099000D02*
X3060000Y3119000D01*
X3080000Y3099000D01*
X3060000Y3079000D01*
X3040000Y3099000D01*
X2942000Y3097000D02*
X2962000Y3117000D01*
X2982000Y3097000D01*
X2962000Y3077000D01*
X2942000Y3097000D01*
X3639597Y3221000D02*
X3659597Y3241000D01*
X3679597Y3221000D01*
X3659597Y3201000D01*
X3639597Y3221000D01*
X3640000Y3134000D02*
X3660000Y3154000D01*
X3680000Y3134000D01*
X3660000Y3114000D01*
X3640000Y3134000D01*
X3578000Y3068000D02*
X3598000Y3088000D01*
X3618000Y3068000D01*
X3598000Y3048000D01*
X3578000Y3068000D01*
X2506000Y2924000D02*
X2526000Y2944000D01*
X2546000Y2924000D01*
X2526000Y2904000D01*
X2506000Y2924000D01*
X4424000Y1375000D02*
X4444000Y1395000D01*
X4464000Y1375000D01*
X4444000Y1355000D01*
X4424000Y1375000D01*
X4399000Y1456638D02*
X4409000Y1466638D01*
X4419000D01*
X4409000Y1476638D01*
X4419000Y1486638D01*
X4409000D01*
X4399000Y1496638D01*
X4389000Y1486638D01*
X4379000D01*
X4389000Y1476638D01*
X4379000Y1466638D01*
X4389000D01*
X4399000Y1456638D01*
Y1464638D02*
X4405000Y1470638D01*
X4411000D01*
X4405000Y1476638D01*
X4411000Y1482638D01*
X4405000D01*
X4399000Y1488638D01*
X4393000Y1482638D01*
X4387000D01*
X4393000Y1476638D01*
X4387000Y1470638D01*
X4393000D01*
X4399000Y1464638D01*
X1319000Y2361000D02*
X1339000Y2381000D01*
X1359000Y2361000D01*
X1339000Y2341000D01*
X1319000Y2361000D01*
X1933000Y2434000D02*
X1953000Y2454000D01*
X1973000Y2434000D01*
X1953000Y2414000D01*
X1933000Y2434000D01*
X4503000Y897000D02*
X4523000Y917000D01*
X4543000Y897000D01*
X4523000Y877000D01*
X4503000Y897000D01*
X4562000Y1469000D02*
X4582000Y1489000D01*
X4602000Y1469000D01*
X4582000Y1449000D01*
X4562000Y1469000D01*
X3926000Y3410000D02*
X3946000Y3430000D01*
X3966000Y3410000D01*
X3946000Y3390000D01*
X3926000Y3410000D01*
X3860000Y3864000D02*
X3880000Y3884000D01*
X3900000Y3864000D01*
X3880000Y3844000D01*
X3860000Y3864000D01*
X4504000Y3356000D02*
X4524000Y3376000D01*
X4544000Y3356000D01*
X4524000Y3336000D01*
X4504000Y3356000D01*
X2455000Y3685000D02*
X2475000Y3705000D01*
X2495000Y3685000D01*
X2475000Y3665000D01*
X2455000Y3685000D01*
X2495000Y3712000D02*
X2515000Y3732000D01*
X2535000Y3712000D01*
X2515000Y3692000D01*
X2495000Y3712000D01*
X2507000Y3770000D02*
X2527000Y3790000D01*
X2547000Y3770000D01*
X2527000Y3750000D01*
X2507000Y3770000D01*
X2590000Y3827000D02*
X2610000Y3847000D01*
X2630000Y3827000D01*
X2610000Y3807000D01*
X2590000Y3827000D01*
X2378000Y1179000D02*
X2398000Y1199000D01*
X2418000Y1179000D01*
X2398000Y1159000D01*
X2378000Y1179000D01*
X1734000Y1263000D02*
X1754000Y1283000D01*
X1774000Y1263000D01*
X1754000Y1243000D01*
X1734000Y1263000D01*
X1791000Y1282000D02*
X1811000Y1302000D01*
X1831000Y1282000D01*
X1811000Y1262000D01*
X1791000Y1282000D01*
X2491491Y2341470D02*
X2511491Y2361470D01*
X2531491Y2341470D01*
X2511491Y2321470D01*
X2491491Y2341470D01*
X2858912Y2341000D02*
X2878912Y2361000D01*
X2898912Y2341000D01*
X2878912Y2321000D01*
X2858912Y2341000D01*
X3226334Y2340894D02*
X3246334Y2360894D01*
X3266334Y2340894D01*
X3246334Y2320894D01*
X3226334Y2340894D01*
X3613298Y2342106D02*
X3633298Y2362106D01*
X3653298Y2342106D01*
X3633298Y2322106D01*
X3613298Y2342106D01*
X3554843Y1703000D02*
X3574843Y1723000D01*
X3594843Y1703000D01*
X3574843Y1683000D01*
X3554843Y1703000D01*
X3187421D02*
X3207421Y1723000D01*
X3227421Y1703000D01*
X3207421Y1683000D01*
X3187421Y1703000D01*
X2820000D02*
X2840000Y1723000D01*
X2860000Y1703000D01*
X2840000Y1683000D01*
X2820000Y1703000D01*
X2449000Y1700000D02*
X2469000Y1720000D01*
X2489000Y1700000D01*
X2469000Y1680000D01*
X2449000Y1700000D01*
X3283000Y2849000D02*
X3303000Y2869000D01*
X3323000Y2849000D01*
X3303000Y2829000D01*
X3283000Y2849000D01*
X3329000Y2367000D02*
X3349000Y2387000D01*
X3369000Y2367000D01*
X3349000Y2347000D01*
X3329000Y2367000D01*
X4622000Y2228000D02*
X4642000Y2248000D01*
X4662000Y2228000D01*
X4642000Y2208000D01*
X4622000Y2228000D01*
X2985000Y2364000D02*
X3005000Y2384000D01*
X3025000Y2364000D01*
X3005000Y2344000D01*
X2985000Y2364000D01*
X4622000Y2326000D02*
X4642000Y2346000D01*
X4662000Y2326000D01*
X4642000Y2306000D01*
X4622000Y2326000D01*
X4278500Y2305500D02*
X4298500Y2325500D01*
X4318500Y2305500D01*
X4298500Y2285500D01*
X4278500Y2305500D01*
X4619000Y2404000D02*
X4639000Y2424000D01*
X4659000Y2404000D01*
X4639000Y2384000D01*
X4619000Y2404000D01*
Y2495000D02*
X4639000Y2515000D01*
X4659000Y2495000D01*
X4639000Y2475000D01*
X4619000Y2495000D01*
X4267000Y3167000D02*
X4287000Y3187000D01*
X4307000Y3167000D01*
X4287000Y3147000D01*
X4267000Y3167000D01*
X4264000Y3276000D02*
X4284000Y3296000D01*
X4304000Y3276000D01*
X4284000Y3256000D01*
X4264000Y3276000D01*
X2996000Y3594000D02*
X3016000Y3614000D01*
X3036000Y3594000D01*
X3016000Y3574000D01*
X2996000Y3594000D01*
X3688000Y3349000D02*
X3708000Y3369000D01*
X3728000Y3349000D01*
X3708000Y3329000D01*
X3688000Y3349000D01*
X4705000Y3315000D02*
X4725000Y3335000D01*
X4745000Y3315000D01*
X4725000Y3295000D01*
X4705000Y3315000D01*
X4550000Y1063000D02*
X4570000Y1083000D01*
X4590000Y1063000D01*
X4570000Y1043000D01*
X4550000Y1063000D01*
X4249000Y1225000D02*
X4269000Y1245000D01*
X4289000Y1225000D01*
X4269000Y1205000D01*
X4249000Y1225000D01*
X2024000Y3868000D02*
X2044000Y3888000D01*
X2064000Y3868000D01*
X2044000Y3848000D01*
X2024000Y3868000D01*
X3999000Y1608000D02*
X4019000Y1628000D01*
X4039000Y1608000D01*
X4019000Y1588000D01*
X3999000Y1608000D01*
Y1262000D02*
X4019000Y1282000D01*
X4039000Y1262000D01*
X4019000Y1242000D01*
X3999000Y1262000D01*
X3912000Y1274000D02*
X3932000Y1294000D01*
X3952000Y1274000D01*
X3932000Y1254000D01*
X3912000Y1274000D01*
X2811000Y4077000D02*
X2831000Y4097000D01*
X2851000Y4077000D01*
X2831000Y4057000D01*
X2811000Y4077000D01*
X2435000Y4046000D02*
X2455000Y4066000D01*
X2475000Y4046000D01*
X2455000Y4026000D01*
X2435000Y4046000D01*
X2225000Y3852000D02*
X2245000Y3872000D01*
X2265000Y3852000D01*
X2245000Y3832000D01*
X2225000Y3852000D01*
X4194000Y3607000D02*
X4214000Y3627000D01*
X4234000Y3607000D01*
X4214000Y3587000D01*
X4194000Y3607000D01*
X4265000Y3819000D02*
X4285000Y3839000D01*
X4305000Y3819000D01*
X4285000Y3799000D01*
X4265000Y3819000D01*
X4175000Y3764000D02*
X4195000Y3784000D01*
X4215000Y3764000D01*
X4195000Y3744000D01*
X4175000Y3764000D01*
X4412000Y3403000D02*
X4432000Y3423000D01*
X4452000Y3403000D01*
X4432000Y3383000D01*
X4412000Y3403000D01*
X4583000Y2775000D02*
X4603000Y2795000D01*
X4623000Y2775000D01*
X4603000Y2755000D01*
X4583000Y2775000D01*
X4472000Y3008000D02*
X4492000Y3028000D01*
X4512000Y3008000D01*
X4492000Y2988000D01*
X4472000Y3008000D01*
X4492000Y2924000D02*
X4512000Y2944000D01*
X4532000Y2924000D01*
X4512000Y2904000D01*
X4492000Y2924000D01*
X4551000Y2901000D02*
X4571000Y2921000D01*
X4591000Y2901000D01*
X4571000Y2881000D01*
X4551000Y2901000D01*
X4543000Y3108000D02*
X4563000Y3128000D01*
X4583000Y3108000D01*
X4563000Y3088000D01*
X4543000Y3108000D01*
X3401000Y2876636D02*
X3421000Y2896636D01*
X3441000Y2876636D01*
X3421000Y2856636D01*
X3401000Y2876636D01*
X4838000Y2966000D02*
X4858000Y2986000D01*
X4878000Y2966000D01*
X4858000Y2946000D01*
X4838000Y2966000D01*
X3839000Y1320000D02*
X3859000Y1340000D01*
X3879000Y1320000D01*
X3859000Y1300000D01*
X3839000Y1320000D01*
X4630000Y3063000D02*
X4650000Y3083000D01*
X4670000Y3063000D01*
X4650000Y3043000D01*
X4630000Y3063000D01*
X4761000Y2863000D02*
X4781000Y2883000D01*
X4801000Y2863000D01*
X4781000Y2843000D01*
X4761000Y2863000D01*
X3452000Y1303000D02*
X3472000Y1323000D01*
X3492000Y1303000D01*
X3472000Y1283000D01*
X3452000Y1303000D01*
X4684000Y3167000D02*
X4704000Y3187000D01*
X4724000Y3167000D01*
X4704000Y3147000D01*
X4684000Y3167000D01*
X3088000Y1298000D02*
X3108000Y1318000D01*
X3128000Y1298000D01*
X3108000Y1278000D01*
X3088000Y1298000D01*
X2719000Y1300000D02*
X2739000Y1320000D01*
X2759000Y1300000D01*
X2739000Y1280000D01*
X2719000Y1300000D01*
X2023000Y3727000D02*
X2043000Y3747000D01*
X2063000Y3727000D01*
X2043000Y3707000D01*
X2023000Y3727000D01*
X1858000Y3724000D02*
X1878000Y3744000D01*
X1898000Y3724000D01*
X1878000Y3704000D01*
X1858000Y3724000D01*
X2288000Y3343000D02*
X2308000Y3363000D01*
X2328000Y3343000D01*
X2308000Y3323000D01*
X2288000Y3343000D01*
X2250000Y3389000D02*
X2270000Y3409000D01*
X2290000Y3389000D01*
X2270000Y3369000D01*
X2250000Y3389000D01*
X2288000Y2926000D02*
X2308000Y2946000D01*
X2328000Y2926000D01*
X2308000Y2906000D01*
X2288000Y2926000D01*
X2294000Y2878000D02*
X2314000Y2898000D01*
X2334000Y2878000D01*
X2314000Y2858000D01*
X2294000Y2878000D01*
X3772264Y1321151D02*
X3792264Y1341151D01*
X3812264Y1321151D01*
X3792264Y1301151D01*
X3772264Y1321151D01*
X3404843D02*
X3424843Y1341151D01*
X3444843Y1321151D01*
X3424843Y1301151D01*
X3404843Y1321151D01*
X3037421D02*
X3057421Y1341151D01*
X3077421Y1321151D01*
X3057421Y1301151D01*
X3037421Y1321151D01*
X2670000D02*
X2690000Y1341151D01*
X2710000Y1321151D01*
X2690000Y1301151D01*
X2670000Y1321151D01*
X1840000Y2350000D02*
X1860000Y2370000D01*
X1880000Y2350000D01*
X1860000Y2330000D01*
X1840000Y2350000D01*
X4343000Y2448000D02*
X4363000Y2468000D01*
X4383000Y2448000D01*
X4363000Y2428000D01*
X4343000Y2448000D01*
X4385000Y2349000D02*
X4405000Y2369000D01*
X4425000Y2349000D01*
X4405000Y2329000D01*
X4385000Y2349000D01*
X1370800Y3524000D02*
X1390800Y3544000D01*
X1410800Y3524000D01*
X1390800Y3504000D01*
X1370800Y3524000D01*
X1114000Y3557000D02*
X1134000Y3577000D01*
X1154000Y3557000D01*
X1134000Y3537000D01*
X1114000Y3557000D01*
X1175000Y3480000D02*
X1195000Y3500000D01*
X1215000Y3480000D01*
X1195000Y3460000D01*
X1175000Y3480000D01*
X1102000Y2760000D02*
X1122000Y2780000D01*
X1142000Y2760000D01*
X1122000Y2740000D01*
X1102000Y2760000D01*
X1162000Y2759000D02*
X1182000Y2779000D01*
X1202000Y2759000D01*
X1182000Y2739000D01*
X1162000Y2759000D01*
X1112000Y2514000D02*
X1132000Y2534000D01*
X1152000Y2514000D01*
X1132000Y2494000D01*
X1112000Y2514000D01*
X2288477Y1280701D02*
X2308477Y1300701D01*
X2328477Y1280701D01*
X2308477Y1260701D01*
X2288477Y1280701D01*
X2154205Y3039000D02*
X2174205Y3059000D01*
X2194205Y3039000D01*
X2174205Y3019000D01*
X2154205Y3039000D01*
X2201000Y3012000D02*
X2221000Y3032000D01*
X2241000Y3012000D01*
X2221000Y2992000D01*
X2201000Y3012000D01*
X2304000Y3553000D02*
X2324000Y3573000D01*
X2344000Y3553000D01*
X2324000Y3533000D01*
X2304000Y3553000D01*
X1815000Y1714000D02*
X1835000Y1734000D01*
X1855000Y1714000D01*
X1835000Y1694000D01*
X1815000Y1714000D01*
X1394000Y2464000D02*
X1414000Y2484000D01*
X1434000Y2464000D01*
X1414000Y2444000D01*
X1394000Y2464000D01*
X61000Y2590000D02*
X81000Y2610000D01*
X101000Y2590000D01*
X81000Y2570000D01*
X61000Y2590000D01*
X2302000Y3624000D02*
X2322000Y3644000D01*
X2342000Y3624000D01*
X2322000Y3604000D01*
X2302000Y3624000D01*
X1254000Y3492000D02*
X1274000Y3512000D01*
X1294000Y3492000D01*
X1274000Y3472000D01*
X1254000Y3492000D01*
X2122000Y3067000D02*
X2142000Y3087000D01*
X2162000Y3067000D01*
X2142000Y3047000D01*
X2122000Y3067000D01*
X2086000Y3097000D02*
X2106000Y3117000D01*
X2126000Y3097000D01*
X2106000Y3077000D01*
X2086000Y3097000D01*
X2050000Y3131000D02*
X2070000Y3151000D01*
X2090000Y3131000D01*
X2070000Y3111000D01*
X2050000Y3131000D01*
X2014000Y3165000D02*
X2034000Y3185000D01*
X2054000Y3165000D01*
X2034000Y3145000D01*
X2014000Y3165000D01*
X1979000Y3195000D02*
X1999000Y3215000D01*
X2019000Y3195000D01*
X1999000Y3175000D01*
X1979000Y3195000D01*
X1811000Y3824000D02*
X1831000Y3844000D01*
X1851000Y3824000D01*
X1831000Y3804000D01*
X1811000Y3824000D01*
X2250000Y3500000D02*
X2270000Y3520000D01*
X2290000Y3500000D01*
X2270000Y3480000D01*
X2250000Y3500000D01*
X1279755Y2603000D02*
X1299755Y2623000D01*
X1319755Y2603000D01*
X1299755Y2583000D01*
X1279755Y2603000D01*
X1795000Y2798000D02*
X1815000Y2818000D01*
X1835000Y2798000D01*
X1815000Y2778000D01*
X1795000Y2798000D01*
X2169000Y3501000D02*
X2189000Y3521000D01*
X2209000Y3501000D01*
X2189000Y3481000D01*
X2169000Y3501000D01*
X1285000Y2726000D02*
X1305000Y2746000D01*
X1325000Y2726000D01*
X1305000Y2706000D01*
X1285000Y2726000D01*
X120000Y2772000D02*
X140000Y2792000D01*
X160000Y2772000D01*
X140000Y2752000D01*
X120000Y2772000D01*
X55000Y3023000D02*
X75000Y3043000D01*
X95000Y3023000D01*
X75000Y3003000D01*
X55000Y3023000D01*
X1642000Y3712000D02*
X1662000Y3732000D01*
X1682000Y3712000D01*
X1662000Y3692000D01*
X1642000Y3712000D01*
X1546000Y3810000D02*
X1566000Y3830000D01*
X1586000Y3810000D01*
X1566000Y3790000D01*
X1546000Y3810000D01*
X1106000Y2594000D02*
X1126000Y2614000D01*
X1146000Y2594000D01*
X1126000Y2574000D01*
X1106000Y2594000D01*
X1924000Y3883000D02*
X1944000Y3903000D01*
X1964000Y3883000D01*
X1944000Y3863000D01*
X1924000Y3883000D01*
X1444000Y3755000D02*
X1464000Y3775000D01*
X1484000Y3755000D01*
X1464000Y3735000D01*
X1444000Y3755000D01*
X1746000Y3656000D02*
X1766000Y3676000D01*
X1786000Y3656000D01*
X1766000Y3636000D01*
X1746000Y3656000D01*
X1314000Y3497000D02*
X1334000Y3517000D01*
X1354000Y3497000D01*
X1334000Y3477000D01*
X1314000Y3497000D01*
X1210000Y2402000D02*
X1230000Y2422000D01*
X1250000Y2402000D01*
X1230000Y2382000D01*
X1210000Y2402000D01*
X1254000Y2359000D02*
X1274000Y2379000D01*
X1294000Y2359000D01*
X1274000Y2339000D01*
X1254000Y2359000D01*
X1242000Y3645000D02*
X1262000Y3665000D01*
X1282000Y3645000D01*
X1262000Y3625000D01*
X1242000Y3645000D01*
X1270000Y2786000D02*
X1290000Y2806000D01*
X1310000Y2786000D01*
X1290000Y2766000D01*
X1270000Y2786000D01*
X1210000Y2665000D02*
X1230000Y2685000D01*
X1250000Y2665000D01*
X1230000Y2645000D01*
X1210000Y2665000D01*
X1235000Y1875000D02*
X1255000Y1895000D01*
X1275000Y1875000D01*
X1255000Y1855000D01*
X1235000Y1875000D01*
X1236000Y1971000D02*
X1256000Y1991000D01*
X1276000Y1971000D01*
X1256000Y1951000D01*
X1236000Y1971000D01*
X958000Y2361000D02*
X978000Y2381000D01*
X998000Y2361000D01*
X978000Y2341000D01*
X958000Y2361000D01*
X4164000Y2032000D02*
X4184000Y2052000D01*
X4204000Y2032000D01*
X4184000Y2012000D01*
X4164000Y2032000D01*
X4003000Y2326000D02*
Y2366000D01*
X4043000D01*
Y2326000D01*
X4003000D01*
X4011000Y2334000D02*
Y2358000D01*
X4035000D01*
Y2334000D01*
X4011000D01*
X1713000Y694000D02*
Y734000D01*
X1753000D01*
Y694000D01*
X1713000D01*
X1721000Y702000D02*
Y726000D01*
X1745000D01*
Y702000D01*
X1721000D01*
D147*
X2555000Y4033000D02*
G03*
X2555000Y4033000I-20000J0D01*
G01*
X2705000D02*
G03*
X2705000Y4033000I-20000J0D01*
G01*
X98500Y2746500D02*
G03*
X98500Y2746500I-20000J0D01*
G01*
D148*
X90500D02*
G03*
X90500Y2746500I-12000J0D01*
G01*
%TF.MD5,abed15886caff7f79ce3aa856148f809*%
M02*
