%TF.GenerationSoftware,Altium Limited,Altium Designer,19.1.8 (144)*%
G04 Layer_Color=16711935*
%FSLAX26Y26*%
%MOIN*%
%TF.FileFunction,Other,Mechanical_13*%
%TF.Part,Single*%
G01*
G75*
%TA.AperFunction,NonConductor*%
%ADD69C,0.003937*%
D69*
X4374370Y3469197D02*
G03*
X4374370Y3469197I-19685J0D01*
G01*
X2627766Y1683409D02*
G03*
X2627766Y1683409I-19685J0D01*
G01*
X2995188D02*
G03*
X2995188Y1683409I-19685J0D01*
G01*
X3362609D02*
G03*
X3362609Y1683409I-19685J0D01*
G01*
X3730030D02*
G03*
X3730030Y1683409I-19685J0D01*
G01*
X1486299Y2315591D02*
G03*
X1486299Y2315591I-19685J0D01*
G01*
X3517409Y2371284D02*
G03*
X3517409Y2371284I-19685J0D01*
G01*
X3129744Y2365391D02*
G03*
X3129744Y2365391I-19685J0D01*
G01*
X2763095Y2360591D02*
G03*
X2763095Y2360591I-19685J0D01*
G01*
X2395673Y2361061D02*
G03*
X2395673Y2361061I-19685J0D01*
G01*
X1987736Y2315591D02*
G03*
X1987736Y2315591I-19685J0D01*
G01*
X2931890Y3724055D02*
G03*
X2931890Y3724055I-19685J0D01*
G01*
X3167102Y3025693D02*
G03*
X3167102Y3025693I-19685J0D01*
G01*
X3906512Y3261472D02*
G03*
X3906512Y3261472I-19685J0D01*
G01*
X1892022Y544307D02*
G03*
X1892022Y544307I-19685J0D01*
G01*
X4127112Y2758828D02*
G03*
X4127112Y2758828I-19685J0D01*
G01*
X1091992Y3972992D02*
G03*
X1091992Y3972992I-19685J0D01*
G01*
X1942094Y3614590D02*
G03*
X1942094Y3614590I-19685J0D01*
G01*
X1821102Y3206045D02*
G03*
X1821102Y3206045I-19685J0D01*
G01*
X1734799Y1749709D02*
G03*
X1734799Y1749709I-19685J0D01*
G01*
X2232276Y1748409D02*
G03*
X2232276Y1748409I-19685J0D01*
G01*
X4251827Y1152900D02*
G03*
X4251827Y1152900I-19685J0D01*
G01*
X4802858Y2050528D02*
G03*
X4802858Y2050528I-19685J0D01*
G01*
X3581101Y3552251D02*
Y3621149D01*
X3543699Y3552251D02*
Y3621149D01*
Y3552251D02*
X3581101D01*
X3543699Y3621149D02*
X3581101D01*
X3892299Y2711149D02*
X3929701D01*
X3892299Y2642251D02*
X3929701D01*
X3892299D02*
Y2711149D01*
X3929701Y2642251D02*
Y2711149D01*
X4011899Y2508851D02*
X4049301D01*
X4011899Y2577749D02*
X4049301D01*
Y2508851D02*
Y2577749D01*
X4011899Y2508851D02*
Y2577749D01*
X3926299Y2507751D02*
X3963701D01*
X3926299Y2576649D02*
X3963701D01*
Y2507751D02*
Y2576649D01*
X3926299Y2507751D02*
Y2576649D01*
X3890999Y2853649D02*
X3928401D01*
X3890999Y2784751D02*
X3928401D01*
X3890999D02*
Y2853649D01*
X3928401Y2784751D02*
Y2853649D01*
X4894749Y2376499D02*
Y2413901D01*
X4825851Y2376499D02*
Y2413901D01*
X4894749D01*
X4825851Y2376499D02*
X4894749D01*
Y2275799D02*
Y2313201D01*
X4825851Y2275799D02*
Y2313201D01*
X4894749D01*
X4825851Y2275799D02*
X4894749D01*
Y2177099D02*
Y2214501D01*
X4825851Y2177099D02*
Y2214501D01*
X4894749D01*
X4825851Y2177099D02*
X4894749D01*
Y2075699D02*
Y2113101D01*
X4825851Y2075699D02*
Y2113101D01*
X4894749D01*
X4825851Y2075699D02*
X4894749D01*
X4196299Y2652951D02*
X4233701D01*
X4196299Y2721849D02*
X4233701D01*
X4196299Y2652951D02*
Y2721849D01*
X4233701Y2652951D02*
Y2721849D01*
X4101033Y2652951D02*
X4138434D01*
X4101033Y2721849D02*
X4138434D01*
X4101033Y2652951D02*
Y2721849D01*
X4138434Y2652951D02*
Y2721849D01*
X4005766Y2652951D02*
X4043167D01*
X4005766Y2721849D02*
X4043167D01*
X4005766Y2652951D02*
Y2721849D01*
X4043167Y2652951D02*
Y2721849D01*
X3910499Y2652951D02*
X3947901D01*
X3910499Y2721849D02*
X3947901D01*
X3910499Y2652951D02*
Y2721849D01*
X3947901Y2652951D02*
Y2721849D01*
X3080299Y3116851D02*
X3117701D01*
X3080299Y3185749D02*
X3117701D01*
X3080299Y3116851D02*
Y3185749D01*
X3117701Y3116851D02*
Y3185749D01*
X2996099Y3116851D02*
X3033501D01*
X2996099Y3185749D02*
X3033501D01*
X2996099Y3116851D02*
Y3185749D01*
X3033501Y3116851D02*
Y3185749D01*
X2912499Y3116851D02*
X2949901D01*
X2912499Y3185749D02*
X2949901D01*
X2912499Y3116851D02*
Y3185749D01*
X2949901Y3116851D02*
Y3185749D01*
X2790099Y3171951D02*
X2827501D01*
X2790099Y3240849D02*
X2827501D01*
X2790099Y3171951D02*
Y3240849D01*
X2827501Y3171951D02*
Y3240849D01*
X701409Y3859520D02*
X752591D01*
X701409Y3974480D02*
X752591D01*
X701409Y3859520D02*
Y3974480D01*
X752591Y3859520D02*
Y3974480D01*
X3976732Y3433764D02*
Y3654236D01*
X4390118Y3433764D02*
Y3654236D01*
X3976732D02*
X4390118D01*
X3976732Y3433764D02*
X4390118D01*
X2259441Y4075843D02*
X2314559D01*
X2259441Y3956157D02*
X2314559D01*
Y4075843D01*
X2259441Y3956157D02*
Y4075843D01*
X3060699Y3610649D02*
X3098101D01*
X3060699Y3541751D02*
X3098101D01*
X3060699D02*
Y3610649D01*
X3098101Y3541751D02*
Y3610649D01*
X2571716Y2561693D02*
Y2648307D01*
X2624866Y2561693D02*
Y2648307D01*
X2571716D02*
X2624866D01*
X2571716Y2561693D02*
X2624866D01*
X2260425Y2719693D02*
Y2806307D01*
X2313575Y2719693D02*
Y2806307D01*
X2260425D02*
X2313575D01*
X2260425Y2719693D02*
X2313575D01*
X3868387Y1837305D02*
X4029804D01*
X3868387Y2034155D02*
X4029804D01*
X3868387Y1837305D02*
Y2034155D01*
X4029804Y1837305D02*
Y2034155D01*
X3792937Y2075858D02*
X4035063D01*
X3792937Y2258142D02*
X4035063D01*
X3792937Y2075858D02*
Y2258142D01*
X4035063Y2075858D02*
Y2258142D01*
X4269541Y2163423D02*
Y2250037D01*
X4216391Y2163423D02*
Y2250037D01*
Y2163423D02*
X4269541D01*
X4216391Y2250037D02*
X4269541D01*
X4280586Y1978216D02*
Y2088453D01*
X4205783Y1978216D02*
Y2088453D01*
Y1978216D02*
X4280586D01*
X4205783Y2088453D02*
X4280586D01*
X261010Y2796811D02*
Y2851929D01*
X141325Y2796811D02*
Y2851929D01*
Y2796811D02*
X261010D01*
X141325Y2851929D02*
X261010D01*
X260842Y2633258D02*
Y2688376D01*
X141157Y2633258D02*
Y2688376D01*
Y2633258D02*
X260842D01*
X141157Y2688376D02*
X260842D01*
X57132Y2639551D02*
X94533D01*
X57132Y2708449D02*
X94533D01*
Y2639551D02*
Y2708449D01*
X57132Y2639551D02*
Y2708449D01*
X295299Y2855551D02*
X332701D01*
X295299Y2924449D02*
X332701D01*
Y2855551D02*
Y2924449D01*
X295299Y2855551D02*
Y2924449D01*
X294299Y2717551D02*
X331701D01*
X294299Y2786449D02*
X331701D01*
Y2717551D02*
Y2786449D01*
X294299Y2717551D02*
Y2786449D01*
X811799Y3893949D02*
X849201D01*
X811799Y3825051D02*
X849201D01*
X811799D02*
Y3893949D01*
X849201Y3825051D02*
Y3893949D01*
X886799Y3698218D02*
Y3767116D01*
X924201Y3698218D02*
Y3767116D01*
X886799D02*
X924201D01*
X886799Y3698218D02*
X924201D01*
X2521467Y1647976D02*
X2643515D01*
X2521467Y1770024D02*
X2643515D01*
Y1647976D02*
Y1770024D01*
X2521467Y1647976D02*
Y1770024D01*
X2888889Y1647976D02*
X3010936D01*
X2888889Y1770024D02*
X3010936D01*
Y1647976D02*
Y1770024D01*
X2888889Y1647976D02*
Y1770024D01*
X3256310Y1647976D02*
X3378357D01*
X3256310Y1770024D02*
X3378357D01*
Y1647976D02*
Y1770024D01*
X3256310Y1647976D02*
Y1770024D01*
X3623731Y1647976D02*
X3745779D01*
X3623731Y1770024D02*
X3745779D01*
Y1647976D02*
Y1770024D01*
X3623731Y1647976D02*
Y1770024D01*
X1636124Y1621536D02*
X1676676D01*
X1636124Y1601064D02*
X1676676D01*
Y1621536D01*
X1636124Y1601064D02*
Y1621536D01*
X2136724Y1614236D02*
X2177276D01*
X2136724Y1593764D02*
X2177276D01*
Y1614236D01*
X2136724Y1593764D02*
Y1614236D01*
X2526724Y1535764D02*
Y1556236D01*
X2567276Y1535764D02*
Y1556236D01*
X2526724Y1535764D02*
X2567276D01*
X2526724Y1556236D02*
X2567276D01*
X2897724Y1539764D02*
Y1560236D01*
X2938276Y1539764D02*
Y1560236D01*
X2897724Y1539764D02*
X2938276D01*
X2897724Y1560236D02*
X2938276D01*
X3268969Y1541901D02*
Y1562373D01*
X3309520Y1541901D02*
Y1562373D01*
X3268969Y1541901D02*
X3309520D01*
X3268969Y1562373D02*
X3309520D01*
X3634361Y1541753D02*
Y1562225D01*
X3674912Y1541753D02*
Y1562225D01*
X3634361Y1541753D02*
X3674912D01*
X3634361Y1562225D02*
X3674912D01*
X1504724Y2444764D02*
X1545276D01*
X1504724Y2465236D02*
X1545276D01*
X1504724Y2444764D02*
Y2465236D01*
X1545276Y2444764D02*
Y2465236D01*
X1553228Y2228976D02*
Y2351024D01*
X1431181Y2228976D02*
Y2351024D01*
Y2228976D02*
X1553228D01*
X1431181Y2351024D02*
X1553228D01*
X2450276Y2482882D02*
Y2503354D01*
X2409724Y2482882D02*
Y2503354D01*
X2450276D01*
X2409724Y2482882D02*
X2450276D01*
X3566276Y2483518D02*
Y2503990D01*
X3525724Y2483518D02*
Y2503990D01*
X3566276D01*
X3525724Y2483518D02*
X3566276D01*
X3462291Y2406717D02*
X3584338D01*
X3462291Y2284670D02*
X3584338D01*
X3462291D02*
Y2406717D01*
X3584338Y2284670D02*
Y2406717D01*
X3186176Y2481664D02*
Y2502136D01*
X3145624Y2481664D02*
Y2502136D01*
X3186176D01*
X3145624Y2481664D02*
X3186176D01*
X3074626Y2400824D02*
X3196673D01*
X3074626Y2278776D02*
X3196673D01*
X3074626D02*
Y2400824D01*
X3196673Y2278776D02*
Y2400824D01*
X2822276Y2482411D02*
Y2502884D01*
X2781724Y2482411D02*
Y2502884D01*
X2822276D01*
X2781724Y2482411D02*
X2822276D01*
X2707976Y2396024D02*
X2830024D01*
X2707976Y2273976D02*
X2830024D01*
X2707976D02*
Y2396024D01*
X2830024Y2273976D02*
Y2396024D01*
X2340555Y2396494D02*
X2462602D01*
X2340555Y2274447D02*
X2462602D01*
X2340555D02*
Y2396494D01*
X2462602Y2274447D02*
Y2396494D01*
X2054666Y2228976D02*
Y2351024D01*
X1932618Y2228976D02*
Y2351024D01*
Y2228976D02*
X2054666D01*
X1932618Y2351024D02*
X2054666D01*
X2006162Y2444764D02*
X2046713D01*
X2006162Y2465236D02*
X2046713D01*
X2006162Y2444764D02*
Y2465236D01*
X2046713Y2444764D02*
Y2465236D01*
X2876772Y3365787D02*
X3270472D01*
X2876772Y3759488D02*
X3270472D01*
Y3365787D02*
Y3759488D01*
X2876772Y3365787D02*
Y3759488D01*
X4291699Y1582149D02*
X4329101D01*
X4291699Y1513251D02*
X4329101D01*
Y1582149D01*
X4291699Y1513251D02*
Y1582149D01*
X4207882Y836198D02*
Y911002D01*
X4318118Y836198D02*
Y911002D01*
X4207882D02*
X4318118D01*
X4207882Y836198D02*
X4318118D01*
X4246307Y1338782D02*
Y1391931D01*
X4159693Y1338782D02*
Y1391931D01*
Y1338782D02*
X4246307D01*
X4159693Y1391931D02*
X4246307D01*
X2865041Y1624285D02*
X2967403D01*
X2865041Y1825073D02*
X2967403D01*
X2865041Y1624285D02*
Y1825073D01*
X2967403Y1624285D02*
Y1825073D01*
X3232462Y1624285D02*
X3334824D01*
X3232462Y1825073D02*
X3334824D01*
X3232462Y1624285D02*
Y1825073D01*
X3334824Y1624285D02*
Y1825073D01*
X3702246Y1624285D02*
Y1825073D01*
X3599883Y1624285D02*
Y1825073D01*
X3702246D01*
X3599883Y1624285D02*
X3702246D01*
X2108181Y1624286D02*
Y1825073D01*
X2005819Y1624286D02*
Y1825073D01*
X2108181D01*
X2005819Y1624286D02*
X2108181D01*
X1610705Y1625585D02*
Y1826372D01*
X1508342Y1625585D02*
Y1826372D01*
X1610705D01*
X1508342Y1625585D02*
X1610705D01*
X1508819Y2238927D02*
Y2439714D01*
X1611181Y2238927D02*
Y2439714D01*
X1508819Y2238927D02*
X1611181D01*
X1508819Y2439714D02*
X1611181D01*
X2010256Y2238927D02*
Y2439714D01*
X2112618Y2238927D02*
Y2439714D01*
X2010256Y2238927D02*
X2112618D01*
X2010256Y2439714D02*
X2112618D01*
X3506096Y2439394D02*
X3608458D01*
X3506096Y2238606D02*
X3608458D01*
Y2439394D01*
X3506096Y2238606D02*
Y2439394D01*
X3123055Y2238606D02*
Y2439394D01*
X3225417Y2238606D02*
Y2439394D01*
X3123055Y2238606D02*
X3225417D01*
X3123055Y2439394D02*
X3225417D01*
X2751419Y2238606D02*
Y2439394D01*
X2853781Y2238606D02*
Y2439394D01*
X2751419Y2238606D02*
X2853781D01*
X2751419Y2439394D02*
X2853781D01*
X2376719D02*
X2479081D01*
X2376719Y2238606D02*
X2479081D01*
Y2439394D01*
X2376719Y2238606D02*
Y2439394D01*
X3552639Y1245250D02*
X3749489D01*
X3552639Y1406667D02*
X3749489D01*
X3552639Y1245250D02*
Y1406667D01*
X3749489Y1245250D02*
Y1406667D01*
X3185218Y1245250D02*
X3382068D01*
X3185218Y1406667D02*
X3382068D01*
X3185218Y1245250D02*
Y1406667D01*
X3382068Y1245250D02*
Y1406667D01*
X2817796Y1245250D02*
X3014647D01*
X2817796Y1406667D02*
X3014647D01*
X2817796Y1245250D02*
Y1406667D01*
X3014647Y1245250D02*
Y1406667D01*
X2450375Y1245250D02*
X2647225D01*
X2450375Y1406667D02*
X2647225D01*
X2450375Y1245250D02*
Y1406667D01*
X2647225Y1245250D02*
Y1406667D01*
X2082051Y1331480D02*
X2278902D01*
X2082051Y1492898D02*
X2278902D01*
X2082051Y1331480D02*
Y1492898D01*
X2278902Y1331480D02*
Y1492898D01*
X1833656Y1332780D02*
X2030506D01*
X1833656Y1494197D02*
X2030506D01*
X1833656Y1332780D02*
Y1494197D01*
X2030506Y1332780D02*
Y1494197D01*
X1584575Y1332780D02*
X1781425D01*
X1584575Y1494197D02*
X1781425D01*
X1584575Y1332780D02*
Y1494197D01*
X1781425Y1332780D02*
Y1494197D01*
X1336179Y1334079D02*
X1533029D01*
X1336179Y1495496D02*
X1533029D01*
X1336179Y1334079D02*
Y1495496D01*
X1533029Y1334079D02*
Y1495496D01*
X1338098Y2732520D02*
X1534949D01*
X1338098Y2571102D02*
X1534949D01*
Y2732520D01*
X1338098Y2571102D02*
Y2732520D01*
X1586494Y2731220D02*
X1783344D01*
X1586494Y2569803D02*
X1783344D01*
Y2731220D01*
X1586494Y2569803D02*
Y2731220D01*
X1839535Y2732520D02*
X2036386D01*
X1839535Y2571102D02*
X2036386D01*
Y2732520D01*
X1839535Y2571102D02*
Y2732520D01*
X2087931Y2731220D02*
X2284782D01*
X2087931Y2569803D02*
X2284782D01*
Y2731220D01*
X2087931Y2569803D02*
Y2731220D01*
X2336844Y2799220D02*
X2533695D01*
X2336844Y2637803D02*
X2533695D01*
Y2799220D01*
X2336844Y2637803D02*
Y2799220D01*
X2704575Y2805820D02*
X2901425D01*
X2704575Y2644402D02*
X2901425D01*
Y2805820D01*
X2704575Y2644402D02*
Y2805820D01*
X3071687Y2798644D02*
X3268537D01*
X3071687Y2637227D02*
X3268537D01*
Y2798644D01*
X3071687Y2637227D02*
Y2798644D01*
X3458651Y2799856D02*
X3655502D01*
X3458651Y2638439D02*
X3655502D01*
Y2799856D01*
X3458651Y2638439D02*
Y2799856D01*
X4369486Y3426425D02*
Y3479575D01*
X4282872Y3426425D02*
Y3479575D01*
Y3426425D02*
X4369486D01*
X4282872Y3479575D02*
X4369486D01*
X4505307Y3626425D02*
Y3679575D01*
X4418693Y3626425D02*
Y3679575D01*
Y3626425D02*
X4505307D01*
X4418693Y3679575D02*
X4505307D01*
X4383976Y3529299D02*
Y3566701D01*
X4452874Y3529299D02*
Y3566701D01*
X4383976D02*
X4452874D01*
X4383976Y3529299D02*
X4452874D01*
X4322874Y3545299D02*
Y3582701D01*
X4253976Y3545299D02*
Y3582701D01*
Y3545299D02*
X4322874D01*
X4253976Y3582701D02*
X4322874D01*
X3863189Y3958858D02*
Y4191142D01*
X4178150Y3958858D02*
Y4191142D01*
X3863189Y3958858D02*
X4178150D01*
X3863189Y4191142D02*
X4178150D01*
X3547913Y4103283D02*
X3616811D01*
X3547913Y4140685D02*
X3616811D01*
Y4103283D02*
Y4140685D01*
X3547913Y4103283D02*
Y4140685D01*
X3706063Y3982535D02*
Y4051433D01*
X3668662Y3982535D02*
Y4051433D01*
X3706063D01*
X3668662Y3982535D02*
X3706063D01*
X3588662Y3982535D02*
X3626063D01*
X3588662Y4051433D02*
X3626063D01*
X3588662Y3982535D02*
Y4051433D01*
X3626063Y3982535D02*
Y4051433D01*
X2735000Y3965480D02*
Y4100520D01*
X2485000Y3965480D02*
X2735000D01*
X2485000Y4100520D02*
X2735000D01*
X2485000Y3965480D02*
Y4100520D01*
X4053118Y3603893D02*
Y3657043D01*
X4139732Y3603893D02*
Y3657043D01*
X4053118D02*
X4139732D01*
X4053118Y3603893D02*
X4139732D01*
X2599982Y1624285D02*
Y1825073D01*
X2497619Y1624285D02*
Y1825073D01*
X2599982D01*
X2497619Y1624285D02*
X2599982D01*
X3494307Y3156425D02*
Y3209575D01*
X3407693Y3156425D02*
Y3209575D01*
X3494307D01*
X3407693Y3156425D02*
X3494307D01*
X3479693Y3244425D02*
Y3297575D01*
X3566307Y3244425D02*
Y3297575D01*
X3479693Y3244425D02*
X3566307D01*
X3479693Y3297575D02*
X3566307D01*
X4330693Y1284425D02*
Y1337575D01*
X4417307Y1284425D02*
Y1337575D01*
X4330693Y1284425D02*
X4417307D01*
X4330693Y1337575D02*
X4417307D01*
X2645488Y3477951D02*
X2682890D01*
X2645488Y3546849D02*
X2682890D01*
Y3477951D02*
Y3546849D01*
X2645488Y3477951D02*
Y3546849D01*
X2789150Y2990260D02*
X3182850D01*
X2789150Y3147740D02*
X3182850D01*
Y2990260D02*
Y3147740D01*
X2789150Y2990260D02*
Y3147740D01*
X3851394Y2785095D02*
X4150606D01*
X3851394Y3296905D02*
X4150606D01*
Y2785095D02*
Y3296905D01*
X3851394Y2785095D02*
Y3296905D01*
X984685Y2768362D02*
Y2888441D01*
X1053583Y2768362D02*
Y2888441D01*
X984685Y2768362D02*
X1053583D01*
X984685Y2888441D02*
X1053583D01*
X876250Y2855551D02*
Y2924449D01*
X913652Y2855551D02*
Y2924449D01*
X876250D02*
X913652D01*
X876250Y2855551D02*
X913652D01*
X971693Y2922073D02*
Y2975222D01*
X1058307Y2922073D02*
Y2975222D01*
X971693Y2922073D02*
X1058307D01*
X971693Y2975222D02*
X1058307D01*
X803299Y2662551D02*
Y2731449D01*
X840701Y2662551D02*
Y2731449D01*
X803299D02*
X840701D01*
X803299Y2662551D02*
X840701D01*
X1941770Y461693D02*
X1994920D01*
X1941770Y548307D02*
X1994920D01*
X1941770Y461693D02*
Y548307D01*
X1994920Y461693D02*
Y548307D01*
X1710920Y579740D02*
X1907770D01*
X1710920Y422260D02*
X1907770D01*
Y579740D01*
X1710920Y422260D02*
Y579740D01*
X4071994Y2723394D02*
Y3235206D01*
X4371206Y2723394D02*
Y3235206D01*
X4071994Y2723394D02*
X4371206D01*
X4071994Y3235206D02*
X4371206D01*
X1245299Y3944449D02*
X1282701D01*
X1245299Y3875551D02*
X1282701D01*
X1245299D02*
Y3944449D01*
X1282701Y3875551D02*
Y3944449D01*
X848701Y3943551D02*
Y4012449D01*
X811299Y3943551D02*
Y4012449D01*
Y3943551D02*
X848701D01*
X811299Y4012449D02*
X848701D01*
X979551Y4050128D02*
X1048449D01*
X979551Y4087530D02*
X1048449D01*
X979551Y4050128D02*
Y4087530D01*
X1048449Y4050128D02*
Y4087530D01*
X1107740Y3811575D02*
Y4008425D01*
X950260Y3811575D02*
Y4008425D01*
X1107740D01*
X950260Y3811575D02*
X1107740D01*
X4129609Y2232423D02*
X4182759D01*
X4129609Y2319037D02*
X4182759D01*
Y2232423D02*
Y2319037D01*
X4129609Y2232423D02*
Y2319037D01*
X141325Y3123968D02*
X261010D01*
X141325Y3068850D02*
X261010D01*
X141325D02*
Y3123968D01*
X261010Y3068850D02*
Y3123968D01*
X330701Y3030551D02*
Y3099449D01*
X293299Y3030551D02*
Y3099449D01*
Y3030551D02*
X330701D01*
X293299Y3099449D02*
X330701D01*
X94701Y2799551D02*
Y2868449D01*
X57299Y2799551D02*
Y2868449D01*
Y2799551D02*
X94701D01*
X57299Y2868449D02*
X94701D01*
X95901Y3072051D02*
Y3140949D01*
X58499Y3072051D02*
Y3140949D01*
Y3072051D02*
X95901D01*
X58499Y3140949D02*
X95901D01*
X2009024Y3527976D02*
Y3650024D01*
X1886976Y3527976D02*
Y3650024D01*
Y3527976D02*
X2009024D01*
X1886976Y3650024D02*
X2009024D01*
X1443150Y3170612D02*
X1836850D01*
X1443150Y3328092D02*
X1836850D01*
Y3170612D02*
Y3328092D01*
X1443150Y3170612D02*
Y3328092D01*
X973559Y2570270D02*
Y2623419D01*
X1060173Y2570270D02*
Y2623419D01*
X973559Y2570270D02*
X1060173D01*
X973559Y2623419D02*
X1060173D01*
X876982Y3208748D02*
Y3277646D01*
X914384Y3208748D02*
Y3277646D01*
X876982D02*
X914384D01*
X876982Y3208748D02*
X914384D01*
X981093Y3273625D02*
Y3326775D01*
X1067707Y3273625D02*
Y3326775D01*
X981093Y3273625D02*
X1067707D01*
X981093Y3326775D02*
X1067707D01*
X810417Y3045299D02*
X879315D01*
X810417Y3082701D02*
X879315D01*
X810417Y3045299D02*
Y3082701D01*
X879315Y3045299D02*
Y3082701D01*
X987751Y2415561D02*
Y2535639D01*
X1056649Y2415561D02*
Y2535639D01*
X987751Y2415561D02*
X1056649D01*
X987751Y2535639D02*
X1056649D01*
X878116Y2503748D02*
Y2572646D01*
X915518Y2503748D02*
Y2572646D01*
X878116D02*
X915518D01*
X878116Y2503748D02*
X915518D01*
X811551Y2340299D02*
X880449D01*
X811551Y2377701D02*
X880449D01*
X811551Y2340299D02*
Y2377701D01*
X880449Y2340299D02*
Y2377701D01*
X985417Y3121559D02*
Y3241638D01*
X1054315Y3121559D02*
Y3241638D01*
X985417Y3121559D02*
X1054315D01*
X985417Y3241638D02*
X1054315D01*
X986551Y3455961D02*
Y3576039D01*
X1055449Y3455961D02*
Y3576039D01*
X986551Y3455961D02*
X1055449D01*
X986551Y3576039D02*
X1055449D01*
X878116Y3543149D02*
Y3612047D01*
X915518Y3543149D02*
Y3612047D01*
X878116D02*
X915518D01*
X878116Y3543149D02*
X915518D01*
X969493Y3607825D02*
Y3660975D01*
X1056107Y3607825D02*
Y3660975D01*
X969493Y3607825D02*
X1056107D01*
X969493Y3660975D02*
X1056107D01*
X815251Y3381399D02*
X884149D01*
X815251Y3418801D02*
X884149D01*
X815251Y3381399D02*
Y3418801D01*
X884149Y3381399D02*
Y3418801D01*
X2726625Y1482307D02*
X2779774D01*
X2726625Y1395693D02*
X2779774D01*
X2726625D02*
Y1482307D01*
X2779774Y1395693D02*
Y1482307D01*
X2668987Y1433331D02*
X2690640D01*
X2668987Y1474669D02*
X2690640D01*
Y1433331D02*
Y1474669D01*
X2668987Y1433331D02*
Y1474669D01*
X2660173Y2518354D02*
X2681827D01*
X2660173Y2559692D02*
X2681827D01*
Y2518354D02*
Y2559692D01*
X2660173Y2518354D02*
Y2559692D01*
X2939138Y2561587D02*
X2992287D01*
X2939138Y2648201D02*
X2992287D01*
Y2561587D02*
Y2648201D01*
X2939138Y2561587D02*
Y2648201D01*
X3026673Y2524331D02*
X3048327D01*
X3026673Y2565669D02*
X3048327D01*
Y2524331D02*
Y2565669D01*
X3026673Y2524331D02*
Y2565669D01*
X3828925Y1477907D02*
X3882075D01*
X3828925Y1391293D02*
X3882075D01*
X3828925D02*
Y1477907D01*
X3882075Y1391293D02*
Y1477907D01*
X3771251Y1433331D02*
X3792905D01*
X3771251Y1474669D02*
X3792905D01*
Y1433331D02*
Y1474669D01*
X3771251Y1433331D02*
Y1474669D01*
X2203927Y2958307D02*
X2257077D01*
X2203927Y2871693D02*
X2257077D01*
X2203927D02*
Y2958307D01*
X2257077Y2871693D02*
Y2958307D01*
X2144321Y2906968D02*
X2165975D01*
X2144321Y2948307D02*
X2165975D01*
Y2906968D02*
Y2948307D01*
X2144321Y2906968D02*
Y2948307D01*
X1702490Y2958307D02*
X1755640D01*
X1702490Y2871693D02*
X1755640D01*
X1702490D02*
Y2958307D01*
X1755640Y2871693D02*
Y2958307D01*
X1642884Y2906968D02*
X1664537D01*
X1642884Y2948307D02*
X1664537D01*
Y2906968D02*
Y2948307D01*
X1642884Y2906968D02*
Y2948307D01*
X2201360Y1130693D02*
X2254510D01*
X2201360Y1217307D02*
X2254510D01*
Y1130693D02*
Y1217307D01*
X2201360Y1130693D02*
Y1217307D01*
X2141173Y1179669D02*
X2162827D01*
X2141173Y1138331D02*
X2162827D01*
X2141173D02*
Y1179669D01*
X2162827Y1138331D02*
Y1179669D01*
X1703883Y1131992D02*
X1757033D01*
X1703883Y1218606D02*
X1757033D01*
Y1131992D02*
Y1218606D01*
X1703883Y1131992D02*
Y1218606D01*
X1643697Y1180969D02*
X1665350D01*
X1643697Y1139630D02*
X1665350D01*
X1643697D02*
Y1180969D01*
X1665350Y1139630D02*
Y1180969D01*
X3326102Y2562799D02*
X3379252D01*
X3326102Y2649413D02*
X3379252D01*
Y2562799D02*
Y2649413D01*
X3326102Y2562799D02*
Y2649413D01*
X3413868Y2523035D02*
X3435522D01*
X3413868Y2564374D02*
X3435522D01*
Y2523035D02*
Y2564374D01*
X3413868Y2523035D02*
Y2564374D01*
X2293429Y2569801D02*
X2315082D01*
X2293429Y2611140D02*
X2315082D01*
Y2569801D02*
Y2611140D01*
X2293429Y2569801D02*
Y2611140D01*
X3461468Y1482307D02*
X3514617D01*
X3461468Y1395693D02*
X3514617D01*
X3461468D02*
Y1482307D01*
X3514617Y1395693D02*
Y1482307D01*
X3403830Y1433331D02*
X3425483D01*
X3403830Y1474669D02*
X3425483D01*
Y1433331D02*
Y1474669D01*
X3403830Y1433331D02*
Y1474669D01*
X3036408Y1433331D02*
X3058062D01*
X3036408Y1474669D02*
X3058062D01*
Y1433331D02*
Y1474669D01*
X3036408Y1433331D02*
Y1474669D01*
X3094046Y1482307D02*
X3147196D01*
X3094046Y1395693D02*
X3147196D01*
X3094046D02*
Y1482307D01*
X3147196Y1395693D02*
Y1482307D01*
X1628500Y1714276D02*
X1750547D01*
X1628500Y1836323D02*
X1750547D01*
Y1714276D02*
Y1836323D01*
X1628500Y1714276D02*
Y1836323D01*
X2125976Y1712976D02*
X2248024D01*
X2125976Y1835024D02*
X2248024D01*
Y1712976D02*
Y1835024D01*
X2125976Y1712976D02*
Y1835024D01*
X4181551Y1153057D02*
X4250449D01*
X4181551Y1115656D02*
X4250449D01*
Y1153057D01*
X4181551Y1115656D02*
Y1153057D01*
X4110118Y3856575D02*
X4196732D01*
X4110118Y3803425D02*
X4196732D01*
X4110118D02*
Y3856575D01*
X4196732Y3803425D02*
Y3856575D01*
X3917899Y3555351D02*
Y3624249D01*
X3955301Y3555351D02*
Y3624249D01*
X3917899Y3555351D02*
X3955301D01*
X3917899Y3624249D02*
X3955301D01*
X2012882Y3981047D02*
X2123118D01*
X2012882Y4055850D02*
X2123118D01*
Y3981047D02*
Y4055850D01*
X2012882Y3981047D02*
Y4055850D01*
X1756425Y3975142D02*
Y4061756D01*
X1809575Y3975142D02*
Y4061756D01*
X1756425Y3975142D02*
X1809575D01*
X1756425Y4061756D02*
X1809575D01*
X1430559Y3975142D02*
Y4061756D01*
X1375441Y3975142D02*
Y4061756D01*
X1430559D01*
X1375441Y3975142D02*
X1430559D01*
X1472366Y420803D02*
Y582220D01*
X1669217Y420803D02*
Y582220D01*
X1472366Y420803D02*
X1669217D01*
X1472366Y582220D02*
X1669217D01*
X1223971Y420803D02*
Y582220D01*
X1420821Y420803D02*
Y582220D01*
X1223971Y420803D02*
X1420821D01*
X1223971Y582220D02*
X1420821D01*
X975575Y420803D02*
Y582220D01*
X1172425Y420803D02*
Y582220D01*
X975575Y420803D02*
X1172425D01*
X975575Y582220D02*
X1172425D01*
X4090575Y1410693D02*
Y1497307D01*
X4037425Y1410693D02*
Y1497307D01*
X4090575D01*
X4037425Y1410693D02*
X4090575D01*
X4196709Y991482D02*
X4354189D01*
X4196709Y1188333D02*
X4354189D01*
Y991482D02*
Y1188333D01*
X4196709Y991482D02*
Y1188333D01*
X4489701Y1001010D02*
Y1069908D01*
X4452299Y1001010D02*
Y1069908D01*
X4489701D01*
X4452299Y1001010D02*
X4489701D01*
X4048499Y1110851D02*
Y1179749D01*
X4085901Y1110851D02*
Y1179749D01*
X4048499Y1110851D02*
X4085901D01*
X4048499Y1179749D02*
X4085901D01*
X4519394Y2526905D02*
X4818606D01*
X4519394Y2015094D02*
X4818606D01*
X4519394D02*
Y2526905D01*
X4818606Y2015094D02*
Y2526905D01*
%TF.MD5,ed129cb0ceadba40adff73fe8b68c812*%
M02*
