%TF.GenerationSoftware,Altium Limited,Altium Designer,19.0.10 (269)*%
G04 Layer_Color=16711935*
%FSLAX26Y26*%
%MOIN*%
%TF.FileFunction,Soldermask,Bot*%
%TF.Part,Single*%
G01*
G75*
%TA.AperFunction,SMDPad,CuDef*%
%ADD76R,0.043433X0.039496*%
%ADD77O,0.027685X0.072961*%
%ADD78R,0.043433X0.047370*%
%ADD79R,0.061150X0.053276*%
%ADD80R,0.189102X0.193039*%
%ADD81R,0.053276X0.035559*%
%ADD82R,0.059181X0.065087*%
%ADD83R,0.200913X0.171386*%
%ADD84R,0.065087X0.061150*%
%ADD85R,0.039496X0.043433*%
%ADD86R,0.045402X0.041465*%
%ADD87R,0.047370X0.043433*%
%ADD88R,0.024535X0.043000*%
%ADD89R,0.031622X0.033197*%
%ADD90R,0.053276X0.061150*%
%ADD91O,0.031622X0.065087*%
%ADD92R,0.047370X0.031622*%
%ADD93R,0.082803X0.031622*%
%ADD94R,0.041465X0.045402*%
%ADD95O,0.065087X0.031622*%
%ADD96R,0.051307X0.059181*%
%ADD97O,0.017843X0.041465*%
%ADD98R,0.031622X0.037528*%
%ADD99R,0.053276X0.088709*%
%TA.AperFunction,ComponentPad*%
%ADD100C,0.074929*%
%TA.AperFunction,SMDPad,CuDef*%
%ADD101R,0.088709X0.053276*%
%TA.AperFunction,ViaPad*%
%ADD102C,0.258000*%
%TA.AperFunction,ComponentPad*%
%ADD103C,0.137921*%
%ADD104C,0.094614*%
%ADD105C,0.063118*%
%ADD106C,0.019811*%
%TA.AperFunction,SMDPad,CuDef*%
%ADD107R,0.401701X0.362331*%
%TA.AperFunction,ViaPad*%
%ADD108C,0.038000*%
%ADD109C,0.058000*%
%ADD110C,0.043000*%
%ADD111C,0.063000*%
D76*
X687630Y3917000D02*
D03*
X766370Y3879599D02*
D03*
Y3954402D02*
D03*
X2326370Y4016000D02*
D03*
X2247630Y4053401D02*
D03*
Y3978598D02*
D03*
D77*
X4010433Y3686717D02*
D03*
X4037047D02*
D03*
X4063661D02*
D03*
X4090276D02*
D03*
X4116890D02*
D03*
X4143504D02*
D03*
X4170118D02*
D03*
X4196732D02*
D03*
X4223346D02*
D03*
X4249961D02*
D03*
X4276575D02*
D03*
X4303189D02*
D03*
X4329803D02*
D03*
X4356417D02*
D03*
X4010433Y3401284D02*
D03*
X4037047D02*
D03*
X4063661D02*
D03*
X4090276D02*
D03*
X4116890D02*
D03*
X4143504D02*
D03*
X4170118D02*
D03*
X4196732D02*
D03*
X4223346D02*
D03*
X4249961D02*
D03*
X4276575D02*
D03*
X4303189D02*
D03*
X4329803D02*
D03*
X4356417D02*
D03*
D78*
X2345410Y3794638D02*
D03*
X2398559D02*
D03*
X2704575Y3542000D02*
D03*
X2651425D02*
D03*
X4242575Y1134356D02*
D03*
X4189425D02*
D03*
D79*
X2598291Y2639449D02*
D03*
Y2570551D02*
D03*
X2287000Y2797449D02*
D03*
Y2728551D02*
D03*
X4242966Y2172281D02*
D03*
Y2241179D02*
D03*
X4156184Y2241281D02*
D03*
Y2310179D02*
D03*
X2753200Y1473449D02*
D03*
Y1404551D02*
D03*
X2965713Y2570445D02*
D03*
Y2639343D02*
D03*
X3855464Y1473449D02*
D03*
Y1404551D02*
D03*
X2230502Y2949449D02*
D03*
Y2880551D02*
D03*
X1729065Y2949449D02*
D03*
Y2880551D02*
D03*
X2227935Y1139551D02*
D03*
Y1208449D02*
D03*
X1730458Y1140851D02*
D03*
Y1209748D02*
D03*
X3352677Y2571657D02*
D03*
Y2640555D02*
D03*
X3488042Y1473449D02*
D03*
Y1404551D02*
D03*
X3120621Y1473449D02*
D03*
Y1404551D02*
D03*
D80*
X3886104Y1935730D02*
D03*
D81*
X4043584Y1860730D02*
D03*
Y1910730D02*
D03*
Y1960730D02*
D03*
Y2010730D02*
D03*
D82*
X4024000Y2207000D02*
D03*
Y2127000D02*
D03*
D83*
X3878055Y2167000D02*
D03*
D84*
X4243184Y1975264D02*
D03*
Y2091405D02*
D03*
D85*
X201168Y2785000D02*
D03*
X238569Y2863740D02*
D03*
X163766D02*
D03*
X201000Y2621447D02*
D03*
X238401Y2700187D02*
D03*
X163598D02*
D03*
X163766Y3135780D02*
D03*
X238569D02*
D03*
X201168Y3057039D02*
D03*
D86*
X75832Y2648409D02*
D03*
Y2699590D02*
D03*
X314000Y2864409D02*
D03*
Y2915590D02*
D03*
X313000Y2726409D02*
D03*
Y2777590D02*
D03*
X830500Y3885091D02*
D03*
Y3833910D02*
D03*
X894951Y2915590D02*
D03*
Y2864409D02*
D03*
X822000Y2722590D02*
D03*
Y2671409D02*
D03*
X830000Y3952410D02*
D03*
Y4003591D02*
D03*
X312000Y3039410D02*
D03*
Y3090591D02*
D03*
X76000Y2808410D02*
D03*
Y2859591D02*
D03*
Y3082819D02*
D03*
Y3134000D02*
D03*
X895683Y3268787D02*
D03*
Y3217606D02*
D03*
X896817Y2563787D02*
D03*
Y2512606D02*
D03*
Y3603189D02*
D03*
Y3552008D02*
D03*
D87*
X905500Y3759242D02*
D03*
Y3706093D02*
D03*
X1264000Y3936575D02*
D03*
Y3883425D02*
D03*
D88*
X2620877Y1626106D02*
D03*
X2595286D02*
D03*
X2569696D02*
D03*
X2544105D02*
D03*
X2620877Y1791894D02*
D03*
X2595286D02*
D03*
X2569696D02*
D03*
X2544105D02*
D03*
X2988298Y1626106D02*
D03*
X2962707D02*
D03*
X2937117D02*
D03*
X2911526D02*
D03*
X2988298Y1791894D02*
D03*
X2962707D02*
D03*
X2937117D02*
D03*
X2911526D02*
D03*
X3355719Y1626106D02*
D03*
X3330129D02*
D03*
X3304538D02*
D03*
X3278948D02*
D03*
X3355719Y1791894D02*
D03*
X3330129D02*
D03*
X3304538D02*
D03*
X3278948D02*
D03*
X3723141Y1626106D02*
D03*
X3697550D02*
D03*
X3671960D02*
D03*
X3646369D02*
D03*
X3723141Y1791894D02*
D03*
X3697550D02*
D03*
X3671960D02*
D03*
X3646369D02*
D03*
X1530591Y2207106D02*
D03*
X1505000D02*
D03*
X1479409D02*
D03*
X1453819D02*
D03*
X1530591Y2372894D02*
D03*
X1505000D02*
D03*
X1479409D02*
D03*
X1453819D02*
D03*
X3485000Y2419000D02*
D03*
X3510591D02*
D03*
X3536181D02*
D03*
X3561772D02*
D03*
X3485000Y2253213D02*
D03*
X3510591D02*
D03*
X3536181D02*
D03*
X3561772D02*
D03*
X3098035Y2417787D02*
D03*
X3123626D02*
D03*
X3149217D02*
D03*
X3174807D02*
D03*
X3098035Y2252000D02*
D03*
X3123626D02*
D03*
X3149217D02*
D03*
X3174807D02*
D03*
X2730614Y2417894D02*
D03*
X2756205D02*
D03*
X2781795D02*
D03*
X2807386D02*
D03*
X2730614Y2252106D02*
D03*
X2756205D02*
D03*
X2781795D02*
D03*
X2807386D02*
D03*
X2363193Y2418364D02*
D03*
X2388784D02*
D03*
X2414374D02*
D03*
X2439965D02*
D03*
X2363193Y2252577D02*
D03*
X2388784D02*
D03*
X2414374D02*
D03*
X2439965D02*
D03*
X2032028Y2207106D02*
D03*
X2006437D02*
D03*
X1980847D02*
D03*
X1955256D02*
D03*
X2032028Y2372894D02*
D03*
X2006437D02*
D03*
X1980847D02*
D03*
X1955256D02*
D03*
X1727909Y1692406D02*
D03*
X1702319D02*
D03*
X1676728D02*
D03*
X1651138D02*
D03*
X1727909Y1858193D02*
D03*
X1702319D02*
D03*
X1676728D02*
D03*
X1651138D02*
D03*
X2225386Y1691106D02*
D03*
X2199795D02*
D03*
X2174205D02*
D03*
X2148614D02*
D03*
X2225386Y1856894D02*
D03*
X2199795D02*
D03*
X2174205D02*
D03*
X2148614D02*
D03*
D89*
X1676846Y1605299D02*
D03*
X1642201D02*
D03*
X2174323Y1604000D02*
D03*
X2139677D02*
D03*
X2529677Y1546000D02*
D03*
X2564323D02*
D03*
X2900677Y1550000D02*
D03*
X2935323D02*
D03*
X3270677Y1551352D02*
D03*
X3305323D02*
D03*
X3636677D02*
D03*
X3671323D02*
D03*
X1507677Y2455000D02*
D03*
X1542323D02*
D03*
X2447323Y2493118D02*
D03*
X2412677D02*
D03*
X3563323Y2493754D02*
D03*
X3528677D02*
D03*
X3180323Y2492541D02*
D03*
X3145677D02*
D03*
X2819323Y2492648D02*
D03*
X2784677D02*
D03*
X2009114Y2455000D02*
D03*
X2043760D02*
D03*
D90*
X3485449Y3183000D02*
D03*
X3416551D02*
D03*
X3488551Y3271000D02*
D03*
X3557449D02*
D03*
X4339551Y1311000D02*
D03*
X4408449D02*
D03*
X980551Y2948648D02*
D03*
X1049449D02*
D03*
X982417Y2596845D02*
D03*
X1051315D02*
D03*
X981284Y3301845D02*
D03*
X1050181D02*
D03*
X982417Y3636246D02*
D03*
X1051315D02*
D03*
D91*
X3161000Y2961716D02*
D03*
X3111000D02*
D03*
X3061000D02*
D03*
X3011000D02*
D03*
X2961000D02*
D03*
X2911000D02*
D03*
X2861000D02*
D03*
X2811000D02*
D03*
X3161000Y3176283D02*
D03*
X3111000D02*
D03*
X3061000D02*
D03*
X3011000D02*
D03*
X2961000D02*
D03*
X2911000D02*
D03*
X2861000D02*
D03*
X2811000D02*
D03*
X1815000Y3142069D02*
D03*
X1765000D02*
D03*
X1715000D02*
D03*
X1665000D02*
D03*
X1615000D02*
D03*
X1565000D02*
D03*
X1515000D02*
D03*
X1465000D02*
D03*
X1815000Y3356636D02*
D03*
X1765000D02*
D03*
X1715000D02*
D03*
X1665000D02*
D03*
X1615000D02*
D03*
X1565000D02*
D03*
X1515000D02*
D03*
X1465000D02*
D03*
D92*
X965000Y2791000D02*
D03*
Y2828402D02*
D03*
Y2865803D02*
D03*
X1073268D02*
D03*
Y2791000D02*
D03*
X966866Y2439197D02*
D03*
Y2476599D02*
D03*
Y2514000D02*
D03*
X1075134D02*
D03*
Y2439197D02*
D03*
X965732Y3144197D02*
D03*
Y3181599D02*
D03*
Y3219000D02*
D03*
X1074000D02*
D03*
Y3144197D02*
D03*
X966866Y3478598D02*
D03*
Y3516000D02*
D03*
Y3553401D02*
D03*
X1075134D02*
D03*
Y3478598D02*
D03*
D93*
X4030565Y2755000D02*
D03*
Y2805000D02*
D03*
Y2855000D02*
D03*
Y2905000D02*
D03*
Y2955000D02*
D03*
Y3005000D02*
D03*
Y3055000D02*
D03*
Y3105000D02*
D03*
Y3155000D02*
D03*
Y3205000D02*
D03*
X4404581Y2755000D02*
D03*
Y2805000D02*
D03*
Y2855000D02*
D03*
Y2905000D02*
D03*
Y2955000D02*
D03*
Y3005000D02*
D03*
Y3055000D02*
D03*
Y3105000D02*
D03*
Y3155000D02*
D03*
Y3205000D02*
D03*
D94*
X988409Y4068829D02*
D03*
X1039591D02*
D03*
X819276Y3064000D02*
D03*
X870457D02*
D03*
X820409Y2359000D02*
D03*
X871591D02*
D03*
X820409Y3398401D02*
D03*
X871591D02*
D03*
D95*
X1136284Y3985000D02*
D03*
Y3935000D02*
D03*
Y3885000D02*
D03*
Y3835000D02*
D03*
X921717Y3985000D02*
D03*
Y3935000D02*
D03*
Y3885000D02*
D03*
Y3835000D02*
D03*
D96*
X4156460Y2414694D02*
D03*
X4065909D02*
D03*
D97*
X1987370Y3501401D02*
D03*
X1967685D02*
D03*
X1948000D02*
D03*
X1928315D02*
D03*
X1908630D02*
D03*
X1987370Y3676598D02*
D03*
X1967685D02*
D03*
X1948000D02*
D03*
X1928315D02*
D03*
X1908630D02*
D03*
D98*
X2679814Y1431362D02*
D03*
Y1476638D02*
D03*
X2671000Y2516385D02*
D03*
Y2561661D02*
D03*
X3037730Y2526362D02*
D03*
Y2571638D02*
D03*
X3782078Y1431362D02*
D03*
Y1476638D02*
D03*
X2155148Y2905000D02*
D03*
Y2950276D02*
D03*
X1653711Y2905000D02*
D03*
Y2950276D02*
D03*
X2152000Y1181638D02*
D03*
Y1136362D02*
D03*
X1654523Y1182937D02*
D03*
Y1137661D02*
D03*
X3424695Y2521067D02*
D03*
Y2566343D02*
D03*
X2304256Y2567832D02*
D03*
Y2613108D02*
D03*
X3414657Y1431362D02*
D03*
Y1476638D02*
D03*
X3047235Y1431362D02*
D03*
Y1476638D02*
D03*
D99*
X592000Y3973500D02*
D03*
Y3868500D02*
D03*
X953102Y1557000D02*
D03*
X4034425Y3826000D02*
D03*
X3965425D02*
D03*
X4578000Y3416000D02*
D03*
D100*
X964724Y1933022D02*
D03*
X1355276D02*
D03*
X964724Y1799163D02*
D03*
X1355276D02*
D03*
X964449Y2250000D02*
D03*
X1355000D02*
D03*
X964449Y2116142D02*
D03*
X1355000D02*
D03*
D101*
X2376000Y3913000D02*
D03*
X3922000Y2396000D02*
D03*
X4153619Y1860730D02*
D03*
X4610000Y3653000D02*
D03*
X2371000Y3726000D02*
D03*
D102*
X4700000Y3900000D02*
D03*
Y300000D02*
D03*
X300000D02*
D03*
Y3900000D02*
D03*
D103*
X150000Y3500000D02*
D03*
Y1984252D02*
D03*
Y704724D02*
D03*
D104*
X720866Y990158D02*
D03*
Y1108268D02*
D03*
Y1226378D02*
D03*
Y1344488D02*
D03*
Y1462599D02*
D03*
Y1580709D02*
D03*
Y1698819D02*
D03*
X622441Y1049213D02*
D03*
Y1167323D02*
D03*
Y1285433D02*
D03*
Y1403543D02*
D03*
Y1521654D02*
D03*
Y1639764D02*
D03*
X504331Y1049213D02*
D03*
Y1167323D02*
D03*
Y1285433D02*
D03*
Y1403543D02*
D03*
Y1521654D02*
D03*
Y1639764D02*
D03*
X405906Y990158D02*
D03*
Y1108268D02*
D03*
Y1226378D02*
D03*
Y1344488D02*
D03*
Y1462599D02*
D03*
Y1580709D02*
D03*
Y1698819D02*
D03*
Y3214567D02*
D03*
Y3096457D02*
D03*
Y2978347D02*
D03*
Y2860236D02*
D03*
Y2742126D02*
D03*
Y2624016D02*
D03*
Y2505905D02*
D03*
Y2387795D02*
D03*
Y2269685D02*
D03*
X504331Y3155512D02*
D03*
Y3037402D02*
D03*
Y2919291D02*
D03*
Y2801181D02*
D03*
Y2683071D02*
D03*
Y2564961D02*
D03*
Y2446850D02*
D03*
Y2328740D02*
D03*
X622441Y3155512D02*
D03*
Y3037402D02*
D03*
Y2919291D02*
D03*
Y2801181D02*
D03*
Y2683071D02*
D03*
Y2564961D02*
D03*
Y2446850D02*
D03*
Y2328740D02*
D03*
X720866Y3214567D02*
D03*
Y3096457D02*
D03*
Y2978347D02*
D03*
Y2860236D02*
D03*
Y2742126D02*
D03*
Y2624016D02*
D03*
Y2505905D02*
D03*
Y2387795D02*
D03*
Y2269685D02*
D03*
D105*
X1628000Y3953449D02*
D03*
Y4053449D02*
D03*
D106*
X4740512Y1780000D02*
D03*
Y1827244D02*
D03*
Y1874488D02*
D03*
Y1921732D02*
D03*
Y1732756D02*
D03*
Y1685512D02*
D03*
Y1638268D02*
D03*
X4787756D02*
D03*
Y1685512D02*
D03*
Y1732756D02*
D03*
Y1921732D02*
D03*
Y1874488D02*
D03*
Y1827244D02*
D03*
Y1780000D02*
D03*
X4835000Y1638268D02*
D03*
Y1685512D02*
D03*
Y1732756D02*
D03*
Y1921732D02*
D03*
Y1874488D02*
D03*
Y1827244D02*
D03*
Y1780000D02*
D03*
X4882244Y1638268D02*
D03*
Y1685512D02*
D03*
Y1732756D02*
D03*
Y1921732D02*
D03*
Y1874488D02*
D03*
Y1827244D02*
D03*
Y1780000D02*
D03*
X4693268Y1638268D02*
D03*
Y1685512D02*
D03*
Y1732756D02*
D03*
Y1921732D02*
D03*
Y1874488D02*
D03*
Y1827244D02*
D03*
Y1780000D02*
D03*
X4646024Y1638268D02*
D03*
Y1685512D02*
D03*
Y1732756D02*
D03*
Y1921732D02*
D03*
Y1874488D02*
D03*
Y1827244D02*
D03*
Y1780000D02*
D03*
X4598780Y1638268D02*
D03*
Y1685512D02*
D03*
Y1732756D02*
D03*
Y1921732D02*
D03*
Y1874488D02*
D03*
Y1827244D02*
D03*
Y1780000D02*
D03*
X4551535Y1638268D02*
D03*
Y1685512D02*
D03*
Y1732756D02*
D03*
Y1921732D02*
D03*
Y1874488D02*
D03*
Y1827244D02*
D03*
Y1780000D02*
D03*
D107*
X4716890D02*
D03*
D108*
X1534000Y363000D02*
D03*
Y395000D02*
D03*
Y427000D02*
D03*
Y459000D02*
D03*
Y491000D02*
D03*
Y523000D02*
D03*
X1570000D02*
D03*
Y491000D02*
D03*
Y459000D02*
D03*
Y427000D02*
D03*
Y395000D02*
D03*
Y363000D02*
D03*
X1641500D02*
D03*
Y395000D02*
D03*
Y427000D02*
D03*
Y459000D02*
D03*
Y491000D02*
D03*
Y523000D02*
D03*
X1605500D02*
D03*
Y491000D02*
D03*
Y459000D02*
D03*
Y427000D02*
D03*
Y395000D02*
D03*
Y363000D02*
D03*
X1501500Y363500D02*
D03*
Y395500D02*
D03*
Y427500D02*
D03*
Y459500D02*
D03*
Y491500D02*
D03*
Y523500D02*
D03*
X1284000Y361500D02*
D03*
Y393500D02*
D03*
Y425500D02*
D03*
Y457500D02*
D03*
Y489500D02*
D03*
Y521500D02*
D03*
X1320000D02*
D03*
Y489500D02*
D03*
Y457500D02*
D03*
Y425500D02*
D03*
Y393500D02*
D03*
Y361500D02*
D03*
X1391500D02*
D03*
Y393500D02*
D03*
Y425500D02*
D03*
Y457500D02*
D03*
Y489500D02*
D03*
Y521500D02*
D03*
X1355500D02*
D03*
Y489500D02*
D03*
Y457500D02*
D03*
Y425500D02*
D03*
Y393500D02*
D03*
Y361500D02*
D03*
X1251500Y362000D02*
D03*
Y394000D02*
D03*
Y426000D02*
D03*
Y458000D02*
D03*
Y490000D02*
D03*
Y522000D02*
D03*
X1037500Y363500D02*
D03*
Y395500D02*
D03*
Y427500D02*
D03*
Y459500D02*
D03*
Y491500D02*
D03*
Y523500D02*
D03*
X1073500D02*
D03*
Y491500D02*
D03*
Y459500D02*
D03*
Y427500D02*
D03*
Y395500D02*
D03*
Y363500D02*
D03*
X1145000D02*
D03*
Y395500D02*
D03*
Y427500D02*
D03*
Y459500D02*
D03*
Y491500D02*
D03*
Y523500D02*
D03*
X1109000D02*
D03*
Y491500D02*
D03*
Y459500D02*
D03*
Y427500D02*
D03*
Y395500D02*
D03*
Y363500D02*
D03*
X1005000Y364000D02*
D03*
Y396000D02*
D03*
Y428000D02*
D03*
Y460000D02*
D03*
Y492000D02*
D03*
Y524000D02*
D03*
X3854500Y1857693D02*
D03*
Y1889693D02*
D03*
Y1921693D02*
D03*
Y1953693D02*
D03*
Y1985693D02*
D03*
Y2017693D02*
D03*
X3890500D02*
D03*
Y1985693D02*
D03*
Y1953693D02*
D03*
Y1921693D02*
D03*
Y1889693D02*
D03*
Y1857693D02*
D03*
X3962000D02*
D03*
Y1889693D02*
D03*
Y1921693D02*
D03*
Y1953693D02*
D03*
Y1985693D02*
D03*
Y2017693D02*
D03*
X3926000D02*
D03*
Y1985693D02*
D03*
Y1953693D02*
D03*
Y1921693D02*
D03*
Y1889693D02*
D03*
Y1857693D02*
D03*
X3822000Y1858193D02*
D03*
Y1890193D02*
D03*
Y1922193D02*
D03*
Y1954193D02*
D03*
Y1986193D02*
D03*
Y2018193D02*
D03*
X3838000Y2085000D02*
D03*
Y2117000D02*
D03*
Y2149000D02*
D03*
Y2181000D02*
D03*
Y2213000D02*
D03*
Y2245000D02*
D03*
X3874000D02*
D03*
Y2213000D02*
D03*
Y2181000D02*
D03*
Y2149000D02*
D03*
Y2117000D02*
D03*
Y2085000D02*
D03*
X3945500D02*
D03*
Y2117000D02*
D03*
Y2149000D02*
D03*
Y2181000D02*
D03*
Y2213000D02*
D03*
Y2245000D02*
D03*
X3909500D02*
D03*
Y2213000D02*
D03*
Y2181000D02*
D03*
Y2149000D02*
D03*
Y2117000D02*
D03*
Y2085000D02*
D03*
X3805500Y2085500D02*
D03*
Y2117500D02*
D03*
Y2149500D02*
D03*
Y2181500D02*
D03*
Y2213500D02*
D03*
Y2245500D02*
D03*
X2879500Y1313000D02*
D03*
Y1345000D02*
D03*
Y1377000D02*
D03*
Y1409000D02*
D03*
Y1441000D02*
D03*
Y1473000D02*
D03*
X2915500D02*
D03*
Y1441000D02*
D03*
Y1409000D02*
D03*
Y1377000D02*
D03*
Y1345000D02*
D03*
Y1313000D02*
D03*
X2987000D02*
D03*
Y1345000D02*
D03*
Y1377000D02*
D03*
Y1409000D02*
D03*
Y1441000D02*
D03*
Y1473000D02*
D03*
X2951000D02*
D03*
Y1441000D02*
D03*
Y1409000D02*
D03*
Y1377000D02*
D03*
Y1345000D02*
D03*
Y1313000D02*
D03*
X2847000Y1313500D02*
D03*
Y1345500D02*
D03*
Y1377500D02*
D03*
Y1409500D02*
D03*
Y1441500D02*
D03*
Y1473500D02*
D03*
X1681000Y1493543D02*
D03*
X1716500D02*
D03*
Y1525543D02*
D03*
X1752500D02*
D03*
Y1557543D02*
D03*
X3489500Y2738500D02*
D03*
Y2706500D02*
D03*
Y2674500D02*
D03*
Y2642500D02*
D03*
Y2610500D02*
D03*
Y2578500D02*
D03*
X3593500Y2578000D02*
D03*
Y2610000D02*
D03*
Y2642000D02*
D03*
Y2674000D02*
D03*
Y2706000D02*
D03*
Y2738000D02*
D03*
X3629500D02*
D03*
Y2706000D02*
D03*
Y2674000D02*
D03*
Y2642000D02*
D03*
Y2610000D02*
D03*
Y2578000D02*
D03*
X3558000D02*
D03*
Y2610000D02*
D03*
Y2642000D02*
D03*
Y2674000D02*
D03*
Y2706000D02*
D03*
Y2738000D02*
D03*
X3522000D02*
D03*
Y2706000D02*
D03*
Y2674000D02*
D03*
Y2642000D02*
D03*
Y2610000D02*
D03*
Y2578000D02*
D03*
X3103150Y2733500D02*
D03*
Y2701500D02*
D03*
Y2669500D02*
D03*
Y2637500D02*
D03*
Y2605500D02*
D03*
Y2573500D02*
D03*
X3207150Y2573000D02*
D03*
Y2605000D02*
D03*
Y2637000D02*
D03*
Y2669000D02*
D03*
Y2701000D02*
D03*
Y2733000D02*
D03*
X3243150D02*
D03*
Y2701000D02*
D03*
Y2669000D02*
D03*
Y2637000D02*
D03*
Y2605000D02*
D03*
Y2573000D02*
D03*
X3171650D02*
D03*
Y2605000D02*
D03*
Y2637000D02*
D03*
Y2669000D02*
D03*
Y2701000D02*
D03*
Y2733000D02*
D03*
X3135650D02*
D03*
Y2701000D02*
D03*
Y2669000D02*
D03*
Y2637000D02*
D03*
Y2605000D02*
D03*
Y2573000D02*
D03*
X2734024Y2733500D02*
D03*
Y2701500D02*
D03*
Y2669500D02*
D03*
Y2637500D02*
D03*
Y2605500D02*
D03*
Y2573500D02*
D03*
X2838024Y2573000D02*
D03*
Y2605000D02*
D03*
Y2637000D02*
D03*
Y2669000D02*
D03*
Y2701000D02*
D03*
Y2733000D02*
D03*
X2874024D02*
D03*
Y2701000D02*
D03*
Y2669000D02*
D03*
Y2637000D02*
D03*
Y2605000D02*
D03*
Y2573000D02*
D03*
X2802524D02*
D03*
Y2605000D02*
D03*
Y2637000D02*
D03*
Y2669000D02*
D03*
Y2701000D02*
D03*
Y2733000D02*
D03*
X2766524D02*
D03*
Y2701000D02*
D03*
Y2669000D02*
D03*
Y2637000D02*
D03*
Y2605000D02*
D03*
Y2573000D02*
D03*
X2365000Y2738000D02*
D03*
Y2706000D02*
D03*
Y2674000D02*
D03*
Y2642000D02*
D03*
Y2610000D02*
D03*
Y2578000D02*
D03*
X2469000Y2577500D02*
D03*
Y2609500D02*
D03*
Y2641500D02*
D03*
Y2673500D02*
D03*
Y2705500D02*
D03*
Y2737500D02*
D03*
X2505000D02*
D03*
Y2705500D02*
D03*
Y2673500D02*
D03*
Y2641500D02*
D03*
Y2609500D02*
D03*
Y2577500D02*
D03*
X2433500D02*
D03*
Y2609500D02*
D03*
Y2641500D02*
D03*
Y2673500D02*
D03*
Y2705500D02*
D03*
Y2737500D02*
D03*
X2397500D02*
D03*
Y2705500D02*
D03*
Y2673500D02*
D03*
Y2641500D02*
D03*
Y2609500D02*
D03*
Y2577500D02*
D03*
X3582000Y1471396D02*
D03*
Y1439396D02*
D03*
Y1407396D02*
D03*
Y1375396D02*
D03*
Y1343396D02*
D03*
Y1311396D02*
D03*
X3686000Y1310896D02*
D03*
Y1342896D02*
D03*
Y1374896D02*
D03*
Y1406896D02*
D03*
Y1438896D02*
D03*
Y1470896D02*
D03*
X3722000D02*
D03*
Y1438896D02*
D03*
Y1406896D02*
D03*
Y1374896D02*
D03*
Y1342896D02*
D03*
Y1310896D02*
D03*
X3650500D02*
D03*
Y1342896D02*
D03*
Y1374896D02*
D03*
Y1406896D02*
D03*
Y1438896D02*
D03*
Y1470896D02*
D03*
X3614500D02*
D03*
Y1438896D02*
D03*
Y1406896D02*
D03*
Y1374896D02*
D03*
Y1342896D02*
D03*
Y1310896D02*
D03*
X3215000Y1470617D02*
D03*
Y1438617D02*
D03*
Y1406617D02*
D03*
Y1374617D02*
D03*
Y1342617D02*
D03*
Y1310617D02*
D03*
X3319000Y1310117D02*
D03*
Y1342117D02*
D03*
Y1374117D02*
D03*
Y1406117D02*
D03*
Y1438117D02*
D03*
Y1470117D02*
D03*
X3355000D02*
D03*
Y1438117D02*
D03*
Y1406117D02*
D03*
Y1374117D02*
D03*
Y1342117D02*
D03*
Y1310117D02*
D03*
X3283500D02*
D03*
Y1342117D02*
D03*
Y1374117D02*
D03*
Y1406117D02*
D03*
Y1438117D02*
D03*
Y1470117D02*
D03*
X3247500D02*
D03*
Y1438117D02*
D03*
Y1406117D02*
D03*
Y1374117D02*
D03*
Y1342117D02*
D03*
Y1310117D02*
D03*
X2481000Y1471000D02*
D03*
Y1439000D02*
D03*
Y1407000D02*
D03*
Y1375000D02*
D03*
Y1343000D02*
D03*
Y1311000D02*
D03*
X2585000Y1310500D02*
D03*
Y1342500D02*
D03*
Y1374500D02*
D03*
Y1406500D02*
D03*
Y1438500D02*
D03*
Y1470500D02*
D03*
X2621000D02*
D03*
Y1438500D02*
D03*
Y1406500D02*
D03*
Y1374500D02*
D03*
Y1342500D02*
D03*
Y1310500D02*
D03*
X2549500D02*
D03*
Y1342500D02*
D03*
Y1374500D02*
D03*
Y1406500D02*
D03*
Y1438500D02*
D03*
Y1470500D02*
D03*
X2513500D02*
D03*
Y1438500D02*
D03*
Y1406500D02*
D03*
Y1374500D02*
D03*
Y1342500D02*
D03*
Y1310500D02*
D03*
X2111000Y1557500D02*
D03*
Y1525500D02*
D03*
Y1493500D02*
D03*
Y1461500D02*
D03*
Y1429500D02*
D03*
Y1397500D02*
D03*
X2215000Y1397000D02*
D03*
Y1429000D02*
D03*
Y1461000D02*
D03*
Y1493000D02*
D03*
Y1525000D02*
D03*
Y1557000D02*
D03*
X2251000D02*
D03*
Y1525000D02*
D03*
Y1493000D02*
D03*
Y1461000D02*
D03*
Y1429000D02*
D03*
Y1397000D02*
D03*
X2179500D02*
D03*
Y1429000D02*
D03*
Y1461000D02*
D03*
Y1493000D02*
D03*
Y1525000D02*
D03*
Y1557000D02*
D03*
X2143500D02*
D03*
Y1525000D02*
D03*
Y1493000D02*
D03*
Y1461000D02*
D03*
Y1429000D02*
D03*
Y1397000D02*
D03*
X1612500Y1398043D02*
D03*
X1645000Y1397543D02*
D03*
X1681000D02*
D03*
X1716500D02*
D03*
X1891000Y1397637D02*
D03*
Y1429637D02*
D03*
Y1461637D02*
D03*
Y1493637D02*
D03*
Y1525637D02*
D03*
Y1557637D02*
D03*
X1927000D02*
D03*
Y1525637D02*
D03*
Y1493637D02*
D03*
Y1461637D02*
D03*
Y1429637D02*
D03*
Y1397637D02*
D03*
X1998500D02*
D03*
Y1429637D02*
D03*
Y1461637D02*
D03*
Y1493637D02*
D03*
Y1525637D02*
D03*
Y1557637D02*
D03*
X1962500D02*
D03*
Y1525637D02*
D03*
Y1493637D02*
D03*
Y1461637D02*
D03*
Y1429637D02*
D03*
Y1397637D02*
D03*
X1858500Y1398137D02*
D03*
Y1430137D02*
D03*
Y1462137D02*
D03*
Y1494137D02*
D03*
Y1526137D02*
D03*
Y1558137D02*
D03*
X1397500Y1398043D02*
D03*
Y1430043D02*
D03*
Y1462043D02*
D03*
Y1494043D02*
D03*
Y1526043D02*
D03*
Y1558043D02*
D03*
X1433500D02*
D03*
Y1526043D02*
D03*
Y1494043D02*
D03*
Y1462043D02*
D03*
Y1430043D02*
D03*
Y1398043D02*
D03*
X1505000D02*
D03*
Y1430043D02*
D03*
Y1462043D02*
D03*
Y1494043D02*
D03*
Y1526043D02*
D03*
Y1558043D02*
D03*
X1469000D02*
D03*
Y1526043D02*
D03*
Y1494043D02*
D03*
Y1462043D02*
D03*
Y1430043D02*
D03*
Y1398043D02*
D03*
X1365000Y1398543D02*
D03*
Y1430543D02*
D03*
Y1462543D02*
D03*
Y1494543D02*
D03*
Y1526543D02*
D03*
Y1558543D02*
D03*
X1612500Y1558043D02*
D03*
Y1526043D02*
D03*
Y1494043D02*
D03*
Y1462043D02*
D03*
Y1430043D02*
D03*
X1716500Y1429543D02*
D03*
Y1461543D02*
D03*
Y1557543D02*
D03*
X1752500Y1493543D02*
D03*
Y1461543D02*
D03*
Y1429543D02*
D03*
Y1397543D02*
D03*
X1681000Y1429543D02*
D03*
Y1461543D02*
D03*
Y1525543D02*
D03*
Y1557543D02*
D03*
X1645000D02*
D03*
Y1525543D02*
D03*
Y1493543D02*
D03*
Y1461543D02*
D03*
Y1429543D02*
D03*
X1899000Y2508000D02*
D03*
Y2540000D02*
D03*
Y2572000D02*
D03*
Y2604000D02*
D03*
Y2636000D02*
D03*
Y2668000D02*
D03*
X1935000D02*
D03*
Y2636000D02*
D03*
Y2604000D02*
D03*
Y2572000D02*
D03*
Y2540000D02*
D03*
Y2508000D02*
D03*
X2006500D02*
D03*
Y2540000D02*
D03*
Y2572000D02*
D03*
Y2604000D02*
D03*
Y2636000D02*
D03*
Y2668000D02*
D03*
X1970500D02*
D03*
Y2636000D02*
D03*
Y2604000D02*
D03*
Y2572000D02*
D03*
Y2540000D02*
D03*
Y2508000D02*
D03*
X1866500Y2508500D02*
D03*
Y2540500D02*
D03*
Y2572500D02*
D03*
Y2604500D02*
D03*
Y2636500D02*
D03*
Y2668500D02*
D03*
X2114000Y2668000D02*
D03*
Y2636000D02*
D03*
Y2604000D02*
D03*
Y2572000D02*
D03*
Y2540000D02*
D03*
Y2508000D02*
D03*
X2218000Y2507500D02*
D03*
Y2539500D02*
D03*
Y2571500D02*
D03*
Y2603500D02*
D03*
Y2635500D02*
D03*
Y2667500D02*
D03*
X2254000D02*
D03*
Y2635500D02*
D03*
Y2603500D02*
D03*
Y2571500D02*
D03*
Y2539500D02*
D03*
Y2507500D02*
D03*
X2182500D02*
D03*
Y2539500D02*
D03*
Y2571500D02*
D03*
Y2603500D02*
D03*
Y2635500D02*
D03*
Y2667500D02*
D03*
X2146500D02*
D03*
Y2635500D02*
D03*
Y2603500D02*
D03*
Y2571500D02*
D03*
Y2539500D02*
D03*
Y2507500D02*
D03*
X1646500Y2509000D02*
D03*
Y2541000D02*
D03*
Y2573000D02*
D03*
Y2605000D02*
D03*
Y2637000D02*
D03*
Y2669000D02*
D03*
X1682500D02*
D03*
Y2637000D02*
D03*
Y2605000D02*
D03*
Y2573000D02*
D03*
Y2541000D02*
D03*
Y2509000D02*
D03*
X1754000D02*
D03*
Y2541000D02*
D03*
Y2573000D02*
D03*
Y2605000D02*
D03*
Y2637000D02*
D03*
Y2669000D02*
D03*
X1718000D02*
D03*
Y2637000D02*
D03*
Y2605000D02*
D03*
Y2573000D02*
D03*
Y2541000D02*
D03*
Y2509000D02*
D03*
X1614000Y2509500D02*
D03*
Y2541500D02*
D03*
Y2573500D02*
D03*
Y2605500D02*
D03*
Y2637500D02*
D03*
Y2669500D02*
D03*
X1366500Y2670000D02*
D03*
Y2638000D02*
D03*
Y2606000D02*
D03*
Y2574000D02*
D03*
Y2542000D02*
D03*
Y2510000D02*
D03*
X1470500Y2509500D02*
D03*
Y2541500D02*
D03*
Y2573500D02*
D03*
Y2605500D02*
D03*
Y2637500D02*
D03*
Y2669500D02*
D03*
X1506500D02*
D03*
Y2637500D02*
D03*
Y2605500D02*
D03*
Y2573500D02*
D03*
Y2541500D02*
D03*
Y2509500D02*
D03*
X1435000D02*
D03*
Y2541500D02*
D03*
Y2573500D02*
D03*
Y2605500D02*
D03*
Y2637500D02*
D03*
Y2669500D02*
D03*
X1399000D02*
D03*
Y2637500D02*
D03*
Y2605500D02*
D03*
Y2573500D02*
D03*
Y2541500D02*
D03*
Y2509500D02*
D03*
X731000Y3917000D02*
D03*
X645030Y3954500D02*
D03*
X644000Y3878500D02*
D03*
X541500Y4146500D02*
D03*
X610000Y3726000D02*
D03*
X829500Y3760500D02*
D03*
Y4061000D02*
D03*
X78500Y2746500D02*
D03*
X3656485Y2908015D02*
D03*
X3076500Y1734000D02*
D03*
X4784500Y2597500D02*
D03*
X4604500Y2551000D02*
D03*
X1399000Y3795000D02*
D03*
X4311000Y2090000D02*
D03*
X3012000Y3096245D02*
D03*
X2969000Y2815000D02*
D03*
X2928000Y2906024D02*
D03*
X1774685Y2826000D02*
D03*
X949000Y2710000D02*
D03*
X2690000Y1663328D02*
D03*
X2260263Y1260000D02*
D03*
X2363000Y3855000D02*
D03*
X2454000Y3910000D02*
D03*
X2760000Y4144000D02*
D03*
X2459000Y4166000D02*
D03*
X2403000Y4029000D02*
D03*
X2288000Y3811000D02*
D03*
X3787000Y3444000D02*
D03*
X3847000Y3465000D02*
D03*
X4034000Y3757000D02*
D03*
X4093000Y3768000D02*
D03*
X3977000Y3754000D02*
D03*
X1206000Y3794000D02*
D03*
X1449000Y3879000D02*
D03*
X1778000Y3880000D02*
D03*
X1780000Y3755000D02*
D03*
X1699000Y3840000D02*
D03*
X1700409Y3954410D02*
D03*
X2177000Y3913000D02*
D03*
X2195400Y3729000D02*
D03*
X2050000Y3672000D02*
D03*
X2472000Y3841000D02*
D03*
X2281000Y3887000D02*
D03*
X2192000Y4024000D02*
D03*
X1214000Y3986000D02*
D03*
X4645000Y3361000D02*
D03*
X4010000Y3589000D02*
D03*
X3509000Y4074000D02*
D03*
X3715000Y3696000D02*
D03*
X3498000Y3550000D02*
D03*
X2682000Y2801181D02*
D03*
X3716000Y3259000D02*
D03*
Y2334000D02*
D03*
X3802000Y2720000D02*
D03*
X3705000Y2781000D02*
D03*
X3062000Y2884000D02*
D03*
X2940000Y2371000D02*
D03*
X3002000Y2875000D02*
D03*
X2782000Y1717000D02*
D03*
X2366000D02*
D03*
X2318000Y1707000D02*
D03*
X2716000Y3155000D02*
D03*
X2678000Y2869000D02*
D03*
X2720000Y2875000D02*
D03*
X3670000Y3459000D02*
D03*
X2416000Y3286000D02*
D03*
X2571000Y3143000D02*
D03*
X2508000Y3268000D02*
D03*
X2567000Y3284000D02*
D03*
X2506000Y3458000D02*
D03*
X2456000Y3467000D02*
D03*
X3409000Y2338000D02*
D03*
X3331000Y2878000D02*
D03*
X3265000Y3011000D02*
D03*
X3285000Y3078000D02*
D03*
X3543600Y3709000D02*
D03*
X2151000Y3777000D02*
D03*
X2270000Y3441000D02*
D03*
X3625000Y3703000D02*
D03*
X3547000Y3914000D02*
D03*
X4425000Y3811000D02*
D03*
X3487000Y3646000D02*
D03*
X3848000Y3571000D02*
D03*
X3586000Y3405000D02*
D03*
X3723000Y3550000D02*
D03*
X2764000Y3842000D02*
D03*
X2671000Y3796000D02*
D03*
X2569696Y3858000D02*
D03*
X2625000Y3867000D02*
D03*
X2686000Y3855000D02*
D03*
X3322000Y3840000D02*
D03*
X2572000Y2909000D02*
D03*
X3712000Y3842000D02*
D03*
X3716000Y2833000D02*
D03*
X3421000Y2701000D02*
D03*
X543500Y3541000D02*
D03*
X3037000Y4141000D02*
D03*
X2882000Y4115000D02*
D03*
X2934000Y4120000D02*
D03*
X2902000Y4044000D02*
D03*
X2187000Y4078000D02*
D03*
X2616000Y2354000D02*
D03*
X2580000Y2380000D02*
D03*
X4586000Y4075000D02*
D03*
X3305000Y2376000D02*
D03*
X3160000Y3069000D02*
D03*
X2989000Y2753000D02*
D03*
X3081000Y1666000D02*
D03*
X3142000Y1660000D02*
D03*
X3413000Y2824000D02*
D03*
X3420000Y1662000D02*
D03*
X3212000Y3022000D02*
D03*
X3319000Y2773000D02*
D03*
X3245000Y3049000D02*
D03*
X3126000Y3100000D02*
D03*
X3213000Y3133000D02*
D03*
X3828000Y1570000D02*
D03*
X2910000Y3103000D02*
D03*
X2855000Y3106000D02*
D03*
X2808000Y3111000D02*
D03*
X3419000Y3054000D02*
D03*
X3363000Y3100000D02*
D03*
X3316000Y3139000D02*
D03*
X3328843Y3016000D02*
D03*
X3265000Y3131000D02*
D03*
X3381000Y3843000D02*
D03*
X3447000Y4158000D02*
D03*
X4738000Y4112000D02*
D03*
X4607000Y2025000D02*
D03*
X4570000Y2066000D02*
D03*
X3120000Y1735000D02*
D03*
X4527000Y3556000D02*
D03*
X4470000Y3486000D02*
D03*
X3851000Y3520000D02*
D03*
X4925000Y3543000D02*
D03*
X4300000Y1854500D02*
D03*
X4400000Y1641000D02*
D03*
X3914236D02*
D03*
X3507000Y1725000D02*
D03*
X3371000Y2850000D02*
D03*
X2558000Y2848000D02*
D03*
X3428386Y2776106D02*
D03*
X3768000Y3796000D02*
D03*
X3817000Y3741000D02*
D03*
X3852000Y3654000D02*
D03*
X3973000Y3263000D02*
D03*
X3814000Y3602000D02*
D03*
X3679000Y3046000D02*
D03*
X3489000Y3090000D02*
D03*
X2531000Y3164000D02*
D03*
X3903000Y2594000D02*
D03*
X3872000Y2642000D02*
D03*
X4001000Y2588000D02*
D03*
X2219000Y2385000D02*
D03*
X2331000Y1186000D02*
D03*
X3195112Y4134500D02*
D03*
X3510000Y3945000D02*
D03*
X3451000Y3967000D02*
D03*
X3416000Y4009000D02*
D03*
X3423000Y4074000D02*
D03*
X3357000Y4076000D02*
D03*
X3281000Y4077000D02*
D03*
X3225000Y4090000D02*
D03*
X3126000Y4136000D02*
D03*
X599000Y3499000D02*
D03*
X2920000Y3954410D02*
D03*
X2987000Y4139000D02*
D03*
X507139Y4109000D02*
D03*
X3685000Y3930000D02*
D03*
X2505000Y3876000D02*
D03*
X3516000Y3403000D02*
D03*
X3346000Y3384000D02*
D03*
X4861000Y3715000D02*
D03*
X4432000Y1607000D02*
D03*
X4211000Y1272000D02*
D03*
X2447000Y3329000D02*
D03*
X3559281Y3024000D02*
D03*
X2457711Y3251000D02*
D03*
X2627000Y3304000D02*
D03*
X3060000Y3099000D02*
D03*
X2962000Y3097000D02*
D03*
X3659597Y3221000D02*
D03*
X3660000Y3134000D02*
D03*
X3598000Y3068000D02*
D03*
X2526000Y2924000D02*
D03*
X4444000Y1375000D02*
D03*
X1339000Y2361000D02*
D03*
X1953000Y2434000D02*
D03*
X4523000Y897000D02*
D03*
X4582000Y1469000D02*
D03*
X3946000Y3410000D02*
D03*
X3880000Y3864000D02*
D03*
X4524000Y3356000D02*
D03*
X2475000Y3685000D02*
D03*
X2515000Y3712000D02*
D03*
X2527000Y3770000D02*
D03*
X2610000Y3827000D02*
D03*
X2398000Y1179000D02*
D03*
X1754000Y1263000D02*
D03*
X1811000Y1282000D02*
D03*
X2511491Y2341470D02*
D03*
X2878912Y2341000D02*
D03*
X3246334Y2340894D02*
D03*
X3633298Y2342106D02*
D03*
X3574843Y1703000D02*
D03*
X3207421D02*
D03*
X2840000D02*
D03*
X2469000Y1700000D02*
D03*
X3303000Y2849000D02*
D03*
X3349000Y2367000D02*
D03*
X4642000Y2228000D02*
D03*
X3005000Y2364000D02*
D03*
X4642000Y2326000D02*
D03*
X4298500Y2305500D02*
D03*
X4639000Y2404000D02*
D03*
Y2495000D02*
D03*
X4287000Y3167000D02*
D03*
X4284000Y3276000D02*
D03*
X3016000Y3594000D02*
D03*
X3708000Y3349000D02*
D03*
X4725000Y3315000D02*
D03*
X4570000Y1063000D02*
D03*
X4269000Y1225000D02*
D03*
X2044000Y3868000D02*
D03*
X4019000Y1608000D02*
D03*
Y1262000D02*
D03*
X3932000Y1274000D02*
D03*
X2831000Y4077000D02*
D03*
X2455000Y4046000D02*
D03*
X2245000Y3852000D02*
D03*
X4214000Y3607000D02*
D03*
X4285000Y3819000D02*
D03*
X4195000Y3764000D02*
D03*
X4432000Y3403000D02*
D03*
X4603000Y2775000D02*
D03*
X4492000Y3008000D02*
D03*
X4512000Y2924000D02*
D03*
X4571000Y2901000D02*
D03*
X4563000Y3108000D02*
D03*
X3421000Y2876636D02*
D03*
X4858000Y2966000D02*
D03*
X3859000Y1320000D02*
D03*
X4650000Y3063000D02*
D03*
X4781000Y2863000D02*
D03*
X3472000Y1303000D02*
D03*
X4704000Y3167000D02*
D03*
X3108000Y1298000D02*
D03*
X2739000Y1300000D02*
D03*
X2043000Y3727000D02*
D03*
X1878000Y3724000D02*
D03*
X2308000Y3343000D02*
D03*
X2270000Y3389000D02*
D03*
X2308000Y2926000D02*
D03*
X2314000Y2878000D02*
D03*
X3792264Y1321151D02*
D03*
X3424843D02*
D03*
X3057421D02*
D03*
X2690000D02*
D03*
X1860000Y2350000D02*
D03*
X4363000Y2448000D02*
D03*
X4405000Y2349000D02*
D03*
X1390800Y3524000D02*
D03*
X1134000Y3557000D02*
D03*
X1195000Y3480000D02*
D03*
X1122000Y2760000D02*
D03*
X1182000Y2759000D02*
D03*
X1132000Y2514000D02*
D03*
X2308477Y1280701D02*
D03*
X2174205Y3039000D02*
D03*
X2221000Y3012000D02*
D03*
X2324000Y3553000D02*
D03*
X1835000Y1714000D02*
D03*
X1414000Y2464000D02*
D03*
X81000Y2590000D02*
D03*
X2322000Y3624000D02*
D03*
X1274000Y3492000D02*
D03*
X2142000Y3067000D02*
D03*
X2106000Y3097000D02*
D03*
X2070000Y3131000D02*
D03*
X2034000Y3165000D02*
D03*
X1999000Y3195000D02*
D03*
X1831000Y3824000D02*
D03*
X2270000Y3500000D02*
D03*
X1299755Y2603000D02*
D03*
X1815000Y2798000D02*
D03*
X2189000Y3501000D02*
D03*
X1305000Y2726000D02*
D03*
X140000Y2772000D02*
D03*
X75000Y3023000D02*
D03*
X1662000Y3712000D02*
D03*
X1566000Y3810000D02*
D03*
X1126000Y2594000D02*
D03*
X1944000Y3883000D02*
D03*
X1464000Y3755000D02*
D03*
X1766000Y3656000D02*
D03*
X1334000Y3497000D02*
D03*
X1230000Y2402000D02*
D03*
X1274000Y2359000D02*
D03*
X1262000Y3645000D02*
D03*
X1290000Y2786000D02*
D03*
X1230000Y2665000D02*
D03*
X1255000Y1875000D02*
D03*
X1256000Y1971000D02*
D03*
X978000Y2361000D02*
D03*
X4184000Y2032000D02*
D03*
D109*
X4141500Y2148000D02*
D03*
X434000Y3484000D02*
D03*
X1103038Y2346000D02*
D03*
X1177038D02*
D03*
X951000Y1389000D02*
D03*
X1025000D02*
D03*
X1177450D02*
D03*
X1103450D02*
D03*
X2736000Y904000D02*
D03*
X2810000D02*
D03*
X2962450D02*
D03*
X2888450D02*
D03*
X3533584Y1051000D02*
D03*
X3607584D02*
D03*
X3760034D02*
D03*
X3686034D02*
D03*
X4097803Y2594000D02*
D03*
X4171803D02*
D03*
X4324254D02*
D03*
X4250254D02*
D03*
X4688000Y3233000D02*
D03*
X4762000D02*
D03*
X4609550D02*
D03*
X4535550D02*
D03*
X1615000Y3520000D02*
D03*
X1229510Y2066000D02*
D03*
X1128000Y1875000D02*
D03*
X894000Y2759000D02*
D03*
X902000Y3485000D02*
D03*
X802000Y3600000D02*
D03*
X2731000Y1743570D02*
D03*
X2459909Y3561000D02*
D03*
X2368000Y4071000D02*
D03*
X3823000Y3997000D02*
D03*
X2963000Y3506000D02*
D03*
X3213643Y3589000D02*
D03*
X4050000Y3269000D02*
D03*
X4587000Y3585000D02*
D03*
X4111000Y1985000D02*
D03*
X4367000Y1239000D02*
D03*
X2352000Y1314000D02*
D03*
X1998000Y700000D02*
D03*
X1384000Y3911000D02*
D03*
X4662000Y1253000D02*
D03*
X4716890Y1443000D02*
D03*
X3153000Y3552795D02*
D03*
X4023000Y2346000D02*
D03*
X1733000Y714000D02*
D03*
D110*
X2948976Y2856342D02*
D03*
D111*
X4399000Y1476638D02*
D03*
%TF.MD5,507a9cab4e9afd86b425cc070a7a9f5d*%
M02*
