%TF.GenerationSoftware,Altium Limited,Altium Designer,19.0.10 (269)*%
G04 Layer_Color=128*
%FSLAX26Y26*%
%MOIN*%
%TF.FileFunction,Paste,Bot*%
%TF.Part,Single*%
G01*
G75*
%TA.AperFunction,SMDPad,CuDef*%
%ADD13R,0.053150X0.045276*%
%ADD31R,0.035433X0.031496*%
%ADD32R,0.033465X0.037402*%
%ADD33R,0.037402X0.033465*%
D13*
X2605181Y3277449D02*
D03*
Y3208551D02*
D03*
X1257000Y3220551D02*
D03*
Y3289449D02*
D03*
X1945591Y3282449D02*
D03*
Y3213551D02*
D03*
X2048000Y542551D02*
D03*
Y611449D02*
D03*
D31*
X1959961Y609402D02*
D03*
Y534598D02*
D03*
X1881220Y572000D02*
D03*
X2693220Y3210598D02*
D03*
Y3285401D02*
D03*
X2771961Y3248000D02*
D03*
X2033630Y3215598D02*
D03*
Y3290401D02*
D03*
X2112370Y3253000D02*
D03*
X1338630Y3219598D02*
D03*
Y3294401D02*
D03*
X1417370Y3257000D02*
D03*
X1291063Y3875725D02*
D03*
X1212323Y3913127D02*
D03*
Y3838324D02*
D03*
X956772Y3875725D02*
D03*
X878032Y3913127D02*
D03*
Y3838324D02*
D03*
X1625353Y3875725D02*
D03*
X1546613Y3913127D02*
D03*
Y3838324D02*
D03*
X3296806Y3875725D02*
D03*
X3218066Y3913127D02*
D03*
Y3838324D02*
D03*
X2962516Y3875725D02*
D03*
X2883776Y3913127D02*
D03*
Y3838324D02*
D03*
X2628225Y3875725D02*
D03*
X2549485Y3913127D02*
D03*
Y3838324D02*
D03*
X2293935Y3875725D02*
D03*
X2215194Y3913127D02*
D03*
Y3838324D02*
D03*
X1959644Y3875725D02*
D03*
X1880904Y3913127D02*
D03*
Y3838324D02*
D03*
X4299678Y3875725D02*
D03*
X4220938Y3913127D02*
D03*
Y3838324D02*
D03*
X3965388Y3875725D02*
D03*
X3886647Y3913127D02*
D03*
Y3838324D02*
D03*
X3631097Y3875725D02*
D03*
X3552357Y3913127D02*
D03*
Y3838324D02*
D03*
D32*
X2873181Y3140000D02*
D03*
X2822000D02*
D03*
X2647181D02*
D03*
X2596000D02*
D03*
X1518591Y3149000D02*
D03*
X1467409D02*
D03*
X1292591D02*
D03*
X1241409D02*
D03*
X2213591Y3145000D02*
D03*
X2162410D02*
D03*
X1987591D02*
D03*
X1936409D02*
D03*
X1780000Y680000D02*
D03*
X1831181D02*
D03*
X2006000D02*
D03*
X2057181D02*
D03*
D33*
X2869181Y3227409D02*
D03*
Y3278590D02*
D03*
X1514591Y3236409D02*
D03*
Y3287590D02*
D03*
X2209590Y3232409D02*
D03*
Y3283590D02*
D03*
X1784000Y592591D02*
D03*
Y541409D02*
D03*
%TF.MD5,8f876c9d887f10ce28625f00e6a0330e*%
M02*
