%TF.GenerationSoftware,Altium Limited,Altium Designer,19.0.12 (326)*%
G04 Layer_Color=128*
%FSLAX26Y26*%
%MOIN*%
%TF.FileFunction,Drillmap*%
%TF.Part,Single*%
G01*
G75*
%TA.AperFunction,NonConductor*%
%ADD79C,0.005000*%
D79*
X1352087Y1765000D02*
X1419016D01*
X1385551Y1731535D02*
Y1798465D01*
X961535Y1765000D02*
X1028465D01*
X995000Y1731535D02*
Y1798465D01*
X1352087Y1898858D02*
X1419016D01*
X1385551Y1865394D02*
Y1932323D01*
X961535Y1898858D02*
X1028465D01*
X995000Y1865394D02*
Y1932323D01*
X961535Y2203780D02*
X1028465D01*
X995000Y2170315D02*
Y2237244D01*
X1352087Y2203780D02*
X1419016D01*
X1385551Y2170315D02*
Y2237244D01*
X961535Y2069921D02*
X1028465D01*
X995000Y2036457D02*
Y2103386D01*
X1352087Y2069921D02*
X1419016D01*
X1385551Y2036457D02*
Y2103386D01*
X1591379Y2186206D02*
X1658308D01*
X1624843Y2152742D02*
Y2219671D01*
X1591379Y2576757D02*
X1658308D01*
X1624843Y2543293D02*
Y2610222D01*
X1725237Y2186206D02*
X1792166D01*
X1758701Y2152742D02*
Y2219671D01*
X1725237Y2576757D02*
X1792166D01*
X1758701Y2543293D02*
Y2610222D01*
X2280025Y2181724D02*
X2346954D01*
X2313490Y2148260D02*
Y2215189D01*
X2280025Y2572276D02*
X2346954D01*
X2313490Y2538811D02*
Y2605740D01*
X2413883Y2181724D02*
X2480812D01*
X2447348Y2148260D02*
Y2215189D01*
X2413883Y2572276D02*
X2480812D01*
X2447348Y2538811D02*
Y2605740D01*
X2945700Y2183724D02*
X3012629D01*
X2979165Y2150260D02*
Y2217189D01*
X2945700Y2574276D02*
X3012629D01*
X2979165Y2540811D02*
Y2607740D01*
X3079559Y2183724D02*
X3146488D01*
X3113023Y2150260D02*
Y2217189D01*
X3079559Y2574276D02*
X3146488D01*
X3113023Y2540811D02*
Y2607740D01*
X3265897Y2184449D02*
X3332826D01*
X3299361Y2150984D02*
Y2217913D01*
X3265897Y2575000D02*
X3332826D01*
X3299361Y2541535D02*
Y2608465D01*
X3399755Y2184449D02*
X3466684D01*
X3433220Y2150984D02*
Y2217913D01*
X3399755Y2575000D02*
X3466684D01*
X3433220Y2541535D02*
Y2608465D01*
X3604782Y2184724D02*
X3671711D01*
X3638246Y2151260D02*
Y2218189D01*
X3604782Y2575276D02*
X3671711D01*
X3638246Y2541811D02*
Y2608740D01*
X3738640Y2184724D02*
X3805569D01*
X3772104Y2151260D02*
Y2218189D01*
X3738640Y2575276D02*
X3805569D01*
X3772104Y2541811D02*
Y2608740D01*
X3944914Y2184898D02*
X4011843D01*
X3978379Y2151434D02*
Y2218363D01*
X3944914Y2575450D02*
X4011843D01*
X3978379Y2541985D02*
Y2608914D01*
X4078772Y2184898D02*
X4145701D01*
X4112237Y2151434D02*
Y2218363D01*
X4078772Y2575450D02*
X4145701D01*
X4112237Y2541985D02*
Y2608914D01*
X3697772Y1771450D02*
X3764701D01*
X3731237Y1737985D02*
Y1804914D01*
X3697772Y1380898D02*
X3764701D01*
X3731237Y1347434D02*
Y1414363D01*
X3563914Y1771450D02*
X3630843D01*
X3597378Y1737985D02*
Y1804914D01*
X3563914Y1380898D02*
X3630843D01*
X3597378Y1347434D02*
Y1414363D01*
X3343422Y1771000D02*
X3410351D01*
X3376886Y1737535D02*
Y1804465D01*
X3343422Y1380449D02*
X3410351D01*
X3376886Y1346984D02*
Y1413913D01*
X3209564Y1771000D02*
X3276492D01*
X3243028Y1737535D02*
Y1804465D01*
X3209564Y1380449D02*
X3276492D01*
X3243028Y1346984D02*
Y1413913D01*
X2989106Y1771450D02*
X3056035D01*
X3022570Y1737985D02*
Y1804914D01*
X2989106Y1380898D02*
X3056035D01*
X3022570Y1347434D02*
Y1414363D01*
X2855247Y1771450D02*
X2922176D01*
X2888712Y1737985D02*
Y1804914D01*
X2855247Y1380898D02*
X2922176D01*
X2888712Y1347434D02*
Y1414363D01*
X2634237Y1771757D02*
X2701166D01*
X2667701Y1738293D02*
Y1805222D01*
X2634237Y1381206D02*
X2701166D01*
X2667701Y1347742D02*
Y1414670D01*
X2500378Y1771757D02*
X2567307D01*
X2533843Y1738293D02*
Y1805222D01*
X2500378Y1381206D02*
X2567307D01*
X2533843Y1347742D02*
Y1414670D01*
X2279850Y1763253D02*
X2346779D01*
X2313314Y1729789D02*
Y1796718D01*
X2279850Y1372702D02*
X2346779D01*
X2313314Y1339238D02*
Y1406167D01*
X2145992Y1763253D02*
X2212921D01*
X2179456Y1729789D02*
Y1796718D01*
X2145992Y1372702D02*
X2212921D01*
X2179456Y1339238D02*
Y1406167D01*
X695276Y2269685D02*
X746457D01*
X720866Y2244095D02*
Y2295276D01*
X695276Y2387795D02*
X746457D01*
X720866Y2362205D02*
Y2413386D01*
X695276Y2505905D02*
X746457D01*
X720866Y2480315D02*
Y2531496D01*
X695276Y2624016D02*
X746457D01*
X720866Y2598425D02*
Y2649606D01*
X695276Y2742126D02*
X746457D01*
X720866Y2716535D02*
Y2767716D01*
X695276Y2860236D02*
X746457D01*
X720866Y2834646D02*
Y2885827D01*
X695276Y2978347D02*
X746457D01*
X720866Y2952756D02*
Y3003937D01*
X695276Y3096457D02*
X746457D01*
X720866Y3070866D02*
Y3122047D01*
X695276Y3214567D02*
X746457D01*
X720866Y3188976D02*
Y3240157D01*
X596850Y2328740D02*
X648031D01*
X622441Y2303150D02*
Y2354331D01*
X596850Y2446850D02*
X648031D01*
X622441Y2421260D02*
Y2472441D01*
X596850Y2564961D02*
X648031D01*
X622441Y2539370D02*
Y2590551D01*
X596850Y2683071D02*
X648031D01*
X622441Y2657480D02*
Y2708661D01*
X596850Y2801181D02*
X648031D01*
X622441Y2775591D02*
Y2826772D01*
X596850Y2919291D02*
X648031D01*
X622441Y2893701D02*
Y2944882D01*
X596850Y3037402D02*
X648031D01*
X622441Y3011811D02*
Y3062992D01*
X596850Y3155512D02*
X648031D01*
X622441Y3129921D02*
Y3181102D01*
X478740Y2328740D02*
X529921D01*
X504331Y2303150D02*
Y2354331D01*
X478740Y2446850D02*
X529921D01*
X504331Y2421260D02*
Y2472441D01*
X478740Y2564961D02*
X529921D01*
X504331Y2539370D02*
Y2590551D01*
X478740Y2683071D02*
X529921D01*
X504331Y2657480D02*
Y2708661D01*
X478740Y2801181D02*
X529921D01*
X504331Y2775591D02*
Y2826772D01*
X478740Y2919291D02*
X529921D01*
X504331Y2893701D02*
Y2944882D01*
X478740Y3037402D02*
X529921D01*
X504331Y3011811D02*
Y3062992D01*
X478740Y3155512D02*
X529921D01*
X504331Y3129921D02*
Y3181102D01*
X380315Y2269685D02*
X431496D01*
X405906Y2244095D02*
Y2295276D01*
X380315Y2387795D02*
X431496D01*
X405906Y2362205D02*
Y2413386D01*
X380315Y2505905D02*
X431496D01*
X405906Y2480315D02*
Y2531496D01*
X380315Y2624016D02*
X431496D01*
X405906Y2598425D02*
Y2649606D01*
X380315Y2742126D02*
X431496D01*
X405906Y2716535D02*
Y2767716D01*
X380315Y2860236D02*
X431496D01*
X405906Y2834646D02*
Y2885827D01*
X380315Y2978347D02*
X431496D01*
X405906Y2952756D02*
Y3003937D01*
X380315Y3096457D02*
X431496D01*
X405906Y3070866D02*
Y3122047D01*
X380315Y3214567D02*
X431496D01*
X405906Y3188976D02*
Y3240157D01*
X85039Y704724D02*
X214961D01*
X150000Y639764D02*
Y769685D01*
X380315Y1698819D02*
X431496D01*
X405906Y1673228D02*
Y1724409D01*
X380315Y1580709D02*
X431496D01*
X405906Y1555118D02*
Y1606299D01*
X380315Y1462599D02*
X431496D01*
X405906Y1437008D02*
Y1488189D01*
X380315Y1344488D02*
X431496D01*
X405906Y1318898D02*
Y1370079D01*
X380315Y1226378D02*
X431496D01*
X405906Y1200787D02*
Y1251968D01*
X380315Y1108268D02*
X431496D01*
X405906Y1082677D02*
Y1133858D01*
X380315Y990158D02*
X431496D01*
X405906Y964567D02*
Y1015748D01*
X478740Y1639764D02*
X529921D01*
X504331Y1614173D02*
Y1665354D01*
X478740Y1521654D02*
X529921D01*
X504331Y1496063D02*
Y1547244D01*
X478740Y1403543D02*
X529921D01*
X504331Y1377953D02*
Y1429134D01*
X478740Y1285433D02*
X529921D01*
X504331Y1259843D02*
Y1311024D01*
X478740Y1167323D02*
X529921D01*
X504331Y1141732D02*
Y1192913D01*
X478740Y1049213D02*
X529921D01*
X504331Y1023622D02*
Y1074803D01*
X596850Y1639764D02*
X648031D01*
X622441Y1614173D02*
Y1665354D01*
X596850Y1521654D02*
X648031D01*
X622441Y1496063D02*
Y1547244D01*
X596850Y1403543D02*
X648031D01*
X622441Y1377953D02*
Y1429134D01*
X596850Y1285433D02*
X648031D01*
X622441Y1259843D02*
Y1311024D01*
X596850Y1167323D02*
X648031D01*
X622441Y1141732D02*
Y1192913D01*
X596850Y1049213D02*
X648031D01*
X622441Y1023622D02*
Y1074803D01*
X695276Y1698819D02*
X746457D01*
X720866Y1673228D02*
Y1724409D01*
X695276Y1580709D02*
X746457D01*
X720866Y1555118D02*
Y1606299D01*
X695276Y1462599D02*
X746457D01*
X720866Y1437008D02*
Y1488189D01*
X695276Y1344488D02*
X746457D01*
X720866Y1318898D02*
Y1370079D01*
X695276Y1226378D02*
X746457D01*
X720866Y1200787D02*
Y1251968D01*
X695276Y1108268D02*
X746457D01*
X720866Y1082677D02*
Y1133858D01*
X695276Y990158D02*
X746457D01*
X720866Y964567D02*
Y1015748D01*
X85039Y1984252D02*
X214961D01*
X150000Y1919291D02*
Y2049213D01*
X85039Y3500000D02*
X214961D01*
X150000Y3435039D02*
Y3564961D01*
X1151000Y1552000D02*
X1181000D01*
X1166000Y1537000D02*
Y1567000D01*
X1762000Y1401000D02*
X1792000D01*
X1777000Y1386000D02*
Y1416000D01*
X1475000Y1380000D02*
X1505000D01*
X1490000Y1365000D02*
Y1395000D01*
X4637500Y300000D02*
X4762500D01*
X4700000Y237500D02*
Y362500D01*
X4637500Y3900000D02*
X4762500D01*
X4700000Y3837500D02*
Y3962500D01*
X237500Y3900000D02*
X362500D01*
X300000Y3837500D02*
Y3962500D01*
X237500Y300000D02*
X362500D01*
X300000Y237500D02*
Y362500D01*
X2617097Y2449512D02*
X2672215D01*
X2644656Y2421953D02*
Y2477071D01*
X2591506Y2823528D02*
X2646624D01*
X2619065Y2795968D02*
Y2851086D01*
X2741112Y2685732D02*
X2796230D01*
X2768671Y2658173D02*
Y2713291D01*
X2792293Y3040063D02*
X2835600D01*
X2813947Y3018410D02*
Y3061716D01*
X2623002Y3040063D02*
X2666309D01*
X2644656Y3018410D02*
Y3061716D01*
X1951441Y2452449D02*
X2006560D01*
X1979001Y2424890D02*
Y2480008D01*
X1925851Y2826465D02*
X1980969D01*
X1953410Y2798906D02*
Y2854024D01*
X2075457Y2688670D02*
X2130575D01*
X2103016Y2661111D02*
Y2716229D01*
X2126638Y3043001D02*
X2169945D01*
X2148292Y3021347D02*
Y3064654D01*
X1957347Y3043001D02*
X2000654D01*
X1979001Y3021347D02*
Y3064654D01*
X1258441Y2466449D02*
X1313559D01*
X1286000Y2438890D02*
Y2494008D01*
X1232851Y2840465D02*
X1287969D01*
X1260410Y2812905D02*
Y2868023D01*
X1382457Y2702669D02*
X1437575D01*
X1410016Y2675110D02*
Y2730228D01*
X1433638Y3057000D02*
X1476945D01*
X1455292Y3035347D02*
Y3078653D01*
X1264347Y3057000D02*
X1307654D01*
X1286000Y3035347D02*
Y3078653D01*
X1984370Y1364551D02*
X2039488D01*
X2011929Y1336992D02*
Y1392110D01*
X2009961Y990535D02*
X2065079D01*
X2037520Y962976D02*
Y1018095D01*
X1860354Y1128331D02*
X1915472D01*
X1887913Y1100772D02*
Y1155890D01*
X1820984Y774000D02*
X1864291D01*
X1842638Y752346D02*
Y795654D01*
X1990275Y774000D02*
X2033582D01*
X2011929Y752346D02*
Y795654D01*
X1862294Y3570439D02*
X1890294D01*
X1876294Y3556439D02*
Y3584439D01*
X2232000Y829000D02*
X2260000D01*
X2246000Y815000D02*
Y843000D01*
X1179000Y3066000D02*
X1207000D01*
X1193000Y3052000D02*
Y3080000D01*
X1687000Y3133000D02*
X1715000D01*
X1701000Y3119000D02*
Y3147000D01*
X920000Y3524000D02*
X948000D01*
X934000Y3510000D02*
Y3538000D01*
X3514000Y1553000D02*
X3542000D01*
X3528000Y1539000D02*
Y1567000D01*
X2353000Y3048000D02*
X2381000D01*
X2367000Y3034000D02*
Y3062000D01*
X2462217Y3214567D02*
X2490217D01*
X2476217Y3200567D02*
Y3228567D01*
X150695Y2380000D02*
X178695D01*
X164695Y2366000D02*
Y2394000D01*
X166000Y2769010D02*
X194000D01*
X180000Y2755010D02*
Y2783010D01*
X4330456Y3600000D02*
X4358456D01*
X4344456Y3586000D02*
Y3614000D01*
X3328396Y3600000D02*
X3356396D01*
X3342396Y3586000D02*
Y3614000D01*
X583000Y3810000D02*
X611000D01*
X597000Y3796000D02*
Y3824000D01*
X4846000Y2850000D02*
X4874000D01*
X4860000Y2836000D02*
Y2864000D01*
X213000Y1634278D02*
X241000D01*
X227000Y1620278D02*
Y1648278D01*
X476000Y2162952D02*
X504000D01*
X490000Y2148952D02*
Y2176952D01*
X376000Y1990000D02*
X404000D01*
X390000Y1976000D02*
Y2004000D01*
X3846000Y2400000D02*
X3874000D01*
X3860000Y2386000D02*
Y2414000D01*
X3188201Y2400000D02*
X3216201D01*
X3202201Y2386000D02*
Y2414000D01*
X2766726Y1510000D02*
X2794726D01*
X2780726Y1496000D02*
Y1524000D01*
X4696000Y1420000D02*
X4724000D01*
X4710000Y1406000D02*
Y1434000D01*
X4496000Y2710000D02*
X4524000D01*
X4510000Y2696000D02*
Y2724000D01*
X3916000Y3120000D02*
X3944000D01*
X3930000Y3106000D02*
Y3134000D01*
X3406000Y2980000D02*
X3434000D01*
X3420000Y2966000D02*
Y2994000D01*
X2976000Y2840465D02*
X3004000D01*
X2990000Y2826465D02*
Y2854465D01*
X2426000Y2884821D02*
X2454000D01*
X2440000Y2870821D02*
Y2898821D01*
X1156000Y1984252D02*
X1184000D01*
X1170000Y1970252D02*
Y1998252D01*
X1132000Y2530000D02*
X1160000D01*
X1146000Y2516000D02*
Y2544000D01*
X966000Y1410000D02*
X994000D01*
X980000Y1396000D02*
Y1424000D01*
X906000Y1000000D02*
X934000D01*
X920000Y986000D02*
Y1014000D01*
X1326000Y930000D02*
X1354000D01*
X1340000Y916000D02*
Y944000D01*
X2166000Y1060000D02*
X2194000D01*
X2180000Y1046000D02*
Y1074000D01*
X1406000Y700000D02*
X1434000D01*
X1420000Y686000D02*
Y714000D01*
X2587000Y1215000D02*
X2615000D01*
X2601000Y1201000D02*
Y1229000D01*
X2546000Y822000D02*
X2574000D01*
X2560000Y808000D02*
Y836000D01*
X2869776Y820000D02*
X2897776D01*
X2883776Y806000D02*
Y834000D01*
X4290000Y1270000D02*
X4318000D01*
X4304000Y1256000D02*
Y1284000D01*
X3026000Y290000D02*
X3054000D01*
X3040000Y276000D02*
Y304000D01*
X1981969Y240000D02*
X2009969D01*
X1995969Y226000D02*
Y254000D01*
X1096000Y250000D02*
X1124000D01*
X1110000Y236000D02*
Y264000D01*
X3951388Y3768482D02*
X3979388D01*
X3965388Y3754482D02*
Y3782482D01*
X1945644Y3768482D02*
X1973644D01*
X1959644Y3754482D02*
Y3782482D01*
X1611353Y3768482D02*
X1639353D01*
X1625353Y3754482D02*
Y3782482D01*
X1867888Y3770726D02*
X1895888D01*
X1881888Y3756726D02*
Y3784726D01*
X4596000Y3080000D02*
X4624000D01*
X4610000Y3066000D02*
Y3094000D01*
X4596000Y3185000D02*
X4624000D01*
X4610000Y3171000D02*
Y3199000D01*
X4596000Y3290000D02*
X4624000D01*
X4610000Y3276000D02*
Y3304000D01*
X4596000Y3395000D02*
X4624000D01*
X4610000Y3381000D02*
Y3409000D01*
X4596000Y3500000D02*
X4624000D01*
X4610000Y3486000D02*
Y3514000D01*
X3996977Y3600000D02*
X4024977D01*
X4010977Y3586000D02*
Y3614000D01*
X3662686Y3600000D02*
X3690686D01*
X3676686Y3586000D02*
Y3614000D01*
X3282806Y3768482D02*
X3310806D01*
X3296806Y3754482D02*
Y3782482D01*
X2994105Y3600000D02*
X3022105D01*
X3008105Y3586000D02*
Y3614000D01*
X2659814Y3600000D02*
X2687814D01*
X2673814Y3586000D02*
Y3614000D01*
X1277063Y3768482D02*
X1305063D01*
X1291063Y3754482D02*
Y3782482D01*
X1198323Y3989740D02*
X1226323D01*
X1212323Y3975740D02*
Y4003740D01*
X1199307Y3770726D02*
X1227307D01*
X1213307Y3756726D02*
Y3784726D01*
X1532613Y3989740D02*
X1560613D01*
X1546613Y3975740D02*
Y4003740D01*
X1533597Y3770726D02*
X1561597D01*
X1547597Y3756726D02*
Y3784726D01*
X3617097Y3768482D02*
X3645097D01*
X3631097Y3754482D02*
Y3782482D01*
X3538357Y3989740D02*
X3566357D01*
X3552357Y3975740D02*
Y4003740D01*
X3539341Y3770726D02*
X3567341D01*
X3553341Y3756726D02*
Y3784726D01*
X3872647Y3989740D02*
X3900647D01*
X3886647Y3975740D02*
Y4003740D01*
X3873632Y3770726D02*
X3901632D01*
X3887632Y3756726D02*
Y3784726D01*
X4285678Y3768482D02*
X4313678D01*
X4299678Y3754482D02*
Y3782482D01*
X4206938Y3989740D02*
X4234938D01*
X4220938Y3975740D02*
Y4003740D01*
X4207922Y3770726D02*
X4235922D01*
X4221922Y3756726D02*
Y3784726D01*
X1866904Y3989740D02*
X1894904D01*
X1880904Y3975740D02*
Y4003740D01*
X2279935Y3768482D02*
X2307935D01*
X2293935Y3754482D02*
Y3782482D01*
X2201194Y3989740D02*
X2229194D01*
X2215194Y3975740D02*
Y4003740D01*
X2202179Y3770726D02*
X2230179D01*
X2216179Y3756726D02*
Y3784726D01*
X2614225Y3768482D02*
X2642225D01*
X2628225Y3754482D02*
Y3782482D01*
X2535485Y3989740D02*
X2563485D01*
X2549485Y3975740D02*
Y4003740D01*
X2536469Y3770726D02*
X2564469D01*
X2550469Y3756726D02*
Y3784726D01*
X2948516Y3768482D02*
X2976516D01*
X2962516Y3754482D02*
Y3782482D01*
X2869776Y3989740D02*
X2897776D01*
X2883776Y3975740D02*
Y4003740D01*
X2870760Y3770726D02*
X2898760D01*
X2884760Y3756726D02*
Y3784726D01*
X3204066Y3989740D02*
X3232066D01*
X3218066Y3975740D02*
Y4003740D01*
X3205050Y3770726D02*
X3233050D01*
X3219050Y3756726D02*
Y3784726D01*
X942772Y3768482D02*
X970772D01*
X956772Y3754482D02*
Y3782482D01*
X864032Y3989740D02*
X892032D01*
X878032Y3975740D02*
Y4003740D01*
X865016Y3770726D02*
X893016D01*
X879016Y3756726D02*
Y3784726D01*
%TF.MD5,80fe82cec92b441556b5eef39828b7fb*%
M02*
