%TF.GenerationSoftware,Altium Limited,Altium Designer,19.0.10 (269)*%
G04 Layer_Color=255*
%FSLAX26Y26*%
%MOIN*%
%TF.FileFunction,Pads,Bot*%
%TF.Part,Single*%
G01*
G75*
%TA.AperFunction,SMDPad,CuDef*%
%ADD12R,0.053150X0.045276*%
%TA.AperFunction,ComponentPad*%
%ADD23C,0.094488*%
%ADD24C,0.086614*%
%ADD25C,0.129921*%
%TA.AperFunction,ViaPad*%
%ADD26C,0.060000*%
%ADD27C,0.250000*%
%TA.AperFunction,ComponentPad*%
%ADD28C,0.098425*%
%ADD29C,0.078740*%
%TA.AperFunction,SMDPad,CuDef*%
%ADD31R,0.035433X0.031496*%
D12*
X1826929Y455102D02*
D03*
Y524000D02*
D03*
X1936929Y455102D02*
D03*
Y524000D02*
D03*
X2033584D02*
D03*
Y455102D02*
D03*
X1264345Y3307000D02*
D03*
Y3375898D02*
D03*
X1361000D02*
D03*
Y3307000D02*
D03*
X1471000Y3375898D02*
D03*
Y3307000D02*
D03*
X1957346Y3293001D02*
D03*
Y3361898D02*
D03*
X2054000D02*
D03*
Y3293001D02*
D03*
X2164000Y3361898D02*
D03*
Y3293001D02*
D03*
X2623001Y3290063D02*
D03*
Y3358961D02*
D03*
X2719655D02*
D03*
Y3290063D02*
D03*
X2829655Y3358961D02*
D03*
Y3290063D02*
D03*
D23*
X1385551Y1765000D02*
D03*
X995000D02*
D03*
X1385551Y1898858D02*
D03*
X995000D02*
D03*
Y2203780D02*
D03*
X1385551D02*
D03*
X995000Y2069921D02*
D03*
X1385551D02*
D03*
X1624843Y2186206D02*
D03*
Y2576757D02*
D03*
X1758701Y2186206D02*
D03*
Y2576757D02*
D03*
X2313490Y2181724D02*
D03*
Y2572276D02*
D03*
X2447348Y2181724D02*
D03*
Y2572276D02*
D03*
X2979165Y2183724D02*
D03*
Y2574276D02*
D03*
X3113023Y2183724D02*
D03*
Y2574276D02*
D03*
X3299361Y2184449D02*
D03*
Y2575000D02*
D03*
X3433220Y2184449D02*
D03*
Y2575000D02*
D03*
X3638246Y2184724D02*
D03*
Y2575276D02*
D03*
X3772104Y2184724D02*
D03*
Y2575276D02*
D03*
X3978379Y2184898D02*
D03*
Y2575450D02*
D03*
X4112237Y2184898D02*
D03*
Y2575450D02*
D03*
X3731237Y1771450D02*
D03*
Y1380898D02*
D03*
X3597378Y1771450D02*
D03*
Y1380898D02*
D03*
X3376886Y1771000D02*
D03*
Y1380449D02*
D03*
X3243028Y1771000D02*
D03*
Y1380449D02*
D03*
X3022570Y1771450D02*
D03*
Y1380898D02*
D03*
X2888712Y1771450D02*
D03*
Y1380898D02*
D03*
X2667701Y1771757D02*
D03*
Y1381206D02*
D03*
X2533843Y1771757D02*
D03*
Y1381206D02*
D03*
X2313314Y1763253D02*
D03*
Y1372702D02*
D03*
X2179456Y1763253D02*
D03*
Y1372702D02*
D03*
D24*
X720866Y2269685D02*
D03*
Y2387795D02*
D03*
Y2505905D02*
D03*
Y2624016D02*
D03*
Y2742126D02*
D03*
Y2860236D02*
D03*
Y2978347D02*
D03*
Y3096457D02*
D03*
Y3214567D02*
D03*
X622441Y2328740D02*
D03*
Y2446850D02*
D03*
Y2564961D02*
D03*
Y2683071D02*
D03*
Y2801181D02*
D03*
Y2919291D02*
D03*
Y3037402D02*
D03*
Y3155512D02*
D03*
X504331Y2328740D02*
D03*
Y2446850D02*
D03*
Y2564961D02*
D03*
Y2683071D02*
D03*
Y2801181D02*
D03*
Y2919291D02*
D03*
Y3037402D02*
D03*
Y3155512D02*
D03*
X405906Y2269685D02*
D03*
Y2387795D02*
D03*
Y2505905D02*
D03*
Y2624016D02*
D03*
Y2742126D02*
D03*
Y2860236D02*
D03*
Y2978347D02*
D03*
Y3096457D02*
D03*
Y3214567D02*
D03*
Y1698819D02*
D03*
Y1580709D02*
D03*
Y1462599D02*
D03*
Y1344488D02*
D03*
Y1226378D02*
D03*
Y1108268D02*
D03*
Y990158D02*
D03*
X504331Y1639764D02*
D03*
Y1521654D02*
D03*
Y1403543D02*
D03*
Y1285433D02*
D03*
Y1167323D02*
D03*
Y1049213D02*
D03*
X622441Y1639764D02*
D03*
Y1521654D02*
D03*
Y1403543D02*
D03*
Y1285433D02*
D03*
Y1167323D02*
D03*
Y1049213D02*
D03*
X720866Y1698819D02*
D03*
Y1580709D02*
D03*
Y1462599D02*
D03*
Y1344488D02*
D03*
Y1226378D02*
D03*
Y1108268D02*
D03*
Y990158D02*
D03*
D25*
X150000Y704724D02*
D03*
Y1984252D02*
D03*
Y3500000D02*
D03*
D26*
X1166000Y1552000D02*
D03*
X1777000Y1401000D02*
D03*
X1490000Y1380000D02*
D03*
D27*
X4700000Y300000D02*
D03*
Y3900000D02*
D03*
X300000D02*
D03*
Y300000D02*
D03*
D28*
X2644656Y2449512D02*
D03*
X2619065Y2823528D02*
D03*
X2768671Y2685732D02*
D03*
X1979001Y2452449D02*
D03*
X1953410Y2826465D02*
D03*
X2103016Y2688670D02*
D03*
X1286000Y2466449D02*
D03*
X1260410Y2840465D02*
D03*
X1410016Y2702669D02*
D03*
X2011929Y1364551D02*
D03*
X2037520Y990535D02*
D03*
X1887913Y1128331D02*
D03*
D29*
X2813947Y3040063D02*
D03*
X2644656D02*
D03*
X2148292Y3043001D02*
D03*
X1979001D02*
D03*
X1455292Y3057000D02*
D03*
X1286000D02*
D03*
X1842638Y774000D02*
D03*
X2011929D02*
D03*
D31*
X1291063Y3875725D02*
D03*
X1212323Y3913127D02*
D03*
Y3838324D02*
D03*
X956772Y3875725D02*
D03*
X878032Y3913127D02*
D03*
Y3838324D02*
D03*
X1625353Y3875725D02*
D03*
X1546613Y3913127D02*
D03*
Y3838324D02*
D03*
X3296806Y3875725D02*
D03*
X3218066Y3913127D02*
D03*
Y3838324D02*
D03*
X2962516Y3875725D02*
D03*
X2883776Y3913127D02*
D03*
Y3838324D02*
D03*
X2628225Y3875725D02*
D03*
X2549485Y3913127D02*
D03*
Y3838324D02*
D03*
X2293935Y3875725D02*
D03*
X2215194Y3913127D02*
D03*
Y3838324D02*
D03*
X1959644Y3875725D02*
D03*
X1880904Y3913127D02*
D03*
Y3838324D02*
D03*
X4299678Y3875725D02*
D03*
X4220938Y3913127D02*
D03*
Y3838324D02*
D03*
X3965388Y3875725D02*
D03*
X3886647Y3913127D02*
D03*
Y3838324D02*
D03*
X3631097Y3875725D02*
D03*
X3552357Y3913127D02*
D03*
Y3838324D02*
D03*
%TF.MD5,062b4777b42429cfd404b6d9389910cb*%
M02*
