%TF.GenerationSoftware,Altium Limited,Altium Designer,19.0.10 (269)*%
G04 Layer_Color=56026*
%FSLAX26Y26*%
%MOIN*%
%TF.FileFunction,Legend,Bot*%
%TF.Part,Single*%
G01*
G75*
%TA.AperFunction,NonConductor*%
%ADD34C,0.009842*%
%ADD35C,0.010000*%
%ADD36C,0.007874*%
%ADD37C,0.005906*%
%ADD38C,0.008000*%
G36*
X1904609Y503462D02*
X1906108Y503184D01*
X1907384Y502740D01*
X1908494Y502296D01*
X1908994Y502019D01*
X1909382Y501796D01*
X1909771Y501575D01*
X1910048Y501353D01*
X1910270Y501186D01*
X1910437Y501075D01*
X1910547Y501019D01*
X1910603Y500964D01*
X1911658Y499909D01*
X1912490Y498744D01*
X1913156Y497523D01*
X1913711Y496302D01*
X1914044Y495248D01*
X1914210Y494803D01*
X1914322Y494415D01*
X1914377Y494082D01*
X1914432Y493860D01*
X1914488Y493693D01*
Y493638D01*
X1909771Y492805D01*
X1909549Y494026D01*
X1909216Y495081D01*
X1908827Y495969D01*
X1908438Y496690D01*
X1908050Y497245D01*
X1907717Y497634D01*
X1907495Y497911D01*
X1907439Y497967D01*
X1906718Y498522D01*
X1905941Y498966D01*
X1905219Y499243D01*
X1904498Y499466D01*
X1903832Y499577D01*
X1903332Y499688D01*
X1902889D01*
X1901889Y499632D01*
X1901002Y499410D01*
X1900225Y499132D01*
X1899559Y498855D01*
X1899059Y498522D01*
X1898670Y498245D01*
X1898393Y498022D01*
X1898338Y497967D01*
X1897727Y497301D01*
X1897283Y496579D01*
X1897005Y495858D01*
X1896784Y495192D01*
X1896672Y494582D01*
X1896562Y494137D01*
Y493805D01*
Y493749D01*
Y493693D01*
Y493083D01*
X1896672Y492528D01*
X1896950Y491584D01*
X1897339Y490752D01*
X1897783Y490031D01*
X1898226Y489531D01*
X1898615Y489142D01*
X1898892Y488921D01*
X1898948Y488865D01*
X1899004D01*
X1899947Y488365D01*
X1900835Y487977D01*
X1901778Y487700D01*
X1902611Y487533D01*
X1903332Y487422D01*
X1903943Y487311D01*
X1904665D01*
X1904887Y487366D01*
X1905164D01*
X1905719Y483204D01*
X1904997Y483370D01*
X1904332Y483481D01*
X1903776Y483592D01*
X1903277Y483648D01*
X1902889Y483704D01*
X1902389D01*
X1901224Y483592D01*
X1900169Y483370D01*
X1899226Y483038D01*
X1898448Y482649D01*
X1897838Y482260D01*
X1897394Y481928D01*
X1897117Y481705D01*
X1897005Y481594D01*
X1896284Y480762D01*
X1895729Y479874D01*
X1895341Y478986D01*
X1895119Y478098D01*
X1894952Y477377D01*
X1894897Y476766D01*
X1894841Y476544D01*
Y476377D01*
Y476267D01*
Y476211D01*
X1894952Y474990D01*
X1895229Y473880D01*
X1895562Y472937D01*
X1896006Y472104D01*
X1896450Y471438D01*
X1896784Y470938D01*
X1897061Y470606D01*
X1897172Y470495D01*
X1898060Y469717D01*
X1899004Y469163D01*
X1899947Y468774D01*
X1900835Y468497D01*
X1901612Y468330D01*
X1902223Y468274D01*
X1902445Y468219D01*
X1902777D01*
X1903776Y468274D01*
X1904720Y468497D01*
X1905553Y468774D01*
X1906218Y469107D01*
X1906774Y469385D01*
X1907217Y469662D01*
X1907439Y469884D01*
X1907551Y469940D01*
X1908216Y470716D01*
X1908772Y471604D01*
X1909271Y472548D01*
X1909659Y473547D01*
X1909937Y474380D01*
X1910048Y474768D01*
X1910103Y475101D01*
X1910159Y475378D01*
X1910215Y475601D01*
X1910270Y475712D01*
Y475767D01*
X1914987Y475156D01*
X1914877Y474269D01*
X1914710Y473436D01*
X1914210Y471882D01*
X1913600Y470550D01*
X1913267Y469995D01*
X1912934Y469440D01*
X1912601Y468940D01*
X1912268Y468552D01*
X1911991Y468163D01*
X1911713Y467886D01*
X1911546Y467664D01*
X1911380Y467498D01*
X1911269Y467387D01*
X1911214Y467331D01*
X1910547Y466832D01*
X1909881Y466332D01*
X1909216Y465943D01*
X1908494Y465611D01*
X1907107Y465055D01*
X1905774Y464723D01*
X1905164Y464611D01*
X1904609Y464500D01*
X1904110Y464445D01*
X1903666Y464389D01*
X1903332Y464334D01*
X1902833D01*
X1901778Y464389D01*
X1900835Y464500D01*
X1899891Y464667D01*
X1899004Y464889D01*
X1898171Y465166D01*
X1897449Y465444D01*
X1896728Y465777D01*
X1896118Y466110D01*
X1895507Y466387D01*
X1895007Y466721D01*
X1894563Y466998D01*
X1894230Y467276D01*
X1893953Y467498D01*
X1893731Y467664D01*
X1893620Y467775D01*
X1893564Y467830D01*
X1892899Y468497D01*
X1892343Y469218D01*
X1891844Y469940D01*
X1891400Y470661D01*
X1891067Y471327D01*
X1890734Y472048D01*
X1890290Y473380D01*
X1890179Y473991D01*
X1890068Y474546D01*
X1889957Y475046D01*
X1889901Y475490D01*
X1889846Y475822D01*
Y476100D01*
Y476267D01*
Y476322D01*
X1889901Y477654D01*
X1890123Y478875D01*
X1890457Y479930D01*
X1890790Y480817D01*
X1891122Y481539D01*
X1891456Y482094D01*
X1891678Y482427D01*
X1891733Y482538D01*
X1892510Y483370D01*
X1893342Y484092D01*
X1894230Y484647D01*
X1895119Y485091D01*
X1895896Y485424D01*
X1896506Y485646D01*
X1896728Y485702D01*
X1896895Y485757D01*
X1897005Y485812D01*
X1897061D01*
X1896118Y486312D01*
X1895341Y486812D01*
X1894675Y487366D01*
X1894120Y487866D01*
X1893676Y488310D01*
X1893342Y488699D01*
X1893176Y488921D01*
X1893120Y489031D01*
X1892677Y489808D01*
X1892343Y490586D01*
X1892066Y491363D01*
X1891899Y492084D01*
X1891789Y492695D01*
X1891733Y493139D01*
Y493471D01*
Y493582D01*
X1891789Y494526D01*
X1891955Y495469D01*
X1892177Y496302D01*
X1892455Y497024D01*
X1892732Y497634D01*
X1892954Y498134D01*
X1893120Y498411D01*
X1893176Y498522D01*
X1893731Y499354D01*
X1894397Y500076D01*
X1895063Y500687D01*
X1895729Y501241D01*
X1896284Y501630D01*
X1896784Y501963D01*
X1897117Y502130D01*
X1897172Y502185D01*
X1897227D01*
X1898226Y502629D01*
X1899226Y502962D01*
X1900225Y503240D01*
X1901112Y503406D01*
X1901834Y503517D01*
X1902445Y503572D01*
X1903832D01*
X1904609Y503462D01*
D02*
G37*
G36*
X1958000Y465000D02*
X1953116D01*
Y497690D01*
X1942016Y465000D01*
X1937465D01*
X1926254Y497135D01*
Y465000D01*
X1921370D01*
Y503406D01*
X1928197D01*
X1937409Y476655D01*
X1937909Y475212D01*
X1938297Y473991D01*
X1938686Y472937D01*
X1938964Y472048D01*
X1939186Y471382D01*
X1939352Y470883D01*
X1939408Y470606D01*
X1939463Y470495D01*
X1939685Y471272D01*
X1939963Y472159D01*
X1940295Y473103D01*
X1940573Y474046D01*
X1940851Y474879D01*
X1941072Y475545D01*
X1941184Y475822D01*
X1941239Y475989D01*
X1941294Y476100D01*
Y476156D01*
X1950397Y503406D01*
X1958000D01*
Y465000D01*
D02*
G37*
G36*
X2706890Y3357629D02*
X2707501Y3356741D01*
X2708222Y3355853D01*
X2708889Y3355076D01*
X2709555Y3354410D01*
X2710054Y3353855D01*
X2710276Y3353689D01*
X2710443Y3353522D01*
X2710498Y3353466D01*
X2710553Y3353411D01*
X2711719Y3352468D01*
X2712885Y3351579D01*
X2713994Y3350802D01*
X2715104Y3350192D01*
X2716048Y3349637D01*
X2716436Y3349415D01*
X2716769Y3349249D01*
X2717047Y3349082D01*
X2717269Y3349026D01*
X2717380Y3348916D01*
X2717436D01*
Y3344365D01*
X2716603Y3344698D01*
X2715771Y3345086D01*
X2714938Y3345474D01*
X2714161Y3345863D01*
X2713495Y3346196D01*
X2712940Y3346474D01*
X2712607Y3346695D01*
X2712552Y3346751D01*
X2712496D01*
X2711497Y3347361D01*
X2710609Y3347972D01*
X2709832Y3348527D01*
X2709222Y3349026D01*
X2708666Y3349415D01*
X2708334Y3349748D01*
X2708056Y3349970D01*
X2708001Y3350026D01*
Y3320000D01*
X2703283D01*
Y3358573D01*
X2706336D01*
X2706890Y3357629D01*
D02*
G37*
G36*
X2764000Y3320000D02*
X2759116D01*
Y3352689D01*
X2748016Y3320000D01*
X2743465D01*
X2732254Y3352135D01*
Y3320000D01*
X2727370D01*
Y3358406D01*
X2734197D01*
X2743410Y3331655D01*
X2743909Y3330212D01*
X2744298Y3328991D01*
X2744686Y3327936D01*
X2744963Y3327048D01*
X2745186Y3326383D01*
X2745352Y3325883D01*
X2745407Y3325606D01*
X2745463Y3325494D01*
X2745685Y3326271D01*
X2745963Y3327160D01*
X2746296Y3328103D01*
X2746573Y3329046D01*
X2746851Y3329879D01*
X2747073Y3330545D01*
X2747184Y3330823D01*
X2747239Y3330989D01*
X2747294Y3331100D01*
Y3331155D01*
X2756396Y3358406D01*
X2764000D01*
Y3320000D01*
D02*
G37*
G36*
X2051332Y3362517D02*
X2052276Y3362461D01*
X2053164Y3362295D01*
X2053997Y3362128D01*
X2054773Y3361907D01*
X2055495Y3361684D01*
X2056161Y3361407D01*
X2056771Y3361130D01*
X2057327Y3360852D01*
X2057771Y3360575D01*
X2058159Y3360352D01*
X2058492Y3360131D01*
X2058769Y3359964D01*
X2058936Y3359798D01*
X2059047Y3359742D01*
X2059102Y3359686D01*
X2059657Y3359131D01*
X2060157Y3358521D01*
X2060657Y3357855D01*
X2061045Y3357189D01*
X2061711Y3355857D01*
X2062155Y3354525D01*
X2062322Y3353914D01*
X2062488Y3353304D01*
X2062599Y3352805D01*
X2062710Y3352360D01*
X2062765Y3351972D01*
Y3351695D01*
X2062821Y3351528D01*
Y3351472D01*
X2057992Y3350973D01*
X2057881Y3352249D01*
X2057660Y3353360D01*
X2057327Y3354358D01*
X2056938Y3355135D01*
X2056605Y3355802D01*
X2056272Y3356245D01*
X2056050Y3356523D01*
X2055939Y3356634D01*
X2055106Y3357300D01*
X2054218Y3357800D01*
X2053275Y3358188D01*
X2052443Y3358410D01*
X2051666Y3358577D01*
X2050999Y3358632D01*
X2050778Y3358688D01*
X2050445D01*
X2049279Y3358632D01*
X2048224Y3358410D01*
X2047336Y3358077D01*
X2046560Y3357744D01*
X2045949Y3357356D01*
X2045561Y3357078D01*
X2045283Y3356856D01*
X2045172Y3356745D01*
X2044506Y3355968D01*
X2044006Y3355191D01*
X2043618Y3354414D01*
X2043396Y3353637D01*
X2043229Y3353026D01*
X2043174Y3352472D01*
X2043119Y3352139D01*
Y3352083D01*
Y3352028D01*
X2043229Y3351028D01*
X2043451Y3349974D01*
X2043840Y3349030D01*
X2044228Y3348142D01*
X2044672Y3347421D01*
X2045061Y3346811D01*
X2045172Y3346588D01*
X2045283Y3346422D01*
X2045394Y3346367D01*
Y3346311D01*
X2045838Y3345700D01*
X2046393Y3345090D01*
X2047004Y3344424D01*
X2047669Y3343758D01*
X2049057Y3342426D01*
X2050445Y3341094D01*
X2051166Y3340483D01*
X2051776Y3339928D01*
X2052387Y3339429D01*
X2052887Y3338985D01*
X2053275Y3338652D01*
X2053608Y3338374D01*
X2053830Y3338208D01*
X2053885Y3338153D01*
X2055273Y3336987D01*
X2056550Y3335877D01*
X2057604Y3334878D01*
X2058436Y3334046D01*
X2059158Y3333324D01*
X2059657Y3332825D01*
X2059935Y3332492D01*
X2060046Y3332436D01*
Y3332381D01*
X2060823Y3331437D01*
X2061434Y3330549D01*
X2061988Y3329661D01*
X2062432Y3328884D01*
X2062765Y3328218D01*
X2062988Y3327718D01*
X2063099Y3327385D01*
X2063154Y3327330D01*
Y3327274D01*
X2063376Y3326664D01*
X2063487Y3326109D01*
X2063598Y3325554D01*
X2063653Y3325055D01*
X2063709Y3324610D01*
Y3324278D01*
Y3324055D01*
Y3324000D01*
X2038235D01*
Y3328551D01*
X2057160D01*
X2056494Y3329494D01*
X2056161Y3329883D01*
X2055883Y3330271D01*
X2055606Y3330604D01*
X2055384Y3330827D01*
X2055218Y3330993D01*
X2055162Y3331048D01*
X2054885Y3331326D01*
X2054552Y3331604D01*
X2053774Y3332325D01*
X2052887Y3333157D01*
X2051943Y3333990D01*
X2051055Y3334711D01*
X2050666Y3335044D01*
X2050334Y3335378D01*
X2050056Y3335599D01*
X2049834Y3335766D01*
X2049723Y3335877D01*
X2049668Y3335932D01*
X2048780Y3336709D01*
X2047891Y3337431D01*
X2047114Y3338153D01*
X2046393Y3338763D01*
X2045727Y3339374D01*
X2045172Y3339928D01*
X2044617Y3340428D01*
X2044173Y3340872D01*
X2043729Y3341316D01*
X2043396Y3341649D01*
X2043119Y3341927D01*
X2042841Y3342204D01*
X2042563Y3342537D01*
X2042453Y3342648D01*
X2041676Y3343591D01*
X2041009Y3344424D01*
X2040455Y3345256D01*
X2040011Y3345923D01*
X2039678Y3346533D01*
X2039456Y3346977D01*
X2039344Y3347255D01*
X2039289Y3347365D01*
X2038956Y3348198D01*
X2038734Y3349030D01*
X2038512Y3349807D01*
X2038401Y3350474D01*
X2038345Y3351084D01*
X2038290Y3351528D01*
Y3351805D01*
Y3351916D01*
X2038345Y3352749D01*
X2038457Y3353526D01*
X2038568Y3354303D01*
X2038790Y3354969D01*
X2039344Y3356301D01*
X2039899Y3357356D01*
X2040233Y3357855D01*
X2040510Y3358244D01*
X2040787Y3358632D01*
X2041065Y3358910D01*
X2041287Y3359131D01*
X2041398Y3359354D01*
X2041509Y3359409D01*
X2041564Y3359465D01*
X2042175Y3360019D01*
X2042841Y3360519D01*
X2043562Y3360907D01*
X2044284Y3361240D01*
X2045727Y3361796D01*
X2047170Y3362184D01*
X2047781Y3362295D01*
X2048391Y3362406D01*
X2048946Y3362461D01*
X2049390Y3362517D01*
X2049778Y3362573D01*
X2050334D01*
X2051332Y3362517D01*
D02*
G37*
G36*
X2106000Y3324000D02*
X2101116D01*
Y3356689D01*
X2090016Y3324000D01*
X2085465D01*
X2074254Y3356135D01*
Y3324000D01*
X2069370D01*
Y3362406D01*
X2076197D01*
X2085410Y3335655D01*
X2085909Y3334212D01*
X2086298Y3332991D01*
X2086686Y3331936D01*
X2086963Y3331048D01*
X2087186Y3330383D01*
X2087352Y3329883D01*
X2087407Y3329606D01*
X2087463Y3329494D01*
X2087685Y3330271D01*
X2087963Y3331160D01*
X2088296Y3332103D01*
X2088573Y3333046D01*
X2088851Y3333879D01*
X2089073Y3334545D01*
X2089184Y3334823D01*
X2089239Y3334989D01*
X2089294Y3335100D01*
Y3335155D01*
X2098396Y3362406D01*
X2106000D01*
Y3324000D01*
D02*
G37*
G36*
X1407000D02*
X1402116D01*
Y3356689D01*
X1391016Y3324000D01*
X1386465D01*
X1375254Y3356135D01*
Y3324000D01*
X1370370D01*
Y3362406D01*
X1377197D01*
X1386409Y3335655D01*
X1386909Y3334212D01*
X1387297Y3332991D01*
X1387686Y3331936D01*
X1387964Y3331048D01*
X1388186Y3330383D01*
X1388352Y3329883D01*
X1388408Y3329606D01*
X1388463Y3329494D01*
X1388685Y3330271D01*
X1388963Y3331160D01*
X1389295Y3332103D01*
X1389573Y3333046D01*
X1389851Y3333879D01*
X1390072Y3334545D01*
X1390184Y3334823D01*
X1390239Y3334989D01*
X1390294Y3335100D01*
Y3335155D01*
X1399397Y3362406D01*
X1407000D01*
Y3324000D01*
D02*
G37*
G36*
X1365652Y3337542D02*
Y3333213D01*
X1348947D01*
Y3324000D01*
X1344229D01*
Y3333213D01*
X1339013D01*
Y3337542D01*
X1344229D01*
Y3362406D01*
X1348059D01*
X1365652Y3337542D01*
D02*
G37*
G36*
X2562000Y3299894D02*
X2544961D01*
Y3293345D01*
X2545017Y3292735D01*
Y3292291D01*
X2545073Y3291902D01*
X2545128Y3291624D01*
Y3291403D01*
X2545184Y3291291D01*
Y3291236D01*
X2545461Y3290348D01*
X2545628Y3289959D01*
X2545794Y3289626D01*
X2545961Y3289294D01*
X2546072Y3289072D01*
X2546127Y3288961D01*
X2546182Y3288905D01*
X2546515Y3288461D01*
X2546904Y3288017D01*
X2547736Y3287184D01*
X2548125Y3286796D01*
X2548458Y3286519D01*
X2548680Y3286352D01*
X2548735Y3286296D01*
X2549512Y3285742D01*
X2550345Y3285131D01*
X2551233Y3284521D01*
X2552066Y3283910D01*
X2552843Y3283410D01*
X2553453Y3283022D01*
X2553675Y3282856D01*
X2553841Y3282744D01*
X2553952Y3282633D01*
X2554008D01*
X2562000Y3277583D01*
Y3271256D01*
X2551566Y3277860D01*
X2550456Y3278637D01*
X2549457Y3279359D01*
X2548624Y3280081D01*
X2547847Y3280691D01*
X2547293Y3281246D01*
X2546849Y3281690D01*
X2546571Y3281968D01*
X2546460Y3282079D01*
X2546127Y3282523D01*
X2545738Y3283022D01*
X2545128Y3284021D01*
X2544906Y3284465D01*
X2544684Y3284798D01*
X2544573Y3285020D01*
X2544517Y3285131D01*
X2544351Y3284132D01*
X2544184Y3283189D01*
X2543907Y3282356D01*
X2543685Y3281523D01*
X2543407Y3280802D01*
X2543075Y3280136D01*
X2542797Y3279526D01*
X2542519Y3278970D01*
X2542186Y3278526D01*
X2541909Y3278082D01*
X2541687Y3277749D01*
X2541465Y3277472D01*
X2541298Y3277250D01*
X2541132Y3277084D01*
X2541077Y3277028D01*
X2541021Y3276972D01*
X2540466Y3276528D01*
X2539911Y3276084D01*
X2538745Y3275419D01*
X2537580Y3274974D01*
X2536470Y3274642D01*
X2535526Y3274419D01*
X2535138Y3274364D01*
X2534749D01*
X2534472Y3274309D01*
X2534250D01*
X2534139D01*
X2534084D01*
X2532918Y3274364D01*
X2531863Y3274530D01*
X2530865Y3274808D01*
X2530032Y3275086D01*
X2529311Y3275419D01*
X2528756Y3275640D01*
X2528423Y3275863D01*
X2528367Y3275918D01*
X2528311D01*
X2527423Y3276584D01*
X2526646Y3277250D01*
X2525981Y3277972D01*
X2525481Y3278637D01*
X2525093Y3279248D01*
X2524870Y3279747D01*
X2524704Y3280081D01*
X2524648Y3280136D01*
Y3280191D01*
X2524482Y3280691D01*
X2524316Y3281302D01*
X2524038Y3282523D01*
X2523872Y3283854D01*
X2523705Y3285075D01*
X2523649Y3286241D01*
Y3286740D01*
X2523594Y3287184D01*
Y3305000D01*
X2562000D01*
Y3299894D01*
D02*
G37*
G36*
Y3243450D02*
X2557449D01*
Y3262376D01*
X2556506Y3261710D01*
X2556117Y3261377D01*
X2555729Y3261099D01*
X2555396Y3260822D01*
X2555173Y3260600D01*
X2555007Y3260434D01*
X2554952Y3260378D01*
X2554674Y3260101D01*
X2554396Y3259767D01*
X2553675Y3258990D01*
X2552843Y3258102D01*
X2552010Y3257159D01*
X2551289Y3256271D01*
X2550956Y3255883D01*
X2550622Y3255550D01*
X2550401Y3255272D01*
X2550234Y3255050D01*
X2550123Y3254939D01*
X2550068Y3254883D01*
X2549291Y3253995D01*
X2548569Y3253108D01*
X2547847Y3252331D01*
X2547237Y3251609D01*
X2546626Y3250943D01*
X2546072Y3250388D01*
X2545572Y3249833D01*
X2545128Y3249389D01*
X2544684Y3248945D01*
X2544351Y3248612D01*
X2544073Y3248334D01*
X2543796Y3248057D01*
X2543463Y3247780D01*
X2543352Y3247669D01*
X2542409Y3246892D01*
X2541576Y3246226D01*
X2540744Y3245671D01*
X2540077Y3245227D01*
X2539467Y3244894D01*
X2539023Y3244671D01*
X2538745Y3244561D01*
X2538635Y3244505D01*
X2537802Y3244172D01*
X2536970Y3243950D01*
X2536193Y3243728D01*
X2535526Y3243617D01*
X2534916Y3243561D01*
X2534472Y3243506D01*
X2534195D01*
X2534084D01*
X2533251Y3243561D01*
X2532474Y3243673D01*
X2531697Y3243784D01*
X2531031Y3244006D01*
X2529699Y3244561D01*
X2528644Y3245115D01*
X2528145Y3245448D01*
X2527756Y3245726D01*
X2527368Y3246003D01*
X2527090Y3246281D01*
X2526869Y3246503D01*
X2526646Y3246614D01*
X2526591Y3246725D01*
X2526535Y3246780D01*
X2525981Y3247391D01*
X2525481Y3248057D01*
X2525093Y3248778D01*
X2524760Y3249500D01*
X2524204Y3250943D01*
X2523816Y3252386D01*
X2523705Y3252997D01*
X2523594Y3253607D01*
X2523539Y3254162D01*
X2523483Y3254606D01*
X2523427Y3254994D01*
Y3255550D01*
X2523483Y3256548D01*
X2523539Y3257492D01*
X2523705Y3258380D01*
X2523872Y3259213D01*
X2524093Y3259990D01*
X2524316Y3260711D01*
X2524593Y3261377D01*
X2524870Y3261988D01*
X2525148Y3262543D01*
X2525425Y3262986D01*
X2525648Y3263375D01*
X2525869Y3263708D01*
X2526036Y3263985D01*
X2526202Y3264152D01*
X2526258Y3264263D01*
X2526314Y3264318D01*
X2526869Y3264874D01*
X2527479Y3265373D01*
X2528145Y3265872D01*
X2528811Y3266261D01*
X2530143Y3266927D01*
X2531475Y3267371D01*
X2532086Y3267537D01*
X2532696Y3267704D01*
X2533195Y3267815D01*
X2533640Y3267926D01*
X2534028Y3267981D01*
X2534305D01*
X2534472Y3268037D01*
X2534528D01*
X2535027Y3263209D01*
X2533751Y3263097D01*
X2532640Y3262876D01*
X2531642Y3262543D01*
X2530865Y3262154D01*
X2530198Y3261821D01*
X2529755Y3261488D01*
X2529477Y3261266D01*
X2529366Y3261155D01*
X2528700Y3260323D01*
X2528200Y3259434D01*
X2527812Y3258491D01*
X2527590Y3257659D01*
X2527423Y3256881D01*
X2527368Y3256215D01*
X2527312Y3255994D01*
Y3255660D01*
X2527368Y3254495D01*
X2527590Y3253441D01*
X2527923Y3252552D01*
X2528256Y3251776D01*
X2528644Y3251165D01*
X2528922Y3250776D01*
X2529144Y3250499D01*
X2529255Y3250388D01*
X2530032Y3249722D01*
X2530809Y3249222D01*
X2531586Y3248834D01*
X2532363Y3248612D01*
X2532974Y3248445D01*
X2533528Y3248390D01*
X2533861Y3248334D01*
X2533917D01*
X2533972D01*
X2534972Y3248445D01*
X2536026Y3248668D01*
X2536970Y3249056D01*
X2537858Y3249445D01*
X2538579Y3249889D01*
X2539189Y3250277D01*
X2539412Y3250388D01*
X2539578Y3250499D01*
X2539633Y3250610D01*
X2539689D01*
X2540300Y3251054D01*
X2540910Y3251609D01*
X2541576Y3252220D01*
X2542242Y3252885D01*
X2543574Y3254273D01*
X2544906Y3255660D01*
X2545517Y3256382D01*
X2546072Y3256992D01*
X2546571Y3257603D01*
X2547015Y3258102D01*
X2547348Y3258491D01*
X2547626Y3258824D01*
X2547792Y3259046D01*
X2547847Y3259102D01*
X2549013Y3260489D01*
X2550123Y3261765D01*
X2551122Y3262820D01*
X2551954Y3263653D01*
X2552676Y3264374D01*
X2553175Y3264874D01*
X2553508Y3265151D01*
X2553564Y3265262D01*
X2553619D01*
X2554563Y3266039D01*
X2555451Y3266649D01*
X2556339Y3267204D01*
X2557116Y3267648D01*
X2557782Y3267981D01*
X2558282Y3268204D01*
X2558615Y3268314D01*
X2558670Y3268370D01*
X2558726D01*
X2559336Y3268592D01*
X2559891Y3268703D01*
X2560446Y3268814D01*
X2560945Y3268869D01*
X2561390Y3268925D01*
X2561722D01*
X2561945D01*
X2562000D01*
Y3243450D01*
D02*
G37*
G36*
X2552843Y3238289D02*
X2553675Y3238122D01*
X2555229Y3237623D01*
X2556561Y3237012D01*
X2557171Y3236680D01*
X2557671Y3236347D01*
X2558171Y3236069D01*
X2558615Y3235736D01*
X2558948Y3235459D01*
X2559225Y3235181D01*
X2559447Y3234959D01*
X2559669Y3234848D01*
X2559724Y3234737D01*
X2559780Y3234682D01*
X2560280Y3234015D01*
X2560724Y3233349D01*
X2561112Y3232628D01*
X2561445Y3231907D01*
X2561945Y3230519D01*
X2562278Y3229131D01*
X2562444Y3228521D01*
X2562499Y3227910D01*
X2562555Y3227411D01*
X2562610Y3226967D01*
X2562666Y3226579D01*
Y3226079D01*
X2562610Y3224914D01*
X2562444Y3223803D01*
X2562222Y3222749D01*
X2561945Y3221805D01*
X2561556Y3220918D01*
X2561168Y3220085D01*
X2560779Y3219308D01*
X2560335Y3218642D01*
X2559891Y3218032D01*
X2559503Y3217477D01*
X2559059Y3217032D01*
X2558726Y3216644D01*
X2558448Y3216367D01*
X2558226Y3216144D01*
X2558059Y3216034D01*
X2558004Y3215978D01*
X2557282Y3215423D01*
X2556506Y3214979D01*
X2555784Y3214535D01*
X2555007Y3214202D01*
X2553508Y3213647D01*
X2552066Y3213314D01*
X2551455Y3213203D01*
X2550845Y3213092D01*
X2550345Y3213037D01*
X2549901Y3212981D01*
X2549512Y3212925D01*
X2549235D01*
X2549068D01*
X2549013D01*
X2548014Y3212981D01*
X2547070Y3213092D01*
X2546127Y3213258D01*
X2545294Y3213481D01*
X2544517Y3213758D01*
X2543740Y3214035D01*
X2543075Y3214369D01*
X2542464Y3214646D01*
X2541909Y3214979D01*
X2541410Y3215312D01*
X2541021Y3215590D01*
X2540633Y3215867D01*
X2540355Y3216089D01*
X2540189Y3216256D01*
X2540077Y3216367D01*
X2540022Y3216422D01*
X2539412Y3217088D01*
X2538856Y3217754D01*
X2538412Y3218476D01*
X2538024Y3219197D01*
X2537635Y3219919D01*
X2537358Y3220640D01*
X2536970Y3221972D01*
X2536803Y3222582D01*
X2536692Y3223137D01*
X2536637Y3223637D01*
X2536581Y3224081D01*
X2536526Y3224414D01*
Y3225635D01*
X2536637Y3226301D01*
X2536914Y3227633D01*
X2537302Y3228854D01*
X2537747Y3229964D01*
X2538191Y3230852D01*
X2538412Y3231240D01*
X2538579Y3231573D01*
X2538745Y3231851D01*
X2538856Y3232017D01*
X2538912Y3232128D01*
X2538968Y3232184D01*
X2528589Y3230131D01*
Y3214757D01*
X2524093D01*
Y3233849D01*
X2543852Y3237568D01*
X2544462Y3233128D01*
X2543852Y3232739D01*
X2543352Y3232240D01*
X2542852Y3231796D01*
X2542464Y3231352D01*
X2542186Y3230907D01*
X2541909Y3230575D01*
X2541798Y3230352D01*
X2541742Y3230297D01*
X2541410Y3229575D01*
X2541132Y3228854D01*
X2540965Y3228188D01*
X2540799Y3227522D01*
X2540744Y3226967D01*
X2540688Y3226523D01*
Y3225468D01*
X2540799Y3224802D01*
X2541077Y3223637D01*
X2541465Y3222638D01*
X2541854Y3221750D01*
X2542298Y3221084D01*
X2542686Y3220584D01*
X2542963Y3220307D01*
X2543019Y3220196D01*
X2543075D01*
X2544018Y3219419D01*
X2545017Y3218864D01*
X2546072Y3218476D01*
X2547126Y3218198D01*
X2548014Y3218032D01*
X2548403Y3217976D01*
X2548735D01*
X2549013Y3217921D01*
X2549235D01*
X2549346D01*
X2549401D01*
X2550178D01*
X2550900Y3218032D01*
X2552287Y3218309D01*
X2553453Y3218698D01*
X2554396Y3219086D01*
X2555173Y3219530D01*
X2555784Y3219919D01*
X2555950Y3220085D01*
X2556117Y3220196D01*
X2556173Y3220251D01*
X2556228Y3220307D01*
X2556672Y3220751D01*
X2557061Y3221195D01*
X2557727Y3222194D01*
X2558171Y3223137D01*
X2558448Y3224081D01*
X2558670Y3224858D01*
X2558726Y3225524D01*
X2558781Y3225746D01*
Y3226079D01*
X2558726Y3227133D01*
X2558503Y3228077D01*
X2558226Y3228910D01*
X2557893Y3229575D01*
X2557560Y3230186D01*
X2557282Y3230630D01*
X2557061Y3230852D01*
X2557005Y3230963D01*
X2556228Y3231629D01*
X2555396Y3232184D01*
X2554452Y3232628D01*
X2553619Y3232961D01*
X2552787Y3233183D01*
X2552177Y3233349D01*
X2551899Y3233405D01*
X2551733Y3233461D01*
X2551622D01*
X2551566D01*
X2551954Y3238400D01*
X2552843Y3238289D01*
D02*
G37*
G36*
X1900000Y3303894D02*
X1882961D01*
Y3297345D01*
X1883017Y3296735D01*
Y3296291D01*
X1883072Y3295902D01*
X1883128Y3295624D01*
Y3295403D01*
X1883184Y3295291D01*
Y3295236D01*
X1883461Y3294348D01*
X1883628Y3293959D01*
X1883794Y3293626D01*
X1883960Y3293294D01*
X1884072Y3293072D01*
X1884127Y3292961D01*
X1884182Y3292905D01*
X1884515Y3292461D01*
X1884904Y3292017D01*
X1885736Y3291184D01*
X1886125Y3290796D01*
X1886458Y3290519D01*
X1886680Y3290352D01*
X1886736Y3290296D01*
X1887513Y3289742D01*
X1888345Y3289131D01*
X1889233Y3288521D01*
X1890065Y3287910D01*
X1890842Y3287410D01*
X1891453Y3287022D01*
X1891675Y3286856D01*
X1891841Y3286744D01*
X1891953Y3286633D01*
X1892008D01*
X1900000Y3281583D01*
Y3275256D01*
X1889566Y3281860D01*
X1888456Y3282637D01*
X1887457Y3283359D01*
X1886624Y3284081D01*
X1885848Y3284691D01*
X1885293Y3285246D01*
X1884849Y3285690D01*
X1884571Y3285968D01*
X1884460Y3286079D01*
X1884127Y3286523D01*
X1883738Y3287022D01*
X1883128Y3288021D01*
X1882906Y3288465D01*
X1882684Y3288798D01*
X1882573Y3289020D01*
X1882517Y3289131D01*
X1882351Y3288132D01*
X1882185Y3287189D01*
X1881907Y3286356D01*
X1881685Y3285523D01*
X1881408Y3284802D01*
X1881074Y3284136D01*
X1880797Y3283526D01*
X1880520Y3282970D01*
X1880187Y3282526D01*
X1879909Y3282082D01*
X1879687Y3281749D01*
X1879465Y3281472D01*
X1879299Y3281250D01*
X1879132Y3281084D01*
X1879076Y3281028D01*
X1879021Y3280972D01*
X1878466Y3280528D01*
X1877911Y3280084D01*
X1876745Y3279419D01*
X1875580Y3278974D01*
X1874470Y3278642D01*
X1873526Y3278419D01*
X1873138Y3278364D01*
X1872749D01*
X1872472Y3278309D01*
X1872250D01*
X1872139D01*
X1872083D01*
X1870918Y3278364D01*
X1869863Y3278530D01*
X1868864Y3278808D01*
X1868032Y3279086D01*
X1867311Y3279419D01*
X1866755Y3279640D01*
X1866422Y3279863D01*
X1866367Y3279918D01*
X1866312D01*
X1865424Y3280584D01*
X1864647Y3281250D01*
X1863980Y3281972D01*
X1863481Y3282637D01*
X1863092Y3283248D01*
X1862870Y3283747D01*
X1862704Y3284081D01*
X1862649Y3284136D01*
Y3284191D01*
X1862482Y3284691D01*
X1862315Y3285302D01*
X1862038Y3286523D01*
X1861871Y3287854D01*
X1861705Y3289075D01*
X1861649Y3290241D01*
Y3290740D01*
X1861594Y3291184D01*
Y3309000D01*
X1900000D01*
Y3303894D01*
D02*
G37*
G36*
Y3247450D02*
X1895449D01*
Y3266376D01*
X1894505Y3265710D01*
X1894117Y3265377D01*
X1893728Y3265099D01*
X1893396Y3264822D01*
X1893174Y3264600D01*
X1893007Y3264434D01*
X1892951Y3264378D01*
X1892674Y3264101D01*
X1892397Y3263767D01*
X1891675Y3262990D01*
X1890842Y3262102D01*
X1890010Y3261159D01*
X1889289Y3260271D01*
X1888956Y3259883D01*
X1888622Y3259550D01*
X1888400Y3259272D01*
X1888234Y3259050D01*
X1888123Y3258939D01*
X1888068Y3258883D01*
X1887291Y3257995D01*
X1886569Y3257108D01*
X1885848Y3256331D01*
X1885237Y3255609D01*
X1884627Y3254943D01*
X1884072Y3254388D01*
X1883572Y3253833D01*
X1883128Y3253389D01*
X1882684Y3252945D01*
X1882351Y3252612D01*
X1882073Y3252334D01*
X1881796Y3252057D01*
X1881463Y3251780D01*
X1881352Y3251669D01*
X1880409Y3250892D01*
X1879576Y3250226D01*
X1878744Y3249671D01*
X1878078Y3249227D01*
X1877467Y3248894D01*
X1877023Y3248671D01*
X1876745Y3248561D01*
X1876634Y3248505D01*
X1875802Y3248172D01*
X1874969Y3247950D01*
X1874193Y3247728D01*
X1873526Y3247617D01*
X1872916Y3247561D01*
X1872472Y3247506D01*
X1872195D01*
X1872083D01*
X1871251Y3247561D01*
X1870474Y3247673D01*
X1869697Y3247784D01*
X1869031Y3248006D01*
X1867699Y3248561D01*
X1866645Y3249115D01*
X1866145Y3249448D01*
X1865756Y3249726D01*
X1865368Y3250003D01*
X1865091Y3250281D01*
X1864869Y3250503D01*
X1864647Y3250614D01*
X1864591Y3250725D01*
X1864535Y3250780D01*
X1863980Y3251391D01*
X1863481Y3252057D01*
X1863092Y3252778D01*
X1862759Y3253500D01*
X1862205Y3254943D01*
X1861816Y3256386D01*
X1861705Y3256997D01*
X1861594Y3257607D01*
X1861539Y3258162D01*
X1861483Y3258606D01*
X1861428Y3258994D01*
Y3259550D01*
X1861483Y3260548D01*
X1861539Y3261492D01*
X1861705Y3262380D01*
X1861871Y3263213D01*
X1862093Y3263990D01*
X1862315Y3264711D01*
X1862593Y3265377D01*
X1862870Y3265988D01*
X1863148Y3266543D01*
X1863426Y3266986D01*
X1863648Y3267375D01*
X1863870Y3267708D01*
X1864036Y3267985D01*
X1864203Y3268152D01*
X1864258Y3268263D01*
X1864313Y3268318D01*
X1864869Y3268874D01*
X1865479Y3269373D01*
X1866145Y3269872D01*
X1866811Y3270261D01*
X1868143Y3270927D01*
X1869475Y3271371D01*
X1870085Y3271537D01*
X1870696Y3271704D01*
X1871196Y3271815D01*
X1871639Y3271926D01*
X1872028Y3271981D01*
X1872305D01*
X1872472Y3272037D01*
X1872527D01*
X1873027Y3267209D01*
X1871751Y3267097D01*
X1870640Y3266876D01*
X1869641Y3266543D01*
X1868864Y3266154D01*
X1868198Y3265821D01*
X1867755Y3265488D01*
X1867477Y3265266D01*
X1867366Y3265155D01*
X1866700Y3264323D01*
X1866200Y3263434D01*
X1865812Y3262491D01*
X1865590Y3261659D01*
X1865424Y3260881D01*
X1865368Y3260215D01*
X1865312Y3259994D01*
Y3259660D01*
X1865368Y3258495D01*
X1865590Y3257441D01*
X1865923Y3256552D01*
X1866256Y3255776D01*
X1866645Y3255165D01*
X1866922Y3254776D01*
X1867144Y3254499D01*
X1867255Y3254388D01*
X1868032Y3253722D01*
X1868809Y3253222D01*
X1869586Y3252834D01*
X1870363Y3252612D01*
X1870974Y3252445D01*
X1871528Y3252390D01*
X1871861Y3252334D01*
X1871917D01*
X1871973D01*
X1872972Y3252445D01*
X1874026Y3252668D01*
X1874969Y3253056D01*
X1875858Y3253445D01*
X1876579Y3253889D01*
X1877189Y3254277D01*
X1877411Y3254388D01*
X1877578Y3254499D01*
X1877633Y3254610D01*
X1877689D01*
X1878300Y3255054D01*
X1878910Y3255609D01*
X1879576Y3256220D01*
X1880242Y3256885D01*
X1881574Y3258273D01*
X1882906Y3259660D01*
X1883516Y3260382D01*
X1884072Y3260992D01*
X1884571Y3261603D01*
X1885015Y3262102D01*
X1885348Y3262491D01*
X1885626Y3262824D01*
X1885792Y3263046D01*
X1885848Y3263102D01*
X1887013Y3264489D01*
X1888123Y3265765D01*
X1889122Y3266820D01*
X1889955Y3267653D01*
X1890676Y3268374D01*
X1891176Y3268874D01*
X1891508Y3269151D01*
X1891564Y3269262D01*
X1891620D01*
X1892563Y3270039D01*
X1893451Y3270649D01*
X1894339Y3271204D01*
X1895116Y3271648D01*
X1895782Y3271981D01*
X1896282Y3272204D01*
X1896614Y3272314D01*
X1896670Y3272370D01*
X1896726D01*
X1897336Y3272592D01*
X1897891Y3272703D01*
X1898446Y3272814D01*
X1898946Y3272869D01*
X1899389Y3272925D01*
X1899723D01*
X1899945D01*
X1900000D01*
Y3247450D01*
D02*
G37*
G36*
X1866645Y3223253D02*
X1868254Y3224584D01*
X1869975Y3225861D01*
X1871639Y3226971D01*
X1873249Y3228026D01*
X1873970Y3228470D01*
X1874637Y3228858D01*
X1875247Y3229247D01*
X1875746Y3229524D01*
X1876190Y3229746D01*
X1876468Y3229912D01*
X1876690Y3230023D01*
X1876745Y3230079D01*
X1878966Y3231189D01*
X1881186Y3232188D01*
X1883294Y3233021D01*
X1884238Y3233354D01*
X1885181Y3233686D01*
X1886014Y3234019D01*
X1886791Y3234242D01*
X1887457Y3234463D01*
X1888012Y3234630D01*
X1888512Y3234796D01*
X1888844Y3234907D01*
X1889066Y3234963D01*
X1889122D01*
X1891398Y3235518D01*
X1892507Y3235740D01*
X1893506Y3235907D01*
X1894450Y3236073D01*
X1895393Y3236240D01*
X1896170Y3236351D01*
X1896947Y3236461D01*
X1897613Y3236517D01*
X1898224Y3236573D01*
X1898779Y3236628D01*
X1899223D01*
X1899556Y3236684D01*
X1899778D01*
X1899945D01*
X1900000D01*
Y3231855D01*
X1897891Y3231689D01*
X1895948Y3231411D01*
X1894172Y3231133D01*
X1893340Y3230967D01*
X1892563Y3230800D01*
X1891897Y3230689D01*
X1891286Y3230523D01*
X1890732Y3230412D01*
X1890287Y3230301D01*
X1889955Y3230190D01*
X1889677Y3230135D01*
X1889511Y3230079D01*
X1889455D01*
X1886902Y3229247D01*
X1884515Y3228358D01*
X1883350Y3227914D01*
X1882240Y3227470D01*
X1881241Y3226971D01*
X1880242Y3226527D01*
X1879354Y3226139D01*
X1878577Y3225750D01*
X1877911Y3225417D01*
X1877301Y3225140D01*
X1876801Y3224862D01*
X1876468Y3224695D01*
X1876246Y3224584D01*
X1876190Y3224529D01*
X1875025Y3223863D01*
X1873860Y3223197D01*
X1872805Y3222531D01*
X1871806Y3221865D01*
X1870918Y3221255D01*
X1870030Y3220644D01*
X1869253Y3220034D01*
X1868587Y3219534D01*
X1867921Y3219035D01*
X1867366Y3218590D01*
X1866922Y3218146D01*
X1866534Y3217814D01*
X1866200Y3217591D01*
X1865978Y3217369D01*
X1865868Y3217258D01*
X1865812Y3217203D01*
X1862093D01*
Y3242067D01*
X1866645D01*
Y3223253D01*
D02*
G37*
G36*
X1215000Y3306894D02*
X1197961D01*
Y3300345D01*
X1198017Y3299735D01*
Y3299291D01*
X1198072Y3298902D01*
X1198128Y3298624D01*
Y3298403D01*
X1198184Y3298291D01*
Y3298236D01*
X1198461Y3297348D01*
X1198628Y3296959D01*
X1198794Y3296626D01*
X1198960Y3296294D01*
X1199072Y3296072D01*
X1199127Y3295961D01*
X1199182Y3295905D01*
X1199515Y3295461D01*
X1199904Y3295017D01*
X1200736Y3294184D01*
X1201125Y3293796D01*
X1201458Y3293519D01*
X1201680Y3293352D01*
X1201736Y3293296D01*
X1202513Y3292742D01*
X1203345Y3292131D01*
X1204233Y3291521D01*
X1205065Y3290910D01*
X1205842Y3290410D01*
X1206453Y3290022D01*
X1206675Y3289856D01*
X1206841Y3289744D01*
X1206953Y3289633D01*
X1207008D01*
X1215000Y3284583D01*
Y3278256D01*
X1204566Y3284860D01*
X1203456Y3285637D01*
X1202457Y3286359D01*
X1201624Y3287081D01*
X1200848Y3287691D01*
X1200293Y3288246D01*
X1199849Y3288690D01*
X1199571Y3288968D01*
X1199460Y3289079D01*
X1199127Y3289523D01*
X1198738Y3290022D01*
X1198128Y3291021D01*
X1197906Y3291465D01*
X1197684Y3291798D01*
X1197573Y3292020D01*
X1197517Y3292131D01*
X1197351Y3291132D01*
X1197185Y3290189D01*
X1196907Y3289356D01*
X1196685Y3288523D01*
X1196408Y3287802D01*
X1196074Y3287136D01*
X1195797Y3286526D01*
X1195520Y3285970D01*
X1195187Y3285526D01*
X1194909Y3285082D01*
X1194687Y3284749D01*
X1194465Y3284472D01*
X1194299Y3284250D01*
X1194132Y3284084D01*
X1194076Y3284028D01*
X1194021Y3283972D01*
X1193466Y3283528D01*
X1192911Y3283084D01*
X1191745Y3282419D01*
X1190580Y3281974D01*
X1189470Y3281642D01*
X1188526Y3281419D01*
X1188138Y3281364D01*
X1187749D01*
X1187472Y3281309D01*
X1187250D01*
X1187139D01*
X1187083D01*
X1185918Y3281364D01*
X1184863Y3281530D01*
X1183864Y3281808D01*
X1183032Y3282086D01*
X1182311Y3282419D01*
X1181755Y3282640D01*
X1181422Y3282863D01*
X1181367Y3282918D01*
X1181312D01*
X1180424Y3283584D01*
X1179647Y3284250D01*
X1178980Y3284972D01*
X1178481Y3285637D01*
X1178092Y3286248D01*
X1177870Y3286747D01*
X1177704Y3287081D01*
X1177649Y3287136D01*
Y3287191D01*
X1177482Y3287691D01*
X1177315Y3288302D01*
X1177038Y3289523D01*
X1176871Y3290854D01*
X1176705Y3292075D01*
X1176649Y3293241D01*
Y3293740D01*
X1176594Y3294184D01*
Y3312000D01*
X1215000D01*
Y3306894D01*
D02*
G37*
G36*
Y3250450D02*
X1210449D01*
Y3269376D01*
X1209505Y3268710D01*
X1209117Y3268377D01*
X1208728Y3268099D01*
X1208396Y3267822D01*
X1208174Y3267600D01*
X1208007Y3267434D01*
X1207951Y3267378D01*
X1207674Y3267101D01*
X1207397Y3266767D01*
X1206675Y3265990D01*
X1205842Y3265102D01*
X1205010Y3264159D01*
X1204289Y3263271D01*
X1203956Y3262883D01*
X1203622Y3262550D01*
X1203400Y3262272D01*
X1203234Y3262050D01*
X1203123Y3261939D01*
X1203068Y3261883D01*
X1202291Y3260995D01*
X1201569Y3260108D01*
X1200848Y3259331D01*
X1200237Y3258609D01*
X1199627Y3257943D01*
X1199072Y3257388D01*
X1198572Y3256833D01*
X1198128Y3256389D01*
X1197684Y3255945D01*
X1197351Y3255612D01*
X1197073Y3255334D01*
X1196796Y3255057D01*
X1196463Y3254780D01*
X1196352Y3254669D01*
X1195409Y3253892D01*
X1194576Y3253226D01*
X1193744Y3252671D01*
X1193078Y3252227D01*
X1192467Y3251894D01*
X1192023Y3251671D01*
X1191745Y3251561D01*
X1191634Y3251505D01*
X1190802Y3251172D01*
X1189969Y3250950D01*
X1189193Y3250728D01*
X1188526Y3250617D01*
X1187916Y3250561D01*
X1187472Y3250506D01*
X1187195D01*
X1187083D01*
X1186251Y3250561D01*
X1185474Y3250673D01*
X1184697Y3250784D01*
X1184031Y3251006D01*
X1182699Y3251561D01*
X1181645Y3252115D01*
X1181145Y3252448D01*
X1180756Y3252726D01*
X1180368Y3253003D01*
X1180091Y3253281D01*
X1179869Y3253503D01*
X1179647Y3253614D01*
X1179591Y3253725D01*
X1179535Y3253780D01*
X1178980Y3254391D01*
X1178481Y3255057D01*
X1178092Y3255778D01*
X1177759Y3256500D01*
X1177205Y3257943D01*
X1176816Y3259386D01*
X1176705Y3259997D01*
X1176594Y3260607D01*
X1176539Y3261162D01*
X1176483Y3261606D01*
X1176428Y3261994D01*
Y3262550D01*
X1176483Y3263548D01*
X1176539Y3264492D01*
X1176705Y3265380D01*
X1176871Y3266213D01*
X1177093Y3266990D01*
X1177315Y3267711D01*
X1177593Y3268377D01*
X1177870Y3268988D01*
X1178148Y3269543D01*
X1178426Y3269986D01*
X1178648Y3270375D01*
X1178870Y3270708D01*
X1179036Y3270985D01*
X1179203Y3271152D01*
X1179258Y3271263D01*
X1179313Y3271318D01*
X1179869Y3271874D01*
X1180479Y3272373D01*
X1181145Y3272872D01*
X1181811Y3273261D01*
X1183143Y3273927D01*
X1184475Y3274371D01*
X1185085Y3274537D01*
X1185696Y3274704D01*
X1186196Y3274815D01*
X1186639Y3274926D01*
X1187028Y3274981D01*
X1187305D01*
X1187472Y3275037D01*
X1187527D01*
X1188027Y3270209D01*
X1186751Y3270097D01*
X1185640Y3269876D01*
X1184641Y3269543D01*
X1183864Y3269154D01*
X1183198Y3268821D01*
X1182755Y3268488D01*
X1182477Y3268266D01*
X1182366Y3268155D01*
X1181700Y3267323D01*
X1181200Y3266434D01*
X1180812Y3265491D01*
X1180590Y3264659D01*
X1180424Y3263881D01*
X1180368Y3263215D01*
X1180312Y3262994D01*
Y3262660D01*
X1180368Y3261495D01*
X1180590Y3260441D01*
X1180923Y3259552D01*
X1181256Y3258776D01*
X1181645Y3258165D01*
X1181922Y3257776D01*
X1182144Y3257499D01*
X1182255Y3257388D01*
X1183032Y3256722D01*
X1183809Y3256222D01*
X1184586Y3255834D01*
X1185363Y3255612D01*
X1185974Y3255445D01*
X1186528Y3255390D01*
X1186861Y3255334D01*
X1186917D01*
X1186973D01*
X1187972Y3255445D01*
X1189026Y3255668D01*
X1189969Y3256056D01*
X1190858Y3256445D01*
X1191579Y3256889D01*
X1192189Y3257277D01*
X1192411Y3257388D01*
X1192578Y3257499D01*
X1192633Y3257610D01*
X1192689D01*
X1193300Y3258054D01*
X1193910Y3258609D01*
X1194576Y3259220D01*
X1195242Y3259885D01*
X1196574Y3261273D01*
X1197906Y3262660D01*
X1198516Y3263382D01*
X1199072Y3263992D01*
X1199571Y3264603D01*
X1200015Y3265102D01*
X1200348Y3265491D01*
X1200626Y3265824D01*
X1200792Y3266046D01*
X1200848Y3266102D01*
X1202013Y3267489D01*
X1203123Y3268765D01*
X1204122Y3269820D01*
X1204955Y3270653D01*
X1205676Y3271374D01*
X1206176Y3271874D01*
X1206508Y3272151D01*
X1206564Y3272262D01*
X1206620D01*
X1207563Y3273039D01*
X1208451Y3273649D01*
X1209339Y3274204D01*
X1210116Y3274648D01*
X1210782Y3274981D01*
X1211282Y3275204D01*
X1211614Y3275314D01*
X1211670Y3275370D01*
X1211726D01*
X1212336Y3275592D01*
X1212891Y3275703D01*
X1213446Y3275814D01*
X1213946Y3275869D01*
X1214389Y3275925D01*
X1214723D01*
X1214945D01*
X1215000D01*
Y3250450D01*
D02*
G37*
G36*
X1204843Y3245400D02*
X1205732Y3245289D01*
X1206564Y3245122D01*
X1207397Y3244901D01*
X1208784Y3244345D01*
X1209450Y3244068D01*
X1210005Y3243735D01*
X1210560Y3243402D01*
X1211004Y3243124D01*
X1211392Y3242791D01*
X1211726Y3242570D01*
X1212003Y3242347D01*
X1212169Y3242181D01*
X1212281Y3242070D01*
X1212336Y3242015D01*
X1212947Y3241349D01*
X1213446Y3240627D01*
X1213890Y3239850D01*
X1214278Y3239073D01*
X1214556Y3238352D01*
X1214833Y3237575D01*
X1215222Y3236076D01*
X1215389Y3235410D01*
X1215499Y3234800D01*
X1215555Y3234244D01*
X1215611Y3233745D01*
X1215666Y3233356D01*
Y3232802D01*
X1215611Y3231747D01*
X1215499Y3230803D01*
X1215333Y3229860D01*
X1215167Y3228972D01*
X1214889Y3228195D01*
X1214611Y3227418D01*
X1214334Y3226697D01*
X1214001Y3226086D01*
X1213668Y3225531D01*
X1213390Y3225032D01*
X1213113Y3224643D01*
X1212835Y3224255D01*
X1212669Y3223977D01*
X1212503Y3223811D01*
X1212391Y3223700D01*
X1212336Y3223644D01*
X1211670Y3223034D01*
X1211004Y3222479D01*
X1210338Y3222035D01*
X1209617Y3221646D01*
X1208950Y3221258D01*
X1208229Y3220980D01*
X1206953Y3220591D01*
X1206342Y3220425D01*
X1205787Y3220314D01*
X1205287Y3220258D01*
X1204899Y3220203D01*
X1204566Y3220148D01*
X1204289D01*
X1204122D01*
X1204066D01*
X1202790Y3220203D01*
X1201624Y3220425D01*
X1200570Y3220758D01*
X1199682Y3221091D01*
X1198960Y3221424D01*
X1198406Y3221757D01*
X1198072Y3221979D01*
X1198017Y3222035D01*
X1197961D01*
X1197073Y3222811D01*
X1196296Y3223644D01*
X1195686Y3224532D01*
X1195131Y3225365D01*
X1194743Y3226142D01*
X1194465Y3226807D01*
X1194354Y3227030D01*
X1194299Y3227196D01*
X1194243Y3227307D01*
Y3227363D01*
X1193799Y3226363D01*
X1193300Y3225531D01*
X1192800Y3224809D01*
X1192301Y3224199D01*
X1191857Y3223755D01*
X1191524Y3223422D01*
X1191302Y3223200D01*
X1191190Y3223144D01*
X1190414Y3222645D01*
X1189637Y3222312D01*
X1188860Y3222035D01*
X1188082Y3221868D01*
X1187472Y3221757D01*
X1186973Y3221702D01*
X1186639D01*
X1186584D01*
X1186528D01*
X1185752Y3221757D01*
X1185030Y3221812D01*
X1183642Y3222201D01*
X1182421Y3222700D01*
X1181367Y3223256D01*
X1180534Y3223811D01*
X1180201Y3224088D01*
X1179869Y3224310D01*
X1179647Y3224532D01*
X1179480Y3224698D01*
X1179425Y3224754D01*
X1179369Y3224809D01*
X1178870Y3225420D01*
X1178370Y3226030D01*
X1177982Y3226697D01*
X1177649Y3227363D01*
X1177149Y3228695D01*
X1176816Y3230026D01*
X1176649Y3230581D01*
X1176594Y3231137D01*
X1176539Y3231636D01*
X1176483Y3232080D01*
X1176428Y3232413D01*
Y3232912D01*
X1176483Y3233800D01*
X1176539Y3234689D01*
X1176871Y3236242D01*
X1177093Y3236964D01*
X1177315Y3237630D01*
X1177593Y3238240D01*
X1177870Y3238796D01*
X1178148Y3239240D01*
X1178426Y3239684D01*
X1178648Y3240072D01*
X1178870Y3240349D01*
X1179036Y3240572D01*
X1179203Y3240738D01*
X1179258Y3240849D01*
X1179313Y3240905D01*
X1179869Y3241404D01*
X1180424Y3241903D01*
X1181034Y3242292D01*
X1181645Y3242625D01*
X1182810Y3243180D01*
X1183920Y3243513D01*
X1184863Y3243735D01*
X1185307Y3243791D01*
X1185640Y3243846D01*
X1185974Y3243901D01*
X1186196D01*
X1186306D01*
X1186362D01*
X1187361Y3243846D01*
X1188304Y3243680D01*
X1189137Y3243457D01*
X1189859Y3243180D01*
X1190414Y3242958D01*
X1190858Y3242736D01*
X1191080Y3242570D01*
X1191190Y3242514D01*
X1191857Y3241903D01*
X1192467Y3241238D01*
X1193022Y3240516D01*
X1193466Y3239794D01*
X1193799Y3239128D01*
X1194021Y3238629D01*
X1194132Y3238407D01*
X1194188Y3238240D01*
X1194243Y3238185D01*
Y3238130D01*
X1194631Y3239406D01*
X1195131Y3240461D01*
X1195742Y3241404D01*
X1196296Y3242181D01*
X1196851Y3242791D01*
X1197295Y3243235D01*
X1197573Y3243457D01*
X1197629Y3243568D01*
X1197684D01*
X1198683Y3244179D01*
X1199737Y3244678D01*
X1200736Y3245012D01*
X1201736Y3245233D01*
X1202623Y3245345D01*
X1203012Y3245400D01*
X1203345D01*
X1203567Y3245456D01*
X1203789D01*
X1203900D01*
X1203956D01*
X1204843Y3245400D01*
D02*
G37*
G36*
X2106431Y614741D02*
X2107374Y614630D01*
X2108318Y614464D01*
X2109151Y614298D01*
X2109927Y614020D01*
X2110704Y613742D01*
X2111370Y613465D01*
X2111981Y613132D01*
X2112536Y612799D01*
X2113035Y612521D01*
X2113424Y612244D01*
X2113812Y611966D01*
X2114090Y611800D01*
X2114256Y611634D01*
X2114367Y611523D01*
X2114423Y611467D01*
X2115034Y610856D01*
X2115588Y610191D01*
X2116032Y609469D01*
X2116421Y608803D01*
X2116809Y608137D01*
X2117087Y607471D01*
X2117476Y606194D01*
X2117642Y605639D01*
X2117753Y605085D01*
X2117809Y604640D01*
X2117864Y604197D01*
X2117919Y603864D01*
Y603419D01*
X2117864Y602420D01*
X2117698Y601477D01*
X2117531Y600589D01*
X2117309Y599812D01*
X2117032Y599146D01*
X2116865Y598646D01*
X2116698Y598313D01*
X2116643Y598258D01*
Y598202D01*
X2116088Y597314D01*
X2115477Y596538D01*
X2114867Y595816D01*
X2114201Y595261D01*
X2113646Y594761D01*
X2113202Y594373D01*
X2112869Y594151D01*
X2112814Y594096D01*
X2113812D01*
X2114811Y594151D01*
X2115700Y594207D01*
X2116588Y594317D01*
X2117365Y594373D01*
X2118086Y594484D01*
X2118752Y594595D01*
X2119363Y594761D01*
X2119918Y594872D01*
X2120361Y594984D01*
X2120750Y595095D01*
X2121083Y595150D01*
X2121305Y595261D01*
X2121472Y595317D01*
X2121582Y595372D01*
X2121638D01*
X2122748Y595927D01*
X2123747Y596482D01*
X2124524Y597092D01*
X2125190Y597648D01*
X2125745Y598147D01*
X2126133Y598535D01*
X2126356Y598813D01*
X2126411Y598924D01*
X2126855Y599590D01*
X2127133Y600256D01*
X2127354Y600922D01*
X2127521Y601588D01*
X2127632Y602087D01*
X2127688Y602532D01*
Y602920D01*
X2127577Y603919D01*
X2127354Y604862D01*
X2127021Y605639D01*
X2126689Y606361D01*
X2126300Y606916D01*
X2125967Y607304D01*
X2125745Y607527D01*
X2125634Y607638D01*
X2125135Y608026D01*
X2124524Y608414D01*
X2123858Y608747D01*
X2123192Y608970D01*
X2122581Y609192D01*
X2122082Y609358D01*
X2121749Y609413D01*
X2121693Y609469D01*
X2121638D01*
X2122026Y614187D01*
X2123581Y613854D01*
X2124968Y613354D01*
X2126189Y612799D01*
X2127188Y612188D01*
X2127965Y611578D01*
X2128298Y611356D01*
X2128575Y611078D01*
X2128742Y610912D01*
X2128909Y610745D01*
X2128964Y610690D01*
X2129019Y610635D01*
X2129463Y610080D01*
X2129852Y609469D01*
X2130518Y608248D01*
X2130962Y607027D01*
X2131240Y605861D01*
X2131461Y604807D01*
X2131517Y604363D01*
Y603975D01*
X2131573Y603641D01*
Y603197D01*
X2131517Y602087D01*
X2131406Y601033D01*
X2131184Y600034D01*
X2130907Y599091D01*
X2130518Y598258D01*
X2130185Y597426D01*
X2129741Y596704D01*
X2129352Y596038D01*
X2128964Y595483D01*
X2128520Y594928D01*
X2128187Y594484D01*
X2127854Y594151D01*
X2127521Y593874D01*
X2127299Y593652D01*
X2127188Y593540D01*
X2127133Y593485D01*
X2126133Y592764D01*
X2124968Y592153D01*
X2123747Y591598D01*
X2122470Y591098D01*
X2121139Y590710D01*
X2119807Y590377D01*
X2118419Y590100D01*
X2117142Y589878D01*
X2115866Y589711D01*
X2114700Y589600D01*
X2113646Y589489D01*
X2112758Y589433D01*
X2111981D01*
X2111426Y589378D01*
X2111204D01*
X2111037D01*
X2110982D01*
X2110927D01*
X2109151Y589433D01*
X2107485Y589544D01*
X2105932Y589711D01*
X2104488Y589989D01*
X2103212Y590266D01*
X2102046Y590543D01*
X2100992Y590876D01*
X2100048Y591265D01*
X2099271Y591598D01*
X2098550Y591931D01*
X2097995Y592208D01*
X2097495Y592542D01*
X2097107Y592764D01*
X2096885Y592930D01*
X2096718Y593041D01*
X2096663Y593096D01*
X2095886Y593818D01*
X2095220Y594595D01*
X2094665Y595372D01*
X2094166Y596149D01*
X2093722Y596981D01*
X2093389Y597759D01*
X2093111Y598535D01*
X2092889Y599312D01*
X2092722Y599979D01*
X2092556Y600644D01*
X2092445Y601199D01*
X2092390Y601699D01*
Y602143D01*
X2092334Y602420D01*
Y602698D01*
X2092390Y603975D01*
X2092611Y605140D01*
X2092834Y606194D01*
X2093166Y607138D01*
X2093444Y607860D01*
X2093722Y608414D01*
X2093777Y608636D01*
X2093888Y608803D01*
X2093943Y608859D01*
Y608914D01*
X2094610Y609857D01*
X2095387Y610745D01*
X2096164Y611467D01*
X2096941Y612077D01*
X2097662Y612577D01*
X2098217Y612910D01*
X2098439Y613021D01*
X2098606Y613132D01*
X2098661Y613188D01*
X2098716D01*
X2099882Y613742D01*
X2101103Y614131D01*
X2102213Y614409D01*
X2103267Y614575D01*
X2104155Y614741D01*
X2104488D01*
X2104822Y614797D01*
X2105099D01*
X2105265D01*
X2105376D01*
X2105432D01*
X2106431Y614741D01*
D02*
G37*
G36*
X2097551Y565624D02*
X2098494Y566290D01*
X2098883Y566623D01*
X2099271Y566900D01*
X2099604Y567178D01*
X2099827Y567400D01*
X2099993Y567567D01*
X2100048Y567622D01*
X2100326Y567899D01*
X2100604Y568232D01*
X2101325Y569010D01*
X2102157Y569898D01*
X2102990Y570841D01*
X2103711Y571729D01*
X2104044Y572117D01*
X2104378Y572451D01*
X2104599Y572728D01*
X2104766Y572950D01*
X2104877Y573061D01*
X2104932Y573116D01*
X2105709Y574005D01*
X2106431Y574893D01*
X2107153Y575669D01*
X2107763Y576391D01*
X2108374Y577057D01*
X2108928Y577612D01*
X2109428Y578167D01*
X2109872Y578611D01*
X2110316Y579055D01*
X2110649Y579388D01*
X2110927Y579665D01*
X2111204Y579943D01*
X2111537Y580221D01*
X2111648Y580332D01*
X2112591Y581109D01*
X2113424Y581774D01*
X2114256Y582330D01*
X2114923Y582774D01*
X2115533Y583106D01*
X2115977Y583328D01*
X2116255Y583439D01*
X2116365Y583495D01*
X2117198Y583828D01*
X2118030Y584050D01*
X2118807Y584272D01*
X2119474Y584383D01*
X2120084Y584438D01*
X2120528Y584494D01*
X2120805D01*
X2120916D01*
X2121749Y584438D01*
X2122526Y584327D01*
X2123303Y584216D01*
X2123969Y583995D01*
X2125301Y583439D01*
X2126356Y582885D01*
X2126855Y582552D01*
X2127244Y582274D01*
X2127632Y581996D01*
X2127910Y581719D01*
X2128131Y581497D01*
X2128354Y581386D01*
X2128409Y581275D01*
X2128465Y581220D01*
X2129019Y580609D01*
X2129519Y579943D01*
X2129907Y579221D01*
X2130240Y578500D01*
X2130796Y577057D01*
X2131184Y575614D01*
X2131295Y575004D01*
X2131406Y574393D01*
X2131461Y573838D01*
X2131517Y573394D01*
X2131573Y573005D01*
Y572451D01*
X2131517Y571452D01*
X2131461Y570508D01*
X2131295Y569620D01*
X2131128Y568788D01*
X2130907Y568010D01*
X2130684Y567289D01*
X2130407Y566623D01*
X2130130Y566013D01*
X2129852Y565457D01*
X2129575Y565014D01*
X2129352Y564625D01*
X2129131Y564292D01*
X2128964Y564014D01*
X2128798Y563848D01*
X2128742Y563737D01*
X2128686Y563682D01*
X2128131Y563126D01*
X2127521Y562627D01*
X2126855Y562128D01*
X2126189Y561739D01*
X2124857Y561073D01*
X2123525Y560629D01*
X2122914Y560462D01*
X2122304Y560296D01*
X2121805Y560185D01*
X2121360Y560074D01*
X2120972Y560019D01*
X2120695D01*
X2120528Y559963D01*
X2120472D01*
X2119973Y564792D01*
X2121249Y564903D01*
X2122360Y565125D01*
X2123358Y565457D01*
X2124135Y565846D01*
X2124802Y566179D01*
X2125245Y566512D01*
X2125523Y566734D01*
X2125634Y566845D01*
X2126300Y567678D01*
X2126800Y568566D01*
X2127188Y569509D01*
X2127410Y570341D01*
X2127577Y571119D01*
X2127632Y571784D01*
X2127688Y572006D01*
Y572340D01*
X2127632Y573505D01*
X2127410Y574559D01*
X2127077Y575447D01*
X2126744Y576225D01*
X2126356Y576835D01*
X2126078Y577223D01*
X2125856Y577501D01*
X2125745Y577612D01*
X2124968Y578278D01*
X2124191Y578778D01*
X2123414Y579166D01*
X2122637Y579388D01*
X2122026Y579554D01*
X2121472Y579610D01*
X2121139Y579665D01*
X2121083D01*
X2121028D01*
X2120028Y579554D01*
X2118974Y579332D01*
X2118030Y578944D01*
X2117142Y578556D01*
X2116421Y578111D01*
X2115811Y577723D01*
X2115588Y577612D01*
X2115422Y577501D01*
X2115367Y577390D01*
X2115311D01*
X2114700Y576946D01*
X2114090Y576391D01*
X2113424Y575780D01*
X2112758Y575115D01*
X2111426Y573727D01*
X2110094Y572340D01*
X2109483Y571618D01*
X2108928Y571008D01*
X2108429Y570397D01*
X2107985Y569898D01*
X2107652Y569509D01*
X2107374Y569176D01*
X2107208Y568954D01*
X2107153Y568899D01*
X2105987Y567511D01*
X2104877Y566235D01*
X2103878Y565180D01*
X2103046Y564347D01*
X2102324Y563626D01*
X2101825Y563126D01*
X2101492Y562849D01*
X2101436Y562738D01*
X2101381D01*
X2100437Y561961D01*
X2099549Y561351D01*
X2098661Y560795D01*
X2097884Y560351D01*
X2097218Y560019D01*
X2096718Y559797D01*
X2096385Y559686D01*
X2096330Y559630D01*
X2096274D01*
X2095664Y559408D01*
X2095109Y559297D01*
X2094554Y559186D01*
X2094055Y559130D01*
X2093610Y559075D01*
X2093278D01*
X2093055D01*
X2093000D01*
Y584549D01*
X2097551D01*
Y565624D01*
D02*
G37*
G36*
X2103434Y550139D02*
X2104544Y549362D01*
X2105543Y548641D01*
X2106376Y547919D01*
X2107153Y547309D01*
X2107707Y546754D01*
X2108151Y546310D01*
X2108429Y546033D01*
X2108540Y545922D01*
X2108873Y545477D01*
X2109262Y544978D01*
X2109872Y543979D01*
X2110094Y543535D01*
X2110316Y543202D01*
X2110427Y542980D01*
X2110483Y542869D01*
X2110649Y543868D01*
X2110816Y544812D01*
X2111093Y545644D01*
X2111315Y546476D01*
X2111593Y547198D01*
X2111925Y547864D01*
X2112203Y548475D01*
X2112481Y549029D01*
X2112814Y549473D01*
X2113091Y549918D01*
X2113313Y550250D01*
X2113535Y550528D01*
X2113702Y550750D01*
X2113868Y550917D01*
X2113923Y550972D01*
X2113979Y551028D01*
X2114534Y551471D01*
X2115089Y551915D01*
X2116255Y552582D01*
X2117420Y553025D01*
X2118530Y553359D01*
X2119474Y553581D01*
X2119862Y553636D01*
X2120251D01*
X2120528Y553692D01*
X2120750D01*
X2120861D01*
X2120916D01*
X2122082Y553636D01*
X2123137Y553470D01*
X2124135Y553192D01*
X2124968Y552914D01*
X2125689Y552582D01*
X2126244Y552360D01*
X2126577Y552138D01*
X2126633Y552082D01*
X2126689D01*
X2127577Y551416D01*
X2128354Y550750D01*
X2129019Y550029D01*
X2129519Y549362D01*
X2129907Y548752D01*
X2130130Y548253D01*
X2130296Y547919D01*
X2130352Y547864D01*
Y547808D01*
X2130518Y547309D01*
X2130684Y546698D01*
X2130962Y545477D01*
X2131128Y544145D01*
X2131295Y542924D01*
X2131351Y541759D01*
Y541260D01*
X2131406Y540816D01*
Y523000D01*
X2093000D01*
Y528106D01*
X2110039D01*
Y534655D01*
X2109983Y535265D01*
Y535710D01*
X2109927Y536098D01*
X2109872Y536375D01*
Y536597D01*
X2109816Y536708D01*
Y536764D01*
X2109539Y537652D01*
X2109372Y538040D01*
X2109206Y538374D01*
X2109039Y538707D01*
X2108928Y538928D01*
X2108873Y539039D01*
X2108818Y539095D01*
X2108485Y539539D01*
X2108096Y539983D01*
X2107264Y540816D01*
X2106875Y541204D01*
X2106542Y541481D01*
X2106320Y541648D01*
X2106265Y541703D01*
X2105488Y542259D01*
X2104655Y542869D01*
X2103767Y543480D01*
X2102934Y544090D01*
X2102157Y544590D01*
X2101547Y544978D01*
X2101325Y545144D01*
X2101159Y545255D01*
X2101048Y545366D01*
X2100992D01*
X2093000Y550417D01*
Y556744D01*
X2103434Y550139D01*
D02*
G37*
G36*
X2553175Y3162834D02*
X2554119Y3162667D01*
X2554952Y3162556D01*
X2555729Y3162334D01*
X2556394Y3162112D01*
X2557061Y3161890D01*
X2557615Y3161668D01*
X2558115Y3161390D01*
X2558559Y3161169D01*
X2558948Y3160947D01*
X2559225Y3160724D01*
X2559447Y3160558D01*
X2559669Y3160447D01*
X2559724Y3160392D01*
X2559780Y3160336D01*
X2560280Y3159781D01*
X2560724Y3159226D01*
X2561112Y3158615D01*
X2561445Y3157950D01*
X2561945Y3156673D01*
X2562278Y3155452D01*
X2562499Y3154287D01*
X2562555Y3153843D01*
X2562610Y3153398D01*
X2562666Y3153066D01*
Y3152566D01*
X2562610Y3151345D01*
X2562444Y3150235D01*
X2562222Y3149236D01*
X2561945Y3148348D01*
X2561722Y3147626D01*
X2561501Y3147127D01*
X2561334Y3146794D01*
X2561278Y3146683D01*
X2560724Y3145795D01*
X2560057Y3145018D01*
X2559392Y3144407D01*
X2558781Y3143852D01*
X2558171Y3143464D01*
X2557727Y3143186D01*
X2557394Y3143020D01*
X2557338Y3142965D01*
X2557282D01*
X2556173Y3142576D01*
X2555007Y3142243D01*
X2553731Y3142021D01*
X2552510Y3141910D01*
X2551455Y3141799D01*
X2551011D01*
X2550567Y3141744D01*
X2550234D01*
X2550012D01*
X2549845D01*
X2549790D01*
X2523594D01*
Y3146849D01*
X2550068D01*
X2551233D01*
X2552232Y3146961D01*
X2553064Y3147016D01*
X2553731Y3147127D01*
X2554230Y3147238D01*
X2554619Y3147294D01*
X2554840Y3147405D01*
X2554896D01*
X2555451Y3147626D01*
X2555895Y3147904D01*
X2556284Y3148237D01*
X2556672Y3148515D01*
X2556894Y3148847D01*
X2557116Y3149070D01*
X2557227Y3149236D01*
X2557282Y3149291D01*
X2557560Y3149847D01*
X2557782Y3150401D01*
X2557893Y3150956D01*
X2558004Y3151456D01*
X2558059Y3151956D01*
X2558115Y3152289D01*
Y3152622D01*
X2558059Y3153510D01*
X2557838Y3154342D01*
X2557615Y3155008D01*
X2557282Y3155619D01*
X2557005Y3156062D01*
X2556727Y3156396D01*
X2556561Y3156617D01*
X2556506Y3156673D01*
X2556173Y3156950D01*
X2555784Y3157173D01*
X2554896Y3157506D01*
X2553897Y3157838D01*
X2552898Y3158005D01*
X2551954Y3158171D01*
X2551566D01*
X2551233Y3158227D01*
X2550900Y3158282D01*
X2550678D01*
X2550567D01*
X2550512D01*
X2551177Y3162889D01*
X2552232D01*
X2553175Y3162834D01*
D02*
G37*
G36*
X2552731Y3135195D02*
X2553564Y3135028D01*
X2555118Y3134528D01*
X2556450Y3133918D01*
X2557005Y3133585D01*
X2557560Y3133252D01*
X2558059Y3132919D01*
X2558448Y3132586D01*
X2558836Y3132309D01*
X2559114Y3132031D01*
X2559336Y3131865D01*
X2559503Y3131698D01*
X2559613Y3131587D01*
X2559669Y3131532D01*
X2560169Y3130865D01*
X2560668Y3130200D01*
X2561057Y3129534D01*
X2561390Y3128812D01*
X2561945Y3127425D01*
X2562278Y3126093D01*
X2562389Y3125482D01*
X2562499Y3124927D01*
X2562555Y3124427D01*
X2562610Y3123983D01*
X2562666Y3123651D01*
Y3123151D01*
X2562610Y3122097D01*
X2562499Y3121153D01*
X2562333Y3120209D01*
X2562111Y3119322D01*
X2561834Y3118489D01*
X2561556Y3117767D01*
X2561223Y3117046D01*
X2560890Y3116436D01*
X2560613Y3115825D01*
X2560280Y3115325D01*
X2560002Y3114881D01*
X2559724Y3114548D01*
X2559503Y3114271D01*
X2559336Y3114049D01*
X2559225Y3113938D01*
X2559169Y3113883D01*
X2558503Y3113216D01*
X2557782Y3112662D01*
X2557061Y3112162D01*
X2556339Y3111718D01*
X2555673Y3111385D01*
X2554952Y3111052D01*
X2553619Y3110608D01*
X2553009Y3110497D01*
X2552454Y3110386D01*
X2551954Y3110275D01*
X2551510Y3110220D01*
X2551177Y3110164D01*
X2550900D01*
X2550733D01*
X2550678D01*
X2549346Y3110220D01*
X2548125Y3110441D01*
X2547070Y3110774D01*
X2546182Y3111108D01*
X2545461Y3111441D01*
X2544906Y3111773D01*
X2544573Y3111995D01*
X2544462Y3112051D01*
X2543630Y3112828D01*
X2542908Y3113660D01*
X2542353Y3114548D01*
X2541909Y3115436D01*
X2541576Y3116213D01*
X2541354Y3116824D01*
X2541298Y3117046D01*
X2541243Y3117213D01*
X2541188Y3117323D01*
Y3117379D01*
X2540688Y3116436D01*
X2540189Y3115659D01*
X2539633Y3114992D01*
X2539134Y3114438D01*
X2538690Y3113994D01*
X2538302Y3113660D01*
X2538079Y3113494D01*
X2537968Y3113439D01*
X2537191Y3112994D01*
X2536414Y3112662D01*
X2535637Y3112384D01*
X2534916Y3112218D01*
X2534305Y3112106D01*
X2533861Y3112051D01*
X2533528D01*
X2533418D01*
X2532474Y3112106D01*
X2531530Y3112273D01*
X2530698Y3112495D01*
X2529977Y3112773D01*
X2529366Y3113050D01*
X2528867Y3113272D01*
X2528589Y3113439D01*
X2528478Y3113494D01*
X2527646Y3114049D01*
X2526924Y3114715D01*
X2526314Y3115381D01*
X2525758Y3116047D01*
X2525370Y3116602D01*
X2525037Y3117102D01*
X2524870Y3117434D01*
X2524815Y3117490D01*
Y3117546D01*
X2524371Y3118544D01*
X2524038Y3119544D01*
X2523760Y3120543D01*
X2523594Y3121430D01*
X2523483Y3122152D01*
X2523427Y3122762D01*
Y3124150D01*
X2523539Y3124927D01*
X2523816Y3126425D01*
X2524260Y3127702D01*
X2524704Y3128812D01*
X2524981Y3129311D01*
X2525204Y3129700D01*
X2525425Y3130088D01*
X2525648Y3130366D01*
X2525814Y3130588D01*
X2525925Y3130755D01*
X2525981Y3130865D01*
X2526036Y3130921D01*
X2527090Y3131976D01*
X2528256Y3132808D01*
X2529477Y3133474D01*
X2530698Y3134029D01*
X2531753Y3134362D01*
X2532197Y3134528D01*
X2532585Y3134640D01*
X2532918Y3134695D01*
X2533140Y3134751D01*
X2533307Y3134806D01*
X2533362D01*
X2534195Y3130088D01*
X2532974Y3129867D01*
X2531919Y3129534D01*
X2531031Y3129145D01*
X2530309Y3128756D01*
X2529755Y3128368D01*
X2529366Y3128035D01*
X2529088Y3127813D01*
X2529033Y3127758D01*
X2528478Y3127036D01*
X2528034Y3126259D01*
X2527756Y3125537D01*
X2527535Y3124816D01*
X2527423Y3124150D01*
X2527312Y3123651D01*
Y3123206D01*
X2527368Y3122207D01*
X2527590Y3121320D01*
X2527867Y3120543D01*
X2528145Y3119876D01*
X2528478Y3119377D01*
X2528756Y3118988D01*
X2528977Y3118711D01*
X2529033Y3118655D01*
X2529699Y3118045D01*
X2530421Y3117601D01*
X2531142Y3117323D01*
X2531808Y3117102D01*
X2532419Y3116990D01*
X2532863Y3116880D01*
X2533195D01*
X2533251D01*
X2533307D01*
X2533917D01*
X2534472Y3116990D01*
X2535416Y3117268D01*
X2536248Y3117657D01*
X2536970Y3118101D01*
X2537469Y3118544D01*
X2537858Y3118933D01*
X2538079Y3119211D01*
X2538135Y3119266D01*
Y3119322D01*
X2538635Y3120265D01*
X2539023Y3121153D01*
X2539300Y3122097D01*
X2539467Y3122929D01*
X2539578Y3123651D01*
X2539689Y3124261D01*
Y3124983D01*
X2539633Y3125204D01*
Y3125482D01*
X2543796Y3126037D01*
X2543630Y3125316D01*
X2543519Y3124649D01*
X2543407Y3124095D01*
X2543352Y3123595D01*
X2543296Y3123206D01*
Y3122707D01*
X2543407Y3121541D01*
X2543630Y3120487D01*
X2543963Y3119544D01*
X2544351Y3118767D01*
X2544740Y3118156D01*
X2545073Y3117712D01*
X2545294Y3117434D01*
X2545405Y3117323D01*
X2546238Y3116602D01*
X2547126Y3116047D01*
X2548014Y3115659D01*
X2548902Y3115436D01*
X2549624Y3115270D01*
X2550234Y3115215D01*
X2550456Y3115159D01*
X2550622D01*
X2550733D01*
X2550789D01*
X2552010Y3115270D01*
X2553120Y3115548D01*
X2554064Y3115881D01*
X2554896Y3116325D01*
X2555562Y3116769D01*
X2556061Y3117102D01*
X2556394Y3117379D01*
X2556506Y3117490D01*
X2557282Y3118378D01*
X2557838Y3119322D01*
X2558226Y3120265D01*
X2558503Y3121153D01*
X2558670Y3121930D01*
X2558726Y3122541D01*
X2558781Y3122762D01*
Y3123095D01*
X2558726Y3124095D01*
X2558503Y3125038D01*
X2558226Y3125870D01*
X2557893Y3126537D01*
X2557615Y3127091D01*
X2557338Y3127535D01*
X2557116Y3127758D01*
X2557061Y3127869D01*
X2556284Y3128535D01*
X2555396Y3129090D01*
X2554452Y3129589D01*
X2553453Y3129977D01*
X2552620Y3130255D01*
X2552232Y3130366D01*
X2551899Y3130421D01*
X2551622Y3130477D01*
X2551399Y3130532D01*
X2551289Y3130588D01*
X2551233D01*
X2551843Y3135305D01*
X2552731Y3135195D01*
D02*
G37*
G36*
X1893176Y3169834D02*
X1894119Y3169667D01*
X1894951Y3169556D01*
X1895728Y3169334D01*
X1896395Y3169112D01*
X1897061Y3168890D01*
X1897616Y3168668D01*
X1898115Y3168390D01*
X1898559Y3168169D01*
X1898947Y3167947D01*
X1899225Y3167724D01*
X1899447Y3167558D01*
X1899669Y3167447D01*
X1899725Y3167392D01*
X1899780Y3167336D01*
X1900280Y3166781D01*
X1900724Y3166226D01*
X1901112Y3165615D01*
X1901445Y3164950D01*
X1901945Y3163673D01*
X1902277Y3162452D01*
X1902499Y3161287D01*
X1902555Y3160843D01*
X1902611Y3160398D01*
X1902666Y3160066D01*
Y3159566D01*
X1902611Y3158345D01*
X1902444Y3157235D01*
X1902222Y3156236D01*
X1901945Y3155348D01*
X1901723Y3154626D01*
X1901501Y3154127D01*
X1901334Y3153794D01*
X1901278Y3153683D01*
X1900724Y3152795D01*
X1900057Y3152018D01*
X1899391Y3151407D01*
X1898781Y3150852D01*
X1898170Y3150464D01*
X1897726Y3150186D01*
X1897393Y3150020D01*
X1897338Y3149965D01*
X1897283D01*
X1896172Y3149576D01*
X1895007Y3149243D01*
X1893730Y3149021D01*
X1892509Y3148910D01*
X1891455Y3148799D01*
X1891011D01*
X1890567Y3148744D01*
X1890234D01*
X1890012D01*
X1889845D01*
X1889790D01*
X1863594D01*
Y3153849D01*
X1890068D01*
X1891233D01*
X1892232Y3153961D01*
X1893064Y3154016D01*
X1893730Y3154127D01*
X1894230Y3154238D01*
X1894619Y3154294D01*
X1894841Y3154405D01*
X1894896D01*
X1895451Y3154626D01*
X1895895Y3154904D01*
X1896284Y3155237D01*
X1896672Y3155515D01*
X1896894Y3155847D01*
X1897116Y3156070D01*
X1897227Y3156236D01*
X1897283Y3156291D01*
X1897560Y3156847D01*
X1897782Y3157401D01*
X1897893Y3157956D01*
X1898004Y3158456D01*
X1898060Y3158956D01*
X1898115Y3159289D01*
Y3159622D01*
X1898060Y3160510D01*
X1897838Y3161342D01*
X1897616Y3162008D01*
X1897283Y3162619D01*
X1897005Y3163062D01*
X1896727Y3163396D01*
X1896561Y3163617D01*
X1896505Y3163673D01*
X1896172Y3163950D01*
X1895784Y3164173D01*
X1894896Y3164506D01*
X1893897Y3164838D01*
X1892898Y3165005D01*
X1891955Y3165171D01*
X1891566D01*
X1891233Y3165227D01*
X1890900Y3165282D01*
X1890678D01*
X1890567D01*
X1890512D01*
X1891178Y3169889D01*
X1892232D01*
X1893176Y3169834D01*
D02*
G37*
G36*
X1868645Y3123213D02*
X1870254Y3124546D01*
X1871975Y3125822D01*
X1873639Y3126932D01*
X1875249Y3127986D01*
X1875970Y3128430D01*
X1876637Y3128819D01*
X1877247Y3129207D01*
X1877746Y3129485D01*
X1878190Y3129707D01*
X1878468Y3129874D01*
X1878690Y3129985D01*
X1878745Y3130040D01*
X1880966Y3131150D01*
X1883186Y3132149D01*
X1885294Y3132981D01*
X1886238Y3133314D01*
X1887181Y3133648D01*
X1888014Y3133981D01*
X1888791Y3134202D01*
X1889457Y3134425D01*
X1890012Y3134591D01*
X1890512Y3134758D01*
X1890844Y3134869D01*
X1891066Y3134924D01*
X1891122D01*
X1893398Y3135479D01*
X1894507Y3135701D01*
X1895506Y3135867D01*
X1896450Y3136034D01*
X1897393Y3136200D01*
X1898170Y3136311D01*
X1898947Y3136423D01*
X1899613Y3136478D01*
X1900224Y3136534D01*
X1900779Y3136589D01*
X1901223D01*
X1901556Y3136644D01*
X1901778D01*
X1901945D01*
X1902000D01*
Y3131816D01*
X1899891Y3131649D01*
X1897948Y3131372D01*
X1896172Y3131095D01*
X1895340Y3130928D01*
X1894563Y3130762D01*
X1893897Y3130651D01*
X1893286Y3130484D01*
X1892732Y3130373D01*
X1892287Y3130262D01*
X1891955Y3130151D01*
X1891677Y3130095D01*
X1891511Y3130040D01*
X1891455D01*
X1888902Y3129207D01*
X1886515Y3128320D01*
X1885350Y3127876D01*
X1884240Y3127432D01*
X1883241Y3126932D01*
X1882242Y3126488D01*
X1881354Y3126099D01*
X1880577Y3125711D01*
X1879911Y3125378D01*
X1879301Y3125101D01*
X1878801Y3124823D01*
X1878468Y3124657D01*
X1878246Y3124546D01*
X1878190Y3124490D01*
X1877025Y3123824D01*
X1875860Y3123158D01*
X1874805Y3122492D01*
X1873806Y3121826D01*
X1872918Y3121215D01*
X1872030Y3120605D01*
X1871253Y3119994D01*
X1870587Y3119495D01*
X1869921Y3118995D01*
X1869366Y3118552D01*
X1868922Y3118108D01*
X1868534Y3117774D01*
X1868200Y3117552D01*
X1867978Y3117331D01*
X1867868Y3117220D01*
X1867812Y3117164D01*
X1864093D01*
Y3142028D01*
X1868645D01*
Y3123213D01*
D02*
G37*
G36*
X1198176Y3197834D02*
X1199119Y3197667D01*
X1199951Y3197556D01*
X1200728Y3197334D01*
X1201395Y3197112D01*
X1202061Y3196890D01*
X1202616Y3196668D01*
X1203115Y3196390D01*
X1203559Y3196169D01*
X1203947Y3195947D01*
X1204225Y3195724D01*
X1204447Y3195558D01*
X1204669Y3195447D01*
X1204725Y3195392D01*
X1204780Y3195336D01*
X1205280Y3194781D01*
X1205724Y3194226D01*
X1206112Y3193615D01*
X1206445Y3192950D01*
X1206945Y3191673D01*
X1207277Y3190452D01*
X1207499Y3189287D01*
X1207555Y3188843D01*
X1207611Y3188398D01*
X1207666Y3188066D01*
Y3187566D01*
X1207611Y3186345D01*
X1207444Y3185235D01*
X1207222Y3184236D01*
X1206945Y3183348D01*
X1206723Y3182626D01*
X1206501Y3182127D01*
X1206334Y3181794D01*
X1206278Y3181683D01*
X1205724Y3180795D01*
X1205057Y3180018D01*
X1204391Y3179407D01*
X1203781Y3178852D01*
X1203170Y3178464D01*
X1202726Y3178186D01*
X1202393Y3178020D01*
X1202338Y3177965D01*
X1202283D01*
X1201172Y3177576D01*
X1200007Y3177243D01*
X1198730Y3177021D01*
X1197509Y3176910D01*
X1196455Y3176799D01*
X1196011D01*
X1195567Y3176744D01*
X1195234D01*
X1195012D01*
X1194845D01*
X1194790D01*
X1168594D01*
Y3181849D01*
X1195068D01*
X1196233D01*
X1197232Y3181961D01*
X1198064Y3182016D01*
X1198730Y3182127D01*
X1199230Y3182238D01*
X1199619Y3182294D01*
X1199841Y3182405D01*
X1199896D01*
X1200451Y3182626D01*
X1200895Y3182904D01*
X1201284Y3183237D01*
X1201672Y3183515D01*
X1201894Y3183847D01*
X1202116Y3184070D01*
X1202227Y3184236D01*
X1202283Y3184291D01*
X1202560Y3184847D01*
X1202782Y3185401D01*
X1202893Y3185956D01*
X1203004Y3186456D01*
X1203060Y3186956D01*
X1203115Y3187289D01*
Y3187622D01*
X1203060Y3188510D01*
X1202838Y3189342D01*
X1202616Y3190008D01*
X1202283Y3190619D01*
X1202005Y3191062D01*
X1201727Y3191396D01*
X1201561Y3191617D01*
X1201505Y3191673D01*
X1201172Y3191950D01*
X1200784Y3192173D01*
X1199896Y3192506D01*
X1198897Y3192838D01*
X1197898Y3193005D01*
X1196955Y3193171D01*
X1196566D01*
X1196233Y3193227D01*
X1195900Y3193282D01*
X1195678D01*
X1195567D01*
X1195512D01*
X1196178Y3197889D01*
X1197232D01*
X1198176Y3197834D01*
D02*
G37*
G36*
X1182303Y3165921D02*
X1181914Y3165088D01*
X1181525Y3164256D01*
X1181137Y3163479D01*
X1180804Y3162813D01*
X1180526Y3162258D01*
X1180304Y3161925D01*
X1180249Y3161869D01*
Y3161814D01*
X1179639Y3160815D01*
X1179028Y3159927D01*
X1178473Y3159150D01*
X1177974Y3158539D01*
X1177585Y3157985D01*
X1177252Y3157651D01*
X1177030Y3157374D01*
X1176975Y3157318D01*
X1207000D01*
Y3152601D01*
X1168428D01*
Y3155653D01*
X1169371Y3156209D01*
X1170259Y3156819D01*
X1171147Y3157541D01*
X1171924Y3158206D01*
X1172590Y3158872D01*
X1173145Y3159372D01*
X1173312Y3159594D01*
X1173478Y3159760D01*
X1173534Y3159816D01*
X1173589Y3159872D01*
X1174533Y3161037D01*
X1175420Y3162202D01*
X1176197Y3163312D01*
X1176808Y3164423D01*
X1177363Y3165366D01*
X1177585Y3165755D01*
X1177752Y3166088D01*
X1177918Y3166365D01*
X1177974Y3166587D01*
X1178084Y3166698D01*
Y3166753D01*
X1182636D01*
X1182303Y3165921D01*
D02*
G37*
G36*
X1207000Y3115693D02*
X1202449D01*
Y3134619D01*
X1201505Y3133953D01*
X1201117Y3133620D01*
X1200728Y3133343D01*
X1200396Y3133065D01*
X1200174Y3132843D01*
X1200007Y3132677D01*
X1199951Y3132621D01*
X1199674Y3132343D01*
X1199397Y3132010D01*
X1198675Y3131233D01*
X1197842Y3130345D01*
X1197010Y3129402D01*
X1196289Y3128514D01*
X1195956Y3128126D01*
X1195622Y3127793D01*
X1195400Y3127515D01*
X1195234Y3127293D01*
X1195123Y3127182D01*
X1195068Y3127126D01*
X1194291Y3126238D01*
X1193569Y3125351D01*
X1192848Y3124573D01*
X1192237Y3123852D01*
X1191627Y3123186D01*
X1191072Y3122631D01*
X1190572Y3122076D01*
X1190128Y3121632D01*
X1189684Y3121188D01*
X1189351Y3120855D01*
X1189073Y3120577D01*
X1188796Y3120300D01*
X1188463Y3120023D01*
X1188352Y3119912D01*
X1187409Y3119135D01*
X1186576Y3118468D01*
X1185744Y3117914D01*
X1185078Y3117470D01*
X1184467Y3117137D01*
X1184023Y3116914D01*
X1183745Y3116803D01*
X1183634Y3116748D01*
X1182802Y3116415D01*
X1181969Y3116193D01*
X1181193Y3115971D01*
X1180526Y3115860D01*
X1179916Y3115805D01*
X1179472Y3115749D01*
X1179195D01*
X1179083D01*
X1178251Y3115805D01*
X1177474Y3115916D01*
X1176697Y3116026D01*
X1176031Y3116249D01*
X1174699Y3116803D01*
X1173645Y3117358D01*
X1173145Y3117691D01*
X1172756Y3117969D01*
X1172368Y3118247D01*
X1172091Y3118524D01*
X1171869Y3118746D01*
X1171647Y3118857D01*
X1171591Y3118968D01*
X1171535Y3119023D01*
X1170980Y3119634D01*
X1170481Y3120300D01*
X1170092Y3121021D01*
X1169759Y3121743D01*
X1169205Y3123186D01*
X1168816Y3124629D01*
X1168705Y3125240D01*
X1168594Y3125850D01*
X1168539Y3126405D01*
X1168483Y3126849D01*
X1168428Y3127238D01*
Y3127793D01*
X1168483Y3128791D01*
X1168539Y3129735D01*
X1168705Y3130623D01*
X1168871Y3131456D01*
X1169093Y3132233D01*
X1169315Y3132954D01*
X1169593Y3133620D01*
X1169870Y3134231D01*
X1170148Y3134785D01*
X1170426Y3135229D01*
X1170648Y3135618D01*
X1170870Y3135951D01*
X1171036Y3136229D01*
X1171203Y3136395D01*
X1171258Y3136506D01*
X1171313Y3136561D01*
X1171869Y3137117D01*
X1172479Y3137616D01*
X1173145Y3138115D01*
X1173811Y3138504D01*
X1175143Y3139170D01*
X1176475Y3139614D01*
X1177085Y3139780D01*
X1177696Y3139947D01*
X1178196Y3140058D01*
X1178639Y3140169D01*
X1179028Y3140224D01*
X1179305D01*
X1179472Y3140280D01*
X1179527D01*
X1180027Y3135452D01*
X1178751Y3135340D01*
X1177640Y3135119D01*
X1176641Y3134785D01*
X1175864Y3134397D01*
X1175198Y3134064D01*
X1174755Y3133731D01*
X1174477Y3133509D01*
X1174366Y3133398D01*
X1173700Y3132566D01*
X1173200Y3131677D01*
X1172812Y3130734D01*
X1172590Y3129901D01*
X1172424Y3129124D01*
X1172368Y3128459D01*
X1172312Y3128236D01*
Y3127903D01*
X1172368Y3126738D01*
X1172590Y3125684D01*
X1172923Y3124796D01*
X1173256Y3124019D01*
X1173645Y3123408D01*
X1173922Y3123019D01*
X1174144Y3122742D01*
X1174255Y3122631D01*
X1175032Y3121965D01*
X1175809Y3121465D01*
X1176586Y3121077D01*
X1177363Y3120855D01*
X1177974Y3120689D01*
X1178528Y3120633D01*
X1178861Y3120577D01*
X1178917D01*
X1178973D01*
X1179972Y3120689D01*
X1181026Y3120910D01*
X1181969Y3121299D01*
X1182858Y3121688D01*
X1183579Y3122131D01*
X1184189Y3122520D01*
X1184411Y3122631D01*
X1184578Y3122742D01*
X1184633Y3122853D01*
X1184689D01*
X1185300Y3123297D01*
X1185910Y3123852D01*
X1186576Y3124463D01*
X1187242Y3125128D01*
X1188574Y3126516D01*
X1189906Y3127903D01*
X1190516Y3128625D01*
X1191072Y3129235D01*
X1191571Y3129846D01*
X1192015Y3130345D01*
X1192348Y3130734D01*
X1192626Y3131067D01*
X1192792Y3131289D01*
X1192848Y3131345D01*
X1194013Y3132732D01*
X1195123Y3134008D01*
X1196122Y3135063D01*
X1196955Y3135896D01*
X1197676Y3136617D01*
X1198176Y3137117D01*
X1198508Y3137394D01*
X1198564Y3137505D01*
X1198620D01*
X1199563Y3138282D01*
X1200451Y3138892D01*
X1201339Y3139448D01*
X1202116Y3139892D01*
X1202782Y3140224D01*
X1203282Y3140447D01*
X1203614Y3140557D01*
X1203670Y3140613D01*
X1203726D01*
X1204336Y3140835D01*
X1204891Y3140946D01*
X1205446Y3141057D01*
X1205946Y3141113D01*
X1206389Y3141168D01*
X1206723D01*
X1206945D01*
X1207000D01*
Y3115693D01*
D02*
G37*
G36*
X2105431Y707780D02*
X2106374Y707669D01*
X2107318Y707503D01*
X2108151Y707337D01*
X2108927Y707059D01*
X2109704Y706782D01*
X2110370Y706504D01*
X2110981Y706171D01*
X2111536Y705838D01*
X2112035Y705561D01*
X2112424Y705283D01*
X2112812Y705005D01*
X2113090Y704839D01*
X2113256Y704673D01*
X2113367Y704562D01*
X2113423Y704506D01*
X2114034Y703895D01*
X2114588Y703230D01*
X2115032Y702508D01*
X2115421Y701842D01*
X2115809Y701176D01*
X2116087Y700510D01*
X2116476Y699234D01*
X2116642Y698678D01*
X2116753Y698124D01*
X2116809Y697679D01*
X2116864Y697236D01*
X2116919Y696903D01*
Y696458D01*
X2116864Y695460D01*
X2116698Y694516D01*
X2116531Y693628D01*
X2116309Y692851D01*
X2116032Y692185D01*
X2115865Y691686D01*
X2115698Y691352D01*
X2115643Y691297D01*
Y691241D01*
X2115088Y690354D01*
X2114477Y689577D01*
X2113867Y688855D01*
X2113201Y688300D01*
X2112646Y687801D01*
X2112202Y687412D01*
X2111869Y687190D01*
X2111814Y687135D01*
X2112812D01*
X2113811Y687190D01*
X2114700Y687245D01*
X2115588Y687356D01*
X2116365Y687412D01*
X2117086Y687523D01*
X2117752Y687634D01*
X2118363Y687801D01*
X2118918Y687912D01*
X2119361Y688023D01*
X2119750Y688134D01*
X2120083Y688189D01*
X2120305Y688300D01*
X2120472Y688356D01*
X2120582Y688411D01*
X2120638D01*
X2121748Y688966D01*
X2122747Y689521D01*
X2123524Y690131D01*
X2124190Y690687D01*
X2124745Y691186D01*
X2125133Y691574D01*
X2125356Y691852D01*
X2125411Y691963D01*
X2125855Y692629D01*
X2126133Y693295D01*
X2126354Y693961D01*
X2126521Y694627D01*
X2126632Y695126D01*
X2126688Y695571D01*
Y695959D01*
X2126577Y696958D01*
X2126354Y697902D01*
X2126021Y698678D01*
X2125689Y699400D01*
X2125300Y699955D01*
X2124967Y700343D01*
X2124745Y700566D01*
X2124634Y700677D01*
X2124135Y701065D01*
X2123524Y701453D01*
X2122858Y701787D01*
X2122192Y702009D01*
X2121581Y702231D01*
X2121082Y702397D01*
X2120749Y702452D01*
X2120693Y702508D01*
X2120638D01*
X2121026Y707226D01*
X2122581Y706893D01*
X2123968Y706393D01*
X2125189Y705838D01*
X2126188Y705227D01*
X2126965Y704617D01*
X2127298Y704395D01*
X2127575Y704117D01*
X2127742Y703951D01*
X2127909Y703784D01*
X2127964Y703729D01*
X2128019Y703673D01*
X2128463Y703119D01*
X2128852Y702508D01*
X2129518Y701287D01*
X2129962Y700066D01*
X2130240Y698900D01*
X2130461Y697846D01*
X2130517Y697402D01*
Y697014D01*
X2130573Y696681D01*
Y696236D01*
X2130517Y695126D01*
X2130406Y694072D01*
X2130184Y693073D01*
X2129907Y692130D01*
X2129518Y691297D01*
X2129185Y690465D01*
X2128741Y689743D01*
X2128352Y689077D01*
X2127964Y688522D01*
X2127520Y687967D01*
X2127187Y687523D01*
X2126854Y687190D01*
X2126521Y686913D01*
X2126299Y686691D01*
X2126188Y686580D01*
X2126133Y686524D01*
X2125133Y685803D01*
X2123968Y685192D01*
X2122747Y684637D01*
X2121470Y684138D01*
X2120139Y683749D01*
X2118807Y683416D01*
X2117419Y683139D01*
X2116142Y682917D01*
X2114866Y682750D01*
X2113700Y682639D01*
X2112646Y682528D01*
X2111758Y682472D01*
X2110981D01*
X2110426Y682417D01*
X2110204D01*
X2110037D01*
X2109982D01*
X2109927D01*
X2108151Y682472D01*
X2106485Y682583D01*
X2104932Y682750D01*
X2103488Y683028D01*
X2102212Y683305D01*
X2101046Y683582D01*
X2099992Y683915D01*
X2099048Y684304D01*
X2098271Y684637D01*
X2097550Y684970D01*
X2096995Y685247D01*
X2096495Y685581D01*
X2096107Y685803D01*
X2095885Y685969D01*
X2095718Y686080D01*
X2095663Y686135D01*
X2094886Y686857D01*
X2094220Y687634D01*
X2093665Y688411D01*
X2093166Y689188D01*
X2092722Y690020D01*
X2092389Y690798D01*
X2092111Y691574D01*
X2091889Y692351D01*
X2091722Y693018D01*
X2091556Y693683D01*
X2091445Y694239D01*
X2091390Y694738D01*
Y695182D01*
X2091334Y695460D01*
Y695737D01*
X2091390Y697014D01*
X2091611Y698179D01*
X2091834Y699234D01*
X2092166Y700177D01*
X2092444Y700899D01*
X2092722Y701453D01*
X2092777Y701676D01*
X2092888Y701842D01*
X2092943Y701898D01*
Y701953D01*
X2093610Y702896D01*
X2094387Y703784D01*
X2095164Y704506D01*
X2095941Y705116D01*
X2096662Y705616D01*
X2097217Y705949D01*
X2097439Y706060D01*
X2097606Y706171D01*
X2097661Y706226D01*
X2097716D01*
X2098882Y706782D01*
X2100103Y707170D01*
X2101213Y707447D01*
X2102267Y707614D01*
X2103155Y707780D01*
X2103488D01*
X2103822Y707836D01*
X2104099D01*
X2104265D01*
X2104376D01*
X2104432D01*
X2105431Y707780D01*
D02*
G37*
G36*
X2130406Y671150D02*
X2103932D01*
X2102767D01*
X2101768Y671039D01*
X2100936Y670984D01*
X2100269Y670873D01*
X2099770Y670762D01*
X2099381Y670707D01*
X2099160Y670596D01*
X2099104D01*
X2098549Y670374D01*
X2098105Y670096D01*
X2097716Y669763D01*
X2097328Y669486D01*
X2097106Y669153D01*
X2096884Y668931D01*
X2096773Y668764D01*
X2096718Y668708D01*
X2096440Y668154D01*
X2096218Y667598D01*
X2096107Y667043D01*
X2095996Y666544D01*
X2095941Y666044D01*
X2095885Y665712D01*
Y665379D01*
X2095941Y664490D01*
X2096162Y663658D01*
X2096385Y662992D01*
X2096718Y662381D01*
X2096995Y661938D01*
X2097273Y661605D01*
X2097439Y661383D01*
X2097494Y661327D01*
X2097827Y661049D01*
X2098216Y660827D01*
X2099104Y660495D01*
X2100103Y660162D01*
X2101102Y659995D01*
X2102046Y659828D01*
X2102434D01*
X2102767Y659773D01*
X2103100Y659717D01*
X2103322D01*
X2103433D01*
X2103488D01*
X2102823Y655111D01*
X2101768D01*
X2100825Y655167D01*
X2099881Y655333D01*
X2099048Y655444D01*
X2098271Y655666D01*
X2097606Y655888D01*
X2096939Y656110D01*
X2096385Y656332D01*
X2095885Y656610D01*
X2095441Y656832D01*
X2095052Y657053D01*
X2094775Y657275D01*
X2094553Y657442D01*
X2094331Y657553D01*
X2094276Y657609D01*
X2094220Y657664D01*
X2093720Y658219D01*
X2093276Y658774D01*
X2092888Y659385D01*
X2092555Y660051D01*
X2092055Y661327D01*
X2091722Y662548D01*
X2091501Y663713D01*
X2091445Y664158D01*
X2091390Y664601D01*
X2091334Y664934D01*
Y665434D01*
X2091390Y666655D01*
X2091556Y667765D01*
X2091778Y668764D01*
X2092055Y669652D01*
X2092278Y670374D01*
X2092499Y670873D01*
X2092666Y671206D01*
X2092722Y671317D01*
X2093276Y672205D01*
X2093943Y672982D01*
X2094608Y673592D01*
X2095219Y674148D01*
X2095829Y674536D01*
X2096273Y674813D01*
X2096606Y674980D01*
X2096662Y675035D01*
X2096718D01*
X2097827Y675424D01*
X2098993Y675757D01*
X2100269Y675979D01*
X2101490Y676090D01*
X2102545Y676201D01*
X2102989D01*
X2103433Y676256D01*
X2103766D01*
X2103988D01*
X2104155D01*
X2104210D01*
X2130406D01*
Y671150D01*
D02*
G37*
G36*
X2935175Y3282834D02*
X2936119Y3282667D01*
X2936952Y3282556D01*
X2937729Y3282334D01*
X2938394Y3282112D01*
X2939061Y3281890D01*
X2939615Y3281668D01*
X2940115Y3281390D01*
X2940559Y3281169D01*
X2940948Y3280947D01*
X2941225Y3280724D01*
X2941447Y3280558D01*
X2941669Y3280447D01*
X2941724Y3280392D01*
X2941780Y3280336D01*
X2942280Y3279781D01*
X2942724Y3279226D01*
X2943112Y3278615D01*
X2943445Y3277950D01*
X2943945Y3276673D01*
X2944278Y3275452D01*
X2944499Y3274287D01*
X2944555Y3273843D01*
X2944610Y3273398D01*
X2944666Y3273066D01*
Y3272566D01*
X2944610Y3271345D01*
X2944444Y3270235D01*
X2944222Y3269236D01*
X2943945Y3268348D01*
X2943722Y3267626D01*
X2943501Y3267127D01*
X2943334Y3266794D01*
X2943278Y3266683D01*
X2942724Y3265795D01*
X2942057Y3265018D01*
X2941392Y3264407D01*
X2940781Y3263852D01*
X2940171Y3263464D01*
X2939727Y3263186D01*
X2939394Y3263020D01*
X2939338Y3262965D01*
X2939282D01*
X2938173Y3262576D01*
X2937007Y3262243D01*
X2935731Y3262021D01*
X2934510Y3261910D01*
X2933455Y3261799D01*
X2933011D01*
X2932567Y3261744D01*
X2932234D01*
X2932012D01*
X2931845D01*
X2931790D01*
X2905594D01*
Y3266849D01*
X2932068D01*
X2933233D01*
X2934232Y3266961D01*
X2935064Y3267016D01*
X2935731Y3267127D01*
X2936230Y3267238D01*
X2936619Y3267294D01*
X2936840Y3267405D01*
X2936896D01*
X2937451Y3267626D01*
X2937895Y3267904D01*
X2938284Y3268237D01*
X2938672Y3268515D01*
X2938894Y3268847D01*
X2939116Y3269070D01*
X2939227Y3269236D01*
X2939282Y3269291D01*
X2939560Y3269847D01*
X2939782Y3270401D01*
X2939893Y3270956D01*
X2940004Y3271456D01*
X2940059Y3271956D01*
X2940115Y3272289D01*
Y3272622D01*
X2940059Y3273510D01*
X2939838Y3274342D01*
X2939615Y3275008D01*
X2939282Y3275619D01*
X2939005Y3276062D01*
X2938727Y3276396D01*
X2938561Y3276617D01*
X2938506Y3276673D01*
X2938173Y3276950D01*
X2937784Y3277173D01*
X2936896Y3277506D01*
X2935897Y3277838D01*
X2934898Y3278005D01*
X2933954Y3278171D01*
X2933566D01*
X2933233Y3278227D01*
X2932900Y3278282D01*
X2932678D01*
X2932567D01*
X2932512D01*
X2933177Y3282889D01*
X2934232D01*
X2935175Y3282834D01*
D02*
G37*
G36*
X2944000Y3230552D02*
X2939449D01*
Y3249478D01*
X2938506Y3248812D01*
X2938117Y3248479D01*
X2937729Y3248202D01*
X2937396Y3247924D01*
X2937173Y3247702D01*
X2937007Y3247535D01*
X2936952Y3247480D01*
X2936674Y3247202D01*
X2936396Y3246869D01*
X2935675Y3246093D01*
X2934843Y3245204D01*
X2934010Y3244261D01*
X2933289Y3243373D01*
X2932956Y3242985D01*
X2932622Y3242651D01*
X2932401Y3242374D01*
X2932234Y3242152D01*
X2932123Y3242041D01*
X2932068Y3241985D01*
X2931291Y3241097D01*
X2930569Y3240209D01*
X2929847Y3239432D01*
X2929237Y3238711D01*
X2928626Y3238045D01*
X2928072Y3237490D01*
X2927572Y3236935D01*
X2927128Y3236491D01*
X2926684Y3236047D01*
X2926351Y3235714D01*
X2926073Y3235436D01*
X2925796Y3235159D01*
X2925463Y3234881D01*
X2925352Y3234771D01*
X2924409Y3233994D01*
X2923576Y3233327D01*
X2922744Y3232773D01*
X2922077Y3232329D01*
X2921467Y3231995D01*
X2921023Y3231773D01*
X2920745Y3231662D01*
X2920635Y3231607D01*
X2919802Y3231274D01*
X2918970Y3231052D01*
X2918193Y3230830D01*
X2917526Y3230719D01*
X2916916Y3230664D01*
X2916472Y3230608D01*
X2916195D01*
X2916084D01*
X2915251Y3230664D01*
X2914474Y3230774D01*
X2913697Y3230885D01*
X2913031Y3231108D01*
X2911699Y3231662D01*
X2910644Y3232218D01*
X2910145Y3232550D01*
X2909756Y3232828D01*
X2909368Y3233106D01*
X2909090Y3233383D01*
X2908869Y3233605D01*
X2908646Y3233716D01*
X2908591Y3233827D01*
X2908535Y3233883D01*
X2907981Y3234493D01*
X2907481Y3235159D01*
X2907093Y3235881D01*
X2906760Y3236602D01*
X2906204Y3238045D01*
X2905816Y3239488D01*
X2905705Y3240099D01*
X2905594Y3240709D01*
X2905539Y3241264D01*
X2905483Y3241708D01*
X2905427Y3242097D01*
Y3242651D01*
X2905483Y3243651D01*
X2905539Y3244594D01*
X2905705Y3245482D01*
X2905872Y3246314D01*
X2906093Y3247091D01*
X2906316Y3247813D01*
X2906593Y3248479D01*
X2906870Y3249090D01*
X2907148Y3249644D01*
X2907425Y3250088D01*
X2907648Y3250477D01*
X2907869Y3250810D01*
X2908036Y3251088D01*
X2908202Y3251254D01*
X2908258Y3251365D01*
X2908314Y3251421D01*
X2908869Y3251976D01*
X2909479Y3252475D01*
X2910145Y3252974D01*
X2910811Y3253363D01*
X2912143Y3254029D01*
X2913475Y3254473D01*
X2914086Y3254640D01*
X2914696Y3254806D01*
X2915195Y3254917D01*
X2915640Y3255028D01*
X2916028Y3255084D01*
X2916305D01*
X2916472Y3255139D01*
X2916528D01*
X2917027Y3250311D01*
X2915751Y3250200D01*
X2914640Y3249977D01*
X2913642Y3249644D01*
X2912865Y3249256D01*
X2912198Y3248923D01*
X2911755Y3248590D01*
X2911477Y3248368D01*
X2911366Y3248257D01*
X2910700Y3247425D01*
X2910200Y3246537D01*
X2909812Y3245593D01*
X2909590Y3244760D01*
X2909423Y3243983D01*
X2909368Y3243318D01*
X2909312Y3243095D01*
Y3242762D01*
X2909368Y3241597D01*
X2909590Y3240543D01*
X2909923Y3239655D01*
X2910256Y3238878D01*
X2910644Y3238267D01*
X2910922Y3237878D01*
X2911144Y3237601D01*
X2911255Y3237490D01*
X2912032Y3236824D01*
X2912809Y3236325D01*
X2913586Y3235936D01*
X2914363Y3235714D01*
X2914974Y3235548D01*
X2915528Y3235492D01*
X2915861Y3235436D01*
X2915917D01*
X2915972D01*
X2916972Y3235548D01*
X2918026Y3235769D01*
X2918970Y3236158D01*
X2919858Y3236546D01*
X2920579Y3236990D01*
X2921189Y3237379D01*
X2921412Y3237490D01*
X2921578Y3237601D01*
X2921633Y3237712D01*
X2921689D01*
X2922300Y3238156D01*
X2922910Y3238711D01*
X2923576Y3239322D01*
X2924242Y3239988D01*
X2925574Y3241375D01*
X2926906Y3242762D01*
X2927517Y3243484D01*
X2928072Y3244095D01*
X2928571Y3244705D01*
X2929015Y3245204D01*
X2929348Y3245593D01*
X2929626Y3245926D01*
X2929792Y3246148D01*
X2929847Y3246204D01*
X2931013Y3247591D01*
X2932123Y3248867D01*
X2933122Y3249922D01*
X2933954Y3250755D01*
X2934676Y3251476D01*
X2935175Y3251976D01*
X2935508Y3252253D01*
X2935564Y3252364D01*
X2935619D01*
X2936563Y3253141D01*
X2937451Y3253751D01*
X2938339Y3254307D01*
X2939116Y3254751D01*
X2939782Y3255084D01*
X2940282Y3255305D01*
X2940615Y3255416D01*
X2940670Y3255472D01*
X2940726D01*
X2941336Y3255694D01*
X2941891Y3255805D01*
X2942446Y3255916D01*
X2942945Y3255972D01*
X2943390Y3256027D01*
X2943722D01*
X2943945D01*
X2944000D01*
Y3230552D01*
D02*
G37*
G36*
X2279175Y3290235D02*
X2280119Y3290068D01*
X2280952Y3289957D01*
X2281729Y3289735D01*
X2282394Y3289514D01*
X2283061Y3289291D01*
X2283615Y3289070D01*
X2284115Y3288792D01*
X2284559Y3288570D01*
X2284948Y3288348D01*
X2285225Y3288126D01*
X2285447Y3287959D01*
X2285669Y3287849D01*
X2285724Y3287793D01*
X2285780Y3287738D01*
X2286280Y3287182D01*
X2286724Y3286628D01*
X2287112Y3286017D01*
X2287445Y3285351D01*
X2287945Y3284075D01*
X2288278Y3282854D01*
X2288499Y3281688D01*
X2288555Y3281244D01*
X2288610Y3280800D01*
X2288666Y3280467D01*
Y3279968D01*
X2288610Y3278747D01*
X2288444Y3277637D01*
X2288222Y3276637D01*
X2287945Y3275749D01*
X2287722Y3275028D01*
X2287501Y3274528D01*
X2287334Y3274195D01*
X2287278Y3274084D01*
X2286724Y3273197D01*
X2286057Y3272419D01*
X2285392Y3271809D01*
X2284781Y3271254D01*
X2284171Y3270865D01*
X2283727Y3270588D01*
X2283394Y3270421D01*
X2283338Y3270366D01*
X2283282D01*
X2282173Y3269977D01*
X2281007Y3269644D01*
X2279731Y3269423D01*
X2278510Y3269311D01*
X2277455Y3269200D01*
X2277011D01*
X2276567Y3269145D01*
X2276234D01*
X2276012D01*
X2275845D01*
X2275790D01*
X2249594D01*
Y3274251D01*
X2276068D01*
X2277233D01*
X2278232Y3274362D01*
X2279064Y3274418D01*
X2279731Y3274528D01*
X2280230Y3274640D01*
X2280619Y3274695D01*
X2280840Y3274806D01*
X2280896D01*
X2281451Y3275028D01*
X2281895Y3275305D01*
X2282284Y3275639D01*
X2282672Y3275916D01*
X2282894Y3276249D01*
X2283116Y3276471D01*
X2283227Y3276637D01*
X2283282Y3276693D01*
X2283560Y3277248D01*
X2283782Y3277803D01*
X2283893Y3278358D01*
X2284004Y3278858D01*
X2284059Y3279357D01*
X2284115Y3279690D01*
Y3280023D01*
X2284059Y3280911D01*
X2283838Y3281744D01*
X2283615Y3282410D01*
X2283282Y3283020D01*
X2283005Y3283464D01*
X2282727Y3283797D01*
X2282561Y3284019D01*
X2282506Y3284075D01*
X2282173Y3284352D01*
X2281784Y3284574D01*
X2280896Y3284907D01*
X2279897Y3285240D01*
X2278898Y3285407D01*
X2277954Y3285573D01*
X2277566D01*
X2277233Y3285628D01*
X2276900Y3285684D01*
X2276678D01*
X2276567D01*
X2276512D01*
X2277177Y3290291D01*
X2278232D01*
X2279175Y3290235D01*
D02*
G37*
G36*
X2278843Y3262651D02*
X2279675Y3262485D01*
X2281229Y3261985D01*
X2282561Y3261375D01*
X2283171Y3261042D01*
X2283671Y3260709D01*
X2284171Y3260432D01*
X2284615Y3260099D01*
X2284948Y3259821D01*
X2285225Y3259544D01*
X2285447Y3259322D01*
X2285669Y3259211D01*
X2285724Y3259099D01*
X2285780Y3259044D01*
X2286280Y3258378D01*
X2286724Y3257712D01*
X2287112Y3256990D01*
X2287445Y3256269D01*
X2287945Y3254881D01*
X2288278Y3253494D01*
X2288444Y3252883D01*
X2288499Y3252273D01*
X2288555Y3251773D01*
X2288610Y3251329D01*
X2288666Y3250941D01*
Y3250441D01*
X2288610Y3249276D01*
X2288444Y3248166D01*
X2288222Y3247111D01*
X2287945Y3246168D01*
X2287556Y3245280D01*
X2287168Y3244448D01*
X2286779Y3243671D01*
X2286335Y3243005D01*
X2285891Y3242394D01*
X2285503Y3241839D01*
X2285059Y3241395D01*
X2284726Y3241006D01*
X2284448Y3240729D01*
X2284226Y3240507D01*
X2284059Y3240396D01*
X2284004Y3240340D01*
X2283282Y3239785D01*
X2282506Y3239341D01*
X2281784Y3238898D01*
X2281007Y3238564D01*
X2279508Y3238010D01*
X2278066Y3237677D01*
X2277455Y3237566D01*
X2276845Y3237454D01*
X2276345Y3237399D01*
X2275901Y3237343D01*
X2275512Y3237288D01*
X2275235D01*
X2275068D01*
X2275013D01*
X2274014Y3237343D01*
X2273070Y3237454D01*
X2272127Y3237621D01*
X2271294Y3237843D01*
X2270517Y3238120D01*
X2269740Y3238398D01*
X2269075Y3238731D01*
X2268464Y3239008D01*
X2267909Y3239341D01*
X2267410Y3239675D01*
X2267021Y3239952D01*
X2266633Y3240229D01*
X2266355Y3240452D01*
X2266189Y3240618D01*
X2266077Y3240729D01*
X2266022Y3240785D01*
X2265412Y3241450D01*
X2264856Y3242117D01*
X2264412Y3242838D01*
X2264024Y3243559D01*
X2263635Y3244281D01*
X2263358Y3245003D01*
X2262970Y3246334D01*
X2262803Y3246945D01*
X2262692Y3247500D01*
X2262637Y3247999D01*
X2262581Y3248443D01*
X2262526Y3248776D01*
Y3249997D01*
X2262637Y3250664D01*
X2262914Y3251995D01*
X2263302Y3253216D01*
X2263747Y3254327D01*
X2264191Y3255215D01*
X2264412Y3255603D01*
X2264579Y3255936D01*
X2264745Y3256213D01*
X2264856Y3256380D01*
X2264912Y3256491D01*
X2264968Y3256546D01*
X2254589Y3254493D01*
Y3239119D01*
X2250093D01*
Y3258211D01*
X2269852Y3261930D01*
X2270462Y3257490D01*
X2269852Y3257102D01*
X2269352Y3256602D01*
X2268852Y3256158D01*
X2268464Y3255714D01*
X2268186Y3255270D01*
X2267909Y3254937D01*
X2267798Y3254715D01*
X2267742Y3254660D01*
X2267410Y3253938D01*
X2267132Y3253216D01*
X2266965Y3252550D01*
X2266799Y3251885D01*
X2266744Y3251329D01*
X2266688Y3250885D01*
Y3249831D01*
X2266799Y3249165D01*
X2267077Y3247999D01*
X2267465Y3247001D01*
X2267854Y3246113D01*
X2268298Y3245447D01*
X2268686Y3244947D01*
X2268963Y3244669D01*
X2269019Y3244559D01*
X2269075D01*
X2270018Y3243782D01*
X2271017Y3243227D01*
X2272072Y3242838D01*
X2273126Y3242561D01*
X2274014Y3242394D01*
X2274403Y3242338D01*
X2274735D01*
X2275013Y3242283D01*
X2275235D01*
X2275346D01*
X2275401D01*
X2276178D01*
X2276900Y3242394D01*
X2278287Y3242671D01*
X2279453Y3243060D01*
X2280396Y3243448D01*
X2281173Y3243892D01*
X2281784Y3244281D01*
X2281950Y3244448D01*
X2282117Y3244559D01*
X2282173Y3244614D01*
X2282228Y3244669D01*
X2282672Y3245113D01*
X2283061Y3245557D01*
X2283727Y3246557D01*
X2284171Y3247500D01*
X2284448Y3248443D01*
X2284670Y3249220D01*
X2284726Y3249887D01*
X2284781Y3250108D01*
Y3250441D01*
X2284726Y3251496D01*
X2284503Y3252439D01*
X2284226Y3253272D01*
X2283893Y3253938D01*
X2283560Y3254548D01*
X2283282Y3254992D01*
X2283061Y3255215D01*
X2283005Y3255325D01*
X2282228Y3255992D01*
X2281396Y3256546D01*
X2280452Y3256990D01*
X2279619Y3257323D01*
X2278787Y3257546D01*
X2278177Y3257712D01*
X2277899Y3257767D01*
X2277733Y3257823D01*
X2277622D01*
X2277566D01*
X2277954Y3262762D01*
X2278843Y3262651D01*
D02*
G37*
G36*
X1580176Y3306369D02*
X1581119Y3306203D01*
X1581951Y3306092D01*
X1582728Y3305870D01*
X1583395Y3305648D01*
X1584061Y3305426D01*
X1584616Y3305204D01*
X1585115Y3304927D01*
X1585559Y3304704D01*
X1585947Y3304483D01*
X1586225Y3304260D01*
X1586447Y3304094D01*
X1586669Y3303983D01*
X1586725Y3303927D01*
X1586780Y3303872D01*
X1587280Y3303317D01*
X1587724Y3302762D01*
X1588112Y3302151D01*
X1588445Y3301485D01*
X1588945Y3300209D01*
X1589277Y3298988D01*
X1589499Y3297823D01*
X1589555Y3297378D01*
X1589611Y3296934D01*
X1589666Y3296602D01*
Y3296102D01*
X1589611Y3294881D01*
X1589444Y3293771D01*
X1589222Y3292772D01*
X1588945Y3291884D01*
X1588723Y3291162D01*
X1588501Y3290663D01*
X1588334Y3290330D01*
X1588278Y3290219D01*
X1587724Y3289331D01*
X1587057Y3288554D01*
X1586391Y3287943D01*
X1585781Y3287389D01*
X1585170Y3287000D01*
X1584726Y3286722D01*
X1584393Y3286556D01*
X1584338Y3286501D01*
X1584283D01*
X1583172Y3286112D01*
X1582007Y3285779D01*
X1580730Y3285557D01*
X1579509Y3285446D01*
X1578455Y3285335D01*
X1578011D01*
X1577567Y3285280D01*
X1577234D01*
X1577012D01*
X1576845D01*
X1576790D01*
X1550594D01*
Y3290385D01*
X1577068D01*
X1578233D01*
X1579232Y3290497D01*
X1580064Y3290552D01*
X1580730Y3290663D01*
X1581230Y3290774D01*
X1581619Y3290829D01*
X1581841Y3290941D01*
X1581896D01*
X1582451Y3291162D01*
X1582895Y3291440D01*
X1583284Y3291773D01*
X1583672Y3292050D01*
X1583894Y3292383D01*
X1584116Y3292606D01*
X1584227Y3292772D01*
X1584283Y3292827D01*
X1584560Y3293383D01*
X1584782Y3293938D01*
X1584893Y3294492D01*
X1585004Y3294992D01*
X1585060Y3295492D01*
X1585115Y3295825D01*
Y3296157D01*
X1585060Y3297046D01*
X1584838Y3297878D01*
X1584616Y3298544D01*
X1584283Y3299155D01*
X1584005Y3299599D01*
X1583727Y3299932D01*
X1583561Y3300153D01*
X1583505Y3300209D01*
X1583172Y3300486D01*
X1582784Y3300709D01*
X1581896Y3301041D01*
X1580897Y3301374D01*
X1579898Y3301541D01*
X1578955Y3301707D01*
X1578566D01*
X1578233Y3301763D01*
X1577900Y3301818D01*
X1577678D01*
X1577567D01*
X1577512D01*
X1578178Y3306425D01*
X1579232D01*
X1580176Y3306369D01*
D02*
G37*
G36*
X1564303Y3274457D02*
X1563914Y3273624D01*
X1563525Y3272792D01*
X1563137Y3272015D01*
X1562804Y3271349D01*
X1562526Y3270794D01*
X1562304Y3270461D01*
X1562249Y3270405D01*
Y3270350D01*
X1561639Y3269351D01*
X1561028Y3268463D01*
X1560473Y3267686D01*
X1559974Y3267075D01*
X1559585Y3266521D01*
X1559252Y3266188D01*
X1559030Y3265910D01*
X1558975Y3265854D01*
X1589000D01*
Y3261137D01*
X1550428D01*
Y3264189D01*
X1551371Y3264744D01*
X1552259Y3265355D01*
X1553147Y3266077D01*
X1553924Y3266742D01*
X1554590Y3267409D01*
X1555145Y3267908D01*
X1555312Y3268130D01*
X1555478Y3268296D01*
X1555534Y3268352D01*
X1555589Y3268407D01*
X1556533Y3269573D01*
X1557420Y3270738D01*
X1558197Y3271849D01*
X1558808Y3272959D01*
X1559363Y3273902D01*
X1559585Y3274291D01*
X1559752Y3274624D01*
X1559918Y3274901D01*
X1559974Y3275123D01*
X1560084Y3275234D01*
Y3275289D01*
X1564636D01*
X1564303Y3274457D01*
D02*
G37*
G36*
Y3244598D02*
X1563914Y3243765D01*
X1563525Y3242933D01*
X1563137Y3242156D01*
X1562804Y3241490D01*
X1562526Y3240935D01*
X1562304Y3240602D01*
X1562249Y3240546D01*
Y3240491D01*
X1561639Y3239492D01*
X1561028Y3238604D01*
X1560473Y3237827D01*
X1559974Y3237216D01*
X1559585Y3236662D01*
X1559252Y3236329D01*
X1559030Y3236051D01*
X1558975Y3235995D01*
X1589000D01*
Y3231278D01*
X1550428D01*
Y3234331D01*
X1551371Y3234885D01*
X1552259Y3235496D01*
X1553147Y3236218D01*
X1553924Y3236883D01*
X1554590Y3237550D01*
X1555145Y3238049D01*
X1555312Y3238271D01*
X1555478Y3238438D01*
X1555534Y3238493D01*
X1555589Y3238548D01*
X1556533Y3239714D01*
X1557420Y3240880D01*
X1558197Y3241990D01*
X1558808Y3243099D01*
X1559363Y3244043D01*
X1559585Y3244432D01*
X1559752Y3244765D01*
X1559918Y3245042D01*
X1559974Y3245264D01*
X1560084Y3245375D01*
Y3245430D01*
X1564636D01*
X1564303Y3244598D01*
D02*
G37*
G36*
X1730477Y589836D02*
X1731588Y589725D01*
X1732642Y589614D01*
X1733585Y589503D01*
X1734474Y589392D01*
X1735306Y589226D01*
X1736027Y589059D01*
X1736638Y588893D01*
X1737193Y588782D01*
X1737693Y588615D01*
X1738081Y588504D01*
X1738359Y588393D01*
X1738581Y588282D01*
X1738691Y588226D01*
X1738747D01*
X1740079Y587561D01*
X1741245Y586839D01*
X1742244Y586006D01*
X1743076Y585285D01*
X1743687Y584563D01*
X1744130Y584009D01*
X1744297Y583787D01*
X1744408Y583620D01*
X1744519Y583564D01*
Y583509D01*
X1745185Y582343D01*
X1745685Y581178D01*
X1746073Y580013D01*
X1746295Y578958D01*
X1746461Y578014D01*
X1746517Y577626D01*
Y577348D01*
X1746572Y577071D01*
Y576683D01*
X1746517Y575739D01*
X1746406Y574851D01*
X1746239Y573963D01*
X1746017Y573186D01*
X1745407Y571688D01*
X1745130Y571021D01*
X1744796Y570466D01*
X1744408Y569912D01*
X1744130Y569467D01*
X1743797Y569024D01*
X1743520Y568691D01*
X1743298Y568413D01*
X1743131Y568246D01*
X1743021Y568135D01*
X1742965Y568080D01*
X1742299Y567470D01*
X1741522Y566970D01*
X1740801Y566471D01*
X1740024Y566082D01*
X1739191Y565749D01*
X1738414Y565471D01*
X1736971Y565083D01*
X1736249Y564917D01*
X1735639Y564806D01*
X1735028Y564750D01*
X1734529Y564694D01*
X1734140Y564639D01*
X1733863D01*
X1733641D01*
X1733585D01*
X1732531Y564694D01*
X1731588Y564806D01*
X1730644Y564917D01*
X1729756Y565139D01*
X1728979Y565416D01*
X1728202Y565693D01*
X1727536Y565971D01*
X1726926Y566304D01*
X1726370Y566582D01*
X1725871Y566859D01*
X1725483Y567136D01*
X1725094Y567414D01*
X1724816Y567636D01*
X1724650Y567747D01*
X1724539Y567858D01*
X1724484Y567913D01*
X1723873Y568524D01*
X1723373Y569190D01*
X1722874Y569856D01*
X1722486Y570577D01*
X1722152Y571244D01*
X1721875Y571909D01*
X1721486Y573186D01*
X1721320Y573741D01*
X1721209Y574296D01*
X1721153Y574740D01*
X1721098Y575184D01*
X1721043Y575517D01*
Y575961D01*
X1721098Y577015D01*
X1721264Y578014D01*
X1721486Y578903D01*
X1721764Y579735D01*
X1721986Y580346D01*
X1722208Y580845D01*
X1722374Y581178D01*
X1722430Y581289D01*
X1722985Y582177D01*
X1723595Y582954D01*
X1724206Y583620D01*
X1724761Y584175D01*
X1725316Y584563D01*
X1725705Y584896D01*
X1725982Y585119D01*
X1726093Y585174D01*
X1725649D01*
X1725371D01*
X1725205D01*
X1725149D01*
X1724040Y585119D01*
X1722985Y585063D01*
X1722042Y584952D01*
X1721153Y584841D01*
X1720432Y584674D01*
X1719877Y584563D01*
X1719655Y584508D01*
X1719488D01*
X1719433Y584452D01*
X1719378D01*
X1718379Y584175D01*
X1717491Y583898D01*
X1716714Y583620D01*
X1716047Y583342D01*
X1715548Y583120D01*
X1715159Y582899D01*
X1714882Y582788D01*
X1714826Y582732D01*
X1714216Y582288D01*
X1713716Y581844D01*
X1713273Y581400D01*
X1712884Y580956D01*
X1712551Y580623D01*
X1712329Y580290D01*
X1712218Y580068D01*
X1712162Y580013D01*
X1711830Y579402D01*
X1711608Y578736D01*
X1711441Y578125D01*
X1711330Y577515D01*
X1711274Y577015D01*
X1711219Y576627D01*
Y576239D01*
X1711274Y575351D01*
X1711441Y574518D01*
X1711663Y573797D01*
X1711940Y573186D01*
X1712162Y572742D01*
X1712384Y572354D01*
X1712551Y572131D01*
X1712607Y572076D01*
X1713217Y571521D01*
X1713938Y571077D01*
X1714716Y570688D01*
X1715493Y570411D01*
X1716159Y570189D01*
X1716769Y570023D01*
X1716991Y569967D01*
X1717102D01*
X1717213Y569912D01*
X1717268D01*
X1716880Y565361D01*
X1715271Y565693D01*
X1713883Y566138D01*
X1712662Y566692D01*
X1711663Y567247D01*
X1710886Y567803D01*
X1710553Y568080D01*
X1710275Y568302D01*
X1710109Y568468D01*
X1709943Y568635D01*
X1709887Y568691D01*
X1709832Y568746D01*
X1709388Y569301D01*
X1708999Y569912D01*
X1708389Y571133D01*
X1707945Y572354D01*
X1707667Y573519D01*
X1707445Y574573D01*
X1707389Y575018D01*
Y575406D01*
X1707334Y575683D01*
Y576128D01*
X1707445Y577682D01*
X1707667Y579069D01*
X1708055Y580346D01*
X1708499Y581400D01*
X1708666Y581844D01*
X1708888Y582288D01*
X1709110Y582621D01*
X1709276Y582954D01*
X1709388Y583176D01*
X1709498Y583342D01*
X1709610Y583453D01*
Y583509D01*
X1710553Y584619D01*
X1711608Y585618D01*
X1712717Y586395D01*
X1713772Y587061D01*
X1714716Y587616D01*
X1715159Y587838D01*
X1715493Y588005D01*
X1715825Y588115D01*
X1716047Y588226D01*
X1716159Y588282D01*
X1716214D01*
X1717046Y588559D01*
X1717990Y588837D01*
X1719877Y589226D01*
X1721875Y589503D01*
X1723762Y589669D01*
X1724594Y589780D01*
X1725427Y589836D01*
X1726149D01*
X1726759Y589891D01*
X1727258D01*
X1727647D01*
X1727925D01*
X1727980D01*
X1729256D01*
X1730477Y589836D01*
D02*
G37*
G36*
X1746406Y553150D02*
X1719932D01*
X1718767D01*
X1717768Y553039D01*
X1716936Y552984D01*
X1716270Y552873D01*
X1715770Y552762D01*
X1715381Y552707D01*
X1715159Y552596D01*
X1715104D01*
X1714549Y552374D01*
X1714105Y552096D01*
X1713716Y551763D01*
X1713328Y551486D01*
X1713106Y551153D01*
X1712884Y550931D01*
X1712773Y550764D01*
X1712717Y550708D01*
X1712440Y550154D01*
X1712218Y549598D01*
X1712107Y549043D01*
X1711996Y548544D01*
X1711940Y548044D01*
X1711885Y547712D01*
Y547379D01*
X1711940Y546490D01*
X1712162Y545658D01*
X1712384Y544992D01*
X1712717Y544381D01*
X1712995Y543938D01*
X1713273Y543605D01*
X1713439Y543383D01*
X1713495Y543327D01*
X1713828Y543049D01*
X1714216Y542827D01*
X1715104Y542495D01*
X1716103Y542162D01*
X1717102Y541995D01*
X1718045Y541828D01*
X1718434D01*
X1718767Y541773D01*
X1719100Y541717D01*
X1719322D01*
X1719433D01*
X1719488D01*
X1718822Y537111D01*
X1717768D01*
X1716824Y537167D01*
X1715881Y537333D01*
X1715049Y537444D01*
X1714272Y537666D01*
X1713605Y537888D01*
X1712939Y538110D01*
X1712384Y538332D01*
X1711885Y538610D01*
X1711441Y538832D01*
X1711053Y539053D01*
X1710775Y539275D01*
X1710553Y539442D01*
X1710331Y539553D01*
X1710275Y539609D01*
X1710220Y539664D01*
X1709720Y540219D01*
X1709276Y540774D01*
X1708888Y541385D01*
X1708555Y542051D01*
X1708055Y543327D01*
X1707723Y544548D01*
X1707501Y545713D01*
X1707445Y546158D01*
X1707389Y546601D01*
X1707334Y546934D01*
Y547434D01*
X1707389Y548655D01*
X1707556Y549765D01*
X1707778Y550764D01*
X1708055Y551652D01*
X1708277Y552374D01*
X1708499Y552873D01*
X1708666Y553206D01*
X1708722Y553317D01*
X1709276Y554205D01*
X1709943Y554982D01*
X1710609Y555592D01*
X1711219Y556148D01*
X1711830Y556536D01*
X1712274Y556813D01*
X1712607Y556980D01*
X1712662Y557035D01*
X1712717D01*
X1713828Y557424D01*
X1714993Y557757D01*
X1716270Y557979D01*
X1717491Y558090D01*
X1718545Y558201D01*
X1718989D01*
X1719433Y558256D01*
X1719766D01*
X1719988D01*
X1720155D01*
X1720210D01*
X1746406D01*
Y553150D01*
D02*
G37*
G36*
X2935175Y3168834D02*
X2936119Y3168667D01*
X2936952Y3168556D01*
X2937729Y3168334D01*
X2938394Y3168112D01*
X2939061Y3167890D01*
X2939615Y3167668D01*
X2940115Y3167390D01*
X2940559Y3167169D01*
X2940948Y3166947D01*
X2941225Y3166724D01*
X2941447Y3166558D01*
X2941669Y3166447D01*
X2941724Y3166392D01*
X2941780Y3166336D01*
X2942280Y3165781D01*
X2942724Y3165226D01*
X2943112Y3164615D01*
X2943445Y3163950D01*
X2943945Y3162673D01*
X2944278Y3161452D01*
X2944499Y3160287D01*
X2944555Y3159843D01*
X2944610Y3159398D01*
X2944666Y3159066D01*
Y3158566D01*
X2944610Y3157345D01*
X2944444Y3156235D01*
X2944222Y3155236D01*
X2943945Y3154348D01*
X2943722Y3153626D01*
X2943501Y3153127D01*
X2943334Y3152794D01*
X2943278Y3152683D01*
X2942724Y3151795D01*
X2942057Y3151018D01*
X2941392Y3150407D01*
X2940781Y3149852D01*
X2940171Y3149464D01*
X2939727Y3149186D01*
X2939394Y3149020D01*
X2939338Y3148965D01*
X2939282D01*
X2938173Y3148576D01*
X2937007Y3148243D01*
X2935731Y3148021D01*
X2934510Y3147910D01*
X2933455Y3147799D01*
X2933011D01*
X2932567Y3147744D01*
X2932234D01*
X2932012D01*
X2931845D01*
X2931790D01*
X2905594D01*
Y3152849D01*
X2932068D01*
X2933233D01*
X2934232Y3152961D01*
X2935064Y3153016D01*
X2935731Y3153127D01*
X2936230Y3153238D01*
X2936619Y3153294D01*
X2936840Y3153405D01*
X2936896D01*
X2937451Y3153626D01*
X2937895Y3153904D01*
X2938284Y3154237D01*
X2938672Y3154515D01*
X2938894Y3154847D01*
X2939116Y3155070D01*
X2939227Y3155236D01*
X2939282Y3155291D01*
X2939560Y3155847D01*
X2939782Y3156401D01*
X2939893Y3156956D01*
X2940004Y3157456D01*
X2940059Y3157956D01*
X2940115Y3158289D01*
Y3158622D01*
X2940059Y3159510D01*
X2939838Y3160342D01*
X2939615Y3161008D01*
X2939282Y3161619D01*
X2939005Y3162062D01*
X2938727Y3162396D01*
X2938561Y3162617D01*
X2938506Y3162673D01*
X2938173Y3162950D01*
X2937784Y3163173D01*
X2936896Y3163506D01*
X2935897Y3163838D01*
X2934898Y3164005D01*
X2933954Y3164171D01*
X2933566D01*
X2933233Y3164227D01*
X2932900Y3164282D01*
X2932678D01*
X2932567D01*
X2932512D01*
X2933177Y3168889D01*
X2934232D01*
X2935175Y3168834D01*
D02*
G37*
G36*
X2919302Y3136921D02*
X2918914Y3136088D01*
X2918526Y3135256D01*
X2918137Y3134479D01*
X2917804Y3133813D01*
X2917526Y3133258D01*
X2917305Y3132925D01*
X2917249Y3132869D01*
Y3132814D01*
X2916639Y3131815D01*
X2916028Y3130927D01*
X2915473Y3130150D01*
X2914974Y3129539D01*
X2914585Y3128985D01*
X2914252Y3128651D01*
X2914030Y3128374D01*
X2913974Y3128318D01*
X2944000D01*
Y3123601D01*
X2905427D01*
Y3126653D01*
X2906371Y3127209D01*
X2907259Y3127819D01*
X2908147Y3128541D01*
X2908924Y3129206D01*
X2909590Y3129872D01*
X2910145Y3130372D01*
X2910311Y3130594D01*
X2910478Y3130760D01*
X2910534Y3130816D01*
X2910589Y3130872D01*
X2911532Y3132037D01*
X2912421Y3133202D01*
X2913198Y3134312D01*
X2913808Y3135423D01*
X2914363Y3136366D01*
X2914585Y3136755D01*
X2914751Y3137088D01*
X2914918Y3137365D01*
X2914974Y3137587D01*
X2915084Y3137698D01*
Y3137753D01*
X2919635D01*
X2919302Y3136921D01*
D02*
G37*
G36*
X2277175Y3174834D02*
X2278119Y3174667D01*
X2278952Y3174556D01*
X2279729Y3174334D01*
X2280394Y3174112D01*
X2281061Y3173890D01*
X2281615Y3173668D01*
X2282115Y3173390D01*
X2282559Y3173169D01*
X2282948Y3172947D01*
X2283225Y3172724D01*
X2283447Y3172558D01*
X2283669Y3172447D01*
X2283724Y3172392D01*
X2283780Y3172336D01*
X2284280Y3171781D01*
X2284724Y3171226D01*
X2285112Y3170615D01*
X2285445Y3169950D01*
X2285945Y3168673D01*
X2286278Y3167452D01*
X2286499Y3166287D01*
X2286555Y3165843D01*
X2286610Y3165398D01*
X2286666Y3165066D01*
Y3164566D01*
X2286610Y3163345D01*
X2286444Y3162235D01*
X2286222Y3161236D01*
X2285945Y3160348D01*
X2285722Y3159626D01*
X2285501Y3159127D01*
X2285334Y3158794D01*
X2285278Y3158683D01*
X2284724Y3157795D01*
X2284057Y3157018D01*
X2283392Y3156407D01*
X2282781Y3155852D01*
X2282171Y3155464D01*
X2281727Y3155186D01*
X2281394Y3155020D01*
X2281338Y3154965D01*
X2281282D01*
X2280173Y3154576D01*
X2279007Y3154243D01*
X2277731Y3154021D01*
X2276510Y3153910D01*
X2275455Y3153799D01*
X2275011D01*
X2274567Y3153744D01*
X2274234D01*
X2274012D01*
X2273845D01*
X2273790D01*
X2247594D01*
Y3158849D01*
X2274068D01*
X2275233D01*
X2276232Y3158961D01*
X2277064Y3159016D01*
X2277731Y3159127D01*
X2278230Y3159238D01*
X2278619Y3159294D01*
X2278840Y3159405D01*
X2278896D01*
X2279451Y3159626D01*
X2279895Y3159904D01*
X2280284Y3160237D01*
X2280672Y3160515D01*
X2280894Y3160847D01*
X2281116Y3161070D01*
X2281227Y3161236D01*
X2281282Y3161291D01*
X2281560Y3161847D01*
X2281782Y3162401D01*
X2281893Y3162956D01*
X2282004Y3163456D01*
X2282059Y3163956D01*
X2282115Y3164289D01*
Y3164622D01*
X2282059Y3165510D01*
X2281838Y3166342D01*
X2281615Y3167008D01*
X2281282Y3167619D01*
X2281005Y3168062D01*
X2280727Y3168396D01*
X2280561Y3168617D01*
X2280506Y3168673D01*
X2280173Y3168950D01*
X2279784Y3169173D01*
X2278896Y3169506D01*
X2277897Y3169838D01*
X2276898Y3170005D01*
X2275954Y3170171D01*
X2275566D01*
X2275233Y3170227D01*
X2274900Y3170282D01*
X2274678D01*
X2274567D01*
X2274512D01*
X2275177Y3174889D01*
X2276232D01*
X2277175Y3174834D01*
D02*
G37*
G36*
X2276787Y3132265D02*
X2286000D01*
Y3127548D01*
X2276787D01*
Y3122331D01*
X2272458D01*
Y3127548D01*
X2247594D01*
Y3131377D01*
X2272458Y3148970D01*
X2276787D01*
Y3132265D01*
D02*
G37*
G36*
X1581176Y3195834D02*
X1582119Y3195667D01*
X1582951Y3195556D01*
X1583728Y3195334D01*
X1584395Y3195112D01*
X1585061Y3194890D01*
X1585616Y3194668D01*
X1586115Y3194390D01*
X1586559Y3194169D01*
X1586947Y3193947D01*
X1587225Y3193724D01*
X1587447Y3193558D01*
X1587669Y3193447D01*
X1587725Y3193392D01*
X1587780Y3193336D01*
X1588280Y3192781D01*
X1588724Y3192226D01*
X1589112Y3191615D01*
X1589445Y3190950D01*
X1589945Y3189673D01*
X1590277Y3188452D01*
X1590499Y3187287D01*
X1590555Y3186843D01*
X1590611Y3186398D01*
X1590666Y3186066D01*
Y3185566D01*
X1590611Y3184345D01*
X1590444Y3183235D01*
X1590222Y3182236D01*
X1589945Y3181348D01*
X1589723Y3180626D01*
X1589501Y3180127D01*
X1589334Y3179794D01*
X1589278Y3179683D01*
X1588724Y3178795D01*
X1588057Y3178018D01*
X1587391Y3177407D01*
X1586781Y3176852D01*
X1586170Y3176464D01*
X1585726Y3176186D01*
X1585393Y3176020D01*
X1585338Y3175965D01*
X1585283D01*
X1584172Y3175576D01*
X1583007Y3175243D01*
X1581730Y3175021D01*
X1580509Y3174910D01*
X1579455Y3174799D01*
X1579011D01*
X1578567Y3174744D01*
X1578234D01*
X1578012D01*
X1577845D01*
X1577790D01*
X1551594D01*
Y3179849D01*
X1578068D01*
X1579233D01*
X1580232Y3179961D01*
X1581064Y3180016D01*
X1581730Y3180127D01*
X1582230Y3180238D01*
X1582619Y3180294D01*
X1582841Y3180405D01*
X1582896D01*
X1583451Y3180626D01*
X1583895Y3180904D01*
X1584284Y3181237D01*
X1584672Y3181515D01*
X1584894Y3181847D01*
X1585116Y3182070D01*
X1585227Y3182236D01*
X1585283Y3182291D01*
X1585560Y3182847D01*
X1585782Y3183401D01*
X1585893Y3183956D01*
X1586004Y3184456D01*
X1586060Y3184956D01*
X1586115Y3185289D01*
Y3185622D01*
X1586060Y3186510D01*
X1585838Y3187342D01*
X1585616Y3188008D01*
X1585283Y3188619D01*
X1585005Y3189062D01*
X1584727Y3189396D01*
X1584561Y3189617D01*
X1584505Y3189673D01*
X1584172Y3189950D01*
X1583784Y3190173D01*
X1582896Y3190506D01*
X1581897Y3190838D01*
X1580898Y3191005D01*
X1579955Y3191171D01*
X1579566D01*
X1579233Y3191227D01*
X1578900Y3191282D01*
X1578678D01*
X1578567D01*
X1578512D01*
X1579178Y3195889D01*
X1580232D01*
X1581176Y3195834D01*
D02*
G37*
G36*
X1565303Y3163921D02*
X1564914Y3163088D01*
X1564525Y3162256D01*
X1564137Y3161479D01*
X1563804Y3160813D01*
X1563526Y3160258D01*
X1563304Y3159925D01*
X1563249Y3159869D01*
Y3159814D01*
X1562639Y3158815D01*
X1562028Y3157927D01*
X1561473Y3157150D01*
X1560974Y3156539D01*
X1560585Y3155985D01*
X1560252Y3155651D01*
X1560030Y3155374D01*
X1559975Y3155318D01*
X1590000D01*
Y3150601D01*
X1551428D01*
Y3153653D01*
X1552371Y3154209D01*
X1553259Y3154819D01*
X1554147Y3155541D01*
X1554924Y3156206D01*
X1555590Y3156872D01*
X1556145Y3157372D01*
X1556312Y3157594D01*
X1556478Y3157760D01*
X1556534Y3157816D01*
X1556589Y3157872D01*
X1557533Y3159037D01*
X1558420Y3160202D01*
X1559197Y3161312D01*
X1559808Y3162423D01*
X1560363Y3163366D01*
X1560585Y3163755D01*
X1560752Y3164088D01*
X1560918Y3164365D01*
X1560974Y3164587D01*
X1561084Y3164698D01*
Y3164753D01*
X1565636D01*
X1565303Y3163921D01*
D02*
G37*
G36*
X1573017Y3138447D02*
X1574849Y3138336D01*
X1576514Y3138169D01*
X1578068Y3137892D01*
X1579511Y3137614D01*
X1580787Y3137281D01*
X1581953Y3136948D01*
X1582951Y3136615D01*
X1583840Y3136282D01*
X1584617Y3135894D01*
X1585283Y3135616D01*
X1585782Y3135338D01*
X1586226Y3135061D01*
X1586504Y3134894D01*
X1586670Y3134784D01*
X1586726Y3134728D01*
X1587391Y3134117D01*
X1588002Y3133452D01*
X1588557Y3132730D01*
X1589001Y3132008D01*
X1589389Y3131287D01*
X1589723Y3130566D01*
X1589945Y3129844D01*
X1590167Y3129178D01*
X1590333Y3128512D01*
X1590444Y3127901D01*
X1590555Y3127347D01*
X1590611Y3126903D01*
X1590666Y3126514D01*
Y3125959D01*
X1590555Y3124461D01*
X1590333Y3123073D01*
X1589945Y3121907D01*
X1589556Y3120909D01*
X1589168Y3120076D01*
X1588946Y3119798D01*
X1588779Y3119521D01*
X1588668Y3119299D01*
X1588557Y3119133D01*
X1588446Y3119077D01*
Y3119021D01*
X1587503Y3118023D01*
X1586504Y3117190D01*
X1585393Y3116468D01*
X1584395Y3115914D01*
X1583451Y3115470D01*
X1583062Y3115247D01*
X1582674Y3115137D01*
X1582397Y3115026D01*
X1582175Y3114914D01*
X1582063Y3114859D01*
X1582008D01*
X1581176Y3114581D01*
X1580343Y3114360D01*
X1578567Y3114026D01*
X1576736Y3113749D01*
X1574959Y3113582D01*
X1574182Y3113527D01*
X1573461Y3113472D01*
X1572795D01*
X1572185Y3113416D01*
X1571741D01*
X1571352D01*
X1571130D01*
X1571074D01*
X1570020D01*
X1569021Y3113472D01*
X1568133D01*
X1567245Y3113527D01*
X1566468Y3113638D01*
X1565691Y3113693D01*
X1565025Y3113749D01*
X1564415Y3113860D01*
X1563860Y3113916D01*
X1563360Y3114026D01*
X1562972Y3114082D01*
X1562639Y3114137D01*
X1562361Y3114193D01*
X1562195Y3114249D01*
X1562083Y3114304D01*
X1562028D01*
X1560807Y3114637D01*
X1559697Y3115026D01*
X1558754Y3115470D01*
X1557921Y3115802D01*
X1557199Y3116191D01*
X1556700Y3116413D01*
X1556422Y3116635D01*
X1556312Y3116691D01*
X1555479Y3117301D01*
X1554757Y3117912D01*
X1554147Y3118577D01*
X1553592Y3119188D01*
X1553204Y3119743D01*
X1552926Y3120187D01*
X1552759Y3120465D01*
X1552704Y3120520D01*
Y3120575D01*
X1552260Y3121463D01*
X1551983Y3122407D01*
X1551761Y3123295D01*
X1551594Y3124128D01*
X1551483Y3124849D01*
X1551428Y3125459D01*
Y3125959D01*
X1551539Y3127457D01*
X1551761Y3128845D01*
X1552149Y3130010D01*
X1552537Y3131010D01*
X1552982Y3131842D01*
X1553148Y3132175D01*
X1553370Y3132452D01*
X1553481Y3132675D01*
X1553592Y3132841D01*
X1553703Y3132896D01*
Y3132952D01*
X1554591Y3133951D01*
X1555646Y3134784D01*
X1556700Y3135505D01*
X1557699Y3136060D01*
X1558642Y3136504D01*
X1559031Y3136726D01*
X1559419Y3136837D01*
X1559697Y3136948D01*
X1559919Y3137059D01*
X1560030Y3137115D01*
X1560085D01*
X1560918Y3137336D01*
X1561751Y3137559D01*
X1563582Y3137892D01*
X1565414Y3138169D01*
X1567134Y3138336D01*
X1567966Y3138391D01*
X1568688Y3138447D01*
X1569354D01*
X1569965Y3138502D01*
X1570409D01*
X1570797D01*
X1571019D01*
X1571074D01*
X1573017Y3138447D01*
D02*
G37*
G36*
X1719210Y706836D02*
X1720376Y706614D01*
X1721430Y706281D01*
X1722318Y705948D01*
X1723040Y705615D01*
X1723594Y705282D01*
X1723928Y705060D01*
X1723983Y705005D01*
X1724039D01*
X1724927Y704227D01*
X1725704Y703395D01*
X1726314Y702507D01*
X1726869Y701674D01*
X1727257Y700898D01*
X1727535Y700231D01*
X1727646Y700010D01*
X1727701Y699843D01*
X1727757Y699732D01*
Y699677D01*
X1728201Y700676D01*
X1728700Y701508D01*
X1729200Y702230D01*
X1729699Y702840D01*
X1730143Y703284D01*
X1730476Y703617D01*
X1730698Y703839D01*
X1730810Y703894D01*
X1731586Y704394D01*
X1732363Y704727D01*
X1733140Y705005D01*
X1733918Y705171D01*
X1734528Y705282D01*
X1735027Y705337D01*
X1735361D01*
X1735416D01*
X1735472D01*
X1736248Y705282D01*
X1736970Y705226D01*
X1738358Y704838D01*
X1739579Y704338D01*
X1740633Y703784D01*
X1741466Y703229D01*
X1741799Y702951D01*
X1742131Y702729D01*
X1742353Y702507D01*
X1742520Y702341D01*
X1742575Y702285D01*
X1742631Y702230D01*
X1743130Y701619D01*
X1743630Y701009D01*
X1744018Y700342D01*
X1744351Y699677D01*
X1744851Y698345D01*
X1745184Y697013D01*
X1745351Y696457D01*
X1745406Y695903D01*
X1745461Y695403D01*
X1745517Y694959D01*
X1745572Y694626D01*
Y694126D01*
X1745517Y693239D01*
X1745461Y692351D01*
X1745129Y690797D01*
X1744907Y690075D01*
X1744685Y689409D01*
X1744407Y688798D01*
X1744130Y688244D01*
X1743852Y687799D01*
X1743574Y687356D01*
X1743352Y686967D01*
X1743130Y686689D01*
X1742964Y686467D01*
X1742797Y686301D01*
X1742742Y686190D01*
X1742687Y686135D01*
X1742131Y685635D01*
X1741576Y685135D01*
X1740966Y684747D01*
X1740355Y684414D01*
X1739190Y683859D01*
X1738080Y683526D01*
X1737137Y683304D01*
X1736693Y683249D01*
X1736360Y683193D01*
X1736026Y683138D01*
X1735804D01*
X1735694D01*
X1735638D01*
X1734639Y683193D01*
X1733696Y683360D01*
X1732863Y683582D01*
X1732141Y683859D01*
X1731586Y684081D01*
X1731142Y684303D01*
X1730920Y684470D01*
X1730810Y684525D01*
X1730143Y685135D01*
X1729533Y685802D01*
X1728978Y686523D01*
X1728534Y687245D01*
X1728201Y687910D01*
X1727979Y688410D01*
X1727868Y688632D01*
X1727812Y688798D01*
X1727757Y688854D01*
Y688909D01*
X1727369Y687633D01*
X1726869Y686578D01*
X1726258Y685635D01*
X1725704Y684858D01*
X1725149Y684247D01*
X1724705Y683803D01*
X1724427Y683582D01*
X1724371Y683471D01*
X1724316D01*
X1723317Y682860D01*
X1722263Y682361D01*
X1721264Y682028D01*
X1720264Y681806D01*
X1719377Y681694D01*
X1718988Y681639D01*
X1718655D01*
X1718433Y681583D01*
X1718211D01*
X1718100D01*
X1718044D01*
X1717157Y681639D01*
X1716268Y681750D01*
X1715436Y681917D01*
X1714603Y682139D01*
X1713216Y682693D01*
X1712550Y682971D01*
X1711995Y683304D01*
X1711440Y683637D01*
X1710996Y683914D01*
X1710608Y684247D01*
X1710274Y684470D01*
X1709997Y684692D01*
X1709831Y684858D01*
X1709719Y684969D01*
X1709664Y685024D01*
X1709053Y685691D01*
X1708554Y686412D01*
X1708110Y687189D01*
X1707722Y687966D01*
X1707444Y688688D01*
X1707167Y689465D01*
X1706778Y690963D01*
X1706611Y691629D01*
X1706501Y692240D01*
X1706445Y692794D01*
X1706389Y693294D01*
X1706334Y693683D01*
Y694237D01*
X1706389Y695292D01*
X1706501Y696236D01*
X1706667Y697179D01*
X1706833Y698067D01*
X1707111Y698844D01*
X1707389Y699621D01*
X1707666Y700342D01*
X1707999Y700953D01*
X1708332Y701508D01*
X1708610Y702008D01*
X1708887Y702396D01*
X1709165Y702784D01*
X1709331Y703062D01*
X1709497Y703229D01*
X1709609Y703340D01*
X1709664Y703395D01*
X1710330Y704005D01*
X1710996Y704561D01*
X1711662Y705005D01*
X1712383Y705393D01*
X1713050Y705782D01*
X1713771Y706059D01*
X1715047Y706447D01*
X1715658Y706614D01*
X1716213Y706725D01*
X1716713Y706780D01*
X1717101Y706836D01*
X1717434Y706891D01*
X1717711D01*
X1717878D01*
X1717934D01*
X1719210Y706836D01*
D02*
G37*
G36*
X1745406Y670150D02*
X1718932D01*
X1717767D01*
X1716768Y670039D01*
X1715936Y669984D01*
X1715270Y669873D01*
X1714770Y669762D01*
X1714381Y669707D01*
X1714159Y669596D01*
X1714104D01*
X1713549Y669374D01*
X1713105Y669096D01*
X1712716Y668763D01*
X1712328Y668486D01*
X1712106Y668153D01*
X1711884Y667931D01*
X1711773Y667764D01*
X1711717Y667708D01*
X1711440Y667154D01*
X1711218Y666598D01*
X1711107Y666043D01*
X1710996Y665544D01*
X1710940Y665044D01*
X1710885Y664712D01*
Y664379D01*
X1710940Y663490D01*
X1711162Y662658D01*
X1711384Y661992D01*
X1711717Y661381D01*
X1711995Y660938D01*
X1712273Y660605D01*
X1712439Y660383D01*
X1712495Y660327D01*
X1712828Y660049D01*
X1713216Y659827D01*
X1714104Y659495D01*
X1715103Y659162D01*
X1716102Y658995D01*
X1717045Y658828D01*
X1717434D01*
X1717767Y658773D01*
X1718100Y658717D01*
X1718322D01*
X1718433D01*
X1718488D01*
X1717822Y654111D01*
X1716768D01*
X1715824Y654167D01*
X1714881Y654333D01*
X1714049Y654444D01*
X1713272Y654666D01*
X1712605Y654888D01*
X1711939Y655110D01*
X1711384Y655332D01*
X1710885Y655610D01*
X1710441Y655832D01*
X1710053Y656053D01*
X1709775Y656275D01*
X1709553Y656442D01*
X1709331Y656553D01*
X1709275Y656609D01*
X1709220Y656664D01*
X1708720Y657219D01*
X1708276Y657774D01*
X1707888Y658385D01*
X1707555Y659051D01*
X1707055Y660327D01*
X1706723Y661548D01*
X1706501Y662713D01*
X1706445Y663158D01*
X1706389Y663601D01*
X1706334Y663934D01*
Y664434D01*
X1706389Y665655D01*
X1706556Y666765D01*
X1706778Y667764D01*
X1707055Y668652D01*
X1707277Y669374D01*
X1707499Y669873D01*
X1707666Y670206D01*
X1707722Y670317D01*
X1708276Y671205D01*
X1708943Y671982D01*
X1709609Y672592D01*
X1710219Y673148D01*
X1710830Y673536D01*
X1711274Y673813D01*
X1711607Y673980D01*
X1711662Y674035D01*
X1711717D01*
X1712828Y674424D01*
X1713993Y674757D01*
X1715270Y674979D01*
X1716491Y675090D01*
X1717545Y675201D01*
X1717989D01*
X1718433Y675256D01*
X1718766D01*
X1718988D01*
X1719155D01*
X1719210D01*
X1745406D01*
Y670150D01*
D02*
G37*
G36*
X3299423Y3994148D02*
X3294983Y3993538D01*
X3294595Y3994148D01*
X3294095Y3994648D01*
X3293651Y3995148D01*
X3293207Y3995536D01*
X3292764Y3995814D01*
X3292430Y3996091D01*
X3292209Y3996202D01*
X3292153Y3996258D01*
X3291432Y3996590D01*
X3290710Y3996868D01*
X3290044Y3997035D01*
X3289378Y3997201D01*
X3288823Y3997256D01*
X3288379Y3997312D01*
X3287325D01*
X3286659Y3997201D01*
X3285493Y3996923D01*
X3284494Y3996535D01*
X3283606Y3996146D01*
X3282940Y3995702D01*
X3282441Y3995314D01*
X3282163Y3995037D01*
X3282052Y3994981D01*
Y3994925D01*
X3281275Y3993982D01*
X3280720Y3992983D01*
X3280331Y3991928D01*
X3280054Y3990874D01*
X3279887Y3989986D01*
X3279832Y3989597D01*
Y3989265D01*
X3279776Y3988987D01*
Y3988765D01*
Y3988654D01*
Y3988599D01*
Y3987822D01*
X3279887Y3987100D01*
X3280165Y3985713D01*
X3280553Y3984547D01*
X3280942Y3983604D01*
X3281386Y3982827D01*
X3281774Y3982216D01*
X3281941Y3982050D01*
X3282052Y3981883D01*
X3282108Y3981827D01*
X3282163Y3981772D01*
X3282607Y3981328D01*
X3283051Y3980939D01*
X3284050Y3980273D01*
X3284994Y3979829D01*
X3285937Y3979552D01*
X3286714Y3979330D01*
X3287380Y3979274D01*
X3287602Y3979219D01*
X3287935D01*
X3288990Y3979274D01*
X3289933Y3979497D01*
X3290765Y3979774D01*
X3291432Y3980107D01*
X3292042Y3980440D01*
X3292486Y3980718D01*
X3292708Y3980939D01*
X3292819Y3980995D01*
X3293485Y3981772D01*
X3294040Y3982604D01*
X3294484Y3983548D01*
X3294817Y3984381D01*
X3295039Y3985213D01*
X3295206Y3985823D01*
X3295261Y3986101D01*
X3295316Y3986267D01*
Y3986378D01*
Y3986434D01*
X3300256Y3986046D01*
X3300145Y3985157D01*
X3299979Y3984325D01*
X3299479Y3982771D01*
X3298869Y3981439D01*
X3298535Y3980829D01*
X3298202Y3980329D01*
X3297925Y3979829D01*
X3297592Y3979385D01*
X3297314Y3979052D01*
X3297037Y3978775D01*
X3296815Y3978553D01*
X3296704Y3978331D01*
X3296593Y3978276D01*
X3296537Y3978220D01*
X3295872Y3977720D01*
X3295206Y3977276D01*
X3294484Y3976888D01*
X3293762Y3976555D01*
X3292375Y3976055D01*
X3290988Y3975722D01*
X3290377Y3975556D01*
X3289767Y3975501D01*
X3289267Y3975445D01*
X3288823Y3975390D01*
X3288434Y3975334D01*
X3287935D01*
X3286769Y3975390D01*
X3285660Y3975556D01*
X3284605Y3975778D01*
X3283662Y3976055D01*
X3282773Y3976444D01*
X3281941Y3976832D01*
X3281164Y3977221D01*
X3280498Y3977665D01*
X3279887Y3978109D01*
X3279332Y3978497D01*
X3278889Y3978941D01*
X3278500Y3979274D01*
X3278222Y3979552D01*
X3278001Y3979774D01*
X3277890Y3979941D01*
X3277834Y3979996D01*
X3277279Y3980718D01*
X3276835Y3981494D01*
X3276391Y3982216D01*
X3276058Y3982993D01*
X3275503Y3984492D01*
X3275170Y3985934D01*
X3275059Y3986545D01*
X3274948Y3987155D01*
X3274892Y3987655D01*
X3274837Y3988099D01*
X3274782Y3988488D01*
Y3988765D01*
Y3988932D01*
Y3988987D01*
X3274837Y3989986D01*
X3274948Y3990930D01*
X3275115Y3991873D01*
X3275336Y3992706D01*
X3275614Y3993483D01*
X3275892Y3994260D01*
X3276224Y3994925D01*
X3276502Y3995536D01*
X3276835Y3996091D01*
X3277168Y3996590D01*
X3277445Y3996979D01*
X3277723Y3997367D01*
X3277945Y3997645D01*
X3278111Y3997811D01*
X3278222Y3997923D01*
X3278278Y3997978D01*
X3278944Y3998588D01*
X3279610Y3999144D01*
X3280331Y3999588D01*
X3281053Y3999976D01*
X3281774Y4000365D01*
X3282496Y4000642D01*
X3283828Y4001030D01*
X3284439Y4001197D01*
X3284994Y4001308D01*
X3285493Y4001363D01*
X3285937Y4001419D01*
X3286270Y4001474D01*
X3287491D01*
X3288157Y4001363D01*
X3289489Y4001086D01*
X3290710Y4000698D01*
X3291820Y4000253D01*
X3292708Y3999809D01*
X3293097Y3999588D01*
X3293430Y3999421D01*
X3293707Y3999255D01*
X3293874Y3999144D01*
X3293985Y3999088D01*
X3294040Y3999032D01*
X3291986Y4009411D01*
X3276613D01*
Y4013907D01*
X3295705D01*
X3299423Y3994148D01*
D02*
G37*
G36*
X3334000Y4009855D02*
X3321346D01*
Y3976000D01*
X3316240D01*
Y4009855D01*
X3303586D01*
Y4014406D01*
X3334000D01*
Y4009855D01*
D02*
G37*
G36*
X3668000D02*
X3655346D01*
Y3976000D01*
X3650240D01*
Y4009855D01*
X3637586D01*
Y4014406D01*
X3668000D01*
Y4009855D01*
D02*
G37*
G36*
X3635865Y3989542D02*
Y3985213D01*
X3619160D01*
Y3976000D01*
X3614443D01*
Y3985213D01*
X3609226D01*
Y3989542D01*
X3614443D01*
Y4014406D01*
X3618272D01*
X3635865Y3989542D01*
D02*
G37*
G36*
X3958822Y4014461D02*
X3960320Y4014184D01*
X3961597Y4013740D01*
X3962707Y4013296D01*
X3963206Y4013019D01*
X3963595Y4012796D01*
X3963983Y4012575D01*
X3964261Y4012352D01*
X3964483Y4012186D01*
X3964649Y4012075D01*
X3964760Y4012019D01*
X3964816Y4011964D01*
X3965870Y4010910D01*
X3966703Y4009744D01*
X3967369Y4008523D01*
X3967924Y4007302D01*
X3968257Y4006247D01*
X3968423Y4005803D01*
X3968535Y4005415D01*
X3968590Y4005082D01*
X3968646Y4004860D01*
X3968701Y4004693D01*
Y4004638D01*
X3963983Y4003805D01*
X3963762Y4005026D01*
X3963428Y4006081D01*
X3963040Y4006969D01*
X3962651Y4007691D01*
X3962263Y4008245D01*
X3961930Y4008634D01*
X3961708Y4008912D01*
X3961653Y4008967D01*
X3960931Y4009522D01*
X3960154Y4009966D01*
X3959432Y4010244D01*
X3958711Y4010465D01*
X3958045Y4010577D01*
X3957546Y4010688D01*
X3957102D01*
X3956102Y4010632D01*
X3955215Y4010410D01*
X3954438Y4010133D01*
X3953771Y4009855D01*
X3953272Y4009522D01*
X3952883Y4009244D01*
X3952606Y4009023D01*
X3952550Y4008967D01*
X3951940Y4008301D01*
X3951496Y4007579D01*
X3951218Y4006858D01*
X3950997Y4006192D01*
X3950885Y4005581D01*
X3950774Y4005137D01*
Y4004805D01*
Y4004749D01*
Y4004693D01*
Y4004083D01*
X3950885Y4003528D01*
X3951163Y4002584D01*
X3951552Y4001752D01*
X3951995Y4001030D01*
X3952439Y4000531D01*
X3952828Y4000142D01*
X3953106Y3999921D01*
X3953161Y3999865D01*
X3953216D01*
X3954160Y3999365D01*
X3955048Y3998977D01*
X3955992Y3998700D01*
X3956824Y3998533D01*
X3957546Y3998422D01*
X3958156Y3998311D01*
X3958878D01*
X3959099Y3998367D01*
X3959377D01*
X3959932Y3994204D01*
X3959211Y3994370D01*
X3958544Y3994481D01*
X3957990Y3994593D01*
X3957490Y3994648D01*
X3957102Y3994704D01*
X3956602D01*
X3955436Y3994593D01*
X3954382Y3994370D01*
X3953439Y3994037D01*
X3952662Y3993649D01*
X3952051Y3993260D01*
X3951607Y3992927D01*
X3951329Y3992706D01*
X3951218Y3992595D01*
X3950497Y3991762D01*
X3949942Y3990874D01*
X3949553Y3989986D01*
X3949331Y3989098D01*
X3949165Y3988376D01*
X3949110Y3987766D01*
X3949054Y3987544D01*
Y3987378D01*
Y3987267D01*
Y3987211D01*
X3949165Y3985990D01*
X3949443Y3984880D01*
X3949776Y3983936D01*
X3950220Y3983104D01*
X3950664Y3982438D01*
X3950997Y3981939D01*
X3951274Y3981606D01*
X3951385Y3981494D01*
X3952273Y3980718D01*
X3953216Y3980162D01*
X3954160Y3979774D01*
X3955048Y3979497D01*
X3955825Y3979330D01*
X3956436Y3979274D01*
X3956657Y3979219D01*
X3956990D01*
X3957990Y3979274D01*
X3958933Y3979497D01*
X3959765Y3979774D01*
X3960432Y3980107D01*
X3960986Y3980385D01*
X3961430Y3980662D01*
X3961653Y3980884D01*
X3961764Y3980939D01*
X3962430Y3981716D01*
X3962985Y3982604D01*
X3963484Y3983548D01*
X3963872Y3984547D01*
X3964150Y3985380D01*
X3964261Y3985768D01*
X3964316Y3986101D01*
X3964372Y3986378D01*
X3964427Y3986601D01*
X3964483Y3986711D01*
Y3986767D01*
X3969200Y3986157D01*
X3969090Y3985269D01*
X3968923Y3984436D01*
X3968423Y3982882D01*
X3967813Y3981550D01*
X3967480Y3980995D01*
X3967147Y3980440D01*
X3966814Y3979941D01*
X3966481Y3979552D01*
X3966204Y3979164D01*
X3965926Y3978886D01*
X3965760Y3978664D01*
X3965593Y3978497D01*
X3965482Y3978387D01*
X3965427Y3978331D01*
X3964760Y3977831D01*
X3964095Y3977332D01*
X3963428Y3976943D01*
X3962707Y3976610D01*
X3961320Y3976055D01*
X3959988Y3975722D01*
X3959377Y3975611D01*
X3958822Y3975501D01*
X3958323Y3975445D01*
X3957878Y3975390D01*
X3957546Y3975334D01*
X3957046D01*
X3955992Y3975390D01*
X3955048Y3975501D01*
X3954104Y3975667D01*
X3953216Y3975889D01*
X3952384Y3976166D01*
X3951662Y3976444D01*
X3950941Y3976777D01*
X3950331Y3977110D01*
X3949720Y3977387D01*
X3949220Y3977720D01*
X3948776Y3977998D01*
X3948443Y3978276D01*
X3948166Y3978497D01*
X3947944Y3978664D01*
X3947833Y3978775D01*
X3947778Y3978831D01*
X3947111Y3979497D01*
X3946557Y3980218D01*
X3946057Y3980939D01*
X3945613Y3981661D01*
X3945280Y3982327D01*
X3944947Y3983048D01*
X3944503Y3984381D01*
X3944392Y3984991D01*
X3944281Y3985546D01*
X3944170Y3986046D01*
X3944115Y3986490D01*
X3944059Y3986823D01*
Y3987100D01*
Y3987267D01*
Y3987322D01*
X3944115Y3988654D01*
X3944336Y3989875D01*
X3944669Y3990930D01*
X3945003Y3991818D01*
X3945336Y3992539D01*
X3945669Y3993094D01*
X3945890Y3993427D01*
X3945946Y3993538D01*
X3946723Y3994370D01*
X3947555Y3995092D01*
X3948443Y3995647D01*
X3949331Y3996091D01*
X3950108Y3996424D01*
X3950719Y3996646D01*
X3950941Y3996702D01*
X3951108Y3996757D01*
X3951218Y3996812D01*
X3951274D01*
X3950331Y3997312D01*
X3949553Y3997811D01*
X3948887Y3998367D01*
X3948332Y3998866D01*
X3947889Y3999310D01*
X3947555Y3999698D01*
X3947389Y3999921D01*
X3947334Y4000032D01*
X3946890Y4000809D01*
X3946557Y4001586D01*
X3946279Y4002363D01*
X3946113Y4003084D01*
X3946001Y4003695D01*
X3945946Y4004139D01*
Y4004472D01*
Y4004582D01*
X3946001Y4005526D01*
X3946168Y4006470D01*
X3946390Y4007302D01*
X3946668Y4008023D01*
X3946945Y4008634D01*
X3947167Y4009133D01*
X3947334Y4009411D01*
X3947389Y4009522D01*
X3947944Y4010354D01*
X3948610Y4011076D01*
X3949276Y4011686D01*
X3949942Y4012242D01*
X3950497Y4012630D01*
X3950997Y4012963D01*
X3951329Y4013130D01*
X3951385Y4013185D01*
X3951441D01*
X3952439Y4013629D01*
X3953439Y4013962D01*
X3954438Y4014240D01*
X3955325Y4014406D01*
X3956047Y4014517D01*
X3956657Y4014573D01*
X3958045D01*
X3958822Y4014461D01*
D02*
G37*
G36*
X4003000Y4009855D02*
X3990346D01*
Y3976000D01*
X3985240D01*
Y4009855D01*
X3972586D01*
Y4014406D01*
X4003000D01*
Y4009855D01*
D02*
G37*
G36*
X4291546Y4014517D02*
X4292489Y4014461D01*
X4293377Y4014295D01*
X4294209Y4014128D01*
X4294986Y4013907D01*
X4295708Y4013684D01*
X4296374Y4013407D01*
X4296984Y4013130D01*
X4297539Y4012852D01*
X4297984Y4012575D01*
X4298372Y4012352D01*
X4298705Y4012131D01*
X4298983Y4011964D01*
X4299149Y4011798D01*
X4299260Y4011742D01*
X4299315Y4011686D01*
X4299870Y4011131D01*
X4300370Y4010521D01*
X4300869Y4009855D01*
X4301258Y4009189D01*
X4301924Y4007857D01*
X4302368Y4006525D01*
X4302534Y4005914D01*
X4302701Y4005304D01*
X4302812Y4004805D01*
X4302923Y4004360D01*
X4302979Y4003972D01*
Y4003695D01*
X4303034Y4003528D01*
Y4003472D01*
X4298206Y4002973D01*
X4298095Y4004249D01*
X4297873Y4005360D01*
X4297539Y4006358D01*
X4297151Y4007135D01*
X4296818Y4007802D01*
X4296485Y4008245D01*
X4296263Y4008523D01*
X4296152Y4008634D01*
X4295319Y4009300D01*
X4294431Y4009800D01*
X4293488Y4010188D01*
X4292655Y4010410D01*
X4291878Y4010577D01*
X4291212Y4010632D01*
X4290990Y4010688D01*
X4290658D01*
X4289492Y4010632D01*
X4288438Y4010410D01*
X4287550Y4010077D01*
X4286773Y4009744D01*
X4286162Y4009356D01*
X4285774Y4009078D01*
X4285496Y4008856D01*
X4285385Y4008745D01*
X4284719Y4007968D01*
X4284220Y4007191D01*
X4283831Y4006414D01*
X4283609Y4005637D01*
X4283443Y4005026D01*
X4283387Y4004472D01*
X4283332Y4004139D01*
Y4004083D01*
Y4004028D01*
X4283443Y4003028D01*
X4283664Y4001974D01*
X4284053Y4001030D01*
X4284441Y4000142D01*
X4284886Y3999421D01*
X4285274Y3998811D01*
X4285385Y3998588D01*
X4285496Y3998422D01*
X4285607Y3998367D01*
Y3998311D01*
X4286051Y3997700D01*
X4286606Y3997090D01*
X4287217Y3996424D01*
X4287882Y3995758D01*
X4289270Y3994426D01*
X4290658Y3993094D01*
X4291379Y3992483D01*
X4291989Y3991928D01*
X4292600Y3991429D01*
X4293100Y3990985D01*
X4293488Y3990652D01*
X4293821Y3990374D01*
X4294043Y3990208D01*
X4294099Y3990153D01*
X4295486Y3988987D01*
X4296762Y3987877D01*
X4297817Y3986878D01*
X4298650Y3986046D01*
X4299371Y3985324D01*
X4299870Y3984825D01*
X4300148Y3984492D01*
X4300259Y3984436D01*
Y3984381D01*
X4301036Y3983437D01*
X4301646Y3982549D01*
X4302202Y3981661D01*
X4302645Y3980884D01*
X4302979Y3980218D01*
X4303200Y3979718D01*
X4303311Y3979385D01*
X4303367Y3979330D01*
Y3979274D01*
X4303589Y3978664D01*
X4303700Y3978109D01*
X4303811Y3977554D01*
X4303867Y3977055D01*
X4303922Y3976610D01*
Y3976278D01*
Y3976055D01*
Y3976000D01*
X4278448D01*
Y3980551D01*
X4297373D01*
X4296707Y3981494D01*
X4296374Y3981883D01*
X4296096Y3982271D01*
X4295819Y3982604D01*
X4295597Y3982827D01*
X4295431Y3982993D01*
X4295375Y3983048D01*
X4295097Y3983326D01*
X4294765Y3983604D01*
X4293988Y3984325D01*
X4293100Y3985157D01*
X4292156Y3985990D01*
X4291268Y3986711D01*
X4290880Y3987044D01*
X4290547Y3987378D01*
X4290269Y3987599D01*
X4290047Y3987766D01*
X4289936Y3987877D01*
X4289881Y3987932D01*
X4288993Y3988709D01*
X4288105Y3989431D01*
X4287328Y3990153D01*
X4286606Y3990763D01*
X4285940Y3991374D01*
X4285385Y3991928D01*
X4284830Y3992428D01*
X4284386Y3992872D01*
X4283942Y3993316D01*
X4283609Y3993649D01*
X4283332Y3993927D01*
X4283054Y3994204D01*
X4282776Y3994537D01*
X4282666Y3994648D01*
X4281889Y3995591D01*
X4281222Y3996424D01*
X4280667Y3997256D01*
X4280224Y3997923D01*
X4279891Y3998533D01*
X4279668Y3998977D01*
X4279557Y3999255D01*
X4279502Y3999365D01*
X4279169Y4000198D01*
X4278947Y4001030D01*
X4278725Y4001807D01*
X4278614Y4002474D01*
X4278559Y4003084D01*
X4278503Y4003528D01*
Y4003805D01*
Y4003916D01*
X4278559Y4004749D01*
X4278669Y4005526D01*
X4278780Y4006303D01*
X4279002Y4006969D01*
X4279557Y4008301D01*
X4280113Y4009356D01*
X4280445Y4009855D01*
X4280723Y4010244D01*
X4281001Y4010632D01*
X4281278Y4010910D01*
X4281500Y4011131D01*
X4281611Y4011354D01*
X4281722Y4011409D01*
X4281778Y4011465D01*
X4282388Y4012019D01*
X4283054Y4012519D01*
X4283775Y4012907D01*
X4284497Y4013240D01*
X4285940Y4013796D01*
X4287383Y4014184D01*
X4287993Y4014295D01*
X4288604Y4014406D01*
X4289159Y4014461D01*
X4289603Y4014517D01*
X4289992Y4014573D01*
X4290547D01*
X4291546Y4014517D01*
D02*
G37*
G36*
X4337000Y4009855D02*
X4324346D01*
Y3976000D01*
X4319240D01*
Y4009855D01*
X4306586D01*
Y4014406D01*
X4337000D01*
Y4009855D01*
D02*
G37*
G36*
X1952156Y4014517D02*
X1953044Y4014406D01*
X1953932Y4014240D01*
X1954709Y4014017D01*
X1956207Y4013407D01*
X1956873Y4013130D01*
X1957428Y4012796D01*
X1957984Y4012408D01*
X1958428Y4012131D01*
X1958871Y4011798D01*
X1959205Y4011520D01*
X1959482Y4011298D01*
X1959649Y4011131D01*
X1959759Y4011021D01*
X1959815Y4010965D01*
X1960426Y4010299D01*
X1960925Y4009522D01*
X1961425Y4008800D01*
X1961813Y4008023D01*
X1962146Y4007191D01*
X1962424Y4006414D01*
X1962812Y4004971D01*
X1962978Y4004249D01*
X1963090Y4003639D01*
X1963145Y4003028D01*
X1963200Y4002529D01*
X1963256Y4002140D01*
Y4001863D01*
Y4001641D01*
Y4001586D01*
X1963200Y4000531D01*
X1963090Y3999588D01*
X1962978Y3998644D01*
X1962756Y3997756D01*
X1962479Y3996979D01*
X1962201Y3996202D01*
X1961924Y3995536D01*
X1961591Y3994925D01*
X1961313Y3994370D01*
X1961036Y3993871D01*
X1960758Y3993483D01*
X1960481Y3993094D01*
X1960259Y3992816D01*
X1960148Y3992650D01*
X1960037Y3992539D01*
X1959982Y3992483D01*
X1959371Y3991873D01*
X1958705Y3991374D01*
X1958039Y3990874D01*
X1957318Y3990485D01*
X1956651Y3990153D01*
X1955986Y3989875D01*
X1954709Y3989486D01*
X1954154Y3989320D01*
X1953599Y3989209D01*
X1953155Y3989153D01*
X1952711Y3989098D01*
X1952378Y3989043D01*
X1951934D01*
X1950880Y3989098D01*
X1949880Y3989265D01*
X1948993Y3989486D01*
X1948160Y3989764D01*
X1947550Y3989986D01*
X1947050Y3990208D01*
X1946717Y3990374D01*
X1946606Y3990430D01*
X1945718Y3990985D01*
X1944941Y3991595D01*
X1944275Y3992206D01*
X1943720Y3992761D01*
X1943332Y3993316D01*
X1942998Y3993704D01*
X1942776Y3993982D01*
X1942721Y3994093D01*
Y3993649D01*
Y3993372D01*
Y3993205D01*
Y3993149D01*
X1942776Y3992039D01*
X1942832Y3990985D01*
X1942943Y3990041D01*
X1943054Y3989153D01*
X1943220Y3988432D01*
X1943332Y3987877D01*
X1943387Y3987655D01*
Y3987488D01*
X1943443Y3987433D01*
Y3987378D01*
X1943720Y3986378D01*
X1943997Y3985490D01*
X1944275Y3984713D01*
X1944553Y3984048D01*
X1944774Y3983548D01*
X1944996Y3983160D01*
X1945108Y3982882D01*
X1945163Y3982827D01*
X1945607Y3982216D01*
X1946051Y3981716D01*
X1946495Y3981273D01*
X1946939Y3980884D01*
X1947272Y3980551D01*
X1947605Y3980329D01*
X1947827Y3980218D01*
X1947882Y3980162D01*
X1948493Y3979829D01*
X1949159Y3979608D01*
X1949770Y3979441D01*
X1950380Y3979330D01*
X1950880Y3979274D01*
X1951268Y3979219D01*
X1951657D01*
X1952544Y3979274D01*
X1953377Y3979441D01*
X1954099Y3979663D01*
X1954709Y3979941D01*
X1955153Y3980162D01*
X1955542Y3980385D01*
X1955764Y3980551D01*
X1955819Y3980606D01*
X1956374Y3981217D01*
X1956818Y3981939D01*
X1957207Y3982715D01*
X1957484Y3983492D01*
X1957706Y3984159D01*
X1957872Y3984769D01*
X1957928Y3984991D01*
Y3985102D01*
X1957984Y3985213D01*
Y3985269D01*
X1962534Y3984880D01*
X1962201Y3983271D01*
X1961757Y3981883D01*
X1961203Y3980662D01*
X1960648Y3979663D01*
X1960092Y3978886D01*
X1959815Y3978553D01*
X1959593Y3978276D01*
X1959427Y3978109D01*
X1959260Y3977943D01*
X1959205Y3977887D01*
X1959149Y3977831D01*
X1958594Y3977387D01*
X1957984Y3976999D01*
X1956763Y3976389D01*
X1955542Y3975945D01*
X1954376Y3975667D01*
X1953322Y3975445D01*
X1952878Y3975390D01*
X1952489D01*
X1952211Y3975334D01*
X1951767D01*
X1950214Y3975445D01*
X1948826Y3975667D01*
X1947550Y3976055D01*
X1946495Y3976499D01*
X1946051Y3976666D01*
X1945607Y3976888D01*
X1945274Y3977110D01*
X1944941Y3977276D01*
X1944719Y3977387D01*
X1944553Y3977499D01*
X1944441Y3977610D01*
X1944386D01*
X1943276Y3978553D01*
X1942277Y3979608D01*
X1941500Y3980718D01*
X1940834Y3981772D01*
X1940279Y3982715D01*
X1940057Y3983160D01*
X1939890Y3983492D01*
X1939780Y3983825D01*
X1939668Y3984048D01*
X1939613Y3984159D01*
Y3984214D01*
X1939335Y3985046D01*
X1939058Y3985990D01*
X1938669Y3987877D01*
X1938392Y3989875D01*
X1938226Y3991762D01*
X1938114Y3992595D01*
X1938059Y3993427D01*
Y3994148D01*
X1938004Y3994759D01*
Y3995258D01*
Y3995647D01*
Y3995925D01*
Y3995980D01*
Y3997256D01*
X1938059Y3998477D01*
X1938170Y3999588D01*
X1938281Y4000642D01*
X1938392Y4001586D01*
X1938503Y4002474D01*
X1938669Y4003306D01*
X1938836Y4004028D01*
X1939003Y4004638D01*
X1939113Y4005193D01*
X1939280Y4005693D01*
X1939391Y4006081D01*
X1939502Y4006358D01*
X1939613Y4006581D01*
X1939668Y4006691D01*
Y4006747D01*
X1940334Y4008079D01*
X1941056Y4009244D01*
X1941889Y4010244D01*
X1942610Y4011076D01*
X1943332Y4011686D01*
X1943887Y4012131D01*
X1944109Y4012297D01*
X1944275Y4012408D01*
X1944331Y4012519D01*
X1944386D01*
X1945552Y4013185D01*
X1946717Y4013684D01*
X1947882Y4014073D01*
X1948937Y4014295D01*
X1949880Y4014461D01*
X1950269Y4014517D01*
X1950546D01*
X1950824Y4014573D01*
X1951213D01*
X1952156Y4014517D01*
D02*
G37*
G36*
X1997000Y4009855D02*
X1984346D01*
Y3976000D01*
X1979240D01*
Y4009855D01*
X1966586D01*
Y4014406D01*
X1997000D01*
Y4009855D01*
D02*
G37*
G36*
X2331000D02*
X2318346D01*
Y3976000D01*
X2313240D01*
Y4009855D01*
X2300586D01*
Y4014406D01*
X2331000D01*
Y4009855D01*
D02*
G37*
G36*
X2285657Y4014517D02*
X2286544Y4014461D01*
X2288099Y4014128D01*
X2288820Y4013907D01*
X2289486Y4013684D01*
X2290097Y4013407D01*
X2290651Y4013130D01*
X2291095Y4012852D01*
X2291539Y4012575D01*
X2291928Y4012352D01*
X2292206Y4012131D01*
X2292427Y4011964D01*
X2292594Y4011798D01*
X2292705Y4011742D01*
X2292760Y4011686D01*
X2293260Y4011131D01*
X2293760Y4010577D01*
X2294148Y4009966D01*
X2294481Y4009356D01*
X2295036Y4008190D01*
X2295369Y4007080D01*
X2295591Y4006137D01*
X2295646Y4005693D01*
X2295702Y4005360D01*
X2295758Y4005026D01*
Y4004805D01*
Y4004693D01*
Y4004638D01*
X2295702Y4003639D01*
X2295535Y4002695D01*
X2295314Y4001863D01*
X2295036Y4001142D01*
X2294814Y4000586D01*
X2294592Y4000142D01*
X2294425Y3999921D01*
X2294370Y3999809D01*
X2293760Y3999144D01*
X2293093Y3998533D01*
X2292372Y3997978D01*
X2291651Y3997534D01*
X2290985Y3997201D01*
X2290485Y3996979D01*
X2290263Y3996868D01*
X2290097Y3996812D01*
X2290041Y3996757D01*
X2289985D01*
X2291262Y3996369D01*
X2292316Y3995869D01*
X2293260Y3995258D01*
X2294037Y3994704D01*
X2294648Y3994148D01*
X2295091Y3993704D01*
X2295314Y3993427D01*
X2295425Y3993372D01*
Y3993316D01*
X2296035Y3992317D01*
X2296535Y3991262D01*
X2296867Y3990264D01*
X2297090Y3989265D01*
X2297200Y3988376D01*
X2297256Y3987988D01*
Y3987655D01*
X2297311Y3987433D01*
Y3987211D01*
Y3987100D01*
Y3987044D01*
X2297256Y3986157D01*
X2297145Y3985269D01*
X2296979Y3984436D01*
X2296756Y3983604D01*
X2296202Y3982216D01*
X2295924Y3981550D01*
X2295591Y3980995D01*
X2295258Y3980440D01*
X2294981Y3979996D01*
X2294648Y3979608D01*
X2294425Y3979274D01*
X2294204Y3978997D01*
X2294037Y3978831D01*
X2293926Y3978720D01*
X2293870Y3978664D01*
X2293204Y3978053D01*
X2292483Y3977554D01*
X2291706Y3977110D01*
X2290929Y3976722D01*
X2290207Y3976444D01*
X2289430Y3976166D01*
X2287932Y3975778D01*
X2287266Y3975611D01*
X2286655Y3975501D01*
X2286101Y3975445D01*
X2285601Y3975390D01*
X2285213Y3975334D01*
X2284657D01*
X2283603Y3975390D01*
X2282660Y3975501D01*
X2281716Y3975667D01*
X2280828Y3975834D01*
X2280051Y3976111D01*
X2279274Y3976389D01*
X2278552Y3976666D01*
X2277942Y3976999D01*
X2277387Y3977332D01*
X2276887Y3977610D01*
X2276499Y3977887D01*
X2276110Y3978164D01*
X2275833Y3978331D01*
X2275666Y3978497D01*
X2275555Y3978608D01*
X2275500Y3978664D01*
X2274890Y3979330D01*
X2274334Y3979996D01*
X2273890Y3980662D01*
X2273502Y3981383D01*
X2273113Y3982050D01*
X2272836Y3982771D01*
X2272448Y3984048D01*
X2272281Y3984658D01*
X2272170Y3985213D01*
X2272115Y3985713D01*
X2272059Y3986101D01*
X2272003Y3986434D01*
Y3986711D01*
Y3986878D01*
Y3986934D01*
X2272059Y3988210D01*
X2272281Y3989376D01*
X2272614Y3990430D01*
X2272947Y3991318D01*
X2273280Y3992039D01*
X2273613Y3992595D01*
X2273835Y3992927D01*
X2273890Y3992983D01*
Y3993039D01*
X2274668Y3993927D01*
X2275500Y3994704D01*
X2276388Y3995314D01*
X2277220Y3995869D01*
X2277997Y3996258D01*
X2278664Y3996535D01*
X2278885Y3996646D01*
X2279052Y3996702D01*
X2279163Y3996757D01*
X2279218D01*
X2278220Y3997201D01*
X2277387Y3997700D01*
X2276666Y3998200D01*
X2276055Y3998700D01*
X2275611Y3999144D01*
X2275278Y3999477D01*
X2275056Y3999698D01*
X2275001Y3999809D01*
X2274501Y4000586D01*
X2274168Y4001363D01*
X2273890Y4002140D01*
X2273724Y4002918D01*
X2273613Y4003528D01*
X2273557Y4004028D01*
Y4004360D01*
Y4004416D01*
Y4004472D01*
X2273613Y4005249D01*
X2273669Y4005970D01*
X2274057Y4007358D01*
X2274557Y4008579D01*
X2275111Y4009633D01*
X2275666Y4010465D01*
X2275944Y4010798D01*
X2276166Y4011131D01*
X2276388Y4011354D01*
X2276555Y4011520D01*
X2276610Y4011575D01*
X2276666Y4011631D01*
X2277276Y4012131D01*
X2277887Y4012630D01*
X2278552Y4013019D01*
X2279218Y4013352D01*
X2280550Y4013851D01*
X2281883Y4014184D01*
X2282438Y4014351D01*
X2282992Y4014406D01*
X2283492Y4014461D01*
X2283936Y4014517D01*
X2284269Y4014573D01*
X2284769D01*
X2285657Y4014517D01*
D02*
G37*
G36*
X2666000Y4009855D02*
X2653346D01*
Y3976000D01*
X2648240D01*
Y4009855D01*
X2635586D01*
Y4014406D01*
X2666000D01*
Y4009855D01*
D02*
G37*
G36*
X2631923Y4009356D02*
X2613108D01*
X2614441Y4007746D01*
X2615717Y4006026D01*
X2616827Y4004360D01*
X2617881Y4002751D01*
X2618325Y4002030D01*
X2618714Y4001363D01*
X2619102Y4000753D01*
X2619380Y4000253D01*
X2619602Y3999809D01*
X2619769Y3999532D01*
X2619880Y3999310D01*
X2619935Y3999255D01*
X2621045Y3997035D01*
X2622044Y3994814D01*
X2622876Y3992706D01*
X2623209Y3991762D01*
X2623543Y3990818D01*
X2623876Y3989986D01*
X2624097Y3989209D01*
X2624320Y3988543D01*
X2624486Y3987988D01*
X2624653Y3987488D01*
X2624764Y3987155D01*
X2624819Y3986934D01*
Y3986878D01*
X2625374Y3984602D01*
X2625596Y3983492D01*
X2625762Y3982494D01*
X2625929Y3981550D01*
X2626095Y3980606D01*
X2626206Y3979829D01*
X2626318Y3979052D01*
X2626373Y3978387D01*
X2626428Y3977776D01*
X2626484Y3977221D01*
Y3976777D01*
X2626539Y3976444D01*
Y3976222D01*
Y3976055D01*
Y3976000D01*
X2621711D01*
X2621544Y3978109D01*
X2621267Y3980052D01*
X2620990Y3981827D01*
X2620823Y3982660D01*
X2620657Y3983437D01*
X2620546Y3984103D01*
X2620379Y3984713D01*
X2620268Y3985269D01*
X2620157Y3985713D01*
X2620046Y3986046D01*
X2619990Y3986323D01*
X2619935Y3986490D01*
Y3986545D01*
X2619102Y3989098D01*
X2618215Y3991485D01*
X2617771Y3992650D01*
X2617327Y3993760D01*
X2616827Y3994759D01*
X2616383Y3995758D01*
X2615994Y3996646D01*
X2615606Y3997423D01*
X2615273Y3998089D01*
X2614995Y3998700D01*
X2614718Y3999199D01*
X2614552Y3999532D01*
X2614441Y3999754D01*
X2614385Y3999809D01*
X2613719Y4000975D01*
X2613053Y4002140D01*
X2612387Y4003195D01*
X2611721Y4004194D01*
X2611110Y4005082D01*
X2610500Y4005970D01*
X2609890Y4006747D01*
X2609390Y4007413D01*
X2608890Y4008079D01*
X2608447Y4008634D01*
X2608003Y4009078D01*
X2607669Y4009466D01*
X2607448Y4009800D01*
X2607226Y4010021D01*
X2607115Y4010133D01*
X2607059Y4010188D01*
Y4013907D01*
X2631923D01*
Y4009356D01*
D02*
G37*
G36*
X2953769Y4014517D02*
X2954823Y4014406D01*
X2955822Y4014184D01*
X2956765Y4013907D01*
X2957598Y4013518D01*
X2958430Y4013185D01*
X2959152Y4012741D01*
X2959818Y4012352D01*
X2960373Y4011964D01*
X2960928Y4011520D01*
X2961372Y4011187D01*
X2961705Y4010854D01*
X2961983Y4010521D01*
X2962204Y4010299D01*
X2962316Y4010188D01*
X2962371Y4010133D01*
X2963093Y4009133D01*
X2963703Y4007968D01*
X2964258Y4006747D01*
X2964758Y4005470D01*
X2965146Y4004139D01*
X2965479Y4002807D01*
X2965756Y4001419D01*
X2965979Y4000142D01*
X2966145Y3998866D01*
X2966256Y3997700D01*
X2966367Y3996646D01*
X2966423Y3995758D01*
Y3994981D01*
X2966478Y3994426D01*
Y3994204D01*
Y3994037D01*
Y3993982D01*
Y3993927D01*
X2966423Y3992151D01*
X2966311Y3990485D01*
X2966145Y3988932D01*
X2965867Y3987488D01*
X2965590Y3986212D01*
X2965312Y3985046D01*
X2964979Y3983992D01*
X2964591Y3983048D01*
X2964258Y3982271D01*
X2963925Y3981550D01*
X2963648Y3980995D01*
X2963314Y3980495D01*
X2963093Y3980107D01*
X2962926Y3979885D01*
X2962815Y3979718D01*
X2962760Y3979663D01*
X2962038Y3978886D01*
X2961261Y3978220D01*
X2960484Y3977665D01*
X2959707Y3977166D01*
X2958874Y3976722D01*
X2958097Y3976389D01*
X2957320Y3976111D01*
X2956544Y3975889D01*
X2955878Y3975722D01*
X2955211Y3975556D01*
X2954657Y3975445D01*
X2954157Y3975390D01*
X2953713D01*
X2953436Y3975334D01*
X2953158D01*
X2951881Y3975390D01*
X2950716Y3975611D01*
X2949662Y3975834D01*
X2948718Y3976166D01*
X2947997Y3976444D01*
X2947441Y3976722D01*
X2947220Y3976777D01*
X2947053Y3976888D01*
X2946997Y3976943D01*
X2946942D01*
X2945999Y3977610D01*
X2945110Y3978387D01*
X2944389Y3979164D01*
X2943778Y3979941D01*
X2943279Y3980662D01*
X2942946Y3981217D01*
X2942835Y3981439D01*
X2942724Y3981606D01*
X2942669Y3981661D01*
Y3981716D01*
X2942113Y3982882D01*
X2941725Y3984103D01*
X2941448Y3985213D01*
X2941281Y3986267D01*
X2941115Y3987155D01*
Y3987488D01*
X2941059Y3987822D01*
Y3988099D01*
Y3988265D01*
Y3988376D01*
Y3988432D01*
X2941115Y3989431D01*
X2941226Y3990374D01*
X2941392Y3991318D01*
X2941559Y3992151D01*
X2941836Y3992927D01*
X2942113Y3993704D01*
X2942391Y3994370D01*
X2942724Y3994981D01*
X2943057Y3995536D01*
X2943334Y3996035D01*
X2943612Y3996424D01*
X2943890Y3996812D01*
X2944056Y3997090D01*
X2944222Y3997256D01*
X2944334Y3997367D01*
X2944389Y3997423D01*
X2944999Y3998034D01*
X2945666Y3998588D01*
X2946387Y3999032D01*
X2947053Y3999421D01*
X2947719Y3999809D01*
X2948385Y4000087D01*
X2949662Y4000476D01*
X2950216Y4000642D01*
X2950771Y4000753D01*
X2951215Y4000809D01*
X2951660Y4000864D01*
X2951992Y4000919D01*
X2952436D01*
X2953436Y4000864D01*
X2954379Y4000698D01*
X2955267Y4000531D01*
X2956044Y4000309D01*
X2956710Y4000032D01*
X2957209Y3999865D01*
X2957543Y3999698D01*
X2957598Y3999643D01*
X2957653D01*
X2958541Y3999088D01*
X2959318Y3998477D01*
X2960040Y3997867D01*
X2960595Y3997201D01*
X2961095Y3996646D01*
X2961483Y3996202D01*
X2961705Y3995869D01*
X2961760Y3995814D01*
Y3996812D01*
X2961705Y3997811D01*
X2961649Y3998700D01*
X2961539Y3999588D01*
X2961483Y4000365D01*
X2961372Y4001086D01*
X2961261Y4001752D01*
X2961095Y4002363D01*
X2960983Y4002918D01*
X2960872Y4003361D01*
X2960762Y4003750D01*
X2960706Y4004083D01*
X2960595Y4004305D01*
X2960539Y4004472D01*
X2960484Y4004582D01*
Y4004638D01*
X2959929Y4005748D01*
X2959374Y4006747D01*
X2958764Y4007524D01*
X2958209Y4008190D01*
X2957709Y4008745D01*
X2957320Y4009133D01*
X2957043Y4009356D01*
X2956932Y4009411D01*
X2956266Y4009855D01*
X2955600Y4010133D01*
X2954934Y4010354D01*
X2954268Y4010521D01*
X2953769Y4010632D01*
X2953325Y4010688D01*
X2952936D01*
X2951937Y4010577D01*
X2950994Y4010354D01*
X2950216Y4010021D01*
X2949495Y4009689D01*
X2948940Y4009300D01*
X2948552Y4008967D01*
X2948329Y4008745D01*
X2948218Y4008634D01*
X2947830Y4008135D01*
X2947441Y4007524D01*
X2947108Y4006858D01*
X2946887Y4006192D01*
X2946664Y4005581D01*
X2946498Y4005082D01*
X2946443Y4004749D01*
X2946387Y4004693D01*
Y4004638D01*
X2941669Y4005026D01*
X2942003Y4006581D01*
X2942502Y4007968D01*
X2943057Y4009189D01*
X2943668Y4010188D01*
X2944278Y4010965D01*
X2944500Y4011298D01*
X2944778Y4011575D01*
X2944944Y4011742D01*
X2945110Y4011909D01*
X2945166Y4011964D01*
X2945222Y4012019D01*
X2945776Y4012463D01*
X2946387Y4012852D01*
X2947608Y4013518D01*
X2948829Y4013962D01*
X2949994Y4014240D01*
X2951049Y4014461D01*
X2951493Y4014517D01*
X2951881D01*
X2952215Y4014573D01*
X2952659D01*
X2953769Y4014517D01*
D02*
G37*
G36*
X3000000Y4009855D02*
X2987346D01*
Y3976000D01*
X2982240D01*
Y4009855D01*
X2969586D01*
Y4014406D01*
X3000000D01*
Y4009855D01*
D02*
G37*
G36*
X1615103Y4013629D02*
X1615714Y4012741D01*
X1616436Y4011853D01*
X1617101Y4011076D01*
X1617767Y4010410D01*
X1618267Y4009855D01*
X1618489Y4009689D01*
X1618656Y4009522D01*
X1618711Y4009466D01*
X1618766Y4009411D01*
X1619932Y4008468D01*
X1621098Y4007579D01*
X1622207Y4006802D01*
X1623318Y4006192D01*
X1624261Y4005637D01*
X1624649Y4005415D01*
X1624983Y4005249D01*
X1625260Y4005082D01*
X1625482Y4005026D01*
X1625593Y4004916D01*
X1625649D01*
Y4000365D01*
X1624816Y4000698D01*
X1623984Y4001086D01*
X1623151Y4001474D01*
X1622374Y4001863D01*
X1621708Y4002196D01*
X1621153Y4002474D01*
X1620820Y4002695D01*
X1620764Y4002751D01*
X1620709D01*
X1619710Y4003361D01*
X1618822Y4003972D01*
X1618045Y4004527D01*
X1617435Y4005026D01*
X1616880Y4005415D01*
X1616546Y4005748D01*
X1616269Y4005970D01*
X1616214Y4006026D01*
Y3976000D01*
X1611496D01*
Y4014573D01*
X1614549D01*
X1615103Y4013629D01*
D02*
G37*
G36*
X1663000Y4009855D02*
X1650346D01*
Y3976000D01*
X1645240D01*
Y4009855D01*
X1632586D01*
Y4014406D01*
X1663000D01*
Y4009855D01*
D02*
G37*
G36*
X1588352Y4014461D02*
X1589740Y4014240D01*
X1590906Y4013851D01*
X1591905Y4013463D01*
X1592737Y4013019D01*
X1593070Y4012852D01*
X1593348Y4012630D01*
X1593570Y4012519D01*
X1593736Y4012408D01*
X1593792Y4012297D01*
X1593847D01*
X1594846Y4011409D01*
X1595678Y4010354D01*
X1596400Y4009300D01*
X1596955Y4008301D01*
X1597399Y4007358D01*
X1597621Y4006969D01*
X1597732Y4006581D01*
X1597843Y4006303D01*
X1597954Y4006081D01*
X1598009Y4005970D01*
Y4005914D01*
X1598232Y4005082D01*
X1598454Y4004249D01*
X1598786Y4002418D01*
X1599064Y4000586D01*
X1599230Y3998866D01*
X1599286Y3998034D01*
X1599341Y3997312D01*
Y3996646D01*
X1599397Y3996035D01*
Y3995591D01*
Y3995203D01*
Y3994981D01*
Y3994925D01*
X1599341Y3992983D01*
X1599230Y3991151D01*
X1599064Y3989486D01*
X1598786Y3987932D01*
X1598509Y3986490D01*
X1598176Y3985213D01*
X1597843Y3984048D01*
X1597510Y3983048D01*
X1597177Y3982160D01*
X1596789Y3981383D01*
X1596511Y3980718D01*
X1596234Y3980218D01*
X1595956Y3979774D01*
X1595790Y3979497D01*
X1595678Y3979330D01*
X1595623Y3979274D01*
X1595013Y3978608D01*
X1594347Y3977998D01*
X1593625Y3977443D01*
X1592903Y3976999D01*
X1592182Y3976610D01*
X1591460Y3976278D01*
X1590739Y3976055D01*
X1590073Y3975834D01*
X1589407Y3975667D01*
X1588796Y3975556D01*
X1588242Y3975445D01*
X1587797Y3975390D01*
X1587409Y3975334D01*
X1586854D01*
X1585355Y3975445D01*
X1583968Y3975667D01*
X1582803Y3976055D01*
X1581803Y3976444D01*
X1580971Y3976832D01*
X1580694Y3977055D01*
X1580416Y3977221D01*
X1580194Y3977332D01*
X1580027Y3977443D01*
X1579972Y3977554D01*
X1579917D01*
X1578918Y3978497D01*
X1578085Y3979497D01*
X1577363Y3980606D01*
X1576809Y3981606D01*
X1576364Y3982549D01*
X1576142Y3982938D01*
X1576032Y3983326D01*
X1575920Y3983604D01*
X1575810Y3983825D01*
X1575754Y3983936D01*
Y3983992D01*
X1575476Y3984825D01*
X1575255Y3985657D01*
X1574921Y3987433D01*
X1574644Y3989265D01*
X1574477Y3991041D01*
X1574422Y3991818D01*
X1574367Y3992539D01*
Y3993205D01*
X1574311Y3993816D01*
Y3994260D01*
Y3994648D01*
Y3994870D01*
Y3994925D01*
Y3995980D01*
X1574367Y3996979D01*
Y3997867D01*
X1574422Y3998755D01*
X1574533Y3999532D01*
X1574589Y4000309D01*
X1574644Y4000975D01*
X1574755Y4001586D01*
X1574811Y4002140D01*
X1574921Y4002640D01*
X1574977Y4003028D01*
X1575033Y4003361D01*
X1575088Y4003639D01*
X1575143Y4003805D01*
X1575199Y4003916D01*
Y4003972D01*
X1575532Y4005193D01*
X1575920Y4006303D01*
X1576364Y4007247D01*
X1576697Y4008079D01*
X1577086Y4008800D01*
X1577308Y4009300D01*
X1577530Y4009577D01*
X1577585Y4009689D01*
X1578196Y4010521D01*
X1578806Y4011242D01*
X1579473Y4011853D01*
X1580083Y4012408D01*
X1580638Y4012796D01*
X1581082Y4013074D01*
X1581360Y4013240D01*
X1581415Y4013296D01*
X1581470D01*
X1582359Y4013740D01*
X1583302Y4014017D01*
X1584190Y4014240D01*
X1585023Y4014406D01*
X1585744Y4014517D01*
X1586354Y4014573D01*
X1586854D01*
X1588352Y4014461D01*
D02*
G37*
G36*
X918687Y4014517D02*
X919630Y4014461D01*
X920518Y4014295D01*
X921351Y4014128D01*
X922128Y4013907D01*
X922849Y4013684D01*
X923515Y4013407D01*
X924125Y4013130D01*
X924681Y4012852D01*
X925125Y4012575D01*
X925513Y4012352D01*
X925846Y4012131D01*
X926124Y4011964D01*
X926290Y4011798D01*
X926401Y4011742D01*
X926457Y4011686D01*
X927011Y4011131D01*
X927511Y4010521D01*
X928010Y4009855D01*
X928399Y4009189D01*
X929065Y4007857D01*
X929509Y4006525D01*
X929676Y4005914D01*
X929842Y4005304D01*
X929953Y4004805D01*
X930064Y4004360D01*
X930120Y4003972D01*
Y4003695D01*
X930175Y4003528D01*
Y4003472D01*
X925346Y4002973D01*
X925236Y4004249D01*
X925014Y4005360D01*
X924681Y4006358D01*
X924292Y4007135D01*
X923959Y4007802D01*
X923626Y4008245D01*
X923404Y4008523D01*
X923293Y4008634D01*
X922461Y4009300D01*
X921572Y4009800D01*
X920629Y4010188D01*
X919797Y4010410D01*
X919019Y4010577D01*
X918354Y4010632D01*
X918131Y4010688D01*
X917798D01*
X916633Y4010632D01*
X915578Y4010410D01*
X914691Y4010077D01*
X913913Y4009744D01*
X913303Y4009356D01*
X912914Y4009078D01*
X912637Y4008856D01*
X912526Y4008745D01*
X911860Y4007968D01*
X911361Y4007191D01*
X910972Y4006414D01*
X910750Y4005637D01*
X910583Y4005026D01*
X910528Y4004472D01*
X910472Y4004139D01*
Y4004083D01*
Y4004028D01*
X910583Y4003028D01*
X910806Y4001974D01*
X911194Y4001030D01*
X911582Y4000142D01*
X912027Y3999421D01*
X912415Y3998811D01*
X912526Y3998588D01*
X912637Y3998422D01*
X912748Y3998367D01*
Y3998311D01*
X913192Y3997700D01*
X913747Y3997090D01*
X914357Y3996424D01*
X915024Y3995758D01*
X916411Y3994426D01*
X917798Y3993094D01*
X918520Y3992483D01*
X919130Y3991928D01*
X919741Y3991429D01*
X920240Y3990985D01*
X920629Y3990652D01*
X920962Y3990374D01*
X921184Y3990208D01*
X921240Y3990153D01*
X922627Y3988987D01*
X923904Y3987877D01*
X924958Y3986878D01*
X925790Y3986046D01*
X926512Y3985324D01*
X927011Y3984825D01*
X927289Y3984492D01*
X927400Y3984436D01*
Y3984381D01*
X928177Y3983437D01*
X928788Y3982549D01*
X929342Y3981661D01*
X929787Y3980884D01*
X930120Y3980218D01*
X930341Y3979718D01*
X930452Y3979385D01*
X930508Y3979330D01*
Y3979274D01*
X930730Y3978664D01*
X930841Y3978109D01*
X930952Y3977554D01*
X931008Y3977055D01*
X931063Y3976610D01*
Y3976278D01*
Y3976055D01*
Y3976000D01*
X905588D01*
Y3980551D01*
X924514D01*
X923848Y3981494D01*
X923515Y3981883D01*
X923237Y3982271D01*
X922960Y3982604D01*
X922738Y3982827D01*
X922572Y3982993D01*
X922516Y3983048D01*
X922239Y3983326D01*
X921905Y3983604D01*
X921129Y3984325D01*
X920240Y3985157D01*
X919297Y3985990D01*
X918409Y3986711D01*
X918020Y3987044D01*
X917688Y3987378D01*
X917410Y3987599D01*
X917188Y3987766D01*
X917077Y3987877D01*
X917021Y3987932D01*
X916134Y3988709D01*
X915245Y3989431D01*
X914468Y3990153D01*
X913747Y3990763D01*
X913081Y3991374D01*
X912526Y3991928D01*
X911971Y3992428D01*
X911527Y3992872D01*
X911083Y3993316D01*
X910750Y3993649D01*
X910472Y3993927D01*
X910195Y3994204D01*
X909918Y3994537D01*
X909807Y3994648D01*
X909029Y3995591D01*
X908364Y3996424D01*
X907808Y3997256D01*
X907365Y3997923D01*
X907032Y3998533D01*
X906809Y3998977D01*
X906698Y3999255D01*
X906643Y3999365D01*
X906310Y4000198D01*
X906088Y4001030D01*
X905866Y4001807D01*
X905755Y4002474D01*
X905699Y4003084D01*
X905644Y4003528D01*
Y4003805D01*
Y4003916D01*
X905699Y4004749D01*
X905811Y4005526D01*
X905922Y4006303D01*
X906144Y4006969D01*
X906698Y4008301D01*
X907254Y4009356D01*
X907587Y4009855D01*
X907864Y4010244D01*
X908141Y4010632D01*
X908419Y4010910D01*
X908641Y4011131D01*
X908752Y4011354D01*
X908863Y4011409D01*
X908918Y4011465D01*
X909529Y4012019D01*
X910195Y4012519D01*
X910917Y4012907D01*
X911638Y4013240D01*
X913081Y4013796D01*
X914524Y4014184D01*
X915135Y4014295D01*
X915745Y4014406D01*
X916300Y4014461D01*
X916744Y4014517D01*
X917133Y4014573D01*
X917688D01*
X918687Y4014517D01*
D02*
G37*
G36*
X946104Y4013629D02*
X946714Y4012741D01*
X947436Y4011853D01*
X948101Y4011076D01*
X948768Y4010410D01*
X949267Y4009855D01*
X949489Y4009689D01*
X949655Y4009522D01*
X949711Y4009466D01*
X949766Y4009411D01*
X950932Y4008468D01*
X952097Y4007579D01*
X953207Y4006802D01*
X954317Y4006192D01*
X955261Y4005637D01*
X955649Y4005415D01*
X955982Y4005249D01*
X956260Y4005082D01*
X956482Y4005026D01*
X956593Y4004916D01*
X956649D01*
Y4000365D01*
X955816Y4000698D01*
X954984Y4001086D01*
X954151Y4001474D01*
X953374Y4001863D01*
X952708Y4002196D01*
X952153Y4002474D01*
X951820Y4002695D01*
X951764Y4002751D01*
X951709D01*
X950710Y4003361D01*
X949822Y4003972D01*
X949045Y4004527D01*
X948434Y4005026D01*
X947880Y4005415D01*
X947547Y4005748D01*
X947269Y4005970D01*
X947213Y4006026D01*
Y3976000D01*
X942496D01*
Y4014573D01*
X945548D01*
X946104Y4013629D01*
D02*
G37*
G36*
X994000Y4009855D02*
X981346D01*
Y3976000D01*
X976240D01*
Y4009855D01*
X963586D01*
Y4014406D01*
X994000D01*
Y4009855D01*
D02*
G37*
G36*
X1280103Y4013629D02*
X1280714Y4012741D01*
X1281436Y4011853D01*
X1282101Y4011076D01*
X1282767Y4010410D01*
X1283267Y4009855D01*
X1283489Y4009689D01*
X1283656Y4009522D01*
X1283711Y4009466D01*
X1283766Y4009411D01*
X1284932Y4008468D01*
X1286098Y4007579D01*
X1287207Y4006802D01*
X1288318Y4006192D01*
X1289261Y4005637D01*
X1289649Y4005415D01*
X1289983Y4005249D01*
X1290260Y4005082D01*
X1290482Y4005026D01*
X1290593Y4004916D01*
X1290649D01*
Y4000365D01*
X1289816Y4000698D01*
X1288984Y4001086D01*
X1288151Y4001474D01*
X1287374Y4001863D01*
X1286708Y4002196D01*
X1286153Y4002474D01*
X1285820Y4002695D01*
X1285764Y4002751D01*
X1285709D01*
X1284710Y4003361D01*
X1283822Y4003972D01*
X1283045Y4004527D01*
X1282435Y4005026D01*
X1281880Y4005415D01*
X1281546Y4005748D01*
X1281269Y4005970D01*
X1281214Y4006026D01*
Y3976000D01*
X1276496D01*
Y4014573D01*
X1279549D01*
X1280103Y4013629D01*
D02*
G37*
G36*
X1250245D02*
X1250855Y4012741D01*
X1251576Y4011853D01*
X1252243Y4011076D01*
X1252909Y4010410D01*
X1253408Y4009855D01*
X1253630Y4009689D01*
X1253796Y4009522D01*
X1253852Y4009466D01*
X1253908Y4009411D01*
X1255073Y4008468D01*
X1256238Y4007579D01*
X1257349Y4006802D01*
X1258458Y4006192D01*
X1259402Y4005637D01*
X1259791Y4005415D01*
X1260123Y4005249D01*
X1260401Y4005082D01*
X1260623Y4005026D01*
X1260734Y4004916D01*
X1260790D01*
Y4000365D01*
X1259957Y4000698D01*
X1259124Y4001086D01*
X1258292Y4001474D01*
X1257515Y4001863D01*
X1256849Y4002196D01*
X1256294Y4002474D01*
X1255961Y4002695D01*
X1255906Y4002751D01*
X1255850D01*
X1254851Y4003361D01*
X1253963Y4003972D01*
X1253186Y4004527D01*
X1252575Y4005026D01*
X1252021Y4005415D01*
X1251688Y4005748D01*
X1251410Y4005970D01*
X1251354Y4006026D01*
Y3976000D01*
X1246637D01*
Y4014573D01*
X1249689D01*
X1250245Y4013629D01*
D02*
G37*
G36*
X1328000Y4009855D02*
X1315346D01*
Y3976000D01*
X1310240D01*
Y4009855D01*
X1297586D01*
Y4014406D01*
X1328000D01*
Y4009855D01*
D02*
G37*
%LPC*%
G36*
X1348947Y3354747D02*
Y3337542D01*
X1361046D01*
X1348947Y3354747D01*
D02*
G37*
G36*
X2540577Y3299894D02*
X2527867D01*
Y3287795D01*
X2527923Y3286296D01*
X2528145Y3285020D01*
X2528423Y3283910D01*
X2528756Y3283077D01*
X2529088Y3282356D01*
X2529366Y3281912D01*
X2529588Y3281635D01*
X2529644Y3281523D01*
X2530365Y3280858D01*
X2531086Y3280358D01*
X2531863Y3280025D01*
X2532530Y3279747D01*
X2533195Y3279637D01*
X2533695Y3279581D01*
X2534028Y3279526D01*
X2534084D01*
X2534139D01*
X2534805Y3279581D01*
X2535471Y3279692D01*
X2536026Y3279858D01*
X2536526Y3280025D01*
X2536970Y3280247D01*
X2537302Y3280414D01*
X2537524Y3280524D01*
X2537580Y3280580D01*
X2538135Y3280968D01*
X2538635Y3281468D01*
X2539023Y3281968D01*
X2539356Y3282467D01*
X2539578Y3282911D01*
X2539744Y3283244D01*
X2539856Y3283466D01*
X2539911Y3283577D01*
X2540133Y3284354D01*
X2540300Y3285242D01*
X2540410Y3286130D01*
X2540466Y3287018D01*
X2540521Y3287795D01*
X2540577Y3288461D01*
Y3299894D01*
D02*
G37*
G36*
X1878577Y3303894D02*
X1865868D01*
Y3291795D01*
X1865923Y3290296D01*
X1866145Y3289020D01*
X1866422Y3287910D01*
X1866755Y3287077D01*
X1867089Y3286356D01*
X1867366Y3285912D01*
X1867588Y3285635D01*
X1867643Y3285523D01*
X1868365Y3284858D01*
X1869086Y3284358D01*
X1869863Y3284025D01*
X1870530Y3283747D01*
X1871196Y3283637D01*
X1871695Y3283581D01*
X1872028Y3283526D01*
X1872083D01*
X1872139D01*
X1872805Y3283581D01*
X1873471Y3283692D01*
X1874026Y3283858D01*
X1874525Y3284025D01*
X1874969Y3284247D01*
X1875303Y3284414D01*
X1875524Y3284524D01*
X1875580Y3284580D01*
X1876135Y3284968D01*
X1876634Y3285468D01*
X1877023Y3285968D01*
X1877356Y3286467D01*
X1877578Y3286911D01*
X1877745Y3287244D01*
X1877855Y3287466D01*
X1877911Y3287577D01*
X1878133Y3288354D01*
X1878300Y3289242D01*
X1878410Y3290130D01*
X1878466Y3291018D01*
X1878522Y3291795D01*
X1878577Y3292461D01*
Y3303894D01*
D02*
G37*
G36*
X1193577Y3306894D02*
X1180868D01*
Y3294795D01*
X1180923Y3293296D01*
X1181145Y3292020D01*
X1181422Y3290910D01*
X1181755Y3290077D01*
X1182089Y3289356D01*
X1182366Y3288912D01*
X1182588Y3288635D01*
X1182643Y3288523D01*
X1183365Y3287858D01*
X1184086Y3287358D01*
X1184863Y3287025D01*
X1185530Y3286747D01*
X1186196Y3286637D01*
X1186695Y3286581D01*
X1187028Y3286526D01*
X1187083D01*
X1187139D01*
X1187805Y3286581D01*
X1188471Y3286692D01*
X1189026Y3286858D01*
X1189525Y3287025D01*
X1189969Y3287247D01*
X1190303Y3287414D01*
X1190524Y3287524D01*
X1190580Y3287580D01*
X1191135Y3287968D01*
X1191634Y3288468D01*
X1192023Y3288968D01*
X1192356Y3289467D01*
X1192578Y3289911D01*
X1192745Y3290244D01*
X1192855Y3290466D01*
X1192911Y3290577D01*
X1193133Y3291354D01*
X1193300Y3292242D01*
X1193410Y3293130D01*
X1193466Y3294018D01*
X1193522Y3294795D01*
X1193577Y3295461D01*
Y3306894D01*
D02*
G37*
G36*
X1186362Y3239073D02*
X1186306D01*
X1186251D01*
X1185363Y3239017D01*
X1184586Y3238796D01*
X1183864Y3238518D01*
X1183254Y3238185D01*
X1182755Y3237907D01*
X1182366Y3237630D01*
X1182144Y3237408D01*
X1182089Y3237352D01*
X1181478Y3236631D01*
X1181034Y3235910D01*
X1180756Y3235133D01*
X1180534Y3234411D01*
X1180424Y3233745D01*
X1180312Y3233245D01*
Y3232802D01*
X1180368Y3231858D01*
X1180590Y3230970D01*
X1180868Y3230249D01*
X1181200Y3229582D01*
X1181534Y3229083D01*
X1181811Y3228695D01*
X1182033Y3228417D01*
X1182089Y3228361D01*
X1182810Y3227751D01*
X1183532Y3227307D01*
X1184253Y3226974D01*
X1184919Y3226752D01*
X1185530Y3226641D01*
X1186029Y3226530D01*
X1186362D01*
X1186418D01*
X1186473D01*
X1187361Y3226586D01*
X1188194Y3226807D01*
X1188915Y3227085D01*
X1189525Y3227418D01*
X1190025Y3227751D01*
X1190358Y3228028D01*
X1190636Y3228251D01*
X1190691Y3228306D01*
X1191246Y3228972D01*
X1191690Y3229749D01*
X1191967Y3230470D01*
X1192189Y3231192D01*
X1192301Y3231858D01*
X1192356Y3232358D01*
X1192411Y3232691D01*
Y3232802D01*
X1192356Y3233800D01*
X1192134Y3234689D01*
X1191857Y3235465D01*
X1191524Y3236131D01*
X1191246Y3236631D01*
X1190968Y3237019D01*
X1190746Y3237297D01*
X1190691Y3237352D01*
X1190025Y3237907D01*
X1189248Y3238352D01*
X1188526Y3238629D01*
X1187805Y3238851D01*
X1187195Y3238962D01*
X1186695Y3239017D01*
X1186362Y3239073D01*
D02*
G37*
G36*
X1204289Y3240627D02*
X1204066D01*
X1203956D01*
X1202790Y3240516D01*
X1201736Y3240294D01*
X1200792Y3239961D01*
X1199959Y3239517D01*
X1199349Y3239128D01*
X1198850Y3238796D01*
X1198572Y3238573D01*
X1198461Y3238463D01*
X1197739Y3237630D01*
X1197185Y3236686D01*
X1196796Y3235798D01*
X1196518Y3234910D01*
X1196352Y3234133D01*
X1196296Y3233523D01*
X1196241Y3233301D01*
Y3232968D01*
X1196352Y3231747D01*
X1196574Y3230637D01*
X1196963Y3229638D01*
X1197351Y3228805D01*
X1197795Y3228140D01*
X1198184Y3227640D01*
X1198406Y3227363D01*
X1198516Y3227251D01*
X1199405Y3226474D01*
X1200348Y3225919D01*
X1201292Y3225531D01*
X1202124Y3225253D01*
X1202957Y3225087D01*
X1203567Y3225032D01*
X1203789Y3224976D01*
X1203956D01*
X1204066D01*
X1204122D01*
X1205287Y3225087D01*
X1206398Y3225309D01*
X1207341Y3225698D01*
X1208118Y3226086D01*
X1208728Y3226474D01*
X1209228Y3226863D01*
X1209505Y3227085D01*
X1209617Y3227196D01*
X1210338Y3228084D01*
X1210893Y3228972D01*
X1211226Y3229916D01*
X1211504Y3230803D01*
X1211670Y3231581D01*
X1211726Y3232247D01*
X1211781Y3232468D01*
Y3232802D01*
X1211726Y3233579D01*
X1211614Y3234356D01*
X1211448Y3235077D01*
X1211282Y3235688D01*
X1211115Y3236187D01*
X1210948Y3236575D01*
X1210838Y3236798D01*
X1210782Y3236909D01*
X1210338Y3237575D01*
X1209894Y3238130D01*
X1209395Y3238629D01*
X1208895Y3239017D01*
X1208506Y3239351D01*
X1208174Y3239573D01*
X1207896Y3239684D01*
X1207841Y3239739D01*
X1207119Y3240017D01*
X1206453Y3240238D01*
X1205787Y3240405D01*
X1205177Y3240516D01*
X1204677Y3240572D01*
X1204289Y3240627D01*
D02*
G37*
G36*
X2105543Y609968D02*
X2105321D01*
X2105210D01*
X2105155D01*
X2103656Y609857D01*
X2102380Y609635D01*
X2101269Y609303D01*
X2100326Y608914D01*
X2099604Y608470D01*
X2099050Y608137D01*
X2098716Y607915D01*
X2098661Y607804D01*
X2098606D01*
X2098162Y607415D01*
X2097829Y606971D01*
X2097218Y606083D01*
X2096829Y605196D01*
X2096497Y604418D01*
X2096330Y603697D01*
X2096274Y603142D01*
X2096219Y602920D01*
Y602643D01*
X2096274Y601865D01*
X2096385Y601144D01*
X2096608Y600478D01*
X2096829Y599923D01*
X2096996Y599423D01*
X2097218Y599035D01*
X2097329Y598813D01*
X2097385Y598702D01*
X2097884Y598036D01*
X2098383Y597481D01*
X2098994Y596981D01*
X2099494Y596593D01*
X2099993Y596260D01*
X2100381Y596038D01*
X2100659Y595871D01*
X2100770Y595816D01*
X2101602Y595483D01*
X2102435Y595261D01*
X2103212Y595039D01*
X2103934Y594928D01*
X2104544Y594872D01*
X2105044Y594817D01*
X2105321D01*
X2105432D01*
X2106764Y594928D01*
X2107930Y595150D01*
X2108984Y595538D01*
X2109816Y595927D01*
X2110538Y596316D01*
X2111037Y596704D01*
X2111315Y596926D01*
X2111426Y597037D01*
X2112203Y597925D01*
X2112758Y598813D01*
X2113202Y599756D01*
X2113479Y600589D01*
X2113646Y601366D01*
X2113702Y601921D01*
X2113757Y602143D01*
Y602476D01*
X2113646Y603641D01*
X2113369Y604696D01*
X2113035Y605584D01*
X2112591Y606361D01*
X2112148Y606971D01*
X2111814Y607415D01*
X2111537Y607693D01*
X2111426Y607804D01*
X2110483Y608525D01*
X2109483Y609081D01*
X2108429Y609469D01*
X2107430Y609691D01*
X2106542Y609857D01*
X2106153Y609913D01*
X2105820D01*
X2105543Y609968D01*
D02*
G37*
G36*
X2120972Y548475D02*
X2120916D01*
X2120861D01*
X2120195Y548419D01*
X2119529Y548308D01*
X2118974Y548141D01*
X2118474Y547975D01*
X2118030Y547753D01*
X2117698Y547587D01*
X2117476Y547476D01*
X2117420Y547420D01*
X2116865Y547032D01*
X2116365Y546532D01*
X2115977Y546033D01*
X2115644Y545533D01*
X2115422Y545089D01*
X2115256Y544756D01*
X2115144Y544534D01*
X2115089Y544423D01*
X2114867Y543646D01*
X2114700Y542758D01*
X2114590Y541870D01*
X2114534Y540982D01*
X2114479Y540205D01*
X2114423Y539539D01*
Y528106D01*
X2127133D01*
Y540205D01*
X2127077Y541703D01*
X2126855Y542980D01*
X2126577Y544090D01*
X2126244Y544923D01*
X2125912Y545644D01*
X2125634Y546088D01*
X2125412Y546365D01*
X2125356Y546476D01*
X2124635Y547143D01*
X2123914Y547642D01*
X2123137Y547975D01*
X2122470Y548253D01*
X2121805Y548364D01*
X2121305Y548419D01*
X2120972Y548475D01*
D02*
G37*
G36*
X2104543Y703008D02*
X2104321D01*
X2104210D01*
X2104155D01*
X2102656Y702896D01*
X2101380Y702674D01*
X2100269Y702341D01*
X2099326Y701953D01*
X2098604Y701509D01*
X2098050Y701176D01*
X2097716Y700954D01*
X2097661Y700843D01*
X2097606D01*
X2097162Y700455D01*
X2096829Y700010D01*
X2096218Y699122D01*
X2095829Y698235D01*
X2095497Y697457D01*
X2095330Y696736D01*
X2095274Y696181D01*
X2095219Y695959D01*
Y695682D01*
X2095274Y694904D01*
X2095385Y694183D01*
X2095608Y693517D01*
X2095829Y692962D01*
X2095996Y692462D01*
X2096218Y692074D01*
X2096329Y691852D01*
X2096385Y691741D01*
X2096884Y691075D01*
X2097383Y690520D01*
X2097994Y690020D01*
X2098494Y689632D01*
X2098993Y689299D01*
X2099381Y689077D01*
X2099659Y688910D01*
X2099770Y688855D01*
X2100602Y688522D01*
X2101435Y688300D01*
X2102212Y688078D01*
X2102934Y687967D01*
X2103544Y687912D01*
X2104044Y687856D01*
X2104321D01*
X2104432D01*
X2105764Y687967D01*
X2106930Y688189D01*
X2107984Y688577D01*
X2108816Y688966D01*
X2109538Y689355D01*
X2110037Y689743D01*
X2110315Y689965D01*
X2110426Y690076D01*
X2111203Y690964D01*
X2111758Y691852D01*
X2112202Y692795D01*
X2112479Y693628D01*
X2112646Y694405D01*
X2112702Y694960D01*
X2112757Y695182D01*
Y695515D01*
X2112646Y696681D01*
X2112369Y697735D01*
X2112035Y698623D01*
X2111591Y699400D01*
X2111148Y700010D01*
X2110814Y700455D01*
X2110537Y700732D01*
X2110426Y700843D01*
X2109483Y701564D01*
X2108483Y702120D01*
X2107429Y702508D01*
X2106430Y702730D01*
X2105542Y702896D01*
X2105153Y702952D01*
X2104820D01*
X2104543Y703008D01*
D02*
G37*
G36*
X1734196Y584674D02*
X1733974D01*
X1733863D01*
X1733807D01*
X1732364Y584563D01*
X1731088Y584341D01*
X1730034Y584009D01*
X1729146Y583620D01*
X1728424Y583176D01*
X1727925Y582843D01*
X1727591Y582621D01*
X1727480Y582510D01*
X1726704Y581678D01*
X1726149Y580789D01*
X1725760Y579902D01*
X1725483Y579014D01*
X1725316Y578292D01*
X1725261Y577682D01*
X1725205Y577460D01*
Y577126D01*
X1725316Y575961D01*
X1725538Y574907D01*
X1725927Y573963D01*
X1726370Y573130D01*
X1726759Y572520D01*
X1727148Y572020D01*
X1727370Y571743D01*
X1727480Y571632D01*
X1728369Y570910D01*
X1729368Y570356D01*
X1730367Y570023D01*
X1731310Y569745D01*
X1732142Y569578D01*
X1732476Y569523D01*
X1732809D01*
X1733086Y569467D01*
X1733253D01*
X1733363D01*
X1733419D01*
X1734862Y569578D01*
X1736194Y569801D01*
X1737360Y570189D01*
X1738303Y570633D01*
X1739080Y571021D01*
X1739635Y571410D01*
X1739802Y571521D01*
X1739968Y571632D01*
X1740024Y571743D01*
X1740079D01*
X1740523Y572187D01*
X1740967Y572631D01*
X1741578Y573574D01*
X1742077Y574518D01*
X1742354Y575406D01*
X1742576Y576128D01*
X1742632Y576738D01*
X1742688Y576960D01*
Y577848D01*
X1742576Y578403D01*
X1742299Y579402D01*
X1741910Y580290D01*
X1741522Y581067D01*
X1741078Y581678D01*
X1740689Y582121D01*
X1740412Y582399D01*
X1740357Y582510D01*
X1740301D01*
X1739358Y583231D01*
X1738303Y583787D01*
X1737193Y584175D01*
X1736139Y584397D01*
X1735251Y584563D01*
X1734862Y584619D01*
X1734474D01*
X1734196Y584674D01*
D02*
G37*
G36*
X2272458Y3144364D02*
X2255253Y3132265D01*
X2272458D01*
Y3144364D01*
D02*
G37*
G36*
X1571963Y3133673D02*
X1571463D01*
X1571186D01*
X1571074D01*
X1569354Y3133618D01*
X1567800Y3133562D01*
X1566357Y3133452D01*
X1565025Y3133285D01*
X1563860Y3133119D01*
X1562805Y3132896D01*
X1561861Y3132675D01*
X1561029Y3132452D01*
X1560307Y3132231D01*
X1559697Y3132064D01*
X1559197Y3131842D01*
X1558754Y3131675D01*
X1558476Y3131509D01*
X1558254Y3131398D01*
X1558143Y3131287D01*
X1558088D01*
X1557588Y3130898D01*
X1557144Y3130510D01*
X1556811Y3130066D01*
X1556478Y3129622D01*
X1555978Y3128734D01*
X1555646Y3127901D01*
X1555479Y3127180D01*
X1555368Y3126570D01*
X1555312Y3126347D01*
Y3126015D01*
X1555368Y3125404D01*
X1555424Y3124794D01*
X1555590Y3124238D01*
X1555812Y3123739D01*
X1556312Y3122796D01*
X1556867Y3121963D01*
X1557477Y3121352D01*
X1557976Y3120853D01*
X1558198Y3120686D01*
X1558365Y3120575D01*
X1558420Y3120465D01*
X1558476D01*
X1559142Y3120076D01*
X1559919Y3119743D01*
X1560807Y3119410D01*
X1561751Y3119188D01*
X1562749Y3118966D01*
X1563804Y3118800D01*
X1565913Y3118522D01*
X1566967Y3118411D01*
X1567911Y3118356D01*
X1568799Y3118300D01*
X1569521D01*
X1570187Y3118244D01*
X1570686D01*
X1570964D01*
X1571019D01*
X1571074D01*
X1572795D01*
X1574349Y3118356D01*
X1575736Y3118466D01*
X1577069Y3118577D01*
X1578178Y3118744D01*
X1579233Y3118966D01*
X1580121Y3119188D01*
X1580954Y3119354D01*
X1581620Y3119577D01*
X1582175Y3119798D01*
X1582674Y3119965D01*
X1583062Y3120187D01*
X1583340Y3120298D01*
X1583506Y3120409D01*
X1583618Y3120520D01*
X1583673D01*
X1584228Y3120964D01*
X1584672Y3121408D01*
X1585116Y3121852D01*
X1585449Y3122296D01*
X1586004Y3123240D01*
X1586392Y3124072D01*
X1586614Y3124849D01*
X1586726Y3125404D01*
X1586781Y3125626D01*
Y3125959D01*
X1586726Y3126570D01*
X1586670Y3127124D01*
X1586282Y3128179D01*
X1585782Y3129122D01*
X1585227Y3129955D01*
X1584672Y3130566D01*
X1584172Y3131065D01*
X1583784Y3131343D01*
X1583728Y3131454D01*
X1583673D01*
X1583007Y3131842D01*
X1582230Y3132175D01*
X1581342Y3132508D01*
X1580399Y3132730D01*
X1579399Y3132952D01*
X1578345Y3133119D01*
X1576180Y3133396D01*
X1575181Y3133507D01*
X1574238Y3133562D01*
X1573350Y3133618D01*
X1572629D01*
X1571963Y3133673D01*
D02*
G37*
G36*
X1735971Y700509D02*
X1735638D01*
X1735582D01*
X1735527D01*
X1734639Y700453D01*
X1733806Y700231D01*
X1733085Y699954D01*
X1732475Y699621D01*
X1731975Y699288D01*
X1731642Y699010D01*
X1731364Y698788D01*
X1731309Y698733D01*
X1730754Y698067D01*
X1730310Y697290D01*
X1730033Y696568D01*
X1729811Y695847D01*
X1729699Y695181D01*
X1729644Y694682D01*
X1729589Y694348D01*
Y694237D01*
X1729644Y693239D01*
X1729866Y692351D01*
X1730143Y691573D01*
X1730476Y690908D01*
X1730754Y690408D01*
X1731032Y690019D01*
X1731254Y689742D01*
X1731309Y689687D01*
X1731975Y689131D01*
X1732752Y688688D01*
X1733474Y688410D01*
X1734195Y688188D01*
X1734805Y688077D01*
X1735305Y688021D01*
X1735638Y687966D01*
X1735694D01*
X1735749D01*
X1736637Y688021D01*
X1737414Y688244D01*
X1738136Y688521D01*
X1738746Y688854D01*
X1739245Y689131D01*
X1739634Y689409D01*
X1739856Y689631D01*
X1739911Y689687D01*
X1740522Y690408D01*
X1740966Y691130D01*
X1741244Y691907D01*
X1741466Y692628D01*
X1741576Y693294D01*
X1741688Y693793D01*
Y694237D01*
X1741632Y695181D01*
X1741410Y696069D01*
X1741132Y696790D01*
X1740800Y697457D01*
X1740466Y697956D01*
X1740189Y698345D01*
X1739967Y698622D01*
X1739911Y698678D01*
X1739190Y699288D01*
X1738468Y699732D01*
X1737747Y700065D01*
X1737081Y700287D01*
X1736470Y700398D01*
X1735971Y700509D01*
D02*
G37*
G36*
X1718211Y702063D02*
X1718044D01*
X1717934D01*
X1717878D01*
X1716713Y701952D01*
X1715602Y701730D01*
X1714659Y701341D01*
X1713882Y700953D01*
X1713272Y700564D01*
X1712772Y700176D01*
X1712495Y699954D01*
X1712383Y699843D01*
X1711662Y698955D01*
X1711107Y698067D01*
X1710774Y697124D01*
X1710496Y696236D01*
X1710330Y695458D01*
X1710274Y694793D01*
X1710219Y694571D01*
Y694237D01*
X1710274Y693461D01*
X1710386Y692683D01*
X1710552Y691962D01*
X1710718Y691351D01*
X1710885Y690852D01*
X1711052Y690463D01*
X1711162Y690241D01*
X1711218Y690130D01*
X1711662Y689465D01*
X1712106Y688909D01*
X1712605Y688410D01*
X1713105Y688021D01*
X1713494Y687688D01*
X1713826Y687466D01*
X1714104Y687356D01*
X1714159Y687300D01*
X1714881Y687023D01*
X1715547Y686801D01*
X1716213Y686634D01*
X1716823Y686523D01*
X1717323Y686467D01*
X1717711Y686412D01*
X1717934D01*
X1718044D01*
X1719210Y686523D01*
X1720264Y686745D01*
X1721208Y687078D01*
X1722041Y687522D01*
X1722651Y687910D01*
X1723150Y688244D01*
X1723428Y688466D01*
X1723539Y688577D01*
X1724261Y689409D01*
X1724815Y690352D01*
X1725204Y691240D01*
X1725482Y692129D01*
X1725648Y692905D01*
X1725704Y693516D01*
X1725759Y693738D01*
Y694071D01*
X1725648Y695292D01*
X1725426Y696402D01*
X1725037Y697401D01*
X1724649Y698234D01*
X1724205Y698899D01*
X1723816Y699399D01*
X1723594Y699677D01*
X1723484Y699788D01*
X1722595Y700564D01*
X1721652Y701120D01*
X1720708Y701508D01*
X1719876Y701785D01*
X1719043Y701952D01*
X1718433Y702008D01*
X1718211Y702063D01*
D02*
G37*
G36*
X3619160Y4006747D02*
Y3989542D01*
X3631259D01*
X3619160Y4006747D01*
D02*
G37*
G36*
X1950935Y4010688D02*
X1950047D01*
X1949492Y4010577D01*
X1948493Y4010299D01*
X1947605Y4009910D01*
X1946828Y4009522D01*
X1946217Y4009078D01*
X1945774Y4008689D01*
X1945496Y4008412D01*
X1945385Y4008356D01*
Y4008301D01*
X1944664Y4007358D01*
X1944109Y4006303D01*
X1943720Y4005193D01*
X1943498Y4004139D01*
X1943332Y4003251D01*
X1943276Y4002862D01*
Y4002474D01*
X1943220Y4002196D01*
Y4001974D01*
Y4001863D01*
Y4001807D01*
X1943332Y4000365D01*
X1943553Y3999088D01*
X1943887Y3998034D01*
X1944275Y3997146D01*
X1944719Y3996424D01*
X1945052Y3995925D01*
X1945274Y3995591D01*
X1945385Y3995481D01*
X1946217Y3994704D01*
X1947105Y3994148D01*
X1947994Y3993760D01*
X1948881Y3993483D01*
X1949603Y3993316D01*
X1950214Y3993260D01*
X1950436Y3993205D01*
X1950768D01*
X1951934Y3993316D01*
X1952988Y3993538D01*
X1953932Y3993927D01*
X1954764Y3994370D01*
X1955375Y3994759D01*
X1955874Y3995148D01*
X1956152Y3995369D01*
X1956263Y3995481D01*
X1956985Y3996369D01*
X1957540Y3997367D01*
X1957872Y3998367D01*
X1958150Y3999310D01*
X1958316Y4000142D01*
X1958372Y4000476D01*
Y4000809D01*
X1958428Y4001086D01*
Y4001253D01*
Y4001363D01*
Y4001419D01*
X1958316Y4002862D01*
X1958094Y4004194D01*
X1957706Y4005360D01*
X1957262Y4006303D01*
X1956873Y4007080D01*
X1956485Y4007635D01*
X1956374Y4007802D01*
X1956263Y4007968D01*
X1956152Y4008023D01*
Y4008079D01*
X1955708Y4008523D01*
X1955264Y4008967D01*
X1954321Y4009577D01*
X1953377Y4010077D01*
X1952489Y4010354D01*
X1951767Y4010577D01*
X1951157Y4010632D01*
X1950935Y4010688D01*
D02*
G37*
G36*
X2285102D02*
X2284657D01*
X2283714Y4010632D01*
X2282826Y4010410D01*
X2282104Y4010133D01*
X2281439Y4009800D01*
X2280939Y4009466D01*
X2280550Y4009189D01*
X2280273Y4008967D01*
X2280218Y4008912D01*
X2279607Y4008190D01*
X2279163Y4007468D01*
X2278830Y4006747D01*
X2278608Y4006081D01*
X2278497Y4005470D01*
X2278386Y4004971D01*
Y4004638D01*
Y4004582D01*
Y4004527D01*
X2278441Y4003639D01*
X2278664Y4002807D01*
X2278941Y4002085D01*
X2279274Y4001474D01*
X2279607Y4000975D01*
X2279885Y4000642D01*
X2280106Y4000365D01*
X2280162Y4000309D01*
X2280828Y3999754D01*
X2281605Y3999310D01*
X2282327Y3999032D01*
X2283048Y3998811D01*
X2283714Y3998700D01*
X2284213Y3998644D01*
X2284546Y3998588D01*
X2284657D01*
X2285657Y3998644D01*
X2286544Y3998866D01*
X2287322Y3999144D01*
X2287988Y3999477D01*
X2288487Y3999754D01*
X2288876Y4000032D01*
X2289153Y4000253D01*
X2289209Y4000309D01*
X2289764Y4000975D01*
X2290207Y4001752D01*
X2290485Y4002474D01*
X2290707Y4003195D01*
X2290818Y4003805D01*
X2290874Y4004305D01*
X2290929Y4004638D01*
Y4004693D01*
Y4004749D01*
X2290874Y4005637D01*
X2290651Y4006414D01*
X2290374Y4007135D01*
X2290041Y4007746D01*
X2289764Y4008245D01*
X2289486Y4008634D01*
X2289264Y4008856D01*
X2289209Y4008912D01*
X2288487Y4009522D01*
X2287765Y4009966D01*
X2286988Y4010244D01*
X2286267Y4010465D01*
X2285601Y4010577D01*
X2285102Y4010688D01*
D02*
G37*
G36*
X2285157Y3994759D02*
X2284824D01*
X2283603Y3994648D01*
X2282493Y3994426D01*
X2281494Y3994037D01*
X2280662Y3993649D01*
X2279995Y3993205D01*
X2279496Y3992816D01*
X2279218Y3992595D01*
X2279108Y3992483D01*
X2278331Y3991595D01*
X2277776Y3990652D01*
X2277387Y3989709D01*
X2277110Y3988876D01*
X2276943Y3988044D01*
X2276887Y3987433D01*
X2276832Y3987211D01*
Y3987044D01*
Y3986934D01*
Y3986878D01*
X2276943Y3985713D01*
X2277165Y3984602D01*
X2277553Y3983659D01*
X2277942Y3982882D01*
X2278331Y3982271D01*
X2278719Y3981772D01*
X2278941Y3981494D01*
X2279052Y3981383D01*
X2279940Y3980662D01*
X2280828Y3980107D01*
X2281771Y3979774D01*
X2282660Y3979497D01*
X2283436Y3979330D01*
X2284102Y3979274D01*
X2284325Y3979219D01*
X2284657D01*
X2285434Y3979274D01*
X2286211Y3979385D01*
X2286933Y3979552D01*
X2287544Y3979718D01*
X2288043Y3979885D01*
X2288432Y3980052D01*
X2288653Y3980162D01*
X2288765Y3980218D01*
X2289430Y3980662D01*
X2289985Y3981106D01*
X2290485Y3981606D01*
X2290874Y3982105D01*
X2291206Y3982494D01*
X2291428Y3982827D01*
X2291539Y3983104D01*
X2291595Y3983160D01*
X2291872Y3983881D01*
X2292095Y3984547D01*
X2292261Y3985213D01*
X2292372Y3985823D01*
X2292427Y3986323D01*
X2292483Y3986711D01*
Y3986934D01*
Y3987044D01*
X2292372Y3988210D01*
X2292150Y3989265D01*
X2291817Y3990208D01*
X2291373Y3991041D01*
X2290985Y3991651D01*
X2290651Y3992151D01*
X2290430Y3992428D01*
X2290318Y3992539D01*
X2289486Y3993260D01*
X2288543Y3993816D01*
X2287655Y3994204D01*
X2286767Y3994481D01*
X2285990Y3994648D01*
X2285379Y3994704D01*
X2285157Y3994759D01*
D02*
G37*
G36*
X2953713Y3996757D02*
X2953380D01*
X2952215Y3996646D01*
X2951160Y3996369D01*
X2950272Y3996035D01*
X2949495Y3995591D01*
X2948885Y3995148D01*
X2948441Y3994814D01*
X2948163Y3994537D01*
X2948052Y3994426D01*
X2947331Y3993483D01*
X2946776Y3992483D01*
X2946387Y3991429D01*
X2946165Y3990430D01*
X2945999Y3989542D01*
X2945943Y3989153D01*
Y3988820D01*
X2945887Y3988543D01*
Y3988321D01*
Y3988210D01*
Y3988155D01*
X2945999Y3986656D01*
X2946220Y3985380D01*
X2946553Y3984269D01*
X2946942Y3983326D01*
X2947386Y3982604D01*
X2947719Y3982050D01*
X2947941Y3981716D01*
X2948052Y3981661D01*
Y3981606D01*
X2948441Y3981162D01*
X2948885Y3980829D01*
X2949773Y3980218D01*
X2950660Y3979829D01*
X2951438Y3979497D01*
X2952159Y3979330D01*
X2952714Y3979274D01*
X2952936Y3979219D01*
X2953213D01*
X2953990Y3979274D01*
X2954712Y3979385D01*
X2955378Y3979608D01*
X2955933Y3979829D01*
X2956432Y3979996D01*
X2956821Y3980218D01*
X2957043Y3980329D01*
X2957154Y3980385D01*
X2957820Y3980884D01*
X2958375Y3981383D01*
X2958874Y3981994D01*
X2959263Y3982494D01*
X2959596Y3982993D01*
X2959818Y3983381D01*
X2959985Y3983659D01*
X2960040Y3983770D01*
X2960373Y3984602D01*
X2960595Y3985435D01*
X2960817Y3986212D01*
X2960928Y3986934D01*
X2960983Y3987544D01*
X2961039Y3988044D01*
Y3988321D01*
Y3988432D01*
X2960928Y3989764D01*
X2960706Y3990930D01*
X2960318Y3991984D01*
X2959929Y3992816D01*
X2959541Y3993538D01*
X2959152Y3994037D01*
X2958930Y3994315D01*
X2958819Y3994426D01*
X2957931Y3995203D01*
X2957043Y3995758D01*
X2956099Y3996202D01*
X2955267Y3996479D01*
X2954490Y3996646D01*
X2953935Y3996702D01*
X2953713Y3996757D01*
D02*
G37*
G36*
X1587243Y4010688D02*
X1586909D01*
X1586299Y4010632D01*
X1585688Y4010577D01*
X1585133Y4010410D01*
X1584634Y4010188D01*
X1583690Y4009689D01*
X1582858Y4009133D01*
X1582247Y4008523D01*
X1581748Y4008023D01*
X1581582Y4007802D01*
X1581470Y4007635D01*
X1581360Y4007579D01*
Y4007524D01*
X1580971Y4006858D01*
X1580638Y4006081D01*
X1580305Y4005193D01*
X1580083Y4004249D01*
X1579861Y4003251D01*
X1579695Y4002196D01*
X1579417Y4000087D01*
X1579306Y3999032D01*
X1579251Y3998089D01*
X1579195Y3997201D01*
Y3996479D01*
X1579139Y3995814D01*
Y3995314D01*
Y3995037D01*
Y3994981D01*
Y3994925D01*
Y3993205D01*
X1579251Y3991651D01*
X1579361Y3990264D01*
X1579473Y3988932D01*
X1579639Y3987822D01*
X1579861Y3986767D01*
X1580083Y3985879D01*
X1580249Y3985046D01*
X1580472Y3984381D01*
X1580694Y3983825D01*
X1580860Y3983326D01*
X1581082Y3982938D01*
X1581193Y3982660D01*
X1581304Y3982494D01*
X1581415Y3982383D01*
Y3982327D01*
X1581859Y3981772D01*
X1582303Y3981328D01*
X1582747Y3980884D01*
X1583191Y3980551D01*
X1584134Y3979996D01*
X1584967Y3979608D01*
X1585744Y3979385D01*
X1586299Y3979274D01*
X1586521Y3979219D01*
X1586854D01*
X1587465Y3979274D01*
X1588020Y3979330D01*
X1589074Y3979718D01*
X1590017Y3980218D01*
X1590850Y3980773D01*
X1591460Y3981328D01*
X1591960Y3981827D01*
X1592237Y3982216D01*
X1592349Y3982271D01*
Y3982327D01*
X1592737Y3982993D01*
X1593070Y3983770D01*
X1593403Y3984658D01*
X1593625Y3985602D01*
X1593847Y3986601D01*
X1594014Y3987655D01*
X1594291Y3989820D01*
X1594402Y3990818D01*
X1594457Y3991762D01*
X1594513Y3992650D01*
Y3993372D01*
X1594569Y3994037D01*
Y3994537D01*
Y3994814D01*
Y3994925D01*
X1594513Y3996646D01*
X1594457Y3998200D01*
X1594347Y3999643D01*
X1594180Y4000975D01*
X1594014Y4002140D01*
X1593792Y4003195D01*
X1593570Y4004139D01*
X1593348Y4004971D01*
X1593126Y4005693D01*
X1592959Y4006303D01*
X1592737Y4006802D01*
X1592571Y4007247D01*
X1592404Y4007524D01*
X1592293Y4007746D01*
X1592182Y4007857D01*
Y4007912D01*
X1591793Y4008412D01*
X1591405Y4008856D01*
X1590961Y4009189D01*
X1590517Y4009522D01*
X1589629Y4010021D01*
X1588796Y4010354D01*
X1588075Y4010521D01*
X1587465Y4010632D01*
X1587243Y4010688D01*
D02*
G37*
%LPD*%
D34*
X1964882Y646803D02*
G03*
X1964882Y646803I-4921J0D01*
G01*
X2698142Y3173197D02*
G03*
X2698142Y3173197I-4921J0D01*
G01*
X2038551Y3178197D02*
G03*
X2038551Y3178197I-4921J0D01*
G01*
X1343551Y3182197D02*
G03*
X1343551Y3182197I-4921J0D01*
G01*
X1217244Y3800922D02*
G03*
X1217244Y3800922I-4921J0D01*
G01*
X882953Y3800922D02*
G03*
X882953Y3800922I-4921J0D01*
G01*
X1551534Y3800922D02*
G03*
X1551534Y3800922I-4921J0D01*
G01*
X3222988Y3800922D02*
G03*
X3222988Y3800922I-4921J0D01*
G01*
X2888697D02*
G03*
X2888697Y3800922I-4921J0D01*
G01*
X2554406Y3800922D02*
G03*
X2554406Y3800922I-4921J0D01*
G01*
X2220116D02*
G03*
X2220116Y3800922I-4921J0D01*
G01*
X1885825D02*
G03*
X1885825Y3800922I-4921J0D01*
G01*
X4225859Y3800922D02*
G03*
X4225859Y3800922I-4921J0D01*
G01*
X3891569D02*
G03*
X3891569Y3800922I-4921J0D01*
G01*
X3557278D02*
G03*
X3557278Y3800922I-4921J0D01*
G01*
D35*
X1805904Y399000D02*
X1829904Y423000D01*
X1717904Y399000D02*
X1805904D01*
X1690904Y426000D02*
X1717904Y399000D01*
X1690904Y426000D02*
Y709000D01*
X1706904Y725000D01*
X1869904D01*
Y644000D02*
Y725000D01*
X1829904Y604000D02*
X1869904Y644000D01*
X1829904Y423000D02*
Y604000D01*
X1850904Y444000D02*
Y590000D01*
Y444000D02*
X1895904Y399000D01*
X2103904D01*
X2141904Y437000D01*
Y709000D01*
X2127360Y723543D02*
X2141904Y709000D01*
X1976447Y723543D02*
X2127360D01*
X1850904Y598000D02*
X1976447Y723543D01*
X1850904Y590000D02*
Y598000D01*
X1470000Y3404000D02*
X1494000Y3428000D01*
X1582000D01*
X1609000Y3401000D01*
Y3118000D02*
Y3401000D01*
X1593000Y3102000D02*
X1609000Y3118000D01*
X1430000Y3102000D02*
X1593000D01*
X1430000D02*
Y3183000D01*
X1470000Y3223000D01*
Y3404000D01*
X1449000Y3237000D02*
Y3383000D01*
X1404000Y3428000D02*
X1449000Y3383000D01*
X1196000Y3428000D02*
X1404000D01*
X1158000Y3390000D02*
X1196000Y3428000D01*
X1158000Y3118000D02*
Y3390000D01*
Y3118000D02*
X1172543Y3103457D01*
X1323457D01*
X1449000Y3229000D01*
Y3237000D01*
X2165000Y3401000D02*
X2189000Y3425000D01*
X2277000D01*
X2304000Y3398000D01*
Y3115000D02*
Y3398000D01*
X2288000Y3099000D02*
X2304000Y3115000D01*
X2125000Y3099000D02*
X2288000D01*
X2125000D02*
Y3180000D01*
X2165000Y3220000D01*
Y3401000D01*
X2144000Y3234000D02*
Y3380000D01*
X2099000Y3425000D02*
X2144000Y3380000D01*
X1891000Y3425000D02*
X2099000D01*
X1853000Y3387000D02*
X1891000Y3425000D01*
X1853000Y3115000D02*
Y3387000D01*
Y3115000D02*
X1867543Y3100457D01*
X2018457D01*
X2144000Y3226000D01*
Y3234000D01*
X2823000Y3396000D02*
X2847000Y3420000D01*
X2935000D01*
X2962000Y3393000D01*
Y3110000D02*
Y3393000D01*
X2946000Y3094000D02*
X2962000Y3110000D01*
X2783000Y3094000D02*
X2946000D01*
X2783000D02*
Y3175000D01*
X2823000Y3215000D01*
Y3396000D01*
X2802000Y3229000D02*
Y3375000D01*
X2757000Y3420000D02*
X2802000Y3375000D01*
X2549000Y3420000D02*
X2757000D01*
X2511000Y3382000D02*
X2549000Y3420000D01*
X2511000Y3110000D02*
Y3382000D01*
Y3110000D02*
X2525543Y3095457D01*
X2676457D01*
X2802000Y3221000D01*
Y3229000D01*
X2101000Y491981D02*
Y432000D01*
X2061013D01*
X2031023D02*
X2011029D01*
X2001032Y441997D01*
Y461990D01*
X2011029Y471987D01*
X2031023D01*
X2041019Y461990D01*
Y441997D01*
X2031023Y432000D01*
X1798000Y489981D02*
Y430000D01*
Y459990D01*
X1758013D01*
Y489981D01*
Y430000D01*
X1738019D02*
X1718026D01*
X1728023D01*
Y469987D01*
X1738019D01*
X1300000Y3407981D02*
Y3348000D01*
X1260013D01*
X1230023D02*
X1210029D01*
X1200032Y3357997D01*
Y3377990D01*
X1210029Y3387987D01*
X1230023D01*
X1240019Y3377990D01*
Y3357997D01*
X1230023Y3348000D01*
X1576000Y3398981D02*
Y3339000D01*
Y3368990D01*
X1536013D01*
Y3398981D01*
Y3339000D01*
X1516019D02*
X1496026D01*
X1506023D01*
Y3378987D01*
X1516019D01*
X1995000Y3404981D02*
Y3345000D01*
X1955013D01*
X1925023D02*
X1905029D01*
X1895032Y3354997D01*
Y3374990D01*
X1905029Y3384987D01*
X1925023D01*
X1935019Y3374990D01*
Y3354997D01*
X1925023Y3345000D01*
X2271000Y3395981D02*
Y3336000D01*
Y3365990D01*
X2231013D01*
Y3395981D01*
Y3336000D01*
X2211019D02*
X2191026D01*
X2201023D01*
Y3375987D01*
X2211019D01*
X2653000Y3399981D02*
Y3340000D01*
X2613013D01*
X2583023D02*
X2563029D01*
X2553032Y3349997D01*
Y3369990D01*
X2563029Y3379987D01*
X2583023D01*
X2593019Y3369990D01*
Y3349997D01*
X2583023Y3340000D01*
X2929000Y3390981D02*
Y3331000D01*
Y3360990D01*
X2889013D01*
Y3390981D01*
Y3331000D01*
X2869019D02*
X2849026D01*
X2859023D01*
Y3370987D01*
X2869019D01*
D36*
X1893032Y631055D02*
X1932402D01*
X1893032Y603496D02*
Y631055D01*
Y512945D02*
X1932402D01*
X1893032D02*
Y540504D01*
X2720780Y3188945D02*
X2760149D01*
Y3216504D01*
X2720780Y3307055D02*
X2760149D01*
Y3279496D02*
Y3307055D01*
X2061189Y3193945D02*
X2100559D01*
Y3221504D01*
X2061189Y3312055D02*
X2100559D01*
Y3284496D02*
Y3312055D01*
X1366189Y3197945D02*
X1405559D01*
Y3225504D01*
X1366189Y3316055D02*
X1405559D01*
Y3288496D02*
Y3316055D01*
X1279252Y3907221D02*
Y3934780D01*
X1239882D02*
X1279252D01*
Y3816670D02*
Y3844229D01*
X1239882Y3816670D02*
X1279252D01*
X944961Y3907221D02*
Y3934780D01*
X905591D02*
X944961D01*
Y3816670D02*
Y3844229D01*
X905591Y3816670D02*
X944961D01*
X1613542Y3907221D02*
Y3934780D01*
X1574172D02*
X1613542D01*
Y3816670D02*
Y3844229D01*
X1574172Y3816670D02*
X1613542D01*
X3284995Y3907221D02*
Y3934780D01*
X3245625D02*
X3284995D01*
Y3816670D02*
Y3844229D01*
X3245625Y3816670D02*
X3284995D01*
X2950705Y3907221D02*
Y3934780D01*
X2911335D02*
X2950705D01*
Y3816670D02*
Y3844229D01*
X2911335Y3816670D02*
X2950705D01*
X2616414Y3907221D02*
Y3934780D01*
X2577044D02*
X2616414D01*
Y3816670D02*
Y3844229D01*
X2577044Y3816670D02*
X2616414D01*
X2282124Y3907221D02*
Y3934780D01*
X2242753D02*
X2282124D01*
Y3816670D02*
Y3844229D01*
X2242753Y3816670D02*
X2282124D01*
X1947833Y3907221D02*
Y3934780D01*
X1908463D02*
X1947833D01*
Y3816670D02*
Y3844229D01*
X1908463Y3816670D02*
X1947833D01*
X4287867Y3907221D02*
Y3934780D01*
X4248497D02*
X4287867D01*
Y3816670D02*
Y3844229D01*
X4248497Y3816670D02*
X4287867D01*
X3953577Y3907221D02*
Y3934780D01*
X3914206D02*
X3953577D01*
Y3816670D02*
Y3844229D01*
X3914206Y3816670D02*
X3953577D01*
X3619286Y3907221D02*
Y3934780D01*
X3579916D02*
X3619286D01*
Y3816670D02*
Y3844229D01*
X3579916Y3816670D02*
X3619286D01*
D37*
X2847590Y3112441D02*
Y3167559D01*
X2897590Y3160000D02*
Y3167559D01*
X2797590D02*
X2897590D01*
X2797590Y3160000D02*
Y3167559D01*
Y3112441D02*
Y3120000D01*
Y3112441D02*
X2897590D01*
Y3120000D01*
X2841622Y3253000D02*
X2896740D01*
X2889181Y3203000D02*
X2896740D01*
Y3303000D01*
X2889181D02*
X2896740D01*
X2841622D02*
X2849181D01*
X2841622Y3203000D02*
Y3303000D01*
Y3203000D02*
X2849181D01*
X2621590Y3112441D02*
Y3167559D01*
X2671590Y3160000D02*
Y3167559D01*
X2571590D02*
X2671590D01*
X2571590Y3160000D02*
Y3167559D01*
Y3112441D02*
Y3120000D01*
Y3112441D02*
X2671590D01*
Y3120000D01*
X2569748Y3243000D02*
X2640614D01*
X2569748Y3309929D02*
X2577622D01*
X2569748Y3176071D02*
Y3309929D01*
Y3176071D02*
X2577622D01*
X2632740Y3309929D02*
X2640614D01*
Y3176071D02*
Y3309929D01*
X2632740Y3176071D02*
X2640614D01*
X1493000Y3121441D02*
Y3176559D01*
X1543000Y3169000D02*
Y3176559D01*
X1443000D02*
X1543000D01*
X1443000Y3169000D02*
Y3176559D01*
Y3121441D02*
Y3129000D01*
Y3121441D02*
X1543000D01*
Y3129000D01*
X1487031Y3262000D02*
X1542150D01*
X1534591Y3212000D02*
X1542150D01*
Y3312000D01*
X1534591D02*
X1542150D01*
X1487031D02*
X1494591D01*
X1487031Y3212000D02*
Y3312000D01*
Y3212000D02*
X1494591D01*
X1267000Y3121441D02*
Y3176559D01*
X1317000Y3169000D02*
Y3176559D01*
X1217000D02*
X1317000D01*
X1217000Y3169000D02*
Y3176559D01*
Y3121441D02*
Y3129000D01*
Y3121441D02*
X1317000D01*
Y3129000D01*
X1221567Y3255000D02*
X1292433D01*
X1284559Y3188071D02*
X1292433D01*
Y3321929D01*
X1284559D02*
X1292433D01*
X1221567Y3188071D02*
X1229441D01*
X1221567D02*
Y3321929D01*
X1229441D01*
X2188000Y3117441D02*
Y3172559D01*
X2238000Y3165000D02*
Y3172559D01*
X2138000D02*
X2238000D01*
X2138000Y3165000D02*
Y3172559D01*
Y3117441D02*
Y3125000D01*
Y3117441D02*
X2238000D01*
Y3125000D01*
X2182031Y3258000D02*
X2237150D01*
X2229590Y3208000D02*
X2237150D01*
Y3308000D01*
X2229590D02*
X2237150D01*
X2182031D02*
X2189590D01*
X2182031Y3208000D02*
Y3308000D01*
Y3208000D02*
X2189590D01*
X1962000Y3117441D02*
Y3172559D01*
X2012000Y3165000D02*
Y3172559D01*
X1912000D02*
X2012000D01*
X1912000Y3165000D02*
Y3172559D01*
Y3117441D02*
Y3125000D01*
Y3117441D02*
X2012000D01*
Y3125000D01*
X1910157Y3248000D02*
X1981024D01*
X1910157Y3314929D02*
X1918031D01*
X1910157Y3181071D02*
Y3314929D01*
Y3181071D02*
X1918031D01*
X1973150Y3314929D02*
X1981024D01*
Y3181071D02*
Y3314929D01*
X1973150Y3181071D02*
X1981024D01*
X1756441Y567000D02*
X1811559D01*
X1756441Y617000D02*
X1764000D01*
X1756441Y517000D02*
Y617000D01*
Y517000D02*
X1764000D01*
X1804000D02*
X1811559D01*
Y617000D01*
X1804000D02*
X1811559D01*
X1805591Y652441D02*
Y707559D01*
X1755591Y652441D02*
Y660000D01*
Y652441D02*
X1855591D01*
Y660000D01*
Y700000D02*
Y707559D01*
X1755591D02*
X1855591D01*
X1755591Y700000D02*
Y707559D01*
X2031591Y652441D02*
Y707559D01*
X1981591Y652441D02*
Y660000D01*
Y652441D02*
X2081591D01*
Y660000D01*
Y700000D02*
Y707559D01*
X1981591D02*
X2081591D01*
X1981591Y700000D02*
Y707559D01*
X2012567Y577000D02*
X2083433D01*
X2075559Y510071D02*
X2083433D01*
Y643929D01*
X2075559D02*
X2083433D01*
X2012567Y510071D02*
X2020441D01*
X2012567D02*
Y643929D01*
X2020441D01*
D38*
X4904000Y1154838D02*
Y1094858D01*
Y1114851D01*
X4864013Y1154838D01*
X4894003Y1124848D01*
X4864013Y1094858D01*
X4814029D02*
X4834023D01*
X4844019Y1104854D01*
Y1124848D01*
X4834023Y1134845D01*
X4814029D01*
X4804032Y1124848D01*
Y1114851D01*
X4844019D01*
X4784039Y1134845D02*
Y1104854D01*
X4774042Y1094858D01*
X4744052D01*
Y1084861D01*
X4754048Y1074864D01*
X4764045D01*
X4744052Y1094858D02*
Y1134845D01*
X4724058D02*
X4714061D01*
Y1124848D01*
X4724058D01*
Y1134845D01*
Y1104854D02*
X4714061D01*
Y1094858D01*
X4724058D01*
Y1104854D01*
X4904000Y1043668D02*
Y983687D01*
Y1013678D01*
X4864013D01*
Y1043668D01*
Y983687D01*
X4844019D02*
X4824026D01*
X4834023D01*
Y1023674D01*
X4844019D01*
X4734055Y1013678D02*
X4694068D01*
X4574107Y1043668D02*
X4614094D01*
Y1013678D01*
X4594100D01*
X4614094D01*
Y983687D01*
X4544116D02*
X4524123D01*
X4514126Y993684D01*
Y1013678D01*
X4524123Y1023674D01*
X4544116D01*
X4554113Y1013678D01*
Y993684D01*
X4544116Y983687D01*
X4494133Y1023674D02*
Y983687D01*
Y1003681D01*
X4484136Y1013678D01*
X4474139Y1023674D01*
X4464142D01*
X4374171Y1043668D02*
Y983687D01*
Y1013678D01*
X4364175Y1023674D01*
X4344181D01*
X4334184Y1013678D01*
Y983687D01*
X4314191D02*
X4294197D01*
X4304194D01*
Y1023674D01*
X4314191D01*
X4244213Y963694D02*
X4234217D01*
X4224220Y973691D01*
Y1023674D01*
X4254210D01*
X4264207Y1013678D01*
Y993684D01*
X4254210Y983687D01*
X4224220D01*
X4204226Y1043668D02*
Y983687D01*
Y1013678D01*
X4194230Y1023674D01*
X4174236D01*
X4164239Y1013678D01*
Y983687D01*
X4084265D02*
X4054275D01*
X4044278Y993684D01*
X4054275Y1003681D01*
X4074268D01*
X4084265Y1013678D01*
X4074268Y1023674D01*
X4044278D01*
X4024285Y983687D02*
X4004291D01*
X4014288D01*
Y1023674D01*
X4024285D01*
X3934314Y1043668D02*
Y983687D01*
X3964304D01*
X3974301Y993684D01*
Y1013678D01*
X3964304Y1023674D01*
X3934314D01*
X3884330Y983687D02*
X3904323D01*
X3914320Y993684D01*
Y1013678D01*
X3904323Y1023674D01*
X3884330D01*
X3874333Y1013678D01*
Y1003681D01*
X3914320D01*
X3754372Y1043668D02*
Y983687D01*
X3784362D01*
X3794359Y993684D01*
Y1013678D01*
X3784362Y1023674D01*
X3754372D01*
X3734378D02*
Y983687D01*
Y1003681D01*
X3724382Y1013678D01*
X3714385Y1023674D01*
X3704388D01*
X3674398Y983687D02*
X3654404D01*
X3664401D01*
Y1023674D01*
X3674398D01*
X3624414D02*
X3604421Y983687D01*
X3584427Y1023674D01*
X3534443Y983687D02*
X3554437D01*
X3564433Y993684D01*
Y1013678D01*
X3554437Y1023674D01*
X3534443D01*
X3524446Y1013678D01*
Y1003681D01*
X3564433D01*
X3504453Y983687D02*
Y1023674D01*
X3474463D01*
X3464466Y1013678D01*
Y983687D01*
X3364498D02*
X3384492Y1003681D01*
Y1023674D01*
X3364498Y1043668D01*
X3294521Y1033671D02*
X3304517Y1043668D01*
X3324511D01*
X3334508Y1033671D01*
Y993684D01*
X3324511Y983687D01*
X3304517D01*
X3294521Y993684D01*
X3274527Y1013678D02*
X3234540D01*
X3174559Y1033671D02*
X3184556Y1043668D01*
X3204550D01*
X3214547Y1033671D01*
Y993684D01*
X3204550Y983687D01*
X3184556D01*
X3174559Y993684D01*
X3144569Y1023674D02*
X3124576D01*
X3114579Y1013678D01*
Y983687D01*
X3144569D01*
X3154566Y993684D01*
X3144569Y1003681D01*
X3114579D01*
X3094585Y1023674D02*
Y983687D01*
Y1003681D01*
X3084589Y1013678D01*
X3074592Y1023674D01*
X3064595D01*
X3034605Y983687D02*
X3014611Y1003681D01*
Y1023674D01*
X3034605Y1043668D01*
X4904000Y932498D02*
Y872517D01*
X4864013D01*
X4834023D02*
X4814029D01*
X4804032Y882514D01*
Y902507D01*
X4814029Y912504D01*
X4834023D01*
X4844019Y902507D01*
Y882514D01*
X4834023Y872517D01*
X4724058Y902507D02*
X4684071D01*
X4564110Y932498D02*
X4604097D01*
Y902507D01*
X4584104D01*
X4604097D01*
Y872517D01*
X4534120D02*
X4514126D01*
X4504129Y882514D01*
Y902507D01*
X4514126Y912504D01*
X4534120D01*
X4544116Y902507D01*
Y882514D01*
X4534120Y872517D01*
X4484136Y912504D02*
Y872517D01*
Y892511D01*
X4474139Y902507D01*
X4464142Y912504D01*
X4454145D01*
X4364175Y872517D02*
X4344181D01*
X4354178D01*
Y932498D01*
X4364175D01*
X4304194Y872517D02*
X4284200D01*
X4274204Y882514D01*
Y902507D01*
X4284200Y912504D01*
X4304194D01*
X4314191Y902507D01*
Y882514D01*
X4304194Y872517D01*
X4254210Y912504D02*
Y882514D01*
X4244213Y872517D01*
X4234217Y882514D01*
X4224220Y872517D01*
X4214223Y882514D01*
Y912504D01*
X4134249Y872517D02*
X4104259D01*
X4094262Y882514D01*
X4104259Y892511D01*
X4124252D01*
X4134249Y902507D01*
X4124252Y912504D01*
X4094262D01*
X4074268Y872517D02*
X4054275D01*
X4064272D01*
Y912504D01*
X4074268D01*
X3984298Y932498D02*
Y872517D01*
X4014288D01*
X4024285Y882514D01*
Y902507D01*
X4014288Y912504D01*
X3984298D01*
X3934314Y872517D02*
X3954307D01*
X3964304Y882514D01*
Y902507D01*
X3954307Y912504D01*
X3934314D01*
X3924317Y902507D01*
Y892511D01*
X3964304D01*
X3804356Y932498D02*
Y872517D01*
X3834346D01*
X3844343Y882514D01*
Y902507D01*
X3834346Y912504D01*
X3804356D01*
X3784362D02*
Y872517D01*
Y892511D01*
X3774365Y902507D01*
X3764369Y912504D01*
X3754372D01*
X3724382Y872517D02*
X3704388D01*
X3714385D01*
Y912504D01*
X3724382D01*
X3674398D02*
X3654404Y872517D01*
X3634411Y912504D01*
X3584427Y872517D02*
X3604420D01*
X3614417Y882514D01*
Y902507D01*
X3604420Y912504D01*
X3584427D01*
X3574430Y902507D01*
Y892511D01*
X3614417D01*
X3554437Y872517D02*
Y912504D01*
X3524446D01*
X3514450Y902507D01*
Y872517D01*
X3414482D02*
X3434475Y892511D01*
Y912504D01*
X3414482Y932498D01*
X3344505D02*
X3384492D01*
Y872517D01*
X3344505D01*
X3384492Y902507D02*
X3364498D01*
X3324511D02*
X3284524D01*
X3224543Y922501D02*
X3234540Y932498D01*
X3254534D01*
X3264530Y922501D01*
Y882514D01*
X3254534Y872517D01*
X3234540D01*
X3224543Y882514D01*
X3194553Y912504D02*
X3174559D01*
X3164563Y902507D01*
Y872517D01*
X3194553D01*
X3204550Y882514D01*
X3194553Y892511D01*
X3164563D01*
X3144569Y912504D02*
Y872517D01*
Y892511D01*
X3134572Y902507D01*
X3124576Y912504D01*
X3114579D01*
X3084589Y872517D02*
X3064595Y892511D01*
Y912504D01*
X3084589Y932498D01*
X4904000Y750144D02*
Y690164D01*
X4884007Y710157D01*
X4864013Y690164D01*
Y750144D01*
X4844019Y690164D02*
Y730151D01*
X4824026Y750144D01*
X4804032Y730151D01*
Y690164D01*
Y720154D01*
X4844019D01*
X4784039Y690164D02*
Y750144D01*
X4754048D01*
X4744052Y740148D01*
Y720154D01*
X4754048Y710157D01*
X4784039D01*
X4764045D02*
X4744052Y690164D01*
X4724058D02*
Y750144D01*
X4684071Y690164D01*
Y750144D01*
X4664078D02*
X4644084D01*
X4654081D01*
Y690164D01*
X4664078D01*
X4644084D01*
X4614094D02*
Y750144D01*
X4574107Y690164D01*
Y750144D01*
X4514126Y740148D02*
X4524123Y750144D01*
X4544116D01*
X4554113Y740148D01*
Y700160D01*
X4544116Y690164D01*
X4524123D01*
X4514126Y700160D01*
Y720154D01*
X4534120D01*
X4494133Y730151D02*
X4484136D01*
Y720154D01*
X4494133D01*
Y730151D01*
Y700160D02*
X4484136D01*
Y690164D01*
X4494133D01*
Y700160D01*
X4344181Y740148D02*
X4354178Y750144D01*
X4374171D01*
X4384168Y740148D01*
Y730151D01*
X4374171Y720154D01*
X4354178D01*
X4344181Y710157D01*
Y700160D01*
X4354178Y690164D01*
X4374171D01*
X4384168Y700160D01*
X4314191Y690164D02*
X4294197D01*
X4284200Y700160D01*
Y720154D01*
X4294197Y730151D01*
X4314191D01*
X4324188Y720154D01*
Y700160D01*
X4314191Y690164D01*
X4264207D02*
X4244213D01*
X4254210D01*
Y750144D01*
X4264207D01*
X4174236D02*
Y690164D01*
X4204226D01*
X4214223Y700160D01*
Y720154D01*
X4204226Y730151D01*
X4174236D01*
X4124252Y690164D02*
X4144246D01*
X4154243Y700160D01*
Y720154D01*
X4144246Y730151D01*
X4124252D01*
X4114256Y720154D01*
Y710157D01*
X4154243D01*
X4094262Y730151D02*
Y690164D01*
Y710157D01*
X4084265Y720154D01*
X4074269Y730151D01*
X4064272D01*
X3934314D02*
X3964304D01*
X3974301Y720154D01*
Y700160D01*
X3964304Y690164D01*
X3934314D01*
X3904323D02*
X3884330D01*
X3874333Y700160D01*
Y720154D01*
X3884330Y730151D01*
X3904323D01*
X3914320Y720154D01*
Y700160D01*
X3904323Y690164D01*
X3854340D02*
Y730151D01*
X3844343D01*
X3834346Y720154D01*
Y690164D01*
Y720154D01*
X3824349Y730151D01*
X3814352Y720154D01*
Y690164D01*
X3794359Y670170D02*
Y730151D01*
X3764369D01*
X3754372Y720154D01*
Y700160D01*
X3764369Y690164D01*
X3794359D01*
X3724382D02*
X3704388D01*
X3694391Y700160D01*
Y720154D01*
X3704388Y730151D01*
X3724382D01*
X3734378Y720154D01*
Y700160D01*
X3724382Y690164D01*
X3674398D02*
Y730151D01*
X3644407D01*
X3634411Y720154D01*
Y690164D01*
X3584427D02*
X3604420D01*
X3614417Y700160D01*
Y720154D01*
X3604420Y730151D01*
X3584427D01*
X3574430Y720154D01*
Y710157D01*
X3614417D01*
X3554437Y690164D02*
Y730151D01*
X3524446D01*
X3514450Y720154D01*
Y690164D01*
X3484459Y740148D02*
Y730151D01*
X3494456D01*
X3474463D01*
X3484459D01*
Y700160D01*
X3474463Y690164D01*
X3444472D02*
X3414482D01*
X3404485Y700160D01*
X3414482Y710157D01*
X3434475D01*
X3444472Y720154D01*
X3434475Y730151D01*
X3404485D01*
X3324511Y690164D02*
X3304517D01*
X3314514D01*
Y730151D01*
X3324511D01*
X3274527Y690164D02*
Y730151D01*
X3244537D01*
X3234540Y720154D01*
Y690164D01*
X3114579Y750144D02*
Y690164D01*
X3144569D01*
X3154566Y700160D01*
Y720154D01*
X3144569Y730151D01*
X3114579D01*
X3064595Y690164D02*
X3084589D01*
X3094585Y700160D01*
Y720154D01*
X3084589Y730151D01*
X3064595D01*
X3054598Y720154D01*
Y710157D01*
X3094585D01*
X3034605Y690164D02*
X3004615D01*
X2994618Y700160D01*
X3004615Y710157D01*
X3024608D01*
X3034605Y720154D01*
X3024608Y730151D01*
X2994618D01*
X2974624Y690164D02*
X2954631D01*
X2964627D01*
Y730151D01*
X2974624D01*
X2904647Y670170D02*
X2894650D01*
X2884653Y680167D01*
Y730151D01*
X2914644D01*
X2924640Y720154D01*
Y700160D01*
X2914644Y690164D01*
X2884653D01*
X2864660D02*
Y730151D01*
X2834669D01*
X2824673Y720154D01*
Y690164D01*
X2794682Y730151D02*
X2774689D01*
X2764692Y720154D01*
Y690164D01*
X2794682D01*
X2804679Y700160D01*
X2794682Y710157D01*
X2764692D01*
X2734702Y740148D02*
Y730151D01*
X2744699D01*
X2724705D01*
X2734702D01*
Y700160D01*
X2724705Y690164D01*
X2664724D02*
X2684718D01*
X2694715Y700160D01*
Y720154D01*
X2684718Y730151D01*
X2664724D01*
X2654728Y720154D01*
Y710157D01*
X2694715D01*
X2594747Y750144D02*
Y690164D01*
X2624737D01*
X2634734Y700160D01*
Y720154D01*
X2624737Y730151D01*
X2594747D01*
X4904000Y638974D02*
Y578994D01*
X4874010D01*
X4864013Y588990D01*
Y598987D01*
Y608984D01*
X4874010Y618981D01*
X4904000D01*
X4834023Y578994D02*
X4814029D01*
X4804032Y588990D01*
Y608984D01*
X4814029Y618981D01*
X4834023D01*
X4844019Y608984D01*
Y588990D01*
X4834023Y578994D01*
X4784039Y618981D02*
X4744052Y578994D01*
X4764045Y598987D01*
X4744052Y618981D01*
X4784039Y578994D01*
X4694068D02*
X4714061D01*
X4724058Y588990D01*
Y608984D01*
X4714061Y618981D01*
X4694068D01*
X4684071Y608984D01*
Y598987D01*
X4724058D01*
X4664078Y578994D02*
X4634087D01*
X4624091Y588990D01*
X4634087Y598987D01*
X4654081D01*
X4664078Y608984D01*
X4654081Y618981D01*
X4624091D01*
X4534120D02*
X4514126D01*
X4504129Y608984D01*
Y578994D01*
X4534120D01*
X4544116Y588990D01*
X4534120Y598987D01*
X4504129D01*
X4484136Y578994D02*
X4454145D01*
X4444149Y588990D01*
X4454145Y598987D01*
X4474139D01*
X4484136Y608984D01*
X4474139Y618981D01*
X4444149D01*
X4364175D02*
Y578994D01*
Y598987D01*
X4354178Y608984D01*
X4344181Y618981D01*
X4334184D01*
X4274204Y578994D02*
X4294197D01*
X4304194Y588990D01*
Y608984D01*
X4294197Y618981D01*
X4274204D01*
X4264207Y608984D01*
Y598987D01*
X4304194D01*
X4204226Y559000D02*
Y618981D01*
X4234217D01*
X4244213Y608984D01*
Y588990D01*
X4234217Y578994D01*
X4204226D01*
X4184233Y618981D02*
Y588990D01*
X4174236Y578994D01*
X4144246D01*
Y618981D01*
X4124252Y578994D02*
X4104259D01*
X4114255D01*
Y618981D01*
X4124252D01*
X4074268D02*
Y578994D01*
Y598987D01*
X4064272Y608984D01*
X4054275Y618981D01*
X4044278D01*
X3984298Y578994D02*
X4004291D01*
X4014288Y588990D01*
Y608984D01*
X4004291Y618981D01*
X3984298D01*
X3974301Y608984D01*
Y598987D01*
X4014288D01*
X3914320Y638974D02*
Y578994D01*
X3944310D01*
X3954307Y588990D01*
Y608984D01*
X3944310Y618981D01*
X3914320D01*
X3834346Y638974D02*
Y578994D01*
X3804356D01*
X3794359Y588990D01*
Y598987D01*
Y608984D01*
X3804356Y618981D01*
X3834346D01*
X3774365D02*
Y588990D01*
X3764369Y578994D01*
X3734378D01*
Y568997D01*
X3744375Y559000D01*
X3754372D01*
X3734378Y578994D02*
Y618981D01*
X3654404D02*
X3634411Y578994D01*
X3614417Y618981D01*
X3564433Y578994D02*
X3584427D01*
X3594424Y588990D01*
Y608984D01*
X3584427Y618981D01*
X3564433D01*
X3554436Y608984D01*
Y598987D01*
X3594424D01*
X3534443Y638974D02*
Y578994D01*
Y608984D01*
X3524446Y618981D01*
X3504453D01*
X3494456Y608984D01*
Y578994D01*
X3474462D02*
X3454469D01*
X3464466D01*
Y618981D01*
X3474462D01*
X3384492D02*
X3414482D01*
X3424479Y608984D01*
Y588990D01*
X3414482Y578994D01*
X3384492D01*
X3364498D02*
X3344505D01*
X3354501D01*
Y638974D01*
X3364498D01*
X3284524Y578994D02*
X3304517D01*
X3314514Y588990D01*
Y608984D01*
X3304517Y618981D01*
X3284524D01*
X3274527Y608984D01*
Y598987D01*
X3314514D01*
%TF.MD5,eaf59754b564697d8d8d1c2acc2567e8*%
M02*
