%TF.GenerationSoftware,Altium Limited,Altium Designer,19.0.10 (269)*%
G04 Layer_Color=2752767*
%FSLAX26Y26*%
%MOIN*%
%TF.FileFunction,Drawing*%
%TF.Part,Single*%
G01*
G75*
%TA.AperFunction,NonConductor*%
%ADD77C,0.005000*%
%ADD78C,0.006667*%
D77*
X1365551Y1745000D02*
Y1785000D01*
X1405551D01*
Y1745000D01*
X1365551D01*
X975000D02*
Y1785000D01*
X1015000D01*
Y1745000D01*
X975000D01*
X1365551Y1878858D02*
Y1918858D01*
X1405551D01*
Y1878858D01*
X1365551D01*
X975000D02*
Y1918858D01*
X1015000D01*
Y1878858D01*
X975000D01*
Y2183780D02*
Y2223780D01*
X1015000D01*
Y2183780D01*
X975000D01*
X1365551D02*
Y2223780D01*
X1405551D01*
Y2183780D01*
X1365551D01*
X975000Y2049921D02*
Y2089921D01*
X1015000D01*
Y2049921D01*
X975000D01*
X1365551D02*
Y2089921D01*
X1405551D01*
Y2049921D01*
X1365551D01*
X1604843Y2166206D02*
Y2206206D01*
X1644843D01*
Y2166206D01*
X1604843D01*
Y2556757D02*
Y2596757D01*
X1644843D01*
Y2556757D01*
X1604843D01*
X1738701Y2166206D02*
Y2206206D01*
X1778701D01*
Y2166206D01*
X1738701D01*
Y2556757D02*
Y2596757D01*
X1778701D01*
Y2556757D01*
X1738701D01*
X2293490Y2161724D02*
Y2201724D01*
X2333490D01*
Y2161724D01*
X2293490D01*
Y2552276D02*
Y2592276D01*
X2333490D01*
Y2552276D01*
X2293490D01*
X2427348Y2161724D02*
Y2201724D01*
X2467348D01*
Y2161724D01*
X2427348D01*
Y2552276D02*
Y2592276D01*
X2467348D01*
Y2552276D01*
X2427348D01*
X2959165Y2163724D02*
Y2203724D01*
X2999165D01*
Y2163724D01*
X2959165D01*
Y2554276D02*
Y2594276D01*
X2999165D01*
Y2554276D01*
X2959165D01*
X3093023Y2163724D02*
Y2203724D01*
X3133023D01*
Y2163724D01*
X3093023D01*
Y2554276D02*
Y2594276D01*
X3133023D01*
Y2554276D01*
X3093023D01*
X3279361Y2164449D02*
Y2204449D01*
X3319361D01*
Y2164449D01*
X3279361D01*
Y2555000D02*
Y2595000D01*
X3319361D01*
Y2555000D01*
X3279361D01*
X3413220Y2164449D02*
Y2204449D01*
X3453220D01*
Y2164449D01*
X3413220D01*
Y2555000D02*
Y2595000D01*
X3453220D01*
Y2555000D01*
X3413220D01*
X3618246Y2164724D02*
Y2204724D01*
X3658246D01*
Y2164724D01*
X3618246D01*
Y2555276D02*
Y2595276D01*
X3658246D01*
Y2555276D01*
X3618246D01*
X3752104Y2164724D02*
Y2204724D01*
X3792104D01*
Y2164724D01*
X3752104D01*
Y2555276D02*
Y2595276D01*
X3792104D01*
Y2555276D01*
X3752104D01*
X3958379Y2164898D02*
Y2204898D01*
X3998379D01*
Y2164898D01*
X3958379D01*
Y2555450D02*
Y2595450D01*
X3998379D01*
Y2555450D01*
X3958379D01*
X4092237Y2164898D02*
Y2204898D01*
X4132237D01*
Y2164898D01*
X4092237D01*
Y2555450D02*
Y2595450D01*
X4132237D01*
Y2555450D01*
X4092237D01*
X3711237Y1751450D02*
Y1791450D01*
X3751237D01*
Y1751450D01*
X3711237D01*
Y1360898D02*
Y1400898D01*
X3751237D01*
Y1360898D01*
X3711237D01*
X3577378Y1751450D02*
Y1791450D01*
X3617378D01*
Y1751450D01*
X3577378D01*
Y1360898D02*
Y1400898D01*
X3617378D01*
Y1360898D01*
X3577378D01*
X3356886Y1751000D02*
Y1791000D01*
X3396886D01*
Y1751000D01*
X3356886D01*
Y1360449D02*
Y1400449D01*
X3396886D01*
Y1360449D01*
X3356886D01*
X3223028Y1751000D02*
Y1791000D01*
X3263028D01*
Y1751000D01*
X3223028D01*
Y1360449D02*
Y1400449D01*
X3263028D01*
Y1360449D01*
X3223028D01*
X3002570Y1751450D02*
Y1791450D01*
X3042570D01*
Y1751450D01*
X3002570D01*
Y1360898D02*
Y1400898D01*
X3042570D01*
Y1360898D01*
X3002570D01*
X2868712Y1751450D02*
Y1791450D01*
X2908712D01*
Y1751450D01*
X2868712D01*
Y1360898D02*
Y1400898D01*
X2908712D01*
Y1360898D01*
X2868712D01*
X2647701Y1751757D02*
Y1791757D01*
X2687701D01*
Y1751757D01*
X2647701D01*
Y1361206D02*
Y1401206D01*
X2687701D01*
Y1361206D01*
X2647701D01*
X2513843Y1751757D02*
Y1791757D01*
X2553843D01*
Y1751757D01*
X2513843D01*
Y1361206D02*
Y1401206D01*
X2553843D01*
Y1361206D01*
X2513843D01*
X2293314Y1743253D02*
Y1783253D01*
X2333314D01*
Y1743253D01*
X2293314D01*
Y1352702D02*
Y1392702D01*
X2333314D01*
Y1352702D01*
X2293314D01*
X2159456Y1743253D02*
Y1783253D01*
X2199456D01*
Y1743253D01*
X2159456D01*
Y1352702D02*
Y1392702D01*
X2199456D01*
Y1352702D01*
X2159456D01*
X150000Y684724D02*
X130000Y724724D01*
X170000D01*
X150000Y684724D01*
Y1964252D02*
X130000Y2004252D01*
X170000D01*
X150000Y1964252D01*
Y3480000D02*
X130000Y3520000D01*
X170000D01*
X150000Y3480000D01*
X1166000Y1532000D02*
X1176000Y1542000D01*
X1186000D01*
X1176000Y1552000D01*
X1186000Y1562000D01*
X1176000D01*
X1166000Y1572000D01*
X1156000Y1562000D01*
X1146000D01*
X1156000Y1552000D01*
X1146000Y1542000D01*
X1156000D01*
X1166000Y1532000D01*
X1777000Y1381000D02*
X1787000Y1391000D01*
X1797000D01*
X1787000Y1401000D01*
X1797000Y1411000D01*
X1787000D01*
X1777000Y1421000D01*
X1767000Y1411000D01*
X1757000D01*
X1767000Y1401000D01*
X1757000Y1391000D01*
X1767000D01*
X1777000Y1381000D01*
X1490000Y1360000D02*
X1500000Y1370000D01*
X1510000D01*
X1500000Y1380000D01*
X1510000Y1390000D01*
X1500000D01*
X1490000Y1400000D01*
X1480000Y1390000D01*
X1470000D01*
X1480000Y1380000D01*
X1470000Y1370000D01*
X1480000D01*
X1490000Y1360000D01*
X4680000Y280000D02*
X4690000Y300000D01*
X4680000Y320000D01*
X4700000Y310000D01*
X4720000Y320000D01*
X4710000Y300000D01*
X4720000Y280000D01*
X4700000Y290000D01*
X4680000Y280000D01*
Y3880000D02*
X4690000Y3900000D01*
X4680000Y3920000D01*
X4700000Y3910000D01*
X4720000Y3920000D01*
X4710000Y3900000D01*
X4720000Y3880000D01*
X4700000Y3890000D01*
X4680000Y3880000D01*
X280000D02*
X290000Y3900000D01*
X280000Y3920000D01*
X300000Y3910000D01*
X320000Y3920000D01*
X310000Y3900000D01*
X320000Y3880000D01*
X300000Y3890000D01*
X280000Y3880000D01*
Y280000D02*
X290000Y300000D01*
X280000Y320000D01*
X300000Y310000D01*
X320000Y320000D01*
X310000Y300000D01*
X320000Y280000D01*
X300000Y290000D01*
X280000Y280000D01*
X2634656Y2439512D02*
Y2429512D01*
X2654656D01*
Y2439512D01*
X2664656D01*
Y2459512D01*
X2654656D01*
Y2469512D01*
X2634656D01*
Y2459512D01*
X2624656D01*
Y2439512D01*
X2634656D01*
X2599065Y2803528D02*
X2609065D01*
X2619065Y2813528D01*
X2629065Y2803528D01*
X2639065D01*
Y2813528D01*
X2629065Y2823528D01*
X2639065Y2833528D01*
Y2843528D01*
X2629065D01*
X2619065Y2833528D01*
X2609065Y2843528D01*
X2599065D01*
Y2833528D01*
X2609065Y2823528D01*
X2599065Y2813528D01*
Y2803528D01*
X2758671Y2675732D02*
Y2665732D01*
X2778671D01*
Y2675732D01*
X2788671D01*
Y2695732D01*
X2778671D01*
Y2705732D01*
X2758671D01*
Y2695732D01*
X2748671D01*
Y2675732D01*
X2758671D01*
X2793947Y3040063D02*
X2813947Y3060063D01*
X2833947Y3040063D01*
X2813947Y3020063D01*
X2793947Y3040063D01*
X2624656D02*
X2644656Y3060063D01*
X2664656Y3040063D01*
X2644656Y3020063D01*
X2624656Y3040063D01*
X1969001Y2442449D02*
Y2432449D01*
X1989001D01*
Y2442449D01*
X1999001D01*
Y2462449D01*
X1989001D01*
Y2472449D01*
X1969001D01*
Y2462449D01*
X1959001D01*
Y2442449D01*
X1969001D01*
X1933410Y2806465D02*
X1943410D01*
X1953410Y2816465D01*
X1963410Y2806465D01*
X1973410D01*
Y2816465D01*
X1963410Y2826465D01*
X1973410Y2836465D01*
Y2846465D01*
X1963410D01*
X1953410Y2836465D01*
X1943410Y2846465D01*
X1933410D01*
Y2836465D01*
X1943410Y2826465D01*
X1933410Y2816465D01*
Y2806465D01*
X2093016Y2678670D02*
Y2668670D01*
X2113016D01*
Y2678670D01*
X2123016D01*
Y2698670D01*
X2113016D01*
Y2708670D01*
X2093016D01*
Y2698670D01*
X2083016D01*
Y2678670D01*
X2093016D01*
X2128292Y3043001D02*
X2148292Y3063001D01*
X2168292Y3043001D01*
X2148292Y3023001D01*
X2128292Y3043001D01*
X1959001D02*
X1979001Y3063001D01*
X1999001Y3043001D01*
X1979001Y3023001D01*
X1959001Y3043001D01*
X1276000Y2456449D02*
Y2446449D01*
X1296000D01*
Y2456449D01*
X1306000D01*
Y2476449D01*
X1296000D01*
Y2486449D01*
X1276000D01*
Y2476449D01*
X1266000D01*
Y2456449D01*
X1276000D01*
X1250410Y2830465D02*
Y2820465D01*
X1270410D01*
Y2830465D01*
X1280410D01*
Y2850465D01*
X1270410D01*
Y2860465D01*
X1250410D01*
Y2850465D01*
X1240410D01*
Y2830465D01*
X1250410D01*
X1400016Y2692669D02*
Y2682669D01*
X1420016D01*
Y2692669D01*
X1430016D01*
Y2712669D01*
X1420016D01*
Y2722669D01*
X1400016D01*
Y2712669D01*
X1390016D01*
Y2692669D01*
X1400016D01*
X1435292Y3057000D02*
X1455292Y3077000D01*
X1475292Y3057000D01*
X1455292Y3037000D01*
X1435292Y3057000D01*
X1266000D02*
X1286000Y3077000D01*
X1306000Y3057000D01*
X1286000Y3037000D01*
X1266000Y3057000D01*
X2001929Y1354551D02*
Y1344551D01*
X2021929D01*
Y1354551D01*
X2031929D01*
Y1374551D01*
X2021929D01*
Y1384551D01*
X2001929D01*
Y1374551D01*
X1991929D01*
Y1354551D01*
X2001929D01*
X2017520Y970535D02*
X2027520D01*
X2037520Y980535D01*
X2047520Y970535D01*
X2057520D01*
Y980535D01*
X2047520Y990535D01*
X2057520Y1000535D01*
Y1010535D01*
X2047520D01*
X2037520Y1000535D01*
X2027520Y1010535D01*
X2017520D01*
Y1000535D01*
X2027520Y990535D01*
X2017520Y980535D01*
Y970535D01*
X1877913Y1118331D02*
Y1108331D01*
X1897913D01*
Y1118331D01*
X1907913D01*
Y1138331D01*
X1897913D01*
Y1148331D01*
X1877913D01*
Y1138331D01*
X1867913D01*
Y1118331D01*
X1877913D01*
X1822638Y774000D02*
X1842638Y794000D01*
X1862638Y774000D01*
X1842638Y754000D01*
X1822638Y774000D01*
X1991929D02*
X2011929Y794000D01*
X2031929Y774000D01*
X2011929Y754000D01*
X1991929Y774000D01*
X1115236Y3131764D02*
Y3171764D01*
X1155236D01*
Y3131764D01*
X1115236D01*
X1123236Y3139764D02*
Y3163764D01*
X1147236D01*
Y3139764D01*
X1123236D01*
X1164000Y3051000D02*
Y3091000D01*
X1204000D01*
Y3051000D01*
X1164000D01*
X1172000Y3059000D02*
Y3083000D01*
X1196000D01*
Y3059000D01*
X1172000D01*
X1681000Y3113000D02*
Y3153000D01*
X1721000D01*
Y3113000D01*
X1681000D01*
X1689000Y3121000D02*
Y3145000D01*
X1713000D01*
Y3121000D01*
X1689000D01*
X914000Y3504000D02*
Y3544000D01*
X954000D01*
Y3504000D01*
X914000D01*
X922000Y3512000D02*
Y3536000D01*
X946000D01*
Y3512000D01*
X922000D01*
X3508000Y1533000D02*
Y1573000D01*
X3548000D01*
Y1533000D01*
X3508000D01*
X3516000Y1541000D02*
Y1565000D01*
X3540000D01*
Y1541000D01*
X3516000D01*
X2252663Y3020000D02*
Y3060000D01*
X2292663D01*
Y3020000D01*
X2252663D01*
X2260663Y3028000D02*
Y3052000D01*
X2284663D01*
Y3028000D01*
X2260663D01*
X2456217Y3194567D02*
Y3234567D01*
X2496217D01*
Y3194567D01*
X2456217D01*
X2464217Y3202567D02*
Y3226567D01*
X2488217D01*
Y3202567D01*
X2464217D01*
X144695Y2360000D02*
Y2400000D01*
X184695D01*
Y2360000D01*
X144695D01*
X152695Y2368000D02*
Y2392000D01*
X176695D01*
Y2368000D01*
X152695D01*
X160000Y2749010D02*
Y2789010D01*
X200000D01*
Y2749010D01*
X160000D01*
X168000Y2757010D02*
Y2781010D01*
X192000D01*
Y2757010D01*
X168000D01*
X4324456Y3580000D02*
Y3620000D01*
X4364456D01*
Y3580000D01*
X4324456D01*
X4332456Y3588000D02*
Y3612000D01*
X4356456D01*
Y3588000D01*
X4332456D01*
X3322396Y3580000D02*
Y3620000D01*
X3362396D01*
Y3580000D01*
X3322396D01*
X3330396Y3588000D02*
Y3612000D01*
X3354396D01*
Y3588000D01*
X3330396D01*
X577000Y3790000D02*
Y3830000D01*
X617000D01*
Y3790000D01*
X577000D01*
X585000Y3798000D02*
Y3822000D01*
X609000D01*
Y3798000D01*
X585000D01*
X4840000Y2830000D02*
Y2870000D01*
X4880000D01*
Y2830000D01*
X4840000D01*
X4848000Y2838000D02*
Y2862000D01*
X4872000D01*
Y2838000D01*
X4848000D01*
X207000Y1614278D02*
Y1654278D01*
X247000D01*
Y1614278D01*
X207000D01*
X215000Y1622278D02*
Y1646278D01*
X239000D01*
Y1622278D01*
X215000D01*
X470000Y2142952D02*
Y2182952D01*
X510000D01*
Y2142952D01*
X470000D01*
X478000Y2150952D02*
Y2174952D01*
X502000D01*
Y2150952D01*
X478000D01*
X370000Y1970000D02*
Y2010000D01*
X410000D01*
Y1970000D01*
X370000D01*
X378000Y1978000D02*
Y2002000D01*
X402000D01*
Y1978000D01*
X378000D01*
X3840000Y2380000D02*
Y2420000D01*
X3880000D01*
Y2380000D01*
X3840000D01*
X3848000Y2388000D02*
Y2412000D01*
X3872000D01*
Y2388000D01*
X3848000D01*
X3182201Y2380000D02*
Y2420000D01*
X3222201D01*
Y2380000D01*
X3182201D01*
X3190201Y2388000D02*
Y2412000D01*
X3214201D01*
Y2388000D01*
X3190201D01*
X2760726Y1490000D02*
Y1530000D01*
X2800726D01*
Y1490000D01*
X2760726D01*
X2768726Y1498000D02*
Y1522000D01*
X2792726D01*
Y1498000D01*
X2768726D01*
X4690000Y1400000D02*
Y1440000D01*
X4730000D01*
Y1400000D01*
X4690000D01*
X4698000Y1408000D02*
Y1432000D01*
X4722000D01*
Y1408000D01*
X4698000D01*
X4490000Y2690000D02*
Y2730000D01*
X4530000D01*
Y2690000D01*
X4490000D01*
X4498000Y2698000D02*
Y2722000D01*
X4522000D01*
Y2698000D01*
X4498000D01*
X3910000Y3100000D02*
Y3140000D01*
X3950000D01*
Y3100000D01*
X3910000D01*
X3918000Y3108000D02*
Y3132000D01*
X3942000D01*
Y3108000D01*
X3918000D01*
X3400000Y2960000D02*
Y3000000D01*
X3440000D01*
Y2960000D01*
X3400000D01*
X3408000Y2968000D02*
Y2992000D01*
X3432000D01*
Y2968000D01*
X3408000D01*
X2970000Y2820465D02*
Y2860465D01*
X3010000D01*
Y2820465D01*
X2970000D01*
X2978000Y2828465D02*
Y2852465D01*
X3002000D01*
Y2828465D01*
X2978000D01*
X2420000Y2864821D02*
Y2904821D01*
X2460000D01*
Y2864821D01*
X2420000D01*
X2428000Y2872821D02*
Y2896821D01*
X2452000D01*
Y2872821D01*
X2428000D01*
X1150000Y1964252D02*
Y2004252D01*
X1190000D01*
Y1964252D01*
X1150000D01*
X1158000Y1972252D02*
Y1996252D01*
X1182000D01*
Y1972252D01*
X1158000D01*
X1126000Y2510000D02*
Y2550000D01*
X1166000D01*
Y2510000D01*
X1126000D01*
X1134000Y2518000D02*
Y2542000D01*
X1158000D01*
Y2518000D01*
X1134000D01*
X960000Y1390000D02*
Y1430000D01*
X1000000D01*
Y1390000D01*
X960000D01*
X968000Y1398000D02*
Y1422000D01*
X992000D01*
Y1398000D01*
X968000D01*
X900000Y980000D02*
Y1020000D01*
X940000D01*
Y980000D01*
X900000D01*
X908000Y988000D02*
Y1012000D01*
X932000D01*
Y988000D01*
X908000D01*
X1320000Y910000D02*
Y950000D01*
X1360000D01*
Y910000D01*
X1320000D01*
X1328000Y918000D02*
Y942000D01*
X1352000D01*
Y918000D01*
X1328000D01*
X2160000Y1040000D02*
Y1080000D01*
X2200000D01*
Y1040000D01*
X2160000D01*
X2168000Y1048000D02*
Y1072000D01*
X2192000D01*
Y1048000D01*
X2168000D01*
X1400000Y680000D02*
Y720000D01*
X1440000D01*
Y680000D01*
X1400000D01*
X1408000Y688000D02*
Y712000D01*
X1432000D01*
Y688000D01*
X1408000D01*
X2581000Y1195000D02*
Y1235000D01*
X2621000D01*
Y1195000D01*
X2581000D01*
X2589000Y1203000D02*
Y1227000D01*
X2613000D01*
Y1203000D01*
X2589000D01*
X2540000Y830000D02*
Y870000D01*
X2580000D01*
Y830000D01*
X2540000D01*
X2548000Y838000D02*
Y862000D01*
X2572000D01*
Y838000D01*
X2548000D01*
X2863776Y800000D02*
Y840000D01*
X2903776D01*
Y800000D01*
X2863776D01*
X2871776Y808000D02*
Y832000D01*
X2895776D01*
Y808000D01*
X2871776D01*
X4120000Y1060000D02*
Y1100000D01*
X4160000D01*
Y1060000D01*
X4120000D01*
X4128000Y1068000D02*
Y1092000D01*
X4152000D01*
Y1068000D01*
X4128000D01*
X3020000Y270000D02*
Y310000D01*
X3060000D01*
Y270000D01*
X3020000D01*
X3028000Y278000D02*
Y302000D01*
X3052000D01*
Y278000D01*
X3028000D01*
X1975969Y220000D02*
Y260000D01*
X2015969D01*
Y220000D01*
X1975969D01*
X1983969Y228000D02*
Y252000D01*
X2007969D01*
Y228000D01*
X1983969D01*
X1090000Y230000D02*
Y270000D01*
X1130000D01*
Y230000D01*
X1090000D01*
X1098000Y238000D02*
Y262000D01*
X1122000D01*
Y238000D01*
X1098000D01*
X3945388Y3748482D02*
Y3788482D01*
X3985388D01*
Y3748482D01*
X3945388D01*
X3953388Y3756482D02*
Y3780482D01*
X3977388D01*
Y3756482D01*
X3953388D01*
X1939644Y3748482D02*
Y3788482D01*
X1979644D01*
Y3748482D01*
X1939644D01*
X1947644Y3756482D02*
Y3780482D01*
X1971644D01*
Y3756482D01*
X1947644D01*
X1605353Y3748482D02*
Y3788482D01*
X1645353D01*
Y3748482D01*
X1605353D01*
X1613353Y3756482D02*
Y3780482D01*
X1637353D01*
Y3756482D01*
X1613353D01*
X1861888Y3750726D02*
Y3790726D01*
X1901888D01*
Y3750726D01*
X1861888D01*
X1869888Y3758726D02*
Y3782726D01*
X1893888D01*
Y3758726D01*
X1869888D01*
X4590000Y3060000D02*
Y3100000D01*
X4630000D01*
Y3060000D01*
X4590000D01*
X4598000Y3068000D02*
Y3092000D01*
X4622000D01*
Y3068000D01*
X4598000D01*
X4590000Y3165000D02*
Y3205000D01*
X4630000D01*
Y3165000D01*
X4590000D01*
X4598000Y3173000D02*
Y3197000D01*
X4622000D01*
Y3173000D01*
X4598000D01*
X4590000Y3270000D02*
Y3310000D01*
X4630000D01*
Y3270000D01*
X4590000D01*
X4598000Y3278000D02*
Y3302000D01*
X4622000D01*
Y3278000D01*
X4598000D01*
X4590000Y3375000D02*
Y3415000D01*
X4630000D01*
Y3375000D01*
X4590000D01*
X4598000Y3383000D02*
Y3407000D01*
X4622000D01*
Y3383000D01*
X4598000D01*
X4590000Y3480000D02*
Y3520000D01*
X4630000D01*
Y3480000D01*
X4590000D01*
X4598000Y3488000D02*
Y3512000D01*
X4622000D01*
Y3488000D01*
X4598000D01*
X3990977Y3580000D02*
Y3620000D01*
X4030977D01*
Y3580000D01*
X3990977D01*
X3998977Y3588000D02*
Y3612000D01*
X4022977D01*
Y3588000D01*
X3998977D01*
X3656686Y3580000D02*
Y3620000D01*
X3696686D01*
Y3580000D01*
X3656686D01*
X3664686Y3588000D02*
Y3612000D01*
X3688686D01*
Y3588000D01*
X3664686D01*
X3276806Y3748482D02*
Y3788482D01*
X3316806D01*
Y3748482D01*
X3276806D01*
X3284806Y3756482D02*
Y3780482D01*
X3308806D01*
Y3756482D01*
X3284806D01*
X2988105Y3580000D02*
Y3620000D01*
X3028105D01*
Y3580000D01*
X2988105D01*
X2996105Y3588000D02*
Y3612000D01*
X3020105D01*
Y3588000D01*
X2996105D01*
X2653814Y3580000D02*
Y3620000D01*
X2693814D01*
Y3580000D01*
X2653814D01*
X2661814Y3588000D02*
Y3612000D01*
X2685814D01*
Y3588000D01*
X2661814D01*
X1271063Y3748482D02*
Y3788482D01*
X1311063D01*
Y3748482D01*
X1271063D01*
X1279063Y3756482D02*
Y3780482D01*
X1303063D01*
Y3756482D01*
X1279063D01*
X1192323Y3969740D02*
Y4009740D01*
X1232323D01*
Y3969740D01*
X1192323D01*
X1200323Y3977740D02*
Y4001740D01*
X1224323D01*
Y3977740D01*
X1200323D01*
X1193307Y3750726D02*
Y3790726D01*
X1233307D01*
Y3750726D01*
X1193307D01*
X1201307Y3758726D02*
Y3782726D01*
X1225307D01*
Y3758726D01*
X1201307D01*
X1526613Y3969740D02*
Y4009740D01*
X1566613D01*
Y3969740D01*
X1526613D01*
X1534613Y3977740D02*
Y4001740D01*
X1558613D01*
Y3977740D01*
X1534613D01*
X1527597Y3750726D02*
Y3790726D01*
X1567597D01*
Y3750726D01*
X1527597D01*
X1535597Y3758726D02*
Y3782726D01*
X1559597D01*
Y3758726D01*
X1535597D01*
X3611097Y3748482D02*
Y3788482D01*
X3651097D01*
Y3748482D01*
X3611097D01*
X3619097Y3756482D02*
Y3780482D01*
X3643097D01*
Y3756482D01*
X3619097D01*
X3532357Y3969740D02*
Y4009740D01*
X3572357D01*
Y3969740D01*
X3532357D01*
X3540357Y3977740D02*
Y4001740D01*
X3564357D01*
Y3977740D01*
X3540357D01*
X3533341Y3750726D02*
Y3790726D01*
X3573341D01*
Y3750726D01*
X3533341D01*
X3541341Y3758726D02*
Y3782726D01*
X3565341D01*
Y3758726D01*
X3541341D01*
X3866647Y3969740D02*
Y4009740D01*
X3906647D01*
Y3969740D01*
X3866647D01*
X3874647Y3977740D02*
Y4001740D01*
X3898647D01*
Y3977740D01*
X3874647D01*
X3867632Y3750726D02*
Y3790726D01*
X3907632D01*
Y3750726D01*
X3867632D01*
X3875632Y3758726D02*
Y3782726D01*
X3899632D01*
Y3758726D01*
X3875632D01*
X4279678Y3748482D02*
Y3788482D01*
X4319678D01*
Y3748482D01*
X4279678D01*
X4287678Y3756482D02*
Y3780482D01*
X4311678D01*
Y3756482D01*
X4287678D01*
X4200938Y3969740D02*
Y4009740D01*
X4240938D01*
Y3969740D01*
X4200938D01*
X4208938Y3977740D02*
Y4001740D01*
X4232938D01*
Y3977740D01*
X4208938D01*
X4201922Y3750726D02*
Y3790726D01*
X4241922D01*
Y3750726D01*
X4201922D01*
X4209922Y3758726D02*
Y3782726D01*
X4233922D01*
Y3758726D01*
X4209922D01*
X1860904Y3969740D02*
Y4009740D01*
X1900904D01*
Y3969740D01*
X1860904D01*
X1868904Y3977740D02*
Y4001740D01*
X1892904D01*
Y3977740D01*
X1868904D01*
X2273935Y3748482D02*
Y3788482D01*
X2313935D01*
Y3748482D01*
X2273935D01*
X2281935Y3756482D02*
Y3780482D01*
X2305935D01*
Y3756482D01*
X2281935D01*
X2195194Y3969740D02*
Y4009740D01*
X2235194D01*
Y3969740D01*
X2195194D01*
X2203194Y3977740D02*
Y4001740D01*
X2227194D01*
Y3977740D01*
X2203194D01*
X2196179Y3750726D02*
Y3790726D01*
X2236179D01*
Y3750726D01*
X2196179D01*
X2204179Y3758726D02*
Y3782726D01*
X2228179D01*
Y3758726D01*
X2204179D01*
X2608225Y3748482D02*
Y3788482D01*
X2648225D01*
Y3748482D01*
X2608225D01*
X2616225Y3756482D02*
Y3780482D01*
X2640225D01*
Y3756482D01*
X2616225D01*
X2529485Y3969740D02*
Y4009740D01*
X2569485D01*
Y3969740D01*
X2529485D01*
X2537485Y3977740D02*
Y4001740D01*
X2561485D01*
Y3977740D01*
X2537485D01*
X2530469Y3750726D02*
Y3790726D01*
X2570469D01*
Y3750726D01*
X2530469D01*
X2538469Y3758726D02*
Y3782726D01*
X2562469D01*
Y3758726D01*
X2538469D01*
X2942516Y3748482D02*
Y3788482D01*
X2982516D01*
Y3748482D01*
X2942516D01*
X2950516Y3756482D02*
Y3780482D01*
X2974516D01*
Y3756482D01*
X2950516D01*
X2863776Y3969740D02*
Y4009740D01*
X2903776D01*
Y3969740D01*
X2863776D01*
X2871776Y3977740D02*
Y4001740D01*
X2895776D01*
Y3977740D01*
X2871776D01*
X2864760Y3750726D02*
Y3790726D01*
X2904760D01*
Y3750726D01*
X2864760D01*
X2872760Y3758726D02*
Y3782726D01*
X2896760D01*
Y3758726D01*
X2872760D01*
X3198066Y3969740D02*
Y4009740D01*
X3238066D01*
Y3969740D01*
X3198066D01*
X3206066Y3977740D02*
Y4001740D01*
X3230066D01*
Y3977740D01*
X3206066D01*
X3199050Y3750726D02*
Y3790726D01*
X3239050D01*
Y3750726D01*
X3199050D01*
X3207050Y3758726D02*
Y3782726D01*
X3231050D01*
Y3758726D01*
X3207050D01*
X936772Y3748482D02*
Y3788482D01*
X976772D01*
Y3748482D01*
X936772D01*
X944772Y3756482D02*
Y3780482D01*
X968772D01*
Y3756482D01*
X944772D01*
X858032Y3969740D02*
Y4009740D01*
X898032D01*
Y3969740D01*
X858032D01*
X866032Y3977740D02*
Y4001740D01*
X890032D01*
Y3977740D01*
X866032D01*
X859016Y3750726D02*
Y3790726D01*
X899016D01*
Y3750726D01*
X859016D01*
X867016Y3758726D02*
Y3782726D01*
X891016D01*
Y3758726D01*
X867016D01*
D78*
X740866Y2269685D02*
G03*
X740866Y2269685I-20000J0D01*
G01*
Y2387795D02*
G03*
X740866Y2387795I-20000J0D01*
G01*
Y2505905D02*
G03*
X740866Y2505905I-20000J0D01*
G01*
Y2624016D02*
G03*
X740866Y2624016I-20000J0D01*
G01*
Y2742126D02*
G03*
X740866Y2742126I-20000J0D01*
G01*
Y2860236D02*
G03*
X740866Y2860236I-20000J0D01*
G01*
Y2978347D02*
G03*
X740866Y2978347I-20000J0D01*
G01*
Y3096457D02*
G03*
X740866Y3096457I-20000J0D01*
G01*
Y3214567D02*
G03*
X740866Y3214567I-20000J0D01*
G01*
X642441Y2328740D02*
G03*
X642441Y2328740I-20000J0D01*
G01*
Y2446850D02*
G03*
X642441Y2446850I-20000J0D01*
G01*
Y2564961D02*
G03*
X642441Y2564961I-20000J0D01*
G01*
Y2683071D02*
G03*
X642441Y2683071I-20000J0D01*
G01*
Y2801181D02*
G03*
X642441Y2801181I-20000J0D01*
G01*
Y2919291D02*
G03*
X642441Y2919291I-20000J0D01*
G01*
Y3037402D02*
G03*
X642441Y3037402I-20000J0D01*
G01*
Y3155512D02*
G03*
X642441Y3155512I-20000J0D01*
G01*
X524331Y2328740D02*
G03*
X524331Y2328740I-20000J0D01*
G01*
Y2446850D02*
G03*
X524331Y2446850I-20000J0D01*
G01*
Y2564961D02*
G03*
X524331Y2564961I-20000J0D01*
G01*
Y2683071D02*
G03*
X524331Y2683071I-20000J0D01*
G01*
Y2801181D02*
G03*
X524331Y2801181I-20000J0D01*
G01*
Y2919291D02*
G03*
X524331Y2919291I-20000J0D01*
G01*
Y3037402D02*
G03*
X524331Y3037402I-20000J0D01*
G01*
Y3155512D02*
G03*
X524331Y3155512I-20000J0D01*
G01*
X425906Y2269685D02*
G03*
X425906Y2269685I-20000J0D01*
G01*
Y2387795D02*
G03*
X425906Y2387795I-20000J0D01*
G01*
Y2505905D02*
G03*
X425906Y2505905I-20000J0D01*
G01*
Y2624016D02*
G03*
X425906Y2624016I-20000J0D01*
G01*
Y2742126D02*
G03*
X425906Y2742126I-20000J0D01*
G01*
Y2860236D02*
G03*
X425906Y2860236I-20000J0D01*
G01*
Y2978347D02*
G03*
X425906Y2978347I-20000J0D01*
G01*
Y3096457D02*
G03*
X425906Y3096457I-20000J0D01*
G01*
Y3214567D02*
G03*
X425906Y3214567I-20000J0D01*
G01*
Y1698819D02*
G03*
X425906Y1698819I-20000J0D01*
G01*
Y1580709D02*
G03*
X425906Y1580709I-20000J0D01*
G01*
Y1462599D02*
G03*
X425906Y1462599I-20000J0D01*
G01*
Y1344488D02*
G03*
X425906Y1344488I-20000J0D01*
G01*
Y1226378D02*
G03*
X425906Y1226378I-20000J0D01*
G01*
Y1108268D02*
G03*
X425906Y1108268I-20000J0D01*
G01*
Y990158D02*
G03*
X425906Y990158I-20000J0D01*
G01*
X524331Y1639764D02*
G03*
X524331Y1639764I-20000J0D01*
G01*
Y1521654D02*
G03*
X524331Y1521654I-20000J0D01*
G01*
Y1403543D02*
G03*
X524331Y1403543I-20000J0D01*
G01*
Y1285433D02*
G03*
X524331Y1285433I-20000J0D01*
G01*
Y1167323D02*
G03*
X524331Y1167323I-20000J0D01*
G01*
Y1049213D02*
G03*
X524331Y1049213I-20000J0D01*
G01*
X642441Y1639764D02*
G03*
X642441Y1639764I-20000J0D01*
G01*
Y1521654D02*
G03*
X642441Y1521654I-20000J0D01*
G01*
Y1403543D02*
G03*
X642441Y1403543I-20000J0D01*
G01*
Y1285433D02*
G03*
X642441Y1285433I-20000J0D01*
G01*
Y1167323D02*
G03*
X642441Y1167323I-20000J0D01*
G01*
Y1049213D02*
G03*
X642441Y1049213I-20000J0D01*
G01*
X740866Y1698819D02*
G03*
X740866Y1698819I-20000J0D01*
G01*
Y1580709D02*
G03*
X740866Y1580709I-20000J0D01*
G01*
Y1462599D02*
G03*
X740866Y1462599I-20000J0D01*
G01*
Y1344488D02*
G03*
X740866Y1344488I-20000J0D01*
G01*
Y1226378D02*
G03*
X740866Y1226378I-20000J0D01*
G01*
Y1108268D02*
G03*
X740866Y1108268I-20000J0D01*
G01*
Y990158D02*
G03*
X740866Y990158I-20000J0D01*
G01*
%TF.MD5,1b3ba93c0e90c14ce74da6f3d0c36857*%
M02*
