%TF.GenerationSoftware,Altium Limited,Altium Designer,18.1.9 (240)*%
G04 Layer_Color=2752767*
%FSLAX26Y26*%
%MOIN*%
%TF.FileFunction,Drawing*%
%TF.Part,Single*%
G01*
G75*
%TA.AperFunction,NonConductor*%
%ADD108C,0.005000*%
%ADD109C,0.006667*%
D108*
X1625002Y2302835D02*
Y2342835D01*
X1665002D01*
Y2302835D01*
X1625002D01*
X1594173Y944567D02*
Y984567D01*
X1634173D01*
Y944567D01*
X1594173D01*
X3937652D02*
Y984567D01*
X3977652D01*
Y944567D01*
X3937652D01*
X3956378Y2302835D02*
Y2342835D01*
X3996378D01*
Y2302835D01*
X3956378D01*
X1365078Y2036103D02*
X1345078Y2076103D01*
X1385078D01*
X1365078Y2036103D01*
Y1917993D02*
X1345078Y1957993D01*
X1385078D01*
X1365078Y1917993D01*
Y1799883D02*
X1345078Y1839883D01*
X1385078D01*
X1365078Y1799883D01*
Y1681771D02*
X1345078Y1721771D01*
X1385078D01*
X1365078Y1681771D01*
Y1563661D02*
X1345078Y1603661D01*
X1385078D01*
X1365078Y1563661D01*
Y1445551D02*
X1345078Y1485551D01*
X1385078D01*
X1365078Y1445551D01*
Y1327441D02*
X1345078Y1367441D01*
X1385078D01*
X1365078Y1327441D01*
Y1209331D02*
X1345078Y1249331D01*
X1385078D01*
X1365078Y1209331D01*
X2845194Y2126578D02*
X2855194Y2136578D01*
X2865194D01*
X2855194Y2146578D01*
X2865194Y2156578D01*
X2855194D01*
X2845194Y2166578D01*
X2835194Y2156578D01*
X2825194D01*
X2835194Y2146578D01*
X2825194Y2136578D01*
X2835194D01*
X2845194Y2126578D01*
X2951260Y2020512D02*
X2961260Y2030512D01*
X2971260D01*
X2961260Y2040512D01*
X2971260Y2050512D01*
X2961260D01*
X2951260Y2060512D01*
X2941260Y2050512D01*
X2931260D01*
X2941260Y2040512D01*
X2931260Y2030512D01*
X2941260D01*
X2951260Y2020512D01*
X4225000Y1208031D02*
X4205000Y1248031D01*
X4245000D01*
X4225000Y1208031D01*
Y1326141D02*
X4205000Y1366141D01*
X4245000D01*
X4225000Y1326141D01*
Y1444251D02*
X4205000Y1484251D01*
X4245000D01*
X4225000Y1444251D01*
Y1562363D02*
X4205000Y1602363D01*
X4245000D01*
X4225000Y1562363D01*
Y1680473D02*
X4205000Y1720473D01*
X4245000D01*
X4225000Y1680473D01*
Y1798583D02*
X4205000Y1838583D01*
X4245000D01*
X4225000Y1798583D01*
Y1916693D02*
X4205000Y1956693D01*
X4245000D01*
X4225000Y1916693D01*
Y2034803D02*
X4205000Y2074803D01*
X4245000D01*
X4225000Y2034803D01*
X3490969Y1795772D02*
X3500969Y1815772D01*
X3490969Y1835772D01*
X3510969Y1825772D01*
X3530969Y1835772D01*
X3520969Y1815772D01*
X3530969Y1795772D01*
X3510969Y1805772D01*
X3490969Y1795772D01*
X1876222Y1909175D02*
X1886222Y1929175D01*
X1876222Y1949175D01*
X1896222Y1939175D01*
X1916222Y1949175D01*
X1906222Y1929175D01*
X1916222Y1909175D01*
X1896222Y1919175D01*
X1876222Y1909175D01*
X1924109Y1914609D02*
X1934109Y1934609D01*
X1924109Y1954609D01*
X1944109Y1944609D01*
X1964109Y1954609D01*
X1954109Y1934609D01*
X1964109Y1914609D01*
X1944109Y1924609D01*
X1924109Y1914609D01*
X2480000Y1771339D02*
X2490000Y1791339D01*
X2480000Y1811339D01*
X2500000Y1801339D01*
X2520000Y1811339D01*
X2510000Y1791339D01*
X2520000Y1771339D01*
X2500000Y1781339D01*
X2480000Y1771339D01*
X3168970Y1717992D02*
X3178970Y1737992D01*
X3168970Y1757992D01*
X3188970Y1747992D01*
X3208970Y1757992D01*
X3198970Y1737992D01*
X3208970Y1717992D01*
X3188970Y1727992D01*
X3168970Y1717992D01*
X3073268Y1624428D02*
X3083268Y1644428D01*
X3073268Y1664428D01*
X3093268Y1654428D01*
X3113268Y1664428D01*
X3103268Y1644428D01*
X3113268Y1624428D01*
X3093268Y1634428D01*
X3073268Y1624428D01*
X2891668Y1676384D02*
X2901668Y1696384D01*
X2891668Y1716384D01*
X2911668Y1706384D01*
X2931668Y1716384D01*
X2921668Y1696384D01*
X2931668Y1676384D01*
X2911668Y1686384D01*
X2891668Y1676384D01*
X1762033Y2163186D02*
X1772033Y2183186D01*
X1762033Y2203186D01*
X1782033Y2193186D01*
X1802033Y2203186D01*
X1792033Y2183186D01*
X1802033Y2163186D01*
X1782033Y2173186D01*
X1762033Y2163186D01*
X1701022Y2133629D02*
X1711022Y2153629D01*
X1701022Y2173629D01*
X1721022Y2163629D01*
X1741022Y2173629D01*
X1731022Y2153629D01*
X1741022Y2133629D01*
X1721022Y2143629D01*
X1701022Y2133629D01*
X3917008Y2034803D02*
X3927008Y2054803D01*
X3917008Y2074803D01*
X3937008Y2064803D01*
X3957008Y2074803D01*
X3947008Y2054803D01*
X3957008Y2034803D01*
X3937008Y2044803D01*
X3917008Y2034803D01*
X3865827Y1959325D02*
X3875827Y1979325D01*
X3865827Y1999325D01*
X3885827Y1989325D01*
X3905827Y1999325D01*
X3895827Y1979325D01*
X3905827Y1959325D01*
X3885827Y1969325D01*
X3865827Y1959325D01*
X3736474Y1909134D02*
X3746474Y1929134D01*
X3736474Y1949134D01*
X3756474Y1939134D01*
X3776474Y1949134D01*
X3766474Y1929134D01*
X3776474Y1909134D01*
X3756474Y1919134D01*
X3736474Y1909134D01*
X3765946Y1813150D02*
X3775946Y1833150D01*
X3765946Y1853150D01*
X3785946Y1843150D01*
X3805946Y1853150D01*
X3795946Y1833150D01*
X3805946Y1813150D01*
X3785946Y1823150D01*
X3765946Y1813150D01*
X3254724Y2080347D02*
X3264724Y2100347D01*
X3254724Y2120347D01*
X3274724Y2110347D01*
X3294724Y2120347D01*
X3284724Y2100347D01*
X3294724Y2080347D01*
X3274724Y2090347D01*
X3254724Y2080347D01*
X3185000Y1971563D02*
X3195000Y1991563D01*
X3185000Y2011563D01*
X3205000Y2001563D01*
X3225000Y2011563D01*
X3215000Y1991563D01*
X3225000Y1971563D01*
X3205000Y1981563D01*
X3185000Y1971563D01*
X3168970Y2027240D02*
X3178970Y2047240D01*
X3168970Y2067240D01*
X3188970Y2057240D01*
X3208970Y2067240D01*
X3198970Y2047240D01*
X3208970Y2027240D01*
X3188970Y2037240D01*
X3168970Y2027240D01*
X3674016Y1451839D02*
X3684016Y1471839D01*
X3674016Y1491839D01*
X3694016Y1481839D01*
X3714016Y1491839D01*
X3704016Y1471839D01*
X3714016Y1451839D01*
X3694016Y1461839D01*
X3674016Y1451839D01*
X4058004Y1328148D02*
X4068004Y1348148D01*
X4058004Y1368148D01*
X4078004Y1358148D01*
X4098004Y1368148D01*
X4088004Y1348148D01*
X4098004Y1328148D01*
X4078004Y1338148D01*
X4058004Y1328148D01*
X2529167Y1617326D02*
X2539167Y1637326D01*
X2529167Y1657326D01*
X2549167Y1647326D01*
X2569167Y1657326D01*
X2559167Y1637326D01*
X2569167Y1617326D01*
X2549167Y1627326D01*
X2529167Y1617326D01*
X2696574Y1155000D02*
X2706574Y1175000D01*
X2696574Y1195000D01*
X2716574Y1185000D01*
X2736574Y1195000D01*
X2726574Y1175000D01*
X2736574Y1155000D01*
X2716574Y1165000D01*
X2696574Y1155000D01*
X3000314Y2180047D02*
X3010314Y2200047D01*
X3000314Y2220047D01*
X3020314Y2210047D01*
X3040314Y2220047D01*
X3030314Y2200047D01*
X3040314Y2180047D01*
X3020314Y2190047D01*
X3000314Y2180047D01*
X3148348Y1652382D02*
X3158348Y1672382D01*
X3148348Y1692382D01*
X3168348Y1682382D01*
X3188348Y1692382D01*
X3178348Y1672382D01*
X3188348Y1652382D01*
X3168348Y1662382D01*
X3148348Y1652382D01*
X2861802Y1624428D02*
X2871802Y1644428D01*
X2861802Y1664428D01*
X2881802Y1654428D01*
X2901802Y1664428D01*
X2891802Y1644428D01*
X2901802Y1624428D01*
X2881802Y1634428D01*
X2861802Y1624428D01*
X2867795Y1735906D02*
X2877795Y1755906D01*
X2867795Y1775906D01*
X2887795Y1765906D01*
X2907795Y1775906D01*
X2897795Y1755906D01*
X2907795Y1735906D01*
X2887795Y1745906D01*
X2867795Y1735906D01*
X3226822Y1966284D02*
X3236822Y1986284D01*
X3226822Y2006284D01*
X3246822Y1996284D01*
X3266822Y2006284D01*
X3256822Y1986284D01*
X3266822Y1966284D01*
X3246822Y1976284D01*
X3226822Y1966284D01*
X3114606Y1969402D02*
X3124606Y1989402D01*
X3114606Y2009402D01*
X3134606Y1999402D01*
X3154606Y2009402D01*
X3144606Y1989402D01*
X3154606Y1969402D01*
X3134606Y1979402D01*
X3114606Y1969402D01*
X2934066Y1909134D02*
X2944066Y1929134D01*
X2934066Y1949134D01*
X2954066Y1939134D01*
X2974066Y1949134D01*
X2964066Y1929134D01*
X2974066Y1909134D01*
X2954066Y1919134D01*
X2934066Y1909134D01*
X2699242Y1753108D02*
X2709242Y1773108D01*
X2699242Y1793108D01*
X2719242Y1783108D01*
X2739242Y1793108D01*
X2729242Y1773108D01*
X2739242Y1753108D01*
X2719242Y1763108D01*
X2699242Y1753108D01*
X2796314Y1920001D02*
X2806314Y1940001D01*
X2796314Y1960001D01*
X2816314Y1950001D01*
X2836314Y1960001D01*
X2826314Y1940001D01*
X2836314Y1920001D01*
X2816314Y1930001D01*
X2796314Y1920001D01*
X2619776Y1887480D02*
X2629776Y1907480D01*
X2619776Y1927480D01*
X2639776Y1917480D01*
X2659776Y1927480D01*
X2649776Y1907480D01*
X2659776Y1887480D01*
X2639776Y1897480D01*
X2619776Y1887480D01*
X2650146Y2086299D02*
X2660146Y2106299D01*
X2650146Y2126299D01*
X2670146Y2116299D01*
X2690146Y2126299D01*
X2680146Y2106299D01*
X2690146Y2086299D01*
X2670146Y2096299D01*
X2650146Y2086299D01*
X2145354Y1694024D02*
X2155354Y1714024D01*
X2145354Y1734024D01*
X2165354Y1724024D01*
X2185354Y1734024D01*
X2175354Y1714024D01*
X2185354Y1694024D01*
X2165354Y1704024D01*
X2145354Y1694024D01*
X1813213Y1444251D02*
X1823213Y1464251D01*
X1813213Y1484251D01*
X1833213Y1474251D01*
X1853213Y1484251D01*
X1843213Y1464251D01*
X1853213Y1444251D01*
X1833213Y1454251D01*
X1813213Y1444251D01*
X2263465Y1425000D02*
X2273465Y1445000D01*
X2263465Y1465000D01*
X2283465Y1455000D01*
X2303465Y1465000D01*
X2293465Y1445000D01*
X2303465Y1425000D01*
X2283465Y1435000D01*
X2263465Y1425000D01*
X2145354D02*
X2155354Y1445000D01*
X2145354Y1465000D01*
X2165354Y1455000D01*
X2185354Y1465000D01*
X2175354Y1445000D01*
X2185354Y1425000D01*
X2165354Y1435000D01*
X2145354Y1425000D01*
X2220217Y1649758D02*
X2230217Y1669758D01*
X2220217Y1689758D01*
X2240217Y1679758D01*
X2260217Y1689758D01*
X2250217Y1669758D01*
X2260217Y1649758D01*
X2240217Y1659758D01*
X2220217Y1649758D01*
X2247978Y1609533D02*
X2257978Y1629533D01*
X2247978Y1649533D01*
X2267978Y1639533D01*
X2287978Y1649533D01*
X2277978Y1629533D01*
X2287978Y1609533D01*
X2267978Y1619533D01*
X2247978Y1609533D01*
X2204409Y2022322D02*
X2214409Y2042322D01*
X2204409Y2062322D01*
X2224409Y2052322D01*
X2244409Y2062322D01*
X2234409Y2042322D01*
X2244409Y2022322D01*
X2224409Y2032322D01*
X2204409Y2022322D01*
X2243952Y2042992D02*
X2253952Y2062992D01*
X2243952Y2082992D01*
X2263952Y2072992D01*
X2283952Y2082992D01*
X2273952Y2062992D01*
X2283952Y2042992D01*
X2263952Y2052992D01*
X2243952Y2042992D01*
X1810709Y1732954D02*
X1820709Y1752954D01*
X1810709Y1772954D01*
X1830709Y1762954D01*
X1850709Y1772954D01*
X1840709Y1752954D01*
X1850709Y1732954D01*
X1830709Y1742954D01*
X1810709Y1732954D01*
X2726467Y1485748D02*
X2736467Y1505748D01*
X2726467Y1525748D01*
X2746467Y1515748D01*
X2766467Y1525748D01*
X2756467Y1505748D01*
X2766467Y1485748D01*
X2746467Y1495748D01*
X2726467Y1485748D01*
X3680787Y1248426D02*
X3690787Y1268426D01*
X3680787Y1288426D01*
X3700787Y1278426D01*
X3720787Y1288426D01*
X3710787Y1268426D01*
X3720787Y1248426D01*
X3700787Y1258426D01*
X3680787Y1248426D01*
X3880000Y1182519D02*
X3890000Y1202519D01*
X3880000Y1222519D01*
X3900000Y1212519D01*
X3920000Y1222519D01*
X3910000Y1202519D01*
X3920000Y1182519D01*
X3900000Y1192519D01*
X3880000Y1182519D01*
X3965552Y1274646D02*
X3975552Y1294646D01*
X3965552Y1314646D01*
X3985552Y1304646D01*
X4005552Y1314646D01*
X3995552Y1294646D01*
X4005552Y1274646D01*
X3985552Y1284646D01*
X3965552Y1274646D01*
X1534393Y1603032D02*
X1544393Y1623032D01*
X1534393Y1643032D01*
X1554393Y1633032D01*
X1574393Y1643032D01*
X1564393Y1623032D01*
X1574393Y1603032D01*
X1554393Y1613032D01*
X1534393Y1603032D01*
Y1760000D02*
X1544393Y1780000D01*
X1534393Y1800000D01*
X1554393Y1790000D01*
X1574393Y1800000D01*
X1564393Y1780000D01*
X1574393Y1760000D01*
X1554393Y1770000D01*
X1534393Y1760000D01*
X2086024Y1225000D02*
X2096024Y1245000D01*
X2086024Y1265000D01*
X2106024Y1255000D01*
X2126024Y1265000D01*
X2116024Y1245000D01*
X2126024Y1225000D01*
X2106024Y1235000D01*
X2086024Y1225000D01*
X3333385Y1508756D02*
X3343385Y1528756D01*
X3333385Y1548756D01*
X3353385Y1538756D01*
X3373385Y1548756D01*
X3363385Y1528756D01*
X3373385Y1508756D01*
X3353385Y1518756D01*
X3333385Y1508756D01*
X2852480Y1185000D02*
Y1175000D01*
X2872480D01*
Y1185000D01*
X2882480D01*
Y1205000D01*
X2872480D01*
Y1215000D01*
X2852480D01*
Y1205000D01*
X2842480D01*
Y1185000D01*
X2852480D01*
D109*
X1215000Y1144685D02*
G03*
X1215000Y1144685I-20000J0D01*
G01*
Y2140749D02*
G03*
X1215000Y2140749I-20000J0D01*
G01*
X4415078Y2139449D02*
G03*
X4415078Y2139449I-20000J0D01*
G01*
Y1143385D02*
G03*
X4415078Y1143385I-20000J0D01*
G01*
%TF.MD5,ff4d843f1a143ef8ba1d5f5833432596*%
M02*
