%TF.GenerationSoftware,Altium Limited,Altium Designer,18.1.9 (240)*%
G04 Layer_Color=65535*
%FSLAX26Y26*%
%MOIN*%
%TF.FileFunction,Legend,Top*%
%TF.Part,Single*%
G01*
G75*
%TA.AperFunction,NonConductor*%
%ADD54C,0.007874*%
%ADD55C,0.009842*%
%ADD57C,0.023622*%
%ADD58C,0.005906*%
%ADD59C,0.010000*%
%ADD83C,0.039370*%
%ADD84C,0.015748*%
G36*
X1767579Y1950723D02*
Y1950667D01*
X1767524Y1950556D01*
X1767413Y1950334D01*
X1767357Y1950056D01*
X1767191Y1949724D01*
X1767024Y1949280D01*
X1766691Y1948391D01*
X1766303Y1947392D01*
X1765859Y1946393D01*
X1765415Y1945450D01*
X1765026Y1944673D01*
X1765082D01*
X1765248D01*
X1765470Y1944728D01*
X1765803D01*
X1766192Y1944784D01*
X1766636Y1944840D01*
X1767635Y1944895D01*
X1768689Y1945006D01*
X1769799Y1945117D01*
X1770743Y1945172D01*
X1771187D01*
X1771575D01*
Y1941399D01*
X1771520D01*
X1771464D01*
X1771298D01*
X1771131D01*
X1770521Y1941454D01*
X1769799Y1941509D01*
X1768856Y1941620D01*
X1767690Y1941676D01*
X1766414Y1941842D01*
X1765026Y1942009D01*
Y1941954D01*
X1765082Y1941898D01*
X1765137Y1941732D01*
X1765248Y1941509D01*
X1765526Y1940955D01*
X1765859Y1940233D01*
X1766247Y1939345D01*
X1766691Y1938291D01*
X1767135Y1937125D01*
X1767579Y1935849D01*
X1763861Y1934628D01*
Y1934683D01*
X1763805Y1934794D01*
X1763750Y1934960D01*
X1763694Y1935182D01*
X1763583Y1935515D01*
X1763472Y1935849D01*
X1763250Y1936681D01*
X1763028Y1937680D01*
X1762751Y1938790D01*
X1762529Y1939956D01*
X1762362Y1941177D01*
X1762307Y1941121D01*
X1762085Y1940899D01*
X1761752Y1940511D01*
X1761252Y1940011D01*
X1760531Y1939345D01*
X1759698Y1938623D01*
X1758644Y1937680D01*
X1757423Y1936681D01*
X1755258Y1939789D01*
X1755369Y1939844D01*
X1755647Y1940066D01*
X1756091Y1940399D01*
X1756701Y1940843D01*
X1757534Y1941343D01*
X1758477Y1941954D01*
X1759587Y1942675D01*
X1760808Y1943397D01*
X1760753D01*
X1760642Y1943452D01*
X1760475Y1943563D01*
X1760198Y1943729D01*
X1759532Y1944062D01*
X1758755Y1944506D01*
X1757867Y1945062D01*
X1756923Y1945617D01*
X1756035Y1946227D01*
X1755258Y1946782D01*
X1757423Y1949834D01*
X1757478Y1949779D01*
X1757589Y1949724D01*
X1757756Y1949557D01*
X1758033Y1949335D01*
X1758699Y1948835D01*
X1759476Y1948169D01*
X1760309Y1947448D01*
X1761086Y1946726D01*
X1761807Y1946061D01*
X1762140Y1945783D01*
X1762362Y1945505D01*
Y1945561D01*
X1762418Y1945672D01*
Y1945839D01*
X1762473Y1946061D01*
X1762529Y1946393D01*
X1762640Y1946726D01*
X1762806Y1947559D01*
X1763028Y1948558D01*
X1763250Y1949612D01*
X1763861Y1951888D01*
X1767579Y1950723D01*
D02*
G37*
G36*
X1649469D02*
Y1950667D01*
X1649414Y1950556D01*
X1649303Y1950334D01*
X1649247Y1950056D01*
X1649081Y1949724D01*
X1648914Y1949280D01*
X1648581Y1948391D01*
X1648193Y1947392D01*
X1647749Y1946393D01*
X1647305Y1945450D01*
X1646916Y1944673D01*
X1646972D01*
X1647138D01*
X1647360Y1944728D01*
X1647693D01*
X1648082Y1944784D01*
X1648526Y1944840D01*
X1649525Y1944895D01*
X1650579Y1945006D01*
X1651689Y1945117D01*
X1652633Y1945172D01*
X1653077D01*
X1653465D01*
Y1941399D01*
X1653410D01*
X1653354D01*
X1653188D01*
X1653021D01*
X1652411Y1941454D01*
X1651689Y1941509D01*
X1650746Y1941620D01*
X1649580Y1941676D01*
X1648304Y1941842D01*
X1646916Y1942009D01*
Y1941954D01*
X1646972Y1941898D01*
X1647027Y1941732D01*
X1647138Y1941509D01*
X1647416Y1940955D01*
X1647749Y1940233D01*
X1648137Y1939345D01*
X1648581Y1938291D01*
X1649025Y1937125D01*
X1649469Y1935849D01*
X1645751Y1934628D01*
Y1934683D01*
X1645695Y1934794D01*
X1645640Y1934960D01*
X1645584Y1935182D01*
X1645473Y1935515D01*
X1645362Y1935849D01*
X1645140Y1936681D01*
X1644918Y1937680D01*
X1644641Y1938790D01*
X1644419Y1939956D01*
X1644252Y1941177D01*
X1644197Y1941121D01*
X1643975Y1940899D01*
X1643642Y1940511D01*
X1643142Y1940011D01*
X1642421Y1939345D01*
X1641588Y1938623D01*
X1640534Y1937680D01*
X1639313Y1936681D01*
X1637148Y1939789D01*
X1637259Y1939844D01*
X1637537Y1940066D01*
X1637981Y1940399D01*
X1638591Y1940843D01*
X1639424Y1941343D01*
X1640367Y1941954D01*
X1641477Y1942675D01*
X1642698Y1943397D01*
X1642643D01*
X1642532Y1943452D01*
X1642365Y1943563D01*
X1642088Y1943729D01*
X1641422Y1944062D01*
X1640645Y1944506D01*
X1639757Y1945062D01*
X1638813Y1945617D01*
X1637925Y1946227D01*
X1637148Y1946782D01*
X1639313Y1949834D01*
X1639368Y1949779D01*
X1639479Y1949724D01*
X1639646Y1949557D01*
X1639923Y1949335D01*
X1640589Y1948835D01*
X1641366Y1948169D01*
X1642199Y1947448D01*
X1642976Y1946726D01*
X1643697Y1946061D01*
X1644030Y1945783D01*
X1644252Y1945505D01*
Y1945561D01*
X1644308Y1945672D01*
Y1945839D01*
X1644363Y1946061D01*
X1644419Y1946393D01*
X1644530Y1946726D01*
X1644696Y1947559D01*
X1644918Y1948558D01*
X1645140Y1949612D01*
X1645751Y1951888D01*
X1649469Y1950723D01*
D02*
G37*
G36*
X1953800Y1326575D02*
X1953856Y1326464D01*
X1953911Y1326297D01*
X1953967Y1326075D01*
X1954078Y1325742D01*
X1954189Y1325409D01*
X1954411Y1324577D01*
X1954633Y1323578D01*
X1954910Y1322468D01*
X1955132Y1321302D01*
X1955299Y1320081D01*
X1955354Y1320137D01*
X1955576Y1320359D01*
X1955909Y1320747D01*
X1956409Y1321247D01*
X1957130Y1321913D01*
X1957963Y1322634D01*
X1959017Y1323578D01*
X1960238Y1324577D01*
X1962403Y1321469D01*
X1962292Y1321413D01*
X1962014Y1321191D01*
X1961570Y1320858D01*
X1960960Y1320414D01*
X1960127Y1319915D01*
X1959184Y1319304D01*
X1958074Y1318583D01*
X1956853Y1317861D01*
X1956908D01*
X1957019Y1317806D01*
X1957186Y1317695D01*
X1957463Y1317528D01*
X1958129Y1317195D01*
X1958906Y1316751D01*
X1959794Y1316196D01*
X1960738Y1315641D01*
X1961626Y1315031D01*
X1962403Y1314476D01*
X1960238Y1311423D01*
X1960183Y1311479D01*
X1960072Y1311534D01*
X1959905Y1311701D01*
X1959628Y1311923D01*
X1958962Y1312422D01*
X1958185Y1313088D01*
X1957352Y1313810D01*
X1956575Y1314531D01*
X1955854Y1315197D01*
X1955521Y1315475D01*
X1955299Y1315752D01*
Y1315697D01*
X1955243Y1315586D01*
Y1315419D01*
X1955188Y1315197D01*
X1955132Y1314864D01*
X1955021Y1314531D01*
X1954855Y1313699D01*
X1954633Y1312700D01*
X1954411Y1311645D01*
X1953800Y1309370D01*
X1950082Y1310535D01*
Y1310591D01*
X1950137Y1310702D01*
X1950248Y1310924D01*
X1950304Y1311201D01*
X1950470Y1311534D01*
X1950637Y1311978D01*
X1950970Y1312866D01*
X1951358Y1313865D01*
X1951802Y1314864D01*
X1952246Y1315808D01*
X1952635Y1316585D01*
X1952579D01*
X1952413D01*
X1952191Y1316529D01*
X1951858D01*
X1951469Y1316474D01*
X1951025Y1316418D01*
X1950026Y1316363D01*
X1948972Y1316252D01*
X1947862Y1316141D01*
X1946918Y1316085D01*
X1946474D01*
X1946086D01*
Y1319859D01*
X1946141D01*
X1946197D01*
X1946363D01*
X1946530D01*
X1947140Y1319804D01*
X1947862Y1319748D01*
X1948805Y1319637D01*
X1949971Y1319582D01*
X1951247Y1319415D01*
X1952635Y1319249D01*
Y1319304D01*
X1952579Y1319360D01*
X1952524Y1319526D01*
X1952413Y1319748D01*
X1952135Y1320303D01*
X1951802Y1321025D01*
X1951414Y1321913D01*
X1950970Y1322967D01*
X1950526Y1324133D01*
X1950082Y1325409D01*
X1953800Y1326630D01*
Y1326575D01*
D02*
G37*
G36*
X2398642Y1346929D02*
X2398698Y1346818D01*
X2398753Y1346651D01*
X2398809Y1346429D01*
X2398920Y1346097D01*
X2399031Y1345764D01*
X2399253Y1344931D01*
X2399475Y1343932D01*
X2399753Y1342822D01*
X2399974Y1341657D01*
X2400141Y1340436D01*
X2400197Y1340491D01*
X2400419Y1340713D01*
X2400751Y1341101D01*
X2401251Y1341601D01*
X2401972Y1342267D01*
X2402805Y1342988D01*
X2403860Y1343932D01*
X2405081Y1344931D01*
X2407245Y1341823D01*
X2407134Y1341767D01*
X2406856Y1341545D01*
X2406412Y1341213D01*
X2405802Y1340768D01*
X2404970Y1340269D01*
X2404026Y1339659D01*
X2402916Y1338937D01*
X2401695Y1338216D01*
X2401751D01*
X2401861Y1338160D01*
X2402028Y1338049D01*
X2402305Y1337882D01*
X2402972Y1337550D01*
X2403749Y1337105D01*
X2404637Y1336551D01*
X2405580Y1335995D01*
X2406468Y1335385D01*
X2407245Y1334830D01*
X2405081Y1331777D01*
X2405025Y1331833D01*
X2404914Y1331889D01*
X2404747Y1332055D01*
X2404470Y1332277D01*
X2403804Y1332776D01*
X2403027Y1333443D01*
X2402195Y1334164D01*
X2401418Y1334886D01*
X2400696Y1335552D01*
X2400363Y1335829D01*
X2400141Y1336107D01*
Y1336051D01*
X2400086Y1335940D01*
Y1335774D01*
X2400030Y1335552D01*
X2399974Y1335218D01*
X2399863Y1334886D01*
X2399697Y1334053D01*
X2399475Y1333054D01*
X2399253Y1331999D01*
X2398642Y1329724D01*
X2394924Y1330889D01*
Y1330945D01*
X2394979Y1331056D01*
X2395090Y1331278D01*
X2395146Y1331555D01*
X2395312Y1331889D01*
X2395479Y1332332D01*
X2395812Y1333220D01*
X2396200Y1334219D01*
X2396644Y1335218D01*
X2397088Y1336162D01*
X2397477Y1336939D01*
X2397421D01*
X2397255D01*
X2397033Y1336883D01*
X2396700D01*
X2396311Y1336828D01*
X2395867Y1336773D01*
X2394869Y1336717D01*
X2393814Y1336606D01*
X2392704Y1336495D01*
X2391760Y1336439D01*
X2391316D01*
X2390928D01*
Y1340214D01*
X2390983D01*
X2391039D01*
X2391206D01*
X2391372D01*
X2391983Y1340158D01*
X2392704Y1340102D01*
X2393648Y1339992D01*
X2394813Y1339936D01*
X2396090Y1339770D01*
X2397477Y1339603D01*
Y1339659D01*
X2397421Y1339714D01*
X2397366Y1339880D01*
X2397255Y1340102D01*
X2396977Y1340658D01*
X2396644Y1341379D01*
X2396256Y1342267D01*
X2395812Y1343322D01*
X2395368Y1344487D01*
X2394924Y1345764D01*
X2398642Y1346985D01*
Y1346929D01*
D02*
G37*
G36*
X3006037Y1319119D02*
X3006092Y1319008D01*
X3006148Y1318842D01*
X3006203Y1318620D01*
X3006314Y1318287D01*
X3006425Y1317954D01*
X3006647Y1317121D01*
X3006869Y1316122D01*
X3007147Y1315012D01*
X3007369Y1313847D01*
X3007535Y1312626D01*
X3007591Y1312681D01*
X3007813Y1312903D01*
X3008146Y1313292D01*
X3008645Y1313791D01*
X3009367Y1314457D01*
X3010199Y1315179D01*
X3011254Y1316122D01*
X3012475Y1317121D01*
X3014639Y1314013D01*
X3014528Y1313958D01*
X3014251Y1313736D01*
X3013807Y1313403D01*
X3013196Y1312959D01*
X3012364Y1312459D01*
X3011420Y1311849D01*
X3010310Y1311127D01*
X3009089Y1310406D01*
X3009145D01*
X3009256Y1310350D01*
X3009422Y1310239D01*
X3009700Y1310073D01*
X3010366Y1309740D01*
X3011143Y1309296D01*
X3012031Y1308741D01*
X3012974Y1308186D01*
X3013862Y1307575D01*
X3014639Y1307020D01*
X3012475Y1303968D01*
X3012419Y1304023D01*
X3012308Y1304079D01*
X3012142Y1304245D01*
X3011864Y1304467D01*
X3011198Y1304967D01*
X3010421Y1305633D01*
X3009589Y1306354D01*
X3008812Y1307076D01*
X3008090Y1307742D01*
X3007757Y1308019D01*
X3007535Y1308297D01*
Y1308241D01*
X3007480Y1308130D01*
Y1307964D01*
X3007424Y1307742D01*
X3007369Y1307409D01*
X3007258Y1307076D01*
X3007091Y1306243D01*
X3006869Y1305244D01*
X3006647Y1304190D01*
X3006037Y1301914D01*
X3002318Y1303080D01*
Y1303135D01*
X3002374Y1303246D01*
X3002485Y1303468D01*
X3002540Y1303746D01*
X3002707Y1304079D01*
X3002873Y1304523D01*
X3003206Y1305411D01*
X3003595Y1306410D01*
X3004039Y1307409D01*
X3004483Y1308352D01*
X3004871Y1309129D01*
X3004816D01*
X3004649D01*
X3004427Y1309074D01*
X3004094D01*
X3003706Y1309018D01*
X3003262Y1308963D01*
X3002263Y1308907D01*
X3001208Y1308796D01*
X3000098Y1308685D01*
X2999155Y1308630D01*
X2998711D01*
X2998322D01*
Y1312404D01*
X2998378D01*
X2998433D01*
X2998600D01*
X2998766D01*
X2999377Y1312348D01*
X3000098Y1312293D01*
X3001042Y1312182D01*
X3002207Y1312126D01*
X3003484Y1311960D01*
X3004871Y1311793D01*
Y1311849D01*
X3004816Y1311904D01*
X3004760Y1312071D01*
X3004649Y1312293D01*
X3004372Y1312848D01*
X3004039Y1313569D01*
X3003650Y1314457D01*
X3003206Y1315512D01*
X3002762Y1316677D01*
X3002318Y1317954D01*
X3006037Y1319175D01*
Y1319119D01*
D02*
G37*
G36*
X3229941Y1319116D02*
X3229996Y1319005D01*
X3230052Y1318839D01*
X3230107Y1318617D01*
X3230218Y1318284D01*
X3230329Y1317951D01*
X3230551Y1317118D01*
X3230773Y1316119D01*
X3231050Y1315009D01*
X3231273Y1313844D01*
X3231439Y1312623D01*
X3231494Y1312678D01*
X3231716Y1312900D01*
X3232050Y1313289D01*
X3232549Y1313788D01*
X3233271Y1314454D01*
X3234103Y1315176D01*
X3235157Y1316119D01*
X3236378Y1317118D01*
X3238543Y1314010D01*
X3238432Y1313955D01*
X3238155Y1313733D01*
X3237711Y1313400D01*
X3237100Y1312956D01*
X3236267Y1312456D01*
X3235324Y1311846D01*
X3234214Y1311124D01*
X3232993Y1310403D01*
X3233048D01*
X3233160Y1310347D01*
X3233326Y1310236D01*
X3233604Y1310070D01*
X3234269Y1309737D01*
X3235046Y1309293D01*
X3235934Y1308738D01*
X3236878Y1308183D01*
X3237766Y1307572D01*
X3238543Y1307017D01*
X3236378Y1303965D01*
X3236323Y1304020D01*
X3236212Y1304076D01*
X3236046Y1304242D01*
X3235768Y1304464D01*
X3235102Y1304964D01*
X3234325Y1305630D01*
X3233492Y1306351D01*
X3232715Y1307073D01*
X3231994Y1307739D01*
X3231661Y1308016D01*
X3231439Y1308294D01*
Y1308238D01*
X3231383Y1308127D01*
Y1307961D01*
X3231328Y1307739D01*
X3231273Y1307406D01*
X3231162Y1307073D01*
X3230995Y1306240D01*
X3230773Y1305241D01*
X3230551Y1304187D01*
X3229941Y1301911D01*
X3226222Y1303077D01*
Y1303132D01*
X3226278Y1303243D01*
X3226389Y1303465D01*
X3226444Y1303743D01*
X3226610Y1304076D01*
X3226777Y1304520D01*
X3227110Y1305408D01*
X3227499Y1306407D01*
X3227943Y1307406D01*
X3228387Y1308349D01*
X3228775Y1309126D01*
X3228720D01*
X3228553D01*
X3228331Y1309071D01*
X3227998D01*
X3227610Y1309015D01*
X3227166Y1308960D01*
X3226166Y1308904D01*
X3225112Y1308793D01*
X3224002Y1308682D01*
X3223059Y1308627D01*
X3222615D01*
X3222226D01*
Y1312401D01*
X3222282D01*
X3222337D01*
X3222503D01*
X3222670D01*
X3223280Y1312345D01*
X3224002Y1312290D01*
X3224945Y1312179D01*
X3226111Y1312123D01*
X3227387Y1311957D01*
X3228775Y1311790D01*
Y1311846D01*
X3228720Y1311901D01*
X3228664Y1312068D01*
X3228553Y1312290D01*
X3228276Y1312845D01*
X3227943Y1313566D01*
X3227554Y1314454D01*
X3227110Y1315509D01*
X3226666Y1316674D01*
X3226222Y1317951D01*
X3229941Y1319172D01*
Y1319116D01*
D02*
G37*
G36*
X3848642Y1234448D02*
X3848698Y1234337D01*
X3848753Y1234171D01*
X3848809Y1233949D01*
X3848920Y1233616D01*
X3849031Y1233283D01*
X3849253Y1232450D01*
X3849475Y1231451D01*
X3849753Y1230341D01*
X3849974Y1229176D01*
X3850141Y1227955D01*
X3850197Y1228010D01*
X3850419Y1228232D01*
X3850751Y1228621D01*
X3851251Y1229120D01*
X3851972Y1229786D01*
X3852805Y1230508D01*
X3853860Y1231451D01*
X3855081Y1232450D01*
X3857245Y1229342D01*
X3857134Y1229287D01*
X3856856Y1229065D01*
X3856412Y1228732D01*
X3855802Y1228288D01*
X3854970Y1227788D01*
X3854026Y1227178D01*
X3852916Y1226456D01*
X3851695Y1225735D01*
X3851751D01*
X3851861Y1225679D01*
X3852028Y1225568D01*
X3852305Y1225402D01*
X3852972Y1225069D01*
X3853749Y1224625D01*
X3854637Y1224070D01*
X3855580Y1223515D01*
X3856468Y1222904D01*
X3857245Y1222349D01*
X3855081Y1219297D01*
X3855025Y1219352D01*
X3854914Y1219408D01*
X3854747Y1219574D01*
X3854470Y1219796D01*
X3853804Y1220296D01*
X3853027Y1220962D01*
X3852195Y1221683D01*
X3851418Y1222405D01*
X3850696Y1223071D01*
X3850363Y1223348D01*
X3850141Y1223626D01*
Y1223570D01*
X3850086Y1223459D01*
Y1223293D01*
X3850030Y1223071D01*
X3849974Y1222738D01*
X3849863Y1222405D01*
X3849697Y1221572D01*
X3849475Y1220573D01*
X3849253Y1219519D01*
X3848642Y1217243D01*
X3844924Y1218409D01*
Y1218464D01*
X3844979Y1218575D01*
X3845090Y1218797D01*
X3845146Y1219075D01*
X3845312Y1219408D01*
X3845479Y1219852D01*
X3845812Y1220740D01*
X3846200Y1221739D01*
X3846644Y1222738D01*
X3847088Y1223681D01*
X3847477Y1224458D01*
X3847421D01*
X3847255D01*
X3847033Y1224403D01*
X3846700D01*
X3846311Y1224347D01*
X3845867Y1224292D01*
X3844869Y1224236D01*
X3843814Y1224125D01*
X3842704Y1224014D01*
X3841760Y1223959D01*
X3841316D01*
X3840928D01*
Y1227733D01*
X3840983D01*
X3841039D01*
X3841206D01*
X3841372D01*
X3841983Y1227677D01*
X3842704Y1227622D01*
X3843648Y1227511D01*
X3844813Y1227455D01*
X3846090Y1227289D01*
X3847477Y1227122D01*
Y1227178D01*
X3847421Y1227233D01*
X3847366Y1227400D01*
X3847255Y1227622D01*
X3846977Y1228177D01*
X3846644Y1228898D01*
X3846256Y1229786D01*
X3845812Y1230841D01*
X3845368Y1232006D01*
X3844924Y1233283D01*
X3848642Y1234504D01*
Y1234448D01*
D02*
G37*
D54*
X1562544Y1615242D02*
X1975928D01*
X1562544Y1804218D02*
X1975928D01*
X1562544Y1615242D02*
Y1804218D01*
X1975928Y1615242D02*
Y1804218D01*
X1747503Y1931888D02*
Y2092912D01*
X1677503Y1931888D02*
X1747503D01*
X1677503D02*
Y2092912D01*
X1747503D01*
X1629393Y1931888D02*
Y2092912D01*
X1559393Y1931888D02*
X1629393D01*
X1559393D02*
Y2092912D01*
X1629393D01*
X1970158Y1168346D02*
Y1329370D01*
X2040158D01*
Y1168346D02*
Y1329370D01*
X1970158Y1168346D02*
X2040158D01*
X2295965Y1783622D02*
X2556260Y1523327D01*
Y2043916D02*
X2816554Y1783622D01*
X2556260Y1523327D02*
X2816554Y1783622D01*
X2295965D02*
X2556260Y2043916D01*
X2415000Y1188700D02*
Y1349724D01*
X2485000D01*
Y1188700D02*
Y1349724D01*
X2415000Y1188700D02*
X2485000D01*
X3022394Y1160890D02*
Y1321914D01*
X3092394D01*
Y1160890D02*
Y1321914D01*
X3022394Y1160890D02*
X3092394D01*
X3246298Y1160887D02*
Y1321911D01*
X3316298D01*
Y1160887D02*
Y1321911D01*
X3246298Y1160887D02*
X3316298D01*
X3067451Y1382440D02*
Y1421810D01*
X3039891Y1382440D02*
X3067451D01*
X2949339D02*
Y1421810D01*
Y1382440D02*
X2976899D01*
X3304922Y1378070D02*
Y1417440D01*
X3277362Y1378070D02*
X3304922D01*
X3186810D02*
Y1417440D01*
Y1378070D02*
X3214370D01*
X3317046Y1708150D02*
X3407598D01*
X3317046Y1871534D02*
X3407598D01*
Y1708150D02*
Y1871534D01*
X3317046Y1708150D02*
Y1871534D01*
X3865000Y1076219D02*
Y1237243D01*
X3935000D01*
Y1076219D02*
Y1237243D01*
X3865000Y1076219D02*
X3935000D01*
X3520000Y1430984D02*
Y1679016D01*
X4020000Y1430984D02*
Y1679016D01*
X3520000Y1430984D02*
X4020000D01*
X3520000Y1679016D02*
X4020000D01*
D55*
X1576323Y1567014D02*
G03*
X1576323Y1567014I-4921J0D01*
G01*
X2524991Y2067578D02*
G03*
X2524991Y2067578I-4921J0D01*
G01*
X3088119Y1449370D02*
G03*
X3088119Y1449370I-4921J0D01*
G01*
X3325590Y1445000D02*
G03*
X3325590Y1445000I-4921J0D01*
G01*
X3076863Y2125838D02*
G03*
X3076863Y2125838I-4921J0D01*
G01*
X3279645Y1886299D02*
G03*
X3279645Y1886299I-4921J0D01*
G01*
X3985354Y1726260D02*
G03*
X3985354Y1726260I-4921J0D01*
G01*
X1672503Y1921888D02*
X1752503D01*
X2410000Y1359724D02*
X2490000D01*
D57*
X1613725Y1654612D02*
G03*
X1613725Y1654612I-11811J0D01*
G01*
X2568071Y1988237D02*
G03*
X2568071Y1988237I-11811J0D01*
G01*
X3368227Y1832165D02*
G03*
X3368227Y1832165I-11811J0D01*
G01*
X3992441Y1639646D02*
G03*
X3992441Y1639646I-11811J0D01*
G01*
D58*
X4029842Y2027244D02*
Y2082363D01*
X3979842Y2074803D02*
Y2082363D01*
X4079842D01*
Y2074803D02*
Y2082363D01*
Y2027244D02*
Y2034803D01*
X3979842Y2027244D02*
X4079842D01*
X3979842D02*
Y2034803D01*
X3968007Y1940945D02*
Y1996063D01*
X3918007Y1988504D02*
Y1996063D01*
X4018007D01*
Y1988504D02*
Y1996063D01*
Y1940945D02*
Y1948504D01*
X3918007Y1940945D02*
X4018007D01*
X3918007D02*
Y1948504D01*
X1783464Y2062992D02*
X1795276D01*
X1783464Y1952756D02*
Y2062992D01*
Y1952756D02*
X1795276D01*
X1826772D02*
X1838584D01*
Y2062992D01*
X1826772D02*
X1838584D01*
X1783464Y2007874D02*
X1838584D01*
X2036614Y1744093D02*
Y1751653D01*
Y1744093D02*
X2136614D01*
Y1751653D01*
Y1791653D02*
Y1799214D01*
X2036614D02*
X2136614D01*
X2036614Y1791653D02*
Y1799214D01*
X2086614Y1744093D02*
Y1799214D01*
X2141732Y1866142D02*
Y1877954D01*
X2031496D02*
X2141732D01*
X2031496Y1866142D02*
Y1877954D01*
Y1822834D02*
Y1834646D01*
Y1822834D02*
X2141732D01*
Y1834646D01*
X2086614Y1822834D02*
Y1877954D01*
X1862204Y2057874D02*
X1869764D01*
X1862204Y1957874D02*
Y2057874D01*
Y1957874D02*
X1869764D01*
X1909764D02*
X1917324D01*
Y2057874D01*
X1909764D02*
X1917324D01*
X1862204Y2007874D02*
X1917324D01*
X1940944Y2057874D02*
X1948504D01*
X1940944Y1957874D02*
Y2057874D01*
Y1957874D02*
X1948504D01*
X1988504D02*
X1996064D01*
Y2057874D01*
X1988504D02*
X1996064D01*
X1940944Y2007874D02*
X1996064D01*
X2031496Y1665353D02*
Y1677165D01*
Y1665353D02*
X2141732D01*
Y1677165D01*
Y1708661D02*
Y1720473D01*
X2031496D02*
X2141732D01*
X2031496Y1708661D02*
Y1720473D01*
X2086614Y1665353D02*
Y1720473D01*
X2036614Y1586613D02*
Y1594173D01*
Y1586613D02*
X2136614D01*
Y1594173D01*
Y1634173D02*
Y1641733D01*
X2036614D02*
X2136614D01*
X2036614Y1634173D02*
Y1641733D01*
X2086614Y1586613D02*
Y1641733D01*
X2298054Y2101269D02*
X2306406Y2109622D01*
X2298054Y2101269D02*
X2376003Y2023321D01*
X2384355Y2031673D01*
X2406626Y2053944D02*
X2414978Y2062296D01*
X2337030Y2140245D02*
X2414978Y2062296D01*
X2328677Y2131892D02*
X2337030Y2140245D01*
X2337028Y2062295D02*
X2376004Y2101271D01*
X2263952Y1951488D02*
X2272304Y1943135D01*
X2350253Y2021084D01*
X2341900Y2029436D02*
X2350253Y2021084D01*
X2311277Y2060060D02*
X2319629Y2051707D01*
X2233328Y1982111D02*
X2311277Y2060060D01*
X2233328Y1982111D02*
X2241681Y1973759D01*
X2272303Y2021085D02*
X2311278Y1982110D01*
X3322834Y1669291D02*
Y1681103D01*
X3212599D02*
X3322834D01*
X3212599Y1669291D02*
Y1681103D01*
Y1625983D02*
Y1637795D01*
Y1625983D02*
X3322834D01*
Y1637795D01*
X3267716Y1625983D02*
Y1681103D01*
X2375000Y1190590D02*
X2382560D01*
Y1290590D01*
X2375000D02*
X2382560D01*
X2327440D02*
X2335000D01*
X2327440Y1190590D02*
Y1290590D01*
Y1190590D02*
X2335000D01*
X2327440Y1240590D02*
X2382560D01*
X3146180Y1283739D02*
X3153740D01*
X3146180Y1183739D02*
Y1283739D01*
Y1183739D02*
X3153740D01*
X3193740D02*
X3201300D01*
Y1283739D01*
X3193740D02*
X3201300D01*
X3146180Y1233739D02*
X3201300D01*
X2926506Y1295000D02*
X2934066D01*
X2926506Y1195000D02*
Y1295000D01*
Y1195000D02*
X2934066D01*
X2974066D02*
X2981626D01*
Y1295000D01*
X2974066D02*
X2981626D01*
X2926506Y1245000D02*
X2981626D01*
X3140000Y1364410D02*
X3147560D01*
Y1464410D01*
X3140000D02*
X3147560D01*
X3092440D02*
X3100000D01*
X3092440Y1364410D02*
Y1464410D01*
Y1364410D02*
X3100000D01*
X3092440Y1414410D02*
X3147560D01*
X2821425Y1638097D02*
X2829777Y1629744D01*
X2743476Y1560148D02*
X2821425Y1638097D01*
X2743476Y1560148D02*
X2751829Y1551796D01*
X2774099Y1529525D02*
X2782452Y1521172D01*
X2860401Y1599121D01*
X2852048Y1607473D02*
X2860401Y1599121D01*
X2782450Y1599122D02*
X2821426Y1560147D01*
X2747526Y2171762D02*
X2752872Y2166417D01*
X2823583Y2237127D01*
X2818237Y2242473D02*
X2823583Y2237127D01*
X2784607Y2276103D02*
X2789953Y2270757D01*
X2713896Y2205392D02*
X2784607Y2276103D01*
X2713896Y2205392D02*
X2719242Y2200047D01*
X2749252Y2240748D02*
X2788228Y2201772D01*
X3014968Y1918691D02*
X3020314Y1913346D01*
X3091024Y1984056D01*
X3085678Y1989402D02*
X3091024Y1984056D01*
X3052048Y2023032D02*
X3057394Y2017686D01*
X2981338Y1952321D02*
X3052048Y2023032D01*
X2981338Y1952321D02*
X2986684Y1946976D01*
X3016693Y1987677D02*
X3055669Y1948701D01*
X3154093Y2125076D02*
X3162445Y2116724D01*
X3076144Y2047128D02*
X3154093Y2125076D01*
X3076144Y2047128D02*
X3084496Y2038775D01*
X3106767Y2016504D02*
X3115120Y2008152D01*
X3193068Y2086101D01*
X3184716Y2094453D02*
X3193068Y2086101D01*
X3115118Y2086102D02*
X3154094Y2047126D01*
X3205709Y2221259D02*
X3213269D01*
X3205709Y2121259D02*
Y2221259D01*
Y2121259D02*
X3213269D01*
X3253269D02*
X3260829D01*
Y2221259D01*
X3253269D02*
X3260829D01*
X3205709Y2171259D02*
X3260829D01*
X3273738Y2222168D02*
X3281298D01*
X3273738Y2122168D02*
Y2222168D01*
Y2122168D02*
X3281298D01*
X3321298D02*
X3328858D01*
Y2222168D01*
X3321298D02*
X3328858D01*
X3273738Y2172168D02*
X3328858D01*
X3386771Y1369410D02*
X3394331D01*
Y1469410D01*
X3386771D02*
X3394331D01*
X3339211D02*
X3346771D01*
X3339211Y1369410D02*
Y1469410D01*
Y1369410D02*
X3346771D01*
X3339211Y1419410D02*
X3394331D01*
X3469422Y1985590D02*
Y1993150D01*
Y1985590D02*
X3569422D01*
Y1993150D01*
Y2033150D02*
Y2040710D01*
X3469422D02*
X3569422D01*
X3469422Y2033150D02*
Y2040710D01*
X3519422Y1985590D02*
Y2040710D01*
X3469426Y1912440D02*
Y1920000D01*
Y1912440D02*
X3569426D01*
Y1920000D01*
Y1960000D02*
Y1967560D01*
X3469426D02*
X3569426D01*
X3469426Y1960000D02*
Y1967560D01*
X3519426Y1912440D02*
Y1967560D01*
X3737206Y1240866D02*
Y1252678D01*
Y1240866D02*
X3847442D01*
Y1252678D01*
Y1284174D02*
Y1295986D01*
X3737206D02*
X3847442D01*
X3737206Y1284174D02*
Y1295986D01*
X3792324Y1240866D02*
Y1295986D01*
X3777440Y1208149D02*
X3785000D01*
X3777440Y1108149D02*
Y1208149D01*
Y1108149D02*
X3785000D01*
X3825000D02*
X3832560D01*
Y1208149D01*
X3825000D02*
X3832560D01*
X3777440Y1158149D02*
X3832560D01*
X3665000Y1808740D02*
X3672560D01*
Y1908740D01*
X3665000D02*
X3672560D01*
X3617440D02*
X3625000D01*
X3617440Y1808740D02*
Y1908740D01*
Y1808740D02*
X3625000D01*
X3617440Y1858740D02*
X3672560D01*
X3988188Y1908934D02*
X4000000D01*
X3988188Y1798698D02*
Y1908934D01*
Y1798698D02*
X4000000D01*
X4031496D02*
X4043308D01*
Y1908934D01*
X4031496D02*
X4043308D01*
X3988188Y1853816D02*
X4043308D01*
D59*
X3284291Y895827D02*
Y925817D01*
X3274294Y935814D01*
X3264297Y925817D01*
Y905824D01*
X3254300Y895827D01*
X3244303Y905824D01*
Y935814D01*
X3234307Y965804D02*
X3244303D01*
Y955807D01*
Y975801D01*
Y965804D01*
X3274294D01*
X3284291Y975801D01*
X3244303Y1015788D02*
Y1035782D01*
X3254300Y1045778D01*
X3284291D01*
Y1015788D01*
X3274294Y1005791D01*
X3264297Y1015788D01*
Y1045778D01*
X3234307Y1075769D02*
X3244303D01*
Y1065772D01*
Y1085765D01*
Y1075769D01*
X3274294D01*
X3284291Y1085765D01*
Y1115756D02*
X3274294D01*
Y1125752D01*
X3284291D01*
Y1115756D01*
X1800000Y975492D02*
Y915512D01*
X1829990D01*
X1839987Y925509D01*
Y935505D01*
X1829990Y945502D01*
X1800000D01*
X1829990D01*
X1839987Y955499D01*
Y965496D01*
X1829990Y975492D01*
X1800000D01*
X1859981Y915512D02*
Y975492D01*
X1879974Y955499D01*
X1899968Y975492D01*
Y915512D01*
X1959948Y965496D02*
X1949951Y975492D01*
X1929958D01*
X1919961Y965496D01*
Y955499D01*
X1929958Y945502D01*
X1949951D01*
X1959948Y935505D01*
Y925509D01*
X1949951Y915512D01*
X1929958D01*
X1919961Y925509D01*
X2039922Y915512D02*
Y975492D01*
X2059916Y955499D01*
X2079910Y975492D01*
Y915512D01*
X2109900Y955499D02*
X2129893D01*
X2139890Y945502D01*
Y915512D01*
X2109900D01*
X2099903Y925509D01*
X2109900Y935505D01*
X2139890D01*
X2159884Y915512D02*
X2189874D01*
X2199871Y925509D01*
X2189874Y935505D01*
X2169880D01*
X2159884Y945502D01*
X2169880Y955499D01*
X2199871D01*
X2229861Y965496D02*
Y955499D01*
X2219864D01*
X2239858D01*
X2229861D01*
Y925509D01*
X2239858Y915512D01*
X2299838D02*
X2279845D01*
X2269848Y925509D01*
Y945502D01*
X2279845Y955499D01*
X2299838D01*
X2309835Y945502D01*
Y935505D01*
X2269848D01*
X2329829Y955499D02*
Y915512D01*
Y935505D01*
X2339825Y945502D01*
X2349822Y955499D01*
X2359819D01*
X2449790Y915512D02*
Y975492D01*
X2479780D01*
X2489777Y965496D01*
Y945502D01*
X2479780Y935505D01*
X2449790D01*
X2469783D02*
X2489777Y915512D01*
X2549758D02*
X2509770D01*
X2549758Y955499D01*
Y965496D01*
X2539761Y975492D01*
X2519767D01*
X2509770Y965496D01*
X3062640Y905824D02*
Y925817D01*
X3052643Y935814D01*
X3032650D01*
X3022653Y925817D01*
Y905824D01*
X3032650Y895827D01*
X3052643D01*
X3062640Y905824D01*
Y955807D02*
X3002659D01*
X3042646D02*
X3022653Y985798D01*
X3042646Y955807D02*
X3062640Y985798D01*
Y1015788D02*
X3052643D01*
Y1025785D01*
X3062640D01*
Y1015788D01*
Y1065772D02*
X3052643D01*
Y1075769D01*
X3062640D01*
Y1065772D01*
Y1115756D02*
X3052643D01*
Y1125752D01*
X3062640D01*
Y1115756D01*
X3694016Y1957413D02*
Y2017393D01*
X3724006D01*
X3734003Y2007397D01*
Y1987403D01*
X3724006Y1977406D01*
X3694016D01*
X3714010D02*
X3734003Y1957413D01*
X3793984D02*
X3753997D01*
X3793984Y1997400D01*
Y2007397D01*
X3783987Y2017393D01*
X3763993D01*
X3753997Y2007397D01*
X3813977D02*
X3823974Y2017393D01*
X3843968D01*
X3853964Y2007397D01*
Y1967410D01*
X3843968Y1957413D01*
X3823974D01*
X3813977Y1967410D01*
Y2007397D01*
X3917323Y2112476D02*
Y2172456D01*
X3947313D01*
X3957310Y2162459D01*
Y2142466D01*
X3947313Y2132469D01*
X3917323D01*
X3937316D02*
X3957310Y2112476D01*
X3977303D02*
X3997297D01*
X3987300D01*
Y2172456D01*
X3977303Y2162459D01*
X4027287Y2122472D02*
X4037284Y2112476D01*
X4057278D01*
X4067274Y2122472D01*
Y2162459D01*
X4057278Y2172456D01*
X4037284D01*
X4027287Y2162459D01*
Y2152463D01*
X4037284Y2142466D01*
X4067274D01*
X3725965Y2062992D02*
Y2082985D01*
Y2072989D01*
X3785946D01*
Y2062992D01*
Y2082985D01*
X3735962Y2152963D02*
X3725965Y2142966D01*
Y2122973D01*
X3735962Y2112976D01*
X3745959D01*
X3755955Y2122973D01*
Y2142966D01*
X3765952Y2152963D01*
X3775949D01*
X3785946Y2142966D01*
Y2122973D01*
X3775949Y2112976D01*
X3725965Y2202947D02*
Y2182953D01*
X3735962Y2172956D01*
X3775949D01*
X3785946Y2182953D01*
Y2202947D01*
X3775949Y2212943D01*
X3735962D01*
X3725965Y2202947D01*
X3785946Y2232937D02*
X3725965D01*
Y2262927D01*
X3735962Y2272924D01*
X3755955D01*
X3765952Y2262927D01*
Y2232937D01*
X3536948Y2056103D02*
Y2076097D01*
Y2066100D01*
X3596928D01*
Y2056103D01*
Y2076097D01*
X3546945Y2146074D02*
X3536948Y2136077D01*
Y2116084D01*
X3546945Y2106087D01*
X3556941D01*
X3566938Y2116084D01*
Y2136077D01*
X3576935Y2146074D01*
X3586932D01*
X3596928Y2136077D01*
Y2116084D01*
X3586932Y2106087D01*
X3536948Y2196058D02*
Y2176064D01*
X3546945Y2166067D01*
X3586932D01*
X3596928Y2176064D01*
Y2196058D01*
X3586932Y2206055D01*
X3546945D01*
X3536948Y2196058D01*
X3596928Y2226048D02*
X3536948D01*
X3596928Y2266035D01*
X3536948D01*
X2524466Y2147439D02*
Y2097455D01*
X2534463Y2087458D01*
X2554456D01*
X2564453Y2097455D01*
Y2147439D01*
X2584447D02*
X2624434D01*
Y2137442D01*
X2584447Y2097455D01*
Y2087458D01*
X1469946Y1866142D02*
X1519930D01*
X1529927Y1876139D01*
Y1896132D01*
X1519930Y1906129D01*
X1469946D01*
Y1966109D02*
X1479943Y1946116D01*
X1499937Y1926122D01*
X1519930D01*
X1529927Y1936119D01*
Y1956113D01*
X1519930Y1966109D01*
X1509934D01*
X1499937Y1956113D01*
Y1926122D01*
X3143483Y1726260D02*
X3193467D01*
X3203464Y1736257D01*
Y1756250D01*
X3193467Y1766247D01*
X3143483D01*
X3203464Y1826228D02*
Y1786241D01*
X3163477Y1826228D01*
X3153480D01*
X3143483Y1816231D01*
Y1796237D01*
X3153480Y1786241D01*
X4060667Y1583152D02*
Y1533168D01*
X4070664Y1523172D01*
X4090658D01*
X4100654Y1533168D01*
Y1583152D01*
X4120648Y1523172D02*
X4140641D01*
X4130645D01*
Y1583152D01*
X4120648Y1573155D01*
X2243512Y1372421D02*
X2283499D01*
X2263505D01*
Y1312440D01*
X2303492Y1372421D02*
X2343479Y1312440D01*
Y1372421D02*
X2303492Y1312440D01*
X3392421Y2284184D02*
X3382425Y2274187D01*
Y2254193D01*
X3392421Y2244197D01*
X3402418D01*
X3412415Y2254193D01*
Y2274187D01*
X3422412Y2284184D01*
X3432408D01*
X3442405Y2274187D01*
Y2254193D01*
X3432408Y2244197D01*
X3392421Y2344164D02*
X3382425Y2334168D01*
Y2314174D01*
X3392421Y2304177D01*
X3432408D01*
X3442405Y2314174D01*
Y2334168D01*
X3432408Y2344164D01*
X3382425Y2364158D02*
X3442405D01*
X3422412D01*
X3382425Y2404145D01*
X3412415Y2374155D01*
X3442405Y2404145D01*
X2079424Y1312440D02*
Y1372421D01*
X2109415D01*
X2119412Y1362424D01*
Y1342431D01*
X2109415Y1332434D01*
X2079424D01*
X2099418D02*
X2119412Y1312440D01*
X2139405Y1372421D02*
X2179392Y1312440D01*
Y1372421D02*
X2139405Y1312440D01*
X1915062Y2084410D02*
X1855081D01*
Y2114400D01*
X1865078Y2124397D01*
X1885072D01*
X1895068Y2114400D01*
Y2084410D01*
Y2104403D02*
X1915062Y2124397D01*
Y2184377D02*
Y2144390D01*
X1875075Y2184377D01*
X1865078D01*
X1855081Y2174380D01*
Y2154387D01*
X1865078Y2144390D01*
X1915062Y2234361D02*
X1855081D01*
X1885072Y2204371D01*
Y2244358D01*
X1995141Y2086614D02*
X1935160D01*
Y2116604D01*
X1945157Y2126601D01*
X1965150D01*
X1975147Y2116604D01*
Y2086614D01*
Y2106608D02*
X1995141Y2126601D01*
Y2186582D02*
Y2146595D01*
X1955153Y2186582D01*
X1945157D01*
X1935160Y2176585D01*
Y2156592D01*
X1945157Y2146595D01*
Y2206575D02*
X1935160Y2216572D01*
Y2236566D01*
X1945157Y2246562D01*
X1955153D01*
X1965150Y2236566D01*
Y2226569D01*
Y2236566D01*
X1975147Y2246562D01*
X1985144D01*
X1995141Y2236566D01*
Y2216572D01*
X1985144Y2206575D01*
X2032324Y1904468D02*
Y1964448D01*
X2062314D01*
X2072311Y1954451D01*
Y1934458D01*
X2062314Y1924461D01*
X2032324D01*
X2052317D02*
X2072311Y1904468D01*
X2132291D02*
X2092304D01*
X2132291Y1944455D01*
Y1954451D01*
X2122295Y1964448D01*
X2102301D01*
X2092304Y1954451D01*
X2192272Y1904468D02*
X2152285D01*
X2192272Y1944455D01*
Y1954451D01*
X2182275Y1964448D01*
X2162282D01*
X2152285Y1954451D01*
X2039490Y2077155D02*
Y2137136D01*
X2069481D01*
X2079477Y2127139D01*
Y2107145D01*
X2069481Y2097148D01*
X2039490D01*
X2059484D02*
X2079477Y2077155D01*
X2139458D02*
X2099471D01*
X2139458Y2117142D01*
Y2127139D01*
X2129461Y2137136D01*
X2109468D01*
X2099471Y2127139D01*
X2159452Y2077155D02*
X2179445D01*
X2169448D01*
Y2137136D01*
X2159452Y2127139D01*
X3145744Y1495354D02*
X3085764D01*
Y1525345D01*
X3095761Y1535341D01*
X3115754D01*
X3125751Y1525345D01*
Y1495354D01*
Y1515348D02*
X3145744Y1535341D01*
Y1555335D02*
Y1575328D01*
Y1565332D01*
X3085764D01*
X3095761Y1555335D01*
X3085764Y1645306D02*
Y1605319D01*
X3115754D01*
X3105757Y1625312D01*
Y1635309D01*
X3115754Y1645306D01*
X3135748D01*
X3145744Y1635309D01*
Y1615315D01*
X3135748Y1605319D01*
X3966661Y1076219D02*
Y1136200D01*
X3996651D01*
X4006648Y1126203D01*
Y1106210D01*
X3996651Y1096213D01*
X3966661D01*
X3986654D02*
X4006648Y1076219D01*
X4026641D02*
X4046635D01*
X4036638D01*
Y1136200D01*
X4026641Y1126203D01*
X4106615Y1076219D02*
Y1136200D01*
X4076625Y1106210D01*
X4116612D01*
X2255946Y1078618D02*
Y1138599D01*
X2285936D01*
X2295933Y1128602D01*
Y1108609D01*
X2285936Y1098612D01*
X2255946D01*
X2275939D02*
X2295933Y1078618D01*
X2315927D02*
X2335920D01*
X2325923D01*
Y1138599D01*
X2315927Y1128602D01*
X2365910D02*
X2375907Y1138599D01*
X2395901D01*
X2405897Y1128602D01*
Y1118605D01*
X2395901Y1108609D01*
X2385904D01*
X2395901D01*
X2405897Y1098612D01*
Y1088615D01*
X2395901Y1078618D01*
X2375907D01*
X2365910Y1088615D01*
X2795276Y1181102D02*
X2735295D01*
Y1211093D01*
X2745292Y1221090D01*
X2765285D01*
X2775282Y1211093D01*
Y1181102D01*
Y1201096D02*
X2795276Y1221090D01*
Y1241083D02*
Y1261076D01*
Y1251080D01*
X2735295D01*
X2745292Y1241083D01*
X2795276Y1331054D02*
Y1291067D01*
X2755289Y1331054D01*
X2745292D01*
X2735295Y1321057D01*
Y1301064D01*
X2745292Y1291067D01*
X3480561Y1374344D02*
X3420580D01*
Y1404334D01*
X3430577Y1414331D01*
X3450570D01*
X3460567Y1404334D01*
Y1374344D01*
Y1394337D02*
X3480561Y1414331D01*
Y1434324D02*
Y1454318D01*
Y1444321D01*
X3420580D01*
X3430577Y1434324D01*
X3480561Y1484308D02*
Y1504302D01*
Y1494305D01*
X3420580D01*
X3430577Y1484308D01*
X3402912Y1161417D02*
X3342931D01*
Y1191408D01*
X3352928Y1201404D01*
X3372921D01*
X3382918Y1191408D01*
Y1161417D01*
Y1181411D02*
X3402912Y1201404D01*
Y1221398D02*
Y1241391D01*
Y1231395D01*
X3342931D01*
X3352928Y1221398D01*
Y1271382D02*
X3342931Y1281379D01*
Y1301372D01*
X3352928Y1311369D01*
X3392915D01*
X3402912Y1301372D01*
Y1281379D01*
X3392915Y1271382D01*
X3352928D01*
X2570588Y2178835D02*
Y2238816D01*
X2600578D01*
X2610575Y2228819D01*
Y2208825D01*
X2600578Y2198829D01*
X2570588D01*
X2590582D02*
X2610575Y2178835D01*
X2630569Y2188832D02*
X2640566Y2178835D01*
X2660559D01*
X2670556Y2188832D01*
Y2228819D01*
X2660559Y2238816D01*
X2640566D01*
X2630569Y2228819D01*
Y2218822D01*
X2640566Y2208825D01*
X2670556D01*
X3085230Y1866142D02*
Y1926122D01*
X3115220D01*
X3125217Y1916126D01*
Y1896132D01*
X3115220Y1886135D01*
X3085230D01*
X3105223D02*
X3125217Y1866142D01*
X3145210Y1916126D02*
X3155207Y1926122D01*
X3175200D01*
X3185197Y1916126D01*
Y1906129D01*
X3175200Y1896132D01*
X3185197Y1886135D01*
Y1876139D01*
X3175200Y1866142D01*
X3155207D01*
X3145210Y1876139D01*
Y1886135D01*
X3155207Y1896132D01*
X3145210Y1906129D01*
Y1916126D01*
X3155207Y1896132D02*
X3175200D01*
X3356416Y2007874D02*
Y2067855D01*
X3386407D01*
X3396404Y2057858D01*
Y2037864D01*
X3386407Y2027868D01*
X3356416D01*
X3376410D02*
X3396404Y2007874D01*
X3416397Y2067855D02*
X3456384D01*
Y2057858D01*
X3416397Y2017871D01*
Y2007874D01*
X3317046Y1919550D02*
Y1979530D01*
X3347036D01*
X3357033Y1969533D01*
Y1949540D01*
X3347036Y1939543D01*
X3317046D01*
X3337039D02*
X3357033Y1919550D01*
X3417014Y1979530D02*
X3397020Y1969533D01*
X3377027Y1949540D01*
Y1929546D01*
X3387023Y1919550D01*
X3407017D01*
X3417014Y1929546D01*
Y1939543D01*
X3407017Y1949540D01*
X3377027D01*
X3750827Y1809309D02*
X3690846D01*
Y1839300D01*
X3700843Y1849296D01*
X3720836D01*
X3730833Y1839300D01*
Y1809309D01*
Y1829303D02*
X3750827Y1849296D01*
X3700843Y1869290D02*
X3690846Y1879287D01*
Y1899280D01*
X3700843Y1909277D01*
X3710840D01*
X3720836Y1899280D01*
Y1889284D01*
Y1899280D01*
X3730833Y1909277D01*
X3740830D01*
X3750827Y1899280D01*
Y1879287D01*
X3740830Y1869290D01*
X3356416Y2130208D02*
Y2190188D01*
X3386407D01*
X3396404Y2180192D01*
Y2160198D01*
X3386407Y2150201D01*
X3356416D01*
X3376410D02*
X3396404Y2130208D01*
X3456384D02*
X3416397D01*
X3456384Y2170195D01*
Y2180192D01*
X3446387Y2190188D01*
X3426394D01*
X3416397Y2180192D01*
X3110236Y2152041D02*
Y2212022D01*
X3140227D01*
X3150223Y2202025D01*
Y2182032D01*
X3140227Y2172035D01*
X3110236D01*
X3130230D02*
X3150223Y2152041D01*
X3170217D02*
X3190210D01*
X3180214D01*
Y2212022D01*
X3170217Y2202025D01*
X1916457Y1075721D02*
X1856476D01*
Y1105711D01*
X1866473Y1115708D01*
X1886466D01*
X1896463Y1105711D01*
Y1075721D01*
X1856476Y1165691D02*
Y1145698D01*
X1866473Y1135701D01*
X1906460D01*
X1916457Y1145698D01*
Y1165691D01*
X1906460Y1175688D01*
X1866473D01*
X1856476Y1165691D01*
Y1195682D02*
X1916457D01*
X1896463Y1215675D01*
X1916457Y1235669D01*
X1856476D01*
Y1295649D02*
Y1255662D01*
X1916457D01*
Y1295649D01*
X1886466Y1255662D02*
Y1275656D01*
X1916457Y1315643D02*
X1856476D01*
Y1345633D01*
X1866473Y1355630D01*
X1886466D01*
X1896463Y1345633D01*
Y1315643D01*
Y1335637D02*
X1916457Y1355630D01*
X2913779Y2288300D02*
X2956192Y2330713D01*
X2977398Y2309506D01*
Y2295369D01*
X2963261Y2281231D01*
X2949123D01*
X2927917Y2302437D01*
X2991536Y2281231D02*
X3005673D01*
X3019811Y2267093D01*
Y2252956D01*
X3012742Y2245887D01*
X2998604D01*
X2991536Y2252956D01*
X2998604Y2245887D01*
Y2231749D01*
X2991536Y2224681D01*
X2977398D01*
X2963261Y2238818D01*
Y2252956D01*
X4129782Y1893188D02*
X4069801D01*
Y1923178D01*
X4079798Y1933175D01*
X4099792D01*
X4109788Y1923178D01*
Y1893188D01*
X4129782Y1993156D02*
Y1953169D01*
X4089795Y1993156D01*
X4079798D01*
X4069801Y1983159D01*
Y1963165D01*
X4079798Y1953169D01*
X1515748Y1265510D02*
X1455767D01*
Y1295501D01*
X1465764Y1305497D01*
X1485758D01*
X1495755Y1295501D01*
Y1265510D01*
X1515748Y1325491D02*
Y1345484D01*
Y1335488D01*
X1455767D01*
X1465764Y1325491D01*
X3142922Y2303150D02*
X3082942D01*
X3102935Y2323143D01*
X3082942Y2343137D01*
X3142922D01*
X3082942Y2393120D02*
Y2373127D01*
X3092939Y2363130D01*
X3132925D01*
X3142922Y2373127D01*
Y2393120D01*
X3132925Y2403117D01*
X3092939D01*
X3082942Y2393120D01*
X3294291Y2303150D02*
X3234310D01*
X3254303Y2323143D01*
X3234310Y2343137D01*
X3294291D01*
X3234310Y2363130D02*
Y2383124D01*
Y2373127D01*
X3294291D01*
Y2363130D01*
Y2383124D01*
X3203464Y1498812D02*
Y1558793D01*
X3223457Y1538799D01*
X3243451Y1558793D01*
Y1498812D01*
X3303432D02*
X3263445D01*
X3303432Y1538799D01*
Y1548796D01*
X3293435Y1558793D01*
X3273441D01*
X3263445Y1548796D01*
X3034143Y1499394D02*
X2974162D01*
X2994156Y1519388D01*
X2974162Y1539381D01*
X3034143D01*
Y1559375D02*
Y1579369D01*
Y1569372D01*
X2974162D01*
X2984159Y1559375D01*
X2833720Y1245000D02*
X2893701D01*
Y1274990D01*
X2883704Y1284987D01*
X2843717D01*
X2833720Y1274990D01*
Y1245000D01*
X2883704Y1304981D02*
X2893701Y1314977D01*
Y1334971D01*
X2883704Y1344968D01*
X2843717D01*
X2833720Y1334971D01*
Y1314977D01*
X2843717Y1304981D01*
X2853714D01*
X2863711Y1314977D01*
Y1344968D01*
X3443956Y1195000D02*
X3503937D01*
Y1224990D01*
X3493940Y1234987D01*
X3453953D01*
X3443956Y1224990D01*
Y1195000D01*
X3453953Y1254981D02*
X3443956Y1264977D01*
Y1284971D01*
X3453953Y1294968D01*
X3463950D01*
X3473947Y1284971D01*
X3483943Y1294968D01*
X3493940D01*
X3503937Y1284971D01*
Y1264977D01*
X3493940Y1254981D01*
X3483943D01*
X3473947Y1264977D01*
X3463950Y1254981D01*
X3453953D01*
X3473947Y1264977D02*
Y1284971D01*
X3974410Y1234054D02*
Y1174073D01*
X4004400D01*
X4014397Y1184070D01*
Y1224057D01*
X4004400Y1234054D01*
X3974410D01*
X4034391D02*
X4074378D01*
Y1224057D01*
X4034391Y1184070D01*
Y1174073D01*
X2512050Y1306910D02*
Y1246929D01*
X2542040D01*
X2552037Y1256926D01*
Y1296913D01*
X2542040Y1306910D01*
X2512050D01*
X2612017D02*
X2592024Y1296913D01*
X2572030Y1276919D01*
Y1256926D01*
X2582027Y1246929D01*
X2602020D01*
X2612017Y1256926D01*
Y1266922D01*
X2602020Y1276919D01*
X2572030D01*
X2502024Y1130673D02*
Y1070692D01*
X2532015D01*
X2542011Y1080689D01*
Y1120676D01*
X2532015Y1130673D01*
X2502024D01*
X2601992D02*
X2562005D01*
Y1100682D01*
X2581998Y1110679D01*
X2591995D01*
X2601992Y1100682D01*
Y1080689D01*
X2591995Y1070692D01*
X2572002D01*
X2562005Y1080689D01*
X2621985Y1130673D02*
Y1090686D01*
X2641979Y1070692D01*
X2661973Y1090686D01*
Y1130673D01*
X1673921Y2119364D02*
X1733901D01*
Y2149354D01*
X1723904Y2159351D01*
X1683917D01*
X1673921Y2149354D01*
Y2119364D01*
Y2219332D02*
Y2179345D01*
X1703911D01*
X1693914Y2199338D01*
Y2209335D01*
X1703911Y2219332D01*
X1723904D01*
X1733901Y2209335D01*
Y2189341D01*
X1723904Y2179345D01*
X1560992Y2119364D02*
X1620972D01*
Y2149354D01*
X1610976Y2159351D01*
X1570988D01*
X1560992Y2149354D01*
Y2119364D01*
X1620972Y2209335D02*
X1560992D01*
X1590982Y2179345D01*
Y2219332D01*
X3532693Y2343137D02*
X3522697Y2333140D01*
Y2313146D01*
X3532693Y2303150D01*
X3572680D01*
X3582677Y2313146D01*
Y2333140D01*
X3572680Y2343137D01*
X3532693Y2403117D02*
X3522697Y2393120D01*
Y2373127D01*
X3532693Y2363130D01*
X3542690D01*
X3552687Y2373127D01*
Y2393120D01*
X3562684Y2403117D01*
X3572680D01*
X3582677Y2393120D01*
Y2373127D01*
X3572680Y2363130D01*
X2256711Y2173240D02*
X2242573D01*
X2228436Y2159103D01*
Y2144965D01*
X2256711Y2116690D01*
X2270848D01*
X2284986Y2130828D01*
Y2144965D01*
X2334467Y2180309D02*
X2306192Y2152034D01*
Y2208584D01*
X2299124Y2215653D01*
X2284986D01*
X2270848Y2201516D01*
Y2187378D01*
X2369811Y2215653D02*
X2327398Y2258066D01*
Y2215653D01*
X2355674Y2243928D01*
X2736838Y1458631D02*
X2726841Y1468628D01*
X2706847D01*
X2696850Y1458631D01*
Y1418644D01*
X2706847Y1408647D01*
X2726841D01*
X2736838Y1418644D01*
X2796818Y1408647D02*
X2756831D01*
X2796818Y1448634D01*
Y1458631D01*
X2786821Y1468628D01*
X2766828D01*
X2756831Y1458631D01*
X2816812D02*
X2826808Y1468628D01*
X2846802D01*
X2856799Y1458631D01*
Y1448634D01*
X2846802Y1438638D01*
X2836805D01*
X2846802D01*
X2856799Y1428641D01*
Y1418644D01*
X2846802Y1408647D01*
X2826808D01*
X2816812Y1418644D01*
X2071483Y2218081D02*
X2061486Y2228078D01*
X2041493D01*
X2031496Y2218081D01*
Y2178094D01*
X2041493Y2168097D01*
X2061486D01*
X2071483Y2178094D01*
X2091477Y2168097D02*
X2111470D01*
X2101474D01*
Y2228078D01*
X2091477Y2218081D01*
X2141461Y2178094D02*
X2151457Y2168097D01*
X2171451D01*
X2181448Y2178094D01*
Y2218081D01*
X2171451Y2228078D01*
X2151457D01*
X2141461Y2218081D01*
Y2208084D01*
X2151457Y2198087D01*
X2181448D01*
X1783229Y2126601D02*
X1773232Y2116604D01*
Y2096611D01*
X1783229Y2086614D01*
X1823216D01*
X1833213Y2096611D01*
Y2116604D01*
X1823216Y2126601D01*
X1833213Y2146595D02*
Y2166588D01*
Y2156592D01*
X1773232D01*
X1783229Y2146595D01*
Y2196579D02*
X1773232Y2206575D01*
Y2226569D01*
X1783229Y2236566D01*
X1793225D01*
X1803222Y2226569D01*
X1813219Y2236566D01*
X1823216D01*
X1833213Y2226569D01*
Y2206575D01*
X1823216Y2196579D01*
X1813219D01*
X1803222Y2206575D01*
X1793225Y2196579D01*
X1783229D01*
X1803222Y2206575D02*
Y2226569D01*
X2072311Y2038173D02*
X2062314Y2048170D01*
X2042321D01*
X2032324Y2038173D01*
Y1998186D01*
X2042321Y1988189D01*
X2062314D01*
X2072311Y1998186D01*
X2092304Y1988189D02*
X2112298D01*
X2102301D01*
Y2048170D01*
X2092304Y2038173D01*
X2142288Y2048170D02*
X2182275D01*
Y2038173D01*
X2142288Y1998186D01*
Y1988189D01*
X3268334Y2064894D02*
X3258337Y2074891D01*
X3238343D01*
X3228347Y2064894D01*
Y2024907D01*
X3238343Y2014910D01*
X3258337D01*
X3268334Y2024907D01*
X3328314Y2074891D02*
X3308321Y2064894D01*
X3288327Y2044900D01*
Y2024907D01*
X3298324Y2014910D01*
X3318317D01*
X3328314Y2024907D01*
Y2034903D01*
X3318317Y2044900D01*
X3288327D01*
X2417722Y2159662D02*
X2403584D01*
X2389447Y2145524D01*
Y2131386D01*
X2417722Y2103111D01*
X2431859D01*
X2445997Y2117249D01*
Y2131387D01*
X2453066Y2209143D02*
X2424791Y2180868D01*
X2445997Y2159662D01*
X2453066Y2180868D01*
X2460134Y2187937D01*
X2474272D01*
X2488410Y2173799D01*
Y2159662D01*
X2474272Y2145524D01*
X2460134D01*
X3410023Y1676301D02*
X3400026Y1686298D01*
X3380033D01*
X3370036Y1676301D01*
Y1636314D01*
X3380033Y1626318D01*
X3400026D01*
X3410023Y1636314D01*
X3430017Y1676301D02*
X3440013Y1686298D01*
X3460007D01*
X3470004Y1676301D01*
Y1666305D01*
X3460007Y1656308D01*
X3450010D01*
X3460007D01*
X3470004Y1646311D01*
Y1636314D01*
X3460007Y1626318D01*
X3440013D01*
X3430017Y1636314D01*
X3906483Y1834801D02*
X3896487Y1824804D01*
Y1804810D01*
X3906483Y1794814D01*
X3946470D01*
X3956467Y1804810D01*
Y1824804D01*
X3946470Y1834801D01*
X3956467Y1894781D02*
Y1854794D01*
X3916480Y1894781D01*
X3906483D01*
X3896487Y1884784D01*
Y1864791D01*
X3906483Y1854794D01*
X3611735Y1290850D02*
X3601739Y1300847D01*
X3581745D01*
X3571748Y1290850D01*
Y1250863D01*
X3581745Y1240866D01*
X3601739D01*
X3611735Y1250863D01*
X3631729Y1240866D02*
X3651722D01*
X3641726D01*
Y1300847D01*
X3631729Y1290850D01*
X3609843Y904171D02*
X3569856D01*
X3549863Y924165D01*
X3569856Y944158D01*
X3609843D01*
X3579853D01*
Y904171D01*
X3549863Y1004139D02*
Y964152D01*
X3579853D01*
X3569856Y984145D01*
Y994142D01*
X3579853Y1004139D01*
X3599846D01*
X3609843Y994142D01*
Y974149D01*
X3599846Y964152D01*
X3549863Y1024132D02*
X3589850D01*
X3609843Y1044126D01*
X3589850Y1064120D01*
X3549863D01*
D83*
X1463503Y1150591D02*
G03*
X1463503Y1150591I-19685J0D01*
G01*
X4165945Y2133544D02*
G03*
X4165945Y2133544I-19685J0D01*
G01*
D84*
X1013896Y1032481D02*
X1443818D01*
X1013896Y2252953D02*
X1443818D01*
X4146260Y2251653D02*
X4576182D01*
X4146260Y1031181D02*
X4576182D01*
%TF.MD5,e8537aee65f88175603ddf7ad2ae32e4*%
M02*
