%TF.GenerationSoftware,Altium Limited,Altium Designer,18.1.9 (240)*%
G04 Layer_Color=16711935*
%FSLAX26Y26*%
%MOIN*%
%TF.FileFunction,Soldermask,Bot*%
%TF.Part,Single*%
G01*
G75*
%TA.AperFunction,SMDPad,CuDef*%
%ADD60R,0.027685X0.023748*%
%ADD61O,0.027685X0.023748*%
%ADD62R,0.057213X0.045402*%
%ADD63R,0.086740X0.157606*%
%ADD64R,0.086740X0.067055*%
%ADD65R,0.047370X0.043433*%
%ADD66R,0.043433X0.047370*%
%ADD67R,0.039496X0.043433*%
%ADD68R,0.082803X0.043433*%
%ADD69R,0.065087X0.061150*%
%ADD70R,0.045402X0.041465*%
%ADD71R,0.078866X0.047370*%
%ADD72R,0.041465X0.045402*%
%ADD73R,0.082803X0.082803*%
%TA.AperFunction,ConnectorPad*%
%ADD74R,0.065087X0.059181*%
%ADD75R,0.070992X0.063118*%
%ADD76R,0.023748X0.061150*%
%TA.AperFunction,SMDPad,CuDef*%
%ADD77O,0.065087X0.031622*%
%TA.AperFunction,ViaPad*%
%ADD78C,0.189102*%
%TA.AperFunction,ComponentPad*%
%ADD79C,0.145795*%
%ADD80C,0.076898*%
%TA.AperFunction,ViaPad*%
%ADD81C,0.038000*%
%ADD82C,0.058000*%
D60*
X1771653Y2061024D02*
D03*
D61*
Y2086614D02*
D03*
Y2112205D02*
D03*
X1846457Y2061024D02*
D03*
Y2086614D02*
D03*
Y2112205D02*
D03*
D62*
X3694016Y1367309D02*
D03*
Y1428333D02*
D03*
D63*
X3445984Y1268426D02*
D03*
X2311968Y1265552D02*
D03*
D64*
X3694016Y1177874D02*
D03*
Y1268426D02*
D03*
Y1358978D02*
D03*
X2560000Y1175000D02*
D03*
Y1265552D02*
D03*
Y1356104D02*
D03*
D65*
X3858267Y1340274D02*
D03*
Y1287126D02*
D03*
X2042400Y1713148D02*
D03*
Y1660000D02*
D03*
X2680000Y1390000D02*
D03*
Y1336852D02*
D03*
D66*
X3846574Y1175000D02*
D03*
X3793426D02*
D03*
X1660000Y1535000D02*
D03*
X1713148D02*
D03*
X2716574Y1175000D02*
D03*
X2663426D02*
D03*
D67*
X1752598Y1258740D02*
D03*
X1827402D02*
D03*
X1790000Y1180000D02*
D03*
D68*
X2155236Y1183739D02*
D03*
Y1354999D02*
D03*
D69*
X1967756Y1307440D02*
D03*
Y1191300D02*
D03*
D70*
X2055236Y1193190D02*
D03*
Y1244370D02*
D03*
X1645000Y1604410D02*
D03*
Y1655590D02*
D03*
Y1729410D02*
D03*
Y1780590D02*
D03*
D71*
X1585000Y1135589D02*
D03*
Y1245825D02*
D03*
D72*
X1758504Y1346141D02*
D03*
X1809684D02*
D03*
X1739804Y1835000D02*
D03*
X1790984D02*
D03*
D73*
X2188976Y2342520D02*
D03*
X2094488D02*
D03*
D74*
X2276574D02*
D03*
X2006890D02*
D03*
D75*
X2267716Y2246064D02*
D03*
X2015748D02*
D03*
D76*
X2192914Y2237206D02*
D03*
X2167322D02*
D03*
X2141732D02*
D03*
X2116142D02*
D03*
X2090550D02*
D03*
D77*
X1950472Y1760000D02*
D03*
Y1710000D02*
D03*
Y1660000D02*
D03*
Y1610000D02*
D03*
X1735904Y1760000D02*
D03*
Y1710000D02*
D03*
Y1660000D02*
D03*
Y1610000D02*
D03*
D78*
X1645002Y2322835D02*
D03*
X1614173Y964567D02*
D03*
X3957652D02*
D03*
X3976378Y2322835D02*
D03*
D79*
X1195000Y1144685D02*
D03*
Y2140749D02*
D03*
X4395078Y2139449D02*
D03*
Y1143385D02*
D03*
D80*
X1365078Y2056103D02*
D03*
Y1937993D02*
D03*
Y1819883D02*
D03*
Y1701771D02*
D03*
Y1583661D02*
D03*
Y1465551D02*
D03*
Y1347441D02*
D03*
Y1229331D02*
D03*
X4225000Y1228031D02*
D03*
Y1346141D02*
D03*
Y1464251D02*
D03*
Y1582363D02*
D03*
Y1700473D02*
D03*
Y1818583D02*
D03*
Y1936693D02*
D03*
Y2054803D02*
D03*
D81*
X3510969Y1815772D02*
D03*
X1896222Y1929175D02*
D03*
X1944109Y1934609D02*
D03*
X2500000Y1791339D02*
D03*
X3188970Y1737992D02*
D03*
X3093268Y1644428D02*
D03*
X2911668Y1696384D02*
D03*
X1782033Y2183186D02*
D03*
X1721022Y2153629D02*
D03*
X3937008Y2054803D02*
D03*
X3885827Y1979325D02*
D03*
X3756474Y1929134D02*
D03*
X3785946Y1833150D02*
D03*
X3274724Y2100347D02*
D03*
X3205000Y1991563D02*
D03*
X3188970Y2047240D02*
D03*
X3694016Y1471839D02*
D03*
X4078004Y1348148D02*
D03*
X2549167Y1637326D02*
D03*
X2716574Y1175000D02*
D03*
X3020314Y2200047D02*
D03*
X3168348Y1672382D02*
D03*
X2881802Y1644428D02*
D03*
X2887795Y1755906D02*
D03*
X3246822Y1986284D02*
D03*
X3134606Y1989402D02*
D03*
X2954066Y1929134D02*
D03*
X2719242Y1773108D02*
D03*
X2816314Y1940001D02*
D03*
X2639776Y1907480D02*
D03*
X2670146Y2106299D02*
D03*
X2165354Y1714024D02*
D03*
X1833213Y1464251D02*
D03*
X2283465Y1445000D02*
D03*
X2165354D02*
D03*
X2240217Y1669758D02*
D03*
X2267978Y1629533D02*
D03*
X2224409Y2042322D02*
D03*
X2263952Y2062992D02*
D03*
X1830709Y1752954D02*
D03*
X2746467Y1505748D02*
D03*
X3700787Y1268426D02*
D03*
X3900000Y1202519D02*
D03*
X3985552Y1294646D02*
D03*
X1554393Y1623032D02*
D03*
Y1780000D02*
D03*
X2106024Y1245000D02*
D03*
X3353385Y1528756D02*
D03*
D82*
X2862480Y1195000D02*
D03*
%TF.MD5,9e823e2302ea56981cd8d855bf11c1d5*%
M02*
