%TF.GenerationSoftware,Altium Limited,Altium Designer,18.1.9 (240)*%
G04 Layer_Physical_Order=2*
G04 Layer_Color=16711680*
%FSLAX26Y26*%
%MOIN*%
%TF.FileFunction,Copper,L2,Bot,Signal*%
%TF.Part,Single*%
G01*
G75*
%TA.AperFunction,SMDPad,CuDef*%
%ADD10R,0.033465X0.037402*%
%ADD14R,0.039370X0.035433*%
%ADD15R,0.035433X0.039370*%
%ADD16R,0.037402X0.033465*%
%ADD22R,0.031496X0.035433*%
%TA.AperFunction,Conductor*%
%ADD27C,0.011811*%
%ADD28C,0.015000*%
%ADD29C,0.019685*%
%ADD30C,0.062992*%
%ADD31C,0.031496*%
%TA.AperFunction,ViaPad*%
%ADD33C,0.181102*%
%TA.AperFunction,ComponentPad*%
%ADD34C,0.137795*%
%ADD35C,0.068898*%
%TA.AperFunction,ViaPad*%
%ADD36C,0.030000*%
%ADD37C,0.050000*%
%TA.AperFunction,SMDPad,CuDef*%
%ADD38R,0.019685X0.015748*%
%ADD39O,0.019685X0.015748*%
%ADD40R,0.049213X0.037402*%
%ADD41R,0.078740X0.149606*%
%ADD42R,0.078740X0.059055*%
%ADD43R,0.074803X0.035433*%
%ADD44R,0.057087X0.053150*%
%ADD45R,0.070866X0.039370*%
%ADD46R,0.074803X0.074803*%
%TA.AperFunction,ConnectorPad*%
%ADD47R,0.057087X0.051181*%
%ADD48R,0.062992X0.055118*%
%ADD49R,0.015748X0.053150*%
%TA.AperFunction,SMDPad,CuDef*%
%ADD50O,0.057087X0.023622*%
%TA.AperFunction,Conductor*%
%ADD51C,0.039370*%
%ADD52C,0.078740*%
%TA.AperFunction,NonConductor*%
%ADD53C,0.019685*%
G36*
X4596104Y2450434D02*
X4596103Y836967D01*
X1004401D01*
X1004401Y2450434D01*
X4596104Y2450434D01*
D02*
G37*
%LPC*%
G36*
X3981378Y2423380D02*
Y2327835D01*
X4076923D01*
X4075474Y2342546D01*
X4069725Y2361500D01*
X4060388Y2378968D01*
X4047822Y2394279D01*
X4032512Y2406844D01*
X4015044Y2416181D01*
X3996090Y2421931D01*
X3981378Y2423380D01*
D02*
G37*
G36*
X3971378D02*
X3956666Y2421931D01*
X3937713Y2416181D01*
X3920244Y2406844D01*
X3904934Y2394279D01*
X3892368Y2378968D01*
X3883031Y2361500D01*
X3877282Y2342546D01*
X3875833Y2327835D01*
X3971378D01*
Y2423380D01*
D02*
G37*
G36*
X1650002D02*
Y2327835D01*
X1745547D01*
X1744098Y2342546D01*
X1738349Y2361500D01*
X1729012Y2378968D01*
X1716446Y2394279D01*
X1701135Y2406844D01*
X1683667Y2416181D01*
X1664713Y2421931D01*
X1650002Y2423380D01*
D02*
G37*
G36*
X1640002D02*
X1625290Y2421931D01*
X1606336Y2416181D01*
X1588868Y2406844D01*
X1573557Y2394279D01*
X1560992Y2378968D01*
X1551655Y2361500D01*
X1545906Y2342546D01*
X1544457Y2327835D01*
X1640002D01*
Y2423380D01*
D02*
G37*
G36*
X2139921Y2387953D02*
X2137543Y2387953D01*
X2049055D01*
Y2377131D01*
X2043465Y2376142D01*
X2043055Y2376142D01*
X1970315D01*
Y2308898D01*
X2043055D01*
X2043465Y2308898D01*
X2049055Y2307908D01*
Y2297087D01*
X2137543D01*
X2143543Y2297087D01*
X2145921Y2297087D01*
X2234409D01*
Y2307908D01*
X2239999Y2308898D01*
X2240409Y2308898D01*
X2313149D01*
Y2376142D01*
X2240409D01*
X2239999Y2376142D01*
X2234409Y2377131D01*
Y2387953D01*
X2145921D01*
X2139921Y2387953D01*
D02*
G37*
G36*
X2210788Y2273780D02*
X2197914D01*
Y2242206D01*
X2210788D01*
Y2273780D01*
D02*
G37*
G36*
X4076923Y2317835D02*
X3981378D01*
Y2222289D01*
X3996090Y2223738D01*
X4015044Y2229488D01*
X4032512Y2238825D01*
X4047822Y2251390D01*
X4060388Y2266701D01*
X4069725Y2284169D01*
X4075474Y2303123D01*
X4076923Y2317835D01*
D02*
G37*
G36*
X3971378D02*
X3875833D01*
X3877282Y2303123D01*
X3883031Y2284169D01*
X3892368Y2266701D01*
X3904934Y2251390D01*
X3920244Y2238825D01*
X3937713Y2229488D01*
X3956666Y2223738D01*
X3971378Y2222289D01*
Y2317835D01*
D02*
G37*
G36*
X1745547D02*
X1650002D01*
Y2222289D01*
X1664713Y2223738D01*
X1683667Y2229488D01*
X1701135Y2238825D01*
X1716446Y2251390D01*
X1729012Y2266701D01*
X1738349Y2284169D01*
X1744098Y2303123D01*
X1745547Y2317835D01*
D02*
G37*
G36*
X1640002D02*
X1544457D01*
X1545906Y2303123D01*
X1551655Y2284169D01*
X1560992Y2266701D01*
X1573557Y2251390D01*
X1588868Y2238825D01*
X1606336Y2229488D01*
X1625290Y2223738D01*
X1640002Y2222289D01*
Y2317835D01*
D02*
G37*
G36*
X2307244Y2281654D02*
X2228189D01*
Y2210473D01*
X2307244D01*
Y2281654D01*
D02*
G37*
G36*
X2055276D02*
X1976221D01*
Y2210473D01*
X2055276D01*
Y2281654D01*
D02*
G37*
G36*
X3025314Y2224542D02*
Y2205047D01*
X3044809D01*
X3043863Y2209801D01*
X3038338Y2218071D01*
X3030068Y2223596D01*
X3025314Y2224542D01*
D02*
G37*
G36*
X3015314D02*
X3010559Y2223596D01*
X3002289Y2218071D01*
X2996764Y2209801D01*
X2995818Y2205047D01*
X3015314D01*
Y2224542D01*
D02*
G37*
G36*
X2210788Y2232206D02*
X2197914D01*
Y2200631D01*
X2210788D01*
Y2232206D01*
D02*
G37*
G36*
X3044809Y2195047D02*
X3025314D01*
Y2175551D01*
X3030068Y2176497D01*
X3038338Y2182023D01*
X3043863Y2190292D01*
X3044809Y2195047D01*
D02*
G37*
G36*
X3015314D02*
X2995818D01*
X2996764Y2190292D01*
X3002289Y2182023D01*
X3010559Y2176497D01*
X3015314Y2175551D01*
Y2195047D01*
D02*
G37*
G36*
X2281287Y2124523D02*
X2281287Y2124523D01*
X2248151D01*
X2248150Y2124523D01*
X2241176Y2123136D01*
X2235264Y2119186D01*
X2235263Y2119185D01*
X2211523Y2095445D01*
X2207572Y2089533D01*
X2206185Y2082559D01*
X2206185Y2082558D01*
Y2056503D01*
X2202714Y2051308D01*
X2200927Y2042322D01*
X2202714Y2033336D01*
X2207805Y2025717D01*
X2215423Y2020627D01*
X2224409Y2018839D01*
X2233396Y2020627D01*
X2241014Y2025717D01*
X2246105Y2033336D01*
X2247275Y2039219D01*
X2253561Y2042235D01*
X2254965Y2041297D01*
X2261093Y2040078D01*
X2376164Y1925006D01*
X2376165Y1925006D01*
X2382077Y1921056D01*
X2389051Y1919668D01*
X2433228D01*
X2621025Y1731871D01*
Y1687695D01*
X2621025Y1687694D01*
X2622413Y1680720D01*
X2626363Y1674808D01*
X2751462Y1549709D01*
X2751462Y1549708D01*
X2757375Y1545758D01*
X2764349Y1544371D01*
X3329755D01*
X3332583Y1539079D01*
X3331690Y1537743D01*
X3329903Y1528756D01*
X3330449Y1526008D01*
X3316722Y1512281D01*
X3312771Y1506369D01*
X3311384Y1499394D01*
X3311384Y1499394D01*
Y1234869D01*
X2878994D01*
X2820119Y1293743D01*
X2811862Y1300079D01*
X2802247Y1304062D01*
X2791928Y1305421D01*
X2791927Y1305421D01*
X2780151D01*
Y1496309D01*
X2780151Y1496310D01*
X2778305Y1505588D01*
X2773050Y1513454D01*
X2763611Y1522892D01*
X2755745Y1528148D01*
X2746467Y1529993D01*
X2737189Y1528148D01*
X2729323Y1522892D01*
X2724067Y1515026D01*
X2722222Y1505748D01*
X2724067Y1496470D01*
X2729323Y1488604D01*
X2731660Y1486267D01*
Y1305421D01*
X2708481D01*
X2707717Y1311104D01*
X2707716D01*
Y1362284D01*
X2709685D01*
Y1385000D01*
X2680000D01*
X2650315D01*
Y1362284D01*
X2652284D01*
Y1311104D01*
X2652283D01*
X2651519Y1305421D01*
X2560000D01*
X2549681Y1304062D01*
X2547385Y1303111D01*
X2512598D01*
Y1227993D01*
X2544552D01*
X2545544Y1226725D01*
X2543699Y1219555D01*
X2536095Y1216405D01*
X2531082Y1212559D01*
X2512598D01*
Y1178107D01*
X2512189Y1175000D01*
Y1137811D01*
X2173461D01*
Y1157991D01*
X2200669D01*
Y1209487D01*
X2109803D01*
Y1157991D01*
X2137012D01*
Y1137811D01*
X2073461D01*
Y1168426D01*
X2081969D01*
Y1213606D01*
X2081969Y1217954D01*
Y1221903D01*
X2086211Y1226146D01*
X2092786D01*
X2097038Y1223305D01*
X2106024Y1221517D01*
X2115011Y1223305D01*
X2122629Y1228395D01*
X2127720Y1236014D01*
X2129507Y1245000D01*
X2127720Y1253986D01*
X2122629Y1261605D01*
X2115011Y1266695D01*
X2106024Y1268483D01*
X2097038Y1266695D01*
X2090900Y1262594D01*
X2081969D01*
Y1269134D01*
X2028504D01*
Y1223954D01*
X2028504Y1219606D01*
X2028504Y1213606D01*
Y1168426D01*
X2037012D01*
Y1137811D01*
X1985980D01*
Y1156694D01*
X2004330D01*
Y1225906D01*
X1931181D01*
Y1156694D01*
X1949531D01*
Y1137811D01*
X1808224D01*
Y1154252D01*
X1813780D01*
Y1205748D01*
X1766220D01*
Y1154252D01*
X1771776D01*
Y1137811D01*
X1752087D01*
X1720501Y1169397D01*
X1710600Y1176995D01*
X1699069Y1181771D01*
X1686694Y1183400D01*
X1585000D01*
X1572626Y1181771D01*
X1561095Y1176995D01*
X1551193Y1169397D01*
X1546519Y1163306D01*
X1541535D01*
Y1154523D01*
X1538819Y1147964D01*
X1537189Y1135589D01*
X1538819Y1123215D01*
X1541535Y1116656D01*
Y1107873D01*
X1546519D01*
X1551193Y1101782D01*
X1561095Y1094184D01*
X1572626Y1089408D01*
X1585000Y1087779D01*
X1666890D01*
X1698476Y1056193D01*
X1708378Y1048595D01*
X1719909Y1043819D01*
X1732284Y1042189D01*
X2665000D01*
X2676956Y1043763D01*
X3690000D01*
X3702374Y1045392D01*
X3713905Y1050169D01*
X3723807Y1057767D01*
X3727823Y1061783D01*
X3735421Y1071685D01*
X3740198Y1083216D01*
X3741827Y1095590D01*
Y1156776D01*
X3767678D01*
Y1147284D01*
X3814826D01*
X3819174Y1147283D01*
X3825174Y1147284D01*
X3872322D01*
Y1151092D01*
X3872481Y1156776D01*
X3879455Y1158163D01*
X3885367Y1162113D01*
X3902859Y1179605D01*
X3908986Y1180824D01*
X3916605Y1185915D01*
X3921695Y1193533D01*
X3923483Y1202519D01*
X3921695Y1211506D01*
X3916605Y1219124D01*
X3908986Y1224215D01*
X3900000Y1226002D01*
X3891014Y1224215D01*
X3883395Y1219124D01*
X3878305Y1211506D01*
X3877129Y1205596D01*
X3872322Y1202716D01*
X3825174D01*
X3820826Y1202717D01*
X3814826Y1202716D01*
X3767678D01*
Y1193224D01*
X3741418D01*
Y1215433D01*
X3722934D01*
X3717921Y1219279D01*
X3706390Y1224055D01*
X3700226Y1224867D01*
X3700620Y1230867D01*
X3741418D01*
Y1240470D01*
X3914994D01*
X3954642Y1200822D01*
X3960432Y1196380D01*
X3967175Y1193587D01*
X3974410Y1192634D01*
X4201349D01*
X4203577Y1190925D01*
X4213910Y1186645D01*
X4225000Y1185185D01*
X4236090Y1186645D01*
X4246423Y1190925D01*
X4255297Y1197734D01*
X4262106Y1206608D01*
X4266387Y1216942D01*
X4267847Y1228031D01*
X4266387Y1239121D01*
X4262106Y1249455D01*
X4255297Y1258329D01*
X4246423Y1265138D01*
X4236090Y1269418D01*
X4225000Y1270878D01*
X4213910Y1269418D01*
X4203577Y1265138D01*
X4194703Y1258329D01*
X4187894Y1249455D01*
X4187517Y1248546D01*
X4174779D01*
X4172483Y1254089D01*
X4222074Y1303680D01*
X4225000Y1303294D01*
X4236090Y1304755D01*
X4246423Y1309035D01*
X4255297Y1315844D01*
X4262106Y1324718D01*
X4266387Y1335052D01*
X4267847Y1346141D01*
X4266387Y1357231D01*
X4262106Y1367565D01*
X4255297Y1376439D01*
X4246423Y1383248D01*
X4236090Y1387528D01*
X4225000Y1388988D01*
X4213910Y1387528D01*
X4203577Y1383248D01*
X4194703Y1376439D01*
X4187894Y1367565D01*
X4183613Y1357231D01*
X4182153Y1346141D01*
X4182538Y1343215D01*
X4087869Y1248546D01*
X3985990D01*
X3946342Y1288194D01*
X3940552Y1292636D01*
X3933809Y1295429D01*
X3926574Y1296382D01*
X3885984D01*
Y1312874D01*
X3885984D01*
Y1314526D01*
X3885984D01*
Y1331022D01*
X3947605D01*
X3949534Y1331276D01*
X3969002Y1311808D01*
X3968947Y1311251D01*
X3963857Y1303633D01*
X3962069Y1294646D01*
X3963857Y1285660D01*
X3968947Y1278042D01*
X3976566Y1272951D01*
X3985552Y1271164D01*
X3994538Y1272951D01*
X4002157Y1278042D01*
X4007247Y1285660D01*
X4009035Y1294646D01*
X4007247Y1303633D01*
X4006728Y1304409D01*
Y1318078D01*
X4006728Y1318079D01*
X4005341Y1325053D01*
X4001390Y1330965D01*
X4001390Y1330966D01*
X3980259Y1352097D01*
X4060206Y1432044D01*
X4100000D01*
X4107235Y1432997D01*
X4113978Y1435790D01*
X4114637Y1436296D01*
X4192906D01*
X4194703Y1433954D01*
X4203577Y1427145D01*
X4213910Y1422864D01*
X4225000Y1421405D01*
X4236090Y1422864D01*
X4246423Y1427145D01*
X4255297Y1433954D01*
X4262106Y1442828D01*
X4266387Y1453162D01*
X4267847Y1464251D01*
X4266387Y1475341D01*
X4262106Y1485675D01*
X4255297Y1494549D01*
X4246423Y1501358D01*
X4236090Y1505638D01*
X4225000Y1507098D01*
X4213910Y1505638D01*
X4203577Y1501358D01*
X4194703Y1494549D01*
X4192906Y1492207D01*
X4128209D01*
X4125913Y1497750D01*
X4182570Y1554408D01*
X4192906D01*
X4194703Y1552066D01*
X4203577Y1545257D01*
X4213910Y1540976D01*
X4225000Y1539516D01*
X4236090Y1540976D01*
X4246423Y1545257D01*
X4255297Y1552066D01*
X4262106Y1560940D01*
X4266387Y1571274D01*
X4267847Y1582363D01*
X4266387Y1593453D01*
X4262106Y1603787D01*
X4255297Y1612661D01*
X4246423Y1619470D01*
X4236090Y1623750D01*
X4225000Y1625210D01*
X4213910Y1623750D01*
X4203577Y1619470D01*
X4194703Y1612661D01*
X4192906Y1610319D01*
X4170991D01*
X4170990Y1610319D01*
X4163755Y1609367D01*
X4157012Y1606574D01*
X4151222Y1602131D01*
X4028859Y1479768D01*
X3936025Y1386934D01*
X3741418D01*
Y1396537D01*
X3733340D01*
X3728622Y1399633D01*
Y1457034D01*
X3720590D01*
X3717754Y1463034D01*
X3718511Y1466839D01*
X3669521D01*
X3670278Y1463034D01*
X3667442Y1457034D01*
X3659410D01*
Y1399633D01*
X3654692Y1396537D01*
X3646614D01*
Y1377202D01*
X3603887D01*
X3560803Y1420286D01*
Y1529596D01*
X3560803Y1529597D01*
X3559416Y1536571D01*
X3555465Y1542483D01*
X3555465Y1542483D01*
X3490889Y1607060D01*
X3484977Y1611010D01*
X3478003Y1612398D01*
X3478002Y1612397D01*
X2855392D01*
X2723446Y1744344D01*
X2725421Y1750854D01*
X2728229Y1751413D01*
X2735847Y1756503D01*
X2740937Y1764122D01*
X2742725Y1773108D01*
X2742163Y1775933D01*
X2806837Y1840607D01*
X3083455D01*
X3088893Y1841689D01*
X3093503Y1844769D01*
X3144654Y1895920D01*
X3147734Y1900530D01*
X3148816Y1905968D01*
Y1971197D01*
X3151211Y1972797D01*
X3156301Y1980416D01*
X3158088Y1989402D01*
X3156301Y1998389D01*
X3151211Y2006007D01*
X3148816Y2007607D01*
Y2060719D01*
X3174234Y2086137D01*
X3256519D01*
X3258119Y2083742D01*
X3265738Y2078652D01*
X3274724Y2076864D01*
X3283710Y2078652D01*
X3291329Y2083742D01*
X3296419Y2091361D01*
X3298207Y2100347D01*
X3296419Y2109334D01*
X3291329Y2116952D01*
X3283710Y2122042D01*
X3274724Y2123830D01*
X3265738Y2122042D01*
X3258119Y2116952D01*
X3256519Y2114557D01*
X3168348D01*
X3162910Y2113475D01*
X3158300Y2110395D01*
X3124558Y2076653D01*
X3121477Y2072043D01*
X3120396Y2066605D01*
Y2007607D01*
X3118001Y2006007D01*
X3112911Y1998389D01*
X3111123Y1989402D01*
X3112911Y1980416D01*
X3118001Y1972797D01*
X3120396Y1971197D01*
Y1911854D01*
X3077569Y1869027D01*
X2800951D01*
X2795513Y1867945D01*
X2790903Y1864865D01*
X2722067Y1796029D01*
X2719242Y1796591D01*
X2710256Y1794803D01*
X2702637Y1789713D01*
X2697547Y1782094D01*
X2696988Y1779287D01*
X2690478Y1777312D01*
X2373723Y2094067D01*
X2367811Y2098017D01*
X2360836Y2099405D01*
X2360836Y2099405D01*
X2313955D01*
X2294174Y2119186D01*
X2288262Y2123136D01*
X2281287Y2124523D01*
D02*
G37*
G36*
X1782033Y2206669D02*
X1773046Y2204881D01*
X1765428Y2199791D01*
X1760337Y2192173D01*
X1758550Y2183186D01*
X1760337Y2174200D01*
X1765428Y2166581D01*
X1767822Y2164981D01*
Y2155714D01*
X1761605Y2149497D01*
X1758525Y2144887D01*
X1757444Y2139449D01*
Y2122513D01*
X1754702Y2118411D01*
X1753468Y2112205D01*
X1754702Y2105999D01*
X1755018Y2105527D01*
X1756799Y2099501D01*
X1752848Y2093588D01*
X1752455Y2091614D01*
X1790852D01*
X1790459Y2093588D01*
X1786508Y2099501D01*
X1788289Y2105527D01*
X1788605Y2105999D01*
X1789839Y2112205D01*
X1788605Y2118411D01*
X1785863Y2122513D01*
Y2133563D01*
X1792081Y2139780D01*
X1795161Y2144390D01*
X1796243Y2149828D01*
Y2164981D01*
X1798637Y2166581D01*
X1803728Y2174200D01*
X1805515Y2183186D01*
X1803728Y2192173D01*
X1798637Y2199791D01*
X1791019Y2204881D01*
X1782033Y2206669D01*
D02*
G37*
G36*
X1195000Y2218050D02*
X1179919Y2216565D01*
X1165418Y2212166D01*
X1152054Y2205023D01*
X1140340Y2195409D01*
X1130726Y2183695D01*
X1123583Y2170331D01*
X1119184Y2155830D01*
X1117699Y2140749D01*
X1119184Y2125668D01*
X1123583Y2111167D01*
X1130726Y2097803D01*
X1140340Y2086089D01*
X1152054Y2076475D01*
X1165418Y2069332D01*
X1179919Y2064933D01*
X1195000Y2063448D01*
X1210081Y2064933D01*
X1224582Y2069332D01*
X1237946Y2076475D01*
X1249660Y2086089D01*
X1259274Y2097803D01*
X1266417Y2111167D01*
X1270816Y2125668D01*
X1272301Y2140749D01*
X1270816Y2155830D01*
X1266417Y2170331D01*
X1259274Y2183695D01*
X1249660Y2195409D01*
X1237946Y2205023D01*
X1224582Y2212166D01*
X1210081Y2216565D01*
X1195000Y2218050D01*
D02*
G37*
G36*
X4395078Y2216751D02*
X4379997Y2215265D01*
X4365496Y2210867D01*
X4352132Y2203723D01*
X4340418Y2194110D01*
X4330804Y2182396D01*
X4323661Y2169031D01*
X4319262Y2154530D01*
X4317777Y2139449D01*
X4319262Y2124369D01*
X4323661Y2109867D01*
X4330804Y2096503D01*
X4340418Y2084789D01*
X4352132Y2075176D01*
X4365496Y2068032D01*
X4379997Y2063633D01*
X4395078Y2062148D01*
X4410159Y2063633D01*
X4424660Y2068032D01*
X4438024Y2075176D01*
X4449738Y2084789D01*
X4459352Y2096503D01*
X4466495Y2109867D01*
X4470894Y2124369D01*
X4472379Y2139449D01*
X4470894Y2154530D01*
X4466495Y2169031D01*
X4459352Y2182396D01*
X4449738Y2194110D01*
X4438024Y2203723D01*
X4424660Y2210867D01*
X4410159Y2215265D01*
X4395078Y2216751D01*
D02*
G37*
G36*
X3193970Y2071735D02*
Y2052240D01*
X3213465D01*
X3212519Y2056994D01*
X3206994Y2065264D01*
X3198724Y2070789D01*
X3193970Y2071735D01*
D02*
G37*
G36*
X3183970D02*
X3179215Y2070789D01*
X3170946Y2065264D01*
X3165421Y2056994D01*
X3164475Y2052240D01*
X3183970D01*
Y2071735D01*
D02*
G37*
G36*
X3937008Y2078286D02*
X3928021Y2076499D01*
X3920403Y2071408D01*
X3919889Y2070639D01*
X3268240D01*
X3262180Y2069434D01*
X3257042Y2066001D01*
X3205907Y2014866D01*
X3205000Y2015046D01*
X3196014Y2013259D01*
X3188395Y2008168D01*
X3183305Y2000550D01*
X3181517Y1991563D01*
X3183305Y1982577D01*
X3188395Y1974959D01*
X3196014Y1969868D01*
X3205000Y1968081D01*
X3213986Y1969868D01*
X3220511Y1974228D01*
X3221609Y1974958D01*
X3227755Y1973364D01*
X3230217Y1969679D01*
X3237836Y1964588D01*
X3246822Y1962801D01*
X3255808Y1964588D01*
X3263427Y1969679D01*
X3268517Y1977297D01*
X3270305Y1986284D01*
X3269656Y1989546D01*
X3281960Y2001851D01*
X3840907D01*
X3862525Y1980233D01*
X3862345Y1979325D01*
X3864132Y1970339D01*
X3869223Y1962721D01*
X3876841Y1957630D01*
X3885827Y1955843D01*
X3894814Y1957630D01*
X3902432Y1962721D01*
X3907523Y1970339D01*
X3909310Y1979325D01*
X3907523Y1988312D01*
X3902432Y1995930D01*
X3894814Y2001021D01*
X3885827Y2002808D01*
X3884920Y2002628D01*
X3858664Y2028884D01*
X3853527Y2032317D01*
X3850255Y2032968D01*
X3850846Y2038968D01*
X3919889D01*
X3920403Y2038199D01*
X3928021Y2033108D01*
X3937008Y2031321D01*
X3945994Y2033108D01*
X3953613Y2038199D01*
X3958703Y2045817D01*
X3960491Y2054803D01*
X3958703Y2063790D01*
X3953613Y2071408D01*
X3945994Y2076499D01*
X3937008Y2078286D01*
D02*
G37*
G36*
X3213465Y2042240D02*
X3193970D01*
Y2022745D01*
X3198724Y2023690D01*
X3206994Y2029216D01*
X3212519Y2037486D01*
X3213465Y2042240D01*
D02*
G37*
G36*
X3183970D02*
X3164475D01*
X3165421Y2037486D01*
X3170946Y2029216D01*
X3179215Y2023690D01*
X3183970Y2022745D01*
Y2042240D01*
D02*
G37*
G36*
X2187914Y2273780D02*
X2175040D01*
Y2271812D01*
X2074645D01*
Y2202599D01*
X2076340D01*
Y2075790D01*
X2018664Y2018113D01*
X1917400D01*
X1915104Y2023657D01*
X1928105Y2036657D01*
X1931185Y2041267D01*
X1932267Y2046705D01*
Y2066929D01*
X1931185Y2072367D01*
X1928105Y2076977D01*
X1908420Y2096662D01*
X1903810Y2099742D01*
X1898372Y2100824D01*
X1866174D01*
X1864964Y2103086D01*
X1863572Y2106824D01*
X1864642Y2112205D01*
X1863408Y2118411D01*
X1860667Y2122513D01*
Y2202251D01*
X1859585Y2207689D01*
X1856505Y2212299D01*
X1826364Y2242440D01*
X1821754Y2245520D01*
X1816316Y2246602D01*
X1741730D01*
X1736292Y2245520D01*
X1731682Y2242440D01*
X1688492Y2199249D01*
X1494014D01*
X1488576Y2198168D01*
X1483966Y2195087D01*
X1383381Y2094502D01*
X1376168Y2097490D01*
X1365078Y2098950D01*
X1353988Y2097490D01*
X1343655Y2093209D01*
X1334781Y2086400D01*
X1327972Y2077526D01*
X1323691Y2067193D01*
X1322231Y2056103D01*
X1323691Y2045013D01*
X1327972Y2034680D01*
X1334781Y2025806D01*
X1343655Y2018996D01*
X1353988Y2014716D01*
X1365078Y2013256D01*
X1376168Y2014716D01*
X1386501Y2018996D01*
X1395375Y2025806D01*
X1402185Y2034680D01*
X1406465Y2045013D01*
X1407925Y2056103D01*
X1406465Y2067193D01*
X1403477Y2074406D01*
X1499900Y2170829D01*
X1694378D01*
X1698093Y2171568D01*
X1701950Y2166962D01*
X1702060Y2166706D01*
X1699327Y2162615D01*
X1697539Y2153629D01*
X1699327Y2144642D01*
X1704417Y2137024D01*
X1706812Y2135424D01*
Y2075871D01*
X1707894Y2070433D01*
X1710974Y2065823D01*
X1725822Y2050976D01*
X1730432Y2047895D01*
X1735870Y2046814D01*
X1753780D01*
Y2045118D01*
X1789527D01*
Y2076929D01*
X1789528Y2076929D01*
X1790130Y2079148D01*
X1790459Y2079640D01*
X1790852Y2081614D01*
X1752455D01*
X1752531Y2081234D01*
X1749901Y2076601D01*
X1748576Y2075234D01*
X1741756D01*
X1735232Y2081757D01*
Y2135424D01*
X1737627Y2137024D01*
X1742717Y2144642D01*
X1744505Y2153629D01*
X1742717Y2162615D01*
X1737627Y2170233D01*
X1730008Y2175324D01*
X1721022Y2177111D01*
X1713543Y2175624D01*
X1710196Y2180761D01*
X1747616Y2218182D01*
X1810430D01*
X1832247Y2196365D01*
Y2122513D01*
X1829505Y2118411D01*
X1828271Y2112205D01*
X1829505Y2105999D01*
X1830915Y2103890D01*
X1832539Y2099410D01*
X1830915Y2094929D01*
X1829505Y2092820D01*
X1828271Y2086614D01*
X1829505Y2080408D01*
X1833021Y2075147D01*
Y2072491D01*
X1829505Y2067230D01*
X1828745Y2063408D01*
X1717540Y1952203D01*
X1405172D01*
X1402185Y1959416D01*
X1395375Y1968290D01*
X1386501Y1975100D01*
X1376168Y1979380D01*
X1365078Y1980840D01*
X1353988Y1979380D01*
X1343655Y1975100D01*
X1334781Y1968290D01*
X1327972Y1959416D01*
X1323691Y1949083D01*
X1322231Y1937993D01*
X1323691Y1926903D01*
X1327972Y1916570D01*
X1334781Y1907696D01*
X1343655Y1900887D01*
X1353988Y1896606D01*
X1365078Y1895146D01*
X1376168Y1896606D01*
X1386501Y1900887D01*
X1395375Y1907696D01*
X1402185Y1916570D01*
X1405172Y1923783D01*
X1723426D01*
X1728864Y1924865D01*
X1733474Y1927945D01*
X1850810Y2045281D01*
X1854631Y2046041D01*
X1859892Y2049556D01*
X1863408Y2054818D01*
X1864642Y2061024D01*
X1863572Y2066404D01*
X1864964Y2070142D01*
X1866174Y2072404D01*
X1892486D01*
X1903847Y2061043D01*
Y2052591D01*
X1865207Y2013951D01*
X1820661Y1969405D01*
X1817580Y1964795D01*
X1816499Y1959357D01*
Y1863701D01*
X1795984D01*
Y1835000D01*
Y1806299D01*
X1816499D01*
Y1772058D01*
X1813565Y1770098D01*
X1808309Y1762232D01*
X1806463Y1752954D01*
Y1726914D01*
Y1466755D01*
X1808309Y1457477D01*
X1813565Y1449611D01*
X1816068Y1447107D01*
X1823934Y1441852D01*
X1833213Y1440006D01*
X1842491Y1441852D01*
X1850357Y1447107D01*
X1855612Y1454973D01*
X1857458Y1464251D01*
X1855612Y1473530D01*
X1854954Y1474515D01*
Y1674733D01*
X1860497Y1677029D01*
X1887575Y1649952D01*
X1892185Y1646872D01*
X1897623Y1645790D01*
X1919370D01*
X1919434Y1645694D01*
X1925998Y1641309D01*
X1933740Y1639769D01*
X1967204D01*
X1974946Y1641309D01*
X1981510Y1645694D01*
X1981574Y1645790D01*
X2014684D01*
Y1634252D01*
X2070117D01*
Y1685431D01*
X2072085D01*
Y1708148D01*
X2042400D01*
X2012715D01*
Y1685431D01*
X2014684D01*
Y1674210D01*
X1981574D01*
X1981510Y1674306D01*
X1974946Y1678691D01*
X1967204Y1680231D01*
X1933740D01*
X1925998Y1678691D01*
X1919434Y1674306D01*
X1919370Y1674210D01*
X1903509D01*
X1854954Y1722765D01*
Y1752954D01*
X1853109Y1762232D01*
X1847853Y1770098D01*
X1844919Y1772058D01*
Y1953471D01*
X1881141Y1989694D01*
X1895232D01*
X1897528Y1984150D01*
X1886436Y1973059D01*
X1883004Y1967921D01*
X1881920Y1962472D01*
X1880035Y1959651D01*
X1878830Y1953591D01*
Y1944601D01*
X1874527Y1938162D01*
X1872740Y1929175D01*
X1874527Y1920189D01*
X1879618Y1912570D01*
X1887236Y1907480D01*
X1888554Y1907218D01*
X1891574Y1905200D01*
X1897634Y1903995D01*
X1903694Y1905200D01*
X1908832Y1908633D01*
X1910362Y1910923D01*
X1912827Y1912570D01*
X1917918Y1920189D01*
X1918126Y1921239D01*
X1924496Y1922506D01*
X1927504Y1918004D01*
X1935123Y1912914D01*
X1944109Y1911126D01*
X1953095Y1912914D01*
X1960714Y1918004D01*
X1961228Y1918773D01*
X2032326D01*
X2038386Y1919978D01*
X2043524Y1923411D01*
X2057730Y1937617D01*
X2152930Y2032818D01*
X2156363Y2037955D01*
X2157568Y2044015D01*
Y2202599D01*
X2175040D01*
Y2200631D01*
X2187914D01*
Y2237206D01*
Y2273780D01*
D02*
G37*
G36*
X4225000Y2097650D02*
X4213910Y2096190D01*
X4203577Y2091910D01*
X4194703Y2085101D01*
X4187894Y2076227D01*
X4183613Y2065893D01*
X4182153Y2054803D01*
X4183613Y2043714D01*
X4187894Y2033380D01*
X4194703Y2024506D01*
X4203577Y2017697D01*
X4213910Y2013417D01*
X4225000Y2011957D01*
X4236090Y2013417D01*
X4246423Y2017697D01*
X4255297Y2024506D01*
X4262106Y2033380D01*
X4266387Y2043714D01*
X4267847Y2054803D01*
X4266387Y2065893D01*
X4262106Y2076227D01*
X4255297Y2085101D01*
X4246423Y2091910D01*
X4236090Y2096190D01*
X4225000Y2097650D01*
D02*
G37*
G36*
X2826459Y2195714D02*
X2796058Y2165313D01*
X2817594Y2143874D01*
X2818191Y2139342D01*
X2820983Y2132600D01*
X2825426Y2126810D01*
X2831216Y2122367D01*
X2837958Y2119575D01*
X2842620Y2118961D01*
X2923588Y2038358D01*
X2924257Y2033276D01*
X2927050Y2026534D01*
X2931492Y2020744D01*
X2937282Y2016302D01*
X2944024Y2013509D01*
X2949239Y2012822D01*
X2970394Y1991762D01*
X3000402Y2021770D01*
X2978845Y2043326D01*
X2978263Y2047747D01*
X2975470Y2054490D01*
X2971028Y2060280D01*
X2965238Y2064722D01*
X2958495Y2067515D01*
X2954075Y2068097D01*
X2872779Y2149393D01*
X2872197Y2153813D01*
X2869404Y2160556D01*
X2864961Y2166345D01*
X2859172Y2170788D01*
X2852429Y2173581D01*
X2848009Y2174163D01*
X2826459Y2195714D01*
D02*
G37*
G36*
X2816314Y1963484D02*
X2807328Y1961696D01*
X2799710Y1956606D01*
X2794619Y1948987D01*
X2792832Y1940001D01*
X2793307Y1937613D01*
X2777384Y1921690D01*
X2657981D01*
X2656381Y1924085D01*
X2648763Y1929175D01*
X2639776Y1930963D01*
X2630790Y1929175D01*
X2623171Y1924085D01*
X2618081Y1916466D01*
X2616294Y1907480D01*
X2618081Y1898494D01*
X2623171Y1890875D01*
X2630790Y1885785D01*
X2639776Y1883997D01*
X2648763Y1885785D01*
X2656381Y1890875D01*
X2657981Y1893270D01*
X2783270D01*
X2788708Y1894352D01*
X2793318Y1897432D01*
X2813053Y1917167D01*
X2816314Y1916518D01*
X2825301Y1918306D01*
X2832919Y1923396D01*
X2838010Y1931014D01*
X2839797Y1940001D01*
X2838010Y1948987D01*
X2832919Y1956606D01*
X2825301Y1961696D01*
X2816314Y1963484D01*
D02*
G37*
G36*
X2670146Y2129782D02*
X2661159Y2127994D01*
X2653541Y2122904D01*
X2648450Y2115286D01*
X2646663Y2106299D01*
X2648450Y2097313D01*
X2653541Y2089694D01*
X2661159Y2084604D01*
X2670146Y2082816D01*
X2679132Y2084604D01*
X2686750Y2089694D01*
X2688351Y2092089D01*
X2747540D01*
X2920543Y1919086D01*
X2925153Y1916006D01*
X2930591Y1914924D01*
X2935861D01*
X2937461Y1912529D01*
X2945079Y1907439D01*
X2954066Y1905651D01*
X2963052Y1907439D01*
X2970671Y1912529D01*
X2975761Y1920148D01*
X2977548Y1929134D01*
X2975761Y1938120D01*
X2970671Y1945739D01*
X2963052Y1950829D01*
X2954066Y1952617D01*
X2945079Y1950829D01*
X2937461Y1945739D01*
X2934385Y1945436D01*
X2763474Y2116347D01*
X2758863Y2119427D01*
X2753426Y2120509D01*
X2688351D01*
X2686750Y2122904D01*
X2679132Y2127994D01*
X2670146Y2129782D01*
D02*
G37*
G36*
X4225000Y1979540D02*
X4213910Y1978080D01*
X4203577Y1973800D01*
X4194703Y1966991D01*
X4187894Y1958117D01*
X4183613Y1947783D01*
X4182153Y1936693D01*
X4183613Y1925604D01*
X4187894Y1915270D01*
X4194703Y1906396D01*
X4203577Y1899587D01*
X4213910Y1895306D01*
X4225000Y1893847D01*
X4236090Y1895306D01*
X4246423Y1899587D01*
X4255297Y1906396D01*
X4262106Y1915270D01*
X4266387Y1925604D01*
X4267847Y1936693D01*
X4266387Y1947783D01*
X4262106Y1958117D01*
X4255297Y1966991D01*
X4246423Y1973800D01*
X4236090Y1978080D01*
X4225000Y1979540D01*
D02*
G37*
G36*
X3515969Y1840267D02*
Y1820772D01*
X3535464D01*
X3534519Y1825526D01*
X3528993Y1833796D01*
X3520724Y1839322D01*
X3515969Y1840267D01*
D02*
G37*
G36*
X3505969D02*
X3501215Y1839322D01*
X3492945Y1833796D01*
X3487420Y1825526D01*
X3486474Y1820772D01*
X3505969D01*
Y1840267D01*
D02*
G37*
G36*
X3756474Y1952617D02*
X3747487Y1950829D01*
X3739869Y1945739D01*
X3734779Y1938120D01*
X3732991Y1929134D01*
X3734779Y1920148D01*
X3739869Y1912529D01*
X3747487Y1907439D01*
X3756474Y1905651D01*
X3759299Y1906213D01*
X3771736Y1893776D01*
Y1851355D01*
X3769341Y1849755D01*
X3764250Y1842136D01*
X3762463Y1833150D01*
X3764250Y1824164D01*
X3769341Y1816545D01*
X3776959Y1811455D01*
X3785946Y1809667D01*
X3794932Y1811455D01*
X3802550Y1816545D01*
X3807641Y1824164D01*
X3809428Y1833150D01*
X3807641Y1842136D01*
X3802550Y1849755D01*
X3800156Y1851355D01*
Y1899662D01*
X3799074Y1905100D01*
X3795994Y1909710D01*
X3779395Y1926309D01*
X3779956Y1929134D01*
X3778169Y1938120D01*
X3773079Y1945739D01*
X3765460Y1950829D01*
X3756474Y1952617D01*
D02*
G37*
G36*
X1785984Y1863701D02*
X1764252D01*
Y1861732D01*
X1715040D01*
Y1808268D01*
X1725594D01*
Y1780231D01*
X1719172D01*
X1711430Y1778691D01*
X1704866Y1774306D01*
X1700480Y1767742D01*
X1698940Y1760000D01*
X1700480Y1752258D01*
X1704866Y1745694D01*
X1711430Y1741309D01*
X1719172Y1739769D01*
X1752636D01*
X1760378Y1741309D01*
X1766942Y1745694D01*
X1771328Y1752258D01*
X1772868Y1760000D01*
X1771328Y1767742D01*
X1766942Y1774306D01*
X1760378Y1778691D01*
X1754014Y1779957D01*
Y1808268D01*
X1764252D01*
Y1806299D01*
X1785984D01*
Y1835000D01*
Y1863701D01*
D02*
G37*
G36*
X3535464Y1810772D02*
X3515969D01*
Y1791277D01*
X3520724Y1792223D01*
X3528993Y1797748D01*
X3534519Y1806017D01*
X3535464Y1810772D01*
D02*
G37*
G36*
X3505969D02*
X3486474D01*
X3487420Y1806017D01*
X3492945Y1797748D01*
X3501215Y1792223D01*
X3505969Y1791277D01*
Y1810772D01*
D02*
G37*
G36*
X4225000Y1861430D02*
X4213910Y1859970D01*
X4203577Y1855690D01*
X4194703Y1848881D01*
X4187894Y1840007D01*
X4183613Y1829673D01*
X4182153Y1818583D01*
X4183613Y1807494D01*
X4187894Y1797160D01*
X4194703Y1788286D01*
X4203577Y1781477D01*
X4213910Y1777197D01*
X4225000Y1775736D01*
X4236090Y1777197D01*
X4246423Y1781477D01*
X4255297Y1788286D01*
X4262106Y1797160D01*
X4266387Y1807494D01*
X4267847Y1818583D01*
X4266387Y1829673D01*
X4262106Y1840007D01*
X4255297Y1848881D01*
X4246423Y1855690D01*
X4236090Y1859970D01*
X4225000Y1861430D01*
D02*
G37*
G36*
X2500000Y1814821D02*
X2491014Y1813034D01*
X2483395Y1807943D01*
X2478305Y1800325D01*
X2477088Y1794210D01*
X2231330D01*
X2225892Y1793128D01*
X2221282Y1790048D01*
X2168179Y1736945D01*
X2165354Y1737507D01*
X2156368Y1735719D01*
X2148749Y1730629D01*
X2143659Y1723011D01*
X2141872Y1714024D01*
X2142176Y1712495D01*
X2136646Y1709540D01*
X2076138Y1770048D01*
X2071528Y1773128D01*
X2066090Y1774210D01*
X1981574D01*
X1981510Y1774306D01*
X1974946Y1778691D01*
X1967204Y1780231D01*
X1933740D01*
X1925998Y1778691D01*
X1919434Y1774306D01*
X1915049Y1767742D01*
X1913508Y1760000D01*
X1915049Y1752258D01*
X1919434Y1745694D01*
X1925998Y1741309D01*
X1933740Y1739769D01*
X1967204D01*
X1974946Y1741309D01*
X1981510Y1745694D01*
X1981574Y1745790D01*
X2010121D01*
X2012715Y1740864D01*
Y1718148D01*
X2042400D01*
X2072085D01*
Y1726069D01*
X2077628Y1728365D01*
X2146284Y1659710D01*
X2150894Y1656629D01*
X2156332Y1655548D01*
X2222012D01*
X2223612Y1653153D01*
X2231230Y1648062D01*
X2240217Y1646275D01*
X2244866Y1647200D01*
X2248474Y1641800D01*
X2246282Y1638520D01*
X2244495Y1629533D01*
X2239436Y1624210D01*
X1981574D01*
X1981510Y1624306D01*
X1974946Y1628691D01*
X1967204Y1630231D01*
X1933740D01*
X1925998Y1628691D01*
X1919434Y1624306D01*
X1915049Y1617742D01*
X1913508Y1610000D01*
X1915049Y1602258D01*
X1919434Y1595694D01*
X1925998Y1591309D01*
X1933740Y1589769D01*
X1967204D01*
X1974946Y1591309D01*
X1981510Y1595694D01*
X1981574Y1595790D01*
X2151144D01*
Y1463205D01*
X2148749Y1461605D01*
X2143659Y1453986D01*
X2141872Y1445000D01*
X2143659Y1436014D01*
X2148749Y1428395D01*
X2156368Y1423305D01*
X2165354Y1421517D01*
X2174341Y1423305D01*
X2181959Y1428395D01*
X2187050Y1436014D01*
X2188837Y1445000D01*
X2187050Y1453986D01*
X2181959Y1461605D01*
X2179564Y1463205D01*
Y1595790D01*
X2251297D01*
X2256735Y1596872D01*
X2261345Y1599952D01*
X2267532Y1606139D01*
X2267978Y1606051D01*
X2276964Y1607838D01*
X2284582Y1612928D01*
X2289673Y1620547D01*
X2291460Y1629533D01*
X2289673Y1638520D01*
X2284582Y1646138D01*
X2286087Y1652349D01*
X2286641Y1652488D01*
X2308573Y1630556D01*
Y1556867D01*
X2273417Y1521710D01*
X2270336Y1517100D01*
X2269255Y1511662D01*
Y1463205D01*
X2266860Y1461605D01*
X2261769Y1453986D01*
X2259982Y1445000D01*
X2261769Y1436014D01*
X2266860Y1428395D01*
X2274478Y1423305D01*
X2283465Y1421517D01*
X2292451Y1423305D01*
X2300069Y1428395D01*
X2305160Y1436014D01*
X2306947Y1445000D01*
X2305160Y1453986D01*
X2300069Y1461605D01*
X2297675Y1463205D01*
Y1505776D01*
X2332831Y1540933D01*
X2335912Y1545543D01*
X2336993Y1550981D01*
Y1636442D01*
X2335912Y1641880D01*
X2332831Y1646490D01*
X2299516Y1679806D01*
X2294906Y1682886D01*
X2289468Y1683968D01*
X2258421D01*
X2256821Y1686362D01*
X2249203Y1691453D01*
X2240217Y1693240D01*
X2231230Y1691453D01*
X2223612Y1686362D01*
X2222012Y1683968D01*
X2166953D01*
X2166538Y1684659D01*
X2169512Y1691368D01*
X2174341Y1692329D01*
X2181959Y1697419D01*
X2187050Y1705038D01*
X2188837Y1714024D01*
X2188275Y1716849D01*
X2237216Y1765790D01*
X2488661D01*
X2494099Y1766872D01*
X2496588Y1768535D01*
X2500000Y1767856D01*
X2508986Y1769643D01*
X2516605Y1774734D01*
X2521695Y1782352D01*
X2523483Y1791339D01*
X2521695Y1800325D01*
X2516605Y1807943D01*
X2508986Y1813034D01*
X2500000Y1814821D01*
D02*
G37*
G36*
X1365078Y1862730D02*
X1353988Y1861270D01*
X1343655Y1856989D01*
X1334781Y1850180D01*
X1327972Y1841306D01*
X1323691Y1830973D01*
X1322231Y1819883D01*
X1323691Y1808793D01*
X1327972Y1798460D01*
X1334781Y1789586D01*
X1343655Y1782776D01*
X1353988Y1778496D01*
X1365078Y1777036D01*
X1376168Y1778496D01*
X1381755Y1780811D01*
X1397472Y1765094D01*
Y1751968D01*
X1398677Y1745908D01*
X1402110Y1740771D01*
X1412377Y1730504D01*
X1410365Y1724031D01*
X1408773Y1722967D01*
X1403248Y1723158D01*
X1401078Y1724636D01*
X1395375Y1732068D01*
X1386501Y1738878D01*
X1376168Y1743158D01*
X1365078Y1744618D01*
X1353988Y1743158D01*
X1343655Y1738878D01*
X1334781Y1732068D01*
X1327972Y1723194D01*
X1323691Y1712861D01*
X1322231Y1701771D01*
X1323691Y1690681D01*
X1327972Y1680348D01*
X1334781Y1671474D01*
X1343655Y1664665D01*
X1353988Y1660384D01*
X1365078Y1658924D01*
X1376168Y1660384D01*
X1386501Y1664665D01*
X1395375Y1671474D01*
X1402185Y1680348D01*
X1404499Y1685935D01*
X1409094D01*
X1415154Y1687141D01*
X1420292Y1690573D01*
X1423882Y1694164D01*
X1539842D01*
X1589614Y1644392D01*
X1594752Y1640960D01*
X1600812Y1639754D01*
X1614025D01*
X1618268Y1635512D01*
X1618268Y1630826D01*
X1618268Y1624826D01*
Y1618620D01*
X1582920D01*
X1577876Y1623032D01*
X1576088Y1632018D01*
X1570998Y1639637D01*
X1563380Y1644727D01*
X1554393Y1646514D01*
X1545407Y1644727D01*
X1537788Y1639637D01*
X1532698Y1632018D01*
X1530910Y1623032D01*
X1532698Y1614045D01*
X1537788Y1606427D01*
X1545407Y1601337D01*
X1554393Y1599549D01*
X1557218Y1600111D01*
X1562967Y1594362D01*
X1567577Y1591282D01*
X1573015Y1590200D01*
X1618268D01*
Y1579646D01*
X1671732D01*
Y1590200D01*
X1685495D01*
X1690932Y1591282D01*
X1695543Y1594362D01*
X1696971Y1595790D01*
X1704802D01*
X1704866Y1595694D01*
X1706470Y1594622D01*
X1707058Y1588651D01*
X1703100Y1584693D01*
X1700020Y1580083D01*
X1698938Y1574645D01*
Y1562716D01*
X1687716D01*
Y1564685D01*
X1665000D01*
Y1535000D01*
Y1505315D01*
X1687716D01*
Y1507284D01*
X1738896D01*
Y1562716D01*
X1727358D01*
Y1568759D01*
X1745952Y1587353D01*
X1747566Y1589769D01*
X1752636D01*
X1760378Y1591309D01*
X1766942Y1595694D01*
X1771328Y1602258D01*
X1772868Y1610000D01*
X1771328Y1617742D01*
X1766942Y1624306D01*
X1760378Y1628691D01*
X1752636Y1630231D01*
X1719172D01*
X1711430Y1628691D01*
X1704866Y1624306D01*
X1704802Y1624210D01*
X1691085D01*
X1691085Y1624210D01*
X1685647Y1623128D01*
X1681037Y1620048D01*
X1674302Y1620293D01*
X1671732Y1622863D01*
X1671732Y1629174D01*
X1671732Y1635174D01*
Y1644164D01*
X1707156D01*
X1711430Y1641309D01*
X1719172Y1639769D01*
X1752636D01*
X1760378Y1641309D01*
X1766942Y1645694D01*
X1771328Y1652258D01*
X1772868Y1660000D01*
X1771328Y1667742D01*
X1766942Y1674306D01*
X1760378Y1678691D01*
X1752636Y1680231D01*
X1719172D01*
X1711430Y1678691D01*
X1707156Y1675836D01*
X1671732D01*
Y1680354D01*
X1618268D01*
Y1671426D01*
X1607371D01*
X1565176Y1713621D01*
X1567472Y1719164D01*
X1618268D01*
Y1704646D01*
X1671732D01*
Y1704646D01*
X1674825Y1705927D01*
X1681950Y1698802D01*
X1687088Y1695370D01*
X1693148Y1694164D01*
X1707156D01*
X1711430Y1691309D01*
X1719172Y1689769D01*
X1752636D01*
X1760378Y1691309D01*
X1766942Y1695694D01*
X1771328Y1702258D01*
X1772868Y1710000D01*
X1771328Y1717742D01*
X1766942Y1724306D01*
X1760378Y1728691D01*
X1752636Y1730231D01*
X1719172D01*
X1711430Y1728691D01*
X1707156Y1725836D01*
X1699707D01*
X1684936Y1740608D01*
X1679798Y1744040D01*
X1673738Y1745246D01*
X1671732Y1747252D01*
X1671732Y1754174D01*
X1671732Y1760174D01*
Y1805354D01*
X1618268D01*
Y1794800D01*
X1572204D01*
X1570998Y1796605D01*
X1563380Y1801695D01*
X1554393Y1803483D01*
X1545407Y1801695D01*
X1537788Y1796605D01*
X1532698Y1788986D01*
X1530910Y1780000D01*
X1532698Y1771014D01*
X1537788Y1763395D01*
X1545407Y1758305D01*
X1550131Y1757365D01*
X1550413Y1756584D01*
X1550891Y1751096D01*
X1550556Y1750836D01*
X1436835D01*
X1429143Y1758528D01*
Y1771653D01*
X1427938Y1777714D01*
X1424505Y1782851D01*
X1404150Y1803206D01*
X1406465Y1808793D01*
X1407925Y1819883D01*
X1406465Y1830973D01*
X1402185Y1841306D01*
X1395375Y1850180D01*
X1386501Y1856989D01*
X1376168Y1861270D01*
X1365078Y1862730D01*
D02*
G37*
G36*
X1967204Y1732238D02*
X1955472D01*
Y1715000D01*
X1988448D01*
X1987750Y1718510D01*
X1982929Y1725725D01*
X1975715Y1730545D01*
X1967204Y1732238D01*
D02*
G37*
G36*
X1945472D02*
X1933740D01*
X1925229Y1730545D01*
X1918015Y1725725D01*
X1913194Y1718510D01*
X1912496Y1715000D01*
X1945472D01*
Y1732238D01*
D02*
G37*
G36*
X2887795Y1779388D02*
X2878809Y1777601D01*
X2871190Y1772510D01*
X2866100Y1764892D01*
X2864312Y1755906D01*
X2866100Y1746919D01*
X2871190Y1739301D01*
X2878809Y1734210D01*
X2887795Y1732423D01*
X2890620Y1732985D01*
X2895660Y1727944D01*
X2900270Y1724864D01*
X2903153Y1724291D01*
Y1718173D01*
X2902681Y1718079D01*
X2895063Y1712989D01*
X2889972Y1705370D01*
X2888185Y1696384D01*
X2889972Y1687398D01*
X2895063Y1679779D01*
X2902681Y1674689D01*
X2911668Y1672901D01*
X2914492Y1673463D01*
X2921305Y1666651D01*
X2924318Y1664638D01*
X2922497Y1658638D01*
X2900007D01*
X2898407Y1661033D01*
X2890789Y1666123D01*
X2881802Y1667910D01*
X2872816Y1666123D01*
X2865197Y1661033D01*
X2860107Y1653414D01*
X2858319Y1644428D01*
X2860107Y1635441D01*
X2865197Y1627823D01*
X2872816Y1622733D01*
X2881802Y1620945D01*
X2890789Y1622733D01*
X2898407Y1627823D01*
X2900007Y1630218D01*
X3075063D01*
X3076663Y1627823D01*
X3084281Y1622733D01*
X3093268Y1620945D01*
X3102254Y1622733D01*
X3109872Y1627823D01*
X3114963Y1635441D01*
X3116750Y1644428D01*
X3114963Y1653414D01*
X3112908Y1656489D01*
X3116115Y1662489D01*
X3147258D01*
X3151743Y1655777D01*
X3159362Y1650686D01*
X3168348Y1648899D01*
X3177335Y1650686D01*
X3184953Y1655777D01*
X3190043Y1663395D01*
X3191831Y1672382D01*
X3190043Y1681368D01*
X3184953Y1688986D01*
X3177335Y1694077D01*
X3168348Y1695864D01*
X3159362Y1694077D01*
X3154621Y1690909D01*
X2939485D01*
X2935077Y1696014D01*
X2935150Y1696384D01*
X2933363Y1705370D01*
X2928272Y1712989D01*
X2921099Y1717782D01*
X2921048Y1718217D01*
X2924718Y1723782D01*
X3170765D01*
X3172365Y1721387D01*
X3179984Y1716297D01*
X3188970Y1714509D01*
X3197956Y1716297D01*
X3205575Y1721387D01*
X3210665Y1729006D01*
X3212453Y1737992D01*
X3210665Y1746979D01*
X3205575Y1754597D01*
X3197956Y1759687D01*
X3188970Y1761475D01*
X3179984Y1759687D01*
X3172365Y1754597D01*
X3170765Y1752202D01*
X2916659D01*
X2911278Y1755906D01*
X2909490Y1764892D01*
X2904400Y1772510D01*
X2896781Y1777601D01*
X2887795Y1779388D01*
D02*
G37*
G36*
X1988448Y1705000D02*
X1955472D01*
Y1687762D01*
X1967204D01*
X1975715Y1689455D01*
X1982929Y1694275D01*
X1987750Y1701490D01*
X1988448Y1705000D01*
D02*
G37*
G36*
X1945472D02*
X1912496D01*
X1913194Y1701490D01*
X1918015Y1694275D01*
X1925229Y1689455D01*
X1933740Y1687762D01*
X1945472D01*
Y1705000D01*
D02*
G37*
G36*
X4225000Y1743320D02*
X4213910Y1741860D01*
X4203577Y1737580D01*
X4194703Y1730771D01*
X4187894Y1721897D01*
X4183613Y1711563D01*
X4182153Y1700473D01*
X4183613Y1689384D01*
X4187894Y1679050D01*
X4194703Y1670176D01*
X4203577Y1663367D01*
X4213910Y1659086D01*
X4225000Y1657627D01*
X4236090Y1659086D01*
X4246423Y1663367D01*
X4255297Y1670176D01*
X4262106Y1679050D01*
X4266387Y1689384D01*
X4267847Y1700473D01*
X4266387Y1711563D01*
X4262106Y1721897D01*
X4255297Y1730771D01*
X4246423Y1737580D01*
X4236090Y1741860D01*
X4225000Y1743320D01*
D02*
G37*
G36*
X2554167Y1661821D02*
Y1642326D01*
X2573663D01*
X2572717Y1647081D01*
X2567191Y1655350D01*
X2558922Y1660876D01*
X2554167Y1661821D01*
D02*
G37*
G36*
X2544167D02*
X2539413Y1660876D01*
X2531143Y1655350D01*
X2525618Y1647081D01*
X2524672Y1642326D01*
X2544167D01*
Y1661821D01*
D02*
G37*
G36*
X2573663Y1632326D02*
X2554167D01*
Y1612831D01*
X2558922Y1613777D01*
X2567191Y1619302D01*
X2572717Y1627572D01*
X2573663Y1632326D01*
D02*
G37*
G36*
X2544167D02*
X2524672D01*
X2525618Y1627572D01*
X2531143Y1619302D01*
X2539413Y1613777D01*
X2544167Y1612831D01*
Y1632326D01*
D02*
G37*
G36*
X1370078Y1627835D02*
Y1588661D01*
X1409252D01*
X1408383Y1595264D01*
X1403904Y1606077D01*
X1396779Y1615362D01*
X1387494Y1622487D01*
X1376681Y1626966D01*
X1370078Y1627835D01*
D02*
G37*
G36*
X1360078D02*
X1353475Y1626966D01*
X1342662Y1622487D01*
X1333377Y1615362D01*
X1326252Y1606077D01*
X1321773Y1595264D01*
X1320904Y1588661D01*
X1360078D01*
Y1627835D01*
D02*
G37*
G36*
X1655000Y1564685D02*
X1632284D01*
Y1540000D01*
X1655000D01*
Y1564685D01*
D02*
G37*
G36*
X1409252Y1578661D02*
X1370078D01*
Y1539487D01*
X1376681Y1540356D01*
X1387494Y1544835D01*
X1396779Y1551960D01*
X1403904Y1561245D01*
X1408383Y1572057D01*
X1409252Y1578661D01*
D02*
G37*
G36*
X1360078D02*
X1320904D01*
X1321773Y1572057D01*
X1326252Y1561245D01*
X1333377Y1551960D01*
X1342662Y1544835D01*
X1353475Y1540356D01*
X1360078Y1539487D01*
Y1578661D01*
D02*
G37*
G36*
X1655000Y1530000D02*
X1632284D01*
Y1505315D01*
X1655000D01*
Y1530000D01*
D02*
G37*
G36*
X3699016Y1496334D02*
Y1476839D01*
X3718511D01*
X3717566Y1481593D01*
X3712040Y1489863D01*
X3703771Y1495388D01*
X3699016Y1496334D01*
D02*
G37*
G36*
X3689016D02*
X3684262Y1495388D01*
X3675992Y1489863D01*
X3670466Y1481593D01*
X3669521Y1476839D01*
X3689016D01*
Y1496334D01*
D02*
G37*
G36*
X1370078Y1509725D02*
Y1470551D01*
X1409252D01*
X1408383Y1477155D01*
X1403904Y1487967D01*
X1396779Y1497252D01*
X1387494Y1504377D01*
X1376681Y1508856D01*
X1370078Y1509725D01*
D02*
G37*
G36*
X1360078D02*
X1353475Y1508856D01*
X1342662Y1504377D01*
X1333377Y1497252D01*
X1326252Y1487967D01*
X1321773Y1477155D01*
X1320904Y1470551D01*
X1360078D01*
Y1509725D01*
D02*
G37*
G36*
X1409252Y1460551D02*
X1370078D01*
Y1421377D01*
X1376681Y1422246D01*
X1387494Y1426725D01*
X1396779Y1433850D01*
X1403904Y1443135D01*
X1408383Y1453947D01*
X1409252Y1460551D01*
D02*
G37*
G36*
X1360078D02*
X1320904D01*
X1321773Y1453947D01*
X1326252Y1443135D01*
X1333377Y1433850D01*
X1342662Y1426725D01*
X1353475Y1422246D01*
X1360078Y1421377D01*
Y1460551D01*
D02*
G37*
G36*
X1928070Y1412044D02*
X1928069Y1412044D01*
X1770001D01*
X1770000Y1412044D01*
X1763026Y1410657D01*
X1757113Y1406707D01*
X1745618Y1395210D01*
X1741667Y1389298D01*
X1740280Y1382324D01*
X1740280Y1382323D01*
Y1372874D01*
X1733740D01*
Y1319409D01*
X1733740D01*
X1736367Y1313409D01*
X1735761Y1312502D01*
X1734374Y1305527D01*
X1734374Y1305527D01*
Y1284488D01*
X1728819D01*
Y1232992D01*
X1776378D01*
Y1284488D01*
X1770822D01*
Y1298721D01*
X1773277Y1302396D01*
X1774665Y1309370D01*
X1774665Y1309370D01*
Y1319409D01*
X1782952D01*
Y1317441D01*
X1804684D01*
Y1346141D01*
X1809684D01*
Y1351141D01*
X1836416D01*
Y1374842D01*
X1842104Y1375596D01*
X1920521D01*
X1948070Y1348046D01*
X1946004Y1342046D01*
X1931181D01*
Y1272834D01*
X2004330D01*
Y1342046D01*
X1985980D01*
Y1354134D01*
X1984593Y1361108D01*
X1980642Y1367020D01*
X1980642Y1367021D01*
X1940956Y1406707D01*
X1935044Y1410657D01*
X1928070Y1412044D01*
D02*
G37*
G36*
X2709685Y1417716D02*
X2685000D01*
Y1395000D01*
X2709685D01*
Y1417716D01*
D02*
G37*
G36*
X2675000D02*
X2650315D01*
Y1395000D01*
X2675000D01*
Y1417716D01*
D02*
G37*
G36*
X2609370Y1395631D02*
X2565000D01*
Y1361104D01*
X2609370D01*
Y1395631D01*
D02*
G37*
G36*
X2555000D02*
X2510630D01*
Y1361104D01*
X2555000D01*
Y1395631D01*
D02*
G37*
G36*
X2202638Y1382716D02*
X2160236D01*
Y1359999D01*
X2202638D01*
Y1382716D01*
D02*
G37*
G36*
X2150236D02*
X2107835D01*
Y1359999D01*
X2150236D01*
Y1382716D01*
D02*
G37*
G36*
X4083004Y1372643D02*
Y1353148D01*
X4102499D01*
X4101553Y1357902D01*
X4096028Y1366172D01*
X4087758Y1371697D01*
X4083004Y1372643D01*
D02*
G37*
G36*
X4073004D02*
X4068249Y1371697D01*
X4059980Y1366172D01*
X4054454Y1357902D01*
X4053508Y1353148D01*
X4073004D01*
Y1372643D01*
D02*
G37*
G36*
X2202638Y1349999D02*
X2160236D01*
Y1327283D01*
X2202638D01*
Y1349999D01*
D02*
G37*
G36*
X2150236D02*
X2107835D01*
Y1327283D01*
X2150236D01*
Y1349999D01*
D02*
G37*
G36*
X4102499Y1343148D02*
X4083004D01*
Y1323653D01*
X4087758Y1324599D01*
X4096028Y1330124D01*
X4101553Y1338393D01*
X4102499Y1343148D01*
D02*
G37*
G36*
X4073004D02*
X4053508D01*
X4054454Y1338393D01*
X4059980Y1330124D01*
X4068249Y1324599D01*
X4073004Y1323653D01*
Y1343148D01*
D02*
G37*
G36*
X1836416Y1341141D02*
X1814684D01*
Y1317441D01*
X1836416D01*
Y1341141D01*
D02*
G37*
G36*
X2609370Y1351104D02*
X2565000D01*
Y1316576D01*
X2609370D01*
Y1351104D01*
D02*
G37*
G36*
X2555000D02*
X2510630D01*
Y1316576D01*
X2555000D01*
Y1351104D01*
D02*
G37*
G36*
X1365078Y1390288D02*
X1353988Y1388828D01*
X1343655Y1384547D01*
X1334781Y1377738D01*
X1327972Y1368864D01*
X1323691Y1358531D01*
X1322231Y1347441D01*
X1323691Y1336351D01*
X1327972Y1326018D01*
X1334781Y1317144D01*
X1343655Y1310334D01*
X1353988Y1306054D01*
X1365078Y1304594D01*
X1376168Y1306054D01*
X1386501Y1310334D01*
X1395375Y1317144D01*
X1400019Y1323196D01*
X1407280D01*
X1419864Y1310612D01*
X1427730Y1305356D01*
X1437008Y1303511D01*
X1533265D01*
X1557233Y1279542D01*
X1554748Y1273542D01*
X1541535D01*
Y1270071D01*
X1381572D01*
X1378977Y1269554D01*
X1376168Y1270718D01*
X1365078Y1272178D01*
X1353988Y1270718D01*
X1343655Y1266438D01*
X1334781Y1259628D01*
X1327972Y1250754D01*
X1323691Y1240421D01*
X1322231Y1229331D01*
X1323691Y1218241D01*
X1327972Y1207908D01*
X1334781Y1199034D01*
X1343655Y1192225D01*
X1353988Y1187944D01*
X1365078Y1186484D01*
X1376168Y1187944D01*
X1386501Y1192225D01*
X1395375Y1199034D01*
X1402185Y1207908D01*
X1406465Y1218241D01*
X1406904Y1221580D01*
X1541535D01*
Y1218109D01*
X1628465D01*
Y1273542D01*
X1609245D01*
Y1286063D01*
X1607400Y1295342D01*
X1602144Y1303207D01*
X1560451Y1344900D01*
X1552586Y1350156D01*
X1543307Y1352001D01*
X1447051D01*
X1434467Y1364585D01*
X1426601Y1369841D01*
X1417323Y1371686D01*
X1400019D01*
X1395375Y1377738D01*
X1386501Y1384547D01*
X1376168Y1388828D01*
X1365078Y1390288D01*
D02*
G37*
G36*
X1853150Y1286457D02*
X1832402D01*
Y1263740D01*
X1853150D01*
Y1286457D01*
D02*
G37*
G36*
X1822402D02*
X1801654D01*
Y1263740D01*
X1822402D01*
Y1286457D01*
D02*
G37*
G36*
X1853150Y1253740D02*
X1832402D01*
Y1231024D01*
X1853150D01*
Y1253740D01*
D02*
G37*
G36*
X1822402D02*
X1801654D01*
Y1231024D01*
X1822402D01*
Y1253740D01*
D02*
G37*
G36*
X2359370Y1348387D02*
X2264566D01*
Y1182717D01*
X2359370D01*
Y1348387D01*
D02*
G37*
G36*
X1195000Y1221986D02*
X1179919Y1220501D01*
X1165418Y1216102D01*
X1152054Y1208959D01*
X1140340Y1199345D01*
X1130726Y1187631D01*
X1123583Y1174267D01*
X1119184Y1159766D01*
X1117699Y1144685D01*
X1119184Y1129604D01*
X1123583Y1115103D01*
X1130726Y1101739D01*
X1140340Y1090025D01*
X1152054Y1080411D01*
X1165418Y1073268D01*
X1179919Y1068869D01*
X1195000Y1067384D01*
X1210081Y1068869D01*
X1224582Y1073268D01*
X1237946Y1080411D01*
X1249660Y1090025D01*
X1259274Y1101739D01*
X1266417Y1115103D01*
X1270816Y1129604D01*
X1272301Y1144685D01*
X1270816Y1159766D01*
X1266417Y1174267D01*
X1259274Y1187631D01*
X1249660Y1199345D01*
X1237946Y1208959D01*
X1224582Y1216102D01*
X1210081Y1220501D01*
X1195000Y1221986D01*
D02*
G37*
G36*
X4395078Y1220687D02*
X4379997Y1219201D01*
X4365496Y1214803D01*
X4352132Y1207659D01*
X4340418Y1198046D01*
X4330804Y1186332D01*
X4323661Y1172967D01*
X4319262Y1158466D01*
X4317777Y1143385D01*
X4319262Y1128305D01*
X4323661Y1113803D01*
X4330804Y1100439D01*
X4340418Y1088725D01*
X4352132Y1079112D01*
X4365496Y1071968D01*
X4379997Y1067569D01*
X4395078Y1066084D01*
X4410159Y1067569D01*
X4424660Y1071968D01*
X4438024Y1079112D01*
X4449738Y1088725D01*
X4459352Y1100439D01*
X4466495Y1113803D01*
X4470894Y1128305D01*
X4472379Y1143385D01*
X4470894Y1158466D01*
X4466495Y1172967D01*
X4459352Y1186332D01*
X4449738Y1198046D01*
X4438024Y1207659D01*
X4424660Y1214803D01*
X4410159Y1219201D01*
X4395078Y1220687D01*
D02*
G37*
G36*
X3962652Y1065112D02*
Y969567D01*
X4058197D01*
X4056748Y984278D01*
X4050999Y1003232D01*
X4041662Y1020700D01*
X4029096Y1036011D01*
X4013785Y1048577D01*
X3996318Y1057914D01*
X3977363Y1063663D01*
X3962652Y1065112D01*
D02*
G37*
G36*
X3952652D02*
X3937941Y1063663D01*
X3918986Y1057914D01*
X3901519Y1048577D01*
X3886208Y1036011D01*
X3873642Y1020700D01*
X3864305Y1003232D01*
X3858556Y984278D01*
X3857107Y969567D01*
X3952652D01*
Y1065112D01*
D02*
G37*
G36*
X1619173D02*
Y969567D01*
X1714718D01*
X1713270Y984278D01*
X1707520Y1003232D01*
X1698183Y1020700D01*
X1685618Y1036011D01*
X1670307Y1048577D01*
X1652839Y1057914D01*
X1633885Y1063663D01*
X1619173Y1065112D01*
D02*
G37*
G36*
X1609173D02*
X1594462Y1063663D01*
X1575508Y1057914D01*
X1558040Y1048577D01*
X1542729Y1036011D01*
X1530163Y1020700D01*
X1520826Y1003232D01*
X1515077Y984278D01*
X1513628Y969567D01*
X1609173D01*
Y1065112D01*
D02*
G37*
G36*
X4058197Y959567D02*
X3962652D01*
Y864022D01*
X3977363Y865471D01*
X3996318Y871220D01*
X4013785Y880557D01*
X4029096Y893122D01*
X4041662Y908433D01*
X4050999Y925901D01*
X4056748Y944855D01*
X4058197Y959567D01*
D02*
G37*
G36*
X3952652D02*
X3857107D01*
X3858556Y944855D01*
X3864305Y925901D01*
X3873642Y908433D01*
X3886208Y893122D01*
X3901519Y880557D01*
X3918986Y871220D01*
X3937941Y865471D01*
X3952652Y864022D01*
Y959567D01*
D02*
G37*
G36*
X1714718D02*
X1619173D01*
Y864022D01*
X1633885Y865471D01*
X1652839Y871220D01*
X1670307Y880557D01*
X1685618Y893122D01*
X1698183Y908433D01*
X1707520Y925901D01*
X1713270Y944855D01*
X1714718Y959567D01*
D02*
G37*
G36*
X1609173D02*
X1513628D01*
X1515077Y944855D01*
X1520826Y925901D01*
X1530163Y908433D01*
X1542729Y893122D01*
X1558040Y880557D01*
X1575508Y871220D01*
X1594462Y865471D01*
X1609173Y864022D01*
Y959567D01*
D02*
G37*
%LPD*%
G36*
X2299432Y2064343D02*
X2306406Y2062956D01*
X2306407Y2062956D01*
X2353288D01*
X2829425Y1586819D01*
X2826939Y1580819D01*
X2771898D01*
X2657474Y1695243D01*
Y1739420D01*
X2656087Y1746394D01*
X2652136Y1752306D01*
X2652136Y1752307D01*
X2453663Y1950779D01*
X2447751Y1954730D01*
X2440777Y1956117D01*
X2440776Y1956117D01*
X2396600D01*
X2290749Y2061968D01*
X2290879Y2062842D01*
X2297371Y2065720D01*
X2299432Y2064343D01*
D02*
G37*
G36*
X3524355Y1522048D02*
Y1412737D01*
X3524355Y1412737D01*
X3525742Y1405763D01*
X3529693Y1399851D01*
X3583452Y1346091D01*
X3589364Y1342141D01*
X3596338Y1340754D01*
X3596338Y1340754D01*
X3646614D01*
Y1321419D01*
X3741418D01*
Y1331022D01*
X3830551D01*
Y1314526D01*
X3830551D01*
Y1312874D01*
X3830551D01*
Y1296382D01*
X3741418D01*
Y1305985D01*
X3646614D01*
Y1286650D01*
X3620461D01*
X3517476Y1389635D01*
Y1505747D01*
X3517476Y1505748D01*
X3516089Y1512722D01*
X3512139Y1518634D01*
X3512138Y1518635D01*
X3460824Y1569949D01*
X3463309Y1575949D01*
X3470454D01*
X3524355Y1522048D01*
D02*
G37*
G36*
X3481028Y1498199D02*
Y1382086D01*
X3481028Y1382086D01*
X3482415Y1375112D01*
X3486365Y1369199D01*
X3600025Y1255540D01*
X3600026Y1255540D01*
X3605938Y1251589D01*
X3612912Y1250202D01*
X3612912Y1250202D01*
X3646614D01*
Y1230867D01*
X3687412D01*
X3687806Y1224867D01*
X3681642Y1224055D01*
X3670111Y1219279D01*
X3665098Y1215433D01*
X3646614D01*
Y1180981D01*
X3646205Y1177874D01*
Y1139385D01*
X2744459D01*
X2744291Y1145315D01*
X2744291D01*
Y1170000D01*
X2716574D01*
Y1175000D01*
X2711574D01*
Y1204685D01*
X2688858D01*
Y1202716D01*
X2637678D01*
Y1147284D01*
X2645202D01*
Y1137811D01*
X2607811D01*
Y1175000D01*
X2607402Y1178107D01*
Y1212559D01*
X2588918D01*
X2583905Y1216405D01*
X2575991Y1219683D01*
X2577185Y1225683D01*
X2775414D01*
X2834289Y1166809D01*
X2842546Y1160473D01*
X2852161Y1156490D01*
X2862480Y1155131D01*
X2862481Y1155131D01*
X3329608D01*
X3339927Y1156490D01*
X3349542Y1160473D01*
X3357799Y1166809D01*
X3364135Y1175066D01*
X3368118Y1184681D01*
X3369477Y1195000D01*
X3368118Y1205319D01*
X3364135Y1214934D01*
X3357799Y1223191D01*
X3349542Y1229527D01*
X3347832Y1230236D01*
Y1491846D01*
X3364409Y1508422D01*
X3369990Y1512151D01*
X3375080Y1519770D01*
X3376868Y1528756D01*
X3375080Y1537743D01*
X3374187Y1539079D01*
X3377016Y1544371D01*
X3434856D01*
X3481028Y1498199D01*
D02*
G37*
%LPC*%
G36*
X3493386Y1351261D02*
X3398582D01*
Y1185591D01*
X3493386D01*
Y1351261D01*
D02*
G37*
G36*
X2744291Y1204685D02*
X2721574D01*
Y1180000D01*
X2744291D01*
Y1204685D01*
D02*
G37*
%LPD*%
D10*
X1758504Y1346141D02*
D03*
X1809684D02*
D03*
X1739804Y1835000D02*
D03*
X1790984D02*
D03*
D14*
X3858267Y1340274D02*
D03*
Y1287126D02*
D03*
X2042400Y1713148D02*
D03*
Y1660000D02*
D03*
X2680000Y1390000D02*
D03*
Y1336852D02*
D03*
D15*
X3846574Y1175000D02*
D03*
X3793426D02*
D03*
X1660000Y1535000D02*
D03*
X1713148D02*
D03*
X2716574Y1175000D02*
D03*
X2663426D02*
D03*
D16*
X2055236Y1193190D02*
D03*
Y1244370D02*
D03*
X1645000Y1604410D02*
D03*
Y1655590D02*
D03*
Y1729410D02*
D03*
Y1780590D02*
D03*
D22*
X1752598Y1258740D02*
D03*
X1827402D02*
D03*
X1790000Y1180000D02*
D03*
D27*
X2905708Y1737992D02*
X3188970D01*
X2887795Y1755906D02*
X2905708Y1737992D01*
X2881802Y1644428D02*
X3093268D01*
X2931353Y1676699D02*
X3164031D01*
X2911668Y1696384D02*
X2931353Y1676699D01*
X3164031D02*
X3168348Y1672382D01*
X1846457Y2112205D02*
Y2202251D01*
X1816316Y2232392D02*
X1846457Y2202251D01*
X1741730Y2232392D02*
X1816316D01*
X1694378Y2185039D02*
X1741730Y2232392D01*
X1494014Y2185039D02*
X1694378D01*
X1365078Y2056103D02*
X1494014Y2185039D01*
X1365078Y1937993D02*
X1723426D01*
X1846457Y2061024D01*
X1771653Y2112205D02*
Y2139449D01*
X1782033Y2149828D01*
Y2183186D01*
X1735870Y2061024D02*
X1771653D01*
X1721022Y2075871D02*
X1735870Y2061024D01*
X1721022Y2075871D02*
Y2153629D01*
X1846457Y2086614D02*
X1898372D01*
X1918057Y2066929D01*
Y2046705D02*
Y2066929D01*
X1875255Y2003903D02*
X1918057Y2046705D01*
X3785946Y1833150D02*
Y1899662D01*
X3756474Y1929134D02*
X3785946Y1899662D01*
X3168348Y2100347D02*
X3274724D01*
X3134606Y2066605D02*
X3168348Y2100347D01*
X3134606Y1989402D02*
Y2066605D01*
X1830709Y1752954D02*
Y1959357D01*
X1875255Y2003903D01*
X2024550D01*
X2090550Y2069904D01*
Y2237206D01*
X3694016Y1428333D02*
Y1471839D01*
X2488661Y1780000D02*
X2500000Y1791339D01*
X2231330Y1780000D02*
X2488661D01*
X3083455Y1854817D02*
X3134606Y1905968D01*
X2800951Y1854817D02*
X3083455D01*
X2719242Y1773108D02*
X2800951Y1854817D01*
X3134606Y1905968D02*
Y1989402D01*
X2753426Y2106299D02*
X2930591Y1929134D01*
X2954066D01*
X2815791Y1940001D02*
X2816314D01*
X2783270Y1907480D02*
X2815791Y1940001D01*
X2639776Y1907480D02*
X2783270D01*
X2670146Y2106299D02*
X2753426D01*
X2165354Y1714024D02*
X2231330Y1780000D01*
X2156332Y1669758D02*
X2240217D01*
X2066090Y1760000D02*
X2156332Y1669758D01*
X1950472Y1760000D02*
X2066090D01*
X2283465Y1445000D02*
Y1511662D01*
X2322783Y1550981D01*
Y1636442D01*
X2289468Y1669758D02*
X2322783Y1636442D01*
X2240217Y1669758D02*
X2289468D01*
X2165354Y1610000D02*
X2251297D01*
X1950472D02*
X2165354D01*
Y1445000D02*
Y1610000D01*
X2267978Y1626680D02*
Y1629533D01*
X2251297Y1610000D02*
X2267978Y1626680D01*
X1830709Y1726914D02*
X1897623Y1660000D01*
X1950472D01*
X2677165Y1265552D02*
X2680000Y1268387D01*
Y1336852D01*
X1573015Y1604410D02*
X1645000D01*
X1554393Y1623032D02*
X1573015Y1604410D01*
X1554393Y1780000D02*
X1554983Y1780590D01*
X1645000D01*
X1735904Y1597401D02*
Y1610000D01*
X1713148Y1574645D02*
X1735904Y1597401D01*
X1713148Y1535000D02*
Y1574645D01*
X1691085Y1610000D02*
X1735904D01*
X1685495Y1604410D02*
X1691085Y1610000D01*
X1645000Y1604410D02*
X1685495D01*
X1950472Y1660000D02*
X2037472D01*
X1735904Y1760000D02*
X1739804Y1763900D01*
Y1835000D01*
D28*
X1896222Y1921270D02*
Y1929175D01*
X1896208Y1921256D02*
X1896222Y1921270D01*
X1944109Y1934609D02*
X2032326D01*
X2037717Y1940000D01*
X2038662Y1940945D01*
X1896208Y1921256D02*
X1896222Y1921242D01*
X1894665Y1928298D02*
Y1953591D01*
Y1928298D02*
X1897634Y1925330D01*
X1894665Y1953591D02*
X1897634Y1956560D01*
Y1919831D02*
Y1925330D01*
Y1956560D02*
Y1961861D01*
X2038662Y1940945D02*
X2046532Y1948815D01*
X1896222Y1921242D02*
X1897634Y1919831D01*
X3268240Y2054803D02*
X3937008D01*
X3275401Y2017686D02*
X3847467D01*
X3885827Y1979325D01*
X3205000Y1991563D02*
X3268240Y2054803D01*
X2116142Y2053780D02*
Y2237206D01*
X2044646Y1982284D02*
X2116142Y2053780D01*
X1918057Y1982284D02*
X2044646D01*
X1897634Y1961861D02*
X1918057Y1982284D01*
X2141732Y2044015D02*
Y2237206D01*
X2046532Y1948815D02*
X2141732Y2044015D01*
X1413307Y1751968D02*
X1430276Y1735000D01*
X1365078Y1819883D02*
X1413307Y1771653D01*
Y1751968D02*
Y1771653D01*
X1365078Y1701771D02*
X1409094D01*
X1417323Y1710000D02*
X1546402D01*
X1409094Y1701771D02*
X1417323Y1710000D01*
X3246822Y1986284D02*
Y1989108D01*
X3275401Y2017686D01*
X1430276Y1735000D02*
X1639410D01*
X1645000Y1729410D01*
X1673738D01*
X1693148Y1710000D01*
X1735904D01*
X1649410Y1660000D02*
X1735904D01*
X1645000Y1655590D02*
X1649410Y1660000D01*
X1600812Y1655590D02*
X1645000D01*
X1546402Y1710000D02*
X1600812Y1655590D01*
D29*
X2663426Y1091574D02*
X2665000Y1090000D01*
X2639250Y1687694D02*
X2764349Y1562595D01*
X2639250Y1687694D02*
Y1739420D01*
X2263952Y2062992D02*
X2389051Y1937893D01*
X2440777D01*
X2764349Y1562595D02*
X3442405D01*
X2440777Y1937893D02*
X2639250Y1739420D01*
X2847844Y1594173D02*
X3478003D01*
X2360836Y2081180D02*
X2847844Y1594173D01*
X2306406Y2081180D02*
X2360836D01*
X3478003Y1594173D02*
X3542579Y1529597D01*
X2281287Y2106299D02*
X2306406Y2081180D01*
X3442405Y1562595D02*
X3499252Y1505748D01*
X2224409Y2042322D02*
Y2082559D01*
X2248150Y2106299D01*
X2281287D01*
X3804998Y1266180D02*
X3805000Y1266178D01*
X3696890Y1175000D02*
X3793426D01*
X3846574D02*
X3872481D01*
X3900000Y1202519D01*
X3985552Y1294646D02*
Y1296261D01*
X3988504Y1299213D01*
Y1318079D01*
X3947605Y1358978D02*
X3988504Y1318079D01*
X2105394Y1244370D02*
X2106024Y1245000D01*
X2055236Y1244370D02*
X2105394D01*
X1967756Y1307440D02*
Y1354134D01*
X1928070Y1393820D02*
X1967756Y1354134D01*
X1770000Y1393820D02*
X1928070D01*
X1758504Y1382324D02*
X1770000Y1393820D01*
X1758504Y1346141D02*
Y1382324D01*
X1756440Y1344078D02*
X1758504Y1346141D01*
X1756440Y1309370D02*
Y1344078D01*
X1752598Y1305527D02*
X1756440Y1309370D01*
X1752598Y1258740D02*
Y1305527D01*
X3353385Y1523172D02*
Y1528756D01*
X3329608Y1499394D02*
X3353385Y1523172D01*
X3329608Y1195000D02*
Y1499394D01*
X3499252Y1382086D02*
X3612912Y1268426D01*
X3499252Y1382086D02*
Y1505748D01*
X3542579Y1412737D02*
X3596338Y1358978D01*
X3542579Y1412737D02*
Y1529597D01*
X3612912Y1268426D02*
X3694016D01*
X3596338Y1358978D02*
X3694016D01*
Y1177874D02*
X3696890Y1175000D01*
X2663426Y1091574D02*
Y1175000D01*
X1790000Y1090000D02*
Y1180000D01*
X2055000Y1090000D02*
X2055236Y1090236D01*
Y1193190D01*
X1967756Y1092244D02*
X1970000Y1090000D01*
X1967756Y1092244D02*
Y1191300D01*
X2155000Y1090000D02*
X2155236Y1090236D01*
Y1183739D01*
D30*
X2755905Y1265552D02*
X2791928D01*
X2677165D02*
X2755905D01*
X2560000D02*
X2677165D01*
X2862480Y1195000D02*
X3329608D01*
X2791928Y1265552D02*
X2862480Y1195000D01*
D31*
X1437008Y1327756D02*
X1543307D01*
X1365078Y1347441D02*
X1417323D01*
X1437008Y1327756D01*
X1365078Y1229331D02*
X1381572Y1245825D01*
X1830709Y1726914D02*
Y1752954D01*
Y1466755D02*
Y1726914D01*
Y1466755D02*
X1833213Y1464251D01*
X2746467Y1505748D02*
X2755905Y1496310D01*
Y1265552D02*
Y1496310D01*
X1381572Y1245825D02*
X1585000D01*
Y1286063D01*
X1543307Y1327756D02*
X1585000Y1286063D01*
D33*
X1645002Y2322835D02*
D03*
X1614173Y964567D02*
D03*
X3957652D02*
D03*
X3976378Y2322835D02*
D03*
D34*
X1195000Y1144685D02*
D03*
Y2140749D02*
D03*
X4395078Y2139449D02*
D03*
Y1143385D02*
D03*
D35*
X1365078Y2056103D02*
D03*
Y1937993D02*
D03*
Y1819883D02*
D03*
Y1701771D02*
D03*
Y1583661D02*
D03*
Y1465551D02*
D03*
Y1347441D02*
D03*
Y1229331D02*
D03*
X4225000Y1228031D02*
D03*
Y1346141D02*
D03*
Y1464251D02*
D03*
Y1582363D02*
D03*
Y1700473D02*
D03*
Y1818583D02*
D03*
Y1936693D02*
D03*
Y2054803D02*
D03*
D36*
X3510969Y1815772D02*
D03*
X1896222Y1929175D02*
D03*
X1944109Y1934609D02*
D03*
X2500000Y1791339D02*
D03*
X3188970Y1737992D02*
D03*
X3093268Y1644428D02*
D03*
X2911668Y1696384D02*
D03*
X1782033Y2183186D02*
D03*
X1721022Y2153629D02*
D03*
X3937008Y2054803D02*
D03*
X3885827Y1979325D02*
D03*
X3756474Y1929134D02*
D03*
X3785946Y1833150D02*
D03*
X3274724Y2100347D02*
D03*
X3205000Y1991563D02*
D03*
X3188970Y2047240D02*
D03*
X3694016Y1471839D02*
D03*
X4078004Y1348148D02*
D03*
X2549167Y1637326D02*
D03*
X2716574Y1175000D02*
D03*
X3020314Y2200047D02*
D03*
X3168348Y1672382D02*
D03*
X2881802Y1644428D02*
D03*
X2887795Y1755906D02*
D03*
X3246822Y1986284D02*
D03*
X3134606Y1989402D02*
D03*
X2954066Y1929134D02*
D03*
X2719242Y1773108D02*
D03*
X2816314Y1940001D02*
D03*
X2639776Y1907480D02*
D03*
X2670146Y2106299D02*
D03*
X2165354Y1714024D02*
D03*
X1833213Y1464251D02*
D03*
X2283465Y1445000D02*
D03*
X2165354D02*
D03*
X2240217Y1669758D02*
D03*
X2267978Y1629533D02*
D03*
X2224409Y2042322D02*
D03*
X2263952Y2062992D02*
D03*
X1830709Y1752954D02*
D03*
X2746467Y1505748D02*
D03*
X3700787Y1268426D02*
D03*
X3900000Y1202519D02*
D03*
X3985552Y1294646D02*
D03*
X1554393Y1623032D02*
D03*
Y1780000D02*
D03*
X2106024Y1245000D02*
D03*
X3353385Y1528756D02*
D03*
D37*
X2862480Y1195000D02*
D03*
D38*
X1771653Y2061024D02*
D03*
D39*
Y2086614D02*
D03*
Y2112205D02*
D03*
X1846457Y2061024D02*
D03*
Y2086614D02*
D03*
Y2112205D02*
D03*
D40*
X3694016Y1367309D02*
D03*
Y1428333D02*
D03*
D41*
X3445984Y1268426D02*
D03*
X2311968Y1265552D02*
D03*
D42*
X3694016Y1177874D02*
D03*
Y1268426D02*
D03*
Y1358978D02*
D03*
X2560000Y1175000D02*
D03*
Y1265552D02*
D03*
Y1356104D02*
D03*
D43*
X2155236Y1183739D02*
D03*
Y1354999D02*
D03*
D44*
X1967756Y1307440D02*
D03*
Y1191300D02*
D03*
D45*
X1585000Y1135589D02*
D03*
Y1245825D02*
D03*
D46*
X2188976Y2342520D02*
D03*
X2094488D02*
D03*
D47*
X2276574D02*
D03*
X2006890D02*
D03*
D48*
X2267716Y2246064D02*
D03*
X2015748D02*
D03*
D49*
X2192914Y2237206D02*
D03*
X2167322D02*
D03*
X2141732D02*
D03*
X2116142D02*
D03*
X2090550D02*
D03*
D50*
X1950472Y1760000D02*
D03*
Y1710000D02*
D03*
Y1660000D02*
D03*
Y1610000D02*
D03*
X1735904Y1760000D02*
D03*
Y1710000D02*
D03*
Y1660000D02*
D03*
Y1610000D02*
D03*
D51*
X4099449Y1220590D02*
X4217559D01*
X3974410D02*
X4099449D01*
X4225000Y1346141D01*
X3700787Y1268426D02*
X3926574D01*
X3694016Y1358978D02*
X3947605D01*
X4170990Y1582363D02*
X4225000D01*
X4048627Y1460000D02*
X4170990Y1582363D01*
X3694016Y1268426D02*
X3700787D01*
X4100000Y1460000D02*
X4104251Y1464251D01*
X4225000D01*
X4217559Y1220590D02*
X4225000Y1228031D01*
X4048627Y1460000D02*
X4100000D01*
X3947605Y1358978D02*
X4048627Y1460000D01*
X3926574Y1268426D02*
X3974410Y1220590D01*
X2560000Y1095000D02*
X2565000Y1090000D01*
D52*
X2663426Y1091574D02*
X3690000D01*
X3694016Y1095590D01*
X1732284Y1090000D02*
X1790000D01*
X1585000Y1135589D02*
X1686694D01*
X1732284Y1090000D01*
X3694016Y1095590D02*
Y1177874D01*
X2565000Y1090000D02*
X2665000D01*
X2155000D02*
X2565000D01*
X2560000Y1095000D02*
Y1175000D01*
X1790000Y1090000D02*
X1970000D01*
X2055000D02*
X2155000D01*
X1970000D02*
X2055000D01*
D53*
X3694016Y1382821D02*
Y1412821D01*
%TF.MD5,a4711e7a59441a464df0dcbb5eb9aa77*%
M02*
