%TF.GenerationSoftware,Altium Limited,Altium Designer,18.1.9 (240)*%
G04 Layer_Color=128*
%FSLAX26Y26*%
%MOIN*%
%TF.FileFunction,Paste,Bot*%
%TF.Part,Single*%
G01*
G75*
%TA.AperFunction,SMDPad,CuDef*%
%ADD10R,0.033465X0.037402*%
%ADD14R,0.039370X0.035433*%
%ADD15R,0.035433X0.039370*%
%ADD16R,0.037402X0.033465*%
%ADD22R,0.031496X0.035433*%
%ADD38R,0.019685X0.015748*%
%ADD39O,0.019685X0.015748*%
%ADD40R,0.049213X0.037402*%
%ADD41R,0.078740X0.149606*%
%ADD42R,0.078740X0.059055*%
%ADD43R,0.074803X0.035433*%
%ADD44R,0.057087X0.053150*%
%ADD45R,0.070866X0.039370*%
%ADD46R,0.074803X0.074803*%
%TA.AperFunction,ConnectorPad*%
%ADD47R,0.057087X0.051181*%
%ADD48R,0.062992X0.055118*%
%ADD49R,0.015748X0.053150*%
%TA.AperFunction,SMDPad,CuDef*%
%ADD50O,0.057087X0.023622*%
D10*
X1758504Y1346141D02*
D03*
X1809684D02*
D03*
X1739804Y1835000D02*
D03*
X1790984D02*
D03*
D14*
X3858267Y1340274D02*
D03*
Y1287126D02*
D03*
X2042400Y1713148D02*
D03*
Y1660000D02*
D03*
X2680000Y1390000D02*
D03*
Y1336852D02*
D03*
D15*
X3846574Y1175000D02*
D03*
X3793426D02*
D03*
X1660000Y1535000D02*
D03*
X1713148D02*
D03*
X2716574Y1175000D02*
D03*
X2663426D02*
D03*
D16*
X2055236Y1193190D02*
D03*
Y1244370D02*
D03*
X1645000Y1604410D02*
D03*
Y1655590D02*
D03*
Y1729410D02*
D03*
Y1780590D02*
D03*
D22*
X1752598Y1258740D02*
D03*
X1827402D02*
D03*
X1790000Y1180000D02*
D03*
D38*
X1771653Y2061024D02*
D03*
D39*
Y2086614D02*
D03*
Y2112205D02*
D03*
X1846457Y2061024D02*
D03*
Y2086614D02*
D03*
Y2112205D02*
D03*
D40*
X3694016Y1367309D02*
D03*
Y1428333D02*
D03*
D41*
X3445984Y1268426D02*
D03*
X2311968Y1265552D02*
D03*
D42*
X3694016Y1177874D02*
D03*
Y1268426D02*
D03*
Y1358978D02*
D03*
X2560000Y1175000D02*
D03*
Y1265552D02*
D03*
Y1356104D02*
D03*
D43*
X2155236Y1183739D02*
D03*
Y1354999D02*
D03*
D44*
X1967756Y1307440D02*
D03*
Y1191300D02*
D03*
D45*
X1585000Y1135589D02*
D03*
Y1245825D02*
D03*
D46*
X2188976Y2342520D02*
D03*
X2094488D02*
D03*
D47*
X2276574D02*
D03*
X2006890D02*
D03*
D48*
X2267716Y2246064D02*
D03*
X2015748D02*
D03*
D49*
X2192914Y2237206D02*
D03*
X2167322D02*
D03*
X2141732D02*
D03*
X2116142D02*
D03*
X2090550D02*
D03*
D50*
X1950472Y1760000D02*
D03*
Y1710000D02*
D03*
Y1660000D02*
D03*
Y1610000D02*
D03*
X1735904Y1760000D02*
D03*
Y1710000D02*
D03*
Y1660000D02*
D03*
Y1610000D02*
D03*
%TF.MD5,719d14c3bc6b8c52c9eb99408611e69b*%
M02*
